<?xml version="1.0" encoding="UTF-8" standalone="no"?>
<!-- Created with Inkscape (http://www.inkscape.org/) -->
<svg
   xmlns:dc="http://purl.org/dc/elements/1.1/"
   xmlns:cc="http://web.resource.org/cc/"
   xmlns:rdf="http://www.w3.org/1999/02/22-rdf-syntax-ns#"
   xmlns:svg="http://www.w3.org/2000/svg"
   xmlns="http://www.w3.org/2000/svg"
   xmlns:sodipodi="http://sodipodi.sourceforge.net/DTD/sodipodi-0.dtd"
   xmlns:inkscape="http://www.inkscape.org/namespaces/inkscape"
   width="696.12299"
   height="547.73254"
   id="svg2180"
   sodipodi:version="0.32"
   inkscape:version="0.45.1"
   version="1.0"
   sodipodi:docbase="/home/ben/Images/SVG/Motifs"
   sodipodi:docname="bird_man.svg"
   inkscape:output_extension="org.inkscape.output.svg.inkscape">
  <defs
     id="defs2182" />
  <sodipodi:namedview
     id="base"
     pagecolor="#ffffff"
     bordercolor="#666666"
     borderopacity="1.0"
     inkscape:pageopacity="0.0"
     inkscape:pageshadow="2"
     inkscape:zoom="0.35"
     inkscape:cx="7.9341877"
     inkscape:cy="455.13321"
     inkscape:document-units="px"
     inkscape:current-layer="layer1"
     inkscape:window-width="910"
     inkscape:window-height="623"
     inkscape:window-x="95"
     inkscape:window-y="140" />
  <metadata
     id="metadata2185">
    <rdf:RDF>
      <cc:Work
         rdf:about="">
        <dc:format>image/svg+xml</dc:format>
        <dc:type
           rdf:resource="http://purl.org/dc/dcmitype/StillImage" />
        <dc:title>Eastern Island Bird man</dc:title>
        <dc:subject>
          <rdf:Bag>
            <rdf:li>eastern</rdf:li>
            <rdf:li>island</rdf:li>
            <rdf:li>bird</rdf:li>
            <rdf:li>man</rdf:li>
            <rdf:li>cartoon</rdf:li>
          </rdf:Bag>
        </dc:subject>
        <dc:creator>
          <cc:Agent>
            <dc:title>Benjamin Pavie</dc:title>
          </cc:Agent>
        </dc:creator>
        <cc:license
           rdf:resource="http://web.resource.org/cc/PublicDomain" />
      </cc:Work>
      <cc:License
         rdf:about="http://web.resource.org/cc/PublicDomain">
        <cc:permits
           rdf:resource="http://web.resource.org/cc/Reproduction" />
        <cc:permits
           rdf:resource="http://web.resource.org/cc/Distribution" />
        <cc:permits
           rdf:resource="http://web.resource.org/cc/DerivativeWorks" />
      </cc:License>
    </rdf:RDF>
  </metadata>
  <g
     inkscape:label="Calque 1"
     inkscape:groupmode="layer"
     id="layer1"
     transform="translate(-420.68012,-669.94936)">
    <g
       id="g2244"
       inkscape:export-filename="/tmp/thumbnail.png"
       inkscape:export-xdpi="49.294128"
       inkscape:export-ydpi="49.294128">
      <path
         sodipodi:nodetypes="cscccssssssssccccsssssssszzsccccccscccccssccsssscssssscssssssscscccsccccccssssccssscccsccssssssssscc"
         style="fill:#fd3301"
         d="M 621.09699,1216.3284 C 616.79749,1214.6555 594.59929,1213.3811 567.11559,1213.2293 C 541.51409,1213.0879 535.32469,1211.6744 528.45089,1204.3992 L 524.11559,1199.8109 L 524.11559,1188.3095 C 524.11559,1178.138 524.46919,1175.7528 527.17409,1167.6794 C 531.57839,1154.5333 540.45219,1141.6682 545.08849,1141.7073 C 546.80229,1141.7217 570.51679,1149.623 576.46379,1152.161 C 581.79689,1154.437 584.62309,1153.7757 580.61559,1151.1894 C 578.96559,1150.1246 572.66559,1145.15 566.61559,1140.1347 C 560.56559,1135.1194 554.26559,1130.1827 552.61559,1129.1644 C 549.01249,1126.9405 544.93669,1123.2762 535.61559,1113.8807 C 529.11709,1107.3302 524.09579,1101.6641 512.40929,1087.6944 C 509.87869,1084.6694 506.75239,1081.6176 505.46189,1080.9125 C 498.18679,1070.3907 491.77869,1057.7107 488.00339,1045.029 C 487.92265,1023.6026 497.18582,1008.4896 515.03529,992.11394 C 503.26921,988.33194 492.07884,980.90834 483.02639,972.54164 C 476.19059,964.77884 469.15939,954.56074 466.96089,949.19444 C 466.05949,946.99444 463.94409,941.81944 462.25989,937.69444 C 459.00059,929.71194 457.88709,924.32174 456.10909,907.92094 C 454.74739,895.35921 454.66229,855.59002 455.98429,849.57128 C 459.41219,833.96549 459.67739,820.75208 456.68429,814.6945 C 454.53279,810.33995 452.37519,806.37072 448.80259,800.1945 C 444.85269,793.36593 441.82988,787.49713 441.82988,781.32784 C 441.82988,779.03563 442.37708,773.96931 443.04588,770.06935 C 444.56428,761.21439 450.05228,757.69552 456.57758,751.70575 C 463.29428,745.54029 471.21818,739.87043 480.60298,739.51257 C 489.63108,739.16832 501.1756,744.66771 504.61249,751.62252 C 507.1291,756.71507 511.34088,769.76942 514.56548,775.31923 C 517.85305,788.04114 517.10151,801.31939 510.12345,811.16107 C 498.31087,821.58904 508.23899,833.50478 513.13979,846.69449 C 518.66659,860.88694 524.12159,882.95631 525.70489,897.52911 C 527.00253,909.25694 537.49862,903.29534 556.40492,899.00129 C 567.91553,896.80928 574.12848,909.11281 590.22859,905.96084 C 588.56349,903.88934 583.89859,898.14449 579.86199,893.19449 C 575.82549,888.24449 570.31399,880.14449 567.61419,875.19449 L 562.70569,866.19449 L 562.66059,853.69449 L 564.13089,842.20464 L 567.42079,834.19449 C 579.86699,822.72899 581.63929,820.30136 588.18279,815.99489 C 598.43669,809.24655 598.11559,805.59857 598.11559,803.6828 C 598.11559,801.49205 596.18339,800.6998 590.78379,800.67656 C 566.48429,795.76382 553.23494,791.91741 544.72239,768.09689 C 538.31979,741.87381 535.82949,738.10053 518.61559,728.54082 C 515.36169,726.73373 512.28429,726.18672 502.11559,725.60793 C 492.52589,725.06209 489.26639,725.19625 488.11559,726.18417 C 487.29059,726.89243 485.04059,727.79721 483.11559,728.19479 C 475.67819,729.73091 444.81899,740.188 440.13039,745.17878 C 436.14932,746.76373 427.26113,751.82445 423.42999,753.83393 C 420.88703,755.16774 420.73609,756.88725 420.68799,753.86894 C 420.50259,742.20875 423.62625,736.19515 426.33109,728.69732 C 431.59233,714.11314 440.83103,702.19949 453.11559,692.98387 C 464.28579,684.60423 484.85474,674.54373 494.11559,672.52318 C 548.14315,660.73532 577.06257,690.92721 605.12819,732.6945 C 612.90124,713.21761 620.99495,703.03705 638.63559,690.44 C 643.76691,686.77576 653.48969,683.04956 661.90179,681.06516 C 675.53295,677.84962 694.09512,681.03771 706.14063,688.66326 C 735.50687,707.25391 747.49224,737.85049 737.22879,768.02595 C 733.09062,780.19252 730.50216,784.16431 720.60676,793.53113 C 710.53588,803.06406 705.984,806.28071 697.11562,810.13148 C 693.54062,811.68379 690.0524,813.79575 689.03688,814.32418 C 682.62192,817.66219 677.50196,822.51824 673.22934,828.47133 C 668.97069,835.96721 670.11706,840.58606 671.2027,848.86072 C 673.85685,869.09045 687.84316,881.74265 701.00537,896.41152 C 729.2218,927.07428 752.5718,962.70899 763.497,1003.1944 C 768.09775,1032.4355 770.12591,1064.0577 754.25791,1090.1944 C 742.4685,1108.911 721.88818,1121.3914 696.61562,1125.1502 C 684.21379,1126.9947 671.17799,1127.5156 661.23892,1127.8249 C 636.2375,1120.3625 619.03219,1096.4029 597.55169,1081.8555 C 584.76627,1084.9308 628.04029,1120.233 633.07929,1126.5395 C 637.40189,1135.2664 640.00479,1142.2541 642.35219,1151.4332 L 645.61559,1164.1944 L 654.11559,1168.3001 C 661.57899,1171.9051 663.04249,1173.0638 666.11559,1177.8001 C 669.43149,1182.9106 669.60809,1183.6202 669.47259,1191.2871 C 669.30689,1200.6696 668.18799,1203.3337 661.80489,1209.5456 C 658.13719,1213.1149 656.19099,1214.1442 650.97469,1215.2731 C 641.12849,1217.404 625.29869,1217.9632 621.09699,1216.3284 z M 598.04029,997.73484 C 603.14559,995.00254 600.75429,987.59214 593.26079,982.92344 C 581.72369,975.73554 570.26349,972.36524 560.11559,973.17574 C 557.09059,973.41734 554.25089,973.63294 553.80519,973.65474 C 553.35949,973.67664 549.48869,977.28164 545.20349,981.66584 L 537.41219,989.63724 L 540.51389,990.64444 C 545.15259,992.15064 567.11959,996.84264 578.11559,998.67584 C 584.02709,999.66144 595.44829,999.12204 598.04029,997.73484 z M 696.48663,775.76026 C 705.04974,768.9156 710.19679,758.79022 711.56839,747.42358 C 712.11669,742.87976 711.8216,740.32096 710.18062,735.38981 C 707.24746,726.57567 703.68459,722.74197 693.74023,717.69972 C 685.34859,713.44476 685.17488,713.40537 677.43692,714.00298 C 664.32279,715.01578 653.30019,719.45921 651.29199,725.89388 C 650.64499,727.9669 650.11559,730.28999 650.11559,731.05631 C 650.11559,731.82262 649.48619,732.97195 648.71699,733.61036 C 647.45589,734.65701 646.20669,740.07682 646.06799,745.10393 C 646.03909,746.15411 645.61399,747.76327 645.12349,748.67984 C 643.44869,751.80919 646.61479,761.39246 655.45599,767.54943 C 667.34159,776.05722 682.21023,778.76968 696.48663,775.76026 z "
         id="path35536" />
      <path
         sodipodi:nodetypes="cccssscccsssc"
         style="fill:#262626"
         d="M 588.74699,770.93214 C 579.43329,767.76576 574.44169,757.71334 570.32709,749.42423 C 564.04319,736.76128 558.45869,722.99073 548.10969,713.06471 C 538.47199,706.51568 526.16789,701.266 514.77849,698.84357 C 501.46659,696.01223 483.25459,700.36212 467.77849,710.06942 C 456.15319,717.36135 451.83669,720.87984 447.78069,726.37026 C 444.12559,731.31789 436.77849,737.82691 436.77849,736.11738 C 460.57399,703.16924 486.70379,687.68301 528.39109,692.80559 C 539.89299,695.76371 550.51759,703.07564 559.02769,711.37318 C 562.76669,715.40877 570.15139,729.08405 572.25789,735.87318 C 576.34669,749.05172 584.08879,761.46542 590.11849,764.51101 C 593.68649,766.31322 597.77849,769.80501 597.77849,771.04749 C 597.77849,772.05609 592.21239,771.985 588.74699,770.93214 z "
         id="path35538" />
      <path
         style="fill:#262626"
         d="M 504.41156,759.65349 C 501.60151,749.51368 502.32278,772.8625 501.34408,779.27206 C 499.66233,790.28591 492.1431,801.1628 484.02403,804.04854 C 456.19643,813.93925 454.10182,780.57481 454.31181,761.59603 C 444.63417,762.39144 446.89148,795.04197 453.09199,803.29377 C 466.8732,821.63415 462.91398,839.47864 460.49956,860.06044 C 456.77228,891.8337 458.67191,935.25764 473.56163,955.56534 C 485.45762,971.79004 507.35899,984.48724 528.46373,982.49084 C 547.7669,970.71024 572.70545,966.95052 594.37396,980.42864 C 614.27471,992.80719 601.46247,999.79873 584.01163,1000.9845 C 561.01229,1002.5473 537.19845,985.55848 516.674,998.4377 C 503.19565,1006.8954 490.86615,1019.4551 489.44677,1036.3499 C 487.90155,1054.7425 502.45217,1069.7633 512.27901,1084.162 C 524.32627,1101.8142 550.62529,1122.0306 571.67601,1139.7939 C 579.88123,1146.7177 604.09153,1164.2157 596.85757,1170.235 C 579.45788,1163.1911 560.82836,1148.5815 549.78351,1147.8236 C 532.3014,1146.624 532.24901,1164.9814 548.75863,1166.7194 C 558.98319,1172.4262 586.45012,1174.059 585.8827,1181.3738 C 565.79571,1182.8817 547.80494,1163.6024 528.83618,1168.0631 C 544.63286,1178.4361 566.74907,1177.8623 582.67445,1189.4531 C 575.25558,1193.33 546.74571,1178.0987 530.77404,1176.0948 C 528.68452,1187.1039 565.96624,1188.7615 579.68645,1195.5152 C 561.55198,1199.1586 544.0193,1188.9989 526.31928,1186.1947 C 536.30037,1202.1422 560.089,1196.0753 575.6383,1203.1402 C 566.00939,1210.3631 540.33893,1195.0388 528.65501,1201.5329 C 549.06091,1214.0177 578.32713,1208.0867 602.35632,1210.7383 C 623.63447,1213.0864 648.03524,1213.5982 666.79749,1203.4123 C 656.1345,1223.3564 627.28542,1217.2501 608.91066,1215.0975 C 582.98127,1212.0599 554.86193,1219.713 530.95345,1209.4996 C 508.19524,1199.7776 526.24157,1159.3836 538.64713,1143.6591 C 546.71384,1133.4343 595.93549,1161.6993 593.33994,1163.5418 C 589.9542,1165.9452 548.74718,1133.3501 531.97162,1116.9039 C 514.51069,1099.7858 498.82992,1080.0904 486.78872,1058.4235 C 475.36702,1037.8714 480.63943,1009.1387 501.86742,999.31084 C 522.93814,989.55581 495.57965,985.57214 487.15758,979.29304 C 459.61796,958.76094 452.67876,922.14504 452.28599,889.50251 C 452.02526,867.83428 458.40157,846.09423 455.60355,824.98319 C 452.54627,801.91605 427.95767,780.47182 447.61595,757.8074 C 466.66699,735.84309 458.5272,777.66871 466.5956,786.69867 C 490.60787,813.5726 496.01116,758.31849 494.7555,751.23185 C 493.57176,744.55109 503.32247,746.77776 505.09095,751.12172 C 513.60826,772.28456 525.4994,791.73504 512.92281,816.86268 C 506.59153,824.57679 525.41077,864.3834 525.65016,889.48816 C 525.80163,906.08754 544.67205,897.42252 559.08711,898.03507 C 567.71299,898.40162 582.75867,908.97993 583.47932,901.45514 C 583.9922,896.09979 555.7621,871.97507 560.91957,848.79182 C 565.38192,828.73321 585.32344,821.92182 595.90094,807.54959 C 589.00497,793.078 558.68728,803.70736 549.38063,785.20608 C 539.0818,766.53832 541.35148,735.44588 515.38188,729.41989 C 484.44818,718.9907 436.11078,748.56201 420.92447,755.60648 C 426.95236,747.94169 456.48672,729.35956 470.90576,723.97504 C 494.00941,714.21492 531.29202,718.76952 543.4683,743.75003 C 550.41429,764.4405 554.80958,797.12094 584.44019,792.79825 C 600.35246,790.76202 613.57043,804.96414 595.4896,814.38026 C 578.80085,827.63826 560.69721,842.48385 567.57106,866.5368 C 571.231,879.34362 603.43137,903.29016 591.32393,910.1643 C 584.4129,914.08811 538.57586,908.56183 524.2835,903.13291 C 511.74747,898.37113 516.72685,867.50137 511.0573,848.54185 C 506.53769,833.42785 499.61012,824.15189 507.95714,811.77651 C 519.58346,794.53923 509.52038,778.08818 504.41156,759.65349 z M 539.52389,988.23737 C 555.56956,976.36481 583.72896,975.24991 598.89541,991.52725 C 587.48634,999.95584 560.55236,993.69643 544.08678,990.96474 C 538.40467,990.2478 538.29169,989.1491 539.52389,988.23737 z M 639.21269,1117.6302 C 620.85659,1108.4795 609.36635,1086.9904 596.55335,1085.6887 C 605.94757,1101.1318 630.30647,1116.2297 634.40706,1129.1314 C 620.22235,1115.1188 604.12258,1101.9459 591.63562,1086.4927 C 593.65579,1068.0826 618.45218,1091.1143 625.27673,1097.8472 C 636.47705,1108.8972 654.38993,1126.8396 704.76638,1123.0335 C 658.63645,1136.4145 646.17772,1121.1024 639.21269,1117.6302 z "
         id="path35540"
         sodipodi:nodetypes="csscssscsssssscscccccccccscsssssssssssssccssssccccccccsssssscccsccccscs" />
      <path
         transform="matrix(0.921745,0,0,0.921745,924.30088,735.69542)"
         d="M -226.27415 11.905062 A 39.39595 36.36549 0 1 1  -305.06606,11.905062 A 39.39595 36.36549 0 1 1  -226.27415 11.905062 z"
         sodipodi:ry="36.36549"
         sodipodi:rx="39.39595"
         sodipodi:cy="11.905062"
         sodipodi:cx="-265.6701"
         id="path35542"
         style="color:#000000;fill:none;fill-opacity:0.69551284;fill-rule:nonzero;stroke:#000000;stroke-width:8;stroke-linecap:round;stroke-linejoin:round;marker:none;marker-start:none;marker-mid:none;marker-end:none;stroke-miterlimit:4;stroke-dasharray:none;stroke-dashoffset:0;stroke-opacity:1;visibility:visible;display:inline;overflow:visible"
         sodipodi:type="arc" />
      <path
         transform="matrix(0.3443583,0,0,0.3730549,768.97755,741.40384)"
         d="M -226.27415 11.905062 A 39.39595 36.36549 0 1 1  -305.06606,11.905062 A 39.39595 36.36549 0 1 1  -226.27415 11.905062 z"
         sodipodi:ry="36.36549"
         sodipodi:rx="39.39595"
         sodipodi:cy="11.905062"
         sodipodi:cx="-265.6701"
         id="path36513"
         style="color:#000000;fill:#6699cc;fill-opacity:1;fill-rule:nonzero;stroke:none;stroke-width:8;stroke-linecap:round;stroke-linejoin:round;marker:none;marker-start:none;marker-mid:none;marker-end:none;stroke-miterlimit:4;stroke-dasharray:none;stroke-dashoffset:0;stroke-opacity:1;visibility:visible;display:inline;overflow:visible"
         sodipodi:type="arc" />
    </g>
    <path
       id="path2253"
       d="M 916.38621,1216.3284 C 920.68571,1214.6555 942.88391,1213.3811 970.36761,1213.2293 C 995.96911,1213.0879 1002.1585,1211.6744 1009.0323,1204.3992 L 1013.3676,1199.8109 L 1013.3676,1188.3095 C 1013.3676,1178.138 1013.014,1175.7528 1010.3091,1167.6794 C 1005.9048,1154.5333 997.03101,1141.6682 992.39471,1141.7073 C 990.68091,1141.7217 966.96641,1149.623 961.01941,1152.161 C 955.68631,1154.437 952.86011,1153.7757 956.86761,1151.1894 C 958.51761,1150.1246 964.81761,1145.15 970.86761,1140.1347 C 976.91761,1135.1194 983.21761,1130.1827 984.86761,1129.1644 C 988.47071,1126.9405 992.54651,1123.2762 1001.8676,1113.8807 C 1008.3661,1107.3302 1013.3874,1101.6641 1025.0739,1087.6944 C 1027.6045,1084.6694 1030.7308,1081.6176 1032.0213,1080.9125 C 1039.2964,1070.3907 1045.7045,1057.7107 1049.4798,1045.029 C 1049.5605,1023.6026 1040.2974,1008.4896 1022.4479,992.11394 C 1034.214,988.33194 1045.4044,980.90834 1054.4568,972.54164 C 1061.2926,964.77884 1068.3238,954.56074 1070.5223,949.19444 C 1071.4237,946.99444 1073.5391,941.81944 1075.2233,937.69444 C 1078.4826,929.71194 1079.5961,924.32174 1081.3741,907.92094 C 1082.7358,895.35921 1082.8209,855.59002 1081.4989,849.57128 C 1078.071,833.96549 1077.8058,820.75208 1080.7989,814.6945 C 1082.9504,810.33995 1085.108,806.37072 1088.6806,800.1945 C 1092.6305,793.36593 1095.6533,787.49713 1095.6533,781.32784 C 1095.6533,779.03563 1095.1061,773.96931 1094.4373,770.06935 C 1092.9189,761.21439 1087.4309,757.69552 1080.9056,751.70575 C 1074.1889,745.54029 1066.265,739.87043 1056.8802,739.51257 C 1047.8521,739.16832 1036.3076,744.66771 1032.8707,751.62252 C 1030.3541,756.71507 1026.1423,769.76942 1022.9177,775.31923 C 1019.6301,788.04114 1020.3817,801.31939 1027.3597,811.16107 C 1039.1723,821.58904 1029.2442,833.50478 1024.3434,846.69449 C 1018.8166,860.88694 1013.3616,882.95631 1011.7783,897.52911 C 1010.4807,909.25694 999.98458,903.29534 981.07828,899.00129 C 969.56767,896.80928 963.35472,909.11281 947.25461,905.96084 C 948.91971,903.88934 953.58461,898.14449 957.62121,893.19449 C 961.65771,888.24449 967.16921,880.14449 969.86901,875.19449 L 974.77751,866.19449 L 974.82261,853.69449 L 973.35231,842.20464 L 970.06241,834.19449 C 957.61621,822.72899 955.84391,820.30136 949.30041,815.99489 C 939.04651,809.24655 939.36761,805.59857 939.36761,803.6828 C 939.36761,801.49205 941.29981,800.6998 946.69941,800.67656 C 970.99891,795.76382 984.24826,791.91741 992.76081,768.09689 C 999.16341,741.87381 1001.6537,738.10053 1018.8676,728.54082 C 1022.1215,726.73373 1025.1989,726.18672 1035.3676,725.60793 C 1044.9573,725.06209 1048.2168,725.19625 1049.3676,726.18417 C 1050.1926,726.89243 1052.4426,727.79721 1054.3676,728.19479 C 1061.805,729.73091 1092.6642,740.188 1097.3528,745.17878 C 1101.3339,746.76373 1110.2221,751.82445 1114.0532,753.83393 C 1116.5962,755.16774 1116.7471,756.88725 1116.7952,753.86894 C 1116.9806,742.20875 1113.8569,736.19515 1111.1521,728.69732 C 1105.8909,714.11314 1096.6522,702.19949 1084.3676,692.98387 C 1073.1974,684.60423 1052.6285,674.54373 1043.3676,672.52318 C 989.34005,660.73532 960.42063,690.92721 932.35501,732.6945 C 924.58196,713.21761 916.48825,703.03705 898.84761,690.44 C 893.71629,686.77576 883.99351,683.04956 875.58141,681.06516 C 861.95025,677.84962 843.38808,681.03771 831.34257,688.66326 C 801.97633,707.25391 789.99096,737.85049 800.25441,768.02595 C 804.39258,780.19252 806.98104,784.16431 816.87644,793.53113 C 826.94732,803.06406 831.4992,806.28071 840.36758,810.13148 C 843.94258,811.68379 847.4308,813.79575 848.44632,814.32418 C 854.86128,817.66219 859.98124,822.51824 864.25386,828.47133 C 868.51251,835.96721 867.36614,840.58606 866.2805,848.86072 C 863.62635,869.09045 849.64004,881.74265 836.47783,896.41152 C 808.2614,927.07428 784.9114,962.70899 773.9862,1003.1944 C 769.38545,1032.4355 767.35729,1064.0577 783.22529,1090.1944 C 795.0147,1108.911 815.59502,1121.3914 840.86758,1125.1502 C 853.26941,1126.9947 866.30521,1127.5156 876.24428,1127.8249 C 901.2457,1120.3625 918.45101,1096.4029 939.93151,1081.8555 C 952.71693,1084.9308 909.44291,1120.233 904.40391,1126.5395 C 900.08131,1135.2664 897.47841,1142.2541 895.13101,1151.4332 L 891.86761,1164.1944 L 883.36761,1168.3001 C 875.90421,1171.9051 874.44071,1173.0638 871.36761,1177.8001 C 868.05171,1182.9106 867.87511,1183.6202 868.01061,1191.2871 C 868.17631,1200.6696 869.29521,1203.3337 875.67831,1209.5456 C 879.34601,1213.1149 881.29221,1214.1442 886.50851,1215.2731 C 896.35471,1217.404 912.18451,1217.9632 916.38621,1216.3284 z M 939.44291,997.73484 C 934.33761,995.00254 936.72891,987.59214 944.22241,982.92344 C 955.75951,975.73554 967.21971,972.36524 977.36761,973.17574 C 980.39261,973.41734 983.23231,973.63294 983.67801,973.65474 C 984.12371,973.67664 987.99451,977.28164 992.27971,981.66584 L 1000.071,989.63724 L 996.96931,990.64444 C 992.33061,992.15064 970.36361,996.84264 959.36761,998.67584 C 953.45611,999.66144 942.03491,999.12204 939.44291,997.73484 z M 840.99657,775.76026 C 832.43346,768.9156 827.28641,758.79022 825.91481,747.42358 C 825.36651,742.87976 825.6616,740.32096 827.30258,735.38981 C 830.23574,726.57567 833.79861,722.74197 843.74297,717.69972 C 852.13461,713.44476 852.30832,713.40537 860.04628,714.00298 C 873.16041,715.01578 884.18301,719.45921 886.19121,725.89388 C 886.83821,727.9669 887.36761,730.28999 887.36761,731.05631 C 887.36761,731.82262 887.99701,732.97195 888.76621,733.61036 C 890.02731,734.65701 891.27651,740.07682 891.41521,745.10393 C 891.44411,746.15411 891.86921,747.76327 892.35971,748.67984 C 894.03451,751.80919 890.86841,761.39246 882.02721,767.54943 C 870.14161,776.05722 855.27297,778.76968 840.99657,775.76026 z "
       style="fill:#6699cc;fill-opacity:1"
       sodipodi:nodetypes="cscccssssssssccccsssssssszzsccccccscccccssccsssscssssscssssssscscccsccccccssssccssscccsccssssssssscc"
       inkscape:export-filename="/tmp/thumbnail.png"
       inkscape:export-xdpi="49.294128"
       inkscape:export-ydpi="49.294128" />
    <path
       id="path2255"
       d="M 948.73621,770.93214 C 958.04991,767.76576 963.04151,757.71334 967.15611,749.42423 C 973.44001,736.76128 979.02451,722.99073 989.37351,713.06471 C 999.01121,706.51568 1011.3153,701.266 1022.7047,698.84357 C 1036.0166,696.01223 1054.2286,700.36212 1069.7047,710.06942 C 1081.33,717.36135 1085.6465,720.87984 1089.7025,726.37026 C 1093.3576,731.31789 1100.7047,737.82691 1100.7047,736.11738 C 1076.9092,703.16924 1050.7794,687.68301 1009.0921,692.80559 C 997.59021,695.76371 986.96561,703.07564 978.45551,711.37318 C 974.71651,715.40877 967.33181,729.08405 965.22531,735.87318 C 961.13651,749.05172 953.39441,761.46542 947.36471,764.51101 C 943.79671,766.31322 939.70471,769.80501 939.70471,771.04749 C 939.70471,772.05609 945.27081,771.985 948.73621,770.93214 z "
       style="fill:#262626"
       sodipodi:nodetypes="cccssscccsssc"
       inkscape:export-filename="/tmp/thumbnail.png"
       inkscape:export-xdpi="49.294128"
       inkscape:export-ydpi="49.294128" />
    <path
       sodipodi:nodetypes="csscssscsssssscscccccccccscsssssssssssssccssssccccccccsssssscccsccccscs"
       id="path2257"
       d="M 1033.0716,759.65349 C 1035.8817,749.51368 1035.1604,772.8625 1036.1391,779.27206 C 1037.8209,790.28591 1045.3401,801.1628 1053.4592,804.04854 C 1081.2868,813.93925 1083.3814,780.57481 1083.1714,761.59603 C 1092.849,762.39144 1090.5917,795.04197 1084.3912,803.29377 C 1070.61,821.63415 1074.5692,839.47864 1076.9836,860.06044 C 1080.7109,891.8337 1078.8113,935.25764 1063.9216,955.56534 C 1052.0256,971.79004 1030.1242,984.48724 1009.0195,982.49084 C 989.7163,970.71024 964.77775,966.95052 943.10924,980.42864 C 923.20849,992.80719 936.02073,999.79873 953.47157,1000.9845 C 976.47091,1002.5473 1000.2847,985.55848 1020.8092,998.4377 C 1034.2876,1006.8954 1046.617,1019.4551 1048.0364,1036.3499 C 1049.5816,1054.7425 1035.031,1069.7633 1025.2042,1084.162 C 1013.1569,1101.8142 986.85791,1122.0306 965.80719,1139.7939 C 957.60197,1146.7177 933.39167,1164.2157 940.62563,1170.235 C 958.02532,1163.1911 976.65484,1148.5815 987.69969,1147.8236 C 1005.1818,1146.624 1005.2342,1164.9814 988.72457,1166.7194 C 978.50001,1172.4262 951.03308,1174.059 951.6005,1181.3738 C 971.68749,1182.8817 989.67826,1163.6024 1008.647,1168.0631 C 992.85034,1178.4361 970.73413,1177.8623 954.80875,1189.4531 C 962.22762,1193.33 990.73749,1178.0987 1006.7092,1176.0948 C 1008.7987,1187.1039 971.51696,1188.7615 957.79675,1195.5152 C 975.93122,1199.1586 993.4639,1188.9989 1011.1639,1186.1947 C 1001.1828,1202.1422 977.3942,1196.0753 961.8449,1203.1402 C 971.47381,1210.3631 997.14427,1195.0388 1008.8282,1201.5329 C 988.42229,1214.0177 959.15607,1208.0867 935.12688,1210.7383 C 913.84873,1213.0864 889.44796,1213.5982 870.68571,1203.4123 C 881.3487,1223.3564 910.19778,1217.2501 928.57254,1215.0975 C 954.50193,1212.0599 982.62127,1219.713 1006.5297,1209.4996 C 1029.288,1199.7776 1011.2416,1159.3836 998.83607,1143.6591 C 990.76936,1133.4343 941.54771,1161.6993 944.14326,1163.5418 C 947.529,1165.9452 988.73602,1133.3501 1005.5116,1116.9039 C 1022.9725,1099.7858 1038.6533,1080.0904 1050.6945,1058.4235 C 1062.1162,1037.8714 1056.8438,1009.1387 1035.6158,999.31084 C 1014.5451,989.55581 1041.9035,985.57214 1050.3256,979.29304 C 1077.8652,958.76094 1084.8044,922.14504 1085.1972,889.50251 C 1085.4579,867.83428 1079.0816,846.09423 1081.8796,824.98319 C 1084.9369,801.91605 1109.5255,780.47182 1089.8672,757.8074 C 1070.8162,735.84309 1078.956,777.66871 1070.8876,786.69867 C 1046.8753,813.5726 1041.472,758.31849 1042.7277,751.23185 C 1043.9114,744.55109 1034.1607,746.77776 1032.3922,751.12172 C 1023.8749,772.28456 1011.9838,791.73504 1024.5604,816.86268 C 1030.8917,824.57679 1012.0724,864.3834 1011.833,889.48816 C 1011.6816,906.08754 992.81115,897.42252 978.39609,898.03507 C 969.77021,898.40162 954.72453,908.97993 954.00388,901.45514 C 953.491,896.09979 981.7211,871.97507 976.56363,848.79182 C 972.10128,828.73321 952.15976,821.92182 941.58226,807.54959 C 948.47823,793.078 978.79592,803.70736 988.10257,785.20608 C 998.4014,766.53832 996.13172,735.44588 1022.1013,729.41989 C 1053.035,718.9907 1101.3724,748.56201 1116.5587,755.60648 C 1110.5308,747.94169 1080.9965,729.35956 1066.5774,723.97504 C 1043.4738,714.21492 1006.1912,718.76952 994.0149,743.75003 C 987.06891,764.4405 982.67362,797.12094 953.04301,792.79825 C 937.13074,790.76202 923.91277,804.96414 941.9936,814.38026 C 958.68235,827.63826 976.78599,842.48385 969.91214,866.5368 C 966.2522,879.34362 934.05183,903.29016 946.15927,910.1643 C 953.0703,914.08811 998.90734,908.56183 1013.1997,903.13291 C 1025.7357,898.37113 1020.7563,867.50137 1026.4259,848.54185 C 1030.9455,833.42785 1037.8731,824.15189 1029.5261,811.77651 C 1017.8997,794.53923 1027.9628,778.08818 1033.0716,759.65349 z M 997.95931,988.23737 C 981.91364,976.36481 953.75424,975.24991 938.58779,991.52725 C 949.99686,999.95584 976.93084,993.69643 993.39642,990.96474 C 999.07853,990.2478 999.19151,989.1491 997.95931,988.23737 z M 898.27051,1117.6302 C 916.62661,1108.4795 928.11685,1086.9904 940.92985,1085.6887 C 931.53563,1101.1318 907.17673,1116.2297 903.07614,1129.1314 C 917.26085,1115.1188 933.36062,1101.9459 945.84758,1086.4927 C 943.82741,1068.0826 919.03102,1091.1143 912.20647,1097.8472 C 901.00615,1108.8972 883.09327,1126.8396 832.71682,1123.0335 C 878.84675,1136.4145 891.30548,1121.1024 898.27051,1117.6302 z "
       style="fill:#262626"
       inkscape:export-filename="/tmp/thumbnail.png"
       inkscape:export-xdpi="49.294128"
       inkscape:export-ydpi="49.294128" />
    <path
       sodipodi:type="arc"
       style="color:#000000;fill:none;fill-opacity:0.69551284;fill-rule:nonzero;stroke:#000000;stroke-width:8;stroke-linecap:round;stroke-linejoin:round;marker:none;marker-start:none;marker-mid:none;marker-end:none;stroke-miterlimit:4;stroke-dasharray:none;stroke-dashoffset:0;stroke-opacity:1;visibility:visible;display:inline;overflow:visible"
       id="path2259"
       sodipodi:cx="-265.6701"
       sodipodi:cy="11.905062"
       sodipodi:rx="39.39595"
       sodipodi:ry="36.36549"
       d="M -226.27415 11.905062 A 39.39595 36.36549 0 1 1  -305.06606,11.905062 A 39.39595 36.36549 0 1 1  -226.27415 11.905062 z"
       transform="matrix(-0.921745,0,0,0.921745,613.18232,735.69542)"
       inkscape:export-filename="/tmp/thumbnail.png"
       inkscape:export-xdpi="49.294128"
       inkscape:export-ydpi="49.294128" />
    <path
       sodipodi:type="arc"
       style="color:#000000;fill:#fd3301;fill-opacity:1;fill-rule:nonzero;stroke:none;stroke-width:8;stroke-linecap:round;stroke-linejoin:round;marker:none;marker-start:none;marker-mid:none;marker-end:none;stroke-miterlimit:4;stroke-dasharray:none;stroke-dashoffset:0;stroke-opacity:1;visibility:visible;display:inline;overflow:visible"
       id="path2261"
       sodipodi:cx="-265.6701"
       sodipodi:cy="11.905062"
       sodipodi:rx="39.39595"
       sodipodi:ry="36.36549"
       d="M -226.27415 11.905062 A 39.39595 36.36549 0 1 1  -305.06606,11.905062 A 39.39595 36.36549 0 1 1  -226.27415 11.905062 z"
       transform="matrix(-0.3443583,0,0,0.3730549,768.50565,741.40384)"
       inkscape:export-filename="/tmp/thumbnail.png"
       inkscape:export-xdpi="49.294128"
       inkscape:export-ydpi="49.294128" />
  </g>
</svg>
