<?xml version="1.0" standalone="no"?>
<!DOCTYPE svg PUBLIC "-//W3C//DTD SVG 20010904//EN"
 "http://www.w3.org/TR/2001/REC-SVG-20010904/DTD/svg10.dtd">
<svg version="1.0" xmlns="http://www.w3.org/2000/svg"
 width="468pt" height="333pt" viewBox="0 0 468 333"
 preserveAspectRatio="xMidYMid meet">
<metadata>
Created by potrace 1.7, written by Peter Selinger 2001-2005
</metadata>
<g transform="translate(0,333) scale(0.091228,-0.091228)"
fill="#000000" stroke="none">
<path d="M1946 3611 c1 -16 45 -140 98 -276 54 -136 100 -260 103 -276 8 -42
-28 -47 -108 -15 -41 15 -55 19 -39 8 13 -9 36 -27 50 -39 l25 -23 -37 15
c-21 8 -38 14 -38 12 0 -2 72 -58 161 -123 l161 -119 -5 -110 c-11 -257 -171
-542 -303 -538 -47 1 -93 39 -319 269 -167 169 -319 304 -343 304 -5 0 -33 13
-63 29 -263 142 -613 193 -874 126 -85 -22 -211 -86 -270 -138 -170 -151 -192
-412 -54 -643 39 -66 179 -218 238 -258 l40 -28 -58 -49 c-205 -171 -313 -404
-284 -614 28 -194 163 -329 398 -397 70 -20 102 -23 250 -23 150 1 182 4 276
27 313 79 552 229 729 458 32 41 114 130 182 198 114 112 128 122 162 122 50
0 85 -20 137 -78 64 -72 107 -150 148 -265 30 -88 35 -115 36 -197 l0 -95
-163 -131 c-195 -157 -201 -163 -137 -129 l50 27 -45 -41 -45 -41 67 31 c71
32 111 35 116 7 2 -9 -38 -135 -88 -280 -51 -145 -93 -276 -94 -292 l-2 -28
53 5 c151 16 315 150 412 337 46 87 96 231 107 304 l7 50 22 -85 c71 -267 207
-469 374 -554 56 -28 145 -55 181 -55 23 0 26 4 24 29 -1 16 -45 140 -98 276
-54 136 -100 260 -103 276 -8 42 28 47 108 15 41 -15 55 -19 39 -8 -13 9 -36
27 -50 39 l-25 23 38 -15 c20 -8 37 -14 37 -12 0 2 -72 58 -161 123 l-161 119
5 110 c11 257 171 542 303 538 47 -1 93 -39 319 -269 167 -169 319 -304 343
-304 5 0 33 -13 63 -29 263 -142 613 -193 874 -126 85 22 211 86 270 138 170
151 192 412 54 643 -39 66 -179 218 -238 258 l-40 28 58 49 c205 171 313 404
284 614 -28 194 -163 329 -398 397 -70 20 -102 23 -250 23 -150 -1 -182 -4
-276 -27 -313 -79 -552 -229 -729 -458 -32 -41 -114 -130 -182 -197 -114 -113
-128 -123 -162 -123 -50 0 -85 20 -137 78 -64 72 -107 150 -148 265 -30 88
-35 115 -36 197 l0 95 163 131 c193 155 202 164 140 129 -27 -15 -48 -24 -48
-21 0 3 21 21 46 41 26 19 44 35 42 35 -3 0 -35 -14 -71 -31 -70 -32 -110 -35
-115 -7 -2 9 38 135 88 280 51 145 93 276 94 292 l2 28 -53 -5 c-151 -16 -315
-150 -412 -337 -46 -87 -96 -231 -107 -305 l-7 -50 -22 85 c-69 265 -207 470
-374 555 -56 28 -145 55 -181 55 -23 0 -26 -4 -24 -29z m2612 -997 c34 -7 79
-22 100 -33 42 -22 92 -68 92 -86 0 -17 -201 -496 -215 -513 -1 -1 -23 7 -49
18 -26 11 -50 20 -52 20 -12 0 0 -72 20 -119 l23 -53 -19 -51 c-25 -66 -32
-117 -15 -117 6 0 31 9 54 20 l42 19 72 -147 c101 -208 159 -339 159 -361 0
-47 -105 -110 -227 -136 -103 -22 -292 -19 -378 7 -38 11 -84 20 -102 21 l-32
1 -75 220 -75 221 5 -75 c10 -131 -24 -141 -141 -43 -50 42 -81 79 -110 129
-56 100 -117 176 -180 224 l-54 42 44 38 c81 70 145 156 195 261 32 69 53 94
123 150 51 41 91 50 101 23 3 -9 6 -48 7 -87 l0 -72 65 215 c36 117 67 216 69
219 3 2 17 5 32 7 16 1 53 11 83 22 112 42 296 48 438 16z m-3593 -56 c39 -11
84 -20 102 -21 l32 -1 75 -220 75 -221 -5 75 c-10 131 24 141 141 43 50 -42
81 -79 110 -129 56 -100 117 -176 180 -224 l54 -42 -44 -38 c-81 -70 -145
-156 -195 -261 -32 -69 -53 -94 -123 -150 -51 -41 -91 -50 -101 -23 -3 9 -6
48 -7 87 l0 72 -65 -215 c-36 -117 -67 -216 -69 -219 -3 -2 -17 -5 -32 -7 -16
-1 -53 -11 -83 -22 -166 -61 -446 -44 -567 34 -64 42 -70 61 -43 131 25 62
191 446 195 451 1 1 23 -7 49 -18 26 -11 50 -20 52 -20 12 0 0 72 -20 119
l-23 53 19 51 c25 66 32 117 15 117 -6 0 -31 -9 -54 -20 l-42 -19 -72 147
c-101 208 -159 339 -159 361 0 46 105 110 222 136 100 21 299 18 383 -7z
m1613 -235 c45 -176 165 -376 281 -467 l49 -39 -62 -61 c-35 -34 -84 -94 -110
-133 -54 -84 -119 -240 -137 -330 -7 -35 -16 -63 -19 -63 -3 0 -15 39 -28 88
-45 175 -165 375 -281 466 l-49 39 62 61 c35 34 84 94 110 133 54 84 119 240
137 331 7 34 16 62 19 62 3 0 15 -39 28 -87z"/>
</g>
</svg>
