<?xml version="1.0" encoding="utf-8"?>

<!DOCTYPE svg PUBLIC "-//W3C//DTD SVG 1.1//EN" "http://www.w3.org/Graphics/SVG/1.1/DTD/svg11.dtd">
<svg version="1.1" id="Layer_1" xmlns="http://www.w3.org/2000/svg" xmlns:xlink="http://www.w3.org/1999/xlink" x="0px" y="0px"
	 viewBox="0 0 2193.071 1634.063" enable-background="new 0 0 2193.071 1634.063" xml:space="preserve">
<g id="_x36_Btd2P_1_">
	<g>
		<g>
			<path fill-rule="evenodd" clip-rule="evenodd" d="M244.338,1271.589c-18.628,5.082-40.455,6.971-53.349,17.783
				c-20.611-11.98-33.896-30.15-68.59-22.865c-18.091,3.809-37.757,27.306-45.725,48.272
				c-26.132,68.747,0.298,193.321,5.077,256.584c74.017-2.922,162.869,5.307,236.26-5.083c11.417-1.617,26.492-6.115,35.565-5.082
				c9.424,1.08,18.707,8.912,27.942,12.701c9.701,3.987,23.09,1.341,25.406,12.706c1.66,7.739-10.347,11.13-15.242,12.701
				c-17,5.463-42.662,7.284-66.049,10.159c-90.532,11.146-205.448,7.311-294.691,5.083c-6.262-48.986-4.456-113.408-7.618-180.364
				c-2.358-49.915,3.423-164.962,35.566-193.076c9.794-8.568,46.706-21.394,63.508-22.865
				C171.615,1213.946,221.531,1241.116,244.338,1271.589z"/>
			<path fill-rule="evenodd" clip-rule="evenodd" d="M1948.733,1271.589c18.628,5.082,40.455,6.971,53.349,17.783
				c20.611-11.98,33.896-30.15,68.59-22.865c18.091,3.809,37.757,27.306,45.725,48.272c26.132,68.747-0.298,193.321-5.077,256.584
				c-74.017-2.922-162.869,5.307-236.26-5.083c-11.417-1.617-26.492-6.115-35.566-5.082c-9.424,1.08-18.707,8.912-27.942,12.701
				c-9.701,3.987-23.09,1.341-25.406,12.706c-1.66,7.739,10.347,11.13,15.241,12.701c17,5.463,42.662,7.284,66.049,10.159
				c90.532,11.146,205.448,7.311,294.691,5.083c6.262-48.986,4.456-113.408,7.618-180.364
				c2.358-49.915-3.423-164.962-35.566-193.076c-9.794-8.568-46.706-21.394-63.508-22.865
				C2021.456,1213.946,1971.541,1241.116,1948.733,1271.589z"/>
			<path fill-rule="evenodd" clip-rule="evenodd" d="M244.338,362.473c-18.628-5.082-40.455-6.971-53.349-17.783
				c-20.611,11.981-33.896,30.15-68.59,22.865c-18.091-3.809-37.757-27.306-45.725-48.272
				C50.542,250.537,76.972,125.964,81.751,62.7c74.017,2.922,162.869-5.307,236.26,5.082c11.417,1.617,26.492,6.115,35.565,5.082
				c9.424-1.08,18.707-8.912,27.942-12.701c9.701-3.987,23.09-1.341,25.406-12.706c1.66-7.739-10.347-11.13-15.242-12.701
				c-17-5.463-42.662-7.284-66.049-10.159c-90.532-11.146-205.448-7.311-294.691-5.082c-6.262,48.986-4.456,113.408-7.618,180.364
				c-2.358,49.915,3.423,164.962,35.566,193.076c9.794,8.568,46.706,21.394,63.508,22.865
				C171.615,420.116,221.531,392.947,244.338,362.473z"/>
			<path fill-rule="evenodd" clip-rule="evenodd" d="M1948.733,362.473c18.628-5.082,40.455-6.971,53.349-17.783
				c20.611,11.981,33.896,30.15,68.59,22.865c18.091-3.809,37.757-27.306,45.725-48.272c26.132-68.747-0.298-193.321-5.077-256.584
				c-74.017,2.922-162.869-5.307-236.26,5.082c-11.417,1.617-26.492,6.115-35.566,5.082c-9.424-1.08-18.707-8.912-27.942-12.701
				c-9.701-3.987-23.09-1.341-25.406-12.706c-1.66-7.739,10.347-11.13,15.241-12.701c17-5.463,42.662-7.284,66.049-10.159
				c90.532-11.146,205.448-7.311,294.691-5.082c6.262,48.986,4.456,113.408,7.618,180.364
				c2.358,49.915-3.423,164.962-35.566,193.076c-9.794,8.568-46.706,21.394-63.508,22.865
				C2021.456,420.116,1971.541,392.947,1948.733,362.473z"/>
			<path fill-rule="evenodd" clip-rule="evenodd" d="M90.138,817.031c-39.618,62.559-31.771,185.236,17.02,228.463
				c-9.658,14.051-16.817,30.602-33.022,38.106c-0.514,0.238-24.982-41.101-26.859-46.345
				c-12.284-34.321-23.732-74.448-23.951-111.159c-0.104-17.47,3.762-39.865,7.618-58.431c3.927-18.893,8.279-35.487,14.104-50.634
				c-5.825-15.148-10.177-31.741-14.104-50.634c-3.856-18.565-7.723-40.961-7.618-58.431c0.219-36.71,11.668-76.838,23.951-111.159
				c1.877-5.244,26.345-46.583,26.859-46.345c16.205,7.504,23.364,24.055,33.022,38.106
				C58.367,631.795,50.52,754.472,90.138,817.031z"/>
			<path fill-rule="evenodd" clip-rule="evenodd" d="M2102.933,817.031c39.618,62.559,31.771,185.236-17.02,228.463
				c9.658,14.051,16.817,30.602,33.022,38.106c0.514,0.238,24.982-41.101,26.859-46.345c12.283-34.321,23.732-74.448,23.951-111.159
				c0.104-17.47-3.762-39.865-7.618-58.431c-3.927-18.893-8.279-35.487-14.104-50.634c5.825-15.148,10.177-31.741,14.104-50.634
				c3.856-18.565,7.723-40.961,7.618-58.431c-0.219-36.71-11.668-76.838-23.951-111.159c-1.877-5.244-26.345-46.583-26.859-46.345
				c-16.205,7.504-23.364,24.055-33.022,38.106C2134.705,631.795,2142.551,754.472,2102.933,817.031z"/>
			<path fill-rule="evenodd" clip-rule="evenodd" d="M257.039,979.445c4.978,10.775-4.279,29.988,5.082,40.648
				c-21.764,9.82-42.062,14.057-60.967,25.401c-17.627,10.577-31.621,24.608-48.272,35.566
				c-20.794,30.41-39.86,74.758-30.484,127.021c-10.394,9.084-30.003,8.949-43.189,15.242
				c-16.958-94.905,20.788-154.515,73.673-200.694C177.872,1000.818,214.256,974.164,257.039,979.445z"/>
			<path fill-rule="evenodd" clip-rule="evenodd" d="M1936.032,979.445c-4.978,10.775,4.279,29.988-5.082,40.648
				c21.764,9.82,42.062,14.057,60.967,25.401c17.627,10.577,31.621,24.608,48.272,35.566c20.794,30.41,39.86,74.758,30.484,127.021
				c10.394,9.084,30.003,8.949,43.189,15.242c16.958-94.905-20.788-154.515-73.673-200.694
				C2015.199,1000.818,1978.815,974.164,1936.032,979.445z"/>
			<path fill-rule="evenodd" clip-rule="evenodd" d="M257.039,654.618c4.978-10.775-4.279-29.988,5.082-40.648
				c-21.764-9.82-42.062-14.057-60.967-25.401c-17.627-10.577-31.621-24.608-48.272-35.566
				c-20.794-30.41-39.86-74.758-30.484-127.021c-10.394-9.085-30.003-8.949-43.189-15.242
				c-16.958,94.905,20.788,154.515,73.673,200.694C177.872,633.245,214.256,659.898,257.039,654.618z"/>
			<path fill-rule="evenodd" clip-rule="evenodd" d="M1936.032,654.618c-4.978-10.775,4.279-29.988-5.082-40.648
				c21.764-9.82,42.062-14.057,60.967-25.401c17.627-10.577,31.621-24.608,48.272-35.566c20.794-30.41,39.86-74.758,30.484-127.021
				c10.394-9.085,30.003-8.949,43.189-15.242c16.958,94.905-20.788,154.515-73.673,200.694
				C2015.199,633.245,1978.815,659.898,1936.032,654.618z"/>
			<path fill-rule="evenodd" clip-rule="evenodd" d="M107.158,1340.185c11.381,10.634,20.971,23.063,30.484,35.565
				c-7.77,12.909-12.586,44.29,0,55.885c36.145-15.508,58.634-44.676,66.049-88.914c19.354,0.72,28.172-9.09,48.272-7.618
				c4.143,20.413-5.505,46.419-15.242,63.513c-10.102,17.726-33.416,39.547-55.889,60.967c-9.429,8.985-42.85,47.531-60.972,45.73
				C83.739,1501.718,73.95,1361.84,107.158,1340.185z"/>
			<path fill-rule="evenodd" clip-rule="evenodd" d="M2085.914,1340.185c-11.381,10.634-20.971,23.063-30.484,35.565
				c7.77,12.909,12.586,44.29,0,55.885c-36.145-15.508-58.634-44.676-66.049-88.914c-19.354,0.72-28.172-9.09-48.272-7.618
				c-4.143,20.413,5.505,46.419,15.242,63.513c10.102,17.726,33.416,39.547,55.89,60.967c9.429,8.985,42.85,47.531,60.972,45.73
				C2109.332,1501.718,2119.121,1361.84,2085.914,1340.185z"/>
			<path fill-rule="evenodd" clip-rule="evenodd" d="M107.158,293.878c11.381-10.634,20.971-23.063,30.484-35.565
				c-7.77-12.909-12.586-44.29,0-55.885c36.145,15.508,58.634,44.676,66.049,88.914c19.354-0.72,28.172,9.09,48.272,7.618
				c4.143-20.413-5.505-46.419-15.242-63.513c-10.102-17.726-33.416-39.547-55.889-60.967c-9.429-8.985-42.85-47.531-60.972-45.73
				C83.739,132.345,73.95,272.223,107.158,293.878z"/>
			<path fill-rule="evenodd" clip-rule="evenodd" d="M2085.914,293.878c-11.381-10.634-20.971-23.063-30.484-35.565
				c7.77-12.909,12.586-44.29,0-55.885c-36.145,15.508-58.634,44.676-66.049,88.914c-19.354-0.72-28.172,9.09-48.272,7.618
				c-4.143-20.413,5.505-46.419,15.242-63.513c10.102-17.726,33.416-39.547,55.89-60.967c9.429-8.985,42.85-47.531,60.972-45.73
				C2109.332,132.345,2119.121,272.223,2085.914,293.878z"/>
			<path fill-rule="evenodd" clip-rule="evenodd" d="M131.162,817.031c24.477,10.65,47.635,22.615,72.528,32.851
				c0.047,17.825-3.913,31.647-15.242,38.107c-37.731-9.685-66.19-28.652-99.073-43.189c0.402-14.442,9.407-20.283,16.768-27.769
				c-7.361-7.486-16.366-13.327-16.768-27.769c32.884-14.537,61.342-33.505,99.073-43.189c11.329,6.46,15.289,20.282,15.242,38.107
				C178.798,794.416,155.639,806.382,131.162,817.031z"/>
			<path fill-rule="evenodd" clip-rule="evenodd" d="M2061.909,817.031c-24.477,10.65-47.635,22.615-72.528,32.851
				c-0.047,17.825,3.913,31.647,15.242,38.107c37.731-9.685,66.19-28.652,99.073-43.189c-0.402-14.442-9.407-20.283-16.768-27.769
				c7.361-7.486,16.366-13.327,16.768-27.769c-32.884-14.537-61.342-33.505-99.073-43.189c-11.329,6.46-15.289,20.282-15.242,38.107
				C2014.273,794.416,2037.432,806.382,2061.909,817.031z"/>
			<path fill-rule="evenodd" clip-rule="evenodd" d="M104.616,1294.455c9.83-5.406,20.669-9.81,33.025-12.701
				c13.384,31.496,30.629,59.13,55.889,78.75c-8.234,12.941-15.795,26.549-30.484,33.03
				C136.17,1367.903,112.109,1339.465,104.616,1294.455z"/>
			<path fill-rule="evenodd" clip-rule="evenodd" d="M2088.455,1294.455c-9.83-5.406-20.668-9.81-33.025-12.701
				c-13.384,31.496-30.63,59.13-55.89,78.75c8.234,12.941,15.795,26.549,30.484,33.03
				C2056.902,1367.903,2080.962,1339.465,2088.455,1294.455z"/>
			<path fill-rule="evenodd" clip-rule="evenodd" d="M104.616,339.608c9.83,5.406,20.669,9.81,33.025,12.701
				c13.384-31.496,30.629-59.13,55.889-78.75c-8.234-12.941-15.795-26.549-30.484-33.03
				C136.17,266.16,112.109,294.598,104.616,339.608z"/>
			<path fill-rule="evenodd" clip-rule="evenodd" d="M2088.455,339.608c-9.83,5.406-20.668,9.81-33.025,12.701
				c-13.384-31.496-30.63-59.13-55.89-78.75c8.234-12.941,15.795-26.549,30.484-33.03
				C2056.902,266.16,2080.962,294.598,2088.455,339.608z"/>
			<path fill-rule="evenodd" clip-rule="evenodd" d="M254.729,817.031c2.398,7.078,4.183,14.044,4.85,20.151
				c7.227,66.112-32.336,101.604-71.132,129.562c-13.227,9.528-35.373,23.81-43.184,22.86
				c-29.059-3.522-34.631-81.129-30.488-111.775c14.876,1.216,26.137,6.043,38.107,10.16c-0.757,15.153,1.038,27.754,5.082,38.107
				c47.6-1.66,58.916-64.25,46.117-109.065c12.799-44.815,1.483-107.405-46.117-109.065c-4.044,10.352-5.839,22.954-5.082,38.107
				c-11.97,4.117-23.231,8.943-38.107,10.16c-4.143-30.646,1.429-108.252,30.488-111.775c7.811-0.949,29.957,13.332,43.184,22.86
				c38.796,27.958,78.359,63.451,71.132,129.562C258.912,802.988,257.128,809.953,254.729,817.031z"/>
			<path fill-rule="evenodd" clip-rule="evenodd" d="M1938.342,817.031c-2.398,7.078-4.183,14.044-4.85,20.151
				c-7.227,66.112,32.336,101.604,71.132,129.562c13.227,9.528,35.373,23.81,43.184,22.86
				c29.059-3.522,34.631-81.129,30.488-111.775c-14.876,1.216-26.137,6.043-38.107,10.16c0.757,15.153-1.038,27.754-5.082,38.107
				c-47.6-1.66-58.916-64.25-46.117-109.065c-12.799-44.815-1.483-107.405,46.117-109.065c4.044,10.352,5.839,22.954,5.082,38.107
				c11.97,4.117,23.231,8.943,38.107,10.16c4.143-30.646-1.429-108.252-30.488-111.775c-7.811-0.949-29.957,13.332-43.184,22.86
				c-38.796,27.958-78.359,63.451-71.132,129.562C1934.159,802.988,1935.944,809.953,1938.342,817.031z"/>
			<path fill-rule="evenodd" clip-rule="evenodd" d="M132.559,1520.55c6.256-24.232,27.733-33.233,45.73-45.725
				c4.237-11.005,14.678-15.805,22.865-22.86c13.519,4.258,20.747,14.809,30.484,22.86c-6.674,11.954-21.926,15.336-27.948,27.942
				c79.345,27.509,134.635-29.982,162.587-78.75c16.473,5.547,25.49,18.545,40.648,25.401
				c-28.015,49.268-77.873,97.034-149.886,104.162c-46.283,4.581-84.459-11.052-124.48-27.948
				C132.559,1523.941,132.559,1522.245,132.559,1520.55z"/>
			<path fill-rule="evenodd" clip-rule="evenodd" d="M2060.513,1520.55c-6.256-24.232-27.734-33.233-45.73-45.725
				c-4.237-11.005-14.678-15.805-22.865-22.86c-13.519,4.258-20.747,14.809-30.484,22.86c6.674,11.954,21.927,15.336,27.948,27.942
				c-79.345,27.509-134.635-29.982-162.587-78.75c-16.473,5.547-25.49,18.545-40.648,25.401
				c28.015,49.268,77.873,97.034,149.886,104.162c46.283,4.581,84.458-11.052,124.48-27.948
				C2060.513,1523.941,2060.513,1522.245,2060.513,1520.55z"/>
			<path fill-rule="evenodd" clip-rule="evenodd" d="M132.559,113.513c6.256,24.232,27.733,33.233,45.73,45.725
				c4.237,11.005,14.678,15.805,22.865,22.86c13.519-4.258,20.747-14.809,30.484-22.86c-6.674-11.954-21.926-15.336-27.948-27.942
				c79.345-27.509,134.635,29.982,162.587,78.75c16.473-5.547,25.49-18.545,40.648-25.401
				c-28.015-49.268-77.873-97.034-149.886-104.162c-46.283-4.581-84.459,11.052-124.48,27.948
				C132.559,110.121,132.559,111.817,132.559,113.513z"/>
			<path fill-rule="evenodd" clip-rule="evenodd" d="M2060.513,113.513c-6.256,24.232-27.734,33.233-45.73,45.725
				c-4.237,11.005-14.678,15.805-22.865,22.86c-13.519-4.258-20.747-14.809-30.484-22.86c6.674-11.954,21.927-15.336,27.948-27.942
				c-79.345-27.509-134.635,29.982-162.587,78.75c-16.473-5.547-25.49-18.545-40.648-25.401
				c28.015-49.268,77.873-97.034,149.886-104.162c46.283-4.581,84.458,11.052,124.48,27.948
				C2060.513,110.121,2060.513,111.817,2060.513,113.513z"/>
			<path fill-rule="evenodd" clip-rule="evenodd" d="M165.588,1083.601c54.82,27.316,121.313,42.965,198.148,48.271
				c-6.355,12.273-15.403,21.848-20.319,35.566c-73.631-8.516-138.48-25.808-203.236-43.194
				C142.253,1104.301,153.958,1093.99,165.588,1083.601z"/>
			<path fill-rule="evenodd" clip-rule="evenodd" d="M2027.483,1083.601c-54.82,27.316-121.313,42.965-198.148,48.271
				c6.355,12.273,15.403,21.848,20.319,35.566c73.631-8.516,138.48-25.808,203.235-43.194
				C2050.818,1104.301,2039.114,1093.99,2027.483,1083.601z"/>
			<path fill-rule="evenodd" clip-rule="evenodd" d="M165.588,550.461c54.82-27.316,121.313-42.965,198.148-48.271
				c-6.355-12.273-15.403-21.848-20.319-35.566c-73.631,8.516-138.48,25.808-203.236,43.195
				C142.253,529.762,153.958,540.073,165.588,550.461z"/>
			<path fill-rule="evenodd" clip-rule="evenodd" d="M2027.483,550.461c-54.82-27.316-121.313-42.965-198.148-48.271
				c6.355-12.273,15.403-21.848,20.319-35.566c73.631,8.516,138.48,25.808,203.235,43.195
				C2050.818,529.762,2039.114,540.073,2027.483,550.461z"/>
			<path fill-rule="evenodd" clip-rule="evenodd" d="M409.466,1248.724c2.802,14.141,5.834,28.041,5.082,45.73
				c-78.823,11.787-153.362,27.858-226.101,45.73c-9.679-7.796-20.898-22.897-17.783-35.566
				C242.063,1277.783,323.745,1261.237,409.466,1248.724z"/>
			<path fill-rule="evenodd" clip-rule="evenodd" d="M1783.605,1248.724c-2.802,14.141-5.834,28.041-5.082,45.73
				c78.823,11.787,153.362,27.858,226.101,45.73c9.679-7.796,20.898-22.897,17.783-35.566
				C1951.008,1277.783,1869.326,1261.237,1783.605,1248.724z"/>
			<path fill-rule="evenodd" clip-rule="evenodd" d="M409.466,385.339c2.802-14.141,5.834-28.041,5.082-45.73
				c-78.823-11.787-153.362-27.858-226.101-45.73c-9.679,7.796-20.898,22.897-17.783,35.566
				C242.063,356.28,323.745,372.826,409.466,385.339z"/>
			<path fill-rule="evenodd" clip-rule="evenodd" d="M1783.605,385.339c-2.802-14.141-5.834-28.041-5.082-45.73
				c78.823-11.787,153.362-27.858,226.101-45.73c9.679,7.796,20.898,22.897,17.783,35.566
				C1951.008,356.28,1869.326,372.826,1783.605,385.339z"/>
			<path fill-rule="evenodd" clip-rule="evenodd" d="M206.231,1446.882c11.907-11.808,18.764-28.662,35.565-35.565
				c21.587,19.911,50.62,32.367,71.132,53.348c-3.564,20.142-23.862,23.554-35.565,35.566
				C250.094,1486.007,229.832,1464.774,206.231,1446.882z"/>
			<path fill-rule="evenodd" clip-rule="evenodd" d="M1986.84,1446.882c-11.907-11.808-18.764-28.662-35.565-35.565
				c-21.587,19.911-50.62,32.367-71.132,53.348c3.564,20.142,23.862,23.554,35.566,35.566
				C1942.977,1486.007,1963.239,1464.774,1986.84,1446.882z"/>
			<path fill-rule="evenodd" clip-rule="evenodd" d="M206.231,187.181c11.907,11.808,18.764,28.662,35.565,35.566
				c21.587-19.911,50.62-32.367,71.132-53.348c-3.564-20.142-23.862-23.554-35.565-35.566
				C250.094,148.056,229.832,169.288,206.231,187.181z"/>
			<path fill-rule="evenodd" clip-rule="evenodd" d="M1986.84,187.181c-11.907,11.808-18.764,28.662-35.565,35.566
				c-21.587-19.911-50.62-32.367-71.132-53.348c3.564-20.142,23.862-23.554,35.566-35.566
				C1942.977,148.056,1963.239,169.288,1986.84,187.181z"/>
			<path fill-rule="evenodd" clip-rule="evenodd" d="M272.286,890.531c23.215,17.183,36.98,67.395,40.643,109.233
				c3.037,34.668-0.542,73.501-5.077,106.698c-18.174,1.236-30.311-3.559-43.189-7.618c9.366-56.156,9.226-124.22-15.242-165.128
				C242.449,922.063,273.183,902.313,272.286,890.531z"/>
			<path fill-rule="evenodd" clip-rule="evenodd" d="M1920.785,890.531c-23.215,17.183-36.98,67.395-40.643,109.233
				c-3.037,34.668,0.542,73.501,5.077,106.698c18.174,1.236,30.311-3.559,43.189-7.618c-9.366-56.156-9.226-124.22,15.241-165.128
				C1950.622,922.063,1919.888,902.313,1920.785,890.531z"/>
			<path fill-rule="evenodd" clip-rule="evenodd" d="M272.286,743.532c23.215-17.183,36.98-67.395,40.643-109.233
				c3.037-34.668-0.542-73.501-5.077-106.698c-18.174-1.236-30.311,3.559-43.189,7.618c9.366,56.156,9.226,124.22-15.242,165.128
				C242.449,712,273.183,731.75,272.286,743.532z"/>
			<path fill-rule="evenodd" clip-rule="evenodd" d="M1920.785,743.532c-23.215-17.183-36.98-67.395-40.643-109.233
				c-3.037-34.668,0.542-73.501,5.077-106.698c18.174-1.236,30.311,3.559,43.189,7.618c-9.366,56.156-9.226,124.22,15.241,165.128
				C1950.622,712,1919.888,731.75,1920.785,743.532z"/>
			<path fill-rule="evenodd" clip-rule="evenodd" d="M254.503,1185.221c12.46-3.632,24.926-7.253,40.643-7.629
				c9.361,5.04,9.183,19.609,20.324,22.865c80.42-8.145,67.448-139.534,7.624-167.664c-0.871-17.762-4.049-33.213-7.624-48.266
				c52.561,28.37,118.328,74.878,96.538,167.664c-12.575,53.531-68.914,94.868-134.645,101.615
				C268.164,1232.527,259.162,1211.04,254.503,1185.221z"/>
			<path fill-rule="evenodd" clip-rule="evenodd" d="M1938.568,1185.221c-12.46-3.632-24.926-7.253-40.643-7.629
				c-9.361,5.04-9.183,19.609-20.324,22.865c-80.42-8.145-67.448-139.534-7.624-167.664c0.871-17.762,4.049-33.213,7.624-48.266
				c-52.561,28.37-118.328,74.878-96.538,167.664c12.575,53.531,68.914,94.868,134.645,101.615
				C1924.908,1232.527,1933.909,1211.04,1938.568,1185.221z"/>
			<path fill-rule="evenodd" clip-rule="evenodd" d="M254.503,448.842c12.46,3.632,24.926,7.253,40.643,7.629
				c9.361-5.04,9.183-19.609,20.324-22.865c80.42,8.145,67.448,139.534,7.624,167.664c-0.871,17.762-4.049,33.213-7.624,48.266
				c52.561-28.37,118.328-74.878,96.538-167.664c-12.575-53.531-68.914-94.868-134.645-101.615
				C268.164,401.535,259.162,423.023,254.503,448.842z"/>
			<path fill-rule="evenodd" clip-rule="evenodd" d="M1938.568,448.842c-12.46,3.632-24.926,7.253-40.643,7.629
				c-9.361-5.04-9.183-19.609-20.324-22.865c-80.42,8.145-67.448,139.534-7.624,167.664c0.871,17.762,4.049,33.213,7.624,48.266
				c-52.561-28.37-118.328-74.878-96.538-167.664c12.575-53.531,68.914-94.868,134.645-101.615
				C1924.908,401.535,1933.909,423.023,1938.568,448.842z"/>
			<path fill-rule="evenodd" clip-rule="evenodd" d="M462.815,1515.472c-20.095,0.611-34.298-4.659-48.266-10.159
				c3.585-16.427,7.936-31.788,5.077-45.73c-9.711-47.4-86.603-60.205-127.022-22.865c-14.219-2.713-20.355-13.515-30.484-20.319
				c32.978-49.821,162.545-66.018,198.153-7.623C468.957,1436.446,472.035,1485.412,462.815,1515.472z"/>
			<path fill-rule="evenodd" clip-rule="evenodd" d="M1730.256,1515.472c20.095,0.611,34.298-4.659,48.266-10.159
				c-3.585-16.427-7.936-31.788-5.077-45.73c9.711-47.4,86.603-60.205,127.021-22.865c14.219-2.713,20.355-13.515,30.484-20.319
				c-32.978-49.821-162.545-66.018-198.153-7.623C1724.115,1436.446,1721.036,1485.412,1730.256,1515.472z"/>
			<path fill-rule="evenodd" clip-rule="evenodd" d="M462.815,118.59c-20.095-0.611-34.298,4.659-48.266,10.159
				c3.585,16.427,7.936,31.788,5.077,45.73c-9.711,47.4-86.603,60.205-127.022,22.865c-14.219,2.713-20.355,13.515-30.484,20.319
				c32.978,49.821,162.545,66.018,198.153,7.623C468.957,197.617,472.035,148.651,462.815,118.59z"/>
			<path fill-rule="evenodd" clip-rule="evenodd" d="M1730.256,118.59c20.095-0.611,34.298,4.659,48.266,10.159
				c-3.585,16.427-7.936,31.788-5.077,45.73c9.711,47.4,86.603,60.205,127.021,22.865c14.219,2.713,20.355,13.515,30.484,20.319
				c-32.978,49.821-162.545,66.018-198.153,7.623C1724.115,197.617,1721.036,148.651,1730.256,118.59z"/>
			<path fill-rule="evenodd" clip-rule="evenodd" d="M599.996,1528.173c12.2,11.506,26.68,20.741,30.484,40.648
				c-96.199,27.629-221.201,17.152-292.144-27.942c0-2.547,0-5.083,0-7.623c32.878-38.175,74.659-5.13,124.48,2.541
				C512.704,1543.472,557.48,1545.105,599.996,1528.173z"/>
			<path fill-rule="evenodd" clip-rule="evenodd" d="M1593.076,1528.173c-12.2,11.506-26.68,20.741-30.484,40.648
				c96.199,27.629,221.201,17.152,292.145-27.942c0-2.547,0-5.083,0-7.623c-32.878-38.175-74.659-5.13-124.48,2.541
				C1680.367,1543.472,1635.591,1545.105,1593.076,1528.173z"/>
			<path fill-rule="evenodd" clip-rule="evenodd" d="M599.996,105.89c12.2-11.506,26.68-20.741,30.484-40.648
				C534.281,37.612,409.278,48.09,338.335,93.184c0,2.547,0,5.082,0,7.623c32.878,38.175,74.659,5.129,124.48-2.541
				C512.704,90.59,557.48,88.958,599.996,105.89z"/>
			<path fill-rule="evenodd" clip-rule="evenodd" d="M1593.076,105.89c-12.2-11.506-26.68-20.741-30.484-40.648
				c96.199-27.629,221.201-17.152,292.145,27.942c0,2.547,0,5.082,0,7.623c-32.878,38.175-74.659,5.129-124.48-2.541
				C1680.367,90.59,1635.591,88.958,1593.076,105.89z"/>
			<path fill-rule="evenodd" clip-rule="evenodd" d="M389.142,1355.427c9.872-20.407,29.492-46.659,33.025-78.755
				c1.691-15.351,0.302-36.426-2.541-50.807c-2.139-10.838-6.799-23.199-15.242-30.489c4.148-16.171,22.49-18.154,22.865-38.102
				c49.075,38.613,45.345,170.743,2.541,213.395C417.758,1364.073,406.503,1356.695,389.142,1355.427z"/>
			<path fill-rule="evenodd" clip-rule="evenodd" d="M1803.929,1355.427c-9.872-20.407-29.492-46.659-33.025-78.755
				c-1.691-15.351-0.302-36.426,2.541-50.807c2.139-10.838,6.799-23.199,15.242-30.489c-4.149-16.171-22.49-18.154-22.865-38.102
				c-49.075,38.613-45.345,170.743-2.541,213.395C1775.313,1364.073,1786.569,1356.695,1803.929,1355.427z"/>
			<path fill-rule="evenodd" clip-rule="evenodd" d="M389.142,278.636c9.872,20.407,29.492,46.659,33.025,78.755
				c1.691,15.351,0.302,36.426-2.541,50.807c-2.139,10.838-6.799,23.199-15.242,30.489c4.148,16.171,22.49,18.154,22.865,38.102
				c49.075-38.613,45.345-170.743,2.541-213.395C417.758,269.99,406.503,277.368,389.142,278.636z"/>
			<path fill-rule="evenodd" clip-rule="evenodd" d="M1803.929,278.636c-9.872,20.407-29.492,46.659-33.025,78.755
				c-1.691,15.351-0.302,36.426,2.541,50.807c2.139,10.838,6.799,23.199,15.242,30.489c-4.149,16.171-22.49,18.154-22.865,38.102
				c-49.075-38.613-45.345-170.743-2.541-213.395C1775.313,269.99,1786.569,277.368,1803.929,278.636z"/>
			<path fill-rule="evenodd" clip-rule="evenodd" d="M470.434,1299.537c0.855-15.236,5.202-26.982,7.623-40.648
				c58.864,8.881,109.051,26.44,119.398,83.832c-5.766,11.172-27.186,6.689-43.184,7.623
				C543.944,1317.205,510.873,1294.199,470.434,1299.537z"/>
			<path fill-rule="evenodd" clip-rule="evenodd" d="M1722.638,1299.537c-0.855-15.236-5.202-26.982-7.623-40.648
				c-58.864,8.881-109.051,26.44-119.398,83.832c5.766,11.172,27.186,6.689,43.184,7.623
				C1649.127,1317.205,1682.199,1294.199,1722.638,1299.537z"/>
			<path fill-rule="evenodd" clip-rule="evenodd" d="M470.434,334.526c0.855,15.236,5.202,26.982,7.623,40.648
				c58.864-8.881,109.051-26.44,119.398-83.832c-5.766-11.172-27.186-6.689-43.184-7.623
				C543.944,316.858,510.873,339.864,470.434,334.526z"/>
			<path fill-rule="evenodd" clip-rule="evenodd" d="M1722.638,334.526c-0.855,15.236-5.202,26.982-7.623,40.648
				c-58.864-8.881-109.051-26.44-119.398-83.832c5.766-11.172,27.186-6.689,43.184-7.623
				C1649.127,316.858,1682.199,339.864,1722.638,334.526z"/>
			<path fill-rule="evenodd" clip-rule="evenodd" d="M495.839,1312.237c13.405,2.687,24.801,7.378,35.566,12.7
				c5.724,10.248-6.084,12.826-5.083,25.406c52.514,18.848,123.526,15.79,177.829,0c2.311,14.428,11.965,29.978,5.082,45.725
				c-73.078,8.568-168.29,3.152-236.26-15.236C471.331,1348.701,485.137,1332.019,495.839,1312.237z"/>
			<path fill-rule="evenodd" clip-rule="evenodd" d="M1697.232,1312.237c-13.405,2.687-24.801,7.378-35.566,12.7
				c-5.724,10.248,6.084,12.826,5.083,25.406c-52.514,18.848-123.526,15.79-177.829,0c-2.311,14.428-11.964,29.978-5.082,45.725
				c73.078,8.568,168.29,3.152,236.26-15.236C1721.741,1348.701,1707.934,1332.019,1697.232,1312.237z"/>
			<path fill-rule="evenodd" clip-rule="evenodd" d="M495.839,321.825c13.405-2.687,24.801-7.378,35.566-12.7
				c5.724-10.248-6.084-12.826-5.083-25.406c52.514-18.848,123.526-15.79,177.829,0c2.311-14.428,11.965-29.978,5.082-45.725
				c-73.078-8.568-168.29-3.152-236.26,15.236C471.331,285.362,485.137,302.044,495.839,321.825z"/>
			<path fill-rule="evenodd" clip-rule="evenodd" d="M1697.232,321.825c-13.405-2.687-24.801-7.378-35.566-12.7
				c-5.724-10.248,6.084-12.826,5.083-25.406c-52.514-18.848-123.526-15.79-177.829,0c-2.311-14.428-11.964-29.978-5.082-45.725
				c73.078-8.568,168.29-3.152,236.26,15.236C1721.741,285.362,1707.934,302.044,1697.232,321.825z"/>
			<path fill-rule="evenodd" clip-rule="evenodd" d="M554.271,1263.971c-0.47-2.16,0.986-2.4,2.541-2.541
				c24.117-19.458,69.702-20.1,96.533-17.783c26.596,2.296,67.349,29.09,83.832,48.272c23.236,27.029,38.008,72.175,35.566,104.15
				c-1.758,23.043-11.86,47.578-25.401,71.132c-14.422,25.093-44.415,69.702-71.132,33.03c-1.795-7.535,6.199-14.115,10.159-20.324
				c17.804-27.885,46.393-73.903,30.489-129.563c-5.119-17.903-37.768-51.762-58.431-58.425c-21.519-6.95-48.757-3.382-76.214-5.083
				C574.699,1277.412,565.051,1270.128,554.271,1263.971z"/>
			<path fill-rule="evenodd" clip-rule="evenodd" d="M1638.801,1263.971c0.47-2.16-0.986-2.4-2.541-2.541
				c-24.117-19.458-69.702-20.1-96.533-17.783c-26.596,2.296-67.349,29.09-83.832,48.272
				c-23.236,27.029-38.008,72.175-35.566,104.15c1.758,23.043,11.86,47.578,25.401,71.132c14.422,25.093,44.416,69.702,71.132,33.03
				c1.795-7.535-6.199-14.115-10.159-20.324c-17.804-27.885-46.394-73.903-30.489-129.563c5.119-17.903,37.768-51.762,58.431-58.425
				c21.519-6.95,48.757-3.382,76.214-5.083C1618.372,1277.412,1628.02,1270.128,1638.801,1263.971z"/>
			<path fill-rule="evenodd" clip-rule="evenodd" d="M554.271,370.092c-0.47,2.16,0.986,2.4,2.541,2.541
				c24.117,19.458,69.702,20.1,96.533,17.783c26.596-2.296,67.349-29.09,83.832-48.272c23.236-27.029,38.008-72.175,35.566-104.15
				c-1.758-23.043-11.86-47.578-25.401-71.132c-14.422-25.093-44.415-69.702-71.132-33.03c-1.795,7.535,6.199,14.115,10.159,20.324
				c17.804,27.885,46.393,73.903,30.489,129.563c-5.119,17.903-37.768,51.762-58.431,58.425c-21.519,6.95-48.757,3.382-76.214,5.082
				C574.699,356.65,565.051,363.935,554.271,370.092z"/>
			<path fill-rule="evenodd" clip-rule="evenodd" d="M1638.801,370.092c0.47,2.16-0.986,2.4-2.541,2.541
				c-24.117,19.458-69.702,20.1-96.533,17.783c-26.596-2.296-67.349-29.09-83.832-48.272
				c-23.236-27.029-38.008-72.175-35.566-104.15c1.758-23.043,11.86-47.578,25.401-71.132c14.422-25.093,44.416-69.702,71.132-33.03
				c1.795,7.535-6.199,14.115-10.159,20.324c-17.804,27.885-46.394,73.903-30.489,129.563c5.119,17.903,37.768,51.762,58.431,58.425
				c21.519,6.95,48.757,3.382,76.214,5.082C1618.372,356.65,1628.02,363.935,1638.801,370.092z"/>
			<path fill-rule="evenodd" clip-rule="evenodd" d="M569.512,1408.775c11.856,0,23.711,0,35.566,0
				c25.422,68.491,65.632,141.371,149.881,152.422c42.892,5.625,91.377-3.339,134.645-10.159
				c5.943,9.888,26.21,17.016,22.865,27.942c-35.148,9.799-76.537,19.911-114.321,20.324
				c-107.788,1.185-181.508-62.235-221.018-134.64C575.863,1444.764,566.783,1432.669,569.512,1408.775z"/>
			<path fill-rule="evenodd" clip-rule="evenodd" d="M1623.559,1408.775c-11.855,0-23.71,0-35.566,0
				c-25.422,68.491-65.632,141.371-149.881,152.422c-42.892,5.625-91.377-3.339-134.645-10.159
				c-5.943,9.888-26.21,17.016-22.865,27.942c35.148,9.799,76.537,19.911,114.321,20.324
				c107.788,1.185,181.508-62.235,221.018-134.64C1617.209,1444.764,1626.288,1432.669,1623.559,1408.775z"/>
			<path fill-rule="evenodd" clip-rule="evenodd" d="M569.512,225.287c11.856,0,23.711,0,35.566,0
				C630.5,156.797,670.71,83.917,754.96,72.865c42.892-5.625,91.377,3.34,134.645,10.159c5.943-9.888,26.21-17.015,22.865-27.942
				c-35.148-9.799-76.537-19.911-114.321-20.324c-107.788-1.185-181.508,62.235-221.018,134.64
				C575.863,189.299,566.783,201.394,569.512,225.287z"/>
			<path fill-rule="evenodd" clip-rule="evenodd" d="M1623.559,225.287c-11.855,0-23.71,0-35.566,0
				c-25.422-68.491-65.632-141.371-149.881-152.422c-42.892-5.625-91.377,3.34-134.645,10.159
				c-5.943-9.888-26.21-17.015-22.865-27.942c35.148-9.799,76.537-19.911,114.321-20.324
				c107.788-1.185,181.508,62.235,221.018,134.64C1617.209,189.299,1626.288,201.394,1623.559,225.287z"/>
			<path fill-rule="evenodd" clip-rule="evenodd" d="M831.173,1398.616c7.78,7.462,14.292,16.197,20.324,25.401
				c-3.459,13.473-18.315,15.555-20.324,30.484c29.972,18.931,76.48,28.469,119.403,17.783c6.209,13.264,8.093,30.859,12.701,45.73
				c-77.941-5.896-149.428-18.242-195.612-55.89C781.837,1433.957,797.617,1407.393,831.173,1398.616z"/>
			<path fill-rule="evenodd" clip-rule="evenodd" d="M1361.898,1398.616c-7.78,7.462-14.292,16.197-20.324,25.401
				c3.459,13.473,18.315,15.555,20.324,30.484c-29.972,18.931-76.48,28.469-119.403,17.783c-6.209,13.264-8.093,30.859-12.701,45.73
				c77.941-5.896,149.428-18.242,195.612-55.89C1411.234,1433.957,1395.455,1407.393,1361.898,1398.616z"/>
			<path fill-rule="evenodd" clip-rule="evenodd" d="M831.173,235.447c7.78-7.462,14.292-16.197,20.324-25.401
				c-3.459-13.473-18.315-15.555-20.324-30.484c29.972-18.931,76.48-28.469,119.403-17.783c6.209-13.264,8.093-30.859,12.701-45.73
				c-77.941,5.896-149.428,18.242-195.612,55.889C781.837,200.105,797.617,226.67,831.173,235.447z"/>
			<path fill-rule="evenodd" clip-rule="evenodd" d="M1361.898,235.447c-7.78-7.462-14.292-16.197-20.324-25.401
				c3.459-13.473,18.315-15.555,20.324-30.484c-29.972-18.931-76.48-28.469-119.403-17.783c-6.209-13.264-8.093-30.859-12.701-45.73
				c77.941,5.896,149.428,18.242,195.612,55.889C1411.234,200.105,1395.455,226.67,1361.898,235.447z"/>
			<path fill-rule="evenodd" clip-rule="evenodd" d="M775.284,1380.833c5.515-8.886-0.741-29.534,5.082-38.112
				c76.344,4.947,120.822,41.765,129.563,114.321c-17.762-0.866-32.586-4.67-50.808-5.077
				C862.564,1397.896,819.584,1378.923,775.284,1380.833z"/>
			<path fill-rule="evenodd" clip-rule="evenodd" d="M1417.788,1380.833c-5.515-8.886,0.741-29.534-5.082-38.112
				c-76.344,4.947-120.822,41.765-129.563,114.321c17.762-0.866,32.586-4.67,50.807-5.077
				C1330.507,1397.896,1373.487,1378.923,1417.788,1380.833z"/>
			<path fill-rule="evenodd" clip-rule="evenodd" d="M775.284,253.23c5.515,8.886-0.741,29.534,5.082,38.112
				c76.344-4.947,120.822-41.765,129.563-114.321c-17.762,0.866-32.586,4.67-50.808,5.077
				C862.564,236.167,819.584,255.139,775.284,253.23z"/>
			<path fill-rule="evenodd" clip-rule="evenodd" d="M1417.788,253.23c-5.515,8.886,0.741,29.534-5.082,38.112
				c-76.344-4.947-120.822-41.765-129.563-114.321c17.762,0.866,32.586,4.67,50.807,5.077
				C1330.507,236.167,1373.487,255.139,1417.788,253.23z"/>
			<path fill-rule="evenodd" clip-rule="evenodd" d="M887.063,1375.751c80.915,11.407,139.826,79.637,114.321,172.747
				c-11.145,2.781-22.135-14.584-35.565-17.783c12.1-52.671-13.275-98.443-55.89-111.78
				C910.492,1396.357,892.37,1392.459,887.063,1375.751z"/>
			<path fill-rule="evenodd" clip-rule="evenodd" d="M1306.008,1375.751c-80.915,11.407-139.826,79.637-114.321,172.747
				c11.145,2.781,22.135-14.584,35.566-17.783c-12.1-52.671,13.275-98.443,55.89-111.78
				C1282.579,1396.357,1300.701,1392.459,1306.008,1375.751z"/>
			<path fill-rule="evenodd" clip-rule="evenodd" d="M887.063,258.312c80.915-11.407,139.826-79.637,114.321-172.747
				c-11.145-2.781-22.135,14.584-35.565,17.783c12.1,52.671-13.275,98.443-55.89,111.78
				C910.492,237.706,892.37,241.604,887.063,258.312z"/>
			<path fill-rule="evenodd" clip-rule="evenodd" d="M1306.008,258.312c-80.915-11.407-139.826-79.637-114.321-172.747
				c11.145-2.781,22.135,14.584,35.566,17.783c-12.1,52.671,13.275,98.443,55.89,111.78
				C1282.579,237.706,1300.701,241.604,1306.008,258.312z"/>
			<path fill-rule="evenodd" clip-rule="evenodd" d="M1096.536,1588.48c-83.805,22.978-178.804-2.848-204.39-65.384
				c0.704-5.891,30.713-4.571,43.184,0c18.039,6.606,32.915,33.901,55.89,38.101c14.751,2.698,26.392,0.679,45.73-7.618
				c-2.338-12.91-11.767-18.722-17.783-27.948c1.305-14.777-2.859-35.033,2.541-45.725c34.483,19.346,59.948,47.706,74.828,86.658
				c14.88-38.952,40.345-67.312,74.828-86.658c5.4,10.692,1.236,30.948,2.541,45.725c-6.016,9.226-15.446,15.038-17.783,27.948
				c19.338,8.296,30.979,10.316,45.73,7.618c22.975-4.2,37.851-31.496,55.89-38.101c12.471-4.571,42.48-5.891,43.184,0
				C1275.339,1585.632,1180.34,1611.459,1096.536,1588.48z"/>
			<path fill-rule="evenodd" clip-rule="evenodd" d="M1096.536,45.583c-83.805-22.978-178.804,2.848-204.39,65.384
				c0.704,5.891,30.713,4.571,43.184,0c18.039-6.606,32.915-33.901,55.89-38.101c14.751-2.698,26.392-0.679,45.73,7.618
				c-2.338,12.91-11.767,18.722-17.783,27.948c1.305,14.777-2.859,35.033,2.541,45.725c34.483-19.346,59.948-47.706,74.828-86.658
				c14.88,38.952,40.345,67.312,74.828,86.658c5.4-10.692,1.236-30.948,2.541-45.725c-6.016-9.226-15.446-15.038-17.783-27.948
				c19.338-8.296,30.979-10.316,45.73-7.618c22.975,4.2,37.851,31.496,55.89,38.101c12.471,4.571,42.48,5.891,43.184,0
				C1275.339,48.431,1180.34,22.604,1096.536,45.583z"/>
		</g>
	</g>
</g>
</svg>
