<?xml version="1.0" encoding="UTF-8" standalone="no"?>
<!-- Created with Inkscape (http://www.inkscape.org/) -->
<svg
   xmlns:dc="http://purl.org/dc/elements/1.1/"
   xmlns:cc="http://web.resource.org/cc/"
   xmlns:rdf="http://www.w3.org/1999/02/22-rdf-syntax-ns#"
   xmlns:svg="http://www.w3.org/2000/svg"
   xmlns="http://www.w3.org/2000/svg"
   xmlns:sodipodi="http://sodipodi.sourceforge.net/DTD/sodipodi-0.dtd"
   xmlns:inkscape="http://www.inkscape.org/namespaces/inkscape"
   width="1200"
   height="600"
   id="svg2"
   sodipodi:version="0.32"
   inkscape:version="0.44"
   version="1.0"
   sodipodi:docbase="C:\Documents and Settings\ryan\Desktop"
   sodipodi:docname="dark_blue_checkered_4x2.svg">
  <defs
     id="defs4" />
  <sodipodi:namedview
     id="base"
     pagecolor="#ffffff"
     bordercolor="#666666"
     borderopacity="1.0"
     gridtolerance="10000"
     guidetolerance="10"
     objecttolerance="10"
     inkscape:pageopacity="0.0"
     inkscape:pageshadow="2"
     inkscape:zoom="0.35"
     inkscape:cx="375"
     inkscape:cy="227.52789"
     inkscape:document-units="px"
     inkscape:current-layer="layer1"
     inkscape:window-width="853"
     inkscape:window-height="573"
     inkscape:window-x="203"
     inkscape:window-y="189" />
  <metadata
     id="metadata7">
    <rdf:RDF>
      <cc:Work
         rdf:about="">
        <dc:format>image/svg+xml</dc:format>
        <dc:type
           rdf:resource="http://purl.org/dc/dcmitype/StillImage" />
      </cc:Work>
    </rdf:RDF>
  </metadata>
  <g
     inkscape:label="Layer 1"
     inkscape:groupmode="layer"
     id="layer1"
     transform="translate(291.6882,-58.79008)">
    <g
       id="g1994"
       transform="matrix(0.87619,0,0,0.87619,489.1379,-170.8709)">
      <path
         style="fill:#505d77"
         d="M -803.11682,604.50436 L -803.11682,304.50435 L -203.11682,304.50435 L 396.88318,304.50435 L 396.88318,604.50436 L 396.88318,904.50436 L -203.11682,904.50436 L -803.11682,904.50436 L -803.11682,604.50436 z M 353.88318,603.00436 L 353.88318,343.50435 L -204.61682,343.50435 L -763.11682,343.50435 L -763.11682,603.00436 L -763.11682,862.50436 L -204.61682,862.50436 L 353.88318,862.50436 L 353.88318,603.00436 z "
         id="path1987" />
      <path
         style="fill:#07080a"
         d="M -803.11682,604.50436 L -803.11682,304.50435 L -203.11682,304.50435 L 396.88318,304.50435 L 396.88318,604.50436 L 396.88318,904.50436 L -203.11682,904.50436 L -803.11682,904.50436 L -803.11682,604.50436 z M -782.64719,899.25436 C -782.36793,898.01686 -782.02185,894.75436 -781.87813,892.00436 L -781.61682,887.00436 L -770.11682,887.00436 L -758.61682,887.00436 L -758.11682,894.00436 L -757.61682,901.00436 L -745.11682,901.00436 L -732.61682,901.00436 L -732.31049,895.03895 C -732.14201,891.75797 -731.52441,888.49547 -730.93804,887.78895 C -730.1956,886.89436 -726.73202,886.50436 -719.52956,886.50436 C -710.68923,886.50436 -709.05647,886.75852 -708.28713,888.25436 C -707.7921,889.21686 -707.59814,890.59499 -707.85612,891.31687 C -708.11409,892.03875 -708.02571,894.62625 -707.65972,897.06687 L -706.99427,901.50436 L -694.5746,901.50436 C -680.48408,901.50436 -681.40812,902.14529 -680.87813,892.00436 L -680.61682,887.00436 L -669.11682,887.00436 L -657.61682,887.00436 L -657.11682,894.00436 L -656.61682,901.00436 L -644.11682,901.00436 L -631.61682,901.00436 L -631.11682,894.00436 L -630.61682,887.00436 L -619.11682,887.00436 L -607.61681,887.00436 L -607.11681,894.00436 L -606.61681,901.00436 L -593.89331,901.28404 C -579.42416,901.60209 -580.41398,902.25746 -579.87812,892.00436 L -579.61681,887.00436 L -569.26281,886.71823 C -562.48661,886.53097 -558.42642,886.83244 -557.51281,887.59067 C -556.58394,888.36157 -556.11681,890.89329 -556.11681,895.15668 L -556.11681,901.56411 L -543.36681,901.28424 L -530.61681,901.00436 L -530.11681,894.00436 L -529.61681,887.00436 L -518.11681,887.00436 L -506.61681,887.00436 L -506.11681,894.00436 L -505.61681,901.00436 L -492.86681,901.28424 L -480.11681,901.56411 L -480.11681,895.15668 C -480.11681,890.89329 -479.64968,888.36157 -478.72081,887.59067 C -477.8072,886.83244 -473.74701,886.53097 -466.97081,886.71823 L -456.61681,887.00436 L -456.3555,892.00436 C -455.82538,902.1476 -456.75562,901.50436 -442.61681,901.50436 C -428.478,901.50436 -429.40824,902.1476 -428.87812,892.00436 L -428.61681,887.00436 L -418.26281,886.71823 C -411.48661,886.53097 -407.42643,886.83244 -406.51282,887.59067 C -405.58395,888.36157 -405.11682,890.89329 -405.11682,895.15668 L -405.11682,901.56411 L -392.36682,901.28424 L -379.61682,901.00436 L -379.11682,894.00436 L -378.61682,887.00436 L -367.11682,887.00436 L -355.61682,887.00436 L -355.35551,892.00436 C -354.82539,902.1476 -355.75563,901.50436 -341.61682,901.50436 C -327.47801,901.50436 -328.40825,902.1476 -327.87813,892.00436 L -327.61682,887.00436 L -317.26282,886.71823 C -310.6756,886.53619 -306.41751,886.83984 -305.55834,887.5529 C -304.76356,888.2125 -304.08626,891.21062 -303.91234,894.83903 L -303.61682,901.00436 L -291.11682,901.00436 L -278.61682,901.00436 L -278.11682,894.00436 L -277.61682,887.00436 L -266.11682,887.00436 L -254.61682,887.00436 L -254.11682,894.00436 L -253.61682,901.00436 L -241.11682,901.00436 L -228.61682,901.00436 L -228.31049,895.03895 C -228.14201,891.75797 -227.52441,888.49547 -226.93804,887.78895 C -225.50643,886.06395 -206.03005,885.99113 -204.31682,887.70436 C -203.63626,888.38492 -203.11682,891.64433 -203.11682,895.23424 L -203.11682,901.56411 L -190.36682,901.28424 L -177.61682,901.00436 L -177.11682,894.00436 L -176.61682,887.00436 L -165.11682,887.00436 L -153.61682,887.00436 L -153.11682,894.00436 L -152.61682,901.00436 L -139.86682,901.28424 L -127.11682,901.56411 L -127.11682,895.15668 C -127.11682,890.89329 -126.64969,888.36157 -125.72082,887.59067 C -124.80721,886.83244 -120.74702,886.53097 -113.97082,886.71823 L -103.61682,887.00436 L -103.35551,892.00436 C -102.81965,902.25746 -103.80947,901.60209 -89.340319,901.28404 L -76.616819,901.00436 L -76.116819,894.00436 L -75.616819,887.00436 L -64.116819,887.00436 L -52.616819,887.00436 L -52.116819,894.00436 L -51.616819,901.00436 L -39.116819,901.00436 L -26.616819,901.00436 L -26.321299,894.83903 C -26.147379,891.21062 -25.470079,888.2125 -24.675299,887.5529 C -23.816129,886.83984 -19.558039,886.53619 -12.970819,886.71823 L -2.6168186,887.00436 L -2.1168186,894.00436 L -1.6168186,901.00436 L 11.106681,901.28404 C 25.575831,901.60209 24.586011,902.25746 25.121871,892.00436 L 25.383181,887.00436 L 35.737181,886.71823 C 42.324401,886.53619 46.582491,886.83984 47.441661,887.5529 C 48.236441,888.2125 48.913741,891.21062 49.087661,894.83903 L 49.383181,901.00436 L 61.883181,901.00436 L 74.383181,901.00436 L 74.883181,894.00436 L 75.383181,887.00436 L 86.883181,887.00436 L 98.383181,887.00436 L 98.883181,894.00436 L 99.383181,901.00436 L 112.13318,901.28424 L 124.88318,901.56411 L 124.88318,895.15668 C 124.88318,890.89329 125.35031,888.36157 126.27918,887.59067 C 127.19279,886.83244 131.25298,886.53097 138.02918,886.71823 L 148.38318,887.00436 L 148.64449,892.00436 C 149.18035,902.25746 148.19053,901.60209 162.65968,901.28404 L 175.38318,901.00436 L 175.88318,894.00436 L 176.38318,887.00436 L 186.73718,886.71823 C 193.3244,886.53619 197.58248,886.83984 198.44168,887.5529 C 199.23648,888.2125 199.91378,891.21062 200.08768,894.83903 L 200.38318,901.00436 L 212.88318,901.00436 L 225.38318,901.00436 L 225.88318,894.00436 L 226.38318,887.00436 L 237.88318,887.00436 L 249.38318,887.00436 L 249.64448,892.00436 C 250.17458,902.1476 249.24438,901.50436 263.38318,901.50436 C 277.52198,901.50436 276.59178,902.1476 277.12188,892.00436 L 277.38318,887.00436 L 288.88318,887.00436 L 300.38318,887.00436 L 300.88318,894.00436 L 301.38318,901.00436 L 313.88318,901.00436 L 326.38318,901.00436 L 326.88318,894.00436 L 327.38318,887.00436 L 338.88318,887.00436 L 350.38318,887.00436 L 350.64448,892.00436 C 351.18038,902.25746 350.19058,901.60209 364.65968,901.28404 L 377.38318,901.00436 L 377.88318,894.00436 L 378.38318,887.00436 L 385.88318,886.50436 L 393.38318,886.00436 L 393.38318,874.00436 L 393.38318,862.00436 L 385.88318,861.50436 L 378.38318,861.00436 L 378.38318,849.50436 L 378.38318,838.00436 L 385.88318,837.50436 L 393.38318,837.00436 L 393.66358,824.79697 L 393.94408,812.58958 L 386.16358,812.29697 L 378.38318,812.00436 L 378.10038,800.75436 L 377.81768,789.50436 L 384.60038,789.48905 C 388.33098,789.48063 391.96058,789.10733 392.66638,788.65951 C 393.62058,788.05403 393.87698,784.78915 393.66638,775.92482 L 393.38318,764.00436 L 385.88318,763.50436 L 378.38318,763.00436 L 378.38318,751.50436 L 378.38318,740.00436 L 385.88318,739.50436 L 393.38318,739.00436 L 393.66398,726.75436 L 393.94478,714.50436 L 387.16398,714.48905 C 383.43458,714.48063 379.80468,714.10668 379.09768,713.65806 C 378.14838,713.05578 377.88678,709.98582 378.09768,701.92337 L 378.38318,691.00436 L 385.88318,690.50436 L 393.38318,690.00436 L 393.38318,678.00436 L 393.38318,666.00436 L 385.88318,665.50436 L 378.38318,665.00436 L 378.10038,653.75436 L 377.81768,642.50436 L 383.60038,642.49071 C 394.43758,642.46512 393.98448,643.06665 393.66298,629.12994 L 393.38318,617.00436 L 385.88318,616.50436 L 378.38318,616.00436 L 378.38318,604.50436 L 378.38318,593.00436 L 385.88318,592.50436 L 393.38318,592.00436 L 393.66398,579.75436 L 393.94478,567.50436 L 387.16398,567.48905 C 383.43458,567.48063 379.80468,567.10668 379.09768,566.65806 C 378.14838,566.05578 377.88678,562.98582 378.09768,554.92337 L 378.38318,544.00436 L 385.88318,543.50436 L 393.38318,543.00436 L 393.38318,531.00436 L 393.38318,519.00436 L 385.88318,518.50436 L 378.38318,518.00436 L 378.09768,507.08535 C 377.88678,499.0229 378.14838,495.95294 379.09768,495.35066 C 379.80468,494.90204 383.43458,494.52809 387.16398,494.51967 L 393.94478,494.50436 L 393.66398,482.25436 L 393.38318,470.00436 L 385.88318,469.50436 L 378.38318,469.00436 L 378.38318,457.50436 L 378.38318,446.00436 L 385.88318,445.50436 L 393.38318,445.00436 L 393.66398,432.75436 L 393.94478,420.50436 L 387.16398,420.48905 C 383.43458,420.48063 379.80468,420.10668 379.09768,419.65806 C 378.14838,419.05578 377.88678,415.98582 378.09768,407.92337 L 378.38318,397.00436 L 386.16358,396.71174 L 393.94408,396.41913 L 393.66358,384.21174 L 393.38318,372.00436 L 385.88318,371.50436 L 378.38318,371.00436 L 378.09768,360.08534 C 377.88678,352.0229 378.14838,348.95294 379.09768,348.35066 C 379.80468,347.90204 383.43458,347.52809 387.16398,347.51967 L 393.94478,347.50436 L 393.66398,335.25435 L 393.38318,323.00435 L 385.88318,322.50435 L 378.38318,322.00435 L 377.88318,315.00435 L 377.38318,308.00435 L 364.65968,307.72467 C 350.19058,307.40662 351.18038,306.75125 350.64448,317.00435 L 350.38318,322.00435 L 338.88318,322.00435 L 327.38318,322.00435 L 326.88318,315.00435 L 326.38318,308.00435 L 313.88318,308.00435 L 301.38318,308.00435 L 300.88318,315.00435 L 300.38318,322.00435 L 288.88318,322.00435 L 277.38318,322.00435 L 277.12188,317.00435 C 276.59178,306.86111 277.52198,307.50435 263.38318,307.50435 C 249.24438,307.50435 250.17458,306.86111 249.64448,317.00435 L 249.38318,322.00435 L 237.88318,322.00435 L 226.38318,322.00435 L 225.88318,315.00435 L 225.38318,308.00435 L 212.88318,308.00435 L 200.38318,308.00435 L 199.88318,315.00435 L 199.38318,322.00435 L 187.88318,322.00435 L 176.38318,322.00435 L 175.88318,315.00435 L 175.38318,308.00435 L 162.65968,307.72467 C 148.19053,307.40662 149.18035,306.75125 148.64449,317.00435 L 148.38318,322.00435 L 137.46417,322.28989 C 129.40172,322.50074 126.33176,322.23912 125.72948,321.28989 C 125.28086,320.58284 124.90691,317.1784 124.89849,313.72447 L 124.88318,307.44459 L 112.13318,307.72447 L 99.383181,308.00435 L 98.883181,315.00435 L 98.383181,322.00435 L 86.883181,322.00435 L 75.383181,322.00435 L 74.883181,315.00435 L 74.383181,308.00435 L 61.883181,308.00435 L 49.383181,308.00435 L 49.087661,314.16968 C 48.913741,317.79809 48.236441,320.7962 47.441661,321.45581 C 46.582491,322.16887 42.324401,322.47252 35.737181,322.29048 L 25.383181,322.00435 L 25.121871,317.00435 C 24.586011,306.75125 25.575831,307.40662 11.106681,307.72467 L -1.6168186,308.00435 L -2.1168186,315.00435 L -2.6168186,322.00435 L -14.116819,322.00435 L -25.616819,322.00435 L -26.116819,315.00435 L -26.616819,308.00435 L -39.116819,308.00435 L -51.616819,308.00435 L -52.116819,315.00435 L -52.616819,322.00435 L -64.116819,322.00435 L -75.616819,322.00435 L -76.116819,315.00435 L -76.616819,308.00435 L -89.340319,307.72467 C -103.80947,307.40662 -102.81965,306.75125 -103.35551,317.00435 L -103.61682,322.00435 L -113.97082,322.29048 C -120.74702,322.47774 -124.80721,322.17627 -125.72082,321.41804 C -126.64969,320.64714 -127.11682,318.11542 -127.11682,313.85203 L -127.11682,307.44459 L -139.86682,307.72447 L -152.61682,308.00435 L -153.11682,315.00435 L -153.61682,322.00435 L -165.11682,322.00435 L -176.61682,322.00435 L -177.11682,315.00435 L -177.61682,308.00435 L -190.36682,307.72447 L -203.11682,307.44459 L -203.11682,313.77447 C -203.11682,317.36438 -203.63626,320.62378 -204.31682,321.30435 C -206.03005,323.01758 -225.50643,322.94475 -226.93804,321.21976 C -227.52441,320.51324 -228.14201,317.25074 -228.31049,313.96976 L -228.61682,308.00435 L -241.11682,308.00435 L -253.61682,308.00435 L -254.11682,315.00435 L -254.61682,322.00435 L -266.11682,322.00435 L -277.61682,322.00435 L -278.11682,315.00435 L -278.61682,308.00435 L -291.11682,308.00435 L -303.61682,308.00435 L -303.91234,314.16968 C -304.08626,317.79809 -304.76356,320.7962 -305.55834,321.45581 C -306.41751,322.16887 -310.6756,322.47252 -317.26282,322.29048 L -327.61682,322.00435 L -327.87813,317.00435 C -328.40825,306.86111 -327.47801,307.50435 -341.61682,307.50435 C -355.75563,307.50435 -354.82539,306.86111 -355.35551,317.00435 L -355.61682,322.00435 L -367.11682,322.00435 L -378.61682,322.00435 L -379.11682,315.00435 L -379.61682,308.00435 L -392.36682,307.72447 L -405.11682,307.44459 L -405.11682,313.85203 C -405.11682,318.11542 -405.58395,320.64714 -406.51282,321.41804 C -407.42643,322.17627 -411.48661,322.47774 -418.26281,322.29048 L -428.61681,322.00435 L -428.87812,317.00435 C -429.40824,306.86111 -428.478,307.50435 -442.61681,307.50435 C -456.75562,307.50435 -455.82538,306.86111 -456.3555,317.00435 L -456.61681,322.00435 L -466.97081,322.29048 C -473.74701,322.47774 -477.8072,322.17627 -478.72081,321.41804 C -479.64968,320.64714 -480.11681,318.11542 -480.11681,313.85203 L -480.11681,307.44459 L -492.86681,307.72447 L -505.61681,308.00435 L -506.11681,315.00435 L -506.61681,322.00435 L -518.11681,322.00435 L -529.61681,322.00435 L -530.11681,315.00435 L -530.61681,308.00435 L -543.36681,307.72447 L -556.11681,307.44459 L -556.11681,313.85203 C -556.11681,318.11542 -556.58394,320.64714 -557.51281,321.41804 C -558.42642,322.17627 -562.48661,322.47774 -569.26281,322.29048 L -579.61681,322.00435 L -579.87812,317.00435 C -580.41398,306.75125 -579.42416,307.40662 -593.89331,307.72467 L -606.61681,308.00435 L -607.11681,315.00435 L -607.61681,322.00435 L -619.11682,322.00435 L -630.61682,322.00435 L -631.11682,315.00435 L -631.61682,308.00435 L -644.11682,308.00435 L -656.61682,308.00435 L -657.11682,315.00435 L -657.61682,322.00435 L -669.11682,322.00435 L -680.61682,322.00435 L -680.87813,317.00435 C -681.40812,306.86342 -680.48408,307.50435 -694.5746,307.50435 L -706.99427,307.50435 L -707.65972,311.94184 C -708.02571,314.38246 -708.11409,316.96996 -707.85612,317.69184 C -707.59814,318.41372 -707.7921,319.79185 -708.28713,320.75435 C -709.05647,322.25019 -710.68923,322.50435 -719.52956,322.50435 C -726.73202,322.50435 -730.1956,322.11435 -730.93804,321.21976 C -731.52441,320.51324 -732.14201,317.25074 -732.31049,313.96976 L -732.61682,308.00435 L -745.11682,308.00435 L -757.61682,308.00435 L -757.91124,315.28477 L -758.20567,322.56519 L -770.41124,322.28477 L -782.61682,322.00435 L -782.91143,314.71463 L -783.20604,307.42491 L -791.41143,307.71463 L -799.61682,308.00435 L -799.61682,315.50435 L -799.61682,323.00435 L -791.61682,323.50435 L -783.61682,324.00435 L -783.61682,335.00435 L -783.61682,346.00436 L -789.61682,346.26176 C -800.96277,346.7485 -800.21898,345.77039 -799.89738,359.78108 L -799.61682,372.00436 L -791.61682,372.50436 L -783.61682,373.00436 L -783.61682,384.00436 L -783.61682,395.00436 L -791.61682,395.50436 L -799.61682,396.00436 L -799.89738,408.22764 C -800.21898,422.23833 -800.96277,421.26022 -789.61682,421.74696 L -783.61682,422.00436 L -783.61682,433.00436 L -783.61682,444.00436 L -791.61682,444.50436 L -799.61682,445.00436 L -799.61682,457.50436 L -799.61682,470.00436 L -791.61682,470.50436 L -783.61682,471.00436 L -783.61682,482.00436 L -783.61682,493.00436 L -789.61682,493.26176 C -800.96277,493.7485 -800.21898,492.77039 -799.89738,506.78108 L -799.61682,519.00436 L -791.61682,519.50436 L -783.61682,520.00436 L -783.61682,531.00436 L -783.61682,542.00436 L -791.61682,542.50436 L -799.61682,543.00436 L -799.89738,555.22764 C -800.21898,569.23833 -800.96277,568.26022 -789.61682,568.74696 L -783.61682,569.00436 L -783.61682,580.00436 L -783.61682,591.00436 L -791.61682,591.50436 L -799.61682,592.00436 L -799.61682,604.50436 L -799.61682,617.00436 L -791.61682,617.50436 L -783.61682,618.00436 L -783.61682,629.00436 L -783.61682,640.00436 L -789.61682,640.26176 C -800.96277,640.7485 -800.21898,639.77039 -799.89738,653.78108 L -799.61682,666.00436 L -791.61682,666.50436 L -783.61682,667.00436 L -783.61682,678.00436 L -783.61682,689.00436 L -791.61682,689.50436 L -799.61682,690.00436 L -799.61682,702.50436 L -799.61682,715.00436 L -791.61682,715.50436 L -783.61682,716.00436 L -783.61682,727.00436 L -783.61682,738.00436 L -789.61682,738.26176 C -800.96277,738.7485 -800.21898,737.77039 -799.89738,751.78108 L -799.61682,764.00436 L -791.61682,764.50436 L -783.61682,765.00436 L -783.61682,776.00436 L -783.61682,787.00436 L -789.61682,787.26176 C -800.96277,787.7485 -800.21898,786.77039 -799.89738,800.78108 L -799.61682,813.00436 L -791.61682,813.50436 L -783.61682,814.00436 L -783.61682,825.00436 L -783.61682,836.00436 L -791.61682,836.50436 L -799.61682,837.00436 L -799.61682,849.50436 L -799.61682,862.00436 L -791.61682,862.50436 L -783.61682,863.00436 L -783.61682,874.00436 L -783.61682,885.00436 L -789.61682,885.26176 C -800.31243,885.7206 -800.11682,885.5698 -800.11682,893.35675 C -800.11682,897.1046 -799.81682,900.47103 -799.45015,900.83769 C -799.08349,901.20436 -795.26706,901.50436 -790.96921,901.50436 C -783.68261,901.50436 -783.12064,901.35242 -782.64719,899.25436 z M -757.11682,877.11135 C -757.11682,867.85093 -757.35739,867.50436 -763.78547,867.50436 C -766.75052,867.50436 -767.46255,867.04869 -768.4069,864.5468 C -769.45397,861.7728 -769.89854,861.57109 -775.57004,861.2968 L -781.61682,861.00436 L -781.61682,849.50436 L -781.61682,838.00436 L -775.36682,837.70664 L -769.11682,837.40893 L -769.11682,825.00436 L -769.11682,812.59979 L -775.36682,812.30208 L -781.61682,812.00436 L -781.89957,800.75436 L -782.18232,789.50436 L -776.89957,789.48905 C -773.99406,789.48063 -771.03937,789.10733 -770.33361,788.65951 C -769.37938,788.05403 -769.12301,784.78915 -769.33361,775.92482 L -769.61682,764.00436 L -775.89814,763.70583 L -782.17945,763.4073 L -781.89814,751.70583 L -781.61682,740.00436 L -775.36682,739.70664 L -769.11682,739.40893 L -769.11682,726.95664 L -769.11682,714.50436 L -774.36682,714.48905 C -777.25432,714.48063 -780.19532,714.10668 -780.90237,713.65806 C -781.8516,713.05578 -782.11321,709.98582 -781.90237,701.92337 L -781.61682,691.00436 L -775.36682,690.70664 L -769.11682,690.40893 L -769.11682,678.00436 L -769.11682,665.59979 L -775.36682,665.30208 L -781.61682,665.00436 L -781.89957,653.75436 L -782.18232,642.50436 L -777.23136,642.50436 C -768.88596,642.50436 -769.11682,642.89013 -769.11682,628.94509 L -769.11682,616.59979 L -775.36682,616.30208 L -781.61682,616.00436 L -781.61682,604.50436 L -781.61682,593.00436 L -775.36682,592.70664 L -769.11682,592.40893 L -769.11682,579.95664 L -769.11682,567.50436 L -774.36682,567.48905 C -777.25432,567.48063 -780.19532,567.10668 -780.90237,566.65806 C -781.8516,566.05578 -782.11321,562.98582 -781.90237,554.92337 L -781.61682,544.00436 L -775.36682,543.70664 L -769.11682,543.40893 L -769.11682,531.00436 L -769.11682,518.59979 L -775.36682,518.30208 L -781.61682,518.00436 L -781.90237,507.08535 C -782.11321,499.0229 -781.8516,495.95294 -780.90237,495.35066 C -780.19532,494.90204 -777.25432,494.52809 -774.36682,494.51967 L -769.11682,494.50436 L -769.11682,482.05208 L -769.11682,469.59979 L -775.36682,469.30208 L -781.61682,469.00436 L -781.61682,457.50436 L -781.61682,446.00436 L -775.36682,445.70664 L -769.11682,445.40893 L -769.11682,432.95664 L -769.11682,420.50436 L -774.36682,420.48905 C -777.25432,420.48063 -780.19532,420.10668 -780.90237,419.65806 C -781.8516,419.05578 -782.11321,415.98582 -781.90237,407.92337 L -781.61682,397.00436 L -775.36682,396.70664 L -769.11682,396.40892 L -769.11682,384.00436 L -769.11682,371.59979 L -775.36682,371.30207 L -781.61682,371.00436 L -781.90237,360.08534 C -782.22297,347.82575 -782.00814,347.39826 -775.61682,347.5776 C -769.35289,347.75336 -769.11682,347.65751 -769.11682,344.93861 C -769.11682,340.41097 -767.40794,338.50584 -763.33164,338.48904 C -761.28849,338.48061 -759.07841,338.13144 -758.42035,337.7131 C -757.75215,337.28831 -757.08987,334.09406 -756.92035,330.47842 L -756.61682,324.00435 L -744.86682,323.72261 L -733.11682,323.44088 L -733.11682,329.77261 C -733.11682,333.36396 -732.59746,336.62371 -731.91682,337.30435 C -730.26635,338.95482 -708.96729,338.95482 -707.31682,337.30435 C -706.63618,336.62371 -706.11682,333.36396 -706.11682,329.77261 L -706.11682,323.44088 L -694.36682,323.72261 L -682.61682,324.00435 L -682.11682,331.00435 L -681.61682,338.00435 L -670.25995,338.2881 C -662.95202,338.47069 -658.42263,338.17311 -657.55547,337.45343 C -656.76392,336.79651 -656.08592,333.79102 -655.91234,330.16968 L -655.61682,324.00435 L -644.11682,324.00435 L -632.61682,324.00435 L -632.3213,330.74672 C -631.96608,338.85128 -632.23882,338.71586 -617.11682,338.29593 L -606.61681,338.00435 L -606.11681,331.00435 L -605.61681,324.00435 L -593.86681,323.72261 L -582.11681,323.44088 L -582.11681,329.77261 C -582.11681,333.36396 -581.59745,336.62371 -580.91681,337.30435 C -579.26634,338.95482 -557.96728,338.95482 -556.31681,337.30435 C -555.63617,336.62371 -555.11681,333.36396 -555.11681,329.77261 L -555.11681,323.44088 L -543.36681,323.72261 L -531.61681,324.00435 L -531.11681,331.00435 L -530.61681,338.00435 L -520.11681,338.29593 C -504.99481,338.71586 -505.26755,338.85128 -504.91233,330.74672 L -504.61681,324.00435 L -492.86681,323.72261 L -481.11681,323.44088 L -481.11681,329.77261 C -481.11681,333.36396 -480.59745,336.62371 -479.91681,337.30435 C -478.3034,338.91776 -456.52315,338.97084 -455.52993,337.36378 C -455.14223,336.73647 -454.74955,334.82397 -454.6573,333.11378 C -454.56506,331.40359 -454.40571,328.54185 -454.3032,326.75435 L -454.11681,323.50435 L -442.61681,323.50435 L -431.11681,323.50435 L -431.11681,329.07009 C -431.11681,338.31952 -430.85555,338.50435 -417.78163,338.50435 C -410.35344,338.50435 -406.10812,338.09565 -405.31682,337.30435 C -404.63618,336.62371 -404.11682,333.36396 -404.11682,329.77261 L -404.11682,323.44088 L -392.36682,323.72261 L -380.61682,324.00435 L -380.3213,330.74672 C -379.96608,338.85128 -380.23882,338.71586 -365.11682,338.29593 L -354.61682,338.00435 L -354.11682,331.00435 L -353.61682,324.00435 L -341.918,323.72306 L -330.21919,323.44176 L -329.67453,326.72306 C -329.37496,328.52777 -329.01443,331.80435 -328.87334,334.00435 L -328.61682,338.00435 L -317.25995,338.2881 C -309.74265,338.47592 -305.43209,338.18096 -304.50995,337.41565 C -303.58428,336.64742 -303.11682,334.10885 -303.11682,329.85017 L -303.11682,323.44088 L -291.36682,323.72261 L -279.61682,324.00435 L -279.31049,329.96976 C -279.14201,333.25074 -278.52441,336.51324 -277.93804,337.21976 C -276.75432,338.64606 -256.55446,339.0698 -254.42035,337.7131 C -253.75215,337.28831 -253.08987,334.09406 -252.92035,330.47842 L -252.61682,324.00435 L -240.86682,323.72261 L -229.11682,323.44088 L -229.11682,329.77261 C -229.11682,333.36396 -228.59746,336.62371 -227.91682,337.30435 C -227.12552,338.09565 -222.88019,338.50435 -215.452,338.50435 C -202.37234,338.50435 -202.11682,338.32297 -202.11682,329.03835 L -202.11682,323.44088 L -190.36682,323.72261 L -178.61682,324.00435 L -178.31329,330.47842 C -178.14377,334.09406 -177.48149,337.28831 -176.81329,337.7131 C -175.2548,338.70387 -154.97884,338.70387 -153.42035,337.7131 C -152.75215,337.28831 -152.08987,334.09406 -151.92035,330.47842 L -151.61682,324.00435 L -139.86682,323.72261 L -128.11682,323.44088 L -128.11682,329.77261 C -128.11682,333.36396 -127.59746,336.62371 -126.91682,337.30435 C -125.26635,338.95482 -103.96729,338.95482 -102.31682,337.30435 C -101.63618,336.62371 -101.11682,333.36396 -101.11682,329.77261 L -101.11682,323.44088 L -89.366819,323.72261 L -77.616819,324.00435 L -77.116819,331.00435 L -76.616819,338.00435 L -66.116819,338.29593 C -50.994819,338.71586 -51.267559,338.85128 -50.912339,330.74672 L -50.616819,324.00435 L -38.866819,323.72261 L -27.116819,323.44088 L -27.116819,329.85017 C -27.116819,334.10885 -26.649359,336.64742 -25.723689,337.41565 C -24.801549,338.18096 -20.490989,338.47592 -12.973689,338.2881 L -1.6168186,338.00435 L -1.3555086,333.00435 C -0.82840857,322.91876 -1.6148086,323.50435 11.402231,323.50435 L 22.883181,323.50435 L 22.883181,329.80435 C 22.883181,333.37102 23.403811,336.62498 24.083181,337.30435 C 25.733651,338.95482 47.032711,338.95482 48.683181,337.30435 C 49.363821,336.62371 49.883181,333.36396 49.883181,329.77261 L 49.883181,323.44088 L 61.633181,323.72261 L 73.383181,324.00435 L 73.686711,330.47842 C 73.856231,334.09406 74.518511,337.28831 75.186711,337.7131 C 76.745201,338.70387 97.021161,338.70387 98.579651,337.7131 C 99.247851,337.28831 99.910131,334.09406 100.07965,330.47842 L 100.38318,324.00435 L 112.13318,323.72261 L 123.88318,323.44088 L 123.88318,329.85017 C 123.88318,334.10885 124.35064,336.64742 125.27631,337.41565 C 126.19845,338.18096 130.50901,338.47592 138.02631,338.2881 L 149.38318,338.00435 L 149.64449,333.00435 C 150.17153,322.91996 149.38792,323.50435 162.38318,323.50435 C 175.37844,323.50435 174.59483,322.91996 175.12187,333.00435 L 175.38318,338.00435 L 185.88318,338.29593 C 201.00518,338.71586 200.73248,338.85128 201.08768,330.74672 L 201.38318,324.00435 L 212.88318,324.00435 L 224.38318,324.00435 L 224.67868,330.16968 C 224.85228,333.79102 225.53028,336.79651 226.32178,337.45343 C 227.18898,338.17311 231.71838,338.47069 239.02628,338.2881 L 250.38318,338.00435 L 250.64448,333.00435 C 251.17768,322.80228 250.33548,323.40288 263.66018,323.72285 L 275.38318,324.00435 L 275.68668,330.47842 C 275.85628,334.09406 276.51848,337.28831 277.18668,337.7131 C 279.32078,339.0698 299.52068,338.64606 300.70438,337.21976 C 301.29078,336.51324 301.90838,333.25074 302.07688,329.96976 L 302.38318,324.00435 L 313.88318,324.00435 L 325.38318,324.00435 L 325.68948,329.96976 C 325.85798,333.25074 326.47558,336.51324 327.06198,337.21976 C 327.81548,338.12771 331.45358,338.50435 339.47048,338.50435 C 352.63758,338.50435 352.88318,338.33105 352.88318,329.03835 L 352.88318,323.44088 L 364.63318,323.72261 L 376.38318,324.00435 L 376.38318,335.00435 L 376.38318,346.00436 L 368.38318,346.50436 L 360.38318,347.00436 L 360.38318,359.50436 L 360.38318,372.00436 L 368.38318,372.50436 L 376.38318,373.00436 L 376.38318,384.00436 L 376.38318,395.00436 L 368.38318,395.50436 L 360.38318,396.00436 L 360.38318,408.50436 L 360.38318,421.00436 L 368.38318,421.50436 L 376.38318,422.00436 L 376.38318,433.00436 L 376.38318,444.00436 L 368.38318,444.50436 L 360.38318,445.00436 L 360.38318,457.50436 L 360.38318,470.00436 L 368.38318,470.50436 L 376.38318,471.00436 L 376.38318,482.00436 L 376.38318,493.00436 L 370.38318,493.26176 C 359.03728,493.7485 359.78098,492.77039 360.10258,506.78108 L 360.38318,519.00436 L 368.38318,519.50436 L 376.38318,520.00436 L 376.38318,531.00436 L 376.38318,542.00436 L 368.38318,542.50436 L 360.38318,543.00436 L 360.10258,555.22764 C 359.78098,569.23833 359.03728,568.26022 370.38318,568.74696 L 376.38318,569.00436 L 376.38318,580.00436 L 376.38318,591.00436 L 368.38318,591.50436 L 360.38318,592.00436 L 360.38318,604.50436 L 360.38318,617.00436 L 368.38318,617.50436 L 376.38318,618.00436 L 376.38318,629.00436 L 376.38318,640.00436 L 370.38318,640.26176 C 359.03728,640.7485 359.78098,639.77039 360.10258,653.78108 L 360.38318,666.00436 L 368.38318,666.50436 L 376.38318,667.00436 L 376.38318,678.00436 L 376.38318,689.00436 L 368.38318,689.50436 L 360.38318,690.00436 L 360.38318,702.50436 L 360.38318,715.00436 L 368.38318,715.50436 L 376.38318,716.00436 L 376.38318,727.00436 L 376.38318,738.00436 L 368.38318,738.50436 L 360.38318,739.00436 L 360.38318,751.50436 L 360.38318,764.00436 L 368.38318,764.50436 L 376.38318,765.00436 L 376.38318,776.00436 L 376.38318,787.00436 L 368.38318,787.50436 L 360.38318,788.00436 L 360.38318,800.50436 L 360.38318,813.00436 L 368.38318,813.50436 L 376.38318,814.00436 L 376.38318,825.00436 L 376.38318,836.00436 L 368.38318,836.50436 L 360.38318,837.00436 L 360.38318,849.50436 L 360.38318,862.00436 L 368.38318,862.50436 L 376.38318,863.00436 L 376.38318,874.00436 L 376.38318,885.00436 L 364.63318,885.2861 L 352.88318,885.56783 L 352.88318,878.47035 C 352.88318,867.52106 352.86288,867.50436 339.54798,867.50436 C 332.11978,867.50436 327.87448,867.91306 327.08318,868.70436 C 326.35498,869.43257 325.88318,872.97103 325.88318,877.70436 L 325.88318,885.50436 L 313.88318,885.50436 L 301.88318,885.50436 L 301.88318,877.70436 C 301.88318,872.97103 301.41138,869.43257 300.68318,868.70436 C 299.33628,867.35742 279.20708,867.01133 277.17918,868.30025 C 276.45078,868.76326 275.85828,872.21319 275.67918,877.03494 L 275.38318,885.00436 L 263.38318,885.00436 L 251.38318,885.00436 L 250.88318,876.50436 L 250.38318,868.00436 L 239.02628,867.72061 C 231.50898,867.53279 227.19848,867.82775 226.27628,868.59305 C 225.30118,869.40231 224.88318,872.11306 224.88318,877.6268 L 224.88318,885.50436 L 212.88318,885.50436 L 200.88318,885.50436 L 200.88318,877.02341 C 200.88318,866.89523 201.50158,867.27906 185.88318,867.71278 L 175.38318,868.00436 L 174.88318,876.50436 L 174.38318,885.00436 L 162.38318,885.00436 L 150.38318,885.00436 L 149.88318,876.50436 L 149.38318,868.00436 L 138.02631,867.72061 C 130.50901,867.53279 126.19845,867.82775 125.27631,868.59305 C 124.30035,869.40303 123.88318,872.11767 123.88318,877.65854 L 123.88318,885.56783 L 112.13318,885.2861 L 100.38318,885.00436 L 99.883181,876.50436 L 99.383181,868.00436 L 86.883181,868.00436 L 74.383181,868.00436 L 73.883181,876.50436 L 73.383181,885.00436 L 61.633181,885.2861 L 49.883181,885.56783 L 49.883181,877.7361 C 49.883181,872.97808 49.412221,869.4334 48.683181,868.70436 C 47.893991,867.91517 43.683181,867.50436 36.383181,867.50436 C 29.083181,867.50436 24.872371,867.91517 24.083181,868.70436 C 23.354141,869.4334 22.883181,872.97808 22.883181,877.7361 L 22.883181,885.56783 L 11.133181,885.2861 L -0.61681857,885.00436 L -1.1168186,876.50436 L -1.6168186,868.00436 L -12.116819,867.71278 C -27.735189,867.27906 -27.116819,866.89523 -27.116819,877.02341 L -27.116819,885.50436 L -39.116819,885.50436 L -51.116819,885.50436 L -51.116819,877.02341 C -51.116819,866.89523 -50.498449,867.27906 -66.116819,867.71278 L -76.616819,868.00436 L -77.116819,876.50436 L -77.616819,885.00436 L -89.366819,885.2861 L -101.11682,885.56783 L -101.11682,877.7361 C -101.11682,872.97808 -101.58778,869.4334 -102.31682,868.70436 C -103.10601,867.91517 -107.31682,867.50436 -114.61682,867.50436 C -121.91682,867.50436 -126.12763,867.91517 -126.91682,868.70436 C -127.64586,869.4334 -128.11682,872.97808 -128.11682,877.7361 L -128.11682,885.56783 L -139.86682,885.2861 L -151.61682,885.00436 L -152.11682,876.50436 L -152.61682,868.00436 L -163.11682,867.71278 C -178.73519,867.27906 -178.11682,866.89523 -178.11682,877.02341 L -178.11682,885.50436 L -190.11682,885.50436 L -202.11682,885.50436 L -202.11682,877.70436 C -202.11682,872.97103 -202.58861,869.43257 -203.31682,868.70436 C -204.10601,867.91517 -208.31682,867.50436 -215.61682,867.50436 C -222.91682,867.50436 -227.12763,867.91517 -227.91682,868.70436 C -228.64503,869.43257 -229.11682,872.97103 -229.11682,877.70436 L -229.11682,885.50436 L -241.11682,885.50436 L -253.11682,885.50436 L -253.11682,877.11135 C -253.11682,870.38051 -253.43008,868.59813 -254.69861,868.11135 C -256.98328,867.23464 -276.39377,867.39322 -277.82081,868.30025 C -278.54926,868.76326 -279.14171,872.21319 -279.32081,877.03494 L -279.61682,885.00436 L -291.36682,885.2861 L -303.11682,885.56783 L -303.11682,877.65854 C -303.11682,872.11767 -303.53399,869.40303 -304.50995,868.59305 C -305.43209,867.82775 -309.74265,867.53279 -317.25995,867.72061 L -328.61682,868.00436 L -328.8726,874.50436 C -329.34001,886.38229 -328.40694,885.60972 -341.89378,885.28586 L -353.61682,885.00436 L -354.11682,876.50436 L -354.61682,868.00436 L -367.11682,868.00436 L -379.61682,868.00436 L -380.11682,876.50436 L -380.61682,885.00436 L -392.36682,885.2861 L -404.11682,885.56783 L -404.11682,877.7361 C -404.11682,872.97808 -404.58778,869.4334 -405.31682,868.70436 C -406.10812,867.91306 -410.35344,867.50436 -417.78163,867.50436 C -431.09215,867.50436 -431.11681,867.52458 -431.11681,878.43862 L -431.11681,885.50436 L -442.61681,885.50436 C -448.94181,885.50436 -454.17116,885.16686 -454.23759,884.75436 C -454.30401,884.34186 -454.44232,880.83916 -454.54494,876.97058 C -454.64755,873.10201 -455.06976,869.38951 -455.48318,868.72058 C -456.51976,867.04335 -478.24138,867.02893 -479.91681,868.70436 C -480.64502,869.43257 -481.11681,872.97103 -481.11681,877.70436 L -481.11681,885.50436 L -493.11681,885.50436 L -505.11681,885.50436 L -505.11681,877.02341 C -505.11681,866.89523 -504.49844,867.27906 -520.11681,867.71278 L -530.61681,868.00436 L -531.11681,876.50436 L -531.61681,885.00436 L -543.36681,885.2861 L -555.11681,885.56783 L -555.11681,877.7361 C -555.11681,872.97808 -555.58777,869.4334 -556.31681,868.70436 C -557.106,867.91517 -561.31681,867.50436 -568.61681,867.50436 C -575.91681,867.50436 -580.12762,867.91517 -580.91681,868.70436 C -581.64585,869.4334 -582.11681,872.97808 -582.11681,877.7361 L -582.11681,885.56783 L -593.86681,885.2861 L -605.61681,885.00436 L -606.11681,876.50436 L -606.61681,868.00436 L -617.11682,867.71278 C -632.57083,867.28362 -631.98021,866.93218 -632.32652,876.7633 L -632.61682,885.00436 L -644.36682,885.2861 L -656.11682,885.56783 L -656.11682,877.65854 C -656.11682,872.11767 -656.53399,869.40303 -657.50995,868.59305 C -658.43209,867.82775 -662.74265,867.53279 -670.25995,867.72061 L -681.61682,868.00436 L -682.11682,876.50436 L -682.61682,885.00436 L -694.36682,885.2861 L -706.11682,885.56783 L -706.11682,877.7361 C -706.11682,872.97808 -706.58778,869.4334 -707.31682,868.70436 C -708.10601,867.91517 -712.31682,867.50436 -719.61682,867.50436 C -726.91682,867.50436 -731.12763,867.91517 -731.91682,868.70436 C -732.64503,869.43257 -733.11682,872.97103 -733.11682,877.70436 L -733.11682,885.50436 L -745.11682,885.50436 L -757.11682,885.50436 L -757.11682,877.11135 z M 355.38318,603.00436 L 355.38318,342.00435 L -204.61682,342.00435 L -764.61682,342.00435 L -764.87299,602.00436 C -765.01388,745.00436 -764.91535,862.56726 -764.65403,863.25525 C -764.27438,864.25479 -651.69925,864.45572 -204.39786,864.25525 L 355.38318,864.00436 L 355.38318,603.00436 z "
         id="path1985" />
    </g>
  </g>
</svg>
