<?xml version="1.0" encoding="UTF-8" standalone="no"?>
<svg xmlns:inkscape="http://www.inkscape.org/namespaces/inkscape" xmlns:rdf="http://www.w3.org/1999/02/22-rdf-syntax-ns#" xmlns="http://www.w3.org/2000/svg" xmlns:cc="http://creativecommons.org/ns#" xmlns:dc="http://purl.org/dc/elements/1.1/" xmlns:sodipodi="http://sodipodi.sourceforge.net/DTD/sodipodi-0.dtd" id="svg2" sodipodi:docname="_svgclean2.svg" viewBox="0 0 437 287" version="1.1" inkscape:version="0.48.3.1 r9886">
  <sodipodi:namedview id="namedview51" bordercolor="#666666" inkscape:pageshadow="2" guidetolerance="10" pagecolor="#ffffff" gridtolerance="10" inkscape:window-maximized="0" inkscape:zoom="0.22425739" objecttolerance="10" borderopacity="1" inkscape:current-layer="svg2" inkscape:cx="372.04724" inkscape:cy="-239.18109" inkscape:window-y="0" inkscape:window-x="0" inkscape:window-width="743" showgrid="false" inkscape:pageopacity="0" inkscape:window-height="484"/>
  <g id="cvpage1_top" width="437px" height="287px">
    <rect id="rect5" style="fill:#ffffff" height="287" width="437" y="0" x="0"/>
    <clipPath id="cp071963">
      <rect id="rect8" y="0" x="0" height="286.5" width="435.75"/>
    </clipPath>
    <g id="g10" clip-path="url(#cp071963)">
      <rect id="rect12" style="fill-rule:evenodd;fill:#ff0000" height="286.45" width="434.3" y="0" x="0.299"/>
    </g>
    <clipPath id="cp071964">
      <rect id="rect15" y="0" x="0" height="286.5" width="435.75"/>
    </clipPath>
    <g id="g17" clip-path="url(#cp071964)">
      <polyline id="polyline19" style="fill-rule:evenodd;fill:#0000ff" points="99.703 89.778 108.88 120.17 112.26 131.1 123.78 130.9 155.74 130.15 129.46 148.22 119.99 154.75 123.78 165.53 134.35 195.48 108.88 176.26 99.703 169.38 90.53 176.26 65.056 195.48 75.624 165.53 79.413 154.75 69.941 148.22 43.67 130.15 75.624 130.9 87.14 131.1 90.53 120.17 99.703 89.778"/>
    </g>
    <clipPath id="cp071965">
      <rect id="rect22" y="0" x="0" height="286.5" width="435.75"/>
    </clipPath>
    <g id="g24" clip-path="url(#cp071965)">
      <polyline id="polyline26" style="fill-rule:evenodd;fill:#0000ff" points="217.5 89.778 226.67 120.17 230.06 131.1 241.58 130.9 273.53 130.15 247.26 148.22 237.79 154.75 241.58 165.53 252.15 195.48 226.67 176.26 217.5 169.38 208.33 176.26 182.86 195.48 193.42 165.53 197.21 154.75 187.74 148.22 161.47 130.15 193.42 130.9 204.94 131.1 208.33 120.17 217.5 89.778"/>
    </g>
    <clipPath id="cp071966">
      <rect id="rect29" y="0" x="0" height="286.5" width="435.75"/>
    </clipPath>
    <g id="g31" clip-path="url(#cp071966)">
      <polyline id="polyline33" style="fill-rule:evenodd;fill:#0000ff" points="335.2 90.926 344.37 121.32 347.76 132.25 359.28 132.05 391.23 131.3 364.96 149.36 355.49 155.9 359.28 166.68 369.85 196.62 344.37 177.41 335.2 170.52 326.03 177.41 300.55 196.62 311.12 166.68 314.91 155.9 305.44 149.36 279.17 131.3 311.12 132.05 322.64 132.25 326.03 121.32 335.2 90.926"/>
    </g>
    <clipPath id="cp071967">
      <rect id="rect36" y="0" x="0" height="286.5" width="435.75"/>
    </clipPath>
    <g id="g38" clip-path="url(#cp071967)">
      <rect id="rect40" style="fill-rule:evenodd;fill:#0000ff" height="30.691" width="432.46" y="34.035" x="1.645"/>
    </g>
    <clipPath id="cp071968">
      <rect id="rect43" y="0" x="0" height="286.5" width="435.75"/>
    </clipPath>
    <g id="g45" clip-path="url(#cp071968)">
      <rect id="rect47" style="fill-rule:evenodd;fill:#0000ff" height="30.691" width="435.7" y="223.02" x="0"/>
    </g>
  </g>
  <metadata id="metadata49">
    <rdf:RDF>
      <cc:Work>
        <dc:format>image/svg+xml</dc:format>
        <dc:type rdf:resource="http://purl.org/dc/dcmitype/StillImage"/>
        <cc:license rdf:resource="http://creativecommons.org/licenses/publicdomain/"/>
        <dc:publisher>
          <cc:Agent rdf:about="http://openclipart.org/">
            <dc:title>Openclipart</dc:title>
          </cc:Agent>
        </dc:publisher>
      </cc:Work>
      <cc:License rdf:about="http://creativecommons.org/licenses/publicdomain/">
        <cc:permits rdf:resource="http://creativecommons.org/ns#Reproduction"/>
        <cc:permits rdf:resource="http://creativecommons.org/ns#Distribution"/>
        <cc:permits rdf:resource="http://creativecommons.org/ns#DerivativeWorks"/>
      </cc:License>
    </rdf:RDF>
  </metadata>
</svg>
