<?xml version="1.0" encoding="UTF-8" standalone="no"?>
<!-- Created with Sodipodi ("http://www.sodipodi.com/") -->
<svg
   xmlns:dc="http://purl.org/dc/elements/1.1/"
   xmlns:cc="http://creativecommons.org/ns#"
   xmlns:rdf="http://www.w3.org/1999/02/22-rdf-syntax-ns#"
   xmlns:svg="http://www.w3.org/2000/svg"
   xmlns="http://www.w3.org/2000/svg"
   xmlns:sodipodi="http://sodipodi.sourceforge.net/DTD/sodipodi-0.dtd"
   xmlns:inkscape="http://www.inkscape.org/namespaces/inkscape"
   height="416"
   id="svg559"
   inkscape:version="0.45+devel"
   sodipodi:docbase="/home/cschalle/clipart/openclipart-0.10/signs_and_symbols/flags/oceania/australia"
   sodipodi:docname="australia_eureka_historic.svg"
   sodipodi:version="0.32"
   width="640"
   xml:space="preserve"
   inkscape:output_extension="org.inkscape.output.svg.inkscape"
   version="1.0"><metadata
   id="metadata3"><rdf:RDF><cc:Work
       rdf:about=""><dc:title>Australia Eureka</dc:title><dc:description /><dc:subject><rdf:Bag><rdf:li /><rdf:li>flag</rdf:li><rdf:li>historic</rdf:li><rdf:li>sign</rdf:li></rdf:Bag></dc:subject><dc:publisher><cc:Agent
           rdf:about="http://www.openclipart.org"><dc:title>Ben Fowler</dc:title></cc:Agent></dc:publisher><dc:creator><cc:Agent><dc:title>Ben Fowler</dc:title></cc:Agent></dc:creator><dc:rights><cc:Agent><dc:title>Ben Fowler</dc:title></cc:Agent></dc:rights><dc:date /><dc:format>image/svg+xml</dc:format><dc:type
         rdf:resource="http://purl.org/dc/dcmitype/StillImage" /><cc:license
         rdf:resource="http://web.resource.org/cc/PublicDomain" /><dc:language>en</dc:language></cc:Work><cc:License
       rdf:about="http://web.resource.org/cc/PublicDomain"><cc:permits
         rdf:resource="http://web.resource.org/cc/Reproduction" /><cc:permits
         rdf:resource="http://web.resource.org/cc/Distribution" /><cc:permits
         rdf:resource="http://web.resource.org/cc/DerivativeWorks" /></cc:License></rdf:RDF></metadata><defs
   id="defs596" />



<sodipodi:namedview
   id="base"
   inkscape:cx="256.00000"
   inkscape:cy="166.40001"
   inkscape:window-height="538"
   inkscape:window-width="640"
   inkscape:window-x="0"
   inkscape:window-y="28"
   inkscape:zoom="1.0703125"
   showgrid="false" />




<rect
   height="416"
   id="rect563"
   style="fill:#1b376d"
   width="640"
   x="0"
   y="0" />




<rect
   height="59"
   id="rect565"
   style="fill:#ffffff"
   width="458"
   x="91"
   y="179" />




<rect
   height="298"
   id="rect567"
   style="fill:#ffffff"
   width="59"
   x="291"
   y="59" />




<g
   id="g569"
   style="fill:#1b376d">
<polygon
   id="polygon571"
   points="375.17377,208 345.48696,218.55704 359.01375,247.01375 330.55705,233.48696 320,263.17377 309.44295,233.48696 280.98625,247.01375 294.51304,218.55704 264.82623,208 294.51304,197.44296 280.98625,168.98625 309.44295,182.51304 320,152.82623 330.55705,182.51304 359.01375,168.98625 345.48696,197.44296 375.17377,208 " />




<polygon
   id="polygon573"
   points="146.17377,208 116.48696,218.55704 130.01375,247.01375 101.55705,233.48696 91,263.17377 80.442955,233.48696 51.98625,247.01375 65.51304,218.55704 35.826226,208 65.51304,197.44296 51.98625,168.98625 80.442955,182.51304 91,152.82623 101.55705,182.51304 130.01375,168.98625 116.48696,197.44296 146.17377,208 " />




<polygon
   id="polygon575"
   points="604.17377,208 574.48696,218.55704 588.01375,247.01375 559.55705,233.48696 549,263.17377 538.44295,233.48696 509.98625,247.01375 523.51304,218.55704 493.82623,208 523.51304,197.44296 509.98625,168.98625 538.44295,182.51304 549,152.82623 559.55705,182.51304 588.01375,168.98625 574.48696,197.44296 604.17377,208 " />




<polygon
   id="polygon577"
   points="375.17377,59 345.48696,69.557045 359.01375,98.01375 330.55705,84.48696 320,114.17377 309.44295,84.48696 280.98625,98.01375 294.51304,69.557045 264.82623,59 294.51304,48.442955 280.98625,19.98625 309.44295,33.51304 320,3.826226 330.55705,33.51304 359.01375,19.98625 345.48696,48.442955 375.17377,59 " />




<polygon
   id="polygon579"
   points="375.17377,357 345.48696,367.55705 359.01375,396.01375 330.55705,382.48696 320,412.17377 309.44295,382.48696 280.98625,396.01375 294.51304,367.55705 264.82623,357 294.51304,346.44295 280.98625,317.98625 309.44295,331.51304 320,301.82623 330.55705,331.51304 359.01375,317.98625 345.48696,346.44295 375.17377,357 " />




</g>




<g
   id="g582"
   style="fill:#ffffff">
<polygon
   id="polygon584"
   points="367.97719,208 342.16257,217.18004 353.925,241.925 329.18004,230.16257 320,255.97719 310.81996,230.16257 286.075,241.925 297.83743,217.18004 272.02281,208 297.83743,198.81996 286.075,174.075 310.81996,185.83743 320,160.02281 329.18004,185.83743 353.925,174.075 342.16257,198.81996 367.97719,208 " />




<polygon
   id="polygon586"
   points="138.97719,208 113.16257,217.18004 124.925,241.925 100.18004,230.16257 91,255.97719 81.819961,230.16257 57.075,241.925 68.837426,217.18004 43.022805,208 68.837426,198.81996 57.075,174.075 81.819961,185.83743 91,160.02281 100.18004,185.83743 124.925,174.075 113.16257,198.81996 138.97719,208 " />




<polygon
   id="polygon588"
   points="596.9772,208 571.16257,217.18004 582.925,241.925 558.18004,230.16257 549,255.97719 539.81996,230.16257 515.075,241.925 526.83743,217.18004 501.02281,208 526.83743,198.81996 515.075,174.075 539.81996,185.83743 549,160.02281 558.18004,185.83743 582.925,174.075 571.16257,198.81996 596.9772,208 " />




<polygon
   id="polygon590"
   points="367.97719,59 342.16257,68.180039 353.925,92.925 329.18004,81.162574 320,106.97719 310.81996,81.162574 286.075,92.925 297.83743,68.180039 272.02281,59 297.83743,49.819961 286.075,25.075 310.81996,36.837426 320,11.022805 329.18004,36.837426 353.925,25.075 342.16257,49.819961 367.97719,59 " />




<polygon
   id="polygon592"
   points="367.97719,357 342.16257,366.18004 353.925,390.925 329.18004,379.16257 320,404.97719 310.81996,379.16257 286.075,390.925 297.83743,366.18004 272.02281,357 297.83743,347.81996 286.075,323.075 310.81996,334.83743 320,309.02281 329.18004,334.83743 353.925,323.075 342.16257,347.81996 367.97719,357 " />




</g>




<desc
   id="desc598">This work is hereby released into the Public Domain. To view a copy of the public domain dedication, visit http://creativecommons.org/licenses/publicdomain/ or send a letter to Creative Commons, 559 Nathan Abbott Way, Stanford, California 94305, USA.</desc>


  
</svg>