<?xml version="1.0" encoding="utf-8"?>
<!-- Generator: Adobe Illustrator 17.1.0, SVG Export Plug-In . SVG Version: 6.00 Build 0)  -->
<!DOCTYPE svg PUBLIC "-//W3C//DTD SVG 1.1//EN" "http://www.w3.org/Graphics/SVG/1.1/DTD/svg11.dtd">
<svg xmlns="http://www.w3.org/2000/svg" xmlns:xlink="http://www.w3.org/1999/xlink" version="1.1" id="Layer_2" x="0px" y="0px" viewBox="0 0 324 216" style="enable-background:new 0 0 324 216;" xml:space="preserve">
<style type="text/css">
	.st0{fill:#00A032;}
	.st1{fill:#F86600;}
</style>
<rect class="st0" width="324" height="216"/>
<g>
	<g>
		<path class="st1" d="M215.4,87.1l-7.7,3.9c2,5.3,3,11,3,16.9c0,26.2-20.7,47.6-46.6,48.7l0,8.6c30.7-1.1,55.3-26.3,55.3-57.3    C219.3,100.6,217.9,93.6,215.4,87.1z"/>
		<path class="st1" d="M155.3,156.2c-23.7-3.3-42-23.7-42-48.2c0-8.5,2.2-16.5,6-23.5l-7.3-4.6c-4.7,8.3-7.4,17.9-7.4,28.1    c0,29.4,22.1,53.6,50.6,56.9L155.3,156.2z"/>
	</g>
	<path class="st1" d="M162,59.2c17.8,0,33.4,9.6,41.9,23.8l7.7-3.9c-9.9-17.1-28.4-28.6-49.6-28.6c-18.3,0-34.6,8.6-45.1,21.9   l7.3,4.6C133.2,66.2,146.8,59.2,162,59.2z"/>
	<path class="st1" d="M162,44.2c23.6,0,44.3,12.9,55.3,32.1l7.7-3.9c-12.4-22-36-36.8-63-36.8c-23.6,0-44.6,11.4-57.8,28.9l7.3,4.6   C123.1,54,141.4,44.2,162,44.2z"/>
	<g>
		<path class="st1" d="M155.2,171.4c-32-3.4-57-30.5-57-63.4c0-11.5,3.1-22.2,8.4-31.5l-7.3-4.6c-6.1,10.6-9.7,23-9.7,36.1    c0,37.6,28.8,68.6,65.6,72L155.2,171.4z"/>
		<path class="st1" d="M228.9,80.3l-7.7,3.9c3,7.3,4.6,15.4,4.6,23.7c0,34.5-27.5,62.6-61.7,63.7l0,8.6c39-1.1,70.4-33.1,70.4-72.3    C234.4,98.2,232.4,88.9,228.9,80.3z"/>
	</g>
	<g>
		<path class="st1" d="M119.3,84.5l-20-12.6c-1.5,2.5-2.8,5.2-4,7.9l20.4,12.9C116.7,89.8,117.9,87.1,119.3,84.5z"/>
	</g>
	<g>
		<path class="st1" d="M203.9,83.1L225,72.4c-1.4-2.6-3-5.1-4.7-7.5l-21.5,10.9C200.7,78.1,202.4,80.5,203.9,83.1z"/>
	</g>
	<g>
		<path class="st1" d="M164.1,156.7l-0.1,23.7c2.9-0.1,5.9-0.4,8.8-0.8l0.1-24.1C170,156.1,167,156.6,164.1,156.7z"/>
	</g>
</g>
</svg>
