<?xml version="1.0" encoding="utf-8"?>
<!-- Generator: Adobe Illustrator 18.0.0, SVG Export Plug-In . SVG Version: 6.00 Build 0)  -->
<!DOCTYPE svg PUBLIC "-//W3C//DTD SVG 1.1//EN" "http://www.w3.org/Graphics/SVG/1.1/DTD/svg11.dtd">
<svg xmlns="http://www.w3.org/2000/svg" xmlns:xlink="http://www.w3.org/1999/xlink" version="1.1" id="Layer_2" x="0px" y="0px" viewBox="0 0 227 141" style="enable-background:new 0 0 227 141;" xml:space="preserve">
<style type="text/css">
	.st0{fill:#FFFFFF;stroke:#000000;stroke-width:0.25;stroke-miterlimit:10;}
	.st1{fill:#65C360;stroke:#000000;stroke-width:0.25;stroke-miterlimit:10;}
</style>
<rect class="st0" width="227" height="141"/>
<g>
	<path class="st1" d="M169.7,30.4l-48.5,17.9c0.8,1.4,2.9,2.9,5.1,4.5c5,3.6,12,8.6,14.2,19.2l12-3.9l4.2-9.2l-10.3,3.7l-1.1-3.2   l13.4-4.8l4.4-9.6l-20.9,7.4l-1.1-3.2l24-8.5L169.7,30.4z"/>
	<path class="st1" d="M118.1,49.5c-0.6-1.4-4.6-7.9-4.6-7.9l-5.7,7.5L57.3,30.4L62,40.8l24,8.5l-1.1,3.2L63.9,45l4.4,9.6l13.4,4.8   l-1.1,3.2l-10.3-3.7l4.2,9.2l16.1,5.2c-0.9,2.6-1.4,5.3-1.4,8.2c0,6.3,2.4,12,6.3,16.4c0,0,0,0,0,0c0,0,0,0,0,0   c0.8,0.8,1.6,1.6,2.4,2.3c8.7-3,13.2-6,15.4-8.4c-3-0.2-5.4-2.6-5.4-5.7c0-2.9,2.2-5.4,5.7-5.4s5.7,2.5,5.7,5.4   c0,4.5-7,11-19.8,15.4c4.3,3.8,10.8,8.9,14.2,8.9c3.8,0,11.8-6.6,16.1-10.7c7.2-7.2,8.3-19,8.2-19.4c0,0,0,0,0,0   C138.7,58.7,121.3,56.7,118.1,49.5z"/>
</g>
</svg>
