<?xml version="1.0" encoding="utf-8"?>
<!-- Generator: Adobe Illustrator 17.1.0, SVG Export Plug-In . SVG Version: 6.00 Build 0)  -->
<!DOCTYPE svg PUBLIC "-//W3C//DTD SVG 1.1//EN" "http://www.w3.org/Graphics/SVG/1.1/DTD/svg11.dtd">
<svg xmlns="http://www.w3.org/2000/svg" xmlns:xlink="http://www.w3.org/1999/xlink" version="1.1" id="Layer_2" x="0px" y="0px" viewBox="0 0 143 103" style="enable-background:new 0 0 143 103;" xml:space="preserve">
<style type="text/css">
	.st0{fill:#880015;}
	.st1{fill:none;stroke:#fff;stroke-width:5;}
	.st2{fill:#fff;}
</style>
<rect class="st0" width="143" height="103"/>
<ellipse class="st1" cx="86" cy="51.5" rx="16" ry="16"/>
<polygon class="st2" points="56.1,55.7 52,55.7 52,43.2 42.7,45.7 42.7,55.7 39.3,55.7 39.3,46.7 30,49.3 30,63.5 65.3,63.5   65.3,39.5 56.1,42 "/>
<path class="st2" d="M77.9,16.4c-15.7,0-29,10.3-33.5,24.5h6.5c4.3-10.8,14.8-18.4,27-18.4c16,0,29,13,29,29s-13,29-29,29  c-10.4,0-19.6-5.5-24.7-13.8h-7c5.7,11.8,17.7,19.9,31.7,19.9c19.4,0,35.1-15.7,35.1-35.1S97.3,16.4,77.9,16.4z"/>
</svg>
