<?xml version="1.0" encoding="utf-8"?>
<!-- Generator: Adobe Illustrator 17.1.0, SVG Export Plug-In . SVG Version: 6.00 Build 0)  -->
<!DOCTYPE svg PUBLIC "-//W3C//DTD SVG 1.1//EN" "http://www.w3.org/Graphics/SVG/1.1/DTD/svg11.dtd">
<svg xmlns="http://www.w3.org/2000/svg" xmlns:xlink="http://www.w3.org/1999/xlink" version="1.1" id="Layer_2" x="0px" y="0px" viewBox="0 0 183 115" style="enable-background:new 0 0 183 115;" xml:space="preserve">
<style type="text/css">
	.st0{fill:#ED1C24;}
	.st1{fill:#fff;}
</style>
<rect class="st0" width="183" height="115"/>
<path class="st1" d="M118.7,36.2c4.5-4.5,7.7-10.5,8.2-17.8c-8.8,0-20.7,0-20.7,0c0,5.7,0.6,19.9-10,28.2c2.5,0,5.5-0.5,8.5-1.6  c4.3,3.7,7.1,9.2,7.1,15.4c0,11.2-9.2,20.4-20.4,20.4s-20.4-9.2-20.4-20.4c0-11.2,9.2-20.4,20.4-20.4c1.7,0,3.4,0.2,5,0.6  c5.2-4.6,6.7-10.3,7-14.6c-3.8-1.3-7.8-2-12-2c-20.1,0-36.4,16.3-36.4,36.4c0,20.1,16.3,36.4,36.4,36.4c20.1,0,36.4-16.3,36.4-36.4  C127.9,51,124.4,42.6,118.7,36.2z"/>
</svg>
