<?xml version="1.0" encoding="utf-8"?>
<!-- Generator: Adobe Illustrator 18.0.0, SVG Export Plug-In . SVG Version: 6.00 Build 0)  -->
<!DOCTYPE svg PUBLIC "-//W3C//DTD SVG 1.1//EN" "http://www.w3.org/Graphics/SVG/1.1/DTD/svg11.dtd">
<svg xmlns="http://www.w3.org/2000/svg" xmlns:xlink="http://www.w3.org/1999/xlink" version="1.1" id="Layer_2" x="0px" y="0px" viewBox="0 0 324 216" style="enable-background:new 0 0 324 216;" xml:space="preserve">
<style type="text/css">
	.st0{fill:#0A5028;}
	.st1{fill:#FFC800;stroke:#FFFFFF;stroke-width:2;stroke-miterlimit:10;}
</style>
<rect class="st0" width="324" height="216"/>
<g>
	<polygon class="st1" points="231.5,39.3 157.7,39.3 164,30.4 237.8,30.4  "/>
	<polygon class="st1" points="222.5,52.2 148.6,52.2 154.9,43.3 228.8,43.3  "/>
	<polygon class="st1" points="212.9,65.1 139,65.1 145.3,56.2 219.2,56.2  "/>
	<path class="st1" d="M213.4,69.3h-13.6c12,11.2,19.5,27.2,19.5,44.8c0,33.9-27.6,61.5-61.5,61.5c-33.9,0-61.5-27.6-61.5-61.5   c0-28.4,19.4-52.4,45.6-59.4l8.4-11.7c-35.9,3.8-63.9,34.2-63.9,71.1c0,39.5,32,71.5,71.5,71.5c39.5,0,71.5-32,71.5-71.5   C229.2,97.1,223.2,81.5,213.4,69.3z"/>
</g>
</svg>
