<?xml version="1.0" encoding="utf-8"?>
<!-- Generator: Adobe Illustrator 18.0.0, SVG Export Plug-In . SVG Version: 6.00 Build 0)  -->
<!DOCTYPE svg PUBLIC "-//W3C//DTD SVG 1.1//EN" "http://www.w3.org/Graphics/SVG/1.1/DTD/svg11.dtd">
<svg xmlns="http://www.w3.org/2000/svg" xmlns:xlink="http://www.w3.org/1999/xlink" version="1.1" id="Layer_2" x="0px" y="0px" viewBox="0 0 229 141" style="enable-background:new 0 0 229 141;" xml:space="preserve">
<style type="text/css">
	.st0{fill:#87E0E0;stroke:#000000;stroke-width:0.25;stroke-miterlimit:10;}
	.st1{fill:#FFFFFF;}
	.st2{fill:#FFFF00;stroke:#000000;stroke-width:0.25;stroke-miterlimit:10;}
	.st3{fill:#FF0033;stroke:#000000;stroke-width:0.25;stroke-miterlimit:10;}
</style>
<rect class="st0" width="229" height="141"/>
<g>
	<g>
		<path class="st1" d="M60,125.9l-0.1,8.3c0,0.8-0.1,1-0.3,0.6l-0.7-1.3c0.2-0.1,0.3-0.6,0.3-1.3l0.1-6.5c-0.8,1.9-2,3.7-3.3,5.3    l-0.3-0.2c1.4-2,2.5-4.2,3.4-6.8c-1.2,0.2-1.8,0.4-1.7,0.4l-1.1-0.8c0.3,0,1.4-0.1,3-0.4v-3c0-0.9-0.1-1.6-0.4-2.1l0.2-0.1l1.1,1    c-0.2,0-0.3,0.5-0.3,1.3v2.7c0.7-0.1,1.1-0.2,1.3-0.3l0.8,0.7c-0.5,0-1.2,0.1-2.1,0.3v1.4l1.6,1c0,0.5,0,1-0.1,1.4    C61,127.1,60.5,126.5,60,125.9z M60.4,134.8c1.1-0.7,2.1-1.5,2.9-2.2c0.9-0.7,1.2-1.2,1.1-1.5l0.2-0.1l0.4,1.4    c-0.1-0.1-0.6,0.1-1.4,0.7c-0.8,0.6-1.8,1.3-3.1,2L60.4,134.8z M62.7,122.2l-1.1-0.7c0.5,0,1.4,0,2.4-0.1v-1.1    c0-0.7-0.1-1.4-0.4-1.9l0.1-0.2l1.2,1c-0.2,0.1-0.3,0.5-0.3,1.1v1.1l2.7-0.3l0.1-1.3c0.1-0.8,0-1.3-0.2-1.6l0.1-0.2l1.2,1    c-0.2,0-0.3,0.2-0.4,0.6l-0.1,1.4c1-0.1,1.6-0.2,1.7-0.3l0.9,0.8c-0.5,0-1.4,0-2.6,0.2l-0.1,1.8c2.2-0.2,3.3-0.3,3.3-0.4l1,0.7    c-0.6,0-2.8,0.2-6.6,0.6l0.9,0.7c-0.2,0.1-0.3,0.4-0.3,0.8l2.5-0.2l0.5-0.5l0.7,0.7l-0.4,0.4l-0.3,3.3l0.6,0.7l-6.4,0.6    c0,0.7-0.1,1-0.2,0.9l-0.7-1c0.1-0.2,0.1-0.4,0.1-0.7l-0.1-3c0-0.7-0.1-1.2-0.3-1.5l0.2-0.1l0.6,0.7l2.4-0.2v-0.6    c0-0.3,0-0.6-0.1-1c-1.9,0.2-3,0.4-3.3,0.5l-1.2-0.8c0.5,0,1.6-0.1,3.1-0.2V122C63.3,122.1,62.9,122.2,62.7,122.2z M65.6,127.8    v-1.1l-2.3,0.2l0.1,1.1L65.6,127.8z M63.5,130.1l2.2-0.2v-1.3c-0.7,0.1-1.2,0.2-1.4,0.3l-0.8-0.7L63.5,130.1z M64.7,123.8l2.4-0.3    l0.1-1.8l-2.6,0.3V123.8z M68,127.4l0.7,0.7l0.1-1.8l-2.5,0.2v1.1C67.2,127.6,67.7,127.5,68,127.4z M68.5,129.7l0.1-1.4l-2.4,0.2    v1.4L68.5,129.7z M66.9,131.4l0.1-0.3l3.6,2.1c0,0.5,0.1,1,0.1,1.5C69.5,133.5,68.3,132.4,66.9,131.4z"/>
	</g>
	<g>
		<path class="st1" d="M106.6,131.9l1.6,1.4l3.3-8.6l0.3,0.1c-2.2,6.6-3.4,10-3.5,10.3c-0.3-0.8-1-1.8-1.9-3L106.6,131.9z     M107.1,125.2c0.9,0.5,1.7,1,2.4,1.4c0,0.5,0,1-0.1,1.4c-0.7-0.9-1.5-1.8-2.4-2.6L107.1,125.2z M110.8,122.9    c-0.6-0.9-1.3-1.8-2.1-2.7l0.1-0.1c0.8,0.5,1.5,1,2.2,1.6C111,122,110.9,122.4,110.8,122.9z M108.9,136.1c1.5-1,2.7-2,3.7-2.9    c1-0.9,1.4-1.6,1.3-1.9l0.2-0.1l0.7,1.4c-0.2,0-0.7,0.2-1.3,0.7c-0.6,0.5-1.3,1.1-2.1,1.7s-1.6,1.1-2.5,1.6L108.9,136.1z     M113.7,125.2c4.4-0.4,6.7-0.7,6.9-0.8l0.8,0.9c-0.8,0-2,0.1-3.4,0.3l0.8,0.7c-0.2,0.2-0.3,0.5-0.4,0.9c-0.1,0.3-0.2,1.3-0.4,2.9    c2.7-0.2,4-0.4,3.9-0.5l0.9,0.9c-0.9,0-3.1,0.1-6.4,0.4c-3.3,0.3-5.1,0.5-5.4,0.7l-0.8-1c0.5,0,1.5,0,2.8-0.1v-6.5    c0-1.6-0.1-2.7-0.2-3.3l0.2-0.1l0.7,1.3c1.5-0.4,2.9-0.9,4-1.5c1.1-0.5,1.8-1,1.9-1.3l0.9,0.9c-0.5,0.2-1.4,0.5-2.9,1    c-1.4,0.5-2.7,0.9-4,1.2V125.2z M117.3,130.1l0.3-2.7c0.1-0.9,0.1-1.5,0-1.8l-3.9,0.4v4.4L117.3,130.1z M117,131.8l0.2-0.2    c1.3,0.9,2.5,1.9,3.8,2.9c0,0.4-0.1,0.9-0.2,1.5C119.8,134.6,118.5,133.2,117,131.8z"/>
	</g>
	<g>
		<path class="st1" d="M163.3,121.2l0.9,0.7l-0.4,0.6c-0.1,5-0.3,7.9-0.5,8.5c-0.2,0.6-0.3,0.7-0.4,0.4c-0.1-0.3-0.2-0.8-0.4-1.3    l-3.9,0.5c0,1,0,1.5-0.2,1.3l-0.8-1.4c0.2-0.2,0.3-0.9,0.3-2.2c0-1.2,0-2.6,0-4c0-1.4-0.1-2.4-0.3-2.8l0.3-0.1l0.6,1.3l4.5-0.7    L163.3,121.2z M160.3,123l-1.9,0.4l0.1,2.7l1.8-0.3V123z M158.6,129.8l1.8-0.2v-3c-0.7,0.1-1.1,0.2-1.2,0.3l-0.6-0.6V129.8z     M162.4,125.3l0.5,0.7v-3.4l-1.9,0.3v2.7C161.7,125.5,162.2,125.4,162.4,125.3z M162.1,129.2l0.5,0.8c0.1-1.1,0.2-2.4,0.2-3.9    l-1.9,0.2v3C161.7,129.3,162.1,129.2,162.1,129.2z M173.4,121.1c-1,0-2.8,0.2-5.2,0.5l0.9,0.5c-0.1,0.1-0.2,0.5-0.2,1.3l-0.1,9.8    c0,1.3-0.2,2.3-0.6,3.1c-0.8-0.9-1.9-2-3.2-3.1l0.1-0.2l2.7,1.6c0.1-0.6,0.2-1.3,0.2-2.1l0.1-9c0-0.9-0.1-1.6-0.4-1.9    c-1.2,0.1-2.1,0.3-2.6,0.6l-1.1-0.8c1-0.1,2.6-0.3,4.7-0.6c2.1-0.3,3.3-0.5,3.5-0.6L173.4,121.1z"/>
	</g>
</g>
<g>
	<circle class="st2" cx="114.5" cy="61.4" r="38"/>
	<path class="st3" d="M136,60.1L136,60.1L136,60.1c-0.9-1.7-2.1-3.3-3.4-4.7L121,39.3l11.9-8.1H98.2L110,47.9   C98.5,50,89.8,60.1,89.8,72.1c0,13.6,11,24.7,24.7,24.7c13.6,0,24.7-11,24.7-24.7C139.2,67.8,138,63.7,136,60.1z M114.5,82.8   c-5.9,0-10.7-4.8-10.7-10.7s4.8-10.7,10.7-10.7s10.7,4.8,10.7,10.7S120.4,82.8,114.5,82.8z"/>
</g>
</svg>
