<?xml version="1.0" encoding="utf-8"?>
<!-- Generator: Adobe Illustrator 18.0.0, SVG Export Plug-In . SVG Version: 6.00 Build 0)  -->
<!DOCTYPE svg PUBLIC "-//W3C//DTD SVG 1.1//EN" "http://www.w3.org/Graphics/SVG/1.1/DTD/svg11.dtd">
<svg xmlns="http://www.w3.org/2000/svg" xmlns:xlink="http://www.w3.org/1999/xlink" version="1.1" x="0px" y="0px" viewBox="0 0 94 74" style="enable-background:new 0 0 94 74;" xml:space="preserve">
<style type="text/css">
	.st0{fill:#40003F;}
	.st1{fill:#FFFFFF;stroke:#FFFFFF;stroke-width:0.5;stroke-linejoin:round;stroke-miterlimit:10;}
</style>
<g id="Layer_2">
</g>
<g id="Layer_3">
	<rect class="st0" width="94" height="74"/>
	<g>
		<path class="st1" d="M65.8,32c2.8-0.9,2.9-6.2-1.6-4.9c-3.5,1.1-9.6,3.7-13.1,5.3c0.4-3.8,1-10.4,1-14c-0.1-4.7-5.1-2.9-5.1,0    c0-2.9-5-4.7-5.1,0c-0.1,3.7,0.6,10.3,1,14c-3.5-1.6-9.5-4.2-13.1-5.3c-4.5-1.4-4.4,4-1.6,4.9c-2.8-0.9-6,3.4-1.6,4.9    c3.5,1.2,9.9,2.6,13.7,3.4c-2.6,2.8-6.9,7.8-9,10.8c-2.7,3.8,2.4,5.4,4.1,3c-1.7,2.4,1.3,6.7,4.1,3c2.2-3,5.6-8.6,7.5-11.9    c1.9,3.3,5.2,9,7.5,11.9c2.8,3.7,5.9-0.6,4.1-3c1.7,2.4,6.8,0.8,4.1-3c-2.1-3-6.5-8-9-10.8c3.7-0.8,10.2-2.2,13.7-3.4    C71.8,35.3,68.6,31.1,65.8,32z M61.5,33.9l-10.4,3.4c0.1,0.3,0.1,0.5,0.1,0.8c0,1.2-0.5,2.3-1.3,3.1l6.4,8.9    c0.2,0.2,0.1,0.5-0.1,0.7c-0.1,0.1-0.2,0.1-0.3,0.1c-0.2,0-0.3-0.1-0.4-0.2L49,41.7c-0.6,0.3-1.3,0.5-2,0.5s-1.4-0.2-2-0.5    l-6.4,8.9c-0.1,0.1-0.3,0.2-0.4,0.2c-0.1,0-0.2,0-0.3-0.1c-0.2-0.2-0.3-0.5-0.1-0.7l6.4-8.9c-0.8-0.8-1.3-1.8-1.3-3.1    c0-0.3,0-0.5,0.1-0.8l-10.4-3.4c-0.3-0.1-0.4-0.4-0.3-0.6c0.1-0.3,0.4-0.4,0.6-0.3l10.4,3.4c0.6-1.3,1.8-2.2,3.3-2.4V23    c0-0.3,0.2-0.5,0.5-0.5s0.5,0.2,0.5,0.5v11c1.5,0.2,2.7,1.1,3.3,2.4L61.2,33c0.3-0.1,0.5,0.1,0.6,0.3    C61.9,33.6,61.8,33.8,61.5,33.9z"/>
	</g>
</g>
</svg>
