<?xml version="1.0" encoding="utf-8"?>
<!-- Generator: Adobe Illustrator 18.0.0, SVG Export Plug-In . SVG Version: 6.00 Build 0)  -->
<!DOCTYPE svg PUBLIC "-//W3C//DTD SVG 1.1//EN" "http://www.w3.org/Graphics/SVG/1.1/DTD/svg11.dtd">
<svg xmlns="http://www.w3.org/2000/svg" xmlns:xlink="http://www.w3.org/1999/xlink" version="1.1" id="Layer_2" x="0px" y="0px" viewBox="0 0 420 305" style="enable-background:new 0 0 420 305;" xml:space="preserve">
<style type="text/css">
	.st0{fill:#FFFFFF;stroke:#000000;stroke-width:0.25;stroke-miterlimit:10;}
	.st1{fill:#23B14D;stroke:#000000;stroke-width:0.25;stroke-miterlimit:10;}
</style>
<rect class="st0" width="420" height="305"/>
<g>
	<path class="st1" d="M152.5,88.3c15.3-13.7,35.4-22,57.5-22s42.2,8.3,57.5,22l19.1-5.1c-18.9-20.9-46.2-34-76.6-34   s-57.7,13.1-76.6,34L152.5,88.3z"/>
	<path class="st1" d="M303.7,109l-10.4,21c1.9,7.2,3,14.7,3,22.4c0,17.6-5.3,33.9-14.4,47.6l-25.9-44.8l23.1-7.9l32.5-65.7   l-85.1,22.6L210,75.5l-16.6,28.8l-85.1-22.6l32.5,65.7l23.1,7.9l-25.9,44.8c-9.1-13.6-14.4-30-14.4-47.6c0-7.8,1-15.3,3-22.4   l-10.4-21c-6.1,13.2-9.6,27.9-9.6,43.5c0,57,46.2,103.3,103.3,103.3s103.3-46.2,103.3-103.3C313.3,137,309.9,122.3,303.7,109z    M220.9,238.1L210,219.1l-10.9,18.9c-22.5-2.9-42.4-14.4-56-31.2h57.3l9.7-16.7l9.7,16.7h57.3C263.3,223.6,243.4,235.2,220.9,238.1   z"/>
</g>
</svg>
