<?xml version="1.0" encoding="utf-8"?>
<!-- Generator: Adobe Illustrator 18.0.0, SVG Export Plug-In . SVG Version: 6.00 Build 0)  -->
<!DOCTYPE svg PUBLIC "-//W3C//DTD SVG 1.1//EN" "http://www.w3.org/Graphics/SVG/1.1/DTD/svg11.dtd">
<svg xmlns="http://www.w3.org/2000/svg" xmlns:xlink="http://www.w3.org/1999/xlink" version="1.1" id="Layer_2" x="0px" y="0px" viewBox="0 0 463 326" style="enable-background:new 0 0 463 326;" xml:space="preserve">
<style type="text/css">
	.st0{fill:#00A3E8;}
	.st1{fill:#FFFFFF;stroke:#000000;stroke-width:0.25;stroke-miterlimit:10;}
</style>
<rect class="st0" width="463" height="326"/>
<path class="st1" d="M335,100.5l17.4-42.1c-15.2,0.1-32,2.1-48.2,8.1c-20.2-15.3-45.4-24.3-72.7-24.3  c-66.8,0-120.9,54.1-120.9,120.9c0,18.7,4.3,36.5,11.9,52.3l2.4-0.5c12.7-2.6,23.5-6.3,31.3-10.9c1.9-1.1,3.8-2.4,5.8-3.8  c-5.9-11.1-9.3-23.7-9.3-37.1c0-43.5,35.4-78.9,78.9-78.9c12.2,0,23.7,2.8,34,7.7c-14.2,14-28,32.2-42.3,51.3  c-20.6,27.4-41.8,55.7-62.7,68c-9.5,5.7-21.8,9.5-33.9,11.9l-16.1,43.4c21.1-1.9,48.8-7.2,70.7-20.2c27.9-16.5,51.6-48.1,74.6-78.6  c13.8-18.3,27.9-37.2,40.8-49.1c8.7,12.7,13.8,28,13.8,44.5c0,43.5-35.4,78.9-78.9,78.9c-8.7,0-17-1.4-24.9-4  c-6.8,6-13.8,11.3-21.1,15.6c-6.8,4-14,7.3-21.2,10c19.2,12.9,42.4,20.4,67.2,20.4c66.8,0,120.9-54.1,120.9-120.9  C352.4,140.1,346.1,118.7,335,100.5C335,100.5,335,100.5,335,100.5z"/>
</svg>
