<?xml version="1.0" encoding="utf-8"?>
<!-- Generator: Adobe Illustrator 18.0.0, SVG Export Plug-In . SVG Version: 6.00 Build 0)  -->
<!DOCTYPE svg PUBLIC "-//W3C//DTD SVG 1.1//EN" "http://www.w3.org/Graphics/SVG/1.1/DTD/svg11.dtd">
<svg xmlns="http://www.w3.org/2000/svg" xmlns:xlink="http://www.w3.org/1999/xlink" version="1.1" id="Layer_2" x="0px" y="0px" viewBox="0 0 196 115" style="enable-background:new 0 0 196 115;">
  <style type="text/css">
	.st0{fill:#22B14C;}
	.st1{fill:#fff;}
</style>
  <rect class="st0" width="196" height="115"/>
  <path class="st1" d="M94.9,21.4c-14.8,0-27.5,8.9-33.1,21.6h13.7c4.4-5.9,11.5-9.8,19.4-9.8c13.4,0,24.2,10.9,24.2,24.2  c0,13.4-10.9,24.2-24.2,24.2S70.6,70.9,70.6,57.5c0-4.1,1-7.9,2.8-11.2H60.5c-1.2,3.5-1.8,7.3-1.8,11.2c0,20,16.2,36.1,36.1,36.1  S131,77.5,131,57.5C131,37.5,114.8,21.4,94.9,21.4z"/>
  <path class="st1" d="M137.3,37l-38.7,8.6v-1.2c1.4-1.4,1.1-2.8,0.9-3.7c-0.6-2.2-3.9-3.5-7-3.3s-12.9,7.2-14.1,8.9  c1.5-0.4,5.9-0.3,9.9-0.1v2.7c-6.3,1.4-11,7-11,13.7c0,7.8,6.3,14.1,14.1,14.1s14.1-6.3,14.1-14.1c0-0.5,0-1-0.1-1.6h25.5l3.3-5.6  l-3.1,0l3.5-2.1l0.4-2.1l-4.4,0l4.9-3l0.6-3.5l-7.2,0.3l7.7-3.2L137.3,37z"/>
</svg>
