<?xml version="1.0" encoding="utf-8"?>
<!-- Generator: Adobe Illustrator 18.0.0, SVG Export Plug-In . SVG Version: 6.00 Build 0)  -->
<!DOCTYPE svg PUBLIC "-//W3C//DTD SVG 1.1//EN" "http://www.w3.org/Graphics/SVG/1.1/DTD/svg11.dtd">
<svg xmlns="http://www.w3.org/2000/svg" xmlns:xlink="http://www.w3.org/1999/xlink" version="1.1" id="Layer_2" x="0px" y="0px" viewBox="0 0 788 502" style="enable-background:new 0 0 788 502;" xml:space="preserve">
<style type="text/css">
	.st0{fill:#81007F;}
	.st1{fill:#FFFFFF;stroke:#000000;stroke-width:0.5;stroke-miterlimit:10;}
</style>
<rect class="st0" width="788" height="502"/>
<g>
	<g>
		<path class="st1" d="M349,89.5v76.6h-27.3c0.1-0.1,0.2-0.1,0.2-0.2l-35.4-43.4c-36.2,30.4-59.4,75.8-60,126.6h56    c0.2-9.7,1.6-19.1,4.1-28.1H349V249h43V83.3C377.1,83.5,362.7,85.6,349,89.5z"/>
		<path class="st1" d="M349,281.1h-62.4c-2.5-9-3.9-18.4-4.1-28.1h-56c0.6,50.8,23.8,96.2,60,126.6l35.4-43.4    c-0.1-0.1-0.2-0.1-0.2-0.2H349v76.6c13.7,3.8,28.1,6,43,6.2V253h-43V281.1z"/>
	</g>
	<g>
		<path class="st1" d="M439,89.5v76.6h27.3c-0.1-0.1-0.2-0.1-0.2-0.2l35.4-43.4c36.2,30.4,59.4,75.8,60,126.6h-56    c-0.2-9.7-1.6-19.1-4.1-28.1H439V249h-43V83.3C410.9,83.5,425.3,85.6,439,89.5z"/>
		<path class="st1" d="M439,281.1h62.4c2.5-9,3.9-18.4,4.1-28.1h56c-0.6,50.8-23.8,96.2-60,126.6L466,336.2c0.1-0.1,0.2-0.1,0.2-0.2    H439v76.6c-13.7,3.8-28.1,6-43,6.2V253h43V281.1z"/>
	</g>
</g>
</svg>
