<?xml version="1.0" encoding="utf-8"?>
<!-- Generator: Adobe Illustrator 18.0.0, SVG Export Plug-In . SVG Version: 6.00 Build 0)  -->
<!DOCTYPE svg PUBLIC "-//W3C//DTD SVG 1.1//EN" "http://www.w3.org/Graphics/SVG/1.1/DTD/svg11.dtd">
<svg xmlns="http://www.w3.org/2000/svg" xmlns:xlink="http://www.w3.org/1999/xlink" version="1.1" id="Layer_2" x="0px" y="0px" viewBox="0 0 324 216" style="enable-background:new 0 0 324 216;" xml:space="preserve">
<style type="text/css">
	.st0{fill:#328278;}
	.st1{fill:#FFFFFF;stroke:#000000;stroke-width:0.25;stroke-miterlimit:10;}
</style>
<rect class="st0" width="324" height="216"/>
<path class="st1" d="M202.5,94.4l31.5,30.4V96.9l-17.2-16.6l9.1-8.9l-12.2-13.8l-10.1,9.9l-29.1-28l-0.1-0.1c-7-6.5-17.9-6.5-24.9,0  l-29.2,28.1l-10.1-9.9L98.1,71.5l9.1,8.9L90,96.9v27.8l31.5-30.4l27.4,26.8l-8.3,8.1c-5.6,5.5-9.1,13.2-9.1,21.7  c0,16.8,13.7,30.5,30.5,30.5c16.8,0,30.5-13.7,30.5-30.5c0-8.5-3.5-16.2-9.1-21.7l-8.3-8.1L202.5,94.4z M134.7,81.6L162,55.3  l27.3,26.3L162,108.3L134.7,81.6z M162,163.4c-6.9,0-12.5-5.6-12.5-12.5s5.6-12.5,12.5-12.5s12.5,5.6,12.5,12.5  S168.9,163.4,162,163.4z"/>
</svg>
