<?xml version="1.0" encoding="utf-8"?>
<!-- Generator: Adobe Illustrator 18.0.0, SVG Export Plug-In . SVG Version: 6.00 Build 0)  -->
<!DOCTYPE svg PUBLIC "-//W3C//DTD SVG 1.1//EN" "http://www.w3.org/Graphics/SVG/1.1/DTD/svg11.dtd">
<svg xmlns="http://www.w3.org/2000/svg" xmlns:xlink="http://www.w3.org/1999/xlink" version="1.1" id="Layer_2" x="0px" y="0px" viewBox="0 0 144 107" style="enable-background:new 0 0 144 107;" xml:space="preserve">
<style type="text/css">
	.st0{fill:#004101;}
	.st1{fill:#FBD734;}
</style>
<rect class="st0" width="144" height="107"/>
<g>
	<path class="st1" d="M70.7,43.1c-14,0-25.4,11.3-25.5,25.3c6.3-0.1,13.3-0.3,16.1-0.6c0-4.1,3.4-9,11.2-9c7.8,0,10.4,7.7,10.4,11.6   c0,3.2-2.4,10.2-10.3,12.9c-6.2,2.1-14.2,2.1-17.9-2.3c-0.9-0.1-3.5-0.1-6.4-0.1c4.3,7.9,12.7,13.2,22.4,13.2   c14.1,0,25.5-11.4,25.5-25.5S84.8,43.1,70.7,43.1z"/>
	<path class="st1" d="M98.4,12.9c-20.7,13.8-33.3,32.8-50,16.4c-0.2-0.2-0.4-0.1-0.5,0.2c-1.4,6.9-1.3,11.8,18.4,16.1   C76.2,45,93.2,22,98.8,13.3C98.9,13,98.6,12.8,98.4,12.9z"/>
</g>
</svg>
