<?xml version="1.0" encoding="utf-8"?>
<!-- Generator: Adobe Illustrator 18.0.0, SVG Export Plug-In . SVG Version: 6.00 Build 0)  -->
<!DOCTYPE svg PUBLIC "-//W3C//DTD SVG 1.1//EN" "http://www.w3.org/Graphics/SVG/1.1/DTD/svg11.dtd">
<svg xmlns="http://www.w3.org/2000/svg" xmlns:xlink="http://www.w3.org/1999/xlink" version="1.1" id="Layer_2" x="0px" y="0px" viewBox="0 0 349 250" style="enable-background:new 0 0 349 250;" xml:space="preserve">
<style type="text/css">
	.st0{fill:#FFFFFF;stroke:#000000;stroke-width:0.25;stroke-miterlimit:10;}
	.st1{fill:#B8030F;stroke:#000000;stroke-width:0.25;stroke-miterlimit:10;}
</style>
<rect class="st0" width="349" height="250"/>
<g>
	<path class="st1" d="M186.7,119.5h-24.4v77.2c-30.9-5.9-54.3-33.1-54.3-65.8c0-35.2,27.2-64.1,61.7-66.8V34.8L66.3,25.1   c0,0,8,10.5,10.5,18.7C79.3,52,81,64,81,64l27.4,0.7C91.5,81.7,81,105.1,81,130.9c0,51.8,42.2,94,94,94c4,0,7.9-0.3,11.7-0.7V119.5   z"/>
	<path class="st1" d="M272.2,43.8c2.5-8.2,10.5-18.7,10.5-18.7l-103.4,9.7v29.3c35,2.2,62.7,31.3,62.7,66.8   c0,31.5-21.7,57.8-50.9,65v27.6c44.2-7.6,77.9-46.3,77.9-92.6c0-25.8-10.5-49.3-27.4-66.3L268,64C268,64,269.7,52,272.2,43.8z"/>
</g>
</svg>
