<?xml version="1.0" encoding="utf-8"?>
<!-- Generator: Adobe Illustrator 18.0.0, SVG Export Plug-In . SVG Version: 6.00 Build 0)  -->
<!DOCTYPE svg PUBLIC "-//W3C//DTD SVG 1.1//EN" "http://www.w3.org/Graphics/SVG/1.1/DTD/svg11.dtd">
<svg xmlns="http://www.w3.org/2000/svg" xmlns:xlink="http://www.w3.org/1999/xlink" version="1.1" id="Layer_2" x="0px" y="0px" viewBox="0 0 180 124" style="enable-background:new 0 0 180 124;" xml:space="preserve">
<style type="text/css">
	.st0{fill:#1C0784;}
	.st1{fill:#FFFFFF;}
</style>
<rect class="st0" width="180.5" height="124.5"/>
<path class="st1" d="M90.9,16.8c-13,0-24.7,5.5-33,14.4c-6.6-4.4-11.5-7.6-11.8-7.8c-1.2-0.7-1.9,0.7-1.2,1.6  c0.8,1,36.2,42.8,36.2,42.8c3.6,0,14.1,0,16.4,0c2.4,0,5.2-6.2,1-9.3c-2.6-2-22-14.9-36.4-24.5c7.3-7.5,17.5-12.2,28.8-12.2  c22.2,0,40.2,18,40.2,40.2c0,22.2-18,40.2-40.2,40.2c-19.5,0-35.8-13.9-39.4-32.4h25.6L60.5,48.5L43.8,69.8h2.6  c3.7,21.2,22.3,37.4,44.5,37.4c24.9,0,45.2-20.3,45.2-45.2S115.9,16.8,90.9,16.8z"/>
</svg>
