<?xml version="1.0" encoding="utf-8"?>
<!DOCTYPE svg PUBLIC "-//W3C//DTD SVG 1.1//EN" "http://www.w3.org/Graphics/SVG/1.1/DTD/svg11.dtd">
<svg xmlns="http://www.w3.org/2000/svg" version="1.1" x="0" y="0" viewBox="0 0 412 268">
  <style type="text/css">
	.st0{fill:#0000A0;}
	.st1{fill:#fff;}
</style>
  <rect class="st0" width="412" height="268"/>
  <path class="st1" d="M119.9,63l23.7,25.8c-10.1,12.3-16.2,28-16.2,45.2   c0,39.2,31.8,71,71,71c38.4,0,69.7-30.5,71-68.6h-32.1c-1.6,20-18.4,35.8-38.8,35.8c-21.5,0-39-17.4-39-39s17.4-39,39-39   c9.4,0,18.1,3.3,24.8,8.9l21.6-23C232.3,69.5,216.1,63,198.4,63H119.9z"/>
  <path class="st1" d="M243.4,96.6l1.5,5.4h-5.1H196l-14.2,31.1h11h11h0.1l3.9-8.1   h5.6l-3.9,8.1h0h21.4h0l8.1-17h-27.1l1.5-3.2h34.3l0.9,3.2h-4.1l-8.1,17h0.1h12l3-6.3l1.7,6.3h21.1l-1.8-6.7h6.4h0l3-6.9l1.5-3.4h0   h-13.7l-0.9-3.2H279h5.9h0l7.2-16.4h-0.2h-17.3l1.5,5.4h-10l-1.5-5.4H243.4z"/>
</svg>
