<?xml version="1.0" encoding="utf-8"?>
<!DOCTYPE svg PUBLIC "-//W3C//DTD SVG 1.1//EN" "http://www.w3.org/Graphics/SVG/1.1/DTD/svg11.dtd">
<svg xmlns="http://www.w3.org/2000/svg" version="1.1" x="0" y="0" viewBox="0 0 370 245">
  <style type="text/css">
	.st0{fill:#008C8C;}
	.st1{fill:#fff;}
</style>
  <rect class="st0" width="370" height="245"/>
  <path class="st1" d="M153.8,133h-33.1c1.8,32.8,28,59.1,60.8,60.8v-33.1C167,159.1,155.4,147.5,153.8,133z"/>
  <path class="st1" d="M250.4,75.2l-29.9-24L185,65.5l-35.5-14.3l-29.9,24l20.8,7.9c-11.4,11-18.8,26.1-19.7,42.9h33.1   C155.5,110.3,168.8,98,185,98c17.3,0,31.4,14.1,31.4,31.4c0,16.2-12.2,29.5-27.9,31.2v33.1c34-1.8,60.9-29.9,60.9-64.3   c0-18.2-7.6-34.7-19.8-46.4L250.4,75.2z"/>
</svg>
