<?xml version="1.0" encoding="UTF-8" standalone="no"?>
<!-- Created with Inkscape (http://www.inkscape.org/) -->
<svg
   xmlns:svg="http://www.w3.org/2000/svg"
   xmlns="http://www.w3.org/2000/svg"
   version="1.0"
   width="3000"
   height="2000"
   id="svg4510">
  <defs
     id="defs4512" />
  <g
     transform="translate(0,1760)"
     id="layer1">
    <rect
       width="3000"
       height="2000"
       x="0"
       y="-1760"
       id="rect4518"
       style="fill:#ffffff" />
    <rect
       width="3000"
       height="666.66663"
       x="0"
       y="-1760"
       id="rect4520"
       style="fill:#ed2024" />
    <rect
       width="3000"
       height="666.66663"
       x="0"
       y="-426.66669"
       id="rect4522"
       style="fill:#278e43" />
    <path
       d="M 119.67828,77.78175 L 122.98529,100.95487 L 132.97578,79.786025 L 129.30547,102.90438 L 145.09173,85.62076 L 134.77023,106.63019 L 154.94959,94.767515 L 138.894,111.80124 L 161.67343,106.41356 L 141.31037,117.95806 L 164.66583,119.52409 L 141.80464,124.55358 L 163.66088,132.93418 L 140.33288,131.00177 L 158.74788,145.45228 L 137.02587,136.72968 L 150.36338,155.96611 L 132.17745,141.22836 L 139.25238,163.54147 L 126.21843,144.09807 L 126.40213,167.50525 L 119.67828,145.08384 L 112.95444,167.50525 L 113.13814,144.09807 L 100.10419,163.54147 L 107.17911,141.22835 L 88.993181,155.96611 L 102.33069,136.72968 L 80.608682,145.45228 L 99.023684,131.00177 L 75.695688,132.93418 L 97.551927,124.55358 L 74.690741,119.52409 L 98.046193,117.95805 L 77.683135,106.41356 L 100.46257,111.80124 L 84.406982,94.767513 L 104.58634,106.63019 L 94.264839,85.620759 L 110.0511,102.90438 L 106.38079,79.786024 L 116.37128,100.95486 L 119.67828,77.78175 z"
       transform="matrix(11.114188,0,0,11.14535,169.87305,-2126.9047)"
       id="path4524"
       style="fill:#febd11;fill-opacity:1;fill-rule:evenodd;stroke:none;stroke-width:1;stroke-linecap:square;stroke-linejoin:bevel;stroke-miterlimit:4;stroke-dasharray:none;stroke-dashoffset:0.99999998;stroke-opacity:1" />
  </g>
</svg>
