<?xml version="1.0" encoding="utf-8"?>
<!-- Generator: Adobe Illustrator 18.0.0, SVG Export Plug-In . SVG Version: 6.00 Build 0)  -->
<!DOCTYPE svg PUBLIC "-//W3C//DTD SVG 1.1//EN" "http://www.w3.org/Graphics/SVG/1.1/DTD/svg11.dtd">
<svg version="1.1" id="Layer_2" xmlns="http://www.w3.org/2000/svg" xmlns:xlink="http://www.w3.org/1999/xlink" x="0px" y="0px"
	 width="772px" height="462px" viewBox="0 0 772 462" style="enable-background:new 0 0 772 462;" xml:space="preserve">
<style type="text/css">
	.st0{fill:#000040;}
	.st1{fill:#FFFFFF;stroke:#000000;stroke-width:0.25;stroke-miterlimit:10;}
	.st2{fill:#ED1C24;stroke:#000000;stroke-width:0.25;stroke-miterlimit:10;}
	.st3{fill:#FFFFFF;stroke:#000000;stroke-miterlimit:10;}
</style>
<rect class="st0" width="772" height="462"/>
<g>
	<g>
		<polygon class="st1" points="478.9,176.1 411.2,190.8 386,119.8 360.8,190.8 293.1,176.1 338.8,231 293.1,285.9 360.8,271.2 
			386,342.2 411.2,271.2 478.9,285.9 433.2,231 		"/>
		<polygon class="st2" points="365.3,263.2 311.1,275 347.7,231 311.1,187 365.3,198.8 386,140.3 406.7,198.8 460.9,187 424.3,231 
			460.9,275 406.7,263.2 386,321.7 		"/>
		<rect x="366" y="203.6" class="st1" width="5.5" height="16.4"/>
		<path class="st1" d="M378.2,203.6h-2.5c-1.1,0-2,0.9-2,2v21.6c0,0.5-0.1,1.1-0.4,1.5l-6.8,11.2c-0.3,0.5-0.4,1-0.4,1.5v16.3
			c0,1.1,0.9,2,2,2h2.5c1.1,0,2-0.9,2-2v-16.3c0-0.5,0.1-1.1,0.4-1.5l6.8-11.2c0.3-0.5,0.4-1,0.4-1.5v-21.6
			C380.3,204.5,379.4,203.6,378.2,203.6z"/>
		<path class="st1" d="M378.8,259.8h-2.1c-1.1,0-1.9-0.9-1.9-1.9v-15.4c0-0.4,0.1-0.8,0.3-1.2l5.1-8l0.5,24.5
			C380.8,258.9,379.9,259.8,378.8,259.8z"/>
		<path class="st1" d="M402.4,208.5v-4.4h-4.8v-0.2c0-1.7-1.4-3-3-3H389c-1.7,0-3,1.4-3,3v0.2h-2.7v4.4h2.7v3h-2.7v2.6h2.7v4.2h-2.7
			v2.6h19.2v-0.3c0-1.2-1-2.2-2.2-2.2h-2.6V214h4.8v-2.6h-4.8v-3H402.4z"/>
		<path class="st1" d="M383.3,224.9v33c0,1,0.8,1.8,1.8,1.8h1.2c1,0,1.8-0.8,1.8-1.8v-18.2h11.3v20h6v-34.8H383.3z M390.3,234.5
			c0,0.7-0.6,1.3-1.3,1.3h-2.1c-0.7,0-1.3-0.6-1.3-1.3v-4.5h4.7V234.5z M399.7,234.5c0,0.7-0.6,1.3-1.3,1.3h-4.5
			c-0.7,0-1.3-0.6-1.3-1.3v-3.2c0-0.7,0.6-1.3,1.3-1.3h5.9V234.5z"/>
	</g>
	<path class="st3" d="M272.1,163.3l37.9,8.2c-24-14.2-48-28.3-54.6-32.1c-14.8-8.6-60-32.7-60-32.7L183.7,127
		c0,0,43.5,27.1,58.3,35.6c6.6,3.8,30.7,17.2,54.9,30.6L272.1,163.3z"/>
	<path class="st3" d="M272.1,298.7l24.3-29.2c-23.3,14-46.2,27.7-52.6,31.6c-14.6,8.9-57.4,37.1-57.4,37.1l12.2,19.9
		c0,0,44.6-25.3,59.2-34.2c6.5-4,29.7-18.7,53.1-33.6L272.1,298.7z"/>
	<path class="st3" d="M576.7,106.7c0,0-45.2,24.2-60,32.7c-6.6,3.8-30.6,18-54.6,32.1l37.9-8.2l-24.8,29.8
		c24.3-13.4,48.4-26.8,54.9-30.6c14.8-8.5,58.3-35.6,58.3-35.6L576.7,106.7z"/>
	<path class="st3" d="M528.2,301c-6.3-3.9-29.3-17.6-52.6-31.6l24.3,29.2l-38.7-8.4c23.4,14.9,46.6,29.6,53.1,33.6
		c14.6,8.9,59.2,34.2,59.2,34.2l12.2-19.9C585.6,338.1,542.8,309.9,528.2,301z"/>
	<path class="st3" d="M369.6,142.2L386,95.8l16.4,46.4l12.5-65c0.4-2-1-4-3.1-4.2c-6.8-0.9-20.9-2.5-26.6-2.5
		c-5.4,0-18.6,1.6-25.1,2.5c-2.1,0.3-3.4,2.2-3.1,4.2L369.6,142.2z"/>
	<path class="st3" d="M402.4,319.8L386,366.2l-16.4-46.4l-12.5,65c-0.4,2,1,4,3.1,4.2c6.5,0.9,19.8,2.5,25.1,2.5
		c5.7,0,19.8-1.7,26.6-2.5c2.1-0.3,3.5-2.2,3.1-4.2L402.4,319.8z"/>
</g>
</svg>
