<?xml version="1.0" encoding="utf-8"?>
<!-- Generator: Adobe Illustrator 18.0.0, SVG Export Plug-In . SVG Version: 6.00 Build 0)  -->
<!DOCTYPE svg PUBLIC "-//W3C//DTD SVG 1.1//EN" "http://www.w3.org/Graphics/SVG/1.1/DTD/svg11.dtd">
<svg xmlns="http://www.w3.org/2000/svg" xmlns:xlink="http://www.w3.org/1999/xlink" version="1.1" id="Layer_2" x="0px" y="0px" viewBox="0 0 294 192" style="enable-background:new 0 0 294 192;" xml:space="preserve">
<style type="text/css">
	.st0{fill:#23B14D;}
	.st1{fill:#FFFFFF;}
	.st2{fill:none;stroke:#FFFFFF;stroke-width:3;stroke-linecap:round;stroke-miterlimit:10;}
</style>
<rect class="st0" width="294" height="192"/>
<g>
	<g>
		<path class="st1" d="M153.8,163.6l2.4,1.8c-0.1,0.2-0.5,0.3-0.9,0.4v14.7c0,0-0.6,0.7-2.3,0.7v-1.7h-12.2v1c0,0.1-0.3,0.9-2.2,0.9    v-17.6l2.4,1h11.8L153.8,163.6z M145.8,165.3h-4.9v6.7h4.9V165.3z M140.8,172.3v6.8h4.9v-6.8H140.8z M153.1,165.3H148v6.7h5.1    V165.3z M148,179.1h5.1v-6.8H148V179.1z"/>
	</g>
	<g>
		<path class="st1" d="M107.2,167.9c-0.2,0.2-0.4,0.3-0.9,0.3c-0.6,0.7-1.4,1.3-2.2,1.9c1.7,0.4,3.7,0.7,5.5,0.8v0.3    c-0.8,0.2-1.2,0.8-1.4,1.7c-0.9-0.2-1.7-0.4-2.5-0.6l1.8,1.2c-0.1,0.3-0.4,0.4-0.9,0.4h-3.3v1.5h1.5l0.9-1.1l1.8,1.2    c-0.2,0.3-0.4,0.4-1,0.4h-3.2v1.6h2.6l1.1-1.3l2,1.3c-0.1,0.3-0.4,0.4-1,0.4h-4.7v1.1c0,0.1-0.8,0.5-1.4,0.6c2.4,0,5.3,0,7.8-0.1    v0.3c-0.9,0.2-1.3,0.8-1.4,1.8h-6.8c-3.9,0-5.5-0.6-6.9-3.3c-0.8,1.1-2.1,2.4-3,3.2c0,0.3-0.1,0.4-0.3,0.5l-1.2-2.4    c0.7-0.2,1.6-0.6,2.6-1.1v-5.6h-2.5l-0.1-0.5h2.3l1.1-1.5l2.4,1.9c-0.1,0.2-0.5,0.4-1.1,0.4v4.6c1.4,1.4,2.9,1.6,6.5,1.6v-1.7h-5    l-0.1-0.4h5.1v-1.6h-3.7l-0.1-0.4h3.8v-1.5H97l-0.1-0.4h4.3v-1.7l2.8,0.2c0,0.2-0.1,0.3-0.6,0.4v1h1.4l1-1.2    c-1.2-0.4-2.2-0.8-3.2-1.3c-1.9,0.9-4.2,1.6-6.7,2l-0.1-0.3c2-0.5,3.9-1.4,5.5-2.4c-0.7-0.5-1.3-1.1-1.8-1.7c-1,0.8-2.3,1.5-3.5,2    l-0.2-0.3c1.6-1.1,3.2-3.1,4.1-4.8l2.3,0.7v-1.3h-4.8v1.4c0,0-0.3,0.5-2.2,0.5v-1.9h-5.1l-0.1-0.4h5.2v-2.2l3,0.2    c0,0.3-0.2,0.4-0.8,0.5v1.5h4.8v-2.2l3,0.2c0,0.3-0.2,0.4-0.8,0.5v1.5h2l1.1-1.5l2.2,1.6c-0.2,0.3-0.4,0.4-1,0.4h-4.3v1.3    c0,0-0.1,0.5-2.2,0.5v-0.1c-0.1,0-0.2,0-0.5,0c-0.3,0.3-0.5,0.6-0.9,0.9h3.3l1.2-1.1L107.2,167.9z M90.8,166.2    c2.8,0.3,3.7,1.3,3.7,2.2c0,0.7-0.5,1.2-1.2,1.2c-0.3,0-0.6-0.1-0.9-0.4c-0.2-1-0.9-2.2-1.8-2.9L90.8,166.2z M99.8,168.1    c0.7,0.5,1.5,1,2.5,1.3c0.7-0.5,1.3-1.1,1.8-1.8h-3.7L99.8,168.1z"/>
	</g>
	<g>
		<path class="st1" d="M190.6,167.3l1-1.6l2,1.6c-0.2,0.3-0.5,0.4-1,0.4H190v2.8c2.5,0.8,3.3,2,3.3,2.8c0,0.7-0.5,1.2-1.1,1.2    c-0.3,0-0.6-0.1-0.9-0.5c0-1.1-0.6-2.4-1.3-3.3v10.3c0,0-0.3,0.7-2.2,0.7V173c-0.9,1.6-2,3-3.4,4.2l-0.3-0.3    c1.7-2.5,2.9-5.9,3.4-9.2h-3.1l-0.1-0.4h3.5v-5.2l3,0.3c0,0.3-0.2,0.5-0.8,0.5v4.3H190.6z M194,170.1c2.7,1.2,3.5,2.6,3.5,3.7    c0,0.9-0.6,1.6-1.3,1.6c-0.3,0-0.7-0.1-1-0.5c0.1-1.5-0.6-3.5-1.5-4.7L194,170.1z M202.5,165.7l1.9,1.7c-0.2,0.3-0.4,0.4-1,0.4    h-2.2v11.1c0,1.5-0.4,2.7-3.2,3c0-1.5-0.6-2-2.9-2.2v-0.3h3.4c0.4,0,0.5-0.1,0.5-0.4v-11.1h-4.8l-0.1-0.4h4.9v-5.2l3.1,0.3    c0,0.3-0.1,0.5-0.9,0.6v4.3h0.3L202.5,165.7z"/>
	</g>
</g>
<g>
	<path class="st2" d="M198.8,81.4c-1.5,28.7-24.7,49.9-53.8,49.9c-30.1,0-54.5-24.4-54.5-54.5s24.4-54.5,54.5-54.5   c26.2,0,48,18.4,53.3,43"/>
	<path class="st2" d="M198.8,81.4c-4.6,20.4-26.9,37.8-54.7,37.8c-22.9,0-40.6-19.5-40.6-42.4c0-22.9,19.1-42.9,42-42.9   c16.1,0,30.8,8.4,37.7,21.7"/>
	<path class="st1" d="M200.5,76.8c-4.6,5.5-6.9,8-15.3,14c-0.6,0.4-0.3,1.3,0.4,1.3c3.6,0.2,6.4,0.5,10.1,1.1   c2.7,1.2,4.8,3.8,6.2,5.9c0.5,0.7,1.8,0.4,1.6-0.5C201.8,91.2,200.7,82.6,200.5,76.8z"/>
	<polygon class="st1" points="112.4,22 188.3,70.8 140.6,112 153.2,84.7 107.8,82.7 154.8,68  "/>
</g>
</svg>
