<?xml version="1.0" encoding="utf-8"?>
<!-- Generator: Adobe Illustrator 18.0.0, SVG Export Plug-In . SVG Version: 6.00 Build 0)  -->
<!DOCTYPE svg PUBLIC "-//W3C//DTD SVG 1.1//EN" "http://www.w3.org/Graphics/SVG/1.1/DTD/svg11.dtd">
<svg xmlns="http://www.w3.org/2000/svg" xmlns:xlink="http://www.w3.org/1999/xlink" version="1.1" id="Layer_2" x="0px" y="0px" viewBox="0 0 324 216" style="enable-background:new 0 0 324 216;" xml:space="preserve">
<style type="text/css">
	.st0{fill:#660066;}
	.st1{fill:#FFFFFF;stroke:#000000;stroke-width:0.25;stroke-miterlimit:10;}
</style>
<rect class="st0" width="323.7" height="215.8"/>
<path id="emblem" class="st1" d="M157.8,45.5C125,47.6,99,75,99,108.3c0,31.4,23,57.5,53.1,62.2l0.9-5.3  c-23.6-4.2-41.5-24.8-41.5-49.6c0-22.3,14.5-41.3,34.7-47.9v52.1h11.6V45.5z M166.4,45.5v74.4h11.4V67.8  c20.1,6.6,34.6,25.6,34.6,47.9c0,24.8-17.9,45.4-41.5,49.6l0.9,5.3c30.1-4.7,53.1-30.8,53.1-62.2C225,75,199.1,47.7,166.4,45.5z   M162,122c-16.4,0-31.3,6.5-42.3,17.1c0.6,1,1.2,2.1,1.8,3c11.2-8.7,25.2-13.8,40.4-13.8s29.3,5.2,40.4,13.8c0.6-1,1.3-2,1.8-3  C193.3,128.5,178.4,122,162,122z"/>
</svg>
