<?xml version="1.0" encoding="utf-8"?>
<!-- Generator: Adobe Illustrator 18.0.0, SVG Export Plug-In . SVG Version: 6.00 Build 0)  -->
<!DOCTYPE svg PUBLIC "-//W3C//DTD SVG 1.1//EN" "http://www.w3.org/Graphics/SVG/1.1/DTD/svg11.dtd">
<svg xmlns="http://www.w3.org/2000/svg" xmlns:xlink="http://www.w3.org/1999/xlink" version="1.1" id="Layer_2" x="0px" y="0px" viewBox="0 0 324 216" style="enable-background:new 0 0 324 216;" xml:space="preserve">
<style type="text/css">
	.st0{fill:#005500;}
	.st1{fill:#FFFFFF;stroke:#005500;stroke-width:0.25;stroke-miterlimit:10;}
</style>
<rect class="st0" width="324" height="216"/>
<path class="st1" d="M192.1,104.5c-0.8-14.6-6.3-27.9-15.1-38.4c9-5.8,20.1-5.8,32.7-2.8c-0.9-6.4-8.1-18.5-12.7-20.9  c-12.8,0-24.8,3.7-35,10.1c-10.1-6.4-22.1-10.1-35-10.1c-4.6,2.4-11.8,14.5-12.7,20.9c12.6-3.1,23.7-3.1,32.7,2.8  c-8.8,10.5-14.3,23.8-15.1,38.4c-19.9,10.4-38.7,43.6-34.5,62.2c21.4,11.7,52.9,6.7,64.6-3c11.7,9.7,43.2,14.8,64.6,3  C230.8,148.1,212,114.9,192.1,104.5z M162,78.1c4.8,5.6,8.2,12.4,9.9,19.8c-4.6-1.9-12.5-1.8-19.8,0C153.8,90.5,157.2,83.7,162,78.1  z M116.6,153.5c2.3-11.3,8.7-21.1,17.6-27.8c2.5,9.1,7,17.4,12.8,24.5C138.2,155.9,123.2,155.8,116.6,153.5z M162,138.2  c-5-5.9-8.5-12.9-10.1-20.7c6.7-2.9,15.4-2.2,20.2,0C170.5,125.2,167,132.3,162,138.2z M176.9,150.2c5.9-7.1,10.3-15.4,12.8-24.5  c8.9,6.7,15.3,16.5,17.6,27.8C200.8,155.8,185.8,155.9,176.9,150.2z"/>
</svg>
