<?xml version="1.0" encoding="utf-8"?>
<!-- Generator: Adobe Illustrator 18.0.0, SVG Export Plug-In . SVG Version: 6.00 Build 0)  -->
<!DOCTYPE svg PUBLIC "-//W3C//DTD SVG 1.1//EN" "http://www.w3.org/Graphics/SVG/1.1/DTD/svg11.dtd">
<svg version="1.1" id="Layer_2" xmlns="http://www.w3.org/2000/svg" xmlns:xlink="http://www.w3.org/1999/xlink" x="0px" y="0px"
	 width="544px" height="332px" viewBox="0 0 544 332" style="enable-background:new 0 0 544 332;" xml:space="preserve">
<style type="text/css">
	.st0{fill:#3F48CC;}
	.st1{fill:#FFFFFF;stroke:#000000;stroke-width:0.25;stroke-miterlimit:10;}
</style>
<rect class="st0" width="544" height="332"/>
<g>
	<path class="st1" d="M277.8,64.8v13c46,3,82.5,41.4,82.5,88.2c0,46.8-36.5,85.2-82.5,88.2v13c53.2-3,95.5-47.3,95.5-101.2
		S330.9,67.8,277.8,64.8z"/>
	<path class="st1" d="M277.8,81.9v17c34.5,3,61.5,31.9,61.5,67.1c0,35.2-27.1,64.1-61.5,67.1v17c43.8-3,78.5-39.6,78.5-84.1
		S321.6,84.9,277.8,81.9z"/>
	<path class="st1" d="M170.7,160.2h34.1c2.8-32.5,28.7-58.5,61.3-61.3V64.8C214.8,67.7,173.6,108.9,170.7,160.2z M252.1,84
		c-30.6,7.4-54.7,31.5-62.1,62.1h-4.1c7.6-32.8,33.4-58.7,66.2-66.3V84z"/>
	<path class="st1" d="M266.1,250.1v-17c-32.5-2.8-58.5-28.7-61.3-61.3h-34.1c2.9,51.3,44.1,92.4,95.4,95.4v-13
		c-39.3-2.6-71.6-31-80.2-68.3h4.1C198.5,221,229,247.6,266.1,250.1z"/>
	<path class="st1" d="M317.9,210.9c4.4-4.5,8.1-9.7,11.1-15.3c-9.5-17.8-27.1-30.7-47.9-33.6v-1.3c18.9-2.7,35.2-13.6,45.1-28.9
		c-3.4-5.4-7.6-10.3-12.5-14.4c-6.3,12.8-18.3,22.3-32.7,25.1v-40c-3-0.4-6.1-0.7-9.3-0.7c-3,0-6,0.2-9,0.6v40.1
		c-14.5-2.9-26.5-12.4-32.8-25.3c-4.9,4.1-9.1,9-12.5,14.4c9.9,15.5,26.3,26.5,45.3,29.2v1.3c-20.9,3-38.6,16-48.1,33.9
		c3.3,6.3,7.6,11.9,12.7,16.8c2.8-16.3,18.6-28.9,35.4-32.4v13.9h-18.9v15.3h18.9v20.3c2.9,0.4,5.9,0.6,9,0.6c3.2,0,6.3-0.2,9.3-0.7
		v-20.3h18.9v-15.3H281v-13.8C297,183.9,313.2,196,317.9,210.9z"/>
</g>
</svg>
