<?xml version="1.0" encoding="utf-8"?>
<!-- Generator: Adobe Illustrator 18.0.0, SVG Export Plug-In . SVG Version: 6.00 Build 0)  -->
<!DOCTYPE svg PUBLIC "-//W3C//DTD SVG 1.1//EN" "http://www.w3.org/Graphics/SVG/1.1/DTD/svg11.dtd">
<svg xmlns="http://www.w3.org/2000/svg" xmlns:xlink="http://www.w3.org/1999/xlink" version="1.1" id="Layer_2" x="0px" y="0px" viewBox="0 0 171 110" style="enable-background:new 0 0 171 110;" xml:space="preserve">
<style type="text/css">
	.st0{fill:#002B99;}
	.st1{fill:#FFFFFF;stroke:#000000;stroke-width:0.25;stroke-miterlimit:10;}
</style>
<rect class="st0" width="171" height="110"/>
<g>
	<path class="st1" d="M114.5,61.6c-3,13.2-14.8,23.1-29,23.1s-25.9-9.9-29-23.1h-9c3.1,18.1,18.9,31.9,37.9,31.9   c19,0,34.8-13.8,37.9-31.9H114.5z"/>
	<path class="st1" d="M56.5,48.4c3-13.2,14.8-23.1,29-23.1s25.9,9.9,29,23.1h9c-3.1-18.1-18.9-31.9-37.9-31.9   c-19,0-34.8,13.8-37.9,31.9H56.5z"/>
	<path class="st1" d="M69.2,48.4c2.6-6.4,8.9-11,16.3-11s13.7,4.6,16.3,11h9.3C108.1,37,97.8,28.6,85.5,28.6S62.9,37,59.9,48.4H69.2   z"/>
	<path class="st1" d="M101.8,61.6c-2.6,6.4-8.9,11-16.3,11s-13.7-4.6-16.3-11h-9.3C62.9,73,73.2,81.4,85.5,81.4s22.6-8.4,25.6-19.8   H101.8z"/>
	<rect x="47.5" y="50.6" class="st1" width="75.9" height="8.8"/>
</g>
</svg>
