<?xml version="1.0" encoding="utf-8"?>
<!-- Generator: Adobe Illustrator 18.0.0, SVG Export Plug-In . SVG Version: 6.00 Build 0)  -->
<!DOCTYPE svg PUBLIC "-//W3C//DTD SVG 1.1//EN" "http://www.w3.org/Graphics/SVG/1.1/DTD/svg11.dtd">
<svg version="1.1" xmlns="http://www.w3.org/2000/svg" xmlns:xlink="http://www.w3.org/1999/xlink" x="0px" y="0px" width="900px"
	 height="600px" viewBox="0 0 900 600" style="enable-background:new 0 0 900 600;" xml:space="preserve">
<style type="text/css">
	.st0{fill:#004227;}
	.st1{fill:#FFD700;stroke:#000000;stroke-width:0.25;stroke-miterlimit:10;}
</style>
<g id="svg2" xmlns:svg="http://www.w3.org/2000/svg">
	<rect id="rect2415" class="st0" width="900" height="600"/>
</g>
<g id="Layer_2">
	<g>
		<path class="st1" d="M478,286.1c1.4,3.1,4.7,5.5,8.5,6c2.9,0.4,7.3-0.1,11.5-5.1c2.4-2.8,5.2-6.4,8.1-10.5L449,156.9l-17.7,27.9
			C444.7,213.8,474.6,278.7,478,286.1z"/>
		<path class="st1" d="M514,265.5c3.5-5,7-10.2,10.2-15.2l-40.7-84.7l-8.9,17.5L514,265.5z"/>
		<path class="st1" d="M536,254.3c-9.4,14.3-21.1,31.4-28.9,40.6c-5.2,6.1-12,9.4-19.1,9.4c-9.1,0-17.9-6.3-21-13.2
			c-3.1-6.9-52.6-114.4-52.9-115L273.5,434.8l123-61.5l75.4,57c7.8,5.9,18.9,4.3,24.7-3.6l36-49.1l92,63.4L536,254.3z"/>
	</g>
</g>
</svg>
