<?xml version="1.0" encoding="utf-8"?>
<!-- Generator: Adobe Illustrator 18.0.0, SVG Export Plug-In . SVG Version: 6.00 Build 0)  -->
<!DOCTYPE svg PUBLIC "-//W3C//DTD SVG 1.1//EN" "http://www.w3.org/Graphics/SVG/1.1/DTD/svg11.dtd">
<svg version="1.1" id="Layer_2" xmlns="http://www.w3.org/2000/svg" xmlns:xlink="http://www.w3.org/1999/xlink" x="0px" y="0px"
	 width="407px" height="246px" viewBox="0 0 407 246" style="enable-background:new 0 0 407 246;" xml:space="preserve">
<style type="text/css">
	.st0{fill:#880015;}
	.st1{fill:#FFFFFF;stroke:#000000;stroke-width:0.25;stroke-miterlimit:10;}
</style>
<rect class="st0" width="407" height="246"/>
<g>
	<path class="st1" d="M208.6,69.4c-0.5-3.3-0.8-6.7-1-10.2l-4.3-1.7l-3.9,1.5c-0.2,3.4-0.5,6.8-1,10.2l4.8-1.9L208.6,69.4z"/>
	<path class="st1" d="M212,86.5c-1.2-4.4-2.2-9-2.9-13.6l-5.8-2.3l-5.3,2.1c-0.7,4.7-1.7,9.2-2.9,13.6l8.3-3.3L212,86.5z"/>
	<path class="st1" d="M270.5,173.9l0.7-4.5c-2.9-1.9-5.6-3.9-8.3-5.9L262,169l-4.2,3.3c3.1,1.3,6.2,2.7,9.3,4.2L270.5,173.9z"/>
	<path class="st1" d="M254.5,171.1l4.7-3.7l0.9-6.1c-3.7-3-7.1-6.1-10.3-9.4l-1.3,9.3l-7.1,5.6C245.7,168,250.1,169.4,254.5,171.1z"
		/>
	<path class="st1" d="M199.5,56.9l3.8-1.5l4.2,1.7c-0.1-2.7-0.1-5.4-0.1-8.2c-3.4-1.3-2.2-1.2-3.9-2.9c-1.7,1.7-0.5,1.6-3.9,2.9
		C199.6,51.6,199.6,54.2,199.5,56.9z"/>
	<path class="st1" d="M136.1,173.9l3.6,2.8c3.1-1.6,6.2-3,9.3-4.2l-4.4-3.4l-0.8-5.3c-2.7,2.1-5.4,4-8.3,5.9L136.1,173.9z"/>
	<path class="st1" d="M280.1,174.8c-2.5-1.4-4.8-2.8-7.2-4.2l-0.6,4.4l-3.3,2.6c2.4,1.3,4.8,2.6,7.2,4c2.8-2.3,2.2-1.3,4.5-1.9
		C280.1,177.4,279.5,178.4,280.1,174.8z"/>
	<path class="st1" d="M158.1,161.2l-1.3-8.9c-3.2,3.2-6.7,6.4-10.3,9.3l0.8,5.8l4.8,3.8c4.4-1.7,8.8-3.1,13.3-4.3L158.1,161.2z"/>
	<path class="st1" d="M134.2,175l-0.6-4.1c-2.2,1.4-4.4,2.7-6.7,4c0.6,3.6,0.1,2.5-0.6,4.8c2.3,0.6,1.6-0.4,4.5,1.9
		c2.3-1.4,4.6-2.7,6.9-3.9L134.2,175z"/>
	<g>
		<path class="st1" d="M212.7,81c25.8,4.5,45.5,27,45.5,54.1c0,6.7-1.2,13-3.4,18.9c2.6,2.4,5.2,4.7,8,6.9
			c3.4-7.9,5.4-16.6,5.4-25.8c0-33.3-25.1-60.7-57.4-64.5C211.3,74.1,211.9,77.6,212.7,81z"/>
		<path class="st1" d="M151.8,154.3c-2.2-6-3.5-12.5-3.5-19.2c0-27.3,19.9-49.9,45.9-54.2c0.8-3.4,1.4-6.9,1.9-10.4
			c-32.5,3.5-57.9,31.1-57.9,64.5c0,9.3,2,18.1,5.5,26.1C146.6,159,149.2,156.7,151.8,154.3z"/>
		<path class="st1" d="M245.6,170.1c-10.1,12.2-25.3,19.9-42.3,19.9c-17,0-32.1-7.7-42.2-19.8c-3.4,1-6.7,2.2-9.9,3.5
			c11.8,15.9,30.8,26.3,52.2,26.3c21.4,0,40.4-10.4,52.3-26.4C252.3,172.3,249,171.1,245.6,170.1z"/>
	</g>
	<path class="st1" d="M235.5,135.1L235.5,135.1c-3-4.2-5.9-8.7-8.7-13.4c0,0,0,0,0-0.1c0,0,0,0,0-0.1c-2.7-4.7-5.1-9.5-7.2-14.3
		l0,0.1c-2.3-5.1-4.3-10.5-6-16l-10.2-4.1l-9.7,3.9c-1.7,5.6-3.8,11-6.1,16.2l0-0.1c-2.1,4.8-4.5,9.6-7.2,14.3c0,0,0,0,0,0.1
		c0,0,0,0,0,0.1c-2.7,4.7-5.7,9.2-8.7,13.4h0.1c-3.4,4.7-7.1,9.2-11.1,13.5l1.5,10.4l8.4,6.7c5.7-1.3,11.5-2.3,17.2-2.8l0,0.1
		c5.2-0.5,10.5-0.9,16-0.9c0,0,0.1,0,0.1,0c0,0,0.1,0,0.1,0c5.4,0,10.8,0.3,16,0.9l0-0.1c5.6,0.6,11.2,1.5,16.8,2.8l8.3-6.6
		l1.6-10.8C242.4,144,238.8,139.6,235.5,135.1z M201.9,160c-10.2-0.6-18.4-9.8-18.4-20.9c0-2.5,0.4-4.9,1.2-7.2H183l-1.8-7.9h18.9
		l-3.7,7.9c-2,1.7-3.3,4.3-3.3,7.2c0,5,3.9,9,8.8,9.4V160z M222.5,133h-0.9c0.6,1.9,0.9,4,0.9,6.1c0,11.5-8.6,20.8-19.2,21v-11.6
		c4.9-0.4,8.8-4.4,8.8-9.4c0-2.3-0.9-4.4-2.3-6.1h-3.6l1.3,4.1c0,0,0.4,1.5,0.4,2.3c0,3-2.4,5.4-5.4,5.4c-3,0-5.4-2.4-5.4-5.4
		c0-0.8,0.4-2.3,0.4-2.3l5-15.3l2.8,8.7l3.1-6.5h17.3L222.5,133z"/>
</g>
</svg>
