<?xml version="1.0" encoding="utf-8"?>
<!-- Generator: Adobe Illustrator 18.0.0, SVG Export Plug-In . SVG Version: 6.00 Build 0)  -->
<!DOCTYPE svg PUBLIC "-//W3C//DTD SVG 1.1//EN" "http://www.w3.org/Graphics/SVG/1.1/DTD/svg11.dtd">
<svg xmlns="http://www.w3.org/2000/svg" xmlns:xlink="http://www.w3.org/1999/xlink" version="1.1" id="Layer_2" x="0px" y="0px" viewBox="0 0 287 215" style="enable-background:new 0 0 287 215;" xml:space="preserve">
<style type="text/css">
	.st0{fill:#21409A;}
	.st1{fill:#FFFFFF;}
</style>
<rect class="st0" width="287" height="215"/>
<g>
	<path class="st1" d="M138.5,43.5c-91.4,31.3-96.9,94.3-67.2,115.6c37,26.6,143.5,13.8,160.6-71C175.4,166.1,44.8,127.9,138.5,43.5z   "/>
	<circle class="st1" cx="144.4" cy="97.2" r="20.5"/>
	<path class="st1" d="M178,72.2c0.9-0.9,1.9-1.5,3.2-1.6l8.9-0.7l-8.9-0.7c-1.2-0.1-2.3-0.8-3.2-1.6c0,0,0,0,0,0   c-0.9-0.9-1.5-1.9-1.6-3.2l-0.7-8.9l-0.7,8.9c-0.1,1.2-0.8,2.3-1.6,3.2c0,0,0,0,0,0c-0.9,0.9-1.9,1.5-3.2,1.6l-8.9,0.7l8.9,0.7   c1.2,0.1,2.3,0.8,3.2,1.6c0,0,0,0,0,0c0.9,0.9,1.5,1.9,1.6,3.2l0.7,8.9l0.7-8.9C176.4,74.2,177.1,73.1,178,72.2   C177.9,72.2,178,72.2,178,72.2z"/>
</g>
</svg>
