<?xml version="1.0" encoding="utf-8"?>
<!-- Generator: Adobe Illustrator 18.0.0, SVG Export Plug-In . SVG Version: 6.00 Build 0)  -->
<!DOCTYPE svg PUBLIC "-//W3C//DTD SVG 1.1//EN" "http://www.w3.org/Graphics/SVG/1.1/DTD/svg11.dtd">
<svg xmlns="http://www.w3.org/2000/svg" xmlns:xlink="http://www.w3.org/1999/xlink" version="1.1" id="Layer_2" x="0px" y="0px" viewBox="0 0 180 114" style="enable-background:new 0 0 180 114;" xml:space="preserve">
<style type="text/css">
	.st0{fill:#FFFFFF;stroke:#000000;stroke-width:0.25;stroke-miterlimit:10;}
	.st1{fill:#00AA33;stroke:#000000;stroke-width:0.25;stroke-miterlimit:10;}
</style>
<rect class="st0" width="180" height="114"/>
<g>
	<path class="st1" d="M90,17c-22.1,0-40,17.9-40,40c0,10.3,3.9,19.7,10.3,26.7l15.4-22.6c-2.6-3.2-4.2-7.3-4.2-11.8   c0-10.2,8.3-18.5,18.5-18.5s18.5,8.3,18.5,18.5c0,5.3-2.2,10.1-5.8,13.4l16.1,21.9c6.9-7.2,11.2-17,11.2-27.7   C130,34.9,112.1,17,90,17z"/>
	<path class="st1" d="M64.3,87.7c2.3,2,4.9,3.6,7.7,5l23.2-32.8L89.4,52L64.3,87.7z"/>
	<path class="st1" d="M99.8,66.2l-21.9,29c3.7,1.2,7.6,1.8,11.7,1.8l10.2-13.2l7.3,9.4c3.1-1.5,5.9-3.3,8.5-5.5L99.8,66.2z"/>
</g>
</svg>
