<?xml version="1.0" encoding="utf-8"?>
<!-- Generator: Adobe Illustrator 18.0.0, SVG Export Plug-In . SVG Version: 6.00 Build 0)  -->
<!DOCTYPE svg PUBLIC "-//W3C//DTD SVG 1.1//EN" "http://www.w3.org/Graphics/SVG/1.1/DTD/svg11.dtd">
<svg xmlns="http://www.w3.org/2000/svg" xmlns:xlink="http://www.w3.org/1999/xlink" version="1.1" id="Layer_2" x="0px" y="0px" viewBox="0 0 121 72" style="enable-background:new 0 0 121 72;" xml:space="preserve">
<style type="text/css">
	.st0{fill:#FFFFFF;stroke:#000000;stroke-width:0.25;stroke-miterlimit:10;}
	.st1{fill:#2E3192;stroke:#000000;stroke-width:0.25;stroke-miterlimit:10;}
</style>
<rect class="st0" width="121" height="72"/>
<path class="st1" d="M70.9,34.5c0.7,1.5,1.2,3.2,1.2,5c0,6.2-5.1,11.3-11.3,11.3s-11.3-5.1-11.3-11.3s5.1-11.3,11.3-11.3  c0.4,0,0.8,0,1.1,0.1l-4.5,3.6c-1.4,0.4-4.1,0.6-3.4,2.5s5,3.6,6.6,3.6c1.1,0,4.8-2,7.6-3.8l4-2.5l0,0l17.6-11.3H65.6l-4.8-6.1  l-4.8,6.1H31.3l14.2,9.1c-1.9,2.9-3,6.3-3,10.1c0,10.1,8.2,18.3,18.3,18.3s18.3-8.2,18.3-18.3c0-3.2-0.8-6.2-2.2-8.8L70.9,34.5z"/>
</svg>
