<?xml version="1.0" encoding="utf-8"?>
<!DOCTYPE svg PUBLIC "-//W3C//DTD SVG 1.1//EN" "http://www.w3.org/Graphics/SVG/1.1/DTD/svg11.dtd">
<svg xmlns="http://www.w3.org/2000/svg" version="1.1" x="0" y="0" viewBox="0 0 368 234">
  <style type="text/css">
	.st0{fill:#fff;}
	.st1{fill:#006;}
</style>
  <rect class="st0" width="368" height="234"/>
  <path class="st1" d="M184,36.6c-39.6,0-71.8,32.1-71.8,71.8c0,34.5,24.4,63.4,56.9,70.2c2.9-3.5,5.2-8.1,6.6-14.5   c-20-3.9-35.1-21.5-35.1-42.6c0-24,19.4-43.4,43.4-43.4s43.4,19.4,43.4,43.4c0,17.8-10.7,33-26,39.7l8.3,14.1   c27-10.3,46.1-36.4,46.1-67C255.8,68.8,223.6,36.6,184,36.6z"/>
  <path class="st1" d="M182.9,141.5c2.3,41.2-14.5,46-28.5,55.8c15.7-5.1,51-17.2,51-17.2L182.9,141.5z"/>
</svg>
