<?xml version="1.0" encoding="utf-8"?>
<!-- Generator: Adobe Illustrator 18.0.0, SVG Export Plug-In . SVG Version: 6.00 Build 0)  -->
<!DOCTYPE svg PUBLIC "-//W3C//DTD SVG 1.1//EN" "http://www.w3.org/Graphics/SVG/1.1/DTD/svg11.dtd">
<svg xmlns="http://www.w3.org/2000/svg" xmlns:xlink="http://www.w3.org/1999/xlink" version="1.1" id="Layer_2" x="0px" y="0px" viewBox="0 0 324 216" style="enable-background:new 0 0 324 216;" xml:space="preserve">
<style type="text/css">
	.st0{fill:#000044;}
	.st1{fill:#FFFFFF;stroke:#000000;stroke-width:0.5;stroke-miterlimit:10;}
</style>
<rect class="st0" width="324" height="216"/>
<g>
	<polygon class="st1" points="148.4,49.6 175.4,49.6 175.4,105.4 190.6,131.5 190.4,34.6 134.4,34.6 134.4,98.1 148.4,89.9  "/>
	<polygon class="st1" points="160.6,116.6 149.4,116.6 149.4,111.5 134.4,120.1 134.4,130.9 159.9,130.9 166,126.5  "/>
	<polygon class="st1" points="145.7,140.8 110.5,161.4 97.4,138.9 147.4,108.7 160.9,84.5 77.6,133 105.7,181.4 160.7,149.4  "/>
	<polygon class="st1" points="169.9,108.2 163,117.4 168.9,128.6 165.8,130.9 178.8,138.4 188.3,132.9 175,110.7  "/>
	<polygon class="st1" points="192.2,101.3 192.2,117.7 227.2,137.5 213.3,160.8 164.8,133 136.9,133 218.5,180 246.4,131.5  "/>
	<polygon class="st1" points="163.8,85.5 152,106.5 152,114.5 162.5,114.5 169,104.6 172.9,106.9 172.9,90.6  "/>
</g>
</svg>
