<?xml version="1.0" encoding="utf-8"?>
<!-- Generator: Adobe Illustrator 18.0.0, SVG Export Plug-In . SVG Version: 6.00 Build 0)  -->
<!DOCTYPE svg PUBLIC "-//W3C//DTD SVG 1.1//EN" "http://www.w3.org/Graphics/SVG/1.1/DTD/svg11.dtd">
<svg xmlns="http://www.w3.org/2000/svg" xmlns:xlink="http://www.w3.org/1999/xlink" version="1.1" x="0px" y="0px" viewBox="0 0 324 216" style="enable-background:new 0 0 324 216;" xml:space="preserve">
<style type="text/css">
	.st0{fill:#FFD700;}
</style>
<g id="Layer_1">
	<rect class="st0" width="324" height="216"/>
</g>
<g id="Layer_2">
	<path d="M284.7,173.4c-9.5-39.3-36.1-97.4-57-111.2c-5-3.3-11.7,0.5-11.7,6.5v0.5c0,12.4-10,22.4-22.4,22.4h0   c-12.4,0-22.4-10-22.4-22.4V33.6H162h-9.1v34.9c0,12.4-9.7,23-22,23.2c-12.6,0.2-22.9-9.9-22.9-22.4v-0.5c0-6-6.7-9.9-11.7-6.5   c-20.9,13.8-47.4,71.9-57,111.2c-1.7,7.1,7,12,12.2,6.9c44.9-44,75-51.9,110.5-51.9c35.4,0,65.6,7.9,110.5,51.9   C277.7,185.4,286.4,180.5,284.7,173.4z"/>
</g>
</svg>
