<?xml version="1.0" encoding="utf-8"?>
<!-- Generator: Adobe Illustrator 18.0.0, SVG Export Plug-In . SVG Version: 6.00 Build 0)  -->
<!DOCTYPE svg PUBLIC "-//W3C//DTD SVG 1.1//EN" "http://www.w3.org/Graphics/SVG/1.1/DTD/svg11.dtd">
<svg version="1.1" id="Layer_2" xmlns="http://www.w3.org/2000/svg" xmlns:xlink="http://www.w3.org/1999/xlink" x="0px" y="0px"
	 width="407px" height="246px" viewBox="0 0 407 246" style="enable-background:new 0 0 407 246;" xml:space="preserve">
<style type="text/css">
	.st0{fill:#005E00;}
	.st1{fill:#FFFFFF;}
	.st2{fill:none;stroke:#000000;stroke-width:4;stroke-linejoin:round;}
	.st3{fill:none;stroke:#FEFE00;stroke-width:3.5;}
	.st4{fill:none;stroke:#FEFE00;stroke-width:2;stroke-linejoin:round;stroke-miterlimit:10;}
	.st5{fill:#FEFE00;stroke:#FFFFFF;}
</style>
<rect class="st0" width="407" height="246"/>
<g transform="translate(0,7.0866276)">
	<g>
		<path class="st1" d="M203.5,45.9c-41.7,24.6-69.7,69.7-70.2,121.5c20.7,11.7,44.7,18.5,70.2,18.5s49.4-6.7,70.1-18.5
			C273.2,115.7,245.2,70.5,203.5,45.9z"/>
		<path class="st2" d="M203.5,45.9c-41.7,24.6-69.7,69.7-70.2,121.5c20.7,11.7,44.7,18.5,70.2,18.5s49.4-6.7,70.1-18.5
			C273.2,115.7,245.2,70.5,203.5,45.9z"/>
		<path class="st3" d="M203.5,45.9c-41.7,24.6-69.7,69.7-70.2,121.5c20.7,11.7,44.7,18.5,70.2,18.5s49.4-6.7,70.1-18.5
			C273.2,115.7,245.2,70.5,203.5,45.9z"/>
	</g>
	<g>
		<path class="st0" d="M193.5,178.4c-0.2,0-0.4-0.1-0.5-0.3c-0.1-0.2-0.2-0.4-0.1-0.6c1.6-6.8,2.6-14.6,2.8-21
			c-0.6,0.6-1.1,1.3-1.7,1.9c-3.5,4-6.1,6.9-13.5,6.9c-6.3,0-15-5.8-15-16.7c0-0.3,0-2.9,0.8-5.8c-9.2-2.8-13.8-8.9-13.8-18
			c0-11,9.7-15.9,19.4-15.9c3,0,5.9,0.5,8.5,1.3c-4.8-6.2-7.6-12.9-7.6-18.3c0-9.2,9.7-15.7,18.4-15.7c5.4,0,9.1,3.2,12.1,6.3
			c3.4-4.4,7.9-6.6,13.6-6.6c8,0,16,5.4,16,17.3c0,6.6-3.3,12.4-7.1,18.2c1.7-0.3,3.6-0.4,5.5-0.4c4.4,0,18.6,1,18.6,14.3
			c0,9.9-4.5,13-10,15.5c1.1,2.1,2.2,4.5,2.2,7.3c0,6.9-5.7,16.5-16.3,16.5c-7.1,0-11.8-3.5-16.7-7.1c-0.9-0.6-1.7-1.3-2.6-1.9
			c1.3,7.4,2.4,13.3,6.2,21.7c0.1,0.2,0.1,0.5-0.1,0.7c-0.1,0.2-0.4,0.3-0.6,0.3C212,178.5,193.5,178.4,193.5,178.4z"/>
		<path d="M217,76.7c7.7,0,15.3,5.1,15.3,16.6c0,7.2-4.2,13.7-8,19.3c2-0.5,4.5-0.8,7-0.8c8.4,0,17.9,3.2,17.9,13.6
			c0,9.7-4.2,12.5-10.3,15.2c1.5,2.5,2.5,5,2.5,7.7c0,6.3-5.1,15.8-15.6,15.8c-8.7,0-13.6-5.4-20.3-9.9c1.4,8.1,2.4,14.4,6.6,23.6
			l-18.5-0.2c1.7-7.2,2.8-16,2.8-22.9c-5.6,5.8-7.1,9.9-15.8,9.9c-5.9,0-14.3-5.6-14.3-16c0-1.1,0.2-3.8,1-6.3
			c-8.3-2.4-14-7.6-14-17.5c0-10.3,9.2-15.2,18.7-15.2c3.7,0,7.5,0.7,10.7,2.2c-5.4-6.2-9.1-13.8-9.1-19.9c0-8.9,9.5-15,17.7-15
			c5.4,0,9.1,3.4,12.2,6.7C207.1,78.6,211.9,76.7,217,76.7 M217,75.3c-5.6,0-10.2,2.1-13.6,6.2c-3.2-3.2-7-6-12.1-6
			c-9,0-19.1,6.7-19.1,16.4c0,5.1,2.4,11.2,6.5,17.1c-2.2-0.5-4.4-0.8-6.8-0.8c-10,0-20.1,5.1-20.1,16.6c0,9.1,4.7,15.5,13.7,18.4
			c-0.7,2.7-0.7,5-0.7,5.3c0,11.4,9.1,17.4,15.7,17.4c7.7,0,10.3-3,14-7.2c0.1-0.1,0.2-0.3,0.4-0.4c-0.3,5.9-1.3,12.8-2.7,18.9
			c-0.1,0.4,0,0.8,0.3,1.2c0.3,0.3,0.7,0.5,1.1,0.5l18.5,0.2c0,0,0,0,0,0c0.5,0,0.9-0.2,1.2-0.6c0.3-0.4,0.3-0.9,0.1-1.3
			c-3.5-7.7-4.7-13.3-5.9-19.9c0.4,0.3,0.8,0.6,1.2,0.9c5,3.7,9.7,7.2,17.1,7.2c11.1,0,17-10,17-17.2c0-2.7-0.9-5-1.9-7
			c5.4-2.6,9.7-6,9.7-15.8c0-9.4-7.2-15-19.3-15c-1.4,0-2.7,0.1-4,0.2c3.5-5.5,6.4-11,6.4-17.3C233.7,80.9,225.3,75.3,217,75.3
			L217,75.3z"/>
		<path class="st4" d="M193.5,177.7c1.7-7.2,2.8-16,2.8-22.9c-5.6,5.8-7.1,9.9-15.8,9.9c-5.9,0-14.3-5.6-14.3-16
			c0-1.1,0.2-3.8,1-6.3c-8.3-2.4-14-7.6-14-17.5c0-14.3,17.8-18.1,29.4-13c-5.4-6.2-9.1-13.8-9.1-19.9c0-8.9,9.5-15,17.7-15
			c5.4,0,9.1,3.4,12.2,6.7c3.6-5.1,8.4-7,13.5-7c7.7,0,15.3,5.1,15.3,16.6c0,7.2-4.2,13.7-8,19.3c8.7-2,24.8-0.7,24.8,12.8
			c0,9.7-4.2,12.5-10.3,15.2c1.5,2.5,2.5,5,2.5,7.7c0,6.3-5.1,15.8-15.6,15.8c-8.7,0-13.6-5.4-20.3-9.9c1.4,8.1,2.4,14.4,6.6,23.6
			L193.5,177.7z"/>
	</g>
	<path class="st5" d="M200.3,133.9c1.2,0,2.1-1,2.1-2.1v-8.5c0-1.2-1-2.1-2.1-2.1h-13.8c-1.2,0-2.1,1-2.1,2.1v8.5
		c0,1.2,1,2.1,2.1,2.1h2c-0.4,4.6-2.2,7.3-6.4,9.9c-1,0.6-1.3,1.9-0.7,2.9c0.4,0.6,1.1,1,1.8,1c0.4,0,0.8-0.1,1.1-0.3
		c2.8-1.8,4.9-3.7,6.2-6.1h7.5c-0.1,3.3-0.3,4.9-1.5,6.1l-2.1-0.7c-1.1-0.4-2.3,0.2-2.7,1.3c-0.4,1.1,0.2,2.3,1.3,2.7l3.2,1.1
		c0.2,0.1,0.4,0.1,0.7,0.1c0.4,0,0.8-0.1,1.2-0.4c4.1-2.8,4.1-6.8,4.1-12.4c0-1.2-1-2.1-2.1-2.1h-8c0.2-1,0.4-2.1,0.5-3.2H200.3z
		 M188.6,125.4h9.6v4.3h-7.4c0,0,0,0,0,0c0,0,0,0,0,0h-2.1V125.4z"/>
	<path class="st5" d="M210.9,141.4c-1.2,0-2.1-1-2.1-2.1v-14.9c0-1.2,1-2.1,2.1-2.1c1.2,0,2.1,1,2.1,2.1v14.9
		C213.1,140.4,212.1,141.4,210.9,141.4z"/>
	<path class="st5" d="M212.3,151.2c-0.8,0-1.6-0.5-1.9-1.2c-0.5-1.1,0-2.3,1-2.8c3.4-1.6,7-4.2,7-6.8v-15.9c0-1.2,1-2.1,2.1-2.1
		c1.2,0,2.1,1,2.1,2.1v15.9c0,5.7-6.6,9.4-9.5,10.7C212.9,151.1,212.6,151.2,212.3,151.2z"/>
	<path class="st5" d="M223.7,88h-39.3c-1.2,0-2.1,1-2.1,2.1s1,2.1,2.1,2.1h14.9v3.2h-11.7c-1.2,0-2.1,1-2.1,2.1v8.5
		c0,1.2,1,2.1,2.1,2.1c0,0,0,0,0,0H199c-1.4,3.5-9.5,6.4-14.6,6.4c-1.2,0-2.1,1-2.1,2.1c0,1.2,1,2.1,2.1,2.1c5,0,13.2-2.2,17-6.6
		c3.2,3.5,9.7,5.5,15.9,5.5c1.2,0,2.1-1,2.1-2.1s-1-2.1-2.1-2.1c-6.5,0-12.4-2.4-13.6-5.3h14.6c1.2,0,2.1-1,2.1-2.1v-8.5
		c0-1.2-1-2.1-2.1-2.1c0,0,0,0,0,0h-14.9v-3.2h20.2c1.2,0,2.1-1,2.1-2.1S224.9,88,223.7,88z M199.3,105h-9.6v-1.6h9.6V105z
		 M199.3,100.2h-9.6v-1.6h9.6V100.2z M203.5,105v-1.6h12.8v1.6H203.5z M216.3,98.6v1.6h-12.8v-1.6H216.3z"/>
</g>
</svg>
