<?xml version="1.0" encoding="UTF-8" standalone="no"?>
<!-- Created with Inkscape (http://www.inkscape.org/) -->
<svg
   xmlns:dc="http://purl.org/dc/elements/1.1/"
   xmlns:cc="http://web.resource.org/cc/"
   xmlns:rdf="http://www.w3.org/1999/02/22-rdf-syntax-ns#"
   xmlns:svg="http://www.w3.org/2000/svg"
   xmlns="http://www.w3.org/2000/svg"
   xmlns:sodipodi="http://sodipodi.sourceforge.net/DTD/sodipodi-0.dtd"
   xmlns:inkscape="http://www.inkscape.org/namespaces/inkscape"
   width="200.00002"
   height="134.54823"
   id="svg2"
   sodipodi:version="0.32"
   inkscape:version="0.45.1"
   sodipodi:docbase="F:\_mytemp\DTP\_inkscape\___home\flags"
   sodipodi:docname="flag_fictional_001.svg"
   inkscape:output_extension="org.inkscape.output.svg.inkscape"
   version="1.0">
  <defs
     id="defs4" />
  <sodipodi:namedview
     id="base"
     pagecolor="#ffffff"
     bordercolor="#666666"
     borderopacity="1.0"
     gridtolerance="10000"
     guidetolerance="10"
     objecttolerance="41.7"
     inkscape:pageopacity="0.0"
     inkscape:pageshadow="2"
     inkscape:zoom="1"
     inkscape:cx="565.35325"
     inkscape:cy="-257.68823"
     inkscape:document-units="px"
     inkscape:current-layer="layer1"
     showguides="true"
     inkscape:guide-bbox="true"
     showgrid="false"
     inkscape:object-bbox="true"
     inkscape:window-width="1280"
     inkscape:window-height="1005"
     inkscape:window-x="0"
     inkscape:window-y="0" />
  <metadata
     id="metadata7">
    <rdf:RDF>
      <cc:Work
         rdf:about="">
        <dc:format>image/svg+xml</dc:format>
        <dc:type
           rdf:resource="http://purl.org/dc/dcmitype/StillImage" />
      </cc:Work>
    </rdf:RDF>
  </metadata>
  <g
     inkscape:label="Layer 1"
     inkscape:groupmode="layer"
     id="layer1"
     transform="translate(-62,-70.37762)">
    <g
       id="g6240"
       transform="translate(-2.04417,-7.0356704)">
      <g
         transform="translate(-84,-364)"
         id="g4254">
        <path
           style="color:#000000;fill:#00cb00;fill-opacity:1;fill-rule:evenodd;stroke:none;stroke-width:5.80800009;stroke-linecap:butt;stroke-linejoin:miter;marker:none;marker-start:none;marker-mid:none;marker-end:none;stroke-miterlimit:4;stroke-dashoffset:0;stroke-opacity:1;visibility:visible;display:inline;overflow:visible;enable-background:accumulate"
           d="M 148.04417,441.41329 L 348.04417,441.41329 L 348.04417,486.31329 L 148.04417,486.31329 L 148.04417,441.41329 z "
           id="rect2160" />
        <path
           style="color:#000000;fill:#ff0000;fill-opacity:1;fill-rule:evenodd;stroke:none;stroke-width:5.80800009;stroke-linecap:butt;stroke-linejoin:miter;marker:none;marker-start:none;marker-mid:none;marker-end:none;stroke-miterlimit:4;stroke-dashoffset:0;stroke-opacity:1;visibility:visible;display:inline;overflow:visible;enable-background:accumulate"
           d="M 148.04418,530.96153 L 348.04418,530.96153 L 348.04418,575.96153 L 148.04418,575.96153 L 148.04418,530.96153 z "
           id="path3135" />
        <path
           style="color:#000000;fill:#00ffff;fill-opacity:1;fill-rule:evenodd;stroke:none;stroke-width:5.80800009;stroke-linecap:butt;stroke-linejoin:miter;marker:none;marker-start:none;marker-mid:none;marker-end:none;stroke-miterlimit:4;stroke-dashoffset:0;stroke-opacity:1;visibility:visible;display:inline;overflow:visible;enable-background:accumulate"
           d="M 148.04418,486.29723 L 348.04418,486.29723 L 348.04418,531.29723 L 148.04418,531.29723 L 148.04418,486.29723 z "
           id="path3137" />
      </g>
      <path
         id="path3164"
         d="M 206.54418,144.68742 C 206.54418,168.14741 187.50417,187.18741 164.04418,187.18741 C 140.58417,187.18741 121.54418,168.14741 121.54418,144.68742 C 121.54418,121.22742 140.58417,102.18741 164.04418,102.18741 C 187.50417,102.18741 206.54418,121.22742 206.54418,144.68742 z "
         style="color:#000000;fill:#ffffff;fill-opacity:1;fill-rule:evenodd;stroke:none;stroke-width:5.80800009;stroke-linecap:butt;stroke-linejoin:miter;marker:none;marker-start:none;marker-mid:none;marker-end:none;stroke-miterlimit:4;stroke-dashoffset:0;stroke-opacity:1;visibility:visible;display:inline;overflow:visible;enable-background:accumulate" />
      <path
         sodipodi:type="star"
         style="opacity:1;color:#000000;fill:#000080;fill-opacity:1;fill-rule:evenodd;stroke:none;stroke-width:5.80800009;stroke-linecap:butt;stroke-linejoin:miter;marker:none;marker-start:none;marker-mid:none;marker-end:none;stroke-miterlimit:4;stroke-dasharray:none;stroke-dashoffset:0;stroke-opacity:1;visibility:visible;display:inline;overflow:visible;enable-background:accumulate"
         id="path5249"
         sodipodi:sides="12"
         sodipodi:cx="128.31332"
         sodipodi:cy="370.27557"
         sodipodi:r1="37.344471"
         sodipodi:r2="3.3610027"
         sodipodi:arg1="0.80864979"
         sodipodi:arg2="1.0704492"
         inkscape:flatsided="false"
         inkscape:rounded="0.4"
         inkscape:randomized="0"
         d="M 154.09878,397.2889 C 144.22958,406.7095 141.89684,366.67931 129.9257,373.22457 C 117.95455,379.76983 150.39479,403.33865 137.13751,406.56253 C 123.88024,409.78641 141.87513,373.95288 128.23518,373.63567 C 114.59524,373.31846 130.9049,409.94977 117.81182,406.11309 C 104.71874,402.27642 138.21954,380.24111 126.5656,373.14643 C 114.91167,366.05175 110.72059,405.93022 101.29999,396.06103 C 91.879395,386.19183 131.90959,383.85909 125.36433,371.88795 C 118.81906,359.9168 95.250246,392.35704 92.026368,379.09976 C 88.80249,365.84249 124.63602,383.83738 124.95323,370.19743 C 125.27044,356.55749 88.639125,372.86715 92.475803,359.77407 C 96.312481,346.68099 118.34778,380.18179 125.44247,368.52785 C 132.53715,356.87392 92.658674,352.68284 102.52787,343.26224 C 112.39707,333.84165 114.72981,373.87184 126.70095,367.32658 C 138.67209,360.78131 106.23186,337.2125 119.48913,333.98862 C 132.74641,330.76474 114.75152,366.59827 128.39147,366.91548 C 142.03141,367.23269 125.72175,330.60137 138.81483,334.43805 C 151.90791,338.27473 118.40711,360.31003 130.06104,367.40472 C 141.71498,374.4994 145.90606,334.62092 155.32665,344.49012 C 164.74725,354.35932 124.71706,356.69206 131.26232,368.6632 C 137.80758,380.63434 161.3764,348.19411 164.60028,361.45138 C 167.82416,374.70866 131.99063,356.71377 131.67342,370.35372 C 131.35621,383.99366 167.98752,367.684 164.15085,380.77708 C 160.31417,393.87016 138.27886,360.36936 131.18418,372.02329 C 124.0895,383.67723 163.96797,387.86831 154.09878,397.2889 z "
         transform="matrix(1.0273471,0,0,1.0273471,32.22185,-235.71413)" />
    </g>
  </g>
</svg>
