<?xml version="1.0" encoding="UTF-8" standalone="no"?>
<!-- Created with Inkscape (http://www.inkscape.org/) -->
<svg
   xmlns:dc="http://purl.org/dc/elements/1.1/"
   xmlns:cc="http://creativecommons.org/ns#"
   xmlns:rdf="http://www.w3.org/1999/02/22-rdf-syntax-ns#"
   xmlns:svg="http://www.w3.org/2000/svg"
   xmlns="http://www.w3.org/2000/svg"
   xmlns:sodipodi="http://sodipodi.sourceforge.net/DTD/sodipodi-0.dtd"
   xmlns:inkscape="http://www.inkscape.org/namespaces/inkscape"
   id="svg559"
   sodipodi:version="0.32"
   width="280mm"
   height="140mm"
   sodipodi:docbase="/home/tobias/Desktop/SVG/Flags/Germany"
   sodipodi:docname="Thueringen.svg"
   inkscape:version="0.46"
   inkscape:output_extension="org.inkscape.output.svg.inkscape">
  <metadata
     id="metadata55">
    <rdf:RDF>
      <cc:Work
         rdf:about="">
        <dc:format>image/svg+xml</dc:format>
        <dc:type
           rdf:resource="http://purl.org/dc/dcmitype/StillImage" />
        <dc:subject>
          <rdf:Bag>
            <rdf:li>europe</rdf:li>
            <rdf:li>germany</rdf:li>
            <rdf:li>flag</rdf:li>
            <rdf:li>sign</rdf:li>
            <rdf:li>Thuringia</rdf:li>
          </rdf:Bag>
        </dc:subject>
        <dc:language>en</dc:language>
        <dc:title>Flag of Thuringia</dc:title>
      </cc:Work>
    </rdf:RDF>
  </metadata>
  <defs
     id="defs561">
    <inkscape:perspective
       sodipodi:type="inkscape:persp3d"
       inkscape:vp_x="0 : 248.03149 : 1"
       inkscape:vp_y="0 : 1000 : 0"
       inkscape:vp_z="992.12598 : 248.03149 : 1"
       inkscape:persp3d-origin="496.06299 : 165.35433 : 1"
       id="perspective57" />
  </defs>
  <sodipodi:namedview
     id="base"
     inkscape:zoom="0.38931548"
     inkscape:cx="396.85039"
     inkscape:cy="198.4252"
     inkscape:window-width="952"
     inkscape:window-height="704"
     inkscape:window-x="99"
     inkscape:window-y="55"
     showgrid="false"
     inkscape:current-layer="svg559" />
  <g
     id="g661"
     transform="translate(1.877003,-1.525879e-5)">
    <rect
       style="font-size:12.000;fill:#ffffff;fill-rule:evenodd;stroke-width:1;fill-opacity:1.0000;"
       id="rect594"
       width="992.1262"
       height="248.0314"
       x="0"
       y="248.0316" />
    <rect
       style="font-size:12.000;fill:#ff0000;fill-rule:evenodd;stroke-width:1;fill-opacity:1.0000;"
       id="rect598"
       width="992.1262"
       height="248.0314"
       x="0"
       y="3.643864e-4" />
  </g>
  <path
     id="selection_to_path"
     fill="none"
     stroke="black"
     stroke-width="1"
     d="M 341.6128 74.324774 C 341.6128 74.324774 341.6128 278.0321 341.6128 278.0321 C 341.6128 294.7295 344.9523 311.4268 349.9615 326.4544 C 354.9707 341.482 364.9891 356.5095 373.3378 368.1977 C 430.1087 443.3356 546.99 446.6751 610.4399 378.2161 C 633.8161 351.5004 650.5135 313.0965 650.5135 278.0321 C 650.5135 278.0321 650.5135 224.6007 650.5135 224.6007 C 650.5135 224.6007 650.5135 74.324774 650.5135 74.324774 C 650.5135 74.324774 341.6128 74.324774 341.6128 74.324774 z M 617.1188 219.5915 C 623.7977 214.5823 630.4767 212.9126 638.8253 216.252 C 648.8437 222.9309 650.5135 237.9586 633.8161 241.298 C 633.8161 241.298 638.3778 233.353 633.8161 231.2796 C 620.0435 228.4205 625.4675 244.6375 620.4583 257.9954 C 612.1096 276.3624 590.4031 289.7203 570.3663 284.7111 C 568.6965 291.39 563.6873 306.4176 563.6873 311.4268 C 565.3571 323.1149 580.3847 328.1241 590.4031 328.1241 C 590.4031 328.1241 603.7609 324.7846 603.7609 324.7846 C 602.0912 331.4636 602.0912 333.1333 597.082 338.1425 C 602.0912 344.8214 603.7609 348.1609 602.0912 356.5095 C 597.5295 350.2891 588.7333 353.1701 588.7333 353.1701 C 588.7333 353.1701 593.8756 363.7968 591.658 368.6233 C 585.3965 365.6231 580.3847 368.1977 580.3847 368.1977 C 578.7149 379.8858 574.0709 376.1551 570.7314 382.8339 C 570.7314 386.1733 567.0268 409.941 553.6689 401.5923 C 551.9992 401.5923 550.3295 398.2528 548.6597 396.5831 C 548.6597 396.5831 546.99 406.6015 546.99 406.6015 C 546.99 406.6015 535.3019 408.2712 535.3019 408.2712 C 535.3019 402.1402 530.2927 396.5831 530.2927 396.5831 C 534.9888 388.6258 530.2927 376.5463 530.2927 376.5463 C 543.6505 376.5463 548.6597 371.5371 546.99 356.5095 C 546.99 348.1609 537.363 337.2033 529.0143 335.5335 C 524.6573 340.5948 511.2212 342.9952 504.4118 335.1422 C 507.6209 330.5243 506.9164 329.7938 506.9164 323.1149 C 506.9164 323.1149 500.2375 299.7387 500.2375 299.7387 C 491.8888 299.7387 485.2099 299.7387 478.531 306.4176 C 470.1823 316.436 478.531 328.1241 486.8797 329.7938 C 490.2191 331.4636 493.5585 329.7938 496.898 329.7938 C 495.2283 336.4728 495.2283 336.4728 490.2191 341.482 C 490.2191 341.482 496.6633 347.7174 495.6197 351.3699 C 490.4018 349.935 476.8612 354.8398 476.8612 354.8398 C 478.531 361.5187 476.8612 363.1885 473.5218 369.8674 C 473.1304 365.8235 466.8428 361.5187 466.8428 361.5187 C 466.8428 361.5187 468.9561 373.5462 464.3904 376.4159 C 462.0423 373.2852 457.7375 371.3805 456.5635 371.2501 C 454.3459 371.2501 446.806 381.5555 446.806 381.5555 C 446.806 381.5555 423.4298 389.9042 423.4298 389.9042 C 423.4298 389.9042 403.393 383.2253 403.393 383.2253 C 403.393 383.2253 398.3838 364.8582 398.3838 364.8582 C 406.7324 361.5187 406.7324 356.5095 410.0719 356.5095 C 415.0811 353.1701 420.0903 358.1793 425.0995 356.5095 C 431.7784 353.1701 440.1271 328.1241 436.7876 321.4452 C 431.7784 311.4268 425.0995 313.0965 418.4206 306.4176 C 413.4114 303.0781 413.4114 296.3992 411.7416 289.7203 C 430.1087 293.0597 436.7876 279.7019 450.1455 269.6835 C 465.1731 259.6651 476.8612 259.6651 493.5585 264.6743 C 488.5494 259.6651 470.1823 247.977 463.5034 249.6467 C 458.4942 249.6467 453.485 256.3256 450.1455 259.6651 C 448.4758 263.0045 447.9539 265.4569 445.3711 268.2747 C 445.3711 268.2747 443.4666 263.0045 443.4666 263.0045 C 443.4666 263.0045 435.718 272.1098 430.1087 273.0229 C 432.3263 268.0658 430.1087 266.344 430.1087 266.344 C 425.0995 274.6927 423.4298 276.3624 415.0811 281.3716 C 418.3423 273.6751 416.7508 268.0137 416.7508 268.0137 C 416.7508 268.0137 411.9504 276.3364 407.3847 276.7277 C 407.3847 268.3791 405.0627 266.344 396.714 264.6743 C 396.714 264.6743 400.0535 274.6927 400.0535 274.6927 C 386.6956 278.0321 390.0351 278.0321 381.6864 269.6835 C 381.6864 269.6835 383.3562 281.3716 383.3562 281.3716 C 383.3562 281.3716 369.9983 283.0413 369.9983 283.0413 C 369.9983 283.0413 368.3286 273.0229 368.3286 273.0229 C 366.6588 274.6927 366.6588 279.7019 363.3194 279.7019 C 358.3102 281.3716 351.6312 271.3532 354.9707 268.0137 C 356.6404 264.6743 361.6496 263.0045 364.9891 263.0045 C 364.9891 263.0045 356.6404 263.0045 356.6404 263.0045 C 356.6404 263.0045 361.6496 244.6375 361.6496 244.6375 C 361.6496 244.6375 378.347 247.977 378.347 247.977 C 388.3654 246.3072 410.0719 224.6007 418.4206 217.9218 C 418.4206 217.9218 405.9237 217.8697 401.358 211.9994 C 406.4976 207.0424 406.7324 206.2336 406.7324 196.2153 C 406.7324 196.2153 402.9234 201.0941 400.0535 200.9636 C 400.8362 197.7024 400.0535 192.8759 400.0535 192.8759 C 400.0535 192.8759 396.714 199.5547 396.714 199.5547 C 396.714 199.5547 393.3746 199.5547 393.3746 199.5547 C 393.3746 199.5547 388.3654 186.1969 388.3654 186.1969 C 388.3654 186.1969 378.347 184.5272 378.347 184.5272 C 378.347 184.5272 383.3562 156.1417 383.3562 156.1417 C 383.3562 156.1417 378.347 167.8299 378.347 167.8299 C 378.347 167.8299 373.3378 167.8299 373.3378 167.8299 C 368.3286 159.4812 366.6588 159.4812 369.9983 149.4627 C 369.9983 149.4627 358.3102 154.472 358.3102 154.472 C 358.3102 142.7839 354.9707 139.4443 364.9891 137.7746 C 364.9891 137.7746 358.3102 132.7654 358.3102 132.7654 C 358.3102 132.7654 358.3102 129.426 358.3102 129.426 C 358.3102 129.426 364.9891 122.747 364.9891 122.747 C 364.9891 122.747 376.6772 131.0957 376.6772 131.0957 C 376.6772 131.0957 376.6772 122.747 376.6772 122.747 C 376.6772 122.747 393.3746 129.426 393.3746 129.426 C 393.3746 129.426 390.0351 141.1141 390.0351 141.1141 C 406.7324 146.1233 435.1179 164.4903 438.4574 166.16 C 445.1363 167.8299 446.806 164.4903 456.8244 166.16 C 461.8336 166.16 472.1384 171.8269 477.2526 170.8041 C 480.4871 170.1572 486.9062 167.0615 485.523 163.6033 C 483.5668 158.7128 469.3294 160.6884 466.8428 154.472 C 465.9899 152.3397 465.1731 149.4627 466.8428 147.793 C 471.852 141.1141 481.9748 145.8624 486.984 147.5321 C 490.6105 148.7584 493.8455 139.9661 493.3238 135.844 C 491.7062 121.6513 463.5034 144.4536 461.8336 124.4167 C 461.8336 122.747 461.8336 119.4076 461.8336 117.7379 C 465.1731 112.7287 471.852 109.3892 476.8612 107.7194 C 476.8612 107.7194 516.9348 107.7194 516.9348 107.7194 C 516.9348 107.7194 532.6325 107.2361 532.6325 107.2361 C 537.2792 104.9623 540.0791 105.0927 541.9808 107.7194 C 546.8082 114.3873 543.1548 122.0948 539.0065 126.5822 C 541.746 132.8699 542.9723 151.4455 546.99 162.8206 C 545.0332 160.7335 540.3111 161.1509 540.3111 161.1509 C 540.3111 179.5179 538.3804 185.6751 545.0595 202.3724 C 542.1895 200.9375 538.6413 201.2245 538.6413 201.2245 C 538.6413 201.2245 538.5891 225.3313 541.9808 236.2889 C 539.2414 234.2017 535.3019 234.6192 535.3019 234.6192 C 541.9808 247.977 557.0084 266.344 572.036 269.6835 C 588.7333 271.3532 610.4399 252.9862 607.1004 236.2889 C 603.7609 222.9309 585.3939 209.5732 575.3755 201.2245 C 563.6873 189.5363 557.0084 171.1693 545.3203 182.8574 C 540.3111 171.1693 548.6597 166.16 558.6781 164.4903 C 563.6873 134.4352 592.0728 136.1049 605.4307 122.747 C 613.7793 114.3984 603.7609 107.7194 612.1096 102.7103 C 617.1188 99.370753 635.4859 97.701043 638.8253 111.059 C 640.4951 121.0773 633.8161 129.426 625.4675 134.4352 C 612.1096 142.7839 582.0544 149.4627 577.0452 167.8299 C 575.3755 174.5087 580.3847 181.1876 585.3939 186.1969 C 597.082 197.885 608.7701 204.5639 617.1188 219.5915 z "
     style="font-size:12.000;fill:#000000;stroke:#000000;stroke-width:1.266158;stroke-linejoin:round;fill-opacity:1.0000;"
     sodipodi:nodetypes="cccccccccccccccccccccccccccccccccccccccccccccccccccccccccccccccccccccccccccccccccccccccccccccccccccccsssccccccccsccccccccccccccccccc" />
  <path
     style="font-size:12.000;fill:#ffffff;fill-rule:evenodd;stroke:#000000;stroke-width:0.7583;stroke-dasharray:none;"
     d="M 28.10602 177.4317 L 39.03614 194.3473 L 91.34451 203.1955 L 138.7083 202.4148 L 154.5830 177.4317 L 28.10602 177.4317 z "
     id="path599"
     sodipodi:nodetypes="cccccc"
     transform="matrix(1.648511,0,0,1.648510,340.2789,73.15001)" />
  <rect
     style="font-size:12.000;fill:#ff0000;fill-rule:evenodd;stroke:#000000;stroke-width:0.7583;stroke-dasharray:none;"
     id="rect597"
     width="135.0650"
     height="24.81300"
     x="29.92771"
     y="152.6186"
     transform="matrix(1.648511,0,0,1.648510,340.2789,73.15001)" />
  <rect
     style="font-size:12.000;fill:#ffffff;fill-rule:evenodd;stroke:#000000;stroke-width:0.7583;stroke-dasharray:none;"
     id="rect596"
     width="150.6794"
     height="20.98930"
     x="25.50361"
     y="131.6293"
     transform="matrix(1.648511,0,0,1.648510,340.2789,73.15001)" />
  <rect
     style="font-size:12.000;fill:#ff0000;fill-rule:evenodd;stroke:#000000;stroke-width:0.7583;stroke-dasharray:none;"
     id="rect595"
     width="180.8674"
     height="22.90115"
     x="4.163840"
     y="108.9884"
     transform="matrix(1.648511,0,0,1.648510,340.2789,73.15001)" />
  <path
     style="font-size:12.000;fill:#ffffff;fill-rule:evenodd;stroke:#000000;stroke-width:1.005342;"
     d="M 4.944566 86.63099 L 4.944566 108.9884 L 185.8120 108.9884 L 185.2915 83.21165 L 129.2096 86.63099 L 4.944566 86.63099 z "
     id="path601"
     sodipodi:nodetypes="cccccc"
     transform="matrix(1.648511,0,0,1.648510,340.2789,73.15001)" />
  <rect
     style="font-size:12.000;fill:#ff0000;fill-rule:evenodd;stroke:#000000;stroke-width:0.7583;stroke-dasharray:none;"
     id="rect593"
     width="162.5118"
     height="20.57190"
     x="4.684328"
     y="66.56916"
     transform="matrix(1.648511,0,0,1.648510,340.2789,73.15001)" />
  <rect
     style="font-size:12.000;fill:#ffffff;fill-rule:evenodd;stroke:#000000;stroke-width:0.7583;stroke-dasharray:none;"
     id="rect592"
     width="180.8674"
     height="23.42163"
     x="4.684337"
     y="43.14766"
     transform="matrix(1.648511,0,0,1.648510,340.2789,73.15001)" />
  <rect
     style="font-size:12.000;fill:#ff0000;fill-rule:evenodd;stroke:#000000;stroke-width:0.7583;stroke-dasharray:none;"
     id="rect591"
     width="180.867447"
     height="35.9132385"
     x="4.68433714"
     y="7.23454285"
     transform="matrix(1.648511,0,0,1.648510,340.2789,73.15001)" />
  <path
     id="path711"
     fill="none"
     stroke="black"
     stroke-width="1"
     d="M 2.000000 1.999969 C 2.000000 1.999969 2.000000 124.0000 2.000000 124.0000 C 2.000000 134.0000 4.000000 144.0000 7.000000 153.0000 C 10 162 16 171 21.00000 178.0000 C 55.00000 223.0000 125.0000 225 163.0000 184.0000 C 177 168.0000 187 145 187 124.0000 C 187 124.0000 187 91.99997 187 91.99997 C 187 91.99997 187 1.999969 187 1.999969 C 187 1.999969 2.000000 1.999969 2.000000 1.999969 z M 167 89.00002 C 171 85.99998 175 85 180 86.99997 C 186 90.99998 187 100.0000 177 102 C 177 102 179.7320 97.24174 177 95.99998 C 168.7516 94.28764 172 104.0000 169 112 C 164 123.0000 151 131 139 128.0000 C 138 132 135 141 135 144.0000 C 136 151 145 154.0000 151 154.0000 C 151 154.0000 159 152 159 152 C 158 156 158 157 155 160 C 158 164.0000 159 166 158 171 C 155.2680 167.2746 150 169.0000 150 169.0000 C 150 169.0000 153.0797 175.3643 151.7516 178.2549 C 148.0016 176.4581 145 178.0000 145 178.0000 C 144 185 141.2187 182.7657 139.2187 186.7656 C 139.2187 188.7656 137 203.0000 129 198.0000 C 128 198.0000 127.0000 196 126.0000 195 C 126.0000 195 125.0000 201 125.0000 201 C 125.0000 201 118.0000 202 118.0000 202 C 118.0000 198.3281 115.0000 195 115.0000 195 C 117.8125 190.2344 115.0000 183.0000 115.0000 183.0000 C 123.0000 183.0000 126.0000 180 125.0000 171 C 125.0000 166 119.2344 159.4375 114.2344 158.4375 C 111.6250 161.4687 103.5781 162.9063 99.50000 158.2031 C 101.4219 155.4375 101.0000 155 101.0000 151 C 101.0000 151 97 137 97 137 C 92 137 88 137 84.00002 141 C 79 147 84.00002 154.0000 89.00002 155 C 91 156 93 155 95 155 C 94.00002 159.0000 94.00002 159.0000 91 162 C 91 162 94.85940 165.7344 94.23440 167.9219 C 91.10940 167.0625 83 170 83 170 C 84.00002 174.0000 83 175 81 179.0000 C 80.76563 176.5781 77 174.0000 77 174.0000 C 77 174.0000 78.26562 181.2032 75.53125 182.9219 C 74.12498 181.0469 71.54687 179.9062 70.84373 179.8281 C 69.51562 179.8281 65 186 65 186 C 65 186 51.00000 191 51.00000 191 C 51.00000 191 39.00000 187 39.00000 187 C 39.00000 187 36.00000 176 36.00000 176 C 41.00000 174.0000 41.00000 171 43.00000 171 C 46.00000 169.0000 49.00000 172 52.00000 171 C 56.00000 169.0000 61.00000 154.0000 59.00000 150 C 56.00000 144.0000 52.00000 145 48.00000 141 C 45.00000 139.0000 45.00000 135 44.00000 131 C 55.00000 133.0000 59.00000 125.0000 67 119.0000 C 76 113.0000 83 113.0000 93 116 C 90 113.0000 79 106 75 107 C 72 107 69 111 67 113.0000 C 66 115.0000 65.68748 116.4687 64.14062 118.1563 C 64.14062 118.1563 63.00000 115.0000 63.00000 115.0000 C 63.00000 115.0000 58.35938 120.4531 55.00000 121 C 56.32813 118.0312 55.00000 117 55.00000 117 C 52.00000 122 51.00000 123.0000 46.00000 126 C 47.95313 121.3906 47.00000 118.0000 47.00000 118.0000 C 47.00000 118.0000 44.12501 122.9844 41.39063 123.2188 C 41.39063 118.2188 40.00000 117 35.00000 116 C 35.00000 116 37.00000 122 37.00000 122 C 29 124.0000 31.00000 124.0000 26.00000 119.0000 C 26.00000 119.0000 27 126 27 126 C 27 126 19 127 19 127 C 19 127 18 121 18 121 C 17 122 17 125.0000 15 125.0000 C 12 126 8 120.0000 10 118.0000 C 11 116 14 115.0000 16 115.0000 C 16 115.0000 11 115.0000 11 115.0000 C 11 115.0000 14 104.0000 14 104.0000 C 14 104.0000 24 106 24 106 C 30 105.0000 43.00000 91.99997 48.00000 88.00003 C 48.00000 88.00003 40.51563 87.96883 37.78125 84.45312 C 40.85938 81.48437 41.00000 80.99998 41.00000 75 C 41.00000 75 38.71875 77.92191 37.00000 77.84378 C 37.46875 75.89066 37.00000 73.00003 37.00000 73.00003 C 37.00000 73.00003 35.00000 76.99997 35.00000 76.99997 C 35.00000 76.99997 33.00000 76.99997 33.00000 76.99997 C 33.00000 76.99997 30 69.00002 30 69.00002 C 30 69.00002 24 68.00003 24 68.00003 C 24 68.00003 27 50.99998 27 50.99998 C 27 50.99998 24 58.00003 24 58.00003 C 24 58.00003 21.00000 58.00003 21.00000 58.00003 C 18 53.00003 17 53.00003 19 46.99997 C 19 46.99997 12 50.00000 12 50.00000 C 12 43.00003 10 40.99998 16 40.00000 C 16 40.00000 12 36.99997 12 36.99997 C 12 36.99997 12 35.00000 12 35.00000 C 12 35.00000 16 30.99998 16 30.99998 C 16 30.99998 23 35.99998 23 35.99998 C 23 35.99998 23 30.99998 23 30.99998 C 23 30.99998 33.00000 35.00000 33.00000 35.00000 C 33.00000 35.00000 31.00000 41.99997 31.00000 41.99997 C 41.00000 45.00000 58.00000 55.99998 60.00000 56.99997 C 64 58.00003 65 55.99998 71 56.99997 C 74 56.99997 80.17151 60.39383 83.23438 59.78127 C 85.17151 59.39384 89.01593 57.53983 88.18752 55.46875 C 87.01593 52.53983 78.48921 53.72299 77 50.00000 C 76.48921 48.72299 76 46.99997 77 45.99998 C 80 41.99997 86.06250 44.84375 89.06250 45.84373 C 91.23439 46.57814 93.17188 41.31248 92.85938 38.84377 C 91.89065 30.34378 75 44.00002 74 31.99997 C 74 30.99998 74 29.00002 74 28.00003 C 76 25 80 23.00003 83 21.99997 C 83 21.99997 107.0000 21.99997 107.0000 21.99997 C 107.0000 21.99997 116.4013 21.71051 116.4013 21.71051 C 119.1842 20.34874 120.8611 20.42686 122.0000 21.99997 C 124.8911 25.99335 122.7031 30.60936 120.2187 33.29689 C 121.8594 37.06253 122.5938 48.18748 125.0000 55.00000 C 123.8281 53.75000 121.0000 54.00002 121.0000 54.00002 C 121.0000 65 119.8437 68.68752 123.8438 78.68752 C 122.1250 77.82814 120.0000 78.00003 120.0000 78.00003 C 120.0000 78.00003 119.9687 92.43752 122.0000 99.00002 C 120.3594 97.75002 118.0000 98.00003 118.0000 98.00003 C 122.0000 106 131 117 140 119.0000 C 150 120.0000 163.0000 109.0000 161 99.00002 C 159 90.99998 148 83.00003 142 78.00003 C 135 70.99998 131 60.00000 124.0000 66.99997 C 121.0000 60.00000 126.0000 56.99997 132 55.99998 C 135 38.00003 152 39.00002 160 30.99998 C 165 25.99998 159 21.99997 164 19.00002 C 167 16.99997 178.0000 15.99998 180 24.00002 C 181 30 177 35.00000 172 38.00003 C 164 43.00003 146 46.99997 143 58.00003 C 142 61.99997 145 65.99998 148 69.00002 C 155 75.99998 162 80 167 89.00002 z "
     style="font-size:12.000;fill:#0000ff;stroke:#000000;stroke-width:0.7583;stroke-linejoin:round;stroke-dasharray:none;"
     sodipodi:nodetypes="cccccccccccccccccccccccccccccccccccccccccccccccccccccccccccccccccccccccccccccccccccccccccccccccccccccsssccccccccsccccccccccccccccccc"
     transform="matrix(1.648511,0,0,1.648510,340.2789,73.15001)" />
  <polygon
     sodipodi:type="star"
     style="font-size:12.000;fill:#ffffff;fill-rule:evenodd;stroke:#000000;stroke-linecap:round;stroke-linejoin:round;stroke-width:0.7583;stroke-dasharray:none;"
     id="polygon563"
     sodipodi:cx="18.0587578"
     sodipodi:cy="86.7658691"
     sodipodi:r1="15.0898752"
     sodipodi:r2="8.74646378"
     sodipodi:arg1="1.56585455"
     sodipodi:arg2="2.10514617"
     points="18.13333,101.8556 13.60434,94.29308 5.027987,94.37530 9.312799,86.67184 4.953417,79.28561 13.76721,79.14463 17.98419,71.67618 22.51317,79.23866 31.08953,79.15644 26.80472,86.85990 31.16410,94.24613 22.35030,94.38711 18.13333,101.8556 "
     sodipodi:sides="6"
     transform="matrix(1.648511,0,0,1.648510,340.7945,72.82761)" />
  <path
     style="font-size:12.000;fill:#ffe700;fill-rule:evenodd;stroke:#000000;stroke-width:0.7583;stroke-dasharray:none;"
     d="M 115.3978 21.53694 C 115.3978 21.53694 116.9994 9.735947 121.6355 6.532745 C 119.6968 5.605469 115.8193 6.448517 115.3978 9.483032 C 111.2674 7.038498 108.4857 11.16890 108.4857 11.16890 C 108.4857 11.16890 111.6889 13.02139 111.6889 14.79347 C 111.7732 16.81656 109.3287 17.82806 107.4742 17.82806 C 105.7799 17.82806 104.0634 16.33492 104.1868 14.28772 C 104.1348 12.43858 106.7156 12.93900 106.6313 10.91599 C 106.5470 8.892975 104.5239 9.567261 104.5239 9.567261 C 102.3323 7.459869 100.4779 3.329620 99.55063 3.498154 C 98.53910 3.245239 97.27470 7.544327 95.16737 9.061584 C 94.24014 9.483032 92.55426 9.820175 92.63856 11.00029 C 92.72285 12.18040 94.83018 12.43324 94.83018 12.43324 C 94.83018 12.43324 94.83018 14.62494 94.74590 15.04639 C 94.66161 15.46783 93.31290 17.74376 91.20557 17.74376 C 89.09824 17.74376 87.49665 15.80505 87.49665 14.62494 C 87.49665 13.44482 90.53123 11.50604 90.53123 11.50604 C 90.53123 11.50604 87.24377 6.279831 83.53486 9.651566 C 81.93328 5.521164 77.38143 6.701279 77.38143 6.701279 C 77.38143 6.701279 83.61916 13.27621 83.61916 21.36841 L 115.3978 21.53694 z "
     id="path564"
     sodipodi:nodetypes="ccccssscccccccccccccc"
     transform="matrix(1.648511,0,0,1.648510,340.2789,73.15001)" />
  <path
     style="font-size:12.000;fill:#ff0000;fill-rule:evenodd;stroke:#000000;stroke-width:0.7583;stroke-dasharray:none;"
     d="M 65.49605 33.50662 C 66.42327 33.08517 67.68768 39.32297 72.57670 39.66011 C 77.46573 39.99725 83.70344 38.14285 86.06366 38.48000 C 88.42388 38.81714 92.80173 38.12019 93.22320 40.22751 C 93.64468 42.33482 90.57729 42.72530 89.38198 42.40341 C 88.38567 42.13516 87.41237 41.34590 84.63068 41.43021 C 81.84899 41.51451 73.84111 45.39207 70.46937 44.63341 C 67.09763 43.87474 63.81018 42.02034 63.55730 38.31139 C 63.38871 35.10818 64.31594 34.01237 65.49605 33.50662 z "
     id="path565"
     sodipodi:nodetypes="ccccscccc"
     transform="matrix(1.648511,0,0,1.648510,340.2789,73.15001)" />
  <polygon
     sodipodi:type="star"
     style="font-size:12.000;fill:#ffffff;fill-rule:evenodd;stroke:#000000;stroke-linecap:round;stroke-linejoin:round;stroke-width:0.7583;stroke-dasharray:none;"
     id="polygon573"
     sodipodi:cx="18.0587578"
     sodipodi:cy="86.7658691"
     sodipodi:r1="15.0898752"
     sodipodi:r2="8.74646378"
     sodipodi:arg1="1.56585455"
     sodipodi:arg2="2.10514617"
     points="18.13333,101.8556 13.60434,94.29308 5.027987,94.37530 9.312799,86.67184 4.953417,79.28561 13.76721,79.14463 17.98419,71.67618 22.51317,79.23866 31.08953,79.15644 26.80472,86.85990 31.16410,94.24613 22.35030,94.38711 18.13333,101.8556 "
     sodipodi:sides="6"
     transform="matrix(1.648511,0,0,1.648510,353.8116,179.9029)" />
  <polygon
     sodipodi:type="star"
     style="font-size:12.000;fill:#ffffff;fill-rule:evenodd;stroke:#000000;stroke-linecap:round;stroke-linejoin:round;stroke-width:0.7583;stroke-dasharray:none;"
     id="polygon574"
     sodipodi:cx="18.0587578"
     sodipodi:cy="86.7658691"
     sodipodi:r1="15.0898752"
     sodipodi:r2="8.74646378"
     sodipodi:arg1="1.56585455"
     sodipodi:arg2="2.10514617"
     points="18.13333,101.8556 13.60434,94.29308 5.027987,94.37530 9.312799,86.67184 4.953417,79.28561 13.76721,79.14463 17.98419,71.67618 22.51317,79.23866 31.08953,79.15644 26.80472,86.85990 31.16410,94.24613 22.35030,94.38711 18.13333,101.8556 "
     sodipodi:sides="6"
     transform="matrix(1.648511,0,0,1.648510,392.0228,-35.92749)" />
  <polygon
     sodipodi:type="star"
     style="font-size:12.000;fill:#ffffff;fill-rule:evenodd;stroke:#000000;stroke-linecap:round;stroke-linejoin:round;stroke-width:0.7583;stroke-dasharray:none;"
     id="polygon575"
     sodipodi:cx="18.0587578"
     sodipodi:cy="86.7658691"
     sodipodi:r1="15.0898752"
     sodipodi:r2="8.74646378"
     sodipodi:arg1="1.56585455"
     sodipodi:arg2="2.10514617"
     points="18.13333,101.8556 13.60434,94.29308 5.027987,94.37530 9.312799,86.67184 4.953417,79.28561 13.76721,79.14463 17.98419,71.67618 22.51317,79.23866 31.08953,79.15644 26.80472,86.85990 31.16410,94.24613 22.35030,94.38711 18.13333,101.8556 "
     sodipodi:sides="6"
     transform="matrix(1.648511,0,0,1.648510,544.0280,-35.50754)" />
  <polygon
     sodipodi:type="star"
     style="font-size:12.000;fill:#ffffff;fill-rule:evenodd;stroke:#000000;stroke-linecap:round;stroke-linejoin:round;stroke-width:0.7583;stroke-dasharray:none;"
     id="polygon576"
     sodipodi:cx="18.0587578"
     sodipodi:cy="86.7658691"
     sodipodi:r1="15.0898752"
     sodipodi:r2="8.74646378"
     sodipodi:arg1="1.56585455"
     sodipodi:arg2="2.10514617"
     points="18.13333,101.8556 13.60434,94.29308 5.027987,94.37530 9.312799,86.67184 4.953417,79.28561 13.76721,79.14463 17.98419,71.67618 22.51317,79.23866 31.08953,79.15644 26.80472,86.85990 31.16410,94.24613 22.35030,94.38711 18.13333,101.8556 "
     sodipodi:sides="6"
     transform="matrix(1.648511,0,0,1.648510,586.8581,29.99744)" />
  <polygon
     sodipodi:type="star"
     style="font-size:12.000;fill:#ffffff;fill-rule:evenodd;stroke:#000000;stroke-linecap:round;stroke-linejoin:round;stroke-width:0.7583;stroke-dasharray:none;"
     id="polygon577"
     sodipodi:cx="18.0587578"
     sodipodi:cy="86.7658691"
     sodipodi:r1="15.0898752"
     sodipodi:r2="8.74646378"
     sodipodi:arg1="1.56585455"
     sodipodi:arg2="2.10514617"
     points="18.13333,101.8556 13.60434,94.29308 5.027987,94.37530 9.312799,86.67184 4.953417,79.28561 13.76721,79.14463 17.98419,71.67618 22.51317,79.23866 31.08953,79.15644 26.80472,86.85990 31.16410,94.24613 22.35030,94.38711 18.13333,101.8556 "
     sodipodi:sides="6"
     transform="matrix(1.648511,0,0,1.648510,540.6688,93.40279)" />
  <polygon
     sodipodi:type="star"
     style="font-size:12.000;fill:#ffffff;fill-rule:evenodd;stroke:#000000;stroke-linecap:round;stroke-linejoin:round;stroke-width:0.7583;stroke-dasharray:none;"
     id="polygon578"
     sodipodi:cx="18.0587578"
     sodipodi:cy="86.7658691"
     sodipodi:r1="15.0898752"
     sodipodi:r2="8.74646378"
     sodipodi:arg1="1.56585455"
     sodipodi:arg2="2.10514617"
     points="18.13333,101.8556 13.60434,94.29308 5.027987,94.37530 9.312799,86.67184 4.953417,79.28561 13.76721,79.14463 17.98419,71.67618 22.51317,79.23866 31.08953,79.15644 26.80472,86.85990 31.16410,94.24613 22.35030,94.38711 18.13333,101.8556 "
     sodipodi:sides="6"
     transform="matrix(1.648511,0,0,1.648510,586.8581,159.3277)" />
  <polygon
     sodipodi:type="star"
     style="font-size:12.000;fill:#ffffff;fill-rule:evenodd;stroke:#000000;stroke-linecap:round;stroke-linejoin:round;stroke-width:0.7583;stroke-dasharray:none;"
     id="polygon579"
     sodipodi:cx="18.0587578"
     sodipodi:cy="86.7658691"
     sodipodi:r1="15.0898752"
     sodipodi:r2="8.74646378"
     sodipodi:arg1="1.56585455"
     sodipodi:arg2="2.10514617"
     points="18.13333,101.8556 13.60434,94.29308 5.027987,94.37530 9.312799,86.67184 4.953417,79.28561 13.76721,79.14463 17.98419,71.67618 22.51317,79.23866 31.08953,79.15644 26.80472,86.85990 31.16410,94.24613 22.35030,94.38711 18.13333,101.8556 "
     sodipodi:sides="6"
     transform="matrix(1.648511,0,0,1.648510,460.0472,251.7064)" />
  <path
     style="font-size:12.000;fill:none;fill-rule:evenodd;stroke:#000000;stroke-width:0.7583;stroke-linecap:round;stroke-dasharray:none;"
     d="M 107.7694 119.6166 C 107.7694 119.6166 99.77289 128.3024 97.01547 136.8505 "
     id="path582"
     transform="matrix(1.648511,0,0,1.648510,340.2789,73.15001)" />
  <path
     style="font-size:12.000;fill:none;fill-rule:evenodd;stroke:#000000;stroke-width:1;stroke-linecap:round;"
     d="M 92.18997 115.5724 C 92.18997 115.5724 101.7950 120.5817 104.3227 124.6259 "
     id="path583"
     sodipodi:nodetypes="cc"
     transform="matrix(1.648511,0,0,1.648510,340.2789,73.15001)" />
  <path
     style="font-size:12.000;fill:none;fill-rule:evenodd;stroke:#000000;stroke-width:0.7583;stroke-dasharray:none;"
     d="M 65.81059 56.83914 C 65.81059 56.83914 57.81405 60.23994 53.21834 61.61865 C 49.54177 61.15906 46.32477 60.33188 46.32477 60.33188 C 46.32477 60.33188 46.04904 67.13348 50.18517 73.56750 C 47.24392 74.11903 43.56735 81.93169 40.62609 81.74789 "
     id="path584"
     sodipodi:nodetypes="ccccc"
     transform="matrix(1.648511,0,0,1.648510,340.2789,73.15001)" />
  <path
     style="font-size:12.000;fill:none;fill-rule:evenodd;stroke:#000000;stroke-width:0.7583;stroke-dasharray:none;"
     d="M 118.4774 97.92480 C 118.4774 97.92480 103.9550 98.38432 102.4844 94.52393 C 98.07245 101.6013 87.59427 100.7740 85.57216 103.7153 C 83.64196 100.1306 83.36620 97.64900 80.24113 96.27029 C 76.84030 98.20053 73.89904 98.47626 73.53139 98.47626 C 73.16373 98.47626 64.79953 95.44312 61.30680 95.44312 C 57.88733 95.53314 53.49409 97.74094 53.49409 97.74094 C 53.58601 94.34006 58.18171 91.30692 59.46851 87.17079 C 57.26256 87.26273 47.15200 88.18184 47.15200 88.18184 "
     id="path585"
     sodipodi:nodetypes="ccccssccc"
     transform="matrix(1.648511,0,0,1.648510,340.2789,73.15001)" />
  <path
     style="font-size:12.000;fill:none;fill-rule:evenodd;stroke:#000000;stroke-width:0.7583;stroke-linecap:round;stroke-dasharray:none;"
     d="M 116.5136 21.47054 L 112.3885 24.51001 "
     id="path586"
     transform="matrix(1.648511,0,0,1.648510,340.2789,73.15001)" />
  <path
     style="font-size:12.000;fill-rule:evenodd;stroke:#000000;stroke-width:0.7583;stroke-dasharray:none;"
     d="M 74.46735 28.27324 L 77.36211 28.34557 C 77.21737 28.99689 76.27657 31.89171 74.46735 31.67458 L 74.46735 28.27324 z "
     id="path587"
     sodipodi:nodetypes="cccc"
     transform="matrix(1.648511,0,0,1.648510,340.2789,73.15001)" />
  <path
     style="font-size:12.000;fill:none;fill-rule:evenodd;stroke:#000000;stroke-width:0.7583;stroke-linejoin:round;stroke-dasharray:none;"
     d="M 116.8262 24.38835 C 116.8262 24.38835 113.4400 25.51712 112.3112 27.61337 C 113.0368 27.04903 116.8262 24.63020 116.8262 24.38835 z "
     id="path580"
     sodipodi:nodetypes="ccc"
     transform="matrix(1.648511,0,0,1.648510,340.2789,73.15001)" />
  <path
     sodipodi:type="arc"
     style="font-size:12.000;fill:#000200;fill-rule:evenodd;stroke-width:1;"
     id="path590"
     d="M 90.56385 27.27311 A 3.122890 1.821709 0 1 "
     sodipodi:cx="87.44096"
     sodipodi:cy="27.27311"
     sodipodi:rx="3.122890"
     sodipodi:ry="1.821709"
     transform="matrix(1.648511,0,0,1.648510,338.9919,73.14996)" />
  <path
     style="font-size:12.000;fill:#ffe700;fill-rule:evenodd;stroke:#000000;stroke-width:0.7583;stroke-dasharray:none;"
     d="M 143.0107 183.1257 C 143.0107 183.1257 147.0102 189.2332 144.1998 192.4760 C 143.2810 190.1520 139.2814 189.9358 139.2814 189.9358 C 139.2814 189.9358 137.6600 186.8551 143.0107 183.1257 z "
     id="path600"
     sodipodi:nodetypes="cccc"
     transform="matrix(1.648511,0,0,1.648510,340.2789,73.15001)" />
  <path
     style="font-size:12.000;fill:#ffe700;fill-rule:evenodd;stroke:#000000;stroke-width:0.7583;stroke-dasharray:none;"
     d="M 126.1612 193.5029 C 126.1612 193.5029 123.7291 199.7185 127.5124 204.3665 C 127.8907 201.2859 129.8365 198.6916 129.8365 198.6916 C 129.8365 198.6916 131.5119 197.2323 126.1612 193.5029 z "
     id="path602"
     sodipodi:nodetypes="cccc"
     transform="matrix(1.648511,0,0,1.648510,340.2789,73.15001)" />
  <path
     style="font-size:12.000;fill:#ffe700;fill-rule:evenodd;stroke:#000000;stroke-width:0.7583;stroke-dasharray:none;"
     d="M 115.3099 195.3719 C 115.3099 195.3719 112.2666 201.3121 115.5646 206.3162 C 116.2500 203.2891 118.4462 200.9031 118.4462 200.9031 C 118.4462 200.9031 120.2595 199.6192 115.3099 195.3719 z "
     id="path603"
     sodipodi:nodetypes="cccc"
     transform="matrix(1.648511,0,0,1.648510,340.2789,73.15001)" />
  <path
     style="font-size:12.000;fill:#ffe700;fill-rule:evenodd;stroke:#000000;stroke-width:0.7583;stroke-dasharray:none;"
     d="M 115.3431 184.3377 C 115.3431 184.3377 109.2974 187.5341 110.2885 194.1216 C 112.5394 191.9847 116.0151 191.5441 116.0151 191.5441 C 116.0151 191.5441 117.1011 190.6184 115.3431 184.3377 z "
     id="path604"
     sodipodi:nodetypes="cccc"
     transform="matrix(1.648511,0,0,1.648510,340.2789,73.15001)" />
  <path
     style="font-size:12.000;fill:#ffe700;fill-rule:evenodd;stroke:#000000;stroke-width:0.7583;stroke-dasharray:none;"
     d="M 64.54241 185.7318 C 64.54241 185.7318 65.16843 192.9245 58.46644 194.6252 C 59.60197 191.6278 58.62028 188.1466 58.62028 188.1466 C 58.62028 188.1466 57.82430 186.5806 64.54241 185.7318 z "
     id="path605"
     sodipodi:nodetypes="cccc"
     transform="matrix(1.648511,0,0,1.648510,340.2789,73.15001)" />
  <path
     style="font-size:12.000;fill:#ffe700;fill-rule:evenodd;stroke:#000000;stroke-width:0.7583;stroke-dasharray:none;"
     d="M 40.53806 186.8127 C 40.53806 186.8127 39.47966 194.0054 45.47903 196.6790 C 44.34349 193.6816 46.46019 189.2275 46.46019 189.2275 C 46.46019 189.2275 47.25617 187.6615 40.53806 186.8127 z "
     id="path606"
     sodipodi:nodetypes="cccc"
     transform="matrix(1.648511,0,0,1.648510,340.2789,73.15001)" />
  <path
     style="font-size:12.000;fill:#ffe700;fill-rule:evenodd;stroke:#000000;stroke-width:0.7583;stroke-dasharray:none;"
     d="M 36.74169 179.1484 C 36.74169 179.1484 31.27275 183.6387 35.57641 190.1445 C 36.75866 187.1653 38.78468 185.6272 38.78468 185.6272 C 38.78468 183.4653 39.83384 181.5482 36.74169 179.1484 z "
     id="path607"
     sodipodi:nodetypes="cccc"
     transform="matrix(1.648511,0,0,1.648510,340.2789,73.15001)" />
  <path
     style="font-size:12.000;fill:#ffe700;fill-rule:evenodd;stroke:#000000;stroke-width:0.7583;stroke-dasharray:none;"
     d="M 42.03994 170.9400 C 42.03994 170.9400 34.10579 168.1824 32.02681 175.4847 C 35.15092 174.6368 37.37199 175.8755 37.37199 175.8755 C 39.26111 174.8243 41.44647 174.8089 42.03994 170.9400 z "
     id="path608"
     sodipodi:nodetypes="cccc"
     transform="matrix(1.648511,0,0,1.648510,340.2789,73.15001)" />
  <path
     style="font-size:12.000;fill:#ffe700;fill-rule:evenodd;stroke:#000000;stroke-width:0.7583;stroke-dasharray:none;"
     d="M 10.06233 119.4310 C 10.06233 119.4310 3.488567 125.6976 8.926918 130.9957 C 9.664764 127.8437 12.18816 125.8831 12.18816 125.8831 C 12.16047 123.7214 13.18498 121.7910 10.06233 119.4310 z "
     id="path609"
     sodipodi:nodetypes="cccc"
     transform="matrix(1.648511,0,0,1.648510,340.2789,73.15001)" />
  <path
     style="font-size:12.000;fill:#ffe700;fill-rule:evenodd;stroke:#000000;stroke-width:0.7583;stroke-dasharray:none;"
     d="M 19.90921 125.5760 C 19.90921 125.5760 21.03269 134.5884 28.52697 133.3713 C 26.43313 130.9024 26.35938 127.7077 26.35938 127.7077 C 24.60574 126.4434 23.66420 124.4712 19.90921 125.5760 z "
     id="path610"
     sodipodi:nodetypes="cccc"
     transform="matrix(1.648511,0,0,1.648510,340.2789,73.15001)" />
  <path
     style="font-size:12.000;fill:#ffe700;fill-rule:evenodd;stroke:#000000;stroke-width:0.7583;stroke-dasharray:none;"
     d="M 21.50151 57.58636 C 21.50151 57.58636 16.73531 60.63728 12.64970 56.67385 C 15.88633 56.61011 16.92415 55.52799 17.86165 54.19987 C 20.32156 55.34218 20.31387 54.66496 21.50151 57.58636 z "
     id="path611"
     sodipodi:nodetypes="cccc"
     transform="matrix(1.648511,0,0,1.648510,340.2789,73.15001)" />
  <path
     style="font-size:12.000;fill:#ffe700;fill-rule:evenodd;stroke:#000000;stroke-width:0.7583;stroke-dasharray:none;"
     d="M 36.95844 122.6349 C 36.85035 123.5537 35.95457 127.7877 31.36737 128.5878 C 32.63390 126.7024 32.40826 123.2359 32.40826 123.2359 C 33.46901 122.2704 34.68710 121.7912 36.95844 122.6349 z "
     id="path612"
     sodipodi:nodetypes="cccc"
     transform="matrix(1.648511,0,0,1.648510,340.2789,73.15001)" />
  <path
     style="font-size:12.000;fill:#ffe700;fill-rule:evenodd;stroke:#000000;stroke-width:0.7583;stroke-dasharray:none;"
     d="M 13.44249 105.0704 C 13.44249 105.0704 4.380407 105.6740 5.164715 113.2259 C 7.749889 111.2774 10.94355 111.3874 10.94355 111.3874 C 12.30656 109.7093 14.32962 108.8827 13.44249 105.0704 z "
     id="path613"
     sodipodi:nodetypes="cccc"
     transform="matrix(1.648511,0,0,1.648510,340.6653,73.02119)" />
  <path
     style="font-size:12.000;fill:#ffe700;fill-rule:evenodd;stroke:#000000;stroke-width:0.7583;stroke-dasharray:none;"
     d="M 11.73924 43.21983 C 11.73924 43.21983 4.943417 46.22726 8.287479 52.61993 C 9.825923 49.84570 10.61218 48.11050 12.23689 48.16647 C 12.81380 45.51632 13.34865 45.93182 11.73924 43.21983 z "
     id="path614"
     sodipodi:nodetypes="cccc"
     transform="matrix(1.648511,0,0,1.648510,340.2789,73.15001)" />
  <path
     style="font-size:12.000;fill:#ffe700;fill-rule:evenodd;stroke:#000000;stroke-width:0.7583;stroke-dasharray:none;"
     d="M 16.41847 31.28737 C 16.41847 31.28737 9.980994 27.57432 6.792058 34.04577 C 9.939694 33.65135 11.80462 33.26254 12.71791 34.60742 C 15.19811 33.50981 15.17814 34.18680 16.41847 31.28737 z "
     id="path615"
     sodipodi:nodetypes="cccc"
     transform="matrix(1.648511,0,0,1.648510,340.2789,73.15001)" />
  <path
     style="font-size:12.000;fill:#ffe700;fill-rule:evenodd;stroke:#000000;stroke-width:0.7583;stroke-dasharray:none;"
     d="M 31.26081 34.04507 C 31.26081 34.04507 33.53779 28.90717 26.84326 26.21788 C 27.47510 29.32659 28.00414 31.15669 26.73234 32.16927 C 28.01477 34.55914 28.35384 35.21553 31.26081 34.04507 z "
     id="path616"
     sodipodi:nodetypes="cccc"
     transform="matrix(1.648511,0,0,1.648510,340.2789,73.15001)" />
  <path
     style="fill:none;fill-rule:evenodd;stroke:black;stroke-opacity:1;stroke-width:1.2500;stroke-linejoin:miter;stroke-linecap:butt;fill-opacity:1;stroke-dasharray:none;"
     d="M 551.3704 383.4426 C 551.3704 383.4426 546.6779 385.3196 548.0856 392.3584 "
     id="path665" />
  <path
     style="fill:none;fill-rule:evenodd;stroke:black;stroke-opacity:1;stroke-width:1.2500;stroke-linejoin:miter;stroke-linecap:butt;fill-opacity:1;stroke-dasharray:none;"
     d="M 536.8236 384.8504 C 536.8236 384.8504 532.1310 384.8504 532.1310 385.3197 "
     id="path666" />
  <path
     style="fill:none;fill-rule:evenodd;stroke:black;stroke-opacity:1;stroke-width:1.2500;stroke-linejoin:miter;stroke-linecap:butt;fill-opacity:1;stroke-dasharray:none;"
     d="M 413.8797 372.6499 C 413.8797 372.6499 406.3717 374.9961 407.7794 380.6271 "
     id="path667" />
</svg>
