<?xml version="1.0" encoding="UTF-8" standalone="no"?>
<!-- Created with Inkscape (http://www.inkscape.org/) -->

<svg
   xmlns:dc="http://purl.org/dc/elements/1.1/"
   xmlns:cc="http://creativecommons.org/ns#"
   xmlns:rdf="http://www.w3.org/1999/02/22-rdf-syntax-ns#"
   xmlns:svg="http://www.w3.org/2000/svg"
   xmlns="http://www.w3.org/2000/svg"
   xmlns:xlink="http://www.w3.org/1999/xlink"
   xmlns:sodipodi="http://sodipodi.sourceforge.net/DTD/sodipodi-0.dtd"
   xmlns:inkscape="http://www.inkscape.org/namespaces/inkscape"
   width="225"
   height="191"
   id="svg2"
   version="1.1"
   inkscape:version="0.47 r22583"
   sodipodi:docname="cgbug_Halloween_Candy_Corn.svg"
   style="display:inline;enable-background:new">
  <title
     id="title4337">Halloween Candy Corn</title>
  <defs
     id="defs4">
    <linearGradient
       id="linearGradient3989">
      <stop
         style="stop-color:#f0f07a;stop-opacity:0.78431374;"
         offset="0"
         id="stop3991" />
      <stop
         style="stop-color:#ffffff;stop-opacity:0;"
         offset="1"
         id="stop3993" />
    </linearGradient>
    <linearGradient
       id="linearGradient3928">
      <stop
         style="stop-color:#ecefda;stop-opacity:0;"
         offset="0"
         id="stop3930" />
      <stop
         id="stop3936"
         offset="0.65703446"
         style="stop-color:#dfd9c4;stop-opacity:0.23529412;" />
      <stop
         style="stop-color:#dbd3be;stop-opacity:1"
         offset="1"
         id="stop3932" />
    </linearGradient>
    <linearGradient
       id="linearGradient3832">
      <stop
         style="stop-color:#e54c00;stop-opacity:0;"
         offset="0"
         id="stop3834" />
      <stop
         id="stop3840"
         offset="0.80273861"
         style="stop-color:#cf2d00;stop-opacity:0.47058824;" />
      <stop
         style="stop-color:#cd2a00;stop-opacity:1;"
         offset="1"
         id="stop3836" />
    </linearGradient>
    <linearGradient
       id="linearGradient3703">
      <stop
         style="stop-color:#d9d128;stop-opacity:0;"
         offset="0"
         id="stop3705" />
      <stop
         id="stop3711"
         offset="0.79416168"
         style="stop-color:#ceb412;stop-opacity:0.3137255;" />
      <stop
         style="stop-color:#ccae0e;stop-opacity:1"
         offset="1"
         id="stop3707" />
    </linearGradient>
    <radialGradient
       inkscape:collect="always"
       xlink:href="#linearGradient3703"
       id="radialGradient3709"
       cx="57.125156"
       cy="66.865967"
       fx="57.125156"
       fy="66.865967"
       r="53.439228"
       gradientTransform="matrix(0.55932073,0.37635901,-0.63120342,0.93805401,67.379898,-17.357499)"
       gradientUnits="userSpaceOnUse" />
    <radialGradient
       inkscape:collect="always"
       xlink:href="#linearGradient3832"
       id="radialGradient3838"
       cx="108.82677"
       cy="96.757149"
       fx="108.82677"
       fy="96.757149"
       r="75.51339"
       gradientTransform="matrix(0.36321989,-0.55117166,1.3240639,0.87255271,-57.477872,76.05785)"
       gradientUnits="userSpaceOnUse" />
    <filter
       inkscape:collect="always"
       id="filter3858"
       color-interpolation-filters="sRGB">
      <feGaussianBlur
         inkscape:collect="always"
         stdDeviation="2.385393"
         id="feGaussianBlur3860" />
    </filter>
    <filter
       inkscape:collect="always"
       id="filter3901"
       color-interpolation-filters="sRGB">
      <feGaussianBlur
         inkscape:collect="always"
         stdDeviation="0.38010576"
         id="feGaussianBlur3903" />
    </filter>
    <radialGradient
       inkscape:collect="always"
       xlink:href="#linearGradient3928"
       id="radialGradient3934"
       cx="178.38683"
       cy="143.56052"
       fx="178.38683"
       fy="143.56052"
       r="39.218018"
       gradientTransform="matrix(0.41313923,-0.56220671,1.009517,0.74184648,-45.190105,142.55126)"
       gradientUnits="userSpaceOnUse" />
    <filter
       inkscape:collect="always"
       id="filter3958"
       color-interpolation-filters="sRGB">
      <feGaussianBlur
         inkscape:collect="always"
         stdDeviation="2.9222096"
         id="feGaussianBlur3960" />
    </filter>
    <filter
       inkscape:collect="always"
       id="filter3962"
       color-interpolation-filters="sRGB">
      <feGaussianBlur
         inkscape:collect="always"
         stdDeviation="3.0154188"
         id="feGaussianBlur3964" />
    </filter>
    <radialGradient
       inkscape:collect="always"
       xlink:href="#linearGradient3989"
       id="radialGradient3995"
       cx="76.596283"
       cy="25.946299"
       fx="76.596283"
       fy="25.946299"
       r="14.742747"
       gradientTransform="matrix(1.1254103,0.71995158,-0.23105868,0.36118514,-3.6649658,-26.518952)"
       gradientUnits="userSpaceOnUse" />
    <linearGradient
       id="linearGradient3989-2">
      <stop
         style="stop-color:#f0f07a;stop-opacity:0.78431374;"
         offset="0"
         id="stop3991-3" />
      <stop
         style="stop-color:#ffffff;stop-opacity:0;"
         offset="1"
         id="stop3993-9" />
    </linearGradient>
    <radialGradient
       r="14.742747"
       fy="25.946299"
       fx="76.596283"
       cy="25.946299"
       cx="76.596283"
       gradientTransform="matrix(1.1535815,0.67389044,-0.1828072,0.31293366,-21.724629,0.98364405)"
       gradientUnits="userSpaceOnUse"
       id="radialGradient4015"
       xlink:href="#linearGradient3989-2"
       inkscape:collect="always" />
    <linearGradient
       id="linearGradient3989-2-9">
      <stop
         style="stop-color:#f0f07a;stop-opacity:0.78431374;"
         offset="0"
         id="stop3991-3-1" />
      <stop
         style="stop-color:#ffffff;stop-opacity:0;"
         offset="1"
         id="stop3993-9-6" />
    </linearGradient>
    <radialGradient
       r="14.742747"
       fy="25.946299"
       fx="76.596283"
       cy="25.946299"
       cx="76.596283"
       gradientTransform="matrix(1.1535815,0.67389044,-0.1828072,0.31293366,-21.724629,0.98364097)"
       gradientUnits="userSpaceOnUse"
       id="radialGradient4053"
       xlink:href="#linearGradient3989-2-9"
       inkscape:collect="always" />
    <linearGradient
       id="linearGradient3989-2-9-3">
      <stop
         style="stop-color:#f0f07a;stop-opacity:0.78431374;"
         offset="0"
         id="stop3991-3-1-3" />
      <stop
         style="stop-color:#ffffff;stop-opacity:0;"
         offset="1"
         id="stop3993-9-6-9" />
    </linearGradient>
    <radialGradient
       r="14.742747"
       fy="25.946299"
       fx="76.596283"
       cy="25.946299"
       cx="76.596283"
       gradientTransform="matrix(1.1535815,0.67389044,-0.1828072,0.31293366,-44.13245,39.752728)"
       gradientUnits="userSpaceOnUse"
       id="radialGradient4091"
       xlink:href="#linearGradient3989-2-9-3"
       inkscape:collect="always" />
    <filter
       inkscape:collect="always"
       id="filter4202"
       x="-0.23600806"
       width="1.4720161"
       y="-0.29952547"
       height="1.5990509"
       color-interpolation-filters="sRGB">
      <feGaussianBlur
         inkscape:collect="always"
         stdDeviation="2.8995061"
         id="feGaussianBlur4204" />
    </filter>
    <filter
       inkscape:collect="always"
       id="filter4217"
       x="-0.10346674"
       width="1.2069335"
       y="-0.1129487"
       height="1.2258974"
       color-interpolation-filters="sRGB">
      <feGaussianBlur
         inkscape:collect="always"
         stdDeviation="4.1910152"
         id="feGaussianBlur4219" />
    </filter>
    <inkscape:perspective
       id="perspective4229"
       inkscape:persp3d-origin="0.5 : 0.33333333 : 1"
       inkscape:vp_z="1 : 0.5 : 1"
       inkscape:vp_y="0 : 1000 : 0"
       inkscape:vp_x="0 : 0.5 : 1"
       sodipodi:type="inkscape:persp3d" />
    <filter
       color-interpolation-filters="sRGB"
       inkscape:collect="always"
       id="filter4217-7"
       x="-0.10346674"
       width="1.2069335"
       y="-0.1129487"
       height="1.2258974">
      <feGaussianBlur
         inkscape:collect="always"
         stdDeviation="4.1910152"
         id="feGaussianBlur4219-1" />
    </filter>
    <filter
       inkscape:collect="always"
       id="filter4253"
       x="-0.40514916"
       width="1.8102983"
       y="-0.5214476"
       height="2.0428953"
       color-interpolation-filters="sRGB">
      <feGaussianBlur
         inkscape:collect="always"
         stdDeviation="5.0278134"
         id="feGaussianBlur4255" />
    </filter>
    <inkscape:perspective
       id="perspective4293"
       inkscape:persp3d-origin="0.5 : 0.33333333 : 1"
       inkscape:vp_z="1 : 0.5 : 1"
       inkscape:vp_y="0 : 1000 : 0"
       inkscape:vp_x="0 : 0.5 : 1"
       sodipodi:type="inkscape:persp3d" />
    <filter
       inkscape:collect="always"
       id="filter4333"
       x="-0.21027713"
       width="1.4205542"
       y="-0.26072654"
       height="1.5214531"
       color-interpolation-filters="sRGB">
      <feGaussianBlur
         inkscape:collect="always"
         stdDeviation="4.4287867"
         id="feGaussianBlur4335" />
    </filter>
  </defs>
  <sodipodi:namedview
     id="base"
     pagecolor="#ffffff"
     bordercolor="#666666"
     borderopacity="1.0"
     inkscape:pageopacity="0.0"
     inkscape:pageshadow="2"
     inkscape:zoom="0.5"
     inkscape:cx="112.5"
     inkscape:cy="95.5"
     inkscape:document-units="px"
     inkscape:current-layer="layer14"
     showgrid="false"
     inkscape:window-width="1280"
     inkscape:window-height="780"
     inkscape:window-x="-4"
     inkscape:window-y="-3"
     inkscape:window-maximized="1"
     inkscape:snap-global="false" />
  <metadata
     id="metadata7">
    <rdf:RDF>
      <cc:Work
         rdf:about="">
        <dc:format>image/svg+xml</dc:format>
        <dc:type
           rdf:resource="http://purl.org/dc/dcmitype/StillImage" />
        <dc:title>Halloween Candy Corn</dc:title>
        <dc:date>2010-09-22</dc:date>
        <dc:creator>
          <cc:Agent>
            <dc:title>cgbug</dc:title>
          </cc:Agent>
        </dc:creator>
        <dc:rights>
          <cc:Agent>
            <dc:title>Public Domain</dc:title>
          </cc:Agent>
        </dc:rights>
        <dc:publisher>
          <cc:Agent>
            <dc:title>openclipart.com</dc:title>
          </cc:Agent>
        </dc:publisher>
        <dc:identifier>http://www.cgbug.net/</dc:identifier>
        <dc:source>http://www.cgbug.net/</dc:source>
        <dc:relation>http://www.cgbug.net/</dc:relation>
        <dc:language>en-US</dc:language>
        <dc:subject>
          <rdf:Bag>
            <rdf:li>hallowen2010</rdf:li>
            <rdf:li>Halloween</rdf:li>
            <rdf:li>candy</rdf:li>
            <rdf:li>corn</rdf:li>
            <rdf:li>food</rdf:li>
            <rdf:li>treat</rdf:li>
            <rdf:li>sweet</rdf:li>
            <rdf:li>seasonal</rdf:li>
            <rdf:li>holiday</rdf:li>
            <rdf:li>photorealistic</rdf:li>
          </rdf:Bag>
        </dc:subject>
        <dc:description>Halloween Candy Corn</dc:description>
        <cc:license
           rdf:resource="http://creativecommons.org/licenses/publicdomain/" />
      </cc:Work>
      <cc:License
         rdf:about="http://creativecommons.org/licenses/publicdomain/">
        <cc:permits
           rdf:resource="http://creativecommons.org/ns#Reproduction" />
        <cc:permits
           rdf:resource="http://creativecommons.org/ns#Distribution" />
        <cc:permits
           rdf:resource="http://creativecommons.org/ns#DerivativeWorks" />
      </cc:License>
    </rdf:RDF>
  </metadata>
  <g
     inkscape:groupmode="layer"
     id="layer4"
     inkscape:label="MiddleBase"
     style="display:inline">
    <path
       style="fill:#e54c00;fill-opacity:1;stroke:none"
       d="M 147.901,176.40797 C 145.01503,175.44246 52.533011,133.7134 44.815642,128.75605 37.098273,123.7987 47.102462,105.01602 60.175696,99.495903 80.195658,91.04256 64.474458,83.020972 71.732777,70.222328 78.991096,57.423685 90.865083,59.328453 87.586643,44.155974 84.580386,30.243143 95.042784,24.483115 103.85847,24.5419 c 8.81569,0.05879 86.36749,85.50136 88.94166,93.70158 2.57417,8.20022 -10.12188,1.65351 -9.03242,14.5049 1.23,14.50921 -6.05675,8.45122 -11.31833,15.58976 -5.26159,7.13854 0.0948,14.07409 -13.17684,15.42558 -11.1863,1.13914 -8.48557,13.60976 -11.37154,12.64425 z"
       id="path3675"
       sodipodi:nodetypes="czszszzszsz" />
  </g>
  <g
     inkscape:groupmode="layer"
     id="layer3"
     inkscape:label="TipBase"
     style="display:inline">
    <path
       style="fill:#ecefda;fill-opacity:1;stroke:none"
       d="m 219.0987,181.39665 c -13.58929,18.72608 -70.54193,-0.061 -74.33706,-6.75792 -3.79513,-6.69693 1.38982,-15.96235 7.17458,-17.62971 12.89167,-3.71582 7.55042,-8.42601 11.62584,-13.30723 4.42234,-5.29672 13.50284,-4.41382 13.75842,-16.6718 0.15358,-7.36562 11.13682,-11.82611 13.32384,-11.07841 2.18702,0.7477 41.99416,46.78722 28.45438,65.44507 z"
       id="path2892"
       sodipodi:nodetypes="czssszz" />
  </g>
  <g
     inkscape:groupmode="layer"
     id="layer10"
     inkscape:label="TipBaseBlend"
     style="display:inline">
    <path
       style="fill:#ecefda;fill-opacity:1;stroke:none;display:inline;filter:url(#filter3901)"
       d="m 219.0987,181.39665 c -13.58929,18.72608 -70.54193,-0.061 -74.33706,-6.75792 -3.79513,-6.69693 1.38982,-15.96235 7.17458,-17.62971 12.89167,-3.71582 7.55042,-8.42601 11.62584,-13.30723 4.42234,-5.29672 13.50284,-4.41382 13.75842,-16.6718 0.15358,-7.36562 11.13682,-11.82611 13.32384,-11.07841 2.18702,0.7477 41.99416,46.78722 28.45438,65.44507 z"
       id="path2892-9"
       sodipodi:nodetypes="czssszz" />
  </g>
  <g
     inkscape:groupmode="layer"
     id="layer11"
     inkscape:label="TipBaseShadow">
    <path
       style="fill:url(#radialGradient3934);fill-opacity:1;stroke:none;display:inline"
       d="m 219.0987,181.39665 c -13.58929,18.72608 -70.54193,-0.061 -74.33706,-6.75792 -3.79513,-6.69693 1.38982,-15.96235 7.17458,-17.62971 12.89167,-3.71582 7.55042,-8.42601 11.62584,-13.30723 4.42234,-5.29672 13.50284,-4.41382 13.75842,-16.6718 0.15358,-7.36562 11.13682,-11.82611 13.32384,-11.07841 2.18702,0.7477 41.99416,46.78722 28.45438,65.44507 z"
       id="path2892-7"
       sodipodi:nodetypes="czssszz" />
  </g>
  <g
     inkscape:groupmode="layer"
     id="layer5"
     inkscape:label="CornBase"
     style="display:inline">
    <path
       style="fill:#dadb37;fill-opacity:1;stroke:none"
       d="M 49.439478,130.17877 C 46.450638,130.9434 7.7777217,117.8604 4.6238361,102.08007 1.4699506,86.29975 5.9942809,68.561114 22.407821,44.104283 38.821361,19.647452 53.423303,4.6419017 71.49162,3.556797 c 18.068317,-1.0851048 37.72375,23.017901 38.41341,25.608939 0.68966,2.591039 0.98024,12.122635 -8.09971,17.975271 C 91.574015,53.735773 90.424667,66.875511 83.108,79.132854 75.791333,91.390197 62.946367,96.694286 61.747139,114.3557 c -0.733324,10.7999 -9.318821,15.05844 -12.307661,15.82307 z"
       id="path3678"
       sodipodi:nodetypes="czzzzszsz" />
  </g>
  <g
     inkscape:groupmode="layer"
     id="layer8"
     inkscape:label="CornBaseBlend"
     style="display:inline">
    <path
       style="fill:#dadb37;fill-opacity:1;stroke:none;display:inline;filter:url(#filter3858)"
       d="M 52.284917,132.66853 C 49.296077,133.43316 7.7777217,117.8604 4.6238361,102.08007 1.4699506,86.299754 5.9942809,68.561118 22.407822,44.104287 38.821362,19.647456 53.423304,4.6419058 71.491621,3.556801 89.559938,2.4716963 112.06081,29.06446 112.75047,31.655498 c 0.68966,2.591039 0.98024,12.122635 -8.09971,17.975271 -10.231306,6.594766 -11.380654,19.734504 -18.697321,31.991847 -7.316667,12.257343 -20.161633,17.561432 -21.360861,35.222844 -0.733324,10.7999 -9.318821,15.05844 -12.307661,15.82307 z"
       id="path3678-7"
       sodipodi:nodetypes="czzzzszsz" />
  </g>
  <g
     inkscape:groupmode="layer"
     id="layer6"
     inkscape:label="CornBaseShadow"
     style="display:inline">
    <path
       style="fill:url(#radialGradient3709);fill-opacity:1;stroke:none;display:inline"
       d="M 49.795159,130.17877 C 46.806319,130.9434 7.7777217,117.8604 4.6238361,102.08007 1.4699506,86.299754 5.9942809,68.561118 22.407822,44.104287 38.821362,19.647456 53.423304,4.6419058 71.491621,3.556801 89.559938,2.4716963 109.57105,26.574702 110.26071,29.16574 110.95037,31.756779 111.24095,41.288375 102.161,47.141011 91.929696,53.735777 90.780348,66.875515 83.463681,79.132858 76.147014,91.390201 63.302048,96.69429 62.10282,114.3557 c -0.733324,10.7999 -9.318821,15.05844 -12.307661,15.82307 z"
       id="path3678-3"
       sodipodi:nodetypes="czzzzszsz" />
  </g>
  <g
     inkscape:groupmode="layer"
     id="layer12"
     inkscape:label="CornLightTop"
     style="display:inline">
    <path
       style="fill:url(#radialGradient3995);fill-opacity:1;stroke:none;filter:url(#filter4202)"
       d="m 85,48 c -8.105724,5.309061 -27.102721,-3.373324 -26,-13 0.975299,-8.514296 18.132895,-11.127115 25,-6 5.081913,3.794256 6.305395,15.525089 1,19 z"
       id="path3987"
       sodipodi:nodetypes="csss" />
    <path
       style="opacity:0.43999999;fill:#c6a301;fill-opacity:1;stroke:none;filter:url(#filter4253)"
       d="m 67.148976,94.553072 c -8.105724,5.309059 -28.52544,-7.641476 -27.422719,-17.268152 0.975299,-8.514296 15.998817,-3.657841 22.865922,1.469274 5.081913,3.794256 9.862192,12.323968 4.556797,15.798878 z"
       id="path3987-0-5-7"
       sodipodi:nodetypes="csss"
       transform="matrix(1.0995555,0,0,1.0995555,-5.4332436,-8.3842705)" />
  </g>
  <g
     inkscape:groupmode="layer"
     id="layer7"
     inkscape:label="MiddleBaseBlend"
     style="display:inline">
    <path
       style="fill:#e54c00;fill-opacity:1;stroke:none;display:inline;filter:url(#filter3958)"
       d="M 147.54531,175.69661 C 144.65934,174.7311 55.734129,134.78044 48.01676,129.82309 40.299391,124.86573 47.102462,105.01601 60.175696,99.495898 80.195658,91.042555 64.474458,83.020967 71.732777,70.222323 78.991096,57.42368 85.20109,58.412735 83.854799,50.068446 82.186087,39.725795 102.51206,29.462625 109.54934,30.23277 c 7.00765,0.7669 78.89821,80.52184 81.47238,88.72206 2.57417,8.20023 -8.34348,0.94215 -7.25402,13.79355 1.23,14.50921 -6.05675,8.45122 -11.31833,15.58976 -5.26159,7.13854 0.0948,14.07409 -13.17684,15.42558 -11.1863,1.13914 -8.84125,12.8984 -11.72722,11.93289 z"
       id="path3675-9"
       sodipodi:nodetypes="czszszzszsz" />
  </g>
  <g
     inkscape:groupmode="layer"
     id="layer9"
     inkscape:label="MiddleBaseShadow"
     style="display:inline">
    <path
       style="fill:url(#radialGradient3838);fill-opacity:1;stroke:none;display:inline;filter:url(#filter3962)"
       d="M 147.90099,176.40797 C 145.01502,175.44246 52.533011,133.7134 44.815642,128.75605 37.098273,123.79869 47.102462,105.01601 60.175696,99.495898 80.195658,91.042555 64.474458,83.020967 71.732777,70.222323 78.991096,57.42368 85.865083,58.328448 84.586643,49.155969 c -1.964899,-14.097646 9.744782,-23.9615 18.560467,-23.902715 8.81569,0.05879 86.36748,85.501356 88.94165,93.701576 2.57417,8.20023 -9.41052,0.94215 -8.32106,13.79355 1.23,14.50921 -6.05675,8.45122 -11.31833,15.58976 -5.26159,7.13854 0.0948,14.07409 -13.17684,15.42558 -11.1863,1.13914 -8.48557,13.60976 -11.37154,12.64425 z"
       id="path3675-5"
       sodipodi:nodetypes="czszszzszsz" />
  </g>
  <g
     inkscape:groupmode="layer"
     id="layer14"
     inkscape:label="MiddleLight">
    <path
       style="opacity:0.7;fill:#ff8957;fill-opacity:1;stroke:none;filter:url(#filter4217)"
       d="M 186.67039,135.40223 C 158.98492,108.4819 97.687213,59.28344 79.175047,45.463687 78.120831,40.353809 78.191949,36.641058 83.329609,35.731843 113.96795,59.701776 166.70159,100.0041 191.82495,135.67039 c -0.43549,2.94945 -2.19397,0.0837 -5.15456,-0.26816 z"
       id="path4207"
       sodipodi:nodetypes="ccccc" />
  </g>
</svg>
