<?xml version="1.0" encoding="UTF-8" standalone="no"?>
<!-- Created with Inkscape (http://www.inkscape.org/) -->

<svg
   xmlns:dc="http://purl.org/dc/elements/1.1/"
   xmlns:cc="http://creativecommons.org/ns#"
   xmlns:rdf="http://www.w3.org/1999/02/22-rdf-syntax-ns#"
   xmlns:svg="http://www.w3.org/2000/svg"
   xmlns="http://www.w3.org/2000/svg"
   xmlns:xlink="http://www.w3.org/1999/xlink"
   xmlns:sodipodi="http://sodipodi.sourceforge.net/DTD/sodipodi-0.dtd"
   xmlns:inkscape="http://www.inkscape.org/namespaces/inkscape"
   width="64px"
   height="64px"
   id="svg3430"
   version="1.1"
   inkscape:version="0.48.0 r9654"
   sodipodi:docname="Halloween Pumpkin Icon 64x64.svg">
  <title
     id="title5178">Halloween Pumpkin icon 64x64</title>
  <defs
     id="defs3432">
    <linearGradient
       inkscape:collect="always"
       id="linearGradient5154">
      <stop
         style="stop-color:#fdca01;stop-opacity:1;"
         offset="0"
         id="stop5156" />
      <stop
         style="stop-color:#fdca01;stop-opacity:0;"
         offset="1"
         id="stop5158" />
    </linearGradient>
    <linearGradient
       inkscape:collect="always"
       id="linearGradient4752">
      <stop
         style="stop-color:#0169c9;stop-opacity:1"
         offset="0"
         id="stop4754" />
      <stop
         style="stop-color:#000000;stop-opacity:1"
         offset="1"
         id="stop4756" />
    </linearGradient>
    <linearGradient
       inkscape:collect="always"
       id="linearGradient4734">
      <stop
         style="stop-color:#ffff00;stop-opacity:1;"
         offset="0"
         id="stop4736" />
      <stop
         style="stop-color:#fb8b00;stop-opacity:1"
         offset="1"
         id="stop4738" />
    </linearGradient>
    <linearGradient
       id="linearGradient4556"
       inkscape:collect="always">
      <stop
         id="stop4558"
         offset="0"
         style="stop-color:#ef6e08;stop-opacity:1;" />
      <stop
         id="stop4560"
         offset="1"
         style="stop-color:#df6501;stop-opacity:1" />
    </linearGradient>
    <linearGradient
       inkscape:collect="always"
       id="linearGradient4546">
      <stop
         style="stop-color:#ef6e08;stop-opacity:1;"
         offset="0"
         id="stop4548" />
      <stop
         style="stop-color:#ef6e08;stop-opacity:0;"
         offset="1"
         id="stop4550" />
    </linearGradient>
    <linearGradient
       inkscape:collect="always"
       id="linearGradient4538">
      <stop
         style="stop-color:#d16004;stop-opacity:1;"
         offset="0"
         id="stop4540" />
      <stop
         style="stop-color:#ffa247;stop-opacity:1"
         offset="1"
         id="stop4542" />
    </linearGradient>
    <linearGradient
       inkscape:collect="always"
       id="linearGradient4530">
      <stop
         style="stop-color:#763402;stop-opacity:1;"
         offset="0"
         id="stop4532" />
      <stop
         style="stop-color:#df6600;stop-opacity:1"
         offset="1"
         id="stop4534" />
    </linearGradient>
    <linearGradient
       inkscape:collect="always"
       id="linearGradient3491">
      <stop
         style="stop-color:#ce5c00;stop-opacity:1;"
         offset="0"
         id="stop3493" />
      <stop
         style="stop-color:#f57900;stop-opacity:1"
         offset="1"
         id="stop3495" />
    </linearGradient>
    <radialGradient
       inkscape:collect="always"
       xlink:href="#linearGradient3491"
       id="radialGradient3497"
       cx="-7912.4971"
       cy="15972.671"
       fx="-7912.4971"
       fy="15972.671"
       r="432"
       gradientTransform="matrix(-0.02728004,3.7171712,-3.094515,-0.02214101,41299.319,45344.396)"
       gradientUnits="userSpaceOnUse" />
    <filter
       inkscape:collect="always"
       id="filter4347"
       x="-1.1956704"
       width="3.3913408"
       y="-0.19358295"
       height="1.3871659">
      <feGaussianBlur
         inkscape:collect="always"
         stdDeviation="1.5985962"
         id="feGaussianBlur4349" />
    </filter>
    <filter
       inkscape:collect="always"
       id="filter4351"
       x="-1.1956707"
       width="3.3913414"
       y="-0.19358295"
       height="1.3871659">
      <feGaussianBlur
         inkscape:collect="always"
         stdDeviation="1.5985962"
         id="feGaussianBlur4353" />
    </filter>
    <filter
       inkscape:collect="always"
       id="filter4355"
       x="-1.1956707"
       width="3.3913414"
       y="-0.19358295"
       height="1.3871659">
      <feGaussianBlur
         inkscape:collect="always"
         stdDeviation="1.5985962"
         id="feGaussianBlur4357" />
    </filter>
    <filter
       inkscape:collect="always"
       id="filter4359"
       x="-1.1956707"
       width="3.3913414"
       y="-0.19358295"
       height="1.3871659">
      <feGaussianBlur
         inkscape:collect="always"
         stdDeviation="1.5985962"
         id="feGaussianBlur4361" />
    </filter>
    <filter
       inkscape:collect="always"
       id="filter4363"
       x="-1.1956707"
       width="3.3913414"
       y="-0.19358295"
       height="1.3871659">
      <feGaussianBlur
         inkscape:collect="always"
         stdDeviation="1.5985962"
         id="feGaussianBlur4365" />
    </filter>
    <radialGradient
       inkscape:collect="always"
       xlink:href="#linearGradient4530"
       id="radialGradient4536"
       cx="-10424.467"
       cy="14736.292"
       fx="-10424.467"
       fy="14736.292"
       r="577.3583"
       gradientTransform="matrix(-8.3537702e-8,-2.4991569,2.4125937,-8.0643322e-8,-45977.153,-10835.92)"
       gradientUnits="userSpaceOnUse" />
    <radialGradient
       inkscape:collect="always"
       xlink:href="#linearGradient4538"
       id="radialGradient4544"
       cx="-9697.0898"
       cy="15619.797"
       fx="-9697.0898"
       fy="15619.797"
       r="577.35845"
       gradientTransform="matrix(0.42324362,-3.1642568,2.3912962,0.31985576,-41169.978,-20265.888)"
       gradientUnits="userSpaceOnUse" />
    <radialGradient
       inkscape:collect="always"
       xlink:href="#linearGradient4556"
       id="radialGradient4552"
       cx="-8100.3701"
       cy="14860.534"
       fx="-8100.3701"
       fy="14860.534"
       r="487.88557"
       gradientTransform="matrix(-0.47701062,-2.5758648,2.7471392,-0.5087268,-52796.749,1026.5868)"
       gradientUnits="userSpaceOnUse" />
    <radialGradient
       inkscape:collect="always"
       xlink:href="#linearGradient4546"
       id="radialGradient4554"
       cx="42.545456"
       cy="49.952568"
       fx="42.545456"
       fy="49.952568"
       r="30.375"
       gradientTransform="matrix(-0.06584367,-1.0894126,0.85030022,-0.05139181,2.8721254,95.280344)"
       gradientUnits="userSpaceOnUse" />
    <filter
       inkscape:collect="always"
       id="filter4601"
       x="-0.25791901"
       width="1.515838"
       y="-0.051692847"
       height="1.1033857">
      <feGaussianBlur
         inkscape:collect="always"
         stdDeviation="0.90854095"
         id="feGaussianBlur4603" />
    </filter>
    <radialGradient
       inkscape:collect="always"
       xlink:href="#linearGradient4556"
       id="radialGradient4620"
       gradientUnits="userSpaceOnUse"
       gradientTransform="matrix(-0.00632324,-0.0341456,0.036416,-0.00674367,-548.93355,-146.72958)"
       cx="-8100.3701"
       cy="14860.534"
       fx="-8100.3701"
       fy="14860.534"
       r="487.88557" />
    <radialGradient
       inkscape:collect="always"
       xlink:href="#linearGradient4538"
       id="radialGradient4623"
       gradientUnits="userSpaceOnUse"
       gradientTransform="matrix(0.0056105,-0.0419453,0.03169896,0.00424,-394.80941,-428.98202)"
       cx="-9697.0898"
       cy="15619.797"
       fx="-9697.0898"
       fy="15619.797"
       r="577.35845" />
    <radialGradient
       inkscape:collect="always"
       xlink:href="#linearGradient4530"
       id="radialGradient4628"
       gradientUnits="userSpaceOnUse"
       gradientTransform="matrix(0,-0.03312876,0.03198127,0,-458.53318,-303.97863)"
       cx="-10424.467"
       cy="14736.292"
       fx="-10424.467"
       fy="14736.292"
       r="577.3583" />
    <filter
       inkscape:collect="always"
       id="filter4650"
       x="-0.27862292"
       width="1.5572458"
       y="-0.057802592"
       height="1.1156052">
      <feGaussianBlur
         inkscape:collect="always"
         stdDeviation="1.0203033"
         id="feGaussianBlur4652" />
    </filter>
    <filter
       inkscape:collect="always"
       id="filter4658"
       x="-0.45820012"
       width="1.9164002"
       y="-0.0612182"
       height="1.1224364">
      <feGaussianBlur
         inkscape:collect="always"
         stdDeviation="1.0203033"
         id="feGaussianBlur4660" />
    </filter>
    <filter
       inkscape:collect="always"
       id="filter4666"
       x="-0.3679692"
       width="1.7359384"
       y="-0.060941195"
       height="1.1218824">
      <feGaussianBlur
         inkscape:collect="always"
         stdDeviation="1.0203033"
         id="feGaussianBlur4668" />
    </filter>
    <filter
       inkscape:collect="always"
       id="filter4670">
      <feGaussianBlur
         inkscape:collect="always"
         stdDeviation="0.30756183"
         id="feGaussianBlur4672" />
    </filter>
    <filter
       inkscape:collect="always"
       id="filter4706"
       x="-0.10745946"
       width="1.2149189"
       y="-0.070963802"
       height="1.1419276">
      <feGaussianBlur
         inkscape:collect="always"
         stdDeviation="0.28493043"
         id="feGaussianBlur4708" />
    </filter>
    <filter
       inkscape:collect="always"
       id="filter4710"
       x="-0.11062003"
       width="1.2212401"
       y="-0.098975831"
       height="1.1979517">
      <feGaussianBlur
         inkscape:collect="always"
         stdDeviation="0.28493043"
         id="feGaussianBlur4712" />
    </filter>
    <filter
       inkscape:collect="always"
       id="filter4714"
       x="-0.096437992"
       width="1.192876"
       y="-0.1253694"
       height="1.2507388">
      <feGaussianBlur
         inkscape:collect="always"
         stdDeviation="0.28493043"
         id="feGaussianBlur4716" />
    </filter>
    <linearGradient
       inkscape:collect="always"
       xlink:href="#linearGradient4734"
       id="linearGradient4740"
       x1="20.363636"
       y1="42.363636"
       x2="51.090908"
       y2="36.545456"
       gradientUnits="userSpaceOnUse"
       gradientTransform="matrix(0.84838218,0,0,0.84838218,4.7311479,4.3506198)" />
    <radialGradient
       inkscape:collect="always"
       xlink:href="#linearGradient4752"
       id="radialGradient4760"
       cx="49.176468"
       cy="77.252258"
       fx="49.176468"
       fy="77.252258"
       r="32.363636"
       gradientTransform="matrix(-1.5842697,-0.34269667,0.20844688,-0.96366863,94.533067,128.02546)"
       gradientUnits="userSpaceOnUse" />
    <radialGradient
       inkscape:collect="always"
       xlink:href="#linearGradient3491"
       id="radialGradient5073"
       gradientUnits="userSpaceOnUse"
       gradientTransform="matrix(-3.5706108e-4,0.04940221,-0.04050327,-2.9426e-4,673.99434,419.09793)"
       cx="-7912.4971"
       cy="15972.671"
       fx="-7912.4971"
       fy="15972.671"
       r="432" />
    <filter
       inkscape:collect="always"
       id="filter5098">
      <feGaussianBlur
         inkscape:collect="always"
         stdDeviation="1.1480263"
         id="feGaussianBlur5100" />
    </filter>
    <linearGradient
       inkscape:collect="always"
       xlink:href="#linearGradient5154"
       id="linearGradient5160"
       x1="15.636364"
       y1="0.72727275"
       x2="14.909091"
       y2="49.81818"
       gradientUnits="userSpaceOnUse"
       gradientTransform="matrix(1.002849,0,0,1.0232558,-1.6410264,0.74418554)" />
    <filter
       inkscape:collect="always"
       id="filter5170">
      <feGaussianBlur
         inkscape:collect="always"
         stdDeviation="0.22944758"
         id="feGaussianBlur5172" />
    </filter>
    <filter
       inkscape:collect="always"
       id="filter5174"
       x="-0.078262589"
       width="1.1565252"
       y="-0.43696614"
       height="1.8739323">
      <feGaussianBlur
         inkscape:collect="always"
         stdDeviation="1.1917258"
         id="feGaussianBlur5176" />
    </filter>
  </defs>
  <sodipodi:namedview
     id="base"
     pagecolor="#ffffff"
     bordercolor="#666666"
     borderopacity="1.0"
     inkscape:pageopacity="0.0"
     inkscape:pageshadow="2"
     inkscape:zoom="5.5"
     inkscape:cx="32"
     inkscape:cy="42.660094"
     inkscape:current-layer="layer1"
     showgrid="true"
     inkscape:document-units="px"
     inkscape:grid-bbox="true"
     showguides="true"
     inkscape:guide-bbox="true"
     inkscape:window-width="1280"
     inkscape:window-height="712"
     inkscape:window-x="-4"
     inkscape:window-y="-4"
     inkscape:window-maximized="1" />
  <metadata
     id="metadata3435">
    <rdf:RDF>
      <cc:Work
         rdf:about="">
        <dc:format>image/svg+xml</dc:format>
        <dc:type
           rdf:resource="http://purl.org/dc/dcmitype/StillImage" />
        <dc:title>Halloween Pumpkin icon 64x64</dc:title>
        <dc:subject>
          <rdf:Bag>
            <rdf:li>Halloween2010</rdf:li>
            <rdf:li>Pumpkin</rdf:li>
            <rdf:li>how_i_did_it</rdf:li>
            <rdf:li>icon</rdf:li>
            <rdf:li>religion</rdf:li>
            <rdf:li>face</rdf:li>
            <rdf:li>trick or treat</rdf:li>
            <rdf:li>festival</rdf:li>
            <rdf:li>photorealistic</rdf:li>
            <rdf:li>October 31</rdf:li>
            <rdf:li>celebration</rdf:li>
            <rdf:li>trick or treating</rdf:li>
            <rdf:li>jack o lantern</rdf:li>
            <rdf:li>carved pumpkin</rdf:li>
            <rdf:li>symbol</rdf:li>
          </rdf:Bag>
        </dc:subject>
        <dc:publisher>
          <cc:Agent>
            <dc:title>NetAlloy.com</dc:title>
          </cc:Agent>
        </dc:publisher>
        <dc:creator>
          <cc:Agent>
            <dc:title>NetAlloy</dc:title>
          </cc:Agent>
        </dc:creator>
        <dc:date>2010-09-19</dc:date>
        <cc:license
           rdf:resource="http://creativecommons.org/licenses/publicdomain/" />
      </cc:Work>
      <cc:License
         rdf:about="http://creativecommons.org/licenses/publicdomain/">
        <cc:permits
           rdf:resource="http://creativecommons.org/ns#Reproduction" />
        <cc:permits
           rdf:resource="http://creativecommons.org/ns#Distribution" />
        <cc:permits
           rdf:resource="http://creativecommons.org/ns#DerivativeWorks" />
      </cc:License>
    </rdf:RDF>
  </metadata>
  <g
     id="layer1"
     inkscape:label="Layer 1"
     inkscape:groupmode="layer">
    <rect
       style="fill:url(#linearGradient5160);fill-opacity:1;stroke:#bc5f2b;stroke-width:0;stroke-miterlimit:4;stroke-opacity:1;stroke-dasharray:none"
       id="rect4762"
       width="64"
       height="64"
       x="0"
       y="0" />
    <path
       sodipodi:type="arc"
       style="opacity:0.40975611;fill:#000000;fill-opacity:1;stroke:#bc5f2b;stroke-width:0;stroke-miterlimit:4;stroke-opacity:1;stroke-dasharray:none;filter:url(#filter5174)"
       id="path4774"
       sodipodi:cx="33.545456"
       sodipodi:cy="51.636364"
       sodipodi:rx="18.272728"
       sodipodi:ry="3.2727273"
       d="m 51.818184,51.636364 a 18.272728,3.2727273 0 1 1 -36.545456,0 18.272728,3.2727273 0 1 1 36.545456,0 z"
       transform="matrix(1.0757384,0,0,0.54763148,-4.0861342,19.995031)" />
    <path
       sodipodi:type="arc"
       style="fill:url(#radialGradient3497);fill-opacity:1;stroke:#bda816;stroke-width:0;stroke-miterlimit:4;stroke-opacity:0.88717943;stroke-dasharray:none"
       id="path6447"
       sodipodi:cx="-7824"
       sodipodi:cy="16164.362"
       sodipodi:rx="443.78503"
       sodipodi:ry="1320"
       d="m -7380.215,16164.362 a 443.78503,1320 0 1 1 -887.57,0 443.78503,1320 0 1 1 887.57,0 z"
       transform="matrix(0.01308873,0,0,0.01329027,133.4387,-183.54134)" />
    <path
       style="fill:url(#radialGradient4628);fill-opacity:1;stroke:#a07b02;stroke-width:0.29999999999999999;stroke-miterlimit:4;stroke-opacity:0.84615386;stroke-dasharray:none"
       d="m 21.977714,12.035302 c -7.425259,0 -13.1554053,8.925377 -13.1554053,18.888844 0,9.963467 6.0193643,18.040463 13.4446263,18.040463 0.63187,0 1.253598,-0.0585 1.862265,-0.171664 -4.738278,-2.107077 -6.432011,-9.484861 -6.824787,-17.669521 -0.617012,-12.857166 5.849796,-14.875839 6.776982,-18.425456 -0.53508,-0.413666 -0.65635,-0.662666 -2.103681,-0.662666 z"
       id="path6433"
       inkscape:connector-curvature="0"
       sodipodi:nodetypes="ssscscs" />
    <path
       style="fill:#d16004;fill-opacity:1;stroke:#bda816;stroke-width:0;stroke-miterlimit:4;stroke-opacity:0.88717943;stroke-dasharray:none"
       d="m 17.090906,31.553845 c 0,9.753598 3.523815,18.309043 10.550426,17.228071 0.638562,-0.09824 1.27886,-0.08628 1.894704,-0.252155 -3.378024,-3.75791 -4.270708,-8.893246 -4.270708,-17.46009 0,-8.785077 1.979567,-15.452897 4.589691,-17.26247 C 18.099156,7.9318891 16.267101,27.989248 17.090906,31.553845 z"
       id="path6442"
       inkscape:connector-curvature="0"
       sodipodi:nodetypes="cscscc" />
    <path
       sodipodi:nodetypes="ssscscs"
       inkscape:connector-curvature="0"
       id="path6449"
       d="m 41.00985,12.035302 c 7.425265,0 12.38415,8.925377 12.38415,18.888844 0,9.963467 -6.019364,18.040463 -13.444629,18.040463 -0.631872,0 -2.641853,-0.675496 -3.250526,-0.788663 4.738281,-2.107077 7.904551,-8.087186 7.904551,-16.281271 0,-9.463637 -2.45627,-17.035347 -7.239731,-18.579708 1.306322,-0.567912 2.198858,-1.279665 3.646185,-1.279665 z"
       style="fill:url(#radialGradient4623);fill-opacity:1;stroke:#a07b02;stroke-width:0.29999999999999999;stroke-miterlimit:4;stroke-opacity:0.84615386;stroke-dasharray:none" />
    <path
       sodipodi:nodetypes="cscscc"
       inkscape:connector-curvature="0"
       id="path6451"
       d="m 45.125404,31.553845 c 0,9.753598 -3.986575,18.154795 -11.013182,17.073824 -0.638566,-0.09824 -0.816101,0.06796 -1.431947,-0.09791 1.527005,-3.912156 3.653697,-8.739 3.653697,-17.305844 0,-8.785078 -2.596572,-14.064625 -3.972677,-17.416716 11.755859,-5.8753119 13.587913,14.182047 12.764109,17.746644 z"
       style="fill:url(#radialGradient4620);fill-opacity:1;stroke:#bda816;stroke-width:0;stroke-miterlimit:4;stroke-opacity:0.88717943;stroke-dasharray:none" />
    <path
       style="fill:none;stroke:#79520c;stroke-width:1px;stroke-linecap:butt;stroke-linejoin:miter;stroke-opacity:1;filter:url(#filter4601)"
       d="M 22.363636,52.363636 C 13.601914,44.197212 9.8241562,26.994748 22.545455,10.181818"
       id="path4595"
       inkscape:connector-curvature="0"
       sodipodi:nodetypes="cc"
       transform="matrix(0.84838219,0,0,0.84838219,4.7311479,4.3506197)" />
    <path
       sodipodi:nodetypes="cc"
       inkscape:connector-curvature="0"
       id="path4605"
       d="M 28.363636,51.818182 C 24.692823,44.197212 19.278701,27.903839 29.818182,11.090909"
       style="fill:none;stroke:#79520c;stroke-width:1px;stroke-linecap:butt;stroke-linejoin:miter;stroke-opacity:1;filter:url(#filter4601)"
       transform="matrix(0.84838219,0,0,0.84838219,4.7311479,4.3506197)" />
    <path
       style="fill:none;stroke:#79520c;stroke-width:1px;stroke-linecap:butt;stroke-linejoin:miter;stroke-opacity:1;filter:url(#filter4601)"
       d="M 29.090909,49.454546 C 25.420096,41.833576 19.278701,27.903839 29.818182,11.090909"
       id="path4607"
       inkscape:connector-curvature="0"
       sodipodi:nodetypes="cc"
       transform="matrix(-0.84838219,0,0,0.84838219,58.433991,4.6591224)" />
    <path
       transform="matrix(-0.84838219,0,0,0.84838219,65.529551,3.7336146)"
       sodipodi:nodetypes="cc"
       inkscape:connector-curvature="0"
       id="path4609"
       d="M 30.909091,51.272728 C 21.601914,37.833576 19.278701,27.903839 29.818182,11.090909"
       style="fill:none;stroke:#7a4407;stroke-width:1px;stroke-linecap:butt;stroke-linejoin:miter;stroke-opacity:0.96923068;filter:url(#filter4650)" />
    <path
       style="fill:none;stroke:#91530e;stroke-width:1.60000002;stroke-linecap:butt;stroke-linejoin:miter;stroke-miterlimit:4;stroke-opacity:0.96923068;stroke-dasharray:none;filter:url(#filter4670)"
       d="M 22.181818,51.454545 C 6.7613993,35.708904 15.58659,14.131421 21.636364,10.545455"
       id="path4391"
       inkscape:connector-curvature="0"
       sodipodi:nodetypes="cc"
       transform="matrix(0.84838219,0,0,0.84838219,4.7311479,4.3506197)" />
    <path
       sodipodi:nodetypes="cc"
       inkscape:connector-curvature="0"
       id="path4393"
       d="m 29.272727,51.636364 c -6.552523,-3.108777 -7.409084,-33.568605 -0.727272,-40"
       style="fill:none;stroke:#7a4407;stroke-width:1.60000002;stroke-linecap:butt;stroke-linejoin:miter;stroke-miterlimit:4;stroke-opacity:0.96923068;stroke-dasharray:none;filter:url(#filter4658)"
       transform="matrix(0.84838219,0,0,0.84838219,4.7311479,4.3506197)" />
    <path
       style="fill:none;stroke:#7a4407;stroke-width:1.60000002;stroke-linecap:butt;stroke-linejoin:miter;stroke-miterlimit:4;stroke-opacity:0.96923068;stroke-dasharray:none;filter:url(#filter4666)"
       d="m 32,51.818182 c 7.092319,-2.254871 9.88397,-28.56804 1.454546,-40.181818"
       id="path4395"
       inkscape:connector-curvature="0"
       sodipodi:nodetypes="cc"
       transform="matrix(0.84838219,0,0,0.84838219,4.7311479,4.3506197)" />
    <path
       inkscape:connector-curvature="0"
       d="m 11.454545,21.403219 c 0,0.461228 0,0.922456 0,1.383685 0.0081,0.482468 -0.09425,0.956958 -0.135306,1.43617 -0.0401,0.555974 -0.0422,1.113797 -0.04621,1.670934 0.02029,0.517176 -0.01209,1.026602 -0.09533,1.5367 -0.05522,0.310121 -0.07144,0.624672 -0.08131,0.938885 -0.0079,0.350459 -0.0069,0.701042 -0.0066,1.051567 4.5e-4,0.363644 8.07e-4,0.727288 9.99e-4,1.090933 1.59e-4,0.413461 1.66e-4,0.826922 1.75e-4,1.240382 3e-6,0.424507 -2e-6,0.849014 -5e-6,1.27352 -0.0077,0.341421 -0.008,0.677091 0.04212,1.01409 0.06745,0.409442 0.181673,0.808276 0.24836,1.218775 0.02357,0.375639 0.111787,0.740085 0.172069,1.110543 0.03089,0.321596 0.166585,0.620146 0.258449,0.927927 0.142787,0.309394 0.233694,0.638471 0.338907,0.961689 0.111938,0.240237 0.180008,0.49647 0.264412,0.746834 0.407793,1.219261 -1.316503,1.795967 -1.724296,0.576706 l 0,0 C 10.605846,39.326586 10.532781,39.067772 10.421663,38.820984 10.31151,38.481417 10.209749,38.140331 10.068057,37.811873 9.9571593,37.429623 9.7922664,37.059542 9.7584116,36.658499 9.6994523,36.28736 9.6091853,35.921209 9.5858752,35.545038 9.5210913,35.126992 9.3905693,34.723592 9.3341424,34.304233 c -0.061759,-0.425111 -0.073631,-0.848984 -0.061412,-1.278249 2.6e-6,-0.42449 7.7e-6,-0.848979 4.5e-6,-1.273469 -8.9e-6,-0.413153 -1.56e-5,-0.826306 -1.743e-4,-1.239459 -1.926e-4,-0.363587 -5.5e-4,-0.727174 -9.991e-4,-1.090761 -2.301e-4,-0.370412 -0.0013,-0.74089 0.00759,-1.111223 0.012915,-0.392929 0.036088,-0.786031 0.1042208,-1.1739 0.068542,-0.417788 0.090604,-0.831828 0.071522,-1.256314 0.0044,-0.606297 0.00747,-1.213343 0.053257,-1.818245 0.038681,-0.425867 0.1233762,-0.848291 0.1282121,-1.275709 0,-0.461229 0,-0.922457 0,-1.383685 0,-1.285649 1.8181816,-1.285649 1.8181816,0 z"
       id="path4333"
       style="opacity:0.44390241;fill:#8f5902;fill-opacity:1;stroke:#f9bb15;stroke-width:0;stroke-miterlimit:4;stroke-opacity:0.84615377;stroke-dasharray:none;filter:url(#filter4347)"
       transform="matrix(0.84838219,0,0,0.84838219,4.7311479,4.3506197)" />
    <path
       style="opacity:0.44390241;fill:#8f5902;fill-opacity:1;stroke:#f9bb15;stroke-width:0;stroke-miterlimit:4;stroke-opacity:0.84615377;stroke-dasharray:none;filter:url(#filter4351)"
       id="path4335"
       d="m 19.454545,22.31231 c 0,0.461228 0,0.922456 0,1.383685 0.0081,0.482468 -0.09425,0.956958 -0.135306,1.43617 -0.0401,0.555974 -0.0422,1.113797 -0.04621,1.670934 0.02029,0.517176 -0.01209,1.026602 -0.09533,1.5367 -0.05522,0.310121 -0.07144,0.624672 -0.08131,0.938885 -0.0079,0.350459 -0.0069,0.701042 -0.0066,1.051567 4.5e-4,0.363644 8.07e-4,0.727288 9.99e-4,1.090933 1.59e-4,0.413461 1.66e-4,0.826922 1.75e-4,1.240382 3e-6,0.424507 -2e-6,0.849014 -5e-6,1.27352 -0.0077,0.341421 -0.008,0.677091 0.04212,1.01409 0.06745,0.409442 0.181673,0.808276 0.24836,1.218775 0.02357,0.375639 0.111787,0.740085 0.172069,1.110543 0.03089,0.321596 0.166585,0.620146 0.258449,0.927927 0.142787,0.309394 0.233694,0.638471 0.338907,0.961689 0.111938,0.240237 0.180008,0.49647 0.264412,0.746834 0.407793,1.219261 -1.316503,1.795967 -1.724296,0.576706 l 0,0 c -0.08513,-0.255973 -0.158198,-0.514787 -0.269316,-0.761575 -0.110153,-0.339567 -0.211914,-0.680653 -0.353606,-1.009111 -0.110898,-0.38225 -0.275791,-0.752331 -0.309645,-1.153374 -0.05896,-0.371139 -0.149227,-0.73729 -0.172537,-1.113461 -0.06478,-0.418046 -0.195306,-0.821446 -0.251733,-1.240805 -0.06176,-0.425111 -0.07363,-0.848984 -0.06141,-1.278249 3e-6,-0.42449 8e-6,-0.848979 5e-6,-1.273469 -9e-6,-0.413153 -1.6e-5,-0.826306 -1.74e-4,-1.239459 -1.93e-4,-0.363587 -5.5e-4,-0.727174 -0.001,-1.090761 -2.3e-4,-0.370412 -0.0013,-0.74089 0.0076,-1.111223 0.01291,-0.392929 0.03609,-0.786031 0.104221,-1.1739 0.06854,-0.417788 0.0906,-0.831828 0.07152,-1.256314 0.0044,-0.606297 0.0075,-1.213343 0.05326,-1.818245 0.03868,-0.425867 0.123376,-0.848291 0.128212,-1.275709 0,-0.461229 0,-0.922457 0,-1.383685 0,-1.285649 1.818182,-1.285649 1.818182,0 z"
       inkscape:connector-curvature="0"
       transform="matrix(0.84838219,0,0,0.84838219,4.7311479,4.3506197)" />
    <path
       inkscape:connector-curvature="0"
       d="m 31.636363,21.585037 c 0,0.461228 0,0.922456 0,1.383685 0.0081,0.482468 -0.09425,0.956958 -0.135306,1.43617 -0.0401,0.555974 -0.0422,1.113797 -0.04621,1.670934 0.02029,0.517176 -0.01209,1.026602 -0.09533,1.5367 -0.05522,0.310121 -0.07144,0.624672 -0.08131,0.938885 -0.0079,0.350459 -0.0069,0.701042 -0.0066,1.051567 4.5e-4,0.363644 8.07e-4,0.727288 9.99e-4,1.090933 1.59e-4,0.413461 1.66e-4,0.826922 1.75e-4,1.240382 3e-6,0.424507 -2e-6,0.849014 -5e-6,1.27352 -0.0077,0.341421 -0.008,0.677091 0.04212,1.01409 0.06745,0.409442 0.181673,0.808276 0.24836,1.218775 0.02357,0.375639 0.111787,0.740085 0.172069,1.110543 0.03089,0.321596 0.166585,0.620146 0.258449,0.927927 0.142787,0.309394 0.233694,0.638471 0.338907,0.961689 0.111938,0.240237 0.180008,0.49647 0.264412,0.746834 0.407793,1.219261 -1.316503,1.795967 -1.724296,0.576706 l 0,0 C 30.787667,39.508404 30.714599,39.24959 30.603481,39.002802 30.493328,38.663235 30.391567,38.322149 30.249875,37.993691 30.138977,37.611441 29.974084,37.24136 29.94023,36.840317 29.88127,36.469178 29.791003,36.103027 29.767693,35.726856 29.702913,35.30881 29.572387,34.90541 29.51596,34.486051 29.4542,34.06094 29.44233,33.637067 29.45455,33.207802 c 3e-6,-0.42449 8e-6,-0.848979 5e-6,-1.273469 -9e-6,-0.413153 -1.6e-5,-0.826306 -1.74e-4,-1.239459 -1.93e-4,-0.363587 -5.5e-4,-0.727174 -0.001,-1.090761 -2.3e-4,-0.370412 -0.0013,-0.74089 0.0076,-1.111223 0.01291,-0.392929 0.03609,-0.786031 0.104221,-1.1739 0.06854,-0.417788 0.0906,-0.831828 0.07152,-1.256314 0.0044,-0.606297 0.0075,-1.213343 0.05326,-1.818245 0.03868,-0.425867 0.123376,-0.848291 0.128212,-1.275709 0,-0.461229 0,-0.922457 0,-1.383685 0,-1.285649 1.818182,-1.285649 1.818182,0 z"
       id="path4337"
       style="opacity:0.44390241;fill:#8f5902;fill-opacity:1;stroke:#f9bb15;stroke-width:0;stroke-miterlimit:4;stroke-opacity:0.84615377;stroke-dasharray:none;filter:url(#filter4355)"
       transform="matrix(0.84838219,0,0,0.84838219,4.7311479,4.3506197)" />
    <path
       transform="matrix(-0.84838219,0,0,0.84838219,75.93371,4.3506197)"
       style="opacity:0.44390241;fill:#8f5902;fill-opacity:1;stroke:#f9bb15;stroke-width:0;stroke-miterlimit:4;stroke-opacity:0.84615377;stroke-dasharray:none;filter:url(#filter4359)"
       id="path4339"
       d="m 42.545454,21.766855 c 0,0.461228 0,0.922456 0,1.383685 0.0081,0.482468 -0.09425,0.956958 -0.135306,1.43617 -0.0401,0.555974 -0.0422,1.113797 -0.04621,1.670934 0.02029,0.517176 -0.01209,1.026602 -0.09533,1.5367 -0.05522,0.310121 -0.07144,0.624672 -0.08131,0.938885 -0.0079,0.350459 -0.0069,0.701042 -0.0066,1.051567 4.5e-4,0.363644 8.07e-4,0.727288 9.99e-4,1.090933 1.59e-4,0.413461 1.66e-4,0.826922 1.75e-4,1.240382 3e-6,0.424507 -2e-6,0.849014 -5e-6,1.27352 -0.0077,0.341421 -0.008,0.677091 0.04212,1.01409 0.06745,0.409442 0.181673,0.808276 0.24836,1.218775 0.02357,0.375639 0.111787,0.740085 0.172069,1.110543 0.03089,0.321596 0.166585,0.620146 0.258449,0.927927 0.142787,0.309394 0.233694,0.638471 0.338907,0.961689 0.111938,0.240237 0.180008,0.49647 0.264412,0.746834 0.407793,1.219261 -1.316503,1.795967 -1.724296,0.576706 l 0,0 c -0.08513,-0.255973 -0.158198,-0.514787 -0.269316,-0.761575 -0.110153,-0.339567 -0.211914,-0.680653 -0.353606,-1.009111 -0.110898,-0.38225 -0.275791,-0.752331 -0.309645,-1.153374 -0.05896,-0.371139 -0.149227,-0.73729 -0.172537,-1.113461 -0.06478,-0.418046 -0.195306,-0.821446 -0.251733,-1.240805 -0.06176,-0.425111 -0.07363,-0.848984 -0.06141,-1.278249 3e-6,-0.42449 8e-6,-0.848979 5e-6,-1.273469 -9e-6,-0.413153 -1.6e-5,-0.826306 -1.74e-4,-1.239459 -1.93e-4,-0.363587 -5.5e-4,-0.727174 -0.001,-1.090761 -2.3e-4,-0.370412 -0.0013,-0.74089 0.0076,-1.111223 0.01291,-0.392929 0.03609,-0.786031 0.104221,-1.1739 0.06854,-0.417788 0.0906,-0.831828 0.07152,-1.256314 0.0044,-0.606297 0.0075,-1.213343 0.05326,-1.818245 0.03868,-0.425867 0.123376,-0.848291 0.128212,-1.275709 0,-0.461229 0,-0.922457 0,-1.383685 0,-1.285649 1.818182,-1.285649 1.818182,0 z"
       inkscape:connector-curvature="0" />
    <path
       transform="matrix(-0.84838219,0,0,0.84838219,93.20985,4.3506197)"
       inkscape:connector-curvature="0"
       d="m 52.727272,20.857764 c 0,0.461228 0,0.922456 0,1.383685 0.0081,0.482468 -0.09425,0.956958 -0.135306,1.43617 -0.0401,0.555974 -0.0422,1.113797 -0.04621,1.670934 0.02029,0.517176 -0.01209,1.026602 -0.09533,1.5367 -0.05522,0.310121 -0.07144,0.624672 -0.08131,0.938885 -0.0079,0.350459 -0.0069,0.701042 -0.0066,1.051567 4.5e-4,0.363644 8.07e-4,0.727288 9.99e-4,1.090933 1.59e-4,0.413461 1.66e-4,0.826922 1.75e-4,1.240382 3e-6,0.424507 -2e-6,0.849014 -5e-6,1.27352 -0.0077,0.341421 -0.008,0.677091 0.04212,1.01409 0.06745,0.409442 0.181673,0.808276 0.24836,1.218775 0.02357,0.375639 0.111787,0.740085 0.172069,1.110543 0.03089,0.321596 0.166585,0.620146 0.258449,0.927927 0.142787,0.309394 0.233694,0.638471 0.338907,0.961689 0.111938,0.240237 0.180008,0.49647 0.264412,0.746834 0.407793,1.219261 -1.316503,1.795967 -1.724296,0.576706 l 0,0 c -0.08513,-0.255973 -0.158198,-0.514787 -0.269316,-0.761575 -0.110153,-0.339567 -0.211914,-0.680653 -0.353606,-1.009111 -0.110898,-0.38225 -0.275791,-0.752331 -0.309645,-1.153374 -0.05896,-0.371139 -0.149227,-0.73729 -0.172537,-1.113461 -0.06478,-0.418046 -0.195306,-0.821446 -0.251733,-1.240805 -0.06176,-0.425111 -0.07363,-0.848984 -0.06141,-1.278249 3e-6,-0.42449 8e-6,-0.848979 5e-6,-1.273469 -9e-6,-0.413153 -1.6e-5,-0.826306 -1.74e-4,-1.239459 -1.93e-4,-0.363587 -5.5e-4,-0.727174 -0.001,-1.090761 -2.3e-4,-0.370412 -0.0013,-0.74089 0.0076,-1.111223 0.01291,-0.392929 0.03609,-0.786031 0.104221,-1.1739 0.06854,-0.417788 0.0906,-0.831828 0.07152,-1.256314 0.0044,-0.606297 0.0075,-1.213343 0.05326,-1.818245 0.03868,-0.425867 0.123376,-0.848291 0.128212,-1.275709 0,-0.461229 0,-0.922457 0,-1.383685 0,-1.285649 1.818182,-1.285649 1.818182,0 z"
       id="path4341"
       style="opacity:0.44390241;fill:#8f5902;fill-opacity:1;stroke:#f9bb15;stroke-width:0;stroke-miterlimit:4;stroke-opacity:0.84615377;stroke-dasharray:none;filter:url(#filter4363)" />
    <path
       style="fill:#8f5902;stroke:#130206;stroke-width:0;stroke-linecap:butt;stroke-linejoin:miter;stroke-miterlimit:4;stroke-opacity:0.84615383;stroke-dasharray:none"
       d="m 29.832096,13.744234 c 0,0 -0.04734,-3.8805389 1.060477,-5.3023877 1.010663,-1.2971631 4.454007,-2.1209554 4.454007,-2.1209554 0.333215,0.7776881 1.204196,1.555363 0,2.333051 0,0 -2.387559,0.5433358 -2.969337,1.4846691 -0.780537,1.262936 0,4.454006 0,4.454006 z"
       id="path6453"
       inkscape:connector-curvature="0"
       sodipodi:nodetypes="csccscc" />
    <rect
       style="fill:#c17d11;fill-opacity:0.39053255;stroke:#130206;stroke-width:0;stroke-miterlimit:4;stroke-opacity:0.84615383;stroke-dasharray:none"
       id="rect6457"
       width="1.8448526"
       height="1.7839086"
       x="30.044191"
       y="11.748232"
       ry="0" />
    <path
       style="fill:#ffff00;fill-opacity:1;stroke:#cb5322;stroke-width:0.67870575;stroke-linecap:butt;stroke-linejoin:miter;stroke-miterlimit:4;stroke-opacity:0.88461537;stroke-dasharray:none"
       d="m 26.652569,32.994663 4.118228,-7.159074 3.513399,7.207431 z"
       id="path6480"
       inkscape:connector-curvature="0"
       sodipodi:nodetypes="cccc" />
    <path
       sodipodi:nodetypes="cccc"
       inkscape:connector-curvature="0"
       id="path6482"
       d="m 34.075914,22.702515 4.118227,7.159073 3.725495,-10.176769 c -4.028544,2.892028 -4.027275,5.956875 -7.843722,3.017696 z"
       style="fill:#ffff00;fill-opacity:1;stroke:#cb5322;stroke-width:0.27900000000000003;stroke-linecap:butt;stroke-linejoin:miter;stroke-miterlimit:4;stroke-opacity:0.88461537000000001;stroke-dasharray:none" />
    <path
       sodipodi:nodetypes="cscccccccccsccccccccccccccc"
       style="fill:#ffff00;fill-opacity:1;stroke:#cb5322;stroke-width:0;stroke-linecap:butt;stroke-linejoin:miter;stroke-miterlimit:4;stroke-opacity:0.88461537000000001;stroke-dasharray:none"
       d="m 17.490733,32.581091 c 0.394578,2.5483 1.660076,4.263292 2.83256,7.212707 0.960484,2.416125 2.8577,3.895519 5.462799,4.667029 l 0.202328,-2.12138 2.023259,0 0.404651,2.757799 2.225584,-0.19432 2.225586,0.19432 0.404651,-2.757799 2.023259,0 0.202329,2.12138 c 2.263589,-1.113024 4.413687,-2.339534 5.462799,-4.667029 1.304259,-2.893555 2.43799,-4.664407 2.832561,-7.212707 -1.735314,2.178564 -3.409803,4.548441 -5.665125,5.091313 l -0.202326,1.909244 -2.225584,-0.42427 0,-1.484974 -3.641868,0.424284 -0.202325,2.757799 -1.213957,-0.424284 -1.213955,0.424284 -0.202324,-2.757799 -3.641869,-0.424284 0,1.484974 -2.379835,0.270019 -0.04807,-1.754993 c -2.255325,-0.542872 -3.929814,-2.912749 -5.665125,-5.091313 z"
       id="path6467"
       inkscape:connector-curvature="0" />
    <path
       style="fill:#ffff00;fill-opacity:1;stroke:#cb5322;stroke-width:0.27900000000000003;stroke-linecap:butt;stroke-linejoin:miter;stroke-miterlimit:4;stroke-opacity:0.88461537000000001;stroke-dasharray:none"
       d="m 24.007204,22.297611 -4.118229,7.159073 -3.725497,-10.176769 c 4.028547,2.89203 4.027277,5.956877 7.843726,3.017696 z"
       id="path6484"
       inkscape:connector-curvature="0"
       sodipodi:nodetypes="cccc" />
    <path
       style="fill:none;stroke:#c24d0c;stroke-width:0.30000001;stroke-linecap:butt;stroke-linejoin:miter;stroke-miterlimit:4;stroke-opacity:1;stroke-dasharray:none;filter:url(#filter4706)"
       d="M 14.363636,19.454545 18,29.090909 22.363637,21.454545"
       id="path4682"
       inkscape:connector-curvature="0"
       sodipodi:nodetypes="ccc"
       transform="matrix(0.84838219,0,0,0.84838219,4.7311479,4.3506197)" />
    <path
       style="fill:none;stroke:#c24d0c;stroke-width:0.30000001;stroke-linecap:butt;stroke-linejoin:miter;stroke-miterlimit:4;stroke-opacity:1;stroke-dasharray:none;filter:url(#filter4714)"
       d="m 30.181818,26.181818 -3.818182,7.090909 8.181818,0.181818"
       id="path4684"
       inkscape:connector-curvature="0"
       sodipodi:nodetypes="ccc"
       transform="matrix(0.84838219,0,0,0.84838219,4.7311479,4.3506197)" />
    <path
       style="fill:none;stroke:#c24d0c;stroke-width:0;stroke-linecap:butt;stroke-linejoin:miter;stroke-miterlimit:4;stroke-opacity:1;stroke-dasharray:none;filter:url(#filter4710)"
       d="m 35.454545,22.727273 3.636364,6.363636 4,-10.363636"
       id="path4686"
       inkscape:connector-curvature="0"
       sodipodi:nodetypes="ccc"
       transform="matrix(0.84838219,0,0,0.84838219,4.7311479,4.3506197)" />
    <path
       style="fill:none;stroke:#a8420c;stroke-width:1.10000002000000000;stroke-linecap:butt;stroke-linejoin:miter;stroke-miterlimit:4;stroke-opacity:1;stroke-dasharray:none;filter:url(#filter5170)"
       d="M 17.818182,33.454545 20,38.181818 l 1.090909,2.545455 2.363636,2.727272 2,1.09091 0.181819,0.181818 L 25.818182,42 28,42.181818 l 0.363636,2.727273 4.727274,0.363636 0.181817,-2.909091 2.181818,0 0,2.545455 3.09091,-2.363636 1.818181,-1.09091 0.727273,-2 L 42,37.272727 l 0.909091,-1.636363 0.909091,-2.727273"
       id="path5164"
       inkscape:connector-curvature="0"
       sodipodi:nodetypes="ccccccccccccccccccc" />
  </g>
</svg>
