<?xml version="1.0"?>
<svg xmlns:rdf="http://www.w3.org/1999/02/22-rdf-syntax-ns#" xmlns="http://www.w3.org/2000/svg" xmlns:cc="http://creativecommons.org/ns#" xmlns:xlink="http://www.w3.org/1999/xlink" xmlns:dc="http://purl.org/dc/elements/1.1/" id="svg2" viewBox="0 0 256 256" version="1.1">
  <defs id="defs4">
    <linearGradient id="linearGradient3669">
      <stop id="stop3671" stop-color="#ffd73b" offset="0"/>
      <stop id="stop3673" stop-color="#ee8400" offset="1"/>
    </linearGradient>
    <filter id="filter3641" height="1.5977" width="1.0943" color-interpolation-filters="sRGB" y="-.29883" x="-.047150">
      <feGaussianBlur id="feGaussianBlur3643" stdDeviation="0.67728367"/>
    </filter>
    <filter id="filter3866" height="1.5887" width="1.5832" color-interpolation-filters="sRGB" y="-.29437" x="-.29160">
      <feGaussianBlur id="feGaussianBlur3868" stdDeviation="3.7554505"/>
    </filter>
    <filter id="filter3900" height="1.3351" width="1.2598" color-interpolation-filters="sRGB" y="-.16757" x="-.12989">
      <feGaussianBlur id="feGaussianBlur3902" stdDeviation="3.9990335"/>
    </filter>
    <filter id="filter3912" height="1.2909" width="1.1581" color-interpolation-filters="sRGB" y="-.14544" x="-.079065">
      <feGaussianBlur id="feGaussianBlur3914" stdDeviation="0.39212011"/>
    </filter>
    <filter id="filter3927" height="1.5755" width="1.2527" color-interpolation-filters="sRGB" y="-.28774" x="-.12637">
      <feGaussianBlur id="feGaussianBlur3929" stdDeviation="1.1537473"/>
    </filter>
    <linearGradient id="linearGradient3252" y2="55.5" xlink:href="#linearGradient3669" gradientUnits="userSpaceOnUse" x2="192.25" gradientTransform="translate(99.731 721.83)" y1="72.875" x1="183.12"/>
    <linearGradient id="linearGradient3258" y2="21.311" xlink:href="#linearGradient3669" gradientUnits="userSpaceOnUse" x2="37.241" gradientTransform="matrix(6.4001 0 0 6.4001 62.926 686.3)" y1="24.615" x1="29.023"/>
    <linearGradient id="linearGradient3261" y2="1017.5" xlink:href="#linearGradient3669" gradientUnits="userSpaceOnUse" x2="15.644" gradientTransform="matrix(6.4001 0 0 6.4001 56.176 -5747.5)" y1="1023.9" x1="22.384"/>
    <linearGradient id="linearGradient3264" y2="814.86" gradientUnits="userSpaceOnUse" x2="119" gradientTransform="translate(99.731 -74.532)" y1="843.86" x1="147.5">
      <stop id="stop3933" stop-color="#5f6b21" offset="0"/>
      <stop id="stop3935" stop-color="#39a905" offset="1"/>
    </linearGradient>
    <linearGradient id="linearGradient3267" y2="29.106" xlink:href="#linearGradient3669" gradientUnits="userSpaceOnUse" x2="31.867" gradientTransform="matrix(6.4001 0 0 6.4001 62.926 686.3)" y1="29.051" x1="24.367"/>
    <linearGradient id="linearGradient3270" y2="29.798" xlink:href="#linearGradient3669" gradientUnits="userSpaceOnUse" x2="17.828" gradientTransform="matrix(6.4001 0 0 6.4001 62.926 686.3)" y1="25.848" x1="8.9687"/>
    <linearGradient id="linearGradient3273" y2="26.058" xlink:href="#linearGradient3669" gradientUnits="userSpaceOnUse" x2="25.219" gradientTransform="matrix(6.4001 0 0 6.4001 62.926 378.03)" y1="26.721" x1="14.27"/>
    <radialGradient id="radialGradient3279" gradientUnits="userSpaceOnUse" cy="1021.1" cx="27.844" gradientTransform="matrix(2.745 4.3867 -6.8695 4.2987 7149.4 -3635.7)" r="17.592">
      <stop id="stop3691" stop-color="#fff690" offset="0"/>
      <stop id="stop3693" stop-color="#f2ff00" offset="1"/>
    </radialGradient>
    <radialGradient id="radialGradient3291" xlink:href="#linearGradient3669" gradientUnits="userSpaceOnUse" cy="1023.9" cx="17.36" gradientTransform="matrix(2.5639 5.7921 -4.9198 2.1778 5167 -1814.9)" r="17.592"/>
    <linearGradient id="linearGradient3298" y2="839.87" gradientUnits="userSpaceOnUse" x2="225.04" y1="913.06" x1="161.89">
      <stop id="stop3703" stop-color="#704608" offset="0"/>
      <stop id="stop3705" stop-color="#ab8855" offset="1"/>
    </linearGradient>
  </defs>
  <g id="layer1" transform="translate(0 -796.36)">
    <g id="g3300" transform="translate(-95.178 68.731)">
      <path id="path3317" d="m40.943 39.253c0 1.5021-7.7174 2.7198-17.237 2.7198-9.5199 0-17.237-1.2177-17.237-2.7198s7.7174-2.7198 17.237-2.7198c9.5199 0 17.237 1.2177 17.237 2.7198z" fill-rule="evenodd" fill-opacity=".76863" transform="matrix(5.7451 0 0 7.092 79.395 665.73)" filter="url(#filter3641)"/>
      <path id="path3319" style="color:#000000" d="m118.53 830.5c-7.9911 18.169-12.564 50.957-6.3002 75.301 11.277 43.828 68.201 52.401 86.901 47.801 39.716 5.0451 82.802 6.5 107.5-15.2 20.399-17.922 26.941-38.985 26.6-67.101-0.85637-70.686-45.6-103.6-103.9-89.002-45.201-15.9-88.636-2.1957-110.8 48.201z" fill="url(#radialGradient3279)"/>
      <path id="path3286" d="m176.75 821.46c-6.3612 1.4496-1.7911 7.2386-0.96875 11.531 2.4336 3.4166 0.90647 12.848 6.5625 11.094 11.402-1.1083 22.714 3.8027 31.281 10.781 6.7148-6.4308 13.414-12.877 20.125-19.312-4.0459-2.5926-8.1992 6.7243-12.292 8.909-2.9539 3.8162-5.7696 6.213-9.3331 1.9972-8.3925-5.315-18.542-8.4597-28.531-7.0312-1.8102-6.2676-3.8342-12.357-5.7812-18.531l-0.88379 0.46789-0.17871 0.0946zm-10.469 7.4375c-12.591 11.642-18.602 29.558-16.812 46.594 1.6067-1.0775-0.29875 4.6255 1 6.1875 4.2025 22.321 24.16 41.712 47.688 40.781 12.454-0.34694 25.049-6.2362 32.59-16.085-0.0911-2.9902-5.0398 2.8203-7.2776 3.866-17.203 12.527-42.964 8.4522-56.281-7.8438-5.1702-5.4092-7.3665-12.577-12.625-17.844-3.8978-4.504-2.5195-9.8996-0.46875-14.906-1.0272-14.699 4.6699-29.188 13.949-40.321 1.3517-2.1973-0.71918-0.76822-1.7615-0.42894zm6.72 14.06c-3.7638 2.3818-8.0028 4.9025-9.625 9.25 4.2665-1.573 7.3369-5.3015 11.875-6.5312-0.85518-0.64299-0.45973-4.745-2.25-2.7188zm46.625 10.375c-5.7265 2.4833-2.4189 5.0559 0.65079 7.978 10.544 11.54 14.867 27.7 12.755 43.053 3.9042-4.5564 6.4088-10 5.0938-16.094-1.05-13.586-7.8895-26.378-17.812-35.531l-0.6875 0.59375zm-52.156 10.656c-8.4651 4.1763-3.3803 20.423 6.125 17.688 2.5411-0.96586 3.7278-3.5437 4.875-5.8125-5.8309 4.503-11.95-3.1284-10.219-8.875 0.67873-2.5802 3.682-6.2209-0.78125-3zm37 11c-8.4651 4.1763-3.3803 20.423 6.125 17.688 2.5411-0.96586 3.7278-3.5437 4.875-5.8125-5.8309 4.503-11.95-3.1284-10.219-8.875 0.67873-2.5802 3.682-6.2209-0.78125-3zm28.344 29.656c0.23017-0.11186-0.0853-0.14156 0 0z" fill="url(#linearGradient3298)"/>
      <path id="path3321" style="color:#000000" d="m193.06 467.78c-31.08 0.6-58.46 17.85-74.56 54.47-7.9911 18.169-12.545 50.937-6.2812 75.281 11.277 43.828 68.206 52.412 86.906 47.812 39.716 5.0451 82.8 6.4816 107.5-15.219 20.399-17.922 26.934-38.978 26.594-67.094-0.85637-70.686-45.605-103.6-103.91-89-11.3-3.975-22.475-6.0863-33.25-6.25-1.0101-0.0154-1.9974-0.0192-3 0zm3.875 41.438c14.15 0 26.802 7.0143 35.375 18.062l-18.75 18c-8.3072-6.5802-18.133-10.533-27.594-10.625-2.0005-0.0195-3.9865 0.13218-5.9375 0.46875-1.8417-6.3869-4.8868-15.808-6-19.25 6.7683-4.2385 14.586-6.6562 22.906-6.6562zm-28.94 11.16l5.9688 16.469c-10.36 4.1181-19.122 14.306-23.219 32.562-0.38042-2.6712-0.5625-5.3973-0.5625-8.1875 0-16.569 6.9596-31.321 17.812-40.844zm67.938 12.188c4.8942 8.2201 7.75 18.059 7.75 28.656 0 11.843-3.569 22.758-9.5625 31.5 2.1082-17.469-5.4687-33.51-16.906-44.281l18.719-15.875zm-65.906 23.594c0.21851 0.005 0.43188 0.028 0.65625 0.0625 3.5898 0.55228 6.5 4.6936 6.5 9.25s-2.9102 7.8023-6.5 7.25c-3.5898-0.55228-6.5-4.6936-6.5-9.25 0-4.2716 2.5661-7.3943 5.8438-7.3125zm37 11c0.21851 0.005 0.43188 0.028 0.65625 0.0625 3.5898 0.55228 6.5 4.6936 6.5 9.25s-2.9102 7.8023-6.5 7.25c-3.5898-0.55228-6.5-4.6936-6.5-9.25 0-4.2716 2.5661-7.3943 5.8438-7.3125zm-56.03 3.81c7.0519 24.239 57.17 31.448 80.344 25.438-8.5444 10.336-20.788 16.812-34.406 16.812-22.819 0-41.829-18.199-45.938-42.25z" transform="translate(0 308.27)" fill="url(#radialGradient3291)"/>
      <path id="path3323" style="color:#000000" d="m209.97 497.62c-1.3696 4.3554-2.6557 8.5174-3.875 12.594 0.87272 0.19336 1.7394 0.4095 2.5938 0.65625 1.2962-7.2033 1.8588-12.095 1.2812-13.25zm-11.35 39.32c-5.906 22.61-9.5347 40.932-12.625 58.312 0.95731 0.23072 1.938 0.41997 2.9062 0.625 4.5086-17.819 9.7102-38.854 13.906-57.219-1.378-0.6328-2.7822-1.2295-4.1875-1.7188zm-15.375 74c-1.2503 7.2632-2.5068 14.522-3.9062 22.062 0 0 2.3015-8.7096 5.5938-21.531-0.56279-0.16611-1.1332-0.3426-1.6875-0.53125z" transform="translate(0 308.27)" fill="url(#linearGradient3273)"/>
      <path id="path3325" style="color:#000000" d="m197.65 798.57c-70.245 28.458-77.248 111.47-71.522 131.07 0.3734-34.774 16.1-106.43 71.522-131.07z" fill="url(#linearGradient3270)"/>
      <path id="path3327" style="color:#000000" d="m236.2 806.76c1.9602 12.372 19.776 106.06 13.012 129.53 10.916-33.076 0.49777-106.19-13.012-129.53z" fill="url(#linearGradient3267)"/>
      <path id="path3329" style="color:#000000" d="m223.57 783.86c7.5448-25.606 12.221-33.501 24.47-44.624 13.04-3.4273 25.494-1.2867 23.917 10.941-22.558 17.618-16.346 15.167-34.573 37.421-6.2733 1.2678-12.547 2.5356-13.814-3.7377z" fill="url(#linearGradient3264)"/>
      <path id="path3331" style="color:#000000" d="m194.56 785.83c-10.54-3.5438-24.159-1.497-36.26-0.66562l-6.3205 3.6596c11.868-1.2832 32.481-6.1332 42.58-2.994z" fill="url(#linearGradient3261)"/>
      <path id="path3333" style="color:#000000" d="m269.18 802.73c21.981 17.712 39.521 90.721 37.746 118.13 11.108-41.271-13.074-104.92-37.746-118.13z" fill="url(#linearGradient3258)"/>
      <path id="path3335" style="color:#000000" d="m10.967 21.128c2.55-1.947 7.086-6.078 11.903-6.134-0.459-0.856-9.82-0.503-11.903 6.134z" fill-opacity=".34821" transform="matrix(6.4001 0 0 6.4001 58.926 684.8)" filter="url(#filter3912)" fill="#fff"/>
      <path id="path3337" d="m47.73 182.64c0 9.275-6.0151 16.794-13.435 16.794-7.42 0-13.435-7.5188-13.435-16.794 0-9.275 6.0151-16.794 13.435-16.794 7.42 0 13.435 7.5188 13.435 16.794z" fill-opacity=".31696" transform="matrix(.80272 -.59635 .65913 .88722 -11.764 775.61)" filter="url(#filter3866)" fill="#fff"/>
      <path id="path3339" d="m255.65 954.85c28.242-13.948 54.147-28.049 73.893-57.276 0 0-6.1872 58.69-73.893 57.276z" fill-opacity=".19643" filter="url(#filter3900)"/>
      <path id="path3341" fill="url(#linearGradient3252)" d="m288.42 785.8-7.8125 0.15625 10.656 1.25c-0.93725-0.48914-1.8817-0.95974-2.8438-1.4062z"/>
      <path id="path3343" d="m249.11 739.53c8.7836 1.187 17.138 2.8983 21.744 9.1924 0 0 3.5355-12.021-21.744-9.1924z" fill-opacity=".35714" filter="url(#filter3927)" fill="#fff"/>
    </g>
  </g>
  <metadata>
    <rdf:RDF>
      <cc:Work>
        <dc:format>image/svg+xml</dc:format>
        <dc:type rdf:resource="http://purl.org/dc/dcmitype/StillImage"/>
        <cc:license rdf:resource="http://creativecommons.org/licenses/publicdomain/"/>
        <dc:publisher>
          <cc:Agent rdf:about="http://openclipart.org/">
            <dc:title>Openclipart</dc:title>
          </cc:Agent>
        </dc:publisher>
      </cc:Work>
      <cc:License rdf:about="http://creativecommons.org/licenses/publicdomain/">
        <cc:permits rdf:resource="http://creativecommons.org/ns#Reproduction"/>
        <cc:permits rdf:resource="http://creativecommons.org/ns#Distribution"/>
        <cc:permits rdf:resource="http://creativecommons.org/ns#DerivativeWorks"/>
      </cc:License>
    </rdf:RDF>
  </metadata>
</svg>
