<?xml version="1.0" encoding="UTF-8" standalone="no"?>
<!-- Created with Inkscape (http://www.inkscape.org/) -->
<svg xmlns:inkscape="http://www.inkscape.org/namespaces/inkscape" xmlns:rdf="http://www.w3.org/1999/02/22-rdf-syntax-ns#" xmlns="http://www.w3.org/2000/svg" xmlns:cc="http://creativecommons.org/ns#" xmlns:dc="http://purl.org/dc/elements/1.1/" xmlns:sodipodi="http://sodipodi.sourceforge.net/DTD/sodipodi-0.dtd" id="svg2" inkscape:version="0.48.3.1 r9886" viewBox="0 0 631.08523 591.39025" version="1.1" sodipodi:docname="_svgclean2.svg">
  <sodipodi:namedview id="base" bordercolor="#666666" inkscape:pageshadow="2" inkscape:window-y="0" pagecolor="#ffffff" inkscape:zoom="0.3046927" inkscape:window-width="743" inkscape:window-maximized="0" inkscape:window-x="0" showgrid="false" borderopacity="1.0" inkscape:current-layer="layer1" inkscape:cx="109.03802" inkscape:cy="11.098836" inkscape:document-units="px" inkscape:window-height="484" inkscape:pageopacity="0.0" showguides="false"/>
  <g id="layer1" inkscape:label="Layer 1" inkscape:groupmode="layer" transform="translate(-45.83 -85.622)">
    <g id="g3268">
      <g id="g4106" style="stroke:#000000;fill:none">
        <path id="path3262" style="stroke:#000000;stroke-width:10;fill:none" sodipodi:revolution="3.9913325" sodipodi:type="spiral" d="m712.14 123.01c80.447 87.82 68.654 227.44-18.357 306.22-96.64 87.5-249.49 74.28-335.37-21.51-94.56-105.47-79.91-271.54 24.66-364.53 114.28-101.63 293.6-85.547 393.69 27.811 108.69 123.1 91.18 315.66-30.97 422.84-131.91 115.76-337.72 96.816-452-34.117-1.8649-2.1366-3.7023-4.2972-5.5116-6.481" transform="matrix(.83179 .55509 -.55509 .83179 62.633 -155.4)" sodipodi:argument="-16.305519" sodipodi:cy="252.36218" sodipodi:cx="551.42859" sodipodi:expansion="1" sodipodi:radius="331.05994" sodipodi:t0="0.6231612"/>
        <ellipse id="path4098" sodipodi:rx="37.942001" sodipodi:cy="374.67001" style="stroke:#000000;stroke-width:15.561;stroke-linecap:round;fill:#000000" d="m 323.71199,374.67001 c 0,22.18749 -16.98721,40.174 -37.942,40.174 -20.95479,0 -37.942,-17.98651 -37.942,-40.174 0,-22.18748 16.98721,-40.174 37.942,-40.174 20.95479,0 37.942,17.98652 37.942,40.174 z" sodipodi:ry="40.174" rx="37.942" ry="40.174" cy="374.67" cx="285.77" sodipodi:cx="285.76999"/>
        <ellipse id="ellipse4100" sodipodi:rx="37.942001" sodipodi:cy="369.56" style="stroke:#000000;stroke-width:15.561;stroke-linecap:round;fill:#000000" d="m 512.35201,369.56 c 0,22.18748 -16.98722,40.174 -37.94201,40.174 -20.95479,0 -37.942,-17.98652 -37.942,-40.174 0,-22.18749 16.98721,-40.174 37.942,-40.174 20.95479,0 37.94201,17.98651 37.94201,40.174 z" sodipodi:ry="40.174" rx="37.942" ry="40.174" cy="369.56" cx="474.41" sodipodi:cx="474.41"/>
      </g>
    </g>
  </g>
  <metadata id="metadata10">
    <rdf:RDF>
      <cc:Work>
        <dc:format>image/svg+xml</dc:format>
        <dc:type rdf:resource="http://purl.org/dc/dcmitype/StillImage"/>
        <cc:license rdf:resource="http://creativecommons.org/licenses/publicdomain/"/>
        <dc:publisher>
          <cc:Agent rdf:about="http://openclipart.org/">
            <dc:title>Openclipart</dc:title>
          </cc:Agent>
        </dc:publisher>
      </cc:Work>
      <cc:License rdf:about="http://creativecommons.org/licenses/publicdomain/">
        <cc:permits rdf:resource="http://creativecommons.org/ns#Reproduction"/>
        <cc:permits rdf:resource="http://creativecommons.org/ns#Distribution"/>
        <cc:permits rdf:resource="http://creativecommons.org/ns#DerivativeWorks"/>
      </cc:License>
    </rdf:RDF>
  </metadata>
</svg>
