<?xml version="1.0" encoding="UTF-8" standalone="no"?>
<!-- Created with Inkscape (http://www.inkscape.org/) -->
<svg
   xmlns:dc="http://purl.org/dc/elements/1.1/"
   xmlns:cc="http://creativecommons.org/ns#"
   xmlns:rdf="http://www.w3.org/1999/02/22-rdf-syntax-ns#"
   xmlns:svg="http://www.w3.org/2000/svg"
   xmlns="http://www.w3.org/2000/svg"
   xmlns:sodipodi="http://sodipodi.sourceforge.net/DTD/sodipodi-0.dtd"
   xmlns:inkscape="http://www.inkscape.org/namespaces/inkscape"
   id="svg2"
   sodipodi:version="0.32"
   inkscape:version="0.46"
   width="128"
   height="128"
   xml:space="preserve"
   sodipodi:docname="scissors_closed.svg"
   inkscape:output_extension="org.inkscape.output.svg.inkscape"
   version="1.0"><metadata
     id="metadata7"><rdf:RDF><cc:Work
         rdf:about=""><dc:format>image/svg+xml</dc:format><dc:type
           rdf:resource="http://purl.org/dc/dcmitype/StillImage" /></cc:Work></rdf:RDF></metadata><defs
     id="defs5"><inkscape:perspective
       sodipodi:type="inkscape:persp3d"
       inkscape:vp_x="0 : 526.18109 : 1"
       inkscape:vp_y="0 : 1000 : 0"
       inkscape:vp_z="744.09448 : 526.18109 : 1"
       inkscape:persp3d-origin="372.04724 : 350.78739 : 1"
       id="perspective9" /><clipPath
       clipPathUnits="userSpaceOnUse"
       id="clipPath17"><path
         d="M 0,792 L 1224,792 L 1224,0 L 0,0 L 0,792 z"
         id="path19" /></clipPath><linearGradient
       x1="0"
       y1="0"
       x2="1"
       y2="0"
       gradientUnits="userSpaceOnUse"
       gradientTransform="matrix(-75.087677,0,0,75.087677,210.25879,495.43604)"
       spreadMethod="pad"
       id="linearGradient2337"><stop
         style="stop-opacity:1;stop-color:#ffffff"
         offset="0"
         id="stop2339" /><stop
         style="stop-opacity:1;stop-color:#000000"
         offset="1"
         id="stop2341" /></linearGradient><linearGradient
       x1="0"
       y1="0"
       x2="1"
       y2="0"
       gradientUnits="userSpaceOnUse"
       gradientTransform="matrix(-75.087341,0,0,75.087357,210.25928,495.77295)"
       spreadMethod="pad"
       id="linearGradient2357"><stop
         style="stop-opacity:1;stop-color:#ffffff"
         offset="0"
         id="stop2359" /><stop
         style="stop-opacity:1;stop-color:#000000"
         offset="1"
         id="stop2361" /></linearGradient><linearGradient
       x1="0"
       y1="0"
       x2="1"
       y2="0"
       gradientUnits="userSpaceOnUse"
       gradientTransform="matrix(-75.088211,0,0,75.088226,210.25928,502.01416)"
       spreadMethod="pad"
       id="linearGradient2377"><stop
         style="stop-opacity:1;stop-color:#ffffff"
         offset="0"
         id="stop2379" /><stop
         style="stop-opacity:1;stop-color:#000000"
         offset="1"
         id="stop2381" /></linearGradient><linearGradient
       x1="0"
       y1="0"
       x2="1"
       y2="0"
       gradientUnits="userSpaceOnUse"
       gradientTransform="matrix(-75.087982,0,0,75.087997,210.25928,489.24023)"
       spreadMethod="pad"
       id="linearGradient2397"><stop
         style="stop-opacity:1;stop-color:#ffffff"
         offset="0"
         id="stop2399" /><stop
         style="stop-opacity:1;stop-color:#000000"
         offset="1"
         id="stop2401" /></linearGradient><clipPath
       clipPathUnits="userSpaceOnUse"
       id="clipPath6285"><path
         d="M 1036.92,541.355 L 1037.07,541.355 L 1037.07,541.038 L 1036.92,541.038 L 1036.92,541.355 z"
         id="path6287" /></clipPath><clipPath
       clipPathUnits="userSpaceOnUse"
       id="clipPath6303"><path
         d="M 1051.2,535.419 L 1052.19,535.419 L 1052.19,534.321 L 1051.2,534.321 L 1051.2,535.419 z"
         id="path6305" /></clipPath><clipPath
       clipPathUnits="userSpaceOnUse"
       id="clipPath6317"><path
         d="M 1051.51,534.857 L 1052.14,534.857 L 1052.14,534.471 L 1051.51,534.471 L 1051.51,534.857 z"
         id="path6319" /></clipPath><clipPath
       clipPathUnits="userSpaceOnUse"
       id="clipPath6345"><path
         d="M 1077.27,529.228 L 1077.66,529.228 L 1077.66,529.072 L 1077.27,529.072 L 1077.27,529.228 z"
         id="path6347" /></clipPath><clipPath
       clipPathUnits="userSpaceOnUse"
       id="clipPath6365"><path
         d="M 1105.32,530.784 L 1106.07,530.784 L 1106.07,530.521 L 1105.32,530.521 L 1105.32,530.784 z"
         id="path6367" /></clipPath></defs><sodipodi:namedview
     inkscape:window-height="724"
     inkscape:window-width="1280"
     inkscape:pageshadow="2"
     inkscape:pageopacity="0.0"
     guidetolerance="10000"
     gridtolerance="10000"
     objecttolerance="10000"
     borderopacity="1.0"
     bordercolor="#666666"
     pagecolor="#ffffff"
     id="base"
     showgrid="true"
     inkscape:zoom="2.7787087"
     inkscape:cx="80.879529"
     inkscape:cy="62.741593"
     inkscape:window-x="0"
     inkscape:window-y="0"
     inkscape:current-layer="g11"
     inkscape:snap-global="false"><inkscape:grid
       type="xygrid"
       id="grid35118"
       visible="true"
       enabled="true"
       spacingx="4px"
       spacingy="4px"
       empspacing="16" /></sodipodi:namedview><g
     id="g11"
     inkscape:groupmode="layer"
     inkscape:label="Free_Vector_Stock_by_YSR1"
     transform="matrix(1.25,0,0,-1.25,-538.6025,808.93375)"><g
       id="g35290"
       transform="matrix(0.9901671,0,0,0.9901671,5.1121332,5.8840544)"><g
         transform="matrix(0.8618594,-0.5071472,0.5071472,0.8618594,-236.54425,328.41697)"
         inkscape:transform-center-y="2.69263"
         inkscape:transform-center-x="-15.692328"
         id="g35266"><path
           sodipodi:nodetypes="ccccccc"
           id="path35144"
           d="M 458.30398,638.51631 L 490.95327,598.99348 L 497.27233,588.04856 L 491.26279,584.47233 C 488.22563,589.24108 481.35984,590.85861 477.21107,588.46331 C 472.51882,596.69915 460.40948,617.84208 455.67019,626.05077 C 452.26183,631.53331 453.64824,635.7519 458.30398,638.51631 z"
           style="fill:#ffffff;fill-rule:evenodd;stroke:#000000;stroke-width:1.49719858;stroke-linecap:butt;stroke-linejoin:miter;stroke-miterlimit:4;stroke-dasharray:none;stroke-opacity:1" /><path
           sodipodi:nodetypes="ccsssccccccsssc"
           id="path35116"
           d="M 497.45612,587.70881 L 501.88342,580.05772 C 502.14496,582.52344 505.5799,586.0581 508.30867,587.6371 C 515.82465,591.9862 525.46223,589.39655 529.81183,581.87972 C 534.16044,574.36461 531.60411,564.71669 524.08813,560.36759 C 516.82167,556.16285 507.55386,558.43158 503.01714,565.37814 L 502.9958,565.3658 L 502.56366,566.11261 L 491.77659,584.21776 L 497.45612,587.70881 z M 511.97574,581.29982 C 507.95487,578.97314 506.57427,573.80053 508.90094,569.77968 C 511.22662,565.76051 516.40021,564.3782 520.42109,566.70486 C 524.44195,569.03153 525.80023,574.19351 523.47455,578.21267 C 521.14788,582.23353 515.9966,583.62649 511.97574,581.29982 z"
           style="fill:#000000;fill-opacity:1;fill-rule:nonzero;stroke:#000000;stroke-width:1.57775664;stroke-miterlimit:4;stroke-dasharray:none;stroke-opacity:1" /></g><g
         inkscape:transform-center-y="4.4997349"
         transform="matrix(0.8644725,0.5026801,-0.5026801,0.8644725,364.98307,-160.17178)"
         inkscape:transform-center-x="14.77281"
         id="g35262"><path
           style="fill:#ffffff;fill-rule:evenodd;stroke:#000000;stroke-width:1.49719858;stroke-linecap:butt;stroke-linejoin:miter;stroke-miterlimit:4;stroke-dasharray:none;stroke-opacity:1"
           d="M 506.13577,638.43426 L 473.48647,598.91143 L 467.16742,587.96651 L 472.60115,584.67818 C 475.92622,589.15903 482.93594,590.63261 487.08472,588.23731 C 491.77696,596.47315 504.03026,617.76003 508.76955,625.96872 C 512.17791,631.45126 510.7915,635.66985 506.13577,638.43426 z"
           id="path34288"
           sodipodi:nodetypes="ccccccc" /><path
           style="fill:#000000;fill-opacity:1;fill-rule:nonzero;stroke:#000000;stroke-width:1.57775664;stroke-miterlimit:4;stroke-dasharray:none;stroke-opacity:1"
           d="M 467.04197,587.75511 L 462.61467,580.10402 C 462.35313,582.56974 458.91819,586.1044 456.18942,587.6834 C 448.67344,592.0325 439.03587,589.44285 434.68626,581.92602 C 430.33765,574.41091 432.89398,564.763 440.40996,560.4139 C 447.67642,556.20915 456.94423,558.47788 461.48095,565.42444 L 461.50229,565.4121 L 461.93443,566.15892 L 472.57755,584.55196 L 467.04197,587.75511 z M 452.52235,581.34612 C 456.54322,579.01945 457.92382,573.84684 455.59715,569.82598 C 453.27147,565.80681 448.09788,564.42451 444.077,566.75116 C 440.05614,569.07784 438.69786,574.23981 441.02354,578.25897 C 443.35022,582.27984 448.50149,583.67279 452.52235,581.34612 z"
           id="path53"
           sodipodi:nodetypes="ccsssccccccsssc" /></g><path
         id="path57"
         style="fill:#000000;fill-opacity:1;fill-rule:nonzero;stroke:#000000;stroke-width:0.98609799;stroke-opacity:1"
         d="M 482.36796,593.21862 C 480.27842,593.21862 478.58431,594.91372 478.58431,597.00327 C 478.58431,599.09281 480.27842,600.78692 482.36796,600.78692 C 484.45751,600.78692 486.15162,599.09281 486.15162,597.00327 C 486.15162,594.91372 484.45751,593.21862 482.36796,593.21862" /></g></g></svg>