<?xml version="1.0" encoding="UTF-8" standalone="no"?>
<svg
   xmlns:dc="http://purl.org/dc/elements/1.1/"
   xmlns:cc="http://creativecommons.org/ns#"
   xmlns:rdf="http://www.w3.org/1999/02/22-rdf-syntax-ns#"
   xmlns:svg="http://www.w3.org/2000/svg"
   xmlns="http://www.w3.org/2000/svg"
   xmlns:sodipodi="http://sodipodi.sourceforge.net/DTD/sodipodi-0.dtd"
   xmlns:inkscape="http://www.inkscape.org/namespaces/inkscape"
   height="612"
   id="svg3192"
   inkscape:version="0.46"
   sodipodi:docbase="/datas/Projs/Cliparts Stocker/tmp/AIGA"
   sodipodi:docname="aiga_heliport1.svg"
   sodipodi:version="0.32"
   width="612"
   inkscape:output_extension="org.inkscape.output.svg.inkscape"
   version="1.0"
   inkscape:export-filename="/home/joanna/gfx/vector/aiga/aiga_heliport1.png"
   inkscape:export-xdpi="31.0425"
   inkscape:export-ydpi="31.0425">
  <metadata
     id="metadata3">
    <rdf:RDF>
      <cc:Work
         rdf:about="">
        <dc:title>AIGA_Symbol_Signs</dc:title>
        <dc:description>EPS converted from  http://aiga.org</dc:description>
        <dc:subject>
          <rdf:Bag>
            <rdf:li>symbol</rdf:li>
            <rdf:li>mapsym</rdf:li>
          </rdf:Bag>
        </dc:subject>
        <dc:publisher>
          <cc:Agent
             rdf:about="http://www.openclipart.org/">
            <dc:title>Open Clip Art Library</dc:title>
          </cc:Agent>
        </dc:publisher>
        <dc:creator>
          <cc:Agent>
            <dc:title>Jean-Victor Balin</dc:title>
          </cc:Agent>
        </dc:creator>
        <dc:rights>
          <cc:Agent>
            <dc:title>Jean-Victor Balin</dc:title>
          </cc:Agent>
        </dc:rights>
        <dc:date />
        <dc:format>image/svg+xml</dc:format>
        <dc:type
           rdf:resource="http://purl.org/dc/dcmitype/StillImage" />
        <cc:license
           rdf:resource="http://web.resource.org/cc/PublicDomain" />
        <dc:language>en</dc:language>
      </cc:Work>
      <cc:License
         rdf:about="http://web.resource.org/cc/PublicDomain">
        <cc:permits
           rdf:resource="http://web.resource.org/cc/Reproduction" />
        <cc:permits
           rdf:resource="http://web.resource.org/cc/Distribution" />
        <cc:permits
           rdf:resource="http://web.resource.org/cc/DerivativeWorks" />
      </cc:License>
    </rdf:RDF>
  </metadata>
  <sodipodi:namedview
     bordercolor="#666666"
     borderopacity="1.0"
     id="base"
     inkscape:current-layer="svg3192"
     inkscape:cx="305.25953"
     inkscape:cy="417.84947"
     inkscape:pageopacity="0.0"
     inkscape:pageshadow="2"
     inkscape:window-height="715"
     inkscape:window-width="641"
     inkscape:window-x="5"
     inkscape:window-y="6"
     inkscape:zoom="0.43415836"
     pagecolor="#ffffff"
     showgrid="false" />
  <defs
     id="defs3194">
    <inkscape:perspective
       sodipodi:type="inkscape:persp3d"
       inkscape:vp_x="0 : 306.58551 : 1"
       inkscape:vp_y="0 : 1000 : 0"
       inkscape:vp_z="612.164 : 306.58551 : 1"
       inkscape:persp3d-origin="306.082 : 204.39034 : 1"
       id="perspective40" />
    <marker
       id="ArrowEnd"
       markerHeight="3"
       markerUnits="strokeWidth"
       markerWidth="4"
       orient="auto"
       refX="0"
       refY="5"
       viewBox="0 0 10 10">
      <path
         d="M 0,0 L 10,5 L 0,10 L 0,0 z"
         id="path3197" />
    </marker>
    <marker
       id="ArrowStart"
       markerHeight="3"
       markerUnits="strokeWidth"
       markerWidth="4"
       orient="auto"
       refX="10"
       refY="5"
       viewBox="0 0 10 10">
      <path
         d="M 10,0 L 0,5 L 10,10 L 10,0 z"
         id="path3200" />
    </marker>
  </defs>
  <g
     id="g3202"
     transform="translate(-8.19e-2,-0.5853944)">
    <path
       d="M 82.4318,17.9239 C 41.0968,17.9239 17.8608,39.2949 17.8608,82.9599 L 17.8608,533.082 C 17.8608,573.925 38.7518,595.31 80.0528,595.31 L 532.077,595.31 C 573.38,595.31 594.303,574.99 594.303,533.082 L 594.303,82.9599 C 594.303,40.3599 573.38,17.9239 530.78,17.9239 C 530.78,17.9239 82.2888,17.7819 82.4318,17.9239 z"
       id="path3204"
       style="fill:#000000;stroke:#000000;stroke-width:3.40799999" />
    <g
       id="g3206">
      <g
         id="g3208">
        <path
           d="M 101.975,298.187 C 130.796,298.187 154.162,274.821 154.162,246 C 154.162,217.177 130.796,193.811 101.975,193.811 C 73.1538,193.811 49.7868,217.177 49.7868,246 C 49.7868,274.821 73.1538,298.187 101.975,298.187 z"
           id="path3210"
           style="fill:#ffffff;stroke:none" />
        <path
           id="path3212"
           style="fill:#ffffff;stroke:none" />
      </g>
      <g
         id="g3214">
        <path
           d="M 101.975,279.209 C 120.316,279.209 135.186,264.34 135.186,246 C 135.186,227.657 120.316,212.789 101.975,212.789 C 83.6328,212.789 68.7638,227.657 68.7638,246 C 68.7638,264.34 83.6328,279.209 101.975,279.209 z"
           id="path3216"
           style="fill:#000000;stroke:none" />
        <path
           id="path3218"
           style="fill:#000000;stroke:none" />
      </g>
      <g
         id="g3220">
        <path
           d="M 269.872,413.257 C 229.933,413.257 229.933,466.933 269.872,466.933 L 500.732,466.933 C 539.464,466.933 539.464,413.257 500.732,413.257 L 269.872,413.257 z"
           id="path3222"
           style="fill:#ffffff;stroke:none" />
        <g
           id="g3224">
          <g
             id="g3226">
            <path
               d="M 338.1,228.685 L 338.1,179.801 L 317.492,179.801 L 317.492,228.685 L 338.1,228.685 z"
               id="path3228"
               style="fill:#ffffff;stroke:none" />
            <path
               id="path3230"
               style="fill:#ffffff;stroke:none" />
          </g>
          <g
             id="g3232">
            <path
               d="M 369.729,181.177 L 369.729,170.633 L 286.341,170.633 L 286.341,181.177 L 369.729,181.177 z"
               id="path3234"
               style="fill:#ffffff;stroke:none" />
            <path
               id="path3236"
               style="fill:#ffffff;stroke:none" />
          </g>
          <path
             d="M 376.917,163.444 L 510.024,163.444 C 527.756,163.444 527.756,188.845 510.024,188.845 L 376.917,188.845 C 359.664,188.845 359.664,163.444 376.917,163.444 z"
             id="path3238"
             style="fill:#ffffff;stroke:none" />
          <path
             d="M 146.107,163.444 L 277.715,163.444 C 295.447,163.444 295.447,188.845 277.715,188.845 L 146.107,188.845 C 127.363,188.845 127.097,163.444 146.107,163.444 z"
             id="path3240"
             style="fill:#ffffff;stroke:none" />
        </g>
        <path
           d="M 290.507,378.751 C 273.411,378.751 264.863,366.29 262.014,355.747 L 248.717,322.199 L 96.7028,261.815 C 78.2318,254.636 82.7318,227.309 103.732,227.309 L 433.923,227.309 C 470.732,227.309 491.232,249.386 500.732,272.886 L 527.232,337.386 C 536.732,359.386 520.658,378.636 496.982,378.751 L 290.507,378.751 z"
           id="path3242"
           style="fill:#ffffff;stroke:none" />
      </g>
      <g
         id="g3244">
        <g
           id="g3246">
          <path
             d="M 374.036,305.15 L 374.036,248.121 L 338.421,248.121 L 338.421,305.15 L 374.036,305.15 z"
             id="path3248"
             style="fill:#000000;stroke:none" />
          <path
             id="path3250"
             style="fill:#000000;stroke:none" />
        </g>
        <g
           id="g3252">
          <path
             d="M 430.323,248.121 L 430.323,305.15 L 395.181,305.15 L 395.181,248.121 L 430.323,248.121 z"
             id="path3254"
             style="fill:#000000;stroke:none" />
          <path
             id="path3256"
             style="fill:#000000;stroke:none" />
        </g>
        <path
           d="M 451.969,250.386 C 462.982,253.042 473.982,262.886 481.232,279.136 L 492.482,305.386 L 451.969,305.386 L 451.969,250.386 z"
           id="path3258"
           style="fill:#000000;stroke:none" />
      </g>
    </g>
  </g>
</svg>
