<?xml version="1.0" encoding="UTF-8" standalone="no"?>
<!-- Created with Inkscape (http://www.inkscape.org/) -->
<svg
   xmlns:dc="http://purl.org/dc/elements/1.1/"
   xmlns:cc="http://creativecommons.org/ns#"
   xmlns:rdf="http://www.w3.org/1999/02/22-rdf-syntax-ns#"
   xmlns:svg="http://www.w3.org/2000/svg"
   xmlns="http://www.w3.org/2000/svg"
   xmlns:sodipodi="http://sodipodi.sourceforge.net/DTD/sodipodi-0.dtd"
   xmlns:inkscape="http://www.inkscape.org/namespaces/inkscape"
   width="1557.2977"
   height="1062.8157"
   id="svg2"
   sodipodi:version="0.32"
   inkscape:version="0.46"
   version="1.0"
   sodipodi:docname="spring bee.svg"
   inkscape:output_extension="org.inkscape.output.svg.inkscape">
  <defs
     id="defs4">
    <inkscape:perspective
       sodipodi:type="inkscape:persp3d"
       inkscape:vp_x="0 : 526.18109 : 1"
       inkscape:vp_y="0 : 1000 : 0"
       inkscape:vp_z="744.09448 : 526.18109 : 1"
       inkscape:persp3d-origin="372.04724 : 350.78739 : 1"
       id="perspective10" />
    <inkscape:perspective
       id="perspective5300"
       inkscape:persp3d-origin="372.04724 : 350.78739 : 1"
       inkscape:vp_z="744.09448 : 526.18109 : 1"
       inkscape:vp_y="0 : 1000 : 0"
       inkscape:vp_x="0 : 526.18109 : 1"
       sodipodi:type="inkscape:persp3d" />
    <inkscape:perspective
       id="perspective5426"
       inkscape:persp3d-origin="372.04724 : 350.78739 : 1"
       inkscape:vp_z="744.09448 : 526.18109 : 1"
       inkscape:vp_y="0 : 1000 : 0"
       inkscape:vp_x="0 : 526.18109 : 1"
       sodipodi:type="inkscape:persp3d" />
  </defs>
  <sodipodi:namedview
     id="base"
     pagecolor="#ffffff"
     bordercolor="#666666"
     borderopacity="1.0"
     inkscape:pageopacity="0.0"
     inkscape:pageshadow="2"
     inkscape:zoom="0.25"
     inkscape:cx="1135.3286"
     inkscape:cy="767.0863"
     inkscape:document-units="px"
     inkscape:current-layer="layer1"
     showgrid="false"
     showguides="true"
     inkscape:guide-bbox="true"
     inkscape:window-width="1280"
     inkscape:window-height="719"
     inkscape:window-x="-4"
     inkscape:window-y="-4" />
  <metadata
     id="metadata7">
    <rdf:RDF>
      <cc:Work
         rdf:about="">
        <dc:format>image/svg+xml</dc:format>
        <dc:type
           rdf:resource="http://purl.org/dc/dcmitype/StillImage" />
      </cc:Work>
    </rdf:RDF>
  </metadata>
  <g
     inkscape:label="Camada 1"
     inkscape:groupmode="layer"
     id="layer1"
     transform="translate(859.43861,-32.210979)">
    <g
       id="g5547">
      <path
         d="M -822.68941,919.87731 C -791.26479,878.75425 -765.08663,833.37275 -741.37288,787.45169 C -730.56921,766.53067 -720.66613,745.15673 -710.31276,724.00925 C -699.88632,699.29996 -688.80924,674.85524 -679.03345,649.88139 C -640.47395,551.37485 -609.38976,448.02492 -599.8169,342.24898 C -597.82124,320.19791 -598.05955,298.00148 -597.18087,275.87773 C -598.65498,256.22148 -598.82968,236.42433 -601.60319,216.90899 C -608.0756,171.367 -622.86524,125.59082 -654.49809,90.983028 C -676.51026,66.900699 -685.60541,65.839029 -713.92892,52.382442 C -743.53995,43.396722 -773.3052,43.513013 -803.46033,49.109858 C -811.00421,50.510017 -835.49198,56.33586 -843.05491,61.540557 C -846.63131,64.001783 -834.71467,59.125301 -830.54455,57.917673 C -831.59346,60.432128 -834.0714,62.763221 -833.69129,65.461038 C -831.54922,80.664122 -789.94041,92.189254 -781.71607,94.805432 C -763.56236,100.58016 -699.99144,117.73979 -685.41759,121.72879 C -595.53427,146.9131 -504.54877,175.12781 -425.89512,227.10058 C -371.07586,263.32407 -365.49263,274.6814 -320.99004,321.91891 C -308.17159,340.38294 -293.71244,357.80996 -282.53467,377.311 C -250.72417,432.80851 -233.04985,496.45458 -235.10687,560.58495 C -236.96593,618.54364 -244.9488,628.42885 -263.68072,682.26394 C -288.85821,724.05355 -296.8738,745.44217 -334.76956,777.12887 C -365.94204,803.19388 -411.14661,822.02583 -450.4505,828.22001 C -491.29034,834.65626 -512.58974,820.69604 -548.8972,806.48344 C -562.79295,796.38494 -577.74903,787.60387 -590.58445,776.18794 C -632.40111,738.99588 -665.63241,683.57822 -675.5068,628.14002 C -677.14046,618.96805 -676.78184,609.55106 -677.41936,600.25657 C -676.01003,593.50409 -675.84281,586.36717 -673.19135,579.99912 C -666.03275,562.80617 -642.49819,556.47323 -627.0184,554.74699 C -621.33767,554.11351 -616.23749,558.91553 -611.60797,562.26808 C -596.64885,573.101 -590.93487,583.99175 -580.23852,598.99391 C -554.4085,641.57132 -542.2806,689.94955 -533.5281,738.45454 C -531.11184,754.73933 -532.14668,747.21319 -530.35473,761.02337 L -555.49312,771.74088 C -556.57613,757.76079 -555.88129,765.36789 -557.7015,748.93126 C -564.87678,700.40007 -576.52532,652.16707 -602.8314,610.07041 C -613.66991,595.61624 -619.4129,584.96018 -634.67292,575.10892 C -639.20296,572.18451 -648.30638,574.32549 -649.69781,569.11613 C -650.93797,564.4731 -640.62531,555.24288 -638.79254,559.68548 C -634.38831,570.36128 -674.38009,573.14057 -654.43198,590.60049 C -654.14432,599.86871 -654.91461,609.23063 -653.56901,618.40516 C -645.46888,673.63329 -612.72826,729.22198 -571.25245,765.94548 C -558.51245,777.22572 -543.60879,785.79578 -529.78697,795.72094 C -478.58467,815.24519 -487.60575,817.35731 -432.15971,816.36027 C -421.80571,816.17408 -410.90093,816.32057 -401.35988,812.29462 C -365.93107,797.34508 -337.64647,771.54981 -314.61331,741.35667 C -302.30416,725.22115 -293.40997,706.74598 -282.8083,689.44063 C -263.84146,635.85695 -255.87021,626.27748 -253.85912,568.48926 C -251.64192,504.77814 -269.00142,441.26864 -300.33101,385.97642 C -311.35467,366.52126 -325.64779,349.10967 -338.30618,330.67629 C -382.55746,283.64243 -388.13316,272.29422 -442.68934,236.24218 C -521.67198,184.04853 -613.15223,156.24658 -703.75944,132.32909 C -713.29208,129.91597 -788.58559,111.02177 -802.91012,106.8362 C -814.7495,103.37678 -856.12466,93.502964 -859.36069,75.032906 C -859.92737,71.798484 -857.25274,68.813017 -856.19877,65.703072 C -837.26602,55.59822 -823.86973,46.431089 -804.26141,40.752071 C -779.11417,33.468855 -750.98685,30.166854 -724.94068,33.531251 C -714.08169,34.933912 -703.58047,38.356377 -692.90036,40.76894 C -664.47781,54.859049 -655.4188,56.00905 -633.60306,80.783517 C -602.3348,116.2925 -588.26508,162.77125 -582.42242,208.81116 C -579.9189,228.53879 -580.00181,248.50913 -578.79151,268.35811 C -582.05024,332.26488 -580.56904,343.5722 -592.74357,408.38 C -612.78316,515.05525 -649.89492,617.70662 -692.051,717.38358 C -701.87065,738.3709 -711.29743,759.54656 -721.50995,780.34554 C -743.4424,825.01349 -767.68961,869.82477 -796.06657,910.80741 L -822.68941,919.87731 z"
         id="path2393"
         style="fill:#ff3f00;fill-opacity:1;stroke:none;stroke-width:1;stroke-miterlimit:4;stroke-dasharray:none;stroke-dashoffset:0;stroke-opacity:1" />
      <g
         transform="translate(18,0)"
         id="g4292">
        <path
           style="fill:#ffaa00;fill-opacity:1;stroke:none;stroke-width:1;stroke-miterlimit:4;stroke-dasharray:none;stroke-dashoffset:0;stroke-opacity:1"
           id="path2407"
           d="M -278.74774,1095.0267 C -275.08054,1022.7468 -267.82605,950.6654 -261.6017,878.5704 C -253.52266,789.27647 -244.94323,700.029 -236.37372,610.78118 C -231.38559,558.83185 -227.88594,519.19692 -221.83008,468.09749 C -219.8365,451.27558 -217.43169,434.50495 -215.2325,417.70869 L -194.89555,409.63137 C -197.67794,426.64039 -200.75313,443.60409 -203.24273,460.65842 C -210.5975,511.04031 -215.1354,553.26668 -220.54603,604.40692 C -229.95207,693.31105 -238.21438,782.34096 -244.27765,871.54122 C -248.43489,942.32979 -253.69111,1013.2749 -252.68083,1084.2294 L -278.74774,1095.0267 z" />
        <path
           style="fill:#ffaa00;fill-opacity:1;stroke:none;stroke-width:1;stroke-miterlimit:4;stroke-dasharray:none;stroke-dashoffset:0;stroke-opacity:1"
           id="path2409"
           d="M -228.32128,493.60416 C -216.10069,476.09284 -200.2632,460.93544 -181.7705,450.13709 C -176.90759,447.29751 -171.73167,445.03155 -166.71226,442.47878 C -153.46663,437.10918 -140.5969,430.69819 -126.97538,426.36997 C -112.89506,421.89596 -90.619578,425.14249 -77.119656,430.33603 C -62.50413,435.95875 -60.280318,439.15099 -48.04168,448.68355 C -30.394302,467.26503 -19.613159,486.32271 -21.921324,512.92604 C -23.577428,532.01388 -28.253295,538.55237 -35.951637,556.09945 C -40.647146,562.99513 -44.706826,570.36972 -50.038163,576.78651 C -65.508679,595.40679 -86.199673,609.96419 -108.01836,620.1599 C -148.95534,639.28944 -138.10474,635.76443 -168.19004,642.18338 C -184.96295,643.95743 -202.46176,642.2613 -217.87097,634.91293 C -223.34087,632.30444 -225.50262,630.25929 -230.12047,626.67012 C -234.1599,623.42216 -237.27612,619.29451 -240.57364,615.34837 L -215.48463,602.87794 C -212.41083,606.71483 -209.46793,610.68253 -205.59477,613.78241 C -192.59788,623.83542 -178.14358,628.71328 -161.50629,629.0189 C -156.3713,629.11322 -151.25709,628.3392 -146.13249,627.99935 C -140.36407,626.6862 -134.73636,624.34483 -128.82723,624.0599 C -127.17025,623.98001 -134.08078,628.02033 -132.56549,627.34517 C -110.67316,617.59063 -89.644593,603.36287 -73.983634,585.05075 C -68.648493,578.81245 -64.582668,571.59184 -59.882185,564.86238 C -52.345454,547.99823 -47.622966,541.3981 -45.957557,523.007 C -43.674302,497.79302 -54.313011,478.38337 -71.340579,460.94157 C -75.852304,457.53199 -80.0428,453.64941 -84.875754,450.71284 C -94.210895,445.04069 -105.13167,441.12436 -115.92426,439.47448 C -121.3893,438.63903 -126.96141,438.34152 -132.4852,438.57048 C -138.04272,438.80083 -143.82578,442.84582 -149.01617,440.8461 C -151.98105,439.70382 -143.9237,437.04506 -141.37747,435.14453 C -146.40314,437.58994 -151.58141,439.74387 -156.45448,442.48075 C -174.54019,452.63828 -190.2428,467.13897 -201.86327,484.28494 L -228.32128,493.60416 z" />
      </g>
      <g
         transform="translate(46,8)"
         id="g4288">
        <path
           style="fill:#fff000;fill-opacity:1;stroke:none;stroke-width:1;stroke-miterlimit:4;stroke-dasharray:none;stroke-dashoffset:0;stroke-opacity:1"
           id="path2411"
           d="M -32.992244,631.46897 C -32.064595,609.53385 -29.798661,587.68458 -28.579164,565.75618 C -27.456069,543.9908 -27.089477,522.19661 -27.089588,500.40524 C -27.09023,490.60594 -27.152774,480.8068 -27.228337,471.00783 C -27.279503,464.81831 -27.298406,458.6286 -27.307985,452.4389 C -27.314269,446.75491 -27.31316,441.07092 -27.312818,435.38693 C -27.312418,430.63401 -27.312141,425.88109 -27.311955,421.12818 L -1.259638,410.33699 C -1.2595694,415.08971 -1.259476,419.84242 -1.2591607,424.59514 C -1.2587671,430.27909 -1.2579268,435.96304 -1.258643,441.64699 C -1.2604476,447.85065 -1.2640489,454.05433 -1.2884449,460.25795 C -1.3302919,470.12906 -1.3651926,480.00058 -1.567849,489.87004 C -2.0970515,511.80914 -2.7552135,533.74662 -3.8377793,555.66634 C -5.0082984,577.33328 -7.0283942,599.00985 -7.0077557,620.70584 L -32.992244,631.46897 z" />
        <path
           style="fill:#fff000;fill-opacity:1;stroke:none;stroke-width:1;stroke-miterlimit:4;stroke-dasharray:none;stroke-dashoffset:0;stroke-opacity:1"
           d="M -26.795813,497.86658 C -14.944041,471.41529 1.2625015,446.39774 23.009205,427.03695 C 33.028444,417.7199 45.20105,411.32698 57.709198,406.04104 C 71.913829,399.12316 86.845683,391.81342 103.09769,392.91926 C 116.81017,392.72939 129.78437,398.04342 141.81849,404.09001 C 151.87764,409.70666 160.59824,417.35956 168.88099,425.29113 C 160.86279,429.39464 152.8446,433.49815 144.8264,437.60165 C 133.42465,426.22871 120.38541,415.8426 104.72924,411.15564 C 94.915831,407.38128 83.68646,405.30904 73.501379,408.87288 C 69.574527,410.74255 63.080728,407.38916 69.880027,405.0336 C 73.862475,403.24362 76.918263,401.3339 70.908475,403.73547 C 60.520403,408.60023 51.360121,415.8774 42.842213,423.45084 C 23.784157,441.26373 9.6884303,463.86594 -0.40856119,487.78738 C -9.2043117,491.14711 -18.000062,494.50684 -26.795813,497.86658 z"
           id="path2413" />
      </g>
      <g
         transform="translate(-26,8.5538072)"
         id="g4276">
        <path
           style="opacity:1;fill:#00ffc6;fill-opacity:1;stroke:none;stroke-width:1;stroke-miterlimit:4;stroke-dasharray:none;stroke-dashoffset:0;stroke-opacity:1"
           id="path2427"
           d="M 484.15736,867.3356 C 482.16837,883.55161 481.86679,899.91621 481.49628,916.23138 C 481.41951,929.65701 480.66635,943.16321 482.2891,956.53847 C 483.08511,963.09951 484.62708,969.60672 486.00009,976.05674 C 491.20452,999.70024 502.11802,1017.8424 516.64104,1036.7707 C 529.1195,1052.0524 544.84686,1064.9583 564.18508,1070.3396 C 567.60193,1071.2904 571.16093,1071.6253 574.64886,1072.2681 C 582.896,1072.3028 586.88225,1072.8729 594.93658,1070.7223 C 598.24661,1069.8385 607.62179,1065.5673 604.54654,1067.0773 C 575.51723,1081.3317 592.9692,1071.7588 599.28955,1066.2146 C 602.86053,1063.0821 605.96031,1059.45 609.29568,1056.0678 C 633.43717,1026.0474 649.0914,990.24743 661.35262,953.97199 C 664.8612,943.59168 667.7508,933.01234 670.94989,922.53251 C 690.61205,852.68405 696.85707,780.33223 700.79991,708.18975 C 703.16601,654.5809 698.25831,601.13434 692.92995,547.86604 C 690.17714,518.3358 685.18575,489.12777 677.71074,460.44008 C 673.01439,441.81418 668.82486,423.07265 664.60147,404.33659 L 689.81463,393.2907 C 693.30641,412.18585 697.42883,430.94267 702.2036,449.55834 C 709.67706,478.47583 714.76883,507.88849 716.81265,537.72092 C 721.1293,591.40951 725.79729,645.21008 723.02442,699.13117 C 718.78396,771.3466 712.62301,843.79285 693.65056,913.8923 C 690.59152,924.3723 687.82615,934.94253 684.47344,945.33231 C 672.7891,981.54115 657.85212,1017.3012 634.6829,1047.7495 C 631.48132,1051.2358 628.51786,1054.9567 625.07815,1058.2082 C 612.42015,1070.1737 598.86192,1074.4622 581.82931,1082.0742 C 578.65673,1083.4921 575.30208,1084.5311 571.90722,1085.2731 C 563.4594,1087.1195 559.77174,1086.3851 551.20706,1085.9962 C 547.65743,1085.2127 544.03092,1084.7198 540.55817,1083.6456 C 521.0175,1077.6017 505.19186,1064.277 492.41766,1048.7182 C 477.97355,1029.9433 466.37229,1010.4052 461.07223,987.01349 C 459.53774,980.107 458.04619,974.19467 457.17457,967.1732 C 455.50456,953.72024 456.23399,940.12229 456.28947,926.61466 C 456.55675,910.3436 456.87575,894.06421 458.01626,877.82623 L 484.15736,867.3356 z" />
        <path
           style="opacity:1;fill:#00ffc6;fill-opacity:1;stroke:none;stroke-width:1;stroke-miterlimit:4;stroke-dasharray:none;stroke-dashoffset:0;stroke-opacity:1"
           id="path2429"
           d="M 700.08578,460.99454 C 687.86519,443.48322 672.0277,428.32582 653.535,417.52747 C 648.67209,414.68789 643.49617,412.42193 638.47676,409.86916 C 625.23113,404.49956 612.3614,398.08857 598.73988,393.76035 C 584.65956,389.28634 562.38408,392.53287 548.88415,397.72641 C 534.26863,403.34913 532.04482,406.54137 519.80618,416.07393 C 502.1588,434.65541 491.37766,453.71309 493.68582,480.31642 C 495.34193,499.40426 500.01779,505.94275 507.71613,523.48983 C 512.41164,530.38551 516.47132,537.7601 521.80266,544.17689 C 537.27318,562.79717 557.96417,577.35457 579.78286,587.55028 C 620.71984,606.67982 609.86924,603.15481 639.95454,609.57376 C 656.72745,611.34781 674.22626,609.65168 689.63547,602.30331 C 695.10537,599.69482 697.26712,597.64967 701.88497,594.0605 C 705.9244,590.81254 709.04062,586.68489 712.33814,582.73875 L 687.24913,570.26832 C 684.17533,574.10521 681.23243,578.07291 677.35927,581.17279 C 664.36238,591.2258 649.90808,596.10366 633.27079,596.40928 C 628.1358,596.5036 623.02159,595.72958 617.89699,595.38973 C 612.12857,594.07658 606.50086,591.73521 600.59173,591.45028 C 598.93475,591.37039 605.84528,595.41071 604.32999,594.73555 C 582.43766,584.98101 561.40909,570.75325 545.74813,552.44113 C 540.41299,546.20283 536.34717,538.98222 531.64668,532.25276 C 524.10995,515.38861 519.38746,508.78848 517.72205,490.39738 C 515.4388,465.1834 526.07751,445.77375 543.10508,428.33195 C 547.6168,424.92237 551.8073,421.03979 556.64025,418.10322 C 565.97539,412.43107 576.89617,408.51474 587.68876,406.86486 C 593.1538,406.02941 598.72591,405.7319 604.2497,405.96086 C 609.80722,406.19121 615.59028,410.2362 620.78067,408.23648 C 623.74555,407.0942 615.6882,404.43544 613.14197,402.53491 C 618.16764,404.98032 623.34591,407.13425 628.21898,409.87113 C 646.30469,420.02866 662.0073,434.52935 673.62777,451.67532 L 700.08578,460.99454 z" />
      </g>
      <g
         transform="translate(2,5.31364)"
         id="g4272">
        <path
           style="opacity:1;fill:#23ff00;fill-opacity:1;stroke:none;stroke-width:1;stroke-miterlimit:4;stroke-dasharray:none;stroke-dashoffset:0;stroke-opacity:1"
           id="path2423"
           d="M 293.20419,460.72372 C 296.30014,450.08042 301.55931,440.50575 309.01348,432.34353 C 323.30035,417.76377 342.56115,409.70431 361.63594,403.01081 C 371.15938,399.60237 380.35119,400.49071 389.90657,403.00567 C 401.50124,406.20727 409.77316,414.2903 417.70464,422.84579 C 429.43915,436.23439 435.08412,453.68521 440.09255,470.47077 C 445.16175,489.27819 446.09176,508.82208 446.79782,528.18766 C 447.09549,545.63971 447.43147,563.11426 446.7459,580.55929 C 446.08706,592.54637 445.23874,604.52199 444.73483,616.51716 C 444.57938,621.25134 444.64456,618.93684 444.53645,623.46059 L 418.51229,634.15533 C 418.65794,629.57094 418.56966,631.91681 418.78113,627.11788 C 419.46413,615.0523 420.61531,603.02099 421.33475,590.95762 C 422.14285,573.57 421.7011,556.14966 421.53459,538.74967 C 420.97062,519.58843 420.15377,500.26928 415.17538,481.64732 C 410.30096,465.25039 404.71491,448.21068 392.97838,435.34828 C 385.20063,427.18971 377.04449,419.69952 365.71597,417.05047 C 356.35872,414.98862 347.46803,414.80102 338.38815,418.42374 C 326.67579,423.04972 332.09185,421.02741 353.69193,410.87223 C 355.35441,410.09062 350.31087,412.32518 348.70263,413.21304 C 345.02048,415.24584 342.75179,417.08274 339.59791,419.85332 C 338.18288,421.09639 336.84634,422.42605 335.47056,423.71242 C 327.74273,431.09846 322.36239,440.27336 319.59144,450.64453 L 293.20419,460.72372 z" />
        <path
           style="opacity:1;fill:#23ff00;fill-opacity:1;stroke:none;stroke-width:1;stroke-miterlimit:4;stroke-dasharray:none;stroke-dashoffset:0;stroke-opacity:1"
           id="path2431"
           d="M 278.41877,628.64246 C 279.34642,606.70734 281.61236,584.85807 282.83185,562.92967 C 283.95495,541.16429 284.32154,519.3701 284.32143,497.57873 C 284.32079,487.77943 284.25824,477.98029 284.18268,468.18132 C 284.13152,461.9918 284.11261,455.80209 284.10303,449.61239 C 284.09675,443.9284 284.09786,438.24441 284.0982,432.56042 C 284.0986,427.8075 284.09888,423.05458 284.09906,418.30167 L 310.15138,407.51048 C 310.15145,412.2632 310.15154,417.01591 310.15186,421.76863 C 310.15225,427.45258 310.15309,433.13653 310.15238,438.82048 C 310.15057,445.02414 310.14697,451.22782 310.12257,457.43144 C 310.08073,467.30255 310.04583,477.17407 309.84317,487.04353 C 309.31397,508.98263 308.6558,530.92011 307.57324,552.83983 C 306.40272,574.50677 304.38262,596.18334 304.40326,617.87933 L 278.41877,628.64246 z" />
      </g>
      <path
         d="M 230.13306,639.46897 C 231.06071,617.53385 233.32664,595.68458 234.54614,573.75618 C 235.66923,551.9908 236.03583,530.19661 236.03571,508.40524 C 236.03507,498.60594 235.97253,488.8068 235.89697,479.00783 C 235.8458,472.81831 235.8269,466.6286 235.81732,460.4389 C 235.81103,454.75491 235.81214,449.07092 235.81248,443.38693 C 235.81288,438.63401 235.81316,433.88109 235.81335,429.12818 L 261.86566,418.33699 C 261.86573,423.08971 261.86583,427.84242 261.86614,432.59514 C 261.86654,438.27909 261.86738,443.96304 261.86666,449.64699 C 261.86485,455.85065 261.86125,462.05433 261.83686,468.25795 C 261.79501,478.12906 261.76011,488.00058 261.55745,497.87004 C 261.02825,519.80914 260.37009,541.74662 259.28752,563.66634 C 258.117,585.33328 256.09691,607.00985 256.11755,628.70584 L 230.13306,639.46897 z"
         id="path2433"
         style="fill:#b9ff00;fill-opacity:1;stroke:none;stroke-width:1;stroke-miterlimit:4;stroke-dasharray:none;stroke-dashoffset:0;stroke-opacity:1" />
      <path
         id="text4296"
         d="M -135.66815,709.07902 L -135.66815,715.02492 C -137.98215,713.91828 -140.16533,713.0933 -142.21769,712.54998 C -144.27011,712.00674 -146.25208,711.7351 -148.16359,711.73506 C -151.48366,711.7351 -154.04411,712.37899 -155.84497,713.66672 C -157.64586,714.95454 -158.54629,716.78559 -158.54628,719.15989 C -158.54629,721.15195 -157.94768,722.65603 -156.75044,723.67213 C -155.55323,724.6883 -153.28453,725.50825 -149.94435,726.13199 L -146.26211,726.88654 C -141.71468,727.75179 -138.35943,729.27599 -136.19634,731.45915 C -134.03331,733.64235 -132.95178,736.56499 -132.95175,740.22709 C -132.95178,744.59346 -134.41562,747.90344 -137.34326,750.15704 C -140.27097,752.41065 -144.56187,753.53745 -150.21599,753.53746 C -152.34888,753.53745 -154.61758,753.296 -157.02208,752.81308 C -159.42661,752.33017 -161.91664,751.61585 -164.49218,750.67014 L -164.49218,744.39224 C -162.01725,745.78063 -159.59261,746.82694 -157.21827,747.53119 C -154.84394,748.23545 -152.50985,748.58757 -150.21599,748.58757 C -146.73499,748.58757 -144.04877,747.90344 -142.15733,746.53518 C -140.26594,745.16692 -139.32023,743.21514 -139.3202,740.67982 C -139.32023,738.46647 -139.99933,736.73603 -141.3575,735.48848 C -142.71573,734.24096 -144.94418,733.30532 -148.04287,732.68153 L -151.75528,731.95716 C -156.30275,731.05171 -159.59261,729.63315 -161.62487,727.70146 C -163.65715,725.76983 -164.67328,723.08361 -164.67328,719.64281 C -164.67328,715.65879 -163.26981,712.51984 -160.46286,710.22595 C -157.65592,707.93214 -153.78757,706.78522 -148.85779,706.78517 C -146.74505,706.78522 -144.59205,706.97637 -142.39879,707.35864 C -140.20557,707.74099 -137.96203,708.31445 -135.66815,709.07902 L -135.66815,709.07902 z M -123.44435,707.60009 L -94.952316,707.60009 L -94.952316,712.73107 L -117.34753,712.73107 L -117.34753,726.07162 L -95.887965,726.07162 L -95.887965,731.2026 L -117.34753,731.2026 L -117.34753,747.53119 L -94.409036,747.53119 L -94.409036,752.66217 L -123.44435,752.66217 L -123.44435,707.60009 z M -69.267234,713.60636 L -77.537166,736.03176 L -60.967119,736.03176 L -69.267234,713.60636 z M -72.708009,707.60009 L -65.796277,707.60009 L -48.622585,752.66217 L -54.960854,752.66217 L -59.065638,741.10237 L -79.378283,741.10237 L -83.483066,752.66217 L -89.911883,752.66217 L -72.708009,707.60009 z M -15.059934,709.07902 L -15.059934,715.02492 C -17.373936,713.91828 -19.557116,713.0933 -21.609479,712.54998 C -23.661896,712.00674 -25.64386,711.7351 -27.555379,711.73506 C -30.875443,711.7351 -33.4359,712.37899 -35.236758,713.66672 C -37.037643,714.95454 -37.938078,716.78559 -37.938068,719.15989 C -37.938078,721.15195 -37.339465,722.65603 -36.142225,723.67213 C -34.94501,724.6883 -32.676314,725.50825 -29.336131,726.13199 L -25.653899,726.88654 C -21.106469,727.75179 -17.751214,729.27599 -15.588123,731.45915 C -13.425098,733.64235 -12.343569,736.56499 -12.343533,740.22709 C -12.343569,744.59346 -13.807406,747.90344 -16.735048,750.15704 C -19.662754,752.41065 -23.953657,753.53745 -29.607771,753.53746 C -31.740666,753.53745 -34.009362,753.296 -36.413865,752.81308 C -38.818393,752.33017 -41.308425,751.61585 -43.883969,750.67014 L -43.883969,744.39224 C -41.409032,745.78063 -38.984395,746.82694 -36.61005,747.53119 C -34.235728,748.23545 -31.901638,748.58757 -29.607771,748.58757 C -26.126776,748.58757 -23.440559,747.90344 -21.549115,746.53518 C -19.657723,745.16692 -18.712014,743.21514 -18.711985,740.67982 C -18.712014,738.46647 -19.391114,736.73603 -20.749285,735.48848 C -22.107512,734.24096 -24.335965,733.30532 -27.434651,732.68153 L -31.147065,731.95716 C -35.694535,731.05171 -38.984395,729.63315 -41.016656,727.70146 C -43.048932,725.76983 -44.065066,723.08361 -44.065062,719.64281 C -44.065066,715.65879 -42.661594,712.51984 -39.85464,710.22595 C -37.047703,707.93214 -33.179351,706.78522 -28.249571,706.78517 C -26.136836,706.78522 -23.983839,706.97637 -21.790573,707.35864 C -19.597359,707.74099 -17.353815,708.31445 -15.059934,709.07902 L -15.059934,709.07902 z M 15.454308,711.73506 C 11.02756,711.7351 7.5113333,713.38506 4.9056167,716.68495 C 2.2998726,719.9849 0.99700742,724.48205 0.99701732,730.17641 C 0.99700742,735.85068 2.2998726,740.33777 4.9056167,743.63768 C 7.5113333,746.93761 11.02756,748.58757 15.454308,748.58757 C 19.881007,748.58757 23.387173,746.93761 25.972817,743.63768 C 28.558391,740.33777 29.851195,735.85068 29.851234,730.17641 C 29.851195,724.48205 28.558391,719.9849 25.972817,716.68495 C 23.387173,713.38506 19.881007,711.7351 15.454308,711.73506 L 15.454308,711.73506 z M 15.454308,706.78517 C 21.772425,706.78522 26.822914,708.903 30.60579,713.13853 C 34.388587,717.37414 36.280005,723.05343 36.28005,730.17641 C 36.280005,737.27931 34.388587,742.94853 30.60579,747.18409 C 26.822914,751.41967 21.772425,753.53745 15.454308,753.53746 C 9.1160205,753.53745 4.0504405,751.4247 0.25755257,747.19919 C -3.5353537,742.97368 -5.4318022,737.29943 -5.4317987,730.17641 C -5.4318022,723.05343 -3.5353537,717.37414 0.25755257,713.13853 C 4.0504405,708.903 9.1160205,706.78522 15.454308,706.78517 L 15.454308,706.78517 z M 45.817621,707.60009 L 54.027189,707.60009 L 74.007828,745.29771 L 74.007828,707.60009 L 79.923547,707.60009 L 79.923547,752.66217 L 71.713979,752.66217 L 51.733339,714.96456 L 51.733339,752.66217 L 45.817621,752.66217 L 45.817621,707.60009 z M 130.02605,711.73506 C 125.59931,711.7351 122.08308,713.38506 119.47736,716.68495 C 116.87162,719.9849 115.56875,724.48205 115.56876,730.17641 C 115.56875,735.85068 116.87162,740.33777 119.47736,743.63768 C 122.08308,746.93761 125.59931,748.58757 130.02605,748.58757 C 134.45275,748.58757 137.95892,746.93761 140.54456,743.63768 C 143.13014,740.33777 144.42294,735.85068 144.42298,730.17641 C 144.42294,724.48205 143.13014,719.9849 140.54456,716.68495 C 137.95892,713.38506 134.45275,711.7351 130.02605,711.73506 L 130.02605,711.73506 z M 130.02605,706.78517 C 136.34417,706.78522 141.39466,708.903 145.17754,713.13853 C 148.96033,717.37414 150.85175,723.05343 150.8518,730.17641 C 150.85175,737.27931 148.96033,742.94853 145.17754,747.18409 C 141.39466,751.41967 136.34417,753.53745 130.02605,753.53746 C 123.68777,753.53745 118.62219,751.4247 114.8293,747.19919 C 111.03639,742.97368 109.13994,737.29943 109.13995,730.17641 C 109.13994,723.05343 111.03639,717.37414 114.8293,713.13853 C 118.62219,708.903 123.68777,706.78522 130.02605,706.78517 L 130.02605,706.78517 z M 160.3894,707.60009 L 186.28576,707.60009 L 186.28576,712.73107 L 166.48621,712.73107 L 166.48621,726.01126 L 184.35409,726.01126 L 184.35409,731.14224 L 166.48621,731.14224 L 166.48621,752.66217 L 160.3894,752.66217 L 160.3894,707.60009 z M 209.43553,707.60009 L 247.55569,707.60009 L 247.55569,712.73107 L 231.55911,712.73107 L 231.55911,752.66217 L 225.43211,752.66217 L 225.43211,712.73107 L 209.43553,712.73107 L 209.43553,707.60009 z M 253.4714,707.60009 L 259.56821,707.60009 L 259.56821,726.07162 L 281.72197,726.07162 L 281.72197,707.60009 L 287.81878,707.60009 L 287.81878,752.66217 L 281.72197,752.66217 L 281.72197,731.2026 L 259.56821,731.2026 L 259.56821,752.66217 L 253.4714,752.66217 L 253.4714,707.60009 z M 299.95205,707.60009 L 328.44408,707.60009 L 328.44408,712.73107 L 306.04886,712.73107 L 306.04886,726.07162 L 327.50843,726.07162 L 327.50843,731.2026 L 306.04886,731.2026 L 306.04886,747.53119 L 328.98736,747.53119 L 328.98736,752.66217 L 299.95205,752.66217 L 299.95205,707.60009 z M 392.49077,711.07105 L 392.49077,717.49987 C 390.43834,715.58836 388.25013,714.15974 385.92614,713.21399 C 383.60207,712.26832 381.13216,711.79547 378.5164,711.79542 C 373.36528,711.79547 369.42147,713.36997 366.68496,716.51894 C 363.94843,719.66799 362.58017,724.22047 362.58018,730.17641 C 362.58017,736.11226 363.94843,740.65468 366.68496,743.80368 C 369.42147,746.9527 373.36528,748.52721 378.5164,748.5272 C 381.13216,748.52721 383.60207,748.05435 385.92614,747.10864 C 388.25013,746.16294 390.43834,744.73431 392.49077,742.82276 L 392.49077,749.19121 C 390.35786,750.63996 388.09922,751.72652 385.71486,752.45089 C 383.33043,753.17527 380.81022,753.53745 378.15421,753.53746 C 371.33301,753.53745 365.96057,751.44985 362.0369,747.27464 C 358.1132,743.09944 356.15136,737.40004 356.15136,730.17641 C 356.15136,722.9327 358.1132,717.22323 362.0369,713.04799 C 365.96057,708.87282 371.33301,706.78522 378.15421,706.78517 C 380.85046,706.78522 383.3908,707.14238 385.77523,707.85664 C 388.15959,708.571 390.3981,709.64247 392.49077,711.07105 L 392.49077,711.07105 z M 420.25842,711.73506 C 415.83167,711.7351 412.31544,713.38506 409.70972,716.68495 C 407.10398,719.9849 405.80112,724.48205 405.80112,730.17641 C 405.80112,735.85068 407.10398,740.33777 409.70972,743.63768 C 412.31544,746.93761 415.83167,748.58757 420.25842,748.58757 C 424.68511,748.58757 428.19128,746.93761 430.77692,743.63768 C 433.3625,740.33777 434.6553,735.85068 434.65534,730.17641 C 434.6553,724.48205 433.3625,719.9849 430.77692,716.68495 C 428.19128,713.38506 424.68511,711.7351 420.25842,711.73506 L 420.25842,711.73506 z M 420.25842,706.78517 C 426.57653,706.78522 431.62702,708.903 435.4099,713.13853 C 439.19269,717.37414 441.08411,723.05343 441.08416,730.17641 C 441.08411,737.27931 439.19269,742.94853 435.4099,747.18409 C 431.62702,751.41967 426.57653,753.53745 420.25842,753.53746 C 413.92013,753.53745 408.85455,751.4247 405.06166,747.19919 C 401.26875,742.97368 399.37231,737.29943 399.37231,730.17641 C 399.37231,723.05343 401.26875,717.37414 405.06166,713.13853 C 408.85455,708.903 413.92013,706.78522 420.25842,706.78517 L 420.25842,706.78517 z M 450.62179,707.60009 L 456.7186,707.60009 L 456.7186,747.53119 L 478.66109,747.53119 L 478.66109,752.66217 L 450.62179,752.66217 L 450.62179,707.60009 z M 503.31994,711.73506 C 498.89319,711.7351 495.37696,713.38506 492.77125,716.68495 C 490.1655,719.9849 488.86264,724.48205 488.86265,730.17641 C 488.86264,735.85068 490.1655,740.33777 492.77125,743.63768 C 495.37696,746.93761 498.89319,748.58757 503.31994,748.58757 C 507.74664,748.58757 511.2528,746.93761 513.83845,743.63768 C 516.42402,740.33777 517.71683,735.85068 517.71687,730.17641 C 517.71683,724.48205 516.42402,719.9849 513.83845,716.68495 C 511.2528,713.38506 507.74664,711.7351 503.31994,711.73506 L 503.31994,711.73506 z M 503.31994,706.78517 C 509.63806,706.78522 514.68855,708.903 518.47142,713.13853 C 522.25422,717.37414 524.14564,723.05343 524.14568,730.17641 C 524.14564,737.27931 522.25422,742.94853 518.47142,747.18409 C 514.68855,751.41967 509.63806,753.53745 503.31994,753.53746 C 496.98165,753.53745 491.91607,751.4247 488.12318,747.19919 C 484.33028,742.97368 482.43383,737.29943 482.43383,730.17641 C 482.43383,723.05343 484.33028,717.37414 488.12318,713.13853 C 491.91607,708.903 496.98165,706.78522 503.31994,706.78517 L 503.31994,706.78517 z M 555.05227,731.53461 C 556.36014,731.9773 557.63283,732.92301 558.87033,734.37174 C 560.10777,735.8205 561.35027,737.81253 562.59783,740.34782 L 568.78519,752.66217 L 562.23565,752.66217 L 556.47084,741.10237 C 554.98182,738.08417 553.53811,736.08208 552.13969,735.09611 C 550.74122,734.11018 548.83471,733.6172 546.42016,733.61718 L 539.78006,733.61718 L 539.78006,752.66217 L 533.68325,752.66217 L 533.68325,707.60009 L 547.44635,707.60009 C 552.59743,707.60014 556.44063,708.67664 558.97597,710.82959 C 561.51124,712.98263 562.77889,716.23225 562.77893,720.57845 C 562.77889,723.41561 562.11991,725.76983 560.80199,727.6411 C 559.484,729.51242 557.56743,730.81025 555.05227,731.53461 L 555.05227,731.53461 z M 539.78006,712.61034 L 539.78006,728.60693 L 547.44635,728.60693 C 550.38407,728.60695 552.60246,727.92785 554.10153,726.56963 C 555.60056,725.21146 556.35008,723.2144 556.35011,720.57845 C 556.35008,717.94257 555.60056,715.95558 554.10153,714.61746 C 552.60246,713.27942 550.38407,712.61038 547.44635,712.61034 L 539.78006,712.61034 z M 603.67591,709.07902 L 603.67591,715.02492 C 601.3619,713.91828 599.17872,713.0933 597.12636,712.54998 C 595.07394,712.00674 593.09198,711.7351 591.18046,711.73506 C 587.8604,711.7351 585.29994,712.37899 583.49908,713.66672 C 581.6982,714.95454 580.79776,716.78559 580.79777,719.15989 C 580.79776,721.15195 581.39638,722.65603 582.59361,723.67213 C 583.79083,724.6883 586.05953,725.50825 589.39971,726.13199 L 593.08194,726.88654 C 597.62937,727.75179 600.98463,729.27599 603.14772,731.45915 C 605.31074,733.64235 606.39227,736.56499 606.39231,740.22709 C 606.39227,744.59346 604.92843,747.90344 602.00079,750.15704 C 599.07309,752.41065 594.78218,753.53745 589.12807,753.53746 C 586.99517,753.53745 584.72648,753.296 582.32197,752.81308 C 579.91745,752.33017 577.42742,751.61585 574.85187,750.67014 L 574.85187,744.39224 C 577.32681,745.78063 579.75144,746.82694 582.12579,747.53119 C 584.50011,748.23545 586.8342,748.58757 589.12807,748.58757 C 592.60906,748.58757 595.29528,747.90344 597.18673,746.53518 C 599.07812,745.16692 600.02383,743.21514 600.02386,740.67982 C 600.02383,738.46647 599.34473,736.73603 597.98655,735.48848 C 596.62833,734.24096 594.39987,733.30532 591.30119,732.68153 L 587.58877,731.95716 C 583.04131,731.05171 579.75144,729.63315 577.71918,727.70146 C 575.68691,725.76983 574.67077,723.08361 574.67078,719.64281 C 574.67077,715.65879 576.07425,712.51984 578.8812,710.22595 C 581.68814,707.93214 585.55649,706.78522 590.48627,706.78517 C 592.599,706.78522 594.752,706.97637 596.94527,707.35864 C 599.13848,707.74099 601.38203,708.31445 603.67591,709.07902 L 603.67591,709.07902 z"
         style="font-size:61.81321716px;font-style:normal;font-variant:normal;font-weight:normal;font-stretch:normal;text-align:start;line-height:125%;writing-mode:lr-tb;text-anchor:start;fill:#cb3bb9;fill-opacity:1;stroke:none;stroke-width:1px;stroke-linecap:butt;stroke-linejoin:miter;stroke-opacity:1;font-family:Bitstream Vera Sans;-inkscape-font-specification:Bitstream Vera Sans"
         transform="scale(1.0562073,0.9467838)" />
      <path
         id="text4490"
         d="M -33.101343,817.96265 L -33.101343,842.72718 L -18.432777,842.72718 C -13.513111,842.72718 -9.8686093,841.70854 -7.4992624,839.67123 C -5.1300032,837.63394 -3.9453516,834.51763 -3.9453042,830.32228 C -3.9453516,826.09679 -5.1300032,822.98048 -7.4992624,820.97333 C -9.8686093,818.96624 -13.513111,817.96269 -18.432777,817.96265 L -33.101343,817.96265 z M -33.101343,790.16482 L -33.101343,810.53782 L -19.564611,810.53782 C -15.097676,810.53786 -11.770088,809.70031 -9.5818366,808.02515 C -7.3936685,806.35008 -6.2995636,803.79214 -6.2995186,800.35132 C -6.2995636,796.94078 -7.3936685,794.39038 -9.5818366,792.70012 C -11.770088,791.00998 -15.097676,790.16488 -19.564611,790.16482 L -33.101343,790.16482 z M -42.24656,782.64944 L -18.885511,782.64944 C -11.913454,782.64951 -6.5410212,784.09825 -2.7681971,786.99568 C 1.0045299,789.89324 2.8909177,794.01311 2.890972,799.35531 C 2.8909177,803.49032 1.9250872,806.78018 -0.0065225735,809.2249 C -1.938235,811.6697 -4.7753623,813.1939 -8.5179128,813.79751 C -4.0208071,814.76337 -0.52721695,816.77803 1.9628683,819.8415 C 4.4528468,822.90502 5.6978628,826.73062 5.6979198,831.31829 C 5.6978628,837.35475 3.6454729,842.0179 -0.4592561,845.30776 C -4.5640868,848.59762 -10.404343,850.24255 -17.980043,850.24255 L -42.24656,850.24255 L -42.24656,782.64944 z M 21.317225,782.64944 L 64.05527,782.64944 L 64.05527,790.34591 L 30.462442,790.34591 L 30.462442,810.35673 L 62.651796,810.35673 L 62.651796,818.0532 L 30.462442,818.0532 L 30.462442,842.54608 L 64.87019,842.54608 L 64.87019,850.24255 L 21.317225,850.24255 L 21.317225,782.64944 z M 79.991492,782.64944 L 122.72954,782.64944 L 122.72954,790.34591 L 89.136709,790.34591 L 89.136709,810.35673 L 121.32606,810.35673 L 121.32606,818.0532 L 89.136709,818.0532 L 89.136709,842.54608 L 123.54446,842.54608 L 123.54446,850.24255 L 79.991492,850.24255 L 79.991492,782.64944 z M 168.18398,782.64944 L 177.3292,782.64944 L 177.3292,810.35673 L 210.55984,810.35673 L 210.55984,782.64944 L 219.70506,782.64944 L 219.70506,850.24255 L 210.55984,850.24255 L 210.55984,818.0532 L 177.3292,818.0532 L 177.3292,850.24255 L 168.18398,850.24255 L 168.18398,782.64944 z M 260.49633,791.65884 L 248.09143,825.29694 L 272.9465,825.29694 L 260.49633,791.65884 z M 255.33517,782.64944 L 265.70277,782.64944 L 291.4633,850.24255 L 281.9559,850.24255 L 275.79872,832.90286 L 245.32976,832.90286 L 239.17258,850.24255 L 229.52936,850.24255 L 255.33517,782.64944 z M 310.43284,790.16482 L 310.43284,815.56317 L 321.93227,815.56317 C 326.18793,815.5632 329.47779,814.46155 331.80186,812.25821 C 334.12585,810.05495 335.28786,806.916 335.28791,802.84135 C 335.28786,798.79699 334.12585,795.67313 331.80186,793.46977 C 329.47779,791.26653 326.18793,790.16488 321.93227,790.16482 L 310.43284,790.16482 z M 301.28762,782.64944 L 321.93227,782.64944 C 329.50797,782.64951 335.23505,784.36235 339.11351,787.78796 C 342.99187,791.21371 344.93108,796.2315 344.93113,802.84135 C 344.93108,809.51167 342.99187,814.5521 339.11351,817.96265 C 335.23505,821.37327 329.50797,823.07857 321.93227,823.07854 L 310.43284,823.07854 L 310.43284,850.24255 L 301.28762,850.24255 L 301.28762,782.64944 z M 366.39072,790.16482 L 366.39072,815.56317 L 377.89015,815.56317 C 382.14581,815.5632 385.43568,814.46155 387.75974,812.25821 C 390.08373,810.05495 391.24575,806.916 391.24579,802.84135 C 391.24575,798.79699 390.08373,795.67313 387.75974,793.46977 C 385.43568,791.26653 382.14581,790.16488 377.89015,790.16482 L 366.39072,790.16482 z M 357.24551,782.64944 L 377.89015,782.64944 C 385.46586,782.64951 391.19293,784.36235 395.07139,787.78796 C 398.94976,791.21371 400.88896,796.2315 400.88902,802.84135 C 400.88896,809.51167 398.94976,814.5521 395.07139,817.96265 C 391.19293,821.37327 385.46586,823.07857 377.89015,823.07854 L 366.39072,823.07854 L 366.39072,850.24255 L 357.24551,850.24255 L 357.24551,782.64944 z M 403.92232,782.64944 L 413.74664,782.64944 L 432.48981,810.44728 L 451.09716,782.64944 L 460.92147,782.64944 L 437.01714,818.0532 L 437.01714,850.24255 L 427.82665,850.24255 L 427.82665,818.0532 L 403.92232,782.64944 z M 474.7751,838.74312 L 483.96559,838.74312 L 483.96559,850.24255 L 474.7751,850.24255 L 474.7751,838.74312 z M 474.7751,782.64944 L 483.96559,782.64944 L 483.96559,812.30348 L 483.06013,828.46607 L 475.72584,828.46607 L 474.7751,812.30348 L 474.7751,782.64944 z"
         style="font-size:92.71982574px;font-style:normal;font-variant:normal;font-weight:normal;font-stretch:normal;text-align:start;line-height:125%;writing-mode:lr-tb;text-anchor:start;fill:#9c3bcb;fill-opacity:1;stroke:none;stroke-width:1px;stroke-linecap:butt;stroke-linejoin:miter;stroke-opacity:1;font-family:Bitstream Vera Sans;-inkscape-font-specification:Bitstream Vera Sans"
         transform="scale(1.0562073,0.9467838)" />
      <g
         inkscape:label="Camada 1"
         id="g5428"
         transform="matrix(0.9366235,0.3503377,-0.3503377,0.9366235,163.01249,-482.24334)">
        <g
           id="g5171">
          <g
             transform="translate(617.02589,790.34002)"
             id="g4368">
            <path
               style="opacity:0.5;fill:#e6e6e6;fill-opacity:1;fill-rule:evenodd;stroke:#c8c8c8;stroke-width:5;stroke-linecap:butt;stroke-linejoin:miter;marker:none;marker-start:none;marker-mid:none;marker-end:none;stroke-miterlimit:4;stroke-dasharray:none;stroke-dashoffset:0;stroke-opacity:1;visibility:visible;display:inline;overflow:visible;enable-background:accumulate"
               d="M -206.16418,-81.285048 C -170.74253,-21.455891 -76.495949,-40.713924 -81.723393,-111.33881 C -87.301612,-186.70286 -171.47675,-212.68716 -224.25504,-160.30108 C -230.9017,-152.26093 -226.50516,-152.55032 -227.39933,-148.6344"
               id="path4370"
               sodipodi:nodetypes="cscc" />
            <path
               style="opacity:0.5;fill:#e6e6e6;fill-opacity:1;fill-rule:evenodd;stroke:#c8c8c8;stroke-width:5;stroke-linecap:butt;stroke-linejoin:miter;marker:none;marker-start:none;marker-mid:none;marker-end:none;stroke-miterlimit:4;stroke-dasharray:none;stroke-dashoffset:0;stroke-opacity:1;visibility:visible;display:inline;overflow:visible;enable-background:accumulate"
               d="M -342.58103,-81.285047 C -378.00268,-21.455889 -472.24927,-40.713924 -467.02182,-111.33881 C -461.4436,-186.70286 -377.26846,-212.68716 -324.49017,-160.30108 C -317.84351,-152.26093 -322.24005,-152.55032 -321.34588,-148.63439"
               id="path4372"
               sodipodi:nodetypes="cscc" />
            <path
               id="path4374"
               style="fill:#ffff00;fill-opacity:1;stroke:#000000;stroke-width:10;stroke-miterlimit:4;stroke-dashoffset:0;stroke-opacity:1"
               d="M -246.05475,-28.213531 C -237.44919,-31.926603 -229.97608,-38.123531 -223.57644,-45.363531 C -217.1768,-52.603531 -211.99697,-61.223531 -208.41706,-70.793531 C -204.83715,-80.36353 -202.85715,-90.88353 -202.85715,-101.92353 C -202.85715,-146.08353 -234.53716,-181.92353 -273.57144,-181.92353 C -312.60573,-181.92353 -344.28573,-146.08353 -344.28573,-101.92353 C -344.28573,-90.88353 -342.30573,-80.36353 -338.72582,-70.793531 C -335.14591,-61.223531 -329.96609,-52.603531 -323.56644,-45.363531 C -317.1668,-38.123531 -309.95555,-30.961726 -301.08814,-28.213531 C -291.79991,-25.334916 -284.64654,-20.719139 -278.57145,-11.637818 C -275.47622,-5.6854367 -275.01457,2.6478966 -273.586,9.790754 C -271.68124,2.1717058 -271.90478,-5.9235304 -268.57145,-11.637818 C -261.29631,-23.375177 -255.90064,-23.965292 -246.05475,-28.213531 z"
               sodipodi:nodetypes="csssssssscccs" />
            <path
               id="path4376"
               sodipodi:type="arc"
               style="opacity:1;fill:#ffff00;fill-opacity:1;stroke:#000000;stroke-width:10;stroke-miterlimit:4;stroke-dasharray:none;stroke-dashoffset:0;stroke-opacity:1"
               sodipodi:cx="-276.7818"
               sodipodi:cy="-226.99602"
               sodipodi:rx="58.588848"
               sodipodi:ry="55.053314"
               d="M -218.19295,-226.99602 A 58.588848,55.053314 0 1 1 -335.37065,-226.99602 A 58.588848,55.053314 0 1 1 -218.19295,-226.99602 z"
               transform="translate(3.2103593,-12)" />
            <path
               sodipodi:type="spiral"
               style="fill:none;fill-rule:evenodd;stroke:#000000;stroke-width:5;stroke-linecap:butt;stroke-linejoin:miter;stroke-miterlimit:4;stroke-dasharray:none;stroke-opacity:1"
               id="path4378"
               sodipodi:cx="-423.25391"
               sodipodi:cy="-329.52649"
               sodipodi:expansion="3"
               sodipodi:revolution="3"
               sodipodi:radius="33.089241"
               sodipodi:argument="-18.303902"
               sodipodi:t0="0.6377188"
               d="M -414.67218,-329.52649 C -413.22615,-323.73238 -417.74745,-318.33719 -423.2539,-317.12177 C -431.4344,-315.31612 -438.93013,-321.71479 -440.47574,-329.52649 C -442.68076,-340.67087 -433.93892,-350.7588 -423.25391,-352.67447 C -408.50554,-355.31864 -395.28144,-343.71548 -392.95587,-329.5265 C -392.00944,-323.75202 -392.75991,-317.76308 -394.96962,-312.35392"
               transform="translate(78.771593,35.355339)" />
            <path
               sodipodi:type="spiral"
               style="fill:none;fill-rule:evenodd;stroke:#000000;stroke-width:5;stroke-linecap:butt;stroke-linejoin:miter;stroke-miterlimit:4;stroke-dasharray:none;stroke-opacity:1"
               id="path4380"
               sodipodi:cx="-423.25391"
               sodipodi:cy="-329.52649"
               sodipodi:expansion="3"
               sodipodi:revolution="3"
               sodipodi:radius="33.089241"
               sodipodi:argument="-18.303902"
               sodipodi:t0="0.6377188"
               d="M -414.67218,-329.52649 C -413.22615,-323.73238 -417.74745,-318.33719 -423.2539,-317.12177 C -431.4344,-315.31612 -438.93013,-321.71479 -440.47574,-329.52649 C -442.68076,-340.67087 -433.93892,-350.7588 -423.25391,-352.67447 C -408.50554,-355.31864 -395.28144,-343.71548 -392.95587,-329.5265 C -392.00944,-323.75202 -392.75991,-317.76308 -394.96962,-312.35392"
               transform="matrix(-1,0,0,1,-626.7781,35.355339)" />
            <path
               style="opacity:1;fill:#000000;fill-opacity:1;stroke:none;stroke-width:5;stroke-miterlimit:4;stroke-dasharray:none;stroke-dashoffset:0;stroke-opacity:1"
               d="M -326.85714,-155.3521 C -290.85714,-151.2914 -254.85714,-151.80086 -218.85714,-155.3521 L -210.85714,-137.263 L -208.85714,-126.62236 C -252.19048,-122.35311 -295.52381,-122.32021 -338.85715,-126.62236 C -338.85715,-126.62236 -340.85715,-113.85358 -340.85715,-126.62236 C -340.85715,-139.39113 -334.85715,-139.39113 -334.85715,-139.39113 L -326.85714,-155.3521 z"
               id="path4382"
               sodipodi:nodetypes="cccccscc" />
            <path
               style="opacity:1;fill:#000000;fill-opacity:1;stroke:none;stroke-width:5;stroke-miterlimit:4;stroke-dasharray:none;stroke-dashoffset:0;stroke-opacity:1"
               d="M -343.92856,-98.240571 C -298.16419,-94.631382 -251.59662,-94.234994 -203.92856,-98.240571 L -209.92856,-80.151471 L -207.92856,-69.510831 C -251.7576,-65.049466 -295.05157,-65.403798 -337.92857,-69.510831 C -337.92857,-69.510831 -339.92857,-56.742051 -339.92857,-69.510831 C -339.92857,-82.279601 -339.92857,-82.279601 -339.92857,-82.279601 L -343.92856,-98.240571 z"
               id="path4384"
               sodipodi:nodetypes="cccccscc" />
            <path
               style="opacity:1;fill:#000000;fill-opacity:1;stroke:none;stroke-width:5;stroke-miterlimit:4;stroke-dasharray:none;stroke-dashoffset:0;stroke-opacity:1"
               d="M -317.92857,-41.257817 C -289,-36.816056 -260.07143,-37.130533 -231.14286,-41.257817 L -232.42857,-33.53681 L -250.07143,-27.181884 L -273.64287,-11.253313 C -270.1369,-11.350988 -304.35626,-30.372048 -302.50001,-26.022083 L -317.92857,-41.257817 z"
               id="path4386"
               sodipodi:nodetypes="ccccccc" />
            <path
               sodipodi:type="arc"
               style="opacity:1;fill:#000000;fill-opacity:1;stroke:none;stroke-width:5;stroke-miterlimit:4;stroke-dasharray:none;stroke-dashoffset:0;stroke-opacity:1"
               id="path4388"
               sodipodi:cx="-297.14285"
               sodipodi:cy="-237.81639"
               sodipodi:rx="8.9285717"
               sodipodi:ry="10.178572"
               d="M -288.21428,-237.81639 A 8.9285717,10.178572 0 1 1 -306.07142,-237.81639 A 8.9285717,10.178572 0 1 1 -288.21428,-237.81639 z"
               transform="matrix(1.12,0,0,0.9824561,39.228555,-5.3518534)" />
            <path
               sodipodi:type="arc"
               style="opacity:1;fill:#000000;fill-opacity:1;stroke:none;stroke-width:5;stroke-miterlimit:4;stroke-dasharray:none;stroke-dashoffset:0;stroke-opacity:1"
               id="path4390"
               sodipodi:cx="-297.14285"
               sodipodi:cy="-237.81639"
               sodipodi:rx="8.9285717"
               sodipodi:ry="10.178572"
               d="M -288.21428,-237.81639 A 8.9285717,10.178572 0 1 1 -306.07142,-237.81639 A 8.9285717,10.178572 0 1 1 -288.21428,-237.81639 z"
               transform="matrix(1.12,0,0,0.9824561,79.228555,-5.3518534)" />
          </g>
          <path
             sodipodi:nodetypes="css"
             id="path4660"
             d="M 328.65328,571.15221 C 328.65328,571.15221 336.51233,586.08588 342.65328,586.08588 C 348.79423,586.08588 356.65328,571.15221 356.65328,571.15221"
             style="opacity:1;fill:#000000;fill-opacity:1;stroke:none;stroke-width:5;stroke-miterlimit:4;stroke-dasharray:none;stroke-dashoffset:0;stroke-opacity:1" />
        </g>
      </g>
    </g>
  </g>
</svg>
