<?xml version="1.0" encoding="UTF-8" standalone="no"?>
<!-- Created with Inkscape (http://www.inkscape.org/) -->

<svg
   xmlns:dc="http://purl.org/dc/elements/1.1/"
   xmlns:cc="http://creativecommons.org/ns#"
   xmlns:rdf="http://www.w3.org/1999/02/22-rdf-syntax-ns#"
   xmlns:svg="http://www.w3.org/2000/svg"
   xmlns="http://www.w3.org/2000/svg"
   xmlns:xlink="http://www.w3.org/1999/xlink"
   xmlns:sodipodi="http://sodipodi.sourceforge.net/DTD/sodipodi-0.dtd"
   xmlns:inkscape="http://www.inkscape.org/namespaces/inkscape"
   width="256"
   height="256"
   id="svg3077"
   version="1.1"
   inkscape:version="0.48.0 r9654"
   sodipodi:docname="organic food.svg">
  <title
     id="title3183">organic food label</title>
  <defs
     id="defs3079">
    <linearGradient
       inkscape:collect="always"
       id="linearGradient5126">
      <stop
         style="stop-color:#9ade00;stop-opacity:1"
         offset="0"
         id="stop5128" />
      <stop
         style="stop-color:#009100;stop-opacity:1"
         offset="1"
         id="stop5130" />
    </linearGradient>
    <linearGradient
       inkscape:collect="always"
       id="linearGradient4955">
      <stop
         style="stop-color:#ffff3e;stop-opacity:1;"
         offset="0"
         id="stop4957" />
      <stop
         style="stop-color:#ffff3e;stop-opacity:0;"
         offset="1"
         id="stop4959" />
    </linearGradient>
    <linearGradient
       id="linearGradient4913"
       inkscape:collect="always">
      <stop
         id="stop4915"
         offset="0"
         style="stop-color:#ccff42;stop-opacity:1;" />
      <stop
         id="stop4917"
         offset="1"
         style="stop-color:#009100;stop-opacity:1" />
    </linearGradient>
    <linearGradient
       id="linearGradient4907"
       inkscape:collect="always">
      <stop
         id="stop4909"
         offset="0"
         style="stop-color:#ccff42;stop-opacity:1;" />
      <stop
         id="stop4911"
         offset="1"
         style="stop-color:#009100;stop-opacity:1" />
    </linearGradient>
    <linearGradient
       id="linearGradient4901"
       inkscape:collect="always">
      <stop
         id="stop4903"
         offset="0"
         style="stop-color:#ccff42;stop-opacity:1;" />
      <stop
         id="stop4905"
         offset="1"
         style="stop-color:#009100;stop-opacity:1" />
    </linearGradient>
    <linearGradient
       id="linearGradient4895"
       inkscape:collect="always">
      <stop
         id="stop4897"
         offset="0"
         style="stop-color:#ccff42;stop-opacity:1;" />
      <stop
         id="stop4899"
         offset="1"
         style="stop-color:#009100;stop-opacity:1" />
    </linearGradient>
    <linearGradient
       id="linearGradient4889"
       inkscape:collect="always">
      <stop
         id="stop4891"
         offset="0"
         style="stop-color:#ccff42;stop-opacity:1;" />
      <stop
         id="stop4893"
         offset="1"
         style="stop-color:#009100;stop-opacity:1" />
    </linearGradient>
    <linearGradient
       inkscape:collect="always"
       id="linearGradient4871">
      <stop
         style="stop-color:#ccff42;stop-opacity:1;"
         offset="0"
         id="stop4873" />
      <stop
         style="stop-color:#009100;stop-opacity:1"
         offset="1"
         id="stop4875" />
    </linearGradient>
    <linearGradient
       id="linearGradient4769"
       inkscape:collect="always">
      <stop
         id="stop4771"
         offset="0"
         style="stop-color:#ccff42;stop-opacity:1;" />
      <stop
         id="stop4773"
         offset="1"
         style="stop-color:#009100;stop-opacity:1" />
    </linearGradient>
    <linearGradient
       id="linearGradient4763"
       inkscape:collect="always">
      <stop
         id="stop4765"
         offset="0"
         style="stop-color:#ccff42;stop-opacity:1;" />
      <stop
         id="stop4767"
         offset="1"
         style="stop-color:#009100;stop-opacity:1" />
    </linearGradient>
    <linearGradient
       id="linearGradient4757"
       inkscape:collect="always">
      <stop
         id="stop4759"
         offset="0"
         style="stop-color:#ccff42;stop-opacity:1;" />
      <stop
         id="stop4761"
         offset="1"
         style="stop-color:#009100;stop-opacity:1" />
    </linearGradient>
    <linearGradient
       id="linearGradient4751"
       inkscape:collect="always">
      <stop
         id="stop4753"
         offset="0"
         style="stop-color:#ccff42;stop-opacity:1;" />
      <stop
         id="stop4755"
         offset="1"
         style="stop-color:#009100;stop-opacity:1" />
    </linearGradient>
    <linearGradient
       id="linearGradient4745"
       inkscape:collect="always">
      <stop
         id="stop4747"
         offset="0"
         style="stop-color:#ccff42;stop-opacity:1;" />
      <stop
         id="stop4749"
         offset="1"
         style="stop-color:#009100;stop-opacity:1" />
    </linearGradient>
    <linearGradient
       inkscape:collect="always"
       id="linearGradient4727">
      <stop
         style="stop-color:#ccff42;stop-opacity:1;"
         offset="0"
         id="stop4729" />
      <stop
         style="stop-color:#009100;stop-opacity:1"
         offset="1"
         id="stop4731" />
    </linearGradient>
    <linearGradient
       id="linearGradient4625"
       inkscape:collect="always">
      <stop
         id="stop4627"
         offset="0"
         style="stop-color:#9ade00;stop-opacity:1;" />
      <stop
         id="stop4629"
         offset="1"
         style="stop-color:#009100;stop-opacity:1" />
    </linearGradient>
    <linearGradient
       id="linearGradient4619"
       inkscape:collect="always">
      <stop
         id="stop4621"
         offset="0"
         style="stop-color:#9ade00;stop-opacity:1;" />
      <stop
         id="stop4623"
         offset="1"
         style="stop-color:#009100;stop-opacity:1" />
    </linearGradient>
    <linearGradient
       id="linearGradient4613"
       inkscape:collect="always">
      <stop
         id="stop4615"
         offset="0"
         style="stop-color:#9ade00;stop-opacity:1;" />
      <stop
         id="stop4617"
         offset="1"
         style="stop-color:#009100;stop-opacity:1" />
    </linearGradient>
    <linearGradient
       id="linearGradient4607"
       inkscape:collect="always">
      <stop
         id="stop4609"
         offset="0"
         style="stop-color:#9ade00;stop-opacity:1;" />
      <stop
         id="stop4611"
         offset="1"
         style="stop-color:#009100;stop-opacity:1" />
    </linearGradient>
    <linearGradient
       id="linearGradient4601"
       inkscape:collect="always">
      <stop
         id="stop4603"
         offset="0"
         style="stop-color:#9ade00;stop-opacity:1;" />
      <stop
         id="stop4605"
         offset="1"
         style="stop-color:#009100;stop-opacity:1" />
    </linearGradient>
    <linearGradient
       inkscape:collect="always"
       id="linearGradient4583">
      <stop
         style="stop-color:#9ade00;stop-opacity:1;"
         offset="0"
         id="stop4585" />
      <stop
         style="stop-color:#009100;stop-opacity:1"
         offset="1"
         id="stop4587" />
    </linearGradient>
    <linearGradient
       id="linearGradient4493"
       inkscape:collect="always">
      <stop
         id="stop4495"
         offset="0"
         style="stop-color:#009100;stop-opacity:1;" />
      <stop
         id="stop4497"
         offset="1"
         style="stop-color:#ffff3e;stop-opacity:1" />
    </linearGradient>
    <linearGradient
       id="linearGradient4487"
       inkscape:collect="always">
      <stop
         id="stop4489"
         offset="0"
         style="stop-color:#009100;stop-opacity:1;" />
      <stop
         id="stop4491"
         offset="1"
         style="stop-color:#ffff3e;stop-opacity:1" />
    </linearGradient>
    <linearGradient
       id="linearGradient4481"
       inkscape:collect="always">
      <stop
         id="stop4483"
         offset="0"
         style="stop-color:#009100;stop-opacity:1;" />
      <stop
         id="stop4485"
         offset="1"
         style="stop-color:#ffff3e;stop-opacity:1" />
    </linearGradient>
    <linearGradient
       id="linearGradient4475"
       inkscape:collect="always">
      <stop
         id="stop4477"
         offset="0"
         style="stop-color:#009100;stop-opacity:1;" />
      <stop
         id="stop4479"
         offset="1"
         style="stop-color:#ffff3e;stop-opacity:1" />
    </linearGradient>
    <linearGradient
       id="linearGradient4469"
       inkscape:collect="always">
      <stop
         id="stop4471"
         offset="0"
         style="stop-color:#009100;stop-opacity:1;" />
      <stop
         id="stop4473"
         offset="1"
         style="stop-color:#ffff3e;stop-opacity:1" />
    </linearGradient>
    <linearGradient
       inkscape:collect="always"
       id="linearGradient4451">
      <stop
         style="stop-color:#009100;stop-opacity:1;"
         offset="0"
         id="stop4453" />
      <stop
         style="stop-color:#ffff3e;stop-opacity:1"
         offset="1"
         id="stop4455" />
    </linearGradient>
    <linearGradient
       id="linearGradient4289"
       inkscape:collect="always">
      <stop
         id="stop4291"
         offset="0"
         style="stop-color:#ccff42;stop-opacity:1;" />
      <stop
         id="stop4293"
         offset="1"
         style="stop-color:#009100;stop-opacity:1" />
    </linearGradient>
    <linearGradient
       id="linearGradient4283"
       inkscape:collect="always">
      <stop
         id="stop4285"
         offset="0"
         style="stop-color:#ccff42;stop-opacity:1;" />
      <stop
         id="stop4287"
         offset="1"
         style="stop-color:#009100;stop-opacity:1" />
    </linearGradient>
    <linearGradient
       id="linearGradient4277"
       inkscape:collect="always">
      <stop
         id="stop4279"
         offset="0"
         style="stop-color:#ccff42;stop-opacity:1;" />
      <stop
         id="stop4281"
         offset="1"
         style="stop-color:#009100;stop-opacity:1" />
    </linearGradient>
    <linearGradient
       id="linearGradient4271"
       inkscape:collect="always">
      <stop
         id="stop4273"
         offset="0"
         style="stop-color:#ccff42;stop-opacity:1;" />
      <stop
         id="stop4275"
         offset="1"
         style="stop-color:#009100;stop-opacity:1" />
    </linearGradient>
    <linearGradient
       id="linearGradient4265"
       inkscape:collect="always">
      <stop
         id="stop4267"
         offset="0"
         style="stop-color:#ccff42;stop-opacity:1;" />
      <stop
         id="stop4269"
         offset="1"
         style="stop-color:#009100;stop-opacity:1" />
    </linearGradient>
    <linearGradient
       inkscape:collect="always"
       id="linearGradient4247">
      <stop
         style="stop-color:#ccff42;stop-opacity:1;"
         offset="0"
         id="stop4249" />
      <stop
         style="stop-color:#009100;stop-opacity:1"
         offset="1"
         id="stop4251" />
    </linearGradient>
    <linearGradient
       inkscape:collect="always"
       id="linearGradient4049">
      <stop
         style="stop-color:#ccff42;stop-opacity:1;"
         offset="0"
         id="stop4051" />
      <stop
         style="stop-color:#ccff42;stop-opacity:0;"
         offset="1"
         id="stop4053" />
    </linearGradient>
    <linearGradient
       inkscape:collect="always"
       id="linearGradient3949">
      <stop
         style="stop-color:#9ade00;stop-opacity:1;"
         offset="0"
         id="stop3951" />
      <stop
         style="stop-color:#9ade00;stop-opacity:0;"
         offset="1"
         id="stop3953" />
    </linearGradient>
    <linearGradient
       inkscape:collect="always"
       id="linearGradient3899">
      <stop
         style="stop-color:#ccff42;stop-opacity:1;"
         offset="0"
         id="stop3901" />
      <stop
         style="stop-color:#ccff42;stop-opacity:0;"
         offset="1"
         id="stop3903" />
    </linearGradient>
    <linearGradient
       inkscape:collect="always"
       xlink:href="#linearGradient3899"
       id="linearGradient3923"
       gradientUnits="userSpaceOnUse"
       x1="348.51065"
       y1="316.07092"
       x2="347.21985"
       y2="122.4539" />
    <linearGradient
       inkscape:collect="always"
       xlink:href="#linearGradient3949"
       id="linearGradient3955"
       x1="345.92908"
       y1="285.09219"
       x2="345.92908"
       y2="216.68085"
       gradientUnits="userSpaceOnUse" />
    <linearGradient
       inkscape:collect="always"
       xlink:href="#linearGradient3899"
       id="linearGradient3967"
       gradientUnits="userSpaceOnUse"
       x1="348.51065"
       y1="316.07092"
       x2="347.21985"
       y2="122.4539" />
    <linearGradient
       inkscape:collect="always"
       xlink:href="#linearGradient3899"
       id="linearGradient3975"
       gradientUnits="userSpaceOnUse"
       x1="348.51065"
       y1="316.07092"
       x2="347.21985"
       y2="122.4539" />
    <linearGradient
       inkscape:collect="always"
       xlink:href="#linearGradient3899"
       id="linearGradient3995"
       gradientUnits="userSpaceOnUse"
       x1="348.51065"
       y1="316.07092"
       x2="347.21985"
       y2="122.4539" />
    <linearGradient
       inkscape:collect="always"
       xlink:href="#linearGradient3899"
       id="linearGradient3997"
       gradientUnits="userSpaceOnUse"
       x1="348.51065"
       y1="316.07092"
       x2="347.21985"
       y2="122.4539" />
    <linearGradient
       inkscape:collect="always"
       xlink:href="#linearGradient3899"
       id="linearGradient3999"
       gradientUnits="userSpaceOnUse"
       x1="348.51065"
       y1="316.07092"
       x2="347.21985"
       y2="122.4539" />
    <linearGradient
       inkscape:collect="always"
       xlink:href="#linearGradient4049"
       id="linearGradient4055"
       x1="327.7258"
       y1="199.90118"
       x2="377.99268"
       y2="199.90118"
       gradientUnits="userSpaceOnUse" />
    <linearGradient
       inkscape:collect="always"
       xlink:href="#linearGradient4049"
       id="linearGradient4057"
       x1="327.7258"
       y1="199.90118"
       x2="377.99268"
       y2="199.90118"
       gradientUnits="userSpaceOnUse" />
    <linearGradient
       inkscape:collect="always"
       xlink:href="#linearGradient4049"
       id="linearGradient4059"
       x1="327.7258"
       y1="199.90118"
       x2="377.99268"
       y2="199.90118"
       gradientUnits="userSpaceOnUse" />
    <linearGradient
       inkscape:collect="always"
       xlink:href="#linearGradient4049"
       id="linearGradient4061"
       x1="327.7258"
       y1="199.90118"
       x2="377.99268"
       y2="199.90118"
       gradientUnits="userSpaceOnUse" />
    <linearGradient
       inkscape:collect="always"
       xlink:href="#linearGradient4049"
       id="linearGradient4063"
       x1="327.7258"
       y1="199.90118"
       x2="377.99268"
       y2="199.90118"
       gradientUnits="userSpaceOnUse" />
    <linearGradient
       inkscape:collect="always"
       xlink:href="#linearGradient4049"
       id="linearGradient4065"
       x1="327.7258"
       y1="199.90118"
       x2="377.99268"
       y2="199.90118"
       gradientUnits="userSpaceOnUse" />
    <linearGradient
       inkscape:collect="always"
       xlink:href="#linearGradient4247"
       id="linearGradient4253"
       x1="389.80936"
       y1="352.07007"
       x2="441.03873"
       y2="100.56091"
       gradientUnits="userSpaceOnUse" />
    <linearGradient
       inkscape:collect="always"
       xlink:href="#linearGradient4289"
       id="linearGradient4255"
       x1="386.12204"
       y1="345.85266"
       x2="370.51047"
       y2="89.654327"
       gradientUnits="userSpaceOnUse" />
    <linearGradient
       inkscape:collect="always"
       xlink:href="#linearGradient4283"
       id="linearGradient4257"
       x1="368.88226"
       y1="342.82895"
       x2="286.64749"
       y2="131.74118"
       gradientUnits="userSpaceOnUse" />
    <linearGradient
       inkscape:collect="always"
       xlink:href="#linearGradient4277"
       id="linearGradient4259"
       x1="308.54764"
       y1="352.07007"
       x2="257.31827"
       y2="100.56091"
       gradientUnits="userSpaceOnUse" />
    <linearGradient
       inkscape:collect="always"
       xlink:href="#linearGradient4271"
       id="linearGradient4261"
       x1="307.62924"
       y1="366.88474"
       x2="193.05011"
       y2="137.20468"
       gradientUnits="userSpaceOnUse" />
    <linearGradient
       inkscape:collect="always"
       xlink:href="#linearGradient4265"
       id="linearGradient4263"
       x1="321.72739"
       y1="370.05383"
       x2="180.0374"
       y2="193.29254"
       gradientUnits="userSpaceOnUse" />
    <linearGradient
       inkscape:collect="always"
       xlink:href="#linearGradient4451"
       id="linearGradient4457"
       x1="347.59879"
       y1="348.31421"
       x2="237.68425"
       y2="129.77278"
       gradientUnits="userSpaceOnUse" />
    <linearGradient
       inkscape:collect="always"
       xlink:href="#linearGradient4493"
       id="linearGradient4459"
       x1="344.37766"
       y1="353.14969"
       x2="181.64568"
       y2="170.50284"
       gradientUnits="userSpaceOnUse" />
    <linearGradient
       inkscape:collect="always"
       xlink:href="#linearGradient4487"
       id="linearGradient4461"
       x1="342.71616"
       y1="354.07471"
       x2="181.64809"
       y2="222.3941"
       gradientUnits="userSpaceOnUse" />
    <linearGradient
       inkscape:collect="always"
       xlink:href="#linearGradient4481"
       id="linearGradient4463"
       x1="350.75827"
       y1="348.31421"
       x2="460.67279"
       y2="129.77278"
       gradientUnits="userSpaceOnUse" />
    <linearGradient
       inkscape:collect="always"
       xlink:href="#linearGradient4475"
       id="linearGradient4465"
       x1="347.42947"
       y1="352.33194"
       x2="397.03607"
       y2="112.78916"
       gradientUnits="userSpaceOnUse" />
    <linearGradient
       inkscape:collect="always"
       xlink:href="#linearGradient4469"
       id="linearGradient4467"
       x1="344.54956"
       y1="353.0162"
       x2="311.04483"
       y2="147.68686"
       gradientUnits="userSpaceOnUse" />
    <linearGradient
       inkscape:collect="always"
       xlink:href="#linearGradient4583"
       id="linearGradient4589"
       x1="310.9606"
       y1="86.398155"
       x2="323.17334"
       y2="331.63165"
       gradientUnits="userSpaceOnUse" />
    <linearGradient
       inkscape:collect="always"
       xlink:href="#linearGradient4625"
       id="linearGradient4591"
       x1="241.19904"
       y1="109.64085"
       x2="316.46674"
       y2="343.35733"
       gradientUnits="userSpaceOnUse" />
    <linearGradient
       inkscape:collect="always"
       xlink:href="#linearGradient4619"
       id="linearGradient4593"
       x1="204.86047"
       y1="164.40079"
       x2="321.11603"
       y2="349.39493"
       gradientUnits="userSpaceOnUse" />
    <linearGradient
       inkscape:collect="always"
       xlink:href="#linearGradient4613"
       id="linearGradient4595"
       x1="387.39642"
       y1="86.398155"
       x2="375.18369"
       y2="331.63165"
       gradientUnits="userSpaceOnUse" />
    <linearGradient
       inkscape:collect="always"
       xlink:href="#linearGradient4607"
       id="linearGradient4597"
       x1="315.03036"
       y1="89.857811"
       x2="366.70486"
       y2="329.89609"
       gradientUnits="userSpaceOnUse" />
    <linearGradient
       inkscape:collect="always"
       xlink:href="#linearGradient4601"
       id="linearGradient4599"
       x1="249.21497"
       y1="138.79271"
       x2="351.29681"
       y2="331.97003"
       gradientUnits="userSpaceOnUse" />
    <linearGradient
       inkscape:collect="always"
       xlink:href="#linearGradient4727"
       id="linearGradient4733"
       x1="489.08514"
       y1="259.04019"
       x2="140.33205"
       y2="271.99951"
       gradientUnits="userSpaceOnUse" />
    <linearGradient
       inkscape:collect="always"
       xlink:href="#linearGradient4769"
       id="linearGradient4735"
       x1="457.93713"
       y1="230.29825"
       x2="124.42164"
       y2="333.07993"
       gradientUnits="userSpaceOnUse" />
    <linearGradient
       inkscape:collect="always"
       xlink:href="#linearGradient4763"
       id="linearGradient4737"
       x1="385.07703"
       y1="237.83878"
       x2="188.47011"
       y2="364.67276"
       gradientUnits="userSpaceOnUse" />
    <linearGradient
       inkscape:collect="always"
       xlink:href="#linearGradient4757"
       id="linearGradient4739"
       x1="209.27197"
       y1="259.04019"
       x2="558.02502"
       y2="271.99951"
       gradientUnits="userSpaceOnUse" />
    <linearGradient
       inkscape:collect="always"
       xlink:href="#linearGradient4751"
       id="linearGradient4741"
       x1="187.65839"
       y1="302.71924"
       x2="527.88208"
       y2="224.97304"
       gradientUnits="userSpaceOnUse" />
    <linearGradient
       inkscape:collect="always"
       xlink:href="#linearGradient4745"
       id="linearGradient4743"
       x1="222.70584"
       y1="331.58383"
       x2="430.85077"
       y2="224.73425"
       gradientUnits="userSpaceOnUse" />
    <linearGradient
       inkscape:collect="always"
       xlink:href="#linearGradient4871"
       id="linearGradient4877"
       x1="196.50734"
       y1="148.68021"
       x2="367.36737"
       y2="444.61847"
       gradientUnits="userSpaceOnUse" />
    <linearGradient
       inkscape:collect="always"
       xlink:href="#linearGradient4913"
       id="linearGradient4879"
       x1="236.92998"
       y1="90.09726"
       x2="336.26865"
       y2="460.83426"
       gradientUnits="userSpaceOnUse" />
    <linearGradient
       inkscape:collect="always"
       xlink:href="#linearGradient4907"
       id="linearGradient4881"
       x1="311.89526"
       y1="66.415573"
       x2="311.89523"
       y2="450.23077"
       gradientUnits="userSpaceOnUse" />
    <linearGradient
       inkscape:collect="always"
       xlink:href="#linearGradient4901"
       id="linearGradient4883"
       x1="239.77707"
       y1="123.69841"
       x2="410.63712"
       y2="419.63666"
       gradientUnits="userSpaceOnUse" />
    <linearGradient
       inkscape:collect="always"
       xlink:href="#linearGradient4895"
       id="linearGradient4885"
       x1="308.95563"
       y1="70.798042"
       x2="408.29431"
       y2="441.53503"
       gradientUnits="userSpaceOnUse" />
    <linearGradient
       inkscape:collect="always"
       xlink:href="#linearGradient4889"
       id="linearGradient4887"
       x1="386.4617"
       y1="66.415573"
       x2="386.4617"
       y2="450.23077"
       gradientUnits="userSpaceOnUse" />
    <linearGradient
       inkscape:collect="always"
       xlink:href="#linearGradient4955"
       id="linearGradient4961"
       x1="175.86826"
       y1="100.46201"
       x2="250.02621"
       y2="190.11436"
       gradientUnits="userSpaceOnUse" />
    <linearGradient
       inkscape:collect="always"
       xlink:href="#linearGradient4955"
       id="linearGradient4963"
       x1="208.33821"
       y1="81.715469"
       x2="248.90045"
       y2="190.76431"
       gradientUnits="userSpaceOnUse" />
    <linearGradient
       inkscape:collect="always"
       xlink:href="#linearGradient4871"
       id="linearGradient4997"
       gradientUnits="userSpaceOnUse"
       x1="196.50734"
       y1="148.68021"
       x2="367.36737"
       y2="444.61847" />
    <linearGradient
       inkscape:collect="always"
       xlink:href="#linearGradient4871"
       id="linearGradient5002"
       gradientUnits="userSpaceOnUse"
       x1="196.50734"
       y1="148.68021"
       x2="367.36737"
       y2="444.61847" />
    <linearGradient
       inkscape:collect="always"
       xlink:href="#linearGradient4913"
       id="linearGradient5007"
       gradientUnits="userSpaceOnUse"
       x1="236.92998"
       y1="90.09726"
       x2="336.26865"
       y2="460.83426" />
    <linearGradient
       inkscape:collect="always"
       xlink:href="#linearGradient4913"
       id="linearGradient5012"
       gradientUnits="userSpaceOnUse"
       x1="236.92998"
       y1="90.09726"
       x2="336.26865"
       y2="460.83426" />
    <linearGradient
       inkscape:collect="always"
       xlink:href="#linearGradient4907"
       id="linearGradient5017"
       gradientUnits="userSpaceOnUse"
       x1="311.89526"
       y1="66.415573"
       x2="311.89523"
       y2="450.23077" />
    <linearGradient
       inkscape:collect="always"
       xlink:href="#linearGradient4907"
       id="linearGradient5022"
       gradientUnits="userSpaceOnUse"
       x1="311.89526"
       y1="66.415573"
       x2="311.89523"
       y2="450.23077" />
    <linearGradient
       inkscape:collect="always"
       xlink:href="#linearGradient4901"
       id="linearGradient5027"
       gradientUnits="userSpaceOnUse"
       x1="239.77707"
       y1="123.69841"
       x2="410.63712"
       y2="419.63666" />
    <linearGradient
       inkscape:collect="always"
       xlink:href="#linearGradient4901"
       id="linearGradient5032"
       gradientUnits="userSpaceOnUse"
       x1="239.77707"
       y1="123.69841"
       x2="410.63712"
       y2="419.63666" />
    <linearGradient
       inkscape:collect="always"
       xlink:href="#linearGradient4895"
       id="linearGradient5037"
       gradientUnits="userSpaceOnUse"
       x1="308.95563"
       y1="70.798042"
       x2="408.29431"
       y2="441.53503" />
    <linearGradient
       inkscape:collect="always"
       xlink:href="#linearGradient4895"
       id="linearGradient5042"
       gradientUnits="userSpaceOnUse"
       x1="308.95563"
       y1="70.798042"
       x2="408.29431"
       y2="441.53503" />
    <linearGradient
       inkscape:collect="always"
       xlink:href="#linearGradient4889"
       id="linearGradient5047"
       gradientUnits="userSpaceOnUse"
       x1="386.4617"
       y1="66.415573"
       x2="386.4617"
       y2="450.23077" />
    <linearGradient
       inkscape:collect="always"
       xlink:href="#linearGradient4889"
       id="linearGradient5052"
       gradientUnits="userSpaceOnUse"
       x1="386.4617"
       y1="66.415573"
       x2="386.4617"
       y2="450.23077" />
    <linearGradient
       inkscape:collect="always"
       xlink:href="#linearGradient5126"
       id="linearGradient5418"
       x1="117.46099"
       y1="238.62411"
       x2="113.58865"
       y2="447.7305"
       gradientUnits="userSpaceOnUse"
       gradientTransform="matrix(0.96878346,0,0,0.96878346,5.3604413,13.576421)" />
  </defs>
  <sodipodi:namedview
     id="base"
     pagecolor="#ffffff"
     bordercolor="#666666"
     borderopacity="1.0"
     inkscape:pageopacity="0.0"
     inkscape:pageshadow="2"
     inkscape:zoom="0.77472527"
     inkscape:cx="172.20567"
     inkscape:cy="52.195829"
     inkscape:current-layer="layer1"
     inkscape:document-units="px"
     showgrid="false"
     inkscape:window-width="1280"
     inkscape:window-height="712"
     inkscape:window-x="-4"
     inkscape:window-y="-4"
     inkscape:window-maximized="1" />
  <metadata
     id="metadata3082">
    <rdf:RDF>
      <cc:Work
         rdf:about="">
        <dc:format>image/svg+xml</dc:format>
        <dc:type
           rdf:resource="http://purl.org/dc/dcmitype/StillImage" />
        <dc:title>organic food label</dc:title>
        <dc:subject>
          <rdf:Bag>
            <rdf:li>label</rdf:li>
            <rdf:li>icon</rdf:li>
            <rdf:li>banner</rdf:li>
            <rdf:li>organic food</rdf:li>
            <rdf:li>green food</rdf:li>
            <rdf:li>vegetarian</rdf:li>
          </rdf:Bag>
        </dc:subject>
        <dc:date>2011-01-03</dc:date>
        <dc:creator>
          <cc:Agent>
            <dc:title>netalloy.com</dc:title>
          </cc:Agent>
        </dc:creator>
        <cc:license
           rdf:resource="http://creativecommons.org/licenses/publicdomain/" />
      </cc:Work>
      <cc:License
         rdf:about="http://creativecommons.org/licenses/publicdomain/">
        <cc:permits
           rdf:resource="http://creativecommons.org/ns#Reproduction" />
        <cc:permits
           rdf:resource="http://creativecommons.org/ns#Distribution" />
        <cc:permits
           rdf:resource="http://creativecommons.org/ns#DerivativeWorks" />
      </cc:License>
    </rdf:RDF>
  </metadata>
  <g
     id="layer1"
     inkscape:label="Layer 1"
     inkscape:groupmode="layer"
     transform="translate(0,-224)">
    <rect
       style="fill:url(#linearGradient5418);fill-opacity:1;stroke:#6ecd3f;stroke-width:0.68145144;stroke-linecap:round;stroke-miterlimit:4;stroke-opacity:1;stroke-dasharray:none;stroke-dashoffset:0"
       id="rect5124"
       width="235.08812"
       height="247.59303"
       x="14.115499"
       y="230.9978"
       ry="45.017509" />
    <g
       style="fill:url(#linearGradient4887);fill-opacity:1;stroke:#d3ff4e;stroke-width:4.36020422;stroke-miterlimit:4;stroke-opacity:1;stroke-dasharray:none"
       id="g4067"
       transform="matrix(0.21599106,0,0,0.34937361,53.32014,281.79323)">
      <path
         style="opacity:0.66341463;fill:url(#linearGradient5047);fill-opacity:1;stroke:#d3ff4e;stroke-width:4.36020422;stroke-linecap:butt;stroke-linejoin:miter;stroke-miterlimit:4;stroke-opacity:1;stroke-dasharray:none"
         d="m 339.47518,345.75886 c -15.98647,-61.08089 -11.51571,-125.16916 -7.07386,-187.46694 3.66141,-41.82882 8.98385,-83.520861 16.10932,-124.901852 17.70419,85.206742 31.96495,172.230502 27.93812,259.538172 -2.20652,23.48578 -3.59341,48.49499 -15.36024,69.4353 -11.64947,12.92258 -19.66393,-7.41031 -21.61334,-16.60468 z"
         id="path4069"
         inkscape:connector-curvature="0" />
      <path
         style="opacity:0.66341463;fill:url(#linearGradient5052);fill-opacity:1;stroke:#d3ff4e;stroke-width:4.36020422;stroke-linecap:butt;stroke-linejoin:miter;stroke-miterlimit:4;stroke-opacity:1;stroke-dasharray:none"
         d="M 352.38298,366.41135 C 371.12407,257.09577 363.8775,145.21926 348.51064,35.971628 341.39783,145.94132 338.7949,256.81404 352.38298,366.41135 z"
         id="path4071"
         inkscape:connector-curvature="0" />
    </g>
    <g
       style="fill:url(#linearGradient4885);fill-opacity:1;stroke:#d3ff4e;stroke-width:4.36020565;stroke-miterlimit:4;stroke-opacity:1;stroke-dasharray:none"
       transform="matrix(0.20863119,0.09042467,-0.0559027,0.33746894,76.292303,253.16765)"
       id="g4073">
      <path
         style="opacity:0.66341463;fill:url(#linearGradient5037);fill-opacity:1;stroke:#d3ff4e;stroke-width:4.36020565;stroke-linecap:butt;stroke-linejoin:miter;stroke-miterlimit:4;stroke-opacity:1;stroke-dasharray:none"
         d="m 339.47518,345.75886 c -15.98647,-61.08089 -11.51571,-125.16916 -7.07386,-187.46694 3.66141,-41.82882 8.98385,-83.520861 16.10932,-124.901852 17.70419,85.206742 31.96495,172.230502 27.93812,259.538172 -2.20652,23.48578 -3.59341,48.49499 -15.36024,69.4353 -11.64947,12.92258 -19.66393,-7.41031 -21.61334,-16.60468 z"
         id="path4075"
         inkscape:connector-curvature="0" />
      <path
         style="opacity:0.66341463;fill:url(#linearGradient5042);fill-opacity:1;stroke:#d3ff4e;stroke-width:4.36020565;stroke-linecap:butt;stroke-linejoin:miter;stroke-miterlimit:4;stroke-opacity:1;stroke-dasharray:none"
         d="M 352.38298,366.41135 C 364.73085,295.6554 401.56701,228.41095 393.3432,154.90072 389.60443,122.30276 375.65883,91.532732 356.35317,65.240339 349.79257,165.44777 338.99938,266.25806 352.38298,366.41135 z"
         id="path4077"
         inkscape:connector-curvature="0" />
    </g>
    <g
       style="fill:url(#linearGradient4883);fill-opacity:1;stroke:#d3ff4e;stroke-width:3.3677218;stroke-miterlimit:4;stroke-opacity:1;stroke-dasharray:none"
       id="g4079"
       transform="matrix(0.27916185,0.19620574,-0.16117421,0.33983831,89.792829,215.9139)">
      <path
         style="opacity:0.66341463;fill:url(#linearGradient5027);fill-opacity:1;stroke:#d3ff4e;stroke-width:3.3677218;stroke-linecap:butt;stroke-linejoin:miter;stroke-miterlimit:4;stroke-opacity:1;stroke-dasharray:none"
         d="M 339.47518,345.75886 C 324.61124,289.86787 327.71024,231.1782 331.1473,174.0273 c 3.55098,-47.11734 9.3735,-94.067568 17.36334,-140.637232 16.93892,80.267102 29.9004,162.052652 28.62964,244.303562 -1.28007,27.6424 -2.82115,56.35702 -14.21174,81.96228 -10.51887,17.61538 -21.74099,-2.81719 -23.45336,-13.89705 z"
         id="path4081"
         inkscape:connector-curvature="0" />
      <path
         style="opacity:0.66341463;fill:url(#linearGradient5032);fill-opacity:1;stroke:#d3ff4e;stroke-width:3.3677218;stroke-linecap:butt;stroke-linejoin:miter;stroke-miterlimit:4;stroke-opacity:1;stroke-dasharray:none"
         d="m 352.38298,366.41135 c 37.04871,-39.4201 64.49875,-91.45803 62.10212,-146.77553 -2.35387,-65.54535 -35.68956,-124.095889 -64.67035,-181.134888 -3.19948,-2.191727 -1.7204,17.93509 -2.98572,24.609056 -5.69058,101.005402 -6.95338,202.728952 5.55395,303.301362 z"
         id="path4083"
         inkscape:connector-curvature="0" />
    </g>
    <g
       style="fill:url(#linearGradient4881);fill-opacity:1;stroke:#d3ff4e;stroke-width:4.36020422;stroke-miterlimit:4;stroke-opacity:1;stroke-dasharray:none"
       transform="matrix(-0.21599106,0,0,0.34937361,204.15899,281.79323)"
       id="g4085">
      <path
         style="opacity:0.66341463;fill:url(#linearGradient5017);fill-opacity:1;stroke:#d3ff4e;stroke-width:4.36020422;stroke-linecap:butt;stroke-linejoin:miter;stroke-miterlimit:4;stroke-opacity:1;stroke-dasharray:none"
         d="m 339.47518,345.75886 c -15.98647,-61.08089 -11.51571,-125.16916 -7.07386,-187.46694 3.66141,-41.82882 8.98385,-83.520861 16.10932,-124.901852 17.70419,85.206742 31.96495,172.230502 27.93812,259.538172 -2.20652,23.48578 -3.59341,48.49499 -15.36024,69.4353 -11.64947,12.92258 -19.66393,-7.41031 -21.61334,-16.60468 z"
         id="path4087"
         inkscape:connector-curvature="0" />
      <path
         style="opacity:0.66341463;fill:url(#linearGradient5022);fill-opacity:1;stroke:#d3ff4e;stroke-width:4.36020422;stroke-linecap:butt;stroke-linejoin:miter;stroke-miterlimit:4;stroke-opacity:1;stroke-dasharray:none"
         d="M 352.38298,366.41135 C 371.12407,257.09577 363.8775,145.21926 348.51064,35.971628 341.39783,145.94132 338.7949,256.81404 352.38298,366.41135 z"
         id="path4089"
         inkscape:connector-curvature="0" />
    </g>
    <g
       style="fill:url(#linearGradient4879);fill-opacity:1;stroke:#d3ff4e;stroke-width:4.36020565;stroke-miterlimit:4;stroke-opacity:1;stroke-dasharray:none"
       id="g4091"
       transform="matrix(-0.20863119,0.09042467,0.0559027,0.33746894,181.18685,253.16765)">
      <path
         style="opacity:0.66341463;fill:url(#linearGradient5007);fill-opacity:1;stroke:#d3ff4e;stroke-width:4.36020565;stroke-linecap:butt;stroke-linejoin:miter;stroke-miterlimit:4;stroke-opacity:1;stroke-dasharray:none"
         d="m 339.47518,345.75886 c -15.98647,-61.08089 -11.51571,-125.16916 -7.07386,-187.46694 3.66141,-41.82882 8.98385,-83.520861 16.10932,-124.901852 17.70419,85.206742 31.96495,172.230502 27.93812,259.538172 -2.20652,23.48578 -3.59341,48.49499 -15.36024,69.4353 -11.64947,12.92258 -19.66393,-7.41031 -21.61334,-16.60468 z"
         id="path4093"
         inkscape:connector-curvature="0" />
      <path
         style="opacity:0.66341463;fill:url(#linearGradient5012);fill-opacity:1;stroke:#d3ff4e;stroke-width:4.36020565;stroke-linecap:butt;stroke-linejoin:miter;stroke-miterlimit:4;stroke-opacity:1;stroke-dasharray:none"
         d="M 352.38298,366.41135 C 380.32809,289.44473 404.50491,205.86414 387.04436,123.6683 380.30897,92.221359 367.00875,62.259936 348.51064,35.971628 341.39783,145.94132 338.7949,256.81404 352.38298,366.41135 z"
         id="path4095"
         inkscape:connector-curvature="0" />
    </g>
    <g
       style="fill:url(#linearGradient4877);fill-opacity:1;stroke:#d3ff4e;stroke-width:3.3677218;stroke-miterlimit:4;stroke-opacity:1;stroke-dasharray:none"
       transform="matrix(-0.27916185,0.19620574,0.16117421,0.33983831,167.6863,215.9139)"
       id="g4097">
      <path
         style="opacity:0.66341463;fill:url(#linearGradient4997);fill-opacity:1;stroke:#d3ff4e;stroke-width:3.3677218;stroke-linecap:butt;stroke-linejoin:miter;stroke-miterlimit:4;stroke-opacity:1;stroke-dasharray:none"
         d="M 339.47518,345.75886 C 324.61124,289.86787 327.71024,231.1782 331.1473,174.0273 c 3.55098,-47.11734 9.3735,-94.067568 17.36334,-140.637232 16.93892,80.267102 29.9004,162.052652 28.62964,244.303562 -1.28007,27.6424 -2.82115,56.35702 -14.21174,81.96228 -10.51887,17.61538 -21.74099,-2.81719 -23.45336,-13.89705 z"
         id="path4099"
         inkscape:connector-curvature="0" />
      <path
         style="opacity:0.66341463;fill:url(#linearGradient5002);fill-opacity:1;stroke:#d3ff4e;stroke-width:3.3677218;stroke-linecap:butt;stroke-linejoin:miter;stroke-miterlimit:4;stroke-opacity:1;stroke-dasharray:none"
         d="M 352.38298,366.41135 C 391.48146,313.27697 413.2948,245.91374 404.4075,179.8223 398.13848,128.12226 376.44008,79.482094 348.51064,35.971628 341.39783,145.94132 338.7949,256.81404 352.38298,366.41135 z"
         id="path4101"
         inkscape:connector-curvature="0" />
    </g>
    <g
       transform="matrix(0.83350595,0,0,1.3130938,-0.89198838,-209.8635)"
       style="font-size:49.18511581px;font-style:normal;font-variant:normal;font-weight:normal;font-stretch:normal;text-align:start;line-height:125%;letter-spacing:0px;word-spacing:0px;writing-mode:lr-tb;text-anchor:start;fill:#ccff42;fill-opacity:1;stroke:#6ecd3f;stroke-width:0.80000001;stroke-miterlimit:4;stroke-opacity:1;stroke-dasharray:none;font-family:SF Intellivised Extended;-inkscape-font-specification:SF Intellivised Extended"
       id="text5054">
      <path
         d="m 83.261975,367.6835 c -5.1e-5,4.51506 -2.417676,8.38166 -7.252883,11.59981 -4.835295,3.20216 -10.631191,4.80324 -17.387707,4.80324 -6.724547,0 -12.504433,-1.60108 -17.339675,-4.80324 -4.803238,-3.21815 -7.204852,-7.08475 -7.204851,-11.59981 -10e-7,-4.499 2.401613,-8.34959 7.204851,-11.55177 4.819231,-3.21814 10.599117,-4.82722 17.339675,-4.82725 6.756516,3e-5 12.552412,1.60911 17.387707,4.82725 4.835207,3.20218 7.252832,7.05277 7.252883,11.55177 z m -17.267626,0.0961 0,-0.16811 c -3.4e-5,-2.92996 -0.312244,-5.13144 -0.936631,-6.60445 -1.088764,-2.64175 -3.234207,-3.96264 -6.436333,-3.96267 -3.170158,3e-5 -5.3156,1.32092 -6.436334,3.96267 -0.624439,1.47301 -0.936649,3.67449 -0.93663,6.60445 l 0,0.16811 c -1.9e-5,2.91397 0.312191,5.11545 0.93663,6.60445 1.072702,2.64178 3.218144,3.96267 6.436334,3.96266 3.202126,1e-5 5.347569,-1.32088 6.436333,-3.96266 0.624387,-1.489 0.936597,-3.69048 0.936631,-6.60445 z"
         style="fill:#ccff42;fill-opacity:1;stroke:#6ecd3f;stroke-width:0.80000001;stroke-miterlimit:4;stroke-opacity:1;stroke-dasharray:none"
         id="path5059"
         inkscape:connector-curvature="0" />
      <path
         d="m 127.81197,384.08655 -15.49043,0 -11.31162,-8.98205 0,8.98205 -13.785277,0 0,-26.22566 17.219597,0 c 4.9473,3e-5 9.14212,0.47234 12.58447,1.41695 4.72314,1.34493 7.08473,3.44234 7.08477,6.29224 -4e-5,1.92131 -1.1288,3.51438 -3.38628,4.77922 -0.96068,0.51236 -2.05742,0.96066 -3.29022,1.3449 -1.23286,0.38427 -2.62579,0.68848 -4.17881,0.91262 z m -17.45976,-18.51647 c -2e-5,-0.96063 -0.64045,-1.74515 -1.92129,-2.35358 -1.16881,-0.51233 -2.4977,-0.7685 -3.98668,-0.76852 l -3.43432,0 0,6.22019 3.43432,0 c 1.48898,1e-5 2.81787,-0.25616 3.98668,-0.76852 1.28084,-0.60839 1.92127,-1.38492 1.92129,-2.32957 z"
         style="fill:#ccff42;fill-opacity:1;stroke:#6ecd3f;stroke-width:0.80000001;stroke-miterlimit:4;stroke-opacity:1;stroke-dasharray:none"
         id="path5061"
         inkscape:connector-curvature="0" />
      <path
         d="m 167.24652,392.25205 -12.34431,0 0,-8.1655 -7.37296,0 c -5.37964,0 -9.99875,-1.28086 -13.85733,-3.84259 -3.85861,-2.56172 -5.7879,-5.6518 -5.7879,-9.27024 0,-3.60241 1.92929,-6.68448 5.7879,-9.24623 3.87459,-2.57771 8.4937,-3.86657 13.85733,-3.8666 l 14.74592,0 0,4.58709 -14.74592,0 c -2.56175,2e-5 -4.2829,1.06474 -5.16348,3.19415 -0.49635,1.15279 -0.74452,2.89797 -0.7445,5.23552 l 0,0.0961 0,0.072 c -2e-5,2.33758 0.24815,4.09877 0.7445,5.28355 0.88058,2.11343 2.60173,3.17014 5.16348,3.17014 l 7.37296,0 0,-5.25954 c -3e-5,-0.65643 -0.64046,-0.98465 -1.92129,-0.98466 l -5.45167,0 0,-4.58709 12.32029,0 c 1.72913,10e-6 3.3142,0.26419 4.7552,0.79253 1.76115,0.60842 2.64174,1.44098 2.64178,2.49768 z"
         style="fill:#ccff42;fill-opacity:1;stroke:#6ecd3f;stroke-width:0.80000001;stroke-miterlimit:4;stroke-opacity:1;stroke-dasharray:none"
         id="path5063"
         inkscape:connector-curvature="0" />
      <path
         d="m 206.585,384.08655 -13.28094,0 -1.72916,-3.29022 -15.73059,0 -1.72917,3.29022 -6.84461,0 11.86399,-22.5752 c 0.56037,-1.12073 1.54503,-2.00132 2.95399,-2.64178 1.40894,-0.67243 2.97799,-1.00865 4.70717,-1.00868 1.64909,3e-5 3.24216,0.32825 4.77922,0.98466 1.48898,0.64046 2.51367,1.48903 3.07407,2.54572 z m -17.41172,-7.87731 -5.45167,-10.399 -5.45167,10.399 z"
         style="fill:#ccff42;fill-opacity:1;stroke:#6ecd3f;stroke-width:0.80000001;stroke-miterlimit:4;stroke-opacity:1;stroke-dasharray:none"
         id="path5065"
         inkscape:connector-curvature="0" />
      <path
         d="m 241.07223,379.54749 c -3e-5,1.26486 -0.73653,2.34558 -2.20949,3.24218 -1.47302,0.86459 -3.19418,1.29688 -5.16347,1.29688 -2.35361,0 -4.1148,-0.48833 -5.28356,-1.46499 l -13.90536,-11.69587 0,13.16086 -7.87731,0 0,-21.6866 c 0,-1.28084 0.7365,-2.35356 2.20949,-3.21817 1.47299,-0.88057 3.18614,-1.32086 5.13946,-1.32089 2.3856,3e-5 4.16279,0.48835 5.33159,1.46499 l 13.88135,11.69587 0,-13.16086 7.8773,0 z"
         style="fill:#ccff42;fill-opacity:1;stroke:#6ecd3f;stroke-width:0.80000001;stroke-miterlimit:4;stroke-opacity:1;stroke-dasharray:none"
         id="path5067"
         inkscape:connector-curvature="0" />
      <path
         d="m 258.31584,363.19248 -12.29627,0 0,-5.33159 12.29627,0 z m 0,20.89407 -12.29627,0 0,-18.03615 12.29627,0 z"
         style="fill:#ccff42;fill-opacity:1;stroke:#6ecd3f;stroke-width:0.80000001;stroke-miterlimit:4;stroke-opacity:1;stroke-dasharray:none"
         id="path5069"
         inkscape:connector-curvature="0" />
      <path
         d="m 296.09327,384.08655 -14.74592,0 c -5.42767,0 -10.05479,-1.28086 -13.88135,-3.84259 -3.84259,-2.56172 -5.76388,-5.6518 -5.76388,-9.27024 0,-3.5864 1.92129,-6.66847 5.76388,-9.24623 3.85859,-2.57771 8.4857,-3.86657 13.88135,-3.8666 l 14.74592,0 0,4.58709 -14.74592,0 c -2.57776,2e-5 -4.29892,1.08075 -5.16348,3.24218 -0.49635,1.1528 -0.74452,2.91398 -0.7445,5.28356 -2e-5,2.36961 0.24815,4.13079 0.7445,5.28356 0.86456,2.16146 2.58572,3.24218 5.16348,3.24218 l 14.74592,0 z"
         style="fill:#ccff42;fill-opacity:1;stroke:#6ecd3f;stroke-width:0.80000001;stroke-miterlimit:4;stroke-opacity:1;stroke-dasharray:none"
         id="path5071"
         inkscape:connector-curvature="0" />
    </g>
    <g
       transform="matrix(0.88609553,0,0,1.0591876,-5.8939386,14.826908)"
       style="font-size:63.15609741px;font-style:normal;font-variant:normal;font-weight:normal;font-stretch:normal;text-align:start;line-height:125%;letter-spacing:0px;word-spacing:0px;writing-mode:lr-tb;text-anchor:start;fill:#ccff42;fill-opacity:1;stroke:#6ecd3f;stroke-width:0.69999999;stroke-miterlimit:4;stroke-opacity:1;stroke-dasharray:none;font-family:SF Intellivised Extended;-inkscape-font-specification:SF Intellivised Extended"
       id="text5103">
      <path
         d="m 91.026098,398.05697 -27.630792,0 0,17.36176 -19.736281,0 0,-36.85133 c -4e-6,-1.66521 1.408261,-3.0118 4.224798,-4.03977 2.302555,-0.80175 4.841543,-1.20264 7.61697,-1.20268 l 35.525305,0 0,7.37026 -24.485323,0 c -2.097004,4e-5 -3.145493,0.52428 -3.145469,1.57274 l 0,8.41876 27.630792,0 z"
         style="fill:#ccff42;fill-opacity:1;stroke:#6ecd3f;stroke-width:0.69999999;stroke-miterlimit:4;stroke-opacity:1;stroke-dasharray:none"
         id="path5108"
         inkscape:connector-curvature="0" />
      <path
         d="m 144.74579,398.58122 c -6e-5,4.6257 -2.48765,8.59351 -7.46279,11.90344 -4.95466,3.28938 -10.90638,4.93407 -17.85516,4.93407 -6.9694,0 -12.91083,-1.64469 -17.82433,-4.93407 -4.934074,-3.28937 -7.401106,-7.25718 -7.401105,-11.90344 -10e-7,-4.60511 2.467031,-8.56264 7.401105,-11.87261 4.95462,-3.30991 10.89605,-4.96487 17.82433,-4.96491 6.92822,4e-5 12.87994,1.655 17.85516,4.96491 4.97514,3.30997 7.46273,7.2675 7.46279,11.87261 z m -17.73182,0.0925 0,-0.21586 c -3e-5,-3.00154 -0.31869,-5.26299 -0.95597,-6.78435 -1.17188,-2.69315 -3.38193,-4.03974 -6.63016,-4.03977 -3.26885,3e-5 -5.4789,1.34662 -6.63016,4.03977 -0.63733,1.48024 -0.95599,3.73141 -0.95597,6.75351 l 0,0.2467 c -2e-5,3.00157 0.31864,5.26302 0.95597,6.78435 1.13071,2.71374 3.34076,4.07061 6.63016,4.07061 3.24823,0 5.45828,-1.35687 6.63016,-4.07061 0.63728,-1.52133 0.95594,-3.78278 0.95597,-6.78435 z"
         style="fill:#ccff42;fill-opacity:1;stroke:#6ecd3f;stroke-width:0.69999999;stroke-miterlimit:4;stroke-opacity:1;stroke-dasharray:none"
         id="path5110"
         inkscape:connector-curvature="0" />
      <path
         d="m 197.66369,398.58122 c -6e-5,4.6257 -2.48765,8.59351 -7.46279,11.90344 -4.95466,3.28938 -10.90638,4.93407 -17.85516,4.93407 -6.9694,0 -12.91083,-1.64469 -17.82433,-4.93407 -4.93407,-3.28937 -7.40111,-7.25718 -7.4011,-11.90344 -1e-5,-4.60511 2.46703,-8.56264 7.4011,-11.87261 4.95462,-3.30991 10.89605,-4.96487 17.82433,-4.96491 6.92822,4e-5 12.87994,1.655 17.85516,4.96491 4.97514,3.30997 7.46273,7.2675 7.46279,11.87261 z m -17.73182,0.0925 0,-0.21586 c -3e-5,-3.00154 -0.31869,-5.26299 -0.95597,-6.78435 -1.17188,-2.69315 -3.38193,-4.03974 -6.63016,-4.03977 -3.26885,3e-5 -5.4789,1.34662 -6.63016,4.03977 -0.63733,1.48024 -0.95599,3.73141 -0.95597,6.75351 l 0,0.2467 c -2e-5,3.00157 0.31864,5.26302 0.95597,6.78435 1.13071,2.71374 3.34076,4.07061 6.63016,4.07061 3.24823,0 5.45828,-1.35687 6.63016,-4.07061 0.63728,-1.52133 0.95594,-3.78278 0.95597,-6.78435 z"
         style="fill:#ccff42;fill-opacity:1;stroke:#6ecd3f;stroke-width:0.69999999;stroke-miterlimit:4;stroke-opacity:1;stroke-dasharray:none"
         id="path5112"
         inkscape:connector-curvature="0" />
      <path
         d="m 250.14985,398.58122 c -5e-5,4.64626 -2.47737,8.61407 -7.43195,11.90344 -4.91355,3.28938 -10.85498,4.93407 -17.82432,4.93407 l -22.11081,0 0,-33.67503 22.11081,0 c 6.92822,4e-5 12.86966,1.655 17.82432,4.96491 4.95458,3.28941 7.4319,7.24694 7.43195,11.87261 z m -17.67014,0.0925 0,-0.0925 0,-0.12335 c -4e-5,-3.00154 -0.31869,-5.26299 -0.95598,-6.78435 -1.15131,-2.69315 -3.36136,-4.03974 -6.63015,-4.03977 l -4.44067,0 0,21.89494 4.44067,0 c 3.26879,0 5.47884,-1.35687 6.63015,-4.07061 0.63729,-1.52133 0.95594,-3.78278 0.95598,-6.78435 z"
         style="fill:#ccff42;fill-opacity:1;stroke:#6ecd3f;stroke-width:0.69999999;stroke-miterlimit:4;stroke-opacity:1;stroke-dasharray:none"
         id="path5114"
         inkscape:connector-curvature="0" />
    </g>
  </g>
</svg>
