<?xml version="1.0" encoding="UTF-8" standalone="no"?>
<!-- Created with Inkscape (http://www.inkscape.org/) -->

<svg
   xmlns:dc="http://purl.org/dc/elements/1.1/"
   xmlns:cc="http://creativecommons.org/ns#"
   xmlns:rdf="http://www.w3.org/1999/02/22-rdf-syntax-ns#"
   xmlns:svg="http://www.w3.org/2000/svg"
   xmlns="http://www.w3.org/2000/svg"
   xmlns:sodipodi="http://sodipodi.sourceforge.net/DTD/sodipodi-0.dtd"
   xmlns:inkscape="http://www.inkscape.org/namespaces/inkscape"
   width="236.94121"
   height="212.34912"
   id="svg2"
   version="1.1"
   inkscape:version="0.47 r22583"
   sodipodi:docname="leaf.svg">
  <title
     id="title2823">Leaf</title>
  <defs
     id="defs4" />
  <sodipodi:namedview
     id="base"
     pagecolor="#ffffff"
     bordercolor="#666666"
     borderopacity="1.0"
     inkscape:pageopacity="0.0"
     inkscape:pageshadow="2"
     inkscape:zoom="0.98994949"
     inkscape:cx="180.61045"
     inkscape:cy="137.35633"
     inkscape:document-units="px"
     inkscape:current-layer="layer1"
     showgrid="false"
     inkscape:window-width="1280"
     inkscape:window-height="753"
     inkscape:window-x="-4"
     inkscape:window-y="-4"
     inkscape:window-maximized="1" />
  <metadata
     id="metadata7">
    <rdf:RDF>
      <cc:Work
         rdf:about="">
        <dc:format>image/svg+xml</dc:format>
        <dc:type
           rdf:resource="http://purl.org/dc/dcmitype/StillImage" />
        <dc:title>Leaf</dc:title>
        <cc:license
           rdf:resource="http://creativecommons.org/licenses/publicdomain/" />
        <dc:date>2010-08-08</dc:date>
        <dc:creator>
          <cc:Agent>
            <dc:title>mazeo</dc:title>
          </cc:Agent>
        </dc:creator>
        <dc:publisher>
          <cc:Agent>
            <dc:title>openclipart.org</dc:title>
          </cc:Agent>
        </dc:publisher>
        <dc:language>en</dc:language>
        <dc:subject>
          <rdf:Bag>
            <rdf:li>leaf</rdf:li>
          </rdf:Bag>
        </dc:subject>
        <dc:description>A leaf.</dc:description>
      </cc:Work>
      <cc:License
         rdf:about="http://creativecommons.org/licenses/publicdomain/">
        <cc:permits
           rdf:resource="http://creativecommons.org/ns#Reproduction" />
        <cc:permits
           rdf:resource="http://creativecommons.org/ns#Distribution" />
        <cc:permits
           rdf:resource="http://creativecommons.org/ns#DerivativeWorks" />
      </cc:License>
    </rdf:RDF>
  </metadata>
  <g
     inkscape:label="Layer 1"
     inkscape:groupmode="layer"
     id="layer1"
     transform="translate(-194.38955,-457.36939)">
    <path
       style="fill:#000000"
       d="m 425.30129,669.71847 c -33.44607,-17.30281 -62.41923,-42.33535 -89.41631,-68.08311 -18.63931,-14.2981 -39.72882,2.07585 -60.00588,-0.15064 -34.11817,0.79167 -69.1058,-20.17924 -77.71323,-54.55559 -9.53731,-26.09926 2.38685,-52.40456 -0.78927,-78.72951 5.61117,-24.50123 36.72482,1.24572 54.17422,-5.82705 30.99147,0.80861 68.5089,9.52916 81.02163,41.69377 9.29409,21.98545 9.85846,48.34198 -0.0395,70.03096 -5.8933,22.90228 20.08984,32.33258 32.94859,45.6952 18.94421,17.28035 40.29788,31.4075 63.45003,41.96598 9.59215,8.44772 -13.56504,-1.65881 -0.43664,7.87623 l -3.19369,0.0838 0,0 6e-5,-8e-5 z M 292.93555,596.6537 c 15.13811,8.70662 32.30159,-21.50982 6.92519,-15.19119 -24.15284,-8.04596 -51.14458,-4.44805 -73.80051,-7.75752 7.57124,-8.1756 34.44996,-4.69345 50.75332,-2.37778 11.81786,5.0355 31.67115,3.61596 13.68914,-10.01463 -16.63681,-16.71693 -43.60811,-21.95734 -65.52505,-14.95108 -17.34899,11.23024 -16.5651,-13.94764 0.91912,-7.59943 11.47335,-7.35709 32.74615,10.01296 37.2882,-4.049 -10.52733,-16.30846 -26.04219,-37.09139 -48.25762,-32.47891 -8.11803,5.98515 30.94035,24.32834 7.98692,17.81259 -8.52249,-12.5368 -18.70273,-2.0994 -4.35334,3.58718 27.83806,13.91865 -20.08649,7.1438 -15.83001,-11.56499 -4.91242,-13.56593 9.30938,-25.27192 17.57083,-12.3813 17.39236,-3.91314 3.88771,-15.11904 -5.52414,-15.95216 -0.38871,-8.05094 -3.65315,-18.9191 7.09388,-8.04719 6.52321,16.52574 14.95119,11.56804 10.80823,-3.32665 13.20347,8.18842 5.67559,37.67455 24.53245,48.00103 22.75624,19.22416 43.40751,49.3644 67.39007,61.79375 5.168,-18.5082 -5.24446,-45.10612 -5.33021,-59.40655 22.79616,-8.43674 1.63604,44.28243 14.2953,35.56833 5.75143,-28.84863 -3.48566,-64.99048 -30.96941,-79.24197 -9.7095,-4.44524 -42.41902,-17.81192 -38.14554,-4.70177 15.988,-0.51417 43.48264,21.94631 25.86027,32.15824 1.02211,-11.21629 -9.09616,-33.60906 -23.19254,-19.89947 -10.27516,-18.81513 -27.58461,-26.80599 -48.02464,-23.59282 -23.85739,5.26126 -12.50274,34.70827 -19.37499,52.11334 7.5666,16.4943 -3.04761,33.00414 12.4983,48.76878 14.90946,28.06124 51.24675,36.93053 80.71678,32.73117 z m -21.44678,-4.16429 c -9.2777,-1.2723 -38.1821,-11.49493 -13.48626,-11.54605 9.63493,-1.93495 38.52276,-9.2e-4 14.16426,3.48128 -8.82135,7.63058 39.79188,4.48031 15.17092,8.41476 -5.28429,-0.0605 -10.56369,-0.34293 -15.84892,-0.34999 z m 40.08349,-2.50715 c 1.68549,-4.46094 0.84133,4.40677 0,0 z m -8.04182,-2.32809 c 2.72257,-4.93437 1.91015,5.23826 0,0 z m 13.57059,-11.21983 c 0.76036,-7.60287 6.33499,4.48064 0,0 z m -6.63367,-6.26895 c -1.42241,-25.62539 -13.63993,-62.70233 -9.7011,-81.03175 10.43892,16.87867 3.76878,39.40501 11.43253,58.18792 0.10178,7.06948 4.30849,17.51172 -1.73143,22.84383 z m 6.38379,1.41084 c -7.92527,-13.3841 13.72535,-7.86143 0,0 z m -32.5143,-2.92717 c 2.66105,-4.06664 3.37028,4.62297 0,0 z m -54.69073,-2.05165 c 3.84303,-11.12975 10.88577,7.68189 0,0 z m 41.84945,-1.73808 c -10.20216,-0.24234 -25.74315,-7.97941 -6.54743,-4.64212 1.5525,0.40925 13.8953,2.91174 6.54743,4.64212 z m 11.63829,0.24304 c 5.5642,-6.83742 4.65859,7.57112 0,0 z m -67.55059,-3.72502 c -2.57615,-12.04458 12.77131,9.07403 0,0 z m 9.53932,-2.87481 c 8.29383,-9.31086 13.226,7.50147 0,0 z m 49.76487,0.89202 c -12.30112,-0.40657 -25.56412,-10.70757 -5.15815,-5.01551 1.36979,0.59357 10.98131,4.60775 5.15815,5.01551 z m 24.93243,-10.56735 c -2.91855,-38.29318 7.59638,20.76499 0,0 z m -59.61887,7.16225 c 3.47181,-7.8978 3.12897,7.04342 0,0 z m -9.59234,-3.76961 c 9.28988,-13.02066 14.87845,10.84385 0,0 z m 33.71783,-0.75392 c 7.11956,-7.41535 4.56411,9.6614 0,0 z m 54.28236,-0.75392 c 2.21965,-8.83786 3.24815,5.7939 0,0 z m -33.17255,-5.09331 c -5.17133,-14.34109 -11.76543,-44.37648 -4.91358,-51.42952 5.13553,14.39906 7.04986,37.51502 4.91358,51.42952 z m 5.79538,-5.46159 c 3.03625,-10.21232 2.06704,12.47829 0,0 z m -84.66485,-4.73385 c -1.79407,-8.72197 6.15263,4.07935 0,0 z m 35.82318,-4.83793 c -6.64883,-20.93081 20.27418,6.54582 0,0 z m 53.90276,-7.11536 c 6.30181,-4.87247 -1.71748,8.80353 0,0 z m -27.11061,-1.00679 c -4.83433,-8.64422 8.59051,1.50768 0,0 z m 19.26983,-1.06512 c -0.0893,-8.6127 5.60163,3.51282 0,0 z m 24.34149,-2.97119 c -10.84211,-13.75022 13.9557,-0.70546 0,0 z m -49.47222,-2.2515 c 4.49466,-8.07436 2.3194,7.99201 0,0 z m 60.18636,-0.66189 c -5.99785,-8.8559 7.20393,3.5913 0,0 z m -91.59975,-0.60197 c -8.62502,-9.18549 21.1763,4.50999 0,0 z m 23.75599,0.63568 c -3.99253,-7.80093 -9.97049,-43.19564 2.28102,-23.66503 1.09094,7.74662 1.27098,16.50315 -2.28102,23.66503 z m 14.69401,-7.80871 c -14.48722,-15.12801 19.6845,-5.32427 0,0 z m 43.1773,-2.24906 c -6.69743,-13.46754 15.31572,4.83454 0,0 z M 264.86798,493.1238 c 5.49817,-7.64441 9.31556,6.48155 0,0 z m 46.20167,-0.37476 c 0.7002,-6.66296 4.78223,3.79967 0,0 z m -69.0095,-19.314 c -8.25767,-12.25627 11.10668,-1.763 4.73817,1.38731 l -4.73817,-1.38731 z"
       id="path2942"
       sodipodi:nodetypes="cccccccccccccccccccccccccccccccccccccccccccccccccccccccccccccccccccccccccccccccccccccccccccccccccccccccccccccccccccccccccc" />
  </g>
</svg>
