<?xml version="1.0" encoding="UTF-8" standalone="no"?>
<!-- Created with Inkscape (http://www.inkscape.org/) -->
<svg
   xmlns:dc="http://purl.org/dc/elements/1.1/"
   xmlns:cc="http://creativecommons.org/ns#"
   xmlns:rdf="http://www.w3.org/1999/02/22-rdf-syntax-ns#"
   xmlns:svg="http://www.w3.org/2000/svg"
   xmlns="http://www.w3.org/2000/svg"
   xmlns:sodipodi="http://sodipodi.sourceforge.net/DTD/sodipodi-0.dtd"
   xmlns:inkscape="http://www.inkscape.org/namespaces/inkscape"
   width="734.12079"
   height="441.45697"
   id="svg2"
   sodipodi:version="0.32"
   inkscape:version="0.46"
   sodipodi:docname="spring.svg"
   inkscape:output_extension="org.inkscape.output.svg.inkscape"
   version="1.0">
  <defs
     id="defs4">
    <inkscape:perspective
       sodipodi:type="inkscape:persp3d"
       inkscape:vp_x="0 : 526.18109 : 1"
       inkscape:vp_y="0 : 1000 : 0"
       inkscape:vp_z="744.09448 : 526.18109 : 1"
       inkscape:persp3d-origin="372.04724 : 350.78739 : 1"
       id="perspective10" />
  </defs>
  <sodipodi:namedview
     id="base"
     pagecolor="#ffffff"
     bordercolor="#666666"
     borderopacity="1.0"
     inkscape:pageopacity="0.0"
     inkscape:pageshadow="2"
     inkscape:zoom="0.24748737"
     inkscape:cx="-204.07624"
     inkscape:cy="-192.29271"
     inkscape:document-units="px"
     inkscape:current-layer="layer1"
     showgrid="false"
     inkscape:window-width="1280"
     inkscape:window-height="719"
     inkscape:window-x="-4"
     inkscape:window-y="-4" />
  <metadata
     id="metadata7">
    <rdf:RDF>
      <cc:Work
         rdf:about="">
        <dc:format>image/svg+xml</dc:format>
        <dc:type
           rdf:resource="http://purl.org/dc/dcmitype/StillImage" />
      </cc:Work>
    </rdf:RDF>
  </metadata>
  <g
     inkscape:label="Camada 1"
     inkscape:groupmode="layer"
     id="layer1"
     transform="translate(499.36269,-532.10897)">
    <g
       id="g3403">
      <g
         id="g3351">
        <path
           style="opacity:1;fill:#9fffc1;fill-opacity:1;stroke:none;stroke-width:1;stroke-miterlimit:4;stroke-dasharray:none;stroke-dashoffset:0;stroke-opacity:1"
           id="path3251"
           d="M -228.20835,775.24781 C -224.63128,770.94776 -220.38157,767.35652 -215.92117,764.06175 C -211.97494,760.8925 -207.52935,759.0572 -202.55063,758.27256 C -198.46288,757.41165 -194.55986,756.49608 -190.34315,756.43284 C -186.19019,756.60769 -182.12475,757.44945 -178.1157,758.67235 C -171.22385,761.58927 -162.04437,765.56267 -159.85817,773.36728 C -159.89331,777.7998 -162.65363,780.88101 -165.64002,783.62584 C -169.27513,786.63388 -173.39986,788.94504 -177.48294,791.26512 C -181.71368,793.9184 -186.59651,794.94376 -191.52573,795.50555 C -196.26312,795.80899 -200.40972,794.56837 -204.55329,792.1445 C -213.33,788.08311 -217.23448,781.49857 -223.3721,775.08799 L -212.9535,780.87801 C -209.6139,784.4534 -197.75659,797.31381 -213.04633,783.63843 C -209.0947,786.2517 -205.17816,787.68051 -200.49725,787.5869 C -195.69082,787.15901 -190.8844,786.23889 -186.753,783.69538 C -182.73447,781.42198 -178.67048,779.16728 -175.07001,776.24575 C -172.45209,773.87376 -169.63544,771.08348 -170.07333,767.10435 C -172.05218,762.63791 -177.12422,760.49827 -163.66533,770.09963 C -160.99538,772.00439 -170.81743,764.63909 -169.42028,766.98887 C -173.324,765.58533 -177.32431,764.8569 -181.40094,764.45581 C -185.59998,764.51421 -189.4764,765.11723 -193.51902,766.17937 C -198.39609,766.83263 -202.74249,768.36558 -206.60129,771.5066 C -211.00068,774.70346 -215.23821,778.17502 -218.61899,782.51606 L -228.20835,775.24781 z" />
        <path
           style="opacity:1;fill:#9fffc1;fill-opacity:1;stroke:none;stroke-width:1;stroke-miterlimit:4;stroke-dasharray:none;stroke-dashoffset:0;stroke-opacity:1"
           id="path3253"
           d="M -223.48014,796.13481 C -226.88887,793.24335 -230.72931,791.00259 -234.69471,789.02427 C -238.23808,787.07383 -241.99055,786.24227 -246.01776,786.31129 C -249.35417,786.19738 -252.5527,786.01496 -255.88062,786.54673 C -259.12551,787.25711 -262.20953,788.48039 -265.1966,789.9959 C -270.21924,793.24243 -276.8969,797.63608 -277.54141,804.08098 C -276.90244,807.5652 -274.30471,809.60989 -271.57542,811.35862 C -268.29919,813.22508 -264.73366,814.47545 -261.19969,815.73859 C -257.50354,817.24364 -253.51859,817.37735 -249.56108,817.13976 C -245.79019,816.72526 -242.69729,815.17683 -239.76996,812.69743 C -233.42149,808.29006 -231.25616,802.56855 -227.30904,796.676 L -234.71152,802.67049 C -236.8472,805.94544 -244.40706,817.70381 -234.25776,804.83055 C -237.00788,807.43258 -239.89374,809.09741 -243.59123,809.66929 C -247.43362,809.99534 -251.3439,809.93394 -254.94673,808.50159 C -258.42345,807.2663 -261.93337,806.05198 -265.17041,804.24886 C -267.55824,802.74279 -270.16019,800.93487 -270.36427,797.74231 C -269.4226,793.95363 -265.72523,791.5699 -274.99525,800.98379 C -276.83421,802.85135 -270.11855,795.69915 -270.89425,797.74147 C -268.01501,796.09829 -264.96661,794.97321 -261.81301,794.09527 C -258.49967,793.56213 -255.36517,793.50219 -252.03654,793.78072 C -248.10746,793.62232 -244.47477,794.22956 -241.00413,796.16983 C -237.10025,798.07951 -233.2859,800.22774 -230.02602,803.17853 L -223.48014,796.13481 z" />
        <path
           style="opacity:1;fill:#c8b17e;fill-opacity:1;stroke:none;stroke-width:1;stroke-miterlimit:4;stroke-dasharray:none;stroke-dashoffset:0;stroke-opacity:1"
           d="M -224.78987,728.61262 C -224.23474,746.832 -218.30596,767.19574 -218.597,785.47354 C -219.08016,815.81685 -216.31935,846.31395 -218.13053,876.5458 C -219.46468,898.8151 -226.27,920.32832 -230.92161,941.9636 C -235.05657,946.41623 -243.86555,948.83235 -238.65344,939.37045 C -232.71554,913.28354 -226.13281,890.61809 -226.89254,859.69068 C -227.65227,828.76327 -229.96289,786.93462 -231.64473,752.31422 C -232.14119,742.09465 -232.64053,732.04032 -219.73911,730.84004 L -224.78987,728.61262 z"
           id="path3245"
           sodipodi:nodetypes="csscczscc" />
        <g
           id="g3342">
          <path
             inkscape:transform-center-y="-37.16843"
             inkscape:transform-center-x="-16.196309"
             d="M -240.58796,694.86376 C -243.59741,689.08826 -245.54308,682.90906 -247.07561,676.63696 C -248.70456,670.97346 -248.67633,665.37356 -247.27991,659.67366 C -246.36612,654.89636 -245.59411,650.29286 -243.76565,645.73576 C -241.71015,641.35416 -238.97776,637.36656 -235.86139,633.61096 C -229.62922,627.52106 -221.23357,619.44946 -211.8684,620.61156 C -207.12378,622.64276 -205.05603,626.99296 -203.45121,631.43466 C -201.85548,636.69156 -201.22836,642.16076 -200.57293,647.58936 C -199.62608,653.32636 -200.72083,659.03156 -202.3343,664.57806 C -204.13897,669.80236 -207.33622,673.69776 -211.8029,677.05776 C -220.11189,684.65726 -228.93951,685.88926 -238.58459,689.59786 L -227.68068,681.01246 C -222.33887,679.03386 -203.19447,672.08306 -224.7578,682.35366 C -220.17403,679.28496 -216.87813,675.72126 -214.87352,670.65196 C -213.17146,665.29756 -211.99805,659.72176 -212.8717,654.14086 C -213.50601,648.80256 -214.09982,643.42396 -215.61823,638.24326 C -216.98834,634.36486 -218.71829,630.08496 -223.18872,628.76576 C -228.87553,628.88226 -233.4545,633.36726 -217.08998,623.23076 C -213.84356,621.21996 -226.171,628.45616 -223.01903,628.01246 C -226.28204,631.57376 -228.86342,635.54236 -231.12757,639.74016 C -232.9533,644.27616 -234.04902,648.71056 -234.72639,653.52986 C -236.21817,659.06156 -236.52654,664.41886 -234.88856,669.97576 C -233.43376,676.13836 -231.61114,682.25056 -228.4694,687.83376 L -240.58796,694.86376 z"
             id="path2447"
             style="fill:#fff700;fill-opacity:1;stroke:none;stroke-width:1;stroke-miterlimit:4;stroke-dasharray:none;stroke-dashoffset:0;stroke-opacity:1" />
          <path
             inkscape:transform-center-y="9.186736"
             inkscape:transform-center-x="38.535297"
             d="M -240.37931,694.94206 C -243.27824,700.77376 -247.12952,705.98296 -251.29901,710.91276 C -254.91971,715.56246 -259.46403,718.83476 -264.89439,721.05966 C -269.29483,723.13196 -273.4712,725.21656 -278.23175,726.41976 C -282.984,727.33596 -287.81602,727.47326 -292.68637,727.16336 C -301.27755,725.70786 -312.74402,723.66906 -317.3152,715.41316 C -318.46478,710.38166 -316.16415,706.15006 -313.51714,702.23876 C -310.20571,697.85526 -306.15257,694.12996 -302.14901,690.40566 C -298.06751,686.26416 -292.81042,683.79236 -287.3764,681.83316 C -282.09034,680.21806 -277.05939,680.51106 -271.7143,682.14546 C -260.68054,684.39196 -254.48989,690.80446 -245.81587,696.42076 L -259.17371,692.65626 C -263.91686,689.50146 -280.80209,678.11246 -259.8093,689.50396 C -264.98767,687.60336 -269.80852,687.03546 -275.08687,688.39756 C -280.41769,690.17206 -285.61646,692.50436 -289.61485,696.49476 C -293.55778,700.14876 -297.55726,703.79386 -300.85267,708.07006 C -303.18226,711.45996 -305.62477,715.37706 -304.0609,719.76796 C -300.62039,724.29746 -294.29966,725.36066 -312.12495,718.09386 C -315.66109,716.65226 -302.55634,722.36136 -304.76984,720.07406 C -299.9703,720.61676 -295.24253,720.36866 -290.51606,719.72916 C -285.77424,718.53636 -281.5441,716.81296 -277.24884,714.52476 C -271.89839,712.47586 -267.38526,709.57276 -263.85609,704.97856 C -259.72944,700.17606 -255.85985,695.10566 -253.19431,689.28016 L -240.37931,694.94206 z"
             id="path2449"
             style="fill:#fff700;fill-opacity:1;stroke:none;stroke-width:1;stroke-miterlimit:4;stroke-dasharray:none;stroke-dashoffset:0;stroke-opacity:1" />
          <path
             inkscape:transform-center-y="38.76255"
             inkscape:transform-center-x="11.055626"
             d="M -240.34276,694.81826 C -236.54065,700.10576 -233.73388,705.94436 -231.32279,711.93396 C -228.90307,717.30726 -228.13265,722.85406 -228.70216,728.69476 C -228.92551,733.55356 -229.03331,738.22006 -230.19342,742.99146 C -231.60325,747.62126 -233.7392,751.95756 -236.2883,756.11916 C -241.58858,763.03526 -248.7477,772.22136 -258.18288,772.40636 C -263.16864,771.07256 -265.83546,767.06146 -268.05714,762.89386 C -270.38601,757.91806 -271.78649,752.59426 -273.20917,747.31456 C -274.96428,741.77126 -274.69408,735.96816 -273.88785,730.24836 C -272.84642,724.81996 -270.23722,720.50866 -266.29518,716.54616 C -259.15454,707.83976 -250.59272,705.36166 -241.57489,700.31576 L -251.14341,710.36806 C -256.14857,713.08826 -274.10644,722.69736 -254.22764,709.45736 C -258.32711,713.14826 -261.08127,717.14546 -262.34265,722.44866 C -263.26399,727.99126 -263.63044,733.67726 -261.97007,739.07656 C -260.58116,744.26986 -259.22659,749.50886 -256.98509,754.42026 C -255.07606,758.06366 -252.7536,762.05326 -248.14075,762.72156 C -242.52863,761.79546 -238.63585,756.70346 -253.38809,769.06956 C -256.31464,771.52266 -245.14479,762.60276 -248.20133,763.49156 C -245.47938,759.50136 -243.49016,755.20506 -241.84761,750.72746 C -240.6872,745.97746 -240.23488,741.43226 -240.25153,736.56546 C -239.56362,730.87766 -240.02218,725.53106 -242.43569,720.26456 C -244.75422,714.37226 -247.42963,708.58236 -251.33527,703.50406 L -240.34276,694.81826 z"
             id="path2451"
             style="fill:#fff700;fill-opacity:1;stroke:none;stroke-width:1;stroke-miterlimit:4;stroke-dasharray:none;stroke-dashoffset:0;stroke-opacity:1" />
          <path
             inkscape:transform-center-y="27.144473"
             inkscape:transform-center-x="-31.451105"
             d="M -240.43769,694.72746 C -234.00633,693.70196 -227.52903,693.81336 -221.09439,694.34616 C -215.20654,694.59466 -209.90389,696.39496 -204.9396,699.52456 C -200.69758,701.90426 -196.57551,704.09456 -192.83205,707.27206 C -189.32702,710.60936 -186.40999,714.46396 -183.8346,718.60936 C -180.03192,726.44936 -175.03468,736.96906 -179.10285,745.48416 C -182.53204,749.34136 -187.3132,749.92496 -192.0346,750.04046 C -197.52619,749.88926 -202.91257,748.75186 -208.26922,747.65446 C -214.01077,746.73576 -219.07561,743.89046 -223.82565,740.60356 C -228.20952,737.23716 -230.89185,732.97086 -232.66432,727.66996 C -237.24118,717.38206 -235.61415,708.61856 -236.07729,698.29546 L -231.38705,711.35706 C -231.20195,717.05056 -230.67197,737.41076 -233.58486,713.70476 C -232.12578,719.02436 -229.78933,723.27926 -225.61581,726.78616 C -221.07603,730.09636 -216.15885,732.97516 -210.58854,733.91396 C -205.32417,735.00286 -200.03432,736.14306 -194.6394,736.34356 C -190.52679,736.27216 -185.9193,735.98676 -183.25219,732.16426 C -181.56173,726.73316 -184.36575,720.96946 -179.93357,739.70186 C -179.05436,743.41806 -182.0141,729.43336 -182.59141,732.56366 C -184.93599,728.34086 -187.88287,724.63536 -191.14757,721.15836 C -194.87182,717.99006 -198.73093,715.54646 -203.0877,713.37766 C -207.86217,710.21086 -212.84613,708.22166 -218.63571,708.01546 C -224.94179,707.44376 -231.31668,707.23676 -237.60745,708.44866 L -240.43769,694.72746 z"
             id="path2453"
             style="fill:#fff700;fill-opacity:1;stroke:none;stroke-width:1;stroke-miterlimit:4;stroke-dasharray:none;stroke-dashoffset:0;stroke-opacity:1" />
          <path
             inkscape:transform-center-y="-8.7692208"
             inkscape:transform-center-x="-38.619727"
             d="M -240.54729,694.75676 C -237.59278,688.95286 -233.69191,683.78076 -229.47547,678.89096 C -225.81059,674.27606 -221.23519,671.04736 -215.78381,668.87456 C -211.36382,666.84426 -207.1677,664.79956 -202.39586,663.64196 C -197.63511,662.77116 -192.80201,662.68016 -187.93482,663.03636 C -179.35796,664.57396 -167.91142,666.72206 -163.41934,675.02126 C -162.31784,680.06356 -164.6588,684.27306 -167.34311,688.15876 C -170.69621,692.51056 -174.78478,696.19696 -178.8237,699.88296 C -182.94456,703.98506 -188.22502,706.40666 -193.67751,708.31386 C -198.97872,709.87846 -204.00671,709.53736 -209.33589,707.85196 C -220.34774,705.50016 -226.4768,699.02886 -235.09683,693.33006 L -221.77552,697.22176 C -217.06272,700.42176 -200.28709,711.97166 -221.17012,700.38016 C -216.01009,702.33016 -211.19492,702.94396 -205.9038,701.63236 C -200.55624,699.90886 -195.33543,697.62636 -191.29915,693.67436 C -187.32147,690.05806 -183.28735,686.45146 -179.95128,682.20696 C -177.58941,678.83936 -175.10958,674.94566 -176.63142,670.54006 C -180.02851,665.97796 -186.3388,664.85446 -168.58378,672.29126 C -165.06157,673.76666 -178.11115,667.93236 -175.91959,670.24086 C -180.71371,669.65226 -185.44368,669.85526 -190.176,670.44946 C -194.92903,671.59706 -199.17543,673.28006 -203.49237,675.52696 C -208.86212,677.52466 -213.40276,680.38456 -216.97563,684.94486 C -221.14799,689.70776 -225.06582,694.74086 -227.78691,700.54076 L -240.54729,694.75676 z"
             id="path2457"
             style="fill:#fff700;fill-opacity:1;stroke:none;stroke-width:1;stroke-miterlimit:4;stroke-dasharray:none;stroke-dashoffset:0;stroke-opacity:1" />
          <path
             inkscape:transform-center-y="-31.028276"
             inkscape:transform-center-x="27.955418"
             d="M -240.50785,694.96676 C -247.02024,695.01416 -253.40727,693.93076 -259.68887,692.43726 C -265.47246,691.30686 -270.44448,688.73036 -274.88213,684.89036 C -278.71841,681.90026 -282.46462,679.11556 -285.68807,675.41156 C -288.65192,671.58556 -290.95667,667.33636 -292.87995,662.85106 C -295.46144,654.52866 -298.82135,643.37756 -293.51992,635.57036 C -289.55009,632.27226 -284.73544,632.41366 -280.05034,633.00886 C -274.64378,633.98356 -269.48953,635.91726 -264.35855,637.80716 C -258.82023,639.57826 -254.24041,643.15206 -250.03819,647.11546 C -246.20984,651.10226 -244.19901,655.72326 -243.24319,661.23026 C -240.26406,672.08916 -243.18939,680.50856 -244.28256,690.78416 L -246.95702,677.16606 C -246.28459,671.50936 -243.74929,651.30066 -244.43143,675.17526 C -245.07466,669.69676 -246.74529,665.13916 -250.34447,661.04496 C -254.3353,657.09026 -258.76416,653.50526 -264.13012,651.74016 C -269.17115,649.87266 -274.22957,647.95056 -279.53312,646.94166 C -283.60981,646.39426 -288.20787,645.98426 -291.41898,649.36256 C -293.90632,654.47796 -292.00019,660.59756 -293.56737,641.41186 C -293.87825,637.60586 -293.05341,651.87636 -292.01232,648.86836 C -290.32883,653.39556 -287.97217,657.50166 -285.26698,661.42986 C -282.06104,665.12166 -278.61291,668.11746 -274.63145,670.91626 C -270.38702,674.76456 -265.75862,677.47996 -260.06567,678.55376 C -253.9171,680.06646 -247.64567,681.22896 -241.2443,680.97616 L -240.50785,694.96676 z"
             id="path2459"
             style="fill:#fff700;fill-opacity:1;stroke:none;stroke-width:1;stroke-miterlimit:4;stroke-dasharray:none;stroke-dashoffset:0;stroke-opacity:1" />
          <path
             transform="translate(-2,-20)"
             d="M -218.19295,718.00171 A 17.67767,16.162441 0 1 1 -253.54829,718.00171 A 17.67767,16.162441 0 1 1 -218.19295,718.00171 z"
             sodipodi:ry="16.162441"
             sodipodi:rx="17.67767"
             sodipodi:cy="718.00171"
             sodipodi:cx="-235.87062"
             id="path3249"
             style="opacity:1;fill:#ffd200;fill-opacity:1;stroke:none;stroke-width:1;stroke-miterlimit:4;stroke-dasharray:none;stroke-dashoffset:0;stroke-opacity:1"
             sodipodi:type="arc" />
        </g>
      </g>
      <g
         id="g3393">
        <path
           style="opacity:1;fill:#ff90b5;fill-opacity:1;stroke:none;stroke-width:1;stroke-miterlimit:4;stroke-dasharray:none;stroke-dashoffset:0;stroke-opacity:1"
           id="path2417"
           d="M -212.25551,944.65245 C -209.88189,934.33369 -207.09151,924.11926 -204.56665,913.83855 C -201.92419,902.75564 -200.96554,891.40272 -200.45277,880.05296 C -200.20389,872.64161 -199.96282,865.23867 -200.80701,857.86224 C -201.77492,852.41342 -203.5354,847.18357 -205.57887,842.05895 C -207.2739,840.56174 -208.49691,834.54361 -209.84267,833.35965 C -206.67366,832.53407 -203.6101,830.83647 -200.33565,830.88292 C -199.4227,830.89588 -199.85121,832.64524 -199.54593,833.50574 C -199.13184,834.67296 -198.63248,835.80816 -198.17941,836.9608 C -196.25616,841.8537 -194.10477,846.55719 -191.81213,851.28877 C -188.40371,858.55961 -184.12208,865.35356 -179.51392,871.91081 C -178.00323,873.56645 -177.03709,875.6491 -175.50833,877.288 C -175.26843,877.54518 -175.01856,877.82985 -174.68909,877.95289 C -174.52849,878.01287 -174.04913,877.70694 -174.2069,877.77402 C -177.0951,879.00197 -179.98956,880.21517 -182.88089,881.43574 C -181.73006,878.09467 -182.09332,874.22924 -182.0857,870.71665 C -182.47773,865.47649 -181.50712,860.42049 -180.36542,855.34486 C -178.82059,850.28269 -177.40934,845.20652 -176.63805,839.96565 C -175.96074,834.41106 -176.83832,835.80845 -166.86371,833.86076 C -166.84047,833.85622 -166.84284,834.9192 -166.84082,836.76187 C -167.13231,844.93654 -166.53261,853.08968 -166.08579,861.24678 C -165.965,872.92994 -164.75893,884.4848 -162.69159,895.97151 C -160.81684,904.64047 -156.63218,912.07039 -151.25693,918.99154 C -146.96405,924.56176 -141.97788,929.72693 -135.90446,933.33766 C -133.7162,934.36794 -131.25925,935.10313 -129.57311,936.90896 L -138.53133,941.45121 C -140.19643,939.78588 -142.62758,939.18995 -144.63259,938.04736 C -150.68935,934.2301 -155.73515,929.00621 -160.07841,923.34559 C -165.51921,916.2709 -169.75034,908.69864 -171.63449,899.86409 C -173.7163,888.33907 -174.87101,876.73662 -175.0443,865.01785 C -175.533,856.87988 -176.24013,848.75338 -176.07292,840.59313 C -176.07952,840.05559 -176.08262,839.51799 -176.09272,838.9805 C -176.10019,838.58339 -176.4665,837.99329 -176.12563,837.78942 C -164.56416,830.87465 -166.69473,830.8797 -167.39008,836.28893 C -168.1319,841.56388 -169.49642,846.68382 -171.12679,851.75282 C -172.22738,856.76099 -173.33965,861.73216 -172.8866,866.90758 C -172.88766,870.68467 -172.76941,874.50749 -173.33996,878.24956 C -185.78192,884.33738 -181.9753,884.74106 -188.43643,876.25949 C -193.01086,869.6237 -197.17026,862.70661 -200.63182,855.41862 C -202.94047,850.6804 -205.1283,845.95466 -207.13346,841.08112 C -207.61449,839.91197 -208.14432,838.76237 -208.59169,837.57993 C -208.92156,836.70804 -210.08424,835.6181 -209.46347,834.92264 C -207.12401,832.3017 -203.70601,830.89509 -200.82728,828.88131 C -199.01148,831.59324 -198.65246,835.29549 -196.54785,837.91287 C -194.49877,843.12786 -192.69447,848.43754 -191.70103,853.96942 C -190.86494,861.41387 -191.08737,868.87572 -191.40302,876.35326 C -191.94152,887.76973 -192.91211,899.18844 -195.52794,910.34558 C -198.00216,920.553 -200.79182,930.68252 -202.97262,940.96078 L -212.25551,944.65245 z" />
        <path
           style="opacity:1;fill:#ff90b5;fill-opacity:1;stroke:none;stroke-width:1;stroke-miterlimit:4;stroke-dasharray:none;stroke-dashoffset:0;stroke-opacity:1"
           id="path2419"
           d="M -108.84553,949.54173 C -114.91691,943.50188 -118.3542,935.93444 -121.53999,928.12771 C -126.33701,917.17112 -128.19346,905.51644 -129.17617,893.69892 C -130.2691,881.44766 -129.07433,869.15847 -125.97138,857.28605 C -124.10476,849.7141 -120.74303,842.792 -115.58994,836.95213 C -109.56976,831.5954 -101.72792,828.46656 -93.716509,828.92575 C -86.597967,829.69872 -80.85038,833.26429 -75.707493,838.05101 C -69.842241,842.78953 -67.18634,849.50112 -64.772562,856.39318 C -62.849673,862.37829 -62.499554,868.63409 -62.271097,874.86482 C -61.879942,880.43762 -62.295103,885.91509 -63.333127,891.38963 C -64.491337,897.94461 -66.112892,904.40025 -67.18179,910.97086 C -67.944218,915.68605 -70.157185,919.95104 -71.3485,924.55222 C -70.717167,928.88142 -80.306609,941.43815 -83.177359,931.62857 C -83.75571,927.9009 -83.633595,924.10146 -83.609932,920.34033 C -83.378645,915.03839 -83.581551,909.8066 -84.650597,904.60458 C -86.088057,898.80416 -88.696967,893.54435 -93.173452,889.54721 C -96.696596,887.21575 -100.97026,886.27163 -105.05759,885.37811 C -108.95257,884.79003 -112.98181,884.12827 -116.90614,884.71902 C -120.4745,885.53705 -129.11016,889.80871 -113.60033,882.9471 L -123.17053,885.87041 C -118.60718,883.57848 -113.72625,880.24172 -108.45077,879.40887 C -104.43595,879.12145 -100.39087,879.61044 -96.446327,880.36238 C -92.235662,881.35605 -87.849335,882.34704 -84.338689,884.99848 C -79.842562,889.24239 -77.100246,894.64338 -75.567745,900.62105 C -74.44997,905.87784 -74.182677,911.16626 -74.412439,916.5339 C -74.411774,920.20161 -74.530962,923.89907 -74.026997,927.54078 C -72.898512,931.76175 -73.418183,928.46356 -82.549777,933.11719 C -82.728943,933.20849 -82.157115,932.9617 -82.035806,932.80133 C -81.581659,932.20092 -81.136925,930.70053 -80.992424,930.08985 C -80.840623,929.44832 -80.765635,928.79102 -80.65224,928.1416 C -79.534836,923.51051 -77.29649,919.28835 -76.382235,914.61024 C -75.325548,908.0276 -73.693132,901.56945 -72.547986,895.00234 C -71.487419,889.60244 -71.060667,884.19098 -71.408318,878.68608 C -71.601192,872.55104 -71.930674,866.38347 -73.774575,860.47913 C -76.100244,853.70779 -78.700067,847.18116 -84.481928,842.56813 C -89.558346,837.95703 -95.209636,834.59034 -102.20009,834.08427 C -104.6815,834.05646 -104.88894,833.93356 -107.31845,834.37713 C -108.03704,834.50832 -110.07357,835.27548 -109.44623,834.90128 C -95.899237,826.82055 -103.31827,832.0461 -106.16376,833.84482 C -111.51232,839.44304 -114.94575,846.28898 -116.86195,853.79023 C -120.11167,865.53817 -121.33507,877.75119 -120.26165,889.91858 C -119.26838,901.62646 -117.47013,913.20164 -112.68735,924.04977 C -109.50906,931.73751 -106.09529,939.18924 -99.944361,945.00635 L -108.84553,949.54173 z" />
        <path
           style="opacity:1;fill:#ff90b5;fill-opacity:1;stroke:none;stroke-width:1;stroke-miterlimit:4;stroke-dasharray:none;stroke-dashoffset:0;stroke-opacity:1"
           id="path2421"
           d="M -53.14416,837.92071 C -48.278676,846.22671 -44.579777,855.09724 -41.067425,864.03664 C -36.427936,877.12033 -32.352129,890.38764 -29.54204,903.9866 C -28.049435,911.86381 -27.29897,919.84814 -26.997553,927.85167 C -26.872593,932.11947 -26.936845,936.38955 -26.866285,940.65814 C -26.693335,944.13479 -26.644679,942.78293 -36.123137,943.40953 C -36.362023,943.42532 -35.984405,934.70723 -35.942912,934.12374 C -35.15135,927.64623 -33.106342,921.48036 -30.571273,915.50033 C -28.186274,910.39052 -24.939323,905.81673 -21.790084,901.17432 C -17.934612,895.57643 -13.768009,890.21065 -9.9478173,884.58699 C -6.7412523,879.53828 -4.4315713,874.24679 -3.2466163,868.39435 C -2.5264793,863.90626 -2.1447523,859.38435 -2.9607123,854.89807 C -3.8935753,851.67785 -5.5769613,849.9911 -8.7399903,849.07273 C -12.354095,849.14505 -20.877579,852.04846 -4.8937823,846.34162 C -4.4812113,846.1943 -5.5154513,846.96765 -5.7546363,847.33468 C -6.0170323,847.73731 -6.1753833,848.19888 -6.3857533,848.63098 C -7.3963353,852.66433 -2.7047193,851.3469 -0.39855126,850.67715 C -1.5840943,851.42885 7.7885057,847.54382 5.6775657,848.14334 C 3.9017727,848.64767 2.2486687,850.95512 0.54930374,850.23405 C -0.88570826,849.62513 3.1529177,848.5176 4.4201597,847.60979 C 7.3881167,845.48364 8.8116357,844.24933 11.615964,841.9592 C 15.178463,838.81072 18.46793,835.38844 21.809141,832.01371 L 31.234031,828.88131 C 27.79634,832.22862 24.518964,835.73352 20.952899,838.95247 C 12.08331,846.28679 2.4466747,852.80889 -8.7199793,856.14222 C -12.087222,856.83486 -16.474123,856.81233 -15.746948,852.15465 C -13.579209,846.19457 -6.0951223,843.31356 -0.088910262,844.06212 C 3.2642257,845.29815 5.1467487,847.37886 6.1612127,850.8459 C 7.0198747,855.45578 6.6834587,860.08827 5.9622137,864.71089 C 4.8286447,870.70049 2.6029427,876.09564 -0.62348926,881.28286 C -4.4002733,886.93623 -8.6032703,892.27038 -12.462653,897.86463 C -15.518604,902.51749 -18.857955,906.97834 -21.294506,912.02253 C -23.921421,917.86922 -25.915019,923.96303 -26.790565,930.33388 C -26.974862,932.82456 -26.980563,935.23515 -26.944407,937.72809 C -26.935839,938.31907 -26.449383,939.13716 -26.915168,939.50102 C -29.724978,941.69596 -33.017762,943.19406 -36.141685,944.91276 C -36.245794,944.97004 -36.118403,944.67626 -36.106764,944.558 C -35.997325,940.28779 -36.08184,936.01459 -36.125844,931.74404 C -36.340985,923.76817 -36.964517,915.80114 -38.405106,907.94297 C -41.10564,894.37498 -45.111044,881.13922 -49.848973,868.14393 C -53.38815,859.25099 -57.126336,850.41738 -62.126048,842.22617 L -53.14416,837.92071 z" />
        <path
           style="opacity:1;fill:#ff90b5;fill-opacity:1;stroke:none;stroke-width:1;stroke-miterlimit:4;stroke-dasharray:none;stroke-dashoffset:0;stroke-opacity:1"
           id="path2425"
           d="M 47.050143,876.39778 C 54.385891,878.52481 61.714375,875.92606 68.674639,873.65241 C 69.799889,873.20359 73.11943,871.73607 72.05039,872.30595 C 58.288809,879.64195 68.103095,873.86376 69.058499,873.16027 C 71.43296,871.41189 73.28973,869.22161 75.08358,866.91601 C 78.13021,862.05493 78.84799,856.62616 78.07464,851.03855 C 77.25148,845.58802 74.79048,840.97828 70.76113,837.2827 C 64.257669,833.22955 58.80692,833.05163 51.756428,835.72583 C 53.5261,834.93197 55.139012,833.56967 57.065443,833.34425 C 58.321351,833.19729 54.913608,834.68371 53.924987,835.47208 C 49.365406,839.1081 46.910133,843.86314 44.799183,849.16044 C 41.071628,860.57467 39.940404,872.65123 40.223463,884.59779 C 41.257191,895.77662 42.739496,907.90669 50.106511,916.94383 C 51.391737,918.52043 52.994637,919.80889 54.4387,921.24142 C 64.194501,928.29185 73.39716,929.39474 84.75228,926.17233 C 85.97085,925.73243 87.18942,925.29254 88.40799,924.85264 L 80.1885,930.27762 C 78.96534,930.69061 77.74218,931.10359 76.51902,931.51657 C 65.191657,934.32293 55.247436,932.89894 45.796944,925.64162 C 44.330337,924.14745 42.704095,922.79475 41.397125,921.15911 C 34.014693,911.9202 32.408905,899.68534 31.30206,888.32184 C 30.927941,876.2892 32.060443,864.13131 35.606985,852.57785 C 40.476967,839.49098 46.662436,835.55055 59.983737,830.29494 C 67.330634,827.932 73.07149,828.38983 79.59037,832.7455 C 83.70644,836.65005 86.2989,841.45855 87.17307,847.11579 C 88.04734,852.9196 87.43169,858.53953 84.47665,863.71884 C 78.37906,872.05258 70.45416,875.76987 60.442333,879.05714 C 53.291842,881.32933 45.871365,883.58312 38.393159,881.37686 L 47.050143,876.39778 z" />
        <path
           style="opacity:1;fill:#ff90b5;fill-opacity:1;stroke:none;stroke-width:1;stroke-miterlimit:4;stroke-dasharray:none;stroke-dashoffset:0;stroke-opacity:1"
           id="path2429"
           d="M 188.03861,949.54173 C 181.96723,943.50188 178.52994,935.93444 175.34415,928.12771 C 170.54713,917.17112 168.69068,905.51644 167.70796,893.69892 C 166.61504,881.44766 167.80981,869.15847 170.91275,857.28605 C 172.77938,849.7141 176.1411,842.792 181.2942,836.95213 C 187.31438,831.5954 195.15622,828.46656 203.16763,828.92575 C 210.28617,829.69872 216.03376,833.26429 221.17665,838.05101 C 227.0419,842.78953 229.6978,849.50112 232.11158,856.39318 C 234.03447,862.37829 234.38459,868.63409 234.61304,874.86482 C 235.0042,880.43762 234.58904,885.91509 233.55101,891.38963 C 232.3928,897.94461 230.77125,904.40025 229.70235,910.97086 C 228.93992,915.68605 226.72696,919.95104 225.53564,924.55222 C 226.16697,928.88142 216.57753,941.43815 213.70678,931.62857 C 213.12843,927.9009 213.25055,924.10146 213.27421,920.34033 C 213.5055,915.03839 213.30259,909.8066 212.23354,904.60458 C 210.79608,898.80416 208.18717,893.54435 203.71069,889.54721 C 200.18754,887.21575 195.91388,886.27163 191.82655,885.37811 C 187.93157,884.79003 183.90233,884.12827 179.978,884.71902 C 176.40964,885.53705 167.77398,889.80871 183.28381,882.9471 L 173.71361,885.87041 C 178.27696,883.57848 183.15789,880.24172 188.43337,879.40887 C 192.44819,879.12145 196.49327,879.61044 200.43781,880.36238 C 204.64848,881.35605 209.03481,882.34704 212.54545,884.99848 C 217.04158,889.24239 219.78389,894.64338 221.3164,900.62105 C 222.43417,905.87784 222.70146,911.16626 222.4717,916.5339 C 222.47237,920.20161 222.35318,923.89907 222.85714,927.54078 C 223.98563,931.76175 223.46596,928.46356 214.33436,933.11719 C 214.1552,933.20849 214.72703,932.9617 214.84833,932.80133 C 215.30248,932.20092 215.74722,930.70053 215.89172,930.08985 C 216.04352,929.44832 216.11851,928.79102 216.2319,928.1416 C 217.3493,923.51051 219.58765,919.28835 220.50191,914.61024 C 221.55859,908.0276 223.19101,901.56945 224.33615,895.00234 C 225.39672,889.60244 225.82347,884.19098 225.47582,878.68608 C 225.28295,872.55104 224.95347,866.38347 223.10957,860.47913 C 220.7839,853.70779 218.18407,847.18116 212.40221,842.56813 C 207.3258,837.95703 201.67451,834.59034 194.68405,834.08427 C 192.20264,834.05646 191.9952,833.93356 189.56569,834.37713 C 188.84711,834.50832 186.81057,835.27548 187.43791,834.90128 C 200.9849,826.82055 193.56587,832.0461 190.72038,833.84482 C 185.37182,839.44304 181.93839,846.28898 180.02219,853.79023 C 176.77247,865.53817 175.54907,877.75119 176.62248,889.91858 C 177.61575,901.62646 179.41401,913.20164 184.1968,924.04977 C 187.37508,931.73751 190.78885,939.18924 196.93978,945.00635 L 188.03861,949.54173 z" />
        <path
           style="opacity:1;fill:#ff90b5;fill-opacity:1;stroke:none;stroke-width:1;stroke-miterlimit:4;stroke-dasharray:none;stroke-dashoffset:0;stroke-opacity:1"
           id="path2431"
           d="M 90.433424,945.59174 C 93.194424,938.84724 95.671634,932.02579 97.433644,924.95105 C 99.973114,915.58312 101.11233,905.94966 101.78514,896.29356 C 102.26024,887.75642 102.24776,879.2026 102.25164,870.65528 C 101.87367,864.98902 101.64091,858.92662 98.579444,853.97553 C 96.220714,851.16517 92.425794,851.48457 89.414074,849.83373 C 87.215924,847.57124 88.957974,845.73912 91.397114,844.66369 C 103.56566,839.29856 100.19668,840.41266 108.67614,838.21143 C 121.72291,834.8847 135.0028,832.66765 148.23149,830.21992 C 152.80465,829.65093 159.01936,827.41448 163.32653,830.40305 C 165.16564,831.67914 165.53299,833.19429 166.42191,835.12168 C 169.1258,844.19321 165.14581,853.12861 161.3996,861.29265 C 155.89482,871.84081 150.3422,882.67748 141.96934,891.3002 C 140.39232,892.92427 138.63925,894.36759 136.9742,895.90129 C 125.95936,903.575 113.18362,910.64942 99.443194,910.36662 C 96.927634,909.98416 89.234964,907.84807 89.025484,904.40663 C 89.002354,904.02659 89.286924,903.69143 89.417634,903.33383 C 92.882624,901.93035 96.212234,900.13003 99.812594,899.12339 C 100.32943,898.97888 104.11791,900.91741 104.72492,901.24274 C 108.23831,903.12577 111.32802,905.40281 114.42944,907.8882 C 120.33513,912.2531 124.69742,918.19002 129.74576,923.44215 C 133.19675,927.83889 137.84688,930.02112 142.74672,932.25596 C 143.32346,932.49124 143.9002,932.72651 144.47694,932.96178 L 135.76933,937.83599 C 135.19046,937.58987 134.61158,937.34376 134.03271,937.09765 C 129.0379,934.83911 124.47299,932.27374 120.93649,927.90695 C 115.93783,922.67227 111.58824,916.78263 105.7126,912.45472 C 102.64703,910.03266 99.585624,907.78663 96.068924,906.04366 C 95.151744,905.58908 94.220944,905.15097 93.252224,904.82016 C 92.627874,904.60695 90.789264,904.81988 91.313884,904.41983 C 93.619594,902.66157 96.460654,901.74737 99.034034,900.41115 C 98.734814,900.34414 98.348924,899.98914 98.136354,900.21014 C 97.866994,900.49018 98.728574,901.55546 99.821664,902.36789 C 102.1888,904.12725 104.95299,904.91138 107.85207,905.22185 C 111.53487,905.19669 112.08143,905.37857 115.89407,904.49633 C 117.4819,904.12891 119.16711,902.28963 120.58028,903.10153 C 121.76227,903.78062 115.76343,905.62172 117.04521,905.15769 C 120.91815,903.7556 124.40939,901.09817 127.77319,898.84144 C 132.41228,894.69777 133.52885,894.03757 137.47953,889.12559 C 143.48229,881.66219 147.87661,873.05904 152.28674,864.61263 C 155.93874,856.78141 159.93025,848.06291 157.43181,839.31148 C 157.05946,838.51328 156.8118,837.64401 156.31475,836.91689 C 152.89932,831.92049 144.66961,834.90589 140.03908,835.44708 C 126.79411,837.85733 113.50272,840.08295 100.47602,843.53542 C 91.837324,845.90236 96.442194,845.04927 100.95104,841.92082 C 101.34351,841.64851 94.963504,844.1391 98.178464,845.01565 C 101.41176,846.52978 105.2931,846.47116 107.56642,849.66775 C 110.62088,854.84788 110.99665,861.00335 111.34575,866.88909 C 111.33816,875.46252 111.30559,884.04015 110.86862,892.60466 C 110.19666,902.30741 109.07807,911.99609 106.5694,921.41935 C 104.89583,928.49452 102.50867,935.32427 99.792224,942.06346 L 90.433424,945.59174 z" />
        <path
           style="opacity:1;fill:#ff90b5;fill-opacity:1;stroke:none;stroke-width:1;stroke-miterlimit:4;stroke-dasharray:none;stroke-dashoffset:0;stroke-opacity:1"
           id="path2433"
           d="M -310.16727,945.59174 C -307.40627,938.84724 -304.92906,932.02579 -303.16705,924.95105 C -300.62758,915.58312 -299.48836,905.94966 -298.81555,896.29356 C -298.34045,887.75642 -298.35293,879.2026 -298.34905,870.65528 C -298.72702,864.98902 -298.95978,858.92662 -302.02125,853.97553 C -304.37998,851.16517 -308.1749,851.48457 -311.18662,849.83373 C -313.38477,847.57124 -311.64272,845.73912 -309.20358,844.66369 C -297.03503,839.29856 -300.40401,840.41266 -291.92455,838.21143 C -278.87778,834.8847 -265.59789,832.66765 -252.3692,830.21992 C -247.79604,829.65093 -241.58133,827.41448 -237.27416,830.40305 C -235.43505,831.67914 -235.0677,833.19429 -234.17878,835.12168 C -231.47489,844.19321 -235.45488,853.12861 -239.20109,861.29265 C -244.70587,871.84081 -250.25849,882.67748 -258.63135,891.3002 C -260.20837,892.92427 -261.96144,894.36759 -263.62649,895.90129 C -274.64133,903.575 -287.41707,910.64942 -301.1575,910.36662 C -303.67306,909.98416 -311.36573,907.84807 -311.57521,904.40663 C -311.59834,904.02659 -311.31377,903.69143 -311.18306,903.33383 C -307.71807,901.93035 -304.38846,900.13003 -300.7881,899.12339 C -300.27126,898.97888 -296.48278,900.91741 -295.87577,901.24274 C -292.36238,903.12577 -289.27267,905.40281 -286.17125,907.8882 C -280.26556,912.2531 -275.90327,918.19002 -270.85493,923.44215 C -267.40394,927.83889 -262.75381,930.02112 -257.85397,932.25596 C -257.27723,932.49124 -256.70049,932.72651 -256.12375,932.96178 L -264.83136,937.83599 C -265.41023,937.58987 -265.98911,937.34376 -266.56798,937.09765 C -271.56279,934.83911 -276.1277,932.27374 -279.6642,927.90695 C -284.66286,922.67227 -289.01245,916.78263 -294.88809,912.45472 C -297.95366,910.03266 -301.01507,907.78663 -304.53177,906.04366 C -305.44895,905.58908 -306.37975,905.15097 -307.34847,904.82016 C -307.97282,904.60695 -309.81143,904.81988 -309.28681,904.41983 C -306.9811,902.66157 -304.14004,901.74737 -301.56666,900.41115 C -301.86588,900.34414 -302.25177,899.98914 -302.46434,900.21014 C -302.7337,900.49018 -301.87212,901.55546 -300.77903,902.36789 C -298.41189,904.12725 -295.6477,904.91138 -292.74862,905.22185 C -289.06582,905.19669 -288.51926,905.37857 -284.70662,904.49633 C -283.11879,904.12891 -281.43358,902.28963 -280.02041,903.10153 C -278.83842,903.78062 -284.83726,905.62172 -283.55548,905.15769 C -279.68254,903.7556 -276.1913,901.09817 -272.8275,898.84144 C -268.18841,894.69777 -267.07184,894.03757 -263.12116,889.12559 C -257.1184,881.66219 -252.72408,873.05904 -248.31395,864.61263 C -244.66195,856.78141 -240.67044,848.06291 -243.16888,839.31148 C -243.54123,838.51328 -243.78889,837.64401 -244.28594,836.91689 C -247.70137,831.92049 -255.93108,834.90589 -260.56161,835.44708 C -273.80658,837.85733 -287.09797,840.08295 -300.12467,843.53542 C -308.76337,845.90236 -304.1585,845.04927 -299.64965,841.92082 C -299.25718,841.64851 -305.63719,844.1391 -302.42223,845.01565 C -299.18893,846.52978 -295.30759,846.47116 -293.03427,849.66775 C -289.97981,854.84788 -289.60404,861.00335 -289.25494,866.88909 C -289.26253,875.46252 -289.2951,884.04015 -289.73207,892.60466 C -290.40403,902.30741 -291.52262,911.99609 -294.03129,921.41935 C -295.70486,928.49452 -298.09202,935.32427 -300.80847,942.06346 L -310.16727,945.59174 z" />
        <path
           style="opacity:1;fill:#ff90b5;fill-opacity:1;stroke:none;stroke-width:1;stroke-miterlimit:4;stroke-dasharray:none;stroke-dashoffset:0;stroke-opacity:1"
           d="M -468.31203,968.45399 C -423.65252,947.70929 -389.55859,908.97689 -360.30176,870.50909 C -315.96149,799.12979 -338.79896,706.57339 -386.14524,641.22133 C -406.90914,612.56091 -487.94063,621.28838 -444.65422,653.47199 C -395.70886,658.06096 -361.20519,615.83909 -324.63169,590.41378 C -255.91032,542.63978 -160.90669,508.26694 -82.462051,552.71628 C -40.252651,576.63353 -31.152281,628.73267 -49.466081,671.58961 C -77.492151,737.17479 -126.74808,798.11559 -197.99084,816.02009 C -278.77358,841.85289 -367.57001,819.92629 -434.93714,770.79319 C -463.8357,742.14289 -396.66256,785.44649 -380.72657,794.18209 C -306.09176,835.09459 -205.82181,832.99329 -134.46833,782.97139 C -88.338951,745.64019 -52.025301,690.05959 -47.518681,631.32561 C -42.794261,569.75311 -104.77104,537.01766 -169.17381,536.40482 C -233.57658,535.79198 -305.40632,577.97104 -360.6802,621.48369 C -385.70689,641.18518 -450.6322,685.16619 -468.00093,641.15604 C -445.74541,597.0686 -386.58997,609.35703 -361.5832,655.83384 C -336.57643,702.31069 -312.09681,777.84449 -337.27181,838.45849 C -356.75117,892.13179 -404.13581,928.38009 -447.63708,962.12129 C -449.08698,965.34149 -491.84533,981.72292 -468.31203,968.45399 z"
           id="path3323"
           sodipodi:nodetypes="ccscsssccscszsczccc" />
      </g>
      <g
         id="g3334">
        <path
           style="fill:#ea8ff3;fill-opacity:1;stroke:none;stroke-width:1;stroke-miterlimit:4;stroke-dasharray:none;stroke-dashoffset:0;stroke-opacity:1"
           id="path3261"
           d="M -456.55003,754.82004 C -457.91283,756.47935 -459.5301,757.82406 -461.22681,759.0394 C -462.72836,760.21972 -464.41758,760.83279 -466.30762,760.99451 C -467.85984,761.21682 -469.34201,761.46773 -470.9421,761.3564 C -472.51772,761.14881 -474.05917,760.66862 -475.57868,760.03282 C -478.19007,758.60348 -481.66787,756.66315 -482.48724,753.3685 C -482.46814,751.53898 -481.41675,750.3564 -480.28,749.32009 C -478.8968,748.19626 -477.3287,747.37619 -475.77634,746.55107 C -474.16758,745.59317 -472.31351,745.32886 -470.44243,745.25752 C -468.64457,745.28668 -467.07274,745.93423 -465.5037,747.07039 C -462.17874,749.0339 -460.70587,751.88068 -458.38527,754.72836 L -462.33099,751.9974 C -463.59354,750.41187 -468.07592,744.71384 -462.29215,750.86034 C -463.7882,749.65223 -465.27243,748.93444 -467.04863,748.82048 C -468.87289,748.84051 -470.69785,749.06384 -472.26885,749.97967 C -473.79665,750.78762 -475.3416,751.58634 -476.71147,752.67556 C -477.70793,753.56988 -478.78029,754.63046 -478.61936,756.28817 C -477.87432,758.19736 -475.95253,759.24637 -481.04692,754.8422 C -482.05745,753.96844 -478.34019,757.33059 -478.86728,756.31455 C -477.3879,757.02151 -475.87102,757.45278 -474.3247,757.75132 C -472.73133,757.8641 -471.25959,757.74137 -469.72431,757.4345 C -467.87293,757.3237 -466.22172,756.83227 -464.75346,755.6608 C -463.07998,754.48388 -461.46752,753.18821 -460.17911,751.50555 L -456.55003,754.82004 z"
           inkscape:transform-center-x="-5.8358611"
           inkscape:transform-center-y="-11.927453" />
        <path
           style="fill:#ea8ff3;fill-opacity:1;stroke:none;stroke-width:1;stroke-miterlimit:4;stroke-dasharray:none;stroke-dashoffset:0;stroke-opacity:1"
           id="path3263"
           d="M -458.15457,754.8981 C -460.24223,754.65408 -462.2443,754.05329 -464.19597,753.32546 C -466.00293,752.73369 -467.49169,751.71156 -468.75848,750.30647 C -469.86686,749.19723 -470.95474,748.15734 -471.83816,746.84412 C -472.63348,745.50218 -473.20076,744.05116 -473.6364,742.53979 C -474.12861,739.77475 -474.75618,736.07376 -472.74438,733.7873 C -471.34022,732.89022 -469.80408,733.12714 -468.32744,733.50401 C -466.63512,734.031 -465.06208,734.85474 -463.49467,735.66351 C -461.79214,736.45052 -460.4692,737.77613 -459.28267,739.21125 C -458.21688,740.63899 -457.75869,742.19727 -457.67398,743.99699 C -457.15657,747.58932 -458.43203,750.16624 -459.19538,753.40986 L -459.50429,748.94701 C -459.06145,747.16423 -457.43683,740.80041 -458.61544,748.41072 C -458.60105,746.63252 -458.95283,745.10806 -459.94086,743.65507 C -461.05995,742.23109 -462.3343,740.90801 -463.9818,740.12974 C -465.52126,739.3317 -467.06402,738.51548 -468.72207,737.98168 C -470.00577,737.64434 -471.46183,737.33011 -472.62609,738.28302 C -473.62841,739.8204 -473.26408,741.85391 -472.99447,735.65407 C -472.941,734.42416 -473.2506,739.02208 -472.79619,738.10128 C -472.43916,739.61657 -471.84953,741.02391 -471.14116,742.38819 C -470.26276,743.69679 -469.27882,744.79235 -468.11629,745.84618 C -466.91161,747.24616 -465.53845,748.29906 -463.75837,748.86914 C -461.85,749.59781 -459.88825,750.21931 -457.82787,750.39322 L -458.15457,754.8981 z"
           inkscape:transform-center-x="-12.447065"
           inkscape:transform-center-y="-2.8311501" />
        <path
           style="fill:#ea8ff3;fill-opacity:1;stroke:none;stroke-width:1;stroke-miterlimit:4;stroke-dasharray:none;stroke-dashoffset:0;stroke-opacity:1"
           id="path3265"
           d="M -460.58373,749.17247 C -459.06527,746.84622 -457.19793,745.01514 -455.21814,743.38489 C -453.47718,741.78628 -451.44325,741.0516 -449.11234,741.00983 C -447.20758,740.84236 -445.39281,740.62493 -443.3934,740.95905 C -441.4143,741.43386 -439.44882,742.31077 -437.49429,743.41697 C -434.10002,745.81921 -429.57548,749.07309 -428.21091,754.06288 C -428.04202,756.78378 -429.22363,758.4332 -430.52661,759.85588 C -432.12663,761.38294 -433.98824,762.43842 -435.82972,763.50307 C -437.72728,764.75938 -440.00274,764.95763 -442.3195,764.86684 C -444.55611,764.63428 -446.57663,763.50501 -448.64547,761.6489 C -452.9825,758.37658 -455.1119,753.98463 -458.29423,749.50205 L -453.10525,753.98192 C -451.3701,756.47465 -445.20218,765.42698 -453.03388,755.67018 C -451.04834,757.62575 -449.12908,758.8503 -446.91054,759.20681 C -444.6464,759.369 -442.40285,759.22868 -440.5479,758.03104 C -438.73493,756.98933 -436.8999,755.9632 -435.31272,754.48624 C -434.16901,753.26008 -432.94861,751.79449 -433.323,749.31033 C -434.44946,746.3904 -436.94711,744.62681 -430.15521,751.71794 C -428.80784,753.12469 -433.77942,747.72944 -433.01777,749.29713 C -434.92991,748.08924 -436.85966,747.28772 -438.81193,746.6806 C -440.80322,746.34509 -442.61837,746.37275 -444.49334,746.66793 C -446.78164,746.63802 -448.781,747.19558 -450.48168,748.78462 C -452.43661,750.36009 -454.30311,752.11868 -455.72656,754.48744 L -460.58373,749.17247 z"
           inkscape:transform-center-x="8.9125643"
           inkscape:transform-center-y="14.352911" />
        <path
           style="fill:#ea8ff3;fill-opacity:1;stroke:none;stroke-width:1;stroke-miterlimit:4;stroke-dasharray:none;stroke-dashoffset:0;stroke-opacity:1"
           id="path3267"
           d="M -460.52739,749.17552 C -457.44622,749.41685 -454.50794,750.15277 -451.64991,751.06567 C -449.00034,751.79806 -446.84138,753.13676 -445.02849,755.01222 C -443.43681,756.48789 -441.87245,757.86912 -440.62325,759.63554 C -439.50584,761.44547 -438.73119,763.41577 -438.15418,765.47499 C -437.55028,769.2562 -436.78793,774.31866 -439.87111,777.55466 C -441.99142,778.85207 -444.25625,778.59566 -446.42627,778.14395 C -448.90931,777.49561 -451.20198,776.4336 -453.48703,775.39195 C -455.97315,774.3863 -457.87296,772.62273 -459.56549,770.70228 C -461.07963,768.78656 -461.68789,766.66381 -461.73192,764.19205 C -462.336,759.27408 -460.33027,755.67179 -459.05317,751.17567 L -458.79723,757.30044 C -459.53385,759.77277 -462.22776,768.59979 -460.13816,758.07835 C -460.23977,760.52493 -459.78753,762.60595 -458.38974,764.55993 C -456.79634,766.46801 -454.9688,768.23044 -452.56343,769.22641 C -450.31938,770.25461 -448.07118,771.30764 -445.63941,771.96696 C -443.7534,772.37303 -441.61074,772.73939 -439.84313,771.37601 C -438.28896,769.21598 -438.73684,766.43533 -439.41634,774.97557 C -439.55118,776.66979 -438.88458,770.33113 -439.59928,771.61829 C -440.05977,769.55013 -440.86961,767.64099 -441.8572,765.79638 C -443.09904,764.03602 -444.50687,762.5735 -446.18122,761.17648 C -447.90228,759.30519 -449.88861,757.91896 -452.49955,757.21527 C -455.29329,756.29921 -458.17111,755.53303 -461.21507,755.38695 L -460.52739,749.17552 z"
           inkscape:transform-center-x="16.91352"
           inkscape:transform-center-y="4.240812" />
        <path
           style="fill:#ea8ff3;fill-opacity:1;stroke:none;stroke-width:1;stroke-miterlimit:4;stroke-dasharray:none;stroke-dashoffset:0;stroke-opacity:1"
           id="path3271"
           d="M -462.49227,749.33001 C -465.97182,748.13937 -469.43622,746.70924 -472.47619,744.83272 C -473.51598,744.19087 -474.47119,743.45275 -475.46854,742.76272 C -479.77884,739.26431 -483.18431,735.03364 -485.57047,730.28741 C -486.72318,727.99458 -487.17705,726.66964 -488.09262,724.31666 C -489.17207,720.95167 -488.71324,722.59423 -489.49361,719.39564 L -487.94043,720.74948 C -487.18087,723.90645 -487.62832,722.28458 -486.57344,725.60846 C -484.33636,731.36155 -481.74059,737.10131 -476.51614,741.17124 C -475.53146,741.85639 -474.5906,742.59117 -473.56211,743.22666 C -470.59524,745.05999 -467.20337,746.40083 -463.81045,747.56673 L -462.49227,749.33001 z" />
        <path
           style="fill:#ea8ff3;fill-opacity:1;stroke:none;stroke-width:1;stroke-miterlimit:4;stroke-dasharray:none;stroke-dashoffset:0;stroke-opacity:1"
           id="path3273"
           d="M -499.36269,749.15676 C -496.02442,747.61349 -492.53175,746.2539 -489.03755,745.51031 C -487.84234,745.25597 -486.64174,745.12965 -485.44404,744.93948 C -479.91087,744.49079 -474.52589,745.19655 -469.52172,746.97937 C -467.1042,747.84054 -465.86073,748.48487 -463.57311,749.55341 C -460.46797,751.24042 -461.93442,750.36987 -459.16039,752.14319 L -461.21869,752.23753 C -463.94889,750.47988 -462.50489,751.34331 -465.56395,749.66909 C -471.15602,747.05537 -476.99817,744.69913 -483.58715,745.36628 C -484.77238,745.55123 -485.96019,745.67005 -487.14283,745.92117 C -490.55447,746.64556 -493.93289,748.01952 -497.19146,749.52083 L -499.36269,749.15676 z" />
      </g>
    </g>
  </g>
</svg>
