<?xml version="1.0" encoding="UTF-8" standalone="no"?>
<!-- Created with Inkscape (http://www.inkscape.org/) -->

<svg
   xmlns:dc="http://purl.org/dc/elements/1.1/"
   xmlns:cc="http://creativecommons.org/ns#"
   xmlns:rdf="http://www.w3.org/1999/02/22-rdf-syntax-ns#"
   xmlns:svg="http://www.w3.org/2000/svg"
   xmlns="http://www.w3.org/2000/svg"
   xmlns:sodipodi="http://sodipodi.sourceforge.net/DTD/sodipodi-0.dtd"
   xmlns:inkscape="http://www.inkscape.org/namespaces/inkscape"
   width="744.09448819"
   height="1052.3622047"
   id="svg3451"
   version="1.1"
   inkscape:version="0.47 r22583"
   sodipodi:docname="New document 5">
  <defs
     id="defs3453">
    <inkscape:perspective
       sodipodi:type="inkscape:persp3d"
       inkscape:vp_x="0 : 526.18109 : 1"
       inkscape:vp_y="0 : 1000 : 0"
       inkscape:vp_z="744.09448 : 526.18109 : 1"
       inkscape:persp3d-origin="372.04724 : 350.78739 : 1"
       id="perspective3459" />
    <inkscape:perspective
       id="perspective3418"
       inkscape:persp3d-origin="0.5 : 0.33333333 : 1"
       inkscape:vp_z="1 : 0.5 : 1"
       inkscape:vp_y="0 : 1000 : 0"
       inkscape:vp_x="0 : 0.5 : 1"
       sodipodi:type="inkscape:persp3d" />
  </defs>
  <sodipodi:namedview
     id="base"
     pagecolor="#ffffff"
     bordercolor="#666666"
     borderopacity="1.0"
     inkscape:pageopacity="0.0"
     inkscape:pageshadow="2"
     inkscape:zoom="0.35"
     inkscape:cx="375"
     inkscape:cy="324.49234"
     inkscape:document-units="px"
     inkscape:current-layer="layer1"
     showgrid="false"
     inkscape:window-width="607"
     inkscape:window-height="491"
     inkscape:window-x="4"
     inkscape:window-y="72"
     inkscape:window-maximized="0" />
  <metadata
     id="metadata3456">
    <rdf:RDF>
      <cc:Work
         rdf:about="">
        <dc:format>image/svg+xml</dc:format>
        <dc:type
           rdf:resource="http://purl.org/dc/dcmitype/StillImage" />
        <dc:title></dc:title>
      </cc:Work>
    </rdf:RDF>
  </metadata>
  <g
     inkscape:label="Layer 1"
     inkscape:groupmode="layer"
     id="layer1">
    <g
       id="g3827"
       transform="matrix(30.018118,0,0,30.018118,-16808.124,-13319.823)">
      <path
         id="path3904"
         d="m 565.85512,455.86656 c 0.73757,0.81654 1.69019,1.39273 2.63192,1.94159"
         style="fill:none;stroke:#000000;stroke-width:0.25;stroke-linecap:butt;stroke-linejoin:miter;stroke-miterlimit:4;stroke-opacity:1;stroke-dasharray:none" />
      <path
         id="path3906"
         d="m 572.67222,456.77264 c 1.6488,0.36877 0.82881,2.95946 -0.38222,3.35718 -1.17764,0.0435 -2.92032,0.26475 -3.60407,-0.90243 -0.59252,-1.46348 0.49911,-2.55591 1.93309,-2.48712 1.84677,-0.36172 3.6938,0.20555 5.54806,0.0755"
         style="fill:none;stroke:#000000;stroke-width:0.25;stroke-linecap:butt;stroke-linejoin:miter;stroke-miterlimit:4;stroke-opacity:1;stroke-dasharray:none" />
      <path
         id="path3908"
         d="m 573.62145,457.46297 c 0.63268,-0.0337 1.26589,0.0409 1.89843,0"
         style="fill:none;stroke:#000000;stroke-width:0.25;stroke-linecap:butt;stroke-linejoin:miter;stroke-miterlimit:4;stroke-opacity:1;stroke-dasharray:none" />
      <path
         id="path3910"
         d="m 576.98686,456.60005 c -1.46442,0.0611 -2.14498,2.1954 -0.86231,3.0173 1.23058,0.45841 3.45317,1.03124 4.02382,-0.5998 0.68631,-1.23215 0.0703,-2.5931 -1.40955,-2.38462 -0.57527,-0.10971 -1.17642,-0.18207 -1.75196,-0.0329 z"
         style="fill:none;stroke:#000000;stroke-width:0.25;stroke-linecap:butt;stroke-linejoin:miter;stroke-miterlimit:4;stroke-opacity:1;stroke-dasharray:none" />
      <path
         id="path3912"
         d="m 572.67222,456.47061 c -1.30106,-0.56872 -3.2871,-0.94682 -4.22398,0.3878 0.51356,-0.0613 1.9695,-0.33922 0.7744,0.38802 -0.55952,1.27437 1.02369,-0.95683 0.60536,0.2962 0.63562,-0.59399 0.29783,1.29943 1.23858,0.52615 0.45622,-1.23673 1.41444,0.83011 2.15725,-0.48701 0.31125,-0.45535 -0.10754,-0.96931 -0.55161,-1.11116 z"
         style="fill:#000000;fill-rule:evenodd;stroke:#000000;stroke-width:0.25;stroke-linecap:butt;stroke-linejoin:miter;stroke-miterlimit:4;stroke-opacity:1;stroke-dasharray:none" />
      <path
         id="path3914"
         d="m 577.5909,458.11017 c 0.44935,-0.19378 0.68232,-1.29881 0.89524,-0.18746 1.17393,0.0968 1.74587,-2.15968 0.0252,-1.9465 -1.01381,0.35332 -3.04403,0.81523 -2.96141,2.07159 0.67472,0.56089 1.23707,-1.09746 1.62892,0.14655 l 0.17309,0.0341 0.23897,-0.11823 0,0 z"
         style="fill:#000000;fill-rule:evenodd;stroke:#000000;stroke-width:0.25;stroke-linecap:butt;stroke-linejoin:miter;stroke-miterlimit:4;stroke-opacity:1;stroke-dasharray:none" />
      <path
         id="path3916"
         d="m 571.63672,458.28275 c -0.66632,0.022 -0.62862,0.4267 -0.71752,0.68375 -0.26866,0.30186 1.53025,-0.35646 1.76185,-0.83395 0.49672,-0.64457 -0.88527,0.23139 -1.04433,0.1502 z"
         style="fill:#000000;fill-rule:evenodd;stroke:#000000;stroke-width:0.25;stroke-linecap:butt;stroke-linejoin:miter;stroke-miterlimit:4;stroke-opacity:1;stroke-dasharray:none" />
      <path
         id="path3918"
         d="m 576.4691,458.15332 c 0.25258,0.91381 2.63268,0.21708 1.38021,1.20707 -0.75745,0.16626 -2.28628,-0.59753 -2.1269,-1.26657 0.25049,-0.0811 0.50126,0.0186 0.74669,0.0595 z"
         style="fill:#000000;fill-rule:evenodd;stroke:#000000;stroke-width:0.25;stroke-linecap:butt;stroke-linejoin:miter;stroke-miterlimit:4;stroke-opacity:1;stroke-dasharray:none" />
      <path
         id="path3920"
         d="m 572.11133,461.00097 c -0.94765,0.40112 -1.64447,2.41514 -2.06549,2.37451 -0.13533,-1.53863 1.51718,-2.53543 2.63999,-3.2111 1.60956,-0.12002 -0.41519,0.33799 -0.5745,0.83659 z"
         style="fill:#000000;fill-rule:evenodd;stroke:#000000;stroke-width:0.25;stroke-linecap:butt;stroke-linejoin:miter;stroke-miterlimit:4;stroke-opacity:1;stroke-dasharray:none" />
      <path
         id="path3922"
         d="m 572.80167,461.51873 c 1.11473,0.43167 2.68765,0.009 3.53884,-0.53756 -0.26947,-0.32751 -1.47646,-0.46881 -0.45168,-0.67183 0.55073,0.22843 1.61514,1.23185 0.46894,1.40107 -0.13783,1.52924 -2.4903,1.92548 -2.8987,0.38131 -0.22999,-0.16654 -0.61411,-0.23646 -0.6574,-0.57299 z"
         style="fill:#000000;fill-rule:evenodd;stroke:#000000;stroke-width:0.25;stroke-linecap:butt;stroke-linejoin:miter;stroke-miterlimit:4;stroke-opacity:1;stroke-dasharray:none" />
      <path
         id="path3924"
         d="m 570.86008,463.76234 c 1.07871,-0.15795 2.26598,-0.23711 3.28132,0.15377 0.47254,0.0174 2.67851,-0.37695 1.41365,0.34947 -1.46372,0.54241 -2.9264,-0.32361 -4.39895,-0.34721 l -0.153,-0.0623 -0.14302,-0.0937 0,0 z"
         style="fill:#000000;fill-rule:evenodd;stroke:#000000;stroke-width:0.25;stroke-linecap:butt;stroke-linejoin:miter;stroke-miterlimit:4;stroke-opacity:1;stroke-dasharray:none" />
      <path
         id="path3926"
         d="m 575.39044,464.97042 c -0.75257,0.40501 -2.58532,-0.49784 -2.68323,0.42477 0.56622,0.56869 3.0753,0.88815 2.68323,-0.42477 z"
         style="fill:#000000;fill-rule:evenodd;stroke:#000000;stroke-width:0.25;stroke-linecap:butt;stroke-linejoin:miter;stroke-miterlimit:4;stroke-opacity:1;stroke-dasharray:none" />
      <path
         id="path3928"
         d="m 576.94371,447.79821 c 1.07075,0.933 2.1671,1.95728 2.50496,3.39469 0.80946,1.46914 0.7982,3.19939 0.39055,4.78602 -0.0491,0.23493 -0.0967,0.47029 -0.13415,0.70742"
         style="fill:none;stroke:#000000;stroke-width:0.25;stroke-linecap:butt;stroke-linejoin:miter;stroke-miterlimit:4;stroke-opacity:1;stroke-dasharray:none" />
      <path
         id="path3930"
         d="m 579.57563,457.29039 c -0.19417,0.60518 -0.0645,1.2873 -0.38832,1.85529"
         style="fill:none;stroke:#000000;stroke-width:0.25;stroke-linecap:butt;stroke-linejoin:miter;stroke-miterlimit:4;stroke-opacity:1;stroke-dasharray:none" />
      <path
         id="path3932"
         d="m 579.9208,459.70657 c 0.30018,1.75532 -0.37899,3.51739 -1.50788,4.8482 -0.94679,1.31268 -1.88116,2.67934 -3.32694,3.48759 -1.43509,0.78973 -3.06934,-0.002 -4.39228,-0.65814 -1.3922,-0.58243 -2.55021,-1.72812 -3.50173,-2.89373 -0.0691,-0.67674 -0.61652,-1.1416 -0.90538,-1.72053"
         style="fill:none;stroke:#000000;stroke-width:0.25;stroke-linecap:butt;stroke-linejoin:miter;stroke-miterlimit:4;stroke-opacity:1;stroke-dasharray:none" />
      <path
         id="path3934"
         d="m 566.02771,462.72681 c 0.12972,0.89965 0.0779,1.81262 0.0863,2.71822"
         style="fill:none;stroke:#000000;stroke-width:0.25;stroke-linecap:butt;stroke-linejoin:miter;stroke-miterlimit:4;stroke-opacity:1;stroke-dasharray:none" />
      <path
         id="path3936"
         d="m 577.07314,447.92765 c -1.17188,0.80833 -2.36691,-0.66204 -3.62945,-0.32691 -1.42105,0.2258 -2.87844,-1.44021 -4.10056,-0.28183 -0.88231,1.13378 -2.23226,1.85526 -2.59201,3.34265 -0.5082,1.26221 -0.56959,2.59873 -0.34256,3.92396 -0.2938,1.32963 -0.85735,2.7328 -0.40416,4.10918 -0.30991,1.37095 0.65921,2.60621 0.68289,3.93927 -1.24281,0.55169 -1.78639,-1.78194 -1.61534,-2.81877 -0.38964,-1.09568 -1.0241,-2.08052 -0.50973,-3.30757 0.0709,-1.48217 -1.92951,-0.84089 -1.33145,0.42728 0.006,1.00462 1.08118,2.61701 1.10945,3.02091 -0.37054,-1.41925 -2.13385,-2.10371 -2.17209,-3.63935 -0.64265,-0.93059 0.7026,-1.16136 0.83723,-1.41019 -0.30068,-1.55516 0.3427,-3.07415 0.98588,-4.44977 0.36044,-1.51468 1.66138,-2.37526 2.72425,-3.36612 0.48757,-0.93571 0.72688,-1.74253 1.92106,-1.95586 1.55094,-0.77162 3.24072,0.0448 4.84932,0.12649 1.25201,0.0139 2.6266,1.10884 3.44168,1.46169 -0.10959,-1.72073 0.93337,0.74069 1.06876,1.28943 0.6132,1.27311 2.35945,1.57634 2.69309,3.10439 0.77279,1.08595 0.23325,2.53531 0.96773,3.59018 0.0583,1.16837 -0.73323,2.61088 -1.06459,3.8648 -0.0937,1.25359 -0.44711,2.43638 -0.69657,3.65479 0.13102,0.5933 -0.8177,1.6404 -0.61739,0.46072 0.66193,-1.39666 0.76223,-2.85266 0.98005,-4.33345 0.50759,-1.46455 -0.81937,-2.65345 -0.14226,-4.10883 0.33474,-1.86387 -0.73165,-3.55514 -1.78158,-4.99313 -0.32171,-0.49901 -0.61278,-1.19154 -1.26165,-1.32396 z"
         style="fill:#000000;fill-rule:evenodd;stroke:#000000;stroke-width:0.25;stroke-linecap:butt;stroke-linejoin:miter;stroke-miterlimit:4;stroke-opacity:1;stroke-dasharray:none" />
      <path
         id="path3938"
         d="m 565.38051,461.99333 c -0.83315,1.4499 0.26307,3.00087 1.14345,4.12774 1.04369,1.97822 2.4031,3.79129 4.1515,5.20258 0.41536,0.31808 0.58147,0.84676 0.96126,1.19737"
         style="fill:none;stroke:#000000;stroke-width:0.25;stroke-linecap:butt;stroke-linejoin:miter;stroke-miterlimit:4;stroke-opacity:1;stroke-dasharray:none" />
      <path
         id="path3940"
         d="m 569.47941,470.79516 c -1.03999,-0.65319 -2.05397,0.53621 -1.94158,1.55327"
         style="fill:none;stroke:#000000;stroke-width:0.25;stroke-linecap:butt;stroke-linejoin:miter;stroke-miterlimit:4;stroke-opacity:1;stroke-dasharray:none" />
      <path
         id="path3942"
         d="m 565.12163,462.12277 c -1.21659,0.60899 -1.36344,1.8654 -0.65961,2.92733 0.621,1.48785 1.06514,3.01623 1.37428,4.59114 0.33385,0.95428 0.75627,1.87955 1.18376,2.79348"
         style="fill:none;stroke:#000000;stroke-width:0.25;stroke-linecap:butt;stroke-linejoin:miter;stroke-miterlimit:4;stroke-opacity:1;stroke-dasharray:none" />
      <path
         id="path3944"
         d="m 564.30185,462.76996 c -1.34812,0.41273 -1.85681,1.9742 -3.1608,2.4946 -0.52675,0.29776 -1.08653,0.58996 -1.45584,1.08655"
         style="fill:none;stroke:#000000;stroke-width:0.25;stroke-linecap:butt;stroke-linejoin:miter;stroke-miterlimit:4;stroke-opacity:1;stroke-dasharray:none" />
      <path
         id="path3946"
         d="m 576.4691,467.21402 c -0.33192,1.51943 -1.41299,2.67947 -2.07794,4.03263 -0.18861,0.4465 -0.34352,0.90603 -0.51084,1.36066"
         style="fill:none;stroke:#000000;stroke-width:0.25;stroke-linecap:butt;stroke-linejoin:miter;stroke-miterlimit:4;stroke-opacity:1;stroke-dasharray:none" />
      <path
         id="path3948"
         d="m 577.28887,466.52368 c 0.92591,1.57727 0.2231,3.31942 -0.38358,4.82818 l -0.0479,0.26308"
         style="fill:none;stroke:#000000;stroke-width:0.25;stroke-linecap:butt;stroke-linejoin:miter;stroke-miterlimit:4;stroke-opacity:1;stroke-dasharray:none" />
      <path
         id="path3950"
         d="m 577.46146,469.19875 c -0.45291,1.38028 -1.79258,2.14272 -2.54563,3.32227"
         style="fill:none;stroke:#000000;stroke-width:0.25;stroke-linecap:butt;stroke-linejoin:miter;stroke-miterlimit:4;stroke-opacity:1;stroke-dasharray:none" />
      <path
         id="path3952"
         d="m 577.76349,465.7039 c 1.14347,1.04569 2.8998,0.95053 4.0213,1.99399 0.81393,0.54464 1.80014,0.71897 2.66637,1.15569"
         style="fill:none;stroke:#000000;stroke-width:0.25;stroke-linecap:butt;stroke-linejoin:miter;stroke-miterlimit:4;stroke-opacity:1;stroke-dasharray:none" />
      <path
         sodipodi:nodetypes="cccccccccccc"
         id="path3954"
         d="m 572.02504,467.86123 c 1.14519,-0.88747 2.89557,0.0163 3.88904,-1.18153 0.49547,-0.44299 1.66688,-1.928 1.95682,-1.38506 -0.682,1.42057 -1.52246,2.5179 -2.3784,4.0198 -0.70118,1.03741 -1.25653,3.73247 -2.14754,3.3549 -0.98522,-0.25908 -1.97723,0.0655 -2.28387,-1.09663 -0.88407,-0.81918 -1.89426,-1.79958 -2.68371,-2.69993 -0.38095,-0.47226 -0.7961,-1.25565 0.18748,-0.5192 0.63454,0.54724 2.20475,2.5351 2.67575,1.0534 -0.23624,-1.44017 -1.91206,-1.96842 -2.52269,-3.22922 -0.8344,-1.46001 0.96183,0.85599 1.57488,0.9563 0.54404,0.31371 1.1299,0.55156 1.73224,0.72717 z"
         style="fill:#000000;fill-rule:evenodd;stroke:#000000;stroke-width:0.25;stroke-linecap:butt;stroke-linejoin:miter;stroke-miterlimit:4;stroke-opacity:1;stroke-dasharray:none" />
      <path
         id="path3956"
         d="m 578.82033,450.18027 c 0.24589,1.63226 0.44385,3.42463 -0.42625,4.90603 0.51904,0.42448 2.22762,1.02908 1.90951,-0.31066 -0.32809,-1.23225 0.15123,-2.52224 -0.53619,-3.67724 -0.19784,-0.39979 -0.50825,-0.7777 -0.94707,-0.91813 z"
         style="fill:#000000;fill-rule:evenodd;stroke:#000000;stroke-width:0.25;stroke-linecap:butt;stroke-linejoin:miter;stroke-miterlimit:4;stroke-opacity:1;stroke-dasharray:none" />
      <path
         sodipodi:nodetypes="cccccccc"
         id="path3958"
         d="m 576.68436,461.86769 c 0.62158,0.7612 1.08422,2.45465 -0.49787,2.22646 -1.3239,0.44626 -0.57029,1.89192 -0.32253,2.69303 0.68699,-0.78689 1.46251,-1.59558 1.44746,-2.72594 0.56315,-1.28421 1.14076,1.44611 1.3563,0.0743 0.96534,-0.89496 1.84462,-3.69306 1.48087,-4.56539 -1.25935,0.18273 -1.61135,3.82866 -3.14182,2.37814 -0.11401,-0.0397 -0.18327,-0.2682 -0.32241,-0.0806 z"
         style="fill:#000000;fill-rule:evenodd;stroke:#000000;stroke-width:0.25;stroke-linecap:butt;stroke-linejoin:miter;stroke-miterlimit:4;stroke-opacity:1;stroke-dasharray:none" />
    </g>
  </g>
</svg>
