<?xml version="1.0" encoding="UTF-8" standalone="no"?>
<!-- Created with Inkscape (http://www.inkscape.org/) -->
<svg
   xmlns:dc="http://purl.org/dc/elements/1.1/"
   xmlns:cc="http://web.resource.org/cc/"
   xmlns:rdf="http://www.w3.org/1999/02/22-rdf-syntax-ns#"
   xmlns:svg="http://www.w3.org/2000/svg"
   xmlns="http://www.w3.org/2000/svg"
   xmlns:sodipodi="http://inkscape.sourceforge.net/DTD/sodipodi-0.dtd"
   xmlns:inkscape="http://www.inkscape.org/namespaces/inkscape"
   id="svg1658"
   sodipodi:version="0.32"
   inkscape:version="0.43"
   width="220pt"
   height="310pt"
   sodipodi:docbase="C:\foo\wikipedia\transfer"
   sodipodi:docname="Ali Esbati.svg"
   version="1.0">
  <metadata
     id="metadata1663">
    <rdf:RDF>
      <cc:Work
         rdf:about="">
        <dc:format>image/svg+xml</dc:format>
        <dc:type
           rdf:resource="http://purl.org/dc/dcmitype/StillImage" />
        <cc:license
           rdf:resource="http://web.resource.org/cc/PublicDomain" />
      </cc:Work>
      <cc:License
         rdf:about="http://web.resource.org/cc/PublicDomain">
        <cc:permits
           rdf:resource="http://web.resource.org/cc/Reproduction" />
        <cc:permits
           rdf:resource="http://web.resource.org/cc/Distribution" />
        <cc:permits
           rdf:resource="http://web.resource.org/cc/DerivativeWorks" />
      </cc:License>
    </rdf:RDF>
  </metadata>
  <defs
     id="defs1661" />
  <sodipodi:namedview
     inkscape:window-height="540"
     inkscape:window-width="812"
     inkscape:pageshadow="2"
     inkscape:pageopacity="0.0"
     borderopacity="1.0"
     bordercolor="#666666"
     pagecolor="#ffffff"
     id="base"
     inkscape:zoom="0.58115934"
     inkscape:cx="374.16525"
     inkscape:cy="258.57351"
     inkscape:window-x="176"
     inkscape:window-y="176"
     inkscape:current-layer="svg1658" />
  <path
     id="path1667"
     style="fill:#000000"
     d="M 2.5029011e-006,372.33435 C 2.5029011e-006,361.05935 0.3375025,351.83306 0.7500025,351.83147 C 1.1625025,351.82989 2.4000025,350.47106 3.5000025,348.81185 C 4.6000025,347.15264 7.5250025,344.81737 10.000003,343.62238 C 12.475003,342.42738 14.950003,340.91087 15.500003,340.25234 C 16.050003,339.59382 18.231003,338.50612 20.346673,337.83524 C 22.462333,337.16435 26.980093,334.70755 30.386133,332.37568 C 33.792183,330.04381 38.136173,327.82896 40.039473,327.45378 C 41.942763,327.07861 46.626423,325.09825 50.447593,323.053 C 56.558933,319.78195 57.730613,318.67233 60.181823,313.83435 C 61.714463,310.80935 64.345183,307.08565 66.027863,305.55946 C 67.710533,304.03327 68.828863,302.36646 68.513043,301.85545 C 67.600203,300.37845 69.088633,295.83435 70.485263,295.83435 C 71.936843,295.83435 75.450893,288.05926 76.388163,282.77374 C 77.214333,278.11481 83.020163,268.45415 85.252253,268.02429 C 86.690873,267.74723 87.000003,268.42709 87.000003,271.86806 C 87.000003,278.72935 92.195493,288.29081 100.13242,296.03614 C 103.90959,299.72212 107,302.9812 107,303.27853 C 107,304.64934 117.73275,315.83435 119.04814,315.83435 C 119.57166,315.83435 120,316.28435 120,316.83435 C 120,317.38435 121.14473,317.83435 122.54384,317.83435 C 124.35779,317.83435 125.00337,318.30669 124.79384,319.48061 C 124.63223,320.38605 125.0625,321.32355 125.75,321.56394 C 126.4375,321.80433 127,321.51352 127,320.91768 C 127,320.32185 128.15714,319.83435 129.57143,319.83435 C 130.98571,319.83435 132.67321,319.25971 133.32143,318.55736 C 135.56348,316.12809 138.68556,311.31905 140.47449,307.53928 C 142.25009,303.78766 149.50167,297.83435 152.29582,297.83435 C 155.32993,297.83435 168.30815,290.44504 172.22822,286.4856 C 174.4887,284.20241 176.5996,282.3312 176.91909,282.32736 C 177.98799,282.31449 195.62077,266.50588 198.27208,263.18341 C 200.59415,260.27353 202.34026,250.58905 201.52412,245.1466 C 200.70867,239.70885 202.38596,239.41378 206.7639,244.22482 C 208.4608,246.08958 210.67842,248.22708 211.69196,248.97482 C 212.7055,249.72256 214.29834,251.53144 215.23159,252.99455 C 216.16485,254.45766 220.30879,257.52075 224.44034,259.80142 C 228.5719,262.08209 232.21514,264.37344 232.53644,264.89332 C 232.85774,265.41319 235.74961,267.14292 238.96282,268.73716 C 248.33927,273.3893 254.28501,276.96256 257.5,279.87761 C 261.83801,283.81089 268.06102,287.47274 272.84115,288.9049 L 277,290.15093 L 277,341.49264 L 277,392.83435 L 138.5,392.83435 L 2.5029011e-006,392.83435 L 2.5029011e-006,372.33435 z M 120.30675,265.13243 C 108.09339,261.8324 104.2884,260.4043 101.5,258.07382 C 96.896603,254.22642 93.775143,249.2958 93.318293,245.15014 C 93.090583,243.08384 92.363323,241.03393 91.702143,240.59479 C 90.818143,240.00765 90.977163,239.43113 92.303003,238.41635 C 93.640923,237.39232 93.769893,236.91357 92.803003,236.56035 C 91.803603,236.19526 91.773043,235.79383 92.671853,234.83749 C 93.316373,234.15172 93.605733,232.97047 93.314863,232.21249 C 92.961793,231.2924 93.569403,230.80811 95.143013,230.7554 C 96.546453,230.70839 96.893153,230.47406 96.000003,230.17617 C 95.175003,229.90102 93.825003,229.45312 93.000003,229.18083 C 91.802113,228.78548 91.963013,228.30801 93.798863,226.81019 C 95.063243,225.77863 96.638243,225.14199 97.298863,225.39545 C 98.597733,225.89377 98.702723,230.21732 97.487213,233.15157 C 96.371903,235.84395 98.519233,237.61569 101.01139,236.05931 C 102.0902,235.38558 105.90397,234.83435 109.48643,234.83435 C 113.16214,234.83435 116,234.39867 116,233.83435 C 116,233.28435 116.675,232.83435 117.5,232.83435 C 120.61037,232.83435 118.79304,231.14657 112.83475,228.50164 C 108.52756,226.58966 106.98605,225.4483 107.71985,224.7145 C 108.45365,223.9807 109.7843,224.19486 112.1351,225.42511 C 114.25078,226.53231 118.60458,227.35515 123.86249,227.64151 C 130.74931,228.01659 133.43835,227.69174 139.10111,225.80058 C 142.88298,224.53758 146.86355,222.67849 147.94681,221.66928 C 150.30717,219.47027 151.37431,219.37552 152.91207,221.2284 C 153.80327,222.30223 153.71654,222.97495 152.53452,224.15698 C 151.69053,225.00096 151,226.11515 151,226.63296 C 151,227.15077 148.8625,228.15229 146.25,228.85856 C 140.03146,230.5397 139.69776,230.76525 141.03866,232.38093 C 142.17705,233.75261 147.92931,233.33621 149,231.80461 C 149.275,231.41123 151.46052,231.09336 153.85671,231.09823 C 158.15101,231.10695 161.71687,228.72259 158.47367,228.01103 C 156.82933,227.65026 156.43417,225.83435 158,225.83435 C 158.55,225.83435 159,224.68279 159,223.27533 C 159,221.82397 159.43284,220.98383 160,221.33435 C 160.55,221.67427 161,221.25083 161,220.39337 C 161,219.53591 161.36714,218.83435 161.81586,218.83435 C 163.28164,218.83435 167.04483,226.61408 166.97936,229.50898 C 166.94422,231.06294 167.11965,233.56991 167.36921,235.08005 C 167.61876,236.59018 167.40544,238.08377 166.89516,238.39914 C 166.38488,238.71452 166.31222,239.50395 166.73369,240.15345 C 167.15516,240.80294 167.5,242.23435 167.5,243.33435 C 167.5,244.68438 168.06872,245.23886 169.25,245.04051 C 170.2125,244.8789 171,245.2715 171,245.91296 C 171,246.7991 171.33891,246.79797 172.41097,245.90824 C 173.35391,245.12566 174.03271,245.07826 174.45733,245.76531 C 175.23752,247.02769 179,244.91026 179,243.20881 C 179,242.57937 180.09087,241.3496 181.42416,240.476 C 182.75744,239.6024 184.15916,237.86314 184.53909,236.61099 C 184.91902,235.35884 186.17721,233.2999 187.33506,232.03558 C 188.49292,230.77126 189.4537,228.86456 189.47013,227.79847 C 189.50847,225.31065 191.12844,225.05612 192.46369,227.32813 C 193.21748,228.61077 193.15923,229.21547 192.25,229.54625 C 191.5625,229.79637 190.99972,230.97602 190.99937,232.16768 C 190.99797,236.98717 172.55548,255.70855 167.71862,255.80049 C 166.73885,255.81911 165.67821,256.50935 165.36163,257.33435 C 165.04504,258.15935 164.265,258.83435 163.6282,258.83435 C 162.9914,258.83435 160.79118,259.73435 158.73882,260.83435 C 156.68645,261.93435 154.13218,262.83435 153.06264,262.83435 C 151.99311,262.83435 150.87586,263.2262 150.57987,263.70512 C 149.17359,265.98053 127.26796,267.01333 120.30675,265.13243 z M 171,248.83435 C 171,248.28435 170.55,247.83435 170,247.83435 C 169.45,247.83435 169,248.28435 169,248.83435 C 169,249.38435 169.45,249.83435 170,249.83435 C 170.55,249.83435 171,249.38435 171,248.83435 z M 94.545003,220.58435 C 94.918883,219.34685 95.624213,217.90685 96.112393,217.38435 C 97.272143,216.14307 97.265213,206.1163 96.104113,205.39869 C 94.697453,204.52933 96.522343,198.23961 99.133743,194.95668 C 100.43518,193.32057 102.72254,191.45033 104.21675,190.80059 C 105.71096,190.15086 107.19669,188.79 107.51838,187.77645 C 108.27258,185.40015 114.04214,181.83435 117.13284,181.83435 C 118.45107,181.83435 121.24511,182.7538 123.34183,183.87757 L 127.15404,185.92079 L 131.69575,182.91249 C 136.01849,180.04922 143,178.86583 143,180.99638 C 143,181.45726 143.5109,181.83435 144.13533,181.83435 C 144.75976,181.83435 146.22915,182.84685 147.40064,184.08435 C 148.57213,185.32185 151.06854,187.45935 152.94821,188.83435 C 154.82789,190.20935 157.90959,192.80294 159.79643,194.59788 C 163.14482,197.78317 163.21064,197.99895 162.54211,203.59788 C 161.8251,209.60277 160.19246,211.84606 156.55887,211.81904 C 155.37199,211.81021 154.95442,211.49256 155.57294,211.06904 C 156.94173,210.13177 158.18492,206.83435 157.1695,206.83435 C 156.74725,206.83435 155.86547,205.35123 155.20999,203.53853 C 153.56438,198.98768 148.8841,197.34989 137.5,197.34121 C 132.55,197.33744 127.96739,196.98877 127.31643,196.56639 C 126.66546,196.14401 124.20704,196.46192 121.85328,197.27286 C 118.62843,198.38391 116.5158,198.51021 113.28122,197.78532 C 109.54689,196.94844 108.54014,197.11664 105.53888,199.07885 C 101.16817,201.93642 99.990483,204.47786 101.29497,208.23726 C 102.07491,210.48496 101.97713,211.38779 100.86178,212.23726 C 100.06952,212.84066 99.351393,214.38787 99.265933,215.67551 C 99.082983,218.43234 96.404223,222.83435 94.909563,222.83435 C 94.291793,222.83435 94.142893,221.91531 94.545003,220.58435 z M 130,218.01341 C 130,217.51553 127.1875,216.86491 123.75,216.56759 C 117.67889,216.04248 111.5364,213.74389 109.5,211.23506 C 108.95,210.55747 107.6,209.84644 106.5,209.65501 C 103.42978,209.12071 104.56354,207.47984 109.03211,205.99031 C 112.91729,204.69525 113.13858,204.7408 115.10469,207.24031 C 116.22695,208.66703 117.7875,209.83435 118.57258,209.83435 C 119.35766,209.83435 120,210.28656 120,210.83927 C 120,212.45291 131.83907,211.74198 137.36311,209.79662 C 140.12527,208.82389 142.94065,207.26843 143.61951,206.34003 C 144.69636,204.86734 145.34145,204.80922 148.6769,205.8844 C 150.77961,206.56221 153.12917,207.28969 153.89814,207.50103 C 154.99264,207.80183 154.88405,208.28151 153.39814,209.70974 C 151.94956,211.1021 151.42342,211.21449 151.17668,210.18428 C 150.99885,209.44182 150.40602,208.83435 149.85929,208.83435 C 149.31255,208.83435 149.13175,209.67409 149.4575,210.70044 C 149.95291,212.26134 149.63111,212.48649 147.48984,212.07716 C 145.89731,211.77273 144.21117,212.23825 143.02797,213.30904 C 141.9819,214.25572 140.63421,214.72632 140.03311,214.35481 C 139.43201,213.98331 136.92865,214.8582 134.4701,216.29901 C 132.01154,217.73981 130,218.5113 130,218.01341 z M 62.473293,197.67474 C 59.838983,196.44416 55.259353,186.58422 54.651463,180.83435 C 54.389793,178.35935 53.436053,171.83435 52.532043,166.33435 C 51.628023,160.83435 50.615043,153.85935 50.280973,150.83435 C 49.946903,147.80935 48.865973,143.98435 47.878913,142.33435 C 44.290403,136.33571 43.172753,133.22019 42.497863,127.33435 C 42.119483,124.03435 41.547893,119.53435 41.227683,117.33435 C 39.786933,107.4358 40.617963,93.726079 43.561403,78.834349 C 44.376743,74.709349 45.169393,70.629459 45.322853,69.767929 C 45.567163,68.396379 50.362103,59.074199 53.004063,54.834349 C 53.518143,54.009349 54.778013,51.534349 55.803793,49.334349 C 59.013923,42.449499 68.314413,32.486909 75.961033,27.742109 C 88.607243,19.895019 97.216333,15.871529 101.59649,15.761269 C 104.62311,15.685079 106.78814,14.518869 113.99197,9.0843485 C 119.46806,4.9532285 122.80746,4.9179385 127.1191,8.9456085 C 130.21548,11.838069 130.81553,12.013869 135.65159,11.445479 C 147.57249,10.044419 167.14324,15.728429 175.9694,23.155149 C 177.47569,24.422619 182.2877,27.321939 186.66275,29.598089 C 195.89407,34.400749 203.27454,41.603309 207.40264,49.838039 C 208.91807,52.861009 210.7527,56.009349 211.47959,56.834349 C 212.20649,57.659349 213.26427,59.909349 213.83022,61.834349 C 214.39618,63.759349 216.00276,68.070039 217.40041,71.413649 C 220.21648,78.150549 222.84456,92.834719 223.02389,102.83435 C 223.17454,111.23488 221.94139,124.83435 221.02901,124.83435 C 220.06228,124.83435 217.79253,129.96021 218.46256,130.63024 C 218.75815,130.92584 219,130.67483 219,130.07245 C 219,128.45292 222.01646,125.72649 223.08062,126.38418 C 224.12254,127.02812 224.11975,139.77738 223.07669,144.33435 C 222.45749,147.03957 222.32014,147.12915 221.67893,145.24601 C 220.42282,141.55703 220.18424,133.39641 221.27221,131.33435 C 222.21646,129.54469 222.15247,129.47869 220.66372,130.70679 C 219.74867,131.46164 218.95514,133.26164 218.90032,134.70679 L 218.80064,137.33435 L 218.07675,134.83435 L 217.35286,132.33435 L 216.57437,134.69359 C 216.1462,135.99117 215.64602,139.14117 215.46284,141.69359 C 215.27967,144.24601 214.84537,148.35935 214.49773,150.83435 C 213.90701,155.03989 213.96845,155.207 215.43657,153.3881 C 217.22833,151.16824 218.5245,151.9808 219.50032,155.93564 C 220.00989,158.00082 219.56076,159.03317 217.32108,160.94476 C 213.42202,164.27264 210.02654,172.60537 209.98403,178.95037 C 209.97524,180.26156 208.66993,182.80664 207.08334,184.60611 C 205.21691,186.72297 204.38123,188.57618 204.71594,189.85611 C 205.02322,191.03114 204.73645,191.83435 204.00964,191.83435 C 203.33665,191.83435 203.04048,191.17125 203.35148,190.3608 C 203.66248,189.55034 203.21157,188.4925 202.34945,188.01004 C 201.10894,187.31581 200.71615,184.86174 200.4664,176.24518 C 200.29284,170.25698 200.50825,164.90232 200.94509,164.34594 C 203.71567,160.81726 204.84469,149.71395 203.48834,139.33435 C 203.20086,137.13435 202.77327,130.4263 202.53815,124.42756 C 202.30303,118.42883 201.67304,113.25031 201.13818,112.91975 C 200.60331,112.58918 200.28459,110.74724 200.42991,108.82654 C 200.77562,104.25715 200.18726,102.83435 197.95203,102.83435 C 196.94333,102.83435 195.83992,102.38435 195.5,101.83435 C 195.16008,101.28435 195.33704,100.83435 195.89323,100.83435 C 197.2834,100.83435 192.91414,96.337749 190.75,95.541219 C 188.89169,94.857259 188.32283,92.834349 189.9888,92.834349 C 190.53264,92.834349 190.92175,91.821849 190.85349,90.584349 C 190.78522,89.346849 191.04594,87.592369 191.43286,86.685509 C 191.81978,85.778639 191.71641,84.777119 191.20316,84.459909 C 190.6899,84.142699 190.45336,80.834679 190.67752,77.108759 C 191.02455,71.340279 190.88694,70.580299 189.7508,71.990659 C 188.77983,73.195979 187.94925,73.385459 186.70035,72.686539 C 185.75645,72.158299 184.53772,72.002019 183.99208,72.339249 C 183.44644,72.676479 183,72.277389 183,71.452389 C 183,69.796049 181.1972,68.303819 180.29097,69.210049 C 179.97418,69.526839 180.25484,70.436489 180.91465,71.231509 C 181.91092,72.431939 181.75253,72.582399 179.98043,72.118989 C 178.8068,71.812069 177.45262,70.524839 176.97115,69.258459 C 176.48967,67.992079 175.18432,66.468179 174.07037,65.872019 C 172.40546,64.980979 172.14903,65.059149 172.62949,66.311219 C 173.43228,68.403249 172.32967,68.219399 169.76963,65.834349 C 167.21169,63.451279 166,63.290559 166,65.334349 C 166,66.159349 166.525,66.834349 167.16667,66.834349 C 167.80833,66.834349 168.03156,67.136129 167.66272,67.504959 C 167.29389,67.873799 165.98139,67.265739 164.74606,66.153729 C 161.01264,62.792999 159.54724,62.209959 160.38931,64.420309 C 160.97425,65.955729 160.86939,66.087089 159.85925,65.084349 C 159.16666,64.396849 157.75968,63.834349 156.73261,63.834349 C 155.25468,63.834349 155.01167,64.303599 155.56739,66.084349 C 155.95359,67.321849 156.77141,68.664959 157.38478,69.069039 C 158.14694,69.571139 158.07396,69.808579 157.15429,69.819039 C 155.64706,69.836189 150.4494,67.127599 147.69238,64.888279 C 146.69819,64.080779 144.67319,63.267979 143.19238,63.082059 C 141.71157,62.896139 139.9375,62.003339 139.25,61.098059 C 138.20156,59.717509 138,59.694379 138,60.954659 C 138,61.781079 138.91753,63.442079 140.03896,64.645789 C 141.16038,65.849499 141.82927,66.834349 141.52539,66.834349 C 140.44934,66.834349 136.5788,64.303909 134.25985,62.084349 C 131.60577,59.544029 130.86359,59.370759 129.30644,60.927909 C 128.55297,61.681389 128.51344,63.110009 129.17934,65.521689 C 130.4205,70.016809 129.33794,71.189909 127.77346,67.045139 C 126.55875,63.826999 123.82113,61.870979 123.18841,63.769139 C 122.94571,64.497219 122.22573,64.490339 120.83614,63.746659 C 119.2812,62.914479 118.42075,63.048599 116.98636,64.346699 C 115.24158,65.925699 115.16945,65.902389 115.68618,63.926399 C 116.33429,61.448029 115.05258,61.288709 108.24869,63.001949 C 104.916,63.841129 103.50905,63.861519 103.24669,63.074429 C 102.83914,61.851789 96.104823,62.541089 94.550003,63.964589 C 94.027503,64.442959 91.266443,64.834349 88.414303,64.834349 C 80.680643,64.834349 72.948973,69.633639 69.919193,76.314839 C 68.467793,79.515439 67.980773,79.947819 67.433503,78.521669 C 66.806943,76.888869 66.612103,76.875419 64.980153,78.352309 C 63.821623,79.400779 63.078263,79.569139 62.834633,78.838259 C 62.266513,77.133899 59.172603,78.740099 58.330183,81.176739 C 56.917803,85.261919 56.719563,154.21004 58.097403,162.13354 C 58.652053,165.32309 60.901753,174.2873 63.096743,182.054 C 66.344603,193.54615 66.846753,196.403 65.793823,197.39838 C 64.906383,198.23731 63.863423,198.32411 62.473293,197.67474 z M 125.80309,11.364599 C 126.09472,11.072959 124.93489,10.834349 123.22568,10.834349 C 121.51648,10.834349 119.85964,11.252449 119.54382,11.763459 C 118.95644,12.713849 124.82799,12.339699 125.80309,11.364599 z M 115.02896,175.87341 C 114.21989,175.36174 113.81798,174.68304 114.13583,174.36518 C 114.92358,173.57743 118,174.83227 118,175.94134 C 118,177.08112 116.89882,177.05595 115.02896,175.87341 z M 135,175.75452 C 135,174.62328 139.15794,171.83435 140.84448,171.83435 C 142.016,171.83435 142.00074,172.20082 140.75078,174.08435 C 139.33543,176.2171 135,177.47622 135,175.75452 z M 151,139.2722 C 151,138.48138 150.33912,137.83435 149.53138,137.83435 C 148.63679,137.83435 148.28775,137.24806 148.63837,136.33435 C 149.07391,135.19936 148.45791,134.83435 146.10699,134.83435 C 142.68251,134.83435 142.52235,134.59537 144.04282,131.75433 C 144.80433,130.33145 144.77061,129.87709 143.91782,130.07008 C 141.35813,130.64933 142.10058,127.87011 145.45596,124.31236 C 147.40518,122.24559 149,120.43476 149,120.28831 C 149,120.14185 146.78601,119.71752 144.08003,119.34536 C 139.12668,118.6641 134.83038,115.67525 136.93486,114.37461 C 137.52069,114.01255 138,114.41787 138,115.27533 C 138,116.13279 138.45,116.83435 139,116.83435 C 139.55,116.83435 140,116.48137 140,116.04996 C 140,114.93949 145.71409,111.69799 147.23452,111.94594 C 149.66807,112.34279 161.04956,110.56318 161.58139,109.70265 C 161.87655,109.22509 163.35547,108.83435 164.86789,108.83435 C 166.38031,108.83435 168.45572,108.22161 169.47991,107.4727 C 170.5041,106.72379 172.16751,106.3269 173.17637,106.59072 C 174.18522,106.85454 175.65449,106.53606 176.4414,105.88298 C 177.48219,105.01921 178.41678,104.98704 179.87034,105.76496 C 180.96934,106.35312 182.54992,106.83435 183.38274,106.83435 C 184.21556,106.83435 186.10175,107.95092 187.57428,109.31561 C 189.04682,110.68031 190.69321,111.52396 191.23294,111.19038 C 191.8207,110.82713 191.95824,111.39057 191.57588,112.59526 C 191.14452,113.95435 191.75591,115.57925 193.46117,117.60584 L 195.98484,120.60505 L 193.76932,121.18442 C 192.34215,121.55764 190.83257,121.08839 189.5269,119.86568 C 185.18407,115.7988 183.59111,115.66462 166.5,117.92597 C 153.93046,119.58906 153.12684,120.51093 163.56261,121.29557 C 172.42732,121.96208 178,123.34267 178,124.87234 C 178,125.30978 177.46049,125.84752 176.8011,126.06732 C 175.98478,126.33942 176.30006,127.44701 177.7891,129.53817 C 180.28185,133.03892 179.25112,134.87609 174.9405,134.61551 C 173.59822,134.53437 167.56237,134.55041 161.52749,134.65116 C 151.28525,134.82216 150.7029,134.93795 152.77749,136.39105 C 155.54085,138.32658 155.64938,140.35983 153,140.5594 C 151.85746,140.64546 151,140.0936 151,139.2722 z M 169.87812,131.93084 C 170.63608,131.45075 170.94702,130.55765 170.5691,129.94615 C 169.46543,128.16039 167.27783,128.66391 166.71025,130.83435 C 166.15736,132.94862 167.52426,133.42175 169.87812,131.93084 z M 154.30718,129.90099 C 153.87611,128.25261 153.44771,128.12887 151.4008,129.0615 C 148.1425,130.54608 148.37739,131.83435 151.90638,131.83435 C 154.28704,131.83435 154.72131,131.48463 154.30718,129.90099 z M 172.87188,124.73401 C 172.11735,124.25604 170.375,123.87695 169,123.89158 C 166.67848,123.91628 166.74988,124.05195 170,125.79192 C 172.1123,126.92274 173.64745,127.25675 173.87188,126.63435 C 174.07642,126.06713 173.62642,125.21198 172.87188,124.73401 z M 101.5539,136.05492 C 101.2827,135.78371 95.647123,135.63753 89.030403,135.73007 C 82.008863,135.82826 77.000003,135.50411 77.000003,134.9515 C 77.000003,133.33661 86.625953,126.84408 91.687783,125.04485 L 96.500003,123.33435 L 92.562633,123.01281 C 90.397083,122.83597 86.710313,123.17347 84.369813,123.76281 C 82.029313,124.35216 78.828633,124.83435 77.257183,124.83435 C 75.685733,124.83435 73.972503,125.24733 73.450003,125.75208 C 72.262243,126.8995 63.000003,128.31773 63.000003,127.35219 C 63.000003,126.15848 66.385193,120.83435 67.144183,120.83435 C 67.536313,120.83435 68.451783,120.24162 69.178573,119.51718 C 71.571763,117.1317 79.357313,115.57635 88.500003,115.65726 C 93.450003,115.70107 100.425,115.76572 104,115.80094 C 108.05696,115.84091 109.98766,116.18957 109.13685,116.72861 C 108.04966,117.41741 108.03489,117.67931 109.0639,118.02232 C 111.23354,118.74553 109.05577,120.83435 106.13211,120.83435 C 104.61969,120.83435 102.58224,121.41934 101.60443,122.13433 C 99.947863,123.34564 100.00304,123.51471 102.4133,124.61289 C 103.83598,125.26111 105,126.33462 105,126.99846 C 105,127.6623 105.96605,129.23376 107.14677,130.49058 C 108.84308,132.29622 109.04651,133.07339 108.11623,134.1943 C 106.9011,135.65844 102.4262,136.92721 101.5539,136.05492 z M 90.183573,132.93292 C 91.719363,131.13925 91.661123,131.00172 89.155813,130.50611 C 86.258913,129.93304 81.564753,132.32108 82.527153,133.87828 C 83.547203,135.52876 88.482733,134.91935 90.183573,132.93292 z M 102.85676,131.94404 C 103.80257,131.34474 103.87829,130.87716 103.10676,130.40033 C 101.83834,129.6164 100,130.49987 100,131.89337 C 100,133.05612 101.07167,133.07513 102.85676,131.94404 z " />
</svg>
