<?xml version="1.0" encoding="UTF-8" standalone="no"?>
<svg
   xmlns:dc="http://purl.org/dc/elements/1.1/"
   xmlns:cc="http://creativecommons.org/ns#"
   xmlns:rdf="http://www.w3.org/1999/02/22-rdf-syntax-ns#"
   xmlns:svg="http://www.w3.org/2000/svg"
   xmlns="http://www.w3.org/2000/svg"
   version="1.1">
<metadata>
    <rdf:RDF xmlns:cc="http://web.resource.org/cc/" xmlns:dc="http://purl.org/dc/elements/1.1/" xmlns:rdf="http://www.w3.org/1999/02/22-rdf-syntax-ns#">
      <cc:Work rdf:about="">
        <dc:title>Jim Morrison</dc:title>
        <dc:description>Jim Morrison Portrait</dc:description>
        <dc:subject>
          <rdf:Bag>
            <rdf:li>jim</rdf:li>
            <rdf:li>morrison</rdf:li>
            <rdf:li>portrait</rdf:li>
            <rdf:li>people</rdf:li>
            <rdf:li>music</rdf:li>
            <rdf:li>the doors</rdf:li>
            <rdf:li>head</rdf:li>
          </rdf:Bag>
        </dc:subject>
        <dc:publisher>
          <cc:Agent rdf:about="http://www.openclipart.org">
            <dc:title>Open Clip Art Library</dc:title>
          </cc:Agent>
        </dc:publisher>
        <dc:creator>
          <cc:Agent>
            <dc:title>Jakub Jankiewicz</dc:title>
          </cc:Agent>
        </dc:creator>
        <dc:rights>
          <cc:Agent>
            <dc:title>Jakub Jankiewicz</dc:title>
          </cc:Agent>
        </dc:rights>
        <dc:date></dc:date>
        <dc:format>image/svg+xml</dc:format>
        <dc:type rdf:resource="http://purl.org/dc/dcmitype/StillImage"/>
        <cc:license rdf:resource="http://web.resource.org/cc/PublicDomain"/>
        <dc:language>pl</dc:language>
      </cc:Work>
      <cc:License rdf:about="http://web.resource.org/cc/PublicDomain">
        <cc:permits rdf:resource="http://web.resource.org/cc/Reproduction"/>
        <cc:permits rdf:resource="http://web.resource.org/cc/Distribution"/>
        <cc:permits rdf:resource="http://web.resource.org/cc/DerivativeWorks"/>
      </cc:License>
    </rdf:RDF>
  </metadata>
  <g id="layer1">
    <path
       style="fill:#000000;fill-opacity:1;stroke:#000000;stroke-width:0.30000001;stroke-linecap:butt;stroke-linejoin:miter;stroke-miterlimit:4;stroke-opacity:1;stroke-dasharray:none"
       d="M 84.275,0.15000001 C 79.75495,5.74245 70.12603,17.85346 66.55625,23.93125 61.83157,31.97532 59.38348,38.90929 57.4625,44.4625 c -1.92098,5.55321 -1.74029,7.30862 -3.15625,12.40625 -1.41596,5.09764 3.03125,13.375 3.03125,13.375 l -5.6875,9.1875 c -8.27211,-4.11962 -12.25107,-7.00607 -18.03125,-18.5625 2.71933,10.67617 7.1832,17.02738 17.4375,20.90625 l -3.71875,6.40625 c -2.80486,0.78723 -4.81351,-3.2958 -7.0625,-5.84375 1.5768,5.18202 3.14195,7.24571 4.71875,9.5 1.01518,3.667 0.69211,7.06195 -1.3125,10.125 -8.99485,-1.18895 -9.42408,-10.53085 -11.75,-18.65625 -3.07776,15.48209 7.82764,18.21274 12.46875,30.90625 -3.48481,4.07767 -8.53176,-3.04681 -12.59375,-8.78125 2.16941,6.6912 4.93881,14.29866 16.34375,16 -5.65244,1.47878 -13.71799,1.96953 -19.34375,-0.0625 C 23.18049,119.3367 18.4583,118.8817 12.7125,109.775 c 1.64173,6.42004 0.21688,12.32723 15.375,21 l 6.15625,8.3125 c -5.54237,3.73254 -6.81266,10.4063 -4.65625,19.46875 -7.78527,6.59653 -18.80291,8.67376 -29.43749999,11.28125 C 8.56646,169.24086 22.48594,168.55159 36.8375,158.36875 35.84796,166.90832 29.35845,171.95712 21.93125,176.4 c -3.42656,0.81181 -6.2071,-0.93342 -9.0625,-2.40625 1.92201,2.01109 3.73113,4.14826 6.21875,5.59375 -2.03863,4.76066 -8.46249,6.89493 -13.15625,10.0625 6.2091,-2.62988 13.47041,-4.73348 16.34375,-9.03125 l 6.4375,0.96875 c -0.91022,7.79549 -0.39034,15.87115 0.59375,24.5 0.98408,8.62885 -1.02159,24.76447 9.40625,39.25 0.95346,0.8339 -5.82718,0.38315 -11.78125,-5.6875 1.66519,3.75014 3.96724,6.45623 7.40625,7.25 -4.91468,2.19132 -11.24647,-1.30469 -17.28125,-3.59375 4.68904,3.7339 8.06334,8.0041 22.4375,7.75 l 1.84375,3.90625 c -4.07156,2.50056 -7.77686,5.27183 0.90625,16.46875 -5.23976,-1.29561 -10.22871,-1.67216 -16.59375,-6.90625 0.67799,3.0991 2.40611,5.57311 6.34375,7.6875 -3.41179,-0.5877 -5.48678,2.43109 -13.9375,-11.59375 2.14538,8.90384 8.56441,16.63784 17.53125,23.25 l -0.96875,6.96875 c -4.83795,-1.28081 -9.38286,-1.60051 -15.5,-13.78125 1.34976,6.76715 5.34104,12.87265 16.125,17.28125 9.25972,18.60402 28.26355,20.81239 48.625,20.71875 0.27156,10.82382 1.22414,21.73806 7.625,33.4375 -2.41942,2.04407 -6.01613,2.40978 -11.90625,-0.375 3.75023,4.04806 10.33992,5.51466 13.0625,3.09375 2.09773,2.95345 3.8736,7.05224 6.28125,8.875 2.40765,1.82277 5.43868,1.37042 8.15625,2.0625 1.11651,2.03542 2.50442,5.80441 4.15625,6.125 1.65183,0.32059 2.81441,-0.92727 3.8125,-2.1875 2.13709,3.31009 5.32697,6.46724 8.1875,7.625 2.33354,0.94446 4.38193,0.11153 5.84375,0.625 1.65638,0.31586 3.90896,3.35303 6.5,2.84375 2.24605,-0.44147 4.04668,-3.07123 5.53125,-3.125 2.69425,-0.0976 3.24165,0.90549 4.6875,1.75 -8.73915,5.231 -18.14582,9.79029 -25.21875,16.6875 -5.71489,-1.9692 -14.45222,-4.21502 -17.125,-5.90625 -2.9065,-1.83912 -9.37958,-0.16035 -2.3125,2.875 7.06707,3.03536 29.10208,11.35361 37,27.84375 1.37401,-5.68762 1.56013,-11.33559 5.125,-14.71875 3.56487,-3.38316 10.89587,-2.56527 16.28125,-8.21875 5.38538,-5.65348 5.68705,-16.05165 8.21875,-25.84375 2.5317,-9.79211 0.79325,-18.68532 -3.0625,-29.15625 -3.89704,-10.58306 -4.09375,-37.65625 -4.09375,-37.65625 -2.14181,-4.51144 -6.35039,-6.14775 -13.28125,-16.34375 -6.93086,-10.19601 -10.37076,-22.92838 -9.96875,-31.96875 0.77479,-17.42361 -1.80578,-42.43023 -1.5,-49 0.7266,-15.61121 6.8133,-24.30992 7.09375,-48.71875 0.11607,-10.1017 7.54491,-31.88878 9.84375,-28.65625 L 162.9,124.43125 149.11875,141.9 175.4,126.0875 c 0,0 -0.15384,-7.85338 2.625,-14.71875 2.60921,-6.44629 11.90625,-16.67068 20.40625,-20.59375 1.96153,3.92307 2.1274,13.23559 0.65625,17.8125 -1.47115,4.57692 -3.10271,8.14352 -7.34375,10.46875 -3.78408,2.07469 -9.12711,-1.08387 -11.59375,-6.71875 -0.05,7.07138 1.45828,13.49043 6.6875,14.25 5.50235,0.79924 8.51443,-1.8101 12.4375,-5.40625 3.92307,-3.59615 8.46134,-8.78353 12.25,-15.84375 -2.47967,12.66427 -9.90525,21.24526 -19.625,27.28125 0,0 10.31251,-5.56731 14.5625,-11.125 4.25,-5.55768 8.65625,-17.96875 8.65625,-17.96875 2.63524,-1.20787 4.23506,-4.06499 6.28125,-5.625 -1.2157,6.78578 -1.25997,13.48814 1.5625,19.375 3.6235,7.5576 6.92497,12.82547 13.34375,18.3125 -7.86819,-8.48936 -9.27413,-13.81856 -11.5,-19.875 -2.22587,-6.05644 -1.22258,-10.98172 -1.84375,-16.46875 l 3.09375,-0.625 c 0.31059,9.11053 3.46312,15.31973 9.3125,19.875 5.84938,4.55527 11.48916,7.52816 19.875,8.71875 8.38583,1.19058 16.66881,4.74512 25.46875,12.40625 -6.1082,-7.76466 -10.32739,-10.87437 -16.125,-15.84375 8.2823,2.07057 15.16444,6.99267 19.875,10.875 3.08778,2.54488 4.1663,5.70313 5.21875,8.75 -0.62545,0.0451 -1.24568,0.0605 -1.875,0.0625 -3.30099,0.0104 -6.22719,0.13635 -8.46875,0.15625 -8.96623,0.0796 -12.34174,4.18519 -16.71875,7.15625 -4.377,2.97106 -6.98061,6.18881 -10.03125,9.53125 -3.05064,3.34244 -4.75392,7.12119 -6.53125,11.3125 -1.77733,4.19132 -3.55014,8.84094 -3.96875,16.15625 -0.41861,7.31531 -0.47502,15.47144 -0.15625,22.21875 0.31833,6.73794 1.35482,16.60212 2.53125,17.20418 1.17643,0.60206 7.04771,-10.14 6.21875,-11.79793 -1.90997,-4.61575 -4.35973,-7.26789 -4.625,-13.6875 -0.26528,-6.41961 1.30849,-9.82907 1.8125,-12.90625 0.50402,-3.07717 0.88184,-6.69655 2.5,-7.625 1.61817,-0.92846 3.86184,0.11304 5.71875,-0.65625 3.52067,-1.06258 4.50822,-3.88483 5.5625,-5.40625 2.20177,-0.45096 8.38495,-0.75442 13.53125,0.625 -3.02411,-1.90997 -7.47458,-3.99739 -7.15625,-5.5625 0.31833,-1.56511 2.88003,-2.74558 4.3125,-4.125 1.37942,2.86495 3.80296,5.82989 6.03125,7.15625 2.2283,1.32637 5.05768,1.36485 7.3125,0.78125 2.25482,-0.5836 4.99849,-2.82225 6.21875,-4.28125 1.2203,-1.459 1.39027,-2.98322 1.125,-4.46875 1.06109,-0.5836 2.17946,-1.93569 3.1875,-1.75 1.00804,0.18569 2.44584,1.7078 2.84375,2.875 0.39791,1.1672 -0.30958,2.74558 -0.46875,4.125 L 304.30625,169.4 c 0.63666,1.27331 0.17585,2.53919 0.8125,3.8125 -1.37942,1.53859 -6.57235,5.77311 -14,9.0625 5.04019,-0.26528 10.90615,-1.91419 13.1875,-3.1875 2.28135,-1.27331 4.2292,-3.55516 6.21875,-5.09375 1.98955,-1.53858 3.16309,-2.12751 4.78125,-2.84375 1.61816,-0.71624 3.45197,-1.59667 4.9375,-1.4375 5.75982,0.80613 8.939,1.07189 12.625,6.375 -9.57013,0.19228 -2.34375,7.63215 -2.34375,10.65625 0,11.09033 -11.24778,22.07239 -17.0625,37.3125 -4.72251,12.37748 -3.3943,20.48771 -11.09375,34.4375 -7.94325,14.39152 -17.22443,19.69156 -23.4375,20.375 -6.18207,0.68006 -13.82522,0.61735 -17.34375,-0.25 -3.51853,-0.86735 -8.96575,-4.49297 -13.71875,-4.625 -4.753,-0.13213 -10.47981,4.6875 -14.96875,4.6875 -4.48895,0 -10.60247,-4.39551 -13.15625,-4.5 -7.3363,-0.3002 -9.42921,1.52703 -15.46875,3.84375 -6.08919,2.33578 -11.87828,1.40443 -17.6875,1.5625 4.22489,1.58433 9.95872,3.35392 14.84375,3.75 4.88503,0.39608 9.05875,-2.63905 15,-2.375 5.94125,0.26406 11.38844,3.55547 17.59375,3.6875 6.2053,0.13203 13.05486,-0.88517 19.65625,-1.28125 6.60139,-0.39608 14.2455,0.54845 21.375,0.8125 -0.15036,1.58433 -0.38367,3.03364 -3.15625,4.75 -2.77258,1.71636 -6.58297,5.85631 -12.65625,7.96875 -6.07328,2.11245 -16.3877,4.15939 -23.78125,4.6875 -7.39355,0.52811 -15.04858,-1.9375 -20.59375,-1.9375 -5.54517,0 -8.72666,0.61722 -12.6875,1.9375 6.60139,2.90461 12.55097,6.47428 19.8125,8.71875 7.26153,2.24447 16.48847,5.27811 23.75,4.75 7.26153,-0.52811 13.87125,-7.24611 19.8125,-7.90625 5.94125,-0.66014 14.59221,-2.59413 17.0625,1.9375 2.29884,4.21712 -13.13188,19.68607 -19.8125,22.9375 -7.00524,3.40942 -13.33297,5.87814 -19.40625,6.40625 -6.07328,0.52811 -11.23219,-1.06639 -17.4375,-0.40625 -6.2053,0.66014 -13.57594,3.93825 -19.78125,2.75 -6.20531,-1.18825 -10.6033,-3.14158 -17.46875,-9.875 -6.86545,-6.73342 -16.89397,-18.994 -25.34375,-28.5 3.43272,7.65761 2.62364,13.85883 10.28125,22.96875 7.65761,9.10992 23.07369,27.67522 32.84375,36.125 9.77006,8.44978 15.73772,13.17044 24.1875,18.1875 8.44978,5.01706 18.90339,10.02736 28.9375,10.6875 10.03411,0.66014 22.70886,-2.68614 32.875,-10.34375 9.33907,-7.03462 18.4895,-22.62791 26.375,-35.375 12.88485,-0.44307 34.58829,19.20379 45.625,23.78125 11.22557,4.6558 20.42835,11.18169 27.15625,8.46875 4.55082,-1.83507 24.61367,-10.6468 30.46875,-16.5625 7.66267,-7.742 20.46728,-27.43184 48.46875,-38.84375 -33.15221,5.75736 -44.33102,26.6976 -55.40625,27.59375 -4.47457,0.36206 -8.16761,-0.15808 -9.15625,-1.4375 -0.98865,-1.27943 -1.03662,-3.87476 -0.40625,-6.53125 -2.03816,2.15448 -2.60945,3.92881 -3.65625,3.8125 -1.0468,-0.11631 -3.59598,-1.92544 -3.125,-3.96875 0.47097,-2.04332 9.16308,-8.31877 12.6875,-19.21875 1.52017,-4.70143 0.53491,-10.05845 3.09375,-14.1875 2.55884,-4.12905 9.25716,-5.84222 12.28125,-8.75 3.0241,-2.90778 4.49832,-6.64771 5.3125,-8.625 0.81418,-1.97729 0.63939,-3.48795 0.4375,-5 3.73401,-2.46724 6.52271,-5.72325 8.5,-7.875 1.97729,-2.15176 2.56639,-4.07568 2.46875,-5.59375 1.74921,0.005 3.36965,-0.85443 4.15625,-1.8125 2.32622,-2.67516 4.53454,-4.87905 6.09375,-7.9375 1.46488,-2.87342 1.89268,-6.64701 2.34375,-9.9375 0.44847,-3.27158 0.61157,-6.26139 0.21875,-9.5 -0.43501,-3.58643 -1.35964,-8.31551 -3.34375,-12.3125 4.66183,4.15475 8.69048,8.77124 12.875,15.3125 -4.67934,-11.1791 -8.76147,-12.41252 -15.40625,-23.65625 -4.47952,-7.57987 -8.36527,-15.41695 -12.96875,-19.71875 -5.8941,-5.50783 2.12504,-8.1756 4.25,-5.25 7.15393,9.84941 9.80664,24.40284 21.625,38.03125 -5.87068,-11.4325 -9.50443,-22.2096 -13.625,-32.6875 3.77978,0.88679 7.22011,0.34063 12.75,-1 -5.66307,0.19719 -9.55294,0.0586 -13.625,-1.8125 -5.63545,-8.31112 -4.93964,-17.65015 -4.3125,-23.71875 0.64985,-6.28832 -0.20303,-5.30137 0,-9.71875 0.20303,-4.41738 -2.73958,-5.92708 -4.21875,-7.78125 -1.23025,-8.28234 -1.23603,-17.43285 -4.8125,-24.625 -3.61938,-7.27846 -5.16072,-12.42203 -9.53125,-15.75 10.47261,1.4732 19.60179,-11.92262 35.625,-16 -15.52648,2.65357 -24.17857,11.52231 -32.15625,12.84375 -1.29624,-12.97788 -3.78235,-19.78209 -9.21875,-26.9375 -5.35408,-7.04708 -3.65783,-23.22571 -5.1875,-32.25 C 413.62697,46.50863 407.65268,38.11935 402.9,31.65 l -24.5625,-31.49999999 -212.8125,0 C 143.75458,26.70105 138.43384,25.77416 113.2125,31.68125 141.56053,23.63547 146.53557,19.43812 165.3375,0.15000001 l -4.3125,0 C 143.45216,21.14504 137.30174,14.05391 114.4,28.65 135.62664,13.85494 144.80113,16.61728 160.775,0.15000001 l -24.40625,0 C 126.14064,11.00885 119.61812,14.77014 105.74375,20.15 116.19661,14.11925 125.99176,7.13839 135.80625,0.15000001 l -31.125,0 C 99.91975,6.36868 93.94824,11.67354 88.74375,14.55625 94.42538,8.16844 98.30834,4.01251 102.11875,0.15000001 l -3.34375,0 C 95.93224,3.04866 92.42719,6.26494 88.275,9.3375 91.1359,5.81561 93.1406,2.82657 94.65,0.15000001 l -10.375,0 z M 176.36875,9.525 c -1.36218,5.28525 -1.24599,10.09937 -0.15625,15.875 4.57692,-4.52243 9.65145,-7.42468 14.71875,-8.1875 -9.04486,8.49999 -11.06571,15.03847 -11.9375,25.5 1.30769,-3.26923 3.42308,-7.83655 10.125,-12.25 -7.51923,7.19231 -10.49592,20.21261 -10.625,24.6875 -0.12931,4.48258 -3.47101,2.96812 -3.09375,0.8125 0.37726,-2.15562 1.3125,-25.34375 1.3125,-25.34375 l -3.78125,4.75 1.3125,-8.34375 -4.90625,3.4375 1.46875,-8 c -4.3469,4.31361 -8.21495,13.63492 -15.1875,16.65625 8.87383,-10.10268 13.00904,-24.91914 20.75,-29.59375 z M 84.65,10.93125 c -5.10995,8.38179 -6.86967,16.51598 -7.9375,23.5625 l -4.46875,0.25 6.28125,-14.21875 -8.59375,14.09375 -2.9375,1 C 72.32042,25.45324 76.95984,17.31338 84.65,10.93125 z m 106.125,19.1875 c -3.70513,11.60576 -4.3165,22.41347 -3.28125,32.875 -2.9423,-4.25 -5.31315,-8.19192 -4.90625,-12.28125 0.68284,-6.86258 3.50161,-14.54568 8.1875,-20.59375 z M 145.18125,44.15 c -5.25369,9.54112 -3.95493,16.13532 -4.53125,24.5625 -2.58827,-9.19307 -2.75073,-16.84704 4.53125,-24.5625 z M 83.9,49.15 c 9.77016,5.71659 13.92558,7.99736 27.4375,11.53125 C 105.93273,59.64187 98.78577,58.5416 94.2125,56.61875 89.63923,54.6959 87.64176,51.95632 83.9,49.15 z m -6.6875,3.5 c 0.46239,0.22565 7.20477,3.54852 10.75,7.09375 3.42994,3.42995 6.53125,11.53125 6.53125,11.53125 0,0 -6.73448,-8.63001 -10.28125,-11.84375 -2.74999,-2.49179 -6.18588,-6.12357 -7,-6.78125 z m -19.96875,1.09375 2.25,0.46875 c -1.83318,3.13941 -1.72767,6.90281 -1.8125,10.625 -1.01819,-3.35326 -2.33377,-6.5747 -0.4375,-11.09375 z m 13.875,1.3125 c 4.05358,1.97482 7.16243,3.02724 9.96875,5.9375 2.80633,2.91026 6.56936,5.29292 9.6875,10.59375 -4.98903,-1.87088 -8.89437,-4.94277 -12.15625,-7.78125 -3.26187,-2.83849 -6.56455,-7.50274 -7.5,-8.75 z M 229.3375,55.4625 c 0,0 -0.32211,6.53846 -0.8125,10.625 -0.49038,4.08653 -3.28125,12.25 -3.28125,12.25 0.52691,-6.08459 -0.23539,-9.70211 -1.125,-10.9375 -0.88066,-1.22296 -2.78125,-3.75 -2.78125,-3.75 3.89084,-1.80863 5.9352,-4.15117 8,-8.1875 z m -17,2.28125 c 1.08974,4.19551 1.51602,10.84536 1.625,15.53125 0.10897,4.6859 1.15626,9.31251 -0.96875,15.6875 -0.13205,-7.87756 -2.4185,-9.13535 -3.09375,-14.875 -0.65385,-5.55769 0.3125,-10.13222 2.4375,-16.34375 z M 159.65,62.775 c 1.22979,2.5005 1.70032,4.41516 4.875,7 -4.55666,2.81367 -6.33355,6.1641 -9.5625,9.21875 -3.32208,3.14274 -9.59375,6.96875 -9.59375,6.96875 0,0 -1.38635,-6.60696 -7.3125,-6.78125 8.71493,-4.00887 9.22927,-8.65446 11.84375,-10.28125 2.61448,-1.62679 7.13552,-4.49821 9.75,-6.125 z m 7.15625,12.75 c 0,0 -4.2083,6.19988 -9.25,10.28125 -3.66028,2.96307 -16.53125,6.78125 -16.53125,6.78125 11.79421,-5.68015 17.29872,-12.6877 25.78125,-17.0625 z m 6.78125,2.8125 c -0.37849,11.09113 -2.45233,13.25964 -5.53125,18 -3.32248,5.11534 -8.01923,8.97356 -13.25,10.28125 -5.23077,1.30769 -10.3125,-0.81731 -14.5625,-4.25 11.47502,4.27187 17.02893,1.38533 21.75,-2.4375 6.86467,-5.55856 9.23635,-11.27234 11.59375,-21.59375 z m -9.0625,5.03125 c -5.43801,8.67193 -11.73208,12.06979 -22.125,14.09375 9.71237,-3.65352 15.19218,-6.71544 22.125,-14.09375 z m 57.28125,10.5 c -2.77885,4.24999 -6.1875,7.03125 -6.1875,7.03125 l -0.34375,-2.28125 6.53125,-4.75 z m 39.96875,17.1875 10.25,8.0625 c -2.7023,-0.67558 -5.9205,-0.37472 -9.3125,-2.78125 -3.60157,-2.55522 -0.9375,-5.28125 -0.9375,-5.28125 z m 54.34375,3.09375 c 11.94081,2.46452 18.25549,2.93525 28.28125,2.8125 -9.9846,2.72049 -17.39753,1.95736 -28.28125,-2.8125 z M 18.025,119.24375 c 3.19379,1.81635 6.68894,4.77704 9.34375,4.4375 l 0,4.21875 c -4.69928,-2.88779 -6.93822,-5.76846 -9.34375,-8.65625 z m 396.09375,2.53125 c 3.49579,5.65986 7.75781,11.59164 14.25,18.5 -6.57543,-4.66106 -11.42217,-9.34164 -16,-16.25 l 1.75,-2.25 z m -366.3125,2.34375 c 0,0 -5.77261,5.11823 -10.4375,5.5625 -4.66489,0.44428 -6.90625,-5.3125 -6.90625,-5.3125 6.11875,1.29861 11.81392,0.80706 17.34375,-0.25 z m 362.8125,2.40625 c 7.08694,9.2961 15.00985,14.97466 20,17.96875 l -0.5,7 c -9.96498,-6.02189 -16.54102,-12.55838 -19.5,-24.96875 z m -371.25,15.84375 c 0.80893,-0.0285 1.3125,0.13405 1.3125,0.4375 0,0 -2.02366,3.2138 -2.21875,5.96875 -0.19509,2.75495 -0.59764,7.18159 -4.65625,7.5625 -3.83846,0.36024 -4.24963,-3.40006 -2.875,-8.4375 1.03097,-3.7781 6.01072,-5.44565 8.4375,-5.53125 z m 141.59375,8.59375 c -4.70538,-0.004 -7.94496,0.55485 -11.90625,0.46875 3.34618,0.63971 4.33482,2.45729 6.5,3.6875 -2.11597,0.14763 -4.85998,0.29114 -7.8125,0.90625 -2.95251,0.6151 -6.49361,1.60349 -9.59375,3.375 -3.10014,1.77151 -5.12003,4.35207 -7.53125,6.8125 1.57468,0.0492 3.11947,-0.39169 4.71875,0.125 1.59928,0.51669 3.52176,1.32026 4.875,2.96875 1.35323,1.64849 1.65072,3.08949 3.25,5.15625 1.32692,1.39918 2.81145,2.08341 1.15625,-0.59375 -0.93496,-1.91914 0.20221,-1.81758 -0.4375,-3.6875 1.42705,1.67309 2.87257,4.46322 6.21875,6.0625 3.34619,1.59928 7.28105,3.03916 13.875,3.53125 -11.12114,-2.55885 -15.3259,-3.91539 -19.65625,-10.3125 l 1.5,-1.1875 c 2.3128,1.52547 3.71844,2.31828 6.03125,3.84375 -1.52547,-2.3128 -2.23798,-3.75507 -2.65625,-5.625 1.35324,-0.54129 3.74107,-2.26045 5.90625,-3.6875 0.5905,2.26359 -0.009,3.55824 1.34375,5.625 1.35324,2.06676 3.90792,4.13023 6.34375,4.84375 2.43582,0.71352 5.9372,1.08599 8.25,-0.5625 2.3128,-1.64849 4.78846,-4.97027 5.625,-8.5625 2.36201,0.78734 3.98387,1.86678 5.3125,3.6875 -1.52547,1.91914 -2.74827,4.26836 -5.75,6.1875 3.59223,-0.98418 5.49969,-2.04114 7.8125,-2.65625 2.3128,-0.61511 5.25167,-1.46353 7.6875,-0.75 2.43582,0.71352 4.27374,1.57478 5.75,4.28125 0.67274,-2.42774 1.02314,-4.41912 0.15625,-6.34375 -2.77391,-6.15851 -9.06452,-10.58086 -15.0625,-13.28125 -5.99798,-2.7004 -13.87622,-4.05981 -19.78125,-4.28125 -0.73813,-0.0277 -1.4528,-0.0308 -2.125,-0.0312 l 0,-5e-5 z M 337.80625,158.4 c 7.39299,14.67206 9.20174,19.83489 28.5625,27.59375 C 348.26628,180.4783 342.78059,174.67702 337.80625,158.4 z M 185.025,160.4625 c 0.34036,-0.0211 0.68226,0.027 1,0.1875 l -0.875,1.34375 1.53125,0.78125 c -0.48919,0.74139 -1.55895,0.99054 -2.40625,0.5625 -0.8473,-0.42804 -1.14544,-1.38361 -0.65625,-2.125 0.30574,-0.46337 0.83898,-0.71492 1.40625,-0.75 z m 154.28125,27 c 10.46805,10.71136 15.32609,13.85031 30.3125,16.65625 -16.4818,-0.63743 -21.61567,-3.71324 -30.3125,-16.65625 z m 93.71875,20.90625 c 5.46245,5.35639 10.89468,11.78464 14.15625,18.28125 3.26157,6.49661 4.97913,11.79485 5.5625,21.5 -1.80314,0.84854 -4.22811,2.15147 -6.03125,3 -0.3182,-2.59864 -0.63344,-3.76506 -1.90625,-5.25 -0.21213,3.39415 -0.42131,5.19401 -1.90625,7.15625 -2.96988,0.21213 -6.09833,-0.19788 -8.75,-0.78125 2.3865,-5.40942 4.02463,-12.3793 3.8125,-19.40625 -0.21214,-7.02695 -2.60403,-17.28744 -4.9375,-24.5 z M 33.5875,208.775 c 5.55345,7.10842 15.53125,13.53125 15.53125,13.53125 0,0 9.33208,5.77939 6,10 -1.4632,1.85338 -10.42886,-0.005 -15.09375,-3.78125 -4.6649,-3.77635 -7.32605,-12.41945 -6.4375,-19.75 z m 226.50923,9.2738 c -1.51615,-1.00768 -2.74537,0.2613 -3.13423,2.25745 -0.38887,1.99616 0.67043,4.46156 1.5,7.46875 0.82957,3.00719 1.88847,7.46367 2.5625,10.9375 -1.34806,-0.93327 -2.56313,-1.77554 -5,-2.8125 -2.35091,-1.00039 -5.32173,-1.48495 -8.53125,-0.84375 L 248.775,227.65 c -3.30749,6.07252 -7.47223,9.08891 -11.6875,12.34375 -4.21527,3.25483 -6.51303,4.19995 -10.53125,3.5 -4.01823,-0.69995 -8.19981,-5.46836 -12.0625,-6.53125 -3.86268,-1.06289 -7.79414,-0.53664 -11.0625,0.40625 0.66632,2.80365 1.48576,4.90407 2.9375,6.71875 1.45175,1.81469 2.99962,2.6403 4.0625,2.5625 1.06289,-0.0778 1.53619,-1.57668 2.625,-2.40625 1.08881,-0.82957 3.37705,-1.68185 6.125,-0.4375 2.74795,1.24436 6.42318,5.4939 10.15625,7.59375 3.73306,2.09984 6.47356,2.97095 11.09375,3.09375 4.51464,0.11999 9.41465,-1.02695 13.5625,-2.375 4.14785,-1.34805 8.34645,-3.05877 9.53125,-4.4375 1.18481,-1.37872 1.19956,-4.87838 0.875,-7.3125 -1.30445,-9.78304 -2.78712,-21.31227 -4.30327,-22.31995 z M 36.9,230.0875 c 6.11978,4.20925 11.65276,7.0517 16,7.125 -1.64696,1.41959 -2.69554,3.21666 -6,3.53125 -5.42923,-2.29591 -7.38198,-6.67362 -10,-10.65625 z m 19.46875,8.0625 c 0.80044,-0.0265 1.57914,0.15068 2.3125,0.59375 -3.41024,1.16519 -4.45848,2.94576 -5.5625,4.6875 l -2.4375,-2.21875 c 2.02012,-1.87239 3.92654,-3.00424 5.6875,-3.0625 z M 58.4,248.55625 c 1.1702,0.022 2.1721,0.19873 2.71875,0.625 1.94362,1.51563 1.125,4.90625 1.125,4.90625 0,0 -4.46379,0.84588 -6.4375,0 -1.97371,-0.84588 -4.4375,-4.65625 -4.4375,-4.65625 0,0 3.04391,-0.70466 5.8125,-0.84375 0.41529,-0.0209 0.82868,-0.0387 1.21875,-0.0312 l 0,-5e-5 z m 93.84375,0.75 c -0.49208,9.74329 0.27699,15.16538 2.34375,21.5625 2.06676,6.39711 4.93832,11.66285 8.875,17.125 3.93669,5.46216 7.45739,9.34132 12.96875,12.6875 5.51136,3.34619 12.40849,5.41741 15.65625,6.5 3.24777,1.08259 4.18923,-3.55174 1.1875,-4.4375 -3.00172,-0.88575 -7.41894,-4.45769 -12.09375,-7.65625 -4.67482,-3.19856 -10.19086,-5.32346 -15.0625,-13 -4.87165,-7.67654 -9.34781,-19.59335 -13.875,-32.78125 z m 300.1875,1.84375 c -0.37124,3.50022 0.47548,7.71589 -0.78125,10.84375 -1.12978,2.8119 -4.18922,5.98096 -7,7.625 0.21213,-3.02291 -0.54163,-5.08509 -1.125,-7.3125 3.28808,-1.2728 4.98472,-3.35494 7,-6.21875 -1.48494,1.2728 -2.95256,1.4375 -4.4375,1.4375 l 0.46875,-2.875 5.875,-3.5 z M 44.65,251.30625 c 0.69246,-2.5e-4 1.47241,0.11724 1.8125,0.5625 0.68017,0.89052 -0.4375,3.5625 -0.4375,3.5625 l -2.65625,-4 c 0,0 0.58879,-0.12475 1.28125,-0.125 z m 387.53125,4.125 c 2.77121,0.0761 12.15625,0.8125 12.15625,0.8125 -2.12134,4.40179 -5.54335,6.73746 -8.9375,10.34375 -5.56853,1.80314 -10.63893,2.32767 -15.09375,2.0625 4.82606,-4.24269 8.52636,-8.62661 11.125,-13.1875 0.0796,-0.0199 0.35411,-0.0421 0.75,-0.0312 l 0,-5e-5 z m -36.21875,0.5 4.4375,0 c 0.22825,2.37845 1.38714,4.29823 4.15625,5.40625 -1.06426,0.52854 -2.25472,1.01509 -4.15625,1.125 -3.07548,-2.17438 -3.31866,-4.35687 -4.4375,-6.53125 z m -333.28125,0.8125 c 0,0 -2.07328,2.7939 -3.5625,2.90625 -1.48922,0.11235 -3.78125,-2.25 -3.78125,-2.25 l 7.34375,-0.65625 z M 39.36875,263.65 c 0,0 9.99737,0.65362 12.21875,2.875 2.22138,2.22138 3.09375,4.875 3.09375,4.875 0,0 -6.09311,1.27089 -8.875,-0.21875 -2.78189,-1.48964 -6.4375,-7.53125 -6.4375,-7.53125 z m 402.125,9.6875 c -2.44086,3.06517 -5.00723,6.55101 -8.9375,8.375 l -1.25,-2.53125 c 3.74533,-1.08899 6.94648,-3.49397 10.1875,-5.84375 z m -15.40625,8.65625 c 1.36933,0 2.46875,0.74336 2.46875,1.65625 0,0.91289 -1.09942,1.65625 -2.46875,1.65625 -1.36933,0 -2.46875,-0.74336 -2.46875,-1.65625 0,-0.91289 1.09942,-1.65625 2.46875,-1.65625 z M 40.2125,289.4 l 5.65625,0.3125 c 0,0 0.40765,2.02496 -0.5,2.6875 -0.90765,0.66254 -4,-0.5 -4,-0.5 l -1.15625,-2.5 z m 9,0.5 c 0.66648,0.33324 4.33434,0.97926 8,1.3125 -3.49904,1.66621 -7.1875,1.5 -7.1875,1.5 L 49.2125,289.9 z m 378.65625,3.40625 c -2.69126,2.78476 -5.6403,5.47939 -10.1875,7.46875 -1.01012,-1.32584 -1.50304,-2.75009 -0.90625,-4.34375 4.30754,-0.22221 7.52283,-1.92063 11.09375,-3.125 z M 56.025,296.7125 c 2.77352,2.55024 6.0748,4.24655 15.34375,4.6875 0,0 -12.49072,2.14547 -16.65625,0.8125 -4.16553,-1.33297 -4,-5 -4,-5 l 5.3125,-0.5 z m 357.34375,0.40625 c 0.26466,-0.0263 0.47973,0.011 0.59375,0.125 0.40293,0.40294 1.41933,2.78792 0.90625,4.03125 -0.51308,1.24333 -2.41621,2.29887 -3.625,1.59375 -1.20879,-0.70513 -1.03946,-2.92214 -0.40625,-4.125 0.47491,-0.90215 1.73726,-1.54609 2.53125,-1.625 z m -14,0.8125 c 0.13001,-0.003 0.25401,-0.0199 0.375,0 1.93586,0.31821 3.82231,3.60811 3.34375,4.4375 -0.47856,0.82938 -3.1632,0.94024 -4.625,0.71875 -1.4618,-0.22149 -3.80974,-0.46479 -3.84375,-1.625 -0.0292,-0.99336 2.79986,-3.48368 4.75,-3.53125 z m -293.5625,2.375 c -2.11428,3.91766 -3.17757,7.35849 -1.96875,12.6875 -3.83707,-6.98077 -3.87659,-7.81638 1.96875,-12.6875 z m 266.5,6.15625 c 4.70831,2.70308 7.05182,3.60154 9.375,3.8125 l 1.0625,5 c 0,0 -7.05589,-3.34246 -10.4375,-8.8125 z M 99.4625,307.525 c 0.27589,10.30566 6.17599,17.01014 5.90625,28 -3.81509,-9.33605 -6.71831,-18.66395 -5.90625,-28 z m 297.125,2.5 1.96875,6.21875 c -1.68304,1.1538 -4.1401,2.30993 -8.8125,1.65625 -1.73865,-0.24323 -5.30629,-2.86534 -6.6875,-7.15625 5.27534,1.5512 10.18805,1.03244 13.53125,-0.71875 z M 144.15,359.36875 c 1.40715,-0.0761 2.83993,0.26265 4.34375,1.25 0.35893,1.22193 -3.32317,4.36788 -4.4375,3.625 -2.43103,0.35086 -3.83698,-1.3461 -5.21875,-3.09375 1.73536,-0.91001 3.50331,-1.68343 5.3125,-1.78125 z M 119.525,363.65 c 0.0559,-0.0184 0.0946,-0.0226 0.125,0 0.0348,0.0259 0.0414,0.0933 0.0312,0.1875 -0.13246,1.234 3.24175,5.27267 5.34375,7.34375 0.53549,0.37752 1.07705,0.78529 1.625,1.25 -0.0912,0.15195 -0.76189,-0.39959 -1.625,-1.25 -2.18913,-1.54334 -4.31758,-2.72236 -6.8125,-6.40625 0,0 0.92088,-0.99633 1.3125,-1.125 l 5e-5,0 z" id="path2830"/>
  </g>
</svg>
