<?xml version="1.0" encoding="UTF-8" standalone="no"?>
<!-- Created with Inkscape (http://www.inkscape.org/) -->
<svg xmlns:rdf="http://www.w3.org/1999/02/22-rdf-syntax-ns#" xmlns="http://www.w3.org/2000/svg" xmlns:cc="http://web.resource.org/cc/" xmlns:dc="http://purl.org/dc/elements/1.1/" xmlns:svg="http://www.w3.org/2000/svg" xmlns:inkscape="http://www.inkscape.org/namespaces/inkscape" xmlns:sodipodi="http://sodipodi.sourceforge.net/DTD/sodipodi-0.dtd" xmlns:ns1="http://sozi.baierouge.fr" xmlns:xlink="http://www.w3.org/1999/xlink" id="svg2" viewBox="0 0 720 720" version="1.1" inkscape:version="0.91 r13725">
  <g id="layer1" transform="translate(0 -332.36)">
    <path id="path2857" style="color:#000000;fill:#ff0000" d="m0 932.36h120v120.04h-120v-120z"/>
    <path id="path2861" style="color:#000000;fill:#0000ff" d="m240 932.36h120v120.04h-120v-120z"/>
    <path id="path2865" style="color:#000000;fill:#00ff00" d="m120 1052.4h120v-120h-120v120z"/>
    <path id="path2834" style="color:#000000;fill:#ff0000" d="m360 932.36h120v120.04h-120v-120z"/>
    <path id="path2836" style="color:#000000;fill:#0000ff" d="m600 932.36h120v120.04h-120v-120z"/>
    <path id="path2838" style="color:#000000;fill:#00ff00" d="m480 1052.4h120v-120h-120v120z"/>
    <path id="path2840" style="color:#000000;fill:#ff0000" d="m180 812.36h120v120h-120v-120z"/>
    <path id="path2842" style="color:#000000;fill:#0000ff" d="m420 812.36h120v120h-120v-120z"/>
    <path id="path2844" style="color:#000000;fill:#00ff00" d="m300 932.36h120v-120h-120v120z"/>
    <path id="path2846" style="color:#000000;fill:#ff0000" d="m540 812.36h120v120h-120v-120z"/>
    <path id="path2848" style="color:#000000;fill:#0000ff" d="m60 812.36h120v120h-120v-120z"/>
    <path id="path2850" style="color:#000000;fill:#00ff00" d="m660 932.36h120v-120h-120v120z"/>
    <path id="path2852" style="color:#000000;fill:#00ff00" d="m-60 932.36h120v-120h-120v120z"/>
    <path id="path2854" style="color:#000000;fill:#ff0000" d="m0 692.36h120v120h-120v-120z"/>
    <path id="path2856" style="color:#000000;fill:#0000ff" d="m240 692.36h120v120h-120v-120z"/>
    <path id="path2858" style="color:#000000;fill:#00ff00" d="m120 812.36h120v-120h-120v120z"/>
    <path id="path2860" style="color:#000000;fill:#ff0000" d="m360 692.36h120v120h-120v-120z"/>
    <path id="path2862" style="color:#000000;fill:#0000ff" d="m600 692.36h120v120h-120v-120z"/>
    <path id="path2864" style="color:#000000;fill:#00ff00" d="m480 812.36h120v-120h-120v120z"/>
    <path id="path2866" style="color:#000000;fill:#ff0000" d="m180 572.36h120v120h-120v-120z"/>
    <path id="path2868" style="color:#000000;fill:#0000ff" d="m420 572.36h120v120h-120v-120z"/>
    <path id="path2870" style="color:#000000;fill:#00ff00" d="m300 692.36h120v-120h-120v120z"/>
    <path id="path2872" style="color:#000000;fill:#ff0000" d="m540 572.36h120v120h-120v-120z"/>
    <path id="path2874" style="color:#000000;fill:#0000ff" d="m60 572.36h120v120h-120v-120z"/>
    <path id="path2876" style="color:#000000;fill:#00ff00" d="m660 692.36h120v-120h-120v120z"/>
    <path id="path2878" style="color:#000000;fill:#00ff00" d="m-60 692.36h120v-120h-120v120z"/>
    <path id="path2880" style="color:#000000;fill:#ff0000" d="m0 452.36h120v120h-120v-120z"/>
    <path id="path2882" style="color:#000000;fill:#0000ff" d="m240 452.36h120v120h-120v-120z"/>
    <path id="path2884" style="color:#000000;fill:#00ff00" d="m120 572.36h120v-120h-120v120z"/>
    <path id="path2886" style="color:#000000;fill:#ff0000" d="m360 452.36h120v120h-120v-120z"/>
    <path id="path2888" style="color:#000000;fill:#0000ff" d="m600 452.36h120v120h-120v-120z"/>
    <path id="path2890" style="color:#000000;fill:#00ff00" d="m480 572.36h120v-120h-120v120z"/>
    <path id="path2892" style="color:#000000;fill:#ff0000" d="m180 332.36h120v120h-120v-120z"/>
    <path id="path2894" style="color:#000000;fill:#0000ff" d="m420 332.36h120v120h-120v-120z"/>
    <path id="path2896" style="color:#000000;fill:#00ff00" d="m300 452.36h120v-120h-120v120z"/>
    <path id="path2898" style="color:#000000;fill:#ff0000" d="m540 332.36h120v120h-120v-120z"/>
    <path id="path2900" style="color:#000000;fill:#0000ff" d="m60 332.36h120v120h-120v-120z"/>
    <path id="path2902" style="color:#000000;fill:#00ff00" d="m660 452.36h120v-120h-120v120z"/>
    <path id="path2904" style="color:#000000;fill:#00ff00" d="m-60 452.36h120v-120h-120v120z"/>
  </g>
  <metadata>
    <rdf:RDF>
      <cc:Work>
        <dc:format>image/svg+xml</dc:format>
        <dc:type rdf:resource="http://purl.org/dc/dcmitype/StillImage"/>
        <cc:license rdf:resource="http://creativecommons.org/licenses/publicdomain/"/>
        <dc:publisher>
          <cc:Agent rdf:about="http://openclipart.org/">
            <dc:title>Openclipart</dc:title>
          </cc:Agent>
        </dc:publisher>
        <dc:title>rgb brick wall</dc:title>
        <dc:date>2011-04-02T19:51:53</dc:date>
        <dc:description>this looks like it's leaning to me for some reason</dc:description>
        <dc:source>https://openclipart.org/detail/130555/rgb-brick-wall-by-10binary</dc:source>
        <dc:creator>
          <cc:Agent>
            <dc:title>10binary</dc:title>
          </cc:Agent>
        </dc:creator>
        <dc:subject>
          <rdf:Bag>
            <rdf:li>brick</rdf:li>
            <rdf:li>rgb</rdf:li>
            <rdf:li>wall</rdf:li>
          </rdf:Bag>
        </dc:subject>
      </cc:Work>
      <cc:License rdf:about="http://creativecommons.org/licenses/publicdomain/">
        <cc:permits rdf:resource="http://creativecommons.org/ns#Reproduction"/>
        <cc:permits rdf:resource="http://creativecommons.org/ns#Distribution"/>
        <cc:permits rdf:resource="http://creativecommons.org/ns#DerivativeWorks"/>
      </cc:License>
    </rdf:RDF>
  </metadata>
</svg>
