<?xml version="1.0"?>
<svg xmlns:rdf="http://www.w3.org/1999/02/22-rdf-syntax-ns#" xmlns="http://www.w3.org/2000/svg" xmlns:cc="http://creativecommons.org/ns#" xmlns:xlink="http://www.w3.org/1999/xlink" xmlns:dc="http://purl.org/dc/elements/1.1/" xmlns:svg="http://www.w3.org/2000/svg" id="svg2" xml:space="preserve" viewBox="0 0 1250 900" version="1.1" enable-background="new">
  <defs id="defs6">
    <filter id="filter4832">
      <feGaussianBlur id="feGaussianBlur4834" stdDeviation="0.2575"/>
    </filter>
    <filter id="filter4838">
      <feGaussianBlur id="feGaussianBlur4840" stdDeviation="0.2575"/>
    </filter>
    <filter id="filter4856">
      <feGaussianBlur id="feGaussianBlur4858" stdDeviation="0.24999997"/>
    </filter>
    <filter id="filter4862">
      <feGaussianBlur id="feGaussianBlur4864" stdDeviation="0.275"/>
    </filter>
    <filter id="filter4872" y="-.25943" width="1.0123" height="1.5189" x="-.006142">
      <feGaussianBlur id="feGaussianBlur4874" stdDeviation="2.7024222"/>
    </filter>
    <linearGradient id="linearGradient4922" y2="450" gradientUnits="userSpaceOnUse" x2="1185" y1="475" x1="1215"><stop id="stop4026" stop-color="#e6e6e6" offset="0"/><stop id="stop4028" stop-color="#fff" offset="1"/></linearGradient>
    <linearGradient id="linearGradient4933" y2="450" gradientUnits="userSpaceOnUse" x2="62.5" y1="475" x1="89"><stop id="stop3997" stop-color="#e6e6e6" offset="0"/><stop id="stop3999" stop-color="#fff" offset="1"/></linearGradient>
    <linearGradient id="linearGradient4937" y2="450" gradientUnits="userSpaceOnUse" x2="35" y1="475" x1="61.5"><stop id="stop3989" stop-color="#e6e6e6" offset="0"/><stop id="stop3991" stop-color="#fff" offset="1"/></linearGradient>
    <linearGradient id="linearGradient4941" y2="425.1" gradientUnits="userSpaceOnUse" x2="54.5" y1="440.1" x1="54.5"><stop id="stop3967" stop-color="#808080" offset="0"/><stop id="stop3969" stop-color="#e6e6e6" offset="1"/></linearGradient>
    <linearGradient id="linearGradient4944" y2="425.1" gradientUnits="userSpaceOnUse" x2="35" y1="440.1" x1="35"><stop id="stop3959" stop-color="#a40" offset="0"/><stop id="stop3961" stop-color="#ff7f2a" offset="1"/></linearGradient>
    <linearGradient id="linearGradient4947" y2="425.1" gradientUnits="userSpaceOnUse" x2="74" y1="440.1" x1="74"><stop id="stop3975" stop-color="#808080" offset="0"/><stop id="stop3977" stop-color="#e6e6e6" offset="1"/></linearGradient>
    <linearGradient id="linearGradient4952" y2="51.123" gradientUnits="userSpaceOnUse" x2="98.364" gradientTransform="translate(-4.3482 398.87)" y1="76.123" x1="123.36"><stop id="stop4005" stop-color="#e6e6e6" offset="0"/><stop id="stop4007" stop-color="#fff" offset="1"/></linearGradient>
  </defs>
  <g id="layer1">
    <g id="g4958">
      <path id="rect4658" d="m29.5 420.01c-2.5274 0.25514-4.5 2.4031-4.5 5v20.188c0-0.1049 0.23885-0.1875 0.53125-0.1875h1198.9c0.2925 0 0.5313 0.0826 0.5313 0.1875v-20.188c0-2.77-2.23-5-5-5h-1190c-0.17312 0-0.33151-0.017-0.5 0z" fill-rule="evenodd"/>
      <rect id="rect4660" fill-rule="evenodd" height="35" width="1200" y="445" x="25" fill="#808080"/>
      <rect id="rect4866" fill-rule="evenodd" rx="3" ry="3" height="25" filter="url(#filter4872)" width="1056" y="450" x="124.03"/>
      <rect id="rect4670" fill-rule="evenodd" rx="3" ry="3" height="25" width="1056" y="450" x="124.03" fill="#fff"/>
      <path id="path4854" filter="url(#filter4856)" d="m97.016 450c-1.662 0-3 1.338-3 3v19c0 1.662 1.338 3 3 3h19c1.662 0 3-1.338 3-3v-19c0-1.662-1.338-3-3-3h-19z" fill-rule="evenodd"/>
      <path id="path6095" d="m97.016 450c-1.662 0-3 1.338-3 3v19c0 1.662 1.338 3 3 3h19c1.662 0 3-1.338 3-3v-19c0-1.662-1.338-3-3-3h-19z" fill="url(#linearGradient4952)" fill-rule="evenodd"/>
      <path id="rect7978" d="m109.12 455.73a0.50005 0.50005 0 0 1 0.3125 0.0312 0.50005 0.50005 0 0 1 0.0625 0.0312 0.50005 0.50005 0 0 1 0.1875 0.125l3.7812 4.5938a0.50005 0.50005 0 0 1 -0.46875 0.8125l-5.8125-1.0312a0.50005 0.50005 0 0 1 -0.15625 -0.9375c0.29286-0.12827 0.58348-0.32429 0.8125-0.53125-2.0881-1.0139-4.6326-0.26247-5.8125 1.7812-1.235 2.1391-0.51414 4.8275 1.625 6.0625s4.8587 0.54539 6.0938-1.5938a1.0078 1.0078 0 0 1 1.75 1c-1.7755 3.0752-5.7685 4.1192-8.8438 2.3438-3.0752-1.7755-4.1192-5.7373-2.3438-8.8125 1.7067-2.9561 5.4198-4.059 8.4375-2.5625 0.0354-0.24243 0.0563-0.46598 0.0312-0.71875a0.50005 0.50005 0 0 1 0.34375 -0.59375z" fill-rule="evenodd"/>
      <path id="path5486" d="m81.5 425.1c-4.1421 0-7.5 3.3579-7.5 7.5s3.3579 7.5 7.5 7.5 7.5-3.3579 7.5-7.5-3.3579-7.5-7.5-7.5zm-2.6562 4.5a0.50005 0.50005 0 0 1 0.0625 0 0.50005 0.50005 0 0 1 0.09375 0h5a0.50005 0.50005 0 0 1 0.5 0.5v5a0.50005 0.50005 0 0 1 -0.5 0.5h-5a0.50005 0.50005 0 0 1 -0.5 -0.5v-5a0.50005 0.50005 0 0 1 0.34375 -0.5zm0.65625 1v4h4v-4h-4z" fill="url(#linearGradient4947)" fill-rule="evenodd"/>
      <path id="path5556" d="m42.5 425.1c-4.1421 0-7.5 3.3579-7.5 7.5s3.3579 7.5 7.5 7.5 7.5-3.3579 7.5-7.5-3.3579-7.5-7.5-7.5zm-2.6562 4.5a0.50005 0.50005 0 0 1 0.5 0.15625l2.1562 2.1562 2.1562-2.1562a0.50005 0.50005 0 0 1 0.21875 -0.15625 0.50005 0.50005 0 0 1 0.46875 0.84375l-2.1562 2.1562 2.1562 2.1562a0.50005 0.50005 0 1 1 -0.6875 0.6875l-2.1562-2.1562-2.1562 2.1562a0.50005 0.50005 0 1 1 -0.6875 -0.6875l2.1562-2.1562-2.1562-2.1562a0.50005 0.50005 0 0 1 0.1875 -0.84375z" fill="url(#linearGradient4944)" fill-rule="evenodd"/>
      <path id="path5552" d="m62 425.1c-4.1421 0-7.5 3.3579-7.5 7.5s3.3579 7.5 7.5 7.5 7.5-3.3579 7.5-7.5-3.3579-7.5-7.5-7.5zm-2.7188 7a0.50607 0.50607 0 0 1 0.0625 0 0.50005 0.50005 0 0 1 0.15625 0h5a0.50005 0.50005 0 1 1 0 1h-5a0.51182 0.51182 0 0 1 -0.21875 -1z" fill="url(#linearGradient4941)" fill-rule="evenodd"/>
      <path id="path4032" filter="url(#filter4832)" d="m38 450c-1.662 0-3 1.338-3 3v19c0 1.662 1.338 3 3 3h23.5v-25h-23.5z" fill-rule="evenodd"/>
      <path id="path7995" d="m38 450c-1.662 0-3 1.338-3 3v19c0 1.662 1.338 3 3 3h23.5v-25h-23.5z" fill="url(#linearGradient4937)" fill-rule="evenodd"/>
      <path id="path4836" filter="url(#filter4838)" d="m62.5 450v25h23.5c1.662 0 3-1.338 3-3v-19c0-1.662-1.338-3-3-3h-23.5z" fill-rule="evenodd"/>
      <path id="path6091" d="m62.5 450v25h23.5c1.662 0 3-1.338 3-3v-19c0-1.662-1.338-3-3-3h-23.5z" fill="url(#linearGradient4933)" fill-rule="evenodd"/>
      <path id="rect7466" d="m75.656 456.47a1.0001 1.0001 0 0 1 0.8125 0.3125l4.9062 4.9375a1.0001 1.0001 0 0 1 0.0625 0.0625h0.03125a1.0001 1.0001 0 0 1 0.15625 0.21875 1.0001 1.0001 0 0 1 0.03125 0.0312 1.0001 1.0001 0 0 1 0.03125 0.0625 1.0001 1.0001 0 0 1 0 0.0312 1.0001 1.0001 0 0 1 0.03125 0.0625 1.0001 1.0001 0 0 1 0 0.0312 1.0001 1.0001 0 0 1 0.03125 0.0625 1.0001 1.0001 0 0 1 0 0.0312 1.0001 1.0001 0 0 1 0 0.0625 1.0001 1.0001 0 0 1 0 0.3125 1.0001 1.0001 0 0 1 -0.03125 0.0937 1.0001 1.0001 0 0 1 0 0.0312 1.0001 1.0001 0 0 1 -0.03125 0.0625 1.0001 1.0001 0 0 1 0 0.0312 1.0001 1.0001 0 0 1 -0.15625 0.21875 1.0001 1.0001 0 0 1 0 0.0312 1.0001 1.0001 0 0 1 -0.21875 0.1875l-4.8438 4.875a1.0165 1.0165 0 1 1 -1.4375 -1.4375l3.2812-3.2812h-7.5625a1.0011 1.0011 0 0 1 -0.09375 -2 1.0001 1.0001 0 0 1 0.09375 0h7.5625l-3.2812-3.2812a1.0001 1.0001 0 0 1 0.5 -1.7188 1.0001 1.0001 0 0 1 0.125 -0.0312z" fill-rule="evenodd"/>
      <g id="g7984" stroke-linejoin="round" transform="translate(88.25 362.5)" stroke="#000" stroke-linecap="round" stroke-width="2" fill="none">
        <path id="path7980" d="m-35 100h-10"/>
        <path id="path7982" d="m-40 95-5 5 5 5"/>
      </g>
      <g id="g6249" fill-rule="evenodd" transform="translate(-10.247 398.89)">
        <path id="path9920" stroke-linejoin="round" d="m1115 180-10-7-11.176 6.1458 3.5672-11.674-9.2984-8.7295 12.205-0.21474 5.4289-11.541 3.9757 11.541 12.654 1.5968-9.7475 7.3474z" transform="matrix(.41954 -.011790 .011790 .41954 703.8 8.1079)" stroke="#000" stroke-linecap="round" stroke-width="3" fill="#fff"/>
        <path id="path9922" transform="matrix(.24477 0 0 -.098829 898.11 78.64)" d="m1170.3 160.81-20.427 0.17878 10.059-17.78z"/>
      </g>
      <path id="path4860" filter="url(#filter4862)" d="m1188 450c-1.662 0-3 1.338-3 3v19c0 1.662 1.338 3 3 3h24c1.662 0 3-1.338 3-3v-19c0-1.662-1.338-3-3-3h-24z" fill-rule="evenodd"/>
      <path id="path6123" d="m1188 450c-1.662 0-3 1.338-3 3v19c0 1.662 1.338 3 3 3h24c1.662 0 3-1.338 3-3v-19c0-1.662-1.338-3-3-3h-24z" fill="url(#linearGradient4922)" fill-rule="evenodd"/>
      <path id="path9973" d="m1206.2 461.59 5 0.0312-2.5313 1.75-2.4687-1.7812zm-7.25-6.625c0.1943 0.005 0.374 0.0344 0.5624 0.0625a1.0466 1.0466 0 0 1 0.1876 1.625l-1.7188 1.75 0.5312 1.8438 1.875 0.4375 1.6563-1.7188a1.0466 1.0466 0 0 1 1.625 0.125c0.2746 1.5471-0.1796 3.2109-1.375 4.4062-0.7132 0.71322-1.5809 1.1539-2.5 1.3438-0.021 0.004-0.043-0.003-0.062 0-0.1371 0.0265-0.2989 0.0788-0.4375 0.0937-0.019 0.00094-0.043-0.001-0.062 0-0.1588 0.0153-0.3094 0.00006-0.4688 0-0.149 0.0001-0.289 0.0133-0.4374 0-0.011-0.00072-0.021 0.0007-0.031 0-0.051-0.005-0.1052-0.0242-0.1563-0.0312-0.1115-0.0149-0.2329-0.0404-0.3437-0.0625-0.157-0.0303-0.2836-0.0481-0.4375-0.0937-0.2241-0.0658-0.4425-0.1529-0.6562-0.25l-4.9063 4.9062a1.7479 1.7479 0 1 1 -2.5937 -2.3438 1.7444 1.7444 0 0 1 0.125 -0.125l4.9049-4.9063c-0.018-0.0416-0.014-0.0826-0.031-0.125-0.01-0.0209-0.021-0.0411-0.031-0.0625-0.048-0.11985-0.086-0.25234-0.125-0.375-0.01-0.0316-0.021-0.0619-0.031-0.0937-0.022-0.0757-0.043-0.14205-0.062-0.21875-0.01-0.0439-0.053-0.0806-0.063-0.125 0-0.0353 0.01-0.0896 0-0.125-0.048-0.25883-0.084-0.51836-0.094-0.78125-0.026-1.0642 0.3024-2.1477 0.9375-3.0625 0.066-0.0949 0.1456-0.1587 0.2188-0.25 0.034-0.0396 0.06-0.086 0.094-0.125 0.068-0.0772 0.1135-0.1761 0.1875-0.25 0.8703-0.87028 1.9839-1.3465 3.125-1.4375 0.1902-0.0152 0.3994-0.0358 0.5938-0.0312z" fill-rule="evenodd"/>
      <path id="path9967" fill-opacity="0" d="m1188 450c-1.662 0-3 1.338-3 3v19c0 1.662 1.338 3 3 3h24c1.662 0 3-1.338 3-3v-19c0-1.662-1.338-3-3-3h-24zm10.969 4.9688c0.1943 0.005 0.374 0.0344 0.5624 0.0625a1.0466 1.0466 0 0 1 0.1876 1.625l-1.7188 1.75 0.5312 1.8438 1.875 0.4375 1.6563-1.7188a1.0466 1.0466 0 0 1 1.625 0.125c0.2746 1.5471-0.1796 3.2109-1.375 4.4062-0.7132 0.71322-1.5809 1.1539-2.5 1.3438-0.021 0.004-0.043-0.003-0.062 0-0.1371 0.0265-0.2989 0.0788-0.4375 0.0937-0.019 0.00094-0.043-0.001-0.062 0-0.1588 0.0153-0.3094 0.00006-0.4688 0-0.149 0.0001-0.289 0.0133-0.4374 0-0.011-0.00072-0.021 0.0007-0.031 0-0.051-0.005-0.1052-0.0242-0.1563-0.0312-0.1115-0.0149-0.2329-0.0404-0.3437-0.0625-0.157-0.0303-0.2836-0.0481-0.4375-0.0937-0.2241-0.0658-0.4425-0.1529-0.6562-0.25l-4.9063 4.9062a1.7479 1.7479 0 1 1 -2.5937 -2.3438 1.7444 1.7444 0 0 1 0.125 -0.125l4.9049-4.9063c-0.018-0.0416-0.014-0.0826-0.031-0.125-0.01-0.0209-0.021-0.0411-0.031-0.0625-0.048-0.11985-0.086-0.25234-0.125-0.375-0.01-0.0316-0.021-0.0619-0.031-0.0937-0.022-0.0757-0.043-0.14205-0.062-0.21875-0.01-0.0439-0.053-0.0806-0.063-0.125 0-0.0353 0.01-0.0896 0-0.125-0.048-0.25883-0.084-0.51836-0.094-0.78125-0.026-1.0642 0.3024-2.1477 0.9375-3.0625 0.066-0.0949 0.1456-0.1587 0.2188-0.25 0.034-0.0396 0.06-0.086 0.094-0.125 0.068-0.0772 0.1135-0.1761 0.1875-0.25 0.8703-0.87028 1.9839-1.3465 3.125-1.4375 0.1902-0.0152 0.3994-0.0358 0.5938-0.0312zm7.25 6.625 5 0.0312-2.5313 1.75-2.4687-1.7812z"/>
    </g>
  </g>
<metadata><rdf:RDF><cc:Work><dc:format>image/svg+xml</dc:format><dc:type rdf:resource="http://purl.org/dc/dcmitype/StillImage"/><cc:license rdf:resource="http://creativecommons.org/licenses/publicdomain/"/><dc:publisher><cc:Agent rdf:about="http://openclipart.org/"><dc:title>Openclipart</dc:title></cc:Agent></dc:publisher><dc:title>Browser head</dc:title><dc:date>2013-08-05T13:05:55</dc:date><dc:description>Browser head</dc:description><dc:source>http://openclipart.org/detail/181540/browser-head-by-ribbla-181540</dc:source><dc:creator><cc:Agent><dc:title>ribbla</dc:title></cc:Agent></dc:creator><dc:subject><rdf:Bag><rdf:li>Browser RibblaTeam window</rdf:li></rdf:Bag></dc:subject></cc:Work><cc:License rdf:about="http://creativecommons.org/licenses/publicdomain/"><cc:permits rdf:resource="http://creativecommons.org/ns#Reproduction"/><cc:permits rdf:resource="http://creativecommons.org/ns#Distribution"/><cc:permits rdf:resource="http://creativecommons.org/ns#DerivativeWorks"/></cc:License></rdf:RDF></metadata></svg>
