<?xml version="1.0" encoding="UTF-8" standalone="no"?>
<!-- Created with Inkscape (http://www.inkscape.org/) -->

<svg
   xmlns:dc="http://purl.org/dc/elements/1.1/"
   xmlns:cc="http://creativecommons.org/ns#"
   xmlns:rdf="http://www.w3.org/1999/02/22-rdf-syntax-ns#"
   xmlns:svg="http://www.w3.org/2000/svg"
   xmlns="http://www.w3.org/2000/svg"
   xmlns:sodipodi="http://sodipodi.sourceforge.net/DTD/sodipodi-0.dtd"
   xmlns:inkscape="http://www.inkscape.org/namespaces/inkscape"
   width="350"
   height="700"
   id="svg5158"
   version="1.1"
   inkscape:version="0.48.4 r9939"
   sodipodi:docname="New document 21">
  <defs
     id="defs5160" />
  <sodipodi:namedview
     id="base"
     pagecolor="#ffffff"
     bordercolor="#666666"
     borderopacity="1.0"
     inkscape:pageopacity="0.0"
     inkscape:pageshadow="2"
     inkscape:zoom="0.35"
     inkscape:cx="375"
     inkscape:cy="156.88699"
     inkscape:document-units="px"
     inkscape:current-layer="layer1"
     showgrid="false"
     inkscape:window-width="468"
     inkscape:window-height="424"
     inkscape:window-x="84"
     inkscape:window-y="22"
     inkscape:window-maximized="0" />
  <metadata
     id="metadata5163">
    <rdf:RDF>
      <cc:Work
         rdf:about="">
        <dc:format>image/svg+xml</dc:format>
        <dc:type
           rdf:resource="http://purl.org/dc/dcmitype/StillImage" />
        <dc:title></dc:title>
      </cc:Work>
    </rdf:RDF>
  </metadata>
  <g
     inkscape:label="Layer 1"
     inkscape:groupmode="layer"
     id="layer1"
     transform="translate(0,-352.36218)">
    <path
       id="path5129"
       d="m 7.1694896,1045.8387 13.2479874,-21.2012 13.24798,-21.2012 0,-24.99998 6.89093,-24.0315 13.247976,-21.2012 m -20.138906,70.23268 18.578616,-16.72828 13.24798,-21.2012 6.89093,-24.0315 m -38.717526,61.96098 13.247976,-21.20118 13.24798,-21.2012 0,-25 6.89093,-24.0315 13.24799,-21.2012 m -20.13892,70.2327 18.57862,-16.7283 13.247976,-21.2012 6.89094,-24.0315 m -38.717536,61.961 0,-25 0,-25 -13.24798,-21.2012 -6.890926,-24.0315 0,-25 m 20.138906,70.2327 6.89093,-24.0315 0,-25 -6.89093,-24.0316 m 0,73.0631 6.89093,-24.0315 6.89094,-24.0316 -6.89094,-24.0315 0,-25.00004 6.89094,-24.03154 m 0,73.06308 13.24798,-21.2012 6.890926,-24.03153 0,-25.00001 m -20.138906,70.23274 13.24798,-21.2012 13.247977,-21.20119 0,-25.00001 6.89094,-24.03154 13.24798,-21.2012 m -20.13892,70.23275 18.57862,-16.72827 13.24798,-21.20121 6.89094,-24.03154 m -78.995367,202.42651 18.57862,-16.7283 18.578616,-16.7282 6.890941,-24.0316 13.24798,-21.2012 18.57862,-16.7282 m -38.717541,61.961 22.469851,-10.9593 18.57862,-16.7283 13.24799,-21.2012 m -54.296461,48.8888 13.247981,-21.2012 13.24799,-21.2012 0,-25 6.89093,-24.0316 13.24798,-21.20119 m -20.13891,70.23279 18.57862,-16.7283 13.24798,-21.2012 6.89093,-24.03155 m -38.71753,61.96105 6.89093,-24.0316 6.89093,-24.0315 -6.89093,-24.03157 0,-25 6.89093,-24.03154 m 0,73.06311 13.24798,-21.20123 6.89094,-24.03154 0,-25 m -97.573987,194.15477 13.24798,-21.2012 13.24798,-21.2012 0,-25 6.890936,-24.0315 13.247981,-21.2012 m -20.138917,70.2327 18.578617,-16.7283 13.24799,-21.2012 6.89093,-24.0315 m -38.717537,61.961 13.247986,-21.2012 13.247981,-21.2012 0,-25 6.89093,-24.03156 13.24798,-21.2012 m -20.13891,70.23276 18.57862,-16.7283 13.24798,-21.2012 6.89093,-24.03153 m -38.71753,61.96103 0,-25 0,-25.00001 -13.247981,-21.20121 -6.89094,-24.03154 0,-25 m 20.138921,70.23275 6.89093,-24.03155 0,-25 -6.89093,-24.03154 m 0,73.06309 6.89093,-24.03155 6.89093,-24.03154 -6.89093,-24.03155 0,-25 6.89093,-24.03154 m 0,73.06309 13.24799,-21.20121 6.89093,-24.03154 0,-25 m -20.13892,70.23275 13.24799,-21.20121 13.24798,-21.2012 0,-25 6.89093,-24.03154 13.24798,-21.2012 m -20.13891,70.23274 18.57862,-16.72826 13.24798,-21.20121 6.89093,-24.03154 m -78.99536,202.42652 18.57862,-16.7283 18.57862,-16.7282 6.89093,-24.03159 13.24798,-21.2012 18.57862,-16.72827 m -38.71753,61.96106 22.46985,-10.9593 18.57862,-16.72829 13.24798,-21.20121 m -54.29645,48.8888 13.24798,-21.20125 13.24798,-21.2012 0,-25 6.89094,-24.03155 13.24798,-21.2012 m -20.13892,70.23275 18.57862,-16.72827 13.24798,-21.2012 6.89094,-24.03154 m -38.71754,61.96101 6.89094,-24.03155 6.89094,-24.03154 -6.89094,-24.03154 0,-25 6.89094,-24.03154 m 0,73.06308 13.24798,-21.2012 6.89093,-24.03154 0,-25 m -97.57398,194.15478 0,-25 0,-25.00001 -13.247991,-21.20121 -6.89094,-24.03154 0,-25 m 20.138931,70.23275 6.89092,-24.03155 0,-25 -6.89092,-24.03154 m 0,73.06309 0,-25.00001 0,-25 -13.247991,-21.2012 -6.89094,-24.03154 0,-25 m 20.138931,70.23274 6.89092,-24.03154 0,-25 -6.89092,-24.03154 m 0,73.06308 -13.247991,-21.2012 -13.247986,-21.2012 -22.46985,-10.95928 -18.57862,-16.72827 -13.247976,-21.2012 m 54.296446,48.88875 -6.89093,-24.03154 -13.24798,-21.20121 -18.57862,-16.72826 m 38.71753,61.96101 -6.89093,-24.03154 -6.89093,-24.03155 -18.57862,-16.72826 -13.247986,-21.2012 -6.89093,-24.03154 m 38.717536,61.961 0,-24.99999 -6.89094,-24.03154 -13.24798,-21.20121 m 20.13892,70.23274 0,-24.99999 0,-25 -13.24799,-21.2012 -6.89093,-24.03155 0,-25 m 20.13892,70.23275 6.89093,-24.03154 0,-25 -6.89093,-24.03155 m 40.277827,213.52857 6.89093,-24.03154 6.89093,-24.03154 -6.89093,-24.03155 0,-25 6.89093,-24.03153 m 0,73.06308 13.24799,-21.20121 6.89093,-24.03154 0,-24.99999 m -20.13892,70.23274 0,-25 0,-25 -13.24798,-21.2012 -6.89093,-24.03154 0,-25 m 20.13891,70.23274 6.89094,-24.03154 0,-25 -6.89094,-24.03154 m 0,73.06308 -6.89093,-24.03154 -6.89093,-24.03154 -18.578621,-16.72827 -13.247986,-21.2012 -6.89093,-24.03154 m 38.717537,61.96101 0,-25 -6.89094,-24.03154 -13.247981,-21.20121 m 20.138921,216.35891 6.89093,-24.03154 6.89093,-24.03154 -6.89093,-24.03155 0,-25 6.89093,-24.03153 m 0,73.06308 13.24799,-21.20121 6.89093,-24.03154 0,-24.99999 m -20.13892,70.23274 6.89094,-24.03155 6.89093,-24.03154 -6.89093,-24.03154 0,-24.99999 6.89093,-24.03155 m 0,73.06308 13.24798,-21.2012 6.89094,-24.03154 0,-25 m -20.13892,70.23274 -6.89093,-24.03154 -6.89094,-24.03154 -18.57862,-16.72826 -13.247981,-21.2012 -6.890926,-24.03155 m 38.717527,61.96101 0,-25 -6.89093,-24.03154 -13.24798,-21.2012 m 20.13891,70.23274 0,-25 0,-25 -13.24798,-21.2012 -6.89093,-24.03154 0,-25 m 20.13891,70.23274 6.89094,-24.03154 0,-25 -6.89094,-24.03154 m 0,73.06308 6.89094,-24.03154 6.89093,-24.03154 -6.89093,-24.03154 0,-25 6.89093,-24.03155 m 0,73.06309 13.24798,-21.2012 6.89094,-24.03155 0,-25 m -20.13892,216.35891 13.24798,-21.2012 13.24799,-21.2012 0,-25 6.89093,-24.03154 13.24798,-21.2012 m -20.13891,70.23274 18.57862,-16.72826 13.24798,-21.2012 6.89093,-24.03155 m -38.71753,61.96101 6.89093,-24.03154 6.89093,-24.03154 -6.89093,-24.03154 0,-25 6.89093,-24.03155 m 0,73.06309 13.24799,-21.2012 6.89093,-24.03155 0,-25 m -20.13892,70.23275 0,-25 0,-25 -13.24798,-21.2012 -6.89093,-24.03155 0,-25 m 20.13891,70.23275 6.89094,-24.03154 0,-25 -6.89094,-24.03155 m -40.27783,213.52857 13.24798,-21.2012 13.24799,-21.2012 0,-25 6.89093,-24.03154 13.24798,-21.2012 m -20.13891,70.23274 18.57862,-16.72826 13.24798,-21.2012 6.89093,-24.03155 m -38.71753,61.96101 13.24798,-21.2012 13.24798,-21.2012 0,-25 6.89093,-24.03154 13.24798,-21.20121 m -20.13891,70.23275 18.57862,-16.72827 13.24798,-21.2012 6.89094,-24.03154 m -38.71754,61.96101 0,-25 0,-25 -13.24798,-21.2012 -6.89094,-24.03155 0,-25 m 20.13892,70.23275 6.89093,-24.03154 0,-25 -6.89093,-24.03155 m 0,73.06309 6.89093,-24.03154 6.89094,-24.03155 -6.89094,-24.03154 0,-25 6.89094,-24.03154 m 0,73.06308 13.24798,-21.2012 6.89093,-24.03154 0,-25 m -20.13891,70.23274 13.24798,-21.2012 13.24798,-21.2012 0,-25 6.89093,-24.03154 13.24799,-21.20121 m -20.13892,70.23275 18.57862,-16.72827 13.24798,-21.2012 6.89094,-24.03154 m -78.99537,202.4265 18.57862,-16.72827 18.57862,-16.72826 6.89093,-24.03154 13.24799,-21.20121 18.57862,-16.72826 m -38.71754,61.96101 22.46985,-10.95928 18.57862,-16.72827 13.24798,-21.2012 m -54.29645,48.88875 13.24798,-21.2012 13.24798,-21.20121 0,-25 6.89094,-24.03154 13.24798,-21.2012 m -20.13892,70.23274 18.57862,-16.72826 13.24799,-21.2012 6.89093,-24.03155 m -38.71754,61.96101 6.89094,-24.03154 6.89093,-24.03154 -6.89093,-24.03154 0,-25 6.89093,-24.03155 m 0,73.06309 13.24798,-21.2012 6.89094,-24.03155 0,-25 m -178.12965,475.08576 18.57862,-16.7283 18.57862,-16.7282 6.89093,-24.03159 13.24798,-21.2012 18.57862,-16.72827 m -38.71753,61.96106 22.46985,-10.9593 18.57862,-16.72829 13.24798,-21.20121 m -54.29644,48.8888 18.57862,-16.72831 18.57862,-16.72827 6.89092,-24.03154 13.248,-21.2012 18.57862,-16.72827 m -38.71755,61.96101 22.46985,-10.95928 18.57862,-16.72826 13.24798,-21.20121 m -54.29644,48.88875 6.89092,-24.03154 6.89094,-24.03154 -6.89094,-24.03155 0,-25 6.89094,-24.03154 m 0,73.06309 13.24799,-21.20121 6.89093,-24.03154 0,-25 m -20.13892,70.23275 13.24799,-21.20121 13.24798,-21.2012 0,-25 6.89093,-24.03154 13.24799,-21.2012 m -20.13892,70.23274 18.57862,-16.72826 13.24798,-21.20121 6.89094,-24.03153 m -38.71754,61.961 18.57862,-16.72826 18.57862,-16.72827 6.89094,-24.03154 13.24798,-21.2012 18.57862,-16.72826 m -38.71754,61.961 22.46985,-10.95928 18.57862,-16.72826 13.24799,-21.2012 m -131.73153,172.81076 22.46985,-10.95928 22.46985,-10.95928 13.24798,-21.2012 18.57862,-16.72826 22.46986,-10.95928 m -54.29646,48.88874 24.6202,-4.3412 22.46985,-10.95928 18.57862,-16.72826 m -65.66867,32.02874 18.57862,-16.72826 18.57862,-16.72827 6.89094,-24.03154 13.24798,-21.2012 18.57862,-16.72827 m -38.71754,61.96101 22.46985,-10.95928 18.57863,-16.72826 13.24798,-21.2012 m -54.29647,48.88874 13.24798,-21.2012 13.24799,-21.2012 0,-25 6.89094,-24.03154 13.24797,-21.2012 m -20.13891,70.23274 18.57862,-16.72827 13.24798,-21.2012 6.89093,-24.03154 m -147.31043,159.7385 13.24798,-21.2012 13.24797,-21.2012 0,-25 6.89094,-24.03155 13.24799,-21.2012 m -20.13892,70.23275 18.57862,-16.72827 13.24799,-21.2012 6.89093,-24.03154 m -38.71754,61.96101 13.24798,-21.20121 13.24799,-21.2012 0,-25 6.89093,-24.03154 13.24798,-21.2012 m -20.13891,70.23274 18.57862,-16.72826 13.24798,-21.20121 6.89093,-24.03153 m -38.71753,61.961 0,-25 0,-25 -13.24799,-21.2012 -6.89093,-24.03154 0,-25 m 20.13892,70.23274 6.89093,-24.03154 0,-24.99999 -6.89093,-24.03155 m 0,73.06308 6.89093,-24.03154 6.89093,-24.03154 -6.89093,-24.03154 0,-25 6.89093,-24.03154 m 0,73.06308 13.24799,-21.2012 6.89093,-24.03154 0,-25 m -20.13892,70.23274 13.24799,-21.2012 13.24798,-21.2012 0,-25 6.89093,-24.03154 13.24798,-21.20121 m -20.13891,70.23275 18.57862,-16.72827 13.24798,-21.2012 6.89093,-24.03154 m -78.99536,202.42649 18.57862,-16.72826 18.57862,-16.72827 6.89093,-24.03154 13.24798,-21.2012 18.57862,-16.72826 m -38.71753,61.961 22.46985,-10.95928 18.57862,-16.72826 13.24798,-21.2012 m -54.29645,48.88874 13.24798,-21.2012 13.24798,-21.2012 0,-25 6.89093,-24.03154 13.24799,-21.2012 m -20.13892,70.23274 18.57862,-16.72826 13.24798,-21.20121 6.89094,-24.03154 m -38.71754,61.96101 6.89093,-24.03154 6.89094,-24.03154 -6.89094,-24.03154 0,-25 6.89094,-24.03155 m 0,73.06309 13.24798,-21.2012 6.89093,-24.03155 0,-25 m -97.57398,194.15476 6.89093,-24.03154 6.89093,-24.03154 -6.89093,-24.03154 0,-25 6.89093,-24.03154 m 0,73.06308 13.24799,-21.2012 6.89093,-24.03154 0,-25 m -20.13892,70.23274 6.89094,-24.03154 6.89093,-24.03154 -6.89093,-24.03154 0,-25 6.89093,-24.03155 m 0,73.06309 13.24798,-21.2012 6.89094,-24.03155 0,-25 m -20.13892,70.23275 -6.89093,-24.03154 -6.89094,-24.03155 -18.57862,-16.72826 -13.24798,-21.2012 -6.89093,-24.03155 m 38.71753,61.96101 0,-25 -6.89093,-24.03154 -13.24798,-21.2012 m 20.13891,70.23274 0,-25 0,-25 -13.24798,-21.2012 -6.89093,-24.03154 0,-25 m 20.13891,70.23274 6.89094,-24.03154 0,-25 -6.89094,-24.03154 m 0,73.06308 6.89094,-24.03154 6.89093,-24.03154 -6.89093,-24.03154 0,-25 6.89093,-24.03155 m 0,73.06309 13.24798,-21.2012 6.89094,-24.03155 0,-25 m -20.13892,216.35892 13.24798,-21.2012 13.24798,-21.20121 0,-25 6.89094,-24.03154 13.24798,-21.2012 m -20.13892,70.23274 18.57863,-16.72826 13.24798,-21.2012 6.89093,-24.03155 m -38.71754,61.96101 6.89094,-24.03154 6.89093,-24.03154 -6.89093,-24.03154 0,-25 6.89093,-24.03155 m 0,73.06309 13.24798,-21.2012 6.89094,-24.03155 0,-25 m -20.13892,70.23275 0,-25 0,-25 -13.24798,-21.2012 -6.89093,-24.03155 0,-25 m 20.13891,70.23275 6.89094,-24.03154 0,-25 -6.89094,-24.03155"
       style="fill:#008000;stroke:#000000;stroke-width:1px;stroke-linecap:butt;stroke-linejoin:miter;stroke-opacity:1"
       inkscape:connector-curvature="0" />
  </g>
</svg>
