<?xml version="1.0" encoding="UTF-8" standalone="no"?>
<svg
   xmlns:dc="http://purl.org/dc/elements/1.1/"
   xmlns:cc="http://creativecommons.org/ns#"
   xmlns:rdf="http://www.w3.org/1999/02/22-rdf-syntax-ns#"
   xmlns:svg="http://www.w3.org/2000/svg"
   xmlns="http://www.w3.org/2000/svg"
   xmlns:sodipodi="http://sodipodi.sourceforge.net/DTD/sodipodi-0.dtd"
   xmlns:inkscape="http://www.inkscape.org/namespaces/inkscape"
   id="Layer_1"
   xml:space="preserve"
   overflow="visible"
   viewBox="0 0 402.90212 279.64772"
   version="1.1"
   enable-background="new 0 0 300.143 240.397"
   inkscape:version="0.48.4 r9939"
   width="100%"
   height="100%"
   sodipodi:docname="johnny_automatic_horse_silhouette.svg"
   style="overflow:visible"><title
   id="title4251">solution image horse</title><defs
   id="defs15"><clipPath
     clipPathUnits="userSpaceOnUse"
     id="clipPath3806"><rect
       style="color:#000000;fill:none;stroke:#02ff00;stroke-width:2.83464575;stroke-linecap:round;stroke-linejoin:round;stroke-miterlimit:4;stroke-opacity:1;stroke-dasharray:none;stroke-dashoffset:0;marker:none;visibility:visible;display:inline;overflow:visible;enable-background:accumulate"
       id="rect3808"
       width="188.44676"
       height="137.00581"
       x="489.9617"
       y="-66.720352"
       ry="0" /></clipPath><clipPath
     clipPathUnits="userSpaceOnUse"
     id="clipPath3830"><rect
       style="color:#000000;fill:none;stroke:#ff7b00;stroke-width:2.83464575;stroke-linecap:round;stroke-linejoin:round;stroke-miterlimit:4;stroke-opacity:1;stroke-dasharray:none;stroke-dashoffset:0;marker:none;visibility:visible;display:inline;overflow:visible;enable-background:accumulate"
       id="rect3832"
       width="113.06805"
       height="146.17363"
       x="472.64496"
       y="13.242208" /></clipPath><clipPath
     clipPathUnits="userSpaceOnUse"
     id="clipPath3845"><rect
       style="color:#000000;fill:none;stroke:#0b00ff;stroke-width:2.83464575;stroke-linecap:round;stroke-linejoin:round;stroke-miterlimit:4;stroke-opacity:1;stroke-dasharray:none;stroke-dashoffset:0;marker:none;visibility:visible;display:inline;overflow:visible;enable-background:accumulate"
       id="rect3847"
       width="142.60841"
       height="202.70761"
       x="398.79416"
       y="10.186315" /></clipPath></defs><sodipodi:namedview
   pagecolor="#ffffff"
   bordercolor="#666666"
   borderopacity="1"
   objecttolerance="10"
   gridtolerance="10"
   guidetolerance="10"
   inkscape:pageopacity="0"
   inkscape:pageshadow="2"
   inkscape:window-width="1098"
   inkscape:window-height="713"
   id="namedview13"
   showgrid="false"
   inkscape:zoom="3.9268377"
   inkscape:cx="199.74648"
   inkscape:cy="128.49159"
   inkscape:window-x="785"
   inkscape:window-y="139"
   inkscape:window-maximized="0"
   inkscape:current-layer="Layer_1"
   inkscape:document-units="mm"
   fit-margin-top="0"
   fit-margin-left="0"
   fit-margin-right="0"
   fit-margin-bottom="0"
   units="cm" />
	
		
	
	
<metadata
   id="metadata11"><rdf:RDF><cc:Work><dc:format>image/svg+xml</dc:format><dc:type
         rdf:resource="http://purl.org/dc/dcmitype/StillImage" /><cc:license
         rdf:resource="http://creativecommons.org/licenses/publicdomain/" /><dc:publisher><cc:Agent
           rdf:about="http://openclipart.org/"><dc:title></dc:title></cc:Agent></dc:publisher><dc:title>solution image horse</dc:title><dc:date>2014-03-30</dc:date><dc:description>Image template for the solution review of the student. 
Students paint the fields according to their solutions. 
For this, the fields have yet to be described with more appropriate solutions.</dc:description><dc:source></dc:source><dc:creator><cc:Agent><dc:title>Frank Tremmel</dc:title></cc:Agent></dc:creator><dc:subject><rdf:Bag><rdf:li>horse</rdf:li><rdf:li>Pferd</rdf:li><rdf:li>education</rdf:li><rdf:li>school</rdf:li><rdf:li>teacher</rdf:li><rdf:li>solution</rdf:li><rdf:li>image</rdf:li><rdf:li>self control</rdf:li><rdf:li>controlling</rdf:li><rdf:li>Lösungsbild</rdf:li><rdf:li>schule</rdf:li><rdf:li>Unterricht</rdf:li><rdf:li>selbstkontrolle</rdf:li><rdf:li>kontrolle</rdf:li><rdf:li></rdf:li></rdf:Bag></dc:subject><dc:contributor><cc:Agent><dc:title>johnny_automatic (OpenClipart.org)
http://openclipart.org/detail/372/horse-silhouette-by-johnny_automatic</dc:title></cc:Agent></dc:contributor></cc:Work><cc:License
       rdf:about="http://creativecommons.org/licenses/publicdomain/"><cc:permits
         rdf:resource="http://creativecommons.org/ns#Reproduction" /><cc:permits
         rdf:resource="http://creativecommons.org/ns#Distribution" /><cc:permits
         rdf:resource="http://creativecommons.org/ns#DerivativeWorks" /></cc:License></rdf:RDF></metadata><path
   style="fill:#ff0000;fill-opacity:0.35048296;stroke:#000000;stroke-width:2.83464575;stroke-miterlimit:4;stroke-opacity:1;stroke-dasharray:none"
   d="m 347.32395,43.49216 c 4.57992,-10.1131 -3.87425,-8.4417 -4.2046,-8.3422 0.003,-6.3676 9.39416,-9.1419 -5.01933,-9.7995 -6.50089,1.6597 -24.16306,-2.0631 -9.01237,-4.2553 -1.25244,-3.6048 -16.51972,-0.029 -23.1435,-3.6327 -10.37221,1.7339 -23.68946,0.231 -31.4137,10.8851 -30.20685,8.5888 -34.81084,9.2221 -39.86902,13.0943 -6.26098,1.5431 -25.51728,17.0132 -10.66915,11.3096 7.79841,-1.9093 0.46118,5.1507 -8.56118,6.1314 -10.39316,4.1276 -1.28964,2.2163 -12.72408,5.6499 -5.8197,8.7178 -8.01059,0.8739 -16.04901,14.1862 -15.61843,2.67 -30.67808,-5.6064 -46.42496,-3.5872 -16.33887,1.1443 -32.64935,5.0067 -49.053006,2.1307 -12.629576,0.6188 -27.860729,6.4264 -31.664344,19.6164 -6.974047,9.954 -4.705413,24.2048 -4.704322,36.0004 1.134651,15.3784 1.371346,30.7856 5.193775,45.8062 5.953813,10.5855 -4.83948,31.392 7.628,35.332 4.18858,-7.6686 5.149119,-0.6036 8.116026,-1.679 4.121097,-5.1611 6.513185,-12.102 15.432661,-13.9377 3.663353,-7.0372 -2.068184,-27.6429 8.601063,-13.2912 7.210197,6.0121 14.329237,18.2956 15.003877,23.0855 -1.44086,1.1292 -11.39549,-1.4934 -8.76835,7.1118 -2.63398,20.3592 18.62712,4.9659 18.3401,-6.3552 5.12205,-5.2409 8.23445,12.4059 12.77736,16.6157 3.64176,10.0595 9.58668,21.5677 18.3476,22.4671 -2.03046,15.7962 34.63586,10.5494 17.11846,0.6416 -14.46206,-10.5203 -29.83447,-24.2479 -30.51067,-43.4883 4.67641,-11.5386 14.52237,-21.284 23.09189,-30.4048 11.60809,-5.0673 10.99126,-26.0397 25.21737,-15.1103 13.68863,5.6543 28.835,5.8588 43.07667,6.3467 3.94505,11.9137 7.77339,25.0764 7.11897,37.9407 1.42871,10.823 5.88184,21.6879 4.9503,33.1145 -0.20355,7.3664 2.95975,9.9502 6.46037,7.6423 1.26971,8.0467 2.61717,14.8007 12.27484,12.7406 12.93933,3.1838 7.07465,-11.6008 -1.60722,-14.3667 -11.67284,-13.1535 -8.10157,-32.2819 -8.88904,-48.4411 -0.70542,-13.3428 1.59699,-30.3412 19.56325,-26.3534 12.66887,2.7815 27.01055,-9.5616 38.01108,0.018 8.2046,10.2 8.18973,27.9696 10.03859,36.2174 -14.84969,4.3255 7.07312,33.9441 11.03647,11.3047 3.06902,-13.9968 -3.46684,-28.7164 -7.8327,-42.1021 -1.06392,-14.9505 -10.80162,-26.8081 -26.67666,-25.1583 -17.62595,-1.916 1.7902,-22.4931 -4.8563,-32.8588 -6.0772,-12.8402 -2.26985,-31.3749 8.88874,-40.027 14.23554,5.0827 8.21154,23.7291 12.31941,33.0114 9.35866,11.0107 28.64516,1.3798 21.13399,-12.4069 -0.64659,-10.2388 5.94238,-23.0923 8.30503,-27.4013 -0.53584,8.5612 3.22181,18.5191 3.73046,12.2708 0.4203,7.4309 4.6099,4.4971 5.89505,0.2748 3.63963,-3.3432 0.78257,-14.112 -1.31519,-15.7291 2.41214,-8.5305 -2.83939,-15.7346 -4.7027,-22.2177 z m -245.3768,115.8261 c -6.115814,4.0363 -14.241088,5.2659 -9.971579,-3.6908 -1.842379,-15.3981 -1.277119,-31.9565 -4.209199,-47.5051 1.315727,-9.9227 9.308354,-15.7225 18.500778,-19.3621 -10.649687,11.752 -12.661074,28.228 -7.061297,42.7898 1.349857,10.6115 21.661347,19.8518 5.681767,26.2017 l -1.42747,0.8455 -1.513,0.723 m 12.0885,25.7586 c -15.6344,-12.9955 22.08764,-17.423 29.2416,-15.65072 -1.96902,11.00379 -23.57657,26.92731 -29.2416,15.65072 z"
   id="path9"
   inkscape:connector-curvature="0"
   sodipodi:nodetypes="cccccccccccccccccccccccccccccccccccccccccccccccccccccccccccccc" /><g
   id="g4191"><path
     style="fill:#221e1f;stroke:#000000;stroke-opacity:1"
     inkscape:connector-curvature="0"
     id="path3"
     d="m 104.09415,120.39146 c 0,0.01 -0.001,0.017 -0.001,0.026 -10e-4,-0.01 0,-0.02 0.001,-0.03 z m -3.024,-34.964 h -0.002 0.002 z" /><line
     style="fill:none;stroke:#000000;stroke-width:0;stroke-linecap:round;stroke-linejoin:round;stroke-opacity:1"
     id="line5"
     x1="101.07015"
     x2="101.06815"
     y1="85.427299"
     y2="85.427299" /><path
     style="fill:none;stroke:#000000;stroke-width:0;stroke-linecap:round;stroke-linejoin:round;stroke-opacity:1"
     inkscape:connector-curvature="0"
     id="path7"
     d="m 104.09215,120.42146 c 0,-0.01 10e-4,-0.017 10e-4,-0.026" /><path
     sodipodi:nodetypes="ccccccccccccccc"
     transform="translate(-264.95477,68.39306)"
     clip-path="url(#clipPath3806)"
     inkscape:connector-curvature="0"
     id="path9-2"
     d="m 665.18093,3.5685018 c 2.41264,-8.522022 -8.1867,-14.9621598 -10.05001,-21.4453228 6.83863,-2.943761 6.37001,-12.300849 -1.11418,-5.021281 -4.8122,1.849979 8.69884,-7.050975 -3.09042,-3.320906 -5.73435,3.218195 -21.16894,-7.24813 -7.97758,-5.474141 8.50419,1.31378 15.50923,-6.42078 2.95825,-4.325343 -6.50089,1.659661 -24.16306,-2.063138 -9.01237,-4.255313 -1.25244,-3.604748 -20.59425,0.989561 -27.21803,-2.614088 m 5.43611,60.774463 c 14.23554,5.082783 2.86373,20.163904 6.9716,29.446196 9.35866,11.010717 28.64516,1.379863 21.13399,-12.406866 -0.64659,-10.238749 5.94238,-23.092302 8.30503,-27.4012857 -0.53584,8.5612247 3.22181,18.5190627 3.73046,12.2708027 0.52597,7.457343 6.15548,4.565142 5.13108,-0.234479 3.89428,3.023184 7.14901,-11.8201368 5.05175,-13.4288578"
     style="fill:none;stroke:#000000;stroke-width:2.83464575;stroke-miterlimit:4;stroke-opacity:1;stroke-dasharray:none" /><path
     sodipodi:nodetypes="cccccccccccccc"
     transform="translate(-220.135,109.64756)"
     clip-path="url(#clipPath3830)"
     inkscape:connector-curvature="0"
     id="path9-4"
     d="m 481.69425,58.811953 c 3.94505,11.91375 7.77339,25.07641 7.11897,37.94074 1.42871,10.822957 5.88184,21.687917 4.9503,33.114477 -0.20355,7.36639 2.95975,9.95024 6.46037,7.64231 1.26971,8.04667 2.61717,14.80074 12.27484,12.74058 12.93933,3.18381 7.07465,-11.60075 -1.60722,-14.36666 -11.67284,-13.15355 -8.10157,-32.28191 -8.88904,-48.441097 2.35047,-10.796232 15.09386,-21.428135 33.56943,-21.51487 m 7.875,-10.177045 c 5.84566,0.150837 11.43183,1.265399 16.1299,5.356745 8.2046,10.20001 5.38849,28.47887 10.03859,36.21741 -14.84969,4.325407 3.25325,33.180037 7.2166,10.540687 3.06902,-13.996797 4.93687,-31.008351 0.57101,-44.394021 -1.06392,-14.95053 -15.38546,-40.559613 -31.2605,-38.909783"
     style="fill:none;stroke:#000000;stroke-width:2.83464575;stroke-miterlimit:4;stroke-opacity:1;stroke-dasharray:none" /><path
     sodipodi:nodetypes="csccccccccccccc"
     transform="matrix(1.0775377,0,0,1,-423.45726,57.18806)"
     clip-path="url(#clipPath3845)"
     inkscape:connector-curvature="0"
     id="path9-7"
     d="m 494.15141,20.893201 c -6.17329,-0.512922 -12.16396,1.018936 -18.31704,-1.210227 -9.66924,-3.503013 -20.18151,1.664589 -30.49963,-0.224242 -12.62957,0.618812 -21.47974,5.91712 -25.28335,19.107043 -6.97405,9.954031 -4.70542,24.204812 -4.70432,36.000402 1.13465,15.378427 1.37134,30.785663 5.19377,45.806183 5.95381,10.58552 -4.83948,31.39206 7.628,35.332 5.3567,-1.93183 5.62009,-0.49735 8.88,-1.679 10.39406,-5.59394 6.24168,-5.62667 12.06903,-11.90036 m 14.36392,13.08618 c -2.13469,20.35922 15.31845,13.87894 15.03143,2.55785 5.12206,-5.24088 8.23446,5.78483 12.77737,9.99462 3.64176,10.05951 5.56902,24.11429 14.32994,25.01361 -2.03046,15.79622 39.36252,9.53077 21.84512,-0.37699 -13.02151,-3.44848 -24.34985,-25.36384 -19.72165,-36.0945"
     style="fill:none;stroke:#000000;stroke-width:2.7307539;stroke-miterlimit:4;stroke-opacity:1;stroke-dasharray:none" /><path
     sodipodi:nodetypes="ccc"
     inkscape:connector-curvature="0"
     id="path3851"
     d="m 88.76496,104.04506 c -7.899836,-13.0242 -19.719002,-5.6506 -31.322914,-5.0931 -16.628289,-5.4252 -20.858595,4.07915 -33.614834,13.49685"
     style="fill:none;stroke:#000000;stroke-width:2.83464575;stroke-linecap:butt;stroke-linejoin:miter;stroke-miterlimit:4;stroke-opacity:1;stroke-dasharray:none" /><path
     sodipodi:nodetypes="cccc"
     inkscape:connector-curvature="0"
     id="path3853"
     d="M 105.57238,89.020302 143.77105,75.26876 c -0.29454,20.0863 9.88454,26.4623 -12.98755,76.652 -7.69544,-1.13 -13.89477,-0.2865 -20.37262,1.0186"
     style="fill:none;stroke:#000000;stroke-width:2.83464575;stroke-linecap:butt;stroke-linejoin:miter;stroke-miterlimit:4;stroke-opacity:1;stroke-dasharray:none" /><path
     sodipodi:nodetypes="ccc"
     inkscape:connector-curvature="0"
     id="path3855"
     d="m 56.93273,166.18156 c 9.892715,-9.7796 22.536456,-9.7342 37.180045,-2.5465 -5.237188,5.4327 -3.518129,10.8654 0,16.2981"
     style="fill:none;stroke:#000000;stroke-width:2.83464575;stroke-linecap:butt;stroke-linejoin:miter;stroke-miterlimit:4;stroke-opacity:1;stroke-dasharray:none" /><path
     sodipodi:nodetypes="cc"
     inkscape:connector-curvature="0"
     id="path3857"
     d="m 101.75251,186.29956 c 0.85931,-5.7819 4.87095,-8.3837 9.42234,-10.441"
     style="fill:none;stroke:#000000;stroke-width:2.83464575;stroke-linecap:butt;stroke-linejoin:miter;stroke-miterlimit:4;stroke-opacity:1;stroke-dasharray:none" /><path
     sodipodi:nodetypes="ccscc"
     inkscape:connector-curvature="0"
     id="path3859"
     d="m 143.26174,169.4922 c 7.07041,2.0123 13.13229,4.0146 16.80742,9.67697 10.00838,0.93419 6.59329,16.82153 13.22569,21.99083 5.12113,3.99142 20.03732,-1.90351 28.03358,-4.33124 13.56925,-2.6308 27.8144,-4.0644 38.70328,0.6758"
     style="fill:none;stroke:#000000;stroke-width:2.83464575;stroke-linecap:butt;stroke-linejoin:miter;stroke-miterlimit:4;stroke-opacity:1;stroke-dasharray:none" /><path
     sodipodi:nodetypes="ccc"
     inkscape:connector-curvature="0"
     id="path3863"
     d="m 24.336527,144.53569 c 20.216554,3.3233 20.335321,-9.70033 29.794967,-21.13663 4.481265,1.71 21.584754,6.9413 35.39744,4.3292"
     style="fill:none;stroke:#000000;stroke-width:2.83464575;stroke-linecap:butt;stroke-linejoin:miter;stroke-miterlimit:4;stroke-opacity:1;stroke-dasharray:none" /><path
     sodipodi:nodetypes="cc"
     inkscape:connector-curvature="0"
     id="path3865"
     d="m 56.93273,165.67226 c -11.647836,9.3523 -14.989716,12.0424 -25.975098,14.7702"
     style="fill:none;stroke:#000000;stroke-width:2.83464575;stroke-linecap:butt;stroke-linejoin:miter;stroke-miterlimit:4;stroke-opacity:1;stroke-dasharray:none" /><path
     sodipodi:nodetypes="ccc"
     inkscape:connector-curvature="0"
     id="path3869"
     d="m 152.42942,229.84606 c 17.04232,-3.3497 34.06148,-6.764 53.71803,-2.8273 14.38591,7.0207 25.63931,-0.5769 38.21345,-2.0112"
     style="fill:none;stroke:#000000;stroke-width:2.83464575;stroke-linecap:butt;stroke-linejoin:miter;stroke-miterlimit:4;stroke-opacity:1;stroke-dasharray:none" /><path
     sodipodi:nodetypes="ccccc"
     inkscape:connector-curvature="0"
     id="path3871"
     d="m 197.50385,161.59776 c 1.24058,10.3359 13.15394,21.3739 5.33707,34.1252 -4.75252,12.8513 -5.54228,21.0902 3.23213,31.2362 11.79771,13.6259 12.26565,32.9167 16.64193,50.2533 -16.25833,-6.0635 -32.62828,-11.8814 -45.58375,-25.2112"
     style="fill:none;stroke:#000000;stroke-width:2.83464575;stroke-linecap:butt;stroke-linejoin:miter;stroke-miterlimit:4;stroke-opacity:1;stroke-dasharray:none" /><path
     sodipodi:nodetypes="cc"
     inkscape:connector-curvature="0"
     id="path3873"
     d="m 130.78351,151.92078 50.6769,4.32918"
     style="fill:none;stroke:#000000;stroke-width:2.83464575;stroke-linecap:butt;stroke-linejoin:miter;stroke-miterlimit:4;stroke-opacity:1;stroke-dasharray:none" /><path
     sodipodi:nodetypes="ccccccc"
     inkscape:connector-curvature="0"
     id="path3875"
     d="m 96.150038,112.95816 48.941372,-2.9069 c 23.48976,18.4059 31.3197,12.8615 44.2244,15.0784 28.2718,-27.2107 63.4046,-30.898 101.13815,-25.6684 -11.00226,14.42168 -30.54315,11.62812 -35.32472,36.1831 m -21.20931,30.7919 c 24.14065,-22.6956 39.39636,-25.3922 58.31664,-19.8633"
     style="fill:none;stroke:#000000;stroke-width:2.83464575;stroke-linecap:butt;stroke-linejoin:bevel;stroke-miterlimit:4;stroke-opacity:1;stroke-dasharray:none" /><rect
     y="2.4370658"
     x="2.1812961"
     height="275.79443"
     width="399.3035"
     id="rect3877"
     style="color:#000000;fill:none;stroke:#000000;stroke-width:2.83464581999999998;stroke-linecap:round;stroke-linejoin:miter;stroke-miterlimit:4;stroke-opacity:1;stroke-dasharray:none;stroke-dashoffset:0;marker:none;visibility:visible;display:inline;overflow:visible;enable-background:accumulate" /><path
     sodipodi:nodetypes="ccc"
     inkscape:connector-curvature="0"
     id="path3879"
     d="m 180.44178,79.34326 8.91302,45.58376 -9.16768,31.32294"
     style="fill:none;stroke:#000000;stroke-width:2.83464575;stroke-linecap:butt;stroke-linejoin:miter;stroke-miterlimit:4;stroke-opacity:1;stroke-dasharray:none" /><path
     sodipodi:nodetypes="cssccc"
     inkscape:connector-curvature="0"
     id="path3881"
     d="m 144.02571,75.01406 c 10.14364,-3.8617 19.5237,-8.7415 29.41301,-12.9424 7.52508,-3.1965 13.30777,-8.8011 24.02063,-7.6624 6.21765,0.6609 12.71058,-1.782 19.90782,-1.5504 1.86331,-15.5035 11.0156,-23.4951 22.15523,-31.5776 11.80826,-5.6727 36.30905,-4.91 52.20486,-2.8012"
     style="fill:none;stroke:#000000;stroke-width:2.83464575;stroke-linecap:butt;stroke-linejoin:miter;stroke-miterlimit:4;stroke-opacity:1;stroke-dasharray:none" /><path
     sodipodi:nodetypes="ccc"
     inkscape:connector-curvature="0"
     id="path3883"
     d="m 196.73988,118.81526 c 9.61973,3.1519 9.16036,9.7189 33.1716,7.9944 10.59904,0.8425 32.19092,10.02479 37.36863,18.99929"
     style="fill:none;stroke:#000000;stroke-width:2.83464575;stroke-linecap:butt;stroke-linejoin:miter;stroke-miterlimit:4;stroke-opacity:1;stroke-dasharray:none" /><path
     sodipodi:nodetypes="csc"
     inkscape:connector-curvature="0"
     id="path3885"
     d="m 248.43542,98.44266 c -1.74601,14.6645 -12.72125,23.2419 -22.14638,32.3216 -10.51731,10.1319 -19.91614,20.4521 -29.03984,31.5975"
     style="fill:none;stroke:#000000;stroke-width:2.83464575;stroke-linecap:butt;stroke-linejoin:miter;stroke-miterlimit:4;stroke-opacity:1;stroke-dasharray:none" /><path
     sodipodi:nodetypes="cc"
     inkscape:connector-curvature="0"
     id="path3887"
     d="m 266.77079,145.80896 c 14.84456,7.87545 3.47851,19.89627 -5.09316,23.42855"
     style="fill:none;stroke:#000000;stroke-width:2.83464575;stroke-linecap:butt;stroke-linejoin:miter;stroke-miterlimit:4;stroke-opacity:1;stroke-dasharray:none" /><path
     inkscape:connector-curvature="0"
     id="path3889"
     d="m 266.77079,245.63486 10.44097,2.2919"
     style="fill:none;stroke:#000000;stroke-width:2.83464575;stroke-linecap:butt;stroke-linejoin:miter;stroke-miterlimit:4;stroke-opacity:1;stroke-dasharray:none" /><path
     sodipodi:nodetypes="cc"
     inkscape:connector-curvature="0"
     id="path3891"
     d="m 313.62783,107.86496 c 12.27323,19.0594 13.79676,14.86839 19.60866,26.99371"
     style="fill:none;stroke:#000000;stroke-width:2.83464575;stroke-linecap:butt;stroke-linejoin:miter;stroke-miterlimit:4;stroke-opacity:1;stroke-dasharray:none" /><path
     inkscape:connector-curvature="0"
     id="path3895"
     d="M 225.51622,2.9459597 237.73979,22.80926"
     style="fill:none;stroke:#000000;stroke-width:2.83464575;stroke-linecap:butt;stroke-linejoin:miter;stroke-miterlimit:4;stroke-opacity:1;stroke-dasharray:none" /><path
     sodipodi:nodetypes="ccccccccc"
     inkscape:connector-curvature="0"
     id="path3897"
     d="m 54.386152,76.28736 -0.254658,-20.8819 c -23.670133,4.6024 -40.928061,18.3168 -51.695541,41.2546 17.612658,10.3824 18.507006,30.9124 22.155232,47.3663 -2.587045,17.4431 -9.851239,36.7005 -22.155232,45.0744 1.812876,12.2437 17.581876,11.09161 28.012362,16.04351 7.492874,12.51975 -13.377383,34.90402 -28.2670204,33.36019 9.5686074,21.8083 18.4755584,27.2084 36.6707294,39.7266 l 5.093157,-31.5776"
     style="fill:none;stroke:#000000;stroke-width:2.83464575;stroke-linecap:butt;stroke-linejoin:bevel;stroke-miterlimit:4;stroke-opacity:1;stroke-dasharray:none" /><path
     sodipodi:nodetypes="ccc"
     inkscape:connector-curvature="0"
     id="path3899"
     d="m 53.876836,55.66006 c 17.143101,-6.05 36.500957,1.1884 54.751434,1.7826 26.96015,8.5809 53.14053,1.5665 79.45325,-2.8012"
     style="fill:none;stroke:#000000;stroke-width:2.83464575;stroke-linecap:butt;stroke-linejoin:miter;stroke-miterlimit:4;stroke-opacity:1;stroke-dasharray:none" /><path
     inkscape:connector-curvature="0"
     id="path3901"
     d="m 108.88293,57.18806 -0.25466,21.1366"
     style="fill:none;stroke:#000000;stroke-width:2.83464575;stroke-linecap:butt;stroke-linejoin:miter;stroke-miterlimit:4;stroke-opacity:1;stroke-dasharray:none" /><path
     sodipodi:nodetypes="cc"
     inkscape:connector-curvature="0"
     id="path3903"
     d="M 225.51622,3.4552597 C 200.51698,19.51496 194.24325,37.01516 186.29891,54.38686"
     style="fill:none;stroke:#000000;stroke-width:2.83464575;stroke-linecap:butt;stroke-linejoin:miter;stroke-miterlimit:4;stroke-opacity:1;stroke-dasharray:none" /><path
     sodipodi:nodetypes="cccc"
     inkscape:connector-curvature="0"
     id="path3907"
     d="m 205.65291,227.04483 -20.11797,32.34153 c 1.08567,4.9477 -13.76332,13.5199 -30.30428,12.9876 l -14.77016,5.0931"
     style="fill:none;stroke:#000000;stroke-width:2.83464575;stroke-linecap:butt;stroke-linejoin:miter;stroke-miterlimit:4;stroke-opacity:1;stroke-dasharray:none" /><path
     sodipodi:nodetypes="ccc"
     inkscape:connector-curvature="0"
     id="path3911"
     d="m 32.485578,209.21879 c 2.49638,13.7652 -2.92766,28.90577 10.695629,37.43467 13.277015,-1.7851 24.324483,-7.3483 36.925386,-20.6273"
     style="fill:none;stroke:#000000;stroke-width:2.83464575;stroke-linecap:butt;stroke-linejoin:miter;stroke-miterlimit:4;stroke-opacity:1;stroke-dasharray:none" /><path
     sodipodi:nodetypes="cc"
     inkscape:connector-curvature="0"
     id="path3913"
     d="m 301.1496,76.28736 c 12.13177,-12.1651 25.75621,-25.3753 45.8384,-31.5775"
     style="fill:none;stroke:#000000;stroke-width:2.83464575;stroke-linecap:butt;stroke-linejoin:miter;stroke-miterlimit:4;stroke-opacity:1;stroke-dasharray:none" /><path
     sodipodi:nodetypes="cc"
     inkscape:connector-curvature="0"
     id="path3915"
     d="m 350.80787,86.219086 c 9.4889,-12.219665 16.99778,-29.398626 38.708,-35.397526"
     style="fill:none;stroke:#000000;stroke-width:2.83464575;stroke-linecap:butt;stroke-linejoin:miter;stroke-miterlimit:4;stroke-opacity:1;stroke-dasharray:none" /><path
     inkscape:connector-curvature="0"
     id="path3919"
     d="M 290.70862,18.98936 290.19931,1.4179597"
     style="fill:none;stroke:#000000;stroke-width:2.83464575;stroke-linecap:butt;stroke-linejoin:miter;stroke-miterlimit:4;stroke-opacity:1;stroke-dasharray:none" /><path
     sodipodi:nodetypes="cc"
     inkscape:connector-curvature="0"
     id="path3921"
     d="m 345.71472,25.86516 c 9.44554,-6.5923 23.22081,-11.1336 20.62729,-23.4285003"
     style="fill:none;stroke:#000000;stroke-width:2.83464575;stroke-linecap:butt;stroke-linejoin:miter;stroke-miterlimit:4;stroke-opacity:1;stroke-dasharray:none" /><path
     sodipodi:nodetypes="ccccc"
     inkscape:connector-curvature="0"
     id="path3923"
     d="m 294.01918,117.03266 c 11.70736,-9.5976 15.60652,12.5908 27.50304,16.0434 l 8.40371,1.2733 c 13.18199,4.1211 16.00242,-3.27488 19.35399,-10.95028 3.19326,-3.81838 9.20775,-6.76711 14.51551,-3.31051"
     style="fill:none;stroke:#000000;stroke-width:2.83464575;stroke-linecap:butt;stroke-linejoin:miter;stroke-miterlimit:4;stroke-opacity:1;stroke-dasharray:none" /><path
     sodipodi:nodetypes="cc"
     inkscape:connector-curvature="0"
     id="path3925"
     d="m 226.53485,53.36816 c -1.29246,19.3271 6.0501,34.149 20.37263,45.3291"
     style="fill:none;stroke:#000000;stroke-width:2.83464575;stroke-linecap:butt;stroke-linejoin:miter;stroke-miterlimit:4;stroke-opacity:1;stroke-dasharray:none" /><path
     sodipodi:nodetypes="cc"
     inkscape:connector-curvature="0"
     id="path3927"
     d="m 197.50386,118.30596 c 10.90543,-16.1242 18.49985,-33.7658 13.2422,-57.298"
     style="fill:none;stroke:#000000;stroke-width:2.83464575;stroke-linecap:butt;stroke-linejoin:miter;stroke-miterlimit:4;stroke-opacity:1;stroke-dasharray:none" /><path
     sodipodi:nodetypes="cccc"
     inkscape:connector-curvature="0"
     id="path3929"
     d="m 227.04417,54.89616 c 8.82233,2.4819 16.50212,6.7157 35.14278,-5.8572 11.64438,-1.0134 23.57252,-0.3243 32.5962,-17.062 14.46252,12.6474 30.95297,6.270026 47.36636,3.310526"
     style="fill:none;stroke:#000000;stroke-width:2.83464575;stroke-linecap:butt;stroke-linejoin:miter;stroke-miterlimit:4;stroke-opacity:1;stroke-dasharray:none" /><path
     sodipodi:nodetypes="cc"
     inkscape:connector-curvature="0"
     id="path3931"
     d="m 274.91984,28.92106 c 4.17856,7.2975 11.88644,4.7129 19.35399,2.8012"
     style="fill:none;stroke:#000000;stroke-width:2.83464575;stroke-linecap:butt;stroke-linejoin:miter;stroke-miterlimit:4;stroke-opacity:1;stroke-dasharray:none" /><path
     sodipodi:nodetypes="ccccccccc"
     inkscape:connector-curvature="0"
     id="path3933"
     d="m 289.68999,184.51701 c 7.25707,5.2813 20.24003,4.37325 15.02482,18.84465 l -4.58384,8.6584 c -12.33985,-3.26 1.60655,28.8883 8.91302,16.5527 8.14422,-23.73613 8.50172,-5.01768 17.57139,-3.3105 l 8.14905,9.4223 c 2.47875,9.1401 -3.90397,14.0908 23.17386,14.0062 7.78634,-5.022 1.88237,-7.0017 -2.03726,-9.4223 -0.27417,-10.151 -3.8565,-8.3343 0.50932,-21.1367"
     style="fill:none;stroke:#000000;stroke-width:2.83464575;stroke-linecap:butt;stroke-linejoin:miter;stroke-miterlimit:4;stroke-opacity:1;stroke-dasharray:none" /><path
     sodipodi:nodetypes="cc"
     inkscape:connector-curvature="0"
     id="path3935"
     d="m 255.56584,256.07586 c -12.54994,5.6314 -3.59425,13.5878 8.65837,21.9005"
     style="fill:none;stroke:#000000;stroke-width:2.83464575;stroke-linecap:butt;stroke-linejoin:miter;stroke-miterlimit:4;stroke-opacity:1;stroke-dasharray:none" /><path
     sodipodi:nodetypes="cc"
     inkscape:connector-curvature="0"
     id="path3937"
     d="m 296.82041,249.96406 c 34.12586,3.7811 28.34012,19.8485 35.14278,27.7577"
     style="fill:none;stroke:#000000;stroke-width:2.83464575;stroke-linecap:butt;stroke-linejoin:miter;stroke-miterlimit:4;stroke-opacity:1;stroke-dasharray:none" /><path
     sodipodi:nodetypes="cc"
     inkscape:connector-curvature="0"
     id="path3939"
     d="m 336.80169,244.87086 c -5.7561,-4.3579 -18.48678,-4.7724 -24.44715,8.913"
     style="fill:none;stroke:#000000;stroke-width:2.83464575;stroke-linecap:butt;stroke-linejoin:miter;stroke-miterlimit:4;stroke-opacity:1;stroke-dasharray:none" /><path
     sodipodi:nodetypes="cc"
     inkscape:connector-curvature="0"
     id="path3941"
     d="m 2.690611,29.93966 c 18.886187,1.0441 38.080191,0.703 51.695541,25.4658"
     style="fill:none;stroke:#000000;stroke-width:2.83464575;stroke-linecap:butt;stroke-linejoin:miter;stroke-miterlimit:4;stroke-opacity:1;stroke-dasharray:none" /><path
     sodipodi:nodetypes="ccccccc"
     inkscape:connector-curvature="0"
     id="path3943"
     d="M 173.0567,3.7098597 C 169.64665,16.27306 165.21453,28.83616 168.98218,41.39926 c -13.15496,-2.3766 -23.47262,-13.781 -43.54649,5.8571 -37.631734,-28.1723 -53.721921,-3.6912 -91.422165,-11.7142 37.080351,-10.5978 38.079952,-22.145 51.695541,-33.3602003 12.338427,7.7621 22.727094,13.9568003 47.111704,16.2981003 -6.26613,7.3851 -9.36947,21.6459 -7.13042,29.031"
     style="fill:none;stroke:#000000;stroke-width:2.93385816;stroke-linecap:butt;stroke-linejoin:bevel;stroke-miterlimit:4;stroke-opacity:1;stroke-dasharray:none" /><path
     sodipodi:nodetypes="cc"
     inkscape:connector-curvature="0"
     id="path3945"
     d="m 108.88293,56.93336 c 0.66863,-6.2894 11.06017,-7.0055 16.55276,-9.677"
     style="fill:none;stroke:#000000;stroke-width:2.83464575;stroke-linecap:butt;stroke-linejoin:miter;stroke-miterlimit:4;stroke-opacity:1;stroke-dasharray:none" /><path
     sodipodi:nodetypes="cc"
     inkscape:connector-curvature="0"
     id="path3947"
     d="m 169.23683,41.39926 c 5.53716,1.3841 10.33698,6.0905 16.55277,14.2608"
     style="fill:none;stroke:#000000;stroke-width:2.83464575;stroke-linecap:butt;stroke-linejoin:miter;stroke-miterlimit:4;stroke-opacity:1;stroke-dasharray:none" /><path
     sodipodi:nodetypes="cccc"
     inkscape:connector-curvature="0"
     id="path3949"
     d="m 301.65891,76.28736 c -18.7831,1.5298 -26.97139,-17.0705 -39.72662,-26.9937 l 0,0 c 0.81136,19.2655 -1.09595,37.0356 -13.75152,48.8943"
     style="fill:none;stroke:#000000;stroke-width:2.83464575;stroke-linecap:butt;stroke-linejoin:bevel;stroke-miterlimit:4;stroke-opacity:1;stroke-dasharray:none" /><path
     sodipodi:nodetypes="cccccc"
     inkscape:connector-curvature="0"
     id="path3951"
     d="m 79.34262,225.77156 c 3.796735,1.8596 8.150455,-0.1796 10.695629,10.4409 9.403278,-0.3514 12.821771,6.9919 12.732891,18.8447 -7.154131,9.5743 -5.380822,11.895 -1.7826,12.7329 29.24941,5.2781 31.12026,2.0384 30.30428,-2.0372 l -8.91302,-10.1863"
     style="fill:none;stroke:#000000;stroke-width:2.83464575;stroke-linecap:butt;stroke-linejoin:miter;stroke-miterlimit:4;stroke-opacity:1;stroke-dasharray:none" /><path
     sodipodi:nodetypes="cc"
     inkscape:connector-curvature="0"
     id="path3953"
     d="m 141.47913,277.72176 c -11.26224,1.5364 -16.23626,-0.5204 -13.24221,-7.1304"
     style="fill:none;stroke:#000000;stroke-width:2.83464575;stroke-linecap:butt;stroke-linejoin:miter;stroke-miterlimit:4;stroke-opacity:1;stroke-dasharray:none" /><path
     sodipodi:nodetypes="cc"
     inkscape:connector-curvature="0"
     id="path3955"
     d="m 44.454496,247.16276 c 13.301073,3.1053 25.460291,4.5642 53.223489,18.8447"
     style="fill:none;stroke:#000000;stroke-width:2.83464575;stroke-linecap:butt;stroke-linejoin:miter;stroke-miterlimit:4;stroke-opacity:1;stroke-dasharray:none" /><path
     sodipodi:nodetypes="cccc"
     inkscape:connector-curvature="0"
     id="path3957"
     d="m 379.32955,107.10096 c 4.92955,20.4491 8.73289,41.2447 22.15523,59.0806 -6.30565,28.6789 -29.3423,42.3879 -47.62101,60.354 22.84563,-2.3553 38.08519,5.515 47.36635,18.0807"
     style="fill:none;stroke:#000000;stroke-width:2.83464575;stroke-linecap:butt;stroke-linejoin:bevel;stroke-miterlimit:4;stroke-opacity:1;stroke-dasharray:none" /><path
     sodipodi:nodetypes="cc"
     inkscape:connector-curvature="0"
     id="path3959"
     d="m 336.03772,135.87736 c 25.34905,-6.633 45.11346,12.563 65.19241,30.3042"
     style="fill:none;stroke:#000000;stroke-width:2.83464575;stroke-linecap:butt;stroke-linejoin:miter;stroke-miterlimit:4;stroke-opacity:1;stroke-dasharray:none" /><path
     sodipodi:nodetypes="ccc"
     inkscape:connector-curvature="0"
     id="path3961"
     d="m 355.64637,135.36806 c 19.35815,17.564 22.80598,42.7159 21.13661,69.7762 8.59961,5.2368 19.13149,10.5786 23.93784,19.6086"
     style="fill:none;stroke:#000000;stroke-width:2.83464575;stroke-linecap:butt;stroke-linejoin:miter;stroke-miterlimit:4;stroke-opacity:1;stroke-dasharray:none" /><path
     sodipodi:nodetypes="cc"
     inkscape:connector-curvature="0"
     id="path3963"
     d="m 359.7209,247.41746 c 19.28056,5.3586 29.87095,18.7928 40.4906,30.8136"
     style="fill:none;stroke:#000000;stroke-width:2.83464575;stroke-linecap:butt;stroke-linejoin:miter;stroke-miterlimit:4;stroke-opacity:1;stroke-dasharray:none" /><path
     inkscape:connector-curvature="0"
     id="path3965"
     d="M 58.715335,99.20656 z"
     style="fill:none;stroke:#000000;stroke-width:1px;stroke-linecap:butt;stroke-linejoin:miter;stroke-opacity:1" /></g></svg>