<?xml version="1.0" encoding="UTF-8" standalone="no"?>
<!-- Created with Inkscape (http://www.inkscape.org/) -->

<svg
   xmlns:dc="http://purl.org/dc/elements/1.1/"
   xmlns:cc="http://creativecommons.org/ns#"
   xmlns:rdf="http://www.w3.org/1999/02/22-rdf-syntax-ns#"
   xmlns:svg="http://www.w3.org/2000/svg"
   xmlns="http://www.w3.org/2000/svg"
   xmlns:sodipodi="http://sodipodi.sourceforge.net/DTD/sodipodi-0.dtd"
   xmlns:inkscape="http://www.inkscape.org/namespaces/inkscape"
   width="25"
   height="25"
   id="svg2"
   version="1.1"
   inkscape:version="0.48.4 r9939"
   sodipodi:docname="berry.svg">
  <defs
     id="defs4" />
  <sodipodi:namedview
     id="base"
     pagecolor="#ffffff"
     bordercolor="#666666"
     borderopacity="1.0"
     inkscape:pageopacity="0.0"
     inkscape:pageshadow="2"
     inkscape:zoom="3.959798"
     inkscape:cx="71.879951"
     inkscape:cy="68.444455"
     inkscape:document-units="px"
     inkscape:current-layer="layer1"
     showgrid="false"
     inkscape:window-width="1600"
     inkscape:window-height="837"
     inkscape:window-x="-8"
     inkscape:window-y="-8"
     inkscape:window-maximized="1" />
  <metadata
     id="metadata7">
    <rdf:RDF>
      <cc:Work
         rdf:about="">
        <dc:format>image/svg+xml</dc:format>
        <dc:type
           rdf:resource="http://purl.org/dc/dcmitype/StillImage" />
        <dc:title />
      </cc:Work>
    </rdf:RDF>
  </metadata>
  <g
     inkscape:label="Calque 1"
     inkscape:groupmode="layer"
     id="layer1"
     transform="translate(0,-1027.3622)">
    <g
       transform="matrix(0.92477782,0.38050754,-0.38050754,0.92477782,195.47977,200.36525)"
       id="g3066">
      <path
         inkscape:connector-curvature="0"
         transform="translate(-117.14286,14.642857)"
         style="fill:#ff0000;fill-opacity:1;stroke:none"
         d="m 279.64287,831.82648 c 0,6.60769 -5.51649,11.96428 -12.32143,11.96428 -6.80494,0 -12.32143,-5.35659 -12.32143,-11.96428 0,-6.6077 5.51649,-11.96429 12.32143,-11.96429 6.80494,0 12.32143,5.35659 12.32143,11.96429 z"
         id="path3068" />
      <path
         style="fill:#800000;fill-opacity:1;stroke:none"
         d="m 160.02232,854.30418 c 0,0.98622 -0.87944,1.78571 -1.96429,1.78571 -1.08484,0 -2.00892,1.41033 -2.00892,0.42412 0,-0.98623 3.15622,-4.08483 4.24106,-4.08483 1.08485,0 -0.26785,0.88878 -0.26785,1.875 z"
         id="path3070"
         inkscape:connector-curvature="0"
         sodipodi:nodetypes="sssss" />
      <path
         inkscape:connector-curvature="0"
         style="fill:#ffffff;fill-opacity:1;stroke:none"
         d="m 145.46197,846.54358 c 0,1.81315 -1.24372,3.28299 -2.77792,3.28299 -1.5342,0 -2.77792,-1.46984 -2.77792,-3.28299 0,-1.81315 1.24372,-3.283 2.77792,-3.283 1.5342,0 2.77792,1.46985 2.77792,3.283 z"
         id="path3072" />
    </g>
  </g>
</svg>
