<?xml version="1.0" encoding="UTF-8" standalone="no"?>
<!-- Created with Inkscape (http://www.inkscape.org/) -->

<svg
   xmlns:dc="http://purl.org/dc/elements/1.1/"
   xmlns:cc="http://creativecommons.org/ns#"
   xmlns:rdf="http://www.w3.org/1999/02/22-rdf-syntax-ns#"
   xmlns:svg="http://www.w3.org/2000/svg"
   xmlns="http://www.w3.org/2000/svg"
   xmlns:sodipodi="http://sodipodi.sourceforge.net/DTD/sodipodi-0.dtd"
   xmlns:inkscape="http://www.inkscape.org/namespaces/inkscape"
   width="1155.3767"
   height="893.62219"
   id="svg2"
   version="1.1"
   inkscape:version="0.47 r22583"
   sodipodi:docname="lizard.svg">
  <title
     id="title5634">Mimbres Lizard</title>
  <defs
     id="defs4">
    <pattern
       patternUnits="userSpaceOnUse"
       width="46.976454"
       height="44.9375"
       patternTransform="translate(-210.12423,928.11587)"
       id="pattern5605">
      <path
         id="path5529"
         d="m 23.320204,0 c 0.2537,0.0478 0.52067,0.0625 0.8125,0.0625 c 0.44156,0 0.78499,-0.0197 1.03125,-0.0625 l -1.84375,0 z m 9.5625,0 c 0.28434,0.0569 0.5728,0.0476 0.84375,0 l -0.84375,0 z m 5.5625,0.4688 c -0.19709,0.0215 -0.37624,0.0604 -0.53125,0.1562 c -0.86075,0.532 -0.70191,1.1235 0.625,2.0938 c 2.12124,1.551 3.46875,1.7318 3.46875,0.4687 c 0,-1.3458 -2.18285,-2.8696 -3.5625,-2.7187 z M 9.6639538,1.0938 c -0.64251,0.017 -0.28637,0.6925 0.7812502,1.5 c 2.20359,1.6666 3.5625,1.9043 3.5625,0.5937 c 0,-0.9618 -2.44396,-2.1454 -4.3437502,-2.0937 z m -7.75,1.0937 C 1.0078838,2.2735 0.06881379,3.3569 0.60145379,4.2188 C 1.0235738,4.9017 1.5707738,4.9053 2.2889538,4.1875 c 0.58876,-0.5887 0.808,-1.3483 0.46875,-1.6875 c -0.23824,-0.2382 -0.54172,-0.3412 -0.84375,-0.3125 z m 19.1875002,0 c -0.3474,0.0143 -0.64635,0.1151 -0.8125,0.2813 c -0.33229,0.3323 0.25834,0.5746 1.3125,0.5312 c 1.16495,-0.048 1.39148,-0.3058 0.59375,-0.625 c -0.36094,-0.1445 -0.74635,-0.2018 -1.09375,-0.1875 z m 6.5625,1.625 c -1.41957,0.0824 -2.78133,1.2625 -2.09375,2.375 c 0.70008,1.1328 1.56498,1.1042 3.4375,-0.125 c 1.3139,-0.8625 1.31581,-1.1117 0.0312,-1.9375 c -0.40993,-0.2636 -0.90181,-0.34 -1.375,-0.3125 z m 16.90625,0.2813 c -0.58238,0.017 -0.19262,0.6925 0.875,1.5 c 0.48274,0.3651 1.03011,0.6847 1.53125,0.9374 l 0,-1.4062 C 46.042944,4.5207 45.049294,4.0794 44.570204,4.0938 z M 6.7577038,4.5312 c -0.39482,0.0269 -0.73604,0.1423 -0.96875,0.375 C 5.2359238,5.4593 5.0756638,6.4021 5.4452038,7 c 0.8276,1.3391 4.23115,1.4196 5.0312502,0.125 C 11.187174,5.9751 8.4685838,4.4149 6.7577038,4.5312 z M 17.226454,5.1875 c -0.39579,-6e-4 -0.73998,0.0838 -0.96875,0.3125 c -0.37285,0.3729 -0.0278,1.1133 0.78125,1.625 c 1.93575,1.2242 2.96875,1.1758 2.96875,-0.0938 c 0,-0.9666 -1.59389,-1.842 -2.78125,-1.8437 z m 17.5625,0.5 c -2.75389,0.2799 -5.07525,3.6922 -2.53125,4.7187 c 1.92983,0.7788 1.96208,0.7594 3.90625,-1 c 2.35233,-2.1287 2.30917,-2.972 -0.1875,-3.625 c -0.39778,-0.104 -0.79409,-0.1337 -1.1875,-0.0937 z m -11.78125,2.375 c -0.55,0 -1,0.675 -1,1.5 c 0,0.825 0.45,1.5 1,1.5 c 0.55,0 1,-0.675 1,-1.5 c 0,-0.825 -0.45,-1.5 -1,-1.5 z m 17.90625,0.375 c -0.58756,0.0448 -1.09029,0.5235 -2,1.5 c -2.42099,2.5986 -2.39307,2.9104 0.34375,3.4375 c 1.2375,0.2384 2.53874,0.4876 2.90625,0.5625 c 0.36752,0.075 1.38002,-0.1349 2.25,-0.4687 c 2.24409,-0.8613 1.983,-1.9205 -1,-3.875 c -1.24005,-0.8126 -1.91244,-1.2011 -2.5,-1.1563 z m -38.5625002,1.875 c -0.52895,-0.0148 -1.01818,0.0488 -1.34375,0.25 c -0.61851001,0.3823 -0.93455001,0.7721 -1.00000001,1.125 c -0.0131,0.0706 -0.006999999,0.1513 0,0.2187 c 0.0747,0.6744 1.15543001,1.1563 3.00000001,1.1563 c 1.65,0 3,-0.4246 3,-0.9375 c 0,-0.9115 -2.06939,-1.7681 -3.65625,-1.8125 z m 16.5937502,2.7813 c -0.79488,0.1397 -1.0423,1.0021 -0.40625,2.0312 c 0.53766,0.8699 0.93749,0.8185 1.5625,-0.1875 c 0.49513,-0.7969 0.41776,-1.5107 -0.1875,-1.7187 c -0.36947,-0.127 -0.70379,-0.1716 -0.96875,-0.125 z m 15.28125,3 c -0.71189,0.0554 -1.21875,0.3523 -1.21875,0.9062 c 0,1.0843 1.77021,1.8902 4.375,2 c 1.55309,0.065 1.65756,-0.1934 0.625,-1.4375 c -0.84836,-1.0222 -2.59477,-1.5611 -3.78125,-1.4687 z m -26.9687502,1 c -2.60563,0.0299 -2.64147,0.1079 -0.84375,1.4687 C 8.3247338,20.0088 10.007704,19.7427 10.007704,18 c 0,-0.5176 -1.2375002,-0.9237 -2.7500002,-0.9062 z m 39.7187502,0.5 c -0.53242,0.3379 -0.96875,0.7943 -0.96875,1.0312 c 0,0.2375 0.43433,0.4295 0.96875,0.4375 l 0,-1.4687 z m -31.96875,0.4687 c -1.1,0 -2,0.2075 -2,0.4375 c 0,0.23 -0.2599,1.13 -0.59375,2 c -0.72566,1.8911 1.63263,2.1486 3.40625,0.375 c 1.76299,-1.763 1.45421,-2.8125 -0.8125,-2.8125 z m 14.5625,2.125 c -0.54145,0.007 -0.36795,0.466 0.875,1.4063 c 1.06762,0.8074 2.64262,1.4569 3.5,1.4374 c 0.99919,-0.0229 0.66493,-0.5527 -0.9375,-1.4687 c -1.63602,-0.9352 -2.89605,-1.3818 -3.4375,-1.375 z m -8.53125,0.2187 c -0.43828,-0.0204 -0.83264,0.0381 -1.125,0.2188 c -1.76249,1.0892 -0.87744,2.4375 1.59375,2.4375 c 1.375,0 2.5,-0.3839 2.5,-0.875 c 0,-0.8747 -1.65392,-1.72 -2.96875,-1.7813 z M 1.6327038,23.0625 c -0.64158001,0 -1.16820001,0.1066 -1.62500001,0.2187 l 0,2.8438 C 2.0931238,27.2306 3.4276738,26.774 3.8202038,24.75 c 0.23271,-1.1998 -0.3779,-1.6875 -2.1875,-1.6875 z m 36.2500002,1 c -0.55,0 -0.71492,0.45 -0.375,1 c 0.33992,0.55 1.075,1 1.625,1 c 0.55,0 0.71492,-0.45 0.375,-1 c -0.33992,-0.55 -1.075,-1 -1.625,-1 z m 9.09375,0.1563 c -0.57406,0.1394 -0.96875,0.42 -0.96875,0.875 c 0,0.3456 0.39572,0.8113 0.96875,1.2187 l 0,-2.0937 z M 9.9452038,24.25 c -1.35555,-0.1638 -2.9375,0.7989 -2.9375,2.1875 c 0,1.5242 1.61518,1.6413 3.8437502,0.25 c 0.90883,-0.5674 1.00572,-1.1817 0.3125,-1.875 c -0.33269,-0.3327 -0.7669,-0.5079 -1.2187502,-0.5625 z m 14.5937502,2.2812 c -1.69873,-0.0871 -1.77865,0.4406 -1.15625,2.0626 c 0.70194,1.8293 5.73363,1.7047 6.34375,-0.1563 c 0.20612,-0.6288 -1.10524,-1.3461 -2.9375,-1.625 c -0.96288,-0.1466 -1.68376,-0.2522 -2.25,-0.2813 z m 9.96875,1.5938 c -0.7861,0.004 -1.46887,0.4483 -1.8125,1.3438 c -0.89554,2.3336 0.66635,3.1832 3.75,2 c 1.24406,-0.4774 1.35728,-0.9294 0.46875,-2 c -0.73915,-0.8906 -1.62015,-1.3473 -2.40625,-1.3438 z m 11.59375,2.0625 c -0.3474,0.0143 -0.64635,0.115 -0.8125,0.2813 c -0.33229,0.3323 0.25834,0.5746 1.3125,0.5312 c 0.15875,-0.006 0.25099,-0.018 0.375,-0.0312 l 0,-0.6563 c -0.29908,-0.091 -0.59529,-0.1365 -0.875,-0.125 z m -33.84375,0.9063 c -1.49555,0.0129 -1.5319,0.1403 -0.25,0.9687 c 1.88721,1.2196 2,1.2196 2,0 c 0,-0.55 -0.7875,-0.9771 -1.75,-0.9687 z m -7.5000002,0.0624 c -0.3549,0.004 -0.80259,0.0976 -1.28125,0.2813 c -0.88358,0.339 -1.31106,1.0711 -0.96875,1.625 c 0.81058,1.3115 2.20087,1.2806 3.03125,-0.0625 c 0.69025,-1.1168 0.28346,-1.8562 -0.78125,-1.8438 z m 15.3437502,1.1876 c -1.02568,0.0157 -2.00254,0.2334 -2.625,0.75 c -0.79642,0.661 -1.20766,1.606 -0.90625,2.0937 c 0.90718,1.4678 7.17717,1.0117 7.78125,-0.5625 c 0.51017,-1.3295 -1.99351,-2.316 -4.25,-2.2812 z m 7.53125,2.9687 c -0.15003,0.027 -0.28782,0.0691 -0.375,0.1563 c -0.25136,0.2514 -0.14378,0.9446 0.21875,1.5312 c 0.79781,1.2908 3.53125,1.4393 3.53125,0.1875 c 0,-0.887 -2.32477,-2.0641 -3.375,-1.875 z m 10.84375,0.3437 c -0.45231,0.0376 -0.80904,0.1791 -0.96875,0.4376 c -0.27898,0.4513 0.0591,1.0339 0.75,1.3124 c 2.04869,0.8256 3.75,0.7267 3.75,-0.2187 c 0,-0.8931 -2.17432,-1.644 -3.53125,-1.5313 z M 8.0702038,37.0625 c -1.68246,0 -3.0625,0.45 -3.0625,1 c 0,0.55 1.09496,1 2.4375,1 c 1.34254,0 2.7225802,-0.45 3.0625002,-1 c 0.36058,-0.5834 -0.6528002,-1 -2.4375002,-1 z m 38.7187502,0.0937 c -0.71401,0.004 -1.44056,0.4406 -2.34375,1.3438 c -1.24419,1.2441 -1.07888,1.4751 1.3125,1.7812 c 0.45487,0.0583 0.84674,0.0989 1.21875,0.125 l 0,-3.2187 c -0.0628,-0.007 -0.12414,-0.0316 -0.1875,-0.0313 z m -32.03125,0.9688 c -1.00431,0 -1.75,0.3024 -1.75,0.9375 c 0,0.55 1.4625,1.0084 3.25,1 c 2.46622,-0.012 2.88826,-0.2644 1.75,-1 c -0.98275,-0.6351 -2.24569,-0.9375 -3.25,-0.9375 z m 18.21875,3.1875 c -0.56722,-0.0602 -0.96875,0.1674 -0.96875,0.5937 c 0,0.8935 1.55088,1.645 4.25,2.0626 c 0.4125,0.064 0.75,-0.3563 0.75,-0.9063 c 0,-0.55 -0.40124,-1 -0.90625,-1 c -0.50502,0 -1.63002,-0.2599 -2.5,-0.5937 c -0.2175,-0.0835 -0.43593,-0.1362 -0.625,-0.1563 z m -31.5312502,0.75 c -0.79254001,0 -1.43750001,0.45 -1.43750001,1 c 0,0.55 0.93004,1 2.06250001,1 c 1.13246,0 1.77742,-0.45 1.4375,-1 c -0.33992,-0.55 -1.26996,-1 -2.0625,-1 z m 8.9375002,0.0313 c -0.5280002,0.0678 -0.0791,0.4478 1.125,1.375 c 1.08999,0.8392 2.15754,1.3248 2.96875,1.4687 l 0.875,0 c 0.41848,-0.1358 0.60706,-0.5135 0.40625,-1.125 c -0.22574,-0.6875 -1.73616,-1.3856 -3.34375,-1.5625 c -1.05586,-0.1162 -1.71445,-0.1969 -2.03125,-0.1562 z m 31.09375,1 c -0.78413,-0.031 -1.46875,0.2675 -1.46875,0.9062 c 0,0.3185 0.31555,0.6669 0.78125,0.9375 l 3.15625,0 c -0.0466,-0.2089 -0.2029,-0.4835 -0.40625,-0.8125 c -0.40462,-0.6546 -1.27837,-1.0003 -2.0625,-1.0312 z m -19.6875,0.5624 c -0.5184,-0.009 -0.78228,0.4015 -1.03125,1.2813 l 3.375,0 c -0.246,-0.2842 -0.57986,-0.5564 -1,-0.7813 c -0.58323,-0.3121 -1.01297,-0.4941 -1.34375,-0.5 z"
         style="fill:#ff7f2a;fill-opacity:1;stroke:none" />
    </pattern>
  </defs>
  <sodipodi:namedview
     id="base"
     pagecolor="#ffffff"
     bordercolor="#666666"
     borderopacity="1.0"
     inkscape:pageopacity="0.0"
     inkscape:pageshadow="2"
     inkscape:zoom="0.35"
     inkscape:cx="1298.2108"
     inkscape:cy="477.68022"
     inkscape:document-units="px"
     inkscape:current-layer="layer1"
     showgrid="false"
     inkscape:window-width="1280"
     inkscape:window-height="753"
     inkscape:window-x="-4"
     inkscape:window-y="-4"
     inkscape:window-maximized="1" />
  <metadata
     id="metadata7">
    <rdf:RDF>
      <cc:Work
         rdf:about="">
        <dc:format>image/svg+xml</dc:format>
        <dc:type
           rdf:resource="http://purl.org/dc/dcmitype/StillImage" />
        <dc:title>Mimbres Lizard</dc:title>
        <dc:description>Colorized version of a Mimbres native American design of a lizard. Encyclopedia bears the notice, &quot;All these pictures are in the public domain&quot;</dc:description>
        <cc:license
           rdf:resource="http://creativecommons.org/publicdomain/zero/1.0/" />
        <dc:source>Encyclopedia of Design. New York City: Hart Publishing Company. Print. ISBN 0-8055-1276-4. Page 29.</dc:source>
        <dc:date>2014-06-05</dc:date>
        <dc:creator>
          <cc:Agent>
            <dc:title>mazeo</dc:title>
          </cc:Agent>
        </dc:creator>
        <dc:publisher>
          <cc:Agent>
            <dc:title>openclipart.org</dc:title>
          </cc:Agent>
        </dc:publisher>
        <dc:language>en</dc:language>
        <dc:subject>
          <rdf:Bag>
            <rdf:li>lizard</rdf:li>
            <rdf:li>lizards</rdf:li>
            <rdf:li>reptile</rdf:li>
            <rdf:li>reptiles</rdf:li>
            <rdf:li>animal</rdf:li>
            <rdf:li>animals</rdf:li>
            <rdf:li>Mimbres</rdf:li>
            <rdf:li>American</rdf:li>
            <rdf:li>native American</rdf:li>
            <rdf:li>Indian</rdf:li>
            <rdf:li>American Indian</rdf:li>
          </rdf:Bag>
        </dc:subject>
        <dc:contributor>
          <cc:Agent>
            <dc:title>mazeo</dc:title>
          </cc:Agent>
        </dc:contributor>
      </cc:Work>
      <cc:License
         rdf:about="http://creativecommons.org/licenses/publicdomain/">
        <cc:permits
           rdf:resource="http://creativecommons.org/ns#Reproduction" />
        <cc:permits
           rdf:resource="http://creativecommons.org/ns#Distribution" />
        <cc:permits
           rdf:resource="http://creativecommons.org/ns#DerivativeWorks" />
      </cc:License>
    </rdf:RDF>
  </metadata>
  <g
     inkscape:label="Layer 1"
     inkscape:groupmode="layer"
     id="layer1"
     transform="translate(139.43199,-48.632115)">
    <g
       id="g5616">
      <path
         sodipodi:nodetypes="cssssssssccsssssssssssssssssssssssssssssssssssssssssssssssssssssccsssssssssssssssssssssssssscscccccssssssssssssssssssssssccssccsscccccccsssssssssssssssssccssssssssssssssssssssssssssssssssssssssssssssssssssssssssssccsssssssccccsccccssssssssssssssssssssssssccsssssssssssssssssssscacsssc"
         id="path2830"
         d="m 479.40586,941.94624 c -0.7598,-0.80777 -15.0745,-1.91992 -45.83785,-3.56126 c -11.825,-0.63091 -24.65,-1.76302 -28.5,-2.51579 c -3.85,-0.75278 -9.925,-1.88475 -13.5,-2.51549 c -6.27365,-1.10687 -26.87392,-6.99793 -32,-9.15105 c -3.06505,-1.28741 -14.25477,-5.14399 -23,-7.92704 c -3.575,-1.13769 -9.425,-3.29963 -13,-4.80431 c -5.86721,-2.46944 -14.35834,-5.66644 -24,-9.03624 c -10.07688,-3.52191 -17.07663,-6.51359 -33,-14.10413 c -9.625,-4.58815 -19.38108,-9.59961 -21.68018,-11.13656 c -3.06476,-1.94661 -6.22543,-3.46677 -9.12846,-5.6587 c -2.03025,-1.57533 -7.96636,-5.24214 -13.19136,-8.14848 c -12.39372,-6.89385 -35.46358,-22.29981 -46.91576,-31.33017 c -4.99211,-3.93641 -11.2029,-8.73211 -13.80176,-10.65711 c -16.25069,-12.03702 -54.68113,-48.10166 -70.862343,-66.5 c -3.38604,-3.85 -7.83206,-8.8 -9.88003,-11 c -8.48232,-9.11198 -25.54011,-32.68011 -25.54011,-35.28783 c 0,-0.41678 -1.46498,-2.99752 -3.25551,-5.73497 c -7.31193,-11.17887 -11.98063,-19.64116 -16.83608,-30.51633 c -2.81432,-6.30348 -5.46782,-11.91087 -5.89668,-12.46087 c -0.42885,-0.55 -2.0213,-4.375 -3.53876,-8.5 c -1.51747,-4.125 -4.10717,-11.1 -5.7549,-15.5 c -10.03238,-26.7899 -16.1353704,-48.89012 -19.33054038,-70 C -2.3373934,544.14423 -0.89804338,449.42399 3.0613366,427.32188 c 0.82979,-4.63208 1.95676,-11.57197 2.50437,-15.42197 c 1.3105,-9.21341 11.6662404,-53.83758 13.7682904,-59.32921 c 0.58215,-1.5209 -5.3467,2.25658 -19.44395038,12.38841 c -5.40212002,3.88255 -12.74703962,8.81271 -16.32203962,10.9559 c -8.00025,4.7961 -20.66155,13.80979 -28,19.93342 c -7.32891,6.11569 -14.09731,8.30662 -19.09663,6.1816 c -4.80528,-2.04255 -8.45075,-14.18753 -10.8449,-36.13012 c -1.47634,-13.53078 -3.24548,-24.35651 -6.04653,-37 c -0.48739,-2.2 -1.39669,-8.95 -2.02067,-15 c -0.62398,-6.05 -1.5328,-13.025 -2.01959,-15.5 c -0.48679,-2.475 -1.1587,-7.2 -1.49314,-10.5 c -0.33443,-3.3 -1.05555,-7.8 -1.60249,-10 c -0.54693,-2.2 -2.11262,-9.38233 -3.4793,-15.96073 c -1.36669,-6.57841 -2.65508,-12.13094 -2.8631,-12.33896 c -0.53112,-0.53111 -10.151947,6.77788 -15.533647,11.80098 c -11.18098,10.43597 -30,9.48208 -30,-1.52062 c 0,-4.56205 8.76579,-8.0957 11.02294,-4.44355 c 1.35619,2.19436 5.37131,-0.50909 13.91994,-9.37256 c 4.15642,-4.30949 9.35495,-9.48449 11.55229,-11.5 c 2.19735,-2.01551 7.597347,-7.31484 11.999997,-11.77629 c 13.86028,-14.04537 18.76065,-14.47672 21.45186,-1.88827 c 0.70549,3.3 1.65682,7.35 2.11408,9 c 0.45725,1.65 1.11802,5.25 1.46837,8 c 0.35034,2.75 1.25329,8.6 2.00653,13 c 0.75325,4.4 1.66169,10.925 2.01876,14.5 c 0.35707,3.575 0.79493,6.7405 0.97303,7.03445 c 0.17809,0.29395 0.81613,6.70011 1.41787,14.23591 c 0.60174,7.5358 1.78651,17.4203 2.63284,21.96555 c 2.86952,15.41099 5.37467,29.25057 5.93074,32.76409 c 0.91651,5.7909 2.48322,10.87731 3.55432,11.53929 c 2.08045,1.28579 19.3181,-11.65271 34.9062,-26.20043 c 3.0416296,-2.83862 8.9052296,-7.96009 13.03022962,-11.38104 C 4.6930066,311.93678 10.768877,306.60929 14.069927,303.51887 c 3.30106,-3.09043 8.84928,-8.09396 12.32938,-11.11896 c 14.86089,-12.91752 24.64641,-23.40764 27.05212,-29 c 1.30129,-3.025 4.10987,-9.22016 6.24128,-13.76703 c 2.13142,-4.54687 3.8753,-8.47765 3.8753,-8.73508 c 0,-0.70706 9.76255,-20.70546 11.22471,-22.9936 c 0.70141,-1.09764 2.17529,-3.3383 3.27529,-4.97925 c 2.44418,-3.64617 3.4268,-5.18452 6,-9.39337 c 2.19724,-3.59391 14.58433,-21.14418 16.683193,-23.63706 c 6.59461,-9.89215 16.65093,-16.58767 23.81681,-25.9313 c 1.08027,-2.47151 9.61726,-13.1429 12.38041,-15.47574 c 1.03422,-0.87316 4.40922,-3.98513 7.5,-6.91548 c 3.09077,-2.93035 7.30709,-6.47765 9.36959,-7.88289 c 2.0625,-1.40524 3.75359,-2.83268 3.75797,-3.17209 c 0.004,-0.33941 3.63836,-3.54211 8.07549,-7.11711 c 4.43713,-3.575 11.07104,-8.97502 14.74202,-12.00003 c 6.18789,-5.099028 20.45664,-14.999968 21.61722,-14.999968 c 1.35004,0 13.96666,-6.2665 15.29892,-7.59877 c 5.95213,-5.95212 40.59817,-18.584883 69.75838,-25.435533 c 9.31531,-2.18846 22.52119,-3.203339 46.5,-3.573552 c 14.025,-0.216535 30.64242,-0.670867 36.92761,-1.009627 c 24.67064,-1.329703 75.90086,6.401478 91.10914,13.749342 c 2.0255,0.97861 6.3334,2.22225 9.573,2.76365 c 9.5038,1.58824 27.91,7.62582 35.3537,11.59669 c 1.3951,0.74424 4.7866,2.338 7.5366,3.5417 c 20.2927,8.88232 46.7418,23.234548 49.5,26.860458 c 0.8281,1.08869 8.7451,7.10564 9.3495,7.10564 c 0.8703,0 7.7965,4.84148 9.0404,6.31943 c 0.6105,0.72537 4.9299,4.66274 9.5985,8.74972 c 4.6687,4.08697 10.0687,9.19563 12,11.35259 c 1.9314,2.15695 5.2323,5.5225 7.3355,7.479 c 5.1391,4.78078 13.767,15.52643 17.083,21.27599 c 1.4835,2.57221 5.3897,7.52221 8.6804,11 c 5.163,5.45636 10.9127,14.84491 10.9127,17.81898 c 0,0.51504 0.6374,2.4142 1.4165,4.22036 c 3.7991,8.80704 4.574,10.84369 6.9564,18.28393 c 1.4089,4.4 3.6981,11.31141 5.0871,15.35868 c 3.14765,7.05209 2.26434,15.3693 4.4165,21.89939 c 3.25501,9.87635 6.2518,52.1277 1.9199,56.91442 c -2.32383,13.06663 -0.3165,26.41911 -3.7943,39.82751 c -2.9582,9.9995 -10.3719,30.29774 -12.096,33.11803 c -1.71373,4.15719 -2.81051,7.89752 -5.711,11.49118 c -9.65118,13.48444 -16.35259,28.41528 -25.8486,42.39079 c -9.3361,13.39579 -31.9103,38.5 -34.6199,38.5 c -0.4998,0 -2.7487,1.575 -4.9977,3.5 c -2.2489,1.925 -4.4569,3.5 -4.9066,3.5 c -0.4498,0 -2.9563,1.52475 -5.57,3.38832 c -8.9371,6.37197 -32.4087,17.3939 -48.2523,22.65857 c -3.025,1.00517 -8.4619,2.91094 -12.0821,4.23504 c -3.6201,1.3241 -9.6951,2.72101 -13.5,3.10425 c -3.8048,0.38324 -8.4929,1.09667 -10.4179,1.58542 c -10.0125,2.54208 -46.18414,2.77938 -64.50005,0.42315 c -6.6,-0.84905 -13.90243,-1.70243 -16.22762,-1.89639 c -10.82405,-0.90293 -7.97972,-9.53145 3.12684,-9.48554 c 3.53886,0.0146 11.33901,-1.5987 34.10078,-7.05316 c 28.18795,-6.75475 38.73975,-9.76792 50.50005,-14.42075 c 12.214,-4.83238 14.6072,-5.88403 28,-12.30441 c 4.675,-2.24115 11.425,-5.39218 15,-7.00228 c 3.575,-1.6101 9.0571,-5.02103 12.1825,-7.57984 c 3.1254,-2.55881 6.0692,-4.65238 6.5417,-4.65238 c 1.5381,0 8.236,-6.91383 11.5449,-11.917 c 1.777,-2.68694 5.9309,-8.2665 9.2309,-12.39904 c 10.6856,-13.38148 27.5374,-43.22496 27.9516,-49.50061 c 0.1338,-2.02584 1.2456,-8.18335 2.4709,-13.68335 c 5.3523,-24.02646 6.2613,-28.59878 7.7532,-39 c 0.8678,-6.05 2.0272,-11.97589 2.5765,-13.16864 c 1.05746,-6.79129 -0.66749,-13.97023 -1.2183,-20.83136 c -1.0554,-14.07318 -3.8371,-30.3659 -5.5489,-32.5 c -0.6618,-0.825 -1.7385,-3.75 -2.3928,-6.5 c -1.3207,-5.55115 -8.0902,-20.34546 -11.4392,-25 c -5.55016,-12.62428 -15.24142,-20.32855 -24.1163,-30.59474 c -7.8304,-9.09005 -15.9332,-16.95264 -25.8582,-25.09158 c -1.5517,-1.27252 -4.4767,-3.82775 -6.5,-5.67829 c -9.3581,-8.55942 -41.1819,-21.45193 -65.8119,-26.66187 c -12.05404,-3.8257 -16.46485,-5.40425 -28.49325,-6.30979 c -6.42503,-2.00933 -19.11294,-3.52613 -39.3734,-4.70697 c -19.77469,-0.42375 -39.51095,-0.11708 -58.50245,5.01655 c -25.65893,6.54101 -47.78263,14.91702 -68.10539,25.78464 c -19.25247,7.14537 -22.09747,13.65367 -36.19097,27.91839 c -15.84315,14.08787 -26.85863,26.70425 -36.93535,43.63667 c -6.76523,7.98059 -24.56605,54.5676 -26.24517,68.68699 c -0.61916,5.20634 3.95958,10.3699 39.75572,44.83363 c 29.97422,28.85851 25.87975,27.99407 41.04878,8.66637 c 6.57273,-8.37468 9.48401,-11.84584 25.03569,-29.8503 c 11.29031,-13.07101 15.95582,-13.25091 25.09672,-0.96774 c 11.92101,16.01896 28.65393,29.96934 33.67413,28.07443 c 8.53642,-3.22214 13.67464,6.81778 6.41263,12.53007 c -3.9858,3.13523 -14.54532,4.02748 -18.23525,1.54083 c -1.545,-1.04118 -4.38409,-2.66981 -6.30909,-3.61919 c -1.925,-0.94938 -6.65,-3.73467 -10.5,-6.18954 c -8.63217,-5.50411 -7.31308,-5.68887 -13.10711,1.83584 c -5.75218,7.47037 -17.08129,20.13903 -30.51779,34.12623 c -5.2937,5.51065 -11.55078,12.26463 -13.90463,15.00884 c -15.93644,18.57936 -17.36254,18.02236 -60.35333,-23.57288 c -12.31601,-11.91621 -26.5624,-22.92397 -26.67566,-20.61148 c -1.95365,39.88802 3.06256,90.52082 10.86752,109.69489 c 0.55971,1.375 2.43757,6.94837 4.17303,12.38526 c 3.9172,12.27189 9.79687,25.13282 21.31101,46.61474 c 9.88939,21.61628 32.27446,40.30725 50.4042,54.7216 c 7.89499,5.92784 36.78268,25.2784 37.73713,25.2784 c 0.25595,0 2.40043,1.29645 4.7655,2.881 c 4.50206,3.01629 27.60454,14.42523 41.30013,20.39566 c 7.49018,3.26526 12.4107,4.85313 28.5,9.19703 c 3.575,0.96521 9.425,2.55929 13,3.5424 c 3.575,0.98311 11.225,2.29906 17,2.92433 c 5.775,0.62528 12.5587,1.59086 15.07488,2.14575 c 19.48993,4.29807 68.01737,6.44297 89.92517,3.97467 c 5.775,-0.65066 14.55,-1.58806 19.5,-2.08311 c 4.95,-0.49505 11.25,-1.61149 14,-2.48097 c 2.75,-0.86949 9.05,-2.44255 14,-3.49568 c 23.5956,-5.02008 29.7837,-6.83722 45,-13.21435 c 6.6,-2.76605 12.45,-5.34921 13,-5.74036 c 0.55,-0.39115 2.575,-1.3041 4.5,-2.02878 c 9.3664,-3.52608 22.3989,-9.56227 26,-12.04227 c 1.375,-0.94694 6.775,-3.95935 12,-6.69423 c 8.5673,-4.48434 11.9199,-6.60465 22.1804,-14.02777 c 5.0317,-3.64021 11.9962,-9.39783 16.8196,-13.90487 c 2.475,-2.31267 6.3387,-5.53654 8.586,-7.16416 c 2.2473,-1.62761 6.7473,-6.04214 10,-9.81006 c 3.2527,-3.76792 7.264,-8.21035 8.914,-9.87207 c 3.9165,-3.94431 10.1171,-11.46145 14.5,-17.57852 c 10.7858,-15.05364 25,-37.34852 25,-39.21239 c 0,-0.36983 1.5084,-3.04365 3.352,-5.94183 c 5.9268,-9.31685 22.5802,-44.7099 25.2335,-53.62787 c 6.4845,-21.79524 13.4145,-47.53796 13.4145,-49.83064 c 0,-3.76366 -5.1073,-6.419 -15,-7.79872 c -2.475,-0.34518 -9.225,-1.48804 -15,-2.5397 c -20.1577,-3.6708 -41.5154,-6.9717 -43.5,-6.72305 c -4.9733,0.62306 -7.1048,-16.62705 -8.0006,-64.74944 c -0.7551,-40.56752 -1.836,-53.93661 -5.5536,-68.69151 c -1.6202,-6.43032 -2.9458,-13.27067 -2.9458,-15.20077 c 0,-11.27027 -3.1508,-17.57672 -10.2978,-20.61159 c -6.5762,-2.79244 -9.089,-5.10504 -10.6276,-9.78084 c -2.7204,-8.26679 3.8184,-12.30451 10.3188,-6.37186 c 1.9868,1.81336 7.8588,5.15657 9.0569,5.15657 c 1.562,0 0.079,-2.58865 -3.9503,-6.89655 c -6.6374,-7.09587 -6.5509,-16.10345 0.1547,-16.10345 c 3.8611,0 7.0746,2.80247 9.8007,8.54729 c 2.1601,4.55205 3.9698,4.53317 3.1133,-0.0325 c -1.5261,-8.13491 2.3727,-14.61016 7.5145,-12.48035 c 3.7792,1.56542 4.9168,4.33528 4.9168,11.97164 c 0,8.54531 1.2675,8.07382 5.4551,-2.02917 c 3.7162,-8.96555 9.682,-13.50784 9.4919,-7.22691 c -0.108,3.56618 -2.8411,16.98256 -4.9401,24.25 c -2.6191,9.06806 -3.2654,32.69241 -1.2448,45.5 c 1.4199,8.99999 2.7444,20.5597 4.2967,37.5 c 0.5796,6.325 1.4275,15.325 1.8844,20 c 0.8535,8.73481 3.7853,26.12302 6.4915,38.5 c 0.8418,3.85 1.5383,7.40488 1.5479,7.89974 c 0.027,1.40183 17.0555,-0.14069 30.9882,-2.80705 c 6.891,-1.31877 17.7042,-3.37283 24.0292,-4.56456 c 28.5787,-5.3847 31.7617,-16.81474 11.71,-42.05096 c -0.6655,-0.83755 -3.7127,-4.66255 -6.7715,-8.5 c -3.0588,-3.83744 -7.5042,-9.62388 -9.8787,-12.85876 c -2.3745,-3.23487 -6.3969,-8.21972 -8.9386,-11.07744 c -2.5417,-2.85772 -7.0962,-8.52686 -10.1212,-12.5981 c -3.025,-4.07124 -7.4439,-9.2949 -9.8197,-11.60814 c -3.6863,-3.5892 -4.1628,-4.49895 -3.25,-6.20457 c 0.85651,-4.67013 2.44767,-8.83996 4.4337,-13.13016 c 0.8845,-1.925 3.6401,-6.875 6.1235,-11 c 2.4835,-4.125 6.2022,-10.57149 8.2639,-14.32553 c 2.0617,-3.75404 6.6145,-11.3906 10.1172,-16.97014 c 6.4882,-10.33492 10.9418,-18.61733 28.0057,-52.08156 c 15.7539,-30.895408 18.1082,-32.518748 30.3023,-20.89476 c 22.1983,21.16042 34.8823,35.52581 46.5953,52.77199 c 8.8316,13.0037 21.1563,30.21293 35.9781,50.23707 c 6.0158,8.12731 7.3809,11.44594 5.25,12.76293 c -2.13123,4.70404 -4.94321,9.35654 -7.8579,13.79604 c -3.7719,5.61218 -8.1345,12.45396 -9.6948,15.20396 c -2.26788,4.37223 -5.4481,8.18428 -7.7938,12.5 c -0.873,2.0391 -9.7821,15.8862 -17.4487,27.11983 c -16.4361,24.08368 -17.3001,33.05254 -3.7438,38.86345 c 4.98025,2.66117 9.19251,6.32092 14.1374,9.13524 c 3.975,2.18165 7.7717,4.62248 8.4369,5.42406 c 2.80839,1.7863 5.94486,2.78416 8.8307,4.70742 c 6.3535,4.45597 7.4332,5.10168 17.134,10.24715 c 4.675,2.47969 12.325,6.76344 17,9.51944 c 22.8338,13.46096 23.6125,10.95989 16.9724,-54.51659 c -0.4462,-4.4 -1.7751,-15.875 -2.953,-25.5 c -1.1779,-9.625 -2.3358,-20.425 -2.573,-24 c -0.7863,-11.84773 -3.2623,-18.55027 -8.7552,-23.70021 c -3.9645,-3.71689 -4.6642,-6.6812 -4.6802,-19.82728 c -0.023,-18.86302 6.6882,-18.97036 8.7556,-0.14004 c 0.8959,8.15942 3.0084,13.22584 4.7773,11.45699 c 0.3253,-0.32533 0.7959,-5.24854 1.0458,-10.94048 c 0.4952,-11.28037 1.5766,-14.60163 5.0369,-15.47011 c 4.0626,-1.01966 4.5302,0.21055 4.3612,11.47572 c -0.2242,14.94754 -0.038,15.61814 1.9815,7.14541 c 2.7428,-11.50544 5.2941,-16 9.0826,-16 c 4.15224,0 4.51674,4.96676 1.39464,19 c -0.47014,2.11294 -0.33894,2.03552 0.8471,-0.5 c 1.9685,-4.20805 9.2206,-10.5 12.1023,-10.5 c 4.6389,0 4.1609,2.73948 -3.5475,20.33332 c -2.7806,6.34666 -2.9506,7.4178 -2.3869,15.04015 c 0.4181,5.65145 0.1461,10.21823 -0.8732,14.66668 c -1.9687,8.5916 -2.0917,14.26137 -0.7473,34.45985 c 0.6224,9.35 1.6123,26 2.1999,37 c 0.5875,11 1.5167,27.2 2.0649,36 c 2.2236,35.69765 -0.168,54.5 -6.9324,54.5 c -2.246,0 -16.44794,-5.60662 -24.84274,-9.80743 c -6.72507,-3.23059 -13.7921,-5.55731 -20.512,-8.80866 c -18.1428,-9.06924 -21.2164,-9.31523 -20.4155,-1.63391 c 0.3297,3.1625 1.0592,16.1 1.6211,28.75 c 0.5618,12.65 1.2471,24.02146 1.5227,25.26992 c 2.1733,9.84465 -0.9274,54.9025 -5.3836,78.23008 c -1.6285,8.525 -3.9317,20.9 -5.1182,27.5 c -2.3406,13.01946 -2.195,12.46585 -7.8934,30 c -2.1449,6.6 -4.4364,14.30021 -5.0923,17.11158 c -0.6559,2.81137 -3.2147,10.91137 -5.6862,18 c -2.4714,7.08863 -4.8798,14.23842 -5.3519,15.88842 c -0.4721,1.65 -2.1756,6.15 -3.7856,10 c -1.6099,3.85 -3.8619,9.7 -5.0043,13 c -2.509,7.24749 -21.6964,46.52908 -26.9643,55.20283 c -2.072,3.41155 -6.1793,10.16155 -9.1273,15 c -13.3472,21.90568 -27.6105,40.51856 -43.1399,56.29522 c -4.675,4.74943 -13.225,13.68759 -19,19.86256 c -5.775,6.17498 -16.0509,15.81996 -22.8353,21.43331 c -6.7844,5.61334 -15.1094,12.80464 -18.5,15.98066 c -5.012,4.69479 -19.3255,15.22859 -27.5056,20.24231 c -4.4237,2.71131 -13.72,9.05867 -14.1942,9.69149 c -0.2943,0.39273 -2.3193,1.45484 -4.5,2.36026 c -2.1807,0.90541 -8.9149,4.01754 -14.9649,6.91584 c -17.93452,8.04101 -38.48303,19.84714 -58.9726,26.54872 c -19.79336,6.47387 -40.61929,9.20516 -61.1134,12.97484 c -6.5527,1.11657 -12.589,2.22749 -13.414,2.46871 c -0.825,0.24122 -7.8,1.14573 -15.5,2.01003 c -17.0328,1.91188 -21.1384,2.40938 -29.5,3.57478 c -8.9285,1.24438 -37.3482,2.35011 -38.1622,1.48477 z"
         style="fill:#000000" />
      <path
         id="rect5610"
         d="m 881.1875,191.65625 c -1.24572,0.007 -2.55832,0.23233 -3.9375,0.6875 c -12.6713,4.18192 -12.8393,22.97055 -0.25,27.4375 c 5.5149,1.95681 6.2995,1.94844 9.5625,-0.375 c 11.92154,-8.48886 6.66698,-27.81807 -5.375,-27.75 z M 825.21875,196.5 c -5.37294,0.13812 -8.44646,2.71774 -11.75,9.125 c -6.8851,13.35395 7.39615,24.80823 20.28125,16.28125 c 11.3574,-7.51599 8.58105,-23.34489 -4.40625,-25.125 c -1.5186,-0.20815 -2.88509,-0.31312 -4.125,-0.28125 z m 54.3125,4.71875 c 3.64318,-0.10358 7.47472,3.10592 6.65625,7.46875 c -1.048,5.58601 -7.97945,8.92677 -11.40625,5.5 c -1.6992,-1.69916 -1.50155,-7.92796 0.34375,-10.5625 c 1.14147,-1.62967 2.75026,-2.35917 4.40625,-2.40625 z m -53.65625,2.875 c 2.39319,0.0531 4.58665,2.13083 5.3125,6 c 1.1905,6.34574 -8.1256,11.51549 -11.375,6.3125 c -1.7204,-2.75491 -1.55365,-5.00097 0.65625,-8.625 c 1.55566,-2.55119 3.54488,-3.72881 5.40625,-3.6875 z"
         style="color:#000000;fill:#ffcc00;fill-opacity:1;fill-rule:nonzero;stroke:none;stroke-width:4;marker:none;visibility:visible;display:inline;overflow:visible;enable-background:accumulate" />
      <path
         id="path2817"
         d="m 133.84521,157.36701 l 69.70053,64.14469 l 0,0"
         style="fill:none;stroke:#ff7f2a;stroke-width:5;stroke-linecap:round;stroke-linejoin:miter;stroke-miterlimit:4;stroke-opacity:1;stroke-dasharray:10, 10;stroke-dashoffset:0" />
      <path
         id="path3591"
         d="m 214.15234,87.666488 l 44.44672,77.276672"
         style="color:#000000;fill:none;stroke:#ff7f2a;stroke-width:5;stroke-linecap:round;stroke-linejoin:miter;stroke-miterlimit:4;stroke-opacity:1;stroke-dasharray:10, 10;stroke-dashoffset:0;marker:none;visibility:visible;display:inline;overflow:visible;enable-background:accumulate" />
      <path
         id="path3614"
         d="m 350.01786,54.331453 l 6.56599,75.256367"
         style="color:#000000;fill:none;stroke:#ff7f2a;stroke-width:5;stroke-linecap:round;stroke-linejoin:miter;stroke-miterlimit:4;stroke-opacity:1;stroke-dasharray:10, 10;stroke-dashoffset:0;marker:none;visibility:visible;display:inline;overflow:visible;enable-background:accumulate" />
      <path
         id="path3637"
         d="M 470.73109,69.483742 L 456.08388,134.63858"
         style="color:#000000;fill:none;stroke:#ff7f2a;stroke-width:5;stroke-linecap:round;stroke-linejoin:miter;stroke-miterlimit:4;stroke-opacity:1;stroke-dasharray:10, 10;stroke-dashoffset:0;marker:none;visibility:visible;display:inline;overflow:visible;enable-background:accumulate" />
      <path
         sodipodi:nodetypes="cc"
         id="path3660"
         d="m 542.45192,170.499 c 32.82996,-48.48733 34.85027,-50.50764 34.85027,-50.50764"
         style="color:#000000;fill:none;stroke:#ff7f2a;stroke-width:5;stroke-linecap:round;stroke-linejoin:miter;stroke-miterlimit:4;stroke-opacity:1;stroke-dasharray:10, 10;stroke-dashoffset:0;marker:none;visibility:visible;display:inline;overflow:visible;enable-background:accumulate" />
      <path
         id="path3670"
         d="m 589.9291,217.97617 c 42.4264,-34.34519 42.4264,-34.34519 42.4264,-34.34519"
         style="color:#000000;fill:none;stroke:#ff7f2a;stroke-width:5;stroke-linecap:round;stroke-linejoin:miter;stroke-miterlimit:4;stroke-opacity:1;stroke-dasharray:10, 10;stroke-dashoffset:0;marker:none;visibility:visible;display:inline;overflow:visible;enable-background:accumulate" />
      <path
         id="path3680"
         d="m 619.22352,316.46604 l 43.43656,5.05077"
         style="color:#000000;fill:none;stroke:#ff7f2a;stroke-width:5;stroke-linecap:round;stroke-linejoin:miter;stroke-miterlimit:4;stroke-opacity:1;stroke-dasharray:10, 10;stroke-dashoffset:0;marker:none;visibility:visible;display:inline;overflow:visible;enable-background:accumulate" />
      <path
         id="path3690"
         d="m 605.08138,389.7021 l 30.80966,18.18275"
         style="color:#000000;fill:none;stroke:#ff7f2a;stroke-width:5;stroke-linecap:round;stroke-linejoin:miter;stroke-miterlimit:4;stroke-opacity:1;stroke-dasharray:10, 10;stroke-dashoffset:0;marker:none;visibility:visible;display:inline;overflow:visible;enable-background:accumulate" />
      <path
         id="path3700"
         d="m 557.85715,459.14789 l 18.57143,24.64286"
         style="color:#000000;fill:none;stroke:#ff7f2a;stroke-width:5;stroke-linecap:round;stroke-linejoin:miter;stroke-miterlimit:4;stroke-opacity:1;stroke-dasharray:10, 10;stroke-dashoffset:0;marker:none;visibility:visible;display:inline;overflow:visible;enable-background:accumulate" />
      <path
         sodipodi:nodetypes="ccscc"
         id="path3718"
         d="M 129.8045,271.00918 L 40.406,470.00923 c 0,0 42.38897,-42.68687 62.62946,-41.92133 c 17.4095,0.65847 45.96194,36.87057 45.96194,36.87057 L 129.8045,271.00918 z"
         style="fill:url(#pattern5605);fill-opacity:1;stroke:#ff7f2a;stroke-width:9;stroke-linecap:round;stroke-linejoin:round;stroke-miterlimit:4;stroke-opacity:1;stroke-dasharray:none" />
      <path
         sodipodi:nodetypes="ccccc"
         id="path3720"
         d="m 87.142858,538.07646 l 92.142862,237.14286 c 0,0 -5.82807,-85.99221 3.57143,-110 c 20.39034,-15.34224 90,-18.57143 90,-18.57143 L 87.142858,538.07646 z"
         style="color:#000000;fill:url(#pattern5605);fill-opacity:1;stroke:#ff7f2a;stroke-width:9;stroke-linecap:round;stroke-linejoin:round;stroke-miterlimit:4;stroke-opacity:1;stroke-dasharray:none;stroke-dashoffset:0;marker:none;visibility:visible;display:inline;overflow:visible;enable-background:accumulate" />
      <path
         sodipodi:nodetypes="ccccc"
         id="path5433"
         d="m 276.7818,753.35702 l 260.61936,143.44167 c 0,0 -58.20892,-68.03391 -74.75129,-111.11679 C 478.3753,747.69483 533.36055,684.66665 533.36055,684.66665 L 276.7818,753.35702 z"
         style="color:#000000;fill:url(#pattern5605);fill-opacity:1;stroke:#ff7f2a;stroke-width:12;stroke-linecap:round;stroke-linejoin:round;stroke-miterlimit:4;stroke-opacity:1;stroke-dasharray:none;stroke-dashoffset:0;marker:none;visibility:visible;display:inline;overflow:visible;enable-background:accumulate" />
      <path
         sodipodi:nodetypes="ccccc"
         id="path5476"
         d="m 567.14287,789.50504 l 280,-74.28572 c 0,0 -55.74229,-11.63536 -95.71429,-28.57143 c -6.97432,-25.34 -11.42857,-98.57143 -11.42857,-98.57143 L 567.14287,789.50504 z"
         style="color:#000000;fill:url(#pattern5605);fill-opacity:1;stroke:#ff7f2a;stroke-width:12;stroke-linecap:round;stroke-linejoin:round;stroke-miterlimit:4;stroke-opacity:1;stroke-dasharray:none;stroke-dashoffset:0;marker:none;visibility:visible;display:inline;overflow:visible;enable-background:accumulate" />
      <path
         sodipodi:nodetypes="ccscc"
         id="path5499"
         d="m 823.27434,610.92551 l 102.0254,-186.87822 c 0,0 -32.2162,35.28534 -54.54823,36.36549 C 846.29446,461.59571 809.1322,426.0676 809.1322,426.0676 l 14.14214,184.85791 z"
         style="color:#000000;fill:url(#pattern5605);fill-opacity:1;stroke:#ff7f2a;stroke-width:9;stroke-linecap:round;stroke-linejoin:round;stroke-miterlimit:4;stroke-opacity:1;stroke-dasharray:none;stroke-dashoffset:0;marker:none;visibility:visible;display:inline;overflow:visible;enable-background:accumulate" />
    </g>
  </g>
</svg>
