<?xml version="1.0" encoding="utf-8"?>
<!-- Generator: Adobe Illustrator 18.0.0, SVG Export Plug-In . SVG Version: 6.00 Build 0)  -->
<!DOCTYPE svg PUBLIC "-//W3C//DTD SVG 1.1//EN" "http://www.w3.org/Graphics/SVG/1.1/DTD/svg11.dtd">
<svg version="1.1" id="Layer_1" xmlns="http://www.w3.org/2000/svg" xmlns:xlink="http://www.w3.org/1999/xlink" x="0px" y="0px"
	 width="1410px" height="1440px" viewBox="316.9 235.4 1410 1440" style="enable-background:new 316.9 235.4 1410 1440;"
	 xml:space="preserve">
<g transform="translate(0.000000,1936.000000) scale(0.100000,-0.100000)">
	<path d="M5169,9293c-37,72-161,183-236,213c-21,8-47,19-58,25c-11,5-51,17-90,27l-61.8,15.9c-5.1-0.4-10.2-0.6-15.4-0.6
		c-18.6,0-36.7,2.4-54,7l-52.7-4.3c-141-11-297-55-421-116c-30-16-66-30-80-34l-5.9-1.1c-17.7-10.4-37.8-17.1-59.1-18.9l0-0.9l-47-2
		c-57-2.6-77.1,11.8-91,79.5c-10.4,19.7-16.4,41.9-16.4,65.3c0,11.6,1.6,22.8,4.3,33.6c-4.9,119.8,17,290.4,52.7,425.7
		c-1.1,8.6-1.7,17.2-1.7,26c0,104.3,76.7,193.4,176,213.1c1.3,2.7,2.7,5.5,4.1,8.7c20,48,18,92-6,113c-11,9-28,24-39,33
		c-0.1,0.1-0.2,0.2-0.3,0.3c-12.9-0.9-25.8-1.6-38.9-1.6c-6.9,0-13.8,0.3-20.7,0.5l-45.1-44.3c-64-62-93-117-135-261
		c-61-210-81-350-76-540c6-211,26-282,93-329c41-29,42-29,106-18c36,7,71,15,78,17c0.3,0.1,0.5,0.2,0.8,0.2
		c19.6,13.3,41.5,23.4,64.8,29.8c0.8,0.7,1.6,1.3,2.4,2c14,13,33,21,43,19c9-2,15-1,12,4c-8,14,201,111,272,125
		c38.6,8,122,12.2,183.5,11.5c9.2,1.2,18.5,1.9,27.9,1.9c30.6,0,59.9-6.7,86.5-18.5c0,0,0,0.1,0.1,0.1c4,0,28-11,54-23
		c125-63,219-148,239-216c17-54,14-124-7-211c-36-147-105-253-188-290c-56.9-25-80.3-24.7-88.2,4c-8.5,0.7-16.8,1.8-25,3.4l0.2-8.4
		l-17.6,12.7c-34,9.8-64.7,27.8-89.9,51.6c-11.7-22.8-12.1-76.5,7.5-113.3c6-12,9-28,6-35c-7-19,28-60,64-75
		c7.4-3.2,13-5.9,17.3-9.1c13.2-0.4,26.2-2.1,38.8-4.9c3.7,2.3,13.6,5.3,27.9,7.9c100,19,225,106,261,183c10,21,21,40,25,43
		c10,7,40,65,67,130c18.4,43.5,34,104.3,45.2,167.3c-4.9,14.3-7.7,29.4-7.7,45.2c0,28.4,8.7,55.1,23.6,77.5
		C5183.5,9209.5,5181.4,9268.6,5169,9293z"/>
	<path d="M10015,7696c14,32,36,79,47,104c14.2,30.7,187.5,375.7,194,387c10,18,24,33,30,33s684-602,699-589c5,5,14,9,20,9
		c2-0.4,2.3-2,1.2-4.5c23.7,12.2,49.9,20.1,77.4,22.7c48.4,39.5,103.3,71.2,162.6,93c2,3.4,4.1,6.8,6.4,10c-2.5,2.9-1.5,4,3.1,4.5
		c12.6,17.7,27.8,33.6,44.9,46.9c2.6,3.7,5.9,6.2,9.4,6.9c12.8,8.9,26.6,16.5,41.1,22.6c3.8,6.5,8.5,12.7,13.9,17.9l17.8,17.1
		c-134.7,145.3-270.4,289.7-410.6,429.8c-15.3,12.1-30.4,24.4-45.3,37.2c-78.5,67.2-514.8,277.4-221.5,600.2
		c8.4,26.7,497.6,699.6,497.9,696.6c45.6-21.8,187.7-224.6,209.4-270.3c4.3,0.8,7.4-1.6,7.4-8.5c0-4,17-25,38-47s58-65,82-95
		c25-30,60-72,79-93s42-47,50-59c42-55,122-128,142-128c15,0,413.5,177.3,456,201.5c1,2.2,2.1,4.3,3,6.5c19,41,19,47,5,69
		c-9,12-697,763-662,799c27,27,1002.2,868.2,1014.2,882.2c70.2-8.2,459.5-457.1,465.9-459.3c48.8,14.2,100.2,22,153.1,22
		c32.5,0,64.4-3,95.5-8.6c20,0.8,36,1.7,43.3,2.6c17,2,35,4,42,4c6,1,26,13,43,28c29,24,32,30,26,69c-3,23-823.4,1108.9-1339,1243
		c-48.6,12.6-85,26-267-3c-29-4.5-55.9-8-74.5-9.9c-10.8-4.4-22-7.6-33.5-9.7c-16.4-7.3-32.6-11.8-48.9-14.3
		c-1.6-2.6-3.7-2.8-6.1-0.8c-18.7-2.3-37.7-2-57.5-0.3c-2.7-4.1-5.8-5.9-9.5-5.9c-4.6,0-8.7,2.9-11.8,8c-9.8,1.3-24.6,3.3-28.3,3.7
		c-5.8,0.7-11.7,1.3-17.5,2c-7.5-13.1-14.5-15.7-27.4-11.7c-2.2,0.6-4.1,1.2-5.7,1.6c-2.5-1.6-4.8-3-6.6-4.1
		c1.3-2.1,3.4-4.9,6.3-8.5c9-10,12-29,8-51c-1.8-10.2-2.6-17.9-2-23.9c20.6-8.6,41.2-18.3,62.4-29c3.5-1.8,7-3.5,10.5-5.2
		c3,0.4,6.3,0.8,10.2,1.2c27,2.8,31.4,1.2,28.7-15.9c5.8-1.6,11.7-3.1,17.6-4.5c4.5-0.6,9.1-1.3,13.5-2.2c1.6,3.1,4.3,4.7,8.2,4.7
		c7.7,0,13.4-3.8,13.8-9.4c26.8-5.4,50.7-17.3,71.1-34c13.9-4.6,35.2-14.2,63.1-28.6c24.2-13.2,46.8-26.4,57.5-34.1
		c34.6-11.2,65.6-31,90.4-56.8c36.3-25.4,85.2-61.3,143.1-105.1c56-43,56-44,38-64c-10-12-35-33-55-48s-65-52-100-83
		c-35-30-76-66-93-78c-16-13-35-28-42-34c-6-5-30-23-52-39c-23-17-41-33-41-38c0-4-3-8-7-8c-0.6,0-1.1,2-1.7,5.4
		c-11.6-9.4-24.2-17.7-37.5-24.6c-1.6-2.8-4.3-5.6-7.8-7.8c-8-4-15-11-15-16c-1-11-67-67-79-67c-5,0-12-7-16-15c-3-8-10-15-16-15
		c-1.6,0-3.3,0.8-4.7,2.1c-5.5-8.9-11.5-17.3-18.1-25.3c-1.7-2.6-3.6-4.8-5.8-6.7c-17.8-19.9-39.2-36.5-63-48.8
		c-10.8-6.5-22.7-12.8-32.9-16.8c-14.1-20.1-31.5-37.9-51.4-52.3c-3.4-3.5-7-7.2-11.1-11.3c-27-27-47-39-57-35c-9,3-16,1-16-5
		s5-11,12-11c6,0-6-16-27-35c-22-19-41-32-44-29s1,9,9,14c9.4,5.5,11.3,9.8,6.9,16.2c-38.9-36-90.6-58.3-146.8-58.3
		c-59.5,0-114,25-153.6,64.8c-2.5,1.5-5.1,2.8-7.6,4.4c-7.9-9.2-18.9-10.2-18.9,1.9c0,3.3,1.3,6.1,4.1,8.7
		c-7.3,5.7-14.4,11.7-20.9,18.4c-37.4,38.4-70.2,80.4-101.5,123.7c-30.1,28-61.5,54.7-91.7,82.6c-10.2,9.4-20,19-29.4,28.6
		c-4.8-3.3-9.4-6.7-14.2-10c-19.9-13.5-39.6-27.4-59-41.8c-8.1-6.5-32.5-25.7-37.1-29.4c-35.6-29.6-70.7-60-105.2-90.9
		c-1.7-1.5-3.4-3.1-5.2-4.7c0-2,0.1-4.1,0.1-6.4c-1-26-3-30-10-16c-1.9,2.8-3.1,6.2-4.1,9.8c-18.7-16.8-37.4-33.7-56.2-50.5
		c0-0.4,0.2-0.8,0.2-1.2c0-5-4-10-10-10c-0.7,0-1.4,0.3-2.1,0.5c-29.6-26.6-59.3-52.9-89.5-78.8c0.4-3.7,0.8-7.7,1.1-11.7
		c72-68.9,136.8-147,201.6-219.3c11.7-13,21.6-27.1,30.1-41.7c1.3-0.8,2.6-1.6,3.9-2.3c33.9-19.1,60.2-47,78.3-79.3
		c44.9-24.2,75.9-71.8,75.9-125.5c0-33.7-12.2-64.9-32.3-89.5c0-0.8,0-1.5,0-2.3c0-19-4-27-10-21c-1.8,1.8-99.5-194.7-150.3-226.8
		c-9.4-14.9-20.6-28.4-33.2-40.6c-14.2-36.6-38.2-68.6-68.6-92.8c-18-48-300-411.7-300-380.7c0,9-7,17-17,17c-9,0-43,36-77,80
		c-1.3,1.8-2.7,3.6-4,5.3c-10.3,10-19.1,21.5-26,34.2c-22.9,29.8-43.3,55.7-51,65.5c-11,14-40,55-65,91l-44,66l-0.1,17.6
		c-0.3,0-0.5,0-0.8,0c-12,0-23.9,1.1-35.4,3c-2.1-11.8-4.7-19.3-7.8-22.6c-9-8-20-15-26-15s-11-4-11-10c0-5-8-10-17-10
		c-10,0-54-24-97-53c-43-28-97-62-120-75s-48-29-56-36c-24-21-80-36-106-30c-19,5-24,2-24-12c0-21,117-184,131-184c5,0,9-6,9-13
		s11-24,25-39s25-31,25-35c0-5,12-21,27-37c14-16,40-48,57-71c61-84,122-159,164-203c39-41,54-72,33-72c-5,0-12-12-16-27
		c-3-15-10-30-13-33c-4-3-29-48-55-100c-27-52-57-108-68-125c-10-16-21-37-25-45c-3-8-10-24-17-35c-3.6-6.7-7.3-13.8-11.2-21.5
		c-4.6-50.9-27.4-97.3-61.7-132.3c-14.5-31.5-32.5-70.3-45.1-96.2l-29-60c0,0-39-88-40-97c0-38-14-22-159,189
		c-22.8,33.8-33.2,51.5-35,63.1c-15.9,16-29.3,34.4-39.7,54.6c-1.7-0.9-174.2,272.3-197.2,284.3c-37,21-42,22-58,7
		c-10-9-22-16-27-16s-17-8-25-17c-9-10-39-38-67-63c-29-25-210.4-299.4-213.4-300.7c0.4-9.5,0.8-19.1,1.1-28.6
		c11-20.3,28-46.7,33.3-48.7c4-2,7-7,7-12c0-4,18-35,40-68s40-63,40-66c0-4,10-17,21-29c12-12,27-36,35-53c7-17,24-44,38-60
		c52-60,263-353,274-380c7-16,644-699,720-772c19-18,42-37,52-42c2.6-1.4,5.1-4,7.3-8c28.3-12.9,54.1-31.7,75.3-55.8
		c8.6-4.3,20.4-11.8,31.4-20.2c17-13,41-26,54-30c12-4,22-12,22-17s9-9,20-9c12,0,20-7,20-16c0-13,2-13,14-2c7,8,17,24,20,36
		c4,12,10,22,14,22s21,13,39,30c5.5,5.1,14,11.4,24.2,18c10.1,19.3,23.1,37.2,38.7,52.9c25.1,25.1,56,43.5,89.5,53.9
		c45.6,53.6,91.4,106.8,146.1,151.5c-33.5,25.8-67,51.7-100.2,77.9c-154,121.2-302.9,248.7-428.1,399.9c-12.2,7.2-25.5,22.4-27,33
		c-4.7,5.2-9.1,10.7-13.3,16.4c-26.9,13.3-49.3,34.8-63.6,61.1l-8.3,10.4c-14,17-25,34-25,38c0,6.1,10.4,31.2,21.3,54.3
		c1.3,4.8,2.9,9.6,4.7,14.2 M9960,7575c5,14,13,24,17,22 M10600,10640c-20-13-33-13-25,0c3,6,14,10,23,10
		C10613,10650,10613,10648,10600,10640z M10630,10720c-13,8-13,10,2,10c9,0,20-4,23-10C10663,10707,10650,10707,10630,10720z"/>
	<path d="M5761.2,10128.5c0,8.5,0.9,16.8,2.4,24.9c-11.7,93.3-49.6,194.9-108.6,276.6c-18,25-34,50-36,56c-12,32-232,274-250,274
		c-4,0-11,9-14,21c-0.7,2.3-1.4,5-2.1,8.1c-33.6,10-62.2,32.1-80.7,61.2c-10.5,7.4-22.7,16.2-35.1,25.7c-34,25-79,55-100,65
		c-33,18-42,18-74,7c-43-16-68-50-77-104c-7-41-7-41,38-63c25-11,50-21,56-21c12,0,203-190,225-224c3-4.5,5.4-11.7,7.6-23.2
		c35.5-13.7,64.6-41.3,80.1-76l4.4-4.7c26-29,59-67,73-84c12.4-15.8,25.4-35.1,38.8-57.7c17.3-21.3,30.7-45.8,39-72.3
		c6-12.1,12-24.6,18.1-37.9c30-64,42-170,25-221c-15-48-43-62-122-61c-60.8,0-86.3-0.5-98.4,18.6c-0.3,0.1-0.6,0.2-0.9,0.3
		c-11.9,0.5-23.5,2.3-34.5,5.6c-7-3.8-28.4,5.6-74.3,30.2c-16.7,6.7-32.4,15.5-46.8,26c-95.9,55.8-153.8,109.5-261,236.2
		c-68,79-141,174-164,211c-15,26-28,34-49,34c-14.5,0-29,6.6-32.6,14.3c-21-15.5-43.1-29.6-66.2-42.1c-0.1-0.1-0.1-0.1-0.2-0.2
		c-22-20-25-31-25-78c1-46,6-60,28-83c14.9-15.4,21.9-23,25.3-51.3c13.3-10.7,25.4-22.9,36-36.4l-0.3,18.7l35-39
		c19-21,76-83,125-137c50-55,115-117,145-139s60-45,65-52c29-34,162-89,235-97c2.7-0.4,5.1-0.8,7.3-1.4c10.4,1.6,21,2.4,31.7,2.4
		c15.4,0,30.4-1.7,45-4.9c16,2.9,39.2,5.8,51,5.8c38,0,128,32,165,59c46,33,110,100,110,114c0,7,8,28,19,47
		c18.5,34.6,27.7,78.7,28.4,127.5C5763.4,10100.5,5761.2,10114.3,5761.2,10128.5z"/>
	<path d="M6111,10875c-13,4-32,14-43,24c-63.3,50.6-71,58-73.3,87c-2.5,0.5-5,1-7.5,1.7c-17.2,4.7-31.4,12.2-44,21.7
		c-1-5.9-2.4-9.3-4.1-9.3c-5,0-9,6-9,14c0,2.3-0.4,4.8-1,7.2c-4.7,4.6-9.2,9.6-13.6,14.8c-1.5-1.3-0.9-5.6,1.6-11.9c4-12-7-8-41,15
		c-26,18-50,39-53,47c-3,8-11,14-19,14c-8,0-14,5-14,10c0,6-5,10-12,10c-19,0-47,31-42,45c4,9,0,12-13,9c-21-5-37,9-151,134
		c-89,96-136,127-180,118c-28-5.6-46.3,1.6-56.7,23.8c-15,7.9-28.3,18.5-39.6,31l0.3-10.8l-24,23c-37,33-65,103-58,141
		c3.3,17.3,21.5,54.6,38.8,83.9c16.8,38.7,50.4,68.9,91.2,81.1c6.6,6,12.3,9.7,15,9c3-1,17,3,31,9c14,6,32,12,40,15
		c29,9,149,0,204-16c124-36,166-90,166-210c0-72-16-140-54-231c-43-101-48-133-26-160c7-8,22-15,35-15c31,0,85,29,85,46
		c0,8,3,14,8,14c8,0,23,32,50,111c10.6,29.8,23.9,62.2,30.2,73.5c5.6,30.8,21.4,58.4,43.6,79.1c-1.4,48.4-2.4,89.8-2.8,116.3
		c-0.4,59-1.3,108.5-2.9,161.1c-29.3,11.9-45.4,39.7-48.1,69.1c-0.7,0-1.3-0.2-2.1-0.2c-9,0-19,7-22,15c-9,22-113,77-176,91
		c-32,8-97,16-145,18c-76,5-97,2-158-20c-38-14-81-27-95-30c-4.3-0.9-7.5-1.6-10.3-2c-7.4-5.5-14.9-10.9-22.5-16
		c-1.8-16.4-9.8-22.1-32.2-35.9c-89-55-153-163-177-301c-10-52-8-62,16-114c25-56,124-165,150-165c7,0,23-11,35-24
		c10.3-11.2,16-19.7,19.7-49.4c11.4-3.1,22.3-7.5,32.5-13.2c2.8,2.6,7.2,1.7,13.8-0.4c11-3,42-27,70-53c27-26,73-67,100-90
		c28-24,52-47,53-51c2-5,8-9,14-9c14,0,74-52,71-62c-2-4,5-8,15-8s29-11,42-25c13-14,27-25,32-25s21-11,36-25c15-15,62-51,105-82
		c49.9-36.3,73.2-56.1,75.1-65.6c13.9-2.9,27.1-7.9,39.3-14.6c2.7,2.6,6.5,0.9,11.6-1.8c33-18,62-12,107,22c39,28,43,36,44,73
		C6160,10849,6151,10863,6111,10875z"/>
	<path d="M7892,12994c-11.3-8-17.2-10.5-20-8.5c-14.3-10.2-29.6-19-47-25.2v-5.2l-70-36c-38-20-90-44-115-54c-25-9-53-20-62-25
		c-6.8-4.5-21.4-6.2-35.5-5.1c-10.7-6.4-23.8-10.2-39-10.8c-2.9-4.1-10-7.7-20.5-10.1c-15-3-35-8-43-11c-15-5.6-83.4-9.3-135.3-9.3
		c-15.8-5-31.6-4.1-49.2-1.5c-27.4,4.1-53.7,17-77.8,30.4c-19.1,4.3-58.1,35.2-73.6,61.3c-16,26-18,46-15,131c13,289,7,328-60,393
		c-45,44-58,50-120,61c-117,21-205-8-292-96l-47-47l-0.2,5.3c-4.2-4.7-8.9-8.8-14-12c-6.1-8.6-12.1-17.3-17.9-26.1
		c-0.6-0.9-1.3-1.7-1.9-2.6c-1.1-28.7-6.4-55.9-16-89.7c-23-76-29-158-17-248c9-61,9-62-15-56c-12,4-33,14-45,23c-25,19-70,18-106-2
		c-11.7-6.8-26.2-10.8-33.4-10c-1.2-0.8-2.5-1.4-3.7-2.2c-1.7-1.1-3.3-2.3-5-3.5c-5.3-4.5-10.5-9-15.7-13.5
		c-5.3-9-14.5-16.5-21.9-18.3c-11.1-8.8-22.2-15.6-34.9-19.3c-12.3-14.8-30.2-31.1-36.5-31.1c-5,0-24-12-43-26
		c-13.4-9.9-28.3-17.2-38.7-19.6c-5-4.7-10-9.5-15.2-14c-7-6.1-14.6-11-22.6-14.9c-32.7-39.9-106.5-115.5-116.5-115.5
		c-0.1,0-0.2,0.1-0.3,0.1c-9.1-11.7-21.5-20.8-37.4-25.6c-3.6-6.3-7.9-12.2-13.1-17.2c-2.2-19.4-6-28.3-12.1-35.3c-9-10-17-24-17-30
		c0-7-4-12-8-12c-27,0-87-185-79-243c8-56,33-75,92-71l45,3v-31.7c14.5-4.6,27.4-13.3,37.5-24.4c2.7,0.9,6.7-2.6,12.5-7.9
		c11-10,20-26,20-37c0-10,3-17,8-15c19.4,6.2,138.5-148.1,166.1-209.8c13.3-9.9,22.5-23.7,27.6-39.1c1.9-2.8,3.7-5.7,5.2-8.7
		c8.7-8,15.2-18,19.6-28.9c13.2-4,28.6-20.1,56.5-55.5c26-34,47-64,48-69c1-12,133-122,177-147c23-13,52-25,64-27l23-3v-5.8
		c1.6-0.4,3.1-0.8,4.6-1.3c6.2,1.4,12.9,2.1,20,2.1c5.4,0,10.5-0.5,15.4-1.3l0,2.2l69,24c111,39,187,99,276,220
		c63,85,91,145,110,238c6,31,3,44-14,69c-11,17-30,33-40,34c-23,3-45-22-46-51c0-29-36-119-67-168c-38-62-116-156-129-156
		c-6-1-17-8-24-16c-12.2-15.3-69.2-18.8-107.5-11.3c-1.2,0-2.3-0.2-3.5-0.2c-36,0-60,18.6-72.1,43.3l0.1-6.9l-26,22
		c-33,29-74.4,70.4-109.3,108.4c-14,8.2-24.2,20.5-30.6,34.6c-11.9,14.1-22,26.8-29.1,37l-31,45l22,41c12,22,31,51,42,64
		c11,13,29,40,39,59c11,18,22,36,25,39c4,3,22,28,41,57c16.2,23.7,24.9,36.2,30.4,40.4c-1.1,37.7,19.4,76.1,61.9,85.1
		c2.5,13.7,5.6,23.2,9.8,32.5c18,40,24,106,11,104c-13.7-2.2-22.9-2.6-29.2,1c-8.2-12.8-20-23.2-35.5-29.3
		c-3.1-3.2-6.5-6.2-10.2-8.8l-0.2-16.9l-40-45c-23.4-26.2-33.2-35.8-34.8-31.7c-2.5-2.7-5.1-5.2-8-7.6c0.3-0.6,0.5-1.2,0.8-1.7
		c3-6,2-14-3-18c-6-3-41-42-78-86c-37-44-72-79-76-78c-5,2-6-3-4-10c3-6-8-27-23-45c-27-31-29-32-44-15c-29,34-138,201-138,211
		c0,6-6,15-12,19c-7,4-24,28-37,53c-34,63-40,70-67,70c-13,0-24,5-24,10c0,6,8,10,17,10c15,0,14,2-3,16c-15,13-16,15-2,10
		c12-3,15-1,12,9c-3,7,4,18,15,25c12,6,21,16,21,23c0,12,55,73,116,129c16,14,45,43,64,63c56,59,128,87,149,58c3-5,24-21,46-37
		c22-16,48-39,57-50c10-12,18-17,18-12s6,3,14-4c5.9-4.4,9.6-12.7,10-20.4c2.6-1.7,5.1-3.6,7.4-5.6c7.2,7.6,13,5.7,28.6-9.1
		c2.1-1.9,4-3.7,5.7-5.6c14.6-6.5,25.6-17.1,33.3-29.7c6.7-3.9,12.5-8.8,17.4-14.3c0.8,3,1.7,4.7,2.7,4.7c3,0,35-23,71-50
		c36-27,77-61,92-75s29-25,32-25c3,0,17-10,32-22c48-43,199-148,212-148c6,0,12-4,12-9s9-13,20-16c11-4,37-22,58-41
		c26-24,43-33,58-29c4.2,1,7.5,1.6,10.2,1.2c14.9,21.1,39,35.1,66.7,35.6c4.6,10.7,10.4,21.3,16.2,29.2c30,41,36,75,17,104
		c-9,14-23,25-32,25c-8.7,0-11.9,0.8-9.9,4.7c-21.1,7.2-41.6,16.6-61.5,26.5c-6.3,3.1-11.7,7.1-16.6,11.8l-14,8.1
		c-43,27-104,73-147,111c-16,16-34,28-39,28s-24,11-42,25c-18,14-37,25-43,25c-6,0-18,14-27,31c-8,17-32,50-53,73
		c-68,76-118,156-147,235c-51,137-20,306,61,342c34,15,121,3,154-22c56-41,59-59,52-360c-3-119,2-142,49-204c35-46,148-105,203-105
		c1.9,0,3.9-0.5,5.8-1.5c8.7,3.1,17.9,4.9,27.6,4.9h37.4c0.4,0,0.9-0.1,1.3-0.1c7.3,1.3,17.3,2,30.9,2.7
		c74.1,2.9,270,72.7,401,136.1c7.4,5.8,16.2,10.3,26.3,13.1c35.5,18.2,64.3,35.4,81.7,49.8c5.9,4.5,11.6,8.7,16.9,12.4
		c10.6,20.2,29.7,36.1,53,44.9c-23-8.6-5.2-0.4,5,5.7c2,1.7,4.2,3.5,5.2,4.4c4.5,4,9,8.1,13.5,12.2c12.4,11.7,24.4,23.6,36.8,35.3
		c9.7,15,14.7,28.9,14.7,41.1C7940,13014,7926,13018,7892,12994z"/>
	<path d="M9285,14595c-8,16-20,45-27,63c-7,17-16,32-20,32c-5,0-8,11-8,24c0,14-11,38-25,54c-14,17-25,35-25,41c0,7-7,14-15,17
		c-8,4-15,13-15,22s-10,26-22,40c-7.8,8.2-13,15.2-16.6,27.4c-22,17-41.5,35.2-58.7,54.5c-4.2-1.8-9.7,2.3-16.7,11.1
		c-23,29-83,66-136,83c-77,25-276,32-316,11c-16-8-32-15-36-15s-23-17-42-37c-19-21-37-36-40-33c-0.3,0.5-0.7,2.9-1.2,6.8
		c-17.8-39.4-31-81.8-0.2-82.9c1.9-0.1,3.6-0.3,5.4-0.5v6.5l38,1c20,0,51,9,67,18c17,10,45,18,63,18c30-1,32-2,16-14
		c-10-7-20-13-23-13c-4,0-25-28-48-62c-51-77-65-127-102-353c-0.4-2.6-0.9-5-1.2-7.2c3.5-45,7.9-89.9,5.7-135.3
		c-1.9-39.7-4-78.9-2.5-118.6c0.2-5.5,0.2-10.8,0.2-16.2c1.3-4.9,3.3-9.5,6.7-13.3c16.3-18.4,17.4-39.8,10-57.7
		c0-0.6,0.1-1.1,0.1-1.7c0-8-4-15-10-15c-0.1,0-0.2,0-0.2,0c-11.6-13.7-28.7-22.2-45.9-20.3l0.1-2.8l-32.9-2.5
		c-31.3-11.2-67.9-13.5-97.7-18.2c-0.3-0.1-0.7-0.1-1-0.1c-52.9-19.3-252.1-69.5-257.4-64.2c-2,2,7,25,20,53c13,27,32,93,41,147
		c17,93,17,101,0,153c-9,30-31,74-49,97c-33,43-109,96-140,97c-7,0.7-13.8,4.4-18.8,9.6c-14,4.1-27.1,9.9-41,15.2
		c-7.2-0.1-15.3,0.6-22.2,2.2c-2.8,0.7-5.2,1.6-7.4,2.6c-25,2-50.8,5.6-74.8,0.9c-5.2-1-10.5-1.2-15.6-1c-6.9-1.1-15-2.2-25.2-3.5
		c-76-9-168-32-218-55c-64-29-175-108-220-156c-11-12-22.8-23-32.5-31c-8.7-16.7-18.1-33-28.4-48.8c-2-8.7-5.5-18.6-10.1-27.2
		l-18-32l-1.3,18.2c-13.6-17.4-28.2-34-43.7-49.7c1.4-56.1,2.9-111,4.9-173.1c15.7-7.1,29.4-18.6,38.4-34.5
		c8.4-7.1,25.7-22.6,44.7-40.9c26-25,51-45,57-45c5,0,3-5-5-10c-10-6,4-8,43-6c32,2,69,12,84,21c22,15,24,22,19,53
		c-5,36-11,43-106,125c-29,24-31,31-25,63c7,39.9,49.8,113.7,64.9,114c1.8,2.4,3.6,4.9,5.6,7.3c1.3,1.6,2.7,3,4.2,4.4
		c0.1,0.8,0.3,1.5,0.3,2.4c0,7,14,24,32,37c17,13,37,29,43,36c23,22,97,56,149,69c52.2,12.6,126.2,16,160.9,9c8.6,0,17.7-2.3,27-7.6
		c5.7-3.2,11.2-6.6,16.8-9.9c9.1-1.6,17.7-5.4,24.9-11.2c0.7,2.4,1.5,3.7,2.4,3.7c3,0,18-7,33-14c15-8,43-32,61-52l32-37l-5-91
		c-4-85-8-97-56-192c-28-56-51-113-51-128c0-29,25-46,69-46c9.3,0,16.3-1,21.4-3c2.3,0.1,4.6,0.3,6.9,0.4
		c9.6,5.2,19.3,9.3,29.4,12.4c10,6.9,35.2,12.2,98.4,25.2c44,9,110,25,146,36c36,10,79,18,95,18c15.3,0,38.6,1.8,53.8,5.5
		c16.3,6.3,32.1,6.7,46.8,2.7c11.8-2.3,21.3-6.9,27.2-13.2c6.8-4.9,13.1-10.8,18.9-17.3c3.6-1.7,7.2-3.3,10.8-5
		c12.3-5.9,21.6-19.9,25.1-32.7c0.3-1.2,0.4-2.4,0.6-3.6c0.6-1.3,1.2-2.7,1.8-4.3c5-13,8-34,6-47c-1.9-15.2-4.4-24.2-6.8-27.8
		c-4.3-46.4-20.8-99.2-38.1-140.9c-15.5-37.4-33-72-60.9-100.7c-9.4-26.4-37.1-75.9-74.2-131.6c-21-31-47-44-47-23c0,6-11,10-24,10
		c-14,0-27,4-30,9s-21,12-40,15c-19,4-45,15-59,26c-14,11-28,20-31,20c-4,0-12,4-19,10c-56,46-75,59-79,55c-2-2-38,31-80,74l-77,79
		l0,8.3c-13.3,2.4-26.1,9.7-35.7,23.6c-2.6,3.8-5,7.7-7.5,11.6c-9.9,6.4-37.2,33.2-66.8,64.5l-61,67l-48-7c-31-4-53-14-65-29
		c-43-53-48-107-14-140c36-34,77-67,83-67c4,0,48-41,99-91c31.9-31.6,53.5-50.5,68.3-70.1c21.4-10.7,42.3-22,62.1-36.8
		c6.1-3.6,11.4-8.1,16-13.1c0.2-0.1,0.3-0.2,0.5-0.4c8.8-7.8,15.1-16.2,19.5-24.8c16.4-10.9,42.1-25.3,68.6-39c117-59,121-61,187-81
		c53-16,63-23,63-42c0-12,7-25,16-29c16.5-6.3,81.8,13.4,112.4,30.4c3.4,2.1,6.8,4.3,10.1,6.5c2.8,2.2,4.8,4.3,5.6,6.1
		c2.3,6.1,8.1,9.3,15.2,8.6c2.2,1.7,4.5,3.2,6.7,4.9c-0.4,16.2,5.3,32.8,18.3,44.7c8.8,19.8,23.1,40,36.8,48.8
		c1.9,1.2,3.8,2.6,5.5,4.2c2.3,2.7,4.7,5.3,7.1,7.9c1.1,1.5,2.1,3.1,2.9,4.7c0.9,4.5,2,8.8,3.5,13.1c0.3,8.8,5.1,19.2,10.9,22.1
		c0.4,0.3,0.7,0.2,1.1,0.3c3.9,5.2,8.5,9.9,13.7,14c4.4,7.4,10,14.2,16.8,19.8c3.7,4.2,7.8,8.1,12.5,11.4c1.1,9.5,8.8,25,22.9,46.5
		c18,28,32,53,32,57s11,22,25,40s30,48,37,67c6,19,16,37,22,41c5,4,16,35,23,69c14,72,17,76,38,59c9-8,46-13,93-14c63-1,91,4,152,27
		c41,16,91,42,110,57c13.9,11.6,22.6,17.9,28.5,20c18.8,16.8,37.3,33.8,54.4,52c3.4,15.2,8.7,25.8,17.1,36.9c11,17,27,34,34,38
		c8,5,35,49,60,100c40,78,48,106,57,183C9322,14454,9313,14529,9285,14595z M9091,14160c-6,0-11-8-11-18c0-11-9-27-20-37
		s-20-22-20-28c0-15-72-78-107-93c-18-8-43-14-55-14c-23.1,1-58.1,21.3-53.6,30.9c-5.5,0.6-10.9,1.7-16.2,3.8
		c0.1,0.2,0.2,0.4,0.2,0.6c-4.4,1.4-8.8,3-13.3,4.9c-6.7,2.8-11.9,6.8-16,11.4c-6.3,2.7-14.9,13.3-24.2,31.4c-9,17-28,52-42,77
		c-41,72-63,172-63,290c0,199,26,333,81,421c4,6.4,7.5,12.3,10.6,17.8c0.8,13.9,6.5,25.2,15.1,33.3c4.8,16.2,2.7,26.7-6.7,32.8
		c-6,4-8,10-5,15c7,11,75-8,96-26c8-8,20-14,25-14c15,0,154-148,154-164c0-2.7,0.3-5.1,0.8-7.3c2.2-2.8,4.4-5.7,6.6-8.6
		c0.2,0,0.4-0.1,0.6-0.1c5.7,0,15.2-15.5,24.6-36.3c28.8-45.4,51.3-95.7,63.5-147.8c16.5-41.2,22.9-87.5,24.9-132.9
		c3.5-80.1-13.6-148.3-44.2-216C9097.9,14169.9,9095.7,14160,9091,14160z"/>
	<path d="M10318.6,15412.2c-1-0.5-3.4,2.1-7.6,7.8c-6,8-11,27-11,42c0,14-9,48-20,73c-7.7,18-11.9,30.8-13.2,40.4
		c-14.8,12.4-20.9,32.9-18.2,51.9c-7.8,13.8-15.2,39.6-25.6,85.8c-22,97-37,145-59,189c-8,14-14,33-14,41s-7,17-15,21
		c-8,3-15,12-15,21c0,10-10,15-32,14c-44-1-60-8-103-48c-31-28-36-38-32-65c5-29,91-281,116-336c36-82,85-356,85-482
		c1-92,0-98-29-140c-38-53-74-71-145-71c-60-1-122,28-190,86c-6.3,5.5-11.5,10.2-15.8,14.8c-17.8,4-35.1,9.8-51.7,17.8l-28.5-7.6
		c-16-4-48-25-71-46c-34-31-40-43-36-65c3-15,3-27,0-27c-9,0-67,100-67,115c0,8-4,15-9,15c-4,0-16,21-26,48c-10,26-33,79-52,118
		c-18,39-33,78-33,87s-4,19-10,22c-5,3-10,15-10,26c0,10-3,19-7,19c-5,0-16,19-26,43c-33,78-71,105-140,99c-31-3-40-9-49-30
		c-5-15-14-35-19-44c-14-27-11-42,16-89c14-24,25-51,25-61c0-9,4-18,10-20c10-3,80-164,80-184c0-7,4-14,8-16c5-1,26-39,47-83
		s48-93,59-110c12-16,29-44,38-62c24-44,106-151,136-177c7-6,21-18,31-27c14-12,33-15,80-12l57.4,3.8c13.4,13.2,28.8,24.9,44.6,35.8
		c2.3,6.6,5.2,11.6,9.1,16.4c14,18,16,32,9,77c-15,104-27,95,124,95c114,0,141,3,196,24c70,25,67,24,129,77
		c31.4,27.5,68.4,78.4,91,121.1c4.8,19.5,10.2,38.9,15.7,58.2c-0.9,66-6.8,132.3-7.9,198.1
		C10335.7,15280,10330.4,15346.6,10318.6,15412.2z"/>
	<path d="M11886,15818c-7,13-15,19-19,15s-18-8-30-10s-23-8-25-13c-2-6-8-10-12-10c-5,0-32-14-61-30c-6.3-3.8-12.5-7.3-18.3-10.4
		c-25-29.7-63-50.7-97.3-67.6c-5.5-2.7-11-5.6-16.5-8.3c-9.3-6-17.9-10.4-25.9-13.4c-16.2-8.6-32.4-17.2-48.6-25.6
		c-11.6-10.5-24.2-20-37.5-28c-19.3-14.5-41.9-27.7-58-31.7c-15-4-27-11-27-15s-15-15-32-24c-18-9-40-21-48-26s-40-21-70-36
		c-30-14-68-33-85-42c-15.1-8.5-45.2-15.1-67.9-16.7c-8.7-5.1-17.7-9.7-26.9-13.6c-0.1-5.9-7.6-11.7-20.2-11.7
		c-4.2,0-7.6,0.4-10.3,1.8c-16.5-3.5-33.4-3.9-50.3,0.4c-1.1-13.2-3.3-12.8-12.4-1.2c-7,9-16,16-22,17c-22,2-93,85-123,144
		c-39,78-84,296-107,518c-22,214-30,247-67,266c-39,20-83,10-125-29c-30-28-33-37-33-88c0-31,11-130,25-220s28-180,30-199
		c27-223,88-393,173-479s95-91,183-91c15.3,0,28-0.3,38.5-0.9c4.6,0.9,9.5,1.3,14.9,0.9c22.1-1.4,44.5-0.3,66.7,2.7
		c-2.4,8.8-0.6,8.8,8.5,1.3c12.2,1.9,24.4,4.4,36.5,7.4c2.8,1.7,6.3,3.4,10.9,5.6c13.6,6.4,20.1,7.6,22.2,3.7
		c6.5,2.1,13,4.3,19.5,6.6c14.6,15.4,39.6,27.6,55.8,29.7c58.8,46.7,116.7,92.9,185.2,127c22.6,11.2,45.4,23.3,69.4,31.5
		c12.4,4.2,26.7,7.4,39.3,12.9c8.5,5.6,16.4,10.6,23.6,14.8c33.2,25,60,52.6,99.9,69.9c62.1,27,116.7,71.2,177.5,100.4
		C11872,15715.3,11908.4,15775.9,11886,15818z"/>
	<path d="M16716,13655c-14,177-60,576-70,606c-3,8-7,30-10,49c-11,74-58,281-67,295c-4,6-10,25-14,43s-13,45-21,60s-14,34-14,42
		c0,9-22,66-49,126c-27,61-52,122-56,135s-11,26-14,29c-7,5-32,56-80,166c-13,28-23,68-24,90c0,11.4-1.5,23.6-3.7,33.6
		c-12.8,14.3-24.9,29.3-36.2,44.9c-0.7-2.2-1.4-3.8-2.2-4.5c-6-5-26-1-47,10c-20,9-62,21-92,24c-47,6-59,12-70,34
		c-15,29-41,53-75,71c-11,6-23,20-26,31c-4,11-15,20-27,20c-11,0-22,8-25,19s-16,22-29,25c-13,4-24,12-24,19c0,26-67,56-122,55
		c-30.4-0.6-51.6-1-66.3-0.3c-2.4,0-4.8-0.2-7.2-0.2c-18.7,0-37.3,1-55.6,2.9v-0.4h-113c-77,0-116,4-118,11c-3,8-10,9-23,3
		c-11-5-84-9-162-9c-77,0-139-3-136-7c2-5-7-4-21,2c-2.8,1-5.7,1.8-8.7,2.6c-51.2-7-102.8-11.3-154.7-12.7l-12.6-0.9
		c-47-4-141-10-210-14s-132-9-140-11c-8-3-51-6-96-7l-82-2l-0.2,2.8c-15.1-5.3-30.4-9.6-46.8-11.5l0-1.3l-100-12
		c-55-7-127-17-160-22c-147.6-24.4-272.6-41.8-329-46.9c-22-10-45-9.8-68.7-3.6c-1.1-0.2-2.2-0.5-3.4-0.8
		c-2.7-13.5-11.4-16.6-38.9-21.8c-135-26-162-31-177-30c-10,0-20-3-23-9c-4-5-21-9-39-9s-59-9-92-19c-32-11-73-22-91-24
		c-17-3-35-7-40-10c-4-3-32-8-60-11c-8.9-1-16.3-1.8-22.4-2.4c-19.2-8-39.1-13.8-59.9-15.7l-59.7-16.9c-36-10-91-25-121-31
		c-30-7-63-16-72-21s-36-11-60-15c-41-6-151-37-193-54c-10.6-4.8-36.7-11.4-58.3-14.6c-27.7-11.6-56.1-21.4-84.9-29.9l0.1-5.5h-19.3
		c-36-10-72.5-18.6-109-27c-24.5-7.6-46.7-13-53.7-13c-1.2,0-2.4-0.1-3.6-0.3c-2.7-0.7-5.5-1.3-8.2-2c-6.8-2.4-13.4-6.4-17.2-10.8
		c-6-8-23-12-41-9c-4.9,0.7-9.4,1-13.5,0.9c-8.4-2.4-16.7-5-25-7.6c-1.6-1.3-3.1-2.7-4.4-4.3c-10.5-14-41-21.6-59.1-18.7
		c-13.6-5.8-27-12-40.3-18.5c-3.4-6-9.2-8.3-17.9-8.7c-21.1-10.2-42.3-20.2-64.7-27.8c-43.3-14.7-87.5-25.6-131.6-37.6
		c-41.5-11.3-82.7-24.6-123.5-39.1c0-0.2,0.1-0.4,0.1-0.6c0-8-14-15-34-18c-8.1-0.8-14.4-1.2-19.4-0.9
		c-37.3-14.2-74.3-29.2-111-44.4c-2.7-1.9-5.4-3.8-8-5.7c-0.9-21.2-12-42.4-36.5-52.2c-57.5-23-116.5-41.5-175.9-58.9
		c-14.2-4.8-28.4-9.6-42.7-14.4c-83.3-28.5-168.7-52.4-252.7-79.3c-9.7-4.1-19.3-8.3-28.7-12.8c-1.4-1.3-3.1-2.7-5.1-4.2
		c-5.8-4.3-13.7-7.3-21.2-8.9c-49.8-25.9-97-55.5-148.2-80.3c-34.6-16.8-70.2-31.3-106.4-44.4c-32.9-12-74-19.9-98.4-46.2
		c-18.4-19.8-41-20.7-59.2-11.3c-7.7-4-15.6-7.8-23.4-11.3c-7.3-4.5-16.1-8.4-26.7-11.8l-53.5-23.8c-30-13-62-34-73-45
		c-10-12-23-19-28-16c-4,3-23-3-41-14c-63-39-229-122-242-122c-7,0-15-3-17-7c-5-13-87-63-102-63c-7,0-19-7-26-15
		c-5.5-6.3-14.7-11.9-22.8-14c-35.2-28.6-73.3-53.3-114.2-72.9c-65.2-66.5-152.4-113.9-227.3-167.5
		c-100-71.5-197.7-146.4-298.4-216.8c-99.3-69.5-203.5-133.1-300-206.5c-46.6-35.4-89.4-75.3-136.1-110.6
		c-41.8-31.6-86.1-59.5-128.9-89.6C8086,12910,7483,12814,5294.9,8637.2c-17.1-32.7-99.9-494.2-120.9-557.2c-9-25-20-63-24-85
		c-10-46-22-94-43-180c-44-175-55-222-86-380c-5-27-19-106-30-175c-12-69-26-152-31-185c-6-33-15-96-20-140c-5-44-13-91-16-105
		c-3-14-7-45-9-70c-2-25-6-72-10-105c-34-320-33-852,3-1200c6-55,10-107,10-115c-1-24,21-225,37-330c8-52,19-133,26-180
		c6-47,13-98,15-115c2-16,9-52,15-80c6-27,13-63,15-80c10.3-63.6,16.8-104.4,20.2-129.4c4.5-15.4,7.4-31.4,8.4-47.8
		c1.5-0.4,3.3-1.3,5.4-2.7c6-4,8-10,5-15c-2-4-1-21,4-36c2.4-7.2,4.4-13.9,6.3-20.3c20-32.8,31.7-71.1,31.7-111.7
		c0-6.7-0.4-13.4-1-20c5.5-15.9,9.9-35.5,11.9-51.4c9.9-18.7,19.3-37.7,28.4-56.8c17.8,4.8,36.4,7.4,55.5,7.4c9,0,17.8-0.6,26.5-1.7
		c0.9,0.2,1.9,0.4,2.7,0.4c1.7,0,3.2-0.6,4.5-1.4c11.8-1.9,23.4-4.8,34.5-8.6c0,0,0,0,0,0.1c0,11.1,23,11.9,48.6,2.5
		c28.8-0.6,56.3-7,81.5-18.1c6,0.5,12.1,0.9,18.3,0.9c44.9,0,87-14.2,122-38.4c40-4.1,125.5-0.3,131.7,8.1
		c11.9,15.5,9.5,95.8-2.3,143.9c-8.2,18.7-13.7,38.7-16.2,59.5c-4,17.3-7.4,35.1-9.4,49.5c-0.3,2.5-0.7,5-1.1,7.5
		c-21.7,33.7-34.4,73.6-34.4,115.9c0,2.6,0.1,5.2,0.2,7.8c-5.1,11.9-12.5,43.1-17.7,75.8c-6,39-20,115-31,170c-12,55-23,132-25,170
		c-2,39-6,77-8,85c-28,91-59,386-88,815c-10,149-7,581,5,705c5,48,10,103,32,307c2,23,9,73,14,110c6,37,15,104,20,148
		c5,44,16,112,25,150c8,39,24,122,35,185c25,140,56,275,80,355c10,33,22,76,25,95c4,19,9,38,12,43c3.5,6.1,1124.8-177,1136-180
		c54-14,193-67,252-93c125-56,279.3-140,280-140c3,0,60-34,128-77c110-69,263-175,326-228c58-48,205-191,262-242c28-27,59-57,68-67
		c9-11,635.6-902.2,644.1-914.1c5.6-3.6,10.9-11.1,14.1-20.6c12-18.4,23-37.5,32.9-57.3c24.3-30.2,63-94.3,63-111c0-7,66-114,84-146
		c18-33,33-65,33-72c0-7,8-23,19-36c3.5-4.5,7.4-11,11.4-18.4c13.6-20.7,23.8-43.7,29.7-68.2c5.5-12.2,10.7-21.5,13.9-23.4
		c3.7-2.9,5.1-9.1,4.5-15.3c14.1-20,24.9-42.4,31.6-66.3c15.2-26.1,30.4-58.5,34.9-77.4c8-36,11-44,40-98c0.6-1.2,1.2-2.3,1.7-3.5
		c21.3-28.1,35.9-61.4,41.5-97.3c7.6-15.6,10-26.3,8.3-37.5c3.4-7.3,6.4-14.8,9-22.5c7-1.2,19.3-19.9,29.5-48.2c10-27,25-64,34-83
		c5.7-12.8,10-30.8,13-56.8c18.1-26.1,30.7-56.2,36-88.5c4.8-7.1,9.2-14.5,13.2-22.2c0.6,0.8,1.2,0.9,1.9,0.4
		c3.1-1.6,5.6-9.2,6.6-18.6c6-14.7,10.4-30.1,13-46.1c13.4-29.3,54.4-146.5,88.2-250.3c27.9-36.5,44.6-81.9,44.6-130.6
		c0-4.8-0.2-9.5-0.5-14.2c8.5-33.6,15.5-70.3,17.1-88.3l3-40c0,0-3764.8-573.3-4240.6-759.4c-5.5-2.2-73.6-191.4-104.5-282
		c83,14.8,167.5,22.5,252.6,22.5c62.4,0,3288.2,372.9,4837.6,798.9c41.2,11.3,92.4,32.5,115,41c2425.9,917,4640,3806,4645,3809
		c5,3,15,18,23,33c31,61,979,1935,1007,2009c16,43,43,112,61,153c39,93,134,369,210,612c13,43,27,78,30,78c2,0,29,117.7,41,165
		c11,44,33,136,49,205s36,150,43,180c14,54,49,226,66,325c5,28,16,88,24,135s18,112,21,145c4,33,8,67,11,75c16,59,62,505,69,675
		c3,61,10,186,16,278C16744,12912,16737,13378,16716,13655z M15623,9955c-104-262-211-497-381-840c-90-181-424-794-459-858
		c-50-90-63-114-92-162c-13-22-35-60-49-85c-40-72-114-180-123-180c-5,0-9-5-9-11c0-14-61-116-115-191c-22-31-69-98-105-150
		c-74-107-64-93-132-180c-29-36-75-96-103-133c-27-37-78-97-111-133c-34-37-81-92-104-122c-24-30-48-60-54-65c-6-6-49-53-96-105
		c-171-189-446-469-600-610c-52-47-1715-1691.9-2884-1860c-3-0.4-30-11-60-25c-63-29-64-29-63-12c3,21-24,150-40,197
		c-4.3,13.4-8.9,39.7-12.5,70.5c-29.8,34-49.3,77-53.4,124c-4.4,11.7-9.4,26.8-15.1,45.5c-28,88-60,179-77,215c-7,17-17,44-21,60
		c-4,17-10,32-13,35c-6,5-71,162-71,172c0,4-16,41-35,85c-47,102-54,119-106,238c-53,121-152,295.4-228,455
		c-152.3,319.9-989,1341-1029,1379c-40,39-75,71-77,71c-5,0-23,14-69,56c-15,13-31,24-36,24s-13,6-17,14c-4,7-27,25-51,40
		c-24,15-64,43-89,62l-37.8,28.9c-18.7,9.9-35.9,22.4-51,37.1c-10.1,2.7-26.2,11.3-48.2,26c-22,15-70,42-106,61c-36,19-72,40-81,47
		c-8,8-23,14-31,14c-9,0-21,7-28,15c-7,8-17,15-22,15s-56,23-113,50c-57,27-109,50-115,50c-7,0-24,7-38,16c-4.9,2.8-8.9,5.3-12.2,8
		c0,0-0.1,0-0.1,0c-43.6,0-84.6,13.5-119,36.3c-11.6,1-20.7,4.3-20.7,7.6c0,0.4-0.2,0.8-0.4,1.2c-13.9,1.8-27.5,5-40.5,9.4
		c-13.9,1.4-27.3,5.4-32.1,9.4c-7,5-28,12-47,16c-40,7-67,13-125,26c-22,5-76,16-120,25c-19.2,3.9-36,7.3-50.9,10.5
		c-91.5-16-175.9,29.6-267.2,33.2c-97.8,3.9-194.8,7.2-291.6,22.7c-99.2,15.9-395.5,73.5-405.6,84.2
		c0,930.3,1899.8,3505.1,1900.7,3505.3c11.3,19.1,1086.8,1500.9,2200.8,1902.1c24.3,8.7,43,27,48,27c11,0,78,37,101,56
		c8,6,61,36,118,65c57,30,122,64,145,76c10.7,5.6,21.4,10.6,30.5,14.5c22.3,17,47.8,29.8,75.4,37.3c0.4,0.4,0.8,0.8,1.1,1.2
		c11,13,60,40,74,40c8,0,16,4,18,8s32,20,68,36c36,15,83,36,105,46c32.7,14.9,49.7,21.9,72.4,28.8c36.2,41.4,84,69.2,135.3,78.1
		c41.8,39.3,98.4,63.9,153.4,63.9c0.3,0,0.6,0,1,0c21.3,16.1,45.4,28.5,71.3,35.6c16.2,4.5,32.3,6.8,48.1,7.5c2.3,1.7,4.5,3.4,6.8,5
		c13.6,9.4,28.1,18,37.4,32c16.4,24.8,42.8,29.2,64.9,21.7c31.3,15.2,76.6,1.9,79.6-40.3c2.4-6.8,3.9-12.7,3.9-15.2
		c0.6-3.1-0.8-4.1-3.3-3.8c0.5-5.1,1.3-10.2,2.3-15.2c7.7-4.3,12.1-16.3,16-40c4-24,13-63,21-88s33-99,54-165c57-173,89-263,117-321
		c13-28,24-58,24-66c0-9,7-21,15-28s15-19,15-26s9-30,20-51c4.7-9,8.2-18.1,11.2-30.4c27.6-26.7,49.5-60.7,63.7-99.2
		c5-13.5,9.9-27,14.8-40.6c8.7-12.1,19.3-29.7,30.3-50.8c16-31,41-76,55-99c13-24,22-43,18-43s4-12,18-27c14-16,31-41,39-58
		c8-16,22-42,32-57c10-14,18-33,18-41c0-9,4-17,8-19c5-1,25-29,45-60c36-56,96-147,127-192c8-12,46-68,83-124c38-56,72-104,77-107
		c6-3,24-26,40-51l31-44l0.3-15.6c20.2-12.7,37.1-30.1,49-50.8l23.7-26.6c23-24,59-66,81-93s53-62,69-79c17-16,66-70,111-120
		c124-137,759-687,833-738c31-21,69.9-52.4,89-67c333.8-254.7,1026-539,1109-573c82-35,167-69,189-76c44-14,59-19,126-50
		c25-12,51-21,58-21c6,0,47-11,89-24c154-48,218-66,252-72c19-3,55-12,80-19c78-24,127-35,148-35
		C15741,10250,15743,10258,15623,9955z M16260,12605c-18-180-198-1261-220-1360c-23-99-46-193-51-210c-6-16-22-70-35-120
		c-42-148-95.3-316.8-101-315c-1135.4,367.9-1986,960-2073,1038c-5.9,5.2-11,10-15.7,14.5c-70.5,37.6-132.4,89.9-181.4,152.6
		c-93.6,87.7-302.6,294.6-366.9,365.9c-26,30-61,68-75,84c-21.8,23.6-35.8,40.1-45.3,59.4c-23.1,20.1-44.7,41.9-64.3,65.4
		c-0.4-2.4-0.8-3.4-1.3-2.7c-4,5-33,42-66,83c-32,41-63,80-69,86c-5,6-21,27-35,47s-28,37-32,37c-5,0-8,7-8,15s-4,15-8,15
		c-5,0-42,50-83,111c-97,145-107,160-118,184c-5,11-18,29-28,40s-26,36-36,56c-9,20-23,42-32,49c-8,7-15,19-15,26c0,8-3,14-7,14
		c-5,0-24,31-43,68s-41,73-47,80c-7,7-13,19-13,25c-0.1,0.5-0.1,1.2-0.2,2c-20.4,28.5-38.2,58.8-53.1,90.8
		c-9.3,13.3-20.4,32.7-28.6,49.2c-10,22-30,60-44,85s-36,71-50,102c-13,32-39,88-57,125c-18,38-39,88-46,113s-17,54-22,65
		c-21,49-78,222-119,360c-5,17-14,59-21,95c-6,36-15,75-20,87c-14,36-1,51,54,64c29,6,61,18,72,25c11,8,28,14,38,14s32,7,48,16
		c17,8,43,17,60,19c16,2,43,11,61,19c27,14.1,43.8,18.6,53.5,13.7c4,2,8,4,11.9,6.2c3,1.8,15.8,11.2,3.6,1.5
		c11.4,9.1,22.1,15.4,36.9,15.9c1.6,1.2,3.3,2.2,5.1,2.7c25.1,6.8,49.5,13.7,71.8,20.3c16.3,5.8,32.9,10.9,49.9,15.2
		c33.4,10.6,56.3,19,60.3,22.5c5,4,18,8,30,8c11,0,40,7,65,16s54,17,65,18c28,3,76,16,100,26c19,8,41,13,109,27
		c13.4,2.7,22.6,2.1,29.1-1.8c10.4,8,23.5,12,36.6,11.4c5.9,3.2,11.8,6.3,17.9,9.1c4.9,2.2,9.9,3.6,14.9,4.7l26.5,7.6
		c20,6,54,14,76,18s53,13,68,21c16,8,66,21,110,28c45,7,102,19,127,25c58,14,125,28,175,37c9,1.3,15.8,2.2,20.9,2.6
		c16.9,5,34.2,9.2,51.7,12.6c17.7,9.8,52,16,112.4,21.8c34,3,129,23,160,34c19,6,29,8,129,22c47,6,87,13,90,15c3,1,29,6,56,9
		c20.3,2.8,32.7,3.8,40.3,2.7c43.7,11.6,89.4,17.8,136.3,18.2c11.2,1.6,23.9,3.3,38.4,5.2c72,10,431,40,478,40
		c5.5,0,10.7-1.3,15.4-3.7c39.9,9.3,81.2,14.3,123.6,14.3c5.3,0,10.5-0.3,15.8-0.4c15.2,1.2,32.5,2.4,52.2,3.8c44,3,121,6,170,7
		c50,0,129,5,177,10c13.3,1.4,26.7,2.4,39.4,3.1c29.3,4.9,59.3,7.5,89.8,7.5c34,0,67.2-3.3,99.7-9.3c77.3,2.8,120.9,6.4,126.1,10.7
		c3,4,9,4,13,2c5-3,57-5,117-6l109-1l31-66c17-37,47-121,67-187s43-140,50-165c48-153,64-305,55-530c-1-36,2-74,8-85s15-101,19-200
		C16307,13735,16265,12660,16260,12605z"/>
</g>
</svg>
