<?xml version="1.0" encoding="UTF-8" standalone="no"?>
<!-- Created with Inkscape (http://www.inkscape.org/) -->

<svg
   xmlns:dc="http://purl.org/dc/elements/1.1/"
   xmlns:cc="http://creativecommons.org/ns#"
   xmlns:rdf="http://www.w3.org/1999/02/22-rdf-syntax-ns#"
   xmlns:svg="http://www.w3.org/2000/svg"
   xmlns="http://www.w3.org/2000/svg"
   xmlns:sodipodi="http://sodipodi.sourceforge.net/DTD/sodipodi-0.dtd"
   xmlns:inkscape="http://www.inkscape.org/namespaces/inkscape"
   width="5.7972002in"
   height="3.449935in"
   viewBox="0 0 147.24889 87.628348"
   version="1.1"
   id="svg8"
   inkscape:version="0.92.0 r15299"
   sodipodi:docname="Remove the spam please.svg">
  <defs
     id="defs2" />
  <sodipodi:namedview
     id="base"
     pagecolor="#ffffff"
     bordercolor="#666666"
     borderopacity="1.0"
     inkscape:pageopacity="0.0"
     inkscape:pageshadow="2"
     inkscape:zoom="0.35"
     inkscape:cx="-174.54011"
     inkscape:cy="176.37123"
     inkscape:document-units="px"
     inkscape:current-layer="layer1"
     showgrid="false"
     units="in"
     inkscape:window-width="1440"
     inkscape:window-height="853"
     inkscape:window-x="-4"
     inkscape:window-y="-4"
     inkscape:window-maximized="1"
     inkscape:measure-start="0,0"
     inkscape:measure-end="0,0" />
  <metadata
     id="metadata5">
    <rdf:RDF>
      <cc:Work
         rdf:about="">
        <dc:format>image/svg+xml</dc:format>
        <dc:type
           rdf:resource="http://purl.org/dc/dcmitype/StillImage" />
        <dc:title></dc:title>
        <dc:creator>
          <cc:Agent>
            <dc:title>pjsvbfcm</dc:title>
          </cc:Agent>
        </dc:creator>
        <cc:license
           rdf:resource="http://creativecommons.org/publicdomain/zero/1.0/" />
      </cc:Work>
      <cc:License
         rdf:about="http://creativecommons.org/publicdomain/zero/1.0/">
        <cc:permits
           rdf:resource="http://creativecommons.org/ns#Reproduction" />
        <cc:permits
           rdf:resource="http://creativecommons.org/ns#Distribution" />
        <cc:permits
           rdf:resource="http://creativecommons.org/ns#DerivativeWorks" />
      </cc:License>
    </rdf:RDF>
  </metadata>
  <g
     inkscape:label="Layer 1"
     inkscape:groupmode="layer"
     id="layer1"
     transform="translate(-21.573881,-107.86987)">
    <g
       aria-label="Can the moderators
of openclipart.org
please remove
all the spam
now?"
       style="font-style:normal;font-variant:normal;font-weight:normal;font-stretch:normal;font-size:16.93333244px;line-height:110.00000238%;font-family:Tahoma;-inkscape-font-specification:Tahoma;text-align:center;letter-spacing:0px;word-spacing:0px;writing-mode:lr-tb;text-anchor:middle;fill:#000000;fill-opacity:1;stroke:none;stroke-width:0.26458332px;stroke-linecap:butt;stroke-linejoin:miter;stroke-opacity:1"
       id="text31">
      <path
         d="m 27.088789,120.95848 q -1.207161,0 -2.224153,-0.40514 -1.008724,-0.40515 -1.744596,-1.20717 -0.735873,-0.80201 -1.141016,-2.00091 -0.405143,-1.19889 -0.405143,-2.75332 0,-1.54616 0.388607,-2.69544 0.396875,-1.14928 1.149283,-2.00091 0.735873,-0.82682 1.744597,-1.25677 1.008724,-0.43822 2.257226,-0.43822 0.620117,0 1.157552,0.091 0.545703,0.0909 1.008724,0.23151 0.396875,0.12403 0.810286,0.3142 0.42168,0.1819 0.826823,0.40514 v 1.97611 h -0.132291 q -0.214974,-0.19844 -0.553972,-0.47956 -0.338997,-0.28112 -0.826823,-0.55397 -0.471289,-0.25632 -1.02526,-0.42168 -0.553971,-0.16537 -1.281575,-0.16537 -0.785482,0 -1.488282,0.32246 -0.702799,0.32246 -1.231966,0.95085 -0.520898,0.62839 -0.810286,1.57923 -0.289388,0.95085 -0.289388,2.14147 0,1.26504 0.305924,2.18282 0.305925,0.9095 0.835092,1.53789 0.51263,0.61185 1.207161,0.92604 0.694531,0.30592 1.471745,0.30592 0.711067,0 1.314648,-0.17363 0.603581,-0.17363 1.07487,-0.43822 0.454752,-0.25631 0.785481,-0.5209 0.33073,-0.27285 0.520899,-0.46302 h 0.124023 v 1.95131 q -0.405143,0.19017 -0.768945,0.3638 -0.355534,0.17363 -0.868164,0.339 -0.537435,0.17363 -1.000456,0.26458 -0.454752,0.0909 -1.190625,0.0909 z"
         style="font-size:16.93333244px;line-height:110.00000238%;stroke-width:0.26458332px"
         id="path41"
         inkscape:connector-curvature="0" />
      <path
         d="m 37.498489,118.46147 v -2.56315 q -0.553971,0.0496 -1.405599,0.14056 -0.843359,0.0827 -1.364257,0.23978 -0.620118,0.19017 -1.025261,0.58705 -0.405143,0.3886 -0.405143,1.0914 0,0.79375 0.446484,1.1989 0.446485,0.40514 1.30638,0.40514 0.735873,0 1.331185,-0.31419 0.595313,-0.32246 1.116211,-0.78549 z m 0,1.28985 q -0.190169,0.14056 -0.51263,0.39687 -0.314193,0.24805 -0.611849,0.39688 -0.413411,0.21497 -0.802018,0.33073 -0.380339,0.11575 -1.07487,0.11575 -0.570508,0 -1.083138,-0.21497 -0.51263,-0.21498 -0.901237,-0.60358 -0.37207,-0.38034 -0.595312,-0.93431 -0.223242,-0.56224 -0.223242,-1.18236 0,-0.95911 0.405143,-1.62884 0.405143,-0.67799 1.281575,-1.07487 0.777214,-0.35553 1.835547,-0.48783 1.058333,-0.14056 2.282031,-0.2067 v -0.29766 q 0,-0.5457 -0.165364,-0.87643 -0.165365,-0.339 -0.463021,-0.5209 -0.297656,-0.19017 -0.727604,-0.24804 -0.429948,-0.0661 -0.884701,-0.0661 -0.537435,0 -1.265039,0.16536 -0.727604,0.1571 -1.455208,0.46302 h -0.09095 v -1.57923 q 0.429948,-0.12402 1.231967,-0.27285 0.802018,-0.14883 1.587499,-0.14883 0.950847,0 1.604037,0.14883 0.65319,0.14883 1.174088,0.53744 0.504362,0.38033 0.752409,0.98392 0.248047,0.60358 0.248047,1.47174 v 6.31693 H 37.49849 Z"
         style="font-size:16.93333244px;line-height:110.00000238%;stroke-width:0.26458332px"
         id="path43"
         inkscape:connector-curvature="0" />
      <path
         d="m 48.495234,120.73524 h -1.554427 v -5.2586 q 0,-0.63665 -0.06615,-1.18235 -0.05788,-0.55397 -0.23151,-0.8847 -0.190169,-0.34727 -0.529167,-0.51263 -0.338997,-0.17364 -0.926041,-0.17364 -0.578776,0 -1.198893,0.3142 -0.611849,0.30592 -1.198894,0.80201 v 6.89571 h -1.554427 v -9.23561 h 1.554427 v 1.02526 q 0.694532,-0.62012 1.372526,-0.95085 0.677995,-0.33073 1.430404,-0.33073 1.364258,0 2.133203,0.90124 0.768945,0.89297 0.768945,2.59622 z"
         style="font-size:16.93333244px;line-height:110.00000238%;stroke-width:0.26458332px"
         id="path45"
         inkscape:connector-curvature="0" />
      <path
         d="m 58.78091,120.91714 q -1.273308,0 -1.984375,-0.71934 -0.711068,-0.7276 -0.711068,-2.2903 v -5.11803 h -1.050065 v -1.28984 h 1.050065 v -2.65411 h 1.554427 v 2.65411 h 2.860807 v 1.28984 h -2.860807 v 4.39043 q 0,0.7028 0.02481,1.08314 0.0248,0.38034 0.190169,0.71106 0.14056,0.28939 0.454753,0.43822 0.314192,0.14056 0.851627,0.14056 0.380339,0 0.735872,-0.10749 0.355534,-0.11575 0.512631,-0.19017 h 0.09095 v 1.39733 q -0.438216,0.12403 -0.892969,0.19017 -0.446484,0.0744 -0.826822,0.0744 z"
         style="font-size:16.93333244px;line-height:110.00000238%;stroke-width:0.26458332px"
         id="path47"
         inkscape:connector-curvature="0" />
      <path
         d="m 68.901221,120.73524 h -1.554427 v -5.2586 q 0,-0.63665 -0.06615,-1.18235 -0.05788,-0.55397 -0.23151,-0.8847 -0.190169,-0.34727 -0.529167,-0.51263 -0.338997,-0.17364 -0.926041,-0.17364 -0.578776,0 -1.198894,0.3142 -0.611848,0.30592 -1.198893,0.80201 v 6.89571 h -1.554427 v -12.86537 h 1.554427 v 4.65502 q 0.694531,-0.62012 1.372526,-0.95085 0.677995,-0.33073 1.430404,-0.33073 1.364258,0 2.133203,0.90124 0.768945,0.89297 0.768945,2.59622 z"
         style="font-size:16.93333244px;line-height:110.00000238%;stroke-width:0.26458332px"
         id="path49"
         inkscape:connector-curvature="0" />
      <path
         d="m 75.110662,120.95021 q -2.207617,0 -3.431315,-1.24023 -1.21543,-1.24851 -1.21543,-3.53881 0,-2.25722 1.182357,-3.58841 1.182357,-1.33945 3.092318,-1.33945 0.859895,0 1.521354,0.24805 0.661458,0.24804 1.157552,0.77721 0.496093,0.52917 0.760677,1.29811 0.264583,0.76068 0.264583,1.86862 v 0.84336 h -6.399609 q 0,1.61231 0.810286,2.46393 0.810287,0.85163 2.24069,0.85163 0.512631,0 1.000456,-0.11575 0.496094,-0.11576 0.892969,-0.29766 0.421679,-0.19017 0.711067,-0.3638 0.289388,-0.1819 0.479558,-0.339 h 0.09095 v 1.69499 q -0.272851,0.10748 -0.677994,0.27285 -0.405144,0.1571 -0.727605,0.24805 -0.454752,0.12402 -0.826822,0.19017 -0.363803,0.0661 -0.926042,0.0661 z m 1.81901,-5.86217 q -0.01654,-0.62839 -0.148828,-1.08314 -0.132292,-0.45475 -0.380338,-0.76895 -0.272852,-0.34726 -0.7028,-0.52916 -0.42168,-0.1819 -1.050065,-0.1819 -0.620117,0 -1.058333,0.19017 -0.429948,0.1819 -0.785482,0.53743 -0.347266,0.3638 -0.529167,0.81029 -0.181901,0.43821 -0.23151,1.02526 z"
         style="font-size:16.93333244px;line-height:110.00000238%;stroke-width:0.26458332px"
         id="path51"
         inkscape:connector-curvature="0" />
      <path
         d="m 95.80604,120.73524 v -5.34128 q 0,-0.63665 -0.04961,-1.17409 -0.04961,-0.5457 -0.206706,-0.85162 -0.165364,-0.33073 -0.471289,-0.48783 -0.305924,-0.1571 -0.826823,-0.1571 -0.479557,0 -1.033528,0.29766 -0.545703,0.28939 -1.132748,0.84336 0.0083,0.14056 0.01654,0.339 0.01654,0.19017 0.01654,0.45475 v 6.07715 h -1.554427 v -5.34128 q 0,-0.63665 -0.04961,-1.17409 -0.04961,-0.5457 -0.206706,-0.85162 -0.165364,-0.33073 -0.471289,-0.48783 -0.305924,-0.1571 -0.826823,-0.1571 -0.504362,0 -1.058333,0.3142 -0.553971,0.31419 -1.07487,0.80201 v 6.89571 h -1.554427 v -9.23561 h 1.554427 v 1.02526 q 0.611849,-0.61185 1.207162,-0.94258 0.60358,-0.339 1.322916,-0.339 0.818555,0 1.44694,0.37207 0.636654,0.37207 0.967383,1.2237 0.7028,-0.78548 1.372526,-1.19063 0.669727,-0.40514 1.455208,-0.40514 0.595313,0 1.083138,0.19017 0.487826,0.1819 0.851628,0.59531 0.37207,0.42168 0.570508,1.05007 0.206705,0.62838 0.206705,1.57923 v 6.07715 z"
         style="font-size:16.93333244px;line-height:110.00000238%;stroke-width:0.26458332px"
         id="path53"
         inkscape:connector-curvature="0" />
      <path
         d="m 107.14178,116.12157 q 0,2.33164 -1.12448,3.60494 -1.12447,1.26504 -2.99309,1.26504 -1.9265,0 -3.034444,-1.30638 -1.099674,-1.31465 -1.099674,-3.5636 0,-2.31511 1.132748,-3.59668 1.14101,-1.28158 3.00137,-1.28158 1.86862,0 2.99309,1.28158 1.12448,1.2733 1.12448,3.59668 z m -1.60403,0 q 0,-1.79421 -0.65319,-2.66237 -0.65319,-0.87644 -1.86035,-0.87644 -1.21543,0 -1.87689,0.87644 -0.65319,0.86816 -0.65319,2.66237 0,1.73632 0.65319,2.63756 0.66146,0.89297 1.87689,0.89297 1.19889,0 1.85208,-0.87643 0.66146,-0.8847 0.66146,-2.6541 z"
         style="font-size:16.93333244px;line-height:110.00000238%;stroke-width:0.26458332px"
         id="path55"
         inkscape:connector-curvature="0" />
      <path
         d="m 115.84823,120.73524 h -1.55443 v -0.94258 q -0.3638,0.30592 -0.62839,0.50436 -0.26458,0.19844 -0.62011,0.3638 -0.33073,0.1571 -0.68627,0.23978 -0.35553,0.091 -0.82682,0.091 -0.75241,0 -1.39733,-0.31419 -0.63665,-0.31419 -1.08314,-0.91777 -0.45475,-0.61185 -0.7028,-1.50482 -0.24804,-0.90124 -0.24804,-2.06706 0,-1.21543 0.31419,-2.10013 0.31419,-0.89297 0.86816,-1.55443 0.50436,-0.60358 1.21543,-0.94257 0.71934,-0.34727 1.50482,-0.34727 0.69453,0 1.20716,0.1571 0.51263,0.14883 1.08314,0.47129 v -4.00183 h 1.55443 z m -1.55443,-2.24896 v -5.32474 q -0.57878,-0.28112 -1.0418,-0.38861 -0.45475,-0.10748 -0.99219,-0.10748 -1.19889,0 -1.87688,0.90123 -0.678,0.89297 -0.678,2.58796 0,1.62884 0.5209,2.497 0.5209,0.8599 1.67018,0.8599 0.61185,0 1.23197,-0.27285 0.62012,-0.28112 1.16582,-0.75241 z"
         style="font-size:16.93333244px;line-height:110.00000238%;stroke-width:0.26458332px"
         id="path57"
         inkscape:connector-curvature="0" />
      <path
         d="m 122.10727,120.95021 q -2.20761,0 -3.43131,-1.24023 -1.21543,-1.24851 -1.21543,-3.53881 0,-2.25722 1.18236,-3.58841 1.18235,-1.33945 3.09231,-1.33945 0.8599,0 1.52136,0.24805 0.66146,0.24804 1.15755,0.77721 0.49609,0.52917 0.76068,1.29811 0.26458,0.76068 0.26458,1.86862 v 0.84336 h -6.39961 q 0,1.61231 0.81029,2.46393 0.81028,0.85163 2.24069,0.85163 0.51263,0 1.00045,-0.11575 0.4961,-0.11576 0.89297,-0.29766 0.42168,-0.19017 0.71107,-0.3638 0.28939,-0.1819 0.47956,-0.339 h 0.0909 v 1.69499 q -0.27285,0.10748 -0.678,0.27285 -0.40514,0.1571 -0.7276,0.24805 -0.45475,0.12402 -0.82682,0.19017 -0.36381,0.0661 -0.92605,0.0661 z m 1.81901,-5.86217 q -0.0165,-0.62839 -0.14882,-1.08314 -0.1323,-0.45475 -0.38034,-0.76895 -0.27285,-0.34726 -0.7028,-0.52916 -0.42168,-0.1819 -1.05007,-0.1819 -0.62011,0 -1.05833,0.19017 -0.42995,0.1819 -0.78548,0.53743 -0.34727,0.3638 -0.52917,0.81029 -0.1819,0.43821 -0.23151,1.02526 z"
         style="font-size:16.93333244px;line-height:110.00000238%;stroke-width:0.26458332px"
         id="path59"
         inkscape:connector-curvature="0" />
      <path
         d="m 131.92166,113.16981 h -0.0827 q -0.17363,-0.0496 -0.37207,-0.0579 -0.19017,-0.0165 -0.46302,-0.0165 -0.62839,0 -1.2485,0.27286 -0.62012,0.27285 -1.17409,0.81028 v 6.55671 h -1.55443 v -9.23561 h 1.55443 v 1.37252 q 0.85163,-0.75241 1.48001,-1.05833 0.63665,-0.31419 1.23197,-0.31419 0.23978,0 0.35553,0.0165 0.12402,0.008 0.27285,0.0331 z"
         style="font-size:16.93333244px;line-height:110.00000238%;stroke-width:0.26458332px"
         id="path61"
         inkscape:connector-curvature="0" />
      <path
         d="m 138.00708,118.46147 v -2.56315 q -0.55397,0.0496 -1.4056,0.14056 -0.84336,0.0827 -1.36426,0.23978 -0.62012,0.19017 -1.02526,0.58705 -0.40514,0.3886 -0.40514,1.0914 0,0.79375 0.44648,1.1989 0.44649,0.40514 1.30638,0.40514 0.73587,0 1.33119,-0.31419 0.59531,-0.32246 1.11621,-0.78549 z m 0,1.28985 q -0.19017,0.14056 -0.51263,0.39687 -0.3142,0.24805 -0.61185,0.39688 -0.41341,0.21497 -0.80202,0.33073 -0.38034,0.11575 -1.07487,0.11575 -0.57051,0 -1.08314,-0.21497 -0.51263,-0.21498 -0.90123,-0.60358 -0.37208,-0.38034 -0.59532,-0.93431 -0.22324,-0.56224 -0.22324,-1.18236 0,-0.95911 0.40514,-1.62884 0.40515,-0.67799 1.28158,-1.07487 0.77721,-0.35553 1.83555,-0.48783 1.05833,-0.14056 2.28203,-0.2067 v -0.29766 q 0,-0.5457 -0.16537,-0.87643 -0.16536,-0.339 -0.46302,-0.5209 -0.29765,-0.19017 -0.7276,-0.24804 -0.42995,-0.0661 -0.8847,-0.0661 -0.53744,0 -1.26504,0.16536 -0.72761,0.1571 -1.45521,0.46302 h -0.091 v -1.57923 q 0.42995,-0.12402 1.23197,-0.27285 0.80201,-0.14883 1.5875,-0.14883 0.95084,0 1.60403,0.14883 0.65319,0.14883 1.17409,0.53744 0.50436,0.38033 0.75241,0.98392 0.24805,0.60358 0.24805,1.47174 v 6.31693 h -1.54616 z"
         style="font-size:16.93333244px;line-height:110.00000238%;stroke-width:0.26458332px"
         id="path63"
         inkscape:connector-curvature="0" />
      <path
         d="m 144.53898,120.91714 q -1.27331,0 -1.98438,-0.71934 -0.71106,-0.7276 -0.71106,-2.2903 v -5.11803 h -1.05007 v -1.28984 h 1.05007 v -2.65411 h 1.55442 v 2.65411 h 2.86081 v 1.28984 h -2.86081 v 4.39043 q 0,0.7028 0.0248,1.08314 0.0248,0.38034 0.19017,0.71106 0.14056,0.28939 0.45475,0.43822 0.31419,0.14056 0.85163,0.14056 0.38033,0 0.73587,-0.10749 0.35553,-0.11575 0.51263,-0.19017 h 0.0909 v 1.39733 q -0.43822,0.12403 -0.89297,0.19017 -0.44648,0.0744 -0.82682,0.0744 z"
         style="font-size:16.93333244px;line-height:110.00000238%;stroke-width:0.26458332px"
         id="path65"
         inkscape:connector-curvature="0" />
      <path
         d="m 154.99829,116.12157 q 0,2.33164 -1.12448,3.60494 -1.12448,1.26504 -2.9931,1.26504 -1.92649,0 -3.03444,-1.30638 -1.09967,-1.31465 -1.09967,-3.5636 0,-2.31511 1.13275,-3.59668 1.14101,-1.28158 3.00136,-1.28158 1.86862,0 2.9931,1.28158 1.12448,1.2733 1.12448,3.59668 z m -1.60404,0 q 0,-1.79421 -0.65319,-2.66237 -0.65319,-0.87644 -1.86035,-0.87644 -1.21543,0 -1.87689,0.87644 -0.65319,0.86816 -0.65319,2.66237 0,1.73632 0.65319,2.63756 0.66146,0.89297 1.87689,0.89297 1.1989,0 1.85209,-0.87643 0.66145,-0.8847 0.66145,-2.6541 z"
         style="font-size:16.93333244px;line-height:110.00000238%;stroke-width:0.26458332px"
         id="path67"
         inkscape:connector-curvature="0" />
      <path
         d="m 161.48885,113.16981 h -0.0827 q -0.17363,-0.0496 -0.37207,-0.0579 -0.19017,-0.0165 -0.46302,-0.0165 -0.62838,0 -1.2485,0.27286 -0.62012,0.27285 -1.17409,0.81028 v 6.55671 h -1.55443 v -9.23561 h 1.55443 v 1.37252 q 0.85163,-0.75241 1.48001,-1.05833 0.63666,-0.31419 1.23197,-0.31419 0.23978,0 0.35553,0.0165 0.12403,0.008 0.27285,0.0331 z"
         style="font-size:16.93333244px;line-height:110.00000238%;stroke-width:0.26458332px"
         id="path69"
         inkscape:connector-curvature="0" />
      <path
         d="m 165.20955,120.95848 q -0.92604,0 -1.73633,-0.24805 -0.80201,-0.24804 -1.33118,-0.52916 v -1.7446 h 0.0827 q 0.19844,0.1571 0.46302,0.34727 0.27285,0.19016 0.71934,0.39687 0.39687,0.1819 0.86816,0.32246 0.47956,0.14056 0.99219,0.14056 0.37207,0 0.79375,-0.0827 0.42168,-0.0909 0.62839,-0.22324 0.28938,-0.19017 0.41341,-0.40515 0.13229,-0.21497 0.13229,-0.64492 0,-0.55397 -0.30593,-0.83509 -0.29765,-0.28112 -1.0666,-0.47129 -0.29765,-0.0744 -0.77721,-0.17363 -0.47956,-0.0992 -0.8847,-0.21498 -1.05833,-0.30592 -1.53789,-0.94257 -0.47956,-0.64493 -0.47956,-1.55443 0,-1.2485 0.94258,-2.03398 0.94258,-0.78549 2.50527,-0.78549 0.76895,0 1.54616,0.19017 0.77721,0.19017 1.30638,0.47956 v 1.66191 h -0.0827 q -0.59531,-0.47129 -1.33119,-0.74414 -0.7276,-0.27285 -1.47174,-0.27285 -0.76895,0 -1.29811,0.32246 -0.52917,0.32246 -0.52917,0.97565 0,0.57878 0.31419,0.86817 0.3142,0.28112 1.00873,0.46302 0.34726,0.0909 0.76894,0.1819 0.42995,0.0827 0.90124,0.19844 1.02526,0.25631 1.53789,0.85162 0.5209,0.59532 0.5209,1.62058 0,0.59531 -0.23978,1.13274 -0.23151,0.52917 -0.68626,0.90951 -0.4961,0.41341 -1.12448,0.62839 -0.62012,0.21497 -1.5627,0.21497 z"
         style="font-size:16.93333244px;line-height:110.00000238%;stroke-width:0.26458332px"
         id="path71"
         inkscape:connector-curvature="0" />
      <path
         d="m 37.738268,134.74823 q 0,2.33164 -1.124479,3.60495 -1.124479,1.26504 -2.993099,1.26504 -1.926497,0 -3.03444,-1.30638 -1.099674,-1.31465 -1.099674,-3.56361 0,-2.3151 1.132747,-3.59668 1.141016,-1.28157 3.001367,-1.28157 1.86862,0 2.993099,1.28157 1.124479,1.27331 1.124479,3.59668 z m -1.604036,0 q 0,-1.7942 -0.65319,-2.66237 -0.653191,-0.87643 -1.860352,-0.87643 -1.21543,0 -1.876888,0.87643 -0.65319,0.86817 -0.65319,2.66237 0,1.73633 0.65319,2.63757 0.661458,0.89297 1.876888,0.89297 1.198893,0 1.852083,-0.87644 0.661459,-0.8847 0.661459,-2.6541 z"
         style="font-size:16.93333244px;line-height:110.00000238%;stroke-width:0.26458332px"
         id="path73"
         inkscape:connector-curvature="0" />
      <path
         d="m 44.195754,127.98482 h -0.08268 q -0.206706,-0.0744 -0.595312,-0.14056 -0.388607,-0.0744 -0.694532,-0.0744 -0.983919,0 -1.405598,0.44648 -0.413412,0.43822 -0.413412,1.59577 v 0.31419 h 2.571419 v 1.28985 h -2.52181 v 7.94576 H 39.4994 v -7.94576 H 38.449335 V 130.1263 H 39.4994 v -0.30592 q 0,-1.67018 0.802019,-2.53835 0.802018,-0.86816 2.298567,-0.86816 0.429948,0 0.84336,0.0496 0.413411,0.0413 0.752408,0.0992 z"
         style="font-size:16.93333244px;line-height:110.00000238%;stroke-width:0.26458332px"
         id="path75"
         inkscape:connector-curvature="0" />
      <path
         d="m 57.61509,134.74823 q 0,2.33164 -1.12448,3.60495 -1.124479,1.26504 -2.993098,1.26504 -1.926498,0 -3.03444,-1.30638 -1.099675,-1.31465 -1.099675,-3.56361 0,-2.3151 1.132748,-3.59668 1.141015,-1.28157 3.001367,-1.28157 1.868619,0 2.993098,1.28157 1.12448,1.27331 1.12448,3.59668 z m -1.604037,0 q 0,-1.7942 -0.65319,-2.66237 -0.65319,-0.87643 -1.860351,-0.87643 -1.21543,0 -1.876888,0.87643 -0.65319,0.86817 -0.65319,2.66237 0,1.73633 0.65319,2.63757 0.661458,0.89297 1.876888,0.89297 1.198893,0 1.852083,-0.87644 0.661458,-0.8847 0.661458,-2.6541 z"
         style="font-size:16.93333244px;line-height:110.00000238%;stroke-width:0.26458332px"
         id="path77"
         inkscape:connector-curvature="0" />
      <path
         d="m 66.958189,134.50019 q 0,2.30683 -1.107943,3.67936 -1.099674,1.36426 -2.786393,1.36426 -0.686263,0 -1.21543,-0.1571 -0.529166,-0.1571 -1.083138,-0.48783 v 3.86953 h -1.554427 v -12.64212 h 1.554427 v 0.96739 q 0.578776,-0.5209 1.281576,-0.86817 0.711068,-0.35553 1.546159,-0.35553 1.5875,0 2.4722,1.25677 0.892969,1.25677 0.892969,3.37344 z m -1.604037,0.17363 q 0,-1.57923 -0.504362,-2.4474 -0.504362,-0.87643 -1.637109,-0.87643 -0.661458,0 -1.281575,0.29766 -0.611849,0.28938 -1.165821,0.75241 v 5.23378 q 0.611849,0.29766 1.041797,0.40515 0.438216,0.10748 1.000456,0.10748 1.207161,0 1.876888,-0.8847 0.669726,-0.8847 0.669726,-2.58795 z"
         style="font-size:16.93333244px;line-height:110.00000238%;stroke-width:0.26458332px"
         id="path79"
         inkscape:connector-curvature="0" />
      <path
         d="m 72.580586,139.57688 q -2.207617,0 -3.431315,-1.24024 -1.21543,-1.2485 -1.21543,-3.5388 0,-2.25722 1.182357,-3.58841 1.182357,-1.33945 3.092317,-1.33945 0.859896,0 1.521354,0.24804 0.661459,0.24805 1.157552,0.77722 0.496094,0.52916 0.760677,1.29811 0.264584,0.76068 0.264584,1.86862 v 0.84336 h -6.399609 q 0,1.6123 0.810286,2.46393 0.810287,0.85163 2.24069,0.85163 0.51263,0 1.000456,-0.11576 0.496094,-0.11575 0.892969,-0.29765 0.421679,-0.19017 0.711067,-0.3638 0.289388,-0.18191 0.479557,-0.339 h 0.09095 v 1.69498 q -0.272852,0.10749 -0.677995,0.27286 -0.405143,0.15709 -0.727604,0.24804 -0.454752,0.12403 -0.826823,0.19017 -0.363802,0.0661 -0.926041,0.0661 z m 1.81901,-5.86218 q -0.01654,-0.62838 -0.148828,-1.08313 -0.132292,-0.45476 -0.380339,-0.76895 -0.272851,-0.34726 -0.702799,-0.52917 -0.42168,-0.1819 -1.050065,-0.1819 -0.620117,0 -1.058333,0.19017 -0.429948,0.1819 -0.785482,0.53744 -0.347266,0.3638 -0.529167,0.81028 -0.181901,0.43822 -0.23151,1.02526 z"
         style="font-size:16.93333244px;line-height:110.00000238%;stroke-width:0.26458332px"
         id="path81"
         inkscape:connector-curvature="0" />
      <path
         d="M 84.759687,139.3619 H 83.20526 v -5.25859 q 0,-0.63665 -0.06615,-1.18236 -0.05788,-0.55397 -0.23151,-0.8847 -0.190169,-0.34726 -0.529167,-0.51263 -0.338997,-0.17363 -0.926041,-0.17363 -0.578776,0 -1.198894,0.31419 -0.611849,0.30593 -1.198893,0.80202 v 6.8957 h -1.554427 v -9.23561 h 1.554427 v 1.02526 q 0.694531,-0.62011 1.372526,-0.95084 0.677995,-0.33073 1.430404,-0.33073 1.364257,0 2.133203,0.90123 0.768945,0.89297 0.768945,2.59623 z"
         style="font-size:16.93333244px;line-height:110.00000238%;stroke-width:0.26458332px"
         id="path83"
         inkscape:connector-curvature="0" />
      <path
         d="m 90.630127,139.56861 q -0.950847,0 -1.744597,-0.28939 -0.79375,-0.29765 -1.364257,-0.89297 -0.570508,-0.59531 -0.884701,-1.49655 -0.314193,-0.9095 -0.314193,-2.1332 0,-1.21543 0.322461,-2.10013 0.33073,-0.8847 0.876433,-1.48828 0.545703,-0.60358 1.355989,-0.92604 0.818555,-0.33073 1.752865,-0.33073 0.760677,0 1.463476,0.21497 0.711068,0.21498 1.265039,0.4961 v 1.74459 h -0.09095 q -0.165365,-0.14056 -0.429948,-0.32246 -0.256315,-0.1819 -0.628386,-0.37207 -0.322461,-0.16536 -0.760677,-0.28939 -0.438216,-0.12402 -0.843359,-0.12402 -1.207161,0 -1.943034,0.91777 -0.727604,0.90951 -0.727604,2.57969 0,1.63711 0.702799,2.55488 0.711068,0.90951 1.967839,0.90951 0.760677,0 1.44694,-0.31419 0.686263,-0.3142 1.21543,-0.81029 h 0.09095 v 1.7446 q -0.23151,0.10748 -0.578776,0.26458 -0.347266,0.14883 -0.628385,0.22324 -0.396875,0.11576 -0.711068,0.17363 -0.314193,0.0661 -0.810286,0.0661 z"
         style="font-size:16.93333244px;line-height:110.00000238%;stroke-width:0.26458332px"
         id="path85"
         inkscape:connector-curvature="0" />
      <path
         d="m 96.351739,139.3619 h -1.554427 v -12.86536 h 1.554427 z"
         style="font-size:16.93333244px;line-height:110.00000238%;stroke-width:0.26458332px"
         id="path87"
         inkscape:connector-curvature="0" />
      <path
         d="m 100.25434,139.3619 h -1.554425 v -9.23561 h 1.554425 z m 0.10749,-10.78177 h -1.769402 v -1.6123 h 1.769402 z"
         style="font-size:16.93333244px;line-height:110.00000238%;stroke-width:0.26458332px"
         id="path89"
         inkscape:connector-curvature="0" />
      <path
         d="m 110.28371,134.50019 q 0,2.30683 -1.10794,3.67936 -1.09968,1.36426 -2.7864,1.36426 -0.68626,0 -1.21543,-0.1571 -0.52916,-0.1571 -1.08313,-0.48783 v 3.86953 h -1.55443 v -12.64212 h 1.55443 v 0.96739 q 0.57877,-0.5209 1.28157,-0.86817 0.71107,-0.35553 1.54616,-0.35553 1.5875,0 2.4722,1.25677 0.89297,1.25677 0.89297,3.37344 z m -1.60404,0.17363 q 0,-1.57923 -0.50436,-2.4474 -0.50436,-0.87643 -1.63711,-0.87643 -0.66146,0 -1.28157,0.29766 -0.61185,0.28938 -1.16582,0.75241 v 5.23378 q 0.61185,0.29766 1.04179,0.40515 0.43822,0.10748 1.00046,0.10748 1.20716,0 1.87689,-0.8847 0.66972,-0.8847 0.66972,-2.58795 z"
         style="font-size:16.93333244px;line-height:110.00000238%;stroke-width:0.26458332px"
         id="path91"
         inkscape:connector-curvature="0" />
      <path
         d="m 117.05539,137.08814 v -2.56315 q -0.55397,0.0496 -1.4056,0.14056 -0.84336,0.0827 -1.36426,0.23978 -0.62011,0.19017 -1.02526,0.58704 -0.40514,0.38861 -0.40514,1.09141 0,0.79375 0.44648,1.19889 0.44649,0.40515 1.30638,0.40515 0.73588,0 1.33119,-0.3142 0.59531,-0.32246 1.11621,-0.78548 z m 0,1.28984 q -0.19017,0.14056 -0.51263,0.39688 -0.31419,0.24805 -0.61185,0.39687 -0.41341,0.21498 -0.80202,0.33073 -0.38034,0.11576 -1.07487,0.11576 -0.57051,0 -1.08314,-0.21497 -0.51263,-0.21498 -0.90123,-0.60359 -0.37207,-0.38033 -0.59532,-0.93431 -0.22324,-0.56223 -0.22324,-1.18235 0,-0.95912 0.40515,-1.62884 0.40514,-0.678 1.28157,-1.07487 0.77721,-0.35554 1.83555,-0.48783 1.05833,-0.14056 2.28203,-0.2067 v -0.29766 q 0,-0.5457 -0.16537,-0.87643 -0.16536,-0.339 -0.46302,-0.5209 -0.29765,-0.19017 -0.7276,-0.24805 -0.42995,-0.0661 -0.8847,-0.0661 -0.53744,0 -1.26504,0.16536 -0.7276,0.1571 -1.45521,0.46302 h -0.0909 v -1.57923 q 0.42995,-0.12402 1.23197,-0.27285 0.80202,-0.14883 1.5875,-0.14883 0.95084,0 1.60403,0.14883 0.65319,0.14883 1.17409,0.53743 0.50436,0.38034 0.75241,0.98392 0.24805,0.60358 0.24805,1.47175 v 6.31692 h -1.54616 z"
         style="font-size:16.93333244px;line-height:110.00000238%;stroke-width:0.26458332px"
         id="path93"
         inkscape:connector-curvature="0" />
      <path
         d="m 125.68742,131.79647 h -0.0827 q -0.17364,-0.0496 -0.37207,-0.0579 -0.19017,-0.0165 -0.46302,-0.0165 -0.62839,0 -1.24851,0.27285 -0.62011,0.27285 -1.17408,0.81029 v 6.5567 h -1.55443 v -9.23561 h 1.55443 v 1.37253 q 0.85162,-0.75241 1.48001,-1.05833 0.63665,-0.3142 1.23196,-0.3142 0.23978,0 0.35554,0.0165 0.12402,0.008 0.27285,0.0331 z"
         style="font-size:16.93333244px;line-height:110.00000238%;stroke-width:0.26458332px"
         id="path95"
         inkscape:connector-curvature="0" />
      <path
         d="m 129.70577,139.54381 q -1.2733,0 -1.98437,-0.71934 -0.71107,-0.7276 -0.71107,-2.2903 v -5.11803 h -1.05006 v -1.28985 h 1.05006 v -2.6541 h 1.55443 v 2.6541 h 2.86081 v 1.28985 h -2.86081 v 4.39043 q 0,0.7028 0.0248,1.08313 0.0248,0.38034 0.19017,0.71107 0.14056,0.28939 0.45476,0.43822 0.31419,0.14056 0.85162,0.14056 0.38034,0 0.73588,-0.10749 0.35553,-0.11575 0.51263,-0.19017 h 0.0909 v 1.39733 q -0.43822,0.12403 -0.89297,0.19017 -0.44649,0.0744 -0.82683,0.0744 z"
         style="font-size:16.93333244px;line-height:110.00000238%;stroke-width:0.26458332px"
         id="path97"
         inkscape:connector-curvature="0" />
      <path
         d="m 134.98918,139.3619 h -1.97611 v -2.35644 h 1.97611 z"
         style="font-size:16.93333244px;line-height:110.00000238%;stroke-width:0.26458332px"
         id="path99"
         inkscape:connector-curvature="0" />
      <path
         d="m 145.29139,134.74823 q 0,2.33164 -1.12448,3.60495 -1.12448,1.26504 -2.9931,1.26504 -1.92649,0 -3.03444,-1.30638 -1.09967,-1.31465 -1.09967,-3.56361 0,-2.3151 1.13275,-3.59668 1.14101,-1.28157 3.00136,-1.28157 1.86862,0 2.9931,1.28157 1.12448,1.27331 1.12448,3.59668 z m -1.60403,0 q 0,-1.7942 -0.65319,-2.66237 -0.6532,-0.87643 -1.86036,-0.87643 -1.21543,0 -1.87688,0.87643 -0.65319,0.86817 -0.65319,2.66237 0,1.73633 0.65319,2.63757 0.66145,0.89297 1.87688,0.89297 1.1989,0 1.85209,-0.87644 0.66146,-0.8847 0.66146,-2.6541 z"
         style="font-size:16.93333244px;line-height:110.00000238%;stroke-width:0.26458332px"
         id="path101"
         inkscape:connector-curvature="0" />
      <path
         d="m 151.78195,131.79647 h -0.0827 q -0.17364,-0.0496 -0.37207,-0.0579 -0.19017,-0.0165 -0.46303,-0.0165 -0.62838,0 -1.2485,0.27285 -0.62012,0.27285 -1.17409,0.81029 v 6.5567 h -1.55442 v -9.23561 h 1.55442 v 1.37253 q 0.85163,-0.75241 1.48002,-1.05833 0.63665,-0.3142 1.23196,-0.3142 0.23978,0 0.35554,0.0165 0.12402,0.008 0.27285,0.0331 z"
         style="font-size:16.93333244px;line-height:110.00000238%;stroke-width:0.26458332px"
         id="path103"
         inkscape:connector-curvature="0" />
      <path
         d="m 158.49575,136.85663 v -5.06842 q -0.57877,-0.28112 -1.07487,-0.39688 -0.48782,-0.12402 -0.97565,-0.12402 -1.18236,0 -1.86035,0.86816 -0.678,0.86817 -0.678,2.48874 0,1.53789 0.51263,2.33991 0.5209,0.80202 1.67846,0.80202 0.60358,0 1.24023,-0.23978 0.64492,-0.23978 1.15755,-0.66973 z m -5.22552,3.98529 q 0.1571,0.0661 0.46302,0.17363 0.30593,0.11576 0.69453,0.21497 0.42995,0.10749 0.79375,0.17364 0.36381,0.0661 0.79375,0.0661 0.71934,0 1.21543,-0.19017 0.50436,-0.19017 0.78548,-0.52916 0.26459,-0.339 0.37207,-0.78549 0.10749,-0.44648 0.10749,-1.01699 v -0.81028 q -0.62838,0.5457 -1.23196,0.81028 -0.60359,0.25632 -1.51309,0.25632 -1.57923,0 -2.51354,-1.17409 -0.93431,-1.17409 -0.93431,-3.37344 0,-1.14928 0.32246,-2.03398 0.32246,-0.89297 0.86816,-1.51309 0.5209,-0.59531 1.23197,-0.91777 0.71107,-0.32246 1.47174,-0.32246 0.71934,0 1.24024,0.17363 0.52916,0.16536 1.05833,0.47956 l 0.091,-0.39688 h 1.46348 v 8.18555 q 0,2.34818 -1.02526,3.44785 -1.02526,1.09967 -3.13366,1.09967 -0.678,0 -1.38906,-0.10748 -0.7028,-0.10749 -1.31465,-0.28939 v -1.62057 z"
         style="font-size:16.93333244px;line-height:110.00000238%;stroke-width:0.26458332px"
         id="path105"
         inkscape:connector-curvature="0" />
      <path
         d="m 49.776809,153.12685 q 0,2.30684 -1.107943,3.67936 -1.099674,1.36426 -2.786393,1.36426 -0.686263,0 -1.215429,-0.15709 -0.529167,-0.1571 -1.083138,-0.48783 v 3.86953 h -1.554427 v -12.64212 h 1.554427 v 0.96738 q 0.578776,-0.5209 1.281575,-0.86816 0.711068,-0.35554 1.546159,-0.35554 1.5875,0 2.4722,1.25678 0.892969,1.25677 0.892969,3.37343 z m -1.604036,0.17364 q 0,-1.57924 -0.504362,-2.4474 -0.504362,-0.87643 -1.63711,-0.87643 -0.661458,0 -1.281575,0.29765 -0.611849,0.28939 -1.16582,0.75241 v 5.23379 q 0.611849,0.29766 1.041797,0.40514 0.438216,0.10749 1.000455,0.10749 1.207162,0 1.876888,-0.8847 0.669727,-0.8847 0.669727,-2.58795 z"
         style="font-size:16.93333244px;line-height:110.00000238%;stroke-width:0.26458332px"
         id="path107"
         inkscape:connector-curvature="0" />
      <path
         d="m 52.976614,157.98857 h -1.554427 v -12.86536 h 1.554427 z"
         style="font-size:16.93333244px;line-height:110.00000238%;stroke-width:0.26458332px"
         id="path109"
         inkscape:connector-curvature="0" />
      <path
         d="m 59.268736,158.20355 q -2.207617,0 -3.431315,-1.24024 -1.21543,-1.2485 -1.21543,-3.5388 0,-2.25723 1.182357,-3.58841 1.182357,-1.33946 3.092317,-1.33946 0.859896,0 1.521354,0.24805 0.661459,0.24805 1.157552,0.77721 0.496094,0.52917 0.760678,1.29812 0.264583,0.76067 0.264583,1.86862 v 0.84336 h -6.399609 q 0,1.6123 0.810286,2.46393 0.810287,0.85163 2.24069,0.85163 0.51263,0 1.000456,-0.11576 0.496094,-0.11575 0.892969,-0.29766 0.421679,-0.19017 0.711067,-0.3638 0.289388,-0.1819 0.479558,-0.339 h 0.09095 v 1.69499 q -0.272852,0.10749 -0.677995,0.27285 -0.405143,0.1571 -0.727604,0.24805 -0.454752,0.12402 -0.826823,0.19017 -0.363802,0.0661 -0.926041,0.0661 z m 1.81901,-5.86218 q -0.01654,-0.62838 -0.148828,-1.08314 -0.132292,-0.45475 -0.380339,-0.76894 -0.272851,-0.34727 -0.702799,-0.52917 -0.42168,-0.1819 -1.050065,-0.1819 -0.620117,0 -1.058333,0.19017 -0.429948,0.1819 -0.785482,0.53743 -0.347266,0.36381 -0.529167,0.81029 -0.181901,0.43822 -0.23151,1.02526 z"
         style="font-size:16.93333244px;line-height:110.00000238%;stroke-width:0.26458332px"
         id="path111"
         inkscape:connector-curvature="0" />
      <path
         d="m 69.347707,155.71481 v -2.56315 q -0.553971,0.0496 -1.405599,0.14056 -0.843359,0.0827 -1.364258,0.23978 -0.620117,0.19017 -1.02526,0.58704 -0.405143,0.38861 -0.405143,1.09141 0,0.79375 0.446484,1.19889 0.446484,0.40514 1.30638,0.40514 0.735873,0 1.331185,-0.31419 0.595313,-0.32246 1.116211,-0.78548 z m 0,1.28984 q -0.190169,0.14056 -0.51263,0.39688 -0.314193,0.24804 -0.611849,0.39687 -0.413412,0.21498 -0.802018,0.33073 -0.380339,0.11576 -1.07487,0.11576 -0.570508,0 -1.083138,-0.21498 -0.51263,-0.21497 -0.901237,-0.60358 -0.37207,-0.38034 -0.595312,-0.93431 -0.223243,-0.56224 -0.223243,-1.18235 0,-0.95912 0.405144,-1.62885 0.405143,-0.67799 1.281575,-1.07487 0.777214,-0.35553 1.835547,-0.48782 1.058333,-0.14056 2.282031,-0.20671 v -0.29765 q 0,-0.54571 -0.165365,-0.87644 -0.165364,-0.33899 -0.46302,-0.52089 -0.297657,-0.19017 -0.727605,-0.24805 -0.429947,-0.0661 -0.8847,-0.0661 -0.537435,0 -1.265039,0.16537 -0.727604,0.15709 -1.455208,0.46302 h -0.09095 v -1.57923 q 0.429948,-0.12403 1.231966,-0.27285 0.802018,-0.14883 1.5875,-0.14883 0.950847,0 1.604037,0.14883 0.65319,0.14882 1.174088,0.53743 0.504362,0.38034 0.752409,0.98392 0.248047,0.60358 0.248047,1.47174 v 6.31693 h -1.546159 z"
         style="font-size:16.93333244px;line-height:110.00000238%;stroke-width:0.26458332px"
         id="path113"
         inkscape:connector-curvature="0" />
      <path
         d="m 75.581951,158.21181 q -0.926041,0 -1.736328,-0.24804 -0.802018,-0.24805 -1.331184,-0.52917 V 155.69 h 0.08268 q 0.198437,0.1571 0.463021,0.34727 0.272851,0.19017 0.719336,0.39687 0.396874,0.18191 0.868164,0.32247 0.479557,0.14055 0.992187,0.14055 0.37207,0 0.79375,-0.0827 0.42168,-0.0909 0.628385,-0.22324 0.289388,-0.19017 0.413412,-0.40514 0.132291,-0.21498 0.132291,-0.64492 0,-0.55398 -0.305924,-0.8351 -0.297656,-0.28112 -1.066602,-0.47128 -0.297656,-0.0744 -0.777213,-0.17364 -0.479557,-0.0992 -0.884701,-0.21497 -1.058333,-0.30593 -1.53789,-0.94258 -0.479557,-0.64492 -0.479557,-1.55443 0,-1.2485 0.942578,-2.03398 0.942578,-0.78548 2.505273,-0.78548 0.768945,0 1.546159,0.19017 0.777213,0.19017 1.30638,0.47955 v 1.66192 h -0.08268 q -0.595313,-0.47129 -1.331185,-0.74414 -0.727604,-0.27285 -1.471745,-0.27285 -0.768945,0 -1.298112,0.32246 -0.529166,0.32246 -0.529166,0.97565 0,0.57877 0.314192,0.86816 0.314193,0.28112 1.008724,0.46302 0.347266,0.0909 0.768945,0.1819 0.429948,0.0827 0.901237,0.19844 1.025261,0.25632 1.537891,0.85163 0.520898,0.59531 0.520898,1.62057 0,0.59531 -0.239778,1.13275 -0.231511,0.52917 -0.686263,0.9095 -0.496094,0.41342 -1.124479,0.62839 -0.620118,0.21497 -1.562696,0.21497 z"
         style="font-size:16.93333244px;line-height:110.00000238%;stroke-width:0.26458332px"
         id="path115"
         inkscape:connector-curvature="0" />
      <path
         d="m 84.668735,158.20355 q -2.207617,0 -3.431315,-1.24024 -1.215429,-1.2485 -1.215429,-3.5388 0,-2.25723 1.182356,-3.58841 1.182357,-1.33946 3.092318,-1.33946 0.859896,0 1.521354,0.24805 0.661458,0.24805 1.157552,0.77721 0.496094,0.52917 0.760677,1.29812 0.264583,0.76067 0.264583,1.86862 v 0.84336 h -6.399609 q 0,1.6123 0.810287,2.46393 0.810286,0.85163 2.24069,0.85163 0.51263,0 1.000456,-0.11576 0.496093,-0.11575 0.892968,-0.29766 0.42168,-0.19017 0.711068,-0.3638 0.289388,-0.1819 0.479557,-0.339 h 0.09095 v 1.69499 q -0.272852,0.10749 -0.677995,0.27285 -0.405143,0.1571 -0.727604,0.24805 -0.454753,0.12402 -0.826823,0.19017 -0.363802,0.0661 -0.926042,0.0661 z m 1.819011,-5.86218 q -0.01654,-0.62838 -0.148829,-1.08314 -0.132291,-0.45475 -0.380338,-0.76894 -0.272852,-0.34727 -0.702799,-0.52917 -0.42168,-0.1819 -1.050066,-0.1819 -0.620117,0 -1.058333,0.19017 -0.429948,0.1819 -0.785482,0.53743 -0.347265,0.36381 -0.529166,0.81029 -0.181901,0.43822 -0.231511,1.02526 z"
         style="font-size:16.93333244px;line-height:110.00000238%;stroke-width:0.26458332px"
         id="path117"
         inkscape:connector-curvature="0" />
      <path
         d="m 99.774791,150.42314 h -0.08268 q -0.173633,-0.0496 -0.37207,-0.0579 -0.19017,-0.0165 -0.463021,-0.0165 -0.628386,0 -1.248503,0.27285 -0.620117,0.27285 -1.174088,0.81029 v 6.5567 H 94.88 v -9.23561 h 1.554427 v 1.37253 q 0.851627,-0.75241 1.480013,-1.05834 0.636653,-0.31419 1.231966,-0.31419 0.239778,0 0.355534,0.0165 0.124023,0.008 0.272851,0.0331 z"
         style="font-size:16.93333244px;line-height:110.00000238%;stroke-width:0.26458332px"
         id="path119"
         inkscape:connector-curvature="0" />
      <path
         d="m 104.94243,158.20355 q -2.20761,0 -3.43131,-1.24024 -1.21543,-1.2485 -1.21543,-3.5388 0,-2.25723 1.18235,-3.58841 1.18236,-1.33946 3.09232,-1.33946 0.8599,0 1.52136,0.24805 0.66145,0.24805 1.15755,0.77721 0.49609,0.52917 0.76068,1.29812 0.26458,0.76067 0.26458,1.86862 v 0.84336 h -6.39961 q 0,1.6123 0.81029,2.46393 0.81028,0.85163 2.24069,0.85163 0.51263,0 1.00045,-0.11576 0.4961,-0.11575 0.89297,-0.29766 0.42168,-0.19017 0.71107,-0.3638 0.28939,-0.1819 0.47956,-0.339 h 0.0909 v 1.69499 q -0.27286,0.10749 -0.678,0.27285 -0.40514,0.1571 -0.7276,0.24805 -0.45476,0.12402 -0.82683,0.19017 -0.3638,0.0661 -0.92604,0.0661 z m 1.81901,-5.86218 q -0.0165,-0.62838 -0.14883,-1.08314 -0.13229,-0.45475 -0.38033,-0.76894 -0.27286,-0.34727 -0.7028,-0.52917 -0.42168,-0.1819 -1.05007,-0.1819 -0.62012,0 -1.05833,0.19017 -0.42995,0.1819 -0.78548,0.53743 -0.34727,0.36381 -0.52917,0.81029 -0.1819,0.43822 -0.23151,1.02526 z"
         style="font-size:16.93333244px;line-height:110.00000238%;stroke-width:0.26458332px"
         id="path121"
         inkscape:connector-curvature="0" />
      <path
         d="m 120.34614,157.98857 v -5.34127 q 0,-0.63666 -0.0496,-1.17409 -0.0496,-0.54571 -0.2067,-0.85163 -0.16537,-0.33073 -0.47129,-0.48783 -0.30593,-0.15709 -0.82682,-0.15709 -0.47956,0 -1.03353,0.29765 -0.54571,0.28939 -1.13275,0.84336 0.008,0.14056 0.0165,0.339 0.0165,0.19017 0.0165,0.45475 v 6.07715 h -1.55442 v -5.34127 q 0,-0.63666 -0.0496,-1.17409 -0.0496,-0.54571 -0.20671,-0.85163 -0.16536,-0.33073 -0.47129,-0.48783 -0.30592,-0.15709 -0.82682,-0.15709 -0.50436,0 -1.05833,0.31419 -0.55398,0.31419 -1.07487,0.80202 v 6.8957 h -1.55443 v -9.23561 h 1.55443 v 1.02526 q 0.61184,-0.61185 1.20716,-0.94258 0.60358,-0.339 1.32291,-0.339 0.81856,0 1.44694,0.37207 0.63666,0.37208 0.96739,1.2237 0.7028,-0.78548 1.37252,-1.19062 0.66973,-0.40515 1.45521,-0.40515 0.59531,0 1.08314,0.19017 0.48782,0.1819 0.85163,0.59532 0.37207,0.42168 0.5705,1.05006 0.20671,0.62839 0.20671,1.57923 v 6.07715 z"
         style="font-size:16.93333244px;line-height:110.00000238%;stroke-width:0.26458332px"
         id="path123"
         inkscape:connector-curvature="0" />
      <path
         d="m 131.68188,153.3749 q 0,2.33164 -1.12448,3.60495 -1.12448,1.26504 -2.9931,1.26504 -1.92649,0 -3.03444,-1.30638 -1.09967,-1.31465 -1.09967,-3.56361 0,-2.3151 1.13275,-3.59668 1.14101,-1.28158 3.00136,-1.28158 1.86862,0 2.9931,1.28158 1.12448,1.27331 1.12448,3.59668 z m -1.60403,0 q 0,-1.79421 -0.65319,-2.66237 -0.65319,-0.87643 -1.86036,-0.87643 -1.21542,0 -1.87688,0.87643 -0.65319,0.86816 -0.65319,2.66237 0,1.73633 0.65319,2.63756 0.66146,0.89297 1.87688,0.89297 1.1989,0 1.85209,-0.87643 0.66146,-0.8847 0.66146,-2.6541 z"
         style="font-size:16.93333244px;line-height:110.00000238%;stroke-width:0.26458332px"
         id="path125"
         inkscape:connector-curvature="0" />
      <path
         d="m 140.43794,148.75296 -3.48092,9.23561 h -1.39734 l -3.45611,-9.23561 h 1.67845 l 2.53007,7.12721 2.50528,-7.12721 z"
         style="font-size:16.93333244px;line-height:110.00000238%;stroke-width:0.26458332px"
         id="path127"
         inkscape:connector-curvature="0" />
      <path
         d="m 145.48983,158.20355 q -2.20762,0 -3.43132,-1.24024 -1.21543,-1.2485 -1.21543,-3.5388 0,-2.25723 1.18236,-3.58841 1.18235,-1.33946 3.09232,-1.33946 0.85989,0 1.52135,0.24805 0.66146,0.24805 1.15755,0.77721 0.4961,0.52917 0.76068,1.29812 0.26458,0.76067 0.26458,1.86862 v 0.84336 h -6.39961 q 0,1.6123 0.81029,2.46393 0.81029,0.85163 2.24069,0.85163 0.51263,0 1.00046,-0.11576 0.49609,-0.11575 0.89296,-0.29766 0.42168,-0.19017 0.71107,-0.3638 0.28939,-0.1819 0.47956,-0.339 h 0.0909 v 1.69499 q -0.27285,0.10749 -0.678,0.27285 -0.40514,0.1571 -0.7276,0.24805 -0.45475,0.12402 -0.82682,0.19017 -0.3638,0.0661 -0.92604,0.0661 z m 1.81901,-5.86218 q -0.0165,-0.62838 -0.14883,-1.08314 -0.13229,-0.45475 -0.38034,-0.76894 -0.27285,-0.34727 -0.7028,-0.52917 -0.42168,-0.1819 -1.05006,-0.1819 -0.62012,0 -1.05834,0.19017 -0.42995,0.1819 -0.78548,0.53743 -0.34727,0.36381 -0.52917,0.81029 -0.1819,0.43822 -0.23151,1.02526 z"
         style="font-size:16.93333244px;line-height:110.00000238%;stroke-width:0.26458332px"
         id="path129"
         inkscape:connector-curvature="0" />
      <path
         d="m 55.688593,174.34148 v -2.56316 q -0.553972,0.0496 -1.405599,0.14056 -0.84336,0.0827 -1.364258,0.23978 -0.620117,0.19017 -1.02526,0.58705 -0.405144,0.3886 -0.405144,1.0914 0,0.79375 0.446485,1.1989 0.446484,0.40514 1.30638,0.40514 0.735872,0 1.331185,-0.31419 0.595312,-0.32246 1.116211,-0.78548 z m 0,1.28984 q -0.19017,0.14056 -0.512631,0.39687 -0.314192,0.24805 -0.611849,0.39688 -0.413411,0.21497 -0.802018,0.33073 -0.380338,0.11575 -1.074869,0.11575 -0.570508,0 -1.083138,-0.21497 -0.512631,-0.21497 -0.901237,-0.60358 -0.372071,-0.38034 -0.595313,-0.93431 -0.223242,-0.56224 -0.223242,-1.18236 0,-0.95911 0.405143,-1.62884 0.405143,-0.67799 1.281576,-1.07487 0.777213,-0.35553 1.835546,-0.48782 1.058334,-0.14056 2.282032,-0.20671 v -0.29766 q 0,-0.5457 -0.165365,-0.87643 -0.165365,-0.339 -0.463021,-0.5209 -0.297656,-0.19017 -0.727604,-0.24804 -0.429948,-0.0661 -0.8847,-0.0661 -0.537435,0 -1.265039,0.16537 -0.727605,0.15709 -1.455209,0.46302 h -0.09095 v -1.57924 q 0.429948,-0.12402 1.231966,-0.27285 0.802018,-0.14883 1.5875,-0.14883 0.950846,0 1.604036,0.14883 0.65319,0.14883 1.174089,0.53744 0.504362,0.38034 0.752408,0.98392 0.248047,0.60358 0.248047,1.47174 v 6.31693 h -1.546158 z"
         style="font-size:16.93333244px;line-height:110.00000238%;stroke-width:0.26458332px"
         id="path131"
         inkscape:connector-curvature="0" />
      <path
         d="m 61.013332,176.61524 h -1.554427 v -12.86537 h 1.554427 z"
         style="font-size:16.93333244px;line-height:110.00000238%;stroke-width:0.26458332px"
         id="path133"
         inkscape:connector-curvature="0" />
      <path
         d="m 64.949008,176.61524 h -1.554427 v -12.86537 h 1.554427 z"
         style="font-size:16.93333244px;line-height:110.00000238%;stroke-width:0.26458332px"
         id="path135"
         inkscape:connector-curvature="0" />
      <path
         d="m 75.317367,176.79714 q -1.273307,0 -1.984374,-0.71934 -0.711068,-0.7276 -0.711068,-2.2903 v -5.11803 H 71.57186 v -1.28984 h 1.050065 v -2.6541 h 1.554427 v 2.6541 h 2.860807 v 1.28984 h -2.860807 v 4.39043 q 0,0.7028 0.02481,1.08314 0.0248,0.38034 0.190169,0.71107 0.14056,0.28938 0.454752,0.43821 0.314193,0.14056 0.851628,0.14056 0.380339,0 0.735872,-0.10749 0.355534,-0.11575 0.512631,-0.19016 h 0.09095 v 1.39733 q -0.438216,0.12402 -0.892969,0.19017 -0.446484,0.0744 -0.826823,0.0744 z"
         style="font-size:16.93333244px;line-height:110.00000238%;stroke-width:0.26458332px"
         id="path137"
         inkscape:connector-curvature="0" />
      <path
         d="m 85.437679,176.61524 h -1.554427 v -5.2586 q 0,-0.63665 -0.06615,-1.18235 -0.05788,-0.55397 -0.23151,-0.8847 -0.19017,-0.34727 -0.529167,-0.51263 -0.338997,-0.17364 -0.926042,-0.17364 -0.578776,0 -1.198893,0.3142 -0.611849,0.30592 -1.198893,0.80202 v 6.8957 H 78.17817 v -12.86537 h 1.554427 v 4.65502 q 0.694531,-0.62012 1.372526,-0.95085 0.677995,-0.33073 1.430404,-0.33073 1.364257,0 2.133203,0.90124 0.768945,0.89297 0.768945,2.59622 z"
         style="font-size:16.93333244px;line-height:110.00000238%;stroke-width:0.26458332px"
         id="path139"
         inkscape:connector-curvature="0" />
      <path
         d="m 91.64712,176.83021 q -2.207617,0 -3.431315,-1.24023 -1.21543,-1.2485 -1.21543,-3.5388 0,-2.25723 1.182357,-3.58842 1.182357,-1.33945 3.092317,-1.33945 0.859896,0 1.521355,0.24805 0.661458,0.24805 1.157552,0.77721 0.496093,0.52917 0.760677,1.29811 0.264583,0.76068 0.264583,1.86862 v 0.84336 h -6.399609 q 0,1.61231 0.810286,2.46394 0.810287,0.85162 2.24069,0.85162 0.51263,0 1.000456,-0.11575 0.496094,-0.11576 0.892969,-0.29766 0.421679,-0.19017 0.711067,-0.3638 0.289388,-0.1819 0.479558,-0.339 h 0.09095 v 1.69499 q -0.272851,0.10749 -0.677995,0.27285 -0.405143,0.1571 -0.727604,0.24805 -0.454752,0.12402 -0.826823,0.19017 -0.363802,0.0661 -0.926041,0.0661 z m 1.81901,-5.86217 q -0.01654,-0.62839 -0.148828,-1.08314 -0.132292,-0.45475 -0.380339,-0.76895 -0.272851,-0.34726 -0.702799,-0.52916 -0.42168,-0.1819 -1.050065,-0.1819 -0.620117,0 -1.058333,0.19017 -0.429948,0.1819 -0.785482,0.53743 -0.347266,0.3638 -0.529167,0.81029 -0.181901,0.43821 -0.23151,1.02526 z"
         style="font-size:16.93333244px;line-height:110.00000238%;stroke-width:0.26458332px"
         id="path141"
         inkscape:connector-curvature="0" />
      <path
         d="m 104.35539,176.83848 q -0.92604,0 -1.73633,-0.24805 -0.80202,-0.24804 -1.33118,-0.52916 v -1.7446 h 0.0827 q 0.19844,0.1571 0.46302,0.34727 0.27285,0.19017 0.71934,0.39687 0.39687,0.1819 0.86816,0.32246 0.47956,0.14056 0.99219,0.14056 0.37207,0 0.79375,-0.0827 0.42168,-0.0909 0.62838,-0.22324 0.28939,-0.19017 0.41341,-0.40515 0.1323,-0.21497 0.1323,-0.64492 0,-0.55397 -0.30593,-0.83509 -0.29766,-0.28112 -1.0666,-0.47129 -0.29766,-0.0744 -0.77721,-0.17363 -0.47956,-0.0992 -0.8847,-0.21497 -1.05834,-0.30593 -1.5379,-0.94258 -0.47955,-0.64492 -0.47955,-1.55443 0,-1.2485 0.94258,-2.03398 0.94257,-0.78549 2.50527,-0.78549 0.76894,0 1.54616,0.19017 0.77721,0.19017 1.30638,0.47956 v 1.66192 h -0.0827 q -0.59532,-0.47129 -1.33119,-0.74415 -0.7276,-0.27285 -1.47174,-0.27285 -0.76895,0 -1.29812,0.32246 -0.52916,0.32246 -0.52916,0.97565 0,0.57878 0.31419,0.86817 0.31419,0.28112 1.00872,0.46302 0.34727,0.0909 0.76895,0.1819 0.42995,0.0827 0.90124,0.19844 1.02526,0.25631 1.53789,0.85163 0.5209,0.59531 0.5209,1.62057 0,0.59531 -0.23978,1.13275 -0.23151,0.52916 -0.68627,0.9095 -0.49609,0.41341 -1.12448,0.62839 -0.62011,0.21497 -1.56269,0.21497 z"
         style="font-size:16.93333244px;line-height:110.00000238%;stroke-width:0.26458332px"
         id="path143"
         inkscape:connector-curvature="0" />
      <path
         d="m 117.17941,171.75352 q 0,2.30684 -1.10794,3.67936 -1.09968,1.36426 -2.7864,1.36426 -0.68626,0 -1.21542,-0.1571 -0.52917,-0.15709 -1.08314,-0.48782 v 3.86953 h -1.55443 v -12.64212 h 1.55443 v 0.96738 q 0.57877,-0.5209 1.28157,-0.86816 0.71107,-0.35554 1.54616,-0.35554 1.5875,0 2.4722,1.25677 0.89297,1.25677 0.89297,3.37344 z m -1.60404,0.17363 q 0,-1.57923 -0.50436,-2.44739 -0.50436,-0.87644 -1.63711,-0.87644 -0.66146,0 -1.28157,0.29766 -0.61185,0.28939 -1.16582,0.75241 v 5.23379 q 0.61185,0.29765 1.04179,0.40514 0.43822,0.10749 1.00046,0.10749 1.20716,0 1.87689,-0.8847 0.66972,-0.8847 0.66972,-2.58796 z"
         style="font-size:16.93333244px;line-height:110.00000238%;stroke-width:0.26458332px"
         id="path145"
         inkscape:connector-curvature="0" />
      <path
         d="m 123.95109,174.34148 v -2.56316 q -0.55397,0.0496 -1.4056,0.14056 -0.84336,0.0827 -1.36426,0.23978 -0.62011,0.19017 -1.02526,0.58705 -0.40514,0.3886 -0.40514,1.0914 0,0.79375 0.44648,1.1989 0.44649,0.40514 1.30638,0.40514 0.73588,0 1.33119,-0.31419 0.59531,-0.32246 1.11621,-0.78548 z m 0,1.28984 q -0.19017,0.14056 -0.51263,0.39687 -0.31419,0.24805 -0.61185,0.39688 -0.41341,0.21497 -0.80202,0.33073 -0.38034,0.11575 -1.07487,0.11575 -0.57051,0 -1.08314,-0.21497 -0.51263,-0.21497 -0.90123,-0.60358 -0.37207,-0.38034 -0.59531,-0.93431 -0.22325,-0.56224 -0.22325,-1.18236 0,-0.95911 0.40515,-1.62884 0.40514,-0.67799 1.28157,-1.07487 0.77722,-0.35553 1.83555,-0.48782 1.05833,-0.14056 2.28203,-0.20671 v -0.29766 q 0,-0.5457 -0.16537,-0.87643 -0.16536,-0.339 -0.46302,-0.5209 -0.29765,-0.19017 -0.7276,-0.24804 -0.42995,-0.0661 -0.8847,-0.0661 -0.53744,0 -1.26504,0.16537 -0.7276,0.15709 -1.45521,0.46302 h -0.091 v -1.57924 q 0.42995,-0.12402 1.23197,-0.27285 0.80202,-0.14883 1.5875,-0.14883 0.95084,0 1.60403,0.14883 0.65319,0.14883 1.17409,0.53744 0.50436,0.38034 0.75241,0.98392 0.24805,0.60358 0.24805,1.47174 v 6.31693 h -1.54616 z"
         style="font-size:16.93333244px;line-height:110.00000238%;stroke-width:0.26458332px"
         id="path147"
         inkscape:connector-curvature="0" />
      <path
         d="m 138.17244,176.61524 v -5.34128 q 0,-0.63665 -0.0496,-1.17409 -0.0496,-0.5457 -0.2067,-0.85162 -0.16537,-0.33073 -0.47129,-0.48783 -0.30593,-0.1571 -0.82682,-0.1571 -0.47956,0 -1.03353,0.29766 -0.54571,0.28939 -1.13275,0.84336 0.008,0.14056 0.0165,0.339 0.0165,0.19017 0.0165,0.45475 v 6.07715 h -1.55442 v -5.34128 q 0,-0.63665 -0.0496,-1.17409 -0.0496,-0.5457 -0.20671,-0.85162 -0.16536,-0.33073 -0.47129,-0.48783 -0.30592,-0.1571 -0.82682,-0.1571 -0.50436,0 -1.05833,0.3142 -0.55398,0.31419 -1.07487,0.80202 v 6.8957 h -1.55443 v -9.23561 h 1.55443 v 1.02526 q 0.61184,-0.61185 1.20716,-0.94258 0.60358,-0.339 1.32291,-0.339 0.81856,0 1.44694,0.37207 0.63666,0.37207 0.96739,1.2237 0.7028,-0.78548 1.37252,-1.19063 0.66973,-0.40514 1.45521,-0.40514 0.59531,0 1.08314,0.19017 0.48782,0.1819 0.85163,0.59531 0.37207,0.42168 0.5705,1.05007 0.20671,0.62838 0.20671,1.57923 v 6.07715 z"
         style="font-size:16.93333244px;line-height:110.00000238%;stroke-width:0.26458332px"
         id="path149"
         inkscape:connector-curvature="0" />
      <path
         d="m 83.85018,195.24191 h -1.554427 v -5.2586 q 0,-0.63665 -0.06615,-1.18235 -0.05788,-0.55398 -0.231511,-0.88471 -0.190169,-0.34726 -0.529166,-0.51263 -0.338998,-0.17363 -0.926042,-0.17363 -0.578776,0 -1.198893,0.31419 -0.611849,0.30593 -1.198893,0.80202 v 6.89571 h -1.554427 v -9.23562 h 1.554427 v 1.02526 q 0.694531,-0.62011 1.372526,-0.95084 0.677995,-0.33073 1.430403,-0.33073 1.364258,0 2.133203,0.90124 0.768946,0.89296 0.768946,2.59622 z"
         style="font-size:16.93333244px;line-height:110.00000238%;stroke-width:0.26458332px"
         id="path151"
         inkscape:connector-curvature="0" />
      <path
         d="m 93.648031,190.62823 q 0,2.33164 -1.124479,3.60495 -1.124479,1.26504 -2.993099,1.26504 -1.926497,0 -3.03444,-1.30638 -1.099675,-1.31465 -1.099675,-3.56361 0,-2.3151 1.132748,-3.59668 1.141015,-1.28157 3.001367,-1.28157 1.86862,0 2.993099,1.28157 1.124479,1.27331 1.124479,3.59668 z m -1.604037,0 q 0,-1.7942 -0.65319,-2.66237 -0.65319,-0.87643 -1.860351,-0.87643 -1.21543,0 -1.876888,0.87643 -0.65319,0.86817 -0.65319,2.66237 0,1.73633 0.65319,2.63757 0.661458,0.89297 1.876888,0.89297 1.198893,0 1.852083,-0.87643 0.661458,-0.88471 0.661458,-2.65411 z"
         style="font-size:16.93333244px;line-height:110.00000238%;stroke-width:0.26458332px"
         id="path153"
         inkscape:connector-curvature="0" />
      <path
         d="m 106.43898,186.00629 -2.33991,9.23562 h -1.43867 l -2.25723,-7.11895 -2.240687,7.11895 H 96.73208 l -2.364714,-9.23562 h 1.620573 l 1.628841,7.15202 2.191081,-7.15202 h 1.281579 l 2.24895,7.15202 1.5379,-7.15202 z"
         style="font-size:16.93333244px;line-height:110.00000238%;stroke-width:0.26458332px"
         id="path155"
         inkscape:connector-curvature="0" />
      <path
         d="m 114.22765,185.82439 q 0,0.81029 -0.27285,1.44694 -0.26458,0.62839 -0.71107,1.10795 -0.44648,0.47955 -1.01699,0.8847 -0.56224,0.40514 -1.19062,0.78548 v 1.88515 h -1.48002 v -2.52181 q 0.46302,-0.28112 1.07487,-0.66972 0.62012,-0.39688 0.96739,-0.73587 0.44648,-0.42168 0.69453,-0.91778 0.24804,-0.50436 0.24804,-1.14101 0,-0.93431 -0.58704,-1.38907 -0.58704,-0.46302 -1.52962,-0.46302 -0.82682,0 -1.5627,0.28112 -0.7276,0.27285 -1.18235,0.57051 h -0.091 v -1.68672 q 0.55397,-0.22324 1.39733,-0.39687 0.84336,-0.1819 1.59576,-0.1819 1.69499,0 2.67064,0.86816 0.97565,0.8599 0.97565,2.27376 z m -3.05924,9.41752 h -1.68672 v -1.7446 h 1.68672 z"
         style="font-size:16.93333244px;line-height:110.00000238%;stroke-width:0.26458332px"
         id="path157"
         inkscape:connector-curvature="0" />
    </g>
  </g>
</svg>
