<svg width="89" height="73" xmlns="http://www.w3.org/2000/svg" xmlns:xlink="http://www.w3.org/1999/xlink">
 <defs>
  <filter id="imagebot_184" height="1.9068" width="2.0395" y="-0.45339" x="-0.51975">
   <feGaussianBlur id="imagebot_218" stdDeviation="4.15116"/>
  </filter>
  <linearGradient id="imagebot_209">
   <stop stop-color="rgb(219, 227, 222)" id="imagebot_217" offset="0"/>
   <stop stop-color="rgb(244, 244, 244)" offset="0.58914" id="imagebot_216"/>
   <stop stop-color="rgb(0, 0, 0)" id="imagebot_215" offset="1"/>
  </linearGradient>
  <linearGradient id="imagebot_208">
   <stop stop-color="rgb(128, 179, 255)" id="imagebot_214" offset="0"/>
   <stop stop-color="rgb(128, 179, 255)" stop-opacity="0" id="imagebot_213" offset="1"/>
  </linearGradient>
  <linearGradient id="imagebot_210">
   <stop stop-color="rgb(255, 255, 255)" id="imagebot_212" offset="0"/>
   <stop stop-color="rgb(255, 255, 255)" stop-opacity="0" id="imagebot_211" offset="1"/>
  </linearGradient>
  <linearGradient y2="-0.06177" x2="0.63739" y1="0.79348" x1="0.33192" id="imagebot_135" xlink:href="#imagebot_210"/>
  <linearGradient y2="0" x2="0.5" y1="1.00002" x1="0.5" id="imagebot_141" xlink:href="#imagebot_209"/>
  <linearGradient y2="0.50007" x2="0.99999" y1="0.50007" x1="-0.00001" id="imagebot_133" xlink:href="#imagebot_208"/>
  <clipPath clipPathUnits="userSpaceOnUse" id="imagebot_108">
   <path d="M3120.05,2497.07L3224.45,2456.6C3224.45,2456.6 3239.63,2473.3 3266.02,2502.34C3209.49,2573.78 3152.98,2620.8 3113.75,2648.59C3103.77,2639.16 3093.79,2629.79 3083.85,2620.56L3120.05,2497.07" id="imagebot_207"/>
  </clipPath>
  <linearGradient x1="0.32173" y1="1.13902" x2="1.12891" y2="0.31496" spreadMethod="pad" id="imagebot_110">
   <stop offset="0" id="imagebot_206" stop-color="#231f20"/>
   <stop offset="0.5" id="imagebot_205" stop-color="#bdbcbd"/>
   <stop offset="1" id="imagebot_204" stop-color="#231f20"/>
  </linearGradient>
  <clipPath clipPathUnits="userSpaceOnUse" id="imagebot_42">
   <path d="M194.008,68.0273C313.996,141.242 1427.46,780.832 3064.89,2374L3065.69,2374.42C3028.54,2410.58 2971.68,2464.93 2971.68,2464.93C2971.68,2464.93 1596.16,1040.68 60.0391,56.4961C147.285,42.2969 194.008,68.0273 194.008,68.0273" id="imagebot_203"/>
  </clipPath>
  <linearGradient x1="0.10101" y1="-0.17919" x2="-0.09168" y2="0.13973" spreadMethod="pad" id="imagebot_56">
   <stop offset="0" id="imagebot_202" stop-color="#ffffff"/>
   <stop offset="0.2809" id="imagebot_201" stop-color="#8f8d8d"/>
   <stop offset="0.57865" id="imagebot_200" stop-color="#ffffff"/>
   <stop offset="0.85955" id="imagebot_199" stop-color="#605d5e"/>
   <stop offset="1" id="imagebot_198" stop-color="#ffffff"/>
  </linearGradient>
  <clipPath clipPathUnits="userSpaceOnUse" id="imagebot_21">
   <path d="M3066.49,2565.22L2971.68,2464.93C2971.68,2464.93 3080.67,2360.77 3095.43,2344.89L3195.06,2441.85C3195.06,2441.85 3127.31,2526 3066.49,2565.22" id="imagebot_197"/>
  </clipPath>
  <linearGradient x1="0.54853" y1="1.11696" x2="1.10039" y2="0.51497" spreadMethod="pad" id="imagebot_37">
   <stop offset="0" id="imagebot_196" stop-color="#231f20"/>
   <stop offset="0.5" id="imagebot_195" stop-color="#bdbcbd"/>
   <stop offset="1" id="imagebot_194" stop-color="#231f20"/>
  </linearGradient>
  <clipPath clipPathUnits="userSpaceOnUse" id="imagebot_15">
   <path d="M224.531,38.918C344.512,112.129 1355.55,665.246 3095.43,2344.89C3091.33,2349.3 3079.96,2360.52 3065.69,2374.42L3064.89,2374C1427.46,780.832 313.996,141.242 194.008,68.0273C194.008,68.0273 147.285,42.2969 60.0391,56.4961C40.0547,43.6836 20.0508,30.9297 0,18.2617C0,18.2617 104.547,-34.2969 224.531,38.918" id="imagebot_193"/>
  </clipPath>
  <linearGradient x1="0.12727" y1="0.34785" x2="0.26019" y2="0.68388" spreadMethod="pad" id="imagebot_18">
   <stop offset="0" id="imagebot_192" stop-color="#c3c2c3"/>
   <stop offset="0.44944" id="imagebot_191" stop-color="#d3d2d2"/>
   <stop offset="1" id="imagebot_190" stop-color="#7e7b7c"/>
  </linearGradient>
  <clipPath clipPathUnits="userSpaceOnUse" id="imagebot_9">
   <path d="M3095.43,2344.89C3094.46,2345.94 3093.05,2347.39 3091.32,2349.14C3071.81,2335.83 3053.26,2317.95 3034.85,2309.82C3004.96,2296.64 2991.79,2279.26 2972.83,2253.8C2953.73,2228.18 2930.03,2218.16 2907.03,2198.04C2885.57,2179.24 2875.91,2155.46 2852.24,2137.63C2823.83,2116.23 2802.74,2099.67 2780.11,2073.09C2759.14,2048.48 2731.45,2034.65 2709.48,2011.76C2693.47,1995.07 2678.22,1977.09 2659.74,1962.08C2626.45,1935.02 2583.36,1899.33 2555.26,1863.12C2540.28,1858.16 2526.36,1849.26 2514.11,1832.77C2495.52,1807.77 2475.17,1772.11 2447.85,1755.47C2422.64,1740.16 2400.79,1734.1 2380.13,1712.38C2361.48,1692.79 2342.83,1670.34 2322.89,1652.23C2298.57,1630.1 2270.86,1620.21 2250.41,1592.77C2231.58,1567.46 2206.98,1551.23 2181.51,1532.19C2160.57,1516.52 2148,1496.11 2129.14,1479.11C2105.87,1458.18 2084.55,1442.32 2063.75,1418.34C2041.16,1392.36 2001.57,1384.45 1975.54,1360.8C1954.5,1341.67 1942.23,1321.82 1918.52,1304.38C1893.98,1286.33 1870.67,1270.16 1848.26,1249.34C1830.01,1232.38 1813.29,1212.82 1794.45,1199.32C1775.5,1185.75 1752.95,1170.36 1738.51,1150.78C1730.78,1140.3 1727.75,1129.68 1716.98,1122.94C1704.6,1115.19 1687.06,1116.19 1673.88,1109C1651.17,1096.61 1643.12,1075.53 1629.72,1055.95C1608.96,1049.89 1587.25,1043.78 1570.46,1032.75C1524.09,1002.34 1498.49,950.578 1450.19,923.418C1404,897.453 1365.3,858.215 1317.56,831.289C1271.11,805.098 1242.87,756.711 1198.11,728.645C1177.44,715.676 1154.66,708.242 1137.11,691.984C1120.09,676.223 1106.51,657.59 1086.01,644.512C1067.56,632.734 1044.33,625.977 1028.16,611.504C1009.14,594.492 992.648,577.52 971.402,562.051C946.617,544.023 920.512,531.855 900.098,509.504C874.336,481.32 838.566,461.914 808.023,437.07C807.227,436.633 806.465,436.172 805.648,435.723C788.391,426.172 769.848,423.801 752.98,414.484C731.523,402.617 716.152,378.633 694.895,364.629C674.457,351.164 653.605,342.324 635.09,325.625C615.715,308.145 595.063,296.516 568.082,286.582C525.559,270.918 500.992,234.277 462.949,213.039C444.387,202.688 431.516,190.273 412.93,178.527C392.086,165.371 369.98,160.371 351.25,144.609C332.809,129.082 323.176,115.645 301.523,106.152C279.688,96.5938 263.766,89.4453 246.707,75.0703C228.879,60.0586 208.184,49.875 192.922,32.7539C189.398,28.8086 185.113,23.3789 180.648,17.0898C194.918,22.6563 209.609,29.8164 224.531,38.918C344.512,112.129 1355.55,665.246 3095.43,2344.89" id="imagebot_189"/>
  </clipPath>
  <linearGradient x1="-0.07279" y1="0.1452" x2="0.99905" y2="1.01204" spreadMethod="pad" id="imagebot_11">
   <stop offset="0" id="imagebot_188" stop-color="#828080"/>
   <stop offset="0.44944" id="imagebot_187" stop-color="#e4e4e4"/>
   <stop offset="1" id="imagebot_186" stop-color="#777475"/>
  </linearGradient>
 </defs>
 <g id="imagebot_1" label="Layer 1">
  <title label="Layer 1"/>
  <g transform="translate(0 -1) matrix(1 0 0 1 -3 12)" id="imagebot_219">
   <path label="Layer 1" id="imagebot_185" d="M342.72,76.44C342.72,79.893 342.34,103.22 341.62,106.45C339.86,115.34 334.15,120.45 325.58,122.4C321.59,123.14 317.06,106.84 312.14,106.75S301.92,122.78 296.38,122.78C290.83,122.78 285.5,106.65 280.56,106.72C275.62,106.8 271.07,123.08 267.08,122.31C258.04,120.8 253.31,114.62 251.08,106.16C250.4,103.02 250.05,79.789 250.05,76.44C250.05,50.863 270.81,30.104 296.38,30.104C321.96,30.104 342.72,50.863 342.72,76.44z" fill="#ffd4aa" transform="matrix(0.517218 0 0 0.517218 -98.7034 -6.32189)"/>
   <path label="Layer 1" id="imagebot_183" transform="matrix(0.284366 0.234688 -0.234688 0.284366 116.532 -151.045)" d="M262,501.86C262,509.31 259.54,515.36 256.5,515.36S251,509.31 251,501.86S253.46,488.36 256.5,488.36S262,494.41 262,501.86z" fill="#ffffff" fill-opacity="0.43439" filter="url(#imagebot_184)"/>
   <g label="Layer 1" id="imagebot_168" transform="matrix(0.517218 0 0 0.517218 60.3236 24.974)">
    <g id="imagebot_169" transform="matrix(1.19231 0 0 1.19231 0 0)">
     <title/>
     <metadata id="imagebot_182">Three eyesanimalBarry KukkukBarry KukkukBarry Kukkukimage/svg+xmlen</metadata>
     <metadata id="imagebot_181">image/svg+xml</metadata>
     <metadata id="imagebot_180">image/svg+xml</metadata>
     <metadata id="imagebot_179">image/svg+xml</metadata>
     <path transform="translate(-0.398382, -31.4232) matrix(0.131881, 0, 0, 0.131881, -6.85507, -61.6265)" fill="url(#imagebot_141)" id="imagebot_178" d="M94.3603,784.53802L109.26,816.10498C121.388,826.70801 187.602,829.87799 203.709,820.651C204.94901,819.94098 225.42799,761.80902 225.42799,761.80902L170.87899,743.87903L116.07899,753.47601L94.36029,784.53802L94.36029,784.53802L94.3603,784.53802z"/>
     <path transform="translate(-0.398382, -31.4232) matrix(0.131881, 0, 0, 0.131881, -6.85507, -61.6265)" fill="rgb(0, 0, 0)" stroke="rgb(0, 0, 0)" stroke-width="1px" id="imagebot_177" d="M54.99999,720.57648L64.99999,744.50507C64.99999,744.50507 132.85714,700.21936 253.21426,707.36219C253.21426,707.36219 154.2857,697.00507 67.85714,725.9336L54.99999,720.57648z"/>
     <path transform="translate(-0.398382, -31.4232) matrix(0.131881, 0, 0, 0.131881, -6.85507, -61.6265)" fill="rgb(0, 0, 0)" stroke="rgb(0, 0, 0)" stroke-width="1px" id="imagebot_176" d="M90.3571,785.93402L103.929,783.255L120.357,756.64801C120.357,756.64801 155.714,738.79102 220.35699,763.43402C215.619,784.065 209.106,802.03302 202.5,819.862C170.83299,828.83801 139.16701,826.35602 107.5,814.862C132.85899,827.55902 163.765,834.091 214.64301,818.43402L214.64301,814.14801L206.42901,818.43402L237.857,757.362C200.66901,743.53601 166.06701,724.60199 109.643,748.79102L90.3571,785.93403L90.3571,785.93403L90.3571,785.93402z"/>
     <path fill="rgb(0, 0, 0)" transform="translate(-0.398382, -31.4232) matrix(0.152986, 0, 0, 0.165118, -24.8584, -50.4213)" d="M285.53571,552.80859A28.92857,26.51786 0 1 1 227.67858,552.80859A28.92857,26.51786 0 1 1 285.53571,552.80859z" id="imagebot_175"/>
     <path fill="rgb(0, 34, 85)" id="imagebot_174" d="M285.53571,552.80859A28.92857,26.51786 0 1 1 227.67858,552.80859A28.92857,26.51786 0 1 1 285.53571,552.80859z" transform="translate(-0.398382, -31.4232) matrix(0.109345, 0, 0, 0.118016, -13.6598, -24.3829)"/>
     <path fill="url(#imagebot_135)" transform="translate(-0.398382, -31.4232) matrix(0.0385591, -0.119185, 0.109459, 0.103351, -52.7587, 15.7684)" d="M282.14285,541.20148A9.91071,11.875 0 1 1 262.32141,541.20148A9.91071,11.875 0 1 1 282.14285,541.20148z" id="imagebot_173"/>
     <path transform="translate(-0.398382, -31.4232) matrix(0.131881, 0, 0, 0.131881, -6.85507, -61.6265)" fill="url(#imagebot_133)" id="imagebot_172" d="M137.214,777.95099C137.66499,790.664 148.192,800.82599 161.15199,800.82599C173.058,800.82599 182.92999,792.23499 184.808,780.982L171.496,781.79499C169.69299,785.67298 165.74899,788.357 161.15199,788.357C155.184,788.357 150.302,783.82203 149.808,778.04499L137.21401,777.951L137.21401,777.951L137.214,777.95099z"/>
     <path fill="rgb(0, 0, 0)" transform="translate(-0.398382, -31.4232) matrix(0.0301447, 0, 0, 0.0325351, 6.92147, 22.9424)" d="M285.53571,552.80859A28.92857,26.51786 0 1 1 227.67858,552.80859A28.92857,26.51786 0 1 1 285.53571,552.80859z" id="imagebot_171"/>
     <path transform="translate(-0.398382, -31.4232) matrix(0.131881, 0, 0, 0.131881, -6.85507, -61.6265)" fill="rgb(0, 0, 0)" stroke="rgb(0, 0, 0)" stroke-width="1px" id="imagebot_170" d="M103.70418,737.56561C103.70418,737.56561 145.87805,718.62524 216.84126,736.55548L217.59887,736.55548C173.90977,717.11005 112.29045,732.00976 111.02777,732.26233C109.76508,732.51483 103.70417,737.56561 103.70417,737.56561L103.70418,737.56561z"/>
    </g>
   </g>
   <g label="Layer 1" transform="matrix(-0.57269 0 0 0.517218 54.117 24.4568)" id="imagebot_128">
    <g transform="matrix(1.19231 0 0 1.19231 0 0)" id="imagebot_129">
     <title/>
     <metadata id="imagebot_167">Three eyesanimalBarry KukkukBarry KukkukBarry Kukkukimage/svg+xmlen</metadata>
     <metadata id="imagebot_166">image/svg+xml</metadata>
     <metadata id="imagebot_143">image/svg+xml</metadata>
     <metadata id="imagebot_142">image/svg+xml</metadata>
     <path transform="translate(-0.398382, -31.4232) matrix(0.131881, 0, 0, 0.131881, -6.85507, -61.6265)" fill="url(#imagebot_141)" d="M94.3603,784.53802L109.26,816.10498C121.388,826.70801 187.602,829.87799 203.709,820.651C204.94901,819.94098 225.42799,761.80902 225.42799,761.80902L170.87899,743.87903L116.07899,753.47601L94.36029,784.53802L94.36029,784.53802L94.3603,784.53802z" id="imagebot_140"/>
     <path transform="translate(-0.398382, -31.4232) matrix(0.131881, 0, 0, 0.131881, -6.85507, -61.6265)" fill="rgb(0, 0, 0)" stroke="rgb(0, 0, 0)" stroke-width="1px" d="M54.99999,720.57648L64.99999,744.50507C64.99999,744.50507 132.85714,700.21936 253.21426,707.36219C253.21426,707.36219 154.2857,697.00507 67.85714,725.9336L54.99999,720.57648z" id="imagebot_139"/>
     <path transform="translate(-0.398382, -31.4232) matrix(0.131881, 0, 0, 0.131881, -6.85507, -61.6265)" fill="rgb(0, 0, 0)" stroke="rgb(0, 0, 0)" stroke-width="1px" d="M90.3571,785.93402L103.929,783.255L120.357,756.64801C120.357,756.64801 155.714,738.79102 220.35699,763.43402C215.619,784.065 209.106,802.03302 202.5,819.862C170.83299,828.83801 139.16701,826.35602 107.5,814.862C132.85899,827.55902 163.765,834.091 214.64301,818.43402L214.64301,814.14801L206.42901,818.43402L237.857,757.362C200.66901,743.53601 166.06701,724.60199 109.643,748.79102L90.3571,785.93403L90.3571,785.93403L90.3571,785.93402z" id="imagebot_138"/>
     <path fill="rgb(0, 0, 0)" transform="translate(-0.398382, -31.4232) matrix(0.152986, 0, 0, 0.165118, -24.8584, -50.4213)" d="M285.53571,552.80859A28.92857,26.51786 0 1 1 227.67858,552.80859A28.92857,26.51786 0 1 1 285.53571,552.80859z" id="imagebot_137"/>
     <path fill="rgb(0, 34, 85)" d="M285.53571,552.80859A28.92857,26.51786 0 1 1 227.67858,552.80859A28.92857,26.51786 0 1 1 285.53571,552.80859z" transform="translate(-0.398382, -31.4232) matrix(0.109345, 0, 0, 0.118016, -13.6598, -24.3829)" id="imagebot_136"/>
     <path fill="url(#imagebot_135)" transform="translate(-0.398382, -31.4232) matrix(0.0385591, -0.119185, 0.109459, 0.103351, -52.7587, 15.7684)" d="M282.14285,541.20148A9.91071,11.875 0 1 1 262.32141,541.20148A9.91071,11.875 0 1 1 282.14285,541.20148z" id="imagebot_134"/>
     <path transform="translate(-0.398382, -31.4232) matrix(0.131881, 0, 0, 0.131881, -6.85507, -61.6265)" fill="url(#imagebot_133)" d="M137.214,777.95099C137.66499,790.664 148.192,800.82599 161.15199,800.82599C173.058,800.82599 182.92999,792.23499 184.808,780.982L171.496,781.79499C169.69299,785.67298 165.74899,788.357 161.15199,788.357C155.184,788.357 150.302,783.82203 149.808,778.04499L137.21401,777.951L137.21401,777.951L137.214,777.95099z" id="imagebot_132"/>
     <path fill="rgb(0, 0, 0)" transform="translate(-0.398382, -31.4232) matrix(0.0301447, 0, 0, 0.0325351, 6.92147, 22.9424)" d="M285.53571,552.80859A28.92857,26.51786 0 1 1 227.67858,552.80859A28.92857,26.51786 0 1 1 285.53571,552.80859z" id="imagebot_131"/>
     <path transform="translate(-0.398382, -31.4232) matrix(0.131881, 0, 0, 0.131881, -6.85507, -61.6265)" fill="rgb(0, 0, 0)" stroke="rgb(0, 0, 0)" stroke-width="1px" d="M103.70418,737.56561C103.70418,737.56561 145.87805,718.62524 216.84126,736.55548L217.59887,736.55548C173.90977,717.11005 112.29045,732.00976 111.02777,732.26233C109.76508,732.51483 103.70417,737.56561 103.70417,737.56561L103.70418,737.56561z" id="imagebot_130"/>
    </g>
   </g>
   <g label="Layer 1" id="imagebot_114" transform="translate(18.7133 44.5415) matrix(2.48256 0 0 1.68491 0.000110847 -46.5414)">
    <metadata id="imagebot_127">image/svg+xml</metadata>
    <g label="Layer 1" id="imagebot_115" transform="matrix(0.671684 0 0 0.671684 -28.1675 -47.4826)">
     <g id="imagebot_116" transform="translate(221.1426,-1127.624)">
      <path id="imagebot_126" d="M-133.23572,1212.0027C-139.23694,1206.1286 -147.26938,1204.2018 -154.04131,1203.3049L-141.21527,1201.0319C-146.08265,1199.7515 -156.72413,1193.6511 -165.90197,1205.4446C-169.56439,1206.7584 -173.5335,1207.6847 -175.7514,1210.8369C-177.2937,1216.2638 -179.56049,1221.5055 -179.16047,1227.4316C-178.09819,1231.0282 -175.58694,1233.3243 -173.55127,1236.0485L-172.43121,1234.9417L-170.64889,1236.6703L-170.63559,1234.3457C-169.70665,1233.8199 -168.33768,1234.5439 -167.09317,1234.9102L-166.79982,1233.4026L-167.44875,1225.6052C-164.16768,1220.7285 -160.89105,1215.8509 -158.31358,1210.8964L-158.92472,1227.4551C-155.21652,1222.6295 -152.07279,1217.5715 -152.6826,1210.9689C-150.03668,1215.1611 -146.91384,1220.6996 -146.47826,1227.3124L-146.17113,1227.8102L-146.05735,1231.1598L-145.35731,1235.42C-142.23803,1229.9886 -143.60521,1224.0883 -143.89456,1218.3004L-138.15691,1228.0996C-138.19111,1222.3815 -137.87201,1216.6563 -142.0758,1211.028L-133.23575,1212.0027L-133.23572,1212.0027z" stroke-width="0.04445" fill="#a15019"/>
      <path id="imagebot_125" d="M-138.4089,1227.564C-139.9392,1221.0832 -140.00276,1214.7797 -149.56284,1207.3309C-146.97915,1209.0723 -145.97242,1212.9001 -145.21772,1217.0621C-142.68824,1219.8325 -140.49746,1223.5558 -138.4089,1227.564z" stroke-width="0.04445" fill="#2b1100"/>
      <path id="imagebot_124" d="M-146.90448,1207.1162C-145.28972,1208.0856 -143.7203,1209.363 -142.21444,1211.0764C-139.36139,1210.7489 -136.17277,1211.6885 -133.05438,1212.3641C-136.70836,1210.0866 -141.18505,1208.2603 -146.90448,1207.1162z" stroke-width="0.04445" fill="#2b1100"/>
      <path id="imagebot_123" d="M-155.20582,1206.3348C-154.21999,1207.1967 -152.90836,1209.8133 -152.75413,1211.0151C-150.78024,1212.8694 -147.14449,1221.201 -146.20221,1227.5373C-147.42984,1219.268 -147.50318,1210.2519 -155.20582,1206.3348z" stroke-width="0.04445" fill="#2b1100"/>
      <path id="imagebot_122" d="M-159.31271,1205.0654C-157.80952,1204.4814 -156.42633,1203.6129 -154.69824,1203.5618L-142.21444,1201.0403C-152.77547,1199.95 -158.55623,1201.943 -159.31271,1205.0654z" stroke-width="0.04445" fill="#2b1100"/>
      <path id="imagebot_121" d="M-158.32199,1207.9834C-158.30469,1214.3579 -158.39489,1221.0085 -159.1247,1227.5427C-156.53967,1221.2228 -154.22799,1212.112 -158.32199,1207.9834z" stroke-width="0.04445" fill="#2b1100"/>
      <path id="imagebot_120" d="M-162.12798,1207.6402C-168.29765,1211.2604 -167.74207,1219.6716 -167.49316,1225.5937C-166.68868,1220.3316 -165.86063,1213.9339 -162.12798,1207.6402z" stroke-width="0.04445" fill="#2b1100"/>
      <path id="imagebot_119" d="M-145.21772,1235.5644C-144.49323,1231.6589 -144.42701,1227.7622 -145.26172,1223.8776L-146.03909,1227.5631L-146.17732,1231.4318L-145.21772,1235.5644z" stroke-width="0.04445" fill="#2b1100"/>
      <path id="imagebot_118" d="M-171.40005,1212.2827C-173.5735,1222.5122 -169.83107,1227.8454 -166.72423,1233.1785C-170.15109,1226.3608 -170.83113,1219.3262 -171.40005,1212.2827z" stroke-width="0.04445" fill="#2b1100"/>
      <path id="imagebot_117" d="M-171.72006,1221.4103C-172.78234,1219.3436 -173.16014,1218.0297 -173.43127,1214.7029C-173.96463,1218.3751 -174.03575,1220.4085 -173.55572,1223.8216L-174.11131,1224.963C-177.00924,1221.8152 -175.60028,1214.9922 -174.82246,1209.8906C-177.27592,1213.0663 -179.63161,1222.0455 -179.12491,1227.1813C-178.06263,1231.0438 -175.9114,1233.9044 -173.13347,1236.1849L-173.29348,1234.1968L-170.79557,1236.6201L-170.60889,1234.4213L-170.09775,1234.0195L-167.16426,1234.9164L-166.66645,1233.2305L-167.81318,1231.9105C-171.71562,1233.095 -173.44016,1228.8779 -174.10242,1226.2159C-173.83129,1224.8332 -174.21353,1222.8793 -171.53339,1222.8815L-171.72006,1221.4103z" stroke-width="0.04445" fill="#2b1100"/>
     </g>
    </g>
   </g>
   <g label="Layer 1" id="imagebot_2" transform="rotate(23.8356 25.7226 48.5742) matrix(1.32721 0 0 1.32721 5.15077 30.6577)">
    <title/>
    <metadata id="imagebot_112">image/svg+xmlJapanese katana samurai swordThis image was adapted from a picture posted to publicdomainq.net. All of the images on these sites are in the public domain i.e. CC0. This site is only in Japanese but can be easily navigated with Google Translate.JapanesekatanasamuraiswordbladesharpwarriorbattleJapanweaponsteel</metadata>
    <g id="imagebot_5" label="ink_ext_XXXXXX" transform="matrix(0.0510288 0 0 -0.0510288 0.191358 26.8074)">
     <g id="imagebot_6" transform="matrix(0.14584807,0,0,0.14584807,0,-1.7148015e-5)">
      <path d="M4096.44,3427.08C4103.9,3435.9 4109.81,3443.05 4113.87,3448.18C4113.87,3448.18 4099.54,3501.64 4066.09,3533.4C4066.09,3533.4 3993.16,3599.2 3963.5,3567.71C3961.47,3565.54 3957.38,3560.88 3951.53,3554.1C3979.29,3546.48 4042.05,3519.63 4096.44,3427.08" id="imagebot_111" fill-rule="nonzero" fill="#858a9d"/>
      <g id="imagebot_106">
       <g id="imagebot_107" clip-path="url(#imagebot_108)">
        <path d="M3120.05,2497.07L3224.45,2456.6C3224.45,2456.6 3239.63,2473.3 3266.02,2502.34C3209.49,2573.78 3152.98,2620.8 3113.75,2648.59C3103.77,2639.16 3093.79,2629.79 3083.85,2620.56L3120.05,2497.07" id="imagebot_109" fill-rule="nonzero" fill="url(#imagebot_110)"/>
       </g>
      </g>
      <path d="M4096.44,3427.08C4083.61,3448.92 4070.31,3466.98 4057.12,3482.12L4067.05,3494.82C4046,3529.8 4024.18,3534.43 4024.18,3534.43L4013.87,3522.52C3987.96,3541.7 3965.39,3550.3 3951.53,3554.1C3874.54,3464.86 3480.46,2994.87 3113.75,2648.59C3152.98,2620.8 3209.49,2573.78 3266.02,2502.34C3422.65,2674.77 3974.65,3283.12 4096.44,3427.08" id="imagebot_105" fill-rule="nonzero" fill="#231f20"/>
      <path d="M3953.84,3412.52L3894.82,3427.33L3913.48,3369.79L3975.96,3351.26L3953.84,3412.52" id="imagebot_104" fill-rule="nonzero" fill="#858a9d"/>
      <path d="M3900.18,3351.78L3841.17,3366.57L3859.82,3309.04L3922.31,3290.51L3900.18,3351.78" id="imagebot_103" fill-rule="nonzero" fill="#858a9d"/>
      <path d="M3846.53,3291.03L3787.5,3305.83L3806.16,3248.29L3868.65,3229.76L3846.53,3291.03" id="imagebot_102" fill-rule="nonzero" fill="#858a9d"/>
      <path d="M3792.87,3230.28L3733.85,3245.08L3752.52,3187.54L3815,3169.02L3792.87,3230.28" id="imagebot_101" fill-rule="nonzero" fill="#858a9d"/>
      <path d="M3739.21,3169.53L3680.2,3184.33L3698.85,3126.79L3761.34,3108.26L3739.21,3169.53" id="imagebot_100" fill-rule="nonzero" fill="#858a9d"/>
      <path d="M3684.94,3109.45L3626.44,3123.95L3644.77,3066.95L3706.71,3048.76L3684.94,3109.45" id="imagebot_99" fill-rule="nonzero" fill="#858a9d"/>
      <path d="M3630.66,3049.37L3572.68,3063.57L3590.7,3007.12L3652.09,2989.25L3630.66,3049.37" id="imagebot_98" fill-rule="nonzero" fill="#858a9d"/>
      <path d="M3576.39,2989.29L3518.92,3003.2L3536.62,2947.28L3597.46,2929.75L3576.39,2989.29" id="imagebot_97" fill-rule="nonzero" fill="#858a9d"/>
      <path d="M3522.13,2929.21L3465.16,2942.82L3482.54,2887.43L3542.84,2870.25L3522.13,2929.21" id="imagebot_96" fill-rule="nonzero" fill="#858a9d"/>
      <path d="M3467.56,2869.93L3410.69,2883.87L3427.75,2828.38L3487.93,2810.84L3467.56,2869.93" id="imagebot_94" fill-rule="nonzero" fill="#858a9d"/>
      <path d="M3413.01,2810.64L3356.21,2824.91L3372.96,2769.33L3433.04,2751.44L3413.01,2810.64" id="imagebot_93" fill-rule="nonzero" fill="#858a9d"/>
      <path d="M3358.46,2751.35L3301.75,2765.95L3318.16,2710.27L3378.15,2692.05L3358.46,2751.35" id="imagebot_78" fill-rule="nonzero" fill="#858a9d"/>
      <path d="M3303.91,2692.07L3247.28,2707L3263.38,2651.23L3323.26,2632.65L3303.91,2692.07" id="imagebot_67" fill-rule="nonzero" fill="#858a9d"/>
      <path d="M3249.36,2632.79L3192.8,2648.04L3208.59,2592.17L3268.36,2573.25L3249.36,2632.79" id="imagebot_65" fill-rule="nonzero" fill="#858a9d"/>
      <path d="M3170.64,2552.39C3019.61,2698.14 2989.39,2661.07 2989.39,2661.07C2954.8,2625.23 3070.54,2522.61 3110.9,2488.73C3145.78,2450 3251.12,2339.26 3285.71,2375.11C3285.71,2375.11 3321.68,2406.64 3170.64,2552.39" id="imagebot_63" fill-rule="nonzero" fill="#858a9d"/>
      <path d="M3161.45,2543.2C3010.41,2688.95 2980.18,2651.88 2980.18,2651.88C2945.59,2616.03 3061.33,2513.42 3101.71,2479.53C3136.57,2440.8 3241.92,2330.06 3276.51,2365.91C3276.51,2365.91 3312.48,2397.44 3161.45,2543.2" id="imagebot_61" fill-rule="nonzero" fill="#231f20"/>
      <path d="M3144.18,2524.62C3055.05,2610.62 3044,2595.77 3044,2595.77C3030.67,2581.96 3098.04,2520.45 3121.35,2499.91C3142.43,2477.6 3205.51,2413.23 3218.84,2427.04C3218.84,2427.04 3233.3,2438.63 3144.18,2524.62" id="imagebot_59" fill-rule="nonzero" fill="#858a9d"/>
      <path d="M3137.82,2518.71C3048.7,2604.72 3037.64,2589.86 3037.64,2589.86C3024.32,2576.05 3091.68,2514.54 3114.98,2494C3136.07,2471.7 3199.18,2407.32 3212.48,2421.13C3212.48,2421.13 3226.94,2432.72 3137.82,2518.71" id="imagebot_57" fill-rule="nonzero" fill="#231f20"/>
      <g id="imagebot_39">
       <g id="imagebot_40" clip-path="url(#imagebot_42)">
        <path d="M194.008,68.0273C313.996,141.242 1427.46,780.832 3064.89,2374L3065.69,2374.42C3028.54,2410.58 2971.68,2464.93 2971.68,2464.93C2971.68,2464.93 1596.16,1040.68 60.0391,56.4961C147.285,42.2969 194.008,68.0273 194.008,68.0273" id="imagebot_43" fill-rule="nonzero" fill="url(#imagebot_56)"/>
       </g>
      </g>
      <g id="imagebot_19">
       <g id="imagebot_20" clip-path="url(#imagebot_21)">
        <path d="M3066.49,2565.22L2971.68,2464.93C2971.68,2464.93 3080.67,2360.77 3095.43,2344.89L3195.06,2441.85C3195.06,2441.85 3127.31,2526 3066.49,2565.22" id="imagebot_36" fill-rule="nonzero" fill="url(#imagebot_37)"/>
       </g>
      </g>
      <g id="imagebot_12">
       <g id="imagebot_13" clip-path="url(#imagebot_15)">
        <path d="M224.531,38.918C344.512,112.129 1355.55,665.246 3095.43,2344.89C3091.33,2349.3 3079.96,2360.52 3065.69,2374.42L3064.89,2374C1427.46,780.832 313.996,141.242 194.008,68.0273C194.008,68.0273 147.285,42.2969 60.0391,56.4961C40.0547,43.6836 20.0508,30.9297 0,18.2617C0,18.2617 104.547,-34.2969 224.531,38.918" id="imagebot_16" fill-rule="nonzero" fill="url(#imagebot_18)"/>
       </g>
      </g>
      <g id="imagebot_7">
       <g id="imagebot_8" clip-path="url(#imagebot_9)">
        <path d="M3095.43,2344.89C3094.46,2345.94 3093.05,2347.39 3091.32,2349.14C3071.81,2335.83 3053.26,2317.95 3034.85,2309.82C3004.96,2296.64 2991.79,2279.26 2972.83,2253.8C2953.73,2228.18 2930.03,2218.16 2907.03,2198.04C2885.57,2179.24 2875.91,2155.46 2852.24,2137.63C2823.83,2116.23 2802.74,2099.67 2780.11,2073.09C2759.14,2048.48 2731.45,2034.65 2709.48,2011.76C2693.47,1995.07 2678.22,1977.09 2659.74,1962.08C2626.45,1935.02 2583.36,1899.33 2555.26,1863.12C2540.28,1858.16 2526.36,1849.26 2514.11,1832.77C2495.52,1807.77 2475.17,1772.11 2447.85,1755.47C2422.64,1740.16 2400.79,1734.1 2380.13,1712.38C2361.48,1692.79 2342.83,1670.34 2322.89,1652.23C2298.57,1630.1 2270.86,1620.21 2250.41,1592.77C2231.58,1567.46 2206.98,1551.23 2181.51,1532.19C2160.57,1516.52 2148,1496.11 2129.14,1479.11C2105.87,1458.18 2084.55,1442.32 2063.75,1418.34C2041.16,1392.36 2001.57,1384.45 1975.54,1360.8C1954.5,1341.67 1942.23,1321.82 1918.52,1304.38C1893.98,1286.33 1870.67,1270.16 1848.26,1249.34C1830.01,1232.38 1813.29,1212.82 1794.45,1199.32C1775.5,1185.75 1752.95,1170.36 1738.51,1150.78C1730.78,1140.3 1727.75,1129.68 1716.98,1122.94C1704.6,1115.19 1687.06,1116.19 1673.88,1109C1651.17,1096.61 1643.12,1075.53 1629.72,1055.95C1608.96,1049.89 1587.25,1043.78 1570.46,1032.75C1524.09,1002.34 1498.49,950.578 1450.19,923.418C1404,897.453 1365.3,858.215 1317.56,831.289C1271.11,805.098 1242.87,756.711 1198.11,728.645C1177.44,715.676 1154.66,708.242 1137.11,691.984C1120.09,676.223 1106.51,657.59 1086.01,644.512C1067.56,632.734 1044.33,625.977 1028.16,611.504C1009.14,594.492 992.648,577.52 971.402,562.051C946.617,544.023 920.512,531.855 900.098,509.504C874.336,481.32 838.566,461.914 808.023,437.07C807.227,436.633 806.465,436.172 805.648,435.723C788.391,426.172 769.848,423.801 752.98,414.484C731.523,402.617 716.152,378.633 694.895,364.629C674.457,351.164 653.605,342.324 635.09,325.625C615.715,308.145 595.063,296.516 568.082,286.582C525.559,270.918 500.992,234.277 462.949,213.039C444.387,202.688 431.516,190.273 412.93,178.527C392.086,165.371 369.98,160.371 351.25,144.609C332.809,129.082 323.176,115.645 301.523,106.152C279.688,96.5938 263.766,89.4453 246.707,75.0703C228.879,60.0586 208.184,49.875 192.922,32.7539C189.398,28.8086 185.113,23.3789 180.648,17.0898C194.918,22.6563 209.609,29.8164 224.531,38.918C344.512,112.129 1355.55,665.246 3095.43,2344.89" id="imagebot_10" fill-rule="nonzero" fill="url(#imagebot_11)"/>
       </g>
      </g>
     </g>
    </g>
   </g>
  </g>
 </g>
 <metadata>image/svg+xmlOpenclipartPadepokan: Ghost2010-05-23T00:34:39Beware, this baddie can be invisible ;)https://openclipart.org/detail/62119/padepokan:-ghost-by-diasdiasbaddieghosttransparant</metadata>
</svg>