<?xml version="1.0" encoding="UTF-8" standalone="no"?>
<!-- Created with Inkscape (http://www.inkscape.org/) -->

<svg xmlns:dc="http://purl.org/dc/elements/1.1/" xmlns:cc="http://creativecommons.org/ns#" xmlns:rdf="http://www.w3.org/1999/02/22-rdf-syntax-ns#" xmlns:svg="http://www.w3.org/2000/svg" xmlns="http://www.w3.org/2000/svg" xmlns:sodipodi="http://sodipodi.sourceforge.net/DTD/sodipodi-0.dtd" xmlns:inkscape="http://www.inkscape.org/namespaces/inkscape" width="183.27" height="595" viewBox="0 0 183.27 595" id="svg2" version="1.1" inkscape:version="0.91 r13725" sodipodi:docname="ladle.svg">
  <defs id="defs4" />
  <sodipodi:namedview id="base" pagecolor="#c0a5cd" bordercolor="#666666" borderopacity="1.0" inkscape:pageopacity="0" inkscape:pageshadow="2" inkscape:zoom="0.46611" inkscape:cx="88.529" inkscape:cy="632.08" inkscape:document-units="px" inkscape:current-layer="picture" showgrid="false" units="px" inkscape:window-width="1680" inkscape:window-height="1001" inkscape:window-x="0" inkscape:window-y="25" inkscape:window-maximized="1" fit-margin-top="0" fit-margin-left="0" fit-margin-right="0" fit-margin-bottom="0" />
  <metadata id="metadata7">
    <rdf:RDF>
      <cc:Work rdf:about="">
        <dc:format>image/svg+xml</dc:format>
        <dc:type rdf:resource="http://purl.org/dc/dcmitype/StillImage" />
        <dc:title></dc:title>
      </cc:Work>
    </rdf:RDF>
  </metadata>
  <g inkscape:label="picture" inkscape:groupmode="layer" id="picture" transform="translate(199.6,-142.7)">
    <g transform="matrix(0.46717,0,0,0.46717,-684.15,74.969)" id="g4462">
      <path style="fill:#8c8c8c" inkscape:connector-curvature="0" id="path236" d="m 1233.7,145.08 0,-0.1 c 0,0 -0.1,0 -0.3,0 -0.2,0 -0.3,0 -0.3,0 l 0,0.1 c -7.1,0.88 -70.4,11.06 -53.4,92.14 17.9,85.82 35.7,874.98 25.6,907.28 -9.7,30.6 24.4,3.3 28.1,0.3 3.6,3 37.8,30.3 28.1,-0.3 -10.2,-32.3 7.6,-821.46 25.6,-907.28 16.9,-81.08 -46.4,-91.26 -53.4,-92.14 z m -1.2,89.35 c -16.5,0 -29.8,-13.34 -29.8,-29.8 0,-16.47 13.3,-29.81 29.8,-29.81 16.5,0 29.8,13.34 29.8,29.81 0,16.46 -13.3,29.8 -29.8,29.8 z" />
      <path style="fill:#515050" inkscape:connector-curvature="0" id="path238" d="m 1429.5,1232.9 c 0,11.8 -2.8,23.1 -8,33.9 l 0,0 c -24,49.3 -99.2,85.3 -188.2,85.3 -91.2,0 -167.9,-37.8 -189.8,-89.1 0,0 0,0 0,0 -4.1,-9.6 -6.3,-19.7 -6.3,-30.1 0,-65.8 87.8,-119.2 196.2,-119.2 108.3,0 196.1,53.4 196.1,119.2 z" />
      <path style="fill:#8c8c8c" inkscape:connector-curvature="0" id="path240" d="m 1421.5,1265.5 c -0.1,1.3 -15.2,153.1 -188.1,153.1 -162.5,0 -189.5,-154.4 -189.9,-156.9 22,51.3 98.7,89.2 189.9,89.2 89,0 164.1,-36.1 188.1,-85.4 z" />
    </g>
  </g>
</svg>
