<?xml version="1.0" encoding="UTF-8" standalone="no"?>
<svg id="svg4136" xmlns:rdf="http://www.w3.org/1999/02/22-rdf-syntax-ns#" xmlns="http://www.w3.org/2000/svg" height="1873" viewBox="0 0 1817 1873" width="1817" version="1.1" xmlns:cc="http://creativecommons.org/ns#" xmlns:dc="http://purl.org/dc/elements/1.1/">
<path id="path4146" d="m930.5 1871.5c-144.4-17.6-201.02-137.3-154.4-326.5 14.546-59.042 62.537-172 73.075-172 1.4705 0 0.94629 1.5083-8.1248 23.377-114.27 275.5-67.1 451.3 120.95 450.8 122.03-0.3205 202.5-82.429 231.93-236.67 7.1649-37.549 9.5762-66.07 9.5537-113-0.021-43.226-1.7197-65.812-7.5897-100.9-1.095-6.5453-1.6312-12.226-1.1915-12.623 5.9829-5.4092 20.995-13.445 22.482-12.034 12.403 11.775 77.006 43.265 105.71 51.527 79.209 22.799 106.2-8.718 83.907-97.969-29.935-119.84-133.29-251.35-269.05-342.34-17.267-11.573-14.561-12.005 7.7747-1.2422 143.37 69.085 284.69 256.71 293.07 389.1 5.9042 93.272-78.809 112.31-201.1 45.186-12.928-7.0961-11.904-7.3338-10.535 2.445 38.313 273.61-95.014 477.25-296.46 452.8zm-734.91-327.6c-86.01-9.1-171.76-93.4-191.03-187.9-24.283-119.1 61.119-271.2 213.23-379.7 8.9584-6.3906 15.933-11.923 15.5-12.295-0.44-0.37-5.07-2.17-10.29-3.99-128.91-44.98-172.58-119.8-103.7-177.67 96.49-81.06 326.07-103.19 478.7-46.15 33.762 12.618 35.673 16.274 4.383 8.3864-138.21-34.84-281.6-29.68-392.88 14.15-142.21 56-123.72 131.95 44.48 182.68l17.483 5.2735 1.7019 10.907c0.93605 5.9989 1.731 11.61 1.7666 12.47 0.0389 0.93842-4.4309 4.3957-11.185 8.6515-206.18 129.89-292.25 334.89-192.86 459.29 125.71 157.3 290.26 85.2 425.42-186.5 15.802-31.766 15.442-31.09 16.171-30.361 3.2006 3.2006-16.504 54.956-34.978 91.872-76.465 152.8-184.37 241.17-281.91 230.89zm804.02-116.95c-51.4-5.7111-90.579-48.095-93.314-100.95-1.3556-26.196 4.936-31.47 11.671-9.7822 18.976 61.107 34.226 81.041 69.5 90.85 70.125 19.499 141.49-43.237 140.46-123.48l-0.1527-11.914 4.3662-3.3567c5.1034-3.9233 5.3924-3.9087 19.366 0.9797 60.386 21.125 90.612-10.432 68.766-71.794-24.174-67.901-100.61-111.81-165.27-94.93-38.125 9.9521-32.209 51.587 13.543 95.318 34.39 32.871 55.188 27.534 45.92-11.783-1.7808-7.5546-1.3945-8.8681 0.8463-2.8777 17.632 47.137-15.701 54.593-57.309 12.818-55.374-55.595-47.307-102.59 17.987-104.78 69.007-2.3193 122.11 29.018 150.41 88.754 36.378 76.794-1.3649 127.72-77.17 104.13l-5.9346-1.847-0.6116 12.599c-3.8198 78.694-70.381 140.12-143.08 132.05zm-289.11-156.9l-11-3.5981-3.7782-13c-23.648-81.368-22.197-161.13 4.3298-238 31.146-90.259 104.19-177.79 204.83-245.46l6.3849-4.2931-0.58102-38.121c-0.3972-26.06-1.2213-45.082-2.6047-60.121-2.5428-27.643-2.6303-32.807-0.50866-30 5.8931 7.7958 14.99 56.578 17.481 93.741 0.59937 8.9427 1.302 18.122 1.5614 20.398l0.47164 4.1388 12.705-7.723c47.674-28.978 111.72-58.623 136.96-63.391 8.4211-1.5909 3.4227 1.9275-21.75 15.31-46.677 24.815-96.222 54.815-123.75 74.933l-4.25 3.1058v16.761c0 186.9-82.301 381.54-201 475.37l-4.5 3.5571-11-3.5982zm25.343-46.622c35.546-34.402 64.969-74.502 90.291-123.06 4.3262-8.2958 7.8659-15.296 7.8659-15.556 0-0.2598-3.9375 0.3409-8.75 1.3351-8.9057 1.8397-33.073 5.1431-45.75 6.2534-25.731 2.2537-49.398 5.3566-54.475 7.142-0.95421 0.3356 0.38491 1.5361 3.7908 3.3987 33.521 18.331 51.926 40.628 40.836 49.471-13.369 10.66-36.124 19.009-49.969 18.333-8.3864-0.4092-8.1033-2.0176 1.0214-5.8043 13.971-5.7977 32.627-16.481 34.734-19.89 1.7816-2.8827-41.597-30.1-47.973-30.1-0.79427 0 0.0992 50.679 1.0226 58 0.31217 2.475 1.05 8.325 1.6396 13 1.9672 15.599 9.6036 51 11.001 51 0.40778 0 7.0296-6.0858 14.715-13.524zm-8.34-148.4c11.257-2.763 24.408-4.9374 43.037-7.116 26.302-3.0761 52.138-7.3731 53.751-8.9401 0.43323-0.4208-7.4346-7.9256-17.484-16.677-33.097-28.823-48.525-44.966-57.277-59.932l-3.9436-6.7432-4.3838 9.3812c-15.962 34.159-33.952 95.434-27.449 93.494 0.9625-0.2871 7.15-1.8473 13.75-3.4671zm129.84-43.685c12.889-33.132 33.607-101.84 31.379-104.07-0.29784-0.29785-12.166 1.7644-26.375 4.5829-52.745 10.463-83.002 19.838-91.015 28.202l-2.7975 2.92 2.8908 5.5213c4.0121 7.663 22.833 26.952 46.492 47.649 10.77 9.4217 22.662 19.999 26.427 23.505 3.7647 3.506 7.0075 6.2119 7.2062 6.0131 0.19876-0.1987 2.8053-6.6435 5.7923-14.322zm-77.57-103.95c4.6932-1.961 34.171-9.7777 44.731-11.861 6.5076-1.2841 53.559-8.5761 55.466-8.5962 0.29367-0.003-8.0161-4.5419-18.466-10.086-20.051-10.639-27.464-14.896-36.601-21.024l-5.6007-3.756-4.5243 4.6859c-6.5945 6.83-19.062 22.013-28.893 35.186-13.677 18.326-13.813 18.67-6.1122 15.452zm116.62-34.2c2.1766-7.19 8.4589-51.88 11.07-78.75 0.85523-8.8 1.7326-17.688 1.9497-19.75 0.52942-5.0295 1.0384-5.2902-15.415 7.8935-29.9 23.958-74.268 65.685-70.944 66.72 0.79405 0.24729 7.5187 2.2703 14.944 4.4956 7.425 2.2253 23.175 7.8395 35 12.476 24.975 9.7925 22.725 9.1276 23.395 6.9147zm-468.52 277.65c-95.72-10.1-127.98-144.3-52.78-219.56l10.155-10.162-3.3703-1.721c-28.02-14.31-45.27-37.36-45.33-60.58l-0.04-12.61 4.2658-8.3835c43.456-85.403 216.18-60.455 249.37 36.019 13.954 40.559-52.202 68.59-115.68 49.016-32.587-10.048-29.802-37.199 4.7918-46.724 5.3426-1.4711 4.6622-0.67953-2.5 2.9083-38.709 19.391-24.367 40.915 28.404 42.628 68.573 2.2268 95.989-25.265 65.235-65.417-40.193-52.475-102.08-72.084-163.75-51.882-70.924 23.235-75.952 74.143-10.482 106.13 10.593 5.1757 10.054 13.344-1.5278 23.155-92.8 78.58-32.13 230.98 77.37 194.28 6.325-2.118 19.12-7.3121 28.433-11.542 27.905-12.675 32.753-9.9373 13.636 7.7013-21.625 19.953-54.348 30.095-86.203 26.717zm861.63-285.56c-39.056-2.3221-70.521-7.0363-96.411-14.444-20.56-5.8831-17.308-6.873 13.256-4.0347 152.08 14.122 287.43-14.87 451.65-96.745 206.7-103.05 160.87-208.11-80.5-184.54-248.27 24.236-388.17 92.947-457.39 224.65-12.297 23.396-13.219 15.016-1.4965-13.604 44.312-108.19 147.47-177.18 322.35-215.58 218.98-48.089 350.26-29.984 373.17 51.464 17.806 63.306-54.016 127.84-213.13 191.5-115.78 46.322-219.74 66.795-311.5 61.34zm149.79-107.72c-6.2395-2.0568-13.063-6.3446-13.802-8.6726-1.7176-5.4118 3.5338-6.8127 29.622-7.902 64.3-2.685 111.34-28.836 98.73-54.887-11.74-24.251-44.495-34.995-79.835-26.186-55.368 13.801-99.442 33.435-170.4 75.909-9.2954 5.5641-17.31 10.116-17.809 10.116-1.7812 0 0.3465-1.9008 11.454-10.232 56.804-42.608 118.35-73.389 177.76-88.905 74.557-19.473 130.04 48.515 70.84 86.809-27.555 17.825-85.573 30.865-106.55 23.949zm-349.5-102.68c-16.045-4.3411-16.447-27.981-0.6118-36.059 10.736-5.477 25.187 4.7262 19.338 13.653-0.9232 1.4091-1.5701 4.5685-1.5723 7.6792-0.01 10.138-8.1799 17.154-17.154 14.727zm-341.8-13.97c0-0.56728 2.3023-6.9798 5.1163-14.25 51.16-132.18 21.26-257.19-108.63-454.22-68.09-103.29-130.92-161.13-178.36-164.2-69.19-4.487-76.24 85.84-19.78 253.2 51.759 153.42 107.8 243.53 212.41 341.57 18.83 17.646 17.105 18.932-5.2667 3.9257-91.72-61.53-169.25-171.41-224.03-317.5-67.93-181.19-64.33-285.32 10.59-306.49 72.98-20.611 163.26 60.739 266.01 239.69 93.46 162.76 111.8 291.26 56.84 398.3-7.82 15.23-14.9 24.72-14.9 19.97zm151.82-70.224c-11.851-9.9293-7.6142-22.437 8.7454-25.816 23.576-4.8695 30.796 19.741 7.8203 26.656-7.145 2.1503-13.374 1.8347-16.566-0.83927zm-223.72-100.5c-0.54013-2.0625-2.5988-12.525-4.5749-23.25-17.831-96.776-49.1-178.22-77.435-201.68-24.304-20.126-58.301-19.475-64.097 1.2267-6.5501 23.395 11.073 64.878 43.36 102.07 13.575 15.636 14.354 23.807 1.9508 20.467-34.529-9.2978-74.5-99.821-58.461-132.4 16.761-34.046 75.446-24.894 101.44 15.82 26.182 41.005 50.005 120.45 57.122 190.5 2.9348 28.884 3.1302 36.552 0.69416 27.25z"/>
</svg>
