<?xml version="1.0" encoding="UTF-8" standalone="no"?>
<svg id="svg2" xmlns:rdf="http://www.w3.org/1999/02/22-rdf-syntax-ns#" xmlns="http://www.w3.org/2000/svg" height="2806pt" width="2841pt" version="1.1" xmlns:cc="http://creativecommons.org/ns#" xmlns:xlink="http://www.w3.org/1999/xlink" viewBox="0 0 2841 2806" xmlns:dc="http://purl.org/dc/elements/1.1/">
<defs id="defs108">
<linearGradient id="linearGradient4238">
<stop id="stop4240" stop-color="#d4d7e1" offset="0"/>
<stop id="stop4242" stop-color="#7884a2" offset="1"/>
</linearGradient>
<radialGradient id="radialGradient4244" xlink:href="#linearGradient4238" gradientUnits="userSpaceOnUse" cy="2673.3" cx="1264.1" gradientTransform="matrix(1 0 0 .91889 0 216.84)" r="80.976"/>
<radialGradient id="radialGradient4246" xlink:href="#linearGradient4238" gradientUnits="userSpaceOnUse" cy="2522.7" cx="814.05" gradientTransform="matrix(1 0 0 1.0729 0 -183.95)" r="47.14"/>
<radialGradient id="radialGradient4248" xlink:href="#linearGradient4238" gradientUnits="userSpaceOnUse" cy="2575.3" cx="932.68" gradientTransform="matrix(1 0 0 1.3706 0 -954.37)" r="86.335"/>
<radialGradient id="radialGradient4250" xlink:href="#linearGradient4238" gradientUnits="userSpaceOnUse" cy="2496.8" cx="2171.4" gradientTransform="matrix(1 0 0 1.1789 0 -446.61)" r="44.608"/>
<radialGradient id="radialGradient4252" xlink:href="#linearGradient4238" gradientUnits="userSpaceOnUse" cy="2417.8" cx="2213.6" gradientTransform="matrix(1 0 0 .76535 0 567.36)" r="36.35"/>
<radialGradient id="radialGradient4254" xlink:href="#linearGradient4238" gradientUnits="userSpaceOnUse" cy="2552.5" cx="1785.8" gradientTransform="matrix(1 0 0 .63595 0 929.25)" r="314.58"/>
<radialGradient id="radialGradient4256" xlink:href="#linearGradient4238" gradientUnits="userSpaceOnUse" cy="2507" cx="1471" gradientTransform="matrix(1 0 0 .99152 0 21.256)" r="216.7"/>
<radialGradient id="radialGradient4258" xlink:href="#linearGradient4238" gradientUnits="userSpaceOnUse" cy="2351.2" cx="815.77" gradientTransform="matrix(1 0 0 .98811 0 27.96)" r="69.628"/>
<radialGradient id="radialGradient4260" xlink:href="#linearGradient4238" gradientUnits="userSpaceOnUse" cy="2293.8" cx="660.92" gradientTransform="matrix(1 0 0 1.4754 0 -1090.4)" r="45.056"/>
<radialGradient id="radialGradient4262" xlink:href="#linearGradient4238" gradientUnits="userSpaceOnUse" cy="2310.8" cx="998.34" gradientTransform="matrix(1 0 0 1.6083 0 -1405.7)" r="59.129"/>
<radialGradient id="radialGradient4264" xlink:href="#linearGradient4238" gradientUnits="userSpaceOnUse" cy="2290.5" cx="1854.3" gradientTransform="matrix(1 0 0 .54661 0 1038.5)" r="150.82"/>
<radialGradient id="radialGradient4266" xlink:href="#linearGradient4238" gradientUnits="userSpaceOnUse" cy="2203.5" cx="821.01" gradientTransform="matrix(1 0 0 .95877 0 90.852)" r="36.996"/>
<radialGradient id="radialGradient4268" xlink:href="#linearGradient4238" gradientUnits="userSpaceOnUse" cy="2244.8" cx="1513.9" gradientTransform="matrix(1 0 0 .42597 0 1288.6)" r="248.28"/>
<radialGradient id="radialGradient4270" xlink:href="#linearGradient4238" gradientUnits="userSpaceOnUse" cy="2201.3" cx="1985.6" gradientTransform="matrix(1 0 0 .98680 0 29.06)" r="101.17"/>
<radialGradient id="radialGradient4272" xlink:href="#linearGradient4238" gradientUnits="userSpaceOnUse" cy="2387.3" cx="1125.3" gradientTransform="matrix(1 0 0 2.3041 0 -3113.3)" r="135.51"/>
<radialGradient id="radialGradient4274" xlink:href="#linearGradient4238" gradientUnits="userSpaceOnUse" cy="2125.7" cx="1260.3" gradientTransform="matrix(1 0 0 1.2226 0 -473.12)" r="50.3"/>
<radialGradient id="radialGradient4276" xlink:href="#linearGradient4238" gradientUnits="userSpaceOnUse" cy="2139.1" cx="956.21" gradientTransform="matrix(1 0 0 .97601 0 51.31)" r="86.738"/>
<radialGradient id="radialGradient4278" xlink:href="#linearGradient4238" gradientUnits="userSpaceOnUse" cy="2130" cx="698.39" gradientTransform="matrix(1 0 0 1.0123 0 -26.237)" r="85.675"/>
<radialGradient id="radialGradient4280" xlink:href="#linearGradient4238" gradientUnits="userSpaceOnUse" cy="2088.3" cx="2555" gradientTransform="matrix(1 0 0 1.2534 0 -529.19)" r="39.851"/>
<radialGradient id="radialGradient4282" xlink:href="#linearGradient4238" gradientUnits="userSpaceOnUse" cy="2066.7" cx="1080.7" gradientTransform="matrix(1 0 0 .91401 0 177.72)" r="36.809"/>
<radialGradient id="radialGradient4284" xlink:href="#linearGradient4238" gradientUnits="userSpaceOnUse" cy="2303.1" cx="549.83" gradientTransform="matrix(1 0 0 1.424 0 -976.59)" r="199.19"/>
<radialGradient id="radialGradient4286" xlink:href="#linearGradient4238" gradientUnits="userSpaceOnUse" cy="2054" cx="559.38" gradientTransform="matrix(1 0 0 .93981 0 123.62)" r="53.01"/>
<radialGradient id="radialGradient4288" xlink:href="#linearGradient4238" gradientUnits="userSpaceOnUse" cy="2217.3" cx="2277.8" gradientTransform="matrix(1 0 0 1.0078 0 -17.213)" r="219.31"/>
<radialGradient id="radialGradient4290" xlink:href="#linearGradient4238" gradientUnits="userSpaceOnUse" cy="2035.7" cx="828.59" gradientTransform="matrix(1 0 0 .49355 0 1031)" r="87.311"/>
<radialGradient id="radialGradient4292" xlink:href="#linearGradient4238" gradientUnits="userSpaceOnUse" cy="1923.7" cx="2370.7" gradientTransform="matrix(1 0 0 .79392 0 396.44)" r="55.125"/>
<radialGradient id="radialGradient4294" xlink:href="#linearGradient4238" gradientUnits="userSpaceOnUse" cy="1872.5" cx="643.82" gradientTransform="matrix(1 0 0 .83085 0 316.73)" r="126.05"/>
<radialGradient id="radialGradient4296" xlink:href="#linearGradient4238" gradientUnits="userSpaceOnUse" cy="1842" cx="906.3" gradientTransform="matrix(1 0 0 .85128 0 273.94)" r="177.13"/>
<radialGradient id="radialGradient4298" xlink:href="#linearGradient4238" gradientUnits="userSpaceOnUse" cy="1820" cx="2556.3" gradientTransform="matrix(1 0 0 1.7666 0 -1395.3)" r="106.49"/>
<radialGradient id="radialGradient4300" xlink:href="#linearGradient4238" gradientUnits="userSpaceOnUse" cy="1624.7" cx="826.26" gradientTransform="matrix(1 0 0 1.2961 0 -481.16)" r="32.985"/>
<radialGradient id="radialGradient4302" xlink:href="#linearGradient4238" gradientUnits="userSpaceOnUse" cy="1622.4" cx="2711.1" gradientTransform="matrix(1 0 0 2.5049 0 -2441.6)" r="92.802"/>
<radialGradient id="radialGradient4304" xlink:href="#linearGradient4238" gradientUnits="userSpaceOnUse" cy="1599" cx="672.06" gradientTransform="matrix(1 0 0 1.9463 0 -1513.2)" r="122.17"/>
<radialGradient id="radialGradient4306" xlink:href="#linearGradient4238" gradientUnits="userSpaceOnUse" cy="1731.6" cx="336.43" gradientTransform="matrix(1 0 0 1.9978 0 -1727.8)" r="221.52"/>
<radialGradient id="radialGradient4308" xlink:href="#linearGradient4238" gradientUnits="userSpaceOnUse" cy="1364.8" cx="2718.5" gradientTransform="matrix(1 0 0 1.6392 0 -872.41)" r="61.419"/>
<radialGradient id="radialGradient4310" xlink:href="#linearGradient4238" gradientUnits="userSpaceOnUse" cy="1171.6" cx="2741.1" gradientTransform="matrix(1 0 0 2.4008 0 -1641.2)" r="45.037"/>
<radialGradient id="radialGradient4312" xlink:href="#linearGradient4238" gradientUnits="userSpaceOnUse" cy="1314.4" cx="191.89" gradientTransform="matrix(1 0 0 1.8435 0 -1108.7)" r="143.02"/>
<radialGradient id="radialGradient4314" xlink:href="#linearGradient4238" gradientUnits="userSpaceOnUse" cy="1056.9" cx="2487.9" gradientTransform="matrix(1 0 0 .82495 0 185)" r="185.75"/>
<radialGradient id="radialGradient4316" xlink:href="#linearGradient4238" gradientUnits="userSpaceOnUse" cy="1075.1" cx="356.79" gradientTransform="matrix(1 0 0 1.0527 0 -56.685)" r="225.05"/>
<radialGradient id="radialGradient4318" xlink:href="#linearGradient4238" gradientUnits="userSpaceOnUse" cy="1126.2" cx="655.54" gradientTransform="matrix(1 0 0 1.8065 0 -908.34)" r="163.31"/>
<radialGradient id="radialGradient4320" xlink:href="#linearGradient4238" gradientUnits="userSpaceOnUse" cy="720.5" cx="337.5" gradientTransform="matrix(1 0 0 .87723 0 88.46)" r="184.3"/>
<radialGradient id="radialGradient4322" xlink:href="#linearGradient4238" gradientUnits="userSpaceOnUse" cy="642.31" cx="950.39" gradientTransform="matrix(1 0 0 1.0241 0 -15.482)" r="106.37"/>
<radialGradient id="radialGradient4324" xlink:href="#linearGradient4238" gradientUnits="userSpaceOnUse" cy="661.85" cx="640.31" gradientTransform="matrix(1 0 0 .88777 0 74.281)" r="236.07"/>
<radialGradient id="radialGradient4326" xlink:href="#linearGradient4238" gradientUnits="userSpaceOnUse" cy="557.74" cx="2201.4" gradientTransform="matrix(1 0 0 1.4546 0 -253.54)" r="150.73"/>
<radialGradient id="radialGradient4328" xlink:href="#linearGradient4238" gradientUnits="userSpaceOnUse" cy="370.08" cx="1243.2" gradientTransform="matrix(1 0 0 1.0443 0 -16.393)" r="65.961"/>
<radialGradient id="radialGradient4330" xlink:href="#linearGradient4238" gradientUnits="userSpaceOnUse" cy="344.18" cx="650.42" gradientTransform="matrix(1 0 0 .94855 0 17.709)" r="108.44"/>
<radialGradient id="radialGradient4332" xlink:href="#linearGradient4238" gradientUnits="userSpaceOnUse" cy="241.44" cx="2100.6" gradientTransform="matrix(1 0 0 0.692 0 74.362)" r="109.33"/>
<radialGradient id="radialGradient4334" xlink:href="#linearGradient4238" gradientUnits="userSpaceOnUse" cy="334.75" cx="969.1" gradientTransform="matrix(1 0 0 .94543 0 18.269)" r="200.29"/>
<radialGradient id="radialGradient4336" xlink:href="#linearGradient4238" gradientUnits="userSpaceOnUse" cy="210.5" cx="1879.1" gradientTransform="matrix(1 0 0 .50832 0 103.5)" r="141.88"/>
<radialGradient id="radialGradient4338" xlink:href="#linearGradient4238" gradientUnits="userSpaceOnUse" cy="134.82" cx="1168.2" gradientTransform="matrix(1 0 0 .68947 0 41.867)" r="107.1"/>
<radialGradient id="radialGradient4340" xlink:href="#linearGradient4238" gradientUnits="userSpaceOnUse" cy="191.55" cx="1420.8" gradientTransform="matrix(1 0 0 .66690 0 63.805)" r="200.01"/>
<radialGradient id="radialGradient4342" xlink:href="#linearGradient4238" gradientUnits="userSpaceOnUse" cy="143.71" cx="1661.6" gradientTransform="matrix(1 0 0 .47879 0 74.905)" r="187.36"/>
</defs>
<g>
<path id="path6" d="m1480.1 49.594c-7.4934-0.18362-12.864 9.0888-8.1172 15.24 4.8998 6.1843 11.109 11.22 15.934 17.52 31.552 34.652 60.943 71.227 91.919 106.35 17.238 16.421 35.495 32.461 56.802 43.378 25 10.666 54.198 4.2941 76.305-10.18 51.329-29.822 89.752-77.362 141.41-106.53-4.6405-12.067-18.479-15.321-29.742-17.857-110.35-33.429-226.22-48.057-341.46-47.582-0.9929-0.26472-2.0244-0.37336-3.0508-0.33594z" fill="url(#radialGradient4342)"/>
<path id="path8" d="m1373.1 54.189c-41.283 1.9062-77.828 26.112-106.27 54.488-17.633 16.484-33.805 35.484-41.726 58.661-16.441 43.898-8.8567 98.002 25.02 131.75 28.924 28.413 73.523 35.652 111.84 25.618 19.125-4.933 38.082-13.238 52.482-27.013 14.613-16.889 13.258-41.468 7.4864-61.654-3.6512-14.723-15.007-26.618-29.086-31.934-6.6187-3.157-14.638-4.015-20.748-7.4551-1.9414-3.8147 1.8527-7.3333 5.6191-6.4199 24.167-4.3338 47.022 13.083 57.701 33.398 9.6998 16.247 9.2944 36.252 5.3086 54.174-1.974 10.98-4.1349 21.987-4.4961 33.17 63.212-6.3246 119.92-39.684 182.87-47.227 8.1893-3.1858 6.798-16.046-0.8438-19.027-52.868-38.583-90.678-92.815-133.48-141.46-29.055-29.726-69.529-49.978-111.68-49.068z" fill="url(#radialGradient4340)"/>
<path id="path10" d="m1270.5 56.99c-77.825 4.6259-149.96 37.246-223.95 58.33 47.692 11.259 94.486 35.137 123.02 76.283 5.0663 6.1109 7.3533 13.877 12.121 20.125 5.2982 3.5888 11.516-3.5638 9.002-8.7598 5.9227-46.364 33.782-86.932 66.418-119.29 8.6619-8.6546 17.831-16.777 27.086-24.787-4.5479-0.66409-9.0646-2.044-13.699-1.9023z" fill="url(#radialGradient4338)"/>
<path id="path12" d="m1885.6 134.39c-30.888-0.40738-58.985 17.109-79.672 38.813-23.697 22.771-45.813 47.576-73.221 66.096 1.2269 5.5802 3.1298 15.125 10.947 13.578 36.536-0.96646 73.233-2.5181 109.37 3.0133 53.626 5.4835 108.16 10.698 158.7 30.57 6.9044 1.8864 15.199-4.1074 13.024-11.668-2.0863-10.357-12.195-16.126-16.619-25.32-18.071-26.715-27.05-59.112-48.801-83.403-18.905-19.95-46.119-32.18-73.73-31.68z" fill="url(#radialGradient4336)"/>
<path id="path14" d="m971.34 140.46c-41.883 10.637-80.786 29.894-120.1 47.342-2.6928 9.1397 6.0027 16.008 13.469 19.039 4.5006 2.1033-2.226 1.0908-3.7383 1.6504-26.636 2.4146-52.91 16.05-67.186 39.18-50.193 70.204-32.758 177.06 34.244 230.33 44.553 39.138 106.49 56.34 165.01 48.396 25.873-2.9664 51.621-8.0946 76.394-16.104 17.77-8.612 31.114-23.741 45.467-36.855 46.006-47.707 67.954-118.08 54.719-183.31-5.9556-48.67-31.716-96.964-75.076-121.91-21.047-11.402-46.04-20.353-69.988-13.018-33.873 9.0612-61.774 42.346-58.659 78.293 1.332 20.159 11.59 38.552 24.012 53.889-3.1058 3.2009-8.825 0.13509-12.207-1.5508-26.02-13.506-38.459-44.932-35.4-72.984 1.8915-23.418 16.874-42.553 28.174-62.262 1.7865-3.6383 3.2215-7.4325 4.752-11.182-1.2956 0.35156-2.5912 0.70313-3.8867 1.0547z" fill="url(#radialGradient4334)"/>
<path id="path16" d="m1985.5 163.53c25.498 44.95 40.848 96.763 77.33 134.75 18.35 17.935 45.27 25.709 70.486 22.072 24.657-1.2889 49.658 1.1133 74.248-1.5645 7.3815-2.5918 8.5725-13.983 1.389-17.606-41.436-40.625-89.164-74.043-136.55-107.23-27.328-16.876-58.377-26.232-89.155-34.561 0.7513 1.3796 1.5026 2.7591 2.2539 4.1387z" fill="url(#radialGradient4332)"/>
<path id="path18" d="m749 237.57c-25.836 15.065-50.386 32.247-75.414 48.605-46.155 31.186-91.913 63.416-134.25 99.584-4.8989 7.9041 3.427 19.861 12.562 16.854 51.094-1.8503 104.63-0.66463 151.22 22.817 20.084 11.804 41.448 21.355 63.583 28.623-33.27-63.395-40.546-141.68-12.738-208.58 2.0539-3.683-0.20144-9.2929-4.9609-7.9023z" fill="url(#radialGradient4330)"/>
<path id="path20" d="m1209.1 297.2c-9.4408 0.79815-12.314 11.96-11.248 19.873 1.5272 39.515-9.2348 78.64-24.394 114.89-1.8877 5.415 3.5365 13.604 9.3633 9.8828 14.302-9.7616 27.893-20.598 42.852-29.426 27.551-17.351 56.904-31.737 85.09-47.85 6.1664-6.8613-0.8204-18.042-9.3529-17.938-29.222-7.6891-61.402-16.706-79.747-42.619-3.0916-3.7715-7.4325-7.0757-12.562-6.8106z" fill="url(#radialGradient4328)"/>
<path id="path22" d="m2139.9 334.47c-6.5291-0.3286-13.233 9.1344-7.0781 13.863 36.402 31.256 71.715 64.445 100.5 103.07 25.033 30.211 51.203 62.846 58.439 102.31 5.4705 41.374-3.4939 85.032-26.068 120.56-11.655 17.062-26.75 32.315-44.231 43.159-22.958 12.171-52.277 11.987-74.969-0.53729-16.388-11.464-25.32-30.332-38.877-44.734-13.862-20.585-14.63-48.822-2.8984-70.492 14.489-22.613 44.884-29.144 69.56-22.07 3.5011 0.19839 13.172 6.2359 8.6337-0.61702-7.7748-19.904-28.155-33.958-49.622-33.473-32.509-0.90629-64.446 19.919-76.107 50.408-21.549 48.362-9.2763 110.02 30.699 145.19 16.422 17.014 35.178 35.392 59.88 38.118 35.293 6.0748 74.202-2.7569 100.23-28.25 26.849-21.265 54.182-43.078 73.164-72.057 29.738-43.8 41.11-99.234 31.928-151.3-7.2042-52.689-37.003-98.664-68.48-140.16-15.217-21.089-33.803-42.816-60.1-49.391-11.793-3.3328-23.978-1.0272-35.904-0.41601-16.152-0.0786-32.398-3.441-48.699-3.1836z" fill="url(#radialGradient4326)"/>
<path id="path24" d="m538.98 448.29c-77.724 0.54936-145.74 76.034-138.26 153.38 5.8603 65.794 55.918 126.49 121 140.88 65.752 14.798 139.46-12.669 178.22-68.07 22.214-38.782 14.766-90.87-14.355-124.03-20.027-20.638-49.859-25.74-76.977-30.256-7.0559-0.71553-15.08 3.5049-21.207-0.16602 2.1987-4.7964 8.7196-5.6957 12.842-8.3887 34.439-13.845 73.753-0.75276 101.58 21.947 17.727 14.684 26.959 36.882 33.536 58.354 12.657 45.034 4.426 95.535-23.76 133.25-12.959 18.194-30.405 33.009-48.769 45.563-5.6211 7.4516 3.4038 18.925 12.027 16.322 60.002 1.6769 118.59 34.037 151.99 84.242 6.9067 7.5619 22.101 4.1425 23.345-6.5649 10.56-38.85 32.206-76.082 30.03-117.54-5.4688-81.53-42.923-158.43-95.361-220.08-43.415-48.218-108.01-74.727-172.43-75.88-24.444-1.7097-48.931-3.1312-73.445-2.9573z" fill="url(#radialGradient4324)"/>
<path id="path26" d="m846.82 529.43c-7.8528 0.85338-8.2541 11.235-4.3848 16.383 24.212 50.637 58.869 97.958 66.745 154.69 2.2596 12.365 1.4374 24.938 1.7239 37.321 0.80175 7.7482 4.7502 15.179 11.168 19.713 39.925-68.855 87.079-133.24 137.81-194.43 4.1994-7.9203-5.6593-18.605-13.627-13.654-54.12 11.821-112.44 11.472-163.96-10.817-11.409-4.3689-23.185-8.5438-35.482-9.214z" fill="url(#radialGradient4322)"/>
<path id="path28" d="m355.36 552.3c-70.621 97.008-146.64 192.09-195.23 302.74-5.2239 11.791-9.9241 23.8-14.648 35.797 76.853-43.318 164.86-58.732 251.13-71.177 42.124-6.3054 84.523-11.663 126.19-20.382 4.53-2.2076 3.2513-9.4438-1.8323-9.9192-57.054-25.54-108.77-67.795-135.49-125.41-16.938-36.232-23.25-76.335-27.041-115.85-1.0234 1.3991-2.0469 2.7982-3.0703 4.1973z" fill="url(#radialGradient4320)"/>
<path id="path30" d="m667.26 827.21c-34.218-0.53945-68.088 12.469-93.809 34.914-77.328 60.989-106.86 174.99-68.45 265.76 40.064 100.56 115.39 183.39 201.76 246.88 24.802 18.113 50.28 35.622 77.266 50.254 9.6152 2.3078 16.42-9.8325 12.619-17.986-9.193-46.794-8.1747-95.018-8.7041-142.74 0.22952-59.321 0.28773-119.41 15.913-176.97 9.0494-31.331 13.505-63.731 20.562-95.527-31.387 14.571-63.786 33.441-99.217 31.93-22.239 0.385-41.442-16-49.119-36.059-5.596-14.087-6.5863-30.844-0.13086-44.945-2.5324 30.775 18.137 63.718 49.246 70.106 30.308 4.2776 59.918-14.443 75.025-39.969 15.799-25.318 19.775-60.327 2.5566-85.96-24.501-33.954-65.592-52.368-106.23-57.896-9.7034-1.3108-19.503-1.8937-29.294-1.7846z" fill="url(#radialGradient4318)"/>
<path id="path32" d="m522.46 834.22c-36.797 4.8518-73.093 12.736-109.79 18.346-40.199 6.9759-80.77 11.665-120.89 19.129-39.531 8.1227-78.859 18.845-115.63 35.662-18.867 10.166-32.494 28.146-39.492 48.178-19.218 44.873-6.4847 100.7 29.562 133.43 38.646 39.673 83.797 73.476 134.53 96.078 75.628 36.362 152.08 71.049 225.74 111.25 20.536 10.597 42.515 19.194 65.699 21.361-42.95-46.301-77.081-99.958-105.37-156.23-24.257-50.538-36.23-107.88-27.108-163.45 7.8354-53.31 31.913-103.61 65.652-145.53 3.6227-5.1231 6.7736-10.568 9.5323-16.201-4.0615-1.0868-8.2043-2.1034-12.439-2.0254z" fill="url(#radialGradient4316)"/>
<path id="path34" d="m2501.3 899.64c-49.596 0.67462-95.782 22.954-136.83 49.044-23.692 13.531-50.287 27.336-62.711 53.06-13.434 26.642-15.795 57.228-16.374 86.56 4.2291 34.277 27.604 62.21 51.928 85.016 16.772 16.044 35.085 32.794 58.622 37.47 29.902 7.0223 61.722 2.3137 89.982-8.8485 25.664-13.314 38.992-41.663 45.223-68.629 4.3775-19.246 10.404-39.94 4.2126-59.455-3.5666-9.3306-11.816-16.324-21.277-19.219 4.6297 34.659-2.6933 73.225-28.6 98.504-13.887 13.226-33.566 16.86-52.002 17.521-20.465 1.4376-43.802-0.3772-59.414-15.638-14.347-16.343-25.39-36.654-26.643-58.543-3.0054-43.573 19.914-87.668 56.09-111.85 28.341-19.227 64.792-20.562 97.73-16.896 23.273 2.4954 46.679 8.3312 66.254 21.752 30.392 19.697 51.95 51.312 62.385 85.809 7.9833 22.312 17.286 45.878 36.484 60.996 9.5046-39.716 17.584-82.528 4.1308-122.35-9.897-27.365-30.297-49.379-51.525-68.574-32.496-27.894-74.356-46.401-117.67-45.734z" fill="url(#radialGradient4314)"/>
<path id="path36" d="m98.693 1046.8c-7.7204 0.529-8.5071 9.8873-11.779 15.127-19.412 45.05-21.421 94.816-30.724 142.36-14.608 96.242-11.454 193.94-10.129 290.93 2.0027 33.32 12.48 66.727 33.298 93.162 11.7-75.602 27.4-151.83 61.408-220.9 20.128-39.27 52.402-72.947 93.115-90.889 30.725-14.032 64.088-21.905 97.252-26.871 7.5884 0.4561 10.57-10.602 4.4531-14.672-6.8182-5.5509-15.637-7.8463-22.867-12.825-45.149-24.497-88.325-53.047-125.87-88.255-29.255-24.907-59.45-50.102-79.853-83.158-2.0964-2.3464-5.0625-4.1589-8.3047-4.0136z" fill="url(#radialGradient4312)"/>
<path id="path38" d="m2704.5 1058.7c-10.466 44.112-18.343 90.986-6.7617 135.7 11.124 37.323 38.661 68.436 71.85 88.014 7.5171 3.4208 19.435 0.3833 20.478-8.8613-10.166-54.956-28.664-107.96-48.735-159.97-8.9947-21.166-20.252-41.68-35.939-58.67-0.2976 1.2643-0.5951 2.5286-0.8926 3.7929z" fill="url(#radialGradient4310)"/>
<path id="path40" d="m2691.6 1260.2c-6.9661 2.162-7.4391 10.491-6.4655 16.498 0.7371 62.225-12.648 123.77-32.042 182.67-0.8339 8.2019 11.102 13.826 16.396 7.0801 36.508-24.799 76.293-48.932 99.58-87.77 8.2445-15.535 18.876-33.144 13.398-51.402-2.6217-10.312-10.442-18.335-19.719-23.069-22.998-15.428-44.413-33.872-70.294-44.47l-0.8535 0.4649z" fill="url(#radialGradient4308)"/>
<path id="path42" d="m369.09 1285.1c-83.218-0.7055-165.58 48.448-201.72 123.89-37.927 74.537-54.503 158.49-55.74 241.71-6.1014 74.096 27.757 147.35 79.995 198.67 35.75 38.594 104.13 38.855 139.96 0.2302 23.904-25.174 34.742-59.066 48.869-89.975 13.716-38.012 8.107-83.714-17.865-115.24-16.297-15.986-44.093-13.531-60.797 0.5293 0.95924-12.462 8.2985-26.138 21.641-28.348 26.656-7.4815 55.973 8.3583 67.556 32.836 27.173 47.412 23.865 109.99-8.6444 154-19.668 27.235-46.206 48.676-71.712 70.251-25.282 18.8-59.852 25.694-89.664 14.461-30.24-10.244-54.552-32.621-75.602-55.854-6.7946-3.6011-14.409 3.4755-13.635 10.52-1.3217 11.087 2.5755 21.829 7.7891 31.402 23.292 53.882 41.851 110.15 72.432 160.59 27.249 47.225 57.726 92.53 86.172 138.99 6.9839 7.6309 21.898 4.8957 24.295-5.5977 6.0595-11.809 7.4889-25.143 8.8613-38.113 7.441-36.115 32.217-64.864 51.87-94.946 56.729-81.727 116.43-163.75 149.41-258.61 45.838-132.09 37.702-281.94-21.823-408.4-17.46-34.94-47.315-65.679-85.865-76.078-18.07-5.2901-36.996-7.1077-55.773-6.9199z" fill="url(#radialGradient4306)"/>
<path id="path44" d="m568.18 1357.2c-7.7445 0.4232-8.5241 10.404-4.8594 15.527 15.522 35.693 17.227 75.018 25.887 112.6 18.038 103.31 5.1186 210.9-32.191 308.59-5.0782 16.868-8.717 34.085-13.429 51.038 75.61-40.54 133.59-106.07 185.16-173.22 28.735-37.068 58.867-76.142 68.245-123.23 5.9208-33.06-8.6507-68.476-35.723-88.242-55.994-47.538-122.92-80.814-192.59-103.17l-0.49805 0.092z" fill="url(#radialGradient4304)"/>
<path id="path46" d="m2795.8 1386c-7.4381 1.0319-9.2623 9.9325-14.372 14.23-30.38 37.561-68.347 68.335-107.75 96.048-39.894 32.058-64.175 84.066-58.815 135.46 3.0583 71.105 31.247 138.03 62.327 200.99 5.1772 8.502 7.0333 20.273 16.024 25.818 6.3968 1.998 10.361-4.9324 12.257-9.8795 21.364-40.355 33.288-84.741 48.901-127.4 28.762-87.37 48.038-178.2 53.555-270.11 0.079-19.452-2.2437-38.937-2.7032-58.262-1.0337-4.1346-5.2473-6.9651-9.4218-6.8964z" fill="url(#radialGradient4302)"/>
<path id="path48" d="m825.82 1578c-7.4024 0.8802-7.438 10.165-10.871 15.074-7.6142 17.821-16.25 35.214-25.09 52.42-2.3963 6.4254 1.8084 15.208 9.4428 14.498 18.051 1.3035 36.083 3.8315 52.544 11.475 7.865 1.693 15.156-8.5096 9.373-14.924-13.128-23.235-13.063-52.038-27.479-74.832-1.9839-2.2422-4.8644-3.836-7.9199-3.7109z" fill="url(#radialGradient4300)"/>
<path id="path50" d="m2581 1627.4c-12.051 6.8005-15.243 21.232-22.789 31.845-22.676 39.068-48.267 76.394-74.303 113.25-2.7441 5.5004 0.7482 13.912 7.6536 13.152 20.551 0.8901 43.555-2.2106 61.241 10.693 16.982 15.554 28.654 39.138 26.332 62.629-1.649 10.408-6.3545 21.724-15.598 27.395-2.6701 1.0511-8.3715-0.1656-5.289-4.0625 7.3577-19.127 5.4669-44.518-11.966-57.668-24.589-19.462-65.547-13.629-81.993 13.693-25.447 34.603-23.296 83.974-1.5695 119.84 13.849 24.123 36.338 44.226 63.919 50.568 34.151 8.4793 72.258 0.9673 100.3-20.356 19.308-16.722 31.63-40.681 37.146-65.404 5.8392-26.857 1.8848-55.546-10.91-79.865-13.106-27.653-28.158-54.566-36.182-84.3-12.445-37.58-22.546-75.997-26.456-115.43-1.2842-6.2535-4.0188-12.17-7.8769-17.252-0.5547 0.4219-1.1094 0.8437-1.6641 1.2656z" fill="url(#radialGradient4298)"/>
<path id="path52" d="m806.36 1687.2c-37.285 1.8351-71.061 31.526-77.512 68.356-9.7801 43.43 0.46213 91.062 27.273 126.59 21.446 26.226 59.916 39.586 92.064 26.279 29.1-11.104 51.107-42.713 45.703-74.314-3.4771-20.635-20.015-40.563-41.84-42.039-6.489-0.3776-13.793 1.996-19.076 3.9981 13.225-13.641 37.596-18.625 52.24-4.6231 38.024 33.759 34.582 101.17-6.0879 131.48-5.6107 2.8624-12.206 7.5836-10.809 14.848 0.99618 7.2663 9.0787 9.6833 15.359 9.6152 38.321 6.5131 71.287 28.267 104.01 47.793 13.49 4.8856 26.858-3.6282 40.447-3.0765 18.253-1.9685 37.375-1.106 55.163-6.0563 7.2557-5.0694 3.9296-16.593-3.3881-19.847-70.148-57.324-126.04-130.89-168.03-210.76-20.769-30.724-50.206-58.819-87.597-66.631-5.8961-1.1438-11.91-1.7011-17.916-1.6055z" fill="url(#radialGradient4296)"/>
<path id="path54" d="m688.11 1763.8c-8.428 0.8319-11.093 10.456-17.119 15.03-49.011 54.576-104.77 102.8-155.73 155.55-4.3824 6.7212 0.79785 17.956 9.5156 16.354 41.296 0.1854 83.015 8.8124 120.14 27.238 10.878 4.6485 24.21 4.5747 33.865-2.8555 28.93-15.016 60.294-24.786 91.518-33.338 6.7106-4.1761 2.4023-13.43-3.1074-16.523-37.619-24.939-59.223-68.694-65.861-112.27-2.6436-13.574-1.8291-27.331-2.8929-40.982-1.4499-4.4152-5.4723-8.2815-10.334-8.2012z" fill="url(#radialGradient4294)"/>
<path id="path56" d="m2401.6 1876c-8.6136 2.5297-14.603 9.9412-21.758 14.945-26.249 22.434-47.748 49.947-75.402 70.75 39.404-0.1859 78.97 1.1732 117.49 9.7403 8.7259-1.0161 9.7185-12.667 5.8184-18.832-10.316-22.774-14.272-47.617-18.434-72.008-1.4344-2.7914-4.4934-4.9698-7.7168-4.5957z" fill="url(#radialGradient4292)"/>
<path id="path58" d="m815.87 1988.6c-25.815 1.2929-51.941 6.3599-75.324 17.523-6.0277 5.0291-2.834 15.124 3.9077 17.827 25.586 19.091 50.9 38.634 76.797 57.251 8.3563 4.1067 17.844-0.3976 23.598-6.7735 22.462-17.8 47.947-31.376 72.818-45.424 5.4556-6.0096 0.18935-16.121-7.4813-16.625-30.108-12.061-61.367-24.111-94.316-23.779z" fill="url(#radialGradient4290)"/>
<path id="path60" d="m2335 1992.3c-47.938 1.0353-91.872 23.559-132.36 47.223-37.712 21.261-71.474 49.929-96.485 85.428-27.262 38.093-46.174 82.811-51.411 129.52-2.4157 39.77 11.533 82.805 44.263 107.37 34.037 24.937 84.623 29.323 119.54 3.7493 17.369-12.751 34.485-30.487 35.774-53.198 1.6189-20.019-9.1141-40.048-26.555-49.969-15.665-9.7357-35.092-10.205-52.576-5.9238 13.354-12.822 33.678-18.175 51.238-10.94 28.902 9.294 50.864 37.106 51.631 67.695 5.493 45.306 3.6668 91.572-6.0005 136.36 58.562-54.651 117.79-109.43 166.27-173.53-41.678 13.408-91.52 7.4615-125.1-22.48-18.79-16.6-31.493-42.296-26.125-67.736 4.1478-23.335 19.478-46.327 41.951-56.195 3.2368 0.4601 3.8459 6.0805 0.1075 6.2949-16.49 10.062-30.128 28.487-27.43 48.648 2.7743 30.819 30.886 56.288 61.604 57.348 34.623 4.3172 73.026-1.4221 99.574-25.736 47.621-43.826 51.523-126.54 7.3164-174.09-19.476-20.233-46.086-31.632-72.261-40.446-20.354-6.2772-41.658-9.5894-62.97-9.3901z" fill="url(#radialGradient4288)"/>
<path id="path62" d="m541.6 2000.2c-11.957 1.4828-26.169-0.4053-35.959 8.0606-6.6411 7.8305-1.3411 18.32 1.6942 26.416 10.176 27.03 25.651 52.584 47.026 72.16 8.3452 3.6879 15.219-5.0898 17.744-12.052 11.601-23.569 26.397-45.424 43.254-65.413 3.5094-6.8886-1.9141-15.559-9.39-16.313-20.495-7.8944-42.275-13.343-64.37-12.859z" fill="url(#radialGradient4286)"/>
<path id="path64" d="m449.01 2015.5c-13.711 4.3567-21.11 18.173-31.562 27.115-29.656 33.751-58.986 71-68.533 115.96-10.332 54.163 15.515 112.63 60.943 143.28 24.283 15.57 57.068 21.231 83.477 7.6621 21.72-11.798 36.119-39.518 26.988-63.623-11.682-27.944-47.595-43.357-75.545-31.162 5.0178-8.2922 14.991-10.729 24.086-10.176 24.26-0.2503 50.73 10.876 61.996 33.598 10.013 23.474 1.8397 50.685-12.006 70.857-13.933 19.779-38.219 34.482-63.07 30.076-7.3773-1.7185-15.531 5.5834-12.617 13.131 3.6246 8.1685 11.206 13.774 16.403 20.911 63.134 72.427 141.56 129.1 219.41 184.48 19.511 12.279 40.397 22.253 60.894 32.682 5.5621 1.9814 14.217-1.1294 13.066-8.1621-3.869-12.376-10.556-23.671-14.212-36.158-10.767-29.937-17.333-61.2-27.747-91.227-5.7132-13.298-18.041-21.62-29.418-29.642-62.567-49.268-101.94-123.87-116.33-201.3-5.7298-28.793-12.325-59.97-34.421-81.087-12.491-12.156-24.155-25.073-32.774-40.334-16.034-26.113-25.795-55.525-40.807-82.223-1.9031-2.5948-4.8461-4.8456-8.2227-4.6543z" fill="url(#radialGradient4284)"/>
<path id="path66" d="m1068.3 2029.1c-9.1481 0.5184-21.581-1.4976-27.262 7.6777-4.0221 7.7704 4.0085 14.225 8.045 19.875 10.99 15.381 19.286 32.953 32.639 46.516 8.3297 4.1966 15.756-4.3103 19.369-10.91 8.8217-12.739 22.046-26 20.148-42.871-1.4933-10.628-11.311-19.827-22.307-18.882-10.184-0.8939-20.406-1.4787-30.632-1.405z" fill="url(#radialGradient4282)"/>
<path id="path68" d="m2518.8 2034.4c-8.6102 0.8957-9.4969 12.317-5.1289 18.064 16.242 29.355 19.228 63.76 18.582 96.709 26.62-30.866 50.815-64.56 66.398-102.41 1.2165-9.4324-10.753-14.058-18.2-10.537-20.213 3.7514-41.168 0.3424-61.651-1.8225z" fill="url(#radialGradient4280)"/>
<path id="path70" d="m676.03 2039.3c-15.987 6.288-27.66 20.292-37.346 33.989-13.567 20.382-22.914 43.42-29.339 66.962-2.27 10.285 0.62114 23.407 11.298 27.694 32.032 16.845 60.501 41.49 95.454 52.656 11.014 1.8398 20.58-7.4146 22.93-17.592 11.842-26.4 29.056-50.323 47.695-72.345 4.0327-7.7382-1.2813-16.67-8.3732-20.313-30.154-24.509-59.47-50.862-93.855-69.381-2.6841-1.0649-5.5591-1.7726-8.4636-1.6698z" fill="url(#radialGradient4278)"/>
<path id="path72" d="m967.4 2050.5c-21.957 4.9418-41.094 17.942-59.19 30.796-13.957 10.604-27.984 21.434-40.55 33.585-5.1495 8.0808-0.39924 18.122 5.9823 23.901 19.418 25.294 32.431 54.775 43.27 84.513 5.8036 7.7894 16.802 3.8014 23.718-0.098 35.984-17.883 69.968-39.813 101.72-64.347 8.3306-10.165 3.6002-24.407-1.4883-34.877-12.979-28.356-35.35-51.497-60.17-69.852-4.0267-2.2945-8.62-3.7696-13.291-3.6211z" fill="url(#radialGradient4276)"/>
<path id="path74" d="m1212.6 2060.3c-8.3865 3.3857-6.9449 13.869-4.9727 20.838 8.2269 39.349 13.895 79.773 30.254 116.85 11.028-34.537 39.682-61.274 72.865-74.541 6.587-4.2292 3.7941-14.408-2.625-17.34-10.342-6.265-21.772-10.516-32.017-17.01-20.17-11.191-40.465-22.784-62.784-29.165l-0.7207 0.3731z" fill="url(#radialGradient4274)"/>
<path id="path76" d="m1172.1 2071.1c-7.7033 1.2815-10.526 9.8998-15.17 15.088-11.13 17.062-21.05 35.168-35.582 49.674-14.158 18.099-18.797 42.912-12.627 64.992 6.7574 42.897-2.1701 87.752-22.15 126.37-12.668 22.76-28.594 43.395-41.527 66.02 42.929-0.9323 88.164-4.2064 127.7 15.779 29.37 14.702 47.426 47.329 50.193 79.288 1.7637 22.048-6.1427 44.93-22.986 59.813-12.848 12.06-28.995 21.191-46.312 24.588-18.09-0.092-38.934-10.001-43.408-28.898-1.2332-2.3956 0.3547-5.6527 2.6094-2.7558 4.7448 7.3765 7.8517 17.672 17.44 20.191 18.215 5.3082 38.483-0.4948 52.035-13.533 22.082-21.402 31.491-57.789 16.287-85.645-11.359-18.428-31.078-29.695-50.242-38.51-29.898-12.678-66.265-11.988-93.782 6.285-43.202 26.458-71.265 77.207-68.496 128.05 3.0983 48.482 32.379 92.513 71.645 119.89 20.85 15.539 46.609 29.181 73.46 24.962 54.797-10.316 102.14-51.201 122.69-102.69 13.162-32.301 11.771-67.912 9.5929-102.04-4.9792-61.571-20.745-121.57-29.194-182.66-13.737-79.9-31.988-159.01-51.079-237.73-2.1157-3.9895-6.5355-6.7355-11.09-6.5195z" fill="url(#radialGradient4272)"/>
<path id="path78" d="m2080.7 2097.5c-15.814 4.8056-30.458 12.791-45.974 18.464-48.454 20.032-98.054 37.743-149.14 49.632-7.7513 3.8523-6.203 16.886 2.0664 19.096 50.953 28.786 82.642 80.039 125.33 118.56 7.9773 6.1143 21.42-3.437 17.297-12.941-10.03-57.658 10.127-117.06 44.912-163.25 6.4706-9.2933 12.709-18.768 18.117-28.726-4.2054-0.1634-8.4126-1.0373-12.615-0.8379z" fill="url(#radialGradient4270)"/>
<path id="path80" d="m1354.6 2135c-34.631 1.2329-64.77 24.378-83.088 52.566-13.888 20.009-11.905 46.938-2.5391 68.379 14.898 33.802 45.727 57.392 77.501 74.357 49.615 25.6 108.05 28.774 162.3 19.333 55.973-9.7171 109.02-33.264 155.24-66.08 35.971-25.234 68.916-54.613 99.963-85.606 5.2365-7.2142 0.8528-20.808-9.0801-20.109-93.775 5.696-188.35 1.1246-280.91-15.258-6.6519-0.8927-15.562 4.4094-12.83 12.026 7.387 22.793 8.9541 50.425-7.3244 69.802-20.78 24.372-57.396 30.94-86.986 20.734-18.296-6.3146-26.296-27.062-25.838-44.943 17.987 11.554 34.795 29.36 57.537 30.08 20.248 0.6677 41.357-13.445 44.275-34.32 5.876-30.163-13.706-62.925-43.214-71.787-14.325-5.5637-29.552-9.3886-45.007-9.1738z" fill="url(#radialGradient4268)"/>
<path id="path82" d="m824.22 2164.1c-13.107 0.4387-20.214 13.496-25.139 23.926-7.1736 12.726-20.225 24.258-19.059 40.131 1.5123 10.511 12.999 15.782 22.699 14.752 13.312-1.3189 26.64-0.5274 39.98-0.9399 6.6942-0.9025 16.826-0.5376 18.939-8.6407 1.616-10.372-5.1972-19.762-8.8536-28.977-5.7927-10.866-10.222-22.481-15.937-33.314-2.931-3.9865-7.5165-7.1156-12.631-6.9375z" fill="url(#radialGradient4266)"/>
<path id="path84" d="m1844.1 2204c-29.508 0.2728-55.264 19.886-71.429 43.32-27.896 37.409-52.325 77.534-73.054 119.27-0.8315 6.0945 6.8203 13.764 12.309 8.1243 56.262-31.349 120.22-51.347 184.97-49.267 38.706 1.0299 76.712 9.5265 113.27 22.08-1.1054-7.9492-1.6105-17.512-8.9435-22.503-38.492-41.063-81.409-77.786-125.79-112.28-9.3228-5.8228-20.332-8.9966-31.34-8.7363z" fill="url(#radialGradient4264)"/>
<path id="path86" d="m1051 2211.7c-9.5191 2.1828-16.246 10.103-24.915 14.162-26.971 16.835-55.482 30.788-84.548 43.51-5.9287 3.6332-7.9302 11.482-5.1055 17.693 7.5304 41.002-0.0142 82.751 2.627 124.15 30.313-7.7811 51.811-32.645 70.069-56.494 26.638-34.055 50.146-73.853 52.165-118.12-0.1999-7.8297 2.094-18.614-5.582-23.704-1.4259-0.7729-3.093-1.2812-4.7109-1.1973z" fill="url(#radialGradient4262)"/>
<path id="path88" d="m617.2 2223.4c-7.5639 3.5435-5.3878 13.087-2.8398 19.176 14.563 48.358 42.451 92.964 81.053 125.74 4.3085-31.84 4.9172-64.314 14.547-95.152-0.0222-10.486-11.597-14.639-19.691-17.863-24.279-10.357-47.327-23.54-72.24-32.412l-0.82813 0.5136z" fill="url(#radialGradient4260)"/>
<path id="path90" d="m772.42 2278.4c-11.166-0.2625-18.363 10.446-20.65 20.232-9.8144 29.029-7.9591 60.224-9.416 90.342 1.2973 11.492 12.034 19.931 23.241 20.506 35.907 8.3825 73.311 19.543 110.36 12.04 11.006-4.5277 11.792-18.125 12.515-28.29 2.832-33.108-1.6902-66.295-5.2437-99.128-3.5492-10.216-16.28-12.313-25.661-10.435-28.479 1.5335-57.081 0.2856-85.144-5.2679z" fill="url(#radialGradient4258)"/>
<path id="path92" d="m1256.7 2287.9c-7.4409 3.1768-7.1259 12.308-5.2871 18.854 0.7668 11.789 2.9078 23.439 5.4843 34.982 10.672 53.237 22.323 106.3 34.737 159.16 17.082 65.733 40.609 129.61 65.981 192.52 10.162 20.032 32.35 35.825 55.532 31.969 29.46-3.9374 52.603-26.53 67.604-50.811 30.779-51.477 59.793-103.99 89.903-155.86 41.061-71.674 82.173-143.33 123.83-214.67-16.686-2.9721-31.258 7.7654-44.257 16.58-53.009 31.264-113.59 50.518-175.24 52.201-44.203 1.1308-89.3-5.124-130.42-21.785-33.186-14.068-63.338-36.27-86.408-64.057l-0.8474 0.531-0.6175 0.387z" fill="url(#radialGradient4256)"/>
<path id="path94" d="m1896 2348.5c-100.58 2.2885-201.35 47.038-265.11 125.82-22.809 28.102-37.498 61.446-55.624 92.507-33.144 60.047-65.887 120.77-107.29 175.6-3.7298 8.1648 6.0757 16.558 13.934 13.963 49.951-2.7691 99.739-8.2602 149.56-11.964 76.01-8.4546 150.34-28.882 221.71-55.985 6.277-3.5341 5.818-13.023 0.2872-17.068-9.1944-9.0323-22.409-12.817-30.541-23.158-27.35-28.902-31.662-74.517-15.424-110.02 13.626-39.957 61.343-66.592 101.89-51.691 10.943 3.8909 23.136 11.878 24.654 24.279-0.1502 1.8906-2.1148 4.4185-3.3632 1.4902-11.788-8.1831-26.301-15.717-41.029-11.464-42.38 7.5826-75.975 52.233-67.076 95.22 7.1477 33.824 38.309 59.046 71.894 63.668 19.905 3.272 40.042-1.6938 58.213-9.7266 39.774-15.461 78.657-35.28 110.63-63.918 28.661-28.628 41.865-70.26 40.859-110.21-2.18-37.33-25.395-73.014-59.698-88.52-45.445-24.425-96.639-39.333-148.47-38.818z" fill="url(#radialGradient4254)"/>
<path id="path96" d="m2244.9 2386c-13.922 3.593-26.117 11.832-39.602 16.713-9.2452 4.218-19.443 6.4934-28.467 11.014-6.4261 5.5801-3.3366 16.823 4.2781 19.676 14.748 10.215 33.268 19.964 51.626 14.7 13.17-5.833 16.042-21.761 18.129-34.473 1.718-8.2202 6.435-18.961-0.543-26.055-1.5439-1.1518-3.509-1.67-5.4218-1.5762z" fill="url(#radialGradient4252)"/>
<path id="path98" d="m2133.8 2440.3c-8.2569 1.5691-8.4847 11.785-7.3164 18.344 2.0579 27.483-0.3048 54.881-3.7519 82.131-0.5299 6.1037 3.7573 14.583 11.002 12.252 11.491-4.4331 20.974-12.755 31.432-19.085 18.342-12.842 36.901-25.792 53.762-40.407 3.9381-7.2077-3.8632-14.474-10.764-15.186-26.841-8.4391-46.263-32.909-74.363-38.049z" fill="url(#radialGradient4250)"/>
<path id="path100" d="m976.35 2452.9c-11.085 0.3526-20.13 7.7853-30.217 11.488-14.422 6.8409-28.782 17.953-32.253 34.377-17.126 43.554-46.166 80.686-70.798 119.98-3.2852 8.7603 3.6401 18.578 12.548 19.936 52.72 22.88 105.03 49.308 162.25 58.92 6.8677-1.215 5.8701-10.097 2.123-14.066-29.802-38.579-55.418-84.137-56.227-133.93-0.72034-31.223 12.083-60.754 20.51-90.281-0.0151-4.0906-4.1938-6.5844-7.9336-6.4258z" fill="url(#radialGradient4248)"/>
<path id="path102" d="m770.1 2468.5c-8.9945 4.1196-8.2355 16.055-4.4941 23.603 8.5929 25.333 15.311 51.636 27.109 75.741 8.2012 11.951 28.718 12.827 36.471-0.1075 17.319-23.362 26.716-51.37 35.982-78.58 1.3539-6.2177-3.6218-14.182-10.678-11.902-28.346 4.0975-56.192-8.4144-84.391-8.7539z" fill="url(#radialGradient4246)"/>
<path id="path104" d="m1285.3 2594.9c-7.4948 0.6056-8.2419 9.6883-11.98 14.553-16.66 32.044-33.573 65.64-62.393 88.636-10.325 8.9798-21.231 17.357-31.773 26.129-1.9229 7.91 6.9571 12.265 13.539 12.365 49.847 9.1475 100.52 16.724 151.31 14.598 7.1944-2.6681 5.2548-12.018 2.1406-17.131-20.508-43.009-40.536-86.778-51.717-133.25-1.7307-3.3654-5.2038-6.0669-9.125-5.8965z" fill="url(#radialGradient4244)"/>
</g>
<path id="path4" d="m1441.6 7.64c144.64-0.47 287.4 31.99 426.13 70.58 119.01 32.53 231.72 89.76 324.76 171.24 56.91 50.31 112.09 105.13 148.27 172.73 33.87 65.06 55.78 142.39 34.25 214.86-23.23 74.3-85.05 132.1-155.17 162.83-37.35 17.8-83.9 18.27-118.25-6.52-35.41-24.36-66.31-58.42-78.76-100.29-13.75-52.39 0.48-114.62 43.92-149.27 31.41-23.4 77.03-33.23 112.9-14.5 27.75 15.65 39.29 49.65 37.88 79.94-2.29 9.74-14.88 6.81-21.43 3.67-22.78-10.66-52.32-12.36-72.52 4.59-10.49 6.81-14.31 22.16-6.4 32.28 13.26 17.28 30.31 32.49 50.93 40.19 14.11 5.48 30.4 0.55 39.63-11.2 12.97-15.77 34.91-23.06 43.43-42.56 15.1-43.93 18.42-97.77-12.57-135.85-32.52-37.34-63.65-76.27-101.03-108.98-48.46-40.25-107.81-64.81-167.8-82.21-137.84-42.58-285.67-25.62-422.83 10.82-103.84 27.51-203.78 70.13-294.9 127.11-29.25 17.83-53.84 41.99-78.6 65.39-121.61 106.4-224.4 239.67-277.39 393.6-15.83 42.69-19.47 88.93-36.96 131.05-30.52 74.65-22.48 157-31.7 235.46-3.06 29.72 7.94 58.18 10.51 87.47 3.72 41.65 8.1 83.38 17.87 124.12 19.22 87.37 46.72 174.52 96.15 249.9 67.34 136.33 188.32 239.33 320.04 310.92 35.47 25.3 77.73 37.41 119.21 48.77 113.19 33.08 230.91 56.44 349.4 47.88 137.3-5.9 275.51-39.5 393.57-111.47 71.4-43.89 143.78-89.97 197.76-155.24 34.97-27.39 63.09-62.66 96.08-91.88 101.88-117.47 171.18-261.37 206.65-412.38 21.63-83.23 18.85-174.74-19.67-252.69-11.79-20.07-14.42-44.38-29.07-62.93-16.86-23.29-43.36-36.41-68.7-48.28-34.51-17.33-76.36-7.25-107.11 13.34-22.57 14.07-38.04 39.82-37.12 66.74 2.26 24.3 16.27 49.44 40.35 57.78 17.12 5.2 38.18 8.8 53.59-2.72 16.44-10.99 27.61-32.01 23.29-51.92-0.99-7.81-9.8-12.05-16.61-8.54-12.41 4.86-26.25 12.5-29.65 26.46-1.21 3.74-3.38 11.81-8.92 8.21-19.69-16.99-26.07-50.04-8.88-71 24.27-38.41 87.17-46.66 116.09-9.41 15.16 18.85 20.85 43.66 21.74 67.4 2.02 65.87-49.6 128.7-114.8 139.07-26.28 4.93-49.608 5.8811-78.77-3.59-28.412-10.511-38.653-16.598-61.5-40.55-28.82-39.84-47.71-89.14-40.87-138.97 7.33-47.06 31.95-90.32 64.2-124.82 81.81-78.72 225.44-79.53 308.09-1.63 49.36 43.77 86.79 99.38 115.65 158.35 53.58 107.63 78.93 228.08 80.03 347.98 2.17 113.06-24.7 224.43-61.42 330.65-25.19 73.45-55.84 144.91-88.85 215.15-25.89 62.13-75.15 109.97-107.81 168.19-73.79 115.12-167.63 215.66-264.21 311.79-66.74 70.65-155.77 113.17-234 169-54.34 37.92-117.14 59.75-178.32 83.68-94.65 35.59-193.64 59.55-294.13 70.87-96.8 10.68-195.02 17.53-291.91 4.3-107.68-14.69-215.6-30.87-320.29-60.7-89.12-26.62-177.09-57.88-261.96-96.04-82.41-38.88-158.98-90.97-222.78-156.22-37.95-42-78.03-81.95-118.06-121.94-127.08-137.1-222.2-301.7-289.96-475.2-28.41-74.7-60.76-148.9-72.62-228.4-15.21-95.3-30.78-191.8-22.61-288.6 9.97-109.3 17.51-220.1 49.11-325.9 16.29-53.03 32.39-106.25 53.29-157.7 28.88-67.49 57.62-135.79 99.54-196.45 47.88-65.55 95.01-132.04 150.44-191.56 63.88-65.9 134.58-125.14 208.48-179.52 91.56-63.59 187.87-120.26 287.2-170.8 64.46-31.13 129.71-61.63 198.78-81.22 44.52-12.93 89.75-23.25 135.08-32.93 33.76-7.48 67.04-20.02 102.12-18.89 50.27 1.01 100.46-2.71 150.7-3.29m36.06 46.44c-4.22 1.76-4.78 7.59-0.93 10.15 35.03 38.11 68.42 77.67 101.57 117.41 15.58 15.92 32.92 30.23 51.55 42.45 20.77 13.01 47.59 11.58 69.04 0.85 56.17-28.28 95.94-79.53 149.97-111.04-5.33-9.24-17.04-9.8-26.04-12.76-111.7-33.61-228.7-48.29-345.2-47.06m-111.05 4.43c-42.72 5.16-78.54 32.45-106.94 63.21-43.97 41.04-52.64 115.17-16.15 163.71 38.1 51.07 116.57 49.44 164.19 13.34 19.2-17.06 15.91-45.88 8.18-67.72-6.76-17.77-25.73-24.94-42.74-29.03-7.82-1.02-7.15-15.86 1.22-15.18 30.36-7.11 58 16.6 68.39 43.34 10.9 24.77-0.76 51.3-2.27 76.25 59.39-6.99 114.02-38.2 173.85-45.94 6.92 0.65 8.54-7.76 3.31-11.23-51.26-37.08-89.2-88.49-129.51-136.45-30.04-34.26-75.23-57.84-121.53-54.3m-103.94 3.03c-69.89 5.9-135.05 33.69-201.59 53.59 48.92 13.6 97.93 43.58 121.69 90.96 0.73 4.97 6.03 1.96 3.78-2.48 7.02-57.82 46.16-105.28 88.72-142.25-4.16-0.84-8.48-0.04-12.6 0.18m619.77 76.97c-25.08 0.56-48.03 13.21-65.88 30.11-26.35 24.25-49.77 51.91-79.41 72.41 0.55 2.83 1.72 5.55 3.37 7.91 31.46-0.25 63.13-2.91 94.5 1.01 55.41 6.17 111.85 9.67 164.96 28 6 1.89 12.24 6.52 18.69 3.86 4.88-4.52 0.79-11.78-3.1-15.49-21.11-25.11-31.75-56.59-48.72-84.21-18.02-27.73-51.27-45.45-84.41-43.6m-914.05 6.88c-39.47 10.46-76.36 28.65-113.5 45.14-1.01 11.77 17.33 10.26 18.14 21.47-27.78-0.34-56.89 10.32-73.08 34-51.92 67.42-36.64 173.19 28.19 226.81 35.16 31.63 81.66 49.99 128.9 51.23 36.05 0.89 71.64-6.44 106.3-15.64 15.48-5.2 26.62-17.97 38.83-28.18 50.77-46.34 76.95-118.25 63.81-186.27-5.93-57.14-40.11-114.96-97.37-132.6-39.15-16.11-85.35 10.23-96.67 49.69-7.28 26.27 3.53 53.55 21.03 73.17 4.43 9.5-8.4 9.75-13.89 6.73-39.69-17.8-51.36-71.12-32.1-107.92 5.51-12.93 16.97-26.58 21.41-37.63m1022.8 20.39c22.61 40.96 37.43 86.75 68.09 122.9 15.56 18.88 39.98 29.91 64.49 28.25 26.06-2.09 52.25 0.17 78.34-1.56 4.63 1.39 9.75-4.27 6.94-8.37-38.03-38.32-82.44-69.48-126.09-101-27.05-20.24-59.55-31.34-91.77-40.22m-1241.8 75.7c-70.98 45.2-141.46 92.22-206.42 145.93-2.49 4-0.26 10.32 4.48 11.37 54.33-2.15 112.38-1.35 161.51 25.21 15.72 9.42 32.62 16.95 49.86 23.05-29.61-61.68-35.55-135.07-9.97-199.21 0.17-1.8 3.63-7.54 0.54-6.35m459.08 59.76c-8.31 2.44-6.52 13.21-6.57 19.63 0.46 35.75-7.78 70.82-21.44 103.66-1 4.05-7.05 13.12 0.27 14.43 38.64-30.61 82.62-53.31 126.02-76.22 4.65-3 1.72-10.57-3.27-11.41-28.02-7.45-58.19-15.18-78.75-37.07-4.65-4.62-8.35-13.78-16.26-13.02m932 37.26c-3.09-0.05-5.96 2.29-6.3 5.39 34.47 30.73 69.47 61.49 97.1 98.8 29.54 35.65 62.07 73.9 65.95 122.14 2.28 52.6-14.65 109.45-57.01 143.42-23 23.66-59.42 27.31-89.23 15.72-18.45-8.21-27.67-27.16-40.2-41.78-19.59-19.41-22.46-51.46-12.88-76.27 13.38-29.68 49.84-38.6 79.1-29.69-21.9-43.4-85.14-28.8-107.9 5.91-29.12 45.2-23.26 109.65 14.11 148.62 16.21 15.93 31.64 34.58 53.87 42.16 33.98 8.62 73.34 4.11 101-18.79 20.18-17.82 43.02-32.78 60.59-53.43 40.51-43.33 60.18-105.07 51.39-163.84-5.19-60.21-41.13-111.59-77.11-157.85-15.99-21.88-40.79-41.55-69.44-38.5-21.02 3.57-41.99-2.34-63.04-2.01m-1608 113.88c-64.08 4.36-119.32 59.63-127.58 122.61-6.93 68.11 38.15 137.15 102.67 159.43 66.84 22.51 145.41-3.29 187.36-59.46 21.79-34.49 16.59-81.98-6.33-114.6-18.68-26.13-52.34-31.53-81.81-36.3-7.09 0.54-29.44 5.84-22.13-8.26 39.67-28.67 98.32-9.06 129.52 23.98 33.21 44.1 40.43 106.86 17.98 157.42-13.2 30.44-36.15 56.16-63.82 74.24-7.61 3.2-0.69 13.96 5.92 11.61 60.4 1.61 119.47 33.12 153.56 83.07 3.93 6.89 15.22 7.42 17.94-0.44 10.57-40.98 34.36-79.49 30.07-123.37-6.25-75.83-40.88-147.28-88.27-205.91-37.37-45.13-93.61-73.16-151.56-79.47-34.45-2.43-68.99-5.23-103.52-4.55m314.91 81c-5.24 0.58-3.36 7.37-1.47 10.52 25.74 53.87 63.55 104.47 68.19 165.97 2.98 13.58-3.96 30.7 7 41.37 39.1-66.46 84.33-129.29 134.05-188.21 3.21-3.58 1.14-9.65-3.47-10.7-45.73 10.6-94.18 12.64-139.88 0.81-21.85-5.3-41.78-17.79-64.42-19.76m-491.89 25.45c-74.89 102.66-155.74 203.83-202.34 323.35 111.79-59.36 241.45-61.84 363.22-85.58 0.91 0.62 8.38-1.6 4.04-3.08-58.25-25.92-111.22-68.8-138.44-127.54-15.81-33.59-22.6-70.48-26.48-107.15m302.09 272.73c-27.14 1.47-53.51 11.26-74.68 28.38-80.54 58.36-112.66 172.19-75.09 264.2 50.54 128.85 157.63 226.45 274.41 295.81 9.09 5.19 13.51-6.35 10.21-13.28-7.28-35.74-7.31-72.37-8.53-108.68 0.65-72.78-3-147.46 17.99-218.06 6.83-26.76 11.22-54.06 16.91-81.06-31.83 15.14-66.02 33.33-102.47 28.03-44.18-6.68-66.41-71.5-32.27-101.73-13.29 33.02 5.45 74.44 40.31 83.48 61.25 9.25 109.19-72.7 73.27-122.33-32.9-41.13-88.98-57.9-140.06-54.76m-140 6.95c-66.12 11.47-132.22 23.42-198.77 32.32-42.56 6.97-84.66 17.4-124.87 33.16-22.91 7.29-42.63 24.21-50.87 47.11-20.42 40.99-12.73 92.89 18.03 126.75 32.51 35.05 70.25 65.52 111.86 89.16 75.15 37.51 152.36 70.86 226.41 110.57 26.52 13.54 52.49 29.71 82.42 34.48-30.43-34.2-56.84-71.94-78.71-112.18-25.42-41.94-44.34-88.69-49.21-137.81-6.4-66.98 13.96-135.08 52.1-190.05 7.5-11.07 16.84-21.24 22.98-33.08-3.71-0.92-7.63-0.81-11.37-0.43m1969 66.06c-37.78 3.55-73.19 19.53-105.45 38.62-19.86 18.83-40.847 34.026-54.639 60.371-15.658 32.04-27.081 51.829-23.961 79.759 4.03 42.78 29.18 81.37 61.68 108.41 33.26 25.02 78.65 21 115.94 8.5 34.3-15 45.52-54.79 51.56-88.44 3.23-17.37 5.97-41.32-12.98-50.62 4.67 44.44-14.99 104.08-65.33 111.31-31.15 4.72-72.62 6.24-90.48-25.47-40.28-50.78-14.57-127.4 34.13-162.89 35.96-26.51 84-24.66 125.9-17.13 50.16 9.83 90.48 49.41 106.98 97.01 8.61 22.63 16.07 48.29 34.04 64.79 9.77-41.59 17.45-91.09-5.06-130.75-35.91-57.85-102.29-101.43-172.33-93.47m-2390.1 146.83c-21.09 38.6-25.04 86.1-32.36 129.8-18.17 96.9-15.57 196.1-14.57 294.2-0.64 35.89 6.59 72.78 27.36 102.65 9.85-60.96 22.01-122.05 45.75-179.37 13.08-34.99 32.19-68.62 60.49-93.51 39.9-37.15 94.2-50.46 146.31-59.72 8.29 1.33 5.89-8.17 0.38-9.43-46.48-24.86-92.55-51.59-131.91-87.03-32.36-29.11-68.8-55.33-92.01-92.95-2.03-3.13-5.13-6.7-9.44-4.72m2610.9 12.16c-8.64 36.31-14.55 74.38-9.65 111.73 5.2 42.15 33.82 77.79 68.37 100.66 5.81 4.55 15.87 6.27 19.93-1.61-8.73-49.11-25.4-96.41-42.1-143.3-9.01-23.84-21-49.35-36.55-67.48m-14.78 200.64c-1.69 0.85-3.61 2.31-3.67 4.34 1.8 64.34-10.94 128.39-31.41 189.21-2.4 4.69 4.6 10.7 8.44 6.24 41.67-28.4 89.55-56.62 108.78-106.07 8.54-15.6 7.09-37.4-9.5-47.23-24.02-15.43-46.73-35.6-72.64-46.49m-2336.1 25.38c-77.57 3.74-152.03 50.94-185.61 121.43-37.33 73.14-53.89 155.17-55.08 236.95-7.63 78.92 30.59 156.02 88.42 207.8 34.75 26.32 83.851 20.691 115.98-9.4287 23.35-21.82 38.649-48.101 51.449-76.541 18.6-36.91 15.26-84.3-8.25-118.22-16.21-21.99-50.13-16.55-65.91 3.22-0.84-13.56 3.23-33.57 18.39-39.78 26-11.19 57.93 0.65 73.2 23.87 26.61 39.85 31.79 93.08 12.86 137.2-15.81 40-41.743 80.786-80.284 104.15-32.611 19.704-60.886 20.433-93.266 17.443-33.597-5.9707-65.952-40.178-84.59-61.66-11.71-4.22-7.84 16.63-7.26 22.1 19.35 41.34 33.88 84.78 53.13 126.2 30.85 64.38 72.62 122.57 109.18 183.68 2.97 7.15 15.17 8.82 18.55 1.37 4.03-9.06 8.13-18.42 8.32-28.52 2.39-34.41 23.68-63.19 42.19-90.8 65.33-95.11 137.75-189.68 169.49-302.51 33.76-117.56 25.26-246.4-21.85-359.11-11.43-27.53-27.63-54.09-51.74-72.27-29.98-23.73-70.3-28.73-107.32-26.57m211.84 71.73c-5.27 0.79-2.91 6.6-1.48 9.76 12.92 28.48 15.74 60 21.67 90.37 23.86 109.05 13.35 224.83-26.26 328.95-4.96 15.26-8.33 30.98-12.45 46.5 74.69-42.24 131.54-109.51 182.97-176.98 24.56-31.82 48.87-65.64 58.73-105.24 7.78-29.98-1.89-63.53-24.92-84.3-56.64-50.62-126.55-85.99-198.26-109.06m2226 28.87c-28.55 38.26-64.4 70.39-103 98.27-46.13 29.39-76.94 82.66-72.7 138.03 1.99 78.97 35.8 152.07 70.39 221.44 1.41 3.05 5.43 10.16 9.19 5.49 19.06-32.68 29.69-69.27 42.4-104.68 33.66-93.32 55.5-191.07 63.08-290.04 0.75-20.59-1.4-41.15-2.64-61.68 1.68-4.76-2.83-7.68-6.72-6.83m-1969.8 192.1c-9.29 18.71-16.96 39.27-27.53 57.81-3.06 4.44-7.03 14.5 1.27 15.95 17.42 1.46 35.23 2.88 51.33 10.48 4.63 3.18 12.75-1.14 8.49-7.31-11.98-21.31-13.74-46.34-23.67-68.44-1.76-4.02-4.51-9.82-9.89-8.49m1757.2 49.73c-2.38 1.87-5.14 3.42-6.71 6.06-25.26 45.38-53.54 89.05-84 131.1-3.66 3.24-6.88 12.43 0.44 12.6 22.72 0.87 49.19-2.5 67.38 14.51 21.43 22.55 36.22 62.05 12.92 88.51-3.3 7.08-18.34 8.9-18.54-0.49 7.08-16.53 7.84-37.68-4.43-51.97-21.27-22-62.04-19.85-79.42 6.1-31.91 40.62-22.42 101.34 11.56 137.75 34.75 42.12 103.03 40.25 144.18 8.99 34.18-31.83 48.08-85.99 29.2-129.37-10.38-25.98-25.81-49.72-34.65-76.35-12.51-36.87-24.25-74.26-30.18-112.83-1.9-11.64-0.96-24.37-7.75-34.61m-1781 59.6c-28.09 4.42-54.18 24.21-63.97 51.2-14.33 40.96-7.46 88.15 14.37 125.23 14.7 25.37 43.02 42.64 72.63 41.72 28.08-1.18 55.09-20.17 63.71-47.25 9.27-23.61-1.3-54.65-25.75-64.16-14.21-6.06-28.66 1.8-40.88 8.51 10.03-22.72 41.32-36.37 63.1-21.57 45.4 35.07 41.51 112.09-6.11 143.56-7.06 1.93-7.57 12.68-0.03 13.71 39.94 5.08 74.91 26.4 108.31 47.47 10.28 6.47 22.11 0.03 32.92-1 20.32-2.02 40.82-2.39 61.03-5.56 5.36-2.66 3.94-10.04-0.79-12.56-70.69-57.51-127.47-130.87-169.54-211.47-23.47-35.81-63.16-71.85-109-67.83m-114.99 76.76c-51.27 58.99-110.32 110.73-165.37 166.15-3.88 3.22-3.52 11.88 2.46 12.26 33.41 0.36 67.29 4.8 98.58 16.99 16.73 4.68 35.53 21.23 52.71 9.36 29.53-15.45 61.26-26.29 93.52-34.34 5.58-2.64-0.4-8.99-3.6-10.7-47.81-32.67-69.78-93.33-69.09-149.53 1.44-5.34-3.04-12.66-9.21-10.19m1714.8 112.05c-32.08 21.2-55.13 53.21-84.85 77.44 34.34 0.24 69 1.25 102.59 9.18 8.79 2.93 8.72-7.13 6.16-12.22-9.89-22.12-14.97-46.01-17.96-69.94-0.15-3-2.87-5.91-5.94-4.46m-1598.9 113.2c-19.25 2.6-38.64 6.8-56.52 14.52-4.91 1.54-4.98 8.19-0.87 10.66 24.54 18.86 49.73 36.86 74.15 55.89 5.38 4.61 13.36 6.04 18.86 0.7 23-18.63 48.56-33.76 74.75-47.37 5.98-1.68 4.65-10.27-1-10.97-34.73-13.93-71.14-28.37-109.37-23.43m1525 3.02c-48.01 4.07-91.3 27.88-131.73 52.35-71.75 41.98-122.31 116.6-135.6 198.45-4.27 38.97 7.32 82.2 38.08 108.23 34 27.42 87.34 32.67 122.3 4.11 16.24-12.88 32.65-30.97 30.4-53.31 0.21-27.41-26.68-49.03-52.95-48.43-11.24-0.11-22.19 2.59-33.04 5.14 10.06-14.27 27.1-24.72 44.88-25.01 34.33 2.32 65.78 28.99 71.53 63.44 6.54 45.3 6.33 91.75-2.26 136.78 52.5-49.04 105.4-98.61 149.68-155.43-49.6 12.46-111.03-4.02-136.97-50.86-21.8-37.04-1.68-87.8 35.48-105.93 6.95-2.87 13.29 8.31 6.69 12.05-9.68 6.05-18.48 13.86-23.77 24.16-14.12 30.89 12.36 68.55 44.16 74.15 37.12 6.57 79.81 2.69 108.25-24.68 49.09-47.08 47.62-138.13-8.35-179.21-36.73-24.8-82.43-38.43-126.78-36m-1792 7.98c-9.84 1.47-31.31 0.05-27.88 15.74 8.93 30.37 25.36 58.96 47.64 81.47 4.43 5.2 10.32-0.77 12.31-5.14 11.74-23.57 25.42-46.33 42.93-66.11 3.95-3.56 3.96-10.71-1.79-12.45-23.06-9.25-48.2-15.63-73.21-13.51m-85.52 14.88c-11.39 4.71-18.06 16.61-27.33 24.33-26.87 30.35-53.14 63.29-65.65 102.41-14.83 47.7 1.43 101.52 36.56 136.15 21.36 23.18 54.97 36.36 86.2 28.6 26.61-6.44 47.53-36.37 37.83-63.48-12.91-29.82-54.5-44.21-80.79-22.58 3.43-10.96 10.05-22.24 22.49-23.51 32.54-5.13 75.42 13.09 80.28 49.2 5.79 45.77-33.54 99.45-82.63 92.74-5.54-1.99-11.68 3.25-8.68 9.02 62.35 77.93 144.06 137.63 224.63 195.67 19.8 14.61 42.54 24.31 63.99 36.13 4.25 3.37 16.21 4.93 12.22-4.24-17.76-37.68-26.91-78.54-38.81-118.26-3.79-11.03-11.35-20.66-21.41-26.61-60.92-44.33-102.33-111.81-120.65-184.35-8.53-29.51-9.75-61.97-26.37-88.63-7.5-13.72-20.75-22.65-30.29-34.71-23.97-29.22-36.92-65.19-53.09-98.88-2.24-3.21-3.96-8.74-8.5-9m608.51 13.98c-6.32-0.31-17.2 2.98-12.58 11.42 13.9 16.92 23.51 36.95 37.43 53.78 4.13 4.49 10.12-0.75 12.58-4.59 7.44-11.31 17.3-21.4 21.63-34.48 3.06-9.76-2.15-22.95-13.07-24.64-15.26-1.46-30.67-2.4-45.99-1.49m1461.9 4.91c-7.06 1.13-4.14 9.5-1.6 13.71 14.37 26.23 18.24 56.68 18.36 86.19 23.26-27.51 43.46-57.88 58.12-90.82 2.33-6.1-5.92-9.81-10.82-7.71-21.3 4.36-42.82 1.3-64.06-1.37m-1844.2 5.01c-30.27 17.03-46.43 51.46-57.8 83.19-4.38 11.47-10.05 30.89 4.49 37.61 30.45 16.15 57.51 38.55 89.9 51.01 7.87 4.01 18.14 0.14 20.98-8.33 11.88-27.36 28.26-52.67 47.99-75.01 4.16-3.59 4.3-11.23-0.32-14.41-29.89-24.7-59.42-50.17-92.62-70.4-3.87-1.99-8.23-4.11-12.62-3.66m290.09 11.3c-34.79 11.08-63.76 36.24-91.49 59.28-6.45 4.55-5.59 13.97 0.19 18.93 20.08 25.65 34.61 55.16 45 85.92 2.32 7.57 10.8 4.91 16.1 2.55 36.37-17.32 69.98-39.88 102.51-63.5 6.91-6.17 5.92-16.44 2.7-24.19-10.51-29.24-32.5-52.53-56.05-71.99-5.23-4.51-11.85-8.05-18.96-7m248.24 9.57c-5.9 2.76-3.06 10.44-2.36 15.33 7.78 36.07 12.69 73.22 26.5 107.66 12.7-30.71 38.69-53.69 69.04-66.28 8.58-3.9 0.56-12.03-5.04-13.81-29.4-13.92-57.24-33.79-88.14-42.9m-43.18 11.18c-15.45 16.4-24.2 39.94-40.51 56.63-15.79 16.17-23.54 40.11-18.4 62.34 8.41 41.16 0.66 83.89-15.08 122.28-11.95 25.49-30.06 48.48-44.32 72.42 47.28-1.3 101.42-3.3 140.44 28.29 27 25.35 42.13 66.62 30.49 102.83-10.22 28.93-37.95 48.64-66.71 56.45-22.02 1.76-52.84-14.57-50.25-39.32 13.39-8.21 12.58 18.45 25.63 19.95 54.94 15.42 92.81-67.14 55.01-104.08-30.2-28.4-76.04-44.37-115.97-27.3-42.61 18.63-72.68 61.59-79.89 107.11-7.1 51.62 19.72 102.94 59.74 134.32 23.53 18.79 52.68 37.76 84.3 30.77 64.6-14.69 119.48-73.48 124.76-140.33 5.89-72.16-13.71-142.8-24.87-213.5-13.38-88.35-34.33-175.39-54.41-262.57-0.95-4.36-5.44-7.58-9.96-6.29m909.08 26.22c-61.58 25.88-123.73 52-189.22 66.68-6.88 0.51-8.25 9.69-1.91 12.29 51.44 28.5 83.42 79.54 125.78 118.54 5.01 5.19 15.23-0.61 12.15-7.68-8.19-45.89 2.71-93.69 24.73-134.29 10.31-19.42 24.78-36.29 35.6-55.34-2.23-0.17-5.1-0.6-7.13-0.2m-731.02 37.75c-34.54 4.41-64.1 30.55-79.46 60.75-13.83 41.85 14.98 83.51 48.02 106.76 68.53 54.13 163.96 52.13 243.26 25.54 76.97-25.27 140.75-78.39 197.86-134.15 6.14-3.94 5-17.13-3.48-16.35-92.2 5.39-185.18 1.6-276.19-14.67-5.46-1.04-16.17-1.35-13.41 7.53 8.43 25.02 8.44 55.28-10.95 75.48-23.05 23.34-60.27 29.31-90.56 18.08-21.07-8.54-29.06-35.31-26.1-54.9 14.59 8.52 27.78 21.01 43.39 28.58 18.82 9.64 45.65 2.55 54.93-17.08 11.23-25.58-2.14-57.45-25.19-71.64-19.35-8.95-40.55-15.83-62.12-13.93m-527 29.13c-11.41 2.3-15.08 15.69-20.87 24.22-6.26 11.81-19.45 22.5-16.18 37.29 3.2 8.08 13.55 9.75 21.15 8.73 16.04-1.88 32.54 1.25 48.31-2.54 5.48-1.35 4.15-7.92 2.95-11.96-5.1-15.38-14.15-29.06-19.93-44.16-2.07-6.56-7.64-13.88-15.43-11.58m1017.1 39.99c-23.45 1.85-43.37 16.71-57.68 34.53-29.66 38.23-54.51 80.07-76.96 122.89-1.64 2.61 1.02 5.4 2.98 7 47.85-26.66 100.56-46.47 155.59-50.3 48.23-4.52 96.84 3.9 142.55 19.1-0.63-3.14-0.55-6.55-2.52-9.2-37.44-41.07-80.02-77.06-123.22-111.89-11.16-9.4-26.23-14.14-40.74-12.13m-790.05 7.95c-31.37 20.33-64.05 39.09-98.77 53.36-5.2 2.04-12.52 5.89-10.21 12.74 8.56 40.61 1.29 82.27 3.22 123.36 25.35-7.99 44.2-29.37 60.18-49.83 29.29-36.78 55.97-80.71 54.35-129.45 0.31-4.87-1.83-13.49-8.77-10.18m-430.15 10.86c-5.4 3.01-0.9 10.69 0.02 15.13 13.77 44.83 38.92 86.42 73.91 117.82 3.67-28.09 3.97-56.86 12.9-84.02 3.52-9.52-7.66-13.45-14.27-16.28-24.43-10.17-48.2-23.82-72.56-32.65m153.99 55.16c-6.1-0.01-11.44 4.01-13.73 9.47-12.83 28.57-10.45 60.76-12.45 91.23-1.12 9.17 4.36 18.9 13.73 20.97 36.42 8.33 73.64 20.07 111.43 14.47 6.21-0.61 10.32-6.27 11.3-12.08 6.05-35.99 0.27-72.32-2.77-108.28-0.49-7.41-7.57-10.93-14.24-10.99-31.16 2.11-62.62 1.42-93.27-4.79m484.94 9.74c-6.91 4.09 0.18 14.79-1.75 21.07 9.29 53.56 22.24 106.48 33.39 159.7 16.39 73.41 42.8 144.03 69.99 214.01 8.54 20.05 28.54 37.25 51.36 34.69 32.53-3.11 56.22-30.02 71.67-56.58 68.63-119.04 136.4-238.68 205.64-357.3-17.54-0.1-29.39 14.97-44.66 21.28-76.67 43.74-169.1 59.4-255.44 39.33-50.47-9.77-97.52-37.9-130.2-76.2m636.02 60.34c-118.08 3.41-239.69 67.81-292.42 176.48-41.2 71.86-77.83 146.86-128.06 213.05-4.56 4.67 0.46 11.46 6.44 10.43 44.66-1.92 89.1-7.74 133.75-10.33 80.9-6.62 159.94-28.28 235.89-56.12 12.96-5.99-3.41-16.92-10.03-20.08-42.94-24.79-55.53-82.4-36.24-126.21 11.51-37.38 50.34-64.76 89.53-61.15 17.48 2.02 37.5 9.12 44.8 26.64 2.29 4.65 0.62 10.58-4.17 12.98-11.72-6.49-23.07-16.69-37.68-14.19-44.75 4.48-82.47 55.09-66.43 99.19 13.72 40.91 62.92 62.42 103.23 49.91 41.2-13.85 81.1-32.96 115.89-59.18 29.42-21.69 46.27-56.57 50.69-92.3 7.8-41.34-11.19-86.3-48.58-106.68-47.32-26.94-101.84-43.57-156.61-42.44m349.03 37.98c-19.54 8.52-38.74 18.37-59.29 24.56-6.86 1.02-7.9 9.87-2.46 13.25 13.91 9.92 31.33 20.06 49.06 16.69 15.49-5.78 14.76-25.27 18.76-38.57 1.26-5.44 4.3-19.14-6.07-15.93m-107.95 53.72c-3.76 0.47-4.48 4.8-4.49 7.91 2.1 27.67 1.45 55.62-2.98 83.04-0.48 5.24-1.35 17.95 8.13 13.17 27.93-16.36 53.81-36.26 79.59-55.82 3.81-4.73-2.04-9.14-6.42-9.94-27.02-7.87-46.73-31.76-73.83-38.36m-1163.7 13.23c-19.5 9.69-47.34 17.64-52.69 41.63-16.67 42.43-43.97 79.4-68.99 117.11-5.42 6.41-2.51 16.23 5.93 17.91 52.48 22.77 104.54 49.03 161.29 59.36 4.24 1.23 2.62-4.77 0.97-6.65-29.01-38.08-54.72-82.06-57.25-131.03-2.18-32.47 9.55-63.17 19.58-93.37 3.09-7.29-5.38-5.26-8.84-4.96m-198.93 14.63c-5.32 2.32-5.76 9.01-4.02 13.87 7.99 24.49 15.29 49.29 25.05 73.17 4.03 14.27 22.93 19.57 32.45 7.15 16.29-21.25 24.85-47.13 34.14-71.92 2.03-4 3.63-14.33-3.46-13.31-28.55 4.26-56.11-6.91-84.16-8.96m511.64 127.28c-17.01 29.78-30.98 63.98-56.17 88.95-13.63 13.9-29.28 25.53-44.23 37.92-0.22 5.46 6.57 5.53 10.28 6.44 48.73 9.18 98.31 15.96 147.97 14.98 5.58-0.15 3.58-6.57 2.09-10.02-20.01-42.56-40.54-85.38-51.47-131.37-0.27-4.04-3.83-8.8-8.47-6.9z"/>
</svg>
