<svg version="1.1" xmlns="http://www.w3.org/2000/svg" xmlns:xlink="http://www.w3.org/1999/xlink" width="461" height="554" viewBox="0 0 461 554">
<path id="book" d="M72.089,0.868 C80.149,0.868 424.425,0.868 424.425,0.868 C444.315,0.868 460.439,16.992 460.439,36.882 C460.439,36.882 459.839,357.248 459.839,460.346 C459.839,470.396 452.088,476.541 442.372,486.581 C435.267,493.922 429.274,499.720 429.274,499.720 C429.274,499.720 429.379,59.689 429.379,48.885 C429.379,38.081 421.766,31.994 411.862,31.994 C401.958,31.994 75.785,30.917 75.785,30.917 L45.423,62.174 C45.423,62.174 349.329,62.718 366.136,62.718 C382.942,62.718 399.496,77.102 399.496,95.709 C399.496,114.316 399.301,518.624 399.301,518.624 C399.301,537.820 383.739,553.382 364.543,553.382 C364.543,553.382 36.075,553.382 36.075,553.382 C16.185,553.382 0.061,537.258 0.061,517.368 C0.061,517.368 0.061,83.014 0.061,72.896 C0.061,62.778 5.367,56.271 13.084,48.554 C20.802,40.836 36.065,25.573 46.526,15.112 C56.987,4.651 64.028,0.868 72.089,0.868 z" fill="#000000" />
</svg>
