<?xml version="1.0" encoding="UTF-8" standalone="no"?>
<!-- Created with Inkscape (http://www.inkscape.org/) -->

<svg
   xmlns:dc="http://purl.org/dc/elements/1.1/"
   xmlns:cc="http://creativecommons.org/ns#"
   xmlns:rdf="http://www.w3.org/1999/02/22-rdf-syntax-ns#"
   xmlns:svg="http://www.w3.org/2000/svg"
   xmlns="http://www.w3.org/2000/svg"
   xmlns:sodipodi="http://sodipodi.sourceforge.net/DTD/sodipodi-0.dtd"
   xmlns:inkscape="http://www.inkscape.org/namespaces/inkscape"
   width="268.25217mm"
   height="123.19935mm"
   viewBox="0 0 950.4998 436.53312"
   id="svg2"
   version="1.1"
   inkscape:version="0.91 r13725"
   sodipodi:docname="padiddle.svg"
   inkscape:export-filename="/home/algot/Documents/runeman.org/clipart/2018/padiddle.png"
   inkscape:export-xdpi="30.796091"
   inkscape:export-ydpi="30.796091">
  <title
     id="title4421">Padiddle</title>
  <defs
     id="defs4">
    <filter
       inkscape:collect="always"
       style="color-interpolation-filters:sRGB"
       id="filter4239"
       x="-0.042240676"
       width="1.0844814"
       y="-0.055577781"
       height="1.1111556">
      <feGaussianBlur
         inkscape:collect="always"
         stdDeviation="2.63002"
         id="feGaussianBlur4241" />
    </filter>
  </defs>
  <sodipodi:namedview
     id="base"
     pagecolor="#ffffff"
     bordercolor="#666666"
     borderopacity="1.0"
     inkscape:pageopacity="0.0"
     inkscape:pageshadow="2"
     inkscape:zoom="0.35"
     inkscape:cx="759.0578"
     inkscape:cy="282.22967"
     inkscape:document-units="px"
     inkscape:current-layer="layer1"
     showgrid="false"
     inkscape:window-width="1366"
     inkscape:window-height="712"
     inkscape:window-x="0"
     inkscape:window-y="0"
     inkscape:window-maximized="1"
     fit-margin-top="0"
     fit-margin-left="0"
     fit-margin-right="0"
     fit-margin-bottom="0" />
  <metadata
     id="metadata7">
    <rdf:RDF>
      <cc:Work
         rdf:about="">
        <dc:format>image/svg+xml</dc:format>
        <dc:type
           rdf:resource="http://purl.org/dc/dcmitype/StillImage" />
        <dc:title>Padiddle</dc:title>
        <dc:date>2018-07-30</dc:date>
        <dc:creator>
          <cc:Agent>
            <dc:title>Algot Runeman</dc:title>
          </cc:Agent>
        </dc:creator>
        <dc:rights>
          <cc:Agent>
            <dc:title>Algot Runeman</dc:title>
          </cc:Agent>
        </dc:rights>
        <dc:publisher>
          <cc:Agent>
            <dc:title>runeman.org</dc:title>
          </cc:Agent>
        </dc:publisher>
        <dc:identifier>padiddle.svg</dc:identifier>
        <dc:description>Word of the Day - padiddle 7/31</dc:description>
        <cc:license
           rdf:resource="http://creativecommons.org/publicdomain/zero/1.0/" />
      </cc:Work>
      <cc:License
         rdf:about="http://creativecommons.org/publicdomain/zero/1.0/">
        <cc:permits
           rdf:resource="http://creativecommons.org/ns#Reproduction" />
        <cc:permits
           rdf:resource="http://creativecommons.org/ns#Distribution" />
        <cc:permits
           rdf:resource="http://creativecommons.org/ns#DerivativeWorks" />
      </cc:License>
    </rdf:RDF>
  </metadata>
  <g
     inkscape:label="Layer 1"
     inkscape:groupmode="layer"
     id="layer1"
     transform="translate(244.99999,-147.56627)">
    <path
       style="fill:#333333;fill-rule:evenodd;stroke:#000000;stroke-width:1.13998294px;stroke-linecap:butt;stroke-linejoin:miter;stroke-opacity:1"
       d="m 68.214681,392.51123 c 0,0 157.530749,47.77355 157.530749,55.20105 l 0,7.42751 14.28295,0 4.28488,-11.14126 37.13566,5.57062 162.82559,-16.71187 119.97675,-31.56688 15.71125,3.71375 8.56976,0 0,-11.14126 14.28295,11.14126 101.40892,-38.99439 c 5.81938,-38.05121 -29.89098,-64.56639 -71.93205,-89.32304 z"
       id="path4367"
       inkscape:connector-curvature="0"
       sodipodi:nodetypes="csccccccccccccc" />
    <path
       style="opacity:1;fill:#000000;fill-opacity:1;stroke:#000000;stroke-width:0.49014562;stroke-linecap:round;stroke-linejoin:bevel;stroke-miterlimit:4;stroke-dasharray:none;stroke-dashoffset:0;stroke-opacity:1"
       d="M 134.03164,346.59552 C 98.23988,336.14893 61.528106,358.96866 52.033874,397.56389 70.891372,580.09242 276.6596,393.27509 134.03164,346.59552 Z"
       id="path4365"
       inkscape:connector-curvature="0"
       sodipodi:nodetypes="ccc" />
    <g
       id="g4312">
      <ellipse
         ry="50.507626"
         rx="43.689098"
         cy="429.09808"
         cx="360.87698"
         id="path4292"
         style="opacity:1;fill:#999999;fill-opacity:1;stroke:none;stroke-width:3;stroke-linecap:round;stroke-linejoin:bevel;stroke-miterlimit:4;stroke-dasharray:none;stroke-dashoffset:0;stroke-opacity:1" />
      <g
         transform="translate(6,0)"
         id="g4308">
        <ellipse
           style="opacity:1;fill:#000000;fill-opacity:1;stroke:#000000;stroke-width:0.83900231;stroke-linecap:round;stroke-linejoin:bevel;stroke-miterlimit:4;stroke-dasharray:none;stroke-dashoffset:0;stroke-opacity:1"
           id="ellipse4304"
           cx="360.87698"
           cy="429.09808"
           rx="64.513252"
           ry="74.581787" />
        <ellipse
           ry="74.581787"
           rx="64.513252"
           cy="429.09808"
           cx="338.87698"
           id="ellipse4306"
           style="opacity:1;fill:#000000;fill-opacity:1;stroke:#000000;stroke-width:0.83900231;stroke-linecap:round;stroke-linejoin:bevel;stroke-miterlimit:4;stroke-dasharray:none;stroke-dashoffset:0;stroke-opacity:1" />
      </g>
      <ellipse
         style="opacity:1;fill:#cccccc;fill-opacity:1;stroke:#000000;stroke-width:0.5;stroke-linecap:round;stroke-linejoin:bevel;stroke-miterlimit:4;stroke-dasharray:none;stroke-dashoffset:0;stroke-opacity:1"
         id="ellipse4294"
         cx="360.87698"
         cy="429.09808"
         rx="38.446407"
         ry="44.446709" />
      <g
         transform="matrix(0.56287958,0,0,0.56287958,283.46703,324.06119)"
         style="fill:#b3b3b3"
         id="g4285">
        <text
           xml:space="preserve"
           style="font-style:normal;font-weight:normal;font-size:19.3527565px;line-height:125%;font-family:sans-serif;text-align:center;letter-spacing:0px;word-spacing:0px;text-anchor:middle;fill:#b3b3b3;fill-opacity:1;stroke:none;stroke-width:1px;stroke-linecap:butt;stroke-linejoin:miter;stroke-opacity:1"
           x="120.41715"
           y="215.36151"
           id="text4272"
           sodipodi:linespacing="125%"
           transform="scale(1.1626251,0.86012252)"><tspan
             sodipodi:role="line"
             id="tspan4274"
             x="120.41715"
             y="215.36151">V</tspan></text>
        <text
           xml:space="preserve"
           style="font-style:normal;font-weight:normal;font-size:25.8036747px;line-height:125%;font-family:sans-serif;text-align:center;letter-spacing:0px;word-spacing:0px;text-anchor:middle;fill:#b3b3b3;fill-opacity:1;stroke:none;stroke-width:1px;stroke-linecap:butt;stroke-linejoin:miter;stroke-opacity:1"
           x="119.80277"
           y="231.94958"
           id="text4276"
           sodipodi:linespacing="125%"
           transform="scale(1.1626251,0.86012252)"><tspan
             sodipodi:role="line"
             id="tspan4278"
             x="119.80277"
             y="231.94958">W</tspan></text>
        <path
           style="opacity:1;fill:#b3b3b3;fill-opacity:1;stroke:none;stroke-width:3;stroke-linecap:round;stroke-linejoin:bevel;stroke-miterlimit:4;stroke-dasharray:none;stroke-dashoffset:0;stroke-opacity:1"
           d="m 138.92802,165.93276 a 19.642857,19.642857 0 0 0 -19.64258,19.64453 19.642857,19.642857 0 0 0 19.64258,19.64258 19.642857,19.642857 0 0 0 19.64257,-19.64258 19.642857,19.642857 0 0 0 -19.64257,-19.64453 z m 0,4.28711 a 15.357142,15.357142 0 0 1 15.35742,15.35742 15.357142,15.357142 0 0 1 -15.35742,15.35547 15.357142,15.357142 0 0 1 -15.35743,-15.35547 15.357142,15.357142 0 0 1 15.35743,-15.35742 z"
           id="path4280"
           inkscape:connector-curvature="0" />
      </g>
      <rect
         transform="matrix(0.98416224,-0.17727012,0.17727012,0.98416224,0,0)"
         ry="2.2637818"
         y="442.42908"
         x="276.06406"
         height="4.5275636"
         width="9.7516756"
         id="rect4296"
         style="opacity:1;fill:#000000;fill-opacity:1;stroke:#000000;stroke-width:0.3447738;stroke-linecap:round;stroke-linejoin:bevel;stroke-miterlimit:4;stroke-dasharray:none;stroke-dashoffset:0;stroke-opacity:1" />
      <rect
         transform="matrix(0.70710678,-0.70710678,0.70710678,0.70710678,0,0)"
         style="opacity:1;fill:#000000;fill-opacity:1;stroke:#000000;stroke-width:0.3447738;stroke-linecap:round;stroke-linejoin:bevel;stroke-miterlimit:4;stroke-dasharray:none;stroke-dashoffset:0;stroke-opacity:1"
         id="rect4298"
         width="9.7516756"
         height="4.5275636"
         x="-45.375557"
         y="517.16455"
         ry="2.2637818" />
      <rect
         ry="2.2637818"
         y="468.92905"
         x="-239.94412"
         height="4.5275636"
         width="9.7516756"
         id="rect4300"
         style="opacity:1;fill:#000000;fill-opacity:1;stroke:#000000;stroke-width:0.3447738;stroke-linecap:round;stroke-linejoin:bevel;stroke-miterlimit:4;stroke-dasharray:none;stroke-dashoffset:0;stroke-opacity:1"
         transform="matrix(0.4195865,-0.90771536,0.90771536,0.4195865,0,0)" />
      <rect
         style="opacity:1;fill:#000000;fill-opacity:1;stroke:#000000;stroke-width:0.3447738;stroke-linecap:round;stroke-linejoin:bevel;stroke-miterlimit:4;stroke-dasharray:none;stroke-dashoffset:0;stroke-opacity:1"
         id="rect4302"
         width="9.7516756"
         height="4.5275636"
         x="-406.46982"
         y="358.04498"
         ry="2.2637818"
         transform="matrix(0.08349013,-0.9965086,0.9965086,0.08349013,0,0)" />
    </g>
    <path
       style="fill:#666666;fill-rule:evenodd;stroke:#000000;stroke-width:1.04461825px;stroke-linecap:butt;stroke-linejoin:miter;stroke-opacity:1"
       d="m 235.03979,241.58968 26.11545,-41.03857 13.43081,-18.6539 11.9385,-8.20771 31.33854,-5.22309 23.87699,-1.49231 29.84623,0.74615 23.87699,1.49231 23.87699,3.73078 9.70002,4.47694 5.2231,5.22309 0,8.20771 -2.23848,15.66928 -6.7154,32.08469 -2.98462,8.95387 -8.95387,4.47695 -21.63852,-0.74616 -63.42325,-5.96925 -49.24629,-2.23847 z"
       id="path4197"
       inkscape:connector-curvature="0" />
    <g
       id="g4329"
       transform="matrix(0.64214488,0,0,0.79349562,419.92383,45.467779)">
      <ellipse
         style="opacity:1;fill:#999999;fill-opacity:1;stroke:none;stroke-width:3;stroke-linecap:round;stroke-linejoin:bevel;stroke-miterlimit:4;stroke-dasharray:none;stroke-dashoffset:0;stroke-opacity:1"
         id="ellipse4331"
         cx="360.87698"
         cy="429.09808"
         rx="43.689098"
         ry="50.507626" />
      <g
         id="g4333"
         transform="translate(6,0)">
        <ellipse
           ry="74.581787"
           rx="64.513252"
           cy="429.09808"
           cx="360.87698"
           id="ellipse4335"
           style="opacity:1;fill:#000000;fill-opacity:1;stroke:#000000;stroke-width:0.83900231;stroke-linecap:round;stroke-linejoin:bevel;stroke-miterlimit:4;stroke-dasharray:none;stroke-dashoffset:0;stroke-opacity:1" />
        <ellipse
           style="opacity:1;fill:#000000;fill-opacity:1;stroke:#000000;stroke-width:0.83900231;stroke-linecap:round;stroke-linejoin:bevel;stroke-miterlimit:4;stroke-dasharray:none;stroke-dashoffset:0;stroke-opacity:1"
           id="ellipse4337"
           cx="338.87698"
           cy="429.09808"
           rx="64.513252"
           ry="74.581787" />
      </g>
      <ellipse
         ry="44.446709"
         rx="38.446407"
         cy="429.09808"
         cx="360.87698"
         id="ellipse4339"
         style="opacity:1;fill:#cccccc;fill-opacity:1;stroke:#000000;stroke-width:0.5;stroke-linecap:round;stroke-linejoin:bevel;stroke-miterlimit:4;stroke-dasharray:none;stroke-dashoffset:0;stroke-opacity:1" />
      <g
         id="g4341"
         style="fill:#b3b3b3"
         transform="matrix(0.56287958,0,0,0.56287958,283.46703,324.06119)">
        <text
           transform="scale(1.1626251,0.86012252)"
           sodipodi:linespacing="125%"
           id="text4343"
           y="215.36151"
           x="120.41715"
           style="font-style:normal;font-weight:normal;font-size:19.3527565px;line-height:125%;font-family:sans-serif;text-align:center;letter-spacing:0px;word-spacing:0px;text-anchor:middle;fill:#b3b3b3;fill-opacity:1;stroke:none;stroke-width:1px;stroke-linecap:butt;stroke-linejoin:miter;stroke-opacity:1"
           xml:space="preserve"><tspan
             y="215.36151"
             x="120.41715"
             id="tspan4345"
             sodipodi:role="line">V</tspan></text>
        <text
           transform="scale(1.1626251,0.86012252)"
           sodipodi:linespacing="125%"
           id="text4347"
           y="231.94958"
           x="119.80277"
           style="font-style:normal;font-weight:normal;font-size:25.8036747px;line-height:125%;font-family:sans-serif;text-align:center;letter-spacing:0px;word-spacing:0px;text-anchor:middle;fill:#b3b3b3;fill-opacity:1;stroke:none;stroke-width:1px;stroke-linecap:butt;stroke-linejoin:miter;stroke-opacity:1"
           xml:space="preserve"><tspan
             y="231.94958"
             x="119.80277"
             id="tspan4349"
             sodipodi:role="line">W</tspan></text>
        <path
           inkscape:connector-curvature="0"
           id="path4351"
           d="m 138.92802,165.93276 a 19.642857,19.642857 0 0 0 -19.64258,19.64453 19.642857,19.642857 0 0 0 19.64258,19.64258 19.642857,19.642857 0 0 0 19.64257,-19.64258 19.642857,19.642857 0 0 0 -19.64257,-19.64453 z m 0,4.28711 a 15.357142,15.357142 0 0 1 15.35742,15.35742 15.357142,15.357142 0 0 1 -15.35742,15.35547 15.357142,15.357142 0 0 1 -15.35743,-15.35547 15.357142,15.357142 0 0 1 15.35743,-15.35742 z"
           style="opacity:1;fill:#b3b3b3;fill-opacity:1;stroke:none;stroke-width:3;stroke-linecap:round;stroke-linejoin:bevel;stroke-miterlimit:4;stroke-dasharray:none;stroke-dashoffset:0;stroke-opacity:1" />
      </g>
      <rect
         style="opacity:1;fill:#000000;fill-opacity:1;stroke:#000000;stroke-width:0.3447738;stroke-linecap:round;stroke-linejoin:bevel;stroke-miterlimit:4;stroke-dasharray:none;stroke-dashoffset:0;stroke-opacity:1"
         id="rect4353"
         width="9.7516756"
         height="4.5275636"
         x="276.06406"
         y="442.42908"
         ry="2.2637818"
         transform="matrix(0.98416224,-0.17727012,0.17727012,0.98416224,0,0)" />
      <rect
         ry="2.2637818"
         y="517.16455"
         x="-45.375557"
         height="4.5275636"
         width="9.7516756"
         id="rect4355"
         style="opacity:1;fill:#000000;fill-opacity:1;stroke:#000000;stroke-width:0.3447738;stroke-linecap:round;stroke-linejoin:bevel;stroke-miterlimit:4;stroke-dasharray:none;stroke-dashoffset:0;stroke-opacity:1"
         transform="matrix(0.70710678,-0.70710678,0.70710678,0.70710678,0,0)" />
      <rect
         transform="matrix(0.4195865,-0.90771536,0.90771536,0.4195865,0,0)"
         style="opacity:1;fill:#000000;fill-opacity:1;stroke:#000000;stroke-width:0.3447738;stroke-linecap:round;stroke-linejoin:bevel;stroke-miterlimit:4;stroke-dasharray:none;stroke-dashoffset:0;stroke-opacity:1"
         id="rect4357"
         width="9.7516756"
         height="4.5275636"
         x="-239.94412"
         y="468.92905"
         ry="2.2637818" />
      <rect
         transform="matrix(0.08349013,-0.9965086,0.9965086,0.08349013,0,0)"
         ry="2.2637818"
         y="358.04498"
         x="-406.46982"
         height="4.5275636"
         width="9.7516756"
         id="rect4359"
         style="opacity:1;fill:#000000;fill-opacity:1;stroke:#000000;stroke-width:0.3447738;stroke-linecap:round;stroke-linejoin:bevel;stroke-miterlimit:4;stroke-dasharray:none;stroke-dashoffset:0;stroke-opacity:1" />
    </g>
    <path
       style="fill:#808000;fill-rule:evenodd;stroke:#000000;stroke-width:1px;stroke-linecap:butt;stroke-linejoin:miter;stroke-opacity:1"
       d="m 56.428571,415.93363 -12.857142,-40 -2.857143,-27.85714 c 0,0 -0.154567,-8.93983 2,-13.71429 2.220335,-4.92021 10.142857,-12.71428 10.142857,-12.71428 l 15,-9.28572 30,-11.42857 -1.428571,-5 0,-6.42857 4.999998,-3.57143 15.71429,0 2.85714,0 31.42857,-15.71428 24.28572,-10 41.42857,-11.42857 13.57143,-2.14286 c 0,0 24.49476,-51.17345 44.28571,-70.71429 4.56193,-4.50428 10.55021,-7.44174 16.42857,-10 7.25718,-3.15832 15.13038,-4.71427 22.85714,-6.42857 14.36829,-3.18782 28.97637,-5.247 43.57143,-7.14286 12.33443,-1.60221 24.72728,-2.82407 37.14286,-3.57142 9.74716,-0.58673 19.52108,-0.77269 29.28571,-0.71429 13.10366,0.0784 26.20663,0.62263 39.28572,1.42857 10.9729,0.67616 21.92048,1.73856 32.85714,2.85714 12.16315,1.24402 24.4744,1.7191 36.42857,4.28572 13.91493,2.9876 27.91242,6.63917 40.71429,12.85714 11.40539,5.53969 22.32764,12.59998 31.42857,21.42857 4.64888,4.50977 7.85415,10.31302 11.42857,15.71429 5.36324,8.10433 15,25 15,25 l 15,33.57143 L 650,277.3622 c 0,0 10.29949,2.06176 15,4.28572 6.80591,3.22009 18.57143,12.85714 18.57143,12.85714 l 5,5.71429 7.14286,-1.42857 5.71428,10.71428 0,8.57143 -4.28571,3.57143 5,14.28571 2.14286,20 0.71428,25 -8.57143,-20 -10.71428,-30.71428 -15,-15.71429 -12.14286,-0.71428 -11.42857,9.28571 -12.14286,25 -7.14286,17.14286 0,27.14285 -2.85714,10 -9.28571,7.14286 -9.28572,-5.71428 L 445,430.21935 l -8.57143,4.28571 -7.85714,-0.71428 -11.42857,-55.71429 -18.57143,-30.71429 -15,-12.14285 -16.42857,0 -15.71429,5.71428 L 335,368.07649 l -27.14286,37.14286 -32.14285,24.28571 -36.42858,11.42857 -71.42857,-1.42857 -46.42857,-7.14286 -37.857141,-5 z"
       id="path3347"
       inkscape:connector-curvature="0"
       sodipodi:nodetypes="cccsccccccccccccsssssssssssscccscccccccccccccccccccccccccccccccccccc" />
    <path
       style="fill:none;fill-rule:evenodd;stroke:#000000;stroke-width:1px;stroke-linecap:butt;stroke-linejoin:miter;stroke-opacity:1"
       d="m 281.42857,248.79078 62.14286,7.14285 28.57143,5 12.14285,7.85715 -2.85714,6.42857 -15.71428,5 -39.28572,6.42857 -42.14286,12.85714 -25,15.71429 -22.85714,20.71428 -24.28571,28.57143 -18.57143,20 -17.14286,14.28572 -35,2.14285 L 105,390.21935 92.142857,361.64792 l 3.571429,-37.85714 11.428574,-25"
       id="path4201"
       inkscape:connector-curvature="0" />
    <path
       style="fill:#999999;fill-rule:evenodd;stroke:#000000;stroke-width:1px;stroke-linecap:butt;stroke-linejoin:miter;stroke-opacity:1"
       d="m 15.714286,380.93363 50,5 131.428574,6.42857 53.57143,3.57143 30.71428,-0.71428 0,7.85714 0,17.85714 -77.85714,3.57143 -74.28572,-3.57143 -62.142853,-3.57143 -36.428571,-6.42857 -11.428572,-3.57143 -5.714285,-27.85714 z"
       id="path3370"
       inkscape:connector-curvature="0" />
    <path
       style="fill:#666666;fill-rule:evenodd;stroke:none;stroke-width:1px;stroke-linecap:butt;stroke-linejoin:miter;stroke-opacity:1"
       d="m 15.714286,385.21935 91.428574,12.14285 97.14285,7.85715 77.85715,-1.42857 0,7.85714 -112.85715,0.71428 -74.999996,-3.57142 -56.428571,-5.71429 -19.285714,-4.28571 -5,-14.28572 z"
       id="path3368"
       inkscape:connector-curvature="0" />
    <path
       style="fill:#ffffff;fill-rule:evenodd;stroke:none;stroke-width:1px;stroke-linecap:butt;stroke-linejoin:miter;stroke-opacity:1"
       d="M 12.857143,380.21935 110,388.79078 l 86.42857,5 58.57143,1.42857 25.71429,0 0,5 -100,-4.28572 -79.28572,-5 -69.285713,-5 -20,0 z"
       id="path3372"
       inkscape:connector-curvature="0" />
    <path
       style="fill:#808000;fill-rule:evenodd;stroke:#000000;stroke-width:1px;stroke-linecap:butt;stroke-linejoin:miter;stroke-opacity:1"
       d="m 96.428572,301.64792 -2.142858,-12.85714 c 0,0 4.339496,-4.23326 7.142856,-5 C 107.41738,282.1528 120,285.21935 120,285.21935 l -9.28571,12.14285 -8.57143,4.28572 z"
       id="path3374"
       inkscape:connector-curvature="0"
       sodipodi:nodetypes="ccscccc" />
    <path
       style="fill:#808000;fill-rule:evenodd;stroke:#000000;stroke-width:1px;stroke-linecap:butt;stroke-linejoin:miter;stroke-opacity:1"
       d="m 296.42857,303.79078 0.71429,-12.14286 5,-3.57143 15,0 11.42857,2.14286 5,10 -13.57143,2.85714 -8.57143,3.57143 z"
       id="path3376"
       inkscape:connector-curvature="0" />
    <path
       style="fill:#80be00;fill-opacity:1;fill-rule:evenodd;stroke:none;stroke-width:1px;stroke-linecap:butt;stroke-linejoin:miter;stroke-opacity:1"
       d="m 314.28571,305.21935 0,-10.71429 -9.28571,-0.71428 -7.85714,-2.85715 0.71428,12.14286 z"
       id="path3378"
       inkscape:connector-curvature="0" />
    <path
       inkscape:connector-curvature="0"
       id="path4180"
       d="m 110.71428,299.50506 0,-8.57143 -7.42857,-0.57143 -6.285711,-2.28572 0.571424,9.71429 z"
       style="fill:#80be00;fill-opacity:1;fill-rule:evenodd;stroke:none;stroke-width:1px;stroke-linecap:butt;stroke-linejoin:miter;stroke-opacity:1" />
    <ellipse
       ry="26.071428"
       rx="19.141047"
       cy="347.71933"
       cx="61.42857"
       id="ellipse4189"
       style="opacity:1;fill:#808080;fill-opacity:1;stroke:none;stroke-width:4;stroke-linecap:round;stroke-linejoin:bevel;stroke-miterlimit:4;stroke-dasharray:none;stroke-dashoffset:0;stroke-opacity:1" />
    <ellipse
       ry="25.530458"
       rx="18.743879"
       cy="347.71933"
       cx="61.42857"
       id="ellipse4378"
       style="opacity:1;fill:#646400;fill-opacity:1;stroke:none;stroke-width:4;stroke-linecap:round;stroke-linejoin:bevel;stroke-miterlimit:4;stroke-dasharray:none;stroke-dashoffset:0;stroke-opacity:1" />
    <ellipse
       style="opacity:1;fill:#ffff00;fill-opacity:1;stroke:none;stroke-width:4;stroke-linecap:round;stroke-linejoin:bevel;stroke-miterlimit:4;stroke-dasharray:none;stroke-dashoffset:0;stroke-opacity:1"
       id="path4182"
       cx="67.428574"
       cy="347.71933"
       rx="16.518986"
       ry="22.5" />
    <path
       style="opacity:1;fill:#ffffff;fill-opacity:1;stroke:none;stroke-width:4;stroke-linecap:round;stroke-linejoin:bevel;stroke-miterlimit:4;stroke-dasharray:none;stroke-dashoffset:0;stroke-opacity:1"
       d="m 62.142578,317.36133 a 20.714285,28.214285 0 0 0 -1.912109,0.14648 20.714285,28.214285 0 0 1 18.626953,28.06836 20.714285,28.214285 0 0 1 -18.800781,28.07031 20.714285,28.214285 0 0 0 2.085937,0.14454 20.714285,28.214285 0 0 0 20.714844,-28.21485 20.714285,28.214285 0 0 0 -20.714844,-28.21484 z"
       id="ellipse4184"
       inkscape:connector-curvature="0" />
    <ellipse
       style="opacity:1;fill:#808080;fill-opacity:1;stroke:none;stroke-width:4;stroke-linecap:round;stroke-linejoin:bevel;stroke-miterlimit:4;stroke-dasharray:none;stroke-dashoffset:0;stroke-opacity:1"
       id="ellipse4191"
       cx="259.28571"
       cy="355.57648"
       rx="19.141047"
       ry="26.071428" />
    <ellipse
       style="opacity:1;fill:#646400;fill-opacity:1;stroke:none;stroke-width:4;stroke-linecap:round;stroke-linejoin:bevel;stroke-miterlimit:4;stroke-dasharray:none;stroke-dashoffset:0;stroke-opacity:1"
       id="ellipse4380"
       cx="258.40833"
       cy="352.77008"
       rx="18.743879"
       ry="25.530458" />
    <ellipse
       ry="22.5"
       rx="16.518986"
       cy="355.57648"
       cx="259.28571"
       id="ellipse4193"
       style="opacity:1;fill:#cccccc;fill-opacity:1;stroke:none;stroke-width:4;stroke-linecap:round;stroke-linejoin:bevel;stroke-miterlimit:4;stroke-dasharray:none;stroke-dashoffset:0;stroke-opacity:1" />
    <path
       id="path4195"
       d="m 259.99972,325.21847 a 20.714285,28.214285 0 0 0 -1.91211,0.14648 20.714285,28.214285 0 0 1 18.62696,28.06836 20.714285,28.214285 0 0 1 -18.80079,28.07031 20.714285,28.214285 0 0 0 2.08594,0.14454 20.714285,28.214285 0 0 0 20.71485,-28.21485 20.714285,28.214285 0 0 0 -20.71485,-28.21484 z"
       style="opacity:1;fill:#ffffff;fill-opacity:1;stroke:none;stroke-width:4;stroke-linecap:round;stroke-linejoin:bevel;stroke-miterlimit:4;stroke-dasharray:none;stroke-dashoffset:0;stroke-opacity:1"
       inkscape:connector-curvature="0" />
    <path
       inkscape:connector-curvature="0"
       id="path4199"
       d="m 239.98725,239.99293 24.81569,-38.99609 12.76236,-17.72551 11.34433,-7.79921 29.77883,-4.96314 22.68864,-1.41804 28.3608,0.70902 22.68864,1.41803 22.68864,3.5451 9.21726,4.25413 4.96314,4.96314 0,7.79921 -2.12707,14.88943 -6.38117,30.48785 -2.83608,8.50824 -8.50824,4.25413 -20.56158,-0.70902 -60.2667,-5.67217 -46.79532,-2.12706 z"
       style="fill:#cccccc;fill-rule:evenodd;stroke:#000000;stroke-width:0.99262798px;stroke-linecap:butt;stroke-linejoin:miter;stroke-opacity:1" />
    <path
       style="fill:#646400;fill-opacity:1;fill-rule:evenodd;stroke:none;stroke-width:1px;stroke-linecap:butt;stroke-linejoin:miter;stroke-opacity:1;filter:url(#filter4239)"
       d="m 275,255.21935 c 0,0 -41.45736,5.87624 -60.71429,13.57143 -12.89199,5.15172 -25.64939,11.86606 -35.71428,21.42857 -13.30901,12.6447 -23.62149,28.78176 -30.71429,45.71428 -4.13138,9.86276 -6.42857,31.42857 -6.42857,31.42857 L 130,368.79078 c 0,0 -5.37122,-12.79041 -4.28571,-19.28572 1.42698,-8.53856 8.75166,-14.95167 13.57142,-22.14286 8.53747,-12.73809 16.22773,-26.37219 27.14286,-37.14285 7.90023,-7.79566 23.57143,-19.28572 27.14286,-19.28572 3.57143,0 53.57143,-14.28571 53.57143,-14.28571 z"
       id="path4203"
       inkscape:connector-curvature="0"
       sodipodi:nodetypes="csssccsssscc" />
    <g
       id="g4209"
       transform="matrix(0.62315371,0,0,0.4913977,189.97504,50.272717)">
      <path
         sodipodi:nodetypes="ssssccsss"
         inkscape:connector-curvature="0"
         id="path4205"
         d="m 592.85714,466.64792 c 2.77619,0.71607 5.27391,3.59555 5.71429,6.42857 0.36018,2.31714 -4.52843,2.91155 -6.42857,4.28571 -7.7557,5.60884 -15.44206,5.50573 -25,5 C 561.31404,482.05378 550,478.79078 550,478.79078 l 2.14286,-5 c 0,0 9.00718,2.5206 13.57143,2.14285 5.2525,-0.43471 10.01481,-3.28954 15,-5 4.05999,-1.39301 7.98656,-5.35775 12.14285,-4.28571 z"
         style="fill:#cccccc;fill-rule:evenodd;stroke:#000000;stroke-width:0.5;stroke-linecap:butt;stroke-linejoin:miter;stroke-opacity:1" />
      <path
         style="fill:#ffffff;fill-rule:evenodd;stroke:none;stroke-width:0.83208293px;stroke-linecap:butt;stroke-linejoin:miter;stroke-opacity:1"
         d="m 591.34783,467.94096 c 2.55172,0.5011 4.84748,2.51612 5.25225,4.49864 0.33106,1.6215 -4.16227,2.03747 -5.90878,2.99908 -7.1286,3.925 -14.19347,3.85285 -22.97859,3.49895 -5.35753,-0.21583 -15.75675,-2.49925 -15.75675,-2.49925 l 1.9696,-3.49893 c 0,0 8.27889,1.76389 12.47409,1.49954 4.82781,-0.30421 9.20505,-2.30199 13.78716,-3.49894 3.73171,-0.97481 7.3408,-3.74929 11.16102,-2.99909 z"
         id="path4207"
         inkscape:connector-curvature="0"
         sodipodi:nodetypes="ssssccsss" />
    </g>
    <g
       transform="matrix(-0.16128405,0.60192027,-0.47465373,-0.1271831,453.1577,63.283308)"
       id="g4213">
      <path
         style="fill:#cccccc;fill-rule:evenodd;stroke:#000000;stroke-width:0.5;stroke-linecap:butt;stroke-linejoin:miter;stroke-opacity:1"
         d="m 592.85714,466.64792 c 2.77619,0.71607 5.27391,3.59555 5.71429,6.42857 0.36018,2.31714 -4.52843,2.91155 -6.42857,4.28571 -7.7557,5.60884 -15.44206,5.50573 -25,5 C 561.31404,482.05378 550,478.79078 550,478.79078 l 2.14286,-5 c 0,0 9.00718,2.5206 13.57143,2.14285 5.2525,-0.43471 10.01481,-3.28954 15,-5 4.05999,-1.39301 7.98656,-5.35775 12.14285,-4.28571 z"
         id="path4215"
         inkscape:connector-curvature="0"
         sodipodi:nodetypes="ssssccsss" />
      <path
         sodipodi:nodetypes="ssssccsss"
         inkscape:connector-curvature="0"
         id="path4217"
         d="m 591.34783,467.94096 c 2.55172,0.5011 4.84748,2.51612 5.25225,4.49864 0.33106,1.6215 -4.16227,2.03747 -5.90878,2.99908 -7.1286,3.925 -14.19347,3.85285 -22.97859,3.49895 -5.35753,-0.21583 -15.75675,-2.49925 -15.75675,-2.49925 l 1.9696,-3.49893 c 0,0 8.27889,1.76389 12.47409,1.49954 4.82781,-0.30421 9.20505,-2.30199 13.78716,-3.49894 3.73171,-0.97481 7.3408,-3.74929 11.16102,-2.99909 z"
         style="fill:#ffffff;fill-rule:evenodd;stroke:none;stroke-width:0.83208293px;stroke-linecap:butt;stroke-linejoin:miter;stroke-opacity:1" />
    </g>
    <path
       style="fill:#6e6e00;fill-opacity:1;fill-rule:evenodd;stroke:#000000;stroke-width:1px;stroke-linecap:butt;stroke-linejoin:miter;stroke-opacity:1"
       d="m 432.85714,251.64792 9.28572,-43.57143 10.71428,-20 25,-10.71429 52.14286,-3.57142 36.42857,4.28571 25,12.14286 27.14286,23.57143 12.85714,29.28571 0,18.57143 -19.28571,4.28571 -84.28572,3.57143 -83.57143,3.57143 -7.85714,-10.71429 z"
       id="path4251"
       inkscape:connector-curvature="0" />
    <path
       style="fill:#cccccc;fill-rule:evenodd;stroke:#000000;stroke-width:1px;stroke-linecap:butt;stroke-linejoin:miter;stroke-opacity:1"
       d="m 440,252.3622 c -1.98312,-7.37183 -0.0847,-15.37471 1.42857,-22.85714 1.00008,-4.94503 3.47301,-9.4772 5,-14.28571 1.57388,-4.95618 3.37522,-10.69073 6.28572,-15 3.03885,-4.49931 5.96576,-7.64355 10.85714,-10 6.39918,-3.08284 13.69681,-3.90066 20.71428,-5 6.36851,-0.99767 12.84394,-1.19031 19.28572,-1.42857 8.32764,-0.30801 17.02423,-2.41487 25,0 2.46489,0.74631 4.75453,2.32861 6.42857,4.28571 2.21589,2.59058 3.31463,6.01794 4.28571,9.28571 2.81038,9.45713 3.21925,19.47765 4.28572,29.28572 1.08373,9.96673 7.71122,21.66312 2.14286,30 -1.25457,1.87833 -4.20165,1.7649 -6.42858,2.14286 -16.19864,2.74929 -32.93114,3.13868 -49.28571,4.71428 -9.39062,0.9047 -18.43109,0.61027 -27.85714,1 -5.01834,0.20749 -10.68914,1.14888 -15,-1.42857 C 443.45881,260.8738 441.11505,256.50716 440,252.3622 Z"
       id="path4245"
       inkscape:connector-curvature="0"
       sodipodi:nodetypes="sssssssssssssssss" />
    <path
       style="fill:#cccccc;fill-rule:evenodd;stroke:#000000;stroke-width:1px;stroke-linecap:butt;stroke-linejoin:miter;stroke-opacity:1"
       d="m 550,186.64792 5,32.14286 7.14286,33.57142 2.14285,3.57143 50.71429,0.71429 3.57143,-5.71429 c 0,0 2.24146,-8.62237 1.42857,-12.85714 -1.52608,-7.95009 -6.42728,-15.06304 -11.42857,-21.42857 -5.52152,-7.02767 -12.60486,-12.83845 -20,-17.85714 -6.16742,-4.18551 -12.8561,-7.87391 -20,-10 C 562.59877,187.01326 550,186.64792 550,186.64792 Z"
       id="path4247"
       inkscape:connector-curvature="0"
       sodipodi:nodetypes="ccccccssssc" />
    <path
       style="fill:#ff0000;fill-rule:evenodd;stroke:none;stroke-width:1px;stroke-linecap:butt;stroke-linejoin:miter;stroke-opacity:1"
       d="m 688.57143,301.64792 7.85714,20 4.28572,-2.14286 0.71428,-11.42857 -5.71428,-8.57143 z"
       id="path4249"
       inkscape:connector-curvature="0" />
    <path
       inkscape:connector-curvature="0"
       id="path4255"
       d="m 440,410.93363 5.71428,19.28572 L 610,401.64792 600.71429,390.21935 Z"
       style="fill:#808080;fill-rule:evenodd;stroke:#000000;stroke-width:1px;stroke-linecap:butt;stroke-linejoin:miter;stroke-opacity:1"
       sodipodi:nodetypes="ccccc" />
    <path
       style="fill:#4d4d4d;fill-rule:evenodd;stroke:#000000;stroke-width:1px;stroke-linecap:butt;stroke-linejoin:miter;stroke-opacity:1"
       d="m 440,410.93363 4.28571,17.14286 164.28572,-32.14286 -7.85714,-5.71428 z"
       id="path4253"
       inkscape:connector-curvature="0" />
    <path
       style="fill:none;fill-rule:evenodd;stroke:#000000;stroke-width:3;stroke-linecap:butt;stroke-linejoin:miter;stroke-opacity:1"
       d="m 649.80566,277.78063 c 0,0 -15.78522,3.46878 -21.23423,8.86729 -3.86441,3.8286 -11.47933,20.05076 -11.47933,20.05076 l -5.66353,19.23495 -7.85714,36.42857 -4.28572,26.42858"
       id="path4257"
       inkscape:connector-curvature="0"
       sodipodi:nodetypes="cscccc" />
    <path
       style="fill:none;fill-rule:evenodd;stroke:#000000;stroke-width:1px;stroke-linecap:butt;stroke-linejoin:miter;stroke-opacity:1"
       d="m 430,277.3622 c 0,0 2.87961,29.49314 2.85714,44.28572 -0.0268,17.6592 -1.16693,35.3099 0.42857,52.85714 1.05061,11.55459 6,34.28572 6,34.28572 L 570,393.07649 560,270.21935 Z"
       id="path4259"
       inkscape:connector-curvature="0"
       sodipodi:nodetypes="csscccc" />
    <path
       style="fill:#000000;fill-rule:evenodd;stroke:#000000;stroke-width:1px;stroke-linecap:butt;stroke-linejoin:miter;stroke-opacity:1"
       d="m 255.71429,229.50506 55.71428,7.14286 0,17.14286 -11.42857,1.42857 -2.85714,-11.42857 -44.28572,-8.57143 z"
       id="path4361"
       inkscape:connector-curvature="0" />
    <path
       inkscape:connector-curvature="0"
       id="path4363"
       d="m 325.71429,235.21935 55.71428,7.14286 0,17.14286 -11.42857,1.42857 -2.85714,-11.42857 -44.28572,-8.57143 z"
       style="fill:#000000;fill-rule:evenodd;stroke:#000000;stroke-width:1px;stroke-linecap:butt;stroke-linejoin:miter;stroke-opacity:1" />
    <path
       style="fill:#808000;fill-rule:evenodd;stroke:#000000;stroke-width:1px;stroke-linecap:butt;stroke-linejoin:miter;stroke-opacity:1"
       d="m 437.85714,264.50506 4.28572,-6.42857 3.57143,1.42857 2.14285,4.28572 20.71429,-2.14286 4.28571,-2.14286 -2.14285,-12.85714 -4.28572,-7.14286 -3.57143,0 -20,5 -2.14285,5.71429 -10,3.57143 z"
       id="path4243"
       inkscape:connector-curvature="0" />
    <path
       style="fill:#000000;fill-rule:evenodd;stroke:#000000;stroke-width:1px;stroke-linecap:butt;stroke-linejoin:miter;stroke-opacity:1"
       d="m 334.36049,502.83922 44.44671,0 -21.2132,-12.12183 z"
       id="path4390"
       inkscape:connector-curvature="0" />
    <path
       inkscape:connector-curvature="0"
       style="opacity:1;fill:#ffffff;fill-opacity:1;stroke:none;stroke-width:4;stroke-linecap:round;stroke-linejoin:bevel;stroke-miterlimit:4;stroke-dasharray:none;stroke-dashoffset:0;stroke-opacity:1"
       d="m 260.44588,334.30984 a 20.714285,22.658556 0 0 1 1.91211,0.11764 20.714285,22.658556 0 0 0 -18.62696,22.54136 20.714285,22.658556 0 0 0 18.80079,22.54293 20.714285,22.658556 0 0 1 -2.08594,0.11608 20.714285,22.658556 0 0 1 -20.71485,-22.65901 20.714285,22.658556 0 0 1 20.71485,-22.659 z"
       id="path4392" />
    <path
       id="path4394"
       d="m 68.516896,324.20831 a 20.714285,22.658556 0 0 1 1.91211,0.11764 20.714285,22.658556 0 0 0 -18.62696,22.54136 20.714285,22.658556 0 0 0 18.80079,22.54293 20.714285,22.658556 0 0 1 -2.08594,0.11608 20.714285,22.658556 0 0 1 -20.71485,-22.65901 20.714285,22.658556 0 0 1 20.71485,-22.659 z"
       style="opacity:1;fill:#ffffff;fill-opacity:1;stroke:none;stroke-width:4;stroke-linecap:round;stroke-linejoin:bevel;stroke-miterlimit:4;stroke-dasharray:none;stroke-dashoffset:0;stroke-opacity:1"
       inkscape:connector-curvature="0" />
    <ellipse
       style="opacity:1;fill:#ffff30;fill-opacity:1;stroke:none;stroke-width:0.5;stroke-linecap:round;stroke-linejoin:bevel;stroke-miterlimit:4;stroke-dasharray:none;stroke-dashoffset:0;stroke-opacity:1"
       id="path4417"
       cx="-142.14285"
       cy="484.0994"
       rx="102.85714"
       ry="100" />
    <path
       style="fill:#ffff00;fill-rule:evenodd;stroke:none;stroke-width:1px;stroke-linecap:butt;stroke-linejoin:miter;stroke-opacity:1"
       d="m 49.285714,332.67081 -228.571424,60 L -105,578.3851 66.428571,369.81367 Z"
       id="path4419"
       inkscape:connector-curvature="0" />
  </g>
</svg>
