<?xml version="1.0" standalone="no"?>
<!DOCTYPE svg PUBLIC "-//W3C//DTD SVG 20010904//EN"
 "http://www.w3.org/TR/2001/REC-SVG-20010904/DTD/svg10.dtd">
<svg version="1.0" xmlns="http://www.w3.org/2000/svg"
 width="482.000000pt" height="458.000000pt" viewBox="0 0 482.000000 458.000000"
 preserveAspectRatio="xMidYMid meet">

<g transform="translate(0.000000,458.000000) scale(0.100000,-0.100000)"
fill="#000000" stroke="none">
<path d="M2165 4293 c-739 -94 -1354 -599 -1584 -1300 -72 -218 -86 -314 -86
-588 0 -211 3 -254 23 -355 155 -762 730 -1345 1487 -1506 165 -35 486 -45
650 -19 421 64 773 242 1071 539 251 252 417 544 504 885 68 269 68 643 0 912
-86 336 -254 633 -500 880 -295 296 -666 485 -1071 544 -98 14 -408 19 -494 8z
m510 -93 c387 -63 719 -235 1002 -519 251 -250 419 -566 495 -926 20 -98 23
-137 23 -355 -1 -269 -11 -344 -77 -548 -178 -557 -623 -1002 -1179 -1180
-204 -65 -280 -76 -544 -77 -267 0 -339 9 -541 71 -566 171 -1030 631 -1203
1191 -59 189 -73 281 -78 499 -6 221 7 338 53 514 178 667 731 1186 1404 1319
138 27 146 28 350 29 133 2 204 -3 295 -18z"/>
<path d="M2224 3034 c-108 -33 -191 -128 -209 -241 -7 -47 -9 -47 123 -58 71
-7 72 -7 72 16 1 47 36 105 75 123 45 22 117 16 148 -12 26 -23 47 -74 47
-114 -1 -68 -36 -118 -213 -298 -95 -96 -187 -198 -205 -226 -35 -55 -72 -153
-72 -191 l0 -23 345 0 345 0 0 100 0 100 -195 0 c-109 0 -195 4 -195 9 0 5 37
44 83 87 185 177 232 229 267 299 32 63 35 77 35 154 0 65 -5 96 -20 126 -27
54 -87 112 -143 137 -63 28 -216 34 -288 12z"/>
</g>
</svg>
