<?xml version="1.0" encoding="UTF-8"?>
<!DOCTYPE svg PUBLIC "-//W3C//DTD SVG 1.1//EN" "http://www.w3.org/Graphics/SVG/1.1/DTD/svg11.dtd">
<svg version="1.1" xmlns="http://www.w3.org/2000/svg" xmlns:xlink="http://www.w3.org/1999/xlink" x="0" y="0" width="560" height="344" viewBox="0, 0, 560, 344">
  <defs>
    <clipPath id="Clip_1">
      <path d="M78.913,166.801 L40.377,231.675 C40.377,231.675 96.793,274.194 179.771,255.189 L163.297,178.618 z"/>
    </clipPath>
    <clipPath id="Clip_2">
      <path d="M480.689,166.801 L519.225,231.675 C519.225,231.675 462.809,274.194 379.831,255.189 L396.305,178.618 z"/>
    </clipPath>
    <clipPath id="Clip_3">
      <path d="M238.454,201.528 L212.213,272.279 C212.213,272.279 275.357,303.949 353.561,270.347 L323.59,197.983 z"/>
    </clipPath>
  </defs>
  <g id="Layer_1">
    <path d="M82.497,171 L30.739,182.661 C30.739,182.661 20.855,170.209 11.12,174.556 C1.383,178.921 11.568,196.831 19.82,201.216 C19.82,201.216 16.198,208.403 21.159,211.04 C26.11,213.676 36.227,206.977 36.227,206.977 L80.016,203.569" fill="#7EB959"/>
    <path d="M82.497,171 L30.739,182.661 C30.739,182.661 20.855,170.209 11.12,174.556 C1.383,178.921 11.568,196.831 19.82,201.216 C19.82,201.216 16.198,208.403 21.159,211.04 C26.11,213.676 36.227,206.977 36.227,206.977 L80.016,203.569" fill-opacity="0" stroke="#3C2C1E" stroke-width="10" stroke-linecap="round" stroke-linejoin="round"/>
    <path d="M89.86,240.63 L86.568,281.459 C86.568,281.459 94.723,286.723 96.081,292.661 C98.482,303.266 68.346,304.175 65.23,301.264 C62.135,298.324 60.3,230.844 60.3,230.844" fill="#7EB959"/>
    <path d="M89.86,240.63 L86.568,281.459 C86.568,281.459 94.723,286.723 96.081,292.661 C98.482,303.266 68.346,304.175 65.23,301.264 C62.135,298.324 60.3,230.844 60.3,230.844" fill-opacity="0" stroke="#3C2C1E" stroke-width="10" stroke-linecap="round" stroke-linejoin="round"/>
    <path d="M158.961,184.79 L204.03,212.798 C204.03,212.798 217.477,204.271 225.241,211.577 C233.004,218.882 217.506,232.466 208.277,233.901 C208.277,233.901 209.333,241.88 203.775,242.738 C198.239,243.608 190.866,233.959 190.866,233.959 L150.641,216.382" fill="#7EB959"/>
    <path d="M158.961,184.79 L204.03,212.798 C204.03,212.798 217.477,204.271 225.241,211.577 C233.004,218.882 217.506,232.466 208.277,233.901 C208.277,233.901 209.333,241.88 203.775,242.738 C198.239,243.608 190.866,233.959 190.866,233.959 L150.641,216.382" fill-opacity="0" stroke="#3C2C1E" stroke-width="10" stroke-linecap="round" stroke-linejoin="round"/>
    <path d="M128.15,247.094 L117.868,286.743 C117.868,286.743 108.424,289.038 105.202,294.204 C99.45,303.423 127.624,314.175 131.52,312.436 C135.417,310.687 159.264,247.533 159.264,247.533" fill="#7EB959"/>
    <path d="M128.15,247.094 L117.868,286.743 C117.868,286.743 108.424,289.038 105.202,294.204 C99.45,303.423 127.624,314.175 131.52,312.436 C135.417,310.687 159.264,247.533 159.264,247.533" fill-opacity="0" stroke="#3C2C1E" stroke-width="10" stroke-linecap="round" stroke-linejoin="round"/>
    <g clip-path="url(#Clip_1)">
      <path d="M78.913,166.801 L40.377,231.675 C40.377,231.675 96.793,274.194 179.771,255.189 L163.297,178.618" fill="#60A7CF"/>
      <path d="M78.913,166.801 L40.377,231.675 C40.377,231.675 96.793,274.194 179.771,255.189 L163.297,178.618" fill-opacity="0" stroke="#3C2C1E" stroke-width="10" stroke-linecap="round" stroke-linejoin="round"/>
    </g>
    <path d="M78.913,166.801 L40.377,231.675 C40.377,231.675 96.793,274.194 179.771,255.189 L163.297,178.618" fill-opacity="0" stroke="#3C2C1E" stroke-width="10" stroke-linecap="round" stroke-linejoin="round"/>
    <path d="M477.105,171 L528.863,182.661 C528.863,182.661 538.747,170.209 548.482,174.556 C558.219,178.921 548.034,196.831 539.771,201.216 C539.771,201.216 543.404,208.403 538.443,211.04 C533.493,213.676 523.375,206.977 523.375,206.977 L479.586,203.569" fill="#7EB959"/>
    <path d="M477.105,171 L528.863,182.661 C528.863,182.661 538.747,170.209 548.482,174.556 C558.219,178.921 548.034,196.831 539.771,201.216 C539.771,201.216 543.404,208.403 538.443,211.04 C533.493,213.676 523.375,206.977 523.375,206.977 L479.586,203.569" fill-opacity="0" stroke="#3C2C1E" stroke-width="10" stroke-linecap="round" stroke-linejoin="round"/>
    <path d="M469.743,240.63 L473.034,281.459 C473.034,281.459 464.88,286.723 463.521,292.661 C461.12,303.266 491.256,304.175 494.372,301.264 C497.467,298.324 499.303,230.844 499.303,230.844" fill="#7EB959"/>
    <path d="M469.743,240.63 L473.034,281.459 C473.034,281.459 464.88,286.723 463.521,292.661 C461.12,303.266 491.256,304.175 494.372,301.264 C497.467,298.324 499.303,230.844 499.303,230.844" fill-opacity="0" stroke="#3C2C1E" stroke-width="10" stroke-linecap="round" stroke-linejoin="round"/>
    <path d="M400.641,184.79 L355.573,212.798 C355.573,212.798 342.125,204.271 334.361,211.577 C326.598,218.882 342.096,232.466 351.325,233.901 C351.325,233.901 350.27,241.88 355.827,242.738 C361.363,243.608 368.736,233.959 368.736,233.959 L408.961,216.382" fill="#7EB959"/>
    <path d="M400.641,184.79 L355.573,212.798 C355.573,212.798 342.125,204.271 334.361,211.577 C326.598,218.882 342.096,232.466 351.325,233.901 C351.325,233.901 350.27,241.88 355.827,242.738 C361.363,243.608 368.736,233.959 368.736,233.959 L408.961,216.382" fill-opacity="0" stroke="#3C2C1E" stroke-width="10" stroke-linecap="round" stroke-linejoin="round"/>
    <path d="M431.452,247.094 L441.734,286.743 C441.734,286.743 451.178,289.038 454.4,294.204 C460.152,303.423 431.979,314.175 428.083,312.436 C424.186,310.687 400.338,247.533 400.338,247.533" fill="#7EB959"/>
    <path d="M431.452,247.094 L441.734,286.743 C441.734,286.743 451.178,289.038 454.4,294.204 C460.152,303.423 431.979,314.175 428.083,312.436 C424.186,310.687 400.338,247.533 400.338,247.533" fill-opacity="0" stroke="#3C2C1E" stroke-width="10" stroke-linecap="round" stroke-linejoin="round"/>
    <g clip-path="url(#Clip_2)">
      <path d="M480.689,166.801 L519.225,231.675 C519.225,231.675 462.809,274.194 379.831,255.189 L396.305,178.618" fill="#EB929A"/>
      <path d="M480.689,166.801 L519.225,231.675 C519.225,231.675 462.809,274.194 379.831,255.189 L396.305,178.618" fill-opacity="0" stroke="#3C2C1E" stroke-width="10" stroke-linecap="round" stroke-linejoin="round"/>
    </g>
    <path d="M480.689,166.801 L519.225,231.675 C519.225,231.675 462.809,274.194 379.831,255.189 L396.305,178.618" fill-opacity="0" stroke="#3C2C1E" stroke-width="10" stroke-linecap="round" stroke-linejoin="round"/>
    <path d="M242.741,205.014 L193.922,225.796 C193.922,225.796 181.95,215.317 173.17,221.352 C164.372,227.387 177.614,243.168 186.52,246.01 C186.52,246.01 184.254,253.735 189.596,255.434 C194.938,257.133 203.688,248.725 203.688,248.725 L246.148,237.505" fill="#7EB959"/>
    <path d="M242.741,205.014 L193.922,225.796 C193.922,225.796 181.95,215.317 173.17,221.352 C164.372,227.387 177.614,243.168 186.52,246.01 C186.52,246.01 184.254,253.735 189.596,255.434 C194.938,257.133 203.688,248.725 203.688,248.725 L246.148,237.505" fill-opacity="0" stroke="#3C2C1E" stroke-width="10" stroke-linecap="round" stroke-linejoin="round"/>
    <path d="M262.497,272.182 L266.607,312.954 C266.607,312.954 275.573,316.644 277.975,322.25 C282.252,332.25 252.76,338.559 249.175,336.255 C245.602,333.931 231.667,267.875 231.667,267.875" fill="#7EB959"/>
    <path d="M262.497,272.182 L266.607,312.954 C266.607,312.954 275.573,316.644 277.975,322.25 C282.252,332.25 252.76,338.559 249.175,336.255 C245.602,333.931 231.667,267.875 231.667,267.875" fill-opacity="0" stroke="#3C2C1E" stroke-width="10" stroke-linecap="round" stroke-linejoin="round"/>
    <path d="M320.436,204.829 L369.8,224.281 C369.8,224.281 381.5,213.48 390.456,219.262 C399.4,225.053 386.607,241.196 377.77,244.271 C377.77,244.271 380.241,251.937 374.938,253.783 C369.645,255.639 360.661,247.466 360.661,247.466 L317.936,237.396" fill="#7EB959"/>
    <path d="M320.436,204.829 L369.8,224.281 C369.8,224.281 381.5,213.48 390.456,219.262 C399.4,225.053 386.607,241.196 377.77,244.271 C377.77,244.271 380.241,251.937 374.938,253.783 C369.645,255.639 360.661,247.466 360.661,247.466 L317.936,237.396" fill-opacity="0" stroke="#3C2C1E" stroke-width="10" stroke-linecap="round" stroke-linejoin="round"/>
    <path d="M301.325,271.665 L298.346,312.514 C298.346,312.514 289.469,316.459 287.213,322.133 C283.219,332.23 312.877,337.738 316.393,335.337 C319.909,332.915 332.018,266.498 332.018,266.498" fill="#7EB959"/>
    <path d="M301.325,271.665 L298.346,312.514 C298.346,312.514 289.469,316.459 287.213,322.133 C283.219,332.23 312.877,337.738 316.393,335.337 C319.909,332.915 332.018,266.498 332.018,266.498" fill-opacity="0" stroke="#3C2C1E" stroke-width="10" stroke-linecap="round" stroke-linejoin="round"/>
    <g clip-path="url(#Clip_3)">
      <path d="M238.454,201.528 L212.213,272.279 C212.213,272.279 275.357,303.949 353.561,270.347 L323.59,197.983" fill="#EDC551"/>
      <path d="M238.454,201.528 L212.213,272.279 C212.213,272.279 275.357,303.949 353.561,270.347 L323.59,197.983" fill-opacity="0" stroke="#3C2C1E" stroke-width="10" stroke-linecap="round" stroke-linejoin="round"/>
    </g>
    <path d="M238.454,201.528 L212.213,272.279 C212.213,272.279 275.357,303.949 353.561,270.347 L323.59,197.983" fill-opacity="0" stroke="#3C2C1E" stroke-width="10" stroke-linecap="round" stroke-linejoin="round"/>
    <path d="M533.639,66.957 C530.827,62.983 510.368,67.689 494.264,72.143 C490.553,35.893 459.938,7.632 422.711,7.632 C386.657,7.632 356.891,34.165 351.667,68.764 C346.452,34.165 316.667,7.632 280.611,7.632 C241.393,7.632 209.566,39.038 208.756,78.041 L207.896,78.041 C207.066,39.038 175.241,7.632 136.021,7.632 C98.355,7.632 67.497,36.605 64.391,73.462 C47.916,68.725 23.415,62.582 20.29,66.957 C15.553,73.608 -18.91,204.516 276.969,205.63 C572.868,204.516 538.384,73.608 533.639,66.957" fill="#7EB959"/>
    <path d="M533.639,66.957 C530.827,62.983 510.368,67.689 494.264,72.143 C490.553,35.893 459.938,7.632 422.711,7.632 C386.657,7.632 356.891,34.165 351.667,68.764 C346.452,34.165 316.667,7.632 280.611,7.632 C241.393,7.632 209.566,39.038 208.756,78.041 L207.896,78.041 C207.066,39.038 175.241,7.632 136.021,7.632 C98.355,7.632 67.497,36.605 64.391,73.462 C47.916,68.725 23.415,62.582 20.29,66.957 C15.553,73.608 -18.91,204.516 276.969,205.63 C572.868,204.516 538.384,73.608 533.639,66.957 z" fill-opacity="0" stroke="#3C2C1E" stroke-width="10" stroke-linecap="round" stroke-linejoin="round"/>
    <path d="M69.713,83.891 L55.055,98.54 M211.734,95.161 L209.479,115.454 M353.756,89.536 L353.756,104.184 M492.398,86.137 L503.668,97.416" fill-opacity="0" stroke="#6A9543" stroke-width="10" stroke-linecap="round" stroke-linejoin="round"/>
    <path d="M117.398,106.528 C117.398,118.812 107.428,128.764 95.143,128.764 C82.857,128.764 72.896,118.812 72.896,106.528 C72.896,94.223 82.857,84.271 95.143,84.271 C107.428,84.271 117.398,94.223 117.398,106.528" fill="#EA8E98"/>
    <path d="M91.393,93.12 C92.125,94.8 90.611,97.084 87.975,98.266 C85.348,99.437 82.604,99.057 81.861,97.406 C81.13,95.717 82.663,93.413 85.28,92.26 C87.907,91.059 90.65,91.459 91.393,93.12" fill="#FFFFFE"/>
    <path d="M196.52,106.528 C196.52,118.812 186.55,128.764 174.264,128.764 C161.979,128.764 152.008,118.812 152.008,106.528 C152.008,94.223 161.979,84.271 174.264,84.271 C186.55,84.271 196.52,94.223 196.52,106.528" fill="#EA8E98"/>
    <path d="M170.523,93.12 C171.266,94.8 169.732,97.084 167.105,98.266 C164.459,99.437 161.734,99.057 160.993,97.406 C160.23,95.717 161.764,93.413 164.411,92.26 C167.027,91.059 169.771,91.459 170.523,93.12" fill="#FFFFFE"/>
    <path d="M120.7,88.666 C120.7,94.74 117.564,99.653 113.688,99.653 C109.811,99.653 106.675,94.74 106.675,88.666 C106.675,82.602 109.811,77.671 113.688,77.671 C117.564,77.671 120.7,82.602 120.7,88.666" fill="#3C2C1E"/>
    <path d="M159.713,88.666 C159.713,94.74 156.568,99.653 152.702,99.653 C148.825,99.653 145.689,94.74 145.689,88.666 C145.689,82.602 148.825,77.671 152.702,77.671 C156.568,77.671 159.713,82.602 159.713,88.666" fill="#3C2C1E"/>
    <path d="M107.506,109.809 L156.675,109.271 C156.675,109.271 153.385,135.649 130.855,134.829 C108.336,133.998 107.506,109.809 107.506,109.809" fill="#E05659"/>
    <path d="M107.506,109.809 L156.675,109.271 C156.675,109.271 153.385,135.649 130.855,134.829 C108.336,133.998 107.506,109.809 107.506,109.809 z" fill-opacity="0" stroke="#3C2C1E" stroke-width="10" stroke-linecap="round" stroke-linejoin="round"/>
    <path d="M262.604,108.11 C262.604,120.404 252.633,130.355 240.338,130.355 C228.063,130.355 218.102,120.404 218.102,108.11 C218.102,95.814 228.063,85.863 240.338,85.863 C252.633,85.863 262.604,95.814 262.604,108.11" fill="#EA8E98"/>
    <path d="M236.588,94.702 C237.32,96.382 235.807,98.676 233.17,99.848 C230.543,101.029 227.8,100.639 227.066,98.988 C226.314,97.309 227.857,95.005 230.475,93.842 C233.102,92.651 235.846,93.051 236.588,94.702" fill="#FFFFFE"/>
    <path d="M341.706,108.11 C341.706,120.404 331.745,130.355 319.469,130.355 C307.174,130.355 297.204,120.404 297.204,108.11 C297.204,95.814 307.174,85.863 319.469,85.863 C331.745,85.863 341.706,95.814 341.706,108.11" fill="#EA8E98"/>
    <path d="M315.709,94.702 C316.461,96.382 314.928,98.676 312.3,99.848 C309.665,101.029 306.93,100.639 306.188,98.988 C305.436,97.309 306.959,95.005 309.605,93.842 C312.232,92.651 314.958,93.051 315.709,94.702" fill="#FFFFFE"/>
    <path d="M265.895,90.248 C265.895,96.332 262.76,101.245 258.883,101.245 C255.006,101.245 251.872,96.332 251.872,90.248 C251.872,84.194 255.006,79.262 258.883,79.262 C262.76,79.262 265.895,84.194 265.895,90.248" fill="#3C2C1E"/>
    <path d="M304.898,90.248 C304.898,96.332 301.773,101.245 297.896,101.245 C294.02,101.245 290.885,96.332 290.885,90.248 C290.885,84.194 294.02,79.262 297.896,79.262 C301.773,79.262 304.898,84.194 304.898,90.248" fill="#3C2C1E"/>
    <path d="M252.702,111.401 L301.872,110.853 C301.872,110.853 298.581,137.24 276.061,136.411 C253.532,135.581 252.702,111.401 252.702,111.401" fill="#E05659"/>
    <path d="M252.702,111.401 L301.872,110.853 C301.872,110.853 298.581,137.24 276.061,136.411 C253.532,135.581 252.702,111.401 252.702,111.401 z" fill-opacity="0" stroke="#3C2C1E" stroke-width="10" stroke-linecap="round" stroke-linejoin="round"/>
    <path d="M409.42,104.926 C409.42,117.222 399.439,127.173 387.154,127.173 C374.88,127.173 364.909,117.222 364.909,104.926 C364.909,92.632 374.88,82.681 387.154,82.681 C399.439,82.681 409.42,92.632 409.42,104.926" fill="#EA8E98"/>
    <path d="M383.404,91.518 C384.137,93.197 382.624,95.493 379.986,96.665 C377.36,97.837 374.616,97.456 373.874,95.806 C373.131,94.125 374.665,91.821 377.282,90.658 C379.909,89.467 382.663,89.868 383.404,91.518" fill="#FFFFFE"/>
    <path d="M488.521,104.926 C488.521,117.222 478.561,127.173 466.286,127.173 C453.991,127.173 444.02,117.222 444.02,104.926 C444.02,92.632 453.991,82.681 466.286,82.681 C478.561,82.681 488.521,92.632 488.521,104.926" fill="#EA8E98"/>
    <path d="M462.525,91.518 C463.277,93.197 461.745,95.493 459.107,96.665 C456.48,97.837 453.736,97.456 453.004,95.806 C452.243,94.125 453.775,91.821 456.422,90.658 C459.05,89.467 461.773,89.868 462.525,91.518" fill="#FFFFFE"/>
    <path d="M412.702,87.064 C412.702,93.149 409.577,98.051 405.7,98.051 C401.823,98.051 398.688,93.149 398.688,87.064 C398.688,81.01 401.823,76.079 405.7,76.079 C409.577,76.079 412.702,81.01 412.702,87.064" fill="#3C2C1E"/>
    <path d="M451.715,87.064 C451.715,93.149 448.59,98.051 444.713,98.051 C440.836,98.051 437.702,93.149 437.702,87.064 C437.702,81.01 440.836,76.079 444.713,76.079 C448.59,76.079 451.715,81.01 451.715,87.064" fill="#3C2C1E"/>
    <path d="M399.518,108.217 L448.688,107.671 C448.688,107.671 445.396,134.048 422.868,133.227 C400.338,132.396 399.518,108.217 399.518,108.217" fill="#E05659"/>
    <path d="M399.518,108.217 L448.688,107.671 C448.688,107.671 445.396,134.048 422.868,133.227 C400.338,132.396 399.518,108.217 399.518,108.217 z" fill-opacity="0" stroke="#3C2C1E" stroke-width="10" stroke-linecap="round" stroke-linejoin="round"/>
  </g>
</svg>
