<?xml version="1.0" encoding="utf-8"?>
<svg version="1.1" id="Layer_1" xmlns="http://www.w3.org/2000/svg" xmlns:xlink="http://www.w3.org/1999/xlink" x="0px" y="0px"
	 viewBox="0 0 816.14 1664.736" enable-background="new 0 0 816.14 1664.736" xml:space="preserve">
<g>
	<path d="M154.72,128.13c261.037-231.305,681.58-20.168,630.21,346.293c-8.609,66.881-34.287,129.892-61.974,190.85
		c-72.11,152.908-140.406,279.066-137.273,509.286c-101.616,0.149-89.617,0.182-101.929-0.952
		c22.538-75.92,102.935-334.986,155.273-506.283c7.932-25.361,15.821-50.764,23.436-76.23
		c33.505-107.598,63.43-206.552,70.286-227.738c8.461-21.701-0.677-46.258-15.039-63.201
		c-39.254-44.942-116.909-25.826-128.517,33.441c-2.39,14.425-2.665,29.993-10.851,42.663
		c-26.728,38.649-74.752,28.419-90.528-7.149c-6.98-16.329-4.04-35.175-12.374-51.06c-24.829-56.568-108.784-56.637-134.164-1.354
		c-6.726,12.099-6.874,26.122-9.264,39.384c-6.531,45.519-68.614,64.461-95.88,17.513c-5.436-9.92-6.726-21.384-8.101-32.425
		c-4.249-41.953-43.962-73.982-91.121-64.026c-44.391,11.038-63.857,55.988-54.613,82.999
		c3.861,12.105,56.992,185.025,57.299,186.028c3.998,12.543,7.276,25.361,12.204,37.586
		c7.473,28.376,151.065,491.133,180.592,589.853c-9.682,1.264-7.717,1.088-102.014,0.931
		c5.287-388.442-209.081-517.591-203.097-761.37C25.907,313.616,65.161,212.362,154.72,128.13z"/>
	<path d="M125.362,308.087c8.291-6.472,18.846-8.524,28.851-10.808c16.291,3.745,28.561,5.26,43.361,26.016
		c8.524,12.458,8.164,28.153,10.851,42.43c4.463,20.284,17.45,39.151,36.127,48.712c22.103,12.924,51.123,12.839,73.205-0.042
		c65.956-33.553,6.089-97.139,89.09-116.883c16.223,1.502,32.129,8.693,41.901,22.103c11.041,12.712,10.66,30.416,13.537,46.089
		c16.865,75.615,125.005,79.043,144.994,1.692c3.13-15.25,2.263-32.32,12.077-45.349c33.327-48.5,96.112-14.682,93.722,29.612
		c-10.419,26.704-95.106,304.993-98.08,314.735c-169.886,548.706-146.077,494.703-164.665,496.553
		c-32.32-0.677-64.681,0.656-96.98-0.719c-23.756-79.661-191.101-622.222-197.872-643.873c-0.301-1.001-44.3-147.14-50.912-161.492
		C100.121,347.912,103.276,325.113,125.362,308.087z"/>
	<path d="M221.707,1189.09c14.692-0.093,363.771-1.264,376.349,0.381c65.744,25.777,48.037,97.823,0.994,108.571
		c-10.61,2.095-348.676,1.061-349.677,1.058c-11.466-0.317-49.719,6.228-67.22-27.603
		C167.779,1246.445,172.872,1202.299,221.707,1189.09z"/>
	<path d="M230.231,1309.993c0.001,0,342.781,0.021,342.782,0.021c9.264,0.13,47.971-5.376,64.427,30.606
		c13.177,25.636,2.242,60.895-24.092,73.332c-14.383,8.709,4.315,5.471-380.939,6.028c-12.564,0.486-24.938-4.103-34.71-11.887
		C158.354,1377.754,179.712,1309.993,230.231,1309.993z"/>
	<path d="M220.29,1430.704c121.833-0.169,243.666-0.063,365.498-0.063c54.854-1.894,84.991,81.206,12.458,109.692
		c-112.759-0.042-225.518-0.084-338.276-0.084c-28.484-0.091-58.107,4.589-76.272-25.043
		C165.864,1488.205,174.889,1442.389,220.29,1430.704z"/>
	<path d="M331.462,1550.316c159.297-0.077,149.093-0.487,156.204,1.459c45.106,14.92,32.62,82.328-11.929,80.566
		c-48.099-0.169-96.197,0.042-144.296-0.106C287.431,1616.741,290.95,1563.571,331.462,1550.316z"/>
</g>
</svg>
