<?xml version="1.0" encoding="utf-8"?>

<!DOCTYPE svg PUBLIC "-//W3C//DTD SVG 1.1//EN" "http://www.w3.org/Graphics/SVG/1.1/DTD/svg11.dtd">
<svg version="1.1" id="Layer_1" xmlns="http://www.w3.org/2000/svg" xmlns:xlink="http://www.w3.org/1999/xlink" x="0px" y="0px"
	 viewBox="0 0 1649.462 1658.893" enable-background="new 0 0 1649.462 1658.893" xml:space="preserve">
<g>
	<linearGradient id="SVGID_1_" gradientUnits="userSpaceOnUse" x1="29.2793" y1="829.4467" x2="1620.1829" y2="829.4467">
		<stop  offset="0" style="stop-color:#007DFF"/>
		<stop  offset="0.5" style="stop-color:#28F584"/>
		<stop  offset="1" style="stop-color:#5845BE"/>
	</linearGradient>
	<path fill="url(#SVGID_1_)" d="M1620.183,925.048c-42.798-88.977-63.612-132.202-94.544-196.918
		c18.323-18.849,42.691-43.905,78.777-81.018c-58.755-57.351-98.862-96.44-155.808-152.286
		c10.805-24.055,25.181-56.04,46.505-103.495c-74.355-33.584-125.504-56.638-198.496-89.813c1.92-26.221,4.489-61.188,8.303-113.159
		c-80.771-6.084-136.665-10.247-217.243-16.506c-7.174-25.332-16.722-59.081-30.9-109.175
		C978.428,84.69,924.639,99.851,846.99,121.469c-15.4-21.344-35.91-49.784-66.377-92.023
		C714.41,77.005,668.949,109.72,603.586,156.443c-21.776-14.792-50.786-34.509-93.848-63.77
		c-46.118,67.586-77.629,113.847-122.916,179.885c-25.527-6.454-59.522-15.057-109.998-27.827
		c-20.103,78.823-33.957,133.33-53.98,211.076c-26.176,2.664-61.049,6.205-112.882,11.473
		c8.116,81.421,13.712,137.107,21.468,216.809c-23.676,11.451-55.254,26.715-102.15,49.389
		c35.407,73.594,59.674,123.931,94.179,196.083c-35.337,36.365-57.576,59.145-79.523,81.656
		c70.843,69.162,105.349,102.824,155.947,152.467c-21.075,46.941-34.199,75.99-46.61,103.51
		c90.293,40.793,133.648,60.357,198.69,89.935c-3.675,50.302-6.061,81.953-8.398,113.209
		c99.079,7.472,146.296,11.011,217.467,16.555c13.727,48.441,22.326,79.057,30.829,109.254
		c96.353-27.061,142.228-39.965,210.014-58.822c29.635,41.057,48.086,66.747,66.337,92.122
		c80.61-57.897,119.453-85.82,177.231-127.103c42.119,28.601,68.25,46.436,93.843,63.877
		c55.763-81.708,82.945-121.569,123.071-180.055c49.092,12.403,79.737,20.221,110.031,27.929
		c24.633-96.555,36.597-143.517,54.065-211.288c50.682-5.167,82.153-8.301,112.949-11.389
		c-9.758-97.988-14.531-145.695-21.459-217.038C1563.441,952.364,1592,938.627,1620.183,925.048z"/>
	<linearGradient id="SVGID_2_" gradientUnits="userSpaceOnUse" x1="1487.2806" y1="845.7565" x2="1599.6318" y2="845.7565">
		<stop  offset="0" style="stop-color:#3452C6"/>
		<stop  offset="1" style="stop-color:#A98A2E"/>
	</linearGradient>
	<path fill="url(#SVGID_2_)" d="M1599.632,917.566c-18.508,8.343-44.616,20.115-83.554,37.59
		c-4.472-46.203-9.969-103.515-18.096-188.533c-3.578,0.336-7.134,0.67-10.702,1.006c8.817-9.093,18.195-18.752,30.363-31.271
		C1540.004,785.588,1562.223,834.726,1599.632,917.566z"/>
	<linearGradient id="SVGID_3_" gradientUnits="userSpaceOnUse" x1="1328.7747" y1="882.2483" x2="1506.0762" y2="882.2483">
		<stop  offset="0" style="stop-color:#A02632"/>
		<stop  offset="1" style="stop-color:#1FF246"/>
	</linearGradient>
	<path fill="url(#SVGID_3_)" d="M1362.656,970.405c-10.348-23.256-12.427-27.968-33.882-76.382l62.158-27.397l9.961,22.757
		l-2.414,1.05l-0.534-1.233l-35.34,16.479c6.516,13.024,11.204,22.394,17.554,35.087c8.95-4.459,59.409-29.602,68.346-34.055
		c-5.262-10.619-21.738-43.867-32.435-65.454c31.126-32.209,47.564-49.225,63.752-65.935c3.879-0.314,7.759-0.629,11.651-0.944
		c6.61,83.449,10.785,136.209,14.602,185.265c-19.505,8.749-42.004,18.828-68.044,30.474
		C1412.657,983.488,1387.546,976.921,1362.656,970.405z"/>
	<linearGradient id="SVGID_4_" gradientUnits="userSpaceOnUse" x1="1365.6682" y1="996.0576" x2="1428.4521" y2="996.0576">
		<stop  offset="0" style="stop-color:#9300AB"/>
		<stop  offset="1" style="stop-color:#94EC2F"/>
	</linearGradient>
	<path fill="url(#SVGID_4_)" d="M1428.452,994.402c-14.279,6.384-29.575,13.218-45.974,20.54
		c-7.508-16.869-12.766-28.683-16.81-37.769C1386.427,982.865,1407.35,988.607,1428.452,994.402z"/>
	<linearGradient id="SVGID_5_" gradientUnits="userSpaceOnUse" x1="828.4392" y1="1044.7062" x2="1261.8401" y2="1044.7062">
		<stop  offset="0" style="stop-color:#B0D240"/>
		<stop  offset="0.5169" style="stop-color:#FFDF00"/>
		<stop  offset="0.95" style="stop-color:#00AA4F"/>
	</linearGradient>
	<path fill="url(#SVGID_5_)" d="M1126.791,1256.27c-101.996-143.955-199.459-282.081-298.351-423.128
		c140.039,98.187,279.201,196.371,426.949,301.06c1.369,12.945,2.986,28.326,6.452,61.266
		c-31.421-7.71-108.632-26.656-113.126-27.759C1135.141,1222.545,1130.888,1239.764,1126.791,1256.27z"/>
	<linearGradient id="SVGID_6_" gradientUnits="userSpaceOnUse" x1="1132.512" y1="1317.2036" x2="1180.9324" y2="1317.2036">
		<stop  offset="0" style="stop-color:#B5C634"/>
		<stop  offset="1" style="stop-color:#A92E91"/>
	</linearGradient>
	<path fill="url(#SVGID_6_)" d="M1143.912,1290.427c12.249,17.711,24.586,35.558,37.021,53.554
		c-15.069-4.295-31.184-8.893-48.42-13.816C1137.604,1312.416,1141.169,1299.986,1143.912,1290.427z"/>
	<linearGradient id="SVGID_7_" gradientUnits="userSpaceOnUse" x1="605.7456" y1="1112.849" x2="823.0054" y2="1112.849">
		<stop  offset="0" style="stop-color:#A90093"/>
		<stop  offset="0.5" style="stop-color:#B90046"/>
		<stop  offset="1" style="stop-color:#7D00AA"/>
	</linearGradient>
	<path fill="url(#SVGID_7_)" d="M725.923,1391.097c-9.044-31.102-31.283-107.584-32.523-111.849
		c-54.336,15.681-71.363,20.604-87.655,25.293c73.628-160.211,144.475-313.596,217.26-469.94
		c-14.972,169.902-30.416,339.491-47.25,520.275C765.229,1362.535,752.714,1371.627,725.923,1391.097z"/>
	<linearGradient id="SVGID_8_" gradientUnits="userSpaceOnUse" x1="738.4055" y1="1420.2611" x2="772.6812" y2="1420.2611">
		<stop  offset="0" style="stop-color:#FBD437"/>
		<stop  offset="0.5056" style="stop-color:#ED1C24"/>
		<stop  offset="1" style="stop-color:#F58220"/>
	</linearGradient>
	<path fill="url(#SVGID_8_)" d="M772.681,1387.85c-2.001,21.435-4.022,43.038-6.064,64.822
		c-8.767-12.954-18.154-26.831-28.211-41.708C753.714,1400.641,764.436,1393.41,772.681,1387.85z"/>
	<linearGradient id="SVGID_9_" gradientUnits="userSpaceOnUse" x1="456.3474" y1="1078.6436" x2="821.2313" y2="1078.6436">
		<stop  offset="0" style="stop-color:#3452C6"/>
		<stop  offset="1" style="stop-color:#A98A2E"/>
	</linearGradient>
	<path fill="url(#SVGID_9_)" d="M539.673,1323.506c2.14-32.323,7.417-112.044,7.693-116.228
		c-56.391-3.847-74.063-5.043-91.019-6.212c126.75-128.162,245.81-248.058,364.884-367.285
		c-72.379,154.962-144.904,309.058-222.342,472.732C586.466,1310.084,571.661,1314.329,539.673,1323.506z"/>
	<linearGradient id="SVGID_10_" gradientUnits="userSpaceOnUse" x1="544.6085" y1="1365.8665" x2="584.7224" y2="1365.8665">
		<stop  offset="0" style="stop-color:#51F321"/>
		<stop  offset="1" style="stop-color:#C80054"/>
	</linearGradient>
	<path fill="url(#SVGID_10_)" d="M584.722,1336.447c-9.214,19.464-18.502,39.072-27.869,58.838
		c-3.808-15.171-7.882-31.422-12.245-48.842C562.525,1341.979,575.072,1338.852,584.722,1336.447z"/>
	<linearGradient id="SVGID_11_" gradientUnits="userSpaceOnUse" x1="142.4147" y1="776.1014" x2="320.2756" y2="776.1014">
		<stop  offset="0" style="stop-color:#FFF166"/>
		<stop  offset="0.0782" style="stop-color:#F0E660"/>
		<stop  offset="0.1758" style="stop-color:#E5DD5B"/>
		<stop  offset="0.28" style="stop-color:#E1DA59"/>
		<stop  offset="0.67" style="stop-color:#24B34B"/>
		<stop  offset="0.89" style="stop-color:#21777E"/>
		<stop  offset="1" style="stop-color:#2E3192"/>
	</linearGradient>
	<path fill="url(#SVGID_11_)" d="M286.282,687.489c10.466,23.572,12.455,28.097,33.994,76.84l-62.231,27.328l-9.856-22.604
		l2.103-0.911l0.469,1.089l35.776-16.683c-6.47-12.867-11.31-22.492-17.734-35.266c-8.958,4.484-59.616,29.84-68.563,34.319
		c5.266,10.59,21.718,43.674,32.466,65.288c-24.822,25.64-46.074,47.572-64.531,66.604c-3.696,0.298-7.391,0.597-11.099,0.895
		c-5.823-72.988-10.656-134.398-14.661-185.865c27.936-12.537,45.587-20.44,68.606-30.71
		C236.373,674.431,261.447,680.987,286.282,687.489z"/>
	<linearGradient id="SVGID_12_" gradientUnits="userSpaceOnUse" x1="219.4122" y1="662.3965" x2="283.7223" y2="662.3965">
		<stop  offset="0" style="stop-color:#37E9F9"/>
		<stop  offset="0.5337" style="stop-color:#7F440D"/>
		<stop  offset="1" style="stop-color:#6CF222"/>
	</linearGradient>
	<path fill="url(#SVGID_12_)" d="M219.412,664.071c12.93-5.766,27.881-12.425,47.141-21.003
		c7.729,17.403,13.077,29.442,17.169,38.656C262.46,675.896,241.03,670.013,219.412,664.071z"/>
	<linearGradient id="SVGID_13_" gradientUnits="userSpaceOnUse" x1="386.8549" y1="613.2716" x2="820.5039" y2="613.2716">
		<stop  offset="0" style="stop-color:#37E9F9"/>
		<stop  offset="0.5337" style="stop-color:#7F440D"/>
		<stop  offset="1" style="stop-color:#6CF222"/>
	</linearGradient>
	<path fill="url(#SVGID_13_)" d="M522.135,401.339c104.629,147.727,201.97,286.046,298.369,423.866
		c-139.671-97.691-279-195.749-427.102-300.655c-1.386-12.989-3.009-28.322-6.547-61.694c31.319,7.64,109.159,26.627,113.308,27.639
		C513.788,435.195,517.973,418.168,522.135,401.339z"/>
	<linearGradient id="SVGID_14_" gradientUnits="userSpaceOnUse" x1="467.088" y1="341.2079" x2="516.6997" y2="341.2079">
		<stop  offset="0" style="stop-color:#37FBF7"/>
		<stop  offset="0.5056" style="stop-color:#EDE71C"/>
		<stop  offset="1" style="stop-color:#2DF520"/>
	</linearGradient>
	<path fill="url(#SVGID_14_)" d="M505.004,368.637c-12.534-18.121-25.168-36.401-37.916-54.859
		c13.686,3.916,29.481,8.441,49.612,14.212C511.434,346.289,507.792,358.949,505.004,368.637z"/>
	<linearGradient id="SVGID_15_" gradientUnits="userSpaceOnUse" x1="825.9125" y1="545.394" x2="1043.8066" y2="545.394">
		<stop  offset="0" style="stop-color:#00A995"/>
		<stop  offset="0" style="stop-color:#3C3795"/>
		<stop  offset="0.5056" style="stop-color:#A53594"/>
		<stop  offset="1" style="stop-color:#DA2128"/>
	</linearGradient>
	<path fill="url(#SVGID_15_)" d="M922.891,267.031c9.043,30.942,31.519,107.844,32.718,111.947
		c54.799-15.877,71.599-20.755,88.198-25.549c-75.618,164.47-146.739,317.935-217.894,470.328
		c14.779-169.944,30.035-339.627,46.823-520.208C883.295,295.852,895.764,286.779,922.891,267.031z"/>
	<linearGradient id="SVGID_16_" gradientUnits="userSpaceOnUse" x1="875.7634" y1="237.8387" x2="910.8512" y2="237.8387">
		<stop  offset="0" style="stop-color:#FFF33B"/>
		<stop  offset="0.0401" style="stop-color:#FEE72E"/>
		<stop  offset="0.1171" style="stop-color:#FED51B"/>
		<stop  offset="0.1964" style="stop-color:#FDCA10"/>
		<stop  offset="0.2809" style="stop-color:#FDC70C"/>
		<stop  offset="0.6685" style="stop-color:#F3903F"/>
		<stop  offset="0.8876" style="stop-color:#ED683C"/>
		<stop  offset="1" style="stop-color:#E93E3A"/>
	</linearGradient>
	<path fill="url(#SVGID_16_)" d="M875.763,271.037c2.049-21.958,4.121-44.083,6.218-66.397c7.963,11.791,17.154,25.411,28.87,42.777
		C895.055,258.05,884.127,265.407,875.763,271.037z"/>
	<linearGradient id="SVGID_17_" gradientUnits="userSpaceOnUse" x1="827.6689" y1="579.5908" x2="1193.2897" y2="579.5908">
		<stop  offset="0" style="stop-color:#3BA2FF"/>
		<stop  offset="0.0266" style="stop-color:#46B0E9"/>
		<stop  offset="0.0748" style="stop-color:#58C5C7"/>
		<stop  offset="0.124" style="stop-color:#66D5AC"/>
		<stop  offset="0.174" style="stop-color:#6FE199"/>
		<stop  offset="0.2253" style="stop-color:#75E88E"/>
		<stop  offset="0.28" style="stop-color:#77EA8A"/>
		<stop  offset="0.67" style="stop-color:#CBDA87"/>
		<stop  offset="0.89" style="stop-color:#CDC16C"/>
		<stop  offset="1" style="stop-color:#BE9F2F"/>
	</linearGradient>
	<path fill="url(#SVGID_17_)" d="M1109.216,334.597c-2.087,32.204-7.263,112.059-7.543,116.385
		c56.814,3.815,74.315,4.98,91.617,6.157c-127.121,128.497-246.383,248.328-365.621,367.445
		c70.621-151.646,143.166-306.288,221.928-472.827C1062.168,348.131,1076.994,343.868,1109.216,334.597z"/>
	<linearGradient id="SVGID_18_" gradientUnits="userSpaceOnUse" x1="1063.5613" y1="292.1095" x2="1104.6107" y2="292.1095">
		<stop  offset="0.05" style="stop-color:#A6CE39"/>
		<stop  offset="0.5337" style="stop-color:#552F7F"/>
		<stop  offset="1" style="stop-color:#DA2128"/>
	</linearGradient>
	<path fill="url(#SVGID_18_)" d="M1063.561,322.242c9.425-19.91,18.938-39.991,28.551-60.266
		c3.453,13.816,7.432,29.76,12.498,50.071C1086.131,316.636,1073.346,319.813,1063.561,322.242z"/>
	<linearGradient id="SVGID_19_" gradientUnits="userSpaceOnUse" x1="1383.3998" y1="795.5221" x2="1449.0092" y2="795.5221">
		<stop  offset="0" style="stop-color:#37FBF7"/>
		<stop  offset="0.5056" style="stop-color:#EDE71C"/>
		<stop  offset="1" style="stop-color:#2DF520"/>
	</linearGradient>
	<path fill="url(#SVGID_19_)" d="M1383.4,783.164c21.693-1.771,43.557-3.551,65.609-5.342c-10.216,9.877-21.967,21.231-36.636,35.4
		C1399.398,799.76,1390.347,790.372,1383.4,783.164z"/>
	<linearGradient id="SVGID_20_" gradientUnits="userSpaceOnUse" x1="830.0759" y1="873.916" x2="1395.1848" y2="873.916">
		<stop  offset="0.0056" style="stop-color:#00AD8E"/>
		<stop  offset="0.5" style="stop-color:#DA2128"/>
		<stop  offset="1" style="stop-color:#F26922"/>
	</linearGradient>
	<path fill="url(#SVGID_20_)" d="M1395.185,828.521c-28.894,14.226-100.822,49.639-104.719,51.558
		c24.65,50.322,32.543,66.415,40.129,81.929c-173.969-45.584-337.278-88.727-500.519-132.354
		c169.964-14.762,339.719-29.007,520.805-43.831C1360.171,794.767,1371.289,805.487,1395.185,828.521z"/>
	<linearGradient id="SVGID_21_" gradientUnits="userSpaceOnUse" x1="1320.4172" y1="663.694" x2="1509.7395" y2="663.694">
		<stop  offset="0" style="stop-color:#37FBF7"/>
		<stop  offset="0.5056" style="stop-color:#EDE71C"/>
		<stop  offset="1" style="stop-color:#2DF520"/>
	</linearGradient>
	<path fill="url(#SVGID_21_)" d="M1378.265,777.837c-17.575-18.237-21.194-22.019-57.848-60.189l49.132-46.964l16.993,17.869
		l-1.665,1.575l-0.813-0.863l-27.913,27.913c10.545,9.938,18.282,17.231,28.726,27.074c6.88-7.273,45.815-48.431,52.69-55.699
		c-8.59-8.168-35.525-33.783-53.017-50.417c18.171-40.774,27.813-62.419,37.335-83.714c3.538-1.622,7.076-3.245,10.625-4.872
		c34.838,76.343,56.831,124.547,77.229,169.413c-20.215,19.636-34.412,33.403-53.171,51.548
		C1430.205,772.985,1404.119,775.425,1378.265,777.837z"/>
	<linearGradient id="SVGID_22_" gradientUnits="userSpaceOnUse" x1="1333.9587" y1="590.2079" x2="1393.7863" y2="590.2079">
		<stop  offset="0" style="stop-color:#00AB66"/>
		<stop  offset="1" style="stop-color:#EC5C2F"/>
	</linearGradient>
	<path fill="url(#SVGID_22_)" d="M1371.465,613.106c-16.797-8.212-28.513-13.939-37.506-18.335
		c19.777-9.083,39.714-18.234,59.828-27.461C1387.618,579.974,1380.495,594.587,1371.465,613.106z"/>
	<linearGradient id="SVGID_23_" gradientUnits="userSpaceOnUse" x1="829.9041" y1="718.0479" x2="1360.4984" y2="718.0479">
		<stop  offset="0" style="stop-color:#DAD521"/>
		<stop  offset="1" style="stop-color:#7C00A8"/>
	</linearGradient>
	<path fill="url(#SVGID_23_)" d="M1360.498,633.34c-22.276,23.304-77.639,81.221-80.59,84.308
		c40.868,39.249,53.574,51.437,65.824,63.221c-179.296,16.687-347.594,32.008-515.828,46.836
		c154.577-71.962,309.173-143.385,474.406-219.313C1316.246,613.683,1330.415,619.979,1360.498,633.34z"/>
	<linearGradient id="SVGID_24_" gradientUnits="userSpaceOnUse" x1="829.063" y1="641.7449" x2="1297.7791" y2="641.7449">
		<stop  offset="0" style="stop-color:#DA2128"/>
		<stop  offset="0.5225" style="stop-color:#ED6C30"/>
		<stop  offset="1" style="stop-color:#F05123"/>
	</linearGradient>
	<path fill="url(#SVGID_24_)" d="M829.063,825.941c120.55-120.675,241.302-240.849,370.239-368.391
		c13.091,0.895,28.511,1.962,61.894,4.265c-12.977,29.55-45.159,102.834-46.895,106.787c51.387,22.709,67.724,29.918,83.478,36.895
		C1138.181,681,985.244,752.993,829.063,825.941z"/>
	<linearGradient id="SVGID_25_" gradientUnits="userSpaceOnUse" x1="1222.5187" y1="413.3864" x2="1269.9622" y2="413.3864">
		<stop  offset="0" style="stop-color:#007DFF"/>
		<stop  offset="0.5" style="stop-color:#28F584"/>
		<stop  offset="1" style="stop-color:#5845BE"/>
	</linearGradient>
	<path fill="url(#SVGID_25_)" d="M1222.519,434.59c15.684-15.504,31.493-31.121,47.443-46.867
		c-1.471,14.069-3.178,30.335-5.382,51.327C1245.645,437.042,1232.545,435.654,1222.519,434.59z"/>
	<linearGradient id="SVGID_26_" gradientUnits="userSpaceOnUse" x1="1105.3434" y1="328.7521" x2="1278.6233" y2="328.7521">
		<stop  offset="0" style="stop-color:#37FBF7"/>
		<stop  offset="0.5056" style="stop-color:#EDE71C"/>
		<stop  offset="1" style="stop-color:#2DF520"/>
	</linearGradient>
	<path fill="url(#SVGID_26_)" d="M1216.248,433.925c-25.648-2.722-30.561-3.262-83.543-8.981l7.449-67.558l24.504,2.766
		l-0.263,2.277l-1.178-0.138l-3.44,39.324c14.316,0.827,25.19,1.454,39.408,2.275c0.596-10,3.966-66.549,4.561-76.537
		c-11.815-0.735-48.924-3.044-73.021-4.543c-12.453-43.49-18.955-66.179-25.381-88.726c1.66-3.499,3.32-6.996,4.986-10.506
		c66.062,31.423,121.676,57.95,168.294,80.236c-3.122,30.57-5.098,49.763-7.707,74.769
		C1252.512,397.229,1234.299,415.666,1216.248,433.925z"/>
	<linearGradient id="SVGID_27_" gradientUnits="userSpaceOnUse" x1="690.0537" y1="545.4309" x2="867.8672" y2="545.4309">
		<stop  offset="0" style="stop-color:#9300AB"/>
		<stop  offset="1" style="stop-color:#94EC2F"/>
	</linearGradient>
	<path fill="url(#SVGID_27_)" d="M823.975,823.594c-43.373-161.543-87.2-326.63-133.921-504.859
		c7.307-10.87,15.928-23.671,34.641-51.468c19.081,25.984,66.505,90.563,69.033,94.005c46.104-33.692,60.199-44.005,74.14-54.174
		C853.083,487.241,838.749,655.702,823.975,823.594z"/>
	<linearGradient id="SVGID_28_" gradientUnits="userSpaceOnUse" x1="664.9127" y1="254.8903" x2="706.6719" y2="254.8903">
		<stop  offset="0" style="stop-color:#A90093"/>
		<stop  offset="0.5" style="stop-color:#B90046"/>
		<stop  offset="1" style="stop-color:#7D00AA"/>
	</linearGradient>
	<path fill="url(#SVGID_28_)" d="M681.779,287.15c-5.578-21.31-11.199-42.808-16.867-64.519
		c11.523,8.362,24.824,18.021,41.759,30.323C695.465,268.348,687.713,278.999,681.779,287.15z"/>
	<linearGradient id="SVGID_29_" gradientUnits="userSpaceOnUse" x1="523.5826" y1="573.9208" x2="822.1013" y2="573.9208">
		<stop  offset="0" style="stop-color:#B0D240"/>
		<stop  offset="0.5169" style="stop-color:#FFDF00"/>
		<stop  offset="0.95" style="stop-color:#00AA4F"/>
	</linearGradient>
	<path fill="url(#SVGID_29_)" d="M686.691,323.739c47.821,174.705,91.953,337.855,135.41,500.363
		c-96.197-137.239-193.879-277.434-298.519-428.614c3.154-12.733,6.881-27.73,14.948-60.212
		c26.817,17.89,93.466,62.353,97.021,64.725C667.301,352.65,677.047,338.097,686.691,323.739z"/>
	<linearGradient id="SVGID_30_" gradientUnits="userSpaceOnUse" x1="287.9608" y1="678.6691" x2="819.3877" y2="678.6691">
		<stop  offset="0" style="stop-color:#B0D240"/>
		<stop  offset="0.5169" style="stop-color:#FFDF00"/>
		<stop  offset="0.95" style="stop-color:#00AA4F"/>
	</linearGradient>
	<path fill="url(#SVGID_30_)" d="M403.888,621.836c-6.126-56.781-8.01-74.144-9.846-91.294
		c148.841,103.03,287.624,199.718,425.345,296.255c-164.286-43.929-328.752-88.418-504.174-136.445
		c-5.752-11.747-12.525-25.608-27.253-55.734C320.004,631.084,399.643,622.304,403.888,621.836z"/>
	<linearGradient id="SVGID_31_" gradientUnits="userSpaceOnUse" x1="253.993" y1="784.3206" x2="818.885" y2="784.3206">
		<stop  offset="0.05" style="stop-color:#00AB4E"/>
		<stop  offset="0.5" style="stop-color:#BD268F"/>
		<stop  offset="1" style="stop-color:#F26922"/>
	</linearGradient>
	<path fill="url(#SVGID_31_)" d="M253.993,829.737c29.046-14.35,100.529-49.666,104.348-51.553
		c-25.156-51.218-32.874-66.908-40.476-82.42c174.925,45.863,338.261,89.212,501.02,132.911
		c-169.484,14.917-339.164,29.354-520.201,44.202C289.225,863.755,278.112,853.023,253.993,829.737z"/>
	<linearGradient id="SVGID_32_" gradientUnits="userSpaceOnUse" x1="199.9089" y1="863.1861" x2="265.6542" y2="863.1861">
		<stop  offset="0.05" style="stop-color:#007DFF"/>
		<stop  offset="0.5337" style="stop-color:#A80E38"/>
		<stop  offset="1" style="stop-color:#A9913E"/>
	</linearGradient>
	<path fill="url(#SVGID_32_)" d="M265.654,875.581c-21.737,1.775-43.647,3.557-65.745,5.347
		c11.39-11.034,23.587-22.844,36.65-35.484C249.622,858.975,258.696,868.373,265.654,875.581z"/>
	<linearGradient id="SVGID_33_" gradientUnits="userSpaceOnUse" x1="138.9984" y1="994.7208" x2="328.3802" y2="994.7208">
		<stop  offset="0" style="stop-color:#9300AB"/>
		<stop  offset="1" style="stop-color:#94EC2F"/>
	</linearGradient>
	<path fill="url(#SVGID_33_)" d="M193.325,887.307c25.833-2.429,51.391-4.822,76.715-7.184
		c18.004,18.652,21.364,22.155,58.341,60.579l-49.039,47.004l-17.144-17.977l1.909-1.813l0.924,0.976l27.572-27.572
		c-10.664-10.092-18.099-17.128-28.496-26.967c-6.04,6.362-46.586,49.066-52.577,55.376c8.572,8.174,35.256,33.621,52.687,50.243
		c-14.531,32.526-27.016,60.441-37.882,84.708c-3.371,1.545-6.74,3.088-10.122,4.637c-32.424-70.945-56.859-124.544-77.214-169.317
		C154.561,924.889,172.543,907.444,193.325,887.307z"/>
	<linearGradient id="SVGID_34_" gradientUnits="userSpaceOnUse" x1="255.2782" y1="1068.4767" x2="315.229" y2="1068.4767">
		<stop  offset="0" style="stop-color:#00A995"/>
		<stop  offset="0" style="stop-color:#3C3795"/>
		<stop  offset="0.5056" style="stop-color:#A53594"/>
		<stop  offset="1" style="stop-color:#DA2128"/>
	</linearGradient>
	<path fill="url(#SVGID_34_)" d="M277.581,1045.537c16.903,8.247,28.644,13.975,37.648,18.368
		c-19.804,9.096-39.778,18.262-59.951,27.512C262.208,1077.152,269.63,1061.883,277.581,1045.537z"/>
	<linearGradient id="SVGID_35_" gradientUnits="userSpaceOnUse" x1="288.545" y1="940.3394" x2="819.0615" y2="940.3394">
		<stop  offset="0" style="stop-color:#FFF200"/>
		<stop  offset="0.5" style="stop-color:#F5AE28"/>
		<stop  offset="1" style="stop-color:#6FBE45"/>
	</linearGradient>
	<path fill="url(#SVGID_35_)" d="M288.545,1024.794c22.411-23.38,77.676-81.037,80.603-84.09
		c-40.985-39.444-53.659-51.629-66.131-63.649c179.898-16.715,348.205-31.843,516.045-46.442
		c-151.624,70.796-306.521,142.59-473.719,219.455C333.23,1044.684,319.089,1038.388,288.545,1024.794z"/>
	<linearGradient id="SVGID_36_" gradientUnits="userSpaceOnUse" x1="350.8437" y1="1016.4766" x2="819.8665" y2="1016.4766">
		<stop  offset="0" style="stop-color:#66C7FF"/>
		<stop  offset="0.0296" style="stop-color:#63BEF9"/>
		<stop  offset="0.1097" style="stop-color:#5EABEC"/>
		<stop  offset="0.1921" style="stop-color:#5AA0E4"/>
		<stop  offset="0.28" style="stop-color:#599CE1"/>
		<stop  offset="0.67" style="stop-color:#7524B3"/>
		<stop  offset="0.89" style="stop-color:#7E2161"/>
		<stop  offset="1" style="stop-color:#923B2E"/>
	</linearGradient>
	<path fill="url(#SVGID_36_)" d="M819.866,832.378C699.189,952.903,578.348,1072.89,449.23,1200.575
		c-12.909-0.894-28.3-1.971-61.456-4.285c13.067-29.645,45.298-102.767,46.982-106.587c-51.716-22.919-67.983-30.119-83.911-37.192
		C514.24,975.245,667.165,903.491,819.866,832.378z"/>
	<linearGradient id="SVGID_37_" gradientUnits="userSpaceOnUse" x1="379.3672" y1="1244.5745" x2="425.6795" y2="1244.5745">
		<stop  offset="0" style="stop-color:#F9D837"/>
		<stop  offset="0.5337" style="stop-color:#552F7F"/>
		<stop  offset="1" style="stop-color:#F26522"/>
	</linearGradient>
	<path fill="url(#SVGID_37_)" d="M425.679,1223.859c-15.311,15.134-30.745,30.384-46.312,45.758
		c1.611-15.558,3.34-32.223,5.199-50.084C402.929,1221.465,415.789,1222.818,425.679,1223.859z"/>
	<linearGradient id="SVGID_38_" gradientUnits="userSpaceOnUse" x1="370.6568" y1="1329.4208" x2="543.1982" y2="1329.4208">
		<stop  offset="0.0056" style="stop-color:#AD00A1"/>
		<stop  offset="0.5" style="stop-color:#DAD521"/>
		<stop  offset="1" style="stop-color:#63F222"/>
	</linearGradient>
	<path fill="url(#SVGID_38_)" d="M433.045,1224.634c25.316,2.667,30.435,3.222,83.092,8.849l-7.352,67.529l-24.689-2.752
		l0.297-2.616l1.335,0.154l3.398-38.845c-14.493-0.866-25.042-1.497-39.164-2.341c-0.613,9.98-4.069,66.251-4.681,76.216
		c11.828,0.753,48.621,3.093,72.656,4.622c9.722,34.064,18.039,63.258,25.26,88.641c-1.597,3.369-3.194,6.737-4.796,10.115
		c-75.565-35.996-123.358-58.767-167.745-79.987c2.176-21.269,4.697-45.794,7.63-74.166
		C396.719,1261.39,414.962,1242.927,433.045,1224.634z"/>
	<linearGradient id="SVGID_39_" gradientUnits="userSpaceOnUse" x1="781.5239" y1="1112.8428" x2="958.4967" y2="1112.8428">
		<stop  offset="0" style="stop-color:#3BA2FF"/>
		<stop  offset="0.0494" style="stop-color:#2BC0F5"/>
		<stop  offset="0.1046" style="stop-color:#1EDBED"/>
		<stop  offset="0.1611" style="stop-color:#14EEE7"/>
		<stop  offset="0.2191" style="stop-color:#0EF9E3"/>
		<stop  offset="0.2809" style="stop-color:#0CFDE2"/>
		<stop  offset="0.6685" style="stop-color:#4EF33F"/>
		<stop  offset="0.8876" style="stop-color:#97ED3C"/>
		<stop  offset="1" style="stop-color:#E8E93A"/>
	</linearGradient>
	<path fill="url(#SVGID_39_)" d="M824.955,834.775c44.086,164.944,87.55,329.494,133.542,505.055
		c-7.218,10.717-15.829,23.482-34.439,51.08c-19.14-26.139-66.35-90.613-68.816-93.98c-45.493,33.171-59.885,43.676-73.718,53.748
		C796.24,1171.025,810.377,1002.646,824.955,834.775z"/>
	<linearGradient id="SVGID_40_" gradientUnits="userSpaceOnUse" x1="942.5823" y1="1403.3607" x2="983.3572" y2="1403.3607">
		<stop  offset="0" style="stop-color:#552F7F"/>
		<stop  offset="1" style="stop-color:#FFDB00"/>
	</linearGradient>
	<path fill="url(#SVGID_40_)" d="M966.886,1371.867c5.451,20.826,10.94,41.817,16.471,62.987
		c-12.669-9.174-26.236-19.004-40.775-29.544C953.438,1390.374,961.039,1379.912,966.886,1371.867z"/>
	<linearGradient id="SVGID_41_" gradientUnits="userSpaceOnUse" x1="826.8406" y1="1084.0881" x2="1125.0713" y2="1084.0881">
		<stop  offset="0.05" style="stop-color:#7C00AB"/>
		<stop  offset="0.5" style="stop-color:#BD9C26"/>
		<stop  offset="1" style="stop-color:#63F222"/>
	</linearGradient>
	<path fill="url(#SVGID_41_)" d="M962.482,1333.912c-46.581-170.06-90.9-333.091-135.641-499.647
		c98.004,140.151,195.19,280.005,298.231,428.926c-3.125,12.569-6.858,27.538-14.892,59.778
		c-26.926-18.016-93.339-62.454-96.809-64.776C981.818,1305.144,971.944,1319.853,962.482,1333.912z"/>
	<linearGradient id="SVGID_42_" gradientUnits="userSpaceOnUse" x1="829.5686" y1="979.3252" x2="1360.7461" y2="979.3252">
		<stop  offset="0" style="stop-color:#A90093"/>
		<stop  offset="0.5" style="stop-color:#B90046"/>
		<stop  offset="1" style="stop-color:#7D00AA"/>
	</linearGradient>
	<path fill="url(#SVGID_42_)" d="M1244.948,1036.391c5.981,55.984,7.883,73.704,9.688,90.715
		c-148.124-102.5-286.866-198.925-425.068-295.563c164.585,44.211,328.846,88.85,504.16,136.876
		c5.756,11.781,12.567,25.746,27.018,55.365C1328.539,1027.291,1249.098,1035.94,1244.948,1036.391z"/>
	<linearGradient id="SVGID_43_" gradientUnits="userSpaceOnUse" x1="1426.2607" y1="607.8841" x2="1583.6782" y2="607.8841">
		<stop  offset="0.05" style="stop-color:#7C00AB"/>
		<stop  offset="0.5" style="stop-color:#BD9C26"/>
		<stop  offset="1" style="stop-color:#63F222"/>
	</linearGradient>
	<path fill="url(#SVGID_43_)" d="M1583.678,647.11c-29.131,28.31-49.666,48.271-66.07,64.21
		c-20.028-41.935-44.816-93.954-81.634-171.283c-3.245,1.539-6.475,3.07-9.713,4.605c5.228-11.679,10.796-24.092,18.026-40.194
		C1496.949,558.173,1534.216,596.416,1583.678,647.11z"/>
	<linearGradient id="SVGID_44_" gradientUnits="userSpaceOnUse" x1="1292.6105" y1="396.9109" x2="1475.6266" y2="396.9109">
		<stop  offset="0.0056" style="stop-color:#AD00A1"/>
		<stop  offset="0.5" style="stop-color:#DAD521"/>
		<stop  offset="1" style="stop-color:#63F222"/>
	</linearGradient>
	<path fill="url(#SVGID_44_)" d="M1295.847,312.051c97.019,46.41,151.899,72.93,179.78,86.369
		c-17.788,36.764-30.371,62.78-40.327,83.35c-35.585-34.922-78.106-76.738-135.088-132.875c-2.542,2.577-5.068,5.137-7.602,7.705
		C1293.538,343.705,1294.533,330.016,1295.847,312.051z"/>
	<linearGradient id="SVGID_45_" gradientUnits="userSpaceOnUse" x1="1252.3667" y1="474.697" x2="1430.9209" y2="474.697">
		<stop  offset="0" style="stop-color:#00A995"/>
		<stop  offset="0.5" style="stop-color:#006EB9"/>
		<stop  offset="1" style="stop-color:#00AA4F"/>
	</linearGradient>
	<path fill="url(#SVGID_45_)" d="M1300.212,357.873c54.863,55.708,96.22,97.783,130.709,132.944
		c-12.888,26.624-21.394,44.157-32.531,67.038c-23.872,11.314-47.55,22.529-71.077,33.666
		c-22.753-11.127-27.447-13.443-74.946-36.774l30.106-60.936l22.08,10.98l-1.026,2.049l-1.059-0.533l-16.683,35.776
		c13.362,5.756,23.018,9.915,36.254,15.617c3.98-9.193,26.488-61.18,30.463-70.361c-10.865-4.738-44.937-19.595-67.063-29.243
		c3.179-45.223,4.829-68.758,6.495-92.056C1294.69,363.32,1297.446,360.601,1300.212,357.873z"/>
	<linearGradient id="SVGID_46_" gradientUnits="userSpaceOnUse" x1="1090.5522" y1="237.9017" x2="1289.033" y2="237.9017">
		<stop  offset="0" style="stop-color:#00A995"/>
		<stop  offset="0" style="stop-color:#3C3795"/>
		<stop  offset="0.5056" style="stop-color:#A53594"/>
		<stop  offset="1" style="stop-color:#DA2128"/>
	</linearGradient>
	<path fill="url(#SVGID_46_)" d="M1289.033,201.688c-4.134,40.56-7.073,69.425-9.388,92.114
		c-45.43-20.666-99.747-45.444-172.386-78.659c-1.507,3.291-3.005,6.56-4.508,9.841c-3.541-12.442-7.293-25.664-12.199-42.982
		C1165.427,189.307,1218.558,194.648,1289.033,201.688z"/>
	<linearGradient id="SVGID_47_" gradientUnits="userSpaceOnUse" x1="884.875" y1="253.1123" x2="1089.8838" y2="253.1123">
		<stop  offset="0" style="stop-color:#4052D2"/>
		<stop  offset="0.5169" style="stop-color:#00C1FF"/>
		<stop  offset="0.95" style="stop-color:#7D00AA"/>
	</linearGradient>
	<path fill="url(#SVGID_47_)" d="M1089.884,253.063c-10.918,23.816-21.727,47.37-32.444,70.699
		c-25.033,6.214-29.833,7.387-81.577,20.134l-16.106-66.031l23.972-5.782l0.531,2.229l-1.154,0.273l10.217,38.13
		c13.956-4.186,23.973-7.19,37.81-11.34c-2.86-9.601-19.035-63.892-21.891-73.481c-11.356,3.351-47.016,13.873-70.171,20.706
		c-26.575-36.607-40.461-55.725-54.197-74.694c0.364-3.856,0.727-7.711,1.092-11.578c77.836,7.41,136.562,13.057,185.584,17.823
		C1078.86,209.102,1083.631,228.069,1089.884,253.063z"/>
	<linearGradient id="SVGID_48_" gradientUnits="userSpaceOnUse" x1="853.1619" y1="125.5217" x2="1069.0903" y2="125.5217">
		<stop  offset="0" style="stop-color:#51F321"/>
		<stop  offset="1" style="stop-color:#C80054"/>
	</linearGradient>
	<path fill="url(#SVGID_48_)" d="M1046.406,80.637c10.002,39.586,17.088,67.614,22.684,89.77
		c-49.763-3.882-109.359-8.594-188.894-14.956c-0.291,3.608-0.58,7.192-0.87,10.789c-7.588-10.488-15.634-21.626-26.164-36.217
		C926.02,111.278,977.773,98.125,1046.406,80.637z"/>
	<linearGradient id="SVGID_49_" gradientUnits="userSpaceOnUse" x1="654.1863" y1="228.0807" x2="876.8384" y2="228.0807">
		<stop  offset="0.0056" style="stop-color:#00AD8E"/>
		<stop  offset="0.5" style="stop-color:#DA2128"/>
		<stop  offset="1" style="stop-color:#F26922"/>
	</linearGradient>
	<path fill="url(#SVGID_49_)" d="M876.838,197.026c-2.114,26.112-4.215,51.942-6.307,77.532
		c-21.398,14.401-25.508,17.145-69.77,46.821l-37.719-56.541l20.549-13.632l1.262,1.913l-0.991,0.651l22.642,32.336
		c11.815-8.806,19.935-14.857,31.651-23.588c-5.967-8.038-39.74-53.529-45.703-61.562c-7.994,5.902-38.989,28.788-58.857,43.457
		c-37.517-25.326-57.064-38.515-76.475-51.653c-0.977-3.748-1.954-7.493-2.934-11.253c75.676-19.659,132.792-34.438,180.488-46.725
		C851.49,159.555,862.444,175.721,876.838,197.026z"/>
	<linearGradient id="SVGID_50_" gradientUnits="userSpaceOnUse" x1="612.3105" y1="118.6614" x2="829.0288" y2="118.6614">
		<stop  offset="0.05" style="stop-color:#A6CE39"/>
		<stop  offset="0.5337" style="stop-color:#552F7F"/>
		<stop  offset="1" style="stop-color:#DA2128"/>
	</linearGradient>
	<path fill="url(#SVGID_50_)" d="M777.01,49.869c22.943,33.784,39.187,57.698,52.019,76.598
		c-48.025,13.354-105.595,29.297-182.618,50.551c0.961,3.49,1.914,6.957,2.872,10.436c-10.703-7.25-22.075-14.967-36.973-25.084
		C674.364,119.837,718.497,89.777,777.01,49.869z"/>
	<linearGradient id="SVGID_51_" gradientUnits="userSpaceOnUse" x1="442.9434" y1="266.6371" x2="678.0662" y2="266.6371">
		<stop  offset="0" style="stop-color:#3BA2FF"/>
		<stop  offset="0.0266" style="stop-color:#46B0E9"/>
		<stop  offset="0.0748" style="stop-color:#58C5C7"/>
		<stop  offset="0.124" style="stop-color:#66D5AC"/>
		<stop  offset="0.174" style="stop-color:#6FE199"/>
		<stop  offset="0.2253" style="stop-color:#75E88E"/>
		<stop  offset="0.28" style="stop-color:#77EA8A"/>
		<stop  offset="0.67" style="stop-color:#CBDA87"/>
		<stop  offset="0.89" style="stop-color:#CDC16C"/>
		<stop  offset="1" style="stop-color:#BE9F2F"/>
	</linearGradient>
	<path fill="url(#SVGID_51_)" d="M657.475,217.235c6.946,25.268,13.806,50.26,20.591,75.015
		c-15.181,20.85-18.105,24.835-49.548,67.859l-54.782-40.23l14.647-19.838l1.84,1.366l-0.709,0.951l32.336,22.642
		c7.903-12.029,13.826-21.044,21.675-32.991c-8.362-5.516-55.651-36.709-64.002-42.218c-6.571,9.905-27.106,40.86-40.444,60.966
		c-43.853-10.951-66.791-16.674-89.53-22.382c-2.2-3.187-4.399-6.373-6.606-9.571c64.389-44.356,113.005-77.778,153.622-105.638
		C620.772,190.645,636.618,202.106,657.475,217.235z"/>
	<linearGradient id="SVGID_52_" gradientUnits="userSpaceOnUse" x1="397.0475" y1="199.5822" x2="588.4165" y2="199.5822">
		<stop  offset="0.05" style="stop-color:#FFF200"/>
		<stop  offset="0.5337" style="stop-color:#0E58A8"/>
		<stop  offset="1" style="stop-color:#A93E89"/>
	</linearGradient>
	<path fill="url(#SVGID_52_)" d="M513.337,113.096c33.116,23.901,56.552,40.812,75.08,54.187
		c-40.589,28.994-89.214,63.65-154.315,109.962c2.096,2.95,4.179,5.882,6.268,8.824c-12.559-3.158-25.886-6.52-43.323-10.926
		C440.812,213.951,472.002,170.609,513.337,113.096z"/>
	<linearGradient id="SVGID_53_" gradientUnits="userSpaceOnUse" x1="277.7171" y1="373.0428" x2="503.2597" y2="373.0428">
		<stop  offset="0" style="stop-color:#5652C7"/>
		<stop  offset="0.5112" style="stop-color:#802109"/>
		<stop  offset="1" style="stop-color:#47F141"/>
	</linearGradient>
	<path fill="url(#SVGID_53_)" d="M458.254,311.252c15.166,21.363,30.16,42.502,45.005,63.447
		c-7.135,24.786-8.519,29.53-23.351,80.715l-65.238-19.068l6.979-23.651l2.196,0.654l-0.341,1.136l38.13,10.217
		c3.329-14.076,5.78-24.441,9.084-38.415c-9.738-2.322-64.85-15.462-74.582-17.782c-2.775,11.505-11.493,47.651-17.154,71.122
		c-44.971,4.71-68.515,7.181-91.785,9.589c-3.157-2.243-6.314-4.485-9.481-6.735c45.335-63.703,79.589-111.738,108.227-151.809
		C414.703,298.827,433.498,304.174,458.254,311.252z"/>
	<linearGradient id="SVGID_54_" gradientUnits="userSpaceOnUse" x1="312.3664" y1="484.574" x2="366.7602" y2="484.574">
		<stop  offset="0" style="stop-color:#3BA2FF"/>
		<stop  offset="0.0494" style="stop-color:#2BC0F5"/>
		<stop  offset="0.1046" style="stop-color:#1EDBED"/>
		<stop  offset="0.1611" style="stop-color:#14EEE7"/>
		<stop  offset="0.2191" style="stop-color:#0EF9E3"/>
		<stop  offset="0.2809" style="stop-color:#0CFDE2"/>
		<stop  offset="0.6685" style="stop-color:#4EF33F"/>
		<stop  offset="0.8876" style="stop-color:#97ED3C"/>
		<stop  offset="1" style="stop-color:#E8E93A"/>
	</linearGradient>
	<path fill="url(#SVGID_54_)" d="M366.76,505.673c-17.991-12.753-36.116-25.61-54.394-38.584
		c14.109-0.995,30.422-2.138,51.482-3.613C365.159,482.472,366.066,495.614,366.76,505.673z"/>
	<linearGradient id="SVGID_55_" gradientUnits="userSpaceOnUse" x1="233.3496" y1="358.714" x2="376.2747" y2="358.714">
		<stop  offset="0.0056" style="stop-color:#AD00A1"/>
		<stop  offset="0.5" style="stop-color:#DAD521"/>
		<stop  offset="1" style="stop-color:#63F222"/>
	</linearGradient>
	<path fill="url(#SVGID_55_)" d="M287.188,262.691c39.287,11.131,67.106,19.01,89.087,25.24
		c-28.212,41.109-62.029,90.275-107.399,156.109c2.979,2.056,5.939,4.099,8.909,6.148c-12.891,1.329-26.552,2.727-44.434,4.549
		C262.144,351.361,278.702,292.814,287.188,262.691z"/>
	<linearGradient id="SVGID_56_" gradientUnits="userSpaceOnUse" x1="178.4364" y1="561.81" x2="372.8569" y2="561.81">
		<stop  offset="0" style="stop-color:#DAD521"/>
		<stop  offset="1" style="stop-color:#7C00A8"/>
	</linearGradient>
	<path fill="url(#SVGID_56_)" d="M228.229,473.129c30.67-2.236,49.913-3.622,74.972-5.394
		c21.559,14.888,42.879,29.624,63.993,44.228c1.773,25.732,2.094,30.663,5.663,83.834l-67.825,4.395l-1.531-24.612l2.288-0.136
		l0.068,1.184l39.324-3.44c-1.708-14.547-2.909-24.782-4.602-39.205c-9.945,1.149-66.227,7.651-76.166,8.799
		c1.115,9.874,5.436,48.159,8.206,72.7c-40.774,19.868-61.937,30.186-82.971,40.403c-3.734-1.028-7.467-2.055-11.212-3.086
		C197.92,582.249,214.384,522.887,228.229,473.129z"/>
	<linearGradient id="SVGID_57_" gradientUnits="userSpaceOnUse" x1="125.8439" y1="576.6756" x2="218.1909" y2="576.6756">
		<stop  offset="0" style="stop-color:#00A995"/>
		<stop  offset="0" style="stop-color:#3C3795"/>
		<stop  offset="0.5056" style="stop-color:#A53594"/>
		<stop  offset="1" style="stop-color:#DA2128"/>
	</linearGradient>
	<path fill="url(#SVGID_57_)" d="M125.844,480.612c40.658-2.972,69.599-5.09,92.347-6.751
		c-12.476,48.38-27.453,106.202-47.53,183.426c3.502,0.913,6.982,1.82,10.474,2.731c-11.616,5.637-23.972,11.621-40.199,19.472
		C132.607,572.118,128.152,511.548,125.844,480.612z"/>
	<linearGradient id="SVGID_58_" gradientUnits="userSpaceOnUse" x1="48.7657" y1="812.3174" x2="161.5753" y2="812.3174">
		<stop  offset="0" style="stop-color:#552F7F"/>
		<stop  offset="1" style="stop-color:#FFDB00"/>
	</linearGradient>
	<path fill="url(#SVGID_58_)" d="M48.766,740.573c37.199-16.703,63.654-28.585,84.467-37.927
		c4.813,49.624,10.511,109.03,18.072,188.621c3.434-0.324,6.846-0.646,10.271-0.969c-11.264,11.612-21.452,22.107-30.762,31.692
		C99.779,853.66,77.861,805.026,48.766,740.573z"/>
	<linearGradient id="SVGID_59_" gradientUnits="userSpaceOnUse" x1="65.8055" y1="1050.1036" x2="222.46" y2="1050.1036">
		<stop  offset="0" style="stop-color:#FFF33B"/>
		<stop  offset="0.0662" style="stop-color:#F6D955"/>
		<stop  offset="0.1346" style="stop-color:#EFC768"/>
		<stop  offset="0.205" style="stop-color:#EBBC73"/>
		<stop  offset="0.28" style="stop-color:#EAB877"/>
		<stop  offset="0.67" style="stop-color:#DA9087"/>
		<stop  offset="0.89" style="stop-color:#CD6C8F"/>
		<stop  offset="1" style="stop-color:#BE2F92"/>
	</linearGradient>
	<path fill="url(#SVGID_59_)" d="M65.806,1011.218c13.849-13.498,34.633-33.76,65.989-64.22
		c21.459,44.912,47.092,98.704,81.347,170.756c3.116-1.479,6.212-2.948,9.319-4.422c-6.531,14.58-12.456,27.796-17.877,39.877
		C166.815,1114.677,129.15,1076.122,65.806,1011.218z"/>
	<linearGradient id="SVGID_60_" gradientUnits="userSpaceOnUse" x1="173.8241" y1="1261.4453" x2="355.9117" y2="1261.4453">
		<stop  offset="0" style="stop-color:#DAD521"/>
		<stop  offset="0.5225" style="stop-color:#75ED30"/>
		<stop  offset="1" style="stop-color:#97F023"/>
	</linearGradient>
	<path fill="url(#SVGID_60_)" d="M352.797,1345.678c-48.68-23.296-97.264-46.645-178.973-85.963
		c8.367-17.359,20.91-43.387,39.844-82.502c33.114,32.509,74.061,72.777,135.048,132.792c2.406-2.437,4.796-4.858,7.195-7.288
		C354.778,1318.419,353.746,1332.649,352.797,1345.678z"/>
	<linearGradient id="SVGID_61_" gradientUnits="userSpaceOnUse" x1="218.4456" y1="1183.2775" x2="396.446" y2="1183.2775">
		<stop  offset="0" style="stop-color:#A90093"/>
		<stop  offset="0" style="stop-color:#954937"/>
		<stop  offset="0.5056" style="stop-color:#A58735"/>
		<stop  offset="1" style="stop-color:#DAD521"/>
	</linearGradient>
	<path fill="url(#SVGID_61_)" d="M348.717,1299.88c-58.704-59.677-95.821-97.416-130.271-132.535
		c9.41-19.429,20.274-41.835,32.827-67.683c23.447-11.119,46.645-22.109,69.633-32.988c23.296,11.369,27.652,13.512,75.541,36.972
		l-30.005,60.942l-22.258-11.03l1.174-2.356l1.202,0.601l16.479-35.34c-13.363-5.789-22.977-9.953-36.001-15.595
		c-3.496,8.035-26.974,61.994-30.466,70.019c10.81,4.732,44.615,19.529,66.693,29.193c-2.516,35.343-4.685,65.62-6.58,91.935
		C354.03,1294.635,351.378,1297.254,348.717,1299.88z"/>
	<linearGradient id="SVGID_62_" gradientUnits="userSpaceOnUse" x1="360.3194" y1="1420.4871" x2="557.8998" y2="1420.4871">
		<stop  offset="0" style="stop-color:#FBD437"/>
		<stop  offset="0.5056" style="stop-color:#ED1C24"/>
		<stop  offset="1" style="stop-color:#F58220"/>
	</linearGradient>
	<path fill="url(#SVGID_62_)" d="M360.319,1456.281c2.029-20.204,4.889-48.707,9.223-91.154
		c42.112,19.167,94.43,43.033,172.322,78.595c1.426-3.11,2.846-6.206,4.269-9.31c4.304,15.139,8.201,28.863,11.767,41.436
		C504.218,1470.609,450.578,1465.285,360.319,1456.281z"/>
	<linearGradient id="SVGID_63_" gradientUnits="userSpaceOnUse" x1="559.4084" y1="1405.0551" x2="763.6375" y2="1405.0551">
		<stop  offset="0" style="stop-color:#8FC752"/>
		<stop  offset="0.5112" style="stop-color:#363180"/>
		<stop  offset="1" style="stop-color:#F19441"/>
	</linearGradient>
	<path fill="url(#SVGID_63_)" d="M559.408,1405.464c10.909-23.782,21.737-47.37,32.501-70.807
		c24.7-6.152,29.702-7.382,81.107-20.104l16.187,65.971l-24.141,5.858l-0.615-2.56l1.307-0.312l-10.092-37.665
		c-18.329,5.457-19.525,5.813-37.603,11.195c2.486,8.402,19.186,64.829,21.669,73.221c11.318-3.322,46.729-13.717,69.855-20.506
		c20.798,28.702,38.598,53.289,54.053,74.656c-0.349,3.712-0.697,7.423-1.047,11.146c-83.345-7.983-136.009-13.031-184.986-17.791
		C572.375,1457.036,566.355,1433.128,559.408,1405.464z"/>
	<linearGradient id="SVGID_64_" gradientUnits="userSpaceOnUse" x1="580.2869" y1="1532.8015" x2="795.1542" y2="1532.8015">
		<stop  offset="0" style="stop-color:#DA2128"/>
		<stop  offset="0.5225" style="stop-color:#ED6C30"/>
		<stop  offset="1" style="stop-color:#F05123"/>
	</linearGradient>
	<path fill="url(#SVGID_64_)" d="M602.797,1577.207c-5.003-19.68-12.065-47.442-22.51-88.811
		c46.052,3.602,103.351,8.133,188.811,14.917c0.276-3.413,0.551-6.805,0.827-10.208c9.229,12.763,17.586,24.328,25.229,34.912
		C742.849,1541.473,690.676,1554.802,602.797,1577.207z"/>
	<linearGradient id="SVGID_65_" gradientUnits="userSpaceOnUse" x1="772.4989" y1="1430.0797" x2="994.2411" y2="1430.0797">
		<stop  offset="0" style="stop-color:#DA2128"/>
		<stop  offset="1" style="stop-color:#00A84F"/>
	</linearGradient>
	<path fill="url(#SVGID_65_)" d="M772.499,1461.362c2.123-26.146,4.229-52.016,6.323-77.653
		c21.107-14.229,25.386-17.095,69.34-46.631l37.775,56.456l-20.681,13.761l-1.454-2.195l1.122-0.74l-22.366-31.941
		c-15.325,11.373-16.383,12.158-31.506,23.38c5.216,7.053,40.232,54.398,45.405,61.394c9.531-7.017,39.231-28.881,58.629-43.162
		c29.346,19.848,54.486,36.867,76.327,51.666c0.942,3.607,1.884,7.214,2.828,10.832c-81.06,21.007-132.313,34.285-179.915,46.551
		C802.322,1505.389,788.489,1484.982,772.499,1461.362z"/>
	<linearGradient id="SVGID_66_" gradientUnits="userSpaceOnUse" x1="820.4827" y1="1539.8127" x2="1035.9434" y2="1539.8127">
		<stop  offset="0" style="stop-color:#007DFF"/>
		<stop  offset="0.5" style="stop-color:#28F584"/>
		<stop  offset="1" style="stop-color:#5845BE"/>
	</linearGradient>
	<path fill="url(#SVGID_66_)" d="M872.011,1607.909c-11.433-16.782-27.563-40.455-51.528-75.757
		c44.475-12.357,99.685-27.645,182.527-50.559c-0.907-3.299-1.809-6.584-2.714-9.876c13.036,8.836,24.846,16.846,35.648,24.178
		C991.438,1526.399,946.935,1556.792,872.011,1607.909z"/>
	<linearGradient id="SVGID_67_" gradientUnits="userSpaceOnUse" x1="971.2407" y1="1391.5204" x2="1205.4141" y2="1391.5204">
		<stop  offset="0" style="stop-color:#3452C6"/>
		<stop  offset="1" style="stop-color:#A98A2E"/>
	</linearGradient>
	<path fill="url(#SVGID_67_)" d="M991.858,1441.009c-6.93-25.231-13.798-50.26-20.617-75.133
		c14.967-20.59,18.008-24.746,49.209-67.534l54.806,40.132l-14.727,20.005l-2.117-1.566l0.801-1.079l-31.942-22.366
		c-12.938,19.606-8.271,12.534-21.609,32.746c8.337,5.521,55.341,36.649,63.665,42.162c6.562-9.861,26.988-40.558,40.331-60.611
		c34.383,8.619,63.822,16.011,89.395,22.445c2.119,3.068,4.237,6.135,6.362,9.211c-68.972,47.454-112.582,77.454-153.143,105.278
		C1034.944,1472.184,1014.962,1457.736,991.858,1441.009z"/>
	<linearGradient id="SVGID_68_" gradientUnits="userSpaceOnUse" x1="1061.1587" y1="1458.755" x2="1251.2246" y2="1458.755">
		<stop  offset="0" style="stop-color:#552F7F"/>
		<stop  offset="1" style="stop-color:#FFDB00"/>
	</linearGradient>
	<path fill="url(#SVGID_68_)" d="M1135.489,1544.682c-16.374-11.781-39.628-28.509-74.33-53.564
		c37.682-26.906,84.453-60.241,154.226-109.938c-1.981-2.79-3.952-5.568-5.929-8.352c15.275,3.845,29.11,7.332,41.768,10.527
		C1219.848,1427.225,1188.412,1471.023,1135.489,1544.682z"/>
	<linearGradient id="SVGID_69_" gradientUnits="userSpaceOnUse" x1="1145.9539" y1="1285.1323" x2="1370.6387" y2="1285.1323">
		<stop  offset="0" style="stop-color:#552F7F"/>
		<stop  offset="1" style="stop-color:#FFDB00"/>
	</linearGradient>
	<path fill="url(#SVGID_69_)" d="M1191.023,1346.857c-15.141-21.337-30.155-42.506-45.07-63.547
		c7.023-24.47,8.458-29.414,23.144-80.295l65.227,18.967l-6.997,23.836l-2.525-0.747l0.384-1.288l-37.665-10.092
		c-3.378,14.154-5.814,24.367-9.106,38.162c8.52,2.048,65.737,15.799,74.246,17.844c2.787-11.486,11.486-47.334,17.169-70.75
		c35.239-3.659,65.437-6.781,91.68-9.484c3.04,2.158,6.08,4.316,9.129,6.48c-48.576,68.174-79.29,111.272-107.9,151.306
		C1242.132,1361.403,1218.387,1354.653,1191.023,1346.857z"/>
	<linearGradient id="SVGID_70_" gradientUnits="userSpaceOnUse" x1="1282.4076" y1="1173.9709" x2="1335.5125" y2="1173.9709">
		<stop  offset="0" style="stop-color:#0080C8"/>
		<stop  offset="0.4944" style="stop-color:#833594"/>
		<stop  offset="1" style="stop-color:#F2981F"/>
	</linearGradient>
	<path fill="url(#SVGID_70_)" d="M1282.408,1153.351c17.568,12.454,35.266,25.006,53.105,37.663
		c-15.601,1.115-32.312,2.306-50.226,3.577C1284.001,1176.172,1283.1,1163.272,1282.408,1153.351z"/>
	<linearGradient id="SVGID_71_" gradientUnits="userSpaceOnUse" x1="1273.2854" y1="1299.563" x2="1415.0321" y2="1299.563">
		<stop  offset="0.0056" style="stop-color:#AD00A1"/>
		<stop  offset="0.5" style="stop-color:#DAD521"/>
		<stop  offset="1" style="stop-color:#63F222"/>
	</linearGradient>
	<path fill="url(#SVGID_71_)" d="M1361.453,1395.154c-18.548-5.226-46.359-13.058-88.168-24.912
		c26.277-38.273,58.831-85.602,107.324-156.056c-2.818-1.946-5.617-3.88-8.427-5.82c15.667-1.611,29.863-3.066,42.849-4.393
		C1400.545,1255.953,1385.993,1307.832,1361.453,1395.154z"/>
	<linearGradient id="SVGID_72_" gradientUnits="userSpaceOnUse" x1="1276.1781" y1="1096.556" x2="1469.9863" y2="1096.556">
		<stop  offset="0" style="stop-color:#FFF166"/>
		<stop  offset="0.0782" style="stop-color:#F0E660"/>
		<stop  offset="0.1758" style="stop-color:#E5DD5B"/>
		<stop  offset="0.28" style="stop-color:#E1DA59"/>
		<stop  offset="0.67" style="stop-color:#24B34B"/>
		<stop  offset="0.89" style="stop-color:#21777E"/>
		<stop  offset="1" style="stop-color:#2E3192"/>
	</linearGradient>
	<path fill="url(#SVGID_72_)" d="M1420.343,1184.901c-21.321,1.55-45.911,3.326-74.364,5.364
		c-21.58-14.91-42.931-29.67-64.087-44.303c-1.77-25.394-2.112-30.532-5.714-83.366l67.78-4.486l1.577,24.791l-2.628,0.161
		l-0.08-1.342l-38.845,3.399c1.682,14.582,2.856,24.763,4.495,38.975c8.716-0.991,67.226-7.642,75.871-8.625
		c-1.311-11.763-5.396-48.415-8.065-72.355c31.87-15.495,59.175-28.755,82.907-40.268c3.595,0.988,7.189,1.976,10.795,2.967
		C1447.65,1086.514,1433.53,1137.516,1420.343,1184.901z"/>
	<linearGradient id="SVGID_73_" gradientUnits="userSpaceOnUse" x1="1431.2756" y1="1081.743" x2="1522.6484" y2="1081.743">
		<stop  offset="0" style="stop-color:#5652C7"/>
		<stop  offset="0.5112" style="stop-color:#802109"/>
		<stop  offset="1" style="stop-color:#47F141"/>
	</linearGradient>
	<path fill="url(#SVGID_73_)" d="M1522.648,1177.358c-20.245,1.51-48.806,3.643-91.373,6.746
		c11.591-44.908,25.949-100.34,47.479-183.352c-3.313-0.865-6.606-1.725-9.91-2.587c14.168-6.871,27.008-13.092,38.763-18.783
		C1511.773,1033.189,1515.844,1086.935,1522.648,1177.358z"/>
</g>
</svg>
