<?xml version="1.0" encoding="UTF-8" standalone="no"?>
<!-- Created with Inkscape (http://www.inkscape.org/) -->

<svg
   xmlns:dc="http://purl.org/dc/elements/1.1/"
   xmlns:cc="http://creativecommons.org/ns#"
   xmlns:rdf="http://www.w3.org/1999/02/22-rdf-syntax-ns#"
   xmlns:svg="http://www.w3.org/2000/svg"
   xmlns="http://www.w3.org/2000/svg"
   xmlns:sodipodi="http://sodipodi.sourceforge.net/DTD/sodipodi-0.dtd"
   xmlns:inkscape="http://www.inkscape.org/namespaces/inkscape"
   width="210mm"
   height="297mm"
   viewBox="0 0 210 297"
   version="1.1"
   id="svg8"
   inkscape:version="0.92.3 (2405546, 2018-03-11)"
   sodipodi:docname="ancora.svg">
  <defs
     id="defs2">
    <inkscape:path-effect
       fuse_tolerance="0"
       vertical_pattern="false"
       prop_units="false"
       tang_offset="0"
       normal_offset="0"
       spacing="0"
       scale_y_rel="false"
       prop_scale="-0.08514779"
       copytype="single_stretched"
       pattern="m -1.0583331,9.2333356 c 0,-2.7600005 2.2399993,-5.0000003 4.9999997,-5.0000003 2.7599995,0 5,2.2399998 5,5.0000003 0,2.7600004 -2.2400005,5.0000024 -5,5.0000024 -2.7600004,0 -4.9999997,-2.240002 -4.9999997,-5.0000024 z"
       is_visible="true"
       id="path-effect1093"
       effect="skeletal" />
    <inkscape:path-effect
       fuse_tolerance="0"
       vertical_pattern="false"
       prop_units="false"
       tang_offset="0"
       normal_offset="0"
       spacing="0"
       scale_y_rel="false"
       prop_scale="0.16541139"
       copytype="single_stretched"
       pattern="m -1.0583331,40.983337 c 0,-2.76 2.2399993,-5 4.9999997,-5 2.7599995,0 5,2.24 5,5 0,2.760001 -2.2400005,5.000003 -5,5.000003 -2.7600004,0 -4.9999997,-2.240002 -4.9999997,-5.000003 z"
       is_visible="true"
       id="path-effect1079"
       effect="skeletal" />
    <inkscape:path-effect
       fuse_tolerance="0"
       vertical_pattern="false"
       prop_units="false"
       tang_offset="0"
       normal_offset="0"
       spacing="0"
       scale_y_rel="false"
       prop_scale="0.073969094"
       copytype="single_stretched"
       pattern="m -25.622272,5.179409 c 0,-2.7600005 2.24,-5.00000124 5,-5.00000124 2.76,0 5,2.24000074 5,5.00000124 0,2.7599992 -2.24,5 -5,5 -2.76,0 -5,-2.2400008 -5,-5 z"
       is_visible="true"
       id="path-effect1420"
       effect="skeletal" />
    <inkscape:path-effect
       simplifyJustCoalesce="false"
       simplifyindividualpaths="false"
       simplify_just_coalesce="false"
       simplify_individual_paths="false"
       helper_size="0"
       smooth_angles="360"
       threshold="0.00980583"
       steps="1"
       is_visible="true"
       id="path-effect1418"
       effect="simplify" />
    <inkscape:path-effect
       effect="skeletal"
       id="path-effect1414"
       is_visible="true"
       pattern="m 8.8323239,15.747694 c 0,-2.760002 2.2399991,-5.000004 5.0000011,-5.000004 2.760001,0 5.000002,2.240002 5.000002,5.000004 0,2.760001 -2.240001,5.000003 -5.000002,5.000003 -2.760002,0 -5.0000011,-2.240002 -5.0000011,-5.000003 z"
       copytype="single_stretched"
       prop_scale="0.077926137"
       scale_y_rel="false"
       spacing="0"
       normal_offset="0"
       tang_offset="0"
       prop_units="false"
       vertical_pattern="false"
       fuse_tolerance="0" />
    <inkscape:path-effect
       effect="simplify"
       id="path-effect1412"
       is_visible="true"
       steps="1"
       threshold="0.00980583"
       smooth_angles="360"
       helper_size="0"
       simplify_individual_paths="false"
       simplify_just_coalesce="false"
       simplifyindividualpaths="false"
       simplifyJustCoalesce="false" />
    <inkscape:path-effect
       effect="skeletal"
       id="path-effect1282"
       is_visible="true"
       pattern="m 8.8323239,24.214366 c 0,-2.760002 2.2399991,-5.000003 5.0000011,-5.000003 2.760001,0 5.000002,2.240001 5.000002,5.000003 0,2.760001 -2.240001,5.000003 -5.000002,5.000003 -2.760002,0 -5.0000011,-2.240002 -5.0000011,-5.000003 z"
       copytype="single_stretched"
       prop_scale="0.14033644"
       scale_y_rel="false"
       spacing="0"
       normal_offset="0"
       tang_offset="0"
       prop_units="false"
       vertical_pattern="false"
       fuse_tolerance="0" />
    <inkscape:path-effect
       effect="skeletal"
       id="path-effect1278"
       is_visible="true"
       pattern="m 0,13.466669 c 0,-2.760002 2.24,-5.0000018 5,-5.0000018 2.76,0 5,2.2399998 5,5.0000018 0,2.760001 -2.24,5.000003 -5,5.000003 -2.76,0 -5,-2.240002 -5,-5.000003 z"
       copytype="single_stretched"
       prop_scale="0.17410687"
       scale_y_rel="false"
       spacing="0"
       normal_offset="0"
       tang_offset="0"
       prop_units="false"
       vertical_pattern="false"
       fuse_tolerance="0" />
    <inkscape:path-effect
       effect="skeletal"
       id="path-effect1274"
       is_visible="true"
       pattern="M 0,5 C 0,2.24 2.24,0 5,0 7.76,0 10,2.24 10,5 10,7.76 7.76,10 5,10 2.24,10 0,7.76 0,5 Z"
       copytype="single_stretched"
       prop_scale="0.12566441"
       scale_y_rel="false"
       spacing="0"
       normal_offset="0"
       tang_offset="0"
       prop_units="false"
       vertical_pattern="false"
       fuse_tolerance="0" />
    <inkscape:path-effect
       effect="bspline"
       id="path-effect1272"
       is_visible="true"
       weight="33.333333"
       steps="2"
       helper_size="0"
       apply_no_weight="true"
       apply_with_weight="true"
       only_selected="false" />
    <inkscape:path-effect
       effect="skeletal"
       id="path-effect1268"
       is_visible="true"
       pattern="m 0,13.466669 c 0,-2.760002 2.24,-5.0000018 5,-5.0000018 2.76,0 5,2.2399998 5,5.0000018 0,2.760001 -2.24,5.000003 -5,5.000003 -2.76,0 -5,-2.240002 -5,-5.000003 z"
       copytype="single_stretched"
       prop_scale="0.15227558"
       scale_y_rel="false"
       spacing="0"
       normal_offset="0"
       tang_offset="0"
       prop_units="false"
       vertical_pattern="false"
       fuse_tolerance="0" />
    <inkscape:path-effect
       effect="skeletal"
       id="path-effect1264"
       is_visible="true"
       pattern="m -3.9552322,13.466669 c 0,-2.760002 2.24,-5.0000019 5,-5.0000019 2.76,0 5,2.2399999 5,5.0000019 0,2.760001 -2.24,5.000003 -5,5.000003 -2.76,0 -5,-2.240002 -5,-5.000003 z"
       copytype="single_stretched"
       prop_scale="-0.081277711"
       scale_y_rel="false"
       spacing="0"
       normal_offset="0"
       tang_offset="0"
       prop_units="false"
       vertical_pattern="false"
       fuse_tolerance="0" />
    <inkscape:path-effect
       fuse_tolerance="0"
       vertical_pattern="false"
       prop_units="false"
       tang_offset="0"
       normal_offset="0"
       spacing="0"
       scale_y_rel="false"
       prop_scale="-0.081277711"
       copytype="single_stretched"
       pattern="m -7.9917028,10.518328 c 0,-2.7600013 2.24,-5.0000026 5,-5.0000026 2.75999998,0 5,2.2400013 5,5.0000026 0,2.760002 -2.24000002,5.000003 -5,5.000003 -2.76,0 -5,-2.240001 -5,-5.000003 z"
       is_visible="true"
       id="path-effect1260"
       effect="skeletal" />
    <inkscape:path-effect
       effect="skeletal"
       id="path-effect1256"
       is_visible="true"
       pattern="m -1.0583331,-1.3499982 c 0,-2.7600005 2.2399993,-4.9999999 4.9999997,-4.9999999 2.7599995,0 5,2.2399994 5,4.9999999 0,2.7599993 -2.2400005,4.9999998 -5,4.9999998 -2.7600004,0 -4.9999997,-2.2400005 -4.9999997,-4.9999998 z"
       copytype="single_stretched"
       prop_scale="-0.076508847"
       scale_y_rel="false"
       spacing="0"
       normal_offset="0"
       tang_offset="0"
       prop_units="false"
       vertical_pattern="false"
       fuse_tolerance="0" />
    <inkscape:path-effect
       effect="skeletal"
       id="path-effect1240"
       is_visible="true"
       pattern="m 0,13.466669 c 0,-2.760002 2.24,-5.0000018 5,-5.0000018 2.76,0 5,2.2399998 5,5.0000018 0,2.760001 -2.24,5.000003 -5,5.000003 -2.76,0 -5,-2.240002 -5,-5.000003 z"
       copytype="single_stretched"
       prop_scale="0.15530878"
       scale_y_rel="false"
       spacing="0"
       normal_offset="0"
       tang_offset="0"
       prop_units="false"
       vertical_pattern="false"
       fuse_tolerance="0" />
    <inkscape:path-effect
       effect="skeletal"
       id="path-effect1230"
       is_visible="true"
       pattern="m 0,13.466669 c 0,-2.760002 2.24,-5.0000018 5,-5.0000018 2.76,0 5,2.2399998 5,5.0000018 0,2.760001 -2.24,5.000003 -5,5.000003 -2.76,0 -5,-2.240002 -5,-5.000003 z"
       copytype="single_stretched"
       prop_scale="0.14657502"
       scale_y_rel="false"
       spacing="0"
       normal_offset="0"
       tang_offset="0"
       prop_units="false"
       vertical_pattern="false"
       fuse_tolerance="0" />
    <inkscape:path-effect
       effect="skeletal"
       id="path-effect1226"
       is_visible="true"
       pattern="M 0,5 C 0,2.24 2.24,0 5,0 7.76,0 10,2.24 10,5 10,7.76 7.76,10 5,10 2.24,10 0,7.76 0,5 Z"
       copytype="single_stretched"
       prop_scale="-0.029969264"
       scale_y_rel="false"
       spacing="0"
       normal_offset="0"
       tang_offset="0"
       prop_units="false"
       vertical_pattern="false"
       fuse_tolerance="0" />
    <inkscape:path-effect
       fuse_tolerance="0"
       vertical_pattern="false"
       prop_units="false"
       tang_offset="0"
       normal_offset="0"
       spacing="0"
       scale_y_rel="false"
       prop_scale="0.21891326"
       copytype="single_stretched"
       pattern="m 37.570835,5 c 0,-2.76 2.24,-5 5.000001,-5 2.76,0 5,2.24 5,5 0,2.76 -2.24,5 -5,5 -2.760001,0 -5.000001,-2.24 -5.000001,-5 z"
       is_visible="true"
       id="path-effect215"
       effect="skeletal" />
    <inkscape:path-effect
       fuse_tolerance="0"
       vertical_pattern="false"
       prop_units="false"
       tang_offset="0"
       normal_offset="0"
       spacing="0"
       scale_y_rel="false"
       prop_scale="0.26458333"
       copytype="single_stretched"
       pattern="m 37.570835,5 c 0,-2.76 2.24,-5 5.000001,-5 2.76,0 5,2.24 5,5 0,2.76 -2.24,5 -5,5 -2.760001,0 -5.000001,-2.24 -5.000001,-5 z"
       is_visible="true"
       id="path-effect211"
       effect="skeletal" />
    <inkscape:path-effect
       fuse_tolerance="0"
       vertical_pattern="false"
       prop_units="false"
       tang_offset="0"
       normal_offset="0"
       spacing="0"
       scale_y_rel="false"
       prop_scale="0.26458333"
       copytype="single_stretched"
       pattern="m 82.550003,5 c 0,-2.76 2.24,-5 5.000001,-5 2.76,0 5,2.24 5,5 0,2.76 -2.24,5 -5,5 -2.760001,0 -5.000001,-2.24 -5.000001,-5 z"
       is_visible="true"
       id="path-effect207"
       effect="skeletal" />
    <inkscape:path-effect
       effect="skeletal"
       id="path-effect203"
       is_visible="true"
       pattern="M 0,5 C 0,2.24 2.24,0 5,0 7.76,0 10,2.24 10,5 10,7.76 7.76,10 5,10 2.24,10 0,7.76 0,5 Z"
       copytype="single_stretched"
       prop_scale="0.26458333"
       scale_y_rel="false"
       spacing="0"
       normal_offset="0"
       tang_offset="0"
       prop_units="false"
       vertical_pattern="false"
       fuse_tolerance="0" />
    <inkscape:path-effect
       effect="skeletal"
       id="path-effect199"
       is_visible="true"
       pattern="M 0,5 C 0,2.24 2.24,0 5,0 7.76,0 10,2.24 10,5 10,7.76 7.76,10 5,10 2.24,10 0,7.76 0,5 Z"
       copytype="single_stretched"
       prop_scale="0.21891326"
       scale_y_rel="false"
       spacing="0"
       normal_offset="0"
       tang_offset="0"
       prop_units="false"
       vertical_pattern="false"
       fuse_tolerance="0" />
    <inkscape:path-effect
       effect="skeletal"
       id="path-effect195"
       is_visible="true"
       pattern="M 0,5 C 0,2.24 2.24,0 5,0 7.76,0 10,2.24 10,5 10,7.76 7.76,10 5,10 2.24,10 0,7.76 0,5 Z"
       copytype="single_stretched"
       prop_scale="0.26458333"
       scale_y_rel="false"
       spacing="0"
       normal_offset="0"
       tang_offset="0"
       prop_units="false"
       vertical_pattern="false"
       fuse_tolerance="0" />
    <inkscape:path-effect
       effect="skeletal"
       id="path-effect44"
       is_visible="true"
       pattern="M 0,5 C 0,2.24 2.24,0 5,0 7.76,0 10,2.24 10,5 10,7.76 7.76,10 5,10 2.24,10 0,7.76 0,5 Z"
       copytype="single_stretched"
       prop_scale="0.26458333"
       scale_y_rel="false"
       spacing="0"
       normal_offset="0"
       tang_offset="0"
       prop_units="false"
       vertical_pattern="false"
       fuse_tolerance="0" />
    <inkscape:path-effect
       effect="skeletal"
       id="path-effect40"
       is_visible="true"
       pattern="M 0,5 C 0,2.24 2.24,0 5,0 7.76,0 10,2.24 10,5 10,7.76 7.76,10 5,10 2.24,10 0,7.76 0,5 Z"
       copytype="single_stretched"
       prop_scale="0.13917747"
       scale_y_rel="false"
       spacing="0"
       normal_offset="0"
       tang_offset="0"
       prop_units="false"
       vertical_pattern="false"
       fuse_tolerance="0" />
    <inkscape:path-effect
       effect="skeletal"
       id="path-effect36"
       is_visible="true"
       pattern="M 0,5 C 0,2.24 2.24,0 5,0 7.76,0 10,2.24 10,5 10,7.76 7.76,10 5,10 2.24,10 0,7.76 0,5 Z"
       copytype="single_stretched"
       prop_scale="0.18749343"
       scale_y_rel="false"
       spacing="0"
       normal_offset="0"
       tang_offset="0"
       prop_units="false"
       vertical_pattern="false"
       fuse_tolerance="0" />
    <inkscape:path-effect
       effect="skeletal"
       id="path-effect32"
       is_visible="true"
       pattern="M 0,5 C 0,2.24 2.24,0 5,0 7.76,0 10,2.24 10,5 10,7.76 7.76,10 5,10 2.24,10 0,7.76 0,5 Z"
       copytype="single_stretched"
       prop_scale="0.26458333"
       scale_y_rel="false"
       spacing="0"
       normal_offset="0"
       tang_offset="0"
       prop_units="false"
       vertical_pattern="false"
       fuse_tolerance="0" />
    <inkscape:path-effect
       effect="skeletal"
       id="path-effect28"
       is_visible="true"
       pattern="M 0,5 C 0,2.24 2.24,0 5,0 7.76,0 10,2.24 10,5 10,7.76 7.76,10 5,10 2.24,10 0,7.76 0,5 Z"
       copytype="single_stretched"
       prop_scale="-0.23636382"
       scale_y_rel="false"
       spacing="0"
       normal_offset="0"
       tang_offset="0"
       prop_units="false"
       vertical_pattern="false"
       fuse_tolerance="0" />
    <inkscape:path-effect
       effect="skeletal"
       id="path-effect12"
       is_visible="true"
       pattern="M 0,5 C 0,2.24 2.24,0 5,0 7.76,0 10,2.24 10,5 10,7.76 7.76,10 5,10 2.24,10 0,7.76 0,5 Z"
       copytype="single_stretched"
       prop_scale="0.11451607"
       scale_y_rel="false"
       spacing="0"
       normal_offset="0"
       tang_offset="0"
       prop_units="false"
       vertical_pattern="false"
       fuse_tolerance="0" />
    <inkscape:path-effect
       effect="skeletal"
       id="path-effect199-7"
       is_visible="true"
       pattern="m 66.389692,84.512149 c 0,-2.759997 2.24,-4.999997 5,-4.999997 2.76,0 5,2.24 5,4.999997 0,2.76 -2.24,4.999997 -5,4.999997 -2.76,0 -5,-2.239997 -5,-4.999997 z"
       copytype="single_stretched"
       prop_scale="0.21891326"
       scale_y_rel="false"
       spacing="0"
       normal_offset="0"
       tang_offset="0"
       prop_units="false"
       vertical_pattern="false"
       fuse_tolerance="0" />
  </defs>
  <sodipodi:namedview
     id="base"
     pagecolor="#ffffff"
     bordercolor="#666666"
     borderopacity="1.0"
     inkscape:pageopacity="0.0"
     inkscape:pageshadow="2"
     inkscape:zoom="0.96997045"
     inkscape:cx="200.94497"
     inkscape:cy="603.56071"
     inkscape:document-units="mm"
     inkscape:current-layer="layer2"
     showgrid="false"
     inkscape:object-nodes="false"
     inkscape:window-width="1366"
     inkscape:window-height="705"
     inkscape:window-x="-8"
     inkscape:window-y="-8"
     inkscape:window-maximized="1"
     inkscape:snap-others="false"
     inkscape:snap-nodes="false" />
  <metadata
     id="metadata5">
    <rdf:RDF>
      <cc:Work
         rdf:about="">
        <dc:format>image/svg+xml</dc:format>
        <dc:type
           rdf:resource="http://purl.org/dc/dcmitype/StillImage" />
        <dc:title />
      </cc:Work>
    </rdf:RDF>
  </metadata>
  <g
     inkscape:groupmode="layer"
     id="layer2"
     inkscape:label="Camada 2"
     style="display:inline">
    <path
       style="opacity:1;fill:#b3b3b3;fill-opacity:1;fill-rule:nonzero;stroke:none;stroke-width:0.86956573;stroke-linecap:round;stroke-linejoin:round;stroke-miterlimit:4;stroke-dasharray:none;stroke-dashoffset:0;stroke-opacity:1"
       d="M 103.10877,67.596312 A 10.910991,10.910991 0 0 0 92.197656,78.507428 10.910991,10.910991 0 0 0 103.10877,89.418543 10.910991,10.910991 0 0 0 114.01989,78.507428 10.910991,10.910991 0 0 0 103.10877,67.596312 Z m 0,5.455559 a 5.4554952,5.4554952 0 0 1 5.45556,5.455557 5.4554952,5.4554952 0 0 1 -5.45556,5.455557 5.4554952,5.4554952 0 0 1 -5.455556,-5.455557 5.4554952,5.4554952 0 0 1 5.455556,-5.455557 z"
       id="path1261"
       inkscape:connector-curvature="0" />
    <path
       inkscape:connector-curvature="0"
       d="m 111.83137,84.216753 c 2.67215,-4.631682 1.08367,-10.552608 -3.54798,-13.224809 -2.75473,-1.584275 -6.11152,-1.715902 -8.981848,-0.352197 -1.219959,1.507496 0.507639,2.271108 0.594159,2.357261 2.312659,-0.800637 5.239329,-0.302406 7.360209,0.918791 2.9477,2.074985 3.7632,5.893779 2.54929,8.331036 -2.33176,4.041694 -7.1418,5.363661 -11.183463,3.031846 -3.540341,-2.044034 -5.632457,-5.431184 -4.24875,-9.277928 -1.649094,4.429027 0.140365,9.401464 4.23357,11.763977 4.631683,2.672156 10.552613,1.083678 13.224813,-3.547977 z"
       style="opacity:1;fill:#000080;fill-opacity:1;fill-rule:nonzero;stroke:none;stroke-width:4.96936941;stroke-linecap:round;stroke-linejoin:round;stroke-miterlimit:4;stroke-dasharray:none;stroke-dashoffset:0;stroke-opacity:1"
       id="path1476"
       sodipodi:nodetypes="cccccccccc" />
    <path
       inkscape:connector-curvature="0"
       d="m 131.84987,104.31089 c -0.39981,0.0821 -0.80962,0.11854 -1.21758,0.15957 -0.76201,0.0756 -1.52179,0.16465 -2.28199,0.25174 -1.06554,0.10571 -2.13076,0.21361 -3.1953,0.32626 -1.24403,0.13343 -2.49132,0.24133 -3.73807,0.35536 -1.38335,0.13192 -2.7706,0.23046 -4.15662,0.33972 -1.48855,0.10512 -2.97792,0.20127 -4.46794,0.29075 -1.59088,0.09 -3.18296,0.16137 -4.77585,0.22143 -1.76531,0.0687 -3.5327,0.0837 -5.29966,0.0767 -1.51277,-0.01 -3.025126,-0.0428 -4.537078,-0.0838 -1.333586,-0.0389 -2.665991,-0.0998 -3.998382,-0.15982 -1.162456,-0.0518 -2.321723,-0.13925 -3.480529,-0.22988 -0.969234,-0.0751 -1.935951,-0.17013 -2.903302,-0.25993 -0.803321,-0.0801 -1.606565,-0.16194 -2.408245,-0.25285 -0.671953,-0.0697 -1.343287,-0.14316 -2.01319,-0.22544 -0.570838,-0.0677 -1.139463,-0.14777 -1.707546,-0.2299 -0.496,-0.0722 -0.989128,-0.15545 -1.484497,-0.23016 -0.420871,-0.0732 -0.846659,-0.12242 -1.267676,-0.19476 -0.331344,-0.0631 -0.661838,-0.12527 -0.998167,-0.16689 -0.290333,-0.0385 -0.582105,-0.0691 -0.873637,-0.1004 -0.250215,-0.0266 -0.500882,-0.0509 -0.749195,-0.0882 -0.193495,-0.0353 -0.388708,-0.0602 -0.580125,-0.10306 -0.216958,-0.0592 -0.356093,-0.12352 -0.423782,-0.31099 -0.01414,-0.004 0.05217,-0.1704 0.0663,-0.16649 v 0 c 0.19296,-0.15391 0.393862,-0.21506 0.661023,-0.22565 0.208525,-0.002 0.415276,0.0123 0.623501,0.0186 0.254809,0.014 0.508251,0.0408 0.761874,0.065 0.297283,0.0298 0.594212,0.0618 0.891709,0.0898 0.349618,0.0376 0.700551,0.0593 1.051567,0.0858 0.432689,0.038 0.861109,0.10076 1.293682,0.13972 0.506171,0.0538 1.013834,0.0942 1.51984,0.14973 0.568749,0.0617 1.13713,0.12561 1.706521,0.18304 0.668629,0.0658 1.337446,0.13039 2.007192,0.18787 0.806813,0.0628 1.613382,0.12716 2.42098,0.18267 0.965424,0.0737 1.931409,0.14288 2.898523,0.19937 1.153944,0.0634 2.309272,0.10656 3.464897,0.14246 1.33037,0.0422 2.661288,0.068 3.992502,0.0835 1.50474,0.0209 3.0096,0.0386 4.51458,0.04 1.44431,-0.002 2.88885,-0.0123 4.33208,-0.0644 1.58972,-0.0563 3.17959,-0.1108 4.76876,-0.17694 1.49924,-0.0567 2.99835,-0.1143 4.49732,-0.17588 1.40089,-0.0494 2.80068,-0.11963 4.20103,-0.17847 1.26803,-0.0585 2.53513,-0.13015 3.80358,-0.18224 1.09265,-0.042 2.18545,-0.0807 3.27799,-0.12411 0.78439,-0.0219 1.56823,-0.0496 2.35191,-0.0848 0.43871,-0.0155 0.88002,-0.0333 1.31563,0.0264 0.034,-0.008 0.1693,0.39177 0.13537,0.39974 z"
       id="path1118"
       style="opacity:1;fill:#000080;fill-opacity:1;fill-rule:nonzero;stroke:none;stroke-width:0.62656367;stroke-linecap:round;stroke-linejoin:round;stroke-miterlimit:4;stroke-dasharray:none;stroke-dashoffset:0;stroke-opacity:1" />
    <path
       style="fill:#b3b3b3;fill-opacity:1;stroke:none;stroke-width:0.26458332px;stroke-linecap:butt;stroke-linejoin:miter;stroke-opacity:1"
       d="m 75.285797,103.60278 c -1.518076,-1.67617 -0.568148,-4.175009 0,-6.546587 18.548674,-2.256262 37.097353,-2.98665 55.646023,0.545549 0.30687,2.258913 2.30154,4.939778 0,6.546588 -18.54867,1.63604 -37.097349,1.45541 -55.646023,-0.54555 z"
       id="path887"
       inkscape:connector-curvature="0"
       sodipodi:nodetypes="ccccc" />
    <path
       style="fill:#b3b3b3;stroke:none;stroke-width:0.26458332px;stroke-linecap:butt;stroke-linejoin:miter;stroke-opacity:1"
       d="m 104.19991,207.80269 c 11.55494,-15.51328 35.9858,-23.34542 45.55336,-43.64394 l 7.36492,1.63665 c -0.19764,-16.07792 -5.79492,-26.75619 -10.91099,-37.91568 1.83649,7.36647 -7.22235,27.95222 -12.82041,31.91464 -0.44529,0.31519 6.54659,1.90942 6.54659,1.90942 -5.11707,8.91125 -20.25722,22.38417 -27.82301,15.82093 -4.83632,-7.38875 -4.3347,-56.63786 -4.63717,-87.287883 -0.16473,-11.475173 -7.79168,-16.469991 -8.183236,0 -0.444481,28.732263 -1.217368,57.464523 -3.818845,86.196783 -2.930233,10.65093 -22.205733,-3.83196 -28.368561,-14.72983 l 6.819365,-1.63665 c -7.534033,-7.95829 -13.071412,-17.71358 -13.365956,-32.18741 -5.726111,11.89191 -11.56362,23.73432 -10.910985,38.46123 l 7.910465,-2.45497 c 9.898257,24.99705 32.460182,24.91341 46.644463,43.91671 z"
       id="path1259"
       inkscape:connector-curvature="0"
       sodipodi:nodetypes="ccccsccccccccccc" />
    <path
       style="fill:#b3b3b3;fill-opacity:1;stroke:none;stroke-width:0.26458332px;stroke-linecap:butt;stroke-linejoin:miter;stroke-opacity:1"
       d="m 123.22914,100.39807 c -0.74899,1.41094 -2.90384,0.41079 -4.00529,0.78971 0.15305,-1.69518 -0.72261,-3.64173 -1.21305,-5.49415 l 4.63736,0.0316 c 0.2551,1.08419 1.42397,2.80082 1.14296,4.55451 z"
       id="path893"
       inkscape:connector-curvature="0"
       sodipodi:nodetypes="cccccc" />
    <path
       id="path193"
       style="fill:#000080;stroke:none;stroke-width:0.99999994px;stroke-linecap:butt;stroke-linejoin:miter;stroke-opacity:1"
       d="m 232.10352,480.72656 c 0.20516,0.0128 0.28533,0.56265 0.3125,1.58399 0.11779,-1.01515 0.0555,-1.56107 -0.3125,-1.58399 z m 0.3125,1.58399 c -0.80866,6.96883 -10.27743,36.55327 9.80078,78.42773 9.14977,16.65328 21.10216,28.50222 35.54492,44.81836 -9.14114,-0.41099 -15.82351,2.64268 -25.30503,3.84341 l 2.80859,3.86277 c 9.81931,-1.42585 16.79835,-5.86822 26.18199,-5.83313 -13.54256,-20.1854 -23.7992,-32.58083 -32.00977,-50.33985 -19.36578,-36.32271 -16.82899,-67.54191 -17.02148,-74.77929 z m -0.95313,-0.50782 c -1.31716,0.39886 -11.25579,13.75274 -22.03906,38.94336 -11.05156,25.81739 -22.82869,64.42557 -22.83399,110.50391 9.05106,-4.90348 20.3777,-4.60327 30.61151,-8.15409 l -1.76457,-4.88034 c -9.50731,3.35953 -17.96039,4.01693 -26.34303,8.86451 1.86313,-42.66021 14.45732,-79.59103 24.8457,-104.67383 10.50161,-25.35621 18.66735,-39.99495 17.625,-40.60156 -0.0243,-0.0141 -0.0591,-0.0148 -0.10156,-0.002 z"
       inkscape:connector-curvature="0"
       sodipodi:nodetypes="ccccccccccccsccccsccc"
       transform="scale(0.26458333)" />
    <path
       id="path201"
       transform="scale(0.26458333)"
       style="fill:#000080;stroke:none;stroke-width:0.99999994px;stroke-linecap:butt;stroke-linejoin:miter;stroke-opacity:1"
       d="m 215.09766,618.09961 c -0.19727,0.0842 5.12681,25.64438 34.81054,56.3125 13.5764,14.02072 30.21769,27.12957 51.47461,40.60547 22.54711,14.34487 49.04722,32.10032 70.80078,54.3418 4.13143,4.20857 8.03626,8.73575 12.06836,13.45703 0.95108,1.14493 2.12496,2.53417 3.71289,3.94336 0.25552,0.35483 0.65077,0.70046 1.1875,1.01562 1.01619,0.59669 2.53289,1.07987 4.54102,1.29492 3.03802,-0.49961 4.88418,-1.54588 5.55859,-2.57422 1.52799,-1.4658 2.65846,-2.89891 3.58594,-4.08789 3.90346,-4.87962 7.70744,-9.55252 11.74609,-13.91406 21.23336,-23.01407 47.41692,-41.63986 69.52344,-56.61133 21.79943,-14.70924 38.08617,-26.92754 52.23633,-41.35742 27.89728,-28.43519 31.24157,-52.31843 30.93945,-52.42578 -1.18681,-0.4217 -8.4627,22.47907 -35.53515,47.71484 -14.44032,13.45778 -30.33897,24.50056 -52.46094,38.76172 -22.70303,14.5861 -49.58693,33.20493 -71.98242,57.1543 -4.33727,4.65466 -8.32008,9.50507 -12.26758,14.43164 -0.60141,0.73344 -1.12272,1.3941 -1.60938,1.96484 -0.47295,-0.52363 -0.98477,-1.13215 -1.57421,-1.80468 -4.06009,-4.75197 -8.13874,-9.44518 -12.57618,-13.94336 -22.91951,-23.15012 -50.11718,-40.91386 -73.23632,-54.87891 -21.19336,-12.84019 -37.58529,-24.89102 -51.33594,-37.93359 -26.80597,-25.41179 -36.7625,-48.00335 -39.13281,-51.06836 -0.13578,-0.11011 -0.25363,-0.23469 -0.34961,-0.37696 -0.048,-0.0253 0,0 -0.125,-0.0215 z"
       inkscape:connector-curvature="0"
       sodipodi:nodetypes="cccccccccccccsccccccccccccc" />
    <path
       id="path213"
       style="fill:#000080;stroke:none;stroke-width:0.99999994px;stroke-linecap:butt;stroke-linejoin:miter;stroke-opacity:1"
       d="m 394.02734,301.22852 c -0.87108,-0.0396 -1.33303,0.20817 -1.33203,0.2832 0.003,0.22584 1.18946,0.23272 2.74219,1.30469 1.34893,0.93126 2.61315,2.53391 3.8125,5.18554 0.31794,0.4912 0.53356,1.08562 0.73438,1.68946 1.09193,1.27269 1.36839,2.29623 1.11523,1.26953 -0.0732,-0.16528 -0.15202,-0.33115 -0.20703,-0.50196 -0.045,-0.13999 0.12274,0.26836 0.18359,0.40235 0.0119,0.0483 0.0132,0.0582 0.0234,0.0996 0.0852,0.19244 0.16514,0.38563 0.19922,0.59179 0.13486,0.81742 0.0568,1.57736 -0.1211,2.32227 1.6534,6.74368 1.94814,13.71173 2.11329,25.57422 -0.0125,46.30779 1.14429,125.64542 3.29492,215.66601 -1.4e-4,-0.006 0.15248,6.28516 0.15234,6.2793 0.59687,24.70963 0.86782,46.48936 2.85742,69.30274 0.72095,8.3153 1.66993,16.38159 3.38868,24.34961 1.26661,6.00773 3.02042,11.98636 6.11523,17.50781 2.35611,4.29381 5.92035,8.09924 10.62695,10.32226 5.14324,2.19825 10.55829,2.17291 15.23438,1.15235 7.10547,-1.47525 13.48749,-4.53205 19.02734,-7.59766 9.00187,-4.93937 17.2442,-10.73891 24.23828,-15.92578 11.05987,-8.18346 19.22068,-16.71437 25.16602,-24.78125 12.40886,-16.88029 16.17296,-28.36598 16.38867,-28.22852 -0.61406,-0.39129 -6.56124,10.10457 -19.55273,25.75782 -6.15945,7.43771 -14.31434,15.21103 -25.23438,22.72461 -7.08276,4.86671 -15.32005,10.30243 -24.02344,14.77539 -5.42511,2.76335 -11.29522,5.46042 -17.31054,6.50976 -3.83896,0.61782 -7.86463,0.68835 -10.94532,-0.89062 -2.92161,-1.28079 -5.2894,-4.11479 -7.17382,-7.41602 -2.50509,-4.50837 -3.89193,-9.77992 -5.08008,-15.47851 -1.52677,-7.50908 -2.33623,-15.24945 -2.97656,-23.43164 -1.75616,-22.58809 -1.88783,-43.9312 -2.47657,-68.84961 -1.4e-4,-0.006 -0.15025,-6.27344 -0.15039,-6.2793 -2.15119,-90.04023 -4.78409,-169.35597 -7.00781,-215.60352 -0.75702,-13.74221 -1.88628,-22.00206 -5.23633,-29.90039 -1.69489,-4.41474 -4.47797,-6.83213 -6.58789,-7.70312 -0.80415,-0.33196 -1.47539,-0.45864 -1.99805,-0.48242 z"
       inkscape:connector-curvature="0"
       transform="scale(0.26458333)" />
    <path
       sodipodi:nodetypes="ccccc"
       inkscape:connector-curvature="0"
       id="path895"
       d="m 123.64727,99.947464 c -1.12523,0.765956 -3.24489,1.230406 -4.45456,0.903326 l -0.57705,4.33069 5.29902,-0.42509 c 0.17271,-1.27277 0.19314,-2.81881 -0.26741,-4.808926 z"
       style="fill:#000080;stroke:none;stroke-width:0.29421052px;stroke-linecap:butt;stroke-linejoin:miter;stroke-opacity:1" />
    <path
       id="path217"
       style="opacity:1;fill:#000080;fill-opacity:1;fill-rule:nonzero;stroke:none;stroke-width:23.73410225;stroke-linecap:round;stroke-linejoin:round;stroke-miterlimit:4;stroke-dasharray:none;stroke-dashoffset:0;stroke-opacity:1"
       d="m 390.41797,248.84766 a 46.242426,46.242426 0 0 0 -46.24219,46.24218 46.242426,46.242426 0 0 0 19.98047,37.99805 c 0.0974,-0.54085 0.21725,-1.08881 0.36719,-1.65234 a 40.351343,40.351343 0 0 1 -13.91992,-30.45508 40.351343,40.351343 0 0 1 40.3496,-40.35156 40.351343,40.351343 0 0 1 40.35157,40.35156 40.351343,40.351343 0 0 1 -33.20703,39.70117 46.242426,46.242426 0 0 0 38.5625,-45.5918 46.242426,46.242426 0 0 0 -46.24219,-46.24218 z"
       inkscape:connector-curvature="0"
       transform="scale(0.26458333)" />
    <path
       id="path1029"
       style="opacity:1;fill:#000080;fill-opacity:1;fill-rule:nonzero;stroke:none;stroke-width:9.44054985;stroke-linecap:round;stroke-linejoin:round;stroke-miterlimit:4;stroke-dasharray:none;stroke-dashoffset:0;stroke-opacity:1"
       d="m 389.34766,275.625 a 18.393533,18.393533 0 0 0 -18.39454,18.39453 18.393533,18.393533 0 0 0 1.0918,6.17383 c 0.21919,-0.24162 0.4553,-0.46576 0.73438,-0.65039 0.30656,-0.20282 0.62561,-0.37684 0.95117,-0.53906 a 16.050278,16.050278 0 0 1 -0.2207,-2.64258 16.050278,16.050278 0 0 1 16.05078,-16.04883 16.050278,16.050278 0 0 1 16.04883,16.04883 16.050278,16.050278 0 0 1 -5.94922,12.43555 c 0.0437,0.10939 0.0887,0.21745 0.1289,0.33007 a 18.393533,18.393533 0 0 0 7.95117,-15.10742 18.393533,18.393533 0 0 0 -18.39257,-18.39453 z"
       inkscape:connector-curvature="0"
       transform="scale(0.26458333)" />
    <path
       id="path197"
       style="display:inline;fill:#000080;stroke:none;stroke-width:0.99999994px;stroke-linecap:butt;stroke-linejoin:miter;stroke-opacity:1"
       d="m 386.67578,300.52344 c -0.52266,0.0238 -1.19193,0.15046 -1.99609,0.48242 -2.10992,0.87098 -4.893,3.28837 -6.58789,7.70312 -3.35006,7.89833 -4.48126,16.1582 -5.23828,29.9004 -2.22372,46.24754 -4.85663,125.5633 -7.00782,215.60351 1.5e-4,-0.006 -0.14857,6.28686 -0.14843,6.2793 -0.58875,24.91838 -0.72237,46.26152 -2.47852,68.84961 -0.64037,8.18222 -1.44784,15.92255 -2.97461,23.43164 -1.18815,5.69858 -2.57695,10.97014 -5.08203,15.47851 -1.88442,3.30123 -4.25027,6.13525 -7.17188,7.41602 -3.08068,1.57897 -7.1083,1.50843 -10.94726,0.89062 -6.01532,-1.04934 -11.88349,-3.7464 -17.30859,-6.50976 -8.70339,-4.47296 -16.94264,-9.90868 -24.0254,-14.77539 -10.92004,-7.51359 -19.07493,-15.28688 -25.23437,-22.72461 -9.6791,-11.66222 -15.42735,-20.42902 -17.99414,-23.9961 0.16857,0.48989 0.14416,1.00756 -0.0801,1.48633 2.02571,4.49812 6.40997,13.4173 14.91016,24.98047 5.94533,8.06687 14.10614,16.59778 25.16601,24.78125 6.99407,5.18687 15.23837,10.98643 24.24024,15.92578 5.53984,3.06562 11.91992,6.12243 19.02539,7.59766 4.67608,1.02058 10.09113,1.0459 15.23437,-1.15234 4.7066,-2.22301 8.2728,-6.02846 10.62891,-10.32227 3.0948,-5.52144 4.84662,-11.50007 6.11328,-17.50781 1.71874,-7.96804 2.66773,-16.03431 3.38867,-24.34961 1.9896,-22.81342 2.26251,-44.59309 2.85938,-69.30274 1.5e-4,-0.006 0.15024,-6.27173 0.15039,-6.27929 2.15062,-90.0206 3.30739,-169.35823 3.29492,-215.66602 0.19413,-13.94477 0.54776,-21.13032 3.10351,-29.13281 1.4741,-4.10034 3.0448,-6.32277 4.75,-7.5 1.55275,-1.07196 2.73917,-1.07886 2.74219,-1.30469 10e-4,-0.075 -0.46093,-0.32284 -1.33203,-0.2832 z M 250.99414,606.78711 c -0.0297,-0.009 -0.0531,-0.008 -0.0723,0.004 0.0166,-0.0106 0.0974,0.1729 0.1582,0.29687 0.1936,0.093 0.36682,0.19818 0.52344,0.3125 -0.26591,-0.32376 -0.4971,-0.57974 -0.60938,-0.61328 z"
       inkscape:connector-curvature="0"
       transform="scale(0.26458333)" />
    <path
       sodipodi:nodetypes="ccccccccccccsccccsccc"
       inkscape:connector-curvature="0"
       d="m 145.57651,127.19223 c -0.0543,0.003 -0.0755,0.14887 -0.0827,0.4191 -0.0312,-0.26859 -0.0147,-0.41303 0.0827,-0.4191 z m -0.0827,0.4191 c 0.21396,1.84384 2.71924,9.67139 -2.59312,20.75067 -2.42088,4.40618 -5.58329,7.54121 -9.4046,11.85819 2.41859,-0.10874 4.18664,0.69921 6.69529,1.0169 l -0.74311,1.02203 c -2.59802,-0.37726 -4.44456,-1.55263 -6.92732,-1.54335 3.58314,-5.34072 6.29688,-8.62034 8.46926,-13.31909 5.12387,-9.61038 4.45267,-17.87046 4.5036,-19.78535 z m 0.25218,-0.13436 c 0.3485,0.10553 2.9781,3.63875 5.83118,10.30376 2.92405,6.83086 6.04009,17.04594 6.04149,29.2375 -2.39476,-1.29738 -5.3916,-1.21795 -8.0993,-2.15744 l 0.46688,-1.29126 c 2.51548,0.88888 4.75202,1.06282 6.96993,2.34541 -0.49296,-11.28718 -3.82517,-21.05846 -6.57376,-27.69495 -2.77856,-6.70884 -4.93908,-10.582 -4.66329,-10.7425 0.006,-0.004 0.0156,-0.004 0.0269,-5.3e-4 z"
       style="fill:#000080;stroke:none;stroke-width:0.26458332px;stroke-linecap:butt;stroke-linejoin:miter;stroke-opacity:1"
       id="path890" />
    <path
       style="opacity:1;fill:#000080;fill-opacity:1;fill-rule:nonzero;stroke:none;stroke-width:0.57184333;stroke-linecap:round;stroke-linejoin:round;stroke-miterlimit:4;stroke-dasharray:none;stroke-dashoffset:0;stroke-opacity:1"
       id="path1126"
       d="m 75.886539,97.415748 c -0.01397,0.12035 -0.04384,0.23814 -0.06684,0.35696 -0.03356,0.16926 -0.06212,0.33959 -0.08609,0.51047 -0.03407,0.20611 -0.05293,0.41447 -0.0763,0.62203 -0.02636,0.2251 -0.05135,0.45037 -0.07511,0.67577 -0.02402,0.214 -0.04206,0.428612 -0.05968,0.643192 -0.01563,0.20187 -0.02861,0.40392 -0.0393,0.60609 -0.01101,0.18745 -0.01778,0.37509 -0.02114,0.56283 -0.0034,0.16161 -0.0024,0.3234 -3.03e-4,0.48505 0.0015,0.13149 0.0046,0.26297 0.0099,0.39437 0.0068,0.10523 0.01382,0.21047 0.02258,0.31558 0.0092,0.0954 0.0228,0.19048 0.0374,0.28526 0.01656,0.087 0.03369,0.17381 0.04941,0.26095 0.01198,0.0673 0.02459,0.13431 0.03769,0.20131 0.0145,0.0605 0.0313,0.12036 0.04916,0.17988 0.01981,0.064 0.03749,0.12866 0.0569,0.1928 0.01379,0.0516 0.03237,0.10196 0.0505,0.15226 0.02857,0.0607 0.03996,0.0922 -0.01137,0.14212 -0.103891,0.0596 -0.04329,0.0265 -0.183252,0.0966 0.0045,0.0127 -0.175238,0.0768 -0.179765,0.064 v 0 c -0.158267,0.0304 -0.08707,0.0242 -0.212672,0.0273 -0.07929,-0.01 -0.09215,-0.0513 -0.114499,-0.12287 -0.02029,-0.0575 -0.03834,-0.11587 -0.05908,-0.17324 -0.02325,-0.0711 -0.04704,-0.14197 -0.06572,-0.21443 -0.01999,-0.0792 -0.04186,-0.15828 -0.05344,-0.23937 -0.01064,-0.0688 -0.01975,-0.1379 -0.03034,-0.20673 -0.01397,-0.0918 -0.02723,-0.1837 -0.03738,-0.27601 -0.0141,-0.10596 -0.02925,-0.21171 -0.03794,-0.31828 -0.0104,-0.1143 -0.01712,-0.22884 -0.01871,-0.34361 -0.0056,-0.13785 -0.01052,-0.27573 -0.01214,-0.41367 -1.97e-4,-0.16814 0.0028,-0.3361 0.0073,-0.50417 0.0063,-0.19354 0.01149,-0.38712 0.02362,-0.58042 0.0121,-0.20644 0.02365,-0.41292 0.03931,-0.61913 0.01632,-0.219712 0.03521,-0.439182 0.05598,-0.658502 0.02336,-0.22825 0.04824,-0.45633 0.07703,-0.68396 0.02624,-0.21169 0.05444,-0.42317 0.07756,-0.63523 0.0262,-0.18441 0.05155,-0.36903 0.0908,-0.55127 0.02793,-0.12035 0.05271,-0.24188 0.0915,-0.359423 0.0088,-0.04705 0.673303,0.0785 0.664436,0.125413 z"
       inkscape:connector-curvature="0" />
    <path
       style="opacity:1;fill:#000080;fill-opacity:1;fill-rule:nonzero;stroke:none;stroke-width:0.57184333;stroke-linecap:round;stroke-linejoin:round;stroke-miterlimit:4;stroke-dasharray:none;stroke-dashoffset:0;stroke-opacity:1"
       id="path1134"
       d="m 131.97529,97.442118 c 0.0255,0.0809 0.0466,0.16323 0.0675,0.24548 0.0243,0.1033 0.0507,0.20584 0.0812,0.30748 0.0334,0.11322 0.0639,0.22704 0.0906,0.34194 0.0317,0.10983 0.0594,0.22072 0.0883,0.33133 0.0287,0.11902 0.0478,0.24015 0.0671,0.36095 0.0187,0.12361 0.0323,0.2479 0.0451,0.37225 0.01,0.12384 0.0214,0.24749 0.0334,0.37113 0.01,0.1218 0.0155,0.243812 0.0215,0.365822 0.008,0.12116 0.008,0.24251 0.0109,0.36385 9.2e-4,0.11056 0.005,0.22109 0.005,0.33167 -6.3e-4,0.0994 -0.002,0.19891 -0.005,0.29831 -0.002,0.0827 -0.005,0.16546 -0.007,0.24819 -0.002,0.0702 -0.004,0.14021 -0.007,0.21023 -0.005,0.0615 -0.008,0.12297 -0.0137,0.18446 -0.002,0.0546 -0.006,0.10923 -0.008,0.1638 -0.002,0.0585 -0.006,0.11697 -0.0109,0.17526 -0.007,0.0687 -0.0177,0.13696 -0.0289,0.20511 -0.0109,0.0601 -0.0196,0.12047 -0.0266,0.18106 -0.01,0.0676 -0.0212,0.13496 -0.0329,0.20226 -0.01,0.0497 -0.0181,0.0997 -0.0265,0.14956 -0.006,0.0461 -0.019,0.0911 -0.0272,0.13675 -0.0121,0.0483 -0.0256,0.0959 -0.0377,0.14411 -0.01,0.0313 -0.0167,0.0634 -0.023,0.0956 -0.005,0.0313 -0.0109,0.0628 -0.0166,0.0941 -0.006,0.0334 -0.0168,0.0653 -0.0242,0.0983 -0.006,0.0264 -0.01,0.0527 -0.0138,0.0794 -0.008,0.0292 -0.0109,0.0593 -0.0175,0.0888 -0.002,0.0307 -0.008,0.0608 -0.0138,0.091 -0.002,0.0283 -0.0187,0.0473 -0.0369,0.0676 -0.0401,0.0385 -0.0917,0.0387 -0.14467,0.0429 -0.14186,0.004 -0.0621,0.002 -0.23947,0.002 -7e-5,0.002 -0.0249,5.8e-4 -0.0249,-9.8e-4 v 0 c -0.1766,-0.0159 -0.0974,-0.008 -0.23811,-0.0239 -0.0529,-0.008 -0.10523,-0.0131 -0.13939,-0.0583 -0.016,-0.0224 -0.0292,-0.0428 -0.029,-0.0716 -0.002,-0.0334 -0.005,-0.0669 -0.002,-0.10028 -0.002,-0.0398 5e-5,-0.0795 -3.2e-4,-0.11926 0.002,-0.0385 0.007,-0.0767 0.0121,-0.11491 0.002,-0.0339 0.002,-0.0675 0.007,-0.10137 0.006,-0.036 0.0109,-0.0721 0.0163,-0.10813 0.007,-0.0397 0.0138,-0.0794 0.0184,-0.11939 0.007,-0.0382 0.0121,-0.0766 0.0139,-0.11527 0.006,-0.0434 0.007,-0.0876 0.0155,-0.13081 0.008,-0.0539 0.0162,-0.10777 0.0251,-0.16151 0.01,-0.0592 0.018,-0.1183 0.0282,-0.17733 0.0109,-0.0699 0.0218,-0.13968 0.0363,-0.20894 0.008,-0.0451 0.0163,-0.09 0.016,-0.13613 0.005,-0.0494 0.008,-0.0988 0.01,-0.1484 0.002,-0.0596 0.007,-0.11915 0.0121,-0.17871 0.004,-0.0587 0.01,-0.11708 0.0139,-0.17572 0.005,-0.0633 0.01,-0.12635 0.0109,-0.18975 0.004,-0.0796 0.002,-0.15912 0.006,-0.23865 9.8e-4,-0.0912 0.002,-0.18254 6.3e-4,-0.27379 -0.002,-0.10862 4.5e-4,-0.21715 -0.002,-0.32571 -0.002,-0.11539 -0.008,-0.23076 -0.01,-0.34622 -0.002,-0.11721 -0.007,-0.234332 -0.0109,-0.351492 -0.002,-0.11709 -0.005,-0.23402 -0.015,-0.35071 -0.007,-0.11333 -0.0156,-0.22652 -0.0265,-0.33954 -0.01,-0.10499 -0.0231,-0.20938 -0.0383,-0.31369 -0.0139,-0.10923 -0.0354,-0.21733 -0.0519,-0.32615 -0.0222,-0.11346 -0.0422,-0.22731 -0.063,-0.34104 -0.016,-0.1068 -0.0356,-0.21295 -0.0566,-0.31885 -0.0166,-0.0959 -0.0345,-0.1923 -0.0382,-0.28972 -0.007,-0.0535 0.74997,-0.149097 0.75673,-0.0956 z"
       inkscape:connector-curvature="0" />
    <path
       sodipodi:nodetypes="cccccc"
       inkscape:connector-curvature="0"
       id="path891"
       d="m 82.76699,101.21639 c 0.748985,1.41094 2.903836,0.41079 4.005285,0.78971 -0.15305,-1.69518 0.722616,-3.641726 1.213057,-5.494145 l -4.63736,0.03161 c -0.255106,1.084188 -1.423969,2.800819 -1.142962,4.554515 z"
       style="fill:#b3b3b3;stroke:none;stroke-width:0.26458332px;stroke-linecap:butt;stroke-linejoin:miter;stroke-opacity:1" />
    <path
       style="opacity:1;fill:#000080;fill-opacity:1;fill-rule:nonzero;stroke:none;stroke-width:0.57184333;stroke-linecap:round;stroke-linejoin:round;stroke-miterlimit:4;stroke-dasharray:none;stroke-dashoffset:0;stroke-opacity:1"
       id="path1150"
       d="m 81.736191,103.60999 c -0.04186,-0.13263 -0.05909,-0.27141 -0.07641,-0.40894 -0.02054,-0.17385 -0.03466,-0.34838 -0.0418,-0.52327 -0.0104,-0.19105 -0.01113,-0.3823 -0.0023,-0.5734 -4.38e-4,-0.19844 0.02873,-0.39434 0.05058,-0.59093 0.01173,-0.17855 0.05183,-0.35389 0.08623,-0.52922 0.03016,-0.16496 0.06372,-0.32886 0.106541,-0.49102 0.04007,-0.14849 0.07111,-0.29909 0.106891,-0.44864 0.03817,-0.136252 0.06433,-0.275302 0.09395,-0.413532 0.02509,-0.12997 0.05696,-0.25786 0.09343,-0.385 0.02948,-0.11829 0.06214,-0.23591 0.09284,-0.35401 0.03155,-0.11164 0.05946,-0.22446 0.09291,-0.33558 0.03641,-0.12691 0.07146,-0.25429 0.110992,-0.38028 0.0408,-0.12278 0.07768,-0.24675 0.118841,-0.36939 0.04126,-0.12083 0.08857,-0.2394 0.136537,-0.35763 0.05089,-0.125439 0.10648,-0.248877 0.163838,-0.37148 0.06348,-0.136961 0.120656,-0.264427 0.25489,-0.34113 0.137041,-0.03205 0.06295,-0.02222 0.223057,-0.0233 0.0054,-0.01028 0.14991,0.06608 0.144516,0.0763 v 0 c 0.07934,0.120717 0.04985,0.06072 0.0942,0.17718 0.01064,0.130853 -0.06374,0.228442 -0.1186,0.343317 -0.05443,0.114193 -0.107701,0.228913 -0.157402,0.345233 -0.04479,0.10668 -0.08872,0.21388 -0.126,0.32348 -0.0403,0.11938 -0.07802,0.23968 -0.113483,0.36066 -0.03877,0.12157 -0.08003,0.24233 -0.114076,0.36538 -0.02937,0.10656 -0.06444,0.21165 -0.09092,0.31911 -0.02834,0.11334 -0.05033,0.22787 -0.07394,0.34228 -0.02042,0.12457 -0.04407,0.24826 -0.06972,0.3719 -0.02262,0.13251 -0.046,0.265152 -0.05252,0.399692 -0.01137,0.14851 -0.02731,0.29674 -0.0292,0.44582 -0.0012,0.15826 -0.0067,0.31632 -0.0092,0.47453 -1.42e-4,0.16518 0.008,0.33001 0.0013,0.49499 0.0034,0.17743 0.02082,0.35446 0.0291,0.53172 0.01744,0.17761 0.03217,0.35545 0.04621,0.53336 0.01458,0.16048 0.0244,0.32135 0.03906,0.48183 0.0091,0.0968 0.02035,0.1934 0.02798,0.29021 0.01554,0.0734 -1.022873,0.29322 -1.038414,0.21979 z"
       inkscape:connector-curvature="0" />
    <path
       style="opacity:1;fill:#000080;fill-opacity:1;fill-rule:nonzero;stroke:none;stroke-width:0.57184333;stroke-linecap:round;stroke-linejoin:round;stroke-miterlimit:4;stroke-dasharray:none;stroke-dashoffset:0;stroke-opacity:1"
       id="path1152"
       d="m 86.030892,104.0516 c -0.04108,-0.13627 -0.05707,-0.2783 -0.07309,-0.41922 -0.01943,-0.20423 -0.03371,-0.40893 -0.04289,-0.61388 -0.0097,-0.24007 -0.0074,-0.48039 -0.0029,-0.72053 0.0063,-0.24861 0.0216,-0.49682 0.03889,-0.74486 0.01973,-0.24044 0.0431,-0.48059 0.07241,-0.72007 0.0237,-0.23077 0.06562,-0.45879 0.107278,-0.68679 0.03799,-0.213192 0.08396,-0.424922 0.12833,-0.636862 0.03809,-0.18388 0.08301,-0.36621 0.131796,-0.5475 0.04376,-0.16181 0.08692,-0.32381 0.136987,-0.4838 0.0431,-0.14117 0.09286,-0.28005 0.138639,-0.4204 0.04435,-0.12702 0.103238,-0.24815 0.148009,-0.37494 0.04377,-0.12588 0.095,-0.24813 0.154813,-0.367143 0.05355,-0.111644 0.101943,-0.225853 0.16025,-0.335212 0.05509,-0.104508 0.125547,-0.199206 0.197011,-0.292837 0.0629,-0.108076 0.120644,-0.207728 0.232456,-0.26896 0.127708,-0.03332 0.05224,-0.02418 0.228035,-0.0019 0.0071,-0.01337 0.196095,0.08671 0.18902,0.100057 v 0 c 0.107024,0.126083 0.07899,0.06194 0.110072,0.17889 -0.0027,0.117741 -0.06725,0.202752 -0.128305,0.299809 -0.0399,0.09024 -0.07986,0.18047 -0.121895,0.269774 -0.04303,0.0981 -0.0867,0.195932 -0.118068,0.298622 -0.03394,0.11528 -0.0729,0.22875 -0.110906,0.34275 -0.0392,0.11951 -0.06503,0.24255 -0.09672,0.36415 -0.0378,0.1352 -0.06775,0.27204 -0.10129,0.4083 -0.03601,0.15406 -0.07608,0.30721 -0.10671,0.46246 -0.035,0.17416 -0.06509,0.34916 -0.09683,0.52392 -0.0373,0.20136 -0.07017,0.403352 -0.09696,0.606392 -0.02678,0.21809 -0.04553,0.43714 -0.07169,0.65531 -0.02262,0.22819 -0.04449,0.45646 -0.05825,0.68538 -0.01614,0.23414 -0.03159,0.46845 -0.0364,0.70316 -0.0053,0.22352 -0.0098,0.44717 -0.004,0.67074 0.0054,0.19134 0.01228,0.38266 0.02387,0.57375 0.0057,0.10705 0.01395,0.21416 0.01524,0.32134 0.01198,0.0669 -0.934178,0.23664 -0.94618,0.16974 z"
       inkscape:connector-curvature="0" />
    <path
       style="opacity:1;fill:#000080;fill-opacity:1;fill-rule:nonzero;stroke:none;stroke-width:0.57184333;stroke-linecap:round;stroke-linejoin:round;stroke-miterlimit:4;stroke-dasharray:none;stroke-dashoffset:0;stroke-opacity:1"
       id="path1154"
       d="m 118.64227,104.17889 c -0.0431,-0.13986 -0.0455,-0.28928 -0.0503,-0.43446 -0.007,-0.24673 -0.0134,-0.49352 -0.0237,-0.74021 -0.0133,-0.29757 -0.0247,-0.5952 -0.0339,-0.89292 -0.008,-0.29592 -0.0155,-0.5919 -0.0193,-0.88791 -0.004,-0.26514 -0.007,-0.53031 -0.01,-0.79546 -9.2e-4,-0.23423 -0.007,-0.468402 -0.014,-0.702492 -0.005,-0.20972 -0.015,-0.41928 -0.0211,-0.62896 -0.007,-0.192 -0.0129,-0.38404 -0.0214,-0.57598 -0.008,-0.17056 -0.0155,-0.34116 -0.0239,-0.51172 -0.008,-0.14471 -0.018,-0.28932 -0.0244,-0.43415 -0.007,-0.1265 -0.008,-0.253253 -0.0173,-0.379703 -0.002,-0.1085 -0.008,-0.216854 -0.0137,-0.325306 -0.005,-0.10758 -0.01,-0.214911 -0.005,-0.322599 0.0109,-0.09974 0.002,-0.200098 0.008,-0.299754 0.002,-0.08938 -9.8e-4,-0.177956 0.0206,-0.265224 0.0402,-0.109383 0.101,-0.19646 0.19473,-0.265194 -0.002,-0.01415 0.19787,-0.03805 0.19957,-0.02389 v 0 c 0.10632,0.04051 0.19313,0.103818 0.26729,0.190669 0.0548,0.0815 0.0777,0.175253 0.10789,0.267692 0.0347,0.09913 0.053,0.203361 0.0887,0.302408 0.0333,0.104883 0.0593,0.211551 0.0808,0.319439 0.0222,0.11612 0.0386,0.233329 0.0547,0.350393 0.0133,0.128663 0.0334,0.256516 0.0455,0.385299 0.0162,0.14931 0.0312,0.29872 0.0397,0.44872 0.0121,0.17318 0.0266,0.34615 0.0362,0.51947 0.0109,0.19274 0.0214,0.38542 0.0309,0.57821 0.0134,0.21205 0.0254,0.42422 0.0346,0.6365 0.0109,0.23992 0.0192,0.479882 0.0238,0.719982 0.006,0.26344 0.0137,0.52681 0.0215,0.79018 0.01,0.29331 0.0177,0.58667 0.0272,0.87998 0.01,0.29899 0.02,0.59794 0.0259,0.89702 0.004,0.25514 0.008,0.51053 -0.002,0.76556 -0.005,0.14517 -0.007,0.29459 -0.0503,0.43445 0,0.0691 -0.97692,0.0691 -0.97692,0 z"
       inkscape:connector-curvature="0" />
    <path
       style="opacity:1;fill:#000080;fill-opacity:1;fill-rule:nonzero;stroke:none;stroke-width:0.60044247;stroke-linecap:round;stroke-linejoin:round;stroke-miterlimit:4;stroke-dasharray:none;stroke-dashoffset:0;stroke-opacity:1"
       id="path1156"
       d="m 123.65333,104.76249 c -0.0265,-0.14618 -0.0329,-0.29584 -0.0396,-0.44441 -0.008,-0.2078 -0.0109,-0.41584 -0.008,-0.62382 9.8e-4,-0.22655 0.0168,-0.45236 0.0293,-0.67833 0.0109,-0.2199 0.026,-0.43938 0.0399,-0.65905 0.01,-0.19557 0.0313,-0.38965 0.0415,-0.58518 9.9e-4,-0.18496 -0.006,-0.37006 -0.0134,-0.55486 -0.004,-0.1686 0.007,-0.33614 0.005,-0.50488 -0.002,-0.14969 -0.0174,-0.29827 -0.0332,-0.44685 -0.0169,-0.13454 -0.0341,-0.269019 -0.0508,-0.403582 -0.0162,-0.130285 -0.0341,-0.26003 -0.0402,-0.391463 0.0109,-0.131762 0.004,-0.260008 -0.0155,-0.390084 -0.0194,-0.125093 -0.0429,-0.249303 -0.0644,-0.373955 -0.0207,-0.117496 -0.04,-0.2354 -0.0611,-0.352874 -0.0238,-0.107937 -0.0547,-0.21335 -0.0798,-0.320989 -0.0267,-0.111212 -0.0492,-0.223582 -0.0718,-0.335929 -0.0227,-0.110555 -0.0369,-0.22311 -0.0609,-0.333319 -0.0385,-0.105622 -0.0637,-0.214403 -0.0862,-0.325118 -0.0198,-0.100595 -0.0359,-0.202454 -0.0446,-0.304978 -0.002,-0.10797 0.0513,-0.143715 0.13024,-0.194054 -0.002,-0.01636 0.20682,-0.05236 0.20914,-0.0361 v 0 c 0.0922,0.02146 0.15623,0.03805 0.18716,0.143911 0.0235,0.102215 0.037,0.206933 0.0464,0.311785 0.0109,0.111876 0.0167,0.222693 0.01,0.335155 0.008,0.106824 0.0317,0.211228 0.0494,0.31649 0.0202,0.110414 0.0427,0.220336 0.0613,0.331085 0.0209,0.113626 0.0357,0.227407 0.049,0.342345 0.0194,0.117364 0.0394,0.234518 0.062,0.35111 0.0229,0.127629 0.0423,0.255886 0.0634,0.383845 0.0202,0.133218 0.0461,0.263107 0.0896,0.389732 0.0272,0.128422 0.0434,0.258817 0.0586,0.38961 0.0177,0.135897 0.0365,0.271607 0.054,0.407567 0.0197,0.15035 0.0354,0.30132 0.0625,0.45041 0.0323,0.1654 0.0772,0.3266 0.10753,0.49233 0.0327,0.18585 0.0702,0.37062 0.10669,0.55558 0.0474,0.20857 0.0963,0.41812 0.11527,0.63263 0.0229,0.22189 0.041,0.44415 0.0579,0.66666 0.0183,0.22297 0.0402,0.4456 0.0504,0.66932 0.0109,0.20223 0.0157,0.4047 0.0218,0.60712 0.002,0.1327 0.008,0.26588 6.3e-4,0.39843 0.005,0.0808 -1.03212,0.16561 -1.03755,0.0848 z"
       inkscape:connector-curvature="0" />
    <path
       id="path1116"
       transform="scale(0.26458333)"
       style="opacity:1;fill:#000080;fill-opacity:1;fill-rule:nonzero;stroke:none;stroke-width:2.36462259;stroke-linecap:round;stroke-linejoin:round;stroke-miterlimit:4;stroke-dasharray:none;stroke-dashoffset:0;stroke-opacity:1"
       d="m 405.78906,357.40625 c 0.52719,1.34711 0.83206,2.54743 0.83789,3.88672 0.40855,-0.75275 0.83649,-1.57895 1.28907,-2.54688 0.10922,-0.23391 -0.01,-0.51721 -0.0137,-0.77539 -0.003,-0.19336 -0.0167,-0.34393 -0.0234,-0.52343 -0.69654,-0.0168 -1.39322,-0.0277 -2.08985,-0.041 z m 2.8086,0.0605 c -0.1155,1.89182 -0.5028,3.66104 -1.72852,5.40625 1.50383,0.0202 3.00797,0.0377 4.51172,0.0605 5.01619,0.0646 10.03037,0.16863 15.04297,0.33399 4.35413,0.14096 8.70732,0.30977 13.05469,0.55469 3.64338,0.21798 7.28318,0.4828 10.91992,0.76562 3.04237,0.21356 6.07983,0.46038 9.11914,0.70117 2.52276,0.22036 5.04214,0.4688 7.56054,0.72071 2.14466,0.2198 4.28554,0.46379 6.42774,0.69921 1.90583,0.2127 3.8181,0.36655 5.72461,0.57227 1.62939,0.14913 3.24312,0.38976 4.87305,0.53516 1.32223,0.10151 2.64411,0.18412 3.96093,0.32812 1.1206,0.10734 2.23763,0.23037 3.35743,0.34375 0.95522,0.093 1.91113,0.19558 2.87109,0.25 0.78452,0.0253 1.56373,0.0798 2.34961,0.0723 1.00694,-0.0389 1.76431,-0.26876 2.49414,-0.84961 0.0537,0.0148 0.30682,-0.6153 0.2539,-0.62891 -0.25174,-0.70883 -0.77526,-0.95281 -1.59179,-1.17773 -0.72061,-0.16276 -1.45701,-0.25863 -2.18555,-0.39258 -0.93509,-0.14158 -1.87785,-0.2345 -2.82031,-0.33594 -1.09807,-0.11995 -2.19756,-0.23601 -3.29102,-0.38281 -1.26667,-0.1589 -2.5103,-0.39668 -3.75781,-0.63672 -1.58528,-0.27532 -3.19071,-0.46386 -4.77539,-0.74219 -1.86539,-0.28468 -3.722,-0.60195 -5.58984,-0.87695 -2.13929,-0.313 -4.27974,-0.61637 -6.42969,-0.875 -2.52299,-0.31408 -5.05107,-0.59491 -7.58203,-0.86133 -3.01939,-0.34737 -6.04649,-0.66024 -9.07227,-0.9668 -3.64373,-0.34387 -7.28446,-0.70771 -10.93554,-0.99609 -4.36513,-0.34792 -8.73165,-0.68332 -13.11133,-0.88477 -5.01986,-0.23313 -10.03973,-0.46993 -15.06446,-0.62304 -1.52835,-0.0435 -3.05734,-0.0753 -4.58593,-0.11328 z m -32.8711,0.0566 c -0.77679,0.0301 -1.55324,0.0636 -2.33008,0.0937 -0.16727,0.77155 -0.19483,1.86994 -0.043,3.39258 0.0263,0.2623 0.052,0.52482 0.0781,0.78711 0.0856,0.34401 0.20388,0.66903 0.0156,0.1621 -0.005,-0.054 -0.0102,-0.10814 -0.0156,-0.1621 -0.0139,-0.056 -0.0284,-0.0916 -0.0391,-0.14649 -0.20531,-1.05521 -0.71295,-2.10587 -0.57422,-3.17187 0.0412,-0.3167 0.0849,-0.56541 0.12695,-0.8418 -4.94546,0.1939 -9.88935,0.41091 -14.83008,0.68555 -5.6164,0.33131 -11.23063,0.68757 -16.84179,1.07812 -5.22489,0.40661 -10.45471,0.77341 -15.66992,1.26563 -4.70015,0.42526 -9.40154,0.82752 -14.0918,1.32617 -4.01344,0.42083 -8.02972,0.82231 -12.04688,1.21679 -2.86619,0.32563 -5.73063,0.65938 -8.60351,0.94141 -1.53803,0.15317 -3.08371,0.28925 -4.5918,0.59766 -0.12802,0.03 0.37394,1.54384 0.50195,1.51172 1.64049,0.22718 3.30554,0.16216 4.95899,0.10546 2.95382,-0.12892 5.90705,-0.23144 8.86328,-0.31054 4.11786,-0.15922 8.23726,-0.29964 12.35547,-0.45313 4.78079,-0.19107 9.55659,-0.45674 14.33594,-0.67187 5.27803,-0.21589 10.55409,-0.47443 15.83398,-0.6543 5.64968,-0.22593 11.30057,-0.43681 16.95117,-0.64453 5.14737,-0.20851 10.29636,-0.37912 15.44531,-0.55469 -0.21214,-1.68366 -0.38877,-4.11687 0.21094,-5.55273 z m 7.33399,4.77148 c -0.17363,0.18951 -0.39204,0.40582 -0.54688,0.58399 0.39714,-0.008 0.79429,-0.0137 1.19141,-0.0215 -0.21457,-0.18685 -0.42737,-0.36848 -0.64453,-0.5625 z"
       inkscape:connector-curvature="0" />
    <path
       style="fill:#000080;stroke:none;stroke-width:0.30274898px;stroke-linecap:butt;stroke-linejoin:miter;stroke-opacity:1"
       d="m 82.811592,99.431948 c 1.04168,0.876112 3.003953,1.407352 4.123804,1.033232 l -0.04444,4.56775 -4.905568,-0.48623 c -0.159895,-1.45581 0.39985,-2.83842 0.8262,-5.114752 z"
       id="path889"
       inkscape:connector-curvature="0"
       sodipodi:nodetypes="ccccc" />
  </g>
  <g
     inkscape:groupmode="layer"
     id="layer5"
     inkscape:label="Camada 4"
     style="display:inline">
    <path
       style="display:inline;fill:#000080;stroke:none;stroke-width:0.26458332px;stroke-linecap:butt;stroke-linejoin:miter;stroke-opacity:1"
       d="m 104.18321,203.19407 -0.69312,-119.324049 1.38623,0.946833 c 0,0 0.89951,61.673406 2.59277,92.304676 0,0 1.93124,7.32113 3.0035,8.08271 37.11079,-10.44968 40.53132,-25.42231 37.17153,-50.15905 2.5468,5.37924 5.13957,11.13929 7.75262,29.21326 -4.69636,-4.26924 -6.52537,-0.92699 -7.88098,1.45489 -7.57294,13.93307 -39.25658,28.45065 -43.33255,37.48073 z"
       id="path1422"
       inkscape:connector-curvature="0"
       sodipodi:nodetypes="ccccccccc" />
    <path
       style="fill:#000080;stroke:none;stroke-width:0.26458332px;stroke-linecap:butt;stroke-linejoin:miter;stroke-opacity:1"
       d="m 101.3594,200.35357 -3.131854,-3.00215 2.695444,-75.86211 z"
       id="path1426"
       inkscape:connector-curvature="0" />
    <path
       style="fill:#000080;stroke:none;stroke-width:0.26458332px;stroke-linecap:butt;stroke-linejoin:miter;stroke-opacity:1"
       d="m 59.669783,137.05432 c -1.929196,11.74564 -1.314218,20.97517 0.539091,24.91788 4.835842,10.28773 21.186066,25.41585 31.960579,20.63561 -13.251703,-0.1 -28.968235,-17.21187 -27.10877,-21.14367 1.199307,-0.33488 3.747957,-2.60957 7.598598,-1.36252 -3.850641,-1.24705 -12.274737,-13.22843 -12.989498,-23.0473 z"
       id="path1428"
       inkscape:connector-curvature="0"
       sodipodi:nodetypes="cscccc" />
    <path
       style="fill:#000080;stroke:none;stroke-width:0.26458332px;stroke-linecap:butt;stroke-linejoin:miter;stroke-opacity:1"
       d="m 56.306063,161.60132 c -1.368798,-6.16511 -0.662727,-14.06197 -0.760937,-17.86209 -1.468818,6.1311 -4.152772,15.68312 -3.852238,20.27936 1.90241,-0.56297 3.899434,-0.39549 4.613175,-2.41727 z"
       id="path1472"
       inkscape:connector-curvature="0"
       sodipodi:nodetypes="cccc" />
    <path
       sodipodi:nodetypes="cccc"
       inkscape:connector-curvature="0"
       id="path1474"
       d="m 136.24085,158.78269 c 4.5296,-2.04793 8.35776,-12.55668 10.14124,-16.37521 -0.91348,6.10649 -0.0686,14.15793 -5.81423,18.08041 -1.41849,-1.38708 -4.64131,0.41571 -4.32701,-1.7052 z"
       style="fill:#000080;stroke:none;stroke-width:0.26458332px;stroke-linecap:butt;stroke-linejoin:miter;stroke-opacity:1" />
  </g>
</svg>
