<?xml version="1.0" encoding="UTF-8" standalone="no"?>
<svg
   xmlns:dc="http://purl.org/dc/elements/1.1/"
   xmlns:cc="http://creativecommons.org/ns#"
   xmlns:rdf="http://www.w3.org/1999/02/22-rdf-syntax-ns#"
   xmlns:svg="http://www.w3.org/2000/svg"
   xmlns="http://www.w3.org/2000/svg"
   xmlns:xlink="http://www.w3.org/1999/xlink"
   height="795.46973"
   width="813.95947"
   version="1.0"
   viewBox="0 0 813.95947 795.46973"
   id="svg2">
  <defs
     id="defs4">
    <linearGradient
       gradientTransform="matrix(5.2864411,0,0,5.2318637,-1465.9776,-1380.1713)"
       x1="294.63"
       y1="411.67001"
       x2="322.26999"
       gradientUnits="userSpaceOnUse"
       y2="342.98999"
       id="linearGradient10792">
      <stop
         offset="0"
         stop-color="#fca"
         id="stop10788" />
      <stop
         offset=".61157"
         stop-opacity=".53548"
         stop-color="#fca"
         id="stop10794" />
      <stop
         offset="1"
         stop-opacity="0"
         stop-color="#fca"
         id="stop10790" />
    </linearGradient>
    <linearGradient
       gradientTransform="matrix(5.2864411,0,0,5.2318637,-1713.1176,-1706.3213)"
       x1="294.79001"
       y1="426.10001"
       x2="294.79001"
       gradientUnits="userSpaceOnUse"
       y2="440.53"
       id="linearGradient10816">
      <stop
         offset="0"
         stop-color="#fca"
         id="stop10812" />
      <stop
         offset="1"
         stop-opacity="0"
         stop-color="#fca"
         id="stop10814" />
    </linearGradient>
    <linearGradient
       gradientTransform="rotate(180,357.27216,420.95665)"
       id="Gradient_1"
       gradientUnits="userSpaceOnUse"
       x1="283.284"
       y1="262.367"
       x2="324.81799"
       y2="-162.009">
      <stop
         offset="0"
         stop-color="#FADCB8"
         id="stop4562" />
      <stop
         offset="0.994"
         stop-color="#F4BE8C"
         id="stop4564" />
      <stop
         offset="1"
         stop-color="#F4BE8C"
         id="stop4566" />
    </linearGradient>
    <linearGradient
       id="Gradient_2"
       gradientUnits="userSpaceOnUse"
       x1="87.308998"
       y1="224.108"
       x2="311.065"
       y2="224.108">
      <stop
         offset="0"
         stop-color="#FFFFFE"
         id="stop4569" />
      <stop
         offset="1"
         stop-color="#D4EDF4"
         id="stop4571" />
    </linearGradient>
    <linearGradient
       gradientTransform="translate(89.366253,-329.73066)"
       id="Gradient_3"
       gradientUnits="userSpaceOnUse"
       x1="198.345"
       y1="105.068"
       x2="345.20499"
       y2="105.068">
      <stop
         offset="0"
         stop-color="#FFFFFE"
         id="stop4574" />
      <stop
         offset="1"
         stop-color="#D4EDF4"
         id="stop4576" />
    </linearGradient>
    <linearGradient
       gradientTransform="matrix(1,0,0,-1,662.11783,791.65429)"
       id="Gradient_4"
       gradientUnits="userSpaceOnUse"
       x1="468.34"
       y1="199.23"
       x2="198.32001"
       y2="143.565">
      <stop
         offset="0"
         stop-color="#FADCB8"
         id="stop4579" />
      <stop
         offset="0.994"
         stop-color="#F4BE8C"
         id="stop4581" />
      <stop
         offset="1"
         stop-color="#F4BE8C"
         id="stop4583" />
    </linearGradient>
    <linearGradient
       gradientTransform="translate(660.07323,-40.419108)"
       id="Gradient_5"
       gradientUnits="userSpaceOnUse"
       x1="326.32401"
       y1="275.72"
       x2="403.03"
       y2="174.592">
      <stop
         offset="0"
         stop-color="#FFFFFE"
         id="stop4586" />
      <stop
         offset="1"
         stop-color="#D4EDF4"
         id="stop4588" />
    </linearGradient>
    <linearGradient
       id="Gradient_6"
       gradientUnits="userSpaceOnUse"
       x1="208.276"
       y1="207.94299"
       x2="294.104"
       y2="171.382">
      <stop
         offset="0"
         stop-color="#FFFFFE"
         id="stop4591" />
      <stop
         offset="1"
         stop-color="#D4EDF4"
         id="stop4593" />
    </linearGradient>
    <linearGradient
       id="Gradient_7"
       gradientUnits="userSpaceOnUse"
       x1="3.97"
       y1="166.69901"
       x2="41.703999"
       y2="166.69901">
      <stop
         offset="0"
         stop-color="#FFFFFE"
         id="stop4596" />
      <stop
         offset="1"
         stop-color="#D4EDF4"
         id="stop4598" />
    </linearGradient>
    <linearGradient
       id="Gradient_8"
       gradientUnits="userSpaceOnUse"
       x1="21.382"
       y1="264.67801"
       x2="54.771"
       y2="264.67801">
      <stop
         offset="0"
         stop-color="#FFFFFE"
         id="stop4601" />
      <stop
         offset="1"
         stop-color="#D4EDF4"
         id="stop4603" />
    </linearGradient>
    <linearGradient
       id="Gradient_9"
       gradientUnits="userSpaceOnUse"
       x1="253.657"
       y1="376.45999"
       x2="287.04599"
       y2="376.45999">
      <stop
         offset="0"
         stop-color="#FFFFFE"
         id="stop4606" />
      <stop
         offset="1"
         stop-color="#D4EDF4"
         id="stop4608" />
    </linearGradient>
    <linearGradient
       y2="174.592"
       x2="403.03"
       y1="275.72"
       x1="326.32401"
       gradientTransform="translate(660.07323,-40.419108)"
       gradientUnits="userSpaceOnUse"
       id="linearGradient4718"
       xlink:href="#Gradient_5" />
    <linearGradient
       y2="174.592"
       x2="403.03"
       y1="275.72"
       x1="326.32401"
       gradientTransform="translate(660.07323,-40.419108)"
       gradientUnits="userSpaceOnUse"
       id="linearGradient4726"
       xlink:href="#Gradient_5" />
    <linearGradient
       y2="166.69901"
       x2="41.703999"
       y1="166.69901"
       x1="3.97"
       gradientUnits="userSpaceOnUse"
       id="linearGradient4743"
       xlink:href="#Gradient_7" />
    <linearGradient
       y2="166.69901"
       x2="41.703999"
       y1="166.69901"
       x1="3.97"
       gradientUnits="userSpaceOnUse"
       id="linearGradient4753"
       xlink:href="#Gradient_7" />
    <linearGradient
       y2="166.69901"
       x2="41.703999"
       y1="166.69901"
       x1="3.97"
       gradientUnits="userSpaceOnUse"
       id="linearGradient4764"
       xlink:href="#Gradient_7" />
  </defs>
  <g
     transform="translate(309.29709,-226.42153)"
     id="layer1">
    <g
       transform="translate(-636.46814,-53.905347)"
       id="Layer_1" />
    <ellipse
       style="opacity:1;fill:#a05a2c;fill-opacity:1;stroke:#000000;stroke-width:11.25899982;stroke-linecap:round;stroke-linejoin:round;stroke-miterlimit:4;stroke-dasharray:none;stroke-dashoffset:1.21209455;stroke-opacity:1;paint-order:stroke fill markers"
       id="ellipse4548"
       cx="274.66302"
       cy="621.91583"
       rx="70.992142"
       ry="102.33101" />
    <ellipse
       ry="102.33101"
       rx="70.992142"
       cy="621.91583"
       cx="-61.771744"
       id="path4546"
       style="opacity:1;fill:#a05a2c;fill-opacity:1;stroke:#000000;stroke-width:11.25899982;stroke-linecap:round;stroke-linejoin:round;stroke-miterlimit:4;stroke-dasharray:none;stroke-dashoffset:1.21209455;stroke-opacity:1;paint-order:stroke fill markers" />
    <path
       id="path10806"
       d="m 17.39781,790.94688 c 47.74124,49.33283 19.71413,96.82244 8.78711,111.57812 -33.64645,6.88273 -66.41454,17.95412 -100.28515,23.64062 -48.46169,8.13617 -88.2602,13.49353 -146.66602,14.88868 -31.4012,17.26088 -46.53604,43.24093 -48.92578,72.0195 1.85842,8.5062 -3.90767,140.8858 3.22656,144.7061 69.02024,8.2325 144.38151,27.4077 212.30382,16.2378 38.37777,-0.163 67.32708,-9.5288 106.01259,-12.1675 32.49259,-0.8802 61.81392,13.2899 91.48437,23.4239 34.6724,5.4879 69.88133,-1.1719 104.70703,2.7148 37.58892,0.1781 75.8314,2.4862 112.92969,-3.8203 29.69652,-11.0857 61.43838,-16.6356 93.13477,-16.3184 32.53242,-15.8746 24.48707,-179.72959 1.56054,-200.70411 -19.6499,-25.51169 -65.75813,-44.86043 -101.05664,-44.03906 -49.313,-5.7722 -77.64209,-7.40638 -126.90429,-11.53906 -20.89857,-4.00695 -42.20096,-11.47131 -63.55664,-13.96289 -10.24162,-15.49986 -38.63789,-66.38741 3.33007,-101.6875 z m 91.81055,113.41406 c -8.13256,1.12647 -16.27457,1.20479 -24.41992,0.82812 z"
       style="fill:#ffccaa;fill-opacity:1;fill-rule:evenodd;stroke:#000000;stroke-width:5.25899982;stroke-linecap:round;stroke-miterlimit:4;stroke-dasharray:none" />
    <path
       style="opacity:1;fill:#ffccaa;fill-opacity:1;fill-rule:evenodd;stroke:#000000;stroke-width:5.25908184px;stroke-linecap:round"
       d="m 97.275935,328.81693 c 256.815325,52.31863 234.136475,440.94147 0,500.74168 -214.788115,-46.19737 -303.124555,-439.05802 0,-500.74168 z"
       id="path1872" />
    <path
       style="fill:none;stroke:#f0bc98;stroke-width:15.77724552"
       d="m -39.748638,532.44106 c 50.591259,20.03804 86.433314,3.29607 86.433314,3.29607"
       id="path3670" />
    <path
       style="fill:none;stroke:#000000;stroke-width:5.25908184px"
       d="m -38.797073,525.43035 c 50.538382,20.03805 86.433314,0 86.433314,0"
       id="path1876" />
    <path
       style="fill:#f0bb98;fill-rule:evenodd;stroke:#f0bc98;stroke-width:15.77724552"
       d="m 65.55729,653.14017 c 32.194427,-9.05115 61.58704,-0.88944 61.58704,-0.88944"
       id="path1894" />
    <path
       style="fill:none;stroke:#000000;stroke-width:5.25908184px"
       d="m 65.081507,642.83339 c 32.194428,-9.10344 61.639893,-0.94174 61.639893,-0.94174"
       id="path1878" />
    <path
       style="fill:#f0bc98;fill-opacity:1;fill-rule:evenodd;stroke:none;stroke-width:5.25908184px"
       d="m 77.000868,694.20455 c -14.22167,-0.11066 -35.26891,8.06279 -40.91796,10.52343 l -0.86915,0 c 0,0 0.36622,0.17134 0.41993,0.19727 -0.65422,0.29204 -1.11596,0.50978 -1.10743,0.53515 l 2.25391,0.004 c 37.06226,-7.81249 63.917962,21.9229 103.314452,0.15039 l 2.48633,0.004 c 0,0 -0.76845,-0.36789 -1.37109,-0.65625 0.0515,-0.0337 0.19679,-0.11684 0.20898,-0.12891 l -0.48047,0 c -42.179162,1.48525 -38.34734,-10.11242 -63.937502,-10.6289 z"
       id="path4544" />
    <path
       id="path1880"
       d="m 81.22984,684.78477 c -14.22167,-0.11066 -35.26891,8.06279 -40.91796,10.52343 l -0.86915,0 c 0,0 0.36622,0.17134 0.41993,0.19727 -0.65422,0.29204 -1.11596,0.50978 -1.10743,0.53515 l 2.25391,0.004 c 37.06226,-7.81249 63.91796,21.9229 103.31445,0.15039 l 2.48633,0.004 c 0,0 -0.76845,-0.36789 -1.37109,-0.65625 0.0515,-0.0337 0.19679,-0.11684 0.20898,-0.12891 l -0.48047,0 C 102.98818,696.8991 106.82,685.30143 81.22984,684.78495 Z"
       style="fill:#d40000;fill-rule:evenodd;stroke:#000000;stroke-width:5.25899982;stroke-linecap:round;stroke-linejoin:round;stroke-miterlimit:4;stroke-dasharray:none" />
    <path
       style="fill:none;stroke:#f0bc98;stroke-width:15.77724552"
       d="m 134.96826,534.63845 c 50.59124,20.03803 86.43332,0 86.43332,0"
       id="path4559" />
    <path
       style="fill:none;stroke:#000000;stroke-width:5.25908184px"
       d="m 134.06955,526.42442 c 50.53839,20.03802 86.43332,0 86.43332,0"
       id="path1882" />
    <path
       style="fill:#f0bc98;fill-rule:evenodd;stroke-width:5.25908184"
       d="M 216.37946,395.68015 C 175.88531,439.3662 90.350688,558.60037 -95.361994,504.86913"
       id="path4561" />
    <path
       style="fill:#a05a2c;fill-rule:evenodd;stroke:#000000;stroke-width:5.25908184px"
       d="M -74.216223,451.50413 C -199.98066,464.5838 -162.6584,548.13664 -90.762781,592.55518"
       id="path10766" />
    <path
       style="fill:#c87137;fill-rule:evenodd;stroke:#000000;stroke-width:5.25908184px"
       d="m 218.65262,388.93103 c 0,0 -162.769517,156.53737 -326.43774,108.29959"
       id="path1884" />
    <path
       style="fill:#784421;fill-rule:evenodd;stroke:#000000;stroke-width:5.25908184px"
       d="M 180.96029,367.16648 C 334.53142,425.44944 44.834424,530.97614 -118.8338,482.73836"
       id="path1886" />
    <path
       style="fill:#c87137;fill-rule:evenodd;stroke:#000000;stroke-width:5.25908184px"
       d="M 164.41373,349.90133 C 196.60816,367.16648 65.980195,510.99042 -97.688028,462.75264"
       id="path1888" />
    <path
       style="fill:#a05a2c;fill-rule:evenodd;stroke:#000000;stroke-width:5.25908184px"
       d="M 155.21533,342.62903 C 29.450894,355.7087 69.522112,490.27224 -92.137272,441.82518"
       id="path1890" />
    <path
       style="fill:#c87137;fill-rule:evenodd;stroke:#000000;stroke-width:5.25908184px"
       d="m 171.2861,340.17008 c 32.19443,41.8549 -87.332001,131.9476 -251.0531,83.7098"
       id="path10758" />
    <path
       style="fill:#c87137;fill-rule:evenodd;stroke:#000000;stroke-width:5.25908184px"
       d="M 174.19365,342.89064 C 89.610587,314.63856 -26.268215,324.68375 -76.859452,426.60047"
       id="path10760" />
    <path
       style="fill:#c87137;fill-rule:evenodd;stroke:#000000;stroke-width:5.25908184px"
       d="m 240.3799,418.38644 c 32.19443,41.85489 189.46604,163.80964 25.74496,115.57186"
       id="path10762" />
    <path
       style="fill:#c87137;fill-rule:evenodd;stroke:#000000;stroke-width:5.25908184px"
       d="m 178.36994,353.77292 c 44.14179,4.55172 163.66822,84.65154 39.54258,104.68959"
       id="path10764" />
    <path
       style="fill:#ff9955;fill-rule:evenodd;stroke-width:5.25908184"
       d="M -39.642906,384.17004 C -57.72252,390.02972 31.724052,311.97032 113.29386,337.44951"
       id="path10796" />
    <path
       style="fill:#ffb380;fill-rule:evenodd;stroke-width:5.25908184"
       d="m 191.21599,361.09751 c 80.67109,30.44946 76.38908,60.84658 76.49481,62.20686"
       id="path10798" />
    <g
       id="g4724"
       transform="matrix(1.2196955,0,0,1.3234458,-1293.0247,336.64892)">
      <path
         style="fill:url(#linearGradient4726)"
         d="m 1040.3322,238.38389 c -5.235,7.178 -30.547,10.469 -25.498,-2.812 -10.635,11.103 -29.39497,9.444 -24.19897,-8.954 -10.43,5.985 -23.711,-4.268 -14.19,-14.668 -7.129,4.266 -12.773,-2.246 -14.99,-8.556 -2.881,-8.173 0.107,-14.453 5.244,-20.742 -12.148,-2.569 -2.871,-27.315 8.408,-24.961 -0.976,-6.895 4.619,-12.481 11.319,-10.888 -6.563,-5.089 1.767,-15.976 6.601,-19.493 6.85597,-4.99 13.34997,-3.203 19.36497,1.895 5.928,-7.452 36.934,-11.709 33.614,3.624 8.222,-5.586 25.42,1.737 21.152,13.183 11.816,-0.079 16.924,12.813 11.924,22.442 5.4,4.208 11.045,7.519 10.039,15.253 -0.596,4.648 -4.014,9.052 -8.145,10.839 2.5,8.477 1.69,23.418 -10.556,23.457 -0.42,5.245 -3.955,16.358 -11.25,12.12 -8.75,10.38 -9.024,10.225 -20.489,9.082 z"
         id="path4720" />
      <path
         id="path4722"
         d="m 1040.3322,238.38389 c -5.235,7.178 -30.547,10.469 -25.498,-2.812 -10.635,11.103 -29.39497,9.444 -24.19897,-8.954 -10.43,5.985 -23.711,-4.268 -14.19,-14.668 -7.129,4.266 -12.773,-2.246 -14.99,-8.556 -2.881,-8.173 0.107,-14.453 5.244,-20.742 -12.148,-2.569 -2.871,-27.315 8.408,-24.961 -0.976,-6.895 4.619,-12.481 11.319,-10.888 -6.563,-5.089 1.767,-15.976 6.601,-19.493 6.85597,-4.99 13.34997,-3.203 19.36497,1.895 5.928,-7.452 36.934,-11.709 33.614,3.624 8.222,-5.586 25.42,1.737 21.152,13.183 11.816,-0.079 16.924,12.813 11.924,22.442 5.4,4.208 11.045,7.519 10.039,15.253 -0.596,4.648 -4.014,9.052 -8.145,10.839 2.5,8.477 1.69,23.418 -10.556,23.457 -0.42,5.245 -3.955,16.358 -11.25,12.12 -8.75,10.38 -9.024,10.225 -20.489,9.082 z"
         style="fill:none;fill-opacity:1;stroke:#000000;stroke-width:3.20000005;stroke-miterlimit:4;stroke-dasharray:none;stroke-opacity:1" />
    </g>
    <path
       style="fill:#ffccaa;fill-opacity:1;stroke:#000000;stroke-width:3.79999995;stroke-miterlimit:4;stroke-dasharray:none;stroke-opacity:1"
       d="m -338.42976,1056.9658 191.7655,-328.73224 c 0,0 35.88895,-2.42672 62.91307,-42.5282 16.0686,-23.88531 73.01405,-51.09196 73.33804,-68.11434 0.76051,-41.29322 -73.11966,17.49881 -73.11966,17.49881 0,0 63.49271,-71.66749 42.00366,-87.90444 -28.97918,-21.95875 -72.60777,58.33354 -72.60777,58.33354 0,0 55.70861,-87.99734 28.8692,-97.09818 -26.92163,-9.09961 -62.649,77.60585 -62.649,77.60585 0,0 34.24289,-82.22248 2.86604,-92.83012 -20.61016,-6.96904 -49.29272,99.80282 -70.22071,102.69473 -20.9458,2.88898 -46.99872,-48.01964 -60.52328,-19.00922 -12.57333,26.89104 26.61996,25.70695 19.07818,59.18518 -7.93175,35.24162 15.54917,60.21274 15.54917,60.21274 l -107.6456,166.98788 z"
       id="path4613" />
    <g
       style="stroke-width:5;stroke-miterlimit:4;stroke-dasharray:none"
       transform="translate(63.0539,226.51978)"
       id="g4760">
      <path
         id="path4615"
         d="m 140.425,303.149 c -15.645,0.312 -47.256,-31.737 -23.203,-38.838 -26.934,-3.096 -44.571,-31.201 -13.203,-43.505 -19.522,-8.253 -19.278,-37.871 5.488,-35.567 -13.594,-5.449 -10.459,-20.293 -3.945,-30.156 8.378,-12.753 20.4,-15.245 34.707,-14.727 -9.327,-19.785 35.293,-33.134 44.033,-14.775 8.623,-8.721 22.431,-6.816 27.334,4.306 0.166,-14.648 24.316,-14.57 34.394,-11.513 14.336,4.316 18.731,15.332 17.979,29.228 16.767,0.372 55.791,39.375 30.723,51.065 16.611,5.595 24.648,37.568 4.033,43.759 12.695,16.505 0.019,37.404 -18.828,40.645 -0.157,12.06 1.22,23.507 -10.713,30.351 -7.188,4.102 -16.992,4.004 -23.916,0.108 -9.248,12.558 -31.094,27.314 -44.209,10.166 -7.784,5 -27.159,11.846 -28.994,-2.901 -23.887,-1.219 -23.975,-1.756 -34.581,-19.09 z"
         style="fill:url(#Gradient_2);stroke-width:5;stroke-miterlimit:4;stroke-dasharray:none" />
      <path
         id="path4617"
         d="m 201.607,320.776 1.22,1.601 c 3.555,4.64 8.028,7.413 13.272,6.924 9.843,-0.088 21.259,-8.652 27.451,-17.06 l 1.142,-1.553 1.68,0.947 c 6.406,3.584 15.361,3.574 21.768,-0.107 9.609,-5.508 9.609,-14.424 9.599,-24.746 l 0.039,-5.547 1.787,-0.313 c 9.288,-1.591 17.393,-8.017 20.645,-16.346 2.793,-7.14 1.66,-14.533 -3.174,-20.822 l -1.924,-2.5 3.028,-0.918 c 9.17,-2.753 10.674,-10.722 10.742,-15.224 0.176,-10.625 -6.484,-21.563 -14.844,-24.385 l -5.156,-1.738 4.932,-2.295 c 5.683,-2.647 7.832,-6.845 6.572,-12.832 -3.028,-14.434 -25.518,-33.838 -36.426,-34.082 l -2.246,-0.049 0.117,-2.246 c 0.801,-14.823 -4.414,-23.407 -16.426,-27.022 -7.158,-2.176 -21.162,-2.587 -27.871,2.315 -2.47,1.816 -3.691,4.15 -3.72,7.139 l -4.17,0.85 c -1.944,-4.405 -5.645,-7.413 -10.157,-8.243 -4.873,-0.908 -9.931,0.82 -13.632,4.59 l -2.188,2.207 -1.328,-2.802 c -4.238,-8.896 -19.492,-9.308 -30.527,-4.073 -3.37,1.601 -14.024,7.539 -9.571,16.982 l 1.524,3.234 -3.575,-0.127 c -16.679,-0.617 -26.005,3.387 -32.812,13.739 -3.496,5.312 -6.553,13.184 -4.609,19.394 1.074,3.429 3.613,5.967 7.548,7.549 l -1.015,4.19 c -8.789,-0.829 -14.863,2.646 -16.592,9.531 -1.865,7.433 2.168,17.638 12.158,21.865 l 4.922,2.08 -4.98,1.953 c -10.782,4.229 -16.192,10.694 -15.215,18.194 1.338,10.196 13.574,19.472 27.871,21.114 l 0.371,4.257 c -5.43,1.601 -7.734,4.521 -7.051,8.935 1.553,10.04 17.783,24.483 28.184,25.578 l 0.41,-0.343 c 0.078,0.127 0.166,0.263 0.244,0.39 0.254,0.011 0.508,0 0.762,0.011 l 0.019,1.269 c 9.346,15.235 10.088,15.274 31.807,16.378 l 1.826,0.096 0.225,1.807 c 0.39,3.105 1.65,5.127 3.867,6.163 5.674,2.626 16.338,-1.319 21.787,-4.825 z m 14.326,12.881 c -6.006,0 -11.143,-2.392 -15.323,-7.129 -6.562,3.73 -17.324,7.373 -24.326,4.101 -2.217,-1.045 -4.931,-3.212 -6.015,-7.744 -21.485,-1.141 -23.623,-2.225 -33.282,-17.889 -12.255,-2.433 -28.73,-17.54 -30.507,-28.986 -0.44,-2.861 -0.264,-7.402 4.003,-10.791 -13.281,-3.613 -23.837,-13.182 -25.205,-23.622 -1.093,-8.437 3.887,-15.919 13.799,-20.957 -9.121,-5.968 -12.627,-16.671 -10.586,-24.766 1.387,-5.538 5.772,-11.104 13.994,-12.568 -1.806,-1.778 -3.115,-3.907 -3.877,-6.339 -2.031,-6.504 -0.107,-15.136 5.137,-23.086 8.74,-13.3 21.309,-15.771 33.047,-15.771 0.127,0 0.254,0 0.391,0 -1.797,-7.598 2.851,-14.902 12.763,-19.6 12.139,-5.761 28.203,-5.361 34.873,3.701 4.463,-3.485 10.079,-4.989 15.45,-3.974 4.15,0.762 7.763,2.9 10.439,6.064 0.918,-1.943 2.354,-3.641 4.248,-5.029 8.291,-6.074 23.818,-5.391 31.709,-2.979 13.272,3.996 19.854,13.869 19.59,29.356 13.105,2.314 35.078,21.523 38.398,37.314 1.348,6.447 -0.517,11.807 -5.283,15.459 8.945,5.313 14.033,17.072 13.867,26.759 -0.136,8.612 -4.14,15.136 -11.093,18.3 4.306,6.954 5.097,15.068 2.129,22.676 -3.594,9.179 -12.168,16.358 -22.168,18.692 l -0.01,1.933 c 0.01,10.703 0.01,21.767 -11.787,28.526 -7.11,4.071 -16.875,4.433 -24.375,0.977 -6.846,8.553 -18.643,17.264 -29.795,17.372 l -0.205,0"
         style="fill:#c7e7f1;stroke-width:5;stroke-miterlimit:4;stroke-dasharray:none" />
      <path
         style="fill:none;stroke:#000000;stroke-width:4.5;stroke-miterlimit:4;stroke-dasharray:none;stroke-opacity:1"
         d="m 140.425,303.149 c -15.645,0.312 -47.256,-31.737 -23.203,-38.838 -26.934,-3.096 -44.571,-31.201 -13.203,-43.505 -19.522,-8.253 -19.278,-37.871 5.488,-35.567 -13.594,-5.449 -10.459,-20.293 -3.945,-30.156 8.378,-12.753 20.4,-15.245 34.707,-14.727 -9.327,-19.785 35.293,-33.134 44.033,-14.775 8.623,-8.721 22.431,-6.816 27.334,4.306 0.166,-14.648 24.316,-14.57 34.394,-11.513 14.336,4.316 18.731,15.332 17.979,29.228 16.767,0.372 55.791,39.375 30.723,51.065 16.611,5.595 24.648,37.568 4.033,43.759 12.695,16.505 0.019,37.404 -18.828,40.645 -0.157,12.06 1.22,23.507 -10.713,30.351 -7.188,4.102 -16.992,4.004 -23.916,0.108 -9.248,12.558 -31.094,27.314 -44.209,10.166 -7.784,5 -27.159,11.846 -28.994,-2.901 -23.887,-1.219 -23.975,-1.756 -34.581,-19.09 z"
         id="path4755" />
    </g>
    <path
       style="fill:#ffccaa;fill-opacity:1;stroke:#000000;stroke-width:4;stroke-miterlimit:4;stroke-dasharray:none;stroke-opacity:1"
       d="M 532.85186,950.19455 309.84268,651.81621 c 0,0 -35.79,-3.662 -61.397,-44.66798 -15.262,-24.414 -71.239,-53.555 -70.975,-70.596 0.663,-41.299 72.47,20 72.47,20 0,0 -60.977,-73.818 -38.956,-89.287 29.738,-20.957 70.558,60.781 70.558,60.781 0,0 -52.638,-89.853 -25.498,-98.017 27.217,-8.184 59.932,79.717 59.932,79.717 0,0 -31.388,-83.36 0.34,-92.871 20.831,-6.26 45.82199,101.425 66.64198,105.039 20.839,3.613 48.623,-46.377 61.162,-16.934 11.631,27.324 -27.511,24.795 -21.134,58.506 6.72,35.498 -17.607,59.63898 -17.607,59.63898 l 137.0853,175.5231 z"
       id="path4623" />
    <g
       transform="matrix(1.1647881,0,0,1.1328257,-1010.805,136.36482)"
       id="g4716">
      <path
         id="path4625"
         d="m 1040.3322,238.38389 c -5.235,7.178 -30.547,10.469 -25.498,-2.812 -10.635,11.103 -29.39497,9.444 -24.19897,-8.954 -10.43,5.985 -23.711,-4.268 -14.19,-14.668 -7.129,4.266 -12.773,-2.246 -14.99,-8.556 -2.881,-8.173 0.107,-14.453 5.244,-20.742 -12.148,-2.569 -2.871,-27.315 8.408,-24.961 -0.976,-6.895 4.619,-12.481 11.319,-10.888 -6.563,-5.089 1.767,-15.976 6.601,-19.493 6.85597,-4.99 13.34997,-3.203 19.36497,1.895 5.928,-7.452 36.934,-11.709 33.614,3.624 8.222,-5.586 25.42,1.737 21.152,13.183 11.816,-0.079 16.924,12.813 11.924,22.442 5.4,4.208 11.045,7.519 10.039,15.253 -0.596,4.648 -4.014,9.052 -8.145,10.839 2.5,8.477 1.69,23.418 -10.556,23.457 -0.42,5.245 -3.955,16.358 -11.25,12.12 -8.75,10.38 -9.024,10.225 -20.489,9.082 z"
         style="fill:url(#linearGradient4718)" />
      <path
         style="fill:none;fill-opacity:1;stroke:#000000;stroke-width:3.20000005;stroke-miterlimit:4;stroke-dasharray:none;stroke-opacity:1"
         d="m 1040.3322,238.38389 c -5.235,7.178 -30.547,10.469 -25.498,-2.812 -10.635,11.103 -29.39497,9.444 -24.19897,-8.954 -10.43,5.985 -23.711,-4.268 -14.19,-14.668 -7.129,4.266 -12.773,-2.246 -14.99,-8.556 -2.881,-8.173 0.107,-14.453 5.244,-20.742 -12.148,-2.569 -2.871,-27.315 8.408,-24.961 -0.976,-6.895 4.619,-12.481 11.319,-10.888 -6.563,-5.089 1.767,-15.976 6.601,-19.493 6.85597,-4.99 13.34997,-3.203 19.36497,1.895 5.928,-7.452 36.934,-11.709 33.614,3.624 8.222,-5.586 25.42,1.737 21.152,13.183 11.816,-0.079 16.924,12.813 11.924,22.442 5.4,4.208 11.045,7.519 10.039,15.253 -0.596,4.648 -4.014,9.052 -8.145,10.839 2.5,8.477 1.69,23.418 -10.556,23.457 -0.42,5.245 -3.955,16.358 -11.25,12.12 -8.75,10.38 -9.024,10.225 -20.489,9.082 z"
         id="path4712" />
    </g>
    <g
       transform="translate(-81.78106,226.51979)"
       id="g4733">
      <path
         id="path4633"
         d="m 41.704,166.685 c 0,10.429 -8.447,18.886 -18.877,18.886 -10.42,0 -18.857,-8.457 -18.857,-18.886 0,-10.431 8.437,-18.857 18.857,-18.857 10.43,0 18.877,8.426 18.877,18.857 z"
         style="fill:url(#linearGradient4764)" />
      <path
         id="path4635"
         d="m 22.827,150.004 c -9.199,0 -16.679,7.481 -16.679,16.681 0,9.209 7.48,16.709 16.679,16.709 9.209,0 16.699,-7.5 16.699,-16.709 0,-9.2 -7.49,-16.681 -16.699,-16.681 z m 0,37.745 c -11.601,0 -21.035,-9.454 -21.035,-21.064 0,-11.602 9.434,-21.036 21.035,-21.036 11.612,0 21.055,9.434 21.055,21.036 0,11.61 -9.443,21.064 -21.055,21.064"
         style="fill:#c7e7f1" />
      <path
         style="fill:#000000;fill-opacity:1;stroke-width:1.18025255"
         d="m 23.162765,147.2895 c -11.118827,0 -20.1598993,8.62166 -20.1598993,19.22443 0,10.61315 9.0410723,19.25671 20.1598993,19.25671 11.130914,0 20.184075,-8.64356 20.184075,-19.25671 0,-10.60277 -9.053161,-19.22443 -20.184075,-19.22443 z m -0.413201,41.43417 c -14.0221223,0 -22.11938757,-8.82949 -22.11938757,-22.20974 0,-13.37101 8.92366687,-22.59065 22.94578957,-22.59065 14.035419,0 23.383165,9.21964 23.383165,22.59065 0,13.38025 -8.934545,22.62294 -22.969964,22.62294"
         id="path4728" />
    </g>
    <g
       id="g4741"
       transform="matrix(0.80045341,0,0,0.79553084,-192.59273,296.00839)">
      <path
         style="fill:url(#linearGradient4743)"
         d="m 41.704,166.685 c 0,10.429 -8.447,18.886 -18.877,18.886 -10.42,0 -18.857,-8.457 -18.857,-18.886 0,-10.431 8.437,-18.857 18.857,-18.857 10.43,0 18.877,8.426 18.877,18.857 z"
         id="path4735" />
      <path
         style="fill:#c7e7f1"
         d="m 22.827,150.004 c -9.199,0 -16.679,7.481 -16.679,16.681 0,9.209 7.48,16.709 16.679,16.709 9.209,0 16.699,-7.5 16.699,-16.709 0,-9.2 -7.49,-16.681 -16.699,-16.681 z m 0,37.745 c -11.601,0 -21.035,-9.454 -21.035,-21.064 0,-11.602 9.434,-21.036 21.035,-21.036 11.612,0 21.055,9.434 21.055,21.036 0,11.61 -9.443,21.064 -21.055,21.064"
         id="path4737" />
      <path
         id="path4739"
         d="m 23.162765,147.2895 c -11.118827,0 -20.1598993,8.62166 -20.1598993,19.22443 0,10.61315 9.0410723,19.25671 20.1598993,19.25671 11.130914,0 20.184075,-8.64356 20.184075,-19.25671 0,-10.60277 -9.053161,-19.22443 -20.184075,-19.22443 z m -0.413201,41.43417 c -14.0221223,0 -22.11938757,-8.82949 -22.11938757,-22.20974 0,-13.37101 8.92366687,-22.59065 22.94578957,-22.59065 14.035419,0 23.383165,9.21964 23.383165,22.59065 0,13.38025 -8.934545,22.62294 -22.969964,22.62294"
         style="fill:#000000;fill-opacity:1;stroke-width:1.18025255" />
    </g>
    <g
       id="g4751"
       transform="translate(220.21524,423.74186)">
      <path
         style="fill:url(#linearGradient4753)"
         d="m 41.704,166.685 c 0,10.429 -8.447,18.886 -18.877,18.886 -10.42,0 -18.857,-8.457 -18.857,-18.886 0,-10.431 8.437,-18.857 18.857,-18.857 10.43,0 18.877,8.426 18.877,18.857 z"
         id="path4745" />
      <path
         style="fill:#c7e7f1"
         d="m 22.827,150.004 c -9.199,0 -16.679,7.481 -16.679,16.681 0,9.209 7.48,16.709 16.679,16.709 9.209,0 16.699,-7.5 16.699,-16.709 0,-9.2 -7.49,-16.681 -16.699,-16.681 z m 0,37.745 c -11.601,0 -21.035,-9.454 -21.035,-21.064 0,-11.602 9.434,-21.036 21.035,-21.036 11.612,0 21.055,9.434 21.055,21.036 0,11.61 -9.443,21.064 -21.055,21.064"
         id="path4747" />
      <path
         id="path4749"
         d="m 23.162765,147.2895 c -11.118827,0 -20.1598993,8.62166 -20.1598993,19.22443 0,10.61315 9.0410723,19.25671 20.1598993,19.25671 11.130914,0 20.184075,-8.64356 20.184075,-19.25671 0,-10.60277 -9.053161,-19.22443 -20.184075,-19.22443 z m -0.413201,41.43417 c -14.0221223,0 -22.11938757,-8.82949 -22.11938757,-22.20974 0,-13.37101 8.92366687,-22.59065 22.94578957,-22.59065 14.035419,0 23.383165,9.21964 23.383165,22.59065 0,13.38025 -8.934545,22.62294 -22.969964,22.62294"
         style="fill:#000000;fill-opacity:1;stroke-width:1.18025255" />
    </g>
    <ellipse
       ry="81.662262"
       rx="106.31503"
       cy="1118.4719"
       cx="250.01241"
       id="path4768"
       style="opacity:1;fill:#ffccaa;fill-opacity:1;stroke:#000000;stroke-width:9.60000038;stroke-linecap:round;stroke-linejoin:round;stroke-miterlimit:4;stroke-dasharray:none;stroke-dashoffset:1.21209455;stroke-opacity:1;paint-order:stroke fill markers" />
    <ellipse
       style="opacity:1;fill:#ffccaa;fill-opacity:1;stroke:#000000;stroke-width:9.60000038;stroke-linecap:round;stroke-linejoin:round;stroke-miterlimit:4;stroke-dasharray:none;stroke-dashoffset:1.21209455;stroke-opacity:1;paint-order:stroke fill markers"
       id="ellipse4770"
       cx="-48.902309"
       cy="1121.5535"
       rx="106.31503"
       ry="81.662262" />
  </g>
  <metadata
     id="metadata4518">
    <rdf:RDF>
      <cc:Work>
        <dc:format>image/svg+xml</dc:format>
        <dc:type
           rdf:resource="http://purl.org/dc/dcmitype/StillImage" />
        <cc:license
           rdf:resource="http://creativecommons.org/publicdomain/zero/1.0/" />
        <dc:publisher>
          <cc:Agent
             rdf:about="http://openclipart.org/">
            <dc:title>Openclipart</dc:title>
          </cc:Agent>
        </dc:publisher>
        <dc:title></dc:title>
        <dc:date>2013-09-30T19:51:02</dc:date>
        <dc:description>colored woman head </dc:description>
        <dc:source>https://openclipart.org/detail/184443/womans-head-by-arking-184443</dc:source>
        <dc:creator>
          <cc:Agent>
            <dc:title>arking</dc:title>
          </cc:Agent>
        </dc:creator>
        <dc:subject>
          <rdf:Bag>
            <rdf:li>cartoon</rdf:li>
            <rdf:li>color</rdf:li>
            <rdf:li>comic</rdf:li>
            <rdf:li>head</rdf:li>
            <rdf:li>woman</rdf:li>
          </rdf:Bag>
        </dc:subject>
      </cc:Work>
      <cc:License
         rdf:about="http://creativecommons.org/publicdomain/zero/1.0/">
        <cc:permits
           rdf:resource="http://creativecommons.org/ns#Reproduction" />
        <cc:permits
           rdf:resource="http://creativecommons.org/ns#Distribution" />
        <cc:permits
           rdf:resource="http://creativecommons.org/ns#DerivativeWorks" />
      </cc:License>
    </rdf:RDF>
  </metadata>
</svg>
