<?xml version="1.0" encoding="UTF-8" standalone="no"?>
<svg
   xmlns:dc="http://purl.org/dc/elements/1.1/"
   xmlns:cc="http://creativecommons.org/ns#"
   xmlns:rdf="http://www.w3.org/1999/02/22-rdf-syntax-ns#"
   xmlns:svg="http://www.w3.org/2000/svg"
   xmlns="http://www.w3.org/2000/svg"
   xmlns:xlink="http://www.w3.org/1999/xlink"
   xmlns:sodipodi="http://sodipodi.sourceforge.net/DTD/sodipodi-0.dtd"
   xmlns:inkscape="http://www.inkscape.org/namespaces/inkscape"
   version="1.1"
   x="0"
   y="0"
   width="335"
   height="443"
   viewBox="0, 0, 335, 443"
   id="svg28796"
   inkscape:version="0.91 r13725"
   sodipodi:docname="pinkelephantcartoon.svg">
  <metadata
     id="metadata29116">
    <rdf:RDF>
      <cc:Work
         rdf:about="">
        <dc:format>image/svg+xml</dc:format>
        <dc:type
           rdf:resource="http://purl.org/dc/dcmitype/StillImage" />
      </cc:Work>
    </rdf:RDF>
  </metadata>
  <sodipodi:namedview
     pagecolor="#ffffff"
     bordercolor="#666666"
     borderopacity="1"
     objecttolerance="10"
     gridtolerance="10"
     guidetolerance="10"
     inkscape:pageopacity="0"
     inkscape:pageshadow="2"
     inkscape:window-width="1916"
     inkscape:window-height="1035"
     id="namedview29114"
     showgrid="false"
     inkscape:zoom="0.23091388"
     inkscape:cx="167.5"
     inkscape:cy="393.59724"
     inkscape:window-x="4"
     inkscape:window-y="1"
     inkscape:window-maximized="1"
     inkscape:current-layer="g28810" />
  <defs
     id="defs28798">
    <linearGradient
       id="linearGradient29672"
       inkscape:collect="always">
      <stop
         id="stop29674"
         offset="0"
         style="stop-color:#905db4;stop-opacity:1;" />
      <stop
         id="stop29676"
         offset="1"
         style="stop-color:#d5b3ec;stop-opacity:0" />
    </linearGradient>
    <linearGradient
       inkscape:collect="always"
       id="linearGradient29660">
      <stop
         style="stop-color:#905db4;stop-opacity:1;"
         offset="0"
         id="stop29662" />
      <stop
         style="stop-color:#905db4;stop-opacity:0;"
         offset="1"
         id="stop29664" />
    </linearGradient>
    <clipPath
       id="Clip_1">
      <path
         d="M20.192,16.669 L90.564,16.669 L90.564,161.609 L20.192,161.609 z"
         id="path28801" />
    </clipPath>
    <clipPath
       id="Clip_2">
      <path
         d="M49.606,34.176 L95.431,34.176 L95.431,80.618 L49.606,80.618 z"
         id="path28804" />
    </clipPath>
    <clipPath
       id="Clip_3">
      <path
         d="M64.223,88.602 L77.772,88.602 L77.772,102.151 L64.223,102.151 z"
         id="path28807" />
    </clipPath>
    <linearGradient
       inkscape:collect="always"
       xlink:href="#linearGradient29660"
       id="linearGradient29666"
       x1="16.219236"
       y1="34.248814"
       x2="98.016197"
       y2="102.207"
       gradientUnits="userSpaceOnUse" />
    <linearGradient
       inkscape:collect="always"
       xlink:href="#linearGradient29672"
       id="linearGradient29670"
       gradientUnits="userSpaceOnUse"
       x1="4.730823"
       y1="7.7154021"
       x2="100.80418"
       y2="63.600037"
       gradientTransform="matrix(-0.745476,-0.67581648,-0.66653247,0.7558596,251.65194,96.314754)" />
    <clipPath
       id="Clip_1-8">
      <path
         id="path30198"
         d="M20.192,16.669 L90.564,16.669 L90.564,161.609 L20.192,161.609 z" />
    </clipPath>
    <clipPath
       id="Clip_2-4">
      <path
         id="path30201"
         d="M49.606,34.176 L95.431,34.176 L95.431,80.618 L49.606,80.618 z" />
    </clipPath>
    <clipPath
       id="Clip_3-9">
      <path
         id="path30204"
         d="M64.223,88.602 L77.772,88.602 L77.772,102.151 L64.223,102.151 z" />
    </clipPath>
    <filter
       inkscape:collect="always"
       style="color-interpolation-filters:sRGB"
       id="filter30754"
       x="-0.096709071"
       width="1.1934181"
       y="-0.10525232"
       height="1.2105046">
      <feGaussianBlur
         inkscape:collect="always"
         stdDeviation="4.1504192"
         id="feGaussianBlur30756" />
    </filter>
  </defs>
  <g
     id="レイヤー_1">
    <g
       id="g28810">
      <g
         id="g29678" />
      <g
         id="g30914">
        <path
           d="M126.848,384.418 C126.848,384.418 100.507,404.844 83.341,398.422 C83.341,398.422 100.58,412.59 121.605,399.67"
           fill="#B6E0F7"
           id="path28812"
           style="fill:#eeb6f7;fill-opacity:1" />
        <path
           d="M103.507,408.063 C90.561,408.063 81.565,400.847 81.436,400.739 C80.302,399.807 80.009,398.193 80.742,396.924 C81.473,395.653 83.012,395.096 84.392,395.612 C97.188,400.393 118.051,387.441 125.009,382.047 C126.316,381.031 128.204,381.265 129.218,382.581 C130.235,383.887 129.996,385.774 128.686,386.788 C127.864,387.426 113.483,398.448 98.575,401.738 C104.481,402.71 111.923,402.098 120.035,397.115 C121.441,396.245 123.291,396.684 124.161,398.099 C125.028,399.511 124.588,401.357 123.175,402.224 C116.112,406.566 109.399,408.063 103.507,408.063"
           fill="#472815"
           id="path28814"
           style="" />
        <path
           d="M87.484,354.464 C92.965,359.943 108.447,360.142 120.603,360.137 C117.891,368.767 116.369,377.24 116.369,384.142 C116.369,388.719 117.045,392.538 118.282,395.737 C118.49,407.773 120.572,421.391 132.046,437.762 L153.815,437.762 L153.815,411.745 C157.813,411.763 158.916,411.78 160.041,411.78 C161.163,411.78 162.261,411.763 168.382,411.745 L168.382,437.762 L188.026,437.762 C199.49,421.402 201.579,407.814 201.787,395.773 C203.035,392.562 203.712,388.736 203.712,384.142 C203.712,377.234 202.189,368.755 199.473,360.112 C214.763,359.984 245.401,359.111 250.276,354.236 C256.81,347.702 250.276,333.072 250.276,333.072 L182.917,327.974 C176.268,319.829 168.43,314.374 160.041,314.374 C151.786,314.374 144.07,319.648 137.485,327.569 L87.484,333.301"
           fill="#B6E0F7"
           id="path28816"
           style="fill:#eeb6f7;fill-opacity:1" />
        <path
           d="M188.027,440.761 L168.381,440.761 C166.725,440.761 165.382,439.419 165.382,437.761 L165.382,414.757 L160.041,414.781 L156.816,414.763 L156.816,437.761 C156.816,439.419 155.472,440.761 153.816,440.761 L132.045,440.761 C131.067,440.761 130.15,440.283 129.589,439.484 C117.526,422.269 115.544,408.016 115.293,396.309 C114.017,392.793 113.37,388.703 113.37,384.142 C113.37,378.08 114.505,370.736 116.597,363.121 C103.051,363.01 90.889,362.108 85.363,356.585 C84.192,355.413 84.192,353.515 85.362,352.343 C86.534,351.171 88.434,351.171 89.606,352.343 C94.415,357.148 111.446,357.139 120.602,357.136 L120.603,357.136 C121.558,357.136 122.456,357.59 123.022,358.361 C123.587,359.131 123.751,360.124 123.465,361.035 C120.824,369.441 119.37,377.647 119.37,384.142 C119.37,388.185 119.945,391.721 121.081,394.654 C121.208,394.985 121.277,395.333 121.283,395.685 C121.466,406.293 123.098,419.19 133.621,434.761 L150.816,434.761 L150.816,411.745 C150.816,410.948 151.133,410.181 151.699,409.618 C152.261,409.059 153.023,408.745 153.816,408.745 L153.829,408.745 L160.041,408.781 L168.374,408.745 C169.107,408.672 169.936,409.059 170.502,409.621 C171.064,410.184 171.381,410.948 171.381,411.745 L171.381,434.761 L186.451,434.761 C196.974,419.193 198.603,406.311 198.788,395.72 C198.794,395.365 198.861,395.017 198.99,394.686 C200.132,391.744 200.713,388.197 200.713,384.142 C200.713,377.647 199.256,369.432 196.611,361.012 C196.327,360.104 196.488,359.116 197.048,358.349 C197.607,357.578 198.498,357.121 199.447,357.113 C234.246,356.82 246.436,353.834 248.153,352.115 C251.777,348.493 249.797,340.302 248.191,335.922 L182.692,330.965 C181.875,330.904 181.116,330.508 180.597,329.872 C175.939,324.171 168.591,317.374 160.041,317.374 C151.627,317.374 144.385,323.96 139.793,329.489 C139.299,330.08 138.594,330.461 137.827,330.549 L87.826,336.28 C86.197,336.49 84.694,335.289 84.504,333.643 C84.316,331.996 85.497,330.508 87.143,330.321 L135.965,324.725 C143.521,315.986 151.825,311.374 160.041,311.374 C168.368,311.374 176.771,316.106 184.412,325.079 L250.503,330.08 C251.601,330.162 252.565,330.842 253.013,331.847 C253.769,333.537 260.168,348.587 252.398,356.357 C250.869,357.883 246.31,362.442 203.472,363.066 C205.573,370.703 206.713,378.069 206.713,384.142 C206.713,388.788 206.08,392.787 204.779,396.347 C204.527,408.036 202.547,422.272 190.485,439.484 C189.925,440.283 189.006,440.761 188.027,440.761"
           fill="#472815"
           id="path28818"
           style="" />
        <path
           d="M267.925,166.707 C252.711,161.773 232.385,176.439 222.685,184.555 C205.438,172.01 183.975,164.914 160.942,165.787 C141.793,166.508 124.145,172.643 109.394,182.621 C99.026,174.342 80.589,162.148 66.524,166.707 C45.834,173.41 -21.877,222.951 16.681,242.855 C16.681,242.855 19.502,265.191 34.549,266.797 C34.549,266.797 54.163,283.396 69.187,284.732 C80.56,322.432 124.332,327.576 171.951,325.777 C216.491,324.096 250.52,316.853 260.153,284.504 C275.361,287.568 299.9,266.797 299.9,266.797 C314.946,265.191 317.768,242.855 317.768,242.855 C356.325,222.951 288.614,173.41 267.925,166.707"
           fill="#B6E0F7"
           id="path28820"
           style="fill:#eeb6f7;fill-opacity:1" />
        <path
           d="M73.103,168.717 C71.08,168.717 69.177,169.001 67.449,169.561 C51.58,174.702 9.79,204.477 8.077,225.409 C7.569,231.626 10.834,236.46 18.057,240.189 C18.933,240.641 19.532,241.499 19.658,242.475 C19.683,242.676 22.377,262.482 34.868,263.815 C35.465,263.879 36.029,264.118 36.488,264.505 C36.677,264.667 55.561,280.508 69.453,281.743 C70.674,281.853 71.706,282.694 72.06,283.865 C80.243,310.987 106.343,323.085 156.691,323.085 C161.443,323.085 166.397,322.986 171.838,322.78 C216.633,321.086 248.303,313.785 257.279,283.648 C257.722,282.16 259.228,281.255 260.748,281.562 C261.568,281.729 262.465,281.811 263.408,281.811 C277.356,281.815 297.756,264.681 297.961,264.505 C298.421,264.118 298.986,263.879 299.584,263.815 C312.073,262.482 314.766,242.676 314.792,242.475 C314.918,241.499 315.516,240.641 316.395,240.189 C323.616,236.46 326.883,231.626 326.373,225.409 C324.662,204.477 282.87,174.702 267,169.561 C265.271,169.001 263.367,168.717 261.343,168.717 C248.25,168.717 232.708,180.081 224.61,186.855 C223.553,187.742 222.029,187.788 220.922,186.98 C203.502,174.31 182.757,167.973 161.057,168.784 C143.146,169.458 125.862,175.104 111.076,185.105 C109.988,185.844 108.551,185.788 107.522,184.965 C99.923,178.898 85.346,168.717 73.103,168.717 M156.691,329.085 C121.311,329.085 79.342,324.303 66.911,287.466 C52.988,285.195 36.854,272.556 33.3,269.655 C19.178,267.439 14.938,250.165 13.954,244.788 C3.35,238.76 1.623,230.715 2.098,224.919 C4.163,199.665 50.149,168.861 65.6,163.854 C67.926,163.098 70.452,162.717 73.103,162.717 C85.726,162.717 99.593,171.23 109.547,178.924 C124.85,169.048 142.534,163.479 160.83,162.79 C183.108,161.945 204.434,168.215 222.551,180.781 C231.656,173.424 247.324,162.717 261.343,162.717 C263.997,162.717 266.522,163.098 268.852,163.854 C284.303,168.861 330.287,199.665 332.353,224.919 C332.827,230.715 331.102,238.76 320.496,244.788 C319.512,250.165 315.272,267.439 301.148,269.655 C297.237,272.853 278.124,287.811 263.408,287.811 C263.019,287.811 262.635,287.802 262.251,287.781 C251.382,319.311 218.279,327.03 172.066,328.775 C166.548,328.983 161.52,329.085 156.691,329.085"
           fill="#472815"
           id="path28822"
           style="" />
        <path
           d="M221.71,260.14 C222,267.617 216.176,273.91 208.696,274.203 C201.214,274.49 194.909,268.66 194.625,261.183 C194.332,253.706 200.171,247.408 207.65,247.12 C215.13,246.827 221.42,252.658 221.71,260.14"
           fill="#472815"
           id="path28824"
           style="" />
        <path
           d="M134.768,263.504 C135.055,270.981 129.228,277.279 121.751,277.567 C114.272,277.854 107.976,272.029 107.686,264.547 C107.399,257.07 113.223,250.772 120.703,250.484 C128.182,250.191 134.478,256.022 134.768,263.504"
           fill="#472815"
           id="path28826"
           style="" />
        <path
           d="M115.878,295.959 C115.567,303.236 109.444,308.885 102.199,308.574 C94.951,308.27 89.329,302.117 89.64,294.84 C89.95,287.563 96.073,281.914 103.318,282.225 C110.566,282.535 116.189,288.682 115.878,295.959"
           fill="#F9D3C2"
           id="path28828"
           style="fill:#ebc9ee;fill-opacity:1" />
        <path
           d="M243.72,290.879 C243.409,298.15 237.286,303.799 230.041,303.488 C222.793,303.184 217.174,297.031 217.482,289.76 C217.792,282.483 223.915,276.834 231.163,277.139 C238.406,277.449 244.031,283.596 243.72,290.879"
           fill="#F9D3C2"
           id="path28830"
           style="fill:#ebc9ee;fill-opacity:1" />
        <path
           d="M218.619,259.472 C218.73,262.367 216.477,264.804 213.583,264.915 C210.688,265.027 208.251,262.771 208.137,259.876 C208.028,256.982 210.278,254.55 213.176,254.439 C216.067,254.327 218.505,256.583 218.619,259.472"
           fill="#FEFEFE"
           id="path28832"
           style="" />
        <path
           d="M133.131,262.783 C133.242,265.672 130.986,268.109 128.095,268.226 C125.2,268.338 122.766,266.082 122.654,263.193 C122.54,260.293 124.796,257.855 127.691,257.744 C130.582,257.633 133.02,259.888 133.131,262.783"
           fill="#FEFEFE"
           id="path28834"
           style="" />
        <path
           d="M194.613,282.213 C194.613,282.213 212.54,316.484 238.775,300.623 C238.775,300.623 251.83,297.723 257.326,308.586 C257.326,308.586 270.044,312.893 270.032,321.793 C270.017,332.322 208.637,378.219 156.802,293.076"
           fill="#B6E0F7"
           id="path28836"
           style="fill:#eeb6f7;fill-opacity:1" />
        <path
           d="M227.127,346.598 C207.19,346.598 179.877,336.748 154.241,294.634 C153.379,293.219 153.828,291.373 155.243,290.512 C156.658,289.654 158.505,290.099 159.365,291.517 C190.535,342.71 223.652,343.191 240.621,338.919 C257.297,334.724 266.889,324.429 267.032,321.781 C267.041,315.271 256.465,311.462 256.359,311.424 C255.621,311.172 255.003,310.636 254.648,309.939 C250.74,302.216 241.934,303.139 239.848,303.473 C232.559,307.742 225.164,308.875 217.857,306.83 C201.935,302.38 192.355,284.369 191.953,283.604 C191.186,282.136 191.754,280.326 193.219,279.558 C194.689,278.785 196.5,279.356 197.271,280.818 C197.356,280.985 206.08,297.324 219.492,301.059 C225.293,302.676 231.258,301.662 237.223,298.056 C237.504,297.886 237.809,297.763 238.125,297.693 C243.234,296.571 254.022,296.963 259.43,306.177 C262.913,307.604 273.044,312.549 273.032,321.795 C273.023,328.416 260.189,339.696 243.656,344.322 C239.092,345.596 233.484,346.598 227.127,346.598"
           fill="#472815"
           id="path28838"
           style="" />
        <path
           d="M96.75,192.781 C89.61,188.902 81.103,185.838 74.065,187.877 C58.816,192.301 8.912,224.967 37.33,238.092 C37.33,238.092 39.407,252.822 50.499,253.883 C50.499,253.883 58.005,259.566 66.343,263.07 C66.407,235.566 78.015,210.564 96.75,192.781"
           fill="#78A6BC"
           id="path28840"
           style="fill:#bb78bc;fill-opacity:1" />
        <path
           d="M258.401,187.877 C250.699,185.645 241.221,189.512 233.721,193.889 C250.872,210.711 261.876,233.785 262.848,259.596 C262.91,261.201 262.927,262.754 262.916,264.283 C272.431,261.096 281.967,253.883 281.967,253.883 C293.059,252.822 295.136,238.092 295.136,238.092 C323.554,224.967 273.65,192.301 258.401,187.877"
           fill="#78A6BC"
           id="path28842"
           style="fill:#bb78bc;fill-opacity:1" />
        <path
           d="M103.095,440.293 C102.27,440.293 101.45,439.956 100.858,439.294 C99.963,438.295 79.076,414.506 87.99,386.797 C96.358,360.787 91.804,225.064 71.714,207.21 C70.474,206.111 70.363,204.216 71.463,202.977 C72.563,201.737 74.459,201.623 75.698,202.728 C97.583,222.172 102.535,361.18 93.702,388.637 C85.829,413.105 105.134,435.075 105.329,435.292 C106.435,436.528 106.328,438.424 105.093,439.528 C104.522,440.041 103.807,440.293 103.095,440.293"
           fill="#472815"
           id="path28844"
           style="" />
        <path
           d="M110.705,345.588 C110.705,356.358 102.656,365.088 92.727,365.088 C82.798,365.088 74.749,356.358 74.749,345.588 C74.749,334.813 82.798,326.082 92.727,326.082 C102.656,326.082 110.705,334.813 110.705,345.588"
           fill="#B6E0F7"
           id="path28846"
           style="fill:#eeb6f7;fill-opacity:1" />
        <path
           d="M92.727,329.082 C84.468,329.082 77.749,336.485 77.749,345.588 C77.749,354.685 84.468,362.088 92.727,362.088 C100.986,362.088 107.705,354.685 107.705,345.588 C107.705,336.485 100.986,329.082 92.727,329.082 M92.727,368.088 C81.159,368.088 71.749,357.995 71.749,345.588 C71.749,333.178 81.159,323.082 92.727,323.082 C104.295,323.082 113.705,333.178 113.705,345.588 C113.705,357.995 104.295,368.088 92.727,368.088"
           fill="#472815"
           id="path28848"
           style="" />
        <path
           d="M71.538,192.154 C71.538,192.154 61.946,197.99 62.591,207.125 C62.591,207.125 69.229,214.443 75.991,209.351 C75.991,209.351 78.253,195.5 71.538,192.154"
           fill="#E63F6D"
           id="path28850"
           style="fill:#af5bda;fill-opacity:1" />
        <path
           d="M62.591,207.125 C62.591,207.125 68.925,214.865 75.991,209.352 C75.991,209.352 69.921,203.146 62.591,207.125"
           fill="#EF97BD"
           id="path28852"
           style="fill:#cc97ef;fill-opacity:1" />
        <path
           d="M71.316,196.039 C164.773,194.334 247.834,117.025 211.588,64.789 C175.342,12.553 122.632,55.766 122.632,55.766 C122.632,55.766 110.257,-11.26 48.857,5.258 C-12.538,21.769 1.021,134.428 71.316,196.039"
           fill="#E51C58"
           id="path28854"
           style="fill:#af5bda;fill-opacity:1" />
        <path
           d="M211.136,64.976 C175.04,12.957 122.55,55.99 122.55,55.99 C122.55,55.99 110.226,-10.757 49.08,5.692 C-12.059,22.135 1.443,134.326 71.446,195.681 C164.515,193.983 247.231,116.996 211.136,64.976"
           fill="#E51E59"
           id="path28856"
           style="fill:#af5bda;fill-opacity:1" />
        <path
           d="M210.684,65.163 C174.739,13.36 122.467,56.214 122.467,56.214 C122.467,56.214 110.195,-10.254 49.305,6.126 C-11.58,22.501 1.866,134.224 71.577,195.323 C164.258,193.632 246.629,116.966 210.684,65.163"
           fill="#E51F5A"
           id="path28858"
           style="fill:#af5bda;fill-opacity:1" />
        <path
           d="M210.233,65.35 C174.438,13.765 122.385,56.439 122.385,56.439 C122.385,56.439 110.165,-9.752 49.529,6.56 C-11.101,22.867 2.289,134.121 71.708,194.965 C164.001,193.282 246.028,116.936 210.233,65.35"
           fill="#E51F5A"
           id="path28860"
           style="fill:#af5bda;fill-opacity:1" />
        <path
           d="M209.781,65.538 C174.137,14.169 122.303,56.664 122.303,56.664 C122.303,56.664 110.134,-9.248 49.753,6.996 C-10.622,23.233 2.712,134.02 71.839,194.608 C163.744,192.932 245.426,116.907 209.781,65.538"
           fill="#E5215B"
           id="path28862"
           style="fill:#af5bda;fill-opacity:1" />
        <path
           d="M209.33,65.725 C173.837,14.573 122.222,56.889 122.222,56.889 C122.222,56.889 110.103,-8.745 49.977,7.43 C-10.143,23.599 3.134,133.918 71.97,194.25 C163.487,192.581 244.824,116.877 209.33,65.725"
           fill="#E5225B"
           id="path28864"
           style="fill:#af5bda;fill-opacity:1" />
        <path
           d="M208.879,65.912 C173.535,14.977 122.139,57.113 122.139,57.113 C122.139,57.113 110.072,-8.243 50.202,7.864 C-9.663,23.964 3.557,133.816 72.101,193.892 C163.23,192.23 244.222,116.847 208.879,65.912"
           fill="#E5225B"
           id="path28866"
           style="fill:#af5bda;fill-opacity:1" />
        <path
           d="M208.426,66.099 C173.234,15.381 122.056,57.338 122.056,57.338 C122.056,57.338 110.041,-7.74 50.425,8.298 C-9.185,24.33 3.979,133.714 72.231,193.535 C162.972,191.879 243.619,116.817 208.426,66.099"
           fill="#E5245C"
           id="path28868"
           style="fill:#af5bda;fill-opacity:1" />
        <path
           d="M207.975,66.286 C172.933,15.785 121.975,57.563 121.975,57.563 C121.975,57.563 110.01,-7.237 50.649,8.732 C-8.706,24.696 4.402,133.612 72.362,193.177 C162.715,191.529 243.017,116.788 207.975,66.286"
           fill="#E5255D"
           id="path28870"
           style="fill:#af5bda;fill-opacity:1" />
        <path
           d="M207.524,66.474 C172.631,16.19 121.892,57.788 121.892,57.788 C121.892,57.788 109.98,-6.733 50.873,9.167 C-8.227,25.062 4.825,133.511 72.493,192.82 C162.458,191.179 242.416,116.759 207.524,66.474"
           fill="#E5275D"
           id="path28872"
           style="fill:#af5bda;fill-opacity:1" />
        <path
           d="M207.072,66.661 C172.331,16.594 121.81,58.013 121.81,58.013 C121.81,58.013 109.949,-6.23 51.097,9.602 C-7.748,25.428 5.248,133.409 72.624,192.462 C162.201,190.828 241.814,116.729 207.072,66.661"
           fill="#E5275E"
           id="path28874"
           style="fill:#af5bda;fill-opacity:1" />
        <path
           d="M206.621,66.848 C172.03,16.997 121.728,58.237 121.728,58.237 C121.728,58.237 109.918,-5.728 51.322,10.035 C-7.269,25.793 5.67,133.306 72.755,192.104 C161.944,190.477 241.212,116.699 206.621,66.848"
           fill="#E5285F"
           id="path28876"
           style="fill:#af5bda;fill-opacity:1" />
        <path
           d="M206.169,67.035 C171.73,17.401 121.646,58.461 121.646,58.461 C121.646,58.461 109.888,-5.225 51.546,10.47 C-6.789,26.159 6.093,133.204 72.886,191.746 C161.687,190.127 240.61,116.669 206.169,67.035"
           fill="#E52A5F"
           id="path28878"
           style="fill:#af5bda;fill-opacity:1" />
        <path
           d="m 204.7736,66.278604 c -34.29,-49.417 -84.154,-8.536 -84.154,-8.536 0,0 -11.707,-63.4080002 -69.793996,-47.7810002 C -7.2543962,25.581604 5.5716038,132.1586 72.072604,190.4456 160.4856,188.8326 239.0636,115.6956 204.7736,66.278604"
           id="path28880"
           inkscape:connector-curvature="0"
           style="fill:#af5bda;fill-opacity:1" />
        <path
           d="M205.266,67.41 C171.126,18.21 121.481,58.911 121.481,58.911 C121.481,58.911 109.825,-4.218 51.994,11.339 C-5.832,26.891 6.938,133.001 73.147,191.032 C161.172,189.426 239.406,116.61 205.266,67.41"
           fill="#E52C60"
           id="path28882"
           style="fill:#af5bda;fill-opacity:1" />
        <path
           d="M204.814,67.597 C170.826,18.614 121.399,59.136 121.399,59.136 C121.399,59.136 109.794,-3.716 52.218,11.774 C-5.353,27.257 7.361,132.899 73.278,190.674 C160.915,189.076 238.803,116.581 204.814,67.597"
           fill="#E52D61"
           id="path28884"
           style="fill:#af5bda;fill-opacity:1" />
        <path
           d="M204.363,67.784 C170.524,19.018 121.317,59.36 121.317,59.36 C121.317,59.36 109.764,-3.213 52.442,12.208 C-4.874,27.622 7.784,132.797 73.409,190.316 C160.658,188.724 238.202,116.551 204.363,67.784"
           fill="#E62F61"
           id="path28886"
           style="fill:#af5bda;fill-opacity:1" />
        <path
           d="M203.912,67.971 C170.224,19.422 121.235,59.585 121.235,59.585 C121.235,59.585 109.733,-2.71 52.666,12.642 C-4.395,27.989 8.206,132.695 73.54,189.958 C160.401,188.374 237.6,116.521 203.912,67.971"
           fill="#E62E62"
           id="path28888"
           style="fill:#af5bda;fill-opacity:1" />
        <path
           d="M203.46,68.159 C169.923,19.826 121.153,59.81 121.153,59.81 C121.153,59.81 109.703,-2.207 52.891,13.077 C-3.915,28.355 8.629,132.594 73.671,189.601 C160.145,188.024 236.998,116.492 203.46,68.159"
           fill="#E63062"
           id="path28890"
           style="fill:#af5bda;fill-opacity:1" />
        <path
           d="M203.008,68.346 C169.621,20.231 121.07,60.035 121.07,60.035 C121.07,60.035 109.671,-1.704 53.114,13.512 C-3.437,28.721 9.051,132.492 73.801,189.243 C159.886,187.673 236.396,116.462 203.008,68.346"
           fill="#E63163"
           id="path28892"
           style="fill:#af5bda;fill-opacity:1" />
        <path
           d="M202.556,68.533 C169.32,20.635 120.988,60.26 120.988,60.26 C120.988,60.26 109.64,-1.201 53.338,13.946 C-2.958,29.086 9.474,132.389 73.932,188.886 C159.629,187.323 235.793,116.432 202.556,68.533"
           fill="#E63364"
           id="path28894"
           style="fill:#af5bda;fill-opacity:1" />
        <path
           d="M202.105,68.72 C169.019,21.038 120.906,60.484 120.906,60.484 C120.906,60.484 109.609,-0.698 53.563,14.38 C-2.479,29.452 9.897,132.287 74.063,188.528 C159.373,186.971 235.192,116.403 202.105,68.72"
           fill="#E63365"
           id="path28896"
           style="fill:#af5bda;fill-opacity:1" />
        <path
           d="M201.654,68.907 C168.718,21.442 120.824,60.708 120.824,60.708 C120.824,60.708 109.579,-0.196 53.786,14.814 C-2,29.818 10.32,132.185 74.195,188.17 C159.115,186.621 234.59,116.373 201.654,68.907"
           fill="#E63465"
           id="path28898"
           style="fill:#af5bda;fill-opacity:1" />
        <path
           d="M201.202,69.095 C168.418,21.847 120.742,60.934 120.742,60.934 C120.742,60.934 109.548,0.308 54.011,15.249 C-1.521,30.184 10.743,132.084 74.326,187.813 C158.858,186.271 233.988,116.344 201.202,69.095"
           fill="#E63566"
           id="path28900"
           style="fill:#af5bda;fill-opacity:1" />
        <path
           d="M200.751,69.282 C168.116,22.251 120.66,61.158 120.66,61.158 C120.66,61.158 109.518,0.811 54.235,15.683 C-1.041,30.55 11.166,131.982 74.457,187.455 C158.602,185.92 233.386,116.314 200.751,69.282"
           fill="#E63566"
           id="path28902"
           style="fill:#af5bda;fill-opacity:1" />
        <path
           d="M200.299,69.469 C167.816,22.655 120.577,61.383 120.577,61.383 C120.577,61.383 109.487,1.314 54.459,16.118 C-0.563,30.916 11.589,131.88 74.588,187.097 C158.344,185.57 232.784,116.284 200.299,69.469"
           fill="#E63667"
           id="path28904"
           style="fill:#af5bda;fill-opacity:1" />
        <path
           d="m 200.2028,68.588594 c -32.333,-46.597 -79.352,-8.049 -79.352,-8.049 0,0 -11.04,-59.79100003 -65.812998,-45.055 -54.76699999,14.729 -42.672,115.225996 20.036,170.186996 83.367998,-1.52 157.463998,-70.485 125.128998,-117.082996"
           id="path28906"
           style="fill:#af5bda;fill-opacity:1"
           inkscape:connector-curvature="0" />
        <path
           d="M199.396,69.843 C167.213,23.463 120.413,61.832 120.413,61.832 C120.413,61.832 109.425,2.319 54.907,16.986 C0.395,31.647 12.433,131.676 74.849,186.382 C157.83,184.868 231.58,116.225 199.396,69.843"
           fill="#E63968"
           id="path28908"
           style="fill:#af5bda;fill-opacity:1" />
        <path
           d="M198.944,70.031 C166.912,23.867 120.331,62.057 120.331,62.057 C120.331,62.057 109.394,2.823 55.131,17.421 C0.874,32.013 12.856,131.574 74.98,186.024 C157.572,184.518 230.978,116.196 198.944,70.031"
           fill="#E63969"
           id="path28910"
           style="fill:#af5bda;fill-opacity:1" />
        <path
           d="M198.493,70.218 C166.611,24.272 120.249,62.282 120.249,62.282 C120.249,62.282 109.363,3.326 55.355,17.855 C1.353,32.379 13.279,131.472 75.111,185.667 C157.316,184.167 230.376,116.166 198.493,70.218"
           fill="#E63A69"
           id="path28912"
           style="fill:#af5bda;fill-opacity:1" />
        <path
           d="M198.042,70.405 C166.31,24.676 120.167,62.507 120.167,62.507 C120.167,62.507 109.333,3.829 55.58,18.29 C1.832,32.745 13.702,131.37 75.242,185.309 C157.059,183.817 229.774,116.136 198.042,70.405"
           fill="#E63B6A"
           id="path28914"
           style="fill:#af5bda;fill-opacity:1" />
        <path
           d="M197.59,70.592 C166.008,25.079 120.085,62.731 120.085,62.731 C120.085,62.731 109.302,4.331 55.804,18.723 C2.311,33.111 14.124,131.268 75.373,184.951 C156.801,183.466 229.172,116.106 197.59,70.592"
           fill="#E63B6A"
           id="path28916"
           style="fill:#af5bda;fill-opacity:1" />
        <path
           d="M197.138,70.779 C165.707,25.484 120.002,62.955 120.002,62.955 C120.002,62.955 109.27,4.834 56.027,19.158 C2.789,33.476 14.546,131.166 75.503,184.593 C156.544,183.115 228.57,116.076 197.138,70.779"
           fill="#E63D6B"
           id="path28918"
           style="fill:#af5bda;fill-opacity:1" />
        <path
           d="M196.686,70.967 C165.406,25.888 119.92,63.18 119.92,63.18 C119.92,63.18 109.24,5.338 56.251,19.593 C3.269,33.842 14.969,131.065 75.634,184.236 C156.287,182.765 227.967,116.047 196.686,70.967"
           fill="#E63E6C"
           id="path28920"
           style="fill:#af5bda;fill-opacity:1" />
        <path
           d="M196.235,71.154 C165.106,26.292 119.838,63.405 119.838,63.405 C119.838,63.405 109.209,5.841 56.476,20.027 C3.748,34.208 15.392,130.963 75.765,183.878 C156.029,182.415 227.366,116.018 196.235,71.154"
           fill="#E63F6D"
           id="path28922"
           style="fill:#af5bda;fill-opacity:1" />
        <path
           d="M195.784,71.342 C164.805,26.696 119.756,63.631 119.756,63.631 C119.756,63.631 109.179,6.344 56.7,20.462 C4.227,34.574 15.815,130.862 75.896,183.521 C155.773,182.064 226.764,115.988 195.784,71.342"
           fill="#E63F6D"
           id="path28924"
           style="fill:#af5bda;fill-opacity:1" />
        <path
           d="M195.332,71.528 C164.504,27.1 119.674,63.854 119.674,63.854 C119.674,63.854 109.148,6.846 56.924,20.896 C4.706,34.94 16.238,130.758 76.027,183.162 C155.516,181.713 226.162,115.958 195.332,71.528"
           fill="#E6406E"
           id="path28926"
           style="fill:#af5bda;fill-opacity:1" />
        <path
           d="M194.881,71.715 C164.202,27.504 119.592,64.079 119.592,64.079 C119.592,64.079 109.117,7.349 57.148,21.33 C5.185,35.306 16.66,130.658 76.158,182.805 C155.258,181.363 225.561,115.928 194.881,71.715"
           fill="#E7416E"
           id="path28928"
           style="fill:#af5bda;fill-opacity:1" />
        <path
           d="M194.429,71.903 C163.901,27.908 119.509,64.304 119.509,64.304 C119.509,64.304 109.085,7.852 57.371,21.765 C5.663,35.672 17.082,130.555 76.288,182.447 C155.001,181.012 224.957,115.899 194.429,71.903"
           fill="#E7426F"
           id="path28930"
           style="fill:#af5bda;fill-opacity:1" />
        <path
           d="M193.977,72.09 C163.6,28.313 119.427,64.529 119.427,64.529 C119.427,64.529 109.055,8.355 57.596,22.199 C6.143,36.038 17.505,130.453 76.419,182.09 C154.744,180.662 224.356,115.869 193.977,72.09"
           fill="#E74270"
           id="path28932"
           style="fill:#af5bda;fill-opacity:1" />
        <path
           d="M193.526,72.277 C163.299,28.716 119.345,64.753 119.345,64.753 C119.345,64.753 109.024,8.858 57.82,22.633 C6.622,36.403 17.928,130.352 76.55,181.732 C154.487,180.311 223.754,115.84 193.526,72.277"
           fill="#E74370"
           id="path28934"
           style="fill:#af5bda;fill-opacity:1" />
        <path
           d="M193.074,72.464 C162.998,29.12 119.263,64.978 119.263,64.978 C119.263,64.978 108.993,9.36 58.044,23.068 C7.101,36.769 18.351,130.249 76.681,181.374 C154.23,179.96 223.152,115.81 193.074,72.464"
           fill="#E74471"
           id="path28936"
           style="fill:#af5bda;fill-opacity:1" />
        <path
           d="M192.623,72.652 C162.697,29.526 119.181,65.203 119.181,65.203 C119.181,65.203 108.963,9.864 58.269,23.503 C7.58,37.135 18.774,130.148 76.812,181.017 C153.973,179.61 222.551,115.781 192.623,72.652"
           fill="#E74572"
           id="path28938"
           style="fill:#af5bda;fill-opacity:1" />
        <path
           d="M192.171,72.839 C162.396,29.929 119.098,65.427 119.098,65.427 C119.098,65.427 108.931,10.367 58.492,23.937 C8.058,37.501 19.195,130.046 76.942,180.659 C153.715,179.259 221.947,115.751 192.171,72.839"
           fill="#E74572"
           id="path28940"
           style="fill:#af5bda;fill-opacity:1" />
        <path
           d="M191.719,73.026 C162.094,30.333 119.016,65.652 119.016,65.652 C119.016,65.652 108.901,10.87 58.716,24.371 C8.537,37.867 19.618,129.944 77.073,180.301 C153.458,178.909 221.346,115.721 191.719,73.026"
           fill="#E74673"
           id="path28942"
           style="fill:#af5bda;fill-opacity:1" />
        <path
           d="M191.268,73.214 C161.794,30.738 118.934,65.878 118.934,65.878 C118.934,65.878 108.87,11.373 58.94,24.806 C9.017,38.233 20.041,129.842 77.204,179.944 C153.201,178.559 220.744,115.692 191.268,73.214"
           fill="#E74774"
           id="path28944"
           style="fill:#af5bda;fill-opacity:1" />
        <path
           d="M190.817,73.401 C161.493,31.142 118.852,66.102 118.852,66.102 C118.852,66.102 108.839,11.876 59.165,25.24 C9.496,38.599 20.464,129.741 77.335,179.587 C152.944,178.208 220.142,115.663 190.817,73.401"
           fill="#E74774"
           id="path28946"
           style="fill:#af5bda;fill-opacity:1" />
        <path
           d="M190.365,73.588 C161.192,31.546 118.77,66.326 118.77,66.326 C118.77,66.326 108.808,12.379 59.389,25.674 C9.975,38.964 20.887,129.638 77.466,179.229 C152.687,177.857 219.54,115.632 190.365,73.588"
           fill="#E74875"
           id="path28948"
           style="fill:#af5bda;fill-opacity:1" />
        <path
           d="M189.914,73.775 C160.891,31.949 118.688,66.551 118.688,66.551 C118.688,66.551 108.778,12.881 59.613,26.109 C10.454,39.33 21.31,129.536 77.597,178.871 C152.43,177.506 218.938,115.603 189.914,73.775"
           fill="#E74976"
           id="path28950"
           style="fill:#af5bda;fill-opacity:1" />
        <path
           d="M189.462,73.962 C160.59,32.354 118.606,66.776 118.606,66.776 C118.606,66.776 108.747,13.384 59.837,26.543 C10.933,39.696 21.733,129.435 77.728,178.513 C152.173,177.156 218.336,115.573 189.462,73.962"
           fill="#E74976"
           id="path28952"
           style="fill:#af5bda;fill-opacity:1" />
        <path
           d="M189.01,74.15 C160.288,32.758 118.523,67.001 118.523,67.001 C118.523,67.001 108.716,13.888 60.06,26.978 C11.411,40.062 22.155,129.333 77.858,178.156 C151.915,176.806 217.734,115.544 189.01,74.15"
           fill="#E74B77"
           id="path28954"
           style="fill:#af5bda;fill-opacity:1" />
        <path
           d="M188.559,74.337 C159.987,33.162 118.441,67.226 118.441,67.226 C118.441,67.226 108.685,14.391 60.285,27.413 C11.891,40.428 22.578,129.231 77.989,177.798 C151.658,176.455 217.132,115.514 188.559,74.337"
           fill="#E74C78"
           id="path28956"
           style="fill:#af5bda;fill-opacity:1" />
        <path
           d="M188.107,74.524 C159.687,33.566 118.359,67.45 118.359,67.45 C118.359,67.45 108.654,14.894 60.509,27.846 C12.37,40.794 23,129.128 78.12,177.441 C151.401,176.104 216.53,115.484 188.107,74.524"
           fill="#E74D78"
           id="path28958"
           style="fill:#af5bda;fill-opacity:1" />
        <path
           d="M187.656,74.711 C159.385,33.97 118.277,67.674 118.277,67.674 C118.277,67.674 108.624,15.397 60.733,28.281 C12.849,41.159 23.423,129.027 78.251,177.083 C151.144,175.754 215.928,115.455 187.656,74.711"
           fill="#E74E79"
           id="path28960"
           style="fill:#af5bda;fill-opacity:1" />
        <path
           d="M187.205,74.898 C159.085,34.374 118.195,67.899 118.195,67.899 C118.195,67.899 108.593,15.899 60.957,28.715 C13.328,41.525 23.846,128.925 78.382,176.725 C150.887,175.403 215.326,115.425 187.205,74.898"
           fill="#E74E7A"
           id="path28962"
           style="fill:#af5bda;fill-opacity:1" />
        <path
           d="M186.753,75.086 C158.784,34.779 118.113,68.125 118.113,68.125 C118.113,68.125 108.562,16.403 61.182,29.15 C13.807,41.892 24.269,128.823 78.513,176.368 C150.63,175.053 214.725,115.396 186.753,75.086"
           fill="#E74F7A"
           id="path28964"
           style="fill:#af5bda;fill-opacity:1" />
        <path
           d="M186.301,75.273 C158.482,35.183 118.03,68.349 118.03,68.349 C118.03,68.349 108.53,16.906 61.405,29.585 C14.285,42.257 24.691,128.722 78.643,176.01 C150.372,174.703 214.121,115.366 186.301,75.273"
           fill="#E8507B"
           id="path28966"
           style="fill:#af5bda;fill-opacity:1" />
        <path
           d="M185.849,75.46 C158.181,35.586 117.948,68.573 117.948,68.573 C117.948,68.573 108.5,17.408 61.629,30.019 C14.765,42.623 25.114,128.619 78.774,175.652 C150.115,174.352 213.52,115.336 185.849,75.46"
           fill="#E8507C"
           id="path28968"
           style="fill:#af5bda;fill-opacity:1" />
        <path
           d="M185.398,75.647 C157.88,35.99 117.866,68.798 117.866,68.798 C117.866,68.798 108.469,17.911 61.854,30.453 C15.244,42.989 25.536,128.517 78.905,175.294 C149.858,174.001 212.918,115.306 185.398,75.647"
           fill="#E8517C"
           id="path28970"
           style="fill:#af5bda;fill-opacity:1" />
        <path
           d="M184.947,75.834 C157.579,36.395 117.784,69.023 117.784,69.023 C117.784,69.023 108.439,18.414 62.078,30.887 C15.723,43.355 25.959,128.416 79.036,174.937 C149.601,173.65 212.316,115.277 184.947,75.834"
           fill="#E8527D"
           id="path28972"
           style="fill:#af5bda;fill-opacity:1" />
        <path
           d="M184.495,76.022 C157.278,36.799 117.702,69.248 117.702,69.248 C117.702,69.248 108.408,18.918 62.302,31.322 C16.202,43.721 26.382,128.314 79.167,174.58 C149.344,173.3 211.715,115.248 184.495,76.022"
           fill="#E8537E"
           id="path28974"
           style="fill:#af5bda;fill-opacity:1" />
        <path
           d="M184.044,76.209 C156.978,37.203 117.62,69.473 117.62,69.473 C117.62,69.473 108.377,19.42 62.526,31.756 C16.681,44.086 26.805,128.212 79.298,174.222 C149.087,172.95 211.112,115.218 184.044,76.209"
           fill="#E8537E"
           id="path28976"
           style="fill:#af5bda;fill-opacity:1" />
        <path
           d="M183.592,76.396 C156.675,37.607 117.537,69.697 117.537,69.697 C117.537,69.697 108.345,19.923 62.749,32.19 C17.159,44.452 27.227,128.11 79.428,173.864 C148.829,172.599 210.51,115.188 183.592,76.396"
           fill="#E8547F"
           id="path28978"
           style="fill:#af5bda;fill-opacity:1" />
        <path
           d="M183.14,76.583 C156.375,38.011 117.455,69.921 117.455,69.921 C117.455,69.921 108.315,20.426 62.973,32.625 C17.639,44.818 27.65,128.008 79.559,173.506 C148.572,172.248 209.908,115.158 183.14,76.583"
           fill="#E85580"
           id="path28980"
           style="fill:#af5bda;fill-opacity:1" />
        <path
           d="M182.689,76.771 C156.074,38.416 117.373,70.147 117.373,70.147 C117.373,70.147 108.284,20.929 63.198,33.06 C18.117,45.184 28.072,127.906 79.69,173.149 C148.315,171.898 209.306,115.129 182.689,76.771"
           fill="#E85581"
           id="path28982"
           style="fill:#af5bda;fill-opacity:1" />
        <path
           d="M182.237,76.958 C155.773,38.82 117.291,70.372 117.291,70.372 C117.291,70.372 108.254,21.432 63.422,33.494 C18.596,45.55 28.495,127.805 79.821,172.791 C148.058,171.547 208.704,115.1 182.237,76.958"
           fill="#E85681"
           id="path28984"
           style="fill:#af5bda;fill-opacity:1" />
        <path
           d="M181.786,77.145 C155.472,39.224 117.209,70.596 117.209,70.596 C117.209,70.596 108.223,21.935 63.646,33.929 C19.076,45.916 28.918,127.703 79.953,172.434 C147.801,171.197 208.102,115.07 181.786,77.145"
           fill="#E85782"
           id="path28986"
           style="fill:#af5bda;fill-opacity:1" />
        <path
           d="M181.335,77.332 C155.171,39.627 117.127,70.82 117.127,70.82 C117.127,70.82 108.192,22.437 63.871,34.362 C19.555,46.281 29.341,127.6 80.084,172.075 C147.544,170.846 207.501,115.04 181.335,77.332"
           fill="#E85883"
           id="path28988"
           style="fill:#af5bda;fill-opacity:1" />
        <path
           d="M180.882,77.519 C154.87,40.032 117.045,71.045 117.045,71.045 C117.045,71.045 108.161,22.94 64.094,34.797 C20.033,46.647 29.764,127.498 80.215,171.718 C147.286,170.495 206.898,115.01 180.882,77.519"
           fill="#E85883"
           id="path28990"
           style="fill:#af5bda;fill-opacity:1" />
        <path
           d="M180.431,77.707 C154.568,40.436 116.962,71.27 116.962,71.27 C116.962,71.27 108.13,23.444 64.318,35.231 C20.512,47.014 30.185,127.397 80.345,171.36 C147.029,170.145 206.296,114.981 180.431,77.707"
           fill="#E85984"
           id="path28992"
           style="fill:#af5bda;fill-opacity:1" />
        <path
           d="M179.98,77.894 C154.268,40.84 116.88,71.495 116.88,71.495 C116.88,71.495 108.099,23.947 64.542,35.666 C20.991,47.379 30.608,127.295 80.476,171.003 C146.772,169.794 205.694,114.951 179.98,77.894"
           fill="#E85A85"
           id="path28994"
           style="fill:#af5bda;fill-opacity:1" />
        <path
           d="M179.528,78.081 C153.966,41.244 116.798,71.72 116.798,71.72 C116.798,71.72 108.069,24.45 64.767,36.101 C21.47,47.745 31.031,127.193 80.607,170.645 C146.515,169.444 205.092,114.922 179.528,78.081"
           fill="#E85B86"
           id="path28996"
           style="fill:#af5bda;fill-opacity:1" />
        <path
           d="M179.077,78.268 C153.666,41.648 116.716,71.944 116.716,71.944 C116.716,71.944 108.038,24.953 64.991,36.534 C21.95,48.11 31.454,127.091 80.738,170.287 C146.258,169.093 204.49,114.892 179.077,78.268"
           fill="#E85B86"
           id="path28998"
           style="fill:#af5bda;fill-opacity:1" />
        <path
           d="M178.625,78.455 C153.365,42.052 116.634,72.168 116.634,72.168 C116.634,72.168 108.007,25.455 65.215,36.969 C22.429,48.476 31.877,126.989 80.869,169.929 C146.001,168.743 203.889,114.862 178.625,78.455"
           fill="#E85B87"
           id="path29000"
           style="fill:#af5bda;fill-opacity:1" />
        <path
           d="M178.174,78.643 C153.064,42.456 116.551,72.393 116.551,72.393 C116.551,72.393 107.977,25.959 65.44,37.404 C22.908,48.843 32.3,126.887 81,169.572 C145.743,168.393 203.286,114.832 178.174,78.643"
           fill="#E85C88"
           id="path29002"
           style="fill:#af5bda;fill-opacity:1" />
        <path
           d="M177.722,78.83 C152.762,42.861 116.469,72.619 116.469,72.619 C116.469,72.619 107.945,26.462 65.663,37.838 C23.386,49.208 32.722,126.786 81.13,169.214 C145.486,168.042 202.684,114.803 177.722,78.83"
           fill="#E85C88"
           id="path29004"
           style="fill:#af5bda;fill-opacity:1" />
        <path
           d="M177.27,79.017 C152.461,43.264 116.387,72.843 116.387,72.843 C116.387,72.843 107.915,26.964 65.887,38.272 C23.865,49.574 33.145,126.683 81.261,168.856 C145.229,167.691 202.083,114.773 177.27,79.017"
           fill="#E95D89"
           id="path29006"
           style="fill:#af5bda;fill-opacity:1" />
        <path
           d="M176.819,79.204 C152.16,43.668 116.304,73.067 116.304,73.067 C116.304,73.067 107.884,27.467 66.111,38.706 C24.344,49.94 33.568,126.581 81.392,168.498 C144.972,167.34 201.48,114.743 176.819,79.204"
           fill="#E95E8A"
           id="path29008"
           style="fill:#af5bda;fill-opacity:1" />
        <path
           d="M176.367,79.391 C151.859,44.073 116.222,73.292 116.222,73.292 C116.222,73.292 107.853,27.97 66.335,39.141 C24.824,50.306 33.99,126.479 81.523,168.141 C144.716,166.99 200.879,114.714 176.367,79.391"
           fill="#E95F8B"
           id="path29010"
           style="fill:#af5bda;fill-opacity:1" />
        <path
           d="M175.916,79.579 C151.559,44.477 116.141,73.517 116.141,73.517 C116.141,73.517 107.822,28.474 66.56,39.576 C25.303,50.672 34.413,126.378 81.654,167.784 C144.458,166.64 200.276,114.684 175.916,79.579"
           fill="#E95F8B"
           id="path29012"
           style="fill:#af5bda;fill-opacity:1" />
        <path
           d="M175.465,79.766 C151.257,44.881 116.059,73.742 116.059,73.742 C116.059,73.742 107.792,28.976 66.784,40.01 C25.782,51.037 34.836,126.276 81.785,167.426 C144.201,166.289 199.674,114.655 175.465,79.766"
           fill="#E9608C"
           id="path29014"
           style="fill:#af5bda;fill-opacity:1" />
        <path
           d="M175.012,79.953 C150.956,45.285 115.975,73.966 115.975,73.966 C115.975,73.966 107.76,29.479 67.007,40.444 C26.26,51.403 35.258,126.174 81.915,167.068 C143.944,165.938 199.072,114.625 175.012,79.953"
           fill="#E9618D"
           id="path29016"
           style="fill:#af5bda;fill-opacity:1" />
        <path
           d="M174.561,80.14 C150.655,45.689 115.894,74.191 115.894,74.191 C115.894,74.191 107.729,29.982 67.231,40.878 C26.739,51.769 35.681,126.072 82.046,166.71 C143.686,165.587 198.47,114.595 174.561,80.14"
           fill="#E9618D"
           id="path29018"
           style="fill:#af5bda;fill-opacity:1" />
        <path
           d="M174.11,80.327 C150.354,46.093 115.812,74.415 115.812,74.415 C115.812,74.415 107.699,30.485 67.456,41.313 C27.218,52.135 36.104,125.97 82.177,166.352 C143.429,165.237 197.869,114.565 174.11,80.327"
           fill="#E9628E"
           id="path29020"
           style="fill:#af5bda;fill-opacity:1" />
        <path
           d="M173.658,80.515 C150.053,46.497 115.729,74.64 115.729,74.64 C115.729,74.64 107.668,30.988 67.68,41.747 C27.698,52.501 36.526,125.869 82.308,165.995 C143.173,164.887 197.266,114.536 173.658,80.515"
           fill="#E9638F"
           id="path29022"
           style="fill:#af5bda;fill-opacity:1" />
        <path
           d="M173.207,80.702 C149.752,46.902 115.647,74.866 115.647,74.866 C115.647,74.866 107.638,31.491 67.904,42.182 C28.177,52.867 36.949,125.766 82.439,165.638 C142.915,164.536 196.665,114.507 173.207,80.702"
           fill="#E96490"
           id="path29024"
           style="fill:#af5bda;fill-opacity:1" />
        <path
           d="M172.755,80.889 C149.451,47.305 115.566,75.09 115.566,75.09 C115.566,75.09 107.607,31.993 68.129,42.616 C28.656,53.232 37.372,125.664 82.57,165.28 C142.658,164.185 196.063,114.476 172.755,80.889"
           fill="#E96490"
           id="path29026"
           style="fill:#af5bda;fill-opacity:1" />
        <path
           d="M172.303,81.076 C149.149,47.709 115.483,75.314 115.483,75.314 C115.483,75.314 107.575,32.496 68.352,43.05 C29.134,53.598 37.794,125.562 82.7,164.922 C142.401,163.834 195.46,114.447 172.303,81.076"
           fill="#E96591"
           id="path29028"
           style="fill:#af5bda;fill-opacity:1" />
        <path
           d="M171.852,81.264 C148.849,48.114 115.4,75.539 115.4,75.539 C115.4,75.539 107.544,33 68.576,43.485 C29.613,53.965 38.217,125.461 82.831,164.565 C142.144,163.484 194.858,114.418 171.852,81.264"
           fill="#E96692"
           id="path29030"
           style="fill:#af5bda;fill-opacity:1" />
        <path
           d="M171.4,81.451 C148.547,48.518 115.318,75.764 115.318,75.764 C115.318,75.764 107.514,33.503 68.8,43.92 C30.092,54.33 38.64,125.359 82.962,164.207 C141.887,163.134 194.256,114.388 171.4,81.451"
           fill="#E96793"
           id="path29032"
           style="fill:#af5bda;fill-opacity:1" />
        <path
           d="M170.949,81.638 C148.246,48.922 115.237,75.989 115.237,75.989 C115.237,75.989 107.483,34.006 69.024,44.354 C30.572,54.696 39.062,125.257 83.093,163.849 C141.63,162.783 193.654,114.359 170.949,81.638"
           fill="#E96793"
           id="path29034"
           style="fill:#af5bda;fill-opacity:1" />
        <path
           d="M170.498,81.825 C147.946,49.326 115.154,76.213 115.154,76.213 C115.154,76.213 107.453,34.508 69.248,44.788 C31.051,55.061 39.485,125.155 83.224,163.492 C141.373,162.432 193.053,114.328 170.498,81.825"
           fill="#E96894"
           id="path29036"
           style="fill:#af5bda;fill-opacity:1" />
        <path
           d="M170.046,82.012 C147.645,49.73 115.071,76.438 115.071,76.438 C115.071,76.438 107.422,35.012 69.472,45.222 C31.529,55.428 39.907,125.053 83.354,163.134 C141.115,162.081 192.451,114.299 170.046,82.012"
           fill="#EA6995"
           id="path29038"
           style="fill:#af5bda;fill-opacity:1" />
        <path
           d="M169.594,82.2 C147.343,50.135 114.99,76.663 114.99,76.663 C114.99,76.663 107.39,35.515 69.696,45.657 C32.008,55.794 40.33,124.951 83.485,162.777 C140.858,161.732 191.848,114.269 169.594,82.2"
           fill="#EA6A96"
           id="path29040"
           style="fill:#af5bda;fill-opacity:1" />
        <path
           d="M169.142,82.387 C147.042,50.538 114.907,76.887 114.907,76.887 C114.907,76.887 107.36,36.018 69.92,46.092 C32.487,56.159 40.753,124.849 83.616,162.419 C140.6,161.381 191.246,114.24 169.142,82.387"
           fill="#EA6A97"
           id="path29042"
           style="fill:#af5bda;fill-opacity:1" />
        <path
           d="M168.691,82.574 C146.741,50.943 114.825,77.113 114.825,77.113 C114.825,77.113 107.329,36.521 70.145,46.526 C32.966,56.526 41.176,124.747 83.747,162.061 C140.344,161.031 190.644,114.21 168.691,82.574"
           fill="#EA6B97"
           id="path29044"
           style="fill:#af5bda;fill-opacity:1" />
        <path
           d="M168.24,82.761 C146.44,51.346 114.743,77.337 114.743,77.337 C114.743,77.337 107.298,37.023 70.369,46.96 C33.446,56.891 41.598,124.645 83.878,161.703 C140.087,160.679 190.043,114.18 168.24,82.761"
           fill="#EA6C98"
           id="path29046"
           style="fill:#af5bda;fill-opacity:1" />
        <path
           d="M167.788,82.948 C146.139,51.75 114.661,77.561 114.661,77.561 C114.661,77.561 107.267,37.526 70.593,47.394 C33.924,57.257 42.021,124.543 84.009,161.345 C139.829,160.329 189.44,114.151 167.788,82.948"
           fill="#EA6C99"
           id="path29048"
           style="fill:#af5bda;fill-opacity:1" />
        <path
           d="M167.337,83.136 C145.838,52.155 114.579,77.786 114.579,77.786 C114.579,77.786 107.237,38.03 70.817,47.829 C34.404,57.623 42.444,124.442 84.14,160.988 C139.573,159.979 188.839,114.121 167.337,83.136"
           fill="#EA6D9A"
           id="path29050"
           style="fill:#af5bda;fill-opacity:1" />
        <path
           d="M166.885,83.323 C145.537,52.559 114.497,78.011 114.497,78.011 C114.497,78.011 107.206,38.532 71.041,48.263 C34.883,57.989 42.866,124.34 84.271,160.631 C139.315,159.628 188.237,114.092 166.885,83.323"
           fill="#EA6E9B"
           id="path29052"
           style="fill:#af5bda;fill-opacity:1" />
        <path
           d="M166.433,83.51 C145.236,52.963 114.414,78.236 114.414,78.236 C114.414,78.236 107.175,39.035 71.265,48.698 C35.361,58.355 43.289,124.238 84.401,160.273 C139.058,159.278 187.634,114.062 166.433,83.51"
           fill="#EA6E9C"
           id="path29054"
           style="fill:#af5bda;fill-opacity:1" />
        <path
           d="M165.982,83.697 C144.935,53.367 114.332,78.46 114.332,78.46 C114.332,78.46 107.144,39.538 71.489,49.132 C35.84,58.72 43.712,124.135 84.532,159.915 C138.801,158.926 187.033,114.032 165.982,83.697"
           fill="#EA6E9C"
           id="path29056"
           style="fill:#af5bda;fill-opacity:1" />
        <path
           d="M165.53,83.884 C144.634,53.771 114.25,78.685 114.25,78.685 C114.25,78.685 107.113,40.041 71.713,49.566 C36.319,59.086 44.134,124.033 84.663,159.557 C138.543,158.576 186.43,114.002 165.53,83.884"
           fill="#EA6F9D"
           id="path29058"
           style="fill:#af5bda;fill-opacity:1" />
        <path
           d="M165.079,84.072 C144.333,54.176 114.168,78.91 114.168,78.91 C114.168,78.91 107.082,40.544 71.937,50.001 C36.799,59.452 44.558,123.932 84.794,159.2 C138.287,158.226 185.829,113.973 165.079,84.072"
           fill="#EA709E"
           id="path29060"
           style="fill:#af5bda;fill-opacity:1" />
        <path
           d="M164.627,84.259 C144.032,54.579 114.086,79.134 114.086,79.134 C114.086,79.134 107.051,41.047 72.161,50.436 C37.277,59.818 44.98,123.83 84.925,158.842 C138.029,157.875 185.226,113.944 164.627,84.259"
           fill="#EA709E"
           id="path29062"
           style="fill:#af5bda;fill-opacity:1" />
        <path
           d="M164.176,84.446 C143.731,54.983 114.004,79.359 114.004,79.359 C114.004,79.359 107.021,41.55 72.385,50.869 C37.756,60.183 45.403,123.728 85.056,158.484 C137.772,157.524 184.625,113.913 164.176,84.446"
           fill="#EA719F"
           id="path29064"
           style="fill:#af5bda;fill-opacity:1" />
        <path
           d="M163.724,84.633 C143.43,55.387 113.921,79.584 113.921,79.584 C113.921,79.584 106.99,42.052 72.609,51.304 C38.235,60.549 45.825,123.626 85.186,158.126 C137.515,157.174 184.022,113.884 163.724,84.633"
           fill="#EB72A0"
           id="path29066"
           style="fill:#af5bda;fill-opacity:1" />
        <path
           d="M163.273,84.821 C143.129,55.792 113.84,79.809 113.84,79.809 C113.84,79.809 106.96,42.556 72.834,51.739 C38.714,60.916 46.248,123.525 85.318,157.77 C137.258,156.824 183.421,113.854 163.273,84.821"
           fill="#EB73A1"
           id="path29068"
           style="fill:#af5bda;fill-opacity:1" />
        <path
           d="M162.821,85.008 C142.827,56.196 113.757,80.033 113.757,80.033 C113.757,80.033 106.928,43.059 73.058,52.173 C39.193,61.281 46.671,123.423 85.448,157.411 C137.001,156.473 182.819,113.825 162.821,85.008"
           fill="#EB73A1"
           id="path29070"
           style="fill:#af5bda;fill-opacity:1" />
        <path
           d="M162.37,85.195 C142.527,56.6 113.675,80.258 113.675,80.258 C113.675,80.258 106.898,43.562 73.282,52.608 C39.672,61.647 47.094,123.321 85.579,157.054 C136.744,156.122 182.217,113.796 162.37,85.195"
           fill="#EB74A2"
           id="path29072"
           style="fill:#af5bda;fill-opacity:1" />
        <path
           d="M161.918,85.382 C142.225,57.004 113.593,80.482 113.593,80.482 C113.593,80.482 106.867,44.064 73.506,53.041 C40.151,62.013 47.516,123.218 85.71,156.695 C136.486,155.771 181.615,113.765 161.918,85.382"
           fill="#EB75A3"
           id="path29074"
           style="fill:#af5bda;fill-opacity:1" />
        <path
           d="M161.466,85.569 C141.924,57.408 113.51,80.707 113.51,80.707 C113.51,80.707 106.835,44.567 73.73,53.476 C40.63,62.379 47.938,123.116 85.841,156.338 C136.229,155.421 181.012,113.736 161.466,85.569"
           fill="#EB76A4"
           id="path29076"
           style="fill:#af5bda;fill-opacity:1" />
        <path
           d="M161.015,85.756 C141.623,57.812 113.429,80.932 113.429,80.932 C113.429,80.932 106.805,45.07 73.954,53.91 C41.109,62.744 48.362,123.015 85.972,155.98 C135.973,155.07 180.411,113.706 161.015,85.756"
           fill="#EB76A5"
           id="path29078"
           style="fill:#af5bda;fill-opacity:1" />
        <path
           d="M160.564,85.944 C141.323,58.216 113.347,81.157 113.347,81.157 C113.347,81.157 106.774,45.574 74.179,54.345 C41.588,63.111 48.784,122.913 86.103,155.623 C135.715,154.72 179.809,113.677 160.564,85.944"
           fill="#EB77A6"
           id="path29080"
           style="fill:#af5bda;fill-opacity:1" />
        <path
           d="M160.112,86.131 C141.021,58.621 113.264,81.381 113.264,81.381 C113.264,81.381 106.743,46.077 74.403,54.779 C42.067,63.477 49.207,122.811 86.234,155.265 C135.458,154.37 179.207,113.647 160.112,86.131"
           fill="#EB78A7"
           id="path29082"
           style="fill:#af5bda;fill-opacity:1" />
        <path
           d="M159.66,86.318 C140.72,59.024 113.181,81.606 113.181,81.606 C113.181,81.606 106.712,46.579 74.626,55.214 C42.546,63.842 49.629,122.709 86.364,154.907 C135.201,154.019 178.605,113.617 159.66,86.318"
           fill="#EB78A7"
           id="path29084"
           style="fill:#af5bda;fill-opacity:1" />
        <path
           d="M159.209,86.506 C140.419,59.428 113.1,81.831 113.1,81.831 C113.1,81.831 106.682,47.082 74.851,55.648 C43.025,64.208 50.052,122.607 86.496,154.549 C134.944,153.669 178.003,113.589 159.209,86.506"
           fill="#EB79A8"
           id="path29086"
           style="fill:#af5bda;fill-opacity:1" />
        <path
           d="M158.758,86.693 C140.117,59.833 113.018,82.056 113.018,82.056 C113.018,82.056 106.651,47.586 75.075,56.083 C43.505,64.574 50.474,122.506 86.627,154.193 C134.686,153.318 177.402,113.558 158.758,86.693"
           fill="#EB7AA9"
           id="path29088"
           style="fill:#af5bda;fill-opacity:1" />
        <path
           d="M158.306,86.88 C139.817,60.237 112.935,82.28 112.935,82.28 C112.935,82.28 106.62,48.088 75.299,56.517 C43.983,64.94 50.898,122.403 86.757,153.835 C134.43,152.967 176.799,113.528 158.306,86.88"
           fill="#EB7BAA"
           id="path29090"
           style="fill:#af5bda;fill-opacity:1" />
        <path
           d="M157.854,87.067 C139.516,60.641 112.853,82.505 112.853,82.505 C112.853,82.505 106.589,48.591 75.522,56.951 C44.462,65.306 51.32,122.302 86.888,153.477 C134.172,152.617 176.197,113.499 157.854,87.067"
           fill="#EB7BAA"
           id="path29092"
           style="fill:#af5bda;fill-opacity:1" />
        <path
           d="M157.402,87.255 C139.214,61.046 112.771,82.73 112.771,82.73 C112.771,82.73 106.558,49.095 75.746,57.386 C44.941,65.672 51.742,122.2 87.019,153.12 C133.915,152.267 175.594,113.47 157.402,87.255"
           fill="#EB7CAB"
           id="path29094"
           style="fill:#af5bda;fill-opacity:1" />
        <path
           d="M156.951,87.442 C138.913,61.45 112.689,82.955 112.689,82.955 C112.689,82.955 106.527,49.598 75.971,57.821 C45.42,66.038 52.165,122.098 87.149,152.762 C133.658,151.916 174.993,113.44 156.951,87.442"
           fill="#EB7DAC"
           id="path29096"
           style="fill:#af5bda;fill-opacity:1" />
        <path
           d="M156.5,87.629 C138.613,61.853 112.607,83.179 112.607,83.179 C112.607,83.179 106.497,50.1 76.195,58.254 C45.899,66.403 52.588,121.996 87.281,152.404 C133.401,151.565 174.391,113.41 156.5,87.629"
           fill="#EB7DAC"
           id="path29098"
           style="fill:#af5bda;fill-opacity:1" />
        <path
           transform="matrix(1.0968239,0,0,1.1828229,-10.329286,-18.941358)"
           inkscape:connector-curvature="0"
           style="fill:#b87aeb;fill-opacity:1;filter:url(#filter30754)"
           id="path30758"
           d="m 87.411,152.047 c 45.732,-0.832 86.377,-38.666 68.637,-64.23 -17.737,-25.559 -43.524,-4.413 -43.524,-4.413 0,0 -6.058,-32.8 -36.105,-24.714 -30.041,8.08 -23.408,63.205 10.992,93.357" />
        <path
           d="M87.411,152.047 C133.143,151.215 173.788,113.381 156.048,87.817 C138.311,62.258 112.524,83.404 112.524,83.404 C112.524,83.404 106.466,50.604 76.419,58.69 C46.378,66.77 53.011,121.895 87.411,152.047"
           fill="#EC7DAD"
           id="path29100"
           style="fill:#ba7dec;fill-opacity:1;filter:url(#filter30754)" />
        <g
           clip-path="url(#Clip_1)"
           opacity="0.5"
           id="g29102"
           style="fill:#af5bda;fill-opacity:1">
          <path
             d="M48.048,20.105 C48.048,20.105 85.671,3.728 90.347,42.476 C94.384,75.921 40.683,57.523 37.911,82.589 C35.14,107.65 63.663,161.609 63.663,161.609 C63.663,161.609 -22.716,65.334 48.048,20.105"
             fill="#FEFEFE"
             id="path29104"
             style="fill:#af5bda;fill-opacity:1" />
        </g>
        <path
           style="fill:url(#linearGradient29666);fill-opacity:1;fill-rule:evenodd;stroke:none;stroke-width:1px;stroke-linecap:butt;stroke-linejoin:miter;stroke-opacity:1"
           d="M 70.092996,194.6502 54.081906,178.63911 35.697867,152.23982 23.127131,128.82683 16.334351,108.4171 12.45307,90.400207 10.318258,58.733828 14.587882,38.097312 25.261943,19.951409 38.426617,9.6331507 49.100678,5.3635266 67.602382,2.5171105 86.815691,6.7867346 104.24999,19.595607 114.56825,36.674104 122.39589,56.599016 87.171493,183.62033 Z"
           id="path29658"
           inkscape:connector-curvature="0"
           sodipodi:nodetypes="cccccccccccccccccc" />
        <g
           clip-path="url(#Clip_2)"
           opacity="0.6"
           id="g29106"
           style="">
          <path
             d="M93.986,65.252 C89.574,77.316 76.384,83.58 64.525,79.244 C52.672,74.902 46.636,61.607 51.054,49.543 C55.461,37.479 68.656,31.215 80.509,35.551 C92.369,39.887 98.398,53.188 93.986,65.252"
             fill="#FEFEFE"
             id="path29108" />
        </g>
        <g
           clip-path="url(#Clip_3)"
           opacity="0.6"
           id="g29110"
           style="">
          <path
             d="M77.357,97.701 C76.074,101.217 72.183,103.021 68.668,101.738 C65.158,100.455 63.353,96.564 64.636,93.049 C65.919,89.539 69.81,87.728 73.326,89.017 C76.836,90.301 78.646,94.191 77.357,97.701"
             fill="#FEFEFE"
             id="path29112" />
        </g>
        <path
           sodipodi:nodetypes="ccccccccccccccccccc"
           inkscape:connector-curvature="0"
           id="path29668"
           d="m 69.65861,196.07298 22.607803,-1.28156 31.300847,-7.52995 24.97668,-9.20142 18.66761,-10.83621 14.90224,-10.9952 22.69812,-22.4926 10.57201,-18.4838 4.13757,-20.92947 -2.93651,-16.696062 -5.11142,-10.440943 -11.89533,-14.655247 -9.29464,-7.202207 -8.94168,-3.978435 -20.11119,-1.389083 -19.07537,5.579898 -19.47171,10.837802 -58.404898,119.815497 z"
           style="fill:url(#linearGradient29670);fill-opacity:1;fill-rule:evenodd;stroke:none;stroke-width:1px;stroke-linecap:butt;stroke-linejoin:miter;stroke-opacity:1" />
        <g
           transform="translate(660.18372,-4.4870833)"
           id="レイヤー_1-0">
          <g
             id="g30207">
            <g
               transform="translate(-657.35439,2.8580626)"
               style="opacity:0.5"
               clip-path="url(#Clip_1-8)"
               id="g30499">
              <path
                 style="fill:#fefefe"
                 inkscape:connector-curvature="0"
                 d="m 48.048,20.105 c 0,0 37.623,-16.377 42.299,22.371 4.037,33.445 -49.664,15.047 -52.436,40.113 -2.771,25.061 25.752,79.02 25.752,79.02 0,0 -86.379,-96.275 -15.615,-141.504"
                 id="path30501" />
            </g>
          </g>
        </g>
      </g>
    </g>
  </g>
</svg>
