<?xml version="1.0" encoding="UTF-8" standalone="no"?>
<!-- Created with Inkscape (http://www.inkscape.org/) -->

<svg
   xmlns:dc="http://purl.org/dc/elements/1.1/"
   xmlns:cc="http://creativecommons.org/ns#"
   xmlns:rdf="http://www.w3.org/1999/02/22-rdf-syntax-ns#"
   xmlns:svg="http://www.w3.org/2000/svg"
   xmlns="http://www.w3.org/2000/svg"
   xmlns:sodipodi="http://sodipodi.sourceforge.net/DTD/sodipodi-0.dtd"
   xmlns:inkscape="http://www.inkscape.org/namespaces/inkscape"
   id="svg2"
   version="1.1"
   inkscape:version="0.92.2 5c3e80d, 2017-08-06"
   xml:space="preserve"
   width="228.31186"
   height="241.96716"
   viewBox="0 0 228.31186 241.96716"
   sodipodi:docname="christmasCraft_banner copy.svg"
   inkscape:export-filename="/Users/Jess/Desktop/christmasCraft_banner.png"
   inkscape:export-xdpi="90"
   inkscape:export-ydpi="90"><metadata
     id="metadata8"><rdf:RDF><cc:Work
         rdf:about=""><dc:format>image/svg+xml</dc:format><dc:type
           rdf:resource="http://purl.org/dc/dcmitype/StillImage" /><dc:title></dc:title></cc:Work></rdf:RDF></metadata><defs
     id="defs6"><clipPath
       clipPathUnits="userSpaceOnUse"
       id="clipPath18"><path
         d="M 0,0.031 H 612.293 V 861.676 L 0,861.676 Z"
         id="path20"
         inkscape:connector-curvature="0" /></clipPath><clipPath
       clipPathUnits="userSpaceOnUse"
       id="clipPath114"><path
         d="M 0,0.031 H 612.293 V 861.676 L 0,861.676 Z"
         id="path116"
         inkscape:connector-curvature="0" /></clipPath><clipPath
       clipPathUnits="userSpaceOnUse"
       id="clipPath162"><path
         d="M 0,861.676 H 612.293 V 0 H 0 Z"
         id="path164"
         inkscape:connector-curvature="0" /></clipPath><clipPath
       clipPathUnits="userSpaceOnUse"
       id="clipPath182"><path
         d="M 0,861.676 H 612.293 V 0 H 0 Z"
         id="path184"
         inkscape:connector-curvature="0" /></clipPath><clipPath
       clipPathUnits="userSpaceOnUse"
       id="clipPath200"><path
         d="M 0,861.676 H 612.293 V 0 H 0 Z"
         id="path202"
         inkscape:connector-curvature="0" /></clipPath><clipPath
       clipPathUnits="userSpaceOnUse"
       id="clipPath228"><path
         d="M 0,861.676 H 612.293 V 0 H 0 Z"
         id="path230"
         inkscape:connector-curvature="0" /></clipPath><clipPath
       clipPathUnits="userSpaceOnUse"
       id="clipPath114-6"><path
         d="M 0,0.031 H 612.293 V 861.676 L 0,861.676 Z"
         id="path116-4"
         inkscape:connector-curvature="0" /></clipPath><clipPath
       clipPathUnits="userSpaceOnUse"
       id="clipPath18-5"><path
         d="M 0,0.031 H 612.293 V 861.676 L 0,861.676 Z"
         id="path20-0"
         inkscape:connector-curvature="0" /></clipPath><filter
       inkscape:collect="always"
       style="color-interpolation-filters:sRGB"
       id="filter1501"
       x="-0.11195289"
       width="1.2239058"
       y="-0.10431673"
       height="1.2086335"><feGaussianBlur
         inkscape:collect="always"
         stdDeviation="8.7017086"
         id="feGaussianBlur1503" /></filter></defs><sodipodi:namedview
     pagecolor="#757575"
     bordercolor="#666666"
     borderopacity="1"
     objecttolerance="10"
     gridtolerance="10"
     guidetolerance="10"
     inkscape:pageopacity="0"
     inkscape:pageshadow="2"
     inkscape:window-width="1440"
     inkscape:window-height="878"
     id="namedview4"
     showgrid="false"
     inkscape:zoom="1.1065637"
     inkscape:cx="78.279346"
     inkscape:cy="29.855399"
     inkscape:window-x="0"
     inkscape:window-y="0"
     inkscape:window-maximized="1"
     inkscape:current-layer="layer1"
     borderlayer="true"
     fit-margin-top="0"
     fit-margin-left="0"
     fit-margin-right="0"
     fit-margin-bottom="0"
     showguides="false"
     inkscape:pagecheckerboard="true" /><g
     id="g10"
     inkscape:groupmode="layer"
     inkscape:label="81615-OGDHJN-119"
     transform="matrix(1.25,0,0,-1.25,-280.68455,320.70918)" /><g
     inkscape:groupmode="layer"
     id="layer1"
     inkscape:label="content"
     transform="translate(-280.68455,-756.38578)"><path
       sodipodi:nodetypes="ccccccc"
       inkscape:connector-curvature="0"
       id="path1491"
       d="m 332.249,779.74796 c -15.42137,7.15905 -12.53625,30.59239 -5.83978,42.54458 -27.70042,30.0553 -32.76632,74.33632 -12.50976,109.34766 25.64971,44.21616 82.66748,58.99703 127.35156,33.01367 44.68332,-25.98257 60.11287,-82.8887 34.46289,-127.10351 -20.49485,-35.29993 -61.93994,-52.83222 -102.01367,-43.1543 -12.80098,-15.32008 -28.51561,-20.80847 -41.45124,-14.6481 z"
       style="color:#000000;clip-rule:nonzero;display:inline;overflow:visible;visibility:visible;opacity:0.79000005;isolation:auto;mix-blend-mode:normal;color-interpolation:sRGB;color-interpolation-filters:linearRGB;solid-color:#000000;solid-opacity:1;fill:#000000;fill-opacity:1;fill-rule:nonzero;stroke:none;stroke-width:3.55829382;stroke-linecap:butt;stroke-linejoin:miter;stroke-miterlimit:4;stroke-dasharray:none;stroke-dashoffset:0;stroke-opacity:1;filter:url(#filter1501);color-rendering:auto;image-rendering:auto;shape-rendering:auto;text-rendering:auto;enable-background:accumulate" /><path
       style="color:#000000;clip-rule:nonzero;display:inline;overflow:visible;visibility:visible;opacity:1;isolation:auto;mix-blend-mode:normal;color-interpolation:sRGB;color-interpolation-filters:linearRGB;solid-color:#000000;solid-opacity:1;fill:#ffffff;fill-opacity:1;fill-rule:nonzero;stroke:none;stroke-width:3.55829382;stroke-linecap:butt;stroke-linejoin:miter;stroke-miterlimit:4;stroke-dasharray:none;stroke-dashoffset:0;stroke-opacity:1;color-rendering:auto;image-rendering:auto;shape-rendering:auto;text-rendering:auto;enable-background:accumulate"
       d="m 321.13674,771.02664 c -15.42137,7.15905 -12.53625,30.59239 -5.83978,42.54458 -27.70042,30.0553 -32.76632,74.33632 -12.50976,109.34766 25.64971,44.21616 82.66748,58.99703 127.35156,33.01367 44.68332,-25.98257 60.11287,-82.8887 34.46289,-127.10351 -20.49485,-35.29993 -61.93994,-52.83222 -102.01367,-43.1543 -12.80098,-15.32008 -28.51561,-20.80847 -41.45124,-14.6481 z"
       id="path7095-9"
       inkscape:connector-curvature="0"
       sodipodi:nodetypes="ccccccc" /><path
       style="color:#000000;clip-rule:nonzero;display:inline;overflow:visible;visibility:visible;opacity:1;isolation:auto;mix-blend-mode:normal;color-interpolation:sRGB;color-interpolation-filters:linearRGB;solid-color:#000000;solid-opacity:1;fill:#000000;fill-opacity:0;fill-rule:nonzero;stroke:#f8ae0a;stroke-width:3.30170274;stroke-linecap:butt;stroke-linejoin:miter;stroke-miterlimit:4;stroke-dasharray:none;stroke-dashoffset:0;stroke-opacity:1;color-rendering:auto;image-rendering:auto;shape-rendering:auto;text-rendering:auto;enable-background:accumulate"
       d="m 318.95353,801.20457 c -0.52601,-5.17264 -3.19254,-18.05898 6.44146,-23.58712 9.64109,-5.53221 22.80976,3.34266 25.37193,7.70083"
       id="path7095"
       inkscape:connector-curvature="0"
       sodipodi:nodetypes="csc" /><path
       transform="rotate(-30.145654)"
       style="color:#000000;clip-rule:nonzero;display:inline;overflow:visible;visibility:visible;opacity:1;isolation:auto;mix-blend-mode:normal;color-interpolation:sRGB;color-interpolation-filters:linearRGB;solid-color:#000000;solid-opacity:1;fill:#800080;fill-opacity:1;fill-rule:nonzero;stroke:none;stroke-width:3.44640851;stroke-linecap:butt;stroke-linejoin:miter;stroke-miterlimit:4;stroke-dasharray:none;stroke-dashoffset:0;stroke-opacity:1;color-rendering:auto;image-rendering:auto;shape-rendering:auto;text-rendering:auto;enable-background:accumulate"
       d="m -115.11934,847.02069 h 10.83507 c 9.049988,0 16.335719,7.28573 16.335719,16.33572 v 12.5084 l -42.743839,-0.86338 v -12.5084 c 0,-9.04999 6.52306,-15.47234 15.57305,-15.47234 z"
       id="rect7093"
       inkscape:connector-curvature="0"
       sodipodi:nodetypes="sssccss" /><circle
       style="color:#000000;clip-rule:nonzero;display:inline;overflow:visible;visibility:visible;opacity:1;isolation:auto;mix-blend-mode:normal;color-interpolation:sRGB;color-interpolation-filters:linearRGB;solid-color:#000000;solid-opacity:1;fill:#faca05;fill-opacity:1;fill-rule:nonzero;stroke:none;stroke-width:3.44640851;stroke-linecap:butt;stroke-linejoin:miter;stroke-miterlimit:4;stroke-dasharray:none;stroke-dashoffset:0;stroke-opacity:1;color-rendering:auto;image-rendering:auto;shape-rendering:auto;text-rendering:auto;enable-background:accumulate"
       id="path7091"
       cx="-108.37706"
       cy="948.4845"
       transform="rotate(-30.145654)"
       r="82.829704" /><path
       style="fill:#f8ae0a;fill-opacity:1;stroke:none;stroke-width:1.04540217px;stroke-linecap:butt;stroke-linejoin:miter;stroke-opacity:1"
       d="m 401.16992,85.833984 c -1.36453,-0.01139 -2.74773,0.234705 -4.09765,0.435547 -6.26676,1.585788 -13.23814,5.035572 -18.06446,8.509766 -1.57808,1.19555 -3.08743,2.568419 -4.08984,4.255859 -0.63165,1.063324 -1.16562,2.842804 -1.53906,4.294924 l -0.93946,0.20703 c 0,0 0.0821,3.1028 0.34375,4.62695 0.2992,1.74265 1.39258,5.11914 1.39258,5.11914 0,0 0.56298,-4.13903 1.50195,-7.55078 l 3.33008,0.17578 5.79492,-7.855466 h 9.54297 l 5.45508,-7.527343 h 10.22461 c 0,0 -2.11626,-2.162826 -3.4082,-2.947266 -1.24838,-0.75799 -2.63321,-1.402089 -4.08985,-1.636719 -0.44906,-0.07234 -0.90257,-0.103623 -1.35742,-0.107422 z"
       transform="translate(-55.267492,696.09466)"
       id="path1484"
       inkscape:connector-curvature="0"
       sodipodi:nodetypes="ccccccccccccccscc" /><path
       style="fill:#ffffff;fill-opacity:1;stroke:#fffefe;stroke-width:1px;stroke-linecap:butt;stroke-linejoin:miter;stroke-opacity:1"
       d="m 396.58177,804.97651 c 0,0 17.64684,3.43262 23.49616,6.32589 5.84932,2.89327 8.29118,6.00171 11.74808,9.03699 3.4569,3.03528 6.58523,5.52084 9.03699,9.03698 2.45176,3.51614 5.42219,11.74809 5.42219,11.74809 0,0 -5.40872,-3.92068 -8.13329,-6.32589 -2.72457,-2.40521 -4.689,-4.94377 -8.13328,-8.13329 -3.44428,-3.18952 -7.11506,-7.09897 -12.65178,-10.84438 -5.53672,-3.74541 -20.78507,-10.84439 -20.78507,-10.84439 z"
       id="path1489"
       inkscape:connector-curvature="0"
       sodipodi:nodetypes="czzzczzzc" /><path
       sodipodi:nodetypes="czzzczzzc"
       inkscape:connector-curvature="0"
       id="path1505"
       d="m 391.3709,949.65594 c 0,0 -11.37018,2.16236 -16.5622,2.53878 -5.19203,0.37641 -9.82458,-1.17809 -13.43346,-2.22502 -3.60888,-1.04692 -6.77595,-2.71007 -9.85124,-4.43371 -3.0753,-1.72364 -8.30364,-6.67017 -8.30364,-6.67017 0,0 4.42949,2.17157 7.27874,3.00602 2.84926,0.83446 7.69304,4.04825 11.35129,4.30665 3.65825,0.2584 5.26489,1.63807 10.62289,2.51178 5.35799,0.87372 18.89762,0.96567 18.89762,0.96567 z"
       style="fill:#ffffff;fill-opacity:1;stroke:#fffefe;stroke-width:0.79792655px;stroke-linecap:butt;stroke-linejoin:miter;stroke-opacity:1" /></g></svg>