<?xml version="1.0" encoding="UTF-8" standalone="no"?>
<!-- Created with Inkscape (http://www.inkscape.org/) -->

<svg
   xmlns:dc="http://purl.org/dc/elements/1.1/"
   xmlns:cc="http://creativecommons.org/ns#"
   xmlns:rdf="http://www.w3.org/1999/02/22-rdf-syntax-ns#"
   xmlns:svg="http://www.w3.org/2000/svg"
   xmlns="http://www.w3.org/2000/svg"
   xmlns:xlink="http://www.w3.org/1999/xlink"
   xmlns:sodipodi="http://sodipodi.sourceforge.net/DTD/sodipodi-0.dtd"
   xmlns:inkscape="http://www.inkscape.org/namespaces/inkscape"
   id="svg3029"
   viewBox="0 0 672.61385 624.10824"
   version="1.1"
   inkscape:version="0.92.1 r15371"
   sodipodi:docname="vomitsmiley.svg"
   width="717.45483"
   height="665.71545">
  <sodipodi:namedview
     pagecolor="#ffffff"
     bordercolor="#666666"
     borderopacity="1"
     objecttolerance="10"
     gridtolerance="10"
     guidetolerance="10"
     inkscape:pageopacity="0"
     inkscape:pageshadow="2"
     inkscape:window-width="1366"
     inkscape:window-height="706"
     id="namedview7980"
     showgrid="false"
     fit-margin-top="0"
     fit-margin-left="0"
     fit-margin-right="0"
     fit-margin-bottom="0"
     inkscape:zoom="0.66449955"
     inkscape:cx="321.26782"
     inkscape:cy="427.41125"
     inkscape:window-x="-8"
     inkscape:window-y="-8"
     inkscape:window-maximized="1"
     inkscape:current-layer="g8579" />
  <defs
     id="defs3">
    <linearGradient
       id="linearGradient4502">
      <stop
         id="stop4504"
         style="stop-color:#ffffff;stop-opacity:0"
         offset="0" />
      <stop
         id="stop4506"
         style="stop-color:#808080"
         offset="1" />
    </linearGradient>
    <linearGradient
       id="linearGradient4490">
      <stop
         id="stop4492"
         style="stop-color:#ffffff"
         offset="0" />
      <stop
         id="stop4494"
         style="stop-color:#ffffff;stop-opacity:0"
         offset="1" />
    </linearGradient>
    <radialGradient
       id="radialGradient4462"
       gradientUnits="userSpaceOnUse"
       cy="199.28"
       cx="201.34"
       gradientTransform="matrix(0.30165,0.82231,-0.87676,0.32162,356.84,-43.008)"
       r="172.86">
      <stop
         id="stop4458"
         style="stop-color:#ffaa00;stop-opacity:0"
         offset="0" />
      <stop
         id="stop4460"
         style="stop-color:#ff8400"
         offset="1" />
    </radialGradient>
    <radialGradient
       id="radialGradient4517"
       xlink:href="#linearGradient4502"
       gradientUnits="userSpaceOnUse"
       cy="182.50999"
       cx="374.42001"
       gradientTransform="matrix(0.49207,2.1231,-1.6164,0.073833,485.19,-625.89)"
       r="40.356998" />
    <linearGradient
       id="linearGradient4519"
       y2="248.41"
       xlink:href="#linearGradient4490"
       gradientUnits="userSpaceOnUse"
       x2="387.10999"
       y1="90.082001"
       x1="370.22" />
    <filter
       id="filter4610"
       height="1.2881"
       width="1.2876"
       y="-0.14407"
       x="-0.14382"
       style="color-interpolation-filters:sRGB">
      <feGaussianBlur
         id="feGaussianBlur4612"
         stdDeviation="4.8463161" />
    </filter>
    <linearGradient
       id="linearGradient4712"
       y2="399.51001"
       gradientUnits="userSpaceOnUse"
       x2="455"
       gradientTransform="matrix(1.2184,0,0,0.54762517,-305.75833,122.9429)"
       y1="353.07999"
       x1="455">
      <stop
         id="stop4708"
         style="stop-color:#800000"
         offset="0" />
      <stop
         id="stop4710"
         style="stop-color:#800000;stop-opacity:0"
         offset="1" />
    </linearGradient>
    <linearGradient
       id="linearGradient4995"
       y2="330.92999"
       gradientUnits="userSpaceOnUse"
       x2="262.14001"
       gradientTransform="matrix(0.91796,0,0,0.96752,23.512,-0.37902)"
       y1="-34.780998"
       x1="173.57001">
      <stop
         id="stop4739"
         style="stop-color:#ffffff"
         offset="0" />
      <stop
         id="stop4741"
         style="stop-color:#ffffff;stop-opacity:0"
         offset="1" />
    </linearGradient>
    <linearGradient
       id="linearGradient5011"
       y2="79.504997"
       gradientUnits="userSpaceOnUse"
       x2="342.14001"
       y1="72.362"
       x1="332.14001">
      <stop
         id="stop5007"
         style="stop-color:#cccccc"
         offset="0" />
      <stop
         id="stop5009"
         style="stop-color:#cccccc;stop-opacity:0"
         offset="1" />
    </linearGradient>
    <linearGradient
       id="linearGradient5037"
       y2="58.076"
       gradientUnits="userSpaceOnUse"
       x2="300.70999"
       y1="71.648003"
       x1="319.29001">
      <stop
         id="stop5019"
         style="stop-color:#cccccc"
         offset="0" />
      <stop
         id="stop5021"
         style="stop-color:#b3b3b3"
         offset="1" />
    </linearGradient>
    <linearGradient
       id="linearGradient5083"
       y2="16.451"
       gradientUnits="userSpaceOnUse"
       x2="323.75"
       y1="155.35001"
       x1="346.48001">
      <stop
         id="stop5043"
         style="stop-color:#ffffff"
         offset="0" />
      <stop
         id="stop5045"
         style="stop-color:#ffffff;stop-opacity:0"
         offset="1" />
    </linearGradient>
    <filter
       id="filter5089"
       style="color-interpolation-filters:sRGB">
      <feGaussianBlur
         id="feGaussianBlur5091"
         stdDeviation="0.97447299" />
    </filter>
    <filter
       id="filter5097"
       style="color-interpolation-filters:sRGB">
      <feGaussianBlur
         id="feGaussianBlur5099"
         stdDeviation="1.1043719" />
    </filter>
    <linearGradient
       id="linearGradient5123"
       y2="18.434"
       gradientUnits="userSpaceOnUse"
       x2="435.70999"
       y1="-14.781"
       x1="405.35999">
      <stop
         id="stop5119"
         style="stop-color:#d38d5f"
         offset="0" />
      <stop
         id="stop5121"
         style="stop-color:#d38d5f;stop-opacity:0"
         offset="1" />
    </linearGradient>
    <linearGradient
       id="linearGradient5165"
       y2="-6.9235001"
       gradientUnits="userSpaceOnUse"
       x2="405"
       y1="-40.852001"
       x1="367.85999">
      <stop
         id="stop5129"
         style="stop-color:#502d16"
         offset="0" />
      <stop
         id="stop5131"
         style="stop-color:#502d16;stop-opacity:0"
         offset="1" />
    </linearGradient>
    <filter
       id="filter5179"
       style="color-interpolation-filters:sRGB">
      <feGaussianBlur
         id="feGaussianBlur5181"
         stdDeviation="0.9523733" />
    </filter>
    <filter
       id="filter5205"
       style="color-interpolation-filters:sRGB">
      <feGaussianBlur
         id="feGaussianBlur5207"
         stdDeviation="1.3119022" />
    </filter>
    <filter
       id="filter5219"
       style="color-interpolation-filters:sRGB">
      <feGaussianBlur
         id="feGaussianBlur5221"
         stdDeviation="1.1282193" />
    </filter>
    <linearGradient
       id="linearGradient5281"
       y2="10.576"
       gradientUnits="userSpaceOnUse"
       x2="370.70999"
       y1="18.791"
       x1="359.64001">
      <stop
         id="stop5253"
         style="stop-color:#ffff00"
         offset="0" />
      <stop
         id="stop5255"
         style="stop-color:#ffff00;stop-opacity:0"
         offset="1" />
    </linearGradient>
    <filter
       id="filter5291"
       style="color-interpolation-filters:sRGB">
      <feGaussianBlur
         id="feGaussianBlur5293"
         stdDeviation="0.73818563" />
    </filter>
    <filter
       id="filter5421"
       style="color-interpolation-filters:sRGB">
      <feGaussianBlur
         id="feGaussianBlur5423"
         stdDeviation="2.1030362" />
    </filter>
    <filter
       id="filter5487"
       style="color-interpolation-filters:sRGB">
      <feGaussianBlur
         id="feGaussianBlur5489"
         stdDeviation="0.39609431" />
    </filter>
    <filter
       id="filter5499"
       height="1.255"
       width="1.0419"
       y="-0.12749"
       x="-0.020958999"
       style="color-interpolation-filters:sRGB">
      <feGaussianBlur
         id="feGaussianBlur5501"
         stdDeviation="4.790175" />
    </filter>
    <linearGradient
       id="linearGradient5529"
       y2="447.28"
       gradientUnits="userSpaceOnUse"
       x2="200.00999"
       y1="305.85999"
       x1="166.67999">
      <stop
         id="stop5457"
         style="stop-color:#ffffff"
         offset="0" />
      <stop
         id="stop5459"
         style="stop-color:#ffffff;stop-opacity:0"
         offset="1" />
    </linearGradient>
    <filter
       id="filter5653"
       height="2.3450999"
       width="1.1174001"
       y="-0.67255002"
       x="-0.058713999"
       style="color-interpolation-filters:sRGB">
      <feGaussianBlur
         id="feGaussianBlur5655"
         stdDeviation="4.4035714" />
    </filter>
    <linearGradient
       id="linearGradient5663"
       y2="389.51001"
       gradientUnits="userSpaceOnUse"
       x2="184.28999"
       y1="372.35999"
       x1="364.29001">
      <stop
         id="stop5659"
         style="stop-color:#2b0000"
         offset="0" />
      <stop
         id="stop5661"
         style="stop-color:#2b0000;stop-opacity:0"
         offset="1" />
    </linearGradient>
    <filter
       id="filter5713"
       style="color-interpolation-filters:sRGB">
      <feGaussianBlur
         id="feGaussianBlur5715"
         stdDeviation="0.95182678" />
    </filter>
    <linearGradient
       id="linearGradient5723"
       y2="-20.42"
       gradientUnits="userSpaceOnUse"
       x2="389.16"
       y1="-0.46930999"
       x1="407.34">
      <stop
         id="stop5719"
         style="stop-color:#61391f"
         offset="0" />
      <stop
         id="stop5721"
         style="stop-color:#61391f;stop-opacity:0"
         offset="1" />
    </linearGradient>
    <filter
       id="filter5835"
       height="1.3107001"
       width="1.4212"
       y="-0.15534"
       x="-0.21061"
       style="color-interpolation-filters:sRGB">
      <feGaussianBlur
         id="feGaussianBlur5837"
         stdDeviation="1.9517985" />
    </filter>
    <linearGradient
       id="linearGradient5847"
       y2="129.50999"
       gradientUnits="userSpaceOnUse"
       x2="423.57001"
       y1="96.648003"
       x1="200">
      <stop
         id="stop5843"
         style="stop-color:#ff8400"
         offset="0" />
      <stop
         id="stop5845"
         style="stop-color:#ff8400;stop-opacity:0"
         offset="1" />
    </linearGradient>
    <filter
       id="filter5925"
       height="1.5343"
       width="1.1909"
       y="-0.26716"
       x="-0.095446996"
       style="color-interpolation-filters:sRGB">
      <feGaussianBlur
         id="feGaussianBlur5927"
         stdDeviation="4.1504694" />
    </filter>
    <linearGradient
       id="linearGradient5937"
       y2="89.686996"
       gradientUnits="userSpaceOnUse"
       x2="351.53"
       gradientTransform="translate(0.50508,-4.0406)"
       y1="47.764999"
       x1="309.60999">
      <stop
         id="stop5933"
         style="stop-color:#ffffff"
         offset="0" />
      <stop
         id="stop5935"
         style="stop-color:#ffffff;stop-opacity:0"
         offset="1" />
    </linearGradient>
    <radialGradient
       id="radialGradient5986"
       gradientUnits="userSpaceOnUse"
       cy="344.20001"
       cx="302.73999"
       gradientTransform="matrix(-0.027224,0.69673,-2.6646,-0.038637,1160.6,134.63)"
       r="95.128998">
      <stop
         id="stop4700"
         style="stop-color:#2b1100"
         offset="0" />
      <stop
         id="stop4702"
         style="stop-color:#ff9900;stop-opacity:0"
         offset="1" />
    </radialGradient>
    <filter
       inkscape:collect="always"
       style="color-interpolation-filters:sRGB"
       id="filter8541"
       x="-0.12605388"
       width="1.2521079"
       y="-0.21307661"
       height="1.4261532">
      <feGaussianBlur
         inkscape:collect="always"
         stdDeviation="15.110911"
         id="feGaussianBlur8543" />
    </filter>
    <radialGradient
       inkscape:collect="always"
       xlink:href="#linearGradient4502"
       id="radialGradient8547"
       gradientUnits="userSpaceOnUse"
       gradientTransform="matrix(0.49207,2.1231,-1.6164,0.073833,485.19,-625.89)"
       cx="374.42001"
       cy="182.50999"
       r="40.356998" />
    <linearGradient
       inkscape:collect="always"
       xlink:href="#linearGradient4490"
       id="linearGradient8549"
       gradientUnits="userSpaceOnUse"
       x1="370.22"
       y1="90.082001"
       x2="387.10999"
       y2="248.41" />
    <linearGradient
       inkscape:collect="always"
       xlink:href="#linearGradient4490"
       id="linearGradient8551"
       gradientUnits="userSpaceOnUse"
       x1="370.22"
       y1="90.082001"
       x2="387.10999"
       y2="248.41" />
  </defs>
  <g
     id="layer1"
     transform="translate(-15.932653,-95.090119)">
    <g
       id="g5939"
       transform="translate(125.26,129.3)">
      <g
         id="g8579"
         transform="translate(11.249999,33.749999)">
        <g
           id="g8606"
           transform="translate(0,-11.249999)">
          <path
             id="path4686"
             style="fill:url(#linearGradient4712);stroke-width:1.20905542"
             d="m 195.69167,340.98724 c 0,0 -3.3261,15.77298 46.122,16.42349 52.731,0.69404 54.017,-13.36216 54.017,-13.36216 0,0 5.4017,-20.11896 -49.862,-20.06926 -55.641,-0.84228 -50.277,17.00822 -50.277,17.00822 z"
             inkscape:connector-curvature="0" />
          <path
             id="path5438"
             style="fill:#2b0000;filter:url(#filter5499)"
             d="m 335.58,374.9 c 84.67,1.6971 184.99,12.728 132.53,24.608 -52.458,11.88 -110.44,5.0914 -95.714,20.365 14.725,15.274 80.068,28.851 -11.964,33.942 -92.032,5.0914 -120.56,-31.397 -229.16,-14.426 -108.6,16.971 -154.12,22.193 -187.75,11.031 -23.008,-7.637 -3.6813,-23.76 56.14,-30.548 59.823,-6.78 128.85,-26.3 92.955,-31.39 -35.893,-5.09 -71.785,-8.49 -31.291,-17.82 40.496,-9.33 177.63,-1.7 215.36,0.85 37.733,2.5457 58.901,3.3942 58.901,3.3942 z"
             transform="matrix(0.98232,0,0,1.4096283,11.555272,-143.46997)"
             inkscape:connector-curvature="0" />
          <path
             id="path3660"
             style="fill:#ffff00"
             d="m 408.57,236.65 c 0,71.505 -42.207,125.59 -111.17,146.8 -17.022,5.235 -115.03,-28.263 -75.829,-28.803 24.443,-0.33678 -22.645,37.521 -42.117,30.423 -64.4,-23.48 -116.59,-79.97 -116.59,-148.42 0,-89.155 77.391,-161.43 172.86,-161.43 95.466,0 172.86,72.274 172.86,161.43 z"
             transform="translate(10.714,-4.2857)"
             inkscape:connector-curvature="0" />
          <path
             id="path5619"
             style="fill:url(#linearGradient5663);filter:url(#filter5653)"
             d="m 364.29,383.08 a 90,7.8571 0 1 1 -180,0 90,7.8571 0 1 1 180,0 z"
             transform="matrix(1.4721,0,0,1.4618151,-102.41833,-161.97948)"
             inkscape:connector-curvature="0" />
          <path
             id="path3672"
             style="fill:url(#radialGradient4462)"
             d="m 408.57,236.65 c 0,64.003 -39.885,119.31 -97.708,145.42 -22.723,10.26 -45.691,1.8702 -72.623,1.8702 -28.148,0 -57.249,7.8592 -80.734,-3.287 -56.166,-26.657 -94.649,-81.132 -94.649,-144 0,-89.155 77.391,-161.43 172.86,-161.43 95.466,0 172.86,72.274 172.86,161.43 z"
             transform="translate(12.143,-6.4286)"
             inkscape:connector-curvature="0" />
          <path
             id="path4684"
             style="fill:url(#radialGradient5986)"
             d="m 172.27,337.46 c 0,0 -4.6807,30.084 64.907,31.326 74.208,1.3238 76.017,-25.487 76.017,-25.487 0,0 7.6017,-38.376 -70.17,-38.279 -78.303,-1.6066 -70.755,32.44 -70.755,32.44 z"
             inkscape:connector-curvature="0" />
          <path
             id="path3676"
             style="fill:#070000;stroke:#000000;stroke-width:0.61032999px"
             d="m 173.86,334.45 c 0,0 -4.5751,26.356 63.443,27.443 72.534,1.1597 74.303,-22.328 74.303,-22.328 0,0 7.4303,-33.62 -68.587,-33.535 -76.537,-1.4074 -69.159,28.42 -69.159,28.42 z"
             inkscape:connector-curvature="0" />
          <path
             id="path5440"
             style="fill:#00ff00;stroke-width:1.20905542"
             d="m 342.17167,375.80767 c 82.808,2.44211 180.92,18.31654 129.61,35.41101 -51.305,17.09593 -108.01,7.32662 -93.609,29.30647 14.401,21.97985 78.307,41.51701 -11.701,48.84362 -90.008,7.32662 -117.91,-45.18031 -224.12,-20.75923 -106.209998,24.42254 -150.7299978,31.93627 -183.619998,15.87385 -22.502,-10.98978 -3.6003,-34.19039 54.905,-43.9597 58.506,-9.76873 126.009998,-37.85371 90.908998,-45.18032 -35.102998,-7.32662 -70.206998,-12.21098 -30.602998,-25.64316 9.901,-3.35801 23.885301,-6.51936 39.868998,-9.31529 15.9837,-2.79591 33.9668,-5.2264 51.86541,-7.12265 17.8986,-1.89625 45.4627,-19.70369 61.1084,-20.3627 15.6457,-0.65902 19.373,15.8304 28.598,16.74622 36.903,3.6633 86.78419,26.15989 86.78419,26.15989 z"
             inkscape:connector-curvature="0"
             sodipodi:nodetypes="ccsscccccsssccc" />
          <path
             transform="matrix(1,0,0,1.4618151,2.8216722,-161.97948)"
             id="path5450"
             style="opacity:0.65200046;fill:url(#linearGradient5529);filter:url(#filter5487)"
             d="m 119.9234,357.0067 c -24.753001,0.92125 -39.7834,4.64715 -63.4244,13.3658 17.773,5.7748 37.763,4.84382 54.719,13.02732 3.0587,5.4046 -3.2003,8.13168 -7.9688,9.15968 -7.035,3.3118 -14.672,4.9731 -22,7.5 64.23,11.646 131.16,17.811 195.47,3.2812 33.5,-7.7872 65.84034,-18.98166 97.75134,-32.12266 -11.57975,-0.59805 -57.71425,-8.79106 -82.94259,-13.49201 -25.22835,-4.70095 -29.55053,-5.90985 -42.35847,-9.51024 -25.61588,-7.20077 0.73872,-5.93629 -22.42828,-7.21249 -35.291,-1.7313 -49.20074,12.56782 -84.54274,12.82132 z"
             inkscape:connector-curvature="0"
             sodipodi:nodetypes="cccccccssccc" />
          <path
             id="path4537"
             style="fill:#000000;filter:url(#filter4610)"
             d="m 417.14,177.01 a 40.357,40.357 0 1 1 -80.714,0 40.357,40.357 0 1 1 80.714,0 z"
             transform="matrix(0.50271,-0.85108,1.2944,0.37142,-94.521,446.88)"
             inkscape:connector-curvature="0" />
          <g
             id="g4510"
             transform="matrix(1.7039,0,0,1.3434,-574.64,9.5368)">
            <path
               id="path4474"
               style="fill:#ffffff"
               d="m 417.14,177.01 a 40.357,40.357 0 1 1 -80.714,0 40.357,40.357 0 1 1 80.714,0 z"
               transform="matrix(0.76106,0,0,0.76106,241.1,-0.92105)"
               inkscape:connector-curvature="0" />
            <path
               id="path4498"
               style="fill:#ffffff"
               d="m 417.14,177.01 a 40.357,40.357 0 1 1 -80.714,0 40.357,40.357 0 1 1 80.714,0 z"
               transform="matrix(0.27359,-0.70375,0.70447,0.30712,299.7,345.52)"
               inkscape:connector-curvature="0" />
            <path
               id="path4500"
               style="fill:url(#radialGradient8547)"
               d="m 417.14,177.01 a 40.357,40.357 0 1 1 -80.714,0 40.357,40.357 0 1 1 80.714,0 z"
               transform="matrix(0.27359,-0.70375,0.70447,0.30712,299.7,345.52)"
               inkscape:connector-curvature="0" />
            <path
               id="path4476"
               style="fill:#000000"
               d="m 417.14,177.01 a 40.357,40.357 0 1 1 -80.714,0 40.357,40.357 0 1 1 80.714,0 z"
               transform="matrix(0.46018,0,0,0.46018,353.75,53.766)"
               inkscape:connector-curvature="0" />
            <path
               id="path4488"
               style="fill:url(#linearGradient8549)"
               d="m 417.14,177.01 a 40.357,40.357 0 1 1 -80.714,0 40.357,40.357 0 1 1 80.714,0 z"
               transform="matrix(0.38053,0,0,0.23009,383.41,87.35)"
               inkscape:connector-curvature="0" />
          </g>
          <path
             id="path4539"
             style="fill:#000000"
             d="m 417.14,177.01 a 40.357,40.357 0 1 1 -80.714,0 40.357,40.357 0 1 1 80.714,0 z"
             transform="matrix(0.39823,0,0,0.62832,98.463,141.03)"
             inkscape:connector-curvature="0" />
          <path
             id="path4541"
             style="fill:url(#linearGradient8551)"
             d="m 417.14,177.01 a 40.357,40.357 0 1 1 -80.714,0 40.357,40.357 0 1 1 80.714,0 z"
             transform="matrix(0.32931,0,0,0.31416,124.12,186.89)"
             inkscape:connector-curvature="0" />
          <path
             id="path4714"
             style="fill:#000000;filter:url(#filter4610)"
             d="m 417.14,177.01 a 40.357,40.357 0 1 1 -80.714,0 40.357,40.357 0 1 1 80.714,0 z"
             transform="matrix(-0.52418,-0.91494,-1.3497,0.39928,614.88,457.03)"
             inkscape:connector-curvature="0" />
          <g
             id="g4716"
             transform="matrix(1.7039,0,0,1.3618,-717.33,0.85705)">
            <path
               id="path4718"
               style="fill:#ffffff"
               d="m 417.14,177.01 a 40.357,40.357 0 1 1 -80.714,0 40.357,40.357 0 1 1 80.714,0 z"
               transform="matrix(0.76106,0,0,0.76106,241.1,-0.92105)"
               inkscape:connector-curvature="0" />
            <path
               id="path4720"
               style="fill:#ffffff"
               d="m 417.14,177.01 a 40.357,40.357 0 1 1 -80.714,0 40.357,40.357 0 1 1 80.714,0 z"
               transform="matrix(0.27359,-0.70375,0.70447,0.30712,299.7,345.52)"
               inkscape:connector-curvature="0" />
            <path
               id="path4722"
               style="fill:url(#radialGradient4517)"
               d="m 417.14,177.01 a 40.357,40.357 0 1 1 -80.714,0 40.357,40.357 0 1 1 80.714,0 z"
               transform="matrix(0.27359,-0.70375,0.70447,0.30712,299.7,345.52)"
               inkscape:connector-curvature="0" />
            <path
               id="path4724"
               style="fill:#000000"
               d="m 417.14,177.01 a 40.357,40.357 0 1 1 -80.714,0 40.357,40.357 0 1 1 80.714,0 z"
               transform="matrix(0.46018,0,0,0.46018,353.75,53.766)"
               inkscape:connector-curvature="0" />
            <path
               id="path4726"
               style="fill:url(#linearGradient4519)"
               d="m 417.14,177.01 a 40.357,40.357 0 1 1 -80.714,0 40.357,40.357 0 1 1 80.714,0 z"
               transform="matrix(0.38053,0,0,0.23009,383.41,87.35)"
               inkscape:connector-curvature="0" />
          </g>
        </g>
        <path
           inkscape:connector-curvature="0"
           d="M 249.47,73.455 C 186.3,72.59 125.56,118.03 105.01,180.815 c -5.4385,11.656 -0.62916,27.109 10.332,33.016 33.628,27.984 79.727,34.902 121.01,26.377 53.736,-9.2178 105.04,-31.912 150.87,-62.446 6.0093,-7.575 2.806,-18.759 -2.6104,-25.609 -27.54,-48.99 -81.21,-79.693 -135.14,-78.705 z"
           style="fill:url(#linearGradient4995);filter:url(#filter8541)"
           id="path4732" />
      </g>
    </g>
  </g>
  <metadata
     id="metadata7977">
    <rdf:RDF>
      <cc:Work>
        <dc:format>image/svg+xml</dc:format>
        <dc:type
           rdf:resource="http://purl.org/dc/dcmitype/StillImage" />
        <cc:license
           rdf:resource="http://creativecommons.org/publicdomain/zero/1.0/" />
        <dc:publisher>
          <cc:Agent
             rdf:about="http://openclipart.org/">
            <dc:title>Openclipart</dc:title>
          </cc:Agent>
        </dc:publisher>
        <dc:title>Smiley!!!</dc:title>
        <dc:date>2010-09-30T14:03:45</dc:date>
        <dc:description>Smiley see it's .....</dc:description>
        <dc:source>https://openclipart.org/detail/87847/smiley!!!-by-inky2010</dc:source>
        <dc:creator>
          <cc:Agent>
            <dc:title>inky2010</dc:title>
          </cc:Agent>
        </dc:creator>
        <dc:subject>
          <rdf:Bag>
            <rdf:li>2010</rdf:li>
            <rdf:li>Halloween</rdf:li>
            <rdf:li>Inkscape</rdf:li>
            <rdf:li>avatar</rdf:li>
            <rdf:li>blood</rdf:li>
            <rdf:li>clip</rdf:li>
            <rdf:li>corps</rdf:li>
            <rdf:li>death</rdf:li>
            <rdf:li>free</rdf:li>
            <rdf:li>ghost</rdf:li>
            <rdf:li>halloween2010</rdf:li>
            <rdf:li>icon</rdf:li>
            <rdf:li>inky2010</rdf:li>
            <rdf:li>skull</rdf:li>
            <rdf:li>smileys</rdf:li>
            <rdf:li>spooky</rdf:li>
          </rdf:Bag>
        </dc:subject>
      </cc:Work>
      <cc:License
         rdf:about="http://creativecommons.org/publicdomain/zero/1.0/">
        <cc:permits
           rdf:resource="http://creativecommons.org/ns#Reproduction" />
        <cc:permits
           rdf:resource="http://creativecommons.org/ns#Distribution" />
        <cc:permits
           rdf:resource="http://creativecommons.org/ns#DerivativeWorks" />
      </cc:License>
    </rdf:RDF>
  </metadata>
</svg>
