<?xml version="1.0" encoding="UTF-8" standalone="no"?>
<!-- Created with Inkscape (https://www.inkscape.org/) -->
<!-- ClipArt by Arvin61r58 (https://openclipart.org/user-detail/Arvin61r58) -->
<svg
   xmlns:dc="http://purl.org/dc/elements/1.1/"
   xmlns:cc="http://creativecommons.org/ns#"
   xmlns:rdf="http://www.w3.org/1999/02/22-rdf-syntax-ns#"
   xmlns:svg="http://www.w3.org/2000/svg"
   xmlns="http://www.w3.org/2000/svg"
   id="svg1798"
   version="1.1"
   viewBox="0 0 297 210"
   height="210mm"
   width="297mm">
  <title
     id="title2983">Pitch In (A4 size)</title>
  <defs
     id="defs1791" />
  <metadata
     id="metadata1795">
    <rdf:RDF>
      <cc:Work
         rdf:about="">
        <dc:format>image/svg+xml</dc:format>
        <dc:type
           rdf:resource="http://purl.org/dc/dcmitype/StillImage" />
        <dc:title>Pitch In (A4 size)</dc:title>
        <cc:license
           rdf:resource="http://creativecommons.org/publicdomain/zero/1.0/" />
        <dc:creator>
          <cc:Agent>
            <dc:title>Arvin61r58</dc:title>
          </cc:Agent>
        </dc:creator>
        <dc:publisher>
          <cc:Agent>
            <dc:title>Openclipart.org</dc:title>
          </cc:Agent>
        </dc:publisher>
        <dc:identifier>https://openclipart.org/</dc:identifier>
        <dc:source>https://openclipart.org/user-detail/Arvin61r58</dc:source>
        <dc:subject>
          <rdf:Bag>
            <rdf:li>A4</rdf:li>
            <rdf:li>litter</rdf:li>
            <rdf:li>rubbish</rdf:li>
            <rdf:li>sign</rdf:li>
            <rdf:li>trash</rdf:li>
          </rdf:Bag>
        </dc:subject>
        <dc:description>&quot;Pitch In&quot; anti-litter sign sized for A4  landscape (297x210mm) paper</dc:description>
      </cc:Work>
      <cc:License
         rdf:about="http://creativecommons.org/publicdomain/zero/1.0/">
        <cc:permits
           rdf:resource="http://creativecommons.org/ns#Reproduction" />
        <cc:permits
           rdf:resource="http://creativecommons.org/ns#Distribution" />
        <cc:permits
           rdf:resource="http://creativecommons.org/ns#DerivativeWorks" />
      </cc:License>
    </rdf:RDF>
  </metadata>
  <g
     id="layer1">
    <g
       id="g2793">
      <title
         id="title2795">Pitch In  --  by Arvin61r58</title>
      <rect
         style="opacity:1;fill:none;fill-opacity:1;stroke:#000000;stroke-width:1.58749974;stroke-linecap:round;stroke-linejoin:round;stroke-miterlimit:4;stroke-dasharray:none;stroke-opacity:1"
         id="rect1552"
         width="195.77049"
         height="282.89249"
         x="6.2257457"
         y="-289.94623"
         ry="13.229167"
         rx="13.229165"
         transform="rotate(90)" />
      <g
         style="stroke-width:0.91696012"
         transform="matrix(1.09056,0,0,1.09056,4.6545609,-100.38667)"
         id="g2549">
        <rect
           ry="12.130617"
           rx="12.130618"
           y="103.00288"
           x="7.247282"
           height="60.394024"
           width="249.30652"
           id="rect1554"
           style="opacity:1;fill:#008000;fill-opacity:1;stroke:none;stroke-width:1.45567417;stroke-linecap:round;stroke-linejoin:round;stroke-miterlimit:4;stroke-dasharray:none;stroke-opacity:1" />
        <g
           transform="translate(1.305542e-6,-3.8652168)"
           id="text1560"
           style="font-style:normal;font-variant:normal;font-weight:normal;font-stretch:normal;font-size:54.68055725px;line-height:1;font-family:'Arial Rounded MT Bold';-inkscape-font-specification:'Arial Rounded MT Bold, ';text-align:center;text-anchor:middle;opacity:1;fill:#ffffff;fill-opacity:1;stroke:none;stroke-width:1.45567417;stroke-linecap:round;stroke-linejoin:round;stroke-miterlimit:4;stroke-dasharray:none;stroke-opacity:1"
           aria-label="PITCH IN">
          <path
             id="path843"
             style="font-style:normal;font-variant:normal;font-weight:normal;font-stretch:normal;font-family:'Arial Rounded MT Bold';-inkscape-font-specification:'Arial Rounded MT Bold, ';fill:#ffffff;stroke-width:1.45567417"
             d="m 31.01651,141.39042 h -7.262261 v 11.08029 q 0,2.37626 -1.121379,3.60443 -1.121378,1.22818 -2.830146,1.22818 -1.788866,0 -2.883545,-1.20148 -1.094679,-1.22817 -1.094679,-3.57773 v -30.17042 q 0,-2.61655 1.201477,-3.73793 1.201477,-1.12138 3.818027,-1.12138 H 31.01651 q 4.512214,0 6.941868,0.69419 2.402954,0.66748 4.138421,2.21605 1.762166,1.54858 2.669949,3.79133 0.907783,2.24276 0.907783,5.04621 0,5.98068 -3.68453,9.07782 -3.68453,3.07044 -10.973491,3.07044 z m -1.922363,-17.94205 h -5.339898 v 11.96137 h 5.339898 q 2.803446,0 4.672411,-0.58739 1.895664,-0.58739 2.883545,-1.92236 0.987881,-1.33498 0.987881,-3.49764 0,-2.58985 -1.521871,-4.21852 -1.708767,-1.73546 -7.021966,-1.73546 z" />
          <path
             id="path845"
             style="font-style:normal;font-variant:normal;font-weight:normal;font-stretch:normal;font-family:'Arial Rounded MT Bold';-inkscape-font-specification:'Arial Rounded MT Bold, ';fill:#ffffff;stroke-width:1.45567417"
             d="M 52.669796,152.47071 V 121.6328 q 0,-2.40295 1.094679,-3.60443 1.094679,-1.20148 2.830146,-1.20148 1.788866,0 2.883545,1.20148 1.121379,1.17478 1.121379,3.60443 v 30.83791 q 0,2.42966 -1.121379,3.63113 -1.094679,1.20148 -2.883545,1.20148 -1.708767,0 -2.830146,-1.20148 -1.094679,-1.22817 -1.094679,-3.63113 z" />
          <path
             id="path847"
             style="font-style:normal;font-variant:normal;font-weight:normal;font-stretch:normal;font-family:'Arial Rounded MT Bold';-inkscape-font-specification:'Arial Rounded MT Bold, ';fill:#ffffff;stroke-width:1.45567417"
             d="m 94.854991,124.03576 h -8.650635 v 28.43495 q 0,2.45636 -1.094679,3.65783 -1.094679,1.17478 -2.830146,1.17478 -1.762167,0 -2.883545,-1.20148 -1.09468,-1.20147 -1.09468,-3.63113 v -28.43495 h -8.650635 q -2.029161,0 -3.017042,-0.88109 -0.987881,-0.90778 -0.987881,-2.37625 0,-1.52187 1.01458,-2.40296 1.041281,-0.88108 2.990343,-0.88108 h 25.20432 q 2.055861,0 3.043742,0.90778 1.01458,0.90779 1.01458,2.37626 0,1.46847 -1.01458,2.37625 -1.014581,0.88109 -3.043742,0.88109 z" />
          <path
             id="path849"
             style="font-style:normal;font-variant:normal;font-weight:normal;font-stretch:normal;font-family:'Arial Rounded MT Bold';-inkscape-font-specification:'Arial Rounded MT Bold, ';fill:#ffffff;stroke-width:1.45567417"
             d="m 135.62511,144.27397 q 0,1.86896 -0.93448,4.05832 -0.90778,2.16266 -2.88354,4.27192 -1.97577,2.08256 -5.04621,3.39084 -3.07044,1.30827 -7.15546,1.30827 -3.09714,0 -5.63359,-0.58739 -2.53646,-0.58739 -4.61902,-1.81556 -2.05586,-1.25488 -3.79132,-3.28404 -1.54857,-1.84227 -2.64325,-4.11172 -1.09468,-2.29616 -1.65537,-4.88601 -0.53399,-2.58985 -0.53399,-5.50009 0,-4.72581 1.36167,-8.46374 1.38838,-3.73793 3.95153,-6.38118 2.56315,-2.66995 6.00738,-4.05832 3.44424,-1.38838 7.34236,-1.38838 4.75251,0 8.46374,1.89567 3.71123,1.89566 5.68699,4.69911 1.97577,2.77674 1.97577,5.2598 0,1.36167 -0.96119,2.40295 -0.96118,1.04128 -2.32285,1.04128 -1.52187,0 -2.29616,-0.72089 -0.74758,-0.72088 -1.68207,-2.48305 -1.54857,-2.91024 -3.65783,-4.35201 -2.08256,-1.44178 -5.153,-1.44178 -4.886,0 -7.79625,3.71123 -2.88354,3.71123 -2.88354,10.5463 0,4.56561 1.28157,7.60936 1.28158,3.01704 3.63113,4.51221 2.34956,1.49517 5.5001,1.49517 3.41753,0 5.76709,-1.68207 2.37625,-1.70876 3.57773,-4.9928 0.50729,-1.54857 1.25488,-2.50975 0.74758,-0.98788 2.40295,-0.98788 1.41507,0 2.42965,0.98788 1.01458,0.98788 1.01458,2.45635 z" />
          <path
             id="path851"
             style="font-style:normal;font-variant:normal;font-weight:normal;font-stretch:normal;font-family:'Arial Rounded MT Bold';-inkscape-font-specification:'Arial Rounded MT Bold, ';fill:#ffffff;stroke-width:1.45567417"
             d="m 150.79042,121.6328 v 11.21379 h 17.11437 V 121.6328 q 0,-2.40295 1.06798,-3.60443 1.09468,-1.20148 2.85685,-1.20148 1.78887,0 2.88354,1.20148 1.12138,1.17478 1.12138,3.60443 v 30.83791 q 0,2.42966 -1.12138,3.63113 -1.12137,1.20148 -2.88354,1.20148 -1.78887,0 -2.85685,-1.20148 -1.06798,-1.22817 -1.06798,-3.63113 v -13.16285 h -17.11437 v 13.16285 q 0,2.42966 -1.12138,3.63113 -1.12138,1.20148 -2.88354,1.20148 -1.78887,0 -2.85685,-1.20148 -1.06798,-1.22817 -1.06798,-3.63113 V 121.6328 q 0,-2.40295 1.04128,-3.60443 1.06798,-1.20148 2.88355,-1.20148 1.78886,0 2.88354,1.20148 1.12138,1.17478 1.12138,3.60443 z" />
          <path
             id="path853"
             style="font-style:normal;font-variant:normal;font-weight:normal;font-stretch:normal;font-family:'Arial Rounded MT Bold';-inkscape-font-specification:'Arial Rounded MT Bold, ';fill:#ffffff;stroke-width:1.45567417"
             d="M 198.34222,152.47071 V 121.6328 q 0,-2.40295 1.09468,-3.60443 1.09468,-1.20148 2.83015,-1.20148 1.78886,0 2.88354,1.20148 1.12138,1.17478 1.12138,3.60443 v 30.83791 q 0,2.42966 -1.12138,3.63113 -1.09468,1.20148 -2.88354,1.20148 -1.70877,0 -2.83015,-1.20148 -1.09468,-1.22817 -1.09468,-3.63113 z" />
          <path
             id="path855"
             style="font-style:normal;font-variant:normal;font-weight:normal;font-stretch:normal;font-family:'Arial Rounded MT Bold';-inkscape-font-specification:'Arial Rounded MT Bold, ';fill:#ffffff;stroke-width:1.45567417"
             d="m 225.44221,121.5794 15.24541,23.06836 v -23.28195 q 0,-2.26946 0.96118,-3.39084 0.98788,-1.14808 2.64325,-1.14808 1.70876,0 2.69665,1.14808 0.98788,1.12138 0.98788,3.39084 v 30.78451 q 0,5.153 -4.27192,5.153 -1.06798,0 -1.92237,-0.32039 -0.85438,-0.2937 -1.60196,-0.96118 -0.74759,-0.66749 -1.38838,-1.54858 -0.64079,-0.90778 -1.28157,-1.84226 l -14.87162,-22.80137 v 22.93487 q 0,2.24275 -1.04128,3.39083 -1.04128,1.14808 -2.66995,1.14808 -1.68207,0 -2.69665,-1.14808 -1.01458,-1.17477 -1.01458,-3.39083 v -30.19713 q 0,-1.92236 0.42719,-3.01704 0.50729,-1.20148 1.68207,-1.94906 1.17478,-0.77429 2.53645,-0.77429 1.06798,0 1.81557,0.3471 0.77428,0.34709 1.33497,0.93448 0.58739,0.58739 1.17478,1.52187 0.61409,0.93448 1.25488,1.94906 z" />
        </g>
      </g>
      <g
         id="g2742">
        <g
           id="g981"
           transform="matrix(2.28,0,0,2.28,203.04978,84.185506)"
           style="fill:#008000;stroke-width:0.87719297">
          <path
             id="path957"
             d="m 5.7161556,34.816819 h 1.852084 1.8520829 V 32.964737 31.112654 H 7.5682396 5.7161556 v 1.852083 z"
             style="fill:#008000;stroke-width:0.87719297" />
          <path
             style="fill:#008000;stroke-width:0.87719297"
             d="m 11.746884,40.315398 c 0.617361,0 0.873081,-0.873081 1.309621,-1.309621 0.43654,-0.43654 1.30962,-0.692259 1.30962,-1.30962 0,-0.617361 -0.873079,-0.87308 -1.309619,-1.30962 -0.43654,-0.43654 -0.69226,-1.30962 -1.309621,-1.30962 -0.617361,0 -0.87308,0.87308 -1.30962,1.30962 -0.436541,0.43654 -1.3096223,0.69226 -1.3096223,1.309621 0,0.617361 0.8730813,0.873081 1.3096213,1.309621 0.43654,0.43654 0.692259,1.309619 1.30962,1.309619 z"
             id="path969" />
          <path
             style="fill:#008000;stroke-width:0.87719297"
             d="m 22.159371,12.011206 c -0.890148,0.42762 -1.590326,0.895896 -2.213301,1.517737 -0.622974,0.62184 -1.168744,1.397243 -1.750798,2.439128 -0.605541,1.08392 -1.437364,2.287602 -1.848466,2.674771 -0.690218,0.650026 -0.891028,0.703834 -2.618445,0.703834 -1.960483,0 -2.494835,0.227665 -2.84117,1.209745 -0.255541,0.72462 0.365944,1.868395 1.105876,2.035535 0.349329,0.079 1.801587,0.101208 3.227193,0.04961 3.122409,-0.112882 3.309134,-0.236373 5.076176,-3.353284 0.64934,-1.145389 1.270103,-2.083003 1.379244,-2.083593 0.109138,-5.3e-4 0.183979,6.703135 0.198438,14.897281 l 0.04503,3.128063 c 0.04038,0.468275 0.09104,1.951421 0.104828,4.968084 0.01478,3.232589 0.04384,5.521399 0.201022,6.67602 0.157181,1.154623 0.351689,1.574805 0.971,1.959054 0.528251,0.327753 1.340288,0.333386 1.865002,0 0.608847,-0.386839 0.70739,-0.844907 0.919324,-1.959054 0.211931,-1.114145 0.319511,-3.124388 0.293005,-6.67602 l -0.03566,-4.757849 0.05439,-1.073798 c 0.04716,-0.395288 0.166094,-0.955839 0.344553,-0.970521 0.168347,0 0.287787,0.295185 0.373621,1.365808 0.07508,0.936551 0.125733,2.419697 0.139525,5.43636 0.01479,3.232589 0.04384,5.521399 0.201023,6.67602 0.157181,1.154623 0.351689,1.574805 0.971,1.959054 0.528251,0.327753 1.340289,0.333386 1.865003,0 0.608845,-0.386839 0.70739,-0.844907 0.919323,-1.959054 0.211932,-1.114145 0.319511,-3.124388 0.293005,-6.67602 l -0.03566,-4.757849 0.0072,-0.678511 0.02842,-2.659787 c 0.156816,-14.738875 0.0056,-14.898315 0.529167,-14.898315 0.510847,0 0.529166,0.158518 0.529166,4.58525 0,2.313925 0.04141,3.773202 0.173218,4.735355 0.13181,0.962154 0.175834,1.425768 0.715616,1.752621 0.433943,0.262765 1.116581,0.170693 1.515155,-0.143143 0.534249,-0.420663 0.557874,-0.846018 0.662924,-1.929234 0.105053,-1.083218 0.109966,-2.769621 0.06209,-5.548346 -0.04775,-2.771016 -0.18261,-4.051587 -0.484725,-4.890141 -0.302114,-0.838553 -0.859107,-1.600425 -1.489315,-2.237073 -0.725194,-0.732608 -1.618449,-1.492243 -2.556434,-1.739946 -0.937982,-0.2477 -2.142347,-0.30024 -4.77623,-0.30024 -2.633883,0 -3.151244,0.05688 -4.120371,0.522449 z"
             id="path844" />
          <path
             style="fill:#008000;stroke-width:0.87719297"
             d="m 26.816764,1.3255542 c -0.613942,-0.025373 -1.260033,0.1314053 -1.89239,0.5033275 -2.461943,1.4479905 -2.499995,5.9889177 -0.06253,7.4858482 2.504747,1.5382611 5.346443,-0.447249 5.346443,-3.7356891 0,-2.4622574 -1.549696,-4.1773289 -3.391523,-4.2534866 z"
             id="path956" />
          <ellipse
             ry="1.984375"
             rx="2.0257163"
             cy="43.926823"
             cx="9.1735916"
             id="path955"
             style="opacity:1;fill:#008000;fill-opacity:1;stroke:none;stroke-width:0.11604533;stroke-linecap:square;stroke-linejoin:round;stroke-miterlimit:4;stroke-dasharray:none;stroke-opacity:1" />
          <g
             id="g953"
             style="fill:#008000;stroke-width:0.87719297">
            <path
               style="color:#000000;font-style:normal;font-variant:normal;font-weight:normal;font-stretch:normal;font-size:medium;line-height:normal;font-family:sans-serif;font-variant-ligatures:normal;font-variant-position:normal;font-variant-caps:normal;font-variant-numeric:normal;font-variant-alternates:normal;font-feature-settings:normal;text-indent:0;text-align:start;text-decoration:none;text-decoration-line:none;text-decoration-style:solid;text-decoration-color:#000000;letter-spacing:normal;word-spacing:normal;text-transform:none;writing-mode:lr-tb;direction:ltr;text-orientation:mixed;dominant-baseline:auto;baseline-shift:baseline;text-anchor:start;white-space:normal;shape-padding:0;clip-rule:nonzero;display:inline;overflow:visible;visibility:visible;opacity:1;isolation:auto;mix-blend-mode:normal;color-interpolation:sRGB;color-interpolation-filters:linearRGB;solid-color:#000000;solid-opacity:1;vector-effect:none;fill:#008000;fill-opacity:1;fill-rule:nonzero;stroke:#ffffff;stroke-width:0.11604532;stroke-linecap:butt;stroke-linejoin:miter;stroke-miterlimit:4;stroke-dasharray:none;stroke-dashoffset:0;stroke-opacity:1;color-rendering:auto;image-rendering:auto;shape-rendering:auto;text-rendering:auto;enable-background:accumulate"
               d="m 3.406546,30.084428 -0.2848548,0.286827 1.2350347,1.234947 -0.7828526,0.784789 0.2868467,0.286827 0.7828525,-0.78479 1.2410107,1.240923 -1.2410107,1.238931 -0.4999897,-0.499955 -0.2868468,0.286826 0.4999899,0.499956 -0.2948148,0.294793 0.2868468,0.286826 0.2948146,-0.294793 1.2410107,1.23893 -1.3326422,1.332548 0.219119,0.219104 -0.1952151,0.19321 1.3067463,1.308645 -0.8346444,0.834585 0.2868468,0.286827 0.8346444,-0.834585 1.2410107,1.238931 -1.2410107,1.240923 -0.5697096,-0.56967 -0.2848548,0.286827 0.5677176,0.567678 -0.3366466,0.338614 0.2868468,0.286826 0.3366466,-0.338614 1.2410107,1.240922 -1.3665062,1.366409 0.1693192,0.169308 -0.1593593,0.16134 1.3565463,1.35645 -0.7669167,0.766862 0.2868468,0.284835 0.7649247,-0.764871 1.3266663,1.324581 0.2011911,-0.201177 0.2011911,0.201177 1.326666,-1.324581 1.278858,1.278768 0.268919,-0.270892 0.247008,0.24699 1.003964,-1.001901 -0.286847,-0.286826 -0.986036,0.985966 -1.241011,-1.238931 1.241011,-1.240923 1.127467,1.129379 0.286847,-0.286826 -1.127467,-1.127388 1.239019,-1.240923 0.139438,0.137438 0.284855,-0.284834 -0.137447,-0.13943 0.272903,-0.272884 -0.286847,-0.286826 -0.272902,0.272883 -1.241011,-1.23893 1.241011,-1.240923 0.633452,0.633409 0.284855,-0.286826 -0.631461,-0.633409 1.001971,-1.001901 -0.284854,-0.286826 -1.003963,1.003892 -1.239019,-1.240923 1.239019,-1.238931 1.125474,1.125396 0.286847,-0.286827 -1.125475,-1.125395 1.239018,-1.238931 0.08765,0.08564 0.286847,-0.284835 -0.08765,-0.08764 0.197208,-0.197193 -0.286847,-0.286827 -0.197208,0.197193 -1.239018,-1.240922 1.239018,-1.240923 0.575686,0.575645 0.286846,-0.284835 -0.575685,-0.575644 0.914325,-0.914259 -0.286847,-0.286827 -0.914325,0.914259 -1.239018,-1.240923 1.199179,-1.199093 -0.286847,-0.284835 -1.199178,1.199094 -1.077668,-1.077591 -0.286847,0.284835 1.077668,1.07759 -1.239019,1.240924 -1.241011,-1.238931 1.067708,-1.067632 L 11.816734,30.253728 10.749026,31.32136 9.7072148,30.277631 9.4203681,30.564457 10.464171,31.606194 9.2231609,32.847117 7.9821502,31.606194 9.0359136,30.554497 8.751059,30.267671 7.6972954,31.32136 6.6017001,30.225843 6.3148533,30.512669 7.4104487,31.608186 6.169438,32.847117 4.9304193,31.608186 6.0598784,30.476815 5.7730317,30.189989 4.6435725,31.32136 Z m 12.226843,0.01394 -0.286847,0.286827 1.051771,1.051697 0.286847,-0.286827 z m -7.9380855,1.794657 1.2410106,1.240923 -1.2410106,1.240923 -1.2390188,-1.240923 z m 3.0557145,0 1.239019,1.240923 -1.241011,1.238931 -1.2390183,-1.238931 z m 3.051732,0 1.239017,1.238931 -1.239017,1.240923 -1.241011,-1.238931 z M 6.169438,33.418784 7.4104487,34.659706 6.169438,35.900629 4.9304193,34.659706 Z m 6.107446,0 1.239019,1.240922 -1.239019,1.240925 -1.241011,-1.240922 z m -3.0537231,0.002 1.2390191,1.238931 -1.2390191,1.240877 -1.2410107,-1.238931 z m -1.5258655,1.525797 1.2390187,1.23893 -1.2410106,1.240923 -1.2390188,-1.23893 z m 3.0517306,0 1.241011,1.240877 -1.241011,1.23893 -1.2410104,-1.23893 z m 3.053724,0 1.239017,1.240923 -1.239017,1.238884 -1.239019,-1.23893 z M 6.17143,36.472338 7.4104487,37.711269 6.169438,38.952192 4.9304193,37.71326 Z m 3.0517309,0 1.2410101,1.240922 -1.2410101,1.238932 -1.2410107,-1.238932 z m 3.0537231,0.0019 1.239019,1.23893 -1.239019,1.238932 -1.241011,-1.238932 z M 7.6972954,37.99804 8.9363141,39.238963 7.6953035,40.477894 6.4562847,39.238963 Z m 3.0537226,0.002 1.239019,1.238931 -1.241011,1.240875 -1.2390183,-1.240923 z m -1.5278571,1.525749 1.2410101,1.238932 -1.2410101,1.240923 -1.2410107,-1.240923 z m 3.0537231,0 1.239019,1.238932 -1.239019,1.240923 -1.241011,-1.238932 z M 7.6972954,41.051547 8.9363141,42.29247 7.6953035,43.533393 6.4562847,42.29247 Z m 3.0537226,0 1.239019,1.240923 -1.239019,1.240923 -1.2410103,-1.240923 z m 1.525866,1.525758 1.239019,1.240922 -1.239019,1.240923 -1.241011,-1.240923 z m -3.0537231,0.0019 1.2410101,1.238931 -1.2410101,1.240974 -1.2410107,-1.238932 z m -1.5258655,1.525857 1.2410107,1.240923 -1.2410107,1.238931 -1.2410107,-1.238931 z m 3.0517306,0 1.241011,1.238932 -1.241011,1.240922 -1.2410104,-1.238931 z M 9.2231609,45.63082 10.464171,46.871743 9.2231609,48.110674 7.9821502,46.871743 Z"
               id="path926" />
            <path
               id="path831"
               d="m 1.6123047,27.411328 c -0.2327804,0.01291 -0.3638509,0.157972 -0.2439127,0.426884 0.4891723,1.09677 0.7872311,2.496065 2.3915854,11.224533 0.9458405,5.145834 1.866077,9.863881 2.0453531,10.049556 h 4.1599528 4.1604697 c 0.179276,-0.185675 1.099512,-4.903722 2.045353,-10.049556 1.604356,-8.728468 1.902414,-10.127763 2.391586,-11.224533 0.119939,-0.268912 -0.01113,-0.413977 -0.243913,-0.426884 -0.232782,-0.01291 -0.567054,0.106454 -0.852144,0.3662 -0.312623,0.284827 -0.513438,0.639456 -0.86093,2.157435 -1.536643,0.20533 -4.076664,0.316501 -6.6269856,0.316501 -2.5556695,0 -5.1067231,-0.111283 -6.653341,-0.317546 -0.3473709,-1.51725 -0.5483656,-1.871616 -0.8609293,-2.15639 -0.2850912,-0.259746 -0.619364,-0.379119 -0.8521444,-0.3662 z m 1.7735352,2.804041 c 1.588619,0.204912 4.0793909,0.302899 6.5928795,0.302899 2.5081186,0 4.9870276,-0.09775 6.5660076,-0.301855 -0.328892,1.487551 -0.784008,3.940156 -1.572514,8.289185 -0.877406,4.839356 -1.705889,8.874952 -1.841231,9.173295 -0.23375,0.515217 -0.390156,0.542498 -3.1656987,0.542498 -2.7755427,0 -2.9314323,-0.02728 -3.1651814,-0.542498 C 6.6647596,47.38055 5.8362764,43.344954 4.9588707,38.505598 4.1701827,34.155567 3.7147472,31.702794 3.3858399,30.215369 Z"
               style="fill:#008000;stroke-width:0.87719297" />
          </g>
          <path
             style="fill:#008000;stroke-width:0.87719297"
             d="m 15.435081,27.057343 -1.309621,1.309621 -1.309621,1.30962 -1.30962,-1.309619 -1.30962,-1.309621 1.30962,-1.30962 1.309621,-1.309621 1.309621,1.30962 z"
             id="path959" />
        </g>
        <g
           aria-label="Please
Put Rubbish
In Its Place"
           style="font-style:normal;font-variant:normal;font-weight:normal;font-stretch:normal;font-size:31.00585938px;line-height:1;font-family:'Arial Rounded MT Bold';-inkscape-font-specification:'Arial Rounded MT Bold, ';text-align:center;text-anchor:middle;opacity:1;fill:#008000;fill-opacity:1;stroke:none;stroke-width:1.55029297;stroke-linecap:round;stroke-linejoin:round;stroke-miterlimit:4;stroke-dasharray:none;stroke-opacity:1"
           id="text2595"
           transform="matrix(1.024,0,0,1.024,69.722654,-77.253828)">
          <path
             d="m -7.4016714,185.25093 h -4.1179656 v 6.28293 q 0,1.34742 -0.635862,2.04384 -0.635863,0.69642 -1.604796,0.69642 -1.014352,0 -1.635075,-0.68128 -0.620722,-0.69642 -0.620722,-2.02871 v -17.10772 q 0,-1.48368 0.681281,-2.11954 0.681281,-0.63586 2.16496,-0.63586 h 5.7681796 q 2.558589,0 3.9362907,0.39363 1.3625622,0.37848 2.3466349,1.25658 0.99921226,0.8781 1.51395797,2.14982 0.51474572,1.27173 0.51474572,2.86138 0,3.39127 -2.08926199,5.14746 -2.089262,1.74105 -6.2223673,1.74105 z m -1.0900498,-10.1738 h -3.0279158 v 6.78253 h 3.0279158 q 1.5896559,0 2.6494265,-0.33307 1.0749102,-0.33307 1.6350746,-1.09005 0.5601645,-0.75698 0.5601645,-1.98328 0,-1.46854 -0.8629561,-2.39206 -0.9689331,-0.98407 -3.9817095,-0.98407 z"
             style="stroke-width:1.55029297"
             id="path2605" />
          <path
             d="m 4.4072008,191.76095 v -17.92526 q 0,-1.24145 0.5450249,-1.87731 0.5601644,-0.63586 1.4988184,-0.63586 0.9386539,0 1.513958,0.63586 0.575304,0.62072 0.575304,1.87731 v 17.92526 q 0,1.25658 -0.5904436,1.89245 -0.5753041,0.62072 -1.4988184,0.62072 -0.9083748,0 -1.4836788,-0.651 -0.5601645,-0.651 -0.5601645,-1.86217 z"
             style="stroke-width:1.55029297"
             id="path2607" />
          <path
             d="m 24.361167,186.886 h -8.084536 q 0.01514,1.40799 0.560165,2.4829 0.560164,1.07491 1.468539,1.61993 0.923514,0.54503 2.028704,0.54503 0.741839,0 1.347422,-0.16654 0.620723,-0.18167 1.196027,-0.54502 0.575304,-0.37849 1.059771,-0.8024 0.484466,-0.42391 1.256585,-1.15061 0.317931,-0.27251 0.908375,-0.27251 0.635862,0 1.029491,0.34821 0.393629,0.34821 0.393629,0.98407 0,0.56016 -0.439048,1.31714 -0.439048,0.74184 -1.332283,1.43826 -0.878095,0.68128 -2.225518,1.13547 -1.332283,0.45419 -3.073335,0.45419 -3.981709,0 -6.192088,-2.27094 -2.210378,-2.27093 -2.210378,-6.16181 0,-1.83189 0.545024,-3.39126 0.545025,-1.57452 1.589656,-2.69485 1.044631,-1.12033 2.573729,-1.71077 1.529097,-0.60558 3.391266,-0.60558 2.422333,0 4.148245,1.02949 1.741051,1.01435 2.604007,2.63428 0.862956,1.61994 0.862956,3.30043 0,1.55938 -0.893235,2.02871 -0.893235,0.45418 -2.51317,0.45418 z m -8.084536,-2.34663 h 7.494092 q -0.151395,-2.11954 -1.150608,-3.16417 -0.984072,-1.05977 -2.604007,-1.05977 -1.544238,0 -2.54345,1.07491 -0.984073,1.05977 -1.196027,3.14903 z"
             style="stroke-width:1.55029297"
             id="path2609" />
          <path
             d="m 41.680846,191.94262 q -1.498818,1.16575 -2.906799,1.7562 -1.392841,0.5753 -3.133893,0.5753 -1.589656,0 -2.800822,-0.62072 -1.196027,-0.63587 -1.847029,-1.71078 -0.651002,-1.07491 -0.651002,-2.33149 0,-1.69563 1.07491,-2.89166 1.07491,-1.19603 2.952218,-1.6048 0.393629,-0.0908 1.953006,-0.40877 1.559377,-0.31793 2.664566,-0.5753 1.120329,-0.27251 2.422333,-0.651 -0.0757,-1.63508 -0.666142,-2.39205 -0.575304,-0.77212 -2.407193,-0.77212 -1.574516,0 -2.376914,0.43904 -0.787258,0.43905 -1.362562,1.31715 -0.560165,0.87809 -0.802398,1.16575 -0.227094,0.27251 -0.999212,0.27251 -0.696421,0 -1.211166,-0.43905 -0.499607,-0.45419 -0.499607,-1.15061 0,-1.09005 0.772119,-2.11954 0.772119,-1.02949 2.407193,-1.69563 1.635075,-0.66614 4.072547,-0.66614 2.725124,0 4.284501,0.651 1.559377,0.63586 2.195239,2.0287 0.651002,1.39284 0.651002,3.69406 0,1.4534 -0.01514,2.46775 0,1.01435 -0.01514,2.2558 0,1.16575 0.378489,2.43747 0.39363,1.25659 0.39363,1.61994 0,0.63586 -0.605584,1.16574 -0.590443,0.51475 -1.347422,0.51475 -0.635863,0 -1.256585,-0.59044 -0.620723,-0.60559 -1.317143,-1.74106 z m -0.272512,-5.98013 q -0.908375,0.33307 -2.649427,0.71156 -1.725912,0.36335 -2.392053,0.54503 -0.666142,0.16653 -1.271725,0.68128 -0.605583,0.4996 -0.605583,1.40798 0,0.93865 0.71156,1.60479 0.71156,0.651 1.862168,0.651 1.226306,0 2.255798,-0.52988 1.044631,-0.54503 1.529097,-1.39284 0.560165,-0.93866 0.560165,-3.08848 z"
             style="stroke-width:1.55029297"
             id="path2611" />
          <path
             d="m 62.95196,188.86929 q 0,1.71077 -0.832677,2.93708 -0.832677,1.21116 -2.467752,1.84703 -1.619935,0.62072 -3.95143,0.62072 -2.225518,0 -3.815174,-0.68128 -1.589656,-0.68128 -2.346635,-1.69563 -0.756979,-1.0295 -0.756979,-2.05899 0,-0.68128 0.484466,-1.16575 0.484467,-0.48446 1.226306,-0.48446 0.651002,0 0.999213,0.31793 0.34821,0.31793 0.666141,0.89323 0.635863,1.10519 1.513958,1.65022 0.893235,0.54502 2.422333,0.54502 1.241446,0 2.028704,-0.54502 0.802397,-0.56017 0.802397,-1.27173 0,-1.09005 -0.832676,-1.58965 -0.817538,-0.49961 -2.709985,-0.9538 -2.134681,-0.52988 -3.482104,-1.10518 -1.332283,-0.59045 -2.13468,-1.54424 -0.802398,-0.9538 -0.802398,-2.34664 0,-1.24144 0.741839,-2.34663 0.74184,-1.10519 2.1801,-1.75619 1.453399,-0.66614 3.497243,-0.66614 1.604795,0 2.87652,0.33307 1.286864,0.33307 2.134681,0.89323 0.862956,0.56017 1.302003,1.24145 0.454188,0.68128 0.454188,1.33228 0,0.71156 -0.484467,1.16575 -0.469327,0.45419 -1.347422,0.45419 -0.635863,0 -1.09005,-0.36335 -0.439048,-0.36335 -1.014352,-1.09005 -0.469327,-0.60559 -1.105189,-0.96894 -0.635863,-0.36335 -1.725912,-0.36335 -1.120329,0 -1.862169,0.48447 -0.741839,0.46933 -0.741839,1.18089 0,0.651 0.545025,1.07491 0.545025,0.40877 1.468539,0.68128 0.923514,0.27251 2.54345,0.66614 1.922726,0.46933 3.133893,1.12033 1.226305,0.651 1.847028,1.54424 0.635863,0.87809 0.635863,2.01356 z"
             style="stroke-width:1.55029297"
             id="path2613" />
          <path
             d="m 78.015834,186.886 h -8.084536 q 0.01514,1.40799 0.560165,2.4829 0.560164,1.07491 1.468539,1.61993 0.923514,0.54503 2.028704,0.54503 0.741839,0 1.347422,-0.16654 0.620723,-0.18167 1.196027,-0.54502 0.575304,-0.37849 1.059771,-0.8024 0.484466,-0.42391 1.256585,-1.15061 0.317931,-0.27251 0.908375,-0.27251 0.635862,0 1.029491,0.34821 0.393629,0.34821 0.393629,0.98407 0,0.56016 -0.439048,1.31714 -0.439048,0.74184 -1.332283,1.43826 -0.878095,0.68128 -2.225518,1.13547 -1.332283,0.45419 -3.073335,0.45419 -3.981709,0 -6.192088,-2.27094 -2.210379,-2.27093 -2.210379,-6.16181 0,-1.83189 0.545025,-3.39126 0.545025,-1.57452 1.589656,-2.69485 1.044631,-1.12033 2.573729,-1.71077 1.529097,-0.60558 3.391266,-0.60558 2.422332,0 4.148245,1.02949 1.741051,1.01435 2.604007,2.63428 0.862956,1.61994 0.862956,3.30043 0,1.55938 -0.893235,2.02871 -0.893235,0.45418 -2.51317,0.45418 z m -8.084536,-2.34663 h 7.494092 q -0.151396,-2.11954 -1.150608,-3.16417 -0.984073,-1.05977 -2.604008,-1.05977 -1.544237,0 -2.543449,1.07491 -0.984073,1.05977 -1.196027,3.14903 z"
             style="stroke-width:1.55029297"
             id="path2615" />
          <path
             d="m -47.188487,216.25679 h -4.117966 v 6.28292 q 0,1.34743 -0.635862,2.04385 -0.635862,0.69642 -1.604796,0.69642 -1.014351,0 -1.635074,-0.68128 -0.620723,-0.69642 -0.620723,-2.02871 v -17.10772 q 0,-1.48368 0.681281,-2.11954 0.681281,-0.63586 2.16496,-0.63586 h 5.76818 q 2.558589,0 3.936291,0.39362 1.362562,0.37849 2.346635,1.25659 0.999212,0.8781 1.513958,2.14982 0.514745,1.27172 0.514745,2.86138 0,3.39127 -2.089262,5.14746 -2.089262,1.74105 -6.222367,1.74105 z m -1.09005,-10.1738 h -3.027916 v 6.78253 h 3.027916 q 1.589656,0 2.649427,-0.33307 1.07491,-0.33307 1.635074,-1.09005 0.560165,-0.75698 0.560165,-1.98328 0,-1.46854 -0.862956,-2.39206 -0.968933,-0.98407 -3.98171,-0.98407 z"
             style="stroke-width:1.55029297"
             id="path2617" />
          <path
             d="m -24.645653,222.94848 v -0.52988 q -0.741839,0.93865 -1.559376,1.57451 -0.817538,0.63587 -1.786471,0.93866 -0.968933,0.31793 -2.210379,0.31793 -1.498818,0 -2.694845,-0.62072 -1.180887,-0.62073 -1.831889,-1.71078 -0.772118,-1.31714 -0.772118,-3.78489 v -8.19051 q 0,-1.24145 0.560164,-1.84703 0.560164,-0.62072 1.483679,-0.62072 0.938654,0 1.513958,0.62072 0.575304,0.62072 0.575304,1.84703 v 6.61599 q 0,1.43826 0.242233,2.42234 0.242233,0.96893 0.862956,1.52909 0.635862,0.54503 1.710773,0.54503 1.044631,0 1.968145,-0.62072 0.923514,-0.62073 1.347423,-1.61994 0.34821,-0.8781 0.34821,-3.84545 v -5.02634 q 0,-1.22631 0.575304,-1.84703 0.575304,-0.62072 1.498818,-0.62072 0.923515,0 1.483679,0.62072 0.560165,0.60558 0.560165,1.84703 v 11.9754 q 0,1.18089 -0.545025,1.77134 -0.529886,0.59044 -1.377702,0.59044 -0.847816,0 -1.407981,-0.60558 -0.545025,-0.62073 -0.545025,-1.72592 z"
             style="stroke-width:1.55029297"
             id="path2619" />
          <path
             d="m -16.440001,208.8384 h 0.454188 v -2.4829 q 0,-0.99921 0.04542,-1.55937 0.06056,-0.57531 0.302791,-0.98408 0.242233,-0.4239 0.696421,-0.68128 0.454187,-0.27251 1.014352,-0.27251 0.787258,0 1.42312,0.59044 0.423908,0.39363 0.529885,0.96894 0.121117,0.56016 0.121117,1.60479 v 2.81597 h 1.513958 q 0.8780957,0 1.3322831,0.4239 0.469327,0.40877 0.469327,1.05977 0,0.83268 -0.6661415,1.16575 -0.6510019,0.33307 -1.8773076,0.33307 h -0.772119 v 7.60007 q 0,0.96893 0.06056,1.49882 0.0757,0.51475 0.36335,0.84782 0.302792,0.31793 0.968933,0.31793 0.36335,0 0.9840732,-0.12112 0.6207227,-0.13626 0.9689331,-0.13626 0.4996061,0 0.8932352,0.40877 0.4087686,0.39363 0.4087686,0.98408 0,0.99921 -1.0900497,1.52909 -1.0900498,0.52989 -3.1338934,0.52989 -1.937866,0 -2.937078,-0.651 -0.999212,-0.65101 -1.317144,-1.80161 -0.302791,-1.15061 -0.302791,-3.07334 v -7.93314 h -0.545025 q -0.893235,0 -1.362562,-0.42391 -0.469327,-0.4239 -0.469327,-1.07491 0,-0.651 0.484466,-1.05977 0.499607,-0.4239 1.43826,-0.4239 z"
             style="stroke-width:1.55029297"
             id="path2621" />
          <path
             d="M 8.3737707,215.40897 H 6.7992544 v 7.13074 q 0,1.40799 -0.6207228,2.07413 -0.6207227,0.66614 -1.619935,0.66614 -1.0749102,0 -1.6653538,-0.69642 -0.5904436,-0.69642 -0.5904436,-2.04385 v -17.07744 q 0,-1.4534 0.651002,-2.1044 0.6510019,-0.651 2.1044015,-0.651 H 12.37062 q 1.513958,0 2.588868,0.13625 1.07491,0.12112 1.937866,0.51475 1.044631,0.43905 1.847029,1.25658 0.802398,0.81754 1.211166,1.90759 0.423908,1.07491 0.423908,2.28608 0,2.48289 -1.40798,3.96657 -1.392842,1.48367 -4.239083,2.1044 1.196027,0.63586 2.286077,1.87731 1.09005,1.24144 1.937866,2.64942 0.862956,1.39284 1.332283,2.52831 0.484467,1.12033 0.484467,1.54424 0,0.43905 -0.287652,0.87809 -0.272513,0.42391 -0.756979,0.66615 -0.484467,0.25737 -1.120329,0.25737 -0.756979,0 -1.271725,-0.36335 -0.514746,-0.34821 -0.893235,-0.89324 -0.36335,-0.54502 -0.999213,-1.60479 l -1.80161,-2.99764 q -0.968933,-1.65021 -1.741051,-2.51317 -0.756979,-0.86295 -1.544237,-1.18089 -0.7872585,-0.31793 -1.9832853,-0.31793 z m 2.5737283,-9.32598 H 6.7992544 v 6.10125 h 4.0271286 q 1.619935,0 2.725124,-0.27251 1.105189,-0.28765 1.680493,-0.95379 0.590444,-0.68128 0.590444,-1.86217 0,-0.92352 -0.469327,-1.61994 -0.469327,-0.71156 -1.302004,-1.05977 -0.787258,-0.33307 -3.103614,-0.33307 z"
             style="stroke-width:1.55029297"
             id="path2623" />
          <path
             d="m 34.307869,222.94848 v -0.52988 q -0.741839,0.93865 -1.559377,1.57451 -0.817537,0.63587 -1.78647,0.93866 -0.968933,0.31793 -2.210379,0.31793 -1.498818,0 -2.694845,-0.62072 -1.180887,-0.62073 -1.831889,-1.71078 -0.772119,-1.31714 -0.772119,-3.78489 v -8.19051 q 0,-1.24145 0.560165,-1.84703 0.560164,-0.62072 1.483679,-0.62072 0.938653,0 1.513958,0.62072 0.575304,0.62072 0.575304,1.84703 v 6.61599 q 0,1.43826 0.242233,2.42234 0.242233,0.96893 0.862956,1.52909 0.635862,0.54503 1.710772,0.54503 1.044631,0 1.968146,-0.62072 0.923514,-0.62073 1.347422,-1.61994 0.348211,-0.8781 0.348211,-3.84545 v -5.02634 q 0,-1.22631 0.575304,-1.84703 0.575304,-0.62072 1.498818,-0.62072 0.923514,0 1.483679,0.62072 0.560164,0.60558 0.560164,1.84703 v 11.9754 q 0,1.18089 -0.545024,1.77134 -0.529886,0.59044 -1.377702,0.59044 -0.847817,0 -1.407981,-0.60558 -0.545025,-0.62073 -0.545025,-1.72592 z"
             style="stroke-width:1.55029297"
             id="path2625" />
          <path
             d="m 46.131886,204.69015 v 6.31321 q 1.165748,-1.21117 2.376915,-1.84703 1.211166,-0.65101 2.997636,-0.65101 2.058983,0 3.60322,0.98408 1.559377,0.96893 2.407193,2.8311 0.862957,1.84703 0.862957,4.39048 0,1.8773 -0.484467,3.45182 -0.469327,1.55938 -1.377702,2.70999 -0.908375,1.1506 -2.210378,1.78647 -1.286865,0.62072 -2.846241,0.62072 -0.953794,0 -1.80161,-0.22709 -0.832677,-0.2271 -1.423121,-0.59045 -0.590444,-0.37849 -1.014352,-0.77212 -0.408768,-0.39363 -1.09005,-1.18088 v 0.40876 q 0,1.16575 -0.560164,1.77134 -0.560164,0.59044 -1.42312,0.59044 -0.878096,0 -1.407981,-0.59044 -0.514746,-0.60559 -0.514746,-1.77134 v -18.04637 q 0,-1.25659 0.499606,-1.89245 0.514746,-0.651 1.423121,-0.651 0.953793,0 1.468539,0.62072 0.514745,0.60558 0.514745,1.74105 z m 0.196815,12.2782 q 0,2.46775 1.120329,3.80003 1.135468,1.31715 2.967358,1.31715 1.559376,0 2.679705,-1.34743 1.135469,-1.36256 1.135469,-3.89087 0,-1.63507 -0.469327,-2.81596 -0.469327,-1.18089 -1.332283,-1.81675 -0.862956,-0.651 -2.013564,-0.651 -1.180888,0 -2.104402,0.651 -0.923514,0.63586 -1.4534,1.86217 -0.529885,1.21117 -0.529885,2.89166 z"
             style="stroke-width:1.55029297"
             id="path2627" />
          <path
             d="m 65.116918,204.69015 v 6.31321 q 1.165747,-1.21117 2.376914,-1.84703 1.211166,-0.65101 2.997636,-0.65101 2.058983,0 3.60322,0.98408 1.559377,0.96893 2.407194,2.8311 0.862956,1.84703 0.862956,4.39048 0,1.8773 -0.484467,3.45182 -0.469327,1.55938 -1.377702,2.70999 -0.908374,1.1506 -2.210378,1.78647 -1.286865,0.62072 -2.846241,0.62072 -0.953794,0 -1.80161,-0.22709 -0.832677,-0.2271 -1.423121,-0.59045 -0.590443,-0.37849 -1.014352,-0.77212 -0.408768,-0.39363 -1.090049,-1.18088 v 0.40876 q 0,1.16575 -0.560165,1.77134 -0.560164,0.59044 -1.42312,0.59044 -0.878096,0 -1.407981,-0.59044 -0.514746,-0.60559 -0.514746,-1.77134 v -18.04637 q 0,-1.25659 0.499606,-1.89245 0.514746,-0.651 1.423121,-0.651 0.953793,0 1.468539,0.62072 0.514746,0.60558 0.514746,1.74105 z m 0.196814,12.2782 q 0,2.46775 1.120329,3.80003 1.135469,1.31715 2.967358,1.31715 1.559376,0 2.679705,-1.34743 1.135469,-1.36256 1.135469,-3.89087 0,-1.63507 -0.469327,-2.81596 -0.469327,-1.18089 -1.332283,-1.81675 -0.862956,-0.651 -2.013564,-0.651 -1.180888,0 -2.104402,0.651 -0.923514,0.63586 -1.4534,1.86217 -0.529885,1.21117 -0.529885,2.89166 z"
             style="stroke-width:1.55029297"
             id="path2629" />
          <path
             d="m 84.843784,210.82168 v 11.94513 q 0,1.24144 -0.590443,1.87731 -0.590444,0.63586 -1.498819,0.63586 -0.908374,0 -1.483678,-0.651 -0.560165,-0.65101 -0.560165,-1.86217 V 210.9428 q 0,-1.22631 0.560165,-1.84703 0.575304,-0.62072 1.483678,-0.62072 0.908375,0 1.498819,0.62072 0.590443,0.62072 0.590443,1.72591 z m -2.043843,-4.26936 q -0.862956,0 -1.483679,-0.52989 -0.605583,-0.52988 -0.605583,-1.49882 0,-0.87809 0.620723,-1.43826 0.635862,-0.5753 1.468539,-0.5753 0.802398,0 1.423121,0.51475 0.620722,0.51474 0.620722,1.49881 0,0.9538 -0.605583,1.49882 -0.605583,0.52989 -1.43826,0.52989 z"
             style="stroke-width:1.55029297"
             id="path2631" />
          <path
             d="m 102.43597,219.87515 q 0,1.71077 -0.83267,2.93708 -0.83268,1.21116 -2.467756,1.84703 -1.619935,0.62072 -3.95143,0.62072 -2.225519,0 -3.815175,-0.68128 -1.589655,-0.68128 -2.346634,-1.69564 -0.756979,-1.02949 -0.756979,-2.05898 0,-0.68128 0.484466,-1.16575 0.484467,-0.48446 1.226306,-0.48446 0.651002,0 0.999212,0.31793 0.348211,0.31793 0.666142,0.89323 0.635862,1.10519 1.513958,1.65022 0.893235,0.54502 2.422333,0.54502 1.241445,0 2.028703,-0.54502 0.802398,-0.56017 0.802398,-1.27173 0,-1.09005 -0.832677,-1.58965 -0.817537,-0.49961 -2.709985,-0.9538 -2.13468,-0.52988 -3.482103,-1.10519 -1.332283,-0.59044 -2.134681,-1.54423 -0.802397,-0.9538 -0.802397,-2.34664 0,-1.24144 0.741839,-2.34663 0.741839,-1.10519 2.180099,-1.75619 1.4534,-0.66614 3.497243,-0.66614 1.604796,0 2.87652,0.33307 1.286865,0.33307 2.134681,0.89323 0.862957,0.56017 1.302007,1.24145 0.45418,0.68128 0.45418,1.33228 0,0.71156 -0.48446,1.16575 -0.46933,0.45418 -1.347425,0.45418 -0.635862,0 -1.090049,-0.36335 -0.439048,-0.36335 -1.014352,-1.09004 -0.469327,-0.60559 -1.10519,-0.96894 -0.635862,-0.36335 -1.725912,-0.36335 -1.120329,0 -1.862168,0.48447 -0.741839,0.46933 -0.741839,1.18089 0,0.651 0.545024,1.07491 0.545025,0.40876 1.46854,0.68128 0.923514,0.27251 2.543449,0.66614 1.922727,0.46933 3.133893,1.12033 1.226309,0.651 1.847029,1.54423 0.63586,0.8781 0.63586,2.01357 z"
             style="stroke-width:1.55029297"
             id="path2633" />
          <path
             d="m 110.00577,204.84155 v 6.13153 q 0.78726,-0.90838 1.5291,-1.43826 0.75698,-0.52989 1.66535,-0.78726 0.90838,-0.27251 1.95301,-0.27251 1.57451,0 2.78568,0.66614 1.22631,0.66614 1.92273,1.93786 0.43904,0.74184 0.59044,1.66536 0.1514,0.90837 0.1514,2.1044 v 7.918 q 0,1.24144 -0.57531,1.87731 -0.56016,0.63586 -1.49882,0.63586 -2.04384,0 -2.04384,-2.51317 v -6.97935 q 0,-1.98328 -0.59044,-3.04305 -0.59045,-1.07491 -2.24066,-1.07491 -1.10519,0 -1.99843,0.63586 -0.87809,0.62072 -1.31714,1.71077 -0.33307,0.92352 -0.33307,3.28529 v 5.46539 q 0,1.2263 -0.56016,1.87731 -0.54503,0.63586 -1.5291,0.63586 -2.04385,0 -2.04385,-2.51317 v -17.92526 q 0,-1.25659 0.52989,-1.87731 0.54502,-0.63586 1.51396,-0.63586 0.98407,0 1.5291,0.63586 0.56016,0.63586 0.56016,1.87731 z"
             style="stroke-width:1.55029297"
             id="path2635" />
          <path
             d="m -48.112001,253.54557 v -17.48621 q 0,-1.36256 0.620722,-2.04384 0.620723,-0.68128 1.604796,-0.68128 1.014352,0 1.635074,0.68128 0.635863,0.66614 0.635863,2.04384 v 17.48621 q 0,1.37771 -0.635863,2.05899 -0.620722,0.68128 -1.635074,0.68128 -0.968933,0 -1.604796,-0.68128 -0.620722,-0.69642 -0.620722,-2.05899 z"
             style="stroke-width:1.55029297"
             id="path2637" />
          <path
             d="m -35.137382,241.76698 v 0.49961 q 1.09005,-1.43826 2.376914,-2.1044 1.302004,-0.68129 2.982498,-0.68129 1.635074,0 2.921939,0.71156 1.286864,0.71157 1.922726,2.01357 0.408769,0.75698 0.529886,1.63507 0.121116,0.8781 0.121116,2.24066 v 7.69091 q 0,1.24144 -0.575304,1.87731 -0.560164,0.63586 -1.468539,0.63586 -0.923514,0 -1.498819,-0.651 -0.575304,-0.65101 -0.575304,-1.86217 v -6.88851 q 0,-2.04384 -0.575304,-3.11875 -0.560164,-1.09005 -2.255797,-1.09005 -1.105189,0 -2.013564,0.66614 -0.908375,0.651 -1.332283,1.80161 -0.302792,0.92351 -0.302792,3.45182 v 5.17774 q 0,1.25658 -0.590443,1.89245 -0.575304,0.62072 -1.498819,0.62072 -0.893235,0 -1.468539,-0.651 -0.575304,-0.65101 -0.575304,-1.86217 v -11.94513 q 0,-1.18089 0.514746,-1.75619 0.514745,-0.59045 1.407981,-0.59045 0.545025,0 0.984072,0.25738 0.439048,0.25737 0.696421,0.77212 0.272512,0.51474 0.272512,1.25658 z"
             style="stroke-width:1.55029297"
             id="path2639" />
          <path
             d="m -11.958685,253.54557 v -17.48621 q 0,-1.36256 0.620723,-2.04384 0.620723,-0.68128 1.6047953,-0.68128 1.0143519,0 1.6350746,0.68128 0.6358624,0.66614 0.6358624,2.04384 v 17.48621 q 0,1.37771 -0.6358624,2.05899 -0.6207227,0.68128 -1.6350746,0.68128 -0.9689333,0 -1.6047953,-0.68128 -0.620723,-0.69642 -0.620723,-2.05899 z"
             style="stroke-width:1.55029297"
             id="path2641" />
          <path
             d="m -2.5115871,239.84425 h 0.4541874 v -2.48289 q 0,-0.99921 0.045419,-1.55937 0.060558,-0.57531 0.3027916,-0.98408 0.2422333,-0.4239 0.6964207,-0.68128 0.45418735,-0.27251 1.0143518,-0.27251 0.78725815,0 1.4231205,0.59044 0.4239082,0.39363 0.5298853,0.96894 0.1211166,0.56016 0.1211166,1.60479 v 2.81596 h 1.513958 q 0.8780956,0 1.332283,0.42391 0.469327,0.40877 0.469327,1.05977 0,0.83268 -0.6661415,1.16575 -0.6510019,0.33307 -1.8773079,0.33307 H 2.0757055 v 7.60007 q 0,0.96893 0.060558,1.49882 0.075698,0.51474 0.36335,0.84782 0.3027916,0.31793 0.9689331,0.31793 0.3633499,0 0.9840727,-0.12112 0.6207227,-0.13626 0.9689331,-0.13626 0.4996061,0 0.8932352,0.40877 0.4087686,0.39363 0.4087686,0.98408 0,0.99921 -1.0900497,1.52909 -1.0900498,0.52989 -3.133893,0.52989 -1.93786625,0 -2.93707851,-0.651 Q -1.4366773,254.98383 -1.7546085,253.83323 -2.0574,252.68262 -2.0574,250.75989 v -7.93314 h -0.5450249 q -0.8932352,0 -1.3625622,-0.42391 -0.469327,-0.4239 -0.469327,-1.07491 0,-0.651 0.4844666,-1.05977 0.4996061,-0.42391 1.4382604,-0.42391 z"
             style="stroke-width:1.55029297"
             id="path2643" />
          <path
             d="m 21.530066,250.88101 q 0,1.71077 -0.832677,2.93708 -0.832677,1.21116 -2.467752,1.84703 -1.619935,0.62072 -3.95143,0.62072 -2.225518,0 -3.815174,-0.68128 -1.5896562,-0.68128 -2.3466351,-1.69564 -0.756979,-1.02949 -0.756979,-2.05898 0,-0.68128 0.4844665,-1.16575 0.4844666,-0.48446 1.226306,-0.48446 0.6510019,0 0.9992126,0.31793 0.34821,0.31793 0.666141,0.89323 0.635863,1.10519 1.513958,1.65022 0.893235,0.54502 2.422333,0.54502 1.241445,0 2.028704,-0.54502 0.802397,-0.56017 0.802397,-1.27173 0,-1.09005 -0.832677,-1.58965 -0.817537,-0.49961 -2.709984,-0.9538 -2.134681,-0.52988 -3.482104,-1.10519 -1.3322827,-0.59044 -2.1346804,-1.54423 -0.8023978,-0.9538 -0.8023978,-2.34664 0,-1.24144 0.7418394,-2.34663 0.7418394,-1.10519 2.1800998,-1.75619 1.453399,-0.66615 3.497243,-0.66615 1.604795,0 2.87652,0.33308 1.286864,0.33307 2.134681,0.89323 0.862956,0.56016 1.302003,1.24145 0.454188,0.68128 0.454188,1.33228 0,0.71156 -0.484467,1.16575 -0.469327,0.45418 -1.347422,0.45418 -0.635863,0 -1.09005,-0.36335 -0.439048,-0.36335 -1.014352,-1.09005 -0.469327,-0.60558 -1.105189,-0.96893 -0.635863,-0.36335 -1.725912,-0.36335 -1.120329,0 -1.862169,0.48447 -0.741839,0.46932 -0.741839,1.18089 0,0.651 0.545025,1.07491 0.545025,0.40876 1.468539,0.68128 0.923514,0.27251 2.543449,0.66614 1.922727,0.46932 3.133893,1.12033 1.226306,0.651 1.847029,1.54423 0.635863,0.8781 0.635863,2.01357 z"
             style="stroke-width:1.55029297"
             id="path2645" />
          <path
             d="M 41.711125,247.26265 H 37.59316 v 6.28292 q 0,1.34743 -0.635863,2.04385 -0.635862,0.69642 -1.604795,0.69642 -1.014352,0 -1.635075,-0.68128 -0.620723,-0.69642 -0.620723,-2.02871 v -17.10772 q 0,-1.48368 0.681282,-2.11954 0.681281,-0.63587 2.164959,-0.63587 h 5.76818 q 2.558589,0 3.936291,0.39363 1.362562,0.37849 2.346635,1.25659 0.999212,0.87809 1.513958,2.14982 0.514746,1.27172 0.514746,2.86138 0,3.39127 -2.089262,5.14746 -2.089262,1.74105 -6.222368,1.74105 z m -1.090049,-10.1738 H 37.59316 v 6.78253 h 3.027916 q 1.589656,0 2.649426,-0.33307 1.07491,-0.33307 1.635075,-1.09005 0.560164,-0.75698 0.560164,-1.98328 0,-1.46854 -0.862956,-2.39206 -0.968933,-0.98407 -3.981709,-0.98407 z"
             style="stroke-width:1.55029297"
             id="path2647" />
          <path
             d="m 53.519998,253.77267 v -17.92526 q 0,-1.24145 0.545024,-1.87731 0.560165,-0.63586 1.498819,-0.63586 0.938654,0 1.513958,0.63586 0.575304,0.62072 0.575304,1.87731 v 17.92526 q 0,1.25658 -0.590444,1.89245 -0.575304,0.62072 -1.498818,0.62072 -0.908375,0 -1.483679,-0.651 -0.560164,-0.65101 -0.560164,-1.86217 z"
             style="stroke-width:1.55029297"
             id="path2649" />
          <path
             d="m 72.383918,253.95434 q -1.498819,1.16575 -2.9068,1.75619 -1.392841,0.57531 -3.133893,0.57531 -1.589655,0 -2.800822,-0.62072 -1.196027,-0.63587 -1.847029,-1.71078 -0.651001,-1.07491 -0.651001,-2.33149 0,-1.69564 1.07491,-2.89166 1.07491,-1.19603 2.952218,-1.6048 0.393629,-0.0908 1.953006,-0.40877 1.559376,-0.31793 2.664566,-0.5753 1.120329,-0.27251 2.422332,-0.651 -0.0757,-1.63508 -0.666141,-2.39206 -0.575304,-0.77211 -2.407193,-0.77211 -1.574517,0 -2.376914,0.43904 -0.787258,0.43905 -1.362563,1.31715 -0.560164,0.87809 -0.802397,1.16574 -0.227094,0.27252 -0.999213,0.27252 -0.69642,0 -1.211166,-0.43905 -0.499606,-0.45419 -0.499606,-1.15061 0,-1.09005 0.772119,-2.11954 0.772118,-1.02949 2.407193,-1.69563 1.635074,-0.66614 4.072547,-0.66614 2.725124,0 4.284501,0.651 1.559376,0.63586 2.195239,2.0287 0.651002,1.39284 0.651002,3.69406 0,1.4534 -0.01514,2.46775 0,1.01435 -0.01514,2.2558 0,1.16575 0.378489,2.43747 0.393629,1.25658 0.393629,1.61993 0,0.63587 -0.605583,1.16575 -0.590444,0.51475 -1.347423,0.51475 -0.635862,0 -1.256585,-0.59045 -0.620723,-0.60558 -1.317142,-1.74105 z m -0.272513,-5.98013 q -0.908374,0.33307 -2.649426,0.71156 -1.725912,0.36335 -2.392054,0.54502 -0.666141,0.16654 -1.271724,0.68129 -0.605584,0.4996 -0.605584,1.40798 0,0.93865 0.711561,1.60479 0.71156,0.651 1.862168,0.651 1.226306,0 2.255797,-0.52988 1.044631,-0.54503 1.529098,-1.39284 0.560164,-0.93866 0.560164,-3.08848 z"
             style="stroke-width:1.55029297"
             id="path2651" />
          <path
             d="m 95.168985,251.16866 q 0,0.77212 -0.469327,1.65021 -0.454187,0.8781 -1.407981,1.6805 -0.938653,0.78726 -2.376914,1.27172 -1.43826,0.48447 -3.23987,0.48447 -3.830313,0 -5.980134,-2.22552 -2.14982,-2.24066 -2.14982,-5.99527 0,-2.54345 0.984073,-4.49646 0.984072,-1.953 2.846241,-3.01277 1.862168,-1.07491 4.451036,-1.07491 1.604796,0 2.937079,0.46932 1.347422,0.46933 2.270937,1.21117 0.938654,0.74184 1.42312,1.58965 0.499606,0.83268 0.499606,1.55938 0,0.74184 -0.560164,1.25659 -0.545025,0.51474 -1.332283,0.51474 -0.514746,0 -0.862956,-0.25737 -0.333071,-0.27251 -0.756979,-0.86296 -0.756979,-1.1506 -1.589656,-1.72591 -0.817537,-0.5753 -2.089262,-0.5753 -1.831889,0 -2.952218,1.43826 -1.120329,1.42312 -1.120329,3.90601 0,1.16575 0.287652,2.14982 0.287652,0.96893 0.832677,1.66535 0.545025,0.68128 1.317143,1.04463 0.772119,0.34821 1.695633,0.34821 1.241446,0 2.119541,-0.5753 0.893236,-0.5753 1.574517,-1.75619 0.378489,-0.69642 0.817537,-1.09005 0.439048,-0.39363 1.07491,-0.39363 0.756979,0 1.256585,0.5753 0.499606,0.57531 0.499606,1.22631 z"
             style="stroke-width:1.55029297"
             id="path2653" />
          <path
             d="m 110.29343,248.89772 h -8.08454 q 0.0151,1.40798 0.56016,2.48289 0.56017,1.07491 1.46854,1.61994 0.92352,0.54502 2.02871,0.54502 0.74184,0 1.34742,-0.16653 0.62072,-0.18168 1.19603,-0.54503 0.5753,-0.37849 1.05977,-0.80239 0.48446,-0.42391 1.25658,-1.15061 0.31793,-0.27251 0.90838,-0.27251 0.63586,0 1.02949,0.34821 0.39363,0.34821 0.39363,0.98407 0,0.56016 -0.43905,1.31714 -0.43905,0.74184 -1.33228,1.43826 -0.8781,0.68128 -2.22552,1.13547 -1.33228,0.45419 -3.07334,0.45419 -3.98171,0 -6.19208,-2.27094 -2.210383,-2.27094 -2.210383,-6.16181 0,-1.83189 0.545025,-3.39126 0.545025,-1.57452 1.589658,-2.69485 1.04463,-1.12033 2.57373,-1.71077 1.52909,-0.60558 3.39126,-0.60558 2.42234,0 4.14825,1.02949 1.74105,1.01435 2.604,2.63428 0.86296,1.61994 0.86296,3.30043 0,1.55938 -0.89323,2.02871 -0.89324,0.45418 -2.51317,0.45418 z m -8.08454,-2.34663 h 7.49409 q -0.15139,-2.11954 -1.15061,-3.16417 -0.98407,-1.05977 -2.604,-1.05977 -1.54424,0 -2.54345,1.07491 -0.98408,1.05977 -1.19603,3.14903 z"
             style="stroke-width:1.55029297"
             id="path2655" />
        </g>
      </g>
    </g>
  </g>
</svg>
