<?xml version="1.0" encoding="utf-8"?>
<svg version="1.1" id="Layer_1" xmlns="http://www.w3.org/2000/svg" xmlns:xlink="http://www.w3.org/1999/xlink" x="0px" y="0px"
	 viewBox="0 0 1413.11 1629.917" enable-background="new 0 0 1413.11 1629.917" xml:space="preserve">
<g>
	<path d="M815.341,874.81c-38.179,14.975-74.775,35.752-108.629,62.329c-34.698-27.315-72.77-48.619-112.952-63.911
		c5.483-38.6,5.906-77.938,0.843-116.749c39.338-15.187,77.2-36.385,112.109-63.806c33.221,26.26,69.712,46.932,107.996,62.013
		C809.33,794.447,809.541,834.839,815.341,874.81z"/>
	<path d="M814.709,754.685c37.437-277.199,324.801-445.769,585.432-343.18C1362.707,688.684,1075.608,857.38,814.709,754.685z"/>
	<path d="M814.709,754.685c37.437-277.199,324.801-445.769,585.432-343.18C1362.707,688.684,1075.608,857.38,814.709,754.685z"/>
	<path d="M815.341,874.81c258.595-101.785,544.274,65.121,584.167,338.857C1141.442,1315.242,855.338,1149.252,815.341,874.81z"/>
	<path d="M709.14,690.879c-0.844,0.632-1.688,1.159-2.426,1.793c-219.422-172.465-218.88-503.265-2.426-675.815
		c0.843-0.633,1.688-1.266,2.425-1.899C926.964,188.985,924.76,518.871,709.14,690.879z"/>
	<path d="M12.97,409.817c261.15-100.231,545.916,72.061,581.635,346.661C332.105,857.004,48.13,682.704,12.97,409.817z"/>
	<path d="M13.708,1215.249c38.923-273.013,320.907-440.44,580.054-342.021C554.773,1146.694,272.558,1313.358,13.708,1215.249z"/>
	<path d="M547.313,1343.831l318.794,0c7.107-44.737,7.096-90.513-0.04-135.564l-318.784,0
		C540.17,1253.003,540.176,1298.781,547.313,1343.831z"/>
	<path fill="#FFFF00" d="M547.282,1208.267l318.784,0c-7.391-46.662-22.538-92.495-45.647-135.564l-227.578,0
		C570.053,1115.333,554.765,1161.206,547.282,1208.267z"/>
	<path d="M706.712,937.14c-0.738,0.632-1.582,1.265-2.426,1.898c-47.362,37.74-84.602,83.451-111.445,133.666l227.578-0.001
		C790.975,1017.826,752.618,973.394,706.712,937.14z"/>
	<path fill="#FFFF00" d="M592.979,1479.394l227.59,0c22.781-42.63,38.062-88.503,45.537-135.564l-318.794,0
		C554.704,1390.491,569.856,1436.325,592.979,1479.394z"/>
	<path d="M706.713,1614.958c0.739-0.633,1.583-1.265,2.427-1.898c47.363-37.74,84.595-83.451,111.429-133.665l-227.591,0
		C621.945,1533.349,660.036,1578.093,706.713,1614.958z"/>
</g>
</svg>
