<?xml version="1.0" encoding="UTF-8" standalone="no"?>
<!-- Created with Inkscape (http://www.inkscape.org/) -->

<svg
   xmlns:dc="http://purl.org/dc/elements/1.1/"
   xmlns:cc="http://creativecommons.org/ns#"
   xmlns:rdf="http://www.w3.org/1999/02/22-rdf-syntax-ns#"
   xmlns:svg="http://www.w3.org/2000/svg"
   xmlns="http://www.w3.org/2000/svg"
   xmlns:sodipodi="http://sodipodi.sourceforge.net/DTD/sodipodi-0.dtd"
   xmlns:inkscape="http://www.inkscape.org/namespaces/inkscape"
   width="1052.3622"
   height="744.09448"
   id="svg2"
   version="1.1"
   inkscape:version="0.48+devel r9772"
   sodipodi:docname="02-rotterdam.svg">
  <defs
     id="defs4" />
  <sodipodi:namedview
     id="base"
     pagecolor="#ffffff"
     bordercolor="#666666"
     borderopacity="1.0"
     inkscape:pageopacity="0.0"
     inkscape:pageshadow="2"
     inkscape:zoom="0.85069842"
     inkscape:cx="526.18109"
     inkscape:cy="372.04724"
     inkscape:document-units="px"
     inkscape:current-layer="layer1"
     showgrid="false"
     inkscape:window-width="1440"
     inkscape:window-height="851"
     inkscape:window-x="0"
     inkscape:window-y="1"
     inkscape:window-maximized="1" />
  <metadata
     id="metadata7">
    <rdf:RDF>
      <cc:Work
         rdf:about="">
        <dc:format>image/svg+xml</dc:format>
        <dc:type
           rdf:resource="http://purl.org/dc/dcmitype/StillImage" />
        <dc:title></dc:title>
      </cc:Work>
    </rdf:RDF>
  </metadata>
  <g
     inkscape:label="Layer 1"
     inkscape:groupmode="layer"
     id="layer1"
     transform="translate(0,-308.2677)">
    <g
       id="g7554"
       transform="matrix(2.3273098,0,0,2.3273098,-830.56129,-782.39743)">
      <path
         transform="translate(0,308.2677)"
         id="path7419"
         d="m 658.125,288.46875 c -0.36722,-0.41956 -1.92498,4.41794 -3.46875,10.75 -1.92456,7.89391 -3.25472,11.53125 -4.21875,11.53125 -1.20781,0 -1.20722,0.38761 0,2.75 1.01636,1.98891 1.14502,3.4419 0.4375,5.25 -0.53804,1.375 -0.97675,5.65 -0.96875,9.5 0.091,42.1905 0.26454,49.5 1.21875,49.5 0.707,0 0.94918,-8.71709 0.75,-27 l -0.28125,-27 6.5,0 6.5,0 -0.28125,27.5 -0.3125,27.5 7.0625,0 7.03125,0 0,-20 0,-20 57.5,0 57.5,0 0,40.9375 2.03125,0 c 0.11537,-25.49487 0.35408,-40.56594 1,-40.78125 0.90381,-0.30125 0.88497,-0.60193 -0.0625,-1.1875 -0.68844,-0.42548 -1.3008,-2.28461 -1.375,-4.125 -0.093,-2.30561 -0.68538,-3.42715 -1.875,-3.65625 -1.33297,-0.25671 -1.71875,0.34597 -1.71875,2.71875 0,1.69032 -0.22396,3.09375 -0.5,3.09375 -0.27603,0 -4.39426,-1.35 -9.15625,-3 -8.3266,-2.88511 -9.32409,-3 -26,-3 l -17.34375,0 0,-3 c 0,-2.53333 -0.38889,-3 -2.5,-3 -2.11111,0 -2.5,0.46667 -2.5,3 l 0,3 -16.8125,0 c -15.00528,0 -17.57378,0.25521 -23.75,2.34375 -11.33898,3.83438 -12.4375,3.98736 -12.4375,1.78125 0,-1.9145 -2.28181,-3.5307 -3.40625,-2.40625 -0.32878,0.32877 -0.59375,1.87916 -0.59375,3.4375 0,1.98755 -0.52239,2.8561 -1.75,2.9375 -1.66667,0.11048 -1.66667,0.1582 0,0.59375 1.59092,0.41575 1.75,2.21429 1.75,19.875 l 0,19.4375 -5.0625,0 -5.03125,0 0.0312,-28.25 c 0.0259,-15.5375 -0.20305,-29.68191 -0.53125,-31.40625 -0.3282,-1.72434 -0.0913,-4.08684 0.53125,-5.25 0.89852,-1.6789 0.84706,-2.09375 -0.25,-2.09375 -0.91666,0 -2.33126,-3.61932 -4.1875,-10.75 -1.53913,-5.9125 -3.10152,-11.11169 -3.46875,-11.53125 z"
         style="fill:#ffffff;stroke:#000000"
         inkscape:connector-curvature="0" />
      <path
         id="path7417"
         d="m 786.09326,644.60056 c 0,-0.2245 -2.78738,-1.3495 -6.19417,-2.5 -5.84988,-1.97553 -8.28473,-2.0918 -43.80521,-2.0918 -37.23522,0 -37.68044,0.0242 -44.55583,2.42557 l -6.94479,2.42556 50.75,0.0744 c 27.9125,0.041 50.75,-0.10922 50.75,-0.33373 z"
         style="fill:#ffffff;stroke:#000000"
         inkscape:connector-curvature="0" />
      <path
         id="path7415"
         d="m 736.09326,636.00876 c 0,-1.1 -0.35357,-2 -0.78571,-2 -0.43215,0 -0.78572,0.9 -0.78572,2 0,1.1 0.35357,2 0.78572,2 0.43214,0 0.78571,-0.9 0.78571,-2 z"
         style="fill:#ffffff;stroke:#000000"
         inkscape:connector-curvature="0" />
      <path
         id="path7413"
         d="m 663.09326,627.00876 c 0,-2.93333 -0.11111,-3 -5,-3 -4.88889,0 -5,0.0667 -5,3 0,2.93333 0.11111,3 5,3 4.88889,0 5,-0.0667 5,-3 z"
         style="fill:#ffffff;stroke:#000000"
         inkscape:connector-curvature="0" />
      <path
         id="path7411"
         d="m 664.09326,621.49519 c 0,-0.28246 -0.41544,-1.29496 -0.9232,-2.25 -0.50775,-0.95504 -1.65861,-4.66143 -2.55746,-8.23643 -2.52125,-10.02785 -2.63004,-10.0495 -5.02471,-1 -1.23709,4.675 -2.57761,9.2875 -2.97893,10.25 -0.64849,1.55528 -0.0502,1.75 5.37731,1.75 3.35885,0 6.10699,-0.23111 6.10699,-0.51357 z"
         style="fill:#ffffff;stroke:#000000"
         inkscape:connector-curvature="0" />
      <path
         id="path7399"
         d="m 372.48532,670.32341 c -0.19354,-18.16752 -3.20697,-15.90035 -3.33443,2.50867 -0.0513,7.41052 0.13429,8.28494 1.69237,7.97325 1.53728,-0.30753 1.73688,-1.58164 1.64206,-10.48192 z"
         style="fill:#ffffff;stroke:#000000"
         inkscape:connector-curvature="0" />
      <path
         id="path7397"
         d="m 384.89326,677.80876 c 2.33015,-2.33015 0.79414,-32.42277 -1.79419,-35.15066 -2.69616,-2.84155 -5.50355,29.6836 -2.97063,34.4164 1.17957,2.20405 3.01256,2.48652 4.76482,0.73426 z"
         style="fill:#ffffff;stroke:#000000"
         inkscape:connector-curvature="0" />
      <path
         id="path7395"
         d="m 413.09326,665.50876 0,-7.5 -9.83595,0 -9.83595,0 -0.13532,7.5 -0.13532,7.5 9.97127,0 9.97127,0 0,-7.5 z"
         style="fill:#ffffff;stroke:#000000"
         inkscape:connector-curvature="0" />
      <path
         id="path7393"
         d="m 396.09326,665.50876 c 0,-1.925 0.45,-3.5 1,-3.5 0.55,0 1,1.575 1,3.5 0,1.925 -0.45,3.5 -1,3.5 -0.55,0 -1,-1.575 -1,-3.5 z"
         style="fill:#ffffff;stroke:#000000"
         inkscape:connector-curvature="0" />
      <path
         id="path7391"
         d="m 399.86087,666.57341 c -0.25605,-1.33945 -0.0904,-3.02695 0.36811,-3.75 0.5314,-0.838 0.83921,0.045 0.84897,2.43535 0.0175,4.28708 -0.53482,4.88368 -1.21708,1.31465 z"
         style="fill:#ffffff;stroke:#000000"
         inkscape:connector-curvature="0" />
      <path
         id="path7389"
         d="m 405.09326,665.50876 c 0,-1.925 0.45,-3.5 1,-3.5 0.55,0 1,1.575 1,3.5 0,1.925 -0.45,3.5 -1,3.5 -0.55,0 -1,-1.575 -1,-3.5 z"
         style="fill:#ffffff;stroke:#000000"
         inkscape:connector-curvature="0" />
      <path
         id="path7387"
         d="m 408.09326,665.50876 c 0,-1.925 0.45,-3.5 1,-3.5 0.55,0 1,1.575 1,3.5 0,1.925 -0.45,3.5 -1,3.5 -0.55,0 -1,-1.575 -1,-3.5 z"
         style="fill:#ffffff;stroke:#000000"
         inkscape:connector-curvature="0" />
      <path
         id="path7385"
         d="m 442.09326,665.50876 0,-7.5 -9.5,0 -9.5,0 0,7.5 0,7.5 9.5,0 9.5,0 0,-7.5 z"
         style="fill:#ffffff;stroke:#000000"
         inkscape:connector-curvature="0" />
      <path
         id="path7383"
         d="m 426.09326,665.50876 c 0,-1.925 0.3375,-3.5 0.75,-3.5 0.4125,0 0.75,1.575 0.75,3.5 0,1.925 -0.3375,3.5 -0.75,3.5 -0.4125,0 -0.75,-1.575 -0.75,-3.5 z"
         style="fill:#ffffff;stroke:#000000"
         inkscape:connector-curvature="0" />
      <path
         id="path7381"
         d="m 429.09326,665.50876 c 0,-1.925 0.45,-3.5 1,-3.5 0.55,0 1,1.575 1,3.5 0,1.925 -0.45,3.5 -1,3.5 -0.55,0 -1,-1.575 -1,-3.5 z"
         style="fill:#ffffff;stroke:#000000"
         inkscape:connector-curvature="0" />
      <path
         id="path7379"
         d="m 434.39043,665.50876 c -0.0546,-1.925 0.30624,-3.5 0.80181,-3.5 0.49556,0 0.90102,1.575 0.90102,3.5 0,1.925 -0.36082,3.5 -0.80181,3.5 -0.441,0 -0.84646,-1.575 -0.90102,-3.5 z"
         style="fill:#ffffff;stroke:#000000"
         inkscape:connector-curvature="0" />
      <path
         id="path7377"
         d="m 438.09326,665.50876 c 0,-4.5669 1.47704,-4.56414 1.57503,0.003 0.0413,1.92338 -0.29624,3.49706 -0.75,3.49706 -0.45377,-6e-5 -0.82503,-1.57506 -0.82503,-3.50006 z"
         style="fill:#ffffff;stroke:#000000"
         inkscape:connector-curvature="0" />
      <path
         id="path7375"
         d="m 472.96328,662.8438 12.37002,-1.18786 -0.67007,-6.54031 c -0.36854,-3.59717 -0.76492,-6.63515 -0.88083,-6.75107 -0.21668,-0.21667 -27.10142,2.73596 -27.29939,2.99817 -0.0606,0.0803 0.10595,2.95853 0.37019,6.39603 0.37721,4.90708 0.83064,6.25246 2.11025,6.26145 0.8964,0.006 7.19632,-0.52309 13.99983,-1.17641 z"
         style="fill:#ffffff;stroke:#000000"
         inkscape:connector-curvature="0" />
      <path
         id="path7373"
         d="m 460.84459,658.25876 c -0.43976,-3.52762 -0.2085,-5.11474 0.60713,-4.16667 0.83928,0.97557 1.44256,7.91667 0.68808,7.91667 -0.45525,0 -1.0381,-1.6875 -1.29521,-3.75 z"
         style="fill:#ffffff;stroke:#000000"
         inkscape:connector-curvature="0" />
      <path
         id="path7371"
         d="m 465.85691,660.00876 c -1.14659,-3.89285 -0.96806,-7.60441 0.30457,-6.33178 0.58752,0.58752 0.92502,2.81502 0.75,4.95 -0.28284,3.45017 -0.40009,3.60381 -1.05457,1.38178 z"
         style="fill:#ffffff;stroke:#000000"
         inkscape:connector-curvature="0" />
      <path
         id="path7369"
         d="m 470.16355,656.75876 c 0.0544,-3.29154 0.2641,-3.79896 0.92971,-2.25 1.19837,2.78876 1.19837,6.5 0,6.5 -0.55,0 -0.96837,-1.9125 -0.92971,-4.25 z"
         style="fill:#ffffff;stroke:#000000"
         inkscape:connector-curvature="0" />
      <path
         id="path7367"
         d="m 474.81402,656.75876 c -0.27844,-1.7875 -0.1555,-3.62651 0.27319,-4.0867 0.4287,-0.46018 0.95482,1.00232 1.16917,3.25 0.46184,4.84286 -0.71225,5.52393 -1.44236,0.8367 z"
         style="fill:#ffffff;stroke:#000000"
         inkscape:connector-curvature="0" />
      <path
         id="path7365"
         d="m 479.68963,656.71216 c -0.46005,-2.08814 -0.55743,-4.07564 -0.21641,-4.41666 1.19197,-1.19197 1.74993,0.54343 1.40279,4.36297 l -0.34994,3.85032 -0.83644,-3.79663 z"
         style="fill:#ffffff;stroke:#000000"
         inkscape:connector-curvature="0" />
      <path
         id="path7363"
         d="m 413.09326,647.97255 0,-8.03621 -9.75,0.28621 -9.75,0.28621 -0.30215,7.75 -0.30214,7.75 10.05214,0 10.05215,0 0,-8.03621 z"
         style="fill:#ffffff;stroke:#000000"
         inkscape:connector-curvature="0" />
      <path
         id="path7361"
         d="m 396.09326,648.56778 c 0,-1.89254 0.45,-3.7191 1,-4.05902 0.60393,-0.37325 1,0.98962 1,3.44098 0,2.23246 -0.45,4.05902 -1,4.05902 -0.55,0 -1,-1.54844 -1,-3.44098 z"
         style="fill:#ffffff;stroke:#000000"
         inkscape:connector-curvature="0" />
      <path
         id="path7359"
         d="m 399.56668,650.75876 c -0.25509,-0.6875 -0.0547,-2.6 0.44543,-4.25 0.88217,-2.91066 0.9118,-2.87344 0.9952,1.25 0.0845,4.18047 -0.52874,5.4576 -1.44063,3 z"
         style="fill:#ffffff;stroke:#000000"
         inkscape:connector-curvature="0" />
      <path
         id="path7357"
         d="m 405.09326,648.00876 c 0,-2.2 0.45,-4 1,-4 0.55,0 1,1.8 1,4 0,2.2 -0.45,4 -1,4 -0.55,0 -1,-1.8 -1,-4 z"
         style="fill:#ffffff;stroke:#000000"
         inkscape:connector-curvature="0" />
      <path
         id="path7355"
         d="m 408.09326,648.00876 c 0,-2.2 0.45,-4 1,-4 0.55,0 1,1.8 1,4 0,2.2 -0.45,4 -1,4 -0.55,0 -1,-1.8 -1,-4 z"
         style="fill:#ffffff;stroke:#000000"
         inkscape:connector-curvature="0" />
      <path
         id="path7353"
         d="m 442.09326,648.00876 0,-8 -9.5,0 -9.5,0 0,8 0,8 9.5,0 9.5,0 0,-8 z"
         style="fill:#ffffff;stroke:#000000"
         inkscape:connector-curvature="0" />
      <path
         id="path7351"
         d="m 426.09326,647.84209 c 0,-2.29166 0.25911,-3.90755 0.5758,-3.59086 0.9589,0.9589 1.2086,7.75753 0.28492,7.75753 -0.4734,0 -0.86072,-1.875 -0.86072,-4.16667 z"
         style="fill:#ffffff;stroke:#000000"
         inkscape:connector-curvature="0" />
      <path
         id="path7349"
         d="m 429.09326,647.94974 c 0,-2.45136 0.39607,-3.81423 1,-3.44098 0.55,0.33992 1,2.16648 1,4.05902 0,1.89254 -0.45,3.44098 -1,3.44098 -0.55,0 -1,-1.82656 -1,-4.05902 z"
         style="fill:#ffffff;stroke:#000000"
         inkscape:connector-curvature="0" />
      <path
         id="path7347"
         d="m 434.77808,649.91153 c -0.30164,-1.15348 -0.15765,-3.06598 0.31999,-4.25 0.69969,-1.7345 0.88073,-1.32702 0.9318,2.09723 0.0691,4.63479 -0.39431,5.43178 -1.25179,2.15277 z"
         style="fill:#ffffff;stroke:#000000"
         inkscape:connector-curvature="0" />
      <path
         id="path7345"
         d="m 438.16355,647.75876 c 0.0497,-3.00669 0.29156,-3.68502 0.82667,-2.31872 0.70764,1.8068 0.33535,6.56872 -0.51354,6.56872 -0.21088,0 -0.35179,-1.9125 -0.31313,-4.25 z"
         style="fill:#ffffff;stroke:#000000"
         inkscape:connector-curvature="0" />
      <path
         id="path7343"
         d="m 473.5887,647.68916 9.99545,-1.20403 -0.28347,-3.98816 c -0.15591,-2.19349 -0.50543,-5.12696 -0.77673,-6.51883 l -0.49325,-2.53067 -13.46872,1.4396 -13.46872,1.43959 0,3.71608 c 0,2.04384 0.27144,5.07327 0.6032,6.73207 0.56101,2.80503 0.85829,2.98461 4.25,2.56719 2.00574,-0.24685 8.14475,-0.99063 13.64224,-1.65284 z"
         style="fill:#ffffff;stroke:#000000"
         inkscape:connector-curvature="0" />
      <path
         id="path7341"
         d="m 459.19294,642.75876 c 0.0847,-3.61042 0.22017,-3.87378 0.90032,-1.75 1.15252,3.59873 1.15252,6 0,6 -0.55,0 -0.95514,-1.9125 -0.90032,-4.25 z"
         style="fill:#ffffff;stroke:#000000"
         inkscape:connector-curvature="0" />
      <path
         id="path7339"
         d="m 463.84459,643.25876 c -0.43976,-3.52762 -0.2085,-5.11474 0.60713,-4.16667 0.83928,0.97557 1.44256,7.91667 0.68808,7.91667 -0.45525,0 -1.0381,-1.6875 -1.29521,-3.75 z"
         style="fill:#ffffff;stroke:#000000"
         inkscape:connector-curvature="0" />
      <path
         id="path7337"
         d="m 468.84326,644.67697 c -1.18917,-2.9044 -0.95397,-7.27218 0.32284,-5.99537 0.59007,0.59007 0.92757,2.59257 0.75,4.45 -0.25009,2.61611 -0.49186,2.96436 -1.07284,1.54537 z"
         style="fill:#ffffff;stroke:#000000"
         inkscape:connector-curvature="0" />
      <path
         id="path7335"
         d="m 473.84326,645.43703 c -0.4125,-0.41888 -0.72148,-2.3741 -0.68661,-4.34494 0.0595,-3.36152 0.12402,-3.43148 1.04292,-1.13017 1.08337,2.71317 0.82552,6.67522 -0.35631,5.47511 z"
         style="fill:#ffffff;stroke:#000000"
         inkscape:connector-curvature="0" />
      <path
         id="path7333"
         d="m 477.75492,641.31127 c -0.54457,-3.3558 -0.22502,-5.29069 0.6968,-4.21918 0.82542,0.95946 1.44894,7.91667 0.70951,7.91667 -0.44346,0 -1.07629,-1.66387 -1.40631,-3.69749 z"
         style="fill:#ffffff;stroke:#000000"
         inkscape:connector-curvature="0" />
      <path
         id="path7331"
         d="m 413.09326,631.6955 0,-7.31326 -9.75,0.0633 -9.75,0.0633 -0.19933,6 c -0.10964,3.3 -0.0113,6.5625 0.21861,7.25 0.29535,0.88334 3.2138,1.25 9.94934,1.25 l 9.53138,0 0,-7.31326 z"
         style="fill:#ffffff;stroke:#000000"
         inkscape:connector-curvature="0" />
      <path
         id="path7329"
         d="m 396.75993,634.34209 c -1.05826,-1.05825 -0.77303,-7.33333 0.33333,-7.33333 0.55,0 1,1.8 1,4 0,4.08729 -0.16554,4.50113 -1.33333,3.33333 z"
         style="fill:#ffffff;stroke:#000000"
         inkscape:connector-curvature="0" />
      <path
         id="path7327"
         d="m 399.62377,634.05812 c -0.63322,-1.02457 0.0328,-5.94603 0.92552,-6.83872 0.29918,-0.29919 0.54397,1.33103 0.54397,3.62269 0,4.17576 -0.3725,4.991 -1.46949,3.21603 z"
         style="fill:#ffffff;stroke:#000000"
         inkscape:connector-curvature="0" />
      <path
         id="path7325"
         d="m 405.09326,631.00876 c 0,-2.2 0.45,-4 1,-4 0.55,0 1,1.8 1,4 0,2.2 -0.45,4 -1,4 -0.55,0 -1,-1.8 -1,-4 z"
         style="fill:#ffffff;stroke:#000000"
         inkscape:connector-curvature="0" />
      <path
         id="path7323"
         d="m 408.75993,634.34209 c -1.05826,-1.05825 -0.77303,-7.33333 0.33333,-7.33333 0.55,0 1,1.8 1,4 0,4.08729 -0.16554,4.50113 -1.33333,3.33333 z"
         style="fill:#ffffff;stroke:#000000"
         inkscape:connector-curvature="0" />
      <path
         id="path7321"
         d="m 471.37602,632.92509 10.78275,-1.21508 -0.66529,-6.10063 c -0.36591,-3.35534 -0.81808,-6.27555 -1.00483,-6.48936 -0.51154,-0.58567 -25.16735,2.12977 -26.43139,2.91099 -0.73293,0.45298 -0.86301,2.74818 -0.3918,6.91318 l 0.70542,6.23507 3.11119,-0.51954 c 1.71116,-0.28575 7.96343,-1.06633 13.89395,-1.73463 z"
         style="fill:#ffffff;stroke:#000000"
         inkscape:connector-curvature="0" />
      <path
         id="path7319"
         d="m 457.84326,630.67697 c -1.18917,-2.9044 -0.95397,-7.27218 0.32284,-5.99537 0.59007,0.59007 0.92757,2.59257 0.75,4.45 -0.25009,2.61611 -0.49186,2.96436 -1.07284,1.54537 z"
         style="fill:#ffffff;stroke:#000000"
         inkscape:connector-curvature="0" />
      <path
         id="path7317"
         d="m 462.16355,627.75876 c 0.0544,-3.29154 0.2641,-3.79896 0.92971,-2.25 1.19837,2.78876 1.19837,6.5 0,6.5 -0.55,0 -0.96837,-1.9125 -0.92971,-4.25 z"
         style="fill:#ffffff;stroke:#000000"
         inkscape:connector-curvature="0" />
      <path
         id="path7315"
         d="m 467.07961,629.25876 c -0.008,-0.9625 -0.285,-2.7625 -0.61664,-4 -0.33442,-1.2479 -0.15243,-2.25 0.40862,-2.25 0.55638,0 1.18326,1.8 1.39306,4 0.2098,2.2 0.0321,4 -0.39496,4 -0.42704,0 -0.78257,-0.7875 -0.79008,-1.75 z"
         style="fill:#ffffff;stroke:#000000"
         inkscape:connector-curvature="0" />
      <path
         id="path7313"
         d="m 471.70025,629.42697 c -0.95191,-2.48064 -0.7108,-6.41821 0.39301,-6.41821 0.55,0 1,1.8 1,4 0,4.26299 -0.41119,4.9768 -1.39301,2.41821 z"
         style="fill:#ffffff;stroke:#000000"
         inkscape:connector-curvature="0" />
      <path
         id="path7311"
         d="m 476.16355,625.75876 c 0.0544,-3.29154 0.2641,-3.79896 0.92971,-2.25 1.19837,2.78876 1.19837,6.5 0,6.5 -0.55,0 -0.96837,-1.9125 -0.92971,-4.25 z"
         style="fill:#ffffff;stroke:#000000"
         inkscape:connector-curvature="0" />
      <path
         id="path7309"
         d="m 466.99892,618.49996 c 6.82312,-0.80805 12.60022,-1.66375 12.83802,-1.90155 0.23779,-0.23779 0.11279,-3.41643 -0.2778,-7.06363 -0.69501,-6.48991 -0.76617,-6.62047 -3.33801,-6.12396 -1.44533,0.27903 -7.68749,1.0357 -13.87146,1.68149 l -11.24359,1.17417 0.57709,5.62114 c 0.68038,6.62714 1.07476,8.12805 2.12871,8.10134 0.42976,-0.0109 6.36393,-0.68094 13.18704,-1.489 z"
         style="fill:#ffffff;stroke:#000000"
         inkscape:connector-curvature="0" />
      <path
         id="path7307"
         d="m 456.09326,615.64956 c 0,-1.36247 -0.27314,-3.18903 -0.60699,-4.05901 -0.33384,-0.86999 -0.15808,-1.58179 0.3906,-1.58179 1.22012,0 2.14934,6.9234 1.02268,7.61972 -0.44346,0.27407 -0.80629,-0.61644 -0.80629,-1.97892 z"
         style="fill:#ffffff;stroke:#000000"
         inkscape:connector-curvature="0" />
      <path
         id="path7305"
         d="m 460.70025,615.42697 c -0.95191,-2.48064 -0.7108,-6.41821 0.39301,-6.41821 0.55,0 1,1.8 1,4 0,4.26299 -0.41119,4.9768 -1.39301,2.41821 z"
         style="fill:#ffffff;stroke:#000000"
         inkscape:connector-curvature="0" />
      <path
         id="path7303"
         d="m 465.84326,616.4318 c -0.4125,-0.416 -0.70942,-2.59387 -0.65981,-4.83971 l 0.0902,-4.08333 0.96406,3.34903 c 1.04247,3.62138 0.81778,6.79654 -0.39444,5.57401 z"
         style="fill:#ffffff;stroke:#000000"
         inkscape:connector-curvature="0" />
      <path
         id="path7301"
         d="m 469.75492,612.31127 c -0.54457,-3.3558 -0.22502,-5.29069 0.6968,-4.21918 0.82542,0.95946 1.44894,7.91667 0.70951,7.91667 -0.44346,0 -1.07629,-1.66387 -1.40631,-3.69749 z"
         style="fill:#ffffff;stroke:#000000"
         inkscape:connector-curvature="0" />
      <path
         id="path7299"
         d="m 474.84326,613.67697 c -1.18917,-2.9044 -0.95397,-7.27218 0.32284,-5.99537 0.59007,0.59007 0.92757,2.59257 0.75,4.45 -0.25009,2.61611 -0.49186,2.96436 -1.07284,1.54537 z"
         style="fill:#ffffff;stroke:#000000"
         inkscape:connector-curvature="0" />
      <path
         id="path7297"
         d="m 457.59326,599.00876 c -0.44228,-3.21579 -0.31921,-5 0.34489,-5 0.56791,0 1.33623,2.025 1.70738,4.5 0.92448,6.16484 2.49778,5.71822 1.76132,-0.5 -0.36618,-3.09187 -0.20655,-5 0.41829,-5 0.55575,0 1.30893,2.25 1.67373,5 0.3648,2.75 1.07657,5 1.58172,5 0.51442,0 0.65794,-2.19949 0.32626,-5 -0.36618,-3.09187 -0.20655,-5 0.41829,-5 0.55575,0 1.3159,2.30253 1.68922,5.11674 0.85318,6.43162 2.0497,5.54719 1.68901,-1.24847 -0.18276,-3.44336 0.0788,-4.86958 0.81,-4.41765 0.59394,0.36708 1.08678,2.10336 1.0952,3.8584 0.008,1.75504 0.47824,3.86598 1.04403,4.69098 0.72681,1.05978 0.83231,-0.26088 0.35949,-4.5 -0.36808,-3.3 -0.81202,-6.16163 -0.98653,-6.35917 -0.17452,-0.19754 -3.99373,-0.0337 -8.48714,0.36402 l -8.16984,0.7232 0.60134,3.63598 c 0.33073,1.99978 0.60628,4.87347 0.61233,6.38597 0.006,1.5125 0.50324,2.75 1.10485,2.75 0.73763,0 0.86989,-1.62825 0.40616,-5 z"
         style="fill:#ffffff;stroke:#000000"
         inkscape:connector-curvature="0" />
      <path
         id="path7295"
         d="m 469.09326,581.40177 c 0,-1.05452 -0.5438,-1.39831 -1.58179,-1 -0.86998,0.33385 -2.21998,0.60699 -3,0.60699 -0.78001,0 -1.41821,0.45 -1.41821,1 0,0.55 1.35,1 3,1 2.08877,0 3,-0.48811 3,-1.60699 z"
         style="fill:#ffffff;stroke:#000000"
         inkscape:connector-curvature="0" />
      <path
         id="path7293"
         d="m 397.09326,681.67543 c 0,-4.79839 0.51596,-5.78964 2.59777,-4.99078 0.90852,0.34863 1.40223,2.08482 1.40223,4.9311 0,3.72634 -0.30351,4.39301 -2,4.39301 -1.69231,0 -2,-0.66667 -2,-4.33333 z"
         style="fill:#ffffff;stroke:#000000"
         inkscape:connector-curvature="0" />
      <path
         id="path7291"
         d="m 406.09326,681.50876 c 0,-3.33333 0.38889,-4.5 1.5,-4.5 1.11111,0 1.5,1.16667 1.5,4.5 0,3.33333 -0.38889,4.5 -1.5,4.5 -1.11111,0 -1.5,-1.16667 -1.5,-4.5 z"
         style="fill:#ffffff;stroke:#000000"
         inkscape:connector-curvature="0" />
      <path
         id="path7289"
         d="m 426.09326,681.61575 c 0,-2.84628 0.49371,-4.58247 1.40223,-4.9311 2.08181,-0.79886 2.59777,0.19239 2.59777,4.99078 0,3.66666 -0.30769,4.33333 -2,4.33333 -1.69649,0 -2,-0.66667 -2,-4.39301 z"
         style="fill:#ffffff;stroke:#000000"
         inkscape:connector-curvature="0" />
      <path
         id="path7287"
         d="m 435.09326,681.67545 c 0,-2.38334 0.2961,-4.62943 0.65799,-4.99133 1.40405,-1.40404 3.34201,1.75462 3.34201,5.4471 0,3.21089 -0.34386,3.87756 -2,3.87756 -1.69231,0 -2,-0.66667 -2,-4.33333 z"
         style="fill:#ffffff;stroke:#000000"
         inkscape:connector-curvature="0" />
      <path
         id="path7285"
         d="m 462.67274,683.75878 c -1.30518,-6.40328 -1.54824,-12.65127 -0.51694,-13.28865 1.92088,-1.18717 2.8177,0.81709 3.71051,8.29246 0.79207,6.63193 0.71283,7.24619 -0.93475,7.24619 -1.06432,0 -1.98767,-0.91975 -2.25882,-2.25 z"
         style="fill:#ffffff;stroke:#000000"
         inkscape:connector-curvature="0" />
      <path
         id="path7283"
         d="m 469.00888,684.25878 c -0.0464,-0.9625 -0.4095,-4.35453 -0.80686,-7.53785 -0.51657,-4.13828 -0.36989,-6.08046 0.51464,-6.81456 1.82832,-1.51737 2.99822,1.43856 3.7015,9.35241 0.55488,6.24398 0.45274,6.75 -1.36253,6.75 -1.17011,0 -1.99644,-0.70652 -2.04675,-1.75 z"
         style="fill:#ffffff;stroke:#000000"
         inkscape:connector-curvature="0" />
      <path
         id="path7281"
         d="m 474.73572,679.86209 c -0.94937,-9.08303 -0.81912,-10.85333 0.79852,-10.85333 2.0624,0 2.27185,0.6304 3.07335,9.25 0.67824,7.29392 0.60442,7.75 -1.25439,7.75 -1.68281,0 -2.07008,-0.90943 -2.61748,-6.14669 z"
         style="fill:#ffffff;stroke:#000000"
         inkscape:connector-curvature="0" />
      <path
         id="path7279"
         d="m 481.6342,682.75878 c -0.30233,-1.7875 -0.66022,-5.725 -0.79532,-8.75 -0.19147,-4.28749 0.079,-5.5 1.2267,-5.5 1.48841,0 2.23235,2.89358 3.27806,12.75 0.43725,4.1214 0.26152,4.75 -1.3279,4.75 -1.28728,0 -1.99527,-0.96616 -2.38154,-3.25 z"
         style="fill:#ffffff;stroke:#000000"
         inkscape:connector-curvature="0" />
      <path
         id="path7277"
         d="m 681.2249,682.79398 c -0.10187,-2.87478 0.362,-3.979 2.05136,-4.88312 1.83982,-0.98464 2.4452,-0.84448 3.851,0.8916 l 1.668,2.05989 2.11371,-2.1137 c 2.05814,-2.05814 2.1672,-2.06529 4.149,-0.27179 1.11941,1.01305 2.09453,3.00967 2.16693,4.43693 0.10916,2.15188 0.23724,2.01502 0.75,-0.80143 0.75993,-4.17404 3.26107,-6.05994 5.53454,-4.17313 0.8711,0.72295 1.61234,2.27186 1.64721,3.44201 0.0625,2.09809 0.0748,2.09938 0.88813,0.0928 0.45362,-1.11909 1.55853,-2.6437 2.45538,-3.38801 1.38835,-1.15223 1.92498,-1.0869 3.61186,0.43971 1.90631,1.72518 2.05909,1.72254 4.03978,-0.0699 2.71635,-2.45827 5.22179,-0.94648 6.05982,3.65653 l 0.61836,3.39644 0.13164,-3.21482 c 0.17549,-4.28568 3.43113,-6.22911 6.21483,-3.7099 1.81909,1.64626 2.01453,1.64626 3.83362,0 1.49375,-1.35182 2.35736,-1.49891 3.91285,-0.66644 1.09782,0.58753 2.22473,1.6359 2.50424,2.3297 0.37811,0.93853 0.52842,0.95047 0.58715,0.0466 0.0434,-0.66815 1.01638,-1.71651 2.16214,-2.3297 1.6619,-0.88943 2.47082,-0.76408 4,0.6198 1.81909,1.64626 2.01453,1.64626 3.83362,0 2.91233,-2.63562 6.08319,-0.57152 6.08319,3.9599 0,1.90565 -0.3876,3.46482 -0.86133,3.46482 -0.47373,0 -0.66254,-1.03987 -0.41959,-2.31082 0.47851,-2.50315 -1.94627,-5.28484 -3.67528,-4.21625 -0.57409,0.35481 -1.0438,1.96855 -1.0438,3.58609 0,2.27431 -0.45336,2.94098 -2,2.94098 -1.54664,0 -2,-0.66667 -2,-2.94098 0,-1.61754 -0.46971,-3.23128 -1.0438,-3.58609 -1.63248,-1.00893 -3.9459,1.5005 -4.05588,4.39951 l -0.0997,2.62756 -0.74766,-2.5 -0.74766,-2.5 -0.51648,2.5 -0.51648,2.5 -0.13618,-2.62756 c -0.15079,-2.9095 -2.46966,-5.4024 -4.09238,-4.39951 -0.57409,0.35481 -1.0438,1.96855 -1.0438,3.58609 0,2.27431 -0.45336,2.94098 -2,2.94098 -1.54664,0 -2,-0.66667 -2,-2.94098 0,-1.61754 -0.46971,-3.23128 -1.0438,-3.58609 -1.75238,-1.08303 -3.70684,1.38067 -3.19974,4.03342 0.38673,2.0229 0.0772,2.49364 -1.63986,2.49364 -1.66769,0 -2.11658,-0.61355 -2.11658,-2.89301 0,-1.72204 -0.64366,-3.14001 -1.59024,-3.50325 -2.35822,-0.90493 -3.40976,0.16064 -3.40976,3.45528 0,2.24224 -0.46012,2.94098 -1.93664,2.94098 -1.45399,0 -2.01474,-0.80998 -2.25,-3.25 -0.20084,-2.08295 -0.852,-3.25 -1.81336,-3.25 -0.96136,0 -1.61252,1.16705 -1.81336,3.25 -0.23126,2.39853 -0.80414,3.25 -2.18664,3.25 -1.3825,0 -1.95538,-0.85147 -2.18664,-3.25 -0.23901,-2.47888 -0.7879,-3.25 -2.31336,-3.25 -1.52546,0 -2.07435,0.77112 -2.31336,3.25 -0.23126,2.39853 -0.80414,3.25 -2.18664,3.25 -1.3825,0 -1.95538,-0.85147 -2.18664,-3.25 -0.20084,-2.08295 -0.852,-3.25 -1.81336,-3.25 -0.96136,0 -1.61252,1.16705 -1.81336,3.25 -0.23126,2.39853 -0.80414,3.25 -2.18664,3.25 -1.3825,0 -1.95538,-0.85147 -2.18664,-3.25 -0.23901,-2.47888 -0.7879,-3.25 -2.31336,-3.25 -1.50126,0 -2.1542,0.87279 -2.61836,3.5 l -0.61836,3.5 -0.13164,-3.71482 z"
         style="fill:#ffffff;stroke:#000000"
         inkscape:connector-curvature="0" />
      <path
         id="path7275"
         d="m 757.19562,682.79398 c -0.0787,-2.85732 0.40154,-3.98449 2.08064,-4.88312 1.83982,-0.98464 2.4452,-0.84448 3.851,0.8916 l 1.668,2.05989 2.02717,-2.02716 c 1.67127,-1.67127 2.39968,-1.8278 4.149,-0.89159 1.167,0.62456 2.12183,1.56973 2.12183,2.10038 0,0.53065 0.91031,0.0545 2.02292,-1.0581 1.60672,-1.60672 2.42968,-1.80522 4,-0.96481 1.08739,0.58195 1.97708,1.57071 1.97708,2.19723 0,0.62652 1.12028,0.0867 2.48952,-1.19966 2.41698,-2.27063 2.54811,-2.28576 4.5,-0.51932 1.11651,1.01042 2.01048,3.0845 2.01048,4.66447 0,3.92698 -1.80113,3.59339 -2.18664,-0.40499 -0.20084,-2.08295 -0.852,-3.25 -1.81336,-3.25 -0.96136,0 -1.61252,1.16705 -1.81336,3.25 -0.23526,2.44002 -0.79601,3.25 -2.25,3.25 -1.48961,-4e-5 -1.93664,-0.69976 -1.93664,-3.03142 0,-1.85701 -0.62021,-3.26939 -1.60092,-3.64572 -1.87087,-0.71792 -3.36203,1.23302 -3.38377,4.4271 -0.0106,1.55353 -0.61479,2.25 -1.95195,2.25 -1.45399,0 -2.01474,-0.80998 -2.25,-3.25 -0.20084,-2.08295 -0.852,-3.25 -1.81336,-3.25 -0.96136,0 -1.61252,1.16705 -1.81336,3.25 -0.23526,2.44002 -0.79601,3.25 -2.25,3.25 -1.48961,0 -1.93664,-0.69972 -1.93664,-3.03138 0,-1.80973 -0.62189,-3.27003 -1.54313,-3.62354 -1.98547,-0.7619 -2.51701,-0.17158 -3.47043,3.85417 l -0.78172,3.30075 -0.10236,-3.71482 z"
         style="fill:#ffffff;stroke:#000000"
         inkscape:connector-curvature="0" />
      <path
         id="path7273"
         d="m 496.09326,678.70876 c 0,-6.76351 1.03832,-8.7 4.66482,-8.7 2.9827,0 4.33518,2.75391 4.33518,8.82727 0,5.37456 -0.78641,6.17273 -6.08179,6.17273 -2.91548,0 -2.91821,-0.006 -2.91821,-6.3 z"
         style="fill:#ffffff;stroke:#000000"
         inkscape:connector-curvature="0" />
      <path
         id="path7271"
         d="m 503.09326,678.1312 c 0,-5.59928 -1.9438,-8.2439 -4.5,-6.12244 -0.95816,0.7952 -1.5,3.00679 -1.5,6.12244 0,4.75284 0.0767,4.87756 3,4.87756 2.92329,0 3,-0.12472 3,-4.87756 z"
         style="fill:#ffffff;stroke:#000000"
         inkscape:connector-curvature="0" />
      <path
         id="path7269"
         d="m 631.19959,684.07447 c -0.79816,-0.49328 -1.10728,-2.92927 -0.90817,-7.15677 0.28294,-6.00758 0.4584,-6.42516 2.80184,-6.66799 4.40552,-0.4565 5.47577,1.09677 5.48841,7.96541 l 0.0116,6.29364 -3.09183,0.15677 c -1.7005,0.0862 -3.63633,-0.17975 -4.30184,-0.59106 z"
         style="fill:#ffffff;stroke:#000000"
         inkscape:connector-curvature="0" />
      <path
         id="path7267"
         d="m 637.09326,678.1312 c 0,-5.59928 -1.9438,-8.2439 -4.5,-6.12244 -0.95816,0.7952 -1.5,3.00679 -1.5,6.12244 0,4.75284 0.0767,4.87756 3,4.87756 2.92329,0 3,-0.12472 3,-4.87756 z"
         style="fill:#ffffff;stroke:#000000"
         inkscape:connector-curvature="0" />
      <path
         id="path7265"
         d="m 507.09326,677.70876 c 0,-6.76351 1.03832,-8.7 4.66482,-8.7 3.05887,0 4.33518,2.77752 4.33518,9.43426 l 0,5.56574 -4.5,0 -4.5,0 0,-6.3 z"
         style="fill:#ffffff;stroke:#000000"
         inkscape:connector-curvature="0" />
      <path
         id="path7263"
         d="m 514.09326,677.63116 c 0,-6.25398 -1.77178,-8.7078 -4.39405,-6.08553 -1.04014,1.04014 -1.60595,3.34239 -1.60595,6.53452 0,4.80952 0.0725,4.92857 3,4.92857 2.96142,0 3,-0.0692 3,-5.37756 z"
         style="fill:#ffffff;stroke:#000000"
         inkscape:connector-curvature="0" />
      <path
         id="path7261"
         d="m 518.09326,677.58016 c 0,-6.51296 1.43792,-9.5714 4.5,-9.5714 3.06208,0 4.5,3.05844 4.5,9.57143 l 0,6.42857 -4.5,0 -4.5,0 0,-6.42857 z"
         style="fill:#ffffff;stroke:#000000"
         inkscape:connector-curvature="0" />
      <path
         id="path7259"
         d="m 525.09326,676.97735 c 0,-4.55372 -0.38396,-6.17873 -1.56722,-6.63279 -2.45296,-0.94129 -3.77752,1.20563 -3.94438,6.39324 -0.18842,5.85786 0.0139,6.27096 3.07062,6.27096 2.31817,0 2.44098,-0.30346 2.44098,-6.03138 z"
         style="fill:#ffffff;stroke:#000000"
         inkscape:connector-curvature="0" />
      <path
         id="path7257"
         d="m 529.09326,677.94299 c 0,-7.13878 1.2199,-9.93423 4.33518,-9.93423 3.69178,0 4.66482,1.91905 4.66482,9.2 l 0,6.8 -4.5,0 -4.5,0 0,-6.06574 z"
         style="fill:#ffffff;stroke:#000000"
         inkscape:connector-curvature="0" />
      <path
         id="path7255"
         d="m 535.26784,682.18844 c 1.32973,-0.53974 1.61426,-1.78342 1.38166,-6.03932 -0.29262,-5.35432 -1.64851,-7.42595 -4.21556,-6.44088 -0.92745,0.3559 -1.34068,2.48493 -1.34068,6.90748 0,6.54077 0.41729,7.09781 4.17458,5.57272 z"
         style="fill:#ffffff;stroke:#000000"
         inkscape:connector-curvature="0" />
      <path
         id="path7253"
         d="m 540.09326,677.50876 c 0,-5.16667 0.41026,-6.91026 2,-8.5 2.41134,-2.41134 3.37011,-2.48703 5.42857,-0.42857 1.12617,1.12616 1.57143,3.53463 1.57143,8.5 l 0,6.92857 -4.5,0 -4.5,0 0,-6.5 z"
         style="fill:#ffffff;stroke:#000000"
         inkscape:connector-curvature="0" />
      <path
         id="path7251"
         d="m 548.09326,677.19989 c 0,-5.46253 -1.86578,-8.84035 -4.35539,-7.88499 -1.27461,0.48911 -1.64461,1.98803 -1.64461,6.66248 l 0,6.03138 3,0 c 2.91744,0 3,-0.13235 3,-4.80887 z"
         style="fill:#ffffff;stroke:#000000"
         inkscape:connector-curvature="0" />
      <path
         id="path7249"
         d="m 551.44104,682.47267 c -1.07101,-2.79099 0.26495,-12.50521 1.95176,-14.19202 1.31006,-1.31007 2.10234,-1.40981 4.0715,-0.5126 2.12599,0.96866 2.48954,1.88937 2.78694,7.058 0.5042,8.7626 0.30918,9.18271 -4.26269,9.18271 -2.63711,0 -4.15478,-0.51265 -4.54751,-1.53609 z"
         style="fill:#ffffff;stroke:#000000"
         inkscape:connector-curvature="0" />
      <path
         id="path7247"
         d="m 559.07795,676.75876 c -0.0177,-6.08343 -0.97107,-8.09039 -3.60452,-7.58835 -1.56064,0.29752 -1.93077,1.41889 -2.17789,6.59839 l -0.29771,6.23996 3.04771,0 c 3.01189,0 3.04754,-0.0617 3.03241,-5.25 z"
         style="fill:#ffffff;stroke:#000000"
         inkscape:connector-curvature="0" />
      <path
         id="path7245"
         d="m 563.09326,676.70876 c 0,-7.50409 0.93797,-9.7 4.1433,-9.7 3.05846,0 4.8567,3.9701 4.8567,10.72251 l 0,6.27749 -4.5,0 -4.5,0 0,-7.3 z"
         style="fill:#ffffff;stroke:#000000"
         inkscape:connector-curvature="0" />
      <path
         id="path7243"
         d="m 569.89098,675.7688 c -0.24712,-5.1795 -0.61725,-6.30087 -2.17789,-6.59839 -2.63345,-0.50204 -3.58677,1.50492 -3.60452,7.58835 -0.0151,5.18828 0.0205,5.25 3.03241,5.25 l 3.04771,0 -0.29771,-6.23996 z"
         style="fill:#ffffff;stroke:#000000"
         inkscape:connector-curvature="0" />
      <path
         id="path7241"
         d="m 574.09326,677.08019 c 0,-4.96537 0.44526,-7.37384 1.57143,-8.5 4.10687,-4.10687 7.42857,-0.19102 7.42857,8.75731 l 0,6.67126 -4.5,0 -4.5,0 0,-6.92857 z"
         style="fill:#ffffff;stroke:#000000"
         inkscape:connector-curvature="0" />
      <path
         id="path7239"
         d="m 581.09326,675.97738 c 0,-4.46131 -0.39379,-6.1825 -1.51273,-6.61188 -2.82806,-1.08523 -4.48727,1.60134 -4.48727,7.2657 0,5.3084 0.0386,5.37756 3,5.37756 l 3,0 0,-6.03138 z"
         style="fill:#ffffff;stroke:#000000"
         inkscape:connector-curvature="0" />
      <path
         id="path7237"
         d="m 585.29945,676.87638 c 0.24238,-5.8838 0.65205,-7.36949 2.34019,-8.48678 1.74268,-1.15338 2.37342,-1.12532 4.25,0.18909 1.91171,1.33902 2.20362,2.46324 2.20362,8.48677 l 0,6.9433 -4.54381,0 -4.54381,0 0.29381,-7.13238 z"
         style="fill:#ffffff;stroke:#000000"
         inkscape:connector-curvature="0" />
      <path
         id="path7235"
         d="m 591.89098,675.75876 c -0.26124,-5.48409 -0.54281,-6.25 -2.29772,-6.25 -1.75491,0 -2.03648,0.76591 -2.29772,6.25 -0.29237,6.13776 -0.2511,6.25 2.29772,6.25 2.54882,0 2.59009,-0.11224 2.29772,-6.25 z"
         style="fill:#ffffff;stroke:#000000"
         inkscape:connector-curvature="0" />
      <path
         id="path7233"
         d="m 596.09326,677.94302 c 0,-7.13881 1.2199,-9.93426 4.33518,-9.93426 3.69178,0 4.66482,1.91905 4.66482,9.2 l 0,6.8 -4.5,0 -4.5,0 0,-6.06574 z"
         style="fill:#ffffff;stroke:#000000"
         inkscape:connector-curvature="0" />
      <path
         id="path7231"
         d="m 603.89137,677.36894 c 0.3194,-5.48677 -1.53077,-8.78373 -4.32705,-7.7107 -1.90688,0.73174 -2.10169,11.92358 -0.22106,12.69975 3.1665,1.30686 4.25085,0.11738 4.54811,-4.98905 z"
         style="fill:#ffffff;stroke:#000000"
         inkscape:connector-curvature="0" />
      <path
         id="path7229"
         d="m 607.09326,678.11954 c 0,-7.68184 2.38153,-11.16924 6.38253,-9.34626 2.46154,1.12156 2.61747,1.61089 2.61747,8.21404 l 0,7.02144 -4.5,0 -4.5,0 0,-5.88922 z"
         style="fill:#ffffff;stroke:#000000"
         inkscape:connector-curvature="0" />
      <path
         id="path7227"
         d="m 615.09326,677.6312 c 0,-5.66436 -1.65921,-8.35093 -4.48727,-7.2657 -1.11894,0.42938 -1.51273,2.15057 -1.51273,6.61188 l 0,6.03138 3,0 c 2.96142,0 3,-0.0692 3,-5.37756 z"
         style="fill:#ffffff;stroke:#000000"
         inkscape:connector-curvature="0" />
      <path
         id="path7225"
         d="m 618.09326,678.73127 c 0,-5.79321 1.99416,-9.72251 4.93426,-9.72251 2.97101,0 4.44354,2.81551 4.75465,9.09102 l 0.29295,5.90898 -4.99093,0 -4.99093,0 0,-5.27749 z"
         style="fill:#ffffff;stroke:#000000"
         inkscape:connector-curvature="0" />
      <path
         id="path7223"
         d="m 625.89316,677.25876 c -0.28095,-5.38669 -0.45786,-5.75 -2.7999,-5.75 -2.34204,0 -2.51895,0.36331 -2.7999,5.75 l -0.29991,5.75 3.09981,0 3.09981,0 -0.29991,-5.75 z"
         style="fill:#ffffff;stroke:#000000"
         inkscape:connector-curvature="0" />
      <path
         id="path7221"
         d="m 680.09326,671.67543 c 0,-4.79839 0.51596,-5.78964 2.59777,-4.99078 0.90852,0.34863 1.40223,2.08482 1.40223,4.9311 0,3.72634 -0.30351,4.39301 -2,4.39301 -1.69231,0 -2,-0.66667 -2,-4.33333 z"
         style="fill:#ffffff;stroke:#000000"
         inkscape:connector-curvature="0" />
      <path
         id="path7219"
         d="m 685.75993,675.34209 c -1.18828,-1.18827 -0.70511,-7.05654 0.67534,-8.20221 1.93903,-1.60925 2.65799,-0.38243 2.65799,4.53555 0,4.09074 -1.38536,5.61464 -3.33333,3.66666 z"
         style="fill:#ffffff;stroke:#000000"
         inkscape:connector-curvature="0" />
      <path
         id="path7217"
         d="m 691.28847,671.25876 c 0.3452,-5.3797 2.02697,-5.99212 2.85418,-1.03935 0.67949,4.06834 0.17081,5.78935 -1.71117,5.78935 -1.10331,0 -1.37528,-1.13021 -1.14301,-4.75 z"
         style="fill:#ffffff;stroke:#000000"
         inkscape:connector-curvature="0" />
      <path
         id="path7215"
         d="m 696.09326,671.61575 c 0,-2.84628 0.49371,-4.58247 1.40223,-4.9311 2.08181,-0.79886 2.59777,0.19239 2.59777,4.99078 0,3.66666 -0.30769,4.33333 -2,4.33333 -1.69649,0 -2,-0.66667 -2,-4.39301 z"
         style="fill:#ffffff;stroke:#000000"
         inkscape:connector-curvature="0" />
      <path
         id="path7213"
         d="m 701.75993,675.34209 c -1.18828,-1.18827 -0.70511,-7.05654 0.67534,-8.20221 1.93903,-1.60925 2.65799,-0.38243 2.65799,4.53555 0,4.09074 -1.38536,5.61464 -3.33333,3.66666 z"
         style="fill:#ffffff;stroke:#000000"
         inkscape:connector-curvature="0" />
      <path
         id="path7211"
         d="m 707.09326,671.56778 c 0,-2.44254 0.39901,-4.68759 0.88669,-4.98899 1.40144,-0.86614 2.91897,1.68892 2.6311,4.42997 -0.1444,1.375 -0.31997,3.0625 -0.39017,3.75 -0.0702,0.6875 -0.80262,1.25 -1.62762,1.25 -1.10816,0 -1.5,-1.16011 -1.5,-4.44098 z"
         style="fill:#ffffff;stroke:#000000"
         inkscape:connector-curvature="0" />
      <path
         id="path7209"
         d="m 712.09326,671.61578 c 0,-2.84628 0.49371,-4.58247 1.40223,-4.9311 2.08181,-0.79886 2.59777,0.19239 2.59777,4.99078 0,3.66666 -0.30769,4.33333 -2,4.33333 -1.69649,0 -2,-0.66667 -2,-4.39301 z"
         style="fill:#ffffff;stroke:#000000"
         inkscape:connector-curvature="0" />
      <path
         id="path7207"
         d="m 717.75993,675.34212 c -1.18828,-1.18827 -0.70511,-7.05654 0.67534,-8.20221 1.93903,-1.60925 2.65799,-0.38243 2.65799,4.53555 0,4.09074 -1.38536,5.61464 -3.33333,3.66666 z"
         style="fill:#ffffff;stroke:#000000"
         inkscape:connector-curvature="0" />
      <path
         id="path7205"
         d="m 723.09326,671.6411 c 0,-4.72811 1.09563,-6.46846 2.75194,-4.37133 1.61087,2.03958 0.83507,8.19212 -1.07966,8.56231 -1.36383,0.26369 -1.67228,-0.50933 -1.67228,-4.19098 z"
         style="fill:#ffffff;stroke:#000000"
         inkscape:connector-curvature="0" />
      <path
         id="path7203"
         d="m 728.09326,671.6157 c 0,-2.84628 0.49371,-4.58247 1.40223,-4.9311 2.08181,-0.79886 2.59777,0.19239 2.59777,4.99078 0,3.66666 -0.30769,4.33333 -2,4.33333 -1.69649,0 -2,-0.66667 -2,-4.39301 z"
         style="fill:#ffffff;stroke:#000000"
         inkscape:connector-curvature="0" />
      <path
         id="path7201"
         d="m 733.75993,675.34204 c -1.18828,-1.18827 -0.70511,-7.05654 0.67534,-8.20221 1.93903,-1.60925 2.65799,-0.38243 2.65799,4.53555 0,4.09074 -1.38536,5.61464 -3.33333,3.66666 z"
         style="fill:#ffffff;stroke:#000000"
         inkscape:connector-curvature="0" />
      <path
         id="path7199"
         d="m 739.09326,671.6411 c 0,-4.73865 1.09026,-6.45812 2.77172,-4.37133 1.67199,2.07505 0.92677,8.17337 -1.0452,8.55314 -1.42949,0.2753 -1.72652,-0.44414 -1.72652,-4.18181 z"
         style="fill:#ffffff;stroke:#000000"
         inkscape:connector-curvature="0" />
      <path
         id="path7197"
         d="m 744.09326,671.6157 c 0,-2.84628 0.49371,-4.58247 1.40223,-4.9311 2.08181,-0.79886 2.59777,0.19239 2.59777,4.99078 0,3.66666 -0.30769,4.33333 -2,4.33333 -1.69649,0 -2,-0.66667 -2,-4.39301 z"
         style="fill:#ffffff;stroke:#000000"
         inkscape:connector-curvature="0" />
      <path
         id="path7195"
         d="m 749.83067,675.25871 c -0.88672,-1.74725 -0.65377,-6.64585 0.37498,-7.88542 1.79394,-2.16157 2.88761,-0.57295 2.88761,4.19444 0,3.20003 -0.40265,4.44098 -1.44098,4.44098 -0.79254,0 -1.61227,-0.3375 -1.82161,-0.75 z"
         style="fill:#ffffff;stroke:#000000"
         inkscape:connector-curvature="0" />
      <path
         id="path7193"
         d="m 755.09326,671.6411 c 0,-4.73288 1.0932,-6.46376 2.76085,-4.37133 1.68821,2.11821 0.973,8.16656 -1.01085,8.54862 -1.458,0.28078 -1.75,-0.41623 -1.75,-4.17729 z"
         style="fill:#ffffff;stroke:#000000"
         inkscape:connector-curvature="0" />
      <path
         id="path7191"
         d="m 760.09326,671.6157 c 0,-2.84628 0.49371,-4.58247 1.40223,-4.9311 2.08181,-0.79886 2.59777,0.19239 2.59777,4.99078 0,3.66666 -0.30769,4.33333 -2,4.33333 -1.69649,0 -2,-0.66667 -2,-4.39301 z"
         style="fill:#ffffff;stroke:#000000"
         inkscape:connector-curvature="0" />
      <path
         id="path7189"
         d="m 765.95702,675.75871 c -0.65476,-1.20145 -0.3577,-7.51538 0.3994,-8.48899 1.62942,-2.09542 2.73684,-0.3563 2.73684,4.29801 0,3.28087 -0.39184,4.44098 -1.5,4.44098 -0.825,0 -1.56131,-0.1125 -1.63624,-0.25 z"
         style="fill:#ffffff;stroke:#000000"
         inkscape:connector-curvature="0" />
      <path
         id="path7187"
         d="m 771.09326,671.67543 c 0,-4.91798 0.71896,-6.1448 2.65799,-4.53555 2.38576,1.98 1.40319,8.86888 -1.26498,8.86888 -0.97637,0 -1.39301,-1.29607 -1.39301,-4.33333 z"
         style="fill:#ffffff;stroke:#000000"
         inkscape:connector-curvature="0" />
      <path
         id="path7185"
         d="m 776.09326,671.61573 c 0,-2.84628 0.49371,-4.58247 1.40223,-4.9311 2.08181,-0.79886 2.59777,0.19239 2.59777,4.99078 0,3.66666 -0.30769,4.33333 -2,4.33333 -1.69649,0 -2,-0.66667 -2,-4.39301 z"
         style="fill:#ffffff;stroke:#000000"
         inkscape:connector-curvature="0" />
      <path
         id="path7183"
         d="m 781.9632,675.25874 c -0.5674,-3.27184 -0.37841,-6.95812 0.40959,-7.98899 1.60849,-2.10425 2.72047,-0.34747 2.72047,4.29801 0,3.28087 -0.39184,4.44098 -1.5,4.44098 -0.825,0 -1.55853,-0.3375 -1.63006,-0.75 z"
         style="fill:#ffffff;stroke:#000000"
         inkscape:connector-curvature="0" />
      <path
         id="path7181"
         d="m 787.09326,671.6411 c 0,-4.89368 1.08836,-6.43572 2.95492,-4.18665 1.76032,2.12105 0.91868,7.96716 -1.20492,8.36944 -1.45719,0.27605 -1.75,-0.42382 -1.75,-4.18279 z"
         style="fill:#ffffff;stroke:#000000"
         inkscape:connector-curvature="0" />
      <path
         id="path7179"
         d="m 492.09326,654.6085 0,-9.40026 4.75,-1.09969 c 7.03992,-1.62985 23.15332,-3.83951 36.75,-5.0396 31.5815,-2.78748 66.38704,-1.50832 95.5,3.50978 14.54057,2.50631 13,1.07393 13,12.08701 l 0,9.61888 -7.25,-0.64319 c -3.9875,-0.35375 -13.1,-1.151 -20.25,-1.77166 -20.12319,-1.74682 -77.55318,-1.46303 -99.48323,0.49159 -10.16578,0.90607 -19.50328,1.6474 -20.75,1.6474 -2.19493,0 -2.26677,-0.29791 -2.26677,-9.40026 z"
         style="fill:#ffffff;stroke:#000000"
         inkscape:connector-curvature="0" />
      <path
         id="path7177"
         d="m 565.09326,659.60718 c 37.13965,-0.0881 67.84333,1.16377 74.25,3.02732 1.5701,0.45671 1.75,-0.37168 1.75,-8.05835 0,-7.95009 -0.14664,-8.56739 -2.03518,-8.56739 -1.70225,0 -1.86584,0.31642 -1,1.93426 1.01528,1.89708 1.46849,11.2991 0.58713,12.18045 -0.24642,0.24643 -2.27142,0.27416 -4.5,0.0616 l -4.05195,-0.38638 0,-6.33595 c 0,-3.48477 0.45734,-6.6186 1.01631,-6.96406 1.63256,-1.00898 0.0799,-2.48992 -2.61051,-2.48992 -2.13824,0 -2.33489,0.26397 -1.44098,1.93426 0.56935,1.06384 1.03518,4.43884 1.03518,7.5 l 0,5.56574 -4.5,0 -4.5,0 0,-6.94098 c 0,-4.2665 0.45607,-7.22285 1.18362,-7.67251 1.32908,-0.82141 -1.37648,-2.19687 -4.55606,-2.31622 -1.60949,-0.0604 -1.68477,0.15585 -0.536,1.54003 0.79959,0.96345 1.35091,4.19496 1.37245,8.04445 l 0.036,6.43412 -4.5,-0.29444 -4.5,-0.29445 -0.30541,-5.34095 c -0.20514,-3.58729 0.20529,-6.1204 1.25,-7.71482 2.14859,-3.27918 2.04582,-3.44423 -2.1446,-3.44423 -2.87778,0 -3.43333,0.26667 -2.5,1.2 0.69804,0.69804 1.2,4.04444 1.2,8 l 0,6.8 -4.5,0 -4.5,0 0,-6.42857 c 0,-4.38095 0.47778,-6.90635 1.5,-7.92857 2.25585,-2.25585 1.8793,-2.64286 -2.57143,-2.64286 -3.7013,0 -3.92857,0.14286 -2.5,1.57143 1.12866,1.12865 1.57143,3.53986 1.57143,8.5575 l 0,6.98607 -4.25,-0.3075 -4.25,-0.3075 -0.29308,-6.63549 c -0.2165,-4.9017 0.1034,-7.03197 1.2243,-8.15287 1.35651,-1.35651 1.35241,-1.58069 -0.0387,-2.11451 -0.85584,-0.32842 -2.6698,-0.59713 -4.031,-0.59713 -2.35779,0 -2.40125,0.10518 -0.91821,2.22251 1.00758,1.43853 1.5567,4.43684 1.5567,8.5 l 0,6.27749 -4.5,0 -4.5,0 0,-6.67126 c 0,-4.80435 0.46314,-7.18302 1.65499,-8.5 1.5808,-1.74677 1.44633,-1.82874 -3,-1.82874 -4.655,0 -4.655,0 -2.655,2 1.58974,1.58974 2,3.33333 2,8.5 l 0,6.5 -4.75,0.002 -4.75,0.002 0.31335,-7.25226 c 0.22666,-5.24573 0.76372,-7.59809 1.94113,-8.50225 1.36746,-1.05009 0.83757,-1.24491 -3.31335,-1.2182 -4.46667,0.0288 -4.76252,0.1671 -3.08101,1.44077 1.46672,1.11098 1.89973,2.90195 2.0474,8.4682 l 0.18727,7.05923 -4.79739,0 -4.7974,0 0,-6.5 c 0,-5.16667 0.41026,-6.91026 2,-8.5 2,-2 2,-2 -0.75,-1.98469 -3.39863,0.0189 -5.94888,1.43473 -4.35676,2.41871 0.64857,0.40084 1.10676,3.76451 1.10676,8.125 l 0,7.44098 -4.5,0 -4.5,0 0,-6.67126 c 0,-4.80435 0.46314,-7.18302 1.65499,-8.5 1.579,-1.74427 1.4571,-1.82823 -2.65499,-1.82823 -4.11209,0 -4.23399,0.084 -2.65499,1.82874 1.19185,1.31698 1.65499,3.69565 1.65499,8.5 l 0,6.67126 -4.5,0 -4.5,0 0,-6.42857 c 0,-4.51082 0.46878,-6.89736 1.57143,-8 1.42857,-1.42857 1.2013,-1.57143 -2.5,-1.57143 -4.45073,0 -4.82728,0.38701 -2.57143,2.64286 1.02222,1.02222 1.5,3.54762 1.5,7.92857 l 0,6.42857 -4.5,0 -4.5,0 0,-6.06574 c 0,-3.33616 0.46583,-6.93616 1.03518,-8 1.13306,-2.11713 0.31311,-2.40239 -3.76406,-1.3095 -2.05235,0.55014 -2.11175,0.76468 -0.75,2.70885 0.84226,1.20249 1.47888,4.33719 1.47888,7.28191 0,5.60433 -0.74316,6.38448 -6.08179,6.38448 -2.91548,0 -2.91821,-0.006 -2.91821,-6.3 0,-3.56667 0.52063,-6.82063 1.2,-7.5 0.93333,-0.93333 0.52593,-1.2 -1.83333,-1.2 -3.83575,0 -4.67808,0.83145 -2.77266,2.73686 1.06128,1.06128 1.41225,3.14281 1.20238,7.13096 l -0.29639,5.63218 -4.35075,0.58061 -4.35074,0.58062 0.37018,-7.33062 c 0.27531,-5.45208 0.0449,-7.33061 -0.89926,-7.33061 -0.92353,0 -1.26943,2.25243 -1.26943,8.26629 l 0,8.26628 14.75,-1.41786 c 9.76884,-0.93905 28.76478,-1.45111 56.25,-1.51629 z"
         style="fill:#ffffff;stroke:#000000"
         inkscape:connector-curvature="0" />
      <path
         id="path7175"
         d="m 500.84326,658.37847 c 1.94634,-0.52159 2.25,-1.26627 2.25,-5.51773 0,-3.46456 -0.44636,-5.08603 -1.51273,-5.49524 -2.72877,-1.04712 -4.48727,1.60427 -4.48727,6.7657 0,5.09903 0.10939,5.22292 3.75,4.24727 z"
         style="fill:#ffffff;stroke:#000000"
         inkscape:connector-curvature="0" />
      <path
         id="path7173"
         d="m 637.07795,654.25876 c -0.0181,-5.59978 -1.02487,-7.57988 -3.60452,-7.08903 -2.74794,0.52288 -3.35329,10.44652 -0.67956,11.14019 4.01148,1.04074 4.29961,0.76827 4.28408,-4.05116 z"
         style="fill:#ffffff;stroke:#000000"
         inkscape:connector-curvature="0" />
      <path
         id="path7171"
         d="m 625.02589,646.42758 c -2.90363,-3.49865 -4.93263,-0.99088 -4.93263,6.09655 0,4.00403 0.21976,4.37707 2.75,4.66821 2.62962,0.30257 2.76335,0.10494 3.05507,-4.51476 0.17014,-2.69423 -0.21576,-5.45875 -0.87244,-6.25 z"
         style="fill:#ffffff;stroke:#000000"
         inkscape:connector-curvature="0" />
      <path
         id="path7169"
         d="m 514.09326,651.47738 c 0,-4.015 -0.41471,-5.69053 -1.51273,-6.11188 -2.72877,-1.04712 -4.48727,1.60427 -4.48727,6.7657 0,4.75284 0.0767,4.87756 3,4.87756 2.97176,0 3,-0.0521 3,-5.53138 z"
         style="fill:#ffffff;stroke:#000000"
         inkscape:connector-curvature="0" />
      <path
         id="path7167"
         d="m 525.09326,650.47738 c 0,-4.015 -0.41471,-5.69053 -1.51273,-6.11188 -2.72877,-1.04712 -4.48727,1.60427 -4.48727,6.7657 0,4.75284 0.0767,4.87756 3,4.87756 2.97176,0 3,-0.0521 3,-5.53138 z"
         style="fill:#ffffff;stroke:#000000"
         inkscape:connector-curvature="0" />
      <path
         id="path7165"
         d="m 535.89098,649.25876 c 0.27127,-5.69493 0.11898,-6.25 -1.71482,-6.25 -2.08735,0 -3.75156,2.39547 -3.47365,5 0.088,0.825 0.21196,2.9938 0.2754,4.81955 0.0988,2.84414 0.43758,3.27379 2.36535,3 2.02087,-0.28701 2.28032,-0.95603 2.54772,-6.56955 z"
         style="fill:#ffffff;stroke:#000000"
         inkscape:connector-curvature="0" />
      <path
         id="path7163"
         d="m 603.89137,650.36894 c 0.34019,-5.84383 -1.8224,-9.41483 -4.40406,-7.27225 -1.7976,1.49187 -1.91553,11.53018 -0.14405,12.2613 3.1665,1.30686 4.25085,0.11738 4.54811,-4.98905 z"
         style="fill:#ffffff;stroke:#000000"
         inkscape:connector-curvature="0" />
      <path
         id="path7161"
         d="m 615.07795,651.25876 c -0.0181,-5.59989 -1.02492,-7.58 -3.60452,-7.08867 -1.53578,0.29251 -1.9351,1.40954 -2.18007,6.09839 l -0.29991,5.74028 3.04991,0 c 2.97396,0 3.04952,-0.11827 3.03459,-4.75 z"
         style="fill:#ffffff;stroke:#000000"
         inkscape:connector-curvature="0" />
      <path
         id="path7159"
         d="m 548.07795,649.75876 c -0.0177,-6.08343 -0.97107,-8.09039 -3.60452,-7.58835 -1.56064,0.29752 -1.93077,1.41889 -2.17789,6.59839 l -0.29771,6.23996 3.04771,0 c 3.01189,0 3.04754,-0.0617 3.03241,-5.25 z"
         style="fill:#ffffff;stroke:#000000"
         inkscape:connector-curvature="0" />
      <path
         id="path7157"
         d="m 559.09326,649.1312 c 0,-6.59638 -1.76596,-9.39149 -4.5,-7.12244 -1.02199,0.84818 -1.5,3.1179 -1.5,7.12244 0,5.86396 0.007,5.87756 3,5.87756 2.99306,0 3,-0.0136 3,-5.87756 z"
         style="fill:#ffffff;stroke:#000000"
         inkscape:connector-curvature="0" />
      <path
         id="path7155"
         d="m 570.09326,648.47738 c 0,-4.90763 -0.37608,-6.6757 -1.51273,-7.11188 -2.91799,-1.11974 -4.48727,1.59608 -4.48727,7.7657 0,5.86396 0.007,5.87756 3,5.87756 l 3,0 0,-6.53138 z"
         style="fill:#ffffff;stroke:#000000"
         inkscape:connector-curvature="0" />
      <path
         id="path7153"
         d="m 581.09326,648.61575 c 0,-5.12882 -0.34084,-6.5238 -1.72362,-7.05443 -2.53274,-0.9719 -4.27638,2.07466 -4.27638,7.4719 0,5.29196 0.41945,5.97554 3.66667,5.97554 2.20112,0 2.33333,-0.36224 2.33333,-6.39301 z"
         style="fill:#ffffff;stroke:#000000"
         inkscape:connector-curvature="0" />
      <path
         id="path7151"
         d="m 592.8275,650.05249 c 0.0565,-5.57992 -1.59073,-8.69651 -4.08963,-7.73759 -1.27461,0.48911 -1.64461,1.98803 -1.64461,6.66248 0,5.96036 0.0335,6.03138 2.84202,6.03138 2.73367,0 2.84394,-0.18897 2.89222,-4.95627 z"
         style="fill:#ffffff;stroke:#000000"
         inkscape:connector-curvature="0" />
      <path
         id="path7149"
         d="m 685.20257,663.21186 c -1.9849,-0.66163 -1.29488,-8.01753 0.96399,-10.2764 1.86361,-1.86361 2.29346,-1.92781 4.25,-0.63482 1.60097,1.05802 2.25607,2.6339 2.47678,5.95805 0.2972,4.47606 0.26697,4.52343 -3.14068,4.92125 -1.89243,0.22093 -3.93997,0.2353 -4.55009,0.0319 z"
         style="fill:#ffffff;stroke:#000000"
         inkscape:connector-curvature="0" />
      <path
         id="path7147"
         d="m 691.243,658.00876 c -0.63871,-6.38243 -5.14974,-5.779 -5.14974,0.68887 0,3.16711 0.22108,3.41854 2.75,3.12755 2.49611,-0.28721 2.71766,-0.63955 2.39974,-3.81642 z"
         style="fill:#ffffff;stroke:#000000"
         inkscape:connector-curvature="0" />
      <path
         id="path7145"
         d="m 720.84326,663.21029 c -2.53844,-0.30865 -2.75,-0.6771 -2.75,-4.78939 0,-3.81739 0.36893,-4.62311 2.57766,-5.62948 3.86124,-1.7593 5.86046,-0.0112 6.22184,5.4402 0.32666,4.92766 -0.54812,5.64759 -6.0495,4.97867 z"
         style="fill:#ffffff;stroke:#000000"
         inkscape:connector-curvature="0" />
      <path
         id="path7143"
         d="m 725.09326,658.11575 c 0,-2.38498 -0.53385,-4.09787 -1.37814,-4.42186 -2.08433,-0.79983 -3.62186,1.32906 -3.62186,5.01487 0,2.85333 0.33838,3.3 2.5,3.3 2.23855,0 2.5,-0.40713 2.5,-3.89301 z"
         style="fill:#ffffff;stroke:#000000"
         inkscape:connector-curvature="0" />
      <path
         id="path7141"
         d="m 701.09326,658.62377 c 0,-3.50867 0.47324,-4.69507 2.36803,-5.93658 2.10594,-1.37987 2.604,-1.38632 4.5,-0.0583 1.63203,1.14312 2.13197,2.53523 2.13197,5.93658 l 0,4.4433 -4.5,0 -4.5,0 0,-4.38499 z"
         style="fill:#ffffff;stroke:#000000"
         inkscape:connector-curvature="0" />
      <path
         id="path7139"
         d="m 708.09326,658.11575 c 0,-2.38498 -0.53385,-4.09787 -1.37814,-4.42186 -2.08433,-0.79983 -3.62186,1.32906 -3.62186,5.01487 0,2.85333 0.33838,3.3 2.5,3.3 2.23855,0 2.5,-0.40713 2.5,-3.89301 z"
         style="fill:#ffffff;stroke:#000000"
         inkscape:connector-curvature="0" />
      <path
         id="path7137"
         d="m 744.09326,658.56546 c 0,-3.44514 0.49452,-4.78966 2.20133,-5.98517 2.03259,-1.42368 2.3815,-1.37262 4.55157,0.66605 2.28683,2.14837 2.33901,2.53471 1.28487,9.51242 -0.0208,0.1375 -1.83777,0.25 -4.03777,0.25 l -4,0 0,-4.4433 z"
         style="fill:#ffffff;stroke:#000000"
         inkscape:connector-curvature="0" />
      <path
         id="path7135"
         d="m 751.09326,658.63116 c 0,-4.14649 -2.26726,-6.47545 -4.5,-4.62244 -0.825,0.68469 -1.5,2.76479 -1.5,4.62244 0,3.08618 0.25881,3.37756 3,3.37756 2.74119,0 3,-0.29138 3,-3.37756 z"
         style="fill:#ffffff;stroke:#000000"
         inkscape:connector-curvature="0" />
      <path
         id="path7133"
         d="m 761.28847,658.36115 c 0.57438,-8.75838 7.0352,-8.75838 7.60958,0 l 0.30479,4.64761 -4.10958,0 -4.10958,0 0.30479,-4.64757 z"
         style="fill:#ffffff;stroke:#000000"
         inkscape:connector-curvature="0" />
      <path
         id="path7131"
         d="m 768.09326,658.6312 c 0,-4.14649 -2.26726,-6.47545 -4.5,-4.62244 -0.825,0.68469 -1.5,2.76479 -1.5,4.62244 0,3.08618 0.25881,3.37756 3,3.37756 2.74119,0 3,-0.29138 3,-3.37756 z"
         style="fill:#ffffff;stroke:#000000"
         inkscape:connector-curvature="0" />
      <path
         id="path7129"
         d="m 777.97811,660.75876 c -0.21754,-4.2504 0.27609,-6.25322 1.97172,-7.99988 1.55178,-1.59849 1.89102,-1.61521 3.92109,-0.1933 1.72947,1.21137 2.22234,2.54203 2.22234,5.99988 l 0,4.4433 -4,0 c -3.44736,0 -4.01591,-0.31086 -4.11515,-2.25 z"
         style="fill:#ffffff;stroke:#000000"
         inkscape:connector-curvature="0" />
      <path
         id="path7127"
         d="m 785.09326,658.6312 c 0,-4.14649 -2.26726,-6.47545 -4.5,-4.62244 -0.825,0.68469 -1.5,2.76479 -1.5,4.62244 0,3.08618 0.25881,3.37756 3,3.37756 2.74119,0 3,-0.29138 3,-3.37756 z"
         style="fill:#ffffff;stroke:#000000"
         inkscape:connector-curvature="0" />
      <path
         id="path7125"
         d="m 654.09326,639.50876 c 0,-2.44444 0.45238,-3.5 1.5,-3.5 1.04762,0 1.5,1.05556 1.5,3.5 0,2.44444 -0.45238,3.5 -1.5,3.5 -1.04762,0 -1.5,-1.05556 -1.5,-3.5 z"
         style="fill:#ffffff;stroke:#000000"
         inkscape:connector-curvature="0" />
      <path
         id="path7123"
         d="m 659.09326,639.50876 c 0,-2.44444 0.45238,-3.5 1.5,-3.5 1.04762,0 1.5,1.05556 1.5,3.5 0,2.44444 -0.45238,3.5 -1.5,3.5 -1.04762,0 -1.5,-1.05556 -1.5,-3.5 z"
         style="fill:#ffffff;stroke:#000000"
         inkscape:connector-curvature="0" />
      <path
         id="path7121"
         d="m 492.30828,631.86509 0.28498,-10.14367 8,-2.35286 c 16.62744,-4.89024 46.75802,-9.34737 63.25,-9.35638 6.00091,-0.003 6.25,0.0962 6.25,2.49658 0,2.39924 0.2519,2.50029 6.25,2.50711 10.99265,0.0125 19.75,1.1619 19.75,2.59218 0,0.72055 1.4625,1.54 3.25,1.82101 1.7875,0.28101 6.625,1.00983 10.75,1.6196 4.125,0.60977 8.2875,1.33057 9.25,1.60177 1.38813,0.39114 1.75,-0.12897 1.75,-2.51527 0,-1.6546 0.3375,-3.20604 0.75,-3.44764 0.4125,-0.2416 5.025,0.74761 10.25,2.19825 l 9.5,2.63752 0.28644,10.37502 0.28645,10.37503 -3.28645,-0.67475 c -25.54279,-5.24421 -43.97309,-7.03082 -72.28644,-7.00733 -25.86244,0.0215 -41.22148,1.36292 -62.89975,5.49367 -5.55296,1.05811 -10.45042,1.92383 -10.88325,1.92383 -0.43283,0 -0.65872,-4.56465 -0.50198,-10.14367 z"
         style="fill:#ffffff;stroke:#000000"
         inkscape:connector-curvature="0" />
      <path
         id="path7119"
         d="m 512.59326,637.00841 c 19.46434,-3.13224 31.40164,-4.00028 54.85595,-3.98894 22.06547,0.0107 41.28921,1.49327 57.64405,4.44573 4.675,0.84395 10.1875,1.81902 12.25,2.16682 l 3.75,0.63236 0,-8.56042 c 0,-7.28624 -0.26048,-8.63852 -1.75,-9.08511 -0.9625,-0.28857 -4.98608,-1.4079 -8.9413,-2.48741 l -7.19129,-1.96273 -0.30871,2.67003 c -0.2789,2.41228 -0.69482,2.66259 -4.3087,2.59309 -8.47961,-0.1631 -22.63296,-2.80379 -24.71753,-4.61173 -1.36015,-1.17966 -3.69164,-1.81382 -6.68548,-1.81845 -2.52834,-0.004 -7.69512,-0.29964 -11.48171,-0.65718 -5.71459,-0.53959 -6.97268,-0.9864 -7.4022,-2.6289 -0.49192,-1.88108 -1.16441,-1.95161 -13.61528,-1.42777 -16.08271,0.67663 -30.49286,2.82745 -47.2917,7.05865 l -12.8061,3.22553 -0.29088,8.85156 -0.29087,8.85157 3.29087,-0.66782 c 1.80999,-0.3673 8.69088,-1.5368 15.29088,-2.59888 z"
         style="fill:#ffffff;stroke:#000000"
         inkscape:connector-curvature="0" />
      <path
         id="path7117"
         d="m 497.27684,633.25876 c 0.24853,-2.15997 0.90645,-2.81789 3.06642,-3.06642 2.33775,-0.26899 2.75,0.0508 2.75,2.13337 0,1.69519 -0.69305,2.63552 -2.25,3.05276 -3.5964,0.9638 -3.90043,0.7831 -3.56642,-2.11971 z"
         style="fill:#ffffff;stroke:#000000"
         inkscape:connector-curvature="0" />
      <path
         id="path7115"
         d="m 501.09326,632.44974 c 0,-0.85746 -0.45,-1.2809 -1,-0.94098 -0.55,0.33992 -1,1.04148 -1,1.55902 0,0.51754 0.45,0.94098 1,0.94098 0.55,0 1,-0.70156 1,-1.55902 z"
         style="fill:#ffffff;stroke:#000000"
         inkscape:connector-curvature="0" />
      <path
         id="path7113"
         d="m 633.34326,635.34648 c -0.6875,-0.27741 -1.25,-1.62318 -1.25,-2.9906 0,-2.00632 0.43431,-2.42454 2.25,-2.16667 1.61101,0.2288 2.33986,1.10054 2.56642,3.06955 0.31201,2.71163 -0.63963,3.26871 -3.56642,2.08772 z"
         style="fill:#ffffff;stroke:#000000"
         inkscape:connector-curvature="0" />
      <path
         id="path7111"
         d="m 635.09326,633.00876 c 0,-0.55 -0.45,-1 -1,-1 -0.55,0 -1,0.45 -1,1 0,0.55 0.45,1 1,1 0.55,0 1,-0.45 1,-1 z"
         style="fill:#ffffff;stroke:#000000"
         inkscape:connector-curvature="0" />
      <path
         id="path7109"
         d="m 505.09326,630.56778 c 0,-0.79254 0.45,-1.7191 1,-2.05902 0.55,-0.33992 1,0.30852 1,1.44098 0,1.13246 -0.45,2.05902 -1,2.05902 -0.55,0 -1,-0.64844 -1,-1.44098 z"
         style="fill:#ffffff;stroke:#000000"
         inkscape:connector-curvature="0" />
      <path
         id="path7107"
         d="m 519.58426,629.98042 c -0.77207,-2.43259 -0.0372,-3.4308 3.259,-4.42665 1.99206,-0.60186 2.25,-0.32814 2.25,2.3876 0,1.68707 -0.4132,3.06739 -0.91821,3.06739 -0.50502,0 -1.58937,0.25754 -2.40966,0.57232 -0.95432,0.36621 -1.73983,-0.21025 -2.18113,-1.60066 z"
         style="fill:#ffffff;stroke:#000000"
         inkscape:connector-curvature="0" />
      <path
         id="path7105"
         d="m 523.09326,628.50876 c 0,-0.825 -0.45,-1.5 -1,-1.5 -0.55,0 -1,0.675 -1,1.5 0,0.825 0.45,1.5 1,1.5 0.55,0 1,-0.675 1,-1.5 z"
         style="fill:#ffffff;stroke:#000000"
         inkscape:connector-curvature="0" />
      <path
         id="path7103"
         d="m 610.84326,631.31943 c -1.18159,-0.30878 -1.75,-1.44266 -1.75,-3.49098 0,-2.35547 0.35362,-2.89797 1.58179,-2.42668 0.86998,0.33385 2.21998,0.60699 3,0.60699 0.90912,0 1.41821,1.07689 1.41821,3 0,2.97301 -0.55689,3.27579 -4.25,2.31067 z"
         style="fill:#ffffff;stroke:#000000"
         inkscape:connector-curvature="0" />
      <path
         id="path7101"
         d="m 613.09326,628.50876 c 0,-0.825 -0.45,-1.5 -1,-1.5 -0.55,0 -1,0.675 -1,1.5 0,0.825 0.45,1.5 1,1.5 0.55,0 1,-0.675 1,-1.5 z"
         style="fill:#ffffff;stroke:#000000"
         inkscape:connector-curvature="0" />
      <path
         id="path7099"
         d="m 627.09326,629.94974 c 0,-1.13246 0.45,-1.7809 1,-1.44098 0.55,0.33992 1,1.26648 1,2.05902 0,0.79254 -0.45,1.44098 -1,1.44098 -0.55,0 -1,-0.92656 -1,-2.05902 z"
         style="fill:#ffffff;stroke:#000000"
         inkscape:connector-curvature="0" />
      <path
         id="path7097"
         d="m 510.09326,629.50876 c 0,-0.825 0.45,-1.5 1,-1.5 0.55,0 1,0.675 1,1.5 0,0.825 -0.45,1.5 -1,1.5 -0.55,0 -1,-0.675 -1,-1.5 z"
         style="fill:#ffffff;stroke:#000000"
         inkscape:connector-curvature="0" />
      <path
         id="path7095"
         d="m 622.09326,628.94974 c 0,-1.13246 0.45,-1.7809 1,-1.44098 0.55,0.33992 1,1.26648 1,2.05902 0,0.79254 -0.45,1.44098 -1,1.44098 -0.55,0 -1,-0.92656 -1,-2.05902 z"
         style="fill:#ffffff;stroke:#000000"
         inkscape:connector-curvature="0" />
      <path
         id="path7093"
         d="m 515.09326,628.56778 c 0,-0.79254 0.45,-1.7191 1,-2.05902 0.55,-0.33992 1,0.30852 1,1.44098 0,1.13246 -0.45,2.05902 -1,2.05902 -0.55,0 -1,-0.64844 -1,-1.44098 z"
         style="fill:#ffffff;stroke:#000000"
         inkscape:connector-curvature="0" />
      <path
         id="path7091"
         d="m 617.09326,628.50878 c 0,-0.825 0.675,-1.5 1.5,-1.5 0.825,0 1.5,0.675 1.5,1.5 0,0.825 -0.675,1.5 -1.5,1.5 -0.825,0 -1.5,-0.675 -1.5,-1.5 z"
         style="fill:#ffffff;stroke:#000000"
         inkscape:connector-curvature="0" />
      <path
         id="path7089"
         d="m 542.09326,626.00878 c 0,-2.53333 0.38889,-3 2.5,-3 2.11111,0 2.5,0.46667 2.5,3 0,2.53333 -0.38889,3 -2.5,3 -2.11111,0 -2.5,-0.46667 -2.5,-3 z"
         style="fill:#ffffff;stroke:#000000"
         inkscape:connector-curvature="0" />
      <path
         id="path7087"
         d="m 546.09326,626.00878 c 0,-0.55 -0.42344,-1 -0.94098,-1 -0.51754,0 -1.2191,0.45 -1.55902,1 -0.33992,0.55 0.0835,1 0.94098,1 0.85746,0 1.55902,-0.45 1.55902,-1 z"
         style="fill:#ffffff;stroke:#000000"
         inkscape:connector-curvature="0" />
      <path
         id="path7085"
         d="m 587.09326,626.00878 c 0,-2.53333 0.38889,-3 2.5,-3 2.11111,0 2.5,0.46667 2.5,3 0,2.53333 -0.38889,3 -2.5,3 -2.11111,0 -2.5,-0.46667 -2.5,-3 z"
         style="fill:#ffffff;stroke:#000000"
         inkscape:connector-curvature="0" />
      <path
         id="path7083"
         d="m 591.09326,626.00878 c 0,-0.55 -0.70156,-1 -1.55902,-1 -0.85746,0 -1.2809,0.45 -0.94098,1 0.33992,0.55 1.04148,1 1.55902,1 0.51754,0 0.94098,-0.45 0.94098,-1 z"
         style="fill:#ffffff;stroke:#000000"
         inkscape:connector-curvature="0" />
      <path
         id="path7081"
         d="m 527.09326,626.50878 c 0,-0.825 0.675,-1.5 1.5,-1.5 0.825,0 1.5,0.675 1.5,1.5 0,0.825 -0.675,1.5 -1.5,1.5 -0.825,0 -1.5,-0.675 -1.5,-1.5 z"
         style="fill:#ffffff;stroke:#000000"
         inkscape:connector-curvature="0" />
      <path
         id="path7079"
         d="m 564.09326,625.00878 c 0,-2.66667 0.33333,-3 3,-3 2.66667,0 3,0.33333 3,3 0,2.66667 -0.33333,3 -3,3 -2.66667,0 -3,-0.33333 -3,-3 z"
         style="fill:#ffffff;stroke:#000000"
         inkscape:connector-curvature="0" />
      <path
         id="path7077"
         d="m 568.09326,625.50878 c 0,-0.825 -0.45,-1.5 -1,-1.5 -0.55,0 -1,0.675 -1,1.5 0,0.825 0.45,1.5 1,1.5 0.55,0 1,-0.675 1,-1.5 z"
         style="fill:#ffffff;stroke:#000000"
         inkscape:connector-curvature="0" />
      <path
         id="path7075"
         d="m 604.73163,626.50878 c -0.35062,-0.91371 -0.002,-1.5 0.89301,-1.5 0.80774,0 1.46862,0.675 1.46862,1.5 0,0.825 -0.40186,1.5 -0.89301,1.5 -0.49116,0 -1.15203,-0.675 -1.46862,-1.5 z"
         style="fill:#ffffff;stroke:#000000"
         inkscape:connector-curvature="0" />
      <path
         id="path7073"
         d="m 532.09326,625.59211 c 0,-0.87083 0.7125,-1.58333 1.58333,-1.58333 0.87084,0 1.40521,0.53437 1.1875,1.1875 -0.61807,1.85422 -2.77083,2.16176 -2.77083,0.39583 z"
         style="fill:#ffffff;stroke:#000000"
         inkscape:connector-curvature="0" />
      <path
         id="path7071"
         d="m 537.09326,625.56781 c 0,-0.79254 0.45,-1.7191 1,-2.05902 0.55,-0.33992 1,0.30852 1,1.44098 0,1.13246 -0.45,2.05902 -1,2.05902 -0.55,0 -1,-0.64844 -1,-1.44098 z"
         style="fill:#ffffff;stroke:#000000"
         inkscape:connector-curvature="0" />
      <path
         id="path7069"
         d="m 595.09326,625.50881 c 0,-0.825 0.45,-1.5 1,-1.5 0.55,0 1,0.675 1,1.5 0,0.825 -0.45,1.5 -1,1.5 -0.55,0 -1,-0.675 -1,-1.5 z"
         style="fill:#ffffff;stroke:#000000"
         inkscape:connector-curvature="0" />
      <path
         id="path7067"
         d="m 600.09326,625.50881 c 0,-0.825 0.45,-1.5 1,-1.5 0.55,0 1,0.675 1,1.5 0,0.825 -0.45,1.5 -1,1.5 -0.55,0 -1,-0.675 -1,-1.5 z"
         style="fill:#ffffff;stroke:#000000"
         inkscape:connector-curvature="0" />
      <path
         id="path7065"
         d="m 550.09326,624.50881 c 0,-0.825 0.45,-1.5 1,-1.5 0.55,0 1,0.675 1,1.5 0,0.825 -0.45,1.5 -1,1.5 -0.55,0 -1,-0.675 -1,-1.5 z"
         style="fill:#ffffff;stroke:#000000"
         inkscape:connector-curvature="0" />
      <path
         id="path7063"
         d="m 555.09326,624.00881 c 0,-1.1 0.45,-2 1,-2 0.55,0 1,0.9 1,2 0,1.1 -0.45,2 -1,2 -0.55,0 -1,-0.9 -1,-2 z"
         style="fill:#ffffff;stroke:#000000"
         inkscape:connector-curvature="0" />
      <path
         id="path7061"
         d="m 572.73274,625.31496 c -1.19516,-1.19519 -0.64571,-3.30618 0.86052,-3.30618 0.825,0 1.5,0.64844 1.5,1.44098 0,1.67065 -1.42728,2.79841 -2.36052,1.86517 z"
         style="fill:#ffffff;stroke:#000000"
         inkscape:connector-curvature="0" />
      <path
         id="path7059"
         d="m 577.5025,624.6329 c -0.84721,-2.20781 0.27991,-3.33494 1.80743,-1.80742 0.9019,0.9019 0.90574,1.46092 0.0161,2.35055 -0.88962,0.88962 -1.3233,0.76045 -1.82354,-0.54313 z"
         style="fill:#ffffff;stroke:#000000"
         inkscape:connector-curvature="0" />
      <path
         id="path7057"
         d="m 582.09326,624.50878 c 0,-0.825 0.45,-1.5 1,-1.5 0.55,0 1,0.675 1,1.5 0,0.825 -0.45,1.5 -1,1.5 -0.55,0 -1,-0.675 -1,-1.5 z"
         style="fill:#ffffff;stroke:#000000"
         inkscape:connector-curvature="0" />
      <path
         id="path7055"
         d="m 560.09326,623.50878 c 0,-0.825 0.45,-1.5 1,-1.5 0.55,0 1,0.675 1,1.5 0,0.825 -0.45,1.5 -1,1.5 -0.55,0 -1,-0.675 -1,-1.5 z"
         style="fill:#ffffff;stroke:#000000"
         inkscape:connector-curvature="0" />
      <path
         id="path7053"
         d="m 696.61584,611.4029 c -1.71236,-2.6134 -3.30606,-2.78464 -7.93662,-0.85278 -1.39536,0.58214 -1.70777,0.46478 -1.15287,-0.43308 1.44366,-2.33589 5.51457,-3.19956 8.27177,-1.75491 2.17221,1.13813 3.01502,1.13424 5.33811,-0.0247 2.18687,-1.09096 3.29736,-1.13074 5.35784,-0.19192 1.42955,0.65135 2.59919,1.56204 2.59919,2.02376 0,1.16583 -1.7497,1.05349 -2.5,-0.16052 -1.11543,-1.8048 -4.31744,-1.04755 -6.31647,1.49381 l -1.96163,2.4938 -1.69932,-2.59349 z"
         style="fill:#ffffff;stroke:#000000"
         inkscape:connector-curvature="0" />
      <path
         id="path7051"
         d="m 426.20878,598.22461 c -1.31782,-2.46237 -5.88311,-3.04826 -7.91552,-1.01585 -0.66667,0.66667 -1.2,0.75556 -1.2,0.2 0,-3.23533 6.70384,-4.6667 8.98475,-1.91838 1.08623,1.30883 1.47633,1.30883 3.34495,0 3.54425,-2.48249 8.6703,-1.34831 8.6703,1.91838 0,0.55556 -0.53333,0.46667 -1.2,-0.2 -1.98523,-1.98523 -6.40615,-1.42576 -8.02732,1.01585 l -1.47127,2.21585 -1.18589,-2.21585 z"
         style="fill:#ffffff;stroke:#000000"
         inkscape:connector-curvature="0" />
      <path
         id="path7047"
         d="m 567.90703,571.89009 c -2.77002,-2.97122 -2.21496,-3.70159 1.35933,-1.78869 1.47648,0.79019 2.34407,0.79019 3.13426,0 0.60095,-0.60095 1.79014,-1.06904 2.64264,-1.04019 1.12602,0.0381 0.93455,0.48177 -0.7,1.62197 -1.2375,0.86324 -2.25,2.18964 -2.25,2.94755 0,1.99827 -1.14392,1.52263 -4.18623,-1.74064 z"
         style="fill:#ffffff;stroke:#000000"
         inkscape:connector-curvature="0" />
    </g>
    <g
       style="font-size:119.65061188px;font-style:normal;font-variant:normal;font-weight:normal;font-stretch:normal;text-align:start;line-height:125%;letter-spacing:0px;word-spacing:0px;writing-mode:lr-tb;text-anchor:start;fill:#000000;fill-opacity:1;stroke:none;font-family:Shree Devanagari 714;-inkscape-font-specification:'Shree Devanagari 714,'"
       id="text7737">
      <path
         d="m 30.629265,951.2663 -5.945372,0 0,-88.14014 8.174887,0 53.211079,80.85706 0,-80.85706 5.945372,0 0,88.14014 -8.174886,0 -53.21108,-79.66799 0,79.66799 0,0"
         style=""
         id="path7742" />
      <path
         d="m 216.34492,951.2663 -57.52147,0 0,-88.14014 57.52147,0 0,5.79673 -51.5761,0 0,33.88862 47.11708,0 0,5.49947 -47.11708,0 0,37.30721 51.5761,0 0,5.64811 0,0"
         style=""
         id="path7744" />
      <path
         d="m 298.68658,951.2663 -7.87762,0 -23.18695,-88.14014 6.68854,0 20.3629,78.033 21.40334,-78.033 9.06669,0 21.55197,78.033 20.3629,-78.033 6.68855,0 -23.18695,88.14014 -7.87762,0 -21.99788,-79.66799 -21.99787,79.66799 0,0"
         style=""
         id="path7746" />
      <path
         d="m 607.77246,951.2663 -6.83718,0 0,-38.34765 -33.88862,-49.79249 8.47215,0 28.68642,42.95531 27.79462,-42.95531 8.47215,0 -32.69954,49.79249 0,38.34765 0,0"
         style=""
         id="path7748" />
      <path
         d="m 732.66913,952.30674 c -11.89078,0 -21.40337,-4.11222 -28.53779,-12.33665 -7.13445,-8.22441 -10.70167,-19.12425 -10.70167,-32.69955 0,-14.07065 3.56722,-25.3173 10.70167,-33.73998 7.13442,-8.42253 16.64701,-12.63383 28.53779,-12.63392 11.89068,9e-5 21.40327,4.21139 28.53778,12.63392 7.13437,8.42268 10.70159,19.66933 10.70167,33.73998 -8e-5,13.5753 -3.5673,24.47514 -10.70167,32.69955 -7.13451,8.22443 -16.6471,12.33665 -28.53778,12.33665 l 0,0 m 0,-5.49947 c 10.10707,0 18.18286,-3.61676 24.22739,-10.85031 6.04438,-7.13442 9.06661,-16.69655 9.06669,-28.68642 -8e-5,-12.28704 -3.02231,-22.14644 -9.06669,-29.57822 -6.04453,-7.43164 -14.12032,-11.14749 -24.22739,-11.14757 -10.10717,8e-5 -18.18296,3.71593 -24.22739,11.14757 -6.04448,7.43178 -9.06671,17.29118 -9.0667,29.57822 -10e-6,11.98987 3.02222,21.552 9.0667,28.68642 6.04443,7.23355 14.12022,10.85031 24.22739,10.85031 l 0,0"
         style=""
         id="path7750" />
      <path
         d="m 839.90673,951.2663 -5.94537,0 0,-88.14014 42.06351,0 c 6.0444,8e-5 11.19705,2.27914 15.45796,6.83717 4.26078,4.45911 6.3912,9.90903 6.39128,16.34978 -8e-5,5.64816 -1.28824,10.55309 -3.86449,14.71479 -2.67549,4.16181 -5.99498,6.5895 -9.9585,7.28308 3.66625,0.99094 6.63893,4.11226 8.91806,9.36396 2.27898,5.25178 3.41851,11.5935 3.41859,19.02519 -8e-5,4.16178 0.099,7.28309 0.29726,9.36397 0.19811,2.47724 0.59447,4.2113 1.18908,5.2022 l -5.94537,0 c -0.99097,-1.18908 -1.63505,-3.36904 -1.93225,-6.53991 l -0.4459,-12.63392 c -7e-5,-5.94535 -1.43686,-11.04845 -4.3104,-15.30933 -2.77456,-4.16172 -6.19315,-6.2426 -10.25576,-6.24264 l -35.0777,0 0,40.7258 0,0 m 0,-46.22527 35.0777,0 c 4.65715,5e-5 8.67027,-1.78356 12.03937,-5.35084 3.26989,-3.46807 4.90487,-7.72892 4.90494,-12.78255 -7e-5,-4.9544 -1.63505,-9.21525 -4.90494,-12.78255 -3.3691,-3.46805 -7.38222,-5.20211 -12.03937,-5.2022 l -35.0777,0 0,36.11814 0,0"
         style=""
         id="path7752" />
      <path
         d="m 967.03552,951.2663 -5.94538,0 0,-88.14014 5.94538,0 0,48.60341 51.42748,-48.60341 7.5803,0 -37.90171,36.71267 39.53671,51.42747 -7.2831,0 -36.71264,-47.41435 -16.64704,15.1607 0,32.25365 0,0"
         style=""
         id="path7754" />
    </g>
  </g>
</svg>
