<?xml version="1.0" encoding="UTF-8" standalone="no"?>
<!-- Created with Inkscape (http://www.inkscape.org/) -->

<svg
   xmlns:dc="http://purl.org/dc/elements/1.1/"
   xmlns:cc="http://creativecommons.org/ns#"
   xmlns:rdf="http://www.w3.org/1999/02/22-rdf-syntax-ns#"
   xmlns:svg="http://www.w3.org/2000/svg"
   xmlns="http://www.w3.org/2000/svg"
   xmlns:sodipodi="http://sodipodi.sourceforge.net/DTD/sodipodi-0.dtd"
   xmlns:inkscape="http://www.inkscape.org/namespaces/inkscape"
   width="595.25"
   height="755.09375"
   id="svg2"
   version="1.1"
   inkscape:version="0.48.3.1 r9886"
   sodipodi:docname="3D-illusion.svg">
  <defs
     id="defs4" />
  <sodipodi:namedview
     id="base"
     pagecolor="#ffffff"
     bordercolor="#666666"
     borderopacity="1.0"
     inkscape:pageopacity="0.0"
     inkscape:pageshadow="2"
     inkscape:zoom="0.29166667"
     inkscape:cx="736.78109"
     inkscape:cy="705.53839"
     inkscape:document-units="px"
     inkscape:current-layer="layer1"
     showgrid="false"
     inkscape:window-width="1280"
     inkscape:window-height="962"
     inkscape:window-x="0"
     inkscape:window-y="0"
     inkscape:window-maximized="1"
     fit-margin-top="0"
     fit-margin-left="0"
     fit-margin-right="0"
     fit-margin-bottom="0"
     showguides="true"
     inkscape:guide-bbox="true" />
  <metadata
     id="metadata7">
    <rdf:RDF>
      <cc:Work
         rdf:about="">
        <dc:format>image/svg+xml</dc:format>
        <dc:type
           rdf:resource="http://purl.org/dc/dcmitype/StillImage" />
        <dc:title></dc:title>
      </cc:Work>
    </rdf:RDF>
  </metadata>
  <g
     inkscape:label="Ebene 1"
     inkscape:groupmode="layer"
     id="layer1"
     transform="translate(-73.423611,-161.48916)">
    <path
       style="fill:#ffffff;fill-opacity:1;fill-rule:evenodd;stroke:none"
       d="m 394.49597,193.57816 c -52.5368,-0.66815 -100.04208,53.20575 -103.52995,139.42352 -0.45458,16.50275 -9.342,30.61081 -20.30155,58.61642 -15.25721,27.99642 -27.20383,59.65454 -37.83592,84.74501 -16.50298,46.28679 -53.19794,87.01473 -58.82928,137.37474 -12.19919,62.40694 6.45819,128.06724 30.65189,124.41686 33.27117,-5.30485 13.79983,-58.8927 18.17295,-77.74723 3.33595,-7.55356 6.47944,-15.26311 9.60532,-22.9357 0.1706,40.64413 3.42981,75.40124 9.95122,103.29047 -2.1e-4,0.0178 2.1e-4,0.0355 0,0.0533 0.0566,0.24179 0.10257,0.47763 0.15965,0.7184 0.0215,0.0907 0.0582,0.17552 0.0798,0.26608 0.28129,1.18062 0.55828,2.35659 0.85144,3.51219 0.0494,0.19498 0.10984,0.3911 0.15965,0.58537 0.3272,1.27609 0.66923,2.53313 1.01108,3.77827 0.34632,1.26191 0.67629,2.49515 1.0377,3.72505 0.0678,0.23072 0.14452,0.4622 0.21286,0.6918 0.0106,0.0349 0.0163,0.0716 0.0267,0.10643 0.38899,1.3043 0.79115,2.5905 1.19734,3.85809 0.43223,1.34924 0.8786,2.68379 1.33037,3.99113 0.002,0.007 -0.002,0.0188 0,0.0267 0.43497,1.25813 0.87724,2.47943 1.33038,3.69846 0.10643,0.28626 0.21186,0.56734 0.3193,0.85143 1.2736,3.36861 2.629,6.59762 4.04434,9.65854 0.0776,0.16778 0.16145,0.3387 0.23947,0.50554 1.013,2.16617 2.05437,4.24525 3.13969,6.25277 0.21237,0.39277 0.42344,0.7841 0.63858,1.17075 0.36175,0.65021 0.72129,1.30949 1.09091,1.94234 0.28558,0.48896 0.58775,0.95826 0.87805,1.43681 0.26958,0.44437 0.52458,0.89501 0.79822,1.33038 0.2433,0.38713 0.49849,0.76413 0.74501,1.14412 0.47338,0.7295 0.95155,1.45214 1.43681,2.15521 0.0508,0.0738 0.10868,0.13945 0.15964,0.21286 0.41114,0.59184 0.83092,1.18325 1.25056,1.7561 0.49098,0.67013 0.9874,1.32494 1.49002,1.96896 0.1365,0.17486 0.26176,0.35921 0.39912,0.53214 0.48671,0.6129 0.99247,1.19416 1.49002,1.78272 0.24859,0.29415 0.49371,0.59 0.74501,0.87804 0.24045,0.27549 0.47548,0.55495 0.7184,0.82483 0.54313,0.60359 1.09413,1.18062 1.64968,1.75611 0.19208,0.19906 0.39178,0.38968 0.58536,0.58536 0.45803,0.46281 0.91721,0.9131 1.38359,1.35698 0.26879,0.25597 0.52667,0.52197 0.79823,0.77162 0.44663,0.41038 0.90283,0.80408 1.35698,1.19734 0.29174,0.25277 0.58321,0.49933 0.87805,0.74502 0.4568,0.38043 0.91932,0.75414 1.3836,1.11751 0.37021,0.28975 0.74253,0.57259 1.11751,0.85144 0.22952,0.17075 0.4605,0.33889 0.6918,0.50555 0.59556,0.42899 1.2019,0.84878 1.8093,1.25055 0.11726,0.0776 0.22822,0.16296 0.34591,0.23947 0.69351,0.45101 1.39311,0.88821 2.10199,1.30377 0.0684,0.0401 0.14438,0.0666 0.21286,0.10643 0.65614,0.38067 1.32629,0.74065 1.99557,1.0909 0.36259,0.18972 0.72446,0.37801 1.09091,0.55876 0.43407,0.21417 0.86427,0.43704 1.30377,0.63858 0.11538,0.0529 0.23014,0.10763 0.34589,0.15965 0.65167,0.29294 1.30541,0.55957 1.96896,0.82483 1.61825,0.64692 3.28642,1.22203 4.97561,1.70289 0.15122,0.043 0.30055,0.0913 0.45233,0.13304 0.33303,0.0915 0.67531,0.15441 1.01108,0.23946 0.54313,0.13751 1.07274,0.30517 1.62306,0.42572 l -0.61197,9.81819 c -0.88451,15.70375 -46.33279,47.0708 -40.94901,63.99114 12.38321,16.12254 27.08437,-2.17193 32.83371,0.0267 21.40651,8.41074 27.53868,3.42946 37.43681,-5.98669 10.43727,-7.64252 36.05405,19.38203 42.86475,-1.99557 3.71497,-11.93485 -43.90677,-39.93157 -45.49889,-58.77607 l -0.34589,-6.75839 c 1.9169,-0.25958 3.66855,-0.57801 5.29489,-0.93127 1.57557,-0.34213 3.0433,-0.72995 4.39024,-1.14413 2.0205,-0.62144 3.79974,-1.30912 5.42795,-2.04878 4.88438,-2.21833 8.32826,-4.8503 12.31928,-7.18403 0.44349,-0.25937 0.89742,-0.52059 1.35699,-0.77162 0.9191,-0.50194 1.88414,-0.97989 2.90023,-1.4368 0.50805,-0.22852 1.0294,-0.45088 1.56984,-0.6652 3.78294,-1.49989 8.41373,-2.63747 14.84701,-3.05986 2.261,-0.14942 4.36603,-0.0627 6.33259,0.21285 4.58869,0.64301 8.49645,2.32404 12.29269,4.41686 2.16922,1.19565 4.29066,2.52603 6.49224,3.88469 1.10082,0.67948 2.23054,1.37087 3.37915,2.04879 0.57429,0.33889 1.13829,0.67788 1.7295,1.01109 2.95608,1.66642 6.16464,3.23672 9.79157,4.49668 1.86778,0.64868 3.85794,1.1973 5.9867,1.64966 l 0.15965,8.22172 c -10.61418,32.24503 -38.21848,41.66666 -35.38804,54.43904 3.00786,10.105 29.3719,9.00348 34.85588,0 3.54409,8.38059 25.49152,9.84223 32.56763,1.67628 0,0 32.52665,8.15416 33.76498,-7.13082 0.0163,-10.67281 -36.07625,-32.03352 -38.02218,-43.13083 l -0.7717,-14.4746 c 0.43325,-0.1074 0.87578,-0.21991 1.30377,-0.34589 0.20339,-0.06 0.40975,-0.12217 0.61197,-0.18627 1.36135,-0.43116 2.68368,-0.95392 3.99112,-1.56983 0.0532,-0.0251 0.10663,-0.0545 0.15965,-0.0798 1.01796,-0.48627 2.02138,-1.02826 3.00665,-1.62306 0.3853,-0.23245 0.76383,-0.46968 1.14413,-0.7184 0.0166,-0.0109 0.0366,-0.0156 0.0532,-0.0267 0.35705,-0.2343 0.71166,-0.46994 1.06431,-0.71841 0.10737,-0.0757 0.21233,-0.16242 0.31929,-0.23947 0.26599,-0.19146 0.53474,-0.38589 0.79822,-0.58536 0.34362,-0.26028 0.69836,-0.52445 1.03769,-0.79822 0.0245,-0.0197 0.0554,-0.0335 0.0798,-0.0533 1.18355,-0.95918 2.32744,-2.02029 3.45898,-3.13968 0.60309,-0.59676 1.22098,-1.22168 1.80931,-1.86253 0.53182,-0.57954 1.05006,-1.19451 1.56985,-1.80932 0.14044,-0.16618 0.28617,-0.33681 0.42572,-0.50554 0.064,-0.0773 0.12246,-0.1616 0.18625,-0.23947 0.58896,-0.71901 1.18284,-1.44468 1.7561,-2.20842 0.28366,-0.37812 0.57163,-0.78188 0.85144,-1.17073 0.97749,-1.35904 1.94287,-2.79721 2.87362,-4.28381 0.0644,-0.10279 0.12214,-0.21593 0.18625,-0.3193 0.25853,-0.41685 0.51672,-0.85071 0.77162,-1.27716 0.23494,-0.39301 0.48654,-0.76967 0.71841,-1.17074 0.0355,-0.0614 0.071,-0.12462 0.10642,-0.18625 0.44273,-0.76976 0.87228,-1.56938 1.30377,-2.36807 0.13187,-0.24421 0.2683,-0.49815 0.39911,-0.74501 0.055,-0.10353 0.10492,-0.21525 0.15965,-0.31928 0.38171,-0.7261 0.77139,-1.45991 1.14412,-2.20844 0.80679,-1.61973 1.57662,-3.28104 2.34147,-5.00221 0.38376,-0.8639 0.7709,-1.74562 1.14412,-2.63415 0.044,-0.1047 0.0892,-0.21421 0.13304,-0.31929 0.45963,-1.10158 0.91342,-2.21452 1.35698,-3.35256 0.76173,-1.9537 1.4939,-3.98342 2.20843,-6.0399 0.19225,-0.55365 0.39653,-1.11546 0.58537,-1.67628 0.17916,-0.53202 0.35605,-1.08468 0.53215,-1.62306 0.26139,-0.79956 0.54359,-1.60797 0.79823,-2.42128 0.0987,-0.31541 0.19491,-0.64044 0.29268,-0.95787 0.0459,-0.14918 0.0874,-0.30271 0.13304,-0.45233 0.65421,-2.14097 1.28072,-4.3162 1.88913,-6.54546 0.0413,-0.15096 0.0921,-0.30097 0.13304,-0.45232 0.28036,-1.03527 0.55428,-2.08646 0.82483,-3.1397 0.006,-0.0267 0.0198,-0.053 0.0267,-0.0798 0.3062,-1.19362 0.58441,-2.40275 0.87805,-3.61862 0.16022,-0.66368 0.32245,-1.32544 0.47894,-1.99557 0.13306,-0.56966 0.26874,-1.15526 0.39911,-1.72949 0.21246,-0.93659 0.43329,-1.89857 0.63858,-2.84701 0.0706,-0.32576 0.14316,-0.65735 0.21286,-0.98447 0.5457,-2.56248 1.04921,-5.15338 1.54324,-7.79602 0.49434,-2.6425 0.96735,-5.31974 1.4102,-8.03547 0.1251,-0.76775 0.25151,-1.54163 0.3725,-2.31486 0.0925,-0.59049 0.17601,-1.1891 0.26608,-1.78271 0.1604,-1.05804 0.32612,-2.12524 0.47893,-3.1929 0.0454,-0.3169 0.0883,-0.64014 0.13304,-0.95787 0.19077,-1.35648 0.38014,-2.72655 0.55876,-4.09756 0.004,-0.0348 -0.004,-0.0718 0,-0.10643 0.18285,-1.40637 0.36206,-2.83644 0.53216,-4.25722 0.3397,-2.83637 0.66886,-5.70562 0.95786,-8.59423 0.0845,-0.84485 0.15934,-1.70537 0.23947,-2.55432 0.74288,-7.8683 1.30284,-15.91009 1.67628,-24.05322 0.003,-0.0794 -0.003,-0.16013 0,-0.23947 0.11674,-2.57091 0.2391,-5.15363 0.31929,-7.74279 10.2784,16.09759 16.08143,26.86963 17.02883,28.5765 5.61295,13.17261 -0.69353,46.6354 32.16852,48.61198 29.69639,-3.32989 16.88783,-83.71603 7.82261,-116.27496 -12.95362,-50.91798 -29.43841,-67.06189 -56.00887,-107.76055 0,0 -20.12641,-35.47279 -45.04657,-76.12417 -17.73761,-38.30144 -34.02224,-63.27266 -33.84479,-80.00888 -0.43417,-3.54904 0.0956,-7.2272 1.30377,-11.06874 0.009,0.002 0.018,-0.002 0.0267,0 2.93269,-9.32011 9.82878,-19.69579 16.65631,-31.90245 0.34853,-0.62299 0.71682,-1.25636 1.06431,-1.88913 1.02295,-1.8636 2.06433,-3.76852 3.05987,-5.72062 3.35062,-6.57016 5.33886,-11.87985 6.83813,-16.47007 0.0335,-0.10226 0.0734,-0.19111 0.10644,-0.29269 0.26793,-0.82649 0.47805,-1.58637 0.7184,-2.36807 0.22531,-0.73084 0.42927,-1.37872 0.63858,-2.07538 0.29531,-0.9842 0.56921,-1.89272 0.85144,-2.82041 0.0611,-0.20076 0.12511,-0.38686 0.18625,-0.58536 0.17329,-0.56322 0.35519,-1.1291 0.53216,-1.67627 0.26257,-0.81082 0.54006,-1.61044 0.82482,-2.39469 0.16241,-0.44779 0.33158,-0.88861 0.50555,-1.33037 0.0979,-0.24838 0.1903,-0.49806 0.29268,-0.74501 0.0707,-0.17071 0.16642,-0.33537 0.23948,-0.50554 0.19247,-0.44801 0.37428,-0.91131 0.58536,-1.35699 0.0202,-0.0426 0.0327,-0.0904 0.0532,-0.13304 0.19862,-0.41532 0.4207,-0.83534 0.63858,-1.25055 0.0854,-0.16256 0.17746,-0.31622 0.26608,-0.47894 0.26678,-0.49031 0.52559,-0.96982 0.82484,-1.46341 0.0542,-0.0895 0.10427,-0.1764 0.15964,-0.26607 1.02747,-1.6633 2.26361,-3.36148 3.77827,-5.13526 7.39013,-12.08678 39.48559,-17.61419 39.48559,-17.61419 0,0 16.98769,-2.81939 16.89579,-25.43681 -7.27834,-22.23927 -35.46785,-14.63415 -35.46785,-14.63415 -6.24432,3.75109 -26.04085,8.13821 -31.76941,3.56541 -3.21506,-2.70779 -6.48787,-5.15262 -9.76496,-7.37029 -0.0472,-0.0319 -0.0858,-0.0746 -0.13304,-0.10643 -2.1618,-1.45807 -4.33721,-2.79541 -6.51885,-4.04435 -0.056,-0.0321 -0.10364,-0.0745 -0.15965,-0.10642 -1.05573,-0.60176 -2.10691,-1.17613 -3.1663,-1.72949 -0.0634,-0.0332 -0.12283,-0.0735 -0.18625,-0.10644 -2.17614,-1.13061 -4.35815,-2.15754 -6.54545,-3.08647 -0.0703,-0.0299 -0.14258,-0.0503 -0.21286,-0.0798 -10.15615,-4.28331 -20.40539,-6.4175 -30.46563,-6.54545 z m -125.5876,202.61643 c -0.45011,1.19106 -0.90171,2.43161 -1.35698,3.67184 0.4561,-1.24188 0.90607,-2.47921 1.35698,-3.67184 z m 219.00668,137.10866 c 0.2806,1.19137 0.55136,2.38621 0.82484,3.59202 -0.273,-1.20405 -0.54478,-2.40233 -0.82484,-3.59202 z m 10.88249,71.49447 c 0.14143,1.82299 0.27538,3.65017 0.39911,5.48115 -0.12375,-1.83074 -0.25767,-3.65841 -0.39911,-5.48115 z m 1.03769,16.49668 c 0.0884,1.84636 0.169,3.68453 0.23947,5.53436 0.0652,1.71317 0.10978,3.42039 0.15964,5.13526 -0.0498,-1.71405 -0.0944,-3.42291 -0.15964,-5.13526 -0.0704,-1.8456 -0.15127,-3.6922 -0.23947,-5.53436 z m -267.37919,4.76275 c -0.0199,2.08798 -0.022,4.16736 -0.0267,6.22616 0.004,-2.06646 0.006,-4.13039 0.0267,-6.22616 z"
       id="path12015"
       inkscape:connector-curvature="0" />
    <path
       style="color:#000000;fill:#6982b6;fill-opacity:1;fill-rule:nonzero;stroke:none;stroke-width:4.53543329;marker:none;visibility:visible;display:inline;overflow:visible;enable-background:accumulate"
       d="m 87.3125,0 0,19.84375 595.25,0 0,-19.84375 z M 404.125,38.96875 c -21.23111,0.122625 -37.28882,4.179407 -40.9375,6.96875 l -275.875,0 0,19.84375 253.15625,0 c 80.54735,-30.11965 178.59114,21.81565 192,0 l 150.09375,0 0,-19.84375 -229.9375,0 c -17.04227,-5.309598 -33.97345,-7.052651 -48.5,-6.96875 z M 403.15625,80 c -25.76779,-0.159085 -53.82105,3.263883 -79.25,11.90625 l -236.59375,0 0,19.84375 228.59375,0 c 27.75404,-12.04887 104.38178,-22.5284 159.15625,0 l 207.5,0 0,-19.84375 -167.1875,0 c -10.68014,-1.84129 -27.55394,-3.67681 -40.5625,0 C 458.62666,84.958876 432.35975,80.180296 403.15625,80 z m -18.84375,42.09375 c -29.97152,0.24224 -57.56499,6.55442 -75.34375,15.75 l -221.65625,0 0,19.84375 218.1875,0 c 60.1669,-27.92849 105.80906,-20.18566 149.53125,0 l 227.53125,0 0,-19.84375 -218.4375,0 c -25.06595,-11.45379 -53.36704,-15.96374 -79.8125,-15.75 z m -14.5,46.34375 c -21.32418,0.36927 -41.96789,5.86993 -66.71875,15.375 l -215.78125,0 0,19.84375 208.3125,0 c 50.80454,-16.18319 82.47801,-22.49039 141.25,0 l 245.6875,0 0,-19.84375 -241.9375,0 c -27.47782,-10.98213 -49.48832,-15.74427 -70.8125,-15.375 z m -1.15625,44.5 c -32.76983,-0.14709 -65.63874,6.1384 -84,16.8125 l -197.34375,0 0,19.84375 187.21875,0 c 58.81968,-24.46262 118.85052,-25.75902 180.25,0 l 227.78125,0 0,-19.84375 -237.40625,0 c -18.73991,-11.54443 -47.58545,-16.68271 -76.5,-16.8125 z M 360.25,254.78125 c -37.71095,0.18377 -71.29916,8.42011 -96.84375,20.9375 l -176.09375,0 0,19.84375 167.4375,0 c 78.03986,-30.20421 151.77339,-28.8855 224.3125,0 l 203.5,0 0,-19.84375 -215.5,0 C 430.01688,260.72421 393.52437,254.6191 360.25,254.78125 z m 5.875,41.5 c -51.81676,0.46467 -100.41129,10.72165 -121.78125,25.375 l -157.03125,0 0,19.84375 147.40625,0 c 106.84198,-37.64008 186.68451,-32.24831 271.3125,0 l 176.53125,0 0,-19.84375 -188.28125,0 c -34.21529,-18.57342 -82.43558,-25.785 -128.15625,-25.375 z m 8.78125,42.90625 c -46.24193,0.0625 -89.87694,10.25493 -116.5,28.4375 -8.85029,-3.46583 -19.54299,-5.63367 -37.3125,0 l -133.78125,0 0,19.84375 122.59375,0 c 16.50329,-6.38302 33.29803,-1.33557 47.15625,-0.65625 64.40206,-40.40265 184.4174,-36.34528 247.90625,2.375 10.67466,-2.00083 20.93291,-9.28452 30.71875,-1.71875 l 146.875,0 0,-19.84375 -160.21875,0 c -11.9491,-3.04969 -17.45395,-1.80234 -22.125,0 -36.11829,-19.61626 -81.87311,-28.49617 -125.3125,-28.4375 z m 2.21875,44.71875 c -46.35798,0.29699 -92.29668,8.48847 -120.59375,24.96875 -13.49709,-9.41686 -50.28531,-5.12407 -58.375,4.6875 l -110.84375,0 0,19.84375 103.625,0 c 20.80824,-7.09775 40.63488,-23.14355 66.21875,0 28.52953,-41.73971 215.58681,-33.64158 254.5,0 14.82934,-7.3689 31.03715,-8.56002 49.40625,0 l 121.5,0 0,-19.84375 -130.84375,0 c -16.14497,-7.20675 -31.26434,-7.04659 -40.25,-0.8125 C 482.75567,393.37523 429.66404,383.56966 377.125,383.90625 z m -3.78125,46.46875 c -50.22514,0.38416 -96.52934,11.1908 -124.84375,29.15625 -20.71954,-17.68796 -48.11659,-6.66712 -61.84375,0 l -99.34375,0 0,19.84375 97.46875,0 c 25.52358,-10.50836 44.66025,-8.95895 59.5625,0 l 2.125,0 c 88.30558,-36.39177 175.50516,-36.47288 266.5,0 l 6,0 c 17.68687,-6.35394 35.98253,-7.79089 55.4375,0 l 108.15625,0 0,-19.84375 -113.21875,0 c -13.91044,-7.44363 -37.1257,-7.38021 -55.6875,0 -42.46215,-20.67849 -93.1313,-29.51713 -140.3125,-29.15625 z m -0.71875,48.8125 c -43.58787,0.069 -85.76505,8.37838 -124.8125,26.28125 l -12.03125,0 c -16.43093,-5.69855 -33.51824,-6.68852 -51.71875,0 l -96.75,0 0,19.84375 99.875,0 c 20.10405,-10.37575 35.02213,-5.1903 49.9375,0 l 11.5,0 c 87.93652,-33.30727 180.76328,-25.94611 264.34375,0 l 13.90625,0 c 18.06968,-9.36504 36.14907,-8.34215 54.21875,0 l 101.46875,0 0,-19.84375 -103.09375,0 c -21.20431,-9.28755 -41.05644,-6.5592 -60.5,0 l -4.375,0 C 467.03327,488.38197 419.02499,479.11407 372.625,479.1875 z m 0.5,49.5 c -38.95135,-0.0908 -78.12211,6.6346 -121.5625,22.75 l -13.625,0 c -1.67551,-5.59146 -26.58534,-13.71916 -44.34375,0 l -106.28125,0 0,19.84375 118.3125,0 c 5.26471,-6.70244 16.15626,-10.44756 24.5625,0 l 24.5625,0 c 78.60567,-30.91659 174.56977,-19.80685 252.625,0 l 34.96875,0 c 11.39369,-5.27691 22.79381,-8.71457 34.1875,0 l 106.03125,0 0,-19.84375 -101.21875,0 c -11.31234,-6.90992 -29.74394,-8.65478 -46.46875,0 l -24.28125,0 c -49.459,-13.7929 -93.32389,-22.64708 -137.46875,-22.75 z m 5.6875,51.40625 c -42.52919,0.19845 -81.08635,7.0523 -117.65625,17.28125 l -173.84375,0 0,19.84375 182.40625,0 c 91.2774,-25.73428 163.5877,-15.31307 225.09375,0 l 187.75,0 0,-19.84375 -180.53125,0 C 456.96202,584.92439 416.33826,579.91865 378.8125,580.09375 z M 326.59375,631.5 c -13.59153,0.25438 -27.65553,3.72872 -39,11.84375 l -200.28125,0 0,19.84375 225.125,0 c -3.73557,-13.65274 30.28688,-11.54422 25.90625,0 l 93.46875,0 c -1.21107,-15.01495 25.92444,-15.23935 28.28125,0 l 222.46875,0 0,-19.84375 -202.96875,0 c -21.64676,-13.06907 -48.94999,-14.17754 -76.375,0 l -33.375,0 c -9.08348,-7.18495 -25.77517,-12.17081 -43.25,-11.84375 z m -0.53125,51.15625 c -9.35333,0.0347 -19.10936,2.02875 -29.375,6.625 l -209.375,0 0,19.84375 191.46875,0 c 16.88635,-9.98162 21.44719,-3.50476 28.21875,0 13.65367,-5.14272 25.98263,-3.66378 37.875,0 10.75123,-1.48447 20.63789,-8.18078 33,0 l 23.21875,0 c 12.45813,-7.22036 21.11538,-3.03141 30.15625,0 15.72539,-8.13876 24.39697,-3.94255 33.21875,0 15.20862,-8.13037 23.38431,-3.95414 31.6875,0 l 186.40625,0 0,-19.84375 -206.15625,0 c -16.03724,-7.52897 -34.06342,-10.11 -57.15625,0 l -62.75,0 c -9.75645,-4.18061 -19.83706,-6.66432 -30.4375,-6.625 z m -238.75,52.59375 0,19.84375 595.25,0 0,-19.84375 z"
       transform="translate(-13.888889,161.48916)"
       id="rect3131"
       inkscape:connector-curvature="0"
       sodipodi:nodetypes="cccccsccccccccsscccccccccssccccccccssccccccccssccccccccssccccccccssccccccccssccccccccccccssccccccccccccssccccccccccccccssccccccccccccccccssccccccccccccccccssccccccccssccccccccccccssccccccccccccccccsccccc" />
  </g>
</svg>
