<?xml version="1.0" encoding="UTF-8" standalone="no"?>
<!-- Created with Inkscape (http://www.inkscape.org/) -->

<svg
   xmlns:dc="http://purl.org/dc/elements/1.1/"
   xmlns:cc="http://creativecommons.org/ns#"
   xmlns:rdf="http://www.w3.org/1999/02/22-rdf-syntax-ns#"
   xmlns:svg="http://www.w3.org/2000/svg"
   xmlns="http://www.w3.org/2000/svg"
   xmlns:sodipodi="http://sodipodi.sourceforge.net/DTD/sodipodi-0.dtd"
   xmlns:inkscape="http://www.inkscape.org/namespaces/inkscape"
   id="svg2"
   version="1.1"
   inkscape:version="0.48.4 r9939"
   width="1082.6073"
   height="337.78223"
   sodipodi:docname="AlanSpeak-Newgrange.svg"
   inkscape:export-filename="C:\Users\Alan\Downloads\AlanSpeak-Newgrange.png"
   inkscape:export-xdpi="90"
   inkscape:export-ydpi="90">
  <metadata
     id="metadata8">
    <rdf:RDF>
      <cc:Work
         rdf:about="">
        <dc:format>image/svg+xml</dc:format>
        <dc:type
           rdf:resource="http://purl.org/dc/dcmitype/StillImage" />
        <dc:title></dc:title>
      </cc:Work>
    </rdf:RDF>
  </metadata>
  <defs
     id="defs6">
    <filter
       inkscape:collect="always"
       id="filter3781"
       x="-0.091552794"
       width="1.1831056"
       y="-0.15380868"
       height="1.3076174"
       color-interpolation-filters="sRGB">
      <feGaussianBlur
         inkscape:collect="always"
         stdDeviation="0.64296518"
         id="feGaussianBlur3783" />
    </filter>
    <filter
       color-interpolation-filters="sRGB"
       inkscape:collect="always"
       id="filter3781-1"
       x="-0.091552794"
       width="1.1831056"
       y="-0.15380868"
       height="1.3076174">
      <feGaussianBlur
         inkscape:collect="always"
         stdDeviation="0.64296518"
         id="feGaussianBlur3783-7" />
    </filter>
    <filter
       color-interpolation-filters="sRGB"
       inkscape:collect="always"
       id="filter3781-0"
       x="-0.091552794"
       width="1.1831056"
       y="-0.15380868"
       height="1.3076174">
      <feGaussianBlur
         inkscape:collect="always"
         stdDeviation="0.64296518"
         id="feGaussianBlur3783-9" />
    </filter>
    <filter
       color-interpolation-filters="sRGB"
       inkscape:collect="always"
       id="filter3781-1-4-4"
       x="-0.091552794"
       width="1.1831056"
       y="-0.15380868"
       height="1.3076174">
      <feGaussianBlur
         inkscape:collect="always"
         stdDeviation="0.64296518"
         id="feGaussianBlur3783-7-8-5" />
    </filter>
    <filter
       color-interpolation-filters="sRGB"
       inkscape:collect="always"
       id="filter3781-0-5"
       x="-0.091552794"
       width="1.1831056"
       y="-0.15380868"
       height="1.3076174">
      <feGaussianBlur
         inkscape:collect="always"
         stdDeviation="0.64296518"
         id="feGaussianBlur3783-9-1" />
    </filter>
    <filter
       color-interpolation-filters="sRGB"
       inkscape:collect="always"
       id="filter3781-1-7"
       x="-0.091552794"
       width="1.1831056"
       y="-0.15380868"
       height="1.3076174">
      <feGaussianBlur
         inkscape:collect="always"
         stdDeviation="0.64296518"
         id="feGaussianBlur3783-7-1" />
    </filter>
    <filter
       color-interpolation-filters="sRGB"
       inkscape:collect="always"
       id="filter3781-1-4-4-2"
       x="-0.091552794"
       width="1.1831056"
       y="-0.15380868"
       height="1.3076174">
      <feGaussianBlur
         inkscape:collect="always"
         stdDeviation="0.64296518"
         id="feGaussianBlur3783-7-8-5-3" />
    </filter>
    <filter
       color-interpolation-filters="sRGB"
       inkscape:collect="always"
       id="filter3781-0-5-2"
       x="-0.091552794"
       width="1.1831056"
       y="-0.15380868"
       height="1.3076174">
      <feGaussianBlur
         inkscape:collect="always"
         stdDeviation="0.64296518"
         id="feGaussianBlur3783-9-1-2" />
    </filter>
    <filter
       color-interpolation-filters="sRGB"
       inkscape:collect="always"
       id="filter3781-1-7-1"
       x="-0.091552794"
       width="1.1831056"
       y="-0.15380868"
       height="1.3076174">
      <feGaussianBlur
         inkscape:collect="always"
         stdDeviation="0.64296518"
         id="feGaussianBlur3783-7-1-6" />
    </filter>
    <filter
       color-interpolation-filters="sRGB"
       inkscape:collect="always"
       id="filter3781-15-8"
       x="-0.091552794"
       width="1.1831056"
       y="-0.15380868"
       height="1.3076174">
      <feGaussianBlur
         inkscape:collect="always"
         stdDeviation="0.64296518"
         id="feGaussianBlur3783-2-5" />
    </filter>
    <filter
       color-interpolation-filters="sRGB"
       inkscape:collect="always"
       id="filter3781-1-9"
       x="-0.091552794"
       width="1.1831056"
       y="-0.15380868"
       height="1.3076174">
      <feGaussianBlur
         inkscape:collect="always"
         stdDeviation="0.64296518"
         id="feGaussianBlur3783-7-2" />
    </filter>
    <filter
       color-interpolation-filters="sRGB"
       inkscape:collect="always"
       id="filter3781-7"
       x="-0.091552794"
       width="1.1831056"
       y="-0.15380868"
       height="1.3076174">
      <feGaussianBlur
         inkscape:collect="always"
         stdDeviation="0.64296518"
         id="feGaussianBlur3783-95" />
    </filter>
    <filter
       color-interpolation-filters="sRGB"
       inkscape:collect="always"
       id="filter3781-15-7"
       x="-0.091552794"
       width="1.1831056"
       y="-0.15380868"
       height="1.3076174">
      <feGaussianBlur
         inkscape:collect="always"
         stdDeviation="0.64296518"
         id="feGaussianBlur3783-2-9" />
    </filter>
    <filter
       color-interpolation-filters="sRGB"
       inkscape:collect="always"
       id="filter3781-1-4-3"
       x="-0.091552794"
       width="1.1831056"
       y="-0.15380868"
       height="1.3076174">
      <feGaussianBlur
         inkscape:collect="always"
         stdDeviation="0.64296518"
         id="feGaussianBlur3783-7-8-1" />
    </filter>
    <filter
       color-interpolation-filters="sRGB"
       inkscape:collect="always"
       id="filter3781-0-9"
       x="-0.091552794"
       width="1.1831056"
       y="-0.15380868"
       height="1.3076174">
      <feGaussianBlur
         inkscape:collect="always"
         stdDeviation="0.64296518"
         id="feGaussianBlur3783-9-86" />
    </filter>
    <filter
       color-interpolation-filters="sRGB"
       inkscape:collect="always"
       id="filter3781-1-5"
       x="-0.091552794"
       width="1.1831056"
       y="-0.15380868"
       height="1.3076174">
      <feGaussianBlur
         inkscape:collect="always"
         stdDeviation="0.64296518"
         id="feGaussianBlur3783-7-0" />
    </filter>
    <filter
       color-interpolation-filters="sRGB"
       inkscape:collect="always"
       id="filter3781-2"
       x="-0.091552794"
       width="1.1831056"
       y="-0.15380868"
       height="1.3076174">
      <feGaussianBlur
         inkscape:collect="always"
         stdDeviation="0.64296518"
         id="feGaussianBlur3783-8" />
    </filter>
    <filter
       inkscape:collect="always"
       id="filter4037"
       x="-0.11357131"
       width="1.2271426"
       y="-0.15245838"
       height="1.3049169"
       color-interpolation-filters="sRGB">
      <feGaussianBlur
         inkscape:collect="always"
         stdDeviation="0.7976584"
         id="feGaussianBlur4039" />
    </filter>
    <filter
       inkscape:collect="always"
       id="filter4041"
       x="-0.1245101"
       width="1.2490202"
       y="-0.1767097"
       height="1.3534194"
       color-interpolation-filters="sRGB">
      <feGaussianBlur
         inkscape:collect="always"
         stdDeviation="0.87499149"
         id="feGaussianBlur4043" />
    </filter>
    <filter
       inkscape:collect="always"
       id="filter4171"
       color-interpolation-filters="sRGB">
      <feGaussianBlur
         inkscape:collect="always"
         stdDeviation="0.28559444"
         id="feGaussianBlur4173" />
    </filter>
    <filter
       inkscape:collect="always"
       id="filter4254"
       color-interpolation-filters="sRGB">
      <feGaussianBlur
         inkscape:collect="always"
         stdDeviation="0.23628694"
         id="feGaussianBlur4256" />
    </filter>
    <filter
       inkscape:collect="always"
       id="filter4266"
       color-interpolation-filters="sRGB">
      <feGaussianBlur
         inkscape:collect="always"
         stdDeviation="0.29477495"
         id="feGaussianBlur4268" />
    </filter>
    <filter
       inkscape:collect="always"
       id="filter4270"
       color-interpolation-filters="sRGB">
      <feGaussianBlur
         inkscape:collect="always"
         stdDeviation="0.17637466"
         id="feGaussianBlur4272" />
    </filter>
    <filter
       inkscape:collect="always"
       id="filter4274"
       color-interpolation-filters="sRGB">
      <feGaussianBlur
         inkscape:collect="always"
         stdDeviation="0.23511255"
         id="feGaussianBlur4276" />
    </filter>
    <filter
       inkscape:collect="always"
       id="filter4278"
       color-interpolation-filters="sRGB">
      <feGaussianBlur
         inkscape:collect="always"
         stdDeviation="0.23529334"
         id="feGaussianBlur4280" />
    </filter>
    <filter
       inkscape:collect="always"
       id="filter4286"
       color-interpolation-filters="sRGB">
      <feGaussianBlur
         inkscape:collect="always"
         stdDeviation="0.11764667"
         id="feGaussianBlur4288" />
    </filter>
    <filter
       inkscape:collect="always"
       id="filter4290"
       color-interpolation-filters="sRGB">
      <feGaussianBlur
         inkscape:collect="always"
         stdDeviation="0.35294001"
         id="feGaussianBlur4292" />
    </filter>
    <filter
       inkscape:collect="always"
       id="filter4294"
       color-interpolation-filters="sRGB">
      <feGaussianBlur
         inkscape:collect="always"
         stdDeviation="0.29411668"
         id="feGaussianBlur4296" />
    </filter>
    <filter
       inkscape:collect="always"
       id="filter4302"
       color-interpolation-filters="sRGB">
      <feGaussianBlur
         inkscape:collect="always"
         stdDeviation="0.38235168"
         id="feGaussianBlur4304" />
    </filter>
    <filter
       color-interpolation-filters="sRGB"
       inkscape:collect="always"
       id="filter3781-15-7-6"
       x="-0.091552794"
       width="1.1831056"
       y="-0.15380868"
       height="1.3076174">
      <feGaussianBlur
         inkscape:collect="always"
         stdDeviation="0.64296518"
         id="feGaussianBlur3783-2-9-1" />
    </filter>
  </defs>
  <sodipodi:namedview
     pagecolor="#ffffff"
     bordercolor="#666666"
     borderopacity="1"
     objecttolerance="10"
     gridtolerance="10"
     guidetolerance="10"
     inkscape:pageopacity="0"
     inkscape:pageshadow="2"
     inkscape:window-width="1280"
     inkscape:window-height="738"
     id="namedview4"
     showgrid="false"
     inkscape:zoom="0.44050133"
     inkscape:cx="631.13064"
     inkscape:cy="513.07676"
     inkscape:window-x="-8"
     inkscape:window-y="-8"
     inkscape:window-maximized="1"
     inkscape:current-layer="svg2"
     fit-margin-top="0"
     fit-margin-left="0"
     fit-margin-right="0"
     fit-margin-bottom="0"
     showborder="false"
     inkscape:showpageshadow="false" />
  <g
     id="g4560">
    <path
       sodipodi:nodetypes="ssccs"
       inkscape:connector-curvature="0"
       id="rect4476"
       d="m 26.981407,97.147315 c 389.777083,-98.07997119 376.929953,-157.603791 1020.428293,0 76.4531,18.724685 4.5403,236.094615 4.5403,236.094615 L 23.576196,335.51207 c 0,0 -55.248491,-223.60567 3.405211,-238.364755 z"
       style="fill:#00ffff;fill-opacity:1;fill-rule:evenodd;stroke:none" />
    <g
       id="g4503">
      <g
         id="g4421"
         transform="translate(25.025682,-91.290796)">
        <path
           sodipodi:nodetypes="aaaaaaaaacca"
           inkscape:connector-curvature="0"
           id="rect2987-6"
           d="m 158.21888,316.16556 c 24.11263,-6.96412 48.28209,-13.84015 72.78062,-19.29354 28.39587,-6.32094 57.0629,-11.54587 85.87936,-15.53228 34.7565,-4.80814 69.76512,-7.7996 104.77778,-10.09006 24.74895,-1.61903 49.55956,-2.41637 74.36088,-2.57736 33.75419,-0.21911 67.52108,0.65601 101.24094,2.19362 37.27276,1.69961 74.88171,1.51088 111.66446,7.77002 22.16282,3.77134 43.34701,11.94575 65.04323,17.83537 23.1439,6.28261 46.34307,12.36077 69.47971,18.67007 27.31678,7.44922 81.86682,22.65178 81.86682,22.65178 l -860.598555,7.62485 c 0,0 62.129245,-20.19071 93.504755,-29.25247 z"
           style="fill:#008000;fill-opacity:1;fill-rule:evenodd;stroke:none" />
        <g
           transform="translate(4.8156957,-107.55054)"
           id="g4350">
          <g
             id="g4111"
             transform="translate(-4.5402814,106.69661)">
            <path
               sodipodi:nodetypes="acccccacca"
               inkscape:connector-curvature="0"
               id="rect2987"
               d="M -0.5898301,379.40516 C 62.418564,316.13373 267.28838,378.28921 267.28838,378.28921 l 131.6938,-0.45867 151.5063,-0.38374 153.7955,-0.25614 128.2618,0.17782 c 0,0 146.98127,-45.87226 192.40052,-0.59271 12.5471,12.50854 0,53.15118 0,53.15118 l -1025.5361301,0 c 0,0 -11.8832709,-38.58891 0,-50.52179 z"
               style="fill:#008000;fill-opacity:1;fill-rule:evenodd;stroke:none" />
            <g
               id="g4101">
              <path
                 style="fill:#ac9d93;fill-opacity:1;fill-rule:evenodd;stroke:#000000;stroke-width:0.30000001;stroke-linecap:butt;stroke-miterlimit:4;stroke-opacity:1"
                 d="m 413.3948,318.1697 140.16794,2.6085 0.80262,60.15283 -139.76664,3.00981 z"
                 id="rect4098"
                 inkscape:connector-curvature="0"
                 sodipodi:nodetypes="ccccc" />
              <g
                 id="g4090">
                <g
                   id="g4081">
                  <g
                     id="g4074">
                    <path
                       sodipodi:nodetypes="asaacsaaccaaaacaaaaaa"
                       inkscape:connector-curvature="0"
                       id="rect4066"
                       d="m 248.81094,314.42807 c 54.14961,-3.26825 83.16684,-4.00831 162.64153,-5.7867 7.65957,-0.1714 14.71977,-4.30068 22.20456,-5.93661 9.26662,-2.02539 18.65804,-3.46276 28.05017,-4.78952 12.058,-1.70335 36.30607,-4.06689 36.30607,-4.06689 0,0 -2.55077,1.64643 -4.00414,1.75713 -1.77622,0.13529 -31.87831,3.52138 -47.54874,6.80694 -7.72312,1.61927 -15.47462,3.42732 -22.80817,6.34067 -2.45036,0.97343 -6.99717,3.68861 -6.99717,3.68861 l -1e-5,7.08584 c 0,0 -45.26927,-0.49835 -67.90436,-0.42137 -25.82481,0.0878 -51.67224,-0.21314 -77.46834,1.00767 -29.37475,1.39018 -58.68712,4.07576 -87.92953,7.1887 -21.09641,2.24577 -42.14328,5.01441 -63.10536,8.28445 C 97.458867,339.14197 52.16,347.9043 52.16,347.9043 c 0,0 30.638657,-8.0917 46.068563,-11.68275 8.922217,-2.0765 17.947187,-3.68906 26.884157,-5.70113 8.23341,-1.85366 16.33935,-4.28498 24.6289,-5.86881 7.60344,-1.45273 15.29828,-2.39907 22.98375,-3.32446 12.45874,-1.50014 24.97542,-2.47482 37.47278,-3.60902 12.8647,-1.16755 25.71869,-2.51182 38.61279,-3.29006 z"
                       style="fill:#f2f2f2;fill-opacity:1;fill-rule:evenodd;stroke:#000000;stroke-width:0.30000001;stroke-linecap:butt;stroke-miterlimit:4;stroke-opacity:1" />
                    <path
                       sodipodi:nodetypes="cscacaaaacccac"
                       inkscape:connector-curvature="0"
                       id="rect4069"
                       d="m 47.956706,349.36988 c 0,0 3.314602,-1.61666 7.569811,-2.19019 4.790751,-0.6457 14.802216,-2.63083 14.802216,-2.63083 0,0 24.577926,-4.83971 36.928087,-6.91502 12.72905,-2.13898 38.30004,-5.7045 38.30004,-5.7045 0,0 35.26824,-4.33148 52.94606,-6.08976 16.62257,-1.65332 33.27834,-2.96941 49.93809,-4.1925 9.40414,-0.69041 18.81067,-1.39799 28.23256,-1.77565 15.55005,-0.6233 31.11835,-0.71622 46.68062,-0.80827 31.07213,-0.1838 93.21662,0.51112 93.21662,0.51112 l -0.28377,64.41524 -375.424524,9.6481 c 0,0 0.941214,-15.02113 2.13181,-22.43981 1.182359,-7.36736 4.96238,-21.82793 4.96238,-21.82793 z"
                       style="fill:#cccccc;fill-opacity:1;fill-rule:evenodd;stroke:#000000;stroke-width:0.30000001;stroke-linecap:butt;stroke-miterlimit:4;stroke-opacity:1" />
                  </g>
                  <path
                     style="fill:#cccccc;fill-opacity:1;fill-rule:evenodd;stroke:#000000;stroke-width:0.33019525;stroke-linecap:butt;stroke-miterlimit:4;stroke-opacity:1"
                     d="m 551.23365,322.71085 -46.12793,0.0834 c 0,0 -1.08198,19.19292 -2.36283,28.7092 -0.44436,3.30144 -1.84288,9.82225 -1.84288,9.82225 l -2.38142,0.0309 1.07428,-16.10052 -20.55054,1.16499 -0.0602,14.44421 -6.71218,0.0223 -0.58259,-37.90906 -55.14693,-3.39506 -0.0403,-6.99603 7.07517,-3.73825 14.54014,-4.55483 13.93141,-2.8533 19.26122,-3.1466 23.78971,-2.83197 2.51577,-1.70422 12.44103,1.6566 14.68258,1.30753 15.79834,3.70942 18.676,4.36173 9.76401,6.9006 c 0,0 73.95986,-0.30002 110.9327,0.29957 17.54042,0.28446 35.09643,0.46891 52.60492,1.56445 19.73917,1.23512 39.38565,3.66598 59.06437,5.64298 22.3293,2.24328 44.70823,4.09967 66.95429,7.05652 21.75371,2.8914 43.47493,6.17786 65.00174,10.44171 13.81476,2.7363 27.66012,5.56091 41.11939,9.70611 7.93764,2.44464 15.79543,5.28719 23.26885,8.91078 6.12454,2.96957 17.54313,10.44947 17.54313,10.44947 l 2.0369,13.38471 -456.62282,1.63166 z"
                     id="rect4078"
                     inkscape:connector-curvature="0"
                     sodipodi:nodetypes="ccaccccccccccccccccccccaaaaaaacccc" />
                </g>
                <path
                   sodipodi:nodetypes="sacccs"
                   inkscape:connector-curvature="0"
                   id="rect4087"
                   d="m 544.0317,327.77068 c 0,0 1.81024,-2.99323 3.20854,-3.95655 1.20093,-0.82734 4.15689,-1.36409 4.15689,-1.36409 l -0.14188,58.35171 -7.22355,0 c 0,0 -4.63096,-34.45138 0,-53.03107 z"
                   style="fill:#1a1a1a;fill-opacity:1;fill-rule:evenodd;stroke:#000000;stroke-width:0.30000001;stroke-linecap:butt;stroke-miterlimit:4;stroke-opacity:1" />
              </g>
            </g>
            <g
               id="g4045">
              <path
                 style="fill:#666666;fill-opacity:1;fill-rule:evenodd;stroke:#000000;stroke-width:0.30000001;stroke-miterlimit:4;stroke-opacity:1;stroke-dasharray:none;filter:url(#filter3781)"
                 d="m 40.414565,385.81426 c 1.546511,-0.30755 6.122963,-1.41512 9.244763,-1.56072 4.151612,-0.19363 12.709507,-0.84906 12.434221,0.92225 -0.884092,5.68864 0,10.884 0,10.884 0,0 -12.152295,0.27792 -18.180515,-0.35471 -1.372533,-0.14404 -4.066004,-0.78036 -4.066004,-0.78036 0,0 0.182034,-9.03379 0.567535,-9.11046 z"
                 id="rect2990"
                 inkscape:connector-curvature="0"
                 sodipodi:nodetypes="sascacs" />
              <path
                 style="fill:#666666;fill-opacity:1;fill-rule:evenodd;stroke:#000000;stroke-width:0.30000001;stroke-miterlimit:4;stroke-opacity:1;stroke-dasharray:none;filter:url(#filter3781-1)"
                 d="m 55.769451,385.1028 c 0.978976,-0.87509 3.457367,-0.5366 5.201075,-0.56754 4.20263,-0.0746 12.697929,-0.86618 12.576105,0.92225 -0.387499,5.68864 -0.922245,10.31647 -0.922245,10.31647 0,0 -4.511073,0.59476 -11.866686,0.49659 -2.443667,-0.0326 -4.066004,-0.78036 -4.066004,-0.78036 0,0 -1.215288,-10.12547 -0.922245,-10.38741 z"
                 id="rect2990-4"
                 inkscape:connector-curvature="0"
                 sodipodi:nodetypes="sascscs"
                 transform="matrix(-1,0,0,1,134.57678,-0.56753523)" />
              <path
                 style="fill:#666666;fill-opacity:1;fill-rule:evenodd;stroke:#000000;stroke-width:0.30000001;stroke-miterlimit:4;stroke-opacity:1;stroke-dasharray:none;filter:url(#filter3781-0)"
                 d="m 77.887601,384.0388 c 1.546511,-0.30755 8.815816,-2.34221 15.771418,-0.14188 2.247406,0.71094 7.317921,-1.13283 7.042641,0.63848 -0.884096,5.68864 0,10.0327 0,10.0327 0,0 -7.66675,2.18454 -12.788935,0.78036 -2.95345,-0.80965 -9.173821,-0.49659 -9.173821,-0.49659 0,0 -1.236804,-10.7364 -0.851303,-10.81307 z"
                 id="rect2990-8"
                 inkscape:connector-curvature="0"
                 sodipodi:nodetypes="ssscscs" />
              <path
                 style="fill:#666666;fill-opacity:1;fill-rule:evenodd;stroke:#000000;stroke-width:0.30000001;stroke-miterlimit:4;stroke-opacity:1;stroke-dasharray:none;filter:url(#filter3781-1-7)"
                 d="m 53.499311,374.6034 c 6.079905,-7.64486 11.645138,-9.00981 20.240757,-6.81043 5.704745,1.45969 8.977144,4.52352 8.887126,6.31384 -0.671267,13.35036 -0.35471,27.34252 -0.35471,27.34252 0,0 -19.550755,0.59476 -26.906368,0.49659 -2.443667,-0.0326 -3.214701,-14.68497 -3.214701,-14.68497 0,0 -2.369556,-7.98323 1.347896,-12.65755 z"
                 id="rect2990-4-6"
                 inkscape:connector-curvature="0"
                 sodipodi:nodetypes="ssscscs"
                 transform="matrix(-1,0,0,1,183.10891,-5.4280065)" />
              <path
                 style="fill:#666666;fill-opacity:1;fill-rule:evenodd;stroke:#000000;stroke-width:0.30000001;stroke-miterlimit:4;stroke-opacity:1;stroke-dasharray:none;filter:url(#filter3781-0-5)"
                 d="m 130.67624,381.1647 c 1.54651,-0.30755 9.13562,-2.11049 13.78504,-2.12826 3.4242,-0.0131 10.43936,-0.28153 10.16408,1.48978 -0.8841,5.68864 -0.56753,13.15415 -0.56753,13.15415 0,0 -9.27559,0.97906 -13.92401,1.34789 -3.4321,0.27232 -10.30889,0.63848 -10.30889,0.63848 0,0 0.4658,-14.42537 0.85131,-14.50204 z"
                 id="rect2990-8-1"
                 inkscape:connector-curvature="0"
                 sodipodi:nodetypes="sascacs" />
              <path
                 style="fill:#666666;fill-opacity:1;fill-rule:evenodd;stroke:#000000;stroke-width:0.30000001;stroke-miterlimit:4;stroke-opacity:1;stroke-dasharray:none;filter:url(#filter3781-1-4-4)"
                 d="m 55.201916,382.26512 c 0.978976,-0.87509 8.386132,0.75914 12.579032,0.56753 2.605531,-0.11906 7.87388,-2.85255 7.752056,-1.06412 -0.387499,5.68864 -0.07094,14.00545 -0.07094,14.00545 0,0 -1.957165,1.44606 -9.312778,1.34789 -2.443667,-0.0326 -9.457588,-1.63166 -9.457588,-1.63166 0,0 -1.782823,-12.96315 -1.48978,-13.22509 z"
                 id="rect2990-4-2-4"
                 inkscape:connector-curvature="0"
                 sodipodi:nodetypes="sascscs"
                 transform="matrix(-1,0,0,1,230.23003,-2.095665)" />
              <path
                 style="fill:#666666;fill-opacity:1;fill-rule:evenodd;stroke:#000000;stroke-width:0.30000001;stroke-miterlimit:4;stroke-opacity:1;stroke-dasharray:none;filter:url(#filter3781-7)"
                 d="m 174.92432,380.54635 c 1.54651,-0.30755 6.08413,-2.02906 9.24477,-2.12825 3.04886,-0.0957 9.3043,-0.28153 9.02901,1.48978 -0.88409,5.68864 0.56753,12.01907 0.56753,12.01907 0,0 -6.55855,2.02599 -9.95125,2.1992 -3.07444,0.15697 -9.17382,-1.06412 -9.17382,-1.06412 0,0 -0.10174,-12.43901 0.28376,-12.51568 z"
                 id="rect2990-43"
                 inkscape:connector-curvature="0"
                 sodipodi:nodetypes="sascacs" />
              <path
                 style="fill:#666666;fill-opacity:1;fill-rule:evenodd;stroke:#000000;stroke-width:0.30000001;stroke-miterlimit:4;stroke-opacity:1;stroke-dasharray:none;filter:url(#filter3781-1-9)"
                 d="m 51.512937,381.41382 c 0.389798,-1.25389 9.502014,-1.62298 14.281638,-1.41884 5.798563,0.24766 17.23821,1.40396 17.116386,3.19239 -0.387499,5.68864 -0.638477,14.85675 -0.638477,14.85675 0,0 -11.321495,-0.25654 -18.677108,-0.35471 -2.443667,-0.0326 -12.295264,-1.06413 -12.295264,-1.06413 0,0 -3.485429,-3.31505 0.212825,-15.21146 z"
                 id="rect2990-4-1"
                 inkscape:connector-curvature="0"
                 sodipodi:nodetypes="sascscs"
                 transform="matrix(-1,0,0,1,276.18074,-4.4166132)" />
              <path
                 style="fill:#666666;fill-opacity:1;fill-rule:evenodd;stroke:#000000;stroke-width:0.30000001;stroke-miterlimit:4;stroke-opacity:1;stroke-dasharray:none;filter:url(#filter3781-15-8)"
                 d="m 226.57789,375.96965 c 1.55085,-0.28488 11.50237,-1.13415 17.19025,-0.42565 4.27066,0.53196 12.70952,1.70484 12.43423,3.47615 -0.88409,5.68864 4.25651,11.45154 4.25651,11.45154 0,0 -12.31355,-0.29499 -18.46428,-0.0709 -5.24543,0.19107 -15.70047,1.20601 -15.70047,1.20601 0,0 -3.22318,-14.99291 0.28376,-15.63711 z"
                 id="rect2990-7-3"
                 inkscape:connector-curvature="0"
                 sodipodi:nodetypes="sascacs" />
              <path
                 style="fill:#666666;fill-opacity:1;fill-rule:evenodd;stroke:#000000;stroke-width:0.30000001;stroke-miterlimit:4;stroke-opacity:1;stroke-dasharray:none;filter:url(#filter3781-1-7-1)"
                 d="m 43.567445,382.54889 c 0.978976,-0.87509 11.812114,-4.04442 17.970616,-4.54028 10.061992,-0.81017 30.29152,0.83642 30.169696,2.62485 -0.387499,5.68864 -4.611224,15.14052 -4.611224,15.14052 0,0 -11.605263,2.0136 -18.960876,1.91543 -2.443667,-0.0326 -14.565404,-2.76674 -14.565404,-2.76674 0,0 -10.295851,-12.11184 -10.002808,-12.37378 z"
                 id="rect2990-4-6-4"
                 inkscape:connector-curvature="0"
                 sodipodi:nodetypes="sascscs"
                 transform="matrix(-1,0,0,1,346.2792,-5.5881056)" />
              <path
                 style="fill:#666666;fill-opacity:1;fill-rule:evenodd;stroke:#000000;stroke-width:0.30000001;stroke-miterlimit:4;stroke-opacity:1;stroke-dasharray:none;filter:url(#filter3781-0-5-2)"
                 d="m 311.72388,372.77534 c 12.05058,1.13576 15.70056,-4.70724 31.94617,-4.3984 9.91847,0.18857 13.97568,8.80731 14.98813,10.28658 9.33154,13.63413 3.68898,10.60024 3.68898,10.60024 0,0 -22.52458,0.61617 -33.78774,0.49659 -9.87418,-0.10483 -29.60508,-1.06413 -29.60508,-1.06413 0,0 2.90241,-16.85085 12.76954,-15.92088 z"
                 id="rect2990-8-1-1"
                 inkscape:connector-curvature="0"
                 sodipodi:nodetypes="ssscacs" />
              <path
                 style="fill:#666666;fill-opacity:1;fill-rule:evenodd;stroke:#000000;stroke-width:0.30000001;stroke-miterlimit:4;stroke-opacity:1;stroke-dasharray:none;filter:url(#filter3781-1-4-4-2)"
                 d="m 48.107726,385.38657 c 0.978976,-0.87509 -2.602157,-3.75106 -1.32558,-4.82406 12.274965,-10.31738 50.155251,-4.55515 48.898357,0.92225 -1.275246,5.55739 -6.881364,15.70806 -6.881364,15.70806 0,0 -20.685826,-0.82408 -28.041439,-0.92225 -2.443667,-0.0326 -12.579032,-0.78036 -12.579032,-0.78036 0,0 -0.363985,-9.8417 -0.07094,-10.10364 z"
                 id="rect2990-4-2-4-1"
                 inkscape:connector-curvature="0"
                 sodipodi:nodetypes="ssscscs"
                 transform="matrix(-1,0,0,1,452.42399,-6.7960456)" />
              <path
                 style="fill:#666666;fill-opacity:1;fill-rule:evenodd;stroke:#000000;stroke-width:0.30000001;stroke-miterlimit:4;stroke-opacity:1;stroke-dasharray:none;filter:url(#filter3781-2)"
                 d="m 552.61899,375.43854 c 1.54651,-0.30755 6.12188,-1.44069 9.24476,-1.56072 2.35544,-0.0905 7.31793,-1.13283 7.04264,0.63848 -0.88409,5.68864 0,10.0327 0,10.0327 0,0 -8.52686,1.05495 -12.78893,0.78036 -1.37722,-0.0887 -4.066,-0.78036 -4.066,-0.78036 0,0 0.18203,-9.03379 0.56753,-9.11046 z"
                 id="rect2990-6"
                 inkscape:connector-curvature="0"
                 sodipodi:nodetypes="sascacs"
                 transform="matrix(1.1223068,0,0,1.693772,-67.274115,-265.65207)" />
              <path
                 style="fill:#666666;fill-opacity:1;fill-rule:evenodd;stroke:#000000;stroke-width:0.30000001;stroke-miterlimit:4;stroke-opacity:1;stroke-dasharray:none;filter:url(#filter3781-0-9)"
                 d="m 799.40509,367.95753 c 1.54652,-0.30755 4.69513,-1.98033 7.09755,-1.56072 1.87189,0.32694 4.41131,-0.51352 5.81479,0.74319 1.51386,1.35554 1.85653,4.81873 2.91494,5.31706 6.32442,2.97775 1.6871,11.61405 1.6871,11.61405 0,0 -5.04957,0.002 -7.57427,-0.0103 -3.91172,-0.0198 -11.73462,-0.10264 -11.73462,-0.10264 0,0 1.40901,-15.92396 1.79451,-16.00063 z"
                 id="rect2990-8-24"
                 inkscape:connector-curvature="0"
                 sodipodi:nodetypes="sssscacs"
                 transform="matrix(1.8501855,0,0,2.5122489,-677.28357,-582.17574)" />
              <path
                 style="fill:#003500;fill-opacity:1;fill-rule:evenodd;stroke:#000000;stroke-width:0.30000001;stroke-miterlimit:4;stroke-opacity:1;stroke-dasharray:none;filter:url(#filter4037)"
                 d="m 58.039592,387.37294 c 0.978976,-0.87509 1.652603,-2.37392 2.930934,-2.83768 3.95131,-1.43346 12.697929,-0.86618 12.576105,0.92225 -0.387499,5.68864 -0.922245,10.31647 -0.922245,10.31647 0,0 -4.511073,0.59476 -11.866686,0.49659 -2.443667,-0.0326 -4.066004,-0.78036 -4.066004,-0.78036 0,0 1.054853,-7.85533 1.347896,-8.11727 z"
                 id="rect2990-4-6-5"
                 inkscape:connector-curvature="0"
                 sodipodi:nodetypes="sascscs"
                 transform="matrix(-0.97175333,0,0,1.0002702,718.44546,-14.206529)" />
              <path
                 style="fill:#666666;fill-opacity:1;fill-rule:evenodd;stroke:#000000;stroke-width:0.30000001;stroke-miterlimit:4;stroke-opacity:1;stroke-dasharray:none;filter:url(#filter3781-1-5)"
                 d="m 58.039592,387.37294 c 0.978976,-0.87509 1.652603,-2.37392 2.930934,-2.83768 3.95131,-1.43346 12.697929,-0.86618 12.576105,0.92225 -0.387499,5.68864 -0.922245,10.31647 -0.922245,10.31647 0,0 -4.511073,0.59476 -11.866686,0.49659 -2.443667,-0.0326 -4.066004,-0.78036 -4.066004,-0.78036 0,0 1.054853,-7.85533 1.347896,-8.11727 z"
                 id="rect2990-4-0"
                 inkscape:connector-curvature="0"
                 sodipodi:nodetypes="sascscs"
                 transform="matrix(-3.3488288,0,0,1.0556799,911.82466,-33.793679)" />
              <path
                 style="fill:#545e39;fill-opacity:1;fill-rule:evenodd;stroke:#000000;stroke-width:0.30000001;stroke-miterlimit:4;stroke-opacity:1;stroke-dasharray:none;filter:url(#filter4041)"
                 d="m 616.20651,375.32925 c 1.54651,-0.30755 6.12187,-1.44069 9.24476,-1.56072 2.35543,-0.0905 7.31792,-1.13283 7.04264,0.63848 -0.8841,5.68864 0,10.0327 0,10.0327 0,0 -8.52687,1.05495 -12.78894,0.78036 -1.37721,-0.0887 -4.066,-0.78036 -4.066,-0.78036 0,0 0.18203,-9.03379 0.56754,-9.11046 z"
                 id="rect2990-8-1-0"
                 inkscape:connector-curvature="0"
                 sodipodi:nodetypes="sascacs"
                 transform="matrix(1.9508267,0,0,0.99269555,-583.31048,2.7707507)" />
              <path
                 style="fill:#666666;fill-opacity:1;fill-rule:evenodd;stroke:#000000;stroke-width:0.30000001;stroke-miterlimit:4;stroke-opacity:1;stroke-dasharray:none;filter:url(#filter3781-15-7)"
                 d="m 608.2453,360.36244 c 1.54651,-0.30755 12.9919,-19.28184 22.8656,-18.87055 14.10605,0.5876 30.58688,27.81147 30.31159,29.58278 -0.88409,5.68864 -26.95792,10.0327 -26.95792,10.0327 0,0 -13.26689,1.57572 -18.46429,-1.77355 -1.16928,-0.75351 -2.07962,-3.61804 -2.07962,-3.61804 0,0 -6.06086,-15.27667 -5.67536,-15.35334 z"
                 id="rect2990-7-6"
                 inkscape:connector-curvature="0"
                 sodipodi:nodetypes="sascacs" />
              <path
                 style="fill:#666666;fill-opacity:1;fill-rule:evenodd;stroke:#000000;stroke-width:0.30000001;stroke-miterlimit:4;stroke-opacity:1;stroke-dasharray:none;filter:url(#filter3781-1-4-3)"
                 d="m 57.818416,385.34611 c 0.978976,-0.87509 2.096412,-0.61664 3.15211,-0.81085 4.509468,-0.82957 13.693222,-3.29838 13.571398,-1.50995 -0.387499,5.68864 -0.148129,13.5594 -0.148129,13.5594 0,0 -6.280482,-0.21597 -13.636095,-0.31414 -2.443667,-0.0326 -4.28718,0.43574 -4.28718,0.43574 0,0 1.054853,-11.09826 1.347896,-11.3602 z"
                 id="rect2990-4-2-8"
                 inkscape:connector-curvature="0"
                 sodipodi:nodetypes="sascscs"
                 transform="matrix(-2.7661405,0,0,1.3988188,777.49231,-168.40175)" />
            </g>
          </g>
          <path
             style="opacity:0.07522122;fill:#333333;fill-opacity:1;fill-rule:evenodd;stroke:none"
             d="m 467.12249,414.75504 c 0,0 5.70362,-1.63234 8.62347,-2.11749 4.04187,-0.67157 8.15745,-1.38669 12.24372,-1.08661 3.02699,0.2223 6.02671,1.01965 8.85487,2.12127 1.84538,0.71881 5.19174,2.88872 5.19174,2.88872 0,0 -1.96049,25.46295 -3.45887,38.14033 -0.53093,4.49202 -1.95879,13.42774 -1.95879,13.42774 l -29.09483,-0.60196 z"
             id="rect4347"
             inkscape:connector-curvature="0"
             sodipodi:nodetypes="caaacaccc" />
          <g
             id="g4335"
             transform="matrix(0.9346879,0,0,1.0333947,26.728665,95.207301)">
            <path
               style="fill:#b3b3b3;fill-opacity:1;fill-rule:evenodd;stroke:none"
               d="m 479.23451,346.02781 21.93629,-0.97084 -1.2478,15.67444 -20.90316,0.44902 z"
               id="rect4333"
               inkscape:connector-curvature="0"
               sodipodi:nodetypes="ccccc" />
            <g
               transform="matrix(1,0,0,1.0144857,0,-5.4027095)"
               id="g4324">
              <path
                 style="fill:#333333;fill-opacity:1;fill-rule:evenodd;stroke:none"
                 d="m 472.99163,361.43126 c 0.0958,-0.24972 0.59922,-0.53361 0.59922,-0.53361 0,0 3.41519,-0.25661 5.11808,-0.14278 1.21752,0.0814 2.39417,0.53267 3.61314,0.58818 1.70758,0.0778 3.40734,-0.29322 5.11537,-0.36048 4.11079,-0.16186 11.57738,-0.0905 12.34149,-0.10311 0.65203,-0.0108 0.6508,1.91478 0,1.95637 -0.81646,0.0522 -26.14638,0.0587 -26.63681,-0.0502 -0.44346,-0.0984 -0.31319,-0.9303 -0.15049,-1.35441 z"
                 id="rect4321"
                 inkscape:connector-curvature="0"
                 sodipodi:nodetypes="acaaasssa" />
              <path
                 style="fill:#000000;fill-opacity:1;fill-rule:evenodd;stroke:none"
                 d="m 472.69062,366.89908 c -0.16828,-0.45183 -0.0309,-4.09203 0.253,-4.76161 0.28391,-0.66958 3.9142,-0.1815 5.85918,-0.004 0.61325,0.056 1.24458,0.10772 1.81665,0.33564 0.71715,0.28572 11.77439,-1.1116 18.45666,-0.45166 0.44476,0.0439 1.2333,0.50731 1.00266,0.89012 -0.1307,0.21693 -1.0459,0.84038 -1.61578,1.19099 -1.35261,0.83217 -3.95087,1.75693 -4.25224,2.14874 -0.34657,0.45058 -0.25085,6.72191 -0.25085,6.72191 l -14.64774,0 c 0,0 0.39314,-4.67173 0,-4.8157 -0.81369,-0.29797 -6.44215,-0.77278 -6.62154,-1.25443 z"
                 id="rect4318"
                 inkscape:connector-curvature="0"
                 sodipodi:nodetypes="szasssssccss" />
            </g>
            <path
               sodipodi:nodetypes="cccccc"
               inkscape:connector-curvature="0"
               id="rect4330"
               d="m 478.96106,345.93073 22.1906,-0.87376 -1.24779,15.68474 -3.34389,-1.43917 -11.94241,-7.64757 z"
               style="fill:#333333;fill-opacity:1;fill-rule:evenodd;stroke:none" />
            <rect
               y="350.12119"
               x="483.1748"
               height="9.1795607"
               width="13.415172"
               id="rect4328"
               style="fill:#000000;fill-opacity:1;fill-rule:evenodd;stroke:none" />
          </g>
          <g
             id="g4306">
            <path
               transform="matrix(-3.6180906,0,0,1.0542831,720.14246,74.972142)"
               sodipodi:nodetypes="sascscs"
               inkscape:connector-curvature="0"
               id="rect2990-4-0-6"
               d="m 56.941569,386.02716 c 0.978976,-0.87509 2.679378,-1.29636 4.028957,-1.4919 3.875896,-0.56159 11.224522,-0.2565 11.634943,0.92225 1.886976,5.41948 0.01892,10.31647 0.01892,10.31647 0,0 -4.511073,0.59476 -11.866686,0.49659 -2.443667,-0.0326 -4.066004,-0.78036 -4.066004,-0.78036 0,0 -0.04317,-9.20111 0.249873,-9.46305 z"
               style="fill:#666666;fill-opacity:1;fill-rule:evenodd;stroke:#000000;stroke-width:0.30000001;stroke-miterlimit:4;stroke-opacity:1;stroke-dasharray:none;filter:url(#filter4171)" />
            <path
               transform="matrix(0.34389957,0,0,0.40973224,309.42883,324.62138)"
               d="m 439.34584,393.15562 c -0.62098,0.14779 -1.0704,-0.51454 -1.06477,-1.06333 0.01,-0.96716 0.99018,-1.58139 1.88533,-1.48654 1.30533,0.13833 2.10213,1.47024 1.90828,2.70733 -0.25744,1.64299 -1.95166,2.62682 -3.52932,2.33004 -1.98081,-0.37261 -3.15351,-2.4337 -2.7518,-4.35132 0.48576,-2.31881 2.91608,-3.68135 5.17333,-3.17355 2.65697,0.59774 4.20992,3.39867 3.5953,5.99532 -0.70898,2.99526 -3.88139,4.73898 -6.81732,4.01705 -3.33363,-0.81971 -5.26838,-4.3642 -4.43881,-7.63931 0.93012,-3.67206 4.84711,-5.79802 8.46131,-4.86056 4.01055,1.04027 6.32786,5.33006 5.28232,9.28331 -0.17901,0.67683 -0.44878,1.32919 -0.79895,1.93538"
               sodipodi:t0="0.085946716"
               sodipodi:argument="-56.316097"
               sodipodi:radius="7.9821649"
               sodipodi:revolution="3.0546396"
               sodipodi:expansion="1"
               sodipodi:cy="392.50256"
               sodipodi:cx="439.556"
               id="path4177"
               style="fill:none;stroke:#000000;stroke-width:1px;stroke-linecap:butt;stroke-linejoin:miter;stroke-opacity:1;filter:url(#filter4302)"
               sodipodi:type="spiral" />
            <path
               transform="matrix(0.34389957,0,0,0.40973224,317.39695,323.28605)"
               d="m 439.34584,393.15562 c -0.62098,0.14779 -1.0704,-0.51454 -1.06477,-1.06333 0.01,-0.96716 0.99018,-1.58139 1.88533,-1.48654 1.30533,0.13833 2.10213,1.47024 1.90828,2.70733 -0.25744,1.64299 -1.95166,2.62682 -3.52932,2.33004 -1.98081,-0.37261 -3.15351,-2.4337 -2.7518,-4.35132 0.48576,-2.31881 2.91608,-3.68135 5.17333,-3.17355 2.65697,0.59774 4.20992,3.39867 3.5953,5.99532 -0.70898,2.99526 -3.88139,4.73898 -6.81732,4.01705 -3.33363,-0.81971 -5.26838,-4.3642 -4.43881,-7.63931 0.93012,-3.67206 4.84711,-5.79802 8.46131,-4.86056 4.01055,1.04027 6.32786,5.33006 5.28232,9.28331 -0.17901,0.67683 -0.44878,1.32919 -0.79895,1.93538"
               sodipodi:t0="0.085946716"
               sodipodi:argument="-56.316097"
               sodipodi:radius="7.9821649"
               sodipodi:revolution="3.0546396"
               sodipodi:expansion="1"
               sodipodi:cy="392.50256"
               sodipodi:cx="439.556"
               id="path4177-1"
               style="fill:none;stroke:#000000;stroke-width:1px;stroke-linecap:butt;stroke-linejoin:miter;stroke-opacity:1;filter:url(#filter4290)"
               sodipodi:type="spiral" />
            <path
               transform="matrix(0.34389957,0,0,0.40973224,314.1691,328.21651)"
               d="m 439.34584,393.15562 c -0.62098,0.14779 -1.0704,-0.51454 -1.06477,-1.06333 0.01,-0.96716 0.99018,-1.58139 1.88533,-1.48654 1.30533,0.13833 2.10213,1.47024 1.90828,2.70733 -0.25744,1.64299 -1.95166,2.62682 -3.52932,2.33004 -1.98081,-0.37261 -3.15351,-2.4337 -2.7518,-4.35132 0.48576,-2.31881 2.91608,-3.68135 5.17333,-3.17355 2.65697,0.59774 4.20992,3.39867 3.5953,5.99532 -0.70898,2.99526 -3.88139,4.73898 -6.81732,4.01705 -3.33363,-0.81971 -5.26838,-4.3642 -4.43881,-7.63931 0.93012,-3.67206 4.84711,-5.79802 8.46131,-4.86056 4.01055,1.04027 6.32786,5.33006 5.28232,9.28331 -0.17901,0.67683 -0.44878,1.32919 -0.79895,1.93538"
               sodipodi:t0="0.085946716"
               sodipodi:argument="-56.316097"
               sodipodi:radius="7.9821649"
               sodipodi:revolution="3.0546396"
               sodipodi:expansion="1"
               sodipodi:cy="392.50256"
               sodipodi:cx="439.556"
               id="path4177-3"
               style="fill:none;stroke:#000000;stroke-width:1px;stroke-linecap:butt;stroke-linejoin:miter;stroke-opacity:1;filter:url(#filter4294)"
               sodipodi:type="spiral" />
            <path
               transform="matrix(0.34389957,0,0,0.40973224,320.87311,328.07463)"
               d="m 439.34584,393.15562 c -0.62098,0.14779 -1.0704,-0.51454 -1.06477,-1.06333 0.01,-0.96716 0.99018,-1.58139 1.88533,-1.48654 1.30533,0.13833 2.10213,1.47024 1.90828,2.70733 -0.25744,1.64299 -1.95166,2.62682 -3.52932,2.33004 -1.98081,-0.37261 -3.15351,-2.4337 -2.7518,-4.35132 0.48576,-2.31881 2.91608,-3.68135 5.17333,-3.17355 2.65697,0.59774 4.20992,3.39867 3.5953,5.99532 -0.70898,2.99526 -3.88139,4.73898 -6.81732,4.01705 -3.33363,-0.81971 -5.26838,-4.3642 -4.43881,-7.63931 0.93012,-3.67206 4.84711,-5.79802 8.46131,-4.86056 4.01055,1.04027 6.32786,5.33006 5.28232,9.28331 -0.17901,0.67683 -0.44878,1.32919 -0.79895,1.93538"
               sodipodi:t0="0.085946716"
               sodipodi:argument="-56.316097"
               sodipodi:radius="7.9821649"
               sodipodi:revolution="3.0546396"
               sodipodi:expansion="1"
               sodipodi:cy="392.50256"
               sodipodi:cx="439.556"
               id="path4177-8"
               style="fill:none;stroke:#000000;stroke-width:1px;stroke-linecap:butt;stroke-linejoin:miter;stroke-opacity:1;filter:url(#filter4286)"
               sodipodi:type="spiral" />
            <path
               transform="matrix(0.34389957,0,0,0.40973224,325.05868,323.28604)"
               d="m 439.34584,393.15562 c -0.62098,0.14779 -1.0704,-0.51454 -1.06477,-1.06333 0.01,-0.96716 0.99018,-1.58139 1.88533,-1.48654 1.30533,0.13833 2.10213,1.47024 1.90828,2.70733 -0.25744,1.64299 -1.95166,2.62682 -3.52932,2.33004 -1.98081,-0.37261 -3.15351,-2.4337 -2.7518,-4.35132 0.48576,-2.31881 2.91608,-3.68135 5.17333,-3.17355 2.65697,0.59774 4.20992,3.39867 3.5953,5.99532 -0.70898,2.99526 -3.88139,4.73898 -6.81732,4.01705 -3.33363,-0.81971 -5.26838,-4.3642 -4.43881,-7.63931 0.93012,-3.67206 4.84711,-5.79802 8.46131,-4.86056 4.01055,1.04027 6.32786,5.33006 5.28232,9.28331 -0.17901,0.67683 -0.44878,1.32919 -0.79895,1.93538"
               sodipodi:t0="0.085946716"
               sodipodi:argument="-56.316097"
               sodipodi:radius="7.9821649"
               sodipodi:revolution="3.0546396"
               sodipodi:expansion="1"
               sodipodi:cy="392.50256"
               sodipodi:cx="439.556"
               id="path4177-9"
               style="fill:none;stroke:#000000;stroke-width:1px;stroke-linecap:butt;stroke-linejoin:miter;stroke-opacity:1;filter:url(#filter4278)"
               sodipodi:type="spiral" />
            <path
               transform="matrix(0.38897852,0,0,0.43183568,309.77261,319.99862)"
               d="m 439.34584,393.15562 c -0.62098,0.14779 -1.0704,-0.51454 -1.06477,-1.06333 0.01,-0.96716 0.99018,-1.58139 1.88533,-1.48654 1.30533,0.13833 2.10213,1.47024 1.90828,2.70733 -0.25744,1.64299 -1.95166,2.62682 -3.52932,2.33004 -1.98081,-0.37261 -3.15351,-2.4337 -2.7518,-4.35132 0.48576,-2.31881 2.91608,-3.68135 5.17333,-3.17355 2.65697,0.59774 4.20992,3.39867 3.5953,5.99532 -0.70898,2.99526 -3.88139,4.73898 -6.81732,4.01705 -3.33363,-0.81971 -5.26838,-4.3642 -4.43881,-7.63931 0.93012,-3.67206 4.84711,-5.79802 8.46131,-4.86056 4.01055,1.04027 6.32786,5.33006 5.28232,9.28331 -0.17901,0.67683 -0.44878,1.32919 -0.79895,1.93538"
               sodipodi:t0="0.085946716"
               sodipodi:argument="-56.316097"
               sodipodi:radius="7.9821649"
               sodipodi:revolution="3.0546396"
               sodipodi:expansion="1"
               sodipodi:cy="392.50256"
               sodipodi:cx="439.556"
               id="path4177-34"
               style="fill:none;stroke:#000000;stroke-width:1px;stroke-linecap:butt;stroke-linejoin:miter;stroke-opacity:1;filter:url(#filter4274)"
               sodipodi:type="spiral" />
            <path
               transform="matrix(0.39432997,0,0,0.4157022,311.53149,320.92897)"
               d="m 439.34584,393.15562 c -0.62098,0.14779 -1.0704,-0.51454 -1.06477,-1.06333 0.01,-0.96716 0.99018,-1.58139 1.88533,-1.48654 1.30533,0.13833 2.10213,1.47024 1.90828,2.70733 -0.25744,1.64299 -1.95166,2.62682 -3.52932,2.33004 -1.98081,-0.37261 -3.15351,-2.4337 -2.7518,-4.35132 0.48576,-2.31881 2.91608,-3.68135 5.17333,-3.17355 2.65697,0.59774 4.20992,3.39867 3.5953,5.99532 -0.70898,2.99526 -3.88139,4.73898 -6.81732,4.01705 -3.33363,-0.81971 -5.26838,-4.3642 -4.43881,-7.63931 0.93012,-3.67206 4.84711,-5.79802 8.46131,-4.86056 4.01055,1.04027 6.32786,5.33006 5.28232,9.28331 -0.17901,0.67683 -0.44878,1.32919 -0.79895,1.93538"
               sodipodi:t0="0.085946716"
               sodipodi:argument="-56.316097"
               sodipodi:radius="7.9821649"
               sodipodi:revolution="3.0546396"
               sodipodi:expansion="1"
               sodipodi:cy="392.50256"
               sodipodi:cx="439.556"
               id="path4177-4"
               style="fill:none;stroke:#000000;stroke-width:1px;stroke-linecap:butt;stroke-linejoin:miter;stroke-opacity:1;filter:url(#filter4270)"
               sodipodi:type="spiral" />
            <path
               transform="matrix(0.53385979,0,0,0.50325888,261.79714,291.10684)"
               d="m 439.34584,393.15562 c -0.62098,0.14779 -1.0704,-0.51454 -1.06477,-1.06333 0.01,-0.96716 0.99018,-1.58139 1.88533,-1.48654 1.30533,0.13833 2.10213,1.47024 1.90828,2.70733 -0.25744,1.64299 -1.95166,2.62682 -3.52932,2.33004 -1.98081,-0.37261 -3.15351,-2.4337 -2.7518,-4.35132 0.48576,-2.31881 2.91608,-3.68135 5.17333,-3.17355 2.65697,0.59774 4.20992,3.39867 3.5953,5.99532 -0.70898,2.99526 -3.88139,4.73898 -6.81732,4.01705 -3.33363,-0.81971 -5.26838,-4.3642 -4.43881,-7.63931 0.93012,-3.67206 4.84711,-5.79802 8.46131,-4.86056 4.01055,1.04027 6.32786,5.33006 5.28232,9.28331 -0.17901,0.67683 -0.44878,1.32919 -0.79895,1.93538"
               sodipodi:t0="0.085946716"
               sodipodi:argument="-56.316097"
               sodipodi:radius="7.9821649"
               sodipodi:revolution="3.0546396"
               sodipodi:expansion="1"
               sodipodi:cy="392.50256"
               sodipodi:cx="439.556"
               id="path4177-6"
               style="fill:none;stroke:#000000;stroke-width:1px;stroke-linecap:butt;stroke-linejoin:miter;stroke-opacity:1;filter:url(#filter4266)"
               sodipodi:type="spiral" />
            <path
               transform="matrix(0.50649273,0,0,0.45660598,284.05994,307.29505)"
               d="m 439.34584,393.15562 c -0.62098,0.14779 -1.0704,-0.51454 -1.06477,-1.06333 0.01,-0.96716 0.99018,-1.58139 1.88533,-1.48654 1.30533,0.13833 2.10213,1.47024 1.90828,2.70733 -0.25744,1.64299 -1.95166,2.62682 -3.52932,2.33004 -1.98081,-0.37261 -3.15351,-2.4337 -2.7518,-4.35132 0.48576,-2.31881 2.91608,-3.68135 5.17333,-3.17355 2.65697,0.59774 4.20992,3.39867 3.5953,5.99532 -0.70898,2.99526 -3.88139,4.73898 -6.81732,4.01705 -3.33363,-0.81971 -5.26838,-4.3642 -4.43881,-7.63931 0.93012,-3.67206 4.84711,-5.79802 8.46131,-4.86056 4.01055,1.04027 6.32786,5.33006 5.28232,9.28331 -0.17901,0.67683 -0.44878,1.32919 -0.79895,1.93538"
               sodipodi:t0="0.085946716"
               sodipodi:argument="-56.316097"
               sodipodi:radius="7.9821649"
               sodipodi:revolution="3.0546396"
               sodipodi:expansion="1"
               sodipodi:cy="392.50256"
               sodipodi:cx="439.556"
               id="path4177-0"
               style="fill:none;stroke:#000000;stroke-width:1px;stroke-linecap:butt;stroke-linejoin:miter;stroke-opacity:1;filter:url(#filter4254)"
               sodipodi:type="spiral" />
          </g>
          <path
             style="opacity:0.07522122;fill:#000080;fill-opacity:1;fill-rule:evenodd;stroke:none"
             d="m 490.89997,457.01778 3.90769,-4.89736 0.21826,-0.14407 0.0207,0.31463 -1.04907,15.68753 -3.12268,-1.45474 z"
             id="rect4344"
             inkscape:connector-curvature="0"
             sodipodi:nodetypes="ccccccc" />
        </g>
      </g>
      <path
         style="fill:#666666;fill-opacity:1;fill-rule:evenodd;stroke:#000000;stroke-width:0.30000001;stroke-miterlimit:4;stroke-opacity:1;stroke-dasharray:none;filter:url(#filter3781-15-7-6)"
         d="m 453.78417,284.89444 c 3.63551,-12.03099 9.70421,-30.20211 21.26037,-28.10063 13.68715,2.489 12.12671,38.24548 11.85142,40.01679 -0.88409,5.68864 -5.68859,6.01962 -5.68859,6.01962 0,0 -13.66481,1.16754 -20.47083,0.63429 -9.98457,-0.78228 -8.50055,-4.82196 -8.50055,-4.82196 -0.057,0.31359 -2.21482,-1.29517 1.54818,-13.74811 z"
         id="rect2990-7-6-8"
         inkscape:connector-curvature="0"
         sodipodi:nodetypes="sascscs" />
    </g>
  </g>
</svg>
