<?xml version="1.0" encoding="UTF-8" standalone="no"?>
<svg
   xmlns:dc="http://purl.org/dc/elements/1.1/"
   xmlns:cc="http://creativecommons.org/ns#"
   xmlns:rdf="http://www.w3.org/1999/02/22-rdf-syntax-ns#"
   xmlns:svg="http://www.w3.org/2000/svg"
   xmlns="http://www.w3.org/2000/svg"
   xmlns:sodipodi="http://sodipodi.sourceforge.net/DTD/sodipodi-0.dtd"
   xmlns:inkscape="http://www.inkscape.org/namespaces/inkscape"
   width="216.95312"
   height="305"
   viewBox="0 0 173.5625 244"
   version="1.1"
   id="svg2"
   inkscape:version="0.48.4 r9939"
   sodipodi:docname="AnimalSilhouettes2-Fox.svg">
  <metadata
     id="metadata11474">
    <rdf:RDF>
      <cc:Work
         rdf:about="">
        <dc:format>image/svg+xml</dc:format>
        <dc:type
           rdf:resource="http://purl.org/dc/dcmitype/StillImage" />
        <dc:title></dc:title>
      </cc:Work>
    </rdf:RDF>
  </metadata>
  <defs
     id="defs11472" />
  <sodipodi:namedview
     pagecolor="#ffffff"
     bordercolor="#666666"
     borderopacity="1"
     objecttolerance="10"
     gridtolerance="10"
     guidetolerance="10"
     inkscape:pageopacity="0"
     inkscape:pageshadow="2"
     inkscape:window-width="1855"
     inkscape:window-height="1056"
     id="namedview11470"
     showgrid="false"
     units="in"
     fit-margin-top="0.25"
     fit-margin-left="0.25"
     fit-margin-right="0.25"
     fit-margin-bottom="0.25"
     inkscape:zoom="0.56869759"
     inkscape:cx="-1013.4882"
     inkscape:cy="359.30891"
     inkscape:window-x="65"
     inkscape:window-y="24"
     inkscape:window-maximized="1"
     inkscape:current-layer="svg2" />
  <path
     d="m 43.2275,18.5075 c 1.69,-0.11 5.07,-0.35 6.75,-0.47 1.04,0.7 2.18,0.94 3.44,0.74 l 0.86,-0.03 0.83,0.25 c 0.58,0.21 1.72,0.63 2.29,0.84 l 0.76,0.33 c 0.34,0.16 1.02,0.49 1.36,0.65 l 0.67,0.35 c 0.32,0.18 0.94,0.53 1.26,0.71 l 0.62,0.39 c 0.28,0.19 0.84,0.59 1.13,0.78 0.27,0.21 0.8,0.63 1.07,0.84 0.27,0.22 0.8,0.66 1.07,0.88 l 0.55,0.49 c 0.26,0.24 0.76,0.73 1.02,0.98 l 0.38,0.58 c 0.23,0.24 0.69,0.71 0.92,0.94 0.21,0.26 0.63,0.79 0.84,1.05 0.2,0.27 0.61,0.81 0.82,1.09 l 0.29,0.63 c 0.2,0.26 0.61,0.79 0.82,1.06 0.19,0.31 0.56,0.93 0.75,1.24 l 0.37,0.68 c 0.19,0.34 0.55,1.01 0.73,1.35 l 0.36,0.73 c 0.17,0.35 0.5,1.05 0.67,1.4 l 0.32,0.74 0.16,0.77 c 0.17,0.32 0.52,0.95 0.69,1.26 l 0.29,0.73 c 0.14,0.35 0.41,1.05 0.55,1.4 l 0.27,0.73 0.19,0.72 c 0.21,0.25 0.62,0.74 0.82,0.98 0.18,0.63 0.53,1.88 0.71,2.51 l 0.37,0.85 c 0.25,0.57 0.76,1.72 1.01,2.3 l 0.14,0.78 c 0.18,0.31 0.53,0.92 0.71,1.23 l 0.29,0.71 c 0.14,0.35 0.44,1.03 0.58,1.38 l 0.29,0.71 0.14,0.75 c 0.16,0.31 0.5,0.93 0.66,1.25 l 0.28,0.71 c 0.13,0.35 0.4,1.04 0.54,1.39 l 0.27,0.72 0.19,0.73 c 0.2,0.24 0.61,0.73 0.82,0.97 0.18,0.63 0.53,1.88 0.7,2.5 l 0.37,0.85 c 0.26,0.58 0.76,1.72 1.01,2.29 l 0.16,0.77 c 0.18,0.3 0.54,0.9 0.72,1.2 l 0.31,0.69 c 0.16,0.33 0.48,0.99 0.64,1.32 l 0.34,0.67 c 0.18,0.32 0.52,0.96 0.7,1.28 l 0.36,0.66 c 0.19,0.3 0.55,0.91 0.73,1.22 0.2,0.3 0.58,0.9 0.77,1.19 l 0.4,0.63 c 0.19,0.3 0.59,0.9 0.78,1.2 0.2,0.3 0.61,0.9 0.81,1.19 l 0.41,0.64 c 0.21,0.3 0.61,0.91 0.82,1.21 0.21,0.3 0.63,0.91 0.84,1.21 l 0.42,0.63 c 0.21,0.31 0.63,0.91 0.84,1.21 0.21,0.29 0.63,0.87 0.84,1.16 l 0.32,0.64 c 0.22,0.26 0.66,0.78 0.88,1.04 0.21,0.28 0.63,0.84 0.84,1.12 0.22,0.29 0.65,0.85 0.86,1.14 l 0.34,0.64 c 0.22,0.26 0.68,0.78 0.9,1.04 0.22,0.29 0.65,0.86 0.86,1.14 0.22,0.29 0.66,0.86 0.88,1.15 l 0.34,0.65 c 0.23,0.26 0.68,0.79 0.91,1.05 0.22,0.29 0.65,0.86 0.87,1.14 0.21,0.29 0.65,0.86 0.87,1.15 l 0.34,0.64 c 0.22,0.27 0.68,0.79 0.9,1.05 0.21,0.28 0.64,0.85 0.85,1.13 0.22,0.28 0.65,0.85 0.86,1.14 l 0.33,0.64 c 0.23,0.26 0.67,0.79 0.9,1.05 0.21,0.29 0.63,0.87 0.84,1.16 0.22,0.3 0.66,0.9 0.88,1.2 l 0.45,0.64 c 0.21,0.31 0.64,0.92 0.85,1.22 0.21,0.3 0.63,0.88 0.84,1.18 l 0.31,0.64 c 0.2,0.27 0.62,0.79 0.83,1.06 0.19,0.28 0.57,0.85 0.76,1.13 l 0.27,0.64 c 0.19,0.27 0.59,0.8 0.78,1.07 0.18,0.3 0.55,0.91 0.73,1.21 l 0.36,0.66 c 0.18,0.32 0.54,0.97 0.71,1.3 l 0.36,0.69 c 0.17,0.34 0.51,1.01 0.68,1.35 l 0.34,0.71 c 0.16,0.35 0.49,1.05 0.65,1.4 l 0.33,0.75 c 0.24,0.54 0.72,1.63 0.95,2.17 l 0.11,0.77 c 0.17,0.3 0.52,0.91 0.7,1.22 l 0.27,0.76 c 0.23,0.55 0.68,1.65 0.91,2.2 0.22,0.56 0.65,1.67 0.87,2.22 l 0.28,0.76 0.06,0.77 c 0.16,0.3 0.49,0.91 0.65,1.21 l 0.22,0.76 c 0.19,0.56 0.56,1.67 0.74,2.23 l 0.26,0.81 c 0.19,0.57 0.58,1.7 0.77,2.27 l 0.26,0.82 c 0.18,0.57 0.53,1.72 0.71,2.29 0.1,0.42 0.29,1.26 0.39,1.69 0.17,0.56 0.52,1.7 0.69,2.27 l 0.23,0.82 c 0.18,0.56 0.53,1.69 0.71,2.26 0.09,0.42 0.28,1.26 0.38,1.69 0.17,0.56 0.52,1.7 0.7,2.27 l 0.24,0.82 c 0.19,0.57 0.57,1.7 0.76,2.26 l 0.25,0.82 c 0.18,0.57 0.55,1.71 0.73,2.28 l 0.22,0.82 c 0.02,0.41 0.07,1.22 0.09,1.63 0.19,0.3 0.56,0.92 0.74,1.22 l 0.19,0.79 c 0.18,0.56 0.54,1.68 0.71,2.24 l 0.26,0.82 c 0.19,0.57 0.58,1.7 0.78,2.27 l 0.26,0.82 c 0.21,0.55 0.63,1.66 0.84,2.22 l 0.28,0.77 c 0.15,0.35 0.43,1.07 0.58,1.43 l 0.28,0.78 c 0.22,0.57 0.67,1.71 0.89,2.29 l 0.3,0.83 c 0.25,0.55 0.74,1.66 0.98,2.22 l 0.2,0.74 c 0.19,0.29 0.55,0.87 0.73,1.17 l 0.22,0.66 c 0.18,0.29 0.53,0.85 0.71,1.13 l 0.23,0.66 c 0.19,0.28 0.57,0.85 0.76,1.13 0.18,0.32 0.55,0.94 0.74,1.26 l 0.39,0.67 c 0.2,0.32 0.58,0.96 0.78,1.28 l 0.29,0.68 c 0.2,0.27 0.62,0.83 0.83,1.1 0.19,0.29 0.58,0.88 0.78,1.18 l 0.3,0.64 c 0.21,0.27 0.63,0.8 0.84,1.06 0.2,0.29 0.61,0.87 0.81,1.16 0.21,0.3 0.63,0.89 0.84,1.19 l 0.44,0.64 c 0.21,0.3 0.63,0.91 0.83,1.22 0.21,0.3 0.62,0.9 0.83,1.19 l 0.41,0.62 c 0.19,0.29 0.56,0.87 0.75,1.16 0.16,0.28 0.49,0.83 0.66,1.1 l 0.18,0.6 c 0.12,0.26 0.35,0.8 0.46,1.07 0.03,0.28 0.08,0.86 0.11,1.15 l -0.09,0.58 -0.32,0.49 c -0.14,0.24 -0.43,0.71 -0.57,0.95 -0.21,0.19 -0.62,0.58 -0.83,0.77 l -0.52,0.27 c -0.24,0.17 -0.73,0.51 -0.97,0.69 l -0.61,0.17 c -0.28,0.16 -0.84,0.49 -1.12,0.65 l -0.68,0.29 c -0.36,0.13 -1.09,0.41 -1.45,0.55 -0.44,0.12 -1.33,0.38 -1.78,0.51 -1.8,0.06 -5.39,0.18 -7.19,0.25 -0.75,-0.12 -2.25,-0.34 -3,-0.45 -0.62,-0.19 -1.87,-0.55 -2.5,-0.74 l -0.85,-0.29 c -0.58,-0.22 -1.73,-0.65 -2.31,-0.86 l -0.76,-0.31 c -0.35,-0.15 -1.04,-0.45 -1.39,-0.6 l -0.68,-0.29 c -0.29,-0.17 -0.87,-0.49 -1.17,-0.66 l -0.66,-0.16 c -0.28,-0.17 -0.84,-0.49 -1.12,-0.65 l -0.65,-0.2 c -0.28,-0.17 -0.85,-0.51 -1.13,-0.67 l -0.66,-0.22 c -0.29,-0.17 -0.87,-0.53 -1.16,-0.71 l -0.73,-0.21 c -0.51,-0.24 -1.54,-0.72 -2.06,-0.96 -0.31,-0.15 -0.92,-0.45 -1.23,-0.6 l -0.74,-0.06 -0.76,-0.13 c -0.94,-1.12 -1.62,-0.99 -2.02,0.39 l -0.59,0.47 c -0.25,0.25 -0.74,0.76 -0.99,1.02 -0.25,0.49 -0.74,1.49 -0.98,1.98 l -0.26,0.76 c -0.11,0.36 -0.31,1.08 -0.41,1.44 0,1.55 -0.01,4.65 -0.01,6.2 0.1,0.37 0.3,1.11 0.41,1.48 l 0.23,0.81 c 0.2,0.57 0.6,1.71 0.8,2.29 l 0.28,0.8 c 0.21,0.52 0.64,1.56 0.85,2.09 l 0.12,0.67 c 0.11,0.28 0.33,0.83 0.45,1.11 l 0.17,0.56 c 0.08,0.27 0.24,0.8 0.32,1.06 l 0.18,0.54 c -0.33,0.06 -1,0.18 -1.33,0.24 -0.31,-0.09 -0.92,-0.26 -1.23,-0.35 l -0.6,-0.22 c -0.3,-0.12 -0.9,-0.36 -1.2,-0.48 l -0.62,-0.27 c -0.29,-0.14 -0.87,-0.44 -1.16,-0.59 l -0.74,-0.11 -0.76,-0.25 c -1.02,-0.74 -2.14,-1.02 -3.36,-0.86 -1.3,-0.06 -2.59,-0.22 -3.85,-0.48 -1.77,-0.52 -3.61,-0.73 -5.43,-0.73 -0.44,-0.06 -1.3,-0.19 -1.74,-0.25 -0.96,-0.72 -2.02,-0.97 -3.19,-0.73 l -0.81,-0.19 c -0.55,-0.18 -1.66,-0.55 -2.21,-0.73 l -0.81,-0.22 c -0.57,-0.16 -1.71,-0.49 -2.28,-0.65 -0.44,0 -1.33,0 -1.77,0 -1.51,-0.24 -3.04,-0.04 -4.45,0.53 -0.46,0.07 -1.39,0.22 -1.85,0.3 l -0.93,0.05 c -1.63,-0.03 -3.26,-0.01 -4.88,0.07 l -0.97,0 c -1.3,-0.04 -2.59,-0.16 -3.86,-0.39 -0.36,-0.16 -1.08,-0.49 -1.44,-0.66 -0.68,-0.01 -2.02,-0.02 -2.69,-0.02 -0.46,-0.09 -1.36,-0.26 -1.81,-0.34 -1,-0.67 -2.09,-0.92 -3.26,-0.76 l -0.76,-0.14 c -0.28,-0.19 -0.84,-0.57 -1.12,-0.76 -0.34,-0.07 -1.03,-0.2 -1.38,-0.27 l -0.4,-0.53 -0.05,-0.62 c 0.19,-0.23 0.56,-0.68 0.74,-0.9 0.21,-0.2 0.64,-0.59 0.86,-0.79 l 0.52,-0.31 c 0.23,-0.19 0.7,-0.58 0.94,-0.77 0.26,-0.19 0.8,-0.57 1.07,-0.76 l 0.61,-0.3 c 0.27,-0.2 0.8,-0.62 1.07,-0.83 0.29,-0.2 0.88,-0.6 1.17,-0.8 l 0.66,-0.31 c 0.27,-0.22 0.82,-0.66 1.09,-0.88 0.3,-0.2 0.89,-0.62 1.18,-0.83 l 0.65,-0.34 c 0.26,-0.23 0.77,-0.68 1.03,-0.91 0.27,-0.22 0.81,-0.67 1.08,-0.89 0.26,-0.23 0.78,-0.69 1.03,-0.92 0.25,-0.24 0.74,-0.71 0.98,-0.94 0.23,-0.24 0.69,-0.71 0.92,-0.95 0.21,-0.25 0.64,-0.73 0.86,-0.98 0.2,-0.25 0.61,-0.76 0.81,-1.01 0.19,-0.26 0.58,-0.79 0.77,-1.05 l 0.26,-0.71 0.33,-0.74 c 0.21,-0.6 0.62,-1.78 0.82,-2.38 0.03,-3.1 0.32,-6.05 0.76,-9.06 -0.11,-1.49 -0.32,-4.48 -0.43,-5.98 l -0.17,-0.82 c -0.28,-0.5 -0.84,-1.49 -1.12,-1.98 l -0.31,-0.66 c -0.2,-0.25 -0.62,-0.74 -0.82,-0.99 -0.21,-0.24 -0.62,-0.73 -0.82,-0.98 -0.21,-0.24 -0.63,-0.73 -0.85,-0.97 -0.22,-0.24 -0.66,-0.72 -0.88,-0.97 -0.22,-0.24 -0.68,-0.73 -0.9,-0.98 -0.23,-0.25 -0.7,-0.76 -0.93,-1.01 -0.23,-0.27 -0.7,-0.79 -0.93,-1.06 -0.24,-0.28 -0.71,-0.84 -0.95,-1.12 l -0.49,-0.6 c -0.23,-0.28 -0.7,-0.85 -0.93,-1.13 -0.24,-0.27 -0.7,-0.82 -0.93,-1.09 -0.24,-0.27 -0.7,-0.8 -0.93,-1.06 -0.23,-0.27 -0.68,-0.8 -0.91,-1.06 -0.23,-0.27 -0.68,-0.81 -0.9,-1.08 l -0.35,-0.61 c -0.23,-0.25 -0.69,-0.75 -0.91,-1 -0.22,-0.27 -0.65,-0.82 -0.87,-1.09 -0.22,-0.28 -0.66,-0.84 -0.88,-1.12 -0.23,-0.3 -0.67,-0.89 -0.9,-1.18 l -0.45,-0.64 c -0.22,-0.3 -0.66,-0.9 -0.88,-1.2 -0.21,-0.29 -0.63,-0.88 -0.84,-1.17 l -0.31,-0.64 c -0.21,-0.27 -0.62,-0.79 -0.83,-1.05 -0.19,-0.29 -0.57,-0.86 -0.76,-1.14 l -0.27,-0.63 c -0.2,-0.27 -0.59,-0.8 -0.78,-1.07 -0.18,-0.3 -0.54,-0.9 -0.72,-1.2 l -0.36,-0.64 c -0.17,-0.32 -0.52,-0.96 -0.7,-1.28 l -0.34,-0.66 c -0.17,-0.33 -0.5,-0.98 -0.66,-1.31 l -0.33,-0.68 c -0.16,-0.34 -0.47,-1.02 -0.63,-1.36 l -0.32,-0.73 c -0.24,-0.54 -0.72,-1.61 -0.96,-2.14 -0.21,-0.54 -0.64,-1.64 -0.86,-2.18 l -0.28,-0.8 c -0.19,-0.55 -0.56,-1.66 -0.74,-2.22 -0.09,-0.42 -0.27,-1.25 -0.36,-1.67 -0.16,-0.58 -0.49,-1.73 -0.65,-2.3 -0.08,-0.73 -0.23,-2.19 -0.31,-2.92 -0.12,-3.57 -0.2,-7.03 -0.11,-10.56 0.11,-0.74 0.31,-2.23 0.41,-2.97 l 0.89,-0.24 -0.03,-0.8 c -0.02,-0.42 -0.06,-1.26 -0.08,-1.68 l 0.25,-0.83 c 0.18,-0.57 0.56,-1.72 0.75,-2.3 l 0.25,-0.77 c 0.16,-0.31 0.49,-0.93 0.65,-1.24 l 0.1,-0.75 0.29,-0.71 c 0.15,-0.33 0.45,-1.01 0.6,-1.34 l 0.32,-0.7 c 0.16,-0.33 0.48,-1 0.65,-1.34 l 0.33,-0.69 c 0.17,-0.34 0.51,-1.01 0.68,-1.35 l 0.35,-0.7 c 0.17,-0.33 0.52,-1.01 0.7,-1.35 l 0.36,-0.69 c 0.18,-0.34 0.53,-1 0.71,-1.33 l 0.36,-0.68 c 0.18,-0.31 0.53,-0.94 0.71,-1.26 0.18,-0.28 0.56,-0.84 0.75,-1.12 l 0.24,-0.67 c 0.19,-0.28 0.58,-0.85 0.77,-1.14 l 0.26,-0.7 c 0.19,-0.32 0.56,-0.98 0.75,-1.31 l 0.39,-0.69 c 0.19,-0.32 0.56,-0.97 0.74,-1.3 0.2,-0.29 0.58,-0.87 0.78,-1.17 l 0.24,-0.68 c 0.18,-0.29 0.56,-0.88 0.74,-1.17 l 0.23,-0.68 c 0.19,-0.29 0.55,-0.88 0.74,-1.17 l 0.23,-0.68 c 0.19,-0.29 0.56,-0.88 0.75,-1.17 l 0.24,-0.7 c 0.18,-0.33 0.53,-1 0.71,-1.33 l 0.37,-0.71 c 0.18,-0.35 0.54,-1.03 0.72,-1.38 l 0.37,-0.72 c 0.17,-0.34 0.52,-1.03 0.7,-1.38 l 0.35,-0.71 c 0.17,-0.34 0.5,-1.02 0.67,-1.36 l 0.32,-0.7 c 0.16,-0.33 0.47,-0.99 0.62,-1.32 l 0.29,-0.68 c 0.16,-0.3 0.48,-0.9 0.64,-1.2 l 0.13,-0.71 c 0.17,-0.32 0.53,-0.95 0.71,-1.26 0.03,-0.44 0.09,-1.32 0.12,-1.76 -0.01,-1.33 0.03,-2.66 0.13,-3.97 l 0.06,-0.96 c 0.27,-1.93 -0.15,-3.85 -0.67,-5.68 -0.09,-0.46 -0.28,-1.37 -0.37,-1.83 -0.21,-0.57 -0.64,-1.7 -0.86,-2.27 l -0.31,-0.71 -0.23,-0.67 c -0.17,-0.26 -0.51,-0.77 -0.68,-1.02 -0.2,-0.23 -0.6,-0.67 -0.8,-0.89 -0.23,-0.21 -0.68,-0.63 -0.9,-0.84 -0.31,-0.14 -0.93,-0.41 -1.24,-0.54 -1.15,-0.2 -2.29,-0.4 -3.42,-0.6 -1.85,-0.5 -3.77,-0.19 -5.56,0.32 -1.57,0.34 -3.15,0.57 -4.74,0.58 -0.59,0.16 -1.76,0.47 -2.34,0.63 l -0.84,0.18 c -1.18,-0.18 -2.22,0.12 -3.12,0.88 l -0.8,0.24 -0.81,-0.13 c -0.55,0.21 -1.65,0.62 -2.2,0.83 -3.01,0.17 -5.96,0.43 -8.88,-0.12 -0.58,-0.17 -1.74,-0.52 -2.31,-0.69 l -0.79,-0.25 c -0.5,-0.2 -1.49,-0.61 -1.99,-0.82 l -0.55,-0.43 c -0.26,-0.19 -0.76,-0.58 -1.02,-0.77 l -0.56,-0.31 0.4,-0.53 c 0.16,-0.27 0.46,-0.8 0.61,-1.07 0.22,-0.21 0.65,-0.64 0.87,-0.85 l 0.53,-0.32 c 0.23,-0.2 0.69,-0.6 0.93,-0.8 0.26,-0.19 0.77,-0.57 1.03,-0.77 l 0.59,-0.32 c 0.25,-0.22 0.74,-0.65 0.99,-0.86 0.26,-0.22 0.78,-0.66 1.04,-0.88 0.26,-0.23 0.77,-0.7 1.03,-0.93 0.26,-0.24 0.76,-0.73 1.01,-0.98 0.25,-0.26 0.74,-0.77 0.98,-1.03 0.24,-0.27 0.72,-0.81 0.96,-1.08 0.23,-0.29 0.69,-0.87 0.92,-1.16 l 0.47,-0.63 c 0.23,-0.29 0.67,-0.88 0.9,-1.18 0.21,-0.28 0.63,-0.86 0.84,-1.14 0.21,-0.27 0.64,-0.79 0.86,-1.06 l 0.31,-0.63 c 0.2,-0.29 0.6,-0.86 0.8,-1.15 0.21,-0.26 0.64,-0.79 0.85,-1.05 l 0.31,-0.64 c 0.21,-0.28 0.63,-0.85 0.83,-1.13 0.21,-0.29 0.63,-0.86 0.84,-1.14 l 0.44,-0.59 c 0.21,-0.26 0.64,-0.79 0.86,-1.05 0.22,-0.24 0.65,-0.71 0.87,-0.95 0.23,-0.22 0.7,-0.66 0.93,-0.87 0.27,-0.2 0.8,-0.61 1.07,-0.81 l 0.64,-0.37 c 0.36,-0.15 1.07,-0.45 1.43,-0.6 m 42.43,170.11 c -0.28,0.19 -0.84,0.57 -1.12,0.76 -0.21,0.25 -0.63,0.77 -0.84,1.02 l -0.35,0.61 c -0.19,0.23 -0.56,0.69 -0.75,0.92 l -0.07,0.99 -0.23,0.77 c -0.19,0.52 -0.58,1.55 -0.77,2.07 l 0,1.05 c -0.07,0.47 -0.23,1.39 -0.3,1.86 -0.13,0.22 -0.4,0.67 -0.53,0.9 -0.95,1.43 -0.99,3.67 0.15,5.03 0.17,0.18 0.49,0.55 0.66,0.73 l 0.35,0.79 c 0.1,0.36 0.31,1.08 0.41,1.44 l 0.52,0.64 c 0.25,0.06 0.77,0.18 1.02,0.24 l 0.5,0.48 c 0.51,0.02 1.52,0.06 2.03,0.08 0.24,-0.14 0.72,-0.43 0.96,-0.58 l 0.77,-0.25 c 0.34,-0.15 1.04,-0.44 1.39,-0.59 l 0.69,-0.32 c 0.31,-0.17 0.95,-0.51 1.27,-0.68 l 0.63,-0.35 c 0.28,-0.18 0.85,-0.54 1.13,-0.72 l 0.9,-0.21 c 0.16,-0.23 0.47,-0.68 0.63,-0.91 0.23,-0.23 0.69,-0.68 0.92,-0.9 0.22,-0.26 0.64,-0.78 0.85,-1.04 l 0.4,-0.6 c 0.19,-0.32 0.55,-0.95 0.73,-1.26 l 0.34,-0.71 c 0.17,-0.22 0.52,-0.67 0.69,-0.89 0.05,-0.52 0.15,-1.55 0.2,-2.07 0.02,-0.43 0.06,-1.3 0.09,-1.74 1.87,-0.38 0.1,-3.56 -1.24,-2.23 l -0.72,-0.4 c -0.34,-0.17 -1.02,-0.52 -1.36,-0.69 l -0.74,-0.31 c -0.51,-0.24 -1.55,-0.72 -2.06,-0.96 -0.22,-0.19 -0.67,-0.56 -0.89,-0.75 l -0.96,-0.03 c -0.17,-0.2 -0.5,-0.6 -0.67,-0.8 l -0.82,-0.17 c -0.57,-0.07 -1.73,-0.21 -2.3,-0.29 l -0.79,-0.07 c -0.18,0.04 -0.54,0.1 -0.72,0.14 z"
     id="path6720"
     inkscape:connector-curvature="0"
     style="fill:#000000;stroke:#000000;stroke-width:0.09375" />
</svg>
