<?xml version="1.0" encoding="UTF-8" standalone="no"?>
<!-- Created with Inkscape (http://www.inkscape.org/) -->

<svg
   xmlns:dc="http://purl.org/dc/elements/1.1/"
   xmlns:cc="http://creativecommons.org/ns#"
   xmlns:rdf="http://www.w3.org/1999/02/22-rdf-syntax-ns#"
   xmlns:svg="http://www.w3.org/2000/svg"
   xmlns="http://www.w3.org/2000/svg"
   xmlns:sodipodi="http://sodipodi.sourceforge.net/DTD/sodipodi-0.dtd"
   xmlns:inkscape="http://www.inkscape.org/namespaces/inkscape"
   id="svg2"
   sodipodi:docname="animegirl.svg"
   viewBox="0 0 190.78289 569.43595"
   version="1.1"
   inkscape:version="0.91 r13725"
   width="190.78288"
   height="569.43597">
  <defs
     id="defs14779" />
  <sodipodi:namedview
     id="base"
     fit-margin-left="0"
     inkscape:zoom="0.57728471"
     borderopacity="1.0"
     inkscape:current-layer="g15469"
     inkscape:cx="124.07948"
     inkscape:cy="222.51583"
     inkscape:window-maximized="1"
     showgrid="false"
     fit-margin-right="0"
     inkscape:snap-global="false"
     showguides="true"
     bordercolor="#666666"
     inkscape:window-x="4"
     inkscape:guide-bbox="true"
     inkscape:window-y="1"
     fit-margin-bottom="0"
     inkscape:window-width="1916"
     inkscape:pageopacity="0.0"
     inkscape:pageshadow="2"
     pagecolor="#ffffff"
     inkscape:document-units="px"
     inkscape:window-height="1035"
     fit-margin-top="0" />
  <g
     id="layer2"
     inkscape:label="Color"
     inkscape:groupmode="layer"
     transform="translate(-78.602515,-175.18354)" />
  <g
     id="layer1"
     inkscape:label="Layer 1"
     inkscape:groupmode="layer"
     transform="translate(-78.602515,-483.45354)">
    <g
       id="g15367">
      <g
         id="g15469">
        <g
           id="g15573">
          <path
             d="m 192.01,299.02 c 0,0 -2.4421,7.021 -2.1368,11.295 0.30527,4.2737 4.2737,14.958 4.2737,14.958 0,0 19.842,1.8316 25.032,5.1895 5.1895,3.3579 10.074,9.7684 10.074,9.7684 l 22.589,62.579 17.095,58 c 0,0 -10.684,15.263 -21.674,25.337 -10.989,10.074 -28.084,24.726 -28.084,24.726 l -0.80659,6.3654 -6.5285,9.1204 c -5.7399,6.1415 -16.422,-14.874 -9.4544,-26.475 0,0 18.621,-27.779 23.811,-33.274 5.1895,-5.4947 12.516,-13.126 12.516,-13.126 l -30.832,-66.242 c 0,0 -9.7684,49.147 -10.074,57.389 -0.30527,8.2421 -0.91579,20.147 -0.61053,25.642 0.30526,5.4947 9.7684,31.747 9.7684,31.747 l 2.1368,10.074 c 0,0 13.699,24.713 14.042,40.905 0.36896,17.407 -27.168,97.989 -27.168,97.989 l -19.842,58.916 c 0,0 0.91579,6.1053 1.8316,8.5474 0.91579,2.4421 8.8526,25.337 8.8526,25.337 l -34.495,0.61053 c 0,0 -10.989,-23.811 -10.684,-28.695 0.30526,-4.8842 -9.4795,-54.133 -10.989,-63.495 -1.5263,-9.4632 -16.484,-97.684 -16.789,-106.23 -0.30527,-8.5474 3.3579,-34.189 3.3579,-34.189 l 0.30527,-2.1368 c 0,0 -17.705,24.116 -17.705,26.863 0,2.7474 5.1895,8.5474 4.2737,14.042 -0.91579,5.4947 -3.0526,13.432 -3.0526,13.432 l 2.4421,18.621 c 0,0 0.61053,3.9684 -0.91579,4.2737 -1.51,0.32 -3.95,-7.31 -3.95,-7.31 l -5.1895,-10.379 -3.6632,12.211 6.4105,20.453 c 0,0 1.5263,3.9684 -0.61053,4.8842 -2.1368,0.91579 -5.8,-4.8842 -5.8,-4.8842 l -10.405,-24.97 c 0,0 2.4674,-40.961 3.3831,-43.403 0.91579,-2.4421 41.211,-83.947 41.211,-83.947 0,0 -3.9684,-8.8526 -3.9684,-13.126 0,-4.2737 -15.874,-29.305 -15.874,-33.274 0,-3.9684 13.432,-19.842 13.432,-19.842 l 2.4421,-7.9368 0,-22.284 c 0,0 1.8316,-14.042 5.8,-19.232 3.9684,-5.1895 18.926,-9.1579 18.926,-9.1579 l 11.9,-0.31 c 0,0 1.221,-3.3579 0.91579,-6.1053 -0.30526,-2.7474 -3.9684,-5.4947 -3.9684,-5.4947 l -4.579,1.5263 c 0,0 -10.989,-7.6316 -17.705,-14.958 -6.7158,-7.3263 -15.874,-18.316 -15.874,-18.316 l 3.0526,-46.4 c 0,0 20.147,-24.726 44.568,-20.758 24.421,3.9684 41.211,31.442 41.211,31.442 l -5.8,47.926 z"
             inkscape:connector-curvature="0"
             style="fill:#fae9c6"
             sodipodi:nodetypes="cscscccsccccsccssccsccsccsssccssccsccccsccscsscccsccsccsccsccc"
             id="path3997"
             transform="translate(0,308.27)" />
          <path
             d="m 118.14,234.92 c 0,0 -3.6632,43.347 -2.4421,46.095 1.221,2.7474 12.821,16.484 17.095,20.453 4.2737,3.9684 14.347,12.821 16.484,12.821 2.1368,0 21.674,-5.8 29.305,-8.8526 7.6316,-3.0526 20.147,-11.905 20.147,-11.905 l 5.1895,-46.4 c 0,0 -7.6316,-29 -36.937,-32.358 -29.305,-3.3579 -48.842,20.147 -48.842,20.147 z"
             inkscape:connector-curvature="0"
             style="fill:none;stroke:#000000;stroke-width:1px"
             id="path3985"
             transform="translate(0,308.27)" />
          <path
             d="m 121.8,258.12 c 0,0 0.30526,3.9684 1.221,6.4105 0.91579,2.4421 3.3579,5.4947 8.8526,5.4947 5.4947,0 9.4632,0.91579 10.684,-5.8 1.2211,-6.7158 0,-10.989 -9.4632,-10.989 -9.4632,0 -11.295,4.8842 -11.295,4.8842 z"
             inkscape:connector-curvature="0"
             style="fill:#ffffff"
             id="path3987"
             transform="translate(0,308.27)" />
          <path
             d="m 165.45,263.61 c 0,0 -0.61052,4.2737 -0.30526,8.2421 0.30526,3.9684 0.61052,8.5474 6.1053,10.074 5.4947,1.5263 8.8526,1.5263 11.6,-3.6632 2.7474,-5.1895 3.9684,-11.6 -3.3579,-13.737 -7.3263,-2.1368 -14.042,-0.91579 -14.042,-0.91579 z"
             inkscape:connector-curvature="0"
             style="fill:#ffffff"
             id="path3989"
             transform="translate(0,308.27)" />
          <path
             d="m 142.25,297.49 c 0,0 3.0526,-1.8316 6.4105,-1.8316 3.3579,0 5.1895,1.5263 5.1895,1.5263 0,0 -0.91579,6.7158 -4.2737,6.7158 -3.35791,0 -7.3263,-6.4105 -7.3263,-6.4105 z"
             inkscape:connector-curvature="0"
             style="fill:#d20b50"
             id="path3991"
             transform="translate(0,308.27)" />
          <path
             d="m 142.86,297.19 c 0,0 1.8316,-1.5263 4.8842,-1.5263 3.0526,0 6.1053,1.8316 6.1053,1.8316 l 0.61053,-3.0526 -13.432,-3.6632 c 0,0 0.61053,2.4421 0.91579,3.9684 0.30526,1.5263 0.91579,2.4421 0.91579,2.4421 z"
             inkscape:connector-curvature="0"
             style="fill:#613f27"
             id="path3993"
             transform="translate(0,308.27)" />
          <path
             d="m 139.2,280.71 c 0,0 3.3579,-0.30526 4.579,1.5263 1.221,1.8316 -2.4421,3.6632 -4.579,1.8316 -2.1368,-1.8316 0,-3.3579 0,-3.3579 z"
             inkscape:connector-curvature="0"
             style="fill:#c3a661"
             id="path3995"
             transform="translate(0,308.27)" />
          <path
             d="m 246.65,452.26 c 7.9368,-0.30526 -12.211,-43.347 -16.484,-49.758 -4.2737,-6.4105 -23.505,-25.947 -26.558,-21.979 -3.0526,3.9684 -7.3263,1.5263 -9.4632,10.989 -2.1368,9.4632 -0.91579,31.442 1.8316,33.884 2.7474,2.4421 4.5789,-0.30527 4.5789,-0.30527 l 7.3263,-37.547 30.832,65.632 c 0,0 2.1368,0 4.579,-0.61052 2.4421,-0.61053 3.3579,-0.30527 3.3579,-0.30527 z"
             inkscape:connector-curvature="0"
             style="fill:#000000;fill-opacity:0.063107"
             id="path3999"
             transform="translate(0,308.27)" />
          <path
             d="m 155.68,409.83 c -5.8,-3.0526 -7.3263,4.2737 -3.9684,9.1579 3.3579,4.8842 9.7684,6.4105 12.821,5.1895 3.0526,-1.221 -3.3579,-3.0526 -6.4105,-7.9368 -3.0526,-4.8842 -2.4421,-6.4105 -2.4421,-6.4105 z"
             inkscape:connector-curvature="0"
             style="fill:#000000;fill-opacity:0.063107"
             id="path4001"
             transform="translate(0,308.27)" />
          <path
             d="m 119.97,438.53 c 0,0 8.8526,-8.8526 12.516,-6.1053 3.6632,2.7474 -9.4632,18.926 -9.4632,18.926 0,0 0.61053,-5.1895 -0.91579,-7.021 -1.5263,-1.8316 -2.1368,-5.8 -2.1368,-5.8 z"
             inkscape:connector-curvature="0"
             style="fill:#000000;fill-opacity:0.063107"
             id="path4003"
             transform="translate(0,308.27)" />
          <path
             d="m 159.96,440.66 c -4.8842,-0.91579 -3.3579,6.4105 -0.61052,7.9368 2.74738,1.5263 10.379,4.8842 10.379,0.61052 0,-4.27368 -9.7684,-8.5474 -9.7684,-8.5474 z"
             inkscape:connector-curvature="0"
             style="fill:#000000;fill-opacity:0.063107"
             id="path4005"
             transform="translate(0,308.27)" />
          <path
             d="m 139.2,497.75 c 9.1579,-0.91579 13.737,11.6 7.6316,11.905 -6.1053,0.30526 -13.134,-1.2798 -19.232,4.2737 -17.095,15.568 -8.6755,40.496 -2.1368,46.4 11.821,10.674 11.768,20.456 15.212,27.642 3.5955,7.5011 15.079,3.317 12.314,6.943 -10.467,13.725 -18.566,-10.992 -20.462,-21.501 -1.1354,-6.2951 -8.0454,-9.0598 -12.597,-13.122 -3.9016,-3.4819 -4.858,-11.03 -5.9151,-16.761 -1.0571,-5.7314 2.364,-16.973 1.7225,-21.735 -0.64153,-4.7626 2.2859,-10.984 2.073,-14.001 1.0788,-7.959 4.5844,-15.265 6.1262,-23.17 4.579,-2.63 4.8842,11.295 7.3263,12.516 2.4421,1.221 7.9368,0.61052 7.9368,0.61052 z"
             inkscape:connector-curvature="0"
             style="fill:#000000;fill-opacity:0.063107"
             sodipodi:nodetypes="csssssssssccscc"
             id="path4007"
             transform="translate(0,308.27)" />
          <path
             d="m 166.67,567.35 c 3.0526,1.8316 9.4632,-4.2737 11.295,-8.8526 1.8316,-4.5789 3.0526,-16.484 -0.30526,-15.568 -3.3579,0.91579 -0.91579,12.516 -3.6632,16.179 -2.7474,3.6632 -7.3263,8.2421 -7.3263,8.2421 z"
             inkscape:connector-curvature="0"
             style="fill:#000000;fill-opacity:0.063107"
             id="path4009"
             transform="translate(0,308.27)" />
          <path
             d="m 186.52,282.84 c -16.789,1.5325 -16.789,3.9662 -16.789,3.9684 l 7.3263,1.5263 c -3.9012,0.33795 -6.5688,3.143 -8.8526,6.7158 l 8.2421,-0.61053 c -4.0509,1.584 -8.0436,3.3429 -11.295,7.3263 l 13.432,0.91579 c -4.4673,0.77727 -5.0046,3.1266 -5.4947,5.4947 l 21.674,-11.6 z"
             inkscape:connector-curvature="0"
             style="fill:#986c0d;fill-opacity:0.35922002"
             sodipodi:nodetypes="cccccccccc"
             id="path4011"
             transform="translate(0,308.27)" />
          <path
             d="m 120.88,247.13 c 1.3575,-3.8458 0.47281,-9.037 5.4947,-10.684 -0.50483,3.3798 0.11673,7.2102 3.6632,12.211 -1.6385,-5.65 3.2366,-9.6716 7.9368,-13.737 0.54123,8.2421 1.8371,16.484 6.4105,24.726 -1.6919,-7.8351 0.37268,-15.67 5.1895,-23.505 -2.5539,12.306 0.33781,19.945 3.3579,27.474 -1.1462,0 6.1588,-24.798 6.1053,-21.368 -0.18678,11.969 6.4105,16.179 6.4105,16.179 -3.5284,-6.1785 -0.31958,-11.32 6.7158,-15.874 3.6632,0.14065 7.3263,5.2296 10.989,10.989 -2.93,-5.5965 -1.9839,-11.193 -1.8316,-16.789 l 14.958,28.389 c -4.5749,-9.0561 -1.5769,-18.112 1.8316,-27.168 l -0.30526,-4.8842 -28.084,-6.1053 -48.232,3.3579 c -4.0125,6.2313 -1.0066,11.293 -0.61053,16.789 z"
             inkscape:connector-curvature="0"
             style="fill:#986c0d;fill-opacity:0.35922002"
             sodipodi:nodetypes="cccccccscccccccccc"
             id="path4013"
             transform="translate(0,308.27)" />
          <path
             d="m 155.07,313.06 c 0,0 0.30527,3.6632 0.30527,6.4105 0,2.7474 0.30526,6.4105 0.30526,6.4105 0,0 13.737,-3.0526 18.011,-7.0211 4.2737,-3.9684 15.874,-18.316 15.874,-18.316 -11.213,4.2339 -22.514,9.8177 -34.495,12.516 z"
             inkscape:connector-curvature="0"
             style="fill:#644709;fill-opacity:0.69902996"
             sodipodi:nodetypes="cscscc"
             id="path4015"
             transform="translate(0,308.27)" />
          <path
             d="m 154.16,313.67 c 15.568,-4.579 7.6316,-1.8316 15.568,-4.579 7.9368,-2.7474 21.674,-9.4632 21.674,-9.4632"
             inkscape:connector-curvature="0"
             style="fill:none;stroke:#372f1d;stroke-width:1px"
             id="path4017"
             transform="translate(0,308.27)" />
          <path
             d="m 189.87,183.33 c 0,0 -19.537,-10.684 -45.789,-6.7158 -26.253,3.9684 -37.853,19.537 -37.853,19.537 0,0 -8.2421,10.379 -14.958,18.316 -6.7158,7.9368 -8.2421,13.737 -8.2421,13.737 l 1.5263,11.295 c 0,0 2.1368,-8.5474 3.3579,-10.989 1.2211,-2.4421 4.2737,-3.9684 4.2737,-3.9684 0,0 3.9684,10.379 0.91579,16.484 -3.0526,6.1053 -7.3263,15.874 -7.3263,15.874 l 12.516,-7.9368 6.7158,-8.2421 c 0,0 -2.1368,10.684 -5.8,16.484 -3.6632,5.8 -4.2737,9.1579 -4.2737,9.1579 l 11.6,-12.821 c 0,0 -3.6632,18.621 -5.4947,23.811 -1.8316,5.1895 -4.8842,13.737 -4.8842,13.737 l 8.8526,-13.432 c 0,0 4.2737,13.126 4.2737,17.4 0,4.2737 1.5263,11.295 1.221,11.295 -0.30526,0 3.9684,-13.432 3.9684,-13.432 0,0 4.579,8.8526 4.579,10.684 0,1.8316 -1.8316,11.295 -1.8316,11.295 l 6.4105,-8.8526 c 0,0 -0.30526,7.6316 -0.30526,9.1579 0,1.5263 0.91579,3.9684 0.91579,3.9684 0,0 1.8316,-2.7474 3.0526,-3.9684 1.221,-1.2211 4.2737,-7.6316 4.2737,-7.6316 0,0 -0.61053,9.7684 0.30526,11.6 0.91579,1.8316 2.4421,3.6632 2.4421,3.6632 0,0 -0.61053,-3.9684 0.30526,-5.4947 0.91579,-1.5263 6.7158,-2.4421 6.7158,-2.4421 0,0 -1.8316,4.2737 -0.30526,5.8 1.52634,1.5263 3.0526,3.9684 3.0526,3.9684 l 10.684,-2.1368 c 0,0 2.4421,-0.91579 1.5263,-3.9684 -0.91579,-3.0526 -1.221,-4.5789 -1.221,-4.5789 l -5.8,-0.30527 c -13.347,-6.9154 -23.397,-19.599 -33.579,-32.053 l 2.7474,-46.095 1.221,-2.1368 2.4421,7.9368 c 0,0 2.7474,1.8316 2.7474,4.579 0,2.7474 -0.91579,6.7158 -0.91579,6.7158 l 6.7158,-15.568 c 0,0 0.61053,8.2421 2.4421,10.379 1.8316,2.1368 1.221,3.0526 1.8316,3.0526 0.61052,0 0.91579,-4.579 3.3579,-8.5474 2.44211,-3.9684 5.4947,-7.3263 5.4947,-7.3263 0,0 0.91579,17.095 2.1368,20.453 1.221,3.3579 6.4105,13.126 6.4105,13.126 l -0.30527,-12.211 3.9684,7.6316 c 0,0 1.2211,-9.7684 4.2737,-14.042 3.0526,-4.2737 7.9368,-11.6 7.9368,-11.6 0,0 -2.7474,16.179 -1.221,18.316 1.5263,2.1368 3.6632,6.7158 3.6632,6.7158 0,0 0.30526,-5.1895 4.5789,-11.295 4.2737,-6.1053 8.2421,-12.821 8.2421,-12.821 0,0 2.4421,8.5474 3.0526,11.295 0.61053,2.7474 5.8,10.684 5.8,10.684 l -1.239,-6.1152 c 0,0 2.9401,10.231 1.8495,12.831 -1.8484,4.4061 -6.4105,15.263 -6.4105,15.263 l -11.6,5.8 9.1579,-1.221 c 0,0 -9.1579,5.1895 -10.684,6.4105 -1.5263,1.2211 -1.5263,2.4421 -1.5263,2.4421 0,0 0.91579,-1.8316 4.2737,-2.7474 3.3579,-0.91579 5.4947,0 5.4947,0 0,0 -11.905,4.8842 -13.126,7.9368 -1.221,3.0526 -3.9684,6.7158 -3.9684,6.7158 0,0 6.1053,-4.8842 8.8526,-5.8 2.7474,-0.91579 9.1579,-2.7474 9.1579,-2.7474 0,0 -2.7474,5.8 -5.4947,7.9368 -2.7474,2.1368 -8.2421,7.9368 -8.2421,7.9368 0,0 10.074,-4.579 14.042,-7.021 3.9684,-2.4421 9.7684,-7.6316 9.7684,-7.6316 0,0 1.2211,10.074 0.30527,14.958 -0.91579,4.8842 -2.7474,9.4632 -2.7474,9.4632 l 4.5789,-3.0526 3.9684,-2.1368 2.5102,1.3067 1.153,3.8827 c 0,0 7.3867,0.74771 10.989,2.1368 8.1136,3.1284 13.712,8.835 13.712,8.835 0,0 0.28002,-5.3586 0.89054,-9.6322 0.61053,-4.2737 3.1031,-8.666 3.1031,-8.666 l 0.61053,6.4105 c 0,0 1.8316,-4.8842 2.7474,-7.3263 0.91578,-2.4421 -1.2211,-8.5474 -1.2211,-8.5474 0,0 1.5263,0.30526 2.7474,2.7474 1.221,2.4421 2.7474,7.3263 2.7474,7.3263 l 0,-4.579 c 0,-1.5263 -3.6632,-14.653 -3.6632,-14.653 l 4.8842,8.2421 c 0,0 -1.8316,-7.0211 -3.3579,-12.516 -1.5263,-5.4947 0,-14.042 0,-14.042 0,0 1.8316,3.0526 3.0526,5.8 1.221,2.7474 0.30526,11.905 0.30526,11.905 0,0 3.9256,-6.7082 2.4421,-14.042 -0.90782,-4.4881 -1.5263,-7.6316 -1.5263,-7.6316 0,0 -1.7092,-4.2457 -2.2302,-8.1916 -0.28192,-2.1351 4.4099,3.4436 4.4099,3.4436 l -6.1481,-15.094 3.0526,-5.1895 c 0,0 -2.0355,0.74135 -1.4249,3.794 0.61053,3.0526 5.3934,6.2797 5.3934,6.2797 0,0 0,-4.8842 -0.30526,-7.6316 -0.30526,-2.7474 -5.4947,-14.958 -5.4947,-14.958 0,0 2.4421,3.3579 4.2737,6.4105 1.8316,3.0526 4.8842,4.579 4.8842,4.579 l -8.2421,-14.347 c 0,0 -4.2737,-8.2421 -5.8,-13.126 -1.5263,-4.8842 -2.7474,-13.432 -7.3263,-21.063 -4.579,-7.6316 -10.074,-13.737 -18.621,-17.4 -5.6466,-2.42 -17.4,-1.221 -17.4,-1.221 z"
             inkscape:connector-curvature="0"
             style="fill:#d25600"
             sodipodi:nodetypes="cscsccscscccsccsccsscsccscscscscsccsccccccsccssscscccscscscsccscccscscscscscscscccccscsccscscsccscscscscccscscsccsssc"
             id="path4019"
             transform="translate(0,308.27)" />
          <path
             d="m 79.428,578.9 c 0,0 -1.379,9.3769 0,11.583 1.379,2.2063 17.926,11.307 17.926,11.307 l 1.379,-1.1032 3.0337,-2.4821 c 0,0 -3.8611,-4.1369 -6.619,-5.7916 -2.7579,-1.6548 -15.72,-13.514 -15.72,-13.514 z"
             inkscape:connector-curvature="0"
             style="fill:#fae9c6;stroke-opacity:0"
             id="path4068"
             transform="translate(0,308.27)" />
          <path
             d="m 102.11,402.6 1.7669,-0.97482 2.1324,-2.4371 c 0,0 3.29,2.2543 2.8636,4.8741 -0.42649,2.6198 -2.8026,4.996 -2.8026,4.996 l -2.8026,-4.8132 z"
             inkscape:connector-curvature="0"
             style="fill:#f8c497;stroke-opacity:0"
             id="path4074"
             transform="translate(0,308.27)" />
          <ellipse
             transform="matrix(1.1176,0,0,1.3934,-18.02,147.36)"
             style="color:#000000;fill:#f8c497;stroke-opacity:0"
             id="path4076"
             cx="171.81256"
             cy="406.5011"
             rx="4.1429977"
             ry="3.7165127" />
          <path
             d="m 191.82,254.46 c 1.6984,8.9584 4.3197,9.7449 6.6417,11.975 2.3221,2.2299 3.7444,2.9494 3.7444,2.9494 l -2.8986,-9.4223 c 0,0 -2.4209,-4.2737 -3.0649,-6.308 -0.64401,-2.0343 -2.2669,-11.598 -2.2669,-11.598 -1.2708,2.5916 -2.1636,8.8495 -2.1557,12.404 z"
             inkscape:connector-curvature="0"
             style="fill:#800000;stroke-opacity:0"
             sodipodi:nodetypes="csccscc"
             id="path4100"
             transform="translate(0,308.27)" />
          <path
             d="m 224.83,259.17 c 0,0 -0.41849,2.9294 -0.31387,4.1849 0.10462,1.2555 0.20924,2.2494 0.20924,2.2494 0,0 -4.3418,-5.6496 -4.6557,-7.3759 -0.31387,-1.7263 -0.52311,-2.5109 -0.52311,-2.5109 l -0.52311,4.2895 c 0,0 -2.2767,-4.7699 -3.4002,-5.545 -3.7554,-2.5907 -4.7603,-5.3357 -5.1265,-7.1143 -0.4708,1.6216 -4.6034,4.1326 -4.6034,4.1326 l 2.6679,-13.287 c 0,0 1.3078,2.8771 1.8832,3.9756 0.57542,1.0985 3.3479,4.7603 3.3479,4.7603 l 5.1788,7.062 1.9355,-10.567 z"
             inkscape:connector-curvature="0"
             style="fill:#800000;stroke-opacity:0"
             sodipodi:nodetypes="cscsccscccscccc"
             id="path4120"
             transform="translate(0,308.27)" />
          <path
             d="m 229.02,224.23 c 0,0 -2.1971,4.6034 -5.545,-7.0097 -0.66151,-2.2946 0.73236,16.74 0.73236,16.74 l 0.83698,10.881 3.4525,11.613 c 0,0 3.5572,-15.693 1.9878,-22.808 -0.62334,-2.8258 -1.4647,-9.416 -1.4647,-9.416 z"
             inkscape:connector-curvature="0"
             style="fill:#800000;stroke-opacity:0"
             sodipodi:nodetypes="cscccsc"
             id="path4122"
             transform="translate(0,308.27)" />
          <path
             d="m 114.25,237.51 c 0,0 -0.20925,5.7024 -2.5109,12.118 -2.3017,6.4152 -5.0219,16.394 -5.0219,16.394 0,0 5.8588,-6.4152 6.6958,-9.0288 0.83698,-2.6136 -5.0219,20.909 -5.0219,20.909 l 5.8588,-5.94 c 0,0 -1.674,6.8904 -3.1387,11.167 -1.4647,4.2768 -1.4647,5.2272 -1.4647,5.2272 l 5.8588,-5.94 1.8832,-40.392 z"
             inkscape:connector-curvature="0"
             style="fill:#800000;stroke-opacity:0"
             id="path4124"
             transform="translate(0,308.27)" />
          <path
             d="m 100.75,203.72 c 23.19,-10.956 24.093,-9.4215 24.093,-9.4215 l 0.19993,0.22085 -6.672,6.3448 c 4.4128,-2.9649 8.6877,-5.3177 12.586,-5.9973 -2.7754,3.0515 -5.2254,6.159 -4.2185,9.8619 3.0498,-4.6956 9.8997,-7.7586 17.131,-10.658 -3.0446,3.6838 -6.0898,7.3677 -5.2548,11.138 4.8145,-2.1417 8.5879,-4.9229 10.484,-8.8574 1.1344,4.3695 -3.5789,9.3174 -6.9275,14.13 6.1332,-8.1508 15.408,-14.952 25.767,-21.288 -1.3654,6.1859 -2.4705,12.503 -7.3096,16.935 l 7.9082,-7.3995 c 3.5051,3.7569 2.8023,7.4205 1.7497,11.076 l 8.5387,-10.199 c 4.2082,5.7202 1.3655,11.284 0.68866,16.896 5.3096,-0.78334 7.3427,-4.1474 8.1508,-8.4762 2.9878,4.1684 1.1103,7.4988 0.5076,11.049 3.4893,-3.7461 4.9418,-7.5374 5.8001,-11.342 1.4443,3.2502 3.6671,5.8569 4.8279,10.712 4.5013,-6.2716 2.1436,-11.078 2.1955,-16.399 3.9116,4.4247 11.247,4.8424 7.6506,18.133 l 3.2496,-14.428 c 2.4245,4.7429 5.4408,9.4989 4.0519,14.157 l 3.1585,-12.915 2.5128,14.34 0.81969,-13.616 c 1.7002,4.1099 4.095,7.729 4.3429,12.865 l 0.67418,-12.97 c 2.4947,5.8987 4.5482,11.788 3.7727,17.614 l -3.8553,12.683 -1.241,-8.9008 -3.9215,9.6521 -0.45911,-11.264 -5.2122,9.8399 -1.2529,-11.065 -4.4243,8.5588 -2.2288,-7.8406 c -5.9203,5.4756 -10.215,10.759 -12.036,15.748 -2.3285,-5.3644 -2.5462,-11.409 0.14771,-18.393 -7.6675,4.4776 -11.793,10.477 -15.259,16.759 -1.0375,-5.112 -5.4677,-8.7797 -1.9249,-15.841 -6.6272,4.0546 -8.656,9.4233 -11.048,14.688 l -0.62242,-13.865 -2.9882,7.725 0.18325,-11.899 c -5.1108,2.734 -10.152,5.7675 -13.932,14.192 -1.5725,-1.99 -2.9428,-4.2204 5.2677,-17.846 -6.7275,5.4825 -11.597,2.7177 -21.101,20.525 -1.0562,-3.9646 -3.6733,-3.7179 -1.628,-16.051 -8.0139,2.627 -13.395,7.0704 -16.222,13.275 -1.3378,-6.883 -2.3001,-13.108 2.9715,-19.845 -5.118,5.2826 -11.09,9.622 -13.714,17.659 -0.53626,-5.4594 2.4703,-11.985 5.4132,-18.492 l -7.8845,11.728 5.9337,-14.152 -12.805,11.403 4.8005,-12.446 8.9079,-6.2952 -1.9874,-0.0439 -17.839,8.2615 z"
             inkscape:connector-curvature="0"
             style="fill:#ea8138"
             sodipodi:nodetypes="cccccccccccccccccccccccccccccccccccccccccccccccccccccccccccccc"
             id="path4126"
             transform="translate(0,308.27)" />
          <path
             d="m 176.56,862.38 c 0,11.749 -11.749,10.971 -19.581,27.941 -4.893,10.601 -10.394,43.231 -12.924,65.28 -2.5304,22.049 -2.7408,60.208 -2.7408,66.736 0,6.5271 11.58318,32.1396 11.58318,32.1396 l 34.10682,-0.975 c 0,0 -10.443,-27.2482 -10.443,-35.0812 0,-7.8326 44.898,-127.43 46.204,-152.24 1.3054,-24.803 -13.262,-41.124 -15.749,-54.036 -3.7771,-19.609 -9.0675,-19.113 -9.6936,-41.343 -0.84641,-30.052 11.158,-74.26 11.158,-74.26"
             inkscape:connector-curvature="0"
             style="fill:none;stroke:#9a762f;stroke-width:1px"
             sodipodi:nodetypes="cszsccssssc"
             id="path3826" />
          <path
             d="m 126.14,873.04 c 0,0 5.5859,0.56334 11.129,20.877 3.3502,12.278 14.71,9.4211 14.71,9.4211"
             inkscape:connector-curvature="0"
             style="fill:none;stroke:#9a762f;stroke-width:1px"
             sodipodi:nodetypes="csc"
             id="path3828" />
          <path
             d="m 142.62,1027.6 c 0,0 -29.399,-156.83 -29.047,-177.76 0.60002,-35.654 11.576,-43.778 10.524,-77.911 -0.20982,-6.8079 0.89612,-12.444 -4.1608,-25.657 -0.14666,-6.6063 -13.296,-27.692 -14.05,-29.209 m 0.0678,-9.4853 c 0.68363,-1.1148 10.928,-15.654 12.567,-19.593 4.0079,-9.6336 7.5591,-20.698 7.5591,-20.698"
             inkscape:connector-curvature="0"
             style="fill:none;stroke:#9a762f;stroke-width:1px"
             sodipodi:nodetypes="csscccsc"
             id="path3830" />
          <path
             d="m 142.12,891.01 c 1.226,8.1124 2.5767,10.206 10.614,12.158"
             inkscape:connector-curvature="0"
             style="fill:none;stroke:#000000;stroke-width:1px"
             sodipodi:nodetypes="cc"
             id="path3834" />
          <path
             d="m 238.18,762.22 c 0,0 -32.329,-77.116 -34.94,-71.895 -2.6109,5.2217 -2.6109,5.2217 -2.6109,5.2217"
             inkscape:connector-curvature="0"
             style="fill:none;stroke:#9a762f;stroke-width:1px"
             sodipodi:nodetypes="csc"
             id="path3836" />
          <path
             transform="translate(0,308.27)"
             inkscape:connector-curvature="0"
             sodipodi:nodetypes="cc"
             d="m 119.32,377.71 c 0.64733,-34.311 -2.4137,-52.055 36.782,-54.083"
             style="fill:none;stroke:#9a762f;stroke-width:1px"
             id="path3844" />
          <path
             d="m 141.25,816.23 c 0,0 -0.2753,-3.7937 1.1128,-4.0704 1.388,-0.27673 3.8845,2.593 3.8845,2.593"
             inkscape:connector-curvature="0"
             style="fill:none;stroke:#000000;stroke-width:1px"
             id="path3848" />
          <path
             transform="translate(0,308.27)"
             inkscape:connector-curvature="0"
             sodipodi:nodetypes="csc"
             d="m 79.224,573.77 c 0,0 -0.53877,15.026 0.6529,17.827 0.30192,0.70981 5.6504,3.401 5.6504,3.401"
             style="fill:#fae9c6;stroke:#9a762f;stroke-width:1px"
             id="path3852" />
          <path
             transform="translate(0,308.27)"
             inkscape:connector-curvature="0"
             sodipodi:nodetypes="cszcssscsssssc"
             d="m 123.38,449.7 c 0,0 -39.16,77.64 -40.589,84.309 -1.4291,6.6691 -3.4209,31.94 -3.4471,41.147 -0.0262,9.2078 10.893,28.402 10.893,28.402 0,0 2.9656,3.6605 4.9391,2.8582 2.1461,-0.8725 1.5815,-4.8521 0.22565,-8.0932 -2.6474,-6.3283 -5.8361,-15.178 -5.4656,-16.201 2.2795,-6.2984 3.3345,-12.862 3.3345,-12.862 0,0 5.3191,8.4333 5.24,9.0509 -0.49301,3.8502 4.2873,12.862 5.24,6.1927 0.95272,-6.6691 -2.8582,-15.244 -2.3818,-21.913 0.47636,-6.6691 3.3345,-13.338 2.8582,-16.673 -0.47636,-3.3346 -5.24,-6.6691 -3.3346,-10.004 1.9055,-3.3346 16.295,-26.193 16.295,-26.193"
             style="fill:none;stroke:#9a762f;stroke-width:1px"
             id="path3850" />
          <path
             transform="translate(0,308.27)"
             d="m 98.286,600.17 c 0,0 0.31849,0.95547 -0.0637,1.4014 -0.38219,0.44589 -1.3695,0.35034 -1.3695,0.35034"
             inkscape:connector-curvature="0"
             style="fill:#fae9c6;stroke:#9a762f;stroke-width:1px"
             id="path3854" />
          <path
             d="m 158.29,748.7 c 0,0 3.9646,7.2685 7.2685,7.9293 3.3039,0.66078 2.6431,-0.66077 2.6431,-0.66077"
             inkscape:connector-curvature="0"
             style="fill:none;stroke:#000000;stroke-width:1px"
             id="path3856" />
          <path
             d="m 163.21,528.4 c -17.18,-1.3216 -43.003,5.2685 -43.003,5.2685 0,0 -5.3476,50.39 -3.3039,56.166 2.7074,7.6508 29.127,31.735 32.431,31.735 8.552,0 46.915,-9.2509 46.915,-9.2509 0,0 10.572,-27.092 13.876,-35.682 3.3039,-8.5901 -6.6078,-35.021 -14.537,-38.325 -7.9293,-3.3039 -32.378,-9.9116 -32.378,-9.9116 z"
             inkscape:connector-curvature="0"
             style="fill:none"
             sodipodi:nodetypes="ccsscssc"
             id="path3858" />
          <path
             d="m 141.7,599.3 12.258,3.9269 c 0,0 -0.33024,9.4318 -6.5325,8.4776 -6.20226,-0.9542 -5.7252,-12.405 -5.7252,-12.405 z"
             inkscape:connector-curvature="0"
             style="fill:none;stroke:#000000;stroke-width:1px"
             sodipodi:nodetypes="ccsc"
             id="path3860" />
          <path
             d="m 136.93,586.42 c 0,0 -0.9542,3.8168 0.47709,4.771 1.43129,0.9542 3.3397,1.4313 3.3397,1.4313"
             inkscape:connector-curvature="0"
             style="fill:none;stroke:#000000;stroke-width:1px"
             id="path3862" />
          <path
             d="m 166.37,560.2 c 0,0 8.166,0.10463 11.951,0.59912 3.7846,0.49449 12.752,5.5154 12.752,5.5154"
             inkscape:connector-curvature="0"
             style="fill:none;stroke:#000000;stroke-width:1px"
             id="path3864" />
          <path
             transform="translate(0,308.27)"
             inkscape:connector-curvature="0"
             sodipodi:nodetypes="cc"
             d="m 140.74,247.43 c -4.2729,-6.1752 -11.424,-5.1542 -18.13,-5.2481"
             style="fill:none;stroke:#000000;stroke-width:1px"
             id="path3866" />
          <path
             transform="translate(0,308.27)"
             d="m 121.78,257.71 c 0,0 -0.24211,3.8737 0.72631,6.0526 0.96842,2.179 1.4526,3.8737 1.4526,3.8737 0,0 3.8737,1.2105 7.2632,1.9368 3.3895,0.72631 8.9579,0 8.9579,0 0,0 1.6947,-3.3895 2.1789,-6.2947 0.48422,-2.9053 0,-7.9895 0,-7.9895 0,0 -7.9895,-2.9053 -12.105,-2.9053 -4.1158,0 -7.5053,1.4526 -7.5053,1.4526 z"
             inkscape:connector-curvature="0"
             style="fill:#ffffff"
             id="path3946" />
          <path
             d="m 121.57,567.03 -0.48243,-7.2365 c 0,0 5.3068,-1.4473 9.1663,-0.96487 3.8595,0.48244 10.614,0.96487 12.061,3.377 1.4473,2.4122 0.96487,3.377 0.96487,3.377 0,0 -8.6598,-4.3419 -13.508,-4.3419 -9.1663,10e-6 -8.2014,5.7892 -8.2014,5.7892 z"
             inkscape:connector-curvature="0"
             style="fill:#000000"
             sodipodi:nodetypes="ccsscsc"
             id="path3868" />
          <path
             d="m 133.1,561.51 c 0,0 -3.9951,1.0144 -4.3663,4.371 -0.37113,3.3566 -1.752,11.455 3.5227,12.038 5.2746,0.5832 7.9373,-1.5493 8.4144,-5.8649 0.5054,-5.3663 0.81114,-9.5167 -3.2552,-10.067 -3.8361,-0.42414 -4.3156,-0.47716 -4.3156,-0.47716 z"
             inkscape:connector-curvature="0"
             style="fill:#000000;stroke:#000000;stroke-width:1px"
             sodipodi:nodetypes="cssccc"
             id="path3870" />
          <path
             d="m 165.06,572.85 -0.93509,-4.0145 c 0,0 6.4063,-0.62257 10.587,0.89669 4.1803,1.5193 18.156,6.2646 14.911,8.7597 -3.2452,2.4952 -5.8486,5.4279 -5.8486,5.4279 0,0 1.3056,-4.8297 -2.1586,-7.4472 -1.5204,-1.1488 -3.9928,-2.9544 -9.2549,-3.6419 -5.2621,-0.68752 -7.3005,0.0192 -7.3005,0.0192 z"
             inkscape:connector-curvature="0"
             style="fill:#000000"
             sodipodi:nodetypes="ccsscssc"
             id="path3872" />
          <path
             transform="translate(0,308.27)"
             inkscape:connector-curvature="0"
             sodipodi:nodetypes="cszscscsc"
             d="m 165.36,264 c 0,0 -0.96842,2.6632 -0.96842,5.8105 0,3.1474 -1.3436,4.994 0,7.2632 1.3436,2.2692 2.6632,2.9053 7.5053,4.1158 4.8421,1.2105 7.7474,1.2105 7.7474,1.2105 0,0 2.1789,-2.179 3.1474,-4.1158 0.96842,-1.9368 2.4211,-6.2947 2.4211,-6.2947 0,0 -2.9053,-6.5368 -7.9895,-7.2632 -5.0842,-0.72631 -11.863,-0.72631 -11.863,-0.72631 z"
             style="fill:#ffffff"
             id="path3948" />
          <path
             d="m 174.63,574.1 c 0,0 -3.1202,1.5385 -4.1611,5.7813 -1.0409,4.2428 -2.4029,7.789 0.31006,8.7981 8.423,3.1332 8.3814,0.34256 9.7765,-4.0745 1.3785,-4.3642 2.0818,-8.4856 -0.66342,-9.8174 -2.74522,-1.3318 -5.2621,-0.68753 -5.2621,-0.68753 z"
             inkscape:connector-curvature="0"
             style="fill:#000000;stroke:#000000;stroke-width:1px"
             sodipodi:nodetypes="cssssc"
             id="path3874" />
          <path
             d="m 166.66,586.68 c 0,0 3.0361,2.8294 5.9063,3.2044 2.8702,0.37501 5.7404,0.75003 5.7404,0.75003"
             inkscape:connector-curvature="0"
             style="fill:none;stroke:#000000;stroke-width:1px"
             id="path3876" />
          <path
             transform="translate(0,308.27)"
             d="m 136.35,264.96 c -1.1968,1.9661 -5.2145,0.0855 -5.3855,-1.1113 -0.17097,-1.1968 -2.479,-0.17097 -1.2823,2.1371 1.1968,2.3081 5.642,2.5645 7.0952,0.94032 1.4532,-1.62418 2.479,-2.479 1.4532,-2.821 -1.0258,-0.34194 -1.8806,0.85484 -1.8806,0.85484 z"
             inkscape:connector-curvature="0"
             style="fill:#cdd3f5"
             id="path3878" />
          <path
             d="m 172.49,584.03 c 0.31736,-1.769 -0.82121,-2.9522 -1.4222,-1.6514 -0.60102,1.3008 -1.1803,4.415 2.0701,5.2707 3.2504,0.85574 5.0381,-0.29005 5.4181,-1.8784 0.37995,-1.5884 -0.0324,-3.7113 -1.2084,-1.9683 -1.1761,1.743 -1.9428,2.3325 -3.0447,2.1885 -1.1019,-0.14398 -1.8128,-1.9611 -1.8128,-1.9611 z"
             inkscape:connector-curvature="0"
             style="fill:#b2d4e9"
             id="path3880" />
          <path
             d="m 178.68,578.11 c 0,0 -1.9904,2.6704 -1.2089,3.8458 0.78155,1.1754 1.9204,1.8813 2.5793,0.35489 0.65886,-1.5264 1.6667,-4.6677 1.6667,-4.6677 z"
             inkscape:connector-curvature="0"
             style="fill:#ffffff;stroke:#000000;stroke-width:1px"
             id="path3882" />
          <path
             d="m 136.88,565.75 c 0,0 -1.3123,3.0612 -0.27807,4.0218 1.0343,0.96058 2.3064,1.3812 2.5909,-0.25682 0.28447,-1.638 0.53147,-4.9278 0.53147,-4.9278 z"
             inkscape:connector-curvature="0"
             style="fill:#ffffff;stroke:#000000;stroke-width:1px"
             id="path3882-6" />
          <path
             d="m 125.92,576.39 c 0,0 3.0774,1.6242 6.7532,1.7952 3.6758,0.17097 7.0952,-0.0855 7.0952,-0.0855"
             inkscape:connector-curvature="0"
             style="fill:none;stroke:#000000;stroke-width:1px"
             id="path3902" />
          <path
             d="m 191.64,563.27 c 0,0 2.3968,8.8399 0.55367,13.474 -2.7823,6.9948 -3.8814,15.816 -9.0256,16.571 -5.1442,0.75532 -11.21,4.6649 -11.21,4.6649 l 14.74,-2.8435 c -7.3237,2.7742 -13.621,5.7065 -16.583,9.1521 4.1114,-1.59 8.0844,-3.8472 12.596,-3.5099 -13.62,5.373 -14.278,10.944 -19.942,16.438 5.9964,-3.5938 10.619,-8.3328 19.518,-9.5076 -1.0133,6.1488 -9.4331,11.234 -14.863,16.749 9.1934,-4.9295 20.316,-9.2594 24.988,-15.594 2.8925,8.6963 1.2458,17.371 -3.0503,26.034 2.5765,-2.3395 3.0984,-4.8048 9.1638,-6.9307 2.9813,1.1791 4.2732,3.1171 3.2688,6.0864 m 25.488,11.227 c 0.35773,-5.0858 0.6348,-15.079 4.1546,-19.58 l 0.26867,7.5081 c 1.6507,-5.6069 5.2539,-11.094 1.7699,-17.015 4.3741,4.454 3.5435,7.4784 4.4263,10.973 1.7265,-4.9456 -2.6703,-13.98 -3.0806,-21.058 l 5.1192,11.551 c -1.3754,-9.5259 -5.9845,-16.967 -4.0748,-28.611 5.186,4.2412 3.5201,11.861 3.9694,18.437 6.7053,-11.337 0.94812,-21.995 -2.3626,-32.787 l 7.4591,9.0185 -8.3554,-18.17"
             inkscape:connector-curvature="0"
             style="fill:none;stroke:#961b0b;stroke-width:1px"
             sodipodi:nodetypes="cssccccccccccccccccccccccc"
             id="path3906" />
          <path
             d="m 190.41,491.28 c 0,0 -10.456,-3.506 -21.555,-6.0267 -10.974,-2.4924 -29.549,-1.2597 -36.881,2.5163 -13.326,6.8637 -21.537,11.832 -27.876,18.462 -6.3396,6.6294 -19.409,26.073 -20.043,27.71 -2.2013,5.6838 0.48351,13.99 0.48351,13.99 1.7239,-5.2126 1.5072,-11.04 6.9735,-15.067 0,0 3.9301,9.1023 1.2679,16.69 -3.195,9.1058 -6.3396,14.649 -6.3396,14.649 11.078,-5.2837 15.948,-10.24 18.385,-15.067 -0.98212,9.3198 -5.2788,18.114 -12.045,26.518 4.5782,-4.5404 10.872,-8.1021 13.313,-13.862 -1.0593,14.294 -5.3506,28.352 -12.679,42.187 l 12.045,-18.08 c 3.244,10.815 5.9474,21.579 4.4377,31.942 l 4.4377,-16.272 c 6.2373,9.5889 4.8591,16.532 1.9019,23.504 3.2218,-3.9344 6.5638,-7.8307 6.9735,-12.656 -0.11165,5.1239 -0.89147,10.375 1.2679,15.067 3.9164,-3.8016 6.4308,-7.7937 6.9736,-12.053 0.63174,5.2683 -1.9447,11.214 2.5358,15.67 -0.3859,-3.3273 -1.082,-6.7366 6.9736,-7.8348 -1.0494,3.61 0.21904,5.3914 2.5358,9.0004 l 11.906,-1.3671 c 0.18946,-2.9175 -0.58571,-6.5309 -1.1646,-8.8331 l -5.3087,0.38208 c 0,1.1624 -25.227,-18.022 -32.968,-32.456 -1.4241,-2.6556 1.6679,-39 1.6679,-39 1.8017,-3.6769 2.8699,-3.0375 4.9471,-1.7403 3.9698,5.2232 1.1498,5.8401 1.2679,11.063 2.3538,-5.6157 5.9271,-10.845 6.9735,-16.875 -0.85314,9.2882 2.715,10.871 4.4377,15.67 1.3248,-9.7176 5.3474,-13.451 9.5094,-16.875 -0.24277,14.52 0.58452,24.91 7.6075,34.955 0.17871,-5.5486 -1.6384,-10.341 0.63396,-16.875 -1.2962,4.9829 1.6745,8.4653 3.1698,10.848 -0.83942,-9.0967 7.2982,-16.974 12.045,-25.312 -1.6622,9.0432 -2.0102,18.107 1.9019,26.518 0.76999,-11.175 9.477,-18.481 13.313,-25.312 3.4906,3.5314 -0.71774,8.9204 8.2415,21.696 -0.90774,-6.9208 -0.0255,-14.125 3.1698,-21.696 -1.5945,11.898 4.3937,23.387 11.411,30.736 -3.4932,-15.844 1.3051,-24.002 2.279,-33.52 2.795,10.502 3.849,7.1743 10.4,18.123 2.066,-6.4411 1.6489,-9.9864 0.84256,-19.925 1.8497,14.897 6.7461,28.921 9.9347,35.733 -2.1804,-11.951 -0.41867,-21.091 3.1698,-28.928 -2.9549,16.764 2.9819,26.375 5.7056,38.571 0.0145,-9.5283 -4.9778,-21.253 0.63396,-28.326 -2.762,4.2364 1.1468,7.4971 4.4377,10.848 1.0825,-5.5532 -3.2908,-15.645 -5.7056,-24.107 3.0652,7.4267 6.7494,11.323 10.777,13.259 -5.2493,-4.7076 -9.7609,-15.727 -14.581,-24.107 0,0 -4.6142,-34.048 -25.992,-42.326 -8.7406,-3.3844 -17.751,-1.808 -17.751,-1.808 z"
             inkscape:connector-curvature="0"
             style="fill:none;stroke:#961b0b;stroke-width:1px"
             sodipodi:nodetypes="cssssccsccccccccccccccccccsccccccccccccccccccccccccccsc"
             id="path3904" />
          <path
             transform="translate(0,308.27)"
             inkscape:connector-curvature="0"
             sodipodi:nodetypes="ccc"
             d="m 155.04,312.93 c 2.5043,9.1212 0.55116,14.401 -1.6506,18.816"
             style="fill:none;stroke:#9a762f;stroke-width:1px"
             id="path3840" />
          <path
             transform="translate(0,308.27)"
             inkscape:connector-curvature="0"
             sodipodi:nodetypes="cc"
             d="m 144.75,233.96 c 1.6766,-12.287 6.7096,-24.841 19.758,-35.378"
             style="fill:none;stroke:#961b0b;stroke-width:1px"
             id="path3910" />
          <path
             transform="translate(0,308.27)"
             inkscape:connector-curvature="0"
             sodipodi:nodetypes="cc"
             d="m 152.99,252.54 c 0.47088,-12.245 4.744,-19.927 9.5416,-26.98"
             style="fill:none;stroke:#961b0b;stroke-width:1px"
             id="path3912" />
          <path
             transform="translate(0,308.27)"
             d="m 130.87,235.3 c 0,0 -0.58775,-5.4857 1.5673,-12.147 2.1551,-6.6612 4.8979,-13.322 4.8979,-13.322"
             inkscape:connector-curvature="0"
             style="fill:none;stroke:#961b0b;stroke-width:1px"
             id="path3914" />
          <path
             transform="translate(0,308.27)"
             d="m 168.1,237.65 c 0,0 5.2898,-15.477 5.6816,-19.2 0.39184,-3.7224 0.39184,-11.559 0.39184,-11.559"
             inkscape:connector-curvature="0"
             style="fill:none;stroke:#961b0b;stroke-width:1px"
             id="path3916" />
          <path
             transform="translate(0,308.27)"
             inkscape:connector-curvature="0"
             sodipodi:nodetypes="cssc"
             d="m 169.86,262.33 c 0,0 4.1007,-24.005 10.384,-35.657 5.2836,-9.799 4.702,-17.045 4.5061,-19.396 -0.19591,-2.351 -2.1551,-6.2694 -2.1551,-6.2694"
             style="fill:none;stroke:#961b0b;stroke-width:1px"
             id="path3918" />
          <path
             transform="translate(0,308.27)"
             inkscape:connector-curvature="0"
             sodipodi:nodetypes="csscsscssc"
             d="m 121.64,241.98 c 0,0 -2.7255,-13.13 -0.95828,-17.066 4.3102,-9.6 -4.0861,4.2607 -3.4983,9.7464 0.2443,2.2801 2.4211,10.707 2.4211,10.707 0,0 -8.6513,-10.37 -8.0636,-14.093 0.58775,-3.7224 1.1082,-6.1653 3.0673,-10.867 1.9592,-4.702 9.9918,-9.9918 9.9918,-9.9918 0,0 -9.9183,2.9694 -17.394,12.404 -2.0791,2.624 4.6224,-10.849 8.5775,-13.775 3.6733,-2.718 10.971,-6.4653 10.971,-6.4653"
             style="fill:none;stroke:#961b0b;stroke-width:1px"
             id="path3920" />
          <path
             transform="translate(0,308.27)"
             inkscape:connector-curvature="0"
             sodipodi:nodetypes="cssc"
             d="m 181.03,184.95 c -12.539,-3.1347 -8.0326,-6.2694 -31.347,-2.7428 -6.8789,1.0405 -16.457,3.9184 -22.726,7.249 -6.2694,3.3306 -15.477,10.58 -15.477,10.58"
             style="fill:none;stroke:#961b0b;stroke-width:1px"
             id="path3922" />
          <path
             transform="translate(0,308.27)"
             d="m 189.65,187.69 c 0,0 6.4653,-2.7428 13.714,0.39184 7.2489,3.1347 11.755,7.4449 15.282,12.931 3.5265,5.4857 3.3306,5.4857 3.3306,5.4857"
             inkscape:connector-curvature="0"
             style="fill:none;stroke:#961b0b;stroke-width:1px"
             id="path3924" />
          <path
             transform="translate(0,308.27)"
             d="m 194.35,240.19 c 0,0 5.0938,-11.755 5.0938,-16.065 0,-4.3102 -3.5265,-12.147 -3.5265,-12.147"
             inkscape:connector-curvature="0"
             style="fill:none;stroke:#961b0b;stroke-width:0.69999999"
             id="path3926" />
          <path
             transform="translate(0,308.27)"
             inkscape:connector-curvature="0"
             sodipodi:nodetypes="csc"
             d="m 208.06,237.45 c 0,0 1.9774,-16 -1.9592,-24.294 -2.7896,-5.8775 -9.7959,-11.363 -9.7959,-11.363"
             style="fill:none;stroke:#961b0b;stroke-width:0.69999999"
             id="path3928" />
          <path
             transform="translate(0,308.27)"
             d="m 220.21,235.1 c 0,0 -1.1755,-16.457 -2.351,-18.416 l -1.1755,-1.9592"
             inkscape:connector-curvature="0"
             style="fill:none;stroke:#961b0b;stroke-width:0.69999999"
             id="path3930" />
          <path
             transform="translate(0,308.27)"
             d="m 215.9,248.03 c 0,0 -1.5673,-11.755 -1.5673,-18.024 0,-6.2694 1.5673,-11.755 0,-15.673 -1.5673,-3.9184 -6.2694,-10.188 -6.2694,-10.188"
             inkscape:connector-curvature="0"
             style="fill:none;stroke:#961b0b;stroke-width:0.69999999"
             id="path3932" />
          <path
             transform="translate(0,308.27)"
             d="m 228.05,256.26 c 0,0 -3.5265,-12.539 -3.5265,-19.2 0,-6.6612 -1.5673,-19.984 -1.5673,-19.984"
             inkscape:connector-curvature="0"
             style="fill:none;stroke:#961b0b;stroke-width:0.69999999"
             id="path3934" />
          <path
             d="m 170.07,622.8 c 0,0 13.099,-10.679 19.778,-14.173 7.1666,-3.7491 9.4419,-9.4774 9.4419,-9.4774"
             inkscape:connector-curvature="0"
             style="fill:none;stroke:#962613;stroke-width:0.5"
             sodipodi:nodetypes="csc"
             id="path3936" />
          <path
             transform="translate(0,308.27)"
             inkscape:connector-curvature="0"
             sodipodi:nodetypes="csc"
             d="m 182.6,299.28 c 0,0 9.0122,-5.3999 11.755,-10.494 2.7428,-5.0938 5.8775,-10.58 5.8775,-10.58"
             style="fill:none;stroke:#962613;stroke-width:0.5"
             id="path3938" />
          <path
             d="m 190.57,632.27 c 0,0 8.3098,-6.5562 11.445,-10.475 3.1347,-3.9183 7.4449,-12.931 7.4449,-12.931"
             inkscape:connector-curvature="0"
             style="fill:none;stroke:#962613;stroke-width:0.5"
             sodipodi:nodetypes="csc"
             id="path3940" />
          <path
             transform="translate(0,308.27)"
             d="m 230.79,318.17 c 0,0 -1.5673,-12.539 -3.5265,-16.457 -1.9592,-3.9183 -2.351,-17.241 -2.351,-17.241"
             inkscape:connector-curvature="0"
             style="fill:none;stroke:#962613;stroke-width:0.80000001"
             id="path3942" />
          <path
             transform="translate(0,308.27)"
             d="m 235.88,299.36 c 0,0 -2.351,-10.188 -4.3102,-14.89 -1.9592,-4.702 -3.9184,-7.4449 -3.9184,-7.4449"
             inkscape:connector-curvature="0"
             style="fill:none;stroke:#962613;stroke-width:0.80000001"
             id="path3944" />
          <path
             transform="translate(0,308.27)"
             d="m 147.66,332.65 c 0,0 1.3968,2.1949 2.7935,2.594 1.3968,0.39908 5.7866,1.9954 6.1857,3.1926 0.39908,1.1972 0.39908,1.5963 0.39908,1.5963"
             inkscape:connector-curvature="0"
             style="fill:none;stroke:#9a762f;stroke-width:1px"
             id="path3976" />
          <path
             d="m 165.82,648.3 c 0.39908,-3.1926 5.5871,-2.9931 7.1834,-3.7912 1.5963,-0.79816 7.9816,-0.9977 8.5802,-1.9954 0.59862,-0.99769 0.59862,-0.99769 0.59862,-0.99769"
             inkscape:connector-curvature="0"
             style="fill:none;stroke:#9a762f;stroke-width:1px"
             id="path3978" />
          <path
             transform="translate(0,308.27)"
             inkscape:connector-curvature="0"
             sodipodi:nodetypes="ccsscscccccsccssssssc"
             d="m 191.07,302.37 c -2.2372,11.953 1.4677,17.171 2.9244,22.156 0,0 24.362,0.9023 32.483,11.73 8.1207,10.828 42.408,116.4 42.408,124.52 0,8.1207 -49.627,50.529 -49.627,50.529 0,0 0.0964,2.6106 -0.0425,3.9438 -0.34447,3.3074 -4.6561,8.6873 -7.6114,10.936 -1.7479,1.9915 -8.8794,10.749 -10.804,9.0572 -2.0648,-1.8062 5.2146,-7.9991 6.4248,-11.984 -3.3939,-0.0884 -13.301,15.317 -15.765,12.64 -2.0692,-2.0382 5.9803,-9.5576 7.4196,-13.698 -4.008,0.2126 -14.683,15.741 -16.993,13.714 -2.757,-2.4198 10.383,-14.127 9.8905,-19.183 -2.6693,0.13882 -10.578,13.668 -13.307,11.292 -1.0463,-1.2041 6.3132,-12.93 7.5742,-14.488 2.9115,-3.5966 7.1565,-9.618 4.1221,-9.7938 -4.275,-0.24774 -11.856,0.32382 -10.987,-3.5652 0.40829,-1.8282 7.3259,1.1204 13.137,-1.8656 5.1406,-2.6413 10.643,0.58711 10.7,0.36155 0.9023,-3.6092 27.971,-39.701 33.385,-43.31 5.4138,-3.6092 12.632,-3.6092 12.632,-3.6092"
             style="fill:none;stroke:#9a762f;stroke-width:1px"
             id="path3846" />
          <path
             transform="translate(0,308.27)"
             inkscape:connector-curvature="0"
             sodipodi:nodetypes="cscsc"
             d="m 142.56,297.49 c 0,0 -0.91578,-0.61052 3.9684,-1.221 4.8842,-0.61053 7.3263,0.91579 7.3263,0.91579 0,0 0.005,6.6357 -4.579,6.4105 -5.801,-0.28499 -6.7158,-6.1053 -6.7158,-6.1053 z"
             style="fill:none;stroke:#000000;stroke-width:1px"
             id="path3982" />
          <path
             transform="translate(0,308.27)"
             inkscape:connector-curvature="0"
             sodipodi:nodetypes="ccsc"
             d="m 92.399,590.77 5.1921,3.7087 c 0,0 4.3444,2.755 3.0729,4.7683 -1.0986,1.7395 -4.5564,0.63577 -4.5564,0.63577"
             style="fill:#fae9c6;stroke:#9a762f;stroke-width:1px"
             id="path4070" />
          <path
             transform="translate(0,308.27)"
             d="m 103.76,401.81 c 0,0 -1.9496,-0.12185 -1.8887,1.0358 0.0609,1.15765 1.4622,1.2185 1.4622,1.2185 l 2.6198,4.935 c 0,0 2.6808,-1.8278 2.7417,-5.1788 0.0609,-3.351 -2.6808,-4.7523 -2.6808,-4.7523 z"
             inkscape:connector-curvature="0"
             style="fill:none;stroke:#ffa07a;stroke-width:1px"
             id="path4072" />
          <ellipse
             transform="matrix(1,0,0,0.88636,0,354.88)"
             style="color:#000000;fill-opacity:0;stroke:#ffa07a;stroke-width:0.79663002;stroke-linecap:round;stroke-linejoin:round"
             id="path4078"
             cx="174.24962"
             cy="404.85608"
             rx="4.6304092"
             ry="5.3615265" />
          <path
             transform="translate(0,308.27)"
             d="m 174.31,406.68 c 0,0 1.2063,0.17233 1.8094,-0.25849 0.60315,-0.43081 0.51698,-0.77547 0.51698,-0.77547"
             inkscape:connector-curvature="0"
             style="fill:none;stroke:#ffa07a;stroke-width:1px"
             id="path4080" />
          <path
             transform="translate(0,308.27)"
             d="m 84.568,238.74 c 0,0 0,-13.366 4.3698,-16.965 4.3698,-3.5986 13.88,-10.796 13.88,-10.796"
             inkscape:connector-curvature="0"
             style="fill:none;stroke:#800000;stroke-width:1px"
             id="path4082" />
          <path
             transform="translate(0,308.27)"
             d="m 87.396,255.19 c 0,0 10.796,-8.2255 13.623,-15.937 2.8275,-7.7114 3.5986,-14.138 3.5986,-14.138"
             inkscape:connector-curvature="0"
             style="fill:none;stroke:#800000;stroke-width:1px"
             id="path4084" />
          <path
             transform="translate(0,308.27)"
             d="m 105.39,278.07 c 0,0 3.3416,-4.8839 4.8839,-10.025 1.5423,-5.1409 2.0564,-9.2536 2.0564,-9.2536"
             inkscape:connector-curvature="0"
             style="fill:none;stroke:#800000;stroke-width:1px"
             id="path4086" />
          <path
             transform="translate(0,308.27)"
             inkscape:connector-curvature="0"
             sodipodi:nodetypes="cscsc"
             d="m 218.23,257.51 c 0,0 -4.1127,12.595 -0.51409,23.391 1.7753,5.3259 0.25704,17.993 0.25704,17.993 0,0 -1.2852,-6.4262 -2.5705,-11.824 -1.2852,-5.398 -4.8839,-13.88 -4.8839,-13.88"
             style="fill:none;stroke:#961b0b;stroke-width:1px"
             id="path4090" />
          <path
             transform="translate(0,308.27)"
             d="m 223.12,276.53 c 0,0 2.5705,21.078 1.2852,25.962 -1.2852,4.8839 -7.1973,8.9966 -7.1973,8.9966 0,0 4.1127,-7.4543 4.3698,-12.081 0.25705,-4.6268 -2.5704,-15.166 -2.5704,-15.166"
             inkscape:connector-curvature="0"
             style="fill:none;stroke:#961b0b;stroke-width:1px"
             id="path4092" />
          <path
             transform="translate(0,308.27)"
             inkscape:connector-curvature="0"
             sodipodi:nodetypes="csscssc"
             d="m 208.98,294.52 c 0,0 4.1127,7.9684 2.8275,11.824 -1.2852,3.8557 -1.9081,11.062 -0.51409,12.595 2.5705,2.8275 5.1409,3.8557 5.1409,3.8557 0,0 -3.3416,-4.1127 -3.0846,-7.4543 0.25704,-3.3416 3.3416,-8.9966 3.3416,-13.623 0,-4.6268 -0.77113,-12.338 -0.77113,-12.338"
             style="fill:none;stroke:#961b0b;stroke-width:1px"
             id="path4096" />
          <path
             transform="translate(0,308.27)"
             d="m 219,286.81 c 0,0 -0.77114,9.2536 -1.5423,12.081 -0.77114,2.8275 -3.5986,13.109 -3.5986,15.166 0,2.0564 7.4543,-11.053 7.9684,-14.138 0.51409,-3.0846 -2.5705,-14.395 -2.5705,-14.395"
             inkscape:connector-curvature="0"
             style="fill:#800000;stroke-opacity:0"
             id="path4098" />
          <path
             sodipodi:nodetypes="cccccccccccccccccccccccccc"
             inkscape:connector-curvature="0"
             id="path15321"
             d="m 122.90084,675.49362 c 4.8215,3.51971 10.48227,5.22312 16.16451,6.68445 5.97444,2.05349 12.27028,2.24832 18.29004,3.62114 8.80162,0.34599 17.48981,1.95497 26.18309,3.24783 5.63796,-0.25039 11.13641,1.3953 16.72588,1.62075 4.46059,0.86619 1.04637,9.87676 5.45527,11.705 0.92089,3.03109 1.015,6.1912 1.17517,9.86321 -0.0931,5.3251 -0.53767,10.62334 -0.28727,15.97388 -0.14518,5.68679 -0.50741,11.33383 -0.57568,17.10184 1.10543,6.67012 1.15835,13.53654 2.30018,20.16263 1.28586,4.49843 2.27473,9.02817 2.30223,13.71635 0.0709,3.20617 0.11054,7.91055 -3.63555,8.69979 -7.21813,0.86714 -14.54071,-0.15628 -21.75009,0.89714 -15.6039,0.0931 -29.20836,0.0143 -44.81309,0.0403 -4.48076,-2.52565 -15.4357,1.11064 -17.56434,-3.5656 -0.89047,-6.09673 0.5063,-11.61284 0.89723,-17.62707 0.2933,-5.18225 0.32997,-11.32544 -2.30287,-15.51654 -2.24952,-9.74331 -13.0017,-22.23749 -16.74005,-25.33274 -3.07938,-3.72837 -4.36619,-4.53663 -6.293378,-8.91663 -1.305316,-5.37004 -0.212045,-11.5492 3.601138,-15.78737 4.1128,-3.01935 7.69418,-6.78082 11.60792,-9.82948 3.6868,-3.6992 5.15894,-8.80416 6.61995,-13.6158 1.98174,-0.95037 2.48075,-4.16975 2.19554,-2.06335 l 0.44417,-1.07978 0,3e-5 z"
             style="opacity:1;fill:#c492bf;fill-opacity:1;fill-rule:evenodd;stroke:#877184;stroke-width:1px;stroke-linecap:butt;stroke-linejoin:miter;stroke-opacity:1" />
          <path
             style="fill:#d25600;fill-opacity:1;fill-rule:evenodd;stroke:#961b0b;stroke-width:1px;stroke-linecap:butt;stroke-linejoin:miter;stroke-opacity:1"
             d="m 135.30332,893.14115 c 1.31333,3.23157 1.64565,1.10159 2.77699,4.6067 1.28437,2.75266 4.02868,3.9405 5.19808,5.74368 -0.38233,2.81599 4.38703,-0.40312 3.85966,2.29391 2.56049,-0.58635 6.86578,-0.25815 5.2692,-4.27172 -0.0862,-5.13347 1.43553,-4.28016 1.32683,-9.41343 1.30392,-1.99861 1.03173,-13.07925 -1.69172,-13.67111 0.21689,2.26318 -0.93903,7.13829 -2.52015,2.53789 -0.80292,-1.68068 -1.91344,-6.61196 -2.74454,-2.43106 -0.91734,1.56363 -0.74584,2.73199 -1.43105,0.81003 -2.2836,-5.12802 -1.00053,5.29 -4.05969,2.52518 -1.87795,-1.2827 -2.09535,-3.34516 -2.88341,-5.68848 -0.0358,2.80885 0.12831,7.51856 -1.43017,8.73914 -0.15731,-1.78355 -1.61262,-3.62589 -1.61752,-0.14148 -0.12927,1.68763 -2.7853,5.20401 -0.51313,5.5971 z"
             id="path15462"
             inkscape:connector-curvature="0"
             sodipodi:nodetypes="cccccccccccccccc" />
          <path
             sodipodi:nodetypes="cccccccccccccc"
             inkscape:connector-curvature="0"
             id="path15565"
             d="m 121.53281,868.13537 c 2.79018,8.39218 7.75769,26.31034 12.53967,32.45004 4.68812,4.19814 17.82819,18.73182 19.87945,3.20869 2.73308,-7.35789 10.6617,-18.46684 11.36868,-20.40789 4.86758,-6.44841 13.40766,-9.70965 20.5773,-14.34205 9.20314,-3.14766 12.87615,-5.54371 18.97354,-8.12963 0.56846,-1.63334 8.0781,-6.12617 9.50694,-7.01178 0.90054,-8.32136 8.99485,-1.01974 5.09748,-10.15556 1.41502,-3.68786 -4.85379,-8.80025 -5.02234,-3.23773 -1.31128,4.17021 -16.38676,8.6613 -22.58434,10.4699 -13.75798,2.42614 -27.88511,-0.10807 -41.53476,3.04634 -11.67698,0.76133 -23.1092,2.16563 -34.60104,-0.29403 -1.54388,0.3808 -2.70994,-0.85223 -1.1078,7.72269 0.1197,-3.06212 6.55566,6.31565 6.90722,6.68101 z"
             style="fill:#f2f2f2;fill-opacity:1;fill-rule:evenodd;stroke:#ada5a5;stroke-width:1px;stroke-linecap:butt;stroke-linejoin:miter;stroke-opacity:1" />
          <path
             sodipodi:nodetypes="ccccccccccccccccccccccccc"
             inkscape:connector-curvature="0"
             id="path15325"
             d="m 115.42192,820.18186 c -1.543,5.28065 -0.37209,11.16759 -2.29783,16.464 -2.13853,4.65601 -3.82245,9.4768 -3.45518,14.72149 -0.0326,9.87279 -0.0351,19.75292 0.26831,29.61526 -0.15721,4.74572 -1.06352,9.84555 1.16994,14.27605 1.4454,4.97955 1.28465,10.17218 2.32261,15.26445 0.40007,4.09552 0.17968,10.18324 6.21028,8.56286 8.8116,1.13302 17.71993,0.18966 26.56048,0.91063 6.71323,1.5402 13.6607,1.05908 20.45068,2.11885 8.76532,0.78219 17.59703,0.79862 26.40213,1.08747 4.54915,-0.23017 9.22309,0.25282 13.70034,-0.24219 4.93577,-0.89106 10.01536,-0.98787 15.00944,-1.419 2.92084,-3.96989 1.50524,-9.47073 1.45216,-14.36594 0.0863,-5.70758 2.87759,-10.95288 2.4031,-16.7346 0.62725,-5.09665 1.07978,-10.3466 0.55758,-15.57477 -0.0626,-5.28449 0.32413,-10.61773 -1.13155,-15.64372 0.006,-4.66982 -1.66781,-9.12172 -3.22891,-13.39204 -1.13848,-5.32421 -10.99479,-23.04079 -11.69555,-28.42274 -2.16619,-3.49884 -3.98381,-0.20498 -7.87013,-0.98586 -2.80552,-0.91091 -6.38295,0.0926 -9.32216,-0.26732 -2.33075,0.0987 -13.37568,2.20412 -15.5067,3.29641 -12.67711,0.80155 -8.88593,2.19371 -21.59428,2.33121 -8.85982,1.07496 -18.90342,0.68299 -27.04384,-0.65642 -4.54331,0.24894 -8.69,-0.73513 -13.23507,-1.10589 0.22194,0.45784 1.94967,0.72702 -0.12585,0.16181 z"
             style="fill:#7584dd;fill-opacity:1;fill-rule:evenodd;stroke:#4b4685;stroke-width:1px;stroke-linecap:butt;stroke-linejoin:miter;stroke-opacity:1" />
          <path
             id="path15329"
             style="fill:#fae9c6;fill-opacity:1;stroke:#9a762f;stroke-width:1px"
             d="m 268.8854,460.776 c 0,8.1207 -49.627,50.529 -49.627,50.529 0,0 0.0964,2.6106 -0.0425,3.9438 -0.34447,3.3074 -4.6561,8.6873 -7.6114,10.936 -1.7479,1.9915 -8.8794,10.749 -10.804,9.0572 -2.0648,-1.8062 5.2146,-7.9991 6.4248,-11.984 -3.3939,-0.0884 -13.301,15.317 -15.765,12.64 -2.0692,-2.0382 5.9803,-9.5576 7.4196,-13.698 -4.008,0.2126 -14.683,15.741 -16.993,13.714 -2.757,-2.4198 10.383,-14.127 9.8905,-19.183 -2.6693,0.13882 -10.578,13.668 -13.307,11.292 -1.0463,-1.2041 6.3132,-12.93 7.5742,-14.488 2.9115,-3.5966 7.1565,-9.618 4.1221,-9.7938 -4.275,-0.24774 -11.856,0.32382 -10.987,-3.5652 0.40829,-1.8282 7.3259,1.1204 13.137,-1.8656 5.1406,-2.6413 10.643,0.58711 10.7,0.36155 0.9023,-3.6092 27.971,-39.701 33.385,-43.31 5.4138,-3.6092 12.632,-3.6092 12.632,-3.6092"
             sodipodi:nodetypes="ccscccccsccssssssc"
             inkscape:connector-curvature="0"
             transform="translate(0,308.27)" />
        </g>
      </g>
    </g>
  </g>
  <metadata
     id="metadata14777">
    <rdf:RDF>
      <cc:Work>
        <dc:format>image/svg+xml</dc:format>
        <dc:type
           rdf:resource="http://purl.org/dc/dcmitype/StillImage" />
        <cc:license
           rdf:resource="http://creativecommons.org/publicdomain/zero/1.0/" />
        <dc:publisher>
          <cc:Agent
             rdf:about="http://openclipart.org/">
            <dc:title>Openclipart</dc:title>
          </cc:Agent>
        </dc:publisher>
        <dc:title>Naked girls</dc:title>
        <dc:date>2012-04-03T22:47:22</dc:date>
        <dc:description>Some nude bodies to try to draw body proportions and shades on skin.</dc:description>
        <dc:source>https://openclipart.org/detail/169321/naked-girls-by-jza</dc:source>
        <dc:creator>
          <cc:Agent>
            <dc:title>JZA</dc:title>
          </cc:Agent>
        </dc:creator>
        <dc:subject>
          <rdf:Bag>
            <rdf:li>body</rdf:li>
            <rdf:li>ecchi</rdf:li>
            <rdf:li>girls</rdf:li>
            <rdf:li>manga</rdf:li>
          </rdf:Bag>
        </dc:subject>
      </cc:Work>
      <cc:License
         rdf:about="http://creativecommons.org/publicdomain/zero/1.0/">
        <cc:permits
           rdf:resource="http://creativecommons.org/ns#Reproduction" />
        <cc:permits
           rdf:resource="http://creativecommons.org/ns#Distribution" />
        <cc:permits
           rdf:resource="http://creativecommons.org/ns#DerivativeWorks" />
      </cc:License>
    </rdf:RDF>
  </metadata>
</svg>
