<?xml version="1.0" encoding="UTF-8" standalone="no"?>
<svg
   xmlns:dc="http://purl.org/dc/elements/1.1/"
   xmlns:cc="http://creativecommons.org/ns#"
   xmlns:rdf="http://www.w3.org/1999/02/22-rdf-syntax-ns#"
   xmlns:svg="http://www.w3.org/2000/svg"
   xmlns="http://www.w3.org/2000/svg"
   xmlns:sodipodi="http://sodipodi.sourceforge.net/DTD/sodipodi-0.dtd"
   xmlns:inkscape="http://www.inkscape.org/namespaces/inkscape"
   id="svg2"
   viewBox="0 0 411.69364 179.92761"
   version="1.1"
   inkscape:version="0.48.0 r9654"
   width="100%"
   height="100%"
   sodipodi:docname="letter_R.svg">
  <defs
     id="defs21" />
  <sodipodi:namedview
     pagecolor="#ffffff"
     bordercolor="#666666"
     borderopacity="1"
     objecttolerance="10"
     gridtolerance="10"
     guidetolerance="10"
     inkscape:pageopacity="0"
     inkscape:pageshadow="2"
     inkscape:window-width="640"
     inkscape:window-height="480"
     id="namedview19"
     showgrid="false"
     fit-margin-top="0"
     fit-margin-left="0"
     fit-margin-right="0"
     fit-margin-bottom="0"
     inkscape:zoom="0.96093724"
     inkscape:cx="205.86837"
     inkscape:cy="28.99721"
     inkscape:window-x="0"
     inkscape:window-y="0"
     inkscape:window-maximized="0"
     inkscape:current-layer="g4594" />
  <title
     id="title3983">R Is For Rainbow</title>
  <g
     style="fill:none;stroke:#000000"
     transform="translate(863.18337,-693.4946)"
     id="g4594">
    <g
       style="stroke-width:5.78249979"
       transform="matrix(0.83833,0,0,0.7224,-1590.2,552.89)"
       id="g4107">
      <path
         inkscape:connector-curvature="0"
         d="m 1039.9,440.59 c 0,-40.238 32.606,-72.844 72.844,-72.844 40.238,0 72.875,32.606 72.875,72.844 m -72.875,-242.84 c -134.13,0 -242.84,108.72 -242.84,242.84 h 485.72 c 0,-134.13 -108.75,-242.84 -242.87,-242.84 z"
         id="path2816" />
      <path
         inkscape:connector-curvature="0"
         d="m 1039.9,440.59 c 0,-40.238 32.606,-72.844 72.844,-72.844 40.238,0 72.875,32.606 72.875,72.844 m -72.875,-218.56 c -120.71,0 -218.56,97.849 -218.56,218.56 h 437.13 c 0,-120.71 -97.849,-218.56 -218.56,-218.56 z"
         id="path2816-1-45" />
      <path
         inkscape:connector-curvature="0"
         d="m 1039.9,440.59 c 0,-40.238 32.606,-72.844 72.844,-72.844 40.238,0 72.875,32.606 72.875,72.844 m -72.875,-194.28 c -107.3,0 -194.28,86.98 -194.28,194.28 h 388.56 c 0,-107.3 -86.98,-194.28 -194.28,-194.28 z"
         id="path2816-1-8" />
      <path
         inkscape:connector-curvature="0"
         d="m 1039.9,440.59 c 0,-40.238 32.606,-72.844 72.844,-72.844 40.238,0 72.875,32.606 72.875,72.844 m -72.875,-170 c -93.888,0 -170,76.112 -170,170 h 340 c 0,-93.888 -76.112,-170 -170,-170 z"
         id="path2816-1-4" />
      <path
         inkscape:connector-curvature="0"
         d="m 1039.9,440.59 c 0,-40.238 32.606,-72.844 72.844,-72.844 40.238,0 72.875,32.606 72.875,72.844 M 1112.744,294.9 c -80.476,0 -145.72,65.212 -145.72,145.69 h 291.44 c 0,-80.476 -65.243,-145.69 -145.72,-145.69 z"
         id="path2816-1-0" />
      <path
         inkscape:connector-curvature="0"
         d="m 1039.9,440.59 c 0,-40.238 32.606,-72.844 72.844,-72.844 40.238,0 72.875,32.606 72.875,72.844 m -72.875,-121.41 c -67.063,0 -121.44,54.343 -121.44,121.41 h 242.88 c 0,-67.063 -54.374,-121.41 -121.44,-121.41 z"
         id="path2816-1-7" />
      <path
         inkscape:connector-curvature="0"
         d="m 1039.9,440.59 c 0,-40.238 32.606,-72.844 72.844,-72.844 40.238,0 72.875,32.606 72.875,72.844 m -72.875,-97.125 c -53.65,0 -97.125,43.474 -97.125,97.125 h 194.28 c 0,-53.651 -43.506,-97.125 -97.156,-97.125 z"
         id="path2816-1" />
    </g>
  </g>
  <metadata
     id="metadata17">
    <rdf:RDF>
      <cc:Work>
        <dc:format>image/svg+xml</dc:format>
        <dc:type
           rdf:resource="http://purl.org/dc/dcmitype/StillImage" />
        <cc:license
           rdf:resource="http://creativecommons.org/licenses/publicdomain/" />
        <dc:publisher>
          <cc:Agent
             rdf:about="http://openclipart.org/">
            <dc:title>Openclipart</dc:title>
          </cc:Agent>
        </dc:publisher>
        <dc:title>R Is For Rainbow</dc:title>
        <dc:date>2010-10-05T23:48:40</dc:date>
        <dc:description>Outlines of an uppercase and lowercase letter r, with a rainbow for coloring. Typeface is Let's Trace (public domain).</dc:description>
        <dc:source>http://openclipart.org/detail/88813/r-is-for-rainbow-by-mazeo</dc:source>
        <dc:creator>
          <cc:Agent>
            <dc:title>mazeo</dc:title>
          </cc:Agent>
        </dc:creator>
        <dc:subject>
          <rdf:Bag>
            <rdf:li>alphabet</rdf:li>
            <rdf:li>clip art</rdf:li>
            <rdf:li>clipart</rdf:li>
            <rdf:li>coloring book</rdf:li>
            <rdf:li>colouring book</rdf:li>
            <rdf:li>letter R</rdf:li>
            <rdf:li>rainbow</rdf:li>
            <rdf:li>remix</rdf:li>
          </rdf:Bag>
        </dc:subject>
      </cc:Work>
      <cc:License
         rdf:about="http://creativecommons.org/licenses/publicdomain/">
        <cc:permits
           rdf:resource="http://creativecommons.org/ns#Reproduction" />
        <cc:permits
           rdf:resource="http://creativecommons.org/ns#Distribution" />
        <cc:permits
           rdf:resource="http://creativecommons.org/ns#DerivativeWorks" />
      </cc:License>
    </rdf:RDF>
  </metadata>
</svg>
