<?xml version="1.0" encoding="UTF-8" standalone="no"?>
<!-- Created with Inkscape (http://www.inkscape.org/) -->

<svg
   xmlns:dc="http://purl.org/dc/elements/1.1/"
   xmlns:cc="http://creativecommons.org/ns#"
   xmlns:rdf="http://www.w3.org/1999/02/22-rdf-syntax-ns#"
   xmlns:svg="http://www.w3.org/2000/svg"
   xmlns="http://www.w3.org/2000/svg"
   xmlns:sodipodi="http://sodipodi.sourceforge.net/DTD/sodipodi-0.dtd"
   xmlns:inkscape="http://www.inkscape.org/namespaces/inkscape"
   width="744.09448819"
   height="1052.3622047"
   id="svg3154"
   version="1.1"
   inkscape:version="0.48+devel r9772"
   sodipodi:docname="art_vintage_2.eps"
   inkscape:export-filename="/Users/dordy/Documents/archivio disegni svg/arte deco/art_vintage.png"
   inkscape:export-xdpi="300"
   inkscape:export-ydpi="300">
  <defs
     id="defs3156" />
  <sodipodi:namedview
     id="base"
     pagecolor="#ffffff"
     bordercolor="#666666"
     borderopacity="1.0"
     inkscape:pageopacity="0.0"
     inkscape:pageshadow="2"
     inkscape:zoom="0.58249908"
     inkscape:cx="372.04724"
     inkscape:cy="526.18109"
     inkscape:document-units="px"
     inkscape:current-layer="layer1"
     showgrid="false"
     inkscape:window-width="1280"
     inkscape:window-height="752"
     inkscape:window-x="0"
     inkscape:window-y="0"
     inkscape:window-maximized="0" />
  <metadata
     id="metadata3159">
    <rdf:RDF>
      <cc:Work
         rdf:about="">
        <dc:format>image/svg+xml</dc:format>
        <dc:type
           rdf:resource="http://purl.org/dc/dcmitype/StillImage" />
        <dc:title></dc:title>
      </cc:Work>
    </rdf:RDF>
  </metadata>
  <g
     inkscape:label="Livello 1"
     inkscape:groupmode="layer"
     id="layer1">
    <g
       id="g3323">
      <path
         inkscape:connector-curvature="0"
         d="m 2.2375399,1.3572453 743.6256001,0 0,1052.7998547 -743.6256001,0 0,-1052.7998547 z"
         style="fill:#e9c6af;fill-opacity:1;fill-rule:nonzero;stroke:none"
         id="path3228" />
      <path
         inkscape:connector-curvature="0"
         d="m 141.31482,198.3325 c -34.76125,21.1475 -76.728747,15.63 -93.731247,-12.32375 -17.00125,-27.95 -2.6075,-67.74875 32.15375,-88.89625 34.764997,-21.1475 76.728747,-15.63 93.729997,12.31875 17.0025,27.95375 2.6075,67.75375 -32.1525,88.90125 z"
         style="fill:#800000;fill-opacity:1;fill-rule:nonzero;stroke:none"
         id="path3230" />
      <path
         inkscape:connector-curvature="0"
         d="m 141.56857,191.00875 c -30.9775,18.8425 -68.364997,13.93 -83.516247,-10.97625 -15.15125,-24.9025 -2.32375,-60.36625 28.6525,-79.21 C 117.67607,81.98 155.06482,86.8975 170.21607,111.8 c 15.15125,24.90625 2.32375,60.37 -28.6475,79.20875 z"
         style="fill:#ffcc00;fill-opacity:1;fill-rule:nonzero;stroke:none"
         id="path3232" />
      <path
         inkscape:connector-curvature="0"
         d="M 146.36357,171.30625 C 123.55607,185.17875 96.021073,181.56 84.868573,163.22 c -11.15625,-18.34 -1.71375,-44.4525 21.093747,-58.325 22.8075,-13.87625 50.3425,-10.25875 61.495,8.08125 11.15625,18.34 1.71375,44.4525 -21.09375,58.33 z"
         style="fill:#ff6600;fill-opacity:1;fill-rule:nonzero;stroke:none"
         id="path3234" />
      <path
         inkscape:connector-curvature="0"
         d="m 150.84107,150.8625 c -14.96125,9.10625 -33.0275,6.7275 -40.3475,-5.30375 -7.31875,-12.03125 -1.1225,-29.165 13.84375,-38.26625 14.965,-9.10625 33.02625,-6.72875 40.34625,5.3025 7.31875,12.03125 1.1225,29.165 -13.8425,38.2675 z"
         style="fill:#ffffff;fill-opacity:1;fill-rule:nonzero;stroke:none"
         id="path3236" />
      <path
         inkscape:connector-curvature="0"
         d="m 258.96107,103.1225 c 34.76,-21.1425 76.72375,-15.63 93.73,12.325 17.0025,27.94875 2.6075,67.75375 -32.1575,88.89625 -34.76125,21.1475 -76.72375,15.63 -93.72625,-12.32 C 209.80107,164.075 224.19982,124.27 258.96107,103.1225 z"
         style="fill:#808000;fill-opacity:1;fill-rule:nonzero;stroke:none"
         id="path3238" />
      <path
         inkscape:connector-curvature="0"
         d="m 258.70732,110.4475 c 30.97125,-18.84375 68.36375,-13.92625 83.51,10.97625 15.15125,24.9075 2.325,60.36625 -28.6475,79.20875 -30.97125,18.8425 -68.36375,13.92625 -83.51,-10.97625 -15.15125,-24.9075 -2.325,-60.37125 28.6475,-79.20875 z"
         style="fill:#552200;fill-opacity:1;fill-rule:nonzero;stroke:none"
         id="path3240" />
      <path
         inkscape:connector-curvature="0"
         d="m 253.91232,130.15375 c 22.8075,-13.87625 50.33625,-10.25375 61.49375,8.08125 11.1575,18.34 1.70875,44.45375 -21.09375,58.33 -22.8075,13.8725 -50.34125,10.25375 -61.49875,-8.08625 -11.1575,-18.34 -1.70875,-44.4525 21.09875,-58.325 z"
         style="fill:#008000;fill-opacity:1;fill-rule:nonzero;stroke:none"
         id="path3242" />
      <path
         inkscape:connector-curvature="0"
         d="m 249.42982,150.59375 c 14.965,-9.1025 33.0275,-6.72875 40.34625,5.3025 7.32,12.03125 1.12375,29.165 -13.8375,38.27125 -14.96625,9.10125 -33.0275,6.72375 -40.35125,-5.3075 -7.32,-12.03125 -1.11875,-29.165 13.8425,-38.26625 z"
         style="fill:#552200;fill-opacity:1;fill-rule:nonzero;stroke:none"
         id="path3244" />
      <path
         inkscape:connector-curvature="0"
         d="m 76.734823,362.5175 c 34.759997,21.1475 76.722497,15.63 93.724997,-12.32 17.00625,-27.95375 2.6075,-67.75375 -32.15375,-88.90125 -34.76,-21.1475 -76.723747,-15.63 -93.729997,12.32 -17.0025,27.95375 -2.6075,67.75375 32.15875,88.90125 z"
         style="fill:#008080;fill-opacity:1;fill-rule:nonzero;stroke:none"
         id="path3246" />
      <path
         inkscape:connector-curvature="0"
         d="m 76.479823,355.1975 c 30.972497,18.83875 68.359997,13.92625 83.511247,-10.98125 15.15125,-24.9025 2.32375,-60.36625 -28.6475,-79.20875 -30.97125,-18.8375 -68.363747,-13.92625 -83.514997,10.98125 -15.1475,24.9025 -2.32,60.36625 28.65125,79.20875 z"
         style="fill:#ffffff;fill-opacity:1;fill-rule:nonzero;stroke:none"
         id="path3248" />
      <path
         inkscape:connector-curvature="0"
         d="m 71.681073,335.49125 c 22.8075,13.87125 50.341247,10.25375 61.498747,-8.08625 11.1575,-18.34 1.70875,-44.45375 -21.09875,-58.325 -22.807497,-13.8775 -50.337497,-10.25375 -61.493747,8.08125 -11.1575,18.34 -1.71,44.4525 21.09375,58.33 z"
         style="fill:#552200;fill-opacity:1;fill-rule:nonzero;stroke:none"
         id="path3250" />
      <path
         inkscape:connector-curvature="0"
         d="m 67.203573,315.05125 c 14.965,9.10125 33.026247,6.72375 40.346247,-5.3075 7.31875,-12.03125 1.1225,-29.165 -13.842497,-38.26625 -14.96125,-9.10125 -33.0275,-6.72875 -40.3475,5.3025 -7.31875,12.03125 -1.1225,29.165 13.84375,38.27125 z"
         style="fill:#ffffff;fill-opacity:1;fill-rule:nonzero;stroke:none"
         id="path3252" />
      <path
         inkscape:connector-curvature="0"
         d="m 311.51482,363.71875 c -34.76125,21.1475 -76.72875,15.63 -93.73125,-12.32 -17.00125,-27.95375 -2.6075,-67.75375 32.15375,-88.90125 34.76125,-21.1425 76.72875,-15.63 93.73,12.325 17.0025,27.94875 2.6075,67.75375 -32.1525,88.89625 z"
         style="fill:#ff6600;fill-opacity:1;fill-rule:nonzero;stroke:none"
         id="path3254" />
      <path
         inkscape:connector-curvature="0"
         d="m 311.76857,356.39875 c -30.97625,18.8425 -68.365,13.92625 -83.51625,-10.97625 -15.15125,-24.9075 -2.32375,-60.37125 28.6525,-79.20875 30.9725,-18.8425 68.36,-13.92625 83.51125,10.97625 15.15125,24.9025 2.32375,60.36625 -28.6475,79.20875 z"
         style="fill:#552200;fill-opacity:1;fill-rule:nonzero;stroke:none"
         id="path3256" />
      <path
         inkscape:connector-curvature="0"
         d="m 316.56357,336.6925 c -22.8075,13.87625 -50.3425,10.25375 -61.49875,-8.08625 -11.1525,-18.335 -1.71,-44.44875 21.0975,-58.325 22.80875,-13.8725 50.3425,-10.25375 61.495,8.085 11.1575,18.34 1.71375,44.45375 -21.09375,58.32625 z"
         style="fill:#ffcc00;fill-opacity:1;fill-rule:nonzero;stroke:none"
         id="path3258" />
      <path
         inkscape:connector-curvature="0"
         d="m 321.04107,316.2525 c -14.96125,9.10125 -33.0275,6.72875 -40.34625,-5.3025 -7.32,-12.03625 -1.12375,-29.165 13.8425,-38.27125 14.96,-9.1025 33.0275,-6.72875 40.34625,5.3075 7.32,12.03125 1.12375,29.165 -13.8425,38.26625 z"
         style="fill:#552200;fill-opacity:1;fill-rule:nonzero;stroke:none"
         id="path3260" />
      <path
         inkscape:connector-curvature="0"
         d="m 255.95357,518.71875 c 34.76,21.1425 76.7225,15.63 93.73,-12.325 17.00125,-27.94875 2.6075,-67.75375 -32.15875,-88.89625 -34.76,-21.1475 -76.72375,-15.63 -93.725,12.32 -17.0075,27.95375 -2.6075,67.75375 32.15375,88.90125 z"
         style="fill:#800000;fill-opacity:1;fill-rule:nonzero;stroke:none"
         id="path3262" />
      <path
         inkscape:connector-curvature="0"
         d="m 255.69857,511.39375 c 30.9725,18.84375 68.365,13.92625 83.51625,-10.97625 15.14625,-24.9025 2.31875,-60.36625 -28.6525,-79.20875 -30.97125,-18.8425 -68.36375,-13.92625 -83.51125,10.97625 -15.15125,24.9075 -2.32375,60.37125 28.6475,79.20875 z"
         style="fill:#ffcc00;fill-opacity:1;fill-rule:nonzero;stroke:none"
         id="path3264" />
      <path
         inkscape:connector-curvature="0"
         d="m 250.90357,491.6875 c 22.80875,13.87625 50.3425,10.25875 61.495,-8.08125 11.1575,-18.34 1.71375,-44.45375 -21.09375,-58.33 -22.8075,-13.8725 -50.3425,-10.25375 -61.49875,8.08625 -11.1525,18.33875 -1.71,44.4525 21.0975,58.325 z"
         style="fill:#ff6600;fill-opacity:1;fill-rule:nonzero;stroke:none"
         id="path3266" />
      <path
         inkscape:connector-curvature="0"
         d="m 246.42232,471.2475 c 14.965,9.10125 33.02625,6.72875 40.35125,-5.3025 7.31875,-12.03125 1.1175,-29.165 -13.8425,-38.26625 -14.96625,-9.10625 -33.0275,-6.72875 -40.3475,5.3025 -7.31875,12.03125 -1.1225,29.165 13.83875,38.26625 z"
         style="fill:#ffffff;fill-opacity:1;fill-rule:nonzero;stroke:none"
         id="path3268" />
      <path
         inkscape:connector-curvature="0"
         d="m 138.30607,423.50875 c -34.76,-21.1425 -76.723747,-15.63 -93.729997,12.32375 -17.0025,27.95 -2.6075,67.75375 32.15875,88.89625 34.759997,21.1475 76.722497,15.63 93.724997,-12.31875 17.00625,-27.95375 2.6075,-67.75375 -32.15375,-88.90125 z"
         style="fill:#808000;fill-opacity:1;fill-rule:nonzero;stroke:none"
         id="path3270" />
      <path
         inkscape:connector-curvature="0"
         d="m 138.55982,430.8325 c -30.97125,-18.8425 -68.363747,-13.925 -83.514997,10.97625 -15.14625,24.9025 -2.32,60.36625 28.6525,79.21 30.971247,18.8425 68.358747,13.925 83.509997,-10.9775 15.1525,-24.90625 2.325,-60.37125 -28.6475,-79.20875 z"
         style="fill:#552200;fill-opacity:1;fill-rule:nonzero;stroke:none"
         id="path3272" />
      <path
         inkscape:connector-curvature="0"
         d="m 143.35482,450.54 c -22.8075,-13.8775 -50.341247,-10.25875 -61.493747,8.08125 -11.1575,18.33875 -1.71375,44.4525 21.093747,58.33 22.8075,13.87125 50.3425,10.25375 61.49875,-8.08625 11.1525,-18.34 1.70875,-44.45375 -21.09875,-58.325 z"
         style="fill:#008000;fill-opacity:1;fill-rule:nonzero;stroke:none"
         id="path3274" />
      <path
         inkscape:connector-curvature="0"
         d="m 147.83732,470.97875 c -14.965,-9.10125 -33.03125,-6.7275 -40.35125,5.30375 -7.31875,12.03125 -1.1175,29.165 13.8425,38.26625 14.96625,9.10625 33.0275,6.72875 40.3475,-5.3025 7.31875,-12.03125 1.1225,-29.165 -13.83875,-38.2675 z"
         style="fill:#552200;fill-opacity:1;fill-rule:nonzero;stroke:none"
         id="path3276" />
      <path
         inkscape:connector-curvature="0"
         d="m 320.53357,682.9025 c -34.76125,21.1475 -76.72375,15.63 -93.72625,-12.32375 -17.00625,-27.94875 -2.6075,-67.74875 32.15375,-88.89625 34.76,-21.1475 76.72375,-15.63 93.73,12.31875 17.0025,27.955 2.6075,67.75375 -32.1575,88.90125 z"
         style="fill:#008080;fill-opacity:1;fill-rule:nonzero;stroke:none"
         id="path3278" />
      <path
         inkscape:connector-curvature="0"
         d="m 320.78732,675.58375 c -30.9725,18.8375 -68.365,13.92625 -83.51125,-10.98125 -15.15125,-24.9025 -2.32375,-60.36625 28.6475,-79.20875 30.97125,-18.84375 68.36375,-13.92625 83.51125,10.98125 15.15125,24.9025 2.32375,60.36625 -28.6475,79.20875 z"
         style="fill:#ffffff;fill-opacity:1;fill-rule:nonzero;stroke:none"
         id="path3280" />
      <path
         inkscape:connector-curvature="0"
         d="m 325.58232,655.87625 c -22.8075,13.8725 -50.3375,10.25375 -61.495,-8.085 -11.15625,-18.34 -1.70875,-44.45375 21.09875,-58.32625 22.8025,-13.87625 50.3375,-10.25875 61.495,8.08125 11.15625,18.34 1.70875,44.45375 -21.09875,58.33 z"
         style="fill:#552200;fill-opacity:1;fill-rule:nonzero;stroke:none"
         id="path3282" />
      <path
         inkscape:connector-curvature="0"
         d="m 330.06482,635.4325 c -14.96625,9.10625 -33.0275,6.72875 -40.3475,-5.3025 -7.31875,-12.03125 -1.1225,-29.165 13.83875,-38.2675 14.965,-9.10125 33.03125,-6.7275 40.35125,5.30375 7.31875,12.03125 1.1175,29.165 -13.8425,38.26625 z"
         style="fill:#ffffff;fill-opacity:1;fill-rule:nonzero;stroke:none"
         id="path3284" />
      <path
         inkscape:connector-curvature="0"
         d="m 85.752323,684.10375 c 34.761247,21.1475 76.723747,15.63 93.731247,-12.31875 17.00125,-27.95375 2.6075,-67.75375 -32.15375,-88.90125 -34.765,-21.1475 -76.728747,-15.63 -93.729997,12.32375 -17.0025,27.95 -2.6075,67.74875 32.1525,88.89625 z"
         style="fill:#ff6600;fill-opacity:1;fill-rule:nonzero;stroke:none"
         id="path3286" />
      <path
         inkscape:connector-curvature="0"
         d="m 85.498573,676.785 c 30.976247,18.8425 68.364997,13.925 83.516247,-10.97625 15.14625,-24.9075 2.31875,-60.37125 -28.6525,-79.21375 -30.97125,-18.83875 -68.359997,-13.92625 -83.511247,10.98125 -15.15125,24.9025 -2.32375,60.36625 28.6475,79.20875 z"
         style="fill:#552200;fill-opacity:1;fill-rule:nonzero;stroke:none"
         id="path3288" />
      <path
         inkscape:connector-curvature="0"
         d="m 80.703573,657.0775 c 22.807497,13.8725 50.342497,10.25375 61.494997,-8.08625 11.15625,-18.33375 1.71375,-44.4525 -21.09375,-58.325 C 98.297323,576.795 70.762323,580.4125 59.604823,598.7525 c -11.15125,18.335 -1.70875,44.45375 21.09875,58.325 z"
         style="fill:#ffcc00;fill-opacity:1;fill-rule:nonzero;stroke:none"
         id="path3290" />
      <path
         inkscape:connector-curvature="0"
         d="m 76.221073,636.63875 c 14.96625,9.10125 33.032497,6.7275 40.352497,-5.3075 7.31875,-12.03125 1.1175,-29.165 -13.84375,-38.2675 -14.964997,-9.10125 -33.026247,-6.72875 -40.346247,5.3025 -7.31875,12.03625 -1.1225,29.16625 13.8375,38.2725 z"
         style="fill:#552200;fill-opacity:1;fill-rule:nonzero;stroke:none"
         id="path3292" />
      <path
         inkscape:connector-curvature="0"
         d="m 597.41232,582.88375 c 34.76125,-21.1475 76.72375,-15.63 93.73125,12.32375 17.00125,27.95 2.6075,67.74875 -32.15875,88.89625 -34.76,21.1475 -76.72375,15.63 -93.725,-12.31875 -17.0075,-27.95375 -2.6075,-67.75375 32.1525,-88.90125 z"
         style="fill:#800000;fill-opacity:1;fill-rule:nonzero;stroke:none"
         id="path3294" />
      <path
         inkscape:connector-curvature="0"
         d="m 597.15857,590.2025 c 30.9725,-18.8375 68.365,-13.925 83.51625,10.98125 15.14625,24.9025 2.31875,60.36625 -28.6525,79.21 -30.97125,18.8425 -68.36375,13.925 -83.51125,-10.9775 C 553.35982,644.51 566.18732,609.045 597.15857,590.2025 z"
         style="fill:#ffcc00;fill-opacity:1;fill-rule:nonzero;stroke:none"
         id="path3296" />
      <path
         inkscape:connector-curvature="0"
         d="m 592.36357,609.91 c 22.80875,-13.8725 50.3375,-10.25375 61.495,8.08625 11.1575,18.33875 1.71375,44.4525 -21.09375,58.325 -22.8075,13.87625 -50.3425,10.25875 -61.49875,-8.08125 -11.1525,-18.34 -1.71,-44.45375 21.0975,-58.33 z"
         style="fill:#ff6600;fill-opacity:1;fill-rule:nonzero;stroke:none"
         id="path3298" />
      <path
         inkscape:connector-curvature="0"
         d="m 587.88232,630.35375 c 14.965,-9.10625 33.02625,-6.7275 40.34625,5.30375 7.31875,12.03125 1.1225,29.165 -13.8375,38.26625 -14.96625,9.10125 -33.0275,6.72875 -40.3475,-5.3025 -7.31875,-12.03125 -1.1225,-29.165 13.83875,-38.2675 z"
         style="fill:#ffffff;fill-opacity:1;fill-rule:nonzero;stroke:none"
         id="path3300" />
      <path
         inkscape:connector-curvature="0"
         d="m 479.76607,678.08875 c -34.76,21.1475 -76.72375,15.63 -93.73,-12.32 -17.0025,-27.94875 -2.6075,-67.75375 32.15375,-88.90125 34.765,-21.1425 76.7275,-15.63 93.73,12.325 17.00625,27.94875 2.6075,67.75375 -32.15375,88.89625 z"
         style="fill:#808000;fill-opacity:1;fill-rule:nonzero;stroke:none"
         id="path3302" />
      <path
         inkscape:connector-curvature="0"
         d="m 480.01982,670.76875 c -30.97125,18.84375 -68.36375,13.92625 -83.515,-10.97625 -15.14625,-24.9075 -2.32,-60.37125 28.6525,-79.20875 30.97125,-18.8425 68.35875,-13.92625 83.51,10.97625 15.1525,24.9075 2.325,60.36625 -28.6475,79.20875 z"
         style="fill:#552200;fill-opacity:1;fill-rule:nonzero;stroke:none"
         id="path3304" />
      <path
         inkscape:connector-curvature="0"
         d="m 484.81482,651.0625 c -22.8075,13.87625 -50.34125,10.25375 -61.49375,-8.08125 -11.1575,-18.34 -1.71375,-44.45375 21.09375,-58.33 22.8075,-13.8725 50.3425,-10.25375 61.49875,8.08625 11.1525,18.33875 1.70875,44.4525 -21.09875,58.325 z"
         style="fill:#008000;fill-opacity:1;fill-rule:nonzero;stroke:none"
         id="path3306" />
      <path
         inkscape:connector-curvature="0"
         d="m 489.29732,630.6225 c -14.965,9.10125 -33.03125,6.72875 -40.35125,-5.3025 -7.31875,-12.03125 -1.1175,-29.165 13.8425,-38.27125 14.96625,-9.10125 33.0275,-6.72375 40.3475,5.3075 7.31875,12.03125 1.1225,29.165 -13.83875,38.26625 z"
         style="fill:#552200;fill-opacity:1;fill-rule:nonzero;stroke:none"
         id="path3308" />
      <path
         inkscape:connector-curvature="0"
         d="m 661.99357,418.69875 c -34.76125,-21.1475 -76.72375,-15.63 -93.72625,12.32 -17.00625,27.95375 -2.6075,67.75375 32.15375,88.90125 34.76,21.1475 76.72375,15.63 93.725,-12.32 17.0075,-27.95375 2.6075,-67.75375 -32.1525,-88.90125 z"
         style="fill:#008080;fill-opacity:1;fill-rule:nonzero;stroke:none"
         id="path3310" />
      <path
         inkscape:connector-curvature="0"
         d="M 662.24732,426.01875 C 631.27482,407.18 593.88232,412.0925 578.73607,437 c -15.15125,24.9025 -2.32375,60.36625 28.6475,79.20875 30.97125,18.8375 68.36375,13.92625 83.51125,-10.98125 15.15125,-24.9025 2.32375,-60.36625 -28.6475,-79.20875 z"
         style="fill:#ffffff;fill-opacity:1;fill-rule:nonzero;stroke:none"
         id="path3312" />
      <path
         inkscape:connector-curvature="0"
         d="m 667.04232,445.725 c -22.8075,-13.87125 -50.3375,-10.25375 -61.495,8.08625 -11.15625,18.34 -1.70875,44.4525 21.09875,58.325 22.8025,13.8775 50.3375,10.25375 61.495,-8.08125 11.15625,-18.34 1.70875,-44.4525 -21.09875,-58.33 z"
         style="fill:#552200;fill-opacity:1;fill-rule:nonzero;stroke:none"
         id="path3314" />
      <path
         inkscape:connector-curvature="0"
         d="m 671.52482,466.165 c -14.96625,-9.10125 -33.0275,-6.72375 -40.3475,5.3075 -7.31875,12.03125 -1.1225,29.165 13.83875,38.26625 14.965,9.10125 33.03125,6.72875 40.35125,-5.3025 7.31875,-12.03125 1.1175,-29.165 -13.8425,-38.27125 z"
         style="fill:#ffffff;fill-opacity:1;fill-rule:nonzero;stroke:none"
         id="path3316" />
      <path
         inkscape:connector-curvature="0"
         d="m 427.21232,417.4975 c 34.76125,-21.1475 76.72375,-15.63 93.73125,12.32 17.00125,27.95375 2.6075,67.75375 -32.15375,88.90125 -34.765,21.1425 -76.72875,15.63 -93.73,-12.325 -17.0075,-27.94875 -2.6075,-67.75375 32.1525,-88.89625 z"
         style="fill:#ff6600;fill-opacity:1;fill-rule:nonzero;stroke:none"
         id="path3318" />
      <path
         inkscape:connector-curvature="0"
         d="m 426.95857,424.8175 c 30.9725,-18.84375 68.365,-13.92625 83.51625,10.97625 15.14625,24.9075 2.31875,60.37125 -28.6525,79.20875 -30.9725,18.8425 -68.36,13.92625 -83.51125,-10.97625 -15.15125,-24.9025 -2.32375,-60.36625 28.6475,-79.20875 z"
         style="fill:#552200;fill-opacity:1;fill-rule:nonzero;stroke:none"
         id="path3320" />
      <path
         inkscape:connector-curvature="0"
         d="m 422.16357,444.52375 c 22.8075,-13.87625 50.3425,-10.25375 61.495,8.08625 11.15625,18.335 1.71375,44.44875 -21.09375,58.325 -22.8075,13.8725 -50.3425,10.25375 -61.5,-8.08625 -11.1525,-18.33875 -1.70875,-44.4525 21.09875,-58.325 z"
         style="fill:#ffcc00;fill-opacity:1;fill-rule:nonzero;stroke:none"
         id="path3322" />
      <path
         inkscape:connector-curvature="0"
         d="m 417.68107,464.96375 c 14.96625,-9.10125 33.0325,-6.72875 40.3525,5.3025 7.31875,12.03625 1.1175,29.165 -13.84375,38.27125 -14.965,9.10125 -33.0275,6.72875 -40.34625,-5.3075 -7.31875,-12.03125 -1.1225,-29.165 13.8375,-38.26625 z"
         style="fill:#552200;fill-opacity:1;fill-rule:nonzero;stroke:none"
         id="path3324" />
      <path
         inkscape:connector-curvature="0"
         d="m 482.77482,262.4975 c -34.76125,-21.1425 -76.72875,-15.63 -93.73125,12.325 -17.00125,27.94875 -2.6075,67.75375 32.15375,88.89625 34.765,21.1475 76.72875,15.63 93.73,-12.32 17.0025,-27.95375 2.6075,-67.75375 -32.1525,-88.90125 z"
         style="fill:#800000;fill-opacity:1;fill-rule:nonzero;stroke:none"
         id="path3326" />
      <path
         inkscape:connector-curvature="0"
         d="m 483.02857,269.8225 c -30.9775,-18.84375 -68.365,-13.92625 -83.51625,10.97625 -15.15125,24.9025 -2.32375,60.36625 28.6525,79.20875 30.97125,18.8425 68.36,13.92625 83.51125,-10.97625 15.15125,-24.9075 2.32375,-60.37125 -28.6475,-79.20875 z"
         style="fill:#ffcc00;fill-opacity:1;fill-rule:nonzero;stroke:none"
         id="path3328" />
      <path
         inkscape:connector-curvature="0"
         d="m 487.82357,289.52875 c -22.8075,-13.87625 -50.3425,-10.25875 -61.495,8.08125 -11.15625,18.34 -1.71375,44.45375 21.09375,58.33 22.8075,13.8725 50.3425,10.25375 61.495,-8.08625 11.15625,-18.34 1.71375,-44.4525 -21.09375,-58.325 z"
         style="fill:#ff6600;fill-opacity:1;fill-rule:nonzero;stroke:none"
         id="path3330" />
      <path
         inkscape:connector-curvature="0"
         d="m 492.30107,309.96875 c -14.96125,-9.1025 -33.0275,-6.72875 -40.3475,5.3025 -7.31875,12.03125 -1.1225,29.165 13.84375,38.26625 14.965,9.10625 33.02625,6.72875 40.34625,-5.3025 7.31875,-12.03125 1.1225,-29.165 -13.8425,-38.26625 z"
         style="fill:#ffffff;fill-opacity:1;fill-rule:nonzero;stroke:none"
         id="path3332" />
      <path
         inkscape:connector-curvature="0"
         d="m 600.42107,357.7075 c 34.76,21.1425 76.72375,15.63 93.725,-12.32375 17.0075,-27.95 2.6075,-67.75375 -32.1525,-88.89625 -34.76125,-21.1475 -76.72375,-15.63 -93.72625,12.31875 -17.00625,27.94875 -2.6075,67.75375 32.15375,88.90125 z"
         style="fill:#808000;fill-opacity:1;fill-rule:nonzero;stroke:none"
         id="path3334" />
      <path
         inkscape:connector-curvature="0"
         d="m 600.16732,350.38375 c 30.97125,18.8425 68.36375,13.925 83.51,-10.97625 15.15125,-24.9075 2.325,-60.36625 -28.6475,-79.21 -30.97125,-18.8425 -68.36375,-13.925 -83.51,10.9775 -15.15125,24.90625 -2.325,60.37 28.6475,79.20875 z"
         style="fill:#552200;fill-opacity:1;fill-rule:nonzero;stroke:none"
         id="path3336" />
      <path
         inkscape:connector-curvature="0"
         d="m 595.37232,330.67625 c 22.8075,13.8775 50.33625,10.25875 61.49375,-8.08125 11.1575,-18.34 1.70875,-44.4525 -21.09875,-58.33 -22.8025,-13.87125 -50.33625,-10.25375 -61.49375,8.08625 -11.1575,18.34 -1.70875,44.4525 21.09875,58.325 z"
         style="fill:#008000;fill-opacity:1;fill-rule:nonzero;stroke:none"
         id="path3338" />
      <path
         inkscape:connector-curvature="0"
         d="m 590.88982,310.2375 c 14.965,9.10125 33.0275,6.7275 40.34625,-5.30375 7.32,-12.03125 1.12375,-29.165 -13.8375,-38.26625 -14.96625,-9.10625 -33.0325,-6.72875 -40.35125,5.3025 -7.32,12.03125 -1.11875,29.165 13.8425,38.2675 z"
         style="fill:#552200;fill-opacity:1;fill-rule:nonzero;stroke:none"
         id="path3340" />
      <path
         inkscape:connector-curvature="0"
         d="m 418.18982,98.31375 c 34.765,-21.1475 76.7275,-15.63 93.73,12.32375 17.00625,27.94875 2.6075,67.74875 -32.15375,88.89625 -34.76,21.1475 -76.72375,15.63 -93.73,-12.31875 -17.0025,-27.955 -2.6075,-67.755 32.15375,-88.90125 z"
         style="fill:#008080;fill-opacity:1;fill-rule:nonzero;stroke:none"
         id="path3342" />
      <path
         inkscape:connector-curvature="0"
         d="m 417.93982,105.6325 c 30.9725,-18.8375 68.36,-13.92625 83.51125,10.98125 15.15125,24.9025 2.32375,60.36625 -28.6475,79.20875 -30.97625,18.84375 -68.36375,13.92625 -83.51625,-10.98125 -15.14625,-24.9025 -2.32375,-60.36625 28.6525,-79.20875 z"
         style="fill:#ffffff;fill-opacity:1;fill-rule:nonzero;stroke:none"
         id="path3344" />
      <path
         inkscape:connector-curvature="0"
         d="m 413.14107,125.34 c 22.8075,-13.8725 50.34125,-10.255 61.49875,8.085 11.1575,18.34 1.70875,44.45375 -21.09875,58.32625 -22.8075,13.87625 -50.3375,10.25375 -61.49375,-8.08125 -11.1575,-18.34 -1.71,-44.45375 21.09375,-58.33 z"
         style="fill:#552200;fill-opacity:1;fill-rule:nonzero;stroke:none"
         id="path3346" />
      <path
         inkscape:connector-curvature="0"
         d="m 408.66232,145.78375 c 14.96125,-9.10625 33.0275,-6.72875 40.3475,5.3025 7.31875,12.03125 1.1225,29.165 -13.8425,38.2675 -14.96125,9.10125 -33.0275,6.7275 -40.3475,-5.30375 -7.31875,-12.03125 -1.1225,-29.165 13.8425,-38.26625 z"
         style="fill:#ffffff;fill-opacity:1;fill-rule:nonzero;stroke:none"
         id="path3348" />
      <path
         inkscape:connector-curvature="0"
         d="m 652.97482,97.1125 c -34.76125,-21.1475 -76.72875,-15.63 -93.73125,12.31875 -17.00125,27.95375 -2.6075,67.75375 32.15375,88.90125 34.76125,21.1475 76.72875,15.63 93.73,-12.32375 17.0025,-27.95 2.6075,-67.74875 -32.1525,-88.89625 z"
         style="fill:#ff6600;fill-opacity:1;fill-rule:nonzero;stroke:none"
         id="path3350" />
      <path
         inkscape:connector-curvature="0"
         d="m 653.22357,104.43125 c -30.97125,-18.8425 -68.36,-13.92625 -83.51125,10.97625 -15.15125,24.9075 -2.32375,60.37125 28.6475,79.21375 30.9775,18.83875 68.365,13.92625 83.51625,-10.98125 15.15125,-24.9025 2.32375,-60.36625 -28.6525,-79.20875 z"
         style="fill:#552200;fill-opacity:1;fill-rule:nonzero;stroke:none"
         id="path3352" />
      <path
         inkscape:connector-curvature="0"
         d="m 658.02357,124.13875 c -22.8075,-13.8725 -50.3425,-10.25375 -61.49875,8.085 -11.1525,18.335 -1.71,44.45375 21.0975,58.32625 22.80875,13.87125 50.3425,10.25375 61.495,-8.08625 11.1575,-18.335 1.71375,-44.45375 -21.09375,-58.325 z"
         style="fill:#ffcc00;fill-opacity:1;fill-rule:nonzero;stroke:none"
         id="path3354" />
      <path
         inkscape:connector-curvature="0"
         d="m 662.50107,144.5775 c -14.96125,-9.10125 -33.0275,-6.72875 -40.3475,5.3025 -7.31875,12.03625 -1.1225,29.17 13.84375,38.2725 14.96,9.10125 33.0275,6.7275 40.34625,-5.30375 7.31875,-12.035 1.1225,-29.165 -13.8425,-38.27125 z"
         style="fill:#552200;fill-opacity:1;fill-rule:nonzero;stroke:none"
         id="path3356" />
      <g
         transform="translate(-0.51209979,0)"
         id="text3137"
         style="font-size:90px;font-style:normal;font-variant:normal;font-weight:normal;font-stretch:normal;text-align:start;line-height:125%;letter-spacing:0px;word-spacing:0px;writing-mode:lr-tb;text-anchor:start;fill:#005544;fill-opacity:1;stroke:none;font-family:Chicago;-inkscape-font-specification:Chicago">
        <g
           id="g3251">
          <g
             style="font-size:90px;font-style:normal;font-variant:normal;font-weight:normal;font-stretch:normal;text-align:start;line-height:125%;letter-spacing:0px;word-spacing:0px;writing-mode:lr-tb;text-anchor:start;fill:#93ac9d;fill-opacity:1;stroke:none;font-family:Chicago;-inkscape-font-specification:Chicago"
             id="text3141">
            <path
               inkscape:connector-curvature="0"
               d="m 64.706417,834.62085 0,-52.51465 c -7e-6,-4.1015 1.464835,-7.61713 4.394531,-10.54687 2.95897,-2.95892 6.48924,-4.43841 10.590821,-4.43848 l 15.029297,0 c 4.10152,7e-5 7.617144,1.47956 10.546874,4.43848 2.95893,2.95904 4.43842,6.47466 4.43848,10.54687 l 0,52.51465 -14.985354,0 0,-30.01465 -15.029297,0 0,30.01465 -14.985352,0 m 14.985352,-37.48535 15.029297,0 0,-15.0293 c -3.8e-5,-2.05073 -0.747108,-3.80854 -2.241211,-5.27344 -1.464878,-1.46478 -3.222689,-2.1972 -5.273438,-2.19726 -2.050809,6e-5 -3.823268,0.73248 -5.317383,2.19726 -1.464867,1.4649 -2.197288,3.22271 -2.197265,5.27344 l 0,15.0293"
               id="path3217" />
            <path
               inkscape:connector-curvature="0"
               d="m 124.64782,834.62085 0,-67.5 30.01465,0 c 4.10152,7e-5 7.61714,1.47956 10.54688,4.43848 2.95893,2.95904 4.43842,6.47466 4.43847,10.54687 l 0,4.08692 c -5e-5,3.33988 -1.15727,6.56254 -3.47168,9.66796 -2.2852,3.10551 -6.12309,4.65824 -11.51367,4.65821 l 7.4707,0 c 2.05074,3e-5 3.80855,0.7471 5.27344,2.24121 1.49409,1.46487 2.24116,3.22268 2.24121,5.27344 l 0,26.58691 -14.98535,0 0,-22.5 c -4e-5,-2.05076 -0.74711,-3.80857 -2.24121,-5.27344 -1.46488,-1.49411 -3.22269,-2.24118 -5.27344,-2.24121 l -7.51465,0 0,30.01465 -14.98535,0 m 14.98535,-37.48535 7.51465,0 c 2.05075,4e-5 3.80856,-0.73239 5.27344,-2.19727 1.4941,-1.4941 2.24117,-3.26656 2.24121,-5.31738 l 0,-7.51465 c -4e-5,-2.05073 -0.74711,-3.80854 -2.24121,-5.27344 -1.46488,-1.46478 -3.22269,-2.1972 -5.27344,-2.19726 l -7.51465,0 0,22.5"
               id="path3219" />
            <path
               inkscape:connector-curvature="0"
               d="m 192.05993,834.62085 0,-59.98535 -14.98535,0 0,-7.51465 45,0 0,7.51465 -14.98535,0 0,59.98535 -15.0293,0"
               id="path3221" />
            <path
               inkscape:connector-curvature="0"
               d="m 229.41345,834.62085 0,-67.5 37.48535,0 0,7.51465 -22.5,0 0,22.5 15.0293,0 0,7.4707 -15.0293,0 0,22.5 22.5,0 0,7.51465 -37.48535,0"
               id="path3223" />
            <path
               inkscape:connector-curvature="0"
               d="m 342.04528,767.12085 14.98536,0 0,41.87988 c -6e-5,6.97268 -2.51959,12.99318 -7.5586,18.06153 -5.0098,5.03906 -11.03031,7.55859 -18.06152,7.55859 l -19.37988,0 0,-67.5 14.98535,0 0,59.98535 7.51465,0 c 2.08004,1e-5 3.8525,-0.73241 5.31738,-2.19726 1.46481,-1.49413 2.19723,-3.25194 2.19726,-5.27344 l 0,-52.51465"
               id="path3225" />
            <path
               inkscape:connector-curvature="0"
               d="m 379.44275,834.62085 0,-67.5 14.98535,0 0,67.5 -14.98535,0"
               id="path3227" />
            <path
               inkscape:connector-curvature="0"
               d="m 416.97204,834.62085 0,-67.5 3.42774,0 41.57226,37.48535 0,-37.48535 7.51465,0 0,67.5 -3.42773,0 -41.57227,-37.48535 0,37.48535 -7.51465,0"
               id="path3229" />
            <path
               inkscape:connector-curvature="0"
               d="m 491.94275,834.62085 0,-59.98535 -14.98536,0 0,-7.51465 45,0 0,7.51465 -14.98535,0 0,59.98535 -15.02929,0"
               id="path3231" />
            <path
               inkscape:connector-curvature="0"
               d="m 529.29626,834.62085 0,-52.51465 c -10e-6,-4.1015 1.46484,-7.61713 4.39453,-10.54687 2.95897,-2.95892 6.48924,-4.43841 10.59082,-4.43848 l 15.0293,0 c 4.10152,7e-5 7.61714,1.47956 10.54687,4.43848 2.95894,2.95904 4.43843,6.47466 4.43848,10.54687 l 0,52.51465 -14.98535,0 0,-30.01465 -15.0293,0 0,30.01465 -14.98535,0 m 14.98535,-37.48535 15.0293,0 0,-15.0293 c -4e-5,-2.05073 -0.74711,-3.80854 -2.24121,-5.27344 -1.46488,-1.46478 -3.22269,-2.1972 -5.27344,-2.19726 -2.05081,6e-5 -3.82327,0.73248 -5.31738,2.19726 -1.46487,1.4649 -2.19729,3.22271 -2.19727,5.27344 l 0,15.0293"
               id="path3233" />
            <path
               inkscape:connector-curvature="0"
               d="m 611.73767,797.1355 22.5,0 0,22.5 c -6e-5,4.98048 -1.59673,8.73047 -4.79004,11.25 -3.19341,2.49023 -6.59184,3.73535 -10.19531,3.73535 l -15.0293,0 c -4.10158,0 -7.63185,-1.46484 -10.59082,-4.39453 -2.9297,-2.95898 -4.39454,-6.48925 -4.39453,-10.59082 l 0,-37.5293 c -10e-6,-4.04291 1.45018,-7.54388 4.35058,-10.50293 2.90038,-2.98821 6.4453,-4.48235 10.63477,-4.48242 l 15.0293,0 c 9.43354,7e-5 14.42865,4.99518 14.98535,14.98535 l -7.51465,0 c -0.58598,-4.98041 -3.07622,-7.47064 -7.4707,-7.4707 l -7.51465,0 c -2.05081,6e-5 -3.82327,0.73248 -5.31739,2.19726 -1.46486,1.4649 -2.19728,3.22271 -2.19726,5.27344 l 0,37.5293 c -2e-5,2.08009 0.7324,3.85255 2.19726,5.31738 1.49412,1.43556 3.26658,2.15333 5.31739,2.15332 4.77535,-0.23437 7.28023,-2.7246 7.51465,-7.4707 l 0,-15.0293 -7.51465,0 0,-7.4707"
               id="path3235" />
            <path
               inkscape:connector-curvature="0"
               d="m 649.17907,834.62085 0,-67.5 37.48535,0 0,7.51465 -22.5,0 0,22.5 15.0293,0 0,7.4707 -15.0293,0 0,22.5 22.5,0 0,7.51465 -37.48535,0"
               id="path3237" />
          </g>
          <path
             inkscape:connector-curvature="0"
             d="m 58.454262,831.10791 0,-52.51465 c -8e-6,-4.1015 1.464835,-7.61713 4.394531,-10.54687 2.95897,-2.95892 6.489239,-4.43841 10.59082,-4.43848 l 15.029297,0 c 4.101521,7e-5 7.617143,1.47956 10.546875,4.43848 2.958935,2.95904 4.438425,6.47466 4.438475,10.54687 l 0,52.51465 -14.98535,0 0,-30.01465 -15.029297,0 0,30.01465 -14.985351,0 m 14.985351,-37.48535 15.029297,0 0,-15.0293 c -3.7e-5,-2.05072 -0.747107,-3.80854 -2.241211,-5.27344 -1.464877,-1.46478 -3.222688,-2.1972 -5.273437,-2.19726 -2.050809,6e-5 -3.823269,0.73248 -5.317383,2.19726 -1.464867,1.4649 -2.197288,3.22272 -2.197266,5.27344 l 0,15.0293"
             id="path3194" />
          <path
             inkscape:connector-curvature="0"
             d="m 118.39567,831.10791 0,-67.5 30.01465,0 c 4.10152,7e-5 7.61714,1.47956 10.54687,4.43848 2.95893,2.95904 4.43843,6.47466 4.43848,10.54687 l 0,4.08692 c -5e-5,3.33988 -1.15728,6.56254 -3.47168,9.66796 -2.2852,3.10551 -6.12309,4.65824 -11.51367,4.65821 l 7.4707,0 c 2.05073,3e-5 3.80854,0.7471 5.27344,2.24121 1.49409,1.46487 2.24116,3.22268 2.24121,5.27344 l 0,26.58691 -14.98535,0 0,-22.5 c -4e-5,-2.05076 -0.74711,-3.80857 -2.24121,-5.27344 -1.46488,-1.49411 -3.22269,-2.24118 -5.27344,-2.24121 l -7.51465,0 0,30.01465 -14.98535,0 m 14.98535,-37.48535 7.51465,0 c 2.05075,4e-5 3.80856,-0.73239 5.27344,-2.19727 1.4941,-1.4941 2.24117,-3.26656 2.24121,-5.31738 l 0,-7.51465 c -4e-5,-2.05072 -0.74711,-3.80854 -2.24121,-5.27344 -1.46488,-1.46478 -3.22269,-2.1972 -5.27344,-2.19726 l -7.51465,0 0,22.5"
             id="path3196" />
          <path
             inkscape:connector-curvature="0"
             d="m 185.80778,831.10791 0,-59.98535 -14.98535,0 0,-7.51465 45,0 0,7.51465 -14.98536,0 0,59.98535 -15.02929,0"
             id="path3198" />
          <path
             inkscape:connector-curvature="0"
             d="m 223.16129,831.10791 0,-67.5 37.48535,0 0,7.51465 -22.5,0 0,22.5 15.0293,0 0,7.4707 -15.0293,0 0,22.5 22.5,0 0,7.51465 -37.48535,0"
             id="path3200" />
          <path
             inkscape:connector-curvature="0"
             d="m 335.79313,763.60791 14.98535,0 0,41.87988 c -5e-5,6.97268 -2.51958,12.99318 -7.55859,18.06153 -5.00981,5.03906 -11.03031,7.55859 -18.06153,7.55859 l -19.37988,0 0,-67.5 14.98535,0 0,59.98535 7.51465,0 c 2.08005,10e-6 3.85251,-0.73241 5.31738,-2.19726 1.46481,-1.49413 2.19723,-3.25194 2.19727,-5.27344 l 0,-52.51465"
             id="path3202" />
          <path
             inkscape:connector-curvature="0"
             d="m 373.19059,831.10791 0,-67.5 14.98535,0 0,67.5 -14.98535,0"
             id="path3204" />
          <path
             inkscape:connector-curvature="0"
             d="m 410.71989,831.10791 0,-67.5 3.42773,0 41.57227,37.48535 0,-37.48535 7.51465,0 0,67.5 -3.42774,0 -41.57226,-37.48535 0,37.48535 -7.51465,0"
             id="path3206" />
          <path
             inkscape:connector-curvature="0"
             d="m 485.69059,831.10791 0,-59.98535 -14.98535,0 0,-7.51465 45,0 0,7.51465 -14.98535,0 0,59.98535 -15.0293,0"
             id="path3208" />
          <path
             inkscape:connector-curvature="0"
             d="m 523.04411,831.10791 0,-52.51465 c -1e-5,-4.1015 1.46483,-7.61713 4.39453,-10.54687 2.95897,-2.95892 6.48924,-4.43841 10.59082,-4.43848 l 15.02929,0 c 4.10152,7e-5 7.61715,1.47956 10.54688,4.43848 2.95893,2.95904 4.43842,6.47466 4.43848,10.54687 l 0,52.51465 -14.98536,0 0,-30.01465 -15.02929,0 0,30.01465 -14.98535,0 m 14.98535,-37.48535 15.02929,0 0,-15.0293 c -3e-5,-2.05072 -0.7471,-3.80854 -2.24121,-5.27344 -1.46487,-1.46478 -3.22269,-2.1972 -5.27343,-2.19726 -2.05081,6e-5 -3.82327,0.73248 -5.31739,2.19726 -1.46486,1.4649 -2.19729,3.22272 -2.19726,5.27344 l 0,15.0293"
             id="path3210" />
          <path
             inkscape:connector-curvature="0"
             d="m 605.48551,793.62256 22.5,0 0,22.5 c -5e-5,4.98048 -1.59673,8.73047 -4.79004,11.25 -3.1934,2.49023 -6.59184,3.73535 -10.19531,3.73535 l -15.0293,0 c -4.10158,0 -7.63185,-1.46484 -10.59082,-4.39453 -2.92969,-2.95898 -4.39454,-6.48925 -4.39453,-10.59082 l 0,-37.5293 c -10e-6,-4.04291 1.45019,-7.54388 4.35059,-10.50293 2.90037,-2.98821 6.44529,-4.48235 10.63476,-4.48242 l 15.0293,0 c 9.43355,7e-5 14.42866,4.99518 14.98535,14.98535 l -7.51465,0 c -0.58598,-4.98041 -3.07621,-7.47064 -7.4707,-7.4707 l -7.51465,0 c -2.05081,6e-5 -3.82327,0.73248 -5.31738,2.19726 -1.46487,1.4649 -2.19729,3.22272 -2.19727,5.27344 l 0,37.5293 c -2e-5,2.08009 0.7324,3.85255 2.19727,5.31738 1.49411,1.43556 3.26657,2.15333 5.31738,2.15332 4.77536,-0.23437 7.28024,-2.7246 7.51465,-7.4707 l 0,-15.0293 -7.51465,0 0,-7.4707"
             id="path3212" />
          <path
             inkscape:connector-curvature="0"
             d="m 642.92692,831.10791 0,-67.5 37.48535,0 0,7.51465 -22.5,0 0,22.5 15.0293,0 0,7.4707 -15.0293,0 0,22.5 22.5,0 0,7.51465 -37.48535,0"
             id="path3214" />
        </g>
      </g>
      <g
         id="text3158"
         style="font-size:100px;font-style:normal;font-variant:normal;font-weight:normal;font-stretch:normal;text-align:start;line-height:125%;letter-spacing:0px;word-spacing:0px;writing-mode:lr-tb;text-anchor:start;fill:#552200;fill-opacity:1;stroke:none;font-family:Market Deco;-inkscape-font-specification:Market Deco">
        <path
           id="path3189"
           style="fill:#552200;fill-opacity:1"
           d="m 285.32849,958.3775 c 2.27864,-2.01816 4.78514,-3.7597 7.51953,-5.22461 4.42707,-2.37623 8.70766,-3.45044 12.8418,-3.22265 4.13408,0.19538 7.55205,1.41608 10.25391,3.66211 2.66923,2.24616 4.45959,5.40371 5.37109,9.47265 0.74865,3.38548 0.83003,7.16151 0.24414,11.32813 -1.04171,10.83988 -9.04951,23.32359 -24.02344,37.45117 l 25.73242,0 0,10.7422 -39.79492,0 0,-10.7422 c 16.7643,-16.60154 25.83005,-29.08525 27.19727,-37.45117 0.42314,-2.14839 0.45569,-4.03641 0.0976,-5.66407 -0.52086,-2.31114 -1.52998,-4.1015 -3.02734,-5.37109 -1.52998,-1.26947 -3.46682,-1.7903 -5.81055,-1.5625 -2.31122,0.19537 -4.72007,0.96035 -7.22656,2.29492 -2.44142,1.3347 -4.57358,3.04368 -6.39648,5.12696 l -2.97852,-10.69336 0,-0.14649" />
        <path
           id="path3191"
           style="fill:#552200;fill-opacity:1"
           d="m 357.30115,950.32086 c 2.76689,7e-5 5.48499,0.7976 8.15429,2.39258 2.70179,1.59512 5.04554,3.82494 7.03125,6.68945 2.2786,3.19017 4.02014,7.12897 5.22461,11.81641 1.20438,4.65499 1.80659,9.76567 1.80664,15.33203 -5e-5,5.46878 -0.61853,10.53063 -1.85546,15.18557 -1.20448,4.6549 -2.92974,8.5775 -5.17579,11.7676 -1.95316,2.8645 -4.28063,5.0944 -6.98242,6.6894 -2.70185,1.5951 -5.43623,2.3926 -8.20312,2.3926 -2.79951,0 -5.55016,-0.7975 -8.25196,-2.3926 -2.70184,-1.595 -5.02931,-3.8249 -6.98242,-6.6894 -2.2461,-3.1901 -3.98764,-7.1127 -5.22461,-11.7676 -1.20443,-4.65494 -1.80664,-9.71679 -1.80664,-15.18557 0,-5.56636 0.60221,-10.67704 1.80664,-15.33203 1.20442,-4.68744 2.94596,-8.62624 5.22461,-11.81641 2.01822,-2.86451 4.36196,-5.09433 7.03125,-6.68945 2.66925,-1.59498 5.40362,-2.39251 8.20313,-2.39258 m -0.0488,10.98633 c -2.92971,6e-5 -5.37112,1.8067 -7.32422,5.41992 -1.17189,2.37636 -2.1159,5.32232 -2.83203,8.83789 -0.71616,3.48312 -1.07424,7.11267 -1.07422,10.88867 -2e-5,3.71097 0.34178,7.32425 1.02539,10.83985 0.71613,3.48308 1.67641,6.42908 2.88086,8.83788 1.9531,3.6459 4.39451,5.4688 7.32422,5.4688 2.96221,0 5.41989,-1.8229 7.37305,-5.4688 1.17183,-2.3763 2.11584,-5.3222 2.83203,-8.83788 0.7161,-3.5156 1.07418,-7.12888 1.07422,-10.83985 -4e-5,-3.776 -0.35812,-7.40555 -1.07422,-10.88867 -0.71619,-3.51557 -1.6602,-6.46153 -2.83203,-8.83789 -1.98571,-3.61322 -4.44339,-5.41986 -7.37305,-5.41992" />
        <path
           id="path3193"
           style="fill:#552200;fill-opacity:1"
           d="m 386.30505,950.36969 18.75,0 0,72.21681 -10.98632,0 0,-60.93751 -7.86133,0 0.0976,-11.2793" />
        <path
           id="path3195"
           style="fill:#552200;fill-opacity:1"
           d="m 433.61951,978.29938 1.5625,0 0.19531,0 c 0.16274,4e-5 0.34177,-0.0162 0.53711,-0.0488 1.30206,-0.0976 2.55531,-0.47196 3.75976,-1.12305 1.43227,-0.7812 2.53904,-1.85542 3.32032,-3.22265 0.81377,-1.36714 1.22067,-2.78316 1.2207,-4.24805 -3e-5,-1.49734 -0.40693,-2.94591 -1.2207,-4.3457 -0.81384,-1.39968 -1.93688,-2.4739 -3.36914,-3.22266 -1.43232,-0.74864 -2.91344,-1.12299 -4.44336,-1.12305 -1.56253,6e-5 -3.05992,0.37441 -4.49219,1.12305 -0.81382,0.42324 -1.51369,0.94407 -2.09961,1.5625 l -0.0488,0.0488 -10.69336,-3.90625 c 0.0325,-0.065 0.0651,-0.13015 0.0977,-0.19531 l 0.0488,-0.0488 c 1.79035,-3.09238 4.29686,-5.46868 7.51953,-7.12891 3.25519,-1.69264 6.60805,-2.53899 10.05859,-2.53906 3.38539,7e-5 6.68942,0.84642 9.91211,2.53906 3.25517,1.66023 5.79423,4.0528 7.61719,7.17774 1.85542,3.0925 2.78316,6.33143 2.7832,9.71679 -4e-5,3.35292 -0.89522,6.55929 -2.68555,9.61914 -0.74873,1.26958 -1.59509,2.42517 -2.53906,3.4668 2.83199,1.88806 5.11063,4.29691 6.83594,7.22656 2.08328,3.61331 3.12495,7.37307 3.125,11.2793 -5e-5,3.9714 -1.05799,7.78 -3.17383,11.4258 -2.11593,3.6133 -5.06189,6.3965 -8.83789,8.3496 -3.77607,1.9206 -7.68232,2.8808 -11.71875,2.8808 -3.97137,0 -7.84507,-0.9765 -11.62109,-2.9296 -3.48309,-1.7578 -6.26629,-4.2481 -8.34961,-7.4707 -0.0326,-0.033 -0.0488,-0.065 -0.0488,-0.098 l 9.17969,-5.7617 c 1.1393,1.8229 2.66925,3.2389 4.58984,4.248 1.98566,1.0743 4.06899,1.6114 6.25,1.6114 2.14841,0 4.24802,-0.5209 6.29883,-1.5625 2.05075,-1.0742 3.62952,-2.5879 4.73633,-4.5411 1.13928,-1.9531 1.70894,-3.9876 1.70898,-6.1035 -4e-5,-2.11583 -0.5697,-4.13406 -1.70898,-6.05466 -1.10681,-1.92054 -2.68558,-3.41794 -4.73633,-4.49219 -2.01826,-1.10674 -4.11787,-1.66012 -6.29883,-1.66015 l -3.27148,0 0,-10.44922" />
      </g>
      <g
         transform="translate(0,-12.124115)"
         id="text3174"
         style="font-size:56px;font-style:normal;font-variant:normal;font-weight:bold;font-stretch:normal;text-align:start;line-height:125%;letter-spacing:0px;word-spacing:0px;writing-mode:lr-tb;text-anchor:start;fill:#552200;fill-opacity:1;stroke:none;font-family:Market Deco;-inkscape-font-specification:Market Deco Bold">
        <path
           id="path3239"
           d="m 166.61755,927.20844 0,-40.25 7.41016,0 c 5.55988,4e-5 10.29946,1.96878 14.21875,5.90625 3.93747,3.9193 5.90622,8.65887 5.90625,14.21875 -3e-5,5.54168 -1.96878,10.28125 -5.90625,14.21875 -3.91929,3.9375 -8.65887,5.90625 -14.21875,5.90625 l -7.41016,0 m 6.125,-34.15235 0,28.02735 1.28516,0 c 3.86457,0 7.16404,-1.36718 9.89844,-4.10157 2.75258,-2.73436 4.12888,-6.03384 4.1289,-9.89843 -2e-5,-3.88279 -1.37632,-7.19138 -4.1289,-9.92579 -2.7344,-2.73434 -6.03387,-4.10152 -9.89844,-4.10156 l -1.28516,0"
           inkscape:connector-curvature="0" />
        <path
           id="path3241"
           d="m 204.87146,921.76703 -2.16016,5.57812 -6.5625,0 16.24219,-42.21875 16.21484,42.21875 -6.5625,0 -2.13281,-5.57812 -15.03906,0 m 2.35156,-6.125 10.33594,0 -5.16797,-13.42578 -5.16797,13.42578"
           inkscape:connector-curvature="0" />
        <path
           id="path3243"
           d="m 252.99646,886.73969 -16.21484,42.24609 -16.24219,-42.24609 6.5625,0 9.67969,25.15625 9.65234,-25.15625 6.5625,0"
           inkscape:connector-curvature="0" />
        <path
           id="path3245"
           d="m 259.5863,886.73969 6.125,0 0,40.46875 -6.125,0 0,-40.46875"
           inkscape:connector-curvature="0" />
        <path
           id="path3247"
           d="m 272.2738,927.20844 0,-40.25 7.41016,0 c 5.55988,4e-5 10.29946,1.96878 14.21875,5.90625 3.93747,3.9193 5.90622,8.65887 5.90625,14.21875 -3e-5,5.54168 -1.96878,10.28125 -5.90625,14.21875 -3.91929,3.9375 -8.65887,5.90625 -14.21875,5.90625 l -7.41016,0 m 6.125,-34.15235 0,28.02735 1.28516,0 c 3.86457,0 7.16404,-1.36718 9.89844,-4.10157 2.75258,-2.73436 4.12888,-6.03384 4.1289,-9.89843 -2e-5,-3.88279 -1.37632,-7.19138 -4.1289,-9.92579 -2.7344,-2.73434 -6.03387,-4.10152 -9.89844,-4.10156 l -1.28516,0"
           inkscape:connector-curvature="0" />
        <path
           id="path3249"
           d="m 306.3988,886.95844 18.64844,0 0,6.125 -12.49609,0 0,14.875 12.49609,0 0,6.125 -12.49609,0 0,7 12.49609,0 0,6.125 -18.64844,0 0,-40.25"
           inkscape:connector-curvature="0" />
        <path
           id="path3251"
           d="m 350.80505,927.20844 0,-40.25 7.41016,0 c 5.55988,4e-5 10.29946,1.96878 14.21875,5.90625 3.93747,3.9193 5.90622,8.65887 5.90625,14.21875 -3e-5,5.54168 -1.96878,10.28125 -5.90625,14.21875 -3.91929,3.9375 -8.65887,5.90625 -14.21875,5.90625 l -7.41016,0 m 6.125,-34.15235 0,28.02735 1.28516,0 c 3.86457,0 7.16404,-1.36718 9.89844,-4.10157 2.75258,-2.73436 4.12888,-6.03384 4.1289,-9.89843 -2e-5,-3.88279 -1.37632,-7.19138 -4.1289,-9.92579 -2.7344,-2.73434 -6.03387,-4.10152 -9.89844,-4.10156 l -1.28516,0"
           inkscape:connector-curvature="0" />
        <path
           id="path3253"
           d="m 426.30115,906.97406 c -5e-5,2.80731 -0.54692,5.44142 -1.64063,7.90234 -1.07556,2.44272 -2.55212,4.57553 -4.42969,6.39844 -1.87764,1.82292 -4.06513,3.27214 -6.5625,4.34766 -2.49742,1.05729 -5.17711,1.58594 -8.03906,1.58594 -2.88023,0 -5.56903,-0.52865 -8.0664,-1.58594 -2.49741,-1.07552 -4.68491,-2.52474 -6.5625,-4.34766 -1.87762,-1.82291 -3.36329,-3.95572 -4.45704,-6.39844 -1.07552,-2.46092 -1.61328,-5.09503 -1.61328,-7.90234 0,-2.78904 0.53776,-5.42315 1.61328,-7.90234 1.09375,-2.49737 2.57942,-4.65752 4.45704,-6.48047 1.87759,-1.82288 4.06509,-3.26299 6.5625,-4.32031 2.49737,-1.05726 5.18617,-1.5859 8.0664,-1.58594 2.86195,4e-5 5.54164,0.52868 8.03906,1.58594 2.49737,1.05732 4.68486,2.49743 6.5625,4.32031 1.87757,1.82295 3.35413,3.9831 4.42969,6.48047 1.09371,2.47919 1.64058,5.1133 1.64063,7.90234 m -34.75391,0 c -10e-6,1.95054 0.36457,3.78257 1.09375,5.49609 0.72916,1.69533 1.73176,3.181 3.00781,4.45704 1.27603,1.25782 2.77082,2.25131 4.48438,2.98046 1.71352,0.71095 3.54555,1.06642 5.49609,1.06641 1.93227,10e-6 3.75518,-0.35546 5.46875,-1.06641 1.71351,-0.72915 3.19919,-1.72264 4.45703,-2.98046 1.27601,-1.27604 2.27861,-2.76171 3.00782,-4.45704 0.72913,-1.71352 1.09371,-3.54555 1.09375,-5.49609 -4e-5,-1.9505 -0.36462,-3.77341 -1.09375,-5.46875 -0.72921,-1.71351 -1.73181,-3.19919 -3.00782,-4.45703 -1.25784,-1.27601 -2.74352,-2.2695 -4.45703,-2.98047 -1.71357,-0.7109 -3.53648,-1.06637 -5.46875,-1.06641 -1.95054,4e-5 -3.78257,0.35551 -5.49609,1.06641 -1.71356,0.71097 -3.20835,1.70446 -4.48438,2.98047 -1.27605,1.25784 -2.27865,2.74352 -3.00781,4.45703 -0.72918,1.69534 -1.09376,3.51825 -1.09375,5.46875"
           inkscape:connector-curvature="0" />
        <path
           id="path3255"
           d="m 438.9613,912.52484 0.46485,0 c 2.73436,2e-5 5.06769,-0.96613 7,-2.89844 1.93227,-1.93227 2.89842,-4.2656 2.89843,-7 -1e-5,-2.73434 -0.96616,-5.06767 -2.89843,-7 -1.93231,-1.93225 -4.26564,-2.8984 -7,-2.89843 l -0.46485,0 0,19.79687 m 10.28125,2.70703 5.74219,12.03125 -6.5625,0 -4.34766,-9.32422 c -1.45834,0.43751 -3.00782,0.65626 -4.64843,0.65625 l -0.46485,0 0,8.61329 -6.125,0 0,-40.52344 6.58985,0 c 4.41144,4e-5 8.17576,1.55863 11.29297,4.67578 3.11716,3.11722 4.67575,6.87242 4.67578,11.26562 -3e-5,4.41148 -1.55862,8.1758 -4.67578,11.29297 -0.47398,0.47397 -0.96617,0.91147 -1.47657,1.3125"
           inkscape:connector-curvature="0" />
        <path
           id="path3257"
           d="m 461.93005,927.20844 0,-40.25 7.41016,0 c 5.55988,4e-5 10.29946,1.96878 14.21875,5.90625 3.93747,3.9193 5.90622,8.65887 5.90625,14.21875 -3e-5,5.54168 -1.96878,10.28125 -5.90625,14.21875 -3.91929,3.9375 -8.65887,5.90625 -14.21875,5.90625 l -7.41016,0 m 6.125,-34.15235 0,28.02735 1.28516,0 c 3.86457,0 7.16404,-1.36718 9.89844,-4.10157 2.75258,-2.73436 4.12888,-6.03384 4.1289,-9.89843 -2e-5,-3.88279 -1.37632,-7.19138 -4.1289,-9.92579 -2.7344,-2.73434 -6.03387,-4.10152 -9.89844,-4.10156 l -1.28516,0"
           inkscape:connector-curvature="0" />
        <path
           id="path3259"
           d="m 537.42615,906.97406 c -5e-5,2.80731 -0.54692,5.44142 -1.64063,7.90234 -1.07556,2.44272 -2.55212,4.57553 -4.42969,6.39844 -1.87764,1.82292 -4.06513,3.27214 -6.5625,4.34766 -2.49742,1.05729 -5.17711,1.58594 -8.03906,1.58594 -2.88023,0 -5.56903,-0.52865 -8.0664,-1.58594 -2.49741,-1.07552 -4.68491,-2.52474 -6.5625,-4.34766 -1.87762,-1.82291 -3.36329,-3.95572 -4.45704,-6.39844 -1.07552,-2.46092 -1.61328,-5.09503 -1.61328,-7.90234 0,-2.78904 0.53776,-5.42315 1.61328,-7.90234 1.09375,-2.49737 2.57942,-4.65752 4.45704,-6.48047 1.87759,-1.82288 4.06509,-3.26299 6.5625,-4.32031 2.49737,-1.05726 5.18617,-1.5859 8.0664,-1.58594 2.86195,4e-5 5.54164,0.52868 8.03906,1.58594 2.49737,1.05732 4.68486,2.49743 6.5625,4.32031 1.87757,1.82295 3.35413,3.9831 4.42969,6.48047 1.09371,2.47919 1.64058,5.1133 1.64063,7.90234 m -34.75391,0 c -10e-6,1.95054 0.36457,3.78257 1.09375,5.49609 0.72916,1.69533 1.73176,3.181 3.00781,4.45704 1.27603,1.25782 2.77082,2.25131 4.48438,2.98046 1.71352,0.71095 3.54555,1.06642 5.49609,1.06641 1.93227,10e-6 3.75518,-0.35546 5.46875,-1.06641 1.71351,-0.72915 3.19919,-1.72264 4.45703,-2.98046 1.27601,-1.27604 2.27861,-2.76171 3.00782,-4.45704 0.72913,-1.71352 1.09371,-3.54555 1.09375,-5.49609 -4e-5,-1.9505 -0.36462,-3.77341 -1.09375,-5.46875 -0.72921,-1.71351 -1.73181,-3.19919 -3.00782,-4.45703 -1.25784,-1.27601 -2.74352,-2.2695 -4.45703,-2.98047 -1.71357,-0.7109 -3.53648,-1.06637 -5.46875,-1.06641 -1.95054,4e-5 -3.78257,0.35551 -5.49609,1.06641 -1.71356,0.71097 -3.20835,1.70446 -4.48438,2.98047 -1.27605,1.25784 -2.27865,2.74352 -3.00781,4.45703 -0.72918,1.69534 -1.09376,3.51825 -1.09375,5.46875"
           inkscape:connector-curvature="0" />
        <path
           id="path3261"
           d="m 562.63708,910.41937 0,-23.67968 6.125,0 0,42.24609 -18.67578,-25.26563 0,23.48829 -6.125,0 0,-42.10938 18.67578,25.32031"
           inkscape:connector-curvature="0" />
        <path
           id="path3263"
           d="m 575.35193,886.73969 6.125,0 0,40.46875 -6.125,0 0,-40.46875"
           inkscape:connector-curvature="0" />
      </g>
    </g>
  </g>
</svg>
