<?xml version="1.0" encoding="UTF-8" standalone="no"?>
<!-- Created with Inkscape (http://www.inkscape.org/) -->

<svg
   xmlns:dc="http://purl.org/dc/elements/1.1/"
   xmlns:cc="http://creativecommons.org/ns#"
   xmlns:rdf="http://www.w3.org/1999/02/22-rdf-syntax-ns#"
   xmlns:svg="http://www.w3.org/2000/svg"
   xmlns="http://www.w3.org/2000/svg"
   xmlns:sodipodi="http://sodipodi.sourceforge.net/DTD/sodipodi-0.dtd"
   xmlns:inkscape="http://www.inkscape.org/namespaces/inkscape"
   sodipodi:docname="34456_MINDFULNESS_PARA_DUMMIES.svg"
   viewBox="0 0 566.30573 871.17242"
   height="871.17242"
   width="566.30573"
   xml:space="preserve"
   id="svg2"
   version="1.1"
   inkscape:version="0.92.2 (5c3e80d, 2017-08-06)"><sodipodi:namedview
     inkscape:current-layer="g10"
     inkscape:window-maximized="1"
     inkscape:window-y="24"
     inkscape:window-x="0"
     inkscape:cy="184.98139"
     inkscape:cx="819.73689"
     inkscape:zoom="0.31942228"
     showgrid="false"
     id="namedview4"
     inkscape:window-height="912"
     inkscape:window-width="1280"
     inkscape:pageshadow="2"
     inkscape:pageopacity="0"
     guidetolerance="10"
     gridtolerance="10"
     objecttolerance="10"
     borderopacity="1"
     bordercolor="#666666"
     pagecolor="#ffffff" /><metadata
     id="metadata8"><rdf:RDF><cc:Work
         rdf:about=""><dc:format>image/svg+xml</dc:format><dc:type
           rdf:resource="http://purl.org/dc/dcmitype/StillImage" /></cc:Work></rdf:RDF></metadata><defs
     id="defs6"><clipPath
       id="clipPath18"
       clipPathUnits="userSpaceOnUse"><path
         inkscape:connector-curvature="0"
         id="path16"
         d="M 0,0 H 472.205 V 698.976 H 0 Z" /></clipPath><clipPath
       id="clipPath248"
       clipPathUnits="userSpaceOnUse"><path
         inkscape:connector-curvature="0"
         id="path246"
         d="M 177.048,274.862 H 309.413 V 115.771 H 177.048 Z" /></clipPath></defs><g
     transform="matrix(1.3333333,0,0,-1.3333333,-32.136933,899.83067)"
     inkscape:label="34456_MINDFULNESS_PARA_DUMMIES"
     inkscape:groupmode="layer"
     id="g10"><path
       id="path5102"
       style="fill:#000000;stroke-width:0.14918853"
       d="m 56.614363,276.52727 c 29.52463,38.36533 58.283427,78.34358 82.769507,120.28933 12.79679,21.61308 24.76382,43.86777 35.79292,66.45072 18.58305,38.40111 34.7654,77.71718 48.09674,118.29505 5.84439,5.85461 16.24467,5.02367 20.97529,-4.40122 9.26792,-12.10903 21.71764,-26.23829 16.60727,-42.69794 -0.98573,-10.52738 -7.93518,-20.86462 -5.2198,-31.31317 8.62985,-13.89479 20.92875,-25.26097 30.20027,-38.80238 27.11918,-33.3737 53.30772,-67.64215 82.02544,-99.61766 15.61192,-18.32905 39.4114,-31.59432 47.35105,-55.56465 4.74417,-11.92656 -6.54239,-23.94686 -18.9063,-19.5139 -19.21587,2.03194 -30.32043,20.74961 -42.90862,33.19387 -42.05172,45.64558 -78.5123,96.29038 -112.22815,148.18608 -4.58443,1.21767 -8.44285,-10.71302 -12.00554,-15.26504 -9.60875,-16.30039 -19.16813,-33.50036 -35.40229,-44.3305 -5.40209,-13.6164 -18.40592,-21.92242 -25.74394,-34.39967 -7.07348,-7.70589 -12.51977,-18.92096 -23.63407,-21.03672 C 134.36688,348.96224 134.00096,333.7328 122.00939,328.39008 97.144521,315.7206 78.468263,294.21832 57.362803,276.46759 l -0.74844,0.0597 z M 283.97235,182.58268 c -5.47742,0.58042 -10.76547,3.48151 -14.79929,7.38033 -4.47462,3.41477 -8.83698,7.0204 -14.05875,9.33454 -4.89513,1.87434 -10.15972,3.5998 -13.56366,8.03068 -2.90502,2.98391 -2.84831,7.70173 2.54747,6.53886 5.67826,1.44272 4.23041,5.60347 5.27441,9.51944 2.73236,5.82583 8.68732,9.20823 13.31676,13.34882 2.55948,1.76685 5.80078,9.05042 6.68641,2.26019 5.34026,3.02534 10.60637,6.49713 16.27969,9.10347 10.3305,5.4327 21.24021,9.89405 30.93244,16.39558 4.66753,3.64387 -9.47855,0.57903 -2.81561,3.69279 5.69319,1.04167 11.20854,2.91142 17.26014,2.29753 5.55434,0.0203 11.24464,0.27109 16.42555,-1.43358 4.91573,-0.66154 9.70738,-1.77492 14.28947,-3.41663 4.02314,-1.30562 8.08838,-2.81356 11.98618,-4.8503 5.4116,-2.48537 10.96559,-5.47429 15.70643,-9.31591 4.47576,-3.23098 8.32355,-7.47932 11.14986,-12.19444 1.62604,-4.59986 2.48813,-10.07931 0.82801,-14.79674 -1.15514,-5.16383 -6.53584,-8.47942 -11.48265,-8.75754 -4.64878,-0.34099 -9.1782,0.11512 -13.25237,2.23277 -0.83374,5.19884 -6.5091,7.58915 -11.20703,9.7006 -5.03799,2.37554 -9.82718,5.94189 -12.17718,11.04332 -3.71176,2.07324 -7.70527,3.01056 -11.517,4.56052 -5.73521,0.99914 -10.56062,2.42903 -16.24077,2.29198 -8.04611,-0.0586 -16.38901,0.6656 -24.16683,-1.10631 -5.69131,-1.46933 -0.0496,6.59247 0.39413,6.66952 -5.0436,0.80973 -10.38305,-1.60826 -13.96677,-5.26415 -5.03141,-3.33458 -8.05331,-8.81356 -11.36318,-13.70282 0.69508,-2.80496 1.69724,-6.38017 -1.19038,-9.5978 5.0148,-4.39032 11.42788,-7.2641 16.27887,-12.01179 4.05596,-3.57868 6.98989,-8.1839 8.42695,-13.24129 0.68698,-5.63729 -2.76997,-11.28309 -7.62905,-14.11404 -2.67722,-0.4883 -5.8813,-0.27258 -8.35225,-0.5976 z m 19.56593,-70.95888 c -21.53421,2.08765 -39.67232,15.51374 -56.62651,27.97777 -12.88679,10.09871 -26.56862,19.7105 -36.50071,32.83279 -17.27697,10.18174 -38.43134,16.00215 -58.20139,10.8199 -8.68134,-2.98958 -16.91465,-11.28511 -14.76531,-21.23902 -1.06514,-12.26252 -1.12092,-24.64937 -2.2356,-36.90385 4.26502,-12.97032 -9.96147,-12.69329 -18.16775,-13.02734 -8.92904,5.3388 -13.38942,11.97632 -13.39581,22.31001 -1.85271,7.72127 -2.68378,14.79426 1.80997,21.8345 7.65256,19.37581 16.75541,38.93654 32.85531,52.96924 25.62264,24.02161 60.05065,35.33369 85.59839,59.47149 9.55732,9.30728 -5.75438,-0.10214 -10.16374,-1.58552 -8.58239,-4.88461 -18.36055,-9.44843 -28.50158,-9.88113 -14.49424,-0.83795 -28.48106,14.89969 -23.4891,29.57673 3.75277,11.66785 14.48726,19.51182 21.43348,29.273 5.52482,7.26346 23.7074,14.1425 16.79516,24.6015 -14.65756,5.22156 -6.90807,18.22483 4.05174,22.35989 9.87652,6.55753 20.54161,11.76213 30.88465,17.53569 12.35529,2.21104 25.27393,0.99862 37.36699,-1.1193 7.91286,-4.01042 17.37089,-11.99485 16.48361,-21.83898 -5.44091,-10.97002 -19.05352,-12.89292 -29.58731,-16.51569 -16.67188,-5.13868 -36.80688,-6.0454 -47.91479,-21.47622 -6.92479,-6.86081 -11.67188,-15.69689 0.55887,-8.81948 12.98823,5.76211 25.60391,12.62927 38.4405,18.65499 9.90574,8.02746 23.73622,6.80311 35.48009,4.4772 11.62373,-3.21318 25.98245,-10.30116 26.18813,-24.02763 -0.95658,-12.35582 -7.49506,-23.98855 -15.22674,-33.58064 -8.00235,-1.59828 -11.76664,-7.44958 -17.73258,-12.08678 -5.81154,-1.94034 -10.7202,-7.25638 -16.77793,-4.4772 -8.84697,-1.0534 -16.50821,-7.97761 -25.98244,-5.97033 -8.56396,1.24469 -14.50019,-9.73572 -23.23282,-5.96886 -13.92973,-3.49003 -24.55299,-14.15016 -37.81257,-19.21764 -1.59574,-5.69182 -16.52085,-17.15248 -3.54579,-16.67457 22.10248,-3.34642 40.06499,-16.62713 57.76345,-29.47488 17.939,-11.76822 36.15245,-23.47134 56.32648,-30.96729 18.07369,-5.80027 38.71138,-4.50819 55.08323,5.48541 -6.59487,14.67887 -21.4625,23.05861 -31.96952,34.64003 10.14021,2.73911 15.23104,-10.72541 23.8986,-13.26225 10.16998,-4.90303 22.16815,-2.34517 31.84207,-8.64134 8.82684,4.3522 15.24072,-2.66661 23.27385,-5.16336 5.40881,-4.20276 6.32368,-12.9828 7.31141,-19.55171 -8.40771,-13.38066 -23.67813,-19.5649 -37.54149,-25.51875 -17.44043,-6.3056 -35.53346,-9.71571 -54.0745,-7.83038 z"
       inkscape:connector-curvature="0" /></g></svg>