<?xml version="1.0" encoding="UTF-8" standalone="no"?>
<svg
   xmlns:dc="http://purl.org/dc/elements/1.1/"
   xmlns:cc="http://creativecommons.org/ns#"
   xmlns:rdf="http://www.w3.org/1999/02/22-rdf-syntax-ns#"
   xmlns:svg="http://www.w3.org/2000/svg"
   xmlns="http://www.w3.org/2000/svg"
   xmlns:sodipodi="http://sodipodi.sourceforge.net/DTD/sodipodi-0.dtd"
   xmlns:inkscape="http://www.inkscape.org/namespaces/inkscape"
   version="1.0"
   width="348.17001"
   height="192.89999"
   viewBox="0 0 278.53601 154.32"
   preserveAspectRatio="xMidYMid meet"
   id="svg3020"
   inkscape:version="0.48.4 r9939"
   sodipodi:docname="Ballerina_skirt.svg">
  <defs
     id="defs3030" />
  <sodipodi:namedview
     pagecolor="#ffffff"
     bordercolor="#666666"
     borderopacity="1"
     objecttolerance="10"
     gridtolerance="10"
     guidetolerance="10"
     inkscape:pageopacity="0"
     inkscape:pageshadow="2"
     inkscape:window-width="1680"
     inkscape:window-height="1000"
     id="namedview3028"
     showgrid="false"
     inkscape:zoom="1.6626339"
     inkscape:cx="386.96418"
     inkscape:cy="67.142317"
     inkscape:window-x="-8"
     inkscape:window-y="-8"
     inkscape:window-maximized="1"
     inkscape:current-layer="svg3020"
     fit-margin-top="0"
     fit-margin-left="0"
     fit-margin-right="0"
     fit-margin-bottom="0" />
  <metadata
     id="metadata3022">
Created by potrace 1.11, written by Peter Selinger 2001-2013
<rdf:RDF>
  <cc:Work
     rdf:about="">
    <dc:format>image/svg+xml</dc:format>
    <dc:type
       rdf:resource="http://purl.org/dc/dcmitype/StillImage" />
    <dc:title />
  </cc:Work>
</rdf:RDF>
</metadata>
  <path
     style="fill:#ff0000;fill-opacity:1"
     d="m 79.02409,153.46025 c -14.72195,-1.51347 -22.51637,-2.73493 -36.82648,-5.77112 -13.2797,-2.81756 -20.74488,-5.21995 -27.7962,-8.94527 -3.79889,-2.00708 -12.48992,-7.20317 -13.52825,-8.0882 L 0,129.91144 1.96153,127.08961 c 1.07885,-1.55195 5.49381,-7.99715 9.81101,-14.32259 4.3172,-6.32544 10.32574,-15.12646 13.35229,-19.55783 C 39.48759,72.17972 45.01887,64.06053 50.48731,55.98033 53.7434,51.16918 59.91591,42.09004 64.20404,35.80448 68.49217,29.51892 74.41718,20.82073 77.37073,16.47517 80.32429,12.12961 84.03745,6.73292 85.62215,4.48252 l 2.88134,-4.0916 1.82132,-0.17864 C 91.32655,0.11408 114.17851,0.02604 141.107,0.0168 L 190.06783,0 l 2.19054,3.29945 c 1.20483,1.8147 5.50532,8.12473 9.55671,14.02229 8.12817,11.83199 16.77803,24.53679 25.64779,37.671 3.19668,4.73355 6.89142,10.13024 8.21058,11.99264 1.31915,1.86238 4.71015,6.81464 7.5356,11.005 6.83244,10.13292 28.79963,42.3659 33.56321,49.24808 0.97007,1.40146 1.76374,2.6642 1.76374,2.80614 0,0.33785 -6.37528,4.29322 -11.65225,7.22933 -8.9479,4.97861 -15.61199,7.26239 -30.34423,10.39882 -14.61173,3.11082 -23.39368,4.45454 -38.83404,5.94212 l -7.31868,0.70513 -51.80121,-0.0312 -51.80113,-0.0312 -7.76037,-0.7978 z"
     id="path3032"
     inkscape:connector-curvature="0" />
</svg>
