<?xml version="1.0" encoding="UTF-8"?>
<!DOCTYPE svg PUBLIC "-//W3C//DTD SVG 1.1//EN" "http://www.w3.org/Graphics/SVG/1.1/DTD/svg11.dtd">
<svg version="1.1" xmlns="http://www.w3.org/2000/svg" xmlns:xlink="http://www.w3.org/1999/xlink" x="0" y="0" width="122" height="209" viewBox="0, 0, 122, 209">
  <g id="Layer_1">
    <path d="M2.694,125.415 C3.248,130.358 5.994,136.787 8.154,141.798 C10.493,147.225 14.308,152.14 14.827,156.36 C15.557,162.298 12.832,170.29 13.008,177.597 C13.328,190.903 15.47,205.209 27.571,206.72 C34.911,207.634 47.445,206.422 51.233,203.078 C54.548,200.151 57.152,190.512 59.119,182.449 C62.986,166.605 63.404,147.574 62.154,128.448 C64.744,137.359 62.68,148.533 63.367,158.785 C63.828,165.68 65.918,172.551 67.615,179.415 C69.395,186.621 70.742,193.927 74.896,197.009 C80.296,201.021 98.755,202.055 104.625,197.619 C110.071,193.5 111.95,179.273 111.905,169.708 C111.876,163.428 109.623,156.979 110.085,151.504 C111.01,140.548 121.608,127.811 120.399,113.887 C119.646,105.201 113.848,97.585 103.412,97.504 C99.183,86.153 100.658,73.515 99.163,60.496 C98.489,54.614 97.686,48.471 96.737,42.292 C95.852,36.541 93.118,30.402 93.096,25.304 C93.075,20.632 95.588,15.34 96.737,10.742 C97.221,8.804 97.598,6.918 97.997,5.07 L97.997,2.641 L30.22,2.641 L30.413,5.07 C31.067,8.17 31.679,11.234 32.422,14.382 C33.568,19.228 36.771,24.763 36.672,29.551 C36.575,34.041 32.295,40.475 30.604,45.933 C25.121,63.616 23.032,82.551 19.076,101.751 C7.9,105.051 1.218,112.288 2.694,125.415 z M50.069,5.07 C48.82,9.545 47.226,13.971 45.658,18.272 C44.654,21.016 43.652,23.759 42.739,26.517 L42.737,26.517 C40.433,20.204 38.355,12.537 36.73,5.07 L50.069,5.07 z M96.738,132.09 C92.224,129.119 87.628,126.232 83.389,122.989 C89.316,117.589 94.953,111.9 100.378,106.001 C100.145,115.679 98.051,123.495 96.738,132.09 z M76.109,118.136 C73.523,115.463 69.773,113.954 69.433,109.034 C77.113,107.81 81.482,100.051 91.882,103.572 C86.233,108.034 82.225,114.14 76.109,118.136 z M69.434,143.011 C70.695,136.677 75.434,132.651 78.537,129.661 C83.244,134.26 90.707,136.099 93.706,142.406 C89.995,150.432 88.915,167.877 76.716,165.46 C70.344,164.198 67.629,152.087 69.434,143.011 z M67.615,87.905 C74.029,70.993 81.381,50.989 87.665,30.159 L88.242,30.159 L94.31,82.337 C90.16,89.469 78.042,89.939 67.615,89.01 L67.615,87.905 z M43.953,93.865 C39.966,93.204 30.066,84.185 29.388,79.909 C28.862,76.576 31.293,70.523 32.423,65.347 L44.235,27.556 C44.377,27.442 44.495,27.301 44.555,27.118 C45.463,24.374 46.457,21.652 47.453,18.927 C49.095,14.426 50.762,9.789 52.049,5.069 L91.764,5.069 C89.662,13.111 87.385,20.975 85.817,29.55 C79.553,50.333 72.211,70.309 65.805,87.2 L65.795,87.188 C64.783,88.001 64.853,89.887 63.975,90.83 C56.615,89.789 50.646,94.977 43.953,93.865 z M48.805,127.235 C41.489,119.586 31.383,114.729 26.358,104.785 C27.572,106.033 31.378,104.186 33.032,104.785 C38.768,106.871 55.997,110.395 57.3,115.099 C58.771,120.41 52.669,124.381 48.805,127.235 z M30.604,146.045 C36.555,143.298 41.853,139.901 48.2,137.551 C51.679,140.139 54.382,143.502 56.693,147.257 C56.921,158.354 56.148,170.275 48.2,171.528 C36.397,173.389 34.276,155.682 30.604,146.045 z M25.143,116.921 C29.834,122.545 35.967,126.726 41.525,131.483 C36.837,133.469 32.307,135.613 28.176,138.16 C27.322,131.32 24.891,122.843 25.143,116.921 z" fill="#FF71AE"/>
  </g>
</svg>
