<?xml version="1.0" encoding="UTF-8" standalone="no"?>
<!-- Created with Inkscape (http://www.inkscape.org/) -->
<svg
   xmlns:svg="http://www.w3.org/2000/svg"
   xmlns="http://www.w3.org/2000/svg"
   version="1.0"
   width="1067.4591"
   height="962.70544"
   id="svg4189">
  <defs
     id="defs4191" />
  <g
     transform="translate(830.87241,474.70482)"
     id="layer1">
    <path
       d="M -293.46757,-451.82893 C -237.78415,-444.46792 -181.7734,-437.07499 -125.15648,-429.61335 C -68.256665,-422.10484 -10.79109,-414.48722 47.119016,-406.84939 C 101.67494,-399.66013 148.95674,-374.2694 181.40742,-338.43221 C 214.74715,-301.63323 233.33658,-253.31285 227.71934,-202.07473 C 224.40557,-171.94773 221.05139,-141.10141 217.6568,-109.81864 C 214.18138,-77.828659 210.62515,-45.04661 206.98808,-11.787701 C 200.44137,48.183406 167.70782,100.19339 119.77943,134.86671 C 71.002388,170.14621 7.2729837,186.91711 -57.911245,175.64221 C -127.09624,163.63991 -195.63465,151.88008 -263.48606,140.12024 C -330.7232,128.48165 -397.33801,116.96428 -463.26177,105.60857 C -524.3927,95.061091 -570.95921,60.589828 -596.39036,14.601203 C -621.0658,-30.094245 -625.66062,-85.017918 -605.33349,-139.37987 C -594.0101,-169.65234 -582.9009,-199.40755 -571.96143,-228.58083 C -561.25634,-257.13984 -550.78969,-285.25837 -540.46447,-312.83134 C -522.93383,-359.63224 -486.26821,-398.07599 -441.5768,-422.7878 C -397.73,-447.03164 -345.08152,-458.65448 -293.46757,-451.82893 L -293.46757,-451.82893 z"
       id="path15"
       style="fill:#c2c1c1;fill-rule:evenodd;stroke:#1f1a17;stroke-width:1.20006871" />
    <path
       d="M -317.26608,-465.59359 C -264.45594,-459.58193 -211.11237,-453.52016 -157.04138,-447.39535 C -102.32381,-441.1982 -46.838413,-434.90811 9.4148089,-428.55052 C 62.556322,-422.54129 108.10042,-397.22734 138.89421,-360.52939 C 170.53664,-322.88176 187.22672,-272.93277 179.79095,-219.61749 C 175.42647,-188.31047 170.98117,-156.4296 166.49546,-124.09208 C 161.96934,-91.184758 157.32199,-57.614678 152.63422,-23.547534 C 144.22856,37.514692 110.60595,90.373322 63.324146,125.41035 C 15.476578,160.89191 -45.706882,177.54157 -107.13281,166.30709 C -172.07457,154.42602 -236.12727,142.82783 -299.07268,131.27006 C -361.24219,119.87393 -422.36908,108.67987 -482.7241,97.728269 C -538.31456,87.584908 -580.31454,54.002705 -603.09063,9.0243749 C -625.23226,-34.660778 -629.16028,-88.820668 -610.43346,-142.86336 C -599.94255,-173.14392 -589.58501,-203.00016 -579.42549,-232.31084 C -569.43165,-261.14061 -559.55096,-289.5986 -549.82789,-317.59993 C -533.26713,-365.30202 -498.94135,-405.30162 -457.09898,-431.65819 C -415.72942,-457.71572 -365.98654,-471.14011 -317.26608,-465.59359 L -317.26608,-465.59359 z"
       id="path17"
       style="fill:#dededd;fill-rule:evenodd;stroke:#1f1a17;stroke-width:14.99812794;stroke-miterlimit:4;stroke-dasharray:none" />
    <path
       d="M -609.39892,103.74963 C -488.52319,118.98487 -365.90167,134.38177 -241.7041,149.98072 C -115.74053,165.78174 11.92034,181.86563 141.56139,198.11117 C 183.0643,203.32429 207.35179,234.32014 195.26866,267.65988 C 186.29724,292.31107 177.16418,317.4068 168.03111,342.86623 C 158.7364,368.77019 149.19921,395.11868 139.5408,421.83088 C 126.00284,459.41385 77.58951,485.51987 32.61118,479.17522 C -108.1027,459.29262 -246.55351,439.6929 -382.98374,420.37606 C -517.30447,401.3421 -649.75818,382.55061 -780.27212,364.08242 C -821.18098,358.30354 -834.9614,325.04463 -811.76099,290.89666 C -795.19619,266.52835 -778.75667,242.48333 -762.74956,218.88284 C -747.00108,195.64605 -731.22028,172.73256 -715.75872,150.10196 C -694.89775,119.63146 -647.36176,98.940623 -609.39892,103.74963 L -609.39892,103.74963 z"
       id="path19"
       style="fill:#c2c1c1;fill-rule:evenodd;stroke:#1f1a17;stroke-width:1.20006871" />
    <path
       d="M -608.55027,102.90098 C -489.48095,116.43893 -368.68605,130.09812 -246.35145,143.95937 C -122.28724,158.02267 3.4742748,172.28803 131.17555,186.75546 C 172.07229,191.3624 195.99608,218.88284 184.11501,248.50468 C 175.26482,270.40788 166.2934,292.71519 157.28157,315.30538 C 148.1081,338.2997 138.73256,361.73854 129.23579,385.46026 C 115.85948,418.8 68.213974,441.99637 23.84182,436.37913 C -114.73023,418.71917 -251.12005,401.30169 -385.48927,384.12667 C -517.83387,367.23454 -648.31143,350.54447 -776.87348,334.13728 C -817.17617,329.00498 -830.75049,299.46396 -807.89358,269.15511 C -791.5753,247.49439 -775.38633,226.15696 -759.61765,205.18324 C -744.10356,184.53281 -728.5531,164.16526 -713.32593,144.0806 C -692.77492,117.0047 -645.94734,98.657741 -608.55027,102.90098 L -608.55027,102.90098 z"
       id="path21"
       style="fill:#dededd;fill-rule:evenodd;stroke:#1f1a17;stroke-width:14.99812794;stroke-miterlimit:4;stroke-dasharray:none" />
    <path
       d="M -302.08336,-415.85718 C -257.58593,-410.78954 -212.56719,-405.68149 -166.98268,-400.51686 C -120.87282,-395.29161 -74.075964,-389.98554 -26.632514,-384.6229 C 18.143757,-379.5593 56.534964,-358.21783 82.51975,-327.27452 C 109.19154,-295.53105 123.25484,-253.42196 116.99101,-208.46788 C 113.31354,-182.07089 109.59565,-155.193 105.79694,-127.92716 C 101.95782,-100.18042 98.078292,-71.876002 94.117935,-43.147255 C 87.005459,8.3373743 58.676789,52.911586 18.830758,82.45261 C -21.540628,112.35734 -73.146492,126.38023 -124.914,116.92387 C -179.67199,106.90175 -233.66215,97.122092 -286.74709,87.382849 C -339.16119,77.764842 -390.70239,68.348893 -441.58489,59.094591 C -488.45853,50.567702 -523.86735,22.239032 -543.07103,-15.667233 C -561.73724,-52.522792 -565.05101,-98.188123 -549.26212,-143.75242 C -540.41598,-169.2846 -531.68299,-194.45711 -523.11569,-219.16892 C -514.69387,-243.47662 -506.36096,-267.4691 -498.16544,-291.07767 C -484.20317,-331.29953 -455.26024,-365.02318 -419.98074,-387.24562 C -385.10132,-409.21752 -343.16196,-420.53686 -302.08336,-415.85718 L -302.08336,-415.85718 z"
       id="path23"
       style="fill:#4d4948;fill-rule:evenodd;stroke:#1f1a17;stroke-width:10.99862671;stroke-miterlimit:4;stroke-dasharray:none" />
    <path
       d="M -612.21562,141.0093 L -612.21562,167.19615 C -612.21562,181.66357 -627.34984,193.38299 -646.0116,193.38299 C -664.67094,193.38299 -679.80718,181.66357 -679.80718,167.19615 C -679.80726,158.4672 -679.80726,149.73825 -679.80726,141.0093 M -612.21449,141.0093 C -612.21449,155.43632 -627.3487,167.19615 -646.01047,167.19615 C -664.66981,167.19615 -679.80605,155.43632 -679.80605,141.0093 C -679.80613,126.54188 -664.66981,114.82246 -646.01047,114.82246 C -627.3487,114.82246 -612.21449,126.54188 -612.21449,141.0093 z"
       id="path25"
       style="fill:none;fill-rule:nonzero;stroke:#1f1a17;stroke-width:10.99862671;stroke-miterlimit:4;stroke-dasharray:none" />
    <path
       d="M -511.38818,153.61778 L -511.38818,179.80463 C -511.38818,194.27205 -526.52644,205.99147 -545.18457,205.99147 C -563.84674,205.99147 -578.98096,194.27205 -578.98096,179.80463 L -578.98096,153.61778 M -511.38818,153.61778 C -511.38818,168.08521 -526.52644,179.80463 -545.18457,179.80463 C -563.84674,179.80463 -578.98096,168.08521 -578.98096,153.61778 C -578.98096,139.15036 -563.84674,127.43094 -545.18457,127.43094 C -526.52644,127.43094 -511.38818,139.15036 -511.38818,153.61778 z"
       id="path27"
       style="fill:none;fill-rule:nonzero;stroke:#1f1a17;stroke-width:10.99862671;stroke-miterlimit:4;stroke-dasharray:none" />
    <path
       d="M -410.59712,163.07415 L -410.59712,189.26099 C -410.59712,203.72841 -425.73134,215.44783 -444.39351,215.44783 C -463.05163,215.44783 -478.18989,203.72841 -478.18989,189.26099 L -478.18989,163.07415 M -410.59712,163.07415 C -410.59712,177.50116 -425.73134,189.26099 -444.39351,189.26099 C -463.05163,189.26099 -478.18989,177.50116 -478.18989,163.07415 C -478.18989,148.60672 -463.05163,136.8873 -444.39351,136.8873 C -425.73134,136.8873 -410.59712,148.60672 -410.59712,163.07415 z"
       id="path29"
       style="fill:none;fill-rule:nonzero;stroke:#1f1a17;stroke-width:10.99862671;stroke-miterlimit:4;stroke-dasharray:none" />
    <path
       d="M -298.76151,178.83475 L -298.76151,205.02159 C -298.76151,219.48901 -313.89573,231.20843 -332.5579,231.20843 C -351.21603,231.20843 -366.35429,219.48901 -366.35429,205.02159 L -366.35429,178.83475 M -298.76151,178.83475 C -298.76151,193.30217 -313.89573,205.02159 -332.5579,205.02159 C -351.21603,205.02159 -366.35429,193.30217 -366.35429,178.83475 C -366.35429,164.36732 -351.21603,152.6479 -332.5579,152.6479 C -313.89573,152.6479 -298.76151,164.36732 -298.76151,178.83475 z"
       id="path31"
       style="fill:none;fill-rule:nonzero;stroke:#1f1a17;stroke-width:10.99862671;stroke-miterlimit:4;stroke-dasharray:none" />
    <path
       d="M -188.603,191.40281 L -188.603,217.58966 C -188.603,232.05708 -203.75742,243.7765 -222.42767,243.7765 C -241.05751,243.7765 -256.21193,232.05708 -256.21193,217.58966 L -256.21193,191.40281 M -188.603,191.40281 C -188.603,205.87024 -203.75742,217.58966 -222.42767,217.58966 C -241.05751,217.58966 -256.21193,205.87024 -256.21193,191.40281 C -256.21193,176.93539 -241.05751,165.21597 -222.42767,165.21597 C -203.75742,165.21597 -188.603,176.93539 -188.603,191.40281 z"
       id="path33"
       style="fill:none;fill-rule:nonzero;stroke:#1f1a17;stroke-width:10.99862671;stroke-miterlimit:4;stroke-dasharray:none" />
    <path
       d="M -82.562441,207.20383 L -82.562441,233.43108 C -82.562441,247.8581 -97.676453,259.61793 -116.3467,259.61793 C -135.01695,259.61793 -150.13097,247.8581 -150.13097,233.43108 L -150.13097,207.20383 M -82.562441,207.20383 C -82.562441,221.67125 -97.676453,233.39067 -116.3467,233.39067 C -135.01695,233.39067 -150.13097,221.67125 -150.13097,207.20383 C -150.13097,192.77682 -135.01695,181.01698 -116.3467,181.01698 C -97.676453,181.01698 -82.562441,192.77682 -82.562441,207.20383 z"
       id="path35"
       style="fill:none;fill-rule:nonzero;stroke:#1f1a17;stroke-width:10.99862671;stroke-miterlimit:4;stroke-dasharray:none" />
    <path
       d="M -661.85504,235.69414 L -661.85504,261.9214 C -661.85504,276.34841 -676.99128,288.10824 -695.65224,288.10824 C -714.31158,288.10824 -729.4462,276.34841 -729.4462,261.9214 L -729.4462,235.69414 M -661.85343,235.69414 C -661.85343,250.16157 -676.98967,261.88099 -695.65062,261.88099 C -714.30996,261.88099 -729.44458,250.16157 -729.44458,235.69414 C -729.44458,221.26713 -714.30996,209.5073 -695.65062,209.5073 C -676.98967,209.5073 -661.85343,221.26713 -661.85343,235.69414 z"
       id="path37"
       style="fill:none;fill-rule:nonzero;stroke:#1f1a17;stroke-width:10.99862671;stroke-miterlimit:4;stroke-dasharray:none" />
    <path
       d="M -560.55722,248.38345 L -560.55722,274.57029 C -560.55722,289.03772 -575.69548,300.75714 -594.3536,300.75714 C -613.01577,300.75714 -628.14999,289.03772 -628.14999,274.57029 L -628.14999,248.38345 M -560.55722,248.38345 C -560.55722,262.85087 -575.69548,274.57029 -594.3536,274.57029 C -613.01577,274.57029 -628.14999,262.85087 -628.14999,248.38345 C -628.14999,233.91603 -613.01577,222.1966 -594.3536,222.1966 C -575.69548,222.1966 -560.55722,233.91603 -560.55722,248.38345 z"
       id="path39"
       style="fill:none;fill-rule:nonzero;stroke:#1f1a17;stroke-width:10.99862671;stroke-miterlimit:4;stroke-dasharray:none" />
    <path
       d="M -446.59595,262.6084 L -446.59595,288.79525 C -446.59595,303.26267 -461.73421,314.98209 -480.39638,314.98209 C -499.0545,314.98209 -514.19276,303.26267 -514.19276,288.79525 L -514.19276,262.6084 M -446.59595,262.6084 C -446.59595,277.07582 -461.73421,288.79525 -480.39638,288.79525 C -499.0545,288.79525 -514.19276,277.07582 -514.19276,262.6084 C -514.19276,248.14098 -499.0545,236.42156 -480.39638,236.42156 C -461.73421,236.42156 -446.59595,248.14098 -446.59595,262.6084 z"
       id="path41"
       style="fill:none;fill-rule:nonzero;stroke:#1f1a17;stroke-width:10.99862671;stroke-miterlimit:4;stroke-dasharray:none" />
    <path
       d="M -331.06266,276.87377 L -331.06266,303.06061 C -331.06266,317.52803 -346.19688,329.24745 -364.85905,329.24745 C -383.51718,329.24745 -398.65543,317.52803 -398.65543,303.06061 L -398.65543,276.87377 M -331.06266,276.87377 C -331.06266,291.34119 -346.19688,303.06061 -364.85905,303.06061 C -383.51718,303.06061 -398.65543,291.34119 -398.65543,276.87377 C -398.65543,262.40634 -383.51718,250.68692 -364.85905,250.68692 C -346.19688,250.68692 -331.06266,262.40634 -331.06266,276.87377 z"
       id="path43"
       style="fill:none;fill-rule:nonzero;stroke:#1f1a17;stroke-width:10.99862671;stroke-miterlimit:4;stroke-dasharray:none" />
    <path
       d="M -228.16615,287.9466 L -228.16615,314.13344 C -228.16615,328.60087 -243.32057,340.32029 -261.95041,340.32029 C -280.62874,340.32029 -295.767,328.60087 -295.767,314.13344 L -295.767,287.9466 M -228.16615,287.9466 C -228.16615,302.41402 -243.32057,314.13344 -261.95041,314.13344 C -280.62874,314.13344 -295.767,302.41402 -295.767,287.9466 C -295.767,273.47917 -280.62874,261.75975 -261.95041,261.75975 C -243.32057,261.75975 -228.16615,273.47917 -228.16615,287.9466 z"
       id="path45"
       style="fill:none;fill-rule:nonzero;stroke:#1f1a17;stroke-width:10.99862671;stroke-miterlimit:4;stroke-dasharray:none" />
    <path
       d="M -125.31812,303.74761 L -125.31812,329.93445 C -125.31812,344.40188 -140.43213,356.16171 -159.10238,356.16171 C -177.77263,356.16171 -192.88665,344.40188 -192.88665,329.93445 L -192.88665,303.74761 M -125.31812,303.74761 C -125.31812,318.21503 -140.43213,329.93445 -159.10238,329.93445 C -177.77263,329.93445 -192.88665,318.21503 -192.88665,303.74761 C -192.88665,289.28019 -177.77263,277.56077 -159.10238,277.56077 C -140.43213,277.56077 -125.31812,289.28019 -125.31812,303.74761 z"
       id="path47"
       style="fill:none;fill-rule:nonzero;stroke:#1f1a17;stroke-width:10.99862671;stroke-miterlimit:4;stroke-dasharray:none" />
    <path
       d="M 105.75653,272.30723 L 105.75653,326.13575 C 105.75653,355.83842 67.24409,379.92385 19.760229,379.92385 C -27.723633,379.92385 -66.236075,355.83842 -66.236075,326.13575 L -66.236075,272.30723 M 105.75653,272.30723 C 105.75653,302.0099 67.24409,326.13575 19.760229,326.13575 C -27.723633,326.13575 -66.236075,302.0099 -66.236075,272.30723 C -66.236075,242.60456 -27.723633,218.47872 19.760229,218.47872 C 67.24409,218.47872 105.75653,242.60456 105.75653,272.30723 z"
       id="path49"
       style="fill:none;fill-rule:nonzero;stroke:#1f1a17;stroke-width:10.99862671;stroke-miterlimit:4;stroke-dasharray:none" />
    <path
       d="M -317.26608,-465.59359 C -264.45594,-459.58193 -211.11237,-453.52016 -157.04138,-447.39535 L 9.4148089,-428.55052 C 46.270368,-424.38002 79.488865,-410.9229 106.64559,-390.81803 C 135.98456,-378.48435 161.4844,-360.42836 181.40742,-338.42817 C 214.74715,-301.62919 233.33658,-253.31285 227.71934,-202.07069 C 224.40557,-171.94369 221.05139,-141.10141 217.6568,-109.81864 C 214.18138,-77.828659 210.62515,-45.04661 206.98808,-11.787701 C 200.44137,48.183406 167.70782,100.19339 119.81984,134.86671 C 92.663111,154.50684 60.899438,168.4085 26.791882,174.9148 C 61.465203,178.83475 96.259761,182.7951 131.21597,186.75546 C 156.23087,189.58428 174.90112,200.98041 182.90265,216.17525 C 196.92555,229.3899 202.34073,248.10057 195.26866,267.65988 C 186.29724,292.31107 177.16418,317.44721 168.03111,342.90664 C 158.7364,368.77019 149.19921,395.1591 139.5408,421.83088 C 126.00284,459.41385 77.58951,485.51987 32.61118,479.17522 C -108.1027,459.29262 -246.55351,439.6929 -382.98374,420.37606 C -517.30043,401.3421 -649.75414,382.55061 -780.26403,364.08242 C -816.25882,358.99054 -831.2516,332.64205 -818.53805,303.14143 C -820.23938,292.87684 -816.8852,281.07659 -807.88954,269.1147 C -791.57125,247.49439 -775.37825,226.15696 -759.61361,205.18324 C -744.09952,184.53281 -728.5531,164.16526 -713.32189,144.0806 C -692.77007,117.0047 -645.9433,98.657741 -608.54623,102.90098 C -489.47691,116.43893 -368.682,130.09812 -246.35145,143.95937 C -241.54245,144.52513 -236.69303,145.05048 -231.88403,145.61625 C -242.43151,143.79772 -252.97899,141.97919 -263.48606,140.12024 C -330.71916,128.52206 -397.32993,116.96428 -463.25773,105.60857 C -486.58746,101.56739 -507.79962,94.050796 -526.5224,83.745788 C -560.54509,67.661892 -586.75619,41.272989 -603.09063,9.0243749 C -625.23226,-34.660778 -629.16028,-88.820668 -610.43346,-142.86336 L -579.42549,-232.31084 L -549.82789,-317.59993 C -533.26713,-365.30202 -498.94135,-405.30162 -457.09898,-431.65819 C -415.72942,-457.71572 -365.98654,-471.14011 -317.26608,-465.59359 L -317.26608,-465.59359 z"
       id="path53"
       style="fill:none;fill-rule:evenodd;stroke:#1f1a17;stroke-width:15.74888134" />
  </g>
</svg>
