<?xml version="1.0" encoding="UTF-8" standalone="no"?>
<svg
   xmlns:dc="http://purl.org/dc/elements/1.1/"
   xmlns:cc="http://creativecommons.org/ns#"
   xmlns:rdf="http://www.w3.org/1999/02/22-rdf-syntax-ns#"
   xmlns:svg="http://www.w3.org/2000/svg"
   xmlns="http://www.w3.org/2000/svg"
   id="svg2222"
   version="1.1"
   viewBox="0 0 41.804166 42.862505"
   height="162.00002"
   width="158">
  <title
     id="title2246">Beagle Bros Clip Art - Baby</title>
  <defs
     id="defs2216" />
  <metadata
     id="metadata2219">
    <rdf:RDF>
      <cc:Work
         rdf:about="">
        <dc:format>image/svg+xml</dc:format>
        <dc:type
           rdf:resource="http://purl.org/dc/dcmitype/StillImage" />
        <dc:title>Beagle Bros Clip Art - Baby</dc:title>
        <cc:license
           rdf:resource="http://creativecommons.org/publicdomain/zero/1.0/" />
        <dc:creator>
          <cc:Agent>
            <dc:title>Beagle Bros</dc:title>
          </cc:Agent>
        </dc:creator>
        <dc:publisher>
          <cc:Agent>
            <dc:title>Openclipart.org</dc:title>
          </cc:Agent>
        </dc:publisher>
        <dc:identifier>https://openclipart.org/</dc:identifier>
        <dc:subject>
          <rdf:Bag>
            <rdf:li>Beagle Bros</rdf:li>
            <rdf:li>retro</rdf:li>
            <rdf:li>8-bit</rdf:li>
            <rdf:li>8bit</rdf:li>
            <rdf:li>8 bit</rdf:li>
            <rdf:li>old school</rdf:li>
            <rdf:li>OldSchool</rdf:li>
            <rdf:li>old skool</rdf:li>
            <rdf:li>OldSkool</rdf:li>
            <rdf:li>low res</rdf:li>
            <rdf:li>LowRes</rdf:li>
            <rdf:li>Apple IIGS</rdf:li>
            <rdf:li>pixel art</rdf:li>
            <rdf:li>PixelArt</rdf:li>
            <rdf:li>character</rdf:li>
            <rdf:li>baby</rdf:li>
            <rdf:li>child</rdf:li>
            <rdf:li>teddy bear</rdf:li>
            <rdf:li>toy</rdf:li>
            <rdf:li>stuffed</rdf:li>
          </rdf:Bag>
        </dc:subject>
        <dc:description>byby/child with teddy bear - Retro 8-bit bitmap style graphic from the  Beagle Bros Clip Art for the Apple IIGS.</dc:description>
        <dc:contributor>
          <cc:Agent>
            <dc:title>conversion to SVG...
Arvin61r58 (https://openclipart.org/user-detail/Arvin61r58)</dc:title>
          </cc:Agent>
        </dc:contributor>
      </cc:Work>
      <cc:License
         rdf:about="http://creativecommons.org/publicdomain/zero/1.0/">
        <cc:permits
           rdf:resource="http://creativecommons.org/ns#Reproduction" />
        <cc:permits
           rdf:resource="http://creativecommons.org/ns#Distribution" />
        <cc:permits
           rdf:resource="http://creativecommons.org/ns#DerivativeWorks" />
      </cc:License>
    </rdf:RDF>
  </metadata>
  <g
     transform="translate(-84.097916,-127.06874)"
     id="layer1">
    <g
       style="stroke-width:4"
       transform="matrix(0.25000001,0,0,0.25000001,76.818207,115.40706)"
       id="g2315">
      <path
         id="path2293"
         d="m 152.94383,188.46341 v -1.05833 h -1.05833 -1.05834 v -1.05834 -1.05833 h -1.05833 -1.05833 v 1.05833 1.05834 h -1.05834 -1.05833 v -1.05834 -1.05833 h -1.05833 -1.05834 v -1.05833 -1.05834 h 1.05834 1.05833 v -1.05833 -1.05833 h -1.05833 -1.05834 v -1.05834 -1.05833 h -1.05833 -1.05833 v -1.05833 -1.05834 h 1.05833 1.05833 v -1.05833 -1.05833 h -1.05833 -1.05833 v -1.05834 -1.05833 h 1.05833 1.05833 v -1.05833 -1.05834 h 1.05834 1.05833 v -1.05833 -1.05833 h -1.05833 -1.05834 v -1.05834 -1.05833 h 1.05834 1.05833 v -1.05833 -1.05834 h 1.05833 1.05834 v 1.05834 1.05833 h 1.05833 1.05833 v -1.05833 -1.05834 h 1.05834 1.05833 v -1.05833 -1.05833 h 1.05833 1.05834 v 1.05833 1.05833 h 1.05833 1.05833 v -1.05833 -1.05833 h 1.05834 1.05833 v 1.05833 1.05833 h 1.05833 1.05834 v 1.05834 1.05833 h 1.05833 1.05833 v -1.05833 -1.05834 h 1.05834 1.05833 v 1.05834 1.05833 h 1.05833 1.05834 v 1.05833 1.05834 h -1.05834 -1.05833 v 1.05833 1.05833 h 1.05833 1.05834 v 1.05834 1.05833 h 1.05833 1.05833 v 1.05833 1.05834 h -1.05833 -1.05833 v 1.05833 1.05833 h 1.05833 1.05833 v 1.05834 1.05833 h -1.05833 -1.05833 v 1.05833 1.05834 h -1.05834 -1.05833 v 1.05833 1.05833 h 1.05833 1.05834 v 1.05834 1.05833 h -1.05834 -1.05833 v 1.05833 1.05834 h -1.05833 -1.05834 v -1.05834 -1.05833 h -1.05833 -1.05833 v 1.05833 1.05834 h -1.05834 -1.05833 v 1.05833 1.05833 h -1.05833 -1.05834 v -1.05833 -1.05833 h -1.05833 -1.05833 v 1.05833 1.05833 h -1.05834 -1.05833 z m 2.11667,-2.11667 v -1.05833 h 1.05833 1.05833 v 1.05833 1.05834 h 1.05834 1.05833 v -1.05834 -1.05833 h 1.05833 1.05834 v -1.05833 -1.05834 h 1.05833 1.05833 v 1.05834 1.05833 h 1.05834 1.05833 v -1.05833 -1.05834 h -1.05833 -1.05834 v -1.05833 -1.05833 h 1.05834 1.05833 v -1.05834 -1.05833 h 1.05833 1.05834 v -1.05833 -1.05834 h -1.05834 -1.05833 v -1.05833 -1.05833 h 1.05833 1.05834 v -1.05834 -1.05833 h -1.05834 -1.05833 v -1.05833 -1.05834 h -1.05833 -1.05834 v -1.05833 -1.05833 h 1.05834 1.05833 v -1.05834 -1.05833 h -1.05833 -1.05834 v 1.05833 1.05834 h -1.05833 -1.05833 v -1.05834 -1.05833 h -1.05834 -1.05833 v -1.05833 -1.05834 h -1.05833 -1.05834 v 1.05834 1.05833 h -1.05833 -1.05833 v -1.05833 -1.05834 h -1.05834 -1.05833 v 1.05834 1.05833 h -1.05833 -1.05834 v 1.05833 1.05834 h -1.05833 -1.05833 v -1.05834 -1.05833 h -1.05834 -1.05833 v 1.05833 1.05834 h 1.05833 1.05834 v 1.05833 1.05833 h -1.05834 -1.05833 v 1.05834 1.05833 h -1.05833 -1.05834 v 1.05833 1.05834 h 1.05834 1.05833 v 1.05833 1.05833 h -1.05833 -1.05834 v 1.05834 1.05833 h 1.05834 1.05833 v 1.05833 1.05834 h 1.05833 1.05834 v 1.05833 1.05833 h -1.05834 -1.05833 v 1.05834 1.05833 h 1.05833 1.05834 v -1.05833 -1.05834 h 1.05833 1.05833 v 1.05834 1.05833 h 1.05834 1.05833 v 1.05833 1.05834 h 1.05833 1.05834 z m -2.11667,-2.11666 v -1.05834 h -1.05833 -1.05834 v -1.05833 -1.05833 h -1.05833 -1.05833 v -1.05834 -1.05833 h -1.05834 -1.05833 v -1.05833 -1.05834 h 1.05833 1.05834 v -1.05833 -1.05833 h -1.05834 -1.05833 v -1.05834 -1.05833 h 1.05833 1.05834 v -1.05833 -1.05834 h 1.05833 1.05833 v -1.05833 -1.05833 h 1.05834 1.05833 v -1.05834 -1.05833 h 1.05833 1.05834 v 1.05833 1.05834 h 1.05833 1.05833 v -1.05834 -1.05833 h 1.05834 1.05833 v 1.05833 1.05834 h -1.05833 -1.05834 v 1.05833 1.05833 h -1.05833 -1.05833 v 1.05834 1.05833 h 1.05833 1.05833 v 1.05833 1.05834 h 1.05834 1.05833 v 1.05833 1.05833 h -1.05833 -1.05834 v 1.05834 1.05833 h -1.05833 -1.05833 v 1.05833 1.05834 h 1.05833 1.05833 v 1.05833 1.05833 h 1.05834 1.05833 v 1.05834 1.05833 h -1.05833 -1.05834 v -1.05833 -1.05834 h -1.05833 -1.05833 v 1.05834 1.05833 h -1.05834 -1.05833 z m 2.11667,-2.11667 v -1.05833 h -1.05834 -1.05833 v -1.05834 -1.05833 h 1.05833 1.05834 v -1.05833 -1.05834 h 1.05833 1.05833 v -1.05833 -1.05833 h -1.05833 -1.05833 v -1.05834 -1.05833 h -1.05834 -1.05833 v -1.05833 -1.05834 h 1.05833 1.05834 v -1.05833 -1.05833 h -1.05834 -1.05833 v 1.05833 1.05833 h -1.05833 -1.05834 v 1.05834 1.05833 h -1.05833 -1.05833 v 1.05833 1.05834 h 1.05833 1.05833 v 1.05833 1.05833 h -1.05833 -1.05833 v 1.05834 1.05833 h 1.05833 1.05833 v 1.05833 1.05834 h 1.05834 1.05833 v 1.05833 1.05833 h 1.05833 1.05834 z m -4.23334,-4.23333 v -1.05834 h 1.05834 1.05833 v -1.05833 -1.05833 h -1.05833 -1.05834 v -1.05834 -1.05833 h 1.05834 1.05833 v 1.05833 1.05834 h 1.05833 1.05834 v 1.05833 1.05833 h -1.05834 -1.05833 v 1.05834 1.05833 h -1.05833 -1.05834 z m 12.7,0 v -1.05834 h -1.05833 -1.05833 v -1.05833 -1.05833 h 1.05833 1.05833 v -1.05834 -1.05833 h 1.05834 1.05833 v 1.05833 1.05834 h -1.05833 -1.05834 v 1.05833 1.05833 h 1.05834 1.05833 v 1.05834 1.05833 h -1.05833 -1.05834 z M 123.3105,92.155067 v -2.11666 h -1.05834 -1.05833 v 1.05833 1.05833 h -1.05833 -1.05834 v -1.05833 -1.05833 h -2.11666 -2.11667 v -1.05834 -1.05833 h -1.05833 -1.05833 v -1.05833 -1.05834 h -3.175 -3.175 v 1.05834 1.05833 h -3.175 -3.175 v -1.05833 -1.05834 h 2.11666 2.11667 v -1.05833 -1.05833 h -1.05833 -1.05834 v -1.05834 -1.05833 h -1.05833 -1.05833 v 1.05833 1.05834 H 98.968833 97.9105 v -3.175 -3.175 H 96.852166 95.793833 V 73.105071 68.871738 H 93.677166 91.5605 v -2.116667 -2.116667 h 1.058333 1.058333 v -1.058333 -1.058333 h 2.116667 2.116667 v 6.35 6.35 h 1.058333 1.058337 v 1.058333 1.058336 h 2.11666 2.11667 v 1.05833 1.05833 h 1.05833 1.05834 v 1.05834 1.05833 h 2.11666 2.11667 v 1.05833 1.05834 h 2.11667 2.11666 v -1.05834 -1.05833 h 1.05833 1.05834 v 2.11667 2.11666 h 1.05833 1.05833 v 1.05834 1.05833 h 3.175 3.175 v -1.05833 -1.05834 h 2.11667 2.11667 v 1.05834 1.05833 h 1.05833 1.05833 v 1.05833 1.05834 h 2.11667 2.11667 v -1.05834 -1.05833 h 2.11666 2.11667 v -1.05833 -1.05834 h 3.175 3.175 v -1.05833 -1.05833 h 3.175 3.175 v -1.05834 -1.05833 h 1.05833 1.05834 v 1.05833 1.05834 h 2.11666 2.11667 v -1.05834 -1.05833 h 2.11667 2.11666 v -1.05833 -1.05834 h 1.05834 1.05833 v -1.05833 -1.05833 h 1.05833 1.05834 v 2.11666 2.11667 h -1.05834 -1.05833 v 1.05833 1.05834 h -1.05833 -1.05834 v 1.05833 1.05833 h -2.11666 -2.11667 v 1.05834 1.05833 h 1.05833 1.05834 v 1.05833 1.05834 h -2.11667 -2.11667 v -1.05834 -1.05833 h -1.05833 -1.05833 v 1.05833 1.05834 h -1.05834 -1.05833 v -1.05834 -1.05833 h -1.05833 -1.05834 v 2.11667 2.11666 h 1.05834 1.05833 v 1.05834 1.05833 h -1.05833 -1.05834 v -1.05833 -1.05834 h -1.05833 -1.05833 v -2.11666 -2.11667 h -1.05834 -1.05833 v 3.175 3.175 h -1.05833 -1.05834 v -1.05833 -1.05834 h -2.11666 -2.11667 v 1.05834 1.05833 h -1.05833 -1.05834 v -1.05833 -1.05834 h -1.05833 -1.05833 v 1.05834 1.05833 h -1.05834 -1.05833 v -1.05833 -1.05834 h -4.23333 -4.23334 v 1.05834 1.05833 h -1.05833 -1.05833 z m -16.93333,-9.525 v -1.05833 h -1.05834 -1.05833 v 1.05833 1.05834 h 1.05833 1.05834 z M 89.443833,76.280071 v -1.058333 h 2.116667 2.116666 v 1.058333 1.058336 H 91.5605 89.443833 Z"
         style="fill:#fefeba;stroke-width:4" />
      <path
         id="path2291"
         d="m 125.42716,122.84674 v -1.05833 h 1.05834 1.05833 v -1.05833 -1.05834 h 1.05833 1.05834 v 1.05834 1.05833 h -1.05834 -1.05833 v 1.05833 1.05834 h -1.05833 -1.05834 z m -6.35,-2.11666 v -1.05834 h 1.05834 1.05833 v 1.05834 1.05833 h -1.05833 -1.05834 z M 85.2105,112.26341 v -1.05834 h 1.058333 1.058334 v 1.05834 1.05833 H 86.268833 85.2105 Z"
         style="fill:#76a9fe;stroke-width:4" />
      <path
         id="path2289"
         d="m 150.82716,188.46341 v -1.05833 h -1.05833 -1.05833 v -1.05834 -1.05833 h -1.05834 -1.05833 v -1.05833 -1.05834 h -1.05833 -1.05834 v -1.05833 -1.05833 h -1.05833 -1.05833 v -1.05834 -1.05833 h 1.05833 1.05833 v -1.05833 -1.05834 h -1.05833 -1.05833 v -1.05833 -1.05833 h 1.05833 1.05833 v -1.05834 -1.05833 h -1.05833 -1.05833 v -1.05833 -1.05834 h 1.05833 1.05833 v -1.05833 -1.05833 h 1.05834 1.05833 v -1.05834 -1.05833 h 1.05833 1.05834 v -1.05833 -1.05834 h 1.05833 1.05833 v -1.05833 -1.05833 h 1.05834 1.05833 v 1.05833 1.05833 h 1.05833 1.05834 v -1.05833 -1.05833 h 1.05833 1.05833 v 1.05833 1.05833 h 1.05834 1.05833 v -1.05833 -1.05833 h 1.05833 1.05834 v 1.05833 1.05833 h 1.05833 1.05833 v 1.05834 1.05833 h 1.05834 1.05833 v 1.05833 1.05834 h 1.05833 1.05834 v 1.05833 1.05833 h 1.05833 1.05833 v 1.05834 1.05833 h -1.05833 -1.05833 v 1.05833 1.05834 h 1.05833 1.05833 v 1.05833 1.05833 h -1.05833 -1.05833 v 1.05834 1.05833 h 1.05833 1.05833 v 1.05833 1.05834 h -1.05833 -1.05833 v 1.05833 1.05833 h -1.05834 -1.05833 v 1.05834 1.05833 h -1.05833 -1.05834 v 1.05833 1.05834 h -1.05833 -1.05833 v 1.05833 1.05833 h -1.05834 -1.05833 v -1.05833 -1.05833 h -1.05833 -1.05834 v 1.05833 1.05833 h -1.05833 -1.05833 v -1.05833 -1.05833 h -1.05834 -1.05833 v 1.05833 1.05833 h -1.05833 -1.05834 z m 2.11667,-2.11667 v -1.05833 h 1.05833 1.05834 v 1.05833 1.05834 h 1.05833 1.05833 v -1.05834 -1.05833 h 1.05834 1.05833 v 1.05833 1.05834 h 1.05833 1.05834 v -1.05834 -1.05833 h 1.05833 1.05833 v -1.05833 -1.05834 h 1.05834 1.05833 v -1.05833 -1.05833 h 1.05833 1.05834 v -1.05834 -1.05833 h -1.05834 -1.05833 v -1.05833 -1.05834 h 1.05833 1.05834 v -1.05833 -1.05833 h -1.05834 -1.05833 v -1.05834 -1.05833 h 1.05833 1.05834 v -1.05833 -1.05834 h -1.05834 -1.05833 v -1.05833 -1.05833 h -1.05833 -1.05834 v -1.05834 -1.05833 h -1.05833 -1.05833 v -1.05833 -1.05834 h -1.05834 -1.05833 v 1.05834 1.05833 h -1.05833 -1.05834 v -1.05833 -1.05834 h -1.05833 -1.05833 v 1.05834 1.05833 h -1.05834 -1.05833 v -1.05833 -1.05834 h -1.05833 -1.05834 v 1.05834 1.05833 h -1.05833 -1.05833 v 1.05833 1.05834 h -1.05834 -1.05833 v 1.05833 1.05833 h -1.05833 -1.05834 v 1.05834 1.05833 h 1.05834 1.05833 v 1.05833 1.05834 h -1.05833 -1.05834 v 1.05833 1.05833 h 1.05834 1.05833 v 1.05834 1.05833 h -1.05833 -1.05834 v 1.05833 1.05834 h 1.05834 1.05833 v 1.05833 1.05833 h 1.05833 1.05834 v 1.05834 1.05833 h 1.05833 1.05833 v 1.05833 1.05834 h 1.05834 1.05833 z m -2.11667,-2.11666 v -1.05834 h -1.05833 -1.05833 v -1.05833 -1.05833 h -1.05834 -1.05833 v -1.05834 -1.05833 h 1.05833 1.05834 v -1.05833 -1.05834 h -1.05834 -1.05833 v -1.05833 -1.05833 h 1.05833 1.05834 v -1.05834 -1.05833 h -1.05834 -1.05833 v -1.05833 -1.05834 h 1.05833 1.05834 v -1.05833 -1.05833 h 1.05833 1.05833 v -1.05834 -1.05833 h 1.05834 1.05833 v 1.05833 1.05834 h 1.05833 1.05834 v -1.05834 -1.05833 h 1.05833 1.05833 v 1.05833 1.05834 h -1.05833 -1.05833 v 1.05833 1.05833 h -1.05834 -1.05833 v 1.05834 1.05833 h 1.05833 1.05834 v 1.05833 1.05834 h 1.05833 1.05833 v 1.05833 1.05833 h 1.05834 1.05833 v 1.05834 1.05833 h -1.05833 -1.05834 v 1.05833 1.05834 h 1.05834 1.05833 v 1.05833 1.05833 h 1.05833 1.05834 v -1.05833 -1.05833 h 1.05833 1.05833 v -1.05834 -1.05833 h -1.05833 -1.05833 v -1.05833 -1.05834 h 1.05833 1.05833 v -1.05833 -1.05833 h 1.05834 1.05833 v 1.05833 1.05833 h -1.05833 -1.05834 v 1.05834 1.05833 h 1.05834 1.05833 v 1.05833 1.05834 h -1.05833 -1.05834 v 1.05833 1.05833 h -1.05833 -1.05833 v 1.05834 1.05833 h -1.05834 -1.05833 v -1.05833 -1.05834 h -1.05833 -1.05834 v 1.05834 1.05833 h -1.05833 -1.05833 v -1.05833 -1.05834 h -1.05834 -1.05833 v 1.05834 1.05833 h -1.05833 -1.05834 z m 2.11667,-2.11667 v -1.05833 h 1.05833 1.05834 v 1.05833 1.05833 h 1.05833 1.05833 v -1.05833 -1.05833 h -1.05833 -1.05833 v -1.05834 -1.05833 h 1.05833 1.05833 v -1.05833 -1.05834 h -1.05833 -1.05833 v -1.05833 -1.05833 h -1.05834 -1.05833 v -1.05834 -1.05833 h -1.05833 -1.05834 v -1.05833 -1.05834 h 1.05834 1.05833 v -1.05833 -1.05833 h -1.05833 -1.05834 v 1.05833 1.05833 h -1.05833 -1.05833 v 1.05834 1.05833 h 1.05833 1.05833 v 1.05833 1.05834 h -1.05833 -1.05833 v 1.05833 1.05833 h 1.05833 1.05833 v 1.05834 1.05833 h -1.05833 -1.05833 v 1.05833 1.05834 h 1.05833 1.05833 v 1.05833 1.05833 h 1.05834 1.05833 z m -2.11667,-2.11667 v -1.05833 h 1.05834 1.05833 v -1.05833 -1.05834 h -1.05833 -1.05834 v -1.05833 -1.05833 h 1.05834 1.05833 v 1.05833 1.05833 h 1.05833 1.05834 v 1.05834 1.05833 h -1.05834 -1.05833 v 1.05833 1.05834 h -1.05833 -1.05834 z m 8.46667,-12.7 v -1.05833 h 1.05833 1.05834 v 1.05833 1.05834 h -1.05834 -1.05833 z m 19.05,-6.35 v -1.05833 h -1.05833 -1.05834 v -2.11667 -2.11666 h -1.05833 -1.05833 v -2.11667 -2.11667 h 4.23333 4.23333 v 1.05834 1.05833 h 1.05834 1.05833 v 3.175 3.175 h -2.11667 -2.11666 v 1.05833 1.05834 h -1.05834 -1.05833 z m -57.15,-6.35 v -1.05833 h -1.05833 -1.05834 v -3.175 -3.175 h 1.05834 1.05833 v -1.05833 -1.05834 h 1.05833 1.05834 v -1.05833 -1.05833 h 2.11666 2.11667 v 1.05833 1.05833 h 2.11667 2.11666 v 3.175 3.175 h -2.11666 -2.11667 v 1.05834 1.05833 h -1.05833 -1.05834 v 1.05833 1.05834 h -2.11666 -2.11667 z m -33.866663,-4.23333 v -1.05833 H 85.2105 83.093833 v -1.05834 -1.05833 H 82.0355 80.977167 v -3.175 -3.175 h 1.058333 1.058333 v 2.11667 2.11666 h 1.058334 1.058333 v 1.05834 1.05833 h 6.35 6.35 v -1.05833 -1.05834 h -1.058334 -1.058333 v -1.05833 -1.05833 h 1.058333 1.058334 v 1.05833 1.05833 h 2.11667 2.11666 v 2.11667 2.11667 h -3.174997 -3.175 v 1.05833 1.05833 H 91.5605 87.327167 Z"
         style="fill:#ed8798;stroke-width:4" />
      <path
         id="path2287"
         d="m 119.07716,179.99674 v -1.05833 h -1.05833 -1.05833 v -1.05833 -1.05834 h -2.11667 -2.11666 v -1.05833 -1.05833 h -2.11667 -2.11667 v -1.05834 -1.05833 h -1.05833 -1.05833 v -1.05833 -1.05834 h -5.29167 -5.291667 v -1.05833 -1.05833 h -3.175 -3.175 v -1.05834 -1.05833 h 10.583337 10.58333 v -1.05833 -1.05834 h 1.05833 1.05834 v -1.05833 -1.05833 h 4.23333 4.23333 v 1.05833 1.05833 h -1.05833 -1.05834 v 6.35 6.35 h 1.05834 1.05833 v 2.11667 2.11667 h -1.05833 -1.05834 z m -33.86666,-15.875 v -2.11666 h 1.058333 1.058334 v 2.11666 2.11667 H 86.268833 85.2105 Z m -6.35,-1.05833 v -1.05833 h 1.058333 1.058334 v 1.05833 1.05833 H 79.918833 78.8605 Z m -4.233333,-2.11667 v -1.05833 h 1.058333 1.058333 v 1.05833 1.05834 H 75.6855 74.627167 Z M 85.2105,152.48008 v -1.05834 h 5.291666 5.291667 v -1.05833 -1.05833 h 1.058333 1.058334 v 1.05833 1.05833 h -1.058334 -1.058333 v 1.05834 1.05833 H 90.502166 85.2105 Z m -4.233333,-2.11667 v -1.05833 H 79.918833 78.8605 v -1.05834 -1.05833 h 1.058333 1.058334 v 1.05833 1.05834 h 1.058333 1.058333 v 1.05833 1.05833 H 82.0355 80.977167 Z m -21.166667,-6.35 v -1.05833 h 1.058334 1.058333 v 1.05833 1.05833 H 60.868834 59.8105 Z m -4.233333,-4.23333 v -1.05834 h 2.116667 2.116666 v 1.05834 1.05833 h -2.116666 -2.116667 z m 95.249993,0 v -1.05834 h 1.05834 1.05833 v -2.11666 -2.11667 h 1.05833 1.05834 v 2.11667 2.11666 h -1.05834 -1.05833 v 1.05834 1.05833 h -1.05833 -1.05834 z m 6.35,-3.175 v -2.11667 h 1.05834 1.05833 v -1.05833 -1.05834 h -1.05833 -1.05834 v -2.11666 -2.11667 h 3.175 3.175 v 3.175 3.175 h 1.05834 1.05833 v -4.23333 -4.23334 h 1.05833 1.05834 v 4.23334 4.23333 h -1.05834 -1.05833 v 1.05833 1.05834 h -1.05833 -1.05834 v 1.05833 1.05833 h -1.05833 -1.05833 v -1.05833 -1.05833 h -1.05834 -1.05833 v 1.05833 1.05833 h -1.05833 -1.05834 z m 6.35,-1.05834 v -1.05833 h -1.05833 -1.05833 v 1.05833 1.05834 h 1.05833 1.05833 z m -63.49999,0 v -1.05833 h 2.11666 2.11667 v -2.11667 -2.11666 h 1.05833 1.05834 v 2.11666 2.11667 h -1.05834 -1.05833 v 1.05833 1.05834 h -2.11667 -2.11666 z M 85.2105,131.31341 v -1.05833 h -1.058333 -1.058334 v -1.05834 -1.05833 h 1.058334 1.058333 v -1.05833 -1.05834 h 1.058333 1.058334 v 1.05834 1.05833 H 86.268833 85.2105 v 1.05833 1.05834 h 1.058333 1.058334 v 1.05833 1.05833 H 86.268833 85.2105 Z m 84.66666,-4.23333 v -3.175 h -3.175 -3.175 v -1.05834 -1.05833 h 3.175 3.175 v 1.05833 1.05834 h 1.05834 1.05833 v 3.175 3.175 h -1.05833 -1.05834 z m -114.299993,0 v -1.05834 h 2.116667 2.116666 v 1.05834 1.05833 h -2.116666 -2.116667 z m 2.116667,-6.35 v -1.05834 h 2.116666 2.116667 v 1.05834 1.05833 H 59.8105 57.693834 Z m 57.149996,0 v -1.05834 h 1.05833 1.05834 v 1.05834 1.05833 h -1.05834 -1.05833 z m 19.05,0 v -1.05834 h -1.05833 -1.05834 v -1.05833 -1.05833 h -1.05833 -1.05833 v -1.05834 -1.05833 h 1.05833 1.05833 v 1.05833 1.05834 h 2.11667 2.11667 v 2.11666 2.11667 h -1.05834 -1.05833 z m -16.93333,-4.23334 v -1.05833 h 1.05833 1.05833 v 1.05833 1.05834 h -1.05833 -1.05833 z m 8.46666,-2.11667 v -1.05833 h 1.05834 1.05833 v 1.05833 1.05834 h -1.05833 -1.05834 z m -61.383326,-4.23333 v -1.05833 h 1.058333 1.058333 v -2.11667 -2.11667 h 1.058334 1.058333 v -2.11666 -2.11667 h 1.058333 1.058334 v -1.058333 -1.05834 h 1.058333 1.058333 v -2.11666 -2.11667 h 1.058334 1.058333 v -1.05833 -1.05834 h 1.058333 1.058333 v 1.05834 1.05833 H 75.6855 74.627167 v 2.11667 2.11666 H 73.568834 72.5105 v 1.05834 1.058333 h -1.058333 -1.058333 v 2.11667 2.11666 H 69.3355 68.277167 v 2.11667 2.11667 H 67.218834 66.1605 v 1.05833 1.05833 h -1.058333 -1.058333 z m 10.583333,-3.175 v -2.11667 h 1.058333 1.058333 v 2.11667 2.11667 H 75.6855 74.627167 Z M 85.2105,105.91341 v -1.05834 h -1.058333 -1.058334 v -1.05833 -1.05833 h 1.058334 1.058333 v 1.05833 1.05833 h 1.058333 1.058334 v 1.05834 1.05833 H 86.268833 85.2105 Z m -6.35,-2.11667 v -1.05833 h 1.058333 1.058334 v 1.05833 1.05833 H 79.918833 78.8605 Z"
         style="fill:#878787;stroke-width:4" />
      <path
         id="path2285"
         d="m 78.8605,145.07174 v -2.11666 h 1.058333 1.058334 v 2.11666 2.11667 H 79.918833 78.8605 Z m 71.96666,-15.875 v -1.05833 h -1.05833 -1.05833 v -1.05833 -1.05834 h 1.05833 1.05833 v -1.05833 -1.05833 h -1.05833 -1.05833 v -1.05834 -1.05833 h -1.05834 -1.05833 v -1.05833 -1.05834 h -1.05833 -1.05834 v -1.05833 -1.05833 h -1.05833 -1.05833 v -1.05834 -1.05833 h -1.05834 -1.05833 v -1.05834 -1.05833 h 1.05833 1.05834 v -1.05833 -1.05834 h -1.05834 -1.05833 v -1.05833 -1.05833 h 1.05833 1.05834 v -1.05834 -1.05833 h -2.11667 -2.11667 v -1.05833 -1.05834 h -4.23333 -4.23333 v 1.05834 1.05833 h -2.11667 -2.11667 v 1.05833 1.05834 h -2.11666 -2.11667 v -2.11667 -2.11667 h -1.05833 -1.05834 v -2.11666 -2.11667 h -4.23333 -4.23333 v -1.058333 -1.05834 h -1.05833 -1.05834 v 1.05834 1.058333 h -2.11666 -2.11667 v 1.05833 1.05834 h -2.11667 -2.11666 v -3.175003 -3.175 h -3.175004 -3.175 v -1.05834 -1.05833 H 92.618833 91.5605 v 1.05833 1.05834 h -2.116667 -2.116666 v 1.05833 1.05833 H 85.2105 83.093833 v -2.11666 -2.11667 h 1.058334 1.058333 v -1.05833 -1.05834 h -2.116667 -2.116666 v -2.11666 -2.11667 H 79.918833 78.8605 v 1.05833 1.05834 h -1.058333 -1.058334 v 1.05833 1.05833 H 75.6855 74.627167 v 1.05834 1.05833 H 73.568834 72.5105 v 2.11667 2.11666 h -1.058333 -1.058333 v 1.05834 1.058333 H 69.3355 68.277167 v 2.11667 2.11666 H 67.218834 66.1605 v 2.11667 2.11667 h -1.058333 -1.058333 v -7.40834 -7.408333 h 1.058333 1.058333 v -4.23333 -4.23334 h 1.058334 1.058333 v -1.05833 -1.05833 h 1.058333 1.058334 v -3.175 -3.175 h 1.058333 1.058333 v -2.116669 -2.116667 h 1.058334 1.058333 v -1.058333 -1.058334 h 1.058333 1.058333 v -1.058333 -1.058333 h 1.058334 1.058333 v -1.058334 -1.058333 h 1.058333 1.058334 v -1.058333 -1.058334 h 1.058333 1.058333 v -1.058333 -1.058333 h 1.058334 1.058333 v -1.058334 -1.058333 h 2.116667 2.116666 v -1.058334 -1.058333 h 3.175 3.175 v -1.058333 -1.058334 h 2.116667 2.11667 v -1.058333 -1.058333 h 6.35 6.35 v -1.058334 -1.058333 h 12.69999 12.7 v 1.058333 1.058334 h 4.23334 4.23333 v 1.058333 1.058333 h 4.23333 4.23334 v 1.058334 1.058333 h 1.05833 1.05833 v 1.058333 1.058334 h 2.11667 2.11667 v 1.058333 1.058334 h 2.11666 2.11667 v 1.058333 1.058333 h 1.05833 1.05834 v 1.058334 1.058333 h 1.05833 1.05833 v 1.058333 1.058334 h 1.05834 1.05833 v 1.058333 1.058333 h 1.05833 1.05834 v 2.116667 2.116667 h 1.05833 1.05833 v 1.058333 1.058336 h 1.05834 1.05833 v 3.175 3.175 h 1.05833 1.05834 v 9.525 9.525003 h -1.05834 -1.05833 v 7.40833 7.40834 h -1.05833 -1.05834 v 3.175 3.175 h -1.05833 -1.05833 v 3.175 3.175 h -1.05834 -1.05833 v -3.175 -3.175 h -1.05833 -1.05834 v -1.05834 -1.05833 h -1.05833 -1.05833 v -1.05833 -1.05834 h -1.05834 -1.05833 v 1.05834 1.05833 h -1.05833 -1.05834 v 1.05833 1.05834 h -1.05833 -1.05833 v 1.05833 1.05833 h -1.05834 -1.05833 v 1.05834 1.05833 h -1.05833 -1.05834 v 1.05833 1.05834 h -1.05833 -1.05833 v -1.05834 -1.05833 h -1.05834 -1.05833 v 1.05833 1.05834 h -1.05833 -1.05834 z m 2.11667,-2.11666 v -1.05834 h 1.05833 1.05834 v 1.05834 1.05833 h 1.05833 1.05833 v -1.05833 -1.05834 h 1.05834 1.05833 v -1.05833 -1.05833 h 1.05833 1.05834 v -1.05834 -1.05833 h 1.05833 1.05833 v -1.05833 -1.05834 h 1.05834 1.05833 v -1.05833 -1.05833 h 1.05833 1.05834 v 1.05833 1.05833 h 1.05833 1.05833 v -1.05833 -1.05833 h 1.05834 1.05833 v -1.05834 -1.05833 h -1.05833 -1.05834 v 1.05833 1.05834 h -1.05833 -1.05833 v -1.05834 -1.05833 h -1.05834 -1.05833 v -1.05834 -1.05833 h 1.05833 1.05834 v -1.05833 -1.05834 h -1.05834 -1.05833 v 1.05834 1.05833 h -1.05833 -1.05834 v 1.05833 1.05834 h -1.05833 -1.05833 v -1.05834 -1.05833 h -1.05834 -1.05833 v -1.05833 -1.05834 h 1.05833 1.05834 v -1.05833 -1.05833 h -1.05834 -1.05833 v 1.05833 1.05833 h -1.05833 -1.05834 v 1.05834 1.05833 h -1.05833 -1.05833 v -1.05833 -1.05834 h -1.05834 -1.05833 v -1.05833 -1.05833 h -1.05833 -1.05834 v 1.05833 1.05833 h -1.05833 -1.05833 v -1.05833 -1.05833 h -1.05834 -1.05833 v 1.05833 1.05833 h -1.05833 -1.05834 v -1.05833 -1.05833 h -1.05833 -1.05833 v 1.05833 1.05833 h 1.05833 1.05833 v 1.05834 1.05833 h -1.05833 -1.05833 v 1.05833 1.05834 h 1.05833 1.05833 v 1.05833 1.05834 h 1.05834 1.05833 v 1.05833 1.05833 h 1.05833 1.05834 v 1.05834 1.05833 h 1.05833 1.05833 v 1.05833 1.05834 h 1.05834 1.05833 v 1.05833 1.05833 h -1.05833 -1.05834 v 1.05834 1.05833 h 1.05834 1.05833 z m 2.11667,-2.11667 v -1.05833 h -1.05834 -1.05833 v -1.05834 -1.05833 h -1.05833 -1.05834 v -1.05833 -1.05834 h -1.05833 -1.05833 v -1.05833 -1.05833 h -1.05834 -1.05833 v -1.05834 -1.05833 h -1.05833 -1.05834 v -1.05834 -1.05833 h 1.05834 1.05833 v -1.05833 -1.05834 h 1.05833 1.05834 v 1.05834 1.05833 h 1.05833 1.05833 v -1.05833 -1.05834 h 1.05834 1.05833 v 1.05834 1.05833 h 1.05833 1.05834 v 1.05833 1.05834 h 1.05833 1.05833 v -1.05834 -1.05833 h 1.05834 1.05833 v 1.05833 1.05834 h 1.05833 1.05834 v 1.05833 1.05834 h 1.05833 1.05833 v -1.05834 -1.05833 h 1.05834 1.05833 v 1.05833 1.05834 h -1.05833 -1.05834 v 1.05833 1.05833 h -1.05833 -1.05833 v 1.05834 1.05833 h -1.05834 -1.05833 v 1.05833 1.05834 h -1.05833 -1.05834 v 1.05833 1.05833 h -1.05833 -1.05833 z m 2.11666,-2.11667 v -1.05833 h 1.05834 1.05833 v -1.05833 -1.05834 h 1.05833 1.05834 v -1.05833 -1.05833 h -1.05834 -1.05833 v 1.05833 1.05833 h -1.05833 -1.05834 v -1.05833 -1.05833 h -1.05833 -1.05833 v 1.05833 1.05833 h -1.05834 -1.05833 v -1.05833 -1.05833 h -1.05833 -1.05834 v -1.05834 -1.05833 h -1.05833 -1.05833 v 1.05833 1.05834 h 1.05833 1.05833 v 1.05833 1.05833 h 1.05834 1.05833 v 1.05834 1.05833 h 1.05833 1.05834 v 1.05833 1.05834 h 1.05833 1.05833 z m -2.11666,-2.11666 v -1.05834 h 1.05833 1.05833 v 1.05834 1.05833 h -1.05833 -1.05833 z m 19.05,-10.58334 v -1.05833 h -1.05834 -1.05833 v -1.05834 -1.05833 h 1.05833 1.05834 v -1.05833 -1.05834 h -1.05834 -1.05833 v 1.05834 1.05833 h -1.05833 -1.05834 v 1.05833 1.05834 h 1.05834 1.05833 v 1.05833 1.05833 h 1.05833 1.05834 z m -8.46667,-4.23333 v -1.05834 h -1.05833 -1.05834 v 1.05834 1.05833 h 1.05834 1.05833 z m -23.28333,-2.11667 v -1.05833 h 1.05833 1.05833 v -1.05834 -1.05833 h -1.05833 -1.05833 v 1.05833 1.05834 h -1.05834 -1.05833 v 1.05833 1.05833 h 1.05833 1.05834 z m 10.58333,-2.11667 v -1.05833 h -1.05833 -1.05834 v 1.05833 1.05834 h 1.05834 1.05833 z m 16.93333,0 v -1.05833 h -1.05833 -1.05833 v 1.05833 1.05834 h 1.05833 1.05833 z m 4.23334,0 v -1.05833 h 1.05833 1.05833 v -1.058333 -1.05834 h -1.05833 -1.05833 v 1.05834 1.058333 h -1.05834 -1.05833 v 1.05833 1.05834 h 1.05833 1.05834 z m -46.56667,-4.233333 v -1.05833 h 1.05833 1.05834 v 1.05833 1.05833 h 1.05833 1.05833 v -1.05833 -1.05833 h 1.05834 1.05833 v 1.05833 1.05833 h 3.175 3.175 v -1.05833 -1.05833 h 1.05833 1.05834 v -2.11667 -2.11667 h 1.05833 1.05833 v 1.05834 1.05833 h 1.05834 1.05833 v -3.175 -3.175 h 1.05833 1.05834 v 2.11667 2.11666 h 1.05833 1.05833 v 1.05834 1.05833 h 1.05834 1.05833 v -1.05833 -1.05834 h -1.05833 -1.05834 v -2.11666 -2.11667 h 1.05834 1.05833 v 1.05833 1.05834 h 1.05833 1.05834 v -1.05834 -1.05833 h 1.05833 1.05833 v 1.05833 1.05834 h 2.11667 2.11667 v -1.05834 -1.05833 h -1.05834 -1.05833 v -1.05833 -1.05834 h 2.11667 2.11666 v -1.05833 -1.05833 h 1.05834 1.05833 v -1.05834 -1.05833 h 1.05833 1.05834 v -2.11667 -2.11666 h -1.05834 -1.05833 v 1.05833 1.05833 h -1.05833 -1.05834 v 1.05834 1.05833 h -2.11666 -2.11667 v 1.05833 1.05834 h -2.11667 -2.11666 v -1.05834 -1.05833 h -1.05834 -1.05833 v 1.05833 1.05834 h -3.175 -3.175 v 1.05833 1.05833 h -3.175 -3.175 v 1.05834 1.05833 h -2.11667 -2.11666 v 1.05833 1.05834 h -2.11667 -2.11667 v -1.05834 -1.05833 h -1.05833 -1.05833 v -1.05833 -1.05834 h -2.11667 -2.11667 v 1.05834 1.05833 h -3.175 -3.175 v -1.05833 -1.05834 h -1.05833 -1.05833 v -2.11666 -2.11667 h -1.05834 -1.05833 v 1.05833 1.05834 h -2.11666 -2.11667 v -1.05834 -1.05833 h -2.11667 -2.11666 v -1.05833 -1.05834 h -1.05834 -1.05833 v -1.05833 -1.05833 h -2.11667 -2.11666 V 76.280071 75.221738 H 98.968833 97.9105 v -6.35 -6.35 h -2.116667 -2.116667 v 1.058333 1.058333 H 92.618833 91.5605 v 3.175 3.175 h -2.116667 -2.116666 v 1.058334 1.058333 h 1.058333 1.058333 v 2.116667 2.116669 h 1.058333 1.058334 v 2.11666 2.11667 h 1.058333 1.058333 v -1.05833 -1.05834 h 1.058334 1.058333 v 1.05834 1.05833 h 1.058333 1.058334 v 4.23333 4.23334 h 2.11667 2.11666 v -1.05834 -1.05833 h 1.05834 1.05833 v 1.05833 1.05834 h 2.11667 2.11666 v 1.05833 1.05833 h 1.05834 1.05833 v 1.05834 1.05833 h 2.11667 2.11666 v -1.05833 -1.05834 h 2.11667 2.11666 v 2.11667 2.11667 h 2.11667 2.11667 v 1.05833 1.05833 h 2.11666 2.11667 z m -6.35,-4.23333 v -1.05834 h 1.05833 1.05834 v 1.05834 1.05833 h -1.05834 -1.05833 z m 14.81667,0 v -1.05834 h 1.05833 1.05833 v 1.05834 1.05833 h -1.05833 -1.05833 z m -31.75,-10.58334 v -1.05833 h 1.05833 1.05834 v 1.05833 1.05834 h -1.05834 -1.05833 z m 59.26666,12.7 v -1.05833 h -1.05833 -1.05833 v 1.05833 1.05834 h 1.05833 1.05833 z"
         style="fill:#ed8710;stroke-width:4" />
      <path
         id="path2283"
         d="m 121.19383,122.84674 v -1.05833 h 2.11667 2.11666 v 1.05833 1.05834 h -2.11666 -2.11667 z M 78.8605,112.26341 v -1.05834 h 2.116667 2.116666 v 1.05834 1.05833 H 80.977167 78.8605 Z"
         style="fill:#109898;stroke-width:4" />
      <path
         id="path2281"
         d="m 34.410501,184.23008 v -28.575 h 1.058333 1.058334 v -1.05834 -1.05833 h 2.116666 2.116667 v -1.05833 -1.05834 h 2.116666 2.116667 v -1.05833 -1.05833 h 2.116667 2.116666 v -1.05834 -1.05833 h 4.233334 4.233333 v -1.05833 -1.05834 h 1.058333 1.058333 v 1.05834 1.05833 h 1.058334 1.058333 v -2.11667 -2.11666 H 60.868834 59.8105 v -2.11667 -2.11667 h -1.058333 -1.058333 v -5.29166 -5.29167 h 1.058333 1.058333 v -3.175 -3.175 h 1.058334 1.058333 v -2.11667 -2.11666 h 1.058333 1.058334 v -1.05834 -1.05833 h 1.058333 1.058333 v -3.175 -3.175 h 1.058334 1.058333 v -2.11667 -2.11667 h 1.058333 1.058334 v -2.11666 -2.11667 h 1.058333 1.058333 v -1.058333 -1.05834 h 1.058334 1.058333 v -2.11666 -2.11667 h 1.058333 1.058333 v -2.11667 -2.11666 h 1.058334 1.058333 v -1.05834 -1.05833 h 1.058333 1.058334 v 2.11667 2.11666 h 2.116666 2.116667 v 1.05834 1.05833 h -1.058333 -1.058334 v 2.11667 2.11666 h 2.116667 2.116667 v -1.05833 -1.05833 h 2.116666 2.116667 v -1.05834 -1.05833 h 1.058333 1.058333 v 1.05833 1.05834 h 3.175 3.175004 v 3.175 3.175003 h 2.11666 2.11667 v -1.05834 -1.05833 h 2.11667 2.11666 v -1.058333 -1.05834 h 1.05834 1.05833 v 1.05834 1.058333 h 4.23333 4.23333 v 2.11667 2.11666 h 1.05834 1.05833 v 2.11667 2.11667 h 2.11667 2.11666 v -1.05834 -1.05833 h 2.11667 2.11667 v -1.05833 -1.05834 h 4.23333 4.23333 v 1.05834 1.05833 h 1.05834 1.05833 v 4.23333 4.23334 h 1.05833 1.05834 v 1.05833 1.05834 h 1.05833 1.05833 v 2.11666 2.11667 h 2.11667 2.11667 v 3.175 3.175 h 1.05833 1.05833 v 1.05833 1.05834 h 3.175 3.175 v 1.05833 1.05833 h 1.05834 1.05833 v 1.05834 1.05833 h -1.05833 -1.05834 v 2.11667 2.11666 h 1.05834 1.05833 v -1.05833 -1.05833 h 1.05833 1.05834 v -1.05834 -1.05833 h 1.05833 1.05833 v -3.175 -3.175 h -2.11666 -2.11667 v -1.05833 -1.05834 h 1.05833 1.05834 v -1.05833 -1.05833 h 4.23333 4.23333 v 5.29166 5.29167 h -1.05833 -1.05833 v 1.05833 1.05834 h -1.05834 -1.05833 v 1.05833 1.05833 h -1.05833 -1.05834 v 1.05834 1.05833 h -1.05833 -1.05833 v 1.05833 1.05834 h -2.11667 -2.11667 v -1.05834 -1.05833 h -2.11666 -2.11667 v -1.05833 -1.05834 h -1.05833 -1.05834 v 1.05834 1.05833 h -5.29166 -5.29167 v 1.05833 1.05834 h -3.175 -3.175 v -1.05834 -1.05833 h -1.05833 -1.05834 v -1.05833 -1.05834 h -6.35 -6.35 v 1.05834 1.05833 h -2.11666 -2.11667 v 1.05833 1.05834 h -1.05833 -1.05833 v 7.40833 7.40833 h 1.05833 1.05833 v 1.05834 1.05833 h 1.05833 1.05834 v 1.05833 1.05834 h -2.11667 -2.11666 v 1.05833 1.05833 h -12.7 -12.700003 v -1.05833 -1.05833 h -3.175 -3.175 v -1.05834 -1.05833 H 78.8605 76.743833 v -1.05833 -1.05834 H 74.627167 72.5105 v 1.05834 1.05833 h 1.058334 1.058333 v 1.05833 1.05834 h 2.116666 2.116667 v 1.05833 1.05833 h 3.175 3.175 v 1.05834 1.05833 h 2.116667 2.116666 v 1.05833 1.05834 h 3.175 3.175 v 1.05833 1.05833 H 90.502166 85.2105 v 1.05834 1.05833 h -1.058333 -1.058334 v 2.11667 2.11666 H 82.0355 80.977167 v 6.35 6.35 h 1.058333 1.058333 v 1.05834 1.05833 h 1.058334 1.058333 v 1.05833 1.05834 h 1.058333 1.058334 v 1.05833 1.05833 h 3.174999 3.175 v 1.05834 1.05833 h 2.116667 2.116667 v 1.05833 1.05834 h 1.058333 1.058337 v 1.05833 1.05833 h 1.05833 1.05833 v 2.11667 2.11667 h 1.05834 1.05833 v 2.11666 2.11667 h 1.05833 1.05834 v -2.11667 -2.11666 h 1.05833 1.05833 v 1.05833 1.05833 h 1.05834 1.05833 v 1.05834 1.05833 h 3.175 3.175 v -1.05833 -1.05834 h 1.05833 1.05833 v -1.05833 -1.05833 h -1.05833 -1.05833 v -1.05834 -1.05833 h -1.05834 -1.05833 v -1.05833 -1.05834 h 1.05833 1.05834 v -1.05833 -1.05833 h 1.05833 1.05833 v 3.175 3.175 h 1.05834 1.05833 v -1.05834 -1.05833 h 2.11667 2.11666 v 1.05833 1.05834 h -1.05833 -1.05833 v 1.05833 1.05833 h 2.11666 2.11667 v 1.05834 1.05833 h 4.23333 4.23334 v 1.05833 1.05834 h -50.8 -50.799999 z M 72.5105,156.71341 v -1.05833 h -1.058333 -1.058333 v -1.05834 -1.05833 H 69.3355 68.277167 v -1.05833 -1.05834 H 67.218834 66.1605 v -1.05833 -1.05833 h -1.058333 -1.058333 v -1.05834 -1.05833 H 62.9855 61.927167 v 1.05833 1.05834 h 1.058333 1.058334 v 1.05833 1.05833 h 1.058333 1.058333 v 1.05834 1.05833 h 1.058334 1.058333 v 1.05833 1.05834 h 1.058333 1.058334 v 1.05833 1.05833 h 1.058333 1.058333 z m 23.283333,-4.23333 v -1.05834 h 1.058333 1.058334 v -1.05833 -1.05833 h 2.11667 2.11666 v -2.11667 -2.11667 h -2.11666 -2.11667 v -1.05833 -1.05833 h -2.116667 -2.116667 v -1.05834 -1.05833 H 91.5605 89.443833 v -1.05833 -1.05834 H 85.2105 80.977167 v 2.11667 2.11667 H 79.918833 78.8605 v 3.175 3.175 h 1.058333 1.058334 v 1.05833 1.05833 h 2.116666 2.116667 v 1.05834 1.05833 h 5.291666 5.291667 z m 59.266667,-15.875 v -2.11667 h -1.05834 -1.05833 v 2.11667 2.11666 h 1.05833 1.05834 z m 8.46666,1.05833 v -1.05833 h 1.05834 1.05833 v -1.05834 -1.05833 h 1.05833 1.05834 v -4.23333 -4.23334 h -1.05834 -1.05833 v 4.23334 4.23333 h -1.05833 -1.05834 v 1.05833 1.05834 h -1.05833 -1.05833 v 1.05833 1.05833 h 1.05833 1.05833 z m -59.26666,-2.11667 v -1.05833 h 1.05833 1.05834 v -2.11667 -2.11666 h -1.05834 -1.05833 v 2.11666 2.11667 h -2.11667 -2.11666 v -1.05833 -1.05834 H 97.9105 95.793833 v 1.05834 1.05833 h 2.116667 2.11667 v 1.05833 1.05834 h 2.11666 2.11667 z m -12.7,-4.23333 v -1.05833 h -3.175 -3.175 v -1.05834 -1.05833 h 1.058333 1.058334 v -1.05833 -1.05834 H 86.268833 85.2105 v 1.05834 1.05833 h -1.058333 -1.058334 v 1.05833 1.05834 h 1.058334 1.058333 v 1.05833 1.05833 h 3.175 3.175 z m 35.98333,-8.46667 v -1.05833 h 2.11667 2.11666 v 1.05833 1.05834 h 1.05834 1.05833 v -1.05834 -1.05833 h 1.05833 1.05834 v -2.11667 -2.11666 h -2.11667 -2.11667 v -1.05834 -1.05833 h -1.05833 -1.05833 v 1.05833 1.05834 h -1.05834 -1.05833 v -2.11667 -2.11667 h -1.05833 -1.05834 v 1.05833 1.05834 h -4.23333 -4.23333 v 1.05833 1.05834 h -1.05834 -1.05833 v 1.05833 1.05833 h -1.05833 -1.05833 v 1.05834 1.05833 h 2.11666 2.11667 v -2.11667 -2.11666 h 1.05833 1.05833 v 2.11666 2.11667 h 1.05834 1.05833 v 1.05833 1.05834 h 3.175 3.175 z m -6.35,-2.11666 v -1.05834 h 1.05833 1.05834 v 1.05834 1.05833 h -1.05834 -1.05833 z M 91.5605,112.26341 v -3.175 h -1.058334 -1.058333 v -1.05834 -1.05833 H 88.3855 87.327167 v -1.05833 -1.05834 H 86.268833 85.2105 v -1.05833 -1.05833 h -1.058333 -1.058334 v 1.05833 1.05833 H 82.0355 80.977167 v -1.05833 -1.05833 H 79.918833 78.8605 v 1.05833 1.05833 h -2.116667 -2.116666 v 2.11667 2.11667 h 1.058333 1.058333 v -1.05834 -1.05833 h 1.058334 1.058333 v 3.175 3.175 h 4.233333 4.233334 v -1.05833 -1.05834 h 1.058333 1.058333 v 2.11667 2.11667 h 1.058333 1.058334 z m -10.583333,-2.11667 v -1.05833 h 1.058333 1.058333 v 1.05833 1.05833 H 82.0355 80.977167 Z m 31.750003,97.36667 v -1.05833 h 1.05833 1.05833 v 1.05833 1.05833 h -1.05833 -1.05833 z m -6.35,-4.23333 v -1.05834 h 3.175 3.175 v 1.05834 1.05833 h -3.175 -3.175 z m 21.16666,0 v -1.05834 h -2.11667 -2.11666 v -1.05833 -1.05833 h 2.11666 2.11667 v 1.05833 1.05833 h 1.05833 1.05834 v 1.05834 1.05833 h -1.05834 -1.05833 z M 123.3105,97.446737 v -1.05833 h -2.11667 -2.11667 v -2.11667 -2.11667 h -2.11666 -2.11667 v 1.05834 1.05833 h -2.11666 -2.11667 v -1.05833 -1.05834 h -1.05833 -1.05834 v -1.05833 -1.05833 h -2.11666 -2.11667 v -1.05834 -1.05833 h 1.05833 1.05834 v -1.05833 -1.05834 h 3.175 3.175 v 1.05834 1.05833 h 1.05833 1.05833 v 1.05833 1.05834 h 2.11667 2.11666 v 1.05833 1.05833 h 1.05834 1.05833 v -1.05833 -1.05833 h 1.05833 1.05834 v 1.05833 1.05833 h -1.05834 -1.05833 v 1.05834 1.05833 h 2.11667 2.11666 v -1.05833 -1.05834 h 4.23334 4.23333 v 1.05834 1.05833 h 3.175 3.175 v -1.05833 -1.05834 h 1.05833 1.05834 v 2.11667 2.11667 h -1.05834 -1.05833 v 1.05833 1.05833 h -3.175 -3.175 v -1.05833 -1.05833 h -1.05833 -1.05834 v 1.05833 1.05833 h -1.05833 -1.05833 v -1.05833 -1.05833 h -1.05834 -1.05833 v 1.05833 1.05833 h -2.11667 -2.11666 z m -25.4,-10.58333 v -3.175 h 1.058333 1.058337 v -1.05834 -1.05833 h 1.05833 1.05833 v 1.05833 1.05834 h 1.05834 1.05833 v 1.05833 1.05833 h -2.11667 -2.11666 v 1.05834 1.05833 h 1.05833 1.05833 v 1.05833 1.05834 h -2.11666 -2.11667 z m -6.35,-7.40834 v -2.11666 h 1.058333 1.058333 V 76.280071 75.221738 H 91.5605 89.443833 V 74.163404 73.105071 H 88.3855 87.327167 v -1.058333 -1.058334 h 2.116666 2.116667 v -1.058333 -1.058333 h 2.116666 2.116667 v 4.233333 4.233336 h 1.058333 1.058334 v 2.11666 2.11667 h -1.058334 -1.058333 v -1.05833 -1.05834 H 94.7355 93.677166 v 1.05834 1.05833 H 92.618833 91.5605 Z"
         style="fill:#ffffff;stroke-width:4" />
      <path
         id="path2279"
         d="m 136.0105,211.74674 v -1.05833 h -4.23334 -4.23333 v -1.05833 -1.05834 h -2.11667 -2.11666 v -1.05833 -1.05833 h 1.05833 1.05833 v -1.05834 -1.05833 h -2.11666 -2.11667 v 1.05833 1.05834 h -1.05833 -1.05834 v 1.05833 1.05833 h -1.05833 -1.05833 v 1.05834 1.05833 h -3.175 -3.175 v -1.05833 -1.05834 h -1.05833 -1.05834 v -1.05833 -1.05833 h -1.05833 -1.05833 v 2.11666 2.11667 h -1.05834 -1.05833 v -2.11667 -2.11666 h -1.05833 -1.05834 v -3.175 -3.175 h -1.05833 -1.05833 v -1.05834 -1.05833 H 98.968833 97.9105 v -1.05833 -1.05834 h -1.058334 -1.058333 v 1.05834 1.05833 H 94.7355 93.677166 v -1.05833 -1.05834 H 92.618833 91.5605 v -1.05833 -1.05833 h -1.058334 -1.058333 v 1.05833 1.05833 H 88.3855 87.327167 v -1.05833 -1.05833 H 86.268833 85.2105 v -1.05834 -1.05833 h -1.058333 -1.058334 v -1.05833 -1.05834 H 82.0355 80.977167 v -1.05833 -1.05833 h 1.058333 1.058333 v -1.05834 -1.05833 H 82.0355 80.977167 v -1.05833 -1.05834 h 1.058333 1.058333 v -1.05833 -1.05833 H 82.0355 80.977167 v -2.11667 -2.11667 h 2.116666 2.116667 v -1.05833 -1.05833 h -1.058333 -1.058334 v -1.05834 -1.05833 h 1.058334 1.058333 v -1.05833 -1.05834 h 10.583333 10.583337 v 1.05834 1.05833 h 1.05833 1.05833 v 1.05833 1.05834 h 2.11667 2.11667 v 1.05833 1.05833 h 2.11666 2.11667 v 1.05834 1.05833 h 1.05833 1.05833 v 1.05833 1.05834 h 1.05834 1.05833 v -2.11667 -2.11667 h -1.05833 -1.05834 v -6.35 -6.35 h 1.05834 1.05833 v -1.05833 -1.05833 h -2.11667 -2.11666 v -1.05834 -1.05833 h -1.05834 -1.05833 v -1.05833 -1.05834 h -1.05833 -1.05833 v -7.40833 -7.40833 h 1.05833 1.05833 v -1.05834 -1.05833 h 2.11667 2.11666 v -1.05833 -1.05834 h 6.35 6.35 v 1.05834 1.05833 h 1.05834 1.05833 v 1.05833 1.05834 h 3.175 3.175 v -1.05834 -1.05833 h 8.46667 8.46666 v 1.05833 1.05834 h 2.11667 2.11667 v 1.05833 1.05833 h 2.11666 2.11667 v 1.05834 1.05833 h 1.05833 1.05834 v 1.05833 1.05834 h 1.05833 1.05833 v 1.05833 1.05833 h 1.05834 1.05833 v -2.11666 -2.11667 h 2.11667 2.11666 v -1.05833 -1.05834 h 4.23334 4.23333 v 1.05834 1.05833 h 2.11667 2.11666 v 2.11667 2.11666 h 1.05834 1.05833 v 4.23334 4.23333 h -1.05833 -1.05834 v 2.11667 2.11666 h -2.11666 -2.11667 v 1.05834 1.05833 h -3.175 -3.175 v 6.35 6.35 h -1.05833 -1.05834 v 2.11667 2.11666 h -1.05833 -1.05833 v 2.11667 2.11667 h -1.05834 -1.05833 v 1.05833 1.05833 h -1.05833 -1.05834 v 1.05834 1.05833 h -1.05833 -1.05833 v 1.05833 1.05834 h -1.05834 -1.05833 v 1.05833 1.05833 h 1.05833 1.05834 v 1.05834 1.05833 h -2.11667 -2.11667 v 1.05833 1.05834 h 1.05834 1.05833 v 1.05833 1.05833 h -1.05833 -1.05834 v -1.05833 -1.05833 h -2.11666 -2.11667 v -1.05834 -1.05833 h -1.05833 -1.05834 v 2.11667 2.11666 h 1.05834 1.05833 v 2.11667 2.11667 h -4.23333 -4.23334 v 1.05833 1.05833 h -6.35 -6.35 v -1.05833 -1.05833 h -1.05833 -1.05833 v -1.05834 -1.05833 h -1.05834 -1.05833 v 1.05833 1.05834 h -1.05833 -1.05834 v -1.05834 -1.05833 h -1.05833 -1.05833 v 1.05833 1.05834 h -1.05834 -1.05833 v 1.05833 1.05833 h 4.23333 4.23334 v 1.05834 1.05833 h 1.05833 1.05833 v 1.05833 1.05834 h -1.05833 -1.05833 z m -21.16667,-4.23333 v -1.05833 h -1.05833 -1.05833 v 1.05833 1.05833 h 1.05833 1.05833 z m 4.23333,-4.23333 v -3.175 h 1.05834 1.05833 v -1.05834 -1.05833 h 1.05833 1.05834 v 2.11667 2.11666 h 2.11666 2.11667 v 1.05834 1.05833 h 1.05833 1.05834 v -1.05833 -1.05834 h 1.05833 1.05833 v -1.05833 -1.05833 h 1.05834 1.05833 v 1.05833 1.05833 h 1.05833 1.05834 v 1.05834 1.05833 h 1.05833 1.05833 v 1.05833 1.05834 h 2.11667 2.11667 v -1.05834 -1.05833 h -2.11667 -2.11667 v -1.05833 -1.05834 h -1.05833 -1.05833 v -1.05833 -1.05833 h 1.05833 1.05833 v -1.05834 -1.05833 h 1.05834 1.05833 v 1.05833 1.05834 h 1.05833 1.05834 v 1.05833 1.05833 h 1.05833 1.05833 v -1.05833 -1.05833 h 1.05834 1.05833 v -1.05834 -1.05833 h 1.05833 1.05834 v 1.05833 1.05834 h 1.05833 1.05833 v -1.05834 -1.05833 h -1.05833 -1.05833 v -1.05833 -1.05834 h -1.05834 -1.05833 v 1.05834 1.05833 h -1.05833 -1.05834 v -1.05833 -1.05834 h -1.05833 -1.05833 v -1.05833 -1.05833 h -1.05834 -1.05833 v -1.05834 -1.05833 h -1.05833 -1.05834 v 1.05833 1.05834 h -1.05833 -1.05833 v -1.05834 -1.05833 h -1.05834 -1.05833 v -1.05833 -1.05834 h -1.05833 -1.05834 v -1.05833 -1.05833 h -1.05833 -1.05833 v -1.05834 -1.05833 h -1.05834 -1.05833 v -1.05833 -1.05834 h -1.05833 -1.05834 v 1.05834 1.05833 h -1.05833 -1.05833 v 1.05833 1.05834 h 1.05833 1.05833 v 1.05833 1.05833 h -1.05833 -1.05833 v 1.05834 1.05833 h -1.05834 -1.05833 v -1.05833 -1.05834 h -1.05833 -1.05834 v 1.05834 1.05833 h -1.05833 -1.05833 v 1.05833 1.05834 h -1.05834 -1.05833 v 1.05833 1.05833 h -1.05833 -1.05833 v -1.05833 -1.05833 h -1.05834 -1.05833 v -1.05834 -1.05833 h -1.05833 -1.05834 v 1.05833 1.05834 h -1.05833 -1.05833 v -1.05834 -1.05833 h -1.05834 -1.05833 v -1.05833 -1.05834 h -1.05833 -1.05834 v -1.05833 -1.05833 h -1.05833 -1.05833 v 1.05833 1.05833 H 98.968833 97.9105 v -1.05833 -1.05833 h -1.058334 -1.058333 v -1.05834 -1.05833 H 94.7355 93.677166 v -1.05833 -1.05834 H 92.618833 91.5605 v -1.05833 -1.05833 h -1.058334 -1.058333 v -1.05834 -1.05833 H 88.3855 87.327167 v -1.05833 -1.05834 h 1.058333 1.058333 v -1.05833 -1.05833 H 88.3855 87.327167 v -1.05834 -1.05833 H 86.268833 85.2105 v 1.05833 1.05834 h 1.058333 1.058334 v 1.05833 1.05833 H 86.268833 85.2105 v 1.05834 1.05833 h -1.058333 -1.058334 v 1.05833 1.05834 h 1.058334 1.058333 v 1.05833 1.05833 h -1.058333 -1.058334 v 1.05834 1.05833 h 1.058334 1.058333 v 1.05833 1.05834 h -1.058333 -1.058334 v 1.05833 1.05833 h 1.058334 1.058333 v 1.05834 1.05833 h 1.058333 1.058334 v 1.05833 1.05834 h 1.058333 1.058333 v -1.05834 -1.05833 h 1.058333 1.058334 v 1.05833 1.05834 h 1.058333 1.058333 v 1.05833 1.05833 h 1.058334 1.058333 v -1.05833 -1.05833 h 1.058333 1.058334 v 1.05833 1.05833 h 1.058333 1.058337 v 1.05834 1.05833 h 1.05833 1.05833 v 1.05833 1.05834 h 1.05834 1.05833 v 1.05833 1.05833 h 1.05833 1.05834 v 1.05834 1.05833 h 3.175 3.175 v -1.05833 -1.05834 h 1.05833 1.05833 v 1.05834 1.05833 h 1.05833 1.05834 v 1.05833 1.05834 h 1.05833 1.05833 z m -12.69999,-2.11667 v -1.05833 h -1.05834 -1.05833 v -1.05834 -1.05833 h -1.05833 -1.05834 v -1.05833 -1.05834 h -1.05833 -1.05833 v -1.05833 -1.05833 H 98.968833 97.9105 v -1.05834 -1.05833 h -1.058334 -1.058333 v 1.05833 1.05834 H 94.7355 93.677166 v -1.05834 -1.05833 H 92.618833 91.5605 v -1.05833 -1.05834 h -1.058334 -1.058333 v 1.05834 1.05833 H 88.3855 87.327167 v -1.05833 -1.05834 H 86.268833 85.2105 v -1.05833 -1.05833 h 1.058333 1.058334 v -1.05834 -1.05833 H 86.268833 85.2105 v -1.05833 -1.05834 h 1.058333 1.058334 v -1.05833 -1.05833 H 86.268833 85.2105 v -1.05834 -1.05833 h 1.058333 1.058334 v 1.05833 1.05834 h 1.058333 1.058333 v 1.05833 1.05833 h 1.058333 1.058334 v 1.05834 1.05833 h 1.058333 1.058333 v 1.05833 1.05834 h 1.058334 1.058333 v 1.05833 1.05833 h 1.058333 1.058334 v 1.05834 1.05833 h 1.058333 1.058337 v -1.05833 -1.05834 h 1.05833 1.05833 v 1.05834 1.05833 h 1.05834 1.05833 v 1.05833 1.05834 h 1.05833 1.05834 v 1.05833 1.05833 h 1.05833 1.05833 v -1.05833 -1.05833 h 1.05834 1.05833 v 1.05833 1.05833 h 1.05833 1.05834 v 1.05834 1.05833 h 1.05833 1.05833 v -1.05833 -1.05834 h 1.05833 1.05834 v -1.05833 -1.05833 h 1.05833 1.05833 v -1.05834 -1.05833 h 1.05834 1.05833 v 1.05833 1.05834 h 1.05833 1.05834 v -1.05834 -1.05833 h 1.05833 1.05833 v -1.05833 -1.05834 h 1.05834 1.05833 v -1.05833 -1.05833 h -1.05833 -1.05834 v -1.05834 -1.05833 h 1.05834 1.05833 v 1.05833 1.05834 h 1.05833 1.05834 v 1.05833 1.05833 h 1.05833 1.05833 v 1.05834 1.05833 h 1.05834 1.05833 v 1.05833 1.05834 h 1.05833 1.05834 v 1.05833 1.05833 h 1.05833 1.05833 v -1.05833 -1.05833 h 1.05834 1.05833 v 1.05833 1.05833 h 1.05833 1.05834 v 1.05834 1.05833 h 1.05833 1.05833 v 1.05833 1.05834 h -1.05833 -1.05833 v -1.05834 -1.05833 h -1.05834 -1.05833 v -1.05833 -1.05834 h -1.05833 -1.05834 v 1.05834 1.05833 h -1.05833 -1.05833 v 1.05833 1.05834 h -1.05834 -1.05833 v -1.05834 -1.05833 h -1.05833 -1.05834 v 1.05833 1.05834 h -1.05833 -1.05833 v 1.05833 1.05833 h -1.05834 -1.05833 v -1.05833 -1.05833 h -1.05833 -1.05834 v -1.05834 -1.05833 h -1.05833 -1.05833 v -1.05833 -1.05834 h -1.05834 -1.05833 v 1.05834 1.05833 h -1.05833 -1.05834 v 1.05833 1.05834 h -1.05833 -1.05833 v 1.05833 1.05833 h -1.05834 -1.05833 v -1.05833 -1.05833 h -1.05833 -1.05833 v 1.05833 1.05833 h -1.05834 -1.05833 v -1.05833 -1.05833 h -1.05833 -1.05834 v 1.05833 1.05833 h -1.05833 -1.05833 z m 2.11666,-2.11667 v -1.05833 h 1.05834 1.05833 v 1.05833 1.05834 h 1.05833 1.05834 v -1.05834 -1.05833 h -1.05834 -1.05833 v -1.05833 -1.05834 h -1.05833 -1.05834 v 1.05834 1.05833 h -1.05833 -1.05833 v -1.05833 -1.05834 h -1.05834 -1.05833 v -1.05833 -1.05833 h -1.05833 -1.05834 v -1.05834 -1.05833 h -1.05833 -1.05833 v 1.05833 1.05834 h 1.05833 1.05833 v 1.05833 1.05833 h 1.05834 1.05833 v 1.05834 1.05833 h 1.05833 1.05834 v 1.05833 1.05834 h 1.05833 1.05833 z m 8.46667,0 v -1.05833 h 1.05833 1.05833 v -1.05833 -1.05834 h 1.05834 1.05833 v -1.05833 -1.05833 h -1.05833 -1.05834 v 1.05833 1.05833 h -1.05833 -1.05833 v 1.05834 1.05833 h -1.05834 -1.05833 v 1.05833 1.05834 h 1.05833 1.05834 z m 12.7,0 v -1.05833 h 1.05833 1.05833 v -1.05833 -1.05834 h 1.05834 1.05833 v 1.05834 1.05833 h 1.05833 1.05834 v -1.05833 -1.05834 h -1.05834 -1.05833 v -1.05833 -1.05833 h -1.05833 -1.05834 v -1.05834 -1.05833 h -1.05833 -1.05833 v -1.05833 -1.05834 h -1.05834 -1.05833 v 1.05834 1.05833 h -1.05833 -1.05834 v 1.05833 1.05834 h -1.05833 -1.05833 v 1.05833 1.05833 h 1.05833 1.05833 v 1.05834 1.05833 h 1.05834 1.05833 v 1.05833 1.05834 h 1.05833 1.05834 z m -2.11667,-2.11666 v -1.05834 h -1.05833 -1.05834 v -1.05833 -1.05833 h 1.05834 1.05833 v -1.05834 -1.05833 h 1.05833 1.05834 v 1.05833 1.05834 h 1.05833 1.05833 v 1.05833 1.05833 h -1.05833 -1.05833 v 1.05834 1.05833 h -1.05834 -1.05833 z m 2.11667,-2.11667 v -1.05833 h -1.05834 -1.05833 v 1.05833 1.05833 h 1.05833 1.05834 z m -33.866667,-4.23333 v -1.05834 H 94.7355 93.677166 v -1.05833 -1.05833 H 92.618833 91.5605 v -1.05834 -1.05833 h -1.058334 -1.058333 v -1.05833 -1.05834 H 88.3855 87.327167 v 1.05834 1.05833 h 1.058333 1.058333 v 1.05833 1.05834 H 88.3855 87.327167 v 1.05833 1.05833 h 1.058333 1.058333 v -1.05833 -1.05833 h 1.058333 1.058334 v 1.05833 1.05833 h 1.058333 1.058333 v 1.05834 1.05833 h 1.058334 1.058333 z m 55.033327,14.81666 v -1.05833 h 3.175 3.175 v -1.05833 -1.05834 h -4.23333 -4.23333 v 1.05834 1.05833 h -2.11667 -2.11667 v 1.05833 1.05834 h 3.175 3.175 z m 10.58334,-16.93333 v -1.05833 h 2.11666 2.11667 v -1.05834 -1.05833 h 1.05833 1.05834 v -2.11667 -2.11666 h 1.05833 1.05833 v -5.29167 -5.29167 h -1.05833 -1.05833 v -2.11666 -2.11667 h -1.05834 -1.05833 v -1.05833 -1.05834 h -2.11667 -2.11666 v -1.05833 -1.05833 h 3.175 3.175 v -2.11667 -2.11667 h -1.05834 -1.05833 v -1.05833 -1.05833 h -2.11667 -2.11666 v 3.175 3.175 h -5.29167 -5.29167 v 1.05833 1.05833 h -1.05833 -1.05833 v -4.23333 -4.23333 h -3.175 -3.175 v 1.05833 1.05833 h -1.05834 -1.05833 v 3.175 3.175 h 3.175 3.175 v 1.05834 1.05833 h -1.05833 -1.05834 v 2.11667 2.11666 h -1.05833 -1.05833 v 5.29167 5.29167 h 1.05833 1.05833 v 2.11666 2.11667 h 1.05834 1.05833 v 1.05833 1.05834 h 2.11667 2.11666 v 1.05833 1.05833 h 5.29167 5.29167 z m 19.05,-27.51667 v -1.05833 h 2.11666 2.11667 v -3.175 -3.175 h -1.05833 -1.05834 v -1.05833 -1.05834 h -4.23333 -4.23333 v 2.11667 2.11667 h 1.05833 1.05833 v 2.11666 2.11667 h 1.05834 1.05833 v 1.05833 1.05834 h 1.05833 1.05834 z m -55.03334,-6.35 v -1.05833 h 1.05834 1.05833 v -1.05833 -1.05834 h 2.11667 2.11666 v -3.175 -3.175 h -2.11666 -2.11667 v -1.05833 -1.05833 h -2.11667 -2.11666 v 1.05833 1.05833 h -1.05834 -1.05833 v 1.05834 1.05833 h -1.05833 -1.05834 v 3.175 3.175 h 1.05834 1.05833 v 1.05833 1.05834 h 2.11667 2.11666 z m 14.81667,57.15 v -1.05833 h 1.05833 1.05834 v 1.05833 1.05834 h -1.05834 -1.05833 z m 12.7,-2.11666 v -1.05834 h 2.11667 2.11666 v 1.05834 1.05833 h -2.11666 -2.11667 z m 10.58333,-2.11667 v -1.05833 h 1.05834 1.05833 v 1.05833 1.05833 h -1.05833 -1.05834 z m -80.433327,-57.15 v -1.05833 H 82.0355 80.977167 v -1.05834 -1.05833 h 1.058333 1.058333 v 1.05833 1.05834 h 2.116667 2.116667 v 1.05833 1.05833 H 85.2105 83.093833 Z m 10.583333,-4.23333 v -1.05834 H 91.5605 89.443833 v -1.05833 -1.05833 h -3.175 -3.175 v -1.05834 -1.05833 H 82.0355 80.977167 v -1.05833 -1.05834 h 4.233333 4.233333 v 1.05834 1.05833 h 2.116667 2.116666 v 1.05833 1.05834 h 1.058334 1.058333 v 1.05833 1.05833 h 1.058333 1.058334 v 1.05834 1.05833 h -2.116667 -2.116667 z m 59.266664,-16.93334 v -1.05833 h -1.05833 -1.05834 v -1.05833 -1.05834 h -1.05833 -1.05833 v -1.05833 -1.05833 h 1.05833 1.05833 v -1.05834 -1.05833 h -1.05833 -1.05833 v -1.05833 -1.05834 h -1.05834 -1.05833 v 1.05834 1.05833 h -1.05833 -1.05834 v -1.05833 -1.05834 h 1.05834 1.05833 v -1.05833 -1.05833 h -1.05833 -1.05834 v -1.05834 -1.05833 h -1.05833 -1.05833 v -1.05834 -1.05833 h -1.05834 -1.05833 v -1.05833 -1.05834 h 1.05833 1.05834 v -1.05833 -1.05833 h -1.05834 -1.05833 v -1.05834 -1.05833 h 1.05833 1.05834 v 1.05833 1.05834 h 1.05833 1.05833 v 1.05833 1.05833 h 1.05834 1.05833 v -1.05833 -1.05833 h 1.05833 1.05834 v 1.05833 1.05833 h 1.05833 1.05833 v -1.05833 -1.05833 h 1.05834 1.05833 v 1.05833 1.05833 h 1.05833 1.05834 v 1.05834 1.05833 h 1.05833 1.05833 v -1.05833 -1.05834 h 1.05834 1.05833 v -1.05833 -1.05833 h 1.05833 1.05834 v 1.05833 1.05833 h -1.05834 -1.05833 v 1.05834 1.05833 h 1.05833 1.05834 v 1.05833 1.05834 h 1.05833 1.05833 v -1.05834 -1.05833 h 1.05834 1.05833 v -1.05833 -1.05834 h 1.05833 1.05834 v 1.05834 1.05833 h -1.05834 -1.05833 v 1.05833 1.05834 h 1.05833 1.05834 v 1.05833 1.05834 h 1.05833 1.05833 v -1.05834 -1.05833 h 1.05834 1.05833 v 1.05833 1.05834 h -1.05833 -1.05834 v 1.05833 1.05833 h -1.05833 -1.05833 v 1.05834 1.05833 h -1.05834 -1.05833 v -1.05833 -1.05834 h -1.05833 -1.05834 v 1.05834 1.05833 h -1.05833 -1.05833 v 1.05833 1.05834 h -1.05834 -1.05833 v 1.05833 1.05833 h -1.05833 -1.05834 v 1.05834 1.05833 h -1.05833 -1.05833 v 1.05833 1.05834 h -1.05834 -1.05833 z m 2.11667,-2.11666 v -1.05834 h 1.05833 1.05833 v -1.05833 -1.05833 h 1.05834 1.05833 v -1.05834 -1.05833 h 1.05833 1.05834 v -1.05833 -1.05834 h 1.05833 1.05833 v -1.05833 -1.05833 h 1.05834 1.05833 v 1.05833 1.05833 h 1.05833 1.05834 v -1.05833 -1.05833 h -1.05834 -1.05833 v -1.05834 -1.05833 h -1.05833 -1.05834 v 1.05833 1.05834 h -1.05833 -1.05833 v -1.05834 -1.05833 h -1.05834 -1.05833 v -1.05834 -1.05833 h -1.05833 -1.05834 v 1.05833 1.05834 h -1.05833 -1.05833 v -1.05834 -1.05833 h -1.05834 -1.05833 v -1.05833 -1.05834 h -1.05833 -1.05834 v 1.05834 1.05833 h -1.05833 -1.05833 v -1.05833 -1.05834 h -1.05834 -1.05833 v 1.05834 1.05833 h -1.05833 -1.05834 v -1.05833 -1.05834 h -1.05833 -1.05833 v 1.05834 1.05833 h 1.05833 1.05833 v 1.05833 1.05834 h 1.05834 1.05833 v 1.05833 1.05834 h 1.05833 1.05834 v 1.05833 1.05833 h 1.05833 1.05833 v 1.05834 1.05833 h 1.05834 1.05833 v 1.05833 1.05834 h -1.05833 -1.05834 v 1.05833 1.05833 h 1.05834 1.05833 v 1.05834 1.05833 h 1.05833 1.05834 z m -2.11667,-2.11667 v -1.05833 h 1.05833 1.05834 v -1.05834 -1.05833 h -1.05834 -1.05833 v -1.05833 -1.05834 h -1.05833 -1.05834 v -1.05833 -1.05833 h -1.05833 -1.05833 v -1.05834 -1.05833 h 1.05833 1.05833 v 1.05833 1.05834 h 1.05834 1.05833 v 1.05833 1.05833 h 1.05833 1.05834 v -1.05833 -1.05833 h 1.05833 1.05833 v 1.05833 1.05833 h 1.05834 1.05833 v -1.05833 -1.05833 h 1.05833 1.05834 v 1.05833 1.05833 h -1.05834 -1.05833 v 1.05834 1.05833 h -1.05833 -1.05834 v 1.05833 1.05834 h -1.05833 -1.05833 v 1.05833 1.05833 h -1.05834 -1.05833 z m 4.23333,-4.23333 v -1.05834 h -1.05833 -1.05833 v 1.05834 1.05833 h 1.05833 1.05833 z m 14.81667,-10.58334 v -1.05833 h -1.05833 -1.05834 v -1.05834 -1.05833 h 1.05834 1.05833 v -1.05833 -1.05834 h 1.05833 1.05834 v 1.05834 1.05833 h -1.05834 -1.05833 v 1.05833 1.05834 h 1.05833 1.05834 v 1.05833 1.05833 h -1.05834 -1.05833 z m -8.46667,-4.23333 v -1.05834 h 1.05834 1.05833 v 1.05834 1.05833 h -1.05833 -1.05834 z m -23.28333,-2.11667 v -1.05833 h 1.05833 1.05834 v -1.05834 -1.05833 h 1.05833 1.05833 v 1.05833 1.05834 h -1.05833 -1.05833 v 1.05833 1.05833 h -1.05834 -1.05833 z m 10.58333,-2.11667 v -1.05833 h 1.05834 1.05833 v 1.05833 1.05834 h -1.05833 -1.05834 z m 16.93334,0 v -1.05833 h 1.05833 1.05833 v 1.05833 1.05834 h -1.05833 -1.05833 z m 4.23333,0 v -1.05833 h 1.05833 1.05834 v -1.058333 -1.05834 h 1.05833 1.05833 v 1.05834 1.058333 h -1.05833 -1.05833 v 1.05833 1.05834 h -1.05834 -1.05833 z M 161.4105,95.330067 v -1.05833 h 1.05833 1.05833 v 1.05833 1.05834 h -1.05833 -1.05833 z"
         style="fill:#981010;stroke-width:4" />
      <path
         id="path2277"
         d="m 119.07716,118.61341 v -1.05833 h 2.11667 2.11667 v 1.05833 1.05833 h -2.11667 -2.11667 z m 6.35,0 v -1.05833 h 2.11667 2.11667 v 1.05833 1.05833 h -2.11667 -2.11667 z m -46.56666,-9.525 v -2.11667 h 3.175 3.175 v 1.05833 1.05834 h 1.058333 1.058334 v 1.05833 1.05833 H 86.268833 85.2105 v -1.05833 -1.05833 h -2.116667 -2.116666 v 1.05833 1.05833 H 79.918833 78.8605 Z"
         style="fill:#0000a9;stroke-width:4" />
      <path
         id="path2275"
         d="m 100.02717,201.16341 v -1.05833 H 98.968833 97.9105 v -1.05834 -1.05833 h -1.058334 -1.058333 v -1.05833 -1.05834 H 94.7355 93.677166 v -1.05833 -1.05833 H 92.618833 91.5605 v 1.05833 1.05833 h -1.058334 -1.058333 v -1.05833 -1.05833 H 88.3855 87.327167 v -1.05834 -1.05833 H 86.268833 85.2105 v -1.05833 -1.05834 h -1.058333 -1.058334 v -1.05833 -1.05833 H 82.0355 80.977167 v -1.05834 -1.05833 h 1.058333 1.058333 v -1.05833 -1.05834 H 82.0355 80.977167 v -1.05833 -1.05833 h 1.058333 1.058333 v -1.05834 -1.05833 h 1.058334 1.058333 v -1.05833 -1.05834 h -1.058333 -1.058334 v -1.05833 -1.05833 h 1.058334 1.058333 v -1.05834 -1.05833 h 1.058333 1.058334 v 1.05833 1.05834 h 1.058333 1.058333 v 1.05833 1.05833 H 88.3855 87.327167 v 1.05834 1.05833 h 1.058333 1.058333 v 1.05833 1.05834 h 1.058333 1.058334 v 1.05833 1.05833 h 1.058333 1.058333 v 1.05834 1.05833 h 1.058334 1.058333 v 1.05833 1.05834 h 1.058333 1.058334 v 1.05833 1.05833 h 1.058333 1.058337 v -1.05833 -1.05833 h 1.05833 1.05833 v 1.05833 1.05833 h 1.05834 1.05833 v 1.05834 1.05833 h 1.05833 1.05834 v 1.05833 1.05834 h 1.05833 1.05833 v -1.05834 -1.05833 h 1.05834 1.05833 v 1.05833 1.05834 h 1.05833 1.05834 v 1.05833 1.05833 h 1.05833 1.05833 v -1.05833 -1.05833 h 1.05833 1.05834 v -1.05834 -1.05833 h 1.05833 1.05833 v -1.05833 -1.05834 h 1.05834 1.05833 v 1.05834 1.05833 h 1.05833 1.05834 v -1.05833 -1.05834 h 1.05833 1.05833 v -1.05833 -1.05833 h -1.05833 -1.05833 v -1.05834 -1.05833 h 1.05833 1.05833 v -1.05833 -1.05834 h 1.05834 1.05833 v 1.05834 1.05833 h 1.05833 1.05834 v 1.05833 1.05834 h 1.05833 1.05833 v 1.05833 1.05833 h 1.05834 1.05833 v 1.05834 1.05833 h 1.05833 1.05834 v 1.05833 1.05834 h 1.05833 1.05833 v -1.05834 -1.05833 h 1.05834 1.05833 v 1.05833 1.05834 h 1.05833 1.05834 v 1.05833 1.05833 h 1.05833 1.05833 v 1.05834 1.05833 h 1.05834 1.05833 v -1.05833 -1.05834 h 1.05833 1.05834 v 1.05834 1.05833 h 1.05833 1.05833 v 1.05833 1.05834 h -1.05833 -1.05833 v -1.05834 -1.05833 h -1.05834 -1.05833 v 1.05833 1.05834 h -1.05833 -1.05834 v -1.05834 -1.05833 h -1.05833 -1.05833 v 1.05833 1.05834 h -1.05834 -1.05833 v -1.05834 -1.05833 h -1.05833 -1.05834 v 1.05833 1.05834 h -1.05833 -1.05833 v 1.05833 1.05833 h -1.05834 -1.05833 v -1.05833 -1.05833 h -1.05833 -1.05834 v 1.05833 1.05833 h -1.05833 -1.05833 v -1.05833 -1.05833 h -1.05834 -1.05833 v -1.05834 -1.05833 h -1.05833 -1.05834 v 1.05833 1.05834 h -1.05833 -1.05833 v -1.05834 -1.05833 h -1.05834 -1.05833 v 1.05833 1.05834 h -1.05833 -1.05834 v -1.05834 -1.05833 h -1.05833 -1.05833 v 1.05833 1.05834 h -1.05834 -1.05833 v 1.05833 1.05833 h -1.05833 -1.05833 v -1.05833 -1.05833 h -1.05834 -1.05833 v 1.05833 1.05833 h -1.05833 -1.05834 v -1.05833 -1.05833 h -1.05833 -1.05833 v 1.05833 1.05833 h -1.05834 -1.05833 v -1.05833 -1.05833 h -1.05833 -1.05834 v 1.05833 1.05833 h -1.05833 -1.05833 z m 2.11666,-2.11667 v -1.05833 h 1.05834 1.05833 v 1.05833 1.05834 h 1.05833 1.05834 v -1.05834 -1.05833 h 1.05833 1.05833 v 1.05833 1.05834 h 1.05834 1.05833 v -1.05834 -1.05833 h 1.05833 1.05834 v 1.05833 1.05834 h 1.05833 1.05833 v -1.05834 -1.05833 h 1.05833 1.05834 v -1.05833 -1.05834 h 1.05833 1.05833 v 1.05834 1.05833 h 1.05834 1.05833 v -1.05833 -1.05834 h 1.05833 1.05834 v 1.05834 1.05833 h 1.05833 1.05833 v -1.05833 -1.05834 h 1.05834 1.05833 v 1.05834 1.05833 h 1.05833 1.05834 v 1.05833 1.05834 h 1.05833 1.05833 v -1.05834 -1.05833 h 1.05834 1.05833 v 1.05833 1.05834 h 1.05833 1.05834 v -1.05834 -1.05833 h 1.05833 1.05833 v -1.05833 -1.05834 h 1.05834 1.05833 v 1.05834 1.05833 h 1.05833 1.05834 v -1.05833 -1.05834 h -1.05834 -1.05833 v -1.05833 -1.05833 h -1.05833 -1.05834 v 1.05833 1.05833 h -1.05833 -1.05833 v -1.05833 -1.05833 h -1.05834 -1.05833 v -1.05834 -1.05833 h -1.05833 -1.05834 v -1.05833 -1.05834 h -1.05833 -1.05833 v -1.05833 -1.05833 h -1.05834 -1.05833 v -1.05834 -1.05833 h -1.05833 -1.05834 v 1.05833 1.05834 h 1.05834 1.05833 v 1.05833 1.05833 h -1.05833 -1.05834 v 1.05834 1.05833 h -1.05833 -1.05833 v 1.05833 1.05834 h -1.05834 -1.05833 v -1.05834 -1.05833 h -1.05833 -1.05834 v 1.05833 1.05834 h -1.05833 -1.05833 v 1.05833 1.05833 h -1.05834 -1.05833 v 1.05834 1.05833 h -1.05833 -1.05833 v -1.05833 -1.05834 h -1.05834 -1.05833 v -1.05833 -1.05833 h -1.05833 -1.05834 v 1.05833 1.05833 h -1.05833 -1.05833 v -1.05833 -1.05833 h -1.05834 -1.05833 v -1.05834 -1.05833 h -1.05833 -1.05834 v -1.05833 -1.05834 h -1.05833 -1.05833 v 1.05834 1.05833 H 98.968833 97.9105 v -1.05833 -1.05834 h -1.058334 -1.058333 v -1.05833 -1.05833 H 94.7355 93.677166 v -1.05834 -1.05833 H 92.618833 91.5605 v -1.05833 -1.05834 h -1.058334 -1.058333 v -1.05833 -1.05833 H 88.3855 87.327167 v -1.05834 -1.05833 H 86.268833 85.2105 v 1.05833 1.05834 h -1.058333 -1.058334 v 1.05833 1.05833 h 1.058334 1.058333 v 1.05834 1.05833 h -1.058333 -1.058334 v 1.05833 1.05834 h 1.058334 1.058333 v 1.05833 1.05833 h 1.058333 1.058334 v 1.05834 1.05833 h 1.058333 1.058333 v 1.05833 1.05834 h 1.058333 1.058334 v -1.05834 -1.05833 h 1.058333 1.058333 v 1.05833 1.05834 h 1.058334 1.058333 v 1.05833 1.05833 h 1.058333 1.058334 v 1.05834 1.05833 h 1.058333 1.058337 v 1.05833 1.05834 h 1.05833 1.05833 z m -2.11666,-2.11666 v -1.05834 H 98.968833 97.9105 v -1.05833 -1.05833 h -1.058334 -1.058333 v -1.05834 -1.05833 H 94.7355 93.677166 v -1.05833 -1.05834 H 92.618833 91.5605 v 1.05834 1.05833 h -1.058334 -1.058333 v -1.05833 -1.05834 H 88.3855 87.327167 v -1.05833 -1.05833 H 86.268833 85.2105 v -1.05834 -1.05833 h 1.058333 1.058334 v -1.05833 -1.05834 H 86.268833 85.2105 v -1.05833 -1.05833 h 1.058333 1.058334 v 1.05833 1.05833 h 1.058333 1.058333 v 1.05834 1.05833 h 1.058333 1.058334 v 1.05833 1.05834 h 1.058333 1.058333 v 1.05833 1.05833 h 1.058334 1.058333 v 1.05834 1.05833 h 1.058333 1.058334 v 1.05833 1.05834 h 1.058333 1.058337 v -1.05834 -1.05833 h 1.05833 1.05833 v 1.05833 1.05834 h 1.05834 1.05833 v 1.05833 1.05833 h 1.05833 1.05834 v 1.05834 1.05833 h -1.05834 -1.05833 v -1.05833 -1.05834 h -1.05833 -1.05834 v 1.05834 1.05833 h -1.05833 -1.05833 z m 2.11666,-2.11667 v -1.05833 h -1.05833 -1.05833 v 1.05833 1.05833 h 1.05833 1.05833 z m -10.58333,-6.35 v -1.05833 h -1.058334 -1.058333 v -1.05834 -1.05833 H 88.3855 87.327167 v 1.05833 1.05834 h 1.058333 1.058333 v 1.05833 1.05833 h 1.058333 1.058334 z m 16.93333,8.46667 v -1.05834 h 1.05834 1.05833 v 1.05834 1.05833 h -1.05833 -1.05834 z m 21.16667,0 v -1.05834 h -1.05834 -1.05833 v -1.05833 -1.05833 h -1.05833 -1.05834 v 1.05833 1.05833 h -1.05833 -1.05833 v -1.05833 -1.05833 h 1.05833 1.05833 v -1.05834 -1.05833 h 1.05834 1.05833 v -1.05833 -1.05834 h 1.05833 1.05834 v 1.05834 1.05833 h 1.05833 1.05833 v 1.05833 1.05834 h 1.05834 1.05833 v 1.05833 1.05833 h 1.05833 1.05834 v 1.05834 1.05833 h -1.05834 -1.05833 v -1.05833 -1.05834 h -1.05833 -1.05834 v 1.05834 1.05833 h -1.05833 -1.05833 z m 2.11666,-2.11667 v -1.05833 h -1.05833 -1.05833 v -1.05834 -1.05833 h -1.05834 -1.05833 v 1.05833 1.05834 h 1.05833 1.05834 v 1.05833 1.05833 h 1.05833 1.05833 z m -12.7,0 v -1.05833 h 1.05834 1.05833 v 1.05833 1.05833 h -1.05833 -1.05834 z m -31.749993,-19.05 v -1.05833 H 86.268833 85.2105 v 1.05833 1.05833 h 1.058333 1.058334 z m 71.966663,6.35 v -1.05833 h -1.05833 -1.05834 v -1.05834 -1.05833 h 1.05834 1.05833 v -2.11667 -2.11666 h -1.05833 -1.05834 v -1.05834 -1.05833 h -1.05833 -1.05833 v -1.05833 -1.05834 h 1.05833 1.05833 v -1.05833 -1.05833 h 3.175 3.175 v 1.05833 1.05833 h 1.05834 1.05833 v 1.05834 1.05833 h -1.05833 -1.05834 v 1.05833 1.05834 h -1.05833 -1.05833 v 2.11666 2.11667 h 1.05833 1.05833 v 1.05833 1.05834 h -1.05833 -1.05833 v 1.05833 1.05833 h -1.05834 -1.05833 z M 87.327167,165.18008 v -1.05834 H 98.968833 110.6105 v 1.05834 1.05833 H 98.968833 87.327167 Z m -6.35,-2.11667 v -1.05833 H 78.8605 76.743833 v -1.05834 -1.05833 H 74.627167 72.5105 v -1.05833 -1.05834 h -1.058333 -1.058333 v -1.05833 -1.05833 H 69.3355 68.277167 v -1.05834 -1.05833 H 67.218834 66.1605 v -1.05833 -1.05834 h -1.058333 -1.058333 v -1.05833 -1.05833 H 62.9855 61.927167 v -1.05834 -1.05833 H 60.868834 59.8105 v -1.05833 -1.05834 h -1.058333 -1.058333 v 1.05834 1.05833 h -4.233333 -4.233334 v 1.05833 1.05834 h -2.116666 -2.116667 v 1.05833 1.05833 h -2.116667 -2.116666 v 1.05834 1.05833 h -2.116667 -2.116666 v 1.05833 1.05834 h -1.058334 -1.058333 v -2.11667 -2.11667 h 2.116667 2.116666 v -1.05833 -1.05833 h 2.116667 2.116666 v -1.05834 -1.05833 h 3.175 3.175 v -1.05833 -1.05834 h 4.233334 4.233333 v -2.11666 -2.11667 h 1.058333 1.058333 v 2.11667 2.11666 h 1.058334 1.058333 v 1.05834 1.05833 h 1.058333 1.058334 v 1.05833 1.05834 h 1.058333 1.058333 v 1.05833 1.05833 h 1.058334 1.058333 v 1.05834 1.05833 h 1.058333 1.058334 v 1.05833 1.05834 h 1.058333 1.058333 v 1.05833 1.05833 h 2.116667 2.116666 v 1.05834 1.05833 h 2.116667 2.116667 v 1.05833 1.05834 h 2.116666 2.116667 v 1.05833 1.05833 h -2.116667 -2.116666 z m 59.266663,-2.11667 v -3.175 h 1.05833 1.05834 v -1.05833 -1.05833 h 3.175 3.175 v 4.23333 4.23333 h -4.23334 -4.23333 z m 21.16667,-2.11666 v -3.175 h 2.11666 2.11667 v 1.05833 1.05833 h 1.05833 1.05834 v 2.11667 2.11667 h -3.175 -3.175 z m -76.2,-12.7 v -1.05834 h -1.058333 -1.058334 v -1.05833 -1.05833 h 3.175 3.175 v 1.05833 1.05833 h 2.116667 2.116666 v 1.05834 1.05833 H 89.443833 85.2105 Z m 76.2,-4.23334 v -1.05833 h 1.05833 1.05833 v -1.05833 -1.05834 h 1.05834 1.05833 v -1.05833 -1.05833 h 1.05833 1.05834 v -1.05834 -1.05833 h 1.05833 1.05833 v -2.11667 -2.11666 h 1.05834 1.05833 v 2.11666 2.11667 h -1.05833 -1.05834 v 1.05833 1.05834 h -1.05833 -1.05833 v 1.05833 1.05833 h -1.05834 -1.05833 v 1.05834 1.05833 h -1.05833 -1.05834 v 1.05833 1.05834 h -1.05833 -1.05833 z M 55.577167,133.43008 v -5.29167 h 1.058334 1.058333 v 5.29167 5.29166 h -1.058333 -1.058334 z m 40.216666,0 v -1.05834 h 2.116667 2.11667 v 1.05834 1.05833 H 97.9105 95.793833 Z m -8.466666,-2.11667 v -1.05833 h 2.116666 2.116667 v 1.05833 1.05833 h -2.116667 -2.116666 z m -29.633333,-7.40833 v -2.11667 h 1.058333 1.058333 v 2.11667 2.11666 h -1.058333 -1.058333 z m 74.083326,-1.05834 v -1.05833 h -1.05833 -1.05833 v -2.11667 -2.11666 h 1.05833 1.05833 v 1.05833 1.05833 h 1.05834 1.05833 v 2.11667 2.11667 h -1.05833 -1.05834 z m -19.04999,-2.11666 v -1.05834 h 1.05833 1.05833 v -1.05833 -1.05833 h 1.05833 1.05834 v 1.05833 1.05833 h -1.05834 -1.05833 v 1.05834 1.05833 h -1.05833 -1.05833 z m 10.58333,-1.05834 v -2.11666 h -2.11667 -2.11667 v -1.05834 -1.05833 h 4.23334 4.23333 v 1.05833 1.05834 h -1.05833 -1.05834 v 1.05833 1.05833 h 1.05834 1.05833 v 1.05834 1.05833 h -2.11667 -2.11666 z m -63.5,-1.05833 v -1.05833 h 1.058334 1.058333 v -1.05834 -1.05833 h 1.058333 1.058334 v -2.11667 -2.11667 h 1.058333 1.058333 v 2.11667 2.11667 h -1.058333 -1.058333 v 1.05833 1.05834 H 62.9855 61.927167 v 1.05833 1.05833 H 60.868834 59.8105 Z m 29.633333,-5.29167 v -2.11667 H 88.3855 87.327167 v -1.05833 -1.05833 H 86.268833 85.2105 v 2.11666 2.11667 h -1.058333 -1.058334 v -2.11667 -2.11666 h 1.058334 1.058333 v -1.05834 -1.05833 h -4.233333 -4.233334 v -1.05833 -1.05834 h 4.233334 4.233333 v 1.05834 1.05833 h 2.116667 2.116666 v 1.05833 1.05834 h 1.058333 1.058334 v 3.175 3.175 h -1.058334 -1.058333 z"
         style="fill:#000000;stroke-width:4" />
    </g>
  </g>
</svg>
