<?xml version="1.0" encoding="UTF-8" standalone="no"?>
<!-- Created with Inkscape (http://www.inkscape.org/) -->

<svg
   xmlns:dc="http://purl.org/dc/elements/1.1/"
   xmlns:cc="http://creativecommons.org/ns#"
   xmlns:rdf="http://www.w3.org/1999/02/22-rdf-syntax-ns#"
   xmlns:svg="http://www.w3.org/2000/svg"
   xmlns="http://www.w3.org/2000/svg"
   xmlns:sodipodi="http://sodipodi.sourceforge.net/DTD/sodipodi-0.dtd"
   xmlns:inkscape="http://www.inkscape.org/namespaces/inkscape"
   width="421.40637"
   height="421.4064"
   id="svg2"
   version="1.1"
   inkscape:version="0.92.2pre0 (973e216, 2017-07-25)"
   sodipodi:docname="bersaglio_carabina_10m_10x10.svg">
  <defs
     id="defs4" />
  <sodipodi:namedview
     id="base"
     pagecolor="#ffffff"
     bordercolor="#666666"
     borderopacity="1.0"
     inkscape:pageopacity="0.0"
     inkscape:pageshadow="2"
     inkscape:zoom="0.4330347"
     inkscape:cx="-21.91068"
     inkscape:cy="515.63493"
     inkscape:document-units="px"
     inkscape:current-layer="layer1"
     showgrid="false"
     units="cm"
     inkscape:window-width="1600"
     inkscape:window-height="818"
     inkscape:window-x="0"
     inkscape:window-y="0"
     inkscape:window-maximized="1"
     inkscape:snap-bbox="true"
     inkscape:snap-bbox-midpoints="true"
     inkscape:object-paths="false"
     inkscape:bbox-nodes="true"
     inkscape:snap-global="true" />
  <metadata
     id="metadata7">
    <rdf:RDF>
      <cc:Work
         rdf:about="">
        <dc:format>image/svg+xml</dc:format>
        <dc:type
           rdf:resource="http://purl.org/dc/dcmitype/StillImage" />
        <dc:title />
      </cc:Work>
    </rdf:RDF>
  </metadata>
  <g
     inkscape:label="Livello 1"
     inkscape:groupmode="layer"
     id="layer1"
     transform="translate(33.004496,-663.95947)">
    <g
       id="g1232">
      <path
         id="rect3076"
         d="M -11.277695,685.68628 H 366.67506 V 1063.639 H -11.277695 Z"
         style="fill:#ffeabf;fill-opacity:1;fill-rule:nonzero;stroke:none;stroke-width:1.06968558;stroke-linecap:round;stroke-linejoin:round;stroke-miterlimit:4;stroke-dasharray:none;stroke-dashoffset:0;stroke-opacity:1"
         inkscape:connector-curvature="0" />
      <path
         d="m 97.502254,1077.9491 v 2.6709 h 1.58203 q 0.7959,0 1.176756,-0.3272 0.38574,-0.332 0.38574,-1.0107 0,-0.6836 -0.38574,-1.0059 -0.380856,-0.3271 -1.176756,-0.3271 z m 0,-2.9981 v 2.1973 h 1.45996 q 0.72266,0 1.074216,-0.2685 0.35645,-0.2735 0.35645,-0.8301 0,-0.5518 -0.35645,-0.8252 -0.351556,-0.2735 -1.074216,-0.2735 z m -0.98632,-0.8105 h 2.51953 q 1.127926,0 1.738276,0.4688 0.61035,0.4687 0.61035,1.333 0,0.6689 -0.3125,1.0644 -0.3125,0.3955 -0.91797,0.4932 0.72754,0.1562 1.12793,0.6543 0.40527,0.4931 0.40527,1.2353 0,0.9766 -0.66406,1.5088 -0.66406,0.5322 -1.889646,0.5322 h -2.61718 z"
         style="font-style:normal;font-variant:normal;font-weight:normal;font-stretch:normal;font-size:10px;line-height:1.25;font-family:sans-serif;-inkscape-font-specification:Sans;text-align:start;letter-spacing:0px;word-spacing:0px;writing-mode:lr-tb;text-anchor:start;fill:#000000;fill-opacity:1;stroke:none"
         id="path891"
         inkscape:connector-curvature="0" />
      <path
         d="m 108.01007,1078.4716 v 0.4394 h -4.13086 q 0.0586,0.9277 0.55664,1.416 0.50293,0.4834 1.39648,0.4834 0.51758,0 1.00098,-0.1269 0.48828,-0.127 0.9668,-0.3809 v 0.8496 q -0.4834,0.2051 -0.99122,0.3125 -0.50781,0.1074 -1.03027,0.1074 -1.30859,0 -2.07519,-0.7617 -0.76172,-0.7617 -0.76172,-2.0605 0,-1.3428 0.72265,-2.1289 0.72754,-0.791 1.95801,-0.791 1.10352,0 1.74316,0.7128 0.64454,0.7081 0.64454,1.9288 z m -0.89844,-0.2637 q -0.01,-0.7373 -0.41504,-1.1768 -0.40039,-0.4394 -1.06445,-0.4394 -0.75196,0 -1.20606,0.4248 -0.44922,0.4248 -0.51758,1.1963 z"
         style="font-style:normal;font-variant:normal;font-weight:normal;font-stretch:normal;font-size:10px;line-height:1.25;font-family:sans-serif;-inkscape-font-specification:Sans;text-align:start;letter-spacing:0px;word-spacing:0px;writing-mode:lr-tb;text-anchor:start;fill:#000000;fill-opacity:1;stroke:none"
         id="path893"
         inkscape:connector-curvature="0" />
      <path
         d="m 112.65362,1076.8016 q -0.15137,-0.088 -0.33203,-0.1269 -0.17578,-0.044 -0.39063,-0.044 -0.76171,0 -1.17187,0.4981 -0.40527,0.4931 -0.40527,1.4209 v 2.8808 h -0.90332 v -5.4687 h 0.90332 v 0.8496 q 0.2832,-0.498 0.7373,-0.7373 0.4541,-0.2441 1.10352,-0.2441 0.0928,0 0.20507,0.015 0.11231,0.01 0.24903,0.034 z"
         style="font-style:normal;font-variant:normal;font-weight:normal;font-stretch:normal;font-size:10px;line-height:1.25;font-family:sans-serif;-inkscape-font-specification:Sans;text-align:start;letter-spacing:0px;word-spacing:0px;writing-mode:lr-tb;text-anchor:start;fill:#000000;fill-opacity:1;stroke:none"
         id="path895"
         inkscape:connector-curvature="0" />
      <path
         d="m 117.0921,1076.1229 v 0.8496 q -0.38086,-0.1953 -0.79102,-0.2929 -0.41015,-0.098 -0.84961,-0.098 -0.66894,0 -1.00586,0.2051 -0.33203,0.2051 -0.33203,0.6152 0,0.3125 0.23926,0.4932 0.23926,0.1758 0.96191,0.3369 l 0.30762,0.068 q 0.95703,0.205 1.35742,0.581 0.40528,0.3711 0.40528,1.0401 0,0.7617 -0.60547,1.206 -0.60059,0.4443 -1.65528,0.4443 -0.43945,0 -0.91796,-0.088 -0.47364,-0.083 -1.00098,-0.254 v -0.9277 q 0.49805,0.2588 0.98144,0.3906 0.4834,0.127 0.95704,0.127 0.63476,0 0.97656,-0.2149 0.34179,-0.2197 0.34179,-0.6152 0,-0.3662 -0.24902,-0.5615 -0.24414,-0.1953 -1.0791,-0.376 l -0.3125,-0.073 q -0.83496,-0.1758 -1.20606,-0.5371 -0.37109,-0.3663 -0.37109,-1.001 0,-0.7715 0.54688,-1.1914 0.54687,-0.4199 1.55273,-0.4199 0.49805,0 0.9375,0.073 0.43945,0.073 0.81055,0.2197 z"
         style="font-style:normal;font-variant:normal;font-weight:normal;font-stretch:normal;font-size:10px;line-height:1.25;font-family:sans-serif;-inkscape-font-specification:Sans;text-align:start;letter-spacing:0px;word-spacing:0px;writing-mode:lr-tb;text-anchor:start;fill:#000000;fill-opacity:1;stroke:none"
         id="path897"
         inkscape:connector-curvature="0" />
      <path
         d="m 121.30596,1078.6815 q -1.08886,0 -1.50878,0.249 -0.41993,0.2491 -0.41993,0.8497 0,0.4785 0.3125,0.7617 0.31739,0.2783 0.85938,0.2783 0.74707,0 1.19629,-0.5274 0.4541,-0.5322 0.4541,-1.4111 v -0.2002 z m 1.792,-0.3711 v 3.1201 h -0.89844 v -0.83 q -0.30762,0.498 -0.7666,0.7373 -0.45899,0.2343 -1.12305,0.2343 -0.83984,0 -1.33789,-0.4687 -0.49316,-0.4736 -0.49316,-1.2647 0,-0.9228 0.61523,-1.3916 0.62012,-0.4687 1.8457,-0.4687 h 1.25977 v -0.088 q 0,-0.6201 -0.41016,-0.957 -0.40527,-0.3418 -1.14258,-0.3418 -0.46875,0 -0.91308,0.1123 -0.44434,0.1123 -0.85449,0.3369 v -0.8301 q 0.49316,-0.1904 0.95703,-0.2832 0.46387,-0.098 0.90332,-0.098 1.18652,0 1.77246,0.6152 0.58594,0.6152 0.58594,1.8652 z"
         style="font-style:normal;font-variant:normal;font-weight:normal;font-stretch:normal;font-size:10px;line-height:1.25;font-family:sans-serif;-inkscape-font-specification:Sans;text-align:start;letter-spacing:0px;word-spacing:0px;writing-mode:lr-tb;text-anchor:start;fill:#000000;fill-opacity:1;stroke:none"
         id="path899"
         inkscape:connector-curvature="0" />
      <path
         d="m 128.55206,1078.6327 q 0,-0.9766 -0.40528,-1.5137 -0.40039,-0.5371 -1.12792,-0.5371 -0.72266,0 -1.12793,0.5371 -0.4004,0.5371 -0.4004,1.5137 0,0.9717 0.4004,1.5088 0.40527,0.5371 1.12793,0.5371 0.72753,0 1.12792,-0.5371 0.40528,-0.5371 0.40528,-1.5088 z m 0.89844,2.1191 q 0,1.3965 -0.62012,2.0752 -0.62012,0.6836 -1.89942,0.6836 -0.47363,0 -0.89355,-0.073 -0.41992,-0.068 -0.81543,-0.2149 v -0.874 q 0.39551,0.2149 0.78125,0.3174 0.38574,0.1025 0.78613,0.1025 0.88379,0 1.32325,-0.4638 0.43945,-0.459 0.43945,-1.3916 v -0.4444 q -0.27832,0.4834 -0.71289,0.7227 -0.43457,0.2392 -1.04004,0.2392 -1.00586,0 -1.6211,-0.7666 -0.61523,-0.7666 -0.61523,-2.0312 0,-1.2695 0.61523,-2.0361 0.61524,-0.7666 1.6211,-0.7666 0.60547,0 1.04004,0.2392 0.43457,0.2393 0.71289,0.7227 v -0.8301 h 0.89844 z"
         style="font-style:normal;font-variant:normal;font-weight:normal;font-stretch:normal;font-size:10px;line-height:1.25;font-family:sans-serif;-inkscape-font-specification:Sans;text-align:start;letter-spacing:0px;word-spacing:0px;writing-mode:lr-tb;text-anchor:start;fill:#000000;fill-opacity:1;stroke:none"
         id="path901"
         inkscape:connector-curvature="0" />
      <path
         d="m 131.30108,1073.8329 h 0.89844 v 7.5976 h -0.89844 z"
         style="font-style:normal;font-variant:normal;font-weight:normal;font-stretch:normal;font-size:10px;line-height:1.25;font-family:sans-serif;-inkscape-font-specification:Sans;text-align:start;letter-spacing:0px;word-spacing:0px;writing-mode:lr-tb;text-anchor:start;fill:#000000;fill-opacity:1;stroke:none"
         id="path903"
         inkscape:connector-curvature="0" />
      <path
         d="m 134.07452,1075.9618 h 0.89844 v 5.4687 h -0.89844 z m 0,-2.1289 h 0.89844 v 1.1377 h -0.89844 z"
         style="font-style:normal;font-variant:normal;font-weight:normal;font-stretch:normal;font-size:10px;line-height:1.25;font-family:sans-serif;-inkscape-font-specification:Sans;text-align:start;letter-spacing:0px;word-spacing:0px;writing-mode:lr-tb;text-anchor:start;fill:#000000;fill-opacity:1;stroke:none"
         id="path905"
         inkscape:connector-curvature="0" />
      <path
         d="m 138.9671,1076.5917 q -0.72266,0 -1.14258,0.5664 -0.41992,0.5615 -0.41992,1.5429 0,0.9815 0.41504,1.5479 0.41992,0.5615 1.14746,0.5615 0.71777,0 1.13769,-0.5664 0.41992,-0.5664 0.41992,-1.543 0,-0.9716 -0.41992,-1.538 -0.41992,-0.5713 -1.13769,-0.5713 z m 0,-0.7617 q 1.17187,0 1.84082,0.7617 0.66894,0.7617 0.66894,2.1093 0,1.3428 -0.66894,2.1094 -0.66895,0.7617 -1.84082,0.7617 -1.17676,0 -1.84571,-0.7617 -0.66406,-0.7666 -0.66406,-2.1094 0,-1.3476 0.66406,-2.1093 0.66895,-0.7617 1.84571,-0.7617 z"
         style="font-style:normal;font-variant:normal;font-weight:normal;font-stretch:normal;font-size:10px;line-height:1.25;font-family:sans-serif;-inkscape-font-specification:Sans;text-align:start;letter-spacing:0px;word-spacing:0px;writing-mode:lr-tb;text-anchor:start;fill:#000000;fill-opacity:1;stroke:none"
         id="path907"
         inkscape:connector-curvature="0" />
      <path
         d="m 150.08038,1076.1718 v 0.8398 q -0.38086,-0.21 -0.7666,-0.3125 -0.38086,-0.1074 -0.77149,-0.1074 -0.87402,0 -1.35742,0.5566 -0.4834,0.5518 -0.4834,1.5527 0,1.001 0.4834,1.5577 0.4834,0.5517 1.35742,0.5517 0.39063,0 0.77149,-0.1025 0.38574,-0.1074 0.7666,-0.3174 v 0.8301 q -0.37598,0.1758 -0.78125,0.2637 -0.40039,0.088 -0.85449,0.088 -1.23536,0 -1.96289,-0.7763 -0.72754,-0.7764 -0.72754,-2.0948 0,-1.3378 0.73242,-2.1044 0.7373,-0.7666 2.0166,-0.7666 0.41504,0 0.81055,0.088 0.3955,0.083 0.7666,0.254 z"
         style="font-style:normal;font-variant:normal;font-weight:normal;font-stretch:normal;font-size:10px;line-height:1.25;font-family:sans-serif;-inkscape-font-specification:Sans;text-align:start;letter-spacing:0px;word-spacing:0px;writing-mode:lr-tb;text-anchor:start;fill:#000000;fill-opacity:1;stroke:none"
         id="path909"
         inkscape:connector-curvature="0" />
      <path
         d="m 154.138,1078.6815 q -1.08887,0 -1.50879,0.249 -0.41993,0.2491 -0.41993,0.8497 0,0.4785 0.3125,0.7617 0.31739,0.2783 0.85938,0.2783 0.74707,0 1.19629,-0.5274 0.4541,-0.5322 0.4541,-1.4111 v -0.2002 z m 1.79199,-0.3711 v 3.1201 h -0.89844 v -0.83 q -0.30762,0.498 -0.7666,0.7373 -0.45899,0.2343 -1.12305,0.2343 -0.83984,0 -1.33789,-0.4687 -0.49316,-0.4736 -0.49316,-1.2647 0,-0.9228 0.61523,-1.3916 0.62012,-0.4687 1.8457,-0.4687 h 1.25977 v -0.088 q 0,-0.6201 -0.41016,-0.957 -0.40527,-0.3418 -1.14257,-0.3418 -0.46875,0 -0.91309,0.1123 -0.44434,0.1123 -0.85449,0.3369 v -0.8301 q 0.49316,-0.1904 0.95703,-0.2832 0.46387,-0.098 0.90332,-0.098 1.18652,0 1.77246,0.6152 0.58594,0.6152 0.58594,1.8652 z"
         style="font-style:normal;font-variant:normal;font-weight:normal;font-stretch:normal;font-size:10px;line-height:1.25;font-family:sans-serif;-inkscape-font-specification:Sans;text-align:start;letter-spacing:0px;word-spacing:0px;writing-mode:lr-tb;text-anchor:start;fill:#000000;fill-opacity:1;stroke:none"
         id="path911"
         inkscape:connector-curvature="0" />
      <path
         d="m 160.9544,1076.8016 q -0.15137,-0.088 -0.33203,-0.1269 -0.17578,-0.044 -0.39062,-0.044 -0.76172,0 -1.17188,0.4981 -0.40527,0.4931 -0.40527,1.4209 v 2.8808 h -0.90332 v -5.4687 h 0.90332 v 0.8496 q 0.2832,-0.498 0.7373,-0.7373 0.4541,-0.2441 1.10352,-0.2441 0.0928,0 0.20508,0.015 0.1123,0.01 0.24902,0.034 z"
         style="font-style:normal;font-variant:normal;font-weight:normal;font-stretch:normal;font-size:10px;line-height:1.25;font-family:sans-serif;-inkscape-font-specification:Sans;text-align:start;letter-spacing:0px;word-spacing:0px;writing-mode:lr-tb;text-anchor:start;fill:#000000;fill-opacity:1;stroke:none"
         id="path913"
         inkscape:connector-curvature="0" />
      <path
         d="m 164.3919,1078.6815 q -1.08887,0 -1.50879,0.249 -0.41992,0.2491 -0.41992,0.8497 0,0.4785 0.3125,0.7617 0.31738,0.2783 0.85938,0.2783 0.74707,0 1.19629,-0.5274 0.4541,-0.5322 0.4541,-1.4111 v -0.2002 z m 1.79199,-0.3711 v 3.1201 h -0.89843 v -0.83 q -0.30762,0.498 -0.7666,0.7373 -0.45899,0.2343 -1.12305,0.2343 -0.83985,0 -1.33789,-0.4687 -0.49317,-0.4736 -0.49317,-1.2647 0,-0.9228 0.61524,-1.3916 0.62012,-0.4687 1.8457,-0.4687 h 1.25977 v -0.088 q 0,-0.6201 -0.41016,-0.957 -0.40527,-0.3418 -1.14258,-0.3418 -0.46875,0 -0.91308,0.1123 -0.44434,0.1123 -0.8545,0.3369 v -0.8301 q 0.49317,-0.1904 0.95704,-0.2832 0.46386,-0.098 0.90332,-0.098 1.18652,0 1.77246,0.6152 0.58593,0.6152 0.58593,1.8652 z"
         style="font-style:normal;font-variant:normal;font-weight:normal;font-stretch:normal;font-size:10px;line-height:1.25;font-family:sans-serif;-inkscape-font-specification:Sans;text-align:start;letter-spacing:0px;word-spacing:0px;writing-mode:lr-tb;text-anchor:start;fill:#000000;fill-opacity:1;stroke:none"
         id="path915"
         inkscape:connector-curvature="0" />
      <path
         d="m 171.96514,1078.701 q 0,-0.9912 -0.41015,-1.5527 -0.40528,-0.5664 -1.11817,-0.5664 -0.71289,0 -1.12304,0.5664 -0.40528,0.5615 -0.40528,1.5527 0,0.9913 0.40528,1.5577 0.41015,0.5615 1.12304,0.5615 0.71289,0 1.11817,-0.5615 0.41015,-0.5664 0.41015,-1.5577 z m -3.05664,-1.9091 q 0.28321,-0.4883 0.71289,-0.7227 0.43457,-0.2392 1.03516,-0.2392 0.99609,0 1.61621,0.791 0.625,0.791 0.625,2.08 0,1.2891 -0.625,2.0801 -0.62012,0.791 -1.61621,0.791 -0.60059,0 -1.03516,-0.2343 -0.42968,-0.2393 -0.71289,-0.7276 v 0.8203 h -0.90332 v -7.5976 h 0.90332 z"
         style="font-style:normal;font-variant:normal;font-weight:normal;font-stretch:normal;font-size:10px;line-height:1.25;font-family:sans-serif;-inkscape-font-specification:Sans;text-align:start;letter-spacing:0px;word-spacing:0px;writing-mode:lr-tb;text-anchor:start;fill:#000000;fill-opacity:1;stroke:none"
         id="path917"
         inkscape:connector-curvature="0" />
      <path
         d="m 174.38702,1075.9618 h 0.89844 v 5.4687 h -0.89844 z m 0,-2.1289 h 0.89844 v 1.1377 h -0.89844 z"
         style="font-style:normal;font-variant:normal;font-weight:normal;font-stretch:normal;font-size:10px;line-height:1.25;font-family:sans-serif;-inkscape-font-specification:Sans;text-align:start;letter-spacing:0px;word-spacing:0px;writing-mode:lr-tb;text-anchor:start;fill:#000000;fill-opacity:1;stroke:none"
         id="path919"
         inkscape:connector-curvature="0" />
      <path
         d="m 181.70636,1078.1298 v 3.3007 h -0.89844 v -3.2714 q 0,-0.7764 -0.30274,-1.1622 -0.30273,-0.3857 -0.9082,-0.3857 -0.72754,0 -1.14746,0.4639 -0.41992,0.4638 -0.41992,1.2646 v 3.0908 h -0.90332 v -5.4687 h 0.90332 v 0.8496 q 0.32226,-0.4932 0.75683,-0.7373 0.43946,-0.2441 1.01075,-0.2441 0.94238,0 1.42578,0.5859 0.4834,0.581 0.4834,1.7139 z"
         style="font-style:normal;font-variant:normal;font-weight:normal;font-stretch:normal;font-size:10px;line-height:1.25;font-family:sans-serif;-inkscape-font-specification:Sans;text-align:start;letter-spacing:0px;word-spacing:0px;writing-mode:lr-tb;text-anchor:start;fill:#000000;fill-opacity:1;stroke:none"
         id="path921"
         inkscape:connector-curvature="0" />
      <path
         d="m 185.99346,1078.6815 q -1.08886,0 -1.50878,0.249 -0.41993,0.2491 -0.41993,0.8497 0,0.4785 0.3125,0.7617 0.31739,0.2783 0.85938,0.2783 0.74707,0 1.19629,-0.5274 0.4541,-0.5322 0.4541,-1.4111 v -0.2002 z m 1.792,-0.3711 v 3.1201 h -0.89844 v -0.83 q -0.30762,0.498 -0.7666,0.7373 -0.45899,0.2343 -1.12305,0.2343 -0.83984,0 -1.33789,-0.4687 -0.49316,-0.4736 -0.49316,-1.2647 0,-0.9228 0.61523,-1.3916 0.62012,-0.4687 1.8457,-0.4687 h 1.25977 v -0.088 q 0,-0.6201 -0.41016,-0.957 -0.40527,-0.3418 -1.14258,-0.3418 -0.46875,0 -0.91308,0.1123 -0.44434,0.1123 -0.85449,0.3369 v -0.8301 q 0.49316,-0.1904 0.95703,-0.2832 0.46387,-0.098 0.90332,-0.098 1.18652,0 1.77246,0.6152 0.58594,0.6152 0.58594,1.8652 z"
         style="font-style:normal;font-variant:normal;font-weight:normal;font-stretch:normal;font-size:10px;line-height:1.25;font-family:sans-serif;-inkscape-font-specification:Sans;text-align:start;letter-spacing:0px;word-spacing:0px;writing-mode:lr-tb;text-anchor:start;fill:#000000;fill-opacity:1;stroke:none"
         id="path923"
         inkscape:connector-curvature="0" />
      <path
         d="m 193.12237,1080.6005 h 1.61133 v -5.5616 l -1.75293,0.3516 v -0.8984 l 1.74316,-0.3516 h 0.98633 v 6.46 h 1.61133 v 0.83 h -4.19922 z"
         style="font-style:normal;font-variant:normal;font-weight:normal;font-stretch:normal;font-size:10px;line-height:1.25;font-family:sans-serif;-inkscape-font-specification:Sans;text-align:start;letter-spacing:0px;word-spacing:0px;writing-mode:lr-tb;text-anchor:start;fill:#000000;fill-opacity:1;stroke:none"
         id="path925"
         inkscape:connector-curvature="0" />
      <path
         d="m 201.42803,1074.7899 q -0.76171,0 -1.14746,0.752 -0.38086,0.747 -0.38086,2.2509 0,1.4991 0.38086,2.251 0.38575,0.7471 1.14746,0.7471 0.76661,0 1.14747,-0.7471 0.38574,-0.7519 0.38574,-2.251 0,-1.5039 -0.38574,-2.2509 -0.38086,-0.752 -1.14747,-0.752 z m 0,-0.7812 q 1.22559,0 1.87012,0.9716 0.64942,0.9668 0.64942,2.8125 0,1.8409 -0.64942,2.8125 -0.64453,0.9668 -1.87012,0.9668 -1.22558,0 -1.875,-0.9668 -0.64453,-0.9716 -0.64453,-2.8125 0,-1.8457 0.64453,-2.8125 0.64942,-0.9716 1.875,-0.9716 z"
         style="font-style:normal;font-variant:normal;font-weight:normal;font-stretch:normal;font-size:10px;line-height:1.25;font-family:sans-serif;-inkscape-font-specification:Sans;text-align:start;letter-spacing:0px;word-spacing:0px;writing-mode:lr-tb;text-anchor:start;fill:#000000;fill-opacity:1;stroke:none"
         id="path927"
         inkscape:connector-curvature="0" />
      <path
         d="m 209.81671,1077.0116 q 0.33691,-0.6055 0.80566,-0.8936 0.46875,-0.288 1.10352,-0.288 0.85449,0 1.31836,0.6005 0.46386,0.5957 0.46386,1.6993 v 3.3007 h -0.90332 v -3.2714 q 0,-0.7862 -0.27832,-1.167 -0.27832,-0.3809 -0.84961,-0.3809 -0.69824,0 -1.10351,0.4639 -0.40528,0.4638 -0.40528,1.2646 v 3.0908 h -0.90332 v -3.2714 q 0,-0.7911 -0.27832,-1.167 -0.27832,-0.3809 -0.85937,-0.3809 -0.68848,0 -1.09375,0.4688 -0.40528,0.4638 -0.40528,1.2597 v 3.0908 h -0.90332 v -5.4687 h 0.90332 v 0.8496 q 0.30762,-0.5029 0.73731,-0.7422 0.42969,-0.2392 1.02051,-0.2392 0.5957,0 1.01074,0.3027 0.41992,0.3027 0.62012,0.8789 z"
         style="font-style:normal;font-variant:normal;font-weight:normal;font-stretch:normal;font-size:10px;line-height:1.25;font-family:sans-serif;-inkscape-font-specification:Sans;text-align:start;letter-spacing:0px;word-spacing:0px;writing-mode:lr-tb;text-anchor:start;fill:#000000;fill-opacity:1;stroke:none"
         id="path929"
         inkscape:connector-curvature="0" />
      <path
         d="m 215.43194,1080.1903 h 1.03027 v 1.2402 h -1.03027 z"
         style="font-style:normal;font-variant:normal;font-weight:normal;font-stretch:normal;font-size:10px;line-height:1.25;font-family:sans-serif;-inkscape-font-specification:Sans;text-align:start;letter-spacing:0px;word-spacing:0px;writing-mode:lr-tb;text-anchor:start;fill:#000000;fill-opacity:1;stroke:none"
         id="path931"
         inkscape:connector-curvature="0" />
      <path
         d="m 221.97003,1080.6005 h 1.61133 v -5.5616 l -1.75293,0.3516 v -0.8984 l 1.74316,-0.3516 h 0.98633 v 6.46 h 1.61133 v 0.83 h -4.19922 z"
         style="font-style:normal;font-variant:normal;font-weight:normal;font-stretch:normal;font-size:10px;line-height:1.25;font-family:sans-serif;-inkscape-font-specification:Sans;text-align:start;letter-spacing:0px;word-spacing:0px;writing-mode:lr-tb;text-anchor:start;fill:#000000;fill-opacity:1;stroke:none"
         id="path933"
         inkscape:connector-curvature="0" />
      <path
         d="m 230.27569,1074.7899 q -0.76172,0 -1.14746,0.752 -0.38086,0.747 -0.38086,2.2509 0,1.4991 0.38086,2.251 0.38574,0.7471 1.14746,0.7471 0.7666,0 1.14746,-0.7471 0.38574,-0.7519 0.38574,-2.251 0,-1.5039 -0.38574,-2.2509 -0.38086,-0.752 -1.14746,-0.752 z m 0,-0.7812 q 1.22559,0 1.87012,0.9716 0.64941,0.9668 0.64941,2.8125 0,1.8409 -0.64941,2.8125 -0.64453,0.9668 -1.87012,0.9668 -1.22558,0 -1.875,-0.9668 -0.64453,-0.9716 -0.64453,-2.8125 0,-1.8457 0.64453,-2.8125 0.64942,-0.9716 1.875,-0.9716 z"
         style="font-style:normal;font-variant:normal;font-weight:normal;font-stretch:normal;font-size:10px;line-height:1.25;font-family:sans-serif;-inkscape-font-specification:Sans;text-align:start;letter-spacing:0px;word-spacing:0px;writing-mode:lr-tb;text-anchor:start;fill:#000000;fill-opacity:1;stroke:none"
         id="path935"
         inkscape:connector-curvature="0" />
      <path
         d="m 242.13604,1075.9618 -1.97754,2.6611 2.08008,2.8076 h -1.05957 l -1.5918,-2.1484 -1.59179,2.1484 h -1.05957 l 2.12402,-2.8613 -1.94336,-2.6074 h 1.05957 l 1.4502,1.9482 1.45019,-1.9482 z"
         style="font-style:normal;font-variant:normal;font-weight:normal;font-stretch:normal;font-size:10px;line-height:1.25;font-family:sans-serif;-inkscape-font-specification:Sans;text-align:start;letter-spacing:0px;word-spacing:0px;writing-mode:lr-tb;text-anchor:start;fill:#000000;fill-opacity:1;stroke:none"
         id="path937"
         inkscape:connector-curvature="0" />
      <path
         d="m 246.98956,1080.6005 h 1.61133 v -5.5616 l -1.75293,0.3516 v -0.8984 l 1.74316,-0.3516 h 0.98633 v 6.46 h 1.61133 v 0.83 h -4.19922 z"
         style="font-style:normal;font-variant:normal;font-weight:normal;font-stretch:normal;font-size:10px;line-height:1.25;font-family:sans-serif;-inkscape-font-specification:Sans;text-align:start;letter-spacing:0px;word-spacing:0px;writing-mode:lr-tb;text-anchor:start;fill:#000000;fill-opacity:1;stroke:none"
         id="path939"
         inkscape:connector-curvature="0" />
      <path
         d="m 255.29522,1074.7899 q -0.76172,0 -1.14746,0.752 -0.38086,0.747 -0.38086,2.2509 0,1.4991 0.38086,2.251 0.38574,0.7471 1.14746,0.7471 0.7666,0 1.14746,-0.7471 0.38575,-0.7519 0.38575,-2.251 0,-1.5039 -0.38575,-2.2509 -0.38086,-0.752 -1.14746,-0.752 z m 0,-0.7812 q 1.22559,0 1.87012,0.9716 0.64941,0.9668 0.64941,2.8125 0,1.8409 -0.64941,2.8125 -0.64453,0.9668 -1.87012,0.9668 -1.22558,0 -1.875,-0.9668 -0.64453,-0.9716 -0.64453,-2.8125 0,-1.8457 0.64453,-2.8125 0.64942,-0.9716 1.875,-0.9716 z"
         style="font-style:normal;font-variant:normal;font-weight:normal;font-stretch:normal;font-size:10px;line-height:1.25;font-family:sans-serif;-inkscape-font-specification:Sans;text-align:start;letter-spacing:0px;word-spacing:0px;writing-mode:lr-tb;text-anchor:start;fill:#000000;fill-opacity:1;stroke:none"
         id="path941"
         inkscape:connector-curvature="0" />
      <path
         id="path2985"
         d="m 257.27558,875.19592 a 80.110237,79.980949 0 0 1 -80.11024,79.98095 80.110237,79.980949 0 0 1 -80.110233,-79.98095 80.110237,79.980949 0 0 1 80.110233,-79.98095 80.110237,79.980949 0 0 1 80.11024,79.98095 z"
         style="fill:none;stroke:#000000;stroke-width:0.99999994;stroke-linecap:round;stroke-linejoin:round;stroke-miterlimit:4;stroke-dasharray:none;stroke-dashoffset:0;stroke-opacity:1"
         inkscape:connector-curvature="0" />
      <path
         id="path2985-1"
         d="m 248.53256,875.19598 a 71.367218,71.251968 0 0 1 -71.36722,71.25197 71.367218,71.251968 0 0 1 -71.36721,-71.25197 71.367218,71.251968 0 0 1 71.36721,-71.25196 71.367218,71.251968 0 0 1 71.36722,71.25196 z"
         style="fill:none;stroke:#000000;stroke-width:1;stroke-linecap:round;stroke-linejoin:round;stroke-miterlimit:4;stroke-dasharray:none;stroke-dashoffset:0;stroke-opacity:1"
         inkscape:connector-curvature="0" />
      <path
         id="path2985-7"
         d="m 239.66005,875.19598 a 62.494705,62.3937 0 0 1 -62.49471,62.3937 62.494705,62.3937 0 0 1 -62.4947,-62.3937 62.494705,62.3937 0 0 1 62.4947,-62.3937 62.494705,62.3937 0 0 1 62.49471,62.3937 z"
         style="fill:none;stroke:#000000;stroke-width:1;stroke-linecap:round;stroke-linejoin:round;stroke-miterlimit:4;stroke-dasharray:none;stroke-dashoffset:0;stroke-opacity:1"
         inkscape:connector-curvature="0" />
      <path
         id="path2985-4"
         d="m 230.78754,875.19598 a 53.6222,53.535431 0 0 1 -53.6222,53.53543 53.6222,53.535431 0 0 1 -53.6222,-53.53543 53.6222,53.535431 0 0 1 53.6222,-53.53543 53.6222,53.535431 0 0 1 53.6222,53.53543 z"
         style="fill:#000000;fill-opacity:1;stroke:#ffeabf;stroke-width:1;stroke-linecap:round;stroke-linejoin:round;stroke-miterlimit:4;stroke-dasharray:none;stroke-dashoffset:0;stroke-opacity:1"
         inkscape:connector-curvature="0" />
      <path
         id="path2985-0"
         d="m 221.91503,875.19598 a 44.749687,44.677166 0 0 1 -44.74969,44.67717 44.749687,44.677166 0 0 1 -44.74968,-44.67717 44.749687,44.677166 0 0 1 44.74968,-44.67716 44.749687,44.677166 0 0 1 44.74969,44.67716 z"
         style="fill:#000000;fill-opacity:1;stroke:#ffeabf;stroke-width:1;stroke-linecap:round;stroke-linejoin:round;stroke-miterlimit:4;stroke-dasharray:none;stroke-dashoffset:0;stroke-opacity:1"
         inkscape:connector-curvature="0" />
      <path
         id="path2985-9"
         d="m 213.04253,875.19598 a 35.877182,35.818897 0 0 1 -35.87719,35.8189 35.877182,35.818897 0 0 1 -35.87718,-35.8189 35.877182,35.818897 0 0 1 35.87718,-35.81889 35.877182,35.818897 0 0 1 35.87719,35.81889 z"
         style="fill:#000000;fill-opacity:1;stroke:#ffeabf;stroke-width:1;stroke-linecap:round;stroke-linejoin:round;stroke-miterlimit:4;stroke-dasharray:none;stroke-dashoffset:0;stroke-opacity:1"
         inkscape:connector-curvature="0" />
      <path
         id="path2985-9-4"
         d="m 204.17002,875.19598 a 27.004681,26.96063 0 0 1 -27.00468,26.96063 27.004681,26.96063 0 0 1 -27.00468,-26.96063 27.004681,26.96063 0 0 1 27.00468,-26.96063 27.004681,26.96063 0 0 1 27.00468,26.96063 z"
         style="fill:#000000;fill-opacity:1;stroke:#ffeabf;stroke-width:1;stroke-linecap:round;stroke-linejoin:round;stroke-miterlimit:4;stroke-dasharray:none;stroke-dashoffset:0;stroke-opacity:1"
         inkscape:connector-curvature="0" />
      <path
         id="path2985-9-8"
         d="m 195.29753,875.19598 a 18.132185,18.102362 0 0 1 -18.13219,18.10237 18.132185,18.102362 0 0 1 -18.13218,-18.10237 18.132185,18.102362 0 0 1 18.13218,-18.10236 18.132185,18.102362 0 0 1 18.13219,18.10236 z"
         style="fill:#000000;fill-opacity:1;stroke:#ffeabf;stroke-width:1;stroke-linecap:round;stroke-linejoin:round;stroke-miterlimit:4;stroke-dasharray:none;stroke-dashoffset:0;stroke-opacity:1"
         inkscape:connector-curvature="0" />
      <path
         id="path2985-9-82"
         d="m 186.42505,875.19598 a 9.2597055,9.2440939 0 0 1 -9.25971,9.2441 9.2597055,9.2440939 0 0 1 -9.2597,-9.2441 9.2597055,9.2440939 0 0 1 9.2597,-9.24409 9.2597055,9.2440939 0 0 1 9.25971,9.24409 z"
         style="fill:#000000;fill-opacity:1;stroke:#ffeabf;stroke-width:1;stroke-linecap:round;stroke-linejoin:round;stroke-miterlimit:4;stroke-dasharray:none;stroke-dashoffset:0;stroke-opacity:1"
         inkscape:connector-curvature="0" />
      <path
         id="path2985-9-45"
         d="m 177.55117,875.19598 a 0.38582623,0.38440591 0 0 1 -0.38583,0.38441 0.38582623,0.38440591 0 0 1 -0.38582,-0.38441 0.38582623,0.38440591 0 0 1 0.38582,-0.3844 0.38582623,0.38440591 0 0 1 0.38583,0.3844 z"
         style="fill:#000000;fill-opacity:1;stroke:#ffeabf;stroke-width:0.99999821;stroke-linecap:round;stroke-linejoin:round;stroke-miterlimit:4;stroke-dasharray:none;stroke-dashoffset:0;stroke-opacity:1"
         inkscape:connector-curvature="0" />
      <path
         inkscape:connector-curvature="0"
         d="m 176.23364,800.4658 0.99609,-8e-4 0.002,-2.82715 -1.02263,0.21176 6.2e-4,-0.76758 1.01678,-0.21176 1.07226,-8.6e-4 -0.003,3.59473 0.99609,-8e-4 -6.3e-4,0.77929 -3.05859,0.002 z"
         style="font-style:normal;font-variant:normal;font-weight:bold;font-stretch:normal;font-size:6px;line-height:149.00000095%;font-family:sans-serif;-inkscape-font-specification:'Sans Bold';text-align:start;letter-spacing:0px;word-spacing:0px;writing-mode:lr-tb;text-anchor:start;fill:#000000;fill-opacity:1;stroke:none"
         id="path1215" />
      <path
         inkscape:connector-curvature="0"
         d="m 177.25189,809.35517 1.92481,-0.002 -6.7e-4,0.8291 -3.17871,0.003 6.7e-4,-0.8291 1.59781,-1.41047 q 0.21402,-0.19353 0.3167,-0.37818 0.10269,-0.18465 0.10285,-0.38387 2.5e-4,-0.30761 -0.20761,-0.49495 -0.20493,-0.18733 -0.5477,-0.18706 -0.26367,2.1e-4 -0.57724,0.11472 -0.31356,0.11158 -0.67117,0.33453 l 7.7e-4,-0.96094 q 0.38096,-0.12629 0.75309,-0.19104 0.37212,-0.0677 0.72955,-0.068 0.78515,-6.3e-4 1.21847,0.34473 0.43624,0.34534 0.43575,0.96351 -2.9e-4,0.35742 -0.18511,0.66812 -0.18482,0.30776 -0.77703,0.8268 z"
         style="font-style:normal;font-variant:normal;font-weight:bold;font-stretch:normal;font-size:6px;line-height:149.00000095%;font-family:sans-serif;-inkscape-font-specification:'Sans Bold';text-align:start;letter-spacing:0px;word-spacing:0px;writing-mode:lr-tb;text-anchor:start;fill:#000000;fill-opacity:1;stroke:none"
         id="path1217" />
      <path
         inkscape:connector-curvature="0"
         d="m 178.31234,816.76502 q 0.44229,0.1139 0.67058,0.3979 0.23122,0.28106 0.23087,0.71759 -5.3e-4,0.65039 -0.49885,0.99063 -0.49831,0.33731 -1.45339,0.33808 -0.33691,2.7e-4 -0.67671,-0.0552 -0.33687,-0.0524 -0.66785,-0.16059 l 7e-4,-0.87012 q 0.31629,0.15794 0.62677,0.23973 0.31341,0.0788 0.61517,0.0786 0.44824,-3.6e-4 0.68567,-0.15583 0.24036,-0.15546 0.24059,-0.4455 2.4e-4,-0.29883 -0.24573,-0.45098 -0.24304,-0.15507 -0.72057,-0.15469 l -0.45118,3.6e-4 5.8e-4,-0.72657 0.47461,-3.8e-4 q 0.42481,-3.4e-4 0.63293,-0.13234 0.20811,-0.13493 0.20832,-0.40739 2.1e-4,-0.25195 -0.20183,-0.38949 -0.20203,-0.13753 -0.57117,-0.13723 -0.27247,2.2e-4 -0.55084,0.0619 -0.27837,0.0617 -0.55386,0.18209 l 6.7e-4,-0.82617 q 0.33406,-0.0941 0.66222,-0.14117 0.32817,-0.0472 0.64457,-0.0474 0.85254,-6.9e-4 1.27419,0.28022 0.42458,0.27798 0.42413,0.84048 -3.1e-4,0.38379 -0.20266,0.63004 -0.20234,0.24334 -0.59793,0.34326 z"
         style="font-style:normal;font-variant:normal;font-weight:bold;font-stretch:normal;font-size:6px;line-height:149.00000095%;font-family:sans-serif;-inkscape-font-specification:'Sans Bold';text-align:start;letter-spacing:0px;word-spacing:0px;writing-mode:lr-tb;text-anchor:start;fill:#000000;fill-opacity:1;stroke:none"
         id="path1219" />
      <path
         inkscape:connector-curvature="0"
         d="m 177.72009,824.61858 -1.2378,1.83205 1.23633,-9.9e-4 z m -0.18675,-0.92856 1.25391,-0.001 -0.002,2.75977 0.62402,-5e-4 -6.5e-4,0.81738 -0.62402,5e-4 -6.4e-4,0.79687 -1.06641,8.6e-4 6.4e-4,-0.79687 -1.93945,0.002 7.7e-4,-0.9668 z"
         style="font-style:normal;font-variant:normal;font-weight:bold;font-stretch:normal;font-size:6px;line-height:149.00000095%;font-family:sans-serif;-inkscape-font-specification:'Sans Bold';text-align:start;letter-spacing:0px;word-spacing:0px;writing-mode:lr-tb;text-anchor:start;fill:#ffeabf;fill-opacity:1;stroke:none"
         id="path1221" />
      <path
         inkscape:connector-curvature="0"
         d="m 176.14042,832.63113 2.80371,-0.002 -6.7e-4,0.8291 -1.9043,0.002 -5.4e-4,0.67676 q 0.12894,-0.0353 0.25785,-0.0529 0.13186,-0.0206 0.27249,-0.0207 0.7998,-6.5e-4 1.24478,0.40036 0.445,0.39808 0.44443,1.11293 -5.7e-4,0.70898 -0.48722,1.11074 -0.48372,0.40176 -1.34506,0.40245 -0.37207,3e-4 -0.73822,-0.0727 -0.36322,-0.07 -0.72345,-0.21621 l 7.1e-4,-0.8877 q 0.35726,0.2048 0.6765,0.30708 0.32219,0.10228 0.60637,0.10205 0.41016,-3.3e-4 0.64469,-0.19974 0.23747,-0.20234 0.23775,-0.54511 2.8e-4,-0.34571 -0.23687,-0.54473 -0.23421,-0.19903 -0.64437,-0.1987 -0.24316,2e-4 -0.5186,0.0648 -0.27545,0.0617 -0.59196,0.19383 z"
         style="font-style:normal;font-variant:normal;font-weight:bold;font-stretch:normal;font-size:6px;line-height:149.00000095%;font-family:sans-serif;-inkscape-font-specification:'Sans Bold';text-align:start;letter-spacing:0px;word-spacing:0px;writing-mode:lr-tb;text-anchor:start;fill:#ffeabf;fill-opacity:1;stroke:none"
         id="path1223" />
      <path
         inkscape:connector-curvature="0"
         d="m 177.66661,843.78475 q -0.29589,2.4e-4 -0.44547,0.19372 -0.14663,0.19054 -0.14694,0.57433 -3.1e-4,0.38379 0.14601,0.57703 0.14927,0.19031 0.44516,0.19007 0.29883,-2.4e-4 0.44548,-0.19078 0.14956,-0.19348 0.14987,-0.57727 3.1e-4,-0.38379 -0.14895,-0.57409 -0.14633,-0.19325 -0.44516,-0.19301 z m 1.39622,-2.10171 -6.5e-4,0.80859 q -0.27821,-0.1316 -0.52426,-0.19294 -0.24604,-0.0642 -0.48042,-0.064 -0.5039,4e-4 -0.78538,0.28188 -0.28147,0.27855 -0.32879,0.82936 0.19347,-0.1437 0.41912,-0.21419 0.22564,-0.0734 0.49224,-0.0736 0.6709,-5.4e-4 1.08074,0.39171 0.41278,0.39225 0.41227,1.02799 -5.7e-4,0.70313 -0.46088,1.1283 -0.4603,0.42225 -1.23373,0.42287 -0.85254,6.9e-4 -1.32083,-0.57316 -0.46535,-0.57677 -0.4645,-1.63439 8.7e-4,-1.08398 0.54628,-1.70259 0.54835,-0.62153 1.5005,-0.6223 0.30176,-2.4e-4 0.58591,0.0464 0.28414,0.0467 0.56238,0.14018 z"
         style="font-style:normal;font-variant:normal;font-weight:bold;font-stretch:normal;font-size:6px;line-height:149.00000095%;font-family:sans-serif;-inkscape-font-specification:'Sans Bold';text-align:start;letter-spacing:0px;word-spacing:0px;writing-mode:lr-tb;text-anchor:start;fill:#ffeabf;fill-opacity:1;stroke:none"
         id="path1225" />
      <path
         inkscape:connector-curvature="0"
         d="m 175.89167,850.51133 3.2959,-0.003 -5.1e-4,0.63574 -1.70808,3.73966 -1.09863,8.8e-4 1.61711,-3.54623 -2.10645,0.002 z"
         style="font-style:normal;font-variant:normal;font-weight:bold;font-stretch:normal;font-size:6px;line-height:149.00000095%;font-family:sans-serif;-inkscape-font-specification:'Sans Bold';text-align:start;letter-spacing:0px;word-spacing:0px;writing-mode:lr-tb;text-anchor:start;fill:#ffeabf;fill-opacity:1;stroke:none"
         id="path1227" />
      <path
         inkscape:connector-curvature="0"
         d="m 177.57005,861.86697 q -0.3164,2.6e-4 -0.48646,0.17325 -0.17007,0.17298 -0.17033,0.49524 -2.6e-4,0.32227 0.16953,0.49499 0.16979,0.16978 0.48619,0.16953 0.31348,-2.6e-4 0.4806,-0.17031 0.16713,-0.17299 0.16739,-0.49526 2.6e-4,-0.32519 -0.16659,-0.49497 -0.16685,-0.17272 -0.48033,-0.17247 z m -0.82294,-0.3714 q -0.39835,-0.1198 -0.60029,-0.36867 -0.20195,-0.24886 -0.20165,-0.62093 4.5e-4,-0.55371 0.41376,-0.84408 0.41332,-0.29037 1.21312,-0.29102 0.79395,-6.3e-4 1.2068,0.28907 0.41286,0.28678 0.41241,0.84342 -3e-4,0.37207 -0.20558,0.62126 -0.20235,0.24919 -0.60087,0.36963 0.44521,0.12268 0.67056,0.40082 0.2283,0.27521 0.22796,0.69709 -5.2e-4,0.65039 -0.43438,0.98472 -0.43093,0.3314 -1.28054,0.33209 -0.85254,6.8e-4 -1.2888,-0.33003 -0.43332,-0.33363 -0.4328,-0.98402 3.4e-4,-0.42188 0.22614,-0.69745 0.22875,-0.27851 0.67416,-0.4019 z m 0.26437,-0.8762 q -2.1e-4,0.26074 0.14324,0.40126 0.14636,0.1405 0.41589,0.14028 0.26368,-2.1e-4 0.40735,-0.14094 0.14366,-0.14075 0.14387,-0.40149 2.1e-4,-0.26074 -0.14323,-0.39832 -0.14344,-0.14051 -0.40712,-0.1403 -0.26953,2.2e-4 -0.41612,0.14096 -0.14367,0.14074 -0.14388,0.39855 z"
         style="font-style:normal;font-variant:normal;font-weight:bold;font-stretch:normal;font-size:6px;line-height:149.00000095%;font-family:sans-serif;-inkscape-font-specification:'Sans Bold';text-align:start;letter-spacing:0px;word-spacing:0px;writing-mode:lr-tb;text-anchor:start;fill:#ffeabf;fill-opacity:1;stroke:none"
         id="path1229" />
      <path
         inkscape:connector-curvature="0"
         d="m 178.09705,949.92494 -0.99609,8e-4 -0.002,2.82715 1.02263,-0.21176 -6.2e-4,0.76758 -1.01677,0.21176 -1.07227,8.6e-4 0.003,-3.59473 -0.99609,8e-4 6.2e-4,-0.7793 3.05859,-0.002 z"
         style="font-style:normal;font-variant:normal;font-weight:bold;font-stretch:normal;font-size:6px;line-height:149.00000095%;font-family:sans-serif;-inkscape-font-specification:'Sans Bold';text-align:start;letter-spacing:0px;word-spacing:0px;writing-mode:lr-tb;text-anchor:start;fill:#000000;fill-opacity:1;stroke:none"
         id="path1198" />
      <path
         inkscape:connector-curvature="0"
         d="m 177.0788,941.03556 -1.9248,0.002 6.7e-4,-0.8291 3.17871,-0.003 -6.7e-4,0.8291 -1.59781,1.41047 q -0.21403,0.19353 -0.31672,0.37818 -0.10268,0.18465 -0.10284,0.38387 -2.5e-4,0.30762 0.20761,0.49496 0.20493,0.18733 0.5477,0.18706 0.26367,-2.1e-4 0.57724,-0.11473 0.31357,-0.11158 0.67117,-0.33452 l -7.7e-4,0.96094 q -0.38097,0.12628 -0.75309,0.19103 -0.37212,0.0677 -0.72954,0.068 -0.78516,6.3e-4 -1.21847,-0.34473 -0.43626,-0.34535 -0.43576,-0.96351 2.9e-4,-0.35743 0.18511,-0.66812 0.18481,-0.30777 0.77703,-0.8268 z"
         style="font-style:normal;font-variant:normal;font-weight:bold;font-stretch:normal;font-size:6px;line-height:149.00000095%;font-family:sans-serif;-inkscape-font-specification:'Sans Bold';text-align:start;letter-spacing:0px;word-spacing:0px;writing-mode:lr-tb;text-anchor:start;fill:#000000;fill-opacity:1;stroke:none"
         id="path1200" />
      <path
         inkscape:connector-curvature="0"
         d="m 176.01834,933.62572 q -0.44228,-0.11391 -0.67057,-0.3979 -0.23122,-0.28107 -0.23087,-0.71759 5.2e-4,-0.65039 0.49885,-0.99064 0.49831,-0.33731 1.45339,-0.33808 0.33692,-2.7e-4 0.67671,0.0552 0.33687,0.0524 0.66784,0.1606 l -7e-4,0.87011 q -0.31628,-0.15794 -0.62675,-0.23972 -0.31342,-0.0788 -0.61518,-0.0786 -0.44824,3.6e-4 -0.68567,0.15582 -0.24036,0.15547 -0.24059,0.44551 -2.4e-4,0.29883 0.24573,0.45098 0.24304,0.15507 0.72058,0.15469 l 0.45117,-3.6e-4 -5.8e-4,0.72656 -0.47461,3.8e-4 q -0.42481,3.4e-4 -0.63292,0.13235 -0.20812,0.13492 -0.20834,0.40738 -2e-4,0.25196 0.20184,0.38949 0.20204,0.13754 0.57118,0.13724 0.27246,-2.2e-4 0.55083,-0.0619 0.27837,-0.0617 0.55386,-0.1821 l -6.7e-4,0.82618 q -0.33406,0.0941 -0.66222,0.14116 -0.32817,0.0472 -0.64457,0.0474 -0.85254,6.9e-4 -1.27419,-0.28022 -0.42458,-0.27798 -0.42413,-0.84048 3.1e-4,-0.38379 0.20266,-0.63005 0.20234,-0.24333 0.59792,-0.34325 z"
         style="font-style:normal;font-variant:normal;font-weight:bold;font-stretch:normal;font-size:6px;line-height:149.00000095%;font-family:sans-serif;-inkscape-font-specification:'Sans Bold';text-align:start;letter-spacing:0px;word-spacing:0px;writing-mode:lr-tb;text-anchor:start;fill:#000000;fill-opacity:1;stroke:none"
         id="path1202" />
      <path
         inkscape:connector-curvature="0"
         d="m 176.61059,925.77215 1.2378,-1.83204 -1.23633,9.9e-4 z m 0.18676,0.92856 -1.2539,0.001 0.002,-2.75976 -0.62403,5e-4 6.6e-4,-0.81738 0.62403,-5e-4 6.4e-4,-0.79688 1.0664,-8.6e-4 -6.4e-4,0.79688 1.93945,-0.002 -7.7e-4,0.96679 z"
         style="font-style:normal;font-variant:normal;font-weight:bold;font-stretch:normal;font-size:6px;line-height:149.00000095%;font-family:sans-serif;-inkscape-font-specification:'Sans Bold';text-align:start;letter-spacing:0px;word-spacing:0px;writing-mode:lr-tb;text-anchor:start;fill:#ffeabf;fill-opacity:1;stroke:none"
         id="path1204" />
      <path
         inkscape:connector-curvature="0"
         d="m 178.19027,917.7596 -2.80371,0.002 6.7e-4,-0.8291 1.9043,-0.002 5.4e-4,-0.67676 q -0.12894,0.0353 -0.25785,0.0529 -0.13186,0.0206 -0.27248,0.0207 -0.79981,6.4e-4 -1.2448,-0.40037 -0.44499,-0.39809 -0.44441,-1.11293 5.7e-4,-0.70899 0.48721,-1.11074 0.48372,-0.40176 1.34505,-0.40245 0.37207,-3e-4 0.73822,0.0726 0.36323,0.07 0.72347,0.21622 l -7.1e-4,0.88769 q -0.35727,-0.20479 -0.67652,-0.30707 -0.32218,-0.10228 -0.60636,-0.10205 -0.41015,3.3e-4 -0.64469,0.19974 -0.23747,0.20233 -0.23774,0.54511 -2.8e-4,0.3457 0.23686,0.54473 0.23422,0.19903 0.64437,0.1987 0.24317,-2e-4 0.51861,-0.0649 0.27544,-0.0617 0.59195,-0.19383 z"
         style="font-style:normal;font-variant:normal;font-weight:bold;font-stretch:normal;font-size:6px;line-height:149.00000095%;font-family:sans-serif;-inkscape-font-specification:'Sans Bold';text-align:start;letter-spacing:0px;word-spacing:0px;writing-mode:lr-tb;text-anchor:start;fill:#ffeabf;fill-opacity:1;stroke:none"
         id="path1206" />
      <path
         inkscape:connector-curvature="0"
         d="m 176.66408,906.60599 q 0.2959,-2.4e-4 0.44547,-0.19372 0.14663,-0.19055 0.14694,-0.57434 3.1e-4,-0.38379 -0.14602,-0.57703 -0.14925,-0.19031 -0.44515,-0.19007 -0.29883,2.4e-4 -0.44547,0.19078 -0.14957,0.19348 -0.14988,0.57727 -3.1e-4,0.38379 0.14896,0.5741 0.14632,0.19325 0.44515,0.19301 z m -1.39622,2.10171 6.5e-4,-0.8086 q 0.27822,0.13161 0.52426,0.19294 0.24604,0.0642 0.48042,0.064 0.50391,-4e-4 0.78538,-0.28188 0.28148,-0.27855 0.32879,-0.82936 -0.19348,0.14371 -0.41911,0.2142 -0.22565,0.0734 -0.49225,0.0736 -0.6709,5.4e-4 -1.08075,-0.39171 -0.41276,-0.39224 -0.41225,-1.02799 5.6e-4,-0.70312 0.46087,-1.1283 0.4603,-0.42224 1.23374,-0.42286 0.85254,-6.9e-4 1.32082,0.57316 0.46536,0.57677 0.46451,1.63438 -8.7e-4,1.08399 -0.5463,1.70259 -0.54835,0.62154 -1.5005,0.62231 -0.30175,2.4e-4 -0.58589,-0.0464 -0.28414,-0.0467 -0.56239,-0.14017 z"
         style="font-style:normal;font-variant:normal;font-weight:bold;font-stretch:normal;font-size:6px;line-height:149.00000095%;font-family:sans-serif;-inkscape-font-specification:'Sans Bold';text-align:start;letter-spacing:0px;word-spacing:0px;writing-mode:lr-tb;text-anchor:start;fill:#ffeabf;fill-opacity:1;stroke:none"
         id="path1208" />
      <path
         inkscape:connector-curvature="0"
         d="m 178.43902,899.8794 -3.2959,0.003 5.1e-4,-0.63574 1.70808,-3.73965 1.09863,-8.8e-4 -1.61711,3.54622 2.10645,-0.002 z"
         style="font-style:normal;font-variant:normal;font-weight:bold;font-stretch:normal;font-size:6px;line-height:149.00000095%;font-family:sans-serif;-inkscape-font-specification:'Sans Bold';text-align:start;letter-spacing:0px;word-spacing:0px;writing-mode:lr-tb;text-anchor:start;fill:#ffeabf;fill-opacity:1;stroke:none"
         id="path1210" />
      <path
         inkscape:connector-curvature="0"
         d="m 176.76064,888.52377 q 0.31641,-2.6e-4 0.48647,-0.17324 0.17006,-0.17299 0.17032,-0.49526 2.6e-4,-0.32226 -0.16953,-0.49499 -0.16978,-0.16978 -0.48619,-0.16952 -0.31348,2.5e-4 -0.48061,0.1703 -0.16712,0.173 -0.16738,0.49526 -2.6e-4,0.3252 0.16659,0.49498 0.16685,0.17272 0.48033,0.17247 z m 0.82294,0.3714 q 0.39835,0.1198 0.6003,0.36866 0.20195,0.24886 0.20165,0.62093 -4.5e-4,0.55372 -0.41377,0.84408 -0.41332,0.29037 -1.21313,0.29102 -0.79395,6.3e-4 -1.20679,-0.28907 -0.41286,-0.28677 -0.41241,-0.84342 2.9e-4,-0.37207 0.20557,-0.62126 0.20235,-0.24918 0.60089,-0.36962 -0.44522,-0.12269 -0.67058,-0.40083 -0.2283,-0.27521 -0.22796,-0.69708 5.3e-4,-0.65039 0.43439,-0.98473 0.43093,-0.33139 1.28054,-0.33207 0.85254,-6.9e-4 1.2888,0.33001 0.43333,0.33364 0.4328,0.98403 -3.3e-4,0.42187 -0.22615,0.69744 -0.22874,0.27851 -0.67415,0.40191 z m -0.26437,0.8762 q 2.1e-4,-0.26075 -0.14324,-0.40126 -0.14637,-0.14051 -0.4159,-0.14029 -0.26367,2.1e-4 -0.40734,0.14095 -0.14366,0.14074 -0.14387,0.40149 -2.1e-4,0.26074 0.14323,0.39831 0.14344,0.14052 0.40711,0.14031 0.26953,-2.2e-4 0.41613,-0.14097 0.14367,-0.14073 0.14388,-0.39854 z"
         style="font-style:normal;font-variant:normal;font-weight:bold;font-stretch:normal;font-size:6px;line-height:149.00000095%;font-family:sans-serif;-inkscape-font-specification:'Sans Bold';text-align:start;letter-spacing:0px;word-spacing:0px;writing-mode:lr-tb;text-anchor:start;fill:#ffeabf;fill-opacity:1;stroke:none"
         id="path1212" />
      <path
         inkscape:connector-curvature="0"
         d="m 251.53361,874.26429 8e-4,0.99609 2.82715,0.002 -0.21177,-1.02263 0.76758,6.2e-4 0.21175,1.01677 8.6e-4,1.07227 -3.59472,-0.003 8e-4,0.99609 -0.7793,-6.2e-4 -0.002,-3.0586 z"
         style="font-style:normal;font-variant:normal;font-weight:bold;font-stretch:normal;font-size:6px;line-height:149.00000095%;font-family:sans-serif;-inkscape-font-specification:'Sans Bold';text-align:start;letter-spacing:0px;word-spacing:0px;writing-mode:lr-tb;text-anchor:start;fill:#000000;fill-opacity:1;stroke:none"
         id="path1181" />
      <path
         inkscape:connector-curvature="0"
         d="m 242.64423,875.28254 0.002,1.92481 -0.8291,-6.7e-4 -0.003,-3.17872 0.8291,6.7e-4 1.41046,1.59781 q 0.19353,0.21403 0.37819,0.31671 0.18465,0.10269 0.38387,0.10285 0.30762,2.5e-4 0.49495,-0.20761 0.18734,-0.20493 0.18706,-0.5477 -2.1e-4,-0.26367 -0.11472,-0.57724 -0.11158,-0.31357 -0.33452,-0.67117 l 0.96093,7.7e-4 q 0.12629,0.38096 0.19103,0.75309 0.0677,0.37212 0.068,0.72954 6.3e-4,0.78516 -0.34473,1.21847 -0.34535,0.43626 -0.96351,0.43576 -0.35743,-2.9e-4 -0.66812,-0.18511 -0.30777,-0.18482 -0.8268,-0.77703 z"
         style="font-style:normal;font-variant:normal;font-weight:bold;font-stretch:normal;font-size:6px;line-height:149.00000095%;font-family:sans-serif;-inkscape-font-specification:'Sans Bold';text-align:start;letter-spacing:0px;word-spacing:0px;writing-mode:lr-tb;text-anchor:start;fill:#000000;fill-opacity:1;stroke:none"
         id="path1183" />
      <path
         inkscape:connector-curvature="0"
         d="m 235.23438,876.34299 q -0.1139,0.44229 -0.3979,0.67058 -0.28106,0.23122 -0.71758,0.23087 -0.65039,-5.2e-4 -0.99064,-0.49885 -0.33732,-0.49831 -0.33808,-1.45339 -2.7e-4,-0.33692 0.0551,-0.67671 0.0524,-0.33687 0.16061,-0.66784 l 0.87011,6.9e-4 q -0.15795,0.31629 -0.23973,0.62677 -0.0789,0.31341 -0.0786,0.61517 3.6e-4,0.44824 0.15582,0.68567 0.15546,0.24036 0.4455,0.24059 0.29883,2.4e-4 0.45098,-0.24573 0.15508,-0.24304 0.15469,-0.72058 l -3.6e-4,-0.45117 0.72656,5.8e-4 3.8e-4,0.47461 q 3.4e-4,0.42481 0.13235,0.63292 0.13493,0.20812 0.40739,0.20833 0.25196,2.1e-4 0.38949,-0.20183 0.13753,-0.20204 0.13724,-0.57118 -2.2e-4,-0.27246 -0.0619,-0.55083 -0.0617,-0.27837 -0.18208,-0.55386 l 0.82618,6.7e-4 q 0.0941,0.33406 0.14115,0.66222 0.0472,0.32817 0.0474,0.64457 6.8e-4,0.85254 -0.28023,1.27419 -0.27798,0.42458 -0.84048,0.42413 -0.38379,-3.1e-4 -0.63005,-0.20266 -0.24332,-0.20235 -0.34325,-0.59793 z"
         style="font-style:normal;font-variant:normal;font-weight:bold;font-stretch:normal;font-size:6px;line-height:149.00000095%;font-family:sans-serif;-inkscape-font-specification:'Sans Bold';text-align:start;letter-spacing:0px;word-spacing:0px;writing-mode:lr-tb;text-anchor:start;fill:#000000;fill-opacity:1;stroke:none"
         id="path1185" />
      <path
         inkscape:connector-curvature="0"
         d="m 227.38082,875.75075 -1.83205,-1.23781 0.001,1.23633 z m 0.92856,-0.18676 0.001,1.25391 -2.75976,-0.002 5.1e-4,0.62402 -0.81739,-6.5e-4 -5.1e-4,-0.62402 -0.79687,-6.4e-4 -8.5e-4,-1.06641 0.79687,6.4e-4 -0.002,-1.93945 0.9668,7.7e-4 z"
         style="font-style:normal;font-variant:normal;font-weight:bold;font-stretch:normal;font-size:6px;line-height:149.00000095%;font-family:sans-serif;-inkscape-font-specification:'Sans Bold';text-align:start;letter-spacing:0px;word-spacing:0px;writing-mode:lr-tb;text-anchor:start;fill:#ffeabf;fill-opacity:1;stroke:none"
         id="path1187" />
      <path
         inkscape:connector-curvature="0"
         d="m 219.36826,874.17107 0.002,2.80371 -0.8291,-6.7e-4 -0.002,-1.9043 -0.67676,-5.4e-4 q 0.0353,0.12894 0.0529,0.25785 0.0206,0.13186 0.0207,0.27248 6.4e-4,0.79981 -0.40037,1.2448 -0.39808,0.44499 -1.11292,0.44441 -0.70899,-5.7e-4 -1.11074,-0.48721 -0.40176,-0.48372 -0.40245,-1.34505 -3e-4,-0.37207 0.0726,-0.73823 0.07,-0.36322 0.21622,-0.72345 l 0.88769,7.1e-4 q -0.20479,0.35726 -0.30706,0.6765 -0.10229,0.32219 -0.10206,0.60637 3.3e-4,0.41015 0.19974,0.64469 0.20233,0.23747 0.54511,0.23774 0.3457,2.8e-4 0.54473,-0.23686 0.19903,-0.23422 0.1987,-0.64437 -1.9e-4,-0.24317 -0.0649,-0.51861 -0.0617,-0.27544 -0.19383,-0.59195 z"
         style="font-style:normal;font-variant:normal;font-weight:bold;font-stretch:normal;font-size:6px;line-height:149.00000095%;font-family:sans-serif;-inkscape-font-specification:'Sans Bold';text-align:start;letter-spacing:0px;word-spacing:0px;writing-mode:lr-tb;text-anchor:start;fill:#ffeabf;fill-opacity:1;stroke:none"
         id="path1189" />
      <path
         inkscape:connector-curvature="0"
         d="m 208.21465,875.69726 q -2.4e-4,-0.2959 -0.19372,-0.44547 -0.19054,-0.14663 -0.57433,-0.14694 -0.38379,-3.1e-4 -0.57704,0.14602 -0.19031,0.14925 -0.19007,0.44515 2.4e-4,0.29883 0.19079,0.44548 0.19348,0.14956 0.57727,0.14987 0.38379,3.1e-4 0.5741,-0.14895 0.19324,-0.14633 0.193,-0.44516 z m 2.1017,1.39621 -0.80859,-6.5e-4 q 0.13162,-0.27821 0.19294,-0.52425 0.0642,-0.24604 0.064,-0.48042 -4e-4,-0.5039 -0.28188,-0.78537 -0.27854,-0.28148 -0.82936,-0.3288 0.14372,0.19347 0.21421,0.41912 0.0734,0.22564 0.0736,0.49224 5.4e-4,0.6709 -0.39171,1.08074 -0.39225,0.41277 -1.02799,0.41226 -0.70312,-5.7e-4 -1.1283,-0.46087 -0.42224,-0.4603 -0.42286,-1.23374 -6.8e-4,-0.85253 0.57316,-1.32082 0.57678,-0.46535 1.63439,-0.4645 1.08399,8.7e-4 1.70258,0.54629 0.62153,0.54834 0.6223,1.50049 2.4e-4,0.30175 -0.0464,0.5859 -0.0467,0.28414 -0.14018,0.56238 z"
         style="font-style:normal;font-variant:normal;font-weight:bold;font-stretch:normal;font-size:6px;line-height:149.00000095%;font-family:sans-serif;-inkscape-font-specification:'Sans Bold';text-align:start;letter-spacing:0px;word-spacing:0px;writing-mode:lr-tb;text-anchor:start;fill:#ffeabf;fill-opacity:1;stroke:none"
         id="path1191" />
      <path
         inkscape:connector-curvature="0"
         d="m 201.48807,873.92232 0.003,3.2959 -0.63574,-5.1e-4 -3.73966,-1.70808 -8.8e-4,-1.09863 3.54622,1.61711 -0.002,-2.10645 z"
         style="font-style:normal;font-variant:normal;font-weight:bold;font-stretch:normal;font-size:6px;line-height:149.00000095%;font-family:sans-serif;-inkscape-font-specification:'Sans Bold';text-align:start;letter-spacing:0px;word-spacing:0px;writing-mode:lr-tb;text-anchor:start;fill:#ffeabf;fill-opacity:1;stroke:none"
         id="path1193" />
      <path
         inkscape:connector-curvature="0"
         d="m 190.13243,875.6007 q -2.5e-4,-0.3164 -0.17324,-0.48647 -0.17299,-0.17006 -0.49526,-0.17032 -0.32227,-2.6e-4 -0.49498,0.16952 -0.16978,0.1698 -0.16953,0.4862 2.5e-4,0.31348 0.17031,0.4806 0.17298,0.16713 0.49525,0.16739 0.3252,2.6e-4 0.49499,-0.16659 0.17271,-0.16685 0.17246,-0.48033 z m 0.37141,-0.82294 q 0.1198,-0.39835 0.36866,-0.6003 0.24885,-0.20194 0.62092,-0.20164 0.55371,4.5e-4 0.84409,0.41376 0.29037,0.41332 0.29101,1.21312 6.4e-4,0.79395 -0.28907,1.2068 -0.28678,0.41286 -0.84342,0.41241 -0.37207,-3e-4 -0.62125,-0.20558 -0.24919,-0.20235 -0.36963,-0.60087 -0.12269,0.44521 -0.40083,0.67057 -0.2752,0.22829 -0.69707,0.22795 -0.65039,-5.2e-4 -0.98473,-0.43438 -0.3314,-0.43093 -0.33208,-1.28054 -6.9e-4,-0.85254 0.33001,-1.2888 0.33365,-0.43332 0.98404,-0.4328 0.42187,3.4e-4 0.69744,0.22614 0.2785,0.22875 0.40191,0.67416 z m 0.87619,0.26437 q -0.26075,-2.1e-4 -0.40125,0.14324 -0.14052,0.14637 -0.1403,0.4159 2.1e-4,0.26367 0.14096,0.40734 0.14073,0.14366 0.40148,0.14387 0.26074,2.1e-4 0.39832,-0.14323 0.14051,-0.14345 0.1403,-0.40712 -2.2e-4,-0.26953 -0.14096,-0.41612 -0.14074,-0.14367 -0.39855,-0.14388 z"
         style="font-style:normal;font-variant:normal;font-weight:bold;font-stretch:normal;font-size:6px;line-height:149.00000095%;font-family:sans-serif;-inkscape-font-specification:'Sans Bold';text-align:start;letter-spacing:0px;word-spacing:0px;writing-mode:lr-tb;text-anchor:start;fill:#ffeabf;fill-opacity:1;stroke:none"
         id="path1195" />
      <path
         inkscape:connector-curvature="0"
         d="m 102.43618,876.12765 -8e-4,-0.99609 -2.827146,-0.002 0.211759,1.02263 -0.767578,-6.2e-4 -0.211755,-1.01677 -8.62e-4,-1.07227 3.594732,0.003 -8e-4,-0.99609 0.7793,6.2e-4 0.002,3.0586 z"
         style="font-style:normal;font-variant:normal;font-weight:bold;font-stretch:normal;font-size:6px;line-height:149.00000095%;font-family:sans-serif;-inkscape-font-specification:'Sans Bold';text-align:start;letter-spacing:0px;word-spacing:0px;writing-mode:lr-tb;text-anchor:start;fill:#000000;fill-opacity:1;stroke:none"
         id="path1164" />
      <path
         inkscape:connector-curvature="0"
         d="m 111.32556,875.1094 -0.002,-1.9248 0.8291,6.7e-4 0.003,3.17871 -0.8291,-6.7e-4 -1.41046,-1.59781 q -0.19354,-0.21403 -0.37819,-0.31671 -0.18465,-0.10269 -0.38387,-0.10285 -0.30762,-2.5e-4 -0.49495,0.20761 -0.18734,0.20493 -0.18706,0.5477 2.1e-4,0.26368 0.11472,0.57724 0.11158,0.31357 0.33452,0.67117 l -0.96094,-7.7e-4 q -0.12628,-0.38096 -0.19103,-0.75309 -0.0677,-0.37212 -0.068,-0.72954 -6.3e-4,-0.78516 0.34473,-1.21847 0.34535,-0.43625 0.96351,-0.43575 0.35742,2.9e-4 0.66812,0.18511 0.30777,0.18482 0.82679,0.77702 z"
         style="font-style:normal;font-variant:normal;font-weight:bold;font-stretch:normal;font-size:6px;line-height:149.00000095%;font-family:sans-serif;-inkscape-font-specification:'Sans Bold';text-align:start;letter-spacing:0px;word-spacing:0px;writing-mode:lr-tb;text-anchor:start;fill:#000000;fill-opacity:1;stroke:none"
         id="path1166" />
      <path
         inkscape:connector-curvature="0"
         d="m 118.73541,874.04896 q 0.1139,-0.4423 0.3979,-0.67058 0.28106,-0.23123 0.71758,-0.23088 0.65039,5.2e-4 0.99063,0.49885 0.33732,0.49832 0.33809,1.4534 2.7e-4,0.33691 -0.0551,0.6767 -0.0524,0.33688 -0.1606,0.66784 l -0.87012,-6.9e-4 q 0.15796,-0.31628 0.23974,-0.62676 0.0789,-0.31342 0.0786,-0.61518 -3.6e-4,-0.44824 -0.15582,-0.68566 -0.15547,-0.24037 -0.44551,-0.2406 -0.29882,-2.4e-4 -0.45097,0.24574 -0.15508,0.24303 -0.15469,0.72057 l 3.6e-4,0.45117 -0.72656,-5.8e-4 -3.8e-4,-0.47461 q -3.4e-4,-0.4248 -0.13235,-0.63292 -0.13493,-0.20812 -0.4074,-0.20833 -0.25195,-2.1e-4 -0.38948,0.20183 -0.13753,0.20204 -0.13724,0.57118 2.2e-4,0.27246 0.0619,0.55083 0.0617,0.27837 0.18208,0.55386 l -0.82617,-6.7e-4 q -0.0941,-0.33405 -0.14115,-0.66222 -0.0472,-0.32816 -0.0474,-0.64457 -6.9e-4,-0.85254 0.28023,-1.27418 0.27797,-0.42459 0.84048,-0.42414 0.38379,3.1e-4 0.63005,0.20266 0.24332,0.20234 0.34325,0.59794 z"
         style="font-style:normal;font-variant:normal;font-weight:bold;font-stretch:normal;font-size:6px;line-height:149.00000095%;font-family:sans-serif;-inkscape-font-specification:'Sans Bold';text-align:start;letter-spacing:0px;word-spacing:0px;writing-mode:lr-tb;text-anchor:start;fill:#000000;fill-opacity:1;stroke:none"
         id="path1168" />
      <path
         inkscape:connector-curvature="0"
         d="m 126.58897,874.64119 1.83204,1.23781 -9.9e-4,-1.23633 z m -0.92857,0.18676 -0.001,-1.2539 2.75977,0.002 -5e-4,-0.62402 0.81738,6.5e-4 5.1e-4,0.62402 0.79688,6.4e-4 8.5e-4,1.0664 -0.79688,-6.4e-4 0.002,1.93946 -0.96679,-7.7e-4 z"
         style="font-style:normal;font-variant:normal;font-weight:bold;font-stretch:normal;font-size:6px;line-height:149.00000095%;font-family:sans-serif;-inkscape-font-specification:'Sans Bold';text-align:start;letter-spacing:0px;word-spacing:0px;writing-mode:lr-tb;text-anchor:start;fill:#ffeabf;fill-opacity:1;stroke:none"
         id="path1170" />
      <path
         inkscape:connector-curvature="0"
         d="m 134.60153,876.22088 -0.002,-2.80371 0.82911,6.7e-4 0.002,1.90429 0.67675,5.4e-4 q -0.0352,-0.12893 -0.0529,-0.25785 -0.0206,-0.13186 -0.0207,-0.27248 -6.4e-4,-0.79981 0.40037,-1.2448 0.39808,-0.44499 1.11292,-0.44441 0.70899,5.7e-4 1.11074,0.48722 0.40176,0.48372 0.40245,1.34504 3e-4,0.37207 -0.0726,0.73824 -0.07,0.36322 -0.21622,0.72345 l -0.88769,-7.1e-4 q 0.20478,-0.35726 0.30706,-0.67651 0.10228,-0.32218 0.10206,-0.60636 -3.3e-4,-0.41016 -0.19974,-0.6447 -0.20234,-0.23747 -0.54511,-0.23774 -0.3457,-2.8e-4 -0.54473,0.23686 -0.19903,0.23422 -0.1987,0.64438 1.9e-4,0.24316 0.0649,0.5186 0.0617,0.27544 0.19384,0.59196 z"
         style="font-style:normal;font-variant:normal;font-weight:bold;font-stretch:normal;font-size:6px;line-height:149.00000095%;font-family:sans-serif;-inkscape-font-specification:'Sans Bold';text-align:start;letter-spacing:0px;word-spacing:0px;writing-mode:lr-tb;text-anchor:start;fill:#ffeabf;fill-opacity:1;stroke:none"
         id="path1172" />
      <path
         inkscape:connector-curvature="0"
         d="m 145.75514,874.69468 q 2.4e-4,0.2959 0.19372,0.44547 0.19054,0.14664 0.57433,0.14695 0.38379,3.1e-4 0.57704,-0.14603 0.19031,-0.14925 0.19007,-0.44515 -2.4e-4,-0.29883 -0.19079,-0.44547 -0.19348,-0.14957 -0.57727,-0.14988 -0.38379,-3.1e-4 -0.5741,0.14896 -0.19324,0.14632 -0.193,0.44515 z m -2.10171,-1.39621 0.8086,6.5e-4 q -0.13162,0.27821 -0.19294,0.52425 -0.0643,0.24605 -0.0641,0.48042 4.1e-4,0.50391 0.28188,0.78538 0.27856,0.28148 0.82938,0.32879 -0.14372,-0.19347 -0.21421,-0.41911 -0.0734,-0.22565 -0.0736,-0.49225 -5.4e-4,-0.6709 0.39171,-1.08073 0.39224,-0.41278 1.02799,-0.41227 0.70312,5.7e-4 1.1283,0.46087 0.42224,0.4603 0.42286,1.23374 6.8e-4,0.85254 -0.57316,1.32083 -0.57678,0.46535 -1.63439,0.4645 -1.08399,-8.7e-4 -1.70259,-0.54629 -0.62154,-0.54834 -0.6223,-1.50049 -2.4e-4,-0.30176 0.0464,-0.58591 0.0467,-0.28414 0.14017,-0.56238 z"
         style="font-style:normal;font-variant:normal;font-weight:bold;font-stretch:normal;font-size:6px;line-height:149.00000095%;font-family:sans-serif;-inkscape-font-specification:'Sans Bold';text-align:start;letter-spacing:0px;word-spacing:0px;writing-mode:lr-tb;text-anchor:start;fill:#ffeabf;fill-opacity:1;stroke:none"
         id="path1174" />
      <path
         inkscape:connector-curvature="0"
         d="m 152.48172,876.46962 -0.003,-3.2959 0.63574,5.1e-4 3.73965,1.70808 8.9e-4,1.09863 -3.54622,-1.6171 0.002,2.10644 z"
         style="font-style:normal;font-variant:normal;font-weight:bold;font-stretch:normal;font-size:6px;line-height:149.00000095%;font-family:sans-serif;-inkscape-font-specification:'Sans Bold';text-align:start;letter-spacing:0px;word-spacing:0px;writing-mode:lr-tb;text-anchor:start;fill:#ffeabf;fill-opacity:1;stroke:none"
         id="path1176" />
      <path
         inkscape:connector-curvature="0"
         d="m 163.83736,874.79124 q 2.5e-4,0.31641 0.17324,0.48647 0.17299,0.17006 0.49526,0.17032 0.32226,2.6e-4 0.49498,-0.16952 0.16978,-0.16979 0.16953,-0.4862 -2.5e-4,-0.31347 -0.17031,-0.4806 -0.17299,-0.16713 -0.49525,-0.16739 -0.3252,-2.6e-4 -0.49499,0.16659 -0.17271,0.16686 -0.17246,0.48033 z m -0.37141,0.82294 q -0.1198,0.39835 -0.36866,0.6003 -0.24887,0.20195 -0.62094,0.20165 -0.55371,-4.5e-4 -0.84408,-0.41377 -0.29036,-0.41331 -0.291,-1.21312 -6.4e-4,-0.79394 0.28906,-1.2068 0.28678,-0.41286 0.84342,-0.41241 0.37207,3e-4 0.62126,0.20558 0.24918,0.20235 0.36962,0.60088 0.1227,-0.44521 0.40084,-0.67058 0.2752,-0.22829 0.69707,-0.22795 0.65039,5.2e-4 0.98473,0.43439 0.3314,0.43092 0.33208,1.28053 6.8e-4,0.85254 -0.33002,1.2888 -0.33364,0.43333 -0.98403,0.43281 -0.42187,-3.4e-4 -0.69744,-0.22615 -0.2785,-0.22874 -0.40191,-0.67416 z m -0.87619,-0.26437 q 0.26074,2.1e-4 0.40125,-0.14323 0.14051,-0.14638 0.14029,-0.41591 -2.1e-4,-0.26367 -0.14095,-0.40733 -0.14074,-0.14367 -0.40148,-0.14388 -0.26074,-2.1e-4 -0.39833,0.14324 -0.1405,0.14344 -0.14029,0.40711 2.1e-4,0.26953 0.14095,0.41613 0.14075,0.14366 0.39856,0.14387 z"
         style="font-style:normal;font-variant:normal;font-weight:bold;font-stretch:normal;font-size:6px;line-height:149.00000095%;font-family:sans-serif;-inkscape-font-specification:'Sans Bold';text-align:start;letter-spacing:0px;word-spacing:0px;writing-mode:lr-tb;text-anchor:start;fill:#ffeabf;fill-opacity:1;stroke:none"
         id="path1178" />
      <g
         id="g1019">
        <path
           style="fill:none;fill-rule:evenodd;stroke:#000000;stroke-width:0.7763142px;stroke-linecap:butt;stroke-linejoin:miter;stroke-opacity:1"
           d="M -21.665913,1064.0272 H -33.004496"
           id="path4491-8"
           inkscape:connector-curvature="0" />
        <path
           style="fill:none;fill-rule:evenodd;stroke:#000000;stroke-width:0.7763142px;stroke-linecap:butt;stroke-linejoin:miter;stroke-opacity:1"
           d="m -11.66585,1074.0272 v 11.3386"
           id="path4491-0-3"
           inkscape:connector-curvature="0" />
      </g>
      <g
         id="g1015">
        <path
           style="fill:none;fill-rule:evenodd;stroke:#000000;stroke-width:0.7763142px;stroke-linecap:butt;stroke-linejoin:miter;stroke-opacity:1"
           d="m 367.06322,1074.0273 v 11.3386"
           id="path4491-3"
           inkscape:connector-curvature="0" />
        <path
           style="fill:none;fill-rule:evenodd;stroke:#000000;stroke-width:0.7763142px;stroke-linecap:butt;stroke-linejoin:miter;stroke-opacity:1"
           d="M 377.06322,1064.0272 H 388.4018"
           id="path4491-0-7"
           inkscape:connector-curvature="0" />
      </g>
      <g
         transform="rotate(180,177.69868,874.66266)"
         id="g1077">
        <path
           inkscape:connector-curvature="0"
           id="path1073"
           d="M -21.665913,1064.0272 H -33.004496"
           style="fill:none;fill-rule:evenodd;stroke:#000000;stroke-width:0.7763142px;stroke-linecap:butt;stroke-linejoin:miter;stroke-opacity:1" />
        <path
           inkscape:connector-curvature="0"
           id="path1075"
           d="m -11.66585,1074.0272 v 11.3386"
           style="fill:none;fill-rule:evenodd;stroke:#000000;stroke-width:0.7763142px;stroke-linecap:butt;stroke-linejoin:miter;stroke-opacity:1" />
      </g>
      <g
         transform="rotate(180,177.69868,874.66266)"
         id="g1083">
        <path
           inkscape:connector-curvature="0"
           id="path1079"
           d="m 367.06322,1074.0273 v 11.3386"
           style="fill:none;fill-rule:evenodd;stroke:#000000;stroke-width:0.7763142px;stroke-linecap:butt;stroke-linejoin:miter;stroke-opacity:1" />
        <path
           inkscape:connector-curvature="0"
           id="path1081"
           d="M 377.06322,1064.0272 H 388.4018"
           style="fill:none;fill-rule:evenodd;stroke:#000000;stroke-width:0.7763142px;stroke-linecap:butt;stroke-linejoin:miter;stroke-opacity:1" />
      </g>
    </g>
  </g>
</svg>
