<?xml version="1.0" encoding="UTF-8" standalone="no"?>
<!-- Created with Inkscape (http://www.inkscape.org/) -->
<svg xmlns:rdf="http://www.w3.org/1999/02/22-rdf-syntax-ns#" xmlns="http://www.w3.org/2000/svg" xmlns:cc="http://web.resource.org/cc/" xmlns:xlink="http://www.w3.org/1999/xlink" xmlns:dc="http://purl.org/dc/elements/1.1/" xmlns:svg="http://www.w3.org/2000/svg" xmlns:inkscape="http://www.inkscape.org/namespaces/inkscape" xmlns:sodipodi="http://sodipodi.sourceforge.net/DTD/sodipodi-0.dtd" xmlns:ns1="http://sozi.baierouge.fr" id="svg2" viewBox="0 0 208.6 251.36" version="1.0" inkscape:version="0.91 r13725">
  <defs id="defs4">
    <linearGradient id="linearGradient5106">
      <stop id="stop5108" style="stop-color:#625b00" offset="0"/>
      <stop id="stop5110" style="stop-color:#625b00;stop-opacity:0" offset="1"/>
    </linearGradient>
    <linearGradient id="linearGradient5096">
      <stop id="stop5098" style="stop-color:#6f8900" offset="0"/>
      <stop id="stop5100" style="stop-color:#6f8900;stop-opacity:0" offset="1"/>
    </linearGradient>
    <linearGradient id="linearGradient4877">
      <stop id="stop4879" style="stop-color:#e5a400" offset="0"/>
      <stop id="stop4881" style="stop-color:#e5a400;stop-opacity:0" offset="1"/>
    </linearGradient>
    <linearGradient id="linearGradient4668">
      <stop id="stop4670" style="stop-color:#e5f800" offset="0"/>
      <stop id="stop4672" style="stop-color:#e5f800;stop-opacity:0" offset="1"/>
    </linearGradient>
    <linearGradient id="linearGradient4658">
      <stop id="stop4660" style="stop-color:#4c2d00" offset="0"/>
      <stop id="stop4662" style="stop-color:#4c2d00;stop-opacity:0" offset="1"/>
    </linearGradient>
    <linearGradient id="linearGradient4624">
      <stop id="stop4626" style="stop-color:#a08600" offset="0"/>
      <stop id="stop4628" style="stop-color:#a08600;stop-opacity:0" offset="1"/>
    </linearGradient>
    <linearGradient id="linearGradient4606">
      <stop id="stop4608" style="stop-color:#8e8600" offset="0"/>
      <stop id="stop4610" style="stop-color:#8e8600;stop-opacity:0" offset="1"/>
    </linearGradient>
    <linearGradient id="linearGradient4596">
      <stop id="stop4598" style="stop-color:#8e9c00" offset="0"/>
      <stop id="stop4600" style="stop-color:#8e9c00;stop-opacity:0" offset="1"/>
    </linearGradient>
    <linearGradient id="linearGradient4558">
      <stop id="stop4560" style="stop-color:#655200" offset="0"/>
      <stop id="stop4562" style="stop-color:#655200;stop-opacity:0" offset="1"/>
    </linearGradient>
    <linearGradient id="linearGradient4548">
      <stop id="stop4550" style="stop-color:#684f00" offset="0"/>
      <stop id="stop4552" style="stop-color:#684f00;stop-opacity:0" offset="1"/>
    </linearGradient>
    <linearGradient id="linearGradient3992">
      <stop id="stop3994" style="stop-color:#000000" offset="0"/>
      <stop id="stop3996" style="stop-color:#000000;stop-opacity:0" offset="1"/>
    </linearGradient>
    <linearGradient id="linearGradient3984">
      <stop id="stop3986" style="stop-color:#f57200" offset="0"/>
      <stop id="stop3988" style="stop-color:#f57200;stop-opacity:0" offset="1"/>
    </linearGradient>
    <linearGradient id="linearGradient3946">
      <stop id="stop3948" style="stop-color:#680000" offset="0"/>
      <stop id="stop3950" style="stop-color:#680000;stop-opacity:0" offset="1"/>
    </linearGradient>
    <linearGradient id="linearGradient3938">
      <stop id="stop3940" style="stop-color:#db4b00" offset="0"/>
      <stop id="stop3942" style="stop-color:#db4b00;stop-opacity:0" offset="1"/>
    </linearGradient>
    <linearGradient id="linearGradient3910">
      <stop id="stop3912" style="stop-color:#dbae00" offset="0"/>
      <stop id="stop3914" style="stop-color:#dbae00;stop-opacity:0" offset="1"/>
    </linearGradient>
    <linearGradient id="linearGradient3896">
      <stop id="stop3898" style="stop-color:#202000" offset="0"/>
      <stop id="stop3900" style="stop-color:#202000;stop-opacity:0" offset="1"/>
    </linearGradient>
    <linearGradient id="linearGradient3844">
      <stop id="stop3846" style="stop-color:#f9e100" offset="0"/>
      <stop id="stop3848" style="stop-color:#f9e100;stop-opacity:0" offset="1"/>
    </linearGradient>
    <linearGradient id="linearGradient3734">
      <stop id="stop3736" style="stop-color:#20a000" offset="0"/>
      <stop id="stop3738" style="stop-color:#205100;stop-opacity:0" offset="1"/>
    </linearGradient>
    <linearGradient id="linearGradient2791">
      <stop id="stop2793" style="stop-color:#ce5aef" offset="0"/>
      <stop id="stop2795" style="stop-color:#ce5aef;stop-opacity:0" offset="1"/>
    </linearGradient>
    <linearGradient id="linearGradient2797" y2="473.74" xlink:href="#linearGradient2791" gradientUnits="userSpaceOnUse" x2="290.93" gradientTransform="translate(99.307 -73.362)" y1="452.74" x1="283.41"/>
    <linearGradient id="linearGradient2801" y2="489.35" xlink:href="#linearGradient2791" gradientUnits="userSpaceOnUse" x2="298.14" gradientTransform="translate(119.31 -87.362)" y1="451.24" x1="282.81"/>
    <linearGradient id="linearGradient2805" y2="492.53" xlink:href="#linearGradient2791" gradientUnits="userSpaceOnUse" x2="291.83" gradientTransform="translate(144.41 -99.094)" y1="462.04" x1="284.01"/>
    <linearGradient id="linearGradient2809" y2="492.53" xlink:href="#linearGradient2791" gradientUnits="userSpaceOnUse" x2="291.83" gradientTransform="translate(168.22 -102.9)" y1="462.04" x1="284.01"/>
    <linearGradient id="linearGradient2813" y2="492.53" xlink:href="#linearGradient2791" gradientUnits="userSpaceOnUse" x2="291.83" gradientTransform="translate(188.22 -102.9)" y1="462.04" x1="284.01"/>
    <radialGradient id="radialGradient3740" xlink:href="#linearGradient3734" gradientUnits="userSpaceOnUse" cy="388.24" cx="348.97" gradientTransform="matrix(1.1855 -.10734 .054885 1.1453 -86.385 -19.085)" r="8.7508"/>
    <linearGradient id="linearGradient3750" y2="386.21" xlink:href="#linearGradient3992" gradientUnits="userSpaceOnUse" x2="349.71" y1="397.48" x1="354.83"/>
    <linearGradient id="linearGradient3850" y2="390" xlink:href="#linearGradient3844" gradientUnits="userSpaceOnUse" x2="357.21" y1="390.2" x1="341.73"/>
    <linearGradient id="linearGradient3906" y2="398.34" xlink:href="#linearGradient3896" gradientUnits="userSpaceOnUse" x2="339.01" y1="404.54" x1="340.06"/>
    <radialGradient id="radialGradient3916" xlink:href="#linearGradient3910" gradientUnits="userSpaceOnUse" cy="398.98" cx="338.16" gradientTransform="matrix(.79639 .029087 -.043930 1.2028 86.379 -91.017)" r="4.1782"/>
    <radialGradient id="radialGradient3944" xlink:href="#linearGradient3938" gradientUnits="userSpaceOnUse" cy="387.47" cx="305.47" gradientTransform="matrix(-.50416 .38788 -.64459 -.71389 709.23 545.59)" r="4.2998"/>
    <linearGradient id="linearGradient3954" y2="389.13" xlink:href="#linearGradient3946" gradientUnits="userSpaceOnUse" x2="303.3" y1="385.13" x1="307.79"/>
    <linearGradient id="linearGradient4022" y2="306.71" xlink:href="#linearGradient3984" gradientUnits="userSpaceOnUse" x2="438.41" gradientTransform="matrix(.82698 .40274 -.40851 .75006 195.67 -68.761)" y1="284.35" x1="384.68"/>
    <linearGradient id="linearGradient4024" y2="306.71" xlink:href="#linearGradient3992" gradientUnits="userSpaceOnUse" x2="438.41" gradientTransform="matrix(.82698 .40274 -.40851 .75006 195.67 -68.761)" y1="284.35" x1="384.68"/>
    <linearGradient id="linearGradient4026" y2="306.71" xlink:href="#linearGradient3984" gradientUnits="userSpaceOnUse" x2="438.41" gradientTransform="matrix(.98004 .19878 -.19878 .98004 44.985 -66.904)" y1="284.35" x1="384.68"/>
    <linearGradient id="linearGradient4028" y2="306.71" xlink:href="#linearGradient3992" gradientUnits="userSpaceOnUse" x2="438.41" gradientTransform="matrix(.98004 .19878 -.19878 .98004 44.985 -66.904)" y1="284.35" x1="384.68"/>
    <linearGradient id="linearGradient4043" y2="306.71" xlink:href="#linearGradient3984" gradientUnits="userSpaceOnUse" x2="438.41" gradientTransform="matrix(.93548 .35337 -.35337 .93548 137 -117.35)" y1="284.35" x1="384.68"/>
    <linearGradient id="linearGradient4045" y2="306.71" xlink:href="#linearGradient3992" gradientUnits="userSpaceOnUse" x2="438.41" gradientTransform="matrix(.93548 .35337 -.35337 .93548 137 -117.35)" y1="284.35" x1="384.68"/>
    <linearGradient id="linearGradient4048" y2="306.71" xlink:href="#linearGradient3984" gradientUnits="userSpaceOnUse" x2="438.41" gradientTransform="matrix(.75169 .53015 -.52351 .67484 286.03 -95.017)" y1="284.35" x1="384.68"/>
    <linearGradient id="linearGradient4050" y2="306.71" xlink:href="#linearGradient3992" gradientUnits="userSpaceOnUse" x2="438.41" gradientTransform="matrix(.75169 .53015 -.52351 .67484 286.03 -95.017)" y1="284.35" x1="384.68"/>
    <linearGradient id="linearGradient5238" y2="734.87" xlink:href="#linearGradient5106" gradientUnits="userSpaceOnUse" x2="144.55" y1="750.09" x1="183.55"/>
    <linearGradient id="linearGradient5240" y2="776.93" xlink:href="#linearGradient5096" gradientUnits="userSpaceOnUse" x2="211.8" y1="741.41" x1="213"/>
    <linearGradient id="linearGradient5242" y2="509.14" gradientUnits="userSpaceOnUse" x2="462.32" gradientTransform="translate(-48.378 -8.063)" y1="493.02" x1="475.3">
      <stop id="stop4540" style="stop-color:#fcf600" offset="0"/>
      <stop id="stop4542" style="stop-color:#fcf600;stop-opacity:0" offset="1"/>
    </linearGradient>
    <linearGradient id="linearGradient5244" y2="541.55" gradientUnits="userSpaceOnUse" x2="455.73" y1="553.28" x1="401.24">
      <stop id="stop4510" style="stop-color:#fc7400" offset="0"/>
      <stop id="stop4512" style="stop-color:#fc7400;stop-opacity:0" offset="1"/>
    </linearGradient>
    <linearGradient id="linearGradient5246" y2="494.69" gradientUnits="userSpaceOnUse" x2="393.9" y1="532.81" x1="376.31">
      <stop id="stop4492" style="stop-color:#fc9f00" offset="0"/>
      <stop id="stop4494" style="stop-color:#fc9f00;stop-opacity:0" offset="1"/>
    </linearGradient>
    <linearGradient id="linearGradient5248" y2="690.95" xlink:href="#linearGradient4658" gradientUnits="userSpaceOnUse" x2="299.65" gradientTransform="translate(-6,-2)" y1="685.78" x1="323.07"/>
    <linearGradient id="linearGradient5250" y2="467.19" xlink:href="#linearGradient4668" gradientUnits="userSpaceOnUse" x2="330.65" y1="474.49" x1="326.16"/>
    <linearGradient id="linearGradient5252" y2="500.14" gradientUnits="userSpaceOnUse" x2="338.98" y1="532.39" x1="323.96">
      <stop id="stop4520" style="stop-color:#fc5500" offset="0"/>
      <stop id="stop4522" style="stop-color:#fc5500;stop-opacity:0" offset="1"/>
    </linearGradient>
    <radialGradient id="radialGradient5258" xlink:href="#linearGradient4548" gradientUnits="userSpaceOnUse" cy="602.2" cx="365" gradientTransform="matrix(1.6028 -.28337 .075422 .42662 -265.41 435.29)" r="54.321"/>
    <radialGradient id="radialGradient5260" xlink:href="#linearGradient4558" gradientUnits="userSpaceOnUse" cy="565.42" cx="337" gradientTransform="matrix(.52701 -.19130 .60607 1.6697 -177.13 -307.98)" r="44.395"/>
    <linearGradient id="linearGradient5262" y2="576.03" xlink:href="#linearGradient4877" gradientUnits="userSpaceOnUse" x2="116.53" y1="548.68" x1="162.41"/>
    <linearGradient id="linearGradient5264" y2="575.68" xlink:href="#linearGradient4877" gradientUnits="userSpaceOnUse" x2="119.02" y1="565.02" x1="169.46"/>
    <linearGradient id="linearGradient5266" y2="690.95" xlink:href="#linearGradient4658" gradientUnits="userSpaceOnUse" x2="299.65" gradientTransform="matrix(-.78167 0 0 .98384 449.32 48.027)" y1="685.78" x1="323.07"/>
    <linearGradient id="linearGradient5268" y2="575.68" xlink:href="#linearGradient4877" gradientUnits="userSpaceOnUse" x2="119.02" y1="583.49" x1="103.39"/>
    <radialGradient id="radialGradient5270" xlink:href="#linearGradient4548" gradientUnits="userSpaceOnUse" cy="602.2" cx="365" gradientTransform="matrix(-1.1468 -.38244 -.13127 .30018 655.8 580.42)" r="54.321"/>
    <radialGradient id="radialGradient5272" xlink:href="#linearGradient4558" gradientUnits="userSpaceOnUse" cy="565.42" cx="337" gradientTransform="matrix(-.28391 -.088780 -.047065 1.6277 300.72 -282.96)" r="44.395"/>
    <radialGradient id="radialGradient5274" xlink:href="#linearGradient4596" gradientUnits="userSpaceOnUse" cy="604.13" cx="363.97" gradientTransform="matrix(-.76910 .000020401 .000033423 1.7264 440.85 -401.92)" r="18.99"/>
    <radialGradient id="radialGradient5276" xlink:href="#linearGradient4606" gradientUnits="userSpaceOnUse" cy="580.34" cx="325.44" gradientTransform="matrix(-.64413 -.49190 -.32176 .57728 586.93 444.7)" r="25.018"/>
    <radialGradient id="radialGradient5278" xlink:href="#linearGradient4624" gradientUnits="userSpaceOnUse" cy="587.63" cx="353.85" gradientTransform="matrix(-.71442 -1.0076 -.34236 .33260 626.27 779.69)" r="22.386"/>
    <radialGradient id="radialGradient5280" xlink:href="#linearGradient4548" gradientUnits="userSpaceOnUse" cy="602.2" cx="365" gradientTransform="matrix(1.0678 -1.2285 .32699 .28420 -231.43 860.23)" r="54.321"/>
    <radialGradient id="radialGradient5282" xlink:href="#linearGradient4596" gradientUnits="userSpaceOnUse" cy="604.13" cx="363.97" gradientTransform="matrix(1 .000022661 -.000043457 1.9177 .024056 -554.42)" r="18.99"/>
    <radialGradient id="radialGradient5284" xlink:href="#linearGradient4606" gradientUnits="userSpaceOnUse" cy="580.34" cx="325.44" gradientTransform="matrix(.83752 -.54641 .41836 .64125 -189.91 386.02)" r="25.018"/>
    <radialGradient id="radialGradient5286" xlink:href="#linearGradient4624" gradientUnits="userSpaceOnUse" cy="587.63" cx="353.85" gradientTransform="matrix(.92891 -1.1192 .44515 .36945 -241.07 758.14)" r="22.386"/>
  </defs>
  <g id="layer1" transform="translate(-192.19 -119.15)">
    <g id="g5296" transform="matrix(-.13843 .056728 .042217 .14240 308.28 118.29)">
      <g id="g5298" transform="matrix(.78968 -.29871 .14364 .67012 86.073 226.08)">
        <path id="path5300" style="stroke:#000000;stroke-width:1.5;fill:none" d="m398.55 395.29c-3.17 2.45-5.89 3.06-9.07 6.24-3.24 3.24 6.24 6.16 6.8 6.23 3.05 0.41 4.7 2.07 6.24 2.84 0.86 0.43 3.11 5.8 2.32 3.99-0.52-1.21-15.82 7.61 1.74 3.8"/>
        <path id="path5302" style="stroke:#000000;stroke-width:.46778;fill:none" d="m396.39 408.17c0.18-0.05 0.18-0.05 0 0-2.24 0.63 2.5-2.4 4.74-3.06 2.1-0.61 3.45-0.14 4.11-0.21"/>
        <path id="path5304" style="stroke:#000000;stroke-width:.39330;fill:none" d="m400.21 409.5c0.11-0.04 0.11-0.04 0 0-1.48 0.56 1.32-2.34 2.79-2.92 1.38-0.55 2.42-0.02 2.88-0.08"/>
        <path id="path5306" style="stroke:#000000;stroke-width:.37893;fill:none" d="m402.04 410.97c0.11 0 0.11 0 0 0-1.46 0 1.9-1.74 3.35-1.77 1.36-0.02 2.09 0.85 2.5 0.96"/>
        <path id="path5308" style="stroke:#000000;stroke-width:.24773;fill:none" d="m404.36 413.02c0.09 0 0.09 0 0 0-1.12 0 1.47-0.96 2.59-0.98 1.05-0.02 1.61 0.47 1.92 0.53"/>
      </g>
      <g id="g5310" transform="matrix(.91818 .39616 -.39616 .91818 171.58 -124.37)">
        <path id="path5312" style="stroke:#000000;stroke-width:1.5;fill:none" d="m398.55 395.29c-3.17 2.45-5.89 3.06-9.07 6.24-3.24 3.24 6.24 6.16 6.8 6.23 3.05 0.41 4.7 2.07 6.24 2.84 0.86 0.43 3.11 5.8 2.32 3.99-0.52-1.21-15.82 7.61 1.74 3.8"/>
        <path id="path5314" style="stroke:#000000;stroke-width:.46778;fill:none" d="m396.39 408.17c0.18-0.05 0.18-0.05 0 0-2.24 0.63 2.5-2.4 4.74-3.06 2.1-0.61 3.45-0.14 4.11-0.21"/>
        <path id="path5316" style="stroke:#000000;stroke-width:.39330;fill:none" d="m400.21 409.5c0.11-0.04 0.11-0.04 0 0-1.48 0.56 1.32-2.34 2.79-2.92 1.38-0.55 2.42-0.02 2.88-0.08"/>
        <path id="path5318" style="stroke:#000000;stroke-width:.37893;fill:none" d="m402.04 410.97c0.11 0 0.11 0 0 0-1.46 0 1.9-1.74 3.35-1.77 1.36-0.02 2.09 0.85 2.5 0.96"/>
        <path id="path5320" style="stroke:#000000;stroke-width:.24773;fill:none" d="m404.36 413.02c0.09 0 0.09 0 0 0-1.12 0 1.47-0.96 2.59-0.98 1.05-0.02 1.61 0.47 1.92 0.53"/>
      </g>
      <g id="g5322">
        <g id="g5324" transform="matrix(.73426 -.55178 .5521 .73383 -110.57 308.81)">
          <path id="path5326" style="fill-rule:evenodd;stroke:url(#linearGradient4024);stroke-width:.88589px;fill:url(#linearGradient4022)" d="m371.54 365.14s10.49-61.72 51.7-71.9c27.19-6.72 32.2 6.6 32.2 6.6s-1.08 10.79-13.27 17.45c-15.9 8.69-37.35 18.6-48.38 44.01-4.77 11-21.5 5.91-22.25 3.84z"/>
          <path id="path5328" style="fill-rule:evenodd;stroke:url(#linearGradient4028);stroke-width:1px;fill:url(#linearGradient4026)" d="m358.12 371.05s-2.95-61.36 32.19-91.16c30.15-25.57 42.47-6.9 42.47-6.9s5.15 8.88-3.56 22.1c-10.7 16.23-32.14 33.28-43.44 62.39-5.03 12.95-26.26 15.67-27.66 13.57z"/>
        </g>
        <path id="path5330" style="fill-rule:evenodd;stroke:#000000;stroke-width:1px;fill:#c87137" d="m353.39 376s37.58-42.95 81.42-42.05c43.83 0.89 42.94 0.89 42.94 0.89s8.95 11.63 0.89 17c-8.05 5.37-6.26 25.95-51.89 44.74-22.88 9.42-76.04 8.05-76.04 8.05l2.68-28.63z"/>
        <path id="path5332" style="fill-rule:evenodd;stroke:#000000;stroke-width:1px;fill:#a05a2c" d="m355.47 374.8c-5.95-3.45-29.82-8.34-34.3 12.24-3.77 17.35 1.64 26.03 9.2 30.12 2.45 1.33 6.84 4.61 9.51 5.11 4.39 0.82 6.99-1.81 10.85-2.86 8.74-2.38 15.2-9.14 15.11-18.36-0.17-17-4.46-22.83-10.37-26.25z"/>
        <path id="path5334" style="fill:url(#linearGradient2805)" d="m416.34 336.96c16.34 9.11 19.76 35.02 23.21 51.81l-9.11 4.67c-0.83-11.53-2.35-31.72-10.72-39.65-3-2.16-12.48-12.44-16.2-12.93l12.82-3.9z"/>
        <path id="path5336" style="fill:url(#linearGradient2801)" d="m391.23 346.89c16.35 9.11 22.77 34.42 26.21 51.21l-10.6 1.97c-0.84-11.53-3.85-26.62-12.22-34.55-3.01-2.16-9.78-11.83-13.51-12.33l10.12-6.3z"/>
        <path id="path5338" style="fill:url(#linearGradient2797)" d="m371.23 360.89c16.35 9.11 17.96 23.62 21.41 40.41l-12.7 2.27c-0.84-11.53 3.05-16.12-5.32-24.05-3.01-2.16-10.08-10.03-13.81-10.53l10.42-8.1z"/>
        <path id="path5340" style="fill:url(#linearGradient2809)" d="m441.94 334.96c8.29 4.62 8.48 12.05 11.86 19.27 3.05 6.5 2.75 13.76 4.45 22.04l-8.8 6.77c-0.84-11.53-0.25-14.92-3.22-27.05-3.01-6.96-13.98-20.84-17.7-21.33l13.41 0.3z"/>
        <path id="path5342" style="fill:url(#linearGradient2813)" d="m461.94 334.96c8.29 4.62 6.38 6.05 9.76 13.27 3.05 6.5-2.65 5.96-0.95 14.24l-7.3 9.17c-0.84-11.53 3.95-8.32 0.98-20.45-3.01-6.96-12.18-16.04-15.9-16.53l13.41 0.3z"/>
        <g id="g5344" transform="matrix(-1 0 0 1 677.76 -.36459)">
          <path id="path5346" style="stroke:#000000;stroke-width:0.7;fill:none" d="m331.94 384.11c-2.38-5.06-1.16-6.26-1.16-6.26l-0.29 0.3"/>
          <path id="path5348" style="stroke:#000000;stroke-width:0.7;fill:none" d="m329.38 383.5c-3.07-3.03-1.54-5.22-1.54-5.22"/>
          <path id="path5350" style="stroke:#000000;stroke-width:0.7;fill:none" d="m329.38 383.5c-3.07-3.03-1.54-5.22-1.54-5.22"/>
          <path id="path5352" style="stroke:#000000;stroke-width:0.7;fill:none" d="m327.38 383.5c-3.07-3.03-2.27-4.53-2.27-4.53"/>
          <path id="path5354" style="stroke:#000000;stroke-width:0.7;fill:none" d="m324.74 384.39c-3.07-3.04-2.28-4.54-2.28-4.54"/>
          <path id="path5356" style="stroke:#000000;stroke-width:0.7;fill:none" d="m323.52 384.97c-3.77-2.09-3.41-3.75-3.41-3.75"/>
          <path id="path5358" style="stroke:#000000;stroke-width:0.7;fill:none" d="m321.73 386.17c-3.77-2.09-3.41-3.75-3.41-3.75"/>
          <path id="path5360" style="stroke:#000000;stroke-width:0.7;fill:none" d="m320.64 388.24c-3.78-2.1-3.42-3.76-3.42-3.76"/>
        </g>
        <path id="path5362" style="fill-rule:evenodd;fill:#f9e100" d="m358.83 390.2a8.5508 7.5007 0 1 1 -17.1 0 8.5508 7.5007 0 1 1 17.1 0z" transform="matrix(.88914 .20418 -.16562 .72123 103.91 34.406)"/>
        <g id="g5364" transform="matrix(-1 0 0 1 676.98 -.000021043)">
          <path id="path5366" style="fill-rule:evenodd;stroke:url(#linearGradient3750);stroke-width:0.4;fill:url(#radialGradient3740)" d="m358.83 390.2a8.5508 7.5007 0 1 1 -17.1 0 8.5508 7.5007 0 1 1 17.1 0z" transform="matrix(.60770 -.18726 .15451 .51115 54.334 253.34)"/>
          <path id="path5368" style="fill-rule:evenodd;stroke:url(#linearGradient3750);stroke-width:0.4;fill:url(#radialGradient3740)" d="m358.83 390.2a8.5508 7.5007 0 1 1 -17.1 0 8.5508 7.5007 0 1 1 17.1 0z" transform="matrix(.60770 -.18726 .15451 .51115 54.334 253.34)"/>
        </g>
        <g id="g5370">
          <path id="path5372" style="stroke:#000000;stroke-width:0.7;fill:none" d="m331.94 384.11c-2.38-5.06-1.16-6.26-1.16-6.26l-0.29 0.3"/>
          <path id="path5374" style="stroke:#000000;stroke-width:0.7;fill:none" d="m329.38 383.5c-3.07-3.03-1.54-5.22-1.54-5.22"/>
          <path id="path5376" style="stroke:#000000;stroke-width:0.7;fill:none" d="m329.38 383.5c-3.07-3.03-1.54-5.22-1.54-5.22"/>
          <path id="path5378" style="stroke:#000000;stroke-width:0.7;fill:none" d="m327.38 383.5c-3.07-3.03-2.27-4.53-2.27-4.53"/>
          <path id="path5380" style="stroke:#000000;stroke-width:0.7;fill:none" d="m324.74 384.39c-3.07-3.04-2.28-4.54-2.28-4.54"/>
          <path id="path5382" style="stroke:#000000;stroke-width:0.7;fill:none" d="m323.52 384.97c-3.77-2.09-3.41-3.75-3.41-3.75"/>
          <path id="path5384" style="stroke:#000000;stroke-width:0.7;fill:none" d="m321.73 386.17c-3.77-2.09-3.41-3.75-3.41-3.75"/>
          <path id="path5386" style="stroke:#000000;stroke-width:0.7;fill:none" d="m320.64 388.24c-3.78-2.1-3.42-3.76-3.42-3.76"/>
        </g>
        <g id="g5388">
          <path id="path5390" style="fill-rule:evenodd;fill:#f9e100" d="m358.83 390.2a8.5508 7.5007 0 1 1 -17.1 0 8.5508 7.5007 0 1 1 17.1 0z" transform="matrix(.87255 -.26630 .22185 .7269 -65.571 198.34)"/>
          <g id="g5392">
            <path id="path5394" style="fill-rule:evenodd;stroke:url(#linearGradient3750);stroke-width:0.4;fill:url(#radialGradient3740)" d="m358.83 390.2a8.5508 7.5007 0 1 1 -17.1 0 8.5508 7.5007 0 1 1 17.1 0z" transform="matrix(.60770 -.18726 .15451 .51115 54.334 253.34)"/>
            <path id="path5396" style="fill-rule:evenodd;stroke:url(#linearGradient3750);stroke-width:0.4;fill:url(#radialGradient3740)" d="m358.83 390.2a8.5508 7.5007 0 1 1 -17.1 0 8.5508 7.5007 0 1 1 17.1 0z" transform="matrix(.60770 -.18726 .15451 .51115 54.334 253.34)"/>
          </g>
        </g>
        <path id="path5398" style="fill:url(#linearGradient3850);fill-rule:evenodd" d="m358.83 390.2a8.5508 7.5007 0 1 1 -17.1 0 8.5508 7.5007 0 1 1 17.1 0z" transform="matrix(-.017498 .82674 -.58974 -.017024 574.61 114.77)"/>
        <path id="path5400" style="stroke-opacity:.74252;fill-rule:evenodd;stroke:url(#linearGradient3906);stroke-width:0.7;fill:#db2700" d="m342.84 400.29a3.8282 4.6789 0 1 1 -7.66 0 3.8282 4.6789 0 1 1 7.66 0z" transform="translate(-.48612 -.97225)"/>
        <path id="path5402" style="fill:url(#radialGradient3916);fill-rule:evenodd" d="m342.84 400.29a3.8282 4.6789 0 1 1 -7.66 0 3.8282 4.6789 0 1 1 7.66 0z" transform="translate(-.48612 -.97225)"/>
        <path id="path5404" style="fill-rule:evenodd;stroke:#b60000;stroke-width:1px;fill:#db4b00" d="m330.56 407.15s14.95 9.24 19.57-1.7c4.62-10.93 2.31 1.22 2.31 1.22s-5.84 9.69-13.49 7.78c-7.29-1.83-9.24-5.96-9.24-5.96l0.85-1.34z"/>
        <path id="path5406" style="fill-rule:evenodd;stroke:url(#linearGradient3954);stroke-width:0.7;fill:url(#radialGradient3944)" d="m309.42 387.47a3.9498 3.6459 0 1 1 -7.9 0 3.9498 3.6459 0 1 1 7.9 0z" transform="matrix(.67272 0 0 .72878 141.96 105.33)"/>
        <path id="path5408" style="fill-rule:evenodd;stroke:url(#linearGradient3954);stroke-width:0.7;fill:url(#radialGradient3944)" d="m309.42 387.47a3.9498 3.6459 0 1 1 -7.9 0 3.9498 3.6459 0 1 1 7.9 0z" transform="matrix(-.67272 0 0 .72878 534.47 105.82)"/>
        <path id="path5410" style="stroke:#000000;stroke-width:2.2;fill:none" d="m331.25 375.8s-8.19-39.97-27.99-35.53c-15.95 3.58-6.44 11.23-2.26 12.56 4.39 1.39 14.51-1.79 8.94-6.58-4.7-4.04-9.59-1.22-8.64 1.39 0.76 2.1 4.38 1.63 4.38 1.63l-0.21 0.27"/>
        <path id="path5412" style="fill-rule:evenodd;stroke:url(#linearGradient4050);stroke-width:.88589px;fill:url(#linearGradient4048)" d="m390.05 361.48s27.26-48.1 68.95-56.03c36.14-6.88 29.47 9.62 29.47 9.62s1.1 8.79-11.03 15.57c-14.89 8.31-46.9 9.24-66.99 27.21-8.93 7.99-20 5.78-20.4 3.63z"/>
        <path id="path5414" style="fill-rule:evenodd;stroke:url(#linearGradient4045);stroke-width:1px;fill:url(#linearGradient4043)" d="m375.86 365.15s22.69-64.5 51.72-80.92c40.09-22.67 37.69-3.89 37.69-3.89s3.65 9.59-7.06 21.24c-13.16 14.3-37.05 27.69-52.88 54.62-7.04 11.98-28.43 11.26-29.47 8.95z"/>
        <path id="path5416" style="fill-rule:evenodd;fill:#f51300" d="m292.65 303.73a7.0488 5.8335 0 1 1 -14.1 0 7.0488 5.8335 0 1 1 14.1 0z" transform="matrix(.46809 -.29204 .19850 .31816 192.98 338.87)"/>
        <g id="g5418">
          <path id="path5420" style="fill-rule:evenodd;fill:#f51300" d="m292.65 303.73a7.0488 5.8335 0 1 1 -14.1 0 7.0488 5.8335 0 1 1 14.1 0z" transform="matrix(.46809 -.29204 .19850 .31816 200.98 320.87)"/>
          <path id="path5422" style="fill-rule:evenodd;fill:#f51300" d="m292.65 303.73a7.0488 5.8335 0 1 1 -14.1 0 7.0488 5.8335 0 1 1 14.1 0z" transform="matrix(.46809 -.29204 .19850 .31816 210.98 304.87)"/>
          <path id="path5424" style="fill-rule:evenodd;fill:#f51300" d="m292.65 303.73a7.0488 5.8335 0 1 1 -14.1 0 7.0488 5.8335 0 1 1 14.1 0z" transform="matrix(.46809 -.29204 .19850 .31816 222.98 288.87)"/>
          <path id="path5426" style="fill-rule:evenodd;fill:#f51300" d="m292.65 303.73a7.0488 5.8335 0 1 1 -14.1 0 7.0488 5.8335 0 1 1 14.1 0z" transform="matrix(.46809 -.29204 .19850 .31816 236.98 276.87)"/>
          <path id="path5428" style="fill-rule:evenodd;fill:#f51300" d="m292.65 303.73a7.0488 5.8335 0 1 1 -14.1 0 7.0488 5.8335 0 1 1 14.1 0z" transform="matrix(.46809 -.29204 .19850 .31816 254.98 268.87)"/>
          <path id="path5430" style="fill-rule:evenodd;fill:#f59f00" d="m292.65 303.73a7.0488 5.8335 0 1 1 -14.1 0 7.0488 5.8335 0 1 1 14.1 0z" transform="matrix(.30544 -.18959 .12952 .20654 317.17 286.54)"/>
          <path id="path5432" style="fill-rule:evenodd;fill:#f57200" d="m292.65 303.73a7.0488 5.8335 0 1 1 -14.1 0 7.0488 5.8335 0 1 1 14.1 0z" transform="matrix(.30544 -.18959 .12952 .20654 305.17 292.54)"/>
          <path id="path5434" style="fill-rule:evenodd;fill:#f57200" d="m292.65 303.73a7.0488 5.8335 0 1 1 -14.1 0 7.0488 5.8335 0 1 1 14.1 0z" transform="matrix(.30544 -.18959 .12952 .20654 293.17 304.54)"/>
          <path id="path5436" style="fill-rule:evenodd;fill:#f57200" d="m292.65 303.73a7.0488 5.8335 0 1 1 -14.1 0 7.0488 5.8335 0 1 1 14.1 0z" transform="matrix(.30544 -.18959 .12952 .20654 283.17 318.54)"/>
          <path id="path5438" style="fill-rule:evenodd;fill:#f57200" d="m292.65 303.73a7.0488 5.8335 0 1 1 -14.1 0 7.0488 5.8335 0 1 1 14.1 0z" transform="matrix(.30544 -.18959 .12952 .20654 271.17 334.54)"/>
        </g>
        <g id="g5440" transform="matrix(.92065 .17015 -.16692 .90319 95.637 -18.902)">
          <path id="path5442" style="fill-rule:evenodd;fill:#f51300" d="m292.65 303.73a7.0488 5.8335 0 1 1 -14.1 0 7.0488 5.8335 0 1 1 14.1 0z" transform="matrix(.46809 -.29204 .19850 .31816 200.98 320.87)"/>
          <path id="path5444" style="fill-rule:evenodd;fill:#f51300" d="m292.65 303.73a7.0488 5.8335 0 1 1 -14.1 0 7.0488 5.8335 0 1 1 14.1 0z" transform="matrix(.46809 -.29204 .19850 .31816 210.98 304.87)"/>
          <path id="path5446" style="fill-rule:evenodd;fill:#f51300" d="m292.65 303.73a7.0488 5.8335 0 1 1 -14.1 0 7.0488 5.8335 0 1 1 14.1 0z" transform="matrix(.46809 -.29204 .19850 .31816 222.98 288.87)"/>
          <path id="path5448" style="fill-rule:evenodd;fill:#f51300" d="m292.65 303.73a7.0488 5.8335 0 1 1 -14.1 0 7.0488 5.8335 0 1 1 14.1 0z" transform="matrix(.46809 -.29204 .19850 .31816 236.98 276.87)"/>
          <path id="path5450" style="fill-rule:evenodd;fill:#f51300" d="m292.65 303.73a7.0488 5.8335 0 1 1 -14.1 0 7.0488 5.8335 0 1 1 14.1 0z" transform="matrix(.46809 -.29204 .19850 .31816 254.98 268.87)"/>
          <path id="path5452" style="fill-rule:evenodd;fill:#f59f00" d="m292.65 303.73a7.0488 5.8335 0 1 1 -14.1 0 7.0488 5.8335 0 1 1 14.1 0z" transform="matrix(.30544 -.18959 .12952 .20654 317.17 286.54)"/>
          <path id="path5454" style="fill-rule:evenodd;fill:#f57200" d="m292.65 303.73a7.0488 5.8335 0 1 1 -14.1 0 7.0488 5.8335 0 1 1 14.1 0z" transform="matrix(.30544 -.18959 .12952 .20654 305.17 292.54)"/>
          <path id="path5456" style="fill-rule:evenodd;fill:#f57200" d="m292.65 303.73a7.0488 5.8335 0 1 1 -14.1 0 7.0488 5.8335 0 1 1 14.1 0z" transform="matrix(.30544 -.18959 .12952 .20654 293.17 304.54)"/>
          <path id="path5458" style="fill-rule:evenodd;fill:#f57200" d="m292.65 303.73a7.0488 5.8335 0 1 1 -14.1 0 7.0488 5.8335 0 1 1 14.1 0z" transform="matrix(.30544 -.18959 .12952 .20654 283.17 318.54)"/>
          <path id="path5460" style="fill-rule:evenodd;fill:#f57200" d="m292.65 303.73a7.0488 5.8335 0 1 1 -14.1 0 7.0488 5.8335 0 1 1 14.1 0z" transform="matrix(.30544 -.18959 .12952 .20654 271.17 334.54)"/>
        </g>
        <g id="g5462" transform="matrix(.60506 -.70528 .72780 .57593 -136.13 442.74)">
          <g id="g5464">
            <path id="path5466" style="fill-rule:evenodd;fill:#f51300" d="m292.65 303.73a7.0488 5.8335 0 1 1 -14.1 0 7.0488 5.8335 0 1 1 14.1 0z" transform="matrix(.46809 -.29204 .19850 .31816 200.98 320.87)"/>
            <path id="path5468" style="fill-rule:evenodd;fill:#f51300" d="m292.65 303.73a7.0488 5.8335 0 1 1 -14.1 0 7.0488 5.8335 0 1 1 14.1 0z" transform="matrix(.46809 -.29204 .19850 .31816 210.98 304.87)"/>
            <path id="path5470" style="fill-rule:evenodd;fill:#f51300" d="m292.65 303.73a7.0488 5.8335 0 1 1 -14.1 0 7.0488 5.8335 0 1 1 14.1 0z" transform="matrix(.46809 -.29204 .19850 .31816 222.98 288.87)"/>
            <path id="path5472" style="fill-rule:evenodd;fill:#f51300" d="m292.65 303.73a7.0488 5.8335 0 1 1 -14.1 0 7.0488 5.8335 0 1 1 14.1 0z" transform="matrix(.46809 -.29204 .19850 .31816 236.98 276.87)"/>
            <path id="path5474" style="fill-rule:evenodd;fill:#f51300" d="m292.65 303.73a7.0488 5.8335 0 1 1 -14.1 0 7.0488 5.8335 0 1 1 14.1 0z" transform="matrix(.46809 -.29204 .19850 .31816 254.98 268.87)"/>
            <path id="path5476" style="fill-rule:evenodd;fill:#f59f00" d="m292.65 303.73a7.0488 5.8335 0 1 1 -14.1 0 7.0488 5.8335 0 1 1 14.1 0z" transform="matrix(.30544 -.18959 .12952 .20654 317.17 286.54)"/>
            <path id="path5478" style="fill-rule:evenodd;fill:#f57200" d="m292.65 303.73a7.0488 5.8335 0 1 1 -14.1 0 7.0488 5.8335 0 1 1 14.1 0z" transform="matrix(.30544 -.18959 .12952 .20654 305.17 292.54)"/>
            <path id="path5480" style="fill-rule:evenodd;fill:#f57200" d="m292.65 303.73a7.0488 5.8335 0 1 1 -14.1 0 7.0488 5.8335 0 1 1 14.1 0z" transform="matrix(.30544 -.18959 .12952 .20654 293.17 304.54)"/>
            <path id="path5482" style="fill-rule:evenodd;fill:#f57200" d="m292.65 303.73a7.0488 5.8335 0 1 1 -14.1 0 7.0488 5.8335 0 1 1 14.1 0z" transform="matrix(.30544 -.18959 .12952 .20654 283.17 318.54)"/>
            <path id="path5484" style="fill-rule:evenodd;fill:#f57200" d="m292.65 303.73a7.0488 5.8335 0 1 1 -14.1 0 7.0488 5.8335 0 1 1 14.1 0z" transform="matrix(.30544 -.18959 .12952 .20654 271.17 334.54)"/>
          </g>
          <g id="g5486" transform="matrix(.92065 .17015 -.16692 .90319 95.637 -18.902)">
            <path id="path5488" style="fill-rule:evenodd;fill:#f51300" d="m292.65 303.73a7.0488 5.8335 0 1 1 -14.1 0 7.0488 5.8335 0 1 1 14.1 0z" transform="matrix(.46809 -.29204 .19850 .31816 200.98 320.87)"/>
            <path id="path5490" style="fill-rule:evenodd;fill:#f51300" d="m292.65 303.73a7.0488 5.8335 0 1 1 -14.1 0 7.0488 5.8335 0 1 1 14.1 0z" transform="matrix(.46809 -.29204 .19850 .31816 210.98 304.87)"/>
            <path id="path5492" style="fill-rule:evenodd;fill:#f51300" d="m292.65 303.73a7.0488 5.8335 0 1 1 -14.1 0 7.0488 5.8335 0 1 1 14.1 0z" transform="matrix(.46809 -.29204 .19850 .31816 222.98 288.87)"/>
            <path id="path5494" style="fill-rule:evenodd;fill:#f51300" d="m292.65 303.73a7.0488 5.8335 0 1 1 -14.1 0 7.0488 5.8335 0 1 1 14.1 0z" transform="matrix(.46809 -.29204 .19850 .31816 236.98 276.87)"/>
            <path id="path5496" style="fill-rule:evenodd;fill:#f51300" d="m292.65 303.73a7.0488 5.8335 0 1 1 -14.1 0 7.0488 5.8335 0 1 1 14.1 0z" transform="matrix(.46809 -.29204 .19850 .31816 254.98 268.87)"/>
            <path id="path5498" style="fill-rule:evenodd;fill:#f59f00" d="m292.65 303.73a7.0488 5.8335 0 1 1 -14.1 0 7.0488 5.8335 0 1 1 14.1 0z" transform="matrix(.30544 -.18959 .12952 .20654 317.17 286.54)"/>
            <path id="path5500" style="fill-rule:evenodd;fill:#f57200" d="m292.65 303.73a7.0488 5.8335 0 1 1 -14.1 0 7.0488 5.8335 0 1 1 14.1 0z" transform="matrix(.30544 -.18959 .12952 .20654 305.17 292.54)"/>
            <path id="path5502" style="fill-rule:evenodd;fill:#f57200" d="m292.65 303.73a7.0488 5.8335 0 1 1 -14.1 0 7.0488 5.8335 0 1 1 14.1 0z" transform="matrix(.30544 -.18959 .12952 .20654 293.17 304.54)"/>
            <path id="path5504" style="fill-rule:evenodd;fill:#f57200" d="m292.65 303.73a7.0488 5.8335 0 1 1 -14.1 0 7.0488 5.8335 0 1 1 14.1 0z" transform="matrix(.30544 -.18959 .12952 .20654 283.17 318.54)"/>
            <path id="path5506" style="fill-rule:evenodd;fill:#f57200" d="m292.65 303.73a7.0488 5.8335 0 1 1 -14.1 0 7.0488 5.8335 0 1 1 14.1 0z" transform="matrix(.30544 -.18959 .12952 .20654 271.17 334.54)"/>
          </g>
        </g>
        <path id="path5508" style="stroke:#000000;stroke-width:2.2;fill:none" d="m350.41 375.24s6.75-40.24 26.7-36.51c16.07 3.01 6.84 11 2.71 12.47-4.33 1.55-14.57-1.26-9.17-6.25 4.56-4.2 9.55-1.56 8.69 1.08-0.69 2.13-4.32 1.78-4.32 1.78l0.22 0.27"/>
      </g>
      <g id="g5510">
        <path id="path5512" style="stroke:#000000;stroke-width:1.5;fill:none" d="m398.55 395.29c-3.17 2.45-5.89 3.06-9.07 6.24-3.24 3.24 6.24 6.16 6.8 6.23 3.05 0.41 4.7 2.07 6.24 2.84 0.86 0.43 3.11 5.8 2.32 3.99-0.52-1.21-15.82 7.61 1.74 3.8"/>
        <path id="path5514" style="stroke:#000000;stroke-width:.46778;fill:none" d="m396.39 408.17c0.18-0.05 0.18-0.05 0 0-2.24 0.63 2.5-2.4 4.74-3.06 2.1-0.61 3.45-0.14 4.11-0.21"/>
        <path id="path5516" style="stroke:#000000;stroke-width:.39330;fill:none" d="m400.21 409.5c0.11-0.04 0.11-0.04 0 0-1.48 0.56 1.32-2.34 2.79-2.92 1.38-0.55 2.42-0.02 2.88-0.08"/>
        <path id="path5518" style="stroke:#000000;stroke-width:.37893;fill:none" d="m402.04 410.97c0.11 0 0.11 0 0 0-1.46 0 1.9-1.74 3.35-1.77 1.36-0.02 2.09 0.85 2.5 0.96"/>
        <path id="path5520" style="stroke:#000000;stroke-width:.24773;fill:none" d="m404.36 413.02c0.09 0 0.09 0 0 0-1.12 0 1.47-0.96 2.59-0.98 1.05-0.02 1.61 0.47 1.92 0.53"/>
      </g>
      <g id="g5522" transform="matrix(.92381 -.24624 .061894 .87051 30.876 146.22)">
        <path id="path5524" style="stroke:#000000;stroke-width:1.5;fill:none" d="m398.55 395.29c-3.17 2.45-5.89 3.06-9.07 6.24-3.24 3.24 6.24 6.16 6.8 6.23 3.05 0.41 4.7 2.07 6.24 2.84 0.86 0.43 3.11 5.8 2.32 3.99-0.52-1.21-15.82 7.61 1.74 3.8"/>
        <path id="path5526" style="stroke:#000000;stroke-width:.46778;fill:none" d="m396.39 408.17c0.18-0.05 0.18-0.05 0 0-2.24 0.63 2.5-2.4 4.74-3.06 2.1-0.61 3.45-0.14 4.11-0.21"/>
        <path id="path5528" style="stroke:#000000;stroke-width:.39330;fill:none" d="m400.21 409.5c0.11-0.04 0.11-0.04 0 0-1.48 0.56 1.32-2.34 2.79-2.92 1.38-0.55 2.42-0.02 2.88-0.08"/>
        <path id="path5530" style="stroke:#000000;stroke-width:.37893;fill:none" d="m402.04 410.97c0.11 0 0.11 0 0 0-1.46 0 1.9-1.74 3.35-1.77 1.36-0.02 2.09 0.85 2.5 0.96"/>
        <path id="path5532" style="stroke:#000000;stroke-width:.24773;fill:none" d="m404.36 413.02c0.09 0 0.09 0 0 0-1.12 0 1.47-0.96 2.59-0.98 1.05-0.02 1.61 0.47 1.92 0.53"/>
      </g>
      <g id="g5534" transform="matrix(.78968 -.29871 .14364 .67012 73.978 238.72)">
        <path id="path5536" style="stroke:#000000;stroke-width:1.5;fill:none" d="m398.55 395.29c-3.17 2.45-5.89 3.06-9.07 6.24-3.24 3.24 6.24 6.16 6.8 6.23 3.05 0.41 4.7 2.07 6.24 2.84 0.86 0.43 3.11 5.8 2.32 3.99-0.52-1.21-15.82 7.61 1.74 3.8"/>
        <path id="path5538" style="stroke:#000000;stroke-width:.46778;fill:none" d="m396.39 408.17c0.18-0.05 0.18-0.05 0 0-2.24 0.63 2.5-2.4 4.74-3.06 2.1-0.61 3.45-0.14 4.11-0.21"/>
        <path id="path5540" style="stroke:#000000;stroke-width:.39330;fill:none" d="m400.21 409.5c0.11-0.04 0.11-0.04 0 0-1.48 0.56 1.32-2.34 2.79-2.92 1.38-0.55 2.42-0.02 2.88-0.08"/>
        <path id="path5542" style="stroke:#000000;stroke-width:.37893;fill:none" d="m402.04 410.97c0.11 0 0.11 0 0 0-1.46 0 1.9-1.74 3.35-1.77 1.36-0.02 2.09 0.85 2.5 0.96"/>
        <path id="path5544" style="stroke:#000000;stroke-width:.24773;fill:none" d="m404.36 413.02c0.09 0 0.09 0 0 0-1.12 0 1.47-0.96 2.59-0.98 1.05-0.02 1.61 0.47 1.92 0.53"/>
      </g>
    </g>
    <g id="g5153" transform="matrix(.56474 -.047250 .046886 .56912 94.172 -83.542)">
      <g id="g5133" transform="matrix(-.62634 .49041 .48224 .76738 80.849 58.899)">
        <path id="path5135" style="fill-rule:evenodd;stroke:#000000;stroke-width:1px;fill:#967f00" d="m82.917 755.66c7.674 1.53 21.653 6.82 32.963 3.99 13.78-3.44 6.38-4.71 2-7.99-11.09-8.32 27.04-5.53 39.96-11.99 1.33-0.66 2.67-1.33 4-1.99 1.02-0.51-5.38-3.76-7.99-8.99-1.54-3.07 22.87 0.99 27.97 0.99 8.89 0 18.78-1.99 28.97-1.99 10.36 0 24.68 13.69 30.97 19.98 13.91 13.91 2.57 10.15-11.99 5.99-18.24-5.21-49.57 0.66-66.93 5-9.14 2.28-18.88 5.44-25.98 8.99-7.99 3.99-17.72 4.99-26.97 4.99h-5.99c-9.498 0-12.655-4.66-18.985-10.99-2.199-2.2-0.906-0.53-1.998-5.99z"/>
        <path id="path5137" style="fill-rule:evenodd;fill:url(#linearGradient5238)" d="m82.917 755.66c7.674 1.53 21.653 6.82 32.963 3.99 13.78-3.44 6.38-4.71 2-7.99-11.09-8.32 27.04-5.53 39.96-11.99 1.33-0.66 2.67-1.33 4-1.99 1.02-0.51-5.38-3.76-7.99-8.99-1.54-3.07 22.87 0.99 27.97 0.99 8.89 0 18.78-1.99 28.97-1.99 10.36 0 24.68 13.69 30.97 19.98 13.91 13.91 2.57 10.15-11.99 5.99-18.24-5.21-49.57 0.66-66.93 5-9.14 2.28-18.88 5.44-25.98 8.99-7.99 3.99-17.72 4.99-26.97 4.99h-5.99c-9.498 0-12.655-4.66-18.985-10.99-2.199-2.2-0.906-0.53-1.998-5.99z"/>
        <path id="path5139" style="fill-rule:evenodd;stroke:#000000;stroke-width:1px;fill:#96ae00" d="m264.74 767.65c-5.67-12.77-36.94-35.97-64.94-35.97-20.31 0-58.45 31.61-88.91 35.97-10 1.42-20.311-5-26.974-9.99-8.933-6.7 5.711 9.94 7.992 12.98 12.052 16.07 36.682 11.34 50.952 5 8.13-3.62 15.7-14.43 9.99-3-6.81 13.63-10.15 19.98-26.98 19.98-3.59 0 12.78 9.1 24.98 3 11.8-5.9 27.48-18.47 31.97-10.99 5.5 9.16-19.85 17.98 0 17.98 17.61 0 28.97-33.31 28.97-6.99 0 9.45 16.29-8.3 20.98-12.99 8.84-8.84 4.05-22.36 20.98-18.98 7.22 1.45 20.34 22.71 10.99 4z"/>
        <path id="path5141" style="fill-rule:evenodd;stroke:#6f7f00;stroke-width:1px;fill:url(#linearGradient5240)" d="m264.74 767.65c-2.16-4.86-11.57-13.3-21.8-18.24-13.58-6.55-36.31-18.88-52.2-11.93-11.1 4.86-37.48 17.88-45.02 21.33-43.31 19.78-43.08 9.5-44.62 9.56-10.093 0.38-10.521-5.72-17.184-10.71-8.933-6.7 5.711 9.94 7.992 12.98 12.052 16.07 36.682 11.34 50.952 5 8.13-3.62 15.7-14.43 9.99-3-6.81 13.63-10.15 19.98-26.98 19.98-3.59 0 12.78 9.1 24.98 3 11.8-5.9 27.48-18.47 31.97-10.99 5.5 9.16-19.85 17.98 0 17.98 17.61 0 28.97-33.31 28.97-6.99 0 9.45 16.29-8.3 20.98-12.99 8.84-8.84 4.05-22.36 20.98-18.98 7.22 1.45 20.34 22.71 10.99 4z"/>
        <path id="path5143" style="stroke:#576e16;stroke-width:0.6;fill:none" d="m226.77 757.71c-2.19 3.21-0.17 8-0.68 9.84-1.06 3.78-2.02 7.51-3.89 7.88-4.85 0.95-4.68-3.87-15.59 7.61m20.62-24c0.59 3.41 3.15 4.89 4.78 13.51m-9.69 2.87c-0.74 1.23-3.34 2.33-4.73 5.16-1.3 2.68-1.42 7.02-1.55 10.8-0.09 2.52 0.04 2.62-2.54 3.26m23.2-47.85c-4 1.97-5.34 5.33-10.04 9.75-3.41 3.21-7.36 1.04-10.99 10.55"/>
        <path id="path5145" style="stroke:#576e16;stroke-width:0.6;fill:none" d="m194.14 773.33c0.37 0.7-3.06 3.68-3.76 7.73-0.47 2.78 1.79 6.97 1.67 7.64-0.53 2.77-2.85 6.24-8.59 10.57m27-46.47c-1.7 3.49-6.86 4.11-8.2 5.47-2.75 2.8-5.52 5.49-4.91 7.29 1.59 4.68 5.68 2.14 1.14 17.31m10.59-29.82c-3.26 1.18-5.81-0.3-14.1 2.56m2.32 9.84c-0.7 1.25-0.36 4.05-2.13 6.67-1.68 2.46-5.38 4.72-8.6 6.71-1.1 0.68-14.6-1.81-12.82 1.52m48.28-39.88c0.16 2.7-5.25 1.43-8.25 3.58-1.93 1.38-1.66 5.79-2.25 8.25-1.09 4.56 2.75 6.91-3.7 14.78"/>
        <path id="path5147" style="stroke:#576e16;stroke-width:0.6;fill:none" d="m166.01 768.27c0.23 0.7-3.7 3.86-5.15 8.02-0.99 2.86 0.44 7.09 0.19 7.78-1.04 2.85-10.66 6.13-17.12 10.73m41.98-48.03c-2.33 3.62-7.51 4.42-9.08 5.85-3.23 2.94-6.46 5.78-6.2 7.6 0.67 4.75 5.17 2.03-2.16 17.69m16.03-30.84c-3.42 1.31-5.64-0.14-14.33 3.04m0.43 10c-0.92 1.3-1.12 4.16-3.36 6.89-2.11 2.57-5.83-8.89-9.36-6.76-0.52 0.32-5.13-0.78-8 1.38-3.8 2.88-7.28 9.41-20.82 12.2m70.54-40.01c-0.35 2.76-5.42 1.62-8.77 3.91-2.16 1.47-2.73 5.98-3.77 8.51-1.94 4.7 1.39 7-6.43 15.25"/>
      </g>
      <path id="path4526" style="fill-rule:evenodd;fill:#fc1000" d="m333.51 496.02c-6.03-7.11-0.57-9.51 5.87-16.86 5.75-6.58 18.31-11.31 25.65-10.27 9.26 1.33 19.52 2.77 29.32 4.4 3.17 0.53 6.36 0.98 9.53 1.47 9.51 1.46 18.49 6.98 24.19 11.73 1.47 1.22 2.93 2.44 4.4 3.66 6.22 5.19 11.35 13.19 16.86 19.79 6.07 7.29 9.27 17.06 11.73 25.66 1.75 6.14-1.17 15.49-4.4 19.79-2.69 3.58-10.81 6.14-14.66 8.06-13.01 6.51-65.77-31.67-71.84-41.78-3.58-5.98-26.72-19.66-33.71-21.99-1.49-0.49-1.96-2.44-2.94-3.66z"/>
      <path id="path4484" style="fill-rule:evenodd;stroke:#000000;stroke-width:1px;fill:#fce100" d="m444.12 585.53c15.35 1.47 12.79-4.76 25.72-11.56 4.49-2.37 9.51-9.05 5.92-8.85-12.54 0.72-27.97-1.8-22.12-8.78 4.27-5.08-1.73-20.47-4.54-26.73-3.01-6.74-16.21-2.73-19.81-6.9-13.48-15.64 11.88-9.7-16-16.91-5.26-1.37 4.6-13.63-5.2-2.39-5.96 6.84-5.45 19.96-9.4 26.87-3.99 6.97 0.89 8.4-7.91 12.79-3.02 1.51-1.74 10.77-1.68 13.37 0.17 8.05 2.66 28.3 9.06 30.84 6.89 2.74 21.93 10.71 24.73 5.83 0.78-1.36 20.6-6.15 21.23-7.58z"/>
      <path id="path4528" style="fill-rule:evenodd;fill:url(#linearGradient5242)" d="m333.51 496.02c-6.03-7.11-0.57-9.51 5.87-16.86 5.75-6.58 18.31-11.31 25.65-10.27 9.26 1.33 19.52 2.77 29.32 4.4 3.17 0.53 6.36 0.98 9.53 1.47 9.51 1.46 18.49 6.98 24.19 11.73 1.47 1.22 2.93 2.44 4.4 3.66 6.22 5.19 11.35 13.19 16.86 19.79 6.07 7.29 9.27 17.06 11.73 25.66 1.75 6.14-1.17 15.49-4.4 19.79-2.69 3.58-10.81 6.14-14.66 8.06-13.01 6.51-65.77-31.67-71.84-41.78-3.58-5.98-26.72-19.66-33.71-21.99-1.49-0.49-1.96-2.44-2.94-3.66z"/>
      <path id="path4498" style="fill-rule:evenodd;fill:url(#linearGradient5244)" d="m444.12 585.53c15.35 1.47 12.79-4.76 25.72-11.56 4.49-2.37 9.51-9.05 5.92-8.85-12.54 0.72-27.97-1.8-22.12-8.78 4.27-5.08-1.73-20.47-4.54-26.73-3.01-6.74-16.21-2.73-19.81-6.9-13.48-15.64 11.88-9.7-16-16.91-5.26-1.37 4.6-13.63-5.2-2.39-5.96 6.84-5.45 19.96-9.4 26.87-3.99 6.97 0.89 8.4-7.91 12.79-3.02 1.51-1.74 10.77-1.68 13.37 0.17 8.05 2.66 28.3 9.06 30.84 6.89 2.74 21.93 10.71 24.73 5.83 0.78-1.36 20.6-6.15 21.23-7.58z"/>
      <path id="path4482" style="fill-rule:evenodd;stroke:#000000;stroke-width:1px;fill:#fce100" d="m348.91 501.15c-5.46-14.43 1.23-13.6 4.4-27.86 1.1-4.95 6.23-11.55 6.97-8.04 2.6 12.3 9.09 26.51 14.28 19.04 3.79-5.45 20.22-3.7 26.99-2.65 7.3 1.14 6.89 14.94 11.86 17.31 18.64 8.9 6.24-14.01 20.53 10.99 2.7 4.73 11.93-8.01 3.66 4.4-5.03 7.55-17.83 10.5-23.46 16.13-5.67 5.67-8.33 1.35-10.26 10.99-0.66 3.31-9.93 4.5-12.46 5.13-7.81 1.95-22.98-1.81-27.12-7.33-4.44-5.92-12.04-20.21-8.06-24.19 1.1-1.1-8.55-12.95-7.33-13.92z"/>
      <path id="path4488" style="fill-rule:evenodd;fill:url(#linearGradient5246)" d="m348.91 501.15c-5.46-14.43 1.23-13.6 4.4-27.86 1.1-4.95 6.23-11.55 6.97-8.04 2.6 12.3 9.09 26.51 14.28 19.04 3.79-5.45 20.22-3.7 26.99-2.65 7.3 1.14 6.89 14.94 11.86 17.31 18.64 8.9 6.24-14.01 20.53 10.99 2.7 4.73 11.93-8.01 3.66 4.4-5.03 7.55-17.83 10.5-23.46 16.13-5.67 5.67-8.33 1.35-10.26 10.99-0.66 3.31-9.93 4.5-12.46 5.13-7.81 1.95-22.98-1.81-27.12-7.33-4.44-5.92-12.04-20.21-8.06-24.19 1.1-1.1-8.55-12.95-7.33-13.92z"/>
      <path id="path4654" style="fill-rule:evenodd;fill:#7c7400" d="m357.2 579.21c-26.45 20.31-42.18 36.53-46.44 62.25-1.54 9.25 1.08 33.87 1.76 46.47 6.55 31.95 7.07 63.89-20.1 99.02-1.42 0.84-2.84 1.68-4.26 2.53l7.48-9.86c17.48 3.52-17.69 23-8.92-0.68 27.33-53.07 19.57-68.1 13.33-110.9-2.48-22.6 2.91-43.68 16.7-63.05 15.29-19.53 18.32-18.84 28.05-26.89l12.4 1.11z"/>
      <path id="path4656" style="fill-rule:evenodd;fill:url(#linearGradient5248)" d="m358.68 578.69c-26.46 20.31-42.18 36.53-46.45 62.25-1.53 9.25 1.09 33.87 1.77 46.47 6.55 31.95 7.07 63.89-20.1 99.01-1.42 0.85-2.84 1.69-4.26 2.53l7.48-9.85c17.48 3.52-17.69 22.99-8.92-0.68 27.33-53.08 19.56-68.11 13.33-110.9-2.48-22.6 2.91-43.68 16.7-63.05 15.29-19.53 18.32-18.84 28.04-26.89l12.41 1.11z"/>
      <path id="path4704" style="fill-rule:evenodd;fill:url(#linearGradient5250)" d="m335.47 472.67a7.3893 4.8031 0 1 1 -14.77 0 7.3893 4.8031 0 1 1 14.77 0z" transform="matrix(.83552 .39277 -.88448 .49344 531.53 118.55)"/>
      <path id="path4486" style="fill-rule:evenodd;stroke:#000000;stroke-width:1px;fill:#fce100" d="m389.87 516.13c9.08-12.48 2.41-13.43 3.12-28.03 0.25-5.07-2.96-12.79-4.6-9.6-5.76 11.17-15.77 23.17-18.81 14.59-2.21-6.25-18.52-8.91-25.33-9.68-7.34-0.83-10.59 12.58-16.01 13.55-20.33 3.66-2.32-15.15-22.7 5.18-3.85 3.85-9.4-10.88-4.7 3.28 2.86 8.6 14.42 14.83 18.36 21.75 3.98 6.97 7.68 3.5 7 13.31-0.24 3.37 8.39 6.97 10.66 8.25 7.01 3.94 22.65 4.32 28.09 0.09 5.86-4.54 16.96-16.31 14.17-21.2-0.77-1.36 11.67-10.23 10.75-11.49z"/>
      <path id="path4516" style="fill-rule:evenodd;fill:url(#linearGradient5252)" d="m389.87 516.13c9.08-12.48 2.41-13.43 3.12-28.03 0.25-5.07-2.96-12.79-4.6-9.6-5.76 11.17-15.77 23.17-18.81 14.59-2.21-6.25-18.52-8.91-25.33-9.68-7.34-0.83-10.59 12.58-16.01 13.55-20.33 3.66-2.32-15.15-22.7 5.18-3.85 3.85-9.4-10.88-4.7 3.28 2.86 8.6 14.42 14.83 18.36 21.75 3.98 6.97 7.68 3.5 7 13.31-0.24 3.37 8.39 6.97 10.66 8.25 7.01 3.94 22.65 4.32 28.09 0.09 5.86-4.54 16.96-16.31 14.17-21.2-0.77-1.36 11.67-10.23 10.75-11.49z"/>
      <path id="path4666" style="fill:url(#linearGradient5250);fill-rule:evenodd" d="m335.47 472.67a7.3893 4.8031 0 1 1 -14.77 0 7.3893 4.8031 0 1 1 14.77 0z" transform="matrix(.92323 0 0 .82284 64.69 87.715)"/>
      <path id="path4700" style="fill:url(#linearGradient5250);fill-rule:evenodd" d="m335.47 472.67a7.3893 4.8031 0 1 1 -14.77 0 7.3893 4.8031 0 1 1 14.77 0z" transform="matrix(.81009 -.14763 .11152 .61199 31.832 237.01)"/>
      <path id="path4478" style="fill-rule:evenodd;stroke:#000000;stroke-width:1px;fill:#8e9f00" d="m344.51 577.7c-0.73-0.1-1.47-0.2-2.2-0.29-18.4-2.44-42.83-35.41-49.11-51.94-1.91-5.04 1.98-10 1.47-15.2-2.1-21.26 14.97 18.87 21.02 21.44 5.95 2.53 5.2-3.42 3.9-11.4-2.07-12.66-5.19-29.08 0.73-38.17 0.48-0.73 11.71 23.42 21.26 32.86 3.71 3.67 6.81-11.24 10.99-13.2 7.16-3.37 9.15 41.1 12.46 29.5 2.51-8.77 9.76-9.76 11.69-11.54 3.35-3.09 3.23 15.64 3.71 22.36 0.23 3.24-0.98 6.23-1.47 9.34-1.27 8.09-10.57 9.38-12.46 16.68-1.83 7.06 0.77 9.99-9.53 11.2-5.99 0.71-6.29 2.87-12.46-1.64z"/>
      <path id="path4480" style="fill-rule:evenodd;stroke:#000000;stroke-width:1px;fill:#8e9f00" d="m359.55 588.56c0.33-8.24 6.54 1.11 6.87 1.67 8.49 13.93 44.52 18.23 62.42 13.56 5.45-1.43 8.89-7.66 14.03-10.35 21.02-11.01-23.05-1.2-27.53-4.71-4.41-3.46 4.4-3.6 12.46-7.31 12.79-5.87 26.65-15.91 33.35-26.32 0.53-0.83-26.3 4.27-38.52 1.95-4.75-0.9 8.45-12.43 8.93-17.12 0.82-8-42.34 17.02-32.36 7.29 7.54-7.35 6.05-14.01 7.11-16.7 1.82-4.65-16.03 6.69-22.62 10.33-3.16 1.75-5.62 4.55-8.42 6.83-7.31 5.92-5.42 14.47-11.76 20.43-6.14 5.76-8.34 10.48-8.98 11.02-4.27 3.61-1.37 6.98 5.02 9.43z"/>
      <path id="path4546" style="fill-rule:evenodd;fill:url(#radialGradient5258)" d="m359.55 588.56c0.33-8.24 6.54 1.11 6.87 1.67 8.49 13.93 44.52 18.23 62.42 13.56 5.45-1.43 8.89-7.66 14.03-10.35 21.02-11.01-23.05-1.2-27.53-4.71-4.41-3.46 4.4-3.6 12.46-7.31 12.79-5.87 26.65-15.91 33.35-26.32 0.53-0.83-26.3 4.27-38.52 1.95-4.75-0.9 8.45-12.43 8.93-17.12 0.82-8-42.34 17.02-32.36 7.29 7.54-7.35 6.05-14.01 7.11-16.7 1.82-4.65-16.03 6.69-22.62 10.33-3.16 1.75-5.62 4.55-8.42 6.83-7.31 5.92-5.42 14.47-11.76 20.43-6.14 5.76-8.34 10.48-8.98 11.02-4.27 3.61-1.37 6.98 5.02 9.43z"/>
      <path id="path4556" style="fill-rule:evenodd;fill:url(#radialGradient5260)" d="m344.51 577.7c-0.73-0.1-1.47-0.2-2.2-0.29-18.4-2.44-42.83-35.41-49.11-51.94-1.91-5.04 1.98-10 1.47-15.2-2.1-21.26 14.97 18.87 21.02 21.44 5.95 2.53 5.2-3.42 3.9-11.4-2.07-12.66-5.19-29.08 0.73-38.17 0.48-0.73 11.71 23.42 21.26 32.86 3.71 3.67 6.81-11.24 10.99-13.2 7.16-3.37 9.15 41.1 12.46 29.5 2.51-8.77 9.76-9.76 11.69-11.54 3.35-3.09 3.23 15.64 3.71 22.36 0.23 3.24-0.98 6.23-1.47 9.34-1.27 8.09-10.57 9.38-12.46 16.68-1.83 7.06 0.77 9.99-9.53 11.2-5.99 0.71-6.29 2.87-12.46-1.64z"/>
      <g id="g4917" transform="matrix(.83488 0 0 .89279 117.51 59.771)">
        <path id="path4873" style="fill-rule:evenodd;stroke:#000000;stroke-width:1px;fill:#e5f800" d="m168.74 583.08c1.13-22.55-14.43-44.16-34.1-54-8.87-4.44-19.09-5.1-28.07-9.59-3.76-1.88-6.41-5.7-9.587-7.82-2.952-1.97-5.998-5.45-8.171-8.17-3.164-3.95-4.618 1.33-4.618 3.91v2.84c0 5.75-2.18 9.75-0.71 15.63 1.441 5.77 2.842 9.41 2.842 15.63 0 13.83 5.366 23.75 12.433 35.53 4.361 7.27 13.541 13.63 19.891 19.18 4.99 4.37 9.98 11.2 16.34 12.79 9.59 2.4 16.32-4.84 23.45-9.59 5.56-3.71 11.77-8.99 10.3-16.34z"/>
        <path id="path4875" style="fill-rule:evenodd;stroke:#000000;stroke-width:1px;fill:url(#linearGradient5262)" d="m168.74 583.08c1.13-22.55-14.43-44.16-34.1-54-8.87-4.44-19.09-5.1-28.07-9.59-3.76-1.88-6.41-5.7-9.587-7.82-2.952-1.97-5.998-5.45-8.171-8.17-3.164-3.95-4.618 1.33-4.618 3.91v2.84c0 5.75-2.18 9.75-0.71 15.63 1.441 5.77 2.842 9.41 2.842 15.63 0 13.83 5.366 23.75 12.433 35.53 4.361 7.27 13.541 13.63 19.891 19.18 4.99 4.37 9.98 11.2 16.34 12.79 9.59 2.4 16.32-4.84 23.45-9.59 5.56-3.71 11.77-8.99 10.3-16.34z"/>
        <path id="path4889" style="fill-rule:evenodd;stroke:#000000;stroke-width:1px;fill:url(#linearGradient5264)" d="m168.74 583.08c1.13-22.55-14.43-44.16-34.1-54-8.87-4.44-19.09-5.1-28.07-9.59-3.76-1.88-6.41-5.7-9.587-7.82-2.952-1.97 5.367 10.18 1.421 12.79-4.224 2.8 9.596 29.4 11.726 41.21 0.17 0.93 10 23.12 10.65 23.8 9.67 10.07 13.87 17.84 12.31 16.97-2.8-1.55-19.41-19.89-22.67-24.28-5.88-7.91-11.861-21.63-14.91-26.96-7.77-13.57-12.875-32.71-12.026-29.32 1.441 5.77 2.842 9.41 2.842 15.63 0 13.83 5.366 23.75 12.433 35.53 4.361 7.27 13.541 13.63 19.891 19.18 4.99 4.37 9.98 11.2 16.34 12.79 9.59 2.4 16.32-4.84 23.45-9.59 5.56-3.71 11.77-8.99 10.3-16.34z"/>
        <path id="path4738" style="fill-rule:evenodd;fill:#7c7400" d="m165.42 619.85c20.68 19.98 32.97 35.94 36.3 61.24 1.2 9.1-0.84 33.32-1.38 45.72-5.11 31.44-5.52 62.86 15.72 97.42 1.11 0.83 2.21 1.66 3.32 2.49l-5.84-9.7c-13.66 3.46 13.83 22.62 6.97-0.67-21.36-52.22-15.29-67-10.42-109.11 1.94-22.23-2.27-42.97-13.05-62.03-11.95-19.22-14.33-18.54-21.92-26.45l-9.7 1.09z"/>
        <path id="path4748" style="fill-rule:evenodd;fill:url(#linearGradient5266)" d="m164.26 619.34c20.68 19.98 32.97 35.93 36.31 61.24 1.2 9.1-0.85 33.32-1.38 45.72-5.12 31.43-5.53 62.86 15.71 97.41l3.33 2.49-5.85-9.69c-13.66 3.46 13.83 22.62 6.97-0.67-21.36-52.22-15.29-67.01-10.42-109.11 1.95-22.24-2.27-42.98-13.05-62.03-11.95-19.22-14.32-18.54-21.92-26.46l-9.7 1.1z"/>
        <path id="path4909" style="fill-rule:evenodd;stroke:#000000;stroke-width:1px;fill:url(#linearGradient5268)" d="m110.42 582.16c-5.88-7.91-11.861-21.63-14.91-26.96-7.77-13.57-12.875-32.71-12.026-29.32 1.441 5.77 2.842 9.41 2.842 15.63 0 13.83 5.366 23.75 12.433 35.53 4.361 7.27 13.541 13.63 19.891 19.18 4.99 4.37 9.98 11.2 16.34 12.79 10.76-32.47 0.92-13.45-3.22-8.9-5.21 5.7-7.78 0.87-21.35-17.95z"/>
        <g id="g4913">
          <path id="path4784" style="fill-rule:evenodd;stroke:#000000;stroke-width:.74791px;fill:#8e9f00" d="m162.31 622.07c1.19-6-5.08 0.07-5.43 0.44-8.78 9.13-35.91 4.9-48.45-0.46-3.82-1.64 0.01-3.35-3.35-5.86-3.32-2.48-9.673-11.36-7.973-11.63 5.363-0.88 29.693 14.41 32.703 12.86 3.9-2.01-11.83-4.51-17.2-8.08-8.52-5.66-15.159-20.29-18.33-28.55-0.255-0.66 16.94 11.82 26.47 11.5 3.71-0.12-3.24-16.11-2.78-19.55 0.64-4.71 23.76 19.82 27.93 21.28 1.03 0.36-4.79-4.63-5.93-6.25-4.34-6.15-7.53-9.91-7.85-11.98-0.54-3.56 10.79 6.62 15.07 9.98 2.06 1.61 8.87 3.03 10.57 4.99 4.41 5.09 1.5 11.06 5.19 16.07 3.56 4.85 4.38 8.51 4.76 8.97 2.55 3.09-0.21 5.2-5.4 6.27z"/>
          <path id="path4786" style="fill-rule:evenodd;fill:url(#radialGradient5270)" d="m162.31 622.07c1.19-6-5.08 0.07-5.43 0.44-8.78 9.13-36.44 8.25-48.98 2.89-3.82-1.63-5.29-6.52-8.652-9.04-13.756-10.29 17.412 1.69 21.382-0.35 3.9-2.01-2.65-3.1-8.02-6.67-8.52-5.66-17.102-14.46-20.273-22.72-0.254-0.67 18.883 5.99 28.413 5.67 3.71-0.12-4.13-9.93-3.66-13.37 0.8-5.88 23.59 24.03 17.86 15.89-4.34-6.16 0.49-17.66 0.18-19.72-0.55-3.57 13.43 8.38 17.53 9.79 2.48 0.86 3.4 3.92 5.1 5.88 4.41 5.09 1.5 11.06 5.19 16.07 3.56 4.85 4.38 8.51 4.76 8.97 2.55 3.09-0.21 5.2-5.4 6.27z"/>
        </g>
        <g id="g4867" transform="matrix(.98909 -.084321 .17121 .99644 -99.59 16.673)">
          <path id="path4782" style="fill-rule:evenodd;stroke:#000000;stroke-width:.75892px;fill:#8e9f00" d="m176.58 613.94c0.42-0.24 0.85-0.47 1.27-0.71 10.62-5.93 20.32-41.04 21.62-57.43 0.4-5-2.66-8.76-3.12-13.62-1.9-19.89-6.14 20.28-9.37 23.86-3.18 3.52-3.61-2.08-4.01-9.65-0.65-12.01-1.21-27.67-6.09-34.79-0.39-0.57-3.52 23.79-7.82 34.36-1.67 4.11-5.73-8.91-8.51-9.87-4.77-1.64 0.62 39.47-3.08 29.51-2.79-7.52-7.26-6.96-8.68-8.21-2.45-2.14 0.39 14.97 1.1 21.23 0.34 3 1.5 5.5 2.26 8.25 1.95 7.15 7.69 6.45 9.9 12.75 2.13 6.1 1.02 9.3 7.34 8.34 3.68-0.56 4.18 1.36 7.19-4.02z"/>
          <path id="path4788" style="fill-rule:evenodd;fill:url(#radialGradient5272)" d="m178.68 613.23c0.34-0.21 0.68-0.42 1.02-0.62 8.57-5.24 15.54-39.43 16.14-55.59 0.18-4.92-2.44-8.83-2.96-13.67-2.13-19.81-4.47 19.72-7.03 23.07-2.51 3.29-3.02-2.28-3.57-9.8-0.87-11.93-1.79-27.47-6-34.82-0.34-0.59-2.22 23.36-5.45 33.56-1.26 3.97-4.97-9.17-7.29-10.28-3.97-1.91 1.64 39.12-1.68 29.04-2.51-7.62-6.17-7.33-7.38-8.65-2.08-2.27 0.75 14.85 1.51 21.08 0.37 3 1.4 5.54 2.1 8.31 1.81 7.2 6.51 6.85 8.51 13.23 1.93 6.16 1.1 9.27 6.27 8.69 3.01-0.33 3.48 1.6 5.81-3.55z"/>
        </g>
        <g id="g4850" transform="matrix(1 0 .30796 1 -195.26 0)">
          <path id="path4740" style="fill-rule:evenodd;stroke:#747200;stroke-width:.72614px;fill:#8edc00" d="m171.67 626.94c6.79 7.42 13.41 6.28 14.68 6.45 3.5 0.48-1.95-9.09 1.51-7.58 1.99 0.87 6.81 3.85 8.92 7.76 0.61 1.14 1.38-6.92 3.65-6.13 0.97 0.34 1.93 2.73 3.97 2.95 3.79 0.41 3.77-2.48 4.97-0.27 0.48 0.88-0.74-0.61-1.44-4-0.69-3.31-5.34-3.97-1.88-4.1 6.26-0.22-2.7-2.44-3.06-7.94-0.48-7.45 11.22-1.33-0.41-5.96-4.98-1.99-10.45-4.21-14.83-0.67-9.29 4.46-15.17 10.08-16.08 19.49z"/>
          <path id="path4742" style="fill-rule:evenodd;stroke:#747200;stroke-width:.72614px;fill:#8edc00" d="m173.82 620.34c3.25 10.19-0.19 16.91-0.54 18.36-0.96 3.95-6.42-5.6-6.56-1.28-0.07 2.48 0.42 8.83 2.7 12.62 0.66 1.09-5.99-1.17-6.23 1.59-0.11 1.17 1.41 3.14 0.8 5.42-1.13 4.26-3.4 3.13-2.12 5.27 0.51 0.86-0.2-1.03-2.6-3.09-2.35-2.01-1.09-7.29-2.51-3.6-2.58 6.67-0.89-3.86-5.1-6.36-5.69-3.38-5.35 11.62-4.54-2.73 0.34-6.14 0.68-12.91 5.16-16.28 7.09-8.34 13.77-12.53 21.54-9.92z"/>
          <path id="path4744" style="fill-rule:evenodd;stroke:#667200;stroke-width:.72614px;fill:url(#radialGradient5274)" d="m173.82 620.34c3.25 10.19-0.19 16.91-0.54 18.36-0.96 3.95-6.42-5.6-6.56-1.28-0.07 2.48 0.42 8.83 2.7 12.62 0.66 1.09-5.99-1.17-6.23 1.59-0.11 1.17 1.41 3.14 0.8 5.42-1.13 4.26-3.4 3.13-2.12 5.27 0.51 0.86-0.2-1.03-2.6-3.09-2.35-2.01-1.09-7.29-2.51-3.6-2.58 6.67-0.89-3.86-5.1-6.36-5.69-3.38-5.35 11.62-4.54-2.73 0.34-6.14 0.68-12.91 5.16-16.28 7.09-8.34 13.77-12.53 21.54-9.92z"/>
          <path id="path4746" style="fill-rule:evenodd;stroke:#747200;stroke-width:.72614px;fill:url(#radialGradient5276)" d="m171.67 626.94c6.79 7.42 13.41 6.28 14.68 6.45 3.5 0.48-1.95-9.09 1.51-7.58 1.99 0.87 6.81 3.85 8.92 7.76 0.61 1.14 1.38-6.92 3.65-6.13 0.97 0.34 1.93 2.73 3.97 2.95 3.79 0.41 3.77-2.48 4.97-0.27 0.48 0.88-0.74-0.61-1.44-4-0.69-3.31-5.34-3.97-1.88-4.1 6.26-0.22-2.7-2.44-3.06-7.94-0.48-7.45 11.22-1.33-0.41-5.96-4.98-1.99-10.45-4.21-14.83-0.67-9.29 4.46-15.17 10.08-16.08 19.49z"/>
          <path id="path4750" style="stroke:#6f7f00;stroke-width:.66567;fill:none" d="m194.06 615.62c2.66 0.09 6.25 0.22 6.98 1.92 1.3 3 6.49 2.96 7.1 3.32m-18.94-11.59c2.76 0.03 2.99 5.73 7.18 10.3 0.6 0.66 3.82-1.7 11.6 8.36"/>
          <path id="path4752" style="fill-rule:evenodd;stroke:#747200;stroke-width:.83209px;fill:#8edc00" d="m188.31 607.73c7.79 8.97 5.61 16.05 5.64 17.49 0.11 3.95-10.35-3.97-9.03 0.15 0.76 2.37 3.61 8.28 7.9 11.39 1.25 0.9-8.25 0.14-7.62 2.8 0.28 1.14 2.94 2.68 2.93 4.97-0.01 4.27 1.06 3.72-0.95 5.43-1.46 1.24-3.04-0.4-4.48-2.39-2.14-2.95-3.95-6.67-4.54-2.89-1.07 6.86-2.5-3.46-8.88-4.96-8.63-2.02-2.99 12.11-6.9-1.64-1.68-5.88-3.57-12.37 1.13-16.49 6.4-9.37 13.7-14.73 24.8-13.86z"/>
          <path id="path4754" style="fill-rule:evenodd;stroke:#747200;stroke-width:.83209px;fill:url(#radialGradient5278)" d="m188.31 607.73c7.79 8.97 5.61 16.05 5.64 17.49 0.11 3.95-10.35-3.97-9.03 0.15 0.76 2.37 3.61 8.28 7.9 11.39 1.25 0.9-8.25 0.14-7.62 2.8 0.28 1.14 2.94 2.68 2.93 4.97-0.01 4.27 1.06 3.72-0.95 5.43-1.46 1.24-3.04-0.4-4.48-2.39-2.14-2.95-3.95-6.67-4.54-2.89-1.07 6.86-2.5-3.46-8.88-4.96-8.63-2.02-2.99 12.11-6.9-1.64-1.68-5.88-3.57-12.37 1.13-16.49 6.4-9.37 13.7-14.73 24.8-13.86z"/>
          <path id="path4756" style="stroke:#6f7f00;stroke-width:.66567;fill:none" d="m171.84 612.63c4.04-1.81 8.1-3.09 12.29 1.48 1.63 1.78 1.74 6.13 3.81 7.94 0.58 0.52 3.36 2.31 3.97 2.66"/>
          <path id="path4758" style="stroke:#6f7f00;stroke-width:.66567;fill:none" d="m175.7 624.1c4.37-1.9 6.54 4.37 7.27 6.07 1.29 3.01 6.49 5.13 7.09 5.49m-18.93-21.9c2.76 0.03 1.85 8.23 6.03 12.79 0.61 0.67 0.98 9.44 8.77 19.51"/>
          <path id="path4760" style="stroke:#6f7f00;stroke-width:.66567;fill:none" d="m164.26 642.28c2.48-11.84-2.12-13.15 1.02-18.76 1.22-2.18 3.3-3.21 4.48-5.9 0.33-0.76 1.37-4.27 1.57-5.03"/>
          <path id="path4762" style="stroke:#6f7f00;stroke-width:.66567;fill:none" d="m176.76 645.31c1.23-2.18-3.94-7.04-0.63-11.89 0.46-0.67 1.37-4.27 1.57-5.03"/>
          <path id="path4764" style="stroke:#6f7f00;stroke-width:.66567;fill:none" d="m189.77 609.8c2.9-3.97 7.11-0.26 14.71 0.15"/>
          <path id="path4766" style="stroke:#6f7f00;stroke-width:.66567;fill:none" d="m196.83 633c1.22-2.18-2.67-3.54 0.65-8.4 0.45-0.67-0.77-4.1-0.57-4.86"/>
          <path id="path4768" style="stroke:#6f7f00;stroke-width:.66567;fill:none" d="m147.71 649.43c2.48-11.84 4.13-7.17 7.27-12.77 1.23-2.18 3.3-3.21 4.48-5.91 0.34-0.75 1.38-4.26 1.57-5.02"/>
          <path id="path4770" style="stroke:#6f7f00;stroke-width:.66567;fill:none" d="m161.78 660.44c1.22-2.18-4.66-15.01-1.35-19.87 0.46-0.67 1.37-4.27 1.57-5.03"/>
        </g>
      </g>
      <path id="path5005" style="fill-rule:evenodd;stroke:#000000;stroke-width:1px;fill:#8e9f00" d="m350.82 586.26c-4.93-6.62 5.78-3.25 6.39-3.03 15.36 5.48 46.07-13.83 57.05-28.72 3.34-4.54 2.09-11.55 4.39-16.87 9.41-21.78-18.66 13.56-24.36 13.65-5.6 0.09 1.15-5.56 5.09-13.51 6.25-12.62 10.71-29.14 9.37-41.44-0.11-0.99-17.76 19.86-28.72 25.75-4.26 2.29-1.25-14.99-3.82-18.93-4.4-6.74-22.21 39.86-20.58 26.02 1.24-10.46-4.1-14.7-4.98-17.46-1.5-4.76-8.25 15.29-11.08 22.26-1.36 3.35-1.5 7.07-2.25 10.61-1.96 9.2 4.89 14.66 3.71 23.28-1.15 8.34 0.11 13.39-0.05 14.21-1.04 5.5 3.33 6.29 9.84 4.18z"/>
      <path id="path5007" style="fill-rule:evenodd;fill:url(#radialGradient5280)" d="m350.82 586.26c-4.93-6.62 5.78-3.25 6.39-3.03 15.36 5.48 46.07-13.83 57.05-28.72 3.34-4.54 2.09-11.55 4.39-16.87 9.41-21.78-18.66 13.56-24.36 13.65-5.6 0.09 1.15-5.56 5.09-13.51 6.25-12.62 10.71-29.14 9.37-41.44-0.11-0.99-17.76 19.86-28.72 25.75-4.26 2.29-1.25-14.99-3.82-18.93-4.4-6.74-22.21 39.86-20.58 26.02 1.24-10.46-4.1-14.7-4.98-17.46-1.5-4.76-8.25 15.29-11.08 22.26-1.36 3.35-1.5 7.07-2.25 10.61-1.96 9.2 4.89 14.66 3.71 23.28-1.15 8.34 0.11 13.39-0.05 14.21-1.04 5.5 3.33 6.29 9.84 4.18z"/>
      <path id="path5009" style="stroke:#6f7f00;stroke-width:0.8;fill:none" d="m361.55 599.35c-10.78-8.19-7.04-13.09-14.13-15.36-2.77-0.88-5.58-0.07-8.66-1.43-0.87-0.38-4.37-2.57-5.1-3.06"/>
      <path id="path5011" style="stroke:#6f7f00;stroke-width:0.8;fill:none" d="m383.28 591.99c-10.79-8.19-9.19-2.81-16.28-5.07-2.76-0.89-5.57-0.08-8.65-1.44-0.87-0.38-4.37-2.56-5.1-3.06"/>
      <path id="path5013" style="stroke:#6f7f00;stroke-width:0.8;fill:none" d="m376.75 613.01c-2.76-0.89-5.78-16.78-12.53-18.26-0.92-0.21-4.37-2.57-5.09-3.06"/>
      <g id="g5024">
        <path id="path4582" style="fill-rule:evenodd;stroke:#747200;stroke-width:.87267px;fill:#8edc00" d="m350.02 588.45c-8.83 8.24-17.44 6.98-19.09 7.17-4.55 0.53 2.53-10.1-1.96-8.41-2.58 0.96-8.85 4.26-11.6 8.61-0.8 1.26-1.79-7.69-4.74-6.81-1.26 0.38-2.52 3.03-5.16 3.27-4.94 0.46-4.91-2.74-6.47-0.29-0.62 0.98 0.96-0.68 1.87-4.45 0.9-3.67 6.94-4.4 2.45-4.54-8.14-0.26 3.51-2.72 3.98-8.83 0.63-8.27-14.59-1.47 0.53-6.62 6.47-2.21 13.59-4.68 19.28-0.74 12.09 4.96 19.72 11.19 20.91 21.64z"/>
        <path id="path4584" style="fill-rule:evenodd;stroke:#747200;stroke-width:.87267px;fill:#8edc00" d="m347.22 581.13c-4.22 11.32 0.25 18.78 0.71 20.39 1.25 4.39 8.35-6.22 8.52-1.42 0.1 2.75-0.55 9.81-3.51 14.01-0.86 1.22 7.79-1.29 8.11 1.77 0.13 1.31-1.83 3.49-1.04 6.02 1.47 4.73 4.41 3.48 2.75 5.86-0.66 0.95 0.26-1.15 3.38-3.44 3.06-2.23 1.42-8.09 3.27-4 3.35 7.42 1.16-4.28 6.62-7.06 7.4-3.75 6.96 12.91 5.92-3.03-0.45-6.82-0.9-14.34-6.72-18.09-9.21-9.26-17.9-13.92-28.01-11.01z"/>
        <path id="path4586" style="fill-rule:evenodd;stroke:#667200;stroke-width:.87267px;fill:url(#radialGradient5282)" d="m347.22 581.13c-4.22 11.32 0.25 18.78 0.71 20.39 1.25 4.39 8.35-6.22 8.52-1.42 0.1 2.75-0.55 9.81-3.51 14.01-0.86 1.22 7.79-1.29 8.11 1.77 0.13 1.31-1.83 3.49-1.04 6.02 1.47 4.73 4.41 3.48 2.75 5.86-0.66 0.95 0.26-1.15 3.38-3.44 3.06-2.23 1.42-8.09 3.27-4 3.35 7.42 1.16-4.28 6.62-7.06 7.4-3.75 6.96 12.91 5.92-3.03-0.45-6.82-0.9-14.34-6.72-18.09-9.21-9.26-17.9-13.92-28.01-11.01z"/>
        <path id="path4604" style="fill-rule:evenodd;stroke:#747200;stroke-width:.87267px;fill:url(#radialGradient5284)" d="m350.02 588.45c-8.83 8.24-17.44 6.98-19.09 7.17-4.55 0.53 2.53-10.1-1.96-8.41-2.58 0.96-8.85 4.26-11.6 8.61-0.8 1.26-1.79-7.69-4.74-6.81-1.26 0.38-2.52 3.03-5.16 3.27-4.94 0.46-4.91-2.74-6.47-0.29-0.62 0.98 0.96-0.68 1.87-4.45 0.9-3.67 6.94-4.4 2.45-4.54-8.14-0.26 3.51-2.72 3.98-8.83 0.63-8.27-14.59-1.47 0.53-6.62 6.47-2.21 13.59-4.68 19.28-0.74 12.09 4.96 19.72 11.19 20.91 21.64z"/>
        <path id="path4644" style="stroke:#6f7f00;stroke-width:0.8;fill:none" d="m320.91 575.88c-3.47 0.1-8.13 0.24-9.08 2.13-1.69 3.34-8.44 3.29-9.23 3.69m24.62-12.87c-3.59 0.03-3.88 6.36-9.33 11.44-0.78 0.74-4.96-1.89-15.08 9.29"/>
        <path id="path4580" style="fill-rule:evenodd;stroke:#747200;stroke-width:1px;fill:#8edc00" d="m328.38 567.12c-10.12 9.96-7.28 17.83-7.34 19.43-0.13 4.38 13.47-4.41 11.75 0.17-0.99 2.62-4.69 9.19-10.27 12.64-1.63 1.01 10.73 0.16 9.9 3.12-0.35 1.26-3.81 2.97-3.8 5.51 0.01 4.75-1.38 4.14 1.23 6.04 1.9 1.38 3.96-0.44 5.83-2.65 2.78-3.28 5.13-7.42 5.9-3.22 1.39 7.62 3.25-3.85 11.54-5.5 11.22-2.25 3.89 13.45 8.98-1.83 2.18-6.53 4.64-13.74-1.46-18.32-8.33-10.4-17.83-16.36-32.26-15.39z"/>
        <path id="path4614" style="fill-rule:evenodd;stroke:#747200;stroke-width:1px;fill:url(#radialGradient5286)" d="m328.38 567.12c-10.12 9.96-7.28 17.83-7.34 19.43-0.13 4.38 13.47-4.41 11.75 0.17-0.99 2.62-4.69 9.19-10.27 12.64-1.63 1.01 10.73 0.16 9.9 3.12-0.35 1.26-3.81 2.97-3.8 5.51 0.01 4.75-1.38 4.14 1.23 6.04 1.9 1.38 3.96-0.44 5.83-2.65 2.78-3.28 5.13-7.42 5.9-3.22 1.39 7.62 3.25-3.85 11.54-5.5 11.22-2.25 3.89 13.45 8.98-1.83 2.18-6.53 4.64-13.74-1.46-18.32-8.33-10.4-17.83-16.36-32.26-15.39z"/>
        <path id="path4632" style="stroke:#6f7f00;stroke-width:0.8;fill:none" d="m349.8 572.56c-5.25-2.01-10.53-3.43-15.98 1.65-2.12 1.97-2.26 6.8-4.96 8.82-0.75 0.57-4.37 2.56-5.16 2.95"/>
        <path id="path4636" style="stroke:#6f7f00;stroke-width:0.8;fill:none" d="m344.78 585.31c-5.68-2.12-8.5 4.85-9.45 6.74-1.68 3.34-8.44 5.7-9.22 6.09m24.62-24.32c-3.59 0.02-2.41 9.13-7.85 14.21-0.79 0.73-1.28 10.48-11.4 21.66"/>
        <path id="path4638" style="stroke:#6f7f00;stroke-width:0.8;fill:none" d="m359.66 605.49c-3.23-13.15 2.75-14.61-1.33-20.83-1.59-2.42-4.29-3.56-5.83-6.56-0.43-0.84-1.78-4.74-2.04-5.58"/>
        <path id="path4640" style="stroke:#6f7f00;stroke-width:0.8;fill:none" d="m343.4 608.86c-1.59-2.42 5.13-7.81 0.82-13.21-0.59-0.74-1.78-4.74-2.04-5.58"/>
        <path id="path4642" style="stroke:#6f7f00;stroke-width:0.8;fill:none" d="m326.48 569.42c-3.77-4.41-9.24-0.29-19.12 0.17"/>
        <path id="path4646" style="stroke:#6f7f00;stroke-width:0.8;fill:none" d="m317.31 595.19c-1.59-2.42 3.47-3.93-0.84-9.33-0.59-0.74 0.99-4.56 0.73-5.4"/>
        <path id="path4648" style="stroke:#6f7f00;stroke-width:0.8;fill:none" d="m381.18 613.44c-3.23-13.16-5.38-7.96-9.46-14.18-1.59-2.43-4.29-3.57-5.83-6.57-0.43-0.84-1.78-4.74-2.04-5.58"/>
        <path id="path4650" style="stroke:#6f7f00;stroke-width:0.8;fill:none" d="m362.88 625.67c-1.59-2.42 6.06-16.68 1.75-22.08-0.59-0.74-1.78-4.74-2.04-5.58"/>
      </g>
      <g id="g5120" transform="matrix(.98563 .16892 -.16892 .98563 167.38 -15.058)">
        <path id="path5084" style="fill-rule:evenodd;stroke:#000000;stroke-width:1px;fill:#967f00" d="m82.917 755.66c7.674 1.53 21.653 6.82 32.963 3.99 13.78-3.44 6.38-4.71 2-7.99-11.09-8.32 27.04-5.53 39.96-11.99 1.33-0.66 2.67-1.33 4-1.99 1.02-0.51-5.38-3.76-7.99-8.99-1.54-3.07 22.87 0.99 27.97 0.99 8.89 0 18.78-1.99 28.97-1.99 10.36 0 24.68 13.69 30.97 19.98 13.91 13.91 2.57 10.15-11.99 5.99-18.24-5.21-49.57 0.66-66.93 5-9.14 2.28-18.88 5.44-25.98 8.99-7.99 3.99-17.72 4.99-26.97 4.99h-5.99c-9.498 0-12.655-4.66-18.985-10.99-2.199-2.2-0.906-0.53-1.998-5.99z"/>
        <path id="path5104" style="fill:url(#linearGradient5238);fill-rule:evenodd" d="m82.917 755.66c7.674 1.53 21.653 6.82 32.963 3.99 13.78-3.44 6.38-4.71 2-7.99-11.09-8.32 27.04-5.53 39.96-11.99 1.33-0.66 2.67-1.33 4-1.99 1.02-0.51-5.38-3.76-7.99-8.99-1.54-3.07 22.87 0.99 27.97 0.99 8.89 0 18.78-1.99 28.97-1.99 10.36 0 24.68 13.69 30.97 19.98 13.91 13.91 2.57 10.15-11.99 5.99-18.24-5.21-49.57 0.66-66.93 5-9.14 2.28-18.88 5.44-25.98 8.99-7.99 3.99-17.72 4.99-26.97 4.99h-5.99c-9.498 0-12.655-4.66-18.985-10.99-2.199-2.2-0.906-0.53-1.998-5.99z"/>
        <path id="path5082" style="fill-rule:evenodd;stroke:#000000;stroke-width:1px;fill:#96ae00" d="m264.74 767.65c-5.67-12.77-36.94-35.97-64.94-35.97-20.31 0-58.45 31.61-88.91 35.97-10 1.42-20.311-5-26.974-9.99-8.933-6.7 5.711 9.94 7.992 12.98 12.052 16.07 36.682 11.34 50.952 5 8.13-3.62 15.7-14.43 9.99-3-6.81 13.63-10.15 19.98-26.98 19.98-3.59 0 12.78 9.1 24.98 3 11.8-5.9 27.48-18.47 31.97-10.99 5.5 9.16-19.85 17.98 0 17.98 17.61 0 28.97-33.31 28.97-6.99 0 9.45 16.29-8.3 20.98-12.99 8.84-8.84 4.05-22.36 20.98-18.98 7.22 1.45 20.34 22.71 10.99 4z"/>
        <path id="path5086" style="fill-rule:evenodd;stroke:#6f7f00;stroke-width:1px;fill:url(#linearGradient5240)" d="m264.74 767.65c-2.16-4.86-11.57-13.3-21.8-18.24-13.58-6.55-36.31-18.88-52.2-11.93-11.1 4.86-37.48 17.88-45.02 21.33-43.31 19.78-43.08 9.5-44.62 9.56-10.093 0.38-10.521-5.72-17.184-10.71-8.933-6.7 5.711 9.94 7.992 12.98 12.052 16.07 36.682 11.34 50.952 5 8.13-3.62 15.7-14.43 9.99-3-6.81 13.63-10.15 19.98-26.98 19.98-3.59 0 12.78 9.1 24.98 3 11.8-5.9 27.48-18.47 31.97-10.99 5.5 9.16-19.85 17.98 0 17.98 17.61 0 28.97-33.31 28.97-6.99 0 9.45 16.29-8.3 20.98-12.99 8.84-8.84 4.05-22.36 20.98-18.98 7.22 1.45 20.34 22.71 10.99 4z"/>
        <path id="path5114" style="stroke:#576e16;stroke-width:0.6;fill:none" d="m226.77 757.71c-2.19 3.21-0.17 8-0.68 9.84-1.06 3.78-2.02 7.51-3.89 7.88-4.85 0.95-4.68-3.87-15.59 7.61m20.62-24c0.59 3.41 3.15 4.89 4.78 13.51m-9.69 2.87c-0.74 1.23-3.34 2.33-4.73 5.16-1.3 2.68-1.42 7.02-1.55 10.8-0.09 2.52 0.04 2.62-2.54 3.26m23.2-47.85c-4 1.97-5.34 5.33-10.04 9.75-3.41 3.21-7.36 1.04-10.99 10.55"/>
        <path id="path5116" style="stroke:#576e16;stroke-width:0.6;fill:none" d="m194.14 773.33c0.37 0.7-3.06 3.68-3.76 7.73-0.47 2.78 1.79 6.97 1.67 7.64-0.53 2.77-2.85 6.24-8.59 10.57m27-46.47c-1.7 3.49-6.86 4.11-8.2 5.47-2.75 2.8-5.52 5.49-4.91 7.29 1.59 4.68 5.68 2.14 1.14 17.31m10.59-29.82c-3.26 1.18-5.81-0.3-14.1 2.56m2.32 9.84c-0.7 1.25-0.36 4.05-2.13 6.67-1.68 2.46-5.38 4.72-8.6 6.71-1.1 0.68-14.6-1.81-12.82 1.52m48.28-39.88c0.16 2.7-5.25 1.43-8.25 3.58-1.93 1.38-1.66 5.79-2.25 8.25-1.09 4.56 2.75 6.91-3.7 14.78"/>
        <path id="path5118" style="stroke:#576e16;stroke-width:0.6;fill:none" d="m166.01 768.27c0.23 0.7-3.7 3.86-5.15 8.02-0.99 2.86 0.44 7.09 0.19 7.78-1.04 2.85-10.66 6.13-17.12 10.73m41.98-48.03c-2.33 3.62-7.51 4.42-9.08 5.85-3.23 2.94-6.46 5.78-6.2 7.6 0.67 4.75 5.17 2.03-2.16 17.69m16.03-30.84c-3.42 1.31-5.64-0.14-14.33 3.04m0.43 10c-0.92 1.3-1.12 4.16-3.36 6.89-2.11 2.57-5.83-8.89-9.36-6.76-0.52 0.32-5.13-0.78-8 1.38-3.8 2.88-7.28 9.41-20.82 12.2m70.54-40.01c-0.35 2.76-5.42 1.62-8.77 3.91-2.16 1.47-2.73 5.98-3.77 8.51-1.94 4.7 1.39 7-6.43 15.25"/>
      </g>
    </g>
    <g id="g4352" transform="matrix(.31321 0 0 .28564 243.58 50.802)">
      <g id="g4340" transform="matrix(.78968 -.29871 .14364 .67012 86.073 226.08)">
        <path id="path4342" style="stroke:#000000;stroke-width:1.5;fill:none" d="m398.55 395.29c-3.17 2.45-5.89 3.06-9.07 6.24-3.24 3.24 6.24 6.16 6.8 6.23 3.05 0.41 4.7 2.07 6.24 2.84 0.86 0.43 3.11 5.8 2.32 3.99-0.52-1.21-15.82 7.61 1.74 3.8"/>
        <path id="path4344" style="stroke:#000000;stroke-width:.46778;fill:none" d="m396.39 408.17c0.18-0.05 0.18-0.05 0 0-2.24 0.63 2.5-2.4 4.74-3.06 2.1-0.61 3.45-0.14 4.11-0.21"/>
        <path id="path4346" style="stroke:#000000;stroke-width:.39330;fill:none" d="m400.21 409.5c0.11-0.04 0.11-0.04 0 0-1.48 0.56 1.32-2.34 2.79-2.92 1.38-0.55 2.42-0.02 2.88-0.08"/>
        <path id="path4348" style="stroke:#000000;stroke-width:.37893;fill:none" d="m402.04 410.97c0.11 0 0.11 0 0 0-1.46 0 1.9-1.74 3.35-1.77 1.36-0.02 2.09 0.85 2.5 0.96"/>
        <path id="path4350" style="stroke:#000000;stroke-width:.24773;fill:none" d="m404.36 413.02c0.09 0 0.09 0 0 0-1.12 0 1.47-0.96 2.59-0.98 1.05-0.02 1.61 0.47 1.92 0.53"/>
      </g>
      <g id="g4316" transform="matrix(.91818 .39616 -.39616 .91818 171.58 -124.37)">
        <path id="path4318" style="stroke:#000000;stroke-width:1.5;fill:none" d="m398.55 395.29c-3.17 2.45-5.89 3.06-9.07 6.24-3.24 3.24 6.24 6.16 6.8 6.23 3.05 0.41 4.7 2.07 6.24 2.84 0.86 0.43 3.11 5.8 2.32 3.99-0.52-1.21-15.82 7.61 1.74 3.8"/>
        <path id="path4320" style="stroke:#000000;stroke-width:.46778;fill:none" d="m396.39 408.17c0.18-0.05 0.18-0.05 0 0-2.24 0.63 2.5-2.4 4.74-3.06 2.1-0.61 3.45-0.14 4.11-0.21"/>
        <path id="path4322" style="stroke:#000000;stroke-width:.39330;fill:none" d="m400.21 409.5c0.11-0.04 0.11-0.04 0 0-1.48 0.56 1.32-2.34 2.79-2.92 1.38-0.55 2.42-0.02 2.88-0.08"/>
        <path id="path4324" style="stroke:#000000;stroke-width:.37893;fill:none" d="m402.04 410.97c0.11 0 0.11 0 0 0-1.46 0 1.9-1.74 3.35-1.77 1.36-0.02 2.09 0.85 2.5 0.96"/>
        <path id="path4326" style="stroke:#000000;stroke-width:.24773;fill:none" d="m404.36 413.02c0.09 0 0.09 0 0 0-1.12 0 1.47-0.96 2.59-0.98 1.05-0.02 1.61 0.47 1.92 0.53"/>
      </g>
      <g id="g4176">
        <g id="g4018" transform="matrix(.73426 -.55178 .5521 .73383 -110.57 308.81)">
          <path id="path4006" style="fill-rule:evenodd;stroke:url(#linearGradient4024);stroke-width:.88589px;fill:url(#linearGradient4022)" d="m371.54 365.14s10.49-61.72 51.7-71.9c27.19-6.72 32.2 6.6 32.2 6.6s-1.08 10.79-13.27 17.45c-15.9 8.69-37.35 18.6-48.38 44.01-4.77 11-21.5 5.91-22.25 3.84z"/>
          <path id="path4008" style="fill-rule:evenodd;stroke:url(#linearGradient4028);stroke-width:1px;fill:url(#linearGradient4026)" d="m358.12 371.05s-2.95-61.36 32.19-91.16c30.15-25.57 42.47-6.9 42.47-6.9s5.15 8.88-3.56 22.1c-10.7 16.23-32.14 33.28-43.44 62.39-5.03 12.95-26.26 15.67-27.66 13.57z"/>
        </g>
        <path id="path1891" style="fill-rule:evenodd;stroke:#000000;stroke-width:1px;fill:#c87137" d="m353.39 376s37.58-42.95 81.42-42.05c43.83 0.89 42.94 0.89 42.94 0.89s8.95 11.63 0.89 17c-8.05 5.37-6.26 25.95-51.89 44.74-22.88 9.42-76.04 8.05-76.04 8.05l2.68-28.63z"/>
        <path id="path1889" style="fill-rule:evenodd;stroke:#000000;stroke-width:1px;fill:#a05a2c" d="m355.47 374.8c-5.95-3.45-29.82-8.34-34.3 12.24-3.77 17.35 1.64 26.03 9.2 30.12 2.45 1.33 6.84 4.61 9.51 5.11 4.39 0.82 6.99-1.81 10.85-2.86 8.74-2.38 15.2-9.14 15.11-18.36-0.17-17-4.46-22.83-10.37-26.25z"/>
        <path id="path2803" style="fill:url(#linearGradient2805)" d="m416.34 336.96c16.34 9.11 19.76 35.02 23.21 51.81l-9.11 4.67c-0.83-11.53-2.35-31.72-10.72-39.65-3-2.16-12.48-12.44-16.2-12.93l12.82-3.9z"/>
        <path id="path2799" style="fill:url(#linearGradient2801)" d="m391.23 346.89c16.35 9.11 22.77 34.42 26.21 51.21l-10.6 1.97c-0.84-11.53-3.85-26.62-12.22-34.55-3.01-2.16-9.78-11.83-13.51-12.33l10.12-6.3z"/>
        <path id="path1895" style="fill:url(#linearGradient2797)" d="m371.23 360.89c16.35 9.11 17.96 23.62 21.41 40.41l-12.7 2.27c-0.84-11.53 3.05-16.12-5.32-24.05-3.01-2.16-10.08-10.03-13.81-10.53l10.42-8.1z"/>
        <path id="path2807" style="fill:url(#linearGradient2809)" d="m441.94 334.96c8.29 4.62 8.48 12.05 11.86 19.27 3.05 6.5 2.75 13.76 4.45 22.04l-8.8 6.77c-0.84-11.53-0.25-14.92-3.22-27.05-3.01-6.96-13.98-20.84-17.7-21.33l13.41 0.3z"/>
        <path id="path2811" style="fill:url(#linearGradient2813)" d="m461.94 334.96c8.29 4.62 6.38 6.05 9.76 13.27 3.05 6.5-2.65 5.96-0.95 14.24l-7.3 9.17c-0.84-11.53 3.95-8.32 0.98-20.45-3.01-6.96-12.18-16.04-15.9-16.53l13.41 0.3z"/>
        <g id="g3804" transform="matrix(-1 0 0 1 677.76 -.36459)">
          <path id="path3806" style="stroke:#000000;stroke-width:0.7;fill:none" d="m331.94 384.11c-2.38-5.06-1.16-6.26-1.16-6.26l-0.29 0.3"/>
          <path id="path3808" style="stroke:#000000;stroke-width:0.7;fill:none" d="m329.38 383.5c-3.07-3.03-1.54-5.22-1.54-5.22"/>
          <path id="path3810" style="stroke:#000000;stroke-width:0.7;fill:none" d="m329.38 383.5c-3.07-3.03-1.54-5.22-1.54-5.22"/>
          <path id="path3812" style="stroke:#000000;stroke-width:0.7;fill:none" d="m327.38 383.5c-3.07-3.03-2.27-4.53-2.27-4.53"/>
          <path id="path3814" style="stroke:#000000;stroke-width:0.7;fill:none" d="m324.74 384.39c-3.07-3.04-2.28-4.54-2.28-4.54"/>
          <path id="path3816" style="stroke:#000000;stroke-width:0.7;fill:none" d="m323.52 384.97c-3.77-2.09-3.41-3.75-3.41-3.75"/>
          <path id="path3818" style="stroke:#000000;stroke-width:0.7;fill:none" d="m321.73 386.17c-3.77-2.09-3.41-3.75-3.41-3.75"/>
          <path id="path3820" style="stroke:#000000;stroke-width:0.7;fill:none" d="m320.64 388.24c-3.78-2.1-3.42-3.76-3.42-3.76"/>
        </g>
        <path id="path2815" style="fill-rule:evenodd;fill:#f9e100" d="m358.83 390.2a8.5508 7.5007 0 1 1 -17.1 0 8.5508 7.5007 0 1 1 17.1 0z" transform="matrix(.88914 .20418 -.16562 .72123 103.91 34.406)"/>
        <g id="g3758" transform="matrix(-1 0 0 1 676.98 -.000021043)">
          <path id="path3760" style="fill-rule:evenodd;stroke:url(#linearGradient3750);stroke-width:0.4;fill:url(#radialGradient3740)" d="m358.83 390.2a8.5508 7.5007 0 1 1 -17.1 0 8.5508 7.5007 0 1 1 17.1 0z" transform="matrix(.60770 -.18726 .15451 .51115 54.334 253.34)"/>
          <path id="path3762" style="fill-rule:evenodd;stroke:url(#linearGradient3750);stroke-width:0.4;fill:url(#radialGradient3740)" d="m358.83 390.2a8.5508 7.5007 0 1 1 -17.1 0 8.5508 7.5007 0 1 1 17.1 0z" transform="matrix(.60770 -.18726 .15451 .51115 54.334 253.34)"/>
        </g>
        <g id="g3794">
          <path id="path3772" style="stroke:#000000;stroke-width:0.7;fill:none" d="m331.94 384.11c-2.38-5.06-1.16-6.26-1.16-6.26l-0.29 0.3"/>
          <path id="path3774" style="stroke:#000000;stroke-width:0.7;fill:none" d="m329.38 383.5c-3.07-3.03-1.54-5.22-1.54-5.22"/>
          <path id="path3776" style="stroke:#000000;stroke-width:0.7;fill:none" d="m329.38 383.5c-3.07-3.03-1.54-5.22-1.54-5.22"/>
          <path id="path3778" style="stroke:#000000;stroke-width:0.7;fill:none" d="m327.38 383.5c-3.07-3.03-2.27-4.53-2.27-4.53"/>
          <path id="path3780" style="stroke:#000000;stroke-width:0.7;fill:none" d="m324.74 384.39c-3.07-3.04-2.28-4.54-2.28-4.54"/>
          <path id="path3782" style="stroke:#000000;stroke-width:0.7;fill:none" d="m323.52 384.97c-3.77-2.09-3.41-3.75-3.41-3.75"/>
          <path id="path3784" style="stroke:#000000;stroke-width:0.7;fill:none" d="m321.73 386.17c-3.77-2.09-3.41-3.75-3.41-3.75"/>
          <path id="path3786" style="stroke:#000000;stroke-width:0.7;fill:none" d="m320.64 388.24c-3.78-2.1-3.42-3.76-3.42-3.76"/>
        </g>
        <g id="g3788">
          <path id="path3712" style="fill-rule:evenodd;fill:#f9e100" d="m358.83 390.2a8.5508 7.5007 0 1 1 -17.1 0 8.5508 7.5007 0 1 1 17.1 0z" transform="matrix(.87255 -.26630 .22185 .7269 -65.571 198.34)"/>
          <g id="g3754">
            <path id="path3714" style="fill-rule:evenodd;stroke:url(#linearGradient3750);stroke-width:0.4;fill:url(#radialGradient3740)" d="m358.83 390.2a8.5508 7.5007 0 1 1 -17.1 0 8.5508 7.5007 0 1 1 17.1 0z" transform="matrix(.60770 -.18726 .15451 .51115 54.334 253.34)"/>
            <path id="path3752" style="fill-rule:evenodd;stroke:url(#linearGradient3750);stroke-width:0.4;fill:url(#radialGradient3740)" d="m358.83 390.2a8.5508 7.5007 0 1 1 -17.1 0 8.5508 7.5007 0 1 1 17.1 0z" transform="matrix(.60770 -.18726 .15451 .51115 54.334 253.34)"/>
          </g>
        </g>
        <path id="path3824" style="fill-rule:evenodd;fill:url(#linearGradient3850)" d="m358.83 390.2a8.5508 7.5007 0 1 1 -17.1 0 8.5508 7.5007 0 1 1 17.1 0z" transform="matrix(-.017498 .82674 -.58974 -.017024 574.61 114.77)"/>
        <path id="path3886" style="stroke-opacity:.74252;fill-rule:evenodd;stroke:url(#linearGradient3906);stroke-width:0.7;fill:#db2700" d="m342.84 400.29a3.8282 4.6789 0 1 1 -7.66 0 3.8282 4.6789 0 1 1 7.66 0z" transform="translate(-.48612 -.97225)"/>
        <path id="path3908" style="fill-rule:evenodd;fill:url(#radialGradient3916)" d="m342.84 400.29a3.8282 4.6789 0 1 1 -7.66 0 3.8282 4.6789 0 1 1 7.66 0z" transform="translate(-.48612 -.97225)"/>
        <path id="path3926" style="fill-rule:evenodd;stroke:#b60000;stroke-width:1px;fill:#db4b00" d="m330.56 407.15s14.95 9.24 19.57-1.7c4.62-10.93 2.31 1.22 2.31 1.22s-5.84 9.69-13.49 7.78c-7.29-1.83-9.24-5.96-9.24-5.96l0.85-1.34z"/>
        <path id="path3928" style="fill-rule:evenodd;stroke:url(#linearGradient3954);stroke-width:0.7;fill:url(#radialGradient3944)" d="m309.42 387.47a3.9498 3.6459 0 1 1 -7.9 0 3.9498 3.6459 0 1 1 7.9 0z" transform="matrix(.67272 0 0 .72878 141.96 105.33)"/>
        <path id="path3956" style="fill-rule:evenodd;stroke:url(#linearGradient3954);stroke-width:0.7;fill:url(#radialGradient3944)" d="m309.42 387.47a3.9498 3.6459 0 1 1 -7.9 0 3.9498 3.6459 0 1 1 7.9 0z" transform="matrix(-.67272 0 0 .72878 534.47 105.82)"/>
        <path id="path3982" style="stroke:#000000;stroke-width:2.2;fill:none" d="m331.25 375.8s-8.19-39.97-27.99-35.53c-15.95 3.58-6.44 11.23-2.26 12.56 4.39 1.39 14.51-1.79 8.94-6.58-4.7-4.04-9.59-1.22-8.64 1.39 0.76 2.1 4.38 1.63 4.38 1.63l-0.21 0.27"/>
        <path id="path4000" style="fill-rule:evenodd;stroke:url(#linearGradient4050);stroke-width:.88589px;fill:url(#linearGradient4048)" d="m390.05 361.48s27.26-48.1 68.95-56.03c36.14-6.88 29.47 9.62 29.47 9.62s1.1 8.79-11.03 15.57c-14.89 8.31-46.9 9.24-66.99 27.21-8.93 7.99-20 5.78-20.4 3.63z"/>
        <path id="path1893" style="fill-rule:evenodd;stroke:url(#linearGradient4045);stroke-width:1px;fill:url(#linearGradient4043)" d="m375.86 365.15s22.69-64.5 51.72-80.92c40.09-22.67 37.69-3.89 37.69-3.89s3.65 9.59-7.06 21.24c-13.16 14.3-37.05 27.69-52.88 54.62-7.04 11.98-28.43 11.26-29.47 8.95z"/>
        <path id="path4052" style="fill-rule:evenodd;fill:#f51300" d="m292.65 303.73a7.0488 5.8335 0 1 1 -14.1 0 7.0488 5.8335 0 1 1 14.1 0z" transform="matrix(.46809 -.29204 .19850 .31816 192.98 338.87)"/>
        <g id="g4074">
          <path id="path4054" style="fill-rule:evenodd;fill:#f51300" d="m292.65 303.73a7.0488 5.8335 0 1 1 -14.1 0 7.0488 5.8335 0 1 1 14.1 0z" transform="matrix(.46809 -.29204 .19850 .31816 200.98 320.87)"/>
          <path id="path4056" style="fill-rule:evenodd;fill:#f51300" d="m292.65 303.73a7.0488 5.8335 0 1 1 -14.1 0 7.0488 5.8335 0 1 1 14.1 0z" transform="matrix(.46809 -.29204 .19850 .31816 210.98 304.87)"/>
          <path id="path4058" style="fill-rule:evenodd;fill:#f51300" d="m292.65 303.73a7.0488 5.8335 0 1 1 -14.1 0 7.0488 5.8335 0 1 1 14.1 0z" transform="matrix(.46809 -.29204 .19850 .31816 222.98 288.87)"/>
          <path id="path4060" style="fill-rule:evenodd;fill:#f51300" d="m292.65 303.73a7.0488 5.8335 0 1 1 -14.1 0 7.0488 5.8335 0 1 1 14.1 0z" transform="matrix(.46809 -.29204 .19850 .31816 236.98 276.87)"/>
          <path id="path4062" style="fill-rule:evenodd;fill:#f51300" d="m292.65 303.73a7.0488 5.8335 0 1 1 -14.1 0 7.0488 5.8335 0 1 1 14.1 0z" transform="matrix(.46809 -.29204 .19850 .31816 254.98 268.87)"/>
          <path id="path4064" style="fill-rule:evenodd;fill:#f59f00" d="m292.65 303.73a7.0488 5.8335 0 1 1 -14.1 0 7.0488 5.8335 0 1 1 14.1 0z" transform="matrix(.30544 -.18959 .12952 .20654 317.17 286.54)"/>
          <path id="path4066" style="fill-rule:evenodd;fill:#f57200" d="m292.65 303.73a7.0488 5.8335 0 1 1 -14.1 0 7.0488 5.8335 0 1 1 14.1 0z" transform="matrix(.30544 -.18959 .12952 .20654 305.17 292.54)"/>
          <path id="path4068" style="fill-rule:evenodd;fill:#f57200" d="m292.65 303.73a7.0488 5.8335 0 1 1 -14.1 0 7.0488 5.8335 0 1 1 14.1 0z" transform="matrix(.30544 -.18959 .12952 .20654 293.17 304.54)"/>
          <path id="path4070" style="fill-rule:evenodd;fill:#f57200" d="m292.65 303.73a7.0488 5.8335 0 1 1 -14.1 0 7.0488 5.8335 0 1 1 14.1 0z" transform="matrix(.30544 -.18959 .12952 .20654 283.17 318.54)"/>
          <path id="path4072" style="fill-rule:evenodd;fill:#f57200" d="m292.65 303.73a7.0488 5.8335 0 1 1 -14.1 0 7.0488 5.8335 0 1 1 14.1 0z" transform="matrix(.30544 -.18959 .12952 .20654 271.17 334.54)"/>
        </g>
        <g id="g4086" transform="matrix(.92065 .17015 -.16692 .90319 95.637 -18.902)">
          <path id="path4088" style="fill-rule:evenodd;fill:#f51300" d="m292.65 303.73a7.0488 5.8335 0 1 1 -14.1 0 7.0488 5.8335 0 1 1 14.1 0z" transform="matrix(.46809 -.29204 .19850 .31816 200.98 320.87)"/>
          <path id="path4090" style="fill-rule:evenodd;fill:#f51300" d="m292.65 303.73a7.0488 5.8335 0 1 1 -14.1 0 7.0488 5.8335 0 1 1 14.1 0z" transform="matrix(.46809 -.29204 .19850 .31816 210.98 304.87)"/>
          <path id="path4092" style="fill-rule:evenodd;fill:#f51300" d="m292.65 303.73a7.0488 5.8335 0 1 1 -14.1 0 7.0488 5.8335 0 1 1 14.1 0z" transform="matrix(.46809 -.29204 .19850 .31816 222.98 288.87)"/>
          <path id="path4094" style="fill-rule:evenodd;fill:#f51300" d="m292.65 303.73a7.0488 5.8335 0 1 1 -14.1 0 7.0488 5.8335 0 1 1 14.1 0z" transform="matrix(.46809 -.29204 .19850 .31816 236.98 276.87)"/>
          <path id="path4096" style="fill-rule:evenodd;fill:#f51300" d="m292.65 303.73a7.0488 5.8335 0 1 1 -14.1 0 7.0488 5.8335 0 1 1 14.1 0z" transform="matrix(.46809 -.29204 .19850 .31816 254.98 268.87)"/>
          <path id="path4098" style="fill-rule:evenodd;fill:#f59f00" d="m292.65 303.73a7.0488 5.8335 0 1 1 -14.1 0 7.0488 5.8335 0 1 1 14.1 0z" transform="matrix(.30544 -.18959 .12952 .20654 317.17 286.54)"/>
          <path id="path4100" style="fill-rule:evenodd;fill:#f57200" d="m292.65 303.73a7.0488 5.8335 0 1 1 -14.1 0 7.0488 5.8335 0 1 1 14.1 0z" transform="matrix(.30544 -.18959 .12952 .20654 305.17 292.54)"/>
          <path id="path4102" style="fill-rule:evenodd;fill:#f57200" d="m292.65 303.73a7.0488 5.8335 0 1 1 -14.1 0 7.0488 5.8335 0 1 1 14.1 0z" transform="matrix(.30544 -.18959 .12952 .20654 293.17 304.54)"/>
          <path id="path4104" style="fill-rule:evenodd;fill:#f57200" d="m292.65 303.73a7.0488 5.8335 0 1 1 -14.1 0 7.0488 5.8335 0 1 1 14.1 0z" transform="matrix(.30544 -.18959 .12952 .20654 283.17 318.54)"/>
          <path id="path4106" style="fill-rule:evenodd;fill:#f57200" d="m292.65 303.73a7.0488 5.8335 0 1 1 -14.1 0 7.0488 5.8335 0 1 1 14.1 0z" transform="matrix(.30544 -.18959 .12952 .20654 271.17 334.54)"/>
        </g>
        <g id="g4152" transform="matrix(.60506 -.70528 .72780 .57593 -136.13 442.74)">
          <g id="g4108">
            <path id="path4110" style="fill-rule:evenodd;fill:#f51300" d="m292.65 303.73a7.0488 5.8335 0 1 1 -14.1 0 7.0488 5.8335 0 1 1 14.1 0z" transform="matrix(.46809 -.29204 .19850 .31816 200.98 320.87)"/>
            <path id="path4112" style="fill-rule:evenodd;fill:#f51300" d="m292.65 303.73a7.0488 5.8335 0 1 1 -14.1 0 7.0488 5.8335 0 1 1 14.1 0z" transform="matrix(.46809 -.29204 .19850 .31816 210.98 304.87)"/>
            <path id="path4114" style="fill-rule:evenodd;fill:#f51300" d="m292.65 303.73a7.0488 5.8335 0 1 1 -14.1 0 7.0488 5.8335 0 1 1 14.1 0z" transform="matrix(.46809 -.29204 .19850 .31816 222.98 288.87)"/>
            <path id="path4116" style="fill-rule:evenodd;fill:#f51300" d="m292.65 303.73a7.0488 5.8335 0 1 1 -14.1 0 7.0488 5.8335 0 1 1 14.1 0z" transform="matrix(.46809 -.29204 .19850 .31816 236.98 276.87)"/>
            <path id="path4118" style="fill-rule:evenodd;fill:#f51300" d="m292.65 303.73a7.0488 5.8335 0 1 1 -14.1 0 7.0488 5.8335 0 1 1 14.1 0z" transform="matrix(.46809 -.29204 .19850 .31816 254.98 268.87)"/>
            <path id="path4120" style="fill-rule:evenodd;fill:#f59f00" d="m292.65 303.73a7.0488 5.8335 0 1 1 -14.1 0 7.0488 5.8335 0 1 1 14.1 0z" transform="matrix(.30544 -.18959 .12952 .20654 317.17 286.54)"/>
            <path id="path4122" style="fill-rule:evenodd;fill:#f57200" d="m292.65 303.73a7.0488 5.8335 0 1 1 -14.1 0 7.0488 5.8335 0 1 1 14.1 0z" transform="matrix(.30544 -.18959 .12952 .20654 305.17 292.54)"/>
            <path id="path4124" style="fill-rule:evenodd;fill:#f57200" d="m292.65 303.73a7.0488 5.8335 0 1 1 -14.1 0 7.0488 5.8335 0 1 1 14.1 0z" transform="matrix(.30544 -.18959 .12952 .20654 293.17 304.54)"/>
            <path id="path4126" style="fill-rule:evenodd;fill:#f57200" d="m292.65 303.73a7.0488 5.8335 0 1 1 -14.1 0 7.0488 5.8335 0 1 1 14.1 0z" transform="matrix(.30544 -.18959 .12952 .20654 283.17 318.54)"/>
            <path id="path4128" style="fill-rule:evenodd;fill:#f57200" d="m292.65 303.73a7.0488 5.8335 0 1 1 -14.1 0 7.0488 5.8335 0 1 1 14.1 0z" transform="matrix(.30544 -.18959 .12952 .20654 271.17 334.54)"/>
          </g>
          <g id="g4130" transform="matrix(.92065 .17015 -.16692 .90319 95.637 -18.902)">
            <path id="path4132" style="fill-rule:evenodd;fill:#f51300" d="m292.65 303.73a7.0488 5.8335 0 1 1 -14.1 0 7.0488 5.8335 0 1 1 14.1 0z" transform="matrix(.46809 -.29204 .19850 .31816 200.98 320.87)"/>
            <path id="path4134" style="fill-rule:evenodd;fill:#f51300" d="m292.65 303.73a7.0488 5.8335 0 1 1 -14.1 0 7.0488 5.8335 0 1 1 14.1 0z" transform="matrix(.46809 -.29204 .19850 .31816 210.98 304.87)"/>
            <path id="path4136" style="fill-rule:evenodd;fill:#f51300" d="m292.65 303.73a7.0488 5.8335 0 1 1 -14.1 0 7.0488 5.8335 0 1 1 14.1 0z" transform="matrix(.46809 -.29204 .19850 .31816 222.98 288.87)"/>
            <path id="path4138" style="fill-rule:evenodd;fill:#f51300" d="m292.65 303.73a7.0488 5.8335 0 1 1 -14.1 0 7.0488 5.8335 0 1 1 14.1 0z" transform="matrix(.46809 -.29204 .19850 .31816 236.98 276.87)"/>
            <path id="path4140" style="fill-rule:evenodd;fill:#f51300" d="m292.65 303.73a7.0488 5.8335 0 1 1 -14.1 0 7.0488 5.8335 0 1 1 14.1 0z" transform="matrix(.46809 -.29204 .19850 .31816 254.98 268.87)"/>
            <path id="path4142" style="fill-rule:evenodd;fill:#f59f00" d="m292.65 303.73a7.0488 5.8335 0 1 1 -14.1 0 7.0488 5.8335 0 1 1 14.1 0z" transform="matrix(.30544 -.18959 .12952 .20654 317.17 286.54)"/>
            <path id="path4144" style="fill-rule:evenodd;fill:#f57200" d="m292.65 303.73a7.0488 5.8335 0 1 1 -14.1 0 7.0488 5.8335 0 1 1 14.1 0z" transform="matrix(.30544 -.18959 .12952 .20654 305.17 292.54)"/>
            <path id="path4146" style="fill-rule:evenodd;fill:#f57200" d="m292.65 303.73a7.0488 5.8335 0 1 1 -14.1 0 7.0488 5.8335 0 1 1 14.1 0z" transform="matrix(.30544 -.18959 .12952 .20654 293.17 304.54)"/>
            <path id="path4148" style="fill-rule:evenodd;fill:#f57200" d="m292.65 303.73a7.0488 5.8335 0 1 1 -14.1 0 7.0488 5.8335 0 1 1 14.1 0z" transform="matrix(.30544 -.18959 .12952 .20654 283.17 318.54)"/>
            <path id="path4150" style="fill-rule:evenodd;fill:#f57200" d="m292.65 303.73a7.0488 5.8335 0 1 1 -14.1 0 7.0488 5.8335 0 1 1 14.1 0z" transform="matrix(.30544 -.18959 .12952 .20654 271.17 334.54)"/>
          </g>
        </g>
        <path id="path3980" style="stroke:#000000;stroke-width:2.2;fill:none" d="m350.41 375.24s6.75-40.24 26.7-36.51c16.07 3.01 6.84 11 2.71 12.47-4.33 1.55-14.57-1.26-9.17-6.25 4.56-4.2 9.55-1.56 8.69 1.08-0.69 2.13-4.32 1.78-4.32 1.78l0.22 0.27"/>
      </g>
      <g id="g4285">
        <path id="path4275" style="stroke:#000000;stroke-width:1.5;fill:none" d="m398.55 395.29c-3.17 2.45-5.89 3.06-9.07 6.24-3.24 3.24 6.24 6.16 6.8 6.23 3.05 0.41 4.7 2.07 6.24 2.84 0.86 0.43 3.11 5.8 2.32 3.99-0.52-1.21-15.82 7.61 1.74 3.8"/>
        <path id="path4277" style="stroke:#000000;stroke-width:.46778;fill:none" d="m396.39 408.17c0.18-0.05 0.18-0.05 0 0-2.24 0.63 2.5-2.4 4.74-3.06 2.1-0.61 3.45-0.14 4.11-0.21"/>
        <path id="path4279" style="stroke:#000000;stroke-width:.39330;fill:none" d="m400.21 409.5c0.11-0.04 0.11-0.04 0 0-1.48 0.56 1.32-2.34 2.79-2.92 1.38-0.55 2.42-0.02 2.88-0.08"/>
        <path id="path4281" style="stroke:#000000;stroke-width:.37893;fill:none" d="m402.04 410.97c0.11 0 0.11 0 0 0-1.46 0 1.9-1.74 3.35-1.77 1.36-0.02 2.09 0.85 2.5 0.96"/>
        <path id="path4283" style="stroke:#000000;stroke-width:.24773;fill:none" d="m404.36 413.02c0.09 0 0.09 0 0 0-1.12 0 1.47-0.96 2.59-0.98 1.05-0.02 1.61 0.47 1.92 0.53"/>
      </g>
      <g id="g4292" transform="matrix(.92381 -.24624 .061894 .87051 30.876 146.22)">
        <path id="path4294" style="stroke:#000000;stroke-width:1.5;fill:none" d="m398.55 395.29c-3.17 2.45-5.89 3.06-9.07 6.24-3.24 3.24 6.24 6.16 6.8 6.23 3.05 0.41 4.7 2.07 6.24 2.84 0.86 0.43 3.11 5.8 2.32 3.99-0.52-1.21-15.82 7.61 1.74 3.8"/>
        <path id="path4296" style="stroke:#000000;stroke-width:.46778;fill:none" d="m396.39 408.17c0.18-0.05 0.18-0.05 0 0-2.24 0.63 2.5-2.4 4.74-3.06 2.1-0.61 3.45-0.14 4.11-0.21"/>
        <path id="path4298" style="stroke:#000000;stroke-width:.39330;fill:none" d="m400.21 409.5c0.11-0.04 0.11-0.04 0 0-1.48 0.56 1.32-2.34 2.79-2.92 1.38-0.55 2.42-0.02 2.88-0.08"/>
        <path id="path4300" style="stroke:#000000;stroke-width:.37893;fill:none" d="m402.04 410.97c0.11 0 0.11 0 0 0-1.46 0 1.9-1.74 3.35-1.77 1.36-0.02 2.09 0.85 2.5 0.96"/>
        <path id="path4302" style="stroke:#000000;stroke-width:.24773;fill:none" d="m404.36 413.02c0.09 0 0.09 0 0 0-1.12 0 1.47-0.96 2.59-0.98 1.05-0.02 1.61 0.47 1.92 0.53"/>
      </g>
      <g id="g4304" transform="matrix(.78968 -.29871 .14364 .67012 73.978 238.72)">
        <path id="path4306" style="stroke:#000000;stroke-width:1.5;fill:none" d="m398.55 395.29c-3.17 2.45-5.89 3.06-9.07 6.24-3.24 3.24 6.24 6.16 6.8 6.23 3.05 0.41 4.7 2.07 6.24 2.84 0.86 0.43 3.11 5.8 2.32 3.99-0.52-1.21-15.82 7.61 1.74 3.8"/>
        <path id="path4308" style="stroke:#000000;stroke-width:.46778;fill:none" d="m396.39 408.17c0.18-0.05 0.18-0.05 0 0-2.24 0.63 2.5-2.4 4.74-3.06 2.1-0.61 3.45-0.14 4.11-0.21"/>
        <path id="path4310" style="stroke:#000000;stroke-width:.39330;fill:none" d="m400.21 409.5c0.11-0.04 0.11-0.04 0 0-1.48 0.56 1.32-2.34 2.79-2.92 1.38-0.55 2.42-0.02 2.88-0.08"/>
        <path id="path4312" style="stroke:#000000;stroke-width:.37893;fill:none" d="m402.04 410.97c0.11 0 0.11 0 0 0-1.46 0 1.9-1.74 3.35-1.77 1.36-0.02 2.09 0.85 2.5 0.96"/>
        <path id="path4314" style="stroke:#000000;stroke-width:.24773;fill:none" d="m404.36 413.02c0.09 0 0.09 0 0 0-1.12 0 1.47-0.96 2.59-0.98 1.05-0.02 1.61 0.47 1.92 0.53"/>
      </g>
    </g>
  </g>
  <metadata>
    <rdf:RDF>
      <cc:Work>
        <dc:format>image/svg+xml</dc:format>
        <dc:type rdf:resource="http://purl.org/dc/dcmitype/StillImage"/>
        <cc:license rdf:resource="http://creativecommons.org/licenses/publicdomain/"/>
        <dc:publisher>
          <cc:Agent rdf:about="http://openclipart.org/">
            <dc:title>Openclipart</dc:title>
          </cc:Agent>
        </dc:publisher>
        <dc:title>Bee</dc:title>
        <dc:date>2007-08-29T06:48:42</dc:date>
        <dc:description/>
        <dc:source>https://openclipart.org/detail/5085/bee-by-biswajyotim</dc:source>
        <dc:creator>
          <cc:Agent>
            <dc:title>biswajyotim</dc:title>
          </cc:Agent>
        </dc:creator>
        <dc:subject>
          <rdf:Bag>
            <rdf:li>bee</rdf:li>
            <rdf:li>bee on flower</rdf:li>
            <rdf:li>cartoon</rdf:li>
            <rdf:li>flower</rdf:li>
            <rdf:li>nature</rdf:li>
          </rdf:Bag>
        </dc:subject>
      </cc:Work>
      <cc:License rdf:about="http://creativecommons.org/licenses/publicdomain/">
        <cc:permits rdf:resource="http://creativecommons.org/ns#Reproduction"/>
        <cc:permits rdf:resource="http://creativecommons.org/ns#Distribution"/>
        <cc:permits rdf:resource="http://creativecommons.org/ns#DerivativeWorks"/>
      </cc:License>
    </rdf:RDF>
  </metadata>
</svg>
