<?xml version="1.0" encoding="UTF-8" standalone="no"?>
<!-- Created with Inkscape (http://www.inkscape.org/) -->

<svg
   xmlns:dc="http://purl.org/dc/elements/1.1/"
   xmlns:cc="http://creativecommons.org/ns#"
   xmlns:rdf="http://www.w3.org/1999/02/22-rdf-syntax-ns#"
   xmlns:svg="http://www.w3.org/2000/svg"
   xmlns="http://www.w3.org/2000/svg"
   xmlns:sodipodi="http://sodipodi.sourceforge.net/DTD/sodipodi-0.dtd"
   xmlns:inkscape="http://www.inkscape.org/namespaces/inkscape"
   width="300"
   height="300"
   id="svg3005"
   version="1.1"
   inkscape:version="0.48.4 r9939"
   sodipodi:docname="bromelia-07.svg">
  <title
     id="title3033">bromelia-07</title>
  <defs
     id="defs3007">
    <filter
       inkscape:collect="always"
       id="filter4064">
      <feGaussianBlur
         inkscape:collect="always"
         stdDeviation="1.4026953"
         id="feGaussianBlur4066" />
    </filter>
  </defs>
  <sodipodi:namedview
     id="base"
     pagecolor="#ffffff"
     bordercolor="#666666"
     borderopacity="1.0"
     inkscape:pageopacity="0.0"
     inkscape:pageshadow="2"
     inkscape:zoom="2.2515952"
     inkscape:cx="157.77227"
     inkscape:cy="150"
     inkscape:document-units="px"
     inkscape:current-layer="layer1"
     showgrid="false"
     inkscape:window-width="1215"
     inkscape:window-height="776"
     inkscape:window-x="65"
     inkscape:window-y="24"
     inkscape:window-maximized="1" />
  <metadata
     id="metadata3010">
    <rdf:RDF>
      <cc:Work
         rdf:about="">
        <dc:format>image/svg+xml</dc:format>
        <dc:type
           rdf:resource="http://purl.org/dc/dcmitype/StillImage" />
        <dc:title>bromelia-07</dc:title>
        <dc:date>Março 2014</dc:date>
        <dc:creator>
          <cc:Agent>
            <dc:title>jpenrici</dc:title>
          </cc:Agent>
        </dc:creator>
        <dc:publisher>
          <cc:Agent>
            <dc:title>Open Clip Art Library</dc:title>
          </cc:Agent>
        </dc:publisher>
        <cc:license
           rdf:resource="http://creativecommons.org/licenses/publicdomain/" />
        <dc:subject>
          <rdf:Bag>
            <rdf:li>bromelia</rdf:li>
            <rdf:li>bromélia</rdf:li>
            <rdf:li>plant</rdf:li>
            <rdf:li>flora</rdf:li>
            <rdf:li>nature</rdf:li>
            <rdf:li>clip art</rdf:li>
            <rdf:li>clipart</rdf:li>
            <rdf:li>svg</rdf:li>
          </rdf:Bag>
        </dc:subject>
      </cc:Work>
      <cc:License
         rdf:about="http://creativecommons.org/licenses/publicdomain/">
        <cc:permits
           rdf:resource="http://creativecommons.org/ns#Reproduction" />
        <cc:permits
           rdf:resource="http://creativecommons.org/ns#Distribution" />
        <cc:permits
           rdf:resource="http://creativecommons.org/ns#DerivativeWorks" />
      </cc:License>
    </rdf:RDF>
  </metadata>
  <g
     inkscape:label="Camada 1"
     inkscape:groupmode="layer"
     id="layer1"
     transform="translate(0,-752.36218)">
    <path
       style="fill:#696969;fill-opacity:1;stroke:none;filter:url(#filter4064)"
       d="m 207.19489,768.78411 c -19.2458,2.8729 -27.93712,23.01931 -35.25173,38.7258 -5.25609,-7.28241 -2.68954,-31.3202 -17.61215,-25.6339 -6.01219,4.55523 -11.5547,10.33996 -12.02819,-1.58948 -8.29553,-17.79926 -34.40734,-7.5878 -27.53058,11.10017 4.55868,18.08294 -9.0735,-3.93448 -15.12813,-7.09963 -6.651309,-10.13488 -32.69533,-14.39749 -24.620287,3.40671 4.761939,18.35473 13.558351,35.13311 23.913952,50.80758 8.828335,15.69001 -14.140451,-11.34631 -22.043304,-11.91025 -14.980095,-8.02825 -31.768624,-11.63385 -48.083491,-15.32743 -9.220773,-2.17842 -24.0005995,16.75808 -7.256406,14.20019 16.595138,8.11474 32.760283,17.47337 47.937599,28.01284 5.66705,4.87234 21.998652,19.28538 18.526503,21.31772 -22.962441,-14.12367 -53.687993,-24.42177 -78.5903217,-9.05712 -13.9166362,5.72186 -3.7882538,12.09615 6.1377257,11.04458 22.841527,3.50297 44.461787,12.12106 66.311435,19.27229 14.219076,7.99484 -12.657735,15.21058 -20.052841,17.45022 -14.61718,-0.45021 -29.679296,3.99276 -37.703645,17.49017 -5.24221,9.82918 -20.3988155,19.62671 -14.9020927,31.21326 14.1902057,-9.02909 28.5025827,-18.78374 43.8162677,-26.19693 -3.44813,10.87759 0.707891,31.30807 4.916781,35.64289 2.80773,-17.99422 20.716127,-27.55704 35.891091,-33.41646 16.030934,6.29278 -9.819397,1.16325 -13.707458,8.17034 -8.463614,2.68774 -13.202657,20.7154 0.278013,13.78343 15.304172,-5.89892 34.283399,-4.75891 43.451179,10.795 10.30658,11.38592 2.51704,27.24064 7.9962,40.5846 2.01255,12.2419 16.05093,36.454 25.98019,16.2788 9.18272,-17.0363 6.41453,-37.20641 11.70847,-55.2653 6.7764,-20.59427 32.18076,-9.19129 44.76253,-1.21648 12.40251,9.58339 26.06926,17.58379 35.55022,30.65908 15.23936,16.0235 22.94557,-16.50682 8.79596,-23.46225 -9.00415,-15.91949 -27.70197,-24.50095 -33.29997,-42.69402 -2.88569,-8.4486 -29.27588,-15.18603 -11.4162,-21.76089 18.26031,-8.72354 38.42572,-2.14417 57.61783,-2.47102 7.38781,-0.12869 30.05248,12.22868 24.43112,-3.4968 -9.81004,-18.32165 -32.23692,-23.91456 -51.31889,-21.07116 -16.51052,2.27121 -33.54735,5.39266 -47.78722,14.70328 10.67539,-22.86475 37.51637,-28.52257 59.2144,-35.0723 7.35727,-1.97226 22.32851,-6.04451 19.91171,-5.90637 8.67844,-5.88147 22.91913,14.06828 19.86634,-2.29196 -4.84211,-19.04166 -27.72829,-9.01826 -41.60585,-10.6423 -7.23816,-0.1134 -24.0934,6.16768 -10.76511,-3.44957 10.22821,-12.61079 26.86796,-17.85391 40.14731,-22.21222 -6.2694,-14.24962 -23.92623,-6.05516 -35.18391,-3.95296 -18.29503,5.38325 -33.80177,17.23681 -47.53634,30.20141 7.46537,-11.51451 19.00003,-18.82494 30.61562,-25.44996 -5.84566,-19.24532 -30.02366,6.44415 -32.6419,1.14854 3.82391,-17.44489 16.33742,-33.35422 17.03203,-50.81567 -1.50058,-3.33523 -5.38985,-4.59889 -8.74446,-4.54647 z m 46.6707,95.75133 -0.42642,0.11205 0.42642,-0.11205 z"
       id="path3970"
       inkscape:connector-curvature="0"
       transform="matrix(0.98169694,0,0,0.97253655,2.9956645,24.950258)" />
    <g
       id="g3939"
       transform="matrix(0.9745122,0,0,1,10.024355,0.42534235)">
      <path
         inkscape:connector-curvature="0"
         id="path3111"
         d="M 116.18884,931.86098 C 103.85483,927.66301 101.04173,912.76904 90.958869,905.5167 78.603957,891.17759 58.326158,891.29786 42.077013,884.04031 27.55126,877.64587 11.096991,879.38048 -3.4882365,873.49935 10.757275,860.12483 31.627158,856.21743 50.179222,861.45088 c 21.046189,5.16121 39.956649,16.98357 57.180538,29.78291 12.02879,9.46691 18.8824,23.6402 24.92424,37.33692 -5.06975,1.89616 -10.58375,4.21602 -16.09516,3.29027 z"
         style="fill:#998c6f;fill-opacity:1;stroke:#190f0d;stroke-width:0.5;stroke-linecap:round;stroke-linejoin:round;stroke-miterlimit:4;stroke-opacity:1;stroke-dasharray:none" />
      <path
         inkscape:connector-curvature="0"
         id="path3086"
         d="m 176.12768,921.49586 c 12.42225,-3.36214 10.79631,-20.56154 19.61748,-28.35194 19.11641,-24.0605 37.85603,-50.76641 66.44263,-64.20403 6.68853,-2.80907 21.6696,2.00601 11.07723,-9.10159 -11.60525,-4.28007 -24.82248,0.35624 -36.47352,3.09127 -23.25195,8.13476 -41.10033,26.20519 -58.54775,42.86734 -9.13822,9.37492 -12.66011,22.65487 -17.13732,34.35647 1.36312,8.44028 5.17284,20.0708 15.02125,21.34248 z"
         style="fill:#86895d;fill-opacity:1;stroke:#190f0d;stroke-width:0.52941763;stroke-linecap:round;stroke-linejoin:round;stroke-miterlimit:4;stroke-opacity:1;stroke-dasharray:none" />
      <path
         inkscape:connector-curvature="0"
         id="path3104"
         d="m 152.7052,850.09436 c -0.67353,-22.36442 -9.41882,-43.42502 -16.34994,-64.3625 -4.45376,-10.01933 -22.5932,-14.18345 -26.0588,-1.24426 -4.00469,14.25518 3.87247,28.4646 9.40811,41.28638 9.36105,10.656 6.12472,33.59284 22.84605,35.23809 8.42508,1.52471 10.01493,-3.76554 10.15458,-10.91771 z"
         style="fill:#9ba149;fill-opacity:1;stroke:#190f0d;stroke-width:0.5;stroke-linecap:round;stroke-linejoin:round;stroke-miterlimit:4;stroke-opacity:1;stroke-dasharray:none" />
      <path
         inkscape:connector-curvature="0"
         id="path3106"
         d="M 129.85109,896.55854 C 111.2711,870.94489 95.812949,843.31819 79.023895,816.55494 74.630677,805.7445 70.751634,793.93703 67.450168,783.23553 c 13.060768,-9.50034 26.275735,5.99664 35.761442,13.86552 18.83736,16.10209 24.1611,41.63234 33.00117,63.68172 1.37002,12.19441 -7.0627,23.2248 -6.36169,35.77577 z"
         style="fill:#8e7861;fill-opacity:1;stroke:#190f0d;stroke-width:0.5;stroke-linecap:round;stroke-linejoin:round;stroke-miterlimit:4;stroke-opacity:1;stroke-dasharray:none" />
      <path
         inkscape:connector-curvature="0"
         id="path3100"
         d="m 196.25312,817.8381 c 2.68394,-13.27734 13.26057,-26.41995 14.05288,-38.50957 -13.65928,-14.3896 -32.9768,8.55326 -39.03579,21.15951 -8.68299,18.23895 -16.16982,37.19001 -21.23929,56.75595 9.4352,9.15979 29.44328,6.07093 34.08124,-8.60092 5.22831,-9.77595 7.55681,-20.7527 12.14096,-30.80497 z"
         style="fill:#8e7861;fill-opacity:1;stroke:#190f0d;stroke-width:0.5;stroke-linecap:round;stroke-linejoin:round;stroke-miterlimit:4;stroke-opacity:1;stroke-dasharray:none" />
      <path
         inkscape:connector-curvature="0"
         id="path3102"
         d="m 164.89731,856.92672 c -8.61303,8.29362 -27.71409,8.56211 -30.37242,-5.54674 -1.61499,-13.60935 -0.94498,-27.59028 0.55739,-41.20873 1.15328,-10.79843 9.47412,-31.41974 22.90915,-21.48604 7.77962,15.59982 8.28858,33.84269 10.14963,50.96278 -0.18249,5.63873 0.51569,12.63711 -3.24375,17.27873 z"
         style="fill:#998c6f;fill-opacity:1;stroke:#190f0d;stroke-width:0.53177899;stroke-linecap:round;stroke-linejoin:round;stroke-miterlimit:4;stroke-opacity:1;stroke-dasharray:none" />
      <path
         sodipodi:nodetypes="cccc"
         inkscape:connector-curvature="0"
         id="path3094"
         d="m 151.15444,861.6281 c 0.48077,-10.80109 24.26357,-25.1605 29.99995,-27.08503 -6.76251,8.79695 -8.10155,35.00648 -25.41744,30.23965 -1.85267,-0.35189 -3.77316,-1.34233 -4.58251,-3.15462 z"
         style="fill:#58211a;fill-opacity:1;stroke:#190f0d;stroke-width:0.5;stroke-linecap:round;stroke-linejoin:round;stroke-miterlimit:4;stroke-opacity:1;stroke-dasharray:none" />
      <path
         inkscape:connector-curvature="0"
         id="path3092"
         d="m 143.20865,861.43986 c -0.6172,-13.69698 -14.37795,-21.0659 -21.6306,-31.28538 -4.72676,-7.27107 -21.679534,-13.35052 -25.904498,-8.82784 9.615838,5.91816 16.819148,15.19419 19.740848,26.26933 4.1671,13.5132 8.03204,27.11898 11.2667,40.88897 -0.14773,-13.68695 8.33178,-18.95798 16.52755,-27.04508 z"
         style="fill:#5d1d1f;fill-opacity:1;stroke:#190f0d;stroke-width:0.5;stroke-linecap:round;stroke-linejoin:round;stroke-miterlimit:4;stroke-opacity:1;stroke-dasharray:none" />
      <path
         inkscape:connector-curvature="0"
         id="path3078"
         d="M 56.407854,929.71308 C 37.849386,937.55549 20.836209,948.42037 3.7961042,959.05064 2.4191375,943.69668 16.577892,935.83347 23.670327,924.38041 c 8.626529,-12.88057 26.040292,-12.22124 39.867852,-13.29547 9.063937,-0.38022 29.830998,2.34644 29.55828,5.93026 -12.328603,3.92173 -24.74462,7.69313 -36.688605,12.69788 z"
         style="fill:#b1bb78;fill-opacity:1;stroke:#190f0d;stroke-width:0.5;stroke-linecap:round;stroke-linejoin:round;stroke-miterlimit:4;stroke-opacity:1;stroke-dasharray:none" />
      <g
         style="stroke:#190f0d;stroke-opacity:1"
         id="g3927">
        <path
           style="fill:#655249;fill-opacity:1;stroke:#190f0d;stroke-width:0.5;stroke-linecap:round;stroke-linejoin:round;stroke-miterlimit:4;stroke-opacity:1;stroke-dasharray:none"
           d="M 134.95872,908.30536 C 123.0166,870.52656 95.440623,835.95127 57.120838,822.94978 44.66005,820.47243 32.29632,814.16975 19.429466,816.22288 c -6.161112,1.44518 -18.56957166,14.26993 -4.433471,11.52072 14.621968,3.19894 25.117505,15.36283 39.458204,19.52934 27.33255,10.86643 49.978591,30.79003 69.751831,52.12029 3.35606,3.23102 6.90269,6.28077 10.75269,8.91213 z"
           id="path3090"
           inkscape:connector-curvature="0" />
        <path
           style="fill:#27221d;fill-opacity:1;stroke:#190f0d;stroke-width:0.5;stroke-linecap:round;stroke-linejoin:round;stroke-miterlimit:4;stroke-opacity:1;stroke-dasharray:none"
           d="M 133.31448,908.82683 C 113.88591,886.5241 93.865591,862.42722 65.985329,850.65512 c -5.38784,-1.85984 -17.737726,-6.6001 -6.876295,0.11906 12.736464,8.65317 23.252529,19.82778 32.402657,32.10764 12.027999,9.1273 22.528619,25.18353 36.294399,29.45839 2.0127,-0.87123 3.82852,-2.12006 5.50839,-3.51338 z"
           id="path3088"
           inkscape:connector-curvature="0" />
      </g>
      <path
         inkscape:connector-curvature="0"
         id="path3084"
         d="m 178.40079,927.61348 c 11.72228,-0.15346 18.80772,-11.80696 29.60215,-15.0532 15.62921,-8.84281 33.93621,-1.76224 50.80544,-3.0089 10.33322,-0.66218 23.75191,7.52006 31.95311,4.13387 -4.89211,-16.21771 -20.61835,-26.6212 -37.23549,-27.14021 -18.78352,-1.01059 -37.78307,3.16784 -55.31229,9.72342 -9.80834,5.79631 -28.96835,15.74555 -28.16011,25.76332 2.36832,2.30429 4.93462,5.00357 8.34719,5.5817 z"
         style="fill:#78894c;fill-opacity:1;stroke:#190f0d;stroke-width:0.5;stroke-linecap:round;stroke-linejoin:round;stroke-miterlimit:4;stroke-opacity:1;stroke-dasharray:none" />
      <g
         style="stroke:#190f0d;stroke-opacity:1"
         transform="translate(-0.50083472,-0.50083472)"
         id="g3931">
        <path
           style="fill:#765149;fill-opacity:1;stroke:#190f0d;stroke-width:0.52042383;stroke-linecap:round;stroke-linejoin:round;stroke-miterlimit:4;stroke-opacity:1;stroke-dasharray:none"
           d="m 164.23332,897.7983 c 10.15036,-15.78807 24.49232,-28.55067 41.56711,-36.41963 22.36424,-11.82421 48.58928,-12.72269 73.27966,-11.36218 9.96606,-1.35077 14.76027,29.45568 4.54087,14.96712 -10.75103,-7.62451 -24.23398,1.78535 -36.36766,0.97305 -22.50462,3.65495 -44.67078,14.04396 -59.50191,31.7374 -16.31899,14.44416 -33.69153,27.64627 -50.87001,41.0422 8.85427,-13.81576 17.69126,-27.66636 27.35194,-40.93796 z"
           id="path3060"
           inkscape:connector-curvature="0" />
        <path
           style="fill:#2a1c1a;fill-opacity:1;stroke:#190f0d;stroke-width:0.5;stroke-linecap:round;stroke-linejoin:round;stroke-miterlimit:4;stroke-opacity:1;stroke-dasharray:none"
           d="m 140.0316,938.24306 c 8.48922,-16.82345 18.6472,-33.7091 35.2469,-43.64245 19.79071,-14.29023 42.17959,-26.08526 66.9371,-27.90337 8.82844,-1.15846 22.77528,-3.68606 27.94035,-4.29795 -22.59827,6.6745 -46.85959,10.60446 -66.93838,23.59939 -15.5605,9.91785 -18.20031,30.95105 -33.63672,40.72518 -10.60465,0.9647 -20.09187,7.03558 -29.54925,11.5192 z"
           id="path3056"
           inkscape:connector-curvature="0" />
      </g>
      <path
         sodipodi:nodetypes="ccccc"
         inkscape:connector-curvature="0"
         id="path3109"
         d="m 115.72399,961.28442 c -9.45178,-6.43661 -16.345728,-11.87516 -34.271872,-6.24168 -12.203851,1.52974 -19.631478,6.76153 -13.403172,-4.68552 8.594361,-13.03146 28.857753,-16.48687 39.829384,-4.3942 3.17855,2.33007 14.31991,11.96705 7.84566,15.3214 z"
         style="fill:#86895d;fill-opacity:1;stroke:#190f0d;stroke-width:0.5;stroke-linecap:round;stroke-linejoin:round;stroke-miterlimit:4;stroke-opacity:1;stroke-dasharray:none" />
      <path
         inkscape:connector-curvature="0"
         id="path3062"
         d="m 102.125,919.54968 c -14.936838,3.11183 -28.351591,11.45192 -43.087063,15.67697 13.138183,-0.22409 28.143133,-5.87686 38.341608,5.03326 5.400015,5.44714 22.178545,13.14572 17.966145,20.14692 -10.81242,-5.2201 1.0188,3.18996 3.81032,6.44985 8.78086,10.8787 3.8942,-2.08694 5.39367,-9.38119 -0.60587,-11.3965 -13.43083,-17.14566 -22.28123,-22.00925 -6.008318,-1.98773 14.30984,-0.059 17.84541,4.28089 13.82845,2.27366 -2.09175,-15.40697 -7.28006,-18.39568 -3.0214,-2.34672 -7.19852,-1.31607 -10.7088,-1.80177 z"
         style="fill:#4f4949;fill-opacity:1;stroke:#190f0d;stroke-width:0.5;stroke-linecap:round;stroke-linejoin:round;stroke-miterlimit:4;stroke-opacity:1;stroke-dasharray:none" />
      <path
         inkscape:connector-curvature="0"
         id="path3054"
         d="m 123.53548,913.47763 c -12.93377,-1.19232 -19.81317,10.66439 -5.32681,14.84666 11.76112,7.06863 -7.46492,12.45887 -10.96934,2.46928 -5.74275,-5.95924 -24.77584,-3.53159 -24.703749,-1.57627 13.24409,3.97742 29.150049,7.4514 37.171569,19.69701 0.88504,9.17203 5.19831,4.34562 8.92887,2.58509 2.8614,13.78325 21.90942,10.7297 25.85323,-0.43953 3.94232,2.99175 2.18784,10.91624 5.8449,15.56531 1.33941,12.20418 8.95853,-17.47688 19.38052,-11.9651 11.56674,-0.85478 -9.10799,-2.17006 -13.28649,-0.96049 -4.89603,-7.96303 18.75457,-14.94646 10.07255,-21.43671 -5.64813,-6.85885 -18.43875,-17.70704 -27.74559,-6.70803 -6.24871,2.53568 -11.79161,23.76097 -7.32036,8.38771 5.85043,-7.09355 22.24092,-30.02157 1.26019,-24.85816 -7.49321,-0.33813 -12.47059,1.46154 -19.15949,4.39323 z"
         style="fill:#190f0d;fill-opacity:1;stroke:none" />
      <path
         inkscape:connector-curvature="0"
         id="path3066"
         d="m 128.94296,949.67509 c 9.05772,11.01766 22.79934,7.48064 29.54925,-3.50584 10.51623,10.54572 1.23808,27.10313 2.16571,40.08884 -1.88469,14.32111 -3.90678,29.51291 -13.81818,40.76581 -5.52288,8.6131 -17.5204,-11.4943 -19.11269,-18.6711 -6.66092,-17.27949 -3.15574,-36.08453 -5.01774,-54.00763 0.18121,-3.07601 3.4389,-4.90827 6.23365,-4.67008 z"
         style="fill:#7c924c;fill-opacity:1;stroke:#190f0d;stroke-width:0.5;stroke-linecap:round;stroke-linejoin:round;stroke-miterlimit:4;stroke-opacity:1;stroke-dasharray:none" />
      <path
         inkscape:connector-curvature="0"
         id="path3074"
         d="m 164.66287,955.49667 c 13.1679,1.14378 28.33808,1.30489 40.49404,10.0044 14.46444,7.12686 26.33436,18.05717 37.42213,29.53256 7.78763,14.14407 23.3229,-2.51688 14.27588,-12.55371 -12.44164,-22.44131 -33.46871,-42.95984 -60.11513,-45.45472 -11.33075,1.85238 -30.43366,-0.95067 -33.1216,14.05404 -0.17121,1.5225 0.0608,3.18313 1.04468,4.41743 z"
         style="fill:#869c55;fill-opacity:1;stroke:#190f0d;stroke-width:0.5;stroke-linecap:round;stroke-linejoin:round;stroke-miterlimit:4;stroke-opacity:1;stroke-dasharray:none" />
      <path
         inkscape:connector-curvature="0"
         id="path3072"
         d="m 159.1751,923.67709 c 4.11012,12.23386 21.42729,9.9952 28.16777,20.63879 10.1355,10.65988 20.42859,21.16842 31.43156,30.94719 8.48717,-10.51449 10.55312,-25.94361 2.61507,-37.35438 -9.65344,-17.04501 -31.47698,-28.09989 -50.35208,-19.56164 -3.78557,1.19872 -9.95187,1.2605 -11.86232,5.33004 z"
         style="fill:#a1ae66;fill-opacity:1;stroke:#190f0d;stroke-width:0.5;stroke-linecap:round;stroke-linejoin:round;stroke-miterlimit:4;stroke-opacity:1;stroke-dasharray:none" />
      <path
         inkscape:connector-curvature="0"
         id="path3098"
         d="m 159.94448,899.67071 c 14.99383,-9.19421 14.09708,-30.30833 27.20176,-41.54569 11.52949,-11.20297 21.08529,-27.55536 38.17203,-30.44766 -5.88984,-18.04912 -25.62347,-2.58464 -34.72984,4.21995 -18.86797,15.29154 -34.50786,35.0981 -42.00696,58.41878 -8.43257,9.96828 2.52278,13.33422 11.36301,9.35462 z"
         style="fill:#825b54;fill-opacity:1;stroke:#190f0d;stroke-width:0.59657222;stroke-linecap:round;stroke-linejoin:round;stroke-miterlimit:4;stroke-opacity:1;stroke-dasharray:none" />
      <g
         style="stroke:#190f0d;stroke-opacity:1"
         id="g3935">
        <path
           style="fill:#461919;fill-opacity:1;stroke:#190f0d;stroke-width:0.5;stroke-linecap:round;stroke-linejoin:round;stroke-miterlimit:4;stroke-opacity:1;stroke-dasharray:none"
           d="m 147.37869,919.79271 c -14.97008,-3.46283 -21.27798,-18.78578 -19.83324,-32.85277 0.25661,-12.54507 6.50453,-28.28482 21.83658,-25.7449 9.00028,1.30872 13.73193,16.7625 21.18089,14.1208 0.92738,-6.57442 10.41194,-23.85759 3.88744,-8.26713 -7.40659,14.1926 -7.31734,32.03952 -18.38662,44.02767 -2.76061,3.03521 -5.67185,5.93244 -8.68505,8.71633 z"
           id="path3058"
           inkscape:connector-curvature="0" />
        <path
           style="fill:#a7795c;fill-opacity:1;stroke:#190f0d;stroke-width:0.5;stroke-linecap:round;stroke-linejoin:round;stroke-miterlimit:4;stroke-opacity:1;stroke-dasharray:none"
           d="m 149.95086,862.21062 c 7.07447,0.46504 14.17008,1.07912 20.70946,-2.2287 4.61204,-1.5893 10.31184,-5.47119 5.45012,1.66606 -2.76548,5.59862 -5.47323,11.22269 -7.6287,17.09018 -5.17834,-5.81267 -9.17546,-13.08163 -16.95165,-15.69148 -0.52641,-0.27868 -1.05282,-0.55737 -1.57923,-0.83606 z"
           id="path3096"
           inkscape:connector-curvature="0" />
      </g>
      <path
         inkscape:connector-curvature="0"
         id="path3080"
         d="m 126.77572,913.90476 c -15.57277,2.49079 -27.161691,13.41717 -39.71151,21.83916 -13.034888,6.05955 -29.69068,13.28986 -32.925642,28.87631 -0.689516,13.23067 -5.267714,-10.15098 -5.985094,-14.86247 -4.015168,-17.86588 7.418535,-33.667 22.21497,-42.32083 13.195458,-8.42141 32.362796,-17.48036 46.266776,-5.33635 4.0717,3.27402 7.95254,6.96497 10.1405,11.80418 z"
         style="fill:#93975c;fill-opacity:1;stroke:#190f0d;stroke-width:0.5;stroke-linecap:round;stroke-linejoin:round;stroke-miterlimit:4;stroke-opacity:1;stroke-dasharray:none" />
    </g>
  </g>
</svg>
