<?xml version="1.0" encoding="UTF-8" standalone="no"?>
<!-- Created with Inkscape (http://www.inkscape.org/) -->

<svg
   xmlns:dc="http://purl.org/dc/elements/1.1/"
   xmlns:cc="http://creativecommons.org/ns#"
   xmlns:rdf="http://www.w3.org/1999/02/22-rdf-syntax-ns#"
   xmlns:svg="http://www.w3.org/2000/svg"
   xmlns="http://www.w3.org/2000/svg"
   xmlns:sodipodi="http://sodipodi.sourceforge.net/DTD/sodipodi-0.dtd"
   xmlns:inkscape="http://www.inkscape.org/namespaces/inkscape"
   width="149.92871mm"
   height="139.6188mm"
   viewBox="0 0 149.92871 139.6188"
   version="1.1"
   id="svg8"
   inkscape:version="0.92.1 r15371"
   sodipodi:docname="clothesiron.svg">
  <defs
     id="defs2" />
  <sodipodi:namedview
     id="base"
     pagecolor="#ffffff"
     bordercolor="#666666"
     borderopacity="1.0"
     inkscape:pageopacity="0.0"
     inkscape:pageshadow="2"
     inkscape:zoom="0.16493849"
     inkscape:cx="572.2816"
     inkscape:cy="289.89125"
     inkscape:document-units="mm"
     inkscape:current-layer="layer1"
     showgrid="false"
     fit-margin-top="0"
     fit-margin-left="0"
     fit-margin-right="0"
     fit-margin-bottom="0"
     inkscape:window-width="1366"
     inkscape:window-height="706"
     inkscape:window-x="-8"
     inkscape:window-y="-8"
     inkscape:window-maximized="1" />
  <metadata
     id="metadata5">
    <rdf:RDF>
      <cc:Work
         rdf:about="">
        <dc:format>image/svg+xml</dc:format>
        <dc:type
           rdf:resource="http://purl.org/dc/dcmitype/StillImage" />
        <dc:title></dc:title>
      </cc:Work>
    </rdf:RDF>
  </metadata>
  <g
     inkscape:label="Layer 1"
     inkscape:groupmode="layer"
     id="layer1"
     transform="translate(177.49653,-85.914902)">
    <path
       style="fill:#000000;stroke-width:0.35277778"
       d="m -55.624467,224.38718 c -0.49718,-0.63058 -1.02226,-1.34457 -1.16683,-1.58664 -0.3456,-0.57866 2.44188,-3.81852 3.75235,-4.36133 1.49003,-0.61719 2.17113,-2.43049 0.91293,-2.43049 -0.61861,0 -3.54679,2.21618 -5.09677,3.85747 l -1.47738,1.56442 -1.27337,-1.20108 c -0.70035,-0.66058 -1.27336,-1.32937 -1.27336,-1.48619 0,-0.27923 2.85302,-3.03769 4.57343,-4.42182 0.76295,-0.61383 0.81951,-0.80854 0.46247,-1.59215 -0.22373,-0.49103 -0.75982,-1.00483 -1.19131,-1.14178 -0.69167,-0.21953 -0.71509,-0.28786 -0.19789,-0.5773 0.32265,-0.18056 0.58663,-0.63044 0.58663,-0.99972 0,-0.8936 0.74372,-2.53372 1.40681,-3.10246 0.29341,-0.25167 1.54767,-0.94302 2.78724,-1.53636 1.98102,-0.94824 2.54461,-1.06235 4.65712,-0.94299 1.8766,0.10604 2.58609,0.30747 3.23703,0.919 1.50873,1.41737 2.78466,0.88836 5.83139,-2.41773 1.14912,-1.24693 2.59962,-2.82277 3.22334,-3.50186 1.67178,-1.82021 2.41422,-3.48201 2.69099,-6.02324 0.1358,-1.24687 0.38726,-2.44481 0.55879,-2.66208 0.18267,-0.23137 0.14354,-1.40061 -0.0945,-2.82222 -0.22349,-1.33495 -0.44849,-3.17728 -0.50001,-4.09406 -0.0522,-0.92951 -0.42093,-2.19639 -0.83346,-2.86387 -0.40688,-0.65834 -0.73977,-1.6148 -0.73977,-2.12548 0,-0.7431 -0.16789,-0.9285 -0.8408,-0.9285 -0.96306,0 -1.37614,0.96686 -0.83002,1.94273 0.43633,0.77968 0.10165,5.76477 -0.42219,6.28861 -0.20704,0.20704 -0.37644,0.57227 -0.37644,0.81161 0,0.55994 -2.13833,4.00983 -2.4854,4.00983 -0.1448,0 -0.78585,0.83344 -1.42455,1.85208 -1.86093,2.9679 -3.5152,4.17336 -6.95768,5.07001 -1.08258,0.28198 -2.14078,0.65581 -2.35155,0.83073 -0.50983,0.42312 -3.80978,0.53455 -6.00721,0.20284 -2.69631,-0.40701 -6.54371,-1.76124 -8.4645,-2.97937 -2.27313,-1.44157 -3.02039,-1.48012 -2.34251,-0.12081 0.42839,0.85901 1.15346,2.98391 1.22344,3.58544 0.0322,0.27687 -0.49705,0.8618 -1.17615,1.29984 -0.6791,0.43803 -1.50985,1.04225 -1.84612,1.3427 -0.33626,0.30045 -1.96613,1.42928 -3.62192,2.50852 -1.6558,1.07924 -3.55797,2.44291 -4.22706,3.03037 -0.66908,0.58747 -2.45234,1.70659 -3.962792,2.48693 -1.510453,0.78036 -3.143151,1.72394 -3.628221,2.09687 -1.763091,1.35548 -4.500552,2.95132 -8.819444,5.1414 -2.425348,1.22989 -4.569715,2.36329 -4.765256,2.51867 -1.281042,1.01798 -8.01286,4.0142 -9.34586,4.15969 -1.35004,0.14734 -4.36607,-0.19368 -10.23055,-1.15675 -0.6791,-0.11153 -1.39347,-0.32438 -1.5875,-0.47301 -0.19403,-0.14863 -0.90841,-0.37332 -1.5875,-0.49931 -5.07122,-0.94086 -18.08738,-4.12461 -19.57917,-4.78907 -0.77611,-0.34569 -1.72861,-0.71255 -2.11667,-0.81527 -0.38805,-0.1027 -2.05493,-0.69539 -3.70416,-1.31708 -6.72173,-2.5338 -7.18879,-2.7296 -12.25768,-5.13891 -1.79402,-0.85272 -3.31575,-1.5504 -3.38162,-1.5504 -0.0659,0 -1.91495,-1.18848 -4.10905,-2.64106 -4.2259,-2.79771 -9.46027,-7.34817 -10.63036,-9.24142 -0.68803,-1.11325 -1.13283,-4.23301 -0.6464,-4.53364 0.13566,-0.0838 0.43499,-0.9092 0.66518,-1.83413 0.47414,-1.90519 3.5186,-8.15013 5.42972,-11.13767 1.16095,-1.81486 5.36204,-6.17051 6.36137,-6.59541 0.22817,-0.097 1.28481,-0.8329 2.3481,-1.63529 1.06328,-0.8024 2.29042,-1.56716 2.72699,-1.69947 0.97673,-0.29603 0.97971,-0.46038 0.0464,-2.56484 -0.41103,-0.92682 -0.94949,-2.16138 -1.19657,-2.74346 -0.24708,-0.58208 -0.71929,-1.69333 -1.04936,-2.46944 -0.33006,-0.77612 -0.91548,-2.04612 -1.30092,-2.82223 -0.38545,-0.77611 -0.9133,-2.20486 -1.17301,-3.175 -0.61496,-2.29715 -2.58599,-7.50371 -3.67263,-9.70139 -0.1439,-0.29104 -0.77665,-0.79229 -1.40611,-1.11389 -0.62945,-0.3216 -1.44919,-0.8605 -1.82163,-1.19756 -0.97173,-0.8794 -2.81162,-3.8361 -2.9889,-4.80316 -0.083,-0.45259 -0.28281,-1.53726 -0.44407,-2.41039 -0.36246,-1.96233 -0.24696,-5.49267 0.23704,-7.24557 0.82917,-3.00302 3.57029,-5.6092 6.95764,-6.61514 2.4337,-0.72273 5.00225,-0.2402 7.49415,1.40784 l 1.88692,1.24795 3.93391,-0.59222 c 2.16365,-0.32571 4.80704,-0.81183 5.87419,-1.08026 3.0291,-0.76193 11.40679,-1.35205 15.69861,-1.10579 5.89776,0.33839 6.12141,0.37802 13.05278,2.31262 4.74259,1.32369 6.44071,1.35426 9.5712,0.17232 2.78323,-1.05082 5.29965,-1.15883 7.3211,-0.31421 2.49725,1.04342 3.30046,1.97523 4.475327,5.1919 0.995454,2.72544 1.406574,7.68473 0.743772,8.97197 -0.818663,1.58995 -1.111483,2.56024 -1.419648,4.70415 -0.181279,1.26118 -0.279609,2.34724 -0.218511,2.41346 0.402145,0.43586 3.692042,-1.85595 3.692042,-2.57195 0,-0.42291 2.553698,-4.2245 3.662758,-5.4526 0.604858,-0.66978 1.938598,-2.09246 2.963869,-3.16152 l 1.864128,-1.94373 -1.08258,-1.50747 c -0.595419,-0.8291 -1.565081,-2.58511 -2.154806,-3.90224 -0.589721,-1.31713 -1.497044,-3.34728 -2.01627,-4.51145 -0.519221,-1.16417 -1.0339,-2.19604 -1.143726,-2.29306 -0.436609,-0.38567 -2.659532,-4.52221 -3.412409,-6.35 -0.439569,-1.06715 -0.830598,-2.8134 -0.868956,-3.88055 -0.09865,-2.74456 0.723562,-7.41413 1.5001,-8.51947 0.361177,-0.51412 0.760292,-1.347553 0.886922,-1.852087 0.12663,-0.504534 0.379875,-0.917334 0.562769,-0.917334 0.182894,0 0.550922,-0.515937 0.817834,-1.146528 0.502045,-1.18609 2.316145,-3.044023 5.20259,-5.328294 0.916817,-0.725552 1.876722,-1.528965 2.133121,-1.785361 0.256395,-0.256397 0.815957,-0.577193 1.243471,-0.712881 0.427514,-0.135687 0.777296,-0.387328 0.777296,-0.559201 0,-0.308501 2.184136,-1.424974 4.586111,-2.344299 0.679099,-0.259916 2.345969,-0.569548 3.704169,-0.68807 2.97043,-0.259215 5.62366,0.400592 8.92013,2.218266 2.76461,1.524408 4.25594,2.999089 5.70358,5.639911 1.0808,1.971639 1.11973,2.178688 0.9016,4.794652 -0.154,1.846916 -0.10563,2.734026 0.14906,2.734026 0.48534,0 0.49395,2.00276 0.01,2.30193 -0.20192,0.12479 -0.27484,0.51767 -0.16204,0.87307 0.1128,0.3554 0.0399,0.74828 -0.16204,0.87308 -0.20191,0.12479 -0.36711,0.51287 -0.36711,0.8624 0,0.34953 -0.37237,1.18423 -0.8275,1.85489 -0.45512,0.67066 -0.93056,1.63003 -1.05653,2.13194 -0.12597,0.5019 -0.84449,1.69117 -1.59672,2.64281 -0.75223,0.95164 -1.47357,2.06383 -1.60297,2.47154 -0.1294,0.40771 -0.46725,0.93382 -0.75078,1.16912 -0.28353,0.23531 -0.5155,0.63552 -0.5155,0.88934 0,0.65728 -1.38971,2.84831 -2.73403,4.3105 -0.63059,0.68588 -1.14653,1.44139 -1.14653,1.67891 0,0.23752 -0.23812,0.62948 -0.52917,0.87103 -0.29104,0.24154 -0.52916,0.72934 -0.52916,1.08399 0,0.35466 -0.21122,0.77179 -0.46938,0.92695 -0.25816,0.15516 -1.0858,1.11555 -1.83919,2.1342 -0.7534,1.01864 -1.47747,1.85208 -1.60905,1.85208 -0.13157,0 -0.33618,0.38629 -0.45468,0.85843 -0.1185,0.47214 -0.52155,0.95558 -0.89567,1.07433 -0.37608,0.11936 -0.78019,0.67105 -0.9038,1.23385 -0.12297,0.55989 -0.4515,1.20713 -0.73008,1.43832 -0.78307,0.6499 -0.604057,1.91629 0.50599,3.57947 1.22297,1.83236 3.92641,7.0634 3.92641,7.59742 0,0.21043 0.635,1.18594 1.41111,2.16779 0.77612,0.98185 1.41112,1.89471 1.41112,2.02858 0,0.13386 0.79375,1.41326 1.76388,2.84311 0.97014,1.42984 1.76389,2.75008 1.76389,2.93386 0,0.57792 1.5253,1.33196 3.175,1.56961 1.78974,0.25781 3.44526,0.84156 6.52639,2.30126 1.16417,0.55153 2.98979,1.34957 4.05695,1.77343 1.79139,0.71151 7.47567,4.23053 8.29028,5.13235 0.19402,0.2148 1.295,1.00103 2.44662,1.74718 1.53739,0.99609 2.77091,1.47436 4.64154,1.79965 2.97084,0.51662 4.90075,1.42068 6.91246,3.23815 2.00065,1.80746 3.01651,3.54484 4.14503,7.08906 0.98354,3.0889 1.14512,5.76831 0.53214,8.82385 -0.14032,0.69943 -0.28564,1.58919 -0.32294,1.97725 -0.17674,1.83856 -1.31634,6.96343 -1.8125,8.15091 -0.6364,1.5231 -1.89398,3.29819 -3.59778,5.07825 -0.64999,0.6791 -1.66004,1.89202 -2.24455,2.69538 -0.5845,0.80337 -1.84206,1.96565 -2.79457,2.58286 -1.74173,1.1286 -2.22075,2.20563 -1.36264,3.06374 0.58581,0.58581 -0.18381,4.39745 -1.20649,5.9753 -2.15532,3.32536 -4.82408,5.43828 -6.86893,5.43828 -0.96806,0 -1.46601,-0.15585 -1.46601,-0.45884 0,-0.25235 -0.18524,-0.85136 -0.41165,-1.33112 l -0.41165,-0.87228 -1.9207,1.86029 c -1.05639,1.02315 -2.02209,1.86028 -2.14599,1.86027 -0.12391,-1e-5 -0.63207,-0.51594 -1.12925,-1.14653 z m 7.31856,-1.74183 c -0.11262,-0.28142 -0.19621,-0.19783 -0.21314,0.21314 -0.0153,0.37189 0.0681,0.58025 0.18529,0.46302 0.11722,-0.11722 0.12975,-0.4215 0.0278,-0.67616 z m -4.67956,-0.14798 c 1.02639,-0.39387 0.57308,-0.68789 -0.85113,-0.55208 -0.77503,0.0739 -1.32129,0.27655 -1.2139,0.4503 0.22469,0.36356 1.25101,0.41414 2.06503,0.10178 z m 7.78996,-0.8442 c 0.3621,-0.40012 0.46213,-0.70556 0.23107,-0.70556 -0.22411,0 -0.40746,0.15875 -0.40746,0.35278 0,0.19403 -0.30813,0.35278 -0.68473,0.35278 -0.37661,0 -0.78285,0.15875 -0.90277,0.35277 -0.40889,0.66161 1.12319,0.35519 1.76389,-0.35277 z m -62.335513,-0.57983 c 0.69345,-0.18574 0.7804,-0.37777 0.59682,-1.3181 -0.1182,-0.60538 -0.35205,-1.41818 -0.51969,-1.80624 -0.16763,-0.38806 -0.39805,-1.13621 -0.51204,-1.66256 -0.25707,-1.18699 -1.27509,-1.48847 -6.90319,-2.04431 -4.22567,-0.41734 -11.20685,-1.67176 -16.05139,-2.8842 -1.55222,-0.38848 -3.45722,-0.82861 -4.23333,-0.97807 -0.77611,-0.14947 -1.88736,-0.46365 -2.46945,-0.69819 -0.58208,-0.23454 -1.82597,-0.57224 -2.7642,-0.75045 -0.93823,-0.17821 -2.44635,-0.69523 -3.35139,-1.14894 -0.90504,-0.45371 -2.15063,-0.92536 -2.76798,-1.04811 -0.61736,-0.12275 -2.36361,-0.80307 -3.88056,-1.51182 -1.51695,-0.70875 -3.63122,-1.68125 -4.69837,-2.16112 -1.06715,-0.47987 -2.89278,-1.32413 -4.05694,-1.87614 -2.9064,-1.3781 -3.75695,-1.59938 -3.49181,-0.90844 0.25159,0.65562 -1.96454,1.83631 -2.82613,1.50569 -0.95824,-0.36771 -0.64313,-0.97706 0.37333,-0.72195 0.65772,0.16508 0.86056,0.11482 0.68474,-0.16966 -0.13741,-0.22233 -0.45398,-0.40423 -0.7035,-0.40423 -0.24952,0 -0.741,-0.3175 -1.09219,-0.70556 -0.35118,-0.38805 -0.83881,-0.70555 -1.08361,-0.70555 -0.2448,0 -0.51596,-0.19844 -0.60258,-0.44097 -0.0866,-0.24254 -0.28672,-0.32026 -0.44466,-0.17271 -0.15793,0.14754 0.15074,0.72532 0.68594,1.28396 0.7193,0.75078 0.85061,1.07186 0.50345,1.23104 -0.38658,0.17726 -0.38385,0.25434 0.0154,0.43583 0.26679,0.12127 0.80617,0.54158 1.19862,0.93403 1.24235,1.24235 16.00435,8.35839 17.36631,8.37145 0.19403,0.002 0.82903,0.25228 1.41111,0.55649 1.32849,0.69429 7.05394,2.83935 8.46667,3.17206 0.58208,0.13708 2.01083,0.60625 3.175,1.04259 1.16417,0.43635 3.06917,0.98705 4.23333,1.22378 1.16417,0.23673 3.30729,0.74227 4.7625,1.12343 5.37781,1.40857 7.31907,1.84145 10.75973,2.39931 2.14292,0.34745 5.97829,0.90022 7.05555,1.01687 0.19403,0.021 0.71805,-0.0596 1.16449,-0.17921 z m 5.10735,-2.04092 c 3.282495,-1.55858 9.398706,-5.01492 10.308718,-5.82558 0.388055,-0.34569 1.627254,-1.0426 2.75378,-1.54868 1.126522,-0.50609 2.475897,-1.25319 2.998611,-1.66023 1.205251,-0.93853 7.256924,-4.85446 8.887884,-5.7512 1.44973,-0.79708 4.23101,-2.64744 6.04624,-4.02251 0.70606,-0.53484 1.57918,-1.15444 1.94028,-1.37688 0.5282,-0.32538 0.57034,-0.49433 0.21557,-0.8643 -0.24254,-0.25293 -0.44098,-0.7608 -0.44098,-1.12861 0,-0.75627 -1.28821,-2.71793 -1.78485,-2.71793 -0.17914,0 -1.07913,0.5751 -1.99997,1.27799 -2.14894,1.64033 -5.88187,3.48065 -5.60695,2.76421 0.10858,-0.28293 0.0436,-0.51442 -0.1443,-0.51442 -0.3103,0 -0.481146,0.49382 -0.38995,1.12711 0.0451,0.31308 -1.469877,1.39238 -3.489565,2.48605 -2.413564,1.30696 -4.361705,2.42925 -4.752467,2.73781 -0.194027,0.15321 -1.726596,0.99493 -3.405709,1.8705 -1.679113,0.87557 -3.899493,2.16204 -4.93418,2.85884 -1.034687,0.6968 -2.141742,1.26691 -2.460124,1.26691 -0.318379,0 -0.787044,0.25083 -1.041474,0.5574 -0.254431,0.30657 -1.947134,1.28457 -3.761564,2.17334 -1.81443,0.88876 -3.38111,1.74885 -3.48152,1.9113 -0.16057,0.25982 1.64455,5.57488 1.89669,5.58469 0.054,0.002 1.24465,-0.54051 2.64583,-1.20581 z m 55.640663,-1.4362 c 0,-0.29104 -0.14938,-0.52917 -0.33196,-0.52917 -0.44484,0 -0.76344,0.5509 -0.4816,0.83274 0.3973,0.3973 0.81356,0.24197 0.81356,-0.30357 z m -8.12901,-1.78458 c 0.34827,-0.34108 0.3984,-0.61908 0.15544,-0.86204 -0.24296,-0.24296 -0.75004,-0.001 -1.57238,0.74915 l -1.21377,1.10777 1.05833,-0.24573 c 0.58208,-0.13515 1.28965,-0.47226 1.57238,-0.74915 z m 4.72722,-1.39042 c 0.29105,-0.29104 0.67487,-0.52917 0.85295,-0.52917 0.72365,0 2.54884,-1.14273 2.54884,-1.5958 0,-0.26719 0.27781,-0.64761 0.61736,-0.84538 0.51329,-0.29897 0.4281,-0.36139 -0.50539,-0.37031 -0.81856,-0.008 -1.18343,0.18044 -1.34669,0.69483 -0.2234,0.70387 -0.88195,0.99207 -0.88195,0.38597 0,-0.17578 -0.39563,-0.13609 -0.87919,0.0882 -0.48355,0.22428 -0.88043,0.54903 -0.88194,0.72167 -0.001,0.17264 -0.26513,0.50574 -0.58582,0.74023 -0.32068,0.23449 -0.47006,0.60918 -0.33196,0.83264 0.33883,0.54824 0.7598,0.51113 1.39379,-0.12287 z m 4.10735,0.23519 c 0,-0.50581 -0.40076,-0.7238 -0.94602,-0.51457 -0.42732,0.16398 -0.43725,0.25633 -0.0537,0.49946 0.60324,0.38239 0.99972,0.38838 0.99972,0.0151 z m -9.17223,-1.82269 c 0,-0.19403 -0.16812,-0.35278 -0.37359,-0.35278 -0.20548,0 -0.27549,0.15875 -0.15557,0.35278 0.11991,0.19403 0.28803,0.35278 0.3736,0.35278 0.0856,0 0.15556,-0.15875 0.15556,-0.35278 z m -53.975003,-1.04636 c 0,-0.62553 -0.62703,-2.33992 -1.45417,-3.97593 -0.17035,-0.33692 -0.30971,-1.03734 -0.30971,-1.5565 0,-0.51915 -0.22844,-1.75162 -0.50763,-2.73881 -0.27919,-0.9872 -0.69517,-2.7474 -0.92441,-3.91157 -0.877,-4.45389 -1.90467,-6.17969 -3.97126,-6.66908 -1.38907,-0.32895 -1.14501,-1.40782 0.35138,-1.55328 1.25145,-0.12166 2.29563,0.57646 3.32814,2.22514 l 0.6628,1.05834 10e-4,-1.12357 c 0.002,-1.70443 0.48981,-2.66061 2.2609,-4.4317 1.67186,-1.67186 1.86208,-1.79024 7.38392,-4.59532 1.82315,-0.92615 3.599852,-1.99888 3.948231,-2.38384 0.622205,-0.68752 0.612115,-0.69578 -0.570131,-0.46649 -0.661946,0.12838 -1.33049,0.44704 -1.48565,0.70814 -0.15517,0.26109 -0.63935,0.47472 -1.07598,0.47472 -0.43662,0 -0.97152,0.17766 -1.18866,0.39481 -0.29123,0.29122 -0.8645,0.28213 -2.18503,-0.0347 -3.10645,-0.74523 -4.28448,-3.11121 -3.158,-6.34261 0.48129,-1.38066 0.0828,-1.76502 -1.83831,-1.77325 -1.37937,-0.006 -2.29675,-0.76938 -3.2931,-2.74062 -0.54872,-1.08562 -0.54302,-1.20015 0.10535,-2.11667 0.98028,-1.38568 1.19842,-2.38653 0.62405,-2.86322 -0.26932,-0.22351 -2.13821,-0.5674 -4.15311,-0.7642 -4.23295,-0.41345 -21.97053,-0.38788 -23.88887,0.0344 -0.71171,0.15667 -3.04026,0.62129 -5.17457,1.03248 -5.25732,1.01286 -5.04359,0.92558 -4.84249,1.97756 0.22401,1.17185 -0.53029,2.54523 -1.7421,3.17187 -1.32084,0.68304 -2.37782,0.62436 -3.74268,-0.2078 -1.4752,-0.89943 -3.26483,-0.89889 -4.40927,0.001 -0.49333,0.38806 -1.00165,0.70556 -1.1296,0.70556 -0.12794,0 -0.77518,0.51593 -1.4383,1.14652 -0.66313,0.63059 -1.64465,1.54757 -2.18117,2.03774 -1.6939,1.54753 -4.00854,4.35173 -4.70442,5.69944 -0.36899,0.71437 -0.8341,1.39983 -1.03367,1.52317 -0.50978,0.31506 -1.76389,2.84973 -1.76389,3.56497 0,0.32695 1.14799,1.76576 2.55108,3.19735 2.44601,2.49568 5.08443,4.36197 9.39173,6.64324 1.09904,0.58208 2.49758,1.41552 3.10787,1.85208 0.6103,0.43657 1.21333,0.79375 1.34009,0.79375 0.12675,0 2.24537,0.89585 4.70804,1.99078 2.46267,1.09494 5.35071,2.27191 6.41786,2.61551 1.06715,0.34361 3.03514,1.03525 4.37331,1.537 1.33817,0.50175 2.71408,0.91227 3.05756,0.91227 0.34349,0 1.3561,0.31359 2.25024,0.69687 0.89415,0.38327 2.37334,0.79825 3.28711,0.92217 0.91375,0.12392 1.98553,0.34856 2.38173,0.49919 0.94436,0.35905 7.57636,1.63115 11.81394,2.26607 1.84326,0.27618 3.74826,0.66263 4.23333,0.85878 0.48507,0.19615 1.71538,0.3667 2.73403,0.379 1.61383,0.0195 1.85208,-0.0669 1.85208,-0.67122 z m -10.97,-19.21345 c -0.0997,-0.0997 -1.44252,-0.25685 -2.98409,-0.34925 -4.07267,-0.24413 -7.79553,-0.82534 -10.21118,-1.59416 -1.16417,-0.37052 -3.06917,-0.94624 -4.23334,-1.27939 -3.33388,-0.95405 -4.03286,-1.21992 -7.40833,-2.81792 -1.74625,-0.8267 -4.04813,-1.89463 -5.11528,-2.37317 -2.38576,-1.06983 -6.36111,-4.02131 -6.91634,-5.13499 -0.22565,-0.45261 -0.58741,-1.00007 -0.80391,-1.21656 -0.53972,-0.53972 -0.50283,-1.76095 0.0473,-1.56687 0.24253,0.0856 0.41892,0.41628 0.39197,0.73495 -0.0269,0.31867 0.0689,0.57939 0.21307,0.57939 0.14414,0 0.64909,0.35719 1.12211,0.79375 1.83109,1.68995 6.03083,4.41909 7.26266,4.71955 0.53689,0.13095 1.92866,0.69784 3.09283,1.25976 5.01259,2.41949 17.49184,6.07695 22.10513,6.47867 2.97946,0.25944 5.29087,0.86736 5.13223,1.34982 -0.13646,0.41497 -1.38865,0.72263 -1.69486,0.41642 z m 15.92125,17.70217 c 4.18116,-2.15228 4.729327,-2.45892 4.927517,-2.75639 0.09755,-0.14642 1.208804,-0.80708 2.469445,-1.46814 4.628505,-2.4271 7.962741,-4.30594 8.994849,-5.0686 0.582084,-0.43011 2.010834,-1.24749 3.175,-1.81639 2.046337,-0.99998 4.062759,-2.17365 7.761112,-4.51738 0.97014,-0.6148 2.13339,-1.31133 2.585,-1.54786 0.53296,-0.27913 0.74632,-0.62494 0.608,-0.98541 -0.12516,-0.32616 0.0941,-0.84154 0.53121,-1.2488 1.01164,-0.94249 0.39087,-1.6172 -0.93295,-1.01403 -1.17011,0.53314 -2.03822,0.26792 -2.76783,-0.84561 -0.31288,-0.47751 -0.80844,-0.86819 -1.10127,-0.86819 -0.29281,0 -0.67054,-0.35719 -0.83938,-0.79375 -0.2397,-0.61976 -0.14055,-0.92736 0.45233,-1.40327 0.98885,-0.79376 1.2885,-0.77888 1.2885,0.0639 0,0.66404 0.0385,0.66725 1.0561,0.0882 1.07625,-0.61242 1.48343,-1.36788 0.5427,-1.00688 -0.28483,0.10929 -0.6117,0.0469 -0.72638,-0.13865 -0.37146,-0.60103 -1.45214,-0.35851 -2.42658,0.54457 -1.000363,0.92711 -1.78475,1.12016 -2.150006,0.52917 -0.119916,-0.19403 -0.681697,-0.35278 -1.248403,-0.35278 -1.189179,0 -3.866875,-0.99219 -3.866875,-1.43283 0,-0.34675 -2.279847,-1.03178 -3.443429,-1.03464 -0.438675,-10e-4 -1.47055,-0.30149 -2.293055,-0.66757 -2.166384,-0.9642 -3.991914,-0.70851 -6.081572,0.8518 -0.582083,0.43463 -1.440268,0.90659 -1.907081,1.0488 -1.256692,0.38284 -7.115222,3.95932 -8.235282,5.02742 -0.53358,0.50883 -0.97014,1.13356 -0.97014,1.3883 0,0.25474 -0.16268,0.46317 -0.36151,0.46317 -0.19883,0 -0.52658,0.43417 -0.72834,0.96484 -0.20176,0.53066 -0.61249,1.48252 -0.91274,2.11525 -0.36081,0.76036 -0.47051,1.59944 -0.32354,2.47475 0.50344,2.99841 1.39692,6.43375 2.39841,9.22176 0.72245,2.01119 1.00218,3.33181 0.87358,4.12426 -0.11768,0.72518 -0.0322,1.22974 0.22624,1.33513 0.22847,0.0932 0.43753,0.18195 0.46457,0.19727 0.027,0.0153 1.35985,-0.64684 2.9618,-1.47146 z m 55.726533,-0.27565 c 0,-0.45471 -1.00509,-0.86532 -1.32791,-0.5425 -0.13154,0.13154 -0.006,0.38684 0.27979,0.56735 0.68289,0.43187 1.04812,0.42321 1.04812,-0.0248 z m 1.67586,-1.13546 c -0.0807,-0.24253 -0.44612,-0.49897 -0.81192,-0.56985 -0.57541,-0.11151 -0.60132,-0.052 -0.19215,0.44097 0.55958,0.67425 1.21361,0.7582 1.00407,0.12888 z m 7.00782,-0.32256 c 3.05467,-2.29175 7.13117,-6.99018 8.51994,-9.8198 0.74078,-1.50932 2.08873,-7.61133 2.39977,-10.86347 0.19245,-2.01214 -0.36334,-5.79249 -1.05564,-7.18025 -0.30584,-0.61307 -0.55759,-1.28873 -0.55943,-1.50145 -0.002,-0.21273 -0.6228,-1.36312 -1.37989,-2.55644 -1.07564,-1.69539 -1.85732,-2.45144 -3.57596,-3.45871 -2.45554,-1.43915 -3.99762,-1.88472 -4.38025,-1.26562 -0.34124,0.55213 1.52533,3.18983 2.25728,3.18983 0.95774,0 3.29567,1.34294 4.14605,2.38155 0.43675,0.53341 0.8021,1.36671 0.8119,1.85178 0.01,0.48507 0.26566,1.5938 0.56857,2.46384 0.84242,2.41965 1.01533,3.74092 1.02114,7.80283 0.005,3.63996 -0.0835,4.05816 -1.4384,6.78345 -0.2731,0.5493 -0.49654,1.21103 -0.49654,1.47052 0,0.25948 -0.59531,1.10104 -1.32291,1.87012 -0.72761,0.76908 -2.58941,2.76641 -4.13734,4.4385 -1.54793,1.6721 -3.00699,3.04019 -3.24237,3.04019 -0.67693,0 -0.88873,0.62795 -0.4735,1.40382 0.48851,0.91279 1.07017,0.90018 2.33758,-0.0507 z m -8.41893,-1.08855 c -0.0807,-0.24253 -0.44612,-0.49897 -0.81192,-0.56986 -0.57541,-0.1115 -0.60132,-0.052 -0.19215,0.44098 0.55957,0.67425 1.21361,0.7582 1.00407,0.12888 z M -167.40398,196.12541 c -0.9014,-0.9014 -1.21164,-0.62903 -0.64681,0.56784 0.33193,0.70335 0.54167,0.8278 0.89748,0.53251 0.37625,-0.31227 0.3287,-0.52098 -0.25067,-1.10035 z m 118.151533,0.72932 c 4.11615,-1.4873 8.46666,-6.00993 8.46666,-8.80162 0,-1.00715 0.92431,-2.38328 1.60079,-2.38328 0.27634,0 0.58737,-0.35719 0.69118,-0.79375 0.32781,-1.37867 0.42717,-5.00512 0.15222,-5.55625 -0.4622,-0.92646 -1.73863,-4.31617 -1.73863,-4.61712 0,-0.15933 -0.37884,-0.71183 -0.84186,-1.22776 -0.46302,-0.51594 -1.0718,-1.19785 -1.35285,-1.51535 -0.93386,-1.055 -3.74595,-3.27995 -6.17067,-4.8823 -2.43112,-1.60658 -7.20338,-3.98525 -7.99549,-3.98525 -0.23888,0 -1.1853,-0.47625 -2.10315,-1.05833 -0.91785,-0.58208 -1.84223,-1.05833 -2.05419,-1.05833 -0.21195,0 -1.56709,-0.5761 -3.01142,-1.28022 -1.62011,-0.7898 -2.75182,-1.15445 -2.95435,-0.95192 -0.53099,0.53099 1.60513,3.55319 2.92141,4.13324 0.63865,0.28144 2.74868,1.2012 4.68896,2.04392 5.9701,2.59297 8.81926,4.40515 12.63563,8.03676 2.85454,2.71634 4.57737,5.85423 4.52508,8.24178 -0.0663,3.02905 -0.71745,5.37509 -1.94379,7.00383 -0.63112,0.8382 -1.34986,2.02559 -1.59722,2.63865 -0.50845,1.2602 -3.41059,3.22096 -6.11383,4.13069 -1.28511,0.43247 -2.05186,0.48484 -3.35139,0.22889 -2.31934,-0.45681 -3.6434,-0.87332 -4.9901,-1.56972 -1.08286,-0.55997 -1.20839,-0.55749 -2.23859,0.0442 -0.60028,0.35058 -1.10665,0.79617 -1.12527,0.9902 -0.0395,0.41175 2.9338,1.46388 5.96337,2.11018 2.79805,0.59691 6.40465,0.63275 7.9375,0.0789 z m -123.648623,-1.6599 c -0.11991,-0.19403 -0.0609,-0.35278 0.13104,-0.35278 0.63667,0 0.61925,-1.56817 -0.0323,-2.91041 -0.93433,-1.92467 -1.41224,-1.80025 -1.82196,0.47434 -0.17764,0.98615 -0.0646,1.47638 0.50844,2.20486 0.68917,0.87614 1.69387,1.35912 1.21482,0.58399 z m 110.339513,-3.35139 c 0.74541,-0.97014 1.64116,-2.39889 1.99056,-3.175 0.66312,-1.47296 1.89569,-7.69443 1.88705,-9.525 -0.0113,-2.40244 -0.69904,-5.13973 -1.50748,-6.00026 -0.45412,-0.4834 -0.70506,-0.8789 -0.55764,-0.8789 0.33298,0 -0.65273,-1.72313 -4.32783,-7.56554 -1.58003,-2.5118 -2.87278,-4.71146 -2.87278,-4.88812 0,-0.17666 -0.47625,-0.92252 -1.05833,-1.65746 -0.58208,-0.73493 -1.05833,-1.58185 -1.05833,-1.88203 0,-0.30017 -0.16177,-0.64575 -0.35949,-0.76794 -0.19772,-0.1222 -0.74979,-0.99242 -1.22684,-1.93382 -0.88041,-1.73741 -1.59012,-2.83631 -3.61366,-5.59534 -1.37447,-1.87403 -3.97224,-6.55628 -3.97224,-7.15959 0,-0.67232 -1.802867,-3.12239 -2.297588,-3.12239 -0.240761,0 -0.781142,0.79825 -1.200852,1.77389 -0.797324,1.85343 -0.745557,3.80683 0.124068,4.68162 0.231637,0.23301 1.006105,1.29678 1.721034,2.36394 0.714932,1.06715 2.010398,2.89278 2.878828,4.05694 0.86842,1.16417 1.98483,2.66459 2.4809,3.33427 0.49608,0.66968 0.98868,1.62218 1.09468,2.11666 0.3482,1.62443 0.87021,2.34044 2.81203,3.85701 1.0546,0.82366 2.17772,2.00319 2.49581,2.6212 0.31809,0.618 0.87039,1.44114 1.22731,1.8292 0.93088,1.01207 2.15831,2.81505 3.83446,5.63244 1.63643,2.75064 2.27622,5.37067 1.97757,8.09852 -0.10785,0.98519 -0.33425,3.42146 -0.50309,5.41393 -0.25696,3.03244 -0.43791,3.76204 -1.11055,4.47804 -1.13475,1.20788 -2.87654,1.95346 -4.56362,1.95346 -1.61709,0 -1.73605,0.29753 -0.77575,1.94027 0.80535,1.37767 1.99415,1.96953 3.72743,1.85574 1.21807,-0.08 1.57437,-0.32002 2.75434,-1.85574 z m 12.42901,0.85464 c 2.47864,-1.15356 4.96965,-4.03811 6.02478,-6.97662 0.86988,-2.42258 0.90305,-2.73276 0.50923,-4.7611 -0.29029,-1.49513 -0.87388,-2.83448 -1.87708,-4.30794 -1.40432,-2.06261 -1.53119,-2.15353 -3.58646,-2.57016 -1.17186,-0.23755 -3.16253,-0.58246 -4.42371,-0.76646 -1.26118,-0.18401 -2.80272,-0.42252 -3.42565,-0.53002 l -1.13259,-0.19547 0.86801,2.39309 c 1.0118,2.78951 1.07489,4.02402 0.31404,6.14416 -0.30469,0.84901 -0.62518,2.23224 -0.71221,3.07383 -0.20327,1.96572 -1.41981,5.57793 -2.29028,6.80039 -0.37228,0.52282 -0.67687,1.02423 -0.67687,1.11425 0,0.09 0.59531,0.26355 1.32291,0.38561 0.72761,0.12206 2.3548,0.44101 3.61598,0.70877 2.53473,0.53816 3.38355,0.45866 5.4699,-0.51233 z m -23.97623,-4.93505 c 0.37968,-0.61434 -0.0527,-0.74445 -0.5366,-0.16145 -0.27825,0.33528 -0.30502,0.5377 -0.0711,0.5377 0.20633,0 0.47979,-0.16932 0.60769,-0.37625 z m 5.80633,0.0612 c 0,-0.38214 -0.87106,-0.7433 -1.79275,-0.7433 -0.67783,0 -0.8827,0.38196 -0.44151,0.82315 0.35127,0.35127 2.23426,0.28398 2.23426,-0.0798 z m 3.28513,-3.58653 c 0.44842,-1.70684 0.69865,-3.8586 0.71549,-6.1526 0.0237,-3.23079 -0.0623,-3.70528 -1.02172,-5.63627 -0.58166,-1.17067 -1.4379,-2.31639 -1.92507,-2.5759 -0.96415,-0.5136 -4.88333,-0.34831 -6.52303,0.2751 -0.50971,0.19379 -1.37321,0.35235 -1.91891,0.35235 -1.63908,0 -2.00313,0.80694 -1.15579,2.56192 0.74159,1.53596 2.92635,7.42652 3.03893,8.19359 0.0346,0.23612 0.4937,0.94115 1.0201,1.56674 0.5264,0.62559 0.95709,1.3371 0.95709,1.58114 0,0.4279 5.12838,2.6631 5.79569,2.52604 0.18019,-0.037 0.63794,-1.24847 1.01722,-2.69211 z m -13.86847,-0.33177 c 0,-0.19402 -0.15875,-0.35277 -0.35278,-0.35277 -0.19402,0 -0.35277,0.15875 -0.35277,0.35277 0,0.19403 0.15875,0.35278 0.35277,0.35278 0.19403,0 0.35278,-0.15875 0.35278,-0.35278 z m -2.998609,-2.30399 c 0.582083,-0.47712 0.866267,-0.86829 0.631521,-0.86925 -0.234745,-0.001 -0.617061,-0.63676 -0.849591,-1.41287 -0.294351,-0.98246 -0.620141,-1.41111 -1.072494,-1.41111 -0.785449,0 -0.852459,0.55704 -0.116551,0.96887 0.293236,0.1641 0.680075,0.81063 0.859639,1.43673 0.305858,1.06647 0.255485,1.16944 -0.797747,1.63066 -0.828213,0.36267 -0.938449,0.49653 -0.418666,0.50839 0.388055,0.009 1.181805,-0.37429 1.763889,-0.85142 z m 2.528239,10e-4 c 0,-0.38365 -0.1154,-0.41261 -0.47037,-0.11801 -0.258703,0.21465 -0.470369,0.52465 -0.470369,0.68883 0,0.16418 0.211666,0.21728 0.470369,0.11801 0.25871,-0.0993 0.47037,-0.40927 0.47037,-0.68888 z m -25.317523,-1.79662 c -0.21813,-0.26283 -0.30444,-0.71801 -0.19181,-1.01153 0.14006,-0.36499 -0.0147,-0.53366 -0.4897,-0.53366 -0.77455,0 -0.86941,0.55233 -0.33586,1.95566 0.29891,0.78619 0.44649,0.87033 0.88629,0.50533 0.39848,-0.33071 0.43057,-0.55493 0.13108,-0.9158 z m 26.955533,0.0196 c -0.95609,-0.72489 -1.36529,-0.60409 -0.646,0.19072 0.34705,0.38348 0.77802,0.60637 0.95773,0.4953 0.17971,-0.11106 0.0394,-0.41977 -0.31173,-0.68602 z m -14.789059,-1.2074 c 0.500765,-0.50077 0.09985,-0.446 -1.540884,0.21049 -0.780037,0.31211 -1.418251,0.77125 -1.418251,1.02031 0,0.33054 0.351363,0.27369 1.30108,-0.2105 0.715592,-0.36483 1.461717,-0.82397 1.658055,-1.0203 z m 3.31827,1.20638 c 0.434475,-0.30431 0.702254,-0.6952 0.595066,-0.86864 -0.273967,-0.44328 -1.933582,0.3716 -1.933582,0.94941 0,0.61915 0.371224,0.59675 1.338516,-0.0808 z m 5.301933,-0.26968 c 0.125599,-0.64761 -0.207303,-0.74171 -0.953008,-0.26939 -0.55584,0.35207 -0.18875,1.19967 0.430304,0.99357 0.224755,-0.0748 0.459973,-0.4007 0.522704,-0.72418 z m -2.245794,-1.62208 c 0.111633,-0.18062 0.05826,-0.41783 -0.1186,-0.52714 -0.176862,-0.10931 -0.412595,0.0385 -0.52385,0.3284 -0.219322,0.57154 0.310712,0.73551 0.64245,0.19874 z m 6.80604,-0.90636 c 0,-0.51314 -0.20285,-0.88195 -0.48507,-0.88195 -0.495138,0 -0.675456,1.10313 -0.249883,1.5287 0.461863,0.46187 0.734953,0.22155 0.734953,-0.64675 z m -9.689663,-0.393 c 1.012197,-0.50719 2.078482,-1.12146 2.369524,-1.36504 0.291041,-0.24359 1.39568,-0.92004 2.454754,-1.50322 1.059075,-0.58318 1.980241,-1.22429 2.047039,-1.42468 0.109372,-0.32812 -4.053953,-1.48768 -5.341412,-1.48768 -0.557734,0 -0.725275,0.40441 -1.096147,2.64584 -0.155551,0.94007 -0.660771,1.85271 -1.513512,2.73403 -1.517206,1.56804 -1.363592,1.62506 1.079754,0.40075 z m -6.097143,0.21661 c 0,-0.19403 -0.07001,-0.35278 -0.155568,-0.35278 -0.08556,0 -0.253683,0.15875 -0.373599,0.35278 -0.119916,0.19402 -0.04991,0.35277 0.155568,0.35277 0.205479,0 0.373599,-0.15875 0.373599,-0.35277 z m 11.818055,0 c 0.119917,-0.19403 0.05928,-0.35278 -0.13475,-0.35278 -0.194028,0 -0.450889,0.15875 -0.570805,0.35278 -0.119916,0.19402 -0.05928,0.35277 0.13475,0.35277 0.194028,0 0.450889,-0.15875 0.570805,-0.35277 z m -19.931942,-3.175 c 0,-0.19403 -0.23813,-0.35278 -0.52917,-0.35278 -0.29104,0 -0.52917,0.15875 -0.52917,0.35278 0,0.19402 0.23813,0.35277 0.52917,0.35277 0.29104,0 0.52917,-0.15875 0.52917,-0.35277 z m -4.70923,-0.79375 c 0.69157,-0.77816 1.56733,-4.71273 1.7471,-7.84931 0.0445,-0.77611 0.18785,-2.04611 0.31859,-2.82222 l 0.23772,-1.41111 -1.64162,-0.58167 -1.64162,-0.58166 -0.35214,0.92622 c -0.50677,1.3329 -1.36714,5.57845 -1.36714,6.74624 0,0.54721 -0.23714,1.44965 -0.52699,2.0054 -0.28985,0.55576 -0.52797,1.33998 -0.52917,1.74273 -0.003,0.96488 1.59534,2.41966 2.84675,2.59128 0.1117,0.0153 0.52053,-0.32934 0.90852,-0.7659 z m 57.625893,-1.19584 c 0,-0.70269 -4.23771,-3.0974 -5.33486,-3.01469 -0.50882,0.0384 -1.12357,-0.16936 -1.36611,-0.46161 -0.56441,-0.68006 -3.88236,-0.74906 -3.88236,-0.0807 0,1.10283 2.07693,2.2566 5.34749,2.97062 3.49086,0.76211 5.23584,0.95755 5.23584,0.58641 z m -49.741663,-0.47986 c 0,-0.19403 -0.15875,-0.35278 -0.35278,-0.35278 -0.19403,0 -0.35278,0.15875 -0.35278,0.35278 0,0.19403 0.15875,0.35278 0.35278,0.35278 0.19403,0 0.35278,-0.15875 0.35278,-0.35278 z m -52.8772,-0.66658 0.8232,-0.66658 -0.76343,-1.71467 c -0.41989,-0.94307 -1.26095,-3.06404 -1.86902,-4.71328 -0.60808,-1.64923 -1.31178,-3.47486 -1.56378,-4.05694 -0.40149,-0.92739 -1.04977,-2.56107 -1.95984,-4.93889 -0.43898,-1.14697 -3.21212,-8.77749 -3.37879,-9.29702 -0.0865,-0.26974 -0.39476,-0.38488 -0.70825,-0.26458 -0.30528,0.11714 -0.97862,0.21542 -1.49633,0.21839 -1.56933,0.009 -1.8862,0.39959 -1.4456,1.78192 0.43338,1.35968 0.49035,1.49907 2.24342,5.48902 0.69272,1.57664 1.2595,2.99496 1.2595,3.15182 0,0.15685 0.29424,0.93062 0.65386,1.71949 1.26013,2.7642 2.49171,6.04384 3.25435,8.66624 0.42321,1.4552 0.90761,2.79664 1.07646,2.98097 0.16885,0.18432 0.307,0.58914 0.307,0.89958 0,1.45294 2.14065,1.89972 3.56725,0.74453 z m 54.295114,-1.45008 c 0.03557,-0.6791 0.0486,-1.43709 0.02893,-1.68443 -0.04078,-0.51309 -1.700414,-1.24076 -2.169144,-0.95106 -0.36126,0.22327 0.891072,1.57715 1.458854,1.57715 0.254554,0 0.301723,0.50486 0.140081,1.49931 -0.165495,1.01814 -0.128126,1.38609 0.116445,1.14653 0.198081,-0.19403 0.389251,-0.90841 0.424825,-1.5875 z m 22.923749,0.22991 c 0.48507,-0.0295 1.0407,-0.2513 1.23472,-0.49303 0.46692,-0.5817 4.26809,-1.2633 5.72591,-1.02672 0.63429,0.10293 1.15326,0.0384 1.15326,-0.14345 0,-0.18183 -0.16268,-0.3306 -0.36151,-0.3306 -0.19883,0 -0.5124,-0.39688 -0.69682,-0.88195 -0.28139,-0.7401 -0.57785,-0.88848 -1.84335,-0.92256 -2.26567,-0.061 -2.7626,0.0168 -4.68304,0.73328 -0.97014,0.36196 -2.31952,0.7541 -2.99861,0.87143 -1.582052,0.27334 -4.233336,1.27848 -4.233336,1.60492 0,0.64311 1.725228,1.03732 3.704166,0.84641 1.16417,-0.11232 2.51354,-0.22829 2.99861,-0.25773 z m -26.280403,-0.93796 c 0.12076,-0.1954 -0.0355,-0.45314 -0.34717,-0.57275 -0.67545,-0.25919 -1.05189,0.0264 -0.72721,0.55177 0.29294,0.47399 0.78843,0.48366 1.07438,0.021 z m 17.617184,-1.02321 c 0.313651,-0.5075 8.596489,-2.72387 12.984749,-3.47454 0.64389,-0.11014 0.97014,-0.38276 0.97014,-0.81065 0,-0.96528 -0.57829,-1.13876 -1.58883,-0.47663 -0.96583,0.63284 -2.87312,0.56449 -6.87784,-0.24646 -2.396488,-0.48529 -6.292485,-0.66087 -7.210547,-0.32496 -0.477329,0.17465 -0.807755,0.82707 -1.09299,2.1581 -0.224857,1.04928 -0.523953,2.17171 -0.664662,2.49429 -0.177687,0.40736 -0.05935,0.63731 0.387435,0.75283 1.148038,0.29683 2.889656,0.2563 3.092545,-0.072 z m 23.990429,-1.06084 c 0.22548,-0.36483 -1.9212,-1.79953 -2.66885,-1.78368 -0.2722,0.006 0.0213,0.47321 0.66457,1.05834 1.20483,1.09597 1.67097,1.26466 2.00428,0.72534 z m -87.470263,-1.28006 c 3.6571,-0.82076 10.76876,-1.61527 14.34479,-1.6026 3.18888,0.0113 3.51615,-0.0537 4.51838,-0.89698 1.21504,-1.0224 3.76348,-1.89493 5.53456,-1.89493 0.69613,0 1.45883,-0.28018 1.86303,-0.68438 0.37641,-0.3764 1.44797,-0.93564 2.38125,-1.24275 0.93328,-0.30711 2.01438,-0.69509 2.40243,-0.86217 0.38806,-0.16708 1.97556,-0.49075 3.52778,-0.71926 3.31895,-0.4886 4.05445,-1.09007 4.06167,-3.32149 0.002,-0.80313 0.38447,-2.6506 0.84861,-4.10549 0.46413,-1.4549 0.76543,-2.7722 0.66955,-2.92734 -0.0959,-0.15515 -0.85651,-0.17978 -1.69028,-0.0548 -1.02197,0.15325 -2.41996,-0.003 -4.29025,-0.47912 -1.52587,-0.38855 -3.59124,-0.81336 -4.58973,-0.94403 -2.13553,-0.27946 -7.94663,0.32537 -10.70818,1.11452 -3.63678,1.03927 -7.39663,1.3435 -12.34722,0.99907 -1.89359,-0.13174 -6.44102,-1.22264 -7.23195,-1.73488 -0.38806,-0.25133 -1.18181,-0.54607 -1.76389,-0.65498 -0.58208,-0.10891 -2.05147,-0.42292 -3.26531,-0.69781 -2.38909,-0.54102 -5.86743,-0.42232 -6.39779,0.21834 -0.2117,0.25572 -0.0881,0.89355 0.34588,1.78497 0.37141,0.76289 1.17627,2.74723 1.78858,4.40965 0.61232,1.66243 1.37549,3.49888 1.69595,4.081 0.32045,0.58212 0.94944,2.16965 1.39775,3.52784 1.01328,3.06983 2.44512,6.55165 2.94782,7.16828 0.2275,0.27905 0.67197,0.37114 1.1097,0.22991 0.40161,-0.12957 1.6827,-0.44935 2.84687,-0.71062 z m 46.0321,-0.83322 c 0.005,-0.8215 -0.0166,-0.82848 -0.68881,-0.22018 -0.55634,0.50349 -0.61887,0.76901 -0.31486,1.33706 0.30542,0.57067 0.43966,0.61358 0.68881,0.22018 0.1702,-0.26875 0.31189,-0.87042 0.31486,-1.33706 z m 12.263986,0.99559 c 0.139329,-0.79379 -0.443117,-1.42643 -1.086097,-1.1797 -0.324037,0.12435 -0.589157,0.51337 -0.589157,0.8645 0,1.04516 1.497662,1.32694 1.675254,0.3152 z m -8.554421,0.0292 c 0.119917,-0.19403 0.04991,-0.35278 -0.155568,-0.35278 -0.205479,0 -0.373598,0.15875 -0.373598,0.35278 0,0.19403 0.07001,0.35278 0.155568,0.35278 0.08556,0 0.253682,-0.15875 0.373598,-0.35278 z m -12.876385,-1.38591 c 0,-1.1718 -0.91919,-1.76605 -2.38385,-1.54115 -2.54204,0.39034 -2.90216,1.31769 -0.70296,1.81019 2.45556,0.5499 3.08681,0.49488 3.08681,-0.26904 z m -8.5956,-0.93007 c 0.30957,-0.47246 0.82241,-0.86107 1.13964,-0.86357 0.31723,-0.002 1.58312,-0.32001 2.81308,-0.70556 1.22996,-0.38555 2.84645,-0.701 3.5922,-0.701 1.06774,0 1.40589,-0.1575 1.59111,-0.74107 0.32876,-1.03582 -0.28266,-1.52328 -1.48474,-1.1837 -0.54779,0.15474 -1.47222,0.31849 -2.05431,0.36389 -1.93744,0.15112 -4.50316,0.87387 -5.43215,1.53023 -0.50481,0.35666 -1.46826,0.76778 -2.14099,0.91359 -0.67273,0.14581 -1.46648,0.395 -1.76389,0.55375 -0.29741,0.15876 -1.13606,0.38389 -1.86366,0.5003 -0.72761,0.1164 -1.32292,0.41248 -1.32292,0.65794 0,0.32363 0.8745,0.45837 3.18189,0.49026 3.00532,0.0415 3.21312,-0.004 3.74474,-0.81506 z m 19.889272,-1.64944 c 0.548577,-0.34259 0.848523,-0.34536 1.381097,-0.0128 0.609233,0.38047 0.703704,0.30639 0.904004,-0.70889 0.123021,-0.62357 0.388415,-1.56225 0.589767,-2.08597 0.595489,-1.54887 0.100637,-1.99725 -0.603808,-0.5471 -0.353448,0.72761 -0.856339,1.32292 -1.117536,1.32292 -0.261193,0 -0.566276,0.23813 -0.677958,0.52917 -0.111686,0.29104 -0.549169,0.52916 -0.972188,0.52916 -0.51623,0 -0.78661,0.232 -0.82228,0.70556 -0.0611,0.81174 0.32312,0.8898 1.318902,0.26792 z m 9.424671,-0.12827 c -0.117225,-0.11723 -0.421499,-0.12976 -0.676159,-0.0278 -0.281421,0.11262 -0.19783,0.19621 0.213138,0.21314 0.371884,0.0153 0.580245,-0.0681 0.463021,-0.18529 z m 17.13175,-0.007 c 0.42452,-0.42451 -2.71673,-3.29544 -3.61234,-3.30148 -0.475,-0.003 -2.16588,-0.19411 -3.757523,-0.42424 -3.769621,-0.54503 -6.261347,-0.13614 -6.430229,1.05519 -0.186535,1.31583 0.449827,1.74722 2.320336,1.57298 1.514902,-0.14113 3.582772,0.0946 8.201886,0.93494 2.11221,0.38427 3.0116,0.42889 3.27787,0.16261 z m -32.053223,-2.84292 c 0.11068,-0.28843 0.30227,-1.38404 0.42576,-2.43468 0.19275,-1.64003 0.14102,-1.91026 -0.36564,-1.91026 -0.32459,0 -0.96674,-0.24675 -1.42702,-0.54834 -0.99749,-0.65357 -1.0649,-0.56607 -1.70773,2.21647 -0.55049,2.38284 -0.46283,2.73252 0.80233,3.20054 1.05743,0.39116 2.00504,0.17275 2.2723,-0.52372 z m 27.729423,-2.55786 c -0.20085,-0.3753 -0.36518,-1.14622 -0.36518,-1.71316 0,-0.63212 -0.471,-1.64764 -1.21781,-2.6257 -0.669792,-0.87721 -1.548982,-2.23029 -1.953755,-3.00686 -0.404774,-0.77658 -1.025398,-1.6739 -1.379164,-1.99406 -0.353769,-0.32015 -0.927439,-1.21239 -1.274826,-1.98276 -0.347384,-0.77036 -0.754997,-1.40065 -0.905813,-1.40065 -0.150813,0 -0.767218,0.73051 -1.36979,1.62335 l -1.095584,1.62334 0.901951,0.90196 c 0.866743,0.86674 0.898204,1.0452 0.806005,4.57195 l -0.09594,3.67001 2.469444,0.15902 c 1.358195,0.0875 2.945695,0.30218 3.527782,0.47715 1.85214,0.55674 2.37003,0.47622 1.95268,-0.30359 z m -22.942963,0.0179 c 0,-0.30555 -1.82099,-0.80197 -2.0638,-0.56262 -0.0679,0.067 -0.0189,0.29108 0.10902,0.49802 0.2795,0.45225 1.95478,0.50761 1.95478,0.0646 z m 1.315568,0.0985 c -0.117228,-0.11722 -0.421499,-0.12976 -0.676159,-0.0278 -0.281419,0.11261 -0.19783,0.1962 0.213138,0.21313 0.371884,0.0153 0.580246,-0.0681 0.463021,-0.18529 z m -0.277294,-2.23645 c 0.820307,-0.519 -0.103261,-2.21842 -1.126274,-2.07242 -0.97514,0.13917 -1.1956,1.07135 -0.43359,1.83335 0.65511,0.65511 0.8541,0.68561 1.559864,0.23907 z m 9.721448,-1.25458 c 0,-0.19403 -0.357187,-0.40351 -0.79375,-0.46551 -0.54616,-0.0776 -0.79375,0.0676 -0.79375,0.46551 0,0.39787 0.24759,0.54308 0.79375,0.46551 0.436563,-0.062 0.79375,-0.27148 0.79375,-0.46551 z m -13.964602,-0.94787 c 0.43793,-1.25625 0.25577,-1.57209 -1.02845,-1.7832 -0.85024,-0.13977 -0.83756,-0.16523 0.35277,-0.70804 l 1.23473,-0.56305 -0.99311,-0.38017 c -1.44423,-0.55286 -2.12194,-0.48687 -1.8654,0.18164 0.13892,0.36203 -0.008,0.62042 -0.41463,0.72662 -0.34662,0.0907 -0.84837,0.65763 -1.11499,1.25997 -0.44918,1.01477 -0.42605,1.1427 0.31507,1.74282 0.43991,0.35622 1.32234,0.64767 1.96096,0.64767 0.9881,0 1.21953,-0.16753 1.55305,-1.12426 z m 10.260436,-2.02697 c 0,-0.18095 -0.3175,-0.42977 -0.705556,-0.55294 -0.388056,-0.12316 -0.705556,-0.37198 -0.705556,-0.55294 0,-0.44415 0.477891,-0.41556 0.950306,0.0569 0.212224,0.21222 0.655535,0.33129 0.985139,0.26458 0.471826,-0.0955 0.362829,-0.2956 -0.512491,-0.94096 -0.886689,-0.65374 -1.214688,-0.73427 -1.620139,-0.39778 -0.39521,0.328 -0.625231,0.32493 -1.033364,-0.0138 -0.841424,-0.69832 -1.071163,0.49459 -0.299324,1.55425 0.458371,0.62931 0.983354,0.8928 1.794457,0.90064 0.63059,0.006 1.146528,-0.13697 1.146528,-0.31792 z m -4.298552,-1.1703 c 0.07965,-0.42045 -0.107135,-0.61736 -0.585618,-0.61736 -1.089226,0 -1.818606,0.37782 -1.818606,0.94204 0,0.77897 2.252787,0.47474 2.404224,-0.32468 z m 8.1497,-1.41631 c 0.785234,-0.40137 1.221973,-1.01315 3.207272,-4.49272 0.387466,-0.67909 0.949957,-1.57442 1.249976,-1.9896 0.526136,-0.7281 0.491677,-0.77191 -0.971035,-1.23473 -1.152768,-0.36474 -1.637573,-0.75484 -2.021166,-1.62636 -0.277548,-0.63059 -0.674423,-1.1405 -0.881944,-1.13314 -0.462097,0.0164 -1.852909,2.03078 -3.029159,4.38727 -0.48176,0.96516 -1.074363,1.96869 -1.316898,2.23006 -0.242535,0.26138 -0.440972,0.78139 -0.440972,1.15559 0,0.3742 -0.15875,0.68036 -0.352778,0.68036 -0.584895,0 -0.40144,0.55002 0.512322,1.53599 0.961559,1.03753 2.585166,1.23315 4.044382,0.48728 z m -11.422034,-0.62364 c 0.36138,-0.29992 0.51533,-1.15945 0.51533,-2.87713 0,-1.34719 0.15672,-2.74227 0.34826,-3.10017 0.545238,-1.01879 -1.27405,-4.1837 -3.11603,-5.42079 -2.06302,-1.38554 -3.0736,-1.1166 -3.43188,0.91332 -0.37423,2.12029 -0.23814,3.29672 0.56305,4.86719 0.82147,1.61021 0.85937,2.09812 0.22986,2.95903 -0.72596,0.99281 -1.85775,0.39397 -3.16947,-1.67701 -1.34425,-2.12235 -2.00793,-4.69163 -2.00516,-7.76251 0.004,-4.39374 1.44424,-6.83048 4.52994,-7.66406 2.20854,-0.59662 2.37775,-0.72209 1.67091,-1.23894 -1.24893,-0.91324 -4.55179,0.8319 -5.49221,2.90194 -0.33824,0.74451 -1.04316,1.80897 -1.5665,2.36546 -0.60922,0.64781 -0.86796,1.21889 -0.71927,1.5875 0.43402,1.07588 0.35264,4.09063 -0.12399,4.59312 -0.26493,0.2793 -0.42805,1.11279 -0.37974,1.94027 0.10797,1.84917 0.40016,2.39696 0.6778,1.2707 0.20554,-0.83381 0.25772,-0.79873 1.02821,0.69116 1.70571,3.29837 6.10097,6.48103 8.58881,6.21926 0.73521,-0.0774 1.56865,-0.33311 1.85208,-0.56834 z m -15.00689,-4.02464 c 0,-0.0856 -0.15875,-0.25369 -0.35278,-0.3736 -0.19403,-0.11992 -0.35278,-0.0499 -0.35278,0.15557 0,0.20547 0.15875,0.37359 0.35278,0.37359 0.19403,0 0.35278,-0.07 0.35278,-0.15556 z m -3.14124,-3.58929 c 0.40918,-0.49302 0.38327,-0.55248 -0.19215,-0.44097 -0.3658,0.0709 -0.73116,0.32732 -0.81192,0.56985 -0.20953,0.62932 0.4445,0.54537 1.00407,-0.12888 z m 34.53846,-0.71554 c 0,-0.32018 -2.23714,-2.58685 -2.557639,-2.5914 -0.475011,-0.007 -0.279167,0.74878 0.464993,1.79386 0.633353,0.88946 2.092646,1.44562 2.092646,0.79754 z m -34.05812,-0.8069 c 0.26089,-0.42213 -0.40274,-0.84039 -0.87264,-0.54998 -0.39453,0.24383 -0.13552,0.87838 0.35854,0.87838 0.17112,0 0.40247,-0.14778 0.5141,-0.3284 z m -13.91966,-0.37715 c 0,-0.19403 -0.15875,-0.35278 -0.35278,-0.35278 -0.19403,0 -0.35278,0.15875 -0.35278,0.35278 0,0.19403 0.15875,0.35278 0.35278,0.35278 0.19403,0 0.35278,-0.15875 0.35278,-0.35278 z m 48.783846,-0.69903 c 0.146501,-0.56023 0.444757,-0.68282 1.502015,-0.61736 1.716532,0.10626 1.921891,-0.53219 0.353589,-1.0993 -0.67606,-0.24446 -1.534661,-0.83282 -1.908009,-1.30745 -0.373349,-0.47463 -0.826912,-0.86297 -1.007918,-0.86297 -0.401902,0 -0.14127,2.0486 0.294932,2.31819 0.171655,0.10609 0.306395,0.38196 0.299417,0.61305 -0.007,0.23108 -0.396829,-0.0499 -0.866334,-0.6244 -0.920506,-1.12636 -1.447158,-1.05326 -1.065907,0.14795 0.237899,0.74956 1.515275,2.13132 1.970302,2.13132 0.134811,0 0.327375,-0.31457 0.427913,-0.69903 z m -33.967176,-0.86791 c 0,-0.37235 -0.67702,-0.52878 -0.87839,-0.20296 -0.12187,0.19719 0.0259,0.35853 0.3284,0.35853 0.30249,0 0.54999,-0.07 0.54999,-0.15557 z m -6.41366,-1.19498 c 0.11839,-0.80459 -0.1624,-0.94764 -0.91843,-0.46793 -0.53685,0.34064 -0.17334,1.55604 0.40819,1.36478 0.21863,-0.0719 0.44824,-0.47549 0.51024,-0.89685 z m 10.56623,0.005 c 0.0859,-0.25779 -0.0754,-0.33663 -0.41893,-0.20479 -0.30725,0.1179 -0.55864,0.36936 -0.55864,0.5588 0,0.46369 0.80178,0.17334 0.97757,-0.35401 z m -14.25586,-2.61483 c -0.21443,-0.34694 -0.53589,-0.33896 -1.11384,0.0277 -0.36464,0.23131 -0.32887,0.51492 0.17639,1.39848 l 0.63379,1.10832 0.23629,-1.13058 c 0.12995,-0.62182 0.16027,-1.25357 0.0674,-1.40388 z m 18.21718,1.29336 c 0,-0.30249 -0.15875,-0.45187 -0.35278,-0.33195 -0.19403,0.11991 -0.35278,0.36741 -0.35278,0.54998 0,0.18258 0.15875,0.33196 0.35278,0.33196 0.19403,0 0.35278,-0.24749 0.35278,-0.54999 z m 28.330273,-0.68473 c -0.163435,-1.00712 -0.08937,-1.23472 0.401789,-1.23472 0.518237,0 0.487796,-0.14477 -0.218426,-1.03882 -1.077006,-1.36343 -1.456623,-1.34142 -1.184769,0.0687 0.193583,1.0041 0.161675,1.07299 -0.256858,0.55458 -0.691504,-0.85652 -1.41733,-0.27452 -1.122524,0.90009 0.202226,0.80573 1.528805,1.92359 2.338751,1.97079 0.133321,0.008 0.152237,-0.5415 0.04204,-1.2206 z m -18.09972,-0.15557 c 0,-0.18258 -0.15875,-0.43007 -0.352778,-0.54999 -0.194028,-0.11991 -0.352775,0.0295 -0.352775,0.33196 0,0.30249 0.158747,0.54999 0.352775,0.54999 0.194028,0 0.352778,-0.14938 0.352778,-0.33196 z m -70.179143,-1.34374 c 0.23712,-0.7276 0.88078,-1.9812 1.43034,-2.78577 0.81977,-1.20016 0.91367,-1.53385 0.52288,-1.85817 -0.80174,-0.66539 -1.5919,-0.0393 -2.23477,1.77078 -0.42029,1.18333 -0.80921,1.72664 -1.236,1.72664 -0.7285,0 -0.77456,0.33917 -0.21335,1.5709 0.58016,1.2733 1.22952,1.1141 1.7309,-0.42438 z m 6.28117,1.00554 c 0.26618,-0.16862 0.42493,-0.46069 0.35277,-0.64904 -0.0722,-0.18836 -0.43678,-0.048 -0.81027,0.31198 -0.69677,0.67148 -0.40721,0.88482 0.4575,0.33706 z m 19.80075,-0.1903 c 1.06715,-0.1056 3.1309,-0.0743 4.58611,0.0697 1.45521,0.1439 2.9896,0.21267 3.40976,0.15282 0.84676,-0.12062 1.26242,-0.8439 0.95115,-1.65507 -0.16867,-0.43954 -1.14915,-0.52916 -5.78894,-0.52916 -3.34339,0 -5.67342,-0.14163 -5.80392,-0.35278 -0.11991,-0.19403 -0.37677,-0.35278 -0.5708,-0.35278 -0.19403,0 -0.24848,0.16875 -0.12101,0.37501 0.12747,0.20625 -0.0438,0.67952 -0.38065,1.05172 -0.49862,0.55096 -0.53031,0.77562 -0.17058,1.20908 0.24301,0.2928 0.78085,0.46288 1.19522,0.37794 0.41436,-0.0849 1.62651,-0.24082 2.69366,-0.34643 z m 18.08566,0.29609 c 0.2708,-0.2708 -0.46367,-1.90508 -0.85618,-1.90508 -0.35066,0 -0.40062,1.54183 -0.061,1.88148 0.29187,0.29188 0.63991,0.30083 0.91714,0.0236 z m -28.32162,-0.40577 c -0.003,-0.14552 -0.13963,-0.47633 -0.30368,-0.73514 -0.24314,-0.38354 -0.33548,-0.37361 -0.49946,0.0537 -0.11065,0.28834 -0.10628,0.61915 0.01,0.73513 0.29666,0.29666 0.7999,0.2626 0.79344,-0.0537 z m 21.17207,-0.26458 c 0,-0.29105 -0.15875,-0.52917 -0.35278,-0.52917 -0.19403,0 -0.35278,0.23812 -0.35278,0.52917 0,0.29104 0.15875,0.52916 0.35278,0.52916 0.19403,0 0.35278,-0.23812 0.35278,-0.52916 z m 9.87778,0.17638 c 0,-0.19402 -0.07,-0.35277 -0.15557,-0.35277 -0.0856,0 -0.25368,0.15875 -0.3736,0.35277 -0.11991,0.19403 -0.0499,0.35278 0.15557,0.35278 0.20548,0 0.3736,-0.15875 0.3736,-0.35278 z m -32.99979,-1.08271 c -0.26197,-0.42387 -1.21966,-0.42782 -1.21966,-0.005 0,0.38231 0.76566,0.70563 1.15228,0.48659 0.14869,-0.0842 0.17901,-0.30094 0.0674,-0.48157 z m 71.452568,-1.95351 c 0,-0.0961 -0.553579,-0.68259 -1.230171,-1.30329 -0.982,-0.90087 -1.276213,-1.48439 -1.45838,-2.89243 -0.125511,-0.97014 -0.657793,-2.71639 -1.182843,-3.88056 -3.677655,-8.15427 -4.244054,-9.85482 -4.238308,-12.72504 0.0072,-3.57311 1.758323,-8.646921 3.38877,-9.818563 0.55922,-0.401858 1.527531,-1.190056 2.1518,-1.751551 0.624265,-0.561494 2.44989,-1.808426 4.056944,-2.770958 3.388963,-2.0298 5.141523,-2.344154 9.581473,-1.718615 3.55913,0.501442 5.11118,1.383054 6.51627,3.701445 0.61142,1.008834 1.11167,1.997293 1.11167,2.196576 0,0.547248 1.49279,1.819355 2.29305,1.954059 0.61973,0.104315 0.71844,-0.104028 0.81147,-1.712642 0.0749,-1.29595 -0.0972,-2.224239 -0.58886,-3.175001 -0.71621,-1.384679 -3.42936,-4.162865 -4.98511,-5.10424 -2.10624,-1.274482 -8.63564,-1.641759 -11.941578,-0.671712 -1.707716,0.501087 -6.298484,3.434903 -8.292994,5.299793 -3.290563,3.076711 -5.863347,5.839246 -5.86715,6.299867 -0.0021,0.255292 -0.194634,0.810912 -0.427838,1.234722 -0.496602,0.90249 -0.462721,0.74283 -1.195515,5.63391 -0.699417,4.6683 -0.475706,5.5601 2.74222,10.93156 1.188769,1.98433 2.768028,5.11472 3.509461,6.95642 0.741433,1.84171 1.510637,3.40275 1.709339,3.46898 0.198706,0.0662 0.36128,0.35576 0.36128,0.64339 0,0.28763 0.176477,0.85271 0.392173,1.25574 0.379356,0.70883 0.431232,0.69014 1.5875,-0.57199 0.657429,-0.71763 1.195327,-1.38341 1.195327,-1.47951 z m -65.842058,1.49895 c -0.0329,-0.38932 0.22747,-0.57939 0.79375,-0.57939 0.46351,0 0.84275,-0.16178 0.84275,-0.3595 0,-0.52348 -1.8589,0.0133 -2.34997,0.67863 -0.22533,0.30527 -0.32984,0.68422 -0.23225,0.84213 0.29319,0.47439 0.99836,0.0405 0.94572,-0.58187 z m 71.839283,0.62159 c 0,-0.5094 -1.505288,-2.25932 -1.943484,-2.25932 -0.896489,0 -0.873901,0.61419 0.05682,1.54491 0.840666,0.84067 1.886666,1.23675 1.886666,0.71441 z m -78.305403,-2.96451 c 0.18783,0 0.34151,-0.15875 0.34151,-0.35278 0,-0.60594 -0.8728,-0.38634 -1.53409,0.386 -0.36623,0.42773 -0.53632,0.98473 -0.40398,1.32292 0.18853,0.48178 0.31852,0.41414 0.74182,-0.386 0.28227,-0.53358 0.66691,-0.97014 0.85474,-0.97014 z m 29.26929,0.52917 c 0,-1.06688 -0.34622,-1.11849 -1.15632,-0.17236 -0.80144,0.93601 -0.77066,1.0543 0.27437,1.0543 0.70556,0 0.88195,-0.17639 0.88195,-0.88194 z m 49.563323,-0.17856 c -0.7721,-0.85315 -0.50718,-1.25907 0.47771,-0.73197 0.39192,0.20975 1.01138,0.38136 1.37659,0.38136 0.51818,0 0.31023,-0.37061 -0.94695,-1.68765 -1.38049,-1.44622 -1.66987,-1.61039 -2.02276,-1.14753 -0.30129,0.39517 -0.30737,0.66594 -0.0227,1.00898 0.28617,0.34481 0.27529,0.53921 -0.0411,0.73476 -0.80272,0.49611 0.20748,2.1322 1.32404,2.14437 0.37654,0.004 0.34173,-0.16466 -0.14483,-0.70232 z m -39.509163,-0.70339 c -0.38805,-0.16675 -0.94368,-0.31191 -1.23472,-0.32258 -0.47037,-0.0173 -0.47037,0.0186 0,0.32258 0.29104,0.18809 0.84667,0.33325 1.23472,0.32258 l 0.70556,-0.0194 z m -37.66637,-0.21314 c -0.11723,-0.11722 -0.4215,-0.12975 -0.67616,-0.0278 -0.28142,0.11261 -0.19783,0.19621 0.21313,0.21313 0.37189,0.0153 0.58025,-0.0681 0.46303,-0.18528 z m 4.15248,-0.29855 c 2.67497,-0.39137 6.70364,-1.36138 7.05556,-1.6988 0.22796,-0.21858 0.10316,-0.26638 -0.35278,-0.1351 -0.38805,0.11174 -2.1343,0.37049 -3.88055,0.57501 -1.74625,0.20452 -3.4925,0.50879 -3.88056,0.67616 -0.38806,0.16737 -1.10243,0.48244 -1.5875,0.70016 -0.98629,0.4427 -1.26796,0.4552 2.64583,-0.11743 z m 67.75172,-0.11107 c 0.204138,-0.14255 0.637773,-0.83263 0.96363,-1.5335 0.325857,-0.70088 0.833526,-1.47438 1.128148,-1.71889 0.294623,-0.24452 0.539207,-0.62357 0.543521,-0.84235 0.0043,-0.21878 0.318284,-0.79465 0.697714,-1.27972 0.37942,-0.48507 0.6934,-1.27882 0.69772,-1.76389 0.005,-0.57936 0.43147,-1.21995 1.24256,-1.86712 0.67909,-0.54185 1.23472,-1.12579 1.23472,-1.29764 0,-0.34443 2.34785,-4.46112 3.02382,-5.30191 0.23398,-0.29104 0.53268,-1.03413 0.66376,-1.65132 0.13108,-0.61718 0.45812,-1.30456 0.72677,-1.52752 0.26864,-0.22296 0.66763,-0.9483 0.88663,-1.61188 0.219,-0.66357 0.51866,-1.2065 0.66591,-1.2065 0.14725,0 0.7047,-0.91281 1.23877,-2.02847 0.53406,-1.11566 1.11564,-2.30413 1.2924,-2.641047 0.46189,-0.880396 0.3993,-1.83887 -0.24966,-3.822931 -0.91924,-2.810428 -1.84988,-3.348635 -6.25643,-3.618253 -4.08439,-0.249906 -4.86024,-0.08143 -6.861309,1.489963 -0.717353,0.56332 -1.676365,1.135111 -2.131138,1.270649 -2.280313,0.679608 -5.868126,3.974446 -6.251042,5.740589 -0.11491,0.53002 -0.345885,1.28117 -0.513274,1.66922 -1.089491,2.52575 -1.165906,6.67709 -0.159096,8.64306 0.248416,0.48507 0.844289,1.75507 1.324169,2.82222 0.479877,1.06715 1.447377,3.21733 2.150001,4.77817 0.70262,1.56084 1.277493,3.00787 1.277493,3.21562 0,0.20775 0.318894,0.78314 0.708653,1.27863 0.389759,0.4955 0.806478,1.39004 0.926041,1.98786 0.22466,1.1233 0.396054,1.25931 1.029519,0.81696 z m -46.40866,-1.49391 c 0,-0.38805 -0.15875,-0.70555 -0.35278,-0.70555 -0.19403,0 -0.35278,0.3175 -0.35278,0.70555 0,0.38806 0.15875,0.70556 0.35278,0.70556 0.19403,0 0.35278,-0.3175 0.35278,-0.70556 z m 55.218033,0.0262 c -0.14049,-0.44264 0.005,-0.81856 0.4172,-1.07881 0.42856,-0.2705 0.4962,-0.45735 0.20956,-0.57885 -1.03,-0.43657 -2.22257,-1.65117 -2.22257,-2.26361 0,-0.38598 0.18651,-0.60062 0.44097,-0.50749 0.24254,0.0887 1.43316,0.22618 2.64584,0.30539 1.74281,0.11383 2.20486,0.0384 2.20486,-0.35991 0,-0.27716 -0.27781,-0.58844 -0.61736,-0.69173 -1.37581,-0.41852 -3.00334,-1.3882 -3.1824,-1.89606 -0.53384,-1.51416 -0.89746,-1.47091 -1.97468,0.23485 -1.05222,1.66616 -1.20031,2.69002 -0.51077,3.5314 0.52292,0.63806 -0.004,1.29846 -0.62537,0.78313 -0.4092,-0.33961 -0.49775,-0.22947 -0.49775,0.61909 0,0.82124 0.27035,1.18889 1.32291,1.79898 1.70558,0.98859 2.6839,1.03102 2.38956,0.10363 z m -1.44019,-1.24969 c -0.58124,-0.43963 -0.59714,-0.51964 -0.10517,-0.52916 0.31879,-0.006 0.671,0.2269 0.78268,0.51795 0.25226,0.65737 0.1784,0.65859 -0.67751,0.0112 z m -59.598673,0.74778 c 0.58208,-0.0589 1.4552,-0.14829 1.94027,-0.19874 l 0.88195,-0.0917 -0.88195,-0.26534 c -1.03085,-0.31014 -9.17222,0.33028 -9.17222,0.72151 0,0.41011 2.08609,0.5155 4.23334,0.21387 1.06715,-0.1499 2.41652,-0.32071 2.99861,-0.37957 z m 63.124373,-2.6623 c 0.10735,-0.1737 -0.055,-0.41182 -0.36081,-0.52917 -0.78627,-0.30171 -0.85106,-0.27767 -0.85106,0.31582 0,0.57217 0.89295,0.72938 1.21187,0.21335 z m 1.70364,-3.76884 c -0.62778,-0.27463 -1.53416,-1.12146 -2.01417,-1.88185 -1.164,-1.84388 -1.6069,-2.07114 -1.6069,-0.82452 0,1.77104 1.64091,3.18855 3.70417,3.19988 l 1.05833,0.006 -1.14143,-0.49932 z m 2.02338,-1.71241 c 0,-0.27797 -0.29865,-0.60018 -0.66366,-0.71603 -0.36501,-0.11585 -1.0243,-0.52342 -1.46509,-0.90572 -0.78189,-0.67813 -1.39903,-0.8967 -1.39903,-0.4955 0,0.54264 0.78631,1.56431 1.20394,1.56431 0.26045,0 0.67118,0.23813 0.91272,0.52917 0.55757,0.67183 1.41112,0.68621 1.41112,0.0238 z m 1.41592,-1.87585 c 0.003,-0.14553 0.0953,-0.60163 0.20583,-1.01357 0.1611,-0.60026 -0.015,-0.82427 -0.88676,-1.12817 -0.59828,-0.20856 -1.08777,-0.56319 -1.08777,-0.78807 0,-0.24723 0.24407,-0.31235 0.61736,-0.16473 0.33955,0.13428 1.1546,0.33424 1.81123,0.44436 1.59829,0.26804 1.35013,-0.67308 -0.26455,-1.00332 -1.26505,-0.25873 -2.51682,-1.23228 -2.51682,-1.95743 0,-0.65216 0.10127,-0.62272 2.11046,0.61354 0.97255,0.59842 1.9667,1.0219 2.20922,0.94106 0.26113,-0.0871 0.0817,-0.33439 -0.44006,-0.60655 -0.48456,-0.25276 -1.39014,-1.00626 -2.01241,-1.67444 -1.09967,-1.1808 -1.15016,-1.19678 -1.79988,-0.56968 -1.18344,1.14222 -1.4801,1.97731 -0.86278,2.4287 0.37248,0.27237 0.42437,0.47922 0.16104,0.64197 -0.21369,0.13206 -0.56082,-0.0818 -0.77141,-0.47532 -0.32951,-0.6157 -1.4164,-1.03482 -1.4164,-0.54619 0,0.4792 1.17193,3.00975 1.32361,2.85807 0.38867,-0.38868 2.20417,0.90271 2.20417,1.56785 0,0.46131 0.23824,0.6965 0.70555,0.6965 0.38806,0 0.70772,-0.11906 0.71037,-0.26458 z m -4.9437,-1.49933 c 0,-0.19403 -0.16812,-0.35278 -0.3736,-0.35278 -0.20548,0 -0.27549,0.15875 -0.15557,0.35278 0.11992,0.19403 0.28804,0.35278 0.3736,0.35278 0.0856,0 0.15557,-0.15875 0.15557,-0.35278 z m 8.87934,-5.11528 c 0.0209,-0.19403 -0.52784,-0.62626 -1.21937,-0.96052 -0.69153,-0.33426 -1.8157,-1.18268 -2.49816,-1.88539 -1.29271,-1.33106 -2.0585,-1.38499 -1.72814,-0.12169 0.28853,1.10336 3.55783,3.55508 4.56945,3.42673 0.46104,-0.0585 0.85534,-0.2651 0.87622,-0.45913 z m 0.79319,-1.80163 c 0.89076,-0.34182 0.64595,-0.84408 -0.41212,-0.84552 -0.53357,-7.4e-4 -1.48991,-0.31822 -2.12519,-0.70555 -1.43975,-0.87782 -1.60981,-0.88028 -1.14757,-0.0166 0.36245,0.67726 1.90936,1.67122 2.71474,1.74435 0.22667,0.0206 0.66323,-0.0589 0.97014,-0.17671 z m 0.20525,-4.14201 c 0,-0.49071 -2.68803,-1.892874 -3.01051,-1.57038 -0.37603,0.37602 0.25083,1.22778 1.17185,1.59228 1.34713,0.53314 1.83866,0.52729 1.83866,-0.0219 z"
       id="path7362"
       inkscape:connector-curvature="0" />
  </g>
</svg>
