<?xml version="1.0" encoding="UTF-8" standalone="no"?>
<!-- Created with Inkscape (http://www.inkscape.org/) -->
<svg xmlns:dc="http://purl.org/dc/elements/1.1/" xmlns:cc="http://creativecommons.org/ns#" xmlns:rdf="http://www.w3.org/1999/02/22-rdf-syntax-ns#" xmlns:svg="http://www.w3.org/2000/svg" xmlns="http://www.w3.org/2000/svg" xmlns:xlink="http://www.w3.org/1999/xlink" xmlns:sodipodi="http://sodipodi.sourceforge.net/DTD/sodipodi-0.dtd" xmlns:inkscape="http://www.inkscape.org/namespaces/inkscape" id="svg2" version="1.1" inkscape:version="0.48.1 r9760" width="630" height="750" sodipodi:docname="doghnout.svg">
  <metadata id="metadata8">
    <rdf:RDF>
      <cc:Work rdf:about="">
        <dc:format>image/svg+xml</dc:format>
        <dc:type rdf:resource="http://purl.org/dc/dcmitype/StillImage"/>
        <dc:title/>
      </cc:Work>
    </rdf:RDF>
  </metadata>
  <defs id="defs6">
    <linearGradient inkscape:collect="always" id="linearGradient4658">
      <stop style="stop-color:#000000;stop-opacity:1;" offset="0" id="stop4660"/>
      <stop style="stop-color:#000000;stop-opacity:0;" offset="1" id="stop4662"/>
    </linearGradient>
    <linearGradient inkscape:collect="always" id="linearGradient4640">
      <stop style="stop-color:#ffffff;stop-opacity:1;" offset="0" id="stop4642"/>
      <stop style="stop-color:#ffffff;stop-opacity:0;" offset="1" id="stop4644"/>
    </linearGradient>
    <linearGradient id="linearGradient3919">
      <stop style="stop-color:#af2a2c;stop-opacity:1;" offset="0" id="stop3921"/>
      <stop style="stop-color:#dd8f9f;stop-opacity:1" offset="1" id="stop3923"/>
    </linearGradient>
    <linearGradient inkscape:collect="always" id="linearGradient3893">
      <stop style="stop-color:#803300;stop-opacity:1;" offset="0" id="stop3895"/>
      <stop style="stop-color:#803300;stop-opacity:0;" offset="1" id="stop3897"/>
    </linearGradient>
    <linearGradient inkscape:collect="always" id="linearGradient3034">
      <stop style="stop-color:#ff9025;stop-opacity:1;" offset="0" id="stop3036"/>
      <stop style="stop-color:#ec7a1a;stop-opacity:1" offset="1" id="stop3038"/>
    </linearGradient>
    <linearGradient id="linearGradient3024">
      <stop style="stop-color:#ffffff;stop-opacity:0;" offset="0" id="stop3026"/>
      <stop id="stop3032" offset="0.5" style="stop-color:#ffb380;stop-opacity:1"/>
      <stop style="stop-color:#ffffff;stop-opacity:0;" offset="1" id="stop3028"/>
    </linearGradient>
    <linearGradient inkscape:collect="always" id="linearGradient3012">
      <stop id="stop3016" offset="0" style="stop-color:#552200;stop-opacity:1"/>
      <stop id="stop3014" offset="1" style="stop-color:#a56039;stop-opacity:1;"/>
    </linearGradient>
    <linearGradient inkscape:collect="always" id="linearGradient3004">
      <stop style="stop-color:#2b1100;stop-opacity:1;" offset="0" id="stop3006"/>
      <stop style="stop-color:#2b1100;stop-opacity:0;" offset="1" id="stop3008"/>
    </linearGradient>
    <radialGradient inkscape:collect="always" xlink:href="#linearGradient3004" id="radialGradient3010" cx="652.91302" cy="120.32396" fx="652.91302" fy="120.32396" r="22.391203" gradientTransform="matrix(1.62394, -0.00748691, -0.000360782, 0.629096, -408.901, 40.0764)" gradientUnits="userSpaceOnUse"/>
    <radialGradient inkscape:collect="always" xlink:href="#linearGradient3012" id="radialGradient3018" cx="656.02954" cy="98.785294" fx="656.02954" fy="98.785294" r="167.5903" gradientTransform="matrix(1, 0, 0, 0.672568, -994.163, 39.4438)" gradientUnits="userSpaceOnUse"/>
    <linearGradient inkscape:collect="always" xlink:href="#linearGradient3024" id="linearGradient3030" x1="22.687576" y1="223.71141" x2="321.87988" y2="223.71141" gradientUnits="userSpaceOnUse" gradientTransform="translate(-493.225, 6.24871)"/>
    <radialGradient inkscape:collect="always" xlink:href="#linearGradient3034" id="radialGradient3040" cx="666.42767" cy="218.74985" fx="666.42767" fy="218.74985" r="170.19107" gradientTransform="matrix(1.09401, -4.80503e-08, 0, 1.51176, -1056.82, -130.815)" gradientUnits="userSpaceOnUse"/>
    <filter inkscape:collect="always" id="filter3874" x="-0.077556774" width="1.1551135" y="-0.12595168" height="1.2519034" color-interpolation-filters="sRGB">
      <feGaussianBlur inkscape:collect="always" stdDeviation="9.3531651" id="feGaussianBlur3876"/>
    </filter>
    <filter inkscape:collect="always" id="filter3882" color-interpolation-filters="sRGB">
      <feGaussianBlur inkscape:collect="always" stdDeviation="1.8430738" id="feGaussianBlur3884"/>
    </filter>
    <linearGradient inkscape:collect="always" xlink:href="#linearGradient3893" id="linearGradient3899" x1="-340.61539" y1="282.47845" x2="-340.7106" y2="35.042233" gradientUnits="userSpaceOnUse"/>
    <filter inkscape:collect="always" id="filter3905" color-interpolation-filters="sRGB">
      <feGaussianBlur inkscape:collect="always" stdDeviation="0.70577645" id="feGaussianBlur3907"/>
    </filter>
    <linearGradient inkscape:collect="always" xlink:href="#linearGradient3919" id="linearGradient3934" x1="-275.97131" y1="118.14851" x2="-258.44919" y2="95.31958" gradientUnits="userSpaceOnUse"/>
    <linearGradient inkscape:collect="always" xlink:href="#linearGradient3919" id="linearGradient3944" x1="-298.81757" y1="191.96951" x2="-267.56213" y2="179.65086" gradientUnits="userSpaceOnUse" gradientTransform="matrix(1, 0, 0, 0.95649, 7.36417, 6.24598)"/>
    <linearGradient inkscape:collect="always" xlink:href="#linearGradient3919" id="linearGradient3954" x1="85.529564" y1="121.76687" x2="116.4623" y2="99.896385" gradientUnits="userSpaceOnUse" gradientTransform="translate(-499.897, 8.33161)" spreadMethod="reflect"/>
    <linearGradient inkscape:collect="always" xlink:href="#linearGradient3919" id="linearGradient3964" x1="-385.02652" y1="74.621971" x2="-320.73206" y2="31.075005" gradientUnits="userSpaceOnUse" spreadMethod="reflect" gradientTransform="matrix(0.965551, 0, 0, 0.981624, -13.4968, 1.57591)"/>
    <linearGradient inkscape:collect="always" xlink:href="#linearGradient3919" id="linearGradient3974" x1="-287.70276" y1="41.444099" x2="-252.79613" y2="85.629135" gradientUnits="userSpaceOnUse"/>
    <filter inkscape:collect="always" id="filter3996" color-interpolation-filters="sRGB">
      <feGaussianBlur inkscape:collect="always" stdDeviation="1.980313" id="feGaussianBlur3998"/>
    </filter>
    <filter inkscape:collect="always" id="filter4142" x="-0.26850566" width="1.5370113" y="-0.40086764" height="1.8017353" color-interpolation-filters="sRGB">
      <feGaussianBlur inkscape:collect="always" stdDeviation="3.6929356" id="feGaussianBlur4144"/>
    </filter>
    <filter inkscape:collect="always" id="filter4178" x="-0.13976707" width="1.2795341" y="-0.073107049" height="1.1462141" color-interpolation-filters="sRGB">
      <feGaussianBlur inkscape:collect="always" stdDeviation="2.9749298" id="feGaussianBlur4180"/>
    </filter>
    <filter inkscape:collect="always" id="filter4274" x="-0.23239724" width="1.4647945" y="-0.2869288" height="1.5738575" color-interpolation-filters="sRGB">
      <feGaussianBlur inkscape:collect="always" stdDeviation="2.7285032" id="feGaussianBlur4276"/>
    </filter>
    <filter inkscape:collect="always" id="filter4398" x="-0.32107672" width="1.6421534" y="-0.30342236" height="1.6068447" color-interpolation-filters="sRGB">
      <feGaussianBlur inkscape:collect="always" stdDeviation="2.323224" id="feGaussianBlur4400"/>
    </filter>
    <filter inkscape:collect="always" id="filter4468" x="-0.19590066" width="1.3918014" y="-0.19057278" height="1.3811456" color-interpolation-filters="sRGB">
      <feGaussianBlur inkscape:collect="always" stdDeviation="1.5356972" id="feGaussianBlur4470"/>
    </filter>
    <filter inkscape:collect="always" id="filter4600" x="-0.53215927" width="2.0643184" y="-0.25853226" height="1.5170645" color-interpolation-filters="sRGB">
      <feGaussianBlur inkscape:collect="always" stdDeviation="3.5147112" id="feGaussianBlur4602"/>
    </filter>
    <filter inkscape:collect="always" id="filter4636" x="-0.055652671" width="1.1113054" y="-0.10194524" height="1.2038904" color-interpolation-filters="sRGB">
      <feGaussianBlur inkscape:collect="always" stdDeviation="2.5503373" id="feGaussianBlur4638"/>
    </filter>
    <linearGradient inkscape:collect="always" xlink:href="#linearGradient4640" id="linearGradient4646" x1="-203.94548" y1="12.805704" x2="-328.42133" y2="132.1053" gradientUnits="userSpaceOnUse"/>
    <radialGradient inkscape:collect="always" xlink:href="#linearGradient4658" id="radialGradient4664" cx="-610.48993" cy="384.46259" fx="-610.48993" fy="384.46259" r="203.98758" gradientTransform="matrix(1, 0, 0, 0.577617, 0, 162.39)" gradientUnits="userSpaceOnUse"/>
    <radialGradient inkscape:collect="always" xlink:href="#linearGradient4658" id="radialGradient4688" gradientUnits="userSpaceOnUse" gradientTransform="matrix(1, 0, 0, 0.577617, 0, 162.39)" cx="-610.48993" cy="384.46259" fx="-610.48993" fy="384.46259" r="203.98758"/>
    <radialGradient inkscape:collect="always" xlink:href="#linearGradient3034" id="radialGradient4690" gradientUnits="userSpaceOnUse" gradientTransform="matrix(1.09401, -4.80503e-08, 0, 1.51176, -1056.82, -130.815)" cx="666.42767" cy="218.74985" fx="666.42767" fy="218.74985" r="170.19107"/>
    <radialGradient inkscape:collect="always" xlink:href="#linearGradient3004" id="radialGradient4692" gradientUnits="userSpaceOnUse" gradientTransform="matrix(1.62394, -0.00748691, -0.000360782, 0.629096, -408.901, 40.0764)" cx="652.91302" cy="120.32396" fx="652.91302" fy="120.32396" r="22.391203"/>
    <linearGradient inkscape:collect="always" xlink:href="#linearGradient3893" id="linearGradient4694" gradientUnits="userSpaceOnUse" x1="-340.61539" y1="282.47845" x2="-340.7106" y2="35.042233"/>
    <radialGradient inkscape:collect="always" xlink:href="#linearGradient3012" id="radialGradient4696" gradientUnits="userSpaceOnUse" gradientTransform="matrix(1, 0, 0, 0.672568, -994.163, 39.4438)" cx="656.02954" cy="98.785294" fx="656.02954" fy="98.785294" r="167.5903"/>
    <linearGradient inkscape:collect="always" xlink:href="#linearGradient3024" id="linearGradient4698" gradientUnits="userSpaceOnUse" gradientTransform="translate(-493.225, 6.24871)" x1="22.687576" y1="223.71141" x2="321.87988" y2="223.71141"/>
    <linearGradient inkscape:collect="always" xlink:href="#linearGradient3919" id="linearGradient4700" gradientUnits="userSpaceOnUse" x1="-275.97131" y1="118.14851" x2="-258.44919" y2="95.31958"/>
    <linearGradient inkscape:collect="always" xlink:href="#linearGradient3919" id="linearGradient4702" gradientUnits="userSpaceOnUse" gradientTransform="matrix(0.965551, 0, 0, 0.981624, -13.4968, 1.57591)" spreadMethod="reflect" x1="-385.02652" y1="74.621971" x2="-320.73206" y2="31.075005"/>
    <linearGradient inkscape:collect="always" xlink:href="#linearGradient3919" id="linearGradient4704" gradientUnits="userSpaceOnUse" x1="-287.70276" y1="41.444099" x2="-252.79613" y2="85.629135"/>
    <linearGradient inkscape:collect="always" xlink:href="#linearGradient3919" id="linearGradient4706" gradientUnits="userSpaceOnUse" gradientTransform="matrix(1, 0, 0, 0.95649, 7.36417, 6.24598)" x1="-298.81757" y1="191.96951" x2="-267.56213" y2="179.65086"/>
    <linearGradient inkscape:collect="always" xlink:href="#linearGradient3919" id="linearGradient4708" gradientUnits="userSpaceOnUse" gradientTransform="translate(-499.897, 8.33161)" spreadMethod="reflect" x1="85.529564" y1="121.76687" x2="116.4623" y2="99.896385"/>
    <linearGradient inkscape:collect="always" xlink:href="#linearGradient4640" id="linearGradient4710" gradientUnits="userSpaceOnUse" x1="-203.94548" y1="12.805704" x2="-328.42133" y2="132.1053"/>
    <radialGradient inkscape:collect="always" xlink:href="#linearGradient4887" id="radialGradient4893" cx="355" cy="358.18793" fx="355" fy="358.18793" r="245" gradientTransform="matrix(1, 0, 0, 0.146557, 0, 305.693)" gradientUnits="userSpaceOnUse"/>
    <linearGradient id="linearGradient4887">
      <stop style="stop-color:#d38d5f;stop-opacity:1" offset="0" id="stop4889"/>
      <stop id="stop4901" offset="0.30810365" style="stop-color:#c37f53;stop-opacity:0;"/>
      <stop id="stop4897" offset="0.7283116" style="stop-color:#b37247;stop-opacity:0;"/>
      <stop id="stop4895" offset="0.76157665" style="stop-color:#ff7f2a;stop-opacity:0.46889952;"/>
      <stop style="stop-color:#aa5015;stop-opacity:0.49803922;" offset="0.77989447" id="stop4899"/>
      <stop style="stop-color:#552200;stop-opacity:0;" offset="1" id="stop4891"/>
    </linearGradient>
    <clipPath clipPathUnits="userSpaceOnUse" id="clipPath3462">
      <path transform="translate(0, 78.1869)" d="m 600,319.09448 a 245,75 0 1 1 -490,0 245,75 0 1 1 490,0 z" sodipodi:ry="75" sodipodi:rx="245" sodipodi:cy="319.09448" sodipodi:cx="355" id="path3464" style="fill:#552200;fill-opacity:1;fill-rule:evenodd;stroke:none" sodipodi:type="arc"/>
    </clipPath>
    <filter inkscape:collect="always" id="filter3875" x="-0.14073786" width="1.2814757" y="-0.093841024" height="1.1876822" color-interpolation-filters="sRGB">
      <feGaussianBlur inkscape:collect="always" stdDeviation="9.4069338" id="feGaussianBlur3877"/>
    </filter>
    <filter inkscape:collect="always" id="filter3230" color-interpolation-filters="sRGB">
      <feGaussianBlur inkscape:collect="always" stdDeviation="0.26362509" id="feGaussianBlur3232"/>
    </filter>
    <filter inkscape:collect="always" id="filter3238" color-interpolation-filters="sRGB">
      <feGaussianBlur inkscape:collect="always" stdDeviation="0.26904751" id="feGaussianBlur3240"/>
    </filter>
    <filter color-interpolation-filters="sRGB" inkscape:collect="always" id="filter3336" x="-0.22392321" width="1.4478464" y="-0.052209672" height="1.1044194">
      <feGaussianBlur inkscape:collect="always" stdDeviation="5.2191608" id="feGaussianBlur3338"/>
    </filter>
    <clipPath clipPathUnits="userSpaceOnUse" id="clipPath4087">
      <path transform="translate(0, 78.1869)" d="m 600,319.09448 a 245,75 0 1 1 -490,0 245,75 0 1 1 490,0 z" sodipodi:ry="75" sodipodi:rx="245" sodipodi:cy="319.09448" sodipodi:cx="355" id="path4089" style="fill:#552200;fill-opacity:1;fill-rule:evenodd;stroke:none" sodipodi:type="arc"/>
    </clipPath>
    <linearGradient id="linearGradient3223-0">
      <stop style="stop-color:#ff5555;stop-opacity:1" offset="0" id="stop3225-0"/>
      <stop style="stop-color:#ff0000;stop-opacity:0;" offset="1" id="stop3227-4"/>
    </linearGradient>
    <filter inkscape:collect="always" id="filter3206" x="-0.084552877" width="1.1691056" y="-0.27620605" height="1.5524122" color-interpolation-filters="sRGB">
      <feGaussianBlur inkscape:collect="always" stdDeviation="17.262878" id="feGaussianBlur3208"/>
    </filter>
    <radialGradient inkscape:collect="always" xlink:href="#linearGradient3223-0" id="radialGradient4204" gradientUnits="userSpaceOnUse" gradientTransform="matrix(1.78937, 3.12583e-08, -8.38578e-08, 7.41604, -807.328, -5250.88)" cx="525.66193" cy="673.53516" fx="525.66193" fy="673.53516" r="149.50005"/>
    <radialGradient inkscape:collect="always" xlink:href="#linearGradient4887" id="radialGradient4206" gradientUnits="userSpaceOnUse" gradientTransform="matrix(1, 0, 0, 0.146557, 0, 305.693)" cx="355" cy="358.18793" fx="355" fy="358.18793" r="245"/>
    <radialGradient inkscape:collect="always" xlink:href="#linearGradient4658" id="radialGradient4210" gradientUnits="userSpaceOnUse" gradientTransform="matrix(1, 0, 0, 0.577617, 0, 162.39)" cx="-610.48993" cy="384.46259" fx="-610.48993" fy="384.46259" r="203.98758"/>
    <linearGradient inkscape:collect="always" xlink:href="#linearGradient3919" id="linearGradient4221" gradientUnits="userSpaceOnUse" gradientTransform="matrix(1.09386, 0, 0, 1.09386, 63.1798, 101.091)" spreadMethod="reflect" x1="85.529564" y1="121.76687" x2="116.4623" y2="99.896385"/>
    <linearGradient inkscape:collect="always" xlink:href="#linearGradient3919" id="linearGradient4224" gradientUnits="userSpaceOnUse" gradientTransform="matrix(1.09386, 0, 0, 1.04627, 618.053, 98.81)" x1="-298.81757" y1="191.96951" x2="-267.56213" y2="179.65086"/>
    <linearGradient inkscape:collect="always" xlink:href="#linearGradient3919" id="linearGradient4227" gradientUnits="userSpaceOnUse" x1="-287.70276" y1="41.444099" x2="-252.79613" y2="85.629135" gradientTransform="matrix(1.09386, 0, 0, 1.09386, 609.998, 91.9777)"/>
    <linearGradient inkscape:collect="always" xlink:href="#linearGradient3919" id="linearGradient4230" gradientUnits="userSpaceOnUse" gradientTransform="matrix(1.05618, 0, 0, 1.07376, 595.234, 93.7016)" spreadMethod="reflect" x1="-385.02652" y1="74.621971" x2="-320.73206" y2="31.075005"/>
    <linearGradient inkscape:collect="always" xlink:href="#linearGradient3919" id="linearGradient4233" gradientUnits="userSpaceOnUse" x1="-275.97131" y1="118.14851" x2="-258.44919" y2="95.31958" gradientTransform="matrix(1.09386, 0, 0, 1.09386, 609.998, 91.9777)"/>
    <radialGradient inkscape:collect="always" xlink:href="#linearGradient3012" id="radialGradient4238" gradientUnits="userSpaceOnUse" gradientTransform="matrix(1.09386, 0, 0, 0.735697, -477.48, 135.124)" cx="656.02954" cy="98.785294" fx="656.02954" fy="98.785294" r="167.5903"/>
    <radialGradient inkscape:collect="always" xlink:href="#linearGradient3034" id="radialGradient4243" gradientUnits="userSpaceOnUse" gradientTransform="matrix(1.1967, -5.25605e-08, 0, 1.65366, -546.014, -51.1161)" cx="666.42767" cy="218.74985" fx="666.42767" fy="218.74985" r="170.19107"/>
    <radialGradient inkscape:collect="always" xlink:href="#linearGradient3223-0" id="radialGradient4257" gradientUnits="userSpaceOnUse" gradientTransform="matrix(-1.07649, 1.88051e-08, 5.04492e-08, 4.46152, 751.492, -3124.21)" cx="525.66193" cy="673.53516" fx="525.66193" fy="673.53516" r="149.50005"/>
    <radialGradient inkscape:collect="always" xlink:href="#linearGradient4658" id="radialGradient4261" gradientUnits="userSpaceOnUse" gradientTransform="matrix(1, 0, 0, 0.577617, 0, 162.39)" cx="-610.48993" cy="384.46259" fx="-610.48993" fy="384.46259" r="203.98758"/>
    <radialGradient inkscape:collect="always" xlink:href="#linearGradient4658" id="radialGradient4298" gradientUnits="userSpaceOnUse" gradientTransform="matrix(1, 0, 0, 0.577617, 0, 162.39)" cx="-610.48993" cy="384.46259" fx="-610.48993" fy="384.46259" r="203.98758"/>
    <radialGradient inkscape:collect="always" xlink:href="#linearGradient3223-0" id="radialGradient4300" gradientUnits="userSpaceOnUse" gradientTransform="matrix(-1.07649, 1.88051e-08, 5.04492e-08, 4.46152, 751.492, -3124.21)" cx="525.66193" cy="673.53516" fx="525.66193" fy="673.53516" r="149.50005"/>
    <radialGradient inkscape:collect="always" xlink:href="#linearGradient4887" id="radialGradient4302" gradientUnits="userSpaceOnUse" gradientTransform="matrix(1, 0, 0, 0.146557, 0, 305.693)" cx="355" cy="358.18793" fx="355" fy="358.18793" r="245"/>
    <radialGradient inkscape:collect="always" xlink:href="#linearGradient4658" id="radialGradient4304" gradientUnits="userSpaceOnUse" gradientTransform="matrix(1, 0, 0, 0.577617, 0, 162.39)" cx="-610.48993" cy="384.46259" fx="-610.48993" fy="384.46259" r="203.98758"/>
    <radialGradient inkscape:collect="always" xlink:href="#linearGradient3034" id="radialGradient4306" gradientUnits="userSpaceOnUse" gradientTransform="matrix(1.1967, -5.25605e-08, 0, 1.65366, -546.014, -51.1161)" cx="666.42767" cy="218.74985" fx="666.42767" fy="218.74985" r="170.19107"/>
    <radialGradient inkscape:collect="always" xlink:href="#linearGradient3004" id="radialGradient4308" gradientUnits="userSpaceOnUse" gradientTransform="matrix(1.62394, -0.00748691, -0.000360782, 0.629096, -408.901, 40.0764)" cx="652.91302" cy="120.32396" fx="652.91302" fy="120.32396" r="22.391203"/>
    <linearGradient inkscape:collect="always" xlink:href="#linearGradient3893" id="linearGradient4310" gradientUnits="userSpaceOnUse" x1="-340.61539" y1="282.47845" x2="-340.7106" y2="35.042233"/>
    <radialGradient inkscape:collect="always" xlink:href="#linearGradient3012" id="radialGradient4312" gradientUnits="userSpaceOnUse" gradientTransform="matrix(1.09386, 0, 0, 0.735697, -477.48, 135.124)" cx="656.02954" cy="98.785294" fx="656.02954" fy="98.785294" r="167.5903"/>
    <linearGradient inkscape:collect="always" xlink:href="#linearGradient3024" id="linearGradient4314" gradientUnits="userSpaceOnUse" gradientTransform="translate(-493.225, 6.24871)" x1="22.687576" y1="223.71141" x2="321.87988" y2="223.71141"/>
    <linearGradient inkscape:collect="always" xlink:href="#linearGradient3919" id="linearGradient4316" gradientUnits="userSpaceOnUse" gradientTransform="matrix(1.09386, 0, 0, 1.09386, 609.998, 91.9777)" x1="-275.97131" y1="118.14851" x2="-258.44919" y2="95.31958"/>
    <linearGradient inkscape:collect="always" xlink:href="#linearGradient3919" id="linearGradient4318" gradientUnits="userSpaceOnUse" gradientTransform="matrix(1.05618, 0, 0, 1.07376, 595.234, 93.7016)" spreadMethod="reflect" x1="-385.02652" y1="74.621971" x2="-320.73206" y2="31.075005"/>
    <linearGradient inkscape:collect="always" xlink:href="#linearGradient3919" id="linearGradient4320" gradientUnits="userSpaceOnUse" gradientTransform="matrix(1.09386, 0, 0, 1.09386, 609.998, 91.9777)" x1="-287.70276" y1="41.444099" x2="-252.79613" y2="85.629135"/>
    <linearGradient inkscape:collect="always" xlink:href="#linearGradient3919" id="linearGradient4322" gradientUnits="userSpaceOnUse" gradientTransform="matrix(1.09386, 0, 0, 1.04627, 618.053, 98.81)" x1="-298.81757" y1="191.96951" x2="-267.56213" y2="179.65086"/>
    <linearGradient inkscape:collect="always" xlink:href="#linearGradient3919" id="linearGradient4324" gradientUnits="userSpaceOnUse" gradientTransform="matrix(1.09386, 0, 0, 1.09386, 63.1798, 101.091)" spreadMethod="reflect" x1="85.529564" y1="121.76687" x2="116.4623" y2="99.896385"/>
    <linearGradient inkscape:collect="always" xlink:href="#linearGradient4640" id="linearGradient4326" gradientUnits="userSpaceOnUse" x1="-203.94548" y1="12.805704" x2="-328.42133" y2="132.1053"/>
  </defs>
  <sodipodi:namedview pagecolor="#ffffff" bordercolor="#666666" borderopacity="1" objecttolerance="10" gridtolerance="10" guidetolerance="10" inkscape:pageopacity="0" inkscape:pageshadow="2" inkscape:window-width="1280" inkscape:window-height="969" id="namedview4" showgrid="false" inkscape:zoom="0.37320216" inkscape:cx="-226.18963" inkscape:cy="239.95317" inkscape:window-x="0" inkscape:window-y="26" inkscape:window-maximized="1" inkscape:current-layer="svg2"/>
  <g id="g4263" transform="matrix(0.989371, 0, 0, 0.989371, 156.829, 315.827)">
    <path sodipodi:type="arc" style="opacity:0.8428094;fill:url(#radialGradient4298);fill-opacity:1;stroke:none" id="path4208" sodipodi:cx="-610.48993" sodipodi:cy="384.46259" sodipodi:rx="203.98758" sodipodi:ry="117.82677" d="m -406.50235,384.46259 c 0,65.07392 -91.32835,117.82676 -203.98758,117.82676 -112.65923,0 -203.98758,-52.75284 -203.98758,-117.82676 0,-65.07393 91.32835,-117.82677 203.98758,-117.82677 112.65923,0 203.98758,52.75284 203.98758,117.82677 z" transform="matrix(1.09386, 0, 0, 1.09386, 826.068, -239.838)"/>
    <path sodipodi:type="arc" style="fill:#616161;fill-opacity:1;fill-rule:evenodd;stroke:none;display:inline;filter:url(#filter3206)" id="path2388" sodipodi:cx="355" sodipodi:cy="319.09448" sodipodi:rx="245" sodipodi:ry="75" d="m 600,319.09448 c 0,41.42136 -109.69024,75 -245,75 -135.30976,0 -245,-33.57864 -245,-75 0,-41.42135 109.69024,-75 245,-75 135.30976,0 245,33.57865 245,75 z" transform="matrix(-0.667818, 0, 0, 0.505838, 431.162, 34.9739)"/>
    <path sodipodi:nodetypes="ccccc" id="path2384" d="m 367.29417,-272.50504 0,462.23136 c -8.43346,76.58487 -335.002541,66.41006 -346.384,0 l 0,-462.23136 346.384,0 z" style="fill:#e2001a;fill-opacity:0.92941176;stroke:none;display:inline" inkscape:connector-curvature="0"/>
    <path style="fill:url(#radialGradient4300);fill-opacity:1;stroke:none;display:inline" d="m 346.55652,-249.43714 0,443.30484 c 24.21603,46.32532 -277.928122,85.50509 -321.871639,0 l 0,-443.30484 321.871639,0 z" id="path3221" sodipodi:nodetypes="ccccc" inkscape:connector-curvature="0"/>
    <path sodipodi:nodetypes="csssc" id="path2386" d="m 20.979974,-272.52707 c 0,20.47381 76.869557,37.07128 172.520856,37.07128 95.6513,0 173.69538,-16.09391 173.69538,-36.56789 0,-20.47381 -78.04408,-37.57468 -173.69538,-37.57468 -95.651299,0 -172.520856,16.59731 -172.520856,37.07129 z" style="fill:#800000;fill-opacity:1;fill-rule:evenodd;stroke:none;display:inline" inkscape:connector-curvature="0"/>
    <path sodipodi:type="arc" style="fill:#aa0000;fill-opacity:1;fill-rule:evenodd;stroke:none;display:inline" id="path3210" sodipodi:cx="355" sodipodi:cy="319.09448" sodipodi:rx="245" sodipodi:ry="75" d="m 600,319.09448 c 0,41.42136 -109.69024,75 -245,75 -135.30976,0 -245,-33.57864 -245,-75 0,-41.42135 109.69024,-75 245,-75 135.30976,0 245,33.57865 245,75 z" transform="matrix(-0.66784, 0, 0, 0.414331, 431.946, -405.346)"/>
    <path clip-path="url(#clipPath3462)" transform="matrix(-0.657119, 0, 0, 0.430228, 428.14, -410.297)" d="m 600,319.09448 c 0,41.42136 -109.69024,75 -245,75 -135.30976,0 -245,-33.57864 -245,-75 0,-41.42135 109.69024,-75 245,-75 135.30976,0 245,33.57865 245,75 z" sodipodi:ry="75" sodipodi:rx="245" sodipodi:cy="319.09448" sodipodi:cx="355" id="path3456" style="fill:#552200;fill-opacity:1;fill-rule:evenodd;stroke:none;display:inline" sodipodi:type="arc"/>
    <path transform="matrix(-0.557932, 0, 0, 1.81671, 580.055, -1335.86)" sodipodi:nodetypes="ccccc" id="path3797" d="m 458.46229,609.60775 c -21.30677,-2.65653 -36.21241,-2.11122 -55.19613,-10.48076 l -0.74263,228.58379 c 2.25287,5.32747 12.65741,10.04416 19.31938,11.33317 12.8257,-76.32936 -24.02435,-157.20552 36.61938,-229.4362 z" style="fill:#ff5555;fill-opacity:1;stroke:none;display:inline;filter:url(#filter3336)" inkscape:connector-curvature="0"/>
    <path transform="matrix(-1.91016, 0, 0, 1.70938, 434.042, -435.871)" d="m 218.84803,296.50427 c 0,12.11724 -2.60458,21.94021 -5.81748,21.94021 -3.21291,0 -5.81748,-9.82297 -5.81748,-21.94021 0,-12.11724 2.60457,-21.94021 5.81748,-21.94021 3.2129,0 5.81748,9.82297 5.81748,21.94021 z" sodipodi:ry="21.940208" sodipodi:rx="5.8174796" sodipodi:cy="296.50427" sodipodi:cx="213.03055" id="path2430" style="fill:#800000;fill-opacity:1;fill-rule:evenodd;stroke:none;display:inline;filter:url(#filter3238)" sodipodi:type="arc"/>
    <path transform="matrix(-1.91016, 0, 0, 1.58276, 433.626, -628.095)" d="m 218.84803,296.50427 c 0,12.11724 -2.60458,21.94021 -5.81748,21.94021 -3.21291,0 -5.81748,-9.82297 -5.81748,-21.94021 0,-12.11724 2.60457,-21.94021 5.81748,-21.94021 3.2129,0 5.81748,9.82297 5.81748,21.94021 z" sodipodi:ry="21.940208" sodipodi:rx="5.8174796" sodipodi:cy="296.50427" sodipodi:cx="213.03055" id="path2430-1" style="fill:#800000;fill-opacity:1;fill-rule:evenodd;stroke:none;display:inline;filter:url(#filter3230)" sodipodi:type="arc"/>
    <path style="fill:#aa0000;fill-opacity:1;stroke:none;display:inline" d="m 11.44678,-134.81949 c -142.9522,16.90604 -159.2157,166.542305 4.036403,178.598572 C 40.982805,-7.5537517 47.758576,146.92562 13.124757,96.459693 -199.17972,58.421405 -188.41191,-175.21596 14.792331,-183.05847 c 26.490422,-47.88473 31.964328,95.749581 -3.345551,48.23898 z" id="path3741" sodipodi:nodetypes="ccccc" inkscape:connector-curvature="0"/>
    <path transform="matrix(-0.960387, 0, 0, 1.09109, 628.411, -777.758)" sodipodi:nodetypes="ccccc" id="path3771" d="m 630.16586,551.33414 11.1508,22.49833 c 173.0056,1.40589 181.19111,204.29489 0.8535,208.51819 -0.91621,24.46789 -1.93652,5.65767 0.0668,9.56739 208.77783,-32.55806 202.54726,-228.80095 -12.0711,-240.58391 z" style="opacity:0.85;fill:#ff5555;fill-opacity:1;stroke:none;display:inline;filter:url(#filter3875)" inkscape:connector-curvature="0"/>
    <path sodipodi:type="arc" style="fill:url(#radialGradient4302);fill-opacity:1;fill-rule:evenodd;stroke:none;display:inline" id="path4885" sodipodi:cx="355" sodipodi:cy="319.09448" sodipodi:rx="245" sodipodi:ry="75" d="m 600,319.09448 c 0,41.42136 -109.69024,75 -245,75 -135.30976,0 -245,-33.57864 -245,-75 0,-41.42135 109.69024,-75 245,-75 135.30976,0 245,33.57865 245,75 z" transform="matrix(-0.657119, 0, 0, 0.430228, 428.14, -410.297)" clip-path="url(#clipPath3462)"/>
    <path transform="matrix(1.09386, 0, 0, 1.09386, 914.492, -114.24)" d="m -406.50235,384.46259 c 0,65.07392 -91.32835,117.82676 -203.98758,117.82676 -112.65923,0 -203.98758,-52.75284 -203.98758,-117.82676 0,-65.07393 91.32835,-117.82677 203.98758,-117.82677 112.65923,0 203.98758,52.75284 203.98758,117.82677 z" sodipodi:ry="117.82677" sodipodi:rx="203.98758" sodipodi:cy="384.46259" sodipodi:cx="-610.48993" id="path4648" style="opacity:0.8428094;fill:url(#radialGradient4304);fill-opacity:1;stroke:none" sodipodi:type="arc"/>
    <path sodipodi:nodetypes="caaassaaaaccc" inkscape:connector-curvature="0" id="path2987" d="m 69.481112,200.78329 c 0,0 -8.462297,28.8495 -7.249849,43.49914 0.819435,9.90113 6.914252,18.64771 9.666466,28.19387 3.897192,13.51756 0.754371,30.19734 9.666476,41.08251 40.417355,49.36546 79.256145,81.71374 173.996535,79.74842 61.35483,-1.27276 95.74803,-8.35912 154.66357,-70.08194 11.36996,-11.91174 18.87484,-28.69166 20.13849,-45.1102 0.23494,-3.05249 -2.68202,-5.81094 -2.41662,-8.86094 0.43732,-5.02591 5.97539,-8.67111 6.44431,-13.69417 0.69616,-7.45712 -5.66376,-14.26006 -5.63877,-21.74956 0.0241,-7.22478 5.57934,-20.94403 5.57934,-20.94403 L 168.56247,141.17337 z" style="fill:url(#radialGradient4306);fill-opacity:1;stroke:none"/>
    <path transform="matrix(1.76453, 0, 0, 1.98665, -919.309, 1.5159)" d="m 683.19205,103.72271 c 0,4.31383 -10.02489,7.81088 -22.39121,7.81088 -12.36632,0 -22.3912,-3.49705 -22.3912,-7.81088 0,-4.313833 10.02488,-7.810885 22.3912,-7.810885 12.36632,0 22.39121,3.497052 22.39121,7.810885 z" sodipodi:ry="7.810885" sodipodi:rx="22.391203" sodipodi:cy="103.72271" sodipodi:cx="660.80084" id="path2994" style="opacity:0.63210701;fill:url(#radialGradient4308);fill-opacity:1;stroke:none" sodipodi:type="arc"/>
    <path transform="matrix(1.09386, 0, 0, 1.09386, 609.998, 91.9777)" inkscape:connector-curvature="0" id="path3887" d="m -308.0625,6.75 c -1.95529,0.014502 -3.84335,0.09528 -5.59375,0.28125 -25.51942,2.7112958 -38.30729,0.2826618 -57.5625,1.96875 -10.85479,0.9505038 -22.00415,1.425848 -32.625,4.625 -7.8828,2.374407 -15.05654,6.565899 -22.09375,10.5 -7.42562,4.151243 -14.43324,8.976028 -21.34375,13.84375 -4.07104,2.867618 -8.24897,5.73541 -12,9.15625 -7.52222,6.860077 -15.35672,13.878522 -20.84375,22.6875 -2.89259,4.64382 -7.08064,9.923271 -10,15.375 -2.91936,5.451729 -4.61361,11.227498 -2.125,16.6875 0.85106,1.86724 2.56123,2.86229 4.4375,3.34375 1.87627,0.48146 3.98686,0.54444 6.03125,0.625 2.04439,0.0806 4.04434,0.18356 5.5625,0.59375 1.51816,0.41019 2.47255,1.02431 2.96875,2.25 0.46605,1.1512 -0.003,2.32917 -1,3.78125 -0.99698,1.45208 -2.43575,2.97061 -3.4375,4.5625 -2.36918,3.76485 -6.58648,7.59524 -10.28125,11.3125 -3.69477,3.71726 -7.00237,7.28545 -7.21875,11.15625 -1.03753,18.56009 8.75678,36.23877 20.78125,49.28125 10.95867,11.88645 26.87918,23.63235 43.375,22.53125 2.81021,-0.18758 4.79686,-2.08897 6.59375,-3.9375 1.79689,-1.84853 3.46486,-3.69668 5.375,-4.375 1.88281,-0.66862 4.02762,-1.41381 6,-1.71875 1.97238,-0.30494 3.70232,-0.16764 5.03125,0.78125 1.39714,0.99759 1.76996,2.0193 1.78125,3.3125 0.0113,1.2932 -0.45668,2.86164 -1.0625,4.46875 -0.60582,1.60711 -1.32707,3.22501 -1.625,4.84375 -0.29793,1.61874 -0.0952,3.3804 1.25,4.625 5.70125,5.27502 13.51812,7.44249 21.75,8.71875 8.23188,1.27626 16.92155,1.66909 24.53125,3.21875 24.07943,4.90363 52.01207,4.25572 71.25,-6.5 0.76959,-0.43027 1.34651,-1.13507 1.46875,-1.9375 0.12224,-0.80243 -0.13716,-1.57206 -0.53125,-2.28125 -0.78818,-1.41839 -2.20019,-2.81892 -3.875,-4.34375 -3.34962,-3.04966 -7.7637,-6.45629 -9.65625,-8.96875 -2.19706,-2.9167 -5.36214,-5.44368 -7.84375,-8.0625 -2.48161,-2.61882 -4.17729,-5.20384 -3.875,-8.21875 0.17366,-1.73202 1.28276,-3.23453 2.9375,-4.5625 1.65474,-1.32797 3.80346,-2.41039 5.6875,-3.3125 1.31302,-0.62869 2.90446,-0.6825 4.6875,-0.6875 1.78304,-0.005 3.73586,0.0497 5.59375,-0.71875 1.27669,-0.52806 2.02472,-1.59914 2.71875,-2.375 0.69403,-0.77586 1.2283,-1.20159 1.78125,-1.21875 4.34813,-0.1349 8.13846,1.47915 11.78125,4.09375 3.64279,2.6146 7.07186,6.22639 10.53125,9.96875 6.91878,7.48472 13.97141,15.57889 23.65625,16.625 4.3176,0.46637 8.336,-1.04877 12.125,-3 3.789,-1.95123 7.39983,-4.37524 11,-5.90625 6.25191,-2.65869 13.97657,-3.82153 19.28125,-8.96875 2.65465,-2.57586 3.91602,-5.97837 5.0625,-9.3125 1.14648,-3.33413 2.19428,-6.61454 4.15625,-9.09375 2.91955,-3.68925 8.02432,-5.65964 11.65625,-9.65625 8.385,-9.22696 17.25164,-19.167 21.28125,-31.25 2.64918,-7.9437 3.34644,-16.98473 1.125,-25.125 -3.21215,-11.770632 -13.38306,-20.039644 -19.40625,-29.875 -10.93954,-17.863332 -25.58618,-32.275279 -42.75,-42.90625 -12.79056,-7.922254 -28.52023,-13.563338 -42.875,-18.875 -11.73995,-4.344105 -29.91868,-8.1329068 -43.625,-8.03125 z m 0,2 c 13.32044,-0.098795 31.47687,3.665501 42.9375,7.90625 14.36785,5.316502 29.97334,10.928696 42.5,18.6875 16.90872,10.472971 31.31927,24.687462 42.09375,42.28125 6.27609,10.24831 16.19955,18.363438 19.1875,29.3125 2.0941,7.67365 1.44299,16.39346 -1.09375,24 -3.85421,11.55708 -12.46917,21.2845 -20.84375,30.5 -3.19329,3.51393 -8.37181,5.51246 -11.75,9.78125 -2.27124,2.87002 -3.36621,6.39029 -4.5,9.6875 -1.13379,3.29721 -2.32144,6.3567 -4.5625,8.53125 -4.70096,4.56142 -12.0784,5.79646 -18.65625,8.59375 -3.84302,1.63428 -7.50392,4.05665 -11.15625,5.9375 -3.65233,1.88085 -7.24485,3.18349 -10.96875,2.78125 -8.67603,-0.93714 -15.46744,-8.46237 -22.40625,-15.96875 -3.4694,-3.75319 -6.94522,-7.47427 -10.8125,-10.25 -3.86728,-2.77573 -8.14999,-4.62019 -13.03125,-4.46875 -1.47077,0.0456 -2.43332,1.06315 -3.1875,1.90625 -0.75418,0.8431 -1.40572,1.5667 -2,1.8125 -1.36001,0.56252 -3.0446,0.58871 -4.84375,0.59375 -1.79915,0.005 -3.7347,-1.7e-4 -5.5625,0.875 -1.92152,0.92006 -4.18011,2.08308 -6.0625,3.59375 -1.88239,1.51067 -3.44023,3.44 -3.6875,5.90625 -0.38768,3.86657 1.78691,7.01709 4.40625,9.78125 2.61934,2.76416 5.75467,5.26759 7.71875,7.875 2.24133,2.97547 6.66241,6.29665 9.90625,9.25 1.62192,1.47667 2.9231,2.86181 3.46875,3.84375 0.27282,0.49097 0.33629,0.84381 0.3125,1 -0.0238,0.15619 -0.0645,0.27401 -0.46875,0.5 -18.54301,10.3672 -46.12963,11.14811 -69.875,6.3125 -7.83428,-1.5954 -16.54433,-1.99718 -24.625,-3.25 -8.08067,-1.25282 -15.45791,-3.34889 -20.6875,-8.1875 -0.77638,-0.71834 -0.89146,-1.53452 -0.65625,-2.8125 0.23521,-1.27798 0.90569,-2.87178 1.53125,-4.53125 0.62556,-1.65947 1.20303,-3.4082 1.1875,-5.1875 -0.0155,-1.7793 -0.78067,-3.58935 -2.625,-4.90625 -1.9175,-1.36914 -4.255,-1.47209 -6.5,-1.125 -2.245,0.34709 -4.46749,1.14621 -6.34375,1.8125 -2.58759,0.9189 -4.37753,3.04605 -6.125,4.84375 -1.74747,1.7977 -3.36039,3.21345 -5.3125,3.34375 -15.45414,1.03156 -31.03506,-10.25028 -41.78125,-21.90625 -11.78069,-12.77806 -21.24417,-29.99672 -20.25,-47.78125 0.151,-2.70127 3.01406,-6.17939 6.65625,-9.84375 3.64219,-3.66436 7.92813,-7.55088 10.53125,-11.6875 0.82659,-1.31354 2.27265,-2.84893 3.40625,-4.5 1.1336,-1.65107 2.00963,-3.62548 1.1875,-5.65625 -0.77016,-1.9024 -2.46224,-2.93758 -4.3125,-3.4375 -1.85026,-0.49992 -3.92182,-0.57559 -5.96875,-0.65625 -2.04693,-0.0807 -4.06622,-0.16251 -5.625,-0.5625 -1.55878,-0.39999 -2.57644,-1.01522 -3.125,-2.21875 -2.12533,-4.662983 -0.73241,-9.718183 2.0625,-14.9375 2.79491,-5.219317 6.94824,-10.450991 9.9375,-15.25 5.28493,-8.484522 12.9683,-15.381283 20.5,-22.25 3.61697,-3.298574 7.73116,-6.156372 11.8125,-9.03125 6.89831,-4.859126 13.83865,-9.627895 21.15625,-13.71875 7.05867,-3.946097 14.1075,-8.029297 21.6875,-10.3125 10.30181,-3.10305 21.33687,-3.606888 32.25,-4.5625 19.01043,-1.664654 31.88021,0.76317 57.59375,-1.96875 1.66676,-0.1770843 3.46933,-0.267116 5.375,-0.28125 z m -22.09375,76.1875 c -7.92861,0.03293 -16.44915,0.331108 -23.875,3.75 -4.47574,2.060649 -9.1292,5.201978 -11.40625,9.84375 -0.80959,1.65036 -1.47888,3.63672 -1.6875,5.65625 -0.20862,2.01953 0.0457,4.11466 1.28125,5.78125 2.79159,3.76564 7.2486,5.13572 11.90625,5.71875 4.65765,0.58303 9.63782,0.42742 13.78125,0.9375 7.32456,0.90169 14.78116,0.82051 22.09375,0 3.79077,-0.42534 8.40017,-0.24999 11.9375,-2.8125 2.80616,-2.03284 3.88844,-5.46332 5,-8.25 0.56357,-1.41288 1.42801,-3.04314 2,-4.75 0.57199,-1.706858 0.87572,-3.585764 0.0937,-5.375 -1.1039,-2.525837 -3.32684,-4.09192 -5.75,-5.21875 -2.42316,-1.12683 -5.11791,-1.845033 -7.34375,-2.625 -5.77875,-2.024952 -11.99124,-2.681332 -18.03125,-2.65625 z m 0,2 c 5.88995,-0.02446 11.89491,0.61095 17.375,2.53125 2.32558,0.814914 4.95011,1.536589 7.15625,2.5625 2.20614,1.025911 3.92254,2.325432 4.75,4.21875 0.49975,1.143481 0.37386,2.448863 -0.125,3.9375 -0.49886,1.48864 -1.34652,3.06508 -1.96875,4.625 -1.13834,2.8538 -2.23207,5.84526 -4.34375,7.375 -2.80535,2.03225 -6.97628,1.98952 -10.96875,2.4375 -7.17679,0.80527 -14.47848,0.87977 -21.625,0 -4.38025,-0.53923 -9.34844,-0.38262 -13.78125,-0.9375 -4.43281,-0.55488 -8.23963,-1.77286 -10.5625,-4.90625 -0.83448,-1.12566 -1.08242,-2.66962 -0.90625,-4.375 0.17617,-1.70538 0.81002,-3.52977 1.53125,-5 1.95171,-3.97857 6.19152,-6.951381 10.4375,-8.90625 6.93485,-3.192838 15.15036,-3.529768 23.03125,-3.5625 z" style="font-size:medium;font-style:normal;font-variant:normal;font-weight:normal;font-stretch:normal;text-indent:0;text-align:start;text-decoration:none;line-height:normal;letter-spacing:normal;word-spacing:normal;text-transform:none;direction:ltr;block-progression:tb;writing-mode:lr-tb;text-anchor:start;baseline-shift:baseline;color:#000000;fill:url(#linearGradient4310);fill-opacity:1;stroke:none;stroke-width:2;marker:none;visibility:visible;display:inline;overflow:visible;filter:url(#filter3905);enable-background:accumulate;font-family:Sans;-inkscape-font-specification:Sans"/>
    <path inkscape:connector-curvature="0" id="path2989" d="m 273.01225,100.45517 c -2.11168,0.0157 -4.11311,0.10909 -5.98206,0.30765 -28.02092,2.97707 -42.07099,0.32092 -62.99967,2.15355 -11.90555,1.04251 -24.03891,1.57806 -35.48217,5.02493 -8.45709,2.54739 -16.21877,7.07308 -23.92825,11.38301 -8.06353,4.50786 -15.69211,9.75488 -23.24458,15.07479 -4.4588,3.14076 -8.99402,6.27226 -13.02381,9.94732 -8.23346,7.50871 -16.737761,15.11937 -22.629284,24.57773 -6.433937,10.32916 -18.241737,22.97332 -13.19472,34.04648 3.061985,6.71801 18.047128,0.64272 20.817577,7.48612 1.409092,3.48064 -2.956613,6.94009 -4.956566,10.11823 -5.439014,8.64313 -18.56982,16.87604 -18.971683,24.06499 -1.111201,19.87801 9.438581,38.96446 22.458371,53.08652 11.871065,12.87609 29.083095,25.47069 46.557535,24.30427 5.20932,-0.34772 7.89881,-7.27723 12.8187,-9.02437 4.11191,-1.46021 9.50684,-3.42437 13.05799,-0.88876 7.09145,5.06347 -4.16281,14.67731 0.47857,18.97168 11.95684,11.06292 33.21899,9.34426 50.11259,12.78452 26.15688,5.3267 56.52211,4.54523 77.18569,-7.00756 5.13592,-2.87142 -9.59577,-11.56713 -14.11767,-17.57017 -4.55171,-6.04262 -13.81272,-11.03409 -13.05798,-18.56148 0.46044,-4.59233 5.8871,-7.50973 10.04986,-9.50294 3.43563,-1.64501 7.7947,-0.11653 11.31464,-1.57242 2.04659,-0.8465 3.08473,-3.93075 5.2984,-3.99944 20.19139,-0.62642 30.37015,31.39851 50.45442,33.56791 8.7963,0.95014 16.60682,-6.17727 24.74865,-9.63966 7.017,-2.98405 15.27681,-4.29552 20.74921,-9.60548 5.35523,-5.1963 5.35095,-14.18004 9.9815,-20.03137 3.44443,-4.3525 9.08578,-6.52323 12.8187,-10.63098 9.16634,-10.08676 18.72758,-20.84351 23.03949,-33.77301 2.83634,-8.50491 3.55671,-18.21888 1.19641,-26.868 -3.39103,-12.42612 -14.36418,-21.38712 -21.09104,-32.37151 -11.87608,-19.39261 -27.78546,-35.04931 -46.4208,-46.59172 -13.84679,-8.57646 -30.98497,-14.73123 -46.69427,-20.54411 -12.68913,-4.69532 -32.56197,-8.82635 -47.34375,-8.71672 z m -24.16753,85.5264 c 6.52487,-0.0271 13.22406,0.67943 19.38188,2.83721 4.97863,1.74458 11.56064,3.16492 13.67328,7.99887 1.40203,3.20799 -0.99317,6.96895 -2.29027,10.22078 -1.23054,3.08496 -2.43776,6.59732 -5.12748,8.5458 -3.46902,2.51302 -8.25416,2.39375 -12.51106,2.87139 -7.9247,0.88919 -16.01356,0.97434 -23.92825,0 -9.32374,-1.1478 -21.75205,0.70995 -27.34657,-6.83664 -2.26427,-3.05434 -1.12757,-7.96951 0.54693,-11.38301 2.31284,-4.71473 7.19394,-8.05875 11.96413,-10.25496 7.85431,-3.61616 16.99069,-3.96353 25.63741,-3.99944 z" style="fill:url(#radialGradient4312);fill-opacity:1;stroke:none"/>
    <path transform="matrix(1.09386, 0, 0, 1.09386, 609.998, 91.9777)" sodipodi:nodetypes="aaaaaaasaaaasaaaaaaasaaaaaaaa" inkscape:connector-curvature="0" id="path3022" d="m -464.58533,212.03365 c 9.47252,11.23125 20.63757,22.36893 34.36789,27.59846 6.33443,2.41263 13.87326,-1.08834 20.3083,1.04145 5.94139,1.96641 9.89843,7.88268 15.62177,10.41451 10.47184,4.63242 22.10465,6.05349 33.32645,8.33161 8.78146,1.78271 17.5991,3.94693 26.55701,4.16581 4.88646,0.1194 9.69596,-1.3754 14.58031,-1.56218 11.45285,-0.43796 19.84443,5.35742 34.3679,1.04145 6.3357,-1.8828 12.90143,-2.90673 19.26684,-4.68653 10.5207,-2.94165 21.58591,-4.78805 31.24354,-9.89379 8.19632,-4.33318 14.32761,-11.79309 21.87048,-17.18394 9.08737,-6.4947 19.75117,-10.8269 28.11919,-18.2254 5.26131,-4.65173 14.51451,-14.499 13.53886,-16.14249 -3.98232,-6.70823 -13.07141,8.52847 -19.78757,12.49741 -9.89871,5.84968 -20.8014,10.04278 -30.20209,16.66322 -6.43484,4.53174 -10.67074,12.09081 -17.70467,15.62177 -9.03605,4.536 -20.02818,3.24179 -29.68137,6.24871 -7.72518,2.40635 -14.45835,7.77968 -22.3912,9.37306 -3.40353,0.68363 -7.15268,1.18819 -10.41451,0 -5.32489,-1.93969 -7.68529,-9.01757 -13.01814,-10.93524 -19.76431,-7.10716 3.10255,13.27786 -63.00781,0.52073 -6.74227,-1.30104 -14.93022,-0.87443 -19.78757,-5.72799 -3.96348,-3.96037 -0.57874,-12.33201 -4.68654,-16.14249 -2.47084,-2.29201 -6.53197,-2.32077 -9.89378,-2.0829 -4.05316,0.28678 -7.39288,4.12473 -11.45597,4.1658 -8.0685,0.0816 -15.69723,-4.19763 -22.91193,-7.81088 -7.14592,-3.57881 -13.44631,-8.67466 -19.78757,-13.53887 -1.26975,-0.97399 -2.40542,-4.13635 -3.64508,-3.12435 -2.7687,2.26025 2.90295,6.64092 5.20726,9.37306 z" style="fill:url(#linearGradient4314);stroke:none;filter:url(#filter3882)"/>
    <path sodipodi:nodetypes="sssssssscssccscssscscssscssscscscsssssscsssscsssssssscccccsc" inkscape:connector-curvature="0" id="path3044" d="m 686.28125,31.21875 c -1.34859,0.01 -2.45987,0.04769 -3.1875,0.125 -27.8934,2.963518 -41.76951,0.607286 -58.03125,2.03125 -11.56823,1.012976 -20.96838,1.663604 -27.6875,3.6875 -4.17988,1.259037 -9.91911,4.325439 -17.21875,8.40625 -6.10463,3.41275 -12.42623,7.737404 -19.1875,12.5 -4.19709,2.95641 -7.48227,5.324386 -9.59375,7.25 -7.63809,6.965749 -13.57827,12.690145 -16.59375,17.53125 -1.13857,1.827885 -1.52151,2.357023 -2.5625,3.90625 4.47257,2.87249 9.03358,7.060113 11.375,12.84375 4.8207,11.90775 -0.8322,22.9269 -3.5,26.8125 -2.6678,3.8856 -4.07789,5.5622 -2.9375,3.75 -5.17472,8.22314 -10.40176,12.3453 -13.46875,15.40625 1.20683,8.39892 6.46492,18.47795 14.0625,26.71875 6.0311,6.5417 13.68479,11.34549 18.9375,13.46875 2.2529,-1.89787 5.45261,-3.98387 10.25,-5.6875 1.80263,-0.64014 5.09987,-2.0546 10.40625,-2.875 5.30638,-0.8204 14.47336,-1.02573 23,5.0625 6.50683,4.64603 11.29273,14.5567 11.84375,21.75 6.36996,0.96752 15.2128,1.28645 25.46875,3.375 7.49783,1.52689 15.49507,2.22142 23.15625,2.15625 -3.33562,-5.13891 -6.3523,-12.12534 -5.46875,-20.9375 1.07392,-10.71107 7.56122,-17.62526 12,-21.1875 4.43878,-3.56224 8.06379,-5.19089 10.40625,-6.3125 4.58664,-2.19614 8.0643,-2.75289 10.84375,-2.9375 3.17471,-2.17719 7.66052,-4.24853 13.75,-4.4375 10.86798,-0.33717 20.42432,4.07115 26.8125,8.65625 6.38818,4.5851 10.63691,9.37517 14.21875,13.25 3.84377,4.15819 6.59943,6.42323 8.03125,7.65625 2.28671,-1.32583 5.65751,-3.47878 11.21875,-5.84375 5.89325,-2.50616 9.37011,-3.98867 11.0625,-4.53125 0.98773,-3.07368 2.4145,-8.71015 7.8125,-15.53125 8.52832,-10.77668 14.48224,-12.84368 12.75,-10.9375 8.2576,-9.08677 14.3028,-16.84861 16.1875,-22.5 1.27413,-3.82054 1.38292,-8.53496 0.71875,-10.96875 C 810.68594,111.15159 803.6159,104.22924 794.5,89.34375 785.57914,74.776752 773.76295,63.136235 759.71875,54.4375 c -9.56335,-5.92338 -23.98526,-11.347895 -38.5,-16.71875 -8.32407,-3.080135 -25.9503,-6.566656 -34.9375,-6.5 z m -22.375,31.25 c 7.72503,-0.03208 16.4301,0.737381 25.5625,3.9375 1.10594,0.387537 4.51487,1.177418 9.375,3.4375 4.86013,2.260082 12.66689,6.965162 16.875,16.59375 3.95112,9.040608 2.01818,17.37392 0.625,21.53125 -1.39318,4.15733 -2.53253,6.14449 -2.4375,5.90625 -0.81091,2.03293 -2.11396,4.44268 -12.71875,12.125 -11.75693,8.51695 -21.03679,6.76631 -22.5625,6.9375 -8.83761,0.99162 -18.05125,1.11655 -27.375,-0.0312 -1.48403,-0.18269 -6.63001,-0.0384 -13.8125,-0.9375 -7.18249,-0.89908 -19.10136,-3.75955 -27.15625,-14.625 -5.73857,-7.74091 -6.16679,-9.92154 -5.59375,-15.46875 0.57304,-5.547211 2.07319,-9.577005 3.875,-13.25 5.93036,-12.089059 15.13176,-17.095258 22.1875,-20.34375 12.93934,-5.957328 24.69189,-5.777345 33.15625,-5.8125 z m -141.375,84.625 c -0.63086,1.18793 -0.45045,1.4643 0,0 z m 161.6875,14.6875 c -1.94267,1.43246 -2.04866,2.22007 -1.125,1.1875 0.20504,-0.22922 0.72735,-0.75728 1.125,-1.1875 z" style="opacity:0.2;fill:#ffffff;fill-opacity:1;stroke:none;filter:url(#filter3874)" transform="matrix(1.09386, 0, 0, 1.09386, -477.48, 91.9777)"/>
    <path id="path3927" d="m 311.271,189.29734 c -6.3526,0.12206 -12.75606,1.24601 -18.66404,3.41833 -3.00577,1.1052 -7.01289,3.74291 -10.28915,6.08461 0.0602,2.70748 -1.66364,5.63883 -2.70047,8.23815 -0.40894,1.02521 -0.8399,2.09831 -1.29896,3.14486 2.45057,-0.63578 12.57163,-3.14226 18.3222,-2.93976 6.89918,0.24294 14.07645,1.50851 20.13391,4.81983 8.1651,4.46347 12.20485,14.44307 20.13392,19.31352 4.84812,2.97797 10.45189,5.92446 16.13447,5.64023 4.43914,-0.22203 8.82681,-2.59746 12.06668,-5.64023 2.45245,-2.30327 4.63183,-5.49633 4.85401,-8.85345 0.24699,-3.73179 -1.81564,-7.44878 -4.03362,-10.46007 -3.85482,-5.23358 -9.57178,-9.05517 -15.31408,-12.10085 -10.20287,-5.41157 -21.51787,-9.42939 -33.02098,-10.46007 -2.08986,-0.18725 -4.20636,-0.24578 -6.32389,-0.2051 z" style="fill:url(#linearGradient4316);fill-opacity:1;stroke:none" inkscape:connector-curvature="0"/>
    <path sodipodi:nodetypes="aaaaaaaaaaaaaaaaaaaaaaaaaaaaa" inkscape:connector-curvature="0" id="path3956" d="m 202.45089,208.35412 c 3.38868,2.99522 10.12274,5.69801 13.22243,2.39052 5.88177,-6.27612 -2.61635,-17.29484 -5.44453,-25.4988 -4.44039,-12.88061 -27.31757,-26.99521 -17.88915,-36.65453 2.45958,-2.51982 6.9159,2.21888 9.33347,4.78103 9.51454,10.08358 13.87618,24.63369 17.11136,38.2482 1.95357,8.2212 -4.62365,19.28329 1.17812,25.34482 4.89542,5.11459 15.56331,6.10756 21.00032,1.59368 3.83652,-3.18513 2.65206,-10.01217 1.87774,-14.98594 -1.05679,-6.78823 -12.71586,-13.15794 -8.65003,-18.64869 3.34753,-4.52073 11.62329,5.47008 16.48321,2.71194 2.96228,-1.68117 4.34454,-6.14078 3.88894,-9.56205 -0.62397,-4.68569 -7.30475,-6.60359 -8.55569,-11.15572 -1.20264,-4.37642 2.26579,-9.05786 1.5556,-13.54624 -2.37955,-15.03845 -11.3435,-28.31285 -18.95003,-41.43555 -2.09924,-3.62159 -3.74235,-8.05974 -7.30609,-10.19143 -3.68096,-2.201805 -8.5164,-2.38217 -12.71621,-1.59367 -3.72141,0.69868 -8.37485,1.94978 -10.02841,5.4104 -2.55203,5.34099 -0.0109,12.52605 3.11117,17.53042 4.60981,7.38888 17.60527,7.08996 21.0003,15.13992 0.72714,1.72411 0.86634,4.74699 -0.77779,5.57786 -8.53676,4.31413 -16.91638,-9.01552 -24.88926,-14.34308 -4.3431,-2.9021 -7.71097,-7.39375 -12.44461,-9.56205 -7.24111,-3.31686 -16.70394,-9.2422 -23.33368,-4.78102 -3.10267,2.0878 -2.22491,7.35436 -2.33338,11.15572 -0.0995,3.4921 0.16762,7.16778 1.55559,10.35889 2.99959,6.89643 9.37697,11.65077 14.00019,17.53043 6.02005,7.65608 13.32105,14.4624 17.88917,23.10828 5.07363,9.60268 2.04141,23.94376 10.11125,31.07666 z" style="fill:url(#linearGradient4318);fill-opacity:1;stroke:none"/>
    <path sodipodi:nodetypes="accaaaaaaaaaaaaaaaa" inkscape:connector-curvature="0" id="path3966" d="m 261.1995,199.17221 c -0.53859,7.04291 -3.22216,20.94403 -3.22216,20.94403 l 7.24986,5.63877 c 0,0 2.43673,-19.94434 6.44431,-28.99942 2.2613,-5.10935 5.44957,-10.02856 9.66648,-13.69417 7.97583,-6.9331 18.21758,-11.01328 28.19388,-14.49971 7.755,-2.71014 16.3959,-2.16719 24.16618,-4.83323 6.24707,-2.14342 12.46734,-4.85967 17.72187,-8.86094 2.87405,-2.18856 4.47486,-5.74252 7.24986,-8.05539 3.14847,-2.62416 6.45463,-5.63203 10.47201,-6.44432 6.92337,-1.39985 16.61732,8.80538 20.94402,3.22216 3.75785,-4.84917 -2.19678,-13.43748 -7.24985,-16.91633 -5.53358,-3.80967 -13.59261,-2.31738 -20.13848,-0.80554 -7.72572,1.78434 -13.6816,8.09514 -20.94403,11.27755 -7.54428,3.30593 -15.26473,6.53823 -23.36064,8.0554 -6.86697,1.28687 -14.65768,-2.24291 -20.94403,0.80554 -10.79675,5.23568 -14.27337,19.55228 -23.36064,27.38834 -3.8368,3.30852 -10.43265,3.6242 -12.88864,8.0554 -2.86366,5.16676 0.45043,11.83177 0,17.72186 z" style="fill:url(#linearGradient4320);fill-opacity:1;stroke:none"/>
    <path sodipodi:nodetypes="saaaaaaaaassaaas" inkscape:connector-curvature="0" id="path3936" d="m 216.96765,216.85818 c 5.1279,1.33816 28.97351,6.80815 41.01138,14.71011 13.19556,8.66192 23.34993,21.38206 31.89773,34.32362 5.72573,8.66891 9.20757,18.58194 12.53126,28.33061 7.73898,22.69909 18.69139,45.91063 17.08807,69.73687 -0.4168,6.19377 -8.46428,11.4264 -6.83523,17.43422 1.25119,4.61427 6.42501,8.87129 11.39204,9.26192 3.31016,0.26033 6.86269,-2.16369 8.54405,-4.90337 3.07724,-5.01419 -0.47122,-11.70583 0.5696,-17.43423 1.16174,-6.39388 5.14149,-12.1238 6.26563,-18.52384 3.14638,-17.91323 6.40957,-36.46603 1.1392,-54.48193 -2.8181,-9.63319 -1.16806,-23.89917 -8.54404,-28.87541 -18.13403,-12.23423 -16.86724,-16.20327 -25.63211,-23.97206 -7.59857,-6.73505 -14.17812,-15.01352 -23.35369,-19.61349 -11.78739,-5.90934 -25.44882,-8.49467 -38.73297,-9.26193 -9.16787,-0.52952 -36.20163,0.95666 -27.34092,3.26891 z" style="fill:url(#linearGradient4322);fill-opacity:1;stroke:none"/>
    <path sodipodi:nodetypes="aaaaaaassaaaaaaaaaaaaaaaa" inkscape:connector-curvature="0" id="path3946" d="m 215.42674,295.28412 c 2.23437,10.94255 -1.41956,24.37196 5.63877,33.02712 3.02083,3.70422 8.5961,5.59097 13.36051,5.20737 5.95524,-0.47946 12.6293,-3.82663 15.44346,-9.09686 5.57422,-10.43916 1.77888,-24.24353 -2.04248,-35.44374 -6.63667,-19.45169 -22.53828,-34.40541 -34.81689,-50.8872 -8.66837,-11.63569 -17.15521,-23.5461 -27.38833,-33.83266 -10.76595,-10.82217 -23.10091,-17.15304 -35.44375,-28.99942 -2.20878,-2.11994 1.93476,-7.45162 4.40185,-5.63877 7.42534,5.45626 19.2885,14.78363 28.62527,22.5551 9.06651,7.54653 15.76571,18.65509 26.5828,23.36065 2.47453,1.07645 6.40358,2.93944 8.0554,0.80553 3.32808,-4.29937 -3.14488,-10.47396 -5.63877,-15.30524 -2.83546,-5.49298 -5.90258,-11.14197 -10.47202,-15.30525 -4.08702,-3.72375 -9.91149,-4.97021 -14.49971,-8.0554 -13.01565,-8.75191 -22.46422,-22.8459 -36.68068,-29.47129 -9.29496,-4.3318 -20.03835,-7.49763 -30.1791,-5.97244 -3.92045,0.58964 -7.64291,2.86139 -10.47201,5.63877 -3.51751,3.45321 -7.80427,7.99066 -7.24986,12.88863 0.44897,3.96641 5.15558,6.11776 8.05539,8.86094 12.06395,11.41232 25.98861,20.68916 38.6659,31.41604 11.47337,9.70818 23.80352,18.61105 33.83266,29.80495 8.10271,9.04374 15.11798,19.15131 20.94403,29.80496 3.06232,5.59985 5.29656,11.64563 7.24986,17.72187 1.77394,5.51829 2.86805,11.23712 4.0277,16.91634 z" style="fill:url(#linearGradient4324);fill-opacity:1;stroke:none"/>
    <path transform="translate(584.134, 104.501)" d="m -357.3125,106.1875 c -0.48196,-0.0683 0.6542,0.40149 0.28125,0.1875 -0.0507,-0.0232 -0.24711,-0.17747 -0.28125,-0.1875 z m 41.71875,16.03125 c 12.55021,8.77318 21.97432,20.63456 29.6875,32.3125 5.95911,9.02224 9.31647,18.74781 12.375,27.71875 5.98707,17.56058 14.98394,36.70851 16.09375,57.625 0.93083,-2.15543 1.87041,-4.14428 2.125,-5.59375 2.87601,-16.37388 5.36434,-31.95398 1.21875,-46.125 -1.70935,-5.84311 -1.87664,-11.49637 -2.5625,-15.78125 -0.68586,-4.28488 -1.82795,-6.04018 -2,-6.15625 -8.69963,-5.86926 -13.31986,-10.25458 -16.5,-13.90625 -3.18014,-3.65167 -4.43435,-5.72096 -7.78125,-8.6875 -7.66859,-6.7971 -13.28811,-13.55756 -19.59375,-16.71875 -4.01036,-2.01051 -8.46172,-3.50394 -13.0625,-4.6875 z m 54.5,136.59375 c -0.53292,0.76569 -1.142,1.71981 -1.53125,2.3125 -0.64095,0.97594 -0.82175,1.38815 -0.96875,1.65625 0.47024,0.40948 1.71499,1.48058 2.40625,1.90625 0.21175,-0.174 0.68798,-0.34454 0.6875,-0.34375 -0.15609,0.25434 0.12929,-0.20078 -0.15625,-2.53125 -0.0973,-0.79379 -0.28553,-1.92184 -0.4375,-3 z" id="path3978" style="opacity:0.40133781;fill:#ffffff;fill-opacity:1;stroke:none;filter:url(#filter3996)" inkscape:original="M -342.875 111.15625 C -352.98193 111.43324 -365.38779 112.57087 -359.3125 114.15625 C -354.62462 115.37958 -332.81742 120.40109 -321.8125 127.625 C -309.74923 135.54365 -300.47057 147.16893 -292.65625 159 C -287.42183 166.92504 -284.22599 175.96285 -281.1875 184.875 C -274.11259 205.62631 -264.09676 226.8745 -265.5625 248.65625 C -265.94353 254.31854 -273.30176 259.10145 -271.8125 264.59375 C -270.66867 268.81208 -265.94707 272.70539 -261.40625 273.0625 C -258.38013 273.30049 -255.13083 271.06709 -253.59375 268.5625 C -250.78056 263.97857 -254.01401 257.86185 -253.0625 252.625 C -252.00045 246.77977 -248.37143 241.53836 -247.34375 235.6875 C -244.46735 219.31138 -241.49437 202.34498 -246.3125 185.875 C -248.88878 177.06842 -247.38194 164.04924 -254.125 159.5 C -270.70297 148.31558 -269.54973 144.66466 -277.5625 137.5625 C -284.50905 131.40538 -290.51802 123.8615 -298.90625 119.65625 C -309.68218 114.25398 -322.16824 111.88892 -334.3125 111.1875 C -336.40779 111.06648 -339.50602 111.06392 -342.875 111.15625 z " inkscape:radius="-8.0944576" sodipodi:type="inkscape:offset"/>
    <path transform="matrix(1.09386, 0, 0, 1.09386, 609.998, 91.9777)" inkscape:connector-curvature="0" id="path4000" d="m -257.125,102.1875 c -3.65665,0.38337 2.16079,1.84713 2.96875,2.875 6.40273,3.64671 7.90675,11.73618 12.59375,16.65625 4.5821,3.81912 14.8935,3.76249 16.25,-2.9375 -0.35557,-6.61729 -8.515,-6.01076 -12.60566,-8.93068 -5.99422,-3.13533 -12.02079,-8.05028 -19.20684,-7.66307 z" style="opacity:0.8795987;fill:#ffffff;stroke:none;filter:url(#filter4142)"/>
    <path transform="matrix(1.09386, 0, 0, 1.09386, 609.998, 91.9777)" inkscape:connector-curvature="0" id="path4146" d="m -384.3125,121.21875 c 13.0539,19.73535 28.60222,39.19541 32.44002,63.20053 1.95448,7.38849 1.83344,15.0039 -1.22127,22.04947 -2.10959,8.03125 10.83784,12.89499 14.9375,5.65625 8.88466,-10.51947 4.22663,-25.82192 -2,-36.53125 -13.01309,-20.17442 -28.68506,-38.64512 -43.5625,-57.59375 -0.19792,1.07292 -0.39583,2.14583 -0.59375,3.21875 z" style="opacity:0.58193982;fill:#ffffff;stroke:none;filter:url(#filter4178)"/>
    <path transform="matrix(1.09386, 0, 0, 1.09386, 609.998, 91.9777)" sodipodi:nodetypes="ccccccc" inkscape:connector-curvature="0" id="path4182" d="m -450.34375,51.71875 c -7.05911,1.553344 -6.66328,11.550103 -2.25,15.875 2.31005,3.144925 17.89312,15.347794 21.18484,12.743257 -2.10233,-2.872903 -18.47255,-15.36152 -15.05984,-19.368257 4.82128,-5.100053 19.52996,5.671671 24.41309,2.053002 1.94983,-3.672938 -1.686,-8.248569 -5.71875,-6.71875 -4.95456,-5.77106 -17.60725,-5.044604 -22.56934,-4.584252 z" style="opacity:0.21739131;fill:#ffffff;stroke:none;filter:url(#filter4274)"/>
    <path transform="matrix(1.09386, 0, 0, 1.09386, 609.998, 91.9777)" sodipodi:nodetypes="aaaaaaa" inkscape:connector-curvature="0" id="path4280" d="m -365.26297,12.571866 c -2.14472,-0.722503 -5.35038,-0.395353 -6.62776,1.472835 -1.82236,2.665226 -0.48782,7.00823 1.47284,9.573425 1.46813,1.920803 4.44137,1.913862 6.62775,2.945669 2.48197,1.1713 5.09738,5.229247 7.36418,3.682086 2.23943,-1.528481 0.31057,-5.599565 -0.73642,-8.10059 -1.61422,-3.856001 -4.13909,-8.238892 -8.10059,-9.573425 z" style="opacity:0.5852843;fill:#ffffff;stroke:none;filter:url(#filter4398)"/>
    <path transform="matrix(1.27844, 0, 0, 1.21449, 686.05, 89.8212)" sodipodi:nodetypes="aaaaaaa" inkscape:connector-curvature="0" id="path4402" d="m -396.92891,25.09096 c -2.90464,-1.646378 -6.82322,-4.838778 -9.57343,-2.945669 -3.03972,2.092395 -1.60257,7.45909 -0.73641,11.046259 0.67191,2.782704 1.74537,6.339832 4.4185,7.364173 3.11772,1.194705 6.92631,-0.910897 9.57342,-2.945669 1.83604,-1.411319 4.00453,-3.598113 3.68209,-5.891338 -0.45983,-3.270324 -4.4911,-4.999275 -7.36417,-6.627756 z" style="opacity:0.25418061;fill:#f9f9f9;stroke:none;filter:url(#filter4468)"/>
    <path transform="matrix(1.09386, 0, 0, 1.09386, 609.998, 91.9777)" inkscape:connector-curvature="0" id="path4472" d="m -342.875,46.75 c -4.22764,3.284122 -3.45138,10.505163 -0.65625,14.59375 2.40861,4.137672 -0.55028,8.766041 -4.8125,9.875 -2.76088,0.696519 -2.28128,4.200887 0.90625,3.78125 4.7302,-0.237333 8.4627,5.646546 12.9375,4.09375 1.40149,-3.69557 -5.02701,-5.813368 -5.25,-9.65625 -0.55926,-6.140745 3.348,-12.019592 0.59375,-18.09375 -0.5235,-1.781141 -1.23219,-4.912488 -3.71875,-4.59375 z" style="opacity:0.87290973;fill:#ffffff;stroke:none;filter:url(#filter4600)"/>
    <path transform="matrix(1.09386, 0, 0, 1.09386, 609.998, 91.9777)" inkscape:connector-curvature="0" id="path4604" d="m -217.3125,34.40625 c -16.65085,1.887933 -28.75092,16.512516 -45.40625,18.6875 -8.68085,2.137544 -20.0764,-2.72788 -26.34989,5.47032 -7.11116,8.239098 -10.90878,21.234602 -22.77511,23.74843 -4.38508,2.269254 -3.06523,8.244641 -2.125,12.0625 7.92322,-19.892536 29.92643,-28.721152 49.76303,-31.502522 12.14974,-1.609225 24.08454,-6.469205 31.51822,-16.559978 5.90148,-7.690973 17.45054,-9.26924 25.26576,-3.60803 1.79825,1.69773 3.4746,0.910697 1.79674,-1.20447 -2.01252,-4.430668 -6.65837,-7.69479 -11.6875,-7.09375 z" style="opacity:0.8428094;fill:url(#linearGradient4326);fill-opacity:1;stroke:none;filter:url(#filter4636)"/>
  </g>
</svg>