<?xml version="1.0" standalone="yes"?>
<svg xmlns="http://www.w3.org/2000/svg" xmlns:xlink="http://www.w3.org/1999/xlink" xmlns:svg="http://www.w3.org/2000/svg" xmlns:dc="http://purl.org/dc/elements/1.1/" xmlns:cc="http://web.resource.org/cc/" xmlns:rdf="http://www.w3.org/1999/02/22-rdf-syntax-ns#" width="948" height="948">
<path style="fill:#0136dd; stroke:none;" d="M0 0L0 93L6 89L6 93L7 93L7 90L14 90C14.9036 94.2169 19.3561 93 23 93C27.8826 81.5925 50.7951 74.5815 55 90L59 88L60 88C61.519 95.0885 71.6817 90.3868 73 85L79 85C78.8031 81.431 78.5383 79.2432 75 78L79 73L79 72L77 72L77 71L83 71L84 64L89 61C99.1193 63.6785 113.716 64.5737 120 55L129 61L132 60L134 63L133 66L136 70L137 70L146 65L146 72C154.097 75.7314 146.866 79.3764 146.159 85.0401C145.637 89.2229 146.965 93.7604 147 98L151 102L163 104L164 104L166 106C168.398 103.353 172.344 99.4784 176.043 99.0131C181.171 98.3682 187.035 102.707 191 98L197 100L207 89C209.396 89.5746 209.487 89.475 210 87L218.7 85.4136L230 96L240 96L244 112L239 112L239 113L241 114L241 117L221 126L218 133L218 134C225.44 135.161 220.64 145.152 220 151L231 158L237 164C232.832 165.704 230.441 170.438 236 172L235 177L243 176L243 173C245.975 173.235 247.588 174.399 248 171L249 171L253 176L262 173C263.319 178.003 265.92 179.832 271 180L268 184L268 185L272 185L271 189C278.333 187.075 290.872 196.316 291 204C298.67 205.566 297.767 210.71 296 217L298 220C301.217 220.365 306.846 220.351 309.582 222.062C317.411 226.96 313.505 232.445 325 233L325 237C312.223 240.794 327.086 249.791 325 257L331 258C332.942 264.87 339.712 262.927 345 261L344 257L346 254L363 263L363 261C365.936 264.265 369.718 267.678 367 272L367 273L367 274L370 281C375.722 281.954 381.463 292.195 384 296C384.489 296.734 387.256 295.954 388 298C389.056 300.903 383.547 305.642 385 310C386.638 314.913 392.802 315.79 392 319L403 322L403 328L414 329C416.506 337.332 421.988 334.174 427 330L436 336C444.426 336.38 440.381 346.335 441 352C433.849 359.137 457.587 358.164 458.454 360.261C460.251 364.603 453.675 367.111 456 372L453 373L453 375L467 379L467 383L470 383L467 392L469 403C476.219 403.919 495.212 393.965 498 387C500.335 387.453 502.678 387.891 505.001 388.404C518.657 391.424 506.086 404.846 508.812 413.681C510.295 418.485 520.247 414.706 522 412L525 414L536 415L535 411C537.604 411.303 539.853 411.615 542.424 410.961C544.771 410.363 548.473 410.352 550.397 408.821C556.571 403.907 547.55 390.223 550.438 384.224C551.723 381.554 556.472 380.981 559 380L565.71 390.039L564.243 397.975L566 408L569 410C575.455 407.247 583.443 405.245 588.142 399.491C592.377 394.305 587.578 387.577 596 385L603 375L612 381C609.717 387.081 608.447 390.979 616 393L614 404C619.085 407.688 623.12 412.608 624 419C636.943 423.748 633.288 439.447 646 443L648 436L650 436L651 439L654 444L655 444L655 441C664.959 447.298 658.242 457.207 672 458L672 446L667 447L670 439L682 441C681.913 443.99 679.993 447.965 680.639 450.764C682.516 458.898 698.086 456 704 456C704 463.586 701.913 473.404 711 476C710.147 468.814 714.185 467.529 720 465L719 477L736 482L736 486L732 486L732 487L768 496L768 498L761 499C763.8 502.883 772.744 503.726 776 500L777 500L778 500L780 502L780 506C792.173 503.139 801.716 508.661 809 497L810 501L818 498L824 496L824 500L838 500L838 513L841 512L846 514L846 519L854 520L855 515L843 512L843 508L848 508L848 511L861 516L862 512C866.83 512.358 869.658 514.265 871 519L872 519L875 511C871.174 506.6 875.55 504.597 880 504C880 500.6 879.041 495.28 881.028 492.319C885.828 485.164 888.935 494.804 888 499L896 500L898 504L896 504L898 505C893.098 514.649 906.505 511.125 912 512L918 510L916 502C922.492 503.672 926.011 509.663 927 516L928 516L928 512C933.287 512 939.126 510.788 942 516L938 516L948 528L948 0L0 0z"/>
<path style="fill:#93a4cb; stroke:none;" d="M201 9L201 10L205 15L212 17L211 11L215 9L220 10C215.023 6.01965 206.645 6.6546 201 9z"/>
<path style="fill:#698bc9; stroke:none;" d="M192 25C195.885 27.0292 199.926 31.2576 202 25L218 25L218 22L219 22L220 25L222 23L227 23L227 18L205 15C204.142 10.0582 197.021 7.34814 193.608 11.9576C190.967 15.525 192.301 20.8618 192 25z"/>
<path style="fill:#a8b8e1; stroke:none;" d="M214 9L211 11L212 18L226 18L220 10L214 9z"/>
<path style="fill:#2d77cf; stroke:none;" d="M220 9L225 20L228 23L234 20L230 9L220 9M191 17L187 24C190.899 33.8189 198.741 27.3742 192 25L191 17M218 22L218 25L215 24L215 25L221 26L222 31L224 31L227 23L220 25L220 22L218 22z"/>
<path style="fill:#2e6fbf; stroke:none;" d="M202 25L200 30L203 31L204 28L205 30L206 30L207 25L202 25M173 32L167 32L168 42C177.024 41.6195 188.704 45.2211 189 33L184 32C181.156 36.8815 177.775 34.2162 176 30L173 32M119 55L106 63L105.786 76.2855L102 96L97 104L96 104C94.6907 101.524 93.6242 100.863 93 104L92 104L89 99L79 103L78 103L74 96L75 99L75 100L73 102L81 110C86.5454 107.945 92.6254 112.714 88 118L89 125L93 125C96.9312 128.957 106.809 117.928 110 115L109 112L109 107C115.279 105.937 121.985 105.151 125 99L114 95L120 77L129 77L128 83L141 87L143 91L141 97L146 97L140 104C132.999 104.359 124.089 105.432 122 113L128 125L128 126L121 131C127.706 130.065 131.544 132.781 134 139L144 138L150 141C150 136.698 148.694 128.174 152 129L145 122L144 125L135 120L132 121L133 110C141.503 107.708 141.045 108.01 148 113L168 109L168 103L167 103L166 106L164 104L163 104L151 102L147 98C146.985 92.4836 147.052 74.3889 141.397 71.4028C139.215 70.2504 135.23 72.5025 133 73C132.231 69.3861 130.834 67.2372 127 67L123 62L119 55z"/>
<path style="fill:#026de7; stroke:none;" d="M162 59L162 60L179 65C182.682 52.132 168.606 58.8586 162 59z"/>
<path style="fill:#1555ba; stroke:none;" d="M123 58L123 62L127 67C130.556 66.873 132.316 69.7495 133 73C143.722 71.6317 140.715 73.3044 146 82C150.966 79.1912 152.51 73.8398 146 72L146 65C141.902 65.5667 139.046 66.2534 137 70L136 70L133 66L134 63L132 60L129 61C128.271 57.5972 126.194 58.0135 123 58M89 61L84 64L83 71L77 71L77 72L79 72L79 73L75 78L79 85L73 85C70.1965 92.9324 75.0783 96.1006 78 103L79 103L87 100L90 93L91 89L91 88L87 87L87 82L92 81C94.7062 85.388 98.0718 85.9451 103 86L106 63L89 61z"/>
<path style="fill:#4f7fcb; stroke:none;" d="M120 77C116.547 83.6713 112.649 86.9437 114 95L125 99C120.847 104.708 115.496 105.281 109 107L109 112L110 115L100 124C105.319 122.974 110.397 120.416 112 115L118 119L116 133C119.434 138.813 124.395 141.495 131 142L134 137C130.485 131.876 127.351 129.623 121 131L128 126L128 125L122 113C124.943 105.83 132.889 104.708 140 104L146 97L141 97L143 91L141 87L128 83L129 77L120 77z"/>
<path style="fill:#4d76ad; stroke:none;" d="M23 94L31 93C32.5291 100.136 36.0517 91.2444 35 87L38 81C30.7967 81.5864 24.0974 86.5106 23 94z"/>
<path style="fill:#1555ba; stroke:none;" d="M38 81L35 87L35 95L44 98L45 98L46 95L49 98L48 90L52 83L38 81z"/>
<path style="fill:#4f7fcb; stroke:none;" d="M87 82L87 87L91 88L91 89L90 93C87.1258 95.189 87.1583 97.6362 88 101L90 99L92 104L93 104L93 101L96 104L97 104L102 96L102 86L92 81L87 82z"/>
<path style="fill:#4d76ad; stroke:none;" d="M51 84L48 90L49 94L51 91L55 91L51 84M210 87L207 89L197 100L191 98L185 101L185 102C190.297 102.645 196.02 103.614 198 109L199 109L199 105L202 108L205 107L206 96L214 95C219.135 86.7616 224.072 93.8808 230 96C223.727 85.7495 220.288 86.0744 210 87z"/>
<path style="fill:#93a4cb; stroke:none;" d="M59 88L51 91L49 98L46 95L45 95L46 100C51.3616 98.2913 61.7472 95.0953 59 88M5 89C-0.756253 93.0853 0 98.5295 0 105C8.0931 100.751 7.84368 103.667 16 105L16 102L25 103L23 111L29 124C41.4662 127.455 38.3932 143.457 50 149L46 159L46 160L48 162L44 162L43 168L44 168L49 161L58 161L61 158L61 142L57 142C55.8953 134.48 56.3748 133.34 60 127L70 128L73 121L85 121L79 114C79.9001 108.981 77.3997 104.492 73 102L75 100L75 99C69.6985 93.5916 69.2678 91.0064 61 91L61 92L66 93L69 108L65 104L59 105L57 110C53.0224 109.081 51.5464 110.309 50 114C56.6424 122.815 45.1024 124 39 124L35 110L30 110L34 98L42 100L44 95C39.7334 95.0028 33.6179 96.7971 31 93C26.0449 94.1387 17.0134 94.6481 14 90C10.7571 90.3148 7.58791 89.3159 7 93L6 93L5 89z"/>
<path style="fill:#4f7fcb; stroke:none;" d="M217 92C221.252 99.4379 222.548 100.049 231 101L231 97L235 97L234 101L236 101L235 107C243.985 107.493 244.432 103.062 240 96L217 92z"/>
<path style="fill:#a8b8e1; stroke:none;" d="M60 91L42 100L34 98L30 110L35 110L39 124C43.9418 124 59.0582 121.917 50 114C51.9872 110.845 53.2207 109.664 57 110L59 105L65 104L69 108L66 93L60 91z"/>
<path style="fill:#698bc9; stroke:none;" d="M70 91L74 97L70 91M214 95L206 96L202 108L199 105L199 109L198 109C196.795 103.48 192.919 104.004 188 104L193 116L197 112L207 112C205.848 115.69 205.033 118.285 201 119L201 124L200 124L198 120L195 128C194.338 124.85 192.662 124.85 192 128C188.055 124.63 186.127 124.368 181 125L180 129L184 136C181.429 136.417 181.17 139.319 183 141L181 147C185.241 146.929 192.981 146.778 194 142L201 144L218 150L218 149L216 144L202 137L196 141L199 125L209 121L209 117L212 115L216 116L215 114C219.768 119.26 224.987 122.303 232 119L230 115C225.334 113.634 221.872 110.474 220 106L235 107L236 101L234 101L235 97L231 97L231 101C228.405 100.182 225.421 101.364 223 100.25C220.621 99.1553 215.663 87.2794 214 95z"/>
<path style="fill:#93a4cb; stroke:none;" d="M168 103L168 109L150 112L149 118L146 124L152 129L150 141L144 138C139.938 140.149 136.842 139.24 133 137L131 142L122 140L111 128L111 126L113 126L113 125L109 128L102 126L101 129L99 127L98 127L97 127L93 135L96 135C94.9677 144.834 99.5226 159.979 109.259 164.121C114.532 166.364 119.465 163.719 124 168L126 167C128.538 170.62 131.851 171.046 136 170L144 171C145.647 175.805 157.904 183.833 163 184L162 180L168 171C166.306 170.507 160.24 167.344 164.377 165.286C168.431 163.269 187.724 166.975 190 170L201 173.694L212 174L216 174L233 168L232 161L230 158L221 160L217 158L218 153L218 152C213.773 147.532 207.368 141.513 201 144L194 142C191.365 146.182 185.662 146.619 181 147L183 141C181.045 140.023 181.248 135.312 184 136C183.661 132.47 183.588 130.233 180 129L181 125L192 128C193.125 125.544 193.875 125.543 195 128L198 120L200 124L201 124L201 119L204 120L207 112L197 112L193 116C191.066 111.109 186.57 107.718 191 103C180.811 99.2562 177.374 98.0112 168 103z"/>
<path style="fill:#698bc9; stroke:none;" d="M0 123L4 122L10 122C13.4795 127.41 18.6177 125.919 23.9606 127.991C31.1209 130.766 34.8637 136.19 37.5795 142.625C38.9256 145.815 41.2291 146.693 39 150C41.3279 159.855 40.9378 164.535 35 173L35 174L41 184C37.0182 195.063 41.2797 198.154 48 207L53 209L56 207C57.5622 211.338 59.1459 213.68 64 213L65 220L78 220L77 205L65.1844 206.228L55 201L52 195L52 186L49 188L47 186L47 184L45 185L42 182L44 175L46 175L44 162L48 162L46 160L46 159L50 149C40.4701 142.125 40.7383 126.035 29 124L23 111L25 103L16 102L16 105C13.1684 104.241 9.85954 100.722 7.1713 100.787C-2.58565 101.024 0 117.032 0 123z"/>
<path style="fill:#2e6fbf; stroke:none;" d="M243 101L240 108L244 112L243 101z"/>
<path style="fill:#93a4cb; stroke:none;" d="M220 106C221.368 110.909 224.943 114.172 230 115L230 118L239 115L236 107L220 106z"/>
<path style="fill:#698bc9; stroke:none;" d="M78 107L79 114C82.0612 116.212 84.3982 118.129 83 122C87.6144 125.879 91.4224 136.829 97 127L98 127L99 127L101 129L102 126L109 128L113 125L113 126L111 128L119 133L118 119L112 115C109.53 120.026 104.655 123.256 99 123L93 125L89 125L88 118C94.0397 113.952 86.7569 106.953 81 110L78 107z"/>
<path style="fill:#1555ba; stroke:none;" d="M133 110L132 121L135 120L144 125L149 118L148 113C142.343 106.926 140.674 106.743 133 110z"/>
<path style="fill:#698bc9; stroke:none;" d="M236 107C235.386 111.634 236.14 113.612 241 114L241 113L239 112C241.87 109.277 238.976 107.515 236 107z"/>
<path style="fill:#2e6fbf; stroke:none;" d="M215 114L216 116L215 116L212 115L209 117L209 121L199 125L196 141C199.41 140.737 200.901 140.321 202 137L209 138C212.481 128.98 216.204 126.581 225 123L215 114z"/>
<path style="fill:#1555ba; stroke:none;" d="M225 121C218.304 128.106 208.88 127.689 209 140C215.018 136.239 221 134.879 221 126L241 117L225 121z"/>
<path style="fill:#a8b8e1; stroke:none;" d="M73 121L70 128L60 127C55.1752 132.706 55.3361 134.721 57 142L61 142L61 158L58 161L49 161C45.7443 166.64 43.1406 168.24 46 175L44 175L42 182L45 185L49 188L52 186L51 191L52 192L54 192C57.8805 185.755 64.4413 185.017 68 192L73 192C73.786 185.985 89.6383 193.991 94.6944 189.972C99.0212 186.533 95.0191 179.557 95 175C89.3037 173.859 76.3603 170.081 72 175L64 170L64 158L64.2731 151.042L64 134L77 124L77 123L73 121z"/>
<path style="fill:#c7cae2; stroke:none;" d="M74 121L77 123L77 124L64 134C64.9193 140.722 67.173 151.956 64 158L64 170L72 175C78.0812 170.758 88.1796 174.291 95 175C95.019 179.676 98.3996 186.709 93.8009 189.912C88.7617 193.422 73.7784 185.806 73 192L68 192C64.663 181.286 55.046 188.332 52 195L55 201C64.2157 202.452 66.1926 208.224 77 205L81 208C84.5433 205.848 86.3657 208.879 88 212C97.2316 210.444 105.696 220.287 111 210L114 211C117.764 204.584 130.092 211.745 137 210L143 223L156 222L161 214L162 214C164.004 219.219 166.556 216.93 170.871 218.558C174.368 219.877 178.505 224.284 181 227L184 226C184.941 228.625 190.685 238.126 192 232L193 232L194 234L194 232L198 232L199 232L199 236L210 239L212 249L213 252L196.015 256.288L176 265L185 252L170.791 234.147L156 231C154.245 236.554 149.913 235.607 145 235L128 240C130.285 249.943 123.328 267.57 137.925 271.169C141.895 272.148 146.72 272.151 151 273C147.102 281.473 141.223 284.822 133 285C132.879 289.589 131.027 294.601 127 297L131 300L121 320L119 320L118 316C112.408 316.385 105.958 315.148 102 311C98.7801 311.625 87.1504 313.786 92 319L92 320L89 321L94 322C93.6659 326.368 92.5339 328.147 88 328L90 340L82 340L74 346L76 350C71.8763 352.116 69.2434 356.808 72 361L68 366L56 369L55 378C60.6144 378.936 66.8007 393.249 71 388C74.1183 392.792 82.9765 391.035 85 386L101.625 390.032L106 404L105 400L109 402L106 397C118.224 399.549 101.557 410.747 112 417L112 419L104 420C102.62 426.21 101.637 430.03 109 432L107 436L107 437L109 443L112 448C126.122 451.631 140.788 455.247 154.91 459.975C161.179 462.073 168.704 465.958 174 459L178 460C183.416 454.448 200.48 452.293 207.946 454.433C211.856 455.554 213.702 459.227 218.005 459.81C225.021 460.761 231.25 456.836 237.961 456.873C243.546 456.904 253.434 459.24 258.999 460.709C265.078 462.314 266.934 469.248 273 470C274.188 474.062 278.119 473.663 281.412 475.727C288.197 479.981 294.983 484.718 301.583 489.199C311.423 495.879 311.657 502.84 315 513C307.317 513.365 301.945 513.234 297 520L288 520L280.289 516.397L261.791 500.317L239 500L238 504C233.881 501.196 231.976 504.254 227.75 505.143C221.572 506.442 213.826 502.632 209 509C198.64 508.386 203.573 520.491 201 526C206.572 545.47 230.012 537.269 245 540C246.89 537.298 251.583 533.302 252 539C259.742 541.98 269.593 554.261 266 562L271 562L279 576L301 574L301 570L312 569L312 568L312 565C310.706 552.045 322.823 558.323 331 558L331 557L328 555L335 556L334 551C337.692 551.931 342.07 552.362 343 548L344 548C348.283 552.907 359.138 550.016 365 550C366.552 557.105 373.549 553.625 379 552.83C393.756 550.679 409.778 553.165 424 549C424.741 552.544 427.955 558.432 432 555L440 566C439.734 572.788 447.685 572.953 453 573L450 571L452 569C452.786 560.344 449.327 558.539 447.317 550.911C446.232 546.792 448.441 541.263 446.397 537.453C443.484 532.025 440.18 540.621 440 543L432 543C429.628 535.681 420.981 533.37 414 534L414 529L406 527L408 530L408 531L392 528L398 502L404 496L402 490L393 486L393 480L401 478C411.497 465.291 431.447 475.378 444.039 479.884C449.311 481.771 459.135 486.956 463 481L465 483L466 475L483 478L480 504C476.39 506.102 475.652 508.94 476 513C468.349 516.902 472.217 525.175 472 532L479 541C475.661 544.189 480.567 545.914 481.292 549.209C481.866 551.821 479.305 554.684 481.623 556.911C488.76 563.768 505.187 554.542 508 569C512.842 568.96 518.28 567.24 522.985 568.649C530.121 570.785 534.503 577.941 542.87 575.686C549.297 573.954 553.474 564.878 560 562C557.002 546.986 572.852 542.037 578.681 530C581.252 524.692 576.078 521.335 576.968 516.286C577.815 511.478 581.436 508.751 586 509L592 506L592 511C595.935 510.953 598.657 511.046 600 507L606 507L609 496L615 496L616 492C611.514 486.047 617.226 476.952 623 474C624.95 466.823 636.311 458.322 633.432 450.296C631.17 443.991 623.645 441.759 621 436L617 437L614 431L610 431L611 429L590 420L575 423L573 430C566.571 426.823 562.801 431.395 560 437L553 438L550 442C550.689 445.781 551.495 448.726 548 451L548 452L550 453L534 461L534 456L528 461C523.807 459.171 521.27 457.814 517 460L513 446L506 437L502 438L491 423L488 420C478.064 421.656 478.546 409.546 473 404C470.271 401.271 464.332 398.671 465 396L462 398L458 391C453.467 392.173 443.907 396.382 441 392L431 392L426 397L424 395L420 396C418.693 393.789 418.185 393.702 416 395L415 390L405.143 391.647L388 382C390.541 371.074 388.81 349.994 376.91 344.699C372.014 342.52 368.771 344.595 363.975 344.817C360.172 344.994 356.032 341.048 353 344L352 344L351 344L340 318L339 318L336 329C329.133 324.587 332.206 319.848 331 313L352 309L354.596 298.08L349 281L332 274L331 277L329 275L324 277C321.05 273.26 316.545 272.276 312 273L314 281C319.495 280.587 320.809 282.768 320 288C312.994 282.833 303.935 277.912 302 269C296.559 269.177 292.676 271.006 294 277L285 277C283.362 271.942 278.125 265.664 273 264L277 255L275 249L284 251L292 241C292.276 234.016 290.336 218.813 283 216L281 222L283 221L283 222C276.084 223.954 274.863 213.206 278 209L278 208L278 207L272 198L268 198L263 185L248 179L248 175C242.274 178.184 242.212 177.392 236 176L232 184C228.491 183.816 226.807 183.884 225 187C218.49 185.979 212.649 187.878 207 191C203.555 187.104 199.608 192.391 199 196L194 196L194 192L180 188L176 193L165 195C157.691 193.26 151.071 194.484 145.307 188.485C140.632 183.62 141.668 177.104 135 173L136 170C131.726 170.666 129.117 170.025 126 167L124 168C120.426 163.044 114.233 166.325 109.259 163.722C100.048 158.902 95.6748 144.988 96 135C86.3351 130.098 86.1766 122.384 74 121z"/>
<path style="fill:#1555ba; stroke:none;" d="M4 122L0 123C0.000403306 126.654 1.61492 140.327 7 132C11.1783 132.829 13.9227 132.938 16 137C19.0902 137 18.2761 139.378 18 142L21 141L27 149L25 155L22 151L21 151L20 160L25 160C26.1041 171.329 26.6205 183.249 31.8225 193.942C33.849 198.108 38.153 197.685 39 203L47 206L37.1574 191.957L31 178L28.8966 164.911L35.7616 144.001L31 131L10 122L4 122z"/>
<path style="fill:#2d77cf; stroke:none;" d="M7 132C8.4367 137.358 11.9639 139.993 17 142L19 140L16 137C14.5075 132.513 11.2254 132.466 7 132z"/>
<path style="fill:#0136dd; stroke:none;" d="M0 133C0 152.23 -4.86272 179.43 3 197L4 197L5 193L18 206C27.3061 211.654 18.1302 216.054 16 222C11.0355 222.396 5.66497 227.908 3 232L0 231L0 253L5 250L14 252C14.2911 262.77 29.7383 256.017 34 259L33 256L33 255C38.0618 253.794 45.2863 247.291 49 253L54 252L52 257L57 263L66 262L69 259L65 255L63 248C64.819 242.029 64.9638 237.433 72 236L72 225L67 221L55 218C54.569 210.198 46.6677 203.577 39 203L31.9969 192.891L24.6273 171.83L25 160L20 160L21 151L22 151L25 155L27 149L21 141L18 140L17 140C13.4068 141.943 9.50482 136.962 8 134L0 133z"/>
<path style="fill:#2e6fbf; stroke:none;" d="M31 133L35.5077 144.001L28.5185 164.911L31 178L37 193L38 193L39 186L35 174L35 173C41.9675 165.903 42.0108 158.92 39 150C43.4745 146.078 34.8917 135.367 31 133M210 138C211.799 144.29 215.617 143.125 221 143C225.577 129.777 217.278 137.751 210 138z"/>
<path style="fill:#4d76ad; stroke:none;" d="M218 142C216.545 144.751 215.49 146.765 218 149L218 153L217 158L221 160L228 158L220 151L218 142z"/>
<path style="fill:#7286ae; stroke:none;" d="M114 150L115 161L122 163L126 163L129 161L129 153L123 154L123 149L114 150z"/>
<path style="fill:#2e6fbf; stroke:none;" d="M225 153L232 161L231 164L237 164C235.58 160.524 234.89 158.643 231 158L225 153z"/>
<path style="fill:#4f7fcb; stroke:none;" d="M168 171L162 180L160 184L165 192L166 192L166 190L167 190C167.934 194.358 172.356 192.622 176 193L181 185L189 187C197.19 182.409 209.927 186.316 219 188C218.243 183.245 216.624 180.62 212 179L212 172L200.093 172.977L190 170C189.387 167.152 168.375 163.03 164.111 164.361C158.437 166.132 165.135 170.794 168 171z"/>
<path style="fill:#2e6fbf; stroke:none;" d="M216 174L213 172L212 179L220.91 181.801L230 180L231 180L235 179L236 172L232 168L216 174z"/>
<path style="fill:#a8b8e1; stroke:none;" d="M135 172L135 173C140.26 177.784 140.719 184.772 145.303 189.25C150.915 194.732 157.895 193.681 165 195L167 190L166 190L166 192L165 192L144 171L135 172z"/>
<path style="fill:#2e6fbf; stroke:none;" d="M248 171L247 174L243 173L243 176L239 176C241.197 179.63 244.914 179.052 246 175L264 180C264.404 185.042 266.481 185.177 271 184L271 180C266.138 179.628 263.864 177.422 262 173L253 176L248 171z"/>
<path style="fill:#7286ae; stroke:none;" d="M233 177L231 180L230 180L218 182L219 187L225 187L232 184L235 181L233 177z"/>
<path style="fill:#698bc9; stroke:none;" d="M248 177L248 179L252 179L252 177L248 177z"/>
<path style="fill:#4f7fcb; stroke:none;" d="M255 180L255 181L260 182L260 180L255 180z"/>
<path style="fill:#93a4cb; stroke:none;" d="M258 182L258 183L263 185L268 198L272 198L271 200C277.145 200.464 279.61 204.061 280 210L284 210L284 214L293 218L294 204C290.463 202.589 288.124 201.01 288 197L279 193L269 185C265.308 184.93 264.505 183.549 264 180L258 182z"/>
<path style="fill:#4f7fcb; stroke:none;" d="M36 181C36.0642 183.993 35.9461 185.346 39 186L38 189L41 184L36 181z"/>
<path style="fill:#93a4cb; stroke:none;" d="M189 187C188.053 181.317 182.412 185.353 181 185L180 188L194 192L194 196L199 196C200.121 192.297 203.109 188.63 207 191L214 188C206.767 184.781 195.851 182.102 189 187z"/>
<path style="fill:#4f7fcb; stroke:none;" d="M269 185L270 188L272 185L269 185M273 188L273 189L281 193C279.784 188.659 277.345 187.658 273 188z"/>
<path style="fill:#698bc9; stroke:none;" d="M0 193L0 217C2.97789 218.146 6.00411 221.624 7 217L8 217L9 219L12 213L16 214C17.569 204.211 11.4578 204.206 9 196L5 193L4 197L3 197L0 193z"/>
<path style="fill:#026de7; stroke:none;" d="M322 193L319 196L319 199L327 208L328 208L328 204L331 204L329 193L326 195L325 195L324 195L324 193L322 193z"/>
<path style="fill:#2e6fbf; stroke:none;" d="M287 198L291 203C291.355 199.533 290.414 198.591 287 198M9 199L9 200L20 207L20 206L19 204L9 199z"/>
<path style="fill:#a8b8e1; stroke:none;" d="M273 200L278 207L278 208L278 209C273.712 212.752 278.114 227.259 283 221L281 222L281 221L283 216C289.553 219.913 292.068 233.788 292 241C287.594 242.512 284.915 246.539 284 251L275 249L277 255L273 264L285 277L294 277C293.537 271.487 296.819 269.391 302 269C303.187 277.558 312.537 284.28 320 288C321.248 282.535 319.866 279.912 314 281L312 273L324 277L329 275L330 275L330 277L331 277L332 274L341 276C339.627 272.995 336.464 268.005 333 271C326.031 266.28 319.428 274.346 313 264C305.606 264.168 304.669 256.415 297 261L290 251L297.3 237.999L297 224L297 223L284 214L284 210L280 210C279.846 204.801 278.558 200.9 273 200z"/>
<path style="fill:#698bc9; stroke:none;" d="M294 204C293.936 211.68 290.732 230.281 305 223L305 222L298 220L296 217C297.892 211.948 299.171 207.172 294 204z"/>
<path style="fill:#2e6fbf; stroke:none;" d="M49 206L55 218C59.2215 219.992 62.3659 223.747 67 221L72 225L72 236C64.4968 236.843 64.5154 241.711 63 248L65 255L69 259L66 262L57 263L52 257L54 252L49 253C47.4802 245.907 37.0107 253.682 33 255L33 256L34 259L32 257L21 258L21 263C16.5512 263.815 13.8843 265.197 15 270L11 270L11 271L13 272L10 274L5 261L8 261L8 260L7 257L14 256L14 252L5 250L0 253L0 274L15 275C16.7521 264.031 30.4474 266.268 24 277L30 277L33 289L37 287L38 287C38.6751 291.147 39.7933 293.09 44 294L43 300L44 305L53 313C55.949 318.426 77.5772 317.928 66 328L69 330L66 339C82.1593 334.309 74.8221 317.505 72 306L64.5 296.167L78.5 282.833L78 275L78 274L80 269L71.341 264.737L74.7261 255.961L76 240L78 241C77.959 236.042 79.9126 220.49 74.6211 218.898C71.8943 218.078 68.0235 220.126 65 220L64 213C59.4151 212.892 58.0133 210.925 56 207L53 209L49 206z"/>
<path style="fill:#93a4cb; stroke:none;" d="M81 208L77 207L77 234L92 240L92 244C96.5252 243.341 100.555 240.394 102 236L103 236L106 238L101 258C87.9324 258.419 83.6872 272.666 77.9915 281.701C76.262 284.445 72.7846 285.303 71.0509 288.189C68.259 292.837 70.0792 296.642 75 298C75.0819 301.88 79.8507 311.232 84.5 305.889C88.0755 301.78 84.9251 292.635 90.1111 290.139C94.2568 288.144 96.5965 294.081 100 294L89 313L91 315L92 315L102 311C104.616 315.528 113.256 317.168 118 316L119 320L121 320L131 300L127 297C131.499 296.041 133.474 289.176 133 285C140.962 285.341 148.436 282.076 151 273C146.555 271.572 140.88 271.964 137.001 270.313C123.772 264.685 131.037 250.366 128 240L145 235C149.869 235.901 154.957 237.005 156 231L170.791 234.8L185 252L176 265L197.004 256.302L213 252L212 249C215.557 245.882 211.058 242.543 210 239L199 236L199 232L198 232L194 232L194 234L193 234L193 232L192 232L191 235L190 235L184 226L181 227L162 214L161 214L156 222L143 223L137 210C130.608 211.017 116.37 204.261 114 211L111 210C103.618 219.651 98.4921 209.225 88 212C86.8996 208.867 84.1467 204.437 81 208z"/>
<path style="fill:#4d76ad; stroke:none;" d="M16 214L12 213L9 219L8 217L7 217L0 217C0.0151378 220.603 3.5618 227.712 5 221L6 221L11 224L16 222C19.7008 215.709 23.0164 215.243 22 207C17.6369 207.712 16.4818 209.725 16 214z"/>
<path style="fill:#2e6fbf; stroke:none;" d="M5 221L0 223L2 232L3 232C7.3393 227.575 11.7978 225.655 5 221z"/>
<path style="fill:#93a4cb; stroke:none;" d="M295 224L296.921 237.999L290 251L297 261C302.128 258.251 303.279 254.55 304 249L319 247C319.057 243.635 320.915 239.856 317 239L317 235L311 237C310.747 232.925 314.516 223.845 309.595 221.623C306.302 220.135 299.292 224.288 295 224z"/>
<path style="fill:#4d76ad; stroke:none;" d="M312 227L311 237L316 237L312 227z"/>
<path style="fill:#4f7fcb; stroke:none;" d="M316 233L317 239L325 237L325 233L316 233M78 234L78 241L76 240C76.031 251.697 65.0343 266.788 80 269L78 274L78 275C87.4357 273.613 89.6111 258.834 101 258L106 238L103 236L102 236L92 244L92 240L78 234z"/>
<path style="fill:#1555ba; stroke:none;" d="M89 244L91 250C86.3187 253.532 91.1202 256.26 95 257L95 255C105.091 253.114 93.7056 245.009 89 244z"/>
<path style="fill:#4d76ad; stroke:none;" d="M319 245L304 249C306.41 256.256 314.325 254.087 312 264C318.002 265.898 321.377 265.383 327 263L327 262L320 262L319 257L323 256L323 255L319 245z"/>
<path style="fill:#1555ba; stroke:none;" d="M320 247L323 255L323 256L319 257L320 262L332 266L345 265L345 261C339.281 262.513 333.984 264.478 331 258L325 257L327 255L320 247z"/>
<path style="fill:#698bc9; stroke:none;" d="M303 252L302 258L312 265C313.934 256.874 311.347 253.105 303 252z"/>
<path style="fill:#4f7fcb; stroke:none;" d="M346 254L344 259L348 260L346 254M349 255L361 267L366 267L363 271L363 272C372.262 273.213 367.235 264.343 363 261L363 263L349 255M7 257L8 261L5 261L5 262L10 274L11 271L11 270L15 270C14.6011 265.486 16.9158 264.228 21 263C21 252.21 10.5934 257.898 7 257z"/>
<path style="fill:#7286ae; stroke:none;" d="M348 256L348 260L345 260L345 265C340.874 263.625 332.621 262.893 332 266L313 265L313 266L333 271C337.113 268.453 340.407 274.865 342 278C344.826 275.942 344.706 274.337 344 271L347 265L353 260L348 256z"/>
<path style="fill:#a8b8e1; stroke:none;" d="M347 265L344 271L342 278L349 281L354.242 298.08L352 309L331 313C331.655 319.663 328.374 325.664 336 329L339 318L340 318L351 344L352 344L353 344L353 342C360.55 344.326 368.152 342.092 374.986 344.348C389.01 348.978 386.629 365.727 389 377L392 376L389 366L393 366C394.019 363.119 398.603 359.916 394 359L394 358L396 358L396 357C393.175 355.407 389.997 352.416 391 349L391 348L388 334C373.148 336.134 366.04 318.902 380 311L380 310L380 306L380 305L375 304L376 296L372 297C372.217 292.689 375.644 282.187 370 281C369.879 276.096 367.627 273.42 363 272L363 271L366 271L366 267L361 267C359.513 258.24 352.344 262.681 347 265M91 265L87 268L86 273L91 273L92 280C99.2127 282.478 101.376 286.369 109 282L110 286C115.069 285.384 117.455 284.05 119 279L104 266C101.007 266.064 99.6544 265.946 99 269L91 265z"/>
<path style="fill:#1555ba; stroke:none;" d="M15 275L0 274L0 402L0 435C0 439.335 -1.14937 445.656 1.01312 449.575C4.1087 455.185 8.59069 453.47 12.5517 456.692C15.5267 459.112 13.8357 463.743 14.8681 466.985C16.9107 473.401 23.6973 478.438 30 480L33 493L25 494L22 504L15 499L5 499L0 492L0 654L0 690L0 704L5 710L24 716L21 717L21 718L32 718L32 720L26 720C28.0164 723.849 30.3287 723.879 34 722C34.1207 726.087 33.8582 733.659 35.4421 737.206C37.7546 742.384 42.4278 742.564 44 737L50 735L58 736L78 747L76 750C80.1508 752.289 79.9844 755.579 80 760L81 760L81 757L84 760L86 757L96 756C96.429 752.165 97.9315 747.621 102 751L109 752L109 753L106 756L110 758L111 758L112 758C119.166 752.774 125.982 759.329 133.015 759.941C143.02 760.813 150.539 756.105 160 756C159.659 741.958 188.816 749.919 199 746L199 745L184 744L187 735C193.058 735.926 199.188 721.534 199 716L195 718L197 712L196 709L200 708L204 742L208 742L208 728L224 728L224 736L226 736L225 730L244 726L244 720L240 720C239.245 708.755 227.94 712.422 223 704L221 706L217 705L217 694L216 694L210 696C210.618 692.464 211.189 690.09 208 688L212 684C210.395 676.669 206.974 676.005 200 676L200 671L172 668L168 662L168 661L189 652L187 649L188 646L167.335 624.133L153.019 624.677L141.995 618.309L123 621L120 611L119 609C126.475 602.465 108.593 598.619 105.952 595.198C102.402 590.599 110.551 587.229 114 587L123 577L124 577L125 577L125 579C132.242 576.983 146.428 577.716 146 568L154 566L151 554L144 556L143 556C142.316 561.341 140.073 564.974 135 567L138 556L135 556L135 546C126.999 549.302 116.685 554.546 108 548L107 548L86 548L75 540L74 540L51 533L53 531C45.492 524.672 43.7783 520.862 43 511L39 511L38 504L41 500L44 501L43 496L45 480L48 481L48 477L52 477L50 470L47 470L44.1389 455.553L36 445L17 446L26.5926 431.095L17.7014 416.781L9.10725 415.462L10.7539 403.015L6 385L4 385C5.31953 372.937 1.59434 365.789 8 355L9 355L17 357L17 360L21 362L25 361L31 368L37 365L38 361L53 358L61 340C66.727 339.159 67.5648 335.032 69 330L66 328C77.9974 319.834 56.8893 316.63 53 313L44 305L43 300L44 294L38 287L37 287L33 289L30 277L24 277C32.1262 266.845 15.9854 262.488 15 275z"/>
<path style="fill:#93a4cb; stroke:none;" d="M373 283L372 297L376 296L375 304L380 305L380 306C375.857 309.649 382.212 310.202 385 310L386 303L382 295L373 283z"/>
<path style="fill:#1555ba; stroke:none;" d="M53 287L50 290L52 296L57 295L55 287L53 287z"/>
<path style="fill:#2e6fbf; stroke:none;" d="M378 288C377.354 292.164 377.535 294.253 382 295L383 303C392.401 300.029 382.077 291.481 378 288z"/>
<path style="fill:#4f7fcb; stroke:none;" d="M75 298C72.2832 297.043 69.2166 293.466 66.1111 294.528C60.4689 296.458 69.112 306.017 72 306C73.3971 315.897 82.8408 337.276 65 338C64.2462 342.136 63.4394 345.485 68 347L73 340L76 341C76.9427 336.142 79.0481 331.483 84 330L88 319L92 320L92 319L89 313L100 294C96.1975 294 94.4395 286.717 89.1667 290C85.246 292.441 86.2963 316.968 76.1667 302.833C75.0005 301.206 75.051 299.938 75 298M375 327L375 326L373 325C384.583 312.958 385.516 322.714 385 334L388 336L389 336L391 335L389 333L395 330L394 325L395 325L397 327C397.452 322.685 396.207 320.3 392 319C391.904 316.479 390.919 316.032 389.014 314.315C387.101 312.59 385.753 310.286 382.935 310.218C376.465 310.061 366.828 324.703 375 327z"/>
<path style="fill:#93a4cb; stroke:none;" d="M373 326L375 326C373.073 333.091 378.608 336.022 385 335C385.187 330.898 387.466 326.05 386.307 322.059C383.75 313.247 375.025 321.597 373 326M88 319L84 330C78.593 330.895 76.5593 335.92 76 341L73 340L68 347L59 349L61 355L49 358L44 364C42.6409 368.489 39.2273 370.37 35 372L36 374C32.1863 374.787 12.0584 379.675 17.0856 387.262C19.3116 390.621 27.3948 391.648 30.9105 393.265C34.3626 394.852 36.5975 398.205 39 401L40 398L50 398C51.0729 401.536 52.3251 402.54 56 402L56 405L57 405C61.5255 403.712 62.9351 406.442 67.0887 407.569C73.5188 409.314 78.0861 404.32 82 412L70 425L69 425L68 425C64.6797 419.253 60.6339 423.055 56 425L56 422L51 421L43 424C41.2437 417.64 36.8158 418.004 31 418L28 425L27 433L35 441L40 442L52 438L55 441L55 442L52 443L55 444L58 450L61 448L60 451L62 446L72 446C68.2604 432.692 77.2014 427.225 89 423L89 419C98.2753 417.066 99.2523 399.35 91.8557 394.225C85.5998 389.889 75.9817 392.942 71 388L69 390L55 378L56 369L68 366L72 361C70.1084 356.504 72.2524 352.654 76 350L74 346L82 340C82.5476 343.108 87.574 340.688 90 340L88 328C92.9777 328.837 93.847 326.66 94 322L88 319z"/>
<path style="fill:#2e6fbf; stroke:none;" d="M396 321L397 327L395 325L394 325L395 330L389 335L389 336L397 357L398 357L405 329L405 328L403 322L396 321z"/>
<path style="fill:#698bc9; stroke:none;" d="M398 357L397 357L392 336L389 336C388.605 339.759 386.312 346.974 391 348L391 349L389 350L389 351L396 357L396 358L394 358L394 359L399 366C404.644 364.336 410.576 357.73 413 367L406 370L407 375C402.429 375.294 399.534 375.803 400 381L407 378L408 378L413 381L412 385L416 395L419 394L417 386L421 384L421 387L422 387L427 382L424 371L429 367C422.567 365.183 409.175 348.956 422.005 346.492C424.561 346.001 427.517 347.479 430 348L434 365L440 368L440 365L445 366L443 370L450 370L452 366L452 365L443 363L441 352C440.461 343.634 439.735 339.288 430 339L427 330C421.202 333.502 417.764 336.729 414 329C395.601 328.222 402.025 344.102 398 357z"/>
<path style="fill:#2e6fbf; stroke:none;" d="M428 333L430 339L442 343C441.759 338.608 440.957 335.259 436 336L428 333M61 340C60.8869 345.89 55.9808 351.843 52 356L52 357L61 355L59 349L65 340L61 340z"/>
<path style="fill:#93a4cb; stroke:none;" d="M429 367C427.975 372.798 429.919 376.912 425 381L427 383L421 387L421 384L420 384L417 386L420 396L424 395L424 397L426 397L431 392L441 392C442.119 397.221 454.04 392.514 458 391L462 398L465 396L470 401L465 383L464 383L464 386L458 386L452 379C452.155 372.457 449.242 370.074 443 370L445 366L440 365L440 368L434 365L430 348C427.546 347.186 424.656 345.528 422.005 345.904C408.858 347.767 421.496 365.809 429 367z"/>
<path style="fill:#026de7; stroke:none;" d="M8 355C-0.0779762 364.32 4.76791 373.698 4 385L6 385L5 387L10 388L11 383C7.32409 379.275 8.75807 375.792 9 371L44 364L44 360L38 361L37 365L31 368L25 361L21 362L17 360L17 357L8 355M443 358L443 363L452 365L452 366L450 372L456 372L454 370C465.473 356.005 452.572 360.268 443 358z"/>
<path style="fill:#698bc9; stroke:none;" d="M48 358L44 360L44 364C47.592 363.377 49.2666 361.643 48 358z"/>
<path style="fill:#93a4cb; stroke:none;" d="M393 366L389 366L392 376L388 382L400 386C400.502 379.626 399.878 376.305 407 375L406 370L413 367C411.573 357.292 404.231 363.489 399 366L398 361L393 366z"/>
<path style="fill:#698bc9; stroke:none;" d="M38 371L44 364C39.8043 364.726 38.9584 367.061 38 371z"/>
<path style="fill:#4d76ad; stroke:none;" d="M30 372C35.8456 373.412 38.1662 370.2 40 365C35.3685 366.019 32.1542 367.637 30 372z"/>
<path style="fill:#698bc9; stroke:none;" d="M9 371C8.47283 375.622 6.52096 380.002 11 383L10 386C18.5402 392.029 17.0467 404.101 29 406L29 405L27 404L38 401C35.0618 390.336 8.23724 390.287 22.4452 379.179C23.955 377.999 25.2544 376.847 27.1042 376.223C29.9642 375.258 33.0823 374.82 36 374C26.8078 369.148 19.0114 371.261 9 371z"/>
<path style="fill:#4f7fcb; stroke:none;" d="M424 371C422.356 380.449 430.369 380.845 428 371L424 371z"/>
<path style="fill:#698bc9; stroke:none;" d="M451 372L452 379L458 386L464 386L451 372z"/>
<path style="fill:#4f7fcb; stroke:none;" d="M603 375L596 385L592 385L592 387L606 386L603 391L606 398L616 394L616 393C609.106 390.226 610.425 387.117 612 381L603 375z"/>
<path style="fill:#026de7; stroke:none;" d="M456 376C457.51 380.194 460.4 383.219 465 383L468 391L470 383L467 383L467 379L456 376z"/>
<path style="fill:#4d76ad; stroke:none;" d="M407 378C402.01 380.992 397.091 386.579 406 388L406 392C409.925 391.654 418.318 389.084 412 385L413 381L407 378z"/>
<path style="fill:#026de7; stroke:none;" d="M561 401L563 401C567.452 389.484 563.582 390.072 559 380C552.355 381.423 544.783 387.991 551.782 395.066C554.338 397.65 558.307 398.149 561 401z"/>
<path style="fill:#a8b8e1; stroke:none;" d="M275 387L248 392C246.819 397.315 245.762 399.692 251.428 402.531C255.761 404.701 257.819 401.69 261.95 401.96C266.477 402.255 274.63 406.342 278.999 408.189C287.317 411.707 293.4 419.42 302.997 421.623C309.947 423.218 312.95 418.695 318.725 419.042C326.023 419.482 328.123 426.402 326 432L346 432L344 425L346 418L355 409L355 408L351 409L343 400L325 400L321 402L320 402C317.754 397.456 308.949 399.572 308 404L305 404L305 401L298 402C298.257 395.912 299.612 390.116 292 389L292 385L296 385L296 384C292.915 382.924 288.566 380.468 288 385C283.525 383.708 276.339 380.601 275 387z"/>
<path style="fill:#4d76ad; stroke:none;" d="M10 386L4 393L8 396L10 397C14.4004 397.519 26.3447 406.933 25.5733 411.9C25.0793 415.08 20.7839 415.948 20.6165 419.043C20.4052 422.949 24.8782 428.001 27 431L28 431L28 425L31 418C36.7607 418.017 40.6055 418.232 43 424L51 421L54 423L56 416C53.7685 414.167 51.0211 410.332 50 415L44 412C46.266 405.483 44.024 403.53 41 398L40 398L40 401L27 404L29 405L29 406C17.2207 402.925 19.4481 390.646 10 386z"/>
<path style="fill:#a8b8e1; stroke:none;" d="M85 386L80 390L80 391C84.6583 391.407 90.258 392.564 93.4367 396.34C98.7955 402.706 97.0067 416.187 89 419L89 423C80.5403 424.989 61.2381 436.186 73.3032 446.411C78.7794 451.052 88.8248 447.485 93 454C100.191 452.364 108.817 459.7 106.293 467.867C105.14 471.598 99.2943 473.732 96 475L99 490C101.838 488.84 105.26 484.988 108.039 484.608C117.913 483.259 123.066 497.442 130.185 500.127C136.234 502.409 151.075 499.551 146 511L148 514L145 517L143 515L117 506L117 510L107.086 501.721L99.0247 504.647L88 505C86.799 499.395 79.7842 502.887 76 504L73 497L70 496L69 496C70.9062 511.643 76.162 527.633 93 532L93 528L95 530L96 530L97 528L98 528L103 530L106 536L110 535C109.969 537.294 110.832 536.716 113 536C115.175 538.301 119.766 538.218 122 536C127.788 537.694 131.858 535.682 137 533L138 537L149 526L167 529L167 533L167 534L167 535L163 541L166 542L165 545L167.649 556.79L177 566L178 566L180 564L185 563L197 578L203 580L205 579C213.947 590.617 237.995 572.887 240 595L241 595L254 597L251 599L261 602L266 614C261.587 615.258 252.442 617.621 251 622L258 621L256 624L256 625C261.972 630.781 271.937 631.9 280 632L280 642L305.285 655.415L322 652L321 647L325 646L320 637L343 631L348 642C351.681 641.956 354.778 642.225 355 638L358 637C358.46 633.477 366.011 633.161 369.111 630.528C376.234 624.478 377 621.255 377 612C372.633 611.174 361.199 608.402 360 614L357 614C355.353 608.345 344.23 607.181 339 607C336.69 597.55 338.653 584.703 352.09 584.563C356.321 584.519 359.755 587.677 363.961 587.838C370.395 588.085 378.561 583.265 385.022 586.448C387.116 587.48 387.964 589.86 389.764 591.232C394.123 594.555 399.994 590.797 402 597L408 597L408 600L417 605C423.543 605.004 430.888 606.276 437 608.698C440.288 610.001 443.848 614.068 447 611L461 614C461.759 619.733 469.891 617.276 474 617L474 616L471 616L471 615L480 616L480 613C489.613 615.289 505.798 612.534 513.714 618.635C517.436 621.503 527.519 626.106 520 631L520 632C524.497 636.307 526.633 641.881 530.724 646.073C533.654 649.075 539.555 651.271 538.543 656.561C537.682 661.062 531.617 663.355 530 668C525.584 666.997 522.819 667.093 522 672L518 676L527 689L526 694L538 693L538 696C543.541 697.078 549.047 699.724 548 706L550 704L582 701C587.147 695.606 595.022 696.001 602 696C600.927 690.841 598.13 689.242 593 690L581 668L584 668C584.173 662.032 585.884 652.388 590 648L589 644C596.8 644.336 604 644.979 602 654L608 655L608 658L612 658C612.775 664.986 625.331 671.881 622 679C624.279 682.746 625.325 684.786 630 684C631.265 695.065 637.468 692.799 644.833 695.5C647.683 696.545 649.605 700.707 648 703L661.015 702.267L683 710C681.064 720.426 682.018 727.516 687 736L683 736L684 742L688 740L689 740L708 751L721 752C726.019 763.804 732.789 770.999 746 771L746 774C752.914 774 766.978 772.003 773 775.5C775.786 777.118 776.65 781.658 779.333 783.5C780.221 784.109 781.851 784.213 782.833 783.833C785.544 782.786 786.882 781.374 790 782.5C792.169 783.283 799.337 787.311 794 788L794 789L803 796C804.375 814.567 828.573 811.197 835 825L852 836L851 839L858 845L861 844L866 848C873.521 846.954 894.77 852.187 898 843L899 843L916 845L916 839L915 839L914 841C911.137 837.004 905.513 838.746 902 841C899.624 837.737 897.253 838.202 896 842L893 842L893 839L883 841L882 841C878.838 831.472 866.397 845.195 863 832L860 832L859 826C851.351 826.657 848.388 817.326 849 811L836 810L832 808C832 799.638 829.537 798.648 826 792C812.397 788.623 810.914 783.929 814 772C817.936 772.169 822.751 773.85 826.486 772.16C833.784 768.857 845.485 752.366 845 771L861 776L869 776C874.009 771.603 887.455 766.716 894 767C895.665 764.956 899.879 764.919 900.667 762C902.866 753.851 885.862 750.109 883 748L878 749L873 752L854 755C853.735 750.154 851.969 742.65 857.028 739.722C861.455 737.161 871.049 741.347 872 737L873 737C876.451 741.266 885.085 739.973 890 739L888 736L888 735C892.415 732.083 901.517 728.183 901.727 722C901.919 716.345 897.622 713.009 899 707C892.644 705.934 885.484 705.836 883 699C876.096 698.431 873.475 696.881 875 690C864.64 683.371 854.018 684.614 843 689C840.872 682.431 833.447 683.318 828 685L828 686L832 689L835 688C837.268 691.205 841.602 691.847 845 690L844 694L851 696L848 695C851.511 699.018 857.217 695.254 861.552 697.488C870.917 702.314 856.349 704.049 853 704L853 705C862.561 714.454 853.1 718.341 848 726C840.648 722.255 832.528 727.689 825.025 728.393C821.358 728.737 818.749 726.979 815 728L816 731L810 731C810.336 741.135 823.227 740.828 824 751C819.939 751.258 815.594 753.841 813 750C806.136 750.867 798.902 750.553 792.17 752.225C787.631 753.352 784.333 756.974 779.961 758.502C768.887 762.369 749.496 761.059 745 749L753 746C757.506 740.999 762.853 744.437 767.272 740.972C773.295 736.249 767.979 728.199 762 728L762 727L764 726L752 720L750 696C737.72 687.957 749.346 683.212 749 673L756 672C758.917 678.454 766.775 690.169 774 691L775 697L786 698L787 698L798 697L797 692L803 689L801 686L806 683L801 675C802.159 680.094 801.213 682.867 797 686L799 682C793.661 681.999 789.097 682.703 787 677L782 678L791 646L787 634L787 633L787 632C789.006 630.873 789.006 630.127 787 629C787.692 618.513 780.464 605.072 773.711 597.394C771.612 595.007 768.743 594.727 767 592L766 592L750 588C750 586.553 750.769 582.154 750 581C748.408 578.612 741.274 579.664 740 582C736.994 587.511 745.672 589.313 745 592L754 599L754 603C764.937 604.747 758.006 615.553 758 623L721 628.817L709 629L702 623C701.629 615.764 699.465 612.088 692 612C690.171 606.689 685.721 605.556 681 608L681 605L680 605L665 611L663 619L656 621L653 621C652.24 617.164 651.952 614.307 648 613L648 607L645 609L645 602L636 600L633 597L633 596L635 596L635 595L630 596C629.37 593.047 626.334 592.819 625.722 589.972C624.709 585.258 629.09 577.432 622 576C622 569.858 628.767 547.443 622 546L624 539C620.131 532.796 619.187 523.012 621 516L617 516C617.171 510.638 619.581 499.465 623.765 495.893C628.265 492.05 635.147 491.033 640 487L637 484L638 479L633 479L635 471L640 467L642 469L643 469C642.176 460.724 638.948 454.629 646 448L646 447L626 420L614 420L614 419L615 413L603 418L603 415L587 414L576 411.647L556 426L555 432L555 438L560 437C563.669 431.914 566.373 427.839 573 430L575 423C580.06 422.195 586.836 424.88 590 420L611 429L610 431L614 431L617 437L621 436L633.568 452.051L623 474C617.237 475.773 610.344 487.057 616 492L615 496L609 496L606 507L600 507C598.072 510.498 595.878 510.875 592 511L592 506C588.806 506.013 586.729 505.597 586 509C581.192 508.138 578.203 510.662 576.797 515.428C575.348 520.341 580.721 524.116 578.631 529C573.426 541.165 555.425 547.046 560 562L541.946 575.685L523.961 568.648L508 569C506.69 554.606 489.459 562.925 482.376 556.911C479.565 554.524 482.883 551.288 481.693 548.375C480.395 545.197 477.227 544.631 479 541C477.726 536.39 476.373 534.15 472 532C473.202 524.528 468.674 518.575 476 513L480 504L483 478L466 475C466 477.562 467.044 483.831 463 481C458.224 485.821 452.707 482.173 447.17 480.44C435.679 476.843 409.099 463.363 401 478L393 480L393 486L402 490L404 496L398 502L392 528L408 531L408 530L406 527L414 529L414 534C421.599 534.562 428.204 535.74 432 543L440 543C440.065 540.53 441.904 533.504 445.833 536.333C448.717 538.409 446.815 547.817 447 551C447.234 555.034 451.374 556.277 452.667 560C454.027 563.917 451.099 567.58 450 571L453 571L453 573C447.959 572.882 440.13 572.299 440 566L432 555C427.868 557.515 425.242 552.339 424 549C409.182 552.405 394.101 550.051 379 552.679C373.583 553.622 367.318 556.248 365 550C358.436 550.004 349.529 552.194 344 548L343 548C340.801 551.476 337.886 551.401 334 551L335 556L328 555L331 557L331 558C323.242 558.074 309.065 551.23 312 565C309.994 566.127 309.994 566.873 312 568L312 569L301 570L301 574L279 576L271 562L266 562L269 560C266.717 552.238 260.149 541.461 252 539C251.691 533.041 246.693 536.583 245 540C228.877 536.174 208.99 545.43 201 526C205.835 521.21 197.692 510.731 209 509C215.204 503.58 220.965 506.826 227.75 505.486C231.881 504.671 233.752 501.936 238 504L239 500C247.217 506.8 253.583 497.712 261.791 500.6C268.648 503.013 273.714 512.147 279.439 516.397C282.075 518.355 285.372 518.006 288 520L297 520C303.305 514.171 306.923 514.153 315 513L310.995 497.455L283.13 476.312L273 470C268.115 468.902 266.992 463.988 262.867 461.769C257.527 458.894 245.001 457.305 238.91 456.543C231.682 455.64 224.668 461.624 217.019 459.427C213.763 458.492 212.03 455.383 208.871 454.433C202.054 452.382 182.012 453.787 178 460L174 459C166.765 465.294 161.569 461.398 153.961 459.439C140.155 455.884 125.758 449.995 112 448L109 443L107 437L107 436L109 432C102.242 429.282 103.2 426.193 104 420L112 419L112 417C104.242 410.172 117.543 398.329 106 397L109 402L105 400L106 404L102.142 390.032L85 386z"/>
<path style="fill:#698bc9; stroke:none;" d="M597 398L606 398L603 391L606 386C601.792 386.051 589.97 385.442 589.357 391.023C588.976 394.486 593.921 402.206 597 398z"/>
<path style="fill:#4d76ad; stroke:none;" d="M498 387L495 392L500 393L501 397C504.801 395.029 505.626 392.114 506 388L498 387z"/>
<path style="fill:#93a4cb; stroke:none;" d="M402 388L407 393L406 388L402 388M506 389L501 397L500 393C492.677 391.522 485.368 393.335 484 402L491 402L491 413C494.313 412.689 497.191 413.773 498 410L499 410L499 412L500 412L507 402L510 403C510.919 396.86 514.996 389.699 506 389z"/>
<path style="fill:#2d77cf; stroke:none;" d="M5 393C6.19878 396.688 10.2259 398.977 10.5123 403.015C10.783 406.83 5.81049 412.661 9.03858 416.229C11.4741 418.921 23.8407 416.965 25.3927 413.606C28.2932 407.328 15.2251 397.198 10 397L10 395L8 396L7 393L5 393z"/>
<path style="fill:#2e6fbf; stroke:none;" d="M613 394C609.185 398.235 605.413 397.999 600 398C596.297 408.449 609.091 408.387 617 407L614 404L615 394L613 394z"/>
<path style="fill:#4d76ad; stroke:none;" d="M552 396L553 403C557.701 405.783 555.298 408.332 553 412L555 411L555 412L550 434L551 434L554 425L574 413C580.394 409.862 587.897 413.67 589 404L592 406L598 405L600 399L597 398L590 396L588 405C581.81 403.181 574.599 406.965 569 410L566 408L564 400L561 401L552 396z"/>
<path style="fill:#2e6fbf; stroke:none;" d="M473 403C474.24 410.98 479.976 421.197 489 420L488 415L497 414L491 413L491 402L484 402L485 397L473 403z"/>
<path style="fill:#026de7; stroke:none;" d="M551 397C551.454 400.596 553.386 406.332 549.682 408.821C547.376 410.37 544.08 409.422 542.135 411.603C536.686 417.715 533.773 423.614 525 417L529 417L528 413L525 414L522 412C518.207 415.877 510.964 417.323 508 412L488 415L488 423C498.494 423.451 511.015 435.847 517 423L526 423C527.587 429.61 524.999 436.34 529.042 442.602C531.246 446.016 537.338 448.222 538 443L546 442L544 436C553.363 433.644 552.694 419.008 555 411L553 412C555.94 408.781 558.5 404.935 553 403L551 397z"/>
<path style="fill:#4f7fcb; stroke:none;" d="M41 398L44 412L50 415C51.9359 412.136 53.5437 414.642 56 416L54 422L56 425C60.9905 423.508 63.785 420.639 68 425L69 425L70 425L82 412C79.398 403.646 73.8958 408.936 68.0355 407.552C62.8998 406.338 61.5943 402.607 56 405L56 402L55 402L50 398L41 398z"/>
<path style="fill:#1555ba; stroke:none;" d="M588 400L582 403L588 405L588 400z"/>
<path style="fill:#2d77cf; stroke:none;" d="M507 402L500 412L499 412L499 410L498 410L498 414C503.221 412.649 516.454 408.819 507 402z"/>
<path style="fill:#698bc9; stroke:none;" d="M589 404C588.111 408.339 586.075 410.376 582 412L587 414L604 414C601.459 407.834 599.146 403.907 592 406L589 404M322 405C320.659 413.413 326.062 412.861 330 418C335.396 415.24 339.955 413.438 341 407L322 405z"/>
<path style="fill:#4f7fcb; stroke:none;" d="M601 407L604 412L603 418C611.409 417.727 614.093 412.004 623 416L620 407L601 407z"/>
<path style="fill:#93a4cb; stroke:none;" d="M346 418L346 419L349 423L353 419L354 419C356.363 421.48 358.513 418.357 361 417C359.628 414.804 360.656 412.236 359.167 410.167C354.088 403.113 348.043 416.335 346 418z"/>
<path style="fill:#2d77cf; stroke:none;" d="M535 411L536 415L529 414L525 417C533.457 426.144 546.725 412.35 535 411z"/>
<path style="fill:#7286ae; stroke:none;" d="M566 418C569.904 416.658 571.851 414.999 573 411L566 418z"/>
<path style="fill:#698bc9; stroke:none;" d="M616 413L614 419L614 420L626 420L636 433C634.147 425.503 632.175 420.876 624 419L625 416L616 413z"/>
<path style="fill:#93a4cb; stroke:none;" d="M296 419L295 420L294 425L294 430L308 436L308 440L310 438L328 433L328 432L326 431C329.72 425.674 325.408 420.21 319.565 418.787C315.688 417.843 313.634 421.694 310.05 422.184C305.603 422.793 300.136 420.342 296 419M501 433C500.219 431.38 499.487 429.704 498.556 428.161C492.137 417.514 487.553 432.261 501 433z"/>
<path style="fill:#2e6fbf; stroke:none;" d="M517 423C509.438 434.223 505.681 424.888 496 424L502 438L507 434L508 434L522 443C526.432 434.137 528.68 449.938 531 452C535.216 455.747 539.147 448.588 540 452L541 452L544 442L538 443C538 448.16 531.501 445.494 529.333 442.833C524.46 436.852 528.579 429.125 526 423L517 423z"/>
<path style="fill:#93a4cb; stroke:none;" d="M557 423L554 425L541 453L545 454L551 451L550 442C554.161 441.113 555.974 435.785 555 432L556 426L559 426L559 423L557 423z"/>
<path style="fill:#4f7fcb; stroke:none;" d="M27 433C25.4626 439.718 29.2608 443.951 36 445L44.1065 456.34L47 470L52 471L50 463L50 462L53 461L49 456C56.6279 454.582 58.5467 447.287 52 443L55 442L55 441L52 438L40 442L35 441C33.7521 436.292 31.7082 434.248 27 433z"/>
<path style="fill:#026de7; stroke:none;" d="M25 434L17 446L32 443C27.9393 440.618 26.1553 438.835 27 434L25 434z"/>
<path style="fill:#a8b8e1; stroke:none;" d="M507 434L505 436L505 437L513 446L517 460L528 461L534 456L534 461L550 452L545 454L540 450L528 451L521 455L507 434z"/>
<path style="fill:#2d77cf; stroke:none;" d="M544 436L544 440L548 440L550 434L544 436z"/>
<path style="fill:#2e6fbf; stroke:none;" d="M636 434L650 452L653 452L654 449L661 452C664.131 445.347 655.987 439.038 655 444L654 444C653.863 441.084 653.982 439.37 651 439L650 436L648 436L646 443L636 434z"/>
<path style="fill:#93a4cb; stroke:none;" d="M515 439C514.693 446.778 515.121 451.831 523 455C522.995 447.896 522.149 442.096 515 439z"/>
<path style="fill:#1555ba; stroke:none;" d="M670 439L667 447L672 446L672 458L654 457L653 461L635 473L633 479L638 479L646.37 479.304L653 488L651 491C654.501 493.272 653.886 496.226 653 500L658 502L657 504C661.816 507.629 668.582 511.473 675 510.122C678.197 509.449 680.542 506.191 683.985 506.519C689.501 507.044 691.706 511.945 698 511L699 515L700 515L702 508L707 510L714 512L727 513L735.647 523.303L741 533C730.827 539.761 738.152 550.999 735 561L752 571L751 568L756 572L752 572L752 573L756 574L754 581L758 581L756 587L762 587L760 588L760 589L765 586L767 588C771.908 585.605 779.355 586.4 784.999 585.382C788.642 584.725 790.856 582.239 794.17 581.012C802.66 577.869 827.616 571.577 832 582C822.63 582.747 820.461 587.992 820 597L830 597L830 594L856 595L859 597L861 594L865 594L865 598L872 599L872 602L879 602L884 614L888 614L888 619L904 620L906 628L912 629L913 626C917.492 628.346 921.503 627.81 921 622L923 629L927 627L928 627C930.272 633.967 936.716 633.999 943 634L943 640C938.714 641.255 939.56 645.162 939 649L948 650L948 528L938 516L942 516C940.118 510.33 932.99 512 928 512L928 516L927 516C926.407 509.422 923.007 503.021 916 502L918 510L912 512L897.731 510.437L896 504L898 504L896 500L888 499C889.597 494.493 886.263 484.993 881.028 491.603C878.821 494.389 880 500.643 880 504C875.669 504.292 869.468 507.01 875 511L872 512L872 519L871 519C870.158 513.712 867.093 512.165 862 512L861 516C856.585 512.071 853.967 511.017 848 511L848 508L843 508L843 512L855 515L854 520L846 519L846 514L841 512L838 513L838 500L824 500L824 496L818 498L810 501L809 497L803.701 503.848L780 506L780 502L778 500L777 500L776 500C771.611 503.325 764.927 502.708 761 499L768 498L768 496L732 487L732 486L736 486L736 482L719 477L720 465C713.746 467.01 709.458 468.604 711 476C702.505 472.029 704 464.077 704 456C697.976 456 683.363 458.723 681.103 450.764C680.343 448.089 681.968 443.887 682 441L670 439z"/>
<path style="fill:#7286ae; stroke:none;" d="M522 443L521 441L520 441L523 454L528 454C529.486 449.801 526.97 435.502 522 443z"/>
<path style="fill:#698bc9; stroke:none;" d="M62 446L60 451L61 448L57 449L49 456L53 461L50 462L50 463L52 464C49.0042 469.061 54.2555 476.843 56 482L52 489C41.8352 491.973 56.2986 508.228 52 514C52.5954 519.362 48.9701 526.823 56 528L56 531L75 533L75 532L72 532C71.6673 527.779 69.9936 523.607 74 521L66.6042 509.867L66.4776 499.104L60 488L64 482C68.9226 484.374 77.0523 480.458 78 475L80 476C81.3965 471.397 84.5956 470.87 89 470L93 477L97 477C97 472.863 104.339 473.015 106.5 469.833C111.618 462.299 100.566 450.814 93 454C91.483 446.921 67.9117 446.174 62 446z"/>
<path style="fill:#4f7fcb; stroke:none;" d="M644 445L646 447L646 448C639.699 451.918 640.432 458.631 642 465L653 461L654 457L663 457L654 449L653 452L650 452L644 445M0 450L0 487L3 486L6 481L4 480L4 479L19 474L13.2539 456.617L0 450z"/>
<path style="fill:#698bc9; stroke:none;" d="M640 467L635 471L635 473C639.394 472.665 641.291 471.444 642 467L640 467z"/>
<path style="fill:#93a4cb; stroke:none;" d="M80 476L78 475C76.3951 480.084 69.0578 483.48 64 482L60 488L66.0926 499.104L66.6034 510.726L74 521C68.97 522.078 71.5941 528.136 72 532L76 533L76 531L86 534L88 538L90 538C95.0755 532.527 103.589 539.834 106 533L103 530L96 530L95 530L93 528L93 532C76.1068 525.081 72.4413 512.762 69 496L70 496L73 497L76 504C80.4451 503.087 85.0483 500.452 88 505L94 503C93.6305 500.074 92.2784 496.009 94.0316 493.318C97.582 487.869 109.043 492.22 104 499L104 500L105 502L117 510L117 506C125.472 506.37 126.684 511.221 133.286 514.972C136.56 516.833 141.331 515.95 145 517L148 514L146 511C153.721 500.385 134.958 501.757 130.185 499.55C123.484 496.451 117.402 482.684 108.039 483.916C105.299 484.276 101.532 488.549 99 490L97 477L93 477L89 470C84.4002 470.598 80.843 470.945 80 476z"/>
<path style="fill:#2e6fbf; stroke:none;" d="M50 471L52 477L48 477L48 481L45 480L43 496L44 501L41 500L38 504L39 511L43 511C43 514.333 42.8201 522.033 44.5 524.833C46.1753 527.625 53.9768 528.96 51 533L69 540C67.2676 534.888 61.1808 531.575 56 531L56 528C49.4157 525.956 53.1451 519.288 52 514C58.265 508.467 42.3957 494.88 52 489L56 482L52 471L50 471z"/>
<path style="fill:#698bc9; stroke:none;" d="M4 479L4 480L6 481L2 485L8 491L23 493C27.7761 488.745 30.6569 486.945 30 480C18.7397 475.596 15.6583 473.781 4 479z"/>
<path style="fill:#93a4cb; stroke:none;" d="M642 484L645 486L646 486L647 486L650 480C645.508 478.345 642.816 479.013 642 484z"/>
<path style="fill:#4f7fcb; stroke:none;" d="M637 484L642 482C639.387 480.502 637.646 480.988 637 484z"/>
<path style="fill:#c7cae2; stroke:none;" d="M639 482L640 487C626.436 493.62 617 499.31 617 516L621 516C617.694 524.136 620.202 524.257 622.602 531.914C623.511 534.816 621.523 536.816 624 539L622 546C628.24 549.993 622.024 568.979 622 576C628.062 579.541 624.58 584.418 625.613 589.871C626.08 592.331 628.77 593.908 630 596L635 595L635 596L633 596L633 597L636 600L645 602L645 609L648 607L648 613L653 621L656 621L663 619L665 611L681 605L681 608L682 608C686.399 605.711 689.71 607.935 692 612C699.044 612.229 701.33 616.317 702 623L709 629L711 627C722.961 631.283 731.41 626.249 743 624.264C748.108 623.389 752.835 624.324 758 623C758.026 615.583 766.059 603.95 754 603L754 599L745 592L741 579C737.914 576.974 733.207 572.682 730 576L729 576L722 572L722 570L725 569L723 567L734 557L731 552L731 551C735.82 546.732 739.834 529.216 736.308 523.304C733.708 518.945 728.57 518.094 727 513C722.842 511.833 720.4 511.443 719 516L700 515L699 515L699 512L698 512L698 515L697 515L697 511C692.049 511.264 687.584 510.395 686 516L677 515C670.891 521.468 662.436 524.105 656 517L647 518C645.53 511.724 639.505 505.227 646 500C645.231 495.664 645.008 492.444 648 489L639 482z"/>
<path style="fill:#698bc9; stroke:none;" d="M649 482L647 488L653 488L649 482z"/>
<path style="fill:#2d77cf; stroke:none;" d="M5 499L15 499C16.1776 502.882 18.0481 503.699 22 504L25 494L33 493L33 487L23 493L8 491L9 488C-3.19022 482.895 2.58544 492.882 5 499z"/>
<path style="fill:#a8b8e1; stroke:none;" d="M646 500C638.732 503.825 644.956 512.557 647 518L656 517C659.762 523.1 665.055 522.123 671 520L668 512L660 510L659 505L649 506L649 505C653.094 501.643 653.982 496.047 654 491L651 488C644.692 489.364 644.712 494.525 646 500z"/>
<path style="fill:#698bc9; stroke:none;" d="M104 499C110.286 493.507 99.4029 488.225 94.6034 492.028C85.2377 499.449 105.317 512.274 104 499z"/>
<path style="fill:#7286ae; stroke:none;" d="M652 499L649 505L649 506L659 505L658 502L652 499z"/>
<path style="fill:#93a4cb; stroke:none;" d="M680 508L684 509L681 516L686 516L691 511C687.918 507.214 684.128 504.089 680 508z"/>
<path style="fill:#4f7fcb; stroke:none;" d="M660 507C660.654 510.054 662.007 509.936 665 510L665 509L660 507z"/>
<path style="fill:#7286ae; stroke:none;" d="M673 510L670 514L671 519L677 515C681.278 515.171 682.989 513.018 684 509L673 510z"/>
<path style="fill:#698bc9; stroke:none;" d="M702 508L702 514L713 516L713 515L711 514L714 510L707 510L702 508z"/>
<path style="fill:#93a4cb; stroke:none;" d="M663 510L663 512L667 513L667 509L663 510z"/>
<path style="fill:#4d76ad; stroke:none;" d="M667 509L668 514L673 510L667 509z"/>
<path style="fill:#93a4cb; stroke:none;" d="M697 511L697 515L698 515L697 511M713 511L711 515L719 516L720 512L713 511z"/>
<path style="fill:#698bc9; stroke:none;" d="M149 526L138 537L137 533L122 536L113 536C110.05 536.983 109.378 537.487 110 535C103.646 536.293 93.6567 532.022 90 538L88 538L86 534L76 531C76.5717 538.338 84.8159 538.495 91 539L94 544L94 542C97.1042 545.617 102.393 554.432 107 548L108 548C116.064 557.227 128.561 545.288 132 538L147 540C150.142 549.124 155.183 561.526 166 563L166 564C159.487 566.497 154.862 567.073 154 575L155 575L158 571L158 573C165.142 569.546 174.739 566.563 180 575L185 577L186 577L188 575C191.961 581.577 204.865 593.515 212 597L212 598L212 599L210 608C204.13 608.395 197.023 611.791 196 618L195 618L192 617C188.635 611.38 171.28 605.677 165 607L158 606L160 603L160 602C147.656 603.633 143.878 599.445 133 596L132 589L117 589C114.055 584.134 103.37 588.035 104.5 593.727C105.572 599.126 115.438 600.334 117 595L118 595L118 598L119 598L120 596L123 597C125.311 601.632 128.823 604.415 134 605L132 612C136.121 613.392 142.451 615.291 144 610L153 611L166 611L164 620C167.551 621.996 186.004 635.801 187 628L191 633C195.876 629.978 196.881 626.564 197 621L208 620L208 623C212.241 621.627 220.894 620.545 215 627L219 639L235 640L239 649L239 650L236 656C241.136 661.035 237.276 668.593 237 675L223 682L223 684L227 690L230 690C230.586 697.523 236.795 695.02 242 698L243 698L244 698L244 696L265 702L265 699L266 699L292.999 712.098L303.869 712.254L326 720C329.798 713.588 341.712 700.042 349 698L354 688L341 680L328 681L334 687L334 688L332 693C317.868 693.998 295.807 693.438 288 679L282 679L282 678L284 676L277 678C267.338 666.944 256.243 672.754 251 657C260.698 657.353 256.385 647.814 256 642L255 642L254 644C252.985 640.236 251.922 638.648 248 638L248 621L266 614L261 602L251 599L254 597C250.516 595.499 243.979 591.918 241 595L240 595C239.037 574.286 215.548 588.057 205 579L203 580L197 578L185 563L180 564L178 564L178 566L177 566L167.653 555.896L165 545L166 542L163 541L167 535L167 534L167 533L167 529L149 526z"/>
<path style="fill:#4f7fcb; stroke:none;" d="M737 530L736 535L741 533L739 530L737 530M62 531L69 542L74 540L75 540L86 548L99 549L94 542L94 544L91 539C85.7395 538.292 78.7317 537.958 76 533L62 531z"/>
<path style="fill:#2e6fbf; stroke:none;" d="M132 538C128.324 543.353 126.022 549.211 119 550L119 551C126.212 551.911 137.996 548.553 141 541L147 544L147 553L154 566L146 568C145.434 576.127 131.736 579.456 125 577L124 577L123 577L121 581C126.967 582.292 136.752 575.042 140 580C144.529 578.006 148.567 575.954 150 571L154 573C156.905 566.966 160.571 566.83 166 564L166 563C154.983 560.403 151.592 548.917 147 540L132 538z"/>
<path style="fill:#026de7; stroke:none;" d="M141 541C137.324 547.118 135.001 548.157 135 556L138 556L135 567C140.597 565.626 142.633 561.515 143 556L144 556L145 558L149 554L147 544L141 541z"/>
<path style="fill:#698bc9; stroke:none;" d="M734 547L731 551L731 552L733 556L738 556C737.951 551.839 737.83 549.112 734 547z"/>
<path style="fill:#4f7fcb; stroke:none;" d="M730 558L737 570L746 569L745 572C749.292 571.08 747.733 565.13 744.667 562.944C742.315 561.268 737.824 561.759 735 561L736 556L730 558z"/>
<path style="fill:#026de7; stroke:none;" d="M80 568L102 572L102 565L94 564C91.3757 553.32 80.1053 559.111 80 568z"/>
<path style="fill:#a8b8e1; stroke:none;" d="M729 559L725 569L722 570L722 572L729 576L730 576L734 575C736.762 567.418 735.425 563.757 729 559z"/>
<path style="fill:#026de7; stroke:none;" d="M746 564C746.957 568.419 748.49 572.501 753 574L754 584L752 588C755.627 588.392 763.422 594.771 764 590L765 590C767.212 592.928 770.813 594.394 773.159 597.336C779.133 604.831 781.501 614.541 792 615L791 619L798 622L798 627C781.611 636.573 799.361 651.526 802.485 660.975C804.368 666.67 802.931 676.753 803 683L807 686C812.421 684.755 815.834 687.367 821 687.411C828.766 687.478 837.69 679.134 843 689L852 686L852 683L849 680L859 682L863 681C870.924 693.411 887.602 695.34 898.166 704.14C902.684 707.903 906.592 707.021 908 714L913 714L914 720C919.829 717.752 924.087 721.107 925 727L931 727L928 722L928 721L928 720L931 714C926.341 713.373 930.615 709.894 933 709L932 704L948 703L948 650L939 649L943 640L943 634C936.48 633.995 931.335 633.205 928 627L927 627L923 629C923.346 625.703 924.893 622.839 921 622C921.113 630.889 913.156 623.743 912 629L906 628L904 620L888 619L888 614L884 614L879 602L872 602L872 599L866 600L857 599L857 600L859 600L859 601L853 599L854 606L844 604L834 607C832.311 597.834 821.271 597.847 814 595.833C808.725 594.373 806.329 586.549 801 586C798.578 585.751 797.298 587.9 795 588C790.435 588.198 786.25 584.823 782 585C777.456 585.189 769.185 588.93 765 586L760 589L760 588L762 587L756 587L758 581L754 581L756 574L752 573L752 572L756 572L751 568L752 571L746 564z"/>
<path style="fill:#2d77cf; stroke:none;" d="M65 566C65 571.051 62.0199 577.204 66 578C62.514 584.712 66.1776 586.809 71 591C76.6836 589.174 79.3661 587.894 81 582C76.5514 582.348 71.1375 583.964 68.662 578.981C66.2224 574.069 72.3708 567.293 65 566z"/>
<path style="fill:#93a4cb; stroke:none;" d="M158 571L155 575L150 571L144 577L131 590L131 591L133 596C143.104 601.111 148.103 604.421 160 602L160 603L158 606L165 607C172.053 606.181 187.302 611.658 192 617L195 618L196 618C197.685 612.378 204.37 608.738 210 608L212 599L212 598L212 597L188 575L186 577L185 577L180 575C180 570.409 177.996 573.097 175 571C169.181 566.927 165.024 568.697 159 573C156.792 574.577 157.949 571.205 158 571z"/>
<path style="fill:#4f7fcb; stroke:none;" d="M69 569C67.8038 572.589 65.9353 578.935 69 582C71.6733 584.673 80.9632 582.851 82 580C84.7711 572.379 69.7102 574.159 71 569L69 569z"/>
<path style="fill:#698bc9; stroke:none;" d="M736 569L734 575L741 581C749.228 579.137 747.382 583.992 752 588L749 571L740 574L736 569z"/>
<path style="fill:#2e6fbf; stroke:none;" d="M738 569L740 574L746 573L746 569L738 569z"/>
<path style="fill:#1555ba; stroke:none;" d="M752 574L751 586L752 586L754 584L752 574z"/>
<path style="fill:#2d77cf; stroke:none;" d="M786 585L786 587L801.95 587.138L820 596C821.416 587.641 823.172 583.148 832 582C829.665 573.654 821.267 575.71 814.83 577.506C804.597 580.362 795.756 580.654 786 585z"/>
<path style="fill:#4f7fcb; stroke:none;" d="M114 586L117 589C125.795 587.433 140.208 590.283 144 578L140 580C139.014 575.399 116.34 581.409 114 586z"/>
<path style="fill:#93a4cb; stroke:none;" d="M339 607C344.785 607.576 353.817 608.74 357 614L360 614L360 611L377 612C377 621.511 375.054 625.095 367.699 631.111C364.647 633.608 358.472 633.248 358 637L355 638C354.46 641.916 351.5 641.895 348 642L343 631L320 637L325 646L321 647L322 652L305.285 655.025L280 642L280 632C271.617 631.662 262.826 629.915 256 625L256 624L258 621L248 621L248 638L254 644L255 642L256 642C256.168 647.689 260.136 656.717 251 657C253.954 670.832 258.691 666.691 268.79 670.593C272.024 671.842 274.345 675.805 277 678L284 676L282 678L282 679L288 679C289.723 684.294 294.472 684.971 298.871 687.552C309.138 693.576 319.848 694.502 332 693L334 688L334 687C330.269 683.016 321.078 678.496 324 672L330.994 663.431L326 653L332 639L354 653L355 651L356 651L359 657L360 657L369 652L364 648C367.673 638.502 377.75 629.436 388 627C389.12 619.974 396.685 620.08 394 612L400 605C404.295 606.391 410.185 608.219 413.432 611.509C418.465 616.61 418.953 621.79 427 624C425.582 630.088 430.298 629.538 435 630.324C441.197 631.36 460.68 626.838 464 631L458 632L458 634L473 637L492 637L491 642L506 644L506 647L502 647L502 648L506 648L506 652L502 652L505 662C494.488 659.453 487.448 667.749 479 672L482 680L481 680L481 677L477 676L476 680L484 683L501 678L515 686L515 687L527 689C525.747 684.187 522.93 677.708 518 676L522 672C523.34 667.598 525.723 667.342 530 668C532.113 664.022 537.798 661.259 538.766 656.958C540.034 651.328 524.838 635.13 520 632L520 631C530.079 628.84 515.521 618.813 512.361 617.028C508.488 614.84 503.252 616.387 499 615.972C493.094 615.396 486.229 614.178 480 613L480 616L471 615L471 616L474 616L474 617C469.542 617 459.705 619.181 461 614L447 611L436.961 608.35L417 605C415.532 600.905 412.067 600.262 408 600L408 597L402 597C400.832 590.293 394.932 594.294 390.474 591.231C388.305 589.742 387.381 586.894 384.736 586.049C377.912 583.868 370.558 588.003 363.961 587.647C359.797 587.423 356.373 584.301 352.09 584.303C338.932 584.31 335.285 597.245 339 607z"/>
<path style="fill:#4f7fcb; stroke:none;" d="M764 590L766 594L764 590z"/>
<path style="fill:#698bc9; stroke:none;" d="M767 592L770 595L769 592L767 592z"/>
<path style="fill:#026de7; stroke:none;" d="M64 596C68.0965 602.506 84.0007 607.407 88 599C78.1255 593.539 74.1117 596.309 64 596z"/>
<path style="fill:#2e6fbf; stroke:none;" d="M830 594L830 597L825 598L833 602L835 597L836 597L837 597C839.757 600.776 843.26 598.954 846 596L830 594z"/>
<path style="fill:#4f7fcb; stroke:none;" d="M861 594L859 597L837 597L836 597L835 597L834 607L844 604L854 606L853 599L859 601L859 600L857 600L857 599L866 600L865 594L861 594z"/>
<path style="fill:#2d77cf; stroke:none;" d="M117 595L113 599C116.488 601.897 122.693 603.876 119 609L120 611C116.628 613.994 121.574 617.786 123 621L136 619L136 618L130 618L122 597L119 598L118 598L117 595z"/>
<path style="fill:#4f7fcb; stroke:none;" d="M122 597L130 618L144.856 619.43L151.144 624.562L164.916 623.439L182.874 639.657L192 643L193 643L207 637L219 637L215 627C222.47 621.616 212.589 620.871 208 623L208 620L197 621C196.746 626.461 195.104 629.417 191 633L187 628C186.141 634.426 165.568 622.735 165 617L161 615L160 615L151 615L156 610L156 609L153 611L144 610C141.251 614.372 136.454 613.085 132 612L134 605L122 597z"/>
<path style="fill:#7286ae; stroke:none;" d="M400 605L394 612L388 627C377.674 628.383 366.758 638.331 364 648L369 652L360 657L359 657L356 651L355 651L354 653L349 651C351.149 656.472 357.444 663.222 362 656L364 658L365 658L366 656L367 656C371.142 660.664 373.434 652.349 373 649L379 644L418 645L420 648L420 649C418.777 649.899 418.097 650.593 417.205 651.863C409.12 663.38 423.212 658.557 425.029 666.118C426.558 672.478 418.903 673.455 424 681L425 681L426 681L432 679L432 682L436 682L438 689L439 689L440 679L434 681L431 678L431 675L433 676C433 673.316 428.785 660.525 428 667L427 667L428 660L431 665L432 665C436.004 659.513 439.793 659.827 446 659L461 672L451 695C456.486 696.986 468.542 694.222 473.816 691.102C476.67 689.413 478.68 685.199 482.17 684.738C488.183 683.942 492.424 691.537 499 690C500.201 694.242 503.464 698.546 508 696L508 702L511 704L514 704L515 700L511 690L518 689L515 687L515 686L518 686L501 678L484 683L476 680L477 676L481 680L482 680L479 672C488.467 668.711 493.768 660.644 505 662L502 652L506 652L506 648L502 648L502 647L506 647L506 644L491 642L492 637L473 637L458 634L458 632L464 631C463.022 626.527 458.467 629.563 455 629.917C448.94 630.534 424.846 634.724 427 624L400 605z"/>
<path style="fill:#4d76ad; stroke:none;" d="M151 615L160 615L161 615C164.22 618.487 166.5 614.421 166 611C160.508 611.31 153.213 608.338 151 615z"/>
<path style="fill:#4f7fcb; stroke:none;" d="M783 614L787 629L787 632L787 633L787 634L789 646L791 646C791.512 639.785 793.24 631.2 798 627L798 622L791 619L792 615L783 614z"/>
<path style="fill:#2d77cf; stroke:none;" d="M207 637L193 643L192 643C190.087 640.264 188.135 640.192 185 641L188 646L187 649L189 652C186.194 653.08 172.248 658.916 176 661L176 662L173 662L173 663L211 668C214.456 660.876 215.233 661.343 212 654C205.403 652.948 206.793 649.157 208 644L204 645C205.928 638.848 221.87 643.246 228 643L229 650L233 650L230.628 673.235L224 681L237 675C237.455 669.281 241.776 659.745 236 656L239 650L239 649L235 640L207 637z"/>
<path style="fill:#c7cae2; stroke:none;" d="M674 637L692 659L701 658C701.064 660.993 700.946 662.346 704 663C703.843 658.595 699.34 648.508 704 647C698.42 639.341 695.733 645.358 689.259 642.763C682.979 640.246 681.742 637.005 674 637z"/>
<path style="fill:#4f7fcb; stroke:none;" d="M332 639C330.536 640.668 327.716 642.767 327.542 645.15C327.302 648.46 330.25 648.984 332 647L335 646L341 656L350 655C348.14 645.25 340.478 642.129 332 639z"/>
<path style="fill:#026de7; stroke:none;" d="M204 645L208 644C206.124 649.255 205.131 653.465 212 654C214.023 661.391 213.163 660.777 211 668L173 663L173 662L176 662L176 661L174 659L173 659L168 661L168 662L172 668L184.17 671.517L200 671L200 676C206.73 676.024 209.898 677.317 212 684L208 688L210 696L216 694L217 694L217 705L223 704C226.768 713.216 238.488 708.696 240 720L244 720L244 726L225 730L226 736L224 736L224 728L208 728L208 742L204 742L200 708L196 709L197 712L195 718L199 716C199.066 721.611 192.883 734.729 187 735L184 744L199 745L199 746L172 748L160.782 749.028L160 756L142.985 759.946L123.961 756.172L112 758L111 758L110 758L106 756L109 753L109 752L102 751C98.407 745.603 96.2006 752.349 96 756L84 760C84.0169 756.698 81.6736 756.873 81 760L80 760C79.9966 755.654 80.6998 751.56 76 750L78 747L58 736L50 735L44 737C37.7881 750.456 34.2745 726.228 34 722C30.2518 723.313 28.5343 723.207 26 720L32 720L32 718L21 718L21 717L24 716L5 710L0 704L1 730L3 730C6.40639 726.832 8.9122 729.371 13 730L13 731C-6.95786 737.531 0 767.397 0 784L0 948L584 948L585 941L612.17 932.659L636 936L640 932C643.247 941.235 651.92 930.407 657.87 931.875C663.877 933.356 666.272 941.89 671.299 944.476C677.698 947.768 685.496 944.414 692 944L692 948L714 944L714 948L948 948L948 864L912 866C909.709 873.275 903.812 870.18 898.259 871.755C894.94 872.696 892.437 876.032 888.999 877.196C883.774 878.966 875.558 879.639 870 880L871 878L824 879L822 884L795.054 885.639L784 891C781.033 895.981 772.657 897.687 767.089 897.617C758.901 897.513 752.327 894.914 744.514 894.417C732.715 893.666 719.819 896.865 710 888L684 890L684 889L687 888L685 884L672 880L673 864L667 852L669 848C674.076 846.516 675.103 838.674 672.38 834.477C667.794 827.408 658.635 824.02 651 822C648.265 826.863 633.108 839.809 630.042 827.891C628.97 823.725 634.45 817.897 636 814L642 816L632 803L627 803L620 771L613 768L613 767L616 767L616 766C612.733 764.799 608.343 761.449 604.83 761.819C597.249 762.616 591.393 769.556 583.094 768.396C578.978 767.82 578.702 761.858 574.961 761.596C571.006 761.318 567.114 766.909 566 770C552.73 762.838 569.102 754.361 560 747C561.678 741.909 561.766 737.212 557 734C560.449 718.131 542.997 719.816 536 710C529.802 709.855 524.922 700.505 520 708L514 704C505.85 705.69 505.037 699.66 498.001 697.774C491.609 696.061 476.173 700.223 473 706L477 705C477.047 708.935 476.954 711.657 481 713L480 709L498 714C500.614 718.358 508.22 717.922 513 718L519 727C522.987 730.116 530.453 736.886 530 742C538.912 750.784 530.953 753.853 532.681 762.98C533.553 767.586 537.832 766.418 540.116 769.402C542.676 772.748 541.002 775.165 546 776L548 778C537.668 785.432 522.273 785.967 510 788L512 792C499.854 797.046 490.75 788.743 480 787L474 781L475 779C464.725 772.245 465.103 773.984 454 777L455.191 769L443.449 752.385L439.775 741.747L422 744L429 731L431 732L432 732L419 719L414 720C410.098 703.811 430.214 715.026 436.08 715.596C438.328 715.815 440.828 714.484 443 714L443 717L452 716L452 712L451 712L443 713C441.584 709.715 438.625 707.17 437.505 703.816C435.143 696.739 437.833 685.63 427 685L417.603 678.258L412 666L408 661L407 664C401.737 664.289 400.331 667.767 395.871 669.157C392.64 670.165 389.442 668.138 386.093 669.316C378.797 671.88 376.759 678.456 371 669L368 671L363 667C360.891 653.38 341.991 662.507 336 653L335 653C332.807 657.431 333.414 661.605 338 664C336.715 668.438 341.669 680.061 343 677L344 677L345 679C353.723 676.016 356.391 695.419 365 698C363.683 706.258 352.457 701.471 346 701C342.907 708.094 340.041 712.931 332 715L323 726L318 721L292 715C291.003 708.157 273.314 704.266 267.741 703.616C264.556 703.244 262.421 705.857 259.079 704.394C255.299 702.739 248.426 692.678 244 698L243 698L242 698L242 696L220 692L230.755 673.657L233 650L229 650L228 643C221.679 643.077 205.201 637.831 204 645z"/>
<path style="fill:#4f7fcb; stroke:none;" d="M379 644L373 649C373.567 657.996 367.04 654.328 365 658L364 658L362 656L359 659C362.181 662.701 364.703 661.058 368.7 662.812C376.356 666.171 387.396 673.359 389 659L392 659C392.497 651.756 399.516 647.172 405.857 652.43C413.182 658.505 414.696 677.97 424 680L424 679C418.347 673.394 426.578 671.918 425.458 666.118C424.028 658.717 410.194 663.565 417.206 652.634C418.079 651.273 418.915 650.184 420 649L420 648L418 645L379 644z"/>
<path style="fill:#93a4cb; stroke:none;" d="M589 644L590 648C585.332 651.294 584.061 662.486 584 668L581 668L593 690C597.896 689.868 600.362 691.327 602 696C595.776 696 585.585 694.795 582 701C571.872 699.146 557.191 701.484 548 706C549.767 699.446 543.841 696.644 538 696L538 693L534 693L535 707L546 711L547 711L548 711C555.038 705.213 565.899 704.58 571 712L576 710C580.694 718.294 578.266 736.037 589 739L599 736L609 747C611.831 742.372 617.078 743.003 622 743C624.356 750.808 633.98 752.714 635.482 762.155C636.516 768.653 625.428 775.982 623.814 782.911C622.907 786.805 624.061 797.496 626.893 800.397C632.326 805.96 643.783 803.207 647 797L649 799C655.879 794.698 664.516 795.278 667 804C677.746 807.702 680.886 816.35 693 810C694.788 814.453 699.867 815.169 704.036 817.005C717.144 822.778 726.01 820.04 740 820L742 830L764 828L766 835L785 834L785 826L791 832L824 836C826.949 841.625 835.285 841.508 840.91 842.553C849.1 844.076 858.809 847.4 865 853L877 851L878 856L879 853L880 853L881 855C883.579 852.72 885.031 853.548 888 855L895 851L896 855C899.284 854.379 902.24 854.545 903 851C911.831 855.781 941.046 854.521 946.721 845.254C949.338 840.982 948 833.832 948 829L939 831C936.251 841.177 923.906 833.267 922 842L916 845L899 843L898 843C892.388 852.606 874.694 845.581 866 848L858 845L851 839L852 836L835 825C830.87 810.558 805.701 814.197 803 796L794 789L794 788L797 787L780.336 782.883L772.74 775.6L746 774L746 771C732.174 770.989 727.641 762.681 721 752L708 751L689 740L688 740L684 742L683 736L687 736C683.643 726.62 681.61 720.996 683 710C675.84 704.901 669.182 701.879 660.039 702.101C655.44 702.213 652.812 704.124 648 703L650 701C643.585 692.26 634.421 696.028 630 684C625.637 684.144 624.587 682.174 622 679C626.336 672.828 613.179 663.966 612 658L608 658L608 655L602 654C605.31 644.636 596.738 644.16 589 644z"/>
<path style="fill:#2e6fbf; stroke:none;" d="M791 644L792 655L799 655L799 654L791 644z"/>
<path style="fill:#2d77cf; stroke:none;" d="M335 646L332 647L326 653C327.356 657.973 334.119 663.197 328 667L326 675L332 675L332 681L341 680L354 688L349 698C340.688 699.288 338.754 706.74 333.61 712.1C330.968 714.854 327.307 716.363 326 720L315 719L318 721C318.577 724.474 319.526 725.423 323 726L332 715C340.306 713.792 343.654 708.415 346 701C352.522 701.747 364.3 706.982 365 698L350.187 678.76L344 677L343 677L342 679L338 664C333.967 660.856 333.44 657.733 335 653L336 653C337.071 658.024 349.348 658.922 354 659C350.163 654.397 346.45 655.57 341 656L337 646L335 646M392 659L389 659C384.927 679.126 365.091 653.926 363 667L368 671L371 669C374.919 681.176 380.389 671.072 387 669.278C394.672 667.195 402.525 669.319 408 661L412 666C412.783 670.968 415.864 678.879 421 680C416.449 671.839 413.83 658.914 406.701 652.43C400.167 646.487 392.234 651.282 392 659z"/>
<path style="fill:#c7cae2; stroke:none;" d="M782 678L787 677C788.35 683.187 793.718 682 799 682L797 686C803.354 682.802 805.759 663.216 801.146 657.395C798.829 654.472 794.921 654.786 792 653C782.496 658.137 782 668.486 782 678M549 682L553 681C555.733 684.804 560.561 684.809 565 685C566.036 688.135 573.228 693.163 573.369 686.927C573.524 680.032 566.924 674.007 568 666L576 669C578.495 652.284 554.632 652.426 546.742 662.518C542.086 668.474 548.552 675.778 549 682z"/>
<path style="fill:#93a4cb; stroke:none;" d="M432 665L431 665L428 660L427 667L428 667L428 664C430.825 666.825 435.188 676.047 431 675L431 678L433 677L434 681L440 679L439 690L442 689C446.434 700.562 457.958 688.113 459 681L457 683L447 682L447 679C437.126 676.419 439.974 665.561 440 658L432 665z"/>
<path style="fill:#a8b8e1; stroke:none;" d="M440 659C439.792 666.148 436.667 677.481 447 679L447 682L457 683L460 681L461 672L446 659L440 659z"/>
<path style="fill:#4f7fcb; stroke:none;" d="M330 664C326.45 666.785 322.974 666.612 324 672C320.531 675.58 325.8 680.916 329 683L333 680L332 675L326 675L330 664z"/>
<path style="fill:#c7cae2; stroke:none;" d="M749 673C749.106 682.059 736.54 689.899 750 696L752 720C754.916 720.299 763.589 723.317 762 727L762 728C767.777 728.446 772.382 735.49 767.269 740.411C762.908 744.608 756.741 739.901 753 746L745 749C748.157 761.455 769.387 762.62 780 758.921C784.68 757.289 788.245 753.393 793.089 752.225C799.63 750.647 806.406 751.224 813 750C814.148 755.357 820.108 751.262 824 751C823.657 740.536 810.764 740.919 810 731L816 731L815 728L825.025 728.642L848 726C853.661 720.165 863.754 712.24 853 705L853 704C856.96 704.209 872.683 701.487 861.556 696.948C856.929 695.06 852.432 698.358 848 695L851 696C849.088 693.079 847.304 693.31 844 694L845 690L843 692L835 688L832 689C828.069 683.554 823.614 687.876 818.845 689.614C815.371 690.881 812.491 688.409 809.209 689.127C804.372 690.186 804.143 695.32 798 695C795.149 697.946 790.922 699.698 787 698L786 698L785 700L784 700L775 697L774 691C766.839 689.508 759.906 678.068 756 672L749 673z"/>
<path style="fill:#4f7fcb; stroke:none;" d="M427 685C437.276 684.633 439.885 699.28 449 700L449 704L450 704C454.568 699.634 462.771 697.544 469 697L468 695L500 694L499 690C492.651 690.634 488.078 683.747 482.17 684.387C478.317 684.803 476.085 689.305 472.907 691.102C464.764 695.707 447.64 698.444 442 689L439 690L436 682L432 682L432 679C427.286 679.157 425.44 680.169 427 685z"/>
<path style="fill:#2e6fbf; stroke:none;" d="M849 680C852.803 687.579 864.543 686.263 872 687L872 686L863 681L859 682L849 680z"/>
<path style="fill:#2d77cf; stroke:none;" d="M222 682L220 692L231 696L230 690L227 690L222 682z"/>
<path style="fill:#698bc9; stroke:none;" d="M806 684L801 686L803 689L797 692L797 695C804.098 696.108 808.144 691.661 810 685L807 686L806 684z"/>
<path style="fill:#2e6fbf; stroke:none;" d="M810 685C811.007 690.851 815.948 690.976 821 690L821 688L810 685z"/>
<path style="fill:#2d77cf; stroke:none;" d="M432 687L432 688L437.505 704.675L443 713L451 712L452 712L453 716L461 711L466 716L471 713L472 713C477.943 717.526 484.399 713.581 491 714L491 713L480 709L481 713C477.502 711.072 477.125 708.878 477 705L473 706C477.147 701.001 491.544 695.959 498.001 698.318C502.998 700.144 505.465 704.883 511 706C510.791 703.142 510.826 702 508 702L508 696L494 693.17L468 695L469 697C463.129 697.268 453.545 699.023 450 704L449 704L449 700L432 687z"/>
<path style="fill:#2e6fbf; stroke:none;" d="M511 690C511.428 696.811 512.348 696.383 517 700C522.012 696.395 520.873 693.328 519 688L511 690z"/>
<path style="fill:#4f7fcb; stroke:none;" d="M519 688C520.379 693.677 521.405 695.669 517 700L514 699C514.33 704.113 514.698 706.569 520 708C526.366 701.718 529.081 710.969 536 710C541.524 721.705 559.421 716.942 557 734C561.114 738.068 561.387 741.564 560 747C565.15 753.299 559.025 759.825 559 767L571.959 759.563L582 761L580 769L604.83 762.375L616 766L616 767L613 767L613 768L620 771L623 784L624 784C625.907 776.407 634.07 771.755 635.667 764.844C638.095 754.343 625.588 750.307 622 743C617.434 743 610.554 741.687 609 747L599 736L589 739C577.317 734.204 582.939 718.572 576 710L571 712C567.3 704.088 553.497 704.171 548 711L547 711L546 711L535 707L534 693L526 694L525 688L519 688z"/>
<path style="fill:#93a4cb; stroke:none;" d="M882 699L877 692C869.109 695.178 877.623 698.639 882 699z"/>
<path style="fill:#4f7fcb; stroke:none;" d="M881 697L881 698L892 700C889.227 695.524 885.718 696.801 881 697z"/>
<path style="fill:#93a4cb; stroke:none;" d="M883 698C883.937 706.167 892.145 706.545 899 707L901.311 722.87L888 735L888 736L890 739C884.507 739.59 877.474 740.644 873 737L872 737C869.428 740.21 865.72 737.607 862 738.133C852.448 739.486 852.817 747.165 854 755L873 752L878 749C880.046 751.261 881.486 750.36 883 748L885 750C894.93 745.767 899.431 767.571 909 766L899 750L901 747L905 749C907.189 741.558 918.382 738.519 908 732C913.171 728.832 910.096 725.072 911 720C908.326 716.524 909.04 711.696 906.272 708.242C901.308 702.047 890.371 699.685 883 698z"/>
<path style="fill:#4f7fcb; stroke:none;" d="M265 699L265 702L264 702L254 700L254 701C259.079 705.275 271.541 707.719 278 706C274.415 701.189 270.571 700.377 265 699z"/>
<path style="fill:#2d77cf; stroke:none;" d="M932 704L933 709C930.105 709.71 926.147 713.381 931 714L928 720L928 721L928 722L931 727L925 724L924 724L923 727C916.05 726.026 911.518 730.093 913 737L919 739C923.417 740.253 924.716 743.874 926 748L911 758L909 765L924 771C933.909 759.957 948 756.527 948 740C939.798 743.575 939.373 740.46 932 738L941 733L942 733C944.335 723.313 935.32 719.781 932 711C937.732 707.213 940.842 704.439 948 707L948 703L932 704z"/>
<path style="fill:#93a4cb; stroke:none;" d="M938 711C942.641 713.783 940.892 718.383 940 723L943 729L948 731C948 724.298 949.51 694.163 938 711z"/>
<path style="fill:#2e6fbf; stroke:none;" d="M934 711L942 706C937.735 706.139 935.303 706.708 934 711z"/>
<path style="fill:#4f7fcb; stroke:none;" d="M932 711L934 718L936 718L941 714L938 709L932 711z"/>
<path style="fill:#2d77cf; stroke:none;" d="M287 710L287 711L292 715L311 718C305.71 709.794 295.613 712.04 287 710z"/>
<path style="fill:#4f7fcb; stroke:none;" d="M414 720L419 719C423.089 724.022 435.922 726.108 442 725L443 726L443 728L433 735L436 735L440 742L444 755L449 755L449 758L459 762L448.499 749.772L447.387 731.039L445 717L443 714C440.824 714.286 438.256 715.521 436.08 715.242C430.609 714.542 408.524 703.704 414 720z"/>
<path style="fill:#7286ae; stroke:none;" d="M454 716L445 721L445 724C447.326 726.071 450.258 728.732 450.593 732.05C451.073 736.799 446.79 740.623 452 744L451 749L461 752C462.446 756.114 466.12 756.04 470 757L469 764C476.13 764.331 482.902 768.092 480 776C486.491 779.204 489.812 787.669 495.296 790.253C500.954 792.92 510.137 785.318 515.335 783.522C518.131 782.556 521.942 783.539 525 783L525 778L522 778C522.37 771.146 525.819 767.92 530 763L527 760L533 753L534 753L536 755L532 743L520 758L521 764L518 764L514.306 776.856L507 782L495 785L487 777L485 772L488 773L488 765C476.559 759.727 496.526 746.851 490 737L482 740L481 733L491 735L499 730L499 725L493 729L492 729L489 726L489 717L472 713L471 713L466 716L461 711L454 716z"/>
<path style="fill:#4d76ad; stroke:none;" d="M482 718L489 717L489 726L492 729L493 729L506 718L506 717L498 714C492.315 714.934 484.326 710.999 482 718z"/>
<path style="fill:#2d77cf; stroke:none;" d="M576 733L576 738C570.163 739.251 574.729 746.04 575 750C579.622 748.092 583.175 746.216 584 741C575.712 737.089 579.022 722.84 569 724C569.632 720.154 565.165 707.327 560.121 714.618C554.259 723.091 570.754 731.04 576 733z"/>
<path style="fill:#698bc9; stroke:none;" d="M941 713L934 720L940 722L941 713z"/>
<path style="fill:#4f7fcb; stroke:none;" d="M909 714L911 720L908 732L911 735L912 735C913.187 729.289 917.37 727.067 923 727C925.541 720.762 919.503 716.721 914 720L913 714L909 714z"/>
<path style="fill:#698bc9; stroke:none;" d="M450 715C440.822 720.914 446.688 723.748 447.053 732.015C447.358 738.895 444.268 743.778 448.499 750.571C450.249 753.38 454.077 753.612 456.026 756.343C458.922 760.401 461.039 772.523 468 769C469.638 774.858 478.253 779.568 484 781C484.761 789.377 490.137 791.913 498 792L498 791L480 776C484.206 767.837 476.094 764.152 469 764L470 757L461 752L451 749L452 744C445.817 737.922 454.614 729.735 445 724L445 721L450 715z"/>
<path style="fill:#93a4cb; stroke:none;" d="M499 730L488 735C489.292 737.491 492.649 740.468 492.361 743.425C491.781 749.377 475.805 761.553 488 765L488 773L485 772L487 777L495 785L507 782C511.619 774.509 518.757 776.054 518 764L521 764L520 758L532 743C528.879 738.007 526.437 733.197 521.833 728.167C517.582 723.522 513 725.571 513 718C503.846 717.201 499.034 720.344 499 730z"/>
<path style="fill:#4f7fcb; stroke:none;" d="M513 720C513.719 724.318 515.929 725.102 520 726C518.478 722.244 517.057 720.644 513 720z"/>
<path style="fill:#2d77cf; stroke:none;" d="M426 723L432 732L429 731L422 744L441 741L436 735L434 736L433 735L443 728L443 726L442 725L426 723M3 730L0 729L0 739L13 731C9.55625 728.719 5.80732 725.715 3 730z"/>
<path style="fill:#4f7fcb; stroke:none;" d="M943 729L942 733L941 733L940 731L938 735L948 737C947.858 732.704 947.06 730.701 943 729z"/>
<path style="fill:#4d76ad; stroke:none;" d="M481 733L482 740L488 738L488 734L481 733z"/>
<path style="fill:#698bc9; stroke:none;" d="M936 733L932 738C937.509 741.014 945.214 746.955 948 737L938 733L936 733z"/>
<path style="fill:#4f7fcb; stroke:none;" d="M915 736L905 749L901 747L899 750L907 765L911 758C917.324 757.792 920.093 753.251 923 748C918.507 745.503 920.233 742.983 922 739L919 739L915 736z"/>
<path style="fill:#698bc9; stroke:none;" d="M922 740C917.697 744.89 920.001 747.803 926 748L922 740z"/>
<path style="fill:#c7cae2; stroke:none;" d="M924 774L915 775C914.661 764.576 906.363 768.363 901 762L894 767C888.526 766.072 872.496 771.375 869 776L861 776L845 771C846.816 750.936 832.891 769.199 825.675 772.146C822.227 773.554 817.645 772.075 814 772C809.35 783.423 812.559 790.091 826 792L832 808L836 810L849 811C847.898 817.315 851.007 827.804 859 826L860 832L863 832C865.035 845.964 877.177 832.26 882 841L883 841C886.031 838.95 890.883 838.929 893 842L896 842C897.822 838.755 899.203 838.596 902 841L915 839L916 839C916.729 842.403 918.806 841.987 922 842C925.03 833.785 937.21 841.877 939 831L948 829L948 752C936.336 755.194 938.84 763.008 932.101 770.527C929.799 773.096 926.245 771.516 924 774z"/>
<path style="fill:#2d77cf; stroke:none;" d="M533 753L527 760L527 763L530 763L528 766L535 773L537 772L538 776L526 782.493L515.335 782.968L494 792L494 793L512 792L510 788C520.932 787.087 540.042 786.127 548 778L546 776L533.117 762.966L533 753M444 755L444 756C452.251 762.051 454.272 767.524 454 777L464.83 773.021L475 779L474 781L480 787L491 792L491 791C486.712 788.453 484.787 785.953 484 781C478.395 778.788 470.372 774.643 468 769L449 758L449 755L444 755M561 768L566 770C571.142 760.573 574.609 762.214 581 768L582 761C571.202 758.69 569.424 761.2 561 768z"/>
<path style="fill:#4d76ad; stroke:none;" d="M934 763L932 766L935 767L934 763z"/>
<path style="fill:#4f7fcb; stroke:none;" d="M909 765L909 766C913.16 768.005 914.654 770.419 915 775L924 774L931 768L931 767L924 771C919.092 767 915.456 764.695 909 765M525 766L522 778L525 778L525 783L538 776L537 772L535 773C532.695 768.392 530.197 766.288 525 766z"/>
<path style="fill:#93a4cb; stroke:none;" d="M931 766L925 772C930.281 772.856 933.47 771.919 933 766L931 766z"/>
<path style="fill:#4d76ad; stroke:none;" d="M676 784L685 784L686 775C683.927 773.648 681.473 770.343 679.06 769.877C672.933 768.695 675.328 781.177 676 784z"/>
<path style="fill:#698bc9; stroke:none;" d="M676 794L675 777C670.063 778.302 662.504 789.33 667.832 793.958C669.758 795.631 673.766 794.281 676 794z"/>
<path style="fill:#a8b8e1; stroke:none;" d="M628 783L635 783L635 778C631.048 778.301 629.178 779.118 628 783z"/>
<path style="fill:#4f7fcb; stroke:none;" d="M652 796L655 806L651 806L651 807C653.361 809.532 653.613 811.933 652 815L652 816C659.663 822.12 671.868 818.849 672 830L675 830L672 848L680 853L681 853L688 849L688 848L680 842L674 825C684.018 821.164 672.912 811.666 667 810C666.999 798.056 662.986 796.597 652 796z"/>
<path style="fill:#2d77cf; stroke:none;" d="M647 797C641.292 804.285 635.16 802.023 627 802L627 803L632 803C630.932 809.811 638.447 811.415 642 816L636 814C633.861 817.818 628.605 823.337 629.631 827.891C632.268 839.588 648.616 827.969 651 822C660.54 825.256 672.963 830.524 674 842L675 842L675 830L672 830C671.962 819.29 660.447 820.588 652 816L652 815C654.494 812.539 653.675 808.995 651 807L651 806L655 806C654.777 797.539 651.49 800.143 647 797z"/>
<path style="fill:#7286ae; stroke:none;" d="M667 804L667 810C672.673 812.593 682.459 819.996 674 825L685 842L686 842L691 840L691 839L688 838L688 837L703 837L702 840C706.114 842.38 707.519 845.334 708 850L751.911 850.767L767.961 847.553L802 850L802 847L844 852L844 855C852.991 855.386 875.686 862.848 877 851L865 853C855.32 840.77 833.073 847.6 824 836L791 832L785 826L785 834L766 835L764 828L742 830L740 820C726.19 820.009 702.047 824.782 693 810C679.934 815.032 678.809 806.564 667 804z"/>
<path style="fill:#4d76ad; stroke:none;" d="M688 837L688 838L691 839L691 840L686 842L685 842L681 838L680 838L680 842L688 848L688 849L681 853L680 853L672 848L679.346 862.089L681 878L684 880L688 876L704 876L703 879C709.514 881.143 718.275 883.271 725 881.546C729.549 880.38 733.318 876.837 738 876.338C743.505 875.751 751.501 878.129 757 879.208C760.884 879.971 773.123 886.344 774 880L801 875.039L875 873.714L948 864L948 845C935.237 851.397 917.616 856.374 903 851L896 855L895 851C891.636 851.353 888.764 851.418 888 855L880 853L879 853C873.789 861.748 852.998 855.185 844 855L844 852L817 846.264L802 847L802 850L708 850C707.749 845.171 706.744 841.798 702 840L703 837L688 837z"/>
<path style="fill:#2d77cf; stroke:none;" d="M669 848L667 852L673 864C669.143 867.372 671.961 875.285 672 880L685 884L687 888L684 889L684 890C692.382 891.816 701.962 890.887 710 888C717.508 898.239 735.119 893.626 745.759 894.777C753.572 895.622 759.854 898.129 768.184 897.855C773.272 897.687 782.136 896.199 784 891L796.99 885.37L822 884L824 879L871 878L870 880L898.259 872.258L912 868C874.978 875.097 837.604 873.378 800 875.039C790.691 875.451 783.642 880 774 880C774 886.113 763.135 880.407 760 879.667C753.484 878.128 742.518 874.794 736 876.333C730.116 877.723 725.662 882.981 719 882.333C714.519 881.898 704 880.796 704 876L688 876L684 880L681 878L679.396 861.206L672 848L669 848M809 920C809.288 929.491 815.2 928.018 819 921L816 918L809 920z"/>
<path style="fill:#698bc9; stroke:none;" d="M849 925L843 925C840.353 915.895 815.029 918.608 816.971 926.871C818.157 931.92 824.286 929.72 827.625 931.153C831.354 932.754 833.958 937.39 838.13 938.191C845.249 939.558 848.938 930.283 849 925z"/>
<path style="fill:#2d77cf; stroke:none;" d="M640 932L636 936L619 935L619 936C626.291 937.354 642.439 943.183 648 938C650.673 938.945 663.772 935.428 659.338 932.048C652.548 926.871 645.687 941.732 640 932z"/>
<path style="fill:#698bc9; stroke:none;" d="M592 945L592 942L585 942L584 948L621 948C618.121 942.515 617.74 940.132 619 934C606.37 928.677 604.023 944.226 592 945z"/>
<path style="fill:#2d77cf; stroke:none;" d="M585 941L585 942L592 942L592 945C599.539 944.781 603.403 941.431 607 935L585 941z"/>
<path style="fill:#c7cae2; stroke:none;" d="M651 942L641 941L641 944L634 948L683 948L683 947L678 945C670.11 945.503 656.526 925.716 651 942M618 936C616.673 946.772 622.471 948 632 948L630 946C635.521 937.416 623.826 936.46 618 936z"/>
<path style="fill:#93a4cb; stroke:none;" d="M631 938L630 945L630 946L632 948L633 948L634 948L641 944C640.043 938.002 636.164 938.57 631 938z"/>
<path style="fill:#7286ae; stroke:none;" d="M648 938L645 942L651 942L648 938z"/>
<path style="fill:#4f7fcb; stroke:none;" d="M678 945C681.139 948.732 687.463 947.997 692 948L692 944L678 945z"/>
<path style="fill:#2d77cf; stroke:none;" d="M694 946L694 948L714 948L714 944L694 946z"/>
</svg>
