<?xml version="1.0" encoding="UTF-8" standalone="no"?>
<!-- Created with Inkscape (http://www.inkscape.org/) -->

<svg
   xmlns:osb="http://www.openswatchbook.org/uri/2009/osb"
   xmlns:dc="http://purl.org/dc/elements/1.1/"
   xmlns:cc="http://creativecommons.org/ns#"
   xmlns:rdf="http://www.w3.org/1999/02/22-rdf-syntax-ns#"
   xmlns:svg="http://www.w3.org/2000/svg"
   xmlns="http://www.w3.org/2000/svg"
   xmlns:sodipodi="http://sodipodi.sourceforge.net/DTD/sodipodi-0.dtd"
   xmlns:inkscape="http://www.inkscape.org/namespaces/inkscape"
   width="744.09448819"
   height="1052.3622047"
   id="svg2"
   version="1.1"
   inkscape:version="0.48.2 r9819"
   sodipodi:docname="dessin-poussins.svg">
  <defs
     id="defs4">
    <linearGradient
       id="linearGradient5774"
       osb:paint="solid">
      <stop
         style="stop-color:#2a2e00;stop-opacity:1;"
         offset="0"
         id="stop5776" />
    </linearGradient>
    <linearGradient
       id="linearGradient5658"
       osb:paint="solid">
      <stop
         style="stop-color:#000000;stop-opacity:1;"
         offset="0"
         id="stop5660" />
    </linearGradient>
    <linearGradient
       id="linearGradient4208"
       osb:paint="solid">
      <stop
         style="stop-color:#ffde49;stop-opacity:1;"
         offset="0"
         id="stop4210" />
    </linearGradient>
    <linearGradient
       id="linearGradient3822"
       osb:paint="solid">
      <stop
         style="stop-color:#000000;stop-opacity:1;"
         offset="0"
         id="stop3824" />
    </linearGradient>
  </defs>
  <sodipodi:namedview
     id="base"
     pagecolor="#ffffff"
     bordercolor="#666666"
     borderopacity="1.0"
     inkscape:pageopacity="0.0"
     inkscape:pageshadow="2"
     inkscape:zoom="1.6160156"
     inkscape:cx="430.59897"
     inkscape:cy="679.92424"
     inkscape:document-units="px"
     inkscape:current-layer="layer3"
     showgrid="false"
     inkscape:window-width="1440"
     inkscape:window-height="789"
     inkscape:window-x="0"
     inkscape:window-y="0"
     inkscape:window-maximized="1" />
  <metadata
     id="metadata7">
    <rdf:RDF>
      <cc:Work
         rdf:about="">
        <dc:format>image/svg+xml</dc:format>
        <dc:type
           rdf:resource="http://purl.org/dc/dcmitype/StillImage" />
        <dc:title></dc:title>
      </cc:Work>
    </rdf:RDF>
  </metadata>
  <g
     inkscape:groupmode="layer"
     id="layer3"
     inkscape:label="couleur fond"
     style="display:inline">
    <path
       sodipodi:nodetypes="ccccc"
       inkscape:connector-curvature="0"
       id="path6193"
       d="m 236.94739,325.59183 353.49957,-0.12302 -0.96042,66.08499 -352.85497,14.36632 z"
       style="fill:#cde9ed;fill-opacity:1;stroke:none" />
    <path
       style="fill:#96d286;fill-opacity:1;stroke:none"
       d="m 236.616,403.29679 352.26196,-11.84726 -1.57923,118.21939 -351.61736,1.8355 z"
       id="path6107"
       inkscape:connector-curvature="0"
       sodipodi:nodetypes="ccccc" />
    <path
       style="fill:#96d286;fill-opacity:1;fill-rule:nonzero;stroke:none"
       d="m 466.88593,438.98947 0,-2.24599 1.97418,1.02089 c 1.90783,0.98658 2.01225,0.97388 3.10681,-0.37785 1.0557,-1.30373 1.20863,-1.32996 2.25149,-0.38619 1.5303,1.38491 2.9368,1.26988 4.05875,-0.33193 0.90699,-1.29491 0.95795,-1.30062 1.38227,-0.1547 1.58553,4.28193 6.37334,1.76439 8.62063,-4.53292 0.52903,-1.48245 0.83838,-1.8583 0.85572,-1.0397 0.0478,2.25695 1.97125,7.0718 2.82504,7.0718 0.45382,0 1.37828,-0.70322 2.05435,-1.5627 l 1.22922,-1.5627 1.33305,1.8721 c 1.61899,2.27365 2.29764,2.34461 3.21286,0.33591 0.63777,-1.39974 0.76798,-1.44314 1.46596,-0.48859 0.63645,0.87039 1.03124,0.92676 2.33384,0.33326 1.25672,-0.5726 1.71496,-0.53705 2.30938,0.17919 0.97209,1.17129 3.32614,1.1422 4.31838,-0.0534 0.6973,-0.84019 0.91776,-0.80532 1.95629,0.30941 2.09058,2.24397 4.05977,1.61906 8.31875,-2.63992 l 3.89622,-3.89623 0.69823,1.68567 c 0.87786,2.11935 2.31023,3.42521 4.30197,3.92201 1.26689,0.31601 1.74866,0.0523 2.62993,-1.43957 0.5934,-1.00456 1.07891,-2.71485 1.07891,-3.80065 l 0,-1.97419 2.24132,2.68847 c 2.42079,2.90377 4.9699,4.84371 6.37324,4.85022 0.48371,0.002 1.37515,-0.4445 1.98097,-0.99276 1.01785,-0.92114 1.22991,-0.89582 2.79275,0.33351 1.22428,0.96302 2.17247,1.22465 3.43409,0.94756 1.26793,-0.27849 1.84504,-0.11644 2.11792,0.5947 0.20631,0.53761 0.85908,0.97748 1.4506,0.97748 1.18781,0 3.12373,-1.85184 3.12373,-2.98805 0,-0.39863 0.24902,-0.72478 0.55337,-0.72478 0.77309,0 4.39708,3.45878 4.39708,4.19662 0,0.38367 -12.65879,0.74768 -34.49843,0.99203 -18.97413,0.21228 -40.27653,0.55292 -47.33865,0.75697 l -12.84022,0.37099 0,-2.24599 z"
       id="path6109"
       inkscape:connector-curvature="0" />
    <path
       style="fill:#96d286;fill-opacity:1;fill-rule:nonzero;stroke:none"
       d="m 466.88593,438.98947 0,-2.24599 1.97418,1.02089 c 1.90783,0.98658 2.01225,0.97388 3.10681,-0.37785 1.0557,-1.30373 1.20863,-1.32996 2.25149,-0.38619 1.5303,1.38491 2.9368,1.26988 4.05875,-0.33193 0.90699,-1.29491 0.95795,-1.30062 1.38227,-0.1547 1.58553,4.28193 6.37334,1.76439 8.62063,-4.53292 0.52903,-1.48245 0.83838,-1.8583 0.85572,-1.0397 0.0478,2.25695 1.97125,7.0718 2.82504,7.0718 0.45382,0 1.37828,-0.70322 2.05435,-1.5627 l 1.22922,-1.5627 1.33305,1.8721 c 1.61899,2.27365 2.29764,2.34461 3.21286,0.33591 0.63777,-1.39974 0.76798,-1.44314 1.46596,-0.48859 0.63645,0.87039 1.03124,0.92676 2.33384,0.33326 1.25672,-0.5726 1.71496,-0.53705 2.30938,0.17919 0.97209,1.17129 3.32614,1.1422 4.31838,-0.0534 0.6973,-0.84019 0.91776,-0.80532 1.95629,0.30941 2.09058,2.24397 4.05977,1.61906 8.31875,-2.63992 l 3.89622,-3.89623 0.69823,1.68567 c 0.87786,2.11935 2.31023,3.42521 4.30197,3.92201 1.26689,0.31601 1.74866,0.0523 2.62993,-1.43957 0.5934,-1.00456 1.07891,-2.71485 1.07891,-3.80065 l 0,-1.97419 2.24132,2.68847 c 2.42079,2.90377 4.9699,4.84371 6.37324,4.85022 0.48371,0.002 1.37515,-0.4445 1.98097,-0.99276 1.01785,-0.92114 1.22991,-0.89582 2.79275,0.33351 1.22428,0.96302 2.17247,1.22465 3.43409,0.94756 1.26793,-0.27849 1.84504,-0.11644 2.11792,0.5947 0.20631,0.53761 0.85908,0.97748 1.4506,0.97748 1.18781,0 3.12373,-1.85184 3.12373,-2.98805 0,-0.39863 0.24902,-0.72478 0.55337,-0.72478 0.77309,0 4.39708,3.45878 4.39708,4.19662 0,0.38367 -12.65879,0.74768 -34.49843,0.99203 -18.97413,0.21228 -40.27653,0.55292 -47.33865,0.75697 l -12.84022,0.37099 0,-2.24599 z"
       id="path6111"
       inkscape:connector-curvature="0" />
  </g>
  <g
     inkscape:label="Layer 1"
     inkscape:groupmode="layer"
     id="layer1"
     style="display:inline">
    <g
       id="g3838"
       transform="translate(43.316413,1.8564206)">
      <path
         transform="translate(0,0.87512369)"
         d="m 379.80367,336.94858 c 0,14.98284 -20.17802,27.12883 -45.06887,27.12883 -24.89085,0 -45.06887,-12.14599 -45.06887,-27.12883 0,-14.98284 20.17802,-27.12884 45.06887,-27.12884 24.89085,0 45.06887,12.146 45.06887,27.12884 z"
         sodipodi:ry="27.128834"
         sodipodi:rx="45.068871"
         sodipodi:cy="336.94858"
         sodipodi:cx="334.7348"
         id="path3052"
         style="fill:none;stroke:#000000;stroke-width:1;stroke-miterlimit:4;stroke-opacity:1;stroke-dasharray:none"
         sodipodi:type="arc" />
      <path
         inkscape:connector-curvature="0"
         id="path3830"
         d="m 297.97962,362.76471 -8.75124,15.31467"
         style="fill:none;stroke:#000000;stroke-width:1;stroke-linecap:butt;stroke-linejoin:miter;stroke-miterlimit:4;stroke-opacity:1;stroke-dasharray:none" />
      <path
         inkscape:connector-curvature="0"
         id="path3832"
         d="m 315.04453,371.51595 c 0,0 3.93806,12.68929 8.31367,12.25173"
         style="fill:none;stroke:#000000;stroke-width:1px;stroke-linecap:butt;stroke-linejoin:miter;stroke-opacity:1" />
      <path
         inkscape:connector-curvature="0"
         id="path3834"
         d="m 360.98852,367.57789 c 17.50248,8.31368 18.3776,7.00099 17.50248,8.31368"
         style="fill:none;stroke:#000000;stroke-width:1px;stroke-linecap:butt;stroke-linejoin:miter;stroke-opacity:1" />
      <path
         inkscape:connector-curvature="0"
         id="path3836"
         d="m 394.24322,353.13835 c 20.12785,3.06293 20.12785,3.5005 20.12785,3.5005"
         style="fill:none;stroke:#000000;stroke-width:1px;stroke-linecap:butt;stroke-linejoin:miter;stroke-opacity:1" />
    </g>
    <path
       style="fill:none;stroke:#000000;stroke-width:1px;stroke-linecap:butt;stroke-linejoin:miter;stroke-opacity:1"
       d="m 236.2834,402.58284 261.22442,-7.87611"
       id="path3845"
       inkscape:connector-curvature="0" />
    <path
       style="fill:none;stroke:#000000;stroke-width:1px;stroke-linecap:butt;stroke-linejoin:miter;stroke-opacity:1"
       d="m 510.85346,379.82962 c 0,0 21.44053,18.15882 0.21878,57.10182"
       id="path3847"
       inkscape:connector-curvature="0" />
    <path
       style="fill:none;stroke:#000000;stroke-width:1px;stroke-linecap:butt;stroke-linejoin:miter;stroke-opacity:1"
       d="m 545.85841,383.11134 c 0,0 -7.87612,39.16178 3.28171,48.35058"
       id="path3849"
       inkscape:connector-curvature="0" />
    <path
       style="fill:none;stroke:#000000;stroke-width:1px;stroke-linecap:butt;stroke-linejoin:miter;stroke-opacity:1"
       d="m 518.94835,394.48794 c 0,0 -16.84613,11.15783 -23.40956,-4.5944"
       id="path3851"
       inkscape:connector-curvature="0" />
    <path
       style="fill:none;stroke:#000000;stroke-width:1.06801546px;stroke-linecap:butt;stroke-linejoin:miter;stroke-opacity:1"
       d="m 476.72364,350.92269 c 0,0 -7.87612,10.73082 1.96902,17.96789"
       id="path3853"
       inkscape:connector-curvature="0" />
    <path
       style="fill:none;stroke:#000000;stroke-width:1.04892147px;stroke-linecap:butt;stroke-linejoin:miter;stroke-opacity:1"
       d="m 495.75758,389.45598 c 0,0 -35.00495,9.62843 -17.94004,-21.42325"
       id="path3855"
       inkscape:connector-curvature="0" />
    <path
       style="fill:none;stroke:#000000;stroke-width:1.21359468px;stroke-linecap:butt;stroke-linejoin:miter;stroke-opacity:1"
       d="m 568.61162,349.10411 c 0,0 5.90709,9.66669 -0.65634,12.56669"
       id="path3857"
       inkscape:connector-curvature="0" />
    <path
       style="fill:none;stroke:#000000;stroke-width:1px;stroke-linecap:butt;stroke-linejoin:miter;stroke-opacity:1"
       d="m 566.20503,378.29816 c 0,0 19.25272,-5.25075 2.18781,-15.97101"
       id="path3859"
       inkscape:connector-curvature="0" />
    <path
       style="fill:none;stroke:#000000;stroke-width:1.01859128px;stroke-linecap:butt;stroke-linejoin:miter;stroke-opacity:1"
       d="m 544.50194,394.91621 c 0,0 32.95158,-0.21853 22.27072,-16.17119"
       id="path3861"
       inkscape:connector-curvature="0" />
    <path
       style="fill:none;stroke:#000000;stroke-width:1px;stroke-linecap:butt;stroke-linejoin:miter;stroke-opacity:1"
       d="m 495.97635,371.29717 c 0,0 -11.15782,5.6883 -0.87512,6.12586 10.28271,0.43756 0.87512,-6.12586 0.87512,-6.12586 z"
       id="path3863"
       inkscape:connector-curvature="0"
       sodipodi:nodetypes="zsz" />
    <path
       sodipodi:nodetypes="zsz"
       inkscape:connector-curvature="0"
       id="path3865"
       d="m 506.25905,352.70079 c 0,0 -11.15782,5.6883 -0.87512,6.12586 10.28271,0.43756 0.87512,-6.12586 0.87512,-6.12586 z"
       style="fill:none;stroke:#000000;stroke-width:1px;stroke-linecap:butt;stroke-linejoin:miter;stroke-opacity:1" />
    <path
       style="fill:none;stroke:#000000;stroke-width:1px;stroke-linecap:butt;stroke-linejoin:miter;stroke-opacity:1"
       d="m 527.91836,372.17229 c 0,0 -11.15782,5.6883 -0.87512,6.12586 10.28271,0.43756 0.87512,-6.12586 0.87512,-6.12586 z"
       id="path3867"
       inkscape:connector-curvature="0"
       sodipodi:nodetypes="zsz" />
    <path
       sodipodi:nodetypes="zsz"
       inkscape:connector-curvature="0"
       id="path3869"
       d="m 508.0093,385.51793 c 0,0 -11.15782,5.6883 -0.87512,6.12586 10.28271,0.43756 0.87512,-6.12586 0.87512,-6.12586 z"
       style="fill:none;stroke:#000000;stroke-width:1px;stroke-linecap:butt;stroke-linejoin:miter;stroke-opacity:1" />
    <path
       style="fill:none;stroke:#000000;stroke-width:1px;stroke-linecap:butt;stroke-linejoin:miter;stroke-opacity:1"
       d="m 525.94934,359.04544 c 0,0 -11.15782,5.6883 -0.87512,6.12586 10.28271,0.43756 0.87512,-6.12586 0.87512,-6.12586 z"
       id="path3871"
       inkscape:connector-curvature="0"
       sodipodi:nodetypes="zsz" />
    <path
       sodipodi:nodetypes="zsz"
       inkscape:connector-curvature="0"
       id="path3873"
       d="m 545.20206,349.2003 c 0,0 -11.15782,5.6883 -0.87512,6.12586 10.28271,0.43756 0.87512,-6.12586 0.87512,-6.12586 z"
       style="fill:none;stroke:#000000;stroke-width:1px;stroke-linecap:butt;stroke-linejoin:miter;stroke-opacity:1" />
    <path
       style="fill:none;stroke:#000000;stroke-width:1px;stroke-linecap:butt;stroke-linejoin:miter;stroke-opacity:1"
       d="m 549.3589,366.48399 c 0,0 -11.15782,5.6883 -0.87512,6.12586 10.28271,0.43756 0.87512,-6.12586 0.87512,-6.12586 z"
       id="path3875"
       inkscape:connector-curvature="0"
       sodipodi:nodetypes="zsz" />
    <g
       id="g4081"
       transform="translate(23.703595,-6.4717477)">
      <path
         sodipodi:type="arc"
         style="fill:#ffffff;fill-opacity:1;stroke:#000000;stroke-width:0.5;stroke-miterlimit:4;stroke-opacity:1;stroke-dasharray:none"
         id="path4008"
         sodipodi:cx="490.61621"
         sodipodi:cy="454.10574"
         sodipodi:rx="4.4850087"
         sodipodi:ry="4.2662282"
         d="m 495.10122,454.10574 a 4.4850087,4.2662282 0 1 1 -8.97002,0 4.4850087,4.2662282 0 1 1 8.97002,0 z"
         transform="matrix(0.89350633,0,0,1.1301723,13.287565,-73.506673)" />
      <path
         style="fill:#ffffff;fill-opacity:1;stroke:#000000;stroke-width:0.52210671;stroke-linecap:butt;stroke-linejoin:miter;stroke-miterlimit:4;stroke-opacity:1;stroke-dasharray:none"
         d="m 456.43913,437.52842 1.80684,-2.43389 c 1.34373,0.21519 2.71353,6.04915 -0.99289,5.31665 -2.93711,-0.73631 -0.81395,-2.88281 -0.81395,-2.88281 z"
         id="path4010"
         inkscape:connector-curvature="0"
         sodipodi:nodetypes="ccccc" />
      <path
         sodipodi:nodetypes="ccccc"
         inkscape:connector-curvature="0"
         id="path4021"
         d="m 445.67346,440.51548 0.32194,3.77986 c 1.06574,-1.19354 5.21467,-3.69534 2.411,-5.44748 -2.34295,-1.27095 -2.73298,1.66765 -2.73298,1.66765 z"
         style="fill:#ffffff;fill-opacity:1;stroke:#000000;stroke-width:0.50568753;stroke-linecap:butt;stroke-linejoin:miter;stroke-miterlimit:4;stroke-opacity:1;stroke-dasharray:none" />
      <path
         sodipodi:nodetypes="cccc"
         inkscape:connector-curvature="0"
         id="path4023"
         d="m 451.89738,438.57085 c 0,0 -0.34961,0.31602 -0.95716,1.23065 1.10356,0.16756 0.81516,0.12594 1.88698,-0.32818 -0.60549,-0.68331 -0.92982,-0.90247 -0.92982,-0.90247 z"
         style="fill:#000000;fill-opacity:1;stroke:#000000;stroke-width:0.40000001;stroke-linecap:butt;stroke-linejoin:miter;stroke-miterlimit:4;stroke-opacity:1;stroke-dasharray:none" />
      <path
         transform="translate(-13.61373,-17.558617)"
         d="m 464.03435,455.50049 a 0.32817137,0.24612854 0 1 1 -0.65634,0 0.32817137,0.24612854 0 1 1 0.65634,0 z"
         sodipodi:ry="0.24612854"
         sodipodi:rx="0.32817137"
         sodipodi:cy="455.50049"
         sodipodi:cx="463.70618"
         id="path4025"
         style="fill:#000000;fill-opacity:1;fill-rule:nonzero;stroke:#000000;stroke-width:0.40000001;stroke-miterlimit:4;stroke-opacity:1;stroke-dasharray:none"
         sodipodi:type="arc" />
      <path
         transform="translate(-13.61373,-17.558617)"
         d="m 466.87849,455.14496 a 0.32817137,0.27347615 0 1 1 -0.65634,0 0.32817137,0.27347615 0 1 1 0.65634,0 z"
         sodipodi:ry="0.27347615"
         sodipodi:rx="0.32817137"
         sodipodi:cy="455.14496"
         sodipodi:cx="466.55032"
         id="path4027"
         style="fill:#000000;fill-opacity:1;fill-rule:nonzero;stroke:#000000;stroke-width:0.40000001;stroke-miterlimit:4;stroke-opacity:1;stroke-dasharray:none"
         sodipodi:type="arc" />
      <path
         transform="matrix(0.36945781,0,0,0.74445781,278.66911,98.935483)"
         inkscape:transform-center-y="-0.23032516"
         inkscape:transform-center-x="0.1143059"
         d="m 463.65147,455.28171 a 0.10939046,0.10939046 0 1 1 -0.21878,0 0.10939046,0.10939046 0 1 1 0.21878,0 z"
         sodipodi:ry="0.10939046"
         sodipodi:rx="0.10939046"
         sodipodi:cy="455.28171"
         sodipodi:cx="463.54208"
         id="path4031"
         style="fill:#ffffff;fill-opacity:1;fill-rule:nonzero;stroke:#ffffff;stroke-width:0.40000001;stroke-miterlimit:4;stroke-opacity:1;stroke-dasharray:none"
         sodipodi:type="arc" />
      <path
         sodipodi:type="arc"
         style="fill:#ffffff;fill-opacity:1;fill-rule:nonzero;stroke:#ffffff;stroke-width:0.40000001;stroke-miterlimit:4;stroke-opacity:1;stroke-dasharray:none"
         id="path4041"
         sodipodi:cx="463.54208"
         sodipodi:cy="455.28171"
         sodipodi:rx="0.10939046"
         sodipodi:ry="0.10939046"
         d="m 463.65147,455.28171 a 0.10939046,0.10939046 0 1 1 -0.21878,0 0.10939046,0.10939046 0 1 1 0.21878,0 z"
         inkscape:transform-center-x="0.1143059"
         inkscape:transform-center-y="-0.23032516"
         transform="matrix(0.36945781,0,0,0.74445781,281.81409,98.525273)" />
    </g>
    <g
       id="g5764"
       transform="translate(-122.33266,13.054449)">
      <path
         transform="matrix(0.89350633,0,0,1.1301723,197.95804,-92.973345)"
         d="m 495.10122,454.10574 a 4.4850087,4.2662282 0 1 1 -8.97002,0 4.4850087,4.2662282 0 1 1 8.97002,0 z"
         sodipodi:ry="4.2662282"
         sodipodi:rx="4.4850087"
         sodipodi:cy="454.10574"
         sodipodi:cx="490.61621"
         id="path5727"
         style="fill:#ffffff;fill-opacity:1;stroke:#000000;stroke-width:0.5;stroke-miterlimit:4;stroke-opacity:1;stroke-dasharray:none"
         sodipodi:type="arc" />
      <path
         style="fill:#000000;fill-opacity:1;stroke:#000000;stroke-width:0.40000001;stroke-linecap:butt;stroke-linejoin:miter;stroke-miterlimit:4;stroke-opacity:1;stroke-dasharray:none"
         d="m 636.56786,419.10418 c 0,0 -0.34961,0.31602 -0.95716,1.23065 1.10356,0.16756 0.81516,0.12594 1.88698,-0.32818 -0.60549,-0.68331 -0.92982,-0.90247 -0.92982,-0.90247 z"
         id="path5733"
         inkscape:connector-curvature="0"
         sodipodi:nodetypes="cccc" />
      <path
         sodipodi:type="arc"
         style="fill:#000000;fill-opacity:1;fill-rule:nonzero;stroke:#000000;stroke-width:0.40000001;stroke-miterlimit:4;stroke-opacity:1;stroke-dasharray:none"
         id="path5735"
         sodipodi:cx="463.70618"
         sodipodi:cy="455.50049"
         sodipodi:rx="0.32817137"
         sodipodi:ry="0.24612854"
         d="m 464.03435,455.50049 a 0.32817137,0.24612854 0 1 1 -0.65634,0 0.32817137,0.24612854 0 1 1 0.65634,0 z"
         transform="translate(171.05675,-37.025289)" />
      <path
         sodipodi:type="arc"
         style="fill:#000000;fill-opacity:1;fill-rule:nonzero;stroke:#000000;stroke-width:0.40000001;stroke-miterlimit:4;stroke-opacity:1;stroke-dasharray:none"
         id="path5737"
         sodipodi:cx="466.55032"
         sodipodi:cy="455.14496"
         sodipodi:rx="0.32817137"
         sodipodi:ry="0.27347615"
         d="m 466.87849,455.14496 a 0.32817137,0.27347615 0 1 1 -0.65634,0 0.32817137,0.27347615 0 1 1 0.65634,0 z"
         transform="translate(171.05675,-37.025289)" />
      <path
         sodipodi:type="arc"
         style="fill:#ffffff;fill-opacity:1;fill-rule:nonzero;stroke:#ffffff;stroke-width:0.40000001;stroke-miterlimit:4;stroke-opacity:1;stroke-dasharray:none"
         id="path5739"
         sodipodi:cx="463.54208"
         sodipodi:cy="455.28171"
         sodipodi:rx="0.10939046"
         sodipodi:ry="0.10939046"
         d="m 463.65147,455.28171 a 0.10939046,0.10939046 0 1 1 -0.21878,0 0.10939046,0.10939046 0 1 1 0.21878,0 z"
         inkscape:transform-center-x="0.1143059"
         inkscape:transform-center-y="-0.23032516"
         transform="matrix(0.36945781,0,0,0.74445781,463.33959,79.468811)" />
      <path
         transform="matrix(0.36945781,0,0,0.74445781,466.48457,79.058601)"
         inkscape:transform-center-y="-0.23032516"
         inkscape:transform-center-x="0.1143059"
         d="m 463.65147,455.28171 a 0.10939046,0.10939046 0 1 1 -0.21878,0 0.10939046,0.10939046 0 1 1 0.21878,0 z"
         sodipodi:ry="0.10939046"
         sodipodi:rx="0.10939046"
         sodipodi:cy="455.28171"
         sodipodi:cx="463.54208"
         id="path5741"
         style="fill:#ffffff;fill-opacity:1;fill-rule:nonzero;stroke:#ffffff;stroke-width:0.40000001;stroke-miterlimit:4;stroke-opacity:1;stroke-dasharray:none"
         sodipodi:type="arc" />
    </g>
    <g
       id="g5894"
       transform="translate(-127.47402,10.210297)">
      <path
         transform="matrix(0.89350633,0,0,1.1301723,236.09196,-90.188718)"
         d="m 495.10122,454.10574 a 4.4850087,4.2662282 0 1 1 -8.97002,0 4.4850087,4.2662282 0 1 1 8.97002,0 z"
         sodipodi:ry="4.2662282"
         sodipodi:rx="4.4850087"
         sodipodi:cy="454.10574"
         sodipodi:cx="490.61621"
         id="path5799"
         style="fill:#ffffff;fill-opacity:1;stroke:#000000;stroke-width:0.5;stroke-miterlimit:4;stroke-opacity:1;stroke-dasharray:none"
         sodipodi:type="arc" />
      <path
         sodipodi:nodetypes="ccccc"
         inkscape:connector-curvature="0"
         id="path5801"
         d="m 679.40761,421.01046 1.56071,-2.40654 c 1.34373,0.21519 2.79557,5.85771 -0.91085,5.12521 -2.93711,-0.73631 -0.62252,-2.77342 -0.62252,-2.77342 z"
         style="fill:#ffffff;fill-opacity:1;stroke:#000000;stroke-width:0.52210671;stroke-linecap:butt;stroke-linejoin:miter;stroke-miterlimit:4;stroke-opacity:1;stroke-dasharray:none" />
    </g>
    <path
       sodipodi:nodetypes="ccccc"
       inkscape:connector-curvature="0"
       id="path5805"
       d="m 547.22775,432.0991 c 0,0 -0.37696,0.45276 -0.98451,1.3674 1.10356,0.16755 1.06129,0.0986 2.13311,-0.35553 -0.60549,-0.68331 -1.1486,-1.01186 -1.1486,-1.01186 z"
       style="fill:#000000;fill-opacity:1;stroke:#000000;stroke-width:0.40000001;stroke-linecap:butt;stroke-linejoin:miter;stroke-miterlimit:4;stroke-opacity:1;stroke-dasharray:none" />
    <path
       transform="translate(81.716645,-24.030365)"
       d="m 464.03435,455.50049 a 0.32817137,0.41021425 0 1 1 -0.65634,0 0.32817137,0.41021425 0 1 1 0.65634,0 z"
       sodipodi:ry="0.41021425"
       sodipodi:rx="0.32817137"
       sodipodi:cy="455.50049"
       sodipodi:cx="463.70618"
       id="path5807"
       style="fill:#000000;fill-opacity:1;fill-rule:nonzero;stroke:#000000;stroke-width:0.40000001;stroke-miterlimit:4;stroke-opacity:1;stroke-dasharray:none"
       sodipodi:type="arc" />
    <path
       transform="translate(81.716645,-24.030365)"
       d="m 466.87849,455.14496 a 0.32817137,0.51960468 0 1 1 -0.65634,0 0.32817137,0.51960468 0 1 1 0.65634,0 z"
       sodipodi:ry="0.51960468"
       sodipodi:rx="0.32817137"
       sodipodi:cy="455.14496"
       sodipodi:cx="466.55032"
       id="path5809"
       style="fill:#000000;fill-opacity:1;fill-rule:nonzero;stroke:#000000;stroke-width:0.40000001;stroke-miterlimit:4;stroke-opacity:1;stroke-dasharray:none"
       sodipodi:type="arc" />
    <path
       transform="matrix(0.36945781,0,0,0.74445781,373.99948,92.463735)"
       inkscape:transform-center-y="-0.23032516"
       inkscape:transform-center-x="0.1143059"
       d="m 463.65147,455.28171 a 0.10939046,0.10939046 0 1 1 -0.21878,0 0.10939046,0.10939046 0 1 1 0.21878,0 z"
       sodipodi:ry="0.10939046"
       sodipodi:rx="0.10939046"
       sodipodi:cy="455.28171"
       sodipodi:cx="463.54208"
       id="path5811"
       style="fill:#ffffff;fill-opacity:1;fill-rule:nonzero;stroke:#ffffff;stroke-width:0.40000001;stroke-miterlimit:4;stroke-opacity:1;stroke-dasharray:none"
       sodipodi:type="arc" />
    <path
       sodipodi:type="arc"
       style="fill:#ffffff;fill-opacity:1;fill-rule:nonzero;stroke:#ffffff;stroke-width:0.40000001;stroke-miterlimit:4;stroke-opacity:1;stroke-dasharray:none"
       id="path5813"
       sodipodi:cx="463.54208"
       sodipodi:cy="455.28171"
       sodipodi:rx="0.10939046"
       sodipodi:ry="0.10939046"
       d="m 463.65147,455.28171 a 0.10939046,0.10939046 0 1 1 -0.21878,0 0.10939046,0.10939046 0 1 1 0.21878,0 z"
       inkscape:transform-center-x="0.1143059"
       inkscape:transform-center-y="-0.23032516"
       transform="matrix(0.36945781,0,0,0.74445781,377.14446,92.053525)" />
    <g
       id="g6049"
       transform="translate(56.064774,32.627429)">
      <path
         transform="matrix(0.89350633,0,0,1.1301723,-0.823805,-76.40552)"
         d="m 495.10122,454.10574 c 0,2.35618 -2.00801,4.26623 -4.48501,4.26623 -2.477,0 -4.48501,-1.91005 -4.48501,-4.26623 0,-2.35617 2.00801,-4.26622 4.48501,-4.26622 2.477,0 4.48501,1.91005 4.48501,4.26622 z"
         sodipodi:ry="4.2662282"
         sodipodi:rx="4.4850087"
         sodipodi:cy="454.10574"
         sodipodi:cx="490.61621"
         id="path4174"
         style="fill:#ffffff;fill-opacity:1;stroke:#000000;stroke-width:0.5;stroke-miterlimit:4;stroke-opacity:1;stroke-dasharray:none"
         sodipodi:type="arc" />
      <path
         sodipodi:nodetypes="ccccc"
         inkscape:connector-curvature="0"
         id="path4176"
         d="m 442.32776,434.62957 1.80684,-2.43389 c 1.34373,0.21519 2.71353,6.04915 -0.99289,5.31665 -2.93711,-0.73631 -0.81395,-2.88281 -0.81395,-2.88281 z"
         style="fill:#ffffff;fill-opacity:1;stroke:#000000;stroke-width:0.52210671;stroke-linecap:butt;stroke-linejoin:miter;stroke-miterlimit:4;stroke-opacity:1;stroke-dasharray:none" />
      <path
         style="fill:#ffffff;fill-opacity:1;stroke:#000000;stroke-width:0.50568753;stroke-linecap:butt;stroke-linejoin:miter;stroke-miterlimit:4;stroke-opacity:1;stroke-dasharray:none"
         d="m 433.03955,435.22563 -3.48995,-1.48702 c 0.5549,1.5008 0.82057,6.33837 3.68232,4.68278 2.22075,-1.4741 -0.19238,-3.19581 -0.19238,-3.19581 z"
         id="path4178"
         inkscape:connector-curvature="0"
         sodipodi:nodetypes="ccccc" />
    </g>
    <path
       style="fill:none;stroke:#000000;stroke-width:0.5;stroke-linecap:butt;stroke-linejoin:miter;stroke-miterlimit:4;stroke-opacity:1;stroke-dasharray:none"
       d="m 491.33189,473.39191 c -2.08847,1.62437 -2.16582,1.85642 -2.16582,1.85642 l -3.01668,0.1547 2.62992,0.1547 1.16026,0.92821 -0.85086,-1.16026 z"
       id="path6054"
       inkscape:connector-curvature="0" />
    <path
       inkscape:connector-curvature="0"
       id="path6056"
       d="m 495.97293,473.23721 c 1.62625,1.62437 1.68649,1.85642 1.68649,1.85642 l 2.34903,0.1547 -2.04787,0.1547 -0.90347,0.92821 0.66254,-1.16026 z"
       style="fill:none;stroke:#000000;stroke-width:0.44121492;stroke-linecap:butt;stroke-linejoin:miter;stroke-miterlimit:4;stroke-opacity:1;stroke-dasharray:none" />
    <g
       transform="translate(-239.98313,40.43661)"
       id="g6394">
      <path
         sodipodi:type="arc"
         style="fill:#ffffff;fill-opacity:1;stroke:#000000;stroke-width:0.5;stroke-miterlimit:4;stroke-opacity:1;stroke-dasharray:none"
         id="path6396"
         sodipodi:cx="490.61621"
         sodipodi:cy="454.10574"
         sodipodi:rx="4.4850087"
         sodipodi:ry="4.2662282"
         d="m 495.10122,454.10574 c 0,2.35618 -2.00801,4.26623 -4.48501,4.26623 -2.477,0 -4.48501,-1.91005 -4.48501,-4.26623 0,-2.35617 2.00801,-4.26622 4.48501,-4.26622 2.477,0 4.48501,1.91005 4.48501,4.26622 z"
         transform="matrix(0.89350633,0,0,1.1301723,197.95804,-92.973345)" />
      <path
         sodipodi:nodetypes="cccc"
         inkscape:connector-curvature="0"
         id="path6398"
         d="m 636.56786,419.10418 c 0,0 -0.34961,0.31602 -0.95716,1.23065 1.10356,0.16756 0.81516,0.12594 1.88698,-0.32818 -0.60549,-0.68331 -0.92982,-0.90247 -0.92982,-0.90247 z"
         style="fill:#000000;fill-opacity:1;stroke:#000000;stroke-width:0.40000001;stroke-linecap:butt;stroke-linejoin:miter;stroke-miterlimit:4;stroke-opacity:1;stroke-dasharray:none" />
      <path
         transform="translate(171.05675,-37.025289)"
         d="m 464.03435,455.50049 c 0,0.13593 -0.14693,0.24613 -0.32817,0.24613 -0.18125,0 -0.32817,-0.1102 -0.32817,-0.24613 0,-0.13593 0.14692,-0.24613 0.32817,-0.24613 0.18124,0 0.32817,0.1102 0.32817,0.24613 z"
         sodipodi:ry="0.24612854"
         sodipodi:rx="0.32817137"
         sodipodi:cy="455.50049"
         sodipodi:cx="463.70618"
         id="path6400"
         style="fill:#000000;fill-opacity:1;fill-rule:nonzero;stroke:#000000;stroke-width:0.40000001;stroke-miterlimit:4;stroke-opacity:1;stroke-dasharray:none"
         sodipodi:type="arc" />
      <path
         transform="translate(171.05675,-37.025289)"
         d="m 466.87849,455.14496 c 0,0.15104 -0.14692,0.27347 -0.32817,0.27347 -0.18124,0 -0.32817,-0.12243 -0.32817,-0.27347 0,-0.15104 0.14693,-0.27348 0.32817,-0.27348 0.18125,0 0.32817,0.12244 0.32817,0.27348 z"
         sodipodi:ry="0.27347615"
         sodipodi:rx="0.32817137"
         sodipodi:cy="455.14496"
         sodipodi:cx="466.55032"
         id="path6402"
         style="fill:#000000;fill-opacity:1;fill-rule:nonzero;stroke:#000000;stroke-width:0.40000001;stroke-miterlimit:4;stroke-opacity:1;stroke-dasharray:none"
         sodipodi:type="arc" />
      <path
         transform="matrix(0.36945781,0,0,0.74445781,463.33959,79.468811)"
         inkscape:transform-center-y="-0.23032516"
         inkscape:transform-center-x="0.1143059"
         d="m 463.65147,455.28171 c 0,0.0604 -0.049,0.10939 -0.10939,0.10939 -0.0604,0 -0.10939,-0.049 -0.10939,-0.10939 0,-0.0604 0.049,-0.10939 0.10939,-0.10939 0.0604,0 0.10939,0.049 0.10939,0.10939 z"
         sodipodi:ry="0.10939046"
         sodipodi:rx="0.10939046"
         sodipodi:cy="455.28171"
         sodipodi:cx="463.54208"
         id="path6404"
         style="fill:#ffffff;fill-opacity:1;fill-rule:nonzero;stroke:#ffffff;stroke-width:0.40000001;stroke-miterlimit:4;stroke-opacity:1;stroke-dasharray:none"
         sodipodi:type="arc" />
      <path
         sodipodi:type="arc"
         style="fill:#ffffff;fill-opacity:1;fill-rule:nonzero;stroke:#ffffff;stroke-width:0.40000001;stroke-miterlimit:4;stroke-opacity:1;stroke-dasharray:none"
         id="path6406"
         sodipodi:cx="463.54208"
         sodipodi:cy="455.28171"
         sodipodi:rx="0.10939046"
         sodipodi:ry="0.10939046"
         d="m 463.65147,455.28171 c 0,0.0604 -0.049,0.10939 -0.10939,0.10939 -0.0604,0 -0.10939,-0.049 -0.10939,-0.10939 0,-0.0604 0.049,-0.10939 0.10939,-0.10939 0.0604,0 0.10939,0.049 0.10939,0.10939 z"
         inkscape:transform-center-x="0.1143059"
         inkscape:transform-center-y="-0.23032516"
         transform="matrix(0.36945781,0,0,0.74445781,466.48457,79.058601)" />
    </g>
    <g
       transform="translate(-72.598073,20.678361)"
       id="g6410">
      <path
         transform="matrix(0.89350633,0,0,1.1301723,13.287565,-73.506673)"
         d="m 495.10122,454.10574 c 0,2.35618 -2.00801,4.26623 -4.48501,4.26623 -2.477,0 -4.48501,-1.91005 -4.48501,-4.26623 0,-2.35617 2.00801,-4.26622 4.48501,-4.26622 2.477,0 4.48501,1.91005 4.48501,4.26622 z"
         sodipodi:ry="4.2662282"
         sodipodi:rx="4.4850087"
         sodipodi:cy="454.10574"
         sodipodi:cx="490.61621"
         id="path6412"
         style="fill:#ffffff;fill-opacity:1;stroke:#000000;stroke-width:0.5;stroke-miterlimit:4;stroke-opacity:1;stroke-dasharray:none"
         sodipodi:type="arc" />
      <path
         sodipodi:nodetypes="ccccc"
         inkscape:connector-curvature="0"
         id="path6414"
         d="m 456.43913,437.52842 1.80684,-2.43389 c 1.34373,0.21519 2.71353,6.04915 -0.99289,5.31665 -2.93711,-0.73631 -0.81395,-2.88281 -0.81395,-2.88281 z"
         style="fill:#ffffff;fill-opacity:1;stroke:#000000;stroke-width:0.52210671;stroke-linecap:butt;stroke-linejoin:miter;stroke-miterlimit:4;stroke-opacity:1;stroke-dasharray:none" />
      <path
         style="fill:#ffffff;fill-opacity:1;stroke:#000000;stroke-width:0.50568753;stroke-linecap:butt;stroke-linejoin:miter;stroke-miterlimit:4;stroke-opacity:1;stroke-dasharray:none"
         d="m 445.67346,440.51548 0.32194,3.77986 c 1.06574,-1.19354 5.21467,-3.69534 2.411,-5.44748 -2.34295,-1.27095 -2.73298,1.66765 -2.73298,1.66765 z"
         id="path6416"
         inkscape:connector-curvature="0"
         sodipodi:nodetypes="ccccc" />
      <path
         style="fill:#000000;fill-opacity:1;stroke:#000000;stroke-width:0.40000001;stroke-linecap:butt;stroke-linejoin:miter;stroke-miterlimit:4;stroke-opacity:1;stroke-dasharray:none"
         d="m 451.89738,438.57085 c 0,0 -0.34961,0.31602 -0.95716,1.23065 1.10356,0.16756 0.81516,0.12594 1.88698,-0.32818 -0.60549,-0.68331 -0.92982,-0.90247 -0.92982,-0.90247 z"
         id="path6418"
         inkscape:connector-curvature="0"
         sodipodi:nodetypes="cccc" />
      <path
         sodipodi:type="arc"
         style="fill:#000000;fill-opacity:1;fill-rule:nonzero;stroke:#000000;stroke-width:0.40000001;stroke-miterlimit:4;stroke-opacity:1;stroke-dasharray:none"
         id="path6420"
         sodipodi:cx="463.70618"
         sodipodi:cy="455.50049"
         sodipodi:rx="0.32817137"
         sodipodi:ry="0.24612854"
         d="m 464.03435,455.50049 c 0,0.13593 -0.14693,0.24613 -0.32817,0.24613 -0.18125,0 -0.32817,-0.1102 -0.32817,-0.24613 0,-0.13593 0.14692,-0.24613 0.32817,-0.24613 0.18124,0 0.32817,0.1102 0.32817,0.24613 z"
         transform="translate(-13.61373,-17.558617)" />
      <path
         sodipodi:type="arc"
         style="fill:#000000;fill-opacity:1;fill-rule:nonzero;stroke:#000000;stroke-width:0.40000001;stroke-miterlimit:4;stroke-opacity:1;stroke-dasharray:none"
         id="path6422"
         sodipodi:cx="466.55032"
         sodipodi:cy="455.14496"
         sodipodi:rx="0.32817137"
         sodipodi:ry="0.27347615"
         d="m 466.87849,455.14496 c 0,0.15104 -0.14692,0.27347 -0.32817,0.27347 -0.18124,0 -0.32817,-0.12243 -0.32817,-0.27347 0,-0.15104 0.14693,-0.27348 0.32817,-0.27348 0.18125,0 0.32817,0.12244 0.32817,0.27348 z"
         transform="translate(-13.61373,-17.558617)" />
      <path
         sodipodi:type="arc"
         style="fill:#ffffff;fill-opacity:1;fill-rule:nonzero;stroke:#ffffff;stroke-width:0.40000001;stroke-miterlimit:4;stroke-opacity:1;stroke-dasharray:none"
         id="path6424"
         sodipodi:cx="463.54208"
         sodipodi:cy="455.28171"
         sodipodi:rx="0.10939046"
         sodipodi:ry="0.10939046"
         d="m 463.65147,455.28171 c 0,0.0604 -0.049,0.10939 -0.10939,0.10939 -0.0604,0 -0.10939,-0.049 -0.10939,-0.10939 0,-0.0604 0.049,-0.10939 0.10939,-0.10939 0.0604,0 0.10939,0.049 0.10939,0.10939 z"
         inkscape:transform-center-x="0.1143059"
         inkscape:transform-center-y="-0.23032516"
         transform="matrix(0.36945781,0,0,0.74445781,278.66911,98.935483)" />
      <path
         transform="matrix(0.36945781,0,0,0.74445781,281.81409,98.525273)"
         inkscape:transform-center-y="-0.23032516"
         inkscape:transform-center-x="0.1143059"
         d="m 463.65147,455.28171 c 0,0.0604 -0.049,0.10939 -0.10939,0.10939 -0.0604,0 -0.10939,-0.049 -0.10939,-0.10939 0,-0.0604 0.049,-0.10939 0.10939,-0.10939 0.0604,0 0.10939,0.049 0.10939,0.10939 z"
         sodipodi:ry="0.10939046"
         sodipodi:rx="0.10939046"
         sodipodi:cy="455.28171"
         sodipodi:cx="463.54208"
         id="path6426"
         style="fill:#ffffff;fill-opacity:1;fill-rule:nonzero;stroke:#ffffff;stroke-width:0.40000001;stroke-miterlimit:4;stroke-opacity:1;stroke-dasharray:none"
         sodipodi:type="arc" />
    </g>
    <path
       inkscape:connector-curvature="0"
       id="path6442"
       d="m 377.781,465.11538 c -2.08847,1.62437 -2.16582,1.85642 -2.16582,1.85642 l -3.01668,0.1547 2.62992,0.1547 1.16026,0.92821 -0.85086,-1.16026 z"
       style="fill:none;stroke:#000000;stroke-width:0.5;stroke-linecap:butt;stroke-linejoin:miter;stroke-miterlimit:4;stroke-opacity:1;stroke-dasharray:none" />
    <path
       style="fill:none;stroke:#000000;stroke-width:0.44121492;stroke-linecap:butt;stroke-linejoin:miter;stroke-miterlimit:4;stroke-opacity:1;stroke-dasharray:none"
       d="m 380.56562,464.96068 c 1.62625,1.62437 1.68649,1.85642 1.68649,1.85642 l 2.34903,0.1547 -2.04787,0.1547 -0.90347,0.92821 0.66254,-1.16026 z"
       id="path6444"
       inkscape:connector-curvature="0" />
    <path
       style="fill:none;stroke:#000000;stroke-width:0.5;stroke-linecap:butt;stroke-linejoin:miter;stroke-miterlimit:4;stroke-opacity:1;stroke-dasharray:none"
       d="m 395.33962,465.34743 c -2.08847,1.62437 -2.16582,1.85642 -2.16582,1.85642 l -3.01668,0.1547 2.62992,0.1547 1.16026,0.92821 -0.85086,-1.16026 z"
       id="path6446"
       inkscape:connector-curvature="0" />
    <path
       inkscape:connector-curvature="0"
       id="path6448"
       d="m 398.12424,465.19273 c 1.62625,1.62437 1.68649,1.85642 1.68649,1.85642 l 2.34903,0.1547 -2.04787,0.1547 -0.90347,0.92821 0.66254,-1.16026 z"
       style="fill:none;stroke:#000000;stroke-width:0.44121492;stroke-linecap:butt;stroke-linejoin:miter;stroke-miterlimit:4;stroke-opacity:1;stroke-dasharray:none" />
  </g>
  <g
     inkscape:groupmode="layer"
     id="layer2"
     inkscape:label="couleur"
     style="display:inline">
    <g
       id="g5720"
       transform="translate(-126.81767,23.555933)">
      <path
         inkscape:connector-curvature="0"
         id="path4123"
         d="m 596.60846,412.14803 c -0.12404,-1.51653 -0.12528,-1.58556 -0.0342,-1.899 0.19759,-0.67971 0.55023,-1.16089 0.94665,-1.29172 0.26541,-0.0876 0.71873,-0.031 1.0811,0.13484 0.40105,0.18361 0.87352,0.65736 0.95413,0.95672 0.18737,0.69585 -0.36985,1.54605 -1.90531,2.90711 -0.45734,0.40539 -0.85002,0.74354 -0.87261,0.75143 -0.0226,0.008 -0.099,-0.69383 -0.1698,-1.55938 z"
         style="fill:#ffe86d;fill-opacity:1;fill-rule:nonzero;stroke:#ffde49;stroke-width:0.02187809;stroke-miterlimit:4;stroke-opacity:1;stroke-dasharray:none" />
      <path
         inkscape:connector-curvature="0"
         id="path4125"
         d="m 601.52228,414.26817 c -0.88371,-0.22569 -1.67819,-0.80201 -2.21023,-1.60331 l -0.20588,-0.31008 0.18803,-0.20812 c 0.27323,-0.30243 0.52454,-0.68235 0.68761,-1.03951 0.11667,-0.25552 0.14359,-0.39825 0.14672,-0.77785 0.003,-0.41719 -0.0129,-0.49504 -0.15877,-0.75848 -0.19137,-0.3455 -0.58002,-0.7017 -1.02365,-0.93815 -0.17483,-0.0932 -0.31787,-0.18874 -0.31787,-0.21235 0,-0.10357 0.2198,-0.66662 0.39954,-1.02346 0.52113,-1.03461 1.4131,-1.788 2.42251,-2.04617 0.73193,-0.18719 1.4052,-0.10647 2.14815,0.25754 0.32502,0.15926 0.5261,0.31384 0.90953,0.69921 0.55277,0.55557 0.78326,0.91074 1.04743,1.61405 0.83055,2.21115 0.0747,4.812 -1.72437,5.93331 -0.47365,0.29521 -0.91635,0.42301 -1.53821,0.44406 -0.31587,0.0107 -0.66261,-0.003 -0.77054,-0.0307 z m 1.59745,-4.35673 c 0.32734,-0.13975 0.59516,-0.27027 0.59516,-0.29004 0,-0.0497 -1.03583,-1.07702 -1.19971,-1.18982 -0.13155,-0.0905 -0.1363,-0.0881 -0.39242,0.19781 -0.32019,0.35749 -1.05087,1.37235 -1.01435,1.40886 0.0585,0.0585 0.95279,0.17313 1.17722,0.15092 0.13142,-0.013 0.50677,-0.13798 0.8341,-0.27773 l 0,0 z m -2.06981,-1.59665 c 0.14511,-0.14511 0.1378,-0.42077 -0.0155,-0.58393 -0.32897,-0.35017 -0.98413,-0.13185 -0.98413,0.32795 0,0.13232 0.27328,0.40345 0.42585,0.4225 0.2057,0.0257 0.45347,-0.0462 0.57376,-0.16652 l 0,0 z m 2.84622,-0.33023 c 0.14595,-0.14596 0.13644,-0.47264 -0.0186,-0.63764 -0.35965,-0.38282 -1.06394,-0.0808 -0.95614,0.41003 0.088,0.40081 0.66643,0.53588 0.9747,0.22761 l 0,0 z"
         style="fill:#ffe86d;fill-opacity:1;fill-rule:nonzero;stroke:#ffde49;stroke-width:0.02187809;stroke-miterlimit:4;stroke-opacity:1;stroke-dasharray:none" />
      <path
         inkscape:connector-curvature="0"
         id="path4127"
         d="m 607.88044,410.21592 c -0.36981,-0.0727 -0.9816,-0.37854 -1.15704,-0.57835 -0.0874,-0.0996 -0.17483,-0.26565 -0.19423,-0.36904 -0.0494,-0.26334 0.0978,-0.71417 0.34441,-1.0547 0.77847,-1.07501 1.96271,-2.63975 1.99895,-2.64123 0.1011,-0.004 0.3422,0.3289 0.53814,0.74333 0.44466,0.94049 0.57739,2.14215 0.3242,2.93511 -0.25805,0.80821 -0.91448,1.14976 -1.85443,0.96488 l 0,0 z"
         style="fill:#ffe86d;fill-opacity:1;fill-rule:nonzero;stroke:#ffde49;stroke-width:0.02187809;stroke-miterlimit:4;stroke-opacity:1;stroke-dasharray:none" />
    </g>
    <path
       style="fill:#ffe86d;fill-opacity:1;fill-rule:nonzero;stroke:#f4ff45;stroke-width:0.03938821;stroke-miterlimit:4;stroke-opacity:1;stroke-dasharray:none"
       d="m 513.05675,437.69358 c -0.67235,-0.2849 -0.96929,-0.49557 -1.44948,-1.02834 -0.50828,-0.56396 -0.91674,-1.36168 -1.1004,-2.14909 -0.17427,-0.74718 -0.12026,-2.16228 0.11,-2.88182 0.61799,-1.93114 2.37985,-3.22521 3.98503,-2.92693 1.50174,0.27906 2.68678,1.49922 3.15068,3.24405 0.18148,0.68259 0.17809,1.99083 -0.007,2.68536 -0.19357,0.72651 -0.68916,1.64208 -1.13855,2.10341 -0.3427,0.3518 -0.41365,0.39052 -0.66191,0.36139 -0.29017,-0.034 -0.47433,0.0919 -0.78004,0.53365 -0.12514,0.18081 -0.18923,0.19643 -0.90124,0.21983 -0.66406,0.0218 -0.82543,2.4e-4 -1.20715,-0.16151 l 0,0 z m 1.9842,-4.2494 c 0.31783,-0.13466 0.60481,-0.27012 0.63771,-0.30102 0.0329,-0.0309 -0.24544,-0.3557 -0.61854,-0.72177 l -0.67838,-0.66558 -0.34063,0.37819 c -0.53105,0.58961 -1.06851,1.39729 -0.95552,1.43592 0.15357,0.0524 0.53363,0.0945 0.9732,0.10728 0.29485,0.008 0.56071,-0.0545 0.98216,-0.23302 l 0,0 z m -2.0543,-1.65068 c 0.32483,-0.32653 0.0713,-0.78981 -0.43215,-0.78981 -0.31002,0 -0.58929,0.22458 -0.58929,0.47389 0,0.2493 0.27927,0.47387 0.58929,0.47387 0.17024,0 0.33488,-0.0601 0.43215,-0.15795 z m 2.82973,-0.30095 c 0.36119,-0.29401 0.12803,-0.88377 -0.34938,-0.88377 -0.3502,0 -0.59461,0.19663 -0.59461,0.47836 0,0.47438 0.56247,0.71594 0.94399,0.40541 l 0,0 z"
       id="path5772"
       inkscape:connector-curvature="0" />
    <g
       id="g5888"
       transform="translate(-127.47402,10.210297)">
      <path
         style="fill:#ffe86d;fill-opacity:1;fill-rule:nonzero;stroke:#ffde49;stroke-width:0.02187809;stroke-miterlimit:4;stroke-opacity:1;stroke-dasharray:none"
         d="m 680.16357,423.56156 c -0.36981,-0.0727 -0.9816,-0.37854 -1.15704,-0.57835 -0.0874,-0.0996 -0.17483,-0.26565 -0.19423,-0.36904 -0.0494,-0.26334 0.0978,-0.71417 0.34441,-1.0547 0.77847,-1.07501 1.96271,-2.63975 1.99895,-2.64123 0.1011,-0.004 0.3422,0.3289 0.53814,0.74333 0.44466,0.94049 0.57739,2.14215 0.3242,2.93511 -0.25805,0.80821 -0.91448,1.14976 -1.85443,0.96488 l 0,0 z"
         id="path5821"
         inkscape:connector-curvature="0" />
      <g
         id="g5884">
        <path
           sodipodi:nodetypes="cscsccccssccsssccccsccccccccsccccccccc"
           inkscape:connector-curvature="0"
           id="path5819"
           d="m 673.80541,427.61381 c -0.88371,-0.22569 -1.67819,-0.80201 -2.21023,-1.60331 l -0.20588,-0.31008 0.18803,-0.20812 c 0.27323,-0.30243 0.52454,-0.68235 0.68761,-1.03951 0.11667,-0.25552 0.14359,-0.39825 0.14672,-0.77785 0.003,-0.41719 -0.0129,-0.49504 -0.15877,-0.75848 -0.19137,-0.3455 -0.58002,-0.7017 -1.02365,-0.93815 -0.17483,-0.0932 -0.31787,-0.18874 -0.31787,-0.21235 0,-0.10357 0.0831,-0.66662 0.2628,-1.02346 0.52113,-1.03461 1.52249,-1.92474 2.5319,-2.18291 0.73193,-0.18719 1.67868,0.0303 2.42163,0.39428 0.32502,0.15926 0.41671,0.28649 0.80014,0.67186 0.55277,0.55557 0.78326,0.93809 1.04743,1.6414 0.83055,2.21115 -0.062,4.812 -1.86111,5.93331 -0.47365,0.29521 -0.91635,0.42301 -1.53821,0.44406 -0.31587,0.0107 -0.66261,-0.003 -0.77054,-0.0307 z m 1.59745,-4.35673 c 0.32734,-0.13975 0.59516,-0.27027 0.59516,-0.29004 0,-0.0497 -1.03583,-1.07702 -1.19971,-1.18982 -0.13155,-0.0905 -0.1363,-0.0881 -0.39242,0.19781 -0.32019,0.35749 -1.05087,1.37235 -1.01435,1.40886 0.0585,0.0585 0.95279,0.17313 1.17722,0.15092 0.13142,-0.013 0.50677,-0.13798 0.8341,-0.27773 z m -2.06981,-1.59665 c 0.14511,-0.14511 0.1378,-0.42077 -0.0155,-0.58393 -0.32897,-0.35017 -0.98413,-0.13185 -0.98413,0.32795 0,0.13232 0.27328,0.40345 0.42585,0.4225 0.2057,0.0257 0.45347,-0.0462 0.57376,-0.16652 l 0,0 z m 2.84622,-0.33023 c 0.14595,-0.14596 0.13644,-0.47264 -0.0186,-0.63764 -0.35965,-0.38282 -1.06394,-0.0808 -0.95614,0.41003 0.088,0.40081 0.66643,0.53588 0.9747,0.22761 l 0,0 z"
           style="fill:#ffe86d;fill-opacity:1;fill-rule:nonzero;stroke:#ffde49;stroke-width:0.02187809;stroke-miterlimit:4;stroke-opacity:1;stroke-dasharray:none" />
        <path
           style="fill:#ffe86d;fill-opacity:1;fill-rule:nonzero;stroke:#ffdf45;stroke-width:0.02734761;stroke-miterlimit:4;stroke-opacity:1;stroke-dasharray:none"
           d="m 670.80564,423.87002 c -0.0668,-0.20546 -0.0857,-0.91351 -0.037,-1.38313 0.0756,-0.72884 0.28398,-0.8794 0.61078,-0.67531 0.33587,0.20974 0.9501,0.62844 0.94687,0.68038 -10e-4,0.0209 -0.57111,0.48516 -0.89858,0.83111 -0.40708,0.43004 -0.60383,0.60304 -0.62207,0.54695 z"
           id="path5834"
           inkscape:connector-curvature="0"
           sodipodi:nodetypes="cccccc" />
      </g>
    </g>
    <g
       id="g6044"
       transform="translate(56.064774,32.627429)">
      <path
         style="fill:#ffe86d;fill-opacity:1;fill-rule:nonzero;stroke:#ffde49;stroke-width:0.02187809;stroke-miterlimit:4;stroke-opacity:1;stroke-dasharray:none"
         d="m 443.24779,437.23536 c -0.36981,-0.0727 -0.9816,-0.37854 -1.15704,-0.57835 -0.0874,-0.0996 -0.17483,-0.26565 -0.19423,-0.36904 -0.0494,-0.26334 0.0978,-0.71417 0.34441,-1.0547 0.77847,-1.07501 1.96271,-2.63975 1.99895,-2.64123 0.1011,-0.004 0.3422,0.3289 0.53814,0.74333 0.44466,0.94049 0.57739,2.14215 0.3242,2.93511 -0.25805,0.80821 -0.91448,1.14976 -1.85443,0.96488 l 0,0 z"
         id="path4194"
         inkscape:connector-curvature="0" />
      <path
         inkscape:connector-curvature="0"
         id="path6040"
         d="m 431.72361,438.3664 c -0.52515,-0.25983 -0.95929,-1.11641 -1.33604,-2.63612 -0.0746,-0.30082 -0.1483,-0.61872 -0.16382,-0.70643 -0.0155,-0.0877 -0.0374,-0.17438 -0.0487,-0.19259 -0.0112,-0.0182 -0.036,-0.13731 -0.055,-0.26467 l -0.0345,-0.23155 0.28983,0.11356 c 0.33535,0.13141 1.5924,0.67461 2.14462,0.92674 0.91333,0.41701 1.54888,1.43997 1.26558,2.037 -0.35643,0.75111 -1.44971,1.25697 -2.06195,0.95406 z"
         style="fill:#ffe86d;fill-opacity:1;fill-rule:nonzero;stroke:#ffdf45;stroke-width:0.02734761;stroke-miterlimit:4;stroke-opacity:1;stroke-dasharray:none" />
      <path
         inkscape:connector-curvature="0"
         id="path6042"
         d="m 436.76447,441.24872 c -1.16147,-0.31209 -2.13435,-1.29052 -2.6279,-2.64289 l -0.16334,-0.44757 0.13038,-0.17478 c 0.43696,-0.58573 0.44933,-1.28051 0.035,-1.96571 l -0.20316,-0.336 0.0787,-0.30392 c 0.10976,-0.42406 0.45971,-1.15351 0.74521,-1.55334 1.08772,-1.52331 2.91159,-1.97488 4.40471,-1.09055 0.7446,0.44101 1.4296,1.29982 1.76257,2.20979 0.23347,0.63808 0.3221,1.15741 0.3221,1.88755 0,1.4092 -0.4479,2.54502 -1.36739,3.46758 -0.51934,0.52109 -0.98907,0.80161 -1.58965,0.94935 -0.44016,0.10827 -1.12525,0.10849 -1.52721,4.9e-4 l 0,0 z"
         style="fill:#ffe86d;fill-opacity:1;fill-rule:nonzero;stroke:#ffdf45;stroke-width:0.02734761;stroke-miterlimit:4;stroke-opacity:1;stroke-dasharray:none" />
    </g>
    <path
       style="fill:#ff5555;fill-opacity:1;fill-rule:nonzero;stroke:#83ff45;stroke-width:0;stroke-miterlimit:4;stroke-opacity:1;stroke-dasharray:none"
       d=""
       id="path6119"
       inkscape:connector-curvature="0" />
    <path
       style="fill:#ff5555;fill-opacity:1;fill-rule:nonzero;stroke:#83ff45;stroke-width:0;stroke-miterlimit:4;stroke-opacity:1;stroke-dasharray:none"
       d="m 492.92996,376.2102 -1.49284,-0.41753 2.00442,-1.68661 c 2.47773,-2.08487 2.74241,-2.08686 4.35815,-0.0328 1.00599,1.2789 1.12139,1.76775 0.50902,2.15634 -0.92133,0.58465 -3.24899,0.57624 -5.37875,-0.0194 l 0,0 z"
       id="path6121"
       inkscape:connector-curvature="0" />
    <path
       style="fill:#ff5555;fill-opacity:1;fill-rule:nonzero;stroke:#83ff45;stroke-width:0;stroke-miterlimit:4;stroke-opacity:1;stroke-dasharray:none"
       d="m 505.09719,390.55707 c -1.56959,-0.41018 -1.3384,-1.16366 0.83104,-2.70844 l 1.91396,-1.36285 1.64418,1.64921 c 1.3908,1.39506 1.50114,1.74018 0.71597,2.23945 -0.95178,0.60523 -3.18264,0.68504 -5.10515,0.18263 z"
       id="path6123"
       inkscape:connector-curvature="0" />
    <path
       style="fill:#ff5555;fill-opacity:1;fill-rule:nonzero;stroke:#83ff45;stroke-width:0;stroke-miterlimit:4;stroke-opacity:1;stroke-dasharray:none"
       d="m 503.55018,357.75021 c -1.88904,-0.36385 -1.75052,-1.08037 0.52164,-2.69829 l 1.91395,-1.36285 1.56577,1.56577 c 2.45944,2.45944 0.89087,3.43765 -4.00136,2.49537 z"
       id="path6125"
       inkscape:connector-curvature="0" />
    <path
       style="fill:#ff5555;fill-opacity:1;fill-rule:nonzero;stroke:#83ff45;stroke-width:0;stroke-miterlimit:4;stroke-opacity:1;stroke-dasharray:none"
       d="m 522.57846,363.73494 c -0.80148,-0.5363 -0.75924,-0.75241 0.3094,-1.58289 2.64181,-2.05304 3.17656,-2.12058 4.62049,-0.58358 0.76331,0.8125 1.20299,1.77635 0.97708,2.14189 -0.51677,0.83616 -4.66826,0.85343 -5.90697,0.0246 z"
       id="path6127"
       inkscape:connector-curvature="0" />
    <path
       style="fill:#ff5555;fill-opacity:1;fill-rule:nonzero;stroke:#83ff45;stroke-width:0;stroke-miterlimit:4;stroke-opacity:1;stroke-dasharray:none"
       d=""
       id="path6129"
       inkscape:connector-curvature="0" />
    <path
       style="fill:#ff5555;fill-opacity:1;fill-rule:nonzero;stroke:#83ff45;stroke-width:0;stroke-miterlimit:4;stroke-opacity:1;stroke-dasharray:none"
       d="m 541.42659,353.8141 c -0.38706,-0.62627 0.67611,-1.74852 2.87939,-3.03938 0.73957,-0.4333 1.35641,-0.20241 2.38535,0.89285 0.76331,0.81251 1.203,1.77636 0.97708,2.1419 -0.53277,0.86203 -5.70954,0.86588 -6.24182,0.005 l 0,0 z"
       id="path6131"
       inkscape:connector-curvature="0" />
    <path
       style="fill:#ff5555;fill-opacity:1;fill-rule:nonzero;stroke:#83ff45;stroke-width:0;stroke-miterlimit:4;stroke-opacity:1;stroke-dasharray:none"
       d="m 545.59658,371.27052 c -0.59252,-0.37582 -0.20746,-0.96762 1.45423,-2.23506 l 2.26014,-1.72389 1.56139,1.56138 c 0.85876,0.85876 1.37139,1.86881 1.13917,2.24454 -0.49009,0.79299 -5.2278,0.90601 -6.41493,0.15303 z"
       id="path6133"
       inkscape:connector-curvature="0" />
    <path
       style="fill:#ff5555;fill-opacity:1;fill-rule:nonzero;stroke:#83ff45;stroke-width:0;stroke-miterlimit:4;stroke-opacity:1;stroke-dasharray:none"
       d="m 524.16033,376.8075 c -0.19117,-0.30932 0.52591,-1.29739 1.5935,-2.19571 l 1.94108,-1.63331 1.46401,1.37537 c 2.32955,2.18849 1.89232,3.01605 -1.59349,3.01605 -1.68163,0 -3.21392,-0.25308 -3.4051,-0.5624 z"
       id="path6135"
       inkscape:connector-curvature="0" />
    <path
       style="fill:#803300;fill-opacity:1;fill-rule:nonzero;stroke:#83ff45;stroke-width:0;stroke-miterlimit:4;stroke-opacity:1;stroke-dasharray:none"
       d="m 540.28703,435.00094 c -0.73764,-0.5864 -1.50609,-1.06753 -1.70768,-1.06918 -0.45365,-0.004 -4.8355,-5.51231 -5.76168,-7.24324 l -0.67866,-1.26834 -0.1547,3.86753 c -0.13308,3.32701 -0.25679,4.04569 -0.88517,5.14218 -0.70635,1.23256 -0.76764,1.26628 -1.85642,1.02128 -0.64281,-0.14465 -1.42744,-0.62521 -1.82857,-1.11994 -0.93316,-1.1509 -2.54611,-4.37726 -2.54611,-5.09293 0,-0.97944 -0.78376,-0.62365 -1.52278,0.69126 -0.38969,0.69335 -1.72784,2.29327 -2.97366,3.55538 l -2.26514,2.29473 0.17075,-1.65443 c 0.20905,-2.02555 -0.27464,-3.61092 -1.46481,-4.80109 l -0.89119,-0.89119 0.90155,-2.34131 c 4.02182,-10.44449 4.93316,-20.23133 2.95133,-28.72671 -0.24767,-1.06165 -3.82384,-6.29182 3.32898,-10.66001 9.39131,-1.34684 12.32338,0.81339 15.37909,0.81339 2.54788,0 5.28495,5.62255 5.13636,6.1107 -0.32699,1.07439 -1.1145,12.05906 -1.11425,15.54232 5.2e-4,7.12474 0.87318,13.12318 2.48768,17.0997 0.54904,1.35227 0.71764,2.08847 0.47831,2.08847 -0.70474,0 -2.29684,2.01771 -2.65198,3.36092 -0.19629,0.7424 -0.27228,1.85625 -0.16886,2.47523 0.15174,0.90828 0.0714,1.19738 -0.41661,1.49843 -0.51872,0.32002 -0.79521,0.22152 -1.94578,-0.69315 z"
       id="path6147"
       inkscape:connector-curvature="0"
       sodipodi:nodetypes="ccscssssssscsscsscscssssccc" />
    <path
       style="fill:#6ec657;fill-opacity:1;fill-rule:nonzero;stroke:#83ff45;stroke-width:0;stroke-miterlimit:4;stroke-opacity:1;stroke-dasharray:none"
       d="m 501.47587,395.76558 c -1.15645,-0.77335 -2.93802,-2.7081 -3.95905,-4.29944 -1.25191,-1.95119 -2.15867,-2.77935 -2.78463,-2.54328 -0.51051,0.19253 -3.64461,0.49381 -6.96467,0.66949 -9.68822,0.51267 -13.48202,-1.68625 -13.56728,-7.86371 -0.049,-3.54971 2.86806,-11.3756 4.66996,-12.52863 0.4432,-0.2836 0.11778,-1.03681 -0.93573,-2.16582 -3.49263,-3.74295 -4.04232,-7.75137 -1.78315,-13.00295 l 1.32405,-3.07783 10.63953,-0.40359 c 5.85174,-0.22198 20.36862,-0.40445 32.25972,-0.40549 l 21.62019,-0.002 -1.3543,1.26172 c -1.62839,1.51708 -1.7645,3.48483 -0.27138,3.92344 4.59743,1.35051 8.96614,0.8226 9.34213,-1.12891 0.11811,-0.61302 -0.37753,-1.9157 -1.10143,-2.89482 l -1.31618,-1.78024 10.26039,0 10.2604,0 0.95497,2.28557 c 1.77478,4.24764 1.77609,6.11499 0.006,7.88556 -1.92291,1.92291 -1.70321,2.69605 1.43431,5.04746 2.58262,1.93554 4.34892,4.43441 4.34892,6.15263 0,1.49331 -3.87722,4.99149 -6.48697,5.85278 -2.37999,0.78545 -2.58117,1.38445 -1.24816,3.7163 1.19343,2.08769 1.15278,5.59207 -0.0854,7.3598 -1.43498,2.04873 -6.79056,4.24136 -13.0079,5.32557 -7.23875,1.26233 -9.04107,1.23016 -8.65863,-0.15455 0.16449,-0.5956 0.48171,-2.47522 0.70491,-4.17694 0.22321,-1.70172 0.55527,-3.72057 0.73791,-4.48634 0.2316,-0.97105 0.0522,-1.39232 -0.59295,-1.39232 -0.63149,0 -1.0596,0.93274 -1.34911,2.93933 -0.23324,1.61663 -0.57867,3.58643 -0.76761,4.37734 -0.33623,1.40736 -0.38124,1.39228 -2.11255,-0.7081 -1.61989,-1.9652 -2.20473,-2.21093 -6.93841,-2.91518 -7.65831,-1.13937 -11.80273,-0.63831 -14.15201,1.71097 l -1.89204,1.89204 -1.82069,-3.4935 c -2.36501,-4.53794 -5.24997,-7.96194 -6.04155,-7.17036 -0.38716,0.38716 0.15672,1.55575 1.53428,3.29656 2.1874,2.76422 4.96092,8.09091 5.34223,10.26005 0.16983,0.96611 -0.48663,1.50347 -3.18959,2.61092 -4.69861,1.9251 -10.2022,1.93622 -13.05811,0.0264 l 0,-1e-5 z m 10.45913,-4.28691 c 0.40841,-0.40841 0.74257,-1.16092 0.74257,-1.67225 0,-1.10199 -3.64265,-5.01085 -4.66959,-5.01085 -1.34529,0 -5.85011,3.71973 -5.85011,4.83057 0,1.92679 1.35455,2.5951 5.25985,2.5951 2.11081,0 4.10204,-0.32732 4.51728,-0.74257 z m 19.34742,-12.89293 c 1.88798,-1.01042 1.46725,-3.32552 -0.99767,-5.48975 -1.88626,-1.65615 -2.38619,-1.82842 -3.55813,-1.2261 -2.23083,1.14653 -4.76697,3.79562 -4.76697,4.97928 0,1.87391 6.72538,3.12665 9.32277,1.73657 z m -31.33458,-1.56944 c 0.53483,-0.53483 0.97241,-1.25883 0.97241,-1.6089 0,-0.95862 -4.08003,-4.84437 -5.08658,-4.84437 -0.99127,0 -6.05192,4.14296 -6.05192,4.95447 0,1.52656 2.1289,2.47121 5.56925,2.47121 2.46987,0 3.9342,-0.30977 4.59684,-0.97241 z m 53.56502,-4.9945 c 0.81723,-0.77298 0.81723,-1.05759 0,-2.49776 -0.50727,-0.89396 -1.68697,-2.19329 -2.62155,-2.8874 l -1.69925,-1.262 -2.6324,1.84526 c -3.35938,2.35488 -3.95812,4.94881 -1.27911,5.5415 0.95741,0.21181 2.01921,0.47737 2.35955,0.59014 1.18262,0.39182 4.95593,-0.46255 5.87276,-1.32974 z m -23.97283,-6.80651 c 0.5956,-0.1677 1.08291,-0.83338 1.08291,-1.47929 0,-1.34695 -3.47074,-5.54908 -4.58324,-5.54908 -0.40821,0 -1.91091,0.85948 -3.33933,1.90995 -3.18232,2.3403 -3.57756,4.6571 -0.89542,5.24865 0.93595,0.20643 1.98018,0.47118 2.32052,0.58835 0.62418,0.21487 3.41445,-0.15543 5.41456,-0.71858 l 0,0 z m -19.6977,-6.16637 c 0.53835,-0.20658 0.97882,-0.9591 0.97882,-1.67226 0,-1.37993 -3.47139,-5.3778 -4.66959,-5.3778 -0.39269,0 -1.86961,0.83713 -3.28204,1.8603 -2.73933,1.98435 -3.30178,3.83892 -1.48516,4.897 1.18835,0.69215 6.90181,0.88992 8.45797,0.29276 l 0,0 z"
       id="path6185"
       inkscape:connector-curvature="0" />
    <path
       style="fill:#6ec657;fill-opacity:1;fill-rule:nonzero;stroke:#83ff45;stroke-width:0;stroke-miterlimit:4;stroke-opacity:1;stroke-dasharray:none"
       d="m 465.51979,437.46329 0,-2.42886 1.97516,1.15752 c 2.15907,1.2653 2.53453,1.19609 3.67376,-0.67723 l 0.76481,-1.25762 1.25062,1.30536 c 0.68784,0.71796 1.48873,1.30537 1.77977,1.30537 0.29103,0 1.12751,-0.6815 1.85885,-1.51444 l 1.32969,-1.51444 0.48459,1.4683 c 0.48192,1.46025 1.35877,1.97953 3.36394,1.99217 1.23158,0.008 3.45837,-2.79995 4.79175,-6.04183 0.58995,-1.43435 1.02633,-2.08494 1.03233,-1.53908 0.0128,1.16781 1.71839,5.85133 2.41019,6.61845 0.72076,0.79922 1.59662,0.32094 2.79815,-1.52798 1.13906,-1.75278 1.16434,-1.74227 2.7672,1.15097 1.02989,1.859 1.98295,1.69486 2.98568,-0.5142 0.46426,-1.0228 0.84844,-1.51083 0.85373,-1.08452 0.005,0.42631 0.48418,0.99135 1.06422,1.25563 0.8339,0.37995 1.26635,0.3322 2.06639,-0.22816 1.32752,-0.92983 1.4625,-0.90447 2.05012,0.38523 0.67009,1.47069 2.62792,1.47932 4.0011,0.0176 l 1.0111,-1.07626 1.20976,1.29504 c 2.27582,2.43628 4.40673,1.66422 8.99455,-3.25885 l 3.10395,-3.33076 0.77672,1.72249 c 0.98916,2.19355 2.70737,3.78976 4.42279,4.10877 1.16536,0.21672 1.45495,0.0648 2.18421,-1.14558 0.46239,-0.76748 0.94079,-2.55291 1.06311,-3.96762 l 0.22238,-2.57221 2.17323,2.71458 c 2.2518,2.81272 5.39576,5.27399 6.73686,5.27399 0.42423,0 1.33347,-0.58675 2.02053,-1.30389 l 1.24919,-1.30388 0.47828,0.95934 c 0.26306,0.52763 1.20055,1.23423 2.08331,1.57021 1.39749,0.53189 1.77878,0.5242 2.94879,-0.0595 1.23946,-0.61833 1.34375,-0.61183 1.34375,0.0837 0,0.96392 0.83781,1.80422 1.79887,1.80422 0.85347,0 3.01431,-2.37659 3.01431,-3.31528 0,-1.0287 0.0858,-0.9861 3.12147,1.55049 0.8745,0.73072 1.6929,1.72208 1.81867,2.20303 0.21393,0.81804 0.0126,0.8744 -3.12146,0.8737 -5.52424,-10e-4 -69.00995,0.83165 -80.90798,1.06144 l -11.04844,0.21338 0,-2.42886 z"
       id="path6191"
       inkscape:connector-curvature="0" />
    <path
       style="fill:#ffff00;fill-opacity:1;fill-rule:nonzero;stroke:#83ff45;stroke-width:0;stroke-miterlimit:4;stroke-opacity:1;stroke-dasharray:none"
       d=""
       id="path6197"
       inkscape:connector-curvature="0" />
    <path
       style="fill:#ffff07;fill-opacity:1;fill-rule:nonzero;stroke:#83ff45;stroke-width:0;stroke-miterlimit:4;stroke-opacity:1;stroke-dasharray:none"
       d="m 371.5474,365.53825 c -16.70917,-1.37082 -30.92974,-8.76699 -35.8534,-18.64748 -2.20268,-4.42021 -2.21103,-10.0991 -0.0213,-14.4933 5.48887,-11.01473 22.85946,-18.74567 42.14936,-18.75897 15.82737,-0.0109 29.22343,4.35893 37.46684,12.22182 4.67826,4.4623 6.74901,8.64139 6.77306,13.66905 0.0769,16.07981 -23.5102,28.22431 -50.51455,26.00888 z"
       id="path6199"
       inkscape:connector-curvature="0" />
    <path
       inkscape:connector-curvature="0"
       id="path6408"
       d="m 395.40628,465.07574 c -0.67235,-0.2849 -0.96929,-0.49557 -1.44948,-1.02834 -0.50828,-0.56396 -0.91674,-1.36168 -1.1004,-2.14909 -0.17427,-0.74718 -0.12026,-2.16228 0.11,-2.88182 0.61799,-1.93114 2.37985,-3.22521 3.98503,-2.92693 1.50174,0.27906 2.68678,1.49922 3.15068,3.24405 0.18148,0.68259 0.17809,1.99083 -0.007,2.68536 -0.19357,0.72651 -0.68916,1.64208 -1.13855,2.10341 -0.3427,0.3518 -0.41365,0.39052 -0.66191,0.36139 -0.29017,-0.034 -0.47433,0.0919 -0.78004,0.53365 -0.12514,0.18081 -0.18923,0.19643 -0.90124,0.21983 -0.66406,0.0218 -0.82543,2.4e-4 -1.20715,-0.16151 l 0,0 z m 1.9842,-4.2494 c 0.31783,-0.13466 0.60481,-0.27012 0.63771,-0.30102 0.0329,-0.0309 -0.24544,-0.3557 -0.61854,-0.72177 l -0.67838,-0.66558 -0.34063,0.37819 c -0.53105,0.58961 -1.06851,1.39729 -0.95552,1.43592 0.15357,0.0524 0.53363,0.0945 0.9732,0.10728 0.29485,0.008 0.56071,-0.0545 0.98216,-0.23302 l 0,0 z m -2.0543,-1.65068 c 0.32483,-0.32653 0.0713,-0.78981 -0.43215,-0.78981 -0.31002,0 -0.58929,0.22458 -0.58929,0.47389 0,0.2493 0.27927,0.47387 0.58929,0.47387 0.17024,0 0.33488,-0.0601 0.43215,-0.15795 z m 2.82973,-0.30095 c 0.36119,-0.29401 0.12803,-0.88377 -0.34938,-0.88377 -0.3502,0 -0.59461,0.19663 -0.59461,0.47836 0,0.47438 0.56247,0.71594 0.94399,0.40541 l 0,0 z"
       style="fill:#ffe86d;fill-opacity:1;fill-rule:nonzero;stroke:#f4ff45;stroke-width:0.03938821;stroke-miterlimit:4;stroke-opacity:1;stroke-dasharray:none" />
    <g
       transform="translate(-223.11934,50.706042)"
       id="g6428">
      <path
         style="fill:#ffe86d;fill-opacity:1;fill-rule:nonzero;stroke:#ffde49;stroke-width:0.02187809;stroke-miterlimit:4;stroke-opacity:1;stroke-dasharray:none"
         d="m 596.60846,412.14803 c -0.12404,-1.51653 -0.12528,-1.58556 -0.0342,-1.899 0.19759,-0.67971 0.55023,-1.16089 0.94665,-1.29172 0.26541,-0.0876 0.71873,-0.031 1.0811,0.13484 0.40105,0.18361 0.87352,0.65736 0.95413,0.95672 0.18737,0.69585 -0.36985,1.54605 -1.90531,2.90711 -0.45734,0.40539 -0.85002,0.74354 -0.87261,0.75143 -0.0226,0.008 -0.099,-0.69383 -0.1698,-1.55938 z"
         id="path6430"
         inkscape:connector-curvature="0" />
      <path
         style="fill:#ffe86d;fill-opacity:1;fill-rule:nonzero;stroke:#ffde49;stroke-width:0.02187809;stroke-miterlimit:4;stroke-opacity:1;stroke-dasharray:none"
         d="m 601.52228,414.26817 c -0.88371,-0.22569 -1.67819,-0.80201 -2.21023,-1.60331 l -0.20588,-0.31008 0.18803,-0.20812 c 0.27323,-0.30243 0.52454,-0.68235 0.68761,-1.03951 0.11667,-0.25552 0.14359,-0.39825 0.14672,-0.77785 0.003,-0.41719 -0.0129,-0.49504 -0.15877,-0.75848 -0.19137,-0.3455 -0.58002,-0.7017 -1.02365,-0.93815 -0.17483,-0.0932 -0.31787,-0.18874 -0.31787,-0.21235 0,-0.10357 0.2198,-0.66662 0.39954,-1.02346 0.52113,-1.03461 1.4131,-1.788 2.42251,-2.04617 0.73193,-0.18719 1.4052,-0.10647 2.14815,0.25754 0.32502,0.15926 0.5261,0.31384 0.90953,0.69921 0.55277,0.55557 0.78326,0.91074 1.04743,1.61405 0.83055,2.21115 0.0747,4.812 -1.72437,5.93331 -0.47365,0.29521 -0.91635,0.42301 -1.53821,0.44406 -0.31587,0.0107 -0.66261,-0.003 -0.77054,-0.0307 z m 1.59745,-4.35673 c 0.32734,-0.13975 0.59516,-0.27027 0.59516,-0.29004 0,-0.0497 -1.03583,-1.07702 -1.19971,-1.18982 -0.13155,-0.0905 -0.1363,-0.0881 -0.39242,0.19781 -0.32019,0.35749 -1.05087,1.37235 -1.01435,1.40886 0.0585,0.0585 0.95279,0.17313 1.17722,0.15092 0.13142,-0.013 0.50677,-0.13798 0.8341,-0.27773 l 0,0 z m -2.06981,-1.59665 c 0.14511,-0.14511 0.1378,-0.42077 -0.0155,-0.58393 -0.32897,-0.35017 -0.98413,-0.13185 -0.98413,0.32795 0,0.13232 0.27328,0.40345 0.42585,0.4225 0.2057,0.0257 0.45347,-0.0462 0.57376,-0.16652 l 0,0 z m 2.84622,-0.33023 c 0.14595,-0.14596 0.13644,-0.47264 -0.0186,-0.63764 -0.35965,-0.38282 -1.06394,-0.0808 -0.95614,0.41003 0.088,0.40081 0.66643,0.53588 0.9747,0.22761 l 0,0 z"
         id="path6432"
         inkscape:connector-curvature="0" />
      <path
         style="fill:#ffe86d;fill-opacity:1;fill-rule:nonzero;stroke:#ffde49;stroke-width:0.02187809;stroke-miterlimit:4;stroke-opacity:1;stroke-dasharray:none"
         d="m 607.88044,410.21592 c -0.36981,-0.0727 -0.9816,-0.37854 -1.15704,-0.57835 -0.0874,-0.0996 -0.17483,-0.26565 -0.19423,-0.36904 -0.0494,-0.26334 0.0978,-0.71417 0.34441,-1.0547 0.77847,-1.07501 1.96271,-2.63975 1.99895,-2.64123 0.1011,-0.004 0.3422,0.3289 0.53814,0.74333 0.44466,0.94049 0.57739,2.14215 0.3242,2.93511 -0.25805,0.80821 -0.91448,1.14976 -1.85443,0.96488 l 0,0 z"
         id="path6434"
         inkscape:connector-curvature="0" />
    </g>
  </g>
  <path
     style="opacity:0.98999999;color:#000000;fill:#42c4eb;fill-opacity:1;fill-rule:nonzero;stroke:none;stroke-width:1px;marker:none;visibility:visible;display:inline;overflow:visible;enable-background:accumulate"
     d="m 465.56581,443.27609 -1.09391,-7.21977"
     id="path5680"
     inkscape:connector-curvature="0" />
  <path
     style="opacity:0.98999999;color:#000000;fill:#92ca3b;fill-opacity:1;stroke:#000000;stroke-width:0.5;stroke-miterlimit:4;stroke-opacity:1;stroke-dasharray:none;marker:none;visibility:visible;display:inline;overflow:visible;enable-background:accumulate"
     d="m 466.13316,440.41812 c 0,-0.77351 0,-1.54701 0,-2.32052 0,-1.26879 -0.1547,-2.65639 -0.1547,-3.86754 0,-0.0356 0.69793,0.58102 0.77351,0.61881 0.52858,0.26429 0.9232,0.73107 1.39231,1.08291 0.1246,0.33268 0.4419,0.0368 0.61881,0.1547 0.63941,0.42628 1.81423,1.51885 2.01112,0.92821 0.26574,-0.79723 0.94729,-1.14017 1.23761,-2.01112 0.0754,-0.22622 0.40707,-1.39231 0.6188,-1.39231 0.21984,0 2.82423,3.98263 3.55814,3.24873 1.16187,-1.16188 2.51974,-2.65331 2.93933,-4.33164 0.13945,-0.55781 0.1547,-1.06691 0.1547,-1.70172 0,-0.10314 -0.10314,-0.3094 0,-0.3094 0.10313,0 0,0.20626 0,0.3094 0,0.4641 0,0.92821 0,1.39231 0,0.12556 0.60927,3.5486 0.7735,3.71284 0.18623,0.18622 0.33465,0.64405 0.61881,0.92821 0.10677,0.10677 0.48777,-0.0874 0.61881,0 0.47173,0.31449 1.5954,0.87982 2.16582,0.3094 2.09669,-2.09669 3.87472,-4.52227 4.48634,-7.58037 0.0937,-0.46877 0.91414,-3.55814 1.08291,-3.55814 0.25784,0 0,0.51568 0,0.77351 0,0.76143 0.22501,1.40629 0.3094,2.16582 0.0621,0.55865 -0.24553,1.52006 0,2.01112 0.45674,0.91348 0.80408,2.4743 1.23761,3.55813 0.12118,0.30294 0.23365,0.62517 0.30941,0.92821 1.02027,4.08111 3.58075,-3.00537 4.33164,-2.62992 0.52732,0.26366 1.69339,3.70728 2.62992,4.33164 0.94143,0.62762 2.04315,-3.45147 2.32053,-3.86754 0.1416,-0.2124 0.2391,-0.225 0.4641,0 0.33295,0.33296 -0.25289,1.65262 1.39231,2.47523 1.39886,0.69943 2.52195,-2.21981 3.24874,-1.85642 0.27953,0.13977 0.0963,0.38504 0.1547,0.6188 0.17702,0.70809 0.9337,1.86192 1.39231,2.32053 0.14585,0.14585 0.41254,0 0.61881,0 2.53745,0 3.11296,-3.24873 3.86753,-3.24873 0.10314,0 -0.0326,0.21156 0,0.3094 0.15657,0.46972 0.34804,0.92804 0.46411,1.39231 0.37043,1.48175 2.58956,2.81154 4.48634,1.54702 0.47249,-0.315 1.9312,-1.23248 2.16582,-1.70172 0.18558,-0.37117 0.45956,-0.92367 0.77351,-1.23761 0.2954,-0.29541 0.77242,-0.38594 1.08291,-0.61881 0.38772,-0.29079 2.438,-2.7288 2.78462,-3.24873 0.24195,-0.36291 0.96017,-1.85642 1.08291,-1.85642 0.34415,0 0.0659,0.75059 0.15471,0.92821 0.23462,0.46925 0.42449,0.90653 0.6188,1.39232 0.56667,1.41668 1.87003,3.71964 3.09403,4.33164 0.37964,0.18982 1.0132,-0.0349 1.39232,0.1547 0.29818,0.14909 0.5673,0.3094 0.9282,0.3094 0.24305,0 1.39379,-2.47816 1.70172,-3.09403 0.31324,-0.62649 0.1547,-1.88817 0.1547,-2.62992 0,-0.87664 0,-1.75329 0,-2.62993 0,-0.49882 0.0291,-0.56064 -0.1547,-0.92821 -0.0461,-0.0922 0,-0.41253 0,-0.3094 0,0.74349 5.04347,7.10869 5.87866,7.73507 0.54053,0.4054 0.0699,-0.0283 0.6188,0.15471 0.35058,0.11685 2.33554,1.71673 2.47523,1.85641 0.85797,0.85798 4.31447,-3.1112 4.33164,-3.09403 0.0911,0.0911 0.0611,1.20506 0.1547,1.39232 1.03964,2.07928 3.60525,2.59851 5.41455,1.39231 0.45178,-0.30119 0.62685,-0.77351 1.23761,-0.77351 0.0235,0 -0.25897,2.26839 0.77351,2.78463 1.18501,0.59251 3.09403,-1.64124 3.09403,-2.62993 0,-0.27393 0.41263,-1.94229 0.77351,-1.70171 0.65141,0.43427 0.86618,0.86618 1.23761,1.23761 0.36803,0.36803 1.17924,0.56043 1.54701,0.92821 0.74369,0.74368 1.59393,1.46269 2.16582,2.32052 0.41402,0.62102 0.34921,1.43212 0.77351,1.85642"
     id="path5688"
     inkscape:connector-curvature="0" />
</svg>
