<?xml version="1.0" encoding="UTF-8" standalone="no"?>
<!-- Created with Inkscape (http://www.inkscape.org/) -->

<svg
   xmlns:dc="http://purl.org/dc/elements/1.1/"
   xmlns:cc="http://creativecommons.org/ns#"
   xmlns:rdf="http://www.w3.org/1999/02/22-rdf-syntax-ns#"
   xmlns:svg="http://www.w3.org/2000/svg"
   xmlns="http://www.w3.org/2000/svg"
   xmlns:sodipodi="http://sodipodi.sourceforge.net/DTD/sodipodi-0.dtd"
   xmlns:inkscape="http://www.inkscape.org/namespaces/inkscape"
   width="1000"
   height="1000"
   id="svg2"
   version="1.1"
   inkscape:version="0.48.4 r9939"
   sodipodi:docname="Emergency-Downtime2.svg">
  <defs
     id="defs4" />
  <sodipodi:namedview
     id="base"
     pagecolor="#ffffff"
     bordercolor="#666666"
     borderopacity="1.0"
     inkscape:pageopacity="0.0"
     inkscape:pageshadow="2"
     inkscape:zoom="0.5086538461538461"
     inkscape:cx="500.0000000000001"
     inkscape:cy="500.0000000000001"
     inkscape:document-units="px"
     inkscape:current-layer="layer1"
     showgrid="false"
     width="1000px"
     showborder="true"
     borderlayer="true"
     inkscape:showpageshadow="false"
     showguides="true"
     inkscape:guide-bbox="true"
     inkscape:snap-bbox="true"
     inkscape:snap-page="true"
     inkscape:window-width="1364"
     inkscape:window-height="708"
     inkscape:window-x="0"
     inkscape:window-y="27"
     inkscape:window-maximized="0"
     inkscape:object-nodes="true"
     inkscape:snap-global="true" />
  <metadata
     id="metadata7">
    <rdf:RDF>
      <cc:Work
         rdf:about="">
        <dc:format>image/svg+xml</dc:format>
        <dc:type
           rdf:resource="http://purl.org/dc/dcmitype/StillImage" />
        <dc:title />
      </cc:Work>
    </rdf:RDF>
  </metadata>
  <g
     inkscape:label="Layer 1"
     inkscape:groupmode="layer"
     id="layer1"
     transform="translate(0,-52.362182)">
    <rect
       style="color:#000000;fill:none;fill-opacity:1;fill-rule:nonzero;stroke:#000000;stroke-width:40;marker:none;visibility:visible;display:inline;overflow:visible;enable-background:accumulate;stroke-opacity:1;stroke-miterlimit:4;stroke-dasharray:none"
       id="rect3001"
       width="1000"
       height="1000"
       x="0"
       y="0"
       transform="translate(0,52.362182)" />
    <g
       id="g5680"
       transform="translate(5.000000555810403e-6,0)">
      <path
         sodipodi:nodetypes="ccccccccccccccccccccc"
         d="m 205.3687250000025,840.588409499996 -25.6201099999984,0 0,-12.810059999999 -12.8100499999999,0 0,-51.2402199999982 12.8100499999999,0 0,-12.8100500000046 89.6703900000029,0 0,12.8100500000046 12.8100499999998,0 0,51.2402199999982 -12.8100499999998,0 0,12.810059999999 -25.6201099999985,0 0,-25.6201099999978 25.6201099999986,0 0,-25.6201099999995 -89.6703900000027,0 0,25.6201099999995 25.6201099999985,0 z"
         style="font-size:147.5718383789px;font-style:normal;font-variant:normal;font-weight:bold;font-stretch:normal;line-height:125%;letter-spacing:0px;word-spacing:0px;fill:#000000;fill-opacity:1;stroke:none;font-family:'8-bit Operator+';-inkscape-font-specification:'8-bit Operator+ Bold'"
         id="path5550"
         inkscape:connector-curvature="0" />
      <path
         sodipodi:nodetypes="cccccccccccccccccccccc"
         d="m 295.0391100000059,481.9068794999881 0,89.6703900000019 -25.6201099999981,0 0,-89.6703900000019 12.8100600000063,0 0,-25.6201099999987 25.6201099999997,0 0,25.6201099999987 12.8100499999991,0 0,64.0502800000021 -12.8100499999991,0 0,-64.0502800000021 z m 51.2402199999998,0 12.8100599999979,0 0,89.6703900000019 -25.6201099999962,0 0,-89.6703900000019 -12.8100600000068,0 0,-25.6201099999987 25.6201099999997,0 z"
         style="font-size:147.5718383789px;font-style:normal;font-variant:normal;font-weight:bold;font-stretch:normal;line-height:125%;letter-spacing:0px;word-spacing:0px;fill:#000000;fill-opacity:1;stroke:none;font-family:'8-bit Operator+';-inkscape-font-specification:'8-bit Operator+ Bold'"
         id="path5556"
         inkscape:connector-curvature="0" />
      <path
         sodipodi:nodetypes="ccccccccccccccccccccccccccccc"
         d="m 820.2513849999976,840.5884094999944 -25.6201100000052,0 0,-25.6201099999978 25.6201100000052,0 0,-25.620110000002 -38.43016,0 0,25.6201100000029 -12.8100600000015,0 0,-25.6201100000029 -38.4301600000025,0 0,25.6201100000029 25.6201099999995,0 0,25.6201099999986 -25.6201099999995,0 0,-12.8100500000005 -12.8100599999973,0 0,-51.2402299999984 12.8100599999973,0 0,-12.8100500000005 38.4301600000008,0 0,12.8100500000005 12.810060000004,0 0,-12.8100500000005 38.43016,0 0,12.8100500000005 12.8100599999965,0 0,51.2402299999984 -12.8100599999965,0 z"
         style="font-size:147.5718383789px;font-style:normal;font-variant:normal;font-weight:bold;font-stretch:normal;line-height:125%;letter-spacing:0px;word-spacing:0px;fill:#000000;fill-opacity:1;stroke:none;font-family:'8-bit Operator+';-inkscape-font-specification:'8-bit Operator+ Bold'"
         id="path5558"
         inkscape:connector-curvature="0" />
      <path
         sodipodi:nodetypes="ccccccccccccccccccccccccc"
         d="m 544.8351999999947,610.0074295000007 -12.8100500000008,0 0,-12.8100500000004 -12.810059999998,0 0,-12.8100599999999 -12.8100499999999,0 0,-12.8100499999998 -12.810059999998,0 0,12.8100499999998 -12.8100599999979,0 0,12.8100599999999 -12.8100500000001,0 0,12.8100500000004 -12.810059999998,0 0,-115.2904899999999 25.6201099999981,0 0,64.0502700000001 12.8100599999979,0 0,-12.8100500000003 12.810059999998,0 0,12.8100500000003 12.8100499999999,0 0,-64.0502700000001 25.6201099999988,0 z"
         style="font-size:147.5718383789px;font-style:normal;font-variant:normal;font-weight:bold;font-stretch:normal;line-height:125%;letter-spacing:0px;word-spacing:0px;fill:#000000;fill-opacity:1;stroke:none;font-family:'8-bit Operator+';-inkscape-font-specification:'8-bit Operator+ Bold'"
         id="path5534"
         inkscape:connector-curvature="0" />
      <path
         sodipodi:nodetypes="ccccccccccccccccccccccccc"
         d="m 640.9106249999977,571.5772694999931 12.8100499999991,2e-12 0,12.8100599999997 12.8100599999998,0 9e-13,12.810049999998 12.8100499999989,2.5e-12 9e-13,12.8100599999998 12.8100600000037,-1e-12 9e-13,-12.8100600000007 12.8100499999989,-9e-13 9e-13,-12.8100499999993 12.8100599999973,1.6e-12 0,-12.8100600000017 12.8100499999972,1.3e-12 -1.7e-12,115.2905000000008 -25.6201099999971,-3.2e-12 -1.8e-12,-64.050279999999 -12.8100499999937,2e-13 -2.7e-12,12.8100600000021 -12.8100600000054,0 0,-12.8100600000007 -12.8100499999999,-7e-13 0,64.0502799999988 -25.6201099999992,1.9e-12 z"
         style="font-size:147.5718383789px;font-style:normal;font-variant:normal;font-weight:bold;font-stretch:normal;line-height:125%;letter-spacing:0px;word-spacing:0px;fill:#000000;fill-opacity:1;stroke:none;font-family:'8-bit Operator+';-inkscape-font-specification:'8-bit Operator+ Bold'"
         id="path5536"
         inkscape:connector-curvature="0" />
      <path
         sodipodi:nodetypes="ccccccccccccccccccccccccc"
         d="m 269.419005000007,571.5772694999941 12.8100550000009,0 -1e-12,12.8100499999996 12.8100560000021,3e-13 0,12.8100599999999 12.8100549999999,0 0,12.8100600000006 12.8100589999968,-1.8e-12 -9e-13,-12.8100600000007 12.81005,-1.1e-12 0,-12.8100599999997 12.8100599999988,-1.6e-12 9e-13,-12.8100499999977 12.8100499999991,-1.9e-12 0,115.2905000000011 -25.6201099999998,-9e-13 1e-12,-64.0502799999996 -12.81005,2.3e-12 0,12.81006 -12.8100589999959,1.1e-12 0,-12.8100599999996 -12.8100549999999,-6e-13 -3.6e-12,64.0502800000006 -25.6201109999984,0 z"
         style="font-size:147.5718383789px;font-style:normal;font-variant:normal;font-weight:bold;font-stretch:normal;line-height:125%;letter-spacing:0px;word-spacing:0px;fill:#000000;fill-opacity:1;stroke:none;font-family:'8-bit Operator+';-inkscape-font-specification:'8-bit Operator+ Bold'"
         id="path5538"
         inkscape:connector-curvature="0" />
      <path
         sodipodi:nodetypes="ccccccccccccc"
         d="m 660.125680000001,610.007434499995 0,76.8603350000008 -12.810050000001,0 0,-51.2402240000011 -38.4301700000026,0 0,38.430164 -12.8100499999998,0 0,-38.430164 -38.4301699999996,0 0,51.2402240000011 -12.8100500000002,0 0,-76.8603350000016 z"
         style="font-size:147.5718383789px;font-style:normal;font-variant:normal;font-weight:bold;font-stretch:normal;line-height:125%;letter-spacing:0px;word-spacing:0px;fill:#000000;fill-opacity:1;stroke:none;font-family:'8-bit Operator+';-inkscape-font-specification:'8-bit Operator+ Bold'"
         id="path5540"
         inkscape:connector-curvature="0" />
      <path
         sodipodi:nodetypes="ccccccccccccc"
         d="m 557.645239999998,686.8677694999958 0,76.8603399999975 -12.8100500000002,0 0,-51.2402299999992 -38.4301700000012,0 0,38.4301699999993 -12.8100499999982,0 0,-38.430169999996 -38.4301700000042,0 0,51.2402299999992 -12.8100499999937,0 0,-76.860339999997 z"
         style="font-size:147.5718383789px;font-style:normal;font-variant:normal;font-weight:bold;font-stretch:normal;line-height:125%;letter-spacing:0px;word-spacing:0px;fill:#000000;fill-opacity:1;stroke:none;font-family:'8-bit Operator+';-inkscape-font-specification:'8-bit Operator+ Bold'"
         id="path5542"
         inkscape:connector-curvature="0" />
      <path
         sodipodi:nodetypes="ccccccccccccc"
         d="m 730.5810049999936,686.8677694999953 0,76.8603300000001 -12.8100500000003,0 0,-51.2402200000023 -38.4301700000003,0 0,38.4301599999991 -12.81005,0 0,-38.4301599999991 -38.430169999996,0 0,51.2402200000023 -12.810050000001,0 0,-76.8603300000001 z"
         style="font-size:147.5718383789px;font-style:normal;font-variant:normal;font-weight:bold;font-stretch:normal;line-height:125%;letter-spacing:0px;word-spacing:0px;fill:#000000;fill-opacity:1;stroke:none;font-family:'8-bit Operator+';-inkscape-font-specification:'8-bit Operator+ Bold'"
         id="path5544"
         inkscape:connector-curvature="0" />
      <path
         sodipodi:nodetypes="ccccccccccccc"
         d="m 455.164810000002,610.0074295000007 0,76.8603399999988 -12.8100599999979,0 0,-51.2402299999992 -38.4301599999999,0 0,38.4301700000002 -12.810059999998,0 0,-38.4301700000002 -38.4301700000033,0 0,51.2402299999992 -12.8100500000018,0 0,-76.860339999999 z"
         style="font-size:147.5718383789px;font-style:normal;font-variant:normal;font-weight:bold;font-stretch:normal;line-height:125%;letter-spacing:0px;word-spacing:0px;fill:#000000;fill-opacity:1;stroke:none;font-family:'8-bit Operator+';-inkscape-font-specification:'8-bit Operator+ Bold'"
         id="path5546"
         inkscape:connector-curvature="0" />
      <path
         sodipodi:nodetypes="ccccccccccccc"
         d="m 269.419005000007,686.8677694999958 0,76.8603300000023 12.8100500000001,0 0,-51.2402200000007 38.4301700000042,0 0,38.4301600000017 12.8100599999997,0 0,-38.4301600000017 38.430159999999,0 0,51.2402200000007 12.8100600000044,0 0,-76.8603300000023 z"
         style="font-size:147.5718383789px;font-style:normal;font-variant:normal;font-weight:bold;font-stretch:normal;line-height:125%;letter-spacing:0px;word-spacing:0px;fill:#000000;fill-opacity:1;stroke:none;font-family:'8-bit Operator+';-inkscape-font-specification:'8-bit Operator+ Bold'"
         id="path5548"
         inkscape:connector-curvature="0" />
      <path
         sodipodi:nodetypes="ccccccccccccccccc"
         d="m 512.8100599999985,353.806334500001 12.8100599999999,0 0,12.81005 12.8100500000002,0 0,51.2402199999996 -25.6201100000001,0 0,-51.2402199999996 -25.6201099999977,0 0,51.2402199999996 -25.6201099999999,0 0,-51.2402199999996 12.8100500000001,0 0,-12.81005 12.8100599999979,0 0,-51.2402199999988 25.6201099999989,0 z"
         style="font-size:147.5718383789px;font-style:normal;font-variant:normal;font-weight:bold;font-stretch:normal;line-height:125%;letter-spacing:0px;word-spacing:0px;fill:#000000;fill-opacity:1;stroke:none;font-family:'8-bit Operator+';-inkscape-font-specification:'8-bit Operator+ Bold'"
         id="path5552"
         inkscape:connector-curvature="0" />
      <path
         sodipodi:nodetypes="cccccccccccccc"
         d="m 442.354755000003,494.7169395000008 0,-64.0502750000015 12.8100599999989,0 0,-12.8100599999987 89.6703900000011,0 0,12.8100599999987 12.8100500000007,0 0,64.0502750000016 z m 102.48045,-51.2402249999995 -89.6703900000011,0 0,25.6201140000003 89.6703900000011,0 z"
         style="font-size:147.5718383789px;font-style:normal;font-variant:normal;font-weight:bold;font-stretch:normal;line-height:125%;letter-spacing:0px;word-spacing:0px;fill:#000000;fill-opacity:1;stroke:none;font-family:'8-bit Operator+';-inkscape-font-specification:'8-bit Operator+ Bold'"
         id="path5554"
         inkscape:connector-curvature="0" />
      <path
         sodipodi:nodetypes="ccccccccccccc"
         d="m 538.4301649999979,840.5884094999978 0,102.4804400000003 -12.810059999999,0 0,12.81006 -51.2402199999967,0 0,-12.81006 -12.8100600000043,0 0,-102.4804400000003 25.6201100000025,0 0,102.4804400000003 25.6201100000006,0 0,-102.4804400000003 z"
         style="font-size:147.5718383789px;font-style:normal;font-variant:normal;font-weight:bold;font-stretch:normal;line-height:125%;letter-spacing:0px;word-spacing:0px;fill:#000000;fill-opacity:1;stroke:none;font-family:'8-bit Operator+';-inkscape-font-specification:'8-bit Operator+ Bold'"
         id="path5560"
         inkscape:connector-curvature="0" />
      <path
         sodipodi:nodetypes="cccccccccccccccccc"
         d="m 564.0502749999958,943.0688494999982 -12.8100499999999,0 0,-89.6703900000016 12.8100499999999,0 0,-12.8100599999998 51.2402300000032,0 0,12.8100599999998 12.8100500000007,0 0,89.6703900000017 -12.8100500000007,0 0,12.8100499999988 -51.2402300000032,0 z m 38.4301699999977,0 0,-89.6703900000016 -25.6201099999996,0 0,89.6703900000017 z"
         style="font-size:147.5718383789px;font-style:normal;font-variant:normal;font-weight:bold;font-stretch:normal;line-height:125%;letter-spacing:0px;word-spacing:0px;fill:#000000;fill-opacity:1;stroke:none;font-family:'8-bit Operator+';-inkscape-font-specification:'8-bit Operator+ Bold'"
         id="path5562"
         inkscape:connector-curvature="0" />
      <path
         sodipodi:nodetypes="ccccccccc"
         d="m 717.7709449999955,802.158249499997 0,-25.6201199999997 12.8100599999981,0 0,76.860340000001 -12.8100599999981,0 0,-25.620110000002 -102.4804400000022,0 0,-25.6201099999979 z"
         style="font-size:147.5718383789px;font-style:normal;font-variant:normal;font-weight:bold;font-stretch:normal;line-height:125%;letter-spacing:0px;word-spacing:0px;fill:#000000;fill-opacity:1;stroke:none;font-family:'8-bit Operator+';-inkscape-font-specification:'8-bit Operator+ Bold'"
         id="path5564"
         inkscape:connector-curvature="0" />
      <path
         sodipodi:nodetypes="cccccccccccccccccc"
         d="m 435.9497149999997,853.3984694999967 12.8100500000001,0 0,89.6703800000014 -12.8100500000001,0 0,12.8100599999989 -51.2402299999994,0 0,-12.8100599999989 -12.81005,0 0,-89.6703800000014 12.81005,0 0,-12.8100599999998 51.2402299999994,0 z m -38.4301699999978,0 0,89.6703800000014 25.6201099999971,0 0,-89.6703800000014 z"
         style="font-size:147.5718383789px;font-style:normal;font-variant:normal;font-weight:bold;font-stretch:normal;line-height:125%;letter-spacing:0px;word-spacing:0px;fill:#000000;fill-opacity:1;stroke:none;font-family:'8-bit Operator+';-inkscape-font-specification:'8-bit Operator+ Bold'"
         id="path5568"
         inkscape:connector-curvature="0" />
      <path
         sodipodi:nodetypes="ccccccccccccc"
         d="m 455.1648050000031,167.5221931019419 0,12.8100500000003 89.6703900000029,0 0,-12.8100500000003 12.8100599999977,0 0,51.2402199999997 -12.8100599999977,0 0,-12.8100599999999 -89.6703900000029,0 0,12.8100599999999 -12.8100500000001,0 0,-51.2402199999998 z"
         style="font-size:147.5718383789px;font-style:normal;font-variant:normal;font-weight:bold;font-stretch:normal;line-height:125%;letter-spacing:0px;word-spacing:0px;fill:#000000;fill-opacity:1;stroke:none;font-family:'8-bit Operator+';-inkscape-font-specification:'8-bit Operator+ Bold'"
         id="path5566"
         inkscape:connector-curvature="0" />
      <path
         sodipodi:nodetypes="ccccccccccccc"
         d="m 474.379895,238.5158345000024 12.810060000008,0 0,-89.6703900000002 -12.810060000008,0 0,-12.8100500000006 51.2402199999997,0 0,12.8100500000006 -12.8100500000002,0 0,89.6703900000002 12.8100500000002,0 0,12.81006 -51.2402199999997,0 z"
         style="font-size:147.5718383789px;font-style:normal;font-variant:normal;font-weight:bold;font-stretch:normal;line-height:125%;letter-spacing:0px;word-spacing:0px;fill:#000000;fill-opacity:1;stroke:none;font-family:'8-bit Operator+';-inkscape-font-specification:'8-bit Operator+ Bold'"
         id="path5570"
         inkscape:connector-curvature="0" />
      <path
         sodipodi:nodetypes="ccccccccc"
         d="m 282.2290550000016,827.7783494999971 0,25.6201199999997 -12.8100499999946,0 0,-76.8603399999979 12.8100499999946,0 0,25.6201099999992 102.48045,0 0,25.6201099999988 z"
         style="font-size:147.5718383789px;font-style:normal;font-variant:normal;font-weight:bold;font-stretch:normal;line-height:125%;letter-spacing:0px;word-spacing:0px;fill:#000000;fill-opacity:1;stroke:none;font-family:'8-bit Operator+';-inkscape-font-specification:'8-bit Operator+ Bold'"
         id="path5572"
         inkscape:connector-curvature="0" />
      <path
         sodipodi:nodetypes="ccccccccccccccccccccccccccc"
         d="m 295.0391050000017,943.0688494999965 -12.8100500000001,0 0,-89.6703799999997 12.8100500000001,0 0,-12.8100600000002 51.2402300000003,0 0,12.8100600000002 12.81005,0 0,89.6703799999997 -12.81005,0 0,12.81006 -51.2402300000003,0 z m 25.6201199999995,-51.2402199999999 0,-12.8100500000003 12.8100500000001,0 0,-25.6201099999996 -25.6201100000026,0 0,38.4301599999999 z m 12.8100500000001,51.2402199999999 0,-38.4301600000001 -12.8100500000001,0 0,12.8100499999999 -12.8100600000061,0 0,25.6201100000002 z"
         style="font-size:147.5718383789px;font-style:normal;font-variant:normal;font-weight:bold;font-stretch:normal;line-height:125%;letter-spacing:0px;word-spacing:0px;fill:#000000;fill-opacity:1;stroke:none;font-family:'8-bit Operator+';-inkscape-font-specification:'8-bit Operator+ Bold'"
         id="path5574"
         inkscape:connector-curvature="0" />
      <path
         sodipodi:nodetypes="ccccccccccccccccccccccccccc"
         d="m 653.7206749999959,943.0688494999983 -12.8100599999981,0 0,-89.6703799999999 12.8100599999981,0 0,-12.8100600000006 51.2402199999997,0 0,12.8100600000006 12.8100499999999,0 0,89.6703799999999 -12.8100499999999,0 0,12.8100599999998 -51.2402199999997,0 z m 25.6201100000014,-51.2402199999999 0,-12.8100500000004 12.8100499999994,0 0,-25.6201099999995 -25.620110000001,0 0,38.4301599999999 z m 12.8100499999994,51.2402199999999 0,-38.4301600000001 -12.8100499999994,0 0,12.8100499999998 -12.8100600000033,0 0,25.6201100000003 z"
         style="font-size:147.5718383789px;font-style:normal;font-variant:normal;font-weight:bold;font-stretch:normal;line-height:125%;letter-spacing:0px;word-spacing:0px;fill:#000000;fill-opacity:1;stroke:none;font-family:'8-bit Operator+';-inkscape-font-specification:'8-bit Operator+ Bold'"
         id="path5576"
         inkscape:connector-curvature="0" />
      <path
         sodipodi:nodetypes="cccccccccccccccccccc"
         d="m 192.5586650000059,853.3984694999968 64.0502800000032,0 0,12.8100499999997 12.8100599999979,0 0,38.4301700000001 -12.8100599999979,0 0,12.8100499999997 12.8100599999979,0 0,51.2402200000004 -25.6201199999995,0 0,-51.2402200000004 -25.6201100000008,0 0,51.2402200000004 -25.6201099999999,0 z m 51.2402200000033,51.2402199999998 0,-38.4301699999996 -25.6201100000026,0 0,38.4301699999996 z"
         style="font-size:147.5718383789px;font-style:normal;font-variant:normal;font-weight:bold;font-stretch:normal;line-height:125%;letter-spacing:0px;word-spacing:0px;fill:#000000;fill-opacity:1;stroke:none;font-family:'8-bit Operator+';-inkscape-font-specification:'8-bit Operator+ Bold'"
         id="path5578"
         inkscape:connector-curvature="0" />
      <path
         sodipodi:nodetypes="cccccccccccccccccccc"
         d="m 730.5810049999936,853.3984694999983 64.0502799999986,0 0,12.81006 12.8100500000008,0 0,38.43016 -12.8100500000008,0 0,12.8100599999998 12.8100500000008,0 0,51.2402200000004 -25.6201099999988,0 0,-51.2402200000004 -25.6201100000027,0 0,51.2402200000004 -25.6201099999979,0 z m 51.2402200000006,51.2402200000005 0,-38.4301600000005 -25.6201100000027,0 0,38.4301600000005 z"
         style="font-size:147.5718383789px;font-style:normal;font-variant:normal;font-weight:bold;font-stretch:normal;line-height:125%;letter-spacing:0px;word-spacing:0px;fill:#000000;fill-opacity:1;stroke:none;font-family:'8-bit Operator+';-inkscape-font-specification:'8-bit Operator+ Bold'"
         id="path5580"
         inkscape:connector-curvature="0" />
      <path
         sodipodi:nodetypes="ccccccccccccccccc"
         d="m 672.9357399999995,750.9180294999987 0,25.6201099999996 -25.6201099999979,0 0,12.8100500000012 -12.8100500000008,0 0,12.8100599999989 38.4301599999987,0 0,25.6201099999997 -115.2904900000002,0 0,-25.6201099999997 51.2402200000006,0 0,-12.8100599999988 12.8100500000002,0 0,-12.8100500000013 -64.0502700000034,0 0,-25.6201099999987 z"
         style="font-size:147.5718383789px;font-style:normal;font-variant:normal;font-weight:bold;font-stretch:normal;line-height:125%;letter-spacing:0px;word-spacing:0px;fill:#000000;fill-opacity:1;stroke:none;font-family:'8-bit Operator+';-inkscape-font-specification:'8-bit Operator+ Bold'"
         id="path5582"
         inkscape:connector-curvature="0" />
      <path
         sodipodi:nodetypes="ccccccccccccccccc"
         d="m 557.6452499999976,750.9180295000004 0,25.6201099999995 -25.6201099999997,0 0,12.8100599999982 -12.810059999998,0 0,12.8100500000003 38.4301699999977,0 0,25.6201199999996 -115.2905000000001,0 0,-25.6201199999996 51.2402200000006,0 0,-12.8100500000003 12.8100599999998,0 0,-12.8100599999982 -64.0502799999986,0 0,-25.6201099999995 z"
         style="font-size:147.5718383789px;font-style:normal;font-variant:normal;font-weight:bold;font-stretch:normal;line-height:125%;letter-spacing:0px;word-spacing:0px;fill:#000000;fill-opacity:1;stroke:none;font-family:'8-bit Operator+';-inkscape-font-specification:'8-bit Operator+ Bold'"
         id="path5584"
         inkscape:connector-curvature="0" />
      <path
         sodipodi:nodetypes="ccccccccccccccccc"
         d="m 442.3547499999986,750.918039499999 0,25.6201099999992 -25.6201100000007,0 0,12.8100499999999 -12.810059999998,0 0,12.8100600000015 38.4301699999979,0 0,25.6201099999979 -115.2905000000011,0 0,-25.6201099999979 51.2402200000006,0 0,-12.8100600000015 12.8100599999989,0 0,-12.8100499999999 -64.0502799999986,0 0,-25.6201099999992 z"
         style="font-size:147.5718383789px;font-style:normal;font-variant:normal;font-weight:bold;font-stretch:normal;line-height:125%;letter-spacing:0px;word-spacing:0px;fill:#000000;fill-opacity:1;stroke:none;font-family:'8-bit Operator+';-inkscape-font-specification:'8-bit Operator+ Bold'"
         id="path5586"
         inkscape:connector-curvature="0" />
      <path
         sodipodi:nodetypes="ccccc"
         d="m 506.4050349999998,302.5661145000022 -12.8100599999989,0 0,-51.2402199999997 12.8100599999989,0 z"
         style="font-size:147.5718383789px;font-style:normal;font-variant:normal;font-weight:bold;font-stretch:normal;line-height:125%;letter-spacing:0px;word-spacing:0px;fill:#000000;fill-opacity:1;stroke:none;font-family:'8-bit Operator+';-inkscape-font-specification:'8-bit Operator+ Bold'"
         id="path5596"
         inkscape:connector-curvature="0" />
      <path
         sodipodi:nodetypes="ccccccccccccccccccccccc"
         d="m 141.3184450000142,917.4487394999996 0,-12.8100500000005 38.4301699999971,0 0,51.240219999999 -12.8100600000042,0 0,12.810049999998 -51.2402199999997,0 0,-12.810049999998 -12.8100599999981,0 0,-89.6703899999975 12.8100599999981,0 0,-12.8100500000038 51.2402199999997,0 0,12.8100500000038 12.8100600000033,0 0,25.6201099999979 -25.6201100000003,0 0,-25.6201099999979 -25.6201099999989,0 0,89.6703899999975 25.6201099999989,0 0,-38.4301700000018 z"
         style="font-size:147.5718383789px;font-style:normal;font-variant:normal;font-weight:bold;font-stretch:normal;line-height:125%;letter-spacing:0px;word-spacing:0px;fill:#000000;fill-opacity:1;stroke:none;font-family:'8-bit Operator+';-inkscape-font-specification:'8-bit Operator+ Bold'"
         id="path5610"
         inkscape:connector-curvature="0" />
      <path
         sodipodi:nodetypes="ccccccccccc"
         d="m 717.7709499999956,494.7169394999974 -76.8603350000012,0 0,-12.8100599999991 51.2402240000009,0 0,-38.4301599999999 -38.4301639999993,0 0,-12.8100600000008 38.4301639999993,0 0,-51.2402199999997 25.6201110000011,0 z"
         style="font-size:147.5718383789px;font-style:normal;font-variant:normal;font-weight:bold;font-stretch:normal;line-height:125%;letter-spacing:0px;word-spacing:0px;fill:#000000;fill-opacity:1;stroke:none;font-family:'8-bit Operator+';-inkscape-font-specification:'8-bit Operator+ Bold'"
         id="path5612"
         inkscape:connector-curvature="0" />
      <path
         sodipodi:nodetypes="cccccccccccccccccccccccccc"
         d="m 845.8714949999928,955.8789094999971 25.6201099999979,0 0,-38.4301599999987 -25.6201099999979,0 z m 38.4301699999959,-38.4301599999984 12.8100500000008,0 0,38.4301599999985 -12.8100500000008,0 0,12.81006 -51.240219999998,0 0,-12.81006 -12.8100600000031,0 0,-89.6703799999991 12.8100600000031,0 0,-12.8100600000007 51.240219999998,0 0,12.8100600000007 12.8100500000008,0 0,25.6201099999995 -25.6201100000003,0 0,-25.6201099999995 -25.6201099999978,0 0,38.43016 38.4301699999972,0 z"
         style="font-size:147.5718383789px;font-style:normal;font-variant:normal;font-weight:bold;font-stretch:normal;line-height:125%;letter-spacing:0px;word-spacing:0px;fill:#000000;fill-opacity:1;stroke:none;font-family:'8-bit Operator+';-inkscape-font-specification:'8-bit Operator+ Bold'"
         id="path5614"
         inkscape:connector-curvature="0" />
      <path
         sodipodi:nodetypes="ccccccccccccccccccccccccccccc"
         d="m 640.9106149999945,494.7169394999974 25.6201100000011,0 0,25.6201099999977 -25.6201100000011,0 0,25.6201099999993 38.4301600000016,0 0,-38.430169999997 12.8100599999998,0 0,-12.8100499999998 38.4301700000002,0 0,12.8100499999998 12.8100499999996,0 0,51.2402199999977 -12.8100499999996,0 0,12.8100599999991 -25.6201200000005,0 0,-25.6201100000005 25.6201200000005,0 0,-25.6201099999985 -38.4301700000002,0 0,38.4301599999983 -12.8100599999998,0 0,12.8100600000006 -38.4301600000001,0 0,-12.8100600000006 -12.8100599999998,0 0,-51.2402199999976 12.8100599999998,0 z"
         style="font-size:147.5718383789px;font-style:normal;font-variant:normal;font-weight:bold;font-stretch:normal;line-height:125%;letter-spacing:0px;word-spacing:0px;fill:#000000;fill-opacity:1;stroke:none;font-family:'8-bit Operator+';-inkscape-font-specification:'8-bit Operator+ Bold'"
         id="path5616"
         inkscape:connector-curvature="0" />
    </g>
  </g>
</svg>
