<?xml version="1.0" encoding="UTF-8" standalone="no"?>
<!-- Created with Inkscape (http://www.inkscape.org/) -->
<svg
   xmlns:svg="http://www.w3.org/2000/svg"
   xmlns="http://www.w3.org/2000/svg"
   version="1.0"
   width="634.03101"
   height="615.74744"
   id="svg40849">
  <defs
     id="defs40851" />
  <g
     transform="translate(-290.81528,-211.4946)"
     id="layer1">
    <path
       d="M 836.42853,823.89428 C 822.00097,814.26283 793.26958,803.86862 766.16393,798.47454 C 753.55512,795.96536 746.60372,795.49805 718.38401,795.26254 C 700.22061,795.11097 684.09488,794.57746 682.54906,794.07698 C 681.00324,793.5765 685.11372,796.19303 691.68346,799.89147 C 703.95724,806.80103 722.29985,819.27531 725.59404,822.95308 C 726.61448,824.09233 723.35443,822.38553 718.34949,819.16019 C 660.54559,781.90954 579.08933,770.99803 496.86979,789.49181 C 476.71495,794.02527 449.97643,802.23201 432.55096,809.23293 C 420.87878,813.92238 419.92377,814.10587 418.19142,811.99184 C 417.17072,810.74629 416.31552,809.38991 416.29093,808.97768 C 416.26635,808.56545 422.22564,805.63574 429.53379,802.46721 C 436.84196,799.29868 442.84958,796.38479 442.88407,795.9919 C 442.91857,795.59901 437.64453,791.37152 431.164,786.59749 C 406.54437,768.46087 385.93749,741.4823 374.96795,713.02548 C 361.70653,678.62312 361.70714,636.12891 374.96955,601.739 C 380.86603,586.44922 391.55501,568.38416 402.14014,555.81893 C 407.56983,549.37357 413.89891,541.83355 416.2048,539.06333 L 420.39729,534.02658 L 412.86641,526.3158 C 393.89718,506.89344 387.97521,482.57953 396.80551,460.37437 C 398.42858,456.29291 400.3093,452.30257 400.98487,451.50695 C 401.82687,450.51529 394.45686,446.90923 377.54956,440.04036 L 352.88597,430.02036 L 343.07718,430.91592 L 333.26841,431.81147 L 326.10568,439.77832 C 319.09565,447.57531 316.00785,449.21256 307.68744,449.54425 C 305.24148,449.64175 303.82288,449.03248 303.82288,447.88448 C 303.82288,445.73877 306.82884,444.49186 312.01825,444.48492 C 314.79137,444.48121 317.17591,442.87048 321.17458,438.29997 L 326.5813,432.12004 L 320.47194,431.44149 C 315.99625,430.94441 311.13852,428.67718 302.30586,422.96295 C 295.67466,418.67294 290.51021,414.43723 290.8293,413.55026 C 291.75279,410.98326 292.98117,411.48776 306.13417,419.83601 L 318.57845,427.73445 L 329.82078,426.8519 C 336.00407,426.36651 341.1996,425.8596 341.36641,425.72546 C 341.53322,425.59132 338.93,417.48634 335.58147,407.71441 C 330.4579,392.7624 329.82938,389.82773 331.61477,389.19293 C 332.78159,388.77804 333.8806,388.59889 334.05698,388.79478 C 334.23336,388.99068 337.16502,397.35414 340.57179,407.38026 L 346.76589,425.60957 L 352.34625,426.3217 C 355.41545,426.71337 361.63924,428.61768 366.17687,430.55351 C 370.71451,432.48933 374.72898,434.07318 375.09793,434.07318 C 375.79431,434.07318 374.49472,420.48173 373.19925,414.21625 C 372.59356,411.28692 372.96388,410.6355 375.23484,410.6355 C 377.69212,410.6355 378.12854,411.86881 379.0361,421.37777 C 379.6,427.28602 380.48895,433.19225 381.01152,434.50272 C 381.55548,435.86679 386.69614,438.79293 393.03631,441.34743 L 404.11094,445.80947 L 408.33703,440.9179 C 418.90086,428.69059 435.66615,416.78014 452.16532,409.78127 L 459.87637,406.51028 L 452.92006,399.45792 C 440.16504,386.52676 433.55498,369.05552 434.98049,352.04128 C 435.43051,346.67015 436.53156,340.34136 437.42728,337.97731 C 438.32301,335.61326 438.70668,333.3555 438.27989,332.96005 C 437.85311,332.56461 432.67938,331.46479 426.78271,330.51601 C 409.15804,327.68017 404.97703,323.0529 413.78698,316.13314 C 418.25096,312.62691 432.77799,305.89536 443.29811,302.45824 C 446.19652,301.51127 448.56795,300.21995 448.56795,299.58864 C 448.56795,298.95732 442.45235,285.22547 434.97771,269.07341 L 421.38747,239.70605 L 426.19464,236.0622 C 439.03504,226.32913 461.34123,216.66468 478.37116,213.45602 C 498.54753,209.65452 523.04375,211.45898 542.41201,218.17342 L 550.09012,220.83521 L 549.56822,250.95619 L 549.04633,281.07718 L 568.01777,281.86918 C 591.00402,282.82877 597.96939,284.88082 597.27395,290.48823 C 596.72426,294.92058 586.42635,301.71915 570.82835,307.94733 C 565.03152,310.26197 560.0381,312.32889 559.73187,312.54049 C 559.42563,312.75208 561.7575,315.52107 564.9138,318.69379 C 575.19502,329.02851 582.07069,345.37225 582.07069,359.47637 C 582.07069,363.26473 582.25839,366.36431 582.48781,366.36431 C 582.71722,366.36431 588.88294,365.15439 596.1894,363.67562 C 612.44215,360.38617 643.02177,356.40379 660.06439,355.3572 C 667.02059,354.93002 676.60413,354.2615 681.36117,353.8716 L 690.01032,353.16267 L 688.04496,349.67227 C 686.96401,347.75255 686.0757,342.66621 686.07091,338.3693 C 686.06267,330.9658 685.79765,330.36115 681.00948,326.82121 C 676.40348,323.41597 676.0378,322.66767 676.87342,318.35761 C 678.54616,309.72982 678.1434,305.98027 675.39143,304.56039 C 666.41679,299.92991 661.0557,291.09626 665.00136,287.44034 C 665.96281,286.5495 665.93944,284.83032 664.92937,282.14563 C 664.10673,279.95907 663.68423,272.80386 663.99048,266.24516 C 664.49639,255.41113 664.92077,253.89293 668.62967,249.6489 C 670.87496,247.07966 676.8225,242.70589 681.84642,239.9294 C 686.87033,237.15291 692.37651,233.76974 694.08236,232.41121 C 696.61759,230.39217 700.46645,229.77581 715.16174,229.03551 C 731.28799,228.2231 734.90321,228.47062 750.26342,231.43865 C 777.65916,236.73229 785.58063,241.12888 793.04925,255.18571 C 797.08952,262.78998 797.7319,265.36509 797.87361,274.52495 C 797.99453,282.34017 798.70014,286.02945 800.58327,288.69242 C 801.98367,290.67274 803.43857,295.27392 803.8164,298.91727 C 804.38114,304.36307 805.44239,306.4381 809.78179,310.58118 C 812.68493,313.35298 816.79528,319.31104 818.91588,323.82131 C 821.47924,329.27324 824.11823,332.73793 826.78945,334.15842 C 829.50029,335.59997 830.80736,337.33967 830.80736,339.50618 C 830.80736,342.1977 831.93004,343.06284 837.74509,344.85246 C 858.08772,351.11301 877.71484,369.66237 888.81552,393.11851 C 893.54706,403.11641 899.30877,422.98121 900.46597,433.28604 C 900.95691,437.65779 903.15069,446.2152 905.34107,452.30249 C 907.53144,458.38978 909.72346,467.47188 910.21222,472.48494 C 911.98519,490.66954 903.99714,513.11713 890.73836,527.20929 C 884.91821,533.39528 884.60523,534.15544 883.70419,544.29331 C 882.04903,562.91648 876.8402,578.00255 866.67059,593.62694 C 856.27961,609.59144 856.2462,635.59959 866.5777,665.90293 C 874.12921,688.05219 872.46768,705.67686 861.9055,715.4634 C 859.04922,718.10993 856.97873,721.06587 857.30441,722.03215 C 857.63007,722.99842 859.75331,728.59043 862.0227,734.45884 L 866.14888,745.12866 L 873.42205,747.31458 C 890.36219,752.40585 912.02889,765.81484 921.03957,776.78388 L 924.84631,781.41798 L 913.4034,775.04563 C 900.2755,767.73494 882.91182,762.20077 873.10215,762.20077 L 866.35681,762.20077 L 863.94044,770.47205 C 860.91039,780.84392 857.40285,786.24432 851.54826,789.55177 C 845.49391,792.97207 838.35365,792.82854 830.4647,789.12793 L 824.02452,786.10694 L 820.80246,792.48099 C 819.03033,795.98673 816.40459,799.43811 814.96752,800.15073 C 812.62675,801.31149 812.98621,801.83656 818.41908,805.19242 C 825.01844,809.2688 844.93663,827.34534 842.71465,827.2416 C 841.96247,827.20648 839.13372,825.70019 836.42853,823.89428 z M 813.92853,794.0436 C 817.08632,788.21892 817.4772,785.71511 817.9487,768.29206 C 818.23597,757.67731 818.03081,744.6401 817.49282,739.32048 L 816.51464,729.64843 L 802.2303,729.80062 C 794.37392,729.88433 783.93627,730.32379 779.03552,730.77719 L 770.12508,731.60157 L 773.63292,734.6427 L 777.14075,737.68382 L 774.33392,745.38498 C 772.79015,749.6206 771.17054,753.08612 770.73477,753.08612 C 770.29899,753.08612 767.86972,751.62126 765.33637,749.83088 C 758.03173,744.66851 756.32689,745.38998 756.32689,753.64361 L 756.32689,760.71157 L 748.37337,763.46883 C 743.99895,764.98533 739.66091,765.95625 738.73329,765.62643 C 737.80569,765.29661 736.31661,762.34011 735.42424,759.05644 C 733.51833,752.04317 731.79977,751.65849 723.21052,756.32247 C 716.72253,759.84547 709.95225,770.20198 709.95225,776.60367 L 709.95225,780.07849 L 727.16708,780.76615 C 747.6156,781.58298 768.34344,786.1925 792.16183,795.21985 C 800.66385,798.44218 808.25243,800.94745 809.02534,800.78712 C 809.79825,800.62679 812.00468,797.59221 813.92853,794.0436 z M 472.57118,786.40891 C 510.34807,774.91044 542.12628,770.61469 581.15722,771.73031 C 608.85925,772.52213 619.48533,773.94934 641.63146,779.85272 L 654.19829,783.20261 L 665.22351,773.04695 C 697.46843,743.34518 718.44398,699.93118 718.90524,661.93956 C 719.38401,622.50666 710.21049,593.92911 686.95727,562.41451 C 678.4953,550.94619 660.07826,532.43505 648.52766,523.78856 L 642.6121,519.36031 L 648.52766,508.4036 C 654.36274,497.59594 654.44322,497.25906 654.44322,483.64102 C 654.44322,470.73865 654.14862,469.28039 649.94145,461.35772 C 647.46548,456.69512 641.89027,449.24607 637.55209,444.80427 C 627.52828,434.54101 607.77883,422.24138 595.22724,418.44506 C 589.92342,416.84087 580.90081,413.74891 575.177,411.57402 L 564.77008,407.61969 L 558.3135,409.98573 C 537.73309,417.52749 529.09489,419.69533 519.5352,419.71755 C 507.49307,419.74554 501.64961,416.9784 499.19435,410.08522 C 497.315,404.80889 497.89771,404.91341 483.56652,407.28214 C 433.2805,415.59371 389.71226,461.44961 399.88628,495.35624 C 402.77036,504.9679 409.29668,514.59792 418.56753,522.92164 L 425.4346,529.08716 L 436.64995,525.16597 C 461.37651,516.52092 492.85645,509.25303 521.64313,505.54326 C 549.4582,501.95872 595.50978,504.32721 614.84245,510.33664 L 620.71622,512.16244 L 615.09505,511.56625 C 548.5631,504.50975 493.9965,511.04077 446.17044,531.78466 C 426.02871,540.52085 415.05003,547.55214 408.465,555.93306 C 392.65959,576.04896 380.92469,598.69912 374.4941,621.5021 C 370.15254,636.89736 368.70378,661.78175 371.21858,677.7639 C 376.1397,709.03876 393.58418,741.42217 419.05682,766.56941 C 430.19139,777.56174 448.94088,792.14893 451.93519,792.14893 C 452.91299,792.14893 462.19919,789.56592 472.57118,786.40891 z M 557.97845,709.44463 C 555.93493,708.416 553.63178,705.89679 552.86036,703.84637 C 549.67715,695.3856 555.46956,687.98144 565.27179,687.98144 C 569.51483,687.98144 571.33569,688.81522 574.35614,692.14121 C 583.71579,702.44767 570.92504,715.96141 557.97845,709.44463 z M 570.54729,704.64824 C 574.71219,700.78919 570.66722,691.88772 564.74871,691.88772 C 558.46438,691.88772 555.01738,698.12988 558.23016,703.69216 C 559.89771,706.57919 567.8012,707.19267 570.54729,704.64824 z M 548.80531,611.94715 C 545.67894,609.45545 544.89432,607.72977 544.89432,603.34535 C 544.89432,590.34185 563.44774,586.89461 568.85825,598.89283 C 574.13585,610.59633 559.26062,620.28 548.80531,611.94715 z M 562.08391,609.13094 C 565.98336,606.60023 566.1258,601.59232 562.3966,598.13698 C 559.01417,595.00294 557.00003,594.88087 552.87225,597.55976 C 548.68646,600.27629 548.68646,606.41441 552.87225,609.13094 C 554.59003,610.24577 556.66267,611.15791 557.47808,611.15791 C 558.29349,611.15791 560.36612,610.24577 562.08391,609.13094 z M 541.00123,545.32562 C 533.54416,541.576 531.99154,533.05004 537.65485,526.94955 C 540.34403,524.05277 542.20648,523.32577 546.93839,523.32577 C 560.46572,523.32577 564.63675,539.61546 552.58769,545.38871 C 547.56224,547.79662 545.8974,547.78756 541.00123,545.32562 z M 553.49753,538.74168 C 555.65786,535.68672 555.6918,534.98347 553.82737,531.90569 C 552.21412,529.24257 550.67277,528.47497 546.93839,528.47497 C 543.20401,528.47497 541.66266,529.24257 540.04941,531.90569 C 538.18498,534.98347 538.21892,535.68672 540.37924,538.74168 C 542.07656,541.14188 544.01251,542.14695 546.93839,542.14695 C 549.86426,542.14695 551.80022,541.14188 553.49753,538.74168 z M 532.11895,469.93994 C 529.7845,467.77692 528.66959,465.28616 528.66959,462.23387 C 528.66959,455.92664 529.81685,453.79511 534.39127,451.60328 C 540.51951,448.66697 545.26592,449.25042 549.85707,453.50443 C 555.09387,458.35665 555.25457,463.70343 550.3267,469.1298 C 545.53942,474.40136 537.32826,474.76671 532.11895,469.93994 z M 544.9714,468.2332 C 552.84848,463.35978 546.87605,451.71078 538.08766,454.80674 C 532.36071,456.82423 531.21713,462.47552 535.69605,466.62552 C 538.57746,469.29533 542.23105,469.92861 544.9714,468.2332 z M 697.46979,785.70604 L 705.36406,784.22336 L 705.1989,775.39778 C 705.05772,767.85407 705.58157,765.80484 708.80556,761.28901 C 713.89971,754.15361 722.80767,750.3363 738.23897,748.67594 L 750.5003,747.35666 L 752.62775,742.33839 C 754.49981,737.92257 754.50591,737.23146 752.6785,736.58172 C 751.5363,736.17559 749.65334,734.14395 748.49416,732.06694 C 746.60107,728.67496 746.62266,727.82953 748.70626,723.76112 C 749.98209,721.26993 751.58629,719.23168 752.27113,719.23168 C 754.90589,719.23168 753.21375,716.23425 744.72996,705.87335 C 739.89747,699.97164 733.44146,690.16836 730.38326,684.08829 L 724.8229,673.03364 L 723.19299,682.7862 C 717.49031,716.90816 700.05599,748.92477 673.32818,774.35858 L 661.16648,785.93148 L 666.66947,788.21433 C 671.55248,790.23997 673.15283,790.31079 680.874,788.84295 C 685.65983,787.93313 693.12794,786.52153 697.46979,785.70604 z M 854.24833,781.40414 C 858.96764,777.0314 859.26864,736.26365 854.69775,720.53521 L 853.1837,715.3254 L 844.89776,715.3254 C 836.76546,715.3254 836.47333,715.45356 829.1424,722.23716 L 821.67296,729.14892 L 823.29748,742.74514 C 824.19097,750.22306 824.98144,761.37936 825.0541,767.53692 L 825.18619,778.73248 L 830.45604,780.79501 C 833.35445,781.92941 836.67446,783.17494 837.83382,783.56287 C 841.50737,784.79206 852.09461,783.3997 854.24833,781.40414 z M 750.92344,753.73716 C 750.25271,750.13514 750.06862,750.05858 744.43347,751.03811 C 739.95319,751.81689 739.59215,752.17816 740.94808,754.52569 C 743.09786,758.2476 751.63763,757.57256 750.92344,753.73716 z M 771.7851,740.91374 C 771.7851,738.54803 770.49416,737.38616 766.08089,735.77989 L 760.37669,733.70376 L 760.81105,737.80988 C 761.13907,740.9107 762.10555,742.13582 764.75864,742.81393 C 770.75873,744.34749 771.7851,744.06993 771.7851,740.91374 z M 783.18695,725.57653 C 787.35023,724.76928 796.47578,724.03685 803.46597,723.94891 C 829.08898,723.62655 831.14796,715.52249 814.18505,681.7592 C 804.48544,662.45295 803.91824,661.09111 799.22598,645.84325 C 794.37889,630.09227 794.38093,617.04369 799.232,607.38791 C 803.00738,599.87322 805.15806,598.86052 802.53491,605.83266 C 801.54545,608.46262 801.20451,615.51038 801.62708,624.59864 C 802.18336,636.56259 803.05068,641.00687 806.50027,649.56968 C 811.66818,662.39789 831.8259,707.50444 833.47961,709.94087 C 834.42928,711.34003 837.16097,711.51483 846.32736,710.76301 C 860.34909,709.61295 863.77063,707.26146 865.31602,697.7128 C 866.6796,689.28762 863.89538,669.33064 858.75163,650.65976 L 854.50538,635.24665 L 856.09728,616.47883 C 857.58557,598.93274 857.96391,597.34103 861.90942,592.02754 C 871.14017,579.59638 876.39069,563.47504 875.52479,550.22265 L 875.07406,543.32427 L 870.15554,546.74476 C 851.86587,559.46394 826.23085,565.59098 791.45919,565.55399 C 774.33603,565.53577 749.23379,563.34791 739.10159,560.99062 C 735.54879,560.16405 735.00296,560.56117 732.53735,565.76657 C 725.13017,581.40464 721.74998,623.32429 725.88488,648.26758 C 729.55462,670.40476 738.35939,692.45534 750.02659,708.72772 C 752.8163,712.6186 755.94826,717.68575 756.98646,719.98807 C 758.02468,722.29039 760.04005,724.80207 761.46506,725.56959 C 764.8634,727.39993 773.76829,727.40278 783.18695,725.57653 z M 729.35492,561.75718 L 733.62769,550.76822 L 730.91766,545.84625 C 724.4763,534.14733 722.20321,514.84771 725.41723,499.14483 C 726.19386,495.35041 726.55262,491.98954 726.21446,491.67623 C 725.87631,491.3629 711.48683,492.39225 694.23784,493.96364 C 664.33946,496.68741 660.84714,497.44432 660.78855,501.21322 C 660.77672,501.97458 658.14135,506.63127 654.93217,511.56142 L 649.0973,520.52532 L 653.8782,523.82323 C 663.60247,530.53108 683.19586,549.16692 690.76434,558.90668 C 699.93601,570.70956 709.76992,587.59847 714.29579,599.31993 L 717.51774,607.66441 L 721.29996,590.20527 C 723.38018,580.60276 727.00491,567.80111 729.35492,561.75718 z M 818.86238,558.60331 C 836.80218,554.94944 859.21576,546.16691 867.34495,539.6059 C 870.54112,537.0263 870.28748,537.06113 864.53437,539.99186 C 856.63047,544.01823 839.00675,549.12323 825.18619,551.38971 C 813.32747,553.33446 770.78883,553.78667 751.75969,552.17025 C 740.05969,551.17641 739.46339,551.25086 739.46339,553.70556 C 739.46339,556.47235 744.661,557.90821 763.55724,560.36155 C 776.05088,561.98363 807.11431,560.99607 818.86238,558.60331 z M 825.88884,545.45289 C 862.53336,537.79525 885.18755,524.96769 894.62919,506.52981 C 904.9741,486.32794 906.96568,454.01462 898.13574,449.636 C 893.99057,447.58049 892.30999,448.61205 891.724,453.57162 C 891.06835,459.12087 890.36221,459.74756 886.9742,457.78711 C 883.10454,455.54792 882.80316,455.7271 882.80316,460.26692 C 882.80316,463.77049 882.39285,464.22565 879.80063,463.59754 C 877.78429,463.10898 876.02245,463.75756 874.43662,465.57215 C 872.47282,467.81926 871.57411,468.02583 869.0998,466.79886 C 865.03909,464.78523 864.53437,464.91454 864.53437,467.96848 C 864.53437,473.85163 856.7132,472.14247 852.35536,465.307 C 849.9798,461.58079 849.54454,461.43932 842.79617,462.1999 C 819.55821,464.81893 782.93426,473.01052 747.67789,483.4748 L 734.20289,487.47424 L 732.42002,493.37437 C 731.23994,497.2797 730.93768,502.89004 731.52602,509.96844 C 732.01487,515.85013 732.57792,524.89511 732.77722,530.06841 C 733.27337,542.94764 735.38526,544.82347 751.77255,546.9407 C 768.31632,549.07814 812.81537,548.18488 825.88884,545.45289 z M 695.8074,487.42414 C 711.60151,484.55306 724.755,481.98991 725.03739,481.72826 C 725.3198,481.4666 724.31704,477.81496 722.80906,473.61349 C 721.30107,469.41203 719.27025,460.40802 718.29612,453.60459 C 716.3897,440.2899 713.7947,434.73208 710.09571,436.04137 C 708.85745,436.47967 696.34546,442.38223 682.2913,449.15818 L 656.7383,461.4781 L 659.43486,467.12646 C 660.91798,470.23308 662.84989,477.25066 663.728,482.72112 C 664.60611,488.19156 665.72198,492.6622 666.20771,492.65584 C 666.69343,492.64948 680.0133,490.29521 695.8074,487.42414 z M 744.6874,477.62804 C 755.70866,473.54265 788.26327,465.81235 820.90631,459.52941 C 834.39704,456.93279 845.67439,454.58638 845.96712,454.31515 C 846.25984,454.04394 840.42847,446.7418 833.00853,438.08819 C 824.37871,428.02355 818.56896,422.35434 816.88463,422.35434 C 812.53036,422.35434 788.99948,428.39392 771.7851,433.92985 C 754.90649,439.35779 741.96641,441.85927 730.68031,441.87591 C 722.97479,441.88727 723.17855,441.2883 725.50402,457.09112 C 726.90884,466.63775 732.42994,480.94855 734.70819,480.94855 C 735.26998,480.94855 739.76063,479.45432 744.6874,477.62804 z M 861.72378,460.52249 L 861.72378,455.72156 L 865.68577,459.23863 C 870.40988,463.43224 871.56083,462.73941 871.56083,455.70204 C 871.56083,450.55097 871.61469,450.4922 873.74845,453.31486 C 876.90624,457.49216 878.58729,456.88143 878.58729,451.55694 L 878.58729,446.90511 L 882.29004,449.6038 C 884.32654,451.08808 886.62262,452.30249 887.39243,452.30249 C 888.83248,452.30249 888.12849,445.8837 886.18851,441.3258 C 885.16403,438.91881 885.26116,438.90506 888.48958,441.00028 C 895.88011,445.79667 895.7849,443.34288 888.13531,431.86971 C 861.51382,391.94178 821.51397,367.06764 767.27715,356.71335 C 749.99419,353.41389 749.2714,353.89821 760.77635,361.0694 C 781.6998,374.11128 808.00823,399.72268 836.43575,434.72423 C 843.99711,444.0342 851.27551,453.70224 852.60996,456.20877 C 855.36998,461.39295 858.78802,465.32343 860.5363,465.32343 C 861.18941,465.32343 861.72378,463.16301 861.72378,460.52249 z M 683.38344,443.65044 C 706.77978,433.10241 711.03084,430.75753 709.93992,429.00189 C 706.47846,423.43134 706.69459,423.48311 696.49633,425.78144 C 685.83348,428.18445 652.40509,428.99336 637.72657,427.20354 L 629.44167,426.19334 L 638.42922,435.03627 C 643.37236,439.89989 648.99663,446.65336 650.92758,450.044 C 652.85853,453.43462 654.68358,456.20877 654.98326,456.20877 C 655.28295,456.20877 668.06303,450.55753 683.38344,443.65044 z M 742.92407,434.08885 C 747.53264,433.38961 760.7225,429.54192 772.23486,425.53844 C 783.74724,421.53496 797.56477,417.22444 802.94051,415.95951 L 812.71458,413.65963 L 798.22232,400.87744 C 761.86988,368.8145 734.16296,350.6456 721.89724,350.82696 C 719.5785,350.86126 713.25469,352.04449 707.84432,353.45637 C 688.49873,358.50479 680.82678,359.57961 657.95645,360.44559 C 617.87372,361.96333 589.00902,366.5073 572.87398,373.83954 L 565.20718,377.32357 L 565.20718,385.32161 C 565.20718,398.23522 566.71544,400.63262 577.70371,405.18506 C 590.76128,410.59482 603.27247,414.27555 614.26851,415.94224 C 619.36057,416.71407 627.63728,418.59841 632.6612,420.12969 C 641.20676,422.73435 653.89781,423.5497 668.49614,422.43196 C 670.81487,422.25442 676.82383,422.52585 681.84939,423.03515 C 689.89055,423.85007 692.04397,423.54887 699.7988,420.5246 C 709.21584,416.85208 721.19459,414.70424 721.19459,416.68824 C 721.19459,417.34732 719.29745,418.92495 716.97871,420.19407 C 711.92676,422.95919 711.85694,423.62365 715.92475,430.22443 C 719.00315,435.21971 719.29077,435.35529 726.81576,435.35771 C 731.06677,435.35908 738.31551,434.78808 742.92407,434.08885 z M 890.61389,411.49851 C 887.55777,398.85243 887.61937,398.91008 879.52071,401.11592 C 871.27971,403.36054 871.34087,403.6198 883.14753,416.49168 C 893.2693,427.52665 894.31786,426.82542 890.61389,411.49851 z M 538.33609,411.14813 C 543.29303,409.41937 550.68682,406.23529 554.76674,404.07242 L 562.18475,400.13993 L 561.42303,392.69231 C 559.70457,375.89026 560.34466,376.80635 545.5331,369.95107 C 538.19045,366.55266 531.39235,363.76944 530.42621,363.76613 C 526.79104,363.75371 528.93139,367.17681 537.01543,374.30442 L 545.36127,381.66285 L 533.85352,383.08981 C 519.93357,384.81588 513.95106,386.35596 507.97926,389.75062 C 501.97784,393.16212 500.89657,397.66926 504.26054,405.2516 C 509.20997,416.40756 518.59774,418.03204 538.33609,411.14813 z M 490.21597,399.44653 C 496.80038,398.82592 497.50491,398.43916 498.23807,395.04263 C 499.70351,388.25347 512.40593,381.91242 528.50422,379.93372 L 535.67208,379.05269 L 531.5375,374.68948 C 526.67411,369.55715 524.46746,361.49494 527.43037,359.68366 C 530.7741,357.63958 538.74119,359.808 552.15448,366.41289 C 559.27434,369.91882 565.44731,372.26612 565.87218,371.62912 C 566.29707,370.99212 568.53459,370.08635 570.84447,369.61627 C 574.92007,368.78685 575.04423,368.53773 575.04423,361.18964 C 575.04423,345.46354 565.50966,327.13782 551.06839,315.10735 C 545.0946,310.13082 542.72714,309.07676 534.44211,307.70488 C 518.91729,305.13418 499.57543,306.63047 483.37095,311.65574 C 467.55308,316.56112 452.08537,324.86645 447.8037,330.75343 C 442.51304,338.02772 439.43356,349.21319 439.43356,361.15594 C 439.43356,374.81399 442.14092,380.56012 454.43201,392.98864 L 462.99228,401.64462 L 472.99493,400.88576 C 478.49641,400.46837 486.24587,399.82072 490.21597,399.44653 z M 472.61099,374.72191 C 460.75105,371.76669 451.6714,367.70434 454.18912,366.47972 C 455.34849,365.91581 468.88156,361.16736 484.26262,355.9276 L 512.22818,346.4008 L 517.6383,351.77481 C 523.87083,357.96574 524.67648,363.22351 520.39051,369.73593 C 518.20263,373.06034 516.33342,374.0209 509.6217,375.26983 C 498.76117,377.29077 481.91976,377.04144 472.61099,374.72191 z M 492.31302,371.3459 C 494.23851,368.53184 493.70472,363.48555 491.21155,360.93294 C 488.39232,358.0465 488.18011,358.03839 481.64779,360.56733 C 477.36354,362.22595 476.73874,362.91475 478.11987,364.45671 C 479.04296,365.48729 479.42294,367.71598 478.96425,369.40934 C 478.50555,371.1027 478.59303,372.9227 479.15864,373.45381 C 480.73702,374.93588 490.97965,373.29456 492.31302,371.3459 z M 512.47018,371.02048 C 516.23599,369.56258 517.45577,368.19864 518.17628,364.64004 C 519.44464,358.37564 518.69449,355.95857 514.61667,353.17025 C 511.41966,350.98422 510.46519,350.92558 504.01216,352.51885 C 500.11195,353.48182 495.54169,354.95362 493.856,355.78953 L 490.79113,357.30935 L 493.72435,360.02717 C 496.08994,362.21903 496.48842,363.72514 495.78347,367.80988 L 494.90937,372.87478 L 501.29493,372.87478 C 504.80699,372.87478 509.83584,372.04035 512.47018,371.02048 z M 476.39029,368.19021 C 477.11451,363.51663 473.70486,362.21368 467.06993,364.62857 C 463.85004,365.80049 461.21558,367.15307 461.21558,367.63427 C 461.21558,368.69753 470.9239,371.34463 473.86321,371.0828 C 475.02257,370.97953 476.15976,369.67787 476.39029,368.19021 z M 494.07698,341.04954 C 492.58009,337.43517 494.17853,334.46302 497.61926,334.46302 C 502.05213,334.46302 504.56323,338.07723 502.06681,340.86435 C 499.75973,343.44006 495.11163,343.5478 494.07698,341.04954 z M 528.68474,339.68831 C 527.69005,338.57778 527.32844,336.35665 527.83679,334.47993 C 528.53388,331.90648 529.61191,331.20779 532.88547,331.20779 C 536.15903,331.20779 537.23705,331.90648 537.93415,334.47993 C 538.95033,338.23142 536.55261,341.62453 532.88547,341.62453 C 531.52893,341.62453 529.6386,340.75323 528.68474,339.68831 z M 878.49939,396.33439 C 881.63937,395.55098 884.20846,394.32716 884.20846,393.6148 C 884.20846,391.04978 876.75118,378.59238 871.14554,371.79318 C 864.31112,363.5036 850.56078,354.09229 840.47576,350.80153 L 833.17757,348.42012 L 829.56083,352.40273 C 827.57162,354.59317 823.31252,357.93167 820.09616,359.82164 L 814.24823,363.25793 L 827.30351,370.00499 C 841.14378,377.15773 860.13596,389.71836 865.87221,395.51272 C 867.76738,397.4271 870.09927,398.71562 871.05416,398.3761 C 872.00905,398.03658 875.3594,397.11781 878.49939,396.33439 z M 812.85862,358.30907 C 824.04987,355.20231 829.83785,346.2359 824.78505,339.83326 C 823.11267,337.71409 822.46093,337.92456 816.00198,342.66945 C 812.16483,345.48833 805.54724,349.4256 801.29623,351.41896 L 793.56713,355.04325 L 799.18829,357.35198 C 806.12605,360.20145 806.05875,360.19675 812.85862,358.30907 z M 797.783,345.54389 C 804.7392,341.99294 811.84289,338.04708 813.56898,336.77532 L 816.70732,334.46302 L 813.12426,327.31096 C 811.15358,323.37732 807.93305,318.20533 805.96752,315.81764 L 802.39385,311.47639 L 795.18352,319.06342 C 784.05934,330.7688 774.68201,338.64524 765.56082,343.94485 L 757.22862,348.78605 L 766.26347,350.25469 C 782.08699,352.82688 784.1074,352.52491 797.783,345.54389 z M 709.32571,348.20095 C 713.23211,347.56928 723.84587,346.62921 732.91183,346.11191 L 749.3954,345.1714 L 766.2617,332.71648 L 783.12798,320.26158 L 779.21316,318.41847 C 773.17604,315.57618 767.81397,310.43502 762.33552,302.2362 C 759.58396,298.11833 756.52572,294.74916 755.53943,294.74916 C 751.07942,294.74916 749.30043,296.47156 749.30043,300.78972 C 749.30043,311.72186 742.37034,318.18685 730.65173,318.18685 C 725.66522,318.18685 723.43108,317.33029 718.76488,313.62952 C 710.77798,307.29507 709.73217,307.6542 710.23345,316.55923 C 710.63473,323.68796 710.84384,324.06635 714.60297,324.46575 C 717.41256,324.76427 718.42215,325.51521 718.10407,327.06994 C 717.78598,328.62473 715.93856,329.37009 711.69674,329.65504 L 705.73638,330.05543 L 705.73638,324.46992 L 705.73638,318.88442 L 702.184,323.7283 C 700.23019,326.39245 697.0516,328.93963 695.12048,329.38872 C 687.98798,331.04741 686.65423,340.28373 692.60154,346.83267 C 695.37043,349.88166 697.08863,350.73401 699.27667,350.14399 C 700.89723,349.70701 705.4193,348.83264 709.32571,348.20095 z M 710.37276,344.09067 C 703.55927,342.26494 703.32303,340.32244 709.91445,340.32244 C 716.62041,340.32244 724.0202,337.70778 730.72534,332.9691 L 735.48884,329.6026 L 733.39376,333.33491 C 730.68592,338.15882 725.73221,342.39352 720.75178,344.14199 C 716.26542,345.717 716.44542,345.71789 710.37276,344.09067 z M 447.76733,323.45918 C 459.01537,316.6753 477.95442,308.55425 489.32142,305.6408 C 495.93332,303.94612 503.50081,303.29587 516.72461,303.28615 C 533.05718,303.27413 536.15792,303.65124 545.98081,306.84427 L 556.96822,310.41585 L 569.07396,305.15951 C 590.51358,295.85036 595.93523,289.75907 585.23259,287.00507 C 566.68569,282.23258 495.58329,289.61338 458.85941,300.12326 C 448.03129,303.22212 421.01324,314.71691 417.36276,317.77794 C 414.1532,320.46926 414.12287,324.14442 417.30021,325.35803 C 419.38964,326.15611 430.36983,327.85036 437.22764,328.43287 C 438.33313,328.52677 443.07599,326.28861 447.76733,323.45918 z M 697.50308,320.80747 C 700.76349,317.78651 701.60256,315.96869 701.25954,312.66938 C 700.86859,308.90904 700.28191,308.3735 696.15121,308.00625 C 690.58815,307.51166 685.49735,310.29999 682.65057,315.40079 C 680.82799,318.66644 680.83392,319.4291 682.701,321.899 C 685.84856,326.06276 692.3486,325.58344 697.50308,320.80747 z M 793.80669,312.22383 C 796.93894,309.3216 797.31932,308.10509 796.6048,303.275 C 795.38976,295.06122 793.44451,292.10577 785.20773,285.95916 C 761.66537,268.39091 726.49872,264.37208 687.46758,274.78946 C 672.47658,278.79055 669.56609,280.54317 668.40714,286.26714 C 667.14667,292.49265 668.48819,296.56092 672.44923,298.52513 C 675.45778,300.01702 676.74096,299.5959 685.88261,294.11646 C 691.44151,290.78451 699.29039,286.70583 703.32455,285.05276 C 731.36087,273.5643 756.82866,280.15241 770.27898,302.37282 C 773.91072,308.37257 776.50522,310.97785 780.81867,312.95621 C 788.19361,316.33874 789.4416,316.26837 793.80669,312.22383 z M 737.78273,310.34576 C 742.11667,307.89746 742.39742,307.31247 741.9986,301.5615 C 741.5763,295.47202 741.51035,295.39552 736.33948,294.99819 C 733.28128,294.76319 728.46449,295.67948 724.74582,297.20364 C 717.41105,300.20988 716.41018,303.79176 721.29659,309.54764 C 724.8955,313.78692 731.15484,314.08994 737.78273,310.34576 z M 700.29937,303.77771 C 710.26436,303.09927 711.60513,302.65749 716.73671,298.36189 C 723.57693,292.63597 735.79358,289.65782 742.26042,292.13978 C 745.26974,293.29474 746.97033,293.30043 749.26367,292.16321 C 753.44573,290.0894 751.03421,287.67947 741.99245,284.89682 C 731.64367,281.71193 715.93208,282.81368 705.3935,287.46327 C 693.6914,292.6262 681.84642,301.90981 681.84642,305.91851 C 681.84642,309.11217 681.87014,309.11782 685.64788,306.82432 C 688.0538,305.36368 693.43249,304.24524 700.29937,303.77771 z M 497.6833,288.90272 C 522.69709,284.25488 543.43526,280.19975 543.76813,279.89134 C 544.10099,279.58291 543.62228,275.97839 542.70431,271.88128 L 541.03528,264.43198 L 520.44819,265.20458 C 497.22245,266.0762 477.58733,269.42736 461.31134,275.29757 C 445.53592,280.98723 446.21547,280.19135 449.23722,289.43864 C 450.65969,293.79173 451.90906,297.35335 452.0136,297.35335 C 452.11814,297.35335 472.66951,293.55057 497.6833,288.90272 z M 792.86448,275.17594 C 792.86448,265.49333 786.16524,253.08217 780.93881,253.08217 C 780.05953,253.08217 777.90954,251.28932 776.16107,249.09805 C 771.78759,243.617 765.03447,240.0719 758.95596,240.0661 C 756.15096,240.06342 750.28212,238.54523 745.91413,236.69235 C 739.33161,233.90008 736.5966,233.44003 729.93476,234.00454 C 725.51412,234.37913 715.80915,235.19467 708.36814,235.81685 C 693.16743,237.08785 691.02077,238.03873 679.18964,248.74163 C 671.82018,255.40832 671.45747,256.05266 670.87516,263.51195 C 670.16077,272.66297 669.25813,272.37282 686.83613,268.64273 C 705.27405,264.73018 739.27919,263.73906 754.84072,266.66067 C 767.33056,269.00559 781.42611,274.32386 787.24331,278.88621 C 789.17559,280.40167 791.23083,281.66108 791.81051,281.68491 C 792.39019,281.70874 792.86448,278.7797 792.86448,275.17594 z M 454.50386,274.06325 C 480.33654,264.5671 502.32946,260.58264 525.81644,261.14352 L 542.66113,261.54578 L 543.44714,256.3374 C 543.87943,253.4728 544.36753,244.7193 544.5318,236.88519 L 544.83045,222.64134 L 534.29076,219.34313 C 524.72993,216.35123 521.66285,216.04747 501.2664,216.07254 C 479.83939,216.09888 478.20743,216.28715 466.57275,220.07493 C 455.09517,223.81157 437.53103,232.21837 430.81355,237.19051 L 427.81473,239.41019 L 435.61084,258.61607 C 439.89869,269.1793 443.60314,277.82195 443.84293,277.82195 C 444.08272,277.82195 448.88014,276.13053 454.50386,274.06325 z"
       id="path41930"
       style="fill:#000000" />
  </g>
</svg>
