<?xml version="1.0" standalone="no"?>
<!DOCTYPE svg PUBLIC "-//W3C//DTD SVG 20010904//EN"
 "http://www.w3.org/TR/2001/REC-SVG-20010904/DTD/svg10.dtd">
<svg version="1.0" xmlns="http://www.w3.org/2000/svg"
 width="1036.000000pt" height="1036.000000pt" viewBox="0 0 1036.000000 1036.000000"
 preserveAspectRatio="xMidYMid meet">
<metadata>
Created by potrace 1.12, written by Peter Selinger 2001-2015
</metadata>
<g transform="translate(0.000000,1036.000000) scale(0.100000,-0.100000)"
fill="#000000" stroke="none">
<path d="M5405 9677 c-22 -6 -46 -19 -53 -29 -12 -16 -22 -18 -60 -13 -26 3
-72 8 -102 11 -31 3 -60 12 -66 20 -15 19 -24 18 -24 -2 0 -15 -2 -15 -25 0
-29 19 -71 21 -78 4 -4 -9 -8 -9 -14 -3 -15 18 -53 16 -53 -3 0 -13 -2 -14 -9
-4 -6 10 -24 12 -72 7 -35 -4 -86 -8 -114 -9 -27 -2 -61 -6 -75 -11 -14 -4
-37 -9 -52 -10 -16 -1 -34 -8 -41 -14 -8 -6 -40 -12 -73 -13 -41 -2 -58 -7
-56 -16 1 -7 -11 -15 -28 -18 -16 -4 -28 -9 -26 -13 3 -4 -13 -24 -35 -46 -21
-21 -39 -42 -39 -47 0 -4 -6 -8 -13 -8 -13 0 -47 -34 -47 -48 0 -13 -35 -39
-48 -34 -7 2 -12 -4 -12 -13 0 -12 -6 -15 -20 -10 -15 5 -20 2 -20 -11 0 -13
-6 -15 -31 -10 -21 4 -35 1 -46 -10 -8 -8 -18 -12 -21 -9 -4 3 0 10 8 15 20
13 -1 13 -34 0 -19 -7 -24 -6 -20 4 4 10 -6 12 -47 5 -28 -5 -54 -10 -56 -13
-2 -2 -18 0 -34 4 -22 7 -29 5 -29 -6 0 -18 -26 -18 -33 0 -5 12 -11 12 -44 1
-21 -8 -42 -10 -47 -5 -5 5 -17 4 -26 -3 -14 -8 -22 -8 -33 2 -9 7 -18 8 -21
3 -3 -6 -20 -7 -39 -2 -39 8 -97 2 -97 -11 0 -13 -47 -11 -55 1 -5 8 -11 8
-19 1 -7 -6 -62 -10 -129 -9 -82 1 -120 -2 -131 -11 -9 -8 -16 -10 -16 -6 0 4
-6 2 -14 -4 -10 -9 -15 -8 -20 4 -3 8 -12 15 -20 15 -9 0 -13 -6 -10 -14 3 -8
-8 -19 -28 -29 -35 -17 -88 -68 -88 -86 0 -6 -7 -8 -15 -5 -19 8 -37 -35 -22
-54 14 -17 1 -28 -17 -13 -10 8 -16 9 -21 1 -3 -5 -3 -10 2 -11 4 0 -1 -4 -12
-8 -23 -9 -47 -3 -39 10 3 5 -2 9 -10 9 -8 0 -17 -4 -20 -9 -8 -12 -89 -10
-98 3 -4 6 -11 6 -21 -2 -8 -7 -22 -10 -31 -6 -9 4 -16 1 -16 -6 0 -9 -4 -9
-13 -2 -8 7 -18 6 -31 -3 -13 -10 -25 -11 -42 -5 -16 7 -24 6 -24 -1 0 -6 -7
-8 -16 -5 -8 3 -24 1 -34 -4 -15 -8 -21 -6 -30 10 -6 11 -16 20 -23 19 -9 0
-8 -2 1 -6 10 -4 10 -8 1 -19 -9 -11 -15 -11 -25 -3 -7 6 -19 7 -26 3 -20 -13
-72 -13 -80 0 -6 8 -10 7 -17 -3 -5 -7 -15 -11 -22 -9 -8 3 -19 -2 -26 -11 -8
-11 -12 -12 -13 -3 0 6 -8 12 -18 12 -10 0 -24 -6 -31 -12 -11 -10 -14 -10
-18 0 -3 6 -13 12 -23 12 -10 0 -20 -6 -23 -12 -3 -10 -7 -10 -18 -2 -8 7 -23
8 -34 4 -11 -4 -26 -5 -34 -2 -9 3 -12 1 -7 -6 4 -7 1 -12 -8 -12 -8 0 -18 5
-21 10 -10 17 -25 11 -18 -7 5 -12 2 -15 -10 -10 -10 4 -29 2 -44 -4 -19 -7
-29 -7 -31 0 -5 15 -32 14 -32 -1 0 -10 -2 -10 -9 0 -10 16 -21 18 -30 4 -10
-15 -68 -42 -91 -42 -11 0 -20 -6 -20 -13 0 -6 -12 -13 -27 -14 -41 -2 -155
-32 -169 -44 -7 -6 -18 -8 -23 -4 -7 3 -8 0 -5 -9 6 -15 -4 -20 -32 -17 -6 1
-16 -10 -22 -24 -6 -14 -15 -25 -20 -25 -5 0 -7 -13 -4 -30 4 -30 -11 -42 -22
-17 -3 6 -4 -26 -3 -73 2 -73 5 -87 22 -98 19 -12 18 -13 -8 -9 -34 5 -34 -3
-2 -31 14 -12 25 -27 25 -33 0 -5 4 -8 10 -4 5 3 14 -13 20 -35 6 -23 17 -40
25 -40 20 0 47 -67 36 -88 -10 -19 -12 -80 -2 -64 10 17 35 -4 27 -23 -5 -13
-2 -16 11 -11 20 8 32 -9 25 -36 -6 -26 -47 -41 -73 -28 -12 7 -26 7 -36 2
-10 -5 -40 -9 -67 -9 -28 0 -51 -5 -56 -13 -5 -8 -17 -10 -33 -6 -14 3 -28 2
-32 -4 -3 -5 -12 -7 -19 -4 -8 3 -17 1 -21 -5 -3 -6 -17 -8 -31 -5 -21 5 -23
3 -17 -12 6 -17 5 -18 -11 -5 -14 12 -19 12 -26 2 -4 -8 -13 -11 -19 -7 -7 5
-9 1 -5 -8 4 -11 0 -16 -13 -16 -11 0 -28 -9 -38 -20 -10 -11 -24 -20 -32 -20
-8 0 -11 -5 -8 -11 4 -5 0 -18 -8 -27 -15 -17 -32 -96 -19 -88 8 4 12 -17 12
-61 0 -13 4 -23 9 -23 11 0 77 -65 97 -95 24 -36 79 -58 130 -51 24 3 46 1 49
-4 3 -5 28 -8 55 -6 32 3 50 0 54 -9 5 -14 47 -25 131 -32 35 -3 71 -13 87
-24 16 -12 29 -15 33 -9 7 11 76 5 135 -10 54 -15 200 -34 242 -32 15 1 30 -3
33 -8 3 -5 13 -6 22 -3 11 4 14 3 9 -5 -5 -9 0 -9 19 -2 14 5 24 7 21 2 -2 -4
30 -8 72 -8 107 -1 249 -11 261 -18 5 -4 12 -2 16 4 4 6 10 8 15 5 24 -15 271
-28 400 -22 30 1 64 -1 74 -7 18 -8 86 -12 338 -20 65 -2 102 -7 114 -17 13
-10 16 -10 10 -1 -6 10 6 13 58 10 36 -2 66 -5 66 -8 0 -3 75 -6 168 -7 92 -1
196 -5 232 -9 36 -3 97 -6 135 -6 52 0 77 -5 96 -19 14 -10 29 -16 33 -12 6 6
10 -11 7 -34 -1 -7 3 -13 10 -13 6 0 8 -7 5 -16 -3 -8 -2 -24 4 -33 5 -10 6
-21 3 -25 -10 -10 -5 -119 7 -151 7 -20 7 -31 -1 -41 -7 -8 -8 -25 -4 -41 12
-43 15 -113 5 -113 -9 0 -1 -73 9 -78 3 -1 6 -104 6 -228 0 -124 3 -228 8
-231 11 -7 8 -41 -4 -45 -8 -3 -6 -10 5 -20 23 -24 20 -57 -9 -80 -14 -11 -25
-27 -25 -36 0 -14 -2 -14 -9 -3 -7 11 -10 9 -15 -7 -9 -27 -24 -31 -76 -22
-45 8 -70 4 -70 -11 0 -5 -4 -9 -10 -9 -5 0 -10 6 -10 14 0 10 -35 13 -182 12
-101 -1 -188 -4 -195 -9 -6 -4 -14 -3 -17 1 -3 5 -105 9 -227 8 -121 -1 -223
2 -225 6 -5 7 -41 4 -65 -6 -8 -4 -27 -2 -41 3 -14 5 -28 8 -31 5 -9 -10 -71
-13 -87 -4 -10 5 -21 6 -25 2 -8 -8 -68 -11 -250 -12 -49 0 -112 -2 -140 -4
-29 -2 -53 1 -57 7 -5 8 -13 8 -30 0 -13 -6 -47 -9 -76 -7 -28 1 -54 0 -56 -4
-2 -4 -46 -6 -97 -5 -51 1 -102 -3 -112 -9 -14 -7 -22 -7 -27 2 -6 9 -11 7
-19 -6 -9 -13 -14 -15 -17 -6 -8 18 -24 15 -24 -5 -1 -17 -1 -17 -11 0 -11 19
-39 23 -39 6 0 -7 -12 -9 -34 -5 -23 4 -37 2 -45 -8 -7 -8 -19 -12 -27 -9 -8
3 -22 -1 -31 -8 -13 -11 -17 -11 -20 -1 -3 6 -9 12 -14 12 -4 0 -6 -6 -3 -14
4 -11 0 -13 -15 -9 -12 3 -21 1 -21 -6 0 -6 -7 -11 -16 -11 -28 0 -65 -48 -58
-76 4 -14 2 -24 -5 -24 -6 0 -11 -20 -12 -47 0 -43 -1 -45 -10 -23 -10 24 -11
24 -25 6 -8 -11 -14 -16 -14 -12 0 5 -7 3 -15 -4 -8 -7 -48 -15 -88 -18 -39
-3 -74 -8 -77 -12 -8 -11 -80 -20 -80 -9 0 5 -19 7 -42 5 -24 -3 -43 -5 -43
-6 0 -1 -34 -3 -75 -6 -85 -5 -153 -11 -160 -14 -3 -1 -8 -2 -12 -1 -13 2 -88
-41 -88 -50 0 -4 8 -6 18 -2 12 4 11 1 -6 -14 -21 -19 -21 -21 -5 -28 16 -6
16 -8 3 -18 -9 -7 -16 -23 -17 -36 -1 -13 1 -21 4 -17 3 3 11 -4 17 -16 15
-29 59 -54 126 -71 45 -12 56 -18 58 -38 2 -13 8 -29 13 -35 6 -7 4 -16 -6
-24 -13 -11 -13 -15 -3 -21 10 -7 9 -9 -4 -9 -10 0 -18 -4 -18 -8 0 -5 -16
-16 -35 -25 -19 -9 -35 -24 -35 -32 0 -9 -4 -14 -10 -10 -21 13 -57 -7 -70
-41 -12 -30 -26 -39 -52 -35 -4 0 -10 -15 -14 -34 -3 -19 -10 -38 -15 -41 -5
-3 -9 -14 -9 -25 0 -11 -7 -22 -15 -25 -11 -5 -12 -11 -4 -25 6 -13 6 -19 0
-19 -6 0 -9 -14 -7 -30 2 -17 -1 -33 -7 -37 -6 -4 -3 -11 8 -19 13 -10 15 -17
8 -26 -16 -19 -4 -78 16 -79 10 0 11 -2 4 -6 -7 -2 -13 -9 -13 -14 0 -6 4 -7
10 -4 6 4 10 -8 10 -28 0 -22 6 -37 15 -41 8 -3 15 -15 15 -26 0 -11 7 -20 15
-20 8 0 15 -9 15 -19 0 -11 9 -22 19 -26 11 -3 23 -15 26 -26 4 -12 12 -18 21
-15 8 3 14 -1 14 -8 0 -8 14 -13 35 -14 19 -1 48 -8 64 -17 23 -11 30 -12 34
-2 3 9 7 9 19 -1 9 -7 23 -10 32 -6 9 3 22 1 29 -5 7 -5 41 -11 75 -12 34 -1
62 -6 62 -10 0 -5 15 -7 32 -5 18 2 37 1 43 -2 5 -3 32 -7 59 -9 27 -2 65 -7
84 -13 23 -6 40 -6 47 0 7 6 14 7 18 4 7 -7 92 -16 177 -18 36 -1 71 -5 78
-10 7 -4 25 -5 39 -2 14 4 31 2 39 -5 10 -8 14 -8 14 0 0 6 7 11 15 11 8 0 12
-6 10 -12 -4 -10 27 -13 132 -15 201 -2 264 -8 386 -38 73 -18 77 -20 77 -46
0 -15 5 -29 10 -31 7 -2 6 -14 -3 -36 -7 -18 -17 -29 -21 -25 -4 4 -9 -3 -13
-16 -3 -12 -11 -20 -18 -17 -24 9 -53 -49 -35 -71 2 -2 3 -9 4 -15 0 -7 8 -13
16 -14 8 0 42 -8 74 -18 35 -10 73 -15 92 -12 18 4 51 2 75 -3 30 -7 47 -6 56
1 10 8 12 7 7 -6 -3 -9 -1 -16 5 -16 6 0 11 5 11 10 0 6 10 4 23 -4 15 -10 54
-15 122 -16 112 -1 157 -5 230 -18 28 -6 65 -7 82 -5 19 3 39 0 48 -7 8 -7 15
-9 15 -4 0 9 153 9 310 1 41 -2 83 0 93 5 9 5 23 6 30 1 16 -10 177 -11 177
-1 0 13 17 9 34 -7 13 -13 15 -13 19 3 3 15 5 14 13 -5 5 -12 14 -23 19 -24
29 -5 32 -13 30 -87 -2 -42 2 -83 7 -89 6 -8 6 -13 1 -13 -14 0 -14 -121 -1
-148 9 -17 9 -25 0 -34 -7 -7 -8 -17 -3 -27 5 -9 8 -46 7 -84 0 -37 3 -68 8
-70 5 -2 6 -9 1 -17 -13 -20 -16 -82 -4 -96 7 -8 7 -14 -1 -19 -5 -3 -10 -13
-10 -21 0 -8 4 -12 10 -9 6 4 7 -2 2 -17 -13 -36 -7 -239 8 -248 7 -4 8 -10 3
-13 -14 -9 4 -126 21 -139 13 -9 13 -78 -1 -123 -6 -22 -12 -35 -12 -28 -1 13
-51 -6 -51 -20 0 -5 -5 -5 -12 -1 -13 8 -208 12 -208 4 0 -3 -48 -6 -108 -6
-145 -2 -241 -8 -237 -14 2 -3 -13 -5 -33 -5 -21 -1 -80 -5 -132 -9 -52 -4
-117 -9 -145 -9 -27 -1 -55 -5 -62 -10 -6 -4 -14 -3 -17 2 -6 9 -104 -6 -121
-18 -5 -5 -36 -8 -68 -8 -32 0 -63 -5 -69 -11 -7 -7 -17 -8 -28 -2 -18 10 -92
6 -110 -5 -6 -4 -17 -2 -24 4 -10 8 -32 7 -82 -5 -38 -9 -94 -16 -125 -15 -31
1 -87 -5 -125 -13 -38 -8 -87 -14 -109 -13 -42 1 -220 -10 -315 -20 -30 -3
-85 -6 -121 -7 -36 -2 -72 -6 -79 -11 -7 -4 -59 -9 -115 -10 -56 -2 -111 -5
-121 -9 -11 -3 -50 -8 -89 -11 -101 -8 -109 -9 -116 -19 -6 -8 -38 -14 -94
-19 -10 -1 -27 -8 -36 -17 -17 -16 -85 -71 -98 -80 -19 -13 -101 -141 -96
-150 3 -6 -4 -10 -15 -10 -16 0 -20 -4 -16 -15 3 -9 -1 -18 -8 -21 -16 -6 -15
-80 3 -126 14 -36 61 -78 88 -78 13 0 23 -5 23 -11 0 -5 -4 -7 -10 -4 -5 3
-10 2 -10 -3 0 -5 15 -14 33 -20 l32 -12 -36 5 c-37 6 -49 -1 -110 -58 -28
-26 -24 -103 7 -124 13 -8 27 -12 31 -10 12 7 10 -107 -2 -115 -5 -4 -4 -17 5
-33 11 -20 11 -28 2 -34 -9 -5 -5 -14 12 -30 14 -13 22 -29 19 -37 -2 -7 7
-25 21 -39 14 -14 26 -30 26 -35 0 -13 32 -45 53 -53 9 -3 17 -13 17 -21 0
-10 6 -13 15 -10 8 4 15 2 15 -3 0 -13 83 -54 118 -58 15 -2 47 -8 72 -13 25
-5 52 -10 60 -11 8 0 44 -5 80 -11 36 -6 73 -9 83 -6 9 2 17 0 17 -6 0 -6 10
-8 24 -4 12 3 25 3 28 1 3 -3 43 -7 89 -10 128 -7 213 -16 224 -25 6 -4 27
-10 47 -14 21 -4 38 -11 38 -16 0 -6 -4 -10 -9 -10 -11 0 -8 -70 3 -88 4 -7
14 -12 22 -12 8 0 14 -6 14 -12 0 -8 15 -14 37 -15 20 -1 39 -7 43 -14 6 -8 9
-8 13 2 4 10 8 11 14 3 9 -13 3 -12 150 -18 62 -3 121 -10 131 -15 13 -7 22
-7 30 1 8 8 15 8 26 -1 11 -9 20 -9 34 -2 15 8 21 7 26 -4 7 -18 62 -20 69 -2
4 8 8 9 14 1 9 -11 210 -35 286 -34 26 1 47 -3 47 -8 0 -4 33 -7 73 -6 39 1
76 -1 82 -4 15 -9 39 -11 175 -17 69 -2 125 -5 125 -6 0 -2 118 -10 144 -9 12
0 28 -3 34 -7 17 -10 51 -11 58 -2 3 5 31 2 63 -6 32 -9 73 -15 90 -15 17 1
47 -2 66 -7 19 -4 92 -8 162 -8 71 0 128 -3 128 -7 0 -8 4 -8 120 -9 47 0 102
-5 122 -10 35 -9 98 -60 98 -80 0 -5 5 -9 11 -9 5 0 8 -4 4 -9 -8 -14 24 -91
56 -133 16 -20 29 -42 29 -47 0 -6 4 -11 10 -11 9 0 19 -8 96 -80 20 -19 42
-35 48 -36 6 0 13 -2 16 -3 3 -2 25 -4 48 -5 38 -2 49 3 85 36 23 21 45 38 49
38 5 0 8 7 8 15 0 8 5 15 10 15 6 0 10 6 10 13 0 8 9 24 20 37 11 13 20 31 20
42 0 10 9 27 20 38 11 11 20 24 20 28 0 5 9 17 20 27 11 10 17 22 14 26 -3 5
6 13 20 19 15 5 26 13 25 17 -3 19 2 27 10 14 5 -8 14 -10 22 -5 28 17 64 9
96 -24 30 -29 35 -39 32 -58 0 -3 11 -20 25 -39 14 -18 26 -39 26 -45 0 -7 7
-10 15 -6 8 3 15 1 15 -3 0 -14 123 -6 128 7 5 17 22 15 22 -3 0 -12 4 -11 20
5 11 11 20 31 20 45 0 14 3 25 8 25 4 0 16 16 26 34 11 20 31 39 47 45 16 5
29 7 29 4 0 -3 8 1 17 8 14 12 16 12 9 0 -6 -9 -5 -12 5 -9 8 3 22 1 32 -4 13
-7 17 -5 17 8 0 14 2 14 16 3 13 -10 17 -10 25 2 5 8 9 9 9 3 0 -16 172 -17
182 -1 5 8 8 6 8 -6 0 -17 16 -17 68 -1 6 2 12 -1 12 -6 0 -5 15 -4 35 1 19 6
39 8 43 5 6 -4 222 -19 257 -18 6 0 75 2 155 5 80 4 162 2 183 -2 24 -6 37 -5
37 1 0 6 12 8 29 5 18 -4 31 -2 33 5 3 7 9 8 18 3 8 -5 23 -10 35 -11 11 -2
41 -7 68 -12 29 -6 47 -6 47 0 0 5 5 6 11 3 5 -4 74 -9 152 -12 78 -2 149 -5
157 -5 8 -1 45 2 82 6 40 3 69 2 73 -4 3 -5 20 -9 38 -10 18 0 61 -1 97 -3 36
-2 71 1 78 6 8 7 12 4 12 -8 0 -13 3 -15 13 -6 9 7 24 8 46 1 28 -8 31 -7 20
6 -16 19 -5 29 13 11 9 -9 36 -14 81 -13 38 1 67 -3 67 -9 0 -5 5 -3 10 5 9
13 11 13 20 0 5 -8 10 -10 10 -5 0 6 46 11 115 12 154 2 168 4 182 15 7 5 16
7 21 4 5 -3 34 2 65 10 31 8 77 15 102 16 25 1 45 6 45 10 0 4 11 8 24 8 14 0
28 5 31 10 3 6 17 10 30 10 13 0 26 4 29 9 3 4 34 14 68 21 35 7 67 18 71 24
6 8 10 7 14 -2 4 -10 9 -8 20 7 8 12 20 21 27 21 23 0 65 26 96 59 17 17 35
31 41 31 5 0 7 4 4 10 -3 5 -1 10 4 10 6 0 11 7 11 15 0 8 5 15 11 15 6 0 8 8
4 19 -3 11 -2 22 4 25 5 3 7 14 4 24 -2 10 3 24 11 31 21 18 20 41 -1 41 -16
1 -16 2 -2 10 11 6 15 18 11 36 -3 16 1 30 9 36 11 7 11 11 2 15 -18 7 -16 33
1 33 11 0 14 12 13 48 -1 26 -6 52 -10 59 -4 6 -3 22 1 35 5 12 9 55 10 94 0
39 5 80 11 91 5 11 6 24 1 29 -10 11 -21 124 -11 124 9 0 7 83 -2 98 -5 8 -4
19 4 28 9 11 9 18 2 22 -6 4 -10 39 -10 77 0 86 -7 157 -17 173 -4 6 -2 20 4
31 8 15 7 22 -4 28 -8 4 -16 28 -19 52 -3 27 -11 47 -21 53 -9 5 -14 14 -10
19 3 5 1 15 -4 22 -5 7 -9 19 -9 27 1 43 -73 144 -88 121 -10 -17 -25 -13 -19
4 4 9 0 15 -9 15 -9 0 -17 14 -22 37 -4 21 -13 45 -20 53 -7 8 -16 26 -20 40
-11 36 -35 60 -61 60 -13 0 -26 5 -29 10 -3 6 -17 7 -31 4 -14 -4 -24 -2 -24
4 0 6 -17 11 -37 10 -21 0 -56 4 -78 10 -35 9 -117 15 -167 13 -10 0 -24 -1
-30 -1 -7 0 -35 4 -63 9 -28 5 -57 5 -66 0 -9 -5 -44 -6 -78 -3 -33 3 -66 2
-72 -2 -15 -9 -83 -15 -219 -17 -63 -1 -121 -6 -127 -10 -8 -5 -13 -4 -13 2 0
12 -99 11 -106 -1 -3 -5 -12 -4 -20 2 -9 8 -27 9 -56 4 -24 -5 -55 -7 -70 -6
-16 2 -28 -2 -28 -7 0 -6 -5 -11 -11 -11 -5 0 -8 4 -5 9 3 5 -27 8 -67 7 -39
-1 -80 2 -90 7 -21 10 -60 0 -52 -14 4 -5 1 -9 -4 -9 -6 0 -11 7 -11 16 0 13
-3 14 -14 4 -8 -6 -30 -10 -48 -9 -18 2 -39 0 -45 -4 -7 -5 -21 -4 -30 1 -10
4 -68 8 -130 8 -96 -1 -110 1 -100 13 10 12 9 13 -2 6 -8 -4 -27 -8 -42 -7
-19 0 -29 -4 -29 -14 0 -21 -18 -17 -25 5 -3 12 -12 18 -20 15 -8 -3 -19 3
-26 14 -11 18 -15 18 -55 6 -29 -9 -46 -10 -50 -3 -3 6 -17 8 -29 5 -13 -3
-26 -2 -29 2 -3 5 -20 9 -38 10 -18 0 -34 5 -36 11 -2 5 -14 6 -30 2 -15 -5
-61 -6 -102 -5 -41 2 -142 6 -225 8 -124 2 -158 7 -196 24 -53 23 -56 29 -57
97 -1 85 -1 267 0 333 0 35 -2 66 -6 69 -12 12 -6 33 10 33 8 0 12 5 9 10 -4
6 -10 8 -14 5 -5 -2 -7 23 -4 58 2 34 5 161 7 282 2 121 4 222 6 225 1 3 2 14
1 25 -3 37 114 75 161 53 10 -5 18 -3 21 5 3 6 6 7 6 2 1 -16 66 -9 95 10 15
10 25 20 22 22 -5 5 50 63 60 63 4 0 12 7 19 17 7 9 17 13 25 8 16 -10 131
-13 151 -3 9 4 31 3 48 -2 17 -5 44 -5 61 0 18 5 32 5 36 -1 3 -6 12 -8 19 -5
7 2 15 2 18 -1 3 -3 50 -7 104 -9 54 -3 118 -7 143 -9 25 -3 103 -7 173 -9 77
-2 133 -8 140 -15 6 -6 25 -11 41 -11 23 0 27 3 16 10 -8 5 -11 12 -8 16 4 4
19 -1 32 -10 27 -17 111 -23 101 -6 -3 6 3 10 14 10 12 0 21 -5 21 -11 0 -5 5
-7 10 -4 6 3 16 3 23 -2 6 -4 32 -9 57 -10 25 -2 74 -5 110 -8 204 -14 262
-16 274 -6 8 7 24 7 46 1 43 -12 52 -4 21 19 l-24 18 37 -2 c20 -1 39 -5 42
-8 3 -3 17 1 32 9 33 17 52 18 52 2 0 -9 3 -9 9 1 11 16 41 24 41 10 0 -13
130 -2 148 13 13 11 14 10 7 -12 -5 -19 -4 -22 5 -14 8 8 24 9 53 2 23 -5 57
-7 75 -3 20 4 32 2 32 -5 0 -6 5 -8 10 -5 6 3 10 2 10 -3 0 -5 20 -8 45 -6 45
3 101 -5 162 -24 28 -9 31 -8 27 6 -5 15 -4 15 9 -1 17 -21 27 -22 27 -2 0 18
12 19 27 4 7 -7 44 -12 83 -13 61 0 74 3 88 21 10 11 33 28 52 37 47 22 91 64
115 109 11 20 23 37 27 37 4 0 10 16 14 35 3 19 10 38 15 40 4 3 6 12 2 20 -3
9 0 21 6 29 6 7 9 21 5 30 -3 9 -2 16 3 16 5 0 8 14 5 30 -2 17 1 37 8 45 10
12 10 18 0 30 -11 13 -10 14 4 9 18 -7 22 11 6 21 -8 5 -8 11 0 20 11 13 3 45
-14 58 -7 4 -3 14 12 25 20 16 23 26 22 73 -2 30 1 62 5 73 5 11 3 21 -4 25
-8 5 -9 15 -3 32 6 14 6 34 1 47 -6 15 -4 37 5 62 8 25 10 43 4 46 -5 3 -7 12
-4 20 3 9 -4 19 -19 26 -13 6 -22 15 -19 19 8 14 -15 49 -32 49 -18 0 -37 18
-47 43 -6 15 -25 22 -49 18 -12 -2 -9 9 7 25 8 9 15 11 15 5 0 -6 5 -11 11
-11 6 0 9 6 6 13 -3 8 22 38 60 73 64 57 65 59 60 101 -2 24 -1 46 3 48 10 6
7 24 -8 53 -11 19 -10 23 2 28 12 5 13 10 5 26 -6 11 -9 34 -6 52 10 67 -71
246 -112 246 -6 0 -20 9 -31 20 -11 11 -20 18 -20 15 0 -2 -20 4 -44 15 -24
10 -59 21 -77 24 -17 2 -35 8 -38 13 -3 4 -19 15 -35 23 -37 19 -226 20 -249
2 -12 -10 -16 -10 -20 0 -4 8 -6 7 -6 -4 -1 -10 -7 -16 -13 -14 -7 1 -10 1 -5
-1 4 -3 7 -11 7 -18 0 -7 5 -15 12 -17 8 -3 4 -12 -10 -26 -13 -13 -17 -22 -9
-23 6 0 -1 -5 -17 -11 -23 -9 -30 -8 -38 6 -6 11 -19 15 -43 11 -19 -2 -35 0
-35 5 0 6 -7 10 -15 10 -8 0 -15 -4 -15 -9 0 -5 -9 -11 -19 -14 -13 -3 -18 -1
-15 8 4 9 -5 13 -31 12 -22 -1 -40 5 -46 13 -7 13 -9 13 -9 0 0 -9 5 -21 12
-28 9 -9 6 -12 -14 -12 -15 0 -28 6 -30 15 -3 13 -7 13 -29 1 -29 -15 -84 -12
-104 4 -9 8 -15 6 -20 -7 -6 -17 -7 -17 -21 1 -8 11 -14 15 -14 10 0 -14 -41
-15 -57 -2 -10 8 -13 5 -13 -11 0 -11 -4 -21 -10 -21 -5 0 -10 5 -10 11 0 7
-8 6 -22 -3 -22 -14 -58 -14 -58 0 0 4 -19 8 -43 9 -23 1 -52 5 -65 8 -13 3
-21 1 -20 -6 2 -6 -9 -13 -25 -14 -15 -2 -25 -1 -23 3 2 4 -7 12 -20 19 -19 9
-24 8 -24 -2 0 -22 -12 -24 -63 -12 -40 9 -50 8 -58 -4 -8 -12 -11 -11 -20 4
-7 12 -15 15 -27 8 -10 -5 -28 -9 -42 -10 -14 0 -32 0 -40 -1 -21 -1 -104 11
-108 15 -2 2 -18 -4 -36 -14 -24 -14 -35 -16 -50 -7 -14 8 -20 8 -23 -1 -6
-18 -23 -16 -23 2 0 8 -7 15 -16 15 -8 0 -13 -4 -10 -9 3 -4 -7 -7 -22 -5 -14
1 -33 -2 -40 -8 -10 -9 -15 -9 -21 0 -5 8 -22 10 -50 6 -31 -4 -41 -3 -37 5 4
6 0 11 -8 11 -9 0 -16 -4 -16 -10 0 -5 -7 -10 -15 -10 -8 0 -15 5 -15 11 0 5
-5 7 -12 3 -19 -12 -66 -15 -73 -4 -3 6 -14 10 -23 10 -15 0 -15 -2 -2 -10 21
-13 3 -13 -22 1 -15 8 -19 8 -14 0 4 -6 2 -11 -3 -11 -6 0 -11 5 -11 10 0 7
-6 7 -20 0 -11 -6 -20 -7 -20 -3 0 9 -57 8 -95 -1 -14 -4 -25 -3 -25 1 0 5
-18 9 -40 10 -31 1 -40 -3 -41 -15 0 -14 -1 -15 -7 -2 -5 10 -21 15 -45 15
-22 0 -41 3 -44 8 -2 4 -16 7 -30 7 -16 0 -27 7 -30 20 -3 11 -11 20 -17 20
-14 0 -39 28 -49 54 -5 11 -13 15 -25 12 -13 -4 -22 1 -32 18 -7 14 -18 22
-26 19 -8 -3 -14 0 -14 7 0 7 -8 9 -20 5 -13 -4 -20 -2 -18 5 2 9 -27 12 -102
13 -92 2 -106 4 -113 20 -4 11 -16 21 -28 24 -12 4 -18 11 -15 20 4 8 3 20 -1
26 -4 7 -8 53 -9 102 -2 109 0 100 -21 120 -12 12 -13 19 -5 24 9 5 6 14 -8
29 -11 11 -20 25 -20 29 0 5 -25 28 -56 52 -48 37 -55 47 -49 68 3 14 2 22 -3
19 -5 -3 -8 9 -6 27 6 72 6 346 0 403 -5 47 -3 64 8 73 8 7 12 23 10 40 -4 26
-2 28 21 24 15 -3 25 -1 25 6 0 6 11 11 25 11 14 0 25 -5 25 -11 0 -5 5 -7 11
-3 11 6 82 15 122 15 9 0 17 3 17 7 0 10 231 8 252 -2 9 -4 23 -4 30 0 7 5 44
7 81 6 62 -3 69 -1 74 18 4 14 11 19 23 15 11 -3 20 1 24 10 4 13 -2 14 -42
11 -26 -2 -53 1 -60 7 -7 6 -29 11 -49 11 -22 1 -38 7 -41 15 -3 8 0 11 7 7 7
-5 11 3 11 23 0 17 5 31 11 31 7 0 9 -10 7 -24 -4 -18 0 -26 16 -30 28 -7 33
1 10 18 -16 12 -16 15 -4 19 32 11 100 15 106 6 3 -5 -1 -9 -8 -9 -9 0 -9 -3
2 -10 11 -7 19 -5 27 7 10 12 16 13 26 5 8 -7 17 -9 20 -5 4 3 7 0 7 -7 0 -11
3 -11 12 -2 16 16 65 15 72 0 4 -8 8 -9 11 -3 6 11 121 11 174 -1 27 -6 32 -4
26 6 -6 9 -4 11 5 5 14 -9 56 -14 145 -18 33 -1 63 -6 67 -12 5 -6 15 -5 28 3
11 7 25 10 30 7 5 -3 11 -1 15 5 4 6 11 8 16 4 6 -3 38 -8 72 -10 34 -2 107
-8 162 -12 56 -5 108 -5 118 0 9 5 17 5 17 0 0 -4 30 -9 68 -10 247 -4 365
-12 380 -24 12 -10 16 -10 19 -1 3 8 10 10 21 4 9 -4 43 -7 74 -6 36 2 56 -1
55 -8 -1 -5 17 -11 40 -12 59 -4 103 -15 103 -26 0 -5 11 -7 25 -3 17 4 25 2
26 -7 0 -8 4 -5 9 6 6 15 9 16 9 4 1 -21 42 -41 77 -38 16 2 35 -1 43 -5 7 -5
16 -4 20 1 3 5 24 10 46 10 22 0 47 3 55 6 52 19 90 29 124 33 22 3 48 10 58
15 16 9 69 20 106 22 6 0 10 3 7 5 -9 10 50 33 71 28 15 -4 31 4 57 29 20 19
43 35 52 35 8 0 15 7 15 15 0 8 7 15 16 15 11 0 15 6 11 20 -3 11 -1 21 4 21
5 1 15 2 22 3 6 1 11 12 10 24 -2 13 4 39 12 59 8 19 15 41 15 49 0 7 5 25 12
41 6 15 11 31 10 36 -1 4 3 7 9 7 7 0 9 10 5 25 -5 18 -2 27 10 32 9 3 14 13
11 24 -3 11 -1 21 3 24 5 3 8 19 8 36 -1 17 4 34 11 38 6 4 9 14 6 23 -3 8 -1
27 5 42 5 15 6 25 1 21 -5 -3 -12 -1 -16 5 -3 5 1 10 9 10 19 0 21 11 4 28 -7
7 -8 12 -2 12 11 0 7 122 -5 130 -4 3 -7 22 -6 43 1 21 -2 40 -7 43 -5 3 -6
10 -2 15 3 6 -2 17 -12 24 -18 13 -18 14 -1 15 25 0 21 27 -5 34 -22 6 -22 7
-4 17 15 9 16 13 5 20 -11 6 -11 11 -1 21 16 16 16 29 0 23 -10 -4 -12 9 -10
50 3 42 -1 63 -17 91 -14 23 -19 44 -15 60 4 14 2 24 -5 24 -6 0 -11 5 -11 10
0 6 7 10 15 10 8 0 15 5 15 10 0 6 -4 10 -10 10 -5 0 -10 7 -10 15 0 8 -4 15
-10 15 -5 0 -7 7 -4 15 4 8 1 15 -5 15 -6 0 -11 8 -11 17 0 9 -10 27 -22 40
-12 13 -17 23 -11 23 6 0 10 8 8 18 -1 9 -8 16 -15 14 -8 -2 -11 4 -7 19 6 22
-11 69 -25 69 -4 0 -8 7 -8 15 0 8 -4 15 -10 15 -5 0 -10 9 -10 20 0 11 -7 20
-15 20 -8 0 -15 8 -15 18 0 9 -20 33 -45 52 -24 19 -44 38 -45 42 0 3 -9 4
-20 1 -11 -3 -20 0 -20 6 0 16 -32 51 -41 45 -5 -3 -14 4 -21 16 -7 11 -23 20
-35 20 -13 0 -23 5 -23 10 0 6 -10 10 -23 10 -13 0 -28 5 -35 12 -7 7 -12 8
-12 2 0 -5 -21 -10 -47 -10 -27 1 -59 -3 -72 -8 -16 -5 -21 -5 -17 2 5 8 -27
10 -101 7 -59 -2 -144 -5 -188 -6 -44 -1 -84 -4 -90 -7 -19 -11 -208 -4 -215
9 -6 8 -9 8 -12 -2 -3 -9 -23 -14 -61 -14 -51 -1 -70 6 -49 18 4 2 0 2 -8 -1
-33 -11 -95 -10 -109 1 -11 9 -15 9 -18 0 -5 -15 -53 -18 -53 -3 0 5 -15 9
-32 9 -37 -1 -89 16 -99 33 -4 6 -21 12 -38 13 -17 2 -28 -1 -25 -6 3 -5 -2
-9 -10 -9 -9 0 -16 5 -16 11 0 6 -7 9 -15 5 -8 -3 -21 1 -29 9 -14 14 -71 16
-92 3 -6 -4 -14 -4 -18 0 -10 9 -146 9 -146 0 0 -5 -5 -8 -11 -8 -6 0 -9 7 -5
15 4 12 0 14 -22 9 -15 -4 -34 -10 -43 -15 -9 -5 -19 -6 -22 -2 -18 18 -178
18 -189 0 -5 -8 -8 -6 -8 6 0 20 -11 22 -28 5 -7 -7 -12 -8 -12 -2 0 8 -118 9
-207 1 -18 -2 -34 2 -36 8 -3 6 -9 6 -19 -2 -15 -13 -57 -12 -90 2 -11 4 -18
3 -18 -4 0 -6 -7 -8 -15 -5 -8 4 -26 -1 -40 -10 -24 -16 -25 -16 -25 4 0 14
-4 19 -12 14 -20 -12 -52 -12 -60 0 -5 7 -11 8 -15 1 -8 -10 -113 -15 -113 -4
0 12 -83 1 -91 -12 -6 -9 -9 -10 -9 -2 0 6 -15 15 -32 18 -18 4 -35 10 -38 14
-3 3 -14 11 -25 17 -11 6 -21 21 -23 33 -2 13 -8 19 -15 14 -9 -5 -9 -3 0 8
18 22 9 71 -16 87 -11 8 -21 21 -21 28 0 16 -46 38 -72 35 -10 -1 -18 3 -18
10 0 7 -11 10 -30 7 -18 -3 -30 0 -30 7 0 12 -39 13 -58 1 -7 -4 -17 -4 -24 0
-7 5 -26 9 -43 9 -16 1 -37 5 -45 9 -24 10 -150 14 -156 4 -3 -5 -11 -5 -17 0
-7 5 -29 5 -52 -1z m-3765 -761 c0 -11 -19 -15 -25 -6 -3 5 1 10 9 10 9 0 16
-2 16 -4z m4695 -1426 c3 -5 1 -10 -5 -10 -6 0 -9 -4 -6 -9 8 -12 -21 -34 -34
-26 -15 9 -12 25 5 25 8 0 15 7 15 15 0 17 16 20 25 5z m60 -11 c-4 -5 -13 -9
-21 -9 -12 0 -12 2 -2 14 14 15 32 11 23 -5z m-25 -38 c0 -5 -11 -11 -25 -13
-24 -5 -32 2 -18 15 9 10 43 8 43 -2z m2810 -3071 c0 -5 -5 -10 -11 -10 -5 0
-7 5 -4 10 3 6 8 10 11 10 2 0 4 -4 4 -10z m-2372 -1442 c-2 -13 -7 -23 -13
-23 -5 0 -11 10 -13 23 -2 15 2 22 13 22 11 0 15 -7 13 -22z m-5508 -783 c0 5
3 6 6 2 4 -3 0 -13 -9 -21 -17 -17 -27 -11 -27 17 0 16 3 17 15 7 8 -7 15 -9
15 -5z m-50 -13 c0 -13 -12 -22 -22 -16 -10 6 -1 24 13 24 5 0 9 -4 9 -8z"/>
<path d="M6501 7444 c0 -11 3 -14 6 -6 3 7 2 16 -1 19 -3 4 -6 -2 -5 -13z"/>
<path d="M6587 7385 c-10 -14 -14 -25 -10 -26 22 -2 50 -7 63 -10 9 -3 14 2
11 11 -2 8 -4 20 -4 27 0 6 -6 9 -14 6 -7 -3 -13 0 -13 6 0 18 -14 12 -33 -14z"/>
<path d="M6681 7378 c-17 -27 -8 -32 23 -16 24 12 24 14 8 25 -15 9 -21 7 -31
-9z"/>
<path d="M2535 4350 c3 -5 8 -10 11 -10 2 0 4 5 4 10 0 6 -5 10 -11 10 -5 0
-7 -4 -4 -10z"/>
</g>
</svg>
