<?xml version="1.0" encoding="UTF-8" standalone="no"?>
<!-- Generator: Adobe Illustrator 13.0.0, SVG Export Plug-In . SVG Version: 6.00 Build 14948)  -->
<svg
   xmlns:dc="http://purl.org/dc/elements/1.1/"
   xmlns:cc="http://web.resource.org/cc/"
   xmlns:rdf="http://www.w3.org/1999/02/22-rdf-syntax-ns#"
   xmlns:svg="http://www.w3.org/2000/svg"
   xmlns="http://www.w3.org/2000/svg"
   xmlns:sodipodi="http://sodipodi.sourceforge.net/DTD/sodipodi-0.dtd"
   xmlns:inkscape="http://www.inkscape.org/namespaces/inkscape"
   version="1.1"
   id="Layer_1"
   x="0px"
   y="0px"
   width="673px"
   height="486.482px"
   viewBox="0 0 673 486.482"
   enable-background="new 0 0 673 486.482"
   xml:space="preserve"
   sodipodi:version="0.32"
   inkscape:version="0.45.1"
   sodipodi:docname="ink-fairy.svg"
   sodipodi:docbase="/Users/greg/Desktop/imgtoconvert"
   inkscape:output_extension="org.inkscape.output.svg.inkscape"><metadata
   id="metadata10770"><rdf:RDF><cc:Work
       rdf:about=""><dc:format>image/svg+xml</dc:format><dc:type
         rdf:resource="http://purl.org/dc/dcmitype/StillImage" /></cc:Work></rdf:RDF></metadata><defs
   id="defs10768" /><sodipodi:namedview
   inkscape:window-height="581"
   inkscape:window-width="697"
   inkscape:pageshadow="2"
   inkscape:pageopacity="0.0"
   guidetolerance="10.0"
   gridtolerance="10.0"
   objecttolerance="10.0"
   borderopacity="1.0"
   bordercolor="#666666"
   pagecolor="#ffffff"
   id="base"
   inkscape:zoom="0.77700717"
   inkscape:cx="336.5"
   inkscape:cy="243.241"
   inkscape:window-x="1460"
   inkscape:window-y="42"
   inkscape:current-layer="Layer_1" />
<path
   fill-rule="evenodd"
   clip-rule="evenodd"
   d="M78.837,4.807c2.745,5.126-2.709,18.342-6.729,23.074  C71.989,17.829,78.732,14.637,78.837,4.807z"
   id="path10397" />
<path
   fill-rule="evenodd"
   clip-rule="evenodd"
   d="M40.38,10.576c1.979,3.562,9.783,9.624,2.884,13.459  c0.542,6.347,13.633,14.613,4.807,18.267c-1.836-7.778-6.385-12.843-8.652-20.19c1.263-1.154,1.512-0.375,2.884,0  C42.349,17.58,40.614,14.829,40.38,10.576z"
   id="path10399" />
<path
   fill-rule="evenodd"
   clip-rule="evenodd"
   d="M49.994,11.537c0.961,0,1.923,0,2.884,0c0.281,9.132,7.007,20.584,3.846,26.921  c-1.804-4.942-9.687-8.881-8.653-13.46c2.974-0.089,2.866,2.903,2.884,5.768C57.845,27.458,50.521,16.69,49.994,11.537z"
   id="path10401" />
<path
   fill-rule="evenodd"
   clip-rule="evenodd"
   d="M66.339,11.537c0.961,0,1.923,0,2.884,0c-3.448,5.935,1.703,19.319-3.846,24.998  C61.316,31.338,68.033,20.729,66.339,11.537z"
   id="path10403" />
<path
   fill-rule="evenodd"
   clip-rule="evenodd"
   d="M88.452,11.537c-7.069,7.032-7.34,20.862-16.344,25.958  c2.267-10.551,9.869-15.769,12.499-25.958C85.887,11.537,87.169,11.537,88.452,11.537z"
   id="path10405" />
<path
   fill-rule="evenodd"
   clip-rule="evenodd"
   d="M28.843,20.19c1.724-0.122,2.028,1.177,3.846,0.961  c-1.46-3.027-4.282-4.69-4.807-8.652c8.705,5.623,8.623,16.122,14.422,23.073C34.995,33.266,33.187,25.46,28.843,20.19z"
   id="path10407" />
<path
   fill-rule="evenodd"
   clip-rule="evenodd"
   d="M24.036,18.267c-3.404,0.521-2.364-3.404-5.768-2.884  C18.958,11.887,23.852,15.479,24.036,18.267z"
   id="path10409" />
<path
   fill-rule="evenodd"
   clip-rule="evenodd"
   d="M111.526,13.459c-1.766,4.003-6.754,4.785-8.653,8.654  C101.656,18.941,107.357,14.442,111.526,13.459z"
   id="path10411" />
<path
   fill-rule="evenodd"
   clip-rule="evenodd"
   d="M59.608,14.422c3.441,2.893,3.403,12.471,2.885,16.343  c-4.083-0.404,0.641-9.614-5.769-7.691C59.077,18.847,59.12,19.433,59.608,14.422z"
   id="path10413" />
<path
   fill-rule="evenodd"
   clip-rule="evenodd"
   d="M100.95,17.306c2.009,3.262-5.972,7.01-9.614,11.537  c-3.542,4.402-5.048,13.401-10.576,11.538C85.404,30.603,93.701,24.478,100.95,17.306z"
   id="path10415" />
<path
   fill-rule="evenodd"
   clip-rule="evenodd"
   d="M93.259,21.151c-3.744,3.947-6.955,8.429-11.538,11.537  C84.52,27.795,85.094,20.678,93.259,21.151z"
   id="path10417" />
<path
   fill-rule="evenodd"
   clip-rule="evenodd"
   fill="#FFFFFF"
   d="M536.477,21.151c2.903-1.483,2.529,4.975,0.963,4.807  C533.973,26.878,535.733,21.809,536.477,21.151z"
   id="path10419" />
<path
   fill-rule="evenodd"
   clip-rule="evenodd"
   fill="#FFFFFF"
   d="M523.018,23.074c4.456-0.61,2.436,5.257,2.885,8.652  c-1.283,0-2.566,0-3.846,0C520.467,29.855,522.257,25.536,523.018,23.074z"
   id="path10421" />
<path
   fill-rule="evenodd"
   clip-rule="evenodd"
   fill="#FFFFFF"
   d="M529.748,24.036c4.745-0.59,6.357,11.875-0.962,9.614  C527.476,30.731,528.643,27.13,529.748,24.036z"
   id="path10423" />
<path
   fill-rule="evenodd"
   clip-rule="evenodd"
   d="M9.614,25.958c4.101,1.668,7.231,4.305,7.692,9.614  C14.828,32.282,11.097,30.245,9.614,25.958z"
   id="path10425" />
<path
   fill-rule="evenodd"
   clip-rule="evenodd"
   d="M132.678,27.881c-10.437,0.781-16.607,5.827-25.959,7.691  C112.566,31.404,125.637,24.478,132.678,27.881z"
   id="path10427" />
<path
   fill-rule="evenodd"
   clip-rule="evenodd"
   d="M133.639,28.842c4.652,3.058-5.807,5.044-9.615,5.77  C126.328,31.787,131.616,31.948,133.639,28.842z"
   id="path10429" />
<path
   fill-rule="evenodd"
   clip-rule="evenodd"
   d="M22.113,30.765c4.061,2.028,7.415,4.764,9.614,8.654  C27.344,37.712,23.681,35.287,22.113,30.765z"
   id="path10431" />
<path
   fill-rule="evenodd"
   clip-rule="evenodd"
   fill="#FFFFFF"
   d="M539.36,30.765c4.601-1.396,2.39,4.021,2.887,6.73  C538.969,37.568,539.399,33.933,539.36,30.765z"
   id="path10433" />
<path
   fill-rule="evenodd"
   clip-rule="evenodd"
   fill="#FFFFFF"
   d="M513.403,31.727c2.101,0.142,2.063,2.423,1.921,4.808  C512.467,36.738,511.937,33.105,513.403,31.727z"
   id="path10435" />
<path
   fill-rule="evenodd"
   clip-rule="evenodd"
   d="M6.729,33.649c6.171,2.803,12.197,5.751,18.268,8.653  C19.145,43.014,10.001,38.721,6.729,33.649z"
   id="path10437" />
<path
   fill-rule="evenodd"
   clip-rule="evenodd"
   fill="#FFFFFF"
   d="M522.057,33.649c12.079-0.65,11.611,26.154,1.921,27.881  C513.015,59.014,515.516,39.278,522.057,33.649z"
   id="path10439" />
<path
   fill-rule="evenodd"
   clip-rule="evenodd"
   d="M120.179,34.612c-4.841,4.243-14.63,8.293-20.19,8.652  C104.912,38.573,112.947,36.994,120.179,34.612z"
   id="path10441" />
<path
   fill-rule="evenodd"
   clip-rule="evenodd"
   d="M18.268,36.535c4.777-1.232,11.214,4.152,14.421,7.691  C26.6,42.943,23.151,39.021,18.268,36.535z"
   id="path10443" />
<path
   fill-rule="evenodd"
   clip-rule="evenodd"
   d="M88.452,54.801c10.117-9.045,25.175-9.303,37.495-14.421  c2.857-1.187,4.999-4.092,8.654-3.845c-5.458,5.425-15.134,7.707-23.075,10.575C103.418,50.039,95.698,54.631,88.452,54.801z"
   id="path10445" />
<path
   fill-rule="evenodd"
   clip-rule="evenodd"
   fill="#FFFFFF"
   d="M363.419,36.535c6.416,2.239,7.664,9.642,7.691,18.266  C365.359,51.901,363.869,44.738,363.419,36.535z"
   id="path10447" />
<path
   fill-rule="evenodd"
   clip-rule="evenodd"
   fill="#FFFFFF"
   d="M507.633,37.495c3.325-0.761,4.062,1.069,5.771,1.924  c-1.293,2.231-1.592,5.458-2.885,7.691C506.962,46.5,507.586,41.711,507.633,37.495z"
   id="path10449" />
<path
   fill-rule="evenodd"
   clip-rule="evenodd"
   fill="#FFFFFF"
   d="M535.515,40.38c1.393,1.901,4.307,10.684-0.961,10.576  C534.146,47.381,532.856,43.973,535.515,40.38z"
   id="path10451" />
<path
   fill-rule="evenodd"
   clip-rule="evenodd"
   d="M147.099,42.303c-4.27,4.062-13.284,3.381-20.19,4.807  C133.008,43.817,140.754,43.021,147.099,42.303z"
   id="path10453" />
<path
   fill-rule="evenodd"
   clip-rule="evenodd"
   fill="#FFFFFF"
   d="M541.285,43.264c2.928,0.005,3.979,5.64,0,4.807  C541.285,46.469,541.285,44.866,541.285,43.264z"
   id="path10455" />
<path
   fill-rule="evenodd"
   clip-rule="evenodd"
   d="M19.229,44.226c7.554,2.701,16.088,4.423,23.075,7.691  C37.785,57.055,23.873,48.393,19.229,44.226z"
   id="path10457" />
<path
   fill-rule="evenodd"
   clip-rule="evenodd"
   d="M67.3,44.226c6.151,0.579,2.925,10.534,6.729,13.459  c4.076-0.229,6.808,0.884,9.614,1.923c-0.913,7.579-7.024,4.788-10.575,8.653c0.294,4.781-0.152,8.821-0.961,12.498  c-6.339-0.071-5.79-7.029-10.576-8.652c-4.648-0.481-5.334,2.999-9.615,2.884c-2.506-5.132,3.882-6.932,4.807-11.537  c-2.313-3.135-5.967-4.929-5.769-10.577c5.546,0.407,5.201,0.727,10.576,0.961C63.526,50.707,66.028,48.081,67.3,44.226z   M54.801,56.724c1.327,2.52,4.382,3.31,4.807,6.731c-0.655,3.51-3.644,4.688-4.807,7.691c4.85,0.684,5.376-2.957,10.576-1.923  c0.587,3.579,1.821,6.511,4.807,7.691c0-3.525,0-7.051,0-10.575c2.958-1.849,7.794-1.819,9.614-4.808  c-2.356-1.81-6.89-1.442-9.614-2.883c0.405-4.251-0.953-6.739-2.884-8.653C66.672,57.002,59.879,56.371,54.801,56.724z"
   id="path10459" />
<path
   fill-rule="evenodd"
   clip-rule="evenodd"
   d="M124.024,44.226c-1.044,4.083-8.545,1.709-10.575,4.807  C111.597,45.86,120.886,45.603,124.024,44.226z"
   id="path10461" />
<path
   fill-rule="evenodd"
   clip-rule="evenodd"
   fill="#FFFFFF"
   d="M503.788,44.226c2.396-0.381,2.846,6.005,0.962,6.73  C501.155,51.739,502.97,45.029,503.788,44.226z"
   id="path10463" />
<path
   fill-rule="evenodd"
   clip-rule="evenodd"
   fill="#FFFFFF"
   d="M496.097,47.11c3.216,1.815,0.608,3.882,0.962,7.691  C494.133,54.725,494.806,48.515,496.097,47.11z"
   id="path10465" />
<path
   fill-rule="evenodd"
   clip-rule="evenodd"
   d="M17.306,48.071c4.918-0.111,6.773,2.84,10.575,3.846  C25.606,53.187,18.328,51.248,17.306,48.071z"
   id="path10467" />
<path
   fill-rule="evenodd"
   clip-rule="evenodd"
   d="M149.021,49.994c-10.159,0.096-17.647,2.863-27.881,2.884  C128.206,50.875,142.941,46.606,149.021,49.994z"
   id="path10469" />
<path
   fill-rule="evenodd"
   clip-rule="evenodd"
   fill="#FFFFFF"
   d="M378.803,48.071c2.436,1.089,2.79,4.261,2.886,7.691  C378.676,55.316,376.894,50.46,378.803,48.071z"
   id="path10471" />
<path
   fill-rule="evenodd"
   clip-rule="evenodd"
   fill="#FFFFFF"
   d="M514.364,60.57c-2.654,1.189-4.885,2.807-8.652,2.884  c3.689-3.271-0.739-10.99,3.846-14.422C515.418,49.726,514.969,55.71,514.364,60.57z"
   id="path10473" />
<path
   fill-rule="evenodd"
   clip-rule="evenodd"
   fill="#FFFFFF"
   d="M67.3,49.994c1.932,1.914,3.289,4.402,2.884,8.653  c2.724,1.441,7.258,1.074,9.614,2.883c-1.819,2.989-6.655,2.959-9.614,4.808c0,3.524,0,7.05,0,10.575  c-2.986-1.181-4.22-4.113-4.807-7.691c-5.2-1.034-5.726,2.606-10.576,1.923c1.163-3.003,4.151-4.181,4.807-7.691  c-0.424-3.421-3.479-4.211-4.807-6.731C59.879,56.371,66.672,57.002,67.3,49.994z"
   id="path10475" />
<path
   fill-rule="evenodd"
   clip-rule="evenodd"
   fill="#FFFFFF"
   d="M499.942,49.994c2.446,0.098,2.272,3.583,0.962,4.807  C497.891,54.137,499.65,52.236,499.942,49.994z"
   id="path10477" />
<path
   fill-rule="evenodd"
   clip-rule="evenodd"
   d="M12.499,50.956c7.017,3.878,18.956,2.835,24.997,7.692  c-10.217-0.687-19.095-4.512-26.921-4.808C11.2,52.861,12.787,52.846,12.499,50.956z"
   id="path10479" />
<path
   fill-rule="evenodd"
   clip-rule="evenodd"
   d="M151.905,51.917c0.017,3.862-5.018,2.673-8.652,2.884  C145.537,53.239,149.077,52.934,151.905,51.917z"
   id="path10481" />
<path
   fill-rule="evenodd"
   clip-rule="evenodd"
   fill="#FFFFFF"
   d="M373.997,51.917c3.575-1.013,1.884,3.243,3.846,3.845  C375.68,59.083,374.042,53.885,373.997,51.917z"
   id="path10483" />
<path
   fill-rule="evenodd"
   clip-rule="evenodd"
   fill="#FFFFFF"
   d="M491.289,51.917c3.329-0.164,3.096,10.94-0.961,9.614  C488.085,58.808,490.189,54.273,491.289,51.917z"
   id="path10485" />
<path
   fill-rule="evenodd"
   clip-rule="evenodd"
   fill="#FFFFFF"
   d="M533.594,53.839c0.96,0,1.921,0,2.883,0  c1.876,2.357,0.963,8.081-0.962,9.615C530.308,63.585,533.496,56.805,533.594,53.839z"
   id="path10487" />
<path
   fill-rule="evenodd"
   clip-rule="evenodd"
   d="M124.985,55.762c-0.704,0.898-1.748,1.458-2.884,1.923  c6.404,2.249,16.467,0.839,23.074,2.885c-17.526,0.683-39.222-1.363-53.84,1.923C99.229,54.913,113.696,59.839,124.985,55.762z"
   id="path10489" />
<path
   fill-rule="evenodd"
   clip-rule="evenodd"
   fill="#FFFFFF"
   d="M540.322,55.762c0.963,0,1.925,0,2.886,0  c-1.031,4.476,0.279,5.351-1.923,8.654C537.463,63.449,540.361,58.621,540.322,55.762z"
   id="path10491" />
<path
   fill-rule="evenodd"
   clip-rule="evenodd"
   d="M20.19,57.685c0.641,0,1.282,0,1.923,0c4.055-0.162-0.017,1.477,0,2.885  c5.356-0.093,14.971-0.78,21.152,0.96c-6.2,6.82-21.377-0.577-30.766,0C13.061,56.141,21.64,64.071,20.19,57.685z"
   id="path10493" />
<path
   fill-rule="evenodd"
   clip-rule="evenodd"
   fill="#FFFFFF"
   d="M373.035,58.647c5.602,3.05,9.242,8.063,11.536,14.421  c-0.698,2.826-2.996,4.053-6.729,3.846C375.947,71.59,369.129,63.685,373.035,58.647z"
   id="path10495" />
<path
   fill-rule="evenodd"
   clip-rule="evenodd"
   fill="#FFFFFF"
   d="M379.764,59.608c6.818,1.5,8.665,7.545,10.576,11.538  C384.597,73.123,382.598,63.68,379.764,59.608z"
   id="path10497" />
<path
   fill-rule="evenodd"
   clip-rule="evenodd"
   fill="#FFFFFF"
   d="M397.07,59.608c3.239,0.286,2.787,4.263,5.769,4.808  c-0.174,2.711-4.569,1.199-3.846,4.807c-1.506-3.284-3.828-2.89-7.693-1.923c0.222-1.493,3.697-4.486,0.963-5.769  C392.509,59.535,396.487,61.269,397.07,59.608z"
   id="path10499" />
<path
   fill-rule="evenodd"
   clip-rule="evenodd"
   fill="#FFFFFF"
   d="M528.786,85.567c-7.791-2.826-7.015-14.52-3.846-22.113  C536.293,59.541,532.438,80.434,528.786,85.567z"
   id="path10501" />
<path
   fill-rule="evenodd"
   clip-rule="evenodd"
   d="M130.754,64.416c-4.591,4.381-17.228,0.718-24.997,1.923  C110.508,62.116,122.872,65.506,130.754,64.416z"
   id="path10503" />
<path
   fill-rule="evenodd"
   clip-rule="evenodd"
   d="M149.982,68.261c-3.371-0.474-6.257-1.434-10.575-0.961  C140.913,64.355,148.943,65.126,149.982,68.261z"
   id="path10505" />
<path
   fill-rule="evenodd"
   clip-rule="evenodd"
   d="M0,74.03c9.873-2.951,22.062-8.697,33.649-6.73  c-1.558,3.541-12.414,1.926-14.421,1.923c4.64,6.796,16.354,0.788,23.075,0.961c-3.308,5.666-14.155,3.793-19.229,7.691  c-0.474,2.426,4.771-2.681,3.846,1.923c-7.002,1.33-10.921,5.744-18.268,6.731c3.795-2.936,8.048-5.413,12.499-7.692  c-4.193-2.239-9.013,3.141-14.422,2.884c4.464-4.51,13.413-4.534,19.229-7.691c-5.425-2.199-10.457,4.268-17.306,3.845  c2.403-2.725,7.155-3.1,10.576-4.807C15.243,69.048,6.865,75.651,0,74.991C0,74.67,0,74.351,0,74.03z"
   id="path10507" />
<path
   fill-rule="evenodd"
   clip-rule="evenodd"
   d="M0,67.3c1.923,0,3.846,0,5.769,0C4.486,68.902,1.494,68.793,0,70.184  C0,69.223,0,68.261,0,67.3z"
   id="path10509" />
<path
   fill-rule="evenodd"
   clip-rule="evenodd"
   d="M123.062,68.261c7.606-0.226,23.606-0.54,29.804,3.846  C142.917,70.84,132.112,70.429,123.062,68.261z"
   id="path10511" />
<path
   fill-rule="evenodd"
   clip-rule="evenodd"
   fill="#FFFFFF"
   d="M394.186,69.223c6.773,6.836,9.527,14.087,20.189,18.268  c-7.174,3.975-13.318-8.886-21.15-10.576C393.338,74.144,392.699,70.62,394.186,69.223z"
   id="path10513" />
<path
   fill-rule="evenodd"
   clip-rule="evenodd"
   fill="#FFFFFF"
   d="M536.477,69.223c3.6,3.732,3.192,8.006,0.963,12.498  C532.365,80.042,533.453,72.491,536.477,69.223z"
   id="path10515" />
<path
   fill-rule="evenodd"
   clip-rule="evenodd"
   d="M149.982,75.953c-4.824-1.585-10.864-1.955-15.382-3.846  C138.453,70.844,147.801,72.347,149.982,75.953z"
   id="path10517" />
<path
   fill-rule="evenodd"
   clip-rule="evenodd"
   d="M135.562,89.413c-6.13,1.864-14.519-1.557-22.113-3.846  c-9.195-2.771-17.811-8.125-25.958-11.538c5.749-3.42,10.679,3.74,16.344,5.768C113.404,83.225,125.362,84.81,135.562,89.413z"
   id="path10519" />
<path
   fill-rule="evenodd"
   clip-rule="evenodd"
   fill="#FFFFFF"
   d="M371.11,72.107c1.686,0.878,3.341,1.788,2.887,4.807  C371.292,77.054,371.224,74.56,371.11,72.107z"
   id="path10521" />
<path
   fill-rule="evenodd"
   clip-rule="evenodd"
   d="M36.535,77.875c-6.385,5.473-13.443,10.273-23.074,12.5  C19.362,84.983,29.313,78.768,36.535,77.875z"
   id="path10523" />
<path
   fill-rule="evenodd"
   clip-rule="evenodd"
   d="M46.148,76.914c-0.796,7.217-8.97,7.054-13.46,10.576  C34.663,81.452,39.857,78.635,46.148,76.914z"
   id="path10525" />
<path
   fill-rule="evenodd"
   clip-rule="evenodd"
   fill="#FFFFFF"
   d="M581.665,76.914c0.558,2.44,5.933,8.85,1.923,9.615  C581.925,84.344,581.268,81.156,581.665,76.914z"
   id="path10527" />
<path
   fill-rule="evenodd"
   clip-rule="evenodd"
   fill="#FFFFFF"
   d="M591.279,76.914c-1.565,2.602-2.611,5.722-5.769,6.729  C585.61,79.577,588.099,77.9,591.279,76.914z"
   id="path10529" />
<path
   fill-rule="evenodd"
   clip-rule="evenodd"
   d="M85.567,78.837c8.689,5.092,18.641,8.919,24.997,16.344  C101.844,90.122,92.616,85.568,85.567,78.837z"
   id="path10531" />
<path
   fill-rule="evenodd"
   clip-rule="evenodd"
   d="M52.878,82.682c-2.495,10.965-9.57,17.35-15.382,24.997  c-0.979-5.343,9.857-15.482,12.498-24.997C50.956,82.682,51.917,82.682,52.878,82.682z"
   id="path10533" />
<path
   fill-rule="evenodd"
   clip-rule="evenodd"
   fill="#FFFFFF"
   d="M532.631,82.682c3.654-0.77,1.223,4.547,1.923,6.731  C531.236,89.727,531.037,84.391,532.631,82.682z"
   id="path10535" />
<path
   fill-rule="evenodd"
   clip-rule="evenodd"
   d="M103.834,105.756c-7.458,2.415-12.631-13.473-19.228-18.266  c-0.51-0.773-1.004-1.561-0.963-2.884C92.932,85.33,95.459,100.935,103.834,105.756z"
   id="path10537" />
<path
   fill-rule="evenodd"
   clip-rule="evenodd"
   fill="#FFFFFF"
   d="M522.057,84.606c3.508,1.731,5.105,7.316,1.921,10.575  C520.469,93.449,518.873,87.864,522.057,84.606z"
   id="path10539" />
<path
   fill-rule="evenodd"
   clip-rule="evenodd"
   d="M61.532,85.567c3.477,9.455-4.632,23.417-7.692,32.688  C57.006,107.961,56.525,94.021,61.532,85.567z"
   id="path10541" />
<path
   fill-rule="evenodd"
   clip-rule="evenodd"
   fill="#FFFFFF"
   d="M415.336,87.49c5.659-1.793,12.64,3.37,19.229,3.846  C430.319,94.626,419.533,90.381,415.336,87.49z"
   id="path10543" />
<path
   fill-rule="evenodd"
   clip-rule="evenodd"
   d="M42.303,87.49c-2.48,8.416-9.661,12.132-14.422,18.266  c-2.564-2.054,3.273-5.534,5.768-8.652C36.333,93.751,38.1,87.888,42.303,87.49z"
   id="path10545" />
<path
   fill-rule="evenodd"
   clip-rule="evenodd"
   d="M70.185,87.49c5.128,2.53-0.595,18.339,3.845,24.036  C67.005,109.781,69.077,94.204,70.185,87.49z"
   id="path10547" />
<path
   fill-rule="evenodd"
   clip-rule="evenodd"
   fill="#FFFFFF"
   d="M402.839,93.258c-1.962-0.283-1.886-2.601-3.846-2.884  C399.543,86.974,404.14,89.261,402.839,93.258z"
   id="path10549" />
<path
   fill-rule="evenodd"
   clip-rule="evenodd"
   d="M54.801,90.375c3.651,5.05-4.489,13.78-5.769,20.19  C45.859,105.991,53.889,97.151,54.801,90.375z"
   id="path10551" />
<path
   fill-rule="evenodd"
   clip-rule="evenodd"
   d="M96.143,91.336c6.665,1.667,9.266,7.398,12.499,12.498  C103.317,100.825,100.042,95.769,96.143,91.336z"
   id="path10553" />
<path
   fill-rule="evenodd"
   clip-rule="evenodd"
   fill="#FFFFFF"
   d="M532.631,91.336c1.987,1.434,1.33,8.316-1.922,7.691  C530.243,95.357,530.98,92.89,532.631,91.336z"
   id="path10555" />
<path
   fill-rule="evenodd"
   clip-rule="evenodd"
   d="M21.151,104.795c2.168-1.288,5.705-4.389,2.884-7.691  c-2.491,1.034-3.575,3.476-6.729,3.846c2.027-4.702,8.317-5.143,11.537-8.653c3.194,2.035-2.885,2.792-1.923,5.769  c4.386-0.1,3.585-5.388,7.691-5.769C31.424,97.762,27.687,102.678,21.151,104.795z"
   id="path10557" />
<path
   fill-rule="evenodd"
   clip-rule="evenodd"
   d="M64.416,95.181c3.637,3.093,1.734,11.726,2.884,17.306  C64.34,108.834,62.3,100.914,64.416,95.181z"
   id="path10559" />
<path
   fill-rule="evenodd"
   clip-rule="evenodd"
   d="M88.452,95.181c5.092,2.279,3.779,10.963,9.614,12.498  c-0.217,1.385-2.869,0.335-2.884,1.924C92.419,105.765,88.575,98.522,88.452,95.181z"
   id="path10561" />
<path
   fill-rule="evenodd"
   clip-rule="evenodd"
   d="M112.487,95.181c5.504,1.226,8.645,4.815,13.459,6.73  c-1.999,2.229-7.481-3.213-6.729,0.961C115.987,100.333,116.132,98.417,112.487,95.181z"
   id="path10563" />
<path
   fill-rule="evenodd"
   clip-rule="evenodd"
   fill="#FFFFFF"
   d="M523.018,97.104c4.201-0.016,2.787,6.855-0.961,6.73  C521.498,100.713,522.71,99.361,523.018,97.104z"
   id="path10565" />
<path
   fill-rule="evenodd"
   clip-rule="evenodd"
   d="M75.953,98.065c5.442,2.626,2.537,9.001,3.846,14.422  c-2.456-0.107-1.908-3.22-1.923-5.77c-2.731-0.167,1.162,6.291-2.884,4.808C74.643,105.562,78.367,103.59,75.953,98.065z"
   id="path10567" />
<path
   fill-rule="evenodd"
   clip-rule="evenodd"
   d="M389.379,98.065c3.893-0.369,4.425,2.625,6.729,3.846  c0.354,2.917-3.132,1.996-4.809,2.884C390.808,102.304,390.886,101.222,389.379,98.065z"
   id="path10569" />
<path
   fill-rule="evenodd"
   clip-rule="evenodd"
   d="M49.994,99.027c-2.985,2.463-2.626,8.27-6.729,9.615  C45.908,105.837,45.018,99.498,49.994,99.027z"
   id="path10571" />
<path
   fill-rule="evenodd"
   clip-rule="evenodd"
   d="M124.985,99.988c2.646-0.68,8.336-0.501,8.654,2.884  C129.276,103.39,127.879,100.94,124.985,99.988z"
   id="path10573" />
<path
   fill-rule="evenodd"
   clip-rule="evenodd"
   fill="#FFFFFF"
   d="M526.863,99.027c1.553-0.271,1.654,0.909,2.885,0.961  c-0.501,1.423-1.424,2.423-1.925,3.846C525.738,103.996,527.389,100.424,526.863,99.027z"
   id="path10575" />
<path
   fill-rule="evenodd"
   clip-rule="evenodd"
   fill="#FFFFFF"
   d="M559.552,105.756c-2.153,4.396-7.646-1.067-6.73-5.768  C555.754,101.223,555.394,105.749,559.552,105.756z"
   id="path10577" />
<path
   fill-rule="evenodd"
   clip-rule="evenodd"
   d="M86.529,100.95c3.493,1.606,6.006,8.333,4.807,11.538  C88.785,109.589,88.179,104.747,86.529,100.95z"
   id="path10579" />
<path
   fill-rule="evenodd"
   clip-rule="evenodd"
   d="M498.981,101.911c2.13-0.529,1.367,1.835,2.886,1.923  c-0.22,1.385-2.872,0.335-2.886,1.922C496.59,105.612,498.7,102.502,498.981,101.911z"
   id="path10581" />
<path
   fill-rule="evenodd"
   clip-rule="evenodd"
   fill="#FFFFFF"
   d="M209.592,103.834c2.832-1.512,8.575,2.291,12.498,2.884  C219.273,108.214,212.515,105.426,209.592,103.834z"
   id="path10583" />
<path
   fill-rule="evenodd"
   clip-rule="evenodd"
   fill="#FFFFFF"
   d="M419.182,103.834c-1.628,3.344-7.128,3.327-9.612,0.961  C412.3,103.328,416.521,102.781,419.182,103.834z"
   id="path10585" />
<path
   fill-rule="evenodd"
   clip-rule="evenodd"
   fill="#FFFFFF"
   d="M224.013,106.718c4.846,1.564,10.296,2.523,14.422,4.808  C235.563,111.806,226.599,109.921,224.013,106.718z"
   id="path10587" />
<path
   fill-rule="evenodd"
   clip-rule="evenodd"
   fill="#FFFFFF"
   d="M523.018,106.718c-0.296,3.229,1.283,8.335-2.886,7.692  C518.687,111.356,518.687,106.586,523.018,106.718z"
   id="path10589" />
<path
   fill-rule="evenodd"
   clip-rule="evenodd"
   fill="#FFFFFF"
   d="M529.748,107.679c2.009-0.407,2.545,0.659,3.846,0.962  c0.406,2.009-0.659,2.545-0.963,3.846C531.724,110.832,529.077,110.914,529.748,107.679z"
   id="path10591" />
<path
   fill-rule="evenodd"
   clip-rule="evenodd"
   fill="#FFFFFF"
   d="M395.146,130.754c-1.022,6.449-3.049,15.591-1.921,21.151  c-14.572-1.893-38.295,1.386-56.725,0c-26.478-1.99-46.982-14.07-67.3-22.113c-4.034-0.507-5.371,1.681-8.653,1.923  c-1.602-1.91,0.088-1.222,0-3.845c-5.939,0.909-9.062,0.488-10.576-4.807c3.327-1.159,7.215-1.758,11.538-1.923  c0.223,3.749-5.942,1.108-6.729,3.846c12.621-0.863,24.378,5.996,35.572,9.615c1.777-0.145,0.59-3.256,1.923-3.846  c-12.197-8.826-29.255-11.591-42.304-17.305c3.149-3.675,10.696,3.563,15.384,0c3.265,1.221,5.508,3.465,6.729,6.729  c18.082,2.78,37.196,12.507,57.688,14.422c6.754,0.631,13.584-1.06,20.189-0.961c7.871,0.118,16.079,2.226,24.036,0.961  C381.227,133.45,387.31,127.216,395.146,130.754z"
   id="path10593" />
<path
   fill-rule="evenodd"
   clip-rule="evenodd"
   fill="#FFFFFF"
   d="M527.823,111.526c1.554-0.271,1.655,0.909,2.886,0.961  c0.843,3.085-2.494,1.993-2.886,3.846C525.574,116.086,527.271,112.109,527.823,111.526z"
   id="path10595" />
<path
   fill-rule="evenodd"
   clip-rule="evenodd"
   fill="#FFFFFF"
   d="M517.249,113.449c1.467,0.016,2.108,7.125-0.962,5.768  C515.592,116.279,517.271,115.714,517.249,113.449z"
   id="path10597" />
<path
   fill-rule="evenodd"
   clip-rule="evenodd"
   fill="#FFFFFF"
   d="M253.817,118.256c-1.021,1.453-9.273,4.062-9.614,0  C246.585,117.417,251.657,116.378,253.817,118.256z"
   id="path10599" />
<path
   fill-rule="evenodd"
   clip-rule="evenodd"
   fill="#FFFFFF"
   d="M448.025,119.217c3.638-0.083-0.595,6.546-0.961,8.653  C444.866,126.227,448.632,122.451,448.025,119.217z"
   id="path10601" />
<path
   fill-rule="evenodd"
   clip-rule="evenodd"
   fill="#FFFFFF"
   d="M484.56,146.137c0.517,5.398-12.205,7.128-13.459,1.923  C473.398,143.093,478.868,146.917,484.56,146.137z"
   id="path10603" />
<path
   fill-rule="evenodd"
   clip-rule="evenodd"
   fill="#FFFFFF"
   d="M522.057,167.289c-4.667-5.284-5.007-17.1,0.961-21.152  C530.791,147.433,529.243,166.699,522.057,167.289z"
   id="path10605" />
<path
   fill-rule="evenodd"
   clip-rule="evenodd"
   fill="#FFFFFF"
   d="M534.554,149.021c-3.444,0.723-0.348,7.984-4.806,7.692  C531.271,153.302,528.381,149.037,534.554,149.021z"
   id="path10607" />
<path
   fill-rule="evenodd"
   clip-rule="evenodd"
   fill="#FFFFFF"
   d="M451.871,152.867c2.384,2.424,4.979,4.634,5.77,8.653  C453.791,160.561,453.439,156.106,451.871,152.867z"
   id="path10609" />
<path
   fill-rule="evenodd"
   clip-rule="evenodd"
   fill="#FFFFFF"
   d="M516.287,156.713c-0.296,3.229,1.283,8.334-2.884,7.691  C511.479,161.999,512.609,156.492,516.287,156.713z"
   id="path10611" />
<path
   fill-rule="evenodd"
   clip-rule="evenodd"
   fill="#FFFFFF"
   d="M511.479,165.366c1.554-0.271,1.657,0.909,2.886,0.961  c0.154,3.038,0.033,5.802-1.923,6.729C508.005,172.696,510.63,168.038,511.479,165.366z"
   id="path10613" />
<path
   fill-rule="evenodd"
   clip-rule="evenodd"
   fill="#FFFFFF"
   d="M516.287,165.366c3.442-0.56,2.922,2.845,2.885,5.768  c1.127-0.155,0.812-1.752,0.96-2.884c3.51,0.654,1.743,6.614,0,7.691C519.688,171.863,514.876,168.231,516.287,165.366z"
   id="path10615" />
<path
   fill-rule="evenodd"
   clip-rule="evenodd"
   d="M403.799,167.289c-2.415,4.178-5.021,8.717-1.92,13.46  C395.357,180.45,397.817,166.608,403.799,167.289z"
   id="path10617" />
<path
   fill-rule="evenodd"
   clip-rule="evenodd"
   fill="#FFFFFF"
   d="M508.596,174.018c1.283,0,2.564,0,3.846,0  c1.894,3.086,1.439,10.655-3.846,9.615C507.127,181.881,507.127,175.77,508.596,174.018z"
   id="path10619" />
<path
   fill-rule="evenodd"
   clip-rule="evenodd"
   fill="#FFFFFF"
   d="M500.904,181.71c3.403,0.812,3.159,6.319,0.963,7.691  C498.938,189.325,499.613,183.116,500.904,181.71z"
   id="path10621" />
<path
   fill-rule="evenodd"
   clip-rule="evenodd"
   fill="#FFFFFF"
   d="M505.712,182.672c2.445,0.097,2.271,3.582,0.961,4.807  C504.226,187.381,504.402,183.896,505.712,182.672z"
   id="path10623" />
<path
   fill-rule="evenodd"
   clip-rule="evenodd"
   fill="#FFFFFF"
   d="M496.097,184.594c2.447,0.098,2.272,3.583,0.962,4.807  C495.389,188.526,494.574,186.032,496.097,184.594z"
   id="path10625" />
<path
   fill-rule="evenodd"
   clip-rule="evenodd"
   d="M576.857,219.206c3.634,3.58,10.128,8.876,10.576,12.498  c-6.693-3.562-11.682-8.83-18.268-12.498c-10.664,3.991-27.543-1.997-40.38-1.923c13.178-0.513,33.189-3.722,45.186,3.845  C574.95,220.503,574.968,218.918,576.857,219.206z"
   id="path10627" />
<path
   fill-rule="evenodd"
   clip-rule="evenodd"
   d="M531.669,223.051c3.775-1.184,10.987,2.455,11.539,7.692  C537.631,229.908,537.275,223.857,531.669,223.051z"
   id="path10629" />
<path
   fill-rule="evenodd"
   clip-rule="evenodd"
   d="M606.661,241.319c-2.06-6.596-7.615-9.69-10.576-15.384  C601.875,228.8,606.452,232.877,606.661,241.319z"
   id="path10631" />
<path
   fill-rule="evenodd"
   clip-rule="evenodd"
   d="M484.56,232.666c2.656-0.411,0.904,3.583,2.884,3.845  C486.076,239.262,481.854,234.277,484.56,232.666z"
   id="path10633" />
<path
   fill-rule="evenodd"
   clip-rule="evenodd"
   d="M459.562,233.628c4.722,0.137,5.262,4.147,2.886,6.729  C457.825,239.715,459.39,237.885,459.562,233.628z"
   id="path10635" />
<path
   fill-rule="evenodd"
   clip-rule="evenodd"
   d="M611.469,233.628c4.272,2.776,7.188,6.913,9.614,11.537  c-3.571-0.957-2.514-2.054-6.73-0.962C615.436,238.632,612.371,237.211,611.469,233.628z"
   id="path10637" />
<path
   fill-rule="evenodd"
   clip-rule="evenodd"
   d="M623.966,244.203c3.284-0.348,4.058,5.561,0,4.808  C623.966,247.406,623.966,245.807,623.966,244.203z"
   id="path10639" />
<path
   fill-rule="evenodd"
   clip-rule="evenodd"
   d="M494.176,246.125c2.101,0.143,2.062,2.424,1.921,4.806  C492.768,251.606,492.65,247.563,494.176,246.125z"
   id="path10641" />
<path
   fill-rule="evenodd"
   clip-rule="evenodd"
   fill="#FFFFFF"
   d="M437.451,247.086c3.403-0.521,2.362,3.405,5.766,2.885  c-0.833,1.406-1.438,3.048-3.846,2.885C438.82,250.845,436.989,250.112,437.451,247.086z"
   id="path10643" />
<path
   fill-rule="evenodd"
   clip-rule="evenodd"
   fill="#FFFFFF"
   d="M444.18,251.894c3.591-1.029,2.74,2.388,5.771,1.925  c-0.556,2.009-2.385,2.742-1.925,5.767c-3.451-0.075-3.329-3.721-5.769-4.806C442.881,253.801,444.469,253.783,444.18,251.894z"
   id="path10645" />
<path
   fill-rule="evenodd"
   clip-rule="evenodd"
   fill="#FFFFFF"
   d="M646.079,254.779c2.956,3.48,0.409,4.61,0,8.651  c2.937,0.051,2.307-3.462,5.771-2.883c-0.765,3.083-3.345,4.347-7.693,3.846c0.156-1.465,3.557-6.592,0-5.768  C643.456,256.001,646.067,256.69,646.079,254.779z"
   id="path10647" />
<path
   fill-rule="evenodd"
   clip-rule="evenodd"
   d="M452.833,255.739c3.36,2.034,9.107,5.911,6.729,10.576  c-1.732-5.993-3.606-0.2-7.69-3.846C452.862,258.748,451.37,258.511,452.833,255.739z"
   id="path10649" />
<path
   fill-rule="evenodd"
   clip-rule="evenodd"
   d="M468.215,256.702c5.035-1.17,11.561,4.452,14.422,8.653  c9.273,2.488,17.261,2.488,22.113,10.574c7.073,0.224,11.656,3.189,17.307,0c-9.596,11.791-18.046-2.141-27.881-5.768  c-2.443-0.9-5.361,0.616-7.693,0C480.896,268.683,473.488,258.269,468.215,256.702z"
   id="path10651" />
<path
   fill-rule="evenodd"
   clip-rule="evenodd"
   d="M571.089,262.47c3.228-0.417,5.675,2.032,3.846,3.846  C572.487,266.198,571.206,264.917,571.089,262.47z"
   id="path10653" />
<path
   fill-rule="evenodd"
   clip-rule="evenodd"
   d="M464.37,283.62c-0.466,3.028,2.951,2.178,1.923,5.771  c-4.904,1.377-4.11-2.942-6.731-3.846C460.377,284.115,462.658,284.152,464.37,283.62z"
   id="path10655" />
<path
   fill-rule="evenodd"
   clip-rule="evenodd"
   d="M460.524,292.274c2.814,0.864,2.953,0.864,5.769,0  c-4.674,2.409-1.628,6.795,0,10.576C462.424,301.271,462.445,295.803,460.524,292.274z"
   id="path10657" />
<path
   fill-rule="evenodd"
   clip-rule="evenodd"
   d="M466.293,294.196c3.886-0.68,5.488,0.922,4.808,4.807  C467.214,299.686,465.611,298.083,466.293,294.196z"
   id="path10659" />
<path
   fill-rule="evenodd"
   clip-rule="evenodd"
   d="M467.253,303.811c2.504,2.946,4.417,6.48,5.771,10.576  C470.242,311.719,467.46,309.055,467.253,303.811z"
   id="path10661" />
<path
   fill-rule="evenodd"
   clip-rule="evenodd"
   d="M478.791,310.542c-1.602,0-3.205,0-4.806,0c0.716-2.96-2.641-1.85-1.925-4.807  C475.641,303.024,481.242,306.962,478.791,310.542z"
   id="path10663" />
<path
   fill-rule="evenodd"
   clip-rule="evenodd"
   d="M512.441,314.387c20.659,7.865,29.072,27.974,44.226,41.341  c-14.913-8.16-22.525-23.621-34.61-34.609C517.922,319.804,513.536,318.739,512.441,314.387z"
   id="path10665" />
<path
   fill-rule="evenodd"
   clip-rule="evenodd"
   d="M483.598,315.347c0.133,1.793,0.634,3.217,1.925,3.846  c-2.062,3.619-7.167,1.395-6.731-2.883C481.509,317.104,481.281,314.956,483.598,315.347z"
   id="path10667" />
<path
   fill-rule="evenodd"
   clip-rule="evenodd"
   d="M494.176,332.654c2.594,0.288,1.724,4.045,3.846,4.808  c-0.634,1.289-2.058,1.79-3.846,1.921c0.858-3.103-3.138-1.35-3.848-2.883C489.316,332.925,493.571,334.614,494.176,332.654z"
   id="path10669" />
<path
   fill-rule="evenodd"
   clip-rule="evenodd"
   d="M488.405,337.462c2.711,0.172,1.199,4.569,4.808,3.846  C491.128,344.249,487.428,340.761,488.405,337.462z"
   id="path10671" />
<path
   fill-rule="evenodd"
   clip-rule="evenodd"
   d="M497.059,353.807c-1.24,1.322-4.176,0.95-6.73,0.96  c0.021-2.265-1.656-2.83-0.96-5.768C494.535,347.817,496.688,348.367,497.059,353.807z"
   id="path10673" />
<path
   fill-rule="evenodd"
   clip-rule="evenodd"
   fill="#FFFFFF"
   d="M523.018,351.882c0,0.963,0,1.925,0,2.885  c-2.929-1.436-3.738,0.315-5.769-0.96C518.133,352.126,520.254,351.683,523.018,351.882z"
   id="path10675" />
<path
   fill-rule="evenodd"
   clip-rule="evenodd"
   d="M529.748,355.728c8.722,7.302,20.583,11.463,24.036,24.036  c-5.364,2.069-3.947-5.125-5.771-7.691C543.193,365.281,532.4,364.105,529.748,355.728z"
   id="path10677" />
<path
   fill-rule="evenodd"
   clip-rule="evenodd"
   d="M523.978,358.612c4.249,0.562,6.357,3.259,8.653,5.769  C527.87,364.334,525.378,362.021,523.978,358.612z"
   id="path10679" />
<path
   fill-rule="evenodd"
   clip-rule="evenodd"
   d="M498.021,372.072c1.921,0,3.846,0,5.767,0c5.859,7.84,20.429,9.084,21.152,19.228  c-4.039,1.823-3.916-2.206-5.769-3.846c-5.601-4.952-13.119-7.241-17.305-13.457C500.437,375.509,497.571,375.066,498.021,372.072z"
   id="path10681" />
<path
   fill-rule="evenodd"
   clip-rule="evenodd"
   fill="#FFFFFF"
   d="M515.324,448.024c0.123,1.726-1.176,2.029-0.96,3.846  c-1.262-0.338-1.513-1.691-2.886-1.921c-0.817-0.178-0.905,0.374-0.96,0.961c-2.545-0.763,2.151-4.521-1.923-4.806  C512.926,440.449,509.955,451.526,515.324,448.024z"
   id="path10683" />
<path
   fill-rule="evenodd"
   clip-rule="evenodd"
   fill="#FFFFFF"
   d="M0,74.991c6.865,0.66,15.243-5.943,19.229-1.923  c-3.421,1.707-8.173,2.082-10.576,4.807c6.849,0.423,11.881-6.044,17.306-3.845c-5.816,3.157-14.765,3.181-19.229,7.691  c5.409,0.257,10.229-5.123,14.422-2.884c-4.451,2.279-8.704,4.756-12.499,7.692c7.346-0.987,11.265-5.401,18.268-6.731  c0.925-4.604-4.32,0.503-3.846-1.923c5.074-3.898,15.921-2.025,19.229-7.691c-6.721-0.174-18.435,5.835-23.075-0.961  c2.007,0.003,12.863,1.618,14.421-1.923C22.062,65.333,9.873,71.079,0,74.03c0-1.282,0-2.563,0-3.846  c1.494-1.391,4.486-1.282,5.769-2.884c-1.923,0-3.846,0-5.769,0C0,44.866,0,22.434,0,0c224.327,0,448.675,0,673,0  c0,162.164,0,324.317,0,486.482c-224.327,0-448.675,0-673,0C0,349.319,0,212.153,0,74.991z M72.107,27.881  c4.021-4.732,9.475-17.948,6.729-23.074C78.732,14.637,71.989,17.829,72.107,27.881z M42.303,22.113  c-1.372-0.375-1.622-1.154-2.884,0c2.267,7.347,6.816,12.412,8.652,20.19c8.827-3.654-4.265-11.92-4.807-18.267  c6.899-3.836-0.906-9.897-2.884-13.459C40.614,14.829,42.349,17.58,42.303,22.113z M50.956,30.765  c-0.019-2.865,0.09-5.857-2.884-5.768c-1.034,4.579,6.849,8.519,8.653,13.46c3.162-6.337-3.565-17.789-3.846-26.921  c-0.961,0-1.923,0-2.884,0C50.521,16.69,57.845,27.458,50.956,30.765z M65.377,36.535c5.548-5.679,0.398-19.063,3.846-24.998  c-0.961,0-1.923,0-2.884,0C68.033,20.729,61.316,31.338,65.377,36.535z M84.606,11.537c-2.63,10.19-10.232,15.408-12.499,25.958  c9.004-5.097,9.275-18.927,16.344-25.958C87.169,11.537,85.887,11.537,84.606,11.537z M35.572,35.572  c-5.324-2.687-7.835-8.188-13.459-10.575c6.441,7.71,14.149,19.112,23.075,21.151c-0.029-6.061-7.313-4.866-8.653-9.614  c0.657-5.305-8.303-14.007-12.499-14.422C28.332,26.148,32.709,30.105,35.572,35.572z M42.303,35.572  c-5.799-6.952-5.717-17.451-14.422-23.073c0.525,3.962,3.347,5.625,4.807,8.652c-1.817,0.215-2.122-1.083-3.846-0.961  C33.187,25.46,34.995,33.266,42.303,35.572z M18.268,15.383c3.404-0.52,2.364,3.405,5.768,2.884  C23.852,15.479,18.958,11.887,18.268,15.383z M102.873,22.113c1.899-3.869,6.887-4.65,8.653-8.654  C107.357,14.442,101.656,18.941,102.873,22.113z M56.724,23.074c6.41-1.923,1.686,7.287,5.769,7.691  c0.518-3.872,0.556-13.451-2.885-16.343C59.12,19.433,59.077,18.847,56.724,23.074z M580.703,89.413  c1.944,7.712-5.035,6.501-6.731,10.575c3.445-0.081,5.558-1.496,8.653-1.923c2.681-8.537,7.629-14.805,11.537-22.113  c-3.231-2.53-7.992-0.165-9.614,1.922c0.801-5.461-4.148-1.518-6.729-1.922c0.546-3.111-0.293-4.836-1.925-5.769  c-14.668,11.29-21.234,30.681-39.418,38.458c-8.761-5.823,6.432-16.792,0-23.074c1.675,0.071,2.991-0.215,3.846-0.961  c4.595-22.359,15.085-61.559-10.574-69.223c-8.341,4.159-14.498,10.499-22.115,15.382c-0.716,2.959,2.641,1.848,1.925,4.807  c-1.911-0.012-1.225-2.623-3.846-1.923c-16.365,15.825-31.562,31.066-44.226,50.957c-6.294,9.884-8.98,24.934-17.307,30.766  c-3.568-0.918-7.699-1.274-9.614-3.846c11.57,2.432,15.674-18.279,5.769-20.19c0.172-2.711,4.569-1.199,3.846-4.807  c-0.9-22.446-25.01-31.192-42.301-25.958c-1.909-0.657,0.598-5.729-2.886-4.808c-3.28,3.033-4.562,2.263-10.576,1.923  c-9.16-11.351-11.545-29.476-27.881-33.649c-0.963,1.28-1.585,2.902-2.884,3.845c-0.837,33.205,13.242,51.493,24.996,72.107  c-0.798,2.407-2.635,3.776-2.885,6.729c4.115,5.403,5.023,10.982,8.653,18.268c-8.72,9.861-21.821,5.55-37.495,5.769  c-14.406,0.2-23.181,0.797-33.649-1.923c-14.011-3.64-31.028-7.34-42.305-10.575c-4.135-1.188-5.641-6.348-9.613-7.691  c-3.895-1.317-13.477,0.725-16.345-2.885c-1.136,1.429-0.831,4.296-3.846,3.847c-38.448-13.473-83.021-25.935-122.102-35.573  c-3.845-1.862-10.491-5.1-16.344-6.73c-5.334-1.486-13.878-4.562-16.344,0c48.307,16.844,102.223,31.801,149.983,46.149  c2.587,9.912,11.889,13.108,18.268,19.229c18.916-2.034,34.649,10.87,55.762,17.305c23.58,7.188,56.328-0.476,75.953,3.846  c3.261,7.635-1.649,14.864-2.885,21.151c6.493,16.582,17.851,28.299,23.075,46.148c3.794,0.372,5.227,3.106,7.69,4.807  c1.802,8.442-0.127,24.216,2.886,30.767c5.246-7.14-1.86-23.568,1.923-28.843c8.671,11.518,14.539,25.84,24.996,35.573  c-1.47,15.574,9.533,26.998,13.461,40.38c-13.798-13.258-31.202-27.586-35.572-47.111c0.232,5.212,1.541,9.355,0.961,15.382  c7.485,10.461,20.055,15.838,24.996,28.844c7.575,2.855,12.459,9.191,16.344,15.382c7.226,11.509,15.367,26.593,17.308,38.458  c-12.073-2.031-13.729-14.475-24.036-18.268c6.927,8.455,12.73,18.034,25.957,20.189c0,1.603,0,3.206,0,4.807  c3.567,0.683,4.127-1.642,7.692-0.961c1.25,2.316,3.003,9.121,5.769,6.731c-0.774-3.713-3.495-5.479-5.769-7.691  c4.75-1.342,11.021-1.158,13.46-4.808c-6.584,0.16-12.366,6.2-19.228,2.883c3.544-3.185,10.551-2.906,16.344-3.846  c-2.097-3.979,1.698-5.43,0.961-10.574c4.113,0.268,4.755-2.938,9.614-1.925c1.976,1.279,5.848,5.626,4.808,6.733  c-5.121,4.178-3.017-5.513-7.691-4.809c-2.388-0.145-3.99,0.496-4.808,1.921c1.843,2.003,3.673,4.02,6.729,4.808  c-3.881,1.796-7.499-1.865-8.651,1.925c0.388,2.737,5.642-2.479,6.73,0.96c-2.438-1.019-5.48,2.025-2.885,2.886  c3.029-4.233,8.966-0.076,13.459,0c0.442-2.445,1.874-3.896,3.846-4.808c-4.442-3.891-8.606-8.059-11.536-13.462  c-6.246,6.712-19.564,4.292-30.765,7.691c-12.159-26.938-29.321-48.876-36.535-80.759c2.303,0.581,4.386,1.383,7.691,0.96  c-0.094-3.751-6.615-1.076-6.729-4.806c2.292-1.551-0.781-8.472,2.883-8.651c4.174,0.97,7.517,3.593,8.653,6.729  c3.11,8.591,4.601,14.659,8.653,21.153c12.575,20.143,29.771,44.689,44.225,57.683c-12.532-15.893-30.254-40.895-43.264-60.568  c-12.536-18.956-6.062-36.435,0.96-58.647c3.424,4.101,6.831,12.833,12.499,11.537c-3.149-6.145-9.854-8.733-13.459-14.421  c3.108-7.901,3.323-17.302-0.961-24.036c2.026-3.641,5.328,4.269,5.767-0.961c-1.578-3.952-5.293-3.105-6.729-2.884  c1.86-1.024,1.34-4.429,2.883-5.769c0.329,3.198,3.643,3.409,4.809,5.769c39.791,11.441,57.183-20.631,61.53-53.84  c13.225-10.833,19.635-25.932,34.612-36.535c-3.29-1.911-6.929,0.902-9.614,0.961c1.137,0.466,2.18,1.025,2.884,1.923  c-2.892,0.635-3.354,3.695-7.691,2.884c-10.845-12.341,11.065-17.083,18.268-12.498c0.575-3.459-0.347-5.423-2.886-5.768  c-1.034,2.456,4.142,3.364,0.963,4.807c-2.972-3.384-9.037-2.196-12.499-2.884c3.347-6.269,8.137-11.092,13.459-15.383  c0.683,5.811-4.456,5.798-3.846,11.538c2.648-1.02,5.998,1.053,9.616,3.846c-0.062-3.191-6.912-4.562-2.885-8.654  C580.762,81.686,586.747,94.082,580.703,89.413z M80.76,40.38c5.528,1.863,7.035-7.135,10.576-11.538  c3.642-4.527,11.623-8.275,9.614-11.537C93.701,24.478,85.404,30.603,80.76,40.38z M117.294,17.306  c-8.205,5.255-18.7,8.22-23.074,17.306c4.753-3.259,9.874-6.151,15.383-8.653c-5.774,8.696-21.923,11.982-24.036,21.151  c6.505-2.505,12.701-7.81,18.267-12.498c5.584-4.704,12.083-10.044,14.422-15.383c0.03,1.744-4.837,3.345-4.807,1.923  C114.877,20.016,117.744,20.319,117.294,17.306z M81.721,32.688c4.583-3.108,7.793-7.589,11.538-11.537  C85.094,20.678,84.52,27.795,81.721,32.688z M122.102,26.92c3.642,0.39,8.115-3.358,6.729-4.807  C127.431,24.558,123.002,23.975,122.102,26.92z M106.718,35.572c9.353-1.864,15.523-6.911,25.959-7.691  C125.637,24.478,112.566,31.404,106.718,35.572z M95.182,29.804c1.277-3.209,5.625-3.349,6.729-6.729  C98.988,24.033,93.866,27.799,95.182,29.804z M17.306,35.572c-0.461-5.309-3.591-7.945-7.692-9.614  C11.097,30.245,14.828,32.282,17.306,35.572z M124.024,34.612c3.809-0.726,14.268-2.712,9.615-5.77  C131.616,31.948,126.328,31.787,124.024,34.612z M31.727,39.419c-2.199-3.89-5.553-6.625-9.614-8.654  C23.681,35.287,27.344,37.712,31.727,39.419z M24.997,42.303c-6.07-2.902-12.096-5.851-18.268-8.653  C10.001,38.721,19.145,43.014,24.997,42.303z M99.988,43.264c5.56-0.359,15.349-4.41,20.19-8.652  C112.947,36.994,104.912,38.573,99.988,43.264z M32.688,44.226c-3.207-3.539-9.644-8.923-14.421-7.691  C23.151,39.021,26.6,42.943,32.688,44.226z M113.449,49.033c2.03-3.098,9.531-0.724,10.575-4.807  C120.886,45.603,111.597,45.86,113.449,49.033z M111.526,47.11c7.941-2.869,17.616-5.15,23.075-10.575  c-3.655-0.247-5.797,2.658-8.654,3.845c-12.32,5.118-27.378,5.375-37.495,14.421C95.698,54.631,103.418,50.039,111.526,47.11z   M126.908,47.11c6.907-1.426,15.92-0.745,20.19-4.807C140.754,43.021,133.008,43.817,126.908,47.11z M42.303,51.917  c-6.987-3.269-15.521-4.99-23.075-7.691C23.873,48.393,37.785,57.055,42.303,51.917z M61.532,53.839  c-5.375-0.234-5.03-0.554-10.576-0.961c-0.199,5.647,3.456,7.442,5.769,10.577c-0.925,4.604-7.313,6.405-4.807,11.537  c4.281,0.114,4.966-3.365,9.615-2.884c4.786,1.624,4.237,8.581,10.576,8.652c0.809-3.677,1.255-7.717,0.961-12.498  c3.551-3.866,9.662-1.075,10.575-8.653c-2.806-1.039-5.538-2.152-9.614-1.923c-3.804-2.925-0.579-12.88-6.729-13.459  C66.028,48.081,63.526,50.707,61.532,53.839z M27.881,51.917c-3.802-1.006-5.657-3.957-10.575-3.846  C18.328,51.248,25.606,53.187,27.881,51.917z M121.14,52.878c10.234-0.021,17.723-2.788,27.881-2.884  C142.941,46.606,128.206,50.875,121.14,52.878z M117.294,52.878c-3.404,1.083-8.712,0.261-9.615,3.846  c4.701-0.746,8.674-2.222,12.499-3.846c-3.576,1.013-1.886-3.242-3.846-3.845c-1.896,2.912-8.642,0.973-9.615,4.807  C110.512,54.38,114.163,49.811,117.294,52.878z M10.575,53.839c7.826,0.296,16.704,4.122,26.921,4.808  c-6.041-4.857-17.98-3.813-24.997-7.692C12.787,52.846,11.2,52.861,10.575,53.839z M143.253,54.801  c3.634-0.211,8.669,0.978,8.652-2.884C149.077,52.934,145.537,53.239,143.253,54.801z M91.336,62.493  c14.618-3.286,36.313-1.24,53.84-1.923c-6.607-2.046-16.67-0.637-23.074-2.885c1.136-0.465,2.18-1.025,2.884-1.923  C113.696,59.839,99.229,54.913,91.336,62.493z M12.499,61.531c9.388-0.577,24.566,6.82,30.766,0  c-6.181-1.741-15.796-1.053-21.152-0.96c-0.017-1.408,4.055-3.047,0-2.885c-0.641,0-1.282,0-1.923,0  C21.64,64.071,13.061,56.141,12.499,61.531z M105.757,66.339c7.77-1.205,20.406,2.458,24.997-1.923  C122.872,65.506,110.508,62.116,105.757,66.339z M139.407,67.3c4.318-0.472,7.204,0.487,10.575,0.961  C148.943,65.126,140.913,64.355,139.407,67.3z M134.601,72.107c4.518,1.891,10.558,2.26,15.382,3.846  C147.801,72.347,138.453,70.844,134.601,72.107z M152.867,72.107c-6.198-4.385-22.198-4.071-29.804-3.846  C132.112,70.429,142.917,70.84,152.867,72.107z M103.834,79.798c-5.665-2.028-10.595-9.188-16.344-5.768  c8.148,3.412,16.763,8.766,25.958,11.538c7.594,2.289,15.983,5.709,22.113,3.846C125.362,84.81,113.404,83.225,103.834,79.798z   M13.46,90.375c9.631-2.226,16.689-7.026,23.074-12.5C29.313,78.768,19.362,84.983,13.46,90.375z M32.688,87.49  c4.49-3.522,12.664-3.359,13.46-10.576C39.857,78.635,34.663,81.452,32.688,87.49z M106.718,84.606  c-7.532,2.93-12.242-9.229-19.228-6.731c7.689,4.809,15.669,9.329,24.036,13.461C111.531,87.621,103.703,88.323,106.718,84.606z   M129.792,93.258c-8.457-0.846-15.809-7.895-23.074-6.729C114.257,88.293,121.062,95.888,129.792,93.258z M110.564,95.181  c-6.356-7.425-16.308-11.252-24.997-16.344C92.616,85.568,101.844,90.122,110.564,95.181z M142.292,87.49  c-9.795-0.789-18.917-7.353-26.92-6.731C123.781,82.667,135.984,89.744,142.292,87.49z M49.994,82.682  c-2.641,9.515-13.477,19.654-12.498,24.997c5.812-7.647,12.887-14.032,15.382-24.997C51.917,82.682,50.956,82.682,49.994,82.682z   M83.644,84.606c-0.041,1.323,0.453,2.111,0.963,2.884c6.597,4.793,11.769,20.681,19.228,18.266  C95.459,100.935,92.932,85.33,83.644,84.606z M53.84,118.256c3.06-9.272,11.169-23.234,7.692-32.688  C56.525,94.021,57.006,107.961,53.84,118.256z M75.953,89.413c8.275,4.653,3.614,18.84,8.654,24.997  c-0.294-3.004,2.777,2.443,2.884-0.961c-3.37-9.13-2.278-22.719-9.615-27.881C77.864,87.478,75.252,86.79,75.953,89.413z   M34.611,92.297c-4.105,0.381-3.305,5.669-7.691,5.769c-0.962-2.977,5.117-3.734,1.923-5.769c-3.22,3.51-9.509,3.951-11.537,8.653  c3.155-0.37,4.239-2.812,6.729-3.846c2.821,3.302-0.716,6.403-2.884,7.691C27.687,102.678,31.424,97.762,34.611,92.297z   M33.649,97.104c-2.495,3.118-8.333,6.599-5.768,8.652c4.761-6.134,11.941-9.851,14.422-18.266  C38.1,87.888,36.333,93.751,33.649,97.104z M74.03,111.526c-4.44-5.697,1.283-21.505-3.845-24.036  C69.077,94.204,67.005,109.781,74.03,111.526z M28.843,89.413c-4.289,2.762-11.947,2.153-13.459,7.691  C20.813,95.484,24.7,92.32,28.843,89.413z M49.033,110.564c1.279-6.41,9.419-15.14,5.769-20.19  C53.889,97.151,45.859,105.991,49.033,110.564z M108.642,103.834c-3.233-5.1-5.834-10.832-12.499-12.498  C100.042,95.769,103.317,100.825,108.642,103.834z M67.3,112.487c-1.15-5.581,0.753-14.213-2.884-17.306  C62.3,100.914,64.34,108.834,67.3,112.487z M95.182,109.603c0.015-1.588,2.667-0.539,2.884-1.924  c-5.834-1.535-4.522-10.219-9.614-12.498C88.575,98.522,92.419,105.765,95.182,109.603z M119.217,102.873  c-0.751-4.174,4.73,1.268,6.729-0.961c-4.814-1.915-7.955-5.504-13.459-6.73C116.132,98.417,115.987,100.333,119.217,102.873z   M32.688,107.679c2.531-3.558,5.794-6.382,7.692-10.575C36.519,98.713,32.31,105.029,32.688,107.679z M74.991,111.526  c4.046,1.483,0.153-4.975,2.884-4.808c0.015,2.55-0.533,5.662,1.923,5.77c-1.309-5.42,1.596-11.796-3.846-14.422  C78.367,103.59,74.643,105.562,74.991,111.526z M43.265,108.642c4.104-1.345,3.745-7.151,6.729-9.615  C45.018,99.498,45.908,105.837,43.265,108.642z M133.639,102.873c-0.318-3.385-6.007-3.564-8.654-2.884  C127.879,100.94,129.276,103.39,133.639,102.873z M91.336,112.487c1.199-3.204-1.314-9.932-4.807-11.538  C88.179,104.747,88.785,109.589,91.336,112.487z M629.736,215.36c4.979,8.801,13.942,13.618,14.42,26.92  c-11.433,15.058,8.84,33.714-4.806,49.995c-3.818-3.075-10.976,1.521-14.422-0.963c-5.991-13.876-18.51-21.229-30.767-28.842  c-7.654-0.303-8.515,2.829-16.343,0c0.71,5.843,10.396,1.692,14.42,1.923c6.35,4.548,15.22,6.572,19.229,13.462  c-2.249,0.987-10.865,7.922-12.499,7.69c-2.001-0.285-4.96-6.576-7.69-7.69c-7.67-3.142-14.97,1.003-22.113-1.926  c-1.061,2.146-5.737,0.674-4.808,4.809c1.73,1.976,4.718-2.918,7.69-2.883c4.945,3.16,10.726-0.705,17.308,1.92  c5.631,2.246,8.88,13.209,14.422,19.229c2.656,2.887,6.231,3.47,7.69,5.77c4.261,6.72,4.229,16.982,0.961,23.074  c-2.954,0.25-4.323,2.085-6.729,2.885c9.363,10.988-9.546,28.192-17.308,14.422c3.228-2.48-1.668-7.941,0-8.653  c0.965,0.004,1.145-0.778,1.923-0.962c2.052,4.999,5.573,8.527,13.462,7.69c-0.542-2.555,3.953-4.894,0.96-6.729  c-0.168,3.356-2.212,4.839-4.808,5.769c-4.655-1.434-6.843-5.336-7.691-10.576c-3.957,5.52-12.665,0.354-14.42,7.69  c1.651,3.224,4.137-0.356,4.806,3.846c-4.649,4.325-10.936,7.011-12.499,14.424c4.306-1.489,8.951-5.499,8.654-8.653  c2.151,2.038,3.965-1.687,5.768-2.885c4.908,5.598,13.206,8.162,20.19,6.73c0.45-6.447,8.644-8.627,4.808-16.345  c10.502-6.318,8.834-22.896,4.807-34.61c-5.907-2.746-11.294-6.013-11.537-14.424c8.519-9.125,19.627-2.03,23.075,8.654  c18.644,4.721,23.283-12.631,21.151-28.844c1.438-2.085,5.516-1.534,5.768-4.806c2.25-0.246,0.554-4.223,0-4.806  c3.529,0.004,3.686-3.369,5.769-4.808c1.303-8.133-0.485-10.436-0.96-18.267c-11.564-22.895-29.325-33.424-52.88-37.497  c-14.058-2.43-28.941-8.742-41.341-7.691c-3.685,0.312-6.038,2.974-9.613,3.846c-12.73,3.1-26.853,3.792-38.46,6.729  c-3.257,0.826-4.344,2.998-7.691,2.884c-10.496-0.355-22.216-12.14-31.727-6.73c8.006,3.212,12.029,10.403,19.229,14.422  c11.271-3.834,23.242,8.116,30.767,14.421c0.162-2.728-3.253-1.876-1.925-5.768c1.143,0.862,7.183,4.629,6.731,0.961  c-4.691,0.942-7.271-5.323-9.614-0.961c-7.185-11.724-29.341-8.476-36.535-20.19c14.053,0.373,23.835,10.131,33.651,11.538  c-0.761-3.406-5.918-2.415-6.732-5.768c6.381-2.873,13.868-4.002,22.115-5.77c11.544-2.473,26.923-8.109,37.495-6.729  c18.609,2.426,38.4,8.165,54.802,11.537c3.259,6.605,15.344,9.252,22.111,18.267c7.351,9.792,15.003,27.762,2.885,33.65  c-0.049-6.318,2.457-16.699-3.845-21.15c0.492,5,5.66,12.123,0.96,16.342c-2.555-2.157-4.894,1.44-6.729-0.96  c0.027-3.176,4.057-2.351,4.806-4.806c-1.942-14.126-6.21-31.434-24.036-29.805C625.506,215.697,626.678,216.83,629.736,215.36z   M573.972,221.128c-11.996-7.567-32.008-4.358-45.186-3.845c12.837-0.074,29.716,5.914,40.38,1.923  c6.586,3.668,11.574,8.936,18.268,12.498c-0.448-3.622-6.942-8.918-10.576-12.498C574.968,218.918,574.95,220.503,573.972,221.128z   M543.208,230.743c-0.552-5.237-7.764-8.876-11.539-7.692C537.275,223.857,537.631,229.908,543.208,230.743z M611.469,242.28  c1.312-6.347-5.849-6.371-2.885-11.537c-2.535-0.293-2.48,2.007-2.883,3.846C610.325,234.45,607.494,241.767,611.469,242.28z   M596.085,225.935c2.961,5.694,8.517,8.789,10.576,15.384C606.452,232.877,601.875,228.8,596.085,225.935z M598.97,237.474  c-1.541-2.484-3.93-11.573-6.73-6.73C594.396,233.073,596.095,235.862,598.97,237.474z M487.443,236.511  c-1.979-0.262-0.228-4.256-2.884-3.845C481.854,234.277,486.076,239.262,487.443,236.511z M614.353,244.203  c4.217-1.092,3.159,0.006,6.73,0.962c-2.426-4.624-5.342-8.761-9.614-11.537C612.371,237.211,615.436,238.632,614.353,244.203z   M623.966,249.01c4.058,0.753,3.284-5.156,0-4.808C623.966,245.807,623.966,247.406,623.966,249.01z M496.097,250.931  c0.141-2.382,0.18-4.663-1.921-4.806C492.65,247.563,492.768,251.606,496.097,250.931z M531.669,275.929  c-2.958-1.352-7.284-0.907-8.651,1.926c7.45-2.301,9.254,6.224,8.651-0.963c4.526,6.889,24.659-2.623,25.96,12.499  c2.152,1.05,4.816,1.593,6.729,2.884c1.799-2.049,5.568-2.123,4.808-6.729c-4.413-0.888-4.646,2.404-8.653,1.921  c-0.249-3.596-2.229-5.461-3.846-7.691c-8.93-0.223-9.123-3.861-18.268-2.883c-4.305-4.988-12.313-6.273-16.343-11.537  c-10.883-0.023-13.32-13.594-23.075-11.537C509.483,261.582,522.386,266.947,531.669,275.929z M486.482,270.161  c2.332,0.616,5.25-0.9,7.693,0c9.835,3.627,18.285,17.559,27.881,5.768c-5.65,3.189-10.233,0.224-17.307,0  c-4.853-8.085-12.84-8.085-22.113-10.574c-2.861-4.202-9.387-9.823-14.422-8.653C473.488,258.269,480.896,268.683,486.482,270.161z   M574.935,266.315c1.829-1.813-0.618-4.262-3.846-3.846C571.206,264.917,572.487,266.198,574.935,266.315z M516.287,446.104  c-1.117-5.217-9.296-1.476-10.575-1.925c1.823-8.591-6.75-14.143-8.653-22.111c-13.082-10.457-18.181-26.958-25.958-41.343  c-3.586-6.633-8.542-11.932-11.539-19.228c-6.247-15.214-11.783-30.591-19.228-43.266c-10.05-17.113-12.394-36.267-20.19-53.84  c0.497,19.693,10.935,29.446,13.462,47.109c17.952,27.161,26.145,59.053,41.341,87.491c8.053,15.069,23.509,26.506,28.842,43.264  c-2.152,7.462-4.562,14.664-7.691,21.15c2.362,8.438,13.571,13.657,21.152,8.653c2.449-9.589,3.317-28.099,0.962-37.495  C515.7,436.543,518.889,444.217,516.287,446.104z M507.633,313.427c0.253-4.098-3.855-3.836-4.806-6.73  C499.824,310.398,506.519,310.833,507.633,313.427z M522.057,321.118c12.085,10.988,19.697,26.449,34.61,34.609  c-15.153-13.367-23.566-33.476-44.226-41.341C513.536,318.739,517.922,319.804,522.057,321.118z M548.014,372.072  c1.823,2.566,0.406,9.761,5.771,7.691c-3.453-12.573-15.314-16.734-24.036-24.036C532.4,364.105,543.193,365.281,548.014,372.072z   M553.784,411.49c-0.284-1.96-2.602-1.884-2.886-3.846c3.097-1.71,3.173-6.441,2.886-11.536  c-6.765-6.948-10.913-28.026-19.23-25.959c8.846,5.897,10.479,19.007,17.306,26.921c-0.513,3.333,1.428,9.119-1.921,9.614  c-2.457-0.736-4.421-1.417-5.771,0.96c3.9,1.037,2.34,3.247,2.885,8.653c-5.811,4.593-10.549-0.305-16.344,0  c1.259-0.755,7.105-1.744,3.845-3.846c-0.178,1.425-2.323,0.881-3.845,0.963c-2.619,7.163-12.044,9.878-10.577,18.266  c-2.697-0.012,2.289-2.621-1.921-1.921c-0.055,0.585-0.145,1.138-0.962,0.96c0.004,0.965-0.778,1.145-0.962,1.923  c3.066-0.825,2.973,1.514,4.808,1.923c3.521-7.054,9.115-12.035,15.382-16.345c4.503,6.645,14.156-1.079,15.383-6.73  c5.24,2.231,10.306,17.927,17.307,18.27c5.043,0.246,9.367-5.38,8.653-11.539c-2.261,3.83-2.609,9.571-8.653,9.614  c-2.4-2.085-4.195-4.777-5.769-7.691c0.871-1.694,3.539-1.588,3.846-3.846c-3.21,0.967-3.153-1.334-2.885-3.846  c1.96,0.822,5.974-0.837,2.885-1.923c-2.959,2.039-0.383,0.21,0-1.923c-2.447,0.497-3.729,1.64-3.846-1.922  c2.948,1.539,8.399,0.572,8.651,4.806c-1.974-1.944-1.919,0.392-2.883,1.925c3.597-2.054,5.463,0.113,7.691,1.921  c-1.152-12.655-14.033-8.259-17.306-17.304c-4.51-12.464,21.632-23.386,4.807-38.459c2.938-0.692,3.503,0.983,5.768,0.962  c0.175-2.719-3.614-2.239-0.96-4.808c-3.212,4.468-8.878,2.693-12.499,2.885c7.12,3.924,8.726,8.253,10.576,16.345  c-1.439,3.048-3.777,5.197-8.653,4.807c0.154,4.32-4.051,4.281-4.806,7.69c1.789,0.92,3.211-2.879,3.845,0  c-1.136,2.069-4.105,2.307-2.885,6.731c2.406-0.12,3.011-1.835,3.846,0.96c-2.818,9.447,6.676,14.307,4.808,23.075  c-1.886-1.32-0.521-5.89-1.923-7.691c-6.271,2.7-3.855-5.338-4.808-2.885C554.686,407.906,556.438,411.903,553.784,411.49z   M532.631,364.381c-2.296-2.51-4.404-5.207-8.653-5.769C525.378,362.021,527.87,364.334,532.631,364.381z M501.867,373.997  c4.186,6.216,11.704,8.505,17.305,13.457c1.853,1.64,1.729,5.669,5.769,3.846c-0.724-10.144-15.293-11.388-21.152-19.228  c-1.921,0-3.846,0-5.767,0C497.571,375.066,500.437,375.509,501.867,373.997z M450.91,271.122c1.066,3.743,2.658,6.955,4.806,9.615  c0.276-4.762-3.235-5.737-3.845-9.615c1.686,0.266,4.798-2.708,5.77,0c-3.838,0.869-2.456,3.868-0.962,6.732  c2.241-0.323,4.143-0.986,4.808-2.888c-1.744,0.031-3.345-4.835-1.925-4.806c2.974,1.227,2.5,10.918,6.731,7.693  c-2.365-1.096-4.231-5.865-2.886-7.693C460.205,267.064,453.795,268.614,450.91,271.122z M473.985,302.851  c-0.164-2.086,3.409-0.437,4.806-0.961c1.821,2.982,2.182,7.434,5.769,8.652c-4.667-11.355-13.449-18.599-18.267-29.805  c-4.149,1.092-8.648,0.936-10.577,1.923c1.878,1.692,3.013,9.109,4.809,7.69c-0.798-2.405-2.633-3.774-2.884-6.73  c1.396-1.486,4.922-0.845,7.691-0.96c2.512,3.312,4.681,7.454,4.808,10.576C473.79,292.573,476.349,301.647,473.985,302.851z   M459.562,285.545c2.621,0.903,1.827,5.223,6.731,3.846c1.028-3.593-2.389-2.742-1.923-5.771  C462.658,284.152,460.377,284.115,459.562,285.545z M466.293,302.851c-1.628-3.781-4.674-8.167,0-10.576  c-2.815,0.864-2.954,0.864-5.769,0C462.445,295.803,462.424,301.271,466.293,302.851z M471.101,299.003  c0.681-3.885-0.922-5.486-4.808-4.807C465.611,298.083,467.214,299.686,471.101,299.003z M473.023,314.387  c-1.354-4.096-3.267-7.63-5.771-10.576C467.46,309.055,470.242,311.719,473.023,314.387z M472.061,305.735  c-0.716,2.957,2.641,1.847,1.925,4.807c1.601,0,3.204,0,4.806,0C481.242,306.962,475.641,303.024,472.061,305.735z M489.368,321.118  c-4.863-0.893-7.48,4.078-10.577,1.92c1.556,5.512,6.141,13.07,10.577,12.5c-1.121-0.161-1.045-1.519-0.963-2.884  c3.255-0.271,5.521-1.53,9.616-0.962c1.463,4.897,2.863,8.316-0.963,11.536c3.271,2.991,2.141-4.253,5.769-3.846  c-0.483-4.002-3.699-5.273-3.846-9.612c-5.931-0.482-8.232,2.662-14.422,1.922c-1.079-2.445-2.36-4.689-3.846-6.729  c2.815,0.251,2.954-2.175,5.769-1.925c-0.408,1.835-2.746,1.741-1.923,4.809c1.08,0.203,1.499,1.067,1.923,1.924  c1.817,0.216,2.122-1.083,3.846-0.962c2.932-1.995-4.215-4.657-0.96-6.73c4.287,0.197,3.376,5.597,6.729,6.73  c-2.785-10.566-12.284-23.394-23.073-12.499c2.444,1.4,1.862,5.829,4.808,6.729c0.714-3.918-3.101-3.309-1.925-7.691  C481.946,312.14,489.36,313.44,489.368,321.118z M478.791,316.31c-0.436,4.277,4.67,6.502,6.731,2.883  c-1.291-0.629-1.792-2.053-1.925-3.846C481.281,314.956,481.509,317.104,478.791,316.31z M490.328,336.5  c0.71,1.533,4.706-0.22,3.848,2.883c1.788-0.131,3.212-0.632,3.846-1.921c-2.122-0.763-1.252-4.52-3.846-4.808  C493.571,334.614,489.316,332.925,490.328,336.5z M493.213,341.308c-3.608,0.724-2.097-3.674-4.808-3.846  C487.428,340.761,491.128,344.249,493.213,341.308z M451.871,262.47c4.084,3.646,5.958-2.147,7.69,3.846  c2.379-4.665-3.368-8.542-6.729-10.576C451.37,258.511,452.862,258.748,451.871,262.47z"
   id="path10685" />
<path
   fill-rule="evenodd"
   clip-rule="evenodd"
   d="M24.036,22.113c4.196,0.415,13.156,9.117,12.499,14.422  c1.34,4.748,8.624,3.553,8.653,9.614c-8.926-2.039-16.633-13.441-23.075-21.151c5.625,2.387,8.135,7.889,13.459,10.575  C32.709,30.105,28.332,26.148,24.036,22.113z"
   id="path10687" />
<path
   fill-rule="evenodd"
   clip-rule="evenodd"
   d="M578.78,79.798c-4.027,4.092,2.822,5.462,2.885,8.654  c-3.618-2.792-6.968-4.866-9.616-3.846c-0.61-5.74,4.528-5.727,3.846-11.538c-5.322,4.292-10.112,9.114-13.459,15.383  c3.462,0.688,9.527-0.5,12.499,2.884c3.179-1.443-1.997-2.352-0.963-4.807c2.539,0.345,3.461,2.309,2.886,5.768  c-7.202-4.585-29.112,0.157-18.268,12.498c4.337,0.811,4.8-2.249,7.691-2.884c-0.704-0.898-1.747-1.457-2.884-1.923  c2.686-0.06,6.324-2.873,9.614-0.961c-14.978,10.603-21.388,25.702-34.612,36.535c-4.348,33.208-21.739,65.281-61.53,53.84  c-1.166-2.36-4.479-2.57-4.809-5.769c-1.543,1.34-1.022,4.745-2.883,5.769c1.436-0.221,5.15-1.068,6.729,2.884  c-0.438,5.23-3.74-2.68-5.767,0.961c4.284,6.733,4.069,16.134,0.961,24.036c3.604,5.688,10.31,8.276,13.459,14.421  c-5.668,1.297-9.075-7.436-12.499-11.537c-7.021,22.212-13.496,39.691-0.96,58.647c13.01,19.674,30.731,44.676,43.264,60.568  c-14.453-12.993-31.649-37.54-44.225-57.683c-4.053-6.494-5.543-12.562-8.653-21.153c-1.137-3.135-4.479-5.758-8.653-6.729  c-3.664,0.18-0.591,7.101-2.883,8.651c0.113,3.73,6.635,1.055,6.729,4.806c-3.306,0.422-5.389-0.379-7.691-0.96  c7.214,31.883,24.376,53.82,36.535,80.759c11.2-3.399,24.519-0.979,30.765-7.691c2.93,5.403,7.094,9.571,11.536,13.462  c-1.972,0.911-3.403,2.362-3.846,4.808c-4.493-0.076-10.43-4.233-13.459,0c-2.596-0.86,0.447-3.904,2.885-2.886  c-1.089-3.439-6.343,1.777-6.73-0.96c1.152-3.79,4.771-0.129,8.651-1.925c-3.056-0.788-4.886-2.805-6.729-4.808  c0.817-1.425,2.42-2.065,4.808-1.921c4.675-0.704,2.57,8.986,7.691,4.809c1.04-1.107-2.832-5.454-4.808-6.733  c-4.859-1.013-5.501,2.192-9.614,1.925c0.737,5.145-3.058,6.596-0.961,10.574c-5.793,0.939-12.8,0.661-16.344,3.846  c6.861,3.317,12.644-2.723,19.228-2.883c-2.439,3.649-8.71,3.466-13.46,4.808c2.273,2.212,4.994,3.979,5.769,7.691  c-2.766,2.39-4.519-4.415-5.769-6.731c-3.565-0.681-4.125,1.644-7.692,0.961c0-1.601,0-3.204,0-4.807  c-13.227-2.155-19.03-11.734-25.957-20.189c10.307,3.793,11.963,16.236,24.036,18.268c-1.94-11.865-10.082-26.949-17.308-38.458  c-3.885-6.19-8.769-12.526-16.344-15.382c-4.941-13.006-17.511-18.383-24.996-28.844c0.58-6.027-0.729-10.17-0.961-15.382  c4.37,19.525,21.774,33.853,35.572,47.111c-3.928-13.383-14.931-24.807-13.461-40.38c-10.457-9.733-16.325-24.055-24.996-35.573  c-3.783,5.274,3.323,21.703-1.923,28.843c-3.013-6.551-1.084-22.324-2.886-30.767c-2.464-1.701-3.896-4.435-7.69-4.807  c-5.225-17.85-16.582-29.566-23.075-46.148c1.235-6.288,6.146-13.516,2.885-21.151c-19.625-4.321-52.373,3.343-75.953-3.846  c-21.112-6.436-36.846-19.339-55.762-17.305c-6.379-6.121-15.681-9.316-18.268-19.229c-47.76-14.348-101.676-29.305-149.983-46.149  c2.465-4.562,11.009-1.486,16.344,0c5.854,1.63,12.499,4.868,16.344,6.73c39.081,9.638,83.653,22.1,122.102,35.573  c3.015,0.45,2.71-2.417,3.846-3.847c2.868,3.61,12.45,1.568,16.345,2.885c3.973,1.344,5.479,6.504,9.613,7.691  c11.276,3.235,28.294,6.936,42.305,10.575c10.469,2.72,19.243,2.123,33.649,1.923c15.674-0.218,28.775,4.093,37.495-5.769  c-3.63-7.285-4.538-12.865-8.653-18.268c0.25-2.954,2.087-4.323,2.885-6.729c-11.754-20.615-25.833-38.902-24.996-72.107  c1.299-0.943,1.921-2.565,2.884-3.845c16.336,4.174,18.721,22.299,27.881,33.649c6.015,0.34,7.296,1.11,10.576-1.923  c3.483-0.92,0.977,4.151,2.886,4.808c17.291-5.233,41.4,3.512,42.301,25.958c0.724,3.608-3.674,2.096-3.846,4.807  c9.905,1.911,5.802,22.622-5.769,20.19c1.915,2.571,6.046,2.927,9.614,3.846c8.326-5.832,11.013-20.882,17.307-30.766  c12.663-19.89,27.86-35.131,44.226-50.957c2.621-0.7,1.935,1.911,3.846,1.923c0.716-2.959-2.641-1.848-1.925-4.807  c7.617-4.883,13.774-11.224,22.115-15.382c25.659,7.664,15.169,46.864,10.574,69.223c-0.854,0.746-2.171,1.033-3.846,0.961  c6.432,6.282-8.761,17.251,0,23.074c18.184-7.776,24.75-27.168,39.418-38.458c1.632,0.932,2.471,2.657,1.925,5.769  c2.58,0.405,7.529-3.539,6.729,1.922c1.622-2.087,6.383-4.453,9.614-1.922c-3.908,7.308-8.856,13.576-11.537,22.113  c-3.096,0.427-5.208,1.842-8.653,1.923c1.696-4.074,8.676-2.863,6.731-10.575C586.747,94.082,580.762,81.686,578.78,79.798z   M583.588,86.529c4.01-0.765-1.365-7.175-1.923-9.615C581.268,81.156,581.925,84.344,583.588,86.529z M552.821,99.988  c-0.915,4.701,4.577,10.164,6.73,5.768C555.394,105.749,555.754,101.223,552.821,99.988z M515.324,128.831  c-15.382-6.007-27.998-0.418-39.418-3.846c-6.684-2.006-11.552-9.793-21.15-7.691c-7.138,13.878-6.227,36.745,7.691,42.303  c4.074-2.727,7.012-11.262,0.96-13.46c2.964,0.648,5.102-1.494,7.693-1.923c13.925-2.3,40.53,5.488,50.956,1.923  c2.5-0.854,6.09-7.231,9.612-9.614c10.398-7.033,19.873-16.882,25.96-27.881c-4.088-0.079-5.218-3.115-5.77-6.73  c-9.815,5.568-18.049,12.717-27.882,18.267c0.589-0.896,2.238-3.546-0.96-2.884C525.073,121.821,520.867,126.712,515.324,128.831z   M468.215,217.283c-0.632,2.879-2.054-0.919-3.845,0c-3.267,12.438-8.368,23.039-12.499,34.611c2.902,0.943,5.729,1.964,8.653,2.885  C463.323,242.731,470.25,228.229,468.215,217.283z M537.439,25.958c1.566,0.168,1.94-6.29-0.963-4.807  C535.733,21.809,533.973,26.878,537.439,25.958z M522.057,31.727c1.279,0,2.562,0,3.846,0c-0.449-3.396,1.571-9.263-2.885-8.652  C522.257,25.536,520.467,29.855,522.057,31.727z M528.786,33.649c7.319,2.261,5.707-10.204,0.962-9.614  C528.643,27.13,527.476,30.731,528.786,33.649z M542.247,37.495c-0.497-2.709,1.714-8.125-2.887-6.73  C539.399,33.933,538.969,37.568,542.247,37.495z M515.324,36.535c0.143-2.385,0.18-4.667-1.921-4.808  C511.937,33.105,512.467,36.738,515.324,36.535z M523.978,61.531c9.69-1.727,10.158-28.532-1.921-27.881  C515.516,39.278,513.015,59.014,523.978,61.531z M371.11,54.801c-0.027-8.624-1.275-16.027-7.691-18.266  C363.869,44.738,365.359,51.901,371.11,54.801z M510.519,47.11c1.293-2.233,1.592-5.459,2.885-7.691  c-1.709-0.855-2.445-2.685-5.771-1.924C507.586,41.711,506.962,46.5,510.519,47.11z M534.554,50.956  c5.268,0.108,2.354-8.674,0.961-10.576C532.856,43.973,534.146,47.381,534.554,50.956z M541.285,48.071  c3.979,0.833,2.928-4.802,0-4.807C541.285,44.866,541.285,46.469,541.285,48.071z M504.75,50.956  c1.884-0.725,1.434-7.111-0.962-6.73C502.97,45.029,501.155,51.739,504.75,50.956z M497.059,54.801  c-0.354-3.809,2.254-5.876-0.962-7.691C494.806,48.515,494.133,54.725,497.059,54.801z M381.688,55.762  c-0.096-3.43-0.45-6.602-2.886-7.691C376.894,50.46,378.676,55.316,381.688,55.762z M509.558,49.033  c-4.585,3.432-0.156,11.151-3.846,14.422c3.768-0.078,5.998-1.695,8.652-2.884C514.969,55.71,515.418,49.726,509.558,49.033z   M500.904,54.801c1.311-1.224,1.484-4.709-0.962-4.807C499.65,52.236,497.891,54.137,500.904,54.801z M377.843,55.762  c-1.962-0.602-0.271-4.858-3.846-3.845C374.042,53.885,375.68,59.083,377.843,55.762z M490.328,61.531  c4.057,1.326,4.29-9.777,0.961-9.614C490.189,54.273,488.085,58.808,490.328,61.531z M535.515,63.455  c1.925-1.535,2.838-7.258,0.962-9.615c-0.962,0-1.923,0-2.883,0C533.496,56.805,530.308,63.585,535.515,63.455z M541.285,64.416  c2.202-3.303,0.892-4.178,1.923-8.654c-0.961,0-1.923,0-2.886,0C540.361,58.621,537.463,63.449,541.285,64.416z M377.843,76.914  c3.732,0.207,6.03-1.02,6.729-3.846c-2.294-6.358-5.935-11.371-11.536-14.421C369.129,63.685,375.947,71.59,377.843,76.914z   M390.34,71.146c-1.911-3.992-3.758-10.038-10.576-11.538C382.598,63.68,384.597,73.123,390.34,71.146z M392.263,61.531  c2.734,1.283-0.741,4.276-0.963,5.769c3.865-0.967,6.188-1.361,7.693,1.923c-0.724-3.608,3.672-2.096,3.846-4.807  c-2.981-0.545-2.529-4.522-5.769-4.808C396.487,61.269,392.509,59.535,392.263,61.531z M483.598,67.3  c-11.607,8.296-26.962,33.737-31.727,48.072c3.563-3.994,2.711-0.11,6.73,0c0.894-5.532,3.659-14.267,8.651-12.499  c-2.777,2.69-7.157,8.837-5.767,12.499c0.632-2.879,2.054,0.919,3.846,0c1.1-3.024-1.51-2.336-1.925-3.846  c10.699-7.447,16.196-22.502,24.998-32.689c5.215-6.035,12.006-8.677,16.345-15.382C499.152,57.969,488.413,63.858,483.598,67.3z   M524.94,63.455c-3.169,7.593-3.945,19.287,3.846,22.113C532.438,80.434,536.293,59.541,524.94,63.455z M512.441,63.455  c-20.73,11.969-37.588,32.902-45.188,54.801c3.618,0.731,0.665-5.105,4.808-3.846c1.651,3.134-4.604,4.627,0,4.807  c2.046,3.425,3.58-4.241,5.771-0.961c0.474,3.018-3.315,2.54-0.962,4.807c3.722,0.839,1.57-4.198,5.768-2.884  c0.612,2.097-2.725,3.06,0.961,2.884c6.52-5.517,15.327-8.397,21.152-14.421c4.831-4.997,5.285-13.585,12.499-16.345  c-6.032,13.837-17.7,22.039-28.844,30.766c7.658-1.458,12.3,3.577,18.268,1.923c10.118-2.804,18.557-29.594,8.651-35.572  C523.604,84.37,520.484,66.026,512.441,63.455z M161.521,88.452c-21.348-5.894-44.393-15.215-65.377-18.268  C118.876,75.982,139.035,84.773,161.521,88.452z M393.225,76.914c7.832,1.69,13.977,14.551,21.15,10.576  c-10.662-4.18-13.416-11.431-20.189-18.268C392.699,70.62,393.338,74.144,393.225,76.914z M537.439,81.721  c2.229-4.492,2.637-8.766-0.963-12.498C533.453,72.491,532.365,80.042,537.439,81.721z M373.997,76.914  c0.454-3.02-1.201-3.929-2.887-4.807C371.224,74.56,371.292,77.054,373.997,76.914z M585.511,83.644  c3.157-1.007,4.203-4.128,5.769-6.729C588.099,77.9,585.61,79.577,585.511,83.644z M387.455,92.297  c4.486-0.001,7.808,1.165,7.69,5.769c-1.985-1.858-5.348-2.343-7.69-3.846c-0.807,5.281-4.961,7.217-5.767,12.498  c2.413,1.672,5.295-0.945,6.729,2.885c-0.411,1.833-2.746,1.739-1.923,4.807c6.572,0.844,1.18,9.558,5.769,13.459  c6.492,0.082,8.894-3.925,16.345-2.884c0.997,5.207,12.045,9.142,6.729,14.422c-2.35-2.778-2.711-7.542-6.729-8.653  c-3.356,7.15-2.385,16.974-0.963,25.959c11.789-0.224,14.862-1.711,27.882-0.962c-2.559-15.75-0.454-27.311,3.845-38.457  c-4.217,0.053-5.149-3.181-8.651-3.845c-1.198,4.592-9.845,4.601-14.422,2.884c0.231-1.373,1.585-1.622,1.923-2.884  c-18.216-3.757-20.661-17.934-27.881-31.728C390.488,86.356,386.203,86.558,387.455,92.297z M534.554,89.413  c-0.7-2.184,1.731-7.5-1.923-6.731C531.037,84.391,531.236,89.727,534.554,89.413z M523.978,95.181  c3.185-3.259,1.587-8.844-1.921-10.575C518.873,87.864,520.469,93.449,523.978,95.181z M434.565,91.336  c-6.59-0.476-13.57-5.639-19.229-3.846C419.533,90.381,430.319,94.626,434.565,91.336z M398.993,90.375  c1.96,0.283,1.884,2.601,3.846,2.884C404.14,89.261,399.543,86.974,398.993,90.375z M194.209,98.065  c-8.88-0.742-16.916-7.429-24.998-5.769C177.051,94.08,186.548,99.306,194.209,98.065z M530.709,99.027  c3.252,0.625,3.909-6.257,1.922-7.691C530.98,92.89,530.243,95.357,530.709,99.027z M522.057,103.834  c3.748,0.125,5.162-6.746,0.961-6.73C522.71,99.361,521.498,100.713,522.057,103.834z M207.669,102.873  c-2.97-1.229-9.117-4.299-11.538-2.884C198.811,101.509,205.702,103.834,207.669,102.873z M527.823,103.834  c0.501-1.422,1.424-2.423,1.925-3.846c-1.23-0.053-1.332-1.232-2.885-0.961C527.389,100.424,525.738,103.996,527.823,103.834z   M222.09,106.718c-3.923-0.593-9.666-4.396-12.498-2.884C212.515,105.426,219.273,108.214,222.09,106.718z M409.569,104.795  c2.484,2.366,7.984,2.383,9.612-0.961C416.521,102.781,412.3,103.328,409.569,104.795z M238.435,111.526  c-4.126-2.285-9.576-3.244-14.422-4.808C226.599,109.921,235.563,111.806,238.435,111.526z M520.132,114.41  c4.169,0.643,2.59-4.463,2.886-7.692C518.687,106.586,518.687,111.356,520.132,114.41z M532.631,112.487  c0.304-1.301,1.369-1.837,0.963-3.846c-1.301-0.303-1.837-1.369-3.846-0.962C529.077,110.914,531.724,110.832,532.631,112.487z   M373.997,134.6c-7.957,1.265-16.165-0.844-24.036-0.961c-6.605-0.099-13.436,1.592-20.189,0.961  c-20.491-1.915-39.605-11.642-57.688-14.422c-1.222-3.265-3.465-5.508-6.729-6.729c-4.688,3.563-12.234-3.675-15.384,0  c13.049,5.714,30.106,8.479,42.304,17.305c-1.333,0.59-0.146,3.702-1.923,3.846c-11.194-3.619-22.951-10.478-35.572-9.615  c0.787-2.737,6.952-0.097,6.729-3.846c-4.323,0.165-8.211,0.764-11.538,1.923c1.514,5.295,4.637,5.716,10.576,4.807  c0.088,2.623-1.602,1.936,0,3.845c3.282-0.242,4.619-2.43,8.653-1.923c20.317,8.043,40.822,20.123,67.3,22.113  c18.43,1.386,42.152-1.893,56.725,0c-1.128-5.56,0.898-14.703,1.921-21.151C387.31,127.216,381.227,133.45,373.997,134.6z   M527.823,116.333c0.392-1.853,3.729-0.76,2.886-3.846c-1.23-0.053-1.332-1.232-2.886-0.961  C527.271,112.109,525.574,116.086,527.823,116.333z M516.287,119.217c3.07,1.356,2.429-5.752,0.962-5.768  C517.271,115.714,515.592,116.279,516.287,119.217z M244.203,118.256c0.341,4.062,8.594,1.453,9.614,0  C251.657,116.378,246.585,117.417,244.203,118.256z M453.795,162.481c-5.116-8.18-7.411-20.934-8.653-27.881  c-1.894,9.899-0.987,20.216,0.963,27.881c-12.44,7.669-28.715,5.485-45.188,1.923c13.741-0.659,27.518,2.567,42.301-0.961  c-1.273-16.938-1.187-30.886,3.848-46.149c-1.923,0-3.848,0-5.769,0c-1.241,3.806,3.165,1.963,1.921,5.769  c-1.814,0.216-2.12-1.083-3.846-0.961c-2.567,9.609-1.881,22.473-1.92,34.612c-8.151,2.747-21.051,0.743-29.807,2.884  c0.971,0.011,1.209,1.685,0,1.923c-6.161-5.153-1.559-22.843-2.883-32.689c-0.055,0.586-0.145,1.138-0.963,0.961  c-0.055-0.585-0.143-1.137-0.96-0.961c-0.973,5.086,3.257,4.248-1.923,7.692c-0.845,3.088,3.169,1.317,2.883,3.846  c-3.79-1.228-2.495,2.631-3.845,3.845c0.897,1.026,3.548,0.299,2.885,2.884c0.382,2.304-4.38-0.533-2.885,2.884  c0.391,1.853,3.728,0.76,2.885,3.846c-1.324,0.042-2.11-0.453-2.885-0.961c-0.421,3.569,3.211,9.113-0.961,10.576  c-1.18-3.947-0.133-10.124-1.923-13.46c-14.21,23.859,3.019,46.758,12.499,62.493c1.991,3.306,0.829,7.801,5.767,6.73  c-1.755-8.827-10.063-16.205-8.651-24.997c4.595,8.867,7.524,19.394,12.497,27.881c-1.229-0.053-1.33-1.232-2.884-0.961  c0.99,3.497,4.676,4.3,8.654,4.807c0.238,12.751,15.308,8.321,18.265,16.345c-3.804,1.242-1.962-3.165-5.766-1.923  c-1.014,4.476,6.701,7.85,11.536,9.614c3.382-3.988,4.843-9.899,6.729-15.382c-1.789-0.919-3.212,2.879-3.845,0  c6.9-6.209,11.714-15.939,1.924-22.113c2.621-0.087,1.935,1.601,3.846,0c-0.512-15.683-11.437-35.914-10.576-47.11  c6.238,17.313,10.825,28.276,11.537,49.033c1.432,1.132,2.713,2.414,3.846,3.846c4.039-16.265,8.006-41.305,0.96-57.686  c-2.875,2.945,2.568,10.825-0.96,14.421c-1.993-2.388-0.257-10.815-2.886-13.459C459.442,163.644,455.485,161.928,453.795,162.481z   M447.064,127.87c0.366-2.107,4.599-8.736,0.961-8.653C448.632,122.451,444.866,126.227,447.064,127.87z M528.786,142.292  c0.021,2.265-1.655,2.83-0.963,5.768c2.625,0.087,1.937-1.601,3.846,0c-1.389-3.178,0.16-4.726,1.925-1.923  c0.899-0.812,2.054-6.129,0-6.729C532.549,142.528,531.587,145.757,528.786,142.292z M471.101,148.06  c1.254,5.205,13.976,3.475,13.459-1.923C478.868,146.917,473.398,143.093,471.101,148.06z M523.018,146.137  c-5.968,4.052-5.628,15.868-0.961,21.152C529.243,166.699,530.791,147.433,523.018,146.137z M517.249,153.828  c-2.381-0.927,1.324-3.692,0-6.73c-5.622,1.108-13.406,0.053-17.307,2.884c-11.896-7.314-20.715,15.913-29.803,3.846  c1.168,6.15,1.599,1.557,0,8.653c2.841,0.684,6.784,0.264,7.691,2.884c-3.563,0.558-5.574-2.965-7.691-0.961  c-1.83,5.354,3.65,3.398,3.846,6.729c-5.641-0.767,0.204,3.984-3.846,4.807c12.417,15.919,38.868,5.86,40.379-13.459  c-9.749,0.476-16.315,3.433-24.036,2.884C497.854,163.126,512.85,159.888,517.249,153.828z M471.101,152.867  c7.065,4.271,13.354-0.535,17.305-4.807C482.854,152.751,477.205,152.296,471.101,152.867z M529.748,156.713  c4.458,0.292,1.361-6.969,4.806-7.692C528.381,149.037,531.271,153.302,529.748,156.713z M457.641,161.52  c-0.79-4.02-3.386-6.229-5.77-8.653C453.439,156.106,453.791,160.561,457.641,161.52z M513.403,164.404  c4.167,0.643,2.588-4.463,2.884-7.691C512.609,156.492,511.479,161.999,513.403,164.404z M512.441,173.057  c1.956-0.927,2.077-3.692,1.923-6.729c-1.229-0.053-1.332-1.232-2.886-0.961C510.63,168.038,508.005,172.696,512.441,173.057z   M520.132,175.941c1.743-1.077,3.51-7.037,0-7.691c-0.148,1.131,0.167,2.729-0.96,2.884c0.037-2.923,0.558-6.328-2.885-5.768  C514.876,168.231,519.688,171.863,520.132,175.941z M508.596,183.633c5.285,1.04,5.739-6.528,3.846-9.615c-1.281,0-2.562,0-3.846,0  C507.127,175.77,507.127,181.881,508.596,183.633z M501.867,189.401c2.196-1.372,2.44-6.879-0.963-7.691  C499.613,183.116,498.938,189.325,501.867,189.401z M506.673,187.479c1.311-1.225,1.484-4.71-0.961-4.807  C504.402,183.896,504.226,187.381,506.673,187.479z M497.059,189.401c1.311-1.225,1.485-4.709-0.962-4.807  C494.574,186.032,495.389,188.526,497.059,189.401z M470.14,215.36c-0.332-5.824,3.282-14.499-0.962-18.268  C469.18,203.183,461.096,214.607,470.14,215.36z M439.371,252.856c2.408,0.163,3.013-1.479,3.846-2.885  c-3.403,0.521-2.362-3.405-5.766-2.885C436.989,250.112,438.82,250.845,439.371,252.856z M442.257,254.779  c2.439,1.085,2.317,4.731,5.769,4.806c-0.46-3.024,1.369-3.758,1.925-5.767c-3.03,0.463-2.18-2.954-5.771-1.925  C444.469,253.783,442.881,253.801,442.257,254.779z M486.482,348.036c0.922,2.927,1.942,5.751,2.886,8.654  c5.562,0.754,6.936-2.678,12.499-1.924c-0.188-3.018-3.805-2.607-2.886-6.73c1.232-1.65,5.749-0.02,5.769-2.883  C498.494,346.546,494.628,347.168,486.482,348.036z M517.249,353.807c2.03,1.275,2.84-0.476,5.769,0.96c0-0.96,0-1.922,0-2.885  C520.254,351.683,518.133,352.126,517.249,353.807z"
   id="path10689" />
<path
   fill-rule="evenodd"
   clip-rule="evenodd"
   fill="#FFFFFF"
   d="M523.018,117.294c3.198-0.662,1.549,1.988,0.96,2.884  c9.833-5.55,18.066-12.699,27.882-18.267c0.552,3.616,1.682,6.651,5.77,6.73c-6.087,10.999-15.562,20.849-25.96,27.881  c-3.522,2.382-7.112,8.759-9.612,9.614c-10.426,3.565-37.031-4.223-50.956-1.923c-2.592,0.429-4.729,2.571-7.693,1.923  c6.052,2.199,3.114,10.734-0.96,13.46c-13.918-5.558-14.829-28.425-7.691-42.303c9.599-2.102,14.467,5.686,21.15,7.691  c11.42,3.428,24.036-2.162,39.418,3.846C520.867,126.712,525.073,121.821,523.018,117.294z"
   id="path10691" />
<path
   fill-rule="evenodd"
   clip-rule="evenodd"
   d="M113.449,21.151c-0.03,1.422,4.837-0.179,4.807-1.923  c-2.339,5.339-8.837,10.679-14.422,15.383C98.268,39.3,92.072,44.605,85.567,47.11c2.113-9.169,18.262-12.455,24.036-21.151  c-5.509,2.502-10.63,5.395-15.383,8.653c4.375-9.086,14.87-12.051,23.074-17.306C117.744,20.319,114.877,20.016,113.449,21.151z"
   id="path10693" />
<path
   fill-rule="evenodd"
   clip-rule="evenodd"
   d="M128.831,22.113c1.386,1.449-3.087,5.197-6.729,4.807  C123.002,23.975,127.431,24.558,128.831,22.113z"
   id="path10695" />
<path
   fill-rule="evenodd"
   clip-rule="evenodd"
   d="M101.911,23.074c-1.105,3.381-5.452,3.521-6.729,6.729  C93.866,27.799,98.988,24.033,101.911,23.074z"
   id="path10697" />
<path
   fill-rule="evenodd"
   clip-rule="evenodd"
   d="M106.718,53.839c0.973-3.833,7.719-1.895,9.615-4.807  c1.96,0.604,0.27,4.858,3.846,3.845c-3.825,1.624-7.798,3.1-12.499,3.846c0.902-3.584,6.21-2.763,9.615-3.846  C114.163,49.811,110.512,54.38,106.718,53.839z"
   id="path10699" />
<path
   fill-rule="evenodd"
   clip-rule="evenodd"
   fill="#FFFFFF"
   d="M96.143,70.184c20.985,3.052,44.029,12.374,65.377,18.268  C139.035,84.773,118.876,75.982,96.143,70.184z"
   id="path10701" />
<path
   fill-rule="evenodd"
   clip-rule="evenodd"
   d="M111.526,91.336c-8.367-4.132-16.346-8.652-24.036-13.461  c6.986-2.498,11.696,9.661,19.228,6.731C103.703,88.323,111.531,87.621,111.526,91.336z"
   id="path10703" />
<path
   fill-rule="evenodd"
   clip-rule="evenodd"
   d="M106.718,86.529c7.266-1.165,14.617,5.884,23.074,6.729  C121.062,95.888,114.257,88.293,106.718,86.529z"
   id="path10705" />
<path
   fill-rule="evenodd"
   clip-rule="evenodd"
   d="M115.372,80.759c8.002-0.622,17.125,5.942,26.92,6.731  C135.984,89.744,123.781,82.667,115.372,80.759z"
   id="path10707" />
<path
   fill-rule="evenodd"
   clip-rule="evenodd"
   d="M15.383,97.104c1.513-5.538,9.171-4.929,13.459-7.691  C24.7,92.32,20.813,95.484,15.383,97.104z"
   id="path10709" />
<path
   fill-rule="evenodd"
   clip-rule="evenodd"
   fill="#FFFFFF"
   d="M169.211,92.297c8.082-1.661,16.118,5.026,24.998,5.769  C186.548,99.306,177.051,94.08,169.211,92.297z"
   id="path10711" />
<path
   fill-rule="evenodd"
   clip-rule="evenodd"
   d="M40.38,97.104c-1.897,4.193-5.161,7.017-7.692,10.575  C32.31,105.029,36.519,98.713,40.38,97.104z"
   id="path10713" />
<path
   fill-rule="evenodd"
   clip-rule="evenodd"
   fill="#FFFFFF"
   d="M196.131,99.988c2.421-1.415,8.568,1.655,11.538,2.884  C205.702,103.834,198.811,101.509,196.131,99.988z"
   id="path10715" />
<path
   fill-rule="evenodd"
   clip-rule="evenodd"
   d="M488.405,114.41c0,0.961,0,1.923,0,2.884c-1.119,0.157-1.709-0.212-1.923-0.961  c-2.304-0.382,0.534,4.378-2.885,2.884C484.023,116.437,485.626,114.834,488.405,114.41z"
   id="path10717" />
<path
   fill-rule="evenodd"
   clip-rule="evenodd"
   fill="#FFFFFF"
   d="M459.562,161.52c2.629,2.645,0.893,11.071,2.886,13.459  c3.528-3.596-1.915-11.476,0.96-14.421c7.046,16.381,3.079,41.421-0.96,57.686c-1.133-1.432-2.414-2.714-3.846-3.846  c-0.712-20.756-5.299-31.72-11.537-49.033c-0.86,11.196,10.064,31.427,10.576,47.11c-1.911,1.601-1.225-0.087-3.846,0  c9.79,6.174,4.977,15.904-1.924,22.113c0.633,2.879,2.056-0.919,3.845,0c-1.886,5.482-3.347,11.394-6.729,15.382  c-4.835-1.764-12.55-5.138-11.536-9.614c3.804-1.242,1.962,3.165,5.766,1.923c-2.957-8.024-18.026-3.593-18.265-16.345  c-3.979-0.507-7.664-1.311-8.654-4.807c1.554-0.271,1.655,0.909,2.884,0.961c-4.973-8.487-7.902-19.014-12.497-27.881  c-1.412,8.792,6.896,16.17,8.651,24.997c-4.938,1.071-3.775-3.424-5.767-6.73c-9.48-15.735-26.709-38.634-12.499-62.493  c1.79,3.337,0.743,9.513,1.923,13.46c4.172-1.463,0.54-7.007,0.961-10.576c0.774,0.508,1.561,1.003,2.885,0.961  c0.843-3.086-2.494-1.993-2.885-3.846c-1.495-3.417,3.267-0.58,2.885-2.884c0.663-2.585-1.987-1.858-2.885-2.884  c1.35-1.214,0.055-5.073,3.845-3.845c0.286-2.528-3.728-0.757-2.883-3.846c5.18-3.444,0.95-2.605,1.923-7.692  c0.817-0.176,0.905,0.375,0.96,0.961c0.818,0.177,0.908-0.375,0.963-0.961c1.324,9.846-3.278,27.536,2.883,32.689  c1.209-0.238,0.971-1.912,0-1.923c8.756-2.142,21.655-0.138,29.807-2.884c0.039-12.139-0.647-25.003,1.92-34.612  c1.726-0.122,2.031,1.178,3.846,0.961c1.244-3.806-3.162-1.963-1.921-5.769c1.921,0,3.846,0,5.769,0  c-5.034,15.263-5.121,29.211-3.848,46.149c-14.783,3.529-28.56,0.302-42.301,0.961c16.474,3.562,32.748,5.747,45.188-1.923  c-1.95-7.666-2.856-17.982-0.963-27.881c1.242,6.948,3.537,19.701,8.653,27.881C455.485,161.928,459.442,163.644,459.562,161.52z   M401.879,180.749c-3.101-4.744-0.495-9.283,1.92-13.46C397.817,166.608,395.357,180.45,401.879,180.749z M404.762,190.363  c0.287-1.891-1.299-1.907-1.923-2.884c1.285-2.874-0.064-3.828-2.885-4.807c-0.126,2.37-0.146,4.632,0.962,5.768  C404.026,187.251,401.651,191.551,404.762,190.363z"
   id="path10719" />
<path
   fill-rule="evenodd"
   clip-rule="evenodd"
   fill="#FFFFFF"
   d="M533.594,139.407c2.054,0.601,0.899,5.918,0,6.729  c-1.765-2.803-3.313-1.255-1.925,1.923c-1.909-1.601-1.221,0.087-3.846,0c-0.692-2.938,0.984-3.503,0.963-5.768  C531.587,145.757,532.549,142.528,533.594,139.407z"
   id="path10721" />
<path
   fill-rule="evenodd"
   clip-rule="evenodd"
   fill="#FFFFFF"
   d="M486.482,165.366c7.721,0.548,14.287-2.409,24.036-2.884  c-1.511,19.32-27.962,29.378-40.379,13.459c4.05-0.823-1.795-5.574,3.846-4.807c-0.195-3.331-5.676-1.376-3.846-6.729  c2.117-2.004,4.128,1.52,7.691,0.961c-0.907-2.62-4.851-2.201-7.691-2.884c1.599-7.097,1.168-2.503,0-8.653  c9.088,12.067,17.906-11.16,29.803-3.846c3.9-2.832,11.685-1.776,17.307-2.884c1.324,3.038-2.381,5.803,0,6.73  C512.85,159.888,497.854,163.126,486.482,165.366z"
   id="path10723" />
<path
   fill-rule="evenodd"
   clip-rule="evenodd"
   fill="#FFFFFF"
   d="M488.405,148.06c-3.951,4.272-10.239,9.078-17.305,4.807  C477.205,152.296,482.854,152.751,488.405,148.06z"
   id="path10725" />
<path
   fill-rule="evenodd"
   clip-rule="evenodd"
   d="M400.916,188.44c-1.107-1.136-1.088-3.398-0.962-5.768  c2.82,0.979,4.17,1.933,2.885,4.807c0.624,0.977,2.21,0.994,1.923,2.884C401.651,191.551,404.026,187.251,400.916,188.44z"
   id="path10727" />
<path
   fill-rule="evenodd"
   clip-rule="evenodd"
   d="M622.043,215.36c17.826-1.628,22.094,15.679,24.036,29.805  c-0.749,2.455-4.778,1.629-4.806,4.806c1.835,2.4,4.174-1.197,6.729,0.96c4.7-4.219-0.468-11.343-0.96-16.342  c6.302,4.452,3.796,14.833,3.845,21.15c12.118-5.888,4.466-23.858-2.885-33.65c-6.768-9.015-18.853-11.662-22.111-18.267  c-16.401-3.372-36.192-9.11-54.802-11.537c-10.572-1.379-25.951,4.256-37.495,6.729c-8.247,1.768-15.734,2.897-22.115,5.77  c0.814,3.354,5.972,2.362,6.732,5.768c-9.816-1.406-19.599-11.165-33.651-11.538c7.194,11.715,29.351,8.467,36.535,20.19  c2.343-4.361,4.923,1.904,9.614,0.961c0.451,3.667-5.589-0.099-6.731-0.961c-1.328,3.892,2.087,3.041,1.925,5.768  c-7.524-6.305-19.496-18.255-30.767-14.421c-7.2-4.019-11.224-11.21-19.229-14.422c9.511-5.41,21.23,6.375,31.727,6.73  c3.348,0.113,4.435-2.059,7.691-2.884c11.607-2.938,25.729-3.629,38.46-6.729c3.575-0.872,5.929-3.534,9.613-3.846  c12.399-1.051,27.283,5.261,41.341,7.691c23.555,4.073,41.315,14.602,52.88,37.497c0.475,7.832,2.263,10.134,0.96,18.267  c-2.083,1.439-2.239,4.812-5.769,4.808c0.554,0.583,2.25,4.56,0,4.806c-0.252,3.272-4.33,2.721-5.768,4.806  c2.132,16.213-2.508,33.565-21.151,28.844c-3.448-10.685-14.557-17.779-23.075-8.654c0.243,8.411,5.63,11.678,11.537,14.424  c4.027,11.715,5.695,28.292-4.807,34.61c3.836,7.718-4.357,9.897-4.808,16.345c-6.984,1.432-15.282-1.133-20.19-6.73  c-1.803,1.198-3.616,4.923-5.768,2.885c0.297,3.154-4.349,7.164-8.654,8.653c1.563-7.413,7.85-10.099,12.499-14.424  c-0.669-4.202-3.154-0.622-4.806-3.846c1.755-7.337,10.463-2.171,14.42-7.69c0.849,5.24,3.036,9.143,7.691,10.576  c2.596-0.93,4.64-2.412,4.808-5.769c2.993,1.835-1.502,4.174-0.96,6.729c-7.889,0.837-11.41-2.691-13.462-7.69  c-0.778,0.184-0.958,0.966-1.923,0.962c-1.668,0.712,3.228,6.173,0,8.653c7.762,13.771,26.671-3.434,17.308-14.422  c2.405-0.8,3.774-2.635,6.729-2.885c3.269-6.092,3.3-16.354-0.961-23.074c-1.459-2.3-5.034-2.883-7.69-5.77  c-5.542-6.02-8.791-16.982-14.422-19.229c-6.582-2.625-12.362,1.24-17.308-1.92c-2.973-0.035-5.96,4.858-7.69,2.883  c-0.93-4.135,3.747-2.662,4.808-4.809c7.144,2.929,14.443-1.216,22.113,1.926c2.73,1.114,5.689,7.405,7.69,7.69  c1.634,0.231,10.25-6.703,12.499-7.69c-4.01-6.89-12.88-8.914-19.229-13.462c-4.023-0.23-13.71,3.92-14.42-1.923  c7.828,2.829,8.688-0.303,16.343,0c12.257,7.613,24.775,14.966,30.767,28.842c3.446,2.484,10.604-2.112,14.422,0.963  c13.646-16.28-6.627-34.937,4.806-49.995c-0.478-13.302-9.441-18.119-14.42-26.92C626.678,216.83,625.506,215.697,622.043,215.36z   M644.156,258.625c3.557-0.824,0.156,4.303,0,5.768c4.349,0.501,6.929-0.763,7.693-3.846c-3.464-0.579-2.834,2.934-5.771,2.883  c0.409-4.041,2.956-5.171,0-8.651C646.067,256.69,643.456,256.001,644.156,258.625z"
   id="path10729" />
<path
   fill-rule="evenodd"
   clip-rule="evenodd"
   d="M605.701,234.589c0.402-1.839,0.348-4.139,2.883-3.846  c-2.964,5.166,4.197,5.189,2.885,11.537C607.494,241.767,610.325,234.45,605.701,234.589z"
   id="path10731" />
<path
   fill-rule="evenodd"
   clip-rule="evenodd"
   d="M592.239,230.743c2.801-4.842,5.189,4.247,6.73,6.73  C596.095,235.862,594.396,233.073,592.239,230.743z"
   id="path10733" />
<path
   fill-rule="evenodd"
   clip-rule="evenodd"
   d="M498.981,253.818c9.755-2.058,12.192,11.513,23.075,11.537  c4.029,5.263,12.038,6.548,16.343,11.537c9.145-0.979,9.338,2.66,18.268,2.883c1.617,2.23,3.597,4.096,3.846,7.691  c4.008,0.483,4.24-2.809,8.653-1.921c0.761,4.606-3.009,4.681-4.808,6.729c-1.913-1.291-4.577-1.834-6.729-2.884  c-1.301-15.122-21.434-5.61-25.96-12.499c0.603,7.187-1.201-1.338-8.651,0.963c1.367-2.833,5.693-3.277,8.651-1.926  C522.386,266.947,509.483,261.582,498.981,253.818z"
   id="path10735" />
<path
   fill-rule="evenodd"
   clip-rule="evenodd"
   d="M463.407,270.161c-1.346,1.828,0.521,6.598,2.886,7.693  c-4.231,3.225-3.758-6.467-6.731-7.693c-1.42-0.029,0.181,4.837,1.925,4.806c-0.665,1.901-2.566,2.564-4.808,2.888  c-1.494-2.864-2.876-5.863,0.962-6.732c-0.972-2.708-4.084,0.266-5.77,0c0.609,3.878,4.121,4.854,3.845,9.615  c-2.147-2.66-3.739-5.872-4.806-9.615C453.795,268.614,460.205,267.064,463.407,270.161z"
   id="path10737" />
<path
   fill-rule="evenodd"
   clip-rule="evenodd"
   d="M518.211,434.565c2.355,9.396,1.487,27.906-0.962,37.495  c-7.581,5.004-18.79-0.215-21.152-8.653c3.13-6.486,5.539-13.688,7.691-21.15c-5.333-16.758-20.789-28.194-28.842-43.264  c-15.196-28.438-23.389-60.33-41.341-87.491c-2.527-17.663-12.965-27.416-13.462-47.109c7.797,17.573,10.141,36.727,20.19,53.84  c7.444,12.675,12.98,28.052,19.228,43.266c2.997,7.296,7.953,12.595,11.539,19.228c7.777,14.385,12.876,30.886,25.958,41.343  c1.903,7.969,10.477,13.521,8.653,22.111c1.279,0.449,9.458-3.292,10.575,1.925C518.889,444.217,515.7,436.543,518.211,434.565z   M508.596,446.104c4.074,0.285-0.622,4.043,1.923,4.806c0.055-0.587,0.143-1.139,0.96-0.961c1.373,0.229,1.624,1.583,2.886,1.921  c-0.216-1.816,1.083-2.12,0.96-3.846C509.955,451.526,512.926,440.449,508.596,446.104z M509.558,455.716  c-16.446,0.319-4.81,18.453,4.807,13.462c0.741-6.751,3.358-8.889,0-14.422c-0.871,1.664-3.539,2.654-3.846,0  c0.745-0.216,1.896-0.025,1.923-0.961c-2.268-1.412-1.788-2.03-4.809-0.962c1.642-1.552,0.883-4.957-0.96-5.769  C505.362,452.219,508.475,452.954,509.558,455.716z"
   id="path10739" />
<path
   fill-rule="evenodd"
   clip-rule="evenodd"
   d="M470.14,293.236c-0.127-3.122-2.296-7.265-4.808-10.576  c-2.77,0.115-6.295-0.526-7.691,0.96c0.251,2.956,2.086,4.325,2.884,6.73c-1.796,1.419-2.931-5.998-4.809-7.69  c1.929-0.987,6.428-0.831,10.577-1.923c4.817,11.206,13.6,18.449,18.267,29.805c-3.587-1.219-3.947-5.67-5.769-8.652  c-1.396,0.524-4.97-1.125-4.806,0.961C476.349,301.647,473.79,292.573,470.14,293.236z"
   id="path10741" />
<path
   fill-rule="evenodd"
   clip-rule="evenodd"
   d="M502.827,306.696c0.95,2.895,5.059,2.633,4.806,6.73  C506.519,310.833,499.824,310.398,502.827,306.696z"
   id="path10743" />
<path
   fill-rule="evenodd"
   clip-rule="evenodd"
   d="M475.906,315.347c-1.176,4.383,2.639,3.773,1.925,7.691  c-2.945-0.899-2.363-5.328-4.808-6.729c10.789-10.895,20.288,1.933,23.073,12.499c-3.353-1.134-2.441-6.533-6.729-6.73  c-3.255,2.073,3.892,4.735,0.96,6.73c-1.724-0.121-2.028,1.178-3.846,0.962c-0.424-0.856-0.843-1.721-1.923-1.924  c-0.823-3.067,1.515-2.974,1.923-4.809c-2.814-0.25-2.953,2.176-5.769,1.925c1.485,2.04,2.767,4.284,3.846,6.729  c6.189,0.74,8.491-2.404,14.422-1.922c0.146,4.339,3.362,5.61,3.846,9.612c-3.628-0.407-2.498,6.837-5.769,3.846  c3.826-3.22,2.426-6.639,0.963-11.536c-4.096-0.568-6.361,0.691-9.616,0.962c-0.082,1.365-0.158,2.723,0.963,2.884  c-4.437,0.57-9.021-6.988-10.577-12.5c3.097,2.158,5.714-2.812,10.577-1.92C489.36,313.44,481.946,312.14,475.906,315.347z"
   id="path10745" />
<path
   fill-rule="evenodd"
   clip-rule="evenodd"
   fill="#FFFFFF"
   d="M504.75,345.153c-0.02,2.863-4.536,1.232-5.769,2.883  c-0.919,4.123,2.697,3.713,2.886,6.73c-5.563-0.754-6.937,2.678-12.499,1.924c-0.943-2.903-1.964-5.728-2.886-8.654  C494.628,347.168,498.494,346.546,504.75,345.153z M489.368,348.999c-0.696,2.938,0.981,3.503,0.96,5.768  c2.555-0.01,5.49,0.362,6.73-0.96C496.688,348.367,494.535,347.817,489.368,348.999z"
   id="path10747" />
<path
   fill-rule="evenodd"
   clip-rule="evenodd"
   d="M556.667,407.645c0.952-2.453-1.463,5.585,4.808,2.885  c1.402,1.802,0.037,6.371,1.923,7.691c1.868-8.769-7.626-13.628-4.808-23.075c-0.835-2.795-1.439-1.08-3.846-0.96  c-1.221-4.425,1.749-4.662,2.885-6.731c-0.634-2.879-2.056,0.92-3.845,0c0.755-3.409,4.96-3.37,4.806-7.69  c4.876,0.391,7.214-1.759,8.653-4.807c-1.851-8.092-3.456-12.421-10.576-16.345c3.621-0.191,9.287,1.583,12.499-2.885  c-2.654,2.568,1.135,2.089,0.96,4.808c-2.265,0.021-2.83-1.654-5.768-0.962c16.825,15.073-9.316,25.995-4.807,38.459  c3.272,9.045,16.153,4.648,17.306,17.304c-2.229-1.808-4.095-3.975-7.691-1.921c0.964-1.533,0.909-3.869,2.883-1.925  c-0.252-4.233-5.703-3.267-8.651-4.806c0.117,3.562,1.398,2.419,3.846,1.922c-0.383,2.133-2.959,3.962,0,1.923  c3.089,1.086-0.925,2.745-2.885,1.923c-0.269,2.512-0.325,4.812,2.885,3.846c-0.307,2.258-2.975,2.151-3.846,3.846  c1.573,2.914,3.368,5.606,5.769,7.691c6.044-0.043,6.393-5.784,8.653-9.614c0.714,6.159-3.61,11.785-8.653,11.539  c-7.001-0.343-12.066-16.038-17.307-18.27c-1.227,5.651-10.88,13.375-15.383,6.73c-6.267,4.31-11.861,9.291-15.382,16.345  c-1.835-0.409-1.741-2.748-4.808-1.923c0.184-0.778,0.966-0.958,0.962-1.923c0.817,0.178,0.907-0.375,0.962-0.96  c4.21-0.7-0.776,1.909,1.921,1.921c-1.467-8.388,7.958-11.103,10.577-18.266c1.521-0.082,3.667,0.462,3.845-0.963  c3.261,2.102-2.586,3.091-3.845,3.846c5.795-0.305,10.533,4.593,16.344,0c-0.545-5.406,1.016-7.616-2.885-8.653  c1.35-2.377,3.313-1.696,5.771-0.96c3.349-0.495,1.408-6.281,1.921-9.614c-6.827-7.914-8.46-21.023-17.306-26.921  c8.317-2.067,12.466,19.011,19.23,25.959c0.287,5.095,0.211,9.826-2.886,11.536c0.284,1.962,2.602,1.886,2.886,3.846  C556.438,411.903,554.686,407.906,556.667,407.645z M524.94,425.914c0.1-3.153,7.632-3.842,4.808-6.732  C528.078,420.766,522.688,423.598,524.94,425.914z"
   id="path10749" />
<path
   fill-rule="evenodd"
   clip-rule="evenodd"
   fill="#FFFFFF"
   d="M529.748,419.182c2.824,2.891-4.708,3.579-4.808,6.732  C522.688,423.598,528.078,420.766,529.748,419.182z"
   id="path10751" />
<path
   fill-rule="evenodd"
   clip-rule="evenodd"
   fill="#FFFFFF"
   d="M506.673,447.064c1.843,0.812,2.602,4.217,0.96,5.769  c3.021-1.068,2.541-0.45,4.809,0.962c-0.027,0.936-1.178,0.745-1.923,0.961c0.307,2.654,2.975,1.664,3.846,0  c3.358,5.533,0.741,7.671,0,14.422c-9.616,4.991-21.253-13.143-4.807-13.462C508.475,452.954,505.362,452.219,506.673,447.064z"
   id="path10753" />
<path
   fill-rule="evenodd"
   clip-rule="evenodd"
   fill="#FFFFFF"
   d="M504.75,63.455c-4.339,6.705-11.13,9.348-16.345,15.382  c-8.802,10.187-14.299,25.242-24.998,32.689c0.415,1.509,3.024,0.822,1.925,3.846c-1.792,0.919-3.214-2.879-3.846,0  c-1.391-3.662,2.989-9.809,5.767-12.499c-4.992-1.768-7.758,6.967-8.651,12.499c-4.02-0.11-3.167-3.994-6.73,0  c4.765-14.335,20.119-39.776,31.727-48.072C488.413,63.858,499.152,57.969,504.75,63.455z"
   id="path10755" />
<path
   fill-rule="evenodd"
   clip-rule="evenodd"
   fill="#FFFFFF"
   d="M515.324,89.413c9.905,5.979,1.467,32.768-8.651,35.572  c-5.968,1.654-10.609-3.381-18.268-1.923c11.144-8.727,22.812-16.929,28.844-30.766c-7.214,2.759-7.668,11.348-12.499,16.345  c-5.825,6.023-14.633,8.904-21.152,14.421c-3.686,0.175-0.349-0.787-0.961-2.884c-4.197-1.313-2.046,3.724-5.768,2.884  c-2.354-2.267,1.436-1.789,0.962-4.807c-2.19-3.28-3.725,4.386-5.771,0.961c-4.604-0.18,1.651-1.672,0-4.807  c-4.143-1.26-1.189,4.577-4.808,3.846c7.601-21.899,24.458-42.833,45.188-54.801C520.484,66.026,523.604,84.37,515.324,89.413z   M498.981,105.756c0.014-1.587,2.666-0.538,2.886-1.922c-1.519-0.087-0.756-2.452-2.886-1.923  C498.7,102.502,496.59,105.612,498.981,105.756z M483.598,119.217c3.419,1.495,0.581-3.266,2.885-2.884  c0.214,0.749,0.804,1.118,1.923,0.961c0-0.961,0-1.922,0-2.884C485.626,114.834,484.023,116.437,483.598,119.217z"
   id="path10757" />
<path
   fill-rule="evenodd"
   clip-rule="evenodd"
   d="M77.875,85.567c7.337,5.162,6.245,18.751,9.615,27.881  c-0.106,3.404-3.178-2.043-2.884,0.961c-5.04-6.157-0.379-20.344-8.654-24.997C75.252,86.79,77.864,87.478,77.875,85.567z"
   id="path10759" />
<path
   fill-rule="evenodd"
   clip-rule="evenodd"
   fill="#FFFFFF"
   d="M390.34,81.721c7.22,13.794,9.665,27.971,27.881,31.728  c-0.338,1.263-1.691,1.512-1.923,2.884c4.577,1.716,13.224,1.708,14.422-2.884c3.502,0.664,4.435,3.898,8.651,3.845  c-4.299,11.146-6.403,22.707-3.845,38.457c-13.02-0.75-16.093,0.738-27.882,0.962c-1.422-8.985-2.394-18.809,0.963-25.959  c4.018,1.112,4.379,5.875,6.729,8.653c5.316-5.28-5.731-9.215-6.729-14.422c-7.451-1.041-9.853,2.966-16.345,2.884  c-4.589-3.901,0.804-12.616-5.769-13.459c-0.823-3.068,1.512-2.974,1.923-4.807c-1.434-3.831-4.315-1.213-6.729-2.885  c0.806-5.281,4.96-7.217,5.767-12.498c2.343,1.502,5.705,1.987,7.69,3.846c0.117-4.604-3.204-5.77-7.69-5.769  C386.203,86.558,390.488,86.356,390.34,81.721z M391.3,104.795c1.677-0.888,5.162,0.034,4.809-2.884  c-2.305-1.221-2.837-4.214-6.729-3.846C390.886,101.222,390.808,102.304,391.3,104.795z"
   id="path10761" />
<path
   fill-rule="evenodd"
   clip-rule="evenodd"
   fill="#FFFFFF"
   d="M469.178,197.092c4.244,3.769,0.63,12.443,0.962,18.268  C461.096,214.607,469.18,203.183,469.178,197.092z"
   id="path10763" />
<path
   fill-rule="evenodd"
   clip-rule="evenodd"
   fill="#FFFFFF"
   d="M460.524,254.779c-2.925-0.921-5.751-1.942-8.653-2.885  c4.131-11.572,9.232-22.173,12.499-34.611c1.791-0.919,3.213,2.879,3.845,0C470.25,228.229,463.323,242.731,460.524,254.779z   M462.447,240.357c2.376-2.582,1.836-6.592-2.886-6.729C459.39,237.885,457.825,239.715,462.447,240.357z"
   id="path10765" />
</svg>