<?xml version="1.0" encoding="UTF-8" standalone="no"?>
<!-- Created with Inkscape (http://www.inkscape.org/) -->

<svg
   xmlns:dc="http://purl.org/dc/elements/1.1/"
   xmlns:cc="http://creativecommons.org/ns#"
   xmlns:rdf="http://www.w3.org/1999/02/22-rdf-syntax-ns#"
   xmlns:svg="http://www.w3.org/2000/svg"
   xmlns="http://www.w3.org/2000/svg"
   xmlns:sodipodi="http://sodipodi.sourceforge.net/DTD/sodipodi-0.dtd"
   xmlns:inkscape="http://www.inkscape.org/namespaces/inkscape"
   width="210mm"
   height="297mm"
   viewBox="0 0 210 297"
   version="1.1"
   id="svg1570"
   inkscape:version="0.92.1 15371"
   sodipodi:docname="fidget spinner 3D.svg">
  <title
     id="title1738">fidget spinners 3d</title>
  <defs
     id="defs1564">
    <filter
       inkscape:collect="always"
       style="color-interpolation-filters:sRGB"
       id="filter1124"
       x="-0.034544963"
       width="1.0690899"
       y="-0.037582997"
       height="1.075166">
      <feGaussianBlur
         inkscape:collect="always"
         stdDeviation="2.8735399"
         id="feGaussianBlur1126" />
    </filter>
    <filter
       inkscape:collect="always"
       style="color-interpolation-filters:sRGB"
       id="filter1373"
       x="-0.053225711"
       width="1.1064514"
       y="-0.057326395"
       height="1.1146528">
      <feGaussianBlur
         inkscape:collect="always"
         stdDeviation="4.0899682"
         id="feGaussianBlur1375" />
    </filter>
  </defs>
  <sodipodi:namedview
     id="base"
     pagecolor="#ffffff"
     bordercolor="#666666"
     borderopacity="1.0"
     inkscape:pageopacity="0.0"
     inkscape:pageshadow="2"
     inkscape:zoom="0.5095679"
     inkscape:cx="396.85039"
     inkscape:cy="561.25984"
     inkscape:document-units="mm"
     inkscape:current-layer="layer1"
     showgrid="false"
     showborder="false"
     inkscape:window-width="1301"
     inkscape:window-height="744"
     inkscape:window-x="65"
     inkscape:window-y="24"
     inkscape:window-maximized="1"
     inkscape:snap-global="false"
     showguides="false" />
  <metadata
     id="metadata1567">
    <rdf:RDF>
      <cc:Work
         rdf:about="">
        <dc:format>image/svg+xml</dc:format>
        <dc:type
           rdf:resource="http://purl.org/dc/dcmitype/StillImage" />
        <dc:title>fidget spinners 3d</dc:title>
        <cc:license
           rdf:resource="http://creativecommons.org/licenses/by-nc/4.0/" />
        <dc:creator>
          <cc:Agent>
            <dc:title>www.inkscapeforum.it</dc:title>
          </cc:Agent>
        </dc:creator>
        <dc:description>fidget spinner</dc:description>
      </cc:Work>
      <cc:License
         rdf:about="http://creativecommons.org/licenses/by-nc/4.0/">
        <cc:permits
           rdf:resource="http://creativecommons.org/ns#Reproduction" />
        <cc:permits
           rdf:resource="http://creativecommons.org/ns#Distribution" />
        <cc:requires
           rdf:resource="http://creativecommons.org/ns#Notice" />
        <cc:requires
           rdf:resource="http://creativecommons.org/ns#Attribution" />
        <cc:prohibits
           rdf:resource="http://creativecommons.org/ns#CommercialUse" />
        <cc:permits
           rdf:resource="http://creativecommons.org/ns#DerivativeWorks" />
      </cc:License>
    </rdf:RDF>
  </metadata>
  <g
     inkscape:label="Layer 1"
     inkscape:groupmode="layer"
     id="layer1"
     sodipodi:insensitive="true">
    <g
       id="g1423"
       transform="matrix(0.27703504,0.21835999,-0.21835999,0.27703504,339.56495,-82.967367)">
      <path
         sodipodi:nodetypes="cssscsssssscssccscsscssccsccscccc"
         inkscape:connector-curvature="0"
         id="path1402"
         d="m -96.604144,1095.2139 c -8.210566,-3.4515 -13.767516,-7.9189 -18.353486,-14.7548 -8.43433,-12.5723 -8.95854,-27.1793 -1.46589,-40.8466 2.16492,-3.9491 2.23976,-4.4229 2.17856,-13.7944 l -0.0634,-9.7049 -2.58058,-3.5925 c -1.41931,-1.9759 -3.4775,-5.3573 -4.57376,-7.5144 -2.34099,-4.6062 -4.92833,-6.72109 -13.77012,-11.25549 -5.66275,-2.904 -7.14026,-3.3434 -11.24345,-3.3434 -20.38031,0 -37.86016,-17.0069 -38.07173,-37.0417 -0.1189,-11.25603 3.30849,-19.72308 11.14523,-27.53358 11.80769,-11.76817 27.74686,-14.65834 42.8417,-7.76829 4.84939,2.21351 13.41006,10.00251 16.85857,15.33891 1.98235,3.06759 3.87908,4.71409 8.8524,7.68451 10.604726,6.3339 10.848476,6.4213 16.452496,5.89895 2.75375,-0.25667 6.78455,-0.16932 8.95734,0.19411 3.88924,0.65055 4.05888,0.59728 10.93887,-3.43498 8.13657,-4.76872 9.99415,-6.35817 11.95331,-10.22799 2.31814,-4.57892 10.68376,-12.94722 15.53913,-15.54415 17.20178,-9.20048 37.90801,-4.19421 48.93869,11.83221 10.76518,15.64066 9.27409,35.11673 -3.71139,48.4767 -6.48715,6.6742 -13.3183,9.7488 -25.36268,11.4154 -6.14083,0.8496 -9.22357,2.1054 -18.45569,7.5178 -4.04481,2.3714 -5.67876,3.87109 -7.22622,6.63259 -1.09975,1.9626 -2.9585,5.129 -4.13052,7.0364 -2.08802,3.3981 -2.12951,3.6898 -2.05905,14.4794 l 0.0719,11.0116 3.17312,6.5241 c 2.83723,5.8335 3.21673,7.2655 3.5852,13.5284 0.22676,3.8541 0.0446,8.7719 -0.4051,10.9345 -2.2914,11.02 -10.23424,21.107 -20.71066,26.3015 -5.72852,2.8403 -6.07339,2.9108 -15.39681,3.1461 -8.70589,0.2197 -9.91779,0.081 -13.90601,-1.596 z"
         style="opacity:1;fill:#2d2d2d;fill-opacity:1;stroke:#2d2d2d;stroke-width:3;stroke-miterlimit:4;stroke-dasharray:none;stroke-opacity:1;filter:url(#filter1124)" />
      <path
         style="opacity:1;fill:#ffffff;fill-opacity:1;stroke:#2d2d2d;stroke-width:3;stroke-miterlimit:4;stroke-dasharray:none;stroke-opacity:1"
         d="m -102.67217,1092.8005 c -8.18803,-3.4515 -13.71581,-7.9189 -18.25714,-14.7548 -8.35222,-12.5723 -8.78105,-27.1793 -1.19916,-40.8466 2.19071,-3.949 2.26864,-4.4229 2.26864,-13.7944 v -9.7048 l -2.55711,-3.5925 c -1.40641,-1.9759 -3.44252,-5.3574 -4.52469,-7.5144 -2.31092,-4.60629 -4.88445,-6.72109 -13.69663,-11.25549 -5.64379,-2.9041 -7.11843,-3.3435 -11.22162,-3.3435 -20.38031,0 -37.74911,-17.0069 -37.82985,-37.04167 -0.0454,-11.25603 3.43728,-19.72308 11.32502,-27.53358 11.88454,-11.76817 27.84258,-14.65834 42.89244,-7.76829 4.83493,2.21351 13.34474,10.00251 16.75839,15.33891 1.96232,3.06759 3.8483,4.71409 8.80222,7.68451 10.563366,6.3339 10.806546,6.4213 16.413976,5.89895 2.75543,-0.25667 6.78566,-0.16932 8.95608,0.19411 3.88499,0.65055 4.05498,0.59728 10.9613,-3.43498 8.16771,-4.76872 10.03567,-6.35817 12.0201,-10.22799 2.34804,-4.57892 10.7683,-12.94722 15.64063,-15.54415 17.26186,-9.20048 37.9354,-4.19421 48.86142,11.83221 10.66305,15.64066 9.04478,35.11673 -4.02794,48.47667 -6.53073,6.6743 -13.38196,9.7489 -25.43722,11.4154 -6.14638,0.8497 -9.23732,2.1054 -18.50478,7.5179 -4.06029,2.3713 -5.70404,3.871 -7.26953,6.63259 -1.11257,1.9626 -2.99199,5.1289 -4.17647,7.0363 -2.11021,3.3981 -2.1536,3.6898 -2.1536,14.4795 v 11.0115 l 3.13052,6.5241 c 2.79913,5.8336 3.16928,7.2656 3.49686,13.5284 0.20159,3.8541 -0.0127,8.772 -0.47651,10.9346 -2.36336,11.0199 -10.37206,21.1069 -20.8824,26.3014 -5.74707,2.8404 -6.0924,2.9108 -15.41736,3.1461 -8.70732,0.2197 -9.91831,0.081 -13.895586,-1.596 z"
         id="path1404"
         inkscape:connector-curvature="0"
         sodipodi:nodetypes="cssscsssssscssccscsscssccsccscccc" />
      <path
         d="m -89.258914,946.50169 a 30.783751,30.783751 0 0 0 -30.783506,30.78352 30.783751,30.783751 0 0 0 30.783506,30.78389 30.783751,30.783751 0 0 0 30.78394,-30.78389 30.783751,30.783751 0 0 0 -30.78394,-30.78352 z m 0,12.25039 a 18.533272,18.533272 0 0 1 18.53354,18.53313 18.533272,18.533272 0 0 1 -18.53354,18.5335 18.533272,18.533272 0 0 1 -18.533096,-18.5335 18.533272,18.533272 0 0 1 18.533096,-18.53313 z m 15.39181,18.53333 a 15.391585,15.391585 0 0 1 -15.39159,15.3916 15.391585,15.391585 0 0 1 -15.391576,-15.3916 15.391585,15.391585 0 0 1 15.391576,-15.39158 15.391585,15.391585 0 0 1 15.39159,15.39158 z"
         style="opacity:1;fill:#0e232e;fill-opacity:1;stroke:none;stroke-width:0.70210028;stroke-miterlimit:4;stroke-dasharray:none;stroke-opacity:1"
         id="path1406"
         inkscape:connector-curvature="0" />
      <path
         inkscape:connector-curvature="0"
         id="path1408"
         style="opacity:1;fill:#0e232e;fill-opacity:1;stroke:none;stroke-width:0.70210028;stroke-miterlimit:4;stroke-dasharray:none;stroke-opacity:1"
         d="m -151.25691,910.76673 a 30.783751,30.783751 0 0 0 -30.78351,30.78351 30.783751,30.783751 0 0 0 30.78351,30.78397 30.783751,30.783751 0 0 0 30.78394,-30.78397 30.783751,30.783751 0 0 0 -30.78394,-30.78351 z m 0,12.2504 a 18.533272,18.533272 0 0 1 18.53354,18.53311 18.533272,18.533272 0 0 1 -18.53354,18.53353 18.533272,18.533272 0 0 1 -18.5331,-18.53353 18.533272,18.533272 0 0 1 18.5331,-18.53311 z m 15.39181,18.53332 a 15.391585,15.391585 0 0 1 -15.39159,15.39159 15.391585,15.391585 0 0 1 -15.39158,-15.39159 15.391585,15.391585 0 0 1 15.39158,-15.39158 15.391585,15.391585 0 0 1 15.39159,15.39158 z" />
      <path
         d="m -27.260914,909.4751 a 30.783751,30.783751 0 0 0 -30.78351,30.78352 30.783751,30.783751 0 0 0 30.78351,30.78399 30.783751,30.783751 0 0 0 30.78394,-30.78399 30.783751,30.783751 0 0 0 -30.78394,-30.78352 z m 0,12.2504 a 18.533272,18.533272 0 0 1 18.53354,18.53312 18.533272,18.533272 0 0 1 -18.53354,18.53353 18.533272,18.533272 0 0 1 -18.5331,-18.53353 18.533272,18.533272 0 0 1 18.5331,-18.53312 z m 15.39181,18.53333 a 15.391585,15.391585 0 0 1 -15.39159,15.39159 15.391585,15.391585 0 0 1 -15.39158,-15.39159 15.391585,15.391585 0 0 1 15.39158,-15.39158 15.391585,15.391585 0 0 1 15.39159,15.39158 z"
         style="opacity:1;fill:#0e232e;fill-opacity:1;stroke:none;stroke-width:0.70210028;stroke-miterlimit:4;stroke-dasharray:none;stroke-opacity:1"
         id="path1410"
         inkscape:connector-curvature="0" />
      <path
         inkscape:connector-curvature="0"
         id="path1412"
         style="opacity:1;fill:#0e232e;fill-opacity:1;stroke:none;stroke-width:0.70210028;stroke-miterlimit:4;stroke-dasharray:none;stroke-opacity:1"
         d="m -89.258914,1017.5411 a 30.783751,30.783751 0 0 0 -30.783506,30.7834 30.783751,30.783751 0 0 0 30.783506,30.784 30.783751,30.783751 0 0 0 30.78394,-30.784 30.783751,30.783751 0 0 0 -30.78394,-30.7834 z m 0,12.2504 a 18.533272,18.533272 0 0 1 18.53354,18.533 18.533272,18.533272 0 0 1 -18.53354,18.5335 18.533272,18.533272 0 0 1 -18.533096,-18.5335 18.533272,18.533272 0 0 1 18.533096,-18.533 z m 15.39181,18.5332 a 15.391585,15.391585 0 0 1 -15.39159,15.3916 15.391585,15.391585 0 0 1 -15.391576,-15.3916 15.391585,15.391585 0 0 1 15.391576,-15.3915 15.391585,15.391585 0 0 1 15.39159,15.3915 z" />
      <path
         transform="matrix(0.99986736,0,0,1.0026267,-171.69287,45.833815)"
         sodipodi:nodetypes="cssscsssssscssccscsscssccsccscccc"
         inkscape:connector-curvature="0"
         id="path1414"
         d="m 70.836827,1028.5819 c -7.563648,-3.2206 -0.373536,-5.5923 -7.822361,-7.3266 -17.188491,-4.0022 6.766401,-34.52161 -7.997297,-34.25053 -4.2122,0.0773 1.823503,-4.20044 2.956841,-12.87177 0.389457,-2.97978 4.678485,-6.34363 -5.167185,-10.34411 l -2.362116,-3.35225 c -1.299164,-1.84375 4.140169,-5.42852 0.126329,-7.01186 -4.47259,-1.7643 -4.148235,-6.46209 -8.776798,-14.36749 -4.352224,-7.43343 -13.143825,0.26467 -15.963696,-2.26108 -11.506022,-10.30593 -32.7175446,-12.86363 -32.7921266,-31.55848 -0.04194,-10.50333 -1.561418,-18.40409 5.7248401,-25.69225 10.9782803,-10.98119 28.7336245,-8.09571 42.6358505,-1.6664 4.466241,2.06547 1.992762,6.75708 5.146103,11.73661 1.812683,2.86244 6.999636,15.993 11.575793,18.76475 9.757856,5.91031 10.413092,-3.45524 15.592925,-3.9426 2.545314,-0.23954 9.713007,-5.31104 11.717921,-4.97185 3.588738,0.607 16.25249,33.4943 17.87622,8.38888 0.56419,-8.72332 10.5622,-10.22712 12.3953,-13.83812 2.16899,-4.27268 8.15996,-19.42395 13.15616,-20.51644 41.44887,-9.0634 28.58363,2.5275 38.67648,17.48219 9.84988,14.59467 7.06327,25.03878 -5.01258,37.50531 -6.03273,6.22785 -14.08392,5.23211 -25.2199,6.78716 -5.67769,0.79287 -7.67172,2.82341 -16.23249,7.87394 -3.75067,2.21272 -5.69967,1.89457 -7.14579,4.47139 -1.02773,1.83135 -1.47203,9.50945 -2.56619,11.28929 -1.94929,3.17084 -8.77219,1.29307 -5.86477,10.93467 l 3.87539,12.85158 2.8918,6.08788 c 2.58568,5.44338 -0.94778,6.77961 -0.64518,12.62368 0.18622,3.5964 3.86369,8.1854 3.43522,10.2033 -2.18314,10.283 -10.87294,10.2483 -20.581802,15.0954 -5.308826,2.6504 -3.474829,3.1456 -12.08871,3.3651 -8.04334,0.205 -7.87019,0.076 -11.544181,-1.4893 z"
         style="opacity:1;fill:none;fill-opacity:1;stroke:#ffffff;stroke-width:2.7852664;stroke-miterlimit:4;stroke-dasharray:none;stroke-opacity:1;filter:url(#filter1373)" />
    </g>
    <g
       id="g2023">
      <g
         transform="matrix(0.34602295,-0.06853919,0.06853919,0.34602295,102.56537,-238.88332)"
         id="g1478">
        <path
           sodipodi:nodetypes="cssscsssssscssccscsscssccsccscccc"
           inkscape:connector-curvature="0"
           id="path1379"
           d="m -340.15528,984.39814 c -8.21057,-3.4515 -13.76752,-7.9189 -18.35349,-14.7548 -8.43433,-12.5723 -8.95854,-27.1793 -1.46589,-40.8466 2.16492,-3.9491 2.23976,-4.4229 2.17856,-13.7944 l -0.0634,-9.7049 -2.58058,-3.5925 c -1.41931,-1.9759 -3.4775,-5.3573 -4.57376,-7.5144 -2.34099,-4.6062 -4.92833,-6.7211 -13.77012,-11.2555 -5.66275,-2.904 -7.14026,-3.3434 -11.24345,-3.3434 -20.38031,0 -37.86016,-17.0069 -38.07173,-37.0417 -0.1189,-11.25603 3.30849,-19.72308 11.14523,-27.53358 11.80769,-11.76817 27.74686,-14.65834 42.8417,-7.76829 4.84939,2.21351 13.41006,10.00251 16.85857,15.33891 1.98235,3.06759 3.87908,4.71409 8.8524,7.68451 10.60473,6.3339 10.84848,6.4213 16.4525,5.89895 2.75375,-0.25667 6.78455,-0.16932 8.95734,0.19411 3.88924,0.65055 4.05888,0.59728 10.93887,-3.43498 8.13657,-4.76872 9.99415,-6.35817 11.95331,-10.22799 2.31814,-4.57892 10.68376,-12.94722 15.53913,-15.54415 17.20178,-9.20048 37.90801,-4.19421 48.93869,11.83221 10.76518,15.64066 9.27409,35.11673 -3.71139,48.4767 -6.48715,6.6742 -13.3183,9.7488 -25.36268,11.4154 -6.14083,0.8496 -9.22357,2.1054 -18.45569,7.5178 -4.04481,2.3714 -5.67876,3.8711 -7.22622,6.6326 -1.09975,1.9626 -2.9585,5.129 -4.13052,7.0364 -2.08802,3.3981 -2.12951,3.6898 -2.05905,14.4794 l 0.0719,11.0116 3.17312,6.5241 c 2.83723,5.8335 3.21673,7.2655 3.5852,13.5284 0.22676,3.8541 0.0446,8.7719 -0.4051,10.9345 -2.2914,11.02 -10.23424,21.107 -20.71066,26.3015 -5.72852,2.8403 -6.07339,2.9108 -15.39681,3.1461 -8.70589,0.2197 -9.91779,0.081 -13.90601,-1.596 z"
           style="opacity:1;fill:#2d2d2d;fill-opacity:1;stroke:#2d2d2d;stroke-width:3;stroke-miterlimit:4;stroke-dasharray:none;stroke-opacity:1;filter:url(#filter1124)" />
        <path
           style="opacity:1;fill:#009100;fill-opacity:1;stroke:#009100;stroke-width:3;stroke-miterlimit:4;stroke-dasharray:none;stroke-opacity:1"
           d="m -346.22331,981.98474 c -8.18803,-3.4515 -13.71581,-7.9189 -18.25714,-14.7548 -8.35222,-12.5723 -8.78105,-27.1793 -1.19916,-40.8466 2.19071,-3.949 2.26864,-4.4229 2.26864,-13.7944 v -9.7048 l -2.55711,-3.5925 c -1.40641,-1.9759 -3.44252,-5.3574 -4.52469,-7.5144 -2.31092,-4.6063 -4.88445,-6.7211 -13.69663,-11.2555 -5.64379,-2.9041 -7.11843,-3.3435 -11.22162,-3.3435 -20.38031,0 -37.74911,-17.0069 -37.82985,-37.04167 -0.0454,-11.25603 3.43728,-19.72308 11.32502,-27.53358 11.88454,-11.76817 27.84258,-14.65834 42.89244,-7.76829 4.83493,2.21351 13.34474,10.00251 16.75839,15.33891 1.96232,3.06759 3.8483,4.71409 8.80222,7.68451 10.56337,6.3339 10.80655,6.4213 16.41398,5.89895 2.75543,-0.25667 6.78566,-0.16932 8.95608,0.19411 3.88499,0.65055 4.05498,0.59728 10.9613,-3.43498 8.16771,-4.76872 10.03567,-6.35817 12.0201,-10.22799 2.34804,-4.57892 10.7683,-12.94722 15.64063,-15.54415 17.26186,-9.20048 37.9354,-4.19421 48.86142,11.83221 10.66305,15.64066 9.04478,35.11673 -4.02794,48.47667 -6.53073,6.6743 -13.38196,9.7489 -25.43722,11.4154 -6.14638,0.8497 -9.23732,2.1054 -18.50478,7.5179 -4.06029,2.3713 -5.70404,3.871 -7.26953,6.6326 -1.11257,1.9626 -2.99199,5.1289 -4.17647,7.0363 -2.11021,3.3981 -2.1536,3.6898 -2.1536,14.4795 v 11.0115 l 3.13052,6.5241 c 2.79913,5.8336 3.16928,7.2656 3.49686,13.5284 0.20159,3.8541 -0.0127,8.772 -0.47651,10.9346 -2.36336,11.0199 -10.37206,21.1069 -20.8824,26.3014 -5.74707,2.8404 -6.0924,2.9108 -15.41736,3.1461 -8.70732,0.2197 -9.91831,0.081 -13.89559,-1.596 z"
           id="path1381"
           inkscape:connector-curvature="0"
           sodipodi:nodetypes="cssscsssssscssccscsscssccsccscccc" />
        <path
           d="m -332.81005,835.68592 a 30.783751,30.783751 0 0 0 -30.78351,30.78352 30.783751,30.783751 0 0 0 30.78351,30.7839 30.783751,30.783751 0 0 0 30.78394,-30.7839 30.783751,30.783751 0 0 0 -30.78394,-30.78352 z m 0,12.25039 a 18.533272,18.533272 0 0 1 18.53354,18.53313 18.533272,18.533272 0 0 1 -18.53354,18.5335 18.533272,18.533272 0 0 1 -18.5331,-18.5335 18.533272,18.533272 0 0 1 18.5331,-18.53313 z m 15.39181,18.53333 a 15.391585,15.391585 0 0 1 -15.39159,15.3916 15.391585,15.391585 0 0 1 -15.39158,-15.3916 15.391585,15.391585 0 0 1 15.39158,-15.39158 15.391585,15.391585 0 0 1 15.39159,15.39158 z"
           style="opacity:1;fill:#0e232e;fill-opacity:1;stroke:none;stroke-width:0.70210028;stroke-miterlimit:4;stroke-dasharray:none;stroke-opacity:1"
           id="path1383"
           inkscape:connector-curvature="0" />
        <path
           inkscape:connector-curvature="0"
           id="path1385"
           style="opacity:1;fill:#0e232e;fill-opacity:1;stroke:none;stroke-width:0.70210028;stroke-miterlimit:4;stroke-dasharray:none;stroke-opacity:1"
           d="m -394.80805,799.95096 a 30.783751,30.783751 0 0 0 -30.78351,30.78351 30.783751,30.783751 0 0 0 30.78351,30.78397 30.783751,30.783751 0 0 0 30.78394,-30.78397 30.783751,30.783751 0 0 0 -30.78394,-30.78351 z m 0,12.2504 a 18.533272,18.533272 0 0 1 18.53354,18.53311 18.533272,18.533272 0 0 1 -18.53354,18.53353 18.533272,18.533272 0 0 1 -18.5331,-18.53353 18.533272,18.533272 0 0 1 18.5331,-18.53311 z m 15.39181,18.53332 a 15.391585,15.391585 0 0 1 -15.39159,15.39159 15.391585,15.391585 0 0 1 -15.39158,-15.39159 15.391585,15.391585 0 0 1 15.39158,-15.39158 15.391585,15.391585 0 0 1 15.39159,15.39158 z" />
        <path
           d="m -270.81205,798.65933 a 30.783751,30.783751 0 0 0 -30.78351,30.78352 30.783751,30.783751 0 0 0 30.78351,30.78399 30.783751,30.783751 0 0 0 30.78394,-30.78399 30.783751,30.783751 0 0 0 -30.78394,-30.78352 z m 0,12.2504 a 18.533272,18.533272 0 0 1 18.53354,18.53312 18.533272,18.533272 0 0 1 -18.53354,18.53353 18.533272,18.533272 0 0 1 -18.5331,-18.53353 18.533272,18.533272 0 0 1 18.5331,-18.53312 z m 15.39181,18.53333 a 15.391585,15.391585 0 0 1 -15.39159,15.39159 15.391585,15.391585 0 0 1 -15.39158,-15.39159 15.391585,15.391585 0 0 1 15.39158,-15.39158 15.391585,15.391585 0 0 1 15.39159,15.39158 z"
           style="opacity:1;fill:#0e232e;fill-opacity:1;stroke:none;stroke-width:0.70210028;stroke-miterlimit:4;stroke-dasharray:none;stroke-opacity:1"
           id="path1387"
           inkscape:connector-curvature="0" />
        <path
           inkscape:connector-curvature="0"
           id="path1389"
           style="opacity:1;fill:#0e232e;fill-opacity:1;stroke:none;stroke-width:0.70210028;stroke-miterlimit:4;stroke-dasharray:none;stroke-opacity:1"
           d="m -332.81005,906.72534 a 30.783751,30.783751 0 0 0 -30.78351,30.7834 30.783751,30.783751 0 0 0 30.78351,30.784 30.783751,30.783751 0 0 0 30.78394,-30.784 30.783751,30.783751 0 0 0 -30.78394,-30.7834 z m 0,12.2504 a 18.533272,18.533272 0 0 1 18.53354,18.533 18.533272,18.533272 0 0 1 -18.53354,18.5335 18.533272,18.533272 0 0 1 -18.5331,-18.5335 18.533272,18.533272 0 0 1 18.5331,-18.533 z m 15.39181,18.5332 a 15.391585,15.391585 0 0 1 -15.39159,15.3916 15.391585,15.391585 0 0 1 -15.39158,-15.3916 15.391585,15.391585 0 0 1 15.39158,-15.3915 15.391585,15.391585 0 0 1 15.39159,15.3915 z" />
        <path
           transform="matrix(0.99986736,0,0,1.0026267,-415.24401,-64.981952)"
           sodipodi:nodetypes="cssscsssssscssccscsscssccsccscccc"
           inkscape:connector-curvature="0"
           id="path1391"
           d="m 70.836827,1028.5819 c -7.563648,-3.2206 -0.373536,-5.5923 -7.822361,-7.3266 -17.188491,-4.0022 6.766401,-34.52161 -7.997297,-34.25053 -4.2122,0.0773 1.823503,-4.20044 2.956841,-12.87177 0.389457,-2.97978 4.678485,-6.34363 -5.167185,-10.34411 l -2.362116,-3.35225 c -1.299164,-1.84375 4.140169,-5.42852 0.126329,-7.01186 -4.47259,-1.7643 -4.148235,-6.46209 -8.776798,-14.36749 -4.352224,-7.43343 -13.143825,0.26467 -15.963696,-2.26108 -11.506022,-10.30593 -32.7175446,-12.86363 -32.7921266,-31.55848 -0.04194,-10.50333 -1.561418,-18.40409 5.7248401,-25.69225 10.9782803,-10.98119 28.7336245,-8.09571 42.6358505,-1.6664 4.466241,2.06547 1.992762,6.75708 5.146103,11.73661 1.812683,2.86244 6.999636,15.993 11.575793,18.76475 9.757856,5.91031 10.413092,-3.45524 15.592925,-3.9426 2.545314,-0.23954 9.713007,-5.31104 11.717921,-4.97185 3.588738,0.607 16.25249,33.4943 17.87622,8.38888 0.56419,-8.72332 10.5622,-10.22712 12.3953,-13.83812 2.16899,-4.27268 8.15996,-19.42395 13.15616,-20.51644 41.44887,-9.0634 28.58363,2.5275 38.67648,17.48219 9.84988,14.59467 7.06327,25.03878 -5.01258,37.50531 -6.03273,6.22785 -14.08392,5.23211 -25.2199,6.78716 -5.67769,0.79287 -7.67172,2.82341 -16.23249,7.87394 -3.75067,2.21272 -5.69967,1.89457 -7.14579,4.47139 -1.02773,1.83135 -1.47203,9.50945 -2.56619,11.28929 -1.94929,3.17084 -8.77219,1.29307 -5.86477,10.93467 l 3.87539,12.85158 2.8918,6.08788 c 2.58568,5.44338 -0.94778,6.77961 -0.64518,12.62368 0.18622,3.5964 3.86369,8.1854 3.43522,10.2033 -2.18314,10.283 -10.87294,10.2483 -20.581802,15.0954 -5.308826,2.6504 -3.474829,3.1456 -12.08871,3.3651 -8.04334,0.205 -7.87019,0.076 -11.544181,-1.4893 z"
           style="opacity:1;fill:none;fill-opacity:1;stroke:#ffffff;stroke-width:2.7852664;stroke-miterlimit:4;stroke-dasharray:none;stroke-opacity:1;filter:url(#filter1373)" />
      </g>
      <g
         transform="matrix(0.35274566,0,0,0.35274566,150.17494,-253.32354)"
         id="g1446">
        <path
           style="opacity:1;fill:#2d2d2d;fill-opacity:1;stroke:#2d2d2d;stroke-width:3;stroke-miterlimit:4;stroke-dasharray:none;stroke-opacity:1;filter:url(#filter1124)"
           d="m -293.88056,1254.7399 c -8.21057,-3.4515 -13.76752,-7.9189 -18.35349,-14.7548 -8.43433,-12.5723 -8.95854,-27.1793 -1.46589,-40.8466 2.16492,-3.9491 2.23976,-4.4229 2.17856,-13.7944 l -0.0634,-9.7049 -2.58058,-3.5925 c -1.41931,-1.9759 -3.4775,-5.3573 -4.57376,-7.5144 -2.34099,-4.6062 -4.92833,-6.7211 -13.77012,-11.2555 -5.66275,-2.904 -7.14026,-3.3434 -11.24345,-3.3434 -20.38031,0 -37.86016,-17.0069 -38.07173,-37.0417 -0.1189,-11.256 3.30849,-19.7231 11.14523,-27.5336 11.80769,-11.7681 27.74686,-14.6583 42.8417,-7.7683 4.84939,2.2135 13.41006,10.0025 16.85857,15.3389 1.98235,3.0676 3.87908,4.7141 8.8524,7.6846 10.60473,6.3339 10.84848,6.4213 16.4525,5.8989 2.75375,-0.2567 6.78455,-0.1693 8.95734,0.1941 3.88924,0.6506 4.05888,0.5973 10.93887,-3.435 8.13657,-4.7687 9.99415,-6.3581 11.95331,-10.228 2.31814,-4.5789 10.68376,-12.9472 15.53913,-15.5441 17.20178,-9.2005 37.90801,-4.1942 48.93869,11.8322 10.76518,15.6407 9.27409,35.1167 -3.71139,48.4767 -6.48715,6.6742 -13.3183,9.7488 -25.36268,11.4154 -6.14083,0.8496 -9.22357,2.1054 -18.45569,7.5178 -4.04481,2.3714 -5.67876,3.8711 -7.22622,6.6326 -1.09975,1.9626 -2.9585,5.129 -4.13052,7.0364 -2.08802,3.3981 -2.12951,3.6898 -2.05905,14.4794 l 0.0719,11.0116 3.17312,6.5241 c 2.83723,5.8335 3.21673,7.2655 3.5852,13.5284 0.22676,3.8541 0.0446,8.7719 -0.4051,10.9345 -2.2914,11.02 -10.23424,21.107 -20.71066,26.3015 -5.72852,2.8403 -6.07339,2.9108 -15.39681,3.1461 -8.70589,0.2197 -9.91779,0.081 -13.90601,-1.596 z"
           id="path1425"
           inkscape:connector-curvature="0"
           sodipodi:nodetypes="cssscsssssscssccscsscssccsccscccc" />
        <path
           sodipodi:nodetypes="cssscsssssscssccscsscssccsccscccc"
           inkscape:connector-curvature="0"
           id="path1427"
           d="m -299.94859,1252.3265 c -8.18803,-3.4515 -13.71581,-7.9189 -18.25714,-14.7548 -8.35222,-12.5723 -8.78105,-27.1793 -1.19916,-40.8466 2.19071,-3.949 2.26864,-4.4229 2.26864,-13.7944 v -9.7048 l -2.55711,-3.5925 c -1.40641,-1.9759 -3.44252,-5.3574 -4.52469,-7.5144 -2.31092,-4.6063 -4.88445,-6.7211 -13.69663,-11.2555 -5.64379,-2.9041 -7.11843,-3.3435 -11.22162,-3.3435 -20.38031,0 -37.74911,-17.0069 -37.82985,-37.0417 -0.0454,-11.256 3.43728,-19.723 11.32502,-27.5335 11.88454,-11.7682 27.84258,-14.6584 42.89244,-7.7683 4.83493,2.2135 13.34474,10.0025 16.75839,15.3389 1.96232,3.0676 3.8483,4.7141 8.80222,7.6845 10.56337,6.3339 10.80655,6.4213 16.41398,5.8989 2.75543,-0.2566 6.78566,-0.1693 8.95608,0.1941 3.88499,0.6506 4.05498,0.5973 10.9613,-3.4349 8.16771,-4.7688 10.03567,-6.3582 12.0201,-10.228 2.34804,-4.5789 10.7683,-12.9472 15.64063,-15.5442 17.26186,-9.2005 37.9354,-4.1942 48.86142,11.8322 10.66305,15.6407 9.04478,35.1168 -4.02794,48.4767 -6.53073,6.6743 -13.38196,9.7489 -25.43722,11.4154 -6.14638,0.8497 -9.23732,2.1054 -18.50478,7.5179 -4.06029,2.3713 -5.70404,3.871 -7.26953,6.6326 -1.11257,1.9626 -2.99199,5.1289 -4.17647,7.0363 -2.11021,3.3981 -2.1536,3.6898 -2.1536,14.4795 v 11.0115 l 3.13052,6.5241 c 2.79913,5.8336 3.16928,7.2656 3.49686,13.5284 0.20159,3.8541 -0.0127,8.772 -0.47651,10.9346 -2.36336,11.0199 -10.37206,21.1069 -20.8824,26.3014 -5.74707,2.8404 -6.0924,2.9108 -15.41736,3.1461 -8.70732,0.2197 -9.91831,0.081 -13.89559,-1.596 z"
           style="opacity:1;fill:#dc0000;fill-opacity:1;stroke:#dc0000;stroke-width:3;stroke-miterlimit:4;stroke-dasharray:none;stroke-opacity:1" />
        <path
           inkscape:connector-curvature="0"
           id="path1429"
           style="opacity:1;fill:#0e232e;fill-opacity:1;stroke:none;stroke-width:0.70210028;stroke-miterlimit:4;stroke-dasharray:none;stroke-opacity:1"
           d="m -286.53533,1106.0277 a 30.783751,30.783751 0 0 0 -30.78351,30.7835 30.783751,30.783751 0 0 0 30.78351,30.7839 30.783751,30.783751 0 0 0 30.78394,-30.7839 30.783751,30.783751 0 0 0 -30.78394,-30.7835 z m 0,12.2504 a 18.533272,18.533272 0 0 1 18.53354,18.5331 18.533272,18.533272 0 0 1 -18.53354,18.5335 18.533272,18.533272 0 0 1 -18.5331,-18.5335 18.533272,18.533272 0 0 1 18.5331,-18.5331 z m 15.39181,18.5333 a 15.391585,15.391585 0 0 1 -15.39159,15.3916 15.391585,15.391585 0 0 1 -15.39158,-15.3916 15.391585,15.391585 0 0 1 15.39158,-15.3916 15.391585,15.391585 0 0 1 15.39159,15.3916 z" />
        <path
           d="m -348.53333,1070.2927 a 30.783751,30.783751 0 0 0 -30.78351,30.7835 30.783751,30.783751 0 0 0 30.78351,30.784 30.783751,30.783751 0 0 0 30.78394,-30.784 30.783751,30.783751 0 0 0 -30.78394,-30.7835 z m 0,12.2504 a 18.533272,18.533272 0 0 1 18.53354,18.5331 18.533272,18.533272 0 0 1 -18.53354,18.5336 18.533272,18.533272 0 0 1 -18.5331,-18.5336 18.533272,18.533272 0 0 1 18.5331,-18.5331 z m 15.39181,18.5333 a 15.391585,15.391585 0 0 1 -15.39159,15.3916 15.391585,15.391585 0 0 1 -15.39158,-15.3916 15.391585,15.391585 0 0 1 15.39158,-15.3915 15.391585,15.391585 0 0 1 15.39159,15.3915 z"
           style="opacity:1;fill:#0e232e;fill-opacity:1;stroke:none;stroke-width:0.70210028;stroke-miterlimit:4;stroke-dasharray:none;stroke-opacity:1"
           id="path1431"
           inkscape:connector-curvature="0" />
        <path
           inkscape:connector-curvature="0"
           id="path1433"
           style="opacity:1;fill:#0e232e;fill-opacity:1;stroke:none;stroke-width:0.70210028;stroke-miterlimit:4;stroke-dasharray:none;stroke-opacity:1"
           d="m -224.53733,1069.0011 a 30.783751,30.783751 0 0 0 -30.78351,30.7835 30.783751,30.783751 0 0 0 30.78351,30.784 30.783751,30.783751 0 0 0 30.78394,-30.784 30.783751,30.783751 0 0 0 -30.78394,-30.7835 z m 0,12.2504 a 18.533272,18.533272 0 0 1 18.53354,18.5331 18.533272,18.533272 0 0 1 -18.53354,18.5335 18.533272,18.533272 0 0 1 -18.5331,-18.5335 18.533272,18.533272 0 0 1 18.5331,-18.5331 z m 15.39181,18.5333 a 15.391585,15.391585 0 0 1 -15.39159,15.3916 15.391585,15.391585 0 0 1 -15.39158,-15.3916 15.391585,15.391585 0 0 1 15.39158,-15.3916 15.391585,15.391585 0 0 1 15.39159,15.3916 z" />
        <path
           d="m -286.53533,1177.0671 a 30.783751,30.783751 0 0 0 -30.78351,30.7834 30.783751,30.783751 0 0 0 30.78351,30.784 30.783751,30.783751 0 0 0 30.78394,-30.784 30.783751,30.783751 0 0 0 -30.78394,-30.7834 z m 0,12.2504 a 18.533272,18.533272 0 0 1 18.53354,18.533 18.533272,18.533272 0 0 1 -18.53354,18.5335 18.533272,18.533272 0 0 1 -18.5331,-18.5335 18.533272,18.533272 0 0 1 18.5331,-18.533 z m 15.39181,18.5332 a 15.391585,15.391585 0 0 1 -15.39159,15.3916 15.391585,15.391585 0 0 1 -15.39158,-15.3916 15.391585,15.391585 0 0 1 15.39158,-15.3915 15.391585,15.391585 0 0 1 15.39159,15.3915 z"
           style="opacity:1;fill:#0e232e;fill-opacity:1;stroke:none;stroke-width:0.70210028;stroke-miterlimit:4;stroke-dasharray:none;stroke-opacity:1"
           id="path1435"
           inkscape:connector-curvature="0" />
        <path
           style="opacity:1;fill:none;fill-opacity:1;stroke:#ffffff;stroke-width:2.7852664;stroke-miterlimit:4;stroke-dasharray:none;stroke-opacity:1;filter:url(#filter1373)"
           d="m 70.836827,1028.5819 c -7.563648,-3.2206 -0.373536,-5.5923 -7.822361,-7.3266 -17.188491,-4.0022 6.766401,-34.52161 -7.997297,-34.25053 -4.2122,0.0773 1.823503,-4.20044 2.956841,-12.87177 0.389457,-2.97978 4.678485,-6.34363 -5.167185,-10.34411 l -2.362116,-3.35225 c -1.299164,-1.84375 4.140169,-5.42852 0.126329,-7.01186 -4.47259,-1.7643 -4.148235,-6.46209 -8.776798,-14.36749 -4.352224,-7.43343 -13.143825,0.26467 -15.963696,-2.26108 -11.506022,-10.30593 -32.7175446,-12.86363 -32.7921266,-31.55848 -0.04194,-10.50333 -1.561418,-18.40409 5.7248401,-25.69225 10.9782803,-10.98119 28.7336245,-8.09571 42.6358505,-1.6664 4.466241,2.06547 1.992762,6.75708 5.146103,11.73661 1.812683,2.86244 6.999636,15.993 11.575793,18.76475 9.757856,5.91031 -2.074272,-9.46703 3.105561,-9.95439 2.545314,-0.23954 19.616778,4.56547 21.621692,4.90466 3.588738,0.607 18.836083,29.62958 20.459813,4.52416 0.56419,-8.72332 10.9928,-22.2507 12.8259,-25.8617 2.16899,-4.27268 7.72936,-7.40037 12.72556,-8.49286 41.44887,-9.0634 28.58363,2.5275 38.67648,17.48219 9.84988,14.59467 7.06327,25.03878 -5.01258,37.50531 -6.03273,6.22785 -14.08392,5.23211 -25.2199,6.78716 -5.67769,0.79287 -7.67172,2.82341 -16.23249,7.87394 -3.75067,2.21272 -5.69967,1.89457 -7.14579,4.47139 -1.02773,1.83135 -1.47203,9.50945 -2.56619,11.28929 -1.94929,3.17084 -8.77219,1.29307 -5.86477,10.93467 l 3.87539,12.85158 2.8918,6.08788 c 2.58568,5.44338 -0.94778,6.77961 -0.64518,12.62368 0.18622,3.5964 3.86369,8.1854 3.43522,10.2033 -2.18314,10.283 -6.13635,17.1189 -15.845216,21.966 -5.308826,2.6504 -13.413835,15.298 -16.825296,-3.5055 -8.04334,0.205 -7.87019,0.076 -11.544181,-1.4893 z"
           id="path1437"
           inkscape:connector-curvature="0"
           sodipodi:nodetypes="cssscsssssscssccscsscssccsccscccc"
           transform="matrix(0.99986736,0,0,1.0026267,-368.96929,205.35981)" />
      </g>
      <g
         transform="translate(-35.151786,39.309524)"
         id="g1947">
        <path
           style="opacity:1;fill:#2d2d2d;fill-opacity:1;stroke:#2d2d2d;stroke-width:3;stroke-miterlimit:4;stroke-dasharray:none;stroke-opacity:1;filter:url(#filter1124)"
           d="m 201.746,966.74073 c -8.21057,-3.4515 -13.76752,-7.9189 -18.35349,-14.7548 -8.43433,-12.5723 -8.95854,-27.1793 -1.46589,-40.84666 2.16492,-3.94905 2.23976,-4.4229 2.17856,-13.79438 l -0.0634,-9.70486 -2.58058,-3.59252 c -1.41931,-1.97589 -3.4775,-5.35737 -4.57376,-7.5144 -2.34099,-4.60623 -4.92833,-6.72108 -13.77012,-11.2555 -5.66275,-2.90407 -7.14026,-3.34344 -11.24345,-3.34344 -20.38031,0 -37.86016,-17.00693 -38.07173,-37.04168 -0.1189,-11.25603 3.30849,-19.72308 11.14523,-27.53358 11.80769,-11.76817 27.74686,-14.65834 42.8417,-7.76829 4.84939,2.21351 13.41006,10.00251 16.85857,15.33891 1.98235,3.06759 3.87908,4.71409 8.8524,7.68451 10.60473,6.3339 10.84848,6.4213 16.4525,5.89895 2.75375,-0.25667 6.78455,-0.16932 8.95734,0.19411 3.88924,0.65055 4.05888,0.59728 10.93887,-3.43498 8.13657,-4.76872 9.99415,-6.35817 11.95331,-10.22799 2.31814,-4.57892 10.68376,-12.94722 15.53913,-15.54415 17.20178,-9.20048 37.90801,-4.19421 48.93869,11.83221 10.76518,15.64066 9.27409,35.11673 -3.71139,48.4767 -6.48715,6.67424 -13.3183,9.74883 -25.36268,11.41535 -6.14083,0.84967 -9.22357,2.10542 -18.45569,7.51789 -4.04481,2.37134 -5.67876,3.87107 -7.22622,6.63258 -1.09975,1.96261 -2.9585,5.12896 -4.13052,7.03634 -2.08802,3.3981 -2.12951,3.68981 -2.05905,14.47948 l 0.0719,11.01152 3.17312,6.52415 c 2.83723,5.83353 3.21673,7.26553 3.5852,13.52843 0.22676,3.8541 0.0446,8.7719 -0.4051,10.9345 -2.2914,11.02 -10.23424,21.107 -20.71066,26.3015 -5.72852,2.8403 -6.07339,2.9108 -15.39681,3.1461 -8.70589,0.2197 -9.91779,0.081 -13.90601,-1.596 z"
           id="path1188"
           inkscape:connector-curvature="0"
           sodipodi:nodetypes="cssscsssssscssccscsscssccsccscccc"
           transform="matrix(0.34986107,0.04501923,-0.04501923,0.34986107,97.930118,-248.42496)" />
        <path
           sodipodi:nodetypes="cssscsssssscssccscsscssccsccscccc"
           inkscape:connector-curvature="0"
           id="path1190"
           d="m 122.97695,97.764899 c -2.70929,-1.57616 -4.44213,-3.38799 -5.72321,-5.98405 -2.35613,-4.77457 -1.84856,-9.90429 1.41934,-14.34463 0.94423,-1.283 0.99282,-1.44527 1.41472,-4.72398 l 0.43691,-3.39536 -0.7329,-1.372 c -0.4031,-0.7546 -0.96322,-2.02931 -1.24472,-2.83269 -0.60114,-1.71558 -1.40631,-2.57134 -4.28521,-4.554476 -1.8438,-1.2701 -2.33994,-1.490206 -3.77549,-1.674929 -7.13027,-0.917505 -12.441303,-7.649498 -11.567601,-14.662512 0.490854,-3.940091 2.090491,-6.745594 5.201721,-9.123084 4.68774,-3.582192 10.40095,-3.874931 15.35612,-0.786838 1.5919,0.992086 4.2185,4.100259 5.17257,6.120938 0.54844,1.161572 1.13414,1.822524 2.7336,3.08478 3.41056,2.691539 3.49171,2.733065 5.47705,2.802757 0.97557,0.03425 2.38166,0.246247 3.12464,0.471108 1.32992,0.402501 1.39179,0.391517 3.98957,-0.708297 3.07225,-1.300685 3.79733,-1.772678 4.66582,-3.03724 1.02763,-1.496279 4.35029,-4.044947 6.17184,-4.734164 6.45345,-2.441774 13.46094,0.240432 16.56203,6.339334 3.02646,5.9521 1.58349,12.693165 -3.5916,16.778775 -2.58532,2.041048 -5.12071,2.808288 -9.41341,2.848618 -2.18863,0.0206 -3.32656,0.32075 -6.81255,1.79715 -1.52729,0.64685 -2.16989,1.09755 -2.84192,1.99321 -0.4776,0.63656 -1.27768,1.65973 -1.77795,2.27372 -0.89126,1.09387 -0.91958,1.19397 -1.40532,4.96886 l -0.49573,3.8525 0.80154,2.42348 c 0.71668,2.16695 0.78171,2.68461 0.61437,4.89048 -0.10298,1.35748 -0.39935,3.06841 -0.65898,3.80414 -1.32295,3.74904 -4.57899,6.91754 -8.49,8.26173 -2.13855,0.73502 -2.26254,0.7441 -5.53557,0.40662 -3.05625,-0.31513 -3.47368,-0.41818 -4.78968,-1.18395 z"
           style="opacity:1;fill:#ffff3e;fill-opacity:1;stroke:#ffff3e;stroke-width:1.05823696;stroke-miterlimit:4;stroke-dasharray:none;stroke-opacity:1" />
        <path
           inkscape:connector-curvature="0"
           id="path1192"
           style="opacity:1;fill:#0e232e;fill-opacity:1;stroke:none;stroke-width:0.24766283;stroke-miterlimit:4;stroke-dasharray:none;stroke-opacity:1"
           d="m 134.25599,47.184481 a 10.858835,10.858835 0 0 0 -12.1558,9.384102 10.858835,10.858835 0 0 0 9.38408,12.155956 10.858835,10.858835 0 0 0 12.15597,-9.384237 10.858835,10.858835 0 0 0 -9.38425,-12.155821 z m -0.5515,4.285935 a 6.5375312,6.5375312 0 0 1 5.64982,7.318382 6.5375312,6.5375312 0 0 1 -7.31853,5.649791 6.5375312,6.5375312 0 0 1 -5.64965,-7.318502 6.5375312,6.5375312 0 0 1 7.31836,-5.649671 z m 4.55064,7.177018 a 5.4293148,5.4293148 0 0 1 -6.07784,4.692005 5.4293148,5.4293148 0 0 1 -4.692,-6.07784 5.4293148,5.4293148 0 0 1 6.07784,-4.691998 5.4293148,5.4293148 0 0 1 4.692,6.077833 z" />
        <path
           d="m 114.17406,31.891107 a 10.858835,10.858835 0 0 0 -12.1558,9.384102 10.858835,10.858835 0 0 0 9.38408,12.155952 10.858835,10.858835 0 0 0 12.15597,-9.384233 10.858835,10.858835 0 0 0 -9.38425,-12.155821 z m -0.5515,4.285938 a 6.5375312,6.5375312 0 0 1 5.64982,7.31838 6.5375312,6.5375312 0 0 1 -7.31853,5.649795 6.5375312,6.5375312 0 0 1 -5.64965,-7.318507 6.5375312,6.5375312 0 0 1 7.31836,-5.649668 z m 4.55064,7.177015 a 5.4293148,5.4293148 0 0 1 -6.07784,4.692001 5.4293148,5.4293148 0 0 1 -4.692,-6.077836 5.4293148,5.4293148 0 0 1 6.07784,-4.691997 5.4293148,5.4293148 0 0 1 4.692,6.077832 z"
           style="opacity:1;fill:#0e232e;fill-opacity:1;stroke:none;stroke-width:0.24766283;stroke-miterlimit:4;stroke-dasharray:none;stroke-opacity:1"
           id="path1194"
           inkscape:connector-curvature="0" />
        <path
           inkscape:connector-curvature="0"
           id="path1196"
           style="opacity:1;fill:#0e232e;fill-opacity:1;stroke:none;stroke-width:0.24766283;stroke-miterlimit:4;stroke-dasharray:none;stroke-opacity:1"
           d="m 157.61359,37.021421 a 10.858835,10.858835 0 0 0 -12.15581,9.384105 10.858835,10.858835 0 0 0 9.38409,12.155952 10.858835,10.858835 0 0 0 12.15597,-9.384233 10.858835,10.858835 0 0 0 -9.38425,-12.155824 z m -0.55151,4.285938 a 6.5375312,6.5375312 0 0 1 5.64982,7.318383 6.5375312,6.5375312 0 0 1 -7.31853,5.649795 6.5375312,6.5375312 0 0 1 -5.64964,-7.318507 6.5375312,6.5375312 0 0 1 7.31835,-5.649671 z m 4.55064,7.177018 a 5.4293148,5.4293148 0 0 1 -6.07783,4.692001 5.4293148,5.4293148 0 0 1 -4.692,-6.077836 5.4293148,5.4293148 0 0 1 6.07783,-4.691997 5.4293148,5.4293148 0 0 1 4.692,6.077832 z" />
        <path
           d="m 131.05785,72.038389 a 10.858835,10.858835 0 0 0 -12.1558,9.3841 10.858835,10.858835 0 0 0 9.38408,12.15597 10.858835,10.858835 0 0 0 12.15598,-9.38425 10.858835,10.858835 0 0 0 -9.38426,-12.15582 z m -0.5515,4.28594 a 6.5375312,6.5375312 0 0 1 5.64982,7.31837 6.5375312,6.5375312 0 0 1 -7.31853,5.64979 6.5375312,6.5375312 0 0 1 -5.64965,-7.3185 6.5375312,6.5375312 0 0 1 7.31836,-5.64966 z m 4.55064,7.177 a 5.4293148,5.4293148 0 0 1 -6.07784,4.69201 5.4293148,5.4293148 0 0 1 -4.69199,-6.07784 5.4293148,5.4293148 0 0 1 6.07783,-4.69199 5.4293148,5.4293148 0 0 1 4.692,6.07782 z"
           style="opacity:1;fill:#0e232e;fill-opacity:1;stroke:none;stroke-width:0.24766283;stroke-miterlimit:4;stroke-dasharray:none;stroke-opacity:1"
           id="path1198"
           inkscape:connector-curvature="0" />
        <path
           style="opacity:1;fill:none;fill-opacity:1;stroke:#ffffff;stroke-width:2.7852664;stroke-miterlimit:4;stroke-dasharray:none;stroke-opacity:1;filter:url(#filter1373)"
           d="m 70.836827,1028.5819 c -7.563648,-3.2206 -0.373536,-5.5923 -7.822361,-7.3266 -17.188491,-4.0022 6.766401,-34.52161 -7.997297,-34.25053 -4.2122,0.0773 1.823503,-4.20044 2.956841,-12.87177 0.389457,-2.97978 4.678485,-6.34363 -5.167185,-10.34411 l -2.362116,-3.35225 c -1.299164,-1.84375 4.140169,-5.42852 0.126329,-7.01186 -4.47259,-1.7643 -4.148235,-6.46209 -8.776798,-14.36749 -4.352224,-7.43343 -13.143825,0.26467 -15.963696,-2.26108 -11.506022,-10.30593 -32.7175446,-12.86363 -32.7921266,-31.55848 -0.04194,-10.50333 -1.561418,-18.40409 5.7248401,-25.69225 10.9782803,-10.98119 28.7336245,-8.09571 42.6358505,-1.6664 4.466241,2.06547 1.992762,6.75708 5.146103,11.73661 1.812683,2.86244 6.999636,15.993 11.575793,18.76475 9.757856,5.91031 10.413092,-3.45524 15.592925,-3.9426 2.545314,-0.23954 9.713007,-5.31104 11.717921,-4.97185 3.588738,0.607 16.25249,33.4943 17.87622,8.38888 0.56419,-8.72332 10.5622,-10.22712 12.3953,-13.83812 2.16899,-4.27268 8.15996,-19.42395 13.15616,-20.51644 41.44887,-9.0634 28.58363,2.5275 38.67648,17.48219 9.84988,14.59467 7.06327,25.03878 -5.01258,37.50531 -6.03273,6.22785 -14.08392,5.23211 -25.2199,6.78716 -5.67769,0.79287 -7.67172,2.82341 -16.23249,7.87394 -3.75067,2.21272 -5.69967,1.89457 -7.14579,4.47139 -1.02773,1.83135 -1.47203,9.50945 -2.56619,11.28929 -1.94929,3.17084 -8.77219,1.29307 -5.86477,10.93467 l 3.87539,12.85158 2.8918,6.08788 c 2.58568,5.44338 -0.94778,6.77961 -0.64518,12.62368 0.18622,3.5964 3.86369,8.1854 3.43522,10.2033 -2.18314,10.283 -10.87294,10.2483 -20.581802,15.0954 -5.308826,2.6504 -3.474829,3.1456 -12.08871,3.3651 -8.04334,0.205 -7.87019,0.076 -11.544181,-1.4893 z"
           id="path1335"
           inkscape:connector-curvature="0"
           sodipodi:nodetypes="cssscsssssscssccscsscssccsccscccc"
           transform="matrix(0.34981466,0.04501326,-0.04513748,0.35078005,145.96293,-271.63526)" />
      </g>
      <g
         transform="matrix(0.33584029,0.10789255,-0.10789255,0.33584029,233.48345,-296.23514)"
         id="g1469">
        <path
           style="opacity:1;fill:#2d2d2d;fill-opacity:1;stroke:#2d2d2d;stroke-width:3;stroke-miterlimit:4;stroke-dasharray:none;stroke-opacity:1;filter:url(#filter1124)"
           d="m 116.5031,1326.5875 c -8.21057,-3.4515 -13.76752,-7.9189 -18.35349,-14.7548 -8.43433,-12.5723 -8.95854,-27.1793 -1.46589,-40.8466 2.16492,-3.9491 2.23976,-4.4229 2.17856,-13.7944 l -0.0634,-9.7049 -2.58058,-3.5925 c -1.41931,-1.9759 -3.4775,-5.3573 -4.57376,-7.5144 -2.34099,-4.6062 -4.92833,-6.7211 -13.77012,-11.2555 -5.66275,-2.904 -7.14026,-3.3434 -11.24345,-3.3434 -20.38031,0 -37.86016,-17.0069 -38.07173,-37.0417 -0.1189,-11.256 3.30849,-19.7231 11.14523,-27.5336 11.80769,-11.7682 27.74686,-14.6583 42.8417,-7.7683 4.84939,2.2135 13.41006,10.0025 16.85857,15.3389 1.98235,3.0676 3.87908,4.7141 8.8524,7.6845 10.60473,6.3339 10.84848,6.4213 16.4525,5.899 2.75375,-0.2567 6.78455,-0.1693 8.95734,0.1941 3.88924,0.6505 4.05888,0.5973 10.93887,-3.435 8.13657,-4.7687 9.99415,-6.3582 11.95331,-10.228 2.31814,-4.5789 10.68376,-12.9472 15.53913,-15.5441 17.20178,-9.2005 37.90801,-4.1942 48.93869,11.8322 10.76518,15.6406 9.27409,35.1167 -3.71139,48.4767 -6.48715,6.6742 -13.3183,9.7488 -25.36268,11.4154 -6.14083,0.8496 -9.22357,2.1054 -18.45569,7.5178 -4.04481,2.3714 -5.67876,3.8711 -7.22622,6.6326 -1.09975,1.9626 -2.9585,5.129 -4.13052,7.0364 -2.08802,3.3981 -2.12951,3.6898 -2.05905,14.4794 l 0.0719,11.0116 3.17312,6.5241 c 2.83723,5.8335 3.21673,7.2655 3.5852,13.5284 0.22676,3.8541 0.0446,8.7719 -0.4051,10.9345 -2.2914,11.02 -10.23424,21.107 -20.71066,26.3015 -5.72852,2.8403 -6.07339,2.9108 -15.39681,3.1461 -8.70589,0.2197 -9.91779,0.081 -13.90601,-1.596 z"
           id="path1448"
           inkscape:connector-curvature="0"
           sodipodi:nodetypes="cssscsssssscssccscsscssccsccscccc" />
        <path
           sodipodi:nodetypes="cssscsssssscssccscsscssccsccscccc"
           inkscape:connector-curvature="0"
           id="path1450"
           d="m 110.43507,1324.1741 c -8.18803,-3.4515 -13.71581,-7.9189 -18.25714,-14.7548 -8.35222,-12.5723 -8.78105,-27.1793 -1.19916,-40.8466 2.19071,-3.949 2.26864,-4.4229 2.26864,-13.7944 v -9.7048 l -2.55711,-3.5925 c -1.40641,-1.9759 -3.44252,-5.3574 -4.52469,-7.5144 -2.31092,-4.6063 -4.88445,-6.7211 -13.69663,-11.2555 -5.64379,-2.9041 -7.11843,-3.3435 -11.22162,-3.3435 -20.38031,0 -37.74911,-17.0069 -37.82985,-37.0417 -0.0454,-11.256 3.43728,-19.7231 11.32502,-27.5336 11.88454,-11.7681 27.84258,-14.6583 42.89244,-7.7683 4.83493,2.2136 13.34474,10.0026 16.75839,15.339 1.96232,3.0675 3.8483,4.714 8.80222,7.6845 10.56337,6.3339 10.80655,6.4213 16.41398,5.8989 2.75543,-0.2567 6.78566,-0.1693 8.95608,0.1941 3.88499,0.6506 4.05498,0.5973 10.9613,-3.435 8.16771,-4.7687 10.03567,-6.3581 12.0201,-10.2279 2.34804,-4.579 10.7683,-12.9473 15.64063,-15.5442 17.26186,-9.2005 37.9354,-4.1942 48.86142,11.8322 10.66305,15.6407 9.04478,35.1167 -4.02794,48.4767 -6.53073,6.6743 -13.38196,9.7489 -25.43722,11.4154 -6.14638,0.8497 -9.23732,2.1054 -18.50478,7.5179 -4.06029,2.3713 -5.70404,3.871 -7.26953,6.6326 -1.11257,1.9626 -2.99199,5.1289 -4.17647,7.0363 -2.11021,3.3981 -2.1536,3.6898 -2.1536,14.4795 v 11.0115 l 3.13052,6.5241 c 2.79913,5.8336 3.16928,7.2656 3.49686,13.5284 0.20159,3.8541 -0.0127,8.772 -0.47651,10.9346 -2.36336,11.0199 -10.37206,21.1069 -20.8824,26.3014 -5.74707,2.8404 -6.0924,2.9108 -15.41736,3.1461 -8.70732,0.2197 -9.91831,0.081 -13.89559,-1.596 z"
           style="opacity:1;fill:#005c94;fill-opacity:1;stroke:#005c94;stroke-width:3;stroke-miterlimit:4;stroke-dasharray:none;stroke-opacity:1" />
        <path
           inkscape:connector-curvature="0"
           id="path1452"
           style="opacity:1;fill:#0e232e;fill-opacity:1;stroke:none;stroke-width:0.70210028;stroke-miterlimit:4;stroke-dasharray:none;stroke-opacity:1"
           d="m 123.84833,1177.8753 a 30.783751,30.783751 0 0 0 -30.78351,30.7835 30.783751,30.783751 0 0 0 30.78351,30.7839 30.783751,30.783751 0 0 0 30.78394,-30.7839 30.783751,30.783751 0 0 0 -30.78394,-30.7835 z m 0,12.2504 a 18.533272,18.533272 0 0 1 18.53354,18.5331 18.533272,18.533272 0 0 1 -18.53354,18.5335 18.533272,18.533272 0 0 1 -18.5331,-18.5335 18.533272,18.533272 0 0 1 18.5331,-18.5331 z m 15.39181,18.5333 a 15.391585,15.391585 0 0 1 -15.39159,15.3916 15.391585,15.391585 0 0 1 -15.39158,-15.3916 15.391585,15.391585 0 0 1 15.39158,-15.3916 15.391585,15.391585 0 0 1 15.39159,15.3916 z" />
        <path
           d="m 61.85033,1142.1403 a 30.783751,30.783751 0 0 0 -30.78351,30.7835 30.783751,30.783751 0 0 0 30.78351,30.784 30.783751,30.783751 0 0 0 30.78394,-30.784 30.783751,30.783751 0 0 0 -30.78394,-30.7835 z m 0,12.2504 a 18.533272,18.533272 0 0 1 18.53354,18.5331 18.533272,18.533272 0 0 1 -18.53354,18.5335 18.533272,18.533272 0 0 1 -18.5331,-18.5335 18.533272,18.533272 0 0 1 18.5331,-18.5331 z m 15.39181,18.5333 a 15.391585,15.391585 0 0 1 -15.39159,15.3916 15.391585,15.391585 0 0 1 -15.39158,-15.3916 15.391585,15.391585 0 0 1 15.39158,-15.3916 15.391585,15.391585 0 0 1 15.39159,15.3916 z"
           style="opacity:1;fill:#0e232e;fill-opacity:1;stroke:none;stroke-width:0.70210028;stroke-miterlimit:4;stroke-dasharray:none;stroke-opacity:1"
           id="path1454"
           inkscape:connector-curvature="0" />
        <path
           inkscape:connector-curvature="0"
           id="path1456"
           style="opacity:1;fill:#0e232e;fill-opacity:1;stroke:none;stroke-width:0.70210028;stroke-miterlimit:4;stroke-dasharray:none;stroke-opacity:1"
           d="m 185.84633,1140.8487 a 30.783751,30.783751 0 0 0 -30.78351,30.7835 30.783751,30.783751 0 0 0 30.78351,30.784 30.783751,30.783751 0 0 0 30.78394,-30.784 30.783751,30.783751 0 0 0 -30.78394,-30.7835 z m 0,12.2504 a 18.533272,18.533272 0 0 1 18.53354,18.5331 18.533272,18.533272 0 0 1 -18.53354,18.5335 18.533272,18.533272 0 0 1 -18.5331,-18.5335 18.533272,18.533272 0 0 1 18.5331,-18.5331 z m 15.39181,18.5333 a 15.391585,15.391585 0 0 1 -15.39159,15.3916 15.391585,15.391585 0 0 1 -15.39158,-15.3916 15.391585,15.391585 0 0 1 15.39158,-15.3916 15.391585,15.391585 0 0 1 15.39159,15.3916 z" />
        <path
           d="m 123.84833,1248.9147 a 30.783751,30.783751 0 0 0 -30.78351,30.7834 30.783751,30.783751 0 0 0 30.78351,30.784 30.783751,30.783751 0 0 0 30.78394,-30.784 30.783751,30.783751 0 0 0 -30.78394,-30.7834 z m 0,12.2504 a 18.533272,18.533272 0 0 1 18.53354,18.533 18.533272,18.533272 0 0 1 -18.53354,18.5335 18.533272,18.533272 0 0 1 -18.5331,-18.5335 18.533272,18.533272 0 0 1 18.5331,-18.533 z m 15.39181,18.5332 a 15.391585,15.391585 0 0 1 -15.39159,15.3916 15.391585,15.391585 0 0 1 -15.39158,-15.3916 15.391585,15.391585 0 0 1 15.39158,-15.3915 15.391585,15.391585 0 0 1 15.39159,15.3915 z"
           style="opacity:1;fill:#0e232e;fill-opacity:1;stroke:none;stroke-width:0.70210028;stroke-miterlimit:4;stroke-dasharray:none;stroke-opacity:1"
           id="path1458"
           inkscape:connector-curvature="0" />
        <path
           style="opacity:1;fill:none;fill-opacity:1;stroke:#ffffff;stroke-width:2.7852664;stroke-miterlimit:4;stroke-dasharray:none;stroke-opacity:1;filter:url(#filter1373)"
           d="m 70.836827,1028.5819 c -7.563648,-3.2206 -0.373536,-5.5923 -7.822361,-7.3266 -17.188491,-4.0022 6.766401,-34.52161 -7.997297,-34.25053 -4.2122,0.0773 1.823503,-4.20044 2.956841,-12.87177 0.389457,-2.97978 4.678485,-6.34363 -5.167185,-10.34411 l -2.362116,-3.35225 c -1.299164,-1.84375 4.140169,-5.42852 0.126329,-7.01186 -4.47259,-1.7643 -4.148235,-6.46209 -8.776798,-14.36749 -4.352224,-7.43343 -13.143825,0.26467 -15.963696,-2.26108 -11.506022,-10.30593 -32.7175446,-12.86363 -32.7921266,-31.55848 -0.04194,-10.50333 -1.561418,-18.40409 5.7248401,-25.69225 10.9782803,-10.98119 28.7336245,-8.09571 42.6358505,-1.6664 4.466241,2.06547 1.992762,6.75708 5.146103,11.73661 1.812683,2.86244 6.999636,15.993 11.575793,18.76475 9.757856,5.91031 10.413092,-3.45524 15.592925,-3.9426 2.545314,-0.23954 9.713007,-5.31104 11.717921,-4.97185 3.588738,0.607 16.25249,33.4943 17.87622,8.38888 0.56419,-8.72332 10.5622,-10.22712 12.3953,-13.83812 2.16899,-4.27268 8.15996,-19.42395 13.15616,-20.51644 41.44887,-9.0634 28.58363,2.5275 38.67648,17.48219 9.84988,14.59467 7.06327,25.03878 -5.01258,37.50531 -6.03273,6.22785 -14.08392,5.23211 -25.2199,6.78716 -5.67769,0.79287 -7.67172,2.82341 -16.23249,7.87394 -3.75067,2.21272 -5.69967,1.89457 -7.14579,4.47139 -1.02773,1.83135 -1.47203,9.50945 -2.56619,11.28929 -1.94929,3.17084 -8.77219,1.29307 -5.86477,10.93467 l 3.87539,12.85158 2.8918,6.08788 c 2.58568,5.44338 -0.94778,6.77961 -0.64518,12.62368 0.18622,3.5964 3.86369,8.1854 3.43522,10.2033 -2.18314,10.283 -10.87294,10.2483 -20.581802,15.0954 -5.308826,2.6504 -3.474829,3.1456 -12.08871,3.3651 -8.04334,0.205 -7.87019,0.076 -11.544181,-1.4893 z"
           id="path1460"
           inkscape:connector-curvature="0"
           sodipodi:nodetypes="cssscsssssscssccscsscssccsccscccc"
           transform="matrix(0.99986736,0,0,1.0026267,41.41437,277.20739)" />
      </g>
      <path
         transform="matrix(0.02081481,0.352131,-0.352131,0.02081481,486.57519,54.462432)"
         style="opacity:1;fill:#2d2d2d;fill-opacity:1;stroke:#2d2d2d;stroke-width:3;stroke-miterlimit:4;stroke-dasharray:none;stroke-opacity:1;filter:url(#filter1124)"
         d="m 201.746,966.74073 c -8.21057,-3.4515 -13.76752,-7.9189 -18.35349,-14.7548 -8.43433,-12.5723 -8.95854,-27.1793 -1.46589,-40.84666 2.16492,-3.94905 2.23976,-4.4229 2.17856,-13.79438 l -0.0634,-9.70486 -2.58058,-3.59252 c -1.41931,-1.97589 -3.4775,-5.35737 -4.57376,-7.5144 -2.34099,-4.60623 -4.92833,-6.72108 -13.77012,-11.2555 -5.66275,-2.90407 -7.14026,-3.34344 -11.24345,-3.34344 -20.38031,0 -37.86016,-17.00693 -38.07173,-37.04168 -0.1189,-11.25603 3.30849,-19.72308 11.14523,-27.53358 11.80769,-11.76817 27.74686,-14.65834 42.8417,-7.76829 4.84939,2.21351 13.41006,10.00251 16.85857,15.33891 1.98235,3.06759 3.87908,4.71409 8.8524,7.68451 10.60473,6.3339 10.84848,6.4213 16.4525,5.89895 2.75375,-0.25667 6.78455,-0.16932 8.95734,0.19411 3.88924,0.65055 4.05888,0.59728 10.93887,-3.43498 8.13657,-4.76872 9.99415,-6.35817 11.95331,-10.22799 2.31814,-4.57892 10.68376,-12.94722 15.53913,-15.54415 17.20178,-9.20048 37.90801,-4.19421 48.93869,11.83221 10.76518,15.64066 9.27409,35.11673 -3.71139,48.4767 -6.48715,6.67424 -13.3183,9.74883 -25.36268,11.41535 -6.14083,0.84967 -9.22357,2.10542 -18.45569,7.51789 -4.04481,2.37134 -5.67876,3.87107 -7.22622,6.63258 -1.09975,1.96261 -2.9585,5.12896 -4.13052,7.03634 -2.08802,3.3981 -2.12951,3.68981 -2.05905,14.47948 l 0.0719,11.01152 3.17312,6.52415 c 2.83723,5.83353 3.21673,7.26553 3.5852,13.52843 0.22676,3.8541 0.0446,8.7719 -0.4051,10.9345 -2.2914,11.02 -10.23424,21.107 -20.71066,26.3015 -5.72852,2.8403 -6.07339,2.9108 -15.39681,3.1461 -8.70589,0.2197 -9.91779,0.081 -13.90601,-1.596 z"
         id="path1759"
         inkscape:connector-curvature="0"
         sodipodi:nodetypes="cssscsssssscssccscsscssccsccscccc" />
      <path
         inkscape:connector-curvature="0"
         id="path1797"
         d="m 201.16267,167.28931 c 0.35065,-1.78991 1.48816,-2.92312 3.27989,-3.26747 1.38567,-0.26628 2.30647,-0.0935 3.3029,0.61997 0.70542,0.50508 0.81681,0.69187 0.9845,1.65085 0.25768,1.47418 -0.10921,3.53983 -0.73997,4.16522 -0.7355,0.72924 -2.78893,1.20287 -3.93611,0.90787 -0.99085,-0.2548 -1.48301,-0.56434 -2.11604,-1.33085 -0.65856,-0.79742 -0.9527,-1.83928 -0.77517,-2.74559 z"
         style="opacity:1;fill:#2d2d2d;fill-opacity:1;stroke:#2d2d2d;stroke-width:2.27111077;stroke-miterlimit:4;stroke-dasharray:none;stroke-opacity:1" />
      <path
         sodipodi:nodetypes="cssscsssssscssccscsscssccsccscccc"
         inkscape:connector-curvature="0"
         id="path1761"
         d="m 151.07864,143.439 c 1.04495,-2.9551 2.503,-4.9946 4.8156,-6.73602 4.25325,-3.20276 9.3879,-3.65781 14.35841,-1.27248 1.43619,0.68922 1.60466,0.7068 4.90464,0.51173 l 3.41739,-0.202 1.21181,-0.97521 c 0.6665,-0.53638 1.81484,-1.32374 2.55187,-1.7497 1.5739,-0.90962 2.26504,-1.85986 3.67833,-5.05729 0.90513,-2.0478 1.02915,-2.57621 0.94374,-4.02108 -0.42421,-7.17653 5.20293,-13.64662 12.25611,-14.09207 3.96265,-0.25029 7.01665,0.79984 9.93115,3.41478 4.39132,3.93997 5.7412,9.49913 3.62826,14.94206 -0.67881,1.74861 -3.24443,4.9073 -5.05249,6.22042 -1.03934,0.75485 -1.57987,1.45324 -2.52273,3.2595 -2.01049,3.85152 -2.03621,3.93898 -1.73555,5.90265 0.14773,0.96493 0.20086,2.38592 0.11806,3.15776 -0.14821,1.38156 -0.12591,1.44031 1.43772,3.78831 1.84923,2.77685 2.4478,3.40153 3.85179,4.01975 1.66126,0.73152 4.78326,3.52237 5.79914,5.18401 3.59907,5.88693 2.26653,13.27093 -3.14945,17.45191 -5.28561,4.08034 -12.17742,3.91589 -17.15399,-0.40934 -2.48614,-2.16074 -3.71141,-4.50928 -4.54916,-8.71962 -0.42717,-2.14664 -0.93366,-3.20892 -3.03246,-6.35962 -0.91954,-1.38039 -1.48186,-1.92799 -2.48685,-2.42177 -0.71426,-0.35092 -1.86835,-0.94682 -2.56465,-1.3242 -1.2405,-0.67234 -1.34412,-0.68156 -5.14351,-0.45697 l -3.87749,0.2292 -2.2322,1.23815 c -1.99591,1.10709 -2.49245,1.26724 -4.69097,1.51295 -1.35296,0.15121 -3.08916,0.17811 -3.86033,0.0598 -3.92965,-0.60283 -7.64829,-3.21298 -9.69621,-6.80588 -1.11982,-1.96459 -1.15179,-2.08473 -1.42875,-5.36344 -0.2586,-3.06155 -0.23496,-3.49086 0.27277,-4.92629 z"
         style="opacity:1;fill:#ff6600;fill-opacity:1;stroke:#ff6600;stroke-width:1.05823696;stroke-miterlimit:4;stroke-dasharray:none;stroke-opacity:1" />
      <g
         transform="rotate(107.53407,231.77721,111.316)"
         id="g1967">
        <path
           inkscape:connector-curvature="0"
           id="path1959"
           d="m 253.02065,140.50162 c -1.6935,-0.67733 -2.59545,-2.0057 -2.60067,-3.83021 -0.004,-1.41102 0.33699,-2.28364 1.22326,-3.13004 0.62743,-0.59921 0.83168,-0.67393 1.80511,-0.66039 1.49639,0.0209 3.45781,0.76546 3.95502,1.5015 0.57977,0.85826 0.66335,2.96394 0.1602,4.03627 -0.43458,0.9262 -0.83023,1.35223 -1.70107,1.8317 -0.90596,0.49882 -1.98435,0.59412 -2.84185,0.25117 z"
           style="opacity:1;fill:#2d2d2d;fill-opacity:1;stroke:#2d2d2d;stroke-width:2.27111077;stroke-miterlimit:4;stroke-dasharray:none;stroke-opacity:1" />
        <path
           inkscape:connector-curvature="0"
           id="path1961"
           d="m 254.26706,126.32522 a 10.858835,10.858835 0 0 0 -11.07374,9.46868 10.858835,10.858835 0 0 0 9.38444,12.15636 10.858835,10.858835 0 0 0 12.15584,-9.38444 10.858835,10.858835 0 0 0 -9.38444,-12.15585 10.858835,10.858835 0 0 0 -1.0821,-0.0847 z m -0.58343,4.32325 a 6.537531,6.537531 0 0 1 1.11415,0.0475 6.537531,6.537531 0 0 1 5.64978,7.31842 6.537531,6.537531 0 0 1 -7.31841,5.64979 6.537531,6.537531 0 0 1 -5.64979,-7.31842 6.537531,6.537531 0 0 1 6.20427,-5.69733 z m 0.0476,1.10743 a 5.4293148,5.4293148 0 0 0 -5.15266,4.73098 5.4293148,5.4293148 0 0 0 4.69222,6.07818 5.4293148,5.4293148 0 0 0 6.07766,-4.69222 5.4293148,5.4293148 0 0 0 -4.69222,-6.07767 5.4293148,5.4293148 0 0 0 -0.925,-0.0393 z m -0.87644,0.84233 c 0.11422,-0.002 0.23926,-0.002 0.37828,0 1.70958,0.0219 3.95053,0.80407 4.51858,1.57716 0.66237,0.90147 0.75777,3.11322 0.18294,4.23953 -0.4965,0.97283 -0.94865,1.42031 -1.94355,1.92392 -1.03504,0.52393 -2.26666,0.62377 -3.24632,0.26355 -1.93478,-0.71143 -2.96543,-2.10664 -2.97139,-4.02301 -0.005,-1.48205 0.3848,-2.39864 1.39733,-3.28766 0.62722,-0.5507 0.88464,-0.6794 1.68413,-0.69349 z"
           style="opacity:1;fill:#0e232e;fill-opacity:1;stroke:none;stroke-width:0.24766283;stroke-miterlimit:4;stroke-dasharray:none;stroke-opacity:1" />
        <path
           inkscape:connector-curvature="0"
           id="path1963"
           d="m 252.71562,140.70955 c -1.6263,-0.65046 -2.49247,-1.92612 -2.49748,-3.67823 -0.004,-1.35504 0.32362,-2.19303 1.17472,-3.00585 0.60254,-0.57543 0.79868,-0.64719 1.73349,-0.63418 1.43701,0.0201 3.32061,0.73508 3.79809,1.44192 0.55676,0.8242 0.63703,2.84633 0.15384,3.87611 -0.41733,0.88945 -0.79728,1.29858 -1.63357,1.75903 -0.87001,0.47902 -1.90561,0.57054 -2.72909,0.2412 z"
           style="opacity:1;fill:#ffffff;fill-opacity:1;stroke:#ffffff;stroke-width:2.18099594;stroke-miterlimit:4;stroke-dasharray:none;stroke-opacity:1" />
        <path
           style="opacity:1;fill:#ff6600;fill-opacity:1;stroke:#ff6600;stroke-width:0.24546982;stroke-miterlimit:4;stroke-dasharray:none;stroke-opacity:1"
           d="m 253.81448,126.66878 a 10.575356,10.953327 0 0 0 -10.78465,9.55109 10.575356,10.953327 0 0 0 9.13945,12.26214 10.575356,10.953327 0 0 0 11.8385,-9.46611 10.575356,10.953327 0 0 0 -9.13945,-12.26163 10.575356,10.953327 0 0 0 -1.05385,-0.0855 z m -0.5682,4.36088 a 6.3668634,6.5944197 0 0 1 1.08507,0.048 6.3668634,6.5944197 0 0 1 5.50228,7.38211 6.3668634,6.5944197 0 0 1 -7.12735,5.69895 6.3668634,6.5944197 0 0 1 -5.5023,-7.3821 6.3668634,6.5944197 0 0 1 6.0423,-5.74691 z m 0.0464,1.11706 a 5.2875781,5.47656 0 0 0 -5.01815,4.77216 5.2875781,5.47656 0 0 0 4.56973,6.13106 5.2875781,5.47656 0 0 0 5.919,-4.73305 5.2875781,5.47656 0 0 0 -4.56973,-6.13055 5.2875781,5.47656 0 0 0 -0.90085,-0.0397 z m -0.85356,0.84966 c 0.11124,-0.002 0.23301,-0.002 0.3684,0 1.66495,0.0221 3.8474,0.81107 4.40062,1.59089 0.64508,0.90932 0.73799,3.14031 0.17817,4.27642 -0.48354,0.9813 -0.92389,1.43268 -1.89281,1.94067 -1.00802,0.52848 -2.20749,0.62919 -3.16158,0.26584 -1.88427,-0.71762 -2.88801,-2.12498 -2.89382,-4.05802 -0.005,-1.49495 0.37476,-2.41951 1.36086,-3.31627 0.61084,-0.5555 0.86154,-0.68532 1.64016,-0.69953 z"
           id="path1965"
           inkscape:connector-curvature="0" />
      </g>
      <g
         transform="rotate(79.284744,216.43875,102.34041)"
         id="g1847">
        <path
           inkscape:connector-curvature="0"
           id="path1835"
           d="m 253.02065,140.50162 c -1.6935,-0.67733 -2.59545,-2.0057 -2.60067,-3.83021 -0.004,-1.41102 0.33699,-2.28364 1.22326,-3.13004 0.62743,-0.59921 0.83168,-0.67393 1.80511,-0.66039 1.49639,0.0209 3.45781,0.76546 3.95502,1.5015 0.57977,0.85826 0.66335,2.96394 0.1602,4.03627 -0.43458,0.9262 -0.83023,1.35223 -1.70107,1.8317 -0.90596,0.49882 -1.98435,0.59412 -2.84185,0.25117 z"
           style="opacity:1;fill:#2d2d2d;fill-opacity:1;stroke:#2d2d2d;stroke-width:2.27111077;stroke-miterlimit:4;stroke-dasharray:none;stroke-opacity:1" />
        <path
           inkscape:connector-curvature="0"
           id="path1837"
           d="m 254.26706,126.32522 a 10.858835,10.858835 0 0 0 -11.07374,9.46868 10.858835,10.858835 0 0 0 9.38444,12.15636 10.858835,10.858835 0 0 0 12.15584,-9.38444 10.858835,10.858835 0 0 0 -9.38444,-12.15585 10.858835,10.858835 0 0 0 -1.0821,-0.0847 z m -0.58343,4.32325 a 6.537531,6.537531 0 0 1 1.11415,0.0475 6.537531,6.537531 0 0 1 5.64978,7.31842 6.537531,6.537531 0 0 1 -7.31841,5.64979 6.537531,6.537531 0 0 1 -5.64979,-7.31842 6.537531,6.537531 0 0 1 6.20427,-5.69733 z m 0.0476,1.10743 a 5.4293148,5.4293148 0 0 0 -5.15266,4.73098 5.4293148,5.4293148 0 0 0 4.69222,6.07818 5.4293148,5.4293148 0 0 0 6.07766,-4.69222 5.4293148,5.4293148 0 0 0 -4.69222,-6.07767 5.4293148,5.4293148 0 0 0 -0.925,-0.0393 z m -0.87644,0.84233 c 0.11422,-0.002 0.23926,-0.002 0.37828,0 1.70958,0.0219 3.95053,0.80407 4.51858,1.57716 0.66237,0.90147 0.75777,3.11322 0.18294,4.23953 -0.4965,0.97283 -0.94865,1.42031 -1.94355,1.92392 -1.03504,0.52393 -2.26666,0.62377 -3.24632,0.26355 -1.93478,-0.71143 -2.96543,-2.10664 -2.97139,-4.02301 -0.005,-1.48205 0.3848,-2.39864 1.39733,-3.28766 0.62722,-0.5507 0.88464,-0.6794 1.68413,-0.69349 z"
           style="opacity:1;fill:#0e232e;fill-opacity:1;stroke:none;stroke-width:0.24766283;stroke-miterlimit:4;stroke-dasharray:none;stroke-opacity:1" />
        <path
           inkscape:connector-curvature="0"
           id="path1839"
           d="m 252.71562,140.70955 c -1.6263,-0.65046 -2.49247,-1.92612 -2.49748,-3.67823 -0.004,-1.35504 0.32362,-2.19303 1.17472,-3.00585 0.60254,-0.57543 0.79868,-0.64719 1.73349,-0.63418 1.43701,0.0201 3.32061,0.73508 3.79809,1.44192 0.55676,0.8242 0.63703,2.84633 0.15384,3.87611 -0.41733,0.88945 -0.79728,1.29858 -1.63357,1.75903 -0.87001,0.47902 -1.90561,0.57054 -2.72909,0.2412 z"
           style="opacity:1;fill:#ffffff;fill-opacity:1;stroke:#ffffff;stroke-width:2.18099594;stroke-miterlimit:4;stroke-dasharray:none;stroke-opacity:1" />
        <path
           style="opacity:1;fill:#ff6600;fill-opacity:1;stroke:#ff6600;stroke-width:0.24546982;stroke-miterlimit:4;stroke-dasharray:none;stroke-opacity:1"
           d="m 253.81448,126.66878 a 10.575356,10.953327 0 0 0 -10.78465,9.55109 10.575356,10.953327 0 0 0 9.13945,12.26214 10.575356,10.953327 0 0 0 11.8385,-9.46611 10.575356,10.953327 0 0 0 -9.13945,-12.26163 10.575356,10.953327 0 0 0 -1.05385,-0.0855 z m -0.5682,4.36088 a 6.3668634,6.5944197 0 0 1 1.08507,0.048 6.3668634,6.5944197 0 0 1 5.50228,7.38211 6.3668634,6.5944197 0 0 1 -7.12735,5.69895 6.3668634,6.5944197 0 0 1 -5.5023,-7.3821 6.3668634,6.5944197 0 0 1 6.0423,-5.74691 z m 0.0464,1.11706 a 5.2875781,5.47656 0 0 0 -5.01815,4.77216 5.2875781,5.47656 0 0 0 4.56973,6.13106 5.2875781,5.47656 0 0 0 5.919,-4.73305 5.2875781,5.47656 0 0 0 -4.56973,-6.13055 5.2875781,5.47656 0 0 0 -0.90085,-0.0397 z m -0.85356,0.84966 c 0.11124,-0.002 0.23301,-0.002 0.3684,0 1.66495,0.0221 3.8474,0.81107 4.40062,1.59089 0.64508,0.90932 0.73799,3.14031 0.17817,4.27642 -0.48354,0.9813 -0.92389,1.43268 -1.89281,1.94067 -1.00802,0.52848 -2.20749,0.62919 -3.16158,0.26584 -1.88427,-0.71762 -2.88801,-2.12498 -2.89382,-4.05802 -0.005,-1.49495 0.37476,-2.41951 1.36086,-3.31627 0.61084,-0.5555 0.86154,-0.68532 1.64016,-0.69953 z"
           id="path1841"
           inkscape:connector-curvature="0" />
      </g>
      <path
         inkscape:connector-curvature="0"
         id="path1829"
         d="m 200.47036,167.82303 c 0.37519,-1.50106 1.48423,-2.47258 3.1978,-2.80124 1.32529,-0.25384 2.19778,-0.1313 3.12981,0.44072 0.65983,0.40498 0.76155,0.55821 0.899,1.35422 0.2112,1.22363 -0.18583,2.95507 -0.80073,3.49131 -0.71702,0.62526 -2.68269,1.0678 -3.76791,0.84827 -0.93733,-0.18961 -1.39868,-0.43641 -1.98356,-1.06112 -0.60846,-0.64988 -0.86437,-1.5121 -0.67441,-2.27216 z"
         style="opacity:1;fill:#ffffff;fill-opacity:1;stroke:#ffffff;stroke-width:2.02303529;stroke-miterlimit:4;stroke-dasharray:none;stroke-opacity:1" />
      <g
         transform="rotate(79.284744,182.45544,102.1883)"
         id="g1802">
        <path
           style="opacity:1;fill:#0e232e;fill-opacity:1;stroke:none;stroke-width:0.24766283;stroke-miterlimit:4;stroke-dasharray:none;stroke-opacity:1"
           d="m 251.44702,82.711169 a 10.858835,10.858835 0 0 0 -11.07374,9.468685 10.858835,10.858835 0 0 0 9.38444,12.156356 10.858835,10.858835 0 0 0 12.15584,-9.384436 10.858835,10.858835 0 0 0 -9.38444,-12.155855 10.858835,10.858835 0 0 0 -1.0821,-0.0847 z m -0.58343,4.323255 a 6.537531,6.537531 0 0 1 1.11415,0.0475 6.537531,6.537531 0 0 1 5.64978,7.31842 6.537531,6.537531 0 0 1 -7.31841,5.649786 6.537531,6.537531 0 0 1 -5.64979,-7.318416 6.537531,6.537531 0 0 1 6.20427,-5.69733 z m 0.0476,1.10743 a 5.4293148,5.4293148 0 0 0 -5.15266,4.73098 5.4293148,5.4293148 0 0 0 4.69222,6.07818 5.4293148,5.4293148 0 0 0 6.07766,-4.69222 5.4293148,5.4293148 0 0 0 -4.69222,-6.07767 5.4293148,5.4293148 0 0 0 -0.925,-0.0393 z m -0.87644,0.84233 c 0.11422,-0.002 0.23926,-0.002 0.37828,0 1.70958,0.0219 3.95053,0.80407 4.51858,1.57716 0.66237,0.90147 0.75777,3.11322 0.18294,4.23953 -0.4965,0.97283 -0.94865,1.42031 -1.94355,1.92392 -1.03504,0.52393 -2.26666,0.62377 -3.24632,0.26355 -1.93478,-0.71143 -2.96543,-2.10664 -2.97139,-4.02301 -0.005,-1.48205 0.3848,-2.39864 1.39733,-3.28766 0.62722,-0.5507 0.88464,-0.6794 1.68413,-0.69349 z"
           id="path1799"
           inkscape:connector-curvature="0" />
      </g>
      <g
         id="g1957"
         transform="rotate(79.284744,202.97489,88.875707)">
        <path
           style="opacity:1;fill:#2d2d2d;fill-opacity:1;stroke:#2d2d2d;stroke-width:2.27111077;stroke-miterlimit:4;stroke-dasharray:none;stroke-opacity:1"
           d="m 253.02065,140.50162 c -1.6935,-0.67733 -2.59545,-2.0057 -2.60067,-3.83021 -0.004,-1.41102 0.33699,-2.28364 1.22326,-3.13004 0.62743,-0.59921 0.83168,-0.67393 1.80511,-0.66039 1.49639,0.0209 3.45781,0.76546 3.95502,1.5015 0.57977,0.85826 0.66335,2.96394 0.1602,4.03627 -0.43458,0.9262 -0.83023,1.35223 -1.70107,1.8317 -0.90596,0.49882 -1.98435,0.59412 -2.84185,0.25117 z"
           id="path1949"
           inkscape:connector-curvature="0" />
        <path
           style="opacity:1;fill:#0e232e;fill-opacity:1;stroke:none;stroke-width:0.24766283;stroke-miterlimit:4;stroke-dasharray:none;stroke-opacity:1"
           d="m 254.26706,126.32522 a 10.858835,10.858835 0 0 0 -11.07374,9.46868 10.858835,10.858835 0 0 0 9.38444,12.15636 10.858835,10.858835 0 0 0 12.15584,-9.38444 10.858835,10.858835 0 0 0 -9.38444,-12.15585 10.858835,10.858835 0 0 0 -1.0821,-0.0847 z m -0.58343,4.32325 a 6.537531,6.537531 0 0 1 1.11415,0.0475 6.537531,6.537531 0 0 1 5.64978,7.31842 6.537531,6.537531 0 0 1 -7.31841,5.64979 6.537531,6.537531 0 0 1 -5.64979,-7.31842 6.537531,6.537531 0 0 1 6.20427,-5.69733 z m 0.0476,1.10743 a 5.4293148,5.4293148 0 0 0 -5.15266,4.73098 5.4293148,5.4293148 0 0 0 4.69222,6.07818 5.4293148,5.4293148 0 0 0 6.07766,-4.69222 5.4293148,5.4293148 0 0 0 -4.69222,-6.07767 5.4293148,5.4293148 0 0 0 -0.925,-0.0393 z m -0.87644,0.84233 c 0.11422,-0.002 0.23926,-0.002 0.37828,0 1.70958,0.0219 3.95053,0.80407 4.51858,1.57716 0.66237,0.90147 0.75777,3.11322 0.18294,4.23953 -0.4965,0.97283 -0.94865,1.42031 -1.94355,1.92392 -1.03504,0.52393 -2.26666,0.62377 -3.24632,0.26355 -1.93478,-0.71143 -2.96543,-2.10664 -2.97139,-4.02301 -0.005,-1.48205 0.3848,-2.39864 1.39733,-3.28766 0.62722,-0.5507 0.88464,-0.6794 1.68413,-0.69349 z"
           id="path1951"
           inkscape:connector-curvature="0" />
        <path
           style="opacity:1;fill:#ffffff;fill-opacity:1;stroke:#ffffff;stroke-width:2.18099594;stroke-miterlimit:4;stroke-dasharray:none;stroke-opacity:1"
           d="m 252.71562,140.70955 c -1.6263,-0.65046 -2.49247,-1.92612 -2.49748,-3.67823 -0.004,-1.35504 0.32362,-2.19303 1.17472,-3.00585 0.60254,-0.57543 0.79868,-0.64719 1.73349,-0.63418 1.43701,0.0201 3.32061,0.73508 3.79809,1.44192 0.55676,0.8242 0.63703,2.84633 0.15384,3.87611 -0.41733,0.88945 -0.79728,1.29858 -1.63357,1.75903 -0.87001,0.47902 -1.90561,0.57054 -2.72909,0.2412 z"
           id="path1953"
           inkscape:connector-curvature="0" />
        <path
           inkscape:connector-curvature="0"
           id="path1955"
           d="m 253.81448,126.66878 a 10.575356,10.953327 0 0 0 -10.78465,9.55109 10.575356,10.953327 0 0 0 9.13945,12.26214 10.575356,10.953327 0 0 0 11.8385,-9.46611 10.575356,10.953327 0 0 0 -9.13945,-12.26163 10.575356,10.953327 0 0 0 -1.05385,-0.0855 z m -0.5682,4.36088 a 6.3668634,6.5944197 0 0 1 1.08507,0.048 6.3668634,6.5944197 0 0 1 5.50228,7.38211 6.3668634,6.5944197 0 0 1 -7.12735,5.69895 6.3668634,6.5944197 0 0 1 -5.5023,-7.3821 6.3668634,6.5944197 0 0 1 6.0423,-5.74691 z m 0.0464,1.11706 a 5.2875781,5.47656 0 0 0 -5.01815,4.77216 5.2875781,5.47656 0 0 0 4.56973,6.13106 5.2875781,5.47656 0 0 0 5.919,-4.73305 5.2875781,5.47656 0 0 0 -4.56973,-6.13055 5.2875781,5.47656 0 0 0 -0.90085,-0.0397 z m -0.85356,0.84966 c 0.11124,-0.002 0.23301,-0.002 0.3684,0 1.66495,0.0221 3.8474,0.81107 4.40062,1.59089 0.64508,0.90932 0.73799,3.14031 0.17817,4.27642 -0.48354,0.9813 -0.92389,1.43268 -1.89281,1.94067 -1.00802,0.52848 -2.20749,0.62919 -3.16158,0.26584 -1.88427,-0.71762 -2.88801,-2.12498 -2.89382,-4.05802 -0.005,-1.49495 0.37476,-2.41951 1.36086,-3.31627 0.61084,-0.5555 0.86154,-0.68532 1.64016,-0.69953 z"
           style="opacity:1;fill:#ff6600;fill-opacity:1;stroke:#ff6600;stroke-width:0.24546982;stroke-miterlimit:4;stroke-dasharray:none;stroke-opacity:1" />
      </g>
      <path
         style="opacity:1;fill:none;fill-opacity:1;stroke:#ffffff;stroke-width:2.7852664;stroke-miterlimit:4;stroke-dasharray:none;stroke-opacity:1;filter:url(#filter1373)"
         d="m 70.836827,1028.5819 c -7.563648,-3.2206 -0.373536,-5.5923 -7.822361,-7.3266 -17.188491,-4.0022 6.766401,-34.52161 -7.997297,-34.25053 -4.2122,0.0773 1.823503,-4.20044 2.956841,-12.87177 0.389457,-2.97978 4.678485,-6.34363 -5.167185,-10.34411 l -2.362116,-3.35225 c -1.299164,-1.84375 4.140169,-5.42852 0.126329,-7.01186 -4.47259,-1.7643 -4.148235,-6.46209 -8.776798,-14.36749 -4.352224,-7.43343 -13.143825,0.26467 -15.963696,-2.26108 -11.506022,-10.30593 -32.7175446,-12.86363 -32.7921266,-31.55848 -0.04194,-10.50333 -1.561418,-18.40409 5.7248401,-25.69225 10.9782803,-10.98119 28.7336245,-8.09571 42.6358505,-1.6664 4.466241,2.06547 1.992762,6.75708 5.146103,11.73661 1.812683,2.86244 6.999636,15.993 11.575793,18.76475 9.757856,5.91031 10.413092,-3.45524 15.592925,-3.9426 2.545314,-0.23954 9.713007,-5.31104 11.717921,-4.97185 3.588738,0.607 16.25249,33.4943 17.87622,8.38888 0.56419,-8.72332 10.5622,-10.22712 12.3953,-13.83812 2.16899,-4.27268 8.15996,-19.42395 13.15616,-20.51644 41.44887,-9.0634 28.58363,2.5275 38.67648,17.48219 9.84988,14.59467 7.06327,25.03878 -5.01258,37.50531 -6.03273,6.22785 -14.08392,5.23211 -25.2199,6.78716 -5.67769,0.79287 -7.67172,2.82341 -16.23249,7.87394 -3.75067,2.21272 -5.69967,1.89457 -7.14579,4.47139 -1.02773,1.83135 -1.47203,9.50945 -2.56619,11.28929 -1.94929,3.17084 -8.77219,1.29307 -5.86477,10.93467 l 3.87539,12.85158 2.8918,6.08788 c 2.58568,5.44338 -0.94778,6.77961 -0.64518,12.62368 0.18622,3.5964 3.86369,8.1854 3.43522,10.2033 -2.18314,10.283 -10.87294,10.2483 -20.581802,15.0954 -5.308826,2.6504 -3.474829,3.1456 -12.08871,3.3651 -8.04334,0.205 -7.87019,0.076 -11.544181,-1.4893 z"
         id="path1771"
         inkscape:connector-curvature="0"
         sodipodi:nodetypes="cssscsssssscssccscsscssccsccscccc"
         transform="matrix(0.02081205,0.35208429,-0.35305594,0.02086949,518.31144,97.342259)" />
    </g>
  </g>
</svg>
