<?xml version="1.0" encoding="UTF-8" standalone="no"?>
<!-- Created with Inkscape (http://www.inkscape.org/) -->

<svg
   xmlns:osb="http://www.openswatchbook.org/uri/2009/osb"
   xmlns:dc="http://purl.org/dc/elements/1.1/"
   xmlns:cc="http://creativecommons.org/ns#"
   xmlns:rdf="http://www.w3.org/1999/02/22-rdf-syntax-ns#"
   xmlns:svg="http://www.w3.org/2000/svg"
   xmlns="http://www.w3.org/2000/svg"
   xmlns:xlink="http://www.w3.org/1999/xlink"
   xmlns:sodipodi="http://sodipodi.sourceforge.net/DTD/sodipodi-0.dtd"
   xmlns:inkscape="http://www.inkscape.org/namespaces/inkscape"
   width="744.09448819"
   height="1052.3622047"
   id="svg2"
   version="1.1"
   inkscape:version="0.48.2 r9819"
   sodipodi:docname="fille-noire.svg"
   enable-background="new"
   inkscape:export-filename="/Users/Elodie/Pictures/Animation/fille-noire-sourrire.png"
   inkscape:export-xdpi="1800.41"
   inkscape:export-ydpi="1800.41">
  <defs
     id="defs4">
    <linearGradient
       id="linearGradient3895">
      <stop
         style="stop-color:#ffffff;stop-opacity:1;"
         offset="0"
         id="stop3897" />
      <stop
         style="stop-color:#41fd00;stop-opacity:0;"
         offset="1"
         id="stop3899" />
    </linearGradient>
    <inkscape:path-effect
       is_visible="true"
       id="path-effect3102"
       effect="spiro" />
    <linearGradient
       id="linearGradient5648">
      <stop
         style="stop-color:#1aa912;stop-opacity:0;"
         offset="0"
         id="stop5650" />
      <stop
         id="stop5698"
         offset="0.015625"
         style="stop-color:#6f7d20;stop-opacity:0.22352941;" />
      <stop
         id="stop5696"
         offset="0.03125"
         style="stop-color:#c4522f;stop-opacity:0.44705882;" />
      <stop
         id="stop5694"
         offset="0.0625"
         style="stop-color:#e06f4c;stop-opacity:0.78823529;" />
      <stop
         id="stop5692"
         offset="0.125"
         style="stop-color:#d57557;stop-opacity:0.64313725;" />
      <stop
         id="stop5682"
         offset="0.25"
         style="stop-color:#c0806c;stop-opacity:0.35686275;" />
      <stop
         id="stop5680"
         offset="0.5"
         style="stop-color:#969796;stop-opacity:0.35686275;" />
      <stop
         style="stop-color:#42c4eb;stop-opacity:0;"
         offset="1"
         id="stop5652" />
    </linearGradient>
    <linearGradient
       id="linearGradient5636">
      <stop
         style="stop-color:#eb4249;stop-opacity:1;"
         offset="0"
         id="stop5638" />
      <stop
         style="stop-color:#42c4eb;stop-opacity:0;"
         offset="1"
         id="stop5640" />
    </linearGradient>
    <linearGradient
       id="linearGradient5530">
      <stop
         style="stop-color:#036494;stop-opacity:1;"
         offset="0"
         id="stop5532" />
      <stop
         style="stop-color:#42c4eb;stop-opacity:0;"
         offset="1"
         id="stop5534" />
    </linearGradient>
    <inkscape:path-effect
       effect="spiro"
       id="path-effect5496"
       is_visible="true" />
    <inkscape:path-effect
       effect="spiro"
       id="path-effect5492"
       is_visible="true" />
    <inkscape:path-effect
       effect="spiro"
       id="path-effect5479"
       is_visible="true" />
    <inkscape:path-effect
       effect="spiro"
       id="path-effect5454"
       is_visible="true" />
    <inkscape:path-effect
       effect="spiro"
       id="path-effect5450"
       is_visible="true" />
    <linearGradient
       id="linearGradient5440"
       osb:paint="solid">
      <stop
         style="stop-color:#e6d06d;stop-opacity:1;"
         offset="0"
         id="stop5442" />
    </linearGradient>
    <inkscape:path-effect
       effect="skeletal"
       id="path-effect5426"
       is_visible="true"
       pattern="M 0,5 C 0,2.24 2.24,0 5,0 7.76,0 10,2.24 10,5 10,7.76 7.76,10 5,10 2.24,10 0,7.76 0,5 z"
       copytype="single_stretched"
       prop_scale="1"
       scale_y_rel="false"
       spacing="0"
       normal_offset="0"
       tang_offset="0"
       prop_units="false"
       vertical_pattern="false"
       fuse_tolerance="0" />
    <inkscape:path-effect
       effect="spiro"
       id="path-effect5424"
       is_visible="true" />
    <inkscape:path-effect
       effect="spiro"
       id="path-effect3083"
       is_visible="true" />
    <inkscape:path-effect
       effect="spiro"
       id="path-effect3077"
       is_visible="true" />
    <inkscape:path-effect
       effect="spiro"
       id="path-effect3073"
       is_visible="true" />
    <inkscape:path-effect
       effect="spiro"
       id="path-effect3069"
       is_visible="true" />
    <inkscape:path-effect
       effect="spiro"
       id="path-effect3065"
       is_visible="true" />
    <inkscape:path-effect
       effect="spiro"
       id="path-effect3061"
       is_visible="true" />
    <inkscape:path-effect
       effect="spiro"
       id="path-effect3057"
       is_visible="true" />
    <filter
       inkscape:collect="always"
       id="filter3890">
      <feGaussianBlur
         inkscape:collect="always"
         stdDeviation="0.92909424"
         id="feGaussianBlur3892" />
    </filter>
    <filter
       inkscape:collect="always"
       id="filter3898">
      <feGaussianBlur
         inkscape:collect="always"
         stdDeviation="0.93162393"
         id="feGaussianBlur3900" />
    </filter>
    <radialGradient
       inkscape:collect="always"
       xlink:href="#linearGradient3895"
       id="radialGradient3901"
       cx="390.39996"
       cy="480.80261"
       fx="390.39996"
       fy="480.80261"
       r="268.79999"
       gradientTransform="matrix(1.6196669,0,0,1.655469,-263.80523,-334.39191)"
       gradientUnits="userSpaceOnUse" />
  </defs>
  <sodipodi:namedview
     id="base"
     pagecolor="#ffffff"
     bordercolor="#666666"
     borderopacity="1.0"
     inkscape:pageopacity="0.0"
     inkscape:pageshadow="2"
     inkscape:zoom="3.8254822"
     inkscape:cx="354.51191"
     inkscape:cy="590.23269"
     inkscape:document-units="px"
     inkscape:current-layer="svg2"
     showgrid="false"
     inkscape:window-width="1440"
     inkscape:window-height="788"
     inkscape:window-x="0"
     inkscape:window-y="0"
     inkscape:window-maximized="1" />
  <metadata
     id="metadata7">
    <rdf:RDF>
      <cc:Work
         rdf:about="">
        <dc:format>image/svg+xml</dc:format>
        <dc:type
           rdf:resource="http://purl.org/dc/dcmitype/StillImage" />
        <dc:title></dc:title>
      </cc:Work>
    </rdf:RDF>
  </metadata>
  <g
     inkscape:groupmode="layer"
     id="layer13"
     inkscape:label="fond blanc">
    <rect
       style="fill:#ffffff;fill-opacity:0.85258155;fill-rule:nonzero;stroke:#000000;stroke-width:0;stroke-miterlimit:4;stroke-opacity:0.56796115;stroke-dasharray:none"
       id="rect3130"
       width="899.32855"
       height="889.51056"
       x="-53.017185"
       y="35.217628" />
  </g>
  <g
     inkscape:groupmode="layer"
     id="layer10"
     inkscape:label="fond jaune"
     style="display:inline">
    <rect
       style="fill:url(#radialGradient3901);fill-opacity:1;fill-rule:nonzero"
       id="rect3125"
       width="870.73303"
       height="889.9801"
       x="-77.219597"
       y="6.5721283"
       ry="0"
       inkscape:export-filename="/Users/Elodie/Documents/Cinéma/Animation/fille-noire-sourire.png"
       inkscape:export-xdpi="1500.391"
       inkscape:export-ydpi="1500.391" />
  </g>
  <path
     sodipodi:nodetypes="cccccccc"
     inkscape:connector-curvature="0"
     id="path3227"
     d="m 570.6,295.88683 c 1.14077,-5.99874 2.80678,-10.12918 5.47013,-15.37705 1.76377,-3.90698 1.65145,-11.18728 3.98839,-15.56144 2.24829,-4.76156 2.09443,-8.16068 4.79307,-12.47118 4.28425,4.1731 1.21071,11.3409 0.5256,17.32165 -3.33072,7.65945 9.03511,11.3969 11.04352,15.66961 0.93417,5.17624 -0.52255,6.31857 -3.1255,11.62745 -3.28536,2.5091 -5.21617,5.3789 -7.74959,8.86631"
     style="opacity:0.98999999000000005;color:#000000;fill:#a05a2c;fill-opacity:1;fill-rule:nonzero;stroke:none;stroke-width:1px;marker:none;visibility:visible;display:inline;overflow:visible;enable-background:accumulate" />
  <path
     sodipodi:nodetypes="csc"
     inkscape:connector-curvature="0"
     id="path3229"
     d="m 596.08074,292.76807 c -2.32513,-1.8721 3.59164,-10.68907 -7.6754,-0.48647 -5.73445,5.19267 2.54084,0.54641 5.02664,3.86567"
     style="opacity:0.98999999000000005;color:#000000;fill:#552200;fill-opacity:1;fill-rule:nonzero;stroke:none;stroke-width:1px;marker:none;visibility:visible;display:inline;overflow:visible;enable-background:accumulate" />
  <path
     sodipodi:nodetypes="cssc"
     inkscape:connector-curvature="0"
     id="path3231"
     d="m 584.48468,280.68497 c 0,0 0.6762,5.91267 -1.02523,6.2614 -2.35832,0.48335 -7.91044,4.25226 -7.58937,2.89862 0.39753,-1.67601 4.50506,-3.89041 5.0081,-4.98915"
     style="opacity:0.98999999000000005;color:#000000;fill:#552200;fill-opacity:1;fill-rule:nonzero;stroke:none;stroke-width:1px;marker:none;visibility:visible;display:inline;overflow:visible;enable-background:accumulate" />
  <path
     inkscape:connector-curvature="0"
     id="path3233"
     d="m 595.54689,285.29974 c -2.37307,0.27368 -4.38807,-1.07495 -6.52355,-1.85233 -0.30731,-0.11187 -0.89067,-0.46163 -1.04377,-0.71244 -0.0723,-0.11856 0,-0.56994 0,-0.42746 0,0.095 0,0.37996 0,0.28497 0,-0.1854 0.65892,-1.72417 0.78283,-1.99481 0.0583,-0.12745 0.26094,0 0.39141,0"
     style="opacity:0.98999999000000005;color:#000000;fill:#552200;fill-opacity:1;fill-rule:nonzero;stroke:none;stroke-width:1px;marker:none;visibility:visible;display:inline;overflow:visible;enable-background:accumulate" />
  <g
     inkscape:groupmode="layer"
     id="layer12"
     inkscape:label="Cou"
     style="display:inline">
    <path
       sodipodi:nodetypes="ccccccccccccccccc"
       inkscape:connector-curvature="0"
       id="path5786"
       d="m 412.38468,468.43341 c -0.24723,8.50152 0.26635,13.79247 4.16899,21.41946 0.85113,3.00047 4.11812,10.99161 4.77164,12.63079 -4.24641,-0.44357 9.57795,28.69531 5.36922,29.21483 -6.60031,1.21555 -35.34261,28.29236 -42.06384,28.63348 -6.46178,0.80987 -19.05688,-32.7658 -25.598,-33.27968 -4.38554,-0.0567 1.46129,-20.25949 -2.91094,-20.06327 -10.27166,-2.08549 -12.26294,-0.20796 -8.71107,-7.8126 1.71651,-2.72342 4.49032,-4.65594 5.77283,-7.65541 0.61222,-3.73218 1.64147,-7.43937 2.0366,-11.2171 0.93939,-2.48269 -0.58554,-7.33365 1.84856,-8.36303 3.64577,1.70157 7.56332,2.90905 10.67372,5.56959 5.12178,3.38684 11.47675,4.2962 17.49126,4.64567 3.45452,-0.26929 7.74198,0.83645 10.4002,-1.95483 2.3431,-2.15916 3.99565,-5.16106 6.97628,-6.55595 1.99683,-3.15688 5.83285,-3.57117 8.94671,-4.05657 0.32952,-0.34373 0.56561,-0.76232 0.82784,-1.15538 z"
       style="opacity:0.98999999000000005;color:#000000;fill:#a05a2c;fill-opacity:1;fill-rule:nonzero;stroke:none;stroke-width:1px;marker:none;visibility:visible;display:inline;overflow:visible;enable-background:accumulate" />
    <path
       style="opacity:0.98999999;color:#000000;fill:#784421;fill-opacity:1;fill-rule:nonzero;stroke:none;stroke-width:1px;marker:none;visibility:visible;display:inline;overflow:visible;enable-background:accumulate"
       d="m 382.45772,489.67013 c -10.67571,-0.93964 -27.14782,-11.77749 -26.75269,-16.14161 0.58584,-3.03142 -1.92904,-2.22417 0.50506,-3.41333 3.64577,1.96569 9.76332,-5.41908 12.87372,-2.34557 5.12178,3.91255 7.67675,-0.11991 13.69126,0.2838 13.67941,-5.90625 10.54757,1.42532 13.2002,-1.79617 2.3431,-2.49431 3.79565,8.13153 6.77628,6.52013 1.99683,-3.6469 15.4495,-11.47727 18.56336,-12.03802 -8.70074,18.48946 -4.7083,20.64969 -4.38813,31.12779 -16.16686,1.98551 -19.31745,-0.7805 -34.46906,-2.19702 z"
       id="path5780"
       inkscape:connector-curvature="0"
       sodipodi:nodetypes="cccccccccc" />
    <path
       style="opacity:0.98999999;color:#000000;fill:#42c4eb;fill-opacity:1;fill-rule:nonzero;stroke:none;stroke-width:1px;marker:none;visibility:visible;display:inline;overflow:visible;enable-background:accumulate"
       d="m 390.74721,495.86915 -9.33381,-1.83848"
       id="path5782"
       inkscape:connector-curvature="0" />
  </g>
  <g
     inkscape:label="Layer 1"
     inkscape:groupmode="layer"
     id="layer1"
     style="display:inline">
    <path
       style="opacity:0.98999999;color:#000000;fill:#42c4eb;fill-opacity:1;fill-rule:nonzero;stroke:none;stroke-width:1px;marker:none;visibility:visible;display:inline;overflow:visible;enable-background:accumulate"
       d="m 320.61232,408.24851 -9.34391,0.25254"
       id="path3059"
       inkscape:path-effect="#path-effect3061"
       inkscape:original-d="m 320.61232,408.24851 -9.34391,0.25254"
       inkscape:connector-curvature="0" />
    <path
       style="opacity:0.98999999;color:#000000;fill:#42c4eb;fill-opacity:1;fill-rule:nonzero;stroke:none;stroke-width:1px;marker:none;visibility:visible;display:inline;overflow:visible;enable-background:accumulate"
       d="m 307.2278,415.06704 2.0203,-1.76777"
       id="path3063"
       inkscape:path-effect="#path-effect3065"
       inkscape:original-d="m 307.2278,415.06704 2.0203,-1.76777"
       inkscape:connector-curvature="0" />
    <path
       style="opacity:0.98999999;color:#000000;fill:#42c4eb;fill-opacity:1;fill-rule:nonzero;stroke:none;stroke-width:1px;marker:none;visibility:visible;display:inline;overflow:visible;enable-background:accumulate"
       d="m 316.31917,410.01628 -9.59645,3.78807"
       id="path3067"
       inkscape:path-effect="#path-effect3069"
       inkscape:original-d="m 316.31917,410.01628 -9.59645,3.78807"
       inkscape:connector-curvature="0" />
    <path
       style="opacity:0.98999999;color:#000000;fill:#501616;fill-opacity:1;fill-rule:nonzero;stroke:none;stroke-width:1px;marker:none;visibility:visible;display:inline;overflow:visible;enable-background:accumulate"
       d="m 305.9651,416.32973 13.8896,-6.06092"
       id="path3071"
       inkscape:path-effect="#path-effect3073"
       inkscape:original-d="m 305.9651,416.32973 13.8896,-6.06092"
       inkscape:connector-curvature="0" />
    <path
       style="opacity:0.98999999;color:#000000;fill:#42c4eb;fill-opacity:1;fill-rule:nonzero;stroke:none;stroke-width:1px;marker:none;visibility:visible;display:inline;overflow:visible;enable-background:accumulate"
       d="m 307.2278,415.57212 16.66751,0"
       id="path3075"
       inkscape:path-effect="#path-effect3077"
       inkscape:original-d="m 307.2278,415.57212 c 5.55583,0 11.11167,0 16.66751,0"
       inkscape:connector-curvature="0" />
    <path
       sodipodi:type="arc"
       style="opacity:0.98999999;fill:#ffffff;fill-opacity:1;fill-rule:nonzero;stroke:none"
       id="path3027"
       sodipodi:cx="308.9375"
       sodipodi:cy="382.79968"
       sodipodi:rx="2.5625"
       sodipodi:ry="3.0625"
       d="m 311.5,382.79968 a 2.5625,3.0625 0 1 1 -5.125,0 2.5625,3.0625 0 1 1 5.125,0 z"
       transform="matrix(1,0,0,0.92925198,53.17443,58.97737)" />
    <path
       style="opacity:0.98999999;color:#000000;fill:#784421;fill-opacity:1;fill-rule:nonzero;stroke:none;stroke-width:1px;marker:none;visibility:visible;display:inline;overflow:visible;enable-background:accumulate"
       d="m 371.2317,413.79606 c -0.13518,-0.067 -0.19517,-0.21791 -0.30887,-0.30887 -0.0362,-0.029 -0.076,-0.0533 -0.11583,-0.0772 -0.0494,-0.0296 -0.10654,-0.0453 -0.15443,-0.0772 -0.0151,-0.0101 -0.0257,-0.0257 -0.0386,-0.0386 -0.0257,-0.0129 -0.0533,-0.0226 -0.0772,-0.0386 -0.0152,-0.0101 -0.0223,-0.0305 -0.0386,-0.0386 -0.0115,-0.006 -0.0264,0.004 -0.0386,0 -0.0273,-0.009 -0.0499,-0.0295 -0.0772,-0.0386 -0.0122,-0.004 -0.0295,0.009 -0.0386,0 -0.009,-0.009 0.009,-0.0295 0,-0.0386 -0.0182,-0.0182 -0.0542,0.0115 -0.0772,0 -0.0163,-0.008 -0.0223,-0.0305 -0.0386,-0.0386 -0.0115,-0.006 -0.0271,0.006 -0.0386,0 -0.0163,-0.008 -0.0257,-0.0257 -0.0386,-0.0386 -0.0257,-0.0257 -0.0469,-0.057 -0.0772,-0.0772 -0.0107,-0.007 -0.0283,0.008 -0.0386,0 -0.0728,-0.0546 -0.12869,-0.12869 -0.19304,-0.19304 -0.0129,-0.0129 -0.0223,-0.0305 -0.0386,-0.0386 -0.0115,-0.006 -0.0295,0.009 -0.0386,0 -0.009,-0.009 0.009,-0.0295 0,-0.0386 -0.009,-0.009 -0.0295,0.009 -0.0386,0 -0.0204,-0.0203 -0.0183,-0.0569 -0.0386,-0.0772 -0.009,-0.009 -0.0295,0.009 -0.0386,0 -0.009,-0.009 0,-0.0257 0,-0.0386 -0.0257,-0.0129 -0.0533,-0.0226 -0.0772,-0.0386 -0.0303,-0.0202 -0.0447,-0.0609 -0.0772,-0.0772 -0.0115,-0.006 -0.0271,0.006 -0.0386,0 -0.0163,-0.008 -0.0223,-0.0305 -0.0386,-0.0386 -0.0515,-0.0257 -0.0386,0.0386 -0.0386,-0.0386 0,-0.0129 0,-0.0257 0,-0.0386 0,-0.0129 0.006,-0.0271 0,-0.0386 -0.008,-0.0163 -0.0386,-0.0568 -0.0386,-0.0386 0,0.0288 0.0674,0.0772 0.0386,0.0772 -0.30262,0.13411 -0.067,-0.0914 -0.11583,-0.11583 -0.0233,-0.0116 -0.18149,0.0115 -0.19304,0 -0.009,-0.009 0.009,-0.0295 0,-0.0386 -0.0127,-0.0127 -0.1265,0.009 -0.15443,0 -0.0173,-0.006 -0.0235,-0.0285 -0.0386,-0.0386 -0.024,-0.016 -0.0499,-0.0295 -0.0772,-0.0386 -0.0266,-0.009 -0.0931,0.0114 -0.11583,0 -0.0163,-0.008 -0.0223,-0.0305 -0.0386,-0.0386 -0.0228,-0.0114 -0.0893,0.009 -0.11583,0 -0.0273,-0.009 -0.0493,-0.0316 -0.0772,-0.0386 -0.025,-0.006 -0.0528,0.008 -0.0772,0 -0.0345,-0.0115 -0.0447,-0.0609 -0.0772,-0.0772 -0.0115,-0.006 -0.0271,0.006 -0.0386,0 -0.0163,-0.008 -0.0213,-0.0328 -0.0386,-0.0386 -0.0244,-0.008 -0.0528,0.008 -0.0772,0 -0.0345,-0.0115 -0.0446,-0.0609 -0.0772,-0.0772 -0.0115,-0.006 -0.0271,0.006 -0.0386,0 -0.0163,-0.008 -0.0223,-0.0305 -0.0386,-0.0386 -0.023,-0.0115 -0.059,0.0182 -0.0772,0 -0.009,-0.009 0.009,-0.0295 0,-0.0386 -0.0106,-0.0106 -0.13349,0.0105 -0.15443,0 -0.0163,-0.008 -0.0213,-0.0329 -0.0386,-0.0386 -0.11583,-0.0386 -0.0386,0.0193 -0.11583,0 -0.0395,-0.01 -0.078,-0.0235 -0.11582,-0.0386 -0.09,-0.036 -0.0833,-0.0589 -0.19304,-0.0772 -0.0381,-0.006 -0.0777,0.006 -0.11583,0 -0.0401,-0.007 -0.0759,-0.0306 -0.11582,-0.0386 -0.0252,-0.005 -0.0518,0.004 -0.0772,0 -0.0523,-0.009 -0.10191,-0.0311 -0.15444,-0.0386 -0.0382,-0.005 -0.0777,0.006 -0.11582,0 -0.0786,0.0134 -0.12509,-0.0636 -0.19304,-0.0772 -0.0379,-0.008 -0.0778,0.006 -0.11583,0 -0.0401,-0.007 -0.0759,-0.0306 -0.11583,-0.0386 -0.0252,-0.005 -0.0522,0.006 -0.0772,0 -0.0558,-0.014 -0.0998,-0.059 -0.15444,-0.0772 -0.0244,-0.008 -0.0528,0.008 -0.0772,0 -0.21875,-0.10937 0.0575,0.0144 -0.15444,-0.0386 -0.0279,-0.007 -0.049,-0.033 -0.0772,-0.0386 -0.0559,-0.0112 -0.17573,0.014 -0.23165,0 -0.0279,-0.007 -0.0515,-0.0257 -0.0772,-0.0386 -0.0386,-0.0129 -0.0759,-0.0306 -0.11583,-0.0386 -0.0252,-0.005 -0.052,0.005 -0.0772,0 -0.0399,-0.008 -0.0759,-0.0306 -0.11582,-0.0386 -0.0252,-0.005 -0.0542,0.0115 -0.0772,0 -0.0326,-0.0163 -0.0447,-0.0609 -0.0772,-0.0772 -0.023,-0.0115 -0.0528,0.008 -0.0772,0 -0.0173,-0.006 -0.0213,-0.0328 -0.0386,-0.0386 -0.0177,-0.006 -0.13726,0.009 -0.15444,0 -0.0163,-0.008 -0.0213,-0.0329 -0.0386,-0.0386 -0.0366,-0.0122 -0.0792,0.0122 -0.11582,0 -0.0273,-0.009 -0.0499,-0.0295 -0.0772,-0.0386 -0.0122,-0.004 -0.0257,0 -0.0386,0 -0.0257,0 -0.0515,0 -0.0772,0 -0.0901,0 -0.18018,0 -0.27026,0 -0.28313,0 -0.56626,0 -0.84939,0 -0.0772,0 -0.15444,0 -0.23165,0 -0.0257,0 -0.0528,0.008 -0.0772,0 -0.0173,-0.006 -0.0213,-0.0328 -0.0386,-0.0386 -0.0244,-0.008 -0.0515,0 -0.0772,0 -0.0129,0 -0.0271,0.006 -0.0386,0 -0.0163,-0.008 -0.0213,-0.0328 -0.0386,-0.0386 -0.0348,-0.0116 -0.0811,0.0116 -0.11583,0 -0.0273,-0.009 -0.0499,-0.0295 -0.0772,-0.0386 -0.0262,-0.009 -0.22046,0 -0.27026,0 -0.19304,0 -0.38608,0 -0.57912,0 -0.14157,0 -0.28313,0 -0.4247,0 -0.0514,0 -0.15554,-0.0125 -0.19304,0 -0.0122,0.004 0.0115,0.0329 0,0.0386 -0.009,0.005 -0.12907,0 -0.15443,0 -0.16853,0 -0.10633,0 -0.27026,0 -0.0643,0 -0.12958,-0.0106 -0.19305,0 -0.0401,0.007 -0.0759,0.0306 -0.11582,0.0386 -0.0252,0.005 -0.0523,-0.006 -0.0772,0 -0.0279,0.007 -0.0493,0.0316 -0.0772,0.0386 -0.0304,0.008 -0.1915,0 -0.23165,0 -0.0129,0 -0.0271,-0.006 -0.0386,0 -0.0163,0.008 -0.0213,0.0328 -0.0386,0.0386 -0.0347,0.0116 -0.0811,-0.0116 -0.11582,0 -0.0273,0.009 -0.0499,0.0295 -0.0772,0.0386 -0.0122,0.004 -0.0264,-0.004 -0.0386,0 -0.0273,0.009 -0.0499,0.0295 -0.0772,0.0386 -0.041,0.0137 -0.11341,-0.0137 -0.15444,0 -0.0173,0.006 -0.0213,0.0329 -0.0386,0.0386 -0.0244,0.008 -0.0515,0 -0.0772,0 -0.0129,0 -0.0271,-0.006 -0.0386,0 -0.0326,0.0163 -0.0427,0.0657 -0.0772,0.0772 -0.041,0.0137 -0.11341,-0.0137 -0.15443,0 -0.0273,0.009 -0.0499,0.0295 -0.0772,0.0386 -0.0244,0.008 -0.0515,0 -0.0772,0 -0.0644,0 -0.12869,0 -0.19304,0 -0.0257,0 -0.0515,0 -0.0772,0 -0.0129,0 -0.0264,-0.004 -0.0386,0 -0.0273,0.009 -0.0493,0.0316 -0.0772,0.0386 -0.0294,0.007 -0.16072,0 -0.19305,0 -0.0129,0 -0.0264,-0.004 -0.0386,0 -0.23964,0.0799 0.12832,-0.003 -0.19304,0.0772 -0.025,0.006 -0.0528,-0.008 -0.0772,0 -0.0273,0.009 -0.0499,0.0295 -0.0772,0.0386 -0.0244,0.008 -0.0528,-0.008 -0.0772,0 -0.0273,0.009 -0.0493,0.0316 -0.0772,0.0386 -0.025,0.006 -0.0522,-0.006 -0.0772,0 -0.0558,0.014 -0.0986,0.0633 -0.15444,0.0772 -0.27501,0.0687 0.1956,-0.11685 -0.19304,0.0386 -0.0534,0.0214 -0.0986,0.0632 -0.15443,0.0772 -0.025,0.006 -0.0523,-0.006 -0.0772,0 -0.0279,0.007 -0.0493,0.0316 -0.0772,0.0386 -0.025,0.006 -0.0528,-0.008 -0.0772,0 -0.0173,0.006 -0.0223,0.0305 -0.0386,0.0386 -0.0152,0.008 -0.14402,-0.002 -0.15444,0 -0.0523,0.009 -0.10409,0.0218 -0.15443,0.0386 -0.0657,0.0219 -0.1273,0.0553 -0.19305,0.0772 -0.0503,0.0168 -0.10409,0.0218 -0.15443,0.0386 -0.0658,0.0219 -0.12729,0.0553 -0.19304,0.0772 -0.0503,0.0168 -0.10475,0.02 -0.15444,0.0386 -0.0539,0.0202 -0.10184,0.0538 -0.15443,0.0772 -0.24974,0.11099 -0.13635,0.0434 -0.38609,0.15443 -0.35151,0.17576 0.0138,0.002 -0.27026,0.11583 -0.0267,0.0107 -0.0499,0.0295 -0.0772,0.0386 -0.0324,0.0108 -0.12885,-0.0128 -0.15444,0 -0.0163,0.008 -0.0223,0.0305 -0.0386,0.0386 -0.0309,0.0154 -0.0849,-0.0154 -0.11582,0 -0.0163,0.008 -0.0213,0.0329 -0.0386,0.0386 -0.0244,0.008 -0.0515,0 -0.0772,0 -0.0515,0 -0.10295,0 -0.15443,0 -0.0257,0 -0.0522,-0.006 -0.0772,0 -0.0279,0.007 -0.0493,0.0316 -0.0772,0.0386 -0.025,0.006 -0.052,-0.005 -0.0772,0 -0.12805,0.0256 -0.0901,0.036 -0.19305,0.0772 -0.0378,0.0151 -0.078,0.0235 -0.11582,0.0386 -0.0789,0.0316 -0.15561,0.0778 -0.23165,0.11582 -0.0257,0.0129 -0.0493,0.0316 -0.0772,0.0386 -0.025,0.006 -0.0528,-0.008 -0.0772,0 -0.0345,0.0115 -0.0469,0.057 -0.0772,0.0772 -0.024,0.016 -0.0515,0.0257 -0.0772,0.0386 -0.0257,0.0257 -0.0481,0.0554 -0.0772,0.0772 -0.0445,0.0334 -0.20014,0.0843 -0.23165,0.11583 -0.0204,0.0204 -0.0183,0.0569 -0.0386,0.0772 -0.0204,0.0204 -0.0533,0.0226 -0.0772,0.0386 -0.0333,0.0222 -0.0857,0.0857 -0.11582,0.11582 -0.0386,0.0386 -0.0772,0.0772 -0.11583,0.11583 -0.0129,0.0129 -0.0285,0.0235 -0.0386,0.0386 -0.016,0.0239 -0.0183,0.0569 -0.0386,0.0772 -0.0182,0.0182 -0.059,-0.0182 -0.0772,0 -0.009,0.009 0.009,0.0295 0,0.0386 -0.15068,0.15068 -0.0207,-0.009 -0.11583,0.0386 -0.0163,0.008 -0.0213,0.0328 -0.0386,0.0386 -0.0244,0.008 -0.0542,-0.0115 -0.0772,0 -0.0115,0.006 0.006,0.0271 0,0.0386 -0.008,0.0163 -0.0257,0.0257 -0.0386,0.0386 -0.0386,0.0386 -0.0809,0.0739 -0.11583,0.11582 -0.0557,0.0669 -0.15537,0.25613 -0.19304,0.30887 -0.0212,0.0296 -0.0554,0.0481 -0.0772,0.0772 -0.0345,0.046 -0.0453,0.10654 -0.0772,0.15443 -0.0101,0.0151 -0.0329,0.0213 -0.0386,0.0386 -0.008,0.0244 0.0115,0.0542 0,0.0772 -0.0163,0.0326 -0.0469,0.057 -0.0772,0.0772 -0.0214,0.0143 -0.0657,-0.023 -0.0772,0 -0.0115,0.023 0.0143,0.0558 0,0.0772 -0.016,0.0239 -0.0569,0.0183 -0.0772,0.0386 -0.009,0.009 0.009,0.0295 0,0.0386 -0.0717,0.0717 -0.10299,5e-5 -0.15444,0.0772 -0.0851,0.0194 -0.0204,0.0794 -0.0386,0.11582 -0.0103,0.0206 -0.0955,0.0955 -0.11582,0.11583"
       id="path3033"
       inkscape:connector-curvature="0" />
    <path
       style="opacity:0.98999999;fill:#6c5d53;fill-opacity:1;fill-rule:nonzero;stroke:none"
       id="path3039"
       d="m 351.68216,414.237 c 0.0692,-0.0174 0.16619,-0.0408 0.22632,-0.0624 0.23802,-0.0854 0.54687,-0.22472 0.76133,-0.32832 0.45629,-0.22043 0.82187,-0.42291 1.27295,-0.66441 1.10638,-0.57194 2.18205,-1.20924 3.32279,-1.71293 0.16464,-0.0727 0.33259,-0.13762 0.49889,-0.20644 0.65098,-0.26338 1.33099,-0.43782 2.0238,-0.5444 0.31775,-0.0433 0.63843,-0.0574 0.95873,-0.0645 0.024,-2.3e-4 0.048,-4.6e-4 0.0719,-7e-4 0,0 -0.45619,0.3311 -0.45619,0.3311 l 0,0 c -0.0227,-4.6e-4 -0.0453,-9.3e-4 -0.068,-10e-4 -0.30929,-0.003 -0.61888,0.01 -0.92581,0.0498 -0.67305,0.0984 -1.3335,0.26535 -1.96708,0.51579 -0.16175,0.0661 -0.32508,0.12837 -0.48525,0.19819 -1.13053,0.49287 -2.19719,1.11888 -3.28887,1.68906 -0.49435,0.26776 -0.82352,0.45247 -1.31909,0.69798 -0.2539,0.12578 -0.55747,0.26897 -0.82906,0.37248 -0.0951,0.0363 -0.16309,0.0519 -0.25526,0.0754 0,0 0.45788,-0.34436 0.45788,-0.34436 z"
       inkscape:connector-curvature="0" />
    <path
       style="opacity:0.98999999;color:#000000;fill:#42c4eb;fill-opacity:1;fill-rule:nonzero;stroke:none;stroke-width:1px;marker:none;visibility:visible;display:inline;overflow:visible;enable-background:accumulate"
       d="m 357.10097,415.61066 -7.60589,-2.50955"
       id="path3043"
       inkscape:connector-curvature="0" />
    <path
       style="opacity:0.98999999;color:#000000;fill:#ff9955;fill-opacity:1;fill-rule:nonzero;stroke:none;stroke-width:1px;marker:none;visibility:visible;display:inline;overflow:visible;enable-background:accumulate"
       d="m 371.2317,413.84571 c -0.4028,-1.07109 -1.63428,-2.80516 -2.7026,-3.37244 -2.76771,-1.46965 -4.76182,-2.08087 -8.03058,-2.08087 -0.95234,0 -1.90469,0 -2.85703,0 -0.0998,0 -1.00382,0.14994 -1.00382,0.14351 0,-0.0986 0.20274,0.0717 0.30886,0.0717 0.41183,0 0.82365,0 1.23548,0 0.90645,0 1.76186,-0.1435 2.7026,-0.1435 0.28921,0 1.05344,-0.12046 1.31269,0 0.77971,0.36228 3.44324,0.83175 3.86085,1.21982 0.079,0.0734 0.97608,0.20237 1.15826,0.28702 0.11084,0.0515 0.29927,0.3289 0.4633,0.43052 0.31501,0.19515 0.63356,0.24898 0.92661,0.43052 0.15522,0.0962 0.0184,0.0513 0.0772,0.21526 0.0804,0.22419 0.44734,0.25735 0.54052,0.43053 0.19339,0.35941 0.47025,0.58695 0.69496,1.00456 0.08,0.14874 0.29279,0.15697 0.38608,0.28702 0.16227,0.22617 0.47809,0.90723 0.61774,1.00455 0.0849,0.0592 0.24257,-0.006 0.30887,0.0717 0.0643,0.0747 0,0.19134 0,0.28702"
       id="path3056"
       inkscape:connector-curvature="0" />
    <path
       style="opacity:0.98999999;color:#000000;fill:#42c4eb;fill-opacity:1;fill-rule:nonzero;stroke:none;stroke-width:1px;marker:none;visibility:visible;display:inline;overflow:visible;enable-background:accumulate"
       d="m 362.04286,408.10538 0.15444,2.36789"
       id="path3058"
       inkscape:connector-curvature="0" />
  </g>
  <g
     inkscape:groupmode="layer"
     id="layer4"
     inkscape:label="tête"
     style="display:inline">
    <path
       style="opacity:0.98999999;color:#000000;fill:#42c4eb;fill-opacity:1;fill-rule:nonzero;stroke:none;stroke-width:1px;marker:none;visibility:visible;display:inline;overflow:visible;enable-background:accumulate"
       d="m 312.30663,435.59366 22.43676,30.08005"
       id="path5448"
       inkscape:path-effect="#path-effect5450"
       inkscape:original-d="m 312.30663,435.59366 22.43676,30.08005"
       inkscape:connector-curvature="0" />
    <path
       style="opacity:0.98999999;color:#000000;fill:#a05a2c;fill-opacity:1;fill-rule:nonzero;stroke:none;stroke-width:1px;marker:none;visibility:visible;display:inline;overflow:visible;enable-background:accumulate"
       inkscape:path-effect="#path-effect5454"
       inkscape:original-d="m 454.91684,406.05815 c -5.30522,-4.491 1.38658,-6.52587 0.031,-8.84141 -0.21784,-1.55109 1.35445,-5.70644 1.32263,-10.7456 -0.0318,-5.03915 0.0823,-6.88163 -0.55197,-9.08759 -1.58886,-9.72591 -1.46719,-12.81067 -3.42427,-17.10363 -2.05574,-4.18409 -3.03818,-10.21892 -6.45526,-13.27307 -14.21968,-13.00906 -21.61202,-11.28903 -32.88984,-19.35313 37.16744,62.94596 -15.95957,-0.053 -24.67049,-0.0248 -11.13874,0.0289 -22.95601,-2.27509 -33.22441,1.9153 -17.17922,7.01899 -28.10993,21.40653 -30.35265,23.56653 -4.44683,4.59986 -3.00391,10.51553 -3.9024,17.16949 -0.82836,6.13462 4.09212,15.08922 3.84066,17.5274 -2.02027,1.28215 -343.17615,18.46133 -7.89655,22.73132 4.75923,0.0606 0.94458,7.58859 3.66045,9.94885 1.48006,1.28626 4.07682,3.17133 5.81721,1.36735 3.11587,-0.75127 6.41382,20.76272 9.16213,25.29632 2.42872,3.62282 15.19929,17.7967 18.49401,19.71825 6.51933,3.8022 17.09135,10.03599 22.95353,11.03269 3.15328,0.44063 15.65938,0.61287 18.55589,-0.79528 8.57261,-4.16764 26.64134,-14.86682 19.17331,-11.05766 -11.28879,5.758 19.92703,-21.07865 17.55513,-18.0335 -5.01533,7.11191 1.04199,-2.33839 6.0999,-11.13097 0.63286,-2.29086 -2.08573,-3.09036 1.39822,-3.5573 3.46022,-9.75716 0.27615,-2.37314 1.81132,-7.18162 1.53516,-4.80846 1.53956,-4.04725 1.12672,-4.96733 2.72185,-4.42214 1.25881,-13.96407 6.68804,-6.87491 1.66792,-7.73232 4.33798,-3.85203 5.67771,-8.24569 z"
       id="path5452"
       d="m 454.91684,406.05815 0.031,-8.84141 c 0.79582,-3.52617 1.23961,-7.13169 1.32263,-10.7456 0.0698,-3.03752 -0.11507,-6.08085 -0.55197,-9.08759 -0.40632,-5.81604 -1.5602,-11.57944 -3.42427,-17.10363 -1.57793,-4.67621 -3.673,-9.19682 -6.45526,-13.27307 -7.4079,-10.85321 -19.80486,-18.14787 -32.88984,-19.35313 -8.22232,0.17465 -16.44853,0.16638 -24.67049,-0.0248 -11.12808,-0.25876 -22.43816,-0.83388 -33.22441,1.9153 -6.4081,1.63328 -12.53836,4.44455 -17.81175,8.43487 -5.27338,3.99033 -9.67484,9.17205 -12.5409,15.13166 -2.56477,5.33311 -3.88155,11.25174 -3.9024,17.16949 -0.0212,6.02923 1.30013,12.05951 3.84066,17.5274 -5.06629,6.41286 -7.89603,14.55868 -7.89655,22.73132 -1.2e-4,1.83149 0.1407,3.68173 0.68709,5.42981 0.5464,1.74808 1.52477,3.39835 2.97336,4.51904 1.62453,1.2568 3.80289,1.76883 5.81721,1.36735 1.21031,8.955 4.35714,17.64329 9.16213,25.29632 4.81832,7.67425 11.25734,14.26473 18.49401,19.71825 6.83795,5.15305 14.55289,9.37717 22.95353,11.03269 6.13454,1.20894 12.56828,1.00545 18.55589,-0.79528 7.1096,-2.13816 13.37605,-6.41979 19.17331,-11.05766 6.57405,-5.25931 12.76017,-11.11347 17.55513,-18.0335 2.41411,-3.48401 4.46226,-7.22144 6.0999,-11.13097 l 1.39822,-3.5573 c 0.63779,-2.38512 1.24165,-4.77932 1.81132,-7.18162 0.39176,-1.65205 0.76736,-3.30793 1.12672,-4.96733 l 6.68804,-6.87491 5.67771,-8.24569 -2e-5,-10e-6"
       inkscape:connector-curvature="0"
       sodipodi:nodetypes="ccscccccccscsaccscsscccscccc" />
    <path
       style="opacity:0.98999999;color:#000000;fill:#42c4eb;fill-opacity:1;fill-rule:nonzero;stroke:none;stroke-width:1px;marker:none;visibility:visible;display:inline;overflow:visible;enable-background:accumulate"
       d="m 369.1,474.76218 9.9,-13.8"
       id="path3106"
       inkscape:connector-curvature="0" />
    <path
       style="opacity:0.98999999;color:#000000;fill:#42c4eb;fill-opacity:1;fill-rule:nonzero;stroke:none;stroke-width:1px;marker:none;visibility:visible;display:inline;overflow:visible;enable-background:accumulate"
       d="m 385.5,464.66218 3.2,-4.7"
       id="path3108"
       inkscape:connector-curvature="0" />
    <path
       style="opacity:0.98999999;color:#000000;fill:#42c4eb;fill-opacity:1;fill-rule:nonzero;stroke:none;stroke-width:1px;marker:none;visibility:visible;display:inline;overflow:visible;enable-background:accumulate"
       d="m 387.5,468.66218 -8.2,-7.5"
       id="path3110"
       inkscape:connector-curvature="0" />
    <path
       style="opacity:0.98999999;color:#000000;fill:#42c4eb;fill-opacity:1;fill-rule:nonzero;stroke:none;stroke-width:1px;marker:none;visibility:visible;display:inline;overflow:visible;enable-background:accumulate"
       d="m 370.9,460.76218 5.3,-1.4"
       id="path3112"
       inkscape:connector-curvature="0" />
  </g>
  <g
     inkscape:groupmode="layer"
     id="layer3"
     inkscape:label="visage"
     style="display:inline" />
  <g
     inkscape:groupmode="layer"
     id="layer5"
     inkscape:label="bouche"
     style="display:inline">
    <path
       style="opacity:0.98999999;color:#000000;fill:#800000;fill-opacity:1;fill-rule:nonzero;stroke:none;stroke-width:1px;marker:none;visibility:visible;display:inline;overflow:visible;enable-background:accumulate"
       inkscape:path-effect="#path-effect5496"
       inkscape:original-d="m 382.02296,464.34116 c 1.35205,-0.0343 5.60022,-0.15066 6.93529,-0.28676 5.40787,-0.51281 8.24231,-2.43887 10.25038,-5.87493 -1.04961,0.22113 -18.60486,2.06627 -8.68051,-0.67426 6.40468,-1.7686 -6.98256,0.23994 -5.80523,1.67937 4.19353,5.12709 -4.70276,-3.64343 -6.44657,-1.58345 -3.4238,4.04457 -4.0944,0.78247 -8.72578,0.9375 2.4196,5.21963 8.59511,6.00268 12.47242,5.80253 z"
       id="path5494"
       d="m 382.02296,464.34116 c 2.30721,0.28376 4.66303,0.20375 6.93529,-0.28676 3.91101,-0.84427 7.54503,-2.92708 10.25038,-5.87493 -2.68649,-1.25665 -5.83219,-1.50099 -8.68051,-0.67426 -1.94252,0.56382 -3.7837,1.6109 -5.80523,1.67937 -1.11136,0.0376 -2.21147,-0.22682 -3.27118,-0.56378 -1.05972,-0.33696 -2.09697,-0.74848 -3.17539,-1.01967 -2.89693,-0.72849 -6.04972,-0.38976 -8.72578,0.9375 3.41521,3.17216 7.84614,5.23355 12.47242,5.80253"
       inkscape:connector-curvature="0"
       sodipodi:nodetypes="cccssscc" />
  </g>
  <g
     style="display:none"
     inkscape:label="bouche ouverte"
     id="g3098"
     inkscape:groupmode="layer">
    <path
       sodipodi:nodetypes="csssscscscc"
       inkscape:connector-curvature="0"
       d="m 371.45198,461.13311 c 1.37848,1.49355 3.0212,2.74251 4.82895,3.67145 2.46279,1.26554 5.23108,1.93058 8,1.925 2.47364,-0.005 4.93329,-0.53926 7.23481,-1.44585 1.91708,-0.75515 3.75719,-1.78759 5.19458,-3.26386 1.50057,-1.54115 2.51833,-3.54582 2.87699,-5.66672 -2.29051,0.1194 -4.57371,0.37892 -6.83259,0.77661 -2.67201,0.47043 -5.30995,1.13428 -7.88635,1.98466 -2.2072,-0.65615 -4.45929,-1.16127 -6.7353,-1.51066 -3.13906,-0.48188 -6.32359,-0.6671 -9.49735,-0.5524 l 2.81626,4.08177"
       id="path3100"
       inkscape:original-d="m 371.45198,461.13311 c 1.27397,1.04699 2.76539,3.13688 4.82895,3.67145 2.92766,0.75841 5.17731,1.82267 8,1.925 2.45439,0.089 5.1667,-0.82135 7.23481,-1.44585 1.90892,-0.57643 4.40424,-1.80612 5.19458,-3.26386 0.9053,-1.66978 2.34703,-4.7599 2.87699,-5.66672 -1.18548,0.77631 -5.34083,3.79952 -6.83259,0.77661 -1.54892,-3.13874 -2.15417,0.78469 -7.88635,1.98466 -1.00218,-0.17486 -5.19228,-1.65063 -6.7353,-1.51066 -3.45559,0.31346 -6.77093,-1.29221 -9.49735,-0.5524 0.82413,1.59132 1.79442,2.66694 2.81626,4.08177 z"
       inkscape:path-effect="#path-effect3102"
       style="opacity:0.98999999;color:#000000;fill:#800000;fill-opacity:1;fill-rule:nonzero;stroke:none;stroke-width:1px;marker:none;visibility:visible;display:inline;overflow:visible;enable-background:accumulate" />
    <path
       style="opacity:0.98999999;color:#000000;fill:#ffffff;fill-opacity:1;fill-rule:nonzero;stroke:none;stroke-width:1px;marker:none;visibility:visible;display:inline;overflow:visible;enable-background:accumulate"
       d="m 384.88303,460.98668 c 0.85686,0.0197 10.53627,-1.84867 10.8323,-1.88354 -0.49984,0.19229 -1.97489,2.10807 -3.45088,3.02815 -1.47598,0.92007 -2.94525,1.29277 -3.52717,1.43791 -1.20924,0.3016 -4.71784,0.5965 -6.04932,0.46784 -0.49075,-0.15211 -2.84204,-0.33645 -4.35835,-1.09579 -1.51631,-0.75934 -5.02399,-2.85936 -5.2861,-3.33156 3.90065,0.5264 10.9531,1.35664 11.83952,1.37699 z"
       id="path3117"
       inkscape:connector-curvature="0"
       sodipodi:nodetypes="scsscscs" />
  </g>
  <g
     inkscape:groupmode="layer"
     id="layer2"
     inkscape:label="noise"
     style="display:inline">
    <path
       style="opacity:0.98999999000000005;color:#000000;fill:#784421;fill-opacity:1;fill-rule:nonzero;stroke:none;stroke-width:1px;marker:none;visibility:visible;display:inline;overflow:visible;enable-background:accumulate"
       d="m 388.04,432.99725 c 0,4.3692 -0.21296,-0.0546 0.50508,3.53553 0.38525,1.92628 -0.71563,0.084 0.50507,2.52538 0.10648,0.21296 0.42979,0.2792 0.50508,0.50508 0,2.29925 -0.2381,0.0289 0.50507,1.51523 0.0753,0.15058 -0.11904,0.38603 0,0.50507 0.11905,0.11905 0.38603,-0.11904 0.50508,0 0.11905,0.11905 -0.0753,0.3545 0,0.50508 0.10648,0.21296 0.33672,0.33672 0.50508,0.50508 0.16836,0.16835 0.29211,0.39859 0.50507,0.50507 0.15059,0.0753 0.50508,-0.16836 0.50508,0 0,0.16836 -0.67344,0 -0.50508,0 1.17851,0 1.01016,0.33672 1.01016,-0.50507"
       id="path3013"
       inkscape:connector-curvature="0" />
    <path
       style="opacity:0.98999999000000005;color:#000000;fill:#784421;fill-opacity:1;fill-rule:nonzero;stroke:none;stroke-width:1px;marker:none;visibility:visible;display:inline;overflow:visible;enable-background:accumulate"
       d="m 385.00954,446.63431 c 3.66761,0.48651 1.66932,-0.21972 4.04061,-1.01016 0.15972,-0.0532 0.35449,0.0753 0.50508,0 0.21296,-0.10648 0.33672,-0.33671 0.50507,-0.50507 0.16836,-0.16836 0.37301,-0.30697 0.50508,-0.50508 0.20882,-0.31323 0.29625,-0.69692 0.50508,-1.01015 0.62412,-0.93619 0.50507,-0.0463 0.50507,-1.01015"
       id="path3015"
       inkscape:connector-curvature="0" />
    <path
       style="opacity:0.98999999;color:#000000;fill:#552200;fill-opacity:1;fill-rule:nonzero;stroke:none;stroke-width:1px;marker:none;visibility:visible;display:inline;overflow:visible;enable-background:accumulate"
       d="m 372.38263,445.62415 c 2.02031,0 4.04061,0 6.06092,0"
       id="path3018"
       inkscape:connector-curvature="0" />
    <path
       style="opacity:0.98999999000000005;color:#000000;fill:#784421;fill-opacity:1;fill-rule:nonzero;stroke:none;stroke-width:1px;marker:none;visibility:visible;display:inline;overflow:visible;enable-background:accumulate"
       d="m 378.94863,446.12923 c -1.34687,0 -2.69374,0 -4.04061,0 -0.16836,0 -0.38603,0.11905 -0.50508,0 -0.11905,-0.11905 0.11905,-0.38603 0,-0.50508 -0.11905,-0.11904 -0.34536,0.0532 -0.50508,0 -0.35714,-0.11904 -0.74395,-0.23887 -1.01015,-0.50507 -0.67343,-0.67344 0.84179,-0.50508 -0.50508,-0.50508"
       id="path3022"
       inkscape:connector-curvature="0" />
    <path
       style="opacity:0.98999999000000005;color:#000000;fill:#502d16;fill-opacity:1;fill-rule:nonzero;stroke:none;stroke-width:1px;marker:none;visibility:visible;display:inline;overflow:visible;enable-background:accumulate"
       d="m 371.64342,404.86036 c -3.33783,0.26413 -6.45518,-1.41925 -9.78407,-1.31683 -3.87592,-0.1035 -8.246,0.36464 -11.51134,2.19081 -0.24291,-0.0306 -1.55482,0.0523 -0.96591,-0.35839 2.62404,-2.371 6.52257,-3.20912 9.58167,-4.13791 2.74599,-0.56787 5.64269,-1.00053 8.38775,-0.18421 1.85558,0.55027 4.50706,1.31826 5.18192,1.85912 -0.002,0.33991 -0.94691,1.61071 -0.89001,1.94745 z"
       id="path3073"
       inkscape:connector-curvature="0"
       sodipodi:nodetypes="ccccccccc" />
  </g>
  <g
     style="display:inline"
     inkscape:label="sourcil droit"
     id="g3149"
     inkscape:groupmode="layer">
    <path
       inkscape:connector-curvature="0"
       id="path3155"
       d="m 372.38263,445.62415 c 2.02031,0 4.04061,0 6.06092,0"
       style="opacity:0.98999999000000005;color:#000000;fill:#28170b;fill-opacity:1;fill-rule:nonzero;stroke:none;stroke-width:1px;marker:none;visibility:visible;display:inline;overflow:visible;enable-background:accumulate" />
    <path
       sodipodi:nodetypes="ccccccccc"
       inkscape:connector-curvature="0"
       id="path3159"
       d="m 394.2618,404.64095 c 3.33783,0.26413 6.45518,-1.41925 9.78407,-1.31683 3.87592,-0.1035 8.246,0.36464 11.51134,2.19081 0.24291,-0.0306 1.55482,0.0523 0.96591,-0.35839 -2.62404,-2.371 -6.52257,-3.20912 -9.58167,-4.13791 -2.74599,-0.56787 -5.64269,-1.00053 -8.38775,-0.18421 -1.85558,0.55027 -4.50706,1.31826 -5.18192,1.85912 0.002,0.33991 0.94691,1.61071 0.89001,1.94745 z"
       style="opacity:0.98999999000000005;color:#000000;fill:#502d16;fill-opacity:1;fill-rule:nonzero;stroke:none;stroke-width:1px;marker:none;visibility:visible;display:inline;overflow:visible;enable-background:accumulate" />
  </g>
  <g
     inkscape:groupmode="layer"
     id="layer6"
     inkscape:label="oeil gauche"
     style="display:inline">
    <path
       style="opacity:0.98999999;color:#000000;fill:#ffffff;fill-opacity:1;fill-rule:nonzero;stroke:none;stroke-width:1px;marker:none;visibility:visible;display:inline;overflow:visible;enable-background:accumulate"
       d="m 362.35653,417.76914 c 3.76533,0.015 6.05551,0.0155 9.04891,-3.05972 -0.0189,-2.67748 -6.29332,-3.97233 -10.26596,-3.78904 -5.41357,0.79485 -9.77142,2.56876 -10.09634,4.40414 7.51966,2.60238 6.57401,2.01445 11.31339,2.44462 z"
       id="path3021"
       inkscape:connector-curvature="0"
       sodipodi:nodetypes="ccccc" />
    <path
       sodipodi:type="arc"
       style="opacity:0.98999999000000005;fill:#784421;fill-opacity:1;fill-rule:nonzero;stroke:none"
       id="path3029"
       sodipodi:cx="271.8125"
       sodipodi:cy="380.04968"
       sodipodi:rx="3.5625"
       sodipodi:ry="2.8125"
       d="m 275.375,380.04968 a 3.5625,2.8125 0 1 1 -7.125,0 3.5625,2.8125 0 1 1 7.125,0 z"
       transform="matrix(1.0010194,0,0,1.0403959,89.900979,19.140548)" />
    <path
       sodipodi:type="arc"
       style="opacity:0.98999999;fill:#374845;fill-opacity:1;fill-rule:nonzero;stroke:none"
       id="path3031"
       sodipodi:cx="309.40341"
       sodipodi:cy="382.99722"
       sodipodi:rx="1.281631"
       sodipodi:ry="1.1490486"
       d="m 310.68504,382.99722 a 1.281631,1.1490486 0 1 1 -2.56326,0 1.281631,1.1490486 0 1 1 2.56326,0 z"
       transform="matrix(1.0834764,0,0,1.1819752,27.019223,-38.105311)" />
    <path
       style="opacity:0.98999999;color:#000000;fill:#42c4eb;fill-opacity:1;fill-rule:nonzero;stroke:none;stroke-width:1px;marker:none;visibility:visible;display:inline;overflow:visible;enable-background:accumulate"
       d="m 368.14301,409.10994 2.39373,2.00912"
       id="path3066"
       inkscape:connector-curvature="0" />
    <path
       style="opacity:0.98999999000000005;color:#000000;fill:#784421;fill-opacity:1;fill-rule:nonzero;stroke:none;stroke-width:1px;marker:none;visibility:visible;display:inline;overflow:visible;enable-background:accumulate"
       d="m 370.07344,412.6259 c -1.12017,-1.08339 -2.26713,-1.83769 -3.48689,-2.62288 -1.84616,-0.95655 -2.63484,-1.36365 -4.67777,-1.41591 -0.97032,-0.13372 -3.32225,0.5519 -4.26729,0.73809 -0.71356,0.27888 -2.31917,0.69574 -2.16208,0.7893 0.77908,-0.31118 0.78578,0.22278 1.86484,-0.25272 5.24559,-1.57709 8.68288,0.65714 12.72919,2.76407 z"
       id="path3070"
       inkscape:connector-curvature="0"
       sodipodi:nodetypes="cccccccc" />
  </g>
  <g
     style="display:inline"
     inkscape:label="oeil droit"
     id="g3114"
     inkscape:groupmode="layer">
    <path
       sodipodi:nodetypes="ccccc"
       inkscape:connector-curvature="0"
       id="path3116"
       d="m 403.3591,417.60474 c -3.76533,0.015 -6.05551,0.0155 -9.04891,-3.05972 0.0189,-2.67748 6.29332,-3.97233 10.26596,-3.78904 5.41357,0.79485 9.77142,2.56876 10.09634,4.40414 -7.51966,2.60238 -6.57401,2.01445 -11.31339,2.44462 z"
       style="opacity:0.98999999;color:#000000;fill:#ffffff;fill-opacity:1;fill-rule:nonzero;stroke:none;stroke-width:1px;marker:none;visibility:visible;display:inline;overflow:visible;enable-background:accumulate" />
    <path
       transform="matrix(1.0010194,0,0,1.0403959,131.70091,19.130572)"
       d="m 275.375,380.04968 a 3.5625,2.8125 0 1 1 -7.125,0 3.5625,2.8125 0 1 1 7.125,0 z"
       sodipodi:ry="2.8125"
       sodipodi:rx="3.5625"
       sodipodi:cy="380.04968"
       sodipodi:cx="271.8125"
       id="path3118"
       style="opacity:0.98999999000000005;fill:#784421;fill-opacity:1;fill-rule:nonzero;stroke:none"
       sodipodi:type="arc" />
    <path
       transform="matrix(1.0834764,0,0,1.1819752,68.344405,-38.179256)"
       d="m 310.68504,382.99722 a 1.281631,1.1490486 0 1 1 -2.56326,0 1.281631,1.1490486 0 1 1 2.56326,0 z"
       sodipodi:ry="1.1490486"
       sodipodi:rx="1.281631"
       sodipodi:cy="382.99722"
       sodipodi:cx="309.40341"
       id="path3120"
       style="opacity:0.98999999;fill:#374845;fill-opacity:1;fill-rule:nonzero;stroke:none"
       sodipodi:type="arc" />
    <path
       inkscape:connector-curvature="0"
       id="path3122"
       d="m 368.14301,409.10994 2.39373,2.00912"
       style="opacity:0.98999999;color:#000000;fill:#42c4eb;fill-opacity:1;fill-rule:nonzero;stroke:none;stroke-width:1px;marker:none;visibility:visible;display:inline;overflow:visible;enable-background:accumulate" />
    <path
       sodipodi:nodetypes="cccccccc"
       inkscape:connector-curvature="0"
       id="path3124"
       d="m 395.26094,412.61592 c 1.12017,-1.08339 2.26713,-1.83769 3.48689,-2.62288 1.84616,-0.95655 2.63484,-1.36365 4.67777,-1.41591 0.97032,-0.13372 3.32225,0.5519 4.26729,0.73809 0.71356,0.27888 2.31917,0.69574 2.16208,0.7893 -0.77908,-0.31118 -0.78578,0.22278 -1.86484,-0.25272 -5.24559,-1.57709 -8.68288,0.65714 -12.72919,2.76407 z"
       style="opacity:0.98999999000000005;color:#000000;fill:#784421;fill-opacity:1;fill-rule:nonzero;stroke:none;stroke-width:1px;marker:none;visibility:visible;display:inline;overflow:visible;enable-background:accumulate" />
    <path
       sodipodi:type="arc"
       style="opacity:0.98999999000000005;fill:#f4e3d7;fill-opacity:1;fill-rule:nonzero;stroke:none"
       id="path3196"
       sodipodi:cx="307.29297"
       sodipodi:cy="381.26447"
       sodipodi:rx="0.87361187"
       sodipodi:ry="0.76441038"
       d="m 308.16658,381.26447 a 0.87361187,0.76441038 0 1 1 -1.74722,0 0.87361187,0.76441038 0 1 1 1.74722,0 z"
       transform="translate(98.133899,31.737864)" />
    <path
       transform="translate(52.888344,31.710035)"
       d="m 308.16658,381.26447 a 0.87361187,0.76441038 0 1 1 -1.74722,0 0.87361187,0.76441038 0 1 1 1.74722,0 z"
       sodipodi:ry="0.76441038"
       sodipodi:rx="0.87361187"
       sodipodi:cy="381.26447"
       sodipodi:cx="307.29297"
       id="path3201"
       style="opacity:0.98999999000000005;fill:#f4e3d7;fill-opacity:1;fill-rule:nonzero;stroke:none"
       sodipodi:type="arc" />
  </g>
  <g
     inkscape:groupmode="layer"
     id="layer9"
     inkscape:label="oreille">
    <path
       style="opacity:0.98999999000000005;color:#000000;fill:#784421;fill-opacity:1;fill-rule:nonzero;stroke:none;stroke-width:1px;marker:none;visibility:visible;display:inline;overflow:visible;enable-background:accumulate"
       d="m 319.92443,415.39056 c 0.16861,0.47482 -0.25109,1.8207 0.35,2.75 0.33575,0.51908 1.81039,1.14481 2.3,0.9 0.21749,-0.10874 1.47725,1.17928 2.64351,0.61422 1.09724,4.28814 1.84227,0.58615 2.25563,0.17279 0.30201,-0.30201 -1.50903,-1.94579 -1.24559,-2.20919 0.23878,-0.23877 3.65583,-2.85688 2.4799,-2.13137 0.38571,-0.77142 -1.78218,-1.03356 -1.3,-1.99792 0.16076,-0.32151 -0.41852,-1.33281 -0.26066,-1.64853 1.02505,-0.0703 -0.97279,-0.46328 -0.97279,-0.4 0,0.37884 0.0131,-0.38694 0,-0.4 -0.0579,-0.79289 -0.95433,-1.33209 -1.15,-1.5 -1.17359,0.3912 -2.06654,1.68873 -2.6,2.4 -0.39731,0.52976 -0.79624,1.49624 -1.25,1.95 -0.40413,-0.0846 -0.49754,1.27823 -1.25,1.5 z"
       id="path3220"
       inkscape:connector-curvature="0"
       sodipodi:nodetypes="csccsccccsccccc" />
  </g>
  <path
     style="opacity:0.98999999;color:#000000;fill:#42c4eb;fill-opacity:1;fill-rule:nonzero;stroke:none;stroke-width:1px;marker:none;visibility:visible;display:inline;overflow:visible;enable-background:accumulate"
     d="m 419.74781,412.84812 -4.01529,0.86105"
     id="path3049"
     inkscape:connector-curvature="0" />
  <path
     style="opacity:0.98999999;color:#000000;fill:#784421;fill-opacity:1;fill-rule:nonzero;stroke:none;stroke-width:1px;marker:none;visibility:visible;display:inline;overflow:visible;enable-background:accumulate"
     d="m 350.91424,415.12475 c 0.23783,-0.87816 0.29536,-1.39359 1.08002,-2.12634 0.92177,-0.52569 2.07119,-1.3554 3.29972,-1.70773 0.86474,-0.23909 1.92967,-0.6143 3.03114,-0.90038 1.35767,-0.18576 2.08801,-0.26707 3.31062,-0.0855 1.17218,0.007 2.52713,0.21357 3.65731,0.6017 1.46654,0.34362 2.8621,0.50872 4.30883,1.39932 0.65152,0.3411 1.834,1.05994 1.76228,1.57877 -0.43441,-0.69651 -1.04822,-0.79469 -1.72391,-1.24136 -0.87761,-0.64221 -2.10239,-0.77654 -3.08727,-1.14228 -1.11026,-0.42045 -2.38483,-0.49562 -3.9579,-0.52651 -1.68228,0.003 -3.12456,0.5239 -4.66377,0.93448 -1.61625,0.39749 -3.52424,0.72109 -4.69563,1.512 -0.92115,0.51976 -1.22297,0.97263 -1.91398,1.72374 -0.29043,0.31569 -0.2309,0.1271 -0.40746,-0.0199 z"
     id="path3051"
     inkscape:connector-curvature="0"
     sodipodi:nodetypes="cccccccccccccsc" />
  <path
     sodipodi:nodetypes="cccccccccccccsc"
     inkscape:connector-curvature="0"
     id="path3194"
     d="m 414.82375,415.20686 c -0.23783,-0.87816 -0.29536,-1.39359 -1.08002,-2.12634 -0.92177,-0.52569 -2.07119,-1.3554 -3.29972,-1.70773 -0.86474,-0.23909 -1.92967,-0.6143 -3.03114,-0.90038 -1.35767,-0.18576 -2.08801,-0.26707 -3.31062,-0.0855 -1.17218,0.007 -2.52713,0.21357 -3.65731,0.6017 -1.46654,0.34362 -2.8621,0.50872 -4.30883,1.39932 -0.65152,0.3411 -1.834,1.05994 -1.76228,1.57877 0.43441,-0.69651 1.04822,-0.79469 1.72391,-1.24136 0.87761,-0.64221 2.10239,-0.77654 3.08727,-1.14228 1.11026,-0.42045 2.38483,-0.49562 3.9579,-0.52651 2.60932,0.21694 4.63806,0.96041 7.08994,1.48651 0.5875,0.20845 1.39297,0.35316 2.26946,0.95997 0.92115,0.51976 1.22297,0.97263 1.91398,1.72374 0.29043,0.31569 0.2309,0.1271 0.40746,-0.0199 z"
     style="opacity:0.98999999;color:#000000;fill:#784421;fill-opacity:1;fill-rule:nonzero;stroke:none;stroke-width:1px;marker:none;visibility:visible;display:inline;overflow:visible;enable-background:accumulate" />
  <g
     inkscape:groupmode="layer"
     id="layer7"
     inkscape:label="corps"
     style="display:inline">
    <path
       style="opacity:0.98999999;color:#000000;fill:#214478;fill-opacity:1;fill-rule:nonzero;stroke:none;stroke-width:1px;marker:none;visibility:visible;display:inline;overflow:visible;enable-background:accumulate"
       d="m 348.57401,497.93375 c -2.58788,-10.90973 -9.22533,-10.22283 -17.78742,-18.24485 -8.56208,-8.02203 -18.6689,-16.83338 -25.65582,-22.98083 -13.97384,-12.2949 -26.49894,-24.68223 -35.33077,-42.34589 -5.9438,-11.8876 -13.96722,-15.56722 -22.4,-24 -3.49404,-3.49403 -0.33259,-2.59777 -1.6,-6.4 -1.69852,-5.09556 -8.49712,-11.69712 -12.8,-16 -9.97772,-9.97771 -19.06516,-25.33031 -25.6,-38.4 -0.94789,-1.89579 -9.94462,-8.51693 -12.8,-12.8 -6.28819,-9.43227 -14.74107,-22.4 -14.4,-22.4 0.87548,0 -13.23171,2.46343 -17.6,11.2 -5.29587,10.59174 17.30543,41.30543 24,48 11.71423,11.71423 15.34704,24.94705 24,33.6 1.32386,1.32386 -1.05584,6.41625 0,8 3.50581,5.25872 10.39598,9.99397 14.4,16 0.53678,0.80517 3.1289,7.92891 3.2,8 1.2846,1.28461 4.69261,0.74631 6.4,1.6 1.96684,0.98342 0.28061,4.64081 1.6,6.4 2.12844,2.83792 5.75955,7.35955 8,9.6 3.78672,3.78672 1.62147,14.42147 6.4,19.2 6.11057,6.11057 26.94191,29.28483 31.27351,37.94802 20.02553,23.57987 26.1586,29.50707 44.97746,48.53238 6.2848,6.28481 -9.78806,28.61969 6.65786,42.18234 8.57428,7.07105 -30.51895,108.66464 9.25888,110.04508 24.85542,0.86258 31.91075,17.81691 33.93624,17.62843 31.32476,-2.91485 48.59307,-18.17062 64.28427,-13.96872 4.75906,1.00079 -8.9675,-111.34927 -5.15979,-114.7862 13.78366,-12.44151 3.78403,-33.16468 5.46274,-37.69016 1.38445,-3.73222 14.6294,-20.8686 19.92649,-26.16569 4.71701,-4.71701 20.05231,-24.40495 23.37057,-29.38234 2.82922,-4.24382 5.3981,-8.12998 7.84034,-11.84262 2.44225,-3.71264 4.17912,-9.86808 7.08057,-10.80149 3.1518,-1.01395 4.65249,-7.1101 7.12306,-10.86522 2.47057,-3.75512 5.08193,-7.70501 7.9678,-12.03381 5.39613,-8.09419 8.99763,-20.81744 14.59411,-28.23431 5.71836,-7.5784 10.72345,-14.68325 17.40589,-21.36569 4.00708,-4.00708 7.47188,-13.34375 9.6,-17.6 2.31973,-4.63947 9.07227,-12.36932 13.26863,-24.48528 9.30519,-14.90725 14.36723,-26.68278 20.41177,-39.04609 8.35494,-16.70987 -21.86721,-19.87699 -22.77157,-18.16569 -4.46936,8.45722 -13.83678,16.88091 -17.30883,27.29706 -6.89954,12.71791 -8.46598,13.96529 -14.4,20.8 -9.33147,9.33147 -9.99463,25.99463 -19.2,35.2 -0.94422,0.94422 -3.32663,3.93693 -6.41655,7.98973 -3.08992,4.0528 -11.71578,11.71127 -9.53023,16.61298 0.64258,1.40825 -8.65669,8.17804 -11.65389,12.51751 -2.99721,4.33948 -5.24054,7.76221 -5.99933,9.27978 -1.42517,2.85033 -2.42246,7.22247 -4.8,9.6 -0.53333,0.53334 -4.26667,1.06667 -4.8,1.6 -4.05204,4.05204 -23.55093,38.97547 -25.6,40 -4.88008,2.44004 -22.86458,10.11358 -25.2,13.8 -3.1116,4.9116 -32.61458,31.5269 -36.6,31.1196"
       id="path3076"
       inkscape:connector-curvature="0"
       sodipodi:nodetypes="csssssssssssssscssssccssscsssssssssssccsccsscssssssc" />
    <path
       style="opacity:0.98999999;color:#000000;fill:#002255;fill-opacity:1;fill-rule:nonzero;stroke:none;stroke-width:1px;marker:none;visibility:visible;display:inline;overflow:visible;enable-background:accumulate"
       d="m 348.6,586.93802 c 2.22907,0.85943 -2.15122,-1.35401 -0.45185,-1.67758 5.40269,-1.02869 7.07783,-2.6659 12.33171,-3.91638 5.2893,-1.40086 15.73812,-4.00363 20.38356,-4.07154 9.37346,-0.73989 13.32351,0.28966 21.82802,0.28966 3.05518,0 7.03913,0.44391 10.16627,0.99396 1.80156,0.31689 9.77302,1.25231 10.54815,2.59396 0.52591,0.91028 -0.15637,1.6 -0.61728,1.6 -5.23922,0 -20.16984,-2.113 -23.6807,-2.2 -3.3502,-0.083 -14.48284,0.55517 -18.74899,0.55517"
       id="path3146"
       inkscape:connector-curvature="0"
       sodipodi:nodetypes="csccsssssc" />
    <path
       style="opacity:0.98999999;color:#000000;fill:#002255;fill-opacity:1;fill-rule:nonzero;stroke:none;stroke-width:1px;marker:none;visibility:visible;display:inline;overflow:visible;enable-background:accumulate"
       d="m 339,489.76218 c 1.75205,0.46206 4.22521,2.67564 4.8,4.4 0.13129,0.39386 0.98859,0.57718 1.2,1 0.25684,0.51368 0.19438,0.99438 0.6,1.4 0.2357,0.2357 -0.50186,-0.45093 -0.8,-0.6 -0.5658,-0.2829 -1.85217,-0.85217 -2.2,-1.2"
       id="path3150"
       inkscape:connector-curvature="0" />
    <path
       style="opacity:0.98999999;color:#000000;fill:#42c4eb;fill-opacity:1;fill-rule:nonzero;stroke:none;stroke-width:1px;marker:none;visibility:visible;display:inline;overflow:visible;enable-background:accumulate"
       d="m 295,511.56218 -95.4,-96.8"
       id="path3152"
       inkscape:connector-curvature="0" />
    <path
       style="opacity:0.98999999;color:#000000;fill:#42c4eb;fill-opacity:1;fill-rule:nonzero;stroke:none;stroke-width:1px;marker:none;visibility:visible;display:inline;overflow:visible;enable-background:accumulate"
       d="m 195.6,396.16218 16.6,10"
       id="path3154"
       inkscape:connector-curvature="0" />
    <path
       style="opacity:0.98999999;color:#000000;fill:#002255;fill-opacity:1;fill-rule:nonzero;stroke:none;stroke-width:1px;marker:none;visibility:visible;display:inline;overflow:visible;enable-background:accumulate"
       d="m 241.6,380.56218 c 0.85898,1.84268 2.19373,3.59373 3.4,4.8 0.0493,0.0493 0.0493,1.15066 0,1.2 -0.42945,0.42946 -0.9625,-0.88125 -1.2,-1 -0.95539,-0.47769 -1.8,-1.20904 -1.8,-1.8"
       id="path3156"
       inkscape:connector-curvature="0" />
    <path
       style="opacity:0.98999999;color:#000000;fill:#42c4eb;fill-opacity:1;fill-rule:nonzero;stroke:none;stroke-width:1px;marker:none;visibility:visible;display:inline;overflow:visible;enable-background:accumulate"
       d="m 243.4,461.16218 -9.2,-16.8"
       id="path3158"
       inkscape:connector-curvature="0" />
    <path
       style="opacity:0.98999999;color:#000000;fill:#002255;fill-opacity:1;fill-rule:nonzero;stroke:none;stroke-width:1px;marker:none;visibility:visible;display:inline;overflow:visible;enable-background:accumulate"
       d="m 212.2,388.16218 c 0.0269,1.4904 0.18382,3.16764 0.8,4.4 0.18481,0.36963 0.76358,0.72715 1,1.2 1.20349,2.40699 1.2,-0.57797 1.2,-2"
       id="path3160"
       inkscape:connector-curvature="0" />
    <path
       style="opacity:0.98999999;color:#000000;fill:#42c4eb;fill-opacity:1;fill-rule:nonzero;stroke:none;stroke-width:1px;marker:none;visibility:visible;display:inline;overflow:visible;enable-background:accumulate"
       d="m 220.6,446.36218 14.2,-12.6"
       id="path3162"
       inkscape:connector-curvature="0" />
    <path
       style="opacity:0.98999999;color:#000000;fill:#002255;fill-opacity:1;fill-rule:nonzero;stroke:none;stroke-width:1px;marker:none;visibility:visible;display:inline;overflow:visible;enable-background:accumulate"
       d="m 236.6,421.96218 c -0.0974,0.87824 -0.34485,6.94485 1.8,4.8"
       id="path3164"
       inkscape:connector-curvature="0" />
    <path
       style="opacity:0.98999999;color:#000000;fill:#42c4eb;fill-opacity:1;fill-rule:nonzero;stroke:none;stroke-width:1px;marker:none;visibility:visible;display:inline;overflow:visible;enable-background:accumulate"
       d="M 201.38401,622.44126 40.729351,535.3257"
       id="path3166"
       inkscape:connector-curvature="0" />
    <path
       style="opacity:0.98999999;color:#000000;fill:#002255;fill-opacity:1;fill-rule:nonzero;stroke:none;stroke-width:1px;marker:none;visibility:visible;display:inline;overflow:visible;enable-background:accumulate"
       d="m 475.8,437.36218 c -1.41207,-0.0817 -2.25361,0.45361 -3,1.2 -0.46552,0.46553 -0.39882,2.80118 -0.8,2.4"
       id="path3168"
       inkscape:connector-curvature="0" />
    <path
       style="opacity:0.98999999;color:#000000;fill:#002255;fill-opacity:1;fill-rule:nonzero;stroke:none;stroke-width:1px;marker:none;visibility:visible;display:inline;overflow:visible;enable-background:accumulate"
       d="m 502,401.96218 c 2.40045,-2.56061 5.84219,-4.68073 9.2,-5.8 0.42419,-0.14139 0.96487,0.10879 1.4,0 0.26993,-0.0675 1.79095,-0.60904 2,-0.4 0.14429,0.14429 0,0.9688 0,1.2"
       id="path3170"
       inkscape:connector-curvature="0" />
    <path
       style="opacity:0.98999999;color:#000000;fill:#42c4eb;fill-opacity:1;fill-rule:nonzero;stroke:none;stroke-width:1px;marker:none;visibility:visible;display:inline;overflow:visible;enable-background:accumulate"
       d="m 586.8,460.56218 -75.2,19"
       id="path3172"
       inkscape:connector-curvature="0" />
    <path
       style="opacity:0.98999999;color:#000000;fill:#00112b;fill-opacity:1;fill-rule:nonzero;stroke:none;stroke-width:1px;marker:none;visibility:visible;display:inline;overflow:visible;enable-background:accumulate"
       d="m 502.8,461.36218 c -0.48917,1.95667 0.22133,-0.30221 -0.8,1.4 -0.0557,0.0928 0.0963,0.70375 0,0.8 -1.48229,1.48229 -1.7519,1.8 -4.2,1.8"
       id="path3174"
       inkscape:connector-curvature="0" />
    <path
       style="opacity:0.98999999;color:#000000;fill:#002255;fill-opacity:1;fill-rule:nonzero;stroke:none;stroke-width:1px;marker:none;visibility:visible;display:inline;overflow:visible;enable-background:accumulate"
       d="m 439.08284,539.83081 c -3.06177,-3.1625 -0.803,-7.50815 0.51716,-11.46863 0.41014,-1.23042 1.99221,-4.19221 2.8,-5 4.42908,-3.08945 12.83769,-13.39581 11,-6.2 -1.22978,4.01663 0.94986,0.73888 -6.04436,8.15736"
       id="path3176"
       inkscape:connector-curvature="0"
       sodipodi:nodetypes="csccc" />
  </g>
  <path
     style="opacity:0.98999999000000005;color:#000000;fill:#a05a2c;fill-opacity:1;fill-rule:nonzero;stroke:none;stroke-width:1px;marker:none;visibility:visible;display:inline;overflow:visible;enable-background:accumulate"
     d="m 180.2,293.96218 c -1.23651,-5.95388 -3.04235,-10.05343 -5.92923,-15.26205 -1.91181,-3.87776 -1.79006,-11.10361 -4.32314,-15.44506 -2.43698,-4.72595 -2.27021,-8.09965 -5.19535,-12.37791 -4.64382,4.14189 -1.31232,11.25608 -0.56971,17.19211 3.61027,7.60216 -9.79342,11.31166 -11.9704,15.55242 -1.01257,5.13753 0.56641,6.27131 3.38783,11.54049 3.56109,2.49033 5.65395,5.33867 8.4,8.8"
     id="path3218"
     inkscape:connector-curvature="0"
     sodipodi:nodetypes="cccccccc" />
  <g
     inkscape:label="corps copy"
     id="g3178"
     inkscape:groupmode="layer"
     style="display:inline">
    <path
       sodipodi:nodetypes="csssssssssssssscssssccssscsssssssssssccsccsscssssssc"
       inkscape:connector-curvature="0"
       id="path3180"
       d="m 348.57401,497.93375 c -2.58788,-10.90973 -9.22533,-10.22283 -17.78742,-18.24485 -8.56208,-8.02203 -18.6689,-16.83338 -25.65582,-22.98083 -13.97384,-12.2949 -26.49894,-24.68223 -35.33077,-42.34589 -5.9438,-11.8876 -13.96722,-15.56722 -22.4,-24 -3.49404,-3.49403 -0.33259,-2.59777 -1.6,-6.4 -1.69852,-5.09556 -8.49712,-11.69712 -12.8,-16 -9.97772,-9.97771 -19.06516,-25.33031 -25.6,-38.4 -0.94789,-1.89579 -9.94462,-8.51693 -12.8,-12.8 -6.28819,-9.43227 -14.74107,-22.4 -14.4,-22.4 0.87548,0 -13.23171,2.46343 -17.6,11.2 -5.29587,10.59174 17.30543,41.30543 24,48 11.71423,11.71423 15.34704,24.94705 24,33.6 1.32386,1.32386 -1.05584,6.41625 0,8 3.50581,5.25872 10.39598,9.99397 14.4,16 0.53678,0.80517 3.1289,7.92891 3.2,8 1.2846,1.28461 4.69261,0.74631 6.4,1.6 1.96684,0.98342 0.28061,4.64081 1.6,6.4 2.12844,2.83792 5.75955,7.35955 8,9.6 3.78672,3.78672 1.62147,14.42147 6.4,19.2 6.11057,6.11057 26.94191,29.28483 31.27351,37.94802 20.02553,23.57987 26.1586,29.50707 44.97746,48.53238 6.2848,6.28481 -9.78806,28.61969 6.65786,42.18234 8.57428,7.07105 -31.65032,122.24109 8.12751,123.62153 24.85542,0.86258 34.17349,11.02869 36.19898,10.84021 31.32476,-2.91485 47.4617,-24.95885 63.1529,-20.75695 4.75906,1.00079 -8.9675,-111.34927 -5.15979,-114.7862 13.78366,-12.44151 3.78403,-33.16468 5.46274,-37.69016 1.38445,-3.73222 14.6294,-20.8686 19.92649,-26.16569 4.71701,-4.71701 20.05231,-24.40495 23.37057,-29.38234 2.82922,-4.24382 5.3981,-8.12998 7.84034,-11.84262 2.44225,-3.71264 4.17912,-9.86808 7.08057,-10.80149 3.1518,-1.01395 4.65249,-7.1101 7.12306,-10.86522 2.47057,-3.75512 5.08193,-7.70501 7.9678,-12.03381 5.39613,-8.09419 8.99763,-20.81744 14.59411,-28.23431 5.71836,-7.5784 10.72345,-14.68325 17.40589,-21.36569 4.00708,-4.00708 7.47188,-13.34375 9.6,-17.6 2.31973,-4.63947 9.07227,-12.36932 13.26863,-24.48528 9.30519,-14.90725 14.36723,-26.68278 20.41177,-39.04609 8.35494,-16.70987 -21.86721,-19.87699 -22.77157,-18.16569 -4.46936,8.45722 -13.83678,16.88091 -17.30883,27.29706 -6.89954,12.71791 -8.46598,13.96529 -14.4,20.8 -9.33147,9.33147 -9.99463,25.99463 -19.2,35.2 -0.94422,0.94422 -3.32663,3.93693 -6.41655,7.98973 -3.08992,4.0528 -11.71578,11.71127 -9.53023,16.61298 0.64258,1.40825 -8.65669,8.17804 -11.65389,12.51751 -2.99721,4.33948 -5.24054,7.76221 -5.99933,9.27978 -1.42517,2.85033 -2.42246,7.22247 -4.8,9.6 -0.53333,0.53334 -4.26667,1.06667 -4.8,1.6 -4.05204,4.05204 -23.55093,38.97547 -25.6,40 -4.88008,2.44004 -22.86458,10.11358 -25.2,13.8 -3.1116,4.9116 -32.61458,31.5269 -36.6,31.1196"
       style="opacity:0.98999999000000005;color:#000000;fill:#677821;fill-opacity:1;fill-rule:nonzero;stroke:none;stroke-width:1px;marker:none;visibility:visible;display:inline;overflow:visible;enable-background:accumulate" />
    <path
       sodipodi:nodetypes="csccsssssc"
       inkscape:connector-curvature="0"
       id="path3182"
       d="m 348.6,586.93802 c 2.22907,0.85943 -2.15122,-1.35401 -0.45185,-1.67758 5.40269,-1.02869 7.07783,-2.6659 12.33171,-3.91638 5.2893,-1.40086 15.73812,-4.00363 20.38356,-4.07154 9.37346,-0.73989 13.32351,0.28966 21.82802,0.28966 3.05518,0 7.03913,0.44391 10.16627,0.99396 1.80156,0.31689 9.77302,1.25231 10.54815,2.59396 0.52591,0.91028 -0.15637,1.6 -0.61728,1.6 -5.23922,0 -20.16984,-2.113 -23.6807,-2.2 -3.3502,-0.083 -14.48284,0.55517 -18.74899,0.55517"
       style="opacity:0.98999999000000005;color:#000000;fill:#556a00;fill-opacity:1;fill-rule:nonzero;stroke:none;stroke-width:1px;marker:none;visibility:visible;display:inline;overflow:visible;enable-background:accumulate" />
    <path
       inkscape:connector-curvature="0"
       id="path3184"
       d="m 339,489.76218 c 1.75205,0.46206 4.22521,2.67564 4.8,4.4 0.13129,0.39386 0.98859,0.57718 1.2,1 0.25684,0.51368 0.19438,0.99438 0.6,1.4 0.2357,0.2357 -0.50186,-0.45093 -0.8,-0.6 -0.5658,-0.2829 -1.85217,-0.85217 -2.2,-1.2"
       style="opacity:0.98999999;color:#000000;fill:#002255;fill-opacity:1;fill-rule:nonzero;stroke:none;stroke-width:1px;marker:none;visibility:visible;display:inline;overflow:visible;enable-background:accumulate" />
    <path
       inkscape:connector-curvature="0"
       id="path3186"
       d="m 295,511.56218 -95.4,-96.8"
       style="opacity:0.98999999;color:#000000;fill:#42c4eb;fill-opacity:1;fill-rule:nonzero;stroke:none;stroke-width:1px;marker:none;visibility:visible;display:inline;overflow:visible;enable-background:accumulate" />
    <path
       inkscape:connector-curvature="0"
       id="path3188"
       d="m 195.6,396.16218 16.6,10"
       style="opacity:0.98999999;color:#000000;fill:#42c4eb;fill-opacity:1;fill-rule:nonzero;stroke:none;stroke-width:1px;marker:none;visibility:visible;display:inline;overflow:visible;enable-background:accumulate" />
    <path
       inkscape:connector-curvature="0"
       id="path3190"
       d="m 241.6,380.56218 c 0.85898,1.84268 2.19373,3.59373 3.4,4.8 0.0493,0.0493 0.0493,1.15066 0,1.2 -0.42945,0.42946 -0.9625,-0.88125 -1.2,-1 -0.95539,-0.47769 -1.8,-1.20904 -1.8,-1.8"
       style="opacity:0.98999999000000005;color:#000000;fill:#445500;fill-opacity:1;fill-rule:nonzero;stroke:none;stroke-width:1px;marker:none;visibility:visible;display:inline;overflow:visible;enable-background:accumulate" />
    <path
       inkscape:connector-curvature="0"
       id="path3192"
       d="m 243.4,461.16218 -9.2,-16.8"
       style="opacity:0.98999999;color:#000000;fill:#42c4eb;fill-opacity:1;fill-rule:nonzero;stroke:none;stroke-width:1px;marker:none;visibility:visible;display:inline;overflow:visible;enable-background:accumulate" />
    <path
       inkscape:connector-curvature="0"
       id="path3195"
       d="m 212.2,388.16218 c 0.0269,1.4904 0.18382,3.16764 0.8,4.4 0.18481,0.36963 0.76358,0.72715 1,1.2 1.20349,2.40699 1.2,-0.57797 1.2,-2"
       style="opacity:0.98999999000000005;color:#000000;fill:#445500;fill-opacity:1;fill-rule:nonzero;stroke:none;stroke-width:1px;marker:none;visibility:visible;display:inline;overflow:visible;enable-background:accumulate" />
    <path
       inkscape:connector-curvature="0"
       id="path3197"
       d="m 220.6,446.36218 14.2,-12.6"
       style="opacity:0.98999999;color:#000000;fill:#42c4eb;fill-opacity:1;fill-rule:nonzero;stroke:none;stroke-width:1px;marker:none;visibility:visible;display:inline;overflow:visible;enable-background:accumulate" />
    <path
       inkscape:connector-curvature="0"
       id="path3199"
       d="m 236.6,421.96218 c -0.0974,0.87824 -0.34485,6.94485 1.8,4.8"
       style="opacity:0.98999999;color:#000000;fill:#002255;fill-opacity:1;fill-rule:nonzero;stroke:none;stroke-width:1px;marker:none;visibility:visible;display:inline;overflow:visible;enable-background:accumulate" />
    <path
       inkscape:connector-curvature="0"
       id="path3202"
       d="M 201.38401,622.44126 40.729351,535.3257"
       style="opacity:0.98999999;color:#000000;fill:#42c4eb;fill-opacity:1;fill-rule:nonzero;stroke:none;stroke-width:1px;marker:none;visibility:visible;display:inline;overflow:visible;enable-background:accumulate" />
    <path
       inkscape:connector-curvature="0"
       id="path3205"
       d="m 475.8,437.36218 c -1.41207,-0.0817 -2.25361,0.45361 -3,1.2 -0.46552,0.46553 -0.39882,2.80118 -0.8,2.4"
       style="opacity:0.98999999000000005;color:#000000;fill:#445500;fill-opacity:1;fill-rule:nonzero;stroke:none;stroke-width:1px;marker:none;visibility:visible;display:inline;overflow:visible;enable-background:accumulate" />
    <path
       inkscape:connector-curvature="0"
       id="path3207"
       d="m 502,401.96218 c 2.40045,-2.56061 5.84219,-4.68073 9.2,-5.8 0.42419,-0.14139 0.96487,0.10879 1.4,0 0.26993,-0.0675 1.79095,-0.60904 2,-0.4 0.14429,0.14429 0,0.9688 0,1.2"
       style="opacity:0.98999999000000005;color:#000000;fill:#445500;fill-opacity:1;fill-rule:nonzero;stroke:none;stroke-width:1px;marker:none;visibility:visible;display:inline;overflow:visible;enable-background:accumulate" />
    <path
       inkscape:connector-curvature="0"
       id="path3209"
       d="m 586.8,460.56218 -75.2,19"
       style="opacity:0.98999999;color:#000000;fill:#42c4eb;fill-opacity:1;fill-rule:nonzero;stroke:none;stroke-width:1px;marker:none;visibility:visible;display:inline;overflow:visible;enable-background:accumulate" />
    <path
       inkscape:connector-curvature="0"
       id="path3211"
       d="m 502.8,461.36218 c -0.48917,1.95667 0.22133,-0.30221 -0.8,1.4 -0.0557,0.0928 0.0963,0.70375 0,0.8 -1.48229,1.48229 -1.7519,1.8 -4.2,1.8"
       style="opacity:0.98999999000000005;color:#000000;fill:#445500;fill-opacity:1;fill-rule:nonzero;stroke:none;stroke-width:1px;marker:none;visibility:visible;display:inline;overflow:visible;enable-background:accumulate" />
    <path
       sodipodi:nodetypes="csccc"
       inkscape:connector-curvature="0"
       id="path3213"
       d="m 438.8,541.1036 c -3.06177,-3.1625 -0.803,-7.50815 0.51716,-11.46863 0.41014,-1.23042 1.99221,-4.19221 2.8,-5 4.42908,-3.08945 12.83769,-13.39581 11,-6.2 -1.22978,4.01663 0.94986,0.73888 -6.04436,8.15736"
       style="opacity:0.98999999000000005;color:#000000;fill:#526700;fill-opacity:1;fill-rule:nonzero;stroke:none;stroke-width:1px;marker:none;visibility:visible;display:inline;overflow:visible;enable-background:accumulate" />
    <path
       style="opacity:0.98999999000000005;color:#000000;fill:#4f6300;fill-opacity:1;fill-rule:nonzero;stroke:none;stroke-width:1px;marker:none;visibility:visible;display:inline;overflow:visible;enable-background:accumulate"
       d="m 336.68801,546.73497 c 3.33661,-2.78935 0.87508,-6.62225 -0.56358,-10.11543 -0.44696,-1.08524 -2.17104,-3.69757 -3.05133,-4.41004 -4.82666,-2.72493 -13.99006,-11.81523 -11.98741,-5.46846 1.34017,3.5427 -1.03512,0.6517 6.58693,7.19486"
       id="path3215"
       inkscape:connector-curvature="0"
       sodipodi:nodetypes="csccc" />
  </g>
  <g
     inkscape:groupmode="layer"
     id="layer11"
     inkscape:label="main"
     style="display:inline" />
  <path
     style="opacity:0.98999999000000005;color:#000000;fill:#552200;fill-opacity:1;fill-rule:nonzero;stroke:none;stroke-width:1px;marker:none;visibility:visible;display:inline;overflow:visible;enable-background:accumulate"
     d="m 154.31496,290.86675 c 2.52028,-1.8581 -3.89308,-10.60913 8.3196,-0.48284 6.21573,5.15384 -2.7541,0.54233 -5.44853,3.83676"
     id="path3221"
     inkscape:connector-curvature="0"
     sodipodi:nodetypes="csc" />
  <path
     style="opacity:0.98999999000000005;color:#000000;fill:#803300;fill-opacity:1;fill-rule:nonzero;stroke:none;stroke-width:1px;marker:none;visibility:visible;display:inline;overflow:visible;enable-background:accumulate"
     d="m 165.14999,278.87401 c 0,0 -0.73296,5.86845 1.11128,6.21457 2.55625,0.47974 8.57435,4.22046 8.22634,2.87695 -0.4309,-1.66348 -4.88317,-3.86132 -5.42843,-4.95184"
     id="path3223"
     inkscape:connector-curvature="0"
     sodipodi:nodetypes="cssc" />
  <path
     style="opacity:0.98999999000000005;color:#000000;fill:#803300;fill-opacity:1;fill-rule:nonzero;stroke:none;stroke-width:1px;marker:none;visibility:visible;display:inline;overflow:visible;enable-background:accumulate"
     d="m 153.15933,283.45427 c 2.57224,0.27163 4.75636,-1.06691 7.07107,-1.83848 0.3331,-0.11103 0.96542,-0.45818 1.13137,-0.70711 0.0784,-0.11767 0,-0.56568 0,-0.42426 0,0.0943 0,0.37712 0,0.28284 0,-0.18402 -0.71422,-1.71128 -0.84853,-1.9799 -0.0632,-0.12649 -0.28284,0 -0.42426,0"
     id="path3225"
     inkscape:connector-curvature="0" />
  <g
     inkscape:groupmode="layer"
     id="layer8"
     inkscape:label="cheveu"
     style="display:inline">
    <path
       sodipodi:nodetypes="ccscscccccscccccccccccccssssccsccccssccccccccczcscssscc"
       inkscape:connector-curvature="0"
       id="path5528"
       d="m 470.53485,445.5072 c -0.87961,-4.17103 0.54752,-2.90363 1.6786,-11.93309 -1.4103,-5.83279 -2.17697,-13.53667 -2.26856,-16.90855 -0.28503,-10.49282 1.13925,1.96649 1.67452,-4.36568 -3.02893,-7.71071 -0.0111,-9.96285 -1.026,-20.45828 -0.58178,-6.01622 -4.83335,-10.22668 -0.49116,-18.03575 -3.37175,-8.23665 -2.77636,-14.51328 -5.27696,-19.36223 -3.46277,-4.49956 -5.52042,-7.50922 -8.15734,-10.05685 -4.14551,-5.64308 -2.03989,-0.76685 -6.14803,-4.64681 -10.28394,-7.88091 -14.29349,-10.3096 -26.83331,-12.95807 -6.00211,-1.20042 -8.33792,-0.82523 -14.60316,-1.60833 -3.88275,-0.48535 -8.36809,0.28284 -12.30365,0.28284 -22.72458,-0.0859 -7.97607,-0.074 -21.49605,-0.28284 -9.70719,-0.17994 -24.48998,0.20479 -31.34284,2.14559 5.75215,1.43126 -2.19755,3.93158 -7.12377,5.49116 -3.65326,2.01027 -7.46949,2.53724 -11.03086,3.67696 -0.29106,0.097 -3.39412,1.09324 -3.39412,1.69706 2.16201,0.21365 4.21136,1.00512 6.22254,1.13137 1.15231,0.3841 2.55118,0.84294 2.54559,0.84852 -0.89485,0.89485 -3.27083,1.70915 -4.52548,2.54559 6.75527,1.28997 -8.71581,8.90565 -11.31371,17.2534 12.7697,-0.93666 -1.05932,10.54529 -7.32443,20.56776 4.73798,2.39837 6.80014,-1.72819 7.89011,3.89814 -0.37101,7.77242 -12.44299,19.57159 -7.91959,21.07178 0.1401,0.14011 11.56004,-2.37227 11.59655,-2.26274 0.38033,1.14098 -0.12049,2.75492 0,3.9598 0.2086,2.08605 0.87245,4.15119 1.13137,6.22254 0.2162,1.72959 3.99447,-6.27371 5.46568,-5.30883 1.6,1.04934 2.41552,9.94723 3.16569,9.49705 4.95232,-5.91531 1.66731,-13.98772 4.66224,-19.17889 0.37885,-0.63142 1.02829,-1.06993 1.41421,-1.69705 1.79383,-2.91497 2.89818,-9.40357 5.09117,-11.59655 5.92437,-3.75988 0.0521,1.00352 9.89949,-5.65686 0.17762,-0.41443 0.52233,-2.56004 1.41422,-2.26274 10.32515,-0.85795 1.28716,-2.07994 7.07107,0 -2.67171,-3.25175 3.37715,-0.76483 3.95979,-1.69706 0.90924,-1.45477 0.58414,-1.23795 1.69706,-1.9799 1.39266,-0.92843 -0.15005,-1.01582 0.56568,1.13138 0.17966,0.53896 12.45716,-2.97589 13.29361,-3.39412 7.53844,-9.29812 10.64999,-6.09331 15.27351,0 0.57424,-0.28712 0.20513,0.73196 0.84853,1.69706 13.23885,-2.16724 2.76048,0.0195 11.87939,-1.13137 0.2647,-0.2647 2.49392,-0.56568 2.54558,-0.56568 12.2513,6.77181 5.63902,1.59607 12.72793,4.24263 4.60704,7.54078 -1.35921,0.5636 4.94974,3.39411 0.52266,15.04545 10.71721,17.68141 10.73554,25.17301 0,0 -4.54923,23.91106 -5.88629,34.23157 -1.33706,10.32051 -21.29017,26.84774 -21.29017,26.84774 0,0 -5.10924,19.4987 0.27869,30.52498 4.48155,9.1714 -8.28432,53.45959 13.68367,27.80574 -4.87151,-7.30447 18.60942,-15.67216 16.41491,-20.48915 -4.03765,-8.86271 4.11329,-15.48417 7.15435,-16.71903 2.09073,-0.84896 9.06852,-5.72557 11.39185,-6.51717 1.73074,-0.58968 0.77651,-3.67695 2.26275,-5.65685 -2.86775,-11.16655 2.26275,-14.00072 2.26275,-14.00072"
       style="color:#000000;fill:#803300;fill-opacity:1;fill-rule:nonzero;stroke:none;stroke-width:1px;marker:none;visibility:visible;display:inline;overflow:visible;filter:url(#filter3898);enable-background:accumulate"
       transform="matrix(-0.95628599,0,0,1,753.47772,-1.1313709)" />
  </g>
  <g
     inkscape:groupmode="layer"
     id="g3912"
     inkscape:label="cheveu copy copy"
     style="display:inline" />
  <g
     style="display:inline;opacity:1"
     inkscape:label="cheveu copy"
     id="g3906"
     inkscape:groupmode="layer">
    <path
       style="color:#000000;fill:#803300;fill-opacity:1;fill-rule:nonzero;stroke:none;stroke-width:1px;marker:none;visibility:visible;display:inline;overflow:visible;filter:url(#filter3890);enable-background:accumulate"
       d="m 467.63779,446.07289 c -0.87961,-4.17103 0.54752,-2.90363 1.6786,-11.93309 -1.4103,-5.83279 -2.17697,-13.53667 -2.26856,-16.90855 -0.28503,-10.49282 1.13925,1.96649 1.67452,-4.36568 -3.02893,-7.71071 -0.0111,-9.96285 -1.026,-20.45828 -0.58178,-6.01622 -4.83335,-10.22668 -0.49116,-18.03575 -3.37175,-8.23665 -2.77636,-14.51328 -5.27696,-19.36223 -3.46277,-4.49956 -5.52042,-7.50922 -8.15734,-10.05685 -4.14551,-5.64308 -2.03989,-0.76685 -6.14803,-4.64681 -10.28394,-7.88091 -14.29349,-10.3096 -26.83331,-12.95807 -6.00211,-1.20042 -8.33792,-0.82523 -14.60316,-1.60833 -3.88275,-0.48535 -8.36809,0.28284 -12.30365,0.28284 -22.72458,-0.0859 -7.97607,-0.074 -21.49605,-0.28284 -9.70719,-0.17994 -24.48998,0.20479 -31.34284,2.14559 5.75215,1.43126 -2.19755,3.93158 -7.12377,5.49116 -3.65326,2.01027 -7.46949,2.53724 -11.03086,3.67696 -0.29106,0.097 -3.39412,1.09324 -3.39412,1.69706 2.16201,0.21365 4.21136,1.00512 6.22254,1.13137 1.15231,0.3841 2.55118,0.84294 2.54559,0.84852 -0.89485,0.89485 -3.27083,1.70915 -4.52548,2.54559 6.75527,1.28997 -8.71581,8.90565 -11.31371,17.2534 12.7697,-0.93666 -1.05932,10.54529 -7.32443,20.56776 4.73798,2.39837 6.80014,-1.72819 7.89011,3.89814 -0.37101,7.77242 -12.44299,19.57159 -7.91959,21.07178 0.1401,0.14011 11.56004,-2.37227 11.59655,-2.26274 0.38033,1.14098 -0.12049,2.75492 0,3.9598 0.2086,2.08605 0.87245,4.15119 1.13137,6.22254 0.2162,1.72959 3.99447,-6.27371 5.46568,-5.30883 1.6,1.04934 2.41552,9.94723 3.16569,9.49705 4.95232,-5.91531 1.66731,-13.98772 4.66224,-19.17889 0.37885,-0.63142 1.02829,-1.06993 1.41421,-1.69705 1.79383,-2.91497 2.89818,-9.40357 5.09117,-11.59655 5.92437,-3.75988 -1.7479,-0.59648 8.09949,-7.25686 22.71494,18.04491 50.9811,24.87565 37.24508,19.25025 1.39266,-0.92843 -1.73827,-2.77146 16.46274,0.34143 17.37966,0.93896 14.25716,2.02411 15.09361,1.60588 68.23326,28.96582 21.09664,-3.23454 4.27494,-23.55736 4.60704,7.54078 -1.35921,4.80624 4.94974,7.63675 0.52266,15.04545 10.71721,13.43877 10.73554,20.93037 0,0 -4.54923,23.91106 -5.88629,34.23157 -1.33706,10.32051 -21.29017,26.84774 -21.29017,26.84774 0,0 -5.10924,19.4987 0.27869,30.52498 4.48155,9.1714 -8.28432,53.45959 13.68367,27.80574 -4.87151,-7.30447 18.60942,-15.67216 16.41491,-20.48915 -4.03765,-8.86271 4.11329,-15.48417 7.15435,-16.71903 2.09073,-0.84896 9.06852,-5.72557 11.39185,-6.51717 1.73074,-0.58968 0.77651,-3.67695 2.26275,-5.65685 -2.86775,-11.16655 2.26275,-14.00072 2.26275,-14.00072"
       id="path3908"
       inkscape:connector-curvature="0"
       sodipodi:nodetypes="ccscscccccscccccccccccccssssccscccccccczcscssscc" />
  </g>
</svg>
