<?xml version="1.0" encoding="UTF-8" standalone="no"?>
<!-- Created with Inkscape (http://www.inkscape.org/) -->

<svg
   xmlns:dc="http://purl.org/dc/elements/1.1/"
   xmlns:cc="http://creativecommons.org/ns#"
   xmlns:rdf="http://www.w3.org/1999/02/22-rdf-syntax-ns#"
   xmlns:svg="http://www.w3.org/2000/svg"
   xmlns="http://www.w3.org/2000/svg"
   xmlns:xlink="http://www.w3.org/1999/xlink"
   xmlns:sodipodi="http://sodipodi.sourceforge.net/DTD/sodipodi-0.dtd"
   xmlns:inkscape="http://www.inkscape.org/namespaces/inkscape"
   width="155.85382mm"
   height="179.33333mm"
   viewBox="0 0 552.23795 635.43305"
   id="svg10472"
   version="1.1"
   inkscape:version="0.91 r13725"
   sodipodi:docname="film_editor.svg"
   inkscape:export-filename="/media/sdb1/_GRAFIKA/2017_OCAL/cinema/film_editor.png"
   inkscape:export-xdpi="85"
   inkscape:export-ydpi="85">
  <title
     id="title7899">Film editor</title>
  <defs
     id="defs10474">
    <radialGradient
       inkscape:collect="always"
       xlink:href="#XMLID_15_"
       id="radialGradient15953"
       gradientUnits="userSpaceOnUse"
       gradientTransform="matrix(25.781698,0,0,-25.781698,9581.2233,11939.729)"
       cx="-293.67999"
       cy="462.75"
       r="1.6653" />
    <radialGradient
       r="1.6653"
       gradientTransform="matrix(29.207,0,0,-29.207,9361.9627,13701.141)"
       cx="-293.67999"
       cy="462.75"
       gradientUnits="userSpaceOnUse"
       id="XMLID_15_">
      <stop
         offset="0"
         style="stop-color:#FFFA5F"
         id="stop6" />
      <stop
         offset="1"
         style="stop-color:#9F3300"
         id="stop8" />
    </radialGradient>
    <linearGradient
       inkscape:collect="always"
       xlink:href="#XMLID_22_-6"
       id="linearGradient15959"
       gradientUnits="userSpaceOnUse"
       gradientTransform="matrix(91.273585,103.22566,103.22566,-91.273585,-21089.085,69848.14)"
       x1="-269.39001"
       y1="461.41"
       x2="-267.73999"
       y2="461.41" />
    <linearGradient
       x1="-269.39001"
       x2="-267.73999"
       gradientTransform="matrix(103.4,116.94,116.94,-103.4,-25383.137,79303.141)"
       y1="461.41"
       gradientUnits="userSpaceOnUse"
       y2="461.41"
       id="XMLID_22_-6">
      <stop
         offset="0"
         style="stop-color:#FFD8BF"
         id="stop117-1" />
      <stop
         offset=".5393"
         style="stop-color:#BF7400"
         id="stop119-6" />
      <stop
         offset="1"
         style="stop-color:#000000"
         id="stop121-3" />
    </linearGradient>
    <radialGradient
       inkscape:collect="always"
       xlink:href="#XMLID_20_"
       id="radialGradient15957"
       gradientUnits="userSpaceOnUse"
       gradientTransform="matrix(14.767077,-0.00441362,-0.00441362,-14.767077,6652.6123,6822.5814)"
       cx="-314.28"
       cy="460.07999"
       r="1.6545" />
    <radialGradient
       r="1.6545"
       gradientTransform="matrix(16.729,-0.005,-0.005,-16.729,6044.2627,7904.1413)"
       cx="-314.28"
       cy="460.07999"
       gradientUnits="userSpaceOnUse"
       id="XMLID_20_">
      <stop
         offset="0"
         style="stop-color:#B9DAF4"
         id="stop69" />
      <stop
         offset="1"
         style="stop-color:#7A97CB"
         id="stop71" />
    </radialGradient>
    <linearGradient
       inkscape:collect="always"
       xlink:href="#XMLID_23_-1"
       id="linearGradient15961"
       gradientUnits="userSpaceOnUse"
       gradientTransform="matrix(91.273585,103.22566,103.22566,-91.273585,-21089.085,69848.14)"
       x1="-269.41"
       y1="461.29999"
       x2="-267.70999"
       y2="461.29999" />
    <linearGradient
       x1="-269.41"
       x2="-267.70999"
       gradientTransform="matrix(103.4,116.94,116.94,-103.4,-25383.137,79303.141)"
       y1="461.29999"
       gradientUnits="userSpaceOnUse"
       y2="461.29999"
       id="XMLID_23_-1">
      <stop
         offset="0"
         style="stop-color:#F3C192"
         id="stop136" />
      <stop
         offset=".5393"
         style="stop-color:#D49035"
         id="stop138" />
      <stop
         offset="1"
         style="stop-color:#765735"
         id="stop140" />
    </linearGradient>
    <linearGradient
       inkscape:collect="always"
       xlink:href="#XMLID_24_-3"
       id="linearGradient15963"
       gradientUnits="userSpaceOnUse"
       gradientTransform="matrix(91.273585,103.22566,103.22566,-91.273585,-21089.085,69848.14)"
       x1="-269.44"
       y1="461.60001"
       x2="-267.67999"
       y2="461.60001" />
    <linearGradient
       x1="-269.44"
       x2="-267.67999"
       gradientTransform="matrix(103.4,116.94,116.94,-103.4,-25383.137,79303.141)"
       y1="461.60001"
       gradientUnits="userSpaceOnUse"
       y2="461.60001"
       id="XMLID_24_-3">
      <stop
         offset="0"
         style="stop-color:#F3C192"
         id="stop149" />
      <stop
         offset=".5393"
         style="stop-color:#D49035"
         id="stop151" />
      <stop
         offset="1"
         style="stop-color:#765735"
         id="stop153-6" />
    </linearGradient>
    <radialGradient
       inkscape:collect="always"
       xlink:href="#XMLID_25_"
       id="radialGradient15965"
       gradientUnits="userSpaceOnUse"
       gradientTransform="matrix(36.061011,0,0,-36.061011,12319.342,16726.737)"
       cx="-285.76001"
       cy="463.54001"
       r="1.6746" />
    <radialGradient
       r="1.6746"
       gradientTransform="matrix(40.852,0,0,-40.852,12463.863,19124.141)"
       cx="-285.76001"
       cy="463.54001"
       gradientUnits="userSpaceOnUse"
       id="XMLID_25_">
      <stop
         offset="0"
         style="stop-color:#FFFA5F"
         id="stop166" />
      <stop
         offset="1"
         style="stop-color:#9F3300"
         id="stop168" />
    </radialGradient>
    <linearGradient
       inkscape:collect="always"
       xlink:href="#linearGradient3878"
       id="linearGradient16802"
       gradientUnits="userSpaceOnUse"
       x1="-29"
       y1="-458.64001"
       x2="175"
       y2="-458.64001" />
    <linearGradient
       inkscape:collect="always"
       id="linearGradient3878">
      <stop
         offset="0"
         style="stop-color:#888a85"
         id="stop3880" />
      <stop
         offset="1"
         style="stop-color:#888a85;stop-opacity:0"
         id="stop3882" />
    </linearGradient>
    <linearGradient
       inkscape:collect="always"
       x1="97"
       y1="-187.14"
       gradientTransform="translate(217.37,700.22)"
       x2="214"
       gradientUnits="userSpaceOnUse"
       y2="-35.638"
       id="linearGradient3859">
      <stop
         offset="0"
         style="stop-color:#d3d7cf"
         id="stop3855" />
      <stop
         offset="1"
         style="stop-color:#babdb6"
         id="stop3857" />
    </linearGradient>
    <linearGradient
       inkscape:collect="always"
       x1="274.70999"
       y1="377.78"
       gradientTransform="translate(40.864,166.74)"
       x2="327.39001"
       gradientUnits="userSpaceOnUse"
       y2="409.60001"
       id="linearGradient3850">
      <stop
         offset="0"
         style="stop-color:#888a85"
         id="stop3651" />
      <stop
         offset="1"
         style="stop-color:#eeeeec"
         id="stop3653" />
    </linearGradient>
    <linearGradient
       inkscape:collect="always"
       x1="62.5"
       y1="-148.14"
       gradientTransform="matrix(0.86603,-0.5,0.5,0.86603,272.55,647.21)"
       x2="187.5"
       gradientUnits="userSpaceOnUse"
       xlink:href="#linearGradient3829"
       y2="58.862"
       id="linearGradient3835" />
    <linearGradient
       inkscape:collect="always"
       id="linearGradient3829">
      <stop
         offset="0"
         style="stop-color:#989a96"
         id="stop3831" />
      <stop
         offset="1"
         style="stop-color:#eeeeec"
         id="stop3833" />
    </linearGradient>
    <linearGradient
       inkscape:collect="always"
       x1="62.5"
       y1="-148.14"
       gradientTransform="matrix(-0.87659,0.5061,0.5061,0.87659,464.45,536.91)"
       x2="187.5"
       gradientUnits="userSpaceOnUse"
       xlink:href="#linearGradient3829"
       y2="58.862"
       id="linearGradient3839" />
    <linearGradient
       inkscape:collect="always"
       x1="50.205002"
       y1="-288.84"
       gradientTransform="matrix(0.89408,0,0,0.89408,-31.161,-22.363)"
       x2="67.045998"
       gradientUnits="userSpaceOnUse"
       y2="-275.26001"
       id="linearGradient3954">
      <stop
         offset="0"
         style="stop-color:#eeeeec"
         id="stop3928" />
      <stop
         offset="1"
         style="stop-color:#2e3436"
         id="stop3930" />
    </linearGradient>
    <linearGradient
       inkscape:collect="always"
       xlink:href="#linearGradient3878"
       id="linearGradient7893"
       gradientUnits="userSpaceOnUse"
       x1="-29"
       y1="-458.64001"
       x2="175"
       y2="-458.64001" />
    <linearGradient
       inkscape:collect="always"
       xlink:href="#linearGradient3878"
       id="linearGradient7895"
       gradientUnits="userSpaceOnUse"
       x1="-29"
       y1="-458.64001"
       x2="175"
       y2="-458.64001" />
    <linearGradient
       inkscape:collect="always"
       xlink:href="#linearGradient3878"
       id="linearGradient7897"
       gradientUnits="userSpaceOnUse"
       x1="-29"
       y1="-458.64001"
       x2="175"
       y2="-458.64001" />
  </defs>
  <sodipodi:namedview
     id="base"
     pagecolor="#ffffff"
     bordercolor="#666666"
     borderopacity="1.0"
     inkscape:pageopacity="0.0"
     inkscape:pageshadow="2"
     inkscape:zoom="0.49497475"
     inkscape:cx="350.6887"
     inkscape:cy="265.01985"
     inkscape:document-units="px"
     inkscape:current-layer="layer1"
     showgrid="false"
     fit-margin-top="5"
     fit-margin-left="5"
     fit-margin-right="5"
     fit-margin-bottom="5"
     inkscape:window-width="1920"
     inkscape:window-height="1125"
     inkscape:window-x="0"
     inkscape:window-y="0"
     inkscape:window-maximized="1" />
  <metadata
     id="metadata10477">
    <rdf:RDF>
      <cc:Work
         rdf:about="">
        <dc:format>image/svg+xml</dc:format>
        <dc:type
           rdf:resource="http://purl.org/dc/dcmitype/StillImage" />
        <dc:title>Film editor</dc:title>
        <dc:creator>
          <cc:Agent>
            <dc:title>Jan Helebrant</dc:title>
          </cc:Agent>
        </dc:creator>
        <dc:rights>
          <cc:Agent>
            <dc:title>Jan Helebrant</dc:title>
          </cc:Agent>
        </dc:rights>
        <dc:publisher>
          <cc:Agent>
            <dc:title>Jan Helebrant</dc:title>
          </cc:Agent>
        </dc:publisher>
        <cc:license
           rdf:resource="http://creativecommons.org/publicdomain/zero/1.0/" />
        <dc:subject>
          <rdf:Bag>
            <rdf:li>cinema</rdf:li>
            <rdf:li>movie</rdf:li>
            <rdf:li>film</rdf:li>
            <rdf:li>motion</rdf:li>
            <rdf:li>slate</rdf:li>
            <rdf:li>remix+32425</rdf:li>
            <rdf:li>cut</rdf:li>
            <rdf:li>cutter</rdf:li>
            <rdf:li>editor</rdf:li>
            <rdf:li>editing</rdf:li>
            <rdf:li>scissors</rdf:li>
            <rdf:li>reel</rdf:li>
          </rdf:Bag>
        </dc:subject>
        <dc:description>simplified icon of a female film editor with film reel and scissors</dc:description>
      </cc:Work>
      <cc:License
         rdf:about="http://creativecommons.org/publicdomain/zero/1.0/">
        <cc:permits
           rdf:resource="http://creativecommons.org/ns#Reproduction" />
        <cc:permits
           rdf:resource="http://creativecommons.org/ns#Distribution" />
        <cc:permits
           rdf:resource="http://creativecommons.org/ns#DerivativeWorks" />
      </cc:License>
    </rdf:RDF>
  </metadata>
  <g
     inkscape:label="Vrstva 1"
     inkscape:groupmode="layer"
     id="layer1"
     transform="translate(1935.8518,438.00438)">
    <g
       transform="matrix(4.619494,0,0,4.619494,-11028.989,-261.31763)"
       id="g16961">
      <path
         inkscape:connector-curvature="0"
         id="path15859"
         style="fill:#ffce00"
         d="m 2041.0276,10.983769 c 0,19.290151 -33.3996,17.606798 -45.312,15.421175 -6.51,-1.192559 -15.9499,-4.122317 -15.9499,-12.256612 0,-5.5523298 2.1989,-11.3606488 4.3051,-16.4018814 5.2451,-12.5443796 16.0179,-29.1792996 31.8592,-26.8224286 17.1857,2.558132 25.0976,25.0066668 25.0976,40.059747" />
      <path
         d="m 2050.2396,60.131556 c 0,20.80493 -19.9471,28.13633 -37.8236,27.67801 -19.853,-0.50996 -37.2204,-10.82501 -34.6009,-32.72775 2.2545,-18.86202 17.1021,-40.48939 38.205,-39.23851 21.5196,1.27444 34.2195,24.84744 34.2195,44.28825"
         inkscape:connector-curvature="0"
         style="fill:#00d400;fill-opacity:1"
         id="path15999" />
      <path
         inkscape:connector-curvature="0"
         id="path15861"
         style="fill:#ffb600"
         d="m 2013.0197,-29.288715 c -15.0037,0 -30.0206,18.74816 -29.1105,33.0385665 0.4643,7.2974735 1.9729,16.0470265 8.9932,19.9345395 9.2368,3.796593 18.5716,4.537198 28.4599,3.394071 6.3662,-0.735308 14.4758,-2.205043 18.7375,-7.543753 3.9794,-4.986504 1.8476,-13.1490459 0.3946,-18.72344326 -3.3049,-12.67237474 -12.2257,-30.09998074 -27.4747,-30.09998074" />
      <path
         d="m 2014.3434,16.586056 c -20.5323,0 -34.3753,21.6482 -35.9043,40.15606 -1.7663,21.41361 16.9046,30.27851 35.7522,30.27851 -17.0985,0 -35.4795,-7.66474 -34.62,-27.41895 0.8234,-18.9218 15.6393,-33.84367 34.7585,-33.84367 18.2099,0 32.2097,13.3603 33.7106,31.39896 1.7219,20.72159 -15.2154,29.86366 -33.8211,29.86366 18.1999,0 35.9777,-8.46001 35.1725,-28.99682 -0.7409,-18.92543 -13.9156,-41.43775 -35.0484,-41.43775"
         inkscape:connector-curvature="0"
         style="fill:#00d400;fill-opacity:1"
         id="path16001" />
      <path
         d="m 1987.8357,29.271536 c -11.4799,14.37659 -17.7814,40.62979 0.1821,52.61692 14.6102,9.74623 41.3145,9.9455 54.7364,-2.19924 14.161,-12.81501 8.2073,-37.28201 -2.144,-50.55173 -14.2262,-18.2316 -38.397,-17.82852 -52.7754,0.13405 m -9.6783,31.50584 c 0,-20.22159 14.9663,-45.59257 37.782,-44.26741 20.5504,1.19382 32.8872,23.04493 33.5901,41.65695 0.7454,19.75965 -15.4871,28.48234 -33.3401,28.95244 -17.0559,0.45108 -38.032,-5.94194 -38.032,-26.34198"
         inkscape:connector-curvature="0"
         style="fill:#282828;fill-opacity:1"
         id="path16003" />
      <path
         d="m 2014.2855,77.228206 c -12.1258,0 -26.7632,-1.8179 -35.6054,-11.0904 3.1068,15.45537 19.6174,20.60203 33.5058,20.97974 14.8892,0.40579 33.1887,-3.98726 36.7494,-20.77504 -8.5832,9.12486 -22.8067,10.8857 -34.6498,10.8857"
         inkscape:connector-curvature="0"
         style="fill:#0088aa;fill-opacity:1"
         id="path16005" />
      <path
         d="m 2014.3434,16.192036 c 19.276,0 31.9814,19.48611 34.0049,36.8409 2.3406,20.06943 -11.6665,30.97777 -30.5747,32.00312 -16.9725,0.91756 -38.7222,-5.2934 -38.7222,-25.79488 0,-18.77416 12.911,-41.56909 33.4796,-42.9957 -20.6021,1.394 -33.85,23.70977 -34.6082,42.55549 -0.8641,21.44531 19.7968,29.08287 38.0918,28.61186 18.9816,-0.48821 35.2603,-10.34313 33.6842,-31.13266 -1.4112,-18.59572 -14.6655,-40.08813 -35.3554,-40.08813"
         inkscape:connector-curvature="0"
         style="fill:#282828;fill-opacity:1"
         id="path16007" />
      <ellipse
         style="opacity:1;fill:#fcd095;fill-opacity:1;stroke:#000000;stroke-width:1.23118639;stroke-linecap:butt;stroke-linejoin:round;stroke-miterlimit:4;stroke-dasharray:none;stroke-dashoffset:0;stroke-opacity:1"
         id="ellipse16009"
         cx="2014.8453"
         cy="24.799408"
         rx="15.509408"
         ry="7.7415504" />
      <path
         inkscape:connector-curvature="0"
         id="path15857"
         style="fill:url(#radialGradient15953)"
         d="m 2042.2051,4.9415279 c -1.0707,3.7056722 0.7998,7.6399701 -0.4122,11.4533341 -0.978,3.086001 -3.5062,5.304284 -6.2735,6.803149 2.9262,2.606681 6.4289,-2.323328 7.3646,-5.451699 1.1846,-3.955483 0.1527,-8.8749002 -0.6789,-12.8047841 m -55.8613,-13.1993611 c -1.0487,0.865952 -1.3506,2.4027729 -1.3541,3.6818389 0.5499,-1.2702388 1.0513,-2.3303894 1.3541,-3.6818389 m -1.5104,-1.051323 c -3.7904,7.2277378 -6.9744,15.715122 -7.459,23.9456342 -0.3434,5.851572 8.8405,15.801629 13.8146,10.710964 -6.781,-1.98701 -12.2875,-6.065192 -11.2238,-13.731644 0.5173,-3.7189127 1.6339,-7.3707388 2.9315,-10.88309456 1.3347,-3.61563454 1.4812,-6.23114354 1.9367,-10.04185964" />
      <path
         inkscape:connector-curvature="0"
         id="path15891"
         style="fill:url(#linearGradient15959)"
         d="m 2040.4397,-10.268676 c 5.171,15.7875049 -6.5304,31.891026 -22.5659,33.82772 -8.8829,1.071626 -17.9846,-2.182974 -23.9969,-8.850183 -2.9377,-3.259014 -5.0412,-7.2392137 -6.0069,-11.5230697 -0.5923,-2.62257076 -1.9685,-9.8476607 0.1624,-12.0076845 -3.831,-0.147415 -2.2659,9.48839234 -1.7804,11.843498 0.9816,4.7658229 3.289,9.1970932 6.563,12.7906602 4.5072,4.946781 10.6924,8.167838 17.3137,9.12471 8.6993,1.256116 17.7384,-1.414122 24.2167,-7.37427 6.5259,-6.005166 13.3476,-20.3600119 6.0943,-27.831381 m 1.5915,-0.09534 c 0.019,0.281589 0.264,0.8668348 0,0" />
      <path
         inkscape:connector-curvature="0"
         id="path15877"
         style="fill:url(#radialGradient15957)"
         d="m 2001.8718,22.472412 c 0.233,0.430769 0.2701,0.636443 0.6841,0.308953 -0.2287,-0.103278 -0.4555,-0.205674 -0.6841,-0.308953 m 26.178,-0.510214 c -0.399,0.195082 -0.7971,0.391046 -1.1961,0.585245 0.8801,0.92686 0.9004,0.496974 1.1961,-0.585245" />
      <path
         inkscape:connector-curvature="0"
         id="path15885"
         style="fill:#fcd095"
         d="m 2042.4717,-2.4186187 c 0,15.1245807 -13.2117,26.9230597 -28.0088,26.9230597 -14.7953,0 -27.9947,-11.807307 -27.9947,-26.9230597 0,-15.1113393 13.2038,-26.9239423 27.9947,-26.9239423 14.7927,-8.82e-4 28.0088,11.805541 28.0088,26.9239423" />
      <path
         inkscape:connector-curvature="0"
         id="path15887"
         style="fill:#ffe2ae"
         d="m 1995.6971,-12.509911 c 6.2347,-7.32572 17.0145,-9.227106 26.0306,-6.969983 10.3491,2.592559 15.7125,10.7709898 17.2882,20.9134796 2.2041,-14.6796876 -10.0375,-27.3988466 -24.553,-27.3988466 -14.5305,0 -26.735,12.734165 -24.5388,27.4129702 0.7644,-4.9167685 2.4937,-10.1248354 5.773,-13.9576202" />
      <path
         inkscape:connector-curvature="0"
         id="path15889"
         style="fill:#fabb78"
         d="m 2041.4654,-5.6511512 c -1.5606,11.9573692 -8.1034,21.0917902 -20.6063,23.2747642 -15.189,2.651701 -30.8459,-6.823451 -33.3131,-22.7530748 -0.041,0.9303903 0,1.8554843 0.1254,2.7770474 -0.1254,-0.7776792 -0.2269,-1.5562411 -0.3046,-2.3409821 -1.6206,16.9403425 14.173,30.2217965 30.507,28.2524405 14.3098,-1.728372 25.4047,-14.6761568 23.5916,-29.2101952" />
      <path
         inkscape:connector-curvature="0"
         id="path15893"
         style="fill:#ffce00"
         d="m 2034.4054,-25.434745 c 4.7588,4.880577 7.4149,9.096463 7.6947,16.3012508 -0.014,-0.40517 -5.3943,-5.0500598 -6.2082,-5.7173988 -1.9473,-1.596846 -5.6424,2.652584 -7.8342,3.575912 -8.9437,3.7648148 -16.4954,1.053089 -25.5707,1.106052 -3.8178,0.02207 -5.9442,2.6870098 -9.3242,3.336694 -2.1097,0.40517 -3.8142,-2.7814612 -6.2612,-2.1697342 -2.8979,0.722068 -1.9569,5.9574997 -1.52,8.01247954 -7.3407,-26.44109234 31.6562,-42.21182634 49.0238,-24.44525534" />
      <path
         inkscape:connector-curvature="0"
         id="path15895"
         style="fill:#ffb600"
         d="m 2041.664,-13.278763 c 0.1007,0.84918 0.1713,1.701891 0.211,2.555484 0,-0.09886 -4.4392,-4.055231 -4.945,-4.553969 -3.0498,-3.002142 -3.1902,-0.931273 -6.1773,0.92068 -6.5745,4.078182 -15.0151,4.6272348 -22.4406,3.301385 -3.2899,-0.587894 -6.7696,-1.184614 -10.0304,-0.08915 -1.8563,0.624085 -4.5804,3.5812078 -6.6248,2.3754078 -4.945,-2.9138688 -7.4581,-0.231273 -6.6072,5.1692278 -0.8315,-6.6963386 3.7745,-4.3694798 7.5084,-3.2651933 1.6869,0.4996213 4.4657,-2.1873885 5.9584,-2.6896575 3.9202,-1.3223198 8.0734,-0.212737 12.0015,0.421059 6.6805,1.07957 14.6426,-0.03619 20.4677,-3.6368198 1.7116,-1.058385 2.9377,-3.696845 4.9009,-2.082344 0.8165,0.670869 6.2003,5.3078148 6.2144,5.7173978 -0.053,-1.3894058 -0.1977,-2.7717508 -0.437,-4.1435028" />
      <path
         inkscape:connector-curvature="0"
         id="path15897"
         style="fill:#f2bd7e"
         d="m 1988.0713,-8.8201282 c -0.2269,0.865069 -0.783,3.2387121 -0.7036,4.1267317 0.057,-0.5808319 0.4193,-3.6041587 2.9139,-2.8229487 0.2781,-1.137831 -1.3082,-1.278184 -2.2103,-1.303783 m 44.3833,-4.7711188 c -7.2383,4.8726328 -16.2783,5.4446368 -24.613,3.9943228 -3.3773,-0.5878938 -6.9558,-1.0460268 -10.2034,0.383102 -1.1308,0.654981 -3.2308,2.4054208 -4.7217,2.4054208 -0.6055,0.091803 -0.4546,-0.4493058 -0.7406,0.2330389 2.3437,1.4688515 3.3208,0.3116013 5.5471,-0.9815887 3.703,-2.148548 7.9939,-1.487388 11.9882,-0.774148 7.7539,1.3849929 17.2096,0.773266 23.717,-4.2044108 -0.3239,-0.353089 -0.6488,-0.705296 -0.9736,-1.055737 m 2.5917,-1.85107 c 0.835,1.187262 1.7222,1.437073 2.8079,2.457501 -0.8359,-0.935687 -1.7707,-1.753971 -2.8079,-2.457501" />
      <path
         inkscape:connector-curvature="0"
         id="path15899"
         style="fill:#f3c58a"
         d="m 1990.4255,-8.0777572 c -0.3337,1.2322814 0.5181,0.737074 1.7513,1.501512 0.3946,-0.942748 -1.0496,-1.115762 -1.7513,-1.501512 m 44.3621,-7.4828448 c -0.7009,0.747666 -1.4785,1.402647 -2.333,1.969355 2.4266,2.442495 1.0566,-1.066329 3.2378,-0.885371 -0.1306,-0.561412 -0.4316,-0.922446 -0.9048,-1.083984" />
      <path
         inkscape:connector-curvature="0"
         id="path15901"
         style="fill:#f1b26f"
         d="m 1987.4728,-5.6511512 c -0.1439,1.1404784 0.026,2.1670856 0.1986,3.2978541 -0.1315,-1.1042868 -0.054,-2.2015119 -0.1986,-3.2978541" />
      <path
         inkscape:connector-curvature="0"
         id="path15903"
         style="fill:url(#linearGradient15961)"
         d="m 1988.0324,-8.8218932 c -0.9516,0.963934 -0.7741,2.8441343 -0.6735,4.0322799 0.01,-0.097982 0.5173,-4.0322799 0.6735,-4.0322799" />
      <path
         inkscape:connector-curvature="0"
         id="path15905"
         style="fill:#f3bc35"
         d="m 1993.0551,-6.8154632 c -0.1845,0.00971 -0.1845,0.00971 0,0 m 1.031,-0.3963428 c -0.2683,0.1421185 -0.2683,0.1421185 0,0 m 9.2501,-2.942116 c 1.5147,0.08739 3.0163,0.2727608 4.5063,0.5569978 -1.49,-0.284237 -2.9924,-0.4696088 -4.5063,-0.5569978 m -0.7503,-0.01589 c -0.5111,0.0071 -0.5111,0.0071 0,0 m 35.0865,-4.358888 c 1.1157,1.146658 2.1609,2.373643 3.342,3.456744 -1.1061,-1.15725 -2.1813,-2.352457 -3.342,-3.456744" />
      <path
         inkscape:connector-curvature="0"
         id="path15907"
         style="fill:#f3d4b2"
         d="m 2042.8027,-12.14005 c 0.088,0.754729 0.9525,3.6633018 -0.6399,2.2156358 -0.1775,1.067212 0.143,1.762798 0.9577,2.086757 0.4078,0 -0.278,-4.0640568 -0.3178,-4.3023928" />
      <path
         inkscape:connector-curvature="0"
         id="path15909"
         style="fill:url(#linearGradient15963)"
         d="m 2042.0533,-10.02681 c 0.016,0.2974768 0.032,0.5967208 0.047,0.8924328 -0.034,0.05738 -0.069,0.114754 -0.1033,0.170366 -0.2436,-0.16507 -0.4855,-0.329256 -0.7273,-0.49256 2.8503,2.9897837 1.2614,-0.111223 0.7838,-0.5702388" />
      <path
         inkscape:connector-curvature="0"
         id="path15911"
         style="fill:#f3bc35"
         d="m 2042.1001,-9.1334942 c -0.1386,0.22686 -0.1386,0.22686 0,0 m -0.048,-0.8941988 c 0.017,0.2992428 0.034,0.5958378 0.049,0.8941988 0.1801,-0.384868 0.1633,-0.682345 -0.049,-0.8941988" />
      <path
         inkscape:connector-curvature="0"
         id="path15913"
         style="fill:#f3b035"
         d="m 1989.1473,-9.2588412 c -0.3725,0.144767 -0.7433,0.291299 -1.1158,0.436948 2.5846,0 3.8531,2.8750297 6.3618,1.439722 -1.7284,0.6505667 -3.4267,-1.87667 -5.246,-1.87667 m 40.8348,-2.9315238 c -4.5496,2.174147 -9.7444,2.9774258 -14.7503,2.9774258 -5.8684,0 -11.9945,-3.1363158 -17.5927,-8.83e-4 4.6184,-2.0337948 9.6393,-0.280706 14.3566,0.293064 5.9151,0.721185 12.7289,-0.445775 17.9864,-3.2696068 m 5.4349,-3.878686 c -0.2807,0.07238 -0.4908,0.240983 -0.6294,0.508449 0.9834,0.350441 7.2993,6.0572468 7.3125,6.4262248 -0.3045,-1.5712468 -4.6308,-6.9346738 -6.6831,-6.9346738" />
      <path
         inkscape:connector-curvature="0"
         id="path15915"
         style="fill:#c68526"
         d="m 2041.8891,-12.371323 c 0.022,0.183606 0.4026,2.6931878 0.1218,2.7249658 -2.4831,0.279824 -4.5981,-6.5347998 -7.4784,-6.6504368 -0.9957,-0.03972 -5.1366,3.778939 -6.4748,4.342116 -4.3068,1.814879 -9.0761,2.5166438 -13.7272,2.5166438 -3.9952,0 -7.8403,-1.4326598 -11.8426,-1.4114738 -2.9916,0.01765 -7.5738,4.0005013 -9.9306,3.3049158 -1.4724,-0.4343 -3.9052,-3.1469088 -5.4632,-1.472383 -1.3938,1.498864 -0.5976,4.6775507 -0.3222,6.4429972 -0.1907,-1.5588892 -0.7644,-4.8408542 0.8898,-5.8815852 2.0249,-1.275535 3.6271,1.9817139 5.4993,1.6206801 3.38,-0.6523321 5.5082,-3.3137429 9.3269,-3.3349279 4.0023,-0.02207 7.8474,1.4097088 11.8426,1.4097088 6.4845,0 15.3762,-0.983354 19.8445,-6.3776758 1.2932,-1.558006 6.4421,6.4059228 7.8351,6.1737668 0.3645,-0.06091 -0.071,-3.1327848 -0.121,-3.4073118" />
      <path
         inkscape:connector-curvature="0"
         id="path15917"
         style="fill:#ffe600"
         d="m 2030.5505,-17.62794 c 0,8.5756558 -31.469,7.8068038 -31.469,0.566708 5.7474,1.249054 12.0677,2.284488 17.944,1.718662 1.5668,-0.150945 13.525,-4.394196 13.525,-2.28537" />
      <path
         inkscape:connector-curvature="0"
         id="path15919"
         style="fill:url(#radialGradient15965)"
         d="m 1985.4981,-4.8363977 c 0,-18.1329013 18.9574,-29.4670673 35.5817,-25.7384443 16.6023,3.724209 27.4262,22.5182698 20.1146,38.7188899 9.9518,-17.9069241 -4.4692,-40.0606299 -23.4327,-42.3468829 -9.7886,-1.181966 -19.7307,2.683479 -26.2249,10.085996 -6.6275,7.55258 -9.807,20.4694696 -4.6784,29.6948103 -1.4653,-3.2448906 -1.3603,-6.9346739 -1.3603,-10.414369" />
      <g
         id="g11"
         inkscape:label="Free_Vector_Stock_by_YSR1"
         transform="matrix(0.27460099,0.37575158,0.37575158,-0.27460099,1641.1594,44.548202)">
        <path
           inkscape:connector-curvature="0"
           id="path35144"
           sodipodi:nodetypes="ccccccc"
           style="fill:#dbe2e3;fill-rule:evenodd;stroke:#000000;stroke-width:1.49720001"
           d="m 458.3,638.52 32.65,-39.53 6.32,-10.94 -6.01,-3.58 c -3.03,4.77 -9.9,6.39 -14.05,3.99 -4.69,8.24 -16.8,29.38 -21.54,37.59 -3.41,5.48 -2.02,9.7 2.63,12.47 z" />
        <path
           inkscape:connector-curvature="0"
           id="path35116"
           sodipodi:nodetypes="ccsssccccccsssc"
           style="fill:#000000;stroke:#000000;stroke-width:1.57780004"
           d="m 497.46,587.71 4.42,-7.65 c 0.26,2.46 3.7,6 6.43,7.58 7.51,4.35 17.15,1.76 21.5,-5.76 4.35,-7.52 1.79,-17.16 -5.72,-21.51 -7.27,-4.21 -16.54,-1.94 -21.07,5.01 l -0.02,-0.01 -0.44,0.74 -10.78,18.11 5.68,3.49 z m 14.52,-6.41 c -4.03,-2.33 -5.41,-7.5 -3.08,-11.52 2.33,-4.02 7.5,-5.4 11.52,-3.08 4.02,2.33 5.38,7.49 3.05,11.51 -2.32,4.02 -7.47,5.42 -11.49,3.09 z" />
        <path
           inkscape:connector-curvature="0"
           id="path34288"
           sodipodi:nodetypes="ccccccc"
           style="fill:#dbe2e3;fill-rule:evenodd;stroke:#000000;stroke-width:1.49720001"
           d="m 506.14,638.43 -32.65,-39.52 -6.32,-10.94 5.43,-3.29 c 3.33,4.48 10.34,5.95 14.48,3.56 4.7,8.23 16.95,29.52 21.69,37.73 3.41,5.48 2.02,9.7 -2.63,12.46 z" />
        <path
           inkscape:connector-curvature="0"
           id="path53"
           sodipodi:nodetypes="ccsssccccccsssc"
           style="fill:#000000;stroke:#000000;stroke-width:1.57780004"
           d="m 467.04,587.76 -4.43,-7.66 c -0.26,2.47 -3.69,6 -6.42,7.58 -7.52,4.35 -17.15,1.76 -21.5,-5.75 -4.35,-7.52 -1.8,-17.17 5.72,-21.52 7.27,-4.2 16.53,-1.93 21.07,5.01 l 0.02,-0.01 0.43,0.75 10.65,18.39 -5.54,3.21 z m -14.52,-6.41 c 4.02,-2.33 5.4,-7.5 3.08,-11.52 -2.33,-4.02 -7.5,-5.41 -11.52,-3.08 -4.02,2.33 -5.38,7.49 -3.06,11.51 2.33,4.02 7.48,5.41 11.5,3.09 z" />
        <path
           inkscape:connector-curvature="0"
           id="path57"
           style="fill:#000000;stroke:#000000;stroke-width:0.98610002"
           d="m 482.37,593.22 c -2.09,0 -3.79,1.69 -3.79,3.78 0,2.09 1.7,3.79 3.79,3.79 2.09,0 3.78,-1.7 3.78,-3.79 0,-2.09 -1.69,-3.78 -3.78,-3.78" />
      </g>
      <g
         id="layer1-22"
         inkscape:label="Layer 1"
         transform="matrix(0.09185746,0.0726304,-0.12128789,0.08433884,2027.6681,24.115909)">
        <path
           inkscape:connector-curvature="0"
           id="path2160"
           sodipodi:nodetypes="ccccc"
           style="fill:#000000;fill-rule:evenodd;stroke:#000000;stroke-width:1.20930004px"
           sodipodi:insensitive="true"
           d="m 5.819,327.04 144.34,-0.91 c 65.43,-330.51 201.74,30.61 243.31,-269.6 l -75.06,2.717 c -6.63,207.32 -207.84,-73.623 -312.59,267.79 z" />
        <path
           inkscape:connector-curvature="0"
           id="path2258"
           sodipodi:nodetypes="ccccc"
           style="fill:#ffffff;fill-rule:evenodd;stroke:#000000;stroke-width:1.16680002px"
           d="m 12.105,319.78 132.68,-0.38 c 71.64,-323.88 203.28,28.21 243.86,-258.04 l -66.49,2.107 c -8.9,202.54 -208.26,-66.805 -310.04,256.31 z" />
        <path
           inkscape:connector-curvature="0"
           id="path2264"
           sodipodi:nodetypes="ccccc"
           style="fill:#000000;fill-rule:evenodd;stroke:#000000;stroke-width:1.04910004px"
           sodipodi:insensitive="true"
           d="m 17.869,321.3 118.33,-1.34 c 67.88,-328.3 213.83,15.92 248.13,-259.62 l -57.6,1.037 c -11.55,215.97 -203.39,-61.615 -308.86,259.92 z" />
        <path
           inkscape:connector-curvature="0"
           id="path2272"
           style="fill:none;stroke:#000000;stroke-width:8"
           d="m 319.26,73.943 68.42,-0.485" />
        <use
           id="use3245"
           xlink:href="#path2272"
           transform="translate(-1.9408,14.071)"
           height="400"
           width="400"
           y="0"
           x="0" />
        <use
           id="use3247"
           xlink:href="#use3245"
           transform="translate(-3.3964,14.071)"
           height="400"
           width="400"
           y="0"
           x="0" />
        <use
           id="use3249"
           xlink:href="#use3245"
           transform="matrix(1.0317,0,0,1,-18.196,28.142)"
           height="400"
           width="400"
           y="0"
           x="0" />
        <use
           id="use3251"
           xlink:href="#use3245"
           transform="matrix(1.0697,0.015926,-0.017039,0.99987,-36.839,36.14)"
           height="400"
           width="400"
           y="0"
           x="0" />
        <path
           inkscape:connector-curvature="0"
           id="path3275"
           sodipodi:nodetypes="ccccc"
           style="fill:#000000;fill-rule:evenodd;stroke:#000000;stroke-width:1px"
           d="m 229.99,145.75 113.53,33 5.34,-4.37 -109.65,-29.11 -9.22,0.48 z" />
        <path
           inkscape:connector-curvature="0"
           id="path3277"
           sodipodi:nodetypes="ccccc"
           style="fill:#000000;fill-rule:evenodd;stroke:#000000;stroke-width:1px"
           d="m 257.16,146.24 100.92,21.83 2.91,-6.06 -95.58,-16.26 -8.25,0.49 z" />
        <path
           inkscape:connector-curvature="0"
           id="path3281"
           sodipodi:nodetypes="ccccc"
           style="fill:#000000;fill-rule:evenodd;stroke:#000000;stroke-width:1px"
           d="m 279.62,143.71 87.72,8.42 4.8,-9.16 -78.34,-3.8 -14.18,4.54 z" />
        <path
           inkscape:connector-curvature="0"
           id="path3283"
           sodipodi:nodetypes="ccccc"
           style="fill:#000000;fill-rule:evenodd;stroke:#000000;stroke-width:1px"
           d="m 224.16,147.45 104.32,37.85 8.49,-1.7 -107.95,-36.88 -4.86,0.73 z" />
        <path
           inkscape:connector-curvature="0"
           id="path3285"
           sodipodi:nodetypes="ccccc"
           style="fill:#000000;fill-rule:evenodd;stroke:#000000;stroke-width:1px"
           d="m 150.66,148.91 93.64,23.29 8.98,-0.25 -96.07,-24.5 -6.55,1.46 z" />
        <path
           inkscape:connector-curvature="0"
           id="path3287-7"
           sodipodi:nodetypes="ccccc"
           style="fill:#000000;fill-rule:evenodd;stroke:#000000;stroke-width:1px"
           d="m 179.04,145.51 86.85,28.38 16.01,4.37 -93.64,-33.48 -9.22,0.73 z" />
        <path
           inkscape:connector-curvature="0"
           id="path3289-6"
           sodipodi:nodetypes="ccccc"
           style="fill:#000000;fill-rule:evenodd;stroke:#000000;stroke-width:1px"
           d="m 203.3,145.51 94.86,35.91 18.44,3.15 -109.18,-39.3 -4.12,0.24 z" />
        <path
           inkscape:connector-curvature="0"
           id="path3291-1"
           style="fill:#000000;fill-rule:evenodd;stroke:#000000;stroke-width:1px"
           d="m 231.44,174.87 -89.28,-23.78 -12.13,3.4 87.83,24.74 13.58,-4.36 z" />
        <path
           inkscape:connector-curvature="0"
           id="path3293"
           style="fill:#000000;fill-rule:evenodd;stroke:#000000;stroke-width:1px"
           d="m 210.58,184.57 -88.31,-27.17 -13.1,6.79 93.16,25.72 8.25,-5.34 z" />
        <path
           inkscape:connector-curvature="0"
           id="path3295-8"
           sodipodi:nodetypes="ccccc"
           style="fill:#000000;fill-rule:evenodd;stroke:#000000;stroke-width:1px"
           d="m 195.54,196.7 -91.71,-26.2 -8.245,3.88 91.705,27.66 8.25,-5.34 z" />
        <path
           inkscape:connector-curvature="0"
           id="path3297"
           sodipodi:nodetypes="ccccc"
           style="fill:#000000;fill-rule:evenodd;stroke:#000000;stroke-width:1px"
           d="m 184.38,211.26 -100.44,-28.15 -4.852,6.31 102.38,27.66 2.91,-5.82 z" />
        <path
           inkscape:connector-curvature="0"
           id="path2184"
           sodipodi:nodetypes="ccccc"
           style="fill:#000000;fill-rule:evenodd;stroke:#000000;stroke-width:1px"
           d="m 70.355,200.1 103.34,27.65 -1.45,8.25 -109.17,-30.08 7.275,-5.82 z" />
        <path
           inkscape:connector-curvature="0"
           id="path2186"
           sodipodi:nodetypes="ccccc"
           style="fill:#000000;fill-rule:evenodd;stroke:#000000;stroke-width:1px"
           d="m 58.71,214.65 107.71,33.97 -3.39,10.67 -109.17,-36.39 4.85,-8.25 z" />
        <path
           inkscape:connector-curvature="0"
           id="path2188"
           sodipodi:nodetypes="ccccc"
           style="fill:#000000;fill-rule:evenodd;stroke:#000000;stroke-width:1px"
           d="m 46.094,235.52 110.15,36.39 -2.43,10.19 -113.05,-39.31 5.334,-7.27 z" />
        <path
           inkscape:connector-curvature="0"
           id="path2190"
           sodipodi:nodetypes="ccccc"
           style="fill:#000000;fill-rule:evenodd;stroke:#000000;stroke-width:1px"
           d="m 34.449,254.92 c 38.817,14.07 77.631,35.98 116.45,42.22 l -0.97,7.76 c -47.87,-7.82 -78.928,-26.85 -118.39,-40.27 l 2.909,-9.71 z" />
        <path
           inkscape:connector-curvature="0"
           id="path2192"
           sodipodi:nodetypes="ccccc"
           style="fill:#000000;fill-rule:evenodd;stroke:#000000;stroke-width:1px"
           d="m 26.201,276.27 c 40.11,13.91 71.691,36.35 120.33,41.73 l 0,3.88 -124.21,-35.42 3.881,-10.19 z" />
        <path
           inkscape:connector-curvature="0"
           id="path2194"
           sodipodi:nodetypes="ccccc"
           style="fill:#000000;fill-rule:evenodd;stroke:#000000;stroke-width:1px"
           d="m 17.953,297.14 87.817,20.38 0.49,3.88 -92.189,-14.56 3.882,-9.7 z" />
        <path
           inkscape:connector-curvature="0"
           id="path2196"
           sodipodi:nodetypes="ccccc"
           style="fill:none;stroke:#ffffff;stroke-width:1px;stroke-opacity:0.94118"
           d="m 23.775,320.43 109.18,-0.97 c 2.54,-19.54 6.36,-34.04 10.18,-48.52 l -99.472,-3.4 c -7.549,13.96 -13.57,34.02 -19.893,52.89 z" />
        <path
           inkscape:connector-curvature="0"
           id="path3170"
           sodipodi:nodetypes="ccccc"
           style="fill:none;stroke:#ffffff;stroke-width:1px;stroke-opacity:0.94118"
           d="m 47.55,260.26 97.53,2.91 c 4.9,-16.79 11.94,-32.52 19.4,-48.03 L 79.088,207.86 C 61.479,231.54 55.21,245.29 47.55,260.26 Z" />
        <path
           inkscape:connector-curvature="0"
           id="path3172"
           sodipodi:nodetypes="ccccc"
           style="fill:#552200;fill-rule:evenodd;stroke:#ffffff;stroke-width:1px;stroke-opacity:0.94118"
           d="m 47.55,260.26 97.53,2.91 c 4.9,-16.79 11.94,-32.52 19.4,-48.03 L 79.088,207.86 C 61.479,231.54 55.21,245.29 47.55,260.26 Z" />
        <path
           inkscape:connector-curvature="0"
           id="path3174"
           sodipodi:nodetypes="ccccc"
           style="fill:#803300;fill-rule:evenodd;stroke:#ffffff;stroke-width:1px;stroke-opacity:0.94118"
           d="m 81.999,203.01 84.421,7.28 c 11.7,-21.16 28.44,-31.07 40.28,-39.79 l -62.59,-9.71 c -19.07,5.73 -50.569,28.7 -62.111,42.22 z" />
        <path
           inkscape:connector-curvature="0"
           id="path3176"
           sodipodi:nodetypes="ccccc"
           style="fill:#aa4400;fill-rule:evenodd;stroke:#ffffff;stroke-width:1px;stroke-opacity:0.94118"
           d="m 152.27,158.37 58.23,10.19 c 21.4,-6.12 20.67,-8.26 51.43,-3.88 L 216.32,154 c -19.07,0.87 -39.41,-0.9 -64.05,4.37 z" />
        <path
           inkscape:connector-curvature="0"
           id="path3180"
           sodipodi:nodetypes="ccccc"
           style="fill:#803300;fill-rule:evenodd;stroke:#ffffff;stroke-width:1px"
           d="m 233.87,154 51.43,15.53 c 32.59,5.65 43.16,5.86 62.11,-10.19 L 299.37,144.3 c -13.88,9.48 -33.56,14.4 -65.5,9.7 z" />
        <path
           inkscape:connector-curvature="0"
           id="path4151-5"
           sodipodi:nodetypes="ccccc"
           style="fill:#552200;fill-rule:evenodd;stroke:#ffffff;stroke-width:1px;stroke-opacity:0.94118"
           d="m 302.77,141.39 48.03,14.55 c 8.44,-10.05 15.58,-24.14 19.9,-40.75 l -48.52,-5.83 c -4.51,13.6 -7.5,19.57 -19.41,32.03 z" />
        <path
           inkscape:connector-curvature="0"
           id="path5122"
           sodipodi:nodetypes="ccccc"
           style="fill:#2b1100;fill-rule:evenodd;stroke:#ffffff;stroke-width:1px"
           d="m 323.63,104.51 48.52,4.37 c 5.1,-17.853 6.99,-31.425 8.25,-44.156 l -50.95,0.485 c -0.71,14.325 -2.52,27.563 -5.82,39.301 z" />
      </g>
      <g
         id="layer1-35"
         inkscape:label="Capa 1"
         transform="matrix(0.19701065,0,0,0.19701065,1990.6513,-39.654043)">
        <g
           id="g3898"
           transform="translate(187.37,1052.2)">
          <circle
             r="101"
             cy="-458.63782"
             cx="73"
             id="path3876"
             style="fill:#2e3436"
             transform="matrix(0.85294,0,0,0.85294,101.52,-96.259)" />
          <circle
             r="101"
             cy="-458.63782"
             cx="73"
             id="path3874"
             style="fill:none;stroke:url(#linearGradient7893);stroke-width:2;stroke-linejoin:round"
             transform="matrix(0.65162,0.36922,-0.36922,0.65162,-52.417,-218.37)" />
          <circle
             r="101"
             cy="-458.63782"
             cx="73"
             id="path3886"
             style="fill:none;stroke:url(#linearGradient7895);stroke-width:2;stroke-linejoin:round"
             transform="matrix(0.59735,0.33847,-0.33847,0.59735,-34.351,-241.02)" />
          <circle
             r="101"
             cy="-458.63782"
             cx="73"
             id="path3890"
             style="fill:none;stroke:url(#linearGradient7897);stroke-width:2;stroke-linejoin:round"
             transform="matrix(0.53704,0.3043,-0.3043,0.53704,-14.277,-266.18)" />
          <circle
             r="101"
             cy="-458.63782"
             cx="73"
             id="path3894"
             style="fill:none;stroke:url(#linearGradient16802);stroke-width:2;stroke-linejoin:round"
             transform="matrix(0.45865,0.25988,-0.25988,0.45865,11.818,-298.9)" />
        </g>
        <path
           inkscape:connector-curvature="0"
           id="path2846"
           style="fill:url(#linearGradient3859)"
           d="m 349.56,440.37 c -67.26,0 -121.78,54.521 -121.78,121.78 0,67.26 54.521,121.78 121.78,121.78 67.26,0 121.78,-54.521 121.78,-121.78 0,-67.26 -54.521,-121.78 -121.78,-121.78 z m 0,15.75 c 14.403,0 26.094,11.66 26.094,26.062 0,14.403 -11.691,26.094 -26.094,26.094 -14.403,0 -26.094,-11.691 -26.094,-26.094 0,-14.403 11.691,-26.062 26.094,-26.062 z m -69.812,39.969 c 4.6114,-0.10641 9.3061,0.99325 13.594,3.4688 12.473,7.2015 16.764,23.183 9.5625,35.656 -7.2015,12.473 -23.183,16.733 -35.656,9.5312 -12.473,-7.2015 -16.701,-23.12 -9.5,-35.594 4.726,-8.1856 13.196,-12.859 22,-13.062 z m 138.31,0 c 9.2536,-0.23881 18.362,4.4871 23.312,13.062 7.2015,12.473 2.9108,28.424 -9.5625,35.625 -12.473,7.2015 -28.424,2.9421 -35.625,-9.5312 -7.2015,-12.473 -2.9421,-28.486 9.5312,-35.688 3.8979,-2.2505 8.1376,-3.3602 12.344,-3.4688 z m -79.375,39.625 c 2.8324,-0.0736 5.6399,1.3737 7.1562,4 2.2056,3.8201 0.88263,8.7007 -2.9375,10.906 -3.8201,2.2056 -8.7007,0.91389 -10.906,-2.9062 -2.2056,-3.8201 -0.91388,-8.732 2.9062,-10.938 1.1938,-0.68924 2.4938,-1.0291 3.7812,-1.0625 z m 21.344,0 c 1.4108,-0.0301 2.8431,0.30433 4.1562,1.0625 3.8201,2.2056 5.1431,7.1174 2.9375,10.938 -2.2056,3.8201 -7.0861,5.1118 -10.906,2.9062 -3.8201,-2.2056 -5.1431,-7.0861 -2.9375,-10.906 0.68923,-1.1938 1.6517,-2.1398 2.75,-2.8125 1.2081,-0.73997 2.5892,-1.1574 4,-1.1875 z m -31.75,18.438 c 4.4111,-1e-5 7.9688,3.5889 7.9688,8 0,4.4111 -3.5576,8 -7.9688,8 -4.4111,0 -8,-3.5889 -8,-8 0,-3.0326 1.6665,-5.6788 4.1562,-7.0312 1.1317,-0.61478 2.4653,-0.96876 3.8438,-0.96875 z m 42.562,0 c 4.4111,0 8,3.5889 8,8 10e-6,4.4111 -3.5889,8 -8,8 -4.4111,10e-6 -7.9688,-3.5889 -7.9688,-8 -1e-5,-3.0326 1.6977,-5.6788 4.1875,-7.0312 1.1317,-0.61477 2.4028,-0.96875 3.7812,-0.96875 z m -32.094,18.469 c 1.418,-0.0343 2.8431,0.30434 4.1562,1.0625 3.8201,2.2056 5.1431,7.0861 2.9375,10.906 -2.2056,3.8201 -7.0861,5.1431 -10.906,2.9375 -3.8201,-2.2056 -5.143,-7.1174 -2.9375,-10.938 0.68924,-1.1938 1.6205,-2.1086 2.7188,-2.7812 1.2081,-0.73997 2.6133,-1.1532 4.0312,-1.1875 z m 21.25,0 c 2.8324,-0.0736 5.6087,1.3424 7.125,3.9688 2.2056,3.8201 0.91388,8.7319 -2.9062,10.938 -3.8201,2.2056 -8.732,0.88264 -10.938,-2.9375 -2.2056,-3.8201 -0.88263,-8.7007 2.9375,-10.906 1.1938,-0.68923 2.4938,-1.0291 3.7812,-1.0625 z m -80.406,3.4062 c 9.2536,-0.2388 18.361,4.4871 23.312,13.062 7.2015,12.473 2.9108,28.455 -9.5625,35.656 -12.473,7.2015 -28.392,2.8796 -35.594,-9.5938 -7.2015,-12.473 -2.9733,-28.424 9.5,-35.625 3.8979,-2.2505 8.1376,-3.3914 12.344,-3.5 z m 138.62,0 c 4.6154,-0.10407 9.3061,1.0245 13.594,3.5 12.473,7.2015 16.764,23.152 9.5625,35.625 -7.2015,12.473 -23.183,16.764 -35.656,9.5625 -12.473,-7.2015 -16.733,-23.183 -9.5312,-35.656 4.726,-8.1856 13.22,-12.833 22.031,-13.031 z m -68.656,39.969 c 14.403,0 26.094,11.691 26.094,26.094 0,14.403 -11.691,26.094 -26.094,26.094 -14.403,0 -26.094,-11.691 -26.094,-26.094 0,-14.403 11.691,-26.094 26.094,-26.094 z" />
        <path
           inkscape:connector-curvature="0"
           id="path3644"
           style="fill:url(#linearGradient3850)"
           d="m 349.54,528.19 c -18.766,0 -33.969,15.203 -33.969,33.969 0,18.766 15.203,33.969 33.969,33.969 18.766,0 34,-15.203 34,-33.969 0,-18.766 -15.234,-33.969 -34,-33.969 z m -10.875,7.5312 c 2.8324,-0.0736 5.6399,1.3737 7.1562,4 2.2056,3.8201 0.88263,8.7007 -2.9375,10.906 -3.8201,2.2056 -8.7007,0.91389 -10.906,-2.9062 -2.2056,-3.8201 -0.91388,-8.732 2.9062,-10.938 1.1938,-0.68924 2.4938,-1.0291 3.7812,-1.0625 z m 21.344,0 c 1.4108,-0.0302 2.8431,0.30433 4.1562,1.0625 3.8201,2.2056 5.1431,7.1174 2.9375,10.938 -2.2056,3.8201 -7.0861,5.1118 -10.906,2.9062 -3.8201,-2.2056 -5.1431,-7.0861 -2.9375,-10.906 0.68923,-1.1938 1.6517,-2.1398 2.75,-2.8125 1.2081,-0.73997 2.5892,-1.1574 4,-1.1875 z m -31.75,18.438 c 4.4111,-1e-5 7.9688,3.5889 7.9688,8 0,4.4111 -3.5576,8 -7.9688,8 -4.4111,0 -8,-3.5889 -8,-8 0,-3.0326 1.6665,-5.6788 4.1562,-7.0312 1.1317,-0.61478 2.4653,-0.96876 3.8438,-0.96875 z m 42.562,0 c 4.4111,0 8,3.5889 8,8 10e-6,4.4111 -3.5889,8 -8,8 -4.4111,10e-6 -7.9688,-3.5889 -7.9688,-8 -10e-6,-3.0326 1.6977,-5.6788 4.1875,-7.0312 1.1317,-0.61477 2.4028,-0.96875 3.7812,-0.96875 z m -32.094,18.469 c 1.418,-0.0343 2.8431,0.30434 4.1562,1.0625 3.8201,2.2056 5.1431,7.0861 2.9375,10.906 -2.2056,3.8201 -7.0861,5.1431 -10.906,2.9375 -3.8201,-2.2056 -5.143,-7.1174 -2.9375,-10.938 0.68924,-1.1938 1.6205,-2.1086 2.7188,-2.7812 1.2081,-0.73997 2.6133,-1.1532 4.0312,-1.1875 z m 21.25,0 c 2.8324,-0.0736 5.6087,1.3424 7.125,3.9688 2.2056,3.8201 0.91388,8.7319 -2.9062,10.938 -3.8201,2.2056 -8.732,0.88264 -10.938,-2.9375 -2.2056,-3.8201 -0.88263,-8.7007 2.9375,-10.906 1.1938,-0.68923 2.4938,-1.0291 3.7812,-1.0625 z" />
        <path
           inkscape:connector-curvature="0"
           id="path3809"
           style="opacity:0.8;fill:none;stroke:#eeeeec;stroke-width:2;stroke-linejoin:round"
           d="m 295.67,462.13 c -0.96676,0.0261 -1.9442,0.29313 -2.8438,0.8125 -2.8787,1.662 -3.8808,5.3088 -2.2188,8.1875 l 32.188,63.594 c -4.6199,4.636 -8.0546,10.463 -9.8125,16.969 l -71.156,3.9688 c -1.2465,0 -2.4177,0.35432 -3.375,1 -1.5955,1.0761 -2.625,2.9225 -2.625,5 0,3.324 2.676,6 6,6 l 71.156,3.9688 c 1.756,6.4992 5.1689,12.335 9.7812,16.969 l -32.125,63.594 c -1.662,2.8787 -0.69115,6.5255 2.1875,8.1875 2.8787,1.662 6.5255,0.69117 8.1875,-2.1875 l 38.969,-59.656 c 3.1346,0.83269 6.447,1.2812 9.8438,1.2812 3.3967,0 6.6779,-0.44856 9.8125,-1.2812 l 38.969,59.656 c 1.662,2.8787 5.3401,3.8495 8.2188,2.1875 2.8787,-1.662 3.8495,-5.3088 2.1875,-8.1875 l -32.156,-63.594 c 4.6127,-4.6337 8.0252,-10.469 9.7812,-16.969 l 71.188,-3.9688 c 3.324,0 5.9688,-2.676 5.9688,-6 -10e-6,-3.324 -2.6447,-6 -5.9688,-6 l -71.188,-3.9688 c -1.7561,-6.4995 -5.1686,-12.335 -9.7812,-16.969 l 32.156,-63.594 c 1.662,-2.8787 0.65991,-6.5255 -2.2188,-8.1875 -1.9791,-1.1426 -4.3118,-1.0507 -6.125,0.0625 -0.82419,0.50598 -1.5119,1.2254 -2.0312,2.125 l -39,59.656 c -3.1346,-0.83268 -6.4158,-1.2812 -9.8125,-1.2812 -3.3832,0 -6.6891,0.42372 -9.8125,1.25 l -39,-59.625 c -1.1426,-1.9791 -3.2169,-3.0574 -5.3438,-3 z m 54.125,65.312 c 18.898,0 34.219,15.32 34.219,34.219 0,18.898 -15.32,34.219 -34.219,34.219 -18.898,0 -34.188,-15.32 -34.188,-34.219 0,-18.898 15.289,-34.219 34.188,-34.219 z" />
        <path
           inkscape:connector-curvature="0"
           id="path3824"
           style="fill:url(#linearGradient3835)"
           d="m 288.5,454.83 c -58.83,33.97 -78.99,109.2 -45.02,168.03 33.96,58.83 109.19,78.98 168.02,45.02 58.83,-33.97 78.99,-109.19 45.02,-168.02 C 422.56,441.03 347.33,420.87 288.5,454.83 Z m 1.5,2.5981 c 57.4,-33.13 130.79,-13.47 163.92,43.93 33.14,57.39 13.48,130.78 -43.92,163.92 -57.4,33.14 -130.79,13.47 -163.92,-43.92 -33.14,-57.4 -13.48,-130.79 43.92,-163.93 z" />
        <path
           inkscape:connector-curvature="0"
           id="path3837"
           style="fill:url(#linearGradient3839)"
           d="M 287.75,453.54 C 347.3,419.16 423.44,439.56 457.82,499.11 492.2,558.65 471.8,634.8 412.25,669.18 352.7,703.56 276.56,683.15 242.18,623.61 207.8,564.06 228.2,487.91 287.75,453.54 Z m 1.5183,2.6298 c -58.095,33.541 -78,107.83 -44.459,165.92 33.541,58.095 107.83,78 165.92,44.459 58.095,-33.541 78,-107.83 44.459,-165.92 -33.541,-58.095 -107.83,-78 -165.92,-44.459 z" />
        <path
           inkscape:connector-curvature="0"
           id="path3863"
           sodipodi:nodetypes="ccccsccccsccsscccccscccsccccccccccccccsccs"
           style="opacity:0.8;fill:none;stroke:#888a85;stroke-width:2;stroke-linejoin:round"
           d="m 387.62,551.62 c -1.77,-6.4958 -5.1899,-12.345 -9.8125,-16.969 l 32,-63.656 c 1.6559,-2.8822 0.66346,-6.5316 -2.2188,-8.1875 -0.46555,-0.26746 -0.94486,-0.45882 -1.4375,-0.59375 m -18.531,89.406 m -26.438,-27.844 -0.625,0.96875 c -3.1364,-0.82598 -6.4158,-1.2572 -9.8125,-1.25 -3.3832,0.007 -6.6909,0.4483 -9.8125,1.2812 l -39.125,-59.562 c -1.1468,-1.9766 -3.217,-3.0307 -5.3438,-2.9688 -0.9667,0.0282 -1.9453,0.29121 -2.8438,0.8125 -0.31994,0.18563 -0.63358,0.39421 -0.90625,0.625 m 113.44,-1.4688 m -28.25,126.31 c 4.6028,-4.6435 8.0078,-10.465 9.75,-16.969 l 71.188,-4.125 c 3.324,-0.007 5.9446,-2.7072 5.9375,-6.0312 -0.007,-3.324 -2.6447,-5.9758 -5.9688,-5.9688 m -80.906,33.094 m -27,11.281 c 3.3967,-0.007 6.6796,-0.47312 9.8125,-1.3125 l 39.094,59.594 c 1.6682,2.8751 5.3436,3.8244 8.2188,2.1562 m -95.469,-88.594 1.4375,0.0625 c 1.7699,6.4954 5.1903,12.314 9.8125,16.938 l -31.969,63.656 c -1.6559,2.8822 -0.69469,6.5316 2.1875,8.1875 m 29.719,-125.75 0,0.0312 c -4.61,4.6459 -8.0373,10.49 -9.7812,17 l -71.156,4.0938 c -1.2465,0.003 -2.4191,0.38353 -3.375,1.0312 -1.5932,1.0795 -2.5982,2.9225 -2.5938,5 5.1e-4,0.24019 0.004,0.48615 0.0312,0.71875 m 113.84,-35.187 c 18.898,-0.0404 34.241,15.258 34.281,34.156 0.0404,18.898 -15.227,34.241 -34.125,34.281 -18.898,0.0404 -34.21,-15.258 -34.25,-34.156 -0.0404,-18.898 15.195,-34.241 34.094,-34.281 z" />
        <g
           id="g3948"
           transform="translate(329.37,838.22)">
          <circle
             r="11.313708"
             cy="-308.81836"
             cx="50.91169"
             id="path3913-0"
             style="opacity:0.5;fill:#888a85"
             transform="matrix(0.76641,0,0,0.76641,-16.858,-37.358)" />
          <circle
             r="11.313708"
             cy="-308.81836"
             cx="50.91169"
             id="path3934-4"
             style="fill:#ffffff"
             transform="matrix(0.68523,0,0,0.68523,-14.483,-65.069)" />
          <path
             inkscape:connector-curvature="0"
             id="path3915-1"
             style="fill:#2e3436"
             d="m 20.36,-282.36 c -2.9679,0 -5.3645,2.4246 -5.3645,5.3924 0,2.5342 1.7469,4.63 4.1072,5.1968 l 0,3.3249 2.5146,0 0,-3.3249 c 2.3603,-0.56678 4.1072,-2.6627 4.1072,-5.1968 0,-2.9679 -2.3966,-5.3924 -5.3645,-5.3924 z" />
          <path
             inkscape:connector-curvature="0"
             id="path3922-9"
             style="fill:url(#linearGradient3954)"
             d="m 17.587,-268.82 c -1.2648,-0.45501 -2.1696,-1.0387 -3.1867,-2.0559 -1.0473,-1.0473 -1.6005,-1.9199 -2.0556,-3.2427 -1.8399,-5.3477 2.2829,-11.14 7.9289,-11.14 2.3633,0 4.401,0.83221 6.0325,2.4638 1.6872,1.6872 2.4769,3.5851 2.4769,5.9533 0,2.4075 -0.79175,4.3046 -2.5288,6.0596 -0.92399,0.93346 -2.8876,2.0211 -3.9908,2.2104 l -0.5927,0.10173 0,-1.5731 0,-1.5731 0.5927,-0.18398 c 2.1023,-0.6526 3.6932,-3.1679 3.4572,-5.466 -0.20123,-1.9599 -1.4163,-3.6433 -3.2407,-4.4896 -1.2588,-0.58393 -3.0438,-0.58642 -4.2864,-0.006 -2.7914,1.3039 -3.9895,4.6822 -2.6193,7.3861 0.48126,0.94972 1.6999,2.0868 2.6582,2.4804 l 0.75016,0.30807 5.85e-4,1.541 c 6.79e-4,1.7648 0.02989,1.7392 -1.3962,1.2261 l 9e-6,0 z" />
        </g>
      </g>
    </g>
  </g>
</svg>
