<?xml version="1.0" standalone="no"?>
<!DOCTYPE svg PUBLIC "-//W3C//DTD SVG 20010904//EN"
 "http://www.w3.org/TR/2001/REC-SVG-20010904/DTD/svg10.dtd">
<svg version="1.0" xmlns="http://www.w3.org/2000/svg"
 width="1800.000000pt" height="1800.000000pt" viewBox="0 0 1800.000000 1800.000000"
 preserveAspectRatio="xMidYMid meet">
<metadata>
Created by potrace 1.12, written by Peter Selinger 2001-2015
</metadata>
<g transform="translate(0.000000,1800.000000) scale(0.100000,-0.100000)"
fill="#000000" stroke="none">
<path d="M0 17993 c0 -5 193 -7 429 -5 l429 2 -21 -52 c-31 -78 -30 -202 2
-290 14 -38 28 -68 32 -68 11 0 39 -89 45 -147 8 -61 -9 -165 -39 -245 l-22
-58 -401 0 c-488 0 -454 10 -454 -135 0 -52 4 -105 10 -119 6 -17 6 -26 0 -26
-7 0 -10 -688 -10 -1945 l0 -1945 35 0 c30 0 35 -3 35 -24 0 -14 4 -27 9 -30
5 -3 12 -33 16 -66 4 -33 11 -60 15 -60 5 0 12 -29 15 -65 4 -36 11 -65 15
-65 5 0 11 -27 15 -60 4 -33 11 -60 15 -60 4 0 11 -27 15 -60 4 -33 11 -60 15
-60 4 0 11 -27 15 -60 4 -33 11 -60 15 -60 4 0 11 -27 15 -60 4 -33 10 -60 14
-60 4 0 12 -38 19 -84 20 -153 333 -1062 563 -1637 517 -1294 1163 -2525 1926
-3667 90 -134 163 -248 163 -252 0 -18 56 -73 87 -86 45 -19 112 -17 153 4 19
10 118 69 219 131 101 62 191 116 200 119 9 3 71 39 137 79 67 40 124 73 127
73 4 0 59 32 124 71 65 39 127 75 139 79 40 16 94 71 105 110 16 53 4 102 -37
152 -39 46 -251 363 -386 578 -820 1302 -1475 2698 -1959 4174 -43 132 -78
241 -76 242 1 1 245 7 542 13 297 7 571 16 608 21 79 12 137 33 137 52 1 7 40
-97 89 -232 48 -135 127 -346 176 -470 48 -124 95 -253 105 -288 20 -70 48
-107 97 -128 44 -19 82 -18 123 4 38 19 149 52 330 97 36 9 88 23 115 30 28 8
79 21 115 30 36 9 101 27 145 40 44 13 108 31 143 39 273 69 335 91 371 131
17 19 33 52 37 72 9 45 -7 92 -145 432 -50 123 -91 226 -91 227 0 2 109 4 243
4 136 0 303 7 383 15 143 14 348 55 411 82 20 8 39 11 43 6 5 -4 43 -87 85
-183 336 -762 751 -1510 1219 -2200 265 -390 325 -461 404 -476 76 -15 81 -11
549 458 383 384 442 448 448 480 10 51 -2 94 -35 131 -47 54 -282 416 -428
660 -902 1503 -1490 3186 -1732 4956 -12 84 -20 155 -18 156 2 2 30 -8 63 -20
33 -13 113 -44 178 -69 235 -91 638 -301 827 -430 41 -29 109 -73 151 -98 l75
-47 33 -158 c262 -1275 751 -2528 1424 -3648 215 -358 415 -654 688 -1015 186
-247 189 -250 232 -250 61 0 70 28 71 209 1 115 -2 155 -11 158 -7 3 -13 16
-13 29 0 13 -4 24 -9 24 -5 0 -12 13 -16 30 -4 16 -11 32 -16 36 -22 13 -77
204 -95 334 -9 62 -9 71 1 120 11 50 12 118 3 165 -11 56 -41 145 -49 145 -4
0 -10 11 -13 25 -4 14 -10 25 -15 25 -12 0 -55 145 -77 255 -18 90 -21 154
-10 210 3 17 6 60 7 97 1 70 -13 110 -87 238 -17 30 -35 75 -38 100 -4 25 -18
94 -32 154 -22 92 -24 121 -18 180 5 39 7 100 5 136 -3 57 -9 76 -52 150 -27
47 -58 100 -70 118 -38 57 -12 34 65 -59 113 -138 153 -237 175 -432 12 -101
32 -143 113 -241 18 -21 60 -66 93 -100 132 -135 197 -241 219 -353 33 -167
76 -244 214 -379 48 -47 118 -115 155 -152 63 -62 138 -155 127 -158 -3 -1 2
-10 11 -20 13 -16 25 -37 34 -64 4 -12 17 -46 25 -65 12 -28 23 -59 24 -65 1
-3 16 -30 34 -61 45 -79 128 -164 267 -274 126 -100 270 -235 270 -254 0 -3
15 -26 34 -51 35 -48 64 -98 67 -117 8 -46 180 -234 265 -289 24 -16 83 -57
131 -91 48 -35 91 -63 94 -63 19 0 200 -155 284 -244 77 -81 107 -96 194 -96
112 0 166 36 192 130 9 30 38 125 65 212 49 154 70 284 73 460 1 52 -19 82
-71 104 -17 8 -49 25 -70 40 -34 23 -45 25 -117 22 -74 -3 -80 -2 -97 22 -10
14 -25 58 -34 98 -17 82 -54 161 -131 278 -82 124 -169 194 -293 235 -36 12
-84 33 -105 47 -22 13 -67 38 -100 53 -57 27 -69 29 -183 29 -67 0 -134 5
-148 10 -15 6 -71 44 -126 86 -140 108 -263 273 -276 373 -4 32 6 59 75 192
44 85 98 199 120 254 69 171 112 284 112 296 0 7 50 -62 111 -152 626 -924
1414 -1712 2326 -2326 160 -108 199 -123 261 -105 47 15 111 77 142 138 13 27
54 100 92 162 37 62 68 115 68 119 0 3 29 53 64 112 66 110 91 154 157 279 42
80 49 129 25 186 -16 40 -30 50 -231 183 -373 245 -703 514 -1049 853 -305
299 -535 561 -777 885 -103 139 -349 496 -349 507 0 2 33 3 72 3 40 0 119 8
175 19 154 28 370 20 473 -18 41 -14 101 -34 134 -42 32 -8 86 -28 121 -45
108 -51 135 -42 261 85 70 72 94 103 99 129 9 47 -2 91 -29 125 -12 15 -33 50
-46 77 -38 80 -96 152 -226 280 -67 66 -137 141 -157 167 -38 51 -80 165 -97
268 -25 143 -75 241 -177 346 -13 13 -23 26 -23 29 0 3 -10 16 -22 29 -43 43
-66 74 -73 95 -3 12 -10 21 -14 21 -10 0 -29 44 -42 97 -6 21 -14 101 -19 178
-5 77 -14 156 -21 175 -15 45 -100 190 -111 190 -4 0 -8 5 -8 10 0 6 -9 20
-19 31 -11 12 -30 42 -43 67 -12 26 -25 49 -28 52 -4 3 -12 24 -19 48 -10 35
-10 74 0 195 14 174 8 220 -42 320 -43 87 -61 121 -68 127 -13 11 -41 73 -41
90 0 10 -5 20 -12 22 -8 3 -11 39 -10 119 1 91 -2 126 -19 176 -23 71 -69 118
-121 128 -18 3 -239 5 -490 3 -443 -3 -457 -4 -484 -24 -61 -45 -72 -78 -91
-271 -6 -61 13 -183 28 -183 4 0 10 -13 14 -30 4 -16 10 -32 15 -35 8 -5 71
-131 85 -170 22 -60 22 -106 3 -230 -31 -203 -20 -254 95 -439 110 -178 120
-212 110 -404 -4 -82 -2 -130 7 -158 16 -50 53 -128 63 -132 4 -2 7 -8 7 -13
0 -8 20 -35 48 -64 6 -8 12 -16 12 -19 0 -6 24 -36 48 -61 6 -8 12 -18 12 -24
0 -6 4 -11 9 -11 5 0 13 -10 17 -22 3 -12 12 -27 18 -34 24 -23 56 -164 56
-247 0 -34 5 -82 10 -107 9 -41 48 -138 60 -150 3 -3 16 -21 30 -40 23 -33 36
-49 122 -143 20 -22 49 -65 64 -96 15 -31 45 -86 67 -123 31 -54 42 -86 52
-157 8 -50 19 -99 24 -110 6 -11 11 -22 11 -24 0 -2 -27 -21 -59 -41 -85 -52
-160 -133 -206 -223 -55 -107 -89 -130 -145 -98 -39 23 -76 18 -112 -14 -42
-37 -96 -126 -120 -198 -10 -32 -22 -59 -26 -63 -4 -3 -19 -30 -34 -60 -15
-30 -38 -72 -51 -93 l-23 -38 -17 39 c-9 21 -24 76 -33 122 -29 157 -79 248
-213 393 -100 107 -156 184 -180 244 -10 26 -26 104 -35 172 -10 72 -27 148
-41 183 -25 62 -95 171 -127 199 -10 9 -18 20 -18 25 0 5 -9 16 -20 24 -11 8
-20 18 -20 23 0 4 -11 20 -25 35 -14 15 -25 31 -25 36 0 5 -6 17 -14 25 -27
32 -38 90 -46 241 -7 149 -30 270 -52 270 -4 0 -8 6 -8 13 0 8 -18 39 -40 71
-22 31 -40 59 -40 62 0 3 -9 14 -19 25 -11 12 -30 42 -43 67 -12 26 -26 50
-31 53 -4 3 -13 31 -19 62 -9 44 -9 82 0 164 18 166 -3 296 -56 346 -56 54
-110 59 -222 22 -41 -13 -127 -40 -190 -59 -63 -20 -169 -52 -235 -72 -66 -20
-172 -52 -235 -72 -63 -19 -146 -44 -185 -56 -81 -25 -143 -67 -168 -116 -27
-52 -19 -158 18 -236 16 -32 32 -61 35 -64 7 -7 28 -41 37 -60 4 -8 15 -23 24
-33 31 -34 88 -161 98 -222 6 -33 10 -123 8 -200 -2 -134 -1 -142 25 -195 15
-30 76 -115 137 -189 60 -74 107 -139 104 -145 -4 -5 -25 13 -47 40 -22 27
-75 85 -118 129 -43 44 -103 117 -135 162 -32 44 -82 114 -110 153 -29 40 -51
75 -49 79 3 4 -18 40 -45 80 -27 41 -49 77 -49 81 0 17 -211 192 -278 230
-129 74 -415 283 -507 371 -102 98 -162 152 -220 200 -49 40 -63 58 -75 96 -7
27 -29 75 -47 108 -19 33 -39 71 -46 85 -6 14 -14 27 -18 30 -20 16 -50 138
-48 197 2 58 20 150 33 172 3 5 8 42 12 82 5 73 -12 189 -28 189 -4 0 -8 6 -8
13 0 6 -16 43 -35 81 -19 39 -35 76 -35 83 0 7 -4 13 -9 13 -4 0 -13 31 -19
68 -13 75 0 171 32 247 18 43 22 63 32 166 5 45 3 68 -5 73 -6 4 -11 16 -11
27 0 11 -16 61 -35 110 -19 50 -35 93 -35 95 0 2 248 4 551 4 427 0 553 -3
563 -12 18 -19 61 -132 81 -212 15 -60 16 -79 5 -140 -6 -39 -25 -107 -42
-151 -27 -70 -29 -88 -24 -145 7 -68 52 -210 67 -210 5 0 9 -5 9 -11 0 -6 11
-33 25 -61 14 -27 25 -57 25 -67 0 -9 5 -22 11 -28 17 -17 13 -149 -6 -226
-39 -154 -36 -211 14 -337 26 -65 54 -97 98 -116 46 -20 81 -17 138 11 28 13
59 24 70 25 11 0 67 15 125 34 58 18 157 50 220 69 63 19 167 51 230 70 63 19
149 45 190 57 92 27 146 77 180 167 19 49 21 72 17 148 -3 51 -12 107 -22 130
-18 42 -60 130 -75 155 -40 68 -63 164 -54 233 6 50 30 139 61 222 21 57 8
140 -43 273 -24 63 -44 116 -44 118 0 2 750 4 1668 4 l1667 -1 32 -67 c81
-169 91 -235 58 -396 -3 -16 -8 -33 -11 -38 -6 -10 -14 -57 -18 -108 -2 -40 9
-103 26 -140 31 -69 43 -95 49 -100 11 -10 69 -111 69 -120 0 -6 5 -10 10 -10
6 0 10 -6 10 -13 0 -8 8 -29 18 -48 14 -28 17 -63 18 -209 0 -237 18 -286 168
-470 94 -115 122 -170 137 -274 6 -39 15 -99 20 -134 5 -34 13 -70 18 -80 5
-9 17 -35 26 -58 23 -57 69 -113 214 -261 111 -114 151 -168 180 -242 11 -28
25 -58 31 -68 5 -10 17 -44 25 -75 9 -31 25 -68 36 -81 10 -14 19 -30 19 -36
0 -14 166 -181 215 -217 182 -131 371 -305 431 -399 10 -16 26 -37 34 -47 8
-9 26 -31 40 -48 53 -67 203 -200 225 -200 5 0 22 -10 39 -23 17 -13 38 -27
46 -30 8 -4 29 -15 45 -25 17 -10 93 -52 170 -92 251 -131 335 -177 495 -271
338 -200 537 -282 908 -374 252 -62 622 -123 777 -128 33 -1 142 -1 243 1
l182 2 -1 608 c-1 429 -4 599 -11 578 l-10 -28 -112 6 c-241 15 -494 55 -701
112 -153 42 -458 150 -655 232 -266 109 -314 130 -419 184 l-114 58 -669 0
-668 0 0 733 0 732 -40 45 c-22 25 -40 48 -40 52 0 4 -6 13 -14 20 -16 17 -55
91 -63 122 -3 11 -8 73 -10 136 -4 121 -21 188 -71 280 -29 54 -63 104 -74
108 -4 2 -8 10 -8 18 0 8 -3 14 -7 14 -9 0 -34 41 -71 115 -34 68 -41 178 -17
279 13 55 16 97 12 153 -5 69 -34 170 -57 198 -5 6 -16 30 -26 55 -10 25 -22
48 -26 51 -5 3 -16 43 -23 88 -15 86 -11 134 20 207 l14 34 546 0 c535 0 545
0 535 -19 -5 -11 -17 -45 -25 -77 -21 -80 -6 -171 44 -267 l38 -72 458 -3
c444 -2 458 -2 442 16 -10 10 -17 24 -17 30 0 6 -6 17 -12 24 -17 17 -43 73
-58 123 -15 50 -8 158 13 208 l16 37 425 0 424 0 -17 -47 c-9 -27 -16 -71 -15
-99 1 -53 32 -154 46 -154 4 0 8 -7 8 -15 0 -8 5 -15 10 -15 6 0 10 -6 10 -13
0 -7 9 -19 20 -27 11 -8 20 -19 20 -24 0 -5 10 -17 22 -27 19 -18 42 -19 295
-19 l273 0 0 -274 0 -274 46 -16 c25 -8 94 -23 152 -32 59 -10 109 -21 112
-25 3 -5 16 -6 28 -2 l22 5 0 534 0 534 -9000 0 c-4950 0 -9000 -3 -9000 -7z
m13525 -268 c19 -49 16 -68 -14 -85 -18 -9 -23 -7 -33 15 -9 19 -9 28 0 37 16
16 15 29 -2 22 -13 -5 -23 -25 -32 -68 -4 -17 -38 -54 -53 -57 -50 -11 -70 -2
-85 36 -21 52 -10 82 36 98 13 4 22 -2 32 -21 9 -15 16 -25 16 -22 1 3 3 16 6
29 6 34 42 61 80 61 29 0 34 -4 49 -45z m-9959 -67 c3 -13 12 -30 19 -38 32
-38 58 -136 61 -229 3 -85 0 -102 -27 -173 -34 -88 -44 -135 -44 -221 l0 -57
-58 0 c-32 0 -90 6 -130 14 -87 18 -326 43 -535 56 -85 5 -159 13 -165 17 -11
7 -125 15 -419 29 l-138 7 0 27 c0 16 15 68 34 116 31 82 34 97 32 184 -3 94
-28 191 -61 230 -7 8 -16 25 -19 38 l-7 22 725 0 725 0 7 -22z m2518 9 c21
-20 73 -167 85 -239 11 -67 6 -118 -20 -184 -6 -16 -12 -38 -14 -49 -2 -11 -9
-38 -18 -60 -17 -46 -22 -176 -8 -202 6 -10 17 -42 26 -70 9 -29 21 -53 26
-53 5 0 9 -5 9 -11 0 -5 11 -34 24 -62 39 -85 52 -172 37 -259 -2 -13 -19 -9
-69 13 -26 12 -83 32 -127 44 -44 12 -114 31 -155 43 -118 33 -246 63 -355 83
-55 10 -127 25 -160 34 -33 8 -125 24 -205 35 -80 10 -174 26 -210 34 -36 8
-112 20 -169 27 l-103 12 -15 36 c-7 20 -18 45 -23 56 -27 61 -29 163 -4 236
10 30 17 58 16 62 -1 4 2 16 8 27 28 53 40 133 29 204 -11 72 -65 228 -81 234
-46 18 75 22 728 22 580 0 738 -3 748 -13z m7455 -104 c29 -25 34 -66 10 -92
-25 -27 -35 -26 -50 1 -10 18 -8 24 12 40 l24 18 -25 -9 c-14 -5 -45 -18 -70
-29 -38 -18 -40 -20 -14 -15 26 4 32 1 37 -18 8 -30 1 -39 -30 -39 -25 0 -62
31 -64 54 -4 39 12 58 73 85 55 25 71 25 97 4z m89 -188 c23 -49 3 -75 -81
-108 -37 -15 -71 -27 -75 -27 -12 0 -43 96 -36 113 10 28 80 38 97 14 5 -7 7
-3 4 11 -11 48 69 46 91 -3z m58 -150 c3 -19 10 -35 14 -35 14 0 18 -36 6 -52
-15 -20 -157 -81 -167 -71 -4 4 -10 17 -13 29 -6 19 2 24 69 50 41 16 75 34
75 41 0 8 -28 0 -79 -21 l-79 -34 -11 25 c-7 14 -9 28 -6 32 9 8 157 69 172
70 7 1 15 -15 19 -34z m-12466 -145 c63 -4 180 -13 260 -19 80 -6 261 -15 403
-20 141 -4 259 -10 261 -12 2 -2 8 -66 12 -142 l9 -138 -110 5 c-60 3 -209 11
-330 17 -137 8 -330 9 -512 5 l-291 -7 -6 108 c-4 59 -9 135 -12 167 l-5 59
103 -7 c57 -4 155 -11 218 -16z m12620 -122 c0 -21 -10 -23 -29 -5 -11 10 -13
9 -8 -5 6 -16 -19 -35 -25 -19 -2 5 -38 -5 -81 -22 -42 -16 -79 -28 -82 -25
-2 2 -6 15 -7 28 -3 20 6 27 67 52 38 15 72 32 75 37 3 5 16 11 30 13 28 4 60
-24 60 -54z m-9993 -78 c55 -5 139 -16 185 -24 45 -8 135 -20 198 -26 64 -6
147 -17 185 -26 39 -8 107 -18 153 -24 45 -5 86 -11 91 -14 4 -3 11 -45 15
-93 20 -255 100 -845 160 -1176 l33 -180 -46 49 c-25 27 -128 137 -228 244
-297 317 -551 547 -746 676 -55 36 -110 70 -123 76 -30 14 -30 13 -49 233 -8
99 -18 209 -21 244 l-6 64 49 -7 c26 -3 94 -10 150 -16z m9983 -13 c11 -9 21
-24 21 -32 1 -8 2 -21 3 -27 4 -26 -15 -48 -60 -68 -75 -32 -104 -26 -133 28
-20 37 5 72 69 98 61 24 73 25 100 1z m-12903 -144 c4 -10 10 -20 14 -23 5 -3
12 -39 17 -80 7 -62 6 -89 -10 -155 -11 -44 -24 -88 -29 -98 -6 -10 -12 -37
-15 -60 -3 -23 -7 -50 -10 -59 -6 -19 13 -132 26 -157 38 -71 100 -214 110
-251 15 -59 6 -182 -19 -242 -6 -16 -9 -28 -6 -28 2 0 -2 -17 -8 -37 -15 -44
-12 -186 3 -191 5 -2 10 -12 10 -23 0 -17 76 -176 91 -189 3 -3 14 -27 24 -55
20 -51 27 -189 13 -245 -37 -146 -39 -223 -8 -295 19 -46 53 -112 70 -140 68
-106 100 -205 95 -290 -3 -47 -7 -74 -24 -170 -11 -58 -1 -156 19 -194 5 -9
15 -31 22 -48 7 -18 16 -33 19 -33 4 0 9 -8 13 -17 3 -10 15 -31 26 -48 11
-16 23 -37 27 -45 3 -8 9 -17 12 -20 12 -10 31 -50 31 -65 0 -8 4 -15 8 -15
25 0 37 -196 17 -280 -14 -59 2 -211 24 -230 3 -3 17 -27 31 -55 14 -27 33
-59 42 -69 10 -11 20 -28 24 -38 3 -10 10 -18 15 -18 5 0 9 -6 9 -14 0 -8 4
-16 8 -18 11 -4 58 -105 70 -148 8 -31 8 -143 0 -250 l-3 -35 -215 -6 c-347
-10 -963 -13 -986 -6 -12 4 -27 21 -34 37 -12 30 -10 48 25 180 22 82 16 162
-20 256 -26 68 -26 73 -22 264 3 160 7 203 22 240 30 73 26 207 -9 295 -26 64
-28 84 -33 240 -5 163 -4 173 20 235 14 36 28 83 31 105 8 46 -13 156 -44 234
-17 45 -20 74 -20 226 0 151 3 181 20 225 47 119 45 200 -6 339 -22 58 -24 79
-24 237 0 103 4 184 11 201 13 33 19 84 19 170 0 72 -11 130 -40 203 -17 44
-20 74 -20 224 0 164 2 178 26 242 19 49 28 93 30 149 3 83 15 119 43 131 9 4
104 10 211 14 107 3 208 7 223 8 18 1 30 -4 34 -15z m1338 -52 c22 -43 57
-201 52 -235 -3 -17 -10 -53 -17 -81 -16 -67 -18 -113 -8 -155 9 -35 12 -43
42 -112 9 -20 16 -41 16 -47 0 -6 4 -11 9 -11 5 0 15 -16 21 -35 6 -19 15 -35
20 -35 5 0 12 -21 16 -47 3 -27 15 -84 25 -128 22 -95 24 -146 9 -200 -25 -94
-24 -160 6 -245 16 -44 32 -80 36 -80 5 0 8 -5 8 -11 0 -7 13 -33 30 -60 49
-80 84 -302 65 -409 -12 -67 -10 -219 4 -233 6 -6 11 -19 11 -29 0 -17 38 -99
51 -108 3 -3 9 -15 13 -27 4 -13 11 -23 16 -23 10 0 24 -63 49 -214 16 -99 16
-116 3 -175 -8 -37 -14 -90 -14 -119 0 -54 38 -192 53 -192 5 0 9 -6 9 -14 0
-8 4 -16 8 -18 24 -10 52 -83 67 -173 8 -55 22 -124 30 -152 16 -53 14 -80
-10 -143 -16 -44 -14 -205 3 -222 7 -7 12 -20 12 -30 0 -10 5 -18 10 -18 6 0
10 -4 10 -9 0 -5 15 -36 34 -68 19 -32 37 -69 39 -83 2 -14 2 -19 0 -12 -3 6
-9 12 -14 12 -5 0 -9 5 -9 11 0 11 -50 82 -62 87 -5 2 -8 10 -8 17 0 7 -3 15
-7 17 -12 5 -54 89 -69 137 -8 29 -11 75 -8 135 2 50 5 119 5 153 1 68 -18
163 -32 163 -5 0 -9 7 -9 15 0 15 -19 55 -31 65 -3 3 -8 12 -12 20 -10 21 -29
51 -48 72 -24 28 -71 127 -83 178 -14 57 -12 119 11 250 17 101 -18 224 -97
345 -11 17 -23 37 -27 45 -3 8 -9 17 -13 20 -3 3 -17 32 -30 65 -25 61 -33
170 -17 240 4 17 10 44 14 60 12 49 8 218 -5 223 -7 2 -12 15 -12 28 0 13 -4
24 -9 24 -5 0 -12 14 -16 30 -4 17 -10 30 -15 30 -5 0 -14 16 -20 35 -6 19
-15 35 -20 35 -5 0 -11 14 -15 30 -4 17 -11 30 -16 30 -5 0 -9 10 -9 23 0 13
-5 28 -10 33 -21 21 -16 145 10 249 27 105 32 237 11 258 -6 6 -11 18 -11 27
-1 15 -50 120 -67 143 -6 7 -20 40 -33 75 -29 81 -30 184 -2 272 30 93 40 141
41 208 2 40 -2 72 -7 72 -5 0 -12 13 -14 29 -5 36 16 31 37 -8z m515 -20 c25
-5 99 -18 165 -30 138 -25 372 -91 462 -132 34 -16 77 -35 95 -43 18 -7 42
-21 53 -30 11 -9 39 -30 63 -46 23 -17 40 -35 36 -41 -12 -20 -15 -129 -4
-172 11 -43 34 -100 50 -127 24 -41 70 -140 70 -152 0 -8 5 -19 11 -25 12 -12
16 -148 7 -198 -4 -16 -13 -54 -21 -83 -17 -62 -16 -224 2 -230 6 -2 11 -12
11 -21 0 -10 11 -38 25 -62 13 -24 30 -55 35 -69 6 -13 14 -27 18 -30 4 -3 15
-23 26 -45 10 -22 22 -47 26 -56 26 -52 28 -169 4 -269 -3 -14 -6 -68 -7 -120
-1 -88 2 -100 33 -165 18 -38 36 -72 40 -75 11 -9 70 -110 70 -120 0 -6 5 -10
10 -10 6 0 10 -9 10 -19 0 -11 4 -22 9 -25 12 -8 31 -91 32 -141 1 -22 -2 -65
-7 -95 -16 -103 -10 -210 16 -270 25 -57 70 -133 83 -138 4 -2 7 -10 7 -17 0
-7 3 -15 8 -17 11 -5 58 -80 82 -132 28 -62 39 -134 33 -216 -6 -79 -6 -135 0
-175 7 -49 30 -115 39 -115 4 0 8 -6 8 -13 0 -15 98 -160 112 -165 4 -2 8 -10
8 -18 0 -8 5 -14 10 -14 6 0 10 -7 10 -15 0 -8 5 -15 10 -15 6 0 10 -6 10 -14
0 -8 6 -21 13 -28 29 -29 48 -109 52 -219 l2 -76 -120 -7 c-66 -3 -247 -6
-401 -6 -155 0 -359 -5 -454 -10 -207 -11 -265 -4 -280 38 -5 15 -8 36 -6 47
7 41 7 131 -1 175 -10 61 -31 113 -76 190 -34 58 -40 80 -59 205 -11 77 -22
148 -23 159 -2 10 2 48 9 84 15 78 9 178 -11 209 -8 12 -15 29 -15 37 0 8 -3
16 -8 18 -18 7 -71 138 -82 203 -7 39 -21 108 -32 154 -18 79 -18 103 -1 171
13 52 17 121 10 160 -5 24 -31 87 -58 139 -48 92 -77 185 -98 321 -18 110 -19
124 -6 155 15 37 11 194 -5 238 -7 18 -19 46 -26 64 -8 17 -14 36 -14 41 0 6
-4 12 -8 14 -4 2 -18 23 -30 46 -28 55 -75 325 -66 379 12 71 10 251 -3 265
-7 6 -13 18 -13 25 0 12 -46 90 -60 103 -14 12 -30 70 -40 145 -7 44 -20 114
-29 156 -10 42 -17 82 -15 90 1 8 5 30 9 49 11 55 15 81 19 141 5 80 20 99 76
98 25 0 65 -4 90 -8z m11256 -162 c26 -53 17 -88 -23 -89 -19 0 -37 40 -24 53
15 15 14 27 -3 21 -7 -3 -19 -24 -26 -47 -12 -40 -41 -76 -64 -78 -6 0 -19 -2
-28 -4 -32 -6 -71 65 -57 103 5 12 20 27 35 32 31 12 30 13 39 -22 5 -21 3
-27 -14 -33 -12 -3 -19 -10 -16 -15 10 -16 33 1 45 33 23 62 33 76 59 85 42
14 55 8 77 -39z m22 -165 c21 -22 27 -80 9 -99 -22 -22 -102 -54 -124 -50 -10
2 -21 4 -25 4 -4 1 -16 18 -26 39 -24 50 -12 73 52 99 60 23 95 26 114 7z
m113 -261 c6 -15 7 -29 2 -31 -67 -25 -137 -60 -141 -70 -2 -7 30 2 76 22 l80
33 11 -25 c7 -14 8 -28 4 -32 -11 -9 -160 -70 -173 -70 -5 0 -10 6 -10 13 -1
6 -9 30 -19 51 -14 30 -16 44 -8 57 8 13 132 74 160 78 4 0 12 -11 18 -26z
m161 -397 c8 7 22 -47 19 -70 -4 -25 -17 -38 -70 -61 -66 -29 -102 -20 -122
33 -17 43 -1 69 54 91 70 27 90 30 103 14 6 -7 13 -10 16 -7z m74 -185 c-3 -5
1 -14 9 -21 18 -15 19 -44 3 -58 -7 -5 -46 -24 -85 -40 l-73 -31 -15 28 -14
28 72 28 c74 28 95 41 85 50 -2 3 -39 -9 -82 -27 -65 -27 -79 -30 -86 -18 -21
33 -9 45 78 80 l87 36 13 -23 c7 -13 10 -27 8 -32z m-9363 -398 c121 -126 191
-215 215 -270 32 -74 44 -108 40 -110 -2 -1 8 -13 21 -27 14 -14 21 -26 17
-26 -4 0 12 -23 36 -52 41 -50 81 -90 235 -239 81 -79 205 -274 217 -342 4
-24 19 -109 21 -117 0 -3 6 -14 12 -25 6 -11 11 -23 12 -28 1 -7 42 -85 67
-128 6 -11 27 -38 46 -61 20 -24 53 -64 74 -90 25 -30 55 -88 83 -160 42 -109
50 -155 38 -208 -32 -135 -37 -181 -32 -270 12 -189 10 -201 -36 -254 -27 -30
-75 -61 -177 -114 -134 -68 -142 -71 -152 -53 -6 11 -9 24 -8 28 3 9 -31 102
-43 118 -78 98 -200 273 -218 309 -29 63 -33 88 -36 231 -2 66 -5 131 -8 145
-9 49 -30 110 -39 110 -4 0 -8 6 -8 13 0 15 -98 160 -112 165 -4 2 -8 10 -8
18 0 8 -4 14 -10 14 -5 0 -10 6 -10 14 0 8 -4 16 -8 18 -5 2 -21 33 -36 70
-28 71 -28 71 -24 313 2 96 -1 117 -22 165 -13 30 -26 57 -30 60 -3 3 -14 22
-25 43 -11 20 -22 37 -26 37 -4 0 -9 8 -13 18 -6 17 -27 53 -36 62 -3 3 -19
32 -35 65 -26 53 -30 71 -30 150 0 50 4 110 8 135 17 87 7 240 -14 240 -5 0
-9 11 -9 24 0 13 -4 26 -9 28 -14 5 -25 58 -13 58 6 0 44 -35 85 -77z m11699
-1465 c373 -99 681 -179 683 -176 3 3 -24 55 -60 117 -36 62 -65 117 -65 122
0 6 8 9 17 7 16 -3 173 -261 173 -284 0 -13 -257 -164 -278 -164 -37 0 1 35
98 91 61 34 107 66 103 69 -5 4 -307 87 -673 184 -366 97 -673 179 -682 182
-20 6 -25 34 -6 34 7 0 317 -82 690 -182z m-14592 -4268 c261 -451 475 -818
478 -816 2 2 34 118 71 258 52 190 72 254 85 256 9 2 16 0 16 -5 0 -15 -149
-565 -155 -571 -3 -3 -121 25 -263 63 -352 94 -352 94 -352 110 0 8 4 15 10
15 5 0 126 -31 269 -70 143 -38 265 -70 270 -70 5 0 -202 366 -460 813 -258
446 -469 818 -469 825 0 6 6 12 14 12 7 0 224 -366 486 -820z"/>
<path d="M14820 17055 l0 -315 315 0 315 0 0 315 0 315 -315 0 -315 0 0 -315z
m540 0 l0 -225 -225 0 -225 0 0 225 0 225 225 0 225 0 0 -225z"/>
<path d="M15000 17055 l0 -135 135 0 135 0 0 135 0 135 -135 0 -135 0 0 -135z"/>
<path d="M15720 17325 l0 -45 -45 0 -45 0 0 -45 0 -45 -45 0 -45 0 0 -90 0
-90 45 0 45 0 0 -90 0 -90 -45 0 -45 0 0 -45 0 -45 45 0 45 0 0 45 0 45 45 0
45 0 0 -45 0 -45 45 0 45 0 0 -45 0 -45 -45 0 -45 0 0 -45 0 -45 45 0 45 0 0
-45 0 -45 -45 0 -45 0 0 -45 0 -45 45 0 45 0 0 -45 0 -45 45 0 45 0 0 -45 0
-45 45 0 45 0 0 -45 0 -45 -45 0 -45 0 0 -45 0 -45 -45 0 -45 0 0 45 0 45 -45
0 -45 0 0 90 0 90 -45 0 -45 0 0 135 0 135 -45 0 -45 0 0 45 0 45 -90 0 -90 0
0 -45 0 -45 90 0 90 0 0 -45 0 -45 -135 0 -135 0 0 -45 0 -45 90 0 90 0 0 -45
0 -45 -135 0 -135 0 0 45 0 45 -45 0 -45 0 0 -45 0 -45 -45 0 -45 0 0 -45 0
-45 45 0 45 0 0 -45 0 -45 45 0 45 0 0 45 0 45 45 0 45 0 0 -90 0 -90 -45 0
-45 0 0 -45 0 -45 -45 0 -45 0 0 45 0 45 -45 0 -45 0 0 45 0 45 -45 0 -45 0 0
90 0 90 -45 0 -45 0 0 -180 0 -180 45 0 45 0 0 45 0 45 45 0 45 0 0 -45 0 -45
45 0 45 0 0 -45 0 -45 -135 0 -135 0 0 -180 0 -180 135 0 135 0 0 45 0 45 45
0 45 0 0 -45 0 -45 45 0 45 0 0 90 0 90 180 0 180 0 0 -45 0 -45 -135 0 -135
0 0 -45 0 -45 90 0 90 0 0 -90 0 -90 135 0 135 0 0 -45 0 -45 -45 0 -45 0 0
-45 0 -45 -45 0 -45 0 0 45 0 45 -45 0 -45 0 0 -90 0 -90 45 0 45 0 0 -45 0
-45 45 0 45 0 0 -45 0 -45 -45 0 -45 0 0 -45 0 -45 90 0 90 0 0 135 0 135 90
0 90 0 0 -45 0 -45 45 0 45 0 0 45 0 45 45 0 45 0 0 -90 0 -90 -135 0 -135 0
0 -45 0 -45 135 0 135 0 0 45 0 45 45 0 45 0 0 -45 0 -45 45 0 45 0 0 45 0 45
90 0 90 0 0 45 0 45 -45 0 -45 0 0 45 0 45 45 0 45 0 0 45 0 45 90 0 90 0 0
-90 0 -90 -45 0 -45 0 0 -90 0 -90 225 0 225 0 0 45 0 45 90 0 90 0 0 45 0 45
45 0 45 0 0 -45 0 -45 45 0 45 0 0 90 0 90 -45 0 -45 0 0 45 0 45 45 0 45 0 0
45 0 45 -45 0 -45 0 0 45 0 45 -45 0 -45 0 0 90 0 90 -90 0 -90 0 0 90 0 90
45 0 45 0 0 -45 0 -45 45 0 45 0 0 135 0 135 -45 0 -45 0 0 45 0 45 45 0 45 0
0 45 0 45 45 0 45 0 0 -90 0 -90 45 0 45 0 0 180 0 180 -45 0 -45 0 0 45 0 45
45 0 45 0 0 45 0 45 -45 0 -45 0 0 -45 0 -45 -90 0 -90 0 0 135 0 135 45 0 45
0 0 -45 0 -45 45 0 45 0 0 45 0 45 -45 0 -45 0 0 45 0 45 -90 0 -90 0 0 -45 0
-45 -180 0 -180 0 0 45 0 45 -45 0 -45 0 0 -90 0 -90 90 0 90 0 0 -45 0 -45
-45 0 -45 0 0 -45 0 -45 -90 0 -90 0 0 90 0 90 -45 0 -45 0 0 -135 0 -135 180
0 180 0 0 -90 0 -90 -45 0 -45 0 0 45 0 45 -135 0 -135 0 0 -45 0 -45 -45 0
-45 0 0 45 0 45 -135 0 -135 0 0 45 0 45 90 0 90 0 0 45 0 45 -135 0 -135 0 0
270 0 270 45 0 45 0 0 -45 0 -45 45 0 45 0 0 -45 0 -45 45 0 45 0 0 -45 0 -45
-45 0 -45 0 0 -45 0 -45 -45 0 -45 0 0 -45 0 -45 135 0 135 0 0 45 0 45 -45 0
-45 0 0 45 0 45 45 0 45 0 0 45 0 45 -45 0 -45 0 0 45 0 45 45 0 45 0 0 45 0
45 45 0 45 0 0 -45 0 -45 45 0 45 0 0 90 0 90 45 0 45 0 0 -90 0 -90 45 0 45
0 0 270 0 270 -45 0 -45 0 0 45 0 45 -90 0 -90 0 0 -45 0 -45 -45 0 -45 0 0
45 0 45 -90 0 -90 0 0 -45 0 -45 45 0 45 0 0 -90 0 -90 -45 0 -45 0 0 45 0 45
-45 0 -45 0 0 45 0 45 -45 0 -45 0 0 45 0 45 -45 0 -45 0 0 -45 0 -45 -45 0
-45 0 0 45 0 45 -45 0 -45 0 0 -45z m900 -135 l0 -90 -45 0 -45 0 0 -45 0 -45
-45 0 -45 0 0 45 0 45 -45 0 -45 0 0 45 0 45 45 0 45 0 0 45 0 45 90 0 90 0 0
-90z m-630 -90 l0 -90 -45 0 -45 0 0 -45 0 -45 45 0 45 0 0 -45 0 -45 -45 0
-45 0 0 -45 0 -45 -45 0 -45 0 0 45 0 45 45 0 45 0 0 45 0 45 -45 0 -45 0 0
45 0 45 45 0 45 0 0 45 0 45 -90 0 -90 0 0 45 0 45 135 0 135 0 0 -90z m270
-225 l0 -135 -45 0 -45 0 0 135 0 135 45 0 45 0 0 -135z m810 -450 l0 -45 -45
0 -45 0 0 -45 0 -45 45 0 45 0 0 -45 0 -45 45 0 45 0 0 -45 0 -45 45 0 45 0 0
45 0 45 45 0 45 0 0 -45 0 -45 -45 0 -45 0 0 -45 0 -45 -45 0 -45 0 0 45 0 45
-45 0 -45 0 0 -90 0 -90 -45 0 -45 0 0 -90 0 -90 -45 0 -45 0 0 -45 0 -45 -90
0 -90 0 0 -45 0 -45 -45 0 -45 0 0 -90 0 -90 -45 0 -45 0 0 -90 0 -90 -45 0
-45 0 0 -90 0 -90 -90 0 -90 0 0 45 0 45 -45 0 -45 0 0 90 0 90 45 0 45 0 0
45 0 45 45 0 45 0 0 -45 0 -45 -45 0 -45 0 0 -45 0 -45 90 0 90 0 0 225 0 225
45 0 45 0 0 45 0 45 -90 0 -90 0 0 -90 0 -90 -45 0 -45 0 0 -45 0 -45 -45 0
-45 0 0 -45 0 -45 -90 0 -90 0 0 90 0 90 135 0 135 0 0 135 0 135 -45 0 -45 0
0 45 0 45 -45 0 -45 0 0 -90 0 -90 45 0 45 0 0 -45 0 -45 -135 0 -135 0 0 -45
0 -45 -45 0 -45 0 0 -45 0 -45 45 0 45 0 0 -45 0 -45 -45 0 -45 0 0 45 0 45
-90 0 -90 0 0 45 0 45 90 0 90 0 0 45 0 45 45 0 45 0 0 45 0 45 -45 0 -45 0 0
45 0 45 -45 0 -45 0 0 -90 0 -90 -45 0 -45 0 0 45 0 45 -45 0 -45 0 0 45 0 45
90 0 90 0 0 90 0 90 45 0 45 0 0 -90 0 -90 45 0 45 0 0 45 0 45 45 0 45 0 0
90 0 90 45 0 45 0 0 -45 0 -45 45 0 45 0 0 -45 0 -45 135 0 135 0 0 45 0 45
45 0 45 0 0 -45 0 -45 -45 0 -45 0 0 -45 0 -45 90 0 90 0 0 -90 0 -90 45 0 45
0 0 135 0 135 -45 0 -45 0 0 45 0 45 45 0 45 0 0 -45 0 -45 90 0 90 0 0 135 0
135 45 0 45 0 0 45 0 45 -90 0 -90 0 0 45 0 45 90 0 90 0 0 45 0 45 45 0 45 0
0 -45z m-1440 -315 l0 -180 -135 0 -135 0 0 -45 0 -45 45 0 45 0 0 -45 0 -45
-135 0 -135 0 0 -45 0 -45 -90 0 -90 0 0 45 0 45 90 0 90 0 0 45 0 45 45 0 45
0 0 90 0 90 90 0 90 0 0 45 0 45 -45 0 -45 0 0 45 0 45 45 0 45 0 0 -45 0 -45
45 0 45 0 0 90 0 90 45 0 45 0 0 -180z m1350 -765 l0 -135 -135 0 -135 0 0
135 0 135 135 0 135 0 0 -135z m180 0 l0 -45 45 0 45 0 0 -45 0 -45 45 0 45 0
0 -45 0 -45 -135 0 -135 0 0 -45 0 -45 90 0 90 0 0 -45 0 -45 -90 0 -90 0 0
45 0 45 -45 0 -45 0 0 -90 0 -90 -135 0 -135 0 0 45 0 45 45 0 45 0 0 90 0 90
45 0 45 0 0 -45 0 -45 45 0 45 0 0 45 0 45 45 0 45 0 0 45 0 45 45 0 45 0 0
45 0 45 -45 0 -45 0 0 45 0 45 45 0 45 0 0 -45z m-1080 -135 l0 -90 -135 0
-135 0 0 -45 0 -45 -45 0 -45 0 0 45 0 45 45 0 45 0 0 45 0 45 90 0 90 0 0 45
0 45 45 0 45 0 0 -90z"/>
<path d="M16800 17055 l0 -315 315 0 315 0 0 315 0 315 -315 0 -315 0 0 -315z
m540 0 l0 -225 -225 0 -225 0 0 225 0 225 225 0 225 0 0 -225z"/>
<path d="M16980 17055 l0 -135 135 0 135 0 0 135 0 135 -135 0 -135 0 0 -135z"/>
<path d="M15090 16560 l0 -90 45 0 45 0 0 45 0 45 45 0 45 0 0 45 0 45 -90 0
-90 0 0 -90z"/>
<path d="M17863 16032 c-91 -2 -113 -5 -113 -17 0 -17 -8 -18 -67 -6 l-43 8 0
-478 c0 -446 1 -478 18 -483 16 -5 131 -18 275 -31 l67 -7 -2 508 c-2 329 -7
508 -13 508 -5 1 -61 0 -122 -2z"/>
<path d="M14820 15075 l0 -315 315 0 315 0 0 315 0 315 -315 0 -315 0 0 -315z
m540 0 l0 -225 -225 0 -225 0 0 225 0 225 225 0 225 0 0 -225z"/>
<path d="M15000 15075 l0 -135 135 0 135 0 0 135 0 135 -135 0 -135 0 0 -135z"/>
<path d="M13485 13606 c-42 -18 -143 -139 -151 -181 -9 -51 12 -129 55 -203
84 -145 202 -397 264 -562 14 -36 37 -96 53 -133 l28 -68 -32 -30 c-50 -47
-44 -78 29 -154 34 -35 111 -106 172 -157 60 -51 162 -137 226 -191 125 -106
165 -131 226 -142 78 -14 341 -84 429 -114 247 -85 465 -261 600 -485 33 -55
157 -320 171 -364 l6 -22 -53 21 c-144 56 -310 129 -478 210 -195 94 -229 102
-293 75 -18 -7 -40 -22 -50 -33 -18 -21 -127 -201 -127 -210 0 -3 -34 -61 -75
-130 -41 -68 -75 -127 -75 -130 0 -3 -29 -53 -64 -112 -59 -98 -89 -150 -137
-241 -35 -64 -18 -144 40 -192 42 -36 454 -239 671 -331 228 -97 477 -190 720
-268 107 -34 199 -65 203 -69 4 -4 14 -56 21 -116 8 -60 21 -145 30 -189 8
-44 23 -132 31 -195 9 -63 25 -151 36 -195 10 -44 25 -109 34 -145 29 -125 72
-286 100 -372 16 -48 27 -90 24 -92 -2 -3 -96 17 -208 45 -216 52 -262 57
-314 35 -71 -30 -92 -78 -173 -386 -9 -36 -22 -87 -30 -115 -7 -27 -20 -79
-29 -115 -9 -36 -27 -101 -40 -145 -50 -168 -55 -211 -31 -268 27 -63 54 -77
238 -123 306 -77 755 -164 1063 -207 l89 -12 128 -250 c70 -138 144 -288 163
-335 88 -206 170 -492 181 -631 l7 -80 -49 6 c-213 24 -471 45 -496 40 -49
-11 -96 -61 -112 -119 -21 -74 -47 -276 -96 -731 -6 -55 -15 -130 -21 -167
-18 -130 -10 -180 38 -230 35 -37 97 -55 228 -68 61 -6 125 -13 143 -16 l32
-5 -36 -67 c-66 -120 -122 -189 -228 -281 -57 -50 -130 -119 -162 -154 -73
-79 -105 -103 -545 -420 l-355 -255 -235 48 c-824 169 -1700 434 -2399 725
-74 31 -149 61 -166 67 -72 24 -158 -24 -186 -104 -21 -59 -62 -203 -92 -324
-29 -113 -32 -170 -12 -218 15 -36 14 -35 212 -180 78 -57 148 -114 158 -127
22 -32 20 -66 -6 -98 -13 -16 -35 -43 -50 -62 -14 -19 -36 -45 -48 -59 -11
-13 -43 -69 -71 -124 -47 -95 -49 -103 -49 -183 0 -46 -4 -83 -9 -83 -18 0
-400 134 -586 207 -173 67 -420 187 -544 265 -51 32 -110 67 -131 78 -22 11
-56 31 -76 45 -67 45 -322 171 -621 306 l-62 28 63 135 c34 74 90 174 123 223
96 140 106 165 111 268 2 50 -1 109 -6 132 -8 35 -7 45 7 58 10 8 24 15 32 15
31 0 331 -97 439 -143 101 -42 361 -199 437 -263 12 -11 37 -30 55 -44 18 -14
58 -48 90 -77 63 -58 107 -72 167 -54 69 20 74 31 165 346 23 80 29 141 17
177 -21 65 -74 101 -356 242 -559 279 -1018 545 -1535 890 -197 131 -490 334
-513 356 -4 4 -24 49 -43 101 -69 186 -222 449 -307 529 -32 30 -69 75 -82
100 -25 49 -67 91 -160 163 -33 26 -79 68 -102 95 -22 27 -83 77 -133 112 -99
68 -152 83 -200 58 -26 -14 -68 -83 -96 -158 -10 -25 -21 -49 -25 -54 -9 -11
-191 156 -488 449 -299 295 -594 610 -843 902 l-77 90 77 12 c42 7 104 20 137
29 50 14 114 17 385 17 224 0 337 -4 365 -12 22 -7 108 -24 190 -38 107 -18
202 -44 329 -87 266 -90 321 -119 447 -236 168 -156 383 -338 674 -571 350
-280 391 -319 487 -466 82 -125 243 -440 273 -535 10 -30 33 -87 52 -126 52
-110 84 -115 288 -44 44 15 125 35 180 44 55 9 134 26 177 37 42 10 85 19 96
19 11 0 60 -23 109 -51 1174 -679 2565 -1198 3932 -1469 404 -80 443 -86 491
-71 82 24 111 87 131 281 5 52 14 134 19 183 6 48 14 126 20 175 26 234 30
271 40 321 23 122 5 239 -46 292 -36 38 -77 50 -346 104 -590 118 -1220 301
-1810 524 l-57 22 25 65 c18 47 24 84 24 140 0 84 -17 129 -69 178 -26 25 -40
30 -79 30 -56 0 -64 -5 -223 -139 l-111 -93 -41 17 c-147 64 -282 128 -504
238 l-252 126 27 32 c15 18 108 121 207 230 321 352 385 428 423 498 26 52 49
79 89 109 30 22 59 50 65 63 l11 24 81 -41 c267 -134 974 -422 1206 -491 84
-24 173 31 198 123 7 25 24 81 37 125 13 44 30 108 39 143 15 57 25 97 63 242
8 30 25 91 38 135 39 133 49 201 36 244 -17 58 -92 122 -181 155 -688 258
-1144 473 -1682 794 -200 120 -587 374 -640 421 -62 54 -124 71 -258 71 -73 0
-120 -4 -120 -10 0 -5 -6 -10 -14 -10 -23 0 -78 -51 -92 -87 -8 -18 -14 -47
-14 -65 0 -44 -76 -236 -105 -262 -12 -11 -39 -34 -60 -51 -83 -68 -116 -106
-146 -166 -17 -35 -43 -79 -56 -97 -15 -20 -25 -47 -25 -68 0 -39 -8 -42 -46
-15 -15 10 -58 39 -97 64 -109 70 -207 153 -265 226 -14 17 -34 42 -45 56 -11
13 -31 39 -45 56 -74 96 -321 303 -441 368 -50 28 -188 142 -241 200 -54 59
-138 182 -142 207 -5 36 -124 179 -217 261 -110 96 -126 105 -179 101 -34 -3
-35 -5 -42 -53 -9 -56 12 -264 38 -385 24 -113 31 -526 10 -645 -28 -164 -57
-289 -94 -404 l-36 -114 -195 199 c-318 324 -561 599 -859 973 -123 154 -164
197 -196 212 -49 22 -86 24 -129 5 -18 -8 -211 -193 -439 -423 -389 -390 -408
-411 -428 -467 -25 -72 -25 -102 -2 -143 18 -34 248 -308 435 -518 64 -71 114
-131 112 -133 -3 -3 -350 43 -430 58 -81 15 -352 12 -448 -5 -48 -8 -162 -26
-254 -39 -92 -13 -192 -34 -221 -45 -29 -12 -61 -21 -70 -21 -32 0 -440 568
-716 994 -302 468 -567 931 -822 1441 -91 182 -173 338 -182 349 -40 45 -124
58 -216 32 -28 -8 -80 -22 -116 -32 -139 -36 -167 -43 -230 -59 -36 -9 -101
-27 -145 -40 -44 -13 -109 -31 -145 -40 -36 -9 -87 -23 -115 -30 -27 -8 -79
-21 -115 -30 -36 -9 -87 -23 -115 -31 -27 -8 -76 -19 -108 -25 -89 -16 -147
-78 -147 -156 0 -16 61 -156 135 -311 458 -965 1017 -1903 1625 -2732 58 -80
109 -150 113 -157 5 -7 -16 -37 -51 -75 -146 -158 -321 -406 -470 -668 -95
-167 -212 -404 -212 -429 0 -36 -33 -3 -138 136 -132 175 -142 186 -195 208
-48 20 -85 19 -127 -4 -19 -11 -51 -28 -70 -38 -20 -11 -86 -49 -147 -86 -61
-37 -113 -67 -116 -67 -3 0 -62 -34 -130 -75 -69 -41 -127 -75 -130 -75 -3 0
-69 -38 -147 -85 -77 -46 -164 -95 -193 -109 -28 -13 -62 -34 -74 -47 -44 -48
-55 -121 -28 -185 27 -66 483 -646 799 -1018 89 -104 174 -205 190 -223 l29
-35 -18 -36 c-29 -62 -117 -190 -232 -340 -147 -191 -217 -269 -261 -291 -60
-30 -242 -58 -512 -81 -58 -5 -112 -11 -121 -15 -19 -7 -183 182 -498 575
-869 1084 -1632 2259 -2279 3510 -84 161 -126 231 -168 277 -68 77 -150 133
-204 140 l-40 6 0 -4242 0 -4241 9000 0 9000 0 0 5790 0 5790 -173 0 c-130 0
-177 3 -192 14 -11 7 -51 16 -90 20 -332 33 -664 98 -1035 203 -313 88 -670
205 -870 285 -171 68 -444 211 -490 258 -3 3 -23 18 -45 35 -22 16 -45 34 -51
40 -6 5 -22 17 -34 25 -12 8 -34 25 -48 37 -15 13 -30 23 -34 23 -4 0 -13 6
-20 13 -20 21 -166 117 -176 117 -5 0 -15 6 -21 14 -7 8 -26 22 -44 31 -18 9
-54 29 -82 46 -27 16 -59 34 -70 40 -21 10 -23 11 -125 73 -198 120 -298 216
-414 395 -49 76 -125 157 -258 274 -103 91 -172 114 -243 83z m3874 -2422 c68
-119 125 -224 128 -233 3 -14 -43 -45 -215 -144 -121 -70 -227 -127 -236 -127
-44 0 2 35 184 139 110 63 200 117 200 120 0 3 -235 69 -523 145 -287 77 -537
143 -554 148 -31 8 -47 38 -21 38 7 0 257 -66 556 -146 299 -80 546 -143 548
-141 2 2 -45 89 -106 194 -60 105 -110 198 -110 207 0 45 36 -4 149 -200z
m-1706 -455 c11 -7 74 -31 139 -55 376 -136 911 -253 1443 -313 147 -17 409
-41 446 -41 5 0 9 -273 9 -606 l0 -607 -122 7 c-239 14 -597 57 -828 101 -250
47 -794 180 -803 196 -1 2 -13 36 -26 74 -13 39 -34 90 -47 115 -12 25 -28 74
-34 109 -13 71 -16 290 -6 336 23 99 -19 248 -95 336 -16 19 -34 52 -40 74 -6
22 -26 92 -45 156 -19 63 -34 118 -34 122 0 10 19 8 43 -4z m-3658 -2069 c147
-107 574 -390 586 -390 9 0 -136 -218 -208 -311 -23 -31 -66 -83 -95 -115 -74
-81 -291 -251 -363 -284 -33 -16 -109 -51 -169 -79 l-110 -50 -110 76 c-223
154 -646 470 -646 483 0 3 26 21 58 39 51 31 147 91 402 251 47 29 126 76 175
103 168 93 166 91 206 201 13 36 40 79 70 112 27 30 49 59 49 65 0 8 4 8 13 2
6 -5 71 -52 142 -103z m-1788 -94 c33 -34 90 -106 127 -159 69 -98 173 -202
276 -275 30 -21 85 -59 122 -85 l68 -48 -33 -28 c-17 -15 -61 -46 -97 -69 -36
-23 -70 -45 -76 -50 -24 -21 -304 -169 -580 -307 -120 -60 -167 -78 -233 -90
-46 -8 -94 -23 -110 -35 -16 -11 -40 -20 -53 -20 -24 0 -230 141 -301 206 -27
24 -171 114 -183 114 -7 0 -36 25 -66 56 -29 31 -67 66 -84 78 -110 74 -360
263 -415 315 -42 38 -88 95 -124 152 -31 50 -55 93 -53 94 7 7 136 -34 238
-75 58 -23 137 -54 175 -70 39 -15 111 -46 160 -68 166 -73 370 -164 430 -191
108 -50 150 -62 196 -59 l44 3 61 141 c43 101 89 184 165 300 106 160 133 214
145 291 l6 41 68 -49 c37 -28 95 -78 127 -113z m2770 -40 c32 -24 72 -60 90
-79 33 -36 87 -117 78 -117 -6 0 48 -90 84 -140 31 -43 34 -47 153 -167 81
-81 99 -106 110 -145 6 -26 9 -50 6 -53 -4 -5 -117 43 -273 115 -22 10 -87 40
-145 65 -200 89 -460 228 -460 246 0 12 78 123 113 162 19 20 46 52 59 69 39
52 81 88 104 88 12 0 48 -20 81 -44z m-6129 -186 c8 -19 15 -38 14 -42 -1 -3
5 -12 13 -18 8 -7 15 -17 15 -23 0 -30 127 -161 255 -262 20 -16 50 -41 66
-55 l29 -26 -88 -28 c-124 -40 -376 -132 -409 -149 -15 -8 -69 -35 -120 -60
-202 -99 -376 -211 -565 -364 -111 -89 -129 -100 -137 -85 -9 16 -11 16 -24
-2 -14 -19 -20 -14 -118 85 -121 121 -179 217 -173 285 3 35 14 49 111 141
282 268 620 486 933 604 120 44 174 58 179 45 2 -6 10 -27 19 -46z m9497 -330
c223 -39 553 -86 739 -105 163 -17 521 -45 574 -45 l32 0 0 -565 0 -564 -27 4
c-16 2 -100 7 -187 10 -226 8 -731 57 -745 71 -4 3 -6 9 -7 12 -2 29 -21 87
-45 141 -32 71 -74 126 -191 253 -29 31 -52 77 -115 223 -33 79 -38 100 -39
175 -2 164 -21 219 -120 349 -30 39 -51 71 -46 71 4 0 84 -13 177 -30z m-4425
-798 c376 -191 414 -213 607 -337 51 -33 91 -64 89 -70 -1 -5 -40 -39 -87 -74
-134 -103 -226 -203 -306 -331 -108 -174 -308 -362 -423 -398 -19 -6 -112 -16
-207 -23 -179 -12 -170 -13 -216 26 -7 6 -43 34 -82 62 -38 29 -81 60 -95 71
-36 27 -223 140 -300 180 -36 19 -103 54 -150 79 -47 24 -92 48 -100 53 -85
51 -153 90 -156 90 -2 0 -35 23 -74 50 -72 53 -147 129 -167 171 -105 218
-106 221 -97 247 5 14 21 34 36 45 24 18 45 20 210 23 102 1 201 8 223 14 22
7 67 17 100 22 33 6 137 30 230 54 161 41 214 58 520 172 l130 48 65 -40 c36
-22 148 -82 250 -134z m-5944 -149 c101 -125 353 -420 462 -541 l83 -92 -102
-110 c-181 -194 -348 -451 -430 -662 -111 -281 -131 -398 -79 -453 38 -40 83
-50 235 -50 128 0 150 3 253 33 186 53 301 122 428 254 93 97 195 266 238 392
6 16 35 -9 179 -150 485 -478 1099 -1000 1649 -1404 l127 -93 -54 -44 c-73
-61 -177 -199 -230 -308 -89 -182 -113 -420 -66 -658 24 -123 71 -237 112
-276 38 -35 111 -29 184 14 233 140 537 469 677 732 l44 82 94 -61 c142 -91
480 -296 606 -368 l112 -63 -41 -76 c-36 -67 -218 -345 -269 -411 -67 -86
-262 -298 -341 -371 -126 -117 -277 -231 -295 -224 -50 19 -581 362 -857 553
-1291 895 -2426 1931 -3452 3151 l-130 155 34 75 c178 391 354 657 624 943 66
70 122 128 124 128 1 0 38 -44 81 -97z m895 -443 c10 -6 26 -25 35 -43 9 -18
20 -34 23 -37 3 -3 17 -22 31 -42 14 -21 28 -38 33 -38 4 0 7 -6 7 -14 0 -8 4
-16 8 -18 4 -1 23 -24 41 -50 29 -41 35 -58 43 -140 12 -112 6 -181 -17 -228
-34 -70 -40 -80 -51 -84 -6 -2 -28 25 -49 61 -90 154 -210 283 -372 398 l-42
31 49 46 c42 40 223 168 236 168 3 0 14 -5 25 -10z m6714 -266 c38 -14 86 -32
105 -39 19 -8 75 -28 123 -46 l88 -33 -7 -30 c-10 -48 -23 -66 -47 -67 -12 -1
-85 0 -162 1 -77 1 -180 -3 -229 -9 -97 -11 -141 -2 -141 31 0 14 181 217 195
218 2 0 36 -12 75 -26z m-4725 -83 c73 -53 244 -220 285 -277 75 -105 262
-258 448 -365 33 -19 73 -42 90 -52 42 -24 105 -86 122 -117 7 -14 20 -61 30
-106 21 -101 15 -115 -62 -145 -47 -18 -79 -23 -168 -23 -99 -1 -121 2 -215
33 -138 44 -193 79 -395 251 -62 52 -133 113 -159 134 -55 47 -107 147 -138
268 -17 67 -18 86 -8 131 6 28 13 63 15 77 2 14 8 54 14 90 11 69 8 170 -5
191 -10 17 53 -22 146 -90z m-3927 -22 c58 -62 134 -173 130 -189 -1 -3 3 -11
9 -17 6 -7 7 -20 4 -30 -4 -9 -2 -19 3 -23 6 -3 -13 -75 -49 -182 -33 -98 -66
-214 -75 -260 -9 -46 -25 -123 -35 -173 -35 -164 -45 -299 -44 -605 1 -276 11
-443 35 -568 6 -30 8 -56 6 -59 -8 -8 -90 43 -118 74 -34 37 -129 188 -129
205 0 7 -18 36 -39 65 -22 28 -38 53 -35 55 2 2 -31 38 -73 79 -145 141 -145
141 -138 163 39 137 66 262 75 352 6 60 20 147 31 194 11 47 29 126 39 175 53
246 171 623 240 768 24 50 53 71 80 57 9 -5 46 -41 83 -81z m-4071 -746 l608
-608 0 273 c0 235 2 272 15 272 13 0 15 -40 15 -300 l0 -300 -290 0 c-251 0
-290 2 -290 15 0 13 36 15 262 15 l263 0 -608 608 c-334 334 -607 613 -607
620 0 6 6 12 12 12 7 0 286 -273 620 -607z m16631 -39 l197 -7 0 -639 0 -638
-127 5 c-344 16 -683 36 -683 42 0 11 83 142 107 169 129 145 153 203 148 354
-2 56 0 113 5 126 13 32 30 138 39 242 5 52 14 89 24 100 22 25 48 127 47 187
-2 78 -2 78 23 72 12 -4 111 -9 220 -13z m-16860 -799 c146 -202 411 -555 558
-742 l127 -161 -71 -12 c-108 -17 -132 -19 -262 -29 -66 -5 -158 -16 -205 -25
-91 -16 -232 -32 -372 -42 l-88 -7 0 733 0 732 106 -153 c59 -85 152 -217 207
-294z m5762 -332 c136 -42 161 -53 252 -114 201 -135 335 -315 413 -554 32
-97 33 -105 33 -265 0 -159 -1 -169 -33 -265 -59 -183 -100 -245 -159 -245
-46 0 -96 29 -228 131 -352 273 -601 634 -733 1061 -44 143 -47 175 -25 218
29 57 79 70 250 66 111 -2 145 -7 230 -33z m3358 4 c34 -22 40 -60 22 -127 -9
-35 -15 -101 -15 -178 0 -117 -1 -125 -30 -183 l-31 -60 -32 19 c-18 11 -50
30 -72 42 -22 12 -47 27 -55 34 -18 13 -24 17 -165 91 -60 32 -131 71 -158 87
-26 15 -50 28 -53 28 -3 0 -20 10 -37 23 -18 12 -41 27 -51 33 -11 6 -22 16
-24 22 -2 6 35 36 81 67 74 48 103 60 219 90 122 32 143 35 254 32 93 -2 127
-7 147 -20z m-4087 -967 c615 -569 1217 -1061 1869 -1527 116 -82 243 -171
283 -198 39 -26 72 -50 72 -53 0 -10 -277 7 -360 22 -47 8 -132 22 -189 30
-165 25 -340 78 -586 178 -69 28 -339 168 -411 213 -190 121 -439 329 -598
501 -111 120 -293 352 -352 449 -214 348 -363 710 -439 1061 -2 11 108 -91
249 -231 139 -138 347 -338 462 -445z m12024 1 l0 -569 -112 5 c-408 15 -864
50 -1218 93 -181 22 -624 88 -653 96 -20 6 137 119 558 399 208 138 291 200
415 310 155 139 225 184 310 200 81 15 348 32 518 34 l182 1 0 -569z m-14413
487 c51 -48 143 -160 143 -174 0 -3 12 -26 27 -52 15 -25 28 -51 29 -57 1 -6
22 -42 47 -80 55 -85 161 -189 282 -275 118 -84 271 -216 322 -277 22 -26 68
-93 102 -147 34 -54 78 -119 98 -142 43 -54 210 -189 318 -259 217 -141 320
-237 456 -425 47 -64 178 -196 230 -231 83 -55 186 -123 219 -144 210 -131
320 -214 411 -310 180 -188 250 -256 306 -298 34 -26 64 -47 66 -47 3 0 29
-16 58 -36 30 -20 63 -40 74 -45 11 -5 34 -17 50 -27 17 -10 53 -31 80 -46 28
-16 70 -40 95 -55 l45 -26 -1184 -3 c-917 -2 -1187 1 -1198 10 -9 7 -24 17
-34 23 -144 80 -366 244 -437 322 -78 84 -86 94 -112 138 -13 22 -27 42 -31
45 -4 3 -22 25 -41 50 -57 75 -140 147 -316 275 l-167 121 0 159 c0 135 3 169
20 215 30 84 27 204 -9 295 -25 64 -28 85 -33 240 -5 146 -3 176 12 210 35 83
25 238 -24 361 -16 41 -19 80 -22 234 -3 175 -2 188 20 245 19 48 24 80 25
163 0 56 4 102 9 102 4 0 33 -24 64 -52z m-778 -34 c14 -17 21 -41 21 -69 0
-45 -26 -145 -38 -145 -5 0 -16 -24 -27 -52 -10 -29 -21 -57 -25 -63 -15 -19
-30 -121 -26 -171 3 -28 11 -67 19 -86 23 -54 29 -112 18 -155 -6 -22 -15 -84
-19 -139 -7 -82 -14 -109 -40 -158 -18 -32 -32 -65 -32 -72 0 -8 -4 -14 -9
-14 -5 0 -13 -26 -17 -57 l-7 -57 -48 54 c-26 30 -46 56 -44 58 2 2 -10 25
-26 50 -16 25 -29 50 -29 55 0 5 -10 26 -22 46 -13 20 -23 38 -23 41 0 3 -21
32 -47 65 -60 78 -115 129 -283 262 -79 62 -218 202 -238 239 -9 16 -25 49
-37 74 -12 25 -29 59 -38 75 -9 17 -15 30 -13 30 6 0 -23 61 -38 78 -8 9 -12
20 -9 22 3 3 79 12 169 20 277 24 373 35 409 45 19 6 98 15 175 21 77 6 165
14 195 19 95 13 107 12 129 -16z m13135 -832 c3 -5 -27 -31 -67 -59 -40 -27
-126 -87 -192 -133 -138 -96 -158 -109 -435 -292 -113 -74 -230 -147 -260
-162 l-55 -27 60 56 c63 60 190 158 500 389 336 250 311 235 382 236 34 0 64
-4 67 -8z m-15290 -224 c1 -8 10 -27 19 -41 10 -15 14 -27 10 -27 -3 0 3 -10
15 -23 12 -13 20 -26 16 -29 -3 -3 37 -48 88 -100 89 -89 106 -104 173 -156
105 -81 255 -226 255 -248 0 -6 7 -17 16 -25 9 -7 32 -47 52 -88 19 -42 45
-89 56 -106 12 -16 20 -31 18 -33 -1 -1 15 -26 37 -55 42 -55 141 -148 220
-207 126 -92 211 -162 264 -217 67 -69 137 -160 137 -177 0 -6 23 -47 51 -91
61 -95 163 -199 279 -284 91 -67 109 -90 110 -133 l0 -28 -902 0 c-825 0 -903
1 -920 17 -17 15 -18 61 -18 1052 0 735 3 1032 11 1024 6 -6 11 -17 13 -25z
m2597 -823 l247 -250 7 -140 c4 -77 10 -288 14 -470 5 -205 12 -340 19 -357
l12 -28 -483 0 -483 0 -47 48 -48 49 15 84 c8 46 22 168 31 271 8 103 24 238
34 300 11 62 25 176 30 253 6 77 15 156 21 175 12 45 26 164 45 371 8 92 19
188 26 214 l12 47 150 -159 c83 -87 262 -270 398 -408z m9773 259 c892 -332
1918 -607 2776 -744 74 -12 142 -24 150 -27 25 -9 -74 -31 -240 -53 -85 -11
-184 -27 -220 -35 -36 -8 -110 -21 -165 -30 -192 -31 -394 -97 -640 -210 -76
-34 -122 -50 -330 -110 -49 -14 -128 -39 -175 -55 -47 -16 -101 -33 -120 -38
-19 -5 -109 -32 -200 -60 -272 -84 -505 -101 -692 -51 -86 23 -253 167 -435
378 -174 200 -192 300 -103 555 78 223 214 536 233 536 5 0 78 -25 161 -56z
m-2984 -184 c58 -43 110 -83 115 -87 10 -8 39 -27 140 -92 67 -44 361 -187
510 -249 314 -131 560 -251 830 -404 245 -139 551 -263 1035 -420 l195 -63
-1559 -3 -1559 -2 -84 40 c-46 22 -87 40 -89 40 -26 0 -469 232 -519 272 -5 4
-39 29 -75 55 -56 40 -97 73 -217 173 -12 10 -34 27 -50 37 -15 10 -36 25 -46
34 -19 17 -204 129 -277 168 -69 36 -68 39 16 45 44 4 95 11 114 16 19 5 73
14 120 19 121 14 166 24 333 75 203 61 335 117 662 282 154 78 285 142 290
143 6 0 57 -35 115 -79z m7960 -418 l0 -329 -102 4 c-509 18 -898 49 -1388
109 -210 26 -291 42 -219 43 19 1 58 8 86 16 28 8 127 26 220 39 93 14 196 31
229 39 32 8 76 18 96 21 28 5 47 19 82 59 43 50 46 52 93 50 26 -1 125 -5 219
-8 l170 -7 100 42 c108 46 315 166 373 217 20 18 37 32 39 33 1 0 2 -148 2
-328z m-6592 -1076 c27 -26 27 -27 27 -177 l0 -151 -28 -24 c-40 -34 -124 -34
-164 0 -28 24 -28 26 -31 153 -4 147 6 196 46 218 42 24 117 14 150 -19z
m1170 0 c27 -26 27 -27 27 -177 l0 -151 -28 -24 c-40 -34 -124 -34 -164 0 -28
24 -28 26 -31 153 -4 147 6 196 46 218 42 24 117 14 150 -19z m-11718 -16 l0
-40 -40 0 -40 0 0 -40 c0 -39 1 -40 35 -40 33 0 35 -2 35 -35 0 -33 -2 -35
-35 -35 l-35 0 0 -85 0 -85 -50 0 -50 0 0 200 0 200 90 0 90 0 0 -40z m150
-160 l0 -200 -50 0 -50 0 0 200 0 200 50 0 50 0 0 -200z m830 160 l0 -40 -40
0 -40 0 0 -40 c0 -39 1 -40 35 -40 33 0 35 -2 35 -35 0 -33 -2 -35 -35 -35
l-35 0 0 -85 0 -85 -50 0 -50 0 0 200 0 200 90 0 90 0 0 -40z m735 -32 c6 -36
13 -69 17 -73 3 -4 9 28 13 69 l7 76 69 0 69 0 0 -200 0 -200 -45 0 -45 0 -1
123 c-1 107 -2 115 -10 67 -32 -204 -28 -190 -60 -190 -16 0 -29 1 -30 3 0 1
-9 54 -19 117 l-18 115 -1 -117 -1 -118 -45 0 -45 0 0 200 0 201 68 -3 67 -3
10 -67z m1455 20 c0 -40 3 -49 12 -40 17 17 84 15 102 -4 23 -22 23 -249 0
-282 -17 -25 -81 -31 -102 -10 -9 9 -12 9 -12 0 0 -8 -18 -12 -50 -12 l-50 0
0 200 0 200 50 0 50 0 0 -52z m645 -11 c9 -52 25 -70 25 -28 0 9 5 33 11 54
10 36 12 37 54 37 25 0 45 -4 45 -9 0 -5 -16 -60 -35 -121 -28 -88 -35 -128
-35 -191 l0 -79 -50 0 -50 0 0 73 c0 53 -9 105 -35 194 -19 67 -35 125 -35
128 0 3 21 5 48 3 l47 -3 10 -58z m1675 23 l0 -40 -40 0 -40 0 0 -40 c0 -39 1
-40 35 -40 33 0 35 -2 35 -35 0 -33 -2 -35 -35 -35 l-35 0 0 -85 0 -85 -50 0
-50 0 0 200 0 200 90 0 90 0 0 -40z m2090 -4 l0 -43 49 5 c74 7 81 -9 81 -180
l0 -138 -50 0 -49 0 -3 133 c-2 79 -7 132 -13 132 -6 0 -11 -53 -13 -132 l-3
-133 -49 0 -50 0 0 200 0 200 50 0 50 0 0 -44z m550 -186 l0 -230 -25 0 -25 0
0 230 0 230 25 0 25 0 0 -230z m400 218 c0 -7 13 -97 29 -200 l28 -188 -53 0
-54 0 0 35 c0 28 -4 35 -20 35 -13 0 -20 -7 -20 -19 0 -42 -10 -51 -61 -51
-35 0 -49 4 -49 14 0 16 37 304 45 354 l6 32 74 0 c53 0 75 -4 75 -12z m1732
-27 c49 -55 37 -112 -55 -254 l-38 -57 56 0 c52 0 55 -1 55 -25 l0 -25 -110 0
c-102 0 -110 1 -110 19 0 11 30 76 66 146 65 126 78 180 44 180 -10 0 -16 -13
-18 -42 l-3 -43 -45 0 c-42 0 -44 1 -44 29 0 77 43 114 124 107 41 -3 55 -9
78 -35z m668 -5 l0 -43 49 5 c74 7 81 -9 81 -180 l0 -138 -50 0 -49 0 -3 133
c-2 79 -7 132 -13 132 -6 0 -11 -53 -13 -132 l-3 -133 -49 0 -50 0 0 200 0
200 50 0 50 0 0 -44z m502 5 c49 -55 37 -112 -55 -254 l-38 -57 56 0 c52 0 55
-1 55 -25 l0 -25 -110 0 c-102 0 -110 1 -110 19 0 11 30 76 66 146 65 126 78
180 44 180 -10 0 -16 -13 -18 -42 l-3 -43 -45 0 c-42 0 -44 1 -44 29 0 77 43
114 124 107 41 -3 55 -9 78 -35z m548 -161 l0 -200 -50 0 -50 0 0 139 c0 148
-1 151 -51 151 -13 0 -19 7 -19 24 0 19 7 26 28 30 15 4 41 18 57 31 17 13 42
24 58 25 l27 0 0 -200z m280 175 c0 -24 -2 -25 -65 -25 l-65 0 0 -40 c0 -37 2
-40 19 -30 31 16 76 12 102 -9 21 -17 24 -29 28 -106 5 -135 -17 -165 -124
-165 -75 0 -106 27 -113 98 l-5 52 52 0 51 0 0 -50 c0 -44 3 -50 20 -50 20 0
21 5 18 92 -2 65 -7 93 -16 96 -7 2 -16 -5 -19 -17 -4 -18 -13 -21 -54 -21
l-49 0 0 100 0 100 110 0 110 0 0 -25z m270 -205 l0 -230 -25 0 -25 0 0 230 0
230 25 0 25 0 0 -230z m333 153 l25 -78 1 78 1 77 45 0 45 0 0 -201 0 -200
-47 3 -48 3 -22 80 -21 80 -1 -82 -1 -83 -45 0 -45 0 0 200 0 200 44 0 45 0
24 -77z m774 67 c37 -13 53 -46 53 -105 0 -32 -6 -51 -21 -66 l-21 -21 21 -14
c18 -13 21 -25 21 -100 l0 -84 -50 0 -49 0 -3 87 c-2 58 -7 88 -15 91 -10 3
-13 -19 -13 -87 l0 -91 -50 0 -50 0 0 200 0 200 74 0 c40 0 87 -5 103 -10z
m683 -34 l0 -43 49 5 c74 7 81 -9 81 -180 l0 -138 -50 0 -49 0 -3 133 c-2 79
-7 132 -13 132 -6 0 -11 -53 -13 -132 l-3 -133 -49 0 -50 0 0 200 0 200 50 0
50 0 0 -44z m937 34 c37 -13 53 -46 53 -105 0 -32 -6 -51 -21 -66 l-21 -21 21
-14 c18 -13 21 -25 21 -100 l0 -84 -50 0 -49 0 -3 87 c-2 58 -7 88 -15 91 -10
3 -13 -19 -13 -87 l0 -91 -50 0 -50 0 0 200 0 200 74 0 c40 0 87 -5 103 -10z
m1953 -190 l0 -200 -50 0 c-32 0 -50 4 -50 12 0 9 -3 9 -12 0 -17 -17 -78 -15
-100 5 -16 14 -18 33 -18 141 0 103 3 129 17 144 19 21 82 25 101 6 9 -9 12 0
12 40 l0 52 50 0 50 0 0 -200z m-16600 145 c0 -16 6 -25 15 -25 9 0 15 -9 15
-25 0 -16 -6 -25 -15 -25 -12 0 -15 -19 -15 -110 0 -91 3 -110 15 -110 9 0 15
-9 15 -25 0 -23 -4 -25 -43 -25 -23 0 -53 7 -65 16 -21 14 -22 22 -22 135 0
73 -4 119 -10 119 -5 0 -10 11 -10 25 0 14 5 25 10 25 6 0 10 11 10 25 0 23 3
25 50 25 47 0 50 -2 50 -25z m4220 0 c0 -16 6 -25 15 -25 9 0 15 -9 15 -25 0
-16 -6 -25 -15 -25 -12 0 -15 -19 -15 -110 0 -91 3 -110 15 -110 9 0 15 -9 15
-25 0 -23 -4 -25 -43 -25 -23 0 -53 7 -65 16 -21 14 -22 22 -22 135 0 73 -4
119 -10 119 -5 0 -10 11 -10 25 0 14 5 25 10 25 6 0 10 11 10 25 0 23 3 25 50
25 47 0 50 -2 50 -25z m5050 0 c0 -16 6 -25 15 -25 9 0 15 -9 15 -25 0 -16 -6
-25 -15 -25 -12 0 -15 -19 -15 -110 0 -91 3 -110 15 -110 9 0 15 -9 15 -25 0
-23 -4 -25 -43 -25 -23 0 -53 7 -65 16 -21 14 -22 22 -22 135 0 73 -4 119 -10
119 -5 0 -10 11 -10 25 0 14 5 25 10 25 6 0 10 11 10 25 0 23 3 25 50 25 47 0
50 -2 50 -25z m880 0 c0 -16 6 -25 15 -25 9 0 15 -9 15 -25 0 -16 -6 -25 -15
-25 -12 0 -15 -19 -15 -110 0 -91 3 -110 15 -110 9 0 15 -9 15 -25 0 -23 -4
-25 -43 -25 -23 0 -53 7 -65 16 -21 14 -22 22 -22 135 0 73 -4 119 -10 119 -5
0 -10 11 -10 25 0 14 5 25 10 25 6 0 10 11 10 25 0 23 3 25 50 25 47 0 50 -2
50 -25z m3860 0 c0 -16 6 -25 15 -25 9 0 15 -9 15 -25 0 -16 -6 -25 -15 -25
-12 0 -15 -19 -15 -110 0 -91 3 -110 15 -110 9 0 15 -9 15 -25 0 -23 -4 -25
-43 -25 -23 0 -53 7 -65 16 -21 14 -22 22 -22 135 0 73 -4 119 -10 119 -5 0
-10 11 -10 25 0 14 5 25 10 25 6 0 10 11 10 25 0 23 3 25 50 25 47 0 50 -2 50
-25z m-8920 -75 c0 -57 -1 -60 -24 -60 -32 0 -36 -15 -36 -121 l0 -89 -50 0
-50 0 0 160 0 160 50 0 c28 0 50 -4 50 -9 0 -6 12 -3 28 5 15 7 28 14 30 14 1
0 2 -27 2 -60z m10690 0 c0 -57 -1 -60 -24 -60 -32 0 -36 -15 -36 -121 l0 -89
-50 0 -50 0 0 160 0 160 50 0 c28 0 50 -4 50 -9 0 -6 12 -3 28 5 15 7 28 14
30 14 1 0 2 -27 2 -60z m-15989 31 c23 -18 24 -26 27 -160 l4 -141 -51 0 c-33
0 -51 4 -51 12 0 9 -3 9 -12 0 -17 -17 -74 -15 -92 4 -11 10 -16 34 -16 68 0
59 7 68 74 101 34 17 42 26 44 53 2 18 -1 32 -7 32 -6 0 -11 -16 -11 -35 l0
-35 -50 0 -50 0 0 35 c0 58 35 85 108 85 44 0 66 -5 83 -19z m729 -141 l0
-160 -50 0 -50 0 0 160 0 160 50 0 50 0 0 -160z m145 105 l11 -50 8 53 8 52
44 0 c24 0 44 -3 44 -7 0 -5 -9 -39 -18 -78 -18 -69 -18 -70 5 -149 13 -44 23
-81 23 -83 0 -2 -22 -3 -49 -3 l-49 0 -8 52 -8 53 -11 -50 c-11 -50 -11 -50
-54 -53 -37 -3 -42 -1 -37 15 3 10 13 48 22 85 17 70 17 65 -22 201 -5 16 0
18 37 15 43 -3 43 -3 54 -53z m866 36 c23 -18 24 -26 27 -160 l4 -141 -51 0
c-33 0 -51 4 -51 12 0 9 -3 9 -12 0 -17 -17 -74 -15 -92 4 -11 10 -16 34 -16
68 0 59 7 68 74 101 34 17 42 26 44 53 2 18 -1 32 -7 32 -6 0 -11 -16 -11 -35
l0 -35 -50 0 -50 0 0 35 c0 58 35 85 108 85 44 0 66 -5 83 -19z m259 -11 c0
-16 -16 -73 -35 -126 -19 -53 -35 -100 -35 -105 0 -5 16 -9 35 -9 31 0 35 -3
35 -25 0 -25 -1 -25 -86 -25 l-86 0 4 38 c3 20 21 81 41 135 l36 97 -34 0
c-31 0 -35 3 -35 25 0 25 1 25 80 25 l80 0 0 -30z m236 7 c22 -19 28 -34 32
-80 l4 -57 -66 0 -66 0 0 -55 c0 -42 3 -55 15 -55 11 0 15 12 15 45 l0 45 50
0 50 0 0 -41 c0 -31 -6 -47 -29 -70 -43 -43 -129 -43 -172 0 -28 29 -29 32
-29 131 0 99 1 102 29 131 25 25 37 29 85 29 43 0 61 -5 82 -23z m805 -84 l15
-108 10 105 9 105 44 3 44 3 -6 -38 c-3 -21 -11 -83 -17 -138 -21 -183 -29
-195 -131 -195 -46 0 -49 2 -49 25 0 16 6 25 15 25 21 0 19 27 -10 170 -14 68
-25 129 -25 136 0 10 13 14 43 14 l44 0 14 -107z m720 88 c23 -18 24 -26 27
-160 l4 -141 -51 0 c-33 0 -51 4 -51 12 0 9 -3 9 -12 0 -17 -17 -74 -15 -92 4
-11 10 -16 34 -16 68 0 59 7 68 74 101 34 17 42 26 44 53 2 18 -1 32 -7 32 -6
0 -11 -16 -11 -35 l0 -35 -50 0 -50 0 0 35 c0 58 35 85 108 85 44 0 66 -5 83
-19z m199 7 c0 -9 3 -9 12 0 7 7 29 12 49 12 61 0 69 -20 69 -182 l0 -138 -50
0 -50 0 0 136 c0 104 -3 135 -12 132 -9 -3 -14 -42 -16 -136 l-3 -132 -49 0
-50 0 0 160 0 160 50 0 c32 0 50 -4 50 -12z m290 -148 l0 -160 -50 0 -50 0 0
160 0 160 50 0 50 0 0 -160z m441 131 c28 -29 29 -32 29 -131 0 -99 -1 -102
-29 -131 -26 -26 -37 -29 -89 -29 -44 0 -66 5 -83 19 -23 18 -24 25 -24 136 0
116 0 117 28 141 22 19 39 24 83 24 48 0 60 -4 85 -29z m845 6 c22 -19 28 -34
32 -80 l4 -57 -66 0 -66 0 0 -55 c0 -42 3 -55 15 -55 11 0 15 12 15 45 l0 45
50 0 50 0 0 -41 c0 -31 -6 -47 -29 -70 -43 -43 -129 -43 -172 0 -28 29 -29 32
-29 131 0 99 1 102 29 131 25 25 37 29 85 29 43 0 61 -5 82 -23z m204 13 c0
-7 6 -7 19 0 28 15 77 12 94 -5 13 -13 16 -13 27 0 7 9 29 15 51 15 61 0 69
-20 69 -182 l0 -138 -50 0 -49 0 -3 130 c-2 78 -7 130 -13 130 -6 0 -11 -52
-13 -130 l-3 -130 -49 0 -50 0 0 136 c0 104 -3 135 -12 132 -9 -3 -14 -42 -16
-136 l-3 -132 -49 0 -50 0 0 160 0 160 50 0 c28 0 50 -5 50 -10z m420 -150 l0
-160 -50 0 -50 0 0 160 0 160 50 0 50 0 0 -160z m170 148 c0 -9 3 -9 12 0 7 7
29 12 49 12 61 0 69 -20 69 -182 l0 -138 -50 0 -50 0 0 136 c0 104 -3 135 -12
132 -9 -3 -14 -42 -16 -136 l-3 -132 -49 0 -50 0 0 160 0 160 50 0 c32 0 50
-4 50 -12z m381 -17 c28 -29 29 -32 29 -131 0 -99 -1 -102 -29 -131 -26 -26
-37 -29 -89 -29 -44 0 -66 5 -83 19 -23 18 -24 25 -24 136 0 116 0 117 28 141
22 19 39 24 83 24 48 0 60 -4 85 -29z m273 8 c17 -14 26 -30 26 -50 0 -28 -2
-29 -45 -29 -41 0 -45 2 -45 25 0 16 -6 25 -16 25 -28 0 -11 -43 25 -65 67
-40 91 -70 91 -115 0 -64 -32 -90 -110 -90 -51 0 -65 4 -85 25 -16 15 -25 36
-25 55 0 29 2 30 45 30 43 0 45 -1 45 -30 0 -23 4 -30 20 -30 15 0 20 7 20 25
0 20 -11 31 -55 56 -63 35 -75 52 -75 104 0 56 35 85 103 85 40 0 61 -6 81
-21z m486 -139 l0 -160 -50 0 -50 0 0 160 0 160 50 0 50 0 0 -160z m860 25 c0
-113 2 -135 15 -135 13 0 15 22 15 135 l0 135 50 0 50 0 0 -160 0 -160 -50 0
c-32 0 -50 4 -50 12 0 9 -3 9 -12 0 -7 -7 -29 -12 -49 -12 -61 0 -69 20 -69
182 l0 138 50 0 50 0 0 -135z m308 123 c9 -9 12 -9 12 0 0 8 18 12 50 12 l50
0 0 -158 c0 -154 -1 -159 -24 -181 -55 -52 -206 -33 -206 25 0 10 13 14 50 14
28 0 50 -4 50 -10 0 -5 7 -10 15 -10 9 0 15 9 15 24 0 22 -3 23 -49 18 -69 -6
-81 13 -81 138 0 116 12 140 69 140 20 0 42 -5 49 -12z m272 -123 c0 -113 2
-135 15 -135 13 0 15 22 15 135 l0 135 50 0 50 0 0 -160 0 -160 -50 0 c-32 0
-50 4 -50 12 0 9 -3 9 -12 0 -7 -7 -29 -12 -49 -12 -61 0 -69 20 -69 182 l0
138 50 0 50 0 0 -135z m364 114 c17 -14 26 -30 26 -50 0 -28 -2 -29 -45 -29
-41 0 -45 2 -45 25 0 16 -6 25 -16 25 -28 0 -11 -43 25 -65 67 -40 91 -70 91
-115 0 -64 -32 -90 -110 -90 -51 0 -65 4 -85 25 -16 15 -25 36 -25 55 0 29 2
30 45 30 43 0 45 -1 45 -30 0 -23 4 -30 20 -30 15 0 20 7 20 25 0 20 -11 31
-55 56 -63 35 -75 52 -75 104 0 56 35 85 103 85 40 0 61 -6 81 -21z m3567 -8
c28 -29 29 -32 29 -131 0 -99 -1 -102 -29 -131 -26 -26 -37 -29 -89 -29 -44 0
-66 5 -83 19 -23 18 -24 25 -24 136 0 116 0 117 28 141 22 19 39 24 83 24 48
0 60 -4 85 -29z m619 -131 l0 -160 -50 0 -50 0 0 160 0 160 50 0 50 0 0 -160z
m188 148 c9 -9 12 -9 12 0 0 8 18 12 50 12 l50 0 0 -158 c0 -154 -1 -159 -24
-181 -55 -52 -206 -33 -206 25 0 10 13 14 50 14 28 0 50 -4 50 -10 0 -5 7 -10
15 -10 9 0 15 9 15 24 0 22 -3 23 -49 18 -69 -6 -81 13 -81 138 0 116 12 140
69 140 20 0 42 -5 49 -12z m816 -9 c17 -14 26 -30 26 -50 0 -28 -2 -29 -45
-29 -41 0 -45 2 -45 25 0 16 -6 25 -16 25 -28 0 -11 -43 25 -65 67 -40 91 -70
91 -115 0 -64 -32 -90 -110 -90 -51 0 -65 4 -85 25 -16 15 -25 36 -25 55 0 29
2 30 45 30 43 0 45 -1 45 -30 0 -23 4 -30 20 -30 15 0 20 7 20 25 0 20 -11 31
-55 56 -63 35 -75 52 -75 104 0 56 35 85 103 85 40 0 61 -6 81 -21z m702 -2
c22 -19 28 -34 32 -80 l4 -57 -66 0 -66 0 0 -55 c0 -42 3 -55 15 -55 11 0 15
12 15 45 l0 45 50 0 50 0 0 -41 c0 -31 -6 -47 -29 -70 -26 -25 -37 -29 -86
-29 -49 0 -60 4 -86 29 -28 29 -29 32 -29 131 0 99 1 102 29 131 25 25 37 29
85 29 43 0 61 -5 82 -23z m278 2 c17 -14 26 -30 26 -50 0 -28 -2 -29 -45 -29
-41 0 -45 2 -45 25 0 16 -6 25 -16 25 -28 0 -11 -43 25 -65 67 -40 91 -70 91
-115 0 -64 -32 -90 -110 -90 -51 0 -65 4 -85 25 -16 15 -25 36 -25 55 0 29 2
30 45 30 43 0 45 -1 45 -30 0 -23 4 -30 20 -30 15 0 20 7 20 25 0 20 -11 31
-55 56 -63 35 -75 52 -75 104 0 56 35 85 103 85 40 0 61 -6 81 -21z m282 -2
c22 -19 28 -34 32 -80 l4 -57 -66 0 -66 0 0 -55 c0 -42 3 -55 15 -55 11 0 15
12 15 45 l0 45 50 0 50 0 0 -41 c0 -31 -6 -47 -29 -70 -26 -25 -37 -29 -86
-29 -49 0 -60 4 -86 29 -28 29 -29 32 -29 131 0 99 1 102 29 131 25 25 37 29
85 29 43 0 61 -5 82 -23z m404 -84 c7 -60 14 -103 16 -98 1 6 6 54 9 108 l7
97 45 0 46 0 -7 -37 c-3 -21 -14 -93 -23 -161 l-17 -123 -65 3 -65 3 -23 130
c-12 72 -23 142 -23 158 0 25 3 27 44 27 l43 0 13 -107z m356 84 c22 -19 28
-34 32 -80 l4 -57 -66 0 -66 0 0 -55 c0 -42 3 -55 15 -55 11 0 15 12 15 45 l0
45 50 0 50 0 0 -41 c0 -31 -6 -47 -29 -70 -26 -25 -37 -29 -86 -29 -49 0 -60
4 -86 29 -28 29 -29 32 -29 131 0 99 1 102 29 131 25 25 37 29 85 29 43 0 61
-5 82 -23z"/>
<path d="M15838 12592 c-69 -262 -124 -479 -122 -481 2 -2 99 -30 216 -61 170
-46 214 -54 216 -43 2 8 14 52 27 98 l23 83 -89 22 c-67 17 -89 26 -89 39 0
13 25 111 46 182 4 15 11 15 80 -3 42 -10 77 -18 78 -16 9 12 46 170 42 177
-3 4 -32 14 -64 21 -33 7 -65 15 -71 19 -16 10 28 181 47 181 7 0 43 -9 82
-19 l69 -19 10 31 c17 54 42 159 39 162 -5 5 -389 105 -402 105 -6 0 -65 -204
-138 -478z"/>
<path d="M16981 12763 c-24 -88 -28 -83 92 -115 60 -16 114 -27 121 -25 12 5
40 106 32 114 -5 5 -216 63 -228 63 -4 0 -12 -17 -17 -37z"/>
<path d="M16374 12581 c3 -148 1 -205 -9 -223 -7 -13 -26 -48 -42 -78 -17 -30
-40 -73 -53 -95 -13 -22 -36 -65 -52 -95 -16 -30 -34 -60 -40 -68 -7 -8 -7
-16 -2 -21 14 -13 174 -53 188 -48 13 5 76 126 76 146 0 6 5 11 10 11 6 0 10
8 10 19 0 10 7 24 15 31 13 10 14 6 9 -36 -3 -27 -6 -85 -7 -128 l-2 -79 105
-28 c58 -16 110 -29 115 -29 7 0 9 75 8 218 -3 206 1 246 27 272 3 3 15 23 26
45 12 22 32 60 45 85 13 25 27 47 30 50 3 3 12 20 20 38 8 17 17 32 21 32 4 0
8 10 10 23 3 20 -6 24 -101 50 -57 15 -104 27 -105 25 -12 -17 -56 -118 -56
-126 0 -7 -4 -12 -10 -12 -5 0 -10 -9 -10 -20 0 -11 -4 -20 -10 -20 -5 0 -10
-8 -10 -17 0 -10 -5 -25 -10 -33 -9 -13 -8 75 4 226 l2 32 -97 26 c-54 14
-100 26 -103 26 -3 0 -4 -90 -2 -199z"/>
<path d="M17318 12593 c-13 -52 -17 -58 -40 -58 -23 1 -28 -6 -42 -58 -9 -33
-15 -60 -14 -61 2 -1 12 -6 24 -12 20 -9 20 -13 -47 -261 -37 -139 -69 -268
-70 -287 -5 -48 26 -99 75 -124 40 -21 204 -68 210 -61 1 2 9 30 18 62 14 54
14 59 -1 63 -32 10 -46 21 -49 40 -1 10 26 125 61 254 l64 235 35 -2 c36 -2
36 -2 51 58 16 63 16 63 -24 73 l-27 6 15 60 c9 34 14 63 12 65 -4 3 -224 65
-233 65 -2 0 -10 -26 -18 -57z"/>
<path d="M16841 12239 c-57 -215 -101 -391 -100 -393 2 -1 57 -16 121 -33
l117 -30 16 61 c9 34 56 210 104 391 l88 330 -96 26 c-53 14 -107 29 -121 32
l-25 6 -104 -390z"/>
<path d="M422 9275 c-216 -155 -397 -286 -403 -292 -9 -9 231 -354 251 -361 7
-3 117 69 159 104 2 2 -21 38 -52 80 l-54 78 89 64 c51 36 93 60 97 55 3 -6
24 -35 45 -66 l39 -57 51 37 c28 21 63 46 78 56 l26 20 -44 60 c-24 34 -44 64
-44 67 0 7 125 99 144 106 6 2 31 -26 55 -62 25 -35 50 -63 57 -60 6 2 43 28
83 56 47 35 68 57 63 64 -5 6 -60 82 -122 169 -62 87 -116 159 -119 161 -3 2
-183 -123 -399 -279z"/>
<path d="M643 8807 c-178 -128 -323 -235 -323 -239 0 -16 136 -197 145 -194 6
2 123 84 260 183 138 99 258 182 267 186 10 3 27 -2 40 -13 15 -13 18 -19 9
-20 -8 0 -12 -3 -8 -6 3 -4 -35 -36 -86 -73 -51 -37 -172 -124 -269 -194
l-177 -128 66 -92 c36 -51 69 -96 73 -101 5 -4 129 79 277 185 248 178 331
247 334 273 2 21 2 71 1 97 -1 16 -19 45 -46 73 -44 45 -57 50 -130 49 -17 0
-15 3 8 22 16 13 27 27 25 32 -7 17 -134 193 -139 192 -3 0 -150 -104 -327
-232z"/>
<path d="M1412 8523 c-50 -35 -53 -36 -66 -18 -13 18 -16 18 -65 -15 -28 -20
-48 -41 -46 -47 3 -7 7 -19 10 -25 3 -8 -82 -75 -219 -173 -123 -88 -232 -173
-241 -189 -19 -30 -22 -100 -6 -119 5 -7 9 -16 10 -20 0 -4 25 -44 56 -87 l56
-80 54 37 53 37 -17 26 c-10 14 -16 32 -14 40 3 12 354 272 409 303 10 6 21 1
35 -17 l21 -26 53 37 53 37 -19 25 c-25 32 -24 36 14 60 76 49 76 39 1 143
-36 51 -69 96 -73 100 -3 4 -30 -9 -59 -29z"/>
<path d="M1500 8112 c-8 -3 -26 -9 -40 -15 -14 -6 -28 -11 -31 -11 -13 -2
-308 -216 -342 -248 -70 -67 -91 -151 -61 -241 9 -29 15 -52 13 -52 -6 -1 60
-85 90 -116 38 -39 107 -70 163 -75 57 -4 114 17 190 73 l47 34 -67 94 c-37
52 -71 95 -75 95 -4 0 -33 -18 -63 -41 -69 -51 -112 -67 -125 -48 -20 30 -2
54 90 121 l94 68 46 -64 c25 -35 67 -94 94 -130 l47 -66 73 52 c91 66 134 111
159 167 31 68 28 134 -10 211 -28 58 -112 165 -112 143 0 -4 -4 -3 -8 3 -11
17 -71 46 -82 39 -6 -3 -10 -3 -10 2 0 9 -58 13 -80 5z"/>
<path d="M1614 7437 l-320 -232 70 -97 c38 -54 73 -98 78 -98 5 0 87 56 182
125 95 68 184 129 198 134 37 14 73 2 112 -36 l35 -35 108 77 c59 43 110 80
113 82 3 3 -10 18 -28 34 -31 28 -55 34 -124 31 -39 -1 -35 5 17 29 l46 21
-24 32 c-13 17 -45 61 -71 99 -26 37 -53 67 -59 66 -7 0 -156 -105 -333 -232z"/>
<path d="M12125 4711 c-59 -15 -75 -29 -75 -67 0 -45 15 -51 190 -75 265 -36
504 -96 855 -214 414 -139 587 -183 620 -155 23 19 18 54 -12 82 -37 35 -318
175 -473 236 -255 101 -447 160 -580 177 -137 18 -477 29 -525 16z"/>
</g>
</svg>
