<?xml version="1.0" encoding="UTF-8" standalone="no"?>
<svg
   xmlns:dc="http://purl.org/dc/elements/1.1/"
   xmlns:cc="http://creativecommons.org/ns#"
   xmlns:rdf="http://www.w3.org/1999/02/22-rdf-syntax-ns#"
   xmlns:svg="http://www.w3.org/2000/svg"
   xmlns="http://www.w3.org/2000/svg"
   id="svg7618"
   version="1.1"
   viewBox="0 0 1197.7181 649.72418"
   height="649.72418mm"
   width="1197.7181mm">
  <defs
     id="defs7612" />
  <metadata
     id="metadata7615">
    <rdf:RDF>
      <cc:Work
         rdf:about="">
        <dc:format>image/svg+xml</dc:format>
        <dc:type
           rdf:resource="http://purl.org/dc/dcmitype/StillImage" />
        <dc:title></dc:title>
      </cc:Work>
    </rdf:RDF>
  </metadata>
  <g
     transform="translate(1421.2915,567.81926)"
     id="layer1">
    <path
       id="path8174"
       d="m -312.11763,81.607068 c -6.82477,-0.21219 -24.42979,-0.41663 -29.21332,-0.33919 -1.03018,0.0166 -2.1844,-0.13632 -2.56494,-0.33997 -0.38054,-0.20366 -0.86991,-0.26025 -1.08751,-0.12577 -0.39408,0.24356 -7.18876,0.22828 -21.28149,-0.0479 -4.07684,-0.0799 -14.71497,-0.23982 -23.64024,-0.35539 -8.92528,-0.11553 -18.52966,-0.26966 -21.34306,-0.34244 -7.92466,-0.20504 -9.54853,-0.16295 -10.23408,0.26518 -0.47594,0.29722 -1.11065,0.28438 -2.52113,-0.0511 -1.29826,-0.30872 -2.87345,-0.36717 -5.06007,-0.18768 -1.74625,0.14334 -3.88937,0.24839 -4.7625,0.23347 -0.87312,-0.0148 -2.77812,-0.004 -4.23333,0.0236 -1.45521,0.0279 -3.67771,0.0419 -4.93889,0.031 -1.26118,-0.0109 -6.97618,-0.024 -12.7,-0.0293 -5.72382,-0.005 -14.61382,-0.0131 -19.75556,-0.0173 -5.14174,-0.005 -10.22174,-0.0321 -11.28889,-0.0615 -1.06715,-0.0293 -3.05153,0.0187 -4.40972,0.10633 -1.3582,0.0878 -2.91518,-0.008 -3.46001,-0.21375 -0.82984,-0.31274 -1.16015,-0.2479 -2.03602,0.39966 -0.61623,0.45561 -1.2234,0.65931 -1.47888,0.49615 -0.55598,-0.35511 -8.33159,-0.52998 -19.30704,-0.43424 -4.75368,0.0415 -9.1193,0.0619 -9.70139,0.0453 -8.10253,-0.23047 -11.13359,-0.23397 -14.07569,-0.0162 -1.9208,0.14217 -4.23291,0.11807 -5.13803,-0.0536 -1.97887,-0.37528 -5.60973,0.0557 -6.0167,0.7142 -0.21907,0.35444 -0.41148,0.37377 -0.76888,0.0771 -0.59676,-0.4953 -2.7716,-0.75085 -8.39653,-0.98668 -5.36328,-0.2249 -4.3936,-0.24645 -8.81945,0.19621 -2.03729,0.20377 -4.05151,0.28582 -4.47601,0.18239 -0.42449,-0.10347 -1.67276,0.0465 -2.77389,0.33334 -1.16187,0.30265 -2.24441,0.40047 -2.57954,0.23311 -0.31761,-0.1586 -2.00625,-0.23498 -3.7525,-0.16975 -3.74386,0.13987 -3.72869,0.14012 -7.58472,-0.1179 -1.64924,-0.11035 -5.30049,-0.16937 -8.1139,-0.13113 -2.8134,0.0383 -12.17965,0.15272 -20.81389,0.25432 -8.63423,0.10163 -16.09548,0.19325 -16.58055,0.20359 -0.48507,0.0102 -12.86757,-0.0954 -27.51667,-0.23509 -14.6491,-0.13963 -56.00348,-0.20588 -91.89862,-0.14718 -35.89514,0.0587 -75.26514,0.074 -87.48889,0.0339 -12.22375,-0.04 -23.25687,-0.0562 -24.51805,-0.0361 -1.26118,0.0201 -2.61056,0.01 -2.99862,-0.0233 -0.8825,-0.0749 -118.6283,-0.36357 -132.82087,-0.32558 -2.6193,0.007 -13.8906,0.0169 -25.0472,0.0219 -23.431,0.0102 -20.3972,0.0113 -29.8097,-0.008 -4.0746,-0.008 -11.774,-0.0152 -17.1097,-0.0155 -5.3358,-1.8e-4 -14.0671,-0.10725 -19.4028,-0.23791 -9.4603,-0.23167 -21.0527,-0.33073 -32.1028,-0.27432 -14.2162,0.0726 -32.3816,0.10008 -36.6007,0.0555 -9.521,-0.10075 -11.3339,-0.0989 -17.3743,0.0187 -3.3955,0.066 -6.6499,0.12224 -7.2319,0.12506 -9.2891,0.0451 -14.7287,0.0261 -15.875,-0.0553 -3.5744,-0.254 -15.4674,0.32124 -16.415,0.79396 -0.8619,0.42997 -1.0534,0.41967 -1.557,-0.0839 -0.5252,-0.5251 -4.0611,-0.56409 -41.3956,-0.45642 -22.4517,0.0647 -54.9501,0.10732 -72.2186,0.0946 -35.2318,-0.0261 -32.2635,0.21862 -32.2946,-2.66097 -0.01,-0.78754 -0.2443,-2.06689 -0.5239,-2.843 -0.2796,-0.77611 -0.5107,-1.73309 -0.5137,-2.12661 -0.01,-1.21229 -1.5001,-2.92016 -3.533,-4.04675 -3.9257,-2.17537 -4.2459,-2.26946 -7.9428,-2.33394 -2.8378,-0.0495 -3.7749,-0.20278 -4.7625,-0.77894 -0.6762,-0.39454 -2.2053,-0.89147 -3.3981,-1.10433 -1.1927,-0.21287 -2.7008,-0.64051 -3.3514,-0.95028 -1.3095,-0.62361 -7.0036,-6.34781 -7.0036,-7.0407 0,-0.24088 -0.3712,-0.88671 -0.825,-1.43517 -0.6851,-0.82804 -2.7456,-4.35861 -3.7732,-6.46526 -0.2849,-0.58388 -1.3974,-6.86816 -1.5613,-8.81944 -0.1525,-1.81384 -1.4262,-4.85535 -2.3686,-5.6557 -1.9408,-1.64835 -6.0425,-2.93345 -7.7759,-2.43632 -1.9287,0.55316 -2.8833,0.38407 -4.0987,-0.72601 l -1.1572,-1.05696 0.045,-4.67568 c 0.025,-2.57165 0.055,-5.0726 0.068,-5.55766 0.012,-0.48507 0,-6.35882 -0.024,-13.0527801 -0.045,-12.07929 0.098,-19.6391399 0.4835,-25.3999999 0.1103,-1.64924 0.2776,-5.30049 0.3717,-8.11389 0.094,-2.8134 0.2666,-7.8934 0.383,-11.28889 0.1164,-3.39549 0.2756,-11.41236 0.3538,-17.81528 0.078,-6.40291 0.232,-12.46752 0.3419,-13.47692 0.1134,-1.04158 0.019,-2.38241 -0.2178,-3.10046 -0.3217,-0.97469 -0.3216,-1.38084 4e-4,-1.76886 0.2299,-0.277 0.3454,-0.70743 0.2567,-0.95649 -0.089,-0.24906 0.043,-0.85908 0.2937,-1.35562 0.2898,-0.57509 0.3382,-1.08733 0.1333,-1.41111 -0.2224,-0.35165 -0.3232,-0.37243 -0.327,-0.0673 -0.011,0.86966 -0.6633,0.41878 -1.0212,-0.70556 -0.4398,-1.38134 -0.357,-3.61597 0.1339,-3.61597 0.194,0 0.4941,0.83344 0.667,1.85208 0.1728,1.01865 0.4109,1.85187 0.5291,1.85163 0.1183,-2.8e-4 0.2611,-6.86622 0.3174,-15.25764 0.056,-8.391458 0.1611,-15.971558 0.233,-16.844678 0.072,-0.87313 0.1105,-6.74688 0.086,-13.05278 -0.025,-6.3059 0.01,-12.89403 0.072,-14.64028 0.1918,-5.21 0.077,-19.83524 -0.1862,-23.8125 -0.135,-2.03729 -0.2352,-4.10104 -0.2226,-4.58611 0.031,-1.18639 -0.03,-17.73368 -0.1078,-29.28055 -0.035,-5.14174 -0.081,-12.28549 -0.1021,-15.875 -0.049,-8.14476 0.1789,-25.62067 0.4642,-35.63056 0.2101,-7.37064 0.3978,-45.08681 0.2756,-55.38611 -0.033,-2.8134 -0.047,-5.6709 -0.03,-6.35 0.1672,-6.6881 -0.1775,-25.19346 -0.4943,-26.53321 -0.2662,-1.12547 -0.2819,-2.03696 -0.049,-2.82222 0.1934,-0.65122 0.2241,-1.77865 0.07,-2.57096 -0.2083,-1.07024 -0.4018,-23.52549 -0.2509,-29.10416 0.066,-2.44366 0.01,-10.89371 -0.078,-11.81806 -0.056,-0.58208 -0.08,-1.93146 -0.053,-2.99861 0.3141,-12.78518 0.3033,-28.92838 -0.021,-31.57361 -0.2142,-1.74625 -0.332,-4.1275 -0.2618,-5.29167 0.1463,-2.42589 0.2037,-21.13386 0.1055,-34.39583 -0.037,-4.94771 10e-4,-10.34521 0.084,-11.99445 0.083,-1.64923 0.2597,-5.06236 0.3931,-7.58472 0.1334,-2.52236 0.1903,-11.25361 0.1265,-19.40278 -0.064,-8.14916 -0.1248,-16.40416 -0.1356,-18.34444 l -0.02,-3.52778 1.8521,-0.10663 c 1.537,-0.0885 1.852,-0.006 1.852,0.48212 0,0.4516 0.1849,0.52881 0.7938,0.33144 0.4366,-0.14152 1.4625,-0.23345 2.2798,-0.20429 1.1251,0.0401 1.681,-0.14303 2.2887,-0.75398 0.4414,-0.44385 1.3602,-1.0759 2.0417,-1.40457 1.8331,-0.88405 2.8148,-1.86679 2.9862,-2.98961 0.192,-1.25715 0.7112,-3.20236 1.1613,-4.35031 0.1901,-0.48507 0.4603,-2.07097 0.6004,-3.52421 0.1542,-1.59919 0.5912,-3.35344 1.107,-4.44377 0.4687,-0.99082 0.8523,-1.93449 0.8523,-2.09704 0,-0.78214 1.6298,-3.50756 3.0267,-5.06124 0.8577,-0.95389 1.5594,-1.87437 1.5594,-2.04549 0,-0.17113 0.9922,-1.28602 2.2048,-2.47754 1.8826,-1.84973 2.6916,-2.35279 5.5349,-3.44151 1.8314,-0.70131 3.5212,-1.2017 3.7551,-1.11197 0.7015,0.2692 9.4905,-1.26318 11.1756,-1.94852 0.9312,-0.37869 1.472,-1.4175 1.283,-2.46451 -0.049,-0.2686 0.1066,-1.17057 0.3445,-2.00438 0.238,-0.83381 0.3993,-2.54689 0.3585,-3.80685 -0.042,-1.29948 0.094,-2.45903 0.3145,-2.67948 0.5099,-0.50992 66.8174,-0.80252 93.386,-0.41209 6.985,0.10264 13.2556,0.1799 13.9347,0.17169 0.6791,-0.008 3.0604,-0.005 5.2917,0.008 2.2313,0.0124 8.7401,-0.0171 14.4639,-0.0655 11.4533,-0.0969 29.7901,-0.0977 62.7001,-0.003 11.8809,0.0343 21.7263,-0.0147 21.8787,-0.10896 0.4206,-0.25995 29.0658,-0.61974 60.2365,-0.75659 15.3282,-0.0673 34.9338,-0.2085 43.568,-0.31379 8.6343,-0.10528 25.6999,-0.28598 37.9237,-0.40155 12.2237,-0.11557 26.35246,-0.27231 31.39718,-0.3483 7.25474,-0.10928 30.07964,-0.19787 32.63195,-0.12665 2.09624,0.0585 69.54446,-0.42433 77.25834,-0.55305 17.3858,-0.29011 152.18491,-0.92758 187.50139,-0.8867 31.15014,0.0361 44.48955,0.004 70.90834,-0.1686 12.80583,-0.0838 24.55334,-0.0429 26.10556,0.0909 1.55222,0.13384 4.88597,0.12112 7.40833,-0.0283 2.52236,-0.14939 6.49111,-0.33411 8.81945,-0.41048 6.1233,-0.20085 119.02546,-0.18683 122.59028,0.0152 1.64924,0.0935 12.60299,0.15718 24.34167,0.14157 46.69847,-0.0621 143.29838,-0.29776 147.28473,-0.35926 2.32833,-0.0359 4.47146,0.0293 4.7625,0.14504 0.29104,0.11569 0.98287,1.59754 1.53744,3.29299 1.57481,4.81482 3.16027,7.13963 4.86902,7.13963 1.63205,0 8.41935,1.80524 9.29216,2.47147 0.19403,0.14811 0.88149,0.38241 1.52771,0.52068 1.77994,0.38084 6.98348,2.96965 9.83805,4.89454 2.49227,1.68057 7.15508,6.29433 7.15508,7.07981 0,0.2193 0.22189,0.71556 0.49314,1.10278 0.68947,0.98437 3.01149,7.06466 3.42858,8.97795 0.67681,3.10435 0.97554,4.09491 2.18105,7.23194 1.61692,4.20766 2.10739,5.14556 2.59532,4.96282 0.22433,-0.084 0.66749,0.13415 0.98481,0.4848 0.32597,0.36021 1.27427,0.71614 2.17999,0.81822 1.16145,0.13091 1.91308,0.48115 2.72831,1.27133 1.66243,1.61127 2.10852,3.55305 1.81148,7.88501 -0.32805,4.78419 -0.33552,13.6474 -0.024,28.32227 0.14009,6.59694 0.23774,18.74131 0.21696,26.9875 -0.0208,8.24618 -0.0349,15.31055 -0.0314,15.69861 0.0102,1.09076 0.30484,13.11897 0.38587,15.74826 0.0397,1.28849 -0.0289,2.50648 -0.15275,2.70664 -0.12372,0.20016 -0.20944,3.11469 -0.19053,6.47674 0.0402,7.15164 0.0478,6.52276 -0.22935,18.98919 -0.11863,5.33576 -0.21635,10.05858 -0.21717,10.49514 -0.006,3.43597 0.0279,6.40362 0.0823,7.14375 0.12556,1.70545 0.0882,6.59517 -0.1023,13.39069 -0.10587,3.77537 -0.081,7.1885 0.0553,7.58473 0.13628,0.39623 0.12284,3.18104 -0.03,6.18847 -0.26479,5.21606 -0.68583,18.4423 -0.6345,19.93194 0.0134,0.38806 0.0752,3.42514 0.13747,6.74907 0.0622,3.32393 0.21019,6.73705 0.32876,7.58472 0.27844,1.99083 0.32942,13.60796 0.0717,16.35788 -0.21192,2.26166 -0.57168,18.12357 -0.52409,23.10694 0.0159,1.64924 0.008,3.23674 -0.0166,3.52778 -0.44387,5.19437 -0.48052,8.45724 -0.10767,9.5813 0.23555,0.71007 0.35775,1.82132 0.27153,2.46945 -0.0862,0.64813 -0.15402,3.87717 -0.15074,7.17564 0.0229,23.25419 0,41.00255 -0.0528,41.45139 -0.0346,0.29104 0.11123,1.95791 0.32388,3.70416 0.21509,1.76626 0.29824,5.20986 0.1874,7.76111 -0.18948,4.36062 -0.28452,17.19704 -0.13843,18.69723 0.0706,0.72485 -0.24197,14.19595 -0.51157,22.04861 -0.0833,2.42534 -0.14026,6.31472 -0.12661,8.64305 0.0346,5.87806 -0.0109,9.98397 -0.15621,14.11111 -0.2069,5.88324 -0.26814,17.20745 -0.10019,18.52084 0.0868,0.67909 0.16115,2.50472 0.16514,4.05694 0.004,1.55222 0.0247,5.52097 0.0458,8.81945 0.0212,3.29847 0.0286,7.664088 0.0166,9.701388 -0.0414,6.95296 0,8.13389 0.3096,8.9494 0.1706,0.4487 0.20464,2.07148 0.0757,3.60613 -0.12894,1.53466 -0.11578,4.21905 0.0293,5.9653 0.38347,4.61631 0.56131,8.97082 0.83549,20.46111 0.13427,5.6268 0.29552,12.05618 0.35828,14.2875 0.0628,2.23132 0.10583,4.45382 0.0956,4.93889 -0.0102,0.48507 0.0187,5.64444 0.0646,11.46528 0.16735,21.2888999 0.13105,30.7917099 -0.13484,35.2777699 -0.1495,2.5223601 -0.2511,5.9354901 -0.22577,7.5847301 0.20814,13.5595 0.13606,17.55044 -0.32703,18.10917 -0.26451,0.31916 -0.60036,0.50649 -0.7463,0.41628 -0.29108,-0.17992 -4.13561,0.56854 -6.03949,1.17574 -0.65997,0.21046 -1.63731,0.47078 -2.17184,0.57845 -1.17383,0.23646 -3.41369,3.11577 -3.43439,4.4148 -0.008,0.48507 -0.24282,1.51694 -0.52243,2.29306 -0.27958,0.77611 -0.51534,2.13106 -0.52384,3.01095 -0.009,0.95123 -0.63924,3.36967 -1.55395,5.96516 -1.70336,4.83323 -3.31171,7.19599 -6.90298,10.14091 -3.3026,2.70821 -5.09376,3.30193 -13.60717,4.51055 -3.91936,0.5564 -7.62702,1.6044 -10.09767,2.85422 -1.86563,0.94378 -4.46638,3.71471 -4.75145,5.06243 -0.10601,0.50123 -0.34054,1.276 -0.52113,1.7217 -0.18059,0.44566 -0.32836,1.32813 -0.32836,1.96102 0,1.86912 -0.61574,2.35437 -3.4368,2.70859 -2.76687,0.34742 -19.14839,0.3193 -31.13543,-0.0534 z m -516.64308,-5.79793 c 11.87729,-0.24783 43.88312,-0.42683 88.19444,-0.49322 21.77906,-0.0325 31.13709,0.0977 36.68889,0.51071 2.14073,0.15928 15.8272,0.26543 30.1625,0.2339 2.42535,-0.005 7.90223,0.0538 12.17084,0.13133 4.26861,0.0775 14.66674,-0.0187 23.10694,-0.21364 8.44021,-0.19508 25.74396,-0.43173 38.45278,-0.52592 12.70883,-0.0942 30.40945,-0.24927 39.33473,-0.34459 8.92528,-0.0953 18.21216,-0.17928 20.6375,-0.18655 2.50483,-0.007 4.75252,-0.18313 5.20323,-0.40654 0.56011,-0.27764 1.25127,-0.28857 2.34964,-0.0373 0.94682,0.21668 3.60578,0.26141 6.79119,0.11423 3.93283,-0.18168 27.65248,-0.18446 37.51428,-0.004 0.48507,0.009 18.26507,0.0198 39.51111,0.024 21.24605,0.004 39.89917,0.024 41.45139,0.0434 1.55223,0.0194 14.41098,0 28.57501,-0.0404 14.16402,-0.0418 31.94403,0.0169 39.51111,0.13081 24.52568,0.36869 33.37493,0.53619 41.09861,0.77784 9.19939,0.28786 8.67985,0.27954 12.27011,0.19628 2.43727,-0.0566 2.95345,-0.17007 3.11446,-0.68513 0.53086,-1.69816 3.66155,-6.55761 4.86636,-7.5535 0.40665,-0.33612 2.18906,-1.34457 3.96095,-2.24095 2.78402,-1.40843 3.64649,-1.66984 6.35,-1.92479 1.72061,-0.16228 4.0809,-0.53513 5.24507,-0.82853 1.16417,-0.29341 2.83104,-0.64389 3.70417,-0.77883 0.93126,-0.14393 2.63316,-0.89327 4.11709,-1.81278 6.11505,-3.78912 7.47441,-6.01511 8.79732,-14.40575 0.76084,-4.82576 1.91626,-7.60297 4.28707,-10.30471 2.2516,-2.5659 6.20892,-5.74668 7.1496,-5.74668 1.12508,0 1.35936,-0.83771 1.35936,-4.86079 0,-2.17664 0.0865,-4.09748 0.19223,-4.26854 0.43321,-0.70097 0.89948,-38.07407 0.53086,-42.55262 -0.11786,-1.43217 -0.11543,-5.89537 0.005,-8.46666 0.066,-1.41408 0.12089,-13.37889 0.0963,-20.99028 -0.007,-2.23132 -0.10784,-7.94632 -0.22356,-12.7 -0.11574,-4.75368 -0.29816,-13.88181 -0.40534,-20.28472 -0.10721,-6.40292 -0.2594,-13.7848 -0.33821,-16.404168 -0.18337,-6.09335 -0.37458,-43.15065 -0.24662,-47.80139 0.0533,-1.94028 0.0233,-5.51215 -0.0668,-7.9375 -0.0901,-2.42535 -0.17226,-9.8866 -0.1826,-16.58055 -0.0275,-17.75863 -0.0928,-26.59631 -0.22222,-29.98612 -0.0932,-2.44376 -0.15028,-17.92125 -0.0813,-22.04861 0.01,-0.58208 -0.0279,-1.53458 -0.0833,-2.11666 -0.0556,-0.58209 0.0208,-5.74146 0.17008,-11.46528 0.33373,-12.81221 0.48214,-48.79043 0.21315,-51.68194 -0.10827,-1.16417 -0.11751,-4.14873 -0.0205,-6.63235 0.097,-2.48362 0.0698,-4.90911 -0.0604,-5.38998 -0.31923,-1.17872 -0.34639,-5.62864 -0.13127,-21.49156 0.15649,-11.53866 0.24176,-33.11162 0.13942,-35.27778 -0.0183,-0.38806 0.0886,-6.81743 0.23766,-14.2875 0.29556,-14.81333 0.29309,-14.59794 0.18355,-15.875 -0.0416,-0.48507 0.0413,-3.8982 0.18426,-7.58473 0.14295,-3.68652 0.24328,-7.02027 0.22296,-7.40833 -0.0374,-0.71502 -0.48504,-33.38571 -0.49298,-35.98333 -0.004,-0.77611 0.0676,-10.74322 0.1554,-22.14912 0.0878,-11.4059 0.0463,-20.80814 -0.0924,-20.89385 -0.35663,-0.22041 -0.12256,-7.88634 0.29157,-9.54978 0.18926,-0.76024 0.37235,-3.28725 0.40682,-5.61558 0.0346,-2.32834 0.1809,-5.90021 0.32533,-7.9375 0.35595,-5.02022 0.27591,-5.25095 -2.26469,-6.52639 -3.26193,-1.63756 -5.08981,-2.93774 -5.54997,-3.94764 -0.23135,-0.50777 -0.86029,-1.36287 -1.39767,-1.90023 -0.53735,-0.53737 -0.97702,-1.36668 -0.97702,-1.84291 0,-0.47624 -0.24536,-1.06951 -0.54522,-1.31838 -0.29986,-0.24887 -0.46986,-0.64884 -0.37779,-0.88883 0.0921,-0.23998 -0.11828,-0.96944 -0.4675,-1.62101 -0.50733,-0.94658 -1.15376,-3.41702 -1.13591,-4.3411 0.004,-0.0944 -0.31178,-1.00953 -0.69688,-2.03357 -0.38509,-1.02404 -0.77995,-2.25737 -0.87742,-2.74073 -0.0975,-0.48336 -0.40535,-1.13086 -0.68411,-1.43889 -0.27877,-0.30803 -0.50684,-0.73187 -0.50684,-0.94188 0,-0.21001 -0.45314,-0.76312 -1.00693,-1.22913 -0.55383,-0.466 -1.28648,-1.27387 -1.62807,-1.79524 -0.34163,-0.52138 -0.92975,-0.94796 -1.30694,-0.94796 -0.37719,0 -0.58681,-0.16017 -0.46584,-0.35594 0.121,-0.19576 0.12816,-0.64531 0.0159,-0.99898 -0.24829,-0.78223 -4.13318,-3.9422 -6.4079,-5.21216 -1.83691,-1.02553 -6.90213,-2.74254 -9.21854,-3.12491 -0.82359,-0.13595 -1.587,-0.39212 -1.69651,-0.56926 -0.10946,-0.17715 -0.84187,-0.32209 -1.6275,-0.32209 -1.95478,0 -4.60382,-1.28553 -5.57763,-2.70672 -0.4415,-0.64433 -1.30464,-1.48169 -1.91802,-1.8608 -1.30775,-0.80822 -2.48701,-2.793 -2.84078,-4.78109 -0.38421,-2.15946 -0.69599,-2.36854 -3.1594,-2.11876 -1.17909,0.11955 -3.12082,0.0782 -4.31497,-0.0919 -1.52284,-0.21689 -2.68161,-0.17635 -3.88056,0.13576 -1.20558,0.31384 -2.09652,0.34399 -3.02298,0.1023 -0.72669,-0.18957 -6.40133,-0.33441 -12.7,-0.32417 -6.26252,0.0102 -12.57703,-0.009 -14.03224,-0.0429 -3.64017,-0.0845 -6.22659,-0.0905 -13.40555,-0.031 -3.39549,0.0281 -8.07861,-0.0336 -10.40695,-0.13717 -2.32833,-0.10357 -4.39208,-0.18651 -4.58611,-0.1843 -1.02005,0.0116 -12.87932,-0.051 -16.22778,-0.0856 -2.1343,-0.0221 -4.75368,0.006 -5.82083,0.0614 -1.06715,0.0559 -4.87715,0.0987 -8.46667,0.0951 -5.90021,-0.006 -21.86121,0.48064 -28.575,0.87099 -4.98433,0.2898 -29.80517,0.28979 -38.27639,0 -9.07189,-0.31035 -36.13524,-0.46031 -40.21667,-0.22285 -1.35819,0.079 -5.40632,0.0413 -8.99583,-0.0838 -3.58952,-0.12509 -17.14592,-0.31363 -30.12532,-0.41897 -12.97944,-0.10535 -23.7242,-0.26894 -23.87727,-0.36355 -0.15307,-0.0946 -0.92619,0.0512 -1.71799,0.32399 -1.07323,0.36975 -2.09177,0.42287 -4.00178,0.20867 -1.40913,-0.15803 -3.27215,-0.20929 -4.14002,-0.11391 -0.86783,0.0954 -4.4354,0.21845 -7.9279,0.27349 -3.4925,0.055 -6.59815,0.20904 -6.90143,0.34224 -0.30328,0.13319 -1.84058,0.0185 -3.41623,-0.25498 -1.57565,-0.27343 -3.2536,-0.42283 -3.72876,-0.332 -1.25567,0.24004 -1.45206,-0.43556 -0.37327,-1.28415 l 0.93289,-0.73394 h -1.98784 c -1.49563,0 -1.98786,0.12588 -1.98786,0.50835 0,0.27959 0.15875,0.60646 0.35277,0.72638 0.69762,0.43114 0.32904,0.82375 -0.97014,1.03348 -2.1923,0.35389 -29.08134,0.60721 -62.17709,0.58577 -17.17146,-0.0111 -31.85583,-0.0396 -32.63194,-0.0633 -0.77611,-0.0237 -3.63361,0.0333 -6.35,0.1266 -2.71639,0.0933 -9.06639,0.0347 -14.11112,-0.13032 -5.04472,-0.16502 -17.34784,-0.38417 -27.34027,-0.487 -42.29157,-0.43522 -54.09548,-0.53381 -72.31945,-0.604 -18.06367,-0.0696 -19.30784,-0.0346 -20.5734,0.57775 -1.16833,0.56534 -1.80005,0.61553 -4.7625,0.37832 -4.5769,-0.36647 -10.29233,-0.37614 -26.87521,-0.0454 -15.84033,0.3159 -14.25233,0.29329 -18.87361,0.26876 -3.69458,-0.0196 -12.57018,0.1968 -18.87362,0.46016 -4.43653,0.18537 -66.87146,0.66448 -69.14444,0.5306 -2.6288,-0.15484 -30.35689,0.33673 -30.69245,0.54412 -0.10777,0.0666 -8.12887,0.21999 -17.82467,0.34085 -9.6958,0.12086 -19.4821,0.2907 -21.7473,0.37742 -3.4254,0.13115 -27.1947,0.6061 -28.337,0.56623 -9.3433,-0.32618 -40.3003,-0.36928 -54.3278,-0.0756 -10.2834,0.21527 -24.0947,0.47998 -30.6916,0.58826 -6.597,0.10828 -14.1158,0.31458 -16.7085,0.45844 -2.5927,0.14387 -17.8327,0.2095 -33.8666,0.14586 -36.207,-0.14371 -49.5656,-0.12684 -52.9652,0.0669 -5.4166,0.30865 -34.2074,0.41679 -38.6292,0.1451 -12.7733,-0.78483 -28.2667,-0.93615 -52.2111,-0.50991 -9.1117,0.16219 -15.8399,0.11781 -18.9907,-0.12529 -6.6219,-0.51089 -7.1998,-0.27889 -7.813,3.13661 -0.6055,3.37244 -1.083,4.69009 -1.9354,5.33985 -4.403,3.35628 -4.4075,3.35858 -8.661,4.49975 -2.3252,0.62384 -5.0214,1.25494 -5.9916,1.40245 -2.295,0.34898 -6.5228,2.52081 -8.8967,4.57028 -1.4036,1.21178 -2.0007,2.02869 -2.3563,3.22409 -0.2619,0.8806 -0.9488,2.47421 -1.5264,3.54136 -1.1983,2.21392 -1.2813,2.57864 -2.4081,10.58333 -0.3315,2.35511 -1.1043,3.79979 -3.115,5.82329 -2.1872,2.20103 -3.9747,3.53847 -5.1572,3.85856 -3.0379,0.82236 -4.9389,1.72904 -4.9389,2.35561 0,0.3644 -0.2242,0.66254 -0.4981,0.66254 -0.3015,0 -0.5847,0.52225 -0.7174,1.32292 -0.3504,2.1153 -0.4909,15.91799 -0.1876,18.43264 0.4433,3.6761 0.6776,8.38185 0.8956,17.99167 0.1122,4.9477 0.336,10.3452 0.4973,11.99444 0.1922,1.96469 0.1665,3.23554 -0.074,3.68577 -0.2022,0.37794 -0.4114,1.88606 -0.4648,3.35139 -0.053,1.46532 -0.2488,4.72798 -0.4341,7.25034 -0.1854,2.52236 -0.276,12.28549 -0.2014,21.69583 0.1824,23.00566 0.1596,27.96105 -0.1419,30.86806 -0.2178,2.10005 -0.2262,33.30312 -0.011,42.50972 0.039,1.64924 0.037,15.93674 0,31.75 -0.086,34.11026 -0.083,52.34954 0.012,61.73611 0.1008,9.98116 0.041,20.61785 -0.2398,42.33333 -0.1365,10.57452 -0.2938,36.37139 -0.3495,57.32639 -0.056,20.955 -0.2127,39.91635 -0.3488,42.13634 -0.136,2.22 -0.3051,15.475618 -0.3757,29.456948 -0.071,13.98132 -0.2078,27.80185 -0.3049,30.71227 -0.5252,15.74715 -0.9405,41.6627 -1.0487,65.44027 l -0.06,13.22917 0.7938,0.11275 c 1.0784,0.15314 0.9971,0.79512 -0.252,1.99189 -0.5752,0.55107 -0.9722,1.12116 -0.8821,1.26686 0.09,0.14573 0.9761,0.27125 1.9689,0.27894 5.0088,0.0388 8.695,2.85485 11.7026,8.9402 1.991,4.02851 2.7202,6.58121 2.7202,9.52246 0,2.88417 0.6196,4.7897 1.8541,5.7024 0.5573,0.41201 1.3491,1.30705 1.7595,1.98904 2.1462,3.56542 5.7158,5.66804 11.0911,6.53302 1.8594,0.29922 3.5053,0.62099 3.6575,0.71504 0.1522,0.094 1.5478,0.39293 3.1014,0.66414 3.6404,0.63553 7.123,2.45308 10.1233,5.2832 1.9822,1.86979 2.355,2.42687 2.8117,4.2013 0.2895,1.12512 0.5264,2.41537 0.5264,2.8672 0,1.34539 0.6328,1.56789 3.6181,1.27223 2.7938,-0.27669 10.6935,-0.14729 11.2294,0.18393 0.1631,0.10079 1.292,-0.0747 2.5086,-0.38996 1.7751,-0.45995 2.4753,-0.49431 3.5451,-0.17377 0.7332,0.21964 3.4344,0.39691 6.0027,0.39387 2.5684,-0.004 6.2572,-0.005 8.1975,-0.005 8.289,0 8.7688,-0.0408 9.6259,-0.83294 0.7705,-0.71219 0.8569,-0.7196 1.9403,-0.1669 1.0039,0.5122 2.5486,0.5619 13.4811,0.43395 6.7909,-0.0795 12.8234,-0.2388 13.4055,-0.35401 0.5821,-0.11518 4.2333,-0.26134 8.1139,-0.32481 3.8806,-0.0634 7.1639,-0.1314 7.2964,-0.15105 0.1324,-0.0198 0.3415,-0.35324 0.4647,-0.7413 0.2622,-0.82617 1.6456,-0.95655 2.2624,-0.21329 0.6968,0.83954 2.7879,1.07633 9.7321,1.10201 3.6865,0.0138 14.6402,0.0675 24.3416,0.1197 17.5292,0.0943 33.8736,-0.0908 42.7274,-0.48394 3.0396,-0.13497 5.1914,-0.0635 6.2708,0.20835 1.3066,0.329 3.3974,0.28896 10.2008,-0.19526 6.7652,-0.48155 9.1091,-0.52737 11.1917,-0.21883 1.7046,0.25255 3.3191,0.27834 4.5746,0.0731 1.0672,-0.17444 2.8134,-0.26334 3.8806,-0.19759 1.0671,0.0658 7.463,0.20218 14.2131,0.30314 6.75,0.10097 12.4219,0.27577 12.6042,0.38845 0.5303,0.32773 29.9051,0.56621 60.6716,0.49251 46.6097,-0.11162 47.8551,-0.10834 55.7388,0.14774 12.4771,0.40531 41.40653,0.67861 86.43061,0.81651 23.38035,0.0717 42.66847,0.13857 42.8625,0.14873 0.19403,0.0102 1.8609,-0.0623 3.70417,-0.16104 7.48778,-0.40108 35.13035,-0.0764 39.15833,0.45991 1.06716,0.1421 2.25778,0.21985 2.64584,0.17283 0.38805,-0.0471 6.10305,-0.19816 12.7,-0.33581 z m 109.5375,-8.74614 c 0,-0.51368 -0.62548,-0.59242 -5.20347,-0.65511 -2.86191,-0.0392 -5.67973,-0.0608 -6.26181,-0.048 -5.82418,0.12806 -30.85511,0.2515 -35.10139,0.17304 -0.87312,-0.0162 -2.46062,-0.0176 -3.52778,-0.004 -1.06715,0.0141 -2.97215,0.0159 -4.23333,0.004 -1.26118,-0.0116 -2.61056,-0.009 -2.99861,0.006 -0.38806,0.0152 -2.92806,0 -5.64445,-0.0353 -2.71639,-0.0342 -8.82826,-0.0384 -13.58194,-0.009 -11.73744,0.0727 -24.06551,0.0353 -49.74167,-0.15134 -11.93271,-0.0867 -22.69507,-0.0398 -23.91639,0.10411 -1.22128,0.14396 -3.12628,0.13134 -4.23334,-0.0282 -1.10701,-0.15942 -7.72777,-0.277 -14.71277,-0.26133 -6.985,0.0155 -13.09688,-0.004 -13.58194,-0.0414 -0.48507,-0.0384 -1.19945,-0.0617 -1.5875,-0.0518 -1.83142,0.0467 -13.90195,0.0403 -38.80556,-0.0205 -29.34265,-0.0718 -50.52177,-0.0349 -52.21112,0.091 -0.58208,0.0434 -1.29645,0.0708 -1.5875,0.061 -0.79657,-0.0268 -25.51642,-0.4584 -34.57222,-0.60354 -4.3656,-0.0699 -12.2238,-0.11881 -17.4625,-0.10862 -56.7047,0.11049 -77.5573,0.0675 -91.1931,-0.18796 -31.8144,-0.59601 -97.6923,-0.32289 -113.5944,0.47096 -10.6037,0.52935 -27.2444,0.74436 -67.1713,0.86794 l -36.6561,0.11342 -0.8153,-0.87972 c -0.4484,-0.48384 -0.9105,-1.17951 -1.0268,-1.54594 -0.1162,-0.36643 -0.3618,-0.66623 -0.5456,-0.66623 -0.1838,0 -0.6173,-0.46549 -0.9633,-1.03441 -0.836,-1.37481 -4.4009,-4.45745 -7.1116,-6.14966 -1.2765,-0.79692 -3.2729,-1.63544 -4.8054,-2.01842 -1.442,-0.36032 -2.9268,-0.81844 -3.2997,-1.01801 -0.3729,-0.19956 -1.4901,-0.36283 -2.4826,-0.36283 -0.9925,0 -2.2333,-0.21572 -2.7572,-0.47939 -0.5239,-0.26366 -1.5826,-0.57683 -2.3525,-0.69589 -1.5027,-0.23234 -5.4685,-2.73727 -6.9267,-4.37504 -1.0947,-1.22961 -2.4331,-5.4107 -2.4331,-7.60063 0,-0.93444 -0.1636,-1.66575 -0.3727,-1.66575 -0.3245,0 -0.9323,-1.16925 -1.9253,-3.70417 -0.152,-0.38805 -0.2434,-1.04757 -0.2031,-1.46561 0.04,-0.41804 -0.097,-0.86544 -0.3057,-0.99427 -0.2084,-0.1288 -0.5948,-0.75082 -0.8586,-1.38226 -0.2639,-0.63143 -0.9974,-1.73764 -1.6301,-2.45826 -1.2721,-1.44878 -4.5479,-3.75376 -5.335,-3.75376 -0.5881,0 -2.5169,-1.97499 -2.9285,-2.99861 -0.8518,-2.11812 -0.8461,-32.45662 0.013,-71.4375 0.1005,-4.55966 0.2566,-15.67216 0.3468,-24.69445 0.09,-9.02229 0.2429,-18.38854 0.3392,-20.81389 0.4333,-10.913988 0.6584,-32.000678 0.7286,-68.262498 0.042,-21.53708 0.1709,-47.4927 0.2873,-57.67916 0.1163,-10.18646 0.1744,-23.83896 0.129,-30.33889 -0.092,-13.14007 -0.081,-20.30333 0.038,-25.57639 0.044,-1.94028 0.085,-9.1634 0.093,-16.05139 0.01,-6.88799 0.086,-14.90486 0.1755,-17.81528 0.089,-2.91041 0.2425,-14.49916 0.3409,-25.75277 0.1356,-15.52055 0.075,-20.77779 -0.2502,-21.77259 -0.3395,-1.038 -0.3372,-1.42194 0.011,-1.8412 0.329,-0.39644 0.3855,-1.79744 0.2246,-5.5677 -0.259,-6.06793 -0.4977,-9.90404 -0.8073,-12.97546 -0.1272,-1.26118 -0.2423,-6.2618 -0.2559,-11.1125 -0.014,-4.8507 -0.1249,-8.9782 -0.2472,-9.17222 -0.1223,-0.19403 -0.049,-3.36903 0.1623,-7.05556 0.3624,-6.31546 0.4048,-9.93761 0.2498,-21.34305 -0.036,-2.61938 0.032,-6.50875 0.1507,-8.64306 0.258,-4.64924 0.3937,-10.20441 0.672,-27.51667 0.1853,-11.52529 0.5437,-25.17045 0.769,-29.28055 0.043,-0.77611 -0.091,-2.7121 -0.2963,-4.30221 -0.512,-3.96144 -0.08,-5.37114 2.0223,-6.60331 0.8564,-0.50189 1.9133,-0.91254 2.3485,-0.91254 1.8884,0 6.1986,-6.60567 6.3541,-9.73804 0.1627,-3.27705 1.0168,-8.72927 1.4508,-9.26151 0.26,-0.31879 0.8463,-1.29399 1.3029,-2.16711 0.8986,-1.71808 4.1577,-5.29167 4.8261,-5.29167 0.2262,0 0.834,-0.55439 1.3509,-1.23198 0.5168,-0.67759 1.3691,-1.33907 1.8939,-1.46996 0.5249,-0.13088 1.748,-0.60682 2.7182,-1.05762 0.9701,-0.45081 2.3385,-0.82121 3.0408,-0.8231 0.7024,-0.002 2.2709,-0.32095 3.4856,-0.70901 1.2147,-0.38805 2.5563,-0.70555 2.9813,-0.70555 0.425,0 1.6346,-0.43656 2.6881,-0.97014 2.0532,-1.04 5.0501,-4.51756 5.487,-6.36715 0.566,-2.39625 3.5567,-3.88097 6.783,-3.36741 1.1089,0.17651 2.6183,0.18599 3.4037,0.0214 0.7761,-0.16269 5.9355,-0.38356 11.4652,-0.49081 12.2296,-0.2372 10.3671,-0.21924 19.05,-0.18368 11.74,0.0481 15.1031,0.10012 19.7242,0.30513 4.5784,0.20312 6.8426,-0.14879 7.2158,-1.12153 0.1699,-0.44259 0.4136,-0.40009 1.5358,0.26781 l 1.334,0.7939 20.9902,-0.079 c 23.1217,-0.087 25.8986,-0.092 26.5466,-0.0474 0.2425,0.0167 4.8066,-0.0686 10.1423,-0.18954 12.8632,-0.29158 107.7174,-1.10277 114.8292,-0.98201 9.1641,0.15559 39.483,0.1023 45.332,-0.0797 4.1716,-0.1298 15.0459,-0.30198 24.1652,-0.38264 9.1193,-0.0807 21.3431,-0.23085 27.1639,-0.33378 21.62069,-0.38232 52.30139,-0.62729 66.49865,-0.53096 15.67081,0.10633 35.9169,0.0168 45.68472,-0.20202 15.02153,-0.33652 22.65331,-0.56709 28.04584,-0.84731 3.20145,-0.16637 6.29708,-0.32499 6.87916,-0.35249 0.58209,-0.0275 27.01396,-0.10196 58.73751,-0.16545 31.72353,-0.0635 61.09229,-0.21979 65.26388,-0.34734 6.35191,-0.19419 27.25547,-0.2162 39.33473,-0.0414 1.74625,0.0253 7.06437,0.0624 11.81805,0.0826 4.75368,0.0201 10.62743,0.0802 13.05278,0.13346 2.42535,0.0532 4.96535,0.0886 5.64445,0.0787 0.67909,-0.01 12.90284,-0.12712 27.16389,-0.26031 14.26104,-0.13319 27.51667,-0.31386 29.45694,-0.4015 6.75189,-0.30497 77.5926,-0.66233 104.24585,-0.52587 5.72382,0.0293 19.69382,-0.0686 31.04444,-0.21753 11.35063,-0.14895 22.06625,-0.27865 23.8125,-0.28823 2.73012,-0.015 17.49552,0.36756 26.45834,0.68547 1.55222,0.0551 6.92901,0.1996 11.94841,0.3212 5.01939,0.12161 9.22626,0.27664 9.34861,0.34453 0.12234,0.0679 1.41305,-0.0224 2.86826,-0.20073 6.5025,-0.79666 9.39179,-0.94509 23.10694,-1.1871 5.62681,-0.0993 10.62743,-0.25432 11.1125,-0.34452 2.09282,-0.38916 43.73912,-0.50024 48.99368,-0.13068 3.03075,0.21317 10.51112,0.44632 16.62299,0.51814 10.99725,0.1292 18.70499,0.34444 24.15883,0.67462 3.14939,0.19067 3.63347,0.53251 4.40609,3.11128 0.56268,1.87805 2.75283,3.83247 6.21016,5.54173 1.56679,0.7746 3.02468,1.40836 3.23977,1.40836 0.21508,0 0.44129,-0.43656 0.5027,-0.97014 0.0803,-0.69774 0.30974,-0.97013 0.81718,-0.97013 0.56924,0 0.70555,0.23518 0.70555,1.21733 0,1.06062 0.13625,1.25021 1.05834,1.47282 1.38232,0.33371 4.9373,1.54762 8.46666,2.89108 3.13726,1.1942 4.98758,2.78945 7.33161,6.32087 0.73067,1.10084 1.48294,2.09696 1.67164,2.21358 0.5189,0.32071 2.06586,3.87207 2.46771,5.66516 0.1953,0.87154 0.50398,1.85738 0.68594,2.19077 1.15105,2.10907 2.54029,5.55911 2.80148,6.95733 0.29736,1.59165 0.98383,2.57189 3.31266,4.73039 4.43963,4.11488 4.39374,4.05814 4.59383,5.68279 0.95123,7.7231 1.15087,10.83855 1.08465,16.92593 -0.0412,3.78354 -0.0827,8.78417 -0.0923,11.1125 -0.01,2.32833 -0.0482,4.63021 -0.0858,5.11528 -0.0376,0.48507 -0.0565,1.35819 -0.0419,1.94028 0.0895,3.56762 0.069,51.20801 -0.0258,59.97222 -0.0629,5.82083 -0.0293,10.74208 0.0744,10.93611 0.30455,0.56917 0.28063,3.05 -0.0456,4.73309 -0.16616,0.85695 -0.30741,6.33384 -0.31394,12.17084 -0.007,5.83701 -0.0314,14.42274 -0.0554,19.07941 -0.0823,16.03767 0.10301,31.4015 0.40122,33.26 0.16439,1.02453 0.17945,1.93661 0.0335,2.02685 -0.35609,0.22008 -0.33158,14.30875 0.0261,14.99287 0.15472,0.29592 0.13239,1.80405 -0.0496,3.35138 -0.18197,1.54734 -0.30618,5.51209 -0.27595,8.81057 0.0587,6.40834 0.0489,6.92468 -0.17624,9.30027 -0.0802,0.84654 0.0704,2.05669 0.33468,2.68922 0.26426,0.63253 0.36773,1.2628 0.2299,1.4006 -0.13779,0.1378 -0.29926,2.18203 -0.35877,4.54273 -0.0595,2.3607 -0.12076,4.76843 -0.13614,5.35051 -0.0155,0.58208 -0.0116,7.09083 0.008,14.46389 0.0201,7.37305 0.0317,14.8343 0.0265,16.58055 -0.006,1.74625 -0.0148,7.38188 -0.0205,12.52361 -0.006,5.14174 -0.0588,10.06299 -0.11793,10.93611 -0.14746,2.17851 -0.15318,8.30358 -0.0138,14.64028 0.45674,20.74461 0.56991,38.97535 0.30875,49.74167 -0.10354,4.26861 -0.18567,8.07861 -0.18253,8.46667 0.004,0.38805 0.0952,9.19868 0.20444,19.57916 0.10925,10.38049 0.19604,20.30236 0.19286,22.04861 -0.004,1.74625 -0.0127,6.82625 -0.0212,11.288888 -0.0169,9.02335 0.30564,29.8195 0.5474,35.27778 0.17561,3.9654 0.22955,10.49666 0.12386,14.99305 -0.0659,2.80575 0.26349,11.26078 0.62544,16.05139 0.44471,5.88677 0.53806,14.44442 0.38478,35.2777799 -0.0386,5.23875 0.0421,10.5568801 0.17931,11.8180601 0.36657,3.36991 -0.0236,7.03022 -0.82215,7.71401 -0.35761,0.30618 -0.65115,0.71984 -0.65239,0.91923 -0.004,0.44489 -1.95238,1.58895 -2.76038,1.61982 -0.82751,0.0317 -3.23462,3.03043 -3.23462,4.02974 0,0.56699 -0.39035,1.07033 -1.23472,1.5922 -0.94329,0.583 -1.23472,1.00016 -1.23472,1.76745 0,0.55241 -0.24737,1.25172 -0.5497,1.55405 -0.30233,0.30234 -0.68778,1.30585 -0.85662,2.23005 -0.94622,5.18048 -4.6803,12.49028 -7.46566,14.61478 -1.57977,1.20494 -4.29792,2.29496 -6.47386,2.59605 -8.79778,1.21747 -14.15729,2.46574 -15.57803,3.62829 -0.63828,0.52228 -1.84725,1.50523 -2.68658,2.18433 -0.83929,0.67909 -2.39123,2.30861 -3.44875,3.62112 -1.05753,1.31251 -2.15054,2.64022 -2.42895,2.95046 -0.42132,0.46947 -1.04235,0.52969 -3.70417,0.35919 -4.69342,-0.30063 -56.50756,-0.71031 -67.7563,-0.53572 -0.38805,0.006 -3.88055,-0.0162 -7.76111,-0.0496 -10.54735,-0.0905 -22.79043,-0.11811 -23.98889,-0.0541 -4.79034,0.25573 -11.55697,0.37409 -18.69722,0.32696 -4.65667,-0.0307 -9.73667,-0.0289 -11.28889,0.004 -5.24719,0.11045 -14.75666,0.12918 -28.575,0.0564 -7.56709,-0.0399 -15.10771,0.0289 -16.75695,0.15258 -1.64924,0.12382 -6.80861,0.22419 -11.46528,0.22299 -10.00569,-0.004 -8.35226,-0.0229 -14.64028,0.17903 -4.12404,0.13236 -39.50511,0.32784 -42.15694,0.23294 -0.38806,-0.0138 -4.51556,-0.0229 -9.17223,-0.0205 -7.44608,0.004 -34.74596,0.004 -36.15972,-2.8e-4 -0.29104,0 -2.19604,-0.15977 -4.23333,-0.35299 -2.0373,-0.19322 -7.35542,-0.28265 -11.81806,-0.19876 -6.93103,0.13032 -18.55964,0.23513 -20.28473,0.18281 -0.29104,-0.009 -3.22791,0.0455 -6.52639,0.12069 -5.71821,0.13039 -27.14145,0.21449 -33.86667,0.13296 -7.70233,-0.0934 -16.27032,0.12097 -16.74512,0.41892 -0.32114,0.20155 -0.67808,0.19124 -0.94118,-0.0272 -0.40841,-0.33895 -5.53649,-0.85397 -7.7137,-0.77466 -1.79419,0.0653 -8.26805,0.0985 -12.34722,0.0633 -2.13431,-0.0184 -6.97618,-0.0275 -10.75972,-0.0205 -3.78354,0.007 -8.02602,-0.004 -9.42767,-0.0236 -2.01175,-0.0289 -2.69903,0.0994 -3.2632,0.60999 -0.63969,0.57887 -0.71469,0.5855 -0.71469,0.0629 z m 248.1129,-52.20684 c 1.32171,-0.32347 2.81587,-0.58812 3.32038,-0.58812 2.26758,0 8.16162,-2.39148 9.97507,-4.04738 0.48507,-0.4429201 1.27882,-1.0031601 1.76389,-1.2450301 0.48507,-0.24183 2.23132,-1.32478 3.88056,-2.40658 3.01212,-1.97569 9.96413,-8.59366 11.56892,-11.01301 1.56838,-2.3645 3.60052,-5.9485799 3.60052,-6.3502099 0,-0.22356 0.62696,-1.6213 1.39323,-3.10614 1.8634,-3.61082 2.73417,-6.0808 3.19031,-9.0497 0.2087,-1.3582 0.6986,-3.64804 1.08874,-5.08854 0.3901,-1.4405 0.79417,-3.90112 0.89789,-5.46806 0.10372,-1.56693 0.44665,-4.03958 0.76204,-5.49479 0.57904,-2.67159 0.69712,-10.26083 0.27738,-17.83006 -0.21015,-3.79035 -1.47729,-14.3908 -1.99629,-16.70029 -0.32428,-1.44307 -1.11641,-6.88227 -2.08686,-14.32937 -0.17699,-1.3582 -0.56469,-3.34257 -0.86159,-4.40973 -0.2969,-1.06715 -0.54444,-3.36902 -0.55012,-5.11527 -0.006,-1.74625 -0.15836,-4.603748 -0.3393,-6.349998 -0.18098,-1.74625 -0.42122,-5.15938 -0.5339,-7.58473 -0.11268,-2.42534 -0.30854,-5.60034 -0.43526,-7.05555 -0.48662,-5.58867 -0.0904,-19.75291 0.63239,-22.60561 0.17597,-0.69441 0.33521,-2.12316 0.35395,-3.175 0.0187,-1.05185 0.25191,-3.0237 0.51826,-4.38189 0.51823,-2.64298 1.54661,-17.25027 1.72611,-24.51806 0.16348,-6.6204 1.46914,-19.95995 2.34036,-23.91046 0.18306,-0.83002 0.41286,-2.81439 0.51072,-4.40973 0.2166,-3.53155 0.64738,-6.8968 1.56982,-12.26396 0.67998,-3.95619 1.3582,-8.9909 2.1366,-15.86029 0.20888,-1.84327 0.69847,-4.62139 1.08797,-6.17361 0.3895,-1.55222 0.86505,-3.45722 1.05682,-4.23334 0.19177,-0.77611 0.57887,-2.14679 0.86024,-3.04595 0.28138,-0.89916 0.5116,-2.09109 0.5116,-2.64873 0,-0.55763 0.47671,-2.36196 1.05936,-4.0096 0.58265,-1.64765 1.03353,-2.99572 1.00199,-2.99572 -0.30801,0 1.07319,-4.46302 2.03507,-6.57596 0.6749,-1.48248 1.31833,-3.3081 1.42988,-4.05695 0.11159,-0.74884 0.80127,-3.18716 1.53268,-5.41847 0.73141,-2.23132 1.75376,-5.8032 2.27189,-7.9375 0.51812,-2.13431 1.07819,-4.19806 1.24456,-4.58612 0.50317,-1.17356 1.09626,-3.04347 1.79025,-5.64444 0.87189,-3.26774 2.65296,-8.44164 3.31568,-9.63171 0.29143,-0.52339 0.83422,-2.22162 1.20615,-3.77385 0.37193,-1.55222 1.07308,-4.33034 1.55811,-6.17361 0.48504,-1.84326 0.90058,-3.58951 0.92344,-3.88055 0.12693,-1.6179 0.98485,-7.31065 1.1696,-7.76111 0.38018,-0.92707 1.32736,-5.38708 1.65251,-7.78139 0.55478,-4.08524 -0.12446,-30.40574 -0.87799,-34.02278 -0.93042,-4.46606 -1.64201,-7.50297 -2.2732,-9.70139 -0.41775,-1.45521 -0.91694,-3.67771 -1.10923,-4.93889 -0.1923,-1.26118 -0.57479,-2.7933 -0.84992,-3.4047 -0.27516,-0.61141 -0.50027,-1.42116 -0.50027,-1.79944 0,-0.37829 -0.14831,-1.14804 -0.32957,-1.71058 -0.18125,-0.56253 -0.41193,-1.78524 -0.51262,-2.71713 -0.18224,-1.68663 -0.31986,-2.03528 -2.1022,-5.32555 -0.51488,-0.95053 -0.93486,-1.98241 -0.93331,-2.29306 0,-0.31065 -0.57372,-1.91419 -1.27847,-3.56343 -0.7047,-1.64923 -1.71824,-4.03048 -2.25224,-5.29167 -0.84278,-1.9904 -1.10472,-2.30759 -1.98472,-2.40319 -1.38473,-0.15044 -1.83088,-0.84544 -1.56676,-2.44053 0.12114,-0.73144 0.0226,-2.83801 -0.21911,-4.68128 -0.24162,-1.84326 -0.53799,-5.33276 -0.6586,-7.75444 -0.12062,-2.42167 -0.35271,-4.65232 -0.51576,-4.957 -0.40799,-0.76233 -0.3919,-10.2306 0.0222,-13.04133 0.44951,-3.05133 0.51414,-7.92477 0.2129,-16.05139 -0.31718,-8.55706 -0.36942,-9.20107 -0.90134,-11.1125 -0.24296,-0.87313 -0.5987,-2.2225 -0.79051,-2.99861 -0.19184,-0.77611 -0.49674,-1.89863 -0.67765,-2.49449 -0.18087,-0.59586 -0.32886,-1.3505 -0.32886,-1.67698 0,-0.32647 -0.3175,-1.18597 -0.70555,-1.91 -0.38806,-0.72403 -0.70556,-1.58721 -0.70556,-1.91818 0,-0.33097 -0.13924,-0.68781 -0.30939,-0.79298 -0.17018,-0.10517 -0.49459,-0.94797 -0.72093,-1.8729 -0.58029,-2.37119 -1.31089,-3.82117 -2.98376,-5.92163 -0.79968,-1.00411 -1.76911,-2.36589 -2.15427,-3.02619 -1.85163,-3.17424 -2.21492,-3.77865 -3.16008,-5.25749 -1.28609,-2.01221 -11.69667,-15.05129 -12.95651,-16.22777 -2.10859,-1.96909 -4.1796,-3.15945 -7.70117,-4.42642 -4.43336,-1.59502 -7.34917,-1.90214 -9.95786,-1.04889 -0.98305,0.32155 -2.915,0.88366 -4.29324,1.24915 -4.22811,1.12125 -9.48989,3.09019 -9.81614,3.67316 -0.17022,0.30415 -0.45103,0.553 -0.624,0.553 -0.40746,0 -3.87953,3.32733 -4.38093,4.19831 -0.21163,0.36759 -0.80935,1.20053 -1.32825,1.85099 -0.5189,0.65045 -1.42705,2.63943 -2.01813,4.41995 -1.03089,3.10549 -1.07728,3.5077 -1.1393,9.87778 -0.0606,6.22569 -0.0159,6.73568 0.71515,8.16477 0.42887,0.83837 0.83676,1.97469 0.90643,2.52515 0.0697,0.55046 0.27707,1.29327 0.46087,1.65069 0.18383,0.35742 0.43956,1.33911 0.56832,2.18154 0.12877,0.84242 0.52409,2.11242 0.87856,2.82222 0.82596,1.65402 1.35671,4.58565 1.66007,9.16916 0.16968,2.5636 0.38304,3.69968 0.7191,3.82863 0.50941,0.19548 1.24816,2.41899 1.38472,4.16775 0.0454,0.58208 0.25859,1.50523 0.47364,2.05144 0.21502,0.5462 0.39243,1.33995 0.3942,1.76389 0.004,0.42393 0.3937,1.56453 0.87094,2.53467 0.4772,0.97014 0.87263,2.02226 0.87869,2.33806 0.006,0.31579 0.24917,0.77179 0.54021,1.01333 0.29104,0.24154 0.52917,0.66203 0.52917,0.93442 0,0.95134 2.98468,3.53746 4.38605,3.80037 0.73184,0.13728 2.38591,0.7868 3.67573,1.44336 1.28983,0.65656 3.56271,1.74369 5.05083,2.41584 4.17752,1.88686 4.79855,3.42362 2.003,4.95646 -1.36137,0.74648 -1.4043,0.73445 -6.54971,-1.83476 -1.01258,-0.5056 -1.94433,-0.81598 -2.07056,-0.68974 -0.21082,0.21082 0.58269,4.17461 1.25318,6.26016 0.38551,1.1991 0.92149,3.31413 1.4304,5.64445 0.57299,2.62374 1.61978,4.30586 4.5006,7.23194 2.77393,2.81754 3.65076,3.48879 6.6052,5.05668 2.94189,1.56123 4.47834,3.05956 4.34143,4.23373 -0.15163,1.30053 -1.53272,1.74246 -3.13249,1.00235 -0.66492,-0.3076 -2.00269,-0.86928 -2.97283,-1.24816 -2.21922,-0.8667 -3.34761,-1.46795 -4.23806,-2.25825 -0.38544,-0.3421 -1.83342,-1.56405 -3.21768,-2.71545 -1.3843,-1.15141 -3.13055,-2.82913 -3.88056,-3.72827 -0.75004,-0.89914 -2.02346,-2.33044 -2.82981,-3.18066 -1.01427,-1.06943 -1.54015,-1.98417 -1.70638,-2.96804 -0.23753,-1.40591 -0.89655,-2.27152 -1.15016,-1.5107 -0.0876,0.26265 -0.91299,0.32924 -2.49026,0.20089 -1.30821,-0.10646 -3.22372,-0.004 -4.29959,0.22983 -4.96224,1.07883 -6.47393,0.80254 -6.28241,-1.1482 0.13011,-1.32536 2.36679,-3.2044 4.49707,-3.77803 1.58588,-0.42703 1.87234,-0.94186 1.41373,-2.54087 -0.18366,-0.64043 -0.33394,-2.31256 -0.33394,-3.71586 0,-1.8349 -0.1783,-2.84464 -0.63493,-3.59547 l -0.6349,-1.04403 -1.21719,1.6253 c -1.76784,2.36066 -2.86797,3.09488 -3.8499,2.56938 -1.01885,-0.54528 -0.80585,-1.39377 1.24083,-4.94209 0.86258,-1.49543 1.56831,-2.84966 1.56831,-3.0094 0,-0.15974 0.3822,-1.25539 0.84935,-2.43478 l 0.84938,-2.14434 -0.51918,-5.29167 c -0.28554,-2.91042 -0.58008,-7.27604 -0.65455,-9.70139 -0.0745,-2.42535 -0.38181,-5.33028 -0.68298,-6.45541 -0.30116,-1.12512 -0.54758,-2.59571 -0.54758,-3.26798 0,-0.67226 -0.1536,-1.49795 -0.34138,-1.83487 -0.37486,-0.67272 -1.32002,-4.19865 -1.86637,-6.96257 -0.62054,-3.13931 -0.90184,-3.58915 -2.73851,-4.37927 -0.941,-0.40481 -2.13483,-0.73601 -2.65292,-0.73601 -0.51813,0 -1.87611,-0.24205 -3.01777,-0.53788 -3.40515,-0.88236 -7.58158,0.10625 -10.4848,2.48189 -0.32675,0.26736 -1.5814,1.21913 -2.78811,2.11504 -3.70717,2.75231 -6.44903,6.35259 -6.44903,8.46802 0,0.50244 -0.23191,1.362 -0.51537,1.91014 -0.61281,1.18502 -0.82748,5.90151 -0.31436,6.90584 0.19826,0.38806 0.55499,1.65806 0.79273,2.82223 0.69423,3.39981 1.11675,4.5198 2.12947,5.64444 0.52419,0.58208 1.22671,1.96574 1.56118,3.07479 0.33451,1.10905 0.76352,2.11247 0.95342,2.22982 0.18986,0.11736 0.76119,1.03558 1.26958,2.0405 1.49394,2.95306 5.63428,7.90286 6.9827,8.34788 0.63881,0.21083 1.7567,1.02661 2.48412,1.81285 0.72747,0.78624 2.00332,1.72129 2.83524,2.0779 2.69921,1.157 2.44094,2.85342 -0.67451,4.43092 -1.88884,0.95642 -1.91576,0.95927 -3.41005,0.36137 -1.23727,-0.49504 -1.58556,-0.52042 -1.95055,-0.14212 -0.68516,0.71013 -0.69144,1.64409 -0.0307,4.547 0.90227,3.9634 1.19923,8.38269 0.77798,11.5771 -0.3048,2.31116 -0.5776,3.06929 -1.60207,4.452 -0.6791,0.91657 -1.71097,2.5599 -2.29305,3.65185 -0.7643,1.43373 -1.29138,2.01832 -1.89707,2.10399 -0.7845,0.11095 -0.82338,0.0369 -0.60138,-1.14653 0.13057,-0.69584 0.16588,-1.26515 0.0785,-1.26515 -0.0874,0 -0.55743,0.67468 -1.04458,1.4993 -1.35258,2.28953 -4.75872,5.51171 -6.09053,5.76156 -1.65344,0.31018 -2.42482,0.0658 -2.5497,-0.80788 -0.081,-0.56665 0.24715,-1.00751 1.23472,-1.65884 2.77435,-1.82975 3.98724,-3.40073 4.79069,-6.20525 0.30571,-1.06716 0.76186,-2.45622 1.01367,-3.08681 0.352,-0.8814 0.36544,-1.39134 0.0582,-2.20523 -0.33253,-0.88096 -0.27735,-1.34805 0.32854,-2.78219 0.91257,-2.16002 0.67215,-3.00646 -0.76432,-2.69095 -0.81485,0.17897 -1.11411,0.0776 -1.41143,-0.47788 -0.53227,-0.99459 -0.48599,-1.22069 0.47992,-2.34479 0.53689,-0.62484 0.94777,-1.66689 1.09967,-2.7889 0.13339,-0.98522 0.4559,-2.20814 0.71671,-2.71761 0.26081,-0.50947 0.82356,-2.83647 1.2506,-5.17111 l 0.77639,-4.24481 -0.8859,-1.88445 c -0.48725,-1.03644 -1.10476,-2.59162 -1.37227,-3.45595 -0.26747,-0.86433 -0.78807,-1.81683 -1.15683,-2.11667 -0.36875,-0.29983 -1.66038,-2.6089 -2.8703,-5.13126 -2.12044,-4.42055 -2.26907,-4.62751 -4.1171,-5.73264 -1.05445,-0.63059 -2.35599,-1.14653 -2.89228,-1.14653 -1.33032,0 -5.47405,1.4432 -6.37282,2.21956 -0.40242,0.34764 -1.88221,1.58502 -3.28839,2.74974 -1.4062,1.16472 -2.78938,2.56762 -3.07379,3.11755 -0.28437,0.54993 -0.75399,1.0908 -1.04362,1.20194 -0.67807,0.26021 -2.76147,4.70926 -3.58401,7.65361 -1.22396,4.38128 -0.5261,7.34086 2.62463,11.13109 0.17396,0.20924 0.74747,1.06352 1.27448,1.89839 0.52705,0.83487 1.64317,2.35884 2.48028,3.38659 0.83714,1.02776 1.60627,2.15786 1.70924,2.51134 0.10298,0.35348 0.35299,1.28575 0.55566,2.07171 0.42365,1.64316 2.08866,3.10237 3.70163,3.24409 0.56621,0.0498 1.12183,0.18262 1.23472,0.29527 0.11289,0.11266 0.20525,1.34024 0.20525,2.72797 v 2.52314 l -1.71355,0.36657 c -2.38728,0.51069 -3.19158,1.5632 -2.92358,3.82582 0.11166,0.94282 0.36725,1.91208 0.56794,2.15393 0.20073,0.24185 0.46623,1.45536 0.58999,2.69668 0.31912,3.20075 0.55439,3.54462 2.24063,3.27498 1.28016,-0.2047 1.39749,-0.15214 1.61752,0.72459 0.13346,0.53166 0.42333,0.87389 0.66252,0.78211 0.77032,-0.2956 4.37525,-2.68544 4.60043,-3.04979 0.35119,-0.56822 1.52319,-0.41367 1.89452,0.24981 0.26956,0.48169 0.004,0.95419 -1.29638,2.29306 -0.89973,0.9275 -1.74781,1.68636 -1.88454,1.68636 -0.38883,0 -4.32904,2.68189 -4.83383,3.29015 -0.24882,0.29978 -0.89313,0.64186 -1.43186,0.76019 -0.90886,0.19961 -2.49954,1.85187 -2.49954,2.59628 0,0.17886 -0.59531,0.76029 -1.32291,1.29206 -2.16443,1.58189 -4.16087,4.00166 -5.60712,6.79606 -0.74814,1.44554 -1.95676,3.22848 -2.68581,3.96207 -0.72905,0.7336 -1.66606,2.10357 -2.08223,3.04437 -0.41617,0.9408 -1.40716,2.42345 -2.20222,3.29477 -3.2604,3.57316 -9.56342,9.54148 -10.59208,10.02961 -0.60572,0.28744 -1.91911,1.60372 -2.9186,2.92506 -0.99949,1.32134 -2.54455,3.27556 -3.43345,4.34271 -0.88889,1.06716 -2.19173,2.70295 -2.89521,3.63509 -1.14974,1.52349 -4.56413,4.12603 -5.41313,4.12603 -0.18344,0 -0.51597,-0.34091 -0.73896,-0.75758 -0.47883,-0.89468 -0.0208,-2.74828 1.28732,-5.20906 0.98129,-1.84601 0.82233,-2.28542 -0.72185,-1.99572 -0.82508,0.15478 -1.27875,0.0543 -1.622,-0.35928 -0.71886,-0.8662 0.46524,-1.55614 2.67074,-1.55614 2.0055,0 2.93878,-0.53444 5.38268,-3.08242 1.01332,-1.05646 1.3794,-1.70323 1.24813,-2.20517 -0.12048,-0.46063 0.34657,-1.54711 1.3288,-3.09121 0.83302,-1.30951 1.96,-3.07858 2.50444,-3.93128 2.17195,-3.40176 2.49884,-4.94915 2.31828,-10.97326 -0.18894,-6.30369 -0.54768,-7.70013 -3.42056,-13.31477 -1.35312,-2.64452 -2.32178,-4.02271 -3.78362,-5.38327 l -1.96486,-1.82874 -1.45331,0.58499 c -3.99196,1.60684 -4.52451,2.03939 -5.403,4.38844 -0.4554,1.21772 -1.56291,3.11194 -2.46116,4.20939 -0.89824,1.09745 -1.93124,2.66347 -2.29552,3.48005 -0.36428,0.81658 -0.81957,1.58187 -1.01177,1.70066 -0.52888,0.32688 -2.09991,3.57709 -2.09991,4.34444 0,0.37075 -0.25498,0.88572 -0.56666,1.14439 -0.4094,0.33976 -0.52176,0.86875 -0.40485,1.90599 0.16697,1.48147 -0.21114,2.47289 -1.78223,4.67284 -0.9197,1.28781 -1.1145,3.17695 -1.11919,10.85254 -0.004,4.58444 0.216,6.803 1.0959,11.1125 0.69825,3.41998 0.51788,8.94608 -0.40375,12.36871 -0.20941,0.77772 -0.34639,2.16702 -0.30441,3.08736 0.0507,1.11097 -0.13261,1.99227 -0.54543,2.62233 -0.34202,0.52194 -0.5503,1.15251 -0.46292,1.40127 0.0874,0.24875 0.004,0.84915 -0.18485,1.33422 -0.18906,0.48507 -0.40055,1.31209 -0.46998,1.83784 -0.0694,0.52573 -0.45194,1.92284 -0.85008,3.10468 -0.39811,1.18183 -0.63299,2.29583 -0.5219,2.47555 0.11105,0.17972 0.0166,1.00511 -0.20991,1.83421 -0.22648,0.82909 -0.54098,2.38057 -0.69888,3.44772 -0.15787,1.06715 -0.46313,2.65465 -0.67833,3.52778 -0.96587,3.91901 -1.47626,10.74498 -1.23969,16.58055 0.12975,3.20146 0.21936,6.53521 0.19907,7.40833 -0.0201,0.87313 0.21777,2.69875 0.52899,4.05695 0.31122,1.35819 0.72108,3.50132 0.91084,4.7625 0.18972,1.26118 0.65285,2.81895 1.02916,3.46172 0.41119,0.70236 0.60335,1.49082 0.48157,1.97607 -0.19508,0.77724 0.7081,4.59616 1.25864,5.32193 0.24811,0.32708 0.68305,2.27499 1.37841,6.17361 0.15575,0.87313 0.47664,2.06375 0.71314,2.64584 0.23647,0.58208 0.56688,1.69333 0.73424,2.46944 0.61232,2.83963 1.09858,4.56688 1.38652,4.925 0.16214,0.20167 0.41169,1.23979 0.55453,2.30694 0.14284,1.06716 0.47812,2.25341 0.74504,2.63614 0.26694,0.38272 0.48535,1.02531 0.48535,1.42793 0,0.40267 0.62339,2.55016 1.38528,4.77221 0.7619,2.22207 1.46202,4.67511 1.55575,5.45122 0.26914,2.22748 1.85607,8.09502 2.44207,9.02932 0.2927,0.46665 0.63673,1.94246 0.76447,3.27959 0.12778,1.33714 0.46369,2.76151 0.74652,3.1653 0.30804,0.43978 0.51424,1.5608 0.51424,2.79552 0,1.13376 0.16926,2.37769 0.37617,2.76426 0.2069,0.38661 0.43025,1.60648 0.49632,2.71085 0.0661,1.10437 0.3102,3.11919 0.54247,4.47739 0.55612,3.25187 0.7021,4.69272 0.83996,8.29027 0.24864,6.48699 0.63246,12.26961 0.94837,14.2875 0.39367,2.51471 0.89549,6.85754 1.16597,10.09054 0.10721,1.28118 0.3586,2.75996 0.55866,3.28616 0.20006,0.52621 0.36375,1.51247 0.36375,2.19167 0,0.67924 0.16852,1.54986 0.37451,1.93474 0.20598,0.38488 0.4566,1.7635 0.55689,3.06363 0.10033,1.30009 0.48743,4.31196 0.86021,6.693 0.37282,2.38108 0.67783,5.03075 0.67783,5.88822 0,0.85746 0.15875,1.65713 0.35278,1.77704 0.19403,0.11991 0.35278,0.9252 0.35278,1.7895 0,0.86431 0.19484,1.88345 0.43296,2.26473 0.32283,0.51693 0.33581,0.9506 0.0511,1.70494 -0.30878,0.81802 -0.2783,1.077 0.15928,1.35301 0.38474,0.24271 0.60241,1.20153 0.75304,3.31738 0.11653,1.63678 0.39406,3.2935 0.61673,3.68155 0.76733,1.33724 0.91927,2.12655 1.00619,5.22602 0.066,2.35514 0.23425,3.27187 0.69342,3.77924 0.33341,0.3684 0.51908,0.8969 0.41261,1.17439 -0.1065,0.2775 0.13275,1.16414 0.5316,1.97034 0.39889,0.8062 0.75759,2.13289 0.7971,2.9482 0.0395,0.8153 0.16479,1.72049 0.27842,2.01154 0.11359,0.29104 0.47649,1.71979 0.80641,3.175 0.32992,1.4552 0.84455,3.03604 1.14363,3.51296 0.33574,0.5353 0.53644,1.64973 0.52455,2.91242 -0.0106,1.12491 0.12287,2.13315 0.29658,2.2405 0.17371,0.10735 0.31584,0.57333 0.31584,1.03551 0,0.46217 0.16814,0.9442 0.37359,1.0712 0.2055,0.127 0.33627,0.57292 0.29062,0.99096 -0.0916,0.83883 0.64608,4.588508 1.12117,5.698948 0.38145,0.89161 0.96724,3.35971 0.9629,4.05694 -0.004,0.29104 0.17928,1.71979 0.40245,3.175 0.9888,6.4474 1.05008,7.16273 0.67377,7.86585 -0.37528,0.70122 -0.2891,1.94783 0.41949,6.06887 0.20017,1.16417 0.51424,3.54542 0.69794,5.29167 0.42132,4.00487 0.96784,7.23152 1.6348,9.65186 0.28656,1.03992 0.57214,2.70679 0.63462,3.70416 0.0624,0.99738 0.51265,3.71842 1.0004,6.04676 0.48779,2.32833 1.05057,5.18583 1.25067,6.35 0.2001,1.16416 0.77505,3.78354 1.27769,5.82083 0.5026,2.03729 1.0565,4.65667 1.23091,5.82083 0.38143,2.54653 0.774,3.6715 2.54734,7.30046 0.74616,1.52685 1.35664,2.85877 1.35664,2.9598 0,0.101 0.84695,1.96127 1.88211,4.13392 1.03519,2.17266 1.99069,4.38683 2.1234,4.92041 0.13268,0.53357 0.46267,0.97014 0.73329,0.97014 0.27058,0 1.56164,1.30968 2.86896,2.9104099 2.13152,2.60982 4.54734,5.26902 6.91194,7.60822 1.61064,1.59332004 7.55657,6.45544 9.43519,7.71536 1.80541,1.2108 7.20234,3.7478401 11.85206,5.5715601 3.31978,1.3021 9.59069,2.74634 11.05387,2.54582 1.1599,-0.15897 2.88251,0.024 7.29058,0.77396 2.62914,0.44735 10.45788,0.18714 12.98649,-0.43166 z m -687.14489,-88.75893 c 8.8575,-1.05131 10.8922,-1.38821 12.6348,-2.092 0.5462,-0.2206 1.4273,-0.40108 1.9579,-0.40108 0.5307,0 1.1156,-0.13409 1.3,-0.29795 0.459,-0.4081 4.2953,-1.7168 5.78,-1.97178 0.6664,-0.11445 1.4601,-0.42845 1.7639,-0.6978 0.3038,-0.26934 2.0604,-0.99603 3.9037,-1.61484 3.8067,-1.27797 9.1402,-3.85053 10.6947,-5.15856 0.5752,-0.48398 1.2497,-0.80173 1.4989,-0.70609 0.2492,0.0956 0.7044,-0.20951 1.0114,-0.67807 0.4832,-0.73748 0.6727,-0.79985 1.4098,-0.46397 0.7047,0.32102 1.039,0.25452 1.9378,-0.38548 0.5975,-0.42542 1.0863,-0.91508 1.0863,-1.08811 0,-0.173 0.6747,-0.49717 1.4993,-0.72037 1.6111,-0.43604 2.9445,-0.93405 3.7924,-1.41651 1.1528,-0.65596 3.6395,-1.73415 4.0136,-1.74022 0.2178,-0.004 1.0947,-0.47978 1.9485,-1.05833 0.8538,-0.57856 1.7818,-1.05192 2.0622,-1.05192 0.2804,0 0.9409,-0.30695 1.4677,-0.68209 0.5269,-0.37515 1.3698,-0.78546 1.8731,-0.91179 0.5033,-0.12633 1.2754,-0.61313 1.7157,-1.0818 0.4403,-0.46866 1.1606,-0.85209 1.6008,-0.85209 1.1438,0 3.101,-1.246788 4.1821,-2.664288 0.5102,-0.66894 1.0713,-1.21627 1.2469,-1.21627 0.1755,0 0.8765,-0.37821 1.5576,-0.84046 0.6811,-0.46224 1.7887,-0.94368 2.4613,-1.06983 1.4527,-0.27256 4.0769,-1.68381 4.9739,-2.67501 0.3516,-0.38851 0.9124,-0.70637 1.2462,-0.70637 0.3339,0 1.5044,-0.39687 2.6012,-0.88194 1.0969,-0.48507 2.2084,-0.88195 2.4702,-0.88195 0.2617,0 0.6735,-0.23812 0.9151,-0.52916 0.2415,-0.29104 0.8072,-0.52917 1.2571,-0.52917 0.4498,0 0.905,-0.1409 1.0114,-0.31312 0.1065,-0.17223 1.5049,-0.66675 3.1077,-1.09894 1.6027,-0.43219 3.9817,-1.32313 5.2865,-1.97993 1.3048,-0.65677 2.6734,-1.19412 3.0412,-1.19412 0.5795,0 2.3524,-0.68333 6.9869,-2.69296 0.6114,-0.26512 1.69,-0.48204 2.3969,-0.48204 1.4808,0 5.5218,-0.91154 7.0748,-1.5959 1.2552,-0.55312 2.2668,-0.79145 4.4097,-1.03889 2.1568,-0.24903 4.3739,-0.7202 4.89,-1.03918 0.3683,-0.22761 2.0012,-0.51894 6.1602,-1.09901 0.5478,-0.0764 1.5003,-0.29351 2.1166,-0.48242 3.182,-0.97536 4.4063,-1.2282 5.5355,-1.14335 0.6819,0.0512 1.7138,-0.15399 2.2931,-0.45604 0.5792,-0.30205 1.6088,-0.54938 2.2879,-0.54963 0.6791,-2.4e-4 1.9491,-0.22518 2.8223,-0.49988 0.8731,-0.27471 2.6987,-0.75781 4.0569,-1.07358 2.7302,-0.63468 4.4551,-1.09742 9.17222,-2.46069 1.74625,-0.50465 3.42791,-0.91557 3.73701,-0.9131 0.30911,0.004 2.53161,-0.63655 4.93889,-1.41996 2.40729,-0.78345 5.48813,-1.67609 6.84633,-1.98364 1.35819,-0.30758 3.26319,-0.83922 4.23333,-1.18145 1.84485,-0.6508 2.88382,-0.91821 8.11389,-2.08837 1.74625,-0.39071 4.1275,-1.02038 5.29167,-1.39926 1.86584,-0.60724 4.24596,-1.17496 5.29166,-1.26221 0.19403,-0.0162 1.22591,-0.29926 2.29306,-0.62907 1.06715,-0.32981 3.4484,-0.93112 5.29167,-1.33622 4.96732,-1.09167 17.55242,-4.13519 19.57916,-4.73494 0.97014,-0.28706 2.71639,-0.78306 3.88056,-1.10222 1.16417,-0.31916 2.67229,-0.78589 3.35139,-1.03713 1.6534,-0.61168 7.74608,-1.80587 12.52361,-2.4546 2.13431,-0.2898 4.27743,-0.60233 4.7625,-0.69444 4.30265,-0.8171 9.87986,-1.57836 13.95226,-1.9044 1.6764,-0.13423 3.19705,-0.462 3.71185,-0.80013 0.47968,-0.315 1.58302,-0.68312 2.45192,-0.81803 0.86889,-0.1349 2.3109,-0.47762 3.20449,-0.76157 1.46216,-0.46465 2.78257,-0.6731 9.0358,-1.42642 1.12353,-0.13536 2.07289,-0.47802 2.43593,-0.87916 0.40407,-0.44648 1.07989,-0.65733 2.1069,-0.65733 0.8316,0 1.61011,-0.15875 1.73002,-0.35278 0.11991,-0.19403 0.508,-0.35278 0.86244,-0.35278 0.35443,0 1.09911,-0.23713 1.65488,-0.52698 0.55576,-0.28987 1.30347,-0.528 1.66158,-0.52916 0.3581,0 1.07248,-0.23206 1.5875,-0.51301 0.51502,-0.28096 1.73013,-0.74295 2.70027,-1.02666 2.34368,-0.68537 5.17179,-1.91255 7.76111,-3.36768 1.16416,-0.65423 3.01448,-1.65683 4.11183,-2.22797 1.09736,-0.57115 2.80074,-1.70018 3.78535,-2.50892 0.9846,-0.80875 2.46803,-1.99246 3.29649,-2.63045 1.95242,-1.50351 4.66016,-3.89234 7.78232,-6.8657 1.37519,-1.30968 2.62995,-2.38125 2.78832,-2.38125 0.32907,0 3.83635,-4.67945 3.64825,-4.86755 -0.22938,-0.22938 -2.47188,1.07569 -4.20377,2.44648 -0.947,0.74951 -1.91777,1.36274 -2.15731,1.36274 -0.23954,0 -0.86512,0.33793 -1.39019,0.75096 -0.69871,0.54963 -1.0595,0.64611 -1.34571,0.3599 -0.61559,-0.61559 0.35617,-2.0654 2.11568,-3.15651 0.84519,-0.52412 2.76278,-1.92257 4.26135,-3.10762 1.49856,-1.18505 3.19701,-2.39787 3.77437,-2.69508 1.73545,-0.89352 6.02424,-1.40208 11.80941,-1.40032 5.7229,0 5.80658,-0.0134 11.28889,-2.0236 4.21883,-1.547 7.26891,-3.16297 8.47816,-4.49189 3.19585,-3.512 5.28832,-6.15629 5.96794,-7.54182 1.37869,-2.81076 2.48723,-5.72724 2.48723,-6.54375 0,-0.44016 0.13811,-0.88564 0.30691,-0.98996 0.4686,-0.28963 2.0845,-3.7319 2.49732,-5.32003 1.0832,-4.16687 0.0155,-5.88878 -3.91947,-6.32104 -2.75149,-0.30229 -4.76384,-0.87266 -5.28214,-1.49715 -0.21548,-0.25965 -0.61186,-0.47209 -0.88082,-0.47209 -0.26895,0 -1.14645,-0.47625 -1.95001,-1.05833 -0.80356,-0.58209 -1.59932,-1.05834 -1.76841,-1.05834 -0.16905,0 -0.92177,-0.40657 -1.67265,-0.90346 -0.90424,-0.59842 -2.06315,-0.97194 -3.432,-1.10617 -1.13676,-0.11144 -2.25626,-0.35189 -2.48786,-0.53432 -0.23163,-0.18242 -1.81913,-0.41652 -3.52778,-0.5202 -4.70905,-0.28579 -10.5302,1.44759 -12.6214,3.75832 -0.35683,0.39433 -0.87753,0.71695 -1.15708,0.71695 -0.51844,0 -2.30861,0.89782 -3.26294,1.6365 -0.29104,0.22525 -1.58814,0.73392 -2.88244,1.1303 -1.29431,0.39641 -3.14019,1.11947 -4.10193,1.60683 -3.67545,1.86252 -6.07056,1.94419 -6.52081,0.22235 -0.34206,-1.30795 0.79971,-2.17487 3.2911,-2.49886 3.97739,-0.51721 5.60673,-0.91024 6.27291,-1.5131 0.35656,-0.32269 1.40021,-0.84289 2.31924,-1.15602 1.04863,-0.35733 1.77814,-0.84952 1.95872,-1.32161 0.49622,-1.29706 3.07168,-3.04257 4.49637,-3.04747 0.34921,0 1.11114,-0.25774 1.69323,-0.57009 1.38006,-0.74059 7.2717,-1.90034 9.525,-1.87498 0.97014,0.0109 2.55764,0.17629 3.52777,0.36742 0.97014,0.19117 2.7486,0.49216 3.9521,0.66887 1.20354,0.17674 2.79104,0.6513 3.52778,1.05459 2.7143,1.48576 5.39651,3.21769 5.39651,3.48456 0,0.47996 3.00535,1.79681 4.93663,2.16306 1.02436,0.19428 3.11058,0.3532 4.63603,0.3532 2.7619,0 2.78254,-0.007 4.88305,-1.63812 1.16018,-0.90096 2.21364,-1.96649 2.34103,-2.36781 0.12739,-0.40136 1.00397,-1.73743 1.948,-2.96908 1.25854,-1.64204 1.71637,-2.55161 1.71637,-3.40992 0,-0.64382 0.24938,-1.76738 0.55415,-2.49682 0.30476,-0.72944 0.5607,-1.82037 0.56874,-2.42432 0.008,-0.60396 0.29246,-1.58613 0.63208,-2.18257 0.33961,-0.59649 0.81181,-1.94586 1.04937,-2.99863 0.23752,-1.05276 0.57965,-2.49748 0.76023,-3.21047 0.18063,-0.713 0.22342,-2.18966 0.0951,-3.28148 -0.18397,-1.56525 -0.34529,-1.94214 -0.76277,-1.78194 -0.29122,0.11174 -0.78433,-0.0144 -1.0958,-0.2803 -0.3115,-0.2659 -1.9951,-0.67378 -3.74135,-0.90639 -5.29999,-0.70598 -6.36111,-1.00984 -8.69343,-2.48941 -1.23349,-0.78249 -2.56018,-1.42519 -2.94824,-1.42823 -0.38805,-0.003 -1.1818,-0.25787 -1.76389,-0.56631 -1.55261,-0.82269 -6.73308,-1.59903 -8.99583,-1.3481 -1.06715,0.11834 -2.81339,0.43094 -3.88055,0.69468 -1.06715,0.26373 -3.36903,0.50136 -5.11528,0.52806 -1.74625,0.0267 -4.1275,0.26187 -5.29166,0.52258 -2.77654,0.6218 -10.5415,3.19051 -11.55376,3.82208 -0.43642,0.27228 -2.43628,1.5602 -4.44419,2.86205 -3.43118,2.22465 -6.76179,3.76615 -11.38907,5.27116 -1.79081,0.58245 -2.13671,0.59638 -3.50259,0.14109 -2.33437,-0.77812 -2.52335,-1.42431 -0.84886,-2.9025 1.34864,-1.19052 1.50315,-1.23602 4.24596,-1.25017 4.28908,-0.0221 6.54788,-0.83027 11.60946,-4.15353 0.96573,-0.63405 1.92106,-1.15282 2.12299,-1.15282 0.20189,0 0.95599,-0.40016 1.67576,-0.88925 1.34627,-0.91483 5.18372,-2.27312 6.44483,-2.2812 0.3908,-0.002 1.58143,-0.35014 2.64583,-0.77253 1.15581,-0.45865 2.90943,-0.80745 4.35388,-0.86598 1.33022,-0.0539 3.15584,-0.33038 4.05694,-0.61439 5.80722,-1.83028 13.20574,-2.35112 16.58468,-1.16753 0.84741,0.29683 1.7521,0.45859 2.01044,0.35946 0.25834,-0.0991 1.33551,0.39447 2.39374,1.09688 2.0955,1.39092 4.77083,2.348 8.34256,2.98452 1.26118,0.22475 3.01763,0.58477 3.90317,0.80005 0.90442,0.21985 2.32548,0.28414 3.24221,0.14667 1.35494,-0.20319 1.99552,-0.59492 3.77278,-2.30718 1.17739,-1.13435 2.37352,-2.61955 2.658,-3.30044 0.28452,-0.6809 0.98806,-1.6098 1.56348,-2.06423 2.08142,-1.64381 3.60525,-6.52924 3.81007,-12.21527 0.10707,-2.97213 0,-4.4783 -0.42753,-5.94464 -0.8376,-2.88126 -0.54004,-3.66365 1.7762,-4.67034 1.05964,-0.46054 1.92662,-0.95099 1.92662,-1.0899 0,-0.13891 0.37942,-0.42543 0.84314,-0.63671 0.53735,-0.24484 1.06638,-1.00098 1.45881,-2.0851 0.33867,-0.93552 0.88956,-2.33595 1.22421,-3.11206 2.32064,-5.38165 3.3172,-8.19507 3.28016,-9.26041 -0.0349,-1.00378 -0.13564,-1.14653 -0.80909,-1.14653 -0.38806,0 -0.70556,-0.15336 -0.70556,-0.34081 0,-0.37214 0.86462,-2.46282 1.6323,-3.94695 0.69695,-1.34733 0.61193,-4.47568 -0.16157,-5.94802 -0.96717,-1.84098 -1.63844,-4.55428 -1.22819,-4.96453 0.59488,-0.5949 1.39791,0.0101 2.36025,1.77824 0.51079,0.93849 1.17232,1.79983 1.47007,1.91408 0.33732,0.12945 1.13344,-0.33805 2.11253,-1.24054 2.37864,-2.19256 3.89037,-5.39615 7.4682,-15.82647 0.3882,-1.13172 0.57147,-3.30936 0.63829,-7.58472 0.08,-5.12071 -0.031,-6.66363 -0.7607,-10.55689 -0.56543,-3.01772 -1.17852,-5.16008 -1.81292,-6.33513 -1.16565,-2.15912 -3.78764,-4.82483 -6.01307,-6.11337 -0.90653,-0.5249 -1.85568,-1.23873 -2.10922,-1.58629 -0.62301,-0.85407 -1.44819,-0.79563 -3.53004,0.25001 -0.96572,0.48507 -1.9002,0.88194 -2.07655,0.88194 -0.17639,0 -1.07167,0.47625 -1.98949,1.05834 -0.91786,0.58208 -1.97037,1.05833 -2.33888,1.05833 -0.6875,0 -4.43287,1.43299 -6.00823,2.29875 -0.48507,0.26658 -1.59632,0.82058 -2.46945,1.23111 -0.87312,0.41054 -2.32336,1.13364 -3.22273,1.60689 -0.89941,0.47326 -1.91999,0.86047 -2.26804,0.86047 -0.34802,0 -1.70244,0.34451 -3.00976,0.76557 -1.65548,0.53318 -2.48469,1.00187 -2.73174,1.54407 -0.19508,0.42819 -0.8226,1.31399 -1.39449,1.96847 -0.57185,0.65447 -1.49698,2.06307 -2.05581,3.13023 -0.89782,1.7145 -1.01283,2.2892 -0.98859,4.93889 0.0152,1.64923 0.15589,3.45206 0.31288,4.00627 0.20492,0.72349 0.14746,1.09504 -0.20384,1.31751 -0.68837,0.43594 -0.74242,0.41972 -1.76717,-0.53048 -0.75727,-0.70219 -0.96125,-1.29077 -1.16547,-3.36331 -0.42863,-4.35004 0.93839,-8.64072 3.78227,-11.87156 1.1883,-1.34998 1.55176,-1.55288 2.78176,-1.55288 0.8128,0 1.81335,-0.28063 2.35126,-0.65949 0.51502,-0.36271 1.65079,-1.02889 2.52392,-1.48039 1.06708,-0.55179 1.39287,-0.86299 0.99381,-0.94932 -0.3265,-0.0706 -1.07269,0.1193 -1.65816,0.42206 -0.58547,0.30276 -1.58832,0.55319 -2.22854,0.55652 -0.64025,0.003 -2.35468,0.33484 -3.80989,0.7367 -8.37375,2.31242 -14.15877,3.46433 -20.99028,4.17957 -5.88306,0.61594 -8.74285,1.1048 -9.47895,1.6204 -0.4027,0.28206 -1.14777,0.51284 -1.6557,0.51284 -0.79763,0 -4.36583,1.4891 -5.97506,2.49353 -0.29105,0.18166 -1.4023,0.77823 -2.46945,1.32572 -1.06715,0.54748 -2.52635,1.39895 -3.2427,1.89215 -0.71631,0.49321 -2.62131,1.56202 -4.23333,2.37516 -1.61198,0.81313 -3.16904,1.61448 -3.46008,1.78077 -0.82215,0.46976 -5.85385,2.01588 -9.17222,2.81841 -2.97671,0.71989 -6.85345,1.76087 -9.11758,2.44822 -0.64904,0.19704 -1.8662,0.92047 -2.70475,1.60761 -0.99437,0.81481 -1.57621,1.09611 -1.6728,0.80875 -0.11839,-0.35224 -0.39458,-0.35216 -1.37721,3.6e-4 -0.67603,0.24253 -1.57723,0.44097 -2.00265,0.44097 -0.42541,0 -1.04912,0.14938 -1.38606,0.33195 -0.65176,0.35318 -5.66667,1.39628 -8.0209,1.66833 -0.77611,0.0897 -1.88736,0.30407 -2.46944,0.47641 -0.58209,0.17233 -2.64584,0.491 -4.58612,0.70817 -1.94027,0.21716 -4.00402,0.45129 -4.58611,0.52029 -0.58208,0.069 -2.32833,0.2179 -3.88055,0.3309 -1.55222,0.11299 -3.5366,0.34841 -4.40972,0.52315 -0.87313,0.17475 -2.99537,0.33392 -4.71611,0.35372 -1.72075,0.0198 -3.26013,0.11727 -3.42082,0.2166 -0.16069,0.0993 -6.05533,0.24326 -13.09917,0.31988 -7.04384,0.0766 -16.61696,0.37345 -21.27363,0.65964 -4.65667,0.28619 -9.10167,0.52868 -9.87778,0.53888 -11.63747,0.15285 -20.73261,0.39028 -21.2508,0.55475 -0.35698,0.11329 -4.05592,0.43873 -8.21994,0.72318 -9.11754,0.62286 -15.74927,1.18816 -16.84164,1.43562 -1.28228,0.29048 -7.77198,0.92102 -10.66123,1.03584 -1.45521,0.0578 -3.20146,0.2083 -3.88056,0.33438 -1.63745,0.30401 -5.46924,0.46244 -18.16804,0.75119 -8.9949,0.20453 -10.9011,0.15811 -12.7,-0.30924 -1.1642,-0.30243 -3.1486,-0.64834 -4.4098,-0.76867 -3.2956,-0.31445 -9.2038,-1.21065 -9.6015,-1.45642 -0.1863,-0.11516 -2.3363,-0.18922 -4.7777,-0.16458 -3.8991,0.0393 -4.5282,-0.0364 -5.1722,-0.62264 -0.5007,-0.45573 -1.5243,-0.74173 -3.227,-0.90166 -1.3715,-0.12883 -3.3559,-0.4637 -4.4097,-0.74415 -1.0538,-0.28046 -2.4717,-0.51139 -3.1508,-0.51319 -0.6791,-0.002 -2.2666,-0.23407 -3.5277,-0.51616 -1.2612,-0.2821 -3.8806,-0.8573 -5.8209,-1.27822 -1.9403,-0.42092 -4.4803,-1.05944 -5.6444,-1.41892 -1.1642,-0.35949 -4.7361,-1.12372 -7.9375,-1.69829 -3.2015,-0.57457 -7.4877,-1.43935 -9.525,-1.92173 -2.0373,-0.48238 -4.289,-0.87375 -5.0037,-0.8697 -0.7147,0.004 -1.492,-0.11158 -1.7272,-0.25695 -0.2352,-0.14537 -1.476,-0.48577 -2.7574,-0.75645 -1.2814,-0.27069 -2.9648,-0.62628 -3.7409,-0.79021 -3.5352,-0.74672 -6.4782,-1.57202 -7.9375,-2.22592 -0.8731,-0.39124 -2.54,-1.0232 -3.7042,-1.40433 -1.1641,-0.38113 -2.9897,-1.21271 -4.0569,-1.84793 -1.0672,-0.63524 -3.2897,-1.84515 -4.9389,-2.68869 -1.6492,-0.84354 -4.3829,-2.37262 -6.0748,-3.39794 -1.6919,-1.02531 -3.2203,-1.86421 -3.3964,-1.86421 -0.1761,0 -0.538,-0.26245 -0.8042,-0.58322 -0.2662,-0.32077 -0.8816,-0.75733 -1.3674,-0.97014 -0.4859,-0.2128 -1.5972,-0.91353 -2.4696,-1.55717 -3.8225,-2.82011 -9.6419,-6.75721 -10.2935,-6.96403 -0.391,-0.1241 -0.9964,-0.48779 -1.3453,-0.80818 -0.9325,-0.85631 -2.4365,-2.06739 -4.2546,-3.42605 -0.8839,-0.66056 -3.1932,-2.75163 -5.1317,-4.64681 -1.9386,-1.89518 -4.0728,-3.87263 -4.7429,-4.39433 -1.7917,-1.39507 -4.0173,-3.58924 -7.3918,-7.28748 -1.6492,-1.80745 -3.5374,-3.78938 -4.1958,-4.40429 -1.0482,-0.97884 -3.943,-4.29303 -8.9742,-10.2743 -0.8087,-0.96138 -1.9465,-2.24753 -2.5286,-2.85813 -0.5821,-0.6106 -2.0109,-2.51744 -3.175,-4.23742 -1.1642,-1.71999 -3.3867,-4.423 -4.9389,-6.0067 -2.7776,-2.83386 -5.8764,-6.7798 -6.8424,-8.7128 -0.2707,-0.54187 -0.7973,-1.14847 -1.1702,-1.348 -0.3728,-0.19953 -1.1203,-1.06055 -1.6612,-1.91339 -0.5408,-0.85283 -1.823,-2.30552 -2.8492,-3.2282 -1.0263,-0.92267 -2.0686,-2.1583 -2.3163,-2.74584 -0.2477,-0.58753 -0.9512,-1.62387 -1.5635,-2.30296 -0.6122,-0.6791 -2.0726,-2.66347 -3.2453,-4.40972 -1.1727,-1.74625 -2.5497,-3.58981 -3.0601,-4.0968 -1.5756,-1.56521 -2.3631,-2.58935 -3.2418,-4.21585 -0.465,-0.86082 -1.6824,-2.54203 -2.7054,-3.73601 -1.0229,-1.19399 -1.8599,-2.28321 -1.8599,-2.42049 0,-0.13728 -0.635,-1.00804 -1.4111,-1.93502 -0.7761,-0.92698 -1.4111,-1.84771 -1.4111,-2.04607 0,-0.19836 -0.4566,-0.74482 -1.0146,-1.21435 -0.558,-0.46953 -1.534,-1.78733 -2.1689,-2.92843 -1.3673,-2.45743 -5.0504,-6.84174 -6.446,-7.67322 -0.5824,-0.34697 -1.3516,-1.38536 -1.8779,-2.53504 -0.4904,-1.07103 -1.0529,-1.94734 -1.2501,-1.94734 -0.3851,0 -1.6753,-1.41234 -1.6947,-1.85513 -0.02,-0.45671 -2.0981,-3.1725 -2.808,-3.66975 -0.3705,-0.2595 -1.0335,-1.06724 -1.4733,-1.79499 -0.7888,-1.3051 -1.9851,-2.93605 -2.9114,-3.96901 -0.261,-0.29105 -0.9323,-1.32292 -1.4918,-2.29306 -0.5594,-0.97014 -1.2115,-2.00201 -1.449,-2.29306 -0.2375,-0.29104 -0.8751,-1.12757 -1.4168,-1.85896 -3.2619,-4.40375 -4.3846,-5.85605 -6.3649,-8.2333 -1.2127,-1.45579 -2.2048,-2.77799 -2.2048,-2.93822 0,-0.16025 -0.451,-0.74675 -1.0022,-1.30335 -1.7347,-1.75167 -4.9951,-5.76797 -4.9951,-6.15315 0,-0.20302 -0.7653,-1.19307 -1.7006,-2.2001 -0.9354,-1.00704 -2.1334,-2.58621 -2.6623,-3.50928 -0.5288,-0.92307 -1.351,-1.93352 -1.8271,-2.24543 -0.476,-0.31192 -0.8655,-0.73088 -0.8655,-0.93101 0,-0.48528 -2.2741,-3.89259 -3.0002,-4.49517 -0.316,-0.26222 -1.2782,-1.52013 -2.1383,-2.79536 -2.2072,-3.27245 -5.3105,-7.42216 -6.4827,-8.66861 -0.5474,-0.58208 -1.4301,-1.77271 -1.9616,-2.64583 -1.332,-2.18848 -2.5794,-3.46795 -4.1866,-4.29438 -1.2935,-0.66512 -1.488,-0.67423 -3.7056,-0.17343 -1.6089,0.36332 -2.8363,0.43796 -3.9265,0.23876 -1.8501,-0.33806 -12.6584,-0.67982 -27.868,-0.88118 -5.9178,-0.0784 -11.8106,-0.25041 -13.0951,-0.38235 -1.9093,-0.19614 -2.7613,-0.0982 -4.6697,0.53689 -2.3112,0.76913 -3.3537,1.6736 -3.882,3.36819 -0.3036,0.97379 -3.3073,3.49045 -5.946,4.98193 -2.6779,1.51363 -5.3678,2.25001 -8.2192,2.25001 -1.7973,0 -2.4321,0.17903 -3.8714,1.09177 -0.9468,0.60047 -2.0781,1.22736 -2.514,1.39309 -1.5984,0.60769 -5.5663,7.21176 -6.0227,10.02385 -0.1088,0.67066 -0.4957,1.48891 -0.8597,1.81834 -0.4488,0.40615 -0.6618,1.07988 -0.6618,2.09282 0,2.17675 -1.0198,7.25612 -1.6537,8.23715 -0.3002,0.46448 -1.9956,2.30947 -3.7676,4.09998 -4.4372,4.48355 -4.5151,4.58039 -4.7387,5.88938 -0.109,0.63831 -0.2197,10.28869 -0.2459,21.44529 -0.026,11.15659 -0.08,22.18972 -0.1193,24.51805 -0.039,2.32834 -0.066,12.48834 -0.059,22.57778 0.01,10.08945 0.012,25.64694 0.01,34.57222 0,22.50142 0.036,23.78876 0.7468,24.18662 0.5722,0.3202 3.0818,2.26618 4.2589,3.30232 0.3329,0.29309 1.2458,0.93716 2.0285,1.43126 0.7827,0.49411 1.4231,1.04771 1.4231,1.23022 0,0.18252 0.7141,0.64774 1.5869,1.03382 0.8728,0.3861 2.3882,1.4907 3.3675,2.45468 0.9793,0.96398 2.5106,2.09587 3.4029,2.51529 0.8923,0.41943 1.8204,0.94944 2.0624,1.1778 0.242,0.22837 1.1142,0.97084 1.9384,1.64994 0.8241,0.6791 1.8335,1.61912 2.2431,2.08894 0.4095,0.46982 0.9827,1.06213 1.2738,1.31624 0.291,0.25412 1.6631,1.45722 3.049,2.67356 4.3725,3.83754 5.6968,4.85737 6.3077,4.85737 0.3266,0 1.3883,0.71438 2.3595,1.5875 0.9711,0.87313 1.9559,1.5875 2.1883,1.5875 0.2325,0 1.3485,1.0288 2.4801,2.28622 1.5237,1.69317 2.3702,2.34491 3.2634,2.51247 0.7064,0.13252 1.4337,0.5738 1.7557,1.06517 0.3023,0.4614 0.711,0.83892 0.9083,0.83892 0.1972,0 1.0918,0.73507 1.9879,1.63348 0.8961,0.89842 2.1452,2.02851 2.7758,2.51132 0.6306,0.48281 1.1556,1.05742 1.1668,1.27693 0.011,0.21951 1.067,1.27223 2.3462,2.33938 1.2793,1.06715 3.0891,2.68151 4.0217,3.58746 0.9327,0.90595 2.0059,1.74558 2.3848,1.86584 0.3789,0.12026 0.923,0.57601 1.2092,1.01277 0.2862,0.43677 1.4426,1.50214 2.5697,2.3675 1.1272,0.86536 3.09,2.58722 4.3619,3.82636 1.2719,1.23914 2.7192,2.50914 3.2161,2.82222 0.4969,0.31308 2.028,1.80659 3.4025,3.31891 2.5645,2.82159 5.8283,5.82943 7.4686,6.88281 0.509,0.32686 1.4201,1.11081 2.0248,1.74211 0.6047,0.6313 1.5824,1.24441 2.1727,1.36246 0.8813,0.17628 1.1139,0.43152 1.3008,1.42766 0.1513,0.80651 0.4926,1.31378 1.0184,1.5137 0.435,0.16537 1.3832,1.02356 2.1072,1.90709 0.724,0.88353 1.9129,1.94171 2.6421,2.35153 0.7291,0.40981 1.7802,1.46355 2.3358,2.34165 0.5555,0.8781 1.3803,1.76527 1.8329,1.97149 0.4526,0.20623 0.9082,0.64346 1.0123,0.97163 0.1964,0.61866 3.0323,2.82403 3.6315,2.82403 0.1872,0 0.5359,0.47191 0.7748,1.04869 0.239,0.57678 0.7742,1.43277 1.1894,1.9022 0.4152,0.46943 1.6559,2.25971 2.7572,3.97839 1.1013,1.71869 2.6888,3.85967 3.5278,4.75773 2.156,2.3077 3.9808,4.56854 4.5192,5.5991 0.2535,0.48507 1.1123,1.67326 1.9086,2.64042 0.7962,0.96717 1.7652,2.1577 2.1532,2.64563 0.3881,0.48793 1.3009,1.45817 2.0285,2.15608 0.7276,0.69792 1.3229,1.41529 1.3229,1.59418 0,0.17888 0.5953,1.05922 1.3229,1.95631 0.7276,0.89709 1.6405,2.16227 2.0285,2.81151 3.286,5.49768 4.9681,7.89174 6.8975,9.81706 0.8832,0.88135 2.2018,2.6343 2.9302,3.89548 0.7284,1.26118 2.026,3.4043 2.8835,4.7625 0.8575,1.35819 2.1058,3.50132 2.7739,4.7625 0.6681,1.26118 1.6245,2.83982 2.1252,3.50813 0.5008,0.66826 0.9105,1.40091 0.9105,1.6281 0,0.22719 0.3138,0.81188 0.6972,1.29935 0.3834,0.48747 1.4185,2.29482 2.3001,4.01634 0.8816,1.72152 2.0762,3.92377 2.6548,4.89391 0.5785,0.97014 1.3727,2.47827 1.7648,3.35139 0.3921,0.87313 1.3635,2.8575 2.1587,4.40972 2.9522,5.76291 4.1828,8.32312 4.1828,8.70257 0,0.75463 2.892,6.32714 3.6837,7.09789 0.4407,0.42905 1.0104,1.57385 1.2661,2.54399 0.2557,0.97014 0.6598,2.08139 0.8979,2.46944 0.2382,0.38806 0.5482,1.25596 0.6889,1.92871 0.1407,0.67271 0.3797,1.46646 0.5311,1.76389 0.6112,1.20106 2.5416,5.8723 2.7005,6.53478 0.093,0.38982 0.2932,1.30115 0.444,2.02519 0.1507,0.72408 0.4396,1.51783 0.642,1.76389 0.2024,0.2461 0.6267,1.3407 0.9429,2.43244 0.3162,1.09178 0.8835,2.2643 1.2607,2.60562 1.1139,1.00813 2.1869,4.35493 2.4868,7.75659 0.154,1.74625 0.4701,4.445 0.7026,5.99722 0.2325,1.55223 0.4682,3.29848 0.5238,3.88056 0.056,0.58208 0.2063,1.61396 0.3348,2.29306 0.6849,3.61794 0.8429,5.15627 0.6656,6.47738 -0.3365,2.5066 1.383,12.44904 2.5499,14.74421 0.2619,0.5153 0.5165,1.46466 0.5657,2.10972 0.049,0.64505 0.3703,1.45376 0.7136,1.79715 0.4373,0.43723 0.6256,1.17923 0.6286,2.4764 0,1.01864 0.2316,2.70672 0.5096,3.75129 0.2781,1.04458 0.6104,2.79083 0.7386,3.88056 0.1283,1.08973 0.593,2.61634 1.0328,3.39245 0.4399,0.77611 0.9143,1.78171 1.0544,2.23467 0.14,0.45293 1.1922,2.786558 2.338,5.185798 1.1459,2.39924 2.0865,4.48927 2.0901,4.6445 0.01,0.25072 0.7056,1.3699 2.7302,4.36721 0.8203,1.21451 7.6496,6.92016 8.6465,7.22386 0.4331,0.13194 1.0412,0.46204 1.3513,0.73354 0.3101,0.27149 1.8182,0.93475 3.3514,1.4739 1.5332,0.53919 3.1845,1.2386 3.6695,1.55427 0.4851,0.3157 1.7551,0.73311 2.8223,0.92759 1.0671,0.19452 3.369,0.78793 5.1152,1.31869 5.4631,1.66045 12.4508,2.09472 19.7556,1.22766 z m -14.2875,-108.042848 c -3.4835,-0.32628 -7.8679,-1.49913 -8.6946,-2.32586 -0.2627,-0.26264 -0.4776,-0.71695 -0.4776,-1.00955 0,-0.41617 0.2485,-0.47741 1.1414,-0.2813 0.6277,0.13787 1.4611,0.44909 1.852,0.69159 1.4872,0.92254 9.2098,1.30316 13.8517,0.68269 1.8242,-0.24384 1.8521,-0.23368 1.8521,0.67254 0,0.71924 -0.2118,0.96453 -0.9701,1.12359 -0.5336,0.1119 -1.6358,0.35306 -2.4493,0.53587 -0.8135,0.18285 -1.766,0.30812 -2.1167,0.27838 -0.3506,-0.0296 -2.1456,-0.1953 -3.9889,-0.36795 z m -37.7472,-1.34189 c 0,-0.19403 0.3175,-0.35278 0.7056,-0.35278 0.388,0 0.7055,0.15875 0.7055,0.35278 0,0.19402 -0.3175,0.35277 -0.7055,0.35277 -0.3881,0 -0.7056,-0.15875 -0.7056,-0.35277 z m 32.9129,-4.60358 c -0.8155,-0.16111 -1.768,-0.4409 -2.1166,-0.6218 -0.3486,-0.18087 -1.4276,-0.43907 -2.3977,-0.57376 -0.9701,-0.13469 -2.4783,-0.60981 -3.3514,-1.05586 -0.8731,-0.44602 -1.9844,-0.92957 -2.4694,-1.07457 -1.0907,-0.32596 -2.8222,-1.90676 -2.8222,-2.57647 0,-0.97903 6.1308,0.46838 7.7611,1.83225 0.291,0.24349 1.7991,0.89814 3.3514,1.45479 2.4047,0.86233 3.4484,1.02729 7.0555,1.11527 4.4311,0.10806 5.1153,0.21294 5.1153,0.7844 0,0.95472 -6.5665,1.41887 -10.126,0.71575 z m 0.3907,-4.20617 c -3.3332,-0.37394 -6.0336,-1.19062 -9.3466,-2.82659 -1.5066,-0.74398 -3.108,-1.46724 -3.5586,-1.60726 -0.4506,-0.13998 -1.2406,-0.55121 -1.7556,-0.9138 -0.5151,-0.36258 -1.202,-0.65927 -1.5265,-0.65927 -0.3245,0 -1.0752,-0.48514 -1.6681,-1.07809 -0.621,-0.62099 -1.2964,-0.9943 -1.593,-0.8805 -0.321,0.12319 -0.5846,-0.0686 -0.6998,-0.50941 -0.1017,-0.38883 -0.3252,-0.707 -0.4965,-0.707 -0.1714,0 -0.3117,-0.16034 -0.3117,-0.35634 0,-0.19597 -0.668,-1.06624 -1.4845,-1.93386 -1.3812,-1.46773 -2.5955,-4.15717 -2.1804,-4.82889 0.4528,-0.73261 1.1826,-0.30999 4.0834,2.36474 0.5212,0.48059 1.0222,0.87379 1.1134,0.87379 0.091,0 1.0142,0.81781 2.051,1.81734 2.3006,2.21788 8.3175,6.2962 9.2908,6.29747 0.3896,0 1.629,0.55612 2.7544,1.23472 1.1254,0.67861 2.4748,1.23621 2.9986,1.23913 0.5239,0.004 1.5875,0.23407 2.3636,0.51368 1.6496,0.59426 6.5166,0.69872 8.2926,0.17798 1.7431,-0.5111 3.8782,-0.11398 3.8782,0.72136 0,0.35793 -0.2778,0.72951 -0.6173,0.82578 -1.23,0.34862 -9.144,0.50913 -11.5874,0.23502 z m 0.034,-3.92296 c -1.7462,-0.38491 -3.4614,-0.70301 -3.8116,-0.70686 -0.3501,-0.004 -1.4487,-0.48581 -2.4413,-1.07106 -0.9926,-0.58526 -3.008,-1.67609 -4.4787,-2.42405 -1.4707,-0.74796 -3.3089,-1.92373 -4.0851,-2.61281 -0.7761,-0.68908 -1.5742,-1.25592 -1.7736,-1.25963 -0.1995,-0.004 -0.6286,-0.28458 -0.9537,-0.62413 -0.3251,-0.33955 -1.3298,-1.25236 -2.2328,-2.02848 -0.9029,-0.77611 -2.2059,-2.00642 -2.8954,-2.73402 -0.6895,-0.72761 -1.4455,-1.32292 -1.68,-1.32292 -0.4871,0 -7.0474,-6.70588 -9.1489,-9.35186 -0.7691,-0.96834 -2.1978,-2.66118 -3.175,-3.76184 -0.9772,-1.10067 -2.7292,-3.14089 -3.8933,-4.53387 -1.1642,-1.39298 -2.7245,-3.11181 -3.4674,-3.81963 -1.6324,-1.55525 -2.0669,-2.29157 -1.7853,-3.02531 0.6729,-1.75345 3.4019,0.18856 8.6944,6.18701 1.9876,2.25274 5.3204,5.66494 7.4062,7.58268 2.0858,1.9177 3.7923,3.65749 3.7923,3.86616 0,0.20867 0.3572,0.70305 0.7938,1.09862 0.8154,0.73879 4.0952,4.23662 5.4158,5.77575 1.2963,1.51066 4.2887,4.21562 4.6638,4.21562 0.1988,0 0.8101,0.37508 1.3586,0.83348 0.5485,0.45843 1.8703,1.34316 2.9375,1.9661 1.0671,0.62293 2.452,1.45062 3.0774,1.83931 1.5506,0.96375 4.6435,2.06389 5.8023,2.06389 0.5237,0 1.399,0.17607 1.9452,0.39127 1.5097,0.59475 8.8463,1.03741 9.948,0.60021 2.5206,-1.0003 7.8807,-1.71947 13.714,-1.84005 l 6.0883,-0.12584 1.6728,1.09153 c 1.9595,1.27865 2.1894,1.55335 2.1966,2.62566 0.01,1.09227 -1.1697,1.47824 -3.4223,1.12218 -3.4845,-0.55082 -10.8692,-0.79886 -12.1245,-0.40724 -1.5597,0.48662 -3.9466,0.70506 -10.0242,0.91747 -4.0788,0.14252 -5.4918,0.0507 -8.1139,-0.52734 z m 380.63667,-19.37699 c -1.15835,-0.57682 -2.29041,-1.04937 -2.51569,-1.05007 -0.5285,0 -2.23622,-2.02579 -2.23622,-2.65046 0,-0.2631 0.30084,-0.57383 0.66854,-0.69053 0.39709,-0.12604 0.75848,-0.67285 0.89003,-1.34669 0.37567,-1.9243 2.0539,-4.64926 2.94093,-4.7752 1.83719,-0.26091 1.30376,2.00903 -1.08307,4.6088 l -1.48801,1.62073 0.8957,0.99864 c 1.39665,1.55713 2.51156,1.88059 6.48229,1.88059 1.99581,0 3.729,0.10026 3.85152,0.22278 0.5926,0.59256 -0.55446,1.50996 -2.13455,1.70723 -0.92114,0.11501 -2.23516,0.27968 -2.92008,0.36601 -0.90103,0.11356 -1.82753,-0.133 -3.35139,-0.89183 z m 12.18142,-29.21726 c -2.00914,-0.31775 -2.47079,-0.61309 -2.46405,-1.5765 0.01,-1.43215 0.49876,-1.80311 1.50604,-1.14311 1.07612,0.7051 6.73898,1.23621 9.07189,0.85086 2.46423,-0.40706 3.175,-0.35874 3.175,0.21581 0,1.01751 -1.98331,1.60789 -5.90729,1.75845 -2.08676,0.08 -4.50847,0.0325 -5.38159,-0.10551 z m -2.46948,-5.77837 c -0.21217,-0.83047 -0.5515,-1.93481 -0.75407,-2.45408 -0.4561,-1.16927 -0.19314,-2.05722 0.9186,-3.10165 1.73443,-1.62943 2.56851,0.0418 1.28111,2.567 -0.46111,0.90447 -0.61404,1.74122 -0.48884,2.67469 0.26035,1.94103 -0.47914,2.18374 -0.9568,0.31404 z m 14.11113,-27.29463 c -0.6791,-0.32151 -1.83077,-0.55844 -2.5593,-0.52652 -1.00435,0.044 -1.54629,-0.16371 -2.24183,-0.85923 -0.9634,-0.96341 -0.96185,-0.92419 -0.17483,-4.40318 0.19752,-0.87313 0.36604,-2.49146 0.37447,-3.5963 0.0123,-1.59375 0.18905,-2.21069 0.85587,-2.98593 0.76694,-0.8916 0.9247,-0.93877 1.80245,-0.53883 0.85274,0.38853 0.93352,0.56736 0.71134,1.57482 -0.13783,0.62508 -0.23174,1.96829 -0.20867,2.98491 0.0229,1.01661 -0.199,2.42506 -0.4935,3.12989 -0.73173,1.75124 -0.67419,2.25343 0.25831,2.25498 0.43656,7.1e-4 1.31353,0.31822 1.94881,0.70556 0.86526,0.52755 1.77751,0.70423 3.63612,0.70423 3.37732,0 5.30945,-0.55206 7.00172,-2.00057 1.51077,-1.29319 2.14182,-1.28874 2.14182,0.0151 0,1.13657 -1.68049,2.59151 -3.71761,3.21866 -2.77967,0.85576 -7.83946,1.0305 -9.33517,0.32239 z m -67.53733,-4.48627 c -0.64946,-0.48434 -0.65465,-0.55936 -0.0976,-1.40952 0.3236,-0.49388 0.91846,-1.00273 1.32189,-1.13077 0.56208,-0.1784 0.64273,-0.34222 0.34505,-0.70091 -0.26433,-0.31849 -0.27188,-0.54015 -0.0236,-0.69355 0.35278,-0.21804 2.9338,-0.70785 5.84306,-1.10885 1.74639,-0.24073 5.158,-1.87022 7.11757,-3.39961 5.61644,-4.38337 10.94881,-6.94411 15.4801,-7.43389 0.98108,-0.10605 3.48263,-0.83883 5.55897,-1.62841 8.89903,-3.38403 13.39546,-3.43963 19.8767,-0.24579 1.00069,0.49312 2.24634,1.00373 2.7681,1.13469 1.78626,0.44832 5.03876,2.21912 6.04665,3.29203 l 1.00746,1.07246 5.11528,0.20597 c 6.40048,0.25774 9.85061,0.73177 10.66052,1.46473 0.77297,0.69953 0.78317,0.95966 0.0658,1.67699 -0.51484,0.51485 -0.65684,0.50486 -1.67569,-0.11789 -0.91599,-0.55989 -2.0192,-0.71388 -6.22844,-0.86935 -5.51314,-0.20364 -7.6878,-0.58154 -8.31973,-1.44577 -0.22059,-0.30171 -0.60928,-0.54855 -0.86371,-0.54855 -0.49932,0 -3.43214,-1.10501 -7.92628,-2.98643 -1.55222,-0.64981 -3.69535,-1.54455 -4.7625,-1.98832 -3.01364,-1.25317 -8.80639,-1.10926 -11.99702,0.29805 -2.87933,1.26999 -9.66413,3.25362 -11.74189,3.4329 -1.1237,0.097 -2.3937,0.35811 -2.82222,0.58034 -2.23012,1.15653 -5.26143,3.15653 -7.28599,4.80712 -1.25042,1.01946 -2.48073,1.85356 -2.73403,1.85356 -0.25329,0 -0.46052,0.13949 -0.46052,0.30998 0,0.17048 -0.51593,0.51491 -1.14652,0.76538 -1.11884,0.44441 -7.59125,3.57865 -9.30222,4.50457 -1.37196,0.74245 -3.0552,0.87856 -3.81914,0.30884 z m 79.35539,-27.07516 c -2.05483,-0.27514 -2.6276,-0.50418 -3.41136,-1.36417 -0.90717,-0.99537 -0.93705,-1.15798 -0.8098,-4.40625 0.0969,-2.47402 -0.0116,-3.71635 -0.40669,-4.66223 -0.67073,-1.60538 -0.42425,-2.67897 0.76073,-3.31316 1.28221,-0.68622 2.0827,-0.1025 2.17876,1.58876 0.0415,0.73131 0.25809,1.88285 0.48122,2.55897 0.482,1.46049 0.16422,4.49552 -0.59249,5.65902 -0.67895,1.04389 -0.47805,1.30804 1.5101,1.98548 1.92539,0.65605 4.79595,0.71779 8.27504,0.17799 1.3619,-0.2113 2.54699,-0.3134 2.63349,-0.22688 0.28797,0.28795 -0.21647,1.14966 -0.93599,1.59902 -0.93687,0.58509 -6.57271,0.81991 -9.68301,0.40345 z m -70.49675,-0.21547 c -0.7016,-0.70159 -0.11218,-1.53565 1.6866,-2.38661 1.21789,-0.57616 2.09356,-1.2639 2.39081,-1.8777 0.42068,-0.86876 0.65482,-0.96855 2.27256,-0.96855 1.15192,0 2.04071,-0.20541 2.45988,-0.5685 0.361,-0.31266 1.60884,-1.16576 2.77301,-1.89576 1.16417,-0.73 2.35479,-1.54767 2.64583,-1.81704 2.08979,-1.9342 6.87988,-4.6734 9.30642,-5.32186 0.94696,-0.25306 2.5078,-0.85493 3.46859,-1.3375 1.06066,-0.53275 2.35002,-0.8774 3.28242,-0.8774 0.84455,0 1.98243,-0.17411 2.52863,-0.3869 0.54621,-0.2128 1.70748,-0.59489 2.58061,-0.8491 1.76565,-0.51407 4.38753,-1.43631 5.46805,-1.92336 4.09815,-1.84728 11.14006,-2.19536 13.84124,-0.68416 0.62766,0.35116 1.81564,0.82007 2.63991,1.04202 0.82426,0.22196 2.32057,0.94911 3.32514,1.61589 2.21685,1.47147 3.92363,1.79574 11.80345,2.2425 6.32922,0.35886 7.84705,0.68401 7.49349,1.60529 -0.18573,0.48404 -0.64149,0.53529 -3.08006,0.34634 -6.2423,-0.48367 -7.5789,-0.56743 -10.97594,-0.68779 -3.16527,-0.11215 -3.79967,-0.25317 -6.17361,-1.37232 -2.54195,-1.19833 -4.91229,-2.02792 -9.25382,-3.23867 -1.47726,-0.41198 -2.20744,-0.46454 -2.71082,-0.19513 -0.37895,0.2028 -1.03674,0.36872 -1.46181,0.36872 -0.42506,0 -1.74519,0.4146 -2.93362,0.92133 -1.18841,0.50673 -2.55764,1.08324 -3.04271,1.28113 -0.48507,0.19788 -1.43757,0.63285 -2.11667,0.96658 -0.6791,0.33373 -2.42076,0.8098 -3.8704,1.05792 -1.4496,0.24811 -3.27522,0.72456 -4.05694,1.05877 -0.78168,0.33421 -2.19815,0.72355 -3.14766,0.86519 -2.52634,0.37685 -6.00491,1.98073 -8.61938,3.97419 -0.83947,0.64008 -1.66127,1.16378 -1.82619,1.16378 -0.36407,0 -5.53851,3.36806 -6.52526,4.24731 -0.38806,0.34577 -1.65806,0.94162 -2.82222,1.32411 -1.16417,0.38249 -3.04924,1.11102 -4.18903,1.61895 -2.14471,0.95576 -2.75925,1.0896 -3.1605,0.68833 z m 60.11806,-25.54808 c -0.8576,-0.16828 -2.88463,-0.94463 -4.50448,-1.72523 -1.61988,-0.7806 -3.08278,-1.41928 -3.25088,-1.41928 -0.1681,0 -0.57263,-0.4075 -0.89898,-0.90555 -0.44369,-0.67716 -0.49463,-1.0245 -0.20193,-1.37715 0.31795,-0.38313 0.72612,-0.24633 2.17568,0.72916 1.37622,0.92613 2.1595,1.20431 3.42459,1.21625 0.90213,0.008 2.25492,0.23459 3.0062,0.50239 1.45104,0.51724 3.01392,0.48979 7.2771,-0.12783 4.21425,-0.61052 5.76707,-0.93641 6.59141,-1.38336 0.42379,-0.22979 1.10243,-0.4178 1.50809,-0.4178 0.80391,0 4.97716,-2.00832 7.12018,-3.42649 0.95169,-0.6298 1.60119,-0.82301 2.23337,-0.66435 2.21096,0.55492 0.61009,2.02156 -5.49081,5.03045 -3.92568,1.93608 -5.50951,2.50465 -9.31122,3.34249 -4.66454,1.028 -6.89547,1.17237 -9.67832,0.6263 z m 8.50008,-4.91704 c 0.0859,-0.25769 1.17873,-0.88958 2.42852,-1.4042 1.24975,-0.51462 3.06701,-1.41217 4.03832,-1.99456 1.91392,-1.14759 5.69986,-2.47348 6.05338,-2.11998 0.28515,0.28516 -0.55524,1.29405 -1.07791,1.29405 -0.22225,0 -0.95688,0.37017 -1.63252,0.8226 -1.449,0.97032 -7.06356,3.29655 -8.77217,3.63449 -0.90921,0.17983 -1.15655,0.12443 -1.03762,-0.2324 z m 1.66292,-3.89619 c -0.40435,-0.24991 -0.25167,-0.36897 2.33235,-1.8188 4.93992,-2.77169 6.17362,-3.21759 6.17362,-2.23138 0,0.28141 -0.82681,0.87672 -1.83734,1.32292 -1.01053,0.44619 -2.83291,1.29889 -4.04971,1.89489 -1.2168,0.59599 -2.39529,0.97056 -2.61892,0.83237 z m 12.95231,-3.23892 c -1.20746,-2.06882 -1.49243,-2.9352 -1.76961,-5.37986 -0.13197,-1.16416 -0.3242,-2.74249 -0.42714,-3.50738 -0.24366,-1.80985 0.48055,-5.72055 1.3166,-7.10958 0.36149,-0.60058 0.77851,-1.93271 0.92678,-2.96029 0.33497,-2.32191 1.13471,-3.00046 2.23711,-1.89808 0.92332,0.92334 1.09227,3.37022 0.43706,6.32976 -0.2545,1.14951 -0.543,3.83627 -0.64107,5.97057 -0.0981,2.13431 -0.23989,4.57707 -0.31507,5.42836 -0.0752,0.85129 -0.004,2.01132 0.15872,2.57785 0.67991,2.3707 -0.64015,2.74726 -1.92338,0.54865 z m -432.23172,-38.17129 c -0.1082,-0.28176 -0.098,-0.6717 0.022,-0.86654 0.3408,-0.55155 1.2546,-0.0337 1.2546,0.711 0,0.78242 -0.9902,0.90303 -1.277,0.15554 z m 631.06688,19.29768 c 0.29902,-0.33954 0.98027,-1.49048 1.51391,-2.55764 1.03516,-2.06999 3.36363,-5.51659 5.48164,-8.11388 0.71201,-0.87313 1.41616,-1.98438 1.56478,-2.46945 0.14859,-0.48507 0.54455,-1.27882 0.87987,-1.76389 1.24745,-1.80456 4.58911,-8.59954 4.58036,-9.31376 -0.006,-0.49433 -0.30854,-0.15417 -0.9101,1.02349 -1.16286,2.27648 -2.18077,3.35138 -3.17366,3.35138 -0.43716,0 -1.09347,0.37964 -1.45845,0.84364 -1.73856,2.21021 -5.93284,3.75893 -7.07817,2.61359 -0.75269,-0.75268 -0.48892,-1.66552 0.5468,-1.89247 1.69291,-0.37095 1.85209,-0.46986 1.85209,-1.15085 0,-0.36661 1.36087,-2.07816 3.02419,-3.80343 3.56721,-3.70015 4.43448,-5.1898 4.7596,-8.17533 0.14676,-1.34777 0.48786,-2.48865 0.87045,-2.91138 0.53802,-0.59454 0.57174,-0.88647 0.23301,-2.01712 -0.21784,-0.72708 -0.38555,-2.20299 -0.37268,-3.2798 0.0612,-5.12748 -0.8981,-8.90014 -3.89784,-15.32824 -0.54324,-1.16416 -1.1533,-2.52567 -1.35565,-3.02556 -0.20236,-0.4999 -0.88639,-1.16 -1.52009,-1.4669 -1.09319,-0.52946 -1.21684,-0.51718 -2.4167,0.24 -0.6955,0.4389 -1.66145,0.91853 -2.14652,1.06585 -0.48506,0.14732 -1.67569,0.6644 -2.64583,1.14907 -0.97014,0.48467 -2.00201,0.99822 -2.29305,1.14123 -0.29105,0.14301 -0.68792,0.56193 -0.88195,0.93094 -0.19403,0.36901 -1.00178,1.54405 -1.795,2.61121 -0.79322,1.06715 -1.64652,2.33715 -1.89618,2.82222 -0.24966,0.48507 -0.74623,1.20396 -1.10349,1.59754 -0.35723,0.39358 -0.89839,1.42094 -1.20255,2.28301 -0.30417,0.86208 -0.83898,1.88944 -1.18844,2.28302 -2.31309,2.6049 -3.02415,9.75982 -1.08878,10.95593 0.23594,0.14583 0.77918,-0.14114 1.27074,-0.67128 1.31019,-1.41296 1.76231,-1.19167 1.98558,0.97181 0.12474,1.20845 0.77794,3.11874 1.79835,5.25905 0.88135,1.84868 1.70787,3.81248 1.83671,4.36399 0.12883,0.55152 0.66777,1.71714 1.19761,2.59026 0.88402,1.45685 1.74815,5.57894 1.92278,9.17223 0.0236,0.48507 0.48958,1.3566 1.03558,1.93674 0.9701,1.03079 0.99109,1.13915 0.92244,4.7625 -0.0386,2.03923 -0.0525,3.90614 -0.0307,4.14867 0.0556,0.62058 0.54158,0.5479 1.17937,-0.17639 z m 16.23448,-46.37068 c -0.42576,-0.42578 -0.88056,-0.66774 -1.0106,-0.53769 -0.34325,0.34323 0.55785,1.31184 1.2204,1.31184 0.45357,0 0.41236,-0.15198 -0.2098,-0.77415 z m 59.46046,-16.24737 c -0.1184,-1.65531 -2.90562,-7.98908 -3.32924,-7.56546 -0.3266,0.32659 0.52356,7.69238 0.94672,8.20223 0.23265,0.28037 0.88236,0.50975 1.44377,0.50975 0.93324,0 1.01371,-0.0983 0.93875,-1.14652 z m -12.98198,-129.72428 c 0,-0.47821 0.62692,-0.77517 0.85556,-0.40525 0.10929,0.17686 -0.0385,0.4126 -0.3284,0.52385 -0.28995,0.11126 -0.52716,0.0579 -0.52716,-0.1186 z m -101.15233,-7.64948 c -0.23883,-0.0966 -0.71508,-0.10252 -1.05833,-0.0131 -0.34322,0.0894 -0.14782,0.16851 0.43427,0.17569 0.58208,0.007 0.86292,-0.066 0.62406,-0.16262 z m 4.58424,-0.0169 c -0.43388,-0.0837 -1.22763,-0.0859 -1.76389,-0.005 -0.53622,0.0811 -0.18122,0.1496 0.78892,0.15224 0.97014,0.003 1.40889,-0.0637 0.97497,-0.14743 z M -1421.0158,32.730068 c -0.3423,-0.34223 -0.2881,-1.17592 0.076,-1.17592 0.1714,0 0.3946,0.3175 0.4961,0.70556 0.1813,0.69345 -0.1101,0.93285 -0.5726,0.47036 z m 0.7562,-117.06342 c -0.079,-0.67909 -0.017,-1.23472 0.1377,-1.23472 0.1551,0 0.282,0.55563 0.282,1.23472 0,0.6791 -0.062,1.23472 -0.1378,1.23472 -0.076,0 -0.2027,-0.55562 -0.2819,-1.23472 z m -0.3599,-28.390388 c -0.1933,-1.31699 0.2228,-2.11719 0.8006,-1.53945 0.4341,0.43413 0.133,2.58957 -0.3618,2.58957 -0.1566,0 -0.354,-0.47255 -0.4388,-1.05012 z m 0.2655,-5.27551 c -0.1116,-0.18062 -0.042,-0.42813 0.1556,-0.54998 0.1971,-0.12188 0.3585,0.0258 0.3585,0.3284 0,0.61966 -0.2117,0.71088 -0.5141,0.22158 z m 0.1343,-1.87646 c -0.015,-0.43656 -0.08,-1.07093 -0.145,-1.4097 -0.065,-0.33877 0.027,-0.70534 0.2034,-0.81456 0.1768,-0.10926 0.3214,0.52511 0.3214,1.4097 0,1.60817 -0.3288,2.31344 -0.3798,0.81456 z m -0.01,-11.03845 c -0.1429,-0.28984 -0.133,-1.55215 0.029,-3.69002 0.022,-0.29104 -0.064,-2.1565 -0.192,-4.14549 -0.1277,-1.98896 -0.1124,-4.05271 0.034,-4.58611 l 0.266,-0.96979 0.3456,1.23472 c 0.3213,1.14815 0.4286,2.72027 0.301,4.40973 -0.029,0.38805 -0.046,1.02305 -0.038,1.41111 0.084,3.75673 -0.3213,7.19677 -0.7458,6.33585 z m 1195.59796,-169.4845 c 0,-0.18794 0.23813,-0.25033 0.52917,-0.13865 0.29104,0.11169 0.52917,0.26545 0.52917,0.34171 0,0.0762 -0.23813,0.13864 -0.52917,0.13864 -0.29104,0 -0.52917,-0.15377 -0.52917,-0.3417 z"
       style="fill:#000000;stroke-width:0.35277778" />
  </g>
</svg>
