<?xml version="1.0" encoding="UTF-8" standalone="no"?>
<!-- Created with Inkscape (http://www.inkscape.org/) -->

<svg
   xmlns:dc="http://purl.org/dc/elements/1.1/"
   xmlns:cc="http://creativecommons.org/ns#"
   xmlns:rdf="http://www.w3.org/1999/02/22-rdf-syntax-ns#"
   xmlns:svg="http://www.w3.org/2000/svg"
   xmlns="http://www.w3.org/2000/svg"
   xmlns:sodipodi="http://sodipodi.sourceforge.net/DTD/sodipodi-0.dtd"
   xmlns:inkscape="http://www.inkscape.org/namespaces/inkscape"
   width="149.12793mm"
   height="184.40843mm"
   id="svg2"
   version="1.1"
   inkscape:version="0.91 r13725"
   viewBox="0 0 149.12793 184.40843"
   sodipodi:docname="free-deniz-pd.svg">
  <defs
     id="defs4" />
  <sodipodi:namedview
     inkscape:document-units="mm"
     pagecolor="#ffffff"
     bordercolor="#666666"
     borderopacity="1.0"
     inkscape:pageopacity="0.0"
     inkscape:pageshadow="2"
     inkscape:window-width="1024"
     inkscape:window-height="689"
     inkscape:window-x="0"
     inkscape:window-y="25"
     inkscape:zoom="1"
     inkscape:cx="451.20303"
     inkscape:cy="333.70786"
     inkscape:current-layer="layer1"
     id="namedview6"
     showgrid="false"
     borderlayer="true"
     fit-margin-top="0"
     fit-margin-left="0"
     fit-margin-right="0"
     fit-margin-bottom="0" />
  <metadata
     id="metadata8">
    <rdf:RDF>
      <cc:Work
         rdf:about="">
        <dc:format>image/svg+xml</dc:format>
        <dc:type
           rdf:resource="http://purl.org/dc/dcmitype/StillImage" />
        <dc:title></dc:title>
      </cc:Work>
    </rdf:RDF>
  </metadata>
  <g
     inkscape:label="Layer 1"
     inkscape:groupmode="layer"
     id="layer1"
     transform="translate(-10.482854,-10.100269)">
    <g
       id="g11326">
      <rect
         style="opacity:1;fill:#ffffff;fill-opacity:1;fill-rule:nonzero;stroke:#000000;stroke-width:1.32410002;stroke-miterlimit:4;stroke-dasharray:none;stroke-opacity:1"
         id="rect11295"
         width="147.80383"
         height="183.08434"
         x="11.144904"
         y="10.762319" />
      <path
         style="fill:#080808"
         d="M 99.655654,42.049812 C 94.628344,42.111381 89.651694,44.875079 87.048364,49.342075 86.515804,57.104471 82.917904,50.69289 79.232014,49.138551 75.288034,45.41392 68.207084,44.611229 63.797774,47.933688 56.330914,51.502343 51.624424,58.763328 49.088084,66.409597 48.883994,73.00379 46.640234,78.646795 41.99018,83.18201 38.154777,88.479618 30.487942,92.753504 31.921848,100.27802 32.390975,104.91872 35.381523,115.49875 27.423968,113.2252 23.480271,104.24419 21.200158,113.3037 24.882972,118.17186 25.072033,124.71016 40.394188,118.18902 33.043267,123.0778 25.527714,125.57394 33.941487,127.18491 36.956015,124.54317 36.961764,130.13226 22.751006,122.20269 28.31235,130.23065 24.618535,128.61145 25.387472,133.48333 27.374105,135.70341 32.127109,139.39908 24.097062,135.56634 25.887361,138.32582 26.595305,141.61988 28.492851,142.43597 32.855005,144.00108 39.161396,141.60874 39.669085,149.40643 45.273023,149.59901 50.465784,151.09942 50.245664,161.52197 53.676524,166.33886 56.308554,172.85606 63.924714,174.56208 67.698314,180.2945 72.233674,184.42407 77.821504,187.49573 84.130844,187.2072 87.544554,187.10526 90.992034,186.68492 94.261244,185.66652 96.194434,184.04205 103.58845,182.30014 101.9514,182.18727 100.3975,180.28835 106.99737,175.70643 109.52045,173.71457 117.77832,168.56636 120.35551,158.51611 122.58569,149.67635 121.36548,144.58743 124.25108,144.43587 127.43768,141.83661 133.79186,137.3564 126.71951,127.3587 131.88774,124.26638 138.22845,121.40566 142.1245,115.64716 144.88988,109.54651 148.47171,104.11793 149.97398,97.457719 149.97084,91.113338 148.06756,84.967086 145.75456,78.678477 141.54902,73.665228 136.07411,65.466052 127.48033,60.196331 120.85877,53.057407 117.33608,48.822823 111.64404,45.845384 106.32411,43.73397 104.23598,42.55169 101.94079,42.021824 99.655654,42.049812 Z M 95.134364,45.724435 C 96.611454,45.798149 96.765494,48.271863 98.092584,45.734612 102.83733,46.212714 107.34625,48.248193 110.51162,51.897318 110.84539,58.168288 112.69656,64.587621 115.69639,70.002814 115.85653,70.51437 115.22412,71.522696 114.66452,70.400702 110.28876,67.67345 105.07455,64.712112 101.69598,61.94428 99.628774,55.521822 90.007464,61.219209 87.142994,55.627912 86.686484,53.72066 89.881794,49.113394 93.123544,46.725774 94.002494,45.942562 94.642004,45.699865 95.134364,45.724435 Z M 67.800074,50.922438 C 68.105404,50.90354 68.394154,50.972727 68.655894,51.150386 76.159444,50.338376 65.664434,53.312282 64.084744,56.447099 60.364274,59.460944 64.848614,51.105137 67.800074,50.922438 Z M 78.193024,57.181819 C 81.416764,57.193196 84.603654,57.77362 86.998494,59.826614 93.141624,63.150263 86.019364,63.473363 82.617644,63.347579 76.862004,60.429585 71.184714,60.929697 65.934784,64.845516 60.400614,66.6892 69.927584,56.638251 72.512674,57.581745 74.310814,57.373668 76.258784,57.174992 78.193024,57.181819 Z M 91.997044,60.454485 C 94.658244,60.530603 100.1206,62.981288 100.90935,65.56192 97.132804,65.021874 94.238874,62.110179 90.545924,61.253318 90.533724,60.668071 91.109974,60.429113 91.997044,60.454485 Z M 94.084184,64.046683 C 100.56969,66.081768 106.45481,69.453632 112.02482,73.302954 116.28604,77.311051 120.81308,82.009129 122.39945,87.714488 123.30228,93.748139 122.4327,98.826604 122.94795,104.71384 121.4561,104.68026 119.55776,101.93834 117.25742,100.3981 110.8974,96.695183 102.96104,97.536789 95.901644,97.48466 89.969824,100.23171 83.283634,101.49651 77.524454,97.438867 70.950064,95.10538 63.409924,96.707894 57.062154,99.199346 54.669314,98.852055 44.860233,104.88273 47.868974,99.777357 54.518574,95.440824 59.887924,89.419864 63.395814,82.321103 65.880114,76.557275 69.654804,69.158727 76.558734,68.141586 82.037324,65.659067 88.801534,66.693242 94.084184,64.046683 Z M 66.260414,68.758265 C 69.515304,68.713668 61.266734,73.105009 61.117364,76.569515 58.458914,82.049433 55.724914,88.156713 50.629774,91.702542 47.164115,93.875357 55.669244,84.523441 55.423784,82.040241 57.042634,76.599973 59.080504,71.696847 64.104084,69.064569 65.095754,68.861484 65.795434,68.764634 66.260414,68.758265 Z M 66.559594,70.950217 C 66.695934,71.03028 66.280734,71.639133 64.788934,72.975283 64.494144,73.393355 64.093714,73.699394 63.717384,74.03157 64.574074,72.151414 66.332364,70.816779 66.559594,70.950217 Z M 133.20351,71.080474 C 133.25581,71.08237 133.33009,71.130441 133.4213,71.264663 133.08365,71.488053 133.04671,71.074784 133.20351,71.080474 Z M 132.93182,71.998365 C 131.85116,77.913875 139.00507,83.22841 143.50694,87.566934 145.15334,92.418551 142.88605,91.529421 139.8374,88.608977 131.16832,83.136931 138.89111,93.689544 141.49001,96.681755 144.71606,105.04015 136.66119,95.386273 134.51218,94.70452 133.60085,97.465695 136.07258,102.15883 139.04771,104.93466 137.88262,104.92863 136.52928,103.77442 135.37513,103.26678 128.64588,99.294568 131.27212,91.421736 133.26967,85.634473 134.31919,80.417917 127.6034,76.381214 132.93182,71.998365 Z M 134.96503,77.654298 C 135.0318,77.63084 135.14582,77.725235 135.29678,78.073557 134.89735,78.328155 134.81813,77.705906 134.96503,77.654298 Z M 62.271344,82.161337 C 62.446044,82.196341 62.220754,82.977571 61.124484,84.850906 L 60.412154,85.713848 C 60.906484,83.653604 62.016024,82.110178 62.271344,82.161337 Z M 137.56608,88.371871 C 137.62554,88.352911 137.72519,88.387469 137.87542,88.527567 137.57494,88.961769 137.38765,88.428756 137.56608,88.371871 Z M 48.472414,93.30936 C 48.882954,93.261882 47.359644,95.317837 45.802184,96.264531 43.212532,98.2374 45.647543,95.455527 46.535888,94.979277 47.700004,93.786857 48.285814,93.330947 48.472414,93.30936 Z M 52.969284,94.550861 C 53.065274,94.5371 53.035084,94.675386 52.728104,95.101392 51.253994,96.000318 52.681294,94.592142 52.969284,94.550861 Z M 44.811022,94.727925 C 45.937272,94.546015 40.426147,99.408292 37.503496,98.918484 32.925284,97.272327 42.34799,97.66128 42.857192,95.788287 43.937437,95.081303 44.551118,94.769905 44.811022,94.727925 Z M 45.288285,101.9225 C 45.365092,101.9374 45.301149,102.10436 44.991142,102.51883 41.984631,104.64792 44.955466,101.85792 45.288285,101.9225 Z M 58.656764,103.38075 C 59.928784,103.32749 60.945744,103.60323 61.729974,104.10021 60.204304,104.09565 58.661344,104.03632 57.223954,103.80713 56.967184,103.87866 56.743384,103.95249 56.595064,104.0249 56.393704,104.12322 56.221874,104.25718 56.075054,104.42381 57.803854,104.5622 59.507694,104.7125 61.069534,104.68534 61.519284,104.67752 61.950874,104.64673 62.374124,104.60291 62.672064,104.89244 62.917314,105.22541 63.114954,105.59001 62.683994,105.52461 62.189124,105.45863 61.577324,105.3936 60.132884,105.03216 57.919274,105.03847 55.685314,105.10663 55.599794,105.34632 55.538694,105.62062 55.503154,105.93091 56.949044,105.9426 58.396454,105.96069 59.836184,106.09983 59.260114,106.63844 57.382124,106.8248 55.470594,106.82845 55.472174,106.91129 55.469674,106.98821 55.473644,107.07471 55.479084,107.19353 55.490764,107.31277 55.500104,107.4319 57.200954,107.46111 61.313074,107.1806 63.558634,106.76128 63.665894,107.21067 63.722154,107.68472 63.719424,108.17476 63.203704,108.02085 62.175044,107.94647 60.421314,108.02619 59.402564,108.18205 57.377514,108.21028 55.579474,108.16458 55.642874,108.60356 55.731694,109.04289 55.847114,109.48444 56.239384,109.52391 56.667124,109.57113 57.172054,109.6381 57.658964,109.76851 58.205794,109.83517 58.771754,109.85282 60.659854,109.91168 62.758804,109.42415 63.667524,108.93391 63.611124,109.42328 63.508434,109.91958 63.351044,110.41352 62.951844,110.39889 62.453174,110.38824 61.728954,110.3891 60.244494,110.95715 57.959014,110.82299 56.162574,110.49798 56.315694,110.93558 56.490364,111.37273 56.693774,111.81071 57.582724,111.50981 61.328824,111.10302 63.213664,110.80123 62.996444,111.38301 62.711974,111.95672 62.357844,112.5027 61.869764,112.41349 61.029974,112.31294 59.641814,112.19741 58.111374,112.17143 57.232914,112.1196 56.806724,112.04883 57.035344,112.51482 57.286724,112.95156 57.547554,113.33816 58.430564,113.1772 60.847334,113.05003 62.093264,112.88227 61.814244,113.26713 61.503334,113.63633 61.155014,113.9813 60.780524,113.89536 60.247694,113.83156 59.505454,113.79812 58.630174,113.72718 58.103034,113.66429 57.737854,113.60579 57.994164,113.95676 58.254344,114.26256 58.506154,114.49418 58.884574,114.4059 59.534324,114.40921 60.506794,114.5593 60.211574,114.79901 59.900524,115.02513 59.566514,115.22992 56.449664,117.85833 51.339194,103.94287 56.352864,103.77254 57.195914,103.53524 57.963494,103.40978 58.656764,103.38075 Z M 83.976164,103.93943 C 91.677504,104.91787 89.720254,116.19389 94.632684,120.87567 96.988154,125.483 101.96043,122.65181 105.36348,121.06902 110.58291,116.1571 119.79677,116.89811 121.8367,108.70291 123.37436,110.9772 121.50328,118.43297 117.88632,120.85939 112.48155,125.42985 120.28716,123.95511 122.94795,125.41426 130.04705,124.05274 129.12729,133.96478 127.28303,138.17114 126.36061,143.13779 119.42311,141.76357 118.65157,142.67004 119.50414,146.04012 119.52087,152.99149 117.77335,158.05543 116.32978,165.34076 110.62616,170.33617 104.72136,174.259 100.53072,179.17592 95.272134,183.94974 88.404844,183.8633 84.912094,184.29113 81.391014,184.03599 77.932514,183.47863 71.884664,180.48788 64.830244,175.90607 62.586804,169.4945 60.464464,169.15795 55.767684,169.96236 55.357634,165.38027 53.152024,159.95789 51.090194,155.11406 49.171524,149.59494 47.781214,144.25274 46.701375,138.05448 47.942234,132.54676 48.719544,124.51674 46.127668,116.91487 44.941279,109.08655 49.195724,102.6762 50.537354,113.23884 52.521524,116.4419 55.419734,123.33624 62.632284,123.22341 69.067014,124.32337 73.988884,122.72139 78.151994,126.85487 72.773184,130.1411 69.486944,132.29267 72.140484,136.2776 67.849944,139.22947 66.331944,144.42679 57.838104,147.86015 58.536684,152.12576 58.213414,156.00823 54.534434,165.15674 60.180134,165.20117 61.088614,164.7105 68.065414,156.69484 70.614814,163.72968 73.359424,167.82056 70.584044,174.69221 76.314504,177.14293 81.116074,180.481 94.899984,177.36232 89.882434,170.17732 81.637164,166.83082 85.100754,155.23274 94.028214,158.59884 101.79656,162.33572 93.968714,155.4772 92.000094,153.48327 94.673534,152.22773 97.963774,147.39463 91.937004,147.68792 88.750364,147.44616 75.553014,145.75826 84.345564,144.4061 88.161694,144.57055 91.734684,144.50689 95.462034,145.1744 94.006804,148.50962 98.506274,144.14045 98.308324,148.13975 103.75927,149.75159 103.45063,159.29683 107.68874,163.50479 113.15614,167.20109 112.61359,163.30339 114.45184,158.95298 117.24825,151.46108 112.12315,143.86877 106.37703,139.46963 103.98683,136.48367 90.549314,137.08814 95.424384,133.42496 93.927114,126.54409 88.435794,134.54736 85.349954,134.26755 88.118614,129.95396 73.205384,131.97075 81.198064,133.56743 89.435974,133.06541 76.690884,136.73541 78.303944,134.56673 76.778194,135.12698 75.094714,136.25239 74.558094,134.78857 76.439454,131.02603 72.094644,135.57671 74.939694,131.65227 73.975024,124.045 81.425334,124.35176 86.928284,124.45668 83.242404,122.97679 77.103184,125.19735 72.538114,123.90106 73.504654,122.84129 81.029014,124.11704 84.202074,123.32305 92.427914,122.44885 81.483184,121.50414 78.869744,121.57885 71.588134,121.15431 80.779154,120.70074 83.212944,121.07309 90.311054,121.39575 83.765464,118.80344 80.435864,119.69523 72.729704,120.71734 80.955464,117.76127 84.331314,119.05311 93.014994,119.06338 72.858814,117.67177 82.546404,117.50735 91.622404,116.752 74.988574,116.74294 82.431414,116.13967 88.389644,115.87129 79.130174,113.39266 81.987734,113.30967 82.711544,113.66038 81.145284,106.42327 83.976164,103.93943 Z M 91.775204,104.00048 C 91.825124,103.98296 91.900254,104.01803 92.000094,104.15821 91.700584,104.57877 91.625444,104.05305 91.775204,104.00048 Z M 129.17883,105.81998 C 131.23168,105.80493 135.18711,110.26779 136.67868,112.12923 138.87426,118.06393 133.2347,124.6943 127.6117,124.65308 125.63663,125.73398 123.23537,124.50687 121.24852,124.00689 122.57192,120.83937 127.36061,114.53402 127.96888,109.28091 127.70577,106.75864 128.24574,105.82683 129.17883,105.81998 Z M 122.45339,106.30132 C 122.62834,106.34439 122.75889,106.67562 122.73324,107.52349 121.0075,108.63619 121.92854,106.17212 122.45339,106.30132 Z M 144.96315,106.5944 C 145.00825,106.59231 145.08315,106.63136 145.20024,106.73788 145.14442,107.3802 144.76771,106.60344 144.96315,106.5944 Z M 119.14715,110.961 C 119.19448,110.95901 119.26269,110.99819 119.35371,111.10449 119.11272,111.74397 118.94198,110.96964 119.14715,110.961 Z M 126.48724,111.4983 C 126.52622,111.48159 126.57431,111.51825 126.62155,111.66112 126.33245,112.07873 126.37029,111.54844 126.48724,111.4983 Z M 55.220254,113.53864 C 55.266504,113.54134 55.333174,113.60306 55.423784,113.76149 55.198104,114.62344 55.019864,113.52691 55.220254,113.53864 Z M 82.363234,114.67837 C 82.812534,114.70505 83.307814,114.90856 83.696314,115.42734 80.082304,116.10503 81.015324,114.59834 82.363234,114.67837 Z M 25.858868,117.80348 C 26.243334,117.72132 29.176077,119.65308 31.00192,120.5307 30.27244,121.10317 28.740024,120.12143 27.877827,120.03207 26.154979,118.44285 25.657483,117.84651 25.858868,117.80348 Z M 79.279844,122.0958 C 80.807214,122.11743 82.249844,122.28723 82.712274,122.7196 80.991674,122.88589 79.260764,122.8529 77.534634,122.88038 72.153434,122.71736 75.919634,122.04821 79.279844,122.0958 Z M 70.952664,122.82034 C 71.312154,122.79928 71.437084,122.88917 70.971994,123.19584 66.683694,123.95009 69.874184,122.88354 70.952664,122.82034 Z M 94.759884,122.87631 C 97.145184,127.31699 98.650714,134.1186 104.12911,135.75633 105.32801,136.21902 106.12423,134.47629 104.33263,134.51891 98.887474,133.29214 99.202904,125.52164 94.759884,122.87631 Z M 79.755074,126.55399 C 79.673194,126.55396 79.592024,126.6819 79.547484,127.04652 80.253354,127.70314 80.000714,126.55409 79.755074,126.55399 Z M 28.378495,126.99462 C 28.51603,126.99211 28.692498,127.02626 28.915801,127.11266 28.384495,128.82761 27.415753,127.0122 28.378495,126.99462 Z M 126.01238,128.33391 C 125.91642,128.32609 125.75886,134.27185 125.713,134.62826 126.55388,135.31076 127.74821,128.47536 126.01238,128.33391 Z M 88.371264,134.00297 C 88.412894,134.04367 88.398484,134.22725 88.282734,134.63695 86.951884,136.32396 88.190864,133.8266 88.371264,134.00297 Z M 90.627324,134.1668 C 91.754724,134.16403 93.084404,134.65755 92.961744,136.04432 92.234604,136.26935 91.526524,135.83482 90.802354,135.795 88.062804,134.99424 89.177804,134.17037 90.627324,134.1668 Z M 93.493964,136.19899 C 93.543884,136.18147 93.619014,136.21654 93.718854,136.35673 93.419344,136.77728 93.344204,136.25156 93.493964,136.19899 Z M 75.084194,136.67626 C 75.141874,136.69471 74.974154,136.99302 74.362704,137.80276 72.708404,139.08316 74.911164,136.6209 75.084194,136.67626 Z M 70.865144,136.92354 C 71.097554,136.88653 68.743514,140.0912 67.569074,141.25352 65.713534,142.51871 69.031964,138.98632 69.178954,138.77256 70.287524,137.44851 70.774204,136.93802 70.865144,136.92354 Z M 32.174217,137.42523 C 35.28364,137.49658 39.574445,139.09487 30.907282,139.52763 28.86817,137.88901 30.308564,137.38241 32.174217,137.42523 Z M 45.372749,139.03205 C 46.978559,139.0882 47.520734,146.31797 45.856119,147.31242 40.685616,147.96986 38.214388,143.05784 43.79849,140.96655 44.389706,139.56318 44.923121,139.01633 45.372749,139.03205 Z M 72.445514,139.84105 C 72.523144,139.84373 72.632074,139.88118 72.781324,139.96622 72.918474,141.47664 71.902034,139.82229 72.445514,139.84105 Z M 62.375144,147.45998 C 62.670454,147.42716 62.499514,147.84752 61.304604,149.11463 L 60.305304,150.05593 C 57.822754,150.59124 61.620464,147.54385 62.375144,147.45998 Z M 94.629624,149.06884 C 94.662624,149.04598 94.692044,149.14671 94.701874,149.48707 94.402794,150.31914 94.530634,149.1374 94.629624,149.06884 Z M 74.602864,149.31612 C 79.857144,149.19866 84.740464,153.36974 89.706384,155.48289 95.739254,158.01539 90.155284,157.34438 86.964914,158.41669 86.165194,159.41609 86.093834,157.73698 85.281764,158.08393 81.235264,155.36567 75.062964,154.13603 71.794234,151.18141 76.865064,149.55613 82.975494,156.54769 88.175884,157.39805 84.994574,153.73977 77.433074,152.90786 74.093034,149.34155 74.263314,149.32863 74.433374,149.31991 74.602864,149.31612 Z M 84.823834,150.86799 C 87.836634,150.84085 93.275714,151.63394 90.810494,153.86386 82.634304,149.73739 91.388054,155.08615 94.337574,156.90451 93.493724,157.46616 86.594534,152.29267 83.189534,151.35543 82.586124,151.06254 83.454384,150.88032 84.823834,150.86799 Z M 70.995404,152.42596 C 72.644324,152.51669 78.070364,155.5917 79.764234,156.20845 85.937214,157.44612 83.902014,160.44302 84.053504,164.95795 79.223414,164.24198 74.005444,160.88976 68.788184,159.6531 62.140214,156.31291 71.072884,157.6819 73.606614,159.54421 76.185414,160.79877 87.583834,165.39347 79.788654,161.29553 77.178244,158.64705 65.475284,158.39122 69.051744,154.46527 73.549394,155.06646 78.586554,158.94468 83.247544,160.60457 82.445294,157.66862 74.502334,156.71731 71.244714,154.0165 70.283544,152.81236 70.350174,152.39046 70.995404,152.42596 Z M 67.191534,159.54014 C 67.800334,159.54017 67.929234,159.70822 66.600304,160.20974 62.188154,160.35235 65.852194,159.54008 67.191534,159.54014 Z M 71.035084,161.21412 C 76.331154,163.60889 83.102454,164.26795 86.504954,168.59492 87.875654,170.85389 81.332944,165.99864 79.807994,166.52712 77.237454,165.63508 67.881034,162.6844 71.035084,161.21412 Z M 59.960334,163.87419 C 60.064334,163.87016 60.197314,163.90458 60.359244,164.00444 59.612514,164.63992 59.509644,163.89164 59.960334,163.87419 Z M 73.052004,165.14112 C 73.423754,165.14204 73.996234,165.22655 74.811474,165.41792 79.931554,168.33082 88.711694,168.53356 90.340354,173.32889 86.988704,173.80415 83.214244,170.47067 79.831394,169.53724 77.653844,169.23026 70.449864,165.1347 73.052004,165.14112 Z M 74.271124,168.07492 C 79.062464,170.28837 85.896794,172.34667 89.171114,175.30206 87.616874,176.33127 84.966764,175.10689 83.599644,174.01477 81.399124,172.05199 70.591574,169.89485 74.271124,168.07492 Z M 73.114084,170.69733 C 75.974324,171.04424 86.228654,175.05103 85.512774,177.09205 81.419524,177.51118 75.642284,173.47913 73.114084,170.69733 Z M 74.205994,173.47441 C 75.408254,173.56405 79.529714,175.82739 81.214344,177.39123 79.888734,177.83644 77.717524,176.91195 76.352154,176.28202 73.814714,174.1497 73.484634,173.42063 74.205994,173.47441 Z"
         id="path11289"
         inkscape:connector-curvature="0"
         sodipodi:nodetypes="scccccccccccccccccccccccccccccsscccccccssccssccccssccsccccccccccccsccccssccsscscccccccccscssccsscsccccscssccscccsccscscccccccccccccccsccccccccccccccccccscccccccccccccccccccccccccccccccccccccccccccccccccccccccsccccsscsccccccccccccscsccccsccsscscccccccscsscscccsccsccccccccccscssccscccsccscccsccccccsscccssccccccccsscsccccscsscccscccccccsccs" />
      <text
         xml:space="preserve"
         style="font-style:normal;font-variant:normal;font-weight:normal;font-stretch:normal;font-size:23.7591629px;line-height:125%;font-family:'Comic Sans MS';-inkscape-font-specification:'Comic Sans MS';text-align:center;letter-spacing:0px;word-spacing:0px;writing-mode:lr-tb;text-anchor:middle;fill:#000000;fill-opacity:1;stroke:none;stroke-width:1px;stroke-linecap:butt;stroke-linejoin:miter;stroke-opacity:1"
         x="84.265762"
         y="35.231449"
         id="text11291"
         sodipodi:linespacing="125%"><tspan
           sodipodi:role="line"
           id="tspan11293"
           x="84.265755"
           y="35.231449">#FreeDeniz</tspan></text>
    </g>
  </g>
</svg>
