<?xml version="1.0" encoding="UTF-8" standalone="no"?>
<!-- Created with Inkscape (http://www.inkscape.org/) -->

<svg
   xmlns:dc="http://purl.org/dc/elements/1.1/"
   xmlns:cc="http://creativecommons.org/ns#"
   xmlns:rdf="http://www.w3.org/1999/02/22-rdf-syntax-ns#"
   xmlns:svg="http://www.w3.org/2000/svg"
   xmlns="http://www.w3.org/2000/svg"
   xmlns:sodipodi="http://sodipodi.sourceforge.net/DTD/sodipodi-0.dtd"
   xmlns:inkscape="http://www.inkscape.org/namespaces/inkscape"
   width="343pt"
   height="340pt"
   id="svg4095"
   version="1.1"
   inkscape:version="0.48.2 r9819"
   sodipodi:docname="New document 2">
  <defs
     id="defs4097" />
  <sodipodi:namedview
     pagecolor="#ffffff"
     bordercolor="#666666"
     borderopacity="1.0"
     inkscape:pageopacity="0.0"
     inkscape:pageshadow="2"
     inkscape:zoom="0.8"
     inkscape:cx="-72.396372"
     inkscape:cy="207.80745"
     inkscape:document-units="pt"
     inkscape:current-layer="layer1"
     id="namedview4099"
     showgrid="false"
     inkscape:window-width="1600"
     inkscape:window-height="838"
     inkscape:window-x="-8"
     inkscape:window-y="-8"
     inkscape:window-maximized="1" />
  <metadata
     id="metadata4101">
    <rdf:RDF>
      <cc:Work
         rdf:about="">
        <dc:format>image/svg+xml</dc:format>
        <dc:type
           rdf:resource="http://purl.org/dc/dcmitype/StillImage" />
        <dc:title></dc:title>
      </cc:Work>
    </rdf:RDF>
  </metadata>
  <g
     inkscape:label="Layer 1"
     inkscape:groupmode="layer"
     id="layer1">
    <g
       id="g4185"
       transform="matrix(0.31826131,0,0,0.31826131,139.0241,117.03992)">
      <g
         id="g4010"
         transform="matrix(0.70691048,0,0,0.70691048,-2090.2127,-1375.8742)">
        <g
           id="g4909"
           transform="translate(738.46295,0)">
          <rect
             inkscape:export-ydpi="13.029905"
             inkscape:export-xdpi="13.029905"
             inkscape:export-filename="C:\Users\Steve\Desktop\patchwork\3.png"
             clip-path="none"
             ry="196.25572"
             y="1662.3207"
             x="1939.6364"
             height="1253.5043"
             width="1253.5043"
             id="rect4246"
             style="fill:#333333;fill-opacity:1;stroke:#1a1a1a;stroke-width:127.92843628;stroke-miterlimit:4;stroke-dasharray:none" />
          <g
             inkscape:export-ydpi="13.029905"
             inkscape:export-xdpi="13.029905"
             inkscape:export-filename="C:\Users\Steve\Desktop\patchwork\3.png"
             style="fill:#ffffff"
             transform="matrix(6.9725424,0,0,6.9725424,-10056.193,-8354.7)"
             id="g4341">
            <g
               id="g4209"
               transform="matrix(0.23810973,0,0,0.23810973,1390.1525,1173.3914)"
               style="fill:#ffffff;stroke:#ffffff">
              <rect
                 ry="0"
                 y="1223.583"
                 x="1471.2872"
                 height="211.62695"
                 width="38.385796"
                 id="rect4182"
                 style="fill:#ffffff;fill-opacity:1;stroke:#ffffff" />
              <rect
                 transform="matrix(0,1,-1,0,0,0)"
                 style="fill:#ffffff;fill-opacity:1;stroke:#ffffff"
                 id="rect4184"
                 width="38.385796"
                 height="113.64216"
                 x="1309.589"
                 y="-1585.8241"
                 ry="0" />
              <rect
                 ry="0"
                 y="-1601.9636"
                 x="1223.7394"
                 height="77.781746"
                 width="38.385796"
                 id="rect4186"
                 style="fill:#ffffff;fill-opacity:1;stroke:#ffffff"
                 transform="matrix(0,1,-1,0,0,0)" />
            </g>
            <rect
               ry="0"
               y="1465.1553"
               x="1775.124"
               height="50.390438"
               width="9.1400318"
               id="rect4188"
               style="fill:#ffffff;fill-opacity:1;stroke:#ffffff;stroke-width:0.23810972" />
            <g
               style="fill:#ffffff"
               id="g4309">
              <g
                 transform="matrix(0.23810973,0,0,0.23810973,1390.1525,1173.5377)"
                 id="g4194"
                 style="fill:#ffffff;stroke:#ffffff">
                <rect
                   transform="matrix(-0.88261687,0.47009304,-0.46260305,-0.88656552,0,0)"
                   style="fill:#ffffff;fill-opacity:1;stroke:#ffffff"
                   id="rect4190"
                   width="38.384762"
                   height="74.377602"
                   x="-891.54517"
                   y="-2059.0552"
                   ry="0" />
                <path
                   style="fill:#ffffff;stroke:#ffffff"
                   d="m 1696.6775,1407.5571 15.5311,28.7893 43.5628,-0.2525 -27.0216,-50.0026"
                   id="path4192"
                   inkscape:connector-curvature="0"
                   sodipodi:nodetypes="cccc" />
              </g>
              <path
                 sodipodi:nodetypes="cccccc"
                 inkscape:connector-curvature="0"
                 id="path4198"
                 d="m 1787.9658,1496.9089 0.085,-10.6299 c 14.5008,0.8238 13.2664,-12.6721 0.2551,-11.5653 l -0.3402,-9.6945 c 19.5509,-4.6717 28.3441,20.1638 9.3543,30.5291 z"
                 style="fill:#ffffff;stroke:#ffffff;stroke-width:0.23810972px;stroke-linecap:butt;stroke-linejoin:miter;stroke-opacity:1" />
            </g>
            <g
               id="g4214"
               transform="matrix(0.23810973,0,0,0.23810973,1461.5854,1173.3914)"
               style="fill:#ffffff;stroke:#ffffff">
              <rect
                 style="fill:#ffffff;fill-opacity:1;stroke:#ffffff"
                 id="rect4216"
                 width="38.385796"
                 height="211.62695"
                 x="1471.2872"
                 y="1223.583"
                 ry="0" />
              <rect
                 ry="0"
                 y="-1585.8241"
                 x="1309.589"
                 height="113.64216"
                 width="38.385796"
                 id="rect4218"
                 style="fill:#ffffff;fill-opacity:1;stroke:#ffffff"
                 transform="matrix(0,1,-1,0,0,0)" />
              <rect
                 transform="matrix(0,1,-1,0,0,0)"
                 style="fill:#ffffff;fill-opacity:1;stroke:#ffffff"
                 id="rect4220"
                 width="38.385796"
                 height="77.781746"
                 x="1223.7394"
                 y="-1601.9636"
                 ry="0" />
            </g>
            <g
               transform="matrix(0.23810973,0,0,-0.23810973,1461.5854,1806.4758)"
               id="g4222"
               style="fill:#ffffff;stroke:#ffffff">
              <rect
                 ry="0"
                 y="1223.583"
                 x="1471.2872"
                 height="211.62695"
                 width="38.385796"
                 id="rect4224"
                 style="fill:#ffffff;fill-opacity:1;stroke:#ffffff" />
              <rect
                 transform="matrix(0,1,-1,0,0,0)"
                 style="fill:#ffffff;fill-opacity:1;stroke:#ffffff"
                 id="rect4226"
                 width="38.385796"
                 height="113.64216"
                 x="1309.589"
                 y="-1585.8241"
                 ry="0" />
              <rect
                 ry="0"
                 y="-1601.9636"
                 x="1223.7394"
                 height="77.781746"
                 width="38.385796"
                 id="rect4228"
                 style="fill:#ffffff;fill-opacity:1;stroke:#ffffff"
                 transform="matrix(0,1,-1,0,0,0)" />
            </g>
            <g
               transform="matrix(0.23810973,0,0,0.23810973,1498.7305,1173.3914)"
               id="g4230"
               style="fill:#ffffff;stroke:#ffffff">
              <rect
                 ry="0"
                 y="1223.583"
                 x="1471.2872"
                 height="211.62695"
                 width="38.385796"
                 id="rect4232"
                 style="fill:#ffffff;fill-opacity:1;stroke:#ffffff" />
              <rect
                 transform="matrix(0,1,-1,0,0,0)"
                 style="fill:#ffffff;fill-opacity:1;stroke:#ffffff"
                 id="rect4234"
                 width="38.385796"
                 height="113.64216"
                 x="1309.589"
                 y="-1585.8241"
                 ry="0" />
              <rect
                 ry="0"
                 y="-1601.9636"
                 x="1223.7394"
                 height="77.781746"
                 width="38.385796"
                 id="rect4236"
                 style="fill:#ffffff;fill-opacity:1;stroke:#ffffff"
                 transform="matrix(0,1,-1,0,0,0)" />
            </g>
            <g
               id="g4238"
               transform="matrix(0.23810973,0,0,-0.23810973,1498.7305,1806.4758)"
               style="fill:#ffffff;stroke:#ffffff">
              <rect
                 style="fill:#ffffff;fill-opacity:1;stroke:#ffffff"
                 id="rect4240"
                 width="38.385796"
                 height="211.62695"
                 x="1471.2872"
                 y="1223.583"
                 ry="0" />
              <rect
                 ry="0"
                 y="-1585.8241"
                 x="1309.589"
                 height="113.64216"
                 width="38.385796"
                 id="rect4242"
                 style="fill:#ffffff;fill-opacity:1;stroke:#ffffff"
                 transform="matrix(0,1,-1,0,0,0)" />
              <rect
                 transform="matrix(0,1,-1,0,0,0)"
                 style="fill:#ffffff;fill-opacity:1;stroke:#ffffff"
                 id="rect4244"
                 width="38.385796"
                 height="77.781746"
                 x="1223.7394"
                 y="-1601.9636"
                 ry="0" />
            </g>
          </g>
          <g
             inkscape:export-ydpi="13.029905"
             inkscape:export-xdpi="13.029905"
             inkscape:export-filename="C:\Users\Steve\Desktop\patchwork\3.png"
             style="fill:#ffffff;stroke:#ffffff"
             transform="translate(-950.38864,368.2857)"
             id="g4502">
            <rect
               y="1960.6844"
               x="3036.8982"
               height="73.222557"
               width="961.55621"
               id="rect4491"
               style="fill:#ffffff;fill-opacity:1;stroke:#ffffff;stroke-width:16.55945015;stroke-miterlimit:4;stroke-opacity:1;stroke-dasharray:none;stroke-dashoffset:0" />
            <path
               inkscape:connector-curvature="0"
               id="path4493"
               d="m 3028.238,2038.5845 c 183.7328,24.4297 383.6956,2.029 389.8133,230.4684 l -185.6349,-1.5347 281.5736,147.7517 c -1.6978,-0.2371 0.3137,-373.9682 0.3137,-373.9682 z"
               style="fill:#ffffff;fill-opacity:1;stroke:#ffffff;stroke-width:6.97254229"
               sodipodi:nodetypes="cccccc" />
            <path
               sodipodi:nodetypes="cccccc"
               style="fill:#ffffff;fill-opacity:1;stroke:#ffffff;stroke-width:6.97254229"
               d="m 4005.3163,2038.5845 c -183.7327,24.4297 -383.6955,2.029 -389.8132,230.4684 l 185.6349,-1.5347 -281.5736,147.7517 c 1.6978,-0.2371 -0.3138,-373.9682 -0.3138,-373.9682 z"
               id="path4497"
               inkscape:connector-curvature="0" />
          </g>
          <path
             inkscape:export-ydpi="13.029905"
             inkscape:export-xdpi="13.029905"
             inkscape:export-filename="C:\Users\Steve\Desktop\patchwork\3.png"
             sodipodi:nodetypes="csssccc"
             inkscape:connector-curvature="0"
             id="path4573"
             d="m 3255.7594,2462.4298 c 0.982,127.6822 4.6309,211.9894 -1.0448,281.9942 -3.5917,44.3014 -11.0593,85.7761 -42.1001,123.0888 -86.6439,104.1507 -134.124,113.4076 -292.0688,111.8904 l -38.3304,-0.3682 -216.326,0.6307 c 243.4638,-33.9814 485.1333,-141.0603 589.8701,-517.2359 z"
             style="opacity:0.6;fill:#4d4d4d;stroke:none" />
          <path
             inkscape:export-ydpi="13.029905"
             inkscape:export-xdpi="13.029905"
             inkscape:export-filename="C:\Users\Steve\Desktop\patchwork\3.png"
             style="opacity:0.6;fill:#4d4d4d;stroke:none"
             d="m 1877.6644,2462.4298 c -0.982,127.6822 -4.6309,211.9894 1.0448,281.9942 3.5917,44.3014 11.0593,85.7761 42.1001,123.0888 86.6439,104.1507 134.124,113.4076 292.0688,111.8904 l 38.3304,-0.3682 216.326,0.6307 c -243.4638,-33.9814 -485.1333,-141.0603 -589.8701,-517.2359 z"
             id="path4575"
             inkscape:connector-curvature="0"
             sodipodi:nodetypes="csssccc" />
        </g>
        <path
           style="opacity:0.4;fill:#333333;stroke:none"
           d="m 2387.9019,2967.0816 c 4.2429,-197.4618 1831.2899,-192.1894 1834.5459,-8.0887 -0.087,205.5495 -1830.3925,216.3376 -1834.5459,8.0887 z"
           id="path4907"
           inkscape:connector-curvature="0"
           sodipodi:nodetypes="ccc"
           inkscape:export-filename="C:\Users\Steve\Desktop\patchwork\4.png"
           inkscape:export-xdpi="11.961347"
           inkscape:export-ydpi="11.961347" />
      </g>
      <path
         inkscape:connector-curvature="0"
         id="path4183"
         d="m 188.26718,559.09553 56.56854,18.56155 51.70719,-24.74873 7.51301,-197.54796 -120.20816,-5.3033 z"
         style="fill:#ffffff;stroke:none" />
    </g>
  </g>
</svg>
