<?xml version="1.0" standalone="yes"?>
<svg xmlns="http://www.w3.org/2000/svg" xmlns:xlink="http://www.w3.org/1999/xlink" xmlns:svg="http://www.w3.org/2000/svg" xmlns:dc="http://purl.org/dc/elements/1.1/" xmlns:cc="http://web.resource.org/cc/" xmlns:rdf="http://www.w3.org/1999/02/22-rdf-syntax-ns#" width="734" height="735">
<path style="fill:#8fbce0; stroke:none;" d="M0 0L0 79C0 87.4398 -3.25984 102.216 8 104L8 112L14 112C11.1673 121.156 15.3813 120.115 23 119L24 112C31.1345 111.975 35.6936 109.846 40 104L38 104L48 96L48 82L56 85L55 80L60 80L59 48L64 48C65.6743 52.7621 82.777 55.16 88 56L103 64L104 64L104 61L107 61L107 64L112 64L112 52C116.669 52 137.356 50.5767 136 56L142 56L137 64C145.528 69.1564 149.711 67 160 67L160 59L164 59L164 56L184 55L184 46L197 48L195 40L192 37L196 32L203 34L204 34L206 32L206 35L207 35L208 32L218 32L224 26L224 32L228 32L228 40C237.085 38.6763 239.729 32.0645 250 36C255.388 30.0193 264.55 32 272 32L272 25L283 25L283 24L278 24L279 14L283 16L280 20L288 22L288 19L296 19L299 6L304 4C308.047 13.7927 311.565 9.76093 320 9L320 17L312 18L312 21L308 21L308 24L336 16L336 19C339.474 18.4235 340.423 17.4744 341 14L356 16L356 20L368 16L368 19L380 16L380 19C384.098 19.5667 386.954 20.2535 389 24L400 26L400 32C406.793 32 424.058 30.9194 428 37L429 37L432 34L432 38L438 38L438 35L443 35C444.427 39.7182 447.514 39.8076 452 40L452 47L455 44L464 45L464 48C469.035 48.0563 471.924 48.8641 475 53L480 51C482.322 58.0952 489.109 60.9764 496 61L496 68C502.096 70.7883 511.041 78.1532 512 85L508 88L512 91L523 85L522 80L534 79L536 74L528 75L524 59L517 60L518 56L513 54L512 54L504 54C502.803 49.6625 500.374 48.3245 496 48L496 52L494 52L494 48L480 48C479.81 42.1597 477.84 40.1902 472 40L472 34L468 36C465.523 28.3551 453.759 28.1659 447 24L445 26L443 21C448.777 19.7394 448.795 13.1293 450 8C445.739 6.29272 444.008 4.66815 445 0L0 0z"/>
<path style="fill:#c2c6d0; stroke:none;" d="M450 8C448.167 13.1317 448.664 18.9177 443 21L445 26L447 24C453.723 29.4858 464.293 28.0286 468 36L472 34L472 40C477.367 40.406 479.594 42.6326 480 48L494 48L494 52L496 52L496 48C500.119 48.6147 502.289 50.1947 504 54L512 54L513 54L518 56L517 60L524 59L528 75L536 74L534 79L522 80L523 85L515 90L557.089 79.8349L607 85L612 88L625 88L625 91L640 90L641 90L643 98C650.784 99.2551 651.583 105.536 653.683 111.83C659.309 128.698 654.707 143.317 653 160C642.846 163.277 643.803 170.789 639.565 178.92C637.533 182.818 633.773 185.668 632.514 190C630.04 198.51 634.272 204.994 624 210L621 227L624 227L621 263C628.443 265.841 637.701 260.727 644.721 266.804C648.052 269.687 646.738 274.403 649.588 277.234C654.101 281.717 655.974 280.311 656 288L667 302C667.77 316.157 672.115 327.116 656 336C656 345.796 658.694 351.108 660.697 360.001C663.172 370.988 660.94 388.218 675 392L680 416L684 416C686.205 431 686.297 444.454 686.312 459.09C686.32 465.854 687.852 474.42 683 480C686.994 492.801 674.846 499.24 674 512L667 512C668.167 523.852 663.096 528.594 659.611 539C658.622 541.953 659.126 543.384 662 544C659.795 548.226 655.886 549.623 653.224 553.274C649.734 558.06 648.45 564.415 644.857 569.228C642.796 571.987 639.282 572.986 637.314 575.719C633.247 581.369 632.472 590.316 628.258 595.586C625.76 598.71 621.355 600.239 618.376 602.877C607.741 612.293 596.604 622.831 582.961 628.258C579.245 629.736 575.02 628.543 571.17 629.26C557.661 631.775 545.819 633.557 532 634.375C515.456 635.354 499.438 639.877 483 642L486 644L486 645L480 647L531.961 644.946L565 640L565 639L560 638L560 637L566 637L564 634L564 633L576 633L576 636C572.308 636.12 570.223 636.313 569 640C576.676 640.006 581.008 641.473 581 650L592 650L592 656L604.183 650.986L618 648L616 656L624 656L630 644C634.655 642.516 634.239 639.359 634 635L638 635L640 646L648 647L647 656L640 656L640 669L648 669L645 672L645 677L640 677L640 672L630 672L626 677L627 682L621 680L621 688L624 688L624 693L640 693C640.013 676.551 657.228 679 670 679L670 680L666 680L666 682L672 682L672 662L680 662L680 656L688 656C688 650.547 686.005 640.175 689.318 635.573C693.065 630.367 712.825 631.127 719 631L719 626L720 626L725 632L727 624L734 624L734 0L521 0L468 0C461.938 0 451.795 -1.94958 446.233 0.603394C440.369 3.29498 446.971 7.19946 450 8z"/>
<path style="fill:#7a97a5; stroke:none;" d="M299 6L296 19L288 19L288 22L280 20L283 16L279 14L278 24L283 24L283 25L272 25L272 32C265.236 32 253.981 29.5096 250 36C240.395 31.0024 236.456 37.8231 228 40L228 32L224 32L224 26C220.007 26.636 218.636 28.0068 218 32C213.576 32 209.642 30.9857 207 35L206 32L204 34L203 34L196 32L192 37L192 40L195 40L197 48L184 46L184 55L164 56L164 59L160 59L160 67L143.028 68.6389L137 64L142 56L136 56C135.176 50.0143 116.789 51.113 112 52L112 64L107 61L104 61L104 64L103 64L88 56C82.1984 54.3098 66.9221 53.0037 64 48L59 48L60 80L55 80L56 85L48 82L48 96C42.5881 96.4177 40.6793 99.5861 38 104L40 104C35.0035 108.778 31.0734 111.917 24 112L23 119C15.4574 119.636 12.3207 120.653 14 112L8 112L8 104L0 100L0 409C16.0072 412.31 5.21641 433.253 15 440L15 441C12.2202 443.047 12.7478 444.656 15 447C13.2996 449.757 13.7183 450.758 16 453C19.7376 446.258 28.3171 448 35 448L32 456L32 457L32 458C33.7662 460.891 32.8111 462.347 30 464C30.2823 472.49 35.8512 468.462 40.2423 473.318C42.5728 475.895 42.4508 479.889 44.7292 482.343C46.1095 483.829 46.9551 483.084 48 482L54 483C49.565 497.239 59.9824 488.032 66 494L68 494L68 488L78 490L76 493C82.779 497.158 79.8546 508.238 79 515L80 515L81 513L81 521L96 523L96 532L99 531L102 539L101 544L112 544L112 548L136 550L136 558L144 558L144 568L154 564L158 574L160 574L160 569L180 570C179.708 560.812 186.818 567.205 192 568L192 571C197.347 571.842 209.836 575.251 211 581L216 584L216 580L224 580L224 576L257 576C261.572 576 267.26 574.773 270 579L274 577L278 580L280 586L296 585L296 580L299 592L304 592L304 586L328 589L328 586L342 584L362 592L361 586L368 586L368 585C361.248 579.033 363 573.4 363 565C363 562.478 364.137 555.898 361.397 554.438C359.208 553.272 354.489 554.93 352 555L352 549C345.611 549.481 341.353 544.888 335.576 542.853C326.961 539.818 312.951 538.363 304 540L303 533L303 532L288 532L288 536L282 530L244 528L244 527L246 525L221.015 522.683L202.985 512.304L187 510L188 507L162 504L158 493C152.361 492.041 135.825 487.577 138 480L138 479C133.258 478.45 126.13 480.357 126 474L120 473L123 465L112 464C110.919 457.08 106.031 457.005 100 457L100 448L96 448L85 432C89.0859 431.12 87.3189 425.684 88 422C81.6882 418.322 85.7874 412.775 85.9799 407.001C86.2241 399.679 81.6981 395.327 80.3526 388.896C79.398 384.333 82.1288 379.474 78 376L78 375L78 374L80 361L72 352L69 352C69 345.874 65.1785 328.923 70 326L72 317L71 317L66 321L70 314L68 310L64 312L64 304L72 304C72.0967 292.318 69.924 274.766 79 267L73 264L73 263L76 256L70 256L70.7685 241.285L77 226C82.0722 224.913 86.9561 213.07 88 208L84 208L94 186C106.178 185.965 111.961 171.391 112 160L120 160L120 159L117 155L121 155L120 149L123 149L122 144L128 141C129.722 149.036 140.533 134.303 144.028 133.167C146.46 132.376 149.519 133.729 152 134L149 129L149 128L165 126L164 123C177.194 124.667 196.723 129.183 200 112L208 112L208 108L232 106C232.862 98.3721 242.639 101.658 248 100.776C257.185 99.2655 261.858 93 272 93L272 89C278.871 89 290.241 91.196 294 84L304 85L304 80L322.985 74.2314L336 67L336 64C343.063 64 363.306 67.3723 368 62C377.68 66.4333 394.117 64 405 64C408.88 64 415.018 65.5828 416 61L420 64L442 68.7515L460.576 71.0895L472 78L482 79L490 88L490 89L496 88L504 91L504 98L522 91L522 90L512 91L508 88L512 85C511.51 78.0347 502.565 69.851 496 68L496 61C489.045 60.9222 483.315 57.2218 480 51L475 53C472.571 48.1749 469.02 48.0172 464 48L464 45L455 44L452 47L452 40C447.776 39.5101 445.044 38.9004 443 35L438 35L438 38L432 38L432 34L429 37L428 37L428 34L400 32L400 26L389 24C387.587 19.702 384.187 19.3455 380 19L380 16L368 19L368 16L356 20L356 16L341 14L336 19L336 16L308 24L308 21L312 21L312 18L320 17L320 9C311.327 9.4032 309.111 12.6906 304 4L299 6z"/>
<path style="fill:#727369; stroke:none;" d="M416 61C413.383 65.0369 408.394 64 404 64C392.594 64 378.859 65.2983 368 62C361.178 67.1681 344.435 64 336 64L336 67L321.996 74.2314L304 80L304 85L294 84C288.845 90.6148 279.539 89 272 89L272 93C261.444 93 256.547 99.3023 247 100.772C241.698 101.589 232.366 98.05 232 106L208 108L208 112L200 112C194.817 128.663 178.088 124.112 164 123L165 126L149 128L149 129L152 134C149.197 133.367 145.997 132.037 143.184 133.233C139.184 134.934 131.821 146.526 128 141L122 144L123 149L120 149L121 155L117 155L120 159L120 160L112 160C111.88 170.7 105.545 185.896 94 186L84 208L88 208L77 226L70.7685 240.424L70 256L76 256L73 263L73 264L79 267C69.4385 272.856 72.0293 293.402 72 304L64 304L64 312L68 310L70 314L66 321L71 317L72 317L70 326C64.6556 327.887 69 345.98 69 352L72 352C72.7582 356.91 75.2225 359.654 80 361L78 374L78 375L78 376C81.4753 380.439 79.0344 384.808 80.3171 389.791C81.7741 395.451 85.9932 399.557 85.9622 406.004C85.9354 411.562 80.3495 419.319 88 422L85 432L96 448L100 448L100 457C105.907 457.021 110.223 457.744 112 464L123 465L120 473L126 474C125.724 481.184 132.826 478.741 138 479L138 480C132.313 486.269 153.809 492.582 158 493L162 504L188 507L187 510L200.999 511.884L220.039 522.683L246 525L244 527L244 528L282 530L288 536L288 532L303 532L303 533C300.412 535.297 302.395 537.446 304 540L334.715 542.983L352 549L352 555C354.304 554.976 359.898 553.422 361.682 555.002C367.563 560.207 359.005 571.013 368 576C365.513 568.351 364.233 555.656 367.228 547.999C370.362 539.991 378.132 535.308 376 526L368 528L360 514L336 507L336 512L312 506L308 501L311 500L311 499L298.985 500.718L264 492C263.995 485.166 263.445 482.181 256 482L256 478L224 471L224 459C214.418 458.921 202.188 460.072 203 448L200 448L197.686 442.182L188 441.188L168 432C166.453 424.404 161.618 424.497 155 425L156 413C150.525 404.352 138.723 397.817 138.997 386.093C139.123 380.702 143.995 377.447 144 371L135 369L137.054 349.015L140 336L134 336L135.946 308.039L132.594 267L136 248L140 249L138 240C144.025 231.481 144 226.385 144 216L153 215L157 208L169 208L168 202L176 200L176 184C187.294 184 203.765 185.333 212 176L208 176L208 172L216 172L216 169L220 169C221.038 165.988 222.268 162.391 225.34 160.858C228.957 159.052 234.094 161.341 234 156L248 152L256 148L252 152L252 153L272 149L272 144L278 144L277 137L282 138L283 135L288 139L289 139C296.943 133.576 302.985 128.034 313 128L318 124L318 120L331 119L330 117L336 117L336 112L354.054 101.312L388.039 99.5633L402.985 97.6335L416 102L416 97L459 103L459 104L442 103L442 104L464 107L464 106L462 106L462 105L480 112C485.69 103.12 500.696 109.841 507 99L504 98L504 91L496 88L490 89L490 88L492 87L482 79L472 78C470.553 72.8807 465.188 72.3057 460.576 70.7492C455.157 68.9207 448.666 69.8853 443 68.7515C434.673 67.0852 428.762 64 420 64L416 61z"/>
<path style="fill:#782305; stroke:none;" d="M494 108L494 112L491 112L491 116L485 116L485 120L480 120C475.768 133.709 458.007 122.254 449.434 126.603C446.3 128.194 447.396 132.855 445.412 135.406C437.516 145.557 431.974 159.811 416 160L416 168L411 168L409 176C402.8 176.201 400.201 178.8 400 185C395.538 185.393 390.929 186.148 390 191L361.093 192.148L349 197L344 208L328 208L328 216L320 216L320 224L309 224L309 240L304 240L304 267C299.911 267.308 297.865 268.3 296 272L300 277L302 275L304 288C300.009 288.014 295.909 287.496 295 292L291 295C294.87 302.291 289.121 305.183 288 312L285 312L285 320L280 320L280 328L277 328L277 336L284 336L284 352L280 352L280 360L276 360L276 368L272 368L272 384L256 384L254 392L267 392L267 400L281 402C281.802 411.719 284.76 423.476 296 424L296 436L292 434L297 448C306.177 448 320.222 462.629 325 469C327.182 471.91 330.928 469.289 330 473L336 472L347 479L345 481C352.31 484.857 367.258 486.382 368 496L371 496L377 512L378 512C377.945 507.032 377.889 493.55 374 491L368 464L373 464C374.028 469.162 376.943 473.664 377.752 479C378.933 486.797 377.858 495.084 379.259 502.83C381.761 516.665 384.19 530.605 373 542L374 554L378 552L381 588L384 588L381 592L388 599L387 595L388 595L393 600L395 606L396 606L400 600L400 612L404 612L407 623L403 628L408 628L407 625L409 608C406.83 598.884 409.548 588.635 412 580L416 580L416 577C409.221 575.772 401.027 568.149 400.13 560.961C399.556 556.369 401.748 549.276 398 546C402.221 534.418 398.827 523.499 397.754 512C396.517 498.742 397.847 484.714 394.545 471.285C392.969 464.878 388.679 460.395 387 454L389 450C401.493 450.943 405.507 438.065 414 430L414 429L412 425L408 423L412 424L410 421L410 420C415.328 417.953 419.51 417.418 420 411C428.004 409.614 426.902 397.293 420 395L420 400L415 402L412 400L413 396C406.637 393.981 404.422 389.502 404 383L400 383L401 379L399 381L398 381L397 381L392 380L392 362C386.944 363.264 381.286 362.473 380.257 356.167C379.633 352.343 383.225 348.791 383.657 344.985C384.807 334.843 385.958 315.343 382 306L386 300L382 300L384 293L374 289L377 280L370 274L380 267L378 270L379 288L384 287L384 272L391 270L384 266L388 256L384 249L390 249L401.231 236.431L403 221L405 224L410 222L400 205L406 205C406.246 193.938 416.056 192 425 192L425 195L432 196L453 190L448 185C449.007 179.078 447.708 175.86 454 173L455 167L449 170C452.318 163.853 455.443 163.223 462 162L464 171L461 170C461.448 173.727 460.576 185.534 467.857 182.535C471.845 180.892 473.601 175.854 478 174L483 178L483 182L489 182C489.652 185.911 491.136 186.7 495 187L495 184L501 186L504 180L500 176L507 174L509 158L512 158L512 154L520 152L524 147L524 146L520 145L520 144L528 144L528 140C533.443 138.868 542.293 132.888 545 128L542 125L550 124L550 123L545 123L545 122C548.99 121.875 556.383 121.665 557 117C561.317 115.82 563.319 113.395 564 109L560 102L571 102L571 99L595 101L598 98C597.8 94.6633 598.512 90.4341 596.427 87.5725C592.254 81.8457 571.982 78.2915 567 84L566 84L561 82C556.81 76.8188 545.593 81.4788 540.576 83.8302C532.648 87.5459 523.317 88.5893 515.665 93.1049C508.037 97.6065 502.301 104.374 494 108z"/>
<path style="fill:#727369; stroke:none;" d="M561 82L566 84L567 84L571 82C568.02 79.7427 563.648 78.9695 561 82z"/>
<path style="fill:#cd905a; stroke:none;" d="M587 84L587 85C592.067 85.0561 598.778 88.9718 602 84L587 84z"/>
<path style="fill:#e03d01; stroke:none;" d="M597 87L598 98L595 101L571 99L571 102L560 102C560.197 105.569 560.462 107.757 564 109L557 117C557 121.219 548.51 121.908 545 122L545 123L550 123L550 124L542 125L545 128L528 140L528 144L520 144L520 145L524 146L524 147L520 152L512 154L512 158L509 158L507 174L500 176L504 180L501 186L495 184L495 187C491.418 186.432 490.057 185.492 489 182L483 182L483 178L478 174C473.091 175.295 462.837 189.189 461.709 176.287C461.518 174.099 461.483 172.168 461 170L464 171L462 162C455.38 162.837 451.516 163.311 449 170L455 167L454 173C447.41 175.023 448.315 179.009 448 185L453 190C446.669 190.909 436.486 190.729 432 196L425 195L425 192C416.588 192 404.411 193.42 406 205L400 205L410 222L405 224L405 221L403 221L400.721 236.431L390 249L384 249C384.12 252.692 384.313 254.777 388 256L384 266L391 270L384 272L384 287L379 288L378 270L380 267L370 274C371.567 277.583 373.083 279.342 377 280L374 289L384 293L395 279L404 281L404 268L411 264L414 266L421 261C422.741 253.297 425.829 248.923 423 241L427 235C422.874 236.162 422.313 239.91 418.78 241.708C411.303 245.515 410.957 233.019 410 229L414 230C412.581 220.773 420.257 224.101 424 218C427.334 222.851 430.381 222.996 436 223L436 228L438 227L434 240L435 240L436 238L439 240L443 232L449 213L454 213C456.659 208.448 461.199 209.003 466 209L465 206L476 202L487 194L488 202C493.229 201.603 495.603 199.229 496 194L517 195L521 178C525.948 177.89 532.996 176.365 536 181C542.079 179.051 543.422 165.513 551 171L552 171C554.3 168.387 556.827 165.03 560.043 163.542C566.705 160.459 575.437 163.008 577.362 153.05C577.852 150.513 576.323 147.539 576 145L581 144C584.16 147.185 587.067 140.592 590 139L584 126L593 119C602.808 118.884 604.869 111.71 606 103L603 98L619 98L616 93L620 94L617 88L607 85L597 87z"/>
<path style="fill:#cd905a; stroke:none;" d="M612 86L612 88L624 89L624 92L635 93L634 90L625 91L625 88L612 86z"/>
<path style="fill:#fc730b; stroke:none;" d="M617 89L620 94L616 93L619 98L603 98C603.064 100.993 602.946 102.346 606 103C604.408 111.093 602.441 118.694 593 119L584 126L590 139L581 144L576 145C576.166 147.529 577.471 150.58 576.901 153.05C574.13 165.054 558.179 160.77 552 171L551 171C544.955 164.118 540.385 178.664 536 181C534.849 175.63 525.312 177.783 521 178L517 195L496 194C495.266 198.807 492.807 201.266 488 202L487 194C482.485 195.882 476.864 196.742 476 202L465 206L466 209C461.404 209.001 455.789 207.913 454 213L449 213L443 232C439.118 233.136 439.118 236.304 439 240L435 240L434 240L438 227L436 228L436 223C430.426 222.98 427.837 222.056 424 218C419.211 223.316 411.959 221.01 414 230L410 229C410.796 233.288 410.987 246.215 418.78 242.334C422.221 240.621 423.335 236.682 427 235L423 241L421 261L414 266L411 264L404 268L404 281L395 279L382 300L386 300L382 308L387 308L391 321L394 320L392 318L396 310L411 308L411 305L418 304L414 307C416.594 312.086 421.576 312.286 426.576 310.211C435.231 306.618 447.338 299.279 457 301L458 290L464 290L463 293L478 297L475 285L479 286C478.73 277.582 496.304 268.097 504 267L504 261C508.983 260.163 511.051 256.764 512 252L528 235L528 234L528 233C524.288 228.433 534.177 228.841 535 225L540 226L540 229L549 219L549 218L549 217L547 214C551.09 213.124 550.813 207.713 551 204L554 201C558.683 200.844 560.449 199.783 561 195L566 195C567.205 200.777 570.685 200.981 576 201L576 196L577 196C581.06 203.252 587.268 212.964 596 213L593.13 228.91L599 266L619 272L616 267L617 263L611 263L611 267L608 267L605 256L608 256C608 247.838 612.362 243.508 613.202 235.999C613.731 231.276 610.408 227 612.07 222.439C613.395 218.803 616.285 213.378 618.839 210.513C622.06 206.9 628.141 206.777 626.667 200.171C625.879 196.635 622.054 193.864 620 191L615 195C612.637 191.033 610.664 189.353 606 189C603.732 195.767 598.87 196.177 593 193L589 195L589 191L592 191C591.696 187.171 590.795 185.827 587 185L586.5 174.028L591 168C600.196 169.733 605.147 167.531 614 165.744C616.852 165.168 620.233 166.184 622.722 164.357C624.983 162.698 625.53 159.672 627.509 157.753C631.656 153.733 634.789 153.432 635 147L626 147L624 131L632 134L632 128L626 128L630 121C638.276 122.969 643.037 120.924 642 112C646.702 110.573 646.946 107.539 647 103C642.961 101.038 640.684 98.4846 640 94L637 91L624 92L624 89L617 89z"/>
<path style="fill:#f4b05a; stroke:none;" d="M640 90L637 93L643 96L640 90z"/>
<path style="fill:#fea12c; stroke:none;" d="M640 96L647 103C646.856 107.436 646.076 109.944 642 112C642.43 120.669 638.003 122.48 630 121L626 128L632 128L632 134L624 131C620.77 138.951 623.991 139.503 626 147L635 147C634.52 153.317 630.63 153.626 626.839 157.753C618.04 167.332 604.389 169.701 591 168C586.976 174.841 586.336 176.581 587 185L592 191L589 191L589 195L593 193C598.421 197.17 604.588 195.958 606 189L615 195L620 191C623.515 198.232 627.697 199.337 625 208C633.641 203.201 627.829 197.752 630.774 190.714C635.307 179.88 645.512 170.766 649 160L645 160L657.485 142.7L653.48 123.83L647 98L640 96z"/>
<path style="fill:#6b4c28; stroke:none;" d="M336 112L336 117L330 117L331 119L318 120L318 124L313 128C303.218 128.008 295.988 132.225 289 139L288 139L283 135L282 138L277 137L278 144L272 144L272 149L252 153L252 152L256 148C252.304 148.118 249.136 148.118 248 152L234 156L235 159C227.263 160.842 222.008 159.801 220 169L216 169L216 172L208 172L208 176L212 176C201.702 184.221 188.517 184 176 184L176 200L168 202L169 208L157 208L153 215L144 216C144 226.733 142.381 230.729 138 240L140 249L136 248L132.34 268L135.981 310.004L134 336L140 336L135 369C138.279 371.525 140.01 372.251 144 371C143.978 377.285 139.522 379.697 138.894 385.043C137.535 396.624 149.526 405.456 156 413L153 414L155 425C161.507 424.779 165.659 425.178 168 432L186.985 441.404L196.867 442.231L200 448L203 448C201.465 460.463 214.206 458.973 224 459L224 471L256 478L256 482C262.952 482.382 263.977 485.567 264 492L297.996 500.768L311 499L311 500L308 501L312 506L336 512L336 507L360 514L368 528L376 526C377.739 536.771 365.979 542.339 365.635 552.83C365.251 564.526 368.432 572.724 370.686 584C372.89 595.028 374.026 605.585 381.39 614.711C387.598 622.405 396.766 625.853 404 632L402 631L402 632L404 638L411 638L412 632L403 628L407 623L404 612L400 612L400 600L396 606L395 606L393 600L388 595L387 595L388 599L381 592L384 588L381 588L378 552L374 554L373 542C378.291 538.433 378.241 532.428 380.406 527.039C384.053 517.96 380.96 511.591 379.259 501.91C376.915 488.563 377.212 476.993 373 464L368 464L374 491L378 512L377 512L371 496L368 496C367.678 486.317 352.767 483.997 345 481L347 479L336 472L330 473C328.933 468.44 322.753 464.57 318.995 461.987C311.353 456.733 306.798 449.516 297 448L292 434L296 436L296 424C285.044 423.004 282.298 411.417 281 402L267 400L267 392L254 392L256 384L272 384L272 368L276 368L276 360L280 360L280 352L284 352L284 336L277 336L277 328L280 328L280 320L285 320L285 312L288 312C289.776 305.976 295.825 301.37 291 295L295 292C296.283 287.846 300.138 288.043 304 288C304 284.665 305.33 275.036 300 277L296 272L304 267L304 240L309 240L309 224L320 224L320 216L328 216L328 208L344 208L349 197L362.04 192.148L390 191C391.321 186.599 395.813 185.63 400 185C400.425 179.273 403.273 176.425 409 176L411 168L416 168L416 160C431.704 159.944 438.89 146.563 445.977 135.406C447.81 132.52 446.513 128.271 450.228 126.603C457.992 123.119 477.684 133.649 480 120L485 120L485 116L491 116L491 112L494 112L496 108L496 107C491.395 107 481.156 106.603 480 112C474.655 107.408 469.024 105.302 462 105L462 106L464 106L464 107L442 104L442 103L459 104L459 103C444.97 98.4456 430.987 97 416 97L416 102L402.985 97.3542L388.039 99.196L353.129 101.312L336 112z"/>
<path style="fill:#e2b793; stroke:none;" d="M647 98L655 128L656 128C656 117.494 655.07 105.578 647 98M651 160L653 160L656 147C651.179 149.65 651.105 154.911 651 160z"/>
<path style="fill:#f4b05a; stroke:none;" d="M645 160L649 163L650 163L651 156C647.59 156.263 646.099 156.679 645 160M639 177C631.529 187.846 630.636 191.53 631 204L632 204L632.858 190L639 177z"/>
<path style="fill:#e03d01; stroke:none;" d="M561 195C560.097 199.331 558.375 200.662 554 201L551 204L547 214L549 217L549 218L549 219L540 229L540 226L535 225C533.587 227.568 523.329 229.587 528 233L528 234L528 235L512 252C510.556 256.351 508.498 259.625 504 261L504 267C496.215 267.559 477.57 277.424 479 286L475 285L478 297L463 293L464 290L458 290L457 301C444.376 297.563 423.123 318.944 414 307L418 304L411 305L411 308L396 310L392 318L394 320L391 321L387 308L383 308C385.249 317.785 384.769 335.071 383.432 344.985C382.91 348.855 379.637 352.007 379.973 356C380.535 362.681 386.793 363.781 392 362L392 380L397 381L398 381L399 381L401 379L400 383L404 383C404.199 389.739 406.122 394.482 413 396L412 400L415 402L420 400L420 395C426.208 398.357 427.661 408.587 420 411C419.043 417.127 414.845 417.458 410 420L410 421L412 424L408 423L412 425L414 429L414 430C404.13 436.653 401.914 450.411 389 450L387 454C388.344 460.898 392.923 465.401 394.545 472.17C396.052 478.458 393.787 484.811 394.938 490.907C395.522 493.998 398.067 496.049 398.722 499.093C399.71 503.678 397.069 507.596 397.403 512C398.32 524.09 401.294 533.55 398 546C401.42 550.514 399.442 556.565 400.13 561.91C401.059 569.132 409.125 576.291 416 577L416 580L412 580C408.581 587.639 406.55 599.711 409 608L407 625L408 628L405 627L412 632L409 640L419 640C419.984 646.173 438.032 659.332 440 648C448.32 647.403 443.48 634.96 439 634C439.203 628.355 439.432 623.895 445 621C446.613 609.335 453.219 613.443 462 612C462.729 615.403 464.806 614.987 468 615L465 635L472 632L475 633C482 627.69 490.384 632.269 498.015 631.924C501.867 631.749 505.198 629.542 509 629L512 626L512 625L510 624L512 621L516 621L515 616L510 591L505 591L507 584C501.905 579.642 499.12 579.587 494 584L494 578C489.847 576.688 489.228 574.142 489 570C493.545 570.019 505.739 573.795 507 568L508 568L508 576C511.363 576 514.204 576.716 515 573C519.102 572.852 520.933 570.901 522 567L527 568C526.189 574.656 523.359 579.289 532 580L532 576L550 574L543 581L552 582L552 584L554 582L559 583L555 581L560 574L561 544L556 544L560 539L563 531L561 520L563 520C563.367 531.042 573.012 524.207 580 524L577 544L592 551L593 528L599 528L599 527L593 522L592 522L592 526L591 526L595 500L600 501C599.874 494.291 601.006 492.083 608 492L608 496L617 495L617 497L624 496L627 485C616.948 483.871 619.512 477.442 620 470C624.084 469.662 638.285 461.594 632 457L632 456C636.505 454.9 638.873 452.493 640 448L641 448L643 450C644.8 441.319 635.921 426.289 646 421L648 402C641.354 398.959 644.143 393.886 642.431 388.09C641.373 384.508 638.124 381.954 636 379L624 380L626 370L619 371L620 364C627.618 362.677 622.098 357.407 624 353L624 352C619.968 347.074 621 340.041 621 334L616 334L615 328L610 328C611.585 322.641 610.334 317.858 616 315C612.102 298.351 633.782 292.235 631 277L627 277C626.974 269.466 624.675 264.993 617 263L616 267L619 272L599 266C602.029 253.571 595.283 240.762 593.268 228.91C592.358 223.56 595.869 218.428 596 213C586.807 212.701 582.555 202.301 577 196L576 196L576 201C570.818 200.939 567.816 200.168 566 195L561 195z"/>
<path style="fill:#f4b05a; stroke:none;" d="M624 210L631 204L624 210z"/>
<path style="fill:#fea12c; stroke:none;" d="M608 256L605 256L608 267L611 267L611 263L617 263L620.776 233.039L619.279 219.09L624 208C608.978 210.459 614.283 227.57 612.857 236.996C611.779 244.127 608 248.025 608 256z"/>
<path style="fill:#f4b05a; stroke:none;" d="M622 213C617.038 220.135 620.635 225.41 620.586 233.039C620.543 239.664 617.384 245.478 616.73 252C616.348 255.805 615.929 260.358 619 263L624 227L621 227L624 213L622 213z"/>
<path style="fill:#fc730b; stroke:none;" d="M531 239L532 244L537 243L537 238L531 239z"/>
<path style="fill:#e2b793; stroke:none;" d="M623 238C619.094 244.089 613.003 260.759 622.189 265.408C625.863 267.268 629.246 264.674 632.999 264.724C637.667 264.786 641.444 267.498 646 268L648 272C644.474 259.112 630.083 265.754 621 263L620.756 248L623 238z"/>
<path style="fill:#fea12c; stroke:none;" d="M480 251L480 254L476 254C478.801 275.036 500.793 251.074 480 251M625 267C627.848 273.575 628.927 275.762 636 278L635 272L640 272L640 289L656 294L651 280L648 280L646 268C637.924 266.434 633.092 262.571 625 267z"/>
<path style="fill:#fc730b; stroke:none;" d="M635 272L636 278L628 274L627 274L631 277C632.739 292.136 610.1 298.479 616 315C609.91 316.849 611.255 322.728 610 328L615 328L614 331L616 334L621 334C621 339.424 619.371 348.256 624 352L624 353C620.35 356.523 627.717 361.561 620 364L619 371L626 370L624 380L636 379C637.618 382.312 640.806 384.634 642.12 388.09C644.272 393.749 640.396 399.871 648 402L646 421C636.153 424.11 643.67 442.322 643 450L641 448L640 448L632 456L632 457C635.288 463.323 625.047 469.023 620 470C618.993 477.741 616.133 484.4 627 485L624 496L617 497L617 495L608 496L608 492C600.523 492.026 599.493 493.743 600 501L595 500C594.311 509.396 586.988 516.003 591 526L592 526L592 522L593 522L599 527L599 528L593 528L592 551L577 544L580 524C573.196 524.076 563.796 530.309 563 520L561 520L563 531C559.013 531.854 560 535.49 560 539L556 544L561 544L560 574C556.357 575.215 555.501 577.293 555 581L559 583L554 582C552.436 584.607 551.413 584.35 552 582L543 581L550 574L532 576L532 580C523.778 578.608 526.574 574.714 527 568L522 567L515 573L508 576L508 568L507 568L507 571L489 570C489.105 574.31 489.343 577.191 494 578L494 584C500.012 580.403 501.018 580.472 507 584L505 591L510 591L515 616L516 621L512 621L512 625L512 626L509 629C505.092 629.281 501.832 631.534 498.015 631.802C491.308 632.274 480.532 626.662 475 633L472 632L465 635L468 615L462 612C452.926 612.732 445.988 609.028 445 621C436.639 621 439.455 632.18 439 634C443.39 636.845 446.161 646.155 440 648C442.504 662.329 465.678 644.303 471.104 642.768C473.764 642.016 477.245 642.943 480 643L480 640C495.772 640 514.909 638.784 530 634L530 633L526 633C531.345 627.835 539.992 627.302 547 626C550.026 630.67 554.474 627.576 559 627C561.38 622.941 564.65 622.904 568 626L565 625C570.651 631.217 585.837 623.414 592 621L592 611C600.606 610.97 607.274 607.941 611 600L612 603L613 603L613 595L611 596L611 588L607 589C608.925 584.507 611.05 580.294 616 579C616.687 587.806 623.951 582.944 627 578L624 578L624 576L629 576C629.663 571.548 634.779 564.875 631 561L631 560L635 560L635 554L642 557C648.792 550.092 654.859 542.205 653 532L648 532L648 527C645.927 527.642 644.005 528.422 641.995 529.23C627.721 534.967 639.95 516.348 635 512L636 500L633 500L632 493C643.558 496.17 642.62 482.724 653 480C651.459 471.276 655.96 469.084 664 468L664 464L670 463L670 464L668 466C676.783 466.852 674.298 451.751 670 448L670 447L672 444L667 445L663 437C668.482 436.95 670.365 435.878 674 432L673.597 415L670 403C666.178 402.823 651.564 399.349 653.542 393.421C655.346 388.018 664.848 385.083 659.907 378.314C653.956 370.164 641.047 383.595 640 370C652.378 369.024 654.164 353.411 640 353L639 340C650.834 340.928 646.035 319.319 652 313L651 311L656 294L640 289L640 272L635 272z"/>
<path style="fill:#e2b793; stroke:none;" d="M648 277L651 280C651.025 287.03 656.102 303.372 664 304L664 310C676.136 316.692 657.991 328.944 656 336C672.926 330.378 668.35 314.413 667 302L656 288C655.994 280.62 655.005 279.177 648 277z"/>
<path style="fill:#fea12c; stroke:none;" d="M656 297L651 311L652 313C644.918 318.107 651.096 340.319 639 340L640 353C653.465 353.866 651.912 368.079 640 370C640.334 380.074 647.136 376.485 654 375L654 374L651 374L651 370L659 368C658.999 357.386 652.878 345.709 656.564 335.09C658.55 329.367 665.153 326.686 667.146 320.981C668.654 316.663 668.732 311.571 664 310L664 304L656 297z"/>
<path style="fill:#fc730b; stroke:none;" d="M393 325C393.041 333.143 392.558 335.968 402 336C401.979 328.644 400.942 325.094 393 325z"/>
<path style="fill:#782305; stroke:none;" d="M526 338L525 347L521 347L506 376L502 375L501 381L498 380L488 380C489.111 393.948 465.278 391.479 466.532 403.947C467.418 412.761 478.184 408.28 482.96 409.833C487.556 411.327 495.123 427.671 499 416L505 419L504 412L506 409C510.717 408.625 523.047 407.943 525.767 403.487C527.535 400.591 524.736 396.984 524.514 394.001C524.253 390.494 526.211 387.314 527 384L533 386L534 390L536 388C538.052 390.348 542.688 390.885 545.051 388.258C550.193 382.541 547.823 369.181 550.129 362.09C550.935 359.609 553.892 356.218 551.953 353.6C550.198 351.23 545.548 352.002 543 352L544 344L528 343L528 342L530 338L526 338z"/>
<path style="fill:#f4b05a; stroke:none;" d="M656 353L659 368L651 370L651 374L672 392C667.461 384.436 663.456 379.154 661.518 370C660.159 363.585 662.578 356.923 656 353z"/>
<path style="fill:#fc730b; stroke:none;" d="M503 356L503 362L508 361L507 356L503 356M552 400C537.289 400.052 536 416.063 536 428L533 428C532.43 432.674 529.144 438.055 535 440L534 444L538 445C543.752 439.363 544.556 448.907 549.946 447.124C552.704 446.212 554.479 428.85 555 425L562 426C563.971 419.995 568.164 415.122 565 409L569 408C565.004 399.781 578.956 394.551 576.164 386.174C573.821 379.146 556.842 380.975 553.028 385.742C550.654 388.707 552.082 396.329 552 400z"/>
<path style="fill:#fea12c; stroke:none;" d="M662 382C659.87 385.773 653.264 389.715 652.788 394.14C652.127 400.281 665.866 402.911 670 403L673.245 415L674 432L663 437L667 445L672 444L670 447L670 448C673.752 452.946 676.431 465.112 668 466L670 464L670 463L664 464L664 468C655.68 468.68 650.885 471.008 653 480C641.655 481.697 643.903 495.289 632 493L634 495L633 500L636 500L636 507L656 503L648 520L649 523L644 523L642 529L648 527L648 532L653 532C654.221 542.645 647.757 549.014 642 557L635 554L635 560L631 560L631 561L629 576L624 576L627 578C623.483 581.928 617.322 587.219 616 579C610.781 579.767 608.31 584.157 607 589L611 588L611 596L613 595L613 603L612 603L611 600C606.311 607.055 600.749 610.898 592 611L592 619C597.124 618.833 598.843 616.473 603.089 614.16C614.038 608.197 615.31 608.104 618 595L622 595L622 592L627 592C627.006 584.044 631.84 569.733 640 567L640 560L647 560L655.397 547.675L658 528L661 528C661.029 519.737 664.966 512.294 674 512L672 502C677.287 500.542 688.545 485.836 680 483L680 475C686.61 469.225 683.023 455.859 682.098 448.91C680.915 440.03 684.511 430.293 682.737 421.17C680.746 410.934 672.12 402.772 672 392L662 382z"/>
<path style="fill:#fc730b; stroke:none;" d="M527 384L525 399C532.158 396.953 531.101 390.122 530 384L527 384z"/>
<path style="fill:#e2b793; stroke:none;" d="M672 392L674 402L675 402L675 392L672 392z"/>
<path style="fill:#fc730b; stroke:none;" d="M449 416C464.674 415.944 450.557 402.067 449 416z"/>
<path style="fill:#8fbce0; stroke:none;" d="M0 409L0 735L734 735L734 624L727 624L725 632L720 626L719 626L719 631C712.906 631.05 693.312 630.085 689.318 634.893C685.807 639.12 688 650.743 688 656L680 656L680 662L672 662L672 682L666 682L666 680L670 680L670 679C656.632 679 640.002 676.154 640 693L624 693L624 688L621 688L621 680L627 682L626 677L630 672L640 672L640 677L645 677L648 669L640 669L640 656L647 656L648 647L640 646L638 635L634 635C634.084 639.38 634.227 641.938 630 644L624 656L616 656L618 648L604.133 650.643L592 656L592 650L581 650C582.105 640.888 576.658 640.001 569 640L576 636L576 633L564 633L564 634L566 637L560 637L560 638L565 639L565 640L531.961 644.871L490 645.184L467 650C464.481 654.573 458.827 655.16 454 656.271C441.449 659.158 426.784 657.727 420 645L404 640L404 634L401 634C399.532 624.724 385.92 620.449 380.708 612.914C371.731 599.937 373.689 584.095 364 572L363 572C362.278 578.084 362.116 581.706 368 585L368 586L361 586L362 592L342 584L328 586L328 589L304 586L304 592L299 592C299 587.654 299.873 582.736 296 580L296 585L280 586L278 580L274 577L270 579C269.018 574.417 262.88 576 259 576L224 576L224 580L216 580L216 584L211 581C210.424 575.07 197.53 571.431 192 571L192 568C187.059 566.63 178.311 559.742 180 570L160 569L160 574L158 574L154 564L144 568L144 558L136 558L136 550L112 548L112 544L101 544L102 539L99 531L96 532L96 523L81 521C83.0693 518.6 82.0092 512.041 80 515L79 515C80.1208 508.963 82.921 495.782 76 493L78 490L68 488L68 494L66 494C61.1088 486.447 50.9683 498.016 54 483L48 482C43.3753 483.883 43.2352 476.123 40.8904 473.317C36.8162 468.442 30.6408 472.295 30 464C33.0864 462.917 34.751 460.499 32 458L32 457L32 456L35 448C28.829 448 18.4109 445.775 16 453L15 447L15 441C9.37942 432.359 14.077 410.607 0 409z"/>
<path style="fill:#fc730b; stroke:none;" d="M577 416L577 419C572.127 419.379 571.013 421.411 570 426C575.892 425.807 580.988 422.02 582 416L577 416z"/>
<path style="fill:#f4b05a; stroke:none;" d="M681 416L683 445C690.922 439.745 685.734 423.587 684 416L681 416z"/>
<path style="fill:#fc730b; stroke:none;" d="M556 433L557 440L562 439L562 433L556 433z"/>
<path style="fill:#e2b793; stroke:none;" d="M687 438L682 445C682.34 449.365 683.635 450.66 688 451L687 438z"/>
<path style="fill:#f4b05a; stroke:none;" d="M681 448C683.391 456.275 685.982 467.106 680 475L680 483C687.04 486.897 677.359 499.591 672 502L675 507L684.682 489.791L684.036 474L688 451L681 448z"/>
<path style="fill:#e2b793; stroke:none;" d="M685 457L684 480L685 480C686.402 472.447 688.826 464.042 685 457z"/>
<path style="fill:#fc730b; stroke:none;" d="M487 464C485.319 471.57 487.136 476.998 496 478L497 473C493.068 467.823 495.078 464.196 487 464M470 497L470 504C465.791 505.231 466.048 509.102 466 513L468 512L469.004 526.826L467 536L464 544C458.936 544.879 459.041 548.469 459 553L453 552C452.335 543.467 442.168 544.975 440 552C434.402 552.949 432.777 558.11 431 563C434.156 566.094 433.977 568.833 433 573L450 579C450.694 573.78 455.611 555.675 463 561L464 561C468.665 557.412 474.402 557.893 476 564L480 565L481 565L481 560C491.081 558.563 499.885 552.81 507 546L502 538L509 539L504.758 530.701L508 517L503.373 504.328L494 494L497 491C487.345 492.016 480.566 500.396 470 497z"/>
<path style="fill:#f4b05a; stroke:none;" d="M662 494L663 504C667.683 503.844 669.449 502.783 670 498L662 494M635 512C639.276 517.873 631.569 522.342 633.658 527.811C636.688 535.74 643.068 526.894 644 523L649 523L648 520L651 519L656 503C648.924 503.166 637.047 504.412 635 512M666 513L661 528L658 528L658 534C666.663 531.916 665.994 520.511 668 513L666 513z"/>
<path style="fill:#e2b793; stroke:none;" d="M666 519L665 528L667 528L666 519M658 534C656.785 543.54 652.716 554.827 644 560L643 571C633.812 571.301 629.021 583.811 628 592L624 592L616 605L617 605L628.258 596.316L636.843 577.305L644.857 570.026L652.673 555.055L662 544C657.355 540.862 661.838 535.734 664 532L658 534z"/>
<path style="fill:#f4b05a; stroke:none;" d="M616 558C614.37 559.445 612.632 560.848 611.171 562.469C601.235 573.488 628.24 572.846 616 558M640 560L640 567C631.186 568.789 627.001 584.077 627 592L628 592C629.673 584.195 634.025 571.682 643 571L644 560L640 560M622 592L618 595L616 602C621.285 600.289 622.887 597.325 624 592L622 592z"/>
<path style="fill:#fc730b; stroke:none;" d="M471 604L479 606L480 602L481 602L481 606L485 606L485 610L487 610L487 604L483 604C483.558 600.592 486.706 597.008 482 596L483 599L478 600L478 599L481 599L479 594C471.24 594.182 468.338 596.534 471 604z"/>
<path style="fill:#e2b793; stroke:none;" d="M592 619L592 621C597.769 620.7 604.694 617.904 608 613L592 619M560 632C571.656 631.49 582.848 628.65 592 622L577.83 627.416L560 632z"/>
<path style="fill:#cd905a; stroke:none;" d="M559 627C554.194 627.319 550.822 629.858 547 626C540.659 626.801 529.879 627.338 526 633L530 633L530 634L528 634L528 635L560 633L559 629L565 625L568 626C565.32 622.211 560.576 622.519 559 627z"/>
<path style="fill:#f4b05a; stroke:none;" d="M559 631L580 628C574.482 624.694 562.871 625.453 559 631z"/>
<path style="fill:#727369; stroke:none;" d="M401 630L404 634L404 633L402 631L404 632L401 630z"/>
<path style="fill:#cd905a; stroke:none;" d="M424 633L420 634L419 638C422.377 638.056 424.489 636.597 424 633M404 638L404 640L409 640L409 638L404 638M494 639L494 640L509 639L494 639z"/>
<path style="fill:#727369; stroke:none;" d="M413 640C414.178 643.882 416.048 644.699 420 645L419 640L413 640z"/>
<path style="fill:#cd905a; stroke:none;" d="M480 640L480 643C467.517 642.464 460.764 651.026 448.004 652.226C435.497 653.402 431.082 648 420 645C424.289 658.366 442.829 659.134 454 656.495C458.71 655.383 465.317 655.074 467 650L486 645L486 644L483 642L492 641L480 640z"/>
</svg>
