<?xml version="1.0" encoding="UTF-8" standalone="no"?>
<svg id="svg77933" xmlns:rdf="http://www.w3.org/1999/02/22-rdf-syntax-ns#" xmlns="http://www.w3.org/2000/svg" height="530" viewBox="0 0 404 530" width="404" version="1.1" xmlns:cc="http://creativecommons.org/ns#" xmlns:dc="http://purl.org/dc/elements/1.1/">
<path id="path77943" d="m174.48 527.98c-3.3678-3.7214-2.621-10.964 1.6141-15.653 1.9754-2.1873 4.3806-5.3125 5.3449-6.945 0.96434-1.6325 3.2653-4.0042 5.1132-5.2704 6.15-4.22 7.07-12.11 1.42-12.11-4.67 0-6.97-1.63-6.97-4.95 0-4.2571-0.84499-5.7877-4.4124-7.9925-2.0783-1.2844-4.027-3.8535-5.5148-7.2702-1.2654-2.9062-2.6995-6.0653-3.1868-7.0203-0.49-0.96-0.89-2.48-0.89-3.37 0-0.89735-1.2375-3.1369-2.75-4.9768-5.136-6.2476-7.25-9.2327-7.25-10.237 0-0.55113-1.8-3.2792-4-6.0624s-4-5.4685-4-5.9674c0-0.49883-0.70287-1.4903-1.5619-2.2033-2.4466-2.0305-12.352-17.855-15.112-24.143-0.65061-1.4821-3.0151-4.6824-5.2544-7.1118-2.24-2.44-4.07-5.36-4.07-6.5 0-1.1435-0.45856-2.3626-1.019-2.7089-1.3531-0.83628-5.097-8.3449-8.4706-16.988-1.5027-3.85-3.8688-8.688-5.2581-10.751-2.9117-4.324-2.8788-14.325 0.0618-18.839 0.9025-1.3854 1.8327-5.8117 2.1877-10.41 0.33967-4.4 1.2516-10.925 2.0266-14.5 2.1373-9.8601 4.219-22.709 4.9244-30.396 0.34806-3.7926 1.0648-7.7028 1.5928-8.6893 1.918-3.5839-6.3212-2.514-8.562 1.1117-0.33082 0.53528-1.6635 0.97324-2.9614 0.97324-1.298 0-3.6706 0.75223-5.2726 1.6716-3.678 2.1109-5.8017 1.317-6.5552-2.4503-0.44294-2.2147-1.2889-3.096-3.3922-3.5337-8.8589-1.8436-9.0813-15.458-0.3219-19.704 2.4859-1.2051 6.4556-3.4949 8.8215-5.0885s5.7409-3.6328 7.5-4.5315c1.7591-0.89872 5.4483-3.08 8.1983-4.8473s7.3625-4.7073 10.25-6.5333c5.9691-3.7749 6.1878-4.3917 2.8107-7.9286-1.4901-1.5606-2.7586-4.4692-3.2598-7.4746-1.0466-6.2761-1.7353-6.4168-7.8009-1.5931-2.75 2.187-6.125 4.4645-7.5 5.0612-1.375 0.59673-3.4 1.8425-4.5 2.7684-6.7341 5.668-15.5 4.8502-15.5-1.4462 0-1.8958-1.7054-2.5572-3.7093-1.4388-13.251 7.3956-29.99 10.899-31.632 6.6206-0.30555-0.79625-2.0412-2.2133-3.857-3.1489-1.8158-0.93566-3.8817-2.5231-4.591-3.5277-1.0422-1.4762-2.1253-1.712-5.6471-1.2293-3.9462 0.54088-4.5248 0.34219-6.1278-2.1044-2.0484-3.1263-4.6804-3.0168-14.674 0.6106l-5.7388 2.083-2.9053-2.8677c-1.597-1.59-4.2674-3.9-5.9334-5.14-1.7494-1.31-3.3266-3.62-3.7331-5.47-0.3871-1.76-1.2091-4.04-1.8267-5.05-1.3994-2.31 2.2252-5.72 6.0697-5.72 1.359 0 5.0215-1.48 8.1395-3.3 3.117-1.81 7.243-3.93 9.168-4.71 4.997-2.02 18.331-8.93 18.966-9.82 6.911-9.77 26.034-5.4 26.034 5.94 0 1.1041 8.6049 11.014 10.163 11.704 0.3858 0.17089 0.84449-1.161 1.0193-2.9597 0.35684-3.6712 3.1272-5.9778 15.568-12.962 8.6934-4.8803 8.6432-4.577 1.659-10.027-5.87-4.5802-12.396-10.904-12.404-12.019-0.0026-0.36091-2.2393-2.9746-4.9704-5.8081-3.4394-3.5684-5.1623-6.2866-5.6056-8.8438-0.7314-4.219-3.9465-9.6065-8.5327-14.298-1.7365-1.7764-4.054-5.2917-5.1499-7.8118-1.096-2.5201-2.6993-5.3886-3.563-6.3746-7.3247-8.3615-4.2392-25.481 6.9936-38.802 6.6544-7.8917 4.1075-10.113-8.4873-7.4039-15.796 3.39-17.69 2.972-17.69-3.911 0-2.632 10.485-14.779 16.554-19.178 2.8098-2.0367 2.8451-2.179 1.736-7-6.616-28.762-4.577-34.652 12.313-35.561 6.543-0.3524 14.372-1.1782 17.397-1.8354 15.56-3.3812 26.97 0.3372 27.01 8.8024 0 0.92 0.9 3.023 1.99 4.673 1.0928 1.65 1.9898 4.0156 1.9934 5.257 0.006 2.1729 0.25808 2.2368 6.7566 1.7141 19.349-1.5561 22.578 3.3219 10.316 15.584-7.64 7.636-9.29 9.945-7.12 9.945 0.51999 0 1.5366 1.2375 2.2591 2.75 1.2649 2.6479 1.7353 2.7915 12.676 3.8694 19.493 1.9204 35.465 5.9595 47.049 11.898 4.81 2.466 9.24 4.483 9.85 4.483 0.60895 0 1.6952 0.80731 2.4139 1.794 0.71868 0.98671 3.3317 3.2343 5.8067 4.9946 9.8764 7.0244 16.452 17.248 17.596 27.357 0.38997 3.4469 1.4704 6.9406 2.5843 8.3566 1.0528 1.3384 2.3279 4.8105 2.8337 7.7157 0.91706 5.268 2.4211 9.822 4.9646 15.032 1.2393 2.5386 2.2444 3.2022 4.3202 2.8522 0.82145-0.13848 14.413 6.4625 16.201 7.8688 0.55 0.43238 4.6 1.5688 9 2.5253 13.326 2.897 25.572 7.4 32.465 11.938 3.5945 2.3665 7.5137 4.8094 8.7095 5.4287 1.1957 0.61929 2.9502 2.591 3.8988 4.3815 5.5716 10.516 5.7048 10.931 5.663 17.61-0.0464 7.4191-3.0932 17.808-8.6941 29.645-2.9742 6.2859-3.8011 8.647-6.1291 17.5-1.8804 7.1509-6.5295 7.02-8.8793-0.25-2.5757-7.969-7.8612-12.649-20.826-18.442-3.6711-1.6401-4.8706 0.78465-1.9752 3.9927 1.9819 2.1959 3.2328 5.5607 7.3232 19.699 2.189 7.5662 4.3317 13.241 6.0409 16 1.835 2.9616 5.3788 10.689 9.8524 21.483 4.2186 10.179 4.8663 11.156 8.8468 13.35 3.1116 1.7146 4.4552 3.1682 4.8767 5.2755 0.49151 2.4575 1.1813 3.0046 4.4467 3.5268 2.1257 0.33992 5.1062 1.6856 6.6233 2.9903 1.5171 1.3048 3.089 2.3729 3.4932 2.3735 0.40419 0.00067 3.9382 2.4762 7.8533 5.5012 3.9152 3.025 7.495 5.5 7.9553 5.5 0.46024 0 3.1195 3.302 5.9095 7.3379 4.8754 7.0525 6.8963 8.7938 11.801 10.168 2.856 0.80016 10.463 8.2448 16.266 15.918 2.7576 3.6465 6.2101 6.8353 8.98 8.2938 6.1562 3.2417 7.2654 4.5518 7.9279 9.3639 0.55193 4.0085 0.7128 4.167 4.5721 4.5039 2.2 0.1921 5.8975 1.0704 8.2168 1.9517l4.2167 1.6024-0.41772 10.063c-0.3491 8.4102-0.75433 10.422-2.4667 12.244-2.0964 2.2315-2.8215 8.2756-1.2119 10.102 4.1402 4.6984 3.4665 23.493-1.249 34.84-2.032 4.8896-3.4707 9.4734-3.1972 10.186 0.74 1.99-3.27 6.43-5.83 6.43-5.79 0-11.58-5.39-11.58-10.78 0-1.5695-0.68971-5.1762-1.5327-8.0148-0.84298-2.8386-1.4401-6.6328-1.3269-8.4315 0.22817-3.6251-2.4452-9.5664-4.6927-10.429-0.8-0.3-1.45-1.17-1.45-1.92 0-0.98607-0.83591-1.2008-2.994-0.76921-3.0148 0.60297-9.006-1.195-9.006-2.7027 0-0.44621-0.89199-1.0944-1.9822-1.4404-1.0902-0.34602-3.4502-2.6733-5.2445-5.1718-2.92-4.08-8.93-8.34-11.75-8.34-0.58284 0-2.9633-1.214-5.2898-2.6979-2.3266-1.4838-6.2551-3.7353-8.7301-5.0032-2.475-1.268-7.875-4.8178-12-7.8884-4.125-3.0707-9.3-6.4306-11.5-7.4666-2.2-1.0359-5.0893-3.3596-6.4206-5.1637s-4.9313-4.9889-8-7.0774c-24.245-16.5-45.966-40.512-62.579-69.177-2.9353-5.0646-6.0796-9.5239-8.8318-12.525-0.75649-0.825-1.6586-2.98-2.0046-4.789-1.27-6.62-9.67-14.33-9.67-8.87 0 1.2202-0.71966 3.2459-1.5992 4.5017-1.0202 1.4565-1.4639 3.7022-1.2255 6.2021 0.23551 2.4695-0.0782 4.0922-0.84834 4.3878-0.67214 0.25792-1.713 2.2921-2.313 4.5204-0.60003 2.2283-1.5025 4.0515-2.0055 4.0515-0.50299 0-1.6382 1.6875-2.5226 3.75-0.88445 2.0625-2.2698 5.0488-3.0786 6.6362-1.306 2.5634-1.296 3.0791 0.0896 4.6101 1.2192 1.3472 1.3354 2.3149 0.53168 4.4289-1.8184 4.7828-1.2774 13.988 0.99162 16.873 1.7999 2.2882 1.8943 3.0384 0.86624 6.8849-3.1398 11.747-0.80277 21.048 8.2771 32.944 2.3015 3.0151 4.6985 8.4433 7.2586 16.437 2.1023 6.5646 5.7686 15.986 8.1475 20.936 2.3788 4.95 5.2958 11.475 6.4822 14.5s3.2351 8.1172 4.5527 11.316 2.3956 6.3894 2.3956 7.0903 1.267 3.9337 2.8154 7.1841c5.7537 12.077 7.1846 15.507 7.1846 17.22 0 0.96634 1.4932 4.0746 3.3182 6.9073 6.7787 10.522 6.4517 18.282-0.77035 18.282-0.73736 0-2.7235 1.575-4.4137 3.5-2.6288 2.9941-3.7027 3.5-7.4293 3.5-4.2915 0-8.7049 2.8855-8.7049 5.6914 0 1.7738-15.461 17.005-18.067 17.798-1.3382 0.40723-3.3498 1.5772-4.4702 2.5999-1.1909 1.087-3.8912 1.9808-6.5 2.1516-2.4546 0.16072-5.5755 1.0722-6.9353 2.0256-3.3592 2.3551-8.2779 2.2192-10.55-0.29144zm15.76-7.23c1.2171-0.6875 4.1862-2.7014 6.5981-4.4754 3.3602-2.4715 4.8013-3.0027 6.1654-2.2727 1.8009 0.96382 7.9965-1.2793 7.9965-2.8952 0-3.7765 13.97-21.04 17.062-21.084 0.85907-0.0122 2.56-1.3722 3.7799-3.0222 2.463-3.3314 7.1581-4.235 7.1581-1.3776 0 1.3022 0.28557 1.3854 1.4466 0.4219 1.2362-1.026 1.2495-1.6618 0.0912-4.3724-0.74545-1.7445-2.0428-5.4219-2.883-8.1719-2.7251-8.9195-3.8986-11.822-9.5026-23.5-3.0351-6.325-6.2427-13.75-7.128-16.5-2.0401-6.337-8.3594-18.703-10.44-20.43-0.87-0.72-1.58-1.84-1.58-2.49 0-0.64576-1.5668-4.9782-3.4817-9.6276-1.92-4.65-3.49-9.35-3.5-10.45-0.01-3.38-15.22-32.74-17.22-33.26-1.29-0.34-1.8-1.44-1.8-3.86 0-4.1606-0.81466-4.23-4.5-0.38337-1.5808 1.65-3.7058 3-4.7223 3s-2.8448 0.64692-4.0629 1.4376c-3.2268 2.0944-11.594 4.7552-12.735 4.0499-1.29-0.79-1.27-3.48 0.03-3.48 1.35 0 19.99-18.78 19.99-20.13 0-0.5845 1.3745-2.3467 3.0544-3.916 2.8435-2.6562 2.9538-3.012 1.5964-5.1512-1.2334-1.9438-1.2649-3.2226-0.20467-8.2979 1.9125-9.1548-1.6893-12.641-4.9637-4.8038-0.8494 2.0329-2.6554 5.1529-4.0134 6.9333s-2.4691 3.6827-2.4691 4.2272c0 0.54457-1.575 3.0535-3.5 5.5754s-3.5 4.8075-3.5 5.0792c0 2.77-17.87 14.48-22.11 14.48h-2.8628l2.0442-3.75c1.1243-2.0625 3.5634-5.775 5.4203-8.25 1.8568-2.475 4.6422-6.2935 6.1897-8.4855s4.6137-5.8085 6.8137-8.0365c2.2-2.2281 5.3609-5.6507 7.0243-7.6059s3.4818-3.7388 4.0409-3.9635c1.2766-0.51305 7.3305-9.504 8.5381-12.68 1.2452-3.2751 4.2196-2.5086 4.982 1.2838 0.66649 3.3155 0.53554 3.5203 4.3464-6.7989 1.3785-3.7327 3.1953-7.7703 4.0374-8.9725 4.368-6.2362 0.56934-6.1097-7.0186 0.23356-3.2727 2.7359-8.5051 6.3258-11.628 7.9776-3.1224 1.6518-5.9845 3.5006-6.3602 4.1084-0.37565 0.60783-2.7266 1.9811-5.2243 3.0518-2.4977 1.0706-6.0638 3.2834-7.9246 4.9172-1.86 1.63-3.8 2.97-4.31 2.97-1.02 0-10 8.46-10 9.43 0 0.33668-3.522 3.9745-7.8266 8.084-7.9417 7.5817-8.9293 9.1931-14.557 23.752-3.3295 8.614-3.2867 10.011 0.48755 15.893 2.81 4.38 5.9 6.39 5.9 3.84 0-1.8184 2.5888-1.0416 6.5719 1.9722 2.1605 1.6347 4.6933 2.9847 5.6284 3 0.93517 0.0153 2.0602 0.61546 2.5 1.3337 1.6456 2.6871 13.158 7.8686 12.581 5.6624-0.71552-2.7362 1.7838-2.5544 7.3116 0.53172 4.7076 2.6282 7.407 3.1749 7.407 1.5 0-1.86 5.4786-1.0207 13.75 2.1064 2.4414 0.92304 2.9676 3.776 1.05 5.6936-1.8583 1.8583-9.4522 1.4181-13.8-0.8-4.0106-2.0461-7.0298-2.5881-6.962-1.25 0.0438 0.86592 7.6152 6.4027 10.212 7.4678 6.7731 2.778 0.94618 5.4396-6.3448 2.8981-16.742-5.8358-22.763-9.3079-31.669-18.261-6.7688-6.8044-6.7608-4.2522 0.014 4.4782 2.8875 3.721 6.2851 8.1933 7.5503 9.9384 1.2652 1.7452 6.4402 7.2704 11.5 12.278 5.0598 5.0079 10.87 10.87 12.912 13.027 2.0415 2.1572 4.8494 4.8222 6.2397 5.9222 3.0595 2.4207 3.1589 3.1071 0.54846 3.7898-3.2638 0.8535-2.3681 2.7996 5.0034 10.872 3.8481 4.2137 6.9966 8.0815 6.9966 8.595 0 0.51353 0.85269 1.7054 1.8949 2.6485 2.6275 2.3779 3.1474 6.2238 1.4802 10.949-1.7556 4.9759-0.56651 6.6567 3.0384 4.2946 1.3839-0.90676 3.342-1.6486 4.3514-1.6486s2.2627-0.39251 2.7852-0.87223c3.0376-2.789 25.303-5.6872 28.081-3.6554 2.349 1.7176 0.27995 4.5276-3.3338 4.5276-1.3517 0-6.2752 1.3475-10.941 2.9944-4.666 1.6469-11.042 3.185-14.17 3.418-3.1275 0.23303-5.8686 0.46058-6.0913 0.50565-0.22274 0.0451 0.38384 0.95359 1.348 2.0189 2.0288 2.2418 1.3856 3.7975-2.1214 5.1308-2.5462 0.96805-2.7186 3.5825-0.21395 3.2439 2.1596-0.29196 22.976-7.3074 26.852-9.0497 7.2148-3.2427 14.705-2.7184 10.54 0.73793-0.825 0.68469-1.5 2.3352-1.5 3.6679 0 4.3298-3.7386 6.7602-13.5 8.7761-9.8396 2.032-14.5 4.5375-14.5 7.7954 0 2.41-2.684 5.7606-4.6145 5.7606-1.5922 0-5.7159 4.3277-7.5142 7.8861-0.72657 1.4376-2.3448 3.8859-3.5962 5.4406-4.4693 5.5529 2.9917 10.362 9.9649 6.4233zm-45-147.81c-4.0951-0.80741-5.3802-1.7238-14.29-10.19-4.3108-4.0961-4.6346-4.934-2.5694-6.648 1.0595-0.87933 2.5009-0.58926 6.25 1.2578 12.351 6.085 12.571 6.1464 21.373 5.967 4.675-0.0953 10.484-0.32028 12.908-0.5 5.6897-0.42177 6.308 1.3313 1.3843 3.9246-2.0858 1.0986-5.9968 3.1789-8.6913 4.623-5.0865 2.7262-8.7174 3.0736-16.364 1.566zm92.055 116.92 2.2082-2.1366-2.5 0.62295c-1.375 0.34263-3.2875 0.62911-4.25 0.63662-0.9625 0.008-1.75 0.68865-1.75 1.5136 0 2.2104 3.7406 1.832 6.2918-0.63661zm152.1-41.037c3.3504-2.9663 5.8378-10.434 4.75-14.262-0.61947-2.1795 0.99245-5.3664 2.9767-5.8853 1.343-0.35121 1.9352-1.0956 1.5891-1.9976-0.30346-0.79079-0.056-1.9335 0.54991-2.5394 0.79748-0.79748 0.80076-1.7284 0.0119-3.3718-1.9014-3.9609-6.6391-20.19-6.4963-22.253 0.21317-3.0801 2.3419-6.4106 3.7516-5.8697 1.6344 0.62717 2.8966-1.3936 3.0921-4.9503 0.16721-3.042-0.31106-2.9339-2.0162 0.4556-1.6089 3.1983-3.2678 3.3105-4.0303 0.27264-0.85019-3.3874 1.9709-7.0512 4.081-5.3 1.05 0.88 1.34 0.67 1.34-1 0-1.41-0.63-2.12-1.88-2.12-4.219 0-12.897-4.9697-13.58-7.7768-0.69-2.85-26.99-29.22-29.14-29.22-0.63612 0-1.6977-0.65198-2.359-1.4488-0.66134-0.79686-2.8539-1.9773-4.8724-2.6232-4.3183-1.3818-7.5554-4.0951-10.652-8.928-9.6908-15.127-23.077-25.978-32.068-25.994-3.4809-0.006-5.45-1.5549-5.45-4.286 0-1.255-1.2881-2.3864-3.8731-3.4018-4.5088-1.7711-7.234-6.0264-9.1692-14.318-0.70606-3.025-2.1104-6.2471-3.1207-7.1603-1.15-1.03-1.84-3.04-1.84-5.31 0-2.0045-0.85034-5.5324-1.8896-7.8397s-2.7-6.7938-3.6904-9.97l-1.8008-5.7748-4.5939 4.5248c-6.2252 6.1316-6.537 6.0416-18.527-5.3471-8.5211-8.0939-12.41-7.2093-18.121 4.1219-1.8712 3.7125-3.838 6.75-4.3706 6.75-0.53261 0-1.2461 1.1065-1.5855 2.459-0.33944 1.3524-1.1985 2.9414-1.9089 3.531-1.3328 1.1061 3.0331 13.515 5.9847 17.01 0.69672 0.825 1.5923 2.566 1.9902 3.8688 0.39785 1.3028 2.6856 6.4834 5.0838 11.512 2.3983 5.029 5.0103 12.063 5.8045 15.631 2.1233 9.5396 5.0986 16.428 7.2715 16.835 1.0194 0.19089 2.2809 0.75339 2.8034 1.25 0.5225 0.49662 1.7741 0.90294 2.7814 0.90294s2.0904 0.675 2.407 1.5c0.31659 0.825 0.98512 1.5 1.4856 1.5 0.73685 0 10.531 5.4992 17.876 10.037 7.7512 4.7886 33.806 15.362 51.5 20.899 7.9223 2.4792 22.498 9.1708 22.499 10.329 0.004 4.0921-14.127 5.7732-26.499 3.1525-2.5832-0.54718-2.3054-0.18909 2 2.5778 2.75 1.7673 5.9581 4.0938 7.1292 5.17s3.8849 2.9419 6.0308 4.1459c12.499 7.0129 17.185 10.249 19.288 13.318 5.8454 8.5308 11.052 12.031 11.052 7.4298 0-1.6175 0.40015-3.1883 0.88922-3.4906 0.48907-0.30227 1.1991-1.7913 1.5779-3.309 0.37878-1.5177 1.2602-3.4344 1.9587-4.2594 0.69852-0.825 1.8502-3.6491 2.5593-6.2758 1.2051-4.464 3.0149-7.28 3.0149-4.691 0 0.63321 0.9 2.2955 2 3.6939 3.1939 4.0604 2.5119 9.0482-2 14.628-0.825 1.0202-1.4414 2.1452-1.3698 2.5 0.23162 1.1474-1.4774 4.9326-2.5174 5.5753-0.62295 0.385-0.82863 4.3535-0.53626 10.347 0.64081 13.137 1.1276 15.645 3.443 17.74 1.0892 0.98575 1.9804 2.8771 1.9804 4.203 0 6.4249 2.4705 7.4627 7.3922 3.1053zm-85.4-103.46c-12.062-2.2618-27-9.0237-27-12.222 0-1.5711 0.53882-1.4812 8.5 1.4187 9.1483 3.3323 16.475 5.1053 24.604 5.9539 7.7245 0.80636 9.9804 1.803 8.1726 3.6108-1.2721 1.2721-10.041 2.0327-14.277 1.2384zm-18.048-15.2c-2.7564-2.232-2.051-3.6921 2.194-4.5411 1.753-0.3506 4.6574-1.7587 6.4541-3.1292 1.7967-1.3704 3.7618-2.4917 4.3668-2.4917 0.60503 0 2.7003-1.6002 4.6562-3.5561 5.6593-5.6593 11.699 0.16529 7.8633 7.5831-3.102 5.9985-20.531 10.186-25.534 6.135zm8.3-13.82c-2.9-1.17-0.27-8.34 3.06-8.34 2.3643 0 3.7308 3.0471 2.455 5.4742-1.6496 3.1381-3.0427 3.8613-5.5155 2.8635zm-126.99-39.59c1.23-0.6862 4.0364-2.8879 6.2364-4.8926 2.2-2.0048 4.9895-3.9413 6.1988-4.3035 1.2094-0.36218 2.4487-1.4458 2.7541-2.408 0.30538-0.96219 2.1296-2.3187 4.0537-3.0145 3.9291-1.4208 4.0722-4.8431 0.35239-8.4227-1.02-0.98-1.86-2.22-1.86-2.75 0-5.3628-9.2488-10.043-12.945-6.5503-3.2262 3.048-6.6586 3.4459-10.806 1.2527l-3.2516-1.7194-6.5581 5.0265c-3.61 2.77-7.01 5.03-7.57 5.03-0.55553 0-2.9722 1.35-5.3704 3-5.9551 4.0972-10.941 3.0388-6.2253-1.3214 2.69-2.49 9.64-7.68 10.28-7.68 1.3 0 10.45-6.35 10.45-7.25 0-1.06-7.82-8.75-8.89-8.75-4.0937 0-19.711 10.293-20.523 13.526-0.97252 3.8748-8.238 8.8705-12.982 8.9261-2.3409 0.0275-6.5426 1.2284-9.7892 2.7981-3.1284 1.5125-6.1108 2.75-6.6276 2.75-3.0036 0-3.2112 2.9387-0.48579 6.8765 3.4729 5.0178 4.4977 5.052 11.201 0.37353 11.586-8.0855 21.192-11.91 21.079-8.393-0.0113 0.35365-6.0771 4.018-13.479 8.143-7.4024 4.125-13.468 8.0625-13.479 8.75-0.03508 2.1303 1.6035 1.4701 14.273-5.75 13.894-7.9181 13.849-7.9058 16.528-4.5 2.4262 3.0844 3.0861 3.0904 5.9648 0.0542 1.2574-1.3262 3.6172-2.7036 5.244-3.0609 1.6268-0.35731 3.2981-1.2021 3.7139-1.8774 1.1148-1.8104 13.161-7.7924 14.289-7.0955 3.6889 2.2799-6.8524 11.261-13.191 11.239-3.0134-0.0107-7.3979 3.5327-6.3897 5.164 1.085 1.7556 5.3958 1.2282 7.5473-0.92341 1.1-1.1 2.675-2 3.5-2s1.5-0.45 1.5-1 1.1879-1 2.6398-1 3.2265-0.7875 3.9435-1.75c1.1853-1.591 1.5515-1.6137 4.0301-0.25 4.1576 2.2875 3.9134 3.6334-0.99963 5.5097-2.4668 0.9421-4.7087 2.2954-4.9819 3.0073-0.27318 0.71191-1.8771 1.5976-3.5643 1.9681-3.0004 0.659-3.9185 1.8709-2.2149 2.9238 0.46897 0.28984 1.7065-0.11929 2.75-0.90918s2.5804-1.4505 3.4152-1.468c0.83482-0.0175 3.2323-1.1968 5.3278-2.6207 2.6506-1.8011 4.547-2.4039 6.2321-1.981 2.2039 0.55314 3.4949 2.5698 1.6451 2.5698-0.42743 0-2.2552 1.35-4.0617 3-3.3829 3.0898-2.8405 3.952 1.1024 1.7524zm-27.988-32.224c-0.453-0.80948-1.9141-1.6382-3.2469-1.8416-3.6337-0.55454-3.5756-2.3829 0.1478-4.653 4.3095-2.6274 4.131-2.6919 5.603 2.0245 1.6111 5.1621-0.25359 8.4911-2.5039 4.47zm63.329 14.952c2.1424-2.4859 5.9203-7.2264 8.3953-10.534 2.475-3.3079 7.5375-9.6089 11.25-14.002 3.7125-4.3933 6.75-8.3645 6.75-8.8249s1.7207-2.813 3.8237-5.2279c7.1157-8.171 6.5684-9.4888-1.8237-4.3908-10.948 6.6503-14.253 3.5231-4.5-4.2575 2.75-2.1939 5.7681-4.8334 6.7069-5.8657 6.7988-7.4757 11.313-11.839 12.02-11.618 2.274 0.711 1.3878-12.242-1.2492-18.259-0.48205-1.1-1.602-4.25-2.4888-7-0.88681-2.75-2.4309-6.3975-3.4314-8.1055s-2.6051-6.433-3.5659-10.5c-0.96081-4.067-2.3928-9.4195-3.1822-11.894-0.78942-2.475-1.8868-6.3823-2.4387-8.6829-0.55189-2.3006-1.6293-4.7023-2.3943-5.3372-0.81962-0.68022-1.198-2.248-0.92135-3.8171 0.41288-2.3415-2.9066-8.3188-3.9176-7.0544-0.17226 0.21541-1.3262 2.5292-2.5642 5.1417-2.592 5.4694-4.0726 6.0818-4.0726 1.6843 0-3.576 1.4804-6.8207 4.0764-8.9343 1.778-1.4476-2.2312-16.998-4.8918-18.974-0.38946-0.28922-3.7515-4.1683-7.4713-8.6202-6.6197-7.9227-8.6549-9.5539-13.709-10.988-1.3729-0.3896-2.9479-1.2414-3.5-1.893-0.55211-0.65154-3.0288-1.7921-5.5038-2.5346-2.475-0.74249-5.0034-1.7249-5.6186-2.1832-3.6128-2.6913-25.52-7.277-39.01-8.1659l-9.1289-0.60155-0.59391 2.9696c-0.32665 1.6333-0.33262 3.6505-0.0133 4.4827 1.7686 4.6089-2.6721 8.5788-5.6212 5.0254-0.99434-1.1981-0.82561-2.1705 0.87756-5.0572 3.2-5.438 2.51-13.894-1.37-16.668-1.17-0.841-4.52 1.977-4.52 3.804 0 2.1945-3.0472 3.2205-6.6282 2.2317-3.902-1.0774-9.6609 1.2459-8.7798 3.542 1.0469 2.7281-2.3262 4.3113-10.667 5.0069-9.99 0.833-9.925 0.796-9.925 5.586v3.8541l-3.0254-1.142c-3.3673-1.271-6.6416 0.01176-6.2641 2.4541 0.66936 4.3313 2.0804 7.8677 4.2896 10.75 4.2736 5.5766 17.423 18.094 19 18.087 3.0286-0.0129 9.6887-2.5383 12.554-4.7604 1.6202-1.2564 5.3083-4.0794 8.1958-6.2733s5.2568-4.7659 5.2651-5.7156c0.0239-2.7383 2.5635-9.3148 3.3092-8.5692 2.0871 2.0871-0.55059 13.163-5.3799 22.59-3.534 6.8988-3.5197 6.7522-0.65579 6.7522 4.8146 0 14.711 6.825 14.711 10.145 0 2.1472-3.0358 3.9489-6.0738 3.6047-3.2368-0.3667-3.3194 1.3988-0.27264 5.8242 1.4866 2.1593 3.7574 6.0813 5.0462 8.7156s3.0311 5.0536 3.8718 5.3762c1.4032 0.53843 6.9513 8.3247 10.209 14.328 0.74429 1.3714 2.5606 4.0644 4.0363 5.9843 2.9084 3.7841 4.5675 6.3996 6.0406 9.5222 1.5845 3.3589 7.0963 10.5 8.1043 10.5 0.94664 0-1.2491-7.3511-2.8118-9.4137-0.45268-0.59748-1.9941-4.6863-3.4254-9.0863s-4.2389-11.6-6.2391-16c-3.2485-7.1458-4.3859-9.7344-7.4698-17-0.4669-1.1-1.1391-3.125-1.4937-4.5-5.731-22.22-6.2578-25-4.7377-25 1.2202 0 4.2156 5.5746 4.2156 7.8453 0 1.1202 0.45 2.3148 1 2.6547 0.55 0.33992 1 1.5345 1 2.6547s0.6437 3.2311 1.4304 4.691c0.78675 1.4599 2.5171 5.1293 3.8452 8.1543s3.7028 8.425 5.277 12c1.5743 3.575 3.6172 7.4 4.5399 8.5 0.92268 1.1 1.9885 3.0246 2.3684 4.2769 0.37998 1.2523 2.3442 4.23 4.3649 6.6172s4.5741 5.8196 5.6741 7.6277c1.1 1.808 3.1308 5.1303 4.513 7.3828 1.3821 2.2525 4.123 5.7927 6.0908 7.8671s5.337 6.2272 7.487 9.2284c4.586 6.4016 5.4092 6.7098 5.4092 2.0256 0-2.8452 0.54061-3.7539 2.9855-5.0182 1.7895-0.92538 3.2404-2.6382 3.6218-4.2757 0.55708-2.3919 2.9515-6.9687 7.1839-13.732 2.8657-4.5792 5.1663-10.166 5.1869-12.595 0.0254-3.0042 3.2868-6.4011 5.376-5.5994 2.7109 1.0403-0.84813 13.831-5.5202 19.838-3.9086 5.0258-3.6372 5.8555 1.9161 5.8598 7.1701 0.006 12.949 3.8974 10.067 6.7796-1.6794 1.6794-0.30582 2.6269 3.6457 2.5149 3.9288-0.11136 5.6632 2.4055 2.9998 4.3531-2.4748 1.8097-9.4582 2.7527-10.758 1.4528-0.60725-0.60725-2.1136-1.1041-3.3474-1.1041s-2.9504-1.0095-3.8146-2.2433l-1.5713-2.2433-5.7354 3.0272c-4.1927 2.213-5.8279 3.6735-6.0794 5.4299-0.18921 1.3215-1.6125 3.5877-3.163 5.036-1.58 1.4759-3.3173 4.5804-3.9528 7.0634-2.0122 7.862-3.1129 9.6835-10.209 16.893-7.6583 7.7808-8.0502 9.3794-2.4154 9.8523 7.4409 0.62446 19.83 22.442 14.585 25.684-1.2173 0.75232-1.3427 5.5-0.14531 5.5 0.47008 0 2.6076-2.034 4.75-4.5199zm-10.89-78.09c-4.2592-5.3689-8.8669-17.633-11.325-30.142-0.7873-4.0069 2.9634-4.9054 4.1742-1 0.38367 1.2375 2.3806 5.85 4.4376 10.25 11.066 23.67 12.27 32.939 2.713 20.892zm-1.46-33.88c-4.4098-1.9167-4.156-2.5656 2.5-6.393 24.581-14.135 28.253-15.024 23.503-5.6903-6.0513 11.889-15.909 16.47-26.003 12.083zm-18.87-17.26c-2.7257-5.5403-2.6939-18.75 0.0451-18.75 2.3589 0 3.4847 3.4711 4.0544 12.5 0.66193 10.491-0.86658 12.821-4.0995 6.25zm35.099-11.428c0.26109-3.9481 0.93446-7.6381 1.4964-8.2 0.56-0.56 1.02-2.73 1.02-4.82 0-5.6388 1.6379-4.6026 2.2919 1.45 0.63529 5.8793-0.30321 13.106-2.1428 16.5-2.2443 4.1408-3.1556 2.4569-2.6672-4.9283zm-53.73-4.9c-3.4526-2.011-2.1224-5.2608 3.1418-7.6758 8.0623-3.6987 11.141-1.9363 6.8478 3.9199-3.1325 4.2727-6.7603 5.6367-9.9896 3.7559zm-61.171-18.792c-0.518-0.839 6.769-4.128 9.141-4.128 1.8616 0 2.549 1.9656 1.2392 3.5438-1.3173 1.5872-9.4807 2.0466-10.384 0.58434zm83.421-1.035c0-1.922 8.81-10.093 10.89-10.093 2.1278 0 1.0807 1.9849-3.6802 6.9764-5.07 5.32-7.21 6.243-7.21 3.117zm-86.99-4.23c0.0096-1.3381 7.696-4.5578 13.368-5.5994 4.699-0.86301 2.6749 1.927-2.9541 4.072-7.0656 2.6924-10.425 3.1852-10.414 1.5275zm-7.599-4.363c-1.2424-4.9503 2.2248-10.469 3.9271-6.25 0.40351 1 0.52018 1 0.58333 0 0.049-0.772 1.563-1.25 3.957-1.25 2.226 0 4.407-0.639 5.122-1.5 1.1815-1.4236 5-2.1371 5-0.93426 0 3.8563-8.5913 8.3972-12.51 6.6119-2.394-1.091-2.49-1.001-2.49 2.343 0 4.155-2.613 4.868-3.589 0.979zm21.339-7.717c-1.979-2.477-2.16-3.412-0.82-4.241 1.63-1.006 8.07 2.7 8.07 4.643 0 2.6557-5.0296 2.377-7.25-0.40185zm49.323-1.4182c-3.43-4.365-2.86-7.062 0.93-4.365 1.9253 1.371 3 3.0074 3 4.5681 0 3.153-1.3422 3.0836-3.9274-0.20295zm-30.82-16.032c-1.7657-0.70629-1.5558-4.2788 0.29313-4.9883 1.9207-0.73705 2.3431-0.32707 2.6853 2.6065 0.2798 2.3986-0.79252 3.2562-2.9784 2.3818zm177.74 160.53c1.741-2.8295 3.5903-6.092 4.1095-7.25 0.51921-1.158 2.0352-3.9054 3.3688-6.1054 5.2212-8.613 5.5286-9.7812 5.4879-20.859-0.05-12.49-13.8-23.32-36.46-28.73-14.2-3.39-31.5-11.12-31.5-14.08 0-0.46-0.9-0.84-2-0.84-2.0951 0-2.8554 3.6294-1.1627 5.55 0.87835 0.99659 5.3251 13.72 9.2438 26.45 2.5627 8.3246 3.1515 20.486 1.2346 25.5-2.5024 6.5453-2.4868 9.5 0.0504 9.5 1.2738 0 4.5251 0.69321 7.225 1.5405 2.6999 0.84726 6.9339 1.9499 9.4089 2.4502 2.475 0.50036 5.85 1.1976 7.5 1.5494 4.5714 0.97472 15.573 6.7361 16.632 8.7099 1.5841 2.953 3.5572 1.977 6.8624-3.3946zm-20.98-20.84c-0.58252-1.0884-3.7744-3.8229-7.093-6.0765s-5.8462-4.6256-5.6168-5.271c0.67007-1.8855 5.297-1.0184 9.3834 1.7583 4.9501 3.3637 4.912 3.3762 7.4106-2.4318 4.3657-10.148 6.6402-1.3654 2.784 10.75-1.2178 3.826-5.1148 4.5472-6.8681 1.271zm-156.01-50.5c0-0.81387-0.6581-3.1764-1.4624-5.25-0.80435-2.0736-2.1784-8.7202-3.0534-14.77-0.87503-6.05-2.0169-11.428-2.5375-11.95-0.52-0.52-0.95-2.68-0.95-4.79 0-3.5479-0.15252-3.7536-2.0359-2.7456-1.1198 0.59928-3.8198 1.1607-6 1.2477-2.1802 0.0869-3.9641 0.54153-3.9641 1.0102 0 1.1192 3.5055 9.6961 7.0392 17.223 1.5493 3.3 3.1291 7.35 3.5106 9 1.57 6.8 9.45 15.99 9.45 11.02zm-60-46.97c0-2.02 4.68-10.731 6.769-12.596 6.13-5.472 5.481-13.702-0.692-8.77-5.679 4.538-11.302 22.816-7.018 22.816 0.518 0 0.941-0.65 0.941-1.45zm-2.473-38.937c14.875-3.365 21.803-5.39 40.973-11.976 19.57-6.725 40.19-19.09 37.93-22.746-0.7-1.13-4.43-1.174-4.43-0.052 0 1.332-4.7936 3.1602-8.297 3.1643-1.7616 0.0021-4.7086 0.92168-6.5488 2.0436s-8.1402 3.1646-14 4.5392c-11.384 2.672-19.44 5.083-30.65 9.177-3.85 1.405-9.075 2.634-11.611 2.729-6.231 0.235-18.889 10.386-18.889 15.149 0 1.676-2.0046 1.9378 15.527-2.0277zm13.431-32.204c2.1534-1.4251 5.6313-3.0274 7.7286-3.5607 12.167-3.094 17.692-4.003 25.313-4.166 5.04-0.108 8.42-0.589 8.3-1.182-0.24-1.166-2.18-6.782-3.72-10.792-2.46-6.3817-12.87-8.4423-23.171-4.5879-4.992 1.8676-6.97 2.0653-15.011 1.5002-11.271-0.7923-12.395 2.3787-6.335 17.88 0.43001 1.1 1.0504 3.2375 1.3787 4.75 0.72876 3.3578 0.68508 3.3565 5.517 0.15895zm5.042-11.409c-4.7666-4.7666-1.1306-6.5936 12.25-6.1555 5.9095 0.19349 6.1985 1.8797 0.94625 5.5195-4.696 3.255-10.307 3.525-13.196 0.636z"/>
</svg>
