<?xml version="1.0" encoding="utf-8"?>
<!-- Generator: Adobe Illustrator 16.0.0, SVG Export Plug-In . SVG Version: 6.00 Build 0)  -->
<!DOCTYPE svg PUBLIC "-//W3C//DTD SVG 1.1//EN" "http://www.w3.org/Graphics/SVG/1.1/DTD/svg11.dtd">
<svg version="1.1" id="Layer_1" xmlns="http://www.w3.org/2000/svg" xmlns:xlink="http://www.w3.org/1999/xlink" x="0px" y="0px"
	 width="431.25px" height="602.083px" viewBox="0 0 431.25 602.083" enable-background="new 0 0 431.25 602.083"
	 xml:space="preserve">
<g>
	<path fill-rule="evenodd" clip-rule="evenodd" fill="#E0E0E0" d="M5.901,283.843c0-154.747,93.301-278.545,209.928-278.545
		c116.628,0,209.926,123.798,209.926,278.545s-93.298,278.544-209.926,278.544C99.203,562.387,5.901,438.589,5.901,283.843
		L5.901,283.843z"/>
	
		<polygon fill-rule="evenodd" clip-rule="evenodd" stroke="#000000" stroke-width="0" stroke-linecap="square" stroke-miterlimit="10" points="
		287.211,112.154 290.593,110.887 292.703,109.198 293.972,107.509 295.239,105.397 296.505,102.862 296.505,99.906 296.082,96.949 
		295.239,95.26 293.549,94.838 291.016,95.26 288.902,94.838 286.792,93.571 284.679,91.459 281.723,90.191 278.341,88.502 
		276.653,86.391 275.386,83.434 274.54,80.9 273.275,78.366 271.584,76.253 269.474,74.564 267.783,72.875 265.67,72.031 
		263.137,73.297 261.868,74.142 260.604,74.142 257.222,73.297 252.998,71.608 247.087,70.341 244.974,70.341 242.018,69.919 
		233.57,69.919 222.586,69.496 198.088,69.496 186.685,69.919 181.615,70.341 177.391,70.763 173.59,71.608 170.634,72.453 
		161.763,76.253 154.583,80.478 148.247,84.279 143.178,88.08 138.954,91.036 135.575,93.993 132.619,95.683 130.507,96.949 
		128.816,98.216 127.127,99.906 123.748,105.397 120.792,111.732 116.99,117.223 114.878,119.756 113.188,122.713 110.232,130.316 
		108.12,138.341 107.697,146.788 107.275,152.278 106.008,159.881 105.585,167.906 105.585,176.353 105.585,183.955 
		104.741,190.712 105.585,197.048 106.853,200.427 109.387,204.229 114.878,211.831 117.413,215.21 119.947,218.166 
		122.903,223.657 123.748,225.769 124.171,227.458 125.016,229.992 126.283,232.526 127.55,235.483 128.395,239.707 
		129.239,244.775 131.351,248.998 134.308,252.377 137.687,254.911 140.644,257.023 142.755,259.979 144.445,262.514 
		146.557,264.625 146.98,265.47 146.98,267.16 146.135,268.427 145.713,268.849 145.29,268.849 143.601,269.271 138.531,270.538 
		132.619,272.228 127.127,275.185 126.705,276.029 125.86,277.295 124.593,281.52 123.325,287.433 122.059,293.768 121.213,300.104 
		120.369,305.594 119.524,309.818 119.524,311.084 119.102,311.507 117.835,313.619 115.301,316.154 112.766,319.532 
		109.387,323.756 105.585,328.824 97.138,339.383 88.69,350.364 80.665,361.346 76.863,365.991 73.906,370.214 71.794,373.592 
		70.105,376.127 68.838,378.662 67.57,382.463 65.881,387.11 64.191,392.177 61.235,404.003 57.855,416.674 54.899,428.5 
		53.632,433.991 52.364,439.058 51.52,442.86 50.675,446.24 50.252,447.929 50.252,448.773 50.252,449.196 51.098,450.041 
		51.52,451.307 52.787,453.419 56.166,458.91 60.39,466.09 66.303,474.537 73.484,483.83 81.932,493.543 91.647,504.101 
		102.629,514.239 115.301,524.375 128.816,533.667 144.022,541.691 160.496,548.873 178.237,553.94 187.529,556.052 
		197.244,557.319 206.959,558.164 217.521,558.586 228.078,558.164 237.794,557.319 247.51,555.629 256.799,553.517 274.54,548.027 
		290.593,541.268 305.798,532.823 318.892,523.53 331.141,513.395 342.124,503.257 351.418,493.121 359.442,483.407 
		366.622,474.116 372.114,465.667 376.338,458.91 379.293,453.419 380.562,451.307 381.407,450.041 381.83,449.196 381.83,448.773 
		381.407,447.929 380.562,446.24 378.87,443.282 376.761,439.481 374.224,434.414 370.846,428.921 363.666,416.674 355.642,403.158 
		346.349,389.221 337.478,376.55 332.831,370.637 328.607,365.57 320.16,356.277 312.135,347.408 304.952,339.805 298.618,333.047 
		293.549,327.134 289.748,322.911 287.211,320.375 286.369,319.532 287.211,319.109 289.748,318.687 292.703,318.264 
		296.505,319.109 301.151,319.955 306.643,319.532 312.135,318.687 316.781,317.42 319.314,317.42 321.848,316.998 326.917,315.308 
		330.718,312.774 331.986,312.353 332.408,311.93 334.1,311.93 337.9,311.507 342.97,310.662 347.193,309.395 349.727,307.284 
		351.837,305.171 355.219,300.104 356.483,296.303 356.061,292.079 355.219,288.7 354.796,287.433 354.796,287.011 354.796,286.166 
		354.373,284.054 353.95,280.675 353.104,277.295 350.995,269.271 349.304,265.892 347.613,263.358 338.742,254.066 
		335.364,248.998 333.254,244.775 332.408,241.818 331.986,240.973 331.563,240.551 331.563,239.284 332.408,237.595 
		333.677,233.793 334.519,229.57 334.519,224.924 333.677,221.123 331.563,217.744 329.03,214.787 326.917,212.252 326.494,211.408 
		326.917,210.563 329.03,209.297 331.563,207.607 334.1,205.495 334.941,202.117 334.1,199.582 332.408,195.781 329.876,191.135 
		326.494,186.49 319.737,177.197 316.781,173.396 314.668,170.862 308.334,164.527 306.643,161.57 306.221,158.191 307.065,150.589 
		306.643,146.788 304.529,143.832 301.996,140.875 299.464,137.074 295.239,128.204 291.857,119.756 290.17,116.378 
		288.479,113.844 287.211,112.154 	"/>
	
		<polygon fill-rule="evenodd" clip-rule="evenodd" fill="#FFFFFF" stroke="#000000" stroke-width="0" stroke-linecap="square" stroke-miterlimit="10" points="
		224.277,74.987 228.501,72.875 233.147,71.608 236.948,71.608 239.904,72.031 242.863,72.453 251.311,73.297 254.689,74.564 
		258.067,75.832 261.868,76.253 264.827,75.409 266.515,73.72 266.938,73.297 267.783,73.297 268.629,74.564 269.894,75.832 
		272.43,80.478 274.117,86.391 274.963,89.347 277.076,91.881 282.146,95.26 287.211,96.949 288.902,97.372 290.17,97.372 
		291.016,97.794 291.857,99.484 291.436,101.596 290.593,104.129 289.748,104.974 289.325,104.974 288.902,103.707 288.479,101.596 
		286.792,100.329 283.41,99.906 279.187,98.216 274.963,95.683 273.698,93.993 272.853,91.881 272.007,89.77 270.739,88.502 
		267.36,86.391 263.982,85.546 263.137,85.123 262.714,85.123 263.56,84.701 264.827,83.434 266.092,81.745 266.938,80.055 
		266.938,79.21 266.515,79.21 264.827,80.055 262.714,81.322 260.181,82.167 258.913,81.745 259.336,81.322 262.291,78.789 
		262.714,78.366 261.868,77.944 258.067,78.366 253.844,78.789 250.043,78.366 246.241,77.099 241.172,76.253 236.525,75.832 
		233.57,75.832 230.614,76.253 227.232,76.253 224.277,75.832 223.009,75.832 224.277,74.987 	"/>
	
		<polygon fill-rule="evenodd" clip-rule="evenodd" fill="#FFFFFF" stroke="#000000" stroke-width="0" stroke-linecap="square" stroke-miterlimit="10" points="
		201.045,102.862 206.114,100.751 210.338,97.372 216.674,89.77 222.586,83.012 225.968,80.478 230.191,79.21 234.838,79.21 
		238.217,80.055 241.172,81.322 244.551,81.745 247.933,82.589 251.733,84.279 255.957,85.968 261.023,87.658 263.137,88.08 
		264.827,88.925 266.092,90.614 266.938,93.148 268.629,94.416 270.739,95.683 272.853,96.949 274.117,98.216 275.386,101.173 
		276.23,103.707 277.922,106.241 281.3,109.198 285.102,113.844 288.479,119.334 291.436,126.092 293.972,133.272 297.35,139.607 
		300.306,143.832 301.573,145.521 302.842,146.365 304.11,147.632 304.529,149.744 304.529,160.303 304.952,162.837 
		306.221,164.527 308.334,167.061 311.289,170.862 318.892,180.577 326.071,190.291 328.607,194.514 330.295,197.048 
		331.563,200.005 331.141,202.117 329.03,203.384 326.071,204.65 322.692,204.65 320.16,203.384 317.201,202.539 315.936,202.961 
		314.245,204.229 308.334,209.297 304.952,210.142 301.996,209.719 299.464,207.185 298.618,203.806 298.195,200.005 
		298.195,197.893 297.772,197.048 296.082,197.471 293.549,198.315 293.549,199.16 294.395,201.272 295.239,204.65 294.395,209.297 
		292.703,215.21 292.28,221.545 292.28,228.302 292.703,229.57 293.126,229.57 293.549,228.725 293.549,226.613 293.972,224.079 
		294.817,217.744 297.35,211.408 300.306,213.52 303.265,213.943 306.221,213.52 310.021,212.252 313.399,210.986 314.668,210.563 
		315.514,211.408 315.514,213.943 315.936,215.632 317.201,217.321 321.005,219.855 323.961,222.812 324.807,224.501 
		324.807,227.036 326.071,226.613 327.339,225.769 327.762,224.079 327.762,221.968 327.762,221.123 328.185,221.545 
		329.03,223.234 328.607,226.19 327.339,227.88 325.229,229.147 326.071,228.725 325.229,229.57 323.961,229.992 322.692,229.147 
		321.848,228.302 321.425,229.147 320.583,231.259 318.469,233.793 319.314,231.259 319.314,228.725 318.892,228.725 
		318.892,229.147 317.623,231.259 315.514,234.638 312.977,237.595 311.712,238.017 311.289,237.595 311.289,235.06 
		311.712,231.682 312.135,230.415 312.135,229.992 311.712,230.415 310.444,231.259 307.488,233.371 305.375,235.06 
		303.265,237.595 301.573,240.551 301.573,243.508 301.573,246.886 299.883,250.265 296.505,253.644 292.703,256.601 
		291.436,257.446 291.436,257.868 292.703,257.868 294.395,257.446 299.041,255.755 303.265,253.222 305.798,250.688 
		307.488,247.73 308.334,245.197 308.334,243.508 308.753,243.085 310.021,243.93 312.135,244.352 313.399,243.93 314.668,243.085 
		317.623,240.551 320.16,239.284 321.848,239.284 322.692,239.707 323.115,240.128 324.384,240.128 326.071,239.707 
		327.339,238.017 328.607,235.905 330.295,233.793 331.563,232.104 331.986,230.415 331.986,231.259 331.141,234.638 
		329.453,239.284 326.917,243.085 325.652,243.93 324.384,244.352 323.115,243.93 322.27,243.085 321.848,242.24 321.848,244.775 
		321.005,246.464 319.314,247.309 319.737,248.576 319.737,248.998 317.623,248.576 315.091,247.73 313.822,247.309 313.822,247.73 
		314.668,248.576 316.358,251.955 318.469,255.755 320.16,257.868 321.005,258.29 321.425,257.446 321.005,255.755 321.005,254.066 
		321.425,254.066 322.692,255.333 324.807,257.023 327.339,257.868 328.607,257.868 329.03,257.446 329.453,256.178 
		329.453,254.911 329.876,254.066 331.141,254.066 334.1,254.911 336.633,257.446 339.588,260.402 343.812,262.936 345.926,265.048 
		348.035,268.427 349.304,273.073 350.572,278.141 350.995,283.209 350.995,288.277 350.572,292.079 349.727,294.189 
		348.881,295.035 348.881,295.88 349.727,295.88 351.837,294.612 353.527,292.501 353.95,292.079 353.95,292.924 353.527,294.612 
		353.104,296.726 350.995,301.793 348.035,306.017 346.349,307.284 345.503,307.706 341.701,307.706 338.323,308.128 
		337.055,308.549 336.633,308.128 337.478,307.284 338.742,306.017 345.503,299.258 346.771,296.726 346.771,294.189 
		345.926,291.656 345.503,289.123 345.503,288.277 345.08,288.7 344.234,289.544 343.389,291.233 340.856,295.458 337.9,299.258 
		336.633,300.527 336.21,300.527 335.787,300.104 335.787,298.835 336.21,295.458 335.787,292.079 334.941,291.656 334.519,292.079 
		332.831,295.035 330.295,299.258 326.494,303.059 324.807,303.905 323.961,303.905 324.384,302.637 325.229,300.95 
		325.652,300.527 324.807,300.95 321.848,303.059 320.16,304.328 318.892,305.594 315.936,307.284 314.245,307.284 314.245,306.017 
		315.936,304.328 318.046,302.214 319.737,300.104 320.16,299.258 319.737,299.258 317.623,299.681 315.091,300.104 
		314.245,300.104 313.822,299.258 312.977,298.413 311.712,299.681 310.444,301.793 310.444,304.328 310.867,305.171 
		309.599,303.059 308.334,300.104 307.911,297.569 307.911,297.146 307.488,297.146 303.265,299.681 302.419,299.258 
		301.573,297.992 301.573,296.303 301.996,294.189 304.11,289.967 305.798,285.743 306.221,284.054 306.221,282.364 305.798,281.52 
		305.375,281.52 304.952,282.787 304.11,284.476 301.996,288.277 300.306,290.389 298.618,291.656 296.927,292.079 296.505,291.656 
		296.505,290.812 296.927,289.544 298.618,285.743 301.151,282.364 299.041,279.83 298.195,276.874 298.195,273.917 
		299.464,270.961 299.883,270.538 299.464,270.538 298.618,271.383 296.927,273.073 293.972,276.451 293.126,278.141 
		292.703,279.408 292.703,279.83 292.703,274.34 291.857,268.849 291.436,265.892 291.016,264.203 290.593,263.78 290.17,264.203 
		290.17,265.47 289.748,268.004 288.902,273.495 286.792,278.986 283.41,282.787 280.032,285.32 277.076,286.166 275.809,286.166 
		277.076,286.166 279.609,286.588 282.568,286.166 285.523,285.32 286.369,284.898 286.792,285.32 287.634,288.7 288.479,289.544 
		289.748,288.7 291.016,286.588 291.857,284.054 292.28,281.52 292.703,282.364 293.126,284.476 293.549,287.433 293.126,293.768 
		292.28,296.303 291.016,298.413 289.748,299.681 288.479,300.104 288.057,299.681 288.057,298.413 289.325,293.345 
		288.902,292.924 287.634,293.768 284.679,297.569 284.256,297.992 283.833,297.992 283.41,296.303 282.987,293.768 
		282.568,291.656 282.146,291.233 281.723,291.656 280.032,296.726 280.032,298.835 280.032,299.258 279.609,299.258 
		277.499,297.992 275.386,295.88 274.54,292.924 274.54,292.079 274.117,291.656 273.275,292.501 272.007,293.768 271.161,293.768 
		270.739,292.924 269.894,292.501 269.474,292.501 268.629,294.189 268.629,297.569 269.894,300.95 270.739,301.793 
		270.316,301.793 269.474,301.371 268.206,299.681 259.758,291.656 258.067,290.389 257.222,289.544 256.799,289.544 
		256.799,289.967 258.913,294.189 259.336,294.612 258.913,294.612 256.799,292.924 250.465,287.433 249.197,286.588 
		248.774,286.588 247.51,287.855 246.664,289.123 246.241,289.123 245.396,288.277 244.551,287.433 244.128,287.433 243.708,288.7 
		243.286,290.389 242.863,290.812 242.018,290.389 239.904,289.123 237.371,289.123 234.415,288.7 232.302,286.588 231.033,282.787 
		230.191,273.495 228.501,269.271 227.232,268.004 226.391,266.737 225.545,266.315 225.545,270.961 225.545,272.65 
		225.122,273.073 223.854,272.65 222.163,270.538 220.898,268.849 220.053,269.271 218.362,273.495 217.521,273.917 
		216.251,273.917 214.562,274.762 213.294,276.451 213.717,277.718 214.139,277.718 213.294,276.874 211.605,275.606 
		209.916,273.917 205.691,269.271 204.847,267.16 204.424,265.048 204.424,263.78 204.002,262.936 202.313,262.936 200.623,262.091 
		199.778,261.247 199.778,259.135 200.2,254.911 201.045,252.377 201.468,251.11 201.891,250.688 201.468,250.688 200.623,251.533 
		199.356,252.799 198.088,254.489 196.821,257.023 195.555,260.402 194.709,264.203 194.709,268.427 195.132,270.961 
		196.399,272.65 199.356,274.34 202.735,275.185 204.424,276.029 205.27,277.718 206.114,278.563 207.382,279.408 211.605,281.52 
		217.097,284.476 223.854,287.433 237.371,293.345 242.44,295.88 245.818,297.569 247.933,297.146 250.888,297.569 256.38,299.681 
		260.604,303.482 261.868,305.171 262.291,306.861 261.445,309.395 259.758,311.084 257.222,313.196 255.111,315.308 
		252.998,317.843 252.156,319.109 250.888,319.955 248.352,320.798 246.664,320.375 244.551,319.532 242.44,318.687 
		239.481,316.998 234.838,314.885 229.346,312.353 222.586,309.395 215.406,306.017 199.778,299.258 183.728,292.501 
		167.676,286.588 160.496,284.476 154.16,282.364 148.247,281.098 143.601,280.675 144.022,278.563 144.868,276.029 
		148.247,269.693 151.204,264.625 152.048,262.936 152.471,262.514 153.316,262.514 155.85,261.668 158.384,259.557 
		159.229,257.868 160.073,255.755 160.919,252.377 162.608,248.576 166.41,239.284 168.522,235.06 170.634,231.682 172.323,229.147 
		174.013,227.88 175.279,228.302 176.547,229.57 179.503,235.06 182.882,240.551 184.572,242.24 186.685,243.085 190.063,242.663 
		192.175,241.818 193.02,240.551 193.443,240.128 193.865,240.128 195.132,240.551 198.511,240.973 202.735,239.707 
		204.424,238.017 205.691,235.483 206.536,233.371 206.536,232.949 205.691,233.793 204.002,235.06 201.891,236.75 198.933,238.017 
		195.132,238.439 190.908,238.017 188.374,236.75 185.84,234.638 180.771,229.147 175.702,222.39 170.211,216.899 167.254,213.52 
		164.72,208.875 163.031,202.961 162.185,196.625 162.185,190.712 164.298,185.222 165.564,182.688 167.676,180.999 
		170.211,179.309 173.167,178.465 178.237,178.042 182.882,179.309 186.262,181.421 189.218,184.377 190.908,187.334 
		192.597,189.868 193.02,191.558 193.443,192.403 193.865,192.403 195.555,191.98 197.244,191.98 198.933,192.825 199.356,193.247 
		199.356,192.825 198.933,190.291 197.244,186.912 194.288,183.11 192.597,179.732 192.597,176.353 193.443,173.819 
		194.709,172.129 194.709,171.707 193.443,172.129 191.331,172.974 188.374,173.819 185.84,173.396 184.15,172.129 182.038,170.862 
		179.503,171.284 178.237,171.284 178.237,170.44 179.082,168.75 180.349,167.061 184.15,162.415 187.529,159.036 190.063,156.08 
		191.331,152.278 192.175,149.322 192.175,148.055 191.753,148.477 191.331,149.744 189.218,153.545 185.417,157.769 
		181.193,160.726 176.969,163.259 174.435,165.372 172.746,167.061 172.323,167.906 172.323,167.483 172.746,166.639 
		173.59,163.259 175.279,159.036 178.237,155.234 179.503,153.968 179.926,153.545 179.082,153.968 175.702,155.234 
		171.901,156.924 168.944,157.769 167.676,158.614 166.41,161.147 165.143,162.837 163.875,165.372 161.763,167.906 
		158.384,169.595 150.359,172.129 146.135,172.552 142.755,172.974 139.377,172.974 140.222,173.396 142.755,174.663 
		146.557,175.085 150.781,174.663 152.048,174.241 152.048,174.663 151.625,175.508 149.937,176.775 144.445,180.577 
		137.687,183.955 135.153,185.222 133.886,186.067 134.308,186.49 135.575,186.49 139.799,185.645 143.601,183.955 144.445,183.533 
		144.868,183.955 144.445,184.799 143.601,186.067 141.066,189.868 137.687,193.247 136.419,194.514 136.419,194.937 
		136.842,194.514 138.109,194.092 144.445,190.291 145.29,189.868 145.713,190.291 145.29,191.135 144.868,192.825 144.022,194.514 
		142.333,196.625 140.222,199.16 137.687,202.117 134.73,203.806 131.774,204.229 128.395,203.806 125.438,202.117 120.792,198.737 
		119.102,197.471 118.68,197.048 119.524,196.625 121.636,195.781 127.127,192.403 127.55,191.135 127.55,189.446 126.705,186.067 
		126.283,182.688 127.127,180.999 128.816,179.732 130.507,178.465 130.929,176.353 130.507,172.129 129.662,167.906 
		129.662,166.639 130.507,165.794 133.463,165.794 136.419,166.216 138.954,167.483 139.799,167.906 139.799,166.216 
		140.222,162.415 141.911,157.769 144.868,153.123 148.669,149.322 151.625,145.098 153.316,140.452 153.316,137.496 
		152.893,134.539 152.471,132.005 153.316,131.161 154.16,131.583 155.428,132.428 157.961,135.806 158.807,137.074 
		159.229,137.496 159.651,137.074 160.496,135.806 160.919,133.694 160.073,131.161 159.651,130.316 160.073,129.471 
		162.185,129.049 164.298,129.049 165.143,127.782 165.143,126.937 165.564,126.937 167.254,127.782 168.522,130.738 
		168.944,134.539 168.944,135.806 169.366,134.539 169.366,132.428 168.522,126.514 167.254,123.558 165.987,121.024 
		164.72,119.334 164.72,118.912 165.564,119.334 167.254,120.601 170.634,124.403 173.167,128.626 173.59,129.894 174.013,129.894 
		174.013,128.204 173.59,123.98 172.323,120.179 172.323,119.334 172.746,119.334 176.125,121.869 179.926,126.092 181.615,128.204 
		182.038,129.894 182.038,130.316 181.615,129.471 181.193,127.359 180.349,124.403 177.814,118.067 176.125,115.533 
		174.013,113.422 171.901,112.154 170.634,111.732 168.522,111.732 167.676,112.154 163.875,112.154 160.073,111.732 
		157.117,111.732 155.85,112.577 155.85,112.999 156.695,113.844 158.384,115.533 159.229,117.645 159.651,119.334 159.651,119.756 
		159.229,119.334 157.54,118.067 155.005,116.378 151.204,115.956 149.514,115.956 149.092,116.8 149.514,118.067 149.514,119.334 
		148.669,119.756 146.557,119.334 144.022,118.912 141.911,119.334 140.222,119.756 139.377,121.024 138.531,124.403 
		138.954,129.049 138.954,132.005 138.109,135.384 135.153,142.987 130.929,150.167 128.816,152.701 127.127,154.39 
		121.636,159.458 119.947,162.415 118.68,166.216 118.257,167.483 117.835,167.061 117.835,162.837 118.68,155.657 121.213,148.477 
		123.748,141.719 124.593,135.384 124.593,130.738 124.171,129.049 124.171,128.626 123.748,129.049 122.903,130.316 
		121.636,132.85 121.213,137.074 120.792,138.763 120.369,138.763 119.524,137.496 118.68,135.384 118.257,132.428 117.835,129.049 
		118.68,125.248 119.947,121.869 123.325,115.956 125.438,110.887 126.705,107.086 127.127,106.241 127.127,105.819 
		128.395,106.664 129.662,108.353 130.084,108.353 130.929,107.086 132.619,104.552 134.73,101.596 139.377,94.416 141.911,91.459 
		144.445,89.347 146.135,88.08 147.402,87.658 147.825,88.08 148.669,88.502 149.514,88.08 151.625,86.391 154.583,84.279 
		157.961,81.745 161.763,79.633 166.41,77.099 171.901,75.409 178.237,73.297 184.994,72.453 193.02,71.608 201.045,71.186 
		227.232,71.186 225.968,71.186 223.009,71.608 215.829,73.297 212.873,74.564 210.338,75.409 209.071,75.409 209.071,74.564 
		209.494,73.297 209.916,72.453 209.494,72.031 207.382,73.72 205.27,76.253 204.424,77.099 204.002,77.521 202.735,76.253 
		202.735,74.987 204.002,74.142 204.424,73.72 204.002,73.72 201.468,74.142 198.088,75.409 195.132,77.099 194.288,77.521 
		193.865,77.944 193.02,76.676 192.175,75.832 191.331,75.832 189.218,77.099 186.685,77.944 184.15,78.366 183.728,78.366 
		183.305,77.521 182.882,77.099 182.46,77.099 180.771,79.21 178.237,81.322 176.547,82.589 173.167,83.012 168.944,85.123 
		166.832,87.658 164.298,90.614 163.031,93.148 162.185,93.993 162.185,94.416 163.031,93.571 165.564,91.459 171.901,86.813 
		173.167,86.391 172.323,88.502 170.634,90.614 170.211,91.459 169.789,91.881 170.211,91.459 171.479,90.191 175.279,86.813 
		179.503,83.012 181.193,81.322 182.46,80.055 182.882,79.633 182.882,80.055 182.038,82.167 180.349,84.701 179.503,86.813 
		179.926,87.235 181.193,86.391 182.882,85.546 184.994,85.123 188.796,84.701 192.597,82.589 194.709,81.745 196.821,82.589 
		199.356,83.434 200.623,83.012 201.891,82.167 204.424,80.478 206.959,80.478 209.071,81.322 210.761,83.012 211.183,83.857 
		211.183,85.546 209.916,90.191 208.648,93.993 207.804,95.26 207.804,95.683 206.114,89.77 205.691,90.191 203.157,92.726 
		202.735,92.726 202.735,91.881 202.735,91.459 202.313,92.303 201.468,93.571 200.2,95.683 195.977,100.329 193.443,102.862 
		190.063,105.397 188.374,106.241 187.529,107.086 187.106,107.509 187.952,107.509 190.063,106.664 195.977,105.819 
		198.511,105.819 200.623,107.086 203.58,110.465 206.114,113.422 206.959,114.688 208.648,116.378 208.648,113.844 207.804,111.31 
		206.114,108.775 205.691,107.931 206.114,107.931 208.648,109.62 211.605,112.154 212.45,113.844 212.873,115.111 212.873,115.956 
		212.873,113.844 212.45,112.154 211.183,109.62 209.071,107.086 205.691,105.397 201.045,103.707 201.045,102.862 	"/>
	
		<polygon fill-rule="evenodd" clip-rule="evenodd" stroke="#000000" stroke-width="0" stroke-linecap="square" stroke-miterlimit="10" points="
		210.338,104.129 214.139,104.974 217.097,105.819 219.63,107.086 221.744,108.353 224.277,112.154 225.545,115.956 
		225.968,120.601 226.391,124.825 227.232,128.626 229.346,131.583 234.838,137.918 237.371,141.719 239.062,145.943 
		239.904,150.167 239.481,154.813 238.217,159.458 235.258,164.527 231.879,169.172 228.924,172.552 226.81,175.085 
		225.122,177.197 223.854,180.154 223.854,183.533 224.277,185.222 223.854,186.067 220.476,186.067 218.785,186.912 
		217.097,188.601 212.873,190.291 212.027,191.558 211.605,192.403 210.761,191.558 209.494,189.868 208.648,187.334 
		208.226,186.49 207.804,186.067 206.959,186.912 205.691,188.179 203.58,188.179 201.891,187.334 200.623,186.067 200.2,183.955 
		200.2,181.421 200.2,180.577 200.623,180.577 201.891,181.421 202.735,182.266 202.735,178.887 202.735,173.396 203.58,169.595 
		204.847,167.483 206.114,166.639 206.959,167.061 207.382,168.328 207.382,170.44 208.226,172.552 209.071,173.819 
		209.916,173.819 210.338,172.129 210.338,168.75 210.338,167.483 210.761,167.061 211.605,168.328 212.45,169.172 213.294,168.75 
		213.717,167.483 214.139,166.216 214.984,165.794 216.251,166.639 217.521,167.061 217.939,166.639 218.362,164.527 
		218.362,159.458 217.521,156.08 216.674,153.968 216.251,153.123 217.097,153.545 218.362,154.813 219.63,156.924 220.476,159.458 
		220.898,162.415 221.744,164.949 222.586,166.639 224.277,167.483 225.968,167.483 227.655,166.639 229.346,164.104 
		229.769,161.993 229.769,159.458 229.769,156.502 230.614,157.346 231.033,159.036 231.879,159.036 232.302,157.769 
		233.147,156.08 233.992,155.657 235.68,155.234 236.525,153.968 236.103,152.278 235.68,149.744 233.992,144.254 232.725,140.875 
		231.456,138.763 231.033,137.496 230.191,136.651 229.769,136.229 230.191,138.341 230.614,141.296 231.033,145.098 
		231.033,146.365 230.191,145.098 228.501,142.142 225.968,139.185 224.699,138.341 223.854,138.763 223.432,140.875 
		223.854,143.832 224.277,145.098 224.277,145.521 223.432,145.098 222.163,144.254 220.898,141.719 220.053,137.918 
		219.208,134.117 217.521,131.161 215.829,128.626 214.562,125.669 214.562,124.403 215.406,125.669 217.097,128.204 
		218.785,129.471 220.053,129.049 219.63,126.937 218.785,124.403 218.362,122.291 218.362,121.869 218.362,122.291 
		220.898,126.514 222.163,127.782 223.432,126.937 223.854,124.403 223.854,121.024 222.163,118.49 219.63,115.111 215.829,111.31 
		212.873,107.509 211.605,106.241 211.183,104.974 210.338,104.129 	"/>
	
		<polygon fill-rule="evenodd" clip-rule="evenodd" stroke="#000000" stroke-width="0" stroke-linecap="square" stroke-miterlimit="10" points="
		267.783,165.794 269.052,162.837 269.894,161.147 270.739,160.303 272.853,158.191 274.963,156.924 276.653,156.08 
		278.764,153.968 280.877,152.278 282.987,151.856 285.523,151.856 288.479,151.434 291.016,150.589 292.703,150.167 
		293.972,150.167 295.659,151.011 296.927,153.123 297.35,155.657 296.927,158.191 296.082,159.881 295.659,161.147 
		296.082,162.837 296.082,164.527 295.659,166.216 293.972,167.906 291.016,169.595 289.748,170.017 289.325,170.44 
		289.325,172.552 288.902,175.508 289.748,178.465 290.17,180.154 289.748,181.421 288.479,182.688 287.634,183.533 
		286.369,183.533 286.369,182.266 286.369,180.577 285.946,179.309 284.679,178.042 283.41,177.62 281.723,176.775 280.877,174.241 
		280.032,172.129 279.609,170.862 278.341,170.44 275.809,170.862 274.963,171.707 273.275,173.396 271.584,174.663 
		269.894,175.085 267.36,175.085 266.515,173.396 267.36,172.129 268.629,170.44 270.316,168.75 270.739,167.483 271.161,166.639 
		272.853,167.483 272.853,168.75 273.275,169.595 274.963,169.172 277.922,167.906 281.3,167.061 282.568,166.639 283.833,165.372 
		286.369,163.259 287.211,162.415 286.792,161.147 286.369,157.769 285.946,156.924 284.679,157.346 281.723,157.769 
		279.187,159.036 277.922,159.881 277.499,161.57 277.076,162.837 276.23,163.259 274.963,164.527 274.54,165.372 273.698,164.949 
		272.43,164.949 270.739,165.372 267.783,165.794 	"/>
	
		<polygon fill-rule="evenodd" clip-rule="evenodd" stroke="#000000" stroke-width="0" stroke-linecap="square" stroke-miterlimit="10" points="
		275.809,176.353 277.499,177.197 280.032,178.042 282.146,178.465 282.987,178.465 283.41,179.732 282.568,180.999 
		280.877,180.999 278.764,180.154 276.653,178.887 275.386,178.042 275.809,176.353 	"/>
	
		<polygon fill-rule="evenodd" clip-rule="evenodd" stroke="#000000" stroke-width="0" stroke-linecap="square" stroke-miterlimit="10" points="
		167.676,204.65 165.987,201.272 164.72,197.893 164.72,194.514 165.987,191.135 167.254,188.601 169.789,186.067 172.746,184.799 
		176.547,184.799 180.349,185.645 183.728,186.912 186.685,188.601 189.218,190.712 190.485,192.403 191.753,194.514 
		191.753,196.204 191.331,197.893 186.262,203.806 184.572,206.762 184.15,208.875 184.994,209.297 185.84,208.875 188.374,207.185 
		190.485,205.073 191.331,202.961 192.175,202.117 193.443,202.117 193.865,202.539 193.865,203.806 193.443,205.495 
		192.175,208.03 191.331,210.563 191.753,212.675 195.132,215.632 198.088,218.166 198.511,219.855 197.667,221.545 
		195.977,223.234 194.709,223.657 193.02,223.657 192.175,222.812 190.063,220.277 188.796,217.744 188.374,215.632 
		187.952,214.365 186.262,213.943 183.305,213.52 181.193,213.098 179.926,211.831 178.659,210.142 178.237,208.452 
		178.659,203.806 179.926,202.117 181.615,200.427 183.305,199.16 184.994,198.315 186.685,197.048 186.262,195.781 
		184.994,194.937 183.305,193.669 179.926,191.98 176.547,190.712 173.59,190.712 171.479,191.558 169.789,193.247 168.944,195.359 
		168.522,197.893 169.789,203.384 167.676,204.65 	"/>
	
		<polygon fill-rule="evenodd" clip-rule="evenodd" stroke="#000000" stroke-width="0" stroke-linecap="square" stroke-miterlimit="10" points="
		175.702,214.365 177.391,215.21 179.082,216.899 185.84,225.346 187.529,227.036 189.218,227.88 190.485,228.725 191.331,229.57 
		191.753,232.104 191.331,234.215 190.485,234.638 190.063,234.215 188.796,232.949 187.529,230.837 183.728,225.769 
		179.503,220.277 178.237,218.166 176.969,216.899 175.702,214.365 	"/>
	
		<polygon fill-rule="evenodd" clip-rule="evenodd" fill="#FFFFFF" stroke="#000000" stroke-width="0" stroke-linecap="square" stroke-miterlimit="10" points="
		152.048,196.204 149.937,202.117 147.825,206.339 144.868,209.719 141.066,212.252 139.799,213.098 139.377,213.52 141.066,213.52 
		144.022,212.675 146.98,210.563 147.825,209.719 148.669,209.719 149.092,211.408 147.402,217.321 147.402,218.166 
		147.825,218.166 148.247,217.744 149.514,216.055 150.359,213.098 151.625,209.297 152.048,204.229 152.471,197.893 
		152.048,196.204 	"/>
	
		<polygon fill-rule="evenodd" clip-rule="evenodd" fill="#FFFFFF" stroke="#000000" stroke-width="0" stroke-linecap="square" stroke-miterlimit="10" points="
		153.316,212.675 152.893,215.21 151.625,217.744 148.247,222.39 144.445,225.346 143.178,226.19 142.755,226.613 143.178,226.613 
		144.868,226.19 148.669,224.924 149.092,224.924 149.514,225.346 149.092,227.036 146.557,231.682 146.135,232.104 146.98,231.682 
		147.825,230.415 149.514,228.725 150.781,226.613 152.471,223.657 153.316,220.277 153.738,216.055 153.316,212.675 	"/>
	
		<polygon fill-rule="evenodd" clip-rule="evenodd" fill="#FFFFFF" stroke="#000000" stroke-width="0" stroke-linecap="square" stroke-miterlimit="10" points="
		161.763,220.7 161.763,224.924 160.919,231.259 160.496,238.017 160.496,244.352 160.496,246.886 159.651,248.998 157.117,251.955 
		154.16,253.644 153.316,254.066 152.893,254.066 153.738,253.222 155.85,250.688 157.54,246.886 157.961,244.352 157.961,241.818 
		157.117,237.172 156.272,233.371 157.117,229.992 157.961,227.88 159.651,225.769 161.763,220.7 	"/>
	
		<polygon fill-rule="evenodd" clip-rule="evenodd" fill="#FFFFFF" stroke="#000000" stroke-width="0" stroke-linecap="square" stroke-miterlimit="10" points="
		144.022,200.005 143.178,202.117 141.489,204.229 136.419,208.03 129.662,210.563 125.86,210.986 122.481,210.563 121.213,210.142 
		120.369,210.142 120.369,209.719 122.059,209.297 125.016,208.875 128.816,208.03 133.463,206.762 137.687,205.073 
		141.489,202.117 144.022,200.005 	"/>
	
		<polygon fill-rule="evenodd" clip-rule="evenodd" stroke="#000000" stroke-width="0" stroke-linecap="square" stroke-miterlimit="10" points="
		219.63,205.073 222.163,207.185 223.854,209.297 225.122,213.943 225.122,217.744 224.277,219.855 224.277,220.277 
		225.545,219.855 226.391,219.011 227.655,217.321 228.078,215.21 227.655,212.675 225.545,209.297 221.744,205.918 219.63,205.073 
			"/>
	
		<polygon fill-rule="evenodd" clip-rule="evenodd" stroke="#000000" stroke-width="0" stroke-linecap="square" stroke-miterlimit="10" points="
		229.346,211.408 230.614,213.098 231.033,214.787 230.191,218.588 229.769,220.277 230.191,221.545 231.033,222.39 233.147,222.39 
		233.57,223.657 233.57,225.346 232.725,229.147 231.879,232.104 232.302,232.949 233.147,233.371 234.415,232.526 235.258,230.837 
		236.103,228.302 236.103,225.346 235.258,218.588 233.57,215.21 231.456,212.252 229.346,211.408 	"/>
	
		<polygon fill-rule="evenodd" clip-rule="evenodd" stroke="#000000" stroke-width="0" stroke-linecap="square" stroke-miterlimit="10" points="
		243.286,230.837 244.974,235.483 244.974,240.973 245.396,245.62 246.241,247.73 247.933,249.842 249.197,251.533 249.62,252.799 
		248.774,253.222 247.51,252.799 246.241,251.11 244.974,248.576 244.551,244.775 244.551,239.707 244.128,234.215 243.286,232.104 
		243.286,231.259 243.286,230.837 	"/>
	
		<polygon fill-rule="evenodd" clip-rule="evenodd" stroke="#000000" stroke-width="0" stroke-linecap="square" stroke-miterlimit="10" points="
		249.197,243.93 250.465,249.42 252.998,253.222 256.38,255.333 257.645,255.755 258.913,255.333 259.336,254.911 258.913,254.066 
		257.645,253.222 255.957,252.377 252.156,249.842 250.888,248.153 250.043,245.62 249.197,243.93 	"/>
	
		<polygon fill-rule="evenodd" clip-rule="evenodd" stroke="#000000" stroke-width="0" stroke-linecap="square" stroke-miterlimit="10" points="
		241.172,235.06 240.326,238.439 239.062,241.818 238.217,244.775 238.217,246.464 239.481,247.73 240.326,248.576 240.749,249.42 
		240.749,248.153 240.326,246.464 240.326,243.93 240.749,240.551 241.595,236.327 241.172,235.06 	"/>
	
		<polygon fill-rule="evenodd" clip-rule="evenodd" stroke="#000000" stroke-width="0" stroke-linecap="square" stroke-miterlimit="10" points="
		273.275,263.358 273.698,267.582 273.275,271.383 271.584,273.495 269.894,275.185 269.052,275.606 270.739,275.606 
		272.853,274.34 274.117,272.228 274.54,271.383 274.963,270.961 276.23,272.228 276.653,274.762 276.653,277.295 276.653,278.563 
		277.922,276.874 278.341,273.495 278.341,271.383 277.499,268.849 273.275,263.358 	"/>
	
		<polygon fill-rule="evenodd" clip-rule="evenodd" stroke="#000000" stroke-width="0" stroke-linecap="square" stroke-miterlimit="10" points="
		177.391,113.422 179.926,114.688 182.038,116.8 184.994,121.024 187.106,125.248 187.529,126.514 187.529,126.937 187.529,125.669 
		187.106,122.713 185.417,118.067 183.728,115.533 181.193,113.422 177.391,113.422 	"/>
	
		<polygon fill-rule="evenodd" clip-rule="evenodd" stroke="#000000" stroke-width="0" stroke-linecap="square" stroke-miterlimit="10" points="
		177.814,110.042 182.038,110.887 185.417,112.577 187.952,114.266 189.641,116.8 190.908,121.024 191.331,122.291 191.331,122.713 
		191.753,121.869 192.175,120.179 192.597,117.645 191.753,115.111 191.753,114.688 192.175,114.688 193.443,115.111 
		195.132,116.378 198.088,119.756 199.356,121.869 199.778,124.403 199.778,126.092 200.2,125.669 200.2,121.024 198.933,114.266 
		197.244,111.732 195.132,110.042 190.063,108.353 185.84,107.931 184.15,107.509 183.305,107.931 182.882,107.931 183.728,108.353 
		177.814,110.042 	"/>
	
		<polygon fill-rule="evenodd" clip-rule="evenodd" stroke="#000000" stroke-width="0" stroke-linecap="square" stroke-miterlimit="10" points="
		152.471,262.514 157.54,262.936 163.453,264.625 171.056,266.737 179.082,269.271 197.244,276.451 215.829,284.898 233.57,292.924 
		241.172,296.726 248.352,300.104 254.267,302.637 258.49,304.749 261.445,306.438 262.291,306.861 261.445,306.438 
		259.336,305.171 255.957,303.059 251.311,300.527 245.396,297.569 239.062,294.189 231.456,290.389 223.854,286.166 
		189.218,270.116 171.901,262.936 163.875,259.979 156.272,257.868 152.471,262.514 	"/>
	
		<polygon fill-rule="evenodd" clip-rule="evenodd" fill="#FFFFFF" stroke="#000000" stroke-width="0" stroke-linecap="square" stroke-miterlimit="10" points="
		254.267,326.711 258.067,326.289 261.445,325.022 267.783,321.644 270.739,319.955 273.275,318.687 275.386,318.264 
		277.076,318.687 278.341,319.955 280.455,322.488 283.41,325.868 287.211,330.512 291.436,336.004 296.082,341.916 
		305.375,354.587 314.668,366.836 319.314,372.749 323.115,377.817 326.071,382.041 328.607,385.418 330.295,387.531 
		330.718,388.376 330.295,387.954 328.607,385.841 325.652,383.308 322.27,379.505 318.046,375.284 312.977,370.637 
		301.573,360.078 288.902,349.097 276.23,338.96 270.316,334.737 264.404,331.358 258.913,328.401 254.267,326.711 	"/>
	
		<polygon fill-rule="evenodd" clip-rule="evenodd" fill="#FFFFFF" stroke="#000000" stroke-width="0" stroke-linecap="square" stroke-miterlimit="10" points="
		269.052,318.264 272.007,316.575 274.54,315.731 279.609,315.731 283.41,316.575 285.946,317.42 288.057,317.42 291.436,316.575 
		295.239,315.731 298.618,316.575 302.842,317.42 307.911,317.843 312.558,317.42 314.668,316.575 315.936,315.731 317.201,314.885 
		321.848,314.885 325.652,314.462 327.339,313.619 329.453,311.93 330.718,310.241 331.141,309.395 330.718,309.395 
		329.453,309.818 326.917,310.241 325.652,310.662 325.229,310.241 324.807,309.818 323.538,310.241 320.583,311.507 
		316.358,313.196 311.712,313.196 310.021,312.774 308.753,312.353 308.753,311.507 310.021,311.084 309.176,311.084 
		307.065,311.93 301.996,312.353 301.151,311.93 301.996,311.507 303.688,310.662 304.952,309.395 304.529,308.972 303.265,308.972 
		300.729,309.395 298.195,309.395 297.35,309.395 296.927,308.972 298.195,307.706 300.306,306.017 301.996,303.905 
		302.419,303.059 301.996,303.059 301.151,303.482 299.883,303.905 299.464,303.482 299.464,302.637 299.041,300.104 
		298.618,297.992 297.772,296.303 297.772,295.035 297.772,294.612 297.35,295.035 296.505,300.95 296.927,303.482 296.927,304.749 
		296.082,305.594 294.395,305.594 293.126,303.482 292.703,302.637 292.28,302.637 292.703,303.905 292.703,305.594 
		291.857,306.017 289.325,305.171 287.634,304.328 287.634,305.171 288.057,306.017 288.479,308.128 288.057,310.241 
		286.369,311.084 284.679,309.395 282.987,306.861 282.146,303.482 281.723,302.637 281.723,307.284 282.568,309.395 
		282.987,309.818 282.146,309.818 279.187,308.549 277.499,306.861 276.653,305.171 276.23,304.749 275.809,306.017 276.23,307.706 
		277.076,308.972 277.499,309.395 275.809,308.549 270.316,305.594 269.474,305.171 269.052,305.171 268.629,306.861 
		270.316,310.662 270.739,312.353 269.052,316.575 268.206,318.687 269.052,318.264 	"/>
	
		<polygon fill-rule="evenodd" clip-rule="evenodd" fill="#808080" stroke="#000000" stroke-width="0" stroke-linecap="square" stroke-miterlimit="10" points="
		144.445,270.538 138.109,271.805 133.041,273.917 129.239,276.451 128.395,276.874 127.972,277.295 122.903,307.284 
		123.325,307.284 125.016,308.128 127.55,308.972 130.507,309.818 134.73,311.507 139.377,313.196 150.359,317.42 162.608,322.911 
		176.125,329.668 189.641,336.848 202.735,345.296 208.648,349.52 213.717,353.321 218.362,356.7 222.586,359.657 225.968,362.19 
		231.879,366.414 233.992,368.102 238.217,370.214 241.595,371.904 244.974,372.327 248.774,371.904 252.575,371.06 
		255.957,369.792 261.445,365.991 263.137,363.878 264.404,362.612 264.827,361.346 264.827,360.923 266.092,365.147 
		265.25,365.991 262.714,368.948 260.181,373.171 257.645,378.662 255.957,384.575 256.38,390.911 257.222,394.29 259.336,397.245 
		261.868,400.625 265.67,403.581 269.894,406.115 274.963,408.65 286.369,412.874 299.464,417.095 313.399,422.165 327.762,428.921 
		335.364,433.145 342.547,438.214 349.727,444.127 356.906,451.307 363.666,459.333 370,468.624 370.846,467.357 372.536,464.823 
		376.761,458.91 380.139,453.419 381.407,451.73 381.83,450.884 381.407,450.041 379.716,447.083 377.183,442.86 373.802,436.947 
		369.577,429.767 364.089,421.32 358.597,412.451 352.26,402.737 337.478,382.041 321.425,360.923 304.11,341.072 295.239,331.781 
		285.946,323.756 293.126,332.625 299.883,341.072 305.798,348.674 310.867,355.854 315.514,362.19 319.737,368.102 
		323.538,373.592 326.494,378.239 329.03,382.463 333.254,389.221 334.519,391.754 335.364,393.444 336.21,394.711 336.633,395.555 
		336.633,395.978 335.787,395.134 333.677,392.6 329.453,388.376 324.384,382.886 317.201,376.127 308.753,368.948 299.041,360.5 
		287.211,351.631 274.117,342.338 259.758,333.047 243.708,323.333 225.968,314.042 206.959,305.171 186.685,296.726 164.72,288.7 
		141.066,281.942 143.178,276.029 144.445,273.073 144.868,272.228 144.445,270.538 	"/>
	<polygon fill-rule="evenodd" clip-rule="evenodd" points="280.877,372.327 266.515,393.867 269.894,395.978 284.256,374.438 
		280.877,372.327 	"/>
	<polygon fill-rule="evenodd" clip-rule="evenodd" points="305.375,399.357 302.842,403.581 301.151,406.538 300.306,409.071 
		300.729,409.917 301.996,409.917 304.11,408.65 306.643,406.115 309.599,402.314 312.135,398.09 313.399,395.134 313.399,392.6 
		312.977,391.332 312.135,391.754 310.444,393.023 308.334,395.555 305.375,399.357 	"/>
	
		<polygon fill-rule="evenodd" clip-rule="evenodd" fill="#808080" stroke="#000000" stroke-width="0" stroke-linecap="square" stroke-miterlimit="10" points="
		123.748,311.084 118.257,318.264 111.077,327.134 103.474,336.425 95.448,346.985 87.845,357.122 80.665,367.68 74.751,377.396 
		70.528,386.264 67.148,395.134 64.191,405.27 58.7,426.389 56.166,436.103 54.476,444.127 53.632,447.083 53.21,449.196 
		52.787,450.884 52.787,451.307 52.787,451.73 53.21,452.574 54.054,453.842 55.322,455.954 58.278,461.444 62.502,468.201 
		67.993,476.225 74.751,485.519 82.776,495.233 92.069,505.37 103.051,515.506 114.878,525.22 128.395,534.089 143.601,542.114 
		160.073,548.873 177.814,554.363 187.106,556.052 197.244,557.319 207.382,558.164 217.939,558.586 236.103,557.319 
		252.998,554.786 268.629,550.139 283.41,544.649 296.927,537.89 309.176,530.71 320.583,522.686 330.718,514.661 339.165,506.636 
		347.193,498.611 353.527,491.432 359.02,484.673 362.82,479.183 365.776,474.959 367.89,472.003 368.313,471.158 367.89,470.735 
		367.467,469.469 366.199,467.78 364.089,465.667 359.442,459.333 353.104,452.153 345.503,444.548 336.21,436.947 326.071,430.613 
		315.091,425.543 303.265,421.743 290.593,417.941 278.341,413.294 267.36,408.227 262.714,405.27 258.49,401.891 255.534,398.09 
		252.998,394.29 251.733,389.643 251.733,384.575 252.575,379.084 255.111,373.171 252.156,374.861 249.197,375.705 
		243.286,376.127 237.794,374.861 231.879,371.483 225.545,366.836 218.362,360.923 209.916,354.587 200.623,347.408 
		193.02,342.338 184.572,337.271 174.857,332.202 164.72,327.134 143.601,317.843 133.463,314.042 123.748,311.084 	"/>
	
		<polygon fill-rule="evenodd" clip-rule="evenodd" stroke="#000000" stroke-width="0" stroke-linecap="square" stroke-miterlimit="10" points="
		159.651,387.954 164.72,388.799 170.211,390.488 175.702,393.444 180.771,396.824 190.908,405.692 200.2,415.83 207.804,426.389 
		214.139,436.526 216.674,441.17 218.362,444.971 219.208,447.929 219.63,450.463 224.277,456.375 227.655,463.556 230.191,471.158 
		231.879,479.183 233.147,485.942 233.57,491.854 233.992,496.077 233.992,497.344 234.838,498.188 236.525,499.877 
		238.639,502.834 241.172,506.636 243.286,510.86 244.551,514.661 244.974,518.885 243.708,522.263 242.863,523.53 241.595,523.953 
		239.904,523.53 238.217,520.997 236.525,517.196 234.415,512.126 231.879,506.636 228.501,500.723 224.277,495.656 
		220.053,491.009 216.674,487.63 214.139,485.096 212.45,482.984 209.916,480.027 209.494,477.071 208.648,474.116 207.382,471.158 
		205.691,467.78 205.27,464.823 205.691,463.979 206.959,464.4 209.494,466.511 212.873,469.469 214.139,470.735 214.984,471.158 
		216.251,472.003 218.362,474.959 220.898,478.76 225.968,487.208 228.078,491.009 229.769,493.964 230.191,494.81 230.191,493.964 
		230.614,491.854 230.614,488.474 229.769,483.83 228.078,478.337 225.122,471.581 220.053,464.4 216.674,460.598 212.873,456.375 
		209.494,452.997 207.382,451.307 206.114,450.041 206.536,450.041 207.804,450.463 211.183,451.307 214.984,452.574 
		217.939,454.686 219.63,457.22 220.476,458.066 220.053,457.22 219.208,455.531 217.521,452.997 215.406,449.618 209.494,443.282 
		206.114,440.327 201.891,438.637 198.511,437.37 196.821,436.103 196.399,434.414 196.399,433.145 197.244,429.767 
		197.244,427.655 196.399,425.543 194.709,423.008 192.175,419.63 185.84,412.451 179.926,406.115 177.814,403.581 176.547,401.891 
		175.279,400.625 172.746,398.936 161.763,392.177 160.073,390.488 159.229,389.221 159.651,387.954 	"/>
	<polygon fill-rule="evenodd" clip-rule="evenodd" points="337.055,475.804 339.588,479.606 342.547,482.561 345.926,484.25 
		348.881,483.83 351.837,481.717 353.527,478.337 353.95,474.537 352.683,469.891 352.683,473.693 352.26,476.648 351.418,478.76 
		350.149,480.027 348.881,480.45 347.193,480.45 343.812,479.183 340.856,476.225 339.165,472.003 338.742,466.934 339.588,464.4 
		340.856,461.867 338.323,463.979 336.633,467.357 336.21,471.581 337.055,475.804 	"/>
	<polygon fill-rule="evenodd" clip-rule="evenodd" points="322.27,438.637 324.384,442.438 327.339,445.394 330.718,446.661 
		334.1,446.661 336.633,444.971 338.323,442.438 338.742,439.481 337.9,435.257 337.478,437.792 336.633,439.904 334.519,442.438 
		331.563,442.86 328.607,442.016 326.071,439.904 324.384,436.526 323.961,431.879 325.652,427.233 323.115,428.921 
		321.848,431.457 321.425,434.414 322.27,438.637 	"/>
	
		<polygon fill-rule="evenodd" clip-rule="evenodd" stroke="#000000" stroke-width="0" stroke-linecap="square" stroke-miterlimit="10" points="
		240.326,349.097 240.326,355.433 231.879,356.7 239.904,360.078 239.904,366.414 245.396,361.767 252.998,364.301 248.774,358.388 
		252.575,353.321 244.974,354.587 240.326,349.097 	"/>
	<polygon fill-rule="evenodd" clip-rule="evenodd" fill="#808080" points="241.172,346.985 241.595,355.433 233.992,356.277 
		240.749,357.965 240.749,364.301 246.241,359.657 251.733,361.767 247.933,357.544 253.844,351.208 246.241,352.475 
		241.172,346.985 	"/>
	
		<polygon fill-rule="evenodd" clip-rule="evenodd" stroke="#000000" stroke-width="0" stroke-linecap="square" stroke-miterlimit="10" points="
		217.521,330.935 217.521,337.271 209.071,338.538 217.097,341.916 217.097,347.831 222.586,343.184 230.191,345.718 
		225.968,340.227 229.769,335.159 222.163,336.425 217.521,330.935 	"/>
	<polygon fill-rule="evenodd" clip-rule="evenodd" fill="#808080" points="218.362,328.824 218.785,337.271 211.183,338.115 
		217.939,339.805 217.939,346.139 223.432,341.072 228.924,343.184 225.122,339.383 231.033,333.047 223.432,334.314 
		218.362,328.824 	"/>
	
		<polygon fill-rule="evenodd" clip-rule="evenodd" stroke="#000000" stroke-width="0" stroke-linecap="square" stroke-miterlimit="10" points="
		190.485,314.885 190.485,321.221 182.038,322.488 190.063,325.868 190.063,331.781 195.132,327.134 203.157,329.668 
		198.511,324.178 202.735,319.109 195.132,320.375 190.485,314.885 	"/>
	<polygon fill-rule="evenodd" clip-rule="evenodd" fill="#808080" points="191.331,312.774 191.753,321.221 184.15,322.067 
		190.908,323.756 190.908,330.09 196.399,325.022 201.891,327.134 197.667,323.333 203.58,316.998 195.977,318.264 191.331,312.774 
			"/>
	<path fill-rule="evenodd" clip-rule="evenodd" d="M4.212,283.209l0.844,27.875L6.324,324.6l4.224,26.187l2.535,13.092l3.379,12.672
		l3.378,12.249l4.225,12.248l4.224,11.403l5.068,11.826l5.069,10.98l5.491,10.56l5.914,10.558l6.335,10.137l13.516,18.585
		l7.603,8.868l7.603,8.448l7.603,7.602l16.896,14.361l8.448,6.335l8.87,5.913l9.293,5.067l9.292,4.647l9.715,4.224l9.715,3.378
		l10.138,2.957l10.137,2.533l10.138,1.689l10.56,0.846l10.56,0.422l10.559-0.422l10.562-0.846l10.139-1.689l10.135-2.533
		l10.139-2.957l9.716-3.378l9.712-4.224l9.294-4.647l9.293-5.067l8.87-5.913l8.447-6.335l16.896-14.361l7.603-7.602l7.605-8.448
		l7.602-8.868l13.518-18.585l6.334-10.137l5.914-10.558l5.492-10.56l5.066-10.98l5.069-11.826l4.224-11.403l4.224-12.248
		l3.382-12.249l3.378-12.672l2.533-13.092l4.224-26.187l1.269-13.516l0.846-27.875l-0.846-27.876l-1.269-13.516l-4.224-26.186
		l-2.533-13.093l-3.378-12.671l-3.382-12.248l-4.224-12.249l-4.224-11.403l-5.069-11.826l-5.066-10.981l-5.492-10.56l-5.914-10.559
		l-6.334-10.137L362.82,81.322l-7.602-8.87l-7.605-8.447l-7.603-7.603l-16.896-14.36l-8.447-6.335l-8.87-5.913l-9.293-5.069
		l-9.294-4.646l-9.712-4.223l-9.716-3.379l-10.139-2.957L247.51,6.987l-10.139-1.689L226.81,4.453l-10.559-0.422l-10.56,0.422
		l-10.56,0.845l-10.138,1.689l-10.137,2.535l-10.138,2.957l-9.715,3.379l-9.715,4.223l-9.292,4.646l-9.293,5.069l-8.87,5.913
		l-8.448,6.335l-16.896,14.36l-7.603,7.603l-7.603,8.447l-7.603,8.87L56.166,99.906l-6.335,10.137l-5.914,10.559l-5.491,10.56
		l-5.069,10.981l-5.068,11.826l-4.224,11.403L19.84,177.62l-3.378,12.248l-3.379,12.671l-2.535,13.093l-4.224,26.186l-1.268,13.516
		L4.212,283.209L4.212,283.209z M10.548,283.209l0.845,27.031l1.268,13.093l1.69,13.092l2.112,12.672l2.957,12.67l2.957,12.248
		l3.379,12.249l3.801,11.826l4.225,11.403l4.646,10.982l5.068,10.98l5.491,10.56l5.914,10.137l5.913,9.714l6.758,9.291
		l13.517,17.739l7.603,8.025l7.603,7.602l8.025,7.18l8.025,6.759l8.448,6.335l8.871,5.49l8.869,5.068l8.871,4.646l9.293,4.224
		l9.715,3.378l9.715,2.958l9.715,2.111l10.137,1.689l10.138,0.844l10.137,0.423l10.14-0.423l10.135-0.844l10.139-1.689l9.716-2.111
		l9.712-2.958l9.717-3.378l9.293-4.224l8.87-4.646l8.87-5.068l8.87-5.49l8.448-6.335l8.024-6.759l8.025-7.18l7.602-7.602
		l7.606-8.025l13.513-17.739l6.761-9.291l5.911-9.714l5.914-10.137l5.492-10.56l5.069-10.98l4.646-10.982l4.224-11.403l3.802-11.826
		l3.378-12.249l2.956-12.248l2.959-12.67l2.11-12.672l1.69-13.092l1.265-13.093l0.846-27.031l-0.846-27.031l-1.265-13.093
		l-1.69-13.093l-2.11-12.671l-2.959-12.67l-2.956-12.248l-3.378-12.249l-3.802-11.826l-4.224-11.404l-4.646-10.98l-5.069-10.981
		l-5.492-10.559l-5.914-10.137l-5.911-9.714l-6.761-9.292l-13.513-17.739l-7.606-8.025l-7.602-7.602l-8.025-7.181l-8.024-6.757
		l-8.448-6.335l-8.87-5.491l-8.87-5.068l-8.87-4.646l-9.293-4.224l-9.717-3.379l-9.712-2.956l-9.716-2.112l-10.139-1.689
		l-10.135-0.846l-10.14-0.422l-10.137,0.422l-10.138,0.846l-10.137,1.689l-9.715,2.112l-9.715,2.956l-9.715,3.379l-9.293,4.224
		l-8.871,4.646l-8.869,5.068l-8.871,5.491l-8.448,6.335l-8.025,6.757l-8.025,7.181l-7.603,7.602l-7.603,8.025L67.57,95.26
		l-6.758,9.292l-5.913,9.714l-5.914,10.137l-5.491,10.559l-5.068,10.981l-4.646,10.98l-4.225,11.404l-3.801,11.826l-3.379,12.249
		l-2.957,12.248l-2.957,12.67l-2.112,12.671l-1.69,13.093l-1.268,13.093L10.548,283.209L10.548,283.209z"/>
	<g id="text">
		<path d="M40.968,576.277c2.326,0,4.049,0.443,5.341,1.141c1.163,0.665,2.197,1.773,2.197,2.313c0,0.792-0.775,1.425-2.111,1.425
			c-1.12,0-1.723-0.475-2.067-1.33c-0.258-0.475-1.464-1.014-3.662-1.014c-1.723,0-3.833,0.539-6.418,1.933
			c-3.188,1.742-6.332,4.403-6.332,8.806c0,3.929,2.67,5.829,5.858,5.829c2.369,0,5.772-0.823,7.711-2.218
			c2.843-1.932,4.264-4.022,4.264-5.227c-1.12,0.254-5.729,0.982-7.107,0.982c-0.775,0-1.594-0.412-1.594-1.268
			c0-0.76,0.646-1.426,1.938-1.426c3.489,0,8.098-1.108,9.304-1.108c1.249,0,1.853,0.602,1.853,1.457
			c0,2.788-4.179,11.309-16.8,11.341c-6.289,0-9.649-3.39-9.649-8.363c0-4.814,3.877-8.521,8.271-10.77
			c3.231-1.647,6.461-2.503,8.96-2.503H40.968z"/>
		<path d="M63.457,583.278c4.868,0,6.289,2.66,6.289,3.896c0,1.425-1.335,2.724-11.329,4.022l-1.981,0.254
			c-0.215,0.507-0.301,1.077-0.301,1.71c0,1.584,1.12,2.218,2.972,2.218c2.972,0,5.471-1.268,6.246-2.122
			c-0.129-0.729,0.732-1.395,2.154-1.395c1.594,0,1.938,0.761,1.938,1.395c0,0.887-3.748,4.593-10.812,4.593
			c-3.661,0-6.461-1.141-6.461-4.435c0-5.893,5.643-10.137,11.243-10.137H63.457z M63.284,585.685c-2.455,0-4.781,1.457-6.074,3.517
			c7.625-0.982,8.701-1.458,8.701-1.901c0-0.76-0.732-1.615-2.584-1.615H63.284z"/>
		<path d="M77.802,595.6c0.215,0.222,0.302,0.412,0.302,0.76c0,0.824-1.508,1.141-2.671,1.141c-1.077,0-2.154-0.316-2.154-1.077
			c0-0.38,0.129-0.633,0.517-0.887v-4.941c-0.345-0.158-0.646-0.539-0.646-1.046s0.215-1.045,0.646-1.837v-2.534
			c-0.215-0.285-0.345-0.538-0.345-0.95c0-0.634,1.335-1.299,2.671-1.299c1.637,0,2.111,0.443,2.111,1.108
			c0,0.443-0.259,0.761-0.431,0.982v1.235c4.394-2.692,6.333-3.326,7.883-3.326c1.551,0,3.231,1.077,3.231,2.091v10.326
			c0.086,0.19,0.258,0.381,0.258,0.824c0,0.981-0.861,1.33-2.455,1.33c-1.465,0-2.197-0.443-2.197-1.203
			c0-0.349,0.172-0.57,0.388-0.824v-8.869c0-0.222-0.689-0.603-0.991-0.603c-0.431,0-2.024,0.412-6.117,2.946V595.6z"/>
		<path d="M103.909,583.278c4.868,0,6.289,2.66,6.289,3.896c0,1.425-1.335,2.724-11.329,4.022l-1.981,0.254
			c-0.215,0.507-0.301,1.077-0.301,1.71c0,1.584,1.12,2.218,2.972,2.218c2.972,0,5.471-1.268,6.246-2.122
			c-0.129-0.729,0.732-1.395,2.154-1.395c1.594,0,1.938,0.761,1.938,1.395c0,0.887-3.748,4.593-10.812,4.593
			c-3.661,0-6.461-1.141-6.461-4.435c0-5.893,5.643-10.137,11.243-10.137H103.909z M103.736,585.685
			c-2.455,0-4.781,1.457-6.074,3.517c7.625-0.982,8.701-1.458,8.701-1.901c0-0.76-0.732-1.615-2.584-1.615H103.736z"/>
		<path d="M114.119,585.369l-0.344-0.824c0-0.602,1.12-1.14,2.498-1.14c1.292,0,2.111,0.411,2.111,1.045
			c0,0.222,0.043,0.475-0.258,0.729v1.108h0.043c2.369-1.584,4.824-2.819,6.892-2.819c1.335,0,2.67,0.951,2.67,3.865
			c0,0.887-0.689,1.457-2.153,1.457c-1.25,0-1.982-0.316-1.982-0.855c0-0.285,0.086-0.57,0.216-0.823
			c0-0.381-0.172-0.697-0.517-0.697c-0.689,0-2.972,1.077-5.169,2.978v5.797c0.258,0.19,0.517,0.57,0.517,0.887
			c0,0.951-0.732,1.426-3.058,1.426c-1.378,0-2.024-0.412-2.024-1.235c0-0.316,0.258-0.634,0.56-0.792V585.369z"/>
		<path d="M141.302,586.604c0-0.824-0.431-1.235-1.551-1.235c-2.326,0-4.351,0.602-5.944,1.33c0.129,0.253-0.517,0.887-1.766,0.887
			c-1.077,0-1.809-0.855-1.809-1.488c0-0.603,1.034-1.426,1.938-1.299c2.24-1.014,5.212-1.711,9.089-1.711
			c2.197,0,3.92,1.046,3.92,2.819v9.725c0.215,0.096,0.344,0.443,0.344,0.729c0,0.982-1.507,1.173-2.843,1.173
			c-1.421,0-1.809-0.476-1.809-0.982c0-0.285,0.172-0.538,0.344-0.76v-1.426h-0.086c-3.059,2.439-6.031,3.548-9.606,3.548
			c-2.197,0-3.963-0.919-3.963-2.534c0-2.788,4.695-6.399,13.741-7.159V586.604z M141.216,590.183
			c-5.729,0.507-9.692,3.041-9.692,4.467c0,0.57,0.603,0.729,1.421,0.729c3.188,0,8.271-2.756,8.271-4.182V590.183z"/>
		<path d="M150.608,579.35c-0.172-0.285-0.431-0.697-0.431-1.077c0-1.362,0.517-1.711,2.628-1.711c1.163,0,2.455,0.538,2.455,1.489
			c0,0.569-0.258,1.014-0.646,1.394v15.775c0.474,0.285,0.689,0.602,0.689,0.95c0,0.538-1.077,1.33-2.584,1.33
			c-1.335,0-2.499-0.538-2.499-1.552c0-0.285,0.172-0.539,0.388-0.824V579.35z"/>
		<path d="M167.625,595.822c0-0.316,0.345-0.761,0.56-1.014v-12.228c-0.129,0.063-0.215,0.063-0.388,0.063
			c-0.431,0-0.948-0.38-0.948-1.204c0-1.076,0.603-1.584,1.335-1.773v-0.665c-0.129-0.222-0.302-0.603-0.302-0.919
			c0-0.919,1.206-1.489,2.456-1.489c1.335,0,2.369,0.761,1.895,1.838v0.316c3.662-1.203,7.107-1.773,10.554-1.773
			c3.489,0,5.987,1.203,5.987,3.294c0,3.199-4.824,5.797-13.569,6.906l13.957,7.412c1.422-0.38,2.8,0.507,2.8,1.267
			c0,1.235-1.335,1.869-2.584,1.869c-0.818,0-1.637-0.285-2.024-0.823l-15.12-8.142v6.178c0.129,0.189,0.388,0.602,0.388,0.981
			c0,1.235-1.507,1.584-2.972,1.584c-1.421,0-2.024-0.823-2.024-1.647V595.822z M172.233,585.622
			c6.72-1.045,12.233-2.629,12.233-4.91c0-0.76-1.077-1.235-2.8-1.235c-2.412,0-5.772,0.443-9.434,1.711V585.622z"/>
		<path d="M204.931,583.151c5.298,0,6.547,3.706,6.547,5.987c0,2.66-2.283,5.005-3.316,5.765c-3.317,2.408-5.428,3.01-9.219,3.01
			c-2.412,0-5.944-1.489-5.944-5.037c0-5.606,5.428-9.725,11.889-9.725H204.931z M204.112,585.622c-3.489,0-7.064,3.199-7.064,6.779
			c0,1.837,1.292,3.041,2.843,3.041c1.896,0,3.402-0.539,4.953-1.647c1.638-1.172,2.585-2.819,2.585-4.498
			c0-2.06-0.861-3.675-3.273-3.675H204.112z"/>
		<path d="M219.578,586.065l0.086,0.063c2.154-1.362,5.385-2.598,8.874-2.598c2.541,0,4.178,0.982,4.178,3.231
			c0,4.403-7.883,11.023-15.421,11.023c-1.594,0-2.412-0.349-2.412-1.299c0-0.38,0.345-0.918,0.689-1.077v-16.567
			c-0.388-0.38-0.561-0.76-0.561-1.172c0-0.792,1.896-1.14,2.93-1.14c0.99,0,1.981,0.253,1.981,1.172
			c0,0.285-0.129,0.602-0.345,0.855V586.065z M219.578,594.903c4.308-1.077,9.046-4.371,9.046-7.982
			c0-0.792-1.422-0.887-1.896-0.887c-1.68,0-4.695,0.887-7.15,2.724V594.903z"/>
		<path d="M245.942,583.278c4.867,0,6.289,2.66,6.289,3.896c0,1.425-1.335,2.724-11.329,4.022l-1.981,0.254
			c-0.215,0.507-0.302,1.077-0.302,1.71c0,1.584,1.12,2.218,2.973,2.218c2.972,0,5.471-1.268,6.246-2.122
			c-0.13-0.729,0.732-1.395,2.153-1.395c1.594,0,1.938,0.761,1.938,1.395c0,0.887-3.747,4.593-10.812,4.593
			c-3.662,0-6.462-1.141-6.462-4.435c0-5.893,5.644-10.137,11.243-10.137H245.942z M245.771,585.685
			c-2.456,0-4.782,1.457-6.074,3.517c7.624-0.982,8.701-1.458,8.701-1.901c0-0.76-0.732-1.615-2.584-1.615H245.771z"/>
		<path d="M256.153,585.369l-0.345-0.824c0-0.602,1.12-1.14,2.498-1.14c1.292,0,2.11,0.411,2.11,1.045
			c0,0.222,0.044,0.475-0.258,0.729v1.108h0.043c2.369-1.584,4.824-2.819,6.892-2.819c1.336,0,2.671,0.951,2.671,3.865
			c0,0.887-0.689,1.457-2.153,1.457c-1.249,0-1.981-0.316-1.981-0.855c0-0.285,0.086-0.57,0.215-0.823
			c0-0.381-0.172-0.697-0.517-0.697c-0.689,0-2.973,1.077-5.169,2.978v5.797c0.258,0.19,0.517,0.57,0.517,0.887
			c0,0.951-0.732,1.426-3.059,1.426c-1.378,0-2.024-0.412-2.024-1.235c0-0.316,0.259-0.634,0.561-0.792V585.369z"/>
		<path d="M275.539,581.25c-0.173-0.158-0.259-0.285-0.259-0.792c0-0.855,1.12-1.108,2.714-1.141c0.904,0,1.938,0.158,1.938,0.982
			c0,0.222-0.129,0.538-0.388,0.76v1.964l5.385-0.633c0.215-0.159,0.474-0.254,0.818-0.254c1.077,0,1.594,0.634,1.594,1.268
			c0,1.014-0.604,1.52-1.465,1.52c-0.302,0-0.603-0.031-0.732-0.158l-5.6,0.697v8.553c0,0.507,0.216,0.887,0.732,0.887
			c0.861,0,4.222-1.394,5.987-2.978c-0.043-0.729,0.604-1.267,1.637-1.267c1.724,0,2.197,0.633,2.197,1.521
			c0,1.235-7.323,5.575-11.2,5.575c-2.11,0-3.359-1.141-3.359-2.661v-9.155l-2.8,0.317c-0.216,0.158-0.474,0.253-0.861,0.285
			c-1.034-0.032-1.724-0.539-1.724-1.489c0-0.792,0.775-1.33,1.724-1.33c0.301,0,0.603,0.063,0.731,0.158l2.93-0.349V581.25z"/>
		<path d="M305.306,594.713l11.889-0.634c0.345-0.254,0.818-0.443,1.379-0.443c1.465,0,2.412,0.792,2.412,1.488
			c0,1.362-1.206,1.616-3.489,1.616l-12.147,0.633c-0.345,0.285-1.206,0.539-2.455,0.539c-1.206,0-2.283-0.539-2.283-1.615
			c0-0.539,0.259-1.046,0.561-1.426v-5.924c-0.518-0.349-0.775-0.855-0.775-1.457s0.431-1.204,0.775-1.457v-5.068
			c-0.646-0.254-0.905-0.729-0.905-1.235c0-0.603,0.259-1.014,0.646-1.235c-0.172-0.127-0.216-0.317-0.216-0.507
			c0-0.665,1.077-1.141,2.413-1.141c1.421,0,2.196,0.507,2.196,1.172l10.252-0.665c0.431-0.222,1.077-0.476,1.594-0.476
			c1.637,0,2.455,0.697,2.455,1.458c0,1.108-0.99,1.868-2.498,1.868c-0.56,0-0.99-0.095-1.465-0.253l-10.338,0.665v5.321l8.228-0.76
			c0.431-0.222,0.991-0.443,1.551-0.443c1.422,0,2.369,0.823,2.369,1.647c0,1.108-0.947,1.615-2.541,1.615
			c-0.345,0-0.689-0.095-0.991-0.222l-8.615,0.792V594.713z"/>
		<path d="M326.286,597.596c-0.905,0-2.068-0.603-2.068-1.901c0-0.95,0.948-2.122,2.671-2.122c1.206,0,2.067,0.538,2.067,1.9
			c0,1.046-0.731,2.123-2.627,2.123H326.286z"/>
		<path d="M346.662,594.935l8.185-0.761c0.345-0.189,1.12-0.443,1.508-0.443c0.775,0,1.938,0.38,1.938,1.426
			c0,1.203-0.905,1.773-1.767,1.773c-0.345,0-0.861-0.063-1.249-0.158l-9.046,0.855c-0.431,0.063-1.249,0.19-1.853,0.19
			c-1.464,0-2.455-0.476-2.455-1.458c0-0.538,0.259-0.918,0.604-1.108v-15.743c-0.13-0.19-0.345-0.539-0.345-0.855
			c0-1.299,1.335-1.742,2.584-1.742c1.12,0,2.326,0.38,2.326,1.679c0,0.316-0.259,0.665-0.431,0.919V594.935z"/>
		<path d="M371.218,583.278c4.867,0,6.289,2.66,6.289,3.896c0,1.425-1.335,2.724-11.329,4.022l-1.981,0.254
			c-0.215,0.507-0.302,1.077-0.302,1.71c0,1.584,1.12,2.218,2.973,2.218c2.972,0,5.471-1.268,6.246-2.122
			c-0.13-0.729,0.732-1.395,2.153-1.395c1.594,0,1.938,0.761,1.938,1.395c0,0.887-3.747,4.593-10.812,4.593
			c-3.662,0-6.462-1.141-6.462-4.435c0-5.893,5.644-10.137,11.243-10.137H371.218z M371.046,585.685
			c-2.456,0-4.782,1.457-6.074,3.517c7.624-0.982,8.701-1.458,8.701-1.901c0-0.76-0.732-1.615-2.584-1.615H371.046z"/>
		<path d="M391.379,583.278c4.867,0,6.289,2.66,6.289,3.896c0,1.425-1.335,2.724-11.329,4.022l-1.981,0.254
			c-0.215,0.507-0.302,1.077-0.302,1.71c0,1.584,1.12,2.218,2.973,2.218c2.972,0,5.471-1.268,6.246-2.122
			c-0.13-0.729,0.732-1.395,2.153-1.395c1.594,0,1.938,0.761,1.938,1.395c0,0.887-3.747,4.593-10.812,4.593
			c-3.662,0-6.462-1.141-6.462-4.435c0-5.893,5.644-10.137,11.243-10.137H391.379z M391.206,585.685
			c-2.455,0-4.781,1.457-6.073,3.517c7.624-0.982,8.701-1.458,8.701-1.901c0-0.76-0.732-1.615-2.584-1.615H391.206z"/>
	</g>
</g>
</svg>
