<?xml version="1.0" encoding="utf-8"?>

<!DOCTYPE svg PUBLIC "-//W3C//DTD SVG 1.1//EN" "http://www.w3.org/Graphics/SVG/1.1/DTD/svg11.dtd">
<svg version="1.1" id="Layer_1" xmlns="http://www.w3.org/2000/svg" xmlns:xlink="http://www.w3.org/1999/xlink" x="0px" y="0px"
	 viewBox="0 0 1920 1920" enable-background="new 0 0 1920 1920" xml:space="preserve">
<g>
	<path fill="#4FCAF4" d="M920.5,75.72c8.81-0.8,17.71,0.46,26.49-0.89c8.66-0.29,17.39-0.49,26.02,0.57
		c30.73-0.03,61.4299,2.45,91.9399,6.05c94.0601,11.36,186.25,38.05,271.8,78.8c15.2,7.74,30.65,15.01,45.5601,23.33
		c66.86,36.8,129,82.2,184.21,134.89c7.5499,7.84,16.28,14.48,23.1699,22.96c54.3301,55.38,101.0701,118.2,139.04,185.85
		c64.12,114.21,102.09,242.99,110.2001,373.72c2.0599,25.61,1.6599,51.32,1.7,77c-1.91,83.99-15.47,167.8199-40.98,247.92
		c-39.9501,126.36-109.05,243.34-200.2101,339.5c-86,91.1599-191.6799,163.7999-307.7699,211.14
		C1213.23,1808.74,1130.05,1829.22,1045.7,1837.63c-14.86,1.27-29.72,2.79-44.64,3.08c-7.62,1.17-15.33,0.3301-22.97,1.02
		c-7.34,0.53-14.7,0.2001-22.04,0.23c-6.94-0.1599-13.89,0.52-20.8-0.2999c-77.18-1.8201-154.2-13.79-228.3-35.61
		c-133.29-39.1901-256.94-110.64-357.56-206.42c-8.2-7.16-15.51-15.25-23.32-22.8199c-52.68-53.88-98.57-114.4601-136.04-179.8701
		c-40.93-71.49-71.77-148.7599-91.22-228.8099c-12.89-53.15-20.84-107.5-23.69-162.1c-1.43-19.97-0.81-40.01-0.94-60.01
		c-0.32-18.06,0.97-36.06,2.13-54.06c5.7-77.34,21.66-153.94,47.41-227.09c25.87-73.42,61.5-143.41,105.75-207.46
		c29.38-42.81,62.81-82.78,99.07-119.9c55.94-56.28,119.16-105.41,187.96-145c68.94-39.76,143.33-70.11,220.43-89.85
		C796.93,87.17,858.61,78.29,920.5,75.72 M883.53,272.57c0,0.22,0.0099,0.65,0.02,0.86c-6.5,0-12.53,2.82-18.97,3.2
		c-0.02,0.19-0.06,0.58-0.08,0.77c-12.41,2.23-24.05,7.35-35.95,11.3c-0.02,0.15-0.06,0.44-0.07,0.59
		c-11.83,4.09-22.73,10.41-33.67,16.41c-16.05,9.5-31.12,20.67-44.88,33.26c-8.68,9.03-18.21,17.31-25.86,27.28
		c-21.93,26.44-38.45,57.23-48.86,89.95c-1.11,3.58-2.03,7.22-3.05,10.83c-1.66,5.94-3.27,11.95-3.93,18.09l-0.48,0.82
		c-0.17,1.35-0.31,2.7-0.49,4.05c-2.1,8.51-1.57,17.36-3.4,25.92c-0.64,18.33-1.11,36.83,1.66,55.03
		c0.45,5.06,0.89,10.17,2.41,15.05c0.39,5.1,2.31,9.9,2.87,14.97c1.45,3.23,2.13,6.72,2.97,10.14c1.53,5.47,3.88,10.7,4.95,16.3
		c0.17,0.02,0.52,0.06,0.69,0.08c0.52,1.83,1.09,3.66,1.72,5.47c13.84,34.57,34.25,66.83,61.26,92.63
		c4.93,4.77,9.52,9.96,15.03,14.1c-4.18,0.16-7.75-2.18-11.46-3.73c-13.08-6.17-26.64-11.23-39.97-16.84
		c-1.02-0.33-2.03-0.64-3.05-0.94c-4.85-1.8799-9.61-4.28-14.84-4.9c0.66-0.18,1.33-0.36,2-0.52c-1.69-0.32-3.38-0.63-4.98-1.22
		c-12.55-4.65-25.4-8.44-38.2-12.34c-2.35-0.68-4.73-1.27-7.09-1.89c-2.85-0.99-5.82-1.56-8.77-2.11c-2.93-1.11-6.02-1.64-9.04-2.36
		c-10.27-2.47-20.68-4.25-31.07-6.02c-13.65-1.27-27.29-3.72-41.05-2.86c-11.04-0.43-22.05,1.02-32.91,2.86
		c-5.38,1.2-10.72,2.5-16.02,4c-7.93,3.02-15.89,6.18-23.06,10.8c-8.15,4.65-14.47,11.67-20.98,18.28
		c-15.56,17.81-22.74,41.16-26.22,64.12c-0.53,4.64-1.02,9.29-1.53,13.95c-1.72,8.22-1.12,16.75-2.63,25.01
		c-0.56,17.02-0.34,34.07-0.2,51.1c-0.19,6.01,1.23,11.89,1.73,17.86c0.47,6.84,2.51,13.42,3.74,20.14l0.32,0.9
		c4.67,18.2,12.31,36.53,26.28,49.59c8.31,8.85,19.32,15.25,31.11,18.12c0.01,0.16,0.02,0.48,0.02,0.65
		c5.2,0.52,10.17,2.59,15.45,2.4c9.09,0.05,18.21,0.35,27.28-0.31l-0.85,0.16c3.99,11.61,7.14,23.73,13.87,34.15
		c5.66,9.61,12.93,18.47,22.27,24.7001c10.91,7.86,24.06,12.2899,37.4,13.5599c19.63,1.96,39.47-1.61,58.03-7.9399
		c4.3-1.37,8.35-3.98,13-3.9c7.63-0.05,15.13,1.49,22.68,2.33c13.88,1.89,27.65,4.4401,41.28,7.6801
		c1.37,9.03-0.01,18.2999-2.73,26.96c-5.72,16.99-15.65,32.27-27,46.03c-10.69,13.5699-23.78,24.95-35.71,37.38
		c-7.31,7.34-15.12,14.16-22.52,21.4c-3.84,4.22-8.69,7.34-12.51,11.58c-7.04,6.61-14.24,13.0601-21.47,19.48
		c-6.5,6.5601-13.69,12.36-20.52,18.5601c-7.02,6.99-14.66,13.2899-21.95,19.98c-5.67,5.34-10.95,11.1-17.02,16.01
		c-7.78,7.5499-15.32,15.35-23.05,22.95c-4.15,3.88-7.4,8.59-11.52,12.5c-19.49,21.86-37.5,46.28-45.23,74.96
		c-0.72,2.9601-1.17,5.9701-1.57,9c-3.55,18.01-0.88,36.8101,4.98,54.05c10.66,29.51,29.89,55,50.8,78.03
		c7.46,8.83,16.12,16.52,24.12,24.86c20.33,18.64,42.17,36.47,67.82,47.27c3.41,1.24,6.81,2.5,10.23,3.73
		c0.23,0.0599,0.69,0.1801,0.92,0.24c11.17,10.0699,21.17,21.41,32.6899,31.13c12.2,10.77,25.32,20.55,39.4301,28.6801
		c16.52,8.9099,34.68,16.5199,53.8,15.88c19.59,0.36,38.74-8.64,51.94-22.9401c6.85-6.29,12.15-13.96,17.4-21.5699
		c9.64-15.88,17.03-33.0801,22.19-50.92c2.15-5.8,2.71-12.0699,5.15-17.75c4.87-9.01,10.12-17.8199,15.44-26.5699
		c20.73-33.4301,43.31-65.9801,70.55-94.4901c4.42-4.25,8.73-8.61,13.06-12.95c12.95-12.1899,27.5-22.84,43.85-30
		c0.4,1.16,0.8,2.36,1.21,3.5601c7.59,23.6899,15.38,47.3899,25.98,69.9399c16.0801,34.77,37.3201,68.4,67.87,92.21
		c17.27,13.4701,37.64,22.9401,59.2201,26.8501c1.5099,4.09,4.6699,7.2,7.1899,10.6899c14.95,19.73,33.5601,37.03,55.59,48.59
		c18.86,9.7101,40.11,15.3201,61.41,14.3501c14.39,0.6599,28.61-2.4801,42.34-6.52c22.28-7.13,43.3301-18.5601,60.79-34.2101
		c15.3099-14.08,27.08-31.51,37.41-49.4399c17.8199-32.35,30.77-68.37,31.3199-105.64c0.02-19.97-4.2-40.5699-15.46-57.35
		c-8.91-14.34-22.78-24.72-37.47-32.5701c-8.4601-3.9399-17.2201-7.2999-26.2401-9.74c-9.7599-2.75-18.9399-7.13-27.6499-12.26
		c-3.23-7.99-7.11-15.8099-12.5-22.5699c-11.3201-15.15-27.8501-25.6-45.25-32.45c0.39-0.05,1.1799-0.16,1.5699-0.2101
		c-1.41-1.53-2.88-2.99-4.14-4.63c-6.1-8.7999-11.28-18.1899-16.4-27.58c-20.0399-39.35-32.87-83.22-31.71-127.67
		c1.27-20.53,5.55-41.74,17.4-58.95c8.72-13.4301,22.23-23.5,37.38-28.5601c20.58-7.0299,42.83-5.3199,63.9399-1.8999
		c16.4801,1.5399,33.62,0.2699,49.05-6.0801c16.9-6.09,31.49-17.37,43.7-30.35c12.67-13.72,22.5-29.86,30.17-46.83
		c16.8-38.4,23.1-81.41,17.45-122.96c-2.58-17.17-7.3099-34.1801-15.48-49.57c-8.33-15.52-20.02-29.65-35.39-38.59
		c-16.74-10.59-36.9299-13.41-56.37-13.72l0.3201,1.0099c-7.74-24.04-22.5801-46.61-44.64-59.64c-5.26-3.58-11.35-5.49-17.11-8.02
		c-2.39-0.58-4.74-1.21-7.03-2.03c-2.9301-0.54-5.85-1.09-8.79-1.4301l1.23-1.2599c-7.2899-0.75-14.6299-1.09-21.9399-0.81
		c4.75-23.53,8.1-47.54,7-71.6c-1.63-59.04-23.6801-117.29-61.72-162.48c-24.4401-29.8-55.8-53.81-90.5701-70.35
		c-3.9399-1.9-7.8099-4.14-12.1699-4.86c-4.2101-4.16-7.6801-8.99-12.02-13.01c-32.1-32.9-72.91-57.13-117.1-69.77
		c-4.28-1.28-8.61-2.36-12.96-3.3c-1.36-0.34-2.67-0.74-3.9901-1.12c-7.0699-1.06-14.08-2.46-21.14-3.53
		c-15.8-2.46-31.89-1.72-47.84-1.81c-7.03-0.12-13.99,0.91-20.99,1.27C892.53,271.49,888.11,272.75,883.53,272.57z"/>
	<path fill="#E2925F" d="M883.53,272.57c4.58,0.18,9-1.08,13.47-1.85c7-0.36,13.96-1.39,20.99-1.27
		c15.95,0.09,32.04-0.65,47.84,1.81c7.06,1.07,14.07,2.47,21.14,3.53c1.32,0.38,2.63,0.78,3.9901,1.12
		c4.35,0.94,8.68,2.02,12.96,3.3c44.19,12.64,85.0001,36.87,117.1,69.77c4.34,4.02,7.8099,8.85,12.02,13.01
		c24.8999,29.41,44.0599,63.9,54.22,101.16c3.79,12.67,6.28,25.71,7.95,38.82c1.79,10.94,1.39,22.05,2.4401,33.05
		c-0.38,12.02-0.9401,24.04-2.51,35.98c-0.84,5.05-1.55,10.12-1.86,15.22l-0.5901-0.3c-10.74,58.71-42.37,113.23-87.6,152.1
		c-3.6899,3.9-8.9099,6.22-11.6799,10.97c4.64-0.46,8.89-2.42,13.0499-4.41c29.3201-12.87,58.1801-26.78,86.48-41.78
		c17.75-9.72,36.3401-18.01,55.7301-23.87c20.1499-6.24,41.6-8.3,62.5399-5.58c2.9401,0.34,5.86,0.89,8.79,1.4301
		c2.29,0.8199,4.64,1.45,7.03,2.03c5.76,2.53,11.85,4.44,17.11,8.02c22.0599,13.03,36.9,35.6,44.64,59.64
		c3.76,12.22,6.6,24.8101,7.6699,37.57c0.4,14.98,0.49,29.9901-0.1499,44.96c-4.28,38.84-17.39,77.53-41.89,108.37
		c-18.7001,23.95-46.52,41.97-77.3,44.27c-9.03-0.09-18.16,0.69-27.09-1c-10.5601-1.83-21.3-1.38-31.96-1.43
		c-20.1001-0.63-40.25,7.17-54.8501,20.96c-9.2999,9.32-15.64,21.1-20.2799,33.32c-2.76,9.97-5.62,20.09-5.6101,30.53
		c-0.1599,13.3099-0.47,26.66,0.5801,39.9399c5.38,40.13,19.74,78.9301,40.9199,113.39c16.92,27.15,38.52,52.2101,66.1901,68.8101
		c9.35,5.36,19.22,9.9299,29.63,12.7899c4.27,1.1901,8.46,2.63,12.65,4.1101c17.3999,6.85,33.9299,17.2999,45.25,32.45
		c5.39,6.76,9.27,14.58,12.5,22.5699c4.5499,12.0901,6.26,25.04,6.64,37.9c-0.26,38.1-13.3,75.02-31.65,108.02
		c-10.61,18.66-23.12,36.53-39.25,50.87c-13.54,11.6-29.0801,20.76-45.52,27.61c-17.53,6.9301-36.26,11.63-55.21,11.26
		c-8.1101,0.1-16.25-0.04-24.24-1.5599c-21.5801-3.91-41.9501-13.38-59.2201-26.8501c-30.5499-23.8099-51.7899-57.4399-67.87-92.21
		c-10.6-22.55-18.39-46.25-25.98-69.9399c-0.41-1.2001-0.81-2.4-1.21-3.5601c-7.42-20.39-16.5601-40.74-31.2401-57
		c-10.78-12.38-26.5-21.23-43.22-20.99c-17.13,0.27-32.92,8.28-46.95,17.48c-8.75,6.48-17.56,13.01-25.14,20.86
		c-5.95,6.04-12.06,11.9401-17.93,18.0601c-26.69,30.1799-49.52,63.5599-69.98,98.2c-3.75,6.8301-8.64,13.22-10.52,20.92
		c-4.34,18.0699-10.74,35.6799-19.3,52.1799c-5.74,10.2101-11.74,20.49-20.12,28.79c-5.23,5.16-10.11,10.84-16.47,14.67
		c-7.14,4.89-15.22,8.2899-23.58,10.4199c-6.88,1.7101-14.02,1.3201-21.04,1.3301c-6.82,0.01-13.43-1.87-20.0099-3.42
		c-0.23-0.0599-0.69-0.1801-0.92-0.24c-3.42-1.23-6.82-2.49-10.23-3.73c-25.65-10.8-47.49-28.63-67.82-47.27
		c-8-8.34-16.66-16.03-24.12-24.86c-20.91-23.03-40.14-48.52-50.8-78.03c-5.86-17.24-8.53-36.04-4.98-54.05
		c0.4-3.0299,0.85-6.0399,1.57-9c7.73-28.6799,25.74-53.1,45.23-74.96c4.12-3.91,7.37-8.62,11.52-12.5
		c7.73-7.6,15.27-15.4,23.05-22.95c6.0699-4.91,11.35-10.67,17.02-16.01c7.29-6.6901,14.93-12.99,21.95-19.98
		c6.83-6.2001,14.02-12,20.52-18.5601c7.23-6.4199,14.43-12.87,21.47-19.48c3.82-4.24,8.67-7.36,12.51-11.58
		c7.4-7.24,15.21-14.0601,22.52-21.4c11.93-12.4301,25.02-23.8101,35.71-37.38c11.35-13.76,21.28-29.04,27-46.03
		c2.72-8.66,4.1-17.9299,2.73-26.96c-1.39-9.9301-5.72-19.37-12-27.15c-5.22-5.5-10.42-11.13-16.69-15.45
		c-14.1-10.05-30.19-16.85-46.51-22.4c-25.89-8.45-52.8-13.27-79.78-16.53c-5.67-0.42-11.71-1.2-17.04,1.32
		c-11.44,4.67-23.48,7.57-35.66,9.47c-9.07,0.66-18.19,0.36-27.28,0.31c-5.28,0.19-10.25-1.8799-15.45-2.4
		c0-0.17-0.01-0.49-0.02-0.65c-11.79-2.87-22.8-9.27-31.11-18.12c-13.97-13.06-21.61-31.39-26.28-49.59l-0.32-0.9
		c-1.23-6.72-3.27-13.3-3.74-20.14c-0.5-5.97-1.92-11.85-1.73-17.86c-0.14-17.03-0.36-34.08,0.2-51.1
		c1.51-8.26,0.91-16.79,2.63-25.01c0.51-4.66,1-9.31,1.53-13.95c3.48-22.96,10.66-46.31,26.22-64.12
		c6.51-6.61,12.83-13.63,20.98-18.28c7.17-4.62,15.13-7.78,23.06-10.8c5.3-1.5,10.64-2.8,16.02-4c10.86-1.84,21.87-3.29,32.91-2.86
		c13.7599-0.86,27.4,1.59,41.05,2.86c10.39,1.77,20.8,3.55,31.07,6.02c3.02,0.72,6.11,1.25,9.04,2.36c2.95,0.55,5.92,1.12,8.77,2.11
		c2.36,0.62,4.74,1.21,7.09,1.89c12.8,3.9,25.65,7.69,38.2,12.34c1.6,0.59,3.29,0.9,4.98,1.22c-0.67,0.16-1.34,0.34-2,0.52
		c5.23,0.62,9.9901,3.02,14.84,4.9c1.02,0.3,2.03,0.61,3.05,0.94c13.33,5.61,26.89,10.67,39.97,16.84
		c3.71,1.55,7.28,3.89,11.46,3.73c-5.51-4.14-10.1-9.33-15.03-14.1c-27.01-25.8-47.42-58.06-61.26-92.63
		c-0.63-1.81-1.2-3.64-1.72-5.47c-0.17-0.02-0.52-0.06-0.69-0.08c-1.0699-5.6-3.42-10.83-4.95-16.3c-0.84-3.42-1.52-6.91-2.97-10.14
		c-0.56-5.07-2.48-9.87-2.87-14.97c-1.52-4.88-1.96-9.99-2.41-15.05c-2.77-18.2-2.3-36.7-1.66-55.03c1.83-8.56,1.3-17.41,3.4-25.92
		c0.18-1.35,0.32-2.7,0.49-4.05l0.48-0.82c0.66-6.14,2.27-12.15,3.93-18.09c1.02-3.61,1.94-7.25,3.05-10.83
		c10.41-32.72,26.93-63.51,48.86-89.95c7.65-9.97,17.18-18.25,25.86-27.28c13.76-12.59,28.83-23.76,44.88-33.26
		c10.94-6,21.84-12.32,33.67-16.41c0.01-0.15,0.05-0.44,0.07-0.59c11.9-3.95,23.54-9.07,35.95-11.3c0.02-0.19,0.06-0.58,0.08-0.77
		c6.44-0.38,12.47-3.2,18.97-3.2C883.54,273.22,883.53,272.79,883.53,272.57 M787.04,319.93c-29.88,18.18-55.72,42.85-75.3,71.83
		c-22.64,33.66-36.91,73.03-40.38,113.49c-2.06,20.91-1.12,42.07,2.31,62.79c6.21,38.02,22.03,74.31,45.09,105.13
		c6.73,9.17,14.48,17.51,22.17,25.86c15.6,14.81,32.3,28.83,51.43,38.87c-6-5.75-12.81-10.59-18.69-16.47
		c-6.85-5.83-12.67-12.72-18.69-19.38c-40.85-47.21-62.29-110.73-58.01-173.03c3.48-55.28,26.83-108.96,64.6801-149.35
		c6.62-6.39,12.7599-13.29,19.92-19.1c38.8-33.38,88.36-53.94,139.42-57.63c38.26-2.96,77.14,3.74,112.41,18.79
		c9.28,3.79,17.98,8.81,27,13.13c-10.39-9.14-22.54-16.12-34.72-22.59c-39.2101-20.91-84.42-30.08-128.6901-27.06
		C858.23,287.53,820.2,299.78,787.04,319.93 M805.73,425.76c-12.71,7.14-23,19.11-26.7,33.36c-1.9,7.8-2.73,15.99-1.07,23.91
		c2.08,14.17,10.63,26.61,21.59,35.51c2.22,3.08,5.14,5.57,8.21,7.79c9.65,6.82,21.29,11.36,33.26,10.75
		c13.47,0.76,26.9-4.24,37.21-12.8c12.91-10.6801,20.28-27.58,19.62-44.3c-0.8-13.68-6.31-27.51-16.77-36.64
		c-1.42-2.91-4.61-4.42-6.63-6.87c-7.11-7.84-16.72-13.07-26.78-16.04C833.69,416.91,818.32,418.62,805.73,425.76 M975.65,431.67
		c-11,8.88-17.95,22.29-19.59,36.27c-1.66,15.18,3.46,30.93,13.64,42.31c2.79,2.93,5.76,5.69,8.52,8.66l0.33,0.13
		c10.34,11.57,25.87,18.69,41.47,18.04c19.91,1,39.72-10.4,49.41-27.72c4.62-8.02,6.7799-17.2,7.23-26.38
		c-0.15-15.1-6.02-30.55-17.67-40.49c-1.5-2.86-4.5-4.51-6.64-6.83c-9.3099-9.51-22.01-15.72-35.31-16.74
		C1002.32,417.58,986.89,421.93,975.65,431.67 M805.02,582.98c-0.8,12.93,1.32,25.89,4.85,38.31c5.02,16.29,12.83,31.87,24,44.82
		c4.97,5.81,9.77,11.95,15.85,16.63c11.84,12.28,26.46,21.78,42.17,28.36c25.81,10.6,55.13,12.19,82,4.7401
		c17.88-5.06,34.76-13.89,48.68-26.26c27.8699-23.63,44.32-60.02,43.7401-96.56c-0.16-6.17-4.0701-11.68-9.5701-14.31
		c-2.84-6.68-10.62-10.81-17.77-9.72c-7.45,0.84-13.7999,7.56-14.11,15.07c-0.14,6.35-0.39,12.72-1.85,18.94
		c-3.23,18.05-12.33,34.81-25.22,47.79c-19.74,20.65-49.5099,30.98-77.82,27.44c-15.29-1.9-30.0699-7.69-42.62-16.63
		c-3.94-2.5099-7.34-5.74-10.3199-9.3c-13.26-16.31-20.92-37.23-20.5601-58.29c-0.14-6.41-3.8799-12.51-9.8-15.12
		c-2.61-6.05-9.06-10.37-15.7-10.05C813.22,568.95,805.65,575.06,805.02,582.98 M563.4,699.35c-1.79,4.05,0.13,8.3,2.35,11.73
		c9.1,17.3,18.33,34.54,27.44,51.84c1.57,2.99,3.52,5.83,4.54,9.09c-1.27,2.47-3.74,4.09-5.61,6.11
		c-17.55,17.46-34.98,35.05-52.55,52.49c-2.24,2.27-4.78,4.9-4.61,8.35c-0.27,2.97,1.61,5.49,3.57,7.5099
		c16.91,16.84,33.74,33.76,50.64,50.6c-6.44,10.85-13.15,21.53-19.7,32.31c-4.28,7.07-9.0099,13.88-12.9,21.18
		c-2.61,5.27,1.21,12.53,7.34,12.43c4.76,0.93,8.04-3.01,10.09-6.7c-0.91,1.2401-0.29,2.98,0.85,3.88c2.59,2.9,7.06,3.4,10.6,2.25
		c4.05-2.31,6.08-6.79,8.13-10.76c33.2,5.3701,66.43,13.53,96.37,29.26c16.29,8.54,31.43,19.86,42.47,34.71
		c9.89,12.9399,14.87,29.1801,15.33,45.36c-0.38,20.62-8.13,40.42-18.97,57.73c-9.48,15.35-21.04,29.38-33.64,42.26
		c-4.32,5.09-9.12,9.73-14.17,14.09c-38.39,38.29-79.77,73.4501-119.22,110.62c-8.97,8.7101-18.38,17.02-26.63,26.4501
		c-13.45,14.02-26.26,28.85-36.39,45.49c-8.08,12.8-14.06,27.1899-15.66,42.35c-1.35,8.6901-0.08,17.53,1.68,26.0801
		c4.43,18.8899,14.13,36.08,25.33,51.75c10.33,14.48,22.2,27.7899,34.54,40.5699c12.86,13.17,26.54,25.58,41.37,36.5
		c15.55,10.91,32.56,21.1801,51.78,23.48c4.85,0.36,10.02,1.14,14.62-0.92c-10.62-2.25-20.89-6.1-30.32-11.46
		c-18.39-10.23-34.49-23.98-49.79-38.28c-12.64-12.38-24.77-25.2999-35.86-39.09c-11.9-15.1-22.69-31.3199-29.74-49.28
		c-6.44-16.5199-8.33-35.1499-3.29-52.2899c2.53-9.5,7.03-18.28,11.75-26.8401c10.64-17.3999,23.73-33.25,38.11-47.6699
		c-2.62,31.1599-5.54,62.3099-8.19,93.47c-0.58,5.47,4.65,9.8101,9.89,9.4399c27.97,0.0601,55.94,0.01,83.91,0.02
		c5.13,25.3401,10.41,50.66,15.74,75.9601c1.01,4.96,6.96,7.0299,11.41,5.58c28.56-7.14,57.12-14.29,85.68-21.42
		c4.13-0.71,8.19-4.1899,7.83-8.6699c0.2-2.4701-0.88-4.7001-2.1-6.7201c-0.97-0.1299-2.91-0.3899-3.88-0.5199
		c0.51-0.2201,1.52-0.66,2.02-0.88c4.3,0.5,9.18-0.99,11.57-4.79c2.14-4.47,0.66-10.71-4.21-12.65
		c-5.02-1.61-10.08,0.79-14.96,1.8201c-23.28,5.64-46.4,11.9099-69.68,17.5499c-4.3701-22.4-9.25-44.7-13.77-67.0699
		c-0.73-3.48-1.13-7.1901-3.12-10.22c-1.8-2.0801-4.59-3.12-7.3-3.0901c-27.36-0.09-54.72,0.13-82.08-0.12
		c2.72-28.23,4.99-56.51,7.65-84.75c0.38-2.78-1-5.33-1.29-8.01c6.44-6.5699,13.55-12.5,20.2-18.88
		c28.6-26.08,57.51-51.84,85.56-78.51c4.91-5.4199,10.62-10.0099,15.81-15.13c15.75-15.6499,31.15-31.9099,43.36-50.5499
		c8.78-13.28,16.1-27.77,19.64-43.37c4.51-18.25,2.77-38.23-6.01-54.9501c-7.4-15.0399-19.82-27.02-33.52-36.3699
		c-15.45-10.48-32.67-18.09-50.3-24.06c-23.44-7.83-47.73-12.89-72.19-16.22c-3.49-0.52-7.12,0.12-10.5-1.01
		c1.81-0.2,3.64-0.23,5.45-0.44c2.95-3.84,5.07-8.25,7.74-12.28c7.12-11.85,14.75-23.39,21.59-35.4c2.07-3.29,1.73-7.75-1.07-10.5
		c-16.82-16.94-33.85-33.68-50.57-50.72c19.47-19.69,39.13-39.19,58.69-58.79c3.35-2.95,3.43-8.22,1.17-11.85
		c-12.4-23.26-24.63-46.61-37.12-69.81c-3.15-6.68-13.35-5.33-16.46,0.73C577.42,692.28,565.79,692.32,563.4,699.35 M1301.63,696.55
		c4.71,1.46,9.71,1.74,14.4301,3.24c15.5499,4.36,29.1299,14.85,37.61,28.56c12.2699,18.83,17.22,41.47,18.8099,63.62
		c-0.0699,10.67,0.6,21.39-0.79,32c-2.2,20.65-7.2999,41.0601-15.6599,60.09c-7.22,17.15-17.64,33.02-30.66,46.32
		c-13.39,12.84-30.45,22.36-49.1,24.28c-0.03,0.2401-0.0801,0.73-0.1,0.97c4.2899,0.06,8.58,0.23,12.88,0.1
		c15.48-0.78,30.6499-6.33,43.0499-15.6c14.92-10.78,26.26-25.84,35.04-41.87c18.01-33.84,25.64-72.99,22.6799-111.12
		c-1.98-21.93-7.62-44.26-20.5499-62.42c-8.41-12.23-21.01-21.56-35.3201-25.59C1323.51,695.75,1312.4399,696.11,1301.63,696.55
		 M496.61,712.46c-14.85,3.75-28.96,11.52-38.81,23.43c-11.19,13.64-17.03,30.89-19.65,48.15c-3.06,22.18-5.59,44.54-5.15,66.96
		c-0.41,22.11,1.46,44.57,8.37,65.69c5.28,15.49,14.46,31.12,29.95,38.14c11.43,5.12,24.52,6.72,36.89,4.8
		c-8.68-1.71-17.6-3.59-24.99-8.73c-13.88-9.01-21.27-24.82-25.81-40.1801c-5.22-19.1-7.08-39.0099-6.8-58.7599
		c-0.29-19.06,1.56-38.07,3.83-56.97c1.34-11.3,3.26-22.61,7.17-33.34c5.18-15.06,14.64-28.98,28.07-37.82
		c15.24-9.95,33.68-13.97,51.67-14.53l0.01-1.26C526.37,707.9,511.18,708.65,496.61,712.46 M1199.9301,724.99
		c19.72,15.11,39.8199,29.74,59.61,44.75c-16.6901,18.93-33.3401,37.9-50.05,56.81c-2.29,2.66-4.85,5.11-6.79,8.06
		c-2.47,3.81-1.0699,9.49,2.76,11.85c23.12,12.7,46.63,24.74,69.66,37.56c-8.13,9.53-17.11,18.31-25.4399,27.67
		c-13.28,13.98-26.2001,28.32-39.5,42.27l0.9099-1.54c-17.4399,1.54-34.87,6.45-49.7,15.96c-15.47,9.63-27.91,23.92-35.76,40.33
		c-9.13,18.3699-13.01,38.94-13.84,59.31c-1.3301,46.9,11.73,93.26,32.1599,135.1699c17.13,33.7101,39.51,65.4801,69.3201,89.15
		c0.48-0.34,1.46-1.01,1.9399-1.35c-2,2.48-3.47,5.8201-2.23,9c8.12,24.7,17.16,49.1,25.1801,73.84
		c-30.0701,4.92-60.11,10.02-90.1801,14.9701c-2.54,0.4099-5.2999,1.1799-6.8199,3.45c-3.04,3.9-1.92,9.12-2.0801,13.7
		c-0.0699,27.9,0.17,55.8-0.11,83.7001c-25.65-0.1801-51.2999,0-76.95-0.11c-3.6-0.23-7.34,1.1899-9.26,4.37
		c-3.15,4.13-0.87,10.49,3.4399,12.8199c3.89,0.89,7.9401,0.27,11.91,0.42c0.79,2.2899,1.21,4.9299,3.13,6.65
		c2.5701,2.45,6.4301,2.25,9.75,2.46c27.02-0.0601,54.0601-0.01,81.09-0.04c3.89,0,8.4801-0.6699,10.7101-4.28
		c1.86-3.7,1.4199-7.99,1.48-11.98c-0.0601-28.73-0.02-57.46-0.03-86.1899c31.42-5.2001,62.85-10.35,94.26-15.5801
		c5.46-0.6499,9.33-6.6599,7.0699-11.8199c-7.97-23.79-16.3999-47.41-24.4299-71.17c5.8099,2.25,11.7,4.3,17.71,6
		c13.72,4.1001,27.1901,10.3201,37.48,20.51c8.4801,7.62,13.9501,18.0701,17.24,28.87c4.9401,17.63,3.66,36.3201-0.08,54.05
		c-4.29,20.38-11.89,39.97-21.47,58.42c-8.92,16.95-19.61,33.1599-33.11,46.84c-18.5801,17.11-41.7201,29.3099-66.42,34.72
		c-5.23,1.34-10.6899,1.39-15.87,2.9301c8.6901-0.12,17.47,0.7,26.0699-0.9601c13.91-2.0499,27.4-6.6,39.9901-12.8199
		c14.1-7.1801,27.5699-16.0701,38.2599-27.86c11.3301-12.4601,20.4801-26.78,28.3501-41.62
		c11.11-21.0701,19.5599-43.7001,23.3999-67.26c3.13-18.91,2.7401-38.97-5.0099-56.77c-7.5801-16.59-22.6001-28.97-39.41-35.49
		c-5.9-2.46-12.05-4.2-18.13-6.08c-10.76-3.37-21.02-8.2201-30.67-14.01c-2.37-1.3201-3.53-3.87-5.45-5.65
		c-2.6-1.6-5.84-1.84-8.3201-3.64c-18.72-13.77-34.5299-31.13-48.1499-49.87c-23.53-32.61-40.29-69.91-50.2101-108.8201
		c-5.73-23.34-8.9399-47.45-7.76-71.5099c1.3101-23.1001,6.89-46.54,19.51-66.1801c9.02-14.65,22.2101-26.59,37.49-34.44
		c7.05-3.79,14.76-6.06,22.3501-8.49c-2.62,4.88,0.4399,11.9,6.1,12.68c4.23,1.06,7.87-1.79,10.53-4.72
		c2.59,4.11,7.9299,6.17,12.4299,3.9399c5.48-4.11,9.48-9.8199,14.39-14.55c18.87-20.47,37.9399-40.74,56.89-61.14
		c2.5-3.1801,6.52-5.8101,6.64-10.25c0.23-3.96-2.4301-7.39-5.91-8.97c-22.6899-12.13-45.39-24.26-68.0699-36.43
		c2.35-3.49,5.3899-6.42,8.13-9.59c14.2899-16.38,28.71-32.64,43.0399-48.98c2.49-2.92,6.09-5.91,5.42-10.18
		c0.09-5.62-5.53-8.13-9.29-11.11c-20.3099-15.38-40.84-30.47-61.21-45.76c-4.1801-3.29-10.61-1.74-13.3301,2.68
		c-3.0299-2.4-6.3999-5.3-10.5699-4.34C1196.76,709.92,1194.11,720.81,1199.9301,724.99 M800.92,768.88
		c-8.91,4.49-11.4,14.71-15.16,23.08c-4.04,10.33-7.9,20.9-9.64,31.88c-1.9,8.56-2.82,17.65-0.24,26.18
		c1.77,8.48,8.83,15.33,17.02,17.73c3.13,5.53,7.88,10.46,14.09,12.39c7.32,2.99,15.36,2.12,23.07,2.13
		c12.15-0.82,23.92-4.28,35.49-7.9c17.33-5.99,34.25-13.25,50.35-22.04c7.13,2.36,14.7,2.7,22.13,3.31
		c11.67,0.04,23.6899-1.74,33.92-7.7c12.31,7.15,25.31,13.02,38.39,18.63c15.06,6.04,30.5099,11.48,46.6099,13.94
		c8.2101,0.98,16.7101,1.47,24.75-0.79c8.2301-2.25,14.64-9.61,16-18c1.78-12.4-0.9199-24.92-4.86-36.65
		c-3.97-10.96-8.27-21.84-13.6899-32.18c-2.8101-5.57-8.13-9.94-14.3301-11.04c-3.6699-8.56-12.6799-14.1-21.86-14.44
		c-13.1599-0.52-26.58-0.69-39.3799,2.85c-11.81,2.48-23.24,6.31-34.64,10.21c-4.08,1.41-7.97,3.4-12.21,4.33
		c-1.41-2.28-2.83-5.11-5.68-5.75c-8.78-2.36-17.88-3.81-27-3.43c-8.55-0.31-17.3,1.33-24.82,5.52c-2.99,1.29-3.1,4.9-4.16,7.54
		c-6.36-3.66-13.45-5.9-20.17-8.82c-16.35-6.45-33.33-11.64-50.83-13.72C816.28,765.01,808.25,766.16,800.92,768.88 M893.76,935.77
		c-12.24,11.42-19.13,28.48-17.91,45.21c0.15,17.67,10.22,33.9,23.75,44.66c4.45,5.99,10.9901,9.96,17.47,13.4399
		c11.12,5.75,24.02,6.75,36.29,5.4401c8.73-1.4401,17.16-4.72,24.54-9.62c15.74-10.8,26.41-29.56,25.37-48.91
		c0.46-11.28-3.31-22.44-9.48-31.78c-3.06-4.12-5.97-8.6-10.39-11.39c-8.94-11.59-22.28-19.9-36.75-22.37
		C927.97,916.74,907.45,922.42,893.76,935.77 M896.76,1077.73c-6.31,5.8-12.15,12.37-15.74,20.24c-7.52,16.41-7.36,36.54,1.6,52.37
		c4.25,7.78,10.34,14.4,17.07,20.1c7.34,9,18.14,14.8701,29.36,17.5601c16.4,4.27,34.58,1.24,48.59-8.33
		c13.78-9.04,23.29-24.3,25.39-40.62c0.5699-9.15,0.5699-18.63-2.79-27.3c-3.37-8.67-8.12-17.21-15.54-23.05
		c-5.95-7.5199-13.57-13.7799-22.02-18.36C941.76,1059.95,914.69,1062.45,896.76,1077.73z"/>
	<path fill="#FFE3BB" d="M787.04,319.93c33.16-20.15,71.19-32.4,109.95-34.72c44.27-3.02,89.48,6.15,128.6901,27.06
		c12.1799,6.47,24.33,13.45,34.72,22.59c-9.02-4.32-17.72-9.34-27-13.13c-35.27-15.05-74.15-21.75-112.41-18.79
		c-51.06,3.69-100.62,24.25-139.42,57.63c-7.16,5.81-13.3,12.71-19.92,19.1c-37.85,40.39-61.2,94.07-64.6801,149.35
		c-4.28,62.3,17.16,125.82,58.01,173.03c6.02,6.66,11.84,13.55,18.69,19.38c5.88,5.88,12.69,10.72,18.69,16.47
		c-19.13-10.04-35.83-24.06-51.43-38.87c-7.69-8.35-15.44-16.69-22.17-25.86c-23.06-30.82-38.88-67.11-45.09-105.13
		c-3.43-20.72-4.37-41.88-2.31-62.79c3.47-40.46,17.74-79.83,40.38-113.49C731.32,362.78,757.16,338.11,787.04,319.93z"/>
	<path fill="#5AA6C8" d="M1133.04,361.99c4.36,0.72,8.23,2.96,12.1699,4.86c34.77,16.54,66.13,40.55,90.5701,70.35
		c38.0399,45.19,60.09,103.44,61.72,162.48c1.1,24.06-2.25,48.07-7,71.6c7.3101-0.28,14.65,0.06,21.9399,0.81l-1.23,1.2599
		c-20.9399-2.72-42.39-0.66-62.5399,5.58c-19.39,5.86-37.9801,14.15-55.7301,23.87c-28.2999,15-57.1599,28.91-86.48,41.78
		c-4.1599,1.99-8.4099,3.95-13.0499,4.41c2.77-4.75,7.99-7.07,11.6799-10.97c45.23-38.87,76.86-93.39,87.6-152.1l0.5901,0.3
		c0.3099-5.1,1.02-10.17,1.86-15.22c1.5699-11.94,2.13-23.96,2.51-35.98c-1.05-11-0.65-22.11-2.4401-33.05
		c-1.6699-13.11-4.1599-26.15-7.95-38.82C1177.1,425.89,1157.9399,391.4,1133.04,361.99z"/>
	<path fill="#DE6F5E" d="M805.73,425.76c12.59-7.14,27.96-8.85,41.94-5.33c10.06,2.97,19.67,8.2,26.78,16.04
		c2.02,2.45,5.21,3.96,6.63,6.87c1.66,5.53,5.13,10.35,6.38,16.02c4.36,15.72,1.05,33.34-8.56,46.5
		c-8.57,12.01-22.28,20.05-36.79,22.34c-9.28,1-18.93,0.8-27.78-2.48c-5.15-1.91-9.95-4.62-14.78-7.18
		c-10.96-8.9-19.51-21.34-21.59-35.51c-1.66-7.92-0.83-16.11,1.07-23.91C782.73,444.87,793.02,432.9,805.73,425.76 M819.35,443.49
		c-6.35,1.2-11.33,5.94-14.55,11.32c-3.05,5.84-3.22,13.02-0.68,19.08c2.15,6.04,7.63,10.3,13.49,12.44
		c6.84,1.33,14.6,1.13,20.21-3.57c11.65-7.56,11.45-26.18,1.18-34.8C833.51,443.72,826.13,441.86,819.35,443.49z"/>
	<path fill="#DE6F5E" d="M975.65,431.67c11.24-9.74,26.67-14.09,41.39-12.75c13.3,1.02,26.0001,7.23,35.31,16.74
		c2.14,2.32,5.14,3.97,6.64,6.83c1.89,5.37,5.24,10.11,6.71,15.64c4.7001,15.49,2.13,33.14-7.1599,46.44
		c-8.63,12.83-23.01,21.62-38.3,23.69c-10.26,1.06-21,0.45-30.5-3.86c-3.73-1.79-7.26-4.01-11.19-5.36l-0.33-0.13
		c-2.7599-2.97-5.73-5.73-8.52-8.66c-10.18-11.38-15.3-27.13-13.64-42.31C957.7,453.96,964.65,440.55,975.65,431.67 M996.22,443.34
		c-6.53,1.27-11.7599,6.45-14.6,12.27c-2.72,6.81-2.61,15.04,1.25,21.42c5.69,11.27,22.65,14.36,31.9,5.68
		c10.98-8.4,10.62-26.9-0.03-35.41C1009.81,442.7,1002.55,442.06,996.22,443.34z"/>
	<path fill="#E2925F" d="M819.35,443.49c6.78-1.63,14.16,0.23,19.65,4.47c10.27,8.62,10.47,27.24-1.18,34.8
		c-5.61,4.7-13.37,4.9-20.21,3.57c-5.86-2.14-11.34-6.4-13.49-12.44c-2.54-6.06-2.37-13.24,0.68-19.08
		C808.02,449.43,813,444.69,819.35,443.49z"/>
	<path fill="#E2925F" d="M996.22,443.34c6.33-1.28,13.59-0.64,18.52,3.96c10.65,8.51,11.01,27.01,0.03,35.41
		c-9.25,8.68-26.21,5.59-31.9-5.68c-3.86-6.38-3.97-14.61-1.25-21.42C984.46,449.79,989.69,444.61,996.22,443.34z"/>
	<path fill="#B9503F" d="M1065.7,458.13c-1.47-5.53-4.8199-10.27-6.71-15.64c11.65,9.94,17.52,25.39,17.67,40.49
		c-0.4501,9.18-2.61,18.36-7.23,26.38c-9.6901,17.32-29.5,28.72-49.41,27.72c-15.6,0.65-31.13-6.47-41.47-18.04
		c3.93,1.35,7.46,3.57,11.19,5.36c9.5,4.31,20.24,4.92,30.5,3.86c15.29-2.07,29.67-10.86,38.3-23.69
		C1067.83,491.27,1070.4,473.62,1065.7,458.13z"/>
	<path fill="#B9503F" d="M887.46,459.36c-1.25-5.67-4.72-10.49-6.38-16.02c10.46,9.13,15.97,22.96,16.77,36.64
		c0.66,16.72-6.71,33.62-19.62,44.3c-10.31,8.56-23.74,13.56-37.21,12.8c-11.97,0.61-23.61-3.93-33.26-10.75
		c-3.07-2.22-5.99-4.71-8.21-7.79c4.83,2.56,9.63,5.27,14.78,7.18c8.85,3.28,18.5,3.48,27.78,2.48
		c14.51-2.29,28.22-10.33,36.79-22.34C888.51,492.7,891.82,475.08,887.46,459.36z"/>
	<path fill="#DE6F5E" d="M805.02,582.98c0.63-7.92,8.2-14.03,15.95-14.14c6.64-0.32,13.09,4,15.7,10.05
		c1.52,7.3,1.12,14.82,2.44,22.16c2.8,16.48,10.18,32.11,21.01,44.84c2.15,2.51,4.23,5.09,6.26,7.72c0.16-0.33,0.48-0.98,0.65-1.31
		c2.98,3.56,6.3799,6.79,10.3199,9.3c12.55,8.94,27.33,14.73,42.62,16.63c28.3101,3.54,58.08-6.79,77.82-27.44
		c12.89-12.98,21.9901-29.74,25.22-47.79c1.46-6.22,1.71-12.59,1.85-18.94c0.3101-7.51,6.66-14.23,14.11-15.07
		c7.15-1.09,14.9301,3.04,17.77,9.72c2.12,7.91,0.5701,16.12-0.15,24.11c-3.84,27.91-17.27,54.54-37.86,73.84
		c-28.31,28.03-70.69,40.41-109.75,33.29c-17.21-3.09-33.93-9.61-48.28-19.66c-3.58-2.64-7.11-5.36-10.98-7.55
		c-6.08-4.68-10.8799-10.82-15.85-16.63c-11.17-12.95-18.98-28.53-24-44.82C806.34,608.87,804.22,595.91,805.02,582.98
		 M809.86,581.79c-2.95,2.9901-1.33,7.51-1.2,11.21c1.32,22.85,9.84,45.26,24.16,63.12c16.46,21.27,40.87,36.19,67.21,41.5
		c9.85,2.19,19.96,2.14,29.99,1.98c26.52-1.48,52.35-12.69,71.5-31.1c13.1-12.56,23.5499-28.11,29.2999-45.38
		c4.3601-12.79,6.9901-26.38,6.0601-39.92c-0.76-0.68-1.5-1.37-2.22-2.04c-1.9701,0.35-4.77-0.3199-5.8,1.9
		c-0.78,8.82-1.03,17.75-3.25,26.39c-4.6,19.32-14.66,37.44-29.13,51.1c-18.14,18.55-43.67,29.2-69.48,30.42
		c-25.29,0.98-50.83-7.58-70.48-23.5699c-24.68-19.66-39.6-50.92-39.36-82.47C817.16,581.13,812.55,580.31,809.86,581.79z"/>
	<path fill="#B94F3F" d="M836.67,578.89c5.92,2.61,9.66,8.71,9.8,15.12c-0.36,21.06,7.3,41.98,20.5601,58.29
		c-0.17,0.33-0.4901,0.98-0.65,1.31c-2.03-2.63-4.11-5.21-6.26-7.72c-10.83-12.73-18.21-28.36-21.01-44.84
		C837.79,593.71,838.19,586.19,836.67,578.89z"/>
	<path fill="#B9503F" d="M1056.74,578.71c5.5,2.63,9.41,8.14,9.5701,14.31c0.58,36.54-15.8701,72.93-43.7401,96.56
		c-13.92,12.37-30.8,21.2-48.68,26.26c-26.87,7.45-56.19,5.86-82-4.7401c-15.71-6.58-30.33-16.08-42.17-28.36
		c3.8701,2.19,7.4,4.91,10.98,7.55c14.35,10.05,31.07,16.57,48.28,19.66c39.06,7.12,81.44-5.26,109.75-33.29
		c20.59-19.3,34.02-45.93,37.86-73.84C1057.3101,594.83,1058.86,586.62,1056.74,578.71z"/>
	<path fill="#FFE2BA" d="M809.86,581.79c2.69-1.48,7.3-0.66,7.3,3.14c-0.24,31.55,14.6801,62.81,39.36,82.47
		c19.65,15.99,45.19,24.55,70.48,23.5699c25.81-1.22,51.34-11.87,69.48-30.42c14.47-13.66,24.53-31.78,29.13-51.1
		c2.22-8.64,2.47-17.57,3.25-26.39c1.03-2.22,3.83-1.55,5.8-1.9c0.72,0.67,1.46,1.36,2.22,2.04c0.9301,13.54-1.7,27.13-6.0601,39.92
		c-5.75,17.27-16.2,32.82-29.2999,45.38c-19.15,18.41-44.98,29.62-71.5,31.1c-10.03,0.16-20.14,0.21-29.99-1.98
		c-26.34-5.31-50.75-20.23-67.21-41.5c-14.32-17.86-22.84-40.27-24.16-63.12C808.53,589.3,806.91,584.78,809.86,581.79z"/>
	<path fill="#BA5040" d="M563.4,699.35c2.39-7.03,14.02-7.0699,16.44,0c12.09,22.83,24.12,45.69,36.28,68.4901
		c1.88,3.39,2.57,7.99,0.07,11.2599c-2.14,2.87-4.89,5.19-7.38,7.7401c-17.41,17.41-34.82,34.8199-52.23,52.22
		c15.57,15.54,31.07,31.15,46.69,46.63c2.58,2.61,5.9,5.28,6.03,9.28c0.39,2.8701-0.92,5.55-2.42,7.89
		c-9.27,14.63-18.19,29.48-27.21,44.28c3.59,0.32,7.18,0.69,10.75,1.27c3.38,1.13,7.01,0.4901,10.5,1.01
		c24.46,3.33,48.75,8.39,72.19,16.22c17.63,5.97,34.85,13.58,50.3,24.06c13.7,9.35,26.1201,21.33,33.52,36.3699
		c8.78,16.7201,10.52,36.7001,6.01,54.9501c-3.54,15.6-10.86,30.09-19.64,43.37c-12.21,18.64-27.61,34.9-43.36,50.5499
		c-5.19,5.1201-10.9,9.7101-15.81,15.13c-28.05,26.67-56.96,52.4301-85.56,78.51c-6.65,6.38-13.76,12.3101-20.2,18.88
		c0.29,2.6801,1.67,5.23,1.29,8.01c-2.66,28.24-4.93,56.52-7.65,84.75c27.36,0.25,54.72,0.03,82.08,0.12
		c2.71-0.0299,5.5,1.01,7.3,3.0901c1.99,3.0299,2.39,6.74,3.12,10.22c4.52,22.37,9.4,44.6699,13.77,67.0699
		c23.28-5.64,46.4-11.9099,69.68-17.5499c4.88-1.03,9.94-3.4301,14.96-1.8201c4.87,1.9401,6.35,8.1801,4.21,12.65
		c-2.39,3.8-7.27,5.29-11.57,4.79c-0.5,0.22-1.51,0.6599-2.02,0.88c-4.63,2.08-9.69,2.8099-14.56,4.13
		c-21.4,5.25-42.7,10.9399-64.09,16.23c-3.36,0.9199-7.42,0.63-9.89-2.0701c-1.93-2.5499-2.44-5.8099-3.15-8.84
		c-4.64-23.76-9.98-47.39-14.5099-71.1801c-28.47-0.09-56.95,0-85.42-0.0399c-4.84,0.35-8.93-4.1-8.42-8.88
		c2.39-28.36,5.2-56.6901,7.45-85.0701c-2.64,2.79-5.08,5.77-7.7,8.5801c-14.38,14.4199-27.47,30.27-38.11,47.6699
		c-4.72,8.5601-9.22,17.3401-11.75,26.8401c-5.04,17.14-3.15,35.77,3.29,52.2899c7.05,17.9601,17.84,34.1801,29.74,49.28
		c11.09,13.79,23.22,26.71,35.86,39.09c15.3,14.3,31.4,28.05,49.79,38.28c9.43,5.36,19.7,9.21,30.32,11.46
		c-4.6,2.0601-9.77,1.28-14.62,0.92c-19.22-2.2999-36.23-12.5699-51.78-23.48c-14.83-10.92-28.51-23.33-41.37-36.5
		c-12.34-12.78-24.21-26.09-34.54-40.5699c-11.2-15.67-20.9-32.8601-25.33-51.75c-1.76-8.55-3.03-17.39-1.68-26.0801
		c1.6-15.16,7.58-29.5499,15.66-42.35c10.13-16.64,22.94-31.47,36.39-45.49c8.25-9.4301,17.66-17.74,26.63-26.4501
		c39.45-37.1699,80.83-72.33,119.22-110.62c5.05-4.36,9.85-9,14.17-14.09c12.6-12.88,24.16-26.91,33.64-42.26
		c10.84-17.3099,18.59-37.11,18.97-57.73c-0.46-16.1799-5.44-32.42-15.33-45.36c-11.04-14.85-26.18-26.17-42.47-34.71
		c-29.94-15.73-63.17-23.89-96.37-29.26c-5.18-0.89-10.4-1.46-15.61-2.0699c-1.33,2.22-2.67,4.45-3.97,6.7
		c-2.05,3.69-5.33,7.63-10.09,6.7c-6.1299,0.1-9.95-7.16-7.34-12.43c3.89-7.3,8.62-14.11,12.9-21.18
		c6.55-10.78,13.26-21.46,19.7-32.31c-16.9-16.84-33.73-33.76-50.64-50.6c-1.96-2.02-3.84-4.54-3.57-7.5099
		c-0.17-3.45,2.37-6.08,4.61-8.35c17.57-17.44,35-35.03,52.55-52.49c1.87-2.02,4.34-3.64,5.61-6.11c-1.02-3.26-2.97-6.1-4.54-9.09
		c-9.11-17.3-18.34-34.54-27.44-51.84C563.53,707.65,561.61,703.4,563.4,699.35z"/>
	<path fill="#FFE3BA" d="M579.84,699.35c3.11-6.06,13.31-7.41,16.46-0.73c12.49,23.2,24.72,46.55,37.12,69.81
		c2.26,3.63,2.18,8.9-1.17,11.85c-19.56,19.6-39.22,39.1-58.69,58.79c16.72,17.04,33.75,33.78,50.57,50.72
		c2.8,2.75,3.14,7.21,1.07,10.5c-6.84,12.01-14.47,23.55-21.59,35.4c-2.67,4.03-4.79,8.44-7.74,12.28
		c-1.81,0.21-3.64,0.2401-5.45,0.44c-3.57-0.58-7.16-0.95-10.75-1.27c9.02-14.8,17.94-29.65,27.21-44.28
		c1.5-2.34,2.81-5.02,2.42-7.89c-0.13-4-3.45-6.67-6.03-9.28c-15.62-15.48-31.12-31.09-46.69-46.63
		c17.41-17.4,34.82-34.81,52.23-52.22c2.49-2.55,5.24-4.8701,7.38-7.7401c2.5-3.27,1.81-7.87-0.07-11.2599
		C603.96,745.04,591.93,722.18,579.84,699.35z"/>
	<path fill="#FFE3BA" d="M1301.63,696.55c10.8099-0.44,21.88-0.8,32.3199,2.58c14.3101,4.03,26.91,13.36,35.3201,25.59
		c12.9299,18.16,18.5699,40.4901,20.5499,62.42c2.9601,38.13-4.6699,77.28-22.6799,111.12c-8.78,16.03-20.12,31.09-35.04,41.87
		c-12.4,9.27-27.5699,14.82-43.0499,15.6c-4.3,0.13-8.5901-0.04-12.88-0.1c0.0199-0.24,0.0699-0.73,0.1-0.97
		c18.65-1.92,35.71-11.44,49.1-24.28c13.02-13.3,23.4401-29.17,30.66-46.32c8.36-19.03,13.46-39.44,15.6599-60.09
		c1.39-10.61,0.7201-21.33,0.79-32c-1.59-22.15-6.54-44.79-18.8099-63.62c-8.4801-13.71-22.0601-24.2-37.61-28.56
		C1311.34,698.29,1306.34,698.01,1301.63,696.55z"/>
	<path fill="#BA5040" d="M496.61,712.46c14.57-3.81,29.76-4.56,44.75-4.42l-0.01,1.26c-17.99,0.56-36.43,4.58-51.67,14.53
		c-13.43,8.84-22.89,22.76-28.07,37.82c-3.91,10.73-5.83,22.04-7.17,33.34c-2.27,18.9-4.12,37.91-3.83,56.97
		c-0.28,19.75,1.58,39.66,6.8,58.7599c4.54,15.36,11.93,31.17,25.81,40.1801c7.39,5.14,16.31,7.02,24.99,8.73
		c-12.37,1.92-25.46,0.32-36.89-4.8c-15.49-7.02-24.67-22.65-29.95-38.14c-6.91-21.12-8.78-43.58-8.37-65.69
		c-0.44-22.42,2.09-44.78,5.15-66.96c2.62-17.2599,8.46-34.5099,19.65-48.15C467.65,723.98,481.76,716.21,496.61,712.46z"/>
	<path fill="#BA5040" d="M1199.9301,724.99c-5.8201-4.18-3.17-15.07,4.1899-15.64c4.17-0.96,7.54,1.94,10.5699,4.34
		c20.3101,15.2,40.5701,30.46,60.9801,45.51c2.62,1.92,5.7,4.2,5.8999,7.76c0.75,5.36-3.83,9.11-6.9099,12.81
		c-16.6801,18.9-33.4301,37.74-49.88,56.84c23.21,12.31,46.35,24.73,69.48,37.18c5.33,2.4901,5.89,10.44,1.8199,14.32
		c-23.4399,25.37-47.1499,50.49-70.5199,75.92c-2.66,2.93-6.3,5.78-10.53,4.72c-5.66-0.78-8.72-7.8-6.1-12.68
		c0.3099-0.53,0.9399-1.58,1.25-2.11c13.2999-13.95,26.22-28.29,39.5-42.27c8.33-9.36,17.3099-18.14,25.4399-27.67
		c-23.03-12.82-46.54-24.86-69.66-37.56c-3.83-2.36-5.23-8.04-2.76-11.85c1.9401-2.95,4.5-5.4,6.79-8.06
		c16.71-18.91,33.36-37.88,50.05-56.81C1239.75,754.73,1219.65,740.1,1199.9301,724.99z"/>
	<path fill="#FFE2BA" d="M1214.6899,713.69c2.7201-4.42,9.15-5.97,13.3301-2.68c20.37,15.29,40.9,30.38,61.21,45.76
		c3.76,2.98,9.38,5.49,9.29,11.11c0.6699,4.27-2.9301,7.26-5.42,10.18c-14.33,16.34-28.75,32.6-43.0399,48.98
		c-2.7401,3.17-5.78,6.1-8.13,9.59c22.6799,12.17,45.38,24.3,68.0699,36.43c3.48,1.58,6.14,5.01,5.91,8.97
		c-0.12,4.4399-4.14,7.0699-6.64,10.25c-18.9501,20.4-38.02,40.67-56.89,61.14c-4.91,4.73-8.91,10.44-14.39,14.55
		c-4.5,2.23-9.84,0.17-12.4299-3.9399c23.37-25.4301,47.08-50.55,70.5199-75.92c4.0701-3.88,3.51-11.83-1.8199-14.32
		c-23.13-12.45-46.27-24.87-69.48-37.18c16.45-19.1,33.2-37.94,49.88-56.84c3.08-3.7,7.6599-7.45,6.9099-12.81
		c-0.2-3.56-3.2799-5.84-5.8999-7.76C1255.26,744.15,1235,728.89,1214.6899,713.69z"/>
	<path fill="#5AA6C8" d="M1388.46,743.46c19.4401,0.31,39.63,3.13,56.37,13.72c15.37,8.94,27.0601,23.07,35.39,38.59
		c8.17,15.39,12.9,32.4,15.48,49.57c5.65,41.55-0.6499,84.56-17.45,122.96c-7.67,16.97-17.5,33.11-30.17,46.83
		c-12.21,12.98-26.7999,24.26-43.7,30.35c-15.4301,6.35-32.5699,7.62-49.05,6.0801c-21.11-3.42-43.36-5.13-63.9399,1.8999
		c-15.15,5.0601-28.66,15.13-37.38,28.5601c-11.85,17.21-16.13,38.4199-17.4,58.95c-1.16,44.4501,11.67,88.3201,31.71,127.67
		c5.12,9.39,10.3,18.78,16.4,27.58c1.26,1.64,2.73,3.1,4.14,4.63c-0.39,0.05-1.1799,0.16-1.5699,0.2101
		c-4.1901-1.4801-8.38-2.92-12.65-4.1101c-10.41-2.86-20.28-7.4299-29.63-12.7899c-27.67-16.6-49.27-41.66-66.1901-68.8101
		c-21.1799-34.46-35.5399-73.26-40.9199-113.39c-1.05-13.2799-0.74-26.63-0.5801-39.9399
		c-0.0099-10.4401,2.8501-20.5601,5.6101-30.53c4.6399-12.22,10.98-24,20.2799-33.32c14.6001-13.79,34.75-21.59,54.8501-20.96
		c10.6599,0.05,21.3999-0.4,31.96,1.43c8.9299,1.69,18.0599,0.91,27.09,1c30.78-2.3,58.6-20.32,77.3-44.27
		c24.5-30.84,37.61-69.53,41.89-108.37c0.6399-14.97,0.5499-29.98,0.1499-44.96c-1.0699-12.7599-3.9099-25.35-7.6699-37.57
		L1388.46,743.46z"/>
	<path fill="#51A37E" d="M800.92,768.88c7.33-2.72,15.36-3.87,23.15-2.74c17.5,2.08,34.48,7.27,50.83,13.72
		c6.72,2.92,13.81,5.16,20.17,8.82c0.24,2.84-0.14,5.67-0.5,8.49c-7.55-0.75-15.06-1.81-22.62-2.48c-0.36-0.05-1.09-0.15-1.46-0.2
		c-5.59-6.25-13.37-9.7-20.82-13.16c-10.42-4.57-21.39-8.04-32.69-9.48c-6.25-0.98-12.88-0.99-18.81,1.44
		c-2.53,1.05-4.07,3.48-5.16,5.87c-4.47,10.07-6.62,21.05-11.74,30.85c-1.7,2.95-1.72,6.39-1.47,9.69c-1.62,2.15-3.25,4.44-3.53,7.2
		c-0.04-0.76-0.11-2.29-0.15-3.06c1.74-10.98,5.6-21.55,9.64-31.88C789.52,783.59,792.01,773.37,800.92,768.88z"/>
	<path fill="#51A37E" d="M1003.58,770.26c12.8-3.54,26.22-3.37,39.3799-2.85c9.1801,0.34,18.1901,5.88,21.86,14.44
		c3.41,7.78,7.1101,15.45,10.05,23.44c4.34,11.88,8.45,24.26,7.74,37.09c0.36,7.5-2.14,15.49-8.26,20.2
		c-8.0699,5.98-18.7,6.52-28.34,5.51c-9.6-0.58-18.84-3.46-28.02-6.1c-21.04-7.01-41.7-15.52-60.87-26.72
		c1.26-7.08,3.58-14.01,3.51-21.26c-0.09-9.81,1.27-20.35-3.9-29.21c4.24-0.93,8.13-2.92,12.21-4.33
		C980.34,776.57,991.77,772.74,1003.58,770.26 M1036.05,772.78c-13.7401,1.22-27.41,4.41-39.91,10.3199
		c-6,2.63-11.78,6.62-14.49,12.81l-0.44,0.04c-6.76-0.26-13.46,0.76-20.19,1.2c0.1,6.6,0.08,13.21,0.04,19.81
		c4.78-0.57,9.56-1.1,14.37-1.46c1.3,4.66,2.95,9.28,5.95,13.15c2.53,0.36,5.07,0.7599,7.64,0.99c12.38,0.94,24.63,3.11,36.83,5.43
		c11.6801,2.78,23.5801,5.24,34.53,10.34c3,1.51,6.41,3.26,7.66,6.6201c1.0499,2.72-1.1801,5.48-3.6001,6.5
		c-2.71,1.03-5.6399,1.23-8.48,1.67c-5.6699,0.99-11.26-1.03-16.9399-0.86c5.53,1.59,11.16,2.96,16.9399,3.35
		c4.7001,0.42,10.2201,2.12,14.2101-1.38c4.3999-2.03,7.01-6.48,8.3199-10.97c1.63-5.83-0.3099-12.06,1.78-17.81
		c1.26-3.95-3.53-6.59-3.22-10.47c0.34-4.82-2.65-8.8-4.05-13.2c-2.08-5.72-3.22-11.8-6.2-17.16c-0.5701-3.28-1.6901-6.42-2.75-9.55
		c-1.8201-3.16-4.1001-6.36-7.78-7.4301C1049.77,772.71,1042.8101,771.93,1036.05,772.78 M970.43,834.08
		c7.71,4.81,16.56,7.15,24.97,10.38c8.18,2.63,16.38,5.22,24.66,7.54c13.07,3.44,26.55,6.95,40.18,5.31
		c2.12-0.47,5.33-1.6,4.79-4.36c-7.03-5.84-16.35-7.65-24.89-10.25c-20.34-5.15-41.18-8.45-62.13-9.59
		C975.42,832.67,972.87,833.26,970.43,834.08z"/>
	<path fill="#6FB68E" d="M798.17,773.29c5.93-2.43,12.56-2.42,18.81-1.44c11.3,1.44,22.27,4.91,32.69,9.48
		c7.45,3.46,15.23,6.91,20.82,13.16c-11.83-1.11-23.69-0.45-35.51,0.41l-0.59,0.02c-6.76-6.45-14.8-11.65-23.72-14.52
		c-4.51-1.26-9.77-2.48-14.06,0.09c-2.61,1.29-3.42,4.28-4.13,6.86c-1.5,6.05-2.79,12.14-3.93,18.27c-0.42,2.09-0.84,4.18-1.22,6.29
		c0.72,1.26,1.48,2.56,2.21,3.84c-3.24,2.12-4.28,5.7-4.35,9.39c-1.03,7.6-1.85,15.36-0.58,22.99c0.75,4.64,2.71,8.94,4.32,13.32
		c-4.76-2.77-7.53-7.85-9.35-12.87c-2.57-7.03,0.17-14.87-3.31-21.68c0.28-2.76,1.91-5.05,3.53-7.2c-0.25-3.3-0.23-6.74,1.47-9.69
		c5.12-9.8,7.27-20.78,11.74-30.85C794.1,776.77,795.64,774.34,798.17,773.29z"/>
	<path fill="#6FB68E" d="M1036.05,772.78c6.76-0.85,13.72-0.07,20.22,1.9399c3.6799,1.07,5.96,4.27,7.78,7.4301
		c-4.65-2.11-9.8201-3.32-14.88-2.01c-10.27,1.92-19.0801,8.79-24.63,17.49c-8.28-1.29-16.66-1.56-25.0001-2.1
		c-5.97-0.61-11.96-0.25-17.89,0.3799c2.71-6.19,8.49-10.18,14.49-12.81C1008.64,777.19,1022.31,774,1036.05,772.78z"/>
	<path fill="#B95040" d="M899.23,781.14c7.52-4.19,16.27-5.83,24.82-5.52c9.12-0.38,18.22,1.07,27,3.43
		c2.85,0.64,4.27,3.47,5.68,5.75c5.17,8.86,3.81,19.4,3.9,29.21c0.07,7.25-2.25,14.18-3.51,21.26
		c19.17,11.2,39.83,19.71,60.87,26.72c9.1801,2.64,18.42,5.52,28.02,6.1c9.64,1.0099,20.27,0.47,28.34-5.51
		c6.12-4.71,8.62-12.7,8.26-20.2c0.71-12.83-3.4-25.21-7.74-37.09c-2.9399-7.99-6.64-15.66-10.05-23.44
		c6.2001,1.1,11.52,5.47,14.3301,11.04c5.4199,10.34,9.72,21.22,13.6899,32.18c3.9401,11.73,6.64,24.25,4.86,36.65
		c-1.36,8.39-7.7699,15.75-16,18c-8.0399,2.26-16.5399,1.77-24.75,0.79c-16.1-2.46-31.5499-7.9-46.6099-13.94
		c-13.08-5.61-26.08-11.48-38.39-18.63c-10.23,5.96-22.25,7.74-33.92,7.7c-7.4301-0.61-15-0.95-22.13-3.31
		c-16.1,8.79-33.02,16.05-50.35,22.04c-11.57,3.62-23.34,7.08-35.49,7.9c-7.71-0.01-15.75,0.86-23.07-2.13
		c-6.21-1.93-10.96-6.86-14.09-12.39c14.21,4.05,29.16,1.23,43.19-2.2c22.2599-6.12,43.75-15.02,63.98-26.1
		c-2.35-7.37-5.48-14.62-5.73-22.47c-0.88-6.59-0.67-13.24,0.23-19.81c0.36-2.82,0.74-5.65,0.5-8.49
		C896.13,786.04,896.24,782.43,899.23,781.14 M913.55,778.76c-5.27-0.24-10.14,2.16-14.02,5.57c-0.41,5.22-1.2401,10.4-1.78,15.62
		c-0.67,11.68-0.05,23.68,3.72,34.83c0.2401,0.49,0.72,1.47,0.96,1.96c8.61,3.14,18.25,3.2,27.27,2.1
		c8.63,0.27,17.13-2.16,24.69-6.2401c3.38-14.03,6.17-29.24,1.06-43.21c-1.33-2.94-2.75-6.64-6.2-7.53
		c-4.06-1.3-8.33-1.91-12.58-2.11C929.05,778.68,921.23,777.49,913.55,778.76z"/>
	<path fill="#E2925F" d="M913.55,778.76c7.68-1.27,15.5-0.08,23.12,0.99c3.15,1.38,6.67,3.06,7.89,6.57
		c4.16,10.68,3.7,22.49,2.25,33.68c-0.71,4.34-0.75,9.05-2.92,12.96c-4.03,3.27-9.33,4.36-14.19,5.88
		c-9.02,1.1-18.66,1.04-27.27-2.1c-0.24-0.49-0.72-1.47-0.96-1.96c0.57,0.16,1.69,0.47,2.25,0.6299c1.38,0.34,2.78,0.66,4.2,0.96
		c6.59,1.43,16.16-1.86,16.63-9.57c1.29-14.76,2.82-30.06-1.9-44.4C919.65,781.09,916.66,779.77,913.55,778.76z"/>
	<path fill="#86CCA7" d="M796.61,780.49c4.29-2.57,9.55-1.35,14.06-0.09c8.92,2.87,16.96,8.0699,23.72,14.52
		c-9.04,0.77-17.95,2.55-26.75,4.69c-5.11,1.63-9.89-1.66-14.95-1.89c-0.62,3-1,6.4301-4.14,7.9c1.14-6.13,2.43-12.22,3.93-18.27
		C793.19,784.77,794,781.78,796.61,780.49z"/>
	<path fill="#FECF67" d="M899.53,784.33c3.8799-3.41,8.75-5.81,14.02-5.57c3.11,1.01,6.1,2.33,9.1,3.64
		c4.72,14.34,3.19,29.64,1.9,44.4c-0.47,7.71-10.04,11-16.63,9.57c1.13-0.45,2.27-0.88,3.42-1.3c2.04-10.21,0.2-20.59-0.3-30.86
		c-0.84-6.69-0.46-13.55-2.1-20.13c-1.66-0.6-4.21-1.17-5.03,0.93c-4.93,8.02-4.09,17.94-4.24,26.99
		c0.53,7.87-0.18,16.35,4.05,23.41c-0.56-0.16-1.68-0.47-2.25-0.6299c-3.77-11.15-4.39-23.15-3.72-34.83
		C898.29,794.73,899.12,789.55,899.53,784.33z"/>
	<path fill="#DE6E5D" d="M936.67,779.75c4.25,0.2,8.52,0.81,12.58,2.11c3.45,0.89,4.87,4.59,6.2,7.53
		c5.11,13.97,2.32,29.18-1.06,43.21c-7.56,4.08-16.06,6.51-24.69,6.2401c4.86-1.52,10.16-2.61,14.19-5.88
		c2.17-3.91,2.21-8.62,2.92-12.96c1.45-11.19,1.91-23-2.25-33.68C943.34,782.81,939.82,781.13,936.67,779.75z"/>
	<path fill="#86CCA7" d="M1024.54,797.63c5.5499-8.7,14.36-15.57,24.63-17.49c5.0599-1.31,10.23-0.1,14.88,2.01
		c1.0599,3.13,2.1799,6.27,2.75,9.55c1.0199,6.47,2.3199,12.9,3.36,19.37c-1.48-0.97-2.9601-1.93-4.42-2.88
		c-1.3099-6.34-2.16-12.78-4.08-18.98c-8.52,0.13-16.4501,4.62-21.14,11.68c-5.16-1.22-10.35-2.34-15.62-2.93
		c-0.7001,2.46-1.34,4.93-1.9301,7.43c5.36,0.76,10.7001,1.73,15.98,2.93c-0.0499,1.48-0.09,2.97-0.12,4.46
		c-5.76-1.01-11.5-2.16-17.33-2.6c-0.06,2.23-0.11,4.47-0.15,6.71c5.16,1.29,10.47,1.78,15.64,3.03c2.39,0.34,3.51,2.66,4.85,4.39
		c4.26,6.25,10.12,11.18,15.92,15.94c2.79,2.36,6.15,3.9,9.6799,4.81c1.15-4.91,1.55-9.95,1.6201-14.98
		c1.2999,0.26,2.6,0.53,3.9199,0.81c0.9401,10.15,1.6801,20.93-2.8099,30.42c-3.99,3.5-9.51,1.8-14.2101,1.38
		c-5.7799-0.39-11.4099-1.76-16.9399-3.35c5.6799-0.17,11.27,1.85,16.9399,0.86c2.8401-0.44,5.77-0.64,8.48-1.67
		c2.42-1.02,4.65-3.78,3.6001-6.5c-1.25-3.36-4.66-5.11-7.66-6.6201c-10.95-5.1-22.85-7.56-34.53-10.34
		c-2.99-5.49-4.33-11.62-5.1-17.76c-14.83-2.96-29.99-1.67-44.99-2.22c0.18-2.21,0.37-4.41,0.57-6.6
		c15.12-1.8,30.31-0.05,45.39,1.26c0.1801-1.53,0.38-3.05,0.59-4.56c-14.6-2.36-29.38-2.32-44.12-2.35c1.01-2.3,2.01-4.59,3.02-6.89
		l0.44-0.04c5.93-0.6299,11.92-0.99,17.89-0.3799C1007.88,796.07,1016.26,796.34,1024.54,797.63z"/>
	<path fill="#FFE3BB" d="M903.91,785.01c0.82-2.1,3.3701-1.53,5.03-0.93c1.64,6.58,1.26,13.44,2.1,20.13
		c0.5,10.27,2.34,20.65,0.3,30.86c-1.15,0.42-2.29,0.85-3.42,1.3c-1.42-0.3-2.82-0.62-4.2-0.96c-4.23-7.06-3.52-15.54-4.05-23.41
		C899.82,802.95,898.98,793.03,903.91,785.01z"/>
	<path fill="#B7E0CF" d="M1040.52,800.89c4.6899-7.06,12.62-11.55,21.14-11.68c1.9199,6.2,2.77,12.64,4.08,18.98
		c1.46,0.95,2.9401,1.91,4.42,2.88c0.37,2.15,0.76,4.3,1.14,6.46c-1.3,0.05-2.5801,0.12-3.8501,0.2c-0.09,1.27-0.2,2.53-0.2699,3.82
		c-9.04-3.45-18.38-6.03-27.8-8.18c-0.01,2-0.13,4.04,0.21,6.04c1.42,1.51,3.5801,1.91,5.5,2.52c5.24,1.32,10.4701,2.73,15.54,4.66
		c2.3099,0.72,4.64,1.87,7.13,1.6299c0.42-1.95,0.64-3.9399,0.9299-5.9c1.15,0.57,2.3101,1.14,3.4901,1.74
		c0.2699,2.27,0.5499,4.54,0.7999,6.83c-1.3199-0.28-2.62-0.55-3.9199-0.81c-0.0701,5.03-0.4701,10.07-1.6201,14.98
		c-3.5299-0.91-6.8899-2.45-9.6799-4.81c-5.8-4.76-11.66-9.69-15.92-15.94c-1.34-1.73-2.46-4.05-4.85-4.39
		c-5.17-1.25-10.48-1.74-15.64-3.03c0.04-2.24,0.09-4.48,0.15-6.71c5.83,0.44,11.5699,1.59,17.33,2.6
		c0.03-1.4901,0.0701-2.98,0.12-4.46c-5.2799-1.2-10.62-2.17-15.98-2.93c0.59-2.5,1.23-4.97,1.9301-7.43
		C1030.17,798.55,1035.36,799.67,1040.52,800.89 M1039.47,808.25c4.4301,1.51,9,2.57,13.49,3.9c4.63,1.3199,8.9401,3.68,13.78,4.31
		c-0.23-2.62-0.65-5.2-1.2-7.75c-7.8201-3.11-15.92-5.42-24.04-7.59C1040.48,803.39,1039.89,805.8,1039.47,808.25z"/>
	<path fill="#6EB58E" d="M1066.8,791.7c2.98,5.36,4.12,11.44,6.2,17.16c1.4,4.4,4.39,8.38,4.05,13.2
		c-0.3101,3.88,4.48,6.52,3.22,10.47c-2.09,5.75-0.15,11.98-1.78,17.81c-1.3099,4.49-3.92,8.94-8.3199,10.97
		c4.49-9.49,3.75-20.27,2.8099-30.42c-0.25-2.29-0.53-4.56-0.7999-6.83c-0.29-2.19-0.53-4.36-0.88-6.53
		c-0.38-2.16-0.77-4.3101-1.14-6.46C1069.12,804.6,1067.8199,798.17,1066.8,791.7z"/>
	<path fill="#86CCA7" d="M834.98,794.9c11.82-0.86,23.68-1.52,35.51-0.41c0.37,0.05,1.1,0.15,1.46,0.2
		c1.12,2.49,2.26,4.97,3.41,7.47c-11.92-0.3799-23.88-1.08-35.77,0.07c0.62,1.44,1.18,2.93,1.97,4.31
		c5.44,0.91,10.94-0.63,16.42-0.32c6.98,0.32,14,0.58,20.91,1.73c0.37,2.29,0.76,4.59,1.15,6.9c-12.14-1.09-24.35-1.09-36.52-0.6
		c0.74,7.08,0.62,14.3-1.52,21.16c-9.69,1.64-19.43,3.14-28.95,5.65c1.81-2.18,3.81-4.37,4.64-7.15
		c1.78-5.45,0.18-11.15-0.48-16.6299c8.6-1.67,17.34-2.32,26.02-3.44c-0.66-2.35-1.32-4.69-2.02-7.01
		c-8.4901,0.63-16.88,2.12-25.31,3.23c-2.4,0.69-3.6-1.94-5.16-3.16c9.34-2.79,19.11-3.36,28.67-4.98
		C838.02,799.51,836.54,797.17,834.98,794.9z"/>
	<path fill="#B6E0D0" d="M807.64,799.61c8.8-2.14,17.71-3.92,26.75-4.69l0.59-0.02c1.56,2.27,3.04,4.61,4.43,7.02
		c-9.56,1.62-19.33,2.19-28.67,4.98c1.56,1.22,2.76,3.85,5.16,3.16c8.43-1.11,16.8199-2.6,25.31-3.23c0.7,2.32,1.36,4.66,2.02,7.01
		c-8.68,1.12-17.42,1.77-26.02,3.44c0.66,5.48,2.2599,11.18,0.48,16.6299c-0.83,2.78-2.83,4.97-4.64,7.15
		c-6.77,1.79-13.74,3.65-19.59,7.63c-2.85,1.74-1.97,5.35-1.85,8.11c-4.68-1.19-4.56-6.6-5.16-10.42
		c-0.95-6.57,1.14-13.12,0.58-19.65c-0.46-0.4-1.38-1.19-1.84-1.59c0.07-3.69,1.11-7.27,4.35-9.39c-0.73-1.28-1.49-2.58-2.21-3.84
		c0.38-2.11,0.8-4.2,1.22-6.29c3.14-1.47,3.52-4.9,4.14-7.9C797.75,797.95,802.53,801.24,807.64,799.61 M800.36,801.51
		c-3.02,0.59-6.09,1.5-8.6,3.34c-1.43,2.08-1.3,4.76-1.66,7.17c6.54-1,12.78-3.32,19.1-5.19
		C807.94,803.32,804.12,800.73,800.36,801.51 M796.96,814.87c-2.84,0.88-6.19,1.39-8.13,3.88c-0.77,1.91-0.47,4.08-0.64,6.12
		c6.9-2.01,13.69-4.42,20.75-5.88c2.39-0.65,5.01-0.78,7.22-1.99c0.36-2.37-0.56-5.56-3.24-6.07
		C807.5,811.78,802.29,813.61,796.96,814.87z"/>
	<path fill="#6FB68E" d="M871.95,794.69c7.56,0.67,15.07,1.73,22.62,2.48c-0.9,6.57-1.11,13.22-0.23,19.81
		c-4.56-1.03-9.19-1.69-13.86-1.73c0.06,6.14-0.37,12.65-4.57,17.53C864.56,832.72,853.25,834,842,835.41
		c2.14-6.86,2.26-14.08,1.52-21.16c12.17-0.49,24.38-0.49,36.52,0.6c-0.39-2.31-0.78-4.61-1.15-6.9
		c-6.91-1.15-13.93-1.41-20.91-1.73c-5.48-0.31-10.98,1.23-16.42,0.32c-0.79-1.38-1.35-2.87-1.97-4.31
		c11.89-1.15,23.85-0.45,35.77-0.07C874.21,799.66,873.07,797.18,871.95,794.69 M876.11,802.32c1.12,1.9,1.53,4.98,4.2,5.26
		c4.19,0.65,8.42,1.29,12.68,1.32c0.59-1.46,0.15-3.06,0.19-4.57C887.48,803.74,881.8,803,876.11,802.32z"/>
	<path fill="#6FB68E" d="M961.02,797.15c6.73-0.44,13.43-1.46,20.19-1.2c-1.01,2.3-2.01,4.59-3.02,6.89
		c14.74,0.03,29.52-0.01,44.12,2.35c-0.21,1.51-0.41,3.03-0.59,4.56c-15.08-1.31-30.27-3.06-45.39-1.26
		c-0.2,2.19-0.39,4.39-0.57,6.6c15,0.55,30.16-0.7401,44.99,2.22c0.77,6.14,2.11,12.27,5.1,17.76c-12.2-2.32-24.45-4.49-36.83-5.43
		c-2.57-0.23-5.11-0.63-7.64-0.99c-3-3.87-4.65-8.4901-5.95-13.15c-4.81,0.36-9.59,0.89-14.37,1.46
		C961.1,810.36,961.12,803.75,961.02,797.15 M962.43,804.53c-0.17,1.5099-0.33,3.02-0.47,4.56c4.88,0.1,9.75-0.4301,14.55-1.38
		c0.34-1.39,0.7-2.78,1.07-4.16C972.51,803.48,967.45,803.89,962.43,804.53z"/>
	<path fill="#FCE3BA" d="M800.36,801.51c3.76-0.78,7.58,1.81,8.84,5.32c-6.32,1.87-12.56,4.19-19.1,5.19
		c0.36-2.41,0.23-5.09,1.66-7.17C794.27,803.01,797.34,802.1,800.36,801.51z"/>
	<path fill="#51A37D" d="M876.11,802.32c5.69,0.68,11.37,1.42,17.07,2.01c-0.04,1.51,0.4,3.11-0.19,4.57
		c-4.26-0.03-8.49-0.67-12.68-1.32C877.64,807.3,877.23,804.22,876.11,802.32z"/>
	<path fill="#FDE3BC" d="M1039.47,808.25c0.42-2.45,1.01-4.86,2.03-7.13c8.12,2.17,16.22,4.48,24.04,7.59
		c0.5499,2.55,0.97,5.13,1.2,7.75c-4.84-0.63-9.15-2.9901-13.78-4.31C1048.47,810.82,1043.9,809.76,1039.47,808.25z"/>
	<path fill="#51A47D" d="M962.43,804.53c5.02-0.64,10.08-1.05,15.15-0.98c-0.37,1.38-0.73,2.77-1.07,4.16
		c-4.8,0.95-9.67,1.48-14.55,1.38C962.1,807.55,962.26,806.04,962.43,804.53z"/>
	<path fill="#FCE3BB" d="M796.96,814.87c5.33-1.26,10.54-3.09,15.96-3.94c2.68,0.51,3.6,3.7,3.24,6.07
		c-2.21,1.21-4.83,1.34-7.22,1.99c-7.06,1.46-13.85,3.87-20.75,5.88c0.17-2.04-0.13-4.21,0.64-6.12
		C790.77,816.26,794.12,815.75,796.96,814.87z"/>
	<path fill="#FDE3BC" d="M1039.59,819.41c-0.34-2-0.22-4.04-0.21-6.04c9.42,2.15,18.76,4.73,27.8,8.18
		c0.38,0.19,1.13,0.57,1.5099,0.77c-0.2899,1.96-0.5099,3.95-0.9299,5.9c-2.49,0.2401-4.8201-0.91-7.13-1.6299
		c-5.0699-1.9301-10.3-3.34-15.54-4.66C1043.17,821.32,1041.01,820.92,1039.59,819.41z"/>
	<path fill="#51A27E" d="M880.48,815.25c4.67,0.04,9.3,0.7,13.86,1.73c0.25,7.85,3.3799,15.1,5.73,22.47
		c-20.23,11.08-41.72,19.98-63.98,26.1c-14.03,3.43-28.98,6.25-43.19,2.2c-8.19-2.4-15.25-9.25-17.02-17.73
		c-2.58-8.53-1.66-17.62,0.24-26.18c0.04,0.77,0.11,2.3,0.15,3.06c3.48,6.81,0.74,14.65,3.31,21.68c1.82,5.02,4.59,10.1,9.35,12.87
		c10.19,5.31,21.64,0.33,32.17-1.01c-6.7,0.22-13.42,0.09-20.11-0.45c-3.36-0.24-6.39-1.81-9.38-3.19c-0.12-2.76-1-6.37,1.85-8.11
		c5.85-3.98,12.82-5.84,19.59-7.63c9.52-2.51,19.26-4.01,28.95-5.65c11.25-1.41,22.56-2.69,33.91-2.6299
		C880.11,827.9,880.54,821.39,880.48,815.25 M859.73,837.72c-13.17,1.36-26.36,2.95-39.3,5.83c-7.95,1.94-16.13,3.6-23.38,7.53
		c-0.98,0.8-2.97,1.31-2.57,2.97c0.92,2.69,3.95,3.66,6.52,3.96c11.69,1.11,23.41-0.77,34.8-3.31c12.91-2.9,25.64-6.55,38.27-10.48
		c5.17-1.9399,11.03-2.91,15.27-6.6899C879.54,835.78,869.58,837.26,859.73,837.72z"/>
	<path fill="#87CBA8" d="M1067.45,817.73c1.27-0.08,2.55-0.15,3.8501-0.2c0.35,2.17,0.59,4.34,0.88,6.53
		c-1.1801-0.6-2.3401-1.17-3.4901-1.74c-0.3799-0.2-1.1299-0.58-1.5099-0.77C1067.25,820.26,1067.36,819,1067.45,817.73z"/>
	<path fill="#86CAA7" d="M785.19,825.14c0.46,0.4,1.38,1.19,1.84,1.59c0.56,6.53-1.53,13.08-0.58,19.65
		c0.6,3.82,0.48,9.23,5.16,10.42c2.99,1.38,6.02,2.95,9.38,3.19c6.69,0.54,13.41,0.67,20.11,0.45c-10.53,1.34-21.98,6.32-32.17,1.01
		c-1.61-4.38-3.57-8.68-4.32-13.32C783.34,840.5,784.16,832.74,785.19,825.14z"/>
	<path fill="#86CCA7" d="M970.43,834.08c2.44-0.82,4.99-1.41,7.58-0.97c20.95,1.14,41.79,4.44,62.13,9.59
		c8.54,2.6,17.86,4.41,24.89,10.25c0.5399,2.76-2.67,3.89-4.79,4.36c-13.63,1.64-27.11-1.87-40.18-5.31
		c-8.28-2.32-16.48-4.91-24.66-7.54C986.99,841.23,978.14,838.89,970.43,834.08z"/>
	<path fill="#86CCA7" d="M859.73,837.72c9.85-0.46,19.81-1.9399,29.61-0.1899c-4.2401,3.78-10.1,4.75-15.27,6.6899
		c-12.63,3.9301-25.36,7.58-38.27,10.48c-11.39,2.54-23.11,4.42-34.8,3.31c-2.57-0.3-5.6-1.27-6.52-3.96
		c-0.4-1.66,1.59-2.17,2.57-2.97c7.25-3.93,15.43-5.59,23.38-7.53C833.37,840.67,846.56,839.08,859.73,837.72z"/>
	<path fill="#DE6F5E" d="M893.76,935.77c13.69-13.35,34.21-19.03,52.89-15.32c14.47,2.47,27.81,10.78,36.75,22.37
		c4.37,6.26,7.86,13.15,9.84,20.55c4.61,18.59,0.09,39.6-13.28,53.62c-10.94,12.42-27.38,19.84-43.95,19.48
		c-9.76,0.3101-19.66-1.6799-28.28-6.34c-2.72-1.5-5.42-3.01-8.13-4.49c-13.53-10.76-23.6-26.99-23.75-44.66
		C874.63,964.25,881.52,947.19,893.76,935.77z"/>
	<path fill="#B9503F" d="M983.4,942.82c4.42,2.79,7.33,7.27,10.39,11.39c6.17,9.34,9.94,20.5,9.48,31.78
		c1.04,19.35-9.63,38.11-25.37,48.91c-7.38,4.9-15.81,8.1799-24.54,9.62c-12.27,1.3099-25.17,0.3099-36.29-5.4401
		c-6.48-3.48-13.02-7.45-17.47-13.4399c2.71,1.48,5.41,2.99,8.13,4.49c8.62,4.66,18.52,6.65,28.28,6.34
		c16.57,0.36,33.01-7.0599,43.95-19.48c13.37-14.02,17.89-35.03,13.28-53.62C991.26,955.97,987.77,949.08,983.4,942.82z"/>
	<path fill="#FFE2BA" d="M574,956.29c1.3-2.25,2.64-4.48,3.97-6.7c5.21,0.61,10.4301,1.18,15.61,2.0699
		c-2.05,3.97-4.08,8.45-8.13,10.76c-3.54,1.15-8.01,0.65-10.6-2.25C573.71,959.27,573.09,957.53,574,956.29z"/>
	<path fill="#FFE3BB" d="M1161.39,968.38c14.83-9.51,32.26-14.42,49.7-15.96l-0.9099,1.54c-0.3101,0.53-0.9401,1.58-1.25,2.11
		c-7.5901,2.43-15.3,4.7-22.3501,8.49c-15.2799,7.85-28.47,19.79-37.49,34.44c-12.62,19.64-18.2,43.08-19.51,66.1801
		c-1.1799,24.0599,2.03,48.1699,7.76,71.5099c9.92,38.91,26.6801,76.2101,50.2101,108.8201c13.62,18.74,29.4299,36.1,48.1499,49.87
		c2.4801,1.8,5.7201,2.04,8.3201,3.64c1.9199,1.78,3.08,4.33,5.45,5.65c9.65,5.7899,19.91,10.64,30.67,14.01
		c6.08,1.88,12.23,3.62,18.13,6.08c16.8099,6.52,31.83,18.9,39.41,35.49c7.75,17.8,8.1399,37.86,5.0099,56.77
		c-3.84,23.5599-12.2899,46.1899-23.3999,67.26c-7.87,14.84-17.02,29.1599-28.3501,41.62
		c-10.6899,11.7899-24.1599,20.6799-38.2599,27.86c-12.5901,6.22-26.0801,10.77-39.9901,12.8199
		c-8.6,1.66-17.3799,0.8401-26.0699,0.9601c5.1801-1.54,10.64-1.5901,15.87-2.9301c24.7-5.41,47.84-17.61,66.42-34.72
		c13.5-13.6801,24.1899-29.89,33.11-46.84c9.58-18.4501,17.1799-38.04,21.47-58.42c3.74-17.73,5.02-36.42,0.08-54.05
		c-3.2899-10.7999-8.7599-21.25-17.24-28.87c-10.2899-10.1899-23.76-16.4099-37.48-20.51c-6.01-1.7-11.9-3.75-17.71-6
		c8.03,23.76,16.46,47.38,24.4299,71.17c2.26,5.16-1.61,11.17-7.0699,11.8199c-31.41,5.2301-62.84,10.38-94.26,15.5801
		c0.01,28.73-0.03,57.46,0.03,86.1899c-0.0601,3.99,0.38,8.28-1.48,11.98c-2.23,3.6101-6.8201,4.28-10.7101,4.28
		c-27.0299,0.03-54.0699-0.02-81.09,0.04c-3.3199-0.21-7.1799-0.01-9.75-2.46c-1.92-1.7201-2.34-4.3601-3.13-6.65
		c26.98-0.04,53.96,0.0599,80.9301-0.05c4.4199,0.3,8.0599-3.78,7.6499-8.1c-0.0099-31.25,0.03-62.49-0.0099-93.74
		c30.84-4.72,61.58-10.13,92.38-15.13c3.1399-0.63,7.0499-1.17,8.71-4.3101c2.24-4.3199,0.65-9.2999-1.04-13.5
		c-6.78-19.63-13.51-39.2799-20.38-58.88c-2.2-6.71-4.41-13.4199-7.0499-19.97c-2.2001-5.48-9.9701-6.22-14.0901-2.48
		c-0.48,0.34-1.46,1.01-1.9399,1.35c-29.8101-23.6699-52.1901-55.4399-69.3201-89.15
		c-20.4299-41.9099-33.49-88.2699-32.1599-135.1699c0.83-20.37,4.71-40.9401,13.84-59.31
		C1133.48,992.3,1145.92,978.01,1161.39,968.38z"/>
	<path fill="#5AA6C8" d="M567.94,973.94c5.33-2.52,11.37-1.74,17.04-1.32c26.98,3.26,53.89,8.08,79.78,16.53
		c16.32,5.55,32.41,12.35,46.51,22.4c6.27,4.32,11.47,9.95,16.69,15.45c6.28,7.78,10.61,17.22,12,27.15
		c-13.63-3.24-27.4-5.79-41.28-7.6801c-7.55-0.84-15.05-2.38-22.68-2.33c-4.65-0.08-8.7,2.53-13,3.9
		c-18.56,6.33-38.4,9.8999-58.03,7.9399c-13.34-1.27-26.49-5.7-37.4-13.5599c-9.34-6.2301-16.61-15.0901-22.27-24.7001
		c-6.73-10.42-9.88-22.54-13.87-34.15l0.85-0.16C544.46,981.51,556.5,978.61,567.94,973.94z"/>
	<path fill="#DE6F5E" d="M896.76,1077.73c17.93-15.28,45-17.78,65.92-7.39c8.45,4.5801,16.07,10.8401,22.02,18.36
		c2.77,5.76,6.28,11.24,7.99,17.4701c4.41,15.9399,2.46,33.88-6.75,47.8199c-13.71,22.14-42.98,32.59-67.76,24.9301
		c-6.63-1.7001-12.47-5.37-18.49-8.4801c-6.73-5.7-12.82-12.3199-17.07-20.1c-8.96-15.83-9.12-35.96-1.6-52.37
		C884.61,1090.1,890.45,1083.53,896.76,1077.73z"/>
	<path fill="#B9503F" d="M984.7,1088.7c7.42,5.8401,12.17,14.38,15.54,23.05c3.36,8.67,3.36,18.15,2.79,27.3
		c-2.1,16.3199-11.61,31.58-25.39,40.62c-14.01,9.5699-32.19,12.6-48.59,8.33c-11.22-2.6899-22.02-8.5601-29.36-17.5601
		c6.02,3.1101,11.86,6.78,18.49,8.4801c24.78,7.6599,54.05-2.79,67.76-24.9301c9.21-13.9399,11.16-31.88,6.75-47.8199
		C990.98,1099.9399,987.47,1094.46,984.7,1088.7z"/>
	<path fill="#B95040" d="M1215.21,1290.99c4.12-3.74,11.89-3,14.0901,2.48c2.6399,6.55,4.85,13.26,7.0499,19.97
		c6.87,19.6001,13.6,39.25,20.38,58.88c1.6901,4.2001,3.28,9.1801,1.04,13.5c-1.66,3.14-5.5701,3.6801-8.71,4.3101
		c-30.8,5-61.54,10.41-92.38,15.13c0.0399,31.25,0,62.49,0.0099,93.74c0.41,4.3199-3.23,8.4-7.6499,8.1
		c-26.9701,0.11-53.9501,0.01-80.9301,0.05c-3.97-0.15-8.02,0.47-11.91-0.42c-4.3099-2.33-6.59-8.6899-3.4399-12.8199
		c1.92-3.1801,5.66-4.6,9.26-4.37c25.65,0.11,51.2999-0.0701,76.95,0.11c0.28-27.9,0.04-55.8,0.11-83.7001
		c0.16-4.58-0.96-9.7999,2.0801-13.7c1.52-2.27,4.2799-3.04,6.8199-3.45c30.0701-4.9501,60.11-10.05,90.1801-14.9701
		c-8.02-24.74-17.0601-49.14-25.1801-73.84C1211.74,1296.8101,1213.21,1293.47,1215.21,1290.99z"/>
	<path fill="#FFE3BA" d="M553.25,1312.53c2.62-2.8101,5.06-5.79,7.7-8.5801c-2.25,28.38-5.06,56.7101-7.45,85.0701
		c-0.51,4.78,3.58,9.23,8.42,8.88c28.47,0.0399,56.95-0.05,85.42,0.0399c4.53,23.79,9.87,47.42,14.5099,71.1801
		c0.71,3.03,1.22,6.29,3.15,8.84c2.47,2.7001,6.53,2.99,9.89,2.0701c21.39-5.29,42.69-10.98,64.09-16.23
		c4.87-1.3201,9.93-2.05,14.56-4.13c0.97,0.13,2.91,0.39,3.88,0.5199c1.22,2.02,2.3,4.25,2.1,6.7201c0.36,4.48-3.7,7.96-7.83,8.6699
		c-28.56,7.13-57.12,14.28-85.68,21.42c-4.45,1.45-10.4-0.62-11.41-5.58c-5.33-25.3-10.61-50.62-15.74-75.9601
		c-27.97-0.01-55.94,0.04-83.91-0.02c-5.24,0.3701-10.47-3.97-9.89-9.4399C547.71,1374.84,550.63,1343.6899,553.25,1312.53z"/>
	<path fill="#5AA6C8" d="M880.12,1337.11c14.03-9.2,29.82-17.21,46.95-17.48c16.72-0.24,32.44,8.61,43.22,20.99
		c14.68,16.26,23.82,36.61,31.2401,57c-16.35,7.16-30.9,17.8101-43.85,30c-4.33,4.34-8.64,8.7-13.06,12.95
		c-27.24,28.51-49.82,61.0601-70.55,94.4901c-5.32,8.75-10.57,17.5599-15.44,26.5699c-2.44,5.6801-3,11.95-5.15,17.75
		c-5.16,17.84-12.55,35.04-22.19,50.92c-5.25,7.61-10.55,15.2799-17.4,21.5699c-13.2,14.3-32.35,23.3-51.94,22.9401
		c-19.12,0.6399-37.28-6.9701-53.8-15.88c-14.11-8.13-27.23-17.91-39.4301-28.6801c-11.52-9.72-21.52-21.0601-32.6899-31.13
		c6.58,1.55,13.1899,3.4301,20.0099,3.42c7.02-0.01,14.16,0.38,21.04-1.3301c8.36-2.13,16.44-5.5299,23.58-10.4199
		c6.36-3.8301,11.2401-9.51,16.47-14.67c8.38-8.3,14.38-18.58,20.12-28.79c8.56-16.5,14.96-34.11,19.3-52.1799
		c1.88-7.7001,6.77-14.09,10.52-20.92c20.46-34.64,43.29-68.02,69.98-98.2c5.87-6.12,11.98-12.02,17.93-18.0601
		C862.56,1350.12,871.37,1343.59,880.12,1337.11z"/>
	<path fill="#5AA6C8" d="M1345.04,1356.08c8.71,5.13,17.89,9.51,27.6499,12.26c9.02,2.4401,17.78,5.8,26.2401,9.74
		c14.6899,7.8501,28.5599,18.2301,37.47,32.5701c11.26,16.78,15.48,37.38,15.46,57.35c-0.5499,37.27-13.5,73.29-31.3199,105.64
		c-10.3301,17.9299-22.1001,35.36-37.41,49.4399c-17.46,15.65-38.51,27.0801-60.79,34.2101c-13.73,4.0399-27.95,7.1799-42.34,6.52
		c-21.3,0.97-42.55-4.64-61.41-14.3501c-22.0299-11.5599-40.64-28.86-55.59-48.59c-2.52-3.49-5.6801-6.6-7.1899-10.6899
		c7.99,1.5199,16.1299,1.6599,24.24,1.5599c18.95,0.37,37.6799-4.33,55.21-11.26c16.4399-6.85,31.98-16.01,45.52-27.61
		c16.13-14.34,28.64-32.21,39.25-50.87c18.35-33,31.39-69.92,31.65-108.02C1351.3,1381.12,1349.59,1368.17,1345.04,1356.08z"/>
</g>
</svg>
