<?xml version="1.0" standalone="yes"?>
<svg xmlns="http://www.w3.org/2000/svg" xmlns:xlink="http://www.w3.org/1999/xlink" xmlns:svg="http://www.w3.org/2000/svg" xmlns:dc="http://purl.org/dc/elements/1.1/" xmlns:cc="http://web.resource.org/cc/" xmlns:rdf="http://www.w3.org/1999/02/22-rdf-syntax-ns#" width="840" height="450">
<path style="fill:#ffffff; stroke:none;" d="M0 0L0 450L840 450L840 0L0 0z"/>
<path style="fill:#d8e5f2; stroke:none;" d="M456 28C462.602 28.0226 472.526 33.2407 474 24C466.58 20.1583 474.798 15.0682 475 9C466.717 10.9863 456.704 19.4702 456 28z"/>
<path style="fill:#e6eff7; stroke:none;" d="M152 21L141 42L123 44L123 48C103.763 48 90.0597 57.8803 75.8156 69.3711C70.4829 73.673 63.189 76.5168 62 84L51 97L48 103L48 104L50 105C44.5672 109.373 43.0416 121.404 42.9992 128C42.8967 143.952 42 159.976 42 176C32.5462 179.138 40.6298 193.033 41.74 199.09C42.4043 202.714 41.1137 207.443 44.4336 210.062C53.8155 217.466 66.2045 209.59 76.0394 210.611C82.9619 211.33 89.0611 216.763 96 218L96 211L106 212C106 206.935 102.394 188.44 109.143 186.751C115.706 185.107 118.44 201.633 120 206L126 206L126 197L139 216C148.719 215.318 146.68 206.087 149.598 199.09C150.922 195.914 153.907 194.332 155 191L150 192C147.902 197.252 139.472 204.509 134 206C133.234 191.232 121.172 178.894 107 179C105.803 174.662 103.374 173.325 99 173L104 211L86 200L91 213C84.6015 211.317 82.1569 205.136 76.5216 202.769C69.9221 199.996 61.4837 204.641 55.7199 199.196C45.2966 189.349 43 170.383 43 157C43 118.946 59.2701 85.6903 90.1698 63C99.0703 56.4641 112.256 51.8248 123.015 49.4745C129.001 48.1668 136.403 48.9706 141.701 45.4668C146.617 42.2153 150.844 32.3611 153 27L174 40L174 39C168.644 34.4951 166.025 31.0901 166 24L152 21z"/>
<path style="fill:#c7d6e8; stroke:none;" d="M628 21L634 25L628 21z"/>
<path style="fill:#e6eff7; stroke:none;" d="M346 60L373 55L376 64C381.068 66.3264 381.843 71.4608 385.456 75.3303C392.412 82.7809 405.791 92.5171 416 94C419.752 105.424 438.172 109.663 445.697 118.133C450.166 123.164 449.999 130.716 450 137L437.09 134.308L427 139L426 139L426 143L432 143C435.872 135.992 442.731 136.725 443 145L451 146C452.653 143.051 456.268 141.238 457.343 137.996C460.16 129.492 451.97 113.453 443 112C441.333 105.925 432.269 96.92 426 96C424.08 90.586 413.581 83.8165 408 83L408 80L404 80L404 75L400 75C396.573 64.3878 394.579 59.7343 397 48C394.002 44.037 394.963 38.576 400 37C402.046 30.1502 415.878 29.8143 422 28C418.488 22.2934 413.563 25.6802 408 25.9599C402.194 26.2518 393.369 26.9048 388.684 30.8534C381.082 37.2605 377.71 46.3922 367.91 51.2153C360.51 54.8576 350.377 51.8882 346 60z"/>
<path style="fill:#9dbce0; stroke:none;" d="M153 27L142.451 44.3009L115 54L115 55L142.671 48.1458L155 33C155.506 42.1377 165.508 41.938 173 42L173 41C161.258 40.072 158.144 37.6097 155 27L153 27z"/>
<path style="fill:#c9daf0; stroke:none;" d="M156 28C156.009 40.2117 167.239 41.6876 178 43L162.969 36.0964L156 28z"/>
<path style="fill:#86a8d0; stroke:none;" d="M147 42C153.056 39.5055 154.458 42.5811 160 44.3866C166.149 46.3901 172.615 46.3777 179 48.9182C185.06 51.3294 190.652 57.5008 197 58L200 68L224 86C220.548 76.4734 209.009 70.5695 201.904 63.9606C198.504 60.7989 198.649 56.704 196.143 53.1474C192.11 47.4258 184.376 46.0007 178 46L178 43C170.038 41.9938 156.129 43.0186 155 33C150.378 34.3597 148.428 37.532 147 42z"/>
<path style="fill:#d8e5f2; stroke:none;" d="M495 39L494 48L498 48L502 52L502 48L506 43L495 39z"/>
<path style="fill:#5785b9; stroke:none;" d="M123 54L142 50.8526L154.039 43.9637L188 53L161 44.3117L150.04 40.6227L138.985 49.7716L123 54z"/>
<path style="fill:#d8e5f2; stroke:none;" d="M621 40L621 46L624 46L621 40z"/>
<path style="fill:#e6eff7; stroke:none;" d="M178 41L178 44C190.248 44.7965 196.604 56.6226 206 62C204.925 58.125 203.988 55.288 200 54C198.457 43.8248 186.858 41.0068 178 41z"/>
<path style="fill:#294e79; stroke:none;" d="M126 54L126 55L128 58C121.15 59.4337 115.301 63.7837 112 70L107 68C108.504 76.5972 103.596 81.7922 95 82L95 84L100 84L96 96L99 96L99 97C95.0466 106.421 99.3466 119.607 104 128L68 122L67 136L71 134C72.6049 141.451 82.9973 132.444 87 132.139C92.3761 131.729 105.687 143.615 106 148L110 148L117 128C104.212 127.992 97.2916 114.769 99.2824 102.09C99.9755 97.6762 104.806 91.4692 106.603 87.0934C108.271 83.0305 113.457 82.4359 114 78L121 70C125.029 69.7287 127.661 69.0119 129 65L160 55L162 48L154 43.5386L140.576 51.6559L126 54z"/>
<path style="fill:#aac2de; stroke:none;" d="M178 44L178 46L184 46L184 44L178 44z"/>
<path style="fill:#3f71ab; stroke:none;" d="M158 46L158 47L162 48L160 55L129 65L121 70L114 78L106.5 85.1667L104 96C112.469 95.743 110.448 89.8942 116.059 85.4337C119.205 82.9322 123.404 84.031 126.416 81.8217C132.127 77.6321 136.475 70.9549 143 67.1481C155.105 60.0859 170.871 64 184 64L184 67C194.83 67.1267 208.935 77.3571 212 88L216 93L219 93L219 98L230 96C226.668 83.7977 210.694 74.6881 201.043 67.7677C196.46 64.4814 195.428 58.9403 191.12 55.385C183.42 49.0287 167.351 45.8069 158 46z"/>
<path style="fill:#bad5ee; stroke:none;" d="M61 94C68.5607 89.3345 72.8911 79.5811 79.9236 73.9197C86.491 68.6328 104.151 63.9281 107 56L129 50C122.661 47.3649 117.025 51.9663 110.999 53.5C90.9889 58.5929 69.3122 74.6115 61 94z"/>
<path style="fill:#405d7f; stroke:none;" d="M122 54L122 55L141 53L122 54z"/>
<path style="fill:#aac2de; stroke:none;" d="M197 53C199.617 73.1605 232.436 79.5549 234 100L235 100C234.812 83.976 218.938 76.1699 208.568 66.8989C203.912 62.7364 202.406 56.6219 197 53z"/>
<path style="fill:#5785b9; stroke:none;" d="M112 55L112 57L122 55L112 55z"/>
<path style="fill:#193a5c; stroke:none;" d="M99 65L112 70L128 55C118.962 55.0249 105.309 58.1468 99 65z"/>
<path style="fill:#c7d6e8; stroke:none;" d="M332 168L316 174L308 182L311.028 202.257L322 202.325L344 205L342 210L374.999 209.624L386 205C384.927 189.716 361.818 188.883 353.796 178.244C347.514 169.913 349.61 151.052 353.519 142C355.254 137.981 358.688 135.124 360 131C367.086 130.98 379.723 126.679 384 134C391.895 134.999 399.237 139.461 406.997 139.905C415.34 140.383 420.025 131.62 427 141L437.09 134.583L450 137C450 130.857 450.466 123.298 446.437 118.133C438.837 108.393 422.097 105.403 416 94C405.704 91.3579 393.681 82.8328 386.224 75.3303C382.398 71.4815 381.598 65.577 376 64L373 55C366.71 55.0173 357.912 54.6866 352 56.8187C340.191 61.0777 335.599 71.3272 330.871 81.5756C316.757 112.172 324.409 137.188 332 168z"/>
<path style="fill:#6f98c5; stroke:none;" d="M107 58L112 57L107 58z"/>
<path style="fill:#405d7f; stroke:none;" d="M102 62L114 58C109.852 56.5286 104.463 58.4008 102 62z"/>
<path style="fill:#6f95bc; stroke:none;" d="M195 58L200 67L197 58L195 58z"/>
<path style="fill:#c9daf0; stroke:none;" d="M636 59L637 64L631 63L633 76L640 65L640 59L636 59z"/>
<path style="fill:#aac2de; stroke:none;" d="M331 150L336 149L341 147C341.652 132.948 350.164 119.226 365.015 117.873C369.984 117.421 374.902 119.954 380 120L380 124L395 125C396.533 132.593 423.163 130.859 430 131L429 128L434 122L421.157 105.959L411 96C401.622 95.7005 389.095 88.1311 381.427 82.777C378.224 80.5401 375.52 76.0264 371.615 74.966C366.565 73.5947 364.527 83.4404 358.039 81.3526C352.047 79.4243 351.405 73.1852 352 68C356.809 68.0016 358.898 65.5367 360 61C341.417 59.5354 334.112 75.7129 330.157 91.9606C325.668 110.399 318.296 132.355 331 150z"/>
<path style="fill:#c9daf0; stroke:none;" d="M624 60L624 63L614 64L614 65L622 65L629 80L630 80L630 61L624 60z"/>
<path style="fill:#aac2de; stroke:none;" d="M627 61L628 67L631 63L635 65C633.216 60.8081 631.384 60.3207 627 61z"/>
<path style="fill:#5785b9; stroke:none;" d="M96 62L96 64L101 63L96 62z"/>
<path style="fill:#c9daf0; stroke:none;" d="M206 62C206.943 68.4329 212.274 68.8573 216.625 72.6335C223.784 78.8463 228.977 85.2411 233.581 93.3241C237.404 100.036 228.087 100.759 226.587 106.055C225.079 111.38 228.477 122.651 230.843 127.482C234.87 135.706 243.633 131.128 249 136C251.774 125.43 240.57 129.564 236.43 126.998C233.455 125.155 230.726 117.276 229.805 114C227.302 105.104 238.126 106.93 238.481 99.9452C239.025 89.2527 228.089 81.2902 221.934 74.3712C216.922 68.7362 214.419 62.566 206 62z"/>
<path style="fill:#5785b9; stroke:none;" d="M128 80L129 80L143 74L142 71C153.404 67.4025 164.822 63.9381 177 66.3789C196.25 70.2373 210.221 89.1511 219 105L220 105L229 97L229 96L219 98L219 93L216 93L212 88C210.165 76.6111 194.685 67.0378 184 67L184 64C165.853 64 149.935 60.1345 135.001 72.8611C132.133 75.3051 129.202 76.3265 128 80z"/>
<path style="fill:#3f71ab; stroke:none;" d="M89 69C90.1161 71.8589 89.5752 75.2593 91.0309 77.9414C98.4188 91.5539 118.147 68.7202 100.995 64.8241C99.0647 64.3855 96.9682 64.0482 95.0162 64.5517C92.3767 65.2325 90.7483 67.0699 89 69z"/>
<path style="fill:#c7d6e8; stroke:none;" d="M642 79L640 78L640 82C644.676 78.6277 642.934 72.0299 642 67L646 67C646.209 71.8787 645.671 80.1935 650 83L649 78L656 80L655 66L661 66L661 64C657.123 64.0107 643.433 63.4839 641.618 67.3318C640.169 70.4044 641.931 75.6559 642 79z"/>
<path style="fill:#e6eff7; stroke:none;" d="M664 64L664 67L668 67L663 72L664 78L653 74L656 80L649 78C649.779 84.9888 654.842 91.9518 662 93C661.193 89.1267 659.94 87.6423 656 87L656 81L666 81L667 72L672 73L671 68L673 69L673 64L664 64z"/>
<path style="fill:#c7d6e8; stroke:none;" d="M600 69L600 70L614 67C608.789 63.8839 604.843 66.3575 600 69z"/>
<path style="fill:#6f98c5; stroke:none;" d="M596 71L596 75L605 74L608 88L612 87L609 94L634 90L635 94L636 91L641 91L640 88C642.946 88.746 644.311 89.1971 645 86C637.802 86.6398 638.453 72.6977 638 67L637 67C635.714 69.5806 636.098 97.2566 629 83C620.199 84.4009 621.984 76.2191 622 70L626 70L626 69L622 65L596 71z"/>
<path style="fill:#8caed3; stroke:none;" d="M142 71L143 74C135.184 75.0577 131.544 79.5254 124.896 82.2623C121.142 83.8075 117.378 82.9228 114.317 86.2284C112.165 88.5522 112.122 91.7591 110.393 94.2909C107.04 99.1999 101.389 98.9151 105 106L106 106C106.298 102.065 114.609 88.0579 118.133 86.0278C121.37 84.1639 125.51 85.1927 128.91 83.3928C134.109 80.6409 139.591 74.4531 144 82C152.21 82.4214 155.812 85.9608 157 94L158 94C157.997 89.7448 158.81 84.407 154 83C157.912 79.3976 169.612 77.9033 172.977 83.2284C175.171 86.6998 174.244 91.5158 178.264 93.9722C182.228 96.3949 195.498 95.9666 200 95L212 112C215.187 101.219 209.866 94.8857 203.809 86.615C201.32 83.2165 200.014 78.7983 196.853 75.9745C182.073 62.7724 159.146 63.5456 142 71z"/>
<path style="fill:#8ca3c0; stroke:none;" d="M629 66C629.94 70.9872 629.518 79.0969 634 82L636 76L632 66L629 66z"/>
<path style="fill:#a7bcd2; stroke:none;" d="M636 69L637 69L637 67L638 67L639 77L640 77L639 66L636 69z"/>
<path style="fill:#9dbce0; stroke:none;" d="M655 66C655.006 73.8471 656.523 75.6388 664 78L662 66L655 66z"/>
<path style="fill:#86a8d0; stroke:none;" d="M95 68C94.6997 69.6429 94.2679 71.3423 94.2739 73.0239C94.3377 90.7137 114.096 69.0655 99.8364 67.564C98.2903 67.4012 96.5283 67.8224 95 68z"/>
<path style="fill:#405d7f; stroke:none;" d="M642 67L644 81L646 81L646 67L642 67z"/>
<path style="fill:#6d86a3; stroke:none;" d="M202 68L202 69L208 72L202 68z"/>
<path style="fill:#ffffff; stroke:none;" d="M651 68L654 71L651 68z"/>
<path style="fill:#5785b9; stroke:none;" d="M94 69C90.3228 75.8959 93.3304 80.7542 101 81L101 80C94.3014 78.9097 95.3328 74.2703 94 69z"/>
<path style="fill:#a5cbfd; stroke:none;" d="M614 69L614 73L617 72L617 70L616 69L614 69z"/>
<path style="fill:#193a5c; stroke:none;" d="M75 85C90.6168 92.1689 70.5312 114.967 60 107L59 107C53.6247 112.629 55.9805 119.917 56 127L66 118C69.5151 126.797 95.5121 127.994 104 128C99.4813 117.54 96.2746 107.447 99 96L96 96L96 95L100 84C92.8222 82.8427 89.8343 76.7056 91 70C83.6595 70.8167 76.1437 77.6122 75 85z"/>
<path style="fill:#8caed3; stroke:none;" d="M594 100L597 99C597.815 102.822 599.178 104.185 603 105C601.804 99.709 600.248 93.9501 594 95C596.952 89.3217 602.129 89.0168 608 89L605 74L596 75L596 71L600 71C589.302 66.8783 593.318 94.4822 594 100z"/>
<path style="fill:#526f91; stroke:none;" d="M622 70C621.951 75.9622 619.608 86.3015 629 83C626.917 78.0838 628.193 71.0753 622 70z"/>
<path style="fill:#8caed3; stroke:none;" d="M53 114L54 114C55.2315 109.67 56.9722 100.848 62.1042 99.4568C65.8781 98.4338 68.5263 102.959 72.3804 100.467C78.8122 96.3083 77.1521 90.3962 70 90L85 71C70.9744 74.6868 54.1001 100.082 53 114z"/>
<path style="fill:#5785b9; stroke:none;" d="M646 72L644 81L645 88L652 86L646 72z"/>
<path style="fill:#9dbce0; stroke:none;" d="M630 74L630 80L629 80L628 77L627 77L629 86L630 86L637 81L632 82L630 74z"/>
<path style="fill:#6f98c5; stroke:none;" d="M643 74L643 81L644 81L643 74z"/>
<path style="fill:#aac2de; stroke:none;" d="M106 108C111.062 110.812 108.144 115.139 108 120L121 118C121.804 130.63 132.17 130.485 133 118L136 118L136 122C138.309 123.359 139.833 126.456 142.325 127.34C147.69 129.242 153.655 121.449 154 117C163.445 115.03 159.49 105.335 157.545 98.9105C154.615 89.2347 156.948 82.303 144 82C140.956 73.342 132.565 81.0185 127.961 83.3928C124.627 85.1119 120.351 84.0892 117.279 86.0278C114.144 88.0056 114.784 91.873 112.987 94.6605C109.299 100.381 106.027 100.255 106 108z"/>
<path style="fill:#ffffff; stroke:none;" d="M634 78L634 81L637 81L637 78L634 78z"/>
<path style="fill:#6f98c5; stroke:none;" d="M154 83C161.663 87.688 153.218 97.6023 160 102L160 86C167.285 86.0048 170.343 87.5952 176 92C175.083 89.0627 174.643 83.9186 172.397 81.7423C168.763 78.2203 156.634 79.0065 154 83z"/>
<path style="fill:#bad5ee; stroke:none;" d="M176 81L179 94C184.564 93.6991 194.866 86.4712 186.682 81.0278C183.714 79.0535 179.198 80.4062 176 81z"/>
<path style="fill:#6f98c5; stroke:none;" d="M200 80C203.146 92.6251 215.531 97.1679 212 112L200 95L180 95L180 96L190 96L194 104C203.206 106.908 195.069 121.318 189.687 124.821C184.161 128.418 174.131 125.127 168 125L168 126C173.035 131.397 167.101 134.348 168.569 139.981C171.972 153.039 185.562 143.489 192 143L195 126C202.267 130.007 196.995 141.865 198.147 148.896C199.302 155.942 202.609 162.464 203.361 170.17C203.855 175.233 200.397 179.972 200.054 185C199.526 192.739 202.391 200.289 203 208L207 213C210.659 213.263 214.42 215.777 218 215.288C235.5 212.898 228.547 194.849 235.009 184.174C238.133 179.015 245.142 179.884 247 174C237.345 178.881 231.316 182.739 227.405 193.285C225.868 197.429 227.015 202.909 224.347 206.525C220.938 211.148 215.026 211.461 213 206C207.131 204.218 208.813 200.044 207.586 195.09C204.463 182.48 209.793 170.516 207.867 157.094C207.028 151.248 199.149 150.9 200.298 144.005C201.501 136.784 210.83 137.043 212 130L222 125L230 130C223.109 116.388 219.432 111.733 227 98L220 105L219 105C215.378 95.76 208.563 85.361 200 80z"/>
<path style="fill:#c9daf0; stroke:none;" d="M136 81L129.101 90.446L120.318 91.7462L117 108L123 108L123 112L126 115L137.946 116.179L147 123L148 114L152 114L152 113C145.261 109.956 123.359 111.742 122.059 103.039C121.63 100.161 125.121 97.6343 126 95L134 95L135 87L141 86L139 88L139 89C145.271 88.2075 157.527 88.1791 149 97L153 101C152.71 89.1702 156.66 86 142 86C141.173 82.2052 139.829 81.3044 136 81z"/>
<path style="fill:#ffffff; stroke:none;" d="M639 82C641.044 91.3633 648.552 80.3936 639 82z"/>
<path style="fill:#aac2de; stroke:none;" d="M656 81L656 82L663 84L663 83L656 81z"/>
<path style="fill:#6d86a3; stroke:none;" d="M664 81L656 82L656 87L662 88L667 84L668 88C669.464 84.24 667.676 82.0391 664 81z"/>
<path style="fill:#c7d6e8; stroke:none;" d="M667 81L669 88L670 88L670 84L680 83L667 81z"/>
<path style="fill:#366799; stroke:none;" d="M73 82L71 88C75.7197 89.2467 77.6243 91.0718 78 96L79 96C81.2787 89.7663 78.8496 84.8552 73 82z"/>
<path style="fill:#97b6d5; stroke:none;" d="M673 82L676 90L670 89L677 92L679 82L673 82z"/>
<path style="fill:#ffffff; stroke:none;" d="M630 84C632.455 92.0055 638.746 82.5282 630 84z"/>
<path style="fill:#5785b9; stroke:none;" d="M71 84L70 90C78.1679 90.9206 75.6198 95.7675 75 102L76 102C78.7585 95.4628 79.1147 89.3043 71 88L73 84L71 84z"/>
<path style="fill:#5279a5; stroke:none;" d="M618 84L618 89L620 84L618 84z"/>
<path style="fill:#526f91; stroke:none;" d="M664 84L664 85L667 86L664 84z"/>
<path style="fill:#ffffff; stroke:none;" d="M670 84C670.343 88.2967 671.751 89.511 676 90C675.364 86.0067 673.993 84.6359 670 84z"/>
<path style="fill:#7a90ab; stroke:none;" d="M652 85L652 91L656 91L656 90L652 85z"/>
<path style="fill:#254b73; stroke:none;" d="M662 89L663 89L666 86L662 89z"/>
<path style="fill:#d8e5f2; stroke:none;" d="M135 87L134 95L126 95C124.863 97.0779 122.339 98.9391 121.708 101.209C118.752 111.839 136.213 108.8 141 109.228C145.095 109.594 151.6 115.117 155.254 111.393C158.269 108.319 155.259 104.1 154 101L150 101L149 97C159.734 89.4738 144.846 87.9147 139 89L139 88L141 86L135 87z"/>
<path style="fill:#4176b2; stroke:none;" d="M160 86L158 119C163.499 118.464 166.178 119.558 168 125C173.918 125.254 185.241 128.656 190.416 124.821C195.28 121.216 204.141 105.761 194 104L190 96L160 86z"/>
<path style="fill:#6f98c5; stroke:none;" d="M224 86L230 93L227 86L224 86z"/>
<path style="fill:#e6eff7; stroke:none;" d="M621 89L625 86L621 89z"/>
<path style="fill:#325d8e; stroke:none;" d="M646 87L646 88L652 90L652 86L646 87z"/>
<path style="fill:#031323; stroke:none;" d="M663 90L668 90L668 86L663 90z"/>
<path style="fill:#5785b9; stroke:none;" d="M594 95C598.104 94.2267 603.315 92.1055 606 96L622 100L622 99L618 99L618 95L622 95L625 92L625 91L609 94L612 87C605.822 88.6346 596.205 87.9538 594 95z"/>
<path style="fill:#3f71ab; stroke:none;" d="M640 88C642.388 95.9463 637.47 97.3282 634 90L630 90L630 91L633 98L642.209 101.597L656 102C654.512 108.758 656.691 114.817 650 119L646 132C639.066 133.5 636.071 143.608 636 150L640 150C638.287 155.736 633.027 163.074 640 168L640 169L640 170C636.061 173.908 643.997 182.679 648 184L656 201L664 203C662.261 197.604 656.788 196.22 659 190C652.67 187.155 652.782 181.186 652 175L648 175L645 160C646.752 151.942 644.03 144.019 647.705 136.039C650.166 130.697 653.105 126.513 657.834 123.135C661.044 120.842 663.289 117.533 667.089 116.119C691.053 107.204 709.652 118.873 733 120C724.563 105.119 709.306 107.3 695.286 101.243C687.817 98.0166 683.741 91.3792 677 88L677 92L670 94L670 95L672 98L658 100C658.873 94.9805 658.537 91.8831 653 91L653 92L657 93L657 97L643 93L645 90L645 89L640 88z"/>
<path style="fill:#112943; stroke:none;" d="M643 93L656 96L651 90L652 93L646 89L650 89C646.24 87.5363 644.039 89.3238 643 93z"/>
<path style="fill:#aac2de; stroke:none;" d="M661 88L661 97C669.337 95.6598 667.155 91.109 661 88z"/>
<path style="fill:#294e79; stroke:none;" d="M668 88L666 91L673 94L670 88L668 88z"/>
<path style="fill:#031323; stroke:none;" d="M646 89L652 93L651 89L646 89z"/>
<path style="fill:#294e79; stroke:none;" d="M80 90L76 103C80.5193 99.9846 82.145 95.1233 80 90z"/>
<path style="fill:#031323; stroke:none;" d="M625 91C622.348 96.0539 613.878 109.395 612 96L599 107L601 117C587.086 122.439 570.698 133.349 559.9 143.72C556.586 146.902 555.486 151.401 552.502 154.726C550.269 157.213 547.117 158.258 545.188 161.108C539.566 169.416 532.272 186.872 541.292 195.981C546.347 201.085 560.957 202.533 568 203L568 200C571.956 200.305 573.616 201.232 575 205L577 204L577 207L578 207C578 190.891 579.852 179.272 584 164L589 165L589 164L586 161L592 158L588 159L591 147C588.903 145.517 588.483 143.877 591.167 142.313C595.571 139.748 601.262 141.486 605.54 138.171C613.282 132.173 610.045 124.319 622 122L622 110C628.491 109.515 634.223 104.786 637 99L632 99C631.825 93.6614 630.143 92.1352 625 91z"/>
<path style="fill:#254b73; stroke:none;" d="M627 91L627 92C630.882 93.1776 631.699 95.0481 632 99L637 99C629.992 108.93 632.888 115.621 629.683 126.896C628.586 130.754 624.721 131.804 624 136L621 136L614.768 147.478L614.259 167.83L621.024 188.675L628 200L632 203L633 203L633 200L639 200C640.15 203.929 642.717 203.671 646 202L650 203L650 214C655.242 216.225 660.353 218.92 663 212C657.331 210.368 656.503 207.04 659 202L655 200L654 200L653 202L652 202C649.564 197.897 644.999 196.123 642.014 192.406C636.381 185.393 636.662 176.126 626 176C626 163.484 622.313 140.728 636 134L636 128C643.701 126.663 639.594 117.57 644 113L644 112L638 112L638 98L633 98C632.845 93.2761 631.89 91.381 627 91z"/>
<path style="fill:#bad5ee; stroke:none;" d="M636 91C636.963 97.0388 641.505 97.3551 642 91L636 91z"/>
<path style="fill:#193a5c; stroke:none;" d="M622 92L622 99L623 99L625 93L622 92z"/>
<path style="fill:#ffffff; stroke:none;" d="M637 92L641 95L637 92z"/>
<path style="fill:#8ca3c0; stroke:none;" d="M682 92L684 95L682 92z"/>
<path style="fill:#9dbce0; stroke:none;" d="M230 93C227.986 97.4685 223.675 100.578 221.89 105.09C219.21 111.861 223.883 124.466 230 128L226.662 107.019L233.623 97.936L230 93z"/>
<path style="fill:#d8e5f2; stroke:none;" d="M592 93L594 110L595 110L592 93z"/>
<path style="fill:#6f98c5; stroke:none;" d="M599 94L601 101L602 101L602 98L606 98L606 93L599 94z"/>
<path style="fill:#193a5c; stroke:none;" d="M655 93L656 96L652 96L652 97L657 97L655 93z"/>
<path style="fill:#86a8d0; stroke:none;" d="M659 93L658 100L672 98L668 93L661 97L661 93L659 93z"/>
<path style="fill:#294e79; stroke:none;" d="M603 99L604 105L605 105C606.318 100.514 607.412 97.6499 612 96L603 99z"/>
<path style="fill:#d8e5f2; stroke:none;" d="M618 95L618 98L621 98L621 95L618 95z"/>
<path style="fill:#9dbce0; stroke:none;" d="M621 95L618 98L618 99L622 99L621 95z"/>
<path style="fill:#6f95bc; stroke:none;" d="M101 96L104.988 112.129L106.742 121.566L119 128C129.073 131.598 141.536 128.912 152 128L152 125L157 128L158 128C159.556 123.074 163.336 123.042 168 123C165.458 118.507 162.885 118.14 158 119L159 116L154 117C153.37 120.964 147.924 127.891 143.149 127.094C140.327 126.623 138.794 122.994 136 122L136 118L133 118C131.447 129.865 122.45 129.822 121 118L108 120C108.184 117.161 109.976 113.782 109.557 111.039C108.619 104.894 98.2001 100.157 110 97L101 96z"/>
<path style="fill:#d8e5f2; stroke:none;" d="M238 96C238.695 105.669 226.79 104.887 229.8 115C230.78 118.293 233.628 126.861 237.228 127.964C240.157 128.861 242.787 126.375 245.532 128.461C249.317 131.339 251.353 137.681 252.896 142C258.088 156.532 253.103 185.815 246.31 199C244.18 203.136 243.103 209.05 239.697 212.286C231.027 220.524 219.289 222 208 222L208 224L233 222.258L246.961 225.772L262 224.3L290.995 230.279L304 215L305 215C308.584 218.159 316.135 221.853 321 221.887C330.022 221.951 341.241 216.687 350.004 214.474C362.539 211.308 393.408 216.963 394 197C390.001 195.851 388.342 193.904 387 190L381 191L366 176C354.172 169.869 353.634 145.514 367.094 139.894C380.964 134.102 401.372 144.96 416 145L416 139L426 139L426 138C417.913 133.792 415.298 139.775 407.985 139.851C400.04 139.934 392.198 134.647 384 134C381.313 126.359 366.294 130.948 360 131C353.095 144.192 342.183 168.622 356.349 181.63C365.089 189.657 384.076 191.182 386 205L373 209.805L342 210L344 205C337.314 203.408 328.855 201.37 322 202.184C318.617 202.586 313.541 205.155 311.028 201.562C308.627 198.13 311.166 194.409 311.271 190.884C311.356 188.033 308.936 184.682 308 182L316 174C323.092 173.995 326.524 172.425 332 168L322 112L320 112C320 124.391 319.663 137.908 322.761 150C323.887 154.397 328.203 161.197 324.397 165.347C320.424 169.679 311.263 168 306 168L300 172L301 176C294.685 178.474 282.376 183.3 280 190C271.555 190.018 262.25 189.265 257.514 180.995C252.782 172.732 256.714 158.289 255.83 149C254.029 130.069 247.917 113.779 242 96L238 96z"/>
<path style="fill:#112943; stroke:none;" d="M612 96L612 101L613 101L612 96z"/>
<path style="fill:#6f98c5; stroke:none;" d="M58 104L62 102C66.0297 108.897 73.9425 104.707 75 98C68.4572 102.623 61.1294 95.0995 58 104z"/>
<path style="fill:#526f91; stroke:none;" d="M602 98L600 105L600 106L604 106L605 99L602 98z"/>
<path style="fill:#366799; stroke:none;" d="M638 98L638 112L644 112L644 113C638.263 116.748 643.865 125.516 636 128L636 134C621.883 138.177 626 164.831 626 176C637.646 176.049 636.76 189.269 644.222 195.694C646.357 197.532 652.327 203.012 654 200L655 200L659 202L658 204C662.547 205.385 663.321 208.588 659 211L659 212L663 212L662 216L663 216L669 213C667.66 202.627 664.285 199.64 658 192L657 192L664 203L656 201L648 184C643.863 181.734 637.812 174.841 640 170L640 169L640 168C633.879 161.469 638.864 156.787 640 150L636 150C636.188 143.655 639.711 134.292 646 132L650 119C657.18 115.992 655.072 108.474 656 102L638 98M99 99C99.011 113.178 101.061 127.998 117 128L110 148L106 148C105.5 141.446 101.313 141.27 96 139L102.954 145.343L102 158L106 158C107.372 148.159 119.574 132.651 123 150L128 150L128 147L140 150C142.636 143.754 141.691 138.061 150 138L148 130L119 128C117.811 120.895 111.612 125.743 107.434 121.566C104.57 118.701 106.06 115.575 105.401 112.129C104.455 107.177 101.052 104.725 101 99L99 99z"/>
<path style="fill:#5279a5; stroke:none;" d="M595 99L596 110L597 110L600 105L600 104L597 99L595 99z"/>
<path style="fill:#c9daf0; stroke:none;" d="M692 99L692 100L698 101L692 99z"/>
<path style="fill:#294e79; stroke:none;" d="M618 102L621 101L618 102z"/>
<path style="fill:#8caed3; stroke:none;" d="M694 101L694 102L698 102L694 101z"/>
<path style="fill:#366799; stroke:none;" d="M53 142L56 142L62 124C70.9088 128.912 59.5137 143.383 71 147L72 144L77 146L82 134C78.2321 135.588 73.8614 137.966 71 134L67 136L66 118L56 127C55.9952 119.702 54.4564 113.262 59 107L60 107C64.8261 112.523 72.786 106.351 76 102C70.4014 104.102 66.7046 107.308 62 102C46.277 108.278 52.9661 130.2 53 142z"/>
<path style="fill:#405d7f; stroke:none;" d="M614 102L614 103L618 103L614 102z"/>
<path style="fill:#6f95bc; stroke:none;" d="M699 102L699 103L709 105L709 104L699 102z"/>
<path style="fill:#c9daf0; stroke:none;" d="M702 102L702 103L716 106L702 102z"/>
<path style="fill:#d8e5f2; stroke:none;" d="M53 104C44.0656 125.887 39.9983 152.824 44.7554 176.09C46.1637 182.977 50.1468 195.185 55.7199 199.852C61.4906 204.684 70.1911 199.845 76.5216 203.148C82.1218 206.071 84.0823 211.964 91 213L86 200L92 202L80 181L63 168C61.3508 176.883 69.0302 192.381 59 197C56.317 191.181 50.7176 187.079 48.6836 180.91C43.7596 165.978 46.3618 148.315 47.0394 133C47.4413 123.915 56.5317 112.659 53 104z"/>
<path style="fill:#6f98c5; stroke:none;" d="M160 104L160 114L161 114L162 104L160 104z"/>
<path style="fill:#97b6d5; stroke:none;" d="M595 104L590 115C594.234 112.263 597.134 109.143 595 104z"/>
<path style="fill:#1f4064; stroke:none;" d="M597 105C595.442 115.67 585.265 118.799 577.455 124.166C564.35 133.171 547.288 146.046 541 161L573.869 131.17L596.142 116.235L600 106L597 105z"/>
<path style="fill:#112943; stroke:none;" d="M598 106C597.848 124.095 570.817 124.5 565 141L601 117L599 107L603 107L598 106z"/>
<path style="fill:#1f4064; stroke:none;" d="M613 135C614.315 141.256 610.82 147.386 605 150C604.996 156.055 603.211 184.256 614 179L611 192C615.899 192.684 625.669 199.768 628 204L636 206L638 210L637 206L646 209L646 202C642.647 202.902 640.922 203.027 639 200L637 202C634.399 200.805 633.394 199.752 633 203L632 203L632 200L628 200L621.024 187.816L614.259 166.91L614.768 148.304L621 136L624 136L629.683 127.787L632 106C626.215 109.149 627.76 114.261 625.573 119.486C622.585 126.621 619.013 130.105 613 135z"/>
<path style="fill:#97b6d5; stroke:none;" d="M716 106L716 107L720 108L720 107L716 106z"/>
<path style="fill:#193a5c; stroke:none;" d="M627 109L622 110L622 122C609.912 123.331 612.857 131.163 605.54 137.529C601.398 141.133 595.255 140.353 592 145L599 147L599 149L594 150L596 161C592.122 166.119 594 175.763 594 182C603.087 183.407 601.913 189.778 598 196L604 193L602 197L605 193C613.454 199.123 621.31 205.553 624 216L628 215C628.978 218.464 630.473 219.482 634 220L632 223L637 221L635 227L644 230L643 226L648 230C645.918 224.003 649.602 223.128 655 224C652.271 215.735 642.043 217 635 217L635 213L640 210L636 210L636 206L628 204C626.46 199.356 616.022 192.352 611 192L614 179C603.117 182.206 604.999 156.666 605 150C611.37 148.244 614.765 141.153 613 135C621.366 130.253 629.562 119.224 627 109z"/>
<path style="fill:#97b6d5; stroke:none;" d="M725 110L728 112L725 110z"/>
<path style="fill:#526f91; stroke:none;" d="M593 112L586 118L586 119C589.491 117.809 593.086 116.028 593 112z"/>
<path style="fill:#5785b9; stroke:none;" d="M645 160L648 175L652 175C652.475 181.02 652.228 188.132 659 190L659 195L660 195L663 191L663 190L661 189C668.092 183.99 658.439 178.804 656.559 173.826C651.477 160.371 642.414 127.65 666 124C667.806 120.751 669.383 120.401 673 121C676.008 115.678 687.304 117.002 693 117C712.864 116.994 734.026 132.284 753 129C750.136 121.416 737.297 116.452 730 114L733 120C704.651 115.852 662.388 99.2372 647.282 136.039C644.049 143.914 646.15 151.938 645 160z"/>
<path style="fill:#8caed3; stroke:none;" d="M728 112L728 113L732 114L732 113L728 112z"/>
<path style="fill:#8ca3c0; stroke:none;" d="M732 114L732 115L736 116L736 115L732 114z"/>
<path style="fill:#86a8d0; stroke:none;" d="M51 115L50 123L52 123L53 115L51 115z"/>
<path style="fill:#aac2de; stroke:none;" d="M577 123L590 116C585.477 115.327 579.412 119.254 577 123z"/>
<path style="fill:#6f95bc; stroke:none;" d="M673 121C669.326 120.021 667.26 120.202 666 124C652.292 124 646.743 146.972 650 160C650.879 163.515 654.448 165.275 656 169C656.751 170.803 654.933 174.4 656 176C657.774 178.661 662.256 180.094 664 183C666.61 187.351 657.83 188.966 663 190L663 191L660 191L660 192L664 192C665.417 187.483 668.015 188.174 670 192L671 192C672.666 188.282 678.713 182.965 672 181L672 176L667 178L669 163L666 162L677 153L674 152L674 151C681.303 151.511 697.988 144.795 702 152L713 152L713 156L716 153L717 156L718 156L719 153L736 169L731 169L731 170C735.147 172.623 735.682 174.588 732 178L732 179L740 175L738 185L742 186L736 200L737 205L732 208L730 206L729 206L728 206C719.6 209.949 710.475 203.625 702 203L692.643 207.028L692 217L693 217C694.96 210.766 699.357 214.984 698 220L701 219L698 222L698 223L702 223C704.601 215.735 709.424 211.504 707 222L718 221L712 226L714 231L704 228C706.847 235.707 716.286 239.658 721.985 245.236C732.55 255.575 737.397 267.689 738 282L748 285L746 278L752 282L753 279L728.161 246.715L713 232L717 229L718 233L721 234C729.289 227.72 742.759 239.027 753 236L753 243L756 238L757 238L764 246C765.148 255.421 767.796 266.905 757 272L757 273L772 272C771.781 264.978 773.111 262.865 780 261L783 265L777 249L783 253L777 234C769.528 233.824 765.901 230.769 763 224C757.998 224 749.771 225.585 745.207 223.397C739.063 220.452 749.403 216.178 752 216L752 211L753 211L755 214L758 209L755 203L759 203C758.817 199.37 758.99 194.855 755 194C755.829 189.677 755.51 186.461 751 185L752 180L746 182C749.132 174.988 746.553 172.146 745 165L742 166C737.193 155.046 723.689 147.052 712 146L712 142C700.699 140.421 690.592 141.039 679.001 141.911C673.446 142.329 667.368 142.72 666 149L660 149C660.937 141.644 664.641 133.555 672 131C673.782 123.594 681.018 121.582 688 121.09C702.073 120.098 714.403 124.379 728 125L728 123C713.946 121.732 701.845 116.413 687 117.039C682.215 117.241 674.731 115.802 673 121z"/>
<path style="fill:#8caed3; stroke:none;" d="M738 117L738 118L744 121L738 117z"/>
<path style="fill:#6f95bc; stroke:none;" d="M576 123L576 124L584 121L576 123z"/>
<path style="fill:#86a8d0; stroke:none;" d="M672 131C664.162 132.623 660.489 141.634 660 149L666 149C670.855 135.758 701.45 141.265 712 142L712 146C716.92 146.765 726.672 149.606 730.53 152.742C735.111 156.466 738.239 165.2 745 165L746 182L752 180L751 185C754.915 187.114 755.407 189.717 755 194L759 203L755 203L758 209L755 214L753 211L752 211L752 216C749.484 216.076 738.042 220.155 744.337 223.397C748.913 225.754 757.91 224 763 224C765.031 231.507 769.548 233.933 777 234L783 253L777 249L783 265L780 261L776 262L777 267L784 269L785 263C789.172 264.323 791.286 265.521 792 270L793 270L798 254L795 261L791 257L793 254L790 254L790 240L785 230L784 230L784 234L783 234L782 230L778 230C777.046 223.437 768.367 216.932 762 216C763.656 211.556 762.073 208.516 762.133 204C762.325 189.48 759.649 170.449 750.228 159.235C745.768 153.928 741.749 145.671 734 147C732.482 142.31 727.824 138.103 722.92 136.713C718.279 135.398 711.093 136.776 706 136.165C697.26 135.117 689.006 133.006 680 133L680 131C683.696 130.882 686.864 130.882 688 127C701.5 126.963 714.718 126.439 727.576 132.09C734.043 134.931 740.779 137.648 746.906 141.184C752.169 144.223 753.347 147.839 760 148L760 152L768 149L771 150C771.757 138.732 762.467 131.715 753 127C749.067 130.332 739.781 127.292 734.83 126.155C720.492 122.864 706.73 120.976 692 121C684.112 121.013 673.287 121.483 672 131M48 123C48 135.302 40.7841 162.163 58 160L59 152L63 155L66 154C66.3449 157.787 66.7225 161.074 71 161L70 155L72 158L86 160C83.7065 154.267 81.3195 154.834 76 156L67.189 148.388L64 134L60 134C58.2377 139.44 54.9704 149.106 50 152L50 123L48 123M155 140L145.599 143.028L140.875 153.643L127 155L128 160L124 158L123 158L123 164L144 160L144 156L152 157L157 153C157.347 142.355 168.24 143.92 172 152L182 149L182 148C165.326 144.625 172.676 134.508 168 123C165.46 123.007 159.879 122.237 158.737 125.34C157.099 129.793 170.61 142.412 155 140z"/>
<path style="fill:#5785b9; stroke:none;" d="M62 124L56 142L53 142L52 131L51 131L50 152C55.1728 150.187 58.9146 139.194 60 134L64 134C64 138.95 63.2331 145.296 67.189 149.093C70.6771 152.44 74.3507 150.363 76 156C83.1202 155.149 83.7169 157.643 89 162C88.7839 157.282 87.5462 153.144 85.2407 149C82.7529 144.528 83.8022 130.795 91.108 137.898C97.1078 143.731 94.5411 159.805 104.22 163.214C109.404 165.039 110.829 156.142 115.103 154.851C119.688 153.467 123.509 159.343 128 160L127 155L140.875 154.382L145.599 143.603L155 140C169.829 143.384 159.812 130.224 157 125L152 125L152 128L144 129L144 130L148 130L150 138C141.553 136.995 142.048 143.538 140 150L128 147L128 150L123 150C120.587 131.427 106.712 147.852 106 158L102 158C102.244 154.165 105 149.012 103.392 145.343C102.29 142.829 99.3759 142.304 97.5841 140.466C95.3939 138.219 94.9652 135.326 92.0965 133.569C83.1829 128.109 78.3144 139.071 77 146L72 144L71 147C61.0567 141.798 70.9036 126.955 62 124z"/>
<path style="fill:#97b6d5; stroke:none;" d="M570 128L576 125L570 128z"/>
<path style="fill:#5785b9; stroke:none;" d="M212 130L200.279 143.019L208 162L210 162L216 146L222 146C222.396 141.903 223.903 140.396 228 140L227 133C229.591 134.826 231.998 137.481 235.09 138.427C238.704 139.534 243.475 137.961 246.142 141.318C251.631 148.229 248.543 165.877 242.451 171.526C239.486 174.276 235.212 173.99 232.559 177.344C230.089 180.468 229.833 184.377 228.117 187.83C224.729 194.648 218.515 200.391 217 208L216 208C210.463 193.959 209.99 184.861 210 170L208 170C207.992 180.121 205.158 185.98 207.586 196.039C208.743 200.834 206.996 204.998 213 206C214.285 211.883 220.732 211.63 224.347 207.232C227.1 203.883 225.96 198.166 227.405 194.17C231.284 183.44 238.044 178.692 248 174C248.384 165.079 254.997 142.691 246.4 135.732C244.257 133.997 240.58 135.721 238.004 134.897C232.62 133.173 225.8 129.138 222 125L212 130z"/>
<path style="fill:#526f91; stroke:none;" d="M564 134L576 125L564 134z"/>
<path style="fill:#8caed3; stroke:none;" d="M195 126L192 143L185 146L196 144L196 150L198 150C198 143.772 202.05 128.34 195 126z"/>
<path style="fill:#aac2de; stroke:none;" d="M688 127L680 131L680 133C688.758 133.024 696.583 135.334 705 136.455C715.914 137.909 728.397 134.943 734 147C740.698 146.651 742.726 151.512 746.776 156C752.73 162.598 753.421 167.742 757.474 174.715C761.492 181.629 768.388 189.865 769 198C775.681 198.195 782.222 201.094 784 208L787 206C787.967 211.111 788.227 215.079 794 216L792 221C799.447 222.177 799.982 228.554 800 235L804 235L804 238L800 238L800 243L801 243L801 240L809 246L803 214L800 214L801 207L797 207L797 192L797 191L797 190L795 187C784.65 186.212 786.976 177.094 783.995 170.171C781.486 164.344 776.078 159.8 782 154L769 139L771 150L768 149L760 152L760 148C753.836 147.662 752.611 144.102 747.812 141.184C741.566 137.387 734.348 134.439 727.576 131.714C714.447 126.431 701.654 126.887 688 127z"/>
<path style="fill:#bad5ee; stroke:none;" d="M566 131L570 127L566 131z"/>
<path style="fill:#a7bcd2; stroke:none;" d="M47 128C47 145.256 42.9618 165.036 48.6836 181.829C50.6461 187.589 55.6834 192.027 59 197C69.2188 194.112 61.9975 175.932 63 168L80 181L96 208L102 208L100 192C91.7192 186.935 93.4178 172.725 101 168L105 170L105 173L112 174L113 168L116 168L128 192C140.886 197.357 141.086 187.569 142 176C147.516 175.054 150.292 169.203 151 164C159.562 168.649 160.933 163.119 161 155L168 160L173 160L173 155L193 151L199.567 158.108L201 179L198 179L198 200L201 200C201.389 218.763 222.946 227.885 236.247 212.656C251.447 195.253 257.964 157.97 251 136L250 136C250.295 148.62 254.528 164.251 246.142 175.772C243.127 179.913 237.013 179.184 234.549 184.174C229.255 194.902 234.535 212.422 218 214.823C214.554 215.324 210.601 213.114 207 213L203 208L200.023 187L202.536 160.001L196 144L172 152C169.38 142.833 157.125 142.48 157 153L152 157L144 156L144 160L123 164C122.96 162.354 123.049 160.619 122.566 159.019C118.156 144.385 108.032 167.319 102.093 161.052C96.4216 155.068 96.7921 141.98 91.108 137.319C85.4312 132.663 80.9244 141.124 82.9738 146C85.3301 151.606 88.4482 155.719 89 162L70 155L71 161L68 162L66 154L63 155L59 152L58 160C39.0508 161.429 51.7914 139.418 47 128z"/>
<path style="fill:#8caed3; stroke:none;" d="M230 128C232.641 137.38 241.491 132.104 246.4 136.577C251.864 141.554 250 156.379 250 163L251 163C252.332 155.826 254.169 140.495 248.258 134.746C245.77 132.325 242.024 133.986 239.015 133.262C235.564 132.431 233.108 129.525 230 128z"/>
<path style="fill:#9dbce0; stroke:none;" d="M563 131L560 136L566 132L563 131z"/>
<path style="fill:#3f71ab; stroke:none;" d="M227 133L228 140C223.456 139.615 221.615 141.456 222 146L216 146C214.324 152.042 209.999 156.892 208.457 163.285C207.433 167.529 209.857 170.878 209.856 175.015C209.854 187.55 209.573 196.546 216 208L217 208L225 193L222 196L220 196L219 191L214 191L213 176L218 170L213 172L219 166L221 157C224.946 161.694 235.388 167.538 239.258 158.811C241.097 154.664 240 148.454 240 144L246 143C246.542 149.873 248.559 157.447 244.66 163.776C238.187 174.286 227.804 176.134 226 190C230.271 187.263 229.915 181.22 233.224 177.344C235.96 174.139 240.327 174.413 243.106 171.526C248.723 165.69 251.287 148.407 246.682 141.318C244.454 137.888 239.416 139.434 236.039 138.427C232.641 137.415 230.173 134.509 227 133z"/>
<path style="fill:#526f91; stroke:none;" d="M561 135L552 146L563 135L561 135z"/>
<path style="fill:#7a90ab; stroke:none;" d="M556 141L561 136L556 141z"/>
<path style="fill:#97b6d5; stroke:none;" d="M538 160L556 140C548.648 143.18 541.213 152.791 538 160z"/>
<path style="fill:#112943; stroke:none;" d="M591 147L588 159L592 158L586 161L589 164L589 165L584 164C578.391 178.884 578 191.106 578 207L577 207L577 204L575 205C574.072 200.747 572.172 200.139 568 200L568 203C561.851 202.2 554.081 201.192 548.089 199.687C541.514 198.035 540.023 192.724 538.696 187C534.284 167.964 551.93 159.146 559 144C554.56 146.48 552.504 151.313 548.886 154.805C537.073 166.203 530.543 172.747 526.456 189.285C523.993 199.251 533.819 214.426 544 216L544 220L558 230L559 219L563 224L568 222L564 233C575.612 232.059 584.11 234.128 593.755 240.965C603.588 247.936 605.905 256.282 619.089 257.871C629.685 259.148 658.664 257.648 660.272 242.718C661.916 227.461 638.183 243.487 635 245L635 240L629 240L634 235L632 229C637.729 231.081 641.775 233.822 648 232L648 230L643 226L644 230L635 227L637 221L632 223L634 220L628 215L624 216C622.45 206.191 613.7 197.294 605 193L602 197L604 193C599.43 194.787 587.047 199.116 588.423 189.089C588.925 185.426 592.89 183.453 593.721 179.829C595.204 173.367 592.736 167.117 596 161L594 150L599 149L599 147L592 145L597 142C592.32 139.334 584.363 145.578 591 147z"/>
<path style="fill:#c9daf0; stroke:none;" d="M253 142C253 165.559 251.713 192.727 236.247 211.812C223.559 227.469 201.816 218.715 201 200L198 200L198 179L201 179C201.533 166.548 201.789 159.971 193 151L173 155L173 160L168 160C166.785 156.357 164.707 155.501 161 155C160.829 163.247 159.267 167.199 151 164C149.838 168.944 147.035 174.429 142 176C141.295 181.552 139.999 200.574 131 192L130 192L134 206C139.599 205.143 148.65 197.501 150 192L154 192L152 178L163 182C163.946 176.902 163.098 170.864 168 168C168.245 179.847 170.054 187.746 175.028 198.17C177.492 203.334 175.923 207.332 182 210C184.602 199.07 174.708 174.74 183.573 167.036C186.162 164.786 189.867 165.541 193 165C193.007 176.027 191.695 191.294 194.415 201.91C199.905 223.331 225.139 228.854 240.437 212.286C251.57 200.229 253.994 173.732 254 158C254.002 152.921 254.98 146.719 253 142z"/>
<path style="fill:#366799; stroke:none;" d="M245 143L240 144C240 158.532 234.88 168.881 221 157L219 166L213 172L218 170L213 176L214 191L219 191L220 196L222 196C226.403 190.398 226.607 182.913 230.699 177.38C238.839 166.372 254.157 160.224 245 143z"/>
<path style="fill:#86a8d0; stroke:none;" d="M226.228 147.028C218.672 151.635 227.086 165.908 234.525 160.971C242.824 155.465 235.652 141.282 226.228 147.028z"/>
<path style="fill:#5785b9; stroke:none;" d="M674 151L674 152L677 153C671.88 155.226 667.966 156.351 666 162L669 163L667 178L672 176L672 181C676.966 184.169 672.251 187.801 671 192L682 190L683 197L684 197L684 193L689 193L689 192C685.959 188.537 682.038 182.14 685 178L685 177L680 175L676 166L680 166L684 151L688 154L712 156L713 152L702 152C699.526 144.551 680.629 151.129 674 151z"/>
<path style="fill:#3f71ab; stroke:none;" d="M684 151L680 166L676 166L680 175L685 177L685 178C680.104 182.301 688.148 191.987 691 196L701 194L698 201C704.598 203.288 722.157 211.925 728 206L729 206L730 206L732 208L737 205L736 200C741.738 196.663 741.03 191.849 742 186L738 185L740 175L728 179C725.927 171.2 727.237 169.079 736 169L719 153L718 156L713 153L712 153L712 156C705.207 154.605 694.285 150.761 688 154L684 151z"/>
<path style="fill:#526f91; stroke:none;" d="M545 152L524.529 182L516 203L517 213L521.494 196.17L536.594 166L545 152z"/>
<path style="fill:#97b6d5; stroke:none;" d="M715 153L715 156L717 156L717 153L715 153z"/>
<path style="fill:#c7d6e8; stroke:none;" d="M779 155L779 164L780 164L779 155z"/>
<path style="fill:#8ca3c0; stroke:none;" d="M537 160L536 163L537 160z"/>
<path style="fill:#aac2de; stroke:none;" d="M534 163L534 166L535 166L536 163L534 163M532 166L530 172L531 172L534 166L532 166z"/>
<path style="fill:#c9daf0; stroke:none;" d="M100 192C100.395 197.001 103.858 204.814 99 208L104 211L99 173C103.119 173.615 105.289 175.195 107 179C118.83 178.977 119.146 185.387 128 190L116 168L113 168L112 174L105 173L105 170L101 168C92.9346 171.002 91.1695 189.417 100 192z"/>
<path style="fill:#ffffff; stroke:none;" d="M728 169C723.969 179.222 737.524 179.374 731 169L728 169z"/>
<path style="fill:#aac2de; stroke:none;" d="M326 188L323 187L320 195L331 196C333.217 202.68 346.136 200 352 200C351.925 193.288 344.539 178.374 338 176C336.717 167.275 329.096 171.884 326.293 177.455C324.71 180.602 326.398 184.596 326 188z"/>
<path style="fill:#97b6d5; stroke:none;" d="M726 170L725 175L726 175L728 170L726 170z"/>
<path style="fill:#bad5ee; stroke:none;" d="M731 170L734 172L731 170z"/>
<path style="fill:#aac2de; stroke:none;" d="M528 172L523 184L524 184L530 172L528 172M734 172L734 177L735 177L736 172L734 172z"/>
<path style="fill:#1f4064; stroke:none;" d="M573 173L576 177L576 173L573 173z"/>
<path style="fill:#97b6d5; stroke:none;" d="M757 175C759.654 188.926 765.118 201.326 762 216C768.121 217.589 776.381 223.729 778 230L782 230L783 234L784 234L784 230L785 230C786.005 234.208 785.402 238.474 790 240L790 254L793 254L791 257L795 261C795.524 256.214 797.206 253.25 802 252L800 238L804 238L804 235L800 235C799.996 228.343 800.049 221.621 792 221L794 216C788.73 214.471 788.221 210.885 787 206L784 208C782.906 200.49 775.788 198.076 769 198C768.78 191.245 762.701 178.774 757 175z"/>
<path style="fill:#1f4064; stroke:none;" d="M529 176C521.491 191.409 511.031 224.066 536 228L536 232L542 234L554 235L550 226L554 227L544 220L544 216C535.775 213.69 525.144 200.905 526.13 192.039C526.725 186.686 530.648 181.425 529 176z"/>
<path style="fill:#97b6d5; stroke:none;" d="M728 178L728 179L732 179L728 178z"/>
<path style="fill:#526f91; stroke:none;" d="M592 182L592 183L600 184L592 182z"/>
<path style="fill:#bad5ee; stroke:none;" d="M592 183L591 188L597 187L596 193C604.326 190.237 598.343 183.154 592 183z"/>
<path style="fill:#a7bcd2; stroke:none;" d="M522 184L522 190L523 190L522 184z"/>
<path style="fill:#aac2de; stroke:none;" d="M591 184L589 195L598 194L597 187L591 188L591 184z"/>
<path style="fill:#97b6d5; stroke:none;" d="M600 184L600 192L601 192L600 184z"/>
<path style="fill:#6d86a3; stroke:none;" d="M601 185L601 192L602 192L601 185z"/>
<path style="fill:#526f91; stroke:none;" d="M588 186L588 193L589 193L588 186z"/>
<path style="fill:#e6eff7; stroke:none;" d="M665 187L666 194L661 193L670 213L684 216L685 221L688 221C688.688 229.705 706.464 229.383 714 231L712 226L718 221L707 222L708 215C703.826 216.354 702.554 219.838 702 224C699.26 224.214 695.773 225.279 693.209 223.934C680.14 217.075 690.558 203.877 702 206L696 202L699 193L690 198C689.77 196.621 689.102 192.536 686.599 194.137C684.422 195.528 687.096 199.302 687.389 201.039C687.949 204.358 685.978 209.164 683.454 211.397C677.312 216.829 672.426 208.349 672.214 203C672.01 197.831 675.987 194.401 678 190L669 194C668.88 190.308 668.687 188.223 665 187z"/>
<path style="fill:#bad5ee; stroke:none;" d="M664 188L664 192L660 195L661 195L666 194L664 188z"/>
<path style="fill:#a7bcd2; stroke:none;" d="M669 189L669 194L675 190L669 189z"/>
<path style="fill:#97b6d5; stroke:none;" d="M675 189L675 190L678 190C674.159 195.646 672.02 199.041 672 206L673 206L680 190L675 189z"/>
<path style="fill:#aac2de; stroke:none;" d="M520 190L516 203L517 203L522 190L520 190z"/>
<path style="fill:#6f95bc; stroke:none;" d="M680 190C674.652 197.69 673 201.584 673 211L674 211L674 204L675 204C676.398 208.819 679.428 209.762 684 211C688.987 203.736 685.797 200.639 686 193L684 197L683 197L682 190L680 190z"/>
<path style="fill:#526f91; stroke:none;" d="M590 195L590 196C594.75 195.983 597.842 195.792 601 192L590 195z"/>
<path style="fill:#c7d6e8; stroke:none;" d="M795 192L797 207L801 207L800 214L803 214L809 246L801 240L802 252L798 252L790 275L789 272L788 272C788.778 276.917 792.768 282.414 797 285L795 278L796 278L800 281L799 285L804 286L804 282L801 282L800 274L811 274L808 272L812 269L811 262L820 256L813.674 212.246L808 200L809 205C804.56 202.994 800.293 200.944 799 196L796 196L795 192z"/>
<path style="fill:#6f98c5; stroke:none;" d="M519 194L517 203C519.746 200.311 520.502 197.622 519 194z"/>
<path style="fill:#325d8e; stroke:none;" d="M521 194C520.896 203.385 513.21 218.076 518.985 226.544C526.056 236.914 544.824 234.076 545 249C550.88 250.756 558.326 254.303 561 260L569 260L568 264C577.457 262.756 580.337 270.475 587 275L584 276C585.456 280.387 588.85 279.985 593 280L593 276L594 276L595 283L596 283C597.464 276.181 599.41 271.247 607 271L603 277L604.164 291.541L616 303L617 303C619.11 296.848 633.496 283.006 640 282L636 297L642 300C642.001 292.397 641.911 284.419 649 280L650 291L656 291L656 280L657 280L660 291C669.78 287.754 665.849 274.659 663 268L662 268L662 271L657 271C651.465 269.493 646.684 273.056 641 272.792C624.966 272.046 600.379 273.131 587.054 262.815C582.854 259.563 580.326 253.226 577 249L575 250L570 248L570 244L569 244L569 247L560 241L561 252L558 252L558 244L550 250L555 240L548 240L549 235L542 234L536 232L536 228C530.71 226.514 521.57 221.924 520.353 215.961C518.882 208.749 523.975 201.093 521 194z"/>
<path style="fill:#a7bcd2; stroke:none;" d="M690 194L693 198L690 194z"/>
<path style="fill:#8ca3c0; stroke:none;" d="M699 194L698 199L701 194L699 194z"/>
<path style="fill:#6f95bc; stroke:none;" d="M665.333 198.667L665.667 199.333L665.333 198.667z"/>
<path style="fill:#8ca3c0; stroke:none;" d="M696 199L702 203L702 202L696 199z"/>
<path style="fill:#86a8d0; stroke:none;" d="M667 200L668 210L669 210L667 200z"/>
<path style="fill:#e6eff7; stroke:none;" d="M678 202C677.016 207.979 682.072 210.329 684 204L678 202z"/>
<path style="fill:#97b6d5; stroke:none;" d="M515 203C511.287 208.337 511.229 214.75 509.999 221C505.877 241.953 509.825 262.165 510 283L511 283L509.059 237L514 213C519.159 211.186 517.852 206.563 515 203z"/>
<path style="fill:#bad5ee; stroke:none;" d="M647 203L647 210L639 207L644 214L636 215L636 216C641.877 216 648.032 215.58 652.852 219.638C661.412 226.845 651.516 233.561 644 233.711C639.398 233.803 636.207 230.175 632 229L632 233C634.991 233.866 637.148 236.525 640.089 237.192C644.136 238.109 648.693 235.17 652.911 235.564C661.687 236.384 661.241 244.754 656.96 249.942C653.297 254.381 645.852 253.728 644 259L651 257L648 265L655 260L655 265L658 265C658 257.933 658.122 251.357 663.75 246.149C670.795 239.63 677.737 249.186 677.57 255.961C677.44 261.253 671.541 264.156 670 269L678 264L683 272L683 264L692 265L692 262C686.373 261.027 673.804 251.669 679.708 244.6C688.737 233.786 700.973 252.158 701 260L704 260L704 252L711 253L711 249L707 246L712 242C699.58 243.617 689.995 243.162 693 228L688 221L685 221L684 216L680 217L674 224L674 216L678 216L678 215L670 213L670 204L669 204L669 214C665.169 214.502 661.176 214.977 660 219C651.52 215.889 650.001 211.49 650 203L647 203z"/>
<path style="fill:#97b6d5; stroke:none;" d="M676 203L676 206L677 206L678 203L676 203z"/>
<path style="fill:#6f95bc; stroke:none;" d="M646 204L644 209L644 210C647.331 209.286 647.591 206.762 646 204z"/>
<path style="fill:#97b6d5; stroke:none;" d="M656 208L657 208L662 205C658.736 203.759 657.07 204.77 656 208z"/>
<path style="fill:#366799; stroke:none;" d="M674 204L674 211L683 213L674 204z"/>
<path style="fill:#d8e5f2; stroke:none;" d="M657 210L662 210L662 205C658.526 205.577 657.577 206.526 657 210z"/>
<path style="fill:#9dbce0; stroke:none;" d="M662 205L662 210L663 210L662 205z"/>
<path style="fill:#8caed3; stroke:none;" d="M688 212C692.279 208.27 693.999 206.071 700 206C693.931 203.454 690.024 206.193 688 212z"/>
<path style="fill:#6d86a3; stroke:none;" d="M637 206L640 210L642 207L637 206z"/>
<path style="fill:#405d7f; stroke:none;" d="M640 210L639 213L640 210z"/>
<path style="fill:#8caed3; stroke:none;" d="M658 210L658 211L662 211L658 210z"/>
<path style="fill:#97b6d5; stroke:none;" d="M684 210L683 213L684 210z"/>
<path style="fill:#5279a5; stroke:none;" d="M701 219C694.21 220.408 692.185 216.235 692 210C680.164 215.974 696.44 231.765 701 219z"/>
<path style="fill:#6f98c5; stroke:none;" d="M635 213L635 217L640 217L640 216L636 216L636 215C639.399 214.086 643.18 214.827 644 211L635 213z"/>
<path style="fill:#86a8d0; stroke:none;" d="M674 211L674 212L680 213L674 211z"/>
<path style="fill:#aac2de; stroke:none;" d="M693 218L694 218L697 213C693.546 212.223 693.227 215.06 693 218z"/>
<path style="fill:#5785b9; stroke:none;" d="M514 213L514 219L515 219L517 214L514 213z"/>
<path style="fill:#86a8d0; stroke:none;" d="M664 215L669 214L664 215z"/>
<path style="fill:#d8e5f2; stroke:none;" d="M694 219C703.552 218.255 694.745 209.448 694 219z"/>
<path style="fill:#9dbce0; stroke:none;" d="M704 216L708 215L708 219C709.425 215.25 706.71 211.905 704 216z"/>
<path style="fill:#366799; stroke:none;" d="M515 214L511 241L512.603 250.782L526 251L528 260L534 266C539.519 265.384 540.829 267.763 541 273L544 270L560 272C560.005 278.05 559.891 282.102 567 281C566.335 290.898 556.566 302.127 552.046 311C549.644 315.713 545.943 321.005 553 323C557.245 315.338 561.318 301.507 571 300L568 291C573.61 292.628 574.015 296.794 575 302L582 304L577 284C586.091 285.856 586.577 296.361 588 304C598.645 299.477 597 289.847 597 280L596 280L596 283L595 283L594 276L593 276L593 280C589.131 280 582.258 279.742 587 275C581.246 269.326 577.272 262.016 568 264L569 260L561 260C559.254 253.803 551.087 250.019 545 249C544.947 234.095 527.517 236.359 519.574 226.544C516.862 223.193 517.034 218.078 517 214L515 214z"/>
<path style="fill:#8ca3c0; stroke:none;" d="M651 214L654 216L651 214z"/>
<path style="fill:#a7bcd2; stroke:none;" d="M686 214L688 218L686 214z"/>
<path style="fill:#5279a5; stroke:none;" d="M640 216L640 217L648 217L640 216z"/>
<path style="fill:#8ca3c0; stroke:none;" d="M674 216L674 224C678.377 222.73 679.663 220.454 680 216L674 216z"/>
<path style="fill:#7a90ab; stroke:none;" d="M648.667 217.333L649.333 217.667L648.667 217.333z"/>
<path style="fill:#526f91; stroke:none;" d="M656 217L656 218L660 219L656 217z"/>
<path style="fill:#5279a5; stroke:none;" d="M675 217L677 222L676 218L678 220C678.951 217.493 677.348 217.294 675 217z"/>
<path style="fill:#8ca3c0; stroke:none;" d="M650.667 218.333L651.333 218.667L650.667 218.333z"/>
<path style="fill:#405d7f; stroke:none;" d="M666 219L669 222L670 222L670 218L666 219z"/>
<path style="fill:#6d86a3; stroke:none;" d="M670 218L668 226L672 227L670 218z"/>
<path style="fill:#294e79; stroke:none;" d="M676 218L676 221L678 221L678 218L676 218z"/>
<path style="fill:#4176b2; stroke:none;" d="M513 219C512.995 225.458 509.574 229.935 509.059 236C507.188 258.006 510.775 276.855 518 297L522 297L520 286L524 286L523 275C528.864 278.233 525.88 284.73 534 285L533 295L545 302L540 302C540.056 306.768 540.997 311.054 545 314L544 319C551.103 312.796 547.006 306.184 547 298L549 298L551 305L553 305L566 283L564 290L565 290L567 281C560.394 281.341 560.021 277.839 560 272L544 270L544 273C539.371 272.353 533.4 269.684 540 266L540 265L534 266C532.975 262.286 531.805 260.822 528 260L526 251C522.48 251 516.451 252.344 513.318 250.651C505.011 246.163 516.001 226.152 513 219z"/>
<path style="fill:#405d7f; stroke:none;" d="M559 219L558 230L559 230L562 221L561 228C565.247 225.166 563.154 220.654 559 219z"/>
<path style="fill:#7a90ab; stroke:none;" d="M652 219L655 221L652 219z"/>
<path style="fill:#9dbce0; stroke:none;" d="M694 219L694 220L698 220L694 219z"/>
<path style="fill:#7a90ab; stroke:none;" d="M663 220L665 223L663 220z"/>
<path style="fill:#1f4064; stroke:none;" d="M664 220L670 225C669.173 221.205 667.829 220.304 664 220z"/>
<path style="fill:#86a8d0; stroke:none;" d="M559 221L559 230L550 226L555 236L549 236L549 238L556 238L550 250L558 244L558 252L561 252L560 241L569 247L563 237C566.681 236.613 572.133 237.046 573 233L563 234L568 222L561 228L562 221L559 221z"/>
<path style="fill:#526f91; stroke:none;" d="M655 221L655 231L656 231L655 221M679 228L684 227L685 221C681.199 222.172 679.916 224.189 679 228z"/>
<path style="fill:#97b6d5; stroke:none;" d="M685 222L682 227L682 228C685.23 226.93 686.241 225.264 685 222z"/>
<path style="fill:#7a90ab; stroke:none;" d="M648 223L648 224L651 224L648 223z"/>
<path style="fill:#294e79; stroke:none;" d="M651 223C652.893 228.302 649.678 228.976 647 233L655 232C654.985 227.774 655.284 224.722 651 223z"/>
<path style="fill:#8ca3c0; stroke:none;" d="M665 223L668 225L665 223z"/>
<path style="fill:#294e79; stroke:none;" d="M682 223L682 226L685 226L685 223L682 223z"/>
<path style="fill:#aac2de; stroke:none;" d="M695 224L695 225L702 224L695 224z"/>
<path style="fill:#6d86a3; stroke:none;" d="M646 224L646 228L647 228L648 224L646 224z"/>
<path style="fill:#c9daf0; stroke:none;" d="M652 229L652 224C647.008 224.832 647.008 228.168 652 229z"/>
<path style="fill:#8caed3; stroke:none;" d="M652 225L652 229L653 229L652 225z"/>
<path style="fill:#405d7f; stroke:none;" d="M660 225L660 229L664 228L664 226L660 225z"/>
<path style="fill:#8ca3c0; stroke:none;" d="M660 229L660 230C663.363 230 666.204 230.716 667 227L660 229z"/>
<path style="fill:#86a8d0; stroke:none;" d="M693 228L693 229L703 228L693 228z"/>
<path style="fill:#4176b2; stroke:none;" d="M692 235L693 235C695.398 227.278 705.287 233.773 697 238L697 239C703.759 241.929 706.669 241.986 714 241L707 246L711 249L711 253L705 253L707 264L716 259L716 273C721.786 270.674 720 263.298 720 258L723 258L723 266L732 264L727.901 282.791L733 289C739.701 287.106 737.609 280.549 737.861 275C738.618 258.327 721.814 244.288 710.001 234.764C704.964 230.704 692.956 222.732 692 235z"/>
<path style="fill:#8ca3c0; stroke:none;" d="M648 229L648 230L651 230L648 229z"/>
<path style="fill:#5785b9; stroke:none;" d="M717 229L713 232L727.446 246.715L753 279L752 286L755 286L754 273C767.576 270.843 766.094 256.201 764 246L757 238L756 238L753 243L753 236C744.498 238.023 726.731 227.442 721 234L720 234L718 233L720 231L717 229z"/>
<path style="fill:#8ca3c0; stroke:none;" d="M680 231L680 233C683.688 233.768 685.735 233.801 687 230L680 231z"/>
<path style="fill:#325d8e; stroke:none;" d="M691 235C693.649 240.641 697.759 243.811 704 244C700.797 238.355 695.292 237.745 697 230L691 235z"/>
<path style="fill:#6d86a3; stroke:none;" d="M563 231C563.98 235.575 571.033 233.808 575 235L574 231L563 231M636.667 231.333L637.333 231.667L636.667 231.333z"/>
<path style="fill:#5279a5; stroke:none;" d="M682 231L682 233L686 233L686 231L682 231z"/>
<path style="fill:#c9daf0; stroke:none;" d="M696 231L697 238C703.029 236.169 701.943 231.463 696 231z"/>
<path style="fill:#5279a5; stroke:none;" d="M554 232L549 235L549 236L555 236L554 232z"/>
<path style="fill:#1f4064; stroke:none;" d="M575 232C572.629 236.167 568.577 237.314 564 238L570 244L570 248L575 250L577 249C589.922 272.338 617.332 273.052 642 272.922C647.268 272.894 651.789 270.071 657 271L662 271L653 263L651 263L646 266L649 259L644 259L644 255C634.229 258.992 618.021 260.391 608.263 255.012C600.295 250.621 594.832 240.81 586.83 235.723C583.227 233.432 578.774 234.099 575 232z"/>
<path style="fill:#7a90ab; stroke:none;" d="M638.667 232.333L639.333 232.667L638.667 232.333z"/>
<path style="fill:#6d86a3; stroke:none;" d="M664 233L664 234L668 236L670 232L664 233z"/>
<path style="fill:#7a90ab; stroke:none;" d="M634 233L635 236L636 236L636 233L634 233z"/>
<path style="fill:#405d7f; stroke:none;" d="M640 233L640 234L647 234L640 233z"/>
<path style="fill:#ffffff; stroke:none;" d="M810 233C810.001 237.596 808.913 243.211 814 245L812 233L810 233z"/>
<path style="fill:#bad5ee; stroke:none;" d="M507 234L507 264L508 264L507 234z"/>
<path style="fill:#254b73; stroke:none;" d="M634 234L632 235L632 236L634 234z"/>
<path style="fill:#97b6d5; stroke:none;" d="M636 234L630 236L630 239L637 238L635 245L641 238L636 234z"/>
<path style="fill:#405d7f; stroke:none;" d="M663 234L663 237L667 237L667 234L663 234z"/>
<path style="fill:#7a90ab; stroke:none;" d="M671 234L671 236L673 236L673 234L671 234z"/>
<path style="fill:#8ca3c0; stroke:none;" d="M644 236L644 237L656 236L644 236z"/>
<path style="fill:#6d86a3; stroke:none;" d="M677 235L681 239L677 235M690 235L693 239L690 235z"/>
<path style="fill:#5279a5; stroke:none;" d="M563 240L564 240L571 237C567.598 235.419 564.092 236.266 563 240z"/>
<path style="fill:#405d7f; stroke:none;" d="M670 236L670 240L673 240L673 236L670 236z"/>
<path style="fill:#6d86a3; stroke:none;" d="M673 236L671 240L671 241C674.012 240.354 674.498 238.613 673 236z"/>
<path style="fill:#3f71ab; stroke:none;" d="M548 237C548.796 240.716 551.637 240 555 240L553 244L556 238L548 237z"/>
<path style="fill:#7a90ab; stroke:none;" d="M629 237L632 240L632 239L629 237z"/>
<path style="fill:#526f91; stroke:none;" d="M641 240L648 238C644.883 236.737 642.829 237.176 641 240z"/>
<path style="fill:#86a8d0; stroke:none;" d="M663 237L663 238L667 238L663 237z"/>
<path style="fill:#7a90ab; stroke:none;" d="M634 238L634 239L636 242L637 242L637 238L634 238z"/>
<path style="fill:#526f91; stroke:none;" d="M632 239L632 240L635 242C635.951 239.493 634.348 239.294 632 239z"/>
<path style="fill:#8ca3c0; stroke:none;" d="M652 244L651 241L656 241C653.233 237.879 648.614 240.93 652 244z"/>
<path style="fill:#405d7f; stroke:none;" d="M640 240L638 244L640 240z"/>
<path style="fill:#d8e5f2; stroke:none;" d="M651 241L652 245L657 244L657 241L651 241z"/>
<path style="fill:#526f91; stroke:none;" d="M661 241L661 244L662 244L661 241z"/>
<path style="fill:#a5cbfd; stroke:none;" d="M710 241L710 242L714 244L710 241z"/>
<path style="fill:#5279a5; stroke:none;" d="M685 242L685 243L688 244L685 245L685 246C690.808 246.929 690.808 251.071 685 252L685 253L691 253L690 260L686 260L686 261L691 261L695 254L692 247L695 245L685 242z"/>
<path style="fill:#8caed3; stroke:none;" d="M706 242L706 243L709 243L706 242z"/>
<path style="fill:#97b6d5; stroke:none;" d="M679 250L680 250L682 244C677.932 243.085 678.384 247.042 679 250z"/>
<path style="fill:#325d8e; stroke:none;" d="M690 260L691 253C682.98 252.388 684.779 248.109 688 243C675.682 243.299 679.972 259.325 690 260z"/>
<path style="fill:#526f91; stroke:none;" d="M652 245L652 246L657 245L652 245z"/>
<path style="fill:#6f95bc; stroke:none;" d="M659 244C655.548 250.636 650.608 252.466 644 255L644 256C652.5 254.352 657.33 252.355 661 244L659 244z"/>
<path style="fill:#526f91; stroke:none;" d="M663 247L674 246C670.245 243.751 665.591 243.004 663 247z"/>
<path style="fill:#a7bcd2; stroke:none;" d="M700 244L700 245L704 245L700 244z"/>
<path style="fill:#294e79; stroke:none;" d="M669 270L676 246C671.38 245.962 666.147 244.373 662.344 247.728C655.299 253.942 661.137 267.643 669 270z"/>
<path style="fill:#97b6d5; stroke:none;" d="M684 246L684 252C691.671 251.748 691.671 246.252 684 246z"/>
<path style="fill:#325d8e; stroke:none;" d="M692 246L692 247L696 256L698 256L699 247L692 246z"/>
<path style="fill:#8ca3c0; stroke:none;" d="M676 247L677 260L678 260L676 247z"/>
<path style="fill:#d8e5f2; stroke:none;" d="M685 247L685 251L690 251L685 247z"/>
<path style="fill:#6d86a3; stroke:none;" d="M680 248L680 253L681 253L680 248z"/>
<path style="fill:#c9daf0; stroke:none;" d="M668 250L667 255L672 255L668 250z"/>
<path style="fill:#9dbce0; stroke:none;" d="M699 250L700 259L701 259L699 250z"/>
<path style="fill:#97b6d5; stroke:none;" d="M666 251L666 256L671 256L671 255L667 255L668 251L666 251z"/>
<path style="fill:#6f98c5; stroke:none;" d="M672 251L672 255L673 255L672 251z"/>
<path style="fill:#5785b9; stroke:none;" d="M699 252L698 256L693 253L688 261L688 262L692 262L692 265L688 265L689 270L696 269L699 276L699 252z"/>
<path style="fill:#86a8d0; stroke:none;" d="M704 252L701 260L699 286C704.855 284.057 703 276.129 703 271L713 271L714 278L715 278C714.996 272.477 717.112 261.029 711 259L707 264L707 253L704 252z"/>
<path style="fill:#6f95bc; stroke:none;" d="M658 253L658 265C670.37 274.102 663.133 283.015 663 295L658 295C658.197 298.569 658.462 300.757 662 302L660 296L664 297L672 299L670 291L674 292L668 274L673 280L674 280L672 272L673 269L670 267L669 267C664.45 272.646 659.424 256.09 658 253z"/>
<path style="fill:#5785b9; stroke:none;" d="M681 253L681 258L682 258L681 253z"/>
<path style="fill:#5279a5; stroke:none;" d="M676 256L676 260L677 260L676 256z"/>
<path style="fill:#7a90ab; stroke:none;" d="M648 257L648 258L650 260L651 260L648 257z"/>
<path style="fill:#405d7f; stroke:none;" d="M647 258L647 259L649 261L650 261L647 258z"/>
<path style="fill:#7a90ab; stroke:none;" d="M682 258L685 260L682 258z"/>
<path style="fill:#8caed3; stroke:none;" d="M720 258C720 264.301 721.021 274.138 715 278L715 279C718.474 278.423 719.423 277.474 720 274C725.415 276.986 725.876 287.189 726 293L734 294L732 290L731 290L730 290L727 292L728 288L730 289L733 288C727.441 278.955 723.097 269.71 723 258L720 258z"/>
<path style="fill:#5785b9; stroke:none;" d="M714 259L715 278L718 278L716 273C716.795 268.925 717.307 261.889 714 259z"/>
<path style="fill:#86a8d0; stroke:none;" d="M652 260L652 261L657 266L657 265L655 260L652 260M658 260L658 264L659 264L658 260M674 260L671 266L676 260L674 260z"/>
<path style="fill:#97b6d5; stroke:none;" d="M800 260L796 274L804 272C803.999 267.116 804.729 262.607 800 260z"/>
<path style="fill:#526f91; stroke:none;" d="M647 261L646 266L651 265L651 264L648 265L649 261L647 261M652 261L653 265L654 265L652 261z"/>
<path style="fill:#5785b9; stroke:none;" d="M729 280L730 280L732 264C718.614 261.737 727.417 274.857 729 280z"/>
<path style="fill:#aac2de; stroke:none;" d="M785 263C784.231 266.501 782.848 269.608 786 272L787 265C791.183 267.439 789.605 270.782 789 275L793 272C791.901 266.452 790.689 264.256 785 263z"/>
<path style="fill:#325d8e; stroke:none;" d="M672 272C675.223 276.254 672.552 283.418 680 282L678 264L672 272z"/>
<path style="fill:#5279a5; stroke:none;" d="M683 264L685 276L688 271L689 282C697.495 279.18 689.006 265.306 683 264z"/>
<path style="fill:#c7d6e8; stroke:none;" d="M776 264L776 271L779 270L776 264z"/>
<path style="fill:#86a8d0; stroke:none;" d="M536 272L537 272L538 267L539 267L540 272L541 272L541 266C537.089 266.652 536.3 268.136 536 272z"/>
<path style="fill:#aac2de; stroke:none;" d="M538 267L537 273L540 273L538 267z"/>
<path style="fill:#6f98c5; stroke:none;" d="M683 267L683 271L684 271L683 267z"/>
<path style="fill:#aac2de; stroke:none;" d="M772 267L770 272L770 273C773.331 272.286 773.591 269.762 772 267M690 268L692 289L686 287L684 301L683 301L681 295L672 301L662 298L668 308L662 308L661 303L655 305L651 307L652 317L660 315L659 322L670 322C673.049 316.35 677.033 316.212 674 309C678.67 308.168 682.646 312.016 686.826 311.227C694.516 309.776 690.05 297.553 690 293L694 293L699 288C699.143 294.124 700.376 299.623 707 301L704 278L705 278L710 289L711 279L719 287L725 287C724.431 290.666 724.223 292.735 728 294L729 306C734.384 305.102 734.615 300.833 735 296L738 296L738 292L739 292L745 296C741.85 287.578 746.176 288.81 750 283L751 286L752 286L746 278L748 285L738 282C737.26 287.274 734.962 288.242 730 287L734 294L726 293C725.954 287.51 725.844 275.94 720 274C717.786 281.22 713.76 275.766 713 271L703 271C703 276.471 704.424 283.009 699 286L696 269L690 268z"/>
<path style="fill:#6f98c5; stroke:none;" d="M679 270L680 282L676 283C676.506 284.902 682.062 297.268 684.863 293.427C687.629 289.634 682.02 286.12 689 284L689 289L692 289L692 282L689 282L688 271L685 276L679 270z"/>
<path style="fill:#4176b2; stroke:none;" d="M597 292L598 292L599 288L600 288L603 317C610.227 314.601 605.884 300.341 608 294C601.78 289.967 603 283.679 603 277L607 271C594.852 271.144 597 282.81 597 292z"/>
<path style="fill:#86a8d0; stroke:none;" d="M754 273L752 288L761 284L756 273L754 273z"/>
<path style="fill:#c7d6e8; stroke:none;" d="M779 273L776 287C781.52 284.044 783.345 278.661 781 273L779 273z"/>
<path style="fill:#8caed3; stroke:none;" d="M668 274L674 292L670 291L672 299L681 295L683 301L684 301L686 287L688 289L689 289L689 284C682.668 285.057 686.226 292.942 683.697 293.409C679.703 294.146 672.164 277.172 671 274L668 274z"/>
<path style="fill:#a7bcd2; stroke:none;" d="M765 274L762 276L766 280L765 274z"/>
<path style="fill:#97b6d5; stroke:none;" d="M523 275L524 286L520 286L528 312L541 312L540 302L545 302L533 295C537.892 293.952 534.08 288.806 534 285L523 275z"/>
<path style="fill:#d8e5f2; stroke:none;" d="M704 278L707 301C701.02 298.905 699.308 293.998 699 288C695.649 288.728 694.588 289.597 694 293L690 293C690.016 297.659 693.892 308.877 686.826 310.687C682.602 311.768 678.746 307.708 674 309C676.205 316.338 671.955 316.011 670 322L659 322L660 315L645 324L645 320L644 320L641 326L638 332L638 333L648 333L648 337L643 336L651 350L653 350L652 344L663 352L660 338C667.367 339.345 673.744 333.011 676 326L682 333C686.142 330.707 685.676 328.065 684 324L688 323L692 328L696 306L694 302C703.484 304.472 698.617 314.683 705 320L704 308L708 308L709 290L718 285L724.946 298.425L732 319L734 319L735 314L744 317L743 312L744 312L744 314L745 314L747 308L748 308L748 314L752 314L751 311L751 294L752 294L759 297L750 283L749 286C742.622 286.509 742.58 290.942 745 296L739 292L738 292L738 296L735 296C734.39 300.694 733.915 304.509 729 306L728 294C724.884 292.193 724.816 290.509 725 287L719 287C717.781 282.933 715.108 280.142 711 279L710 289L704 278z"/>
<path style="fill:#8ca3c0; stroke:none;" d="M774 287C773.841 272.843 763.189 283.738 774 287z"/>
<path style="fill:#4176b2; stroke:none;" d="M642 298L643 298L646 296L648 282L649 282L649 290L650 290L649 280C641.844 282.989 642.005 291.203 642 298z"/>
<path style="fill:#3f71ab; stroke:none;" d="M656 280C653.816 284.118 654.211 286.771 656 291L651 291L651 292L663 295L663 291L660 291C659.983 286.25 659.792 283.158 656 280z"/>
<path style="fill:#aac2de; stroke:none;" d="M780 290C784.195 288.572 786.839 284.16 788 280C782.899 280.877 781.079 285.284 780 290z"/>
<path style="fill:#5785b9; stroke:none;" d="M622 295L622 296C629.276 296.238 631.324 300.131 631 307C635.806 306.198 635.947 303.434 636 299L641 301L641 300L636 297L640 282L622 295z"/>
<path style="fill:#86a8d0; stroke:none;" d="M648 282L646 296L636 299C635.898 302.14 634.428 308.857 631 304L630 304C623.436 310.671 618.336 302.78 622 296C618.502 297.928 618.125 300.122 618 304L606 296C606.327 302.507 609.738 313.285 603 317L600 288L599 288C596.715 295.13 594.521 299.907 588 304C587.028 296.311 586.384 285.058 577 284L585 310L582 310C581.764 314.316 580.929 316.938 577 319L580 307L575 307L575 316C566.778 318.665 568.124 325.501 571 332L572 332L574 326C570.621 321.931 575.164 320.429 579 320L579 329L584 330L584 326L588 326L588 333L589 333L587 313C591.394 314.161 593.108 315.919 595 320L588 319L588 320C595.104 324.46 595.966 324.97 604 323L614 306L618 308C612.676 311.623 613.039 320.176 614 326L618 328L619 328L620 321L629 322L629 316L632 320L652 317L651 307L655 305L661 303L662 308L668 308L663 300L662 300L659 302L648 282z"/>
<path style="fill:#aac2de; stroke:none;" d="M511 283L513 297L514 297L511 283z"/>
<path style="fill:#5785b9; stroke:none;" d="M553 305L551 305L549 298L547 298C547.001 306.627 549.896 311.792 544 319L545 314L543 310L532 313L536 322L541 322L542 334L542 335C556.094 330.165 556.902 308.483 569 302L568 320L572 319L570 317L572 305L573 305L573 316L575 316L575 307L580 307L577 319C581.543 317.565 581.893 314.417 582 310L585 310L583 299L582 299L582 304L575 302C574.317 296.629 574.07 291.968 568 291L571 300C561.384 300.731 556.035 314.979 553 323C546.76 320.114 550.101 315.82 552.54 311C557.1 301.99 563.839 292.986 566 283C560.137 284.925 555.178 299.216 553 305z"/>
<path style="fill:#86a8d0; stroke:none;" d="M514 288L515 301L516 301L514 288z"/>
<path style="fill:#5785b9; stroke:none;" d="M728 288L727 292L730 292L728 288z"/>
<path style="fill:#c7d6e8; stroke:none;" d="M761 288C761.871 293.46 764.993 294.134 770 293C767.944 288.924 765.436 288.144 761 288z"/>
<path style="fill:#c9daf0; stroke:none;" d="M721 311L724 316L723 305L719 307L719 300L720 300L723 303L721 297L717 298C716.98 296.319 715.272 286.748 712.603 292.333C710.304 297.146 716.028 310.173 721 311z"/>
<path style="fill:#6f95bc; stroke:none;" d="M516 293L518 305L520 304L523 309L524 309L522 297L518 297L516 293z"/>
<path style="fill:#3f71ab; stroke:none;" d="M650 294L653 301L650 294z"/>
<path style="fill:#8caed3; stroke:none;" d="M664 297L660 296L661 299L672 301C670.657 298.249 666.39 292.961 664 297z"/>
<path style="fill:#4176b2; stroke:none;" d="M609 296C609.435 301.587 612.866 302.927 618 304L618 300L617 300L617 303L616 303C614.958 298.758 613.074 297.339 609 296z"/>
<path style="fill:#aac2de; stroke:none;" d="M622.147 297.029C615.425 300.973 622.724 309.69 628.655 305.971C634.999 301.993 628.097 293.538 622.147 297.029z"/>
<path style="fill:#d8e5f2; stroke:none;" d="M514 298C514.275 302.078 515.089 305.895 510 306L512 302L476 314L467 326L456 328L456 333L453 333L453 338L450 338C450.117 341.939 450.945 345.503 453.688 348.532C456.337 351.456 460.315 351.57 463.12 354.147C470.393 360.827 474.531 373.87 485 376L484 370L487 367L492 369L499 368L496 362L501 363L502 358L517 357L517 352C521.052 351.86 528.077 353.176 531.678 351.396C539.415 347.572 527.195 340.093 524 339L524 338L537.711 341.336L548 336L548 341L549 341L553 326C548.921 327.365 546.2 330.934 545 335L539 333L541 339L527 331L529 335L522 334L507 335L506 351C500.227 349.331 497.39 343.765 497 338C492.18 336.763 488.873 333.565 487 329C493.947 326.816 502.672 328.436 505 320L511 321L507 315C518.817 314.991 519.796 307.429 514 298z"/>
<path style="fill:#c7d6e8; stroke:none;" d="M754 306L759 300L754 306z"/>
<path style="fill:#aac2de; stroke:none;" d="M516 302C517.817 310.88 517.09 314.964 507 315L511 321L505 320C501.598 328.202 493.941 326.073 487 329C488.37 333.964 491.858 337.251 497 338L497 344L498 344L499 328L510 328L508 335L522 334L529 335L528 329L516 302z"/>
<path style="fill:#97b6d5; stroke:none;" d="M566 302L551 325C553.803 329.485 547.239 335.121 549.167 341C550.669 345.581 555.638 342.344 556 339L564 342L579 329C577.842 334.395 574.354 339.575 579 344L596 340C594.188 343.716 594.855 345.318 599 346L602 335L597 336L599 325L598 325L591 338L588 338L588 326L584 326L584 330L579 329L579 320C575.349 320.201 568.603 322.407 574 326L572 332L571 332L569 302L566 302z"/>
<path style="fill:#5279a5; stroke:none;" d="M519 304C519.881 311.229 522.225 320.253 528 325L525 313L528 316L530 314L531 314L536 321C534.675 316.236 533.208 312.765 528 312L524 305L524 309L523 309L519 304z"/>
<path style="fill:#3f71ab; stroke:none;" d="M572 305L570 317C573.867 314.493 573.677 308.997 572 305z"/>
<path style="fill:#9dbce0; stroke:none;" d="M614 306L604 323L600 323L600 324L608 326L605 320L610 322C610.838 315.549 612.518 311.675 618 308L614 306z"/>
<path style="fill:#325d8e; stroke:none;" d="M623 308L629 313L628 308L623 308z"/>
<path style="fill:#aac2de; stroke:none;" d="M613 310L610 322L605 320L608 326C600.456 324.325 599.394 325.42 597 333L606 332L607 328L612 331L609 324L614 325L615 310L613 310z"/>
<path style="fill:#86a8d0; stroke:none;" d="M525 313L534 330L525 323C525.967 329.069 529.686 333.097 535 336L535 334C536.708 335.719 537.223 335.96 535 337L535 338L541 339L539 333L542 334C538.85 326.561 531.546 317.711 525 313z"/>
<path style="fill:#6f95bc; stroke:none;" d="M587 313L588 338L591 338L598 326L588 320L588 319L595 320C593.524 315.432 591.777 313.768 587 313z"/>
<path style="fill:#366799; stroke:none;" d="M622 313C622.584 316.971 624.029 318.416 628 319L622 313M529 314C530.512 320.435 535.009 326.199 541 329L541 322L529 314z"/>
<path style="fill:#bad5ee; stroke:none;" d="M632 320L629 316L630 326L615 326L615 327L615 333C618.67 333 633.19 330.568 630 337L630 338L635 338L643 326L643 325L638 325L643 320L643 324L644 324L644 320L645 320L645 324C649.234 323.077 649.896 320.98 651 317C643.501 314.393 639.146 318.381 632 320z"/>
<path style="fill:#294e79; stroke:none;" d="M525 318L531 326L528 318L525 318z"/>
<path style="fill:#5785b9; stroke:none;" d="M560 320C560.414 323.822 560.389 326.826 557 329L557 330C561.947 329.174 563.987 323.484 560 320z"/>
<path style="fill:#97b6d5; stroke:none;" d="M638 325L643 325L643 320L638 325z"/>
<path style="fill:#366799; stroke:none;" d="M559 321L557 329L560 329L561 321L559 321z"/>
<path style="fill:#6f98c5; stroke:none;" d="M620 321L619 328L630 326L630 322L620 321z"/>
<path style="fill:#5279a5; stroke:none;" d="M531 324L534 330L531 324z"/>
<path style="fill:#c9daf0; stroke:none;" d="M609 324L612 331L607 328L606 332C602.266 332.063 597.886 331.843 597 336L602 335L599 346C595.384 344.901 594.954 343.544 596 340C588.992 341.758 584.623 337.562 579 344C575.258 338.893 578.215 334.713 579 329L564 342L560 342L561 346L565 345L569 349L569 344L574 344C572.93 349.287 571.559 356.738 578 359L578 352L580 352C580.047 355.935 579.954 358.657 584 360C584.528 353.004 590.982 347.558 598 348L598 350L593 350L602 352L602 353C591.09 354.766 595.284 368.101 604 370L602 362L616.278 370.028L620 378L619 374C633.789 372.959 616.087 359.633 616 353L621 354L620 349L624 349L622 342L628 343C626.411 338.042 613.703 330.091 612 338L608 332L615 333L617 327L609 324z"/>
<path style="fill:#5279a5; stroke:none;" d="M541 325L539 330L544 334L541 325z"/>
<path style="fill:#9dbce0; stroke:none;" d="M499 328C497.033 335.515 495.858 349.387 506 351L510 328L499 328z"/>
<path style="fill:#526f91; stroke:none;" d="M535 334L538 337L535 334z"/>
<path style="fill:#c7d6e8; stroke:none;" d="M463 336L458 339C458.871 351.946 471.653 348.781 476 357L472 356C473.891 361.698 480.197 359.892 485 359L481 354L488 354L487 346C476.231 347.699 471.149 343.496 463 336z"/>
<path style="fill:#aac2de; stroke:none;" d="M475 339C476.725 344.878 481.182 346.895 487 346L484 348L488 354L481 354L490 361L488 355L497 360C496.657 355.543 495.139 353.657 491 352L491 351L497 349C493.328 334.935 485.824 337.591 475 339z"/>
<path style="fill:#c7d6e8; stroke:none;" d="M636 344C636.022 350.405 635.025 359.513 641 363L641 356L646 360C645.702 353.081 643.194 346.231 636 344z"/>
<path style="fill:#a7bcd2; stroke:none;" d="M593 347C594 350.036 594.863 350.494 598 350L598 348L593 347z"/>
<path style="fill:#aac2de; stroke:none;" d="M601 360L610 360C607.376 352.409 601.289 350.479 601 360z"/>
<path style="fill:#8ca3c0; stroke:none;" d="M603 354L603 357L606 357L606 354L603 354z"/>
<path style="fill:#c7d6e8; stroke:none;" d="M466 366C466.82 371.299 469.812 373.952 475 375C474.191 369.9 470.988 367.024 466 366z"/>
</svg>
