<?xml version="1.0" encoding="UTF-8" standalone="no"?>
<!-- Created with Inkscape (http://www.inkscape.org/) -->

<svg
   xmlns:dc="http://purl.org/dc/elements/1.1/"
   xmlns:cc="http://creativecommons.org/ns#"
   xmlns:rdf="http://www.w3.org/1999/02/22-rdf-syntax-ns#"
   xmlns:svg="http://www.w3.org/2000/svg"
   xmlns="http://www.w3.org/2000/svg"
   xmlns:sodipodi="http://sodipodi.sourceforge.net/DTD/sodipodi-0.dtd"
   xmlns:inkscape="http://www.inkscape.org/namespaces/inkscape"
   id="svg16080"
   version="1.1"
   inkscape:version="0.91 r13725"
   width="359.11603"
   height="163.90738"
   viewBox="0 0 359.11603 163.90738"
   sodipodi:docname="Helmet7.svg">
  <metadata
     id="metadata16086">
    <rdf:RDF>
      <cc:Work
         rdf:about="">
        <dc:format>image/svg+xml</dc:format>
        <dc:type
           rdf:resource="http://purl.org/dc/dcmitype/StillImage" />
        <dc:title></dc:title>
      </cc:Work>
    </rdf:RDF>
  </metadata>
  <defs
     id="defs16084" />
  <sodipodi:namedview
     pagecolor="#ffffff"
     bordercolor="#666666"
     borderopacity="1"
     objecttolerance="10"
     gridtolerance="10"
     guidetolerance="10"
     inkscape:pageopacity="0"
     inkscape:pageshadow="2"
     inkscape:window-width="1600"
     inkscape:window-height="837"
     id="namedview16082"
     showgrid="false"
     fit-margin-top="0"
     fit-margin-left="0"
     fit-margin-right="0"
     fit-margin-bottom="0"
     inkscape:zoom="3.3936599"
     inkscape:cx="171.73442"
     inkscape:cy="63.511069"
     inkscape:window-x="-8"
     inkscape:window-y="-8"
     inkscape:window-maximized="1"
     inkscape:current-layer="svg16080" />
  <path
     style="fill:#000000"
     d="m 311.87348,139.30318 c -3.93029,1.31417 -10.35093,3.48867 -14.26813,4.83213 -13.79962,4.73285 -27.94241,8.81086 -32.38874,9.33911 -2.47287,0.29364 -6.86508,1.25294 -9.76055,2.13141 -2.89533,0.87893 -7.24456,1.60203 -9.66465,1.60788 -2.42015,0.006 -7.90414,0.72032 -12.18662,1.5879 -21.26566,4.30793 -33.89377,5.54243 -50.9133,4.97717 -31.74753,-1.05433 -39.14664,-1.8 -48.88663,-4.92672 -3.2927,-1.05701 -10.35172,-2.90942 -15.68672,-4.11642 -9.96337,-2.25419 -26.472342,-7.49788 -43.072125,-13.68089 -5.176889,-1.92827 -12.872341,-4.73633 -17.101001,-6.24013 -18.477013,-6.57085 -55.9022719,-26.42999 -57.7873653,-30.66398 -0.7273945,-1.63375 1.1812575,-5.193545 3.2873855,-6.131251 1.191358,-0.530426 5.8129512,0.539513 12.5104928,2.896301 19.437106,6.83967 18.155061,6.57363 20.032664,4.15696 2.722417,-3.50403 6.304181,-3.18978 9.721873,0.85295 2.764619,3.27022 3.214492,3.40793 13.189442,4.03715 5.679955,0.3583 12.370856,0.82388 14.868664,1.03464 l 4.541479,0.3832 0.972757,-4.02487 c 3.442166,-14.24226 13.57383,-36.711959 20.233325,-44.872815 8.009799,-9.815593 20.066679,-18.914532 35.029029,-26.435298 17.06158,-8.575925 28.14283,-14.964905 31.56211,-18.197367 1.72771,-1.633301 4.12267,-5.432821 5.32222,-8.4433941 2.36491,-5.9355827 5.88232,-9.14300633 10.29579,-9.38845583 2.41783,-0.1344745 2.83465,0.3116453 6.30847,6.75192423 4.8966,9.0779477 15.00133,20.3096027 18.25073,20.2860627 0.45414,-0.0033 6.04436,2.356677 12.4227,5.244383 17.55978,7.949894 29.00273,18.613913 40.91139,38.126499 5.15027,8.438795 6.12147,10.609992 8.80453,19.683063 5.1426,17.390278 3.96363,16.155258 16.82479,17.625368 22.64471,2.58849 21.10887,2.60189 24.20459,-0.21148 1.52126,-1.38254 3.71343,-2.61984 4.87151,-2.74957 2.26609,-0.2539 6.40986,2.56738 7.55772,5.14556 0.44235,0.99355 2.38111,1.69352 5.19676,1.87621 2.47016,0.16032 5.68865,0.38786 7.15215,0.50571 4.71309,0.3795 9.49688,-0.5643 14.77857,-2.91593 4.03623,-1.79705 5.65254,-2.07888 7.42545,-1.29489 3.40582,1.50603 3.58631,4.9672 0.43475,8.3336 -3.85081,4.11304 -32.61565,18.73879 -44.99542,22.87828 z m 34.05321,-22.00423 c 7.86559,-5.53353 9.6373,-8.33614 2.57132,-4.06744 -7.16159,4.32645 -36.34341,17.63852 -42.64889,19.45551 -3.0015,0.86481 -9.30922,2.77436 -14.01716,4.24343 -14.70745,4.58906 -45.90412,12.33839 -57.28972,14.23085 -1.83936,0.30575 -7.63613,1.28853 -12.88171,2.18387 -19.94686,3.40477 -41.08519,4.53774 -65.65086,3.51871 -19.30097,-0.80056 -57.145704,-12.14416 -100.366503,-30.08394 -5.019712,-2.08354 -9.179129,-3.90593 -9.24315,-4.04971 -0.06397,-0.1438 -2.831236,-1.43227 -6.149374,-2.8633 -3.318134,-1.43098 -12.11671,-5.89391 -19.552385,-9.91759 -12.2053269,-6.60469 -17.3066196,-8.40082 -14.9974994,-5.28052 1.4505285,1.96009 33.2444964,18.06697 49.3921654,25.02217 23.550308,10.14367 66.131896,24.669 68.815506,23.47419 0.57457,-0.25604 3.5949,0.39081 6.71175,1.43707 11.56433,3.88171 26.96856,5.79852 44.82481,5.57782 18.98379,-0.23464 24.51776,-0.66997 52.54932,-4.13364 10.07037,-1.24454 55.00441,-10.8255 56.20187,-11.98379 0.40834,-0.39498 6.15428,-2.56534 12.76881,-4.82298 18.47604,-6.30617 41.23535,-16.50513 48.9617,-21.9407 z m -11.20302,1.52602 c 6.32507,-2.81614 7.86997,-4.91604 2.94034,-3.99665 -1.43322,0.26717 -3.3281,0.29418 -4.21102,0.0594 -2.1861,-0.58092 -17.73846,-1.52708 -35.99036,-2.18955 -8.31854,-0.30191 -15.48965,-0.59085 -15.93577,-0.64207 -0.44606,-0.0511 -0.67032,0.223 -0.49769,0.61082 0.17216,0.38724 1.17514,0.77611 2.22843,0.86431 5.70755,0.47802 8.97332,1.27348 9.43529,2.29811 0.31075,0.68777 -1.67182,0.63005 -4.93239,-0.14438 -10.44589,-2.48091 -18.08669,-3.71867 -18.37171,-2.97613 -0.15784,0.41121 2.68103,1.46802 6.30864,2.34848 3.62761,0.88045 8.38797,2.15558 10.57862,2.83357 2.19066,0.67802 4.354,1.06759 4.80741,0.86566 0.45334,-0.20212 0.75796,0.12356 0.67675,0.72316 -0.0812,0.59959 -4.94146,-0.14247 -10.80045,-1.64909 -14.41946,-3.70786 -15.85541,-3.92769 -18.35265,-2.80997 l -2.16266,0.96833 3.5305,1.01479 c 1.94178,0.55817 6.20199,1.45641 9.46716,1.99616 3.26517,0.53971 5.80603,1.32162 5.64643,1.73749 -0.3048,0.79405 -8.27379,-0.55725 -14.8476,-2.51768 -4.16568,-1.24235 -7.60954,-0.99144 -9.84295,0.71705 -1.28709,0.98459 -1.22858,1.0695 0.72451,1.05111 3.66695,-0.0345 20.77324,3.95578 19.99774,4.66478 -0.85943,0.78572 -5.0238,0.0541 -15.83496,-2.78208 -7.25707,-1.90377 -8.42614,-1.89914 -17.92727,0.071 -27.2688,5.65443 -30.43277,6.07113 -54.8502,7.22328 -37.02338,1.74666 -56.3297,-0.60504 -93.572207,-11.39825 -9.859244,-2.85729 -15.505637,-3.8246 -23.595288,-4.04222 -5.848981,-0.15733 -10.831577,-0.19832 -11.072439,-0.0911 -0.240866,0.10721 -0.11475,0.92085 0.280285,1.80802 1.208951,2.71536 -2.726764,4.64848 -5.975298,2.93488 -2.583784,-1.36293 -2.672933,-1.53045 -1.709092,-3.2117 0.606716,-1.05832 0.567082,-1.9043 -0.09827,-2.09735 -5.069182,-1.47097 -14.089794,-3.16128 -14.913486,-2.79454 -0.560083,0.24936 -1.497559,-0.026 -2.083283,-0.6118 -1.226643,-1.22692 -3.65929,-0.47059 -3.030301,0.94215 0.231374,0.51975 4.343339,2.75407 9.137638,4.96518 4.794296,2.2111 11.075166,5.16807 13.957486,6.57102 20.202577,9.83347 56.768985,23.32058 70.154045,25.87553 1.31717,0.25143 7.25992,1.58196 13.20615,2.95673 5.94625,1.3748 13.17516,2.71199 16.06435,2.97158 2.88919,0.25953 6.51182,0.70606 8.05028,0.99224 2.82974,0.52643 18.44029,0.30215 33.14023,-0.47611 27.91112,-1.47757 66.68926,-9.71832 114.84587,-24.4061 3.72716,-1.13636 9.55715,-3.49759 12.95575,-5.24645 3.39858,-1.74877 9.01166,-4.44063 12.47341,-5.9819 z m -32.46224,4.20374 c -5.38212,1.01494 -9.23302,-2.28199 -6.40218,-5.48118 1.21704,-1.37538 3.04012,-1.99334 7.72045,-2.61713 6.34583,-0.84565 8.98876,-0.0421 9.13688,2.7779 0.0941,1.79367 -4.70564,4.23621 -10.45516,5.32037 z m -1.2972,-4.13991 c -2.90051,-0.22692 -4.50827,0.76802 -3.80248,2.35326 0.19689,0.44341 1.79721,0.14699 3.55523,-0.65835 l 3.19641,-1.46425 -2.94917,-0.23073 z m -18.91732,11.62228 c -2.70776,0.007 -3.54898,-0.4802 -4.49377,-2.60217 -1.12929,-2.53646 -0.55994,-3.44463 2.80341,-4.47143 0.5822,-0.17766 0.90265,-1.07382 0.71213,-1.99134 -0.50364,-2.42598 8.89066,1.63351 9.60498,4.15047 0.663,2.33755 -3.83873,4.90221 -8.62675,4.91447 z m 0.78924,-4.56596 c -0.35504,-0.79761 -1.13233,-0.97505 -1.90444,-0.43488 -1.9631,1.37336 -1.36711,3.50601 0.72015,2.5767 1.05198,-0.46842 1.53807,-1.34741 1.18434,-2.14183 z m -16.66159,9.82853 c -7.46946,0.70097 -10.57285,-0.68919 -9.56307,-4.284 1.14325,-4.06996 12.5187,-5.08062 15.42661,-1.37053 2.32611,2.96773 0.12259,5.09272 -5.86354,5.65457 z m -4.41652,-3.58112 c 0.93339,-0.75586 1.5455,-1.71482 1.36025,-2.1309 -0.57688,-1.29578 -4.44021,0.9854 -4.3568,2.57256 0.0869,1.65414 0.48068,1.59603 2.99654,-0.44168 z m -17.46547,7.4468 c -1.09978,0.0656 -2.99802,0.20988 -4.21833,0.32134 -2.41306,0.2202 -3.83869,-1.80494 -2.9324,-4.16599 1.19929,-3.12423 8.95926,-4.77051 10.12666,-2.14839 0.2999,0.67339 1.51302,1.29469 2.69594,1.38064 1.18289,0.0859 2.08748,0.62302 2.01016,1.19358 -0.16265,1.20027 -4.75773,3.24521 -7.68185,3.41916 z m 0.63809,-4.3292 c -0.38024,-0.85406 -2.87033,-0.88429 -4.7275,-0.0574 -0.66803,0.29754 -1.05499,0.89939 -0.85982,1.33767 0.3051,0.68535 1.26568,0.62183 5.23355,-0.34597 0.38186,-0.0931 0.54106,-0.51351 0.35377,-0.93419 z m -26.9554,9.18134 c -4.11686,0.4868 -4.75238,0.2745 -5.72682,-1.91418 -1.36075,-3.05628 0.33955,-4.78491 5.50466,-5.59646 4.31956,-0.67908 8.02053,0.64854 8.59377,3.08193 0.51421,2.18318 -2.39411,3.72178 -8.37161,4.42871 z m 1.19842,-4.23733 c -1.28575,-1.4191 -5.77719,0.2919 -5.05053,1.92391 0.41304,0.92772 1.41189,0.97888 3.23802,0.16584 1.72913,-0.76977 2.35479,-1.49126 1.81251,-2.08977 z m 38.08281,-14.13861 c -4.10073,-0.64725 -11.70932,-3.5044 -10.62171,-3.98862 0.35524,-0.15842 2.57813,0.23204 4.93955,0.86716 2.36143,0.63521 5.58742,1.46811 7.16896,1.85098 4.18484,1.01309 3.04632,1.98594 -1.4868,1.27048 z m -65.04,21.34647 c -3.94533,-0.51055 -5.29123,-1.60998 -5.14543,-4.2033 0.13818,-2.45727 2.56157,-3.40863 6.28503,-2.4672 3.39374,0.85803 5.44485,4.11684 3.6933,5.86802 -1.4081,1.40774 -0.85956,1.31667 -4.83289,0.80252 z m 0.78156,-3.76349 c -0.4561,-0.50247 -1.8035,-0.63959 -2.99422,-0.30475 -1.89022,0.5316 -1.94379,0.71821 -0.42196,1.47066 2.06079,1.01893 4.60967,0.14907 3.41621,-1.16575 z m -27.33478,4.04319 c -3.37421,-0.10822 -6.07689,-2.54134 -5.87713,-5.29098 0.30914,-4.25566 7.51232,-5.1692 10.61096,-1.34578 1.03624,1.27863 1.92547,2.88356 1.97612,3.56654 0.10931,1.47782 -3.58938,3.17029 -6.70994,3.07021 z m 0.057,-4.98265 c 1.86525,-0.83038 0.76138,-2.16716 -1.57359,-1.90558 -1.30309,0.14611 -2.15859,0.78778 -2.29593,1.7227 -0.33977,2.31218 0.29752,3.08055 1.53164,1.84669 0.61776,-0.61766 1.66982,-1.36639 2.33788,-1.66381 z m -25.99157,1.28536 c -4.85323,-1.22703 -5.66872,-5.66133 -1.39143,-7.56573 2.77369,-1.23491 9.14903,0.84537 9.82,3.20425 0.79977,2.81087 -4.24229,5.4199 -8.42861,4.36149 z m 4.63555,-4.11713 c -0.46825,-1.05144 -5.55203,-0.90577 -5.96539,0.17104 -0.3616,0.94203 3.71743,1.8815 5.23517,1.20575 0.6165,-0.27455 0.94513,-0.89403 0.73022,-1.37672 z m -19.79801,0.56698 c -0.53175,-0.36253 -2.05517,-0.59856 -3.38541,-0.52461 -3.00331,0.16742 -6.5862,-2.72586 -5.82665,-4.70459 0.83033,-2.16303 5.28822,-2.43211 7.26883,-0.43883 3.33378,3.35522 4.72442,5.51925 3.80876,5.92692 -0.49452,0.21956 -1.33382,0.1035 -1.86553,-0.25886 z m -3.89773,-5.3849 c -0.20973,-0.47103 -1.15212,-0.51326 -2.09419,-0.0938 -0.94211,0.41948 -1.54131,1.14804 -1.3316,1.61908 0.20972,0.47103 1.15213,0.51325 2.09422,0.0938 0.94209,-0.41946 1.54131,-1.148 1.33157,-1.61907 z m -20.13335,-0.82671 c -4.215197,-1.43809 -5.601709,-4.13483 -2.773344,-5.39411 2.470034,-1.09973 4.106944,-0.32819 6.437754,3.03452 2.18835,3.15711 0.97092,3.94107 -3.66441,2.35959 z m 1.18857,-2.54007 c -0.31459,-0.70656 -1.15008,-1.02729 -1.856656,-0.71274 -1.337405,0.59549 -1.248179,1.76945 0.176026,2.31619 1.42422,0.54669 2.27607,-0.26608 1.68062,-1.60345 z m -24.021995,-4.39821 c -5.212767,-0.53264 -7.381284,-3.32256 -4.399242,-5.65988 2.398868,-1.88024 6.315446,-0.40849 7.802775,2.93214 0.991986,2.22807 -0.05804,3.06959 -3.403533,2.72774 z m -0.120583,-3.72814 c -0.187243,-0.42068 -1.054298,-0.72735 -1.92669,-0.68152 -2.241269,0.11773 -2.372353,0.24528 -1.73056,1.68692 0.317763,0.71371 1.333262,0.94571 2.284873,0.52204 0.942097,-0.41945 1.559662,-1.10682 1.372377,-1.52744 z M 315.97804,108.18594 c -0.64168,-1.44149 -0.8244,-1.42954 -2.41162,0.15735 -1.58667,1.58635 -0.7713,2.79922 1.27069,1.89005 0.95163,-0.4237 1.4587,-1.33362 1.14093,-2.04729 z m -57.68169,4.13083 c -0.31461,-0.70654 -0.95737,-1.11306 -1.4284,-0.90333 -0.47104,0.20973 -0.59908,0.95938 -0.28448,1.66599 0.31467,0.70652 0.95741,1.11307 1.42842,0.90339 0.47103,-0.20977 0.59909,-0.95947 0.28446,-1.66605 z m 0.77575,-2.50079 c -1.2088,-1.01512 -2.75467,-1.78752 -3.43534,-1.71655 -0.68068,0.0708 0.22916,1.0771 2.0217,2.23588 3.79077,2.4504 4.59723,2.15413 1.41348,-0.51977 z m 5.63998,-0.0991 c -2.69533,-1.91766 -10.32113,-5.41039 -11.07754,-5.07362 -0.45803,0.20409 1.96782,1.63825 5.39103,3.18723 6.30781,2.85437 7.69254,3.31369 5.68651,1.88639 z m -15.40136,6.01283 c -1.03031,-0.11238 -5.12681,0.82111 -9.10335,2.07437 -10.13032,3.19283 -13.63107,3.94088 -14.0489,3.00244 -0.19917,-0.44627 0.0254,-0.75929 0.49805,-0.6952 0.47263,0.064 5.20591,-1.09332 10.51827,-2.572 5.31239,-1.47862 10.97451,-2.98475 12.58251,-3.34686 1.89043,-0.42565 2.77198,-0.99927 2.49476,-1.62182 -0.23926,-0.53702 -1.85639,-0.344 -3.65409,0.43624 -1.77383,0.76981 -5.77639,1.89275 -8.89468,2.49529 -11.16827,2.15785 -16.71754,3.02392 -17.48608,2.72881 -0.88209,-0.33861 1.89389,-1.06398 13.95128,-3.64535 4.61363,-0.98777 8.97931,-2.07306 9.70159,-2.41165 2.47344,-1.16007 -1.60365,-1.02474 -6.02035,0.1998 -5.2859,1.4655 -14.3993,2.71731 -15.95675,2.19187 -1.51716,-0.51194 4.76076,-2.09926 10.03159,-2.53652 2.10967,-0.17445 4.83825,-0.78838 6.06361,-1.36299 1.95731,-0.91793 1.7364,-1.02891 -1.81872,-0.91397 -2.22566,0.0718 -4.33723,-0.003 -4.69234,-0.16693 -0.67739,-0.31244 -3.50146,0.50387 -7.48518,2.16357 -4.48142,1.86699 -3.74741,0.0336 0.9084,-2.26908 2.92978,-1.44906 5.56665,-2.16019 7.09105,-1.91236 2.44286,0.39716 15.13534,0.10914 16.20646,-0.36773 0.31636,-0.1407 0.44542,-0.5474 0.28688,-0.90344 -0.28362,-0.63682 -3.10807,-0.77112 -8.79477,-0.41808 -4.52082,0.28064 -2.93801,-0.92978 2.04474,-1.56375 4.24061,-0.53953 5.35865,-1.14309 4.7301,-2.55503 -0.33936,-0.76225 -5.07009,0.19029 -10.35973,2.08595 -3.86003,1.38339 -9.10579,2.88916 -13.42144,3.85272 -1.15524,0.25737 -2.26854,0.0909 -2.47426,-0.37124 -0.47048,-1.05667 5.47165,-3.73423 12.02305,-5.41774 9.77457,-2.511681 12.8615,-3.552445 12.09197,-4.077067 -0.42869,-0.292247 -4.38708,0.487667 -8.79643,1.733085 -8.85942,2.502442 -22.89203,4.992452 -31.53797,5.596232 -34.51742,2.41058 -47.22605,2.33093 -75.26227,-0.47175 -6.2025,-0.62004 -12.67392,-1.48233 -14.38095,-1.91621 -1.70707,-0.43386 -6.26395,-1.43523 -10.12638,-2.22526 l -7.022637,-1.436405 -1.799616,5.877455 c -2.824199,9.22369 -2.733829,10.42095 0.903547,11.97057 7.926506,3.37694 37.143696,9.28272 49.373536,9.97999 11.4484,0.65277 30.49493,0.51481 39.5245,-0.28633 23.35114,-2.07167 38.64751,-4.03074 48.05769,-6.15472 12.07349,-2.72519 17.11253,-4.43518 14.0533,-4.76893 z m -41.66777,4.25209 c -5.29557,0.18995 -8.23436,-6.58891 -3.72641,-8.59593 5.73626,-2.554 10.1882,-0.3724 9.38036,4.59667 -0.45955,2.82689 -1.92795,3.86552 -5.65391,3.9992 z m 0.81331,-5.41517 c 0.0759,-0.55917 -0.3851,-1.08756 -1.02444,-1.17415 -1.61629,-0.21901 -3.51627,1.8569 -2.39756,2.61958 1.15162,0.78502 3.23921,-0.0968 3.42219,-1.445 z m -19.52612,7.37999 c -3.36873,-0.12495 -5.49841,-3.1786 -4.3334,-6.21357 1.74311,-4.54099 8.2918,-2.66451 9.55968,2.73922 0.47184,2.01241 -1.91203,3.59729 -5.22628,3.47435 z m 0.54772,-5.15848 c -0.20973,-0.47103 -0.98216,-0.58896 -1.71653,-0.26198 -0.73441,0.32689 -0.92547,0.87383 -0.42461,1.21525 0.50084,0.34143 1.27327,0.45931 1.71655,0.26195 0.44338,-0.19687 0.63431,-0.74418 0.42459,-1.21522 z m -20.98054,5.79864 c -2.25041,-1.11276 -2.37086,-4.57772 -0.23304,-6.702 3.38332,-3.36178 9.43435,-0.59767 7.83163,3.57745 -0.79162,2.06228 -5.68097,4.07277 -7.59873,3.12455 z m 4.13304,-4.45494 c -0.20983,-0.47101 -1.17491,-0.50312 -2.14479,-0.0713 -0.96993,0.43181 -1.35367,1.06449 -0.85283,1.40593 0.50089,0.34142 1.466,0.37355 2.14476,0.0713 0.67881,-0.30213 1.06255,-0.93482 0.85286,-1.4059 z m -22.00795,3.07 c -3.10069,-0.60321 -4.17802,-2.83174 -2.83609,-5.86646 0.85104,-1.9245 1.46571,-2.31368 3.62501,-2.29499 3.35878,0.0291 4.88491,1.61753 4.65078,4.84072 -0.2165,2.98017 -1.90176,4.00895 -5.4397,3.32073 z m 2.42107,-5.574 c -0.19618,-0.44199 -1.10258,-0.40197 -2.01304,0.0886 -0.91051,0.49043 -1.52039,1.19504 -1.35529,1.56584 0.16511,0.37079 1.071,0.33102 2.01308,-0.0885 0.94207,-0.41944 1.552,-1.12409 1.35527,-1.56587 z m -20.9476,4.35596 c -2.91507,-1.28908 -3.70577,-3.39035 -2.0687,-5.49743 2.02404,-2.60517 6.60949,-1.65424 7.62414,1.58115 0.96023,3.0618 -2.29631,5.35748 -5.55544,3.91628 z m 2.86113,-3.49007 c -0.44996,-1.01046 -2.60152,-1.34773 -2.9419,-0.46111 -0.34033,0.88663 1.48432,2.07573 2.49482,1.62582 0.44323,-0.19735 0.64441,-0.72144 0.44708,-1.16471 z m -23.07543,-0.20765 c -4.81116,-2.88987 -0.51089,-8.02503 4.83837,-5.77772 3.49571,1.4686 3.99338,2.63301 1.86272,4.35847 -2.95345,2.39188 -4.52709,2.72515 -6.70118,1.41927 z m 3.9175,-3.63797 c -0.20973,-0.47104 -1.17488,-0.50314 -2.14476,-0.0713 -0.9699,0.43181 -1.35367,1.0645 -0.85282,1.40592 0.50085,0.34142 1.46601,0.37353 2.1448,0.0713 0.67872,-0.30219 1.06253,-0.93488 0.85278,-1.40591 z m 154.03196,-8.99802 c -0.40704,-0.91433 -1.23159,-1.72896 -1.83221,-1.81036 -0.61943,-0.0839 -0.66978,0.80065 -0.11635,2.04365 0.53662,1.20544 1.36118,2.02009 1.83225,1.81034 0.471,-0.2097 0.5234,-1.12936 0.11631,-2.04363 z m -10.76565,-0.78666 c -5.65101,-2.967599 -7.54453,-3.459824 -6.78991,-1.76494 0.40312,0.90544 12.12443,5.8167 12.42735,5.20713 0.10439,-0.21013 -2.43245,-1.75909 -5.63744,-3.44219 z m 5.80486,-1.13547 c -0.20311,-0.45518 -2.18452,-1.53562 -4.40406,-2.400635 -2.21946,-0.864977 -5.23598,-2.357528 -6.70334,-3.316705 -1.86773,-1.220928 -2.81789,-1.353186 -3.16808,-0.440924 -0.35017,0.912229 1.53945,2.258364 6.30021,4.488184 6.46046,3.0259 8.79676,3.51515 7.97527,1.67008 z m 2.93496,-4.932709 c -0.31462,-0.706539 -0.95739,-1.113074 -1.42846,-0.90336 -0.47104,0.209738 -0.59902,0.959408 -0.28445,1.666011 0.31463,0.70654 0.95738,1.113073 1.4284,0.903335 0.47105,-0.209725 0.59909,-0.95939 0.28451,-1.665986 z m -11.05861,-2.89997 c -9.73298,-3.446789 -10.4412,-2.898407 -1.51856,1.175856 4.39999,2.009105 7.75556,3.000937 7.99986,2.364588 0.24428,-0.636376 -2.47433,-2.121429 -6.4813,-3.540444 z m 8.23717,-2.706704 c -0.57759,-0.561493 -0.69019,-0.268177 -0.28708,0.747811 0.36505,0.9193 0.79242,1.33513 0.95028,0.923811 0.1579,-0.411286 -0.14069,-1.163501 -0.66333,-1.671552 z m -3.39189,0.932983 c -0.17,-0.347671 -4.01203,-2.215994 -8.538,-4.151865 -7.78457,-3.329636 -8.15483,-3.386499 -6.85509,-1.05281 0.7557,1.356828 1.81865,2.268946 2.36217,2.026962 0.54352,-0.242082 3.41471,0.673224 6.38044,2.033804 4.97653,2.283139 7.41216,2.70206 6.65048,1.143909 z M 243.95894,89.33433 C 238.60225,77.303058 225.724,61.519583 216.49433,55.673964 c -2.26693,-1.435776 -5.63658,-3.860816 -7.48808,-5.388971 -1.85152,-1.528156 -7.40318,-5.368279 -12.33697,-8.533614 -4.93386,-3.165314 -10.10626,-6.536315 -11.49428,-7.491089 -2.79019,-1.919291 -2.35483,-2.109809 -13.83827,6.055999 -3.00084,2.133906 -10.57271,6.390268 -16.8263,9.458577 -6.2536,3.068314 -13.54564,6.801289 -16.20455,8.295516 -7.06294,3.969161 -22.62549,16.432003 -27.31739,21.876338 -4.42954,5.139928 -10.53607,14.800078 -10.35204,16.376275 0.0635,0.543592 2.49896,1.410583 5.41221,1.926647 2.91325,0.516069 7.55909,1.385233 10.32405,1.931508 27.76731,5.48578 89.76618,4.63208 118.34908,-1.629637 11.48323,-2.515669 11.99394,-3.025269 9.23715,-9.217183 z m 20.3401,-2.718905 c -0.1969,-0.44346 -0.85026,-0.872517 -1.45093,-0.953928 -0.60064,-0.0814 -0.82457,0.452889 -0.49764,1.187219 0.32692,0.734406 0.9799,1.163633 1.45094,0.953907 0.47103,-0.209754 0.69497,-0.743964 0.49763,-1.187198 z m -12.89364,-3.57248 c -7.97195,-3.6231 -9.97898,-4.006564 -8.95711,-1.71141 0.68861,1.546605 17.14023,7.657001 17.01532,6.319741 -0.0515,-0.543324 -3.67696,-2.617134 -8.05821,-4.608331 z m 10.75139,-1.239101 c -0.32689,-0.734397 -0.87384,-0.925433 -1.21525,-0.424596 -0.3414,0.500853 -0.45932,1.273301 -0.26197,1.716553 0.19687,0.443435 0.7442,0.634305 1.21525,0.424582 0.47101,-0.209824 0.58895,-0.98216 0.26197,-1.716539 z m -4.94721,0.03491 c -2.72929,-2.039352 -18.4089,-7.586481 -18.30056,-6.474361 0.0596,0.613213 4.2076,2.704115 9.21744,4.646501 8.79086,3.408309 12.08556,4.071326 9.08312,1.82784 z m 3.04061,-4.31714 c -0.3269,-0.734394 -0.87837,-0.918755 -1.22539,-0.40973 -0.34695,0.508994 -0.24939,1.185522 0.21735,1.503284 1.26306,0.861052 1.67839,0.410737 1.00855,-1.093627 z m -15.02135,-4.668191 c -5.2766,-2.095559 -9.54944,-3.302526 -9.49525,-2.682147 0.0544,0.620361 4.41605,2.79336 9.693,4.828822 5.27699,2.03547 9.54982,3.242431 9.49524,2.68216 -0.055,-0.560256 -4.41643,-2.73327 -9.69299,-4.828835 z m 13.32793,0.864695 c -0.20971,-0.47105 -0.76672,-0.684857 -1.2377,-0.475144 -0.47108,0.209732 -0.6849,0.766723 -0.47514,1.237765 0.20972,0.471039 0.76668,0.68486 1.23773,0.475137 0.47104,-0.209712 0.68485,-0.766712 0.47511,-1.237758 z m -7.33345,-2.710941 c -0.64816,0.06323 -5.17068,-1.519814 -10.05001,-3.517709 -4.87932,-1.997899 -9.19794,-3.487181 -9.59698,-3.309533 -1.91838,0.854128 0.97945,2.481658 10.8145,6.07413 8.15139,2.977399 10.63793,3.52368 10.36716,2.277582 -0.19584,-0.901636 -0.88647,-1.58763 -1.53467,-1.52447 z m -1.36207,-9.962501 c -5.54022,-7.295705 -13.22481,-15.245813 -17.25262,-17.848763 -1.29281,-0.835458 -2.82534,-2.000342 -3.40557,-2.588633 -0.58025,-0.588298 -7.47473,-4.073213 -15.32107,-7.744269 -15.59008,-7.294127 -18.79905,-9.831442 -25.57951,-20.225624 -5.94671,-9.1161473 -6.11966,-9.3223673 -7.74621,-9.2369457 -2.28822,0.1201793 -5.07949,3.3170119 -7.33041,8.3954637 -1.10805,2.50006 -3.06113,5.655122 -4.34011,7.011223 -3.25417,3.450396 -17.1029,12.13717 -25.01776,15.692689 -23.69934,10.646227 -41.08668,25.109025 -49.6182,41.272544 -3.763094,7.129393 -13.610992,33.967289 -12.982192,35.379599 1.123809,2.52409 2.909222,0.002 4.93996,-6.97883 1.150109,-3.9535 1.711034,-7.447273 1.246492,-7.763955 -0.46454,-0.316679 -0.449247,-0.624921 0.03398,-0.684978 0.483235,-0.06004 2.935974,-4.438756 5.450535,-9.730442 12.941245,-27.233729 21.208825,-34.580379 60.083785,-53.390871 20.95137,-10.137784 22.1084,-11.009173 25.75864,-19.399663 1.06333,-2.444101 2.32495,-4.2554407 2.80365,-4.0251996 0.47868,0.2302437 2.67495,2.6168646 4.88054,5.3036056 7.83548,9.544765 9.92357,11.649641 15.47331,15.597716 3.08857,2.197182 10.93106,6.434318 17.42775,9.41586 13.69517,6.285119 22.43744,13.007837 29.45536,22.650838 5.73045,7.873954 6.52851,8.760688 6.42906,7.14329 -0.042,-0.686739 -2.46745,-4.396824 -5.38942,-8.244686 z m 0.3398,6.388137 c -0.62633,-0.708877 -2.41006,-3.125594 -3.96386,-5.370475 -3.25468,-4.702278 -14.29354,-14.053836 -18.02666,-15.271289 -1.39398,-0.454591 -2.73036,-1.244989 -2.96978,-1.756443 -0.23945,-0.511438 -4.89215,-2.923171 -10.33938,-5.359375 -12.35758,-5.526788 -19.57155,-10.626645 -26.81421,-18.956215 -3.10696,-3.573184 -6.00157,-6.339738 -6.43249,-6.147887 -0.43091,0.191821 -1.49398,1.506149 -2.36239,2.920666 -4.01737,6.543767 -8.0443,9.404853 -22.33916,15.871764 -13.69419,6.195179 -24.26191,12.14206 -34.46591,19.39541 -11.10967,7.897133 -16.30461,13.436218 -21.82664,23.272568 -5.020029,8.942142 -14.39233,31.925893 -14.097167,34.570563 0.212983,1.90827 3.951453,4.06794 5.696712,3.29089 0.570969,-0.25421 1.354867,-2.33497 1.741997,-4.62391 1.9229,-11.369306 4.857747,-17.929388 13.387258,-29.923744 5.51369,-7.753421 11.92191,-14.047849 21.95253,-21.56267 6.71767,-5.032792 10.41581,-7.095019 21.93197,-12.23007 12.15286,-5.418902 19.97409,-9.60733 28.99138,-15.525265 2.43296,-1.596734 2.7221,-1.48923 9.122,3.391435 3.63516,2.772247 9.13011,6.458047 12.21097,8.190677 3.08091,1.732621 6.75324,3.90743 8.16078,4.832914 1.40753,0.925483 3.04035,1.46846 3.62839,1.206649 0.94907,-0.422552 11.79392,3.590423 16.68238,6.172991 3.73439,1.972899 0.80828,1.259287 -6.59105,-1.607372 -4.18434,-1.621125 -7.71727,-2.662578 -7.85095,-2.31434 -0.37235,0.970058 6.65912,6.082976 7.72573,5.617712 1.22261,-0.533294 21.7007,7.747885 21.3592,8.63749 -0.14341,0.373629 -3.51956,-0.57685 -7.50258,-2.11218 C 233.2271,60.50799 228.72257,58.882848 227.2,58.431891 l -2.76829,-0.819929 1.38553,1.578669 c 1.41464,1.61187 23.53727,10.375421 24.81734,9.831004 0.38784,-0.164997 0.19279,-0.87994 -0.43293,-1.588983 z M 43.630596,107.29032 c -0.608834,-1.36746 -3.475099,-1.67957 -3.954529,-0.43061 -0.151673,0.39513 0.21728,1.21152 0.819796,1.81423 1.418875,1.41919 3.895858,0.32589 3.134736,-1.38362 z"
     id="path16092"
     inkscape:connector-curvature="0" />
</svg>
