<?xml version="1.0" standalone="yes"?>

	<svg
		xmlns="http://www.w3.org/2000/svg"
		xmlns:xlink="http://www.w3.org/1999/xlink"
		xmlns:svg="http://www.w3.org/2000/svg"
		xmlns:dc="http://purl.org/dc/elements/1.1/"
		xmlns:cc="http://web.resource.org/cc/"
		xmlns:rdf="http://www.w3.org/1999/02/22-rdf-syntax-ns#"
	 width="229" height="181">
<path style="fill:#e9e9e9; stroke:none;" d="M0 0L0 11L6 11L6 61L7 61L9 11L26 11L26 9L7 9L7 0L0 0z"/>
<path style="fill:#026aa4; stroke:none;" d="M7 0L7 9C14.0863 7.3129 27.5142 11.3168 29 2C35.086 1.24832 41.8361 1.08015 44 8L229 8L229 0L7 0z"/>
<path style="fill:#a2a2a2; stroke:none;" d="M32 1L32 2L42 7L43 4L32 1z"/>
<path style="fill:#72767a; stroke:none;" d="M29 2L27 9L32 2L29 2z"/>
<path style="fill:#525252; stroke:none;" d="M30 20L31 20L31 8C33.7202 9.42947 47.1724 10.1685 40 15L40 16L43 16L43 20C45.9454 13.1721 42.5468 2.31332 33.1435 3.11652C25.336 3.7834 27.9862 15.9875 30 20z"/>
<path style="fill:#72767a; stroke:none;" d="M43 4L44 10L45 10L43 4z"/>
<path style="fill:#b0e0fc; stroke:none;" d="M8 8L8 9L26 9L26 11L9 11L9 45C18.7076 41.3816 31.6246 40.0124 28.7014 26C27.9855 22.5683 26.0431 19.3655 25 16L27 8L8 8z"/>
<path style="fill:#e9e9e9; stroke:none;" d="M31 8L28 21C30.7316 27.6712 33.1448 32.7451 41 33L41 26L35 24L43 24L41 16L42 18L41 18L39 14L43 15C42.4237 7.60452 36.4911 10.2134 31 8z"/>
<path style="fill:#b0e0fc; stroke:none;" d="M45 8L45 9L229 9L211 8L174 8L45 8z"/>
<path style="fill:#e9e9e9; stroke:none;" d="M45 9L45 12L229 12L229 9L45 9z"/>
<path style="fill:#72767a; stroke:none;" d="M0 11L0 12L6 12L0 11z"/>
<path style="fill:#026aa4; stroke:none;" d="M0 12L0 112L6 110L2.52392 75L5.90972 62L6 12L0 12z"/>
<path style="fill:#b0e0fc; stroke:none;" d="M45 12L44 23L228 23L228 98L56 98L52 104C51.1024 123.644 44.7054 140.515 52.5455 159.999C54.5373 164.949 59.4479 166.739 62 171C54.3012 171 37.5496 173.788 35 165L26 166L27 179C18.7715 179.965 11.7869 176.267 13 167C8.30611 162.403 10 154.166 10 148L9 148L9 181L229 181L229 12L45 12z"/>
<path style="fill:#a2a2a2; stroke:none;" d="M27 13L25 16L27 23L31 21L27 13M44 13L44 20L45 20L44 13z"/>
<path style="fill:#72767a; stroke:none;" d="M30 14L30 18L31 18L30 14M39 14L42 18L42 15L39 14z"/>
<path style="fill:#525252; stroke:none;" d="M32 15L32 16L37 16L32 15z"/>
<path style="fill:#72767a; stroke:none;" d="M33 19L37 16L33 19M39 20L37 23C39.2508 22.5267 40.1178 22.1397 39 20z"/>
<path style="fill:#a2a2a2; stroke:none;" d="M43.3333 20.6667L43.6667 21.3333L43.3333 20.6667z"/>
<path style="fill:#525252; stroke:none;" d="M43 22L42 32L43 32L43 22z"/>
<path style="fill:#72767a; stroke:none;" d="M28 23L34 36L28 23z"/>
<path style="fill:#a2a2a2; stroke:none;" d="M44 23L43 32L42 32L42 24L35 24L41 26L41 33L33 35L40 36L39 40L41 37L45 55L49 57C44.3401 45.157 45.3485 42.0033 58 45L53 57L49 77L54 67L55 67L58 72C57.3924 63.0048 55.3393 53.8011 61 46C55.0262 40.441 57.0815 29.7941 66.9961 31.5386C70.9379 32.2321 73.0289 35.9267 75 39L76 39C79.5667 34.8433 87.4911 32.0969 89.1728 40.0154C90.2824 45.2401 87.4908 48.2968 90 54C94.0712 52.304 97.2218 50.5409 98 46L109.094 32.7863L122.058 40.2716L138 38C138.634 18.0625 156.515 33.7784 155 47L173 44L171 28L201 32L200 49L201 49L208 40C206.525 35.1922 205.314 22.3801 214.941 27.3372C217.511 28.6601 224.814 40.1272 225.852 43.0185C231.249 58.0489 227 81.0987 227 97L217 95L193 97L193 89L187 89L187 97L132 97L135 91L126 90L130 97L58 97L58 98L228 98L228 23L44 23z"/>
<path style="fill:#e9e9e9; stroke:none;" d="M208 40C203.412 41.6498 202.317 44.5138 201 49L200 49L201 32L171 28L173 44L155 47C157.59 32.7789 138.237 17.767 138 38C133.141 38.0172 127.541 41.1927 123.019 40.2184C117.078 38.9381 115.787 29.5001 108.189 32.7461C101.956 35.409 105.318 43.827 98 46L90 54C88.4628 48.8129 90.8397 43.5606 89.3526 39.044C87.0055 31.915 78.9219 33.9949 76 39L75 39C67.8197 22.8231 48.4239 38.0329 61 46C51.3814 56.0724 60.7665 65.9929 62.6574 76.0394C63.884 82.5564 59.9793 90.915 58 97L106 97L123 96L124 96L125 96L127 94L127 97L129 97L126 90L135 91L132 97L187 97L187 89L193 89L193 97L217 95L225 97L224 89L227 89C227 75.8654 231.401 53.0387 225.486 41.1327C224.226 38.5967 218.029 28.6241 215.852 27.3187C205.876 21.3363 205.44 34.2245 208 40M29 29C29.1301 35.0765 36.4665 46.5532 40 36L32 36L29 29z"/>
<path style="fill:#72767a; stroke:none;" d="M25 42L27 37L29 37L37 43L30 35C26.6138 36.6719 25.1675 38.1941 25 42z"/>
<path style="fill:#a2a2a2; stroke:none;" d="M27 37L29 39L29 37L27 37z"/>
<path style="fill:#525252; stroke:none;" d="M41 37L38 39C33.2967 50.4455 44.4656 67.5852 45 80L46 80C50.4863 66.7473 47.0699 52.0758 41 40L45 42L41 37z"/>
<path style="fill:#b0e0fc; stroke:none;" d="M132 37L132 38L136 38L132 37z"/>
<path style="fill:#e9e9e9; stroke:none;" d="M27 38L26 42L23 41L25 52C20.0799 53.0597 24.1625 59.0856 23.9722 63C23.4375 74.0009 27.57 79 39 79L35 70L43 84L44 84C44 70.4592 43.8121 59.6872 29 55L30 64C26.1292 60.8231 26.7531 58.5326 28 54L25 53L25 52L39 58L26 42L35 47L36 42L27 38M41 40L44 44L41 40z"/>
<path style="fill:#a2a2a2; stroke:none;" d="M18 42L18 43L21 43C21 46.7085 21.8933 49.7233 19 49L24 59L25 52L23 41L18 42z"/>
<path style="fill:#e9e9e9; stroke:none;" d="M16 42L19 49L12 43L12 61L13 61L14 58L15 58C13.1889 61.3954 9.39447 62.8773 7.8179 66.4437C2.98856 77.368 9.27605 89.5869 12 100L20 98L18 78L19 78L19 90L20 90C21.6621 76.8485 23.6338 61.6187 19 49L21 43L16 42z"/>
<path style="fill:#a2a2a2; stroke:none;" d="M26 42L34 49L26 42z"/>
<path style="fill:#72767a; stroke:none;" d="M46 42L47 45L50 43L55 57L56 57L52 45L58 47C55.3305 43.0877 50.5302 42.2325 46 42M14 43L19 49L14 43z"/>
<path style="fill:#e9e9e9; stroke:none;" d="M45 43L49 55L46 83L47 83L55 58C54.0195 51.852 49.7412 46.8558 45 43z"/>
<path style="fill:#a2a2a2; stroke:none;" d="M48 43L49 48L50 48L50 43L48 43M10 58L9 58L7 56L7 66L9 66C12.5237 58.1017 13.0775 52.5256 12 44C5.67761 46.5418 9.66646 52.7536 10 58M133 44L133 86L134 86C134 74.0427 137.611 54.9878 133 44M35 45L39 58L25 52L25 53L28 54C26.0315 58.5609 25.0397 61.4677 30 64L29 55L39 60L41 53L40 53L39 55L36 47L37 47L37 49L38 49L35 45z"/>
<path style="fill:#b0e0fc; stroke:none;" d="M52 45L52 46L55 53L56 53C57.0165 48.548 56.8007 46.0477 52 45z"/>
<path style="fill:#a2a2a2; stroke:none;" d="M126 45L125 87L127 87C127 75.0427 130.611 55.9877 126 45M52 46L54 51L55 51L52 46z"/>
<path style="fill:#525252; stroke:none;" d="M34.3333 47.6667L34.6667 48.3333L34.3333 47.6667z"/>
<path style="fill:#e9e9e9; stroke:none;" d="M36 47L39 55L40 55L36 47z"/>
<path style="fill:#a2a2a2; stroke:none;" d="M117 47L117 86L118 86C118 74.8277 121.311 57.274 117 47M121 47L121 86L122 86C122 74.8277 125.311 57.274 121 47z"/>
<path style="fill:#b0e0fc; stroke:none;" d="M44 50L45 54L46 54L44 50z"/>
<path style="fill:#a2a2a2; stroke:none;" d="M110 50L110 85L111 85L110 50z"/>
<path style="fill:#b0e0fc; stroke:none;" d="M113 51L113 85L115 85L115 51L113 51z"/>
<path style="fill:#525252; stroke:none;" d="M9 52L9 58L10 58L9 52M49 53L52 56L49 53z"/>
<path style="fill:#b0e0fc; stroke:none;" d="M210 53L210 76L209 76L209 68L206 69L206 61L205 61L203 75C207.401 75 203.755 80.6595 203 83L212 85L212 53L210 53M160 55C160.524 62.7174 155.699 84.9703 165 87L165 55L160 55M151 57L151 84L153 84L153 57L151 57z"/>
<path style="fill:#a2a2a2; stroke:none;" d="M14 58L13 62L14 62L14 58z"/>
<path style="fill:#72767a; stroke:none;" d="M22 58L22 66L23 66L22 58z"/>
<path style="fill:#b0e0fc; stroke:none;" d="M48 59L48 69L49 69L48 59z"/>
<path style="fill:#525252; stroke:none;" d="M11.6667 61.3333L12.3333 61.6667L11.6667 61.3333z"/>
<path style="fill:#a2a2a2; stroke:none;" d="M30 64L33 68L30 64z"/>
<path style="fill:#72767a; stroke:none;" d="M5 65L2 77L3 77L5 70L6 73L7 73L7 65L5 65z"/>
<path style="fill:#525252; stroke:none;" d="M23 65C19.8161 70.6907 18.6937 80.1983 26 83L23 80L27 76L23 65z"/>
<path style="fill:#b0e0fc; stroke:none;" d="M76 65C75.9967 70.0611 73.4774 78.0916 75.7423 82.6968C77.2759 85.8151 82.5376 86.6494 83.6821 82.848C85.2542 77.6264 84 70.4388 84 65L76 65z"/>
<path style="fill:#72767a; stroke:none;" d="M33 67L35 70L33 67M54 67L47 83L46 83L46 80L45 80L43 84C40.4025 78.265 29.891 76.5416 24 77L23 80L26 83L22 80L21 80L21 90L19 90L19 78L18 78L18 94L21 93L21 99L18 99L20 103C31.9168 102.551 40.4319 97.1255 44 85L45 85C44.9967 90.0108 42.3487 97.9729 47 101L46 84L49 81C52.7758 85.0453 51.8929 91.638 52 97L58 98L61 86L60 86C59.0117 90.7067 54.125 98.3332 53.1096 88.9954C52.3277 81.8055 56.511 73.9828 54 67z"/>
<path style="fill:#525252; stroke:none;" d="M57.3333 68.6667L57.6667 69.3333L57.3333 68.6667z"/>
<path style="fill:#e9e9e9; stroke:none;" d="M55 69L58 92L59 92C60.3431 84.7909 61.9453 77.9509 59 71L55 69z"/>
<path style="fill:#72767a; stroke:none;" d="M58 69L61 83L62 83C63.4324 76.9809 62.9852 72.988 58 69z"/>
<path style="fill:#a2a2a2; stroke:none;" d="M5 70C1.85821 76.5286 3.71884 98.618 12 100L7.38966 85L5 70M22 70L26 75L22 70z"/>
<path style="fill:#72767a; stroke:none;" d="M35 70L41 79L35 70z"/>
<path style="fill:#a2a2a2; stroke:none;" d="M54 71C54.0927 75.2842 50.1335 92.4142 55.321 94.2485C58.4127 95.3417 58.1812 90.6557 58.1258 88.9954C57.9097 82.5188 57.5584 76.6281 54 71M44 74L44 82L45 82L44 74M21.3333 76.6667L21.6667 77.3333L21.3333 76.6667z"/>
<path style="fill:#e9e9e9; stroke:none;" d="M26 78C27.9282 81.4984 30.1224 81.8746 34 82L34 81L29 78L26 78z"/>
<path style="fill:#525252; stroke:none;" d="M39 78L39 80L41 80L39 78z"/>
<path style="fill:#e9e9e9; stroke:none;" d="M50 78L50 80L52 80L52 78L50 78z"/>
<path style="fill:#525252; stroke:none;" d="M37.6667 80.3333L38.3333 80.6667L37.6667 80.3333z"/>
<path style="fill:#e9e9e9; stroke:none;" d="M27 83L25 94C32.272 92.5929 37.3955 87.235 41 81L27 83M49 81L50 87L49 87L49 85L48 85L52 97L50 87C53.7383 86.3806 51.1634 82.3708 49 81z"/>
<path style="fill:#a2a2a2; stroke:none;" d="M60 82L62 86L60 82z"/>
<path style="fill:#e9e9e9; stroke:none;" d="M40 84C35.8419 89.8866 30.2296 94.6953 23 96C27.0365 109.905 41.2056 91.3139 42 84L40 84z"/>
<path style="fill:#525252; stroke:none;" d="M46.3333 84.6667L46.6667 85.3333L46.3333 84.6667z"/>
<path style="fill:#a2a2a2; stroke:none;" d="M47 84C46.0792 89.6029 46.7018 95.937 52 99L52 100L44 99L43 99C40.6464 101.127 38.4219 103.945 36 101L21 103C23.0494 110.392 27.0123 109.999 34 110L36 124C47.1986 120.371 45 112.125 45 102L51 102L50 111L51 111L52 104L57 97L57 96L50 98L48 85L49 85L49 87C50.1178 84.8603 49.2508 84.4732 47 84M30 94L40 85L30 94z"/>
<path style="fill:#e9e9e9; stroke:none;" d="M44 85C40.9923 91.9693 36.1977 97.6338 30 102L30 103L36 101C36.9678 105.494 40.6506 102.798 42.6667 100C45.2913 96.3572 46.1881 88.7977 44 85z"/>
<path style="fill:#a2a2a2; stroke:none;" d="M20 86L20 90L21 90L20 86M95 87L95 88L106 88L106 86L95 87z"/>
<path style="fill:#b0e0fc; stroke:none;" d="M148 86L154 88L148 86z"/>
<path style="fill:#72767a; stroke:none;" d="M4 87L5 90L6 90L6 87L4 87z"/>
<path style="fill:#a2a2a2; stroke:none;" d="M50.3333 87.6667L50.6667 88.3333L50.3333 87.6667z"/>
<path style="fill:#b0e0fc; stroke:none;" d="M76 94L84 93L84 95L79 95L79 96L85 96L85 88C80.2291 88.2219 76.8501 88.8602 76 94z"/>
<path style="fill:#a2a2a2; stroke:none;" d="M108 92L117 90C113.945 88.2399 108.861 87.9827 108 92M171 89L171 90L177 91L171 89M216 89L216 91L219 91L219 89L216 89z"/>
<path style="fill:#b0e0fc; stroke:none;" d="M224 89L227 97L227 89L224 89z"/>
<path style="fill:#e9e9e9; stroke:none;" d="M46 90C46.0006 95.2897 45.0657 101.166 52 100L52 99L46 90z"/>
<path style="fill:#a2a2a2; stroke:none;" d="M97 90L97 92L106 92L106 90L97 90M178 90L178 92L185 93C184.204 89.2842 181.363 90 178 90z"/>
<path style="fill:#e9e9e9; stroke:none;" d="M6 92L6 110L9 110L6 92z"/>
<path style="fill:#525252; stroke:none;" d="M19 93L20 99L21 99L21 93L19 93z"/>
<path style="fill:#a2a2a2; stroke:none;" d="M76 94L76 95L84 95L84 93L76 94z"/>
<path style="fill:#b0e0fc; stroke:none;" d="M129 93L129 97L130 97L129 93M114 95L114 97C118.102 97 125.96 98.8528 127 94L125 96L124 96L123 96L123 94L114 95z"/>
<path style="fill:#a2a2a2; stroke:none;" d="M136 94L136 96L146 96L146 94L136 94z"/>
<path style="fill:#525252; stroke:none;" d="M50.6667 97.3333L51.3333 97.6667L50.6667 97.3333z"/>
<path style="fill:#e9e9e9; stroke:none;" d="M55 97L55 99L57 97L55 97z"/>
<path style="fill:#a2a2a2; stroke:none;" d="M15 99L15 101L18 101L18 99L15 99M21 99L24 102L21 99z"/>
<path style="fill:#72767a; stroke:none;" d="M8 100L8 101L11 103L15 101L8 100z"/>
<path style="fill:#e9e9e9; stroke:none;" d="M15 102C17.8991 103.02 19.3084 103.228 20 100L15 102M53 100L53 102L55 100L53 100z"/>
<path style="fill:#525252; stroke:none;" d="M10.3333 101.667L10.6667 102.333L10.3333 101.667z"/>
<path style="fill:#b0e0fc; stroke:none;" d="M12 101L12 106L13 106L13 103L20 104L12 101z"/>
<path style="fill:#a2a2a2; stroke:none;" d="M9 102L12 107L9 102z"/>
<path style="fill:#e9e9e9; stroke:none;" d="M45 102L42 123L45 124L51 102L45 102z"/>
<path style="fill:#a2a2a2; stroke:none;" d="M13 103L13 105L15 105L15 103L13 103z"/>
<path style="fill:#525252; stroke:none;" d="M20 103L17 104L17 105C19.1991 105.23 20.819 105.366 20 103z"/>
<path style="fill:#e9e9e9; stroke:none;" d="M15 104L16 109L15 104z"/>
<path style="fill:#72767a; stroke:none;" d="M16 104L17 111L19 109L24 110L24 109L22 104L16 104z"/>
<path style="fill:#e9e9e9; stroke:none;" d="M24 104L25 109C29.2263 108.985 32.2777 109.284 34 105L24 104z"/>
<path style="fill:#525252; stroke:none;" d="M34.3333 104.667L34.6667 105.333L34.3333 104.667z"/>
<path style="fill:#e9e9e9; stroke:none;" d="M35 105L36 117L37 117L40 105L35 105z"/>
<path style="fill:#72767a; stroke:none;" d="M9 106L12 112L15 111C13.9656 107.533 12.5264 106.591 9 106z"/>
<path style="fill:#525252; stroke:none;" d="M16.3333 106.667L16.6667 107.333L16.3333 106.667z"/>
<path style="fill:#72767a; stroke:none;" d="M40 106L37 118L38 118L40 106z"/>
<path style="fill:#a2a2a2; stroke:none;" d="M9 108L6 110L6 111L11 111L9 108z"/>
<path style="fill:#525252; stroke:none;" d="M15 109L12 115L17 115L17 109L15 109M19 109L21 123L19 123C16.6496 115.746 10.1925 117.488 12.3187 124.852C13.4992 128.94 19.7101 128.938 21.8202 133.019C24.8057 138.793 19.4182 144.233 19 150L18 150L17 145L12 144L18 152L19 152C22.3815 150.494 24.1567 150.568 27 153L28 153L31 151L31 150C22.4547 147.406 22.5719 112.504 32 111L32 119L33 119L34 110L19 109M0 146L10 148C9.84064 145.594 6.41943 137.436 10.0046 136.631C11.7689 136.235 15.4195 147.507 16.8519 138.941C18.384 129.778 11.1555 132.299 8.6034 125.941C6.70897 121.222 9.69642 115.775 10 111C-5.7425 109.066 0 134.778 0 146z"/>
<path style="fill:#72767a; stroke:none;" d="M49 110L46 121L48 129L40 124L44 126C40.3908 120.675 37.3004 127.03 37 131L38 131L39 128C45.9647 130.891 46.167 140.164 47 147L48 147L49.0401 121L49 110z"/>
<path style="fill:#e9e9e9; stroke:none;" d="M10 111C9.41546 115.797 6.33317 121.919 8.6034 126.697C10.8217 131.366 18.2846 129.998 17.7932 136.995C17.0566 147.485 11.7958 135.591 10.1659 135.921C6.09627 136.747 9.70287 145.562 10 148L12 148L12 144L17 144L17 149L18 149C19.6311 143.412 23.4391 139.462 21.6821 133.059C19.984 126.87 5.79971 125.944 14 117L12 111L10 111M17 111L19 123L21 123L19 111L17 111z"/>
<path style="fill:#a2a2a2; stroke:none;" d="M27 111L27 112C33.1883 116.004 30 134.876 30 142C30 145.238 31.6452 150.53 28 151L28 152C33.7339 153.811 32.5436 159.084 34 164L36 164L38 158L32 148C35.5251 147.412 33.4086 141.799 33.1343 139C32.2478 129.954 32.0308 120.074 32 111L27 111z"/>
<path style="fill:#b0e0fc; stroke:none;" d="M26 112L26 140L27 140L27 113L29 113L29 131C31.0813 126.04 31.9521 113.975 26 112z"/>
<path style="fill:#e9e9e9; stroke:none;" d="M33 112L33 132L34 132L35 112L33 112M27 113L27 150L30 150L29 113L27 113z"/>
<path style="fill:#a2a2a2; stroke:none;" d="M12 115L12 116L17 117L12 115z"/>
<path style="fill:#b0e0fc; stroke:none;" d="M34 115L34 149L35 149L34 115z"/>
<path style="fill:#a2a2a2; stroke:none;" d="M17 117L18 118L17 117M11 118L11 123L12 123L11 118z"/>
<path style="fill:#525252; stroke:none;" d="M35 119L35 149L32 148C33.0499 152.588 37.7052 162.613 42 155L37 157L41 154L41 153L36 154C35.4177 144.176 35.5848 136.335 41 128L38 131L37 131L42 123L42 122L36 124L35 119M46 121L44 126L45 126L46 121z"/>
<path style="fill:#e9e9e9; stroke:none;" d="M47 121L45 126L40 124L48 129L47 121z"/>
<path style="fill:#a2a2a2; stroke:none;" d="M14 128L14 129L19 129L14 128z"/>
<path style="fill:#b0e0fc; stroke:none;" d="M10 129L10 130L13 130L10 129z"/>
<path style="fill:#e9e9e9; stroke:none;" d="M40 129L37 154L45 150L37 161L51 157C50.1325 150.86 45.7752 130.003 40 129z"/>
<path style="fill:#a2a2a2; stroke:none;" d="M39 130C34.8933 136.222 34.8417 146.722 36 154L37 154L39 130z"/>
<path style="fill:#72767a; stroke:none;" d="M17 132L17 139L18 139L17 132M22 133L22 141L23 141L22 133M7 137L7 140L8 140L7 137z"/>
<path style="fill:#b0e0fc; stroke:none;" d="M17.3333 139.667L17.6667 140.333L17.3333 139.667z"/>
<path style="fill:#72767a; stroke:none;" d="M26 140L26 149L27 149L26 140M14 144L14 145L17 145L14 144z"/>
<path style="fill:#026aa4; stroke:none;" d="M1 145L0 181L6 181L6 147L1 145z"/>
<path style="fill:#a2a2a2; stroke:none;" d="M18 145L18 150L19 150L18 145z"/>
<path style="fill:#e9e9e9; stroke:none;" d="M6 147L6 181L9 181L9 147L6 147z"/>
<path style="fill:#a2a2a2; stroke:none;" d="M48 147L49 153L50 153L48 147z"/>
<path style="fill:#72767a; stroke:none;" d="M10 148L10 152L11 152L14 149L10 148z"/>
<path style="fill:#e9e9e9; stroke:none;" d="M14 149L15 158C17.4498 154.538 17.9107 151.274 14 149z"/>
<path style="fill:#a2a2a2; stroke:none;" d="M11 150C9.95702 159.2 16.863 162.149 19 152L15 158L13 150L11 150z"/>
<path style="fill:#72767a; stroke:none;" d="M20 150L22 160L25 159L24 151L20 150z"/>
<path style="fill:#a2a2a2; stroke:none;" d="M42 156L43 156L45 150L42 156z"/>
<path style="fill:#e9e9e9; stroke:none;" d="M19 151L16 165L24 162L21 151L19 151M22 151L23 158L27 151L22 151M31 162L32 152C26.2517 152.998 25.2812 160.102 31 162z"/>
<path style="fill:#a2a2a2; stroke:none;" d="M26 153L25 161L26 161L28 153L26 153z"/>
<path style="fill:#525252; stroke:none;" d="M10 154L14 163L11 161L10 161L10 166L16 160L10 154M32 154C32.0005 158.525 31.017 163.346 36 165L36 170L47 169L62 171L55 166L57 170L37 168L37 164L32 154z"/>
<path style="fill:#e9e9e9; stroke:none;" d="M37 157L42 154L37 157z"/>
<path style="fill:#72767a; stroke:none;" d="M51 155L42 158L44 162L52 161L51 155z"/>
<path style="fill:#a2a2a2; stroke:none;" d="M31 156L31 159L32 159L31 156M10 157C10.3651 160.257 10.6688 162.291 14 163L10 157z"/>
<path style="fill:#525252; stroke:none;" d="M25.3333 157.667L25.6667 158.333L25.3333 157.667M23 159L27 162L26 165C20.9997 161.652 10.8903 166.055 13.0764 173C14.3807 177.143 21.0596 182.607 25.061 178.257C27.4987 175.607 26.3736 171.163 26 168L13 170L13 169C17.0823 167.109 19.6414 165.147 24 167L25 167L29 164L23 159z"/>
<path style="fill:#72767a; stroke:none;" d="M31 159L26 165L26 166L33 165L31 159z"/>
<path style="fill:#a2a2a2; stroke:none;" d="M40 159C38.5111 161.504 37.7291 162.604 41 163L41 164L37 168L48 169C53.3384 167.654 58.2966 164.71 51 161L55 166C50.2512 166 43.1315 167.379 43 161L40 162L42 159L40 159z"/>
<path style="fill:#e9e9e9; stroke:none;" d="M45 159C40.8181 167.342 48.762 166 55 166L45 159z"/>
<path style="fill:#a2a2a2; stroke:none;" d="M46 159L46 160L49 160L46 159z"/>
<path style="fill:#e9e9e9; stroke:none;" d="M40 162L43 160L40 162z"/>
<path style="fill:#72767a; stroke:none;" d="M37 161L37 165L41 164L41 163L39 161L37 161z"/>
<path style="fill:#a2a2a2; stroke:none;" d="M15 162L11 166L11 167L17 166L15 162M23 162L23 163L26 165L27 162L23 162M19 165L19 166L23 166L19 165M35 165L35 169L36 169L35 165z"/>
<path style="fill:#e9e9e9; stroke:none;" d="M17 166L18 170L25 169L17 166z"/>
<path style="fill:#72767a; stroke:none;" d="M25 166L24 168L26 168L25 166z"/>
<path style="fill:#a2a2a2; stroke:none;" d="M13 169L13 170L18 170L17 167L13 169z"/>
<path style="fill:#e9e9e9; stroke:none;" d="M49 168L49 170L56 170L56 168L49 168z"/>
<path style="fill:#a2a2a2; stroke:none;" d="M56.3333 168.667L56.6667 169.333L56.3333 168.667M21 169L21 170L24 170L21 169z"/>
<path style="fill:#72767a; stroke:none;" d="M45.6667 169.333L46.3333 169.667L45.6667 169.333M37 170L37 171L43 171L37 170z"/>
<path style="fill:#a2a2a2; stroke:none;" d="M12.3333 171.667L12.6667 172.333L12.3333 171.667M15.6667 174.333L16.3333 174.667L15.6667 174.333z"/>
<path style="fill:#e9e9e9; stroke:none;" d="M16 175L23 178L23 175L16 175z"/>
<path style="fill:#72767a; stroke:none;" d="M23.3333 175.667L23.6667 176.333L23.3333 175.667z"/>
<path style="fill:#a2a2a2; stroke:none;" d="M26 175L26 179L27 179L26 175z"/>
</svg>
