<?xml version="1.0"?>
<svg xmlns:rdf="http://www.w3.org/1999/02/22-rdf-syntax-ns#" xmlns="http://www.w3.org/2000/svg" xmlns:cc="http://creativecommons.org/ns#" xmlns:xlink="http://www.w3.org/1999/xlink" xmlns:dc="http://purl.org/dc/elements/1.1/" xmlns:svg="http://www.w3.org/2000/svg" id="svg2985" height="297mm" width="210mm" version="1.1">
  <defs id="defs3">
    <radialGradient id="radialGradient4456" gradientUnits="userSpaceOnUse" cy="824.07" cx="359.61" gradientTransform="matrix(1 0 0 .60870 0 322.46)" r="278.8">
      <stop id="stop4452" stop-color="#28170b" offset="0"/>
      <stop id="stop4454" stop-color="#28170b" stop-opacity="0" offset="1"/>
    </radialGradient>
    <linearGradient id="linearGradient4554" y2="563.08" gradientUnits="userSpaceOnUse" y1="578.08" x2="247.14" x1="240.71">
      <stop id="stop4415" stop-color="#fff" offset="0"/>
      <stop id="stop4417" stop-color="#fff" stop-opacity="0" offset="1"/>
    </linearGradient>
    <linearGradient id="linearGradient4557" x1="1598.6" gradientUnits="userSpaceOnUse" y1="322.36" gradientTransform="matrix(1.0038 0 0 1.0061 -1001.7 149.63)" x2="1362.9" y2="349.51">
      <stop id="stop4329" stop-color="#fff" offset="0"/>
      <stop id="stop4331" stop-color="#fff" stop-opacity="0" offset="1"/>
    </linearGradient>
    <linearGradient id="linearGradient4560" x1="-1491" gradientUnits="userSpaceOnUse" y1="860.43" gradientTransform="translate(1696.7 -308.31)" x2="-1436.4" y2="775.58">
      <stop id="stop3038" stop-color="#808080" offset="0"/>
      <stop id="stop3040" stop-color="#808080" stop-opacity="0" offset="1"/>
    </linearGradient>
    <linearGradient id="linearGradient4564" y2="558.08" gradientUnits="userSpaceOnUse" y1="583.08" x2="432.86" x1="436.43">
      <stop id="stop4375" stop-color="#fff" offset="0"/>
      <stop id="stop4377" stop-color="#fff" stop-opacity="0" offset="1"/>
    </linearGradient>
    <linearGradient id="linearGradient4569" x1="274.76" gradientUnits="userSpaceOnUse" y1="279.6" gradientTransform="matrix(.97458 0 0 1 4.9454 0)" x2="279.81" y2="318.99">
      <stop id="stop4185" stop-color="#fff" offset="0"/>
      <stop id="stop4187" stop-color="#fff" stop-opacity="0" offset="1"/>
    </linearGradient>
    <linearGradient id="linearGradient4572" x1="255.57" gradientUnits="userSpaceOnUse" y1="76.555" gradientTransform="matrix(.97135 0 0 1 6.9936 0)" x2="270.72" y2="238.18">
      <stop id="stop4177" stop-color="#fff" offset="0"/>
      <stop id="stop4179" stop-color="#fff" stop-opacity="0" offset="1"/>
    </linearGradient>
    <linearGradient id="linearGradient4575" y2="690.73" gradientUnits="userSpaceOnUse" y1="687.7" x2="538.41" x1="574.78">
      <stop id="stop4169" stop-color="#fff" offset="0"/>
      <stop id="stop4171" stop-color="#fff" stop-opacity="0" offset="1"/>
    </linearGradient>
    <linearGradient id="linearGradient4578" y2="742.25" gradientUnits="userSpaceOnUse" y1="742.25" x2="306.08" x1="269.71">
      <stop id="stop4161" stop-color="#fff" offset="0"/>
      <stop id="stop4163" stop-color="#fff" stop-opacity="0" offset="1"/>
    </linearGradient>
    <linearGradient id="linearGradient4581" y2="449.3" gradientUnits="userSpaceOnUse" y1="445.26" x2="391.94" x1="446.49">
      <stop id="stop4153" stop-color="#fff" offset="0"/>
      <stop id="stop4155" stop-color="#fff" stop-opacity="0" offset="1"/>
    </linearGradient>
    <linearGradient id="linearGradient4584" y2="473.54" gradientUnits="userSpaceOnUse" y1="102.71" x2="182.84" x1="100.61">
      <stop id="stop4145" stop-color="#fff" offset="0"/>
      <stop id="stop4147" stop-color="#fff" stop-opacity="0" offset="1"/>
    </linearGradient>
  </defs>
  <g id="layer1">
    <g id="g4598">
      <path id="path4448" transform="matrix(1.1486 0 0 1.3869 -54.431 -346.11)" fill="url(#radialGradient4456)" d="m638.42 824.07a278.8 169.71 0 1 1 -557.6 0 278.8 169.71 0 1 1 557.6 0z"/>
      <path id="path3012-3" fill="#28170b" d="m156.83 274.78c78.541-0.658 156.65-5.6123 233.85-19.698l3.0305-145.97c-90.744-0.17533-180.95-3.8756-274.26 12.627z"/>
      <path id="path3010-7" fill="#28170b" d="m178.54 349.55c70.398-11.051 142.07-18.916 215.16-23.234l1.5152-33.84c-74.92 10.324-149.84 18.119-224.76 21.718z"/>
      <path id="path3002-2" fill="#28170b" d="m109.85 106.86c59.079 228.29 108.93 456.59 64.65 684.88l20.203 2.0203c47.56-233.34-3.53-464.29-64.65-694.98z"/>
      <path id="path3004-5" fill="#28170b" d="m380.1 83.626c-7.285 221.56-8.5761 443.12 16.162 664.68h28.284c-25.83-217.71-26.42-439.62-20.19-662.66z"/>
      <path id="path3006-8" fill="#28170b" d="m288.4 550.32c7.5407 118.52 14.362 237.05 6.0609 355.57l31.315 4.0406-3.0305-363.65z"/>
      <path id="path3008-7" fill="#28170b" d="m513.76 523.04c-1.6002 109.64 7.2351 220.7 20.203 325.27h31.315c-30.64-142.98-23.19-234.01-26.27-339.41z"/>
      <path id="path3002" fill="#520" d="m96.975 104.84c59.075 228.29 108.92 456.59 64.645 684.88l20.203 2.0203c47.57-233.34-3.52-464.29-64.64-694.98z"/>
      <path id="path3004" fill="#520" d="m389.92 80.595c-7.29 221.56-8.58 443.12 16.16 664.68h28.284c-25.84-217.71-26.43-439.62-20.2-662.66z"/>
      <path id="path3006" fill="#520" d="m278.8 549.31c7.5407 118.52 14.362 237.05 6.0609 355.57l31.315 4.0406-3.0305-363.65z"/>
      <path id="path3008" fill="#520" d="m524.27 521.02c-1.6003 109.64 7.235 220.7 20.203 325.27h31.315c-30.63-142.98-23.18-234.01-26.26-339.41z"/>
      <path id="path3010" fill="#520" d="m172.23 339.19c70.398-11.051 142.07-18.916 215.16-23.234l1.5152-33.84c-74.92 10.324-149.84 18.119-224.76 21.718z"/>
      <path id="path3012" fill="#520" d="m156.07 262.42c78.541-0.65796 156.65-5.6123 233.85-19.698l3.03-145.96c-90.74-0.177-180.95-3.878-274.26 12.62z"/>
      <path id="path3002-3" fill="url(#linearGradient4584)" d="m97.726 104.84c59.084 228.29 108.92 456.59 64.654 684.88l20.203 2.0203c47.56-233.34-3.53-464.29-64.65-694.98z"/>
      <path id="path3004-3" fill="url(#linearGradient4581)" d="m390.2 81.606c-7.285 221.56-8.5761 443.12 16.162 664.68h28.284c-25.83-217.71-26.42-439.62-20.19-662.66z"/>
      <path id="path3006-9" fill="url(#linearGradient4578)" d="m278.3 551.33c7.5407 118.52 14.362 237.05 6.0609 355.57l31.315 4.0406-3.0305-363.65z"/>
      <path id="path3008-0" fill="url(#linearGradient4575)" d="m523.86 523.04c-1.6003 109.64 7.235 220.7 20.203 325.27h31.315c-30.64-142.98-23.19-234.01-26.27-339.41z"/>
      <path id="path3012-36" fill="url(#linearGradient4572)" d="m159.33 260.64c76.291-0.65796 152.16-5.6123 227.15-19.698l2.94-145.97c-88.14-0.171-175.76-3.871-266.4 12.63z"/>
      <path id="path3010-9" fill="url(#linearGradient4569)" d="m175.01 339.45c68.608-11.051 138.46-18.916 209.69-23.234l1.4767-33.84c-73.015 10.324-146.03 18.119-219.04 21.718z"/>
      <path id="path4274" fill="#28170b" d="m288.57 565.22 1.43 31.43-90.92-48.74-2.1-28.66z"/>
      <path id="path4272" fill="#784421" d="m288.57 563.79v34.286l275.71-45.714v-30z"/>
      <path id="path4272-1" fill="url(#linearGradient4564)" d="m289.29 563.79v34.286l275.71-45.714v-30z"/>
      <path id="path3016" fill="#502d16" d="m294.58 566.77c89.6-4.516 178.07-13.915 263.65-35.86 15.762-10.36 19.05-23.319 2.5254-40.406-48.714-21.094-99.142-37.733-154.55-41.416-29.826 1.6297-64.356 0.74428-97.968 7.794-0.8225 0.17252-1.6742 0.13236-2.5089 0.19961-55.944 4.5073-104.58 12.302-110.14 39.484-4.5191 37.686 22.048 49.07 52.505 57.161 0.9836 0.26128 2.0749 0.26448 2.9618 0.7743 14.114 8.1123 29.732 10.825 43.528 12.271z"/>
      <path id="path3016-4" fill="url(#linearGradient4560)" d="m294.66 568.54c89.6-4.516 178.07-13.915 263.65-35.86 15.762-10.36 19.05-23.319 2.5254-40.406-48.714-21.094-99.142-37.733-154.55-41.416-29.826 1.6297-64.356 0.74428-97.968 7.794-0.8225 0.17252-1.6742 0.13236-2.5089 0.19961-55.944 4.5073-104.58 12.302-110.14 39.484-4.5191 37.686 22.048 49.07 52.505 57.161 0.9836 0.26128 2.0749 0.26448 2.9618 0.7743 14.114 8.1123 29.732 10.825 43.528 12.271z"/>
      <path id="path3016-4-6" fill="url(#linearGradient4557)" d="m294.43 566.2c89.939-4.5434 178.75-13.999 264.65-36.078 15.822-10.423 19.122-23.461 2.535-40.651-48.899-21.222-99.519-37.962-155.14-41.668-29.939 1.6396-64.6 0.7488-98.339 7.8413-0.82562 0.17356-1.6806 0.13316-2.5184 0.20082-56.156 4.5346-104.98 12.376-110.56 39.723-4.5362 37.915 22.131 49.367 52.704 57.507 0.98733 0.26286 2.0828 0.26608 2.973 0.779 14.167 8.1616 29.845 10.891 43.693 12.345z"/>
      <path id="path4274-3" fill="url(#linearGradient4554)" d="m287.86 565.22 1.4286 31.429-90.158-49.242-4.1273-27.9z"/>
    </g>
  </g>
  <metadata>
    <rdf:RDF>
      <cc:Work>
        <dc:format>image/svg+xml</dc:format>
        <dc:type rdf:resource="http://purl.org/dc/dcmitype/StillImage"/>
        <cc:license rdf:resource="http://creativecommons.org/licenses/publicdomain/"/>
        <dc:publisher>
          <cc:Agent rdf:about="http://openclipart.org/">
            <dc:title>Openclipart</dc:title>
          </cc:Agent>
        </dc:publisher>
        <dc:title>wooden chair</dc:title>
        <dc:date>2012-04-11T10:19:40</dc:date>
        <dc:description>light brown wooden chair</dc:description>
        <dc:source>http://openclipart.org/detail/169461/wooden-chair-by-hatalar205</dc:source>
        <dc:creator>
          <cc:Agent>
            <dc:title>hatalar205</dc:title>
          </cc:Agent>
        </dc:creator>
        <dc:subject>
          <rdf:Bag>
            <rdf:li>chair</rdf:li>
            <rdf:li>clip art</rdf:li>
            <rdf:li>clipart</rdf:li>
            <rdf:li>furniture</rdf:li>
            <rdf:li>light brown wooden chair</rdf:li>
            <rdf:li>wood</rdf:li>
            <rdf:li>wooden chair</rdf:li>
          </rdf:Bag>
        </dc:subject>
      </cc:Work>
      <cc:License rdf:about="http://creativecommons.org/licenses/publicdomain/">
        <cc:permits rdf:resource="http://creativecommons.org/ns#Reproduction"/>
        <cc:permits rdf:resource="http://creativecommons.org/ns#Distribution"/>
        <cc:permits rdf:resource="http://creativecommons.org/ns#DerivativeWorks"/>
      </cc:License>
    </rdf:RDF>
  </metadata>
</svg>
