<?xml version="1.0" standalone="yes"?>

	<svg
		xmlns="http://www.w3.org/2000/svg"
		xmlns:xlink="http://www.w3.org/1999/xlink"
		xmlns:svg="http://www.w3.org/2000/svg"
		xmlns:dc="http://purl.org/dc/elements/1.1/"
		xmlns:cc="http://web.resource.org/cc/"
		xmlns:rdf="http://www.w3.org/1999/02/22-rdf-syntax-ns#"
	 width="270" height="393">
<path style="fill:#a6a74b; stroke:none;" d="M0 3L8 4C5.72531 1.41583 1.09035 -2.08832 0 3z"/>
<path style="fill:#b9bfbc; stroke:none;" d="M4 0L8 3L8 4L0 4L0 8L39 8L35 13L41 6L42 6L43 11L44 11L45 8L49 9C52.2978 5.41071 55.494 5.90582 60 7L54 9L54 8L56 8L56 7L50 8L51 11C42.2833 12.9482 37.6754 28.5179 41 36L37 40L46 38C47.2311 32.0377 53.7052 25.4705 60 26L70.7909 25.6644L82 21L81 26L95.0432 21.7269L124 20L124 19L115 14L110 16L109 7L106 9L98 7L102 10L102 11L89 10L91 7L80 7L81 10C70.17 3.17914 57.0036 4.70343 45 4L45 3L55 1L55 0L31 0L34 4L26 4L26 3L30 0L4 0z"/>
<path style="fill:#a6a74b; stroke:none;" d="M30 0L28 4L32 1L30 0M45 3L45 4L60 1L45 3z"/>
<path style="fill:#9f5f2e; stroke:none;" d="M50 3L50 4C55.8998 3.75058 69.4306 6.23083 73 1L50 3z"/>
<path style="fill:#5f94a4; stroke:none;" d="M62 0L62 1C73.725 1.89429 79.3452 4.78976 91 1L92 4C96.7804 1.68204 101.507 5.72144 105 9L106 9L109 7L107 9L107 10L108 12L113 13L121 15L127 11L127 10L114 9L114 8L124 9L131 9C131 5.6412 136.203 7 139 7L139 6L100 3L100 2L104 3L108 1C96.0611 -4.00977 75.0035 0 62 0z"/>
<path style="fill:#9f5f2e; stroke:none;" d="M105 1C106.779 6.37857 113.074 5.97549 118 5.99924C130.879 6.06134 143.368 6.77664 156 6L156 5L116 3L118 1L105 1z"/>
<path style="fill:#192d3d; stroke:none;" d="M117 0L116 3C128.84 6.15338 147.084 7.07498 160 4L160 2C147.871 -3.13959 130.059 0 117 0z"/>
<path style="fill:#9f5f2e; stroke:none;" d="M157 0L157 1L169 4L169 2L157 0z"/>
<path style="fill:#a6a74b; stroke:none;" d="M162 0L162 1L175 3C171.454 -0.727753 166.821 0 162 0z"/>
<path style="fill:#b9bfbc; stroke:none;" d="M173 0L175 3L154 7L154 8L158 9L154 15L153 15L152 13L151 18L135 12L131 17L131 9L126 13C130.345 19.9941 128.32 25.717 139 19L158 25L164 23L183 24L186 20C187.231 23.8578 190.102 27.364 186 30L186 31L187 44L190 42L193 52L190 54L188 53L185 62C189.118 66.1945 184.298 68.9736 182 73L189 71L186 80L190 91L186 93L189 94L186 108C192.634 109.987 191.738 115.338 187 119L190 120C187.101 127.174 185.212 140.588 188 148L183 155C189.817 156.75 196.515 150.008 199 144L194 127L197 128C197.443 125.059 201.823 116.651 198 116L207 93L204 92L203 96L201 96L201 80C205.778 78.1553 205.307 74.5657 206 70C203.153 66.4757 209.294 57.1578 202 56L205 40L199 40L198 36L202 35L204 18L206 20L208 14L211 15C208.862 9.82941 202.86 3.43802 197 4L201 1L201 0L191 0L196 4L190 2L189 2L185 4L185 3L187 0L173 0z"/>
<path style="fill:#a6a74b; stroke:none;" d="M187 0L185 3L185 4L191 0L187 0z"/>
<path style="fill:#9f5f2e; stroke:none;" d="M201 0L201 1L204 1L203 4L210 3L218 3L218 0L201 0z"/>
<path style="fill:#a6a74b; stroke:none;" d="M218 0L218 3L210 3L203 4L204 1L197 4L209 10L239 7L237 3L240 2L218 0z"/>
<path style="fill:#b9bfbc; stroke:none;" d="M238 0L238 1L252 3L254 1L238 0z"/>
<path style="fill:#a6a74b; stroke:none;" d="M252 4L253 4L257 6L252 6L252 7L270 7L270 0C264.547 0 254.189 -2.22629 252 4z"/>
<path style="fill:#9f5f2e; stroke:none;" d="M19 2L24 4L19 2z"/>
<path style="fill:#192d3d; stroke:none;" d="M84 2L84 3L92 2L84 2M100 2L100 3L105 5L100 2z"/>
<path style="fill:#9f5f2e; stroke:none;" d="M190 1L196 4L190 1M0 4L3 4L2 2L0 4M8 2L8 3L15 4L8 2z"/>
<path style="fill:#5f94a4; stroke:none;" d="M30 3L30 4L34 4L30 3z"/>
<path style="fill:#9f5f2e; stroke:none;" d="M93 4L97 3L93 4M181 4L184 3L181 4M227 3L227 4L235 4L227 3M237 3L237 4L252 4C247.642 1.02277 241.934 1.82526 237 3M253 2L253 4L255 2L253 2M26.6667 3.33334L27.3333 3.66666L26.6667 3.33334z"/>
<path style="fill:#5f94a4; stroke:none;" d="M36.6667 3.33334L37.3333 3.66666L36.6667 3.33334z"/>
<path style="fill:#192d3d; stroke:none;" d="M39 3L42 5L42 4L39 3z"/>
<path style="fill:#9f5f2e; stroke:none;" d="M42.6667 3.33334L43.3333 3.66666L42.6667 3.33334z"/>
<path style="fill:#a6a74b; stroke:none;" d="M63 6L93 7L93 8L89 9L93 11L93 8L105 8C95.2739 1.08426 87.6086 5.40027 77.0039 4.39273C72.3726 3.95273 66.194 1.55692 63 6z"/>
<path style="fill:#192d3d; stroke:none;" d="M73 3L73 4L76 4L73 3z"/>
<path style="fill:#9f5f2e; stroke:none;" d="M178.667 3.33334L179.333 3.66666L178.667 3.33334z"/>
<path style="fill:#b9bfbc; stroke:none;" d="M237 4L238 8L259 8L259 7L252 7L252 6L257 6L256 3L237 4z"/>
<path style="fill:#9f5f2e; stroke:none;" d="M257.667 3.33334L258.333 3.66666L257.667 3.33334M260 3L260 4L263 4L260 3M28.6667 4.33334L29.3333 4.66666L28.6667 4.33334z"/>
<path style="fill:#192d3d; stroke:none;" d="M34.6667 4.33334L35.3333 4.66666L34.6667 4.33334M47.6667 4.33334L48.3333 4.66666L47.6667 4.33334z"/>
<path style="fill:#5f94a4; stroke:none;" d="M153 6L153 7L162 5L153 6z"/>
<path style="fill:#a6a74b; stroke:none;" d="M49 9L45 8L48 10L48 11C44.4176 10.432 43.0567 9.49176 42 6L41 6L35 13L42 20L41 25L42 25C44.7367 18.8044 43.7709 13.3238 51 11L50 8L56 7L56 8L54 8L54 9L60 7C55.6198 5.61823 51.5283 4.52673 49 9z"/>
<path style="fill:#192d3d; stroke:none;" d="M130 7L139 10L145 18L154 7L130 7z"/>
<path style="fill:#9f5f2e; stroke:none;" d="M78 7L81 10L78 7M91.6667 7.33334L92.3333 7.66666L91.6667 7.33334M93 8L93 9L102 11L102 10L98 7L93 8M114 8L114 9L129 9L129 8L124 9L114 8M165 11L175 9C171.571 6.9826 164.885 5.48831 165 11z"/>
<path style="fill:#5f94a4; stroke:none;" d="M185 7L185 8L188 8L185 7z"/>
<path style="fill:#a6a74b; stroke:none;" d="M190 8L190 9L197 9L190 8z"/>
<path style="fill:#5f94a4; stroke:none;" d="M197.667 7.33334L198.333 7.66666L197.667 7.33334z"/>
<path style="fill:#b9bfbc; stroke:none;" d="M262 7L262 8L269 8L269 7L262 7z"/>
<path style="fill:#192d3d; stroke:none;" d="M269 7C252.098 14.8579 227.261 9 209 9C220.805 45.2786 216 79.5122 216 117L215 117L214 111L213 111L213 114L207 115L202 142L205 142L205 162L199 164L199 176L200 176L200 171L203 171L202 182L192 176L189 177C191.103 182.364 193.056 189.164 199 191L201 195L201 196L200 206L195 227L190 225L193 248L184 261L186 268L181 274C179.623 269.786 178.549 266.989 174 266C178.881 259.445 175.58 256.232 176.344 249C177.789 235.329 180.189 216.532 177 203L173 204C175.566 200.806 185.734 190.862 177 189C180.048 184.36 180.135 178.369 179 173L182 173L182 172L181 165L180 165L178 168L178 164L181 163L181 160L177 157L180 158C182.71 152.462 183.953 146.567 178 143C179.926 138.447 179.926 135.553 178 131L181 130C179.134 126.283 176.892 122.697 181 120L182 115L178 115L184 103C177.509 98.7921 183.5 87.2787 184 81L178 76L183 75L182 71L183 66C185.968 63.8276 182.358 59.7502 181 57C185.915 55.9413 182.539 50.2413 181 47L188 41L188 34L183 34L176 33C173.012 24.2485 168.953 21.5537 161 27L160 24L148 21.1543L119.921 20.6412L108 19L99 22L100 25L81 26C80.2304 15.0647 71.8498 23.2351 68 28C60.0826 24.6373 51.8827 24.3168 49 34L56 39L46 44L46 45L48 47C43.4548 49.4933 41.4013 54.145 40 59L32 59L36 65C29.7357 69.5177 35.7088 79.3641 38 85L34 86C36.2937 90.9231 36.5757 93.8107 35 99L37 99C34.772 106.236 34.4141 113.649 37 121L33 122C36.5832 136.158 33.5261 145.53 31 159C35.6639 161.492 34.2191 164.542 33 169C38.7984 171.029 40.3266 173.287 42 179L37 179L36 183L39 191L37 197C33.173 194.551 30.9184 192.704 31 188L28 190L30 179L25 180L25 197L24 197L19.9105 72L23.49 35L34 14L36 15L37 15L37 14L37 10L0 10L0 389L156 389L156 390L152 392L152 393L188 393L188 389C213.885 389 244.973 384.379 270 391L270 119L270 41L269 7z"/>
<path style="fill:#5f94a4; stroke:none;" d="M0 8L0 9L39 9C28.726 4.68887 11.1723 8 0 8z"/>
<path style="fill:#a6a74b; stroke:none;" d="M67 9L67 11L67 12L72 11L71 8L67 9z"/>
<path style="fill:#9f5f2e; stroke:none;" d="M75.6667 8.33334L76.3333 8.66666L75.6667 8.33334M83 8L83 9L86 9L83 8M148 19L147 12L153 15L154 15L158 9C152.463 7.34366 138.683 17.0036 148 19M161.667 8.33334L162.333 8.66666L161.667 8.33334M176 8L176 9L179 9L176 8M209 8L209 9L222 9L209 8z"/>
<path style="fill:#5f94a4; stroke:none;" d="M222 8L222 9L263 9C252.25 4.48917 233.696 8 222 8z"/>
<path style="fill:#b9bfbc; stroke:none;" d="M0 9L0 10L18 10L0 9z"/>
<path style="fill:#01ff01; stroke:none;" d="M18 9L18 10L23 10L18 9M34 9L34 10L37 10L34 9z"/>
<path style="fill:#9f5f2e; stroke:none;" d="M71.6667 9.33334L72.3333 9.66666L71.6667 9.33334M87 9L88 10L87 9M131 9L131 17L135 12L139 13L139 10L131 9z"/>
<path style="fill:#a6a74b; stroke:none;" d="M170 9L170 10L175 10L170 9z"/>
<path style="fill:#9f5f2e; stroke:none;" d="M228 9L228 10L234 10L228 9z"/>
<path style="fill:#b9bfbc; stroke:none;" d="M236 9L236 10L262 10L236 9z"/>
<path style="fill:#9f5f2e; stroke:none;" d="M262.667 9.33334L263.333 9.66666L262.667 9.33334z"/>
<path style="fill:#5f94a4; stroke:none;" d="M44 10L44 11L48 11L44 10z"/>
<path style="fill:#a6a74b; stroke:none;" d="M202.667 10.3333L203.333 10.6667L202.667 10.3333z"/>
<path style="fill:#01ff01; stroke:none;" d="M209 10L210 11L209 10z"/>
<path style="fill:#a6a74b; stroke:none;" d="M109 12L110 16L115 14L124 19L121 20L122 23L128 22C126.949 18.3934 126.566 5.8981 121 15L113 13L109 12z"/>
<path style="fill:#5f94a4; stroke:none;" d="M204.333 11.6667L204.667 12.3333L204.333 11.6667z"/>
<path style="fill:#a6a74b; stroke:none;" d="M147 12L151 18L152 13L147 12z"/>
<path style="fill:#01ff01; stroke:none;" d="M210 13L211 14L210 13z"/>
<path style="fill:#b9bfbc; stroke:none;" d="M34 14L33 16L34 14z"/>
<path style="fill:#5f94a4; stroke:none;" d="M208 14L205 21L209 25L208 26L205 25L202 35L198 36L199 40L205 40L202 56L205 57L206 70C204.964 74.5338 205.406 77.5848 201 80L201 96L203 96L204 92L207 93L198 116L197 128L194 127L199 144C195.61 149.582 189.837 155.384 183 155L188 148C186.446 141.15 192.212 122.502 187 119C192.562 115.837 193.133 109.165 186 108C186.901 102.644 192.247 97.1115 186 93L190 91L186 80L189 71L178 76L184 81C183.479 85.9583 176.844 101.467 184 103L178 115L182 115L181 120C175.623 121.152 178.74 126.943 181 130L178 131L178 143C182.485 146.982 184.341 155.115 177 157L181 160L181 163L178 164L178 168L180 165L181 165L182 173L179 173L179 174L177 189C184.959 192.515 175.06 199.779 173 204L177 203L176.189 249L174 266L181 274L184 273L184 261L193 248L189 224C192.478 222.945 195.38 220.015 192 217L192 213C196.027 209.948 196.968 203.407 195 199C200.922 203.443 197.58 207.728 198 214L200 206L201 196L201 195L199 191L189 177L192 176C194.421 180.315 197.422 180.855 202 182L203 171L200 171L200 176L199 176L199 164L205 162L205 142L202 142L207 115L213 111L214 111L215 115L216 115C216 82.6409 223.542 44.407 210 14L208 14M24 197L25 197L25 180L30 179L28 190L31 188C30.6258 192.933 32.5527 195.069 37 197L39 191L36 183L37 179L42 179C41.0952 172.741 39.2942 170.514 33 169C34.8011 164.541 36.6543 160.733 31 159C34.0976 148.925 37.839 141.623 34 131C24.6425 135.542 25.8562 126.9 28 121L37 121L37 99L35 99C37.1221 93.9591 36.8601 90.6697 34 86L38 85C36.1695 78.4085 30.5479 70.7812 36 65L32 59L40 59L48 47L46 45L46 44L56 39C54.639 34.5113 51.118 33.5959 47 32L46 38L37 40L41 36L42 20C40.0679 18.9684 37.3567 15.3536 35.0216 15.8819C31.7424 16.6239 29.6153 22.3548 28.2593 25C23.1835 34.9014 21.5408 45.953 21.0394 57C18.9135 103.83 24 150.115 24 197z"/>
<path style="fill:#01ff01; stroke:none;" d="M211 16L212 17L211 16z"/>
<path style="fill:#b9bfbc; stroke:none;" d="M32 17L33 18L32 17M211 17L212 18L211 17z"/>
<path style="fill:#192d3d; stroke:none;" d="M30 27L30 28C34.9198 26.2775 36.9171 22.9844 38 18L30 27z"/>
<path style="fill:#5f94a4; stroke:none;" d="M109 19C110.85 24.2896 115.022 21.5025 119 20L109 19z"/>
<path style="fill:#192d3d; stroke:none;" d="M204 18L206 26L208 26L209 25L204 18z"/>
<path style="fill:#b9bfbc; stroke:none;" d="M31 19L32 20L31 19z"/>
<path style="fill:#a6a74b; stroke:none;" d="M137.667 19.3333L138.333 19.6667L137.667 19.3333z"/>
<path style="fill:#01ff01; stroke:none;" d="M212 19L213 20L212 19M30 20L31 21L30 20z"/>
<path style="fill:#5f94a4; stroke:none;" d="M185 20L183 24C174.584 22.9428 172.164 24.7365 176 33L183 34L189 35L186 31L186 30C191.869 28.3491 187.835 23.0592 185 20z"/>
<path style="fill:#b9bfbc; stroke:none;" d="M212 20L213 21L212 20z"/>
<path style="fill:#5f94a4; stroke:none;" d="M81 21L81 25L82 25L81 21M90 26L100 25C97.008 20.1383 92.0731 20.7169 90 26z"/>
<path style="fill:#a6a74b; stroke:none;" d="M100 21L100 22L107 22L100 21z"/>
<path style="fill:#5f94a4; stroke:none;" d="M159 22L161 27L169 22L164 23L159 22z"/>
<path style="fill:#b9bfbc; stroke:none;" d="M29 22L30 23L29 22z"/>
<path style="fill:#5f94a4; stroke:none;" d="M124 22L124 23L134 24L124 22z"/>
<path style="fill:#01ff01; stroke:none;" d="M213 22L214 23L213 22z"/>
<path style="fill:#b9bfbc; stroke:none;" d="M28 24L29 25L28 24z"/>
<path style="fill:#5f94a4; stroke:none;" d="M60 24L68 28L60 24z"/>
<path style="fill:#01ff01; stroke:none;" d="M27 25L28 26L27 25M214 25L215 26L214 25z"/>
<path style="fill:#b9bfbc; stroke:none;" d="M27 26L28 27L27 26z"/>
<path style="fill:#9f5f2e; stroke:none;" d="M84 26L84 27L90 27L84 26z"/>
<path style="fill:#b9bfbc; stroke:none;" d="M214 26L215 27L214 26z"/>
<path style="fill:#01ff01; stroke:none;" d="M26 27L27 28L26 27z"/>
<path style="fill:#b9bfbc; stroke:none;" d="M26 28L27 29L26 28z"/>
<path style="fill:#01ff01; stroke:none;" d="M215.333 28.6667L215.667 29.3333L215.333 28.6667M25 29L26 30L25 29z"/>
<path style="fill:#b9bfbc; stroke:none;" d="M25 30L26 31L25 30M215 30L216 31L215 30z"/>
<path style="fill:#01ff01; stroke:none;" d="M24 31L25 32L24 31z"/>
<path style="fill:#b9bfbc; stroke:none;" d="M24.3333 32.6667L24.6667 33.3333L24.3333 32.6667z"/>
<path style="fill:#192d3d; stroke:none;" d="M211 33L209 36L209 37L211 40L212 40L211 33z"/>
<path style="fill:#01ff01; stroke:none;" d="M23 34L24 35L23 34z"/>
<path style="fill:#b9bfbc; stroke:none;" d="M23.3333 35.6667L23.6667 36.3333L23.3333 35.6667z"/>
<path style="fill:#01ff01; stroke:none;" d="M216.333 35.6667L216.667 36.3333L216.333 35.6667z"/>
<path style="fill:#b9bfbc; stroke:none;" d="M216 37L217 38L216 37z"/>
<path style="fill:#01ff01; stroke:none;" d="M22 39L23 40L22 39z"/>
<path style="fill:#b9bfbc; stroke:none;" d="M22 40L22 44L23 44L22 40z"/>
<path style="fill:#5f94a4; stroke:none;" d="M181 47C182.155 50.5604 184.454 54.4512 181 57L183 66L184 70C187.428 67.3571 189.458 64.5557 185 62L188 53L190 54L193 52L190 42L187 44L188 41L181 47z"/>
<path style="fill:#01ff01; stroke:none;" d="M217.333 44.6667L217.667 45.3333L217.333 44.6667z"/>
<path style="fill:#b9bfbc; stroke:none;" d="M217 46L217 59L218 59L217 46z"/>
<path style="fill:#01ff01; stroke:none;" d="M21 47L21 52L22 52L21 47z"/>
<path style="fill:#b9bfbc; stroke:none;" d="M21 52L22 53L21 52z"/>
<path style="fill:#01ff01; stroke:none;" d="M217 59L217 66L218 66L217 59M20 60L20 66L21 66L20 60z"/>
<path style="fill:#192d3d; stroke:none;" d="M24 62L26 67L24 62M211 68L210 78L211 78L211 68z"/>
<path style="fill:#5f94a4; stroke:none;" d="M44 78C46.6191 68.144 35.9734 70.2126 44 78z"/>
<path style="fill:#192d3d; stroke:none;" d="M24 73L24 77L25 77L26 73L24 73z"/>
<path style="fill:#01ff01; stroke:none;" d="M19 75L19 80L20 80L19 75z"/>
<path style="fill:#b9bfbc; stroke:none;" d="M19.3333 80.6667L19.6667 81.3333L19.3333 80.6667z"/>
<path style="fill:#5f94a4; stroke:none;" d="M85 86C82.8649 82.3452 80.0508 82.098 76 82L77 84L69 86L69 89L71 94L78 96L79 91C85.8597 92.2871 93.9234 94.3034 101 94.4468C107.653 94.5815 110.916 90.9677 116 97L119 95L120 98L125 92C129.416 92.2296 132.731 93.0164 135 97L144 95L144 91L153 92L154 92L153 83L146 81L146 85C142.99 85.3781 132.779 86.3878 138 81L138 80L131 80L134 84L119 84C115.047 76.7954 91.9584 84.0446 85 86z"/>
<path style="fill:#192d3d; stroke:none;" d="M24 81C24.176 88.7676 21.1662 102.299 30 106L28 104L27 95L24 94C25.2353 89.0415 27.6989 85.3675 24 81z"/>
<path style="fill:#b9bfbc; stroke:none;" d="M216 82L216 87L217 87L216 82M19 86L19 89L20 89L19 86z"/>
<path style="fill:#01ff01; stroke:none;" d="M216 87L216 98L217 98L216 87M19 89L19 101L20 101L19 89z"/>
<path style="fill:#9f5f2e; stroke:none;" d="M20 93L20 99L21 99L20 93z"/>
<path style="fill:#5f94a4; stroke:none;" d="M102 101L93 107L94 103L88 102L87 108L75 103C71.2917 106.964 69.5706 108.277 64 108C64 112.375 56.7245 108.646 55 107L50 108L52 112L46 123L52 127C52 137.142 62.1811 139.487 70 142L75 140L74 143L83 143L99 145L102 140L119 146C122.705 142.083 127.77 141.83 133 142L140 136L141 139L148 135L148 133L144 124C139.129 124.367 136.477 124.821 133 121L126 121L129 109L124 110L123 105L102 101z"/>
<path style="fill:#01ff01; stroke:none;" d="M215.333 115.667L215.667 116.333L215.333 115.667z"/>
<path style="fill:#b9bfbc; stroke:none;" d="M20.3333 118.667L20.6667 119.333L20.3333 118.667z"/>
<path style="fill:#192d3d; stroke:none;" d="M24 118L24 121L25 121L24 118z"/>
<path style="fill:#01ff01; stroke:none;" d="M20 120L20 127L21 127L20 120z"/>
<path style="fill:#9f5f2e; stroke:none;" d="M28 121C27.1639 122.606 26.065 124.287 25.5069 126.021C22.0394 136.79 40.9413 131.428 31.8573 122.892C30.7718 121.872 29.3334 121.524 28 121z"/>
<path style="fill:#5f94a4; stroke:none;" d="M214 127L214 148L215 148L214 127z"/>
<path style="fill:#192d3d; stroke:none;" d="M27 138L26 149L27 149L29 146L27 138z"/>
<path style="fill:#01ff01; stroke:none;" d="M21 139L21 143L22 143L21 139M214.333 148.667L214.667 149.333L214.333 148.667z"/>
<path style="fill:#192d3d; stroke:none;" d="M25 151L26 158L27 158L25 151z"/>
<path style="fill:#b9bfbc; stroke:none;" d="M191 159L189 163L192 167C196.572 164.418 195.342 160.968 191 159M22 160L23 161L22 160z"/>
<path style="fill:#5f94a4; stroke:none;" d="M213 160L213 172L214 172L213 160z"/>
<path style="fill:#01ff01; stroke:none;" d="M22 161L22 165L23 165L22 161z"/>
<path style="fill:#192d3d; stroke:none;" d="M27 163L27 167L28 167L27 163z"/>
<path style="fill:#5f94a4; stroke:none;" d="M53 174L52 171L47 173L49 179L52 188L52 189L52 190L46 199L46 200C52.6265 210.344 46.6225 215.302 46.811 225.91C46.8629 228.837 49.2618 231.16 49.4923 234.159C49.8129 238.33 48.4516 241.363 51 245L48 246L54 252C51.2281 255.053 50.008 257.658 54 260L53 264L54 265L57 264L57 270C63.9541 269.08 73.8871 271.923 79 267L80 267L88 271L87 268C92.5326 268.502 96.4201 270.434 98 276L112 274L113 274L113 279L114 279L114 276L125 275L129 274C132.097 277.382 136.004 277.819 139 274L154 273C159.529 276.694 159.705 271.125 158 267L161 266L159 255C164.33 251.941 163.292 247.365 162 242L164 243L164 242L167 220L167 219L167 212C159.662 207.709 168.074 188.962 164 183L165 180L168 181C162.429 172.248 156.873 179.145 151 174L145 172L117 177L117 181L108 181L105 184L105 181C113.999 178 108.035 174.86 109 171C103.469 172.218 93.4983 173.397 90 168C83.0064 168.428 76.7269 172.846 70.0008 173.151C63.7379 173.436 59.0203 169.778 53 174z"/>
<path style="fill:#b9bfbc; stroke:none;" d="M78 184L74 190L74 191L77 195L74 196L76 209L70 209L74 212L69 222L75 225L73 232C79.0014 228.639 75.4591 221.629 75 216C79.2781 214.744 78.8763 209.852 80 206C84.3571 207.824 87.3412 208.32 90 204L98 206L97 212L100 210L103 217L107 214C104.528 219.166 103.037 221.802 97 222L97 226L94 224L93 227L110 230C110.243 222.031 118.78 225.048 124 227L126 222L128 223L128 212L140.361 220.174L142 231C135.569 231.501 136.88 234.818 137 240L138 240L140 235L145 237L143 231L143 230C148.163 227.169 149.962 224.94 149 219L145 219L145 212L153 211L152 205L149 206L146 200L150 202L151 202L155 199L152 191L142 190L142 215L141 215C135.813 209.138 131.182 208.675 124 207L123 210C119.184 208.574 115.513 207.169 113 211L108 210L115 198L109 198L110 202L95 197C96.7747 194.237 98.486 190.969 102 192L103 192C101.752 184.525 90.9755 185.249 89 192L86 191L87 188L78 184z"/>
<path style="fill:#9f5f2e; stroke:none;" d="M106 190L110 193L107 192L102 200L101 199L103 196L96 194L95 195L95 197L100 197C101.099 200.321 102.59 200.737 106 201C107.203 196.59 109.483 194.631 114 194L111 197L111 198L120 199L120 198L116 198L112 192C113.582 185.51 108.624 183.812 106 190z"/>
<path style="fill:#b9bfbc; stroke:none;" d="M120 186L115 190L116 198L123 202L124 202C128.176 195.593 125.933 190.316 120 186z"/>
<path style="fill:#a6a74b; stroke:none;" d="M104 191L102 190C94.5443 192.89 102.643 199.28 104 191M141 191L139 196C141.994 195.626 142.224 193.649 141 191z"/>
<path style="fill:#192d3d; stroke:none;" d="M105 192L101 199L102 200L107 192L105 192z"/>
<path style="fill:#a6a74b; stroke:none;" d="M127 192L126 193L126 199L134 195L127 192z"/>
<path style="fill:#b9bfbc; stroke:none;" d="M131 193L131 195L139 197L140 194L131 193z"/>
<path style="fill:#5f94a4; stroke:none;" d="M212 193L212 203L213 203L212 193z"/>
<path style="fill:#192d3d; stroke:none;" d="M107 196L107 197L114 197L114 194L107 196z"/>
<path style="fill:#9f5f2e; stroke:none;" d="M130 198L130 199L134 200L138 197L130 198z"/>
<path style="fill:#192d3d; stroke:none;" d="M134 200L122 201L123 205L142 208C142.192 205.138 143.687 200.924 141.931 198.361C139.84 195.311 134.452 196.957 134 200z"/>
<path style="fill:#a6a74b; stroke:none;" d="M99 197C98.9023 203.064 105.377 201.999 110 202L111 198L111 197L106 197L106 201L99 197z"/>
<path style="fill:#5f94a4; stroke:none;" d="M114 199C114.362 203.384 114.768 207.797 120 207L121 200L114 199z"/>
<path style="fill:#192d3d; stroke:none;" d="M195 199L200 203L195 199z"/>
<path style="fill:#9f5f2e; stroke:none;" d="M121 200L118 209L123 210L125 205L121 200M197 202L192 213L192 217C194.523 220.859 191.129 222.777 189 226L195 227C196.063 219.799 201.944 208.56 197 202z"/>
<path style="fill:#a6a74b; stroke:none;" d="M108 210L113 211L116 208L115 203L108 210z"/>
<path style="fill:#5f94a4; stroke:none;" d="M142 203L142 208C137.177 207.05 127.126 202.856 124 207L141 215L142 215C144.655 210.646 145.296 207.165 142 203z"/>
<path style="fill:#192d3d; stroke:none;" d="M90 204C84.893 209.697 77.1806 210.73 81 220L78 221L80 223C79.0523 230.299 84.4588 229.421 90 229L90 228L86 228L91 226L92 226L97 226L97 222L104 222L98 206L90 204z"/>
<path style="fill:#a6a74b; stroke:none;" d="M148 204L148 205L153 206L148 204M80 206L79 213L84 207L80 206z"/>
<path style="fill:#5f94a4; stroke:none;" d="M25 207L25 221L26 221L25 207M36 209L35 213L42 219L38 219L38 228L42 229L42 215L42 214L44 214L44 213L41 212L42 210L36 209M99 210L97 212L99 215L100 215L99 210z"/>
<path style="fill:#9f5f2e; stroke:none;" d="M34 211L30 222L28 215C25.1325 220.959 24.7833 232.019 31 236L31 226L32 226C34.6343 235.366 37.8642 222.524 38 219L42 219L36 211L34 211z"/>
<path style="fill:#a6a74b; stroke:none;" d="M128 212L127 225L137 217L128 212z"/>
<path style="fill:#9f5f2e; stroke:none;" d="M78 213L75 216L79 229L80 229L80 223L78 223L78 221L81 220L78 213z"/>
<path style="fill:#a6a74b; stroke:none;" d="M104 213L104 220L105 220L107 214L104 213z"/>
<path style="fill:#9f5f2e; stroke:none;" d="M130 224L138 216C133.787 217.094 131.23 219.872 130 224z"/>
<path style="fill:#a6a74b; stroke:none;" d="M138 218L141 224L142 224L138 218z"/>
<path style="fill:#192d3d; stroke:none;" d="M121 225L119 231L109 226L112 231L99 231L102 238L117.285 235.317L138 238L139.383 220.747L121 225z"/>
<path style="fill:#b9bfbc; stroke:none;" d="M25 221L25 224L26 224L25 221z"/>
<path style="fill:#9f5f2e; stroke:none;" d="M126 222C125.146 224.697 125.149 225.386 128 226L126 222z"/>
<path style="fill:#a6a74b; stroke:none;" d="M112 223L116 227L112 223z"/>
<path style="fill:#01ff01; stroke:none;" d="M25 224L26 225L25 224z"/>
<path style="fill:#b9bfbc; stroke:none;" d="M89 224L92 228L89 224z"/>
<path style="fill:#9f5f2e; stroke:none;" d="M110 225L119 231L120 229L120 228L114 227L113 224L110 225M88 225L86 228L90 228L88 225z"/>
<path style="fill:#a6a74b; stroke:none;" d="M92 225L85 229C86.3123 233.45 84.9824 237.527 81 240L85 243C88.3371 239.444 90.8259 239.897 95 242L96 238L91 238L96 233L92 225z"/>
<path style="fill:#5f94a4; stroke:none;" d="M117 225L118 228L120 228L121 225L117 225M140 226L136 232L142 231L140 226M26 228L26 238L27 238L26 228z"/>
<path style="fill:#9f5f2e; stroke:none;" d="M94 228L96 233L91 238L101 234L99 231L112 230L94 228z"/>
<path style="fill:#b9bfbc; stroke:none;" d="M79 234C67.2767 230.568 67.5553 241.296 67 250L64 249L61 259L64 260L65 257C70.1914 260.488 88.954 268.177 92 259L102 265L112.961 267.844L121.039 264.593L132.381 263.74L137 253L137 252C136.221 248.775 137.419 248.003 140 246L140 245L136 243L137 241C133.109 240.114 131.659 241.048 131 245L122 236L121 236L111 246L106 238L102 239L101 234L95 242C91.1522 239.314 87.6887 238.61 85 243L81 240C84.7643 239.197 86.382 234.587 87 231C83.0822 230.11 80.3892 229.818 79 234z"/>
<path style="fill:#9f5f2e; stroke:none;" d="M89 230L89 232L94 232L94 230L89 230M115 234L114 235L115 238L117 236L121 237L115 234z"/>
<path style="fill:#5f94a4; stroke:none;" d="M36 236C33.619 240.784 35.1428 248.849 40 242L36 242L36 236z"/>
<path style="fill:#9f5f2e; stroke:none;" d="M112 236L107 237L107 238L112 241L112 236z"/>
<path style="fill:#a6a74b; stroke:none;" d="M113 236L112 241L105 237L114 244L120 239L120 238L116 236L116 238L115 236L113 236M123 237L131 245C132.207 241.057 134.032 240.556 138 241L137 238L123 237z"/>
<path style="fill:#5f94a4; stroke:none;" d="M102.667 238.333L103.333 238.667L102.667 238.333M113 242L111 246L113 242z"/>
<path style="fill:#a6a74b; stroke:none;" d="M78 248L78 252L84 251L84 254L87 254L87 248L78 248z"/>
<path style="fill:#5f94a4; stroke:none;" d="M27 250L27 253L28 253L27 250z"/>
<path style="fill:#a6a74b; stroke:none;" d="M121 250L121 256L129 255L129 253L121 250z"/>
<path style="fill:#9f5f2e; stroke:none;" d="M29 276C29 290.166 28.6652 304.984 30.7299 319C31.5569 324.614 32.1521 330.851 38 333L41 329L36 321L40 321L41.4174 309.576L37 294L40 293L37 288L42 289L44 284L35 281L34 285L33 285C32.4943 282.471 32.5057 282.471 32 285L31 285L29 276z"/>
<path style="fill:#b9bfbc; stroke:none;" d="M29 298L29 307L30 307L29 298z"/>
<path style="fill:#192d3d; stroke:none;" d="M33.3333 304.667L33.6667 305.333L33.3333 304.667z"/>
<path style="fill:#5f94a4; stroke:none;" d="M66 304L66 312L67 312L66 304z"/>
<path style="fill:#9f5f2e; stroke:none;" d="M169 304L160 305L161 310L158 311L159 316L161 316C163.818 311.754 170.032 309.893 169 304z"/>
<path style="fill:#01ff01; stroke:none;" d="M29 307L30 308L29 307z"/>
<path style="fill:#5f94a4; stroke:none;" d="M154 313L154 344L155 344L154 313z"/>
<path style="fill:#01ff01; stroke:none;" d="M67 314L68 315L67 314z"/>
<path style="fill:#b9bfbc; stroke:none;" d="M67 315L68 316L67 315z"/>
<path style="fill:#192d3d; stroke:none;" d="M34.3333 316.667L34.6667 317.333L34.3333 316.667z"/>
<path style="fill:#9f5f2e; stroke:none;" d="M67 316L64 321L64 333L63 333L63 327L59 319L57 328L54 327L54 332L55 332C59.9819 328.596 61.8532 333.517 62 338C57.3592 337.39 54.8007 338.099 54 343L55 343L60 340L60 348L62 348C63.2227 343.922 65.1712 343.906 69 345L67 316z"/>
<path style="fill:#b9bfbc; stroke:none;" d="M30 317L30 324L31 324L30 317z"/>
<path style="fill:#5f94a4; stroke:none;" d="M31 324L31 336L32 336L32 333L33 333L32 339L39 338L37 335L40 334L40 329L38 333L31 324z"/>
<path style="fill:#b9bfbc; stroke:none;" d="M68 324L68 329L69 329L68 324z"/>
<path style="fill:#a6a74b; stroke:none;" d="M55 330C55.5356 334.766 57.2458 337.017 62 338C61.9334 332.416 60.8036 330.322 55 330z"/>
<path style="fill:#b9bfbc; stroke:none;" d="M32 333L31 343L32 343L32 333z"/>
<path style="fill:#9f5f2e; stroke:none;" d="M37 335L37 338L42 342C42.5913 337.201 43.183 332.636 37 335z"/>
<path style="fill:#b9bfbc; stroke:none;" d="M69 336L69 343L70 343L69 336z"/>
<path style="fill:#5f94a4; stroke:none;" d="M191 337L191 361L192 361L191 337z"/>
<path style="fill:#9f5f2e; stroke:none;" d="M32 339L33 347L36 347L36 340L32 339z"/>
<path style="fill:#5f94a4; stroke:none;" d="M32 343L32 361L33 361L32 343M69 343L69 352L70 352L69 343M70 358L70 369L71 369L70 358M32 363L32 366L33 366L32 363M0 389L0 391L133 390L133 391L82 391L82 393L132 393C140.138 393 148.815 394.366 156 390C143.83 384.893 122.253 389 109 389L0 389z"/>
<path style="fill:#9f5f2e; stroke:none;" d="M188 389L188 393L236 392L236 391L191 391L192 389L188 389z"/>
<path style="fill:#5f94a4; stroke:none;" d="M192 389L192 390L263 390L241 389L192 389z"/>
<path style="fill:#b9bfbc; stroke:none;" d="M232 390L232 391L268 391C260.718 386.238 240.969 390 232 390z"/>
<path style="fill:#9f5f2e; stroke:none;" d="M0 391L0 393L133 391C122.734 386.692 105.158 390 94 390C62.6094 390 31.3835 391 0 391z"/>
<path style="fill:#b9bfbc; stroke:none;" d="M134 390L134 391L141 391L134 390z"/>
<path style="fill:#a6a74b; stroke:none;" d="M191 390L191 391L228 391C218.202 386.889 201.649 390 191 390M234 392L234 393L270 393C263.756 387.595 241.974 390.102 234 392z"/>
<path style="fill:#b9bfbc; stroke:none;" d="M269 391L270 392L269 391z"/>
</svg>
