<?xml version="1.0" encoding="UTF-8" standalone="no"?>
<!-- Created with Inkscape (http://www.inkscape.org/) -->
<svg xmlns:dc="http://purl.org/dc/elements/1.1/" xmlns:cc="http://creativecommons.org/ns#" xmlns:rdf="http://www.w3.org/1999/02/22-rdf-syntax-ns#" xmlns:svg="http://www.w3.org/2000/svg" xmlns="http://www.w3.org/2000/svg" xmlns:xlink="http://www.w3.org/1999/xlink" xmlns:sodipodi="http://sodipodi.sourceforge.net/DTD/sodipodi-0.dtd" xmlns:inkscape="http://www.inkscape.org/namespaces/inkscape" width="151.82411mm" height="155.32126mm" viewBox="0 0 537.95945 550.35091" id="svg2" version="1.1" inkscape:version="0.91 r13725" sodipodi:docname="uf.svg">
  <sodipodi:namedview id="base" pagecolor="#ffffff" bordercolor="#666666" borderopacity="1.0" inkscape:pageopacity="0.0" inkscape:pageshadow="2" inkscape:zoom="1.4142136" inkscape:cx="173.68652" inkscape:cy="250.93514" inkscape:document-units="px" inkscape:current-layer="layer1" showgrid="false" inkscape:window-width="1920" inkscape:window-height="1018" inkscape:window-x="-8" inkscape:window-y="-8" inkscape:window-maximized="1" fit-margin-top="0" fit-margin-left="0" fit-margin-right="0" fit-margin-bottom="0"/>
  <defs id="defs4"/>
  <metadata id="metadata7">
    <rdf:RDF>
      <cc:Work rdf:about="">
        <dc:format>image/svg+xml</dc:format>
        <dc:type rdf:resource="http://purl.org/dc/dcmitype/StillImage"/>
        <dc:title/>
      </cc:Work>
    </rdf:RDF>
  </metadata>
  <g id="layer1" inkscape:groupmode="layer" inkscape:label="Layer 1" transform="translate(-59.319828,-72.605415)">
    <path style="fill:#000000" d="M 308.5535,612.40962 C 290.71248,609.01148 271.51256,601.18261 253.20939,589.84276 210.6364,563.46638 166.50604,517.40799 137.2677,468.83564 96.954048,401.86436 88.470851,330.59904 112.05024,256.98978 c 22.34758,-69.76384 72.14434,-121.41965 137.7969,-142.94127 24.24727,-7.94851 45.03825,-11.1794 71.94018,-11.1794 130.32219,0 230.65593,106.56952 225.83223,239.8678 -2.19049,60.5322 -25.03648,113.89045 -74.20414,173.30843 -37.42075,45.22212 -75.13003,77.38425 -104.99096,89.54649 -18.13686,7.38706 -42.38494,10.14831 -59.87095,6.81779 z m 41.31001,-11.20858 c 25.4147,-6.44771 48.0059,-21.23814 79.71165,-52.18709 39.05225,-38.12008 70.41733,-80.67826 87.59059,-118.84859 14.13314,-31.4132 20.68443,-62.16209 20.70467,-97.17872 0.0495,-85.75345 -45.97263,-161.64243 -120.25643,-198.29869 -66.30856,-32.7208 -144.63779,-29.65666 -206.80435,8.0899 -44.5513,27.05085 -77.28389,72.29542 -92.57376,127.95994 -23.128027,84.20023 -3.51504,161.61856 60.63315,239.33715 12.42749,15.05651 39.19818,41.73972 52.48575,52.31427 26.019,20.70649 53.0616,34.92321 75.65055,39.77067 12.11258,2.59928 30.45034,2.18903 42.85818,-0.95884 z M 236.95853,449.26912 c -34.64227,-5.61646 -65.53047,-28.32613 -82.25432,-60.47516 -11.9489,-22.96995 -12.94289,-48.95283 -2.49496,-65.21857 14.92759,-23.23984 45.34091,-29.54793 78.19173,-16.21787 50.33345,20.42408 82.08488,78.9734 63.05672,116.27597 -3.11634,6.10923 -11.54321,15.0021 -17.55472,18.52549 -10.25619,6.01122 -26.93763,9.05678 -38.94445,7.11014 z M 379.0142,440.7631 c -16.99653,-4.5773 -28.23853,-15.77861 -32.97267,-32.85335 -9.59191,-34.59539 18.73635,-82.86762 61.8312,-105.36227 12.63177,-6.59353 22.4617,-9.7689 35.67524,-11.52417 8.28677,-1.10081 11.10011,-1.00941 19.13553,0.62165 25.75648,5.22815 39.27994,21.87182 39.31884,48.39068 0.0724,49.36237 -55.66505,102.75516 -106.88173,102.38561 -5.62278,-0.0406 -12.87066,-0.78674 -16.10641,-1.65815 z m -21.15357,-68.32293 c 0.53194,-3.95069 0.42216,-5.06648 -0.37204,-3.78142 -1.59561,2.58183 -4.54823,14.35582 -4.45066,17.74766 0.11716,4.07332 3.84882,-6.73337 4.8227,-13.96624 z" id="path3367" inkscape:connector-curvature="0"/>
    <rect style="fill:#000000;fill-opacity:1" id="rect3412" width="7.875" height="23.625" x="352.31982" y="367.14383"/>
  </g>
</svg>
