<?xml version="1.0" encoding="UTF-8" standalone="no"?>
<!-- Created with Inkscape (http://www.inkscape.org/) -->

<svg
   xmlns:dc="http://purl.org/dc/elements/1.1/"
   xmlns:cc="http://creativecommons.org/ns#"
   xmlns:rdf="http://www.w3.org/1999/02/22-rdf-syntax-ns#"
   xmlns:svg="http://www.w3.org/2000/svg"
   xmlns="http://www.w3.org/2000/svg"
   xmlns:sodipodi="http://sodipodi.sourceforge.net/DTD/sodipodi-0.dtd"
   xmlns:inkscape="http://www.inkscape.org/namespaces/inkscape"
   width="37.705482"
   height="50.693222"
   id="svg2"
   version="1.1"
   inkscape:version="0.48.1 "
   sodipodi:docname="New document 1">
  <defs
     id="defs4" />
  <sodipodi:namedview
     id="base"
     pagecolor="#ffffff"
     bordercolor="#666666"
     borderopacity="1.0"
     inkscape:pageopacity="0.0"
     inkscape:pageshadow="2"
     inkscape:zoom="2.1595529"
     inkscape:cx="-18.600679"
     inkscape:cy="97.255555"
     inkscape:document-units="px"
     inkscape:current-layer="layer1"
     showgrid="false"
     fit-margin-top="0"
     fit-margin-left="0"
     fit-margin-right="0"
     fit-margin-bottom="0"
     inkscape:window-width="809"
     inkscape:window-height="770"
     inkscape:window-x="278"
     inkscape:window-y="29"
     inkscape:window-maximized="0" />
  <metadata
     id="metadata7">
    <rdf:RDF>
      <cc:Work
         rdf:about="">
        <dc:format>image/svg+xml</dc:format>
        <dc:type
           rdf:resource="http://purl.org/dc/dcmitype/StillImage" />
        <dc:title></dc:title>
      </cc:Work>
    </rdf:RDF>
  </metadata>
  <g
     inkscape:label="Layer 1"
     inkscape:groupmode="layer"
     id="layer1"
     transform="translate(-699.08119,-782.67039)">
    <path
       style="fill:#000000"
       d="m 707.16017,832.82403 c 0.9625,-0.25152 2.5375,-0.25152 3.5,0 0.9625,0.25153 0.175,0.45733 -1.75,0.45733 -1.925,0 -2.7125,-0.2058 -1.75,-0.45733 z m 9.48557,0.0916 c -0.32877,-0.32877 -0.35367,-1.23387 -0.0553,-2.01134 0.36261,-0.94494 0.0495,-1.22442 -0.94443,-0.84301 -1.19165,0.45728 -1.57648,-0.6683 -1.93819,-5.66899 -0.24823,-3.43176 -0.24376,-7.32544 0.01,-8.65261 0.42647,-2.23094 0.78405,-2.36465 4.73818,-1.77169 2.59877,0.38971 4.53104,0.23017 4.92459,-0.40661 0.37675,-0.60959 -0.31822,-1.07738 -1.66133,-1.11827 -2.1814,-0.0664 -2.19849,-0.1178 -0.30906,-0.92971 2.72482,-1.1709 6.47493,-1.27043 4.66615,-0.12385 -1.04911,0.66503 -0.94835,0.99345 0.47198,1.53848 1.5352,0.58911 1.58523,0.83246 0.33385,1.62385 -0.80959,0.51199 -2.48448,0.93778 -3.72198,0.94621 -1.2375,0.008 -2.25,0.45406 -2.25,0.99031 0,0.54549 1.43171,0.73414 3.25,0.42825 3.04804,-0.51277 3.13244,-0.45132 1.35819,0.98894 -1.0405,0.84462 -2.3905,1.74265 -3,1.99562 -0.72097,0.29922 -0.58406,0.83595 0.39181,1.53606 1.26375,0.90664 1.28181,1.21672 0.11465,1.9688 -0.90385,0.58241 -1.16325,1.77757 -0.74633,3.43871 0.35146,1.40033 0.18737,2.82518 -0.36465,3.16635 -2.1184,1.30924 -0.83747,2.40224 3.24633,2.77006 3.46097,0.31173 3.1206,0.41523 -1.83333,0.5575 -3.34584,0.0961 -6.35233,-0.0943 -6.6811,-0.42306 z m 12.26443,-8.8189 c 0,-0.77916 -0.5625,-1.66783 -1.25,-1.97481 -0.6875,-0.30698 0.1,-0.45698 1.75,-0.33333 2.43305,0.18232 3.06039,-0.2004 3.31955,-2.02519 0.47101,-3.31647 2.83343,-2.73508 3.55545,0.875 0.95715,4.78575 0.89536,4.875 -3.375,4.875 -2.78431,0 -4,-0.43056 -4,-1.41667 z m -26.69481,-1.59408 c -2.91409,-1.17366 -4.23749,-7.48552 -2.03192,-9.69109 1.37119,-1.37119 1.84716,-1.34009 4.62756,0.30233 3.74683,2.21331 3.97152,3.31916 0.59917,2.94897 -3.17308,-0.34832 -3.31882,1.95005 -0.32569,5.13609 2.32668,2.47663 1.25368,2.96419 -2.86912,1.3037 z m 25.69481,-3.38226 c 0,-1.16224 1.98497,-2.60699 3.58179,-2.60699 1.18157,0 0.19704,2.87089 -1.16358,3.39301 -2.21812,0.85118 -2.41821,0.78614 -2.41821,-0.78602 z m -20.36841,-7.25337 c -1.05111,-2.20419 -1.37707,-4.00814 -0.82415,-4.56106 0.55292,-0.55292 0.21362,-2.28981 -0.85788,-4.3915 -0.97492,-1.91224 -1.6999,-4.92226 -1.61107,-6.68893 0.13816,-2.74774 0.57656,-3.25956 3.03234,-3.54021 4.05365,-0.46326 7.30125,0.53116 8.04241,2.46258 0.87705,2.28557 -0.0517,2.91045 -1.96529,1.3223 -1.33723,-1.1098 -1.75228,-1.09212 -2.52417,0.1075 -0.79989,1.24316 -1.0506,1.23842 -1.86941,-0.0353 -3.01434,-4.68919 -1.66685,8.0215 1.51699,14.30957 1.37088,2.70748 1.18428,4.66147 -0.44516,4.66147 -0.41568,0 -1.53825,-1.64087 -2.49461,-3.64638 z m 23.17005,1.11469 c -0.32693,-0.32693 -0.3656,-2.30037 -0.0859,-4.38542 0.44443,-3.31348 0.22172,-3.86599 -1.76807,-4.38633 -1.92769,-0.5041 -2.07934,-0.83294 -0.98965,-2.14595 0.7078,-0.85283 0.8943,-1.5363 0.41445,-1.51881 -1.45024,0.0529 -4.37244,2.6115 -4.37244,3.82844 0,0.62687 -0.98601,1.13976 -2.19113,1.13976 -1.91365,0 -1.99466,-0.1583 -0.63974,-1.25 2.20586,-1.77732 2.87075,-4.3045 1.50273,-5.71172 -0.90083,-0.92663 -0.82493,-1.13758 0.32814,-0.91205 0.825,0.16136 2.4,-0.14996 3.5,-0.69183 3.95451,-1.948 6,-1.18465 6,2.23914 0,1.73413 0.3375,3.49201 0.75,3.90638 0.4125,0.41438 0.73405,1.91591 0.71456,3.33675 -0.0397,2.89631 -2.24671,7.46784 -3.16292,6.55164 z m -9.30164,-4.46831 c -0.33992,-0.55 0.0835,-1 0.94098,-1 0.85746,0 1.55902,0.45 1.55902,1 0,0.55 -0.42344,1 -0.94098,1 -0.51754,0 -1.2191,-0.45 -1.55902,-1 z m 3.5,-16 c 0,-1.11111 -0.66667,-2 -1.5,-2 -0.825,0 -1.51497,-0.7875 -1.53327,-1.75 -0.0279,-1.4681 -0.35009,-1.36971 -2,0.61078 l -1.96673,2.36079 0,-3.08511 c 0,-2.40494 0.65045,-3.42146 2.95034,-4.61078 3.78395,-1.95676 3.72121,-1.97046 4.4603,0.97432 0.34511,1.375 1.06889,2.5 1.60841,2.5 1.0963,0 1.30313,2.99682 0.37396,5.41821 -0.85742,2.2344 -2.39301,1.96604 -2.39301,-0.41821 z"
       id="path3002"
       inkscape:connector-curvature="0" />
  </g>
</svg>
