<?xml version="1.0"?>
<svg xmlns:rdf="http://www.w3.org/1999/02/22-rdf-syntax-ns#" xmlns="http://www.w3.org/2000/svg" xmlns:cc="http://creativecommons.org/ns#" xmlns:dc="http://purl.org/dc/elements/1.1/" xmlns:svg="http://www.w3.org/2000/svg" id="svg2" viewBox="0 0 40 52.511" version="1.1">
  <g id="layer1" transform="translate(-659.21 -643.02)">
    <path id="path3017" d="m686.93 695c-0.25928-0.25929-6.6033-0.46516-14.098-0.45751-8.1807 0.008-13.626-0.37517-13.626-0.95967 0-0.54176 3.2158-0.97448 7.25-0.97559l7.25-0.002 0.19783-3.248c0.67769-11.126 2.1158-16.477 3.7277-13.868 0.33344 0.53951 2.098 0.55592 4.3191 0.0402 4.844-1.1248 5.2553-1.1185 5.2553 0.0803 0 0.55-1.125 1-2.5 1s-2.5 0.45-2.5 1 2.5875 1.0493 5.75 1.1096l5.75 0.10956-4.5 0.88022c-6.8587 1.3416-8.0078 2.0922-4.5 2.9394l3 0.72459-2.75 0.11832c-1.5125 0.0651-2.75 0.56831-2.75 1.1183 0 0.55 1.2375 1.0449 2.75 1.0997l2.75 0.0997-2.5 0.69448c-3.3448 0.92916-3.8448 6.0679-0.60091 6.1764 1.1555 0.0387 2.968 0.40997 4.0278 0.82514 1.639 0.64208 1.691 0.84538 0.34777 1.3608-0.86852 0.33328-1.7913 0.39383-2.0505 0.13455zm5.5467 0.005c0.33229-0.3323 1.1948-0.36782 1.9167-0.079 0.79773 0.31922 0.56078 0.55618-0.60417 0.60416-1.0542 0.0434-1.6448-0.19293-1.3125-0.52522zm-7.5399-4.0518c0.67703-0.27393 2.027-0.2906 3-0.0371 0.97297 0.25349 0.41903 0.47761-1.231 0.49799-1.65 0.0204-2.4461-0.18706-1.769-0.46099zm-21.658-5.979c-2.6138-3.3229-2.6393-5.9942-0.0726-7.5972 1.1-0.68696 2-2.0408 2-3.0085 0-2.4918 1.4942-2.1804 3.385 0.70537 1.9564 2.9858 2.004 3.5352 0.30614 3.5352-0.71988 0-2.0988 0.57759-3.0642 1.2835-1.6604 1.2141-1.6437 1.4255 0.30887 3.9077 2.4388 3.1004 2.5572 3.8087 0.63678 3.8087-0.78508 0-2.3601-1.1857-3.5-2.6349zm30.162-1.7456c0.9538-0.72429 2.0921-3.0394 2.5295-5.1447 1.0321-4.9676 3.2363-5.8398 3.2363-1.2807 0 4.23-2.4475 7.8155-5.3067 7.774-2.0264-0.0294-2.0613-0.13204-0.45911-1.3487zm-4.9634-0.22369c0.33229-0.33229 1.1948-0.36782 1.9167-0.079 0.79773 0.31923 0.56078 0.55619-0.60417 0.60417-1.0542 0.0434-1.6448-0.19293-1.3125-0.52522zm-0.79782-9.4395c-0.32508-0.52598-2.3645-0.95633-4.532-0.95633s-3.941-0.41009-3.941-0.91131 1.9125-0.82162 4.25-0.712 5.017-0.25076 5.9545-0.80084c2.0536-1.205 3.0634-0.43756 2.2417 1.7037-0.74397 1.9388-3.1768 2.9654-3.9732 1.6768zm4.527 0.15066c0-1.1091 3.0764-2.3639 3.8642-1.5762 0.31785 0.31786-0.0841 0.99656-0.89313 1.5082-1.8699 1.1825-2.971 1.2077-2.971 0.0679zm-28.711-5.3569c-4.3766-4.7817-3.1456-9.8747 2.7205-11.255 2.75-0.6473 6.9902 2.4126 6.9902 5.0444 0 1.7672-2.1464 1.9147-3.8 0.26105-0.93333-0.93333-1.2-0.93333-1.2 0 0 0.66-0.675 1.2-1.5 1.2-2.1405 0-1.8534 1.9949 0.67431 4.6856 2.1197 2.2564 2.1241 2.3144 0.17432 2.3144-1.1 0-2.9267-1.0125-4.0594-2.25zm19.711 0.16784c-4.478-0.61443-4.4816-0.61819-0.75-0.76765 2.0625-0.0826 4.0875-0.18226 4.5-0.22145 0.4125-0.0392 1.5375-0.78394 2.5-1.655 2.1996-1.9906 2.321-4.4301 0.17954-3.6083-1.3275 0.50941-1.4634 0.002-0.87871-3.2814 1.28-7.1866 3.9175-7.1123 5.0052 0.14111 0.49006 3.2679 0.25278 5.1177-0.87782 6.8432-1.8724 2.8577-3.7764 3.3593-9.6782 2.5495zm0-3.9178c0-0.55 0.64844-1 1.441-1 0.79254 0 1.7191 0.45 2.059 1 0.33992 0.55-0.30852 1-1.441 1s-2.059-0.45-2.059-1zm-1-4.9182c0-2.9383 1.0503-5.0384 3.057-6.1123 2.6652-1.4264 3.2186 0.40669 0.92228 3.0544-1.0886 1.2552-1.9792 2.8882-1.9792 3.6291 0 0.74084-0.45 1.347-1 1.347s-1-0.8632-1-1.9182zm-9.3605-2.7756c-1.5984-1.5984-0.55426-4.3062 1.6605-4.3062 1.265 0 2.84-0.54 3.5-1.2 0.93333-0.93333 1.2-0.82222 1.2 0.5 0 1.0333-0.78431 1.7-2 1.7-1.1 0-2 0.64844-2 1.441 0 1.6706-1.4273 2.7984-2.3605 1.8652zm10.351-5.8172c-0.85785-1.0336-0.8925-1.489-0.11331-1.489 0.61735 0 1.1224-0.72378 1.1224-1.6084 0-1.2163-0.60948-1.4554-2.5-0.98095-2.8566 0.71696-3.2432-0.52462-0.89463-2.8732 1.0232-1.0232 2.3831-1.3667 3.75-0.9472 2.9705 0.91162 2.9635 0.89649 2.2259 4.828-0.78003 4.1579-1.896 5.1124-3.5904 3.0707z"/>
  </g>
  <metadata>
    <rdf:RDF>
      <cc:Work>
        <dc:format>image/svg+xml</dc:format>
        <dc:type rdf:resource="http://purl.org/dc/dcmitype/StillImage"/>
        <cc:license rdf:resource="http://creativecommons.org/licenses/publicdomain/"/>
        <dc:publisher>
          <cc:Agent rdf:about="http://openclipart.org/">
            <dc:title>Openclipart</dc:title>
          </cc:Agent>
        </dc:publisher>
        <dc:title>Mercator Tree 2 - Map Icon</dc:title>
        <dc:date>2013-12-02T14:09:41</dc:date>
        <dc:description>A map element from Gerhard Mercator's Atlas from 1595.</dc:description>
        <dc:source>http://openclipart.org/detail/189313/mercator-tree-2---map-icon-by-iggyoblomov-189313</dc:source>
        <dc:creator>
          <cc:Agent>
            <dc:title>IggyOblomov</dc:title>
          </cc:Agent>
        </dc:creator>
        <dc:subject>
          <rdf:Bag>
            <rdf:li>mercator</rdf:li>
            <rdf:li>map</rdf:li>
            <rdf:li>icons</rdf:li>
            <rdf:li>symbols</rdf:li>
            <rdf:li>element</rdf:li>
            <rdf:li>small</rdf:li>
            <rdf:li>tree</rdf:li>
            <rdf:li>forest</rdf:li>
            <rdf:li>terrain</rdf:li>
            <rdf:li>16th century</rdf:li>
            <rdf:li>cartography</rdf:li>
          </rdf:Bag>
        </dc:subject>
      </cc:Work>
      <cc:License rdf:about="http://creativecommons.org/licenses/publicdomain/">
        <cc:permits rdf:resource="http://creativecommons.org/ns#Reproduction"/>
        <cc:permits rdf:resource="http://creativecommons.org/ns#Distribution"/>
        <cc:permits rdf:resource="http://creativecommons.org/ns#DerivativeWorks"/>
      </cc:License>
    </rdf:RDF>
  </metadata>
</svg>
