<?xml version="1.0" encoding="UTF-8" standalone="no"?>
<svg
   xmlns:dc="http://purl.org/dc/elements/1.1/"
   xmlns:cc="http://creativecommons.org/ns#"
   xmlns:rdf="http://www.w3.org/1999/02/22-rdf-syntax-ns#"
   xmlns:svg="http://www.w3.org/2000/svg"
   xmlns="http://www.w3.org/2000/svg"
   xmlns:xlink="http://www.w3.org/1999/xlink"
   xmlns:sodipodi="http://sodipodi.sourceforge.net/DTD/sodipodi-0.dtd"
   xmlns:inkscape="http://www.inkscape.org/namespaces/inkscape"
   version="1.0"
   width="240"
   height="440"
   id="svg2484"
   sodipodi:version="0.32"
   inkscape:version="0.46"
   sodipodi:docname="non-EU-section-with-GBM.svg"
   inkscape:output_extension="org.inkscape.output.svg.inkscape">
  <metadata
     id="metadata2524">
    <rdf:RDF>
      <cc:Work
         rdf:about="">
        <dc:format>image/svg+xml</dc:format>
        <dc:type
           rdf:resource="http://purl.org/dc/dcmitype/StillImage" />
      </cc:Work>
    </rdf:RDF>
  </metadata>
  <sodipodi:namedview
     inkscape:window-height="998"
     inkscape:window-width="1280"
     inkscape:pageshadow="2"
     inkscape:pageopacity="0.0"
     guidetolerance="10.0"
     gridtolerance="10.0"
     objecttolerance="10.0"
     borderopacity="1.0"
     bordercolor="#666666"
     pagecolor="#ffffff"
     id="base"
     showgrid="false"
     inkscape:zoom="1"
     inkscape:cx="126.5"
     inkscape:cy="250.43498"
     inkscape:window-x="0"
     inkscape:window-y="0"
     inkscape:current-layer="svg2484" />
  <desc
     id="desc2486">European flag</desc>
  <defs
     id="defs2488">
    <inkscape:perspective
       sodipodi:type="inkscape:persp3d"
       inkscape:vp_x="0 : 270 : 1"
       inkscape:vp_y="0 : 1000 : 0"
       inkscape:vp_z="810 : 270 : 1"
       inkscape:persp3d-origin="405 : 180 : 1"
       id="perspective2526" />
    <g
       id="s">
      <g
         id="c">
        <path
           id="t"
           d="M 0,0 L 0,1 L 0.5,1 L 0,0 z"
           transform="matrix(0.9510565,0.309017,-0.309017,0.9510565,0,-1)" />
        <use
           xlink:href="#t"
           transform="scale(-1,1)"
           id="use2493"
           x="0"
           y="0"
           width="810"
           height="540" />
      </g>
      <g
         id="a">
        <use
           xlink:href="#c"
           transform="matrix(0.309017,0.9510565,-0.9510565,0.309017,0,0)"
           id="use2496"
           x="0"
           y="0"
           width="810"
           height="540" />
        <use
           xlink:href="#c"
           transform="matrix(-0.809017,0.5877853,-0.5877853,-0.809017,0,0)"
           id="use2498"
           x="0"
           y="0"
           width="810"
           height="540" />
      </g>
      <use
         xlink:href="#a"
         transform="scale(-1,1)"
         id="use2500"
         x="0"
         y="0"
         width="810"
         height="540" />
    </g>
    <inkscape:perspective
       id="perspective2592"
       inkscape:persp3d-origin="372.04724 : 350.78739 : 1"
       inkscape:vp_z="744.09448 : 526.18109 : 1"
       inkscape:vp_y="0 : 1000 : 0"
       inkscape:vp_x="0 : 526.18109 : 1"
       sodipodi:type="inkscape:persp3d" />
    <inkscape:perspective
       id="perspective2690"
       inkscape:persp3d-origin="372.04724 : 350.78739 : 1"
       inkscape:vp_z="744.09448 : 526.18109 : 1"
       inkscape:vp_y="0 : 1000 : 0"
       inkscape:vp_x="0 : 526.18109 : 1"
       sodipodi:type="inkscape:persp3d" />
    <inkscape:perspective
       id="perspective3833"
       inkscape:persp3d-origin="372.04724 : 350.78739 : 1"
       inkscape:vp_z="744.09448 : 526.18109 : 1"
       inkscape:vp_y="0 : 1000 : 0"
       inkscape:vp_x="0 : 526.18109 : 1"
       sodipodi:type="inkscape:persp3d" />
  </defs>
  <rect
     width="240"
     height="440"
     id="rect2502"
     x="-240"
     y="0"
     style="fill:#e8112d;fill-opacity:1"
     transform="scale(-1,1)" />
  <text
     xml:space="preserve"
     style="font-size:23.37402725px;font-style:normal;font-weight:bold;fill:#f9dd16;fill-opacity:0.98823529;stroke:none;stroke-width:1px;stroke-linecap:butt;stroke-linejoin:miter;stroke-opacity:1;font-family:Bitstream Vera Sans"
     x="24.838942"
     y="285.194"
     id="text3725"
     transform="scale(0.710257,1.4079412)"><tspan
       sodipodi:role="line"
       id="tspan3727"
       x="24.838942"
       y="285.194"
       style="font-size:116.87012482px;fill:#f9dd16;fill-opacity:0.98823529">GBM</tspan></text>
  <path
     style="font-size:12px;fill:#f9dd16;fill-opacity:0.98823499000000004;fill-rule:evenodd;stroke:#000000;stroke-width:3;stroke-miterlimit:4;stroke-dasharray:none"
     d="M 110.125 73.34375 C 108.75196 73.332165 107.38863 73.540988 106.0625 73.65625 C 104.76227 73.932502 103.65945 74.621455 103.03125 75.65625 C 102.73687 76.077335 102.46542 76.393312 102.21875 76.65625 C 102.2186 76.657053 102.2189 76.686436 102.21875 76.6875 C 101.27355 77.688301 100.59542 77.739696 99.8125 78.4375 C 91.65808 79.708282 83.960721 83.91323 78.09375 86.78125 C 76.998918 87.541318 75.999303 88.124504 75.0625 88.65625 L 67.1875 89.625 C 67.177103 89.645027 67.166647 89.667474 67.15625 89.6875 C 65.863791 89.173752 64.869143 88.511556 64.25 88.0625 C 60.498919 84.651641 56.751081 81.254608 53 77.84375 C 49.748486 75.417204 48.938148 78.902466 49.5625 79.4375 C 50.648088 81.770351 48.295456 83.187992 57.21875 91.59375 C 58.345538 93.908244 59.498214 96.216758 60.625 98.53125 C 60.625 98.53125 60.436666 100.4497 60.59375 100.53125 C 61.510204 102.71435 62.703181 103.35618 63.8125 103.3125 L 63.09375 105.15625 C 63.09375 105.15625 59.217037 106.43541 59.28125 106.46875 C 59.345994 106.50236 63.8125 108.0625 63.8125 108.0625 L 64.59375 111.75 L 68.125 108.90625 C 68.125 108.90625 73.439212 109.37709 73.375 109.34375 C 73.310256 109.31014 70.535209 106.00445 70.40625 105.9375 C 70.276762 105.87027 73.060135 102.5335 73.09375 102.46875 C 73.127364 102.40401 68.096113 103.5915 68.0625 103.65625 C 68.029429 103.71994 66.182543 102.6 65.96875 102.40625 C 65.989474 102.38851 66.011249 102.36158 66.03125 102.34375 C 66.914845 101.53857 67.77266 100.74268 68.65625 99.9375 C 68.65625 99.937501 73.918444 98.282084 74 98.125 C 75.972122 98.418552 79.064466 98.240217 82.3125 97.875 C 82.328452 97.928988 82.351003 97.914547 82.375 97.875 C 88.389979 97.194005 95.011801 95.798321 96.5625 95.0625 C 96.908584 94.868662 97.179881 94.723697 97.4375 94.625 C 97.497013 94.659712 97.586071 94.736738 97.625 94.75 L 97.5 94.625 C 98.799407 94.145818 99.172868 94.602927 100.71875 93.34375 C 102.28112 92.309544 101.42567 93.137944 104.3125 90.5 C 105.20109 89.735811 105.89676 90.978189 106.0625 91.84375 C 106.21173 99.448782 107.28011 106.11576 108.03125 113.5625 C 107.92572 113.53969 107.85877 113.51938 107.90625 113.5625 C 108.14643 114.57548 107.71963 115.65653 107.1875 116 C 107.11338 116.05948 107.04525 116.12804 106.96875 116.1875 C 104.20264 117.61181 93.581006 129.76375 92.125 131.65625 C 90.905189 134.40383 88.520069 137.85622 86.0625 140.09375 C 83.439298 142.07834 81.982589 144.80801 82.34375 147.375 C 82.314451 150.56924 84.104545 152.75231 85.53125 155 C 86.375554 156.02668 87.510893 156.66927 88.71875 156.75 C 91.196649 157.07707 91.416104 157.84012 92.65625 158.3125 C 97.541494 164.96408 104.84495 169.86453 110.09375 173.75 C 111.27433 174.37226 112.28312 174.97542 113.1875 175.5625 L 117.65625 182.125 C 117.66698 182.125 117.67677 182.125 117.6875 182.125 C 117.82838 183.51217 117.70722 184.67966 117.59375 185.4375 C 116.29501 190.33827 114.98625 195.25546 113.6875 200.15625 C 113.03215 204.16012 116.53159 203.2694 116.71875 202.46875 C 118.28897 200.43034 120.62024 201.85524 123.96875 190.0625 C 125.50368 187.99599 127.02757 185.91026 128.5625 183.84375 C 128.56251 183.84375 130.34375 183.14575 130.34375 182.96875 C 131.85899 181.14946 131.86241 179.77691 131.3125 178.8125 L 133.3125 178.59375 C 133.3125 178.59375 136.21876 181.44734 136.21875 181.375 C 136.21875 181.30205 135.56251 176.625 135.5625 176.625 L 138.46875 174.25 L 134.3125 172.40625 C 134.3125 172.40625 132.28126 167.4589 132.28125 167.53125 C 132.28125 167.6042 130.625 171.6047 130.625 171.75 C 130.625 171.8959 126.38545 170.96875 126.3125 170.96875 C 126.23955 170.96875 129.5833 174.90624 129.65625 174.90625 C 129.72834 174.90625 129.60441 177.08055 129.53125 177.34375 C 129.51076 177.33556 129.48907 177.32024 129.46875 177.3125 C 128.34699 176.89931 127.2155 176.47568 126.09375 176.0625 C 126.09375 176.0625 122.20825 172.15625 122.03125 172.15625 C 121.37981 170.26124 119.79264 167.61726 117.96875 164.90625 C 118.00678 164.86966 118.00643 164.84767 117.96875 164.84375 L 117.9375 164.84375 C 114.58256 159.86632 110.332 154.72142 108.96875 153.6875 C 108.66138 153.36718 108.40941 153.09671 108.15625 152.84375 C 108.15539 152.82934 108.15804 152.79304 108.15625 152.78125 L 108.125 152.84375 C 107.182 151.90268 106.52755 151.32203 105.4375 150.65625 C 103.30462 149.63615 102.61902 149.30266 101.3125 148.78125 C 100.22483 148.34474 100.99567 147.13967 101.6875 146.59375 C 108.77755 142.73427 114.41953 138.45269 121.1875 134.09375 C 121.26135 134.18977 121.32912 134.29787 121.40625 134.375 C 121.40625 134.40598 122.23977 134.385 123 134.375 C 123.23284 134.46669 123.48154 134.55655 123.71875 134.65625 C 126.31592 136.36937 142.07428 139.65832 144.4375 140 C 147.43033 139.71672 151.62642 140.11063 154.78125 141.15625 C 157.79676 142.47021 160.87692 142.38537 162.9375 140.8125 C 165.73622 139.27258 166.7712 136.65769 168.03125 134.3125 C 168.51241 133.07338 168.52159 131.74868 168 130.65625 C 167.81205 130.18698 167.70986 129.81518 167.625 129.46875 L 167.625 129.4375 C 167.3018 128.09182 167.59277 127.50841 167.4375 126.46875 C 170.84133 118.95054 171.52924 110.19822 172.34375 103.71875 C 172.30744 102.37993 172.36843 101.20383 172.4375 100.125 L 175.9375 93.03125 C 175.93081 93.019345 175.91294 93.011905 175.90625 93 C 177.04976 92.193271 178.15683 91.71075 178.875 91.4375 C 183.7834 90.167776 188.68535 88.894727 193.59375 87.625 C 197.40501 86.234008 194.91463 83.645751 194.125 83.875 C 191.57861 83.505276 191.67053 80.764348 179.75 83.625 C 177.19642 83.299806 174.64733 82.981446 172.09375 82.65625 C 172.09375 82.656247 170.62303 81.444508 170.46875 81.53125 C 168.15768 81.105264 166.92014 81.7469 166.34375 82.6875 L 165.1875 81.09375 C 165.1875 81.09375 166.25057 77.15204 166.1875 77.1875 C 166.12391 77.223252 162.375 80.093752 162.375 80.09375 L 158.84375 78.71875 L 159.3125 83.25 C 159.3125 83.25 155.99943 87.441712 156.0625 87.40625 C 156.12609 87.370499 160.43584 86.883706 160.5625 86.8125 C 160.68968 86.740996 161.933 90.873915 161.96875 90.9375 C 162.0045 91.001088 163.78575 86.157337 163.75 86.09375 C 163.71464 86.030846 165.67553 85.063423 165.9375 85 C 165.94125 85.029489 165.93319 85.064919 165.9375 85.09375 C 166.12708 86.274054 166.3104 87.444699 166.5 88.625 C 166.5 88.624999 165.03826 93.93947 165.125 94.09375 C 163.7914 95.591468 162.20009 98.250006 160.71875 101.1875 C 160.71967 101.19157 160.71624 101.21296 160.71875 101.21875 C 157.99746 106.61966 155.54609 112.92665 155.3125 114.625 C 155.28552 115.01433 155.24474 115.32688 155.1875 115.59375 C 155.13143 115.62218 155.03029 115.66386 155 115.6875 L 155.15625 115.65625 C 154.84571 117.01145 154.26185 117.07662 154.46875 119.0625 C 154.47811 120.93613 154.28072 119.76478 154.90625 123.625 C 155.0588 124.78702 153.62743 124.67925 152.8125 124.34375 C 145.86815 119.98892 139.27697 117.16383 132.03125 113.3125 C 131.8681 113.22958 131.69446 113.14553 131.53125 113.0625 C 131.74616 112.88698 131.93894 112.70758 132.15625 112.53125 C 131.31575 112.13626 131.02337 110.28304 130.9375 109.5625 C 130.9375 109.5625 130.63607 109.81306 130.5625 109.875 C 129.97131 105.73578 124.70113 92.29067 123.75 90.25 C 121.87356 87.901355 119.88468 84.180893 119.03125 80.96875 C 118.47862 77.726154 116.75716 75.174793 114.3125 74.3125 C 112.90178 73.563573 111.49804 73.355335 110.125 73.34375 z "
     id="path4410" />
  <g
     id="g4755"
     transform="translate(91.740039,-37.61045)">
    <use
       transform="matrix(15.955083,0,0,15.982759,28.434146,175.57668)"
       xlink:href="#s"
       y="-6"
       id="use4757"
       x="0"
       width="810"
       height="540"
       style="fill:#000000;fill-opacity:0.98823529" />
    <use
       transform="matrix(11.513227,0,0,11.533198,28.434146,148.45442)"
       xlink:href="#s"
       y="-6"
       id="use4759"
       x="0"
       width="810"
       height="540"
       style="fill:#f9dd16;fill-opacity:0.98823529" />
  </g>
  <g
     id="g4773"
     transform="translate(91.740039,171.38955)">
    <use
       transform="matrix(15.955083,0,0,15.982759,28.434146,175.57668)"
       xlink:href="#s"
       y="-6"
       id="use4775"
       x="0"
       width="810"
       height="540"
       style="fill:#000000;fill-opacity:0.98823529" />
    <use
       transform="matrix(11.513227,0,0,11.533198,28.434146,148.45442)"
       xlink:href="#s"
       y="-6"
       id="use4777"
       x="0"
       width="810"
       height="540"
       style="fill:#f9dd16;fill-opacity:0.98823529" />
  </g>
  <g
     id="g4751"
     transform="translate(-0.2599606,2.3895503)">
    <use
       transform="matrix(15.955083,0,0,15.982759,28.434146,175.57668)"
       xlink:href="#s"
       y="-6"
       id="use4749"
       x="0"
       width="810"
       height="540"
       style="fill:#000000;fill-opacity:0.98823529" />
    <use
       transform="matrix(11.513227,0,0,11.533198,28.434146,148.45442)"
       xlink:href="#s"
       y="-6"
       id="use4361"
       x="0"
       width="810"
       height="540"
       style="fill:#f9dd16;fill-opacity:0.98823529" />
  </g>
  <g
     id="g4761"
     transform="translate(186.74004,2.3895503)">
    <use
       transform="matrix(15.955083,0,0,15.982759,28.434146,175.57668)"
       xlink:href="#s"
       y="-6"
       id="use4763"
       x="0"
       width="810"
       height="540"
       style="fill:#000000;fill-opacity:0.98823529" />
    <use
       transform="matrix(11.513227,0,0,11.533198,28.434146,148.45442)"
       xlink:href="#s"
       y="-6"
       id="use4765"
       x="0"
       width="810"
       height="540"
       style="fill:#f9dd16;fill-opacity:0.98823529" />
  </g>
  <g
     id="g4767"
     transform="translate(-0.2599606,121.38955)">
    <use
       transform="matrix(15.955083,0,0,15.982759,28.434146,175.57668)"
       xlink:href="#s"
       y="-6"
       id="use4769"
       x="0"
       width="810"
       height="540"
       style="fill:#000000;fill-opacity:0.98823529" />
    <use
       transform="matrix(11.513227,0,0,11.533198,28.434146,148.45442)"
       xlink:href="#s"
       y="-6"
       id="use4771"
       x="0"
       width="810"
       height="540"
       style="fill:#f9dd16;fill-opacity:0.98823529" />
  </g>
  <g
     id="g4779"
     transform="translate(186.74004,121.38955)">
    <use
       transform="matrix(15.955083,0,0,15.982759,28.434146,175.57668)"
       xlink:href="#s"
       y="-6"
       id="use4781"
       x="0"
       width="810"
       height="540"
       style="fill:#000000;fill-opacity:0.98823529" />
    <use
       transform="matrix(11.513227,0,0,11.533198,28.434146,148.45442)"
       xlink:href="#s"
       y="-6"
       id="use4783"
       x="0"
       width="810"
       height="540"
       style="fill:#f9dd16;fill-opacity:0.98823529" />
  </g>
</svg>
