<?xml version="1.0" encoding="UTF-8" standalone="no"?>
<!-- Created with Inkscape (http://www.inkscape.org/) -->

<svg
   xmlns:dc="http://purl.org/dc/elements/1.1/"
   xmlns:cc="http://creativecommons.org/ns#"
   xmlns:rdf="http://www.w3.org/1999/02/22-rdf-syntax-ns#"
   xmlns:svg="http://www.w3.org/2000/svg"
   xmlns="http://www.w3.org/2000/svg"
   xmlns:sodipodi="http://sodipodi.sourceforge.net/DTD/sodipodi-0.dtd"
   xmlns:inkscape="http://www.inkscape.org/namespaces/inkscape"
   sodipodi:docname="oPIUeL258n9jtw.svg"
   inkscape:version="0.48.5 r10040"
   version="1.1"
   id="svg2"
   height="1209.2955"
   width="2093.7537">
  <title
     id="title3111">Maleficent</title>
  <sodipodi:namedview
     id="base"
     pagecolor="#ffffff"
     bordercolor="#666666"
     borderopacity="1.0"
     inkscape:pageopacity="0.0"
     inkscape:pageshadow="2"
     inkscape:zoom="0.5"
     inkscape:cx="1092.3166"
     inkscape:cy="584.37915"
     inkscape:document-units="px"
     inkscape:current-layer="layer22"
     showgrid="false"
     inkscape:snap-page="true"
     inkscape:window-width="1280"
     inkscape:window-height="1005"
     inkscape:window-x="0"
     inkscape:window-y="0"
     inkscape:window-maximized="1"
     fit-margin-top="0"
     fit-margin-left="0"
     fit-margin-right="0"
     fit-margin-bottom="0"
     inkscape:snap-global="true"
     showguides="true"
     inkscape:guide-bbox="true"
     inkscape:snap-object-midpoints="false"
     inkscape:snap-center="false"
     inkscape:object-paths="false"
     inkscape:object-nodes="true"
     inkscape:snap-midpoints="false"
     inkscape:snap-to-guides="false"
     inkscape:snap-grids="false"
     inkscape:snap-smooth-nodes="false"
     inkscape:snap-bbox="true"
     inkscape:bbox-paths="false"
     inkscape:snap-bbox-edge-midpoints="false"
     inkscape:snap-nodes="true"
     inkscape:bbox-nodes="false"
     inkscape:snap-intersection-paths="true" />
  <defs
     id="defs4" />
  <metadata
     id="metadata7">
    <rdf:RDF>
      <cc:Work
         rdf:about="">
        <dc:format>image/svg+xml</dc:format>
        <dc:type
           rdf:resource="http://purl.org/dc/dcmitype/StillImage" />
        <dc:title>Maleficent</dc:title>
        <cc:license
           rdf:resource="http://creativecommons.org/licenses/publicdomain/" />
        <dc:description>motif from film Maleficent,
Motiv aus dem Film Maleficent</dc:description>
        <dc:date>2015-03-02</dc:date>
        <dc:creator>
          <cc:Agent>
            <dc:title>Richard Schneider</dc:title>
          </cc:Agent>
        </dc:creator>
        <dc:rights>
          <cc:Agent>
            <dc:title>Richard Schneider</dc:title>
          </cc:Agent>
        </dc:rights>
        <dc:publisher>
          <cc:Agent>
            <dc:title>Richard Schneider</dc:title>
          </cc:Agent>
        </dc:publisher>
        <dc:language>de_AT</dc:language>
        <dc:source>selbst gezeichet, Motiv aus dem Film Maleficent</dc:source>
      </cc:Work>
      <cc:License
         rdf:about="http://creativecommons.org/licenses/publicdomain/">
        <cc:permits
           rdf:resource="http://creativecommons.org/ns#Reproduction" />
        <cc:permits
           rdf:resource="http://creativecommons.org/ns#Distribution" />
        <cc:permits
           rdf:resource="http://creativecommons.org/ns#DerivativeWorks" />
      </cc:License>
    </rdf:RDF>
  </metadata>
  <g
     inkscape:groupmode="layer"
     id="layer22"
     inkscape:label="Hintergrund 1"
     style="display:inline">
    <rect
       style="fill:#b9c7c6;fill-opacity:1;fill-rule:nonzero;stroke:none"
       id="rect4414"
       width="2093.7537"
       height="1209.2955"
       x="1.5010215e-13"
       y="0"
       ry="0" />
  </g>
  <g
     inkscape:groupmode="layer"
     id="layer21"
     inkscape:label="Hintergrund 2"
     style="display:inline">
    <path
       style="fill:#4b452f;fill-opacity:1;fill-rule:nonzero;stroke:none"
       d="M 117.4183,641.97976 23.48366,1248.8469 132.77157,647.26081 165.6216,519.61753 l -14.05757,-6.624 z"
       id="path4290"
       inkscape:connector-curvature="0"
       sodipodi:nodetypes="cccccc" />
    <path
       style="fill:#4b452f;fill-opacity:1;fill-rule:nonzero;stroke:none"
       d="M 71.304866,950.97523 C 163.42015,909.27103 257.65761,890.99536 385.24431,946.03133 275.0798,919.10306 171.67591,919.14274 71.304866,950.97523 z"
       id="path4292"
       inkscape:connector-curvature="0"
       sodipodi:nodetypes="ccc" />
    <path
       style="fill:#4b452f;fill-opacity:1;fill-rule:nonzero;stroke:none"
       d="M -14.451486,915.61435 C 119.8363,821.71705 278.93418,720.82739 383.53475,564.59544 260.11143,696.30911 118.76862,823.08782 -14.451486,915.61435 z"
       id="path4294"
       inkscape:connector-curvature="0"
       sodipodi:nodetypes="ccc" />
    <path
       style="fill:#4b452f;fill-opacity:1;fill-rule:nonzero;stroke:none;display:inline"
       d="m 507.22624,479.64812 c -12.12043,139.34028 -4.86444,597.14558 -4.94393,730.46538 4.93086,-133.3531 18.03458,-591.10512 4.94393,-730.46538 z"
       id="path4296"
       inkscape:connector-curvature="0"
       sodipodi:nodetypes="ccc" />
    <path
       style="fill:#4b452f;fill-opacity:1;fill-rule:nonzero;stroke:none;display:inline"
       d="m 1532.1527,1221.6133 c -6.6538,-100.897 9.3712,-195.5432 105.7527,-295.63283 -63.9428,93.66253 -100.2624,190.47813 -105.7527,295.63283 z"
       id="path4292-9"
       inkscape:connector-curvature="0"
       sodipodi:nodetypes="ccc" />
    <path
       style="fill:#4b452f;fill-opacity:1;fill-rule:nonzero;stroke:none;display:inline"
       d="m 1119.0049,783.25035 c 134.2878,-93.8973 293.3857,-194.78696 397.9862,-351.01891 -123.4233,131.71367 -264.7661,258.49238 -397.9862,351.01891 z"
       id="path4294-4"
       inkscape:connector-curvature="0"
       sodipodi:nodetypes="ccc" />
    <path
       style="fill:#4b452f;fill-opacity:1;fill-rule:nonzero;stroke:none;display:inline"
       d="m 1425.3196,638.54168 -76.8542,609.26582 60.6403,-608.41794 3.5786,-131.75405 15.3384,-2.49574 z"
       id="path4290-29"
       inkscape:connector-curvature="0"
       sodipodi:nodetypes="cccccc" />
    <path
       style="fill:#4b452f;fill-opacity:1;fill-rule:nonzero;stroke:none;display:inline"
       d="m 2084.0725,978.58905 c -78.1318,-64.18635 -164.3948,-106.29816 -301.8943,-86.26836 113.3782,2.59184 213.2272,29.47224 301.8943,86.26836 z"
       id="path4292-8"
       inkscape:connector-curvature="0"
       sodipodi:nodetypes="ccc" />
    <path
       style="fill:#4b452f;fill-opacity:1;fill-rule:nonzero;stroke:none;display:inline"
       d="m 1388.3532,1072.8751 c 93.8973,-134.28784 194.787,-293.38574 351.019,-397.98624 -131.7137,123.4233 -258.4925,264.7661 -351.019,397.98624 z"
       id="path4294-7"
       inkscape:connector-curvature="0"
       sodipodi:nodetypes="ccc" />
    <path
       style="fill:#4b452f;fill-opacity:1;fill-rule:nonzero;stroke:none;display:inline"
       d="m 1592.5694,500.13616 c 35.9853,135.15797 107.8439,587.34674 130.9299,718.65254 -27.8703,-130.5014 -119.774,-579.12408 -130.9299,-718.65254 z"
       id="path4296-45"
       inkscape:connector-curvature="0"
       sodipodi:nodetypes="ccc" />
    <path
       style="fill:#4b452f;fill-opacity:1;fill-rule:nonzero;stroke:none;display:inline"
       d="m 2092.0628,1221.5179 c -147.4703,-71.4313 -320.5453,-145.8351 -448.5812,-283.51763 142.7356,110.49133 302.3823,213.27063 448.5812,283.51763 z"
       id="path4294-0"
       inkscape:connector-curvature="0"
       sodipodi:nodetypes="ccc" />
    <path
       style="fill:#4b452f;fill-opacity:1;fill-rule:nonzero;stroke:none;display:inline"
       d="M 942.42533,1068.2056 C 808.1375,974.3083 649.0396,873.41864 544.4391,717.18669 667.8624,848.90036 809.2052,975.67907 942.42533,1068.2056 z"
       id="path4294-4-3"
       inkscape:connector-curvature="0"
       sodipodi:nodetypes="ccc" />
    <path
       style="fill:#4b452f;fill-opacity:1;fill-rule:nonzero;stroke:none;display:inline"
       d="m 1077.2278,977.43487 c 78.3325,-63.94111 164.727,-105.78241 302.1631,-85.3218 -113.3858,2.23651 -213.3185,28.80389 -302.1631,85.3218 z"
       id="path4292-8-8"
       inkscape:connector-curvature="0"
       sodipodi:nodetypes="ccc" />
    <path
       style="fill:#4b452f;fill-opacity:1;fill-rule:nonzero;stroke:none;display:inline"
       d="m 1606.7438,906.04238 c 147.1925,-72.00191 319.978,-147.0755 447.4796,-285.25303 -142.3065,111.04346 -301.5539,214.44029 -447.4796,285.25303 z"
       id="path4294-7-1"
       inkscape:connector-curvature="0"
       sodipodi:nodetypes="ccc" />
    <path
       style="fill:#4b452f;fill-opacity:1;fill-rule:nonzero;stroke:none"
       d="m 1101.8748,1184.322 c 147.2427,-85.3256 301.2097,-162.7041 492.5083,-195.96352 -164.1694,50.13862 -328.3389,121.89262 -492.5083,195.96352 z"
       id="path4409"
       inkscape:connector-curvature="0"
       sodipodi:nodetypes="ccc" />
    <path
       sodipodi:nodetypes="ccc"
       inkscape:connector-curvature="0"
       id="path4411"
       d="m 1095.7972,1190.3997 c 147.2427,-85.3256 301.2097,-200.68951 492.5083,-233.94893 -164.1694,50.13863 -328.3389,159.87803 -492.5083,233.94893 z"
       style="fill:#4b452f;fill-opacity:1;fill-rule:nonzero;stroke:none" />
    <path
       sodipodi:nodetypes="ccc"
       inkscape:connector-curvature="0"
       id="path4416"
       d="m 1950.9032,775.37271 c -147.1925,-72.00191 -319.978,-147.0755 -447.4796,-285.25303 142.3065,111.04346 301.5539,214.44029 447.4796,285.25303 z"
       style="fill:#4b452f;fill-opacity:1;fill-rule:nonzero;stroke:none;display:inline" />
    <path
       sodipodi:nodetypes="cccccc"
       inkscape:connector-curvature="0"
       id="path4418"
       d="m 1946.9063,621.54264 131.0714,599.94306 -114.8467,-600.54961 -15.3554,-130.90516 -15.5002,-1.11299 z"
       style="fill:#4b452f;fill-opacity:1;fill-rule:nonzero;stroke:none;display:inline" />
  </g>
  <g
     inkscape:groupmode="layer"
     id="layer17"
     inkscape:label="Haare hinten"
     style="display:inline"
     transform="translate(-264.92542,407.35304)">
    <path
       style="fill:#101619;fill-opacity:1;stroke:none"
       d="M 871.91868,344.69503 898.24771,800 l 564.78809,0 -33.5983,-345.09375 z"
       id="path3110"
       inkscape:connector-curvature="0"
       sodipodi:nodetypes="ccccc" />
    <path
       style="fill:#ffffff;fill-opacity:1;fill-rule:nonzero;stroke:none"
       d="m 1382.9005,515.17777 c 7.8938,53.46317 20.9063,214.45829 30.3455,285.24749 z"
       id="path3084"
       inkscape:connector-curvature="0"
       sodipodi:nodetypes="ccc" />
    <path
       sodipodi:nodetypes="ccc"
       inkscape:connector-curvature="0"
       id="path3086"
       d="m 902.73724,436.46362 c 7.89384,53.46317 10.63783,208.64953 20.07703,279.43873 z"
       style="fill:#ffffff;fill-opacity:1;fill-rule:nonzero;stroke:none" />
    <path
       sodipodi:nodetypes="ccc"
       inkscape:connector-curvature="0"
       id="path3088"
       d="m 1300.9677,513.6605 c 7.8938,53.46317 20.9064,214.45829 30.3456,285.24749 z"
       style="fill:#ffffff;fill-opacity:1;fill-rule:nonzero;stroke:none" />
  </g>
  <g
     style="display:inline"
     inkscape:label="Kleid hinter Hals"
     id="layer12"
     inkscape:groupmode="layer"
     transform="translate(-264.92542,407.35304)">
    <path
       sodipodi:nodetypes="cccccccc"
       inkscape:connector-curvature="0"
       id="path3066"
       d="M 943.0625,710.46875 C 897.65061,725.76439 853.87311,754.12982 813.90625,800 l 106.8125,0 c 13.78714,-26.88862 19.93604,-57.28619 22.34375,-89.53125 z m 322.4687,54.125 c -0.9285,11.79901 -1.6459,23.6072 -1.9687,35.40625 l 61.1875,0 c -18.583,-12.09367 -38.4224,-24.08324 -59.2188,-35.40625 z"
       style="fill:#2d2c23;stroke:#ffffff;stroke-width:1;stroke-linecap:butt;stroke-linejoin:round;stroke-miterlimit:4;stroke-opacity:1;stroke-dasharray:none;fill-opacity:1" />
  </g>
  <g
     style="display:inline"
     inkscape:label="Hals"
     id="layer11"
     inkscape:groupmode="layer"
     transform="translate(-264.92542,407.35304)">
    <path
       inkscape:connector-curvature="0"
       id="path3038"
       d="M 942.09375,543.59375 C 940.12724,633.15041 957.20022,728.85132 920.71875,800 l 342.84375,0 c 0.9883,-36.12508 5.6209,-72.24992 8.9687,-108.375 -16.0606,13.23379 -34.2593,23.30764 -53.5624,28.1875 -66.9899,16.93509 -142.0506,-6.90865 -201.0313,-50.625 -48.29996,-35.79976 -65.28438,-74.28057 -74.25,-124.90625 l -1.59375,-0.6875 z"
       style="fill:#7b8085;fill-opacity:1;stroke:#000000;stroke-width:1;stroke-linecap:butt;stroke-linejoin:round;stroke-miterlimit:4;stroke-opacity:1;stroke-dasharray:none" />
    <path
       style="fill:#ffffff;fill-opacity:1;stroke:none"
       d="m 1058.8553,684.08325 c -2.4858,34.79862 -2.7346,69.79608 0.2593,105.10063 1.9255,-28.50529 4.1629,-66.35607 -0.2593,-105.10063 z"
       id="path4513"
       inkscape:connector-curvature="0"
       sodipodi:nodetypes="ccc" />
  </g>
  <g
     style="display:inline"
     inkscape:label="Kopf"
     id="layer2"
     inkscape:groupmode="layer"
     transform="translate(-264.92542,407.35304)">
    <path
       sodipodi:nodetypes="ssassaaaaaas"
       inkscape:connector-curvature="0"
       id="path3152"
       d="m 931.52858,441.03393 c 11.96602,107.92762 9.85195,171.41587 86.41902,228.16711 58.9807,43.71635 134.0279,67.54835 201.0177,50.61326 46.2125,-11.68258 86.1215,-53.0356 105.4183,-96.62132 28.4044,-64.15719 53.9707,-93.16747 72.6251,-137.71263 29.531,-70.51773 47.1445,-147.19252 51.3724,-223.527 3.3815,-61.05203 10.6641,-129.96816 -21.0932,-182.22002 C 1395.4926,27.419093 1334.2339,-7.2946807 1275.071,-23.026009 1210.94,-40.078363 1136.8029,-36.080545 1076.5383,-8.3002306 1019.9429,17.788696 973.19219,68.943726 944.92865,124.4851 c -25.64623,50.39803 -25.16508,110.94959 -27.10968,167.46428 -1.71614,49.87501 8.62345,103.20987 13.70961,149.08455 z"
       style="fill:#7b8085;fill-opacity:1;stroke:#000000;stroke-width:1;stroke-linecap:butt;stroke-linejoin:round;stroke-miterlimit:4;stroke-opacity:1;stroke-dasharray:none" />
    <path
       style="fill:#000000;stroke:none"
       d="m 976.00203,381.96004 c 35.85107,32.60426 61.01887,48.05166 49.53227,98.75918 9.6127,-50.3521 -13.9754,-63.95501 -49.53227,-98.75918 z"
       id="path3089"
       inkscape:connector-curvature="0"
       sodipodi:nodetypes="ccc" />
    <path
       style="fill:#000000;stroke:none"
       d="m 1371.6632,481.83328 c -62.5835,23.02985 -65.5512,19.21327 -76.4868,61.90036 11.6457,-42.26339 14.4952,-37.37516 76.4868,-61.90036 z"
       id="path3092"
       inkscape:connector-curvature="0"
       sodipodi:nodetypes="ccc" />
    <path
       style="fill:#000000;stroke:none"
       d="m 1215.5845,635.65525 c 16.2887,-0.8791 32.5015,-4.70542 34.7107,-16.71783 -2.9355,11.00031 -19.5669,13.90141 -34.7107,16.71783 z"
       id="path3097"
       inkscape:connector-curvature="0"
       sodipodi:nodetypes="ccc" />
  </g>
  <g
     style="display:inline"
     inkscape:label="Augen"
     id="layer6"
     inkscape:groupmode="layer"
     transform="translate(-264.92542,407.35304)">
    <path
       style="fill:#eaf8f8;fill-opacity:1;fill-rule:nonzero;stroke:#000000"
       d="m 1011.2413,749.60754 c 14.7797,33.7368 50.2278,41.16905 82.2454,31.64172 -38.1935,-40.60639 -54.0858,-40.09162 -82.2454,-31.64172 z"
       id="path3105"
       inkscape:connector-curvature="0"
       transform="translate(264.92542,-407.35304)"
       sodipodi:nodetypes="ccc" />
    <path
       style="fill:#eaf8f8;fill-opacity:1;fill-rule:nonzero;stroke:#000000"
       d="m 795.2485,696.09415 c 34.03715,40.21318 70.21184,27.14225 83.73253,14.58061 -40.73927,-30.19779 -51.16478,-24.75331 -83.73253,-14.58061 z"
       id="path3095"
       inkscape:connector-curvature="0"
       transform="translate(264.92542,-407.35304)"
       sodipodi:nodetypes="ccc" />
    <path
       transform="translate(0,3.9669422)"
       d="m 1122.6446,291.09799 c 0,11.26739 -9.134,20.40142 -20.4014,20.40142 -11.2674,0 -20.4015,-9.13403 -20.4015,-20.40142 0,-11.26739 9.1341,-20.40142 20.4015,-20.40142 11.2674,0 20.4014,9.13403 20.4014,20.40142 z"
       sodipodi:ry="20.401419"
       sodipodi:rx="20.401419"
       sodipodi:cy="291.09799"
       sodipodi:cx="1102.2432"
       id="path3214"
       style="fill:#00ffff;stroke:#000000;stroke-width:1;stroke-linecap:butt;stroke-linejoin:round;stroke-miterlimit:4;stroke-opacity:1;stroke-dasharray:none"
       sodipodi:type="arc" />
    <path
       transform="translate(3.4002361,2.2668241)"
       d="m 1326.092,350.03543 c 0,10.95441 -8.8803,19.83471 -19.8347,19.83471 -10.9544,0 -19.8347,-8.8803 -19.8347,-19.83471 0,-10.95441 8.8803,-19.83471 19.8347,-19.83471 10.9544,0 19.8347,8.8803 19.8347,19.83471 z"
       sodipodi:ry="19.834711"
       sodipodi:rx="19.834711"
       sodipodi:cy="350.03543"
       sodipodi:cx="1306.2573"
       id="path3216"
       style="fill:#00ffff;stroke:#000000;stroke-width:1;stroke-linecap:butt;stroke-linejoin:round;stroke-miterlimit:4;stroke-opacity:1;stroke-dasharray:none"
       sodipodi:type="arc" />
    <path
       sodipodi:end="6.9087299"
       sodipodi:start="3.1415927"
       sodipodi:type="arc"
       style="fill:#005f5f;fill-opacity:1;stroke:#000000;stroke-width:1;stroke-linecap:butt;stroke-linejoin:round;stroke-miterlimit:4;stroke-opacity:1;stroke-dasharray:none"
       id="path3019"
       sodipodi:cx="1102.2432"
       sodipodi:cy="291.09799"
       sodipodi:rx="20.401419"
       sodipodi:ry="20.401419"
       d="m 1081.8417,291.09799 c 0,-11.26739 9.1341,-20.40142 20.4015,-20.40142 11.2674,0 20.4014,9.13403 20.4014,20.40142 0,4.28902 -1.3518,8.46895 -3.8631,11.94582 l -16.5383,-11.94582 z"
       transform="translate(0,3.9669422)" />
    <path
       sodipodi:end="6.9076163"
       sodipodi:start="3.1415927"
       sodipodi:type="arc"
       style="fill:#005f5f;fill-opacity:1;stroke:#000000;stroke-width:1;stroke-linecap:butt;stroke-linejoin:round;stroke-miterlimit:4;stroke-opacity:1;stroke-dasharray:none"
       id="path3021"
       sodipodi:cx="1306.2573"
       sodipodi:cy="350.03543"
       sodipodi:rx="19.834711"
       sodipodi:ry="19.834711"
       d="m 1286.4226,350.03543 c 0,-10.95441 8.8803,-19.83471 19.8347,-19.83471 10.9544,0 19.8347,8.8803 19.8347,19.83471 0,4.16234 -1.3094,8.2192 -3.7429,11.59608 l -16.0918,-11.59608 z"
       transform="translate(3.4002361,2.2668241)" />
    <path
       d="m 1110.6739,295.06494 c 0,4.65618 -3.7746,8.43077 -8.4307,8.43077 -4.6562,0 -8.4308,-3.77459 -8.4308,-8.43077 0,-4.65618 3.7746,-8.43076 8.4308,-8.43076 4.6561,0 8.4307,3.77458 8.4307,8.43076 z"
       sodipodi:ry="8.4307642"
       sodipodi:rx="8.4307642"
       sodipodi:cy="295.06494"
       sodipodi:cx="1102.2432"
       id="path3027"
       style="fill:#000000;stroke:none"
       sodipodi:type="arc" />
    <path
       transform="translate(207.4144,57.237314)"
       sodipodi:type="arc"
       style="fill:#000000;stroke:none"
       id="path3031"
       sodipodi:cx="1102.2432"
       sodipodi:cy="295.06494"
       sodipodi:rx="8.6504822"
       sodipodi:ry="8.6504822"
       d="m 1110.8936,295.06494 c 0,4.77753 -3.8729,8.65048 -8.6504,8.65048 -4.7776,0 -8.6505,-3.87295 -8.6505,-8.65048 0,-4.77753 3.8729,-8.65048 8.6505,-8.65048 4.7775,0 8.6504,3.87295 8.6504,8.65048 z" />
    <path
       sodipodi:type="arc"
       style="fill:#ffffff;stroke:none"
       id="path3063"
       sodipodi:cx="1102.2432"
       sodipodi:cy="295.06494"
       sodipodi:rx="4.4220982"
       sodipodi:ry="4.4220982"
       d="m 1106.6653,295.06494 c 0,2.44226 -1.9799,4.4221 -4.4221,4.4221 -2.4423,0 -4.4221,-1.97984 -4.4221,-4.4221 0,-2.44226 1.9798,-4.4221 4.4221,-4.4221 2.4422,0 4.4221,1.97984 4.4221,4.4221 z"
       transform="translate(1.2548625,-2.7079331)" />
    <path
       transform="translate(209.006,53.408119)"
       d="m 1105.0928,295.06494 c 0,1.57379 -1.2758,2.8496 -2.8496,2.8496 -1.5738,0 -2.8496,-1.27581 -2.8496,-2.8496 0,-1.57379 1.2758,-2.8496 2.8496,-2.8496 1.5738,0 2.8496,1.27581 2.8496,2.8496 z"
       sodipodi:ry="2.8495975"
       sodipodi:rx="2.8495975"
       sodipodi:cy="295.06494"
       sodipodi:cx="1102.2432"
       id="path3067"
       style="fill:#ffffff;stroke:none"
       sodipodi:type="arc" />
  </g>
  <g
     inkscape:groupmode="layer"
     id="layer18"
     inkscape:label="Hörner"
     transform="translate(-264.92542,407.35304)"
     style="display:inline">
    <path
       style="fill:#101619;fill-opacity:1;stroke:#ffffff"
       d="m 1448.3724,262.10966 c 20.61,-76.51801 76.8492,-89.26109 111.7943,-103.89713 34.9451,-14.63604 70.6093,-20.04423 86.5113,-49.14943 24.3501,-44.567742 18.4521,-108.92399189 -8.2311,-152.135344 -38.7972,-62.829186 -145.946,-52.389653 -192.4147,-109.777726 -9.5227,-11.76028 -15.5894,-28.2207 -13.8037,-43.24721 1.3766,-11.58355 8.2598,-23.74298 18.1577,-29.91587 23.2863,-14.52264 81.9982,-7.39881 81.9982,-7.39881 0,0 -40.2599,-22.31808 -62.5392,-24.3819 -20.4652,-1.89577 -43.156,0.56795 -60.5835,11.46299 -20.9439,13.0934 -39.7405,35.13871 -44.2732,59.41911 -5.8589,31.38442 9.9841,64.46601 25.6622,92.278023 19.1377,33.949321 80.1534,85.1158484 80.1534,85.1158484 -34.603,7.7031542 -57.9628,26.6496106 -84.6622,42.2564186 10.6845,73.81228 25.5319,140.37789 62.2305,229.37103 z"
       id="path3116"
       inkscape:connector-curvature="0"
       sodipodi:nodetypes="czaaaaacaaaaccc" />
    <path
       style="fill:#101619;fill-opacity:1;stroke:#ffffff;stroke-width:1;stroke-linecap:butt;stroke-linejoin:round;stroke-miterlimit:4;stroke-opacity:1;stroke-dasharray:none"
       d="m 813.78985,-98.229044 c -1.40939,80.330678 139.10736,170.144769 115.06869,267.314694 59.70422,-47.68728 116.15356,-103.859394 152.54726,-179.565085 -18.1505,-40.473492 -49.6867,-77.375757 -73.5804,-110.670115 0,0 76.3849,-13.91104 106.3693,-36.38811 33.6545,-25.22833 65.1947,-61.75513 72.6868,-103.14311 3.9293,-21.70659 -4.6435,-45.5787 -16.7394,-64.02606 -9.7106,-14.80946 -25.9736,-24.83237 -41.7815,-32.8153 -24.6083,-12.42717 -79.7193,-22.02 -79.7193,-22.02 0,0 55.914,21.81199 67.9656,46.4684 11.655,23.84465 9.2186,57.00794 -4.919,79.46974 -7.2687,11.54845 -22.6337,16.17202 -35.7453,19.95186 -57.2813,16.5132 -126.8311,-20.22322 -178.59786,9.34078 -43.78165,25.00371 -82.67517,75.94055 -83.55489,126.082306 z"
       id="path3118"
       inkscape:connector-curvature="0"
       sodipodi:nodetypes="scccaaaacaaaas" />
    <path
       style="fill:#eaf8f8;fill-opacity:1;stroke:none"
       d="m 1015.3142,-103.41829 c -24.68451,-37.86879 -195.29821,-85.49486 -103.31823,-126.59004 -69.06657,40.47838 82.02837,71.47335 103.31823,126.59004 z"
       id="path3128"
       inkscape:connector-curvature="0"
       sodipodi:nodetypes="ccc" />
    <path
       style="fill:#eaf8f8;fill-opacity:1;stroke:none"
       d="m 1394.2731,32.396889 c 117.8139,-52.562463 303.4327,-31.88247149 205.4433,-109.724938 48.6907,68.8316144 -99.6583,42.725132 -205.4433,109.724938 z"
       id="path3130"
       inkscape:connector-curvature="0"
       sodipodi:nodetypes="ccc" />
  </g>
  <g
     inkscape:groupmode="layer"
     id="layer16"
     inkscape:label="Haare vorne"
     transform="translate(-264.92542,407.35304)"
     style="display:inline">
    <path
       style="fill:#101619;fill-opacity:1;stroke:none"
       d="m 903.77989,331.41938 c 5.85888,3.04759 45.10356,-26.96068 45.14203,-45.54777 0.0498,-24.05308 -8.2979,-14.1477 21.0947,-26.98445 l 4.15798,-1.62009 -6.24433,-4.70637 12.21292,-0.30843 -12.91475,-5.86466 15.46511,1.13908 -15.89985,-8.66061 16.49086,2.03087 -16.31385,-8.90617 19.13213,2.4871 -18.11936,-11.75773 21.10527,2.75481 -19.06715,-11.3232 21.77401,3.80189 -20.64921,-10.087 21.64025,2.51026 -16.41773,-9.1263 16.76155,2.23473 -12.00785,-11.46499 18.58817,7.25795 -12.00786,-12.83496 20.87147,8.17127 -12.00786,-12.3783 20.87146,5.88798 -13.3778,-11.00833 19.9581,5.88798 -15.2045,-11.92164 19.9582,4.97467 -16.1178,-10.09502 20.4148,4.97467 -18.8577,-11.92165 19.9581,3.6047 -17.9443,-8.72505 20.8714,1.77807 -17.9444,-7.35507 20.4148,1.77806 -17.0311,-8.72504 19.0449,2.23473 -15.2045,-8.26839 20.4148,3.6047 -14.7477,-10.09503 20.4147,4.51797 -14.2911,-9.63836 18.5881,3.14804 -15.6611,-9.63836 19.5015,1.32141 -16.5744,-8.26839 22.1734,0.27273 -19.3823,-7.94712 22.1735,1.6427 -16.6424,-8.403756 19.8901,1.186042 -16.6423,-8.40376 18.9768,-1.097244 -12.417,-5.94744 18.6358,-1.380878 -11.9603,-4.805797 17.9507,-3.207496 -9.4486,-3.892483 19.3207,-2.522512 -8.5354,-3.892481 20.0057,-2.294183 -6.4703,-3.313857 19.1026,-1.487219 -6.927,-2.62887 14.9926,-2.628868 -6.927,-2.400539 12.2529,-0.802238 -3.0454,-3.085525 c 0,0 13.2755,0.931822 19.7875,-0.117252 9.7475,-1.570313 18.4185,-9.668098 28.1757,-9.135151 16.0434,0.876303 33.1736,8.670472 49.7638,10.909016 16.5902,2.238543 34.2495,-1.078539 50.2782,3.324247 16.0287,4.402787 29.8903,16.525442 44.2492,23.894474 14.359,7.369032 28.1425,9.984441 39.7235,21.12172 8.7631,8.42736 12.122,23.55441 17.9653,34.21104 5.8432,10.65664 15.78,20.59793 19.4603,32.6012 3.6804,12.00327 2.177,22.84989 4.4514,35.31718 2.2745,12.46728 8.8632,26.55523 10.4887,38.60391 3.3857,25.09409 -1.0358,78.58245 -1.0358,78.58245 l 1.4136,0.16588 -3.2804,0.56819 5.1352,1.07111 -5.8285,0.73584 6.7092,1.24617 -7.4061,1.17914 8.1506,1.1456 -8.0096,1.81615 7.8531,1.37459 -7.9718,0.97224 7.6519,1.70984 -8.2401,0.83815 7.9591,2.09388 -8.4024,0.48457 8.0932,1.89271 -8.3353,0.41752 8.1217,2.436 -8.3738,0.022 7.5182,2.10072 -7.9044,0.22319 7.8982,1.62322 -7.9937,0.28212 7.3618,1.42206 -7.8597,0.7515 7.3348,1.50276 -7.4843,0.29577 7.4688,1.90508 -8.4903,-0.0395 7.6463,1.9234 -8.3798,0.38114 7.9144,2.32572 -8.7151,0.11293 8.0154,1.98314 -8.6814,-0.0285 7.9483,2.31841 -8.212,0.2397 7.1103,1.94458 -7.3736,0.60348 6.3725,2.61511 -7.1054,0.1341 6.3807,1.80994 -6.9633,0.60296 6.5818,1.27351 -6.8963,0.73707 6.4833,2.1446 -6.8607,-0.13526 6.4833,2.47988 -6.7936,-0.8058 6.1891,2.19018 -6.5514,0.24558 5.5855,1.78785 -6.2832,0.31264 5.8798,1.86109 -6.1901,0.58705 5.2763,1.59288 -5.7878,0.72116 5.1641,1.74205 -5.1624,0.3339 4.9629,1.60794 -2.8154,0.40095 c 0,0 -7.9635,27.90523 -11.9453,41.85784 -2.8231,9.89275 7.2858,33.13769 13.4898,44.12327 5.4304,9.61577 4.1397,25.21055 1.8783,39.95746 0,0 57.5064,-128.34868 68.7041,-196.98067 8.4509,-51.79641 14.1567,-107.47086 -1.9101,-157.43227 C 1454.8526,94.140934 1420.1982,38.438064 1371.4094,5.1528372 1310.2591,-36.565818 1229.1124,-54.999637 1155.5273,-46.93487 1079.29,-38.579424 999.13768,-3.7229771 948.86203,54.193322 899.66862,110.86292 881.5959,216.86075 887.79037,296.74757 c 7.45225,23.20377 10.13064,31.62422 15.98952,34.67181 z"
       id="path3103"
       inkscape:connector-curvature="0"
       sodipodi:nodetypes="zscccccccccccccccccccccccccccccccccccccccccccccccccccccccccccccccccccccassssssssscccccccccccccccccccccccccccccccccccccccccccccccccccccccccccccsscaaaascz" />
    <path
       style="fill:#ffffff;fill-opacity:1;fill-rule:nonzero;stroke:none"
       d="m 1297.6952,45.37519 c 19.3443,-11.948801 42.8748,-23.679748 75.7558,-18.315109 -30.4423,-1.306435 -57.1737,1.671689 -75.7558,18.315109 z"
       id="path3090"
       inkscape:connector-curvature="0"
       sodipodi:nodetypes="ccc" />
    <path
       style="fill:#ffffff;fill-opacity:1;fill-rule:nonzero;stroke:none"
       d="m 1099.8552,-23.01382 c 26.5519,0.74397 151.8702,36.15724 161.3938,58.923947 -6.0084,-24.600986 -137.6962,-55.31527 -161.3938,-58.923947 z"
       id="path3093"
       inkscape:connector-curvature="0"
       sodipodi:nodetypes="ccc" />
    <path
       sodipodi:nodetypes="ccc"
       inkscape:connector-curvature="0"
       id="path3099"
       d="m 1244.7258,-42.081986 c 16.3877,16.670211 23.1686,53.455611 29.2945,77.55888 -2.2817,-24.396959 -17.5944,-60.807247 -29.2945,-77.55888 z"
       style="fill:#ffffff;fill-opacity:1;fill-rule:nonzero;stroke:none" />
    <path
       sodipodi:nodetypes="ccc"
       inkscape:connector-curvature="0"
       id="path3101"
       d="m 1279.9884,39.198763 c 1.3858,-16.613725 11.7811,-44.150629 12.8428,-62.947616 -5.112,17.590363 -7.651,47.56978 -12.8428,62.947616 z"
       style="fill:#ffffff;fill-opacity:1;fill-rule:nonzero;stroke:none" />
    <path
       style="fill:#ffffff;fill-opacity:1;fill-rule:nonzero;stroke:none;display:inline"
       d="M 1173.5167,25.098409 C 1044.4008,-25.790253 1044.3038,177.0045 898.89015,158.61848 1045.4452,172.84684 1037.8007,-19.592568 1173.5167,25.098409 z"
       id="path3104"
       inkscape:connector-curvature="0"
       sodipodi:nodetypes="ccc" />
    <path
       style="fill:#ffffff;fill-opacity:1;fill-rule:nonzero;stroke:none"
       d="m 999.504,481.38354 c 46.3674,28.22279 26.696,177.61328 89.8984,184.72806 -62.8951,0.95098 -41.5958,-157.26915 -89.8984,-184.72806 z"
       id="path3124"
       inkscape:connector-curvature="0"
       transform="translate(386.05167,-380.04213)"
       sodipodi:nodetypes="ccc" />
  </g>
  <g
     inkscape:label="Ohren"
     id="layer9"
     inkscape:groupmode="layer"
     style="display:inline"
     transform="translate(-264.92542,407.35304)">
    <path
       style="fill:#7b8085;stroke:#000000;stroke-width:1;stroke-linecap:butt;stroke-linejoin:round;stroke-miterlimit:4;stroke-opacity:1;stroke-dasharray:none;fill-opacity:1"
       d="m 856.75,239.78125 c -1.69562,75.74716 -26.31424,164.27125 75.34375,207.59375 l -0.5625,-6.34375 c -0.0228,-0.20592 -0.0395,-0.41878 -0.0625,-0.625 -4.70626,-42.12227 -13.77683,-90.45913 -13.84375,-136.625 -20.38315,-31.82241 -42.68034,-54.59206 -60.875,-64 z"
       id="path3256"
       inkscape:connector-curvature="0" />
    <path
       style="fill:#63676b;stroke:#000000;stroke-width:1;stroke-linecap:butt;stroke-linejoin:round;stroke-miterlimit:4;stroke-opacity:1;stroke-dasharray:none;fill-opacity:1"
       d="m 1460.0625,416.1875 c -13.6984,0.0109 -30.9369,2.77967 -39.125,2.3125 -6.8077,22.78298 -14.809,45.17051 -23.9375,66.96875 -6.7664,16.15764 -14.453,30.29273 -22.8438,44.78125 33.0688,-7.82971 46.5933,-47.50949 66.1563,-80.8125 6.9797,-11.88186 43.7589,-16.81062 38.7813,-27.59375 -2.0393,-4.41773 -9.7149,-5.66369 -19.0313,-5.65625 z"
       id="path3258"
       inkscape:connector-curvature="0" />
    <path
       style="fill:#000000;stroke:none"
       d="m 902.85023,308.94996 c -14.82087,-22.62974 -16.15074,-23.50773 -35.06487,-39.07208 17.54755,15.00093 20.82645,19.26274 35.06487,39.07208 z"
       id="path3077"
       inkscape:connector-curvature="0"
       sodipodi:nodetypes="ccc" />
    <path
       style="fill:#000000;stroke:none"
       d="m 915.9143,339.56804 c -8.82867,6.96126 -9.72333,7.24373 -13.16732,12.65513 l -8.65086,-26.53943 c 7.11767,22.99728 8.10965,28.23593 5.95041,45.90319 3.57,-25.30569 6.24258,-22.7537 15.86777,-32.01889 z"
       id="path3079"
       inkscape:connector-curvature="0"
       sodipodi:nodetypes="ccccc" />
    <path
       style="fill:#000000;stroke:none"
       d="m 876.57866,387.25668 c 10.32707,15.73329 25.6898,26.3885 43.07758,26.24727 -18.2063,-1.48235 -31.02773,-10.25388 -43.07758,-26.24727 z"
       id="path3083"
       inkscape:connector-curvature="0"
       sodipodi:nodetypes="ccc" />
    <path
       style="fill:#000000;stroke:none"
       d="m 1440.9952,445.16096 c -9.6835,1.776 -19.2895,3.28966 -27.6499,4.00722 7.6423,0.79197 19.4696,-0.81175 27.6499,-4.00722 z"
       id="path3085"
       inkscape:connector-curvature="0"
       sodipodi:nodetypes="ccc" />
    <path
       style="fill:#000000;stroke:none"
       d="m 1403.144,495.9254 c 5.589,-7.10976 12.9105,-17.4692 17.4707,-27.40815 -7.1627,8.27451 -13.1895,19.65755 -17.4707,27.40815 z"
       id="path3087"
       inkscape:connector-curvature="0"
       sodipodi:nodetypes="ccc" />
    <path
       style="fill:#000000;stroke:none"
       d="m 868.49013,320.92679 c -0.64542,10.3531 2.09396,24.49692 8.09712,33.32624 -3.73789,-7.54072 -7.68335,-19.89311 -8.09712,-33.32624 z"
       id="path3081"
       inkscape:connector-curvature="0"
       sodipodi:nodetypes="ccc" />
  </g>
  <g
     style="display:inline"
     inkscape:label="Augenlider"
     id="layer7"
     inkscape:groupmode="layer"
     transform="translate(-264.92542,407.35304)">
    <path
       style="fill:#000000;stroke:none"
       d="m 1052.8682,273.19072 c -0.2305,0.63394 9.9338,7.60076 13.163,6.34053 -1.6916,0.36122 -3.3601,0.77657 -5.0312,1.25 -0.01,-10e-4 -0.021,10e-4 -0.031,0 -3.9645,0.2814 -17.8251,-6.89394 -17.8206,-7.72342 -0.8238,1.76257 12.4981,10.44155 16.6643,8.06717 -1.2722,0.37846 -2.5493,0.79322 -3.8125,1.21875 -3.5388,-0.80064 -18.6445,-4.10215 -18.3111,-4.59737 0.1493,1.45723 14.4359,6.62504 17.5923,4.81612 -1.5723,0.54439 -3.1395,1.1151 -4.6874,1.75 0.563,0.90791 1.3647,1.94053 2.3124,3.03125 -3.5009,-2.98633 -14.829,-0.8684 -14.7726,-0.12626 -0.01,-0.25092 12.0192,0.31523 14.8352,0.18876 0.7318,0.83822 1.5431,1.71835 2.4687,2.625 -3.5799,-2.41108 -14.6767,1.0835 -14.2407,2.36248 -0.088,-0.2054 11.1122,-2.65577 14.3657,-2.26873 5.6951,5.54877 14.6945,12.04545 23.9375,15.71875 -10.4047,-7.15912 -15.1967,-11.84062 -18.7188,-16.40625 7.7448,-5.75648 53.6914,-6.80554 82.5,13.90625 -1.1959,1.54005 -12.5882,9.7437 -18.9641,10.71867 17.032,-4.03113 25.2056,1.04383 33.7454,4.56258 -5.8061,-3.05485 -12.8264,-5.6932 -19.0937,-8.625 1.4746,-1.07261 4.0151,-4.22368 4.9469,-6.717 5.9393,4.80654 10.382,9.86216 14.1468,15.342 0.3773,0.54918 0.7731,1.09474 1.125,1.65625 -15.6757,-32.86761 -55.1769,-48.28464 -91.9063,-40.96875 -3.5072,-1.11383 -14.8366,-5.90521 -14.4132,-6.12178 z"
       id="path4561"
       inkscape:connector-curvature="0"
       sodipodi:nodetypes="cccccccccccccccccccccccsccc" />
    <path
       style="fill:#000000;stroke:none"
       d="m 1296.1148,337.31776 c -5.6487,-0.004 -14.3173,2.84607 -20.2075,4.51318 36.2986,-7.9502 75.4724,21.89675 79.9677,30.63781 -1.746,2.33856 -10.2945,4.55188 -18.75,5.5 9.8257,1.24094 17.5149,0.75058 23.0312,-0.40625 2.431,1.69745 5.6955,7.48145 5.6955,7.48145 0.3054,0.13088 -0.8799,-5.86424 -5.3829,-7.54395 1.0439,-0.22681 2.0255,-0.48336 2.9062,-0.75 3.3301,1.45791 11.8664,7.27374 11.4984,7.09625 0.6456,-0.8527 -7.3152,-7.60026 -11.3422,-7.15875 1.453,-0.44792 2.6945,-0.94205 3.6876,-1.4375 -0.7447,-0.81412 -1.4991,-1.61092 -2.25,-2.40625 4.1099,2.73603 11.299,2.41456 10.8412,1.92159 0.33,0.52803 -8.397,-1.24758 -11.7788,-2.89034 -1.4492,-1.51399 -2.902,-2.99888 -4.375,-4.4375 4.5499,2.84018 14.8438,3.14666 14.1775,2.7609 0,0 -11.9363,-2.30748 -14.8025,-3.3859 -0.8672,-0.8386 -1.7494,-1.65813 -2.625,-2.46875 4.2351,2.21555 13.0798,1.58929 12.7122,1.36462 0,0 -11.1894,-1.45782 -13.8059,-2.36462 -17.0837,-15.52381 -39.0321,-26.01348 -59.1977,-26.02599 z m -14.0523,2.93224 c -6.2616,1.10925 -12.3346,3.52374 -17.9375,7.6875 -0.081,-0.0224 -0.1695,-0.0415 -0.25,-0.0625 8.976,4.33574 17.2886,8.46394 25.4134,13.63365 -6.2268,-4.7329 -13.8667,-19.69486 -13.4929,-19.69486 1.7384,5.86645 2.1763,8.17891 3.3253,11.91124 -4.8999,-2.1767 -9.835,-4.32593 -14.9646,-5.75628 6.093,-3.50936 12.0518,-6.0554 17.9063,-7.71875 z"
       id="path4547"
       inkscape:connector-curvature="0"
       sodipodi:nodetypes="ccccccccccccccccccccccccccccc" />
  </g>
  <g
     style="display:inline"
     inkscape:label="Augenlidfalten"
     id="layer8"
     inkscape:groupmode="layer"
     transform="translate(-264.92542,407.35304)">
    <path
       sodipodi:nodetypes="ccc"
       inkscape:connector-curvature="0"
       id="path3239"
       d="m 1050.2563,282.53073 c 33.9499,-18.32942 74.4456,-23.27615 89.3896,-0.78339 -18.453,-20.05275 -55.2462,-15.33153 -89.3896,0.78339 z"
       style="fill:#000000;stroke:none" />
    <path
       sodipodi:nodetypes="ccc"
       inkscape:connector-curvature="0"
       id="path3241"
       d="m 1299.9411,322.54013 c 21.6298,-7.28003 58.3137,28.06079 64.303,48.24566 -3.8178,-20.91609 -44.4558,-61.15678 -64.303,-48.24566 z"
       style="fill:#000000;stroke:none" />
    <path
       sodipodi:nodetypes="ccc"
       inkscape:connector-curvature="0"
       id="path3247"
       d="m 1067.702,317.35301 c 20.9884,17.07561 43.2642,12.16679 66.795,13.27029 -25.0965,0.53928 -48.6257,5.22797 -66.795,-13.27029 z"
       style="fill:#000000;stroke:none" />
    <path
       sodipodi:nodetypes="ccc"
       inkscape:connector-curvature="0"
       id="path3249"
       d="m 1290.8257,376.83733 c 20.7954,14.68167 36.6336,18.82094 47.1678,11.53818 -10.802,5.32945 -22.9109,2.05111 -47.1678,-11.53818 z"
       style="fill:#000000;stroke:none" />
  </g>
  <g
     inkscape:label="Mund"
     id="layer3"
     inkscape:groupmode="layer"
     style="display:inline"
     transform="translate(-264.92542,407.35304)">
    <path
       sodipodi:nodetypes="ccc"
       inkscape:connector-curvature="0"
       id="path3164"
       d="m 1081.1471,538.32875 166.2995,39.67144 c -63.908,44.82485 -123.5712,41.07495 -166.2995,-39.67144 z"
       style="fill:#74252f;fill-opacity:1;stroke:#000000;stroke-width:1;stroke-linecap:butt;stroke-linejoin:round;stroke-miterlimit:4;stroke-opacity:1;stroke-dasharray:none" />
    <path
       sodipodi:nodetypes="ccccc"
       inkscape:connector-curvature="0"
       id="path3166"
       d="m 1081.1471,538.32875 166.2995,39.67144 c -10.3051,-22.35672 -30.5795,-39.27559 -52.4946,-55.29959 -12.3816,3.96475 -20.2349,5.38991 -30.8556,-7.21299 -28.4601,2.75132 -57.5454,1.75215 -82.9493,22.84114 z"
       style="fill:#74252f;stroke:#000000;stroke-width:1;stroke-linecap:butt;stroke-linejoin:round;stroke-miterlimit:4;stroke-opacity:1;stroke-dasharray:none;fill-opacity:1" />
    <path
       sodipodi:nodetypes="ccc"
       inkscape:connector-curvature="0"
       id="path3169"
       d="m 1178.1217,480.2241 c -3.5226,8.56584 -6.8123,28.85197 -6.8123,28.85197 0,0 6.2286,-19.05896 6.8123,-28.85197 z"
       style="fill:#000000;stroke:none" />
    <path
       style="fill:#000000;fill-opacity:1;fill-rule:nonzero;stroke:none;display:inline"
       d="m 1129.6476,549.89874 c 32.3022,12.05264 37.2342,12.88443 72.0546,17.18894 -30.1882,-11.58707 -37.3932,-13.16192 -72.0546,-17.18894 z"
       id="path3864"
       inkscape:connector-curvature="0"
       sodipodi:nodetypes="ccc" />
    <path
       style="fill:#eaf8f8;fill-opacity:1;fill-rule:nonzero;stroke:none"
       d="m 841.1792,960.49542 c 15.553,15.12229 22.70541,20.20798 40.90099,27.62326 -18.34166,-4.68816 -30.41963,-10.57597 -40.90099,-27.62326 z"
       id="path3971"
       inkscape:connector-curvature="0"
       transform="translate(264.92542,-407.35304)"
       sodipodi:nodetypes="ccc" />
    <path
       sodipodi:nodetypes="ccc"
       inkscape:connector-curvature="0"
       id="path3973"
       d="m 1177.264,583.80148 c 10.7064,-1.5074 15.4309,-3.22306 23.088,-6.07012 -7.5267,3.57747 -12.1632,7.13865 -23.088,6.07012 z"
       style="fill:#eaf8f8;fill-opacity:1;fill-rule:nonzero;stroke:none" />
    <path
       style="fill:#ffffff;fill-opacity:1;fill-rule:nonzero;stroke:none"
       d="m 1158.8502,536.04812 c -0.8037,-5.53742 1.7124,-14.44348 4.4428,-18.68018 -4.7529,3.66872 -5.6542,13.82175 -4.4428,18.68018 z"
       id="path4092"
       inkscape:connector-curvature="0"
       sodipodi:nodetypes="ccc" />
  </g>
  <g
     style="display:inline"
     inkscape:label="Augenbrauen"
     id="layer5"
     inkscape:groupmode="layer"
     transform="translate(-264.92542,407.35304)">
    <path
       sodipodi:nodetypes="ccsc"
       inkscape:connector-curvature="0"
       id="path3209"
       d="m 1042.1724,237.82763 c 69.1308,-28.27112 107.5579,29.07455 150.1771,36.26918 7.1007,-9.58688 1.0135,-24.76446 -10.7674,-29.46871 -23.7839,-9.49711 -79.0451,-52.54434 -139.4097,-6.80047 z"
       style="fill:#000000;stroke:none" />
    <path
       sodipodi:nodetypes="ccsc"
       inkscape:connector-curvature="0"
       id="path3211"
       d="m 1273.5594,295.72763 c 38.5558,2.74371 103.4591,-15.18605 124.2697,48.44626 -8.0013,-64.50818 -65.6291,-70.69748 -108.423,-66.30802 -8.6948,0.89184 -15.0986,7.58541 -15.8467,17.86176 z"
       style="fill:#000000;stroke:none" />
  </g>
  <g
     style="display:inline"
     inkscape:label="Nase"
     id="layer4"
     inkscape:groupmode="layer"
     transform="translate(-264.92542,407.35304)">
    <path
       sodipodi:nodetypes="aaca"
       inkscape:connector-curvature="0"
       id="path3173"
       d="m 1154.0784,459.38658 c -1.3991,-5.24439 4.527,-13.75492 9.8924,-12.9341 7.0651,1.08085 8.9348,12.96397 7.3386,20.14709 -8.8182,-6.60508 -15.626,-1.19683 -17.231,-7.21299 z"
       style="fill:#000000;stroke:none" />
    <path
       sodipodi:nodetypes="caac"
       inkscape:connector-curvature="0"
       id="path3175"
       d="m 1200.1615,473.81256 c 2.17,-8.18086 8.0269,-15.31945 14.2089,-13.32992 4.959,1.59594 6.5577,11.50756 3.022,15.33352 -3.9244,4.24668 -8.5137,-6.78279 -17.2309,-2.0036 z"
       style="fill:#000000;stroke:none" />
    <path
       sodipodi:nodetypes="ccc"
       inkscape:connector-curvature="0"
       id="path3177"
       d="m 1145.1939,420.1846 c -15.2854,13.18072 -22.4508,34.15329 -4.74,43.20919 -14.6408,-10.63242 -7.3729,-27.44201 4.74,-43.20919 z"
       style="fill:#000000;stroke:none" />
    <path
       sodipodi:nodetypes="ccc"
       inkscape:connector-curvature="0"
       id="path3179"
       d="m 1220.5982,483.42988 c 15.4772,0.64219 24.0009,-16.66245 12.2528,-44.45163 9.0612,35.83891 -3.5094,40.36782 -12.2528,44.45163 z"
       style="fill:#000000;stroke:none" />
    <path
       sodipodi:nodetypes="ccc"
       inkscape:connector-curvature="0"
       id="path3181"
       d="m 1262.4751,301.62829 c -14.1834,8.27916 -17.4161,16.90797 -20.1221,26.22933 0.8099,-9.98937 7.2726,-21.96391 20.1221,-26.22933 z"
       style="fill:#000000;stroke:none" />
    <path
       sodipodi:nodetypes="ccc"
       inkscape:connector-curvature="0"
       id="path3204"
       d="m 1193.2065,284.39725 c 4.481,17.6513 4.017,17.60284 0.6028,30.6373 1.422,-12.21099 1.7735,-11.81359 -0.6028,-30.6373 z"
       style="fill:#000000;stroke:none" />
    <path
       style="fill:#000000;fill-opacity:1;fill-rule:nonzero;stroke:none"
       d="m 1158.4947,429.37463 c 4.6394,-13.73869 35.0409,4.45253 55.1188,5.05534 -21.5923,-2.21635 -52.0118,-20.10367 -55.1188,-5.05534 z"
       id="path4511"
       inkscape:connector-curvature="0"
       sodipodi:nodetypes="ccc" />
  </g>
  <g
     inkscape:groupmode="layer"
     id="layer15"
     inkscape:label="Kleid hinter Hand"
     style="display:inline"
     transform="translate(-264.92542,407.35304)">
    <path
       style="fill:#2d2c23;stroke:#ffffff;stroke-width:1;stroke-linecap:butt;stroke-linejoin:round;stroke-miterlimit:4;stroke-opacity:1;stroke-dasharray:none;fill-opacity:1"
       d="m 685.53125,492.5 c 0.0729,0.1773 0.13032,0.36767 0.15625,0.59375 1.95398,17.03446 -10.09905,45.69913 -13.65625,68.8125 C 659.88616,640.82033 648.45296,735.13946 645.875,800 l 112.9375,0 c 0,0 -0.578,-16.02008 -2.25,-23.8125 -5.013,-23.36331 -18.42168,-44.40988 -23.09375,-67.84375 -3.52534,-17.68203 -0.57085,-36.21989 -3.5625,-54 C 720.62817,599.20191 685.58404,492.66051 685.53125,492.5 z"
       id="path3713"
       inkscape:connector-curvature="0" />
  </g>
  <g
     inkscape:groupmode="layer"
     id="layer14"
     inkscape:label="Finger"
     style="display:inline"
     transform="translate(-264.92542,407.35304)">
    <path
       style="fill:#7b8085;stroke:#000000;stroke-width:1;stroke-linecap:butt;stroke-linejoin:round;stroke-miterlimit:4;stroke-opacity:1;stroke-dasharray:none;fill-opacity:1"
       d="m 820.4375,386.125 c -5.35422,-0.0577 -12.05093,11.98597 -24.84375,32.09375 C 772.92121,453.85553 721.02608,486.59029 684.75,508.5 681.92383,524.71275 674.6608,544.8204 672.03125,561.90625 659.88616,640.82033 648.45296,735.13946 645.875,800 l 121.4375,0 c 50.06123,-36.97837 96.38374,-82.51731 140.5625,-125.8125 2.36136,-8.16381 26.7045,-27.23109 15.59375,-39.6875 -6.71051,-7.52323 -19.125,7.71875 -19.125,7.71875 0,0 -23.10151,-8.24242 -37.84375,1.9375 -56.40204,38.94716 -83.83885,94.80322 -138.85275,70.87982 -38.48999,-16.73779 -20.71549,-41.36788 -22.24742,-90.98162 35.31507,-1.51587 77.50504,-15.71164 99.78767,-35.5232 22.28262,-19.81156 -5.02092,-24.88908 -5,-24.84375 8.36158,-8.31729 14.19403,-8.24314 24.90095,-15.55528 -27.53061,1.70833 -37.29819,0.9688 -54.3697,13.55528 l -21.53125,5.40625 c 21.13303,-34.9881 67.3417,-76.10715 97.46875,-113.34375 20.49126,-20.9096 24.78574,-35.96203 12.15625,-45 -3.11407,-2.2285 10.38972,-12.44246 6.75,-12.46875 -10.90239,-0.0788 -29.70403,25.98846 -37.34375,36.34375 4.07783,-7.73668 -0.26203,-21.50649 -7.25,-23.46875 1.32976,-7.02892 4.54246,-22.26858 -0.0312,-23 -0.17011,-0.0272 -0.32728,-0.0294 -0.5,-0.0312 z"
       id="path3652"
       inkscape:connector-curvature="0"
       sodipodi:nodetypes="cscscccscsscscccccssccccc" />
    <path
       style="fill:#000000;stroke:none"
       d="m 672.79915,570.69032 c 17.97698,3.36269 53.7339,0.65657 74.62324,-2.50745 -20.47138,4.52843 -57.78069,6.71775 -74.62324,2.50745 z"
       id="path3656"
       inkscape:connector-curvature="0"
       sodipodi:nodetypes="ccc" />
    <path
       style="fill:#000000;stroke:none"
       d="m 665.03297,619.98614 c 7.05975,4.19121 31.23573,4.08261 36.8707,3.58218 -6.16796,-1.00128 -31.06823,-1.48447 -36.8707,-3.58218 z"
       id="path3658"
       inkscape:connector-curvature="0"
       sodipodi:nodetypes="ccc" />
    <path
       style="fill:#000000;stroke:none"
       d="M 826.42442,437.84539 C 828.44189,448.46456 718.62217,560.95147 704.07671,571.93967 717.89026,559.56693 827.33299,448.66681 826.42442,437.84539 z"
       id="path3660"
       inkscape:connector-curvature="0"
       sodipodi:nodetypes="ccc" />
    <path
       style="fill:#7b8085;stroke:#000000;stroke-width:1;stroke-linecap:butt;stroke-linejoin:round;stroke-miterlimit:4;stroke-opacity:1;stroke-dasharray:none;fill-opacity:1"
       d="m 657.09375,671.3125 c -2.23162,18.81366 -4.23166,37.38381 -5.9375,55.25 33.44743,8.51223 63.94051,23.6362 99.15625,37.15625 8.0013,0.45191 19.95467,0.87553 24.9375,-6.21875 9.3301,2.08621 18.66333,4.16541 29.46875,-1.125 -0.53353,-10.56553 -24.57419,-19.1807 -41.9375,-28.34375 -34.30094,-15.16798 -69.97834,-35.91785 -105.6875,-56.71875 z"
       id="path3707"
       inkscape:connector-curvature="0" />
    <path
       style="fill:#000000;stroke:none"
       d="m 765.61984,731.57025 c -13.81854,-0.98816 -19.60631,16.78373 7.08383,24.93507 -27.53643,-3.91669 -24.7374,-28.62458 -7.08383,-24.93507 z"
       id="path3662"
       inkscape:connector-curvature="0"
       sodipodi:nodetypes="ccc" />
    <path
       style="fill:#000000;stroke:none"
       d="m 909.49233,668.59504 c 4.58087,-12.3967 6.72823,-21.7786 -3.29503,-25.39656 8.77642,5.23398 5.87547,13.26127 3.29503,25.39656 z"
       id="path3664"
       inkscape:connector-curvature="0"
       sodipodi:nodetypes="ccc" />
    <path
       style="fill:#000000;stroke:none"
       d="m 772.70366,563.40023 c 8.47314,2.01093 22.42819,1.09012 26.21016,0.70839 -3.58562,1.04648 -18.90819,1.94671 -26.21016,-0.70839 z"
       id="path3666"
       inkscape:connector-curvature="0"
       sodipodi:nodetypes="ccc" />
    <path
       style="fill:#000000;stroke:none"
       d="m 818.87474,408.29457 c -6.81227,-2.37294 -14.82671,2.77378 -22.24006,10.01804 7.60199,-8.59961 15.59983,-13.44801 22.24006,-10.01804 z"
       id="path3668"
       inkscape:connector-curvature="0"
       sodipodi:nodetypes="ccc" />
    <path
       style="fill:#000000;stroke:none"
       d="m 842.81786,415.80809 c 3.24001,-2.99744 11.09664,-9.86727 14.12544,-7.91425 -4.40459,-0.63652 -10.72002,5.20407 -14.12544,7.91425 z"
       id="path3670"
       inkscape:connector-curvature="0"
       sodipodi:nodetypes="ccc" />
  </g>
  <g
     inkscape:groupmode="layer"
     id="layer20"
     inkscape:label="Fingernägel"
     style="display:inline">
    <path
       style="fill:#ffffff;fill-opacity:0.50196078;fill-rule:nonzero;stroke:none"
       d="m 503.08244,1139.4603 c -10.10729,-2.4503 -27.29878,9.9648 1.07439,22.8307 12.42522,3.7076 27.20334,6.0794 35.45481,0.5373 -2.67137,-5.6433 -9.91866,-13.5002 -36.5292,-23.368 z"
       id="path4212"
       inkscape:connector-curvature="0"
       sodipodi:nodetypes="cccc" />
    <path
       sodipodi:nodetypes="cccc"
       inkscape:connector-curvature="0"
       id="path4214"
       d="m 505.77497,969.84151 c 8.18747,3.47544 23.13231,1.92857 28.73989,1.41007 4.86586,-6.41269 15.27109,-10.21312 24.44233,-15.30993 -22.52623,0.95164 -40.58981,2.04445 -53.18222,13.89986 z"
       style="fill:#ffffff;fill-opacity:0.50196078;fill-rule:nonzero;stroke:none" />
    <path
       style="fill:#ffffff;fill-opacity:0.50196078;fill-rule:nonzero;stroke:none"
       d="m 531.64316,825.33162 c 6.14929,-4.96779 13.877,-14.18469 23.75431,-9.22583 1.34395,-6.90946 4.42584,-19.47726 0.98636,-21.76744 -5.58165,-3.13714 -18.05701,21.04693 -24.74067,30.99327 z"
       id="path4216"
       inkscape:connector-curvature="0"
       sodipodi:nodetypes="cccc" />
    <path
       sodipodi:nodetypes="cccc"
       inkscape:connector-curvature="0"
       id="path4218"
       d="m 576.57354,824.01924 c 5.7479,-4.95866 11.98927,-11.00719 16.16644,-8.68863 1.66861,-6.42247 9.49265,-9.8138 7.63414,-11.15786 -4.53855,-0.25877 -17.13021,9.15873 -23.80058,19.84649 z"
       style="fill:#ffffff;fill-opacity:0.50196078;fill-rule:nonzero;stroke:none" />
    <path
       sodipodi:nodetypes="cccc"
       inkscape:connector-curvature="0"
       id="path4220"
       d="m 643.60504,1078.7415 c 6.25512,-10.2884 22.0623,-23.6189 15.63494,-34.9133 -3.17491,-6.086 -10.98813,-3.7814 -19.24086,6.1516 6.12876,2.202 13.5906,5.1461 3.60592,28.7617 z"
       style="fill:#ffffff;fill-opacity:0.50196078;fill-rule:nonzero;stroke:none" />
  </g>
  <g
     inkscape:label="Kleid Hand"
     id="layer13"
     inkscape:groupmode="layer"
     style="display:inline"
     transform="translate(-264.92542,407.35304)">
    <path
       sodipodi:nodetypes="cssscsacc"
       inkscape:connector-curvature="0"
       id="path3091"
       d="m 386.55167,800 c 34.88774,-54.05207 54.0285,-75.3156 80.29502,-110.06828 5.97744,-7.90862 21.57913,-3.26432 28.33804,-11.35651 4.65944,-5.57858 14.58009,-27.37895 19.59242,-32.89289 19.34044,-21.27596 26.54492,-35.51267 51.09479,-65.40756 18.93665,-14.86476 118.1605,-101.65417 119.82021,-87.18512 1.95398,17.03446 -10.10421,45.70015 -13.66141,68.81352 C 659.88565,640.81724 648.44946,735.13946 645.8715,800 c -86.43994,0 -172.87989,0 -259.31983,0 z"
       style="fill:#4b452f;stroke:#000000;stroke-width:1;stroke-linecap:butt;stroke-linejoin:round;stroke-miterlimit:4;stroke-opacity:1;stroke-dasharray:none;fill-opacity:1" />
    <path
       sodipodi:nodetypes="cc"
       inkscape:connector-curvature="0"
       id="path3094"
       d="m 558.46032,594.09811 c -11.0316,69.28145 -13.80555,138.56291 -14.56853,207.84436"
       style="fill:#000000;stroke:none" />
    <path
       sodipodi:nodetypes="ccc"
       inkscape:connector-curvature="0"
       id="path3096"
       d="m 518.63967,700.93399 c -14.42061,34.9647 -21.856,66.17391 -47.59053,99.06601 17.80598,-34.31698 29.78455,-64.74903 47.59053,-99.06601 z"
       style="fill:#000000;stroke:none" />
    <path
       sodipodi:nodetypes="ccc"
       inkscape:connector-curvature="0"
       id="path3098"
       d="m 469.8351,692.67849 c 13.49711,10.63985 43.30443,24.79341 25.98054,-8.98392 -7.6857,4.29287 -15.62713,7.11596 -25.98054,8.98392 z"
       style="fill:#000000;stroke:none" />
    <path
       sodipodi:nodetypes="ccc"
       inkscape:connector-curvature="0"
       id="path3100"
       d="m 557.66356,590.48722 c 49.9662,-12.4549 102.18277,-59.72383 117.8844,-45.1553 -8.92196,-24.02699 -66.62962,38.78712 -117.8844,45.1553 z"
       style="fill:#000000;stroke:none" />
    <path
       style="fill:#000000;stroke:none"
       d="m 543.96752,795.59322 c 49.9662,-12.4549 88.41435,-47.87459 104.11598,-33.30606 -8.92196,-24.02699 -52.8612,26.93788 -104.11598,33.30606 z"
       id="path3102"
       inkscape:connector-curvature="0"
       sodipodi:nodetypes="ccc" />
    <g
       id="g3554"
       style="fill:#000000;stroke:none">
      <path
         id="path3556"
         style="fill:#000000;stroke:none"
         d="m 671.87895,562.8905 c -8.92196,-24.02699 -64.16429,38.01827 -115.41907,44.38645 49.9662,-12.4549 99.71744,-58.95498 115.41907,-44.38645 z"
         inkscape:connector-curvature="0"
         sodipodi:nodetypes="ccc" />
      <path
         id="path3558"
         style="fill:#000000;stroke:none"
         d="m 669.31691,579.87689 c -8.92196,-24.02699 -63.89721,37.97829 -115.15199,44.34647 49.9662,-12.4549 99.45036,-58.915 115.15199,-44.34647 z"
         inkscape:connector-curvature="0"
         sodipodi:nodetypes="ccc" />
      <path
         id="path3560"
         style="fill:#000000;stroke:none"
         d="m 666.67123,598.08948 c -8.92196,-24.02699 -63.3732,37.80937 -114.62798,44.17755 49.9662,-12.4549 98.92636,-58.74608 114.62798,-44.17755 z"
         inkscape:connector-curvature="0"
         sodipodi:nodetypes="ccc" />
      <path
         id="path3562"
         style="fill:#000000;stroke:none"
         d="m 664.00781,617.18581 c -8.92196,-24.02699 -62.43192,35.77046 -113.6867,42.13864 49.9662,-12.4549 97.98507,-56.70717 113.6867,-42.13864 z"
         inkscape:connector-curvature="0"
         sodipodi:nodetypes="ccc" />
      <path
         id="path3564"
         style="fill:#000000;stroke:none"
         d="m 661.82945,633.44797 c -8.92196,-24.02699 -61.71819,37.47092 -112.99802,43.21297 49.94116,-13.08102 97.29639,-57.7815 112.99802,-43.21297 z"
         inkscape:connector-curvature="0"
         sodipodi:nodetypes="ccc" />
      <path
         id="path3566"
         style="fill:#000000;stroke:none"
         d="m 659.41204,652.28592 c -8.92196,-24.02699 -60.41244,34.98128 -111.7674,40.77343 49.86602,-13.03095 96.06577,-55.34196 111.7674,-40.77343 z"
         inkscape:connector-curvature="0"
         sodipodi:nodetypes="ccc" />
      <path
         id="path3568"
         style="fill:#000000;stroke:none"
         d="m 657.23652,670.09144 c -8.92196,-24.02699 -59.35715,35.70546 -110.68707,41.32229 49.89107,-13.20625 94.98544,-55.89082 110.68707,-41.32229 z"
         inkscape:connector-curvature="0"
         sodipodi:nodetypes="ccc" />
      <path
         id="path3570"
         style="fill:#000000;stroke:none"
         d="m 655.29121,686.86107 c -8.92196,-24.02699 -58.33478,36.47458 -109.58956,42.29177 49.9662,-13.0059 93.88793,-56.8603 109.58956,-42.29177 z"
         inkscape:connector-curvature="0"
         sodipodi:nodetypes="ccc" />
      <path
         id="path3572"
         style="fill:#000000;stroke:none"
         d="m 652.91068,708.81505 c -8.92195,-24.02699 -56.63543,33.05327 -107.89021,38.59496 49.9662,-13.28139 92.18859,-53.16349 107.89021,-38.59496 z"
         inkscape:connector-curvature="0"
         sodipodi:nodetypes="ccc" />
      <path
         id="path3574"
         style="fill:#000000;stroke:none"
         d="m 651.30392,724.85674 c -8.92196,-24.02699 -55.43658,33.73577 -106.7665,39.60305 49.89107,-12.9558 91.06487,-54.17158 106.7665,-39.60305 z"
         inkscape:connector-curvature="0"
         sodipodi:nodetypes="ccc" />
      <path
         id="path3576"
         style="fill:#000000;stroke:none"
         d="m 649.68675,742.47413 c -8.92196,-24.02699 -55.09243,32.68066 -105.49366,38.35604 50.81975,-13.14771 89.79203,-52.92457 105.49366,-38.35604 z"
         inkscape:connector-curvature="0"
         sodipodi:nodetypes="ccc" />
    </g>
    <path
       style="fill:#000000;stroke:none"
       d="m 582.72648,566.38193 c 49.9662,-12.4549 82.20619,-54.62484 97.90782,-40.05631 -8.92196,-24.02699 -46.65304,33.68813 -97.90782,40.05631 z"
       id="path3643"
       inkscape:connector-curvature="0"
       sodipodi:nodetypes="ccc" />
    <path
       sodipodi:nodetypes="ccc"
       inkscape:connector-curvature="0"
       id="path3645"
       d="m 610.78617,543.06577 c 27.29796,-7.35455 57.86807,-46.94948 73.5697,-32.38095 -8.92196,-24.02699 -50.65022,31.11312 -73.5697,32.38095 z"
       style="fill:#000000;stroke:none" />
    <path
       sodipodi:nodetypes="ccc"
       inkscape:connector-curvature="0"
       id="path3647"
       d="m 579.60689,800 c 31.65892,-7.89151 57.50736,-32.1222 67.45602,-22.89148 C 639.4811,758.85722 612.08227,795.96508 579.60689,800 z"
       style="fill:#000000;stroke:none" />
    <path
       style="fill:#000000;stroke:none"
       d="m 610.98912,800 c 15.38579,-3.83516 30.5426,-15.2691 35.37751,-10.7831 -3.82204,-14.10587 -19.59493,8.82219 -35.37751,10.7831 z"
       id="path3649"
       inkscape:connector-curvature="0"
       sodipodi:nodetypes="ccc" />
  </g>
  <g
     inkscape:groupmode="layer"
     id="layer19"
     inkscape:label="Schatten 1"
     style="display:inline">
    <path
       style="fill:#000000;fill-opacity:0.25098039;fill-rule:nonzero;stroke:none;display:inline"
       d="m 663.22942,762.08083 c 4.56739,34.32004 14.50239,71.8835 19.09581,103.7736 6.53124,45.34355 76.26904,63.86192 75.82934,-4.93448 -0.24059,-37.64286 -68.98247,-76.77339 -94.92515,-98.83912 z"
       id="path3904"
       inkscape:connector-curvature="0"
       sodipodi:nodetypes="cssc" />
    <path
       inkscape:connector-curvature="0"
       style="fill:#000000;fill-opacity:0.25098039;fill-rule:nonzero;stroke:none;display:inline"
       d="m 678.96875,952.84375 c 3.23958,38.29168 3.70245,88.28305 9.71875,114.87505 3.86538,13.8844 46.71981,90.6444 79.84375,105.8124 l 115.03125,33.8126 83.9375,0 32.5312,-27.6876 c 1.8281,-26.1151 4.8852,-52.2285 7.3438,-78.3437 10e-4,-0.011 -10e-4,-0.021 0,-0.031 l -1.6875,-0.7812 c -0.3767,0.3013 -0.7461,0.6084 -1.125,0.9062 -0.6014,0.4728 -1.2055,0.9425 -1.8125,1.4063 -0.01,0.01 -0.025,-0.01 -0.031,0 -0.9824,0.7501 -1.9722,1.4929 -2.9688,2.2187 -1.00303,0.7305 -2.01423,1.4514 -3.03125,2.1563 -1.01898,0.7063 -2.02993,1.414 -3.0625,2.0937 -2.06078,1.3568 -4.16902,2.6605 -6.28125,3.9063 -2.11224,1.2458 -4.24613,2.4346 -6.40625,3.5625 -0.77231,0.4033 -1.53438,0.7999 -2.3125,1.1875 -0.31292,0.156 -0.62366,0.3153 -0.9375,0.4687 -0.17624,0.086 -0.35472,0.1648 -0.53125,0.25 -2.01139,0.9716 -4.0465,1.8875 -6.09375,2.75 -1.12457,0.4739 -2.24025,0.9354 -3.375,1.375 -0.97321,0.3771 -1.95712,0.7425 -2.9375,1.0938 -0.14609,0.052 -0.29125,0.1044 -0.4375,0.1562 -1.03401,0.3661 -2.08341,0.7258 -3.125,1.0626 -0.0941,0.03 -0.18712,0.063 -0.28125,0.094 -1.09439,0.3508 -2.17893,0.6824 -3.28125,1 -1.20131,0.3464 -2.41472,0.6628 -3.625,0.9687 -2.09343,0.5293 -4.17279,1.0186 -6.28125,1.4688 -1.06412,0.2274 -2.11983,0.4487 -3.1875,0.6562 -3.17313,0.6168 -6.36136,1.1498 -9.5625,1.5938 -1.06705,0.148 -2.14896,0.2771 -3.21875,0.4062 -2.12938,0.2567 -4.2671,0.4734 -6.40625,0.6563 -3.23434,0.277 -6.46623,0.4819 -9.71875,0.5937 -3.24222,0.1115 -6.46345,0.1422 -9.71875,0.094 -0.031,-5e-4 -0.0628,5e-4 -0.0937,0 -2.13928,-0.033 -4.29438,-0.1185 -6.4375,-0.2188 -2.17417,-0.1016 -4.35458,-0.2364 -6.53125,-0.4062 -1.07804,-0.084 -2.17161,-0.1806 -3.25,-0.2812 -0.0103,0 -0.0209,9e-4 -0.0312,0 -0.22872,-0.021 -0.45877,-0.04 -0.6875,-0.063 -8.4707,-0.8199 -16.96591,-2.145 -25.40625,-3.9374 -4.32953,-0.9195 -8.66448,-1.9646 -12.96875,-3.125 -0.01,0 -0.0216,0 -0.0312,0 -6.45826,-1.742 -12.88164,-3.7442 -19.25,-6 -0.0126,0 -0.0187,-0.027 -0.0312,-0.031 -3.64038,-1.2907 -7.27421,-2.6752 -10.875,-4.125 -0.5926,-0.2385 -1.18984,-0.476 -1.78125,-0.7187 -0.009,0 -0.0224,0 -0.0312,0 -4.19014,-1.7204 -8.34498,-3.543 -12.46875,-5.4688 -0.008,0 -0.0228,0 -0.0312,0 -4.12384,-1.9264 -8.20428,-3.9721 -12.25,-6.0938 -0.008,0 -0.0231,0 -0.0312,0 -0.70605,-0.3703 -1.39029,-0.7801 -2.09375,-1.1562 -2.60075,-1.3908 -5.18666,-2.8134 -7.75,-4.2812 -0.71613,-0.4101 -1.4432,-0.8029 -2.15625,-1.2188 -0.008,0 -0.0235,0 -0.0312,0 -1.18412,-0.6908 -2.35587,-1.4182 -3.53125,-2.125 -0.79355,-0.4773 -1.58555,-0.953 -2.375,-1.4375 -5.85864,-3.5945 -11.60852,-7.3728 -17.21875,-11.3437 -0.0118,-0.01 -0.0194,-0.023 -0.0312,-0.031 -1.87382,-1.3267 -3.71935,-2.6651 -5.5625,-4.0313 -1.50493,-1.1154 -2.9927,-2.2228 -4.4375,-3.3437 -0.95167,-0.7384 -1.85515,-1.509 -2.78125,-2.25 -0.48643,-0.3892 -0.98929,-0.7663 -1.46875,-1.1563 -1.36053,-1.1064 -2.69469,-2.1996 -4,-3.3124 -0.0286,-0.024 -0.0651,-0.038 -0.0937,-0.063 -1.2924,-1.103 -2.54174,-2.2339 -3.78125,-3.3437 -0.0389,-0.035 -0.0861,-0.059 -0.125,-0.094 -0.80996,-0.7264 -1.58721,-1.4581 -2.375,-2.1876 -0.4529,-0.4193 -0.92934,-0.8295 -1.375,-1.25 -1.21854,-1.1495 -2.39709,-2.3107 -3.5625,-3.4687 -1.11007,-1.103 -2.21811,-2.2014 -3.28125,-3.3125 -0.0566,-0.059 -0.0997,-0.1283 -0.15625,-0.1875 -1.04942,-1.0997 -2.08902,-2.2044 -3.09375,-3.3125 -0.0651,-0.072 -0.12262,-0.1469 -0.1875,-0.2188 -1.00018,-1.1067 -1.94935,-2.1968 -2.90625,-3.3124 -0.0288,-0.034 -0.065,-0.06 -0.0937,-0.094 -0.97966,-1.144 -1.93953,-2.3148 -2.875,-3.4688 -0.0698,-0.086 -0.14914,-0.1637 -0.21875,-0.25 -0.81899,-1.0143 -1.62038,-2.04 -2.40625,-3.0624 -0.0807,-0.105 -0.16967,-0.2075 -0.25,-0.3126 -0.47335,-0.6189 -0.91348,-1.2529 -1.375,-1.875 -0.50209,-0.6767 -1.01169,-1.3507 -1.5,-2.0312 -0.79821,-1.1123 -1.58147,-2.2212 -2.34375,-3.3438 -0.077,-0.1133 -0.14212,-0.2302 -0.21875,-0.3437 -0.74983,-1.1104 -1.47162,-2.2229 -2.1875,-3.3437 -0.0813,-0.1274 -0.16911,-0.2476 -0.25,-0.375 -0.68639,-1.0816 -1.3441,-2.1583 -2,-3.25 -0.024,-0.04 -0.0386,-0.085 -0.0625,-0.125 -0.55492,-0.9256 -1.12259,-1.8482 -1.65625,-2.7813 -0.2076,-0.363 -0.42055,-0.7295 -0.625,-1.0937 -0.34187,-0.609 -0.66684,-1.2315 -1,-1.8438 -0.42405,-0.7795 -0.83978,-1.5587 -1.25,-2.3438 -0.58825,-1.1251 -1.15812,-2.2382 -1.71875,-3.375 -0.0247,-0.05 -0.0378,-0.106 -0.0625,-0.1562 -0.48581,-0.9876 -0.97182,-1.9721 -1.4375,-2.9688 -0.1361,-0.2912 -0.27184,-0.5829 -0.40625,-0.875 -0.37204,-0.8084 -0.7344,-1.6229 -1.09375,-2.4374 -0.26235,-0.5949 -0.52552,-1.1832 -0.78125,-1.7813 -0.51435,-1.2026 -1.01163,-2.4399 -1.5,-3.6563 -0.4171,-1.03881 -0.85116,-2.07578 -1.25,-3.12495 -0.17462,-0.45964 -0.36004,-0.91334 -0.53125,-1.375 -0.45068,-1.21446 -0.85352,-2.42757 -1.28125,-3.65625 -0.08,-0.22977 -0.17081,-0.45722 -0.25,-0.6875 -0.39361,-1.1445 -0.78148,-2.31157 -1.15625,-3.46875 -0.0809,-0.24991 -0.16995,-0.49949 -0.25,-0.75 -0.36781,-1.15062 -0.71229,-2.30527 -1.0625,-3.46875 -0.31239,-1.03782 -0.60729,-2.07671 -0.90625,-3.125 -0.17222,-0.60391 -0.36334,-1.20506 -0.53125,-1.8125 -0.0742,-0.26848 -0.14537,-0.54332 -0.21875,-0.8125 -0.33854,-1.24176 -0.64727,-2.49322 -0.96875,-3.75 -0.29652,-1.15899 -0.59228,-2.32793 -0.875,-3.5 -0.71481,-2.96333 -1.39677,-5.94988 -2.03125,-9 -0.31551,-1.51674 -0.60852,-3.05471 -0.90625,-4.59375 -0.29168,-1.50778 -0.59907,-3.03278 -0.875,-4.5625 z"
       id="path3906"
       sodipodi:nodetypes="ccccccccccccsccsccccccccccccccsccccccccccccccccccccccccccccccccscccccccscccccccccccccccccccscccccccccccccccsccccssscc" />
    <path
       style="fill:#000000;fill-opacity:0.25098039;fill-rule:nonzero;stroke:none;display:inline"
       d="m 982.53125,985.34375 c -37.74605,26.47495 -74.01765,36.02115 -106.1875,22.75005 46.58169,30.6449 120.33617,46.1924 106.1875,-22.75005 z"
       id="path3926"
       inkscape:connector-curvature="0" />
    <path
       style="fill:#000000;fill-opacity:0.25098039;fill-rule:nonzero;stroke:none;display:inline"
       d="m 1133.6562,889.0625 c -29.7581,6.71411 -62.32,12.5306 -84.8437,34.90625 -14.8531,15.58003 -17.2589,38.31213 -16.4375,58.78125 -7.2843,42.0984 -64.64628,134.7943 -104.12442,122.7155 -25.29482,-7.7392 -76.5269,-19.2191 -102.33674,-16.118 -20.77798,2.4965 -32.37937,4.6776 -44.10134,6.1837 22.48924,13.1127 46.52701,23.2979 71.03125,29.6563 9.46187,1.8635 19.7277,3.8464 31,5.9375 0.0206,0 0.0419,0 0.0625,0 1.68883,0.2027 3.37405,0.3997 5.0625,0.5625 0.21842,0.021 0.43784,0.042 0.65625,0.062 2.17765,0.2032 4.35562,0.3645 6.53125,0.5 0.37647,0.024 0.74861,0.041 1.125,0.062 2.87276,0.1634 5.75904,0.27 8.625,0.3125 0.0622,9e-4 0.12525,-9e-4 0.1875,0 2.73966,0.038 5.45702,0.013 8.1875,-0.062 0.2098,-0.01 0.41526,0.01 0.625,0 0.25003,-0.01 0.50006,-0.023 0.75,-0.031 1.21715,-0.042 2.44142,-0.091 3.65625,-0.1562 0.33497,-0.018 0.66522,-0.043 1,-0.062 0.60707,-0.036 1.20607,-0.084 1.8125,-0.125 1.07686,-0.073 2.17533,-0.1581 3.25,-0.25 0.90101,-0.077 1.81939,-0.1596 2.71875,-0.25 1.45762,-0.1465 2.89081,-0.319 4.34375,-0.5 1.45294,-0.181 2.92717,-0.3778 4.375,-0.5937 1.44783,-0.216 2.87023,-0.4362 4.3125,-0.6876 1.44227,-0.2513 2.87623,-0.5254 4.3125,-0.8124 0.76902,-0.1538 1.5453,-0.3048 2.3125,-0.4688 0.66815,-0.1427 1.33331,-0.2869 2,-0.4375 1.42983,-0.3232 2.8583,-0.6715 4.28125,-1.0313 2.88828,-0.7301 5.75807,-1.5759 8.59375,-2.5312 4.25353,-1.4329 8.44703,-3.0982 12.5625,-5 2.74365,-1.2679 5.45146,-2.6343 8.125,-4.0938 2.67354,-1.4594 5.30983,-3.0185 7.90625,-4.6562 2.59642,-1.6377 5.14395,-3.3537 7.65625,-5.1562 3.7684,-2.7038 7.4405,-5.5881 11,-8.625 4.7403,-4.0445 9.3042,-8.3645 13.625,-12.9063 0.01,-0.01 -0.01,-0.026 0,-0.031 3.2386,-3.405 6.3684,-6.9305 9.3438,-10.5624 0.01,-0.01 -0.01,-0.025 0,-0.031 0.4382,-0.5351 0.849,-1.0855 1.2812,-1.625 1.5218,-1.9002 3.0235,-3.7997 4.4688,-5.75 0.01,-0.012 0.023,-0.02 0.031,-0.031 2.7854,-3.758 5.4232,-7.5902 7.9062,-11.5 0,-0.01 0,-0.024 0,-0.031 0.8243,-1.2983 1.6483,-2.5945 2.4376,-3.9062 0,-0.01 0,-0.024 0,-0.031 2.3733,-3.9459 4.5846,-7.9626 6.625,-12 0.01,-0.013 0.025,-0.019 0.031,-0.031 1.3637,-2.6999 2.6377,-5.4008 3.8438,-8.125 5.3214,-12.0195 10.5608,-22.8032 15.6562,-32.68745 0,-0.008 0,-0.0228 0,-0.0312 0.5827,-1.13025 1.1706,-2.17406 1.75,-3.28125 2.797,-5.34549 5.5365,-10.49882 8.25,-15.375 0.01,-0.0127 0.024,-0.0186 0.031,-0.0312 8.1978,-14.72779 15.9796,-27.55958 23.25,-40.0625 2.9082,-5.00264 5.7368,-9.94433 8.4688,-14.9375 2.049,-3.74487 4.0267,-7.50676 5.9688,-11.34375 1.2946,-2.55758 2.5678,-5.15165 3.8124,-7.78125 1.2447,-2.62986 2.4636,-5.30477 3.6563,-8.03125 0.5963,-1.36319 1.1983,-2.73296 1.7813,-4.125 0.5271,-1.25902 1.0429,-2.51834 1.5624,-3.78125 z"
       id="path3884"
       inkscape:connector-curvature="0"
       sodipodi:nodetypes="cccsscccccccccccccccccsscccccccscscccccccccccccccsccccccscscccc" />
    <path
       style="fill:#000000;fill-opacity:0.25098039;fill-rule:nonzero;stroke:none;display:inline"
       d="m 786.78125,693.25 c -0.0591,0.22758 -0.10052,0.46181 -0.15625,0.6875 0.52037,0.20893 0.97478,0.43526 1.34375,0.75 -0.43724,-0.50323 -0.82152,-0.96555 -1.1875,-1.4375 z m 1.25,1.5 c -0.38399,0.0172 -0.95227,0.0359 -1.625,0.0312 -0.14186,0.615 -0.25833,1.21171 -0.375,1.8125 1.80943,-0.087 3.44417,0.0912 4.46875,0.78125 -0.9256,-0.90665 -1.73695,-1.78678 -2.46875,-2.625 z m 1.90625,2.6875 c -1.04341,-0.0131 -2.5387,0.15232 -4.125,0.375 13.16863,33.27443 41.96174,38.10468 59.16146,38.79372 14.18429,0.56823 26.61463,-1.37354 29.33854,-16.54372 -3.81499,-0.32169 -8.21177,-0.0843 -13.46875,1.03125 -15.01681,3.72389 -30.25883,3.95691 -46.28125,-7.90625 -9.243,-3.6733 -18.2424,-10.16998 -23.9375,-15.71875 -0.20334,-0.0242 -0.42677,-0.028 -0.6875,-0.0312 z"
       id="path3106"
       inkscape:connector-curvature="0"
       sodipodi:nodetypes="ccccccccccscscccccs" />
    <path
       style="fill:#000000;fill-opacity:0.25098039;fill-rule:nonzero;stroke:none"
       d="m 384.76133,1149.8272 117.62575,57.5258 -121.441,0 z"
       id="path4161"
       inkscape:connector-curvature="0"
       sodipodi:nodetypes="cccc" />
    <path
       sodipodi:nodetypes="ccc"
       inkscape:connector-curvature="0"
       id="path4163"
       d="m 823.97228,685.85118 c 13.1398,-9.94623 27.9718,-2.17757 31.7656,7.10616 z"
       style="fill:#000000;fill-opacity:0.25098039;fill-rule:nonzero;stroke:none;display:inline" />
    <path
       sodipodi:nodetypes="ccc"
       inkscape:connector-curvature="0"
       id="path4165"
       d="m 1030.141,746.51571 c 4.3941,-8.71706 29.165,-13.71342 34.0327,7.37731 z"
       style="fill:#000000;fill-opacity:0.25098039;fill-rule:nonzero;stroke:none;display:inline" />
    <path
       style="fill:#000000;fill-opacity:0.25098039;stroke:none;display:inline"
       d="m 1037.4881,392.9353 c -10.3539,1.07231 -16.1573,5.59644 -14.0312,13 6.1675,21.47697 145.6747,202.67706 95.8437,308.28125 0.6171,-0.66383 -82.7059,-39.74142 -132.4062,11.5625 -23.11966,23.86561 0.59618,39.6711 36.2812,68.3125 52.1473,41.85426 124.8409,38.61616 119.6563,23.0625 13.2453,-24.28955 23.5786,-47.02458 31.4687,-68.71875 0,-0.0101 0,-0.0212 0,-0.0312 0.033,-0.18738 0.061,-0.37509 0.094,-0.5625 0.014,-0.0828 0.017,-0.16717 0.031,-0.25 0.5254,-3.01048 1.0463,-6.01554 1.5313,-9.03125 0.5284,-3.28633 1.0198,-6.58337 1.5,-9.875 0.4543,-3.11507 0.9017,-6.22476 1.3124,-9.34375 0.023,-0.17727 0.039,-0.35397 0.063,-0.53125 0.4314,-3.29599 0.8363,-6.60685 1.2187,-9.90625 0.1484,-1.28068 0.2965,-2.56265 0.4375,-3.84375 0.086,-0.78088 0.167,-1.56274 0.25,-2.34375 0.1703,-1.60322 0.3413,-3.20881 0.5,-4.8125 0.236,-2.38494 0.4461,-4.77059 0.6562,-7.15625 0.1836,-2.0839 0.3675,-4.16584 0.5313,-6.25 0.024,-0.302 0.039,-0.60424 0.062,-0.90625 0.1135,-1.46951 0.2401,-2.93674 0.3438,-4.40625 0.065,-0.91748 0.1265,-1.83252 0.1874,-2.75 0.1583,-2.38592 0.3054,-4.7708 0.4376,-7.15625 0.634,-11.44726 1.4059,-23.16149 2.0312,-35 0.4174,-7.90262 0.7656,-15.8557 0.9688,-23.8125 0.051,-1.98662 0.094,-3.95124 0.125,-5.9375 0.031,-1.98624 0.054,-3.98437 0.062,-5.96875 0.025,-5.89058 -0.062,-11.77696 -0.2812,-17.625 0,-0.0625 0,-0.12504 0,-0.1875 -0.075,-1.96985 -0.1734,-3.913 -0.2812,-5.875 -0.108,-1.96198 -0.2315,-3.92236 -0.375,-5.875 -0.2871,-3.90532 -0.6485,-7.79728 -1.0938,-11.65625 -0.4453,-3.85897 -0.9693,-7.69936 -1.5938,-11.5 -0.9366,-5.70095 -2.1011,-11.30772 -3.5,-16.84375 -0.4687,-1.85503 -0.9428,-3.69776 -1.4687,-5.53125 -0.5201,-1.81443 -1.0775,-3.61439 -1.6563,-5.40625 0,-0.009 0,-0.0219 0,-0.0312 -0.291,-0.9006 -0.5999,-1.79288 -0.9062,-2.6875 -1.5348,-4.48198 -3.2441,-8.86984 -5.1875,-13.1875 -0.3877,-0.86189 -0.7825,-1.70772 -1.1875,-2.5625 -0.409,-0.86318 -0.8231,-1.70676 -1.25,-2.5625 -0.4163,-0.83496 -0.8475,-1.6723 -1.2812,-2.5 -0.01,-0.0124 -0.025,-0.0189 -0.031,-0.0312 -1.3215,-2.52001 -2.6989,-4.98819 -4.1875,-7.4375 -26.8991,-44.25838 -74.9096,-75.89791 -124.875,-94.125 z"
       id="path4222"
       inkscape:connector-curvature="0" />
    <path
       sodipodi:nodetypes="ccc"
       inkscape:connector-curvature="0"
       id="path4269"
       d="m 1195.3108,419.70311 c 86.8322,-25.5679 211.3112,-22.12182 152.0015,-79.88736 34.6429,59.69415 -74.9417,44.71772 -152.0015,79.88736 z"
       style="fill:#000000;fill-opacity:0.25098039;stroke:none;display:inline" />
  </g>
  <g
     inkscape:groupmode="layer"
     id="layer10"
     inkscape:label="Schatten 2"
     style="display:inline">
    <path
       style="fill:#000000;fill-opacity:0.31456957;fill-rule:nonzero;stroke:none"
       d="m 1059.875,698.96875 c -13.3312,0.0237 -31.043,2.9195 -51.25,4.125 -14.91266,4.64344 -28.27359,18.03843 -32.32706,39.34222 l -12.11721,94.11073 c 15.27267,21.31241 19.4422,50.30558 -8.49323,57.9533 -15.64605,4.28332 -27.7876,-8.03724 -42.5,-6.9375 26.26692,31.56056 47.88923,63.86339 68.09375,95.3125 5.01271,9.58395 -59.65625,28.625 -59.65625,28.625 2.50777,-1.6227 109.6757,43.0083 63.13387,84.7815 -15.23127,13.6706 -56.64094,26.2522 -71.85262,36.3435 13.90962,-0.2814 27.67,-2.0673 41.125,-5.4688 46.21255,-11.6824 86.14065,-53.0392 105.43755,-96.625 27.5167,-62.15221 52.3576,-91.30197 70.8437,-133.56245 0.1449,-0.33117 0.2934,-0.6672 0.4375,-1 9.1509,-22.07423 17.4856,-45.03398 25.25,-70.125 0,0 -71.3372,58.10184 -92.819,51.63995 -18.4883,-5.56143 -67.6317,-81.95187 -63.96225,-122.1712 0.55425,-6.07495 19.40065,-22.65629 33.62505,-25.40625 15.5507,-3.00639 15.604,-0.63807 26.0312,1.78125 94.3165,21.88341 82.8006,-4.54844 16.2812,-30.5625 -4.0773,-1.59454 -9.2216,-2.16703 -15.2812,-2.15625 z"
       id="path3885"
       inkscape:connector-curvature="0"
       sodipodi:nodetypes="scccscccscsscccssssss" />
    <path
       style="fill:#000000;fill-opacity:0.31456957;fill-rule:nonzero;stroke:none"
       d="m 782.24345,644.20932 c 58.71909,-33.00634 118.29525,-5.80268 142.61837,30.09376 8.28203,12.22274 6.99012,24.14608 -6.38541,25.06579 -18.55338,1.27573 -23.30629,-4.30935 -27.89979,-11.82719 -20.73025,-33.9277 -91.51816,-44.36583 -108.33317,-43.33236 z"
       id="path3927"
       inkscape:connector-curvature="0"
       sodipodi:nodetypes="csssc" />
    <path
       style="fill:#000000;fill-opacity:0.25098039;fill-rule:nonzero;stroke:none;display:inline"
       d="m 823.97228,685.85118 c 13.1398,-9.94623 27.9718,-2.17757 31.7656,7.10616 z"
       id="path4517"
       inkscape:connector-curvature="0"
       sodipodi:nodetypes="ccc" />
    <path
       style="fill:#000000;fill-opacity:0.25098039;fill-rule:nonzero;stroke:none;display:inline"
       d="m 1030.141,746.51571 c 4.3941,-8.71706 29.165,-13.71342 34.0327,7.37731 z"
       id="path4519"
       inkscape:connector-curvature="0"
       sodipodi:nodetypes="ccc" />
    <path
       style="fill:#000000;fill-opacity:0.25098039;fill-rule:nonzero;stroke:none"
       d="m 1007.5938,1098.9688 c -16.06067,13.2337 -34.25945,23.3077 -53.56255,28.1874 -35.61907,9.0046 -73.51036,6.4728 -110.0625,-4.4374 -17.61685,-3.384 -49.58993,-20.2368 -49.58993,-20.2368 l -0.1433,78.6048 89.32698,26.257 83.9375,0 32.5312,-27.6876 0,-0.062 c 1.8833,-26.8746 5.072,-53.7504 7.5626,-80.625 z"
       id="path4188"
       inkscape:connector-curvature="0"
       sodipodi:nodetypes="csccccccccc" />
  </g>
</svg>
