<?xml version="1.0" encoding="UTF-8" standalone="no"?>
<svg width="100%" height="100%" viewBox="0 0 200 200" preserveAspectRatio="xMinYMin meet" version="1.2" xmlns="http://www.w3.org/2000/svg" xmlns:xlink="http://www.w3.org/1999/xlink">
<desc>evolved at www.genolve.com/svg/en/userProjects.php?userID=johnhenslow</desc>

<style type="text/css"/><defs/>
<g id="A0x20151218073110720fbc168aca593110"><!--defs-->
<g id="group_qbfz_1" origid="ornament">
<g id="group_qbfz_2" origid="all_colors">
<linearGradient id="gradient_nyyh_1" origid="top_grad">
   <stop offset=".0" stop-color="#4FA"/>
   <stop offset=".18" stop-color="#251DBC"/>
   <stop offset=".55" stop-color="#096"/>
   <stop offset="1.0" stop-color="#A3D"/>
</linearGradient>
<radialGradient cx="25%" cy="40%" r="90%" id="gradient_nyyh_2" origid="maingrad" gradientUnits="objectBoundingBox" xlink:href="#gradient_nyyh_1">
</radialGradient>
<radialGradient cx="961" cy="228" r="13" id="gradient_nyyh_3" origid="ringgrad" gradientUnits="userSpaceOnUse" gradientTransform="matrix(-0.88, 2.76, -2.92, -0.94, 1741,-2379)" xlink:href="#gradient_nyyh_1">
</radialGradient>
<radialGradient cx="25%" cy="40%" r="70%" id="gradient_nyyh_4" origid="topgrad" gradientUnits="objectBoundingBox">
   <stop offset=".0" stop-color="#FFFFFF"/>
   <stop offset=".41" stop-color="#E3C57F"/>
   <stop offset="1.0" stop-color="#C88C00"/>
</radialGradient>
<radialGradient cx="50%" cy="50%" r="90%" id="gradient_nyyh_5" origid="floral_color" gradientUnits="objectBoundingBox">
   <stop offset=".0" stop-color="#000000"/>
   <stop offset=".11" stop-color="#6C3000"/>
   <stop offset=".25" stop-color="#D4C81C"/>
   <stop offset=".68" stop-color="#70340B"/>
   <stop offset="1.0" stop-color="#000000"/>
</radialGradient>
</g>
<symbol overflow="visible" id="group_qbfz_3" origid="floral_pattern">
<g id="group_qbfz_4" transform="translate(0,0)"><!--s1-->
<path d="m464,771 c13,-3 21,-6 33,7 15,16 37,-6 15,-19 -20,-12 -34,3 -49,11 z  " id="shape_x3j9_1" fill="#CB9D19" fill-opacity="1.0">
</path> <!--s2-->
<path d="m385,334 c-22,-16 -24,-29 -20,-38 8,-1 25,10 20,38 z  " id="shape_x3j9_2" fill="#371900" fill-opacity="1.0">
</path> <!--s3-->
<path d="m397,315 c24,-20 37,-44 21,-52 -13,-7 -25,16 -21,52 z  " id="shape_x3j9_3" fill="#3A1A00" fill-opacity="1.0">
</path> <!--s4-->
<path d="m393,336 c27,3 37,-6 40,-15 -5,-6 -26,-9 -40,15 z  " id="shape_x3j9_4" fill="#3B1A00" fill-opacity="1.0">
</path> <!--s5-->
<path d="m406,780 c44,-26 86,-59 136,-70 47,-11 97,-2 138,22 34,20 63,50 74,88 6,19 6,39 2,58 -5,19 -15,37 -30,50 -10,8 -21,15 -34,17 -13,2 -26,0 -37,-7 -7,-5 -13,-12 -16,-20 -3,-8 -3,-18 1,-26 4,-8 11,-14 19,-17 4,-1 9,-2 13,-1 4,1 8,3 12,5 5,4 9,11 9,17 1,7 -1,14 -6,19 5,-6 8,-15 8,-23 0,-8 -4,-16 -10,-22 -4,-4 -9,-7 -15,-9 -6,-2 -12,-2 -18,-1 -12,2 -22,10 -28,20 -6,10 -7,23 -4,35 3,12 10,22 19,29 13,10 30,15 47,14 17,-1 32,-8 45,-19 22,-18 35,-45 37,-73 2,-28 -5,-56 -19,-81 -16,-28 -39,-52 -67,-69 -28,-17 -60,-26 -92,-28 -46,-3 -93,10 -134,32 -36,20 -68,48 -93,82 14,-7 28,-15 42,-23  " id="shape_x3j9_5" fill="#441E00" fill-opacity="1.0">
</path> <!--s6-->
<path d="m388,756 c90,-78 213,-116 333,-109 46,3 92,12 133,31 42,19 79,49 103,89 20,32 30,71 24,108 -3,19 -9,37 -19,53 -10,16 -24,30 -40,39 -18,10 -39,16 -59,13 -20,-2 -40,-12 -53,-28 -8,-10 -14,-24 -14,-37 -1,-13 3,-27 12,-38 8,-10 21,-17 35,-18 7,0 13,1 20,4 6,3 12,7 16,12 7,8 9,19 8,30 -1,11 -7,20 -16,27 10,-8 18,-20 21,-32 3,-13 0,-27 -6,-38 -5,-8 -11,-15 -19,-19 -8,-5 -17,-7 -26,-8 -18,-1 -37,6 -50,19 -13,13 -20,31 -21,50 -1,18 5,37 16,52 15,22 39,37 64,42 26,5 53,1 77,-11 37,-19 64,-56 73,-96 10,-41 3,-84 -15,-122 -26,-53 -72,-93 -126,-118 -53,-24 -113,-33 -171,-33 -86,1 -173,21 -247,66 -84,51 -149,133 -180,226 2,-30 8,-60 20,-87 27,-64 79,-115 102,-181 18,-52 15,-110 -6,-161 -21,-51 -59,-94 -106,-123 -35,-22 -76,-35 -117,-34 -21,1 -41,5 -60,14 -19,9 -35,21 -48,38 -16,21 -26,47 -25,73 1,26 11,53 30,71 13,13 30,22 49,25 18,3 38,-1 53,-11 15,-10 26,-27 28,-46 1,-9 0,-19 -3,-27 -3,-9 -9,-16 -16,-22 -10,-8 -23,-13 -36,-12 -13,0 -26,6 -35,15 8,-7 18,-11 28,-11 10,0 21,5 28,12 5,5 8,11 10,18 2,7 2,14 0,20 -3,13 -12,25 -24,31 -12,6 -26,8 -40,5 C80,514 68,506 59,496 46,480 39,459 41,439 c2,-20 10,-40 24,-56 22,-26 56,-39 90,-41 34,-1 68,9 97,26 47,27 85,69 105,120 20,51 21,108 2,159 -16,43 -44,80 -70,118 -26,38 -49,80 -52,125 -2,28 4,57 17,81 22,-82 69,-158 133,-214  " id="shape_x3j9_6" fill="url(#gradient_nyyh_5)">
</path> <!--s7-->
<path d="m872,929 c-3,6 -18,18 -27,21 -14,4 -21,-1 -23,-8 -3,-9 -1,-12 6,-14 12,-4 37,12 44,2 z  " id="shape_x3j9_7" fill="url(#gradient_nyyh_5)">
</path> <!--s8-->
<path d="m465,861 c46,-43 122,-34 175,-24 -116,-60 -324,-61 -343,96 81,16 151,-56 167,-72 z  " id="shape_x3j9_8" fill="url(#gradient_nyyh_5)">
</path> <!--s9-->
<path d="m64,709 c24,-21 41,-49 59,-76 18,-27 39,-53 69,-66 25,-12 56,-12 81,-1 25,11 45,35 52,62 3,14 3,30 -2,43 -5,14 -16,26 -29,32 -9,4 -19,5 -29,3 -10,-2 -18,-7 -24,-15 -6,-8 -8,-18 -6,-28 1,-5 3,-9 6,-13 3,-4 7,-7 12,-9 7,-3 15,-3 22,0 7,3 13,9 16,16 -3,-9 -10,-16 -19,-20 -8,-4 -18,-5 -28,-3 -6,2 -12,5 -17,10 -5,5 -8,10 -10,17 -4,13 -2,27 4,38 7,11 18,20 31,24 13,4 26,3 39,-1 18,-6 33,-20 42,-37 9,-17 11,-37 7,-56 -6,-29 -28,-54 -54,-68 -26,-14 -57,-17 -87,-14 -43,6 -84,27 -113,60 -29,32 -46,75 -47,119 9,-5 18,-11 27,-18  " id="shape_x3j9_9" fill="#301500" fill-opacity="1.0">
</path> <!--s10-->
<path d="m283,648 c5,3 13,15 14,22 2,11 -2,16 -8,17 -7,2 -10,0 -11,-5 -2,-9 11,-28 4,-34 z  " id="shape_x3j9_10" fill="#3B1A00" fill-opacity="1.0">
</path> <!--s11-->
<path d="m305,556 c-15,-19 -44,-20 -64,-19 47,-16 124,-4 122,56 -31,1 -53,-30 -58,-37 z  " id="shape_x3j9_11" fill="#A97610" fill-opacity="1.0">
</path> <!--s12-->
<path d="M299,374 C259,361 223,337 198,304 162,257 147,195 154,136 c3,-23 8,-45 19,-65 11,-20 27,-38 47,-48 16,-9 36,-13 54,-9 9,2 18,6 25,11 8,5 14,13 18,21 5,9 7,20 5,30 -2,10 -7,19 -16,25 -5,4 -12,6 -19,6 -7,0 -13,-3 -18,-7 -5,-5 -8,-11 -8,-18 0,-3 1,-7 2,-10 2,-3 4,-6 7,-7 4,-3 10,-4 15,-3 5,1 10,4 13,9 -4,-5 -9,-9 -15,-11 -6,-2 -13,-1 -19,2 -4,2 -8,5 -10,9 -3,4 -4,8 -5,13 -1,9 2,18 8,25 6,7 15,11 24,12 9,1 18,-1 26,-6 11,-7 19,-18 23,-31 3,-13 2,-26 -3,-38 -8,-19 -26,-33 -45,-39 -20,-6 -41,-4 -61,4 -27,11 -48,33 -62,59 -14,26 -20,55 -21,84 -2,43 7,86 27,123 23,43 61,78 106,96 l27,3  " id="shape_x3j9_12" fill="#361800" fill-opacity="1.0">
</path> <!--s13-->
<path d="m322,257 c-16,-42 10,-90 32,-123 -71,61 -128,199 -29,254 33,-49 3,-115 -2,-131 z  " id="shape_x3j9_13" fill="url(#gradient_nyyh_5)">
</path> <!--s14-->
<path d="m142,840 c-22,-28 -65,-30 -96,-29 70,-24 187,-6 184,84 -47,2 -79,-45 -87,-55 z  " id="shape_x3j9_14" fill="url(#gradient_nyyh_5)">
</path> <!--s15-->
<path d="m410,622 c-4,-8 -4,-19 9,-22 0,-1 -1,-3 -1,-4 -6,6 -19,-1 -12,-11 5,-11 -1,-18 -3,-24 13,1 14,11 16,20 4,5 9,0 7,-4 -7,-11 5,-20 10,-21 10,-2 11,-4 15,-7 -1,6 1,11 3,17 3,14 -5,17 -13,20 -5,3 -3,8 2,7 7,-3 13,-10 26,1 -7,3 -19,5 -20,10 -2,8 -15,15 -19,-1 -1,0 -3,1 -4,2 5,10 -5,18 -15,18 z  " id="shape_x3j9_15" fill="#CB9D19" fill-opacity="1.0">
</path> <!--s16-->
<path d="M128,279 C83,242 70,213 68,188 c-6,4 -21,18 8,55 -13,-6 -24,-20 -36,-29 -5,-4 -27,-10 -36,-11 4,7 12,26 17,30 14,11 34,17 46,29 -46,-16 -50,-1 -56,8 37,-10 74,14 110,28 13,-3 14,-5 7,-18 z  " id="shape_x3j9_16" fill="url(#gradient_nyyh_5)">
</path> <!--s17-->
<path d="m106,193 c0,7 -2,15 -3,22 -1,7 -2,15 0,22 2,6 7,11 13,13 6,2 13,2 18,-1 3,-2 5,-4 7,-7 1,-3 2,-7 1,-10 -1,-2 -2,-4 -4,-5 -2,-1 -4,-2 -6,-2 -2,0 -4,2 -5,3 -1,1 -1,2 -1,3 0,1 0,2 0,3 1,2 2,3 4,4 2,1 3,1 5,0 -2,1 -4,1 -6,0 -2,-1 -4,-2 -5,-4 -1,-1 -1,-3 -1,-4 0,-2 0,-3 1,-4 1,-3 4,-5 7,-5 3,-1 6,0 9,1 3,1 5,4 6,7 2,4 2,9 1,13 -1,4 -4,8 -8,10 -6,4 -13,4 -20,2 -6,-2 -12,-7 -16,-12 -6,-8 -9,-18 -8,-28 1,-10 5,-20 12,-27 1,2 1,5 1,7  " id="shape_x3j9_17" fill="#381900" fill-opacity="1.0">
</path> <!--s18-->
<path d="m130,239 c1,0 4,0 6,-1 2,-1 2,-3 2,-4 -1,-1 -1,-2 -3,-1 -2,1 -3,6 -5,6 z  " id="shape_x3j9_18" fill="url(#gradient_nyyh_5)">
</path> <!--s19-->
<path d="m32,303 c7,-2 13,-6 20,-9 6,-3 14,-6 21,-6 6,0 12,3 16,8 4,5 5,12 4,18 -1,3 -3,6 -5,9 -3,2 -6,4 -9,3 -2,0 -4,-1 -6,-2 -2,-1 -3,-3 -3,-6 0,-2 0,-5 2,-6 1,-1 2,-2 3,-2 1,0 2,-1 3,-1 2,0 3,1 4,2 1,1 2,3 1,5 0,-2 0,-4 -2,-6 -1,-2 -3,-3 -5,-3 -1,0 -3,0 -4,0 -1,0 -3,1 -4,2 -2,2 -3,5 -3,8 0,3 2,6 4,8 2,2 5,3 8,4 4,1 9,0 12,-3 4,-3 6,-6 7,-11 2,-7 0,-14 -4,-19 -4,-6 -10,-10 -16,-12 -9,-3 -20,-3 -29,0 -9,3 -17,10 -22,19 2,0 5,0 7,-1  " id="shape_x3j9_19" fill="#431E00" fill-opacity="1.0">
</path> <!--s20-->
<path d="m83,314 c1,1 1,4 1,6 -1,2 -2,3 -3,3 -2,0 -2,-1 -2,-2 1,-2 5,-4 4,-6 z  " id="shape_x3j9_20" fill="url(#gradient_nyyh_5)">
</path> <!--s21-->
<path d="m230,474 c-9,26 -2,38 7,43 7,-3 15,-23 -7,-43 z  " id="shape_x3j9_21" fill="#321600" fill-opacity="1.0">
</path> <!--s22-->
<path d="m251,483 c31,2 56,14 47,30 -7,13 -30,2 -47,-30 z  " id="shape_x3j9_22" fill="#321600" fill-opacity="1.0">
</path> <!--s23-->
<path d="m235,468 c20,-19 33,-17 42,-11 0,8 -15,23 -42,11 z  " id="shape_x3j9_23" fill="#371900" fill-opacity="1.0">
</path> <!--s24-->
<path d="m357,399 c4,0 7,0 10,2 3,2 6,4 8,7 2,3 3,7 3,10 0,4 -1,7 -3,10 -2,3 -5,6 -8,7 -3,2 -7,2 -11,2 -8,0 -15,-5 -20,-12 -3,-4 -5,-10 -5,-15 0,-5 1,-11 4,-16 3,-5 7,-9 11,-12 5,-3 10,-5 16,-5 10,0 20,4 27,11 7,7 12,18 13,29 2,15 -4,31 -14,42 -10,11 -26,17 -41,15 -13,-1 -25,-9 -34,-19 -9,-10 -16,-23 -21,-36 -8,-23 -12,-49 -19,-75 -4,-13 -8,-26 -15,-38 -7,-12 -16,-23 -28,-31 -16,-11 -35,-16 -54,-12 l0,0 c-19,3 -36,15 -46,33 -5,11 -8,23 -7,34 0,12 3,23 6,33 17,52 61,95 115,110 -53,-17 -95,-60 -110,-112 -3,-10 -5,-21 -5,-32 0,-11 2,-22 8,-31 8,-15 24,-25 41,-28 17,-2 34,3 47,12 10,7 18,17 24,29 6,11 10,23 13,35 6,23 8,48 16,73 0,1 1,3 1,4 6,15 14,29 25,40 11,12 26,20 43,22 19,2 38,-6 50,-20 12,-14 18,-32 15,-50 -2,-12 -7,-24 -16,-33 -9,-9 -21,-13 -33,-13 -7,0 -13,3 -19,6 -5,4 -10,9 -13,14 -3,6 -4,12 -3,19 1,6 3,12 7,17 5,7 14,12 23,12 4,0 9,-1 12,-3 4,-2 7,-5 9,-8 2,-3 3,-7 3,-11 0,-4 -1,-8 -4,-11 -2,-3 -5,-6 -8,-7 -3,-1 -7,-2 -11,-1 z  " id="shape_x3j9_24" fill="url(#gradient_nyyh_5)">
</path> <!--s25-->
<path d="m238,809 c-7,-11 -10,-19 -28,-19 -22,0 -21,-31 3,-24 22,7 21,27 25,43 z  " id="shape_x3j9_25" fill="#CB9D19" fill-opacity="1.0">
</path> <!--s26-->
<path d="m655,671 c7,-5 17,-7 22,5 1,0 3,-1 4,-2 -7,-5 -2,-17 8,-13 11,3 16,-4 22,-7 1,12 -8,14 -16,18 -4,4 2,8 5,6 8,-8 19,1 21,6 4,9 6,9 8,12 -5,0 -10,3 -15,5 -12,5 -16,-2 -21,-9 -3,-4 -8,-1 -6,3 4,6 11,10 3,24 -4,-6 -8,-17 -12,-17 -7,0 -16,-11 -3,-18 -1,-1 -1,-2 -3,-3 -8,6 -17,-1 -19,-11 z  " id="shape_x3j9_26" fill="#CB9D19" fill-opacity="1.0">
</path> 
</g>
</symbol>
<g id="group_qbfz_5" origid="ornament_body"><!--s27-->
<path d="m96,8 c-6,3 -8,11 -5,17 3,6 11,8 17,5 6,-3 8,-11 5,-17 -3,-6 -11,-8 -17,-5 z  m2,3 c4,-2 10,-1 12,3 2,4 1,10 -3,12 -4,2 -10,1 -12,-3 -2,-4 -1,-10 3,-12 z  " id="shape_x3j9_27" fill="url(#gradient_nyyh_3)">
</path> <!--s28-->
<path d="m123,35 c0,-8 -6,-14 -14,-15 l-15,-1 c-8,-0 -14,6 -15,14 l-1,14 c-36,9 -63,41 -64,80 -2,47 35,87 82,89 47,2 87,-35 89,-82 2,-41 -26,-77 -64,-87 z  " id="shape_x3j9_28" fill="url(#gradient_nyyh_2)" fill-opacity="1.0">
</path> <!--s29-->
<path d="M123,34 C123,26 117,19 110,19 L94,18 C87,18 80,24 80,32 l-1,14 c4,13 43,13 43,0 z  " id="shape_x3j9_29" fill="url(#gradient_nyyh_4)">
</path> <!--s30-->
<use xlink:href="#group_qbfz_3" id="shape_x3j9_30" transform="translate(40,100), scale(0.1)"/> <!--s31-->
<use xlink:href="#group_qbfz_3" id="shape_x3j9_31" transform="translate(60,90), rotate(20, 100,100), scale(0.09)"/> 
</g>
</g>
</g>
</svg>