<?xml version="1.0" encoding="UTF-8" standalone="no"?>
<svg id="svg4305" xmlns:rdf="http://www.w3.org/1999/02/22-rdf-syntax-ns#" xmlns="http://www.w3.org/2000/svg" height="761" viewBox="0 0 761 761" width="761" version="1.1" xmlns:cc="http://creativecommons.org/ns#" xmlns:dc="http://purl.org/dc/elements/1.1/">
<path id="path4315" d="m461.47 758.75c-0.37383-1.4895-0.35383-4.8562 0.0445-7.4815 0.39829-2.6253 0.73741-9.0483 0.75359-14.273l0.0294-9.5-7.2337-14c-3.9785-7.7-8.0503-16.25-9.0484-19-0.99808-2.75-2.1596-5.854-2.5811-6.8979-0.66201-1.6393-0.40351-1.8285 1.8973-1.3887 3.0378 0.58071 3.7891-2.0346 1.2015-4.1821-1.96-1.62-5.54-11.37-5.54-15.07 0-4.4274 2.1092-3.5977 5.5 2.1635 1.65 2.8035 4.232 7.1845 5.7377 9.7356s3.1657 5.9884 3.6889 7.6384c2.4636 7.7703 4.3126 11.819 7.7983 17.076 5.9692 9.0026 7.7118 12.831 9.3387 20.516 1.2708 6.0024 0.18819 10.079-8.0705 30.39-2.599 6.3918-2.8962 6.7528-3.5185 4.2733zm-21.8-2c-2.097-2.8055-2.5191-4.7545-3.0865-14.25-0.69998-11.715-1.8394-21.465-4.2072-36-0.80636-4.95-1.6441-12.11-1.8616-15.912-0.21751-3.8014-0.83607-8.9764-1.3746-11.5s-1.504-11.113-2.1456-19.088c-0.64156-7.975-1.9928-19.9-3.0027-26.5-1.6844-11.008-3.4372-24.226-6.1664-46.5-0.5728-4.675-1.7208-12.55-2.551-17.5-0.83025-4.95-1.8642-14.4-2.2976-21-0.71798-10.934-3.4471-29.829-4.5709-31.648-0.25281-0.40906-0.86305-5.8307-1.3561-12.048-1.9101-24.087-4.899-50.854-8.074-72.304-1.0941-7.3921-3.8763-35.837-3.5438-36.232 0.10733-0.12741 1.8634 1.4768 3.9025 3.565 4.1246 4.2239 4.9616 7.4656 6.6277 25.667 0.50346 5.5 1.6117 14.725 2.4627 20.5 0.85103 5.775 2.7016 19.05 4.1125 29.5 1.4108 10.45 3.1884 23.275 3.95 28.5 0.76169 5.225 1.906 13.775 2.5428 19 0.63687 5.225 1.5452 12.2 2.0185 15.5 0.47332 3.3 1.5733 12.75 2.4444 21 0.87113 8.25 2.2112 19.275 2.9779 24.5 0.76675 5.225 1.9204 14 2.5637 19.5 1.1093 9.484 2.2694 17.761 5.5361 39.5 0.78517 5.225 1.8528 14 2.3724 19.5 0.51966 5.5 1.3871 12.925 1.9275 16.5 1.778 11.76 4.1322 28.363 5.1756 36.5 0.56422 4.4 1.4788 10.598 2.0324 13.774 0.5536 3.1757 0.78417 6.1338 0.51239 6.5736-0.27178 0.43976 0.18622 5.0263 1.0178 10.192 2.2025 13.683-1.7412 19.003-7.9394 10.71zm-142.23-0.5c0.37306-1.5125 1.029-4.775 1.4575-7.25 0.42858-2.475 1.4658-6.75 2.305-9.5 0.83916-2.75 2.5521-9.275 3.8066-14.5 4.3854-18.265 5.6913-21.517 10.956-27.277 4.8373-5.2928 15.01-11.695 18.67-11.751 1.023-0.0155 3.885-1.1213 6.36-2.4574 35.039-18.915 52.811-22.638 74.5-15.607 8.5795 2.7814 9.0146 3.062 9.3134 6.005l0.31336 3.0872h-6.9425c-22.093 0-33.495 14.698-21.935 28.276 10.376 12.187 16.437 22.623 17.844 30.724 0.42986 2.475 1.1024 6.0192 1.4944 7.8761l0.71287 3.3761-6.4002-0.55303c-39.352-3.4003-48.165-46.146-13.783-66.849 10.705-6.446 10.943-7.3699 1.883-7.3-19.706 0.15216-30.927 2.188-40.326 7.3164-2.6545 1.4484-6.6026 3.557-8.7735 4.6859-7.7622 4.0363-12.398 14.845-15.418 35.948-2.2693 15.859-9.9689 28.152-18.829 30.064-4.312 0.93021-9.7627 3.7915-12.058 6.3298-2.9163 3.2246-6.0087 2.8382-5.1499-0.64359zm57.099-58.5c2.2983-7.6202 9.1671-15.748 15.592-18.449 5.0304-2.1151 4.6639-0.66895-1.3873 5.4752-3.1005 3.1481-6.5463 7.8614-7.6573 10.474-2.2627 5.3207-8.0664 7.5367-6.5473 2.5zm-10.04-35.77c-12.99-3.22-19.5-11.25-19.5-24.05 0-8.0705 0.25938-8.1933 6.4685-3.0624 3.2466 2.6828 6.7363 4.4083 11.359 5.6164 18.883 4.9352 23.526 6.5502 30.474 10.601 8.0966 4.7205 10.972 8.0356 8.829 10.18-1.397 1.3979-32.497 1.9869-37.631 0.71267zm71.72-16.23c-2.7889-2.8875-9.2676-9.1966-14.397-14.02-10.186-9.578-10.067-9.4617-17.377-17.013-6.1804-6.3845-19.146-21.131-22.171-25.217-8.9637-12.106-23.282-32.54-24.578-35.075-0.86434-1.6914-3.666-6.1914-6.2259-10-7.618-11.334-26.744-51.506-29.959-62.925-3.6393-12.927-5.1226-16.493-6.3493-15.267-5.1378 5.1378-2.6343-4.5623 3.0791-11.93 1.7899-2.3082 4.7249-6.2375 6.5222-8.7316 1.7973-2.4942 5.6223-6.2854 8.5-8.4249s6.8071-5.3352 8.7321-7.1014c4.4072-4.0438 25.932-18.447 26.587-17.791 0.26838 0.26838-6.1665 6.7285-14.3 14.356-28.004 26.262-27.817 25.969-27.731 43.39 0.063 12.72 3.2095 23.39 11.206 38 1.9567 3.575 5.5511 10.55 7.9876 15.5 5.1114 10.385 10.427 19.489 14.306 24.5 1.4899 1.925 3.9609 5.75 5.491 8.5 3.1474 5.6566 7.5063 11.944 12.018 17.336 1.6862 2.0151 4.1327 5.2388 5.4367 7.1638 3.701 5.4636 16.864 20.832 22.635 26.428 1.1756 1.1398 7.2506 7.0402 13.5 13.112s13.647 12.911 16.439 15.197c4.8378 3.9627 7.424 8.7105 7.424 13.629 0 2.68-1.4347 1.9143-6.7762-3.616zm19.195-19.101c-4.1776-10.887 5.0168-51.885 13.384-59.681 7.7051-7.1784 19.901-13.434 24.506-12.571 4.4644 0.83752 4.8167 2.9682 0.83162 5.0289-3.4298 1.7736-4.2327 3.6189-8.1671 18.77-1.6706 6.4334-3.6954 12.958-4.4995 14.5-0.8041 1.5416-1.4648 3.2971-1.4682 3.901-0.003 0.60396-3.376 4.429-7.4946 8.5s-7.4936 7.7925-7.5 8.2699c-0.006 0.4774-1.3394 2.3803-2.9623 4.2286-1.6229 1.8484-3.248 4.9453-3.6113 6.882-0.6733 3.589-2.0853 4.6042-3.0191 2.1708zm-53.518-6.0816c-3.1371-3.1371-16.493-4.4722-38.997-3.8981-19.745 0.5037-24.231 0.34812-28.697-0.99517-3.9682-1.1937-5.9706-1.3337-8-0.55936-2.8 1.06-10.21-0.56-10.21-2.24 0-7.468 15.682-17.605 29.5-19.07 12.498-1.3249 14.014-1.2128 22.425 1.6564 4.0838 1.3932 8.1788 2.533 9.1 2.533 0.92115 0 3.4298 1.2706 5.5748 2.8236s7.05 5.0218 10.9 7.7086c9.5398 6.6574 14.527 12.468 10.702 12.468-1.0277 0-2.063-0.19452-2.3008-0.43226zm8.5401-13.333c-1.05-0.73-8.42-13.35-9.49-16.24-0.30505-0.825-1.3006-3.1324-2.2123-5.1276-7.7697-17.003-7.4571-41.719 0.78253-61.872 1.2368-3.025 2.5286-7.7144 2.8708-10.421 0.96594-7.6403 4.9023-6.6147 7.9948 2.083 0.9461 2.6609 2.3716 6.188 3.1677 7.838 3.8625 8.0052 4.4499 22.6 1.351 33.568-7.1695 25.374-7.5722 40.696-1.2618 48.011 2.301 2.6675-0.11325 4.2956-3.197 2.156zm-50.94-37.24c-1.1-0.47269-4.3393-0.89106-7.1984-0.92971-10.137-0.13706-28.233-7.3052-36.388-14.414-1.9912-1.7358-5.2615-4.4127-7.2672-5.9487-5.358-4.1031-4.8526-6.1192 1.9137-7.6335 13.453-3.0108 31.539 4.7186 44.806 19.149 8.6932 9.4554 9.8715 12.243 4.1331 9.7767zm3.5-21.112c0-0.83169-0.83681-3.2842-1.8596-5.45s-2.8861-7.0878-4.1407-10.938c-1.2546-3.85-2.9047-8.5028-3.6669-10.339-1.8652-4.4948-3.6471-22.89-3.1178-32.188 0.47731-8.3854 7.3672-23.421 15.42-33.651 2.1256-2.7002 4.7485-6.5661 5.8287-8.5909 9.9417-18.635 12.298 24.324 2.6954 49.146-1.1441 2.9576-2.6783 6.1076-3.4094 7-5.5189 6.7371-7.9825 19.286-6.5495 33.361 0.82943 8.1467 0.81753 11.143-0.0477 12.008-0.87054 0.87055-1.1529 0.78256-1.1529-0.35926zm-39.202-35.818c-2.0364-1.0176-4.9095-2.7997-6.3849-3.9602-1.4753-1.1605-3.1448-2.11-3.71-2.11-9.3032 0-13.883-11.056-6.1384-14.819 7.5567-3.6714 9.6782-2.4258 17.184 10.089 7.8878 13.152 7.7138 15.129-0.95049 10.8zm145.79-8.3089c-1.9248-4.0562-5.3204-9.4434-7.5458-11.972-2.22-2.53-4.04-4.91-4.04-5.29 0-0.3807-1.0125-2.1078-2.25-3.8381-3.9555-5.5306-8.8432-14.012-11.043-19.163-1.1744-2.75-3.5163-7.475-5.204-10.5-5.7651-10.333-13.382-38.23-9.2837-34 0.79943 0.825 2.0232 3.525 2.7195 6 4.0928 14.548 21.207 43.031 37.854 63 4.2884 5.1442 4.7986 6.7457 4.7504 14.913-0.0585 9.902-1.5544 10.115-5.9518 0.84865zm-60.925-9.4279c-1.47-1.47 1.0457-12.16 5.0192-21.327 0.8329-1.9216 1.656-6.734 1.8291-10.694 0.53267-12.187 2.7431-15.406 3.9494-5.751 2.0718 16.582-5.5002 43.07-10.798 37.772zm106.12-17.687c-8.6072-8.6072-4.906-15.251 14.001-25.133 7.3238-3.828 8.1367 0.30327 1.7683 8.9868-1.2101 1.65-3.1983 5.0906-4.4183 7.6458-4.0073 8.3931-8.268 11.584-11.351 8.5007zm-293.22-3.5057c-1.7736-3.4298-3.6189-4.2327-18.77-8.1671-6.4334-1.6706-12.958-3.6954-14.5-4.4995-1.5416-0.8041-3.2971-1.4648-3.901-1.4682-0.60396-0.003-4.429-3.376-8.5-7.4946s-7.7925-7.4936-8.2699-7.5c-0.4774-0.006-2.3803-1.3394-4.2286-2.9623-1.8484-1.6229-4.9648-3.2516-6.9255-3.6194-8.3032-1.5577 0.67566-4.4582 12.022-3.8837 15.49 0.78438 40.183 8.5163 45.531 14.257 7.1784 7.7051 13.434 19.901 12.571 24.506-0.83752 4.4644-2.9682 4.8167-5.0289 0.83162zm339.5-3.7013c-1.8337-8.1939 0.81258-19.622 7.0783-30.568 5.4968-9.6028 25.404-27.534 22.338-20.121-0.39807 0.9625-1.0902 5.35-1.5381 9.75-1.3167 12.936-7.0922 27.297-14.318 35.603-1.724 1.9818-4.3912 5.2443-5.9272 7.25-4.1031 5.358-6.1192 4.8526-7.6335-1.9137zm-519.56 0.39c-22.702-8.46-26.622-11.55-11.773-9.3 2.625 0.4 9.048 0.74 14.273 0.75l9.5 0.0294 14-7.2337c7.7-3.9785 16.25-8.0503 19-9.0484 2.75-0.99808 5.854-2.1596 6.8979-2.5811 1.6393-0.66201 1.8285-0.40351 1.3887 1.8973-0.58071 3.0378 2.0346 3.7891 4.1821 1.2015 1.624-1.96 11.367-5.54 15.069-5.54 4.4274 0 3.5977 2.1092-2.1635 5.5-2.8035 1.65-7.1845 4.232-9.7356 5.7377s-5.9884 3.1657-7.6384 3.6889c-7.7703 2.4636-11.819 4.3126-17.076 7.7983-8.5777 5.6874-12.542 7.5438-19.617 9.1859-6.2682 1.4549-7.0382 1.356-16.307-2.0955zm356.25 2.4954c-2.5045-0.6545-2.2036-4.4758 0.86306-10.958 5.2609-11.121 7.9686-25.546 8.8883-47.353 1.237-29.332 4.0105-25.478 3.958 5.5-0.0437 25.788-1.8087 37.327-7.511 49.107-2.0824 4.3016-2.6389 4.6342-6.1983 3.704zm83.606-6.0622c-1.729-0.96165-5.104-3.1893-7.5-4.9503s-6.2605-4.5816-8.5879-6.2678c-2.3274-1.6863-5.9822-5.4204-8.1217-8.2981s-5.3229-6.8071-7.0741-8.7321-5.3394-6.65-7.9737-10.5c-11.385-16.64-10.592-16.372 8.4292 2.8463 28.409 28.703 42.737 30.902 77.472 11.891 3.575-1.9567 10.55-5.5511 15.5-7.9876 10.385-5.1114 19.489-10.427 24.5-14.306 1.925-1.4899 5.75-3.9609 8.5-5.491 5.6566-3.1474 11.944-7.5063 17.336-12.018 2.0151-1.6862 5.2388-4.1327 7.1638-5.4367 5.419-3.6707 20.665-16.72 26.428-22.619 13.54-13.862 25.833-26.818 29.072-30.642 3.0956-3.6541 5.0668-4.9944 8.7179-5.9277 7.0254-1.7959 6.8859-0.4818-0.7743 7.2915-3.819 3.8754-10.094 10.364-13.944 14.419-8.4422 8.8914-9.1579 9.6183-15.783 16.032-6.3845 6.1804-21.131 19.146-25.217 22.171-12.106 8.9637-32.54 23.282-35.075 24.578-1.6914 0.86434-6.1914 3.6648-10 6.2233s-14.125 8.1651-22.925 12.459c-29.126 14.212-31.023 14.979-52.75 21.335-3.789 1.1083-4.5913 2.0457-2.7337 3.1938 3.5514 2.1949-0.80115 2.8846-4.66 0.73837zm146.14-4.93c-6.6883-4.2078-12.499-15.595-13.689-26.829-1.3249-12.498-1.2128-14.014 1.6564-22.425 1.3932-4.0838 2.533-8.1788 2.533-9.1 0-0.92115 1.2706-3.4298 2.8236-5.5748s5.0218-7.05 7.7086-10.9c4.8736-6.9837 7.2761-9.5555 10.866-11.631 2.1824-1.262 2.12-0.72234-1.344 11.631-1.787 6.3729-1.9101 9.1053-1.3745 30.5 0.4962 19.819 0.33887 24.329-1.0044 28.793-1.1942 3.9684-1.3343 5.9705-0.55988 8 1.1662 3.0565-0.63051 10.264-2.5252 10.13-0.59947-0.0426-2.8899-1.2099-5.0899-2.5939zm146.5 0.67c-0.825-0.53316-2.8183-0.97627-4.4295-0.98469-1.6112-0.008-5.6612-0.85887-9-1.8899s-10.346-2.8974-15.57-4.1476c-18.225-4.3607-21.513-5.6803-27.277-10.948-5.2928-4.8373-11.695-15.01-11.751-18.67-0.0155-1.023-1.1213-3.885-2.4574-6.36-18.915-35.039-22.638-52.811-15.607-74.5 2.7814-8.5795 3.062-9.0146 6.005-9.3134l3.09-0.32v6.9425c0 22.093 14.698 33.495 28.276 21.935 12.187-10.376 22.623-16.437 30.724-17.844 2.475-0.42986 6.0192-1.1024 7.8761-1.4944l3.3761-0.71287-0.55303 6.4002c-3.4003 39.352-46.146 48.165-66.849 13.783-6.446-10.705-7.3699-10.943-7.3-1.883 0.15216 19.706 2.188 30.927 7.3164 40.326 1.4484 2.6545 3.557 6.6026 4.6859 8.7735 4.0363 7.7622 14.845 12.398 35.948 15.418 15.859 2.2693 28.152 9.9689 30.064 18.829 0.93021 4.312 3.7915 9.7627 6.3298 12.058 4.0113 3.6277 1.5811 7.4868-2.8936 4.595zm-504.36-7.6901c-1.4522-1.4522-0.30186-2.445 6.6635-5.7503 4.0188-1.9071 9.3753-5.2881 11.903-7.5135 2.5282-2.2254 4.9081-4.0461 5.2888-4.0461s2.1078-1.0125 3.8381-2.25c5.5306-3.9555 14.012-8.8432 19.163-11.043 2.75-1.1744 7.475-3.5163 10.5-5.204 10.333-5.7651 38.23-13.382 34-9.2837-0.825 0.79943-3.525 2.0232-6 2.7195-14.539 4.0903-42.387 20.812-62.887 37.761-1.8629 1.5402-4.0779 3.2036-4.9224 3.6965-1.8284 1.0672-16.623 1.8377-17.547 0.9138zm-246.89-7.39c-7.3252-4.2665 1.2957-10.47 15.75-11.334 11.715-0.69998 21.465-1.8394 36-4.2072 4.95-0.80636 12.11-1.6441 15.912-1.8616 3.8014-0.21751 8.9764-0.83607 11.5-1.3746s11.113-1.504 19.088-2.1456c7.975-0.64156 19.9-1.9928 26.5-3.0027 11.008-1.6844 24.226-3.4372 46.5-6.1664 4.675-0.5728 12.55-1.7208 17.5-2.551 4.95-0.83025 14.4-1.8642 21-2.2976 10.934-0.71798 29.829-3.4471 31.648-4.5709 0.40906-0.25281 5.8307-0.86305 12.048-1.3561 24.056-1.9076 50.684-4.8801 72.304-8.0711 7.7618-1.1456 36.867-3.9461 37.232-3.5824 3.6664 3.6536-11.084 8.808-30.232 10.564-5.5 0.50444-14.725 1.6135-20.5 2.4645-5.775 0.85103-19.05 2.7016-29.5 4.1125-10.45 1.4108-23.275 3.1884-28.5 3.95-5.225 0.76169-13.775 1.906-19 2.5428-5.225 0.63687-12.2 1.5452-15.5 2.0185-3.3 0.47332-12.75 1.5733-21 2.4444-8.25 0.87113-19.275 2.2112-24.5 2.9779-5.225 0.76675-14 1.9204-19.5 2.5637-9.484 1.1093-17.761 2.2694-39.5 5.5361-5.225 0.78517-14 1.8528-19.5 2.3724-5.5 0.51966-12.925 1.3871-16.5 1.9275-11.76 1.778-28.363 4.1322-36.5 5.1756-4.4 0.56422-10.598 1.4788-13.774 2.0324-3.1757 0.5536-6.1354 0.7832-6.5771 0.51023-0.44168-0.27297-4.8184 0.15544-9.726 0.95203-10.457 1.7-10.407 1.7-12.673 0.38zm628.25-12.81c0-0.49011 1.7426-3 3.8725-5.5774 2.6828-3.2466 4.4083-6.7363 5.6164-11.359 4.9352-18.883 6.5502-23.526 10.601-30.474 9.2296-15.831 11.433-13.673 11.338 11.103-0.0891 23.406-3.6141 31.897-15.046 36.243-3.17 1.2-16.38 1.25-16.38 0.06zm-149-5.4573c-5.9361-2.1381-20.677-10.351-25.759-14.351-2.6555-2.0903-6.4849-4.6844-8.5097-5.7646-18.635-9.9417 24.324-12.298 49.146-2.6954 2.9576 1.1441 6.1076 2.6783 7 3.4094 6.7371 5.5189 19.286 7.9825 33.361 6.5495 8.1467-0.82943 11.143-0.81753 12.008 0.0477 0.87055 0.87055 0.78256 1.1529-0.35926 1.1529-0.83169 0-3.2842 0.83681-5.45 1.8596s-7.0878 2.8861-10.938 4.1407c-3.85 1.2546-8.4918 2.8995-10.315 3.6553-7.2 2.9846-33.775 4.3046-40.185 1.996zm-398-11.47c0-22.09-14.698-33.49-28.276-21.93-12.187 10.37-22.623 16.44-30.724 17.84-2.475 0.42986-6.0192 1.1024-7.8761 1.4944l-3.3761 0.71287 0.55304-6.4002c3.4003-39.352 46.146-48.165 66.849-13.783 6.446 10.705 7.3699 10.943 7.3 1.883-0.15216-19.706-2.188-30.927-7.3164-40.326-1.4484-2.6545-3.557-6.6026-4.6859-8.7735-4.037-7.75-14.846-12.39-35.948-15.41-15.859-2.27-28.152-9.97-30.064-18.83-0.93-4.31-3.7913-9.76-6.3296-12.05-3.2246-2.92-2.8382-6.01 0.6436-5.15 1.5125 0.37306 4.775 1.029 7.25 1.4575 2.475 0.42858 6.75 1.4658 9.5 2.305 2.75 0.83916 9.275 2.5521 14.5 3.8066 18.265 4.3854 21.517 5.6913 27.277 10.956 5.2928 4.8373 11.695 15.01 11.751 18.67 0.01549 1.023 1.1213 3.885 2.4574 6.36 18.915 35.039 22.638 52.811 15.607 74.5-2.7814 8.5795-3.062 9.0146-6.005 9.3134l-3.087 0.31v-6.95zm26 4.0977c0-0.39497 3.0375-3.8028 6.75-7.573s9.9-10.172 13.75-14.227c8.4422-8.8914 9.1579-9.6183 15.783-16.032 6.3845-6.1804 21.131-19.146 25.217-22.171 12.106-8.9637 32.54-23.282 35.075-24.578 1.6914-0.86434 6.1914-3.666 10-6.2259 11.334-7.618 51.506-26.744 62.925-29.959 12.927-3.6393 16.493-5.1226 15.267-6.3493-5.1378-5.1378 4.5623-2.6343 11.93 3.0791 2.3082 1.7899 6.2375 4.7249 8.7316 6.5222 2.4942 1.7973 6.2854 5.6223 8.4249 8.5s5.3352 6.8071 7.1014 8.7321c4.0438 4.4072 18.447 25.932 17.791 26.587-0.26838 0.26838-6.7285-6.1665-14.356-14.3-26.25-28-25.96-27.81-43.38-27.72-12.72 0.063-23.39 3.2095-38 11.206-3.575 1.9567-10.55 5.5511-15.5 7.9876-10.385 5.1114-19.489 10.427-24.5 14.306-1.925 1.4899-5.75 3.9609-8.5 5.491-5.6566 3.1474-11.944 7.5063-17.336 12.018-2.0151 1.6862-5.2388 4.1327-7.1638 5.4367-5.4636 3.701-20.832 16.864-26.428 22.635-1.1398 1.1756-7.0402 7.2506-13.112 13.5s-12.911 13.647-15.197 16.439c-4.46 5.45-15.26 10.19-15.26 6.7zm585.5-16.503c-6.2517-2.2165-13.77-9.1914-16.265-15.09-2.0534-4.8536-0.54075-4.4269 5.5415 1.5633 3.1481 3.1005 7.8614 6.5463 10.474 7.6573 3.8866 1.6529 4.75 2.4809 4.75 4.5556 0 2.796-0.17551 2.8472-4.5 1.314zm-410-6.7933c-10.887-1.3449-21.383-6.241-20.168-9.4076 0.97674-2.5453 10.461-0.74666 21.662 4.1084 1.9216 0.8329 6.734 1.656 10.694 1.8291 11.635 0.50854 15.361 2.6582 6.6725 3.8491-5.4448 0.74629-10.588 0.64296-18.86-0.37892zm-82-4.1424c-24.58-7.1525-40.313-7.4965-47.756-1.044-2.1743 1.8849-3.171 1.0392-2.3992-2.0357 0.36045-1.4362 2.229-3.1637 4.8701-4.5028 2.3569-1.1949 5.8603-3.0549 7.7853-4.1334 21.558-12.077 47.114-13.377 71-3.6112 3.025 1.2368 7.7144 2.5286 10.421 2.8708 7.6403 0.96594 6.6147 4.9023-2.083 7.9948-2.6609 0.9461-6.188 2.3716-7.838 3.1677-7.9629 3.8421-23.244 4.4236-34 1.2938zm115-3.5442c-15.801-2.2138-32.003-8.2984-31.096-11.678 0.31304-1.1664 0.57531-2.4582 0.58282-2.8707 0.0287-1.576 5.3614-0.64406 10.661 1.8631 11.121 5.2609 25.546 7.9686 47.353 8.8883 13.438 0.56674 19.5 1.5116 19.5 3.0396 0 0.95273-40.901 1.612-47 0.75757zm226-4.2822c-6.9481-0.97556-14.029-2.8864-20.5-5.532-3.025-1.2368-7.7144-2.5286-10.421-2.8708-7.6403-0.96594-6.6147-4.9023 2.083-7.9948 2.6609-0.9461 6.188-2.3716 7.838-3.1677 8.0052-3.8625 22.6-4.4499 33.568-1.351 25.609 7.2359 40.714 7.5811 48.188 1.1013 2.1743-1.8849 3.171-1.0392 2.3992 2.0357-0.36045 1.4362-2.229 3.1637-4.8701 4.5028-2.3569 1.1949-5.8603 3.0549-7.7853 4.1334-15.721 8.8074-31.956 11.747-50.5 9.1432zm-404.16-3.652c0.35172-1.5754 1.5228-6.0143 2.6023-9.8643 1.787-6.3729 1.9101-9.1053 1.3745-30.5-0.4962-19.819-0.33887-24.329 1.0044-28.793 1.1942-3.9684 1.3343-5.9705 0.55988-8-1.06-2.81 0.56-10.22 2.24-10.22 7.468 0 17.605 15.682 19.07 29.5 1.3249 12.498 1.2128 14.014-1.6564 22.425-1.3932 4.0838-2.533 8.1788-2.533 9.1 0 0.92115-1.2706 3.4298-2.8236 5.5748s-5.0218 7.05-7.7086 10.9c-7.126 10.211-13.328 15.258-12.124 9.8643zm322.16-0.92c-10.395-5.1509-25.725-8.043-47.5-8.9613-29.332-1.237-25.478-4.0105 5.5-3.958 31.015 0.0526 54.834 5.3635 53.096 11.839-0.31304 1.1664-0.57531 2.4582-0.58282 2.8707-0.0284 1.5597-5.7034 0.59343-10.514-1.7901zm-363.28-1.21c-1.878-4.57-0.628-37.6 1.601-42.38 4.43-9.47 11.48-13.87 22.25-13.87 8.0705 0 8.1933 0.25938 3.0624 6.4685-2.6828 3.2466-4.4083 6.7363-5.6164 11.359-5.0361 19.269-6.5622 23.641-10.61 30.398-5.7962 9.6747-9.0127 12.091-10.682 8.0248zm-22.757-12.37c-2.742-2.83-7.31-6.18-10.212-7.49-4.365-1.97-5.25-2.8-5.25-4.94 0-6.4669 16.92 4.7025 20.684 13.654 2.3701 5.6368 1.1479 5.3518-5.2213-1.2176zm407.04 1.91c-3.3-1.0623-7.5723-2.6187-9.4939-3.4588s-6.734-1.6691-10.694-1.8422c-12.187-0.53267-15.406-2.7431-5.751-3.9494 15.309-1.9128 40.161 4.5349 38.107 9.8868-0.77971 2.0319-4.48 1.8383-12.168-0.63644zm-121.76-8.5544c-4.0322-4.145-4.9773-7.9138-6.7032-26.732-0.50444-5.5-1.6135-14.725-2.4645-20.5-0.85103-5.775-2.7016-19.05-4.1125-29.5-1.4108-10.45-3.1884-23.275-3.95-28.5-0.76169-5.225-1.906-13.775-2.5428-19-0.63687-5.225-1.5452-12.2-2.0185-15.5-0.47332-3.3-1.5733-12.75-2.4444-21-0.87113-8.25-2.2112-19.275-2.9779-24.5-0.76675-5.225-1.9204-14-2.5637-19.5-1.1093-9.484-2.2694-17.761-5.5361-39.5-0.78517-5.225-1.8528-14-2.3724-19.5-0.51966-5.5-1.3871-12.925-1.9275-16.5-1.778-11.76-4.1322-28.363-5.1756-36.5-0.56422-4.4-1.4788-10.598-2.0324-13.774-0.5536-3.1757-0.78417-6.1338-0.51239-6.5736 0.27178-0.43975-0.18622-5.0263-1.0178-10.192-1.73-10.786-1.04-13.98 3.04-13.98 4.923 0 7.2446 5.0872 7.9862 17.5 0.69998 11.715 1.8394 21.465 4.2072 36 0.80636 4.95 1.6441 12.11 1.8616 15.912 0.21751 3.8014 0.83607 8.9764 1.3746 11.5s1.504 11.113 2.1456 19.088c0.64156 7.975 1.9928 19.9 3.0027 26.5 1.6844 11.008 3.4372 24.226 6.1664 46.5 0.5728 4.675 1.7208 12.55 2.551 17.5 0.83025 4.95 1.8642 14.4 2.2976 21 0.71798 10.934 3.4471 29.829 4.5709 31.648 0.25281 0.40906 0.86305 5.8307 1.3561 12.048 1.9076 24.056 4.8801 50.684 8.0711 72.304 1.1456 7.7618 3.9461 36.867 3.5824 37.232-0.12696 0.12741-1.8644-1.4476-3.861-3.5zm7.6489 2.3392c-4.5529-11.865 4.3158-77.684 10.45-77.557 5.7846 0.11954 6.484 3.3132 2.5477 11.634-5.2094 11.012-8.0228 25.821-8.806 46.353-0.63998 16.778-2.2965 24.511-4.1921 19.571zm30.211-2.6413c4.4172-4.4172 7.3426-5.1959 25.9-6.8946 5.5-0.50346 14.725-1.6117 20.5-2.4627 5.775-0.85103 19.05-2.7016 29.5-4.1125 10.45-1.4108 23.275-3.1884 28.5-3.95 5.225-0.76169 13.775-1.906 19-2.5428 5.225-0.63687 12.2-1.5452 15.5-2.0185 3.3-0.47332 12.75-1.5733 21-2.4444 8.25-0.87113 19.275-2.2112 24.5-2.9779 5.225-0.76675 14-1.9204 19.5-2.5637 9.484-1.1093 17.761-2.2694 39.5-5.5361 5.225-0.78517 14-1.8528 19.5-2.3724 5.5-0.51966 12.925-1.3871 16.5-1.9275 11.76-1.778 28.363-4.1322 36.5-5.1756 4.4-0.56422 10.598-1.4788 13.774-2.0324 3.1757-0.5536 6.1338-0.78417 6.5736-0.51239 0.43976 0.27178 5.0263-0.18622 10.192-1.0178 10.78-1.74 13.97-1.05 13.97 3.03 0 4.923-5.0872 7.2446-17.5 7.9862-11.715 0.69998-21.465 1.8394-36 4.2072-4.95 0.80636-12.11 1.6441-15.912 1.8616-3.8014 0.21751-8.9764 0.83607-11.5 1.3746s-11.113 1.504-19.088 2.1456c-7.975 0.64156-19.9 1.9928-26.5 3.0027-11.008 1.6844-24.226 3.4372-46.5 6.1664-4.675 0.5728-12.55 1.7208-17.5 2.551-4.95 0.83025-14.4 1.8642-21 2.2976-10.934 0.71798-29.829 3.4471-31.648 4.5709-0.40906 0.25281-5.8307 0.86305-12.048 1.3561-23.909 1.896-49.788 4.7796-72.304 8.0567-6.5033 0.94652-18.459 2.2407-31.432 3.4025l-5.4318 0.48644 3.9634-3.9634zm-123.6-3.85c-8.4117-2.3886-16.824-5.6608-18.877-7.3426-6.7371-5.5189-19.286-7.9825-33.361-6.5495-8.1467 0.82943-11.143 0.81753-12.008-0.0477-0.87055-0.87054-0.78256-1.1529 0.35926-1.1529 0.83169 0 3.2842-0.83681 5.45-1.8596s7.0878-2.8861 10.938-4.1407c3.85-1.2546 8.5028-2.9047 10.339-3.6669 4.4948-1.8652 22.89-3.6471 32.188-3.1178 8.3854 0.47731 23.421 7.3672 33.651 15.42 2.7002 2.1256 6.5661 4.7485 8.5909 5.8287 13.017 6.9442-17.219 12.322-37.269 6.6287zm144-7.3121c0.825-0.79943 3.525-2.0232 6-2.7195 14.548-4.0928 43.031-21.207 63-37.854 5.1442-4.2884 6.7457-4.7986 14.913-4.7504 9.902 0.0585 10.115 1.5544 0.84865 5.9518-4.0562 1.9248-9.4434 5.3204-11.972 7.5458-2.5282 2.2254-4.9081 4.0461-5.2888 4.0461s-2.1078 1.0125-3.8381 2.25c-5.5306 3.9555-14.012 8.8432-19.163 11.043-2.75 1.1744-7.475 3.5163-10.5 5.204-10.333 5.7651-38.23 13.382-34 9.2837zm11.346-20.309c28.7-28.41 30.9-42.74 11.89-77.47-1.9567-3.575-5.5511-10.55-7.9876-15.5-5.1114-10.385-10.427-19.489-14.306-24.5-1.4899-1.925-3.9609-5.75-5.491-8.5-3.1474-5.6566-7.5063-11.944-12.018-17.336-1.6862-2.0151-4.1327-5.2388-5.4367-7.1638-3.6707-5.419-16.72-20.665-22.619-26.428-13.862-13.54-26.818-25.833-30.642-29.072-3.6541-3.0956-4.9944-5.0668-5.9277-8.7179-1.7959-7.0254-0.4818-6.8859 7.2915 0.7743 3.8754 3.819 10.364 10.094 14.419 13.944 8.8914 8.4422 9.6183 9.1579 16.032 15.783 6.1804 6.3845 19.146 21.131 22.171 25.217 8.9637 12.106 23.282 32.54 24.578 35.075 0.86434 1.6914 3.666 6.1914 6.2259 10 6.2219 9.2569 26.822 51.555 28.94 59.425 1.0858 4.0326 5.8999 19.464 6.2059 19.892 0.15415 0.21588 0.92609-0.14348 1.7154-0.79856 4.4935-3.7293 1.9456 4.4095-3.6324 11.603-1.7899 2.3082-4.7249 6.2375-6.5222 8.7316-1.7973 2.4942-5.6223 6.2854-8.5 8.4249s-6.8071 5.3229-8.7321 7.0741-6.65 5.3394-10.5 7.9737c-16.64 11.385-16.372 10.592 2.8463-8.4292zm-240.84 10.78c0.39807-0.9625 1.0902-5.35 1.5381-9.75 1.3167-12.936 7.0922-27.297 14.318-35.603 1.724-1.9818 4.3912-5.2443 5.9272-7.25 10.666-13.928 11.143 13.986 0.5552 32.482-5.4968 9.6028-25.404 27.534-22.338 20.121zm159.79-0.5c-0.52105-0.6875-1.5223-3.275-2.2249-5.75-4.154-14.632-21.234-43.049-37.866-63-4.2884-5.1442-4.7986-6.7457-4.7504-14.913 0.0585-9.902 1.5544-10.115 5.9518-0.84865 1.9248 4.0562 5.3204 9.4434 7.5458 11.972 2.2254 2.5282 4.0461 4.9081 4.0461 5.2888s1.0125 2.1078 2.25 3.8381c3.9555 5.5306 8.8432 14.012 11.043 19.163 1.1744 2.75 3.5163 7.475 5.204 10.5 6.2534 11.208 13.879 40.45 8.8007 33.75zm256.7-14.61c-0.825-0.5033-5.8316-1.5927-11.126-2.4209-9.8865-1.5466-25.357-7.7132-28.905-11.522-7.1784-7.7051-13.434-19.901-12.571-24.506 0.83752-4.4644 2.9682-4.8167 5.0289-0.83162 1.7736 3.4298 3.6189 4.2327 18.77 8.1671 6.4334 1.6706 12.958 3.6954 14.5 4.4995 1.5416 0.8041 3.2971 1.4648 3.901 1.4682 0.60396 0.003 4.429 3.376 8.5 7.4946s7.7925 7.4936 8.2699 7.5c0.4774 0.006 2.3803 1.3394 4.2286 2.9623 1.8484 1.6229 4.9453 3.248 6.882 3.6113 3.3416 0.62688 4.4452 1.749 2.7504 2.7965-1.6048 0.99184-18.796 1.6554-20.229 0.78085zm57.01-7.39c0.008-0.6875 2.3082-2.6 5.1116-4.25 2.8035-1.65 7.1845-4.232 9.7356-5.7377s5.9884-3.1657 7.6384-3.6889c7.7703-2.4636 11.819-4.3126 17.076-7.7983 9.0026-5.9692 12.831-7.7118 20.516-9.3387 6.0024-1.2708 10.079-0.18819 30.39 8.0705 7.9205 3.2206 6.3477 4.9238-3.2082 3.474-2.62-0.4-9.05-0.74-14.27-0.75l-9.5-0.0294-14 7.2337c-7.7 3.9785-16.25 8.0503-19 9.0484-2.75 0.99808-5.854 2.1596-6.8979 2.5811-1.6393 0.66201-1.8285 0.40351-1.3887-1.8973 0.58071-3.0378-2.0346-3.7891-4.1821-1.2015-2.9815 3.5925-18.05 7.1786-18.017 4.2878zm-261.1-2.353c-5.5437-6.6797-0.16858-50.114 7.3354-59.274 5.5189-6.7371 7.9825-19.286 6.5495-33.361-0.82943-8.1467-0.81753-11.143 0.0477-12.008 0.87055-0.87055 1.1529-0.78256 1.1529 0.35926 0 0.83169 0.83681 3.2842 1.8596 5.45s2.8861 7.0878 4.1407 10.938c1.2546 3.85 2.9047 8.5028 3.6669 10.339 1.8652 4.4948 3.6471 22.89 3.1178 32.188-0.46748 8.2126-7.5628 23.858-15.087 33.266-1.85 2.3134-4.4277 6.0062-5.7283 8.2062-3.4322 5.806-4.8305 6.5782-7.0557 3.897zm-156.91-6.71c0-2.2613 2.6104-7.8534 5.4305-11.634 1.4132-1.8944 2.5695-3.88 2.5695-4.4124 0-1.8983 6.1849-10.567 7.9357-11.123 5.6863-1.8048 11.152 9.5561 7.0846 14.727-3.96 5.03-23.02 15.33-23.02 12.44zm115.54-6.2506c-1.9128-15.309 4.5349-40.161 9.8868-38.107 2.5453 0.97674 0.74666 10.461-4.1084 21.662-0.8329 1.9216-1.656 6.734-1.8291 10.694-0.53267 12.187-2.7431 15.406-3.9494 5.751zm102.22-34.419c-2.5524-2.0077-11.902-16.763-13.187-20.811-1.1841-3.7308 5.3319-2.035 12.378 3.2213 1.8944 1.4132 3.88 2.5695 4.4124 2.5695 1.8983 0 10.567 6.1849 11.123 7.9357 1.8048 5.6863-9.5561 11.152-14.727 7.0846zm-89.66-17.77c-1.1648-0.9625-3.0561-4.45-4.2028-7.75s-2.452-6.45-2.9005-7c-3.2472-3.9814-3.7579-22.454-0.90037-32.568 7.2359-25.609 7.5811-40.714 1.1013-48.188-1.8849-2.1743-1.0392-3.171 2.0357-2.3992 1.4362 0.36045 3.1637 2.229 4.5028 4.8701 1.1949 2.3569 3.0549 5.8603 4.1334 7.7853 9.3538 16.696 13.159 43.296 8.094 56.577-0.61307 1.6075-1.4852 4.7227-1.9381 6.9227s-1.7527 6.25-2.8885 9-2.3346 7.1375-2.664 9.75c-0.65753 5.2141-1.2234 5.6023-4.3728 3zm84.4-31.4c-14.917-3.5054-22.709-8.0284-32.867-19.077-7.428-8.0793-9.5508-11.784-5.8831-10.267 0.9625 0.39807 5.35 1.0902 9.75 1.5381 12.936 1.3167 27.297 7.0922 35.603 14.318 1.9818 1.724 5.2443 4.3912 7.25 5.9272 7.7593 5.942-0.81891 10.624-13.853 7.5607zm-172.75-13.54c-2.6545-0.69368-2.0957-3.0806 1.1092-4.7378 3.4298-1.7736 4.2327-3.6189 8.1671-18.77 1.6706-6.4334 3.6954-12.958 4.4995-14.5 0.8041-1.5416 1.4648-3.2971 1.4682-3.901 0.003-0.60396 3.376-4.429 7.4946-8.5s7.4936-7.7925 7.5-8.2699c0.006-0.4774 1.3394-2.3803 2.9623-4.2286 1.6229-1.8484 3.2516-4.9648 3.6194-6.9255 1.5577-8.3032 4.4582 0.67566 3.8837 12.022-0.78428 15.488-8.5766 40.369-14.236 45.455-9.9763 8.9648-20.552 13.902-26.468 12.356zm133.75-38.88c-2.75-0.71693-6.9691-2.0076-9.3757-2.8682-2.4-0.86-5.15-1.56-6.1-1.56-0.94833 0-3.4792-1.2706-5.6243-2.8236-2.145-1.553-7.05-5.0218-10.9-7.7086-6.9837-4.8736-9.5555-7.2761-11.631-10.866-1.262-2.1824-0.72234-2.12 11.631 1.344 6.3729 1.787 9.1053 1.9101 30.5 1.3745 19.819-0.4962 24.329-0.33887 28.793 1.0044 3.9684 1.1942 5.9705 1.3343 8 0.55988 2.7998-1.0683 10.207 0.5532 10.207 2.2344 0 7.521-15.745 17.655-29.5 18.988-4.95 0.47959-9.45 1.0423-10 1.2505s-3.25-0.20804-6-0.92497zm10.031-41.305c-3.2466-2.6828-6.7363-4.4083-11.359-5.6164-18.88-4.92-23.52-6.54-30.47-10.59-15.83-9.23-13.67-11.433 11.1-11.339 28.34 0.108 37.2 5.939 37.2 24.499 0 8.0705-0.25938 8.1933-6.4685 3.0624zm-115.03-34.246c-1.65-2.8035-4.232-7.1845-5.7377-9.7356-1.5-2.551-3.16-5.988-3.69-7.638-2.4636-7.7703-4.3126-11.819-7.7983-17.076-5.9692-9.0026-7.7118-12.831-9.3387-20.516-1.2708-6.0024-0.18819-10.079 8.0705-30.39 3.2206-7.9205 4.9238-6.3477 3.474 3.2082-0.4 2.626-0.74 9.049-0.75 14.274l-0.0294 9.5 7.2337 14c3.9785 7.7 8.0503 16.25 9.0484 19 0.99808 2.75 2.1596 5.854 2.5811 6.8979 0.66201 1.6393 0.40351 1.8285-1.8973 1.3887-3.0378-0.58071-3.7891 2.0346-1.2015 4.1821 1.96 1.624 5.54 11.367 5.54 15.069 0 4.4274-2.1092 3.5977-5.5-2.1635zm42.5 4.041c-11.75-1.661-20.46-5.349-20.81-8.814l-0.32-3.101h6.95c22.09 0 33.49-14.698 21.93-28.276-10.37-12.187-16.44-22.623-17.84-30.724-0.42986-2.475-1.1024-6.0192-1.4944-7.8761l-0.71287-3.3761 6.4002 0.55304c39.17 3.385 48.16 46.142 14.02 66.699-10.65 6.411-10.96 7.518-2.13 7.45 19.706-0.15216 30.927-2.188 40.326-7.3164 2.6545-1.4484 6.6026-3.557 8.7735-4.6859 7.7622-4.0363 12.398-14.845 15.418-35.948 2.2693-15.859 9.9689-28.152 18.829-30.064 4.312-0.93022 9.7627-3.7915 12.058-6.3298 2.9163-3.2246 6.0087-2.8382 5.1499 0.64359-0.37306 1.5125-1.029 4.775-1.4575 7.25-0.42858 2.475-1.4658 6.75-2.305 9.5-0.83916 2.75-2.5521 9.275-3.8066 14.5-4.3854 18.265-5.6913 21.517-10.956 27.277-4.8373 5.2928-15.01 11.695-18.67 11.751-1.023 0.01549-3.885 1.1213-6.36 2.4574-29.643 16.002-46.105 20.818-63 18.43zm30-13.703c0-0.43318 2.3033-3.0207 5.1184-5.75 2.8288-2.7426 6.1781-7.3108 7.4874-10.212 1.9695-4.3646 2.8041-5.25 4.949-5.25 6.4669 0-4.7025 16.92-13.654 20.684-3.66 1.539-3.9 1.572-3.9 0.528z"/>
</svg>
