<?xml version="1.0" encoding="UTF-8" standalone="no"?>
<!-- Created with Inkscape (http://www.inkscape.org/) -->

<svg
   xmlns:dc="http://purl.org/dc/elements/1.1/"
   xmlns:cc="http://creativecommons.org/ns#"
   xmlns:rdf="http://www.w3.org/1999/02/22-rdf-syntax-ns#"
   xmlns:svg="http://www.w3.org/2000/svg"
   xmlns="http://www.w3.org/2000/svg"
   xmlns:sodipodi="http://sodipodi.sourceforge.net/DTD/sodipodi-0.dtd"
   xmlns:inkscape="http://www.inkscape.org/namespaces/inkscape"
   width="598.81891"
   height="634.25195"
   id="svg3871"
   version="1.1"
   inkscape:version="0.48.4 r9939"
   sodipodi:docname="New document 4">
  <defs
     id="defs3" />
  <sodipodi:namedview
     inkscape:document-units="mm"
     id="base"
     pagecolor="#ffffff"
     bordercolor="#666666"
     borderopacity="1.0"
     inkscape:pageopacity="0.0"
     inkscape:pageshadow="2"
     inkscape:zoom="0.66789186"
     inkscape:cx="261.47302"
     inkscape:cy="311.24811"
     inkscape:current-layer="layer1"
     showgrid="false"
     units="mm"
     inkscape:window-width="1366"
     inkscape:window-height="684"
     inkscape:window-x="-8"
     inkscape:window-y="-8"
     inkscape:window-maximized="1" />
  <metadata
     id="metadata4">
    <rdf:RDF>
      <cc:Work
         rdf:about="">
        <dc:format>image/svg+xml</dc:format>
        <dc:type
           rdf:resource="http://purl.org/dc/dcmitype/StillImage" />
        <dc:title></dc:title>
      </cc:Work>
    </rdf:RDF>
  </metadata>
  <g
     inkscape:label="Layer 1"
     inkscape:groupmode="layer"
     id="layer1"
     transform="translate(0,-418.11142)">
    <path
       style="fill:#000000;fill-opacity:1;stroke:none"
       d="m 356.13208,430.24616 24.96875,142.78125 53.46875,-126.28125 -78.4375,-16.5 z m 7.625,7.5625 61.375,16.46875 -47.90625,-5.96875 7.5,82.34375 -20.96875,-92.84375 z m 177.46875,20.59375 -109.8125,130 153.96875,-61.90625 -44.15625,-68.09375 z m -0.0625,10.84375 21.71875,32.21875 -23.1875,-20.21875 -76.375,80.09375 77.84375,-92.09375 z m -288.3125,51.75 -19.84375,46.59375 113.59375,15.625 -93.75,-62.21875 z m 3.84375,9.65625 -7.46875,26.1875 73.34375,17.21875 -80.84375,-11.96875 14.96875,-31.4375 z m 164.78125,57.1875 -23.71875,28.0625 -26.1875,-20.75 -66.5,72.9375 c -27.13585,-14.09767 -57.96674,-22.0625 -90.65625,-22.0625 -108.75641,0 -196.906251,88.18109 -196.906251,196.9375 0,108.75641 88.149841,196.90629 196.906251,196.90629 108.75641,0 196.9375,-88.14988 196.9375,-196.90629 0,-52.95686 -20.8957,-101.04276 -54.90625,-136.4375 l 82.96875,-57.625 -27.28125,-21.625 27.6875,-11.125 -18.34375,-28.3125 z m 145.28125,10.40625 -93.34375,18.03125 101.125,25 -7.78125,-43.03125 z m -3.125,6.5 3.75,30.71875 -7.5,-24.71875 -66.625,3.75 70.375,-9.75 z m -191.65625,0.75 15.34375,22.78125 -1.875,2.25 -14.9375,-13.03125 -54.21875,56.875 c -0.55512,-0.33618 -1.12881,-0.63791 -1.6875,-0.96875 l 57.375,-67.90625 z m 20.125,29.84375 1.59375,2.375 -2.34375,-2.0625 0.75,-0.3125 z m 74.75,23.6875 44.6875,129.625 69.34375,-40.21875 -114.03125,-89.40625 z m -285.125,2.09375 9.34375,26.96875 -23.5625,6.34375 -7.5,-26.5625 21.71875,-6.75 z m 297.3125,13.25 85.34375,69.625 -47.15625,34.4375 33.6875,-36.6875 -71.875,-67.375 z m -337.09375,0.90625 7.21875,23.6875 c -47.35038,30.62522 -79.312501,88.69099 -79.312501,155.25 0,76.90982 42.710621,142.46839 102.500001,167.46879 C 94.787549,1011.2686 34.600829,935.95696 34.600829,844.62116 c 0,-78.99356 45.00375,-145.94736 107.343751,-169.34375 z m 32,345.68749 c 0.12816,0.064 0.24501,0.094 0.375,0.094 0.0412,0 0.0957,0.01 0.1875,0 0.0918,-0.01 0.17161,-0.031 0.21875,-0.031 0.12587,0 0.21854,0.038 0.28125,0.094 0.0549,0.048 0.0937,0.1055 0.0937,0.1875 0,0.051 -0.009,0.1 -0.0312,0.1562 -0.0755,0.189 -0.20291,0.2813 -0.375,0.2813 -0.0705,0 -0.15833,7e-4 -0.21875,-0.031 -0.0339,-0.018 -0.0457,-0.053 -0.0937,-0.094 0.0302,0.1441 0.0757,0.28 0.15625,0.4375 -0.18766,0.037 -0.39785,0.082 -0.59375,0.125 -0.005,-0.016 0,-0.012 0,-0.031 0,-0.024 0.0225,-0.059 0.0312,-0.062 0.0165,0 0.0305,-0.021 0.0625,-0.031 0.0343,-0.013 0.0625,-0.034 0.0625,-0.062 -0.0266,-0.2014 -0.0625,-0.3466 -0.0625,-0.4688 0,-0.1286 0.0378,-0.2542 0.0625,-0.375 -0.0298,0.011 -0.0681,0 -0.0937,0 -0.0329,0 -0.0713,-0.017 -0.0937,-0.031 l 0.0312,-0.1563 z m 0.6875,0.2813 c -0.0966,0 -0.17219,-0.01 -0.25,0.031 -0.0751,0.035 -0.125,0.086 -0.125,0.125 0,0.025 0.0274,0.044 0.0937,0.062 0.0609,0.017 0.15284,0.031 0.21875,0.031 0.0879,0 0.16944,-0.033 0.25,-0.062 0.0847,-0.031 0.125,-0.056 0.125,-0.094 0,-0.034 -0.0384,-0.074 -0.0937,-0.094 -0.0536,-0.02 -0.13087,0 -0.21875,0 z"
       id="path4432"
       inkscape:connector-curvature="0" />
  </g>
</svg>
