<?xml version="1.0" standalone="yes"?>

<svg version="1.1" viewBox="0.0 0.0 550.0 556.0" fill="none" stroke="none" stroke-linecap="square" stroke-miterlimit="10" xmlns="http://www.w3.org/2000/svg" xmlns:xlink="http://www.w3.org/1999/xlink"><clipPath id="p.0"><path d="m0 0l550.0 0l0 556.0l-550.0 0l0 -556.0z" clip-rule="nonzero"></path></clipPath><g clip-path="url(#p.0)"><path fill="#000000" fill-opacity="0.0" d="m0 0l550.0735 0l0 556.79004l-550.0735 0z" fill-rule="nonzero"></path><path fill="#cfe2f3" d="m894.2598 413.04987l-33.58264 -65.82153l-72.53546 -44.328064l-104.77692 -18.805786l-75.22308 16.118103l40.29657 14.7769165l48.35962 -9.404205l-28.20996 22.83728l63.13385 26.86615l52.388428 -13.433075l-20.149597 22.834625l55.07611 24.181122l28.207336 -16.120728l-6.7164917 25.522308z" fill-rule="nonzero"></path><path stroke="#000000" stroke-width="2.0" stroke-linejoin="round" stroke-linecap="butt" d="m894.2598 413.04987l-33.58264 -65.82153l-72.53546 -44.328064l-104.77692 -18.805786l-75.22308 16.118103l40.29657 14.7769165l48.35962 -9.404205l-28.20996 22.83728l63.13385 26.86615l52.388428 -13.433075l-20.149597 22.834625l55.07611 24.181122l28.207336 -16.120728l-6.7164917 25.522308z" fill-rule="nonzero"></path><path fill="#5ae53c" d="m573.7743 492.92126l0 -51.044617l55.073486 -53.7323l0 49.700806l17.461914 -59.102386l44.328125 -40.299194l-4.0288696 53.73227l21.493408 -63.136475l37.611572 -17.461945l-2.687683 32.23886l18.805786 -32.23886l30.89502 -4.0288696l8.060364 29.551178l-10.745422 25.522308l16.118103 -6.716522l-4.0288696 32.23883l-36.2677 22.83728l33.580017 1.341217l-30.894958 41.643036l-34.92389 1.3438416l29.551147 14.774261l-41.64038 40.299225l-60.448853 -8.060364l48.356934 18.80838l-57.76111 28.207336l-72.53546 -24.178467z" fill-rule="nonzero"></path><path fill="#5ae53c" d="m716.24146 191.34383l0 -51.044617l-28.594116 -53.732277l0 49.700783l-9.066284 -59.102364l-23.015137 -40.29921l2.0917969 53.732285l-11.159363 -63.136482l-19.527954 -17.461943l1.3954468 32.238846l-9.763977 -32.238846l-16.04065 -4.0288715l-4.1849365 29.55118l5.5789795 25.522312l-8.36853 -6.7165375l2.0917969 32.23885l18.8302 22.837265l-17.434753 1.3412094l16.04071 41.64305l18.132446 1.3438263l-15.342957 14.774277l21.61969 40.29921l31.38501 -8.060364l-25.106873 18.808395l29.989563 28.207352l37.6604 -24.178482z" fill-rule="nonzero"></path><path fill="#d9c887" d="m259.82678 199.48032l-22.162735 69.8504l-11.081375 55.07611l-28.493439 59.102356l-21.065613 89.997375l38.47769 24.183716l50.658783 -17.46457l3.1653748 -71.194214l7.915985 -72.53543l4.748047 -76.566925l14.249329 -65.82153z" fill-rule="nonzero"></path><path fill="#c3a55c" d="m172.87665 445.9685l56.417313 14.774261l52.388443 -6.7138977l1.3438416 81.93964l-59.10498 6.7165527l-73.87927 -13.433105z" fill-rule="nonzero"></path><path fill="#c3a55c" d="m197.23056 370.39896l48.435623 12.089233l37.36302 -9.404205l-1.3844299 69.85303l-45.55594 5.372711l-59.616394 -10.748047z" fill-rule="nonzero"></path><path fill="#c3a55c" d="m219.89108 294.84778l28.207336 12.089233l34.926514 -4.031494l-5.372711 63.136475l-41.643036 5.372711l-33.580048 -8.060364z" fill-rule="nonzero"></path><path fill="#c3a55c" d="m242.17455 231.5958l22.83464 13.43045l25.522308 -9.401581l-4.0288696 60.446198l-30.89502 4.031494l-32.359573 -8.813629z" fill-rule="nonzero"></path><path fill="#5ae53c" d="m251.95988 223.46426l-38.451904 -14.379257l-25.303787 -55.720047l37.439606 14.000717l-39.711044 -29.516846l-18.145004 -44.017654l39.366577 18.105263l-41.639282 -33.62406l-2.792099 -32.63498l23.545074 11.062222l-19.104523 -22.93966l5.4766235 -23.901466l24.481537 2.384883l16.265594 15.107924l-0.6190338 -13.769484l23.175568 12.050558l7.211563 33.158943l10.261642 -24.367325l22.858124 34.49738l-8.609222 26.113968l19.270813 -17.61435l18.885468 42.037117l-22.725525 42.274124l27.490692 -30.335907l5.3354187 50.510193l-38.197174 46.64029z" fill-rule="nonzero"></path><path fill="#5ae53c" d="m257.50656 209.07494l22.83728 -42.263397l73.87924 -19.585815l103.433075 0l63.136505 22.677582l18.805786 24.740082l-67.165375 -21.64833l29.551178 27.833862l-61.79004 4.123001l-47.015747 -26.802597l33.582703 29.894363l-68.50656 6.1855164l-25.522339 -20.617065l13.433075 24.740082l-45.671906 8.248047z" fill-rule="nonzero"></path><path fill="#5ae53c" d="m278.66486 221.40326l-8.528564 -50.223038l-65.21649 -42.46582l-100.11287 -31.360916l-68.394165 4.0901566l-26.148987 19.644272l71.963104 -1.814148l-37.543224 19.555824l58.482197 22.958755l54.11593 -13.204041l-42.107178 20.444443l64.32062 27.108261l31.325546 -13.383804l-20.948746 21.27327l41.556458 22.297836z" fill-rule="nonzero"></path><path fill="#5ae53c" d="m241.00874 175.59299l56.931107 -17.706665l66.898895 40.424606l66.20752 79.467636l17.709473 67.42346l-12.731506 35.084564l-21.318817 -69.66034l-8.950806 45.920807l-43.679657 -44.03421l-3.2607422 -58.478653l-8.433136 50.736923l-50.043823 -47.47415l4.304413 -36.805817l-16.170593 30.95671l-37.492294 -28.209915z" fill-rule="nonzero"></path><path fill="#5ae53c" d="m303.35526 201.50414l-36.08487 -34.16844l-76.49927 4.983597l-97.6822 34.01915l-51.836403 43.129913l-9.2620125 30.583588l55.99481 -43.440002l-18.347267 37.168793l59.770737 -16.256683l35.195053 -41.895874l-21.446838 40.526764l66.822296 -16.431702l17.021362 -28.726593l-4.188034 28.816498l45.96573 -6.887375z" fill-rule="nonzero"></path><path fill="#5ae53c" d="m258.83203 215.4357l-1.32547 -59.606308l57.299225 -53.16535l94.643036 -41.734905l69.6929 1.5643044l38.753296 35.480316l-76.566925 -10.745407l22.83725 30.895012l-24.178467 13.433067l-56.419952 1.341217l16.120728 12.091858l-45.960632 35.939636l-34.194214 -14.283463l25.299225 24.078735l-37.45407 28.262466z" fill-rule="nonzero"></path><path fill="#a88e4f" d="m260.20428 221.44801c4.3575134 -5.0790863 13.874664 -8.19548 21.328217 -9.003387c7.453583 -0.8079071 17.7742 1.7319794 23.393158 4.1559296c5.618988 2.4239502 7.6832275 6.1168365 10.320648 10.387787c2.6373901 4.2709503 4.7012024 10.158859 5.503784 15.237946c0.8025818 5.0790863 0.80236816 10.965637 -0.68829346 15.236572c-1.4906921 4.2709656 -4.9302063 7.5035095 -8.255707 10.38916c-3.3255005 2.88562 -6.995575 5.7705994 -11.697266 6.924713c-4.70166 1.1541443 -11.352631 1.0386658 -16.512726 0c-5.160095 -1.0386353 -10.319733 -3.3459778 -14.447815 -6.231842c-4.1280518 -2.8858643 -8.02713 -6.8124084 -10.320618 -11.083374c-2.293457 -4.2709503 -3.6696472 -8.5401 -3.4402008 -14.542358c0.22943115 -6.002243 0.45932007 -16.39206 4.816818 -21.471146z" fill-rule="nonzero"></path><path fill="#c3a55c" d="m292.88022 221.79054c0.8257446 -1.0112457 2.629242 -1.6317139 4.041687 -1.792572c1.4124756 -0.16085815 3.368225 0.34483337 4.433014 0.82743835c1.0647888 0.48262024 1.4559631 1.217865 1.9557495 2.0682068c0.49978638 0.85035706 0.89089966 2.0226288 1.0429688 3.0338745c0.15209961 1.0112457 0.15206909 2.183258 -0.13043213 3.033615c-0.2824707 0.8503418 -0.93426514 1.4939423 -1.5644531 2.0684662c-0.6301575 0.5745392 -1.3256531 1.148941 -2.2166138 1.3787231c-0.8909607 0.2297821 -2.1513367 0.20678711 -3.129181 0c-0.9778137 -0.20680237 -1.9555664 -0.6661835 -2.737854 -1.2407684c-0.7822571 -0.5745697 -1.5211487 -1.3563538 -1.9557495 -2.2066956c-0.43463135 -0.8503418 -0.69540405 -1.7003326 -0.6519165 -2.8953857c0.04345703 -1.1950531 0.08703613 -3.2636566 0.91278076 -4.2749023z" fill-rule="nonzero"></path><path fill="#c3a55c" d="m305.26712 232.61476c0.8257446 -1.0112457 2.629242 -1.6317139 4.0417175 -1.792572c1.4124451 -0.16085815 3.3681946 0.34483337 4.4329834 0.82743835c1.0647888 0.48260498 1.4559631 1.217865 1.9557495 2.0682068c0.4998169 0.85035706 0.89089966 2.0226288 1.0429993 3.0338745c0.15206909 1.0112457 0.15203857 2.183258 -0.13046265 3.033615c-0.2824707 0.8503418 -0.93426514 1.4939423 -1.5644531 2.0684662c-0.6301575 0.5745392 -1.3256531 1.1489258 -2.2166138 1.3787231c-0.8909607 0.2297821 -2.1513367 0.20678711 -3.129181 0c-0.9778137 -0.20680237 -1.9555664 -0.6661835 -2.737854 -1.2407684c-0.7822571 -0.5745697 -1.5211487 -1.3563538 -1.9557495 -2.2066956c-0.43460083 -0.8503418 -0.69540405 -1.7003326 -0.6519165 -2.8953857c0.04348755 -1.1950531 0.08703613 -3.2636566 0.91278076 -4.2749023z" fill-rule="nonzero"></path><path fill="#c3a55c" d="m291.3826 237.25043c0.8257446 -1.0112457 2.629242 -1.6317291 4.0417175 -1.792572c1.4124451 -0.16085815 3.3681946 0.34483337 4.4329834 0.82743835c1.0647888 0.48260498 1.4559937 1.217865 1.95578 2.0682068c0.49978638 0.8503418 0.89086914 2.0226288 1.0429688 3.0338745c0.15206909 1.0112457 0.15203857 2.183258 -0.13043213 3.0335999c-0.28250122 0.85035706 -0.93429565 1.4939575 -1.5644836 2.0684814c-0.6301575 0.5745392 -1.3256531 1.1489258 -2.2166138 1.3787231c-0.8909607 0.2297821 -2.1513367 0.20678711 -3.1291504 0c-0.97784424 -0.20680237 -1.9555969 -0.66619873 -2.7378845 -1.2407684c-0.7822571 -0.57458496 -1.5211487 -1.3563538 -1.9557495 -2.2066956c-0.43460083 -0.85035706 -0.69540405 -1.7003326 -0.6519165 -2.8953857c0.04348755 -1.1950531 0.08703613 -3.2636566 0.91278076 -4.2749023z" fill-rule="nonzero"></path><path fill="#a88e4f" d="m223.36731 272.68445c-6.4349365 -1.8363953 -14.999939 -4.593048 -19.199478 -10.109955c-4.199539 -5.5169373 -5.852478 -16.872955 -5.997757 -22.991516c-0.14527893 -6.118561 2.3478088 -9.538254 5.126068 -13.719864c2.7782593 -4.18161 7.264679 -8.517654 11.543488 -11.369751c4.2787933 -2.8521118 9.626678 -5.312546 14.129349 -5.742859c4.5026703 -0.43032837 8.875885 1.3455505 12.886688 3.160904c4.010788 1.8153534 8.165344 3.9417114 11.178101 7.731201c3.012741 3.7894897 5.686203 9.882721 6.8984528 15.005753c1.2122192 5.1230164 1.2719421 10.775299 0.375 15.732361c-0.89697266 4.957062 -2.8351135 10.141312 -5.7567444 14.010025c-2.921646 3.8687134 -6.575897 7.819916 -11.773087 9.202209c-5.1972046 1.3822937 -12.975159 0.9279175 -19.41008 -0.9085083z" fill-rule="nonzero"></path><path fill="#c3a55c" d="m207.9182 248.35835c-1.2636719 -0.32763672 -2.5808563 -1.707016 -3.3171082 -2.9231873c-0.7362671 -1.216156 -1.0939941 -3.2045746 -1.1004486 -4.3737946c-0.006439209 -1.1692047 0.49806213 -1.831955 1.0617523 -2.6414795c0.5636902 -0.8095398 1.4652557 -1.6548615 2.3203888 -2.2157135c0.85513306 -0.56085205 1.9198608 -1.0506744 2.8103943 -1.1494141c0.8905182 -0.098739624 1.7475281 0.22450256 2.5327606 0.5569763c0.78523254 0.33247375 1.5976105 0.7243347 2.1786194 1.437851c0.58099365 0.71351624 1.0867004 1.8683167 1.307373 2.8432465c0.22068787 0.97491455 0.21186829 2.0553436 0.016723633 3.0062866c-0.19514465 0.950943 -0.59664917 1.9490509 -1.187561 2.6993713c-0.5909271 0.7503052 -1.2541351 1.3425293 -2.357956 1.8025055c-1.1038208 0.4599762 -3.0012665 1.2849884 -4.2649384 0.9573517z" fill-rule="nonzero"></path><path fill="#c3a55c" d="m212.57622 232.57916c-1.2636871 -0.32763672 -2.5808716 -1.707016 -3.3171234 -2.9231873c-0.7362671 -1.216156 -1.0939941 -3.2045746 -1.1004333 -4.3737946c-0.006454468 -1.16922 0.49806213 -1.831955 1.0617523 -2.6414948c0.5636749 -0.80952454 1.4652405 -1.6548462 2.3203735 -2.2156982c0.85513306 -0.56085205 1.9198761 -1.0506744 2.8103943 -1.1494141c0.89053345 -0.098739624 1.7475281 0.22450256 2.5327606 0.5569763c0.78523254 0.3324585 1.5976257 0.72431946 2.1786194 1.4378357c0.5810089 0.71351624 1.0867004 1.8683319 1.3073883 2.8432617c0.2206726 0.97491455 0.21185303 2.0553436 0.016708374 3.0062866c-0.19514465 0.950943 -0.5966339 1.9490509 -1.187561 2.6993713c-0.59091187 0.7503052 -1.2541351 1.3425293 -2.357956 1.8025055c-1.1038055 0.4599762 -3.0012512 1.2849884 -4.264923 0.9573517z" fill-rule="nonzero"></path><path fill="#c3a55c" d="m222.58853 243.25752c-1.2636719 -0.32763672 -2.5808563 -1.707016 -3.3171082 -2.9231873c-0.7362671 -1.216156 -1.0939941 -3.2045746 -1.1004333 -4.3737946c-0.006454468 -1.1692047 0.49804688 -1.831955 1.0617371 -2.6414795c0.5636902 -0.8095398 1.4652557 -1.6548615 2.3203888 -2.2157135c0.85513306 -0.56085205 1.9198608 -1.0506744 2.8103943 -1.1494141c0.8905182 -0.098739624 1.7475281 0.22450256 2.5327606 0.5569763c0.78523254 0.33247375 1.5976257 0.7243347 2.1786194 1.437851c0.58099365 0.71351624 1.0867004 1.8683167 1.3073883 2.8432465c0.2206726 0.97491455 0.21185303 2.0553436 0.016708374 3.0062866c-0.19514465 0.950943 -0.59664917 1.9490509 -1.187561 2.6993713c-0.5909271 0.7503052 -1.2541351 1.3425293 -2.357956 1.8025055c-1.1038208 0.4599762 -3.0012512 1.2849884 -4.2649384 0.9573517z" fill-rule="nonzero"></path><path fill="#a88e4f" d="m290.65497 204.9563c1.3989563 -6.3890686 -1.7803955 -15.366364 -5.54657 -21.378403c-3.7661438 -6.012024 -11.840576 -12.05394 -17.050385 -14.693802c-5.2098083 -2.6398468 -9.314117 -1.8611603 -14.208435 -1.14534c-4.8943176 0.7158356 -10.714035 2.8643951 -15.15744 5.440323c-4.4434204 2.5759277 -9.044296 6.2489166 -11.503021 10.015259c-2.4587402 3.7663422 -2.9559937 8.324951 -3.249405 12.58284c-0.29341125 4.2578735 -0.3829651 8.769989 1.4889526 12.964478c1.8719177 4.1944733 5.8862915 9.0372925 9.742584 12.202393c3.8562927 3.1651154 8.703949 5.5382996 13.395157 6.7882233c4.691223 1.2499237 10.06073 1.6813354 14.752136 0.7113495c4.6913757 -0.96998596 8.840149 -2.6166992 13.39624 -6.53125c4.556061 -3.9145508 12.54126 -10.566986 13.940186 -16.95607z" fill-rule="nonzero"></path><path fill="#c3a55c" d="m271.10834 181.02351c0.30319214 -1.2411499 -0.27590942 -2.9610138 -0.9835205 -4.105133c-0.7076416 -1.1441193 -2.2568054 -2.2738495 -3.2622375 -2.7595825c-1.0054626 -0.48573303 -1.8109436 -0.3160553 -2.7704468 -0.15481567c-0.9595337 0.16122437 -2.1065369 0.60365295 -2.9866638 1.1222076c-0.8801575 0.51856995 -1.7961731 1.2498474 -2.294159 1.989151c-0.49798584 0.7393036 -0.6164551 1.6225281 -0.6937256 2.4466858c-0.07723999 0.82414246 -0.115875244 1.6964722 0.23019409 2.4982452c0.34606934 0.8017578 1.107666 1.7187805 1.8462219 2.3123474c0.7385559 0.5935669 1.6744995 1.0294647 2.585144 1.2490387c0.91064453 0.21957397 1.9576416 0.27781677 2.8786926 0.06842041c0.92108154 -0.20939636 1.7392883 -0.5470123 2.647705 -1.3247833c0.90841675 -0.77775574 2.4995728 -2.1006165 2.8027954 -3.3417816z" fill-rule="nonzero"></path><path fill="#c3a55c" d="m255.33965 178.62357c0.3032074 -1.2411499 -0.27589417 -2.9610138 -0.9835205 -4.105133c-0.70762634 -1.1441193 -2.2567902 -2.2738495 -3.2622375 -2.7595825c-1.0054321 -0.48573303 -1.8109131 -0.3160553 -2.7704315 -0.15481567c-0.95951843 0.16122437 -2.1065369 0.6036377 -2.986679 1.1222076c-0.8801422 0.5185547 -1.7961731 1.2498474 -2.2941437 1.989151c-0.49798584 0.7393036 -0.61647034 1.6225281 -0.6937256 2.4466705c-0.07725525 0.8241577 -0.115875244 1.6964874 0.23019409 2.4982605c0.34606934 0.8017578 1.107666 1.7187805 1.8462219 2.3123474c0.7385559 0.5935669 1.6745148 1.0294647 2.585144 1.2490387c0.91064453 0.21957397 1.9576263 0.27781677 2.8786926 0.06842041c0.9210663 -0.20939636 1.7392883 -0.5470276 2.647705 -1.3247833c0.90841675 -0.77775574 2.4995728 -2.1006317 2.8027802 -3.3417816z" fill-rule="nonzero"></path><path fill="#c3a55c" d="m259.90826 191.77614c0.30322266 -1.2411499 -0.2758789 -2.9610138 -0.9835205 -4.105133c-0.7076111 -1.1441193 -2.256775 -2.2738495 -3.2622223 -2.7595825c-1.0054474 -0.48573303 -1.8109283 -0.3160553 -2.7704468 -0.15481567c-0.95951843 0.16122437 -2.1065369 0.60365295 -2.986679 1.1222076c-0.88012695 0.51856995 -1.7961731 1.2498474 -2.2941437 1.989151c-0.49798584 0.7393036 -0.61647034 1.6225281 -0.6937256 2.4466858c-0.07723999 0.82414246 -0.115859985 1.6964722 0.23020935 2.4982452c0.34606934 0.8017578 1.1076508 1.7187805 1.8462067 2.3123474c0.73857117 0.5935669 1.6745148 1.0294647 2.585144 1.2490387c0.91064453 0.21957397 1.9576263 0.27781677 2.8786926 0.06842041c0.9210663 -0.20939636 1.7393036 -0.5470276 2.6477203 -1.3247833c0.90841675 -0.77775574 2.4995728 -2.1006165 2.802765 -3.3417816z" fill-rule="nonzero"></path></g></svg>

