<?xml version="1.0" encoding="UTF-8" standalone="no"?>
<!-- Created with Inkscape (http://www.inkscape.org/) -->

<svg
   xmlns:dc="http://purl.org/dc/elements/1.1/"
   xmlns:cc="http://creativecommons.org/ns#"
   xmlns:rdf="http://www.w3.org/1999/02/22-rdf-syntax-ns#"
   xmlns:svg="http://www.w3.org/2000/svg"
   xmlns="http://www.w3.org/2000/svg"
   xmlns:sodipodi="http://sodipodi.sourceforge.net/DTD/sodipodi-0.dtd"
   xmlns:inkscape="http://www.inkscape.org/namespaces/inkscape"
   width="1052.3622"
   height="1052.3622"
   id="svg2"
   version="1.1"
   inkscape:version="0.48+devel r9772"
   sodipodi:docname="New document 1">
  <defs
     id="defs4" />
  <sodipodi:namedview
     id="base"
     pagecolor="#ffffff"
     bordercolor="#666666"
     borderopacity="1.0"
     inkscape:pageopacity="0.0"
     inkscape:pageshadow="2"
     inkscape:zoom="0.60150394"
     inkscape:cx="370.38474"
     inkscape:cy="526.18109"
     inkscape:document-units="px"
     inkscape:current-layer="layer1"
     showgrid="false"
     units="mm"
     inkscape:window-width="1440"
     inkscape:window-height="851"
     inkscape:window-x="0"
     inkscape:window-y="1"
     inkscape:window-maximized="1" />
  <metadata
     id="metadata7">
    <rdf:RDF>
      <cc:Work
         rdf:about="">
        <dc:format>image/svg+xml</dc:format>
        <dc:type
           rdf:resource="http://purl.org/dc/dcmitype/StillImage" />
        <dc:title></dc:title>
      </cc:Work>
    </rdf:RDF>
  </metadata>
  <g
     inkscape:label="Layer 1"
     inkscape:groupmode="layer"
     id="layer1"
     transform="translate(0,-6.1562498e-6)">
    <rect
       style="fill:#f898a6;fill-opacity:1;stroke:none"
       id="rect3889"
       width="1065.6622"
       height="1070.6497"
       x="-4.9874983"
       y="-3.3249991" />
    <g
       id="g3891"
       transform="matrix(5.7506999,0,0,5.7506999,-1685.0067,-2361.9819)">
      <g
         id="g3871">
        <path
           style="fill:none;stroke:#000000;stroke-width:2;stroke-linecap:round;stroke-linejoin:round;stroke-miterlimit:4;stroke-opacity:1;stroke-dasharray:none"
           d="m 407.19419,520.22052 c 26.86644,-1.00524 45.82203,3.42823 59.25117,11.66113"
           id="path3085"
           inkscape:connector-curvature="0"
           sodipodi:nodetypes="cc" />
        <path
           sodipodi:nodetypes="cc"
           inkscape:connector-curvature="0"
           id="path3087"
           d="m 406.56985,525.35568 c 26.72742,2.9088 44.83775,10.04925 56.92825,20.14589"
           style="fill:none;stroke:#000000;stroke-width:2;stroke-linecap:round;stroke-linejoin:round;stroke-miterlimit:4;stroke-opacity:1;stroke-dasharray:none"
           inkscape:transform-center-x="-29.100445"
           inkscape:transform-center-y="10.07821" />
      </g>
      <g
         id="g3867">
        <path
           sodipodi:type="arc"
           style="fill:#fdcb15;fill-opacity:1;stroke:#000000;stroke-width:1.8121469;stroke-miterlimit:4;stroke-dasharray:none"
           id="path3089"
           sodipodi:cx="-427.67996"
           sodipodi:cy="475.29364"
           sodipodi:rx="11.661134"
           sodipodi:ry="11.661134"
           d="m -416.01883,475.29364 c 0,6.44027 -5.22087,11.66113 -11.66113,11.66113 -6.44027,0 -11.66114,-5.22086 -11.66114,-11.66113 0,-6.44027 5.22087,-11.66113 11.66114,-11.66113 6.44026,0 11.66113,5.22086 11.66113,11.66113 z"
           transform="matrix(1.1036633,0,0,1.1036633,836.03116,-40.902851)" />
        <path
           transform="matrix(0.2730612,0,0,0.2730612,480.79929,356.39838)"
           d="m -416.01883,475.29364 c 0,6.44027 -5.22087,11.66113 -11.66113,11.66113 -6.44027,0 -11.66114,-5.22086 -11.66114,-11.66113 0,-6.44027 5.22087,-11.66113 11.66114,-11.66113 6.44026,0 11.66113,5.22086 11.66113,11.66113 z"
           sodipodi:ry="11.661134"
           sodipodi:rx="11.661134"
           sodipodi:cy="475.29364"
           sodipodi:cx="-427.67996"
           id="path3091"
           style="fill:#000000;stroke:#000000"
           sodipodi:type="arc" />
      </g>
      <path
         style="fill:#ee9caa;fill-opacity:1;stroke:#000000;stroke-width:2;stroke-linecap:round;stroke-linejoin:round;stroke-miterlimit:4;stroke-opacity:1;stroke-dasharray:none"
         d="m 383.86959,488.95703 c 7.0968,5.21178 11.46836,10.24385 13.79886,16.50952 -9.91513,3.70603 -19.45947,3.99617 -28.53855,0 3.82222,-8.19956 9.28087,-12.35272 14.73969,-16.50952 z"
         id="path3095"
         inkscape:connector-curvature="0"
         sodipodi:nodetypes="cccc" />
      <path
         sodipodi:nodetypes="cccc"
         inkscape:connector-curvature="0"
         id="path3093"
         d="m 383.87192,518.32952 c 5.28997,-3.9797 10.99159,-7.82218 13.8673,-12.60663 -9.9643,-2.82991 -19.55598,-3.05146 -28.68009,0 4.39037,5.84388 9.60223,9.22331 14.81279,12.60663 z"
         style="fill:#b85c8b;fill-opacity:1;stroke:#000000;stroke-width:2;stroke-linecap:round;stroke-linejoin:round;stroke-miterlimit:4;stroke-opacity:1;stroke-dasharray:none" />
      <path
         sodipodi:nodetypes="ccccc"
         inkscape:connector-curvature="0"
         id="path3097"
         d="m 348.52568,471.91044 c 3.86508,-4.09588 7.94068,-7.93913 15.67384,-7.39332 l -4.14026,-6.06252 c -7.21103,1.11878 -11.2123,5.44732 -14.93451,10.05492 z"
         style="fill:#000000;stroke:#000000;stroke-width:1px;stroke-linecap:round;stroke-linejoin:round;stroke-opacity:1" />
      <g
         transform="matrix(-1,0,0,1,769.01521,0)"
         id="g3875">
        <path
           sodipodi:nodetypes="cc"
           inkscape:connector-curvature="0"
           id="path3877"
           d="m 407.19419,520.22052 c 26.86644,-1.00524 45.82203,3.42823 59.25117,11.66113"
           style="fill:none;stroke:#000000;stroke-width:2;stroke-linecap:round;stroke-linejoin:round;stroke-miterlimit:4;stroke-opacity:1;stroke-dasharray:none" />
        <path
           inkscape:transform-center-y="10.07821"
           inkscape:transform-center-x="-29.100445"
           style="fill:none;stroke:#000000;stroke-width:2;stroke-linecap:round;stroke-linejoin:round;stroke-miterlimit:4;stroke-opacity:1;stroke-dasharray:none"
           d="m 406.56985,525.35568 c 26.72742,2.9088 44.83775,10.04925 56.92825,20.14589"
           id="path3879"
           inkscape:connector-curvature="0"
           sodipodi:nodetypes="cc" />
      </g>
      <g
         transform="matrix(-1,0,0,1,768.03296,0)"
         id="g3881">
        <path
           transform="matrix(1.1036633,0,0,1.1036633,836.03116,-40.902851)"
           d="m -416.01883,475.29364 c 0,6.44027 -5.22087,11.66113 -11.66113,11.66113 -6.44027,0 -11.66114,-5.22086 -11.66114,-11.66113 0,-6.44027 5.22087,-11.66113 11.66114,-11.66113 6.44026,0 11.66113,5.22086 11.66113,11.66113 z"
           sodipodi:ry="11.661134"
           sodipodi:rx="11.661134"
           sodipodi:cy="475.29364"
           sodipodi:cx="-427.67996"
           id="path3883"
           style="fill:#fdcb15;fill-opacity:1;stroke:#000000;stroke-width:1.8121469;stroke-miterlimit:4;stroke-dasharray:none"
           sodipodi:type="arc" />
        <path
           sodipodi:type="arc"
           style="fill:#000000;stroke:#000000"
           id="path3885"
           sodipodi:cx="-427.67996"
           sodipodi:cy="475.29364"
           sodipodi:rx="11.661134"
           sodipodi:ry="11.661134"
           d="m -416.01883,475.29364 c 0,6.44027 -5.22087,11.66113 -11.66113,11.66113 -6.44027,0 -11.66114,-5.22086 -11.66114,-11.66113 0,-6.44027 5.22087,-11.66113 11.66114,-11.66113 6.44026,0 11.66113,5.22086 11.66113,11.66113 z"
           transform="matrix(0.2730612,0,0,0.2730612,480.79929,356.39838)" />
      </g>
      <path
         style="fill:#000000;stroke:#000000;stroke-width:1px;stroke-linecap:round;stroke-linejoin:round;stroke-opacity:1"
         d="m 418.79859,471.91044 c -3.86508,-4.09588 -7.94068,-7.93913 -15.67384,-7.39332 l 4.14026,-6.06252 c 7.21103,1.11878 11.2123,5.44732 14.93451,10.05492 z"
         id="path3887"
         inkscape:connector-curvature="0"
         sodipodi:nodetypes="ccccc" />
    </g>
  </g>
</svg>
