<?xml version="1.0" encoding="UTF-8" standalone="no"?>
<!-- Created with Inkscape (http://www.inkscape.org/) -->

<svg
   xmlns:dc="http://purl.org/dc/elements/1.1/"
   xmlns:cc="http://creativecommons.org/ns#"
   xmlns:rdf="http://www.w3.org/1999/02/22-rdf-syntax-ns#"
   xmlns:svg="http://www.w3.org/2000/svg"
   xmlns="http://www.w3.org/2000/svg"
   xmlns:sodipodi="http://sodipodi.sourceforge.net/DTD/sodipodi-0.dtd"
   xmlns:inkscape="http://www.inkscape.org/namespaces/inkscape"
   width="322.98346"
   height="331.64526"
   id="svg3198"
   version="1.1"
   inkscape:version="0.48.4 r9939"
   sodipodi:docname="New document 6">
  <defs
     id="defs3200" />
  <sodipodi:namedview
     id="base"
     pagecolor="#ffffff"
     bordercolor="#666666"
     borderopacity="1.0"
     inkscape:pageopacity="0.0"
     inkscape:pageshadow="2"
     inkscape:zoom="0.7"
     inkscape:cx="150.75859"
     inkscape:cy="194.45092"
     inkscape:document-units="px"
     inkscape:current-layer="layer1"
     showgrid="false"
     fit-margin-top="0"
     fit-margin-left="0"
     fit-margin-right="0"
     fit-margin-bottom="0"
     inkscape:window-width="1301"
     inkscape:window-height="744"
     inkscape:window-x="65"
     inkscape:window-y="24"
     inkscape:window-maximized="1" />
  <metadata
     id="metadata3203">
    <rdf:RDF>
      <cc:Work
         rdf:about="">
        <dc:format>image/svg+xml</dc:format>
        <dc:type
           rdf:resource="http://purl.org/dc/dcmitype/StillImage" />
        <dc:title></dc:title>
      </cc:Work>
    </rdf:RDF>
  </metadata>
  <g
     inkscape:label="Layer 1"
     inkscape:groupmode="layer"
     id="layer1"
     transform="translate(-285.88468,-351.84125)">
    <g
       id="g3255"
       transform="matrix(0.99792624,0.06436778,-0.06436778,0.99792624,34.219603,-28.18748)">
      <path
         sodipodi:nodetypes="sssss"
         inkscape:connector-curvature="0"
         id="path4159"
         d="m 470.42074,450.69383 c 4.54499,42.78814 25.57617,75.63217 46.97448,73.35923 21.39831,-2.27295 35.06063,-38.80217 30.51563,-81.59029 -4.54499,-42.78814 -23.23229,-95.95846 -44.6306,-93.68551 -21.39832,2.27295 -37.40452,59.12843 -32.85951,101.91657 z"
         style="fill:#ff62ff;fill-opacity:1;stroke:none" />
      <path
         style="fill:#ff9bff;fill-opacity:1;stroke:none"
         d="m 466.34175,450.54663 c 4.54499,42.78813 25.57618,75.63218 46.9745,73.35922 21.39831,-2.27294 35.06061,-38.80215 30.51562,-81.59029 -4.54499,-42.78814 -23.2323,-95.95845 -44.6306,-93.6855 -21.39831,2.27294 -37.40451,59.12844 -32.85952,101.91657 z"
         id="path3829-4"
         inkscape:connector-curvature="0"
         sodipodi:nodetypes="sssss" />
      <path
         style="fill:#fdd99b;fill-opacity:1;stroke:none"
         d="m 477.61839,464.19526 c 3.18443,29.97937 18.86327,54.53306 29.8002,53.37133 10.93691,-1.16173 17.22154,-26.40656 14.0371,-56.38593 -3.18443,-29.97934 -13.61734,-70.57674 -21.81934,-63.24917 -14.60032,13.04372 -25.2024,36.28442 -22.01796,66.26377 z"
         id="path3850-5"
         inkscape:connector-curvature="0"
         sodipodi:nodetypes="sssss" />
      <path
         sodipodi:nodetypes="sssss"
         inkscape:connector-curvature="0"
         id="path4157"
         d="m 444.03173,383.55391 c 10.45937,30.89345 2.08172,84.62146 -18.71206,120.00482 -20.79376,35.38337 -46.12942,39.02316 -56.58879,8.1297 -10.45939,-30.8935 -9.06428,-74.08575 11.72948,-109.46912 20.79379,-35.38336 53.11198,-49.55888 63.57137,-18.6654 z"
         style="fill:#ff62ff;fill-opacity:1;stroke:none" />
      <path
         style="fill:#ff9bff;fill-opacity:1;stroke:none"
         d="m 448.64361,380.60127 c 10.45937,30.89346 2.08172,84.62146 -18.71206,120.00483 -20.79376,35.38336 -46.12942,39.02316 -56.58878,8.12969 -10.45939,-30.8935 -9.06428,-74.08575 11.72947,-109.46912 20.79379,-35.38336 53.11198,-49.55886 63.57137,-18.6654 z"
         id="path3829-1-8"
         inkscape:connector-curvature="0"
         sodipodi:nodetypes="sssss" />
      <path
         style="fill:#fdd99b;fill-opacity:1;stroke:none"
         d="m 389.13333,448.02458 c -9.61699,32.82588 -9.10488,77.12576 1.44991,80.21799 10.55481,3.09225 26.90727,-21.01163 36.52425,-53.83751 9.61698,-32.82583 8.85675,-61.94324 -1.69806,-65.03547 -10.5548,-3.09225 -26.65912,5.82914 -36.2761,38.65499 z"
         id="path3850-6-8"
         inkscape:connector-curvature="0"
         sodipodi:nodetypes="sssss" />
      <path
         sodipodi:nodetypes="sssss"
         inkscape:connector-curvature="0"
         id="path4155"
         d="m 335.38029,594.21234 c -13.08969,73.90304 22.08043,97.51036 115.17078,89.80085 77.63106,-6.42922 126.29223,-42.67769 110.02547,-93.94392 -24.53999,-77.34005 -56.29526,-94.80097 -112.36531,-86.57471 -71.67652,10.51592 -103.05274,35.51112 -112.83094,90.71778 z"
         style="fill:#ff67ff;fill-opacity:1;stroke:none" />
      <path
         style="fill:#ff9bff;fill-opacity:1;stroke:none"
         d="m 334.5267,586.17633 c -13.0897,73.90304 22.08042,97.51035 115.17076,89.80084 77.63108,-6.42921 126.29225,-42.67768 110.02549,-93.94391 -24.53999,-77.34005 -51.30048,-90.83841 -107.37054,-82.61215 -71.67652,10.51592 -108.04751,31.54856 -117.82571,86.75522 z"
         id="path3763-1"
         inkscape:connector-curvature="0"
         sodipodi:nodetypes="sssss" />
      <path
         sodipodi:type="arc"
         style="fill:#ffffff;fill-opacity:1;stroke:none"
         id="path3766-21"
         sodipodi:cx="407.23578"
         sodipodi:cy="398.93781"
         sodipodi:rx="32.613495"
         sodipodi:ry="31.747652"
         d="m 439.84927,398.93781 c 0,17.53374 -14.60156,31.74765 -32.61349,31.74765 -18.01194,0 -32.6135,-14.21391 -32.6135,-31.74765 0,-17.53375 14.60156,-31.74766 32.6135,-31.74766 18.01193,0 32.61349,14.21391 32.61349,31.74766 z"
         transform="matrix(-0.68338433,0.07258968,0.07529665,0.70886867,766.6899,272.41743)" />
      <path
         sodipodi:type="arc"
         style="fill:#000000;fill-opacity:1;stroke:none"
         id="path3766-2-4"
         sodipodi:cx="407.23578"
         sodipodi:cy="398.93781"
         sodipodi:rx="32.613495"
         sodipodi:ry="31.747652"
         d="m 439.84927,398.93781 c 0,17.53374 -14.60156,31.74765 -32.61349,31.74765 -18.01194,0 -32.6135,-14.21391 -32.6135,-31.74765 0,-17.53375 14.60156,-31.74766 32.6135,-31.74766 18.01193,0 32.61349,14.21391 32.61349,31.74766 z"
         transform="matrix(-0.48406388,0.05334516,0.05482838,0.5355229,691.80616,351.93809)" />
      <path
         style="fill:#565248;fill-opacity:1;stroke:none"
         d="m 424.57234,608.95312 c 0.91212,8.58697 11.52697,15.40745 22.18105,14.27576 10.65411,-1.13168 17.31296,-9.787 16.40085,-18.37396 -0.91212,-8.58697 -10.58229,-8.14877 -21.23639,-7.01709 -10.65409,1.13169 -18.25762,2.52833 -17.34551,11.11529 z"
         id="path3827-8"
         inkscape:connector-curvature="0"
         sodipodi:nodetypes="sssss" />
      <path
         style="fill:none;stroke:#000000;stroke-width:3.67860222;stroke-linecap:round;stroke-linejoin:miter;stroke-miterlimit:1.29999995;stroke-opacity:1;stroke-dasharray:none"
         d="m 470.40541,628.59057 c -5.1158,11.6555 -14.79051,30.70762 -42.35299,6.54869"
         id="path3902-2"
         inkscape:connector-curvature="0"
         sodipodi:nodetypes="cc" />
      <path
         style="fill:#fdd99b;fill-opacity:1;stroke:none"
         d="m 492.3257,634.38231 c 0.80955,7.62148 7.82598,13.12433 15.67161,12.29096 7.84566,-0.83337 13.54953,-7.68739 12.73997,-15.30887 -0.80956,-7.62148 -7.33389,-12.35569 -15.17954,-11.52231 -7.84565,0.83336 -14.04161,6.91872 -13.23204,14.54022 z"
         id="path4024-2"
         inkscape:connector-curvature="0"
         sodipodi:nodetypes="sssss" />
      <path
         style="fill:#fdd99b;fill-opacity:1;stroke:none"
         d="m 388.71625,642.91836 c 0.79714,7.6215 7.706,13.12435 15.43136,12.29097 7.72536,-0.83336 13.34179,-7.68738 12.54464,-15.30886 -0.79715,-7.62148 -7.22144,-12.35568 -14.94681,-11.52232 -7.72535,0.83338 -13.82634,6.91873 -13.02919,14.54021 z"
         id="path4024-3-9"
         inkscape:connector-curvature="0"
         sodipodi:nodetypes="sssss" />
      <path
         sodipodi:type="arc"
         style="fill:#ffffff;fill-opacity:1;stroke:none"
         id="path3766-6-9"
         sodipodi:cx="407.23578"
         sodipodi:cy="398.93781"
         sodipodi:rx="32.613495"
         sodipodi:ry="31.747652"
         d="m 439.84927,398.93781 c 0,17.53374 -14.60156,31.74765 -32.61349,31.74765 -18.01194,0 -32.6135,-14.21391 -32.6135,-31.74765 0,-17.53375 14.60156,-31.74766 32.6135,-31.74766 18.01193,0 32.61349,14.21391 32.61349,31.74766 z"
         transform="matrix(-0.68338433,0.07258968,0.07529665,0.70886867,621.27206,285.91067)" />
      <path
         sodipodi:type="arc"
         style="fill:#000000;fill-opacity:1;stroke:none"
         id="path3766-2-2-8"
         sodipodi:cx="407.23578"
         sodipodi:cy="398.93781"
         sodipodi:rx="32.613495"
         sodipodi:ry="31.747652"
         d="m 439.84927,398.93781 c 0,17.53374 -14.60156,31.74765 -32.61349,31.74765 -18.01194,0 -32.6135,-14.21391 -32.6135,-31.74765 0,-17.53375 14.60156,-31.74766 32.6135,-31.74766 18.01193,0 32.61349,14.21391 32.61349,31.74766 z"
         transform="matrix(-0.50273161,0.0534006,0.05958134,0.56091927,554.91454,355.30747)" />
      <path
         style="fill:none;stroke:#000000;stroke-width:2.00397038;stroke-linecap:round;stroke-linejoin:miter;stroke-miterlimit:4;stroke-opacity:1;stroke-dasharray:none"
         d="m 350.95318,634.80913 c -21.5382,-4.7786 -38.58629,-5.05032 -56.06371,-12.12166"
         id="path4161-6"
         inkscape:connector-curvature="0"
         sodipodi:nodetypes="cc" />
      <path
         style="fill:none;stroke:#000000;stroke-width:2.00397038;stroke-linecap:round;stroke-linejoin:miter;stroke-miterlimit:4;stroke-opacity:1;stroke-dasharray:none"
         d="m 352.1709,641.22547 c -22.01901,1.37547 -38.47507,5.83745 -57.22744,3.88491"
         id="path4161-8-2"
         inkscape:connector-curvature="0"
         sodipodi:nodetypes="cc" />
      <path
         style="fill:none;stroke:#000000;stroke-width:2.00397038;stroke-linecap:round;stroke-linejoin:miter;stroke-miterlimit:4;stroke-opacity:1;stroke-dasharray:none"
         d="m 355.25818,645.90184 c -20.89502,7.08008 -35.61392,15.68618 -54.22517,18.70043"
         id="path4161-8-6-3"
         inkscape:connector-curvature="0"
         sodipodi:nodetypes="cc"
         inkscape:transform-center-x="14.513255"
         inkscape:transform-center-y="-7.2246641" />
      <path
         style="fill:none;stroke:#000000;stroke-width:1.83667159;stroke-linecap:round;stroke-linejoin:miter;stroke-miterlimit:4;stroke-opacity:1;stroke-dasharray:none"
         d="m 548.5119,608.96517 c 23.59272,-6.41591 42.95311,-8.98869 61.47355,-16.47431"
         id="path4161-82"
         inkscape:connector-curvature="0"
         sodipodi:nodetypes="cc" />
      <path
         style="fill:none;stroke:#000000;stroke-width:1.83667159;stroke-linecap:round;stroke-linejoin:miter;stroke-miterlimit:4;stroke-opacity:1;stroke-dasharray:none"
         d="m 548.0859,612.7386 c 25.48344,9.5e-4 44.68422,2.49411 66.24557,0.22754"
         id="path4161-8-62"
         inkscape:connector-curvature="0"
         sodipodi:nodetypes="cc" />
      <path
         style="fill:none;stroke:#000000;stroke-width:1.83667159;stroke-linecap:round;stroke-linejoin:miter;stroke-miterlimit:4;stroke-opacity:1;stroke-dasharray:none"
         d="m 542.79346,618.83754 c 24.44417,4.19231 41.8271,9.77199 63.45048,11.11673"
         id="path4161-8-6-7"
         inkscape:connector-curvature="0"
         sodipodi:nodetypes="cc"
         inkscape:transform-center-x="-16.771507"
         inkscape:transform-center-y="-5.2515916" />
    </g>
  </g>
</svg>
