<?xml version="1.0" encoding="UTF-8" standalone="no"?>
<svg xmlns:dc="http://purl.org/dc/elements/1.1/" xmlns:cc="http://creativecommons.org/ns#" xmlns:rdf="http://www.w3.org/1999/02/22-rdf-syntax-ns#" xmlns:svg="http://www.w3.org/2000/svg" xmlns="http://www.w3.org/2000/svg" xmlns:xlink="http://www.w3.org/1999/xlink" height="768" width="790" id="svg185" version="1.1" viewBox="0 0 790 768">
  <defs id="defs83">
    <filter id="ag">
      <feGaussianBlur id="feGaussianBlur2" stdDeviation=".2642" />
    </filter>
    <filter id="i">
      <feGaussianBlur id="feGaussianBlur5" stdDeviation=".3507" />
    </filter>
    <filter id="af">
      <feGaussianBlur id="feGaussianBlur8" stdDeviation="2.9904" />
    </filter>
    <filter id="ae">
      <feGaussianBlur id="feGaussianBlur11" stdDeviation="1.5761" />
    </filter>
    <linearGradient id="c">
      <stop id="stop14" offset="0" stop-color="#fff" />
      <stop id="stop16" offset="1" stop-opacity="0" stop-color="#fff" />
    </linearGradient>
    <linearGradient id="g">
      <stop id="stop19" offset="0" stop-color="#ffff6d" />
      <stop id="stop21" offset="1" stop-opacity="0" stop-color="#ffff6d" />
    </linearGradient>
    <linearGradient id="h">
      <stop id="stop24" offset="0" stop-color="#97970a" />
      <stop id="stop26" offset="1" stop-opacity="0" stop-color="#97970a" />
    </linearGradient>
    <linearGradient id="a">
      <stop id="stop29" offset="0" />
      <stop id="stop31" offset="1" stop-opacity="0" />
    </linearGradient>
    <linearGradient id="d">
      <stop id="stop34" offset="0" stop-color="#8e8b8b" />
      <stop id="stop36" offset=".5" stop-color="#e9e1e1" />
      <stop id="stop38" offset="1" stop-color="#ccc" />
    </linearGradient>
    <linearGradient gradientUnits="userSpaceOnUse" y2="259.6" y1="227.3" x2="320.7" x1="297.5" id="ad">
      <stop id="stop41" offset="0" stop-color="#8e8b8b" />
      <stop id="stop43" offset=".834" stop-color="#e9e1e1" />
      <stop id="stop45" offset="1" stop-color="#ccc" />
    </linearGradient>
    <linearGradient gradientUnits="userSpaceOnUse" y2="821.4" y1="861.7" x2="187.6" x1="189.1" id="aa">
      <stop id="stop48" offset="0" stop-color="#1a1a1a" />
      <stop id="stop50" offset="1" stop-opacity="0" stop-color="#1a1a1a" />
    </linearGradient>
    <linearGradient gradientUnits="userSpaceOnUse" y2="824.8" y1="883.2" x2="148.8" x1="128.8" id="p">
      <stop id="stop53" offset="0" stop-color="#333" />
      <stop id="stop55" offset="1" stop-opacity="0" stop-color="#333" />
    </linearGradient>
    <linearGradient xlink:href="#h" gradientUnits="userSpaceOnUse" y2="827.7" y1="981.3" x2="519.3" x1="517.8" id="b" />
    <linearGradient xlink:href="#h" gradientUnits="userSpaceOnUse" y2="681.7" y1="808.1" x2="675.9" x1="680.4" id="e" />
    <linearGradient xlink:href="#g" gradientUnits="userSpaceOnUse" y2="831.9" y1="822.4" x2="950.3" x1="407.3" id="ac" />
    <linearGradient xlink:href="#g" gradientUnits="userSpaceOnUse" y2="693.5" y1="730.8" x2="909.8" x1="362.6" id="ab" />
    <linearGradient xlink:href="#a" gradientUnits="userSpaceOnUse" y2="830.8" y1="866.7" x2="303.7" x1="301.2" id="f" />
    <linearGradient xlink:href="#d" gradientUnits="userSpaceOnUse" y2="896.3" y1="720.4" x2="305.2" x1="244" id="z" />
    <linearGradient xlink:href="#a" gradientUnits="userSpaceOnUse" y2="799.8" y1="790.5" x2="80.17" x1="89.33" id="y" />
    <linearGradient xlink:href="#a" gradientUnits="userSpaceOnUse" y2="793.4" y1="784" x2="124.8" x1="134" id="x" />
    <linearGradient xlink:href="#a" gradientUnits="userSpaceOnUse" y2="790.7" y1="781.3" x2="113.5" x1="122.6" id="w" />
    <linearGradient xlink:href="#a" gradientUnits="userSpaceOnUse" y2="791.1" y1="781.8" x2="101.4" x1="110.6" id="v" />
    <linearGradient xlink:href="#a" gradientUnits="userSpaceOnUse" y2="793.9" y1="784.6" x2="90.29" x1="99.46" id="u" />
    <linearGradient xlink:href="#d" gradientUnits="userSpaceOnUse" x2="252.4" x1="26.35" id="t" />
    <linearGradient xlink:href="#d" gradientUnits="userSpaceOnUse" x2="359.1" x1="298.6" id="s" />
    <linearGradient xlink:href="#d" gradientUnits="userSpaceOnUse" x2="358" x1="26.24" id="r" />
    <linearGradient xlink:href="#a" gradientUnits="userSpaceOnUse" y2="776" y1="795.6" x2="114.7" x1="116.1" id="q" />
    <radialGradient gradientUnits="userSpaceOnUse" gradientTransform="matrix(1.311,-0.1672,0.1528,1.465,-135.8,-63.06)" r="17.68" cy="248.3" cx="314.5" id="n">
      <stop id="stop73" offset="0" stop-color="#ececec" />
      <stop id="stop75" offset="1" stop-opacity="0" stop-color="#ececec" />
    </radialGradient>
    <radialGradient xlink:href="#a" gradientUnits="userSpaceOnUse" gradientTransform="matrix(1.491,-0.1629,0.0877,0.9814,-172.7,54.77)" r="18.47" cy="236.7" cx="307" id="o" />
    <radialGradient xlink:href="#c" gradientUnits="userSpaceOnUse" gradientTransform="matrix(1.739,0.267,-0.1115,0.7259,-223.1,170.8)" r="45.97" cy="615.8" cx="397.3" id="m" />
    <radialGradient xlink:href="#c" gradientUnits="userSpaceOnUse" gradientTransform="matrix(1.073,0.4008,-0.4659,1.247,302.7,-211.2)" r="42.01" cy="708.2" cx="393.9" id="l" />
    <radialGradient xlink:href="#c" gradientUnits="userSpaceOnUse" gradientTransform="matrix(1.516,-0.0221,0.0021,0.1411,-301.5,766.3)" r="170.7" cy="730.1" cx="659" id="k" />
    <radialGradient xlink:href="#c" gradientUnits="userSpaceOnUse" gradientTransform="matrix(1.775,-0.025,0.0028,0.1994,-461.7,587.7)" r="125.5" cy="584.6" cx="641.9" id="j" />
    <linearGradient y2="830.8" x2="303.7" y1="866.7" x1="301.2" gradientUnits="userSpaceOnUse" id="linearGradient4928" xlink:href="#a" />
    <linearGradient y2="681.7" x2="675.9" y1="808.1" x1="680.4" gradientUnits="userSpaceOnUse" id="linearGradient4930" xlink:href="#h" />
    <linearGradient y2="681.7" x2="675.9" y1="808.1" x1="680.4" gradientUnits="userSpaceOnUse" id="linearGradient4932" xlink:href="#h" />
    <linearGradient y2="827.7" x2="519.3" y1="981.3" x1="517.8" gradientUnits="userSpaceOnUse" id="linearGradient4934" xlink:href="#h" />
    <linearGradient y2="827.7" x2="519.3" y1="981.3" x1="517.8" gradientUnits="userSpaceOnUse" id="linearGradient4936" xlink:href="#h" />
    <linearGradient y2="827.7" x2="519.3" y1="981.3" x1="517.8" gradientUnits="userSpaceOnUse" id="linearGradient4938" xlink:href="#h" />
  </defs>
  <g id="g183" transform="rotate(45,961.8,421.5)">
    <path style="filter:url(#ae)" id="path85" d="M 342.2,734.6 304,735.6 298.8,745.7 303.9,747 C 289.4,744 274.9,740.9 261.9,745.2 261.5,745.4 261.1,745.5 260.6,745.7 260.2,745.9 259.7,746 259.3,746.2 258.8,746.4 258.4,746.6 257.9,746.9 L 258.3,746.3 H 258.4 L 258.8,745.7 255,736.1 200.8,742.4 62.6,783.9 64.22,784.2 63.03,784.5 61.47,797.8 H 61.44 L 61.5,797.2 61.1,797.8 61.85,800.6 61.35,807.1 C 61.32,808.2 61.4,809.3 61.72,810.4 61.8,810.6 61.89,810.9 62,811.1 H 61.85 C 62.83,816.8 63.32,822.7 66.88,827 110.4,839.9 153.6,851.5 196.4,860.4 198.1,861.3 199.6,861.4 200.9,860.9 221.2,863 240.7,865.5 258.3,862.9 V 862.9 862.9 862.9 L 259.8,858.9 262.6,850.9 263.1,852.4 C 279.5,856.1 293.3,856.9 301.5,851.3 L 306.1,861.4 H 306.2 V 861.5 L 346.8,861.4 347.2,846 V 845.7 L 352,807.6 330.5,806.9 C 329.8,808.1 329.1,809.3 328.4,810.4 329.1,809.3 329.8,808.1 330.5,806.9 330.5,806.8 330.5,806.8 330.5,806.8 330.6,806.7 330.7,806.5 330.7,806.4 330.8,806.3 330.8,806.2 330.9,806.1 V 805.9 C 333.1,799.5 332.3,794.7 331.1,790.1 331.1,790 331,790 331,789.9 L 345.5,790.3 H 346.4 L 351,790.4 350,776.8 Z M 211.7,744.8 C 205.9,746.1 200.1,747.4 194.4,748.8 200.2,747.4 205.9,746.1 211.7,744.8 Z M 256.6,747.4 C 255.8,747.8 255,748.3 254.2,748.7 255,748.3 255.8,747.8 256.6,747.4 Z M 145.3,761.4 C 141.4,762.4 137.5,763.5 133.7,764.6 120.7,768.2 107.7,771.9 94.75,775.5 107.7,771.9 120.6,768.2 133.7,764.6 137.5,763.5 141.4,762.4 145.3,761.4 Z M 226.1,793.7 C 226.1,793.9 226.1,794.2 226,794.5 V 794.5 C 226,794.2 226.1,793.9 226.1,793.7 Z M 148.7,794.5 153.5,799.7 V 799.7 H 153.6 V 799.8 L 158.5,797.2 161.3,800.6 159.7,803.5 157.2,801.5 152.2,808.3 147.2,805.4 141.6,811.2 136.8,807 131.8,811.1 131.5,811 V 811 L 127,807 121.9,809.5 V 809.5 L 121.8,809.4 H 121.7 V 809.4 L 118.1,804.7 119.7,802.6 122.8,804 V 804.2 804.1 L 128.5,797.6 133.1,800.3 V 800.4 L 138,795.1 138.2,794.9 143.4,798.9 143.5,799 V 799 799 L 146.1,796.8 148.6,794.7 V 794.7 Z M 103.2,796.2 C 103.3,796.3 103.3,796.4 103.3,796.5 V 796.5 C 103.3,796.4 103.3,796.3 103.2,796.2 Z M 100,796.3 C 100,796.4 100.1,796.5 100.1,796.6 V 796.6 C 100.1,796.5 100,796.4 100,796.3 Z M 96.75,796.4 C 96.8,796.5 96.83,796.6 96.85,796.7 H 96.82 C 96.81,796.6 96.79,796.5 96.75,796.4 Z M 93.5,796.4 C 93.56,796.5 93.58,796.7 93.6,796.8 H 93.57 C 93.56,796.7 93.55,796.5 93.5,796.4 Z M 87.1,796.9 C 87.1,797 87.13,797 87.13,797 H 87.1 C 87.1,797 87.1,797 87.1,796.9 Z M 83.85,797 C 83.85,797 83.88,797.1 83.88,797.1 H 83.85 C 83.85,797.1 83.85,797.1 83.85,797 Z M 80.57,797 C 80.57,797.1 80.6,797.1 80.6,797.2 80.6,797.2 80.6,797.2 80.6,797.2 H 80.53 C 80.54,797.2 80.57,797.1 80.57,797 Z M 77.32,797.1 C 77.32,797.2 77.35,797.2 77.35,797.3 77.35,797.3 77.35,797.3 77.35,797.3 H 77.28 C 77.3,797.2 77.32,797.2 77.32,797.1 Z M 74.07,797.2 C 74.07,797.2 74.1,797.3 74.1,797.3 74.1,797.4 74.1,797.4 74.1,797.4 H 74.07 C 74.08,797.3 74.07,797.3 74.07,797.2 Z M 65.19,797.4 C 65.2,797.5 65.25,797.6 65.28,797.7 H 65.25 C 65.23,797.6 65.19,797.5 65.19,797.5 65.19,797.4 65.19,797.4 65.19,797.4 Z M 68.47,797.4 C 68.48,797.4 68.49,797.5 68.5,797.6 H 68.47 C 68.46,797.5 68.44,797.5 68.44,797.4 68.44,797.4 68.47,797.4 68.47,797.4 Z M 61.94,797.4 C 61.95,797.6 62,797.7 62.03,797.8 H 62 C 61.98,797.7 61.94,797.6 61.94,797.5 61.94,797.5 61.94,797.5 61.94,797.4 Z M 67.6,797.4 C 67.6,797.5 67.57,797.6 67.57,797.6 67.58,797.6 67.59,797.5 67.6,797.4 Z M 62,811.1 C 62.12,811.4 62.26,811.6 62.41,811.8 62.26,811.6 62.12,811.4 62,811.1 Z M 310.6,831.4 C 309.9,832 309.1,832.5 308.4,833 309.1,832.5 309.9,832 310.6,831.4 Z M 298.8,838.4 H 298.9 C 298.6,838.5 298.4,838.6 298.2,838.7 297.7,838.9 297.2,839.1 296.8,839.2 296.7,839.3 296.6,839.3 296.5,839.4 296.3,839.4 296.1,839.5 295.9,839.5 296.2,839.4 296.5,839.3 296.8,839.2 297.5,839 298.2,838.7 298.8,838.4 Z M 291.9,840.7 C 291.2,840.9 290.5,841.1 289.8,841.2 290.5,841.1 291.2,840.9 291.9,840.7 Z M 272.4,842.1 C 272.8,842.1 273.3,842.1 273.8,842.2 274.5,842.2 275.2,842.3 275.9,842.3 274.7,842.2 273.5,842.2 272.4,842.1 Z" transform="matrix(1.145,0,0,1.145,-42.51,-119.4)" />
    <path style="fill:#b3b3b3" id="path87" d="M 26.82,806.5 C 27.94,813 28.51,819.8 32.58,824.8 82.37,839.5 131.9,852.8 181,862.9 182.8,864 184.5,864.1 186.1,863.6 209.3,865.9 231.7,868.8 251.8,865.8 L 256.7,851.9 253.1,839.7 C 252.9,839.6 252.6,839.6 252.4,839.5 L 248.1,848.5 C 173.8,839 99.32,830.3 28.83,808.9 28,808.2 27.4,807.4 27,806.6 V 806.5 Z" />
    <path style="fill:url(#p)" id="path89" d="M 26.82,806.5 C 27.94,813 28.51,819.8 32.58,824.8 82.37,839.5 131.9,852.8 181,862.9 182.8,864 184.5,864.1 186.1,863.6 209.3,865.9 231.7,868.8 251.8,865.8 L 256.7,851.9 253.1,839.7 C 252.9,839.6 252.6,839.6 252.4,839.5 L 248.1,848.5 C 173.8,839 99.32,830.3 28.83,808.9 28,808.2 27.4,807.4 27,806.6 V 806.5 Z" />
    <path style="fill:#233735" id="path91" d="M 108.3,771.8 102.6,778.3 97.14,774.6 91.21,783.4 87.17,781.5 81.67,789.4 C 81.49,788.8 80.97,788.4 80.35,788.4 79.65,788.4 79.13,789 79.06,789.7 H 77.99 C 77.91,789 77.34,788.5 76.63,788.5 76.54,788.5 76.44,788.4 76.35,788.5 75.77,788.6 75.36,789.2 75.31,789.8 L 74.27,789.9 C 74.21,789.1 73.64,788.5 72.92,788.5 72.19,788.5 71.64,789.2 71.59,789.9 L 70.59,790 C 70.54,789.2 69.93,788.6 69.2,788.6 68.45,788.6 67.85,789.2 67.84,790 L 66.88,790.1 C 66.84,789.3 66.23,788.6 65.48,788.7 64.72,788.7 64.11,789.3 64.12,790.1 L 63.16,790.2 C 63.15,789.4 62.52,788.7 61.77,788.7 61.01,788.7 60.39,789.4 60.41,790.2 60.41,790.2 60.41,790.3 60.41,790.3 H 59.44 C 59.44,790.3 59.44,790.3 59.44,790.2 59.43,789.4 58.81,788.8 58.05,788.8 57.29,788.8 56.68,789.5 56.69,790.3 56.69,790.3 56.72,790.4 56.73,790.4 H 55.73 C 55.73,790.4 55.73,790.3 55.73,790.3 55.71,789.5 55.06,788.9 54.3,788.9 53.54,788.9 52.96,789.5 52.98,790.4 52.98,790.4 53.01,790.5 53.01,790.5 H 52.01 C 52.01,790.5 52.01,790.4 52.01,790.4 52,789.6 51.34,788.9 50.58,788.9 49.82,789 49.25,789.6 49.26,790.4 49.26,790.5 49.29,790.5 49.29,790.6 H 48.22 C 48.23,790.6 48.26,790.5 48.26,790.4 48.24,789.6 47.62,789 46.86,789 46.11,789 45.53,789.7 45.54,790.5 45.54,790.6 45.6,790.6 45.61,790.7 L 44.51,790.8 C 44.52,790.7 44.54,790.6 44.54,790.5 44.53,789.7 43.91,789.1 43.15,789.1 42.39,789.1 41.78,789.8 41.79,790.6 41.79,790.7 41.81,790.7 41.83,790.8 L 40.83,790.9 C 40.84,790.8 40.83,790.7 40.83,790.6 40.81,789.8 40.19,789.1 39.43,789.2 38.67,789.2 38.06,789.8 38.07,790.6 38.08,790.8 38.12,790.8 38.15,790.9 L 37.11,791 C 37.13,790.9 37.11,790.8 37.11,790.6 37.1,789.8 36.47,789.2 35.72,789.2 34.96,789.2 34.34,789.9 34.36,790.7 34.36,790.8 34.4,790.9 34.43,791 L 33.36,791.1 C 33.39,791 33.39,790.9 33.39,790.7 33.38,789.9 32.76,789.3 32,789.3 31.24,789.3 30.63,789.9 30.64,790.8 30.64,790.9 30.71,791 30.75,791.2 H 29.64 C 29.67,791.1 29.68,790.9 29.68,790.8 29.66,790 29.04,789.3 28.28,789.3 27.52,789.4 26.91,790 26.92,790.8 26.93,791 26.98,791.1 27.03,791.3 H 26.35 L 26.42,790.6 25.96,791.3 29,802.5 90.64,799.9 93.07,796.8 96.68,798.5 103.2,791 108.4,794.1 114.3,788 120.4,792.7 126.3,787.5 131.9,793.6 137.6,790.6 141.9,796 145.8,791.5 214.2,789.5 216.2,776.2 V 776.2 C 216.2,776.2 216.2,776.2 216.2,776.3 L 138,778.7 138.4,781.6 136.3,781.5 131.2,773.9 125.1,777.3 120.2,771.8 114.3,777 Z" />
    <path style="fill:url(#q)" id="path93" d="M 108.3,771.8 102.6,778.3 97.14,774.6 91.21,783.4 87.17,781.5 81.67,789.4 C 81.49,788.8 80.97,788.4 80.35,788.4 79.65,788.4 79.13,789 79.06,789.7 H 77.99 C 77.91,789 77.34,788.5 76.63,788.5 76.54,788.5 76.44,788.4 76.35,788.5 75.77,788.6 75.36,789.2 75.31,789.8 L 74.27,789.9 C 74.21,789.1 73.64,788.5 72.92,788.5 72.19,788.5 71.64,789.2 71.59,789.9 L 70.59,790 C 70.54,789.2 69.93,788.6 69.2,788.6 68.45,788.6 67.85,789.2 67.84,790 L 66.88,790.1 C 66.84,789.3 66.23,788.6 65.48,788.7 64.72,788.7 64.11,789.3 64.12,790.1 L 63.16,790.2 C 63.15,789.4 62.52,788.7 61.77,788.7 61.01,788.7 60.39,789.4 60.41,790.2 60.41,790.2 60.41,790.3 60.41,790.3 H 59.44 C 59.44,790.3 59.44,790.3 59.44,790.2 59.43,789.4 58.81,788.8 58.05,788.8 57.29,788.8 56.68,789.5 56.69,790.3 56.69,790.3 56.72,790.4 56.73,790.4 H 55.73 C 55.73,790.4 55.73,790.3 55.73,790.3 55.71,789.5 55.06,788.9 54.3,788.9 53.54,788.9 52.96,789.5 52.98,790.4 52.98,790.4 53.01,790.5 53.01,790.5 H 52.01 C 52.01,790.5 52.01,790.4 52.01,790.4 52,789.6 51.34,788.9 50.58,788.9 49.82,789 49.25,789.6 49.26,790.4 49.26,790.5 49.29,790.5 49.29,790.6 H 48.22 C 48.23,790.6 48.26,790.5 48.26,790.4 48.24,789.6 47.62,789 46.86,789 46.11,789 45.53,789.7 45.54,790.5 45.54,790.6 45.6,790.6 45.61,790.7 L 44.51,790.8 C 44.52,790.7 44.54,790.6 44.54,790.5 44.53,789.7 43.91,789.1 43.15,789.1 42.39,789.1 41.78,789.8 41.79,790.6 41.79,790.7 41.81,790.7 41.83,790.8 L 40.83,790.9 C 40.84,790.8 40.83,790.7 40.83,790.6 40.81,789.8 40.19,789.1 39.43,789.2 38.67,789.2 38.06,789.8 38.07,790.6 38.08,790.8 38.12,790.8 38.15,790.9 L 37.11,791 C 37.13,790.9 37.11,790.8 37.11,790.6 37.1,789.8 36.47,789.2 35.72,789.2 34.96,789.2 34.34,789.9 34.36,790.7 34.36,790.8 34.4,790.9 34.43,791 L 33.36,791.1 C 33.39,791 33.39,790.9 33.39,790.7 33.38,789.9 32.76,789.3 32,789.3 31.24,789.3 30.63,789.9 30.64,790.8 30.64,790.9 30.71,791 30.75,791.2 H 29.64 C 29.67,791.1 29.68,790.9 29.68,790.8 29.66,790 29.04,789.3 28.28,789.3 27.52,789.4 26.91,790 26.92,790.8 26.93,791 26.98,791.1 27.03,791.3 H 26.35 L 26.42,790.6 25.96,791.3 29,802.5 90.64,799.9 93.07,796.8 96.68,798.5 103.2,791 108.4,794.1 114.3,788 120.4,792.7 126.3,787.5 131.9,793.6 137.6,790.6 141.9,796 145.8,791.5 214.2,789.5 216.2,776.2 V 776.2 C 216.2,776.2 216.2,776.2 216.2,776.3 L 138,778.7 138.4,781.6 136.3,781.5 131.2,773.9 125.1,777.3 120.2,771.8 114.3,777 Z" />
    <path style="fill:url(#r)" id="path95" d="M 347.9,718.9 304.2,720.1 305,733.4 C 287,729.6 268.8,725.5 253,732.2 219.2,747 216.1,771.2 214.1,795.8 L 138.8,797.8 136,795.5 130.3,803.3 124.5,800.1 118.2,806.6 112.6,801.9 106.7,806.6 101.4,801.9 95.47,804.7 89.56,797 85.27,799 82.4,792.5 H 81.94 C 81.75,793 81.3,793.4 80.72,793.4 80.13,793.4 79.63,793 79.43,792.5 H 78.22 C 78.04,793.1 77.59,793.5 77,793.5 76.38,793.5 75.83,793.1 75.64,792.5 H 74.53 C 74.35,793.1 73.85,793.5 73.24,793.5 72.61,793.6 72.09,793.1 71.92,792.5 L 70.81,792.6 C 70.64,793.2 70.14,793.6 69.52,793.6 68.89,793.6 68.37,793.2 68.19,792.6 H 67.08 C 66.94,793.2 66.44,793.7 65.8,793.7 65.16,793.7 64.63,793.2 64.47,792.6 H 63.4 C 63.27,793.3 62.73,793.7 62.07,793.8 61.42,793.8 60.9,793.3 60.75,792.6 H 59.68 C 59.56,793.3 59.02,793.8 58.35,793.8 57.67,793.8 57.12,793.3 56.99,792.6 L 55.95,792.7 C 55.85,793.4 55.31,793.9 54.63,793.9 53.94,793.9 53.38,793.4 53.27,792.7 H 52.23 C 52.14,793.4 51.6,794 50.91,794 50.21,794 49.65,793.4 49.55,792.7 H 48.47 C 48.4,793.4 47.89,794 47.19,794 46.47,794.1 45.91,793.5 45.83,792.8 H 44.75 C 44.7,793.5 44.18,794.1 43.46,794.1 42.74,794.1 42.1,793.5 42.03,792.8 H 41.07 C 41.02,793.5 40.43,794.1 39.71,794.1 38.97,794.2 38.36,793.6 38.31,792.8 H 37.34 C 37.32,793.6 36.72,794.2 35.98,794.2 35.22,794.2 34.6,793.6 34.59,792.8 L 33.62,792.9 C 33.62,793.6 33.01,794.3 32.26,794.3 31.5,794.3 30.88,793.7 30.87,792.9 H 29.9 C 29.9,792.9 29.9,792.9 29.9,792.9 29.91,793.7 29.3,794.3 28.54,794.4 27.78,794.4 27.16,793.7 27.14,792.9 27.14,792.9 27.14,792.9 27.14,792.9 H 26.96 L 26.25,801.9 C 26.18,804.5 26.59,807 28.83,808.9 99.32,830.3 173.8,839 248.1,848.5 L 252.4,839.5 C 277,844.9 309.1,847.2 334.5,801.6 337.5,793.8 336.7,787.8 335.1,782.3 L 358,782.8 356.8,767.2 347.8,718.9 Z" />
    <path style="fill:#304442" id="path97" d="M 95.36,804.6 95.46,804.7 H 95.64 L 95.35,804.6 Z M 106.6,806.5 106.7,806.6 106.9,806.5 Z M 42.53,812.8 182,857.1 C 182,857.1 182.9,857.4 183.3,857.5 184,857.5 185.5,857.2 185.5,857.2 L 247.2,850.5 248.8,847 248.1,848.5 C 178.6,839.6 109,831.4 42.53,812.8 Z" />
    <path style="fill:#2f3437" id="path99" d="M 247.2,850.3 251.8,865.9 256.9,851.8 252.8,838.3 Z" />
    <path style="fill:#4f5b5c" id="path101" d="M 298.5,837.7 C 282.6,844.5 266.5,842.6 252.8,839.6 L 257.3,853.8 C 276.2,858.1 292.1,859 301.4,852.4 L 298.6,837.7 C 298.6,837.7 298.5,837.7 298.5,837.7 Z" />
    <path style="fill:#1a1a1a" id="path103" d="M 298.5,837.5 304.4,847.4 306.6,864.2 301.1,852.3 Z" />
    <path style="fill:url(#s)" id="path105" d="M 334.5,801.7 C 323.4,821.5 311.1,832.3 298.6,837.7 L 304.5,848 306.6,864.3 353.2,864.1 353.6,846.2 359.1,802.5 Z" />
    <path style="fill:#667675" id="path107" d="M 353.6,846.5 304.1,847.3 304.5,848 306.6,864.3 353.2,864.1 Z" />
    <path style="fill:#233735" id="path109" d="M 248.1,720.6 185.9,727.9 27.68,775.3 29.54,775.7 C 101,755.6 171.5,734.1 248.1,720.6 Z" />
    <path style="fill:#455957" id="path111" d="M 216.5,776.6 138.1,779.2 142.8,788.7 214.8,787.6 C 215.2,784.1 215.8,780 216.5,776.6 Z" />
    <path style="fill:#7a8d8b" id="path113" d="M 214.9,787.5 143,790.5 138.8,797.8 214.1,795.8 C 214.3,793.2 214.6,790.1 214.9,787.5 Z" />
    <path style="opacity:0.5615;fill:#333333;filter:url(#i)" id="path115" d="M 256.6,743.6 C 234.1,753.5 229.4,767.2 226.1,781.7 L 226.4,781.6 226.6,781.7 226.5,781.6 C 229.7,767.5 234.8,753.7 256.5,744.1 L 256.7,743.9 257.1,743.7 Z" transform="matrix(1.145,0,0,1.145,-42.51,-119.4)" />
    <path style="opacity:0.5615;fill:#333333;filter:url(#i)" id="path117" d="M -32.95,813.7 C -54.79,826 -56.85,834.9 -64.42,846.6 L -64.41,846.9 -64.03,846.4 -64.1,846.5 C -59.04,841 -54.58,824.2 -32.88,814.6 L -32.41,815 -32.07,814.6 Z" transform="matrix(-1.145,0,0,-1.145,261.1,1770)" />
    <path style="fill:url(#t)" id="path119" d="M 248.1,720.6 C 171,734.2 100.1,755.9 28.18,776.1 L 26.35,791.5 27.03,791.4 C 26.99,791.3 26.93,791.2 26.93,791 26.91,790.2 27.53,789.5 28.29,789.5 29.05,789.5 29.67,790.2 29.68,791 29.68,791.1 29.68,791.2 29.65,791.4 L 30.76,791.3 C 30.72,791.2 30.65,791.1 30.65,790.9 30.63,790.1 31.25,789.5 32.01,789.5 32.77,789.4 33.39,790.1 33.4,790.9 33.41,791 33.4,791.1 33.37,791.2 H 34.44 C 34.41,791.1 34.37,791 34.37,790.9 34.36,790.1 34.97,789.4 35.73,789.4 36.49,789.4 37.11,790 37.13,790.8 37.13,790.9 37.15,791 37.13,791.1 H 38.16 C 38.14,791 38.09,790.9 38.09,790.8 38.08,790 38.69,789.4 39.45,789.3 40.21,789.3 40.83,789.9 40.85,790.7 40.85,790.8 40.87,790.9 40.85,791 H 41.85 C 41.83,790.9 41.82,790.8 41.81,790.7 41.8,789.9 42.41,789.3 43.17,789.3 43.93,789.3 44.56,789.9 44.57,790.7 44.57,790.8 44.55,790.8 44.53,790.9 H 45.64 C 45.63,790.8 45.57,790.8 45.57,790.7 45.56,789.9 46.14,789.2 46.9,789.2 47.66,789.2 48.28,789.8 48.29,790.6 48.29,790.7 48.27,790.7 48.26,790.8 H 49.33 C 49.32,790.7 49.3,790.7 49.29,790.6 49.28,789.8 49.86,789.1 50.62,789.1 51.38,789.1 52.04,789.8 52.05,790.6 52.05,790.6 52.05,790.7 52.05,790.7 H 53.05 C 53.05,790.6 53.02,790.6 53.02,790.5 53,789.7 53.58,789.1 54.34,789.1 55.1,789 55.76,789.7 55.77,790.5 55.77,790.5 55.77,790.5 55.77,790.6 H 56.77 C 56.77,790.5 56.74,790.5 56.74,790.5 56.72,789.7 57.34,789 58.1,789 58.86,789 59.48,789.6 59.49,790.4 59.49,790.4 59.49,790.4 59.49,790.5 H 60.46 C 60.46,790.4 60.46,790.4 60.46,790.4 60.45,789.6 61.06,788.9 61.82,788.9 62.58,788.9 63.2,789.6 63.22,790.4 L 64.18,790.3 C 64.17,789.5 64.78,788.9 65.54,788.8 66.29,788.8 66.91,789.5 66.94,790.2 H 67.9 C 67.91,789.4 68.52,788.8 69.26,788.8 70,788.8 70.61,789.4 70.66,790.1 H 71.66 C 71.71,789.4 72.26,788.7 72.99,788.7 73.71,788.7 74.28,789.3 74.35,790 H 75.38 C 75.44,789.4 75.84,788.8 76.42,788.7 76.51,788.6 76.61,788.7 76.71,788.7 77.42,788.7 77.99,789.2 78.07,789.9 H 79.14 C 79.21,789.2 79.73,788.6 80.43,788.6 81.05,788.6 81.57,789 81.76,789.6 L 87.27,781.8 91.31,783.7 97.25,775 102.7,778.6 108.4,772.3 114.4,777.3 120.4,772.3 125.3,777.6 131.4,774.3 136.4,781.8 138.6,781.9 138.2,779.1 216.5,776.6 C 219.8,759.5 227.7,743.8 251.4,732.9 L 252.4,731.6 Z" />
    <path style="fill:url(#u)" id="path121" d="M 91.44,783.7 96.59,798.6 103.1,791.1 97.17,774.9 Z" />
    <path style="fill:url(#v)" id="path123" d="M 102.7,778.8 108.4,794.3 114.1,788.2 108.4,772.5 Z" />
    <path style="fill:url(#w)" id="path125" d="M 114.4,777.3 120.3,792.7 126.1,787.7 120.4,772.2 Z" />
    <path style="fill:url(#x)" id="path127" d="M 125.2,777.6 131.8,793.5 137.5,790.5 131.5,774.2 Z" />
    <path style="fill:url(#y)" id="path129" d="M 81.88,789.7 83.45,794.9 85.29,799 89.57,797 91.2,799.1 92.85,796.9 87.12,781.7 Z" />
    <path style="opacity:0.3279;fill:url(#z)" id="path131" d="M 347.9,718.9 304.2,720.1 305,733.4 C 287,729.6 268.8,725.5 253,732.2 219.2,747 216.1,771.2 214.1,795.8 L 138.8,797.8 136,795.5 130.3,803.3 124.5,800.1 118.2,806.6 112.6,801.9 106.7,806.6 101.4,801.9 95.47,804.7 89.56,797 85.27,799 82.4,792.5 H 81.94 C 81.75,793 81.3,793.4 80.72,793.4 80.13,793.4 79.63,793 79.43,792.5 H 78.22 C 78.04,793.1 77.59,793.5 77,793.5 76.38,793.5 75.83,793.1 75.64,792.5 H 74.53 C 74.35,793.1 73.85,793.5 73.24,793.5 72.61,793.6 72.09,793.1 71.92,792.5 L 70.81,792.6 C 70.64,793.2 70.14,793.6 69.52,793.6 68.89,793.6 68.37,793.2 68.19,792.6 H 67.08 C 66.94,793.2 66.44,793.7 65.8,793.7 65.16,793.7 64.63,793.2 64.47,792.6 H 63.4 C 63.27,793.3 62.73,793.7 62.07,793.8 61.42,793.8 60.9,793.3 60.75,792.6 H 59.68 C 59.56,793.3 59.02,793.8 58.35,793.8 57.67,793.8 57.12,793.3 56.99,792.6 L 55.95,792.7 C 55.85,793.4 55.31,793.9 54.63,793.9 53.94,793.9 53.38,793.4 53.27,792.7 H 52.23 C 52.14,793.4 51.6,794 50.91,794 50.21,794 49.65,793.4 49.55,792.7 H 48.47 C 48.4,793.4 47.89,794 47.19,794 46.47,794.1 45.91,793.5 45.83,792.8 H 44.75 C 44.7,793.5 44.18,794.1 43.46,794.1 42.74,794.1 42.1,793.5 42.03,792.8 H 41.07 C 41.02,793.5 40.43,794.1 39.71,794.1 38.97,794.2 38.36,793.6 38.31,792.8 H 37.34 C 37.32,793.6 36.72,794.2 35.98,794.2 35.22,794.2 34.6,793.6 34.59,792.8 L 33.62,792.9 C 33.62,793.6 33.01,794.3 32.26,794.3 31.5,794.3 30.88,793.7 30.87,792.9 H 29.9 C 29.9,792.9 29.9,792.9 29.9,792.9 29.91,793.7 29.3,794.3 28.54,794.4 27.78,794.4 27.16,793.7 27.14,792.9 27.14,792.9 27.14,792.9 27.14,792.9 H 26.96 L 26.25,801.9 C 26.18,804.5 26.59,807 28.83,808.9 99.32,830.3 173.8,839 248.1,848.5 L 252.4,839.5 C 277,844.9 309.1,847.2 334.5,801.6 337.5,793.8 336.7,787.8 335.1,782.3 L 358,782.8 356.8,767.2 347.8,718.9 Z" />
    <path style="fill:#1a1a1a" id="path133" d="M 304.2,720.1 298.2,731.6 305.1,733.5 Z" />
    <path style="fill:url(#o);filter:url(#ag)" id="path135" d="M 325,240.7 A 17.7,17.52 0 1 1 289.6,240.7 17.7,17.52 0 1 1 325,240.7 Z" transform="matrix(1.434,0,0,1.297,-165.8,472.1)" />
    <path style="fill:#cccccc" id="path137" d="M 325,240.7 A 17.7,17.52 0 1 1 289.6,240.7 17.7,17.52 0 1 1 325,240.7 Z" transform="matrix(1.398,0,0,1.264,-154.6,480)" />
    <path style="fill:url(#ad)" id="path139" d="M 325,240.7 A 17.7,17.52 0 1 1 289.6,240.7 17.7,17.52 0 1 1 325,240.7 Z" transform="matrix(1.398,0,0,1.264,-154.6,480)" />
    <path style="fill:url(#n)" id="path141" d="M 325,240.7 A 17.7,17.52 0 1 1 289.6,240.7 17.7,17.52 0 1 1 325,240.7 Z" transform="matrix(1.398,0,0,1.264,-154.6,480)" />
    <path style="fill:url(#aa)" id="path143" d="M 95.36,804.6 95.46,804.7 H 95.64 L 95.35,804.6 Z M 106.6,806.5 106.7,806.6 106.9,806.5 Z M 42.53,812.8 182,857.1 C 182,857.1 182.9,857.4 183.3,857.5 184,857.5 185.5,857.2 185.5,857.2 L 247.2,850.5 248.8,847 248.1,848.5 C 178.6,839.6 109,831.4 42.53,812.8 Z" />
    <path style="fill:url(#linearGradient4928)" id="path145" d="M 298.5,837.7 C 282.6,844.5 266.5,842.6 252.8,839.6 L 257.3,853.8 C 276.2,858.1 292.1,859 301.4,852.4 L 298.6,837.7 C 298.6,837.7 298.5,837.7 298.5,837.7 Z" />
    <path style="fill:url(#f)" id="path147" d="M 353.6,846.5 304.1,847.3 304.5,848 306.6,864.3 353.2,864.1 Z" />
    <path style="fill:#1a1a1a;filter:url(#af)" id="path149" d="M 645.3,681.3 C 576.5,681.2 504.4,689.9 425.5,716.3 387.5,689.7 359.9,712.9 330.2,726.2 L 341.4,775.5 343.2,798.8 338.7,798.5 330.9,847.1 332.2,872.1 C 350.5,881.8 366.9,897.2 388.6,896.8 389.2,896.8 389.7,896.7 390.2,896.7 400.7,896.1 412.4,891.8 426,881.6 H 426.1 C 426.8,881 427.4,880.5 428.1,880 463.3,889.4 500.4,897.2 540.8,902.1 544.8,902.6 548.9,903.1 553,903.5 571.5,905.5 590.6,906.9 610.6,907.5 612.9,907.6 615.1,907.7 617.3,907.7 H 617.4 617.5 C 630.9,908 644.7,908.1 658.9,907.7 661.3,907.7 663.6,907.6 666,907.5 670.8,907.4 675.7,907.2 680.5,906.9 685.4,906.7 690.4,906.4 695.4,906.1 705.4,905.5 715.5,904.7 725.9,903.7 V 903.7 C 733.7,902.9 741.6,902.1 749.6,901.2 752.3,900.8 755,900.5 757.7,900.2 760.4,899.8 763.1,899.5 765.8,899.1 768.6,898.8 771.3,898.4 774.1,898 804.4,893.7 836.5,888 870.5,880.7 871.5,880.1 872.4,879.5 873.4,879 874.1,878.5 874.9,878 875.6,877.6 875.8,877.4 876,877.3 876.2,877.2 876.8,876.8 877.5,876.3 878.1,875.9 878.4,875.7 878.7,875.5 878.9,875.3 879.1,875.2 879.3,875.1 879.4,875 881.9,873.2 884.3,871.2 886.5,869.2 L 887.1,868.6 C 888.4,867.4 889.7,866.1 890.8,864.8 890.9,864.8 890.9,864.7 891,864.6 891.6,863.9 892.2,863.3 892.8,862.6 893.3,861.9 893.9,861.2 894.4,860.5 894.4,860.4 894.5,860.3 894.5,860.2 894.6,860.1 894.7,860 894.8,859.9 895.9,858.2 897,856.5 897.9,854.8 898,854.6 898.1,854.4 898.2,854.1 898.4,853.8 898.5,853.5 898.7,853.2 898.8,852.8 899,852.4 899.2,852 899.3,851.6 899.5,851.2 899.6,850.7 899.7,850.4 899.8,850.1 899.9,849.8 899.9,849.7 900,849.6 900,849.6 900.1,849.2 900.2,848.8 900.3,848.4 900.4,848 900.5,847.6 900.6,847.2 900.6,847 900.6,846.8 900.7,846.6 902.3,836.2 896.5,826.2 878.4,819.5 737.3,833.7 597.1,849.4 423.5,809 417.4,805.6 411.4,801.3 405.2,798.5 407.1,797.5 408.8,796.2 410.4,794.8 411.5,793.8 412.6,792.8 413.7,791.9 414.2,791.4 414.8,790.9 415.4,790.5 416.2,789.8 417.1,789.1 418,788.5 418.3,788.3 418.6,788.1 418.9,788 H 419 C 433.5,784.6 447.8,781.5 461.7,778.7 H 461.8 C 468.7,777.3 475.6,776 482.5,774.8 V 774.8 C 489.3,773.5 496.1,772.4 502.8,771.3 V 771.3 C 539.6,765.2 574.2,761.2 606.4,758.7 612.3,758.2 618.1,757.8 623.8,757.4 629.5,757 635.1,756.7 640.6,756.4 643.4,756.3 646.2,756.1 648.9,756 654.4,755.8 659.7,755.6 665,755.4 670.3,755.3 675.6,755.1 680.7,755 691,754.8 700.9,754.8 710.5,754.8 715.4,754.8 720.1,754.9 724.7,754.9 H 724.8 C 729.4,755 734,755.1 738.4,755.2 H 738.5 C 742.9,755.3 747.3,755.4 751.6,755.6 V 755.6 C 764.6,756 776.7,756.5 788.1,757.1 V 757.1 C 795.7,757.5 802.9,758 809.8,758.4 V 758.4 C 816.7,758.8 823.2,759.2 829.4,759.5 V 759.5 C 832.5,759.7 835.5,759.9 838.4,760 V 760 C 841.3,760.2 844.1,760.3 846.8,760.5 H 846.9 C 849.6,760.6 852.2,760.7 854.7,760.8 H 854.8 C 857.3,760.9 859.7,761 862.1,761 V 761 C 864.5,761.1 866.7,761.1 868.9,761.1 871.1,761.1 873.1,761.1 875.1,761 875.5,760.7 875.9,760.5 876.3,760.2 876.5,760.1 876.6,760 876.8,759.8 V 759.8 C 877.4,759.4 877.9,759.1 878.4,758.7 V 758.6 C 878.5,758.6 878.6,758.5 878.8,758.4 879.2,758.1 879.5,757.8 879.9,757.5 880.4,757.1 880.9,756.7 881.3,756.3 H 881.4 C 881.8,755.9 882.2,755.5 882.6,755.1 H 882.7 C 883.1,754.7 883.5,754.3 883.8,754 L 883.9,753.9 C 884.3,753.5 884.6,753.1 885,752.8 L 885.1,752.7 C 885.4,752.3 885.7,752 886,751.6 886.1,751.6 886.1,751.5 886.1,751.5 886.4,751.1 886.8,750.8 887,750.4 L 887.1,750.3 C 887.4,749.9 887.7,749.6 887.9,749.2 L 888,749.1 C 888.3,748.7 888.5,748.4 888.8,748 888.8,748 888.8,747.9 888.9,747.9 889.1,747.5 889.3,747.2 889.5,746.8 889.5,746.8 889.6,746.8 889.6,746.7 889.8,746.4 890,746 890.2,745.6 890.2,745.6 890.3,745.5 890.3,745.5 890.7,744.7 891,744 891.3,743.3 891.3,743.2 891.4,743.2 891.4,743.1 891.5,742.8 891.7,742.5 891.8,742.1 898.5,723.3 878.5,706 858,699.9 788.1,691.2 718.6,681.3 645.3,681.3 Z M 381.5,795.8 C 382.7,796.5 384,797.1 385.1,797.6 384.4,797.9 383.7,798.2 383,798.6 382.5,798.8 382,799.2 381.4,799.5 380.4,800.2 379.3,800.9 378.2,801.7 L 351.1,799.5 Z" transform="matrix(1.145,0,0,1.145,-42.51,-119.4)" />
    <path style="fill:#ffff00" id="path151" d="M 335.6,708 C 369.6,692.8 401.3,666.3 444.8,696.7 631.3,634.3 784.8,658.6 940.1,677.9 971.4,687.2 1002,719.5 959.7,747.9 887,750.1 704,716.5 437.3,778.8 425.6,785.4 420.8,801.5 394.4,787.8 L 350.7,793.1 348.4,764.5 Z" />
    <path style="fill:url(#ab)" id="path153" d="M 335.6,708 C 369.6,692.8 401.3,666.3 444.8,696.7 631.3,634.3 784.8,658.6 940.1,677.9 971.4,687.2 1002,719.5 959.7,747.9 887,750.1 704,716.5 437.3,778.8 425.6,785.4 420.8,801.5 394.4,787.8 L 350.7,793.1 348.4,764.5 Z" />
    <path style="fill:#2c2d28" id="path155" d="M 356.6,766.3 337.3,766.5 C 336.1,766.6 335,767.2 334.4,769 L 335.1,782.4 V 782.4 C 335.1,782.4 335.1,782.3 335.1,782.3 L 351.7,782.7 358,782.8 356.8,767.2 Z" />
    <path style="fill:url(#linearGradient4930)" id="path157" d="M 735.7,701.2 C 664.3,701.3 591.7,709.3 517.1,731.3 L 348.6,766.8 350.7,793.1 394.4,787.8 C 420.8,801.5 425.6,785.5 437.3,778.8 704,716.5 887,750 959.7,747.9 970.4,740.7 976.4,733.3 978.9,726.1 L 975.5,723.1 C 896.2,711.4 816.7,701.1 735.7,701.2 Z" />
    <path style="opacity:0.5205;fill:url(#j)" id="path159" d="M 813.7,675.6 C 725.6,666.1 637.5,664.9 549.4,679.4 530.7,694 530.8,703.5 550.2,708 L 816.7,696.7 C 829.2,691.1 820.5,683.3 813.7,675.6 Z" />
    <path style="opacity:0.5205;fill:url(#m)" id="path161" d="M 349.2,713.3 C 342.3,725.1 349.5,745.4 361.2,752.4 386.2,767.4 421.6,733.9 447.1,735.9 462.2,737.1 437.7,702.7 423.7,696.7 400.4,686.6 362,691.3 349.2,713.3 Z" />
    <path style="fill:url(#linearGradient4932)" id="path163" d="M 735.7,701.2 C 664.3,701.3 591.7,709.3 517.1,731.3 L 348.6,766.8 350.7,793.1 394.4,787.8 C 420.8,801.5 425.6,785.5 437.3,778.8 704,716.5 887,750 959.7,747.9 970.4,740.7 976.4,733.3 978.9,726.1 L 975.5,723.1 C 896.2,711.4 816.7,701.1 735.7,701.2 Z" />
    <path style="fill:url(#e)" id="path165" d="M 735.7,701.2 C 664.3,701.3 591.7,709.3 517.1,731.3 L 348.6,766.8 350.7,793.1 394.4,787.8 C 420.8,801.5 425.6,785.5 437.3,778.8 704,716.5 887,750 959.7,747.9 970.4,740.7 976.4,733.3 978.9,726.1 L 975.5,723.1 C 896.2,711.4 816.7,701.1 735.7,701.2 Z" />
    <path style="fill:#ffff00" id="path167" d="M 345.4,790.8 336.4,846.5 337.9,875.1 C 369.9,892.1 396.8,924.1 447.8,884.2 576.8,918.6 727.8,934.2 954.5,884.9 986.4,867.2 1009,831.8 963.5,814.9 801.9,831.2 641.3,849.1 442.5,802.9 426.2,793.9 410.8,778.8 390.6,794.6 Z" />
    <path style="fill:url(#ac)" id="path169" d="M 345.4,790.8 336.4,846.5 337.9,875.1 C 369.9,892.1 396.8,924.1 447.8,884.2 576.8,918.6 727.8,934.2 954.5,884.9 986.4,867.2 1009,831.8 963.5,814.9 801.9,831.2 641.3,849.1 442.5,802.9 426.2,793.9 410.8,778.8 390.6,794.6 Z" />
    <path style="fill:url(#linearGradient4934)" id="path171" d="M 989.1,845.2 965.7,854.8 C 898.8,883.4 651.4,905.4 415.5,861.6 388,871.6 362.5,860.9 336.8,853.5 L 337.9,875.1 C 369.9,892.1 396.8,924.1 447.8,884.2 576.8,918.6 727.8,934.2 954.4,884.9 972.2,875.1 987.2,859.8 989.1,845.2 Z" />
    <path style="opacity:0.5205;fill:url(#k)" id="path173" d="M 520.1,830.7 C 641.8,843.4 762,848.7 877.7,831.5 889.2,839.6 906.4,846.1 881.4,863.9 766,884.2 644,882 518.6,868.4 493.2,854.6 503.9,842.5 520.1,830.7 Z" />
    <path style="opacity:0.5205;fill:url(#l)" id="path175" d="M 358.2,807.4 C 375.7,790.8 409.5,801.9 430.5,804.4 446.5,806.2 447.4,861.9 434.3,852.6 409.6,835 372.2,875.1 353.7,855.6 342.6,843.8 346.5,818.5 358.2,807.4 Z" />
    <path style="fill:url(#linearGradient4936)" id="path177" d="M 989.1,845.2 965.7,854.8 C 898.8,883.4 651.4,905.4 415.5,861.6 388,871.6 362.5,860.9 336.8,853.5 L 337.9,875.1 C 369.9,892.1 396.8,924.1 447.8,884.2 576.8,918.6 727.8,934.2 954.4,884.9 972.2,875.1 987.2,859.8 989.1,845.2 Z" />
    <path style="fill:url(#linearGradient4938)" id="path179" d="M 989.1,845.2 965.7,854.8 C 898.8,883.4 651.4,905.4 415.5,861.6 388,871.6 362.5,860.9 336.8,853.5 L 337.9,875.1 C 369.9,892.1 396.8,924.1 447.8,884.2 576.8,918.6 727.8,934.2 954.4,884.9 972.2,875.1 987.2,859.8 989.1,845.2 Z" />
    <path style="fill:url(#b)" id="path181" d="M 989.1,845.2 965.7,854.8 C 898.8,883.4 651.4,905.4 415.5,861.6 388,871.6 362.5,860.9 336.8,853.5 L 337.9,875.1 C 369.9,892.1 396.8,924.1 447.8,884.2 576.8,918.6 727.8,934.2 954.4,884.9 972.2,875.1 987.2,859.8 989.1,845.2 Z" />
  </g>
</svg>
