<?xml version="1.0" encoding="UTF-8" standalone="no"?>
<svg id="svg4245" xmlns:rdf="http://www.w3.org/1999/02/22-rdf-syntax-ns#" xmlns="http://www.w3.org/2000/svg" height="547" viewBox="0 0 432 547" width="432" version="1.1" xmlns:cc="http://creativecommons.org/ns#" xmlns:dc="http://purl.org/dc/elements/1.1/">
<path id="path4255" d="m255.48 532.25c-37.192-39.222-46.472-51.072-46.479-59.348-0.006-7.2755 4.2021-18.022 11.597-29.617l3.323-5.2101 4.8131 2.2101c9.631 4.4224 9.2658 3.2906 4.4757 13.873-3.94 8.7-5.43 15.85-3.31 15.85 3.99 0 32.71-19.44 30.09-20.37-22.68-8.06-40.21-16.12-50.89-23.4-7.58-5.18-28.11-24.7-28.11-26.74 0-0.62669-2.9843-3.7758-6.6318-6.998-7.2708-6.423-14.75-15.434-23.658-28.503-13.01-19.09-17.23-24.36-28.75-35.94-15.33-15.4-53.663-37.87-69.696-40.85-5.545-1.03-31.758-15.93-37.966-21.58-24.942-22.7-12.736-54.46 20.097-52.3l9.274 0.60918-0.03315-9.2123c-0.11335-31.502 16.92-41.832 74.63-45.256 14.255-0.84584 13.826-0.23164 8.146-11.667l-4.6336-9.3279-8.6817-5.2378c-8.89-5.37-21.246-16.68-23.864-21.85-0.803-1.58-3.367-4.9-5.697-7.38s-5.765-6.684-7.632-9.354c-1.891-2.703-5.116-5.732-7.276-6.834-25.588-13.054-49.939-38.652-54.519-57.312-2.59-10.552-2.419-13.84 0.942-18.058 1.728-2.168 3.752-5.1188 4.499-6.5572 4.205-8.0943 16.552-7.9231 25.15 0.3487 9.465 9.1045 13.394 12.274 21.297 17.176 4.125 2.5582 10.425 6.5272 14 8.8199s12.8 8.1168 20.5 12.943c7.7 4.8257 14.675 9.3866 15.5 10.135 0.825 0.74868 3.975 2.9964 7 4.9949s7.1221 5.1108 9.1047 6.9162 7.1148 5.9826 11.405 9.2826c19.506 15.004 34.702 29.076 65.845 60.977 34.091 34.92 46.077 48.374 57.204 64.21 1.6179 2.3026 7.7721 10.628 13.676 18.5 15.745 20.994 19.792 26.697 23.288 32.813 3.7444 6.5516 11.918 20.098 15.085 25 3.58 5.56 27.38 53.18 27.38 54.81 0 1.2128 0.91841 1.3236 5.25 0.63349 11.952-1.9041 16.642-1.2326 26.88 3.8483 5.2193 2.5903 10.68 4.7096 12.136 4.7096 7.5619 0 37.436 28.31 40.175 38.071 2.26 8.05-1.09 13.93-7.93 13.93-0.92698 0-2.4584 0.95455-3.4031 2.1212-1.5933 1.9677-1.8366 2.0023-3.3608 0.47801-1.5243-1.5243-1.691-1.3883-2.3039 1.8788-0.72297 3.8537-2.9302 4.6976-3.9428 1.5075-1-3.13-2.5-1.3-2.5 3.04 0 5.0151-2.5087 4.4614-3.9889-0.88045-2.0834-7.519-3.2038-7.0448-2.6056 1.1028 0.76674 10.444-1.0471 10.541-4.6617 0.25l-1.7562-5 0.61357 8.9616c0.78522 11.469-0.90605 10.666-5.0866-2.4157-4.221-13.208-5.9068-11.981-3.085 2.2463 3.9854 20.093 2.0536 23.827-2.953 5.7078-5.2025-18.829-6.3382-18.245-2.9873 1.5357 3.7139 21.923 1.2168 23.221-4.5985 2.3894-5.8124-20.821-7.4275-19.826-3.3666 2.0748 2.6296 14.181 2.8416 17 1.2785 17-1.4227 0-3.3605-5.5886-5.8948-17-3.7536-16.902-4.8831-7.8264-1.3343 10.721 3.5654 18.634-0.009 20.965-5.0289 3.2787-4.5114-15.895-5.6006-14.728-2.9735 3.1852 3.2421 22.108-0.0993 21.96-5.5864-0.24655-4.0069-16.216-5.1544-10.646-2.0728 10.061 1.3077 8.7873 1.5502 12.884 0.81647 13.792-1.6751 2.0742-2.4567 0.39695-5.7285-12.292-5.161-20.017-6.2788-17.817-3.0492 6 1.7077 12.594 1.5458 17.33-0.52162 15.263-0.64339-0.6434-0.87401-1.4709-4.9503-17.763-4.6488-18.58-5.6032-15.467-2.8437 9.2751 0.90634 8.1263 1.3517 15.071 0.98964 15.433-1.3818 1.3818-2.5674-1.5443-4.5412-11.208-1.1233-5.5-2.7212-12.025-3.5509-14.5l-1.5085-4.5 0.49457 6.4615c2.938 38.385 0.61437 43.686-5.0576 11.539-3.357-19.027-4.0644-15.981-1.9274 8.2998 1.4609 16.599 1.3913 19.2-0.51351 19.2-0.94839 0-1.0266-0.32847-4.122-17.323-3.0872-16.949-4.4861-14.236-3.0771 5.9678 0.60476 8.6719 0.92229 15.944 0.70563 16.161-1.0193 1.0193-2.5051-1.233-3.0288-4.5914-1.2226-7.841-5.8704-26.761-6.8082-27.715-0.65393-0.66493-0.78385-0.64082-0.38776 0.072 0.32763 0.58958 0.68469 3.0646 0.79346 5.5 0.10878 2.4354 0.79795 9.153 1.5315 14.928 1.8064 14.221 1.7882 21-0.0563 21-1.4927 0-1.6518-0.6247-5.6694-22.251-2.031-10.933-5.7457-20.763-4.4396-11.749 0.87737 6.0554 2.6784 41.193 2.139 41.732-1.7509 1.7509-3.6015-1.0451-3.608-5.451-0.008-5.5046-2.39-21.357-3.8736-25.781-1.0062-3.0006-0.57459 28.168 0.46049 33.25 0.63722 3.1286-0.5405 7.25-2.0717 7.25-0.84591 0-1.4378-2.1037-1.7583-6.25-0.72589-9.3882-3.8542-29.043-4.8942-30.75-0.89794-1.4736-0.28674 37.159 0.68869 43.53 0.40075 2.6176-0.28116 3.766-5.009 8.4351-4.0996 4.0486-5.2082 5.7239-4.418 6.676 1.1956 1.4406 0.37111 3.3587-1.4437 3.3587-0.66463 0-7.5006-6.6356-15.191-14.746zm23.847-6.0043c0.42719-0.7155-0.85291-11.817-3.4882-30.25-1.0839-7.5814-1.2855-8.0984-1.8654-4.784-2.6395 15.084 1.4167 41.628 5.3536 35.034zm-8.54-16.25c-0.50136-4.675-1.1414-10.869-1.4224-13.764-0.83283-8.5817-2.0438-5.1254-2.6228 7.4856-0.50321 10.96-0.3959 11.935 1.546 14.041 3.032 3.2884 3.5214 1.7685 2.4992-7.7632zm-7.2947-10.859c-0.87797-8.2866-2.4444-6.8-3.1875 3.0252-0.48419 6.4021-0.30163 7.6943 1.3171 9.3223 2.3342 2.3476 2.9774-1.8987 1.8704-12.347zm-5.5049 4.0497c-0.03-3.7-1.05-7.19-2.12-7.19-1.0035 0-1.2242 9.3259-0.24389 10.306 1.1762 1.1762 2.3607-0.39611 2.3469-3.1152zm-12.871-11.972c1.3117-0.97941 5.4138-3.3327 9.116-5.2296 7.9665-4.0818 9.6338-6.2504 3.6349-4.7277-9.5422 2.4221-14.542-11.478-5.9538-16.551 9.0955-5.3728 17.873 2.3477 13.007 11.44-2.8485 5.3225 3.2568 1.5082 22.581-14.108 41.33-33.399 69.902-65.009 87.871-97.217l2.6074-4.6734-5.12-4.0766c-6.7293-5.3579-7.6969-5.1828-11.859 2.1468-3.4703 6.1116-6.3048 10.236-15.654 22.777-9.8725 13.242-42.617 44.695-63.846 61.327-5.8694 4.5984-27.274 17.894-46.75 29.04-5.8853 3.3679-5.9094 2.9784 0.81314 13.186 6.082 9.2354 6.0975 9.2462 9.552 6.6668zm-0.1352-7.7434c-0.69572-0.83829-1.0196-1.7695-0.71982-2.0693 0.66456-0.66456 4.7399 1.7721 4.7399 2.834 0 1.331-2.7083 0.81585-4.0201-0.76472zm-5.0098-3.4201c1.4046-2.6244 2.9958-3.4897 4.2012-2.2843 0.66285 0.66285 0.2238 1.5388-1.3096 2.6129-3.0847 2.1606-4.1584 2.0386-2.8916-0.32858zm30.02-8.94c0-1.1063 4.5032-4.115 6.1591-4.115 0.6762 0-0.29539 1.125-2.1591 2.5-3.773 2.7836-4 2.8753-4 1.615zm1.7033-6.5451c0.98817-1.3366 2.5842-2.6444 3.5467-2.9064 2.2917-0.62373 2.2127-0.26581-0.61467 2.7849-3.0679 3.3103-5.3599 3.4053-2.932 0.12144zm-3.7-1.45c0-1.3619 2.7983-3.3563 4.1003-2.9223 0.78494 0.26165 0.60871 0.94803-0.53781 2.0945-1.8407 1.8407-3.5625 2.2408-3.5625 0.8278zm-4.25-3.5145c-2.6105-1.9816-2.1959-2.3454 2.7869-2.4454 2.679-0.0538 4.2929 0.30381 3.941 0.87318-0.33 0.53-1.25 0.96-2.04 0.96s-1.44 0.45-1.44 1c0 1.3479-1.1389 1.2105-3.25-0.39205zm-3.2377 17.737c5.08-5.08 2.73-12.35-3.99-12.35-2.36 0-6.52 4.56-6.52 7.14 0 5.2503 7.0007 8.7164 10.512 5.2047zm13.022-38.431c7.7072-2.6951 11.578-5.118 15.503-9.7023 1.7474-2.0414 8.2554-8.8867 14.462-15.212 6.9289-7.0609 12.355-13.571 14.058-16.865 1.525-2.9508 4.094-6.1685 5.7088-7.1506 2.7877-1.6953 2.8299-1.8192 0.83506-2.4524-3.8388-1.2184-2.4814-4.2149 3.149-6.9515l5.25-2.5517-4.3329 0.5875c-6.8544 0.92941-5.7187-3.3638 1.5829-5.9833 2.8875-1.0359 5.25-2.2906 5.25-2.7882 0-0.49757-2.3625-0.7787-5.25-0.62473-9.1937 0.49021-7.6896-3.7438 2.6134-7.3564 10.973-3.8477 10.4-5.5956-0.90212-2.7496-2.4334 0.61274-5.1876 0.8212-6.1204 0.46325-3.3722-1.294 0.27223-3.2084 15.576-8.1823 4.6135-1.4994-1.2683-2.2882-6.9956-0.93823-14.437 3.4029-15.509-1.5332-1.1716-5.3905 2.3375-0.62885 4.25-1.5813 4.25-2.1166 0-0.59353-1.6582-0.68681-4.25-0.23908-11.807 2.0397-15.377-0.54784-5.9434-4.3083 7.1046-2.8322 8.8028-4.5516 3.6071-3.6522-10.658 1.845-14.362-1.043-4.6637-3.6359 7.242-1.9361 6.7401-3.4835-0.84434-2.6033-7.4579 0.86558-8.4673-1.9734-1.4057-3.9534 5.7538-1.6134 4.9269-2.8348-2-2.9541-7.9163-0.1364-8.1756-2.3185-0.50876-4.2806 8.1247-2.0792 8.1036-3.1341-0.0509-2.5507-8.6282 0.61734-9.2912-1.1435-1.3867-3.683l4.94-1.6-6.25-0.29772c-7.3613-0.35065-8.4026-2.2408-2.25-4.0841 5.5295-1.6567 5.004-2.9202-1.1463-2.7557-6.4568 0.17263-7.5556-1.7722-1.95-3.4517 5.06-1.51 4.36-2.91-1.46-2.91-5.2392 0-5.7334-1.2877-1.191-3.1035l3.25-1.2991-4.25-0.3562c-5.1081-0.4281-5.7861-2.8098-1.25-4.391 4.3698-1.5233 3.6715-2.8502-1.5-2.8502-5.0191 0-5.9685-1.3785-1.75-2.541 2.7384-0.75459 2.7332-0.7628-1.2387-1.9455-3.8625-1.1501-3.917-1.2261-1.722-2.4008 2.4559-1.3144 1.9936-3.6272-0.53135-2.6582-1.8357 0.70442-5.258-0.23566-5.258-1.4443 0-0.47028 1.5791-1.3762 3.5092-2.0132 4.385-1.4472 3.5092-3.2582-1.365-2.8226-4.664 0.41677-5.5104-1.2104-1.6442-3.1609l3-1.5135-4.8142-0.30741c-4.8271-0.30824-6.2033-2.2974-2.1029-3.0396 3.7307-0.67538 3.8672-2.1529 0.19892-2.1529-6.9766 0-9.3252-3.0122-4.0318-5.1711l2.75-1.1216-3.6682-1.1037c-4.7282-1.4226-5.4972-2.2577-2.8522-3.0972 2.808-0.89121 1.9634-3.0842-1.0517-2.7307-4.2052 0.49308-5.457-0.53377-3.4091-2.7966 0.98511-1.0885 1.3574-1.9792 0.82725-1.9792-2.9592 0-4.8961-2.8393-2.9306-4.2958 1.7986-1.3328 1.6918-1.4614-1.75-2.1071-4.1799-0.78416-4.7093-2.625-1.4156-4.9226 2.2258-1.5526 2.211-1.5701-1.3776-1.622-3.7508-0.0542-7.652-2.947-5.1224-3.7984 2.0161-0.67857 1.437-2.0884-1-2.4345-1.446-0.20536-2.3642-1.1236-2.5696-2.5696-0.17575-1.2375-0.96325-2.25-1.75-2.25-1.7448 0-1.8426-1.1878-0.23045-2.8 0.93333-0.93333 0.70414-1.2-1.0314-1.2-1.2273 0-2.525-0.7875-2.8838-1.75-0.35882-0.9625-2.2032-3.1855-4.0986-4.9401-2.4881-2.3032-3.2531-3.6933-2.7517-5 0.382-0.99546 0.75248-2.0349 0.82329-2.3099 0.0708-0.275-1.1957-0.72789-2.8146-1.0064-1.979-0.34052-3.0387-1.1704-3.2344-2.533-0.16011-1.1146-2.5584-4.4867-5.3295-7.4936s-6.2217-7.267-7.6679-9.467c-9.5102-14.467-50.672-57.824-69.036-72.718-4.2217-3.424-8.8304-7.3631-10.242-8.7536-2.58-2.544-7.75-6.915-17.93-15.146-9.34-7.557-37.436-28.532-42.032-31.384-0.886-0.55-4.504-2.913-8.04-5.252-6.42-4.246-6.437-4.25-13.518-3.626-18.465 1.628-35.465-8.805-40.43-24.809l-2.384-7.6875-2.548 1.3588c-1.401 0.7477-3.448 1.6637-4.548 2.0377-1.9325 0.65569-1.924 0.70789 0.25 1.5462 2.8512 1.0994 2.8643 2.5329 0.03705 4.046l-2.213 1.1843 2.213 0.81862c2.8071 1.0384 2.819 2.4884 0.03273 3.9795-1.8893 1.0111-1.9776 1.3161-0.66223 2.2852 0.8349 0.6151 1.3285 1.6809 1.0969 2.3684-0.23161 0.6875 0.26484 1.25 1.1032 1.25 2.6804 0 3.0535 2.2486 0.69068 4.162l-2.27 1.838h3.1108c3.4254 0 3.5879 0.24004 2.0756 3.0657-0.86584 1.6178-0.70225 1.9343 1 1.9343 1.9088 0 2.4595 0.93786 2.1358 3.6371-0.07502 0.6254 0.99667 1.4215 2.3815 1.7691 1.385 0.348 2.518 1.313 2.518 2.144 0 0.83178 0.7875 1.7979 1.75 2.1468 2.121 0.769 7.1528 6.3409 7.2094 7.9832 0.02235 0.64925 1.0419 1.3242 2.2656 1.5 1.2237 0.17575 2.7264 1.3294 3.3393 2.5636 0.61286 1.2342 1.3777 1.9807 1.6997 1.6587 1.6376-1.6376 4.8885 0.85394 4.2796 3.28-0.58286 2.3223-0.42531 2.4502 2.2853 1.8548 2.3191-0.50936 3.0106-0.25973 3.3995 1.2272 0.39637 1.5157 1.201 1.7834 4.2798 1.424 3.4855-0.40692 3.7458-0.26762 3.2246 1.7256-0.52905 2.0231-0.25451 2.1488 4.1002 1.8769 5.1405-0.32093 6.8441 2.1046 2.2413 3.1911-2.792 0.659-4.048 3.017-1.608 3.017 0.89815 0 2.9831-0.69819 4.6333-1.5515 5.7385-2.9675 8.0452-0.79138 3.3613 3.171-4.2538 3.5985-3.999 4.0661 1.1929 2.1887 4.2236-1.5273 5.5462-0.24089 2.3312 2.2673l-2.485 1.938 3.715-0.209c4.7914-0.26968 5.4511 0.49682 2.6629 3.0944l-2.255 2.101h3.688c3.24 0 3.689 0.296 3.689 2.43 0 1.7591 0.62149 2.5187 2.25 2.75 1.446 0.20536 2.3642 1.1236 2.5696 2.5696 0.19797 1.3939 1.0134 2.25 2.143 2.25 2.5631 0 3.5515 3.1509 1.4667 4.6754-1.4116 1.0322-0.98157 1.1959 2.6956 1.0264 4.1763-0.19258 4.3732-0.0752 4.3331 2.582-0.0377 2.4932 0.23281 2.7234 2.5906 2.2055 3.1822-0.69892 6.3302 2.0444 3.564 3.1058-3.0236 1.1603-1.6515 2.5028 1.8808 1.8401 6.8181-1.2791 11.323 2.2188 5.3135 4.126-1.2225 0.388-1.6483 0.99739-1.0882 1.5574 0.56004 0.56004 2.6536 0.30801 5.3507-0.64412 8.5281-3.0107 11.955 0.0795 4.1806 3.7703-6.3546 3.0169-2.8886 3.561 5.1173 0.8032 10.273-3.5386 10.104-0.55002-0.23476 4.1668-7.6088 3.4713-6.7556 4.7963 1.4305 2.2215 4.3179-1.3582 5.7969-1.4755 6.735-0.53435 1.3484 1.3529-2.123 4.6253-5.798 5.4658-1.1 0.25157-0.20576 0.38632 1.9872 0.29942 5.2273-0.20712 6.3054 2.8119 1.5909 4.4554-4.4309 1.5446-3.7872 3.0657 1.1405 2.6949 5.725-0.43085 6.5593 2.4128 1.3469 4.5907-4.9042 2.0491-4.4705 2.7009 1.578 2.3717 5.4704-0.29773 7.8127 1.4741 3.6616 2.7699-6.3561 1.9842-6.469 3.5765-0.20509 2.8922 7.5918-0.82936 9.4571 1.2784 4.1292 4.6657l-3.2291 2.0529 5.6216-0.63624c7.7393-0.87592 9.2962 2.7232 2.1284 4.9206-1.2375 0.37938-2.25 1.1094-2.25 1.6224 0 1.1023 0.17437 1.1016 6-0.0237 6.6856-1.2914 9.9308 2.0387 4.0012 4.1058-4.3377 1.5121-2.7475 2.8057 2.108 1.7147 6.6785-1.5006 10.094 0.47942 5.8972 3.4188-2.5782 1.8058-1.6018 2.7482 1.8281 1.7645 6.0109-1.7239 9.0911 1.6117 3.9155 4.2403l-3.25 1.6506 6.3946-0.21919c7.3282-0.25119 8.7358 1.063 3.8751 3.618l-3.2697 1.7188 6.149-0.50212c4.6645-0.38089 6.4444-0.14622 7.3724 0.97199 0.67288 0.81077 0.80432 1.4741 0.29209 1.4741-0.51222 0-1.8048 0.68996-2.8724 1.5332-1.7939 1.417-1.4861 1.5118 4.0589 1.25 5.5612-0.26252 6.0234-0.11867 6.3196 1.9668 0.22802 1.6055 0.99373 2.25 2.6733 2.25 1.2945 0 3.6258 1.0125 5.1804 2.25 1.5547 1.2375 4.5209 3.112 6.5916 4.1655 4.8295 2.4571 6.4959 4.3553 4.4969 5.1224-2.2912 0.87919-33.345-11.796-47.72-19.478-13.64-7.2892-22.327-13.28-35.475-24.465l-7.9334-6.7486-12.067 0.65034c-57.11 3.078-70.668 10.587-73.259 40.576-0.73003 8.4483 0.30274 10.309 6.9329 12.492 2.8927 0.95236 10.21 4.1726 16.26 7.156s12.575 6.133 14.5 6.9991c1.925 0.86606 4.2814 1.9584 5.2364 2.4275 0.95504 0.46907 2.2825 0.85286 2.95 0.85286 2.252 0-0.74742-2.0787-9.2809-6.432-14.254-7.27-11.887-9.05 2.751-2.07 10.294 4.91 10.34 4.92 10.34 3.57 0-0.51-4.275-3.29-9.5-6.17-8.536-4.72-11.248-6.9-8.574-6.9 0.50909 0 4.6478 1.8 9.1971 4 10.794 5.2198 14.98 5.45 6.2176 0.34188-1.7378-1.013-5.7878-3.3759-9-5.2508-8.0133-4.6772-4.9476-5.1291 4.2779-0.63051 12.916 6.2983 12.083 3.881-1.6182-4.6952-8.9823-5.6224-6.2643-5.7659 4.401-0.23237 11.911 6.1799 12.76 5.2091 1.7134-1.9588-12.202-7.9175-10.619-9.041 1.9164-1.3599 12.489 7.6528 13.847 6.9948 2.5316-1.2266-4.707-3.42-8.56-6.62-8.56-7.11 0-1.4955 3.0535-0.98042 5.8456 0.98603 2.942 2.072 10.552 6.1837 13.654 7.3773 2.072 0.7972-4.3185-5.2787-9.1341-8.6844-4.6725-3.3046-0.66338-2.9478 4.3747 0.38931 2.5953 1.7191 5.7404 3.382 6.989 3.6954s2.2703 0.97102 2.2703 1.4614c0 0.49037 0.675 0.89159 1.5 0.89159 2.0667 0 1.89-1.734-0.25-2.4539-0.9625-0.3238-3.325-1.9322-5.25-3.5741-4.1678-3.555-1.8598-2.8678 6.3323 1.8854 7.5855 4.4012 8.1979 3.4482 1.2894-2.0066-3.0306-2.3929-5.5353-4.6882-5.566-5.1007-0.0805-1.0814 2.714-0.92589 3.1109 0.17313 0.43968 1.2177 12.898 8.2228 13.977 7.8592 0.46061-0.15526-2.3176-2.8375-6.1739-5.9605-8.3518-6.7638-7.834-8.3774 0.86457-2.6938 7.7748 5.0801 10.196 4.5905 3.3658-0.68062-5.33-4.1-6.23-5.44-3.7-5.44 0.825 0 1.5 0.36665 1.5 0.81479 0 0.96403 7.0465 4.4721 7.6901 3.8285 0.24336-0.24336-1.374-1.9022-3.5941-3.6864-4.5023-3.6181-4.5575-5.764-0.0889-3.4532 3.8046 1.9674 6.0503 1.9252 3.2154-0.0604-2.49-1.74-2.97-4.44-0.79-4.44 0.78675 0 1.5742-0.96093 1.75-2.1354 0.85148-5.69 11.82-3.6248 11.82 2.2256 0 1.075 0.88408 1.8963 2.25 2.0903 1.5021 0.21333 2.1523 0.90124 1.9562 2.0696-0.21738 1.2947 0.38516 1.75 2.3157 1.75 3.0085 0 6.4781 1.6256 6.4781 3.0352 0 0.53065-1.8266 0.96482-4.059 0.96482-6.1195 0-3.8111 1.713 3.3072 2.4542 9.3246 0.97098 11.842 1.591 11.131 2.7416-0.39855 0.64487-2.813 0.78709-6.4249 0.37845-3.6329-0.41101-6.0256-0.26754-6.4292 0.38552-0.35358 0.57209-0.3325 1.0402 0.0468 1.0402 0.65005 0 17.066 2.4233 24.206 3.5732 6.8323 1.1004 1.8001 2.2425-7.5369 1.7106-15.947-0.90846-10.88 0.96247 11.759 4.342 23.077 3.445 10.385 4.0946-15.5 0.79329-22.512-2.871-19.597-1.0201 6.5 4.1276 7.425 1.4646 13.928 3.0658 14.45 3.5581 1.2343 1.1632 0.12545 1.1422-6.5489-0.12352-4.17-0.79-30.26-3.98-32.55-3.98-0.255 0-0.23305 0.3731 0.0488 0.82911 0.59233 0.9584 5.6685 2.1874 25.053 6.0655 18.158 3.6328 19.952 7.1693 2.0525 4.0472-9.3196-1.6256-10.563-1.7936-17.5-2.3656l-6.5-0.536 4.5 1.3848c2.475 0.76166 8.1 2.1428 12.5 3.0693 4.4 0.92643 9.125 2.1869 10.5 2.8011l2.5 1.1167-2.8377 0.36879c-1.5607 0.20283-7.4107-0.35925-13-1.2491-16.465-2.6213-17.663-2.7481-17.654-1.8698 0.005 0.46085 5.4046 2.1488 12 3.7511 14.244 3.4603 16.489 6.7516 2.4917 3.6522-7.5346-1.6684-16.806-2.3696-16.094-1.2173 0.36522 0.59094 2.3357 1.3548 4.379 1.6974 2.0432 0.34261 5.0649 1.0097 6.7149 1.4825 1.65 0.47274 4.9697 1.3676 7.3772 1.9886 2.7769 0.71626 4.0285 1.4778 3.4234 2.0829-1.0362 1.0362-8.6546-0.24949-16.219-2.7372-3.888-1.2786-4.5975-1.2745-5.9061 0.0341-1.3163 1.3163-1.1532 1.5593 1.4188 2.1147 1.5983 0.34508 4.0311 1.1045 5.4061 1.6876 1.375 0.58308 3.85 1.2191 5.5 1.4134 5.4792 0.64523 7.6467 1.4487 7.216 2.6749-0.56757 1.6158-8.8097 1.0671-12.444-0.82846-3.133-1.6342-6.1218-1.8398-8.1419-0.56015-1.0039 0.63598-0.46993 1.1364 2 1.874 1.8533 0.55347 5.8446 1.742 8.8696 2.6412 15.284 4.5432 5.9785 5.9903-11.899 1.8504-5.4556-1.2633-0.63857 1.7652 6.1783 3.8844 12.632 3.9269 10.606 5.1357-3.9412 2.3519-9.26-1.78-10.34-1.83-10.34-0.51 0 0.55 0.90611 1 2.0136 1s2.795 0.42409 3.75 0.94241c11.355 6.1629 17.047 4.638 23.586-6.3192 7.67-12.85 17.1-22.62 21.84-22.62 2.8086 0 2.1239 2.7261-0.94428 3.76-2.6993 0.90961-2.7086 0.94002-0.5 1.6507 3.4644 1.1148 2.6721 3.2834-1.5 4.1061-3.8378 0.75672-3.7824 0.85907 1.0409 1.925 3.7007 0.81784 2.4823 2.5582-1.7909 2.5582-4.8894 0-5.175 1.6461-0.39677 2.287 7.5258 1.0094 6.3155 3.713-1.6622 3.713-7.5236 0-6.8347 1.6178 1.0485 2.462 7.8023 0.83555 9.5236 2.478 2.8195 2.6903-2.645 0.0838-5.259 0.25687-5.809 0.38465-0.55 0.12779-2.125 0.31277-3.5 0.41108-4.6578 0.333 1.0192 1.829 9.8709 2.6011 14.651 1.278 11.228 3.8934-4.1209 3.1492-6.7375-0.32667-13.15-0.19905-14.25 0.28359-1.1 0.48265-1.7616 0.90917-1.4701 0.94782 5.0398 0.66853 26.217 3.0754 31.47 3.5768 11.401 1.0881 23.439 4.3195 30.7 8.2416 12.176 6.5764 7.4188 8.3785-8.3598 3.167-12.331-4.073-26.982-6.6382-45.34-7.9388-17.753-1.2578-26.032-2.386-33.5-4.5651-3.025-0.8827-7.975-2.2873-11-3.1214-8.9067-2.4557-23.334-8.5074-41.564-17.434-9.385-4.5956-18.16-8.8477-19.5-9.4491-1.34-0.60135-8.6732-4.2941-16.296-8.2061-15.85-8.14-26.218-11.15-31.911-9.27-4.774 1.57-12.719 10.58-12.719 14.42 0 0.78148-0.67223 2.7098-1.4938 4.2852-6.1856 11.86 4.5208 27.166 25.706 36.748 2.9085 1.3156 7.4185 3.3503 10.022 4.5216 2.6036 1.1713 11.604 4.419 20 7.217 8.3964 2.7981 15.941 5.68 16.766 6.4042 0.825 0.72423 3.0573 1.4644 4.9607 1.645 2.6015 0.2467 3.5946 0.87936 4 2.5482 0.41005 1.688 0.89878 1.9912 2.0393 1.2653 2.4803-1.5786 4.8249-1.1122 5.5269 1.0994 0.48671 1.5335 1.2339 1.9411 2.8257 1.5416 3.108-0.78006 4.9983 0.69273 4.1836 3.2596-0.62529 1.9701-0.48347 2.0471 1.8292 0.99338 3.6012-1.6408 5.9771-0.45157 5.3764 2.6911-0.39488 2.0657-0.18074 2.409 1.1358 1.8213 3.659-1.6335 7.6336-1.004 7.4167 1.1748-0.2018 2.0273-0.0917 2.0387 5.7995 0.59948 8.2102-2.0057 9.5466-0.4751 3.2057 3.6717-5.55 3.6296-4.3346 4.0934 2.7453 1.0477 8.6364-3.7153 9.5363-1.4443 1.4531 3.6671-7.8492 4.9634-7.1742 5.7607 1.5591 1.8415 3.1938-1.4333 6.3624-2.4209 7.0412-2.1946 1.3088 0.43627 1.0574 0.72788-4.0981 4.7534l-2.5 1.9521 3.75-0.58327c3.7433-0.58222 5.4753 1.4941 2.6849 3.2187-0.70039 0.43286-0.49562 1.2876 0.59796 2.496 0.91471 1.0107 1.3788 2.2978 1.0313 2.86-0.34751 0.56228-0.19606 1.8281 0.33655 2.813 0.53261 0.98488 1.5604 3.3558 2.2839 5.2687 1.9207 5.0781 7.7108 16.045 10.18 19.281 1.1746 1.5396 4.2731 5.4664 6.8856 8.7263 2.6125 3.2598 4.75 6.1878 4.75 6.5066 0 2.5966 35.555 35.217 45.88 42.093 4.0592 2.7032 8.8966 5.934 10.75 7.1795s3.3697 2.708 3.3697 3.25c0 0.54199 1.0249 0.98544 2.2775 0.98544s3.1956 0.64305 4.3177 1.429 5.5793 3.2929 9.9048 5.571c4.3256 2.2781 8.7827 4.7851 9.9048 5.571 2.9177 2.0436 10.206 1.7641 17.13-0.65703zm-246.94-183.51c-17.626-4.8018-20.333-13.581-9.1832-29.773 12.942-18.793 44.442 0.00085 34.56 20.62-5.0824 10.605-11.523 12.928-25.377 9.1535zm14.704-0.50318c8.9648-4.0847 11.383-19.547 4.3989-28.124l-4.305-5.29-7.941-0.3c-12.442-0.46456-13.141 0.14885-19.012 16.684-3.663 10.317 15.259 22.31 26.859 17.024zm-15.735-5.1859c-6.197-3.3611-5.691-4.6837 1.077-2.815 5.4905 1.516 5.1629 0.73232-1.1932-2.8548-7.4-4.17-6.395-4.8 2.656-1.65 8.7538 3.0443 9.6084 2.7912 3.2191-0.95315-5.0501-2.9596-4.5719-4.6632 0.56345-2.0076 5.98 3.0924 6.4811 1.455 0.61745-2.0175-5.8457-3.4618-4.1544-4.6303 2.75-1.8998 1.0295 0.40715 1.75 0.23633 1.75-0.41492 0-0.61-0.527-1.11-1.171-1.11-0.64419 0-1.8827-0.64384-2.7522-1.4308-0.86953-0.78692-2.93-2.1733-4.5787-3.0808l-2.998-1.65 3.821 0.63948c2.1016 0.35171 4.4641 0.88624 5.25 1.1878 3.0885 1.1852 1.2109-1.4062-2.321-3.2032l-3.75-1.908 3.17-0.33457c11.061-1.1674 19.594 11.462 14.496 21.455-4.133 8.1013-10.742 9.4006-20.605 4.051zm331.72 103.38c2.323-3.9326 2.1672-4.9443-0.87954-5.709-1.4273-0.35823-3.4506-2.0543-4.4963-3.769-2.5913-4.2495-2.6731-0.61896-0.15859 7.0385 1.9938 6.0718 3.1006 6.5597 5.5344 2.4395zm-217.9-103.22c0.34375-1.7188 0.62508-6.3312 0.62517-10.25 0.00017-6.8498 1.7112-17.811 4.0649-26.039 0.84188-2.9433 0.81273-5.9198-0.11754-12-2.2961-15.007-2.7392-15.816-2.8471-5.1961-0.083 8.1691-0.40492 10.121-1.8504 11.218-1.5913 1.208-1.5989 1.3313-0.0833 1.3602 2.5054 0.0478 2.6062 1.598 0.67948 10.444-0.96896 4.4485-2.0177 11.238-2.3306 15.088-0.31288 3.85-0.80421 9.5875-1.0918 12.75-0.58591 6.4418 1.769 8.5364 2.9513 2.625zm-13.46-0.38c-0.045-0.55-1.7325-1.6766-3.75-2.5036-5.5686-2.2826-8.7902-4.2891-7.5502-4.7024 0.612-0.204 3.44 0.5464 6.2844 1.6676 5.8865 2.3202 6.0976 2.3603 6.0976 1.1576 0-0.48447-3.3715-2.5467-7.4922-4.5828s-7.728-4.0836-8.0163-4.55c-0.85744-1.3874 1.2878-2.1275 3.2178-1.1102 4.4902 2.3667 12.407 4.9724 12.074 3.974-0.20196-0.60589-2.9358-2.4418-6.0753-4.0797-7.8345-4.0875-7.5185-6.6393 0.4198-3.3902 7.2453 2.9655 11.98 2.8125 5.4228-0.17518-10.305-4.6951-13.332-9.3826-3.9238-6.076 4.5366 1.5945 8.2259 1.9343 6.2898 0.57935-0.22917-0.16038-2.3705-1.5441-4.7584-3.0749-5.4977-3.5243-4.7616-4.4363 1.3858-1.7171 5.6194 2.4858 5.456 2.4683 5.456 0.58356 0-0.825-0.62686-1.5-1.393-1.5-0.76616 0-1.6446-0.65567-1.9521-1.457-0.453-1.1805-0.0814-1.2754 1.9581-0.5 3.8241 1.4539 4.8743 1.153 3.042-0.87169-2.17-2.39-2.09-3.17 0.3-3.17 1.0806 0 2.4465-0.9 3.0352-2 1.5532-2.9021-0.20651-2.6192-10.074 1.6198-8.72 3.75-11.92 5.86-11.92 7.86 0 0.64217-2.025 5.3282-4.5 10.413-5.5296 11.361-5.576 10.558 0.75 12.951 2.8875 1.0923 7.275 2.9142 9.75 4.0486 4.6926 2.1509 6.0558 2.2912 5.9182 0.60911zm37.08-46.5c1.1052-0.71427 0.44734-0.96937-2.5-0.96937s-3.6052 0.2551-2.5 0.96937c0.825 0.53316 1.95 0.96937 2.5 0.96937s1.675-0.43621 2.5-0.96937zm-93.6-164.84c0.285-0.461-1.601-1.327-4.191-1.926-6.757-1.562-14.152-4.924-14.854-6.753-0.854-2.225 0.135-2.826 2.537-1.541 4.087 2.187 1.172-1.351-4.42-5.364-11.629-8.347-12.841-11.777-1.496-4.233 7.478 4.973 11.491 6.238 6.524 2.058-18.536-15.602-23.676-15.181-15.183 1.244 4.693 9.074 28.021 21.469 31.083 16.515zm47.83 332.82c-9.9707-1.4538-24.22-10.478-24.234-15.348-0.0034-1.1735-0.74185-3.4836-1.641-5.1336-0.89918-1.65-2.1647-5.25-2.8123-8-0.98013-4.1621-1.6687-5.1693-4.109-6.0105-1.615-0.56-4.284-1.86-5.934-2.91-1.65-1.04-4.652-2.93-6.671-4.2-9.191-5.77-20.955-36.38-13.983-36.38 2.974 0 5.154 1.05 5.154 2.49 0 0.70201 1.0125 1.5656 2.25 1.9192 2.2148 0.63273 2.2055 0.66711-0.58841 2.1949-3.9959 2.185-2.6761 2.7789 3.3186 1.4932 8.1142-1.7402 10.452-0.34943 3.2698 1.9456-4.8986 1.5654-6.8039 3.3668-2.75 2.6 13.732-2.5976 15.386-1.6972 5 2.7219-6.5881 2.803-4.8453 3.4764 2.9089 1.1241 8.7172-2.6445 11.003-1.0303 2.8411 2.0065-10.587 3.9393-7.1968 4.1972 5.2325 0.398 8.923-2.7274 8.8154-0.61608-0.15717 3.084-13.123 5.4116-12.744 6.1638 1.2717 2.5224 13.603-3.5343 15.693-2.8399 4.6701 1.551-13.563 5.4026-10.714 6.1652 5.1724 1.3841 11.845-3.565 12.139-1.3521 0.38675 2.9107-14.835 5.38-13.591 7.35 1.674 2.65 10.617-3.2682 11.5-3.431 11.5-2.1208 0 0.48358-3.6409 2.3824-8.0909 4.2197-9.1569 3.7806-8.8312 4.9889 0.65273 2.4217 3.4905-0.94483 6.9295-1.5009 7.6422-1.2357 1.3797 0.51339 1.3208 0.54817-4.5928 2.7134-4.8758 1.7852-2.1357 2.2349 3.4716 0.56972 8.0041-2.377 11.518-2.1138 6.9171 0.51823l-3.5 2.0024 4-0.66695c6.1492-1.0253 6.7547-1.0064 7.1911 0.22442 0.49203 1.3878-8.9894 2.6329-19.422 2.5504-6.8751-0.0543-9.6277 0.84547-7.1918 2.3509 0.61021 0.37713 2.9788 0.6599 5.2635 0.62837l4.154-0.0573-2.4972 1.9984-2.4972 1.9984 3-0.50414c8.959-1.5055 11.96-1.7015 10.5-0.68556-0.825 0.57406-2.2361 1.0506-3.1357 1.059-0.89963 0.008-2.9246 0.68754-4.5 1.5092-3.7802 1.9715-2.5549 1.8956 8.5622-0.53078 8.4601-1.8464 11.409-1.9656 9.8415-0.39778-0.3109 0.3109-4.0984 1.7873-8.4167 3.281-15.857 5.4847-14.337 6.2076 3.2836 1.5621 14.642-3.8601 17.903-2.429 4.615 2.0252-12.456 4.1752-14.799 6.8198-3.2356 3.6517 15.414-4.223 17.452-3.3426 4.259 1.8404-9.8249 3.86-9.7518 4.9247 0.17992 2.6214 7.9-1.85 7.55-1.82 7.55-0.56 0 0.55-0.5625 1.0099-1.25 1.022-1.6918 0.0297-10.152 3.9092-9.6406 4.4207 0.22393 0.22392 3.1034-0.22704 6.3989-1.0022 8.4763-1.9937 13.615-1.8938 8.0159 0.15576-8.8374 3.235-6.2292 4.5198 3.8474 1.8951 6.0116-1.5658 7.6284-1.3485 7.6284 1.0252 0 3.7472-17.891 6.3433-30.772 4.4651z"/>
</svg>
