<?xml version="1.0" encoding="UTF-8" standalone="no"?>
<!-- Created with Inkscape (http://www.inkscape.org/) -->

<svg
   xmlns:dc="http://purl.org/dc/elements/1.1/"
   xmlns:cc="http://creativecommons.org/ns#"
   xmlns:rdf="http://www.w3.org/1999/02/22-rdf-syntax-ns#"
   xmlns:svg="http://www.w3.org/2000/svg"
   xmlns="http://www.w3.org/2000/svg"
   xmlns:sodipodi="http://sodipodi.sourceforge.net/DTD/sodipodi-0.dtd"
   xmlns:inkscape="http://www.inkscape.org/namespaces/inkscape"
   width="8.5in"
   height="11in"
   viewBox="0 0 765 990"
   id="svg6232"
   version="1.1"
   inkscape:version="0.91 r13725"
   sodipodi:docname="prototype_pet.svg">
  <defs
     id="defs6234" />
  <sodipodi:namedview
     id="base"
     pagecolor="#ffffff"
     bordercolor="#666666"
     borderopacity="1.0"
     inkscape:pageopacity="0.0"
     inkscape:pageshadow="2"
     inkscape:zoom="0.35"
     inkscape:cx="371.21331"
     inkscape:cy="520"
     inkscape:document-units="px"
     inkscape:current-layer="layer1"
     showgrid="false"
     units="in"
     inkscape:window-width="1280"
     inkscape:window-height="951"
     inkscape:window-x="0"
     inkscape:window-y="24"
     inkscape:window-maximized="1" />
  <metadata
     id="metadata6237">
    <rdf:RDF>
      <cc:Work
         rdf:about="">
        <dc:format>image/svg+xml</dc:format>
        <dc:type
           rdf:resource="http://purl.org/dc/dcmitype/StillImage" />
        <dc:title></dc:title>
      </cc:Work>
    </rdf:RDF>
  </metadata>
  <g
     inkscape:label="Layer 1"
     inkscape:groupmode="layer"
     id="layer1"
     transform="translate(0,-62.362205)">
    <g
       id="g7025">
      <path
         style="fill:#000000;fill-opacity:1;fill-rule:evenodd;stroke:#ffffff;stroke-width:0.83711499;stroke-miterlimit:4;stroke-dasharray:none;stroke-opacity:1"
         d="m 138.95925,508.63226 c 0,0 43.91803,15.92647 102.91032,28.84063 95.78989,20.96969 210.12606,35.68292 220.97755,36.45805 10.85149,0.7751 192.02673,-67.4343 192.02673,-67.4343 l 6.01116,-9.58031 4.18189,-10.19304 c 0,0 4.46829,-3.47984 11.44424,-8.13048 6.97598,-4.65064 22.02883,-15.82737 22.90311,-22.00798 0.65138,-4.6048 -0.93559,-8.06217 -1.96249,-9.47026 -4.02538,-5.51959 -69.57128,-28.24078 -88.17385,-35.99186 -18.60256,-7.75106 -43.95387,-18.9578 -51.44605,-23.51509 -16.88919,-10.27327 -30.85372,-44.36173 -33.98956,-46.51483 -3.13587,-2.15314 -53.49216,-8.99512 -53.49216,-8.99512 l -3.99955,-10.8515 c 0,0 24.10029,-2.38477 35.6549,-4.4026 6.36725,-1.11193 6.00526,-2.95164 7.54816,-9.77203 1.49709,-6.61786 -8.24745,-72.54808 -11.06428,-88.6665 -4.36125,-17.27384 -13.26521,-73.81525 -15.85934,-77.13204 -3.10044,-2.32533 -40.51065,-11.27653 -60.46051,-14.47843 -21.5514,-3.4589 -79.06088,-8.12501 -84.48662,-7.34991 -5.42573,0.7751 -61.76663,16.78252 -78.81898,22.20826 -17.05233,5.42574 -60.16176,24.82988 -68.68794,33.35605 -8.52618,8.52617 -22.69689,116.15767 -22.37278,127.88269 0.22333,8.07948 0.47871,17.11948 5.68113,21.45495 3.96788,3.30664 33.32958,5.54975 33.32958,5.54975 l -1.67422,7.04165 -33.10411,5.57607 -38.2057,7.84934 c 0,0 -15.04129,30.50687 -18.91683,43.3144 -2.91841,9.6445 -9.85305,46.66246 -10.07638,54.5055 -0.13953,4.90019 6.77129,21.76466 13.39175,28.86664 5.87824,6.30576 10.8268,6.9686 10.8268,6.9686 z"
         id="path3074"
         inkscape:connector-curvature="0"
         sodipodi:nodetypes="csscccssssszccssccssssssccccssscc"
         inkscape:export-filename="/home/joec/Desktop/larrymade/text3144-4.png"
         inkscape:export-xdpi="300"
         inkscape:export-ydpi="300" />
      <path
         style="fill:#ffffff;fill-opacity:1;fill-rule:evenodd;stroke:none"
         d="m 462.47505,502.37309 c 0,0 -140.52497,-67.50733 -151.79686,-79.71197 -10.43867,-11.30246 -7.27233,-59.41046 -7.27233,-59.41046 0,0 52.77291,-8.3838 89.13883,-11.40328 20.60374,-1.71075 130.59515,-8.58451 130.59515,-8.58451 0,0 7.89088,11.86574 9.44108,15.74128 1.55023,3.87554 9.42531,15.97242 13.30084,20.62307 3.87554,4.65063 20.32725,14.87342 35.37587,21.12553 24.97375,10.3756 104.85119,41.94173 104.85119,41.94173 l -1.17818,3.34385 c 0,0 -107.09608,-42.96086 -119.49777,-49.16172 -12.40172,-6.20084 -24.0195,-16.93691 -29.32267,-26.55068 -2.51147,-4.55282 -8.6502,-16.17056 -8.6502,-16.17056 0,0 -96.76431,6.97594 -120.01751,10.07638 -23.25321,3.10043 -98.72754,11.3959 -98.72754,11.3959 0,0 1.09098,13.47101 1.83923,22.77447 0.64612,8.03387 4.49862,22.34913 18.09913,32.62017 12.44788,9.40057 134.84491,68.49839 134.84491,68.49839 z"
         id="path3070"
         inkscape:connector-curvature="0"
         sodipodi:nodetypes="cscscsssccsscscsscc"
         inkscape:export-filename="/home/joec/Desktop/larrymade/text3144-4.png"
         inkscape:export-xdpi="300"
         inkscape:export-ydpi="300" />
      <path
         style="fill:#ebebeb;fill-opacity:1;fill-rule:evenodd;stroke:none"
         d="m 324.94438,327.00875 c 0,0 -2.26547,-0.43474 -6.68072,-3.23081 -5.27952,-3.34337 2.77525,-76.12529 5.42575,-105.62094 2.59008,-28.82348 10.66238,-95.63448 16.08812,-97.18468 5.42576,-1.55023 -56.01763,14.38407 -79.85462,22.86339 -21.46734,7.63641 -61.97683,24.34074 -69.22622,33.47703 -4.28313,5.39796 -12.72733,56.34489 -15.01105,69.77125 -1.5213,8.94392 -5.66924,49.07369 -5.58606,60.49989 0.0575,7.90436 1.32967,12.4105 5.2052,14.73583 3.87554,2.32533 29.46236,4.71081 32.6563,4.82138 22.29282,0.77177 116.9833,-0.13233 116.9833,-0.13233 z"
         id="path3112"
         inkscape:connector-curvature="0"
         sodipodi:nodetypes="csssssssssc"
         inkscape:export-filename="/home/joec/Desktop/larrymade/text3144-4.png"
         inkscape:export-xdpi="300"
         inkscape:export-ydpi="300" />
      <path
         style="fill:#ffffff;fill-opacity:1;fill-rule:evenodd;stroke:none"
         d="m 147.48149,350.72241 c 0,0 26.65393,-0.3522 57.6582,0.42289 31.00424,0.7751 97.07067,11.16833 97.07067,11.16833 0,0 65.7017,-10.17571 99.80639,-12.50102 34.10468,-2.32533 119.3585,-8.00645 119.3585,-8.00645 l -51.2148,-8.3233 -146.04006,11.35752 c 0,0 -103.15071,-8.10909 -120.19454,-5.98623 -20.36469,2.53646 -63.89512,11.87292 -63.89512,11.87292 z"
         id="path3100"
         inkscape:connector-curvature="0"
         sodipodi:nodetypes="cscscccscc"
         inkscape:export-filename="/home/joec/Desktop/larrymade/text3144-4.png"
         inkscape:export-xdpi="300"
         inkscape:export-ydpi="300" />
      <path
         style="fill:#5e5e5e;fill-opacity:1;fill-rule:evenodd;stroke:none"
         d="m 325.73715,342.65279 c 0,0 64.95441,-5.53761 82.48046,-6.50193 20.64489,-1.13593 59.72418,-3.70741 59.72418,-3.70741 l -3.91653,-11.07326 c 0,0 -46.94003,4.69884 -67.43426,5.7925 -13.24884,0.70703 -71.173,2.73367 -71.173,2.73367 z"
         id="path3108"
         inkscape:connector-curvature="0"
         sodipodi:nodetypes="csccscc"
         inkscape:export-filename="/home/joec/Desktop/larrymade/text3144-4.png"
         inkscape:export-xdpi="300"
         inkscape:export-ydpi="300" />
      <path
         style="fill:#a0a0a0;fill-opacity:1;fill-rule:evenodd;stroke:none"
         d="m 208.48815,329.31097 -1.48379,7.53255 c 0,0 36.04335,1.46735 58.06658,2.35413 23.59434,0.95003 58.32812,4.40206 58.32812,4.40206 l 0.65109,-14.04017 -66.20322,-0.43827 z"
         id="path3104"
         inkscape:connector-curvature="0"
         sodipodi:nodetypes="ccscccc"
         inkscape:export-filename="/home/joec/Desktop/larrymade/text3144-4.png"
         inkscape:export-xdpi="300"
         inkscape:export-ydpi="300" />
      <path
         style="fill:#e1e1e1;fill-opacity:1;fill-rule:evenodd;stroke:none"
         d="m 557.45845,393.34997 c 0,0 -8.39478,-1.83679 -12.82209,-1.4164 -6.22114,0.59073 -225.54534,28.44738 -225.54534,28.44738 0,0 -5.21168,-10.6659 -7.02258,-21.91268 -1.81092,-11.24676 -1.73177,-21.05301 -1.73177,-21.05301 0,0 83.70569,-10.53711 113.15974,-13.63754 29.45404,-3.10041 103.44387,-8.63331 103.44387,-8.63331 0,0 8.06391,17.0718 13.48965,24.04776 5.42577,6.97596 17.02852,14.1578 17.02852,14.1578 z"
         id="path3092"
         inkscape:connector-curvature="0"
         sodipodi:nodetypes="csczcscsc"
         inkscape:export-filename="/home/joec/Desktop/larrymade/text3144-4.png"
         inkscape:export-xdpi="300"
         inkscape:export-ydpi="300" />
      <path
         style="fill:#ffffff;fill-opacity:1;fill-rule:evenodd;stroke:none"
         d="m 468.79993,525.09922 c 0,0 39.41037,-5.31774 65.06812,-11.18211 37.99335,-8.68383 98.13917,-30.21502 113.85748,-35.95113 19.52818,-7.12648 49.53886,-19.2779 49.53886,-19.2779 0,0 3.46582,-7.13856 -4.67014,-12.35687 -9.51707,-6.10411 -25.41538,-8.60464 -36.26687,-11.70507 -10.8515,-3.10042 -86.34737,-33.70363 -89.98803,-35.74529 -5.29438,-2.96905 -14.72704,-5.30171 -22.47809,-5.30171 -7.75106,0 -83.71151,11.62659 -89.91237,12.40169 -6.20086,0.7751 -134.0057,15.3781 -134.0057,15.3781 l 13.64452,11.53359 58.84873,33.29858 c 0,0 46.81789,24.33989 67.70654,37.13192 6.04054,3.69919 8.65695,21.7762 8.65695,21.7762 z"
         id="path3088"
         inkscape:connector-curvature="0"
         sodipodi:nodetypes="csscssssscccsc"
         inkscape:export-filename="/home/joec/Desktop/larrymade/text3144-4.png"
         inkscape:export-xdpi="300"
         inkscape:export-ydpi="300" />
      <path
         style="fill:#6c717a;fill-opacity:0.35497837;fill-rule:evenodd;stroke:none"
         d="m 417.65686,428.15456 c 7.01249,0.43828 54.34673,23.22884 54.34673,23.22884 l -72.31621,14.90153 -46.4577,-25.85852 c 0,0 60.92093,-13.14841 64.42718,-12.27185 z"
         id="path3890"
         inkscape:connector-curvature="0"
         sodipodi:nodetypes="ccccc" />
      <path
         style="fill:#ebebeb;fill-opacity:1;fill-rule:evenodd;stroke:none"
         d="m 135.23974,351.86273 c 0,0 -13.6283,22.14186 -20.40812,49.24899 -5.35382,21.40572 -8.15472,47.90303 -8.15472,47.90303 0,0 14.24461,17.3707 60.48257,32.43046 28.44859,9.26574 129.99513,29.80074 171.29853,34.24279 47.16751,5.07273 128.97345,10.1863 128.97345,10.1863 0,0 -0.0787,-14.24396 -7.81048,-21.59704 -6.67887,-6.35183 -94.12353,-47.77283 -111.20215,-57.94118 -12.81079,-7.62734 -36.28719,-16.51692 -42.51282,-29.5446 -4.99408,-10.45056 -3.96949,-53.56552 -3.96949,-53.56552 0,0 -53.47,-7.72728 -79.07448,-9.74688 -29.48033,-2.32533 -87.62229,-1.61635 -87.62229,-1.61635 z"
         id="path3084"
         inkscape:connector-curvature="0"
         sodipodi:nodetypes="cscsscssscsc"
         inkscape:export-filename="/home/joec/Desktop/larrymade/text3144-4.png"
         inkscape:export-xdpi="300"
         inkscape:export-ydpi="300" />
      <path
         style="fill:#000000;fill-opacity:1;fill-rule:evenodd;stroke:none"
         d="m 415.40818,474.52553 43.93635,21.99256 79.69661,-21.13106 -42.35965,-19.50559 z"
         id="path3128"
         inkscape:connector-curvature="0"
         inkscape:export-filename="/home/joec/Desktop/larrymade/text3144-4.png"
         inkscape:export-xdpi="300"
         inkscape:export-ydpi="300"
         sodipodi:nodetypes="ccccc" />
      <path
         style="fill:#393937;fill-opacity:1;fill-rule:evenodd;stroke:none"
         d="m 457.84693,431.86175 88.27437,-16.14808 60.54667,23.64048 -89.90551,21.09164 z"
         id="path3136-7"
         inkscape:connector-curvature="0"
         sodipodi:nodetypes="ccccc"
         inkscape:export-filename="/home/joec/Desktop/larrymade/text3144-4.png"
         inkscape:export-xdpi="300"
         inkscape:export-ydpi="300" />
      <path
         style="fill:#cacac1;fill-opacity:0.70562768;fill-rule:evenodd;stroke:none"
         d="m 459.71811,433.33899 88.433,-16.40329 56.68746,22.5995 -87.12353,21.27141 z"
         id="path3136"
         inkscape:connector-curvature="0"
         sodipodi:nodetypes="ccccc"
         inkscape:export-filename="/home/joec/Desktop/larrymade/text3144-4.png"
         inkscape:export-xdpi="300"
         inkscape:export-ydpi="300" />
      <path
         style="fill:#393937;fill-opacity:1;fill-rule:evenodd;stroke:none"
         d="m 640.04405,430.58725 -56.13535,-21.79556 -28.88125,5.08302 56.34694,23.10694 z"
         id="path3140"
         inkscape:connector-curvature="0"
         sodipodi:nodetypes="ccccc"
         inkscape:export-filename="/home/joec/Desktop/larrymade/text3144-4.png"
         inkscape:export-xdpi="300"
         inkscape:export-ydpi="300" />
      <path
         style="fill:#cacac1;fill-opacity:0.70999995;fill-rule:evenodd;stroke:none"
         d="m 638.23112,430.99114 -52.96171,-21.03572 -28.05722,4.68502 54.1622,22.54814 z"
         id="path3140-4"
         inkscape:connector-curvature="0"
         sodipodi:nodetypes="ccccc"
         inkscape:export-filename="/home/joec/Desktop/larrymade/text3144-4.png"
         inkscape:export-xdpi="300"
         inkscape:export-ydpi="300" />
      <path
         style="fill:#5e230f;fill-opacity:1;fill-rule:evenodd;stroke:none"
         d="M 318.30525,418.41501 532.1332,391.00577 c 0,0 -1.90482,-27.22439 -6.53768,-29.30746 -4.63286,-2.08309 -201.82792,15.70957 -205.74006,20.05131 -3.91217,4.34174 -1.55021,36.66539 -1.55021,36.66539 z"
         id="path3096"
         inkscape:connector-curvature="0"
         inkscape:export-filename="/home/joec/Desktop/larrymade/text3144-4.png"
         inkscape:export-xdpi="300"
         inkscape:export-ydpi="300"
         sodipodi:nodetypes="cczzc" />
      <path
         style="fill:#3771c8;fill-opacity:1;fill-rule:evenodd;stroke:none"
         d="m 342.54224,127.58365 c -3.789,3.32095 -6.62862,35.58107 -12.07189,73.75961 -2.36661,16.59927 -11.48365,113.37154 -8.46536,117.17822 3.01828,3.80668 63.11081,1.01172 89.5208,-0.51097 26.41001,-1.52265 84.07058,-3.25677 89.20455,-10.2204 4.40544,-5.97548 -7.7108,-77.33334 -9.97454,-87.99206 -2.26369,-10.65872 -13.26598,-71.1274 -15.52969,-74.17274 -2.26372,-3.04535 -45.22462,-11.53528 -55.40001,-12.61968 -7.65447,-0.81576 -73.49483,-8.74292 -77.28386,-5.42198 z"
         id="path3116"
         inkscape:connector-curvature="0"
         inkscape:export-filename="/home/joec/Desktop/larrymade/text3144-4.png"
         inkscape:export-xdpi="300"
         inkscape:export-ydpi="300"
         sodipodi:nodetypes="zsssssssz" />
      <path
         style="fill:#214478;fill-opacity:1;fill-rule:evenodd;stroke:none"
         d="m 339.90678,134.69353 -3.23435,21.2647 c 0,0 -0.74265,65.31186 0.80758,83.91442 1.55021,18.60256 3.97698,54.55777 4.75208,59.20841 0.77511,4.65065 3.35411,11.34058 9.40273,12.70606 9.7071,2.19141 53.71775,0 70.77008,-0.7751 17.05234,-0.7751 55.80767,-2.32533 59.68321,-6.97597 3.87551,-4.65064 0.57494,-56.25116 0,-66.31115 -1.75314,-30.67554 -7.49312,-78.55488 -11.36866,-83.98062 -3.87554,-5.42574 -45.58342,-12.07478 -57.21002,-13.62501 -11.62661,-1.55021 -73.60265,-5.42574 -73.60265,-5.42574 z"
         id="path3120"
         inkscape:connector-curvature="0"
         inkscape:export-filename="/home/joec/Desktop/larrymade/text3144-4.png"
         inkscape:export-xdpi="300"
         inkscape:export-ydpi="300"
         sodipodi:nodetypes="ccssssssssc" />
      <path
         style="fill:#000000;fill-opacity:1;fill-rule:evenodd;stroke:none"
         d="m 343.10864,302.79019 c 2.16047,1.26596 24.41569,6.40828 54.66327,4.33638 30.60757,-2.09655 63.44694,-3.50151 73.06975,-9.54192 5.28678,-3.31859 4.03518,-57.38785 2.38344,-77.10232 -1.68381,-20.09733 -6.04077,-56.82533 -10.27929,-61.16573 -4.39792,-4.50361 -38.88202,-10.69594 -67.90502,-13.77156 -27.7956,-2.94557 -51.69771,-4.95687 -55.34169,-2.64101 -3.64398,2.31589 -4.06101,30.67875 -4.06101,30.67875 0,0 0.49462,46.37247 2.04481,61.8746 1.55022,15.50215 3.2653,66.06687 5.42574,67.33281 z"
         id="path3124"
         inkscape:connector-curvature="0"
         sodipodi:nodetypes="zssssszcsz"
         inkscape:export-filename="/home/joec/Desktop/larrymade/text3144-4.png"
         inkscape:export-xdpi="300"
         inkscape:export-ydpi="300" />
      <path
         style="fill:#1a1a1a;fill-opacity:1;fill-rule:evenodd;stroke:none"
         d="m 331.67506,388.27106 0.36082,19.00096 63.70696,-7.71012 -0.51573,-17.84104 z"
         id="path3886"
         inkscape:connector-curvature="0"
         sodipodi:nodetypes="ccccc" />
      <path
         style="fill:#ffffff;fill-opacity:1;fill-rule:evenodd;stroke:none"
         d="m 482.52232,145.09718 c 0,0 -1.31484,-2.19141 -3.94452,-2.62968 -2.62968,-0.43828 -53.90845,-11.39528 -68.80997,-13.58669 -14.90154,-2.1914 -63.55064,-6.12864 -67.93343,-3.93721 -4.78511,2.39252 -10.20304,54.05936 -12.01646,72.23732 -1.74242,17.4664 -13.00816,118.14607 -8.27418,123.20687 3.32674,3.55636 80.61284,-1.14579 102.24902,-1.80325 21.40207,-0.65039 63.17253,-5.87516 69.12384,-6.21952 11.35842,-0.6572 13.85735,-2.48471 13.85735,-2.48471 0,0 -0.0177,4.56744 -2.77592,4.84326 -8.76561,0.87656 -44.1015,6.6708 -77.57559,7.80547 -17.45415,0.59164 -86.37174,3.77532 -98.61304,3.94453 -3.16016,0.0436 -7.01247,-2.62969 -9.64215,-5.69765 -2.62969,-3.06795 5.45309,-88.95948 7.09137,-106.0638 3.4631,-36.1564 12.02582,-91.16696 14.21721,-92.48179 4.3989,-2.63933 56.26699,2.26767 74.67476,4.89737 18.40778,2.62967 65.30374,13.58667 67.49514,14.90152 2.19141,1.31485 0.87657,3.06796 0.87657,3.06796 z"
         id="path3894"
         inkscape:connector-curvature="0"
         sodipodi:nodetypes="cssssssscssssssssc" />
      <path
         style="fill:#ababab;fill-opacity:1;fill-rule:evenodd;stroke:none"
         d="m 107.1961,452.30719 c 0,0 8.06861,24.367 18.65859,29.40997 6.76787,3.22283 54.55935,22.69337 161.37158,40.84717 19.20982,3.2649 161.87587,28.24003 166.91873,25.71859 5.04285,-2.52143 8.50724,-6.29966 10.15288,-9.58145 2.97569,-5.93425 3.63418,-11.70274 3.63418,-11.70274 0,0 -108.84304,-5.24378 -163.71147,-13.95864 C 253.12698,504.92479 185.95676,488.87124 171.20011,484.4953 134.2091,473.52603 107.1961,452.30719 107.1961,452.30719 Z"
         id="path3898"
         inkscape:connector-curvature="0"
         sodipodi:nodetypes="csssscssc" />
      <path
         style="fill:#666666;fill-opacity:1;fill-rule:evenodd;stroke:none"
         d="m 696.60939,460.24753 c 0,0 -51.33991,20.54292 -78.57138,29.62008 -27.23145,9.07715 -73.48458,23.8011 -96.17746,28.33969 -11.90898,2.3818 -52.08266,8.89559 -52.08266,8.89559 0,0 -1.37142,6.23578 -4.19567,12.10289 -1.46728,3.04808 -9.15146,9.86716 -9.15146,9.86716 0,0 97.05862,-25.84295 135.38437,-39.45867 14.75387,-5.24153 72.11293,-25.37568 72.11293,-25.37568 0,0 13.92464,-7.92106 17.45463,-10.94678 3.53,-3.02574 15.2267,-13.04428 15.2267,-13.04428 z"
         id="path3902"
         inkscape:connector-curvature="0"
         sodipodi:nodetypes="csscscscsc" />
      <path
         style="fill:#ababab;fill-opacity:1;fill-rule:evenodd;stroke:none"
         d="m 496.72189,311.1978 c 0,0 9.00838,0.21869 11.02552,-2.80704 2.01715,-3.02571 -8.07847,-77.25141 -10.6913,-89.58484 -2.63946,-12.45909 -12.88082,-69.35186 -14.67108,-71.43051 -1.91089,-2.21878 -6.05515,-3.1933 -6.05515,-3.1933 0,0 4.88096,24.03249 13.78082,66.73334 2.85365,13.69162 14.76185,88.85052 13.09812,96.20065 -0.58727,2.59447 -6.48693,4.0817 -6.48693,4.0817 z"
         id="path3906"
         inkscape:connector-curvature="0"
         sodipodi:nodetypes="cssscssc" />
      <path
         style="fill:#ffffff;fill-opacity:1;fill-rule:evenodd;stroke:none"
         d="m 417.70883,436.73998 c 4.63225,1.65439 37.7198,18.19817 37.7198,18.19817 l -55.25621,11.24978 -38.05069,-20.18341 c 0,0 51.61659,-9.92626 55.5871,-9.26454 z"
         id="path3934"
         inkscape:connector-curvature="0"
         sodipodi:nodetypes="ccccc" />
      <path
         style="fill:#472c23;fill-opacity:0.32467532;fill-rule:evenodd;stroke:none"
         d="m 366.754,448.32064 30.06746,16.29733 c 0,0 46.75455,-7.38621 48.68092,-9.34894 2.81953,-2.87279 -25.8083,-15.55114 -29.11706,-15.88202 -3.24256,-0.32426 -49.63132,8.93363 -49.63132,8.93363 z"
         id="path3942"
         inkscape:connector-curvature="0"
         sodipodi:nodetypes="ccssc" />
      <path
         style="fill:#ffffff;fill-opacity:1;fill-rule:evenodd;stroke:none"
         d="m 378.68537,454.60728 11.56079,6.61752 c 0,0 34.08019,-5.95577 35.73455,-7.61015 1.65438,-1.65438 -1.01248,-3.30875 -5.31386,-5.29401 -4.30136,-1.98523 -41.98148,6.28664 -41.98148,6.28664 z"
         id="path3938"
         inkscape:connector-curvature="0"
         sodipodi:nodetypes="ccssc" />
      <path
         style="fill:#000000;fill-rule:evenodd;stroke:none"
         d="m 392.54244,453.61465 4.32121,2.97789 16.5438,-2.97789 -3.95067,-2.97786 z"
         id="path3946"
         inkscape:connector-curvature="0"
         sodipodi:nodetypes="ccccc" />
      <path
         style="fill:#4d4d4d;fill-opacity:1;stroke:none"
         d="m 421.72816,452.72787 c -0.51223,1.3692 -2.6618,1.49951 -4.80123,0.69913 -2.1394,-0.80035 -3.45848,-2.22826 -2.94627,-3.59748 0.51222,-1.36924 2.66182,-1.16865 4.80122,-0.36829 2.13941,0.80037 3.45849,1.89741 2.94628,3.26664 z"
         id="path3950"
         inkscape:connector-curvature="0"
         sodipodi:nodetypes="sssss" />
      <path
         style="fill:#4d4d4d;fill-opacity:1;stroke:none"
         d="m 393.37521,458.41548 c -0.51223,1.36923 -2.66181,1.4995 -4.80122,0.69915 -2.1394,-0.80035 -3.4585,-2.22826 -2.94627,-3.59748 0.51223,-1.36922 2.6618,-1.16863 4.80121,-0.36828 2.13941,0.80035 3.4585,1.8974 2.94628,3.26661 z"
         id="path3950-9"
         inkscape:connector-curvature="0"
         sodipodi:nodetypes="sssss" />
      <path
         style="fill:#331f04;fill-opacity:0.6;fill-rule:evenodd;stroke:none"
         d="m 413.83149,420.55947 -78.6234,13.29754 64.72596,34.50789 1.52734,-0.30611 80.78595,-16.19224 z"
         id="path3132"
         inkscape:connector-curvature="0"
         inkscape:export-filename="/home/joec/Desktop/larrymade/text3144-4.png"
         inkscape:export-xdpi="300"
         inkscape:export-ydpi="300"
         sodipodi:nodetypes="cccccc" />
      <path
         id="rect4593"
         style="fill:#ffffff;fill-opacity:1;stroke:none"
         d="m 465.53096,393.8604 c -0.48724,0.0606 -0.6392,-0.39003 -0.61274,-1.20946 0,0 0.007,-0.23575 0.007,-0.23575 0.0254,-0.78579 0.19787,-1.26477 0.73288,-1.32838 0,0 0.26748,-0.0318 0.26748,-0.0318 0.45381,-0.0539 0.63475,0.23662 0.60322,1.21009 0,0 -0.007,0.235 -0.007,0.235 -0.029,0.89513 -0.2313,1.26576 -0.68511,1.32225 0,0 -0.30571,0.0381 -0.30571,0.0381 m 1.78212,-1.8463 c 0.0537,-1.65339 -0.24218,-2.50945 -1.11635,-2.40802 0,0 -0.33437,0.0388 -0.33437,0.0388 -0.63054,0.0732 -0.80859,0.42927 -0.91646,0.82211 0,0 0.0231,-0.7185 0.0231,-0.7185 0,0 -0.79293,0.0919 -0.79293,0.0919 0,0 -0.25478,7.90482 -0.25478,7.90482 0,0 0.79292,-0.10457 0.79292,-0.10457 0,0 0.10083,-3.12096 0.10083,-3.12096 0.0533,0.4069 0.22086,0.82156 0.82748,0.74432 0,0 0.33441,-0.0425 0.33441,-0.0425 0.85027,-0.1083 1.26473,-1.00658 1.318,-2.64881 0,0 0.0182,-0.55859 0.0182,-0.55859 m 1.55695,-1.42002 c 0,0 0.4968,-0.0588 0.4968,-0.0588 0.48723,-0.058 0.5187,0.43665 0.50638,0.81452 0,0 -1.52861,0.18411 -1.52861,0.18411 0.0111,-0.32331 0.062,-0.88471 0.52543,-0.93969 m -1.29369,2.03316 c -0.0564,1.73061 0.23699,2.37154 1.28792,2.2377 0,0 0.3487,-0.0443 0.3487,-0.0443 1.10823,-0.14108 1.3173,-1.00764 1.34557,-1.87324 0,0 0.004,-0.11106 0.004,-0.11106 0,0 -0.74043,0.0916 -0.74043,0.0916 -0.0156,0.4668 -0.1228,0.5577 -0.5241,0.60775 0,0 -0.4968,0.062 -0.4968,0.062 -0.40125,0.05 -0.52411,-0.26776 -0.50634,-0.81403 0,0 0.007,-0.21183 0.007,-0.21183 0,0 2.27856,-0.27923 2.27856,-0.27923 0,0 0.0265,-0.81012 0.0265,-0.81012 0.0591,-1.80886 -0.18924,-2.36599 -1.25446,-2.24241 0,0 -0.37737,0.0439 -0.37737,0.0439 -0.9936,0.1152 -1.31809,0.87593 -1.37353,2.58418 0,0 -0.0247,0.75924 -0.0247,0.75924 m 5.02596,0.43008 c 0,0 -0.21019,0.0263 -0.21019,0.0263 -0.33913,0.0423 -0.47268,-0.23868 -0.45058,-0.91373 0,0 0.0551,-1.68213 0.0551,-1.68213 0,0 1.67189,-0.19928 1.67189,-0.19928 0,0 0.0504,-1.533 0.0504,-1.533 0,0 -1.67189,0.19402 -1.67189,0.19402 0,0 0.0349,-1.06238 0.0349,-1.06238 0,0 -0.79297,0.0903 -0.79297,0.0903 0,0 -0.035,1.06413 -0.035,1.06413 0,0 -0.29138,0.0337 -0.29138,0.0337 0,0 -0.0504,1.54165 -0.0504,1.54165 0,0 0.29136,-0.0348 0.29136,-0.0348 0,0 -0.0521,1.59617 -0.0521,1.59617 -0.0525,1.60725 0.26565,2.35045 1.14936,2.23792 0,0 0.26274,-0.0334 0.26274,-0.0334 1.12733,-0.14353 1.34509,-1.2688 1.38279,-2.415 0,0 -0.81685,0.10028 -0.81685,0.10028 -0.0139,0.44159 -0.0972,0.93568 -0.52722,0.98924 m 5.62265,0.60461 c 1.08435,-0.13813 1.29241,-0.81543 1.33081,-1.97021 0,0 0.006,-0.16334 0.006,-0.16334 0,0 -0.75474,0.093 -0.75474,0.093 -0.0156,0.45828 -0.10388,0.69754 -0.69157,0.77078 0,0 -0.19109,0.0238 -0.19109,0.0238 -0.52067,0.0648 -0.69466,-0.28407 -0.66602,-1.14883 0,0 0.0124,-0.36125 0.0124,-0.36125 0.0309,-0.93046 0.20519,-1.31098 0.74496,-1.37506 0,0 0.18152,-0.0216 0.18152,-0.0216 0.58757,-0.0697 0.67584,0.13703 0.66208,0.55177 0,0 0.75475,-0.0905 0.75475,-0.0905 0,0 0.004,-0.10899 0.004,-0.10899 0.0424,-1.27461 -0.19742,-1.78939 -1.27225,-1.6647 0,0 -0.35825,0.0416 -0.35825,0.0416 -1.01745,0.11797 -1.33683,0.85399 -1.39374,2.57504 0,0 -0.0236,0.71253 -0.0236,0.71253 -0.0561,1.69913 0.18961,2.3228 1.29782,2.1817 0,0 0.35827,-0.0457 0.35827,-0.0457 m 3.92596,-3.33774 c 0,0 -0.007,0.22756 -0.007,0.22756 -0.0297,0.88858 -0.20886,1.26699 -0.6961,1.32764 0,0 -0.29615,0.037 -0.29615,0.037 -0.48724,0.0606 -0.64248,-0.27735 -0.61276,-1.16891 0,0 0.007,-0.22832 0.007,-0.22832 0.0273,-0.81545 0.18353,-1.2239 0.72334,-1.28809 0,0 0.23884,-0.0283 0.23884,-0.0283 0.53977,-0.0644 0.67,0.30889 0.64283,1.12163 m -0.5395,-2.50648 c 0,0 -0.40603,0.0471 -0.40603,0.0471 -0.98403,0.1141 -1.30004,0.8884 -1.36023,2.69589 0,0 -0.0156,0.45733 -0.0156,0.45733 -0.0605,1.81838 0.28591,2.41394 0.94989,2.32939 0,0 0.95058,-0.12114 0.95058,-0.12114 0.72131,-0.0919 1.04912,-0.79085 1.10893,-2.57625 0,0 0.0156,-0.45445 0.0156,-0.45445 0.0622,-1.86114 -0.24958,-2.49322 -1.24315,-2.37795 m 6.72407,1.28696 c 0.0413,-1.21946 -0.21704,-2.02058 -1.0912,-1.91911 0,0 -0.21496,0.025 -0.21496,0.025 -0.54934,0.0638 -0.73361,0.44903 -0.84809,0.87986 -0.0869,-0.38588 -0.2649,-0.75067 -1.02919,-0.66196 0,0 -0.17202,0.0198 -0.17202,0.0198 -0.55411,0.0642 -0.78763,0.49991 -0.8734,0.92923 0,0 0.028,-0.83109 0.028,-0.83109 0,0 -0.81202,0.0943 -0.81202,0.0943 0,0 -0.18088,5.39515 -0.18088,5.39515 0,0 0.81206,-0.10332 0.81206,-0.10332 0,0 0.0989,-2.94662 0.0989,-2.94662 0.0238,-0.71239 0.17803,-1.19294 0.59843,-1.24286 0,0 0.14335,-0.0174 0.14335,-0.0174 0.49677,-0.0591 0.59989,0.41124 0.57562,1.13242 0,0 -0.0978,2.90621 -0.0978,2.90621 0,0 0.81208,-0.10332 0.81208,-0.10332 0,0 0.0968,-2.86902 0.0968,-2.86902 0.0254,-0.75218 0.2184,-1.25671 0.65787,-1.30887 0,0 0.14335,-0.0174 0.14335,-0.0174 0.5207,-0.0619 0.54925,0.50044 0.53004,1.06837 0,0 -0.0999,2.95745 -0.0999,2.95745 0,0 0.81206,-0.10332 0.81206,-0.10332 0,0 0.11119,-3.28403 0.11119,-3.28403 m 1.78868,1.69473 c -0.48722,0.0606 -0.63919,-0.36667 -0.61272,-1.14559 0,0 0.007,-0.22406 0.007,-0.22406 0.0254,-0.74691 0.19789,-1.20311 0.73289,-1.26672 0,0 0.2675,-0.0318 0.2675,-0.0318 0.45378,-0.0539 0.63472,0.22106 0.60319,1.14621 0,0 -0.007,0.22332 -0.007,0.22332 -0.029,0.85071 -0.23133,1.20411 -0.6851,1.26058 0,0 -0.30575,0.038 -0.30575,0.038 m 1.78215,-1.76518 c 0.0535,-1.57118 -0.24217,-2.3828 -1.11639,-2.28136 0,0 -0.33433,0.0388 -0.33433,0.0388 -0.63053,0.0732 -0.80862,0.4126 -0.91649,0.78657 0,0 0.0231,-0.68294 0.0231,-0.68294 0,0 -0.79293,0.0921 -0.79293,0.0921 0,0 -0.25479,7.51429 -0.25479,7.51429 0,0 0.79294,-0.10457 0.79294,-0.10457 0,0 0.10084,-2.96652 0.10084,-2.96652 0.0533,0.38636 0.22085,0.77937 0.82752,0.70211 0,0 0.33437,-0.0425 0.33437,-0.0425 0.85027,-0.1083 1.26475,-0.96437 1.31801,-2.52494 0,0 0.0182,-0.53081 0.0182,-0.53081 m 0.37163,0.47257 c -0.0588,1.71842 0.3436,2.33253 1.09357,2.23701 0,0 0.6162,-0.0786 0.6162,-0.0786 0.42515,-0.0541 0.60947,-0.43484 0.71584,-0.76349 0,0 -0.0229,0.66475 -0.0229,0.66475 0,0 0.79296,-0.10098 0.79296,-0.10098 0,0 0.18084,-5.25615 0.18084,-5.25615 0,0 -0.80249,0.0931 -0.80249,0.0931 0,0 -0.0888,2.5851 -0.0888,2.5851 -0.0319,0.92853 -0.28849,1.47534 -0.73275,1.53072 0,0 -0.31048,0.0388 -0.31048,0.0388 -0.49201,0.0613 -0.6704,-0.28546 -0.63342,-1.36558 0,0 0.0888,-2.59438 0.0888,-2.59438 0,0 -0.79774,0.0924 -0.79774,0.0924 0,0 -0.0996,2.91703 -0.0996,2.91703 m 5.40279,0.42518 c 0,0 -0.21018,0.0263 -0.21018,0.0263 -0.33918,0.0423 -0.47272,-0.22339 -0.45059,-0.86389 0,0 0.0551,-1.59602 0.0551,-1.59602 0,0 1.67192,-0.19929 1.67192,-0.19929 0,0 0.0504,-1.45427 0.0504,-1.45427 0,0 -1.67194,0.19404 -1.67194,0.19404 0,0 0.0349,-1.00801 0.0349,-1.00801 0,0 -0.79293,0.0903 -0.79293,0.0903 0,0 -0.0349,1.00975 -0.0349,1.00975 0,0 -0.29138,0.0337 -0.29138,0.0337 0,0 -0.0503,1.46292 -0.0503,1.46292 0,0 0.2914,-0.0348 0.2914,-0.0348 0,0 -0.0521,1.5146 -0.0521,1.5146 -0.0525,1.52512 0.26562,2.22811 1.14936,2.11559 0,0 0.26271,-0.0334 0.26271,-0.0334 1.12736,-0.14352 1.34511,-1.21216 1.38279,-2.29943 0,0 -0.81682,0.10028 -0.81682,0.10028 -0.014,0.41893 -0.0972,0.8881 -0.52724,0.94167 m 2.79855,-3.08862 c 0,0 0.49676,-0.059 0.49676,-0.059 0.48726,-0.0579 0.51871,0.40454 0.50639,0.75814 0,0 -1.5286,0.18411 -1.5286,0.18411 0.0111,-0.30261 0.062,-0.8283 0.52545,-0.88328 m -1.29368,1.91249 c -0.0561,1.61994 0.23697,2.21732 1.2879,2.08349 0,0 0.34868,-0.0443 0.34868,-0.0443 1.10826,-0.1411 1.3173,-0.95339 1.34558,-1.76331 0,0 0.004,-0.10373 0.004,-0.10373 0,0 -0.74041,0.0916 -0.74041,0.0916 -0.0156,0.43679 -0.1228,0.52269 -0.52412,0.57278 0,0 -0.49677,0.062 -0.49677,0.062 -0.40127,0.05 -0.52413,-0.24632 -0.50636,-0.7576 0,0 0.007,-0.19827 0.007,-0.19827 0,0 2.27854,-0.27922 2.27854,-0.27922 0,0 0.0265,-0.75798 0.0265,-0.75798 0.0591,-1.6925 -0.18921,-2.2118 -1.25446,-2.0882 0,0 -0.37734,0.0439 -0.37734,0.0439 -0.99358,0.1152 -1.31808,0.82948 -1.37354,2.42854 0,0 -0.0247,0.71069 -0.0247,0.71069 m 4.96805,-2.3279 c 0.40126,-0.0477 0.48823,0.45634 0.47516,0.82819 0,0 0.79296,-0.0957 0.79296,-0.0957 0.0417,-1.18577 -0.16524,-2.06542 -1.03466,-1.96452 0,0 -0.32004,0.0372 -0.32004,0.0372 -0.40601,0.0471 -0.58555,0.41866 -0.6908,0.84358 0,0 0.0269,-0.76652 0.0269,-0.76652 0,0 -0.80727,0.0936 -0.80727,0.0936 0,0 -0.18085,5.17791 -0.18085,5.17791 0,0 0.80727,-0.1029 0.80727,-0.1029 0,0 0.0955,-2.72422 0.0955,-2.72422 0.0247,-0.70439 0.2533,-1.2576 0.63067,-1.3024 0,0 0.20541,-0.0243 0.20541,-0.0243 m 5.599,0.75913 c 0,0 0.87444,-0.24864 0.87444,-0.24864 0.92737,-0.26466 1.22733,-0.80712 1.281,-2.31168 0.0645,-1.80954 -0.182,-2.36938 -1.41442,-2.23205 0,0 -0.71175,0.0794 -0.71175,0.0794 -1.2372,0.13785 -1.4222,1.3322 -1.47583,2.84879 0,0 0.79775,-0.0936 0.79775,-0.0936 0.0344,-0.97176 0.121,-1.26694 0.79452,-1.3441 0,0 0.52544,-0.0601 0.52544,-0.0601 0.59234,-0.068 0.71481,0.10083 0.69162,0.75244 -0.0235,0.66197 -0.12929,0.82658 -0.56657,0.94935 0,0 -1.06148,0.28851 -1.06148,0.28851 -0.78295,0.21531 -1.25552,0.93484 -1.30662,2.37977 0,0 -0.0589,1.66011 -0.0589,1.66011 0,0 3.59696,-0.45801 3.59696,-0.45801 0,0 0.0507,-1.42328 0.0507,-1.42328 0,0 -2.79925,0.34757 -2.79925,0.34757 0,0 0.008,-0.23527 0.008,-0.23527 0.0197,-0.56265 0.25025,-0.75371 0.77381,-0.89896 m 4.24903,-3.57059 c 0,0 0.35825,-0.0412 0.35825,-0.0412 0.79773,-0.0917 0.9044,0.11713 0.8533,1.53981 0,0 -0.0264,0.73663 -0.0264,0.73663 -0.0485,1.35212 -0.17521,1.56874 -0.95386,1.66515 0,0 -0.40123,0.0494 -0.40123,0.0494 -0.72131,0.0894 -0.81699,-0.16125 -0.7717,-1.42859 0,0 0.0265,-0.74012 0.0265,-0.74012 0.0504,-1.40925 0.16525,-1.69509 0.91522,-1.78135 m -0.2835,5.52595 c 0,0 0.4729,-0.0604 0.4729,-0.0604 1.37575,-0.17516 1.69634,-0.62708 1.79017,-3.23586 0,0 0.031,-0.85618 0.031,-0.85618 0.0921,-2.55844 -0.18533,-3.17962 -1.55153,-3.02739 0,0 -0.4729,0.0528 -0.4729,0.0528 -1.3184,0.14683 -1.60837,0.80644 -1.7026,3.44719 0,0 -0.0309,0.86332 -0.0309,0.86332 -0.0908,2.53918 0.18377,2.97944 1.46394,2.81645 m 4.36061,-5.99493 c 0,0 0.35828,-0.0412 0.35828,-0.0412 0.79772,-0.0917 0.90442,0.11507 0.85331,1.52481 0,0 -0.0264,0.72991 -0.0264,0.72991 -0.0485,1.3398 -0.17523,1.55455 -0.95385,1.65098 0,0 -0.40125,0.0496 -0.40125,0.0496 -0.72135,0.0894 -0.81697,-0.15881 -0.77167,-1.4147 0,0 0.0264,-0.73337 0.0264,-0.73337 0.0504,-1.39647 0.16524,-1.67982 0.9152,-1.76607 m -0.28349,5.47576 c 0,0 0.4729,-0.0604 0.4729,-0.0604 1.37575,-0.17517 1.69629,-0.62331 1.79018,-3.20825 0,0 0.0309,-0.84833 0.0309,-0.84833 0.0921,-2.53505 -0.1853,-3.15025 -1.55151,-2.99801 0,0 -0.47289,0.0528 -0.47289,0.0528 -1.3184,0.14683 -1.60839,0.80072 -1.70262,3.41753 0,0 -0.0308,0.85551 -0.0308,0.85551 -0.0908,2.51614 0.18374,2.95209 1.46392,2.78908 m 4.84258,-6.24725 c 0,0 -0.20657,5.65693 -0.20657,5.65693 0,0 0.79295,-0.10098 0.79295,-0.10098 0,0 0.25404,-6.94446 0.25404,-6.94446 0,0 -1.14165,0.12736 -1.14165,0.12736 0,0 -1.05536,2.19963 -1.05536,2.19963 0,0 0.35753,0.76061 0.35753,0.76061 0,0 0.81274,-1.67772 0.81274,-1.67772 0,0 0.18632,-0.0211 0.18632,-0.0211"
         inkscape:connector-curvature="0" />
      <path
         inkscape:connector-curvature="0"
         d="m 518.44266,455.39541 c 0.68663,0.14597 4.39392,1.50596 4.61539,1.94889 0.22144,0.44291 -3.60987,0.64675 -3.60987,0.64675 0,0 -4.28226,-1.50806 -4.65063,-1.99314 0.38882,-0.56922 3.34819,-0.57157 3.64511,-0.6025 z m -48.3976,-22.36267 c 0.68664,0.14596 4.39392,1.50597 4.6154,1.94888 0.22144,0.44293 -3.60988,0.64674 -3.60988,0.64674 0,0 -4.28226,-1.50805 -4.65062,-1.99311 0.38881,-0.56924 3.34819,-0.57157 3.6451,-0.60251 z m 37.25039,16.35877 c 0.68664,0.14596 4.39393,1.50597 4.61539,1.94889 0.22145,0.44292 -3.60988,0.64674 -3.60988,0.64674 0,0 -4.28224,-1.50806 -4.65061,-1.99314 0.3888,-0.5692 3.34819,-0.57155 3.6451,-0.60249 z m -12.99722,-5.26305 c 0.68663,0.14596 4.39392,1.50597 4.61539,1.94889 0.22145,0.44292 -3.60986,0.64675 -3.60986,0.64675 0,0 -4.28228,-1.50807 -4.65064,-1.99315 0.3888,-0.5692 3.34819,-0.57155 3.64511,-0.60249 z m -12.07605,-5.37916 c 0.68663,0.14596 4.39392,1.50595 4.61539,1.94888 0.22145,0.44292 -3.60987,0.64675 -3.60987,0.64675 0,0 -4.28227,-1.50806 -4.65063,-1.99314 0.38882,-0.56922 3.34818,-0.57157 3.64511,-0.60249 z m 45.11783,14.52719 c 0.68662,0.14597 4.39393,1.50598 4.61538,1.9489 0.22146,0.44291 -3.60985,0.64674 -3.60985,0.64674 0,0 -4.28228,-1.50805 -4.65064,-1.99313 0.38882,-0.56922 3.34819,-0.57156 3.64511,-0.60251 z m -49.16335,-21.81473 c 0.68664,0.14597 4.39394,1.50597 4.6154,1.9489 0.22145,0.44291 -3.60986,0.64675 -3.60986,0.64675 0,0 -4.28227,-1.50806 -4.65064,-1.99314 0.38882,-0.56922 3.3482,-0.57156 3.6451,-0.60251 z m 37.05708,16.16545 c 0.68661,0.14596 4.39391,1.50597 4.61537,1.94888 0.22147,0.44293 -3.60986,0.64675 -3.60986,0.64675 0,0 -4.28227,-1.50806 -4.65062,-1.99314 0.3888,-0.56922 3.34818,-0.57154 3.64511,-0.60249 z m -12.12455,-4.97576 c 0.68663,0.14596 4.39393,1.50597 4.61539,1.9489 0.22145,0.44291 -3.60986,0.64675 -3.60986,0.64675 0,0 -4.28225,-1.50806 -4.65062,-1.99315 0.3888,-0.56921 3.34819,-0.57156 3.64509,-0.6025 z m -12.26936,-5.47313 c 0.68661,0.14596 4.39392,1.50597 4.61537,1.9489 0.22146,0.44291 -3.60986,0.64675 -3.60986,0.64675 0,0 -4.28226,-1.50807 -4.65064,-1.99313 0.38882,-0.56922 3.34822,-0.57156 3.64513,-0.60252 z m 44.54756,14.11352 c 0.68663,0.14596 4.39393,1.50595 4.61538,1.94888 0.22146,0.44293 -3.60985,0.64675 -3.60985,0.64675 0,0 -4.28226,-1.50804 -4.65063,-1.99314 0.38881,-0.56922 3.34819,-0.57155 3.6451,-0.60249 z m -47.22681,-21.77727 c 0.68663,0.14596 4.39393,1.50595 4.61538,1.94888 0.22146,0.44293 -3.60985,0.64675 -3.60985,0.64675 0,0 -4.28227,-1.50806 -4.65064,-1.99314 0.38882,-0.56922 3.34821,-0.57157 3.64511,-0.60249 z m 35.31386,16.06607 c 0.68663,0.14596 4.39393,1.50596 4.61539,1.94888 0.22145,0.44291 -3.60986,0.64675 -3.60986,0.64675 0,0 -4.28227,-1.50805 -4.65062,-1.99314 0.3888,-0.56922 3.3482,-0.57155 3.64509,-0.60249 z m -11.45275,-5.06972 c 0.68663,0.14596 4.39393,1.50597 4.61537,1.94889 0.22147,0.44291 -3.60984,0.64675 -3.60984,0.64675 0,0 -4.28228,-1.50805 -4.65064,-1.99315 0.38882,-0.56921 3.3482,-0.57157 3.64511,-0.60249 z m -12.23193,-5.53505 c 0.68663,0.14597 4.39392,1.50597 4.61537,1.94891 0.22147,0.4429 -3.60984,0.64674 -3.60984,0.64674 0,0 -4.28227,-1.50807 -4.65063,-1.99315 0.38881,-0.56919 3.34818,-0.57154 3.6451,-0.6025 z m 43.59281,14.22796 c 0.6866,0.14596 4.39392,1.50597 4.61537,1.9489 0.22146,0.44291 -3.60987,0.64675 -3.60987,0.64675 0,0 -4.28224,-1.50806 -4.65061,-1.99314 0.3888,-0.56922 3.34819,-0.57157 3.64511,-0.60251 z m -47.13285,-20.96109 c 0.68662,0.14596 4.39393,1.50597 4.61538,1.9489 0.22146,0.44291 -3.60986,0.64675 -3.60986,0.64675 0,0 -4.28225,-1.50806 -4.65064,-1.99316 0.38882,-0.5692 3.34821,-0.57154 3.64512,-0.60249 z m 35.38833,15.16311 c 0.68663,0.14596 4.39394,1.50594 4.61539,1.94885 0.22145,0.44294 -3.60986,0.64675 -3.60986,0.64675 0,0 -4.28227,-1.50803 -4.65064,-1.99311 0.38882,-0.56923 3.3482,-0.57157 3.64511,-0.60249 z m -11.93319,-4.70797 c 0.68665,0.14596 4.39393,1.50596 4.61541,1.94889 0.22143,0.44291 -3.60988,0.64675 -3.60988,0.64675 0,0 -4.28225,-1.50805 -4.65062,-1.99314 0.38882,-0.56922 3.3482,-0.57157 3.64509,-0.6025 z m -11.53327,-5.17326 c 0.68663,0.14594 4.39393,1.50595 4.61538,1.94889 0.22146,0.44292 -3.60985,0.64675 -3.60985,0.64675 0,0 -4.28228,-1.50808 -4.65064,-1.99315 0.38882,-0.5692 3.3482,-0.57157 3.64511,-0.60249 z m 41.7292,13.98958 c 0.68662,0.14595 4.39393,1.50595 4.61538,1.94887 0.22146,0.44291 -3.60986,0.64675 -3.60986,0.64675 0,0 -4.28227,-1.50804 -4.65063,-1.99312 0.38879,-0.56922 3.34819,-0.57157 3.64511,-0.6025 z m -45.36983,-20.54756 c 0.68662,0.14595 4.39395,1.50596 4.61538,1.9489 0.22148,0.44291 -3.60984,0.64675 -3.60984,0.64675 0,0 -4.28226,-1.50806 -4.65064,-1.99314 0.38882,-0.56922 3.3482,-0.57156 3.6451,-0.60251 z m 35.20794,14.9719 c 0.68663,0.14596 4.39392,1.50597 4.61539,1.94889 0.22145,0.44292 -3.60986,0.64675 -3.60986,0.64675 0,0 -4.28228,-1.50805 -4.65064,-1.99313 0.38882,-0.56922 3.34819,-0.57157 3.64511,-0.60251 z m -12.42866,-5.22678 c 0.68663,0.14596 4.39393,1.50596 4.61538,1.94888 0.22146,0.44293 -3.60985,0.64675 -3.60985,0.64675 0,0 -4.28226,-1.50803 -4.65062,-1.99314 0.3888,-0.56921 3.34819,-0.57155 3.64509,-0.60249 z m -11.19426,-4.65444 c 0.68662,0.14596 4.39392,1.50596 4.61537,1.94889 0.22147,0.44292 -3.60985,0.64675 -3.60985,0.64675 0,0 -4.28226,-1.50806 -4.65063,-1.99314 0.38881,-0.56922 3.34819,-0.57156 3.64511,-0.6025 z m -3.58455,-6.74051 c 0.68663,0.14596 4.39392,1.50597 4.61537,1.9489 0.22147,0.44291 -3.60984,0.64675 -3.60984,0.64675 0,0 -4.28227,-1.50807 -4.65063,-1.99315 0.38881,-0.56919 3.34819,-0.57154 3.6451,-0.6025 z m 34.85753,14.65779 c 0.68663,0.14595 4.39393,1.50596 4.61539,1.94887 0.22147,0.44292 -3.60984,0.64675 -3.60984,0.64675 0,0 -4.28227,-1.50803 -4.65066,-1.99314 0.38882,-0.56922 3.34822,-0.57154 3.64511,-0.60248 z m -12.04198,-5.03345 c 0.68662,0.14596 4.39392,1.50597 4.61537,1.94888 0.22148,0.44293 -3.60983,0.64674 -3.60983,0.64674 0,0 -4.28228,-1.50803 -4.65066,-1.99313 0.38882,-0.56922 3.34821,-0.57155 3.64512,-0.60249 z m -10.8823,-4.67934 c 0.68663,0.14594 4.39393,1.50597 4.61538,1.94889 0.22147,0.44293 -3.60985,0.64675 -3.60985,0.64675 0,0 -4.28228,-1.50805 -4.65064,-1.99314 0.38882,-0.56921 3.3482,-0.57156 3.64511,-0.6025 z m 41.98447,13.11832 c 0.68661,0.14596 4.68662,1.79866 4.90807,2.24159 0.22146,0.44291 -13.44479,3.11103 -13.44479,3.11103 0,0 -4.57498,-1.80075 -4.94335,-2.28585 0.38882,-0.5692 13.18316,-3.03583 13.48007,-3.06677 z m -45.94656,-19.62531 c 0.68663,0.14594 4.39394,1.50595 4.61539,1.94889 0.22145,0.44293 -3.60986,0.64674 -3.60986,0.64674 0,0 -4.28227,-1.50804 -4.65061,-1.99313 0.38879,-0.56921 3.34817,-0.57156 3.64508,-0.6025 z m 34.62794,14.95802 c 0.68662,0.14596 4.39392,1.50597 4.61539,1.9489 0.22147,0.44291 -3.60987,0.64675 -3.60987,0.64675 0,0 -4.28224,-1.50807 -4.65064,-1.99314 0.38883,-0.56922 3.34822,-0.57157 3.64512,-0.60251 z m -11.65533,-5.01958 c 0.68663,0.14596 4.39393,1.50597 4.61538,1.9489 0.22146,0.44292 -3.60985,0.64675 -3.60985,0.64675 0,0 -4.28226,-1.50806 -4.65064,-1.99314 0.38882,-0.56922 3.34821,-0.57156 3.64511,-0.60251 z m -10.88229,-4.88654 c 0.68663,0.14596 4.39391,1.50596 4.61539,1.94889 0.22145,0.44292 -3.60986,0.64674 -3.60986,0.64674 0,0 -4.28225,-1.50802 -4.65064,-1.99313 0.38882,-0.56922 3.34821,-0.57156 3.64511,-0.6025 z m 41.6928,12.9199 c 0.68662,0.14596 4.39393,1.50596 4.61538,1.94888 0.22147,0.44291 -3.60984,0.64675 -3.60984,0.64675 0,0 -4.28227,-1.50805 -4.65065,-1.99314 0.38882,-0.56921 3.3482,-0.57155 3.64511,-0.60249 z m -45.73934,-19.21091 c 0.68662,0.14596 4.39394,1.50597 4.61537,1.94891 0.22148,0.4429 -3.60983,0.64674 -3.60983,0.64674 0,0 -4.28228,-1.50807 -4.65066,-1.99315 0.38882,-0.56919 3.34821,-0.57154 3.64512,-0.6025 z m 34.42074,14.54363 c 0.68663,0.14596 4.39391,1.50597 4.61539,1.94889 0.22145,0.44291 -3.60986,0.64675 -3.60986,0.64675 0,0 -4.28228,-1.50807 -4.65064,-1.99315 0.38882,-0.5692 3.3482,-0.57155 3.64511,-0.60249 z m -12.44255,-5.00572 c 0.68663,0.14596 4.39395,1.50597 4.61539,1.9489 0.22147,0.44291 -3.60984,0.64675 -3.60984,0.64675 0,0 -4.28227,-1.50806 -4.65064,-1.99314 0.38882,-0.56922 3.34819,-0.57157 3.64509,-0.60251 z m -10.09507,-4.9004 c 0.68663,0.14596 4.39391,1.50595 4.61538,1.94888 0.22145,0.44291 -3.60988,0.64675 -3.60988,0.64675 0,0 -4.28225,-1.50806 -4.65061,-1.99314 0.38879,-0.56922 3.34819,-0.57155 3.64511,-0.60249 z m 40.68037,12.83286 c 0.68664,0.14596 4.39393,1.50597 4.6154,1.94889 0.22145,0.44292 -3.60986,0.64675 -3.60986,0.64675 0,0 -4.28226,-1.50807 -4.65064,-1.99313 0.38882,-0.56922 3.34822,-0.57157 3.6451,-0.60251 z m -45.60967,-19.0037 c 0.68663,0.14596 4.39395,1.50596 4.61539,1.94888 0.22147,0.44293 -3.60985,0.64675 -3.60985,0.64675 0,0 -4.28226,-1.50805 -4.65065,-1.99314 0.38882,-0.56922 3.34821,-0.57155 3.64511,-0.60249 z m 34.42074,13.92201 c 0.68663,0.14596 4.39393,1.50596 4.61539,1.94888 0.22145,0.44292 -3.60986,0.64675 -3.60986,0.64675 0,0 -4.28226,-1.50805 -4.65064,-1.99313 0.38882,-0.56922 3.34822,-0.57157 3.64511,-0.6025 z m -11.44811,-4.39797 c 0.68663,0.14596 4.39391,1.50597 4.61539,1.9489 0.22145,0.44291 -3.60988,0.64675 -3.60988,0.64675 0,0 -4.28226,-1.50806 -4.65062,-1.99316 0.3888,-0.5692 3.34818,-0.57155 3.64511,-0.60249 z m -11.0895,-4.88654 c 0.68662,0.14596 4.39391,1.50597 4.61538,1.94888 0.22144,0.44293 -3.60987,0.64675 -3.60987,0.64675 0,0 -4.28226,-1.50805 -4.65063,-1.99313 0.38881,-0.56922 3.34819,-0.57154 3.64512,-0.6025 z m 40.70237,12.16979 c 0.68663,0.14595 4.39394,1.50595 4.61539,1.94889 0.22146,0.44292 -3.60985,0.64674 -3.60985,0.64674 0,0 -4.28226,-1.50804 -4.65065,-1.99315 0.38882,-0.56919 3.34821,-0.57154 3.64511,-0.60248 z m -45.53214,-18.15828 c 0.68663,0.14596 4.39395,1.50596 4.61539,1.94888 0.22146,0.44291 -3.60985,0.64675 -3.60985,0.64675 0,0 -4.28226,-1.50805 -4.65065,-1.99314 0.38882,-0.56921 3.34821,-0.57156 3.64511,-0.60249 z m 33.59194,13.92201 c 0.6866,0.14596 4.39392,1.50597 4.61537,1.94889 0.22147,0.44292 -3.60984,0.64675 -3.60984,0.64675 0,0 -4.28228,-1.50806 -4.65064,-1.99314 0.38882,-0.56922 3.34818,-0.57157 3.64511,-0.6025 z m -11.03373,-4.39797 c 0.68663,0.14596 4.39391,1.50597 4.61539,1.94888 0.22145,0.44293 -3.60986,0.64674 -3.60986,0.64674 0,0 -4.28226,-1.50804 -4.65064,-1.99313 0.38882,-0.56921 3.34819,-0.57155 3.64511,-0.60249 z m -11.0895,-5.09374 c 0.68663,0.14596 4.39391,1.50595 4.61539,1.94888 0.22145,0.44292 -3.60986,0.64675 -3.60986,0.64675 0,0 -4.28225,-1.50806 -4.65064,-1.99314 0.38882,-0.56922 3.34821,-0.57157 3.64511,-0.60249 z m 41.70779,12.4734 c 0.68663,0.14595 4.39393,1.50595 4.61539,1.94887 0.22145,0.44291 -3.60986,0.64675 -3.60986,0.64675 0,0 -4.28225,-1.50805 -4.65064,-1.99312 0.38882,-0.56922 3.34821,-0.57157 3.64511,-0.6025 z m -44.99602,-18.32926 c 0.68663,0.14594 4.39393,1.50594 4.61539,1.94888 0.22145,0.44291 -3.60986,0.64673 -3.60986,0.64673 0,0 -4.28228,-1.50804 -4.65064,-1.99312 0.38882,-0.56922 3.34819,-0.57157 3.64511,-0.60249 z m 22.1438,9.10962 c 0.68663,0.14595 16.11352,6.52865 16.335,6.97159 0.22146,0.44291 -3.60987,0.64673 -3.60987,0.64673 0,0 -16.00188,-6.53073 -16.37024,-7.01581 0.38882,-0.56922 3.3482,-0.57157 3.64511,-0.60251 z m -11.2967,-4.47215 c 0.68662,0.14596 4.39391,1.50597 4.61538,1.94891 0.22146,0.4429 -3.60987,0.64674 -3.60987,0.64674 0,0 -4.28227,-1.50807 -4.65062,-1.99313 0.38881,-0.56922 3.3482,-0.57156 3.64511,-0.60252 z m 68.05869,5.75033 c 0.68663,0.14596 4.39393,1.50596 4.61539,1.94888 0.22145,0.44293 -3.60986,0.64675 -3.60986,0.64675 0,0 -4.28225,-1.50804 -4.65062,-1.99314 0.3888,-0.56921 3.3482,-0.57156 3.64509,-0.60249 z m -7.02043,1.42294 c 0.68663,0.14596 4.39393,1.50596 4.61539,1.94888 0.22145,0.44292 -3.60986,0.64675 -3.60986,0.64675 0,0 -4.28227,-1.50805 -4.65064,-1.99314 0.38882,-0.56921 3.34822,-0.57155 3.64511,-0.60249 z m -6.15277,1.50187 c 0.68665,0.14596 4.39393,1.50596 4.61541,1.94888 0.22143,0.44293 -3.60988,0.64675 -3.60988,0.64675 0,0 -4.28225,-1.50803 -4.65062,-1.99314 0.3888,-0.56922 3.3482,-0.57154 3.64509,-0.60249 z m -7.5083,1.07738 c 0.68662,0.14596 4.3939,1.50597 4.61538,1.9489 0.22143,0.44291 -3.60988,0.64672 -3.60988,0.64672 0,0 -4.28225,-1.50804 -4.65061,-1.99311 0.38879,-0.56922 3.34819,-0.57157 3.64511,-0.60251 z m 8.84822,-8.1817 c 0.68662,0.14596 4.39391,1.50597 4.61538,1.9489 0.22145,0.44291 -3.60986,0.64675 -3.60986,0.64675 0,0 -4.28227,-1.50806 -4.65064,-1.99314 0.38881,-0.56922 3.34819,-0.57157 3.64512,-0.60251 z m -7.1775,1.26589 c 0.68661,0.14596 4.39392,1.50597 4.61539,1.94888 0.22145,0.44293 -3.60986,0.64674 -3.60986,0.64674 0,0 -4.28227,-1.50803 -4.65064,-1.99311 0.38882,-0.56922 3.3482,-0.57157 3.64511,-0.60251 z m -6.30982,1.18776 c 0.68662,0.14596 4.39392,1.50597 4.61538,1.9489 0.22145,0.44291 -3.60986,0.64675 -3.60986,0.64675 0,0 -4.28226,-1.50807 -4.65064,-1.99316 0.38882,-0.5692 3.34821,-0.57156 3.64512,-0.60249 z m 2.58476,-7.09445 c 0.68662,0.14596 4.39391,1.50597 4.61539,1.94889 0.22145,0.44292 -3.60988,0.64675 -3.60988,0.64675 0,0 -4.28225,-1.50807 -4.65063,-1.99315 0.38883,-0.5692 3.34821,-0.57155 3.64512,-0.60249 z m -7.33455,1.26589 c 0.68662,0.14596 4.39391,1.50594 4.61539,1.94888 0.22144,0.44291 -3.60988,0.64675 -3.60988,0.64675 0,0 -4.28223,-1.50806 -4.65063,-1.99314 0.38883,-0.56922 3.34819,-0.57157 3.64512,-0.60249 z m -4.1369,-5.65407 c 0.68662,0.14596 4.39393,1.50596 4.61538,1.94888 0.22147,0.44293 -3.60986,0.64675 -3.60986,0.64675 0,0 -4.28225,-1.50806 -4.65064,-1.99314 0.38882,-0.56922 3.34821,-0.57156 3.64512,-0.60249 z m -11.2313,-4.23281 c 0.68662,0.14596 4.39391,1.50597 4.61537,1.94889 0.22146,0.44292 -3.60987,0.64675 -3.60987,0.64675 0,0 -4.28225,-1.50807 -4.65062,-1.99314 0.3888,-0.56921 3.34819,-0.57156 3.64512,-0.6025 z m -6.74045,1.19168 c 0.68662,0.14596 4.39393,1.50597 4.61537,1.9489 0.22147,0.44291 -3.60984,0.64675 -3.60984,0.64675 0,0 -4.28227,-1.50806 -4.65064,-1.99316 0.38881,-0.5692 3.34819,-0.57153 3.64511,-0.60249 z m -6.63652,1.34799 c 0.68663,0.14596 4.39392,1.50597 4.61539,1.9489 0.22145,0.44291 -3.60987,0.64675 -3.60987,0.64675 0,0 -4.28224,-1.50806 -4.65063,-1.99315 0.38882,-0.56921 3.34821,-0.57156 3.64511,-0.6025 z m -6.56929,1.15995 c 0.68663,0.14596 4.39394,1.50597 4.61539,1.94888 0.22146,0.44292 -3.60985,0.64675 -3.60985,0.64675 0,0 -4.28226,-1.50806 -4.65065,-1.99313 0.38882,-0.56923 3.34822,-0.57156 3.64511,-0.6025 z m 24.30919,2.06086 c 0.68662,0.14596 4.39392,1.50597 4.61537,1.9489 0.22148,0.44291 -3.60983,0.64674 -3.60983,0.64674 0,0 -4.28228,-1.50805 -4.65066,-1.99313 0.38882,-0.56921 3.34821,-0.57156 3.64512,-0.60251 z m 8.86834,11.65394 c 0.68664,0.14596 4.39392,1.50597 4.6154,1.9489 0.22143,0.44291 -3.60988,0.64675 -3.60988,0.64675 0,0 -4.28226,-1.50807 -4.65062,-1.99316 0.3888,-0.5692 3.34819,-0.57155 3.6451,-0.60249 z m -4.1729,-6.3398 c 0.68663,0.14595 4.39393,1.50597 4.61538,1.9489 0.22146,0.44291 -3.60985,0.64675 -3.60985,0.64675 0,0 -4.28227,-1.50807 -4.65064,-1.99314 0.38882,-0.56922 3.34819,-0.57157 3.64511,-0.60251 z m -6.86083,1.73463 c 0.68663,0.14596 4.39392,1.50597 4.61539,1.9489 0.22146,0.44291 -3.60985,0.64674 -3.60985,0.64674 0,0 -4.28228,-1.50806 -4.65064,-1.99314 0.38882,-0.56921 3.3482,-0.57156 3.6451,-0.6025 z m -11.29668,-4.47215 c 0.68661,0.14595 4.39392,1.50597 4.61537,1.9489 0.22146,0.44293 -3.60986,0.64675 -3.60986,0.64675 0,0 -4.28226,-1.50806 -4.65064,-1.99314 0.38882,-0.56922 3.3482,-0.57156 3.64513,-0.60251 z m 6.95252,-1.51706 c 0.68662,0.14596 4.39393,1.50597 4.61538,1.9489 0.22146,0.44291 -3.60987,0.64673 -3.60987,0.64673 0,0 -4.28226,-1.50805 -4.65062,-1.99313 0.38879,-0.56919 3.34819,-0.57154 3.64511,-0.6025 z"
         style="fill:#5c5c58;fill-opacity:0.70999995;stroke:none"
         id="path4820-9-5-2-7-2-4-5-2-4-5-3-0-8" />
      <g
         transform="matrix(0.8371151,0,0,0.8371151,74.921776,-31.606476)"
         id="g6225">
        <path
           style="fill:#caba8d;fill-opacity:1;stroke:none"
           d="m 605.50524,536.14266 c 0.82023,0.17441 5.24889,1.79899 5.51344,2.3281 0.26455,0.5291 -4.31226,0.77259 -4.31226,0.77259 0,0 -5.1155,-1.80149 -5.55555,-2.38096 0.46447,-0.67997 3.99969,-0.68277 4.35437,-0.71973 z"
           id="path4820"
           inkscape:connector-curvature="0"
           sodipodi:nodetypes="csccc" />
        <path
           style="fill:#caba8d;fill-opacity:1;stroke:none"
           d="m 597.1999,537.95492 c 0.82023,0.17441 5.24889,1.79899 5.51344,2.3281 0.26455,0.5291 -4.31226,0.77259 -4.31226,0.77259 0,0 -5.1155,-1.80149 -5.55555,-2.38096 0.46447,-0.67997 3.99969,-0.68277 4.35437,-0.71973 z"
           id="path4820-9"
           inkscape:connector-curvature="0"
           sodipodi:nodetypes="csccc" />
        <path
           style="fill:#caba8d;fill-opacity:1;stroke:none"
           d="m 610.6947,543.29724 c 0.82023,0.17441 5.24889,1.79899 5.51344,2.3281 0.26455,0.5291 -4.31226,0.77259 -4.31226,0.77259 0,0 -5.1155,-1.80149 -5.55555,-2.38096 0.46447,-0.67997 3.99969,-0.68277 4.35437,-0.71973 z"
           id="path4820-9-5"
           inkscape:connector-curvature="0"
           sodipodi:nodetypes="csccc" />
        <path
           style="fill:#caba8d;fill-opacity:1;stroke:none"
           d="m 618.8905,541.22509 c 0.82023,0.17441 5.24889,1.79899 5.51344,2.3281 0.26455,0.5291 -4.31226,0.77259 -4.31226,0.77259 0,0 -5.1155,-1.80149 -5.55555,-2.38096 0.46447,-0.67997 3.99969,-0.68277 4.35437,-0.71973 z"
           id="path4820-9-5-5"
           inkscape:connector-curvature="0"
           sodipodi:nodetypes="csccc" />
        <path
           style="fill:#caba8d;fill-opacity:1;stroke:none"
           d="m 623.87535,548.79848 c 0.82023,0.17441 5.24889,1.79899 5.51344,2.3281 0.26455,0.5291 -4.31226,0.77259 -4.31226,0.77259 0,0 -5.1155,-1.80149 -5.55555,-2.38096 0.46447,-0.67997 3.99969,-0.68277 4.35437,-0.71973 z"
           id="path4820-9-5-2"
           inkscape:connector-curvature="0"
           sodipodi:nodetypes="csccc" />
        <path
           style="fill:#caba8d;fill-opacity:1;stroke:none"
           d="m 613.28142,534.87694 c 0.82023,0.17441 5.24889,1.79899 5.51344,2.3281 0.26455,0.5291 -4.31226,0.77259 -4.31226,0.77259 0,0 -5.1155,-1.80149 -5.55555,-2.38096 0.46447,-0.67997 3.99969,-0.68277 4.35437,-0.71973 z"
           id="path4820-9-5-1"
           inkscape:connector-curvature="0"
           sodipodi:nodetypes="csccc" />
        <path
           style="fill:#c2393c;fill-opacity:1;stroke:none"
           d="m 584.24219,532.41506 c 0.82023,0.17441 5.24889,1.79899 5.51344,2.3281 0.26455,0.5291 -4.31226,0.77259 -4.31226,0.77259 0,0 -5.1155,-1.80149 -5.55555,-2.38096 0.46447,-0.67997 3.99969,-0.68277 4.35437,-0.71973 z"
           id="path4820-9-5-59"
           inkscape:connector-curvature="0"
           sodipodi:nodetypes="csccc" />
        <path
           style="fill:#3771c8;fill-opacity:1;stroke:none"
           d="m 592.08971,531.02942 c 0.82023,0.17441 5.24889,1.79899 5.51344,2.3281 0.26455,0.5291 -4.31226,0.77259 -4.31226,0.77259 0,0 -5.1155,-1.80149 -5.55555,-2.38096 0.46447,-0.67997 3.99969,-0.68277 4.35437,-0.71973 z"
           id="path4820-9-5-9"
           inkscape:connector-curvature="0"
           sodipodi:nodetypes="csccc" />
        <path
           style="fill:#3771c8;fill-opacity:1;stroke:none"
           d="m 600.01756,529.41915 c 0.82023,0.17441 5.24889,1.79899 5.51344,2.3281 0.26455,0.5291 -4.31226,0.77259 -4.31226,0.77259 0,0 -5.1155,-1.80149 -5.55555,-2.38096 0.46447,-0.67997 3.99969,-0.68277 4.35437,-0.71973 z"
           id="path4820-9-5-16"
           inkscape:connector-curvature="0"
           sodipodi:nodetypes="csccc" />
        <path
           style="fill:#c2393c;fill-opacity:1;stroke:none"
           d="m 608.06954,527.99558 c 0.82023,0.17441 5.24889,1.79899 5.51344,2.3281 0.26455,0.5291 -4.31226,0.77259 -4.31226,0.77259 0,0 -5.1155,-1.80149 -5.55555,-2.38096 0.46447,-0.67997 3.99969,-0.68277 4.35437,-0.71973 z"
           id="path4820-9-5-16-2"
           inkscape:connector-curvature="0"
           sodipodi:nodetypes="csccc" />
        <path
           style="fill:#828282;fill-opacity:1;stroke:none"
           d="m 621.48623,533.052 c 0.82023,0.17441 5.24889,1.79899 5.51344,2.3281 0.26455,0.5291 -4.31226,0.77259 -4.31226,0.77259 0,0 -5.1155,-1.80149 -5.55555,-2.38096 0.46447,-0.67997 3.99969,-0.68277 4.35437,-0.71973 z"
           id="path4820-9-5-1-1"
           inkscape:connector-curvature="0"
           sodipodi:nodetypes="csccc" />
        <path
           style="fill:#caba8d;fill-opacity:1;stroke:none"
           d="m 626.42808,539.80622 c 0.82023,0.17441 5.24889,1.79899 5.51344,2.3281 0.26455,0.5291 -4.31226,0.77259 -4.31226,0.77259 0,0 -5.1155,-1.80149 -5.55555,-2.38096 0.46447,-0.67997 3.99969,-0.68277 4.35437,-0.71973 z"
           id="path4820-9-5-5-0"
           inkscape:connector-curvature="0"
           sodipodi:nodetypes="csccc" />
        <path
           style="fill:#828282;fill-opacity:1;stroke:none"
           d="m 635.18978,538.29403 c 0.82023,0.17441 5.24889,1.79899 5.51344,2.3281 0.26455,0.5291 -4.31226,0.77259 -4.31226,0.77259 0,0 -5.1155,-1.80149 -5.55555,-2.38096 0.46447,-0.67997 3.99969,-0.68277 4.35437,-0.71973 z"
           id="path4820-9-5-5-5"
           inkscape:connector-curvature="0"
           sodipodi:nodetypes="csccc" />
        <path
           style="fill:#caba8d;fill-opacity:1;stroke:none"
           d="m 632.10208,546.76891 c 0.82023,0.17441 5.24889,1.79899 5.51344,2.3281 0.26455,0.5291 -4.31226,0.77259 -4.31226,0.77259 0,0 -5.1155,-1.80149 -5.55555,-2.38096 0.46447,-0.67997 3.99969,-0.68277 4.35437,-0.71973 z"
           id="path4820-9-5-5-3"
           inkscape:connector-curvature="0"
           sodipodi:nodetypes="csccc" />
        <path
           style="fill:#caba8d;fill-opacity:1;stroke:none"
           d="m 639.63966,545.35004 c 0.82023,0.17441 5.24889,1.79899 5.51344,2.3281 0.26455,0.5291 -4.31226,0.77259 -4.31226,0.77259 0,0 -5.1155,-1.80149 -5.55555,-2.38096 0.46447,-0.67997 3.99969,-0.68277 4.35437,-0.71973 z"
           id="path4820-9-5-5-0-2"
           inkscape:connector-curvature="0"
           sodipodi:nodetypes="csccc" />
        <path
           style="fill:#828282;fill-opacity:1;stroke:none"
           d="m 648.21374,543.83785 c 0.82023,0.17441 5.24889,1.79899 5.51344,2.3281 0.26455,0.5291 -4.31226,0.77259 -4.31226,0.77259 0,0 -5.1155,-1.80149 -5.55555,-2.38096 0.46447,-0.67997 3.99969,-0.68277 4.35437,-0.71973 z"
           id="path4820-9-5-5-5-1"
           inkscape:connector-curvature="0"
           sodipodi:nodetypes="csccc" />
        <path
           style="fill:#caba8d;fill-opacity:1;stroke:none"
           d="m 637.64384,553.61152 c 0.82023,0.17441 5.24889,1.79899 5.51344,2.3281 0.26455,0.5291 -4.31226,0.77259 -4.31226,0.77259 0,0 -5.1155,-1.80149 -5.55555,-2.38096 0.46447,-0.67997 3.99969,-0.68277 4.35437,-0.71973 z"
           id="path4820-9-5-2-9"
           inkscape:connector-curvature="0"
           sodipodi:nodetypes="csccc" />
        <path
           style="fill:#caba8d;fill-opacity:1;stroke:none"
           d="m 646.61313,552.32451 c 0.82023,0.17441 5.24889,1.79899 5.51344,2.3281 0.26455,0.5291 -4.31226,0.77259 -4.31226,0.77259 0,0 -5.1155,-1.80149 -5.55555,-2.38096 0.46447,-0.67997 3.99969,-0.68277 4.35437,-0.71973 z"
           id="path4820-9-5-5-3-7"
           inkscape:connector-curvature="0"
           sodipodi:nodetypes="csccc" />
        <path
           style="fill:#828282;fill-opacity:1;stroke:none"
           d="m 653.96309,550.5304 c 0.82023,0.17441 5.24889,1.79899 5.51344,2.3281 0.26455,0.5291 -4.31226,0.77259 -4.31226,0.77259 0,0 -5.1155,-1.80149 -5.55555,-2.38096 0.46447,-0.67997 3.99969,-0.68277 4.35437,-0.71973 z"
           id="path4820-9-5-5-0-2-6"
           inkscape:connector-curvature="0"
           sodipodi:nodetypes="csccc" />
        <path
           style="fill:#828282;fill-opacity:1;stroke:none"
           d="m 662.34955,548.83059 c 0.82023,0.17441 5.24889,1.79899 5.51344,2.3281 0.26455,0.5291 -4.31226,0.77259 -4.31226,0.77259 0,0 -5.1155,-1.80149 -5.55555,-2.38096 0.46447,-0.67997 3.99969,-0.68277 4.35437,-0.71973 z"
           id="path4820-9-5-5-5-1-8"
           inkscape:connector-curvature="0"
           sodipodi:nodetypes="csccc" />
        <path
           style="fill:#696969;fill-opacity:1;stroke:none"
           d="m 581.04806,541.96138 c 0.82023,0.17441 5.24889,1.79899 5.51344,2.3281 0.26455,0.5291 -4.31226,0.77259 -4.31226,0.77259 0,0 -5.1155,-1.80149 -5.55555,-2.38096 0.46447,-0.67997 3.99969,-0.68277 4.35437,-0.71973 z"
           id="path4820-9-2"
           inkscape:connector-curvature="0"
           sodipodi:nodetypes="csccc" />
        <path
           style="fill:#c2393c;fill-opacity:1;stroke:none"
           d="m 594.54286,547.3037 c 0.82023,0.17441 19.24889,7.79899 19.51344,8.3281 0.26455,0.5291 -4.31226,0.77259 -4.31226,0.77259 0,0 -19.1155,-7.80149 -19.55555,-8.38096 0.46447,-0.67997 3.99969,-0.68277 4.35437,-0.71973 z"
           id="path4820-9-5-0"
           inkscape:connector-curvature="0"
           sodipodi:nodetypes="csccc" />
        <path
           style="fill:#696969;fill-opacity:1;stroke:none"
           d="m 568.09035,536.42152 c 0.82023,0.17441 5.24889,1.79899 5.51344,2.3281 0.26455,0.5291 -4.31226,0.77259 -4.31226,0.77259 0,0 -5.1155,-1.80149 -5.55555,-2.38096 0.46447,-0.67997 3.99969,-0.68277 4.35437,-0.71973 z"
           id="path4820-9-5-59-4"
           inkscape:connector-curvature="0"
           sodipodi:nodetypes="csccc" />
        <path
           style="fill:#c2393c;fill-opacity:1;stroke:none"
           d="m 621.84165,558.31728 c 0.82023,0.17441 5.24889,1.79899 5.51344,2.3281 0.26455,0.5291 -4.31226,0.77259 -4.31226,0.77259 0,0 -5.1155,-1.80149 -5.55555,-2.38096 0.46447,-0.67997 3.99969,-0.68277 4.35437,-0.71973 z"
           id="path4820-9-5-2-9-3"
           inkscape:connector-curvature="0"
           sodipodi:nodetypes="csccc" />
        <path
           style="fill:#caba8d;fill-opacity:1;stroke:none"
           d="m 572.0184,543.41682 c 0.82023,0.17441 5.24889,1.79899 5.51344,2.3281 0.26455,0.5291 -4.31226,0.77259 -4.31226,0.77259 0,0 -5.1155,-1.80149 -5.55555,-2.38096 0.46447,-0.67997 3.99969,-0.68277 4.35437,-0.71973 z"
           id="path4820-9-3"
           inkscape:connector-curvature="0"
           sodipodi:nodetypes="csccc" />
        <path
           style="fill:#caba8d;fill-opacity:1;stroke:none"
           d="m 585.26568,549.5017 c 0.82023,0.17441 5.24889,1.79899 5.51344,2.3281 0.26455,0.5291 -4.31226,0.77259 -4.31226,0.77259 0,0 -5.1155,-1.80149 -5.55555,-2.38096 0.46447,-0.67997 3.99969,-0.68277 4.35437,-0.71973 z"
           id="path4820-9-5-6"
           inkscape:connector-curvature="0"
           sodipodi:nodetypes="csccc" />
        <path
           style="fill:#696969;fill-opacity:1;stroke:none"
           d="m 598.44633,554.75542 c 0.82023,0.17441 5.24889,1.79899 5.51344,2.3281 0.26455,0.5291 -4.31226,0.77259 -4.31226,0.77259 0,0 -5.1155,-1.80149 -5.55555,-2.38096 0.46447,-0.67997 3.99969,-0.68277 4.35437,-0.71973 z"
           id="path4820-9-5-2-90"
           inkscape:connector-curvature="0"
           sodipodi:nodetypes="csccc" />
        <path
           style="fill:#696969;fill-opacity:1;stroke:none"
           d="m 558.31813,538.12448 c 0.82023,0.17441 5.24889,1.79899 5.51344,2.3281 0.26455,0.5291 -4.31226,0.77259 -4.31226,0.77259 0,0 -5.1155,-1.80149 -5.55555,-2.38096 0.46447,-0.67997 3.99969,-0.68277 4.35437,-0.71973 z"
           id="path4820-9-5-59-48"
           inkscape:connector-curvature="0"
           sodipodi:nodetypes="csccc" />
        <path
           style="fill:#3771c8;fill-opacity:1;stroke:none"
           d="m 612.70986,559.81598 c 0.82023,0.17441 5.24889,1.79899 5.51344,2.3281 0.26455,0.5291 -4.31226,0.77259 -4.31226,0.77259 0,0 -5.1155,-1.80149 -5.55555,-2.38096 0.46447,-0.67997 3.99969,-0.68277 4.35437,-0.71973 z"
           id="path4820-9-5-2-9-5"
           inkscape:connector-curvature="0"
           sodipodi:nodetypes="csccc" />
        <path
           style="fill:#caba8d;fill-opacity:1;stroke:none"
           d="m 564.08765,545.27821 c 0.82023,0.17441 5.24889,1.79899 5.51344,2.3281 0.26455,0.5291 -4.31226,0.77259 -4.31226,0.77259 0,0 -5.1155,-1.80149 -5.55555,-2.38096 0.46447,-0.67997 3.99969,-0.68277 4.35437,-0.71973 z"
           id="path4820-9-1"
           inkscape:connector-curvature="0"
           sodipodi:nodetypes="csccc" />
        <path
           style="fill:#caba8d;fill-opacity:1;stroke:none"
           d="m 577.33493,551.11557 c 0.82023,0.17441 5.24889,1.79899 5.51344,2.3281 0.26455,0.5291 -4.31226,0.77259 -4.31226,0.77259 0,0 -5.1155,-1.80149 -5.55555,-2.38096 0.46447,-0.67997 3.99969,-0.68277 4.35437,-0.71973 z"
           id="path4820-9-5-29"
           inkscape:connector-curvature="0"
           sodipodi:nodetypes="csccc" />
        <path
           style="fill:#696969;fill-opacity:1;stroke:none"
           d="m 591.01062,556.36929 c 0.82023,0.17441 5.24889,1.79899 5.51344,2.3281 0.26455,0.5291 -4.31226,0.77259 -4.31226,0.77259 0,0 -5.1155,-1.80149 -5.55555,-2.38096 0.46447,-0.67997 3.99969,-0.68277 4.35437,-0.71973 z"
           id="path4820-9-5-2-7"
           inkscape:connector-curvature="0"
           sodipodi:nodetypes="csccc" />
        <path
           style="fill:#696969;fill-opacity:1;stroke:none"
           d="m 549.89234,539.73835 c 0.82023,0.17441 5.24889,1.79899 5.51344,2.3281 0.26455,0.5291 -4.31226,0.77259 -4.31226,0.77259 0,0 -5.1155,-1.80149 -5.55555,-2.38096 0.46447,-0.67997 3.99969,-0.68277 4.35437,-0.71973 z"
           id="path4820-9-5-59-3"
           inkscape:connector-curvature="0"
           sodipodi:nodetypes="csccc" />
        <path
           style="fill:#696969;fill-opacity:1;stroke:none"
           d="m 604.37669,562.43977 c 0.82023,0.17441 5.24889,1.79899 5.51344,2.3281 0.26455,0.5291 -4.31226,0.77259 -4.31226,0.77259 0,0 -5.1155,-1.80149 -5.55555,-2.38096 0.46447,-0.67997 3.99969,-0.68277 4.35437,-0.71973 z"
           id="path4820-9-5-2-9-8"
           inkscape:connector-curvature="0"
           sodipodi:nodetypes="csccc" />
        <path
           style="fill:#caba8d;fill-opacity:1;stroke:none"
           d="m 555.78075,547.1099 c 0.82023,0.17441 5.24889,1.79899 5.51344,2.3281 0.26455,0.5291 -4.31226,0.77259 -4.31226,0.77259 0,0 -5.1155,-1.80149 -5.55555,-2.38096 0.46447,-0.67997 3.99969,-0.68277 4.35437,-0.71973 z"
           id="path4820-9-1-0"
           inkscape:connector-curvature="0"
           sodipodi:nodetypes="csccc" />
        <path
           style="fill:#caba8d;fill-opacity:1;stroke:none"
           d="m 567.84014,552.96383 c 0.82023,0.17441 5.24889,1.79899 5.51344,2.3281 0.26455,0.5291 -4.31226,0.77259 -4.31226,0.77259 0,0 -5.1155,-1.80149 -5.55555,-2.38096 0.46447,-0.67997 3.99969,-0.68277 4.35437,-0.71973 z"
           id="path4820-9-5-29-9"
           inkscape:connector-curvature="0"
           sodipodi:nodetypes="csccc" />
        <path
           style="fill:#696969;fill-opacity:1;stroke:none"
           d="m 582.70372,558.94354 c 0.82023,0.17441 5.24889,1.79899 5.51344,2.3281 0.26455,0.5291 -4.31226,0.77259 -4.31226,0.77259 0,0 -5.1155,-1.80149 -5.55555,-2.38096 0.46447,-0.67997 3.99969,-0.68277 4.35437,-0.71973 z"
           id="path4820-9-5-2-7-2"
           inkscape:connector-curvature="0"
           sodipodi:nodetypes="csccc" />
        <path
           style="fill:#696969;fill-opacity:1;stroke:none"
           d="m 541.58544,541.57004 c 0.82023,0.17441 5.24889,1.79899 5.51344,2.3281 0.26455,0.5291 -4.31226,0.77259 -4.31226,0.77259 0,0 -5.1155,-1.80149 -5.55555,-2.38096 0.46447,-0.67997 3.99969,-0.68277 4.35437,-0.71973 z"
           id="path4820-9-5-59-3-3"
           inkscape:connector-curvature="0"
           sodipodi:nodetypes="csccc" />
        <path
           style="fill:#696969;fill-opacity:1;stroke:none"
           d="m 596.22469,564.51898 c 0.82023,0.17441 5.24889,1.79899 5.51344,2.3281 0.26455,0.5291 -4.31226,0.77259 -4.31226,0.77259 0,0 -5.1155,-1.80149 -5.55555,-2.38096 0.46447,-0.67997 3.99969,-0.68277 4.35437,-0.71973 z"
           id="path4820-9-5-2-9-8-1"
           inkscape:connector-curvature="0"
           sodipodi:nodetypes="csccc" />
        <path
           style="fill:#caba8d;fill-opacity:1;stroke:none"
           d="m 546.41935,549.08515 c 0.82023,0.17441 5.24889,1.79899 5.51344,2.3281 0.26455,0.5291 -4.31226,0.77259 -4.31226,0.77259 0,0 -5.1155,-1.80149 -5.55555,-2.38096 0.46447,-0.67997 3.99969,-0.68277 4.35437,-0.71973 z"
           id="path4820-9-1-0-8"
           inkscape:connector-curvature="0"
           sodipodi:nodetypes="csccc" />
        <path
           style="fill:#caba8d;fill-opacity:1;stroke:none"
           d="m 559.41911,554.92251 c 0.82023,0.17441 5.24889,1.79899 5.51344,2.3281 0.26455,0.5291 -4.31226,0.77259 -4.31226,0.77259 0,0 -5.1155,-1.80149 -5.55555,-2.38096 0.46447,-0.67997 3.99969,-0.68277 4.35437,-0.71973 z"
           id="path4820-9-5-29-9-7"
           inkscape:connector-curvature="0"
           sodipodi:nodetypes="csccc" />
        <path
           style="fill:#696969;fill-opacity:1;stroke:none"
           d="m 573.34232,560.91879 c 0.82023,0.17441 5.24889,1.79899 5.51344,2.3281 0.26455,0.5291 -4.31226,0.77259 -4.31226,0.77259 0,0 -5.1155,-1.80149 -5.55555,-2.38096 0.46447,-0.67997 3.99969,-0.68277 4.35437,-0.71973 z"
           id="path4820-9-5-2-7-2-4"
           inkscape:connector-curvature="0"
           sodipodi:nodetypes="csccc" />
        <path
           style="fill:#696969;fill-opacity:1;stroke:none"
           d="m 531.97652,543.05025 c 0.82023,0.17441 5.24889,1.79899 5.51344,2.3281 0.26455,0.5291 -4.31226,0.77259 -4.31226,0.77259 0,0 -5.1155,-1.80149 -5.55555,-2.38096 0.46447,-0.67997 3.99969,-0.68277 4.35437,-0.71973 z"
           id="path4820-9-5-59-3-3-1"
           inkscape:connector-curvature="0"
           sodipodi:nodetypes="csccc" />
        <path
           style="fill:#c2393c;fill-opacity:1;stroke:none"
           d="m 586.86329,566.49423 c 0.82023,0.17441 5.59854,2.14864 5.86309,2.67775 0.26455,0.5291 -16.06088,3.71637 -16.06088,3.71637 0,0 -5.46515,-2.15114 -5.9052,-2.73061 0.46447,-0.67997 15.74831,-3.62655 16.10299,-3.66351 z"
           id="path4820-9-5-2-9-8-1-6"
           inkscape:connector-curvature="0"
           sodipodi:nodetypes="csccc" />
        <path
           style="fill:#caba8d;fill-opacity:1;stroke:none"
           d="m 536.70954,550.82336 c 0.82023,0.17441 5.24889,1.79899 5.51344,2.3281 0.26455,0.5291 -4.31226,0.77259 -4.31226,0.77259 0,0 -5.1155,-1.80149 -5.55555,-2.38096 0.46447,-0.67997 3.99969,-0.68277 4.35437,-0.71973 z"
           id="path4820-9-1-0-8-3"
           inkscape:connector-curvature="0"
           sodipodi:nodetypes="csccc" />
        <path
           style="fill:#caba8d;fill-opacity:1;stroke:none"
           d="m 549.7093,556.4132 c 0.82023,0.17441 5.24889,1.79899 5.51344,2.3281 0.26455,0.5291 -4.31226,0.77259 -4.31226,0.77259 0,0 -5.1155,-1.80149 -5.55555,-2.38096 0.46447,-0.67997 3.99969,-0.68277 4.35437,-0.71973 z"
           id="path4820-9-5-29-9-7-8"
           inkscape:connector-curvature="0"
           sodipodi:nodetypes="csccc" />
        <path
           style="fill:#caba8d;fill-opacity:1;stroke:none"
           d="m 564.09441,562.42605 c 0.82023,0.17441 5.24889,1.79899 5.51344,2.3281 0.26455,0.5291 -4.31226,0.77259 -4.31226,0.77259 0,0 -5.1155,-1.80149 -5.55555,-2.38096 0.46447,-0.67997 3.99969,-0.68277 4.35437,-0.71973 z"
           id="path4820-9-5-2-7-2-4-5"
           inkscape:connector-curvature="0"
           sodipodi:nodetypes="csccc" />
        <path
           style="fill:#696969;fill-opacity:1;stroke:none"
           d="m 522.45433,544.91618 c 0.82023,0.17441 5.24889,1.79899 5.51344,2.3281 0.26455,0.5291 -4.31226,0.77259 -4.31226,0.77259 0,0 -5.1155,-1.80149 -5.55555,-2.38096 0.46447,-0.67997 3.99969,-0.68277 4.35437,-0.71973 z"
           id="path4820-9-5-59-3-3-1-5"
           inkscape:connector-curvature="0"
           sodipodi:nodetypes="csccc" />
        <path
           style="fill:#caba8d;fill-opacity:1;stroke:none"
           d="m 526.73635,552.96824 c 0.82023,0.17441 5.24889,1.79899 5.51344,2.3281 0.26455,0.5291 -4.31226,0.77259 -4.31226,0.77259 0,0 -5.1155,-1.80149 -5.55555,-2.38096 0.46447,-0.67997 3.99969,-0.68277 4.35437,-0.71973 z"
           id="path4820-9-1-0-8-3-0"
           inkscape:connector-curvature="0"
           sodipodi:nodetypes="csccc" />
        <path
           style="fill:#caba8d;fill-opacity:1;stroke:none"
           d="m 540.10879,558.52834 c 0.82023,0.17441 5.24889,1.79899 5.51344,2.3281 0.26455,0.5291 -4.31226,0.77259 -4.31226,0.77259 0,0 -5.1155,-1.80149 -5.55555,-2.38096 0.46447,-0.67997 3.99969,-0.68277 4.35437,-0.71973 z"
           id="path4820-9-5-29-9-7-8-1"
           inkscape:connector-curvature="0"
           sodipodi:nodetypes="csccc" />
        <path
           style="fill:#caba8d;fill-opacity:1;stroke:none"
           d="m 554.9558,564.77214 c 0.82023,0.17441 5.24889,1.79899 5.51344,2.3281 0.26455,0.5291 -4.31226,0.77259 -4.31226,0.77259 0,0 -5.1155,-1.80149 -5.55555,-2.38096 0.46447,-0.67997 3.99969,-0.68277 4.35437,-0.71973 z"
           id="path4820-9-5-2-7-2-4-5-2"
           inkscape:connector-curvature="0"
           sodipodi:nodetypes="csccc" />
        <path
           style="fill:#696969;fill-opacity:1;stroke:none"
           d="m 512.89715,546.88703 c 0.82023,0.17441 5.24889,1.79899 5.51344,2.3281 0.26455,0.5291 -4.31226,0.77259 -4.31226,0.77259 0,0 -5.1155,-1.80149 -5.55555,-2.38096 0.46447,-0.67997 3.99969,-0.68277 4.35437,-0.71973 z"
           id="path4820-9-5-59-3-3-1-5-6"
           inkscape:connector-curvature="0"
           sodipodi:nodetypes="csccc" />
        <path
           style="fill:#696969;fill-opacity:1;stroke:none"
           d="m 567.09497,571.43269 c 0.82023,0.17441 5.24889,1.79899 5.51344,2.3281 0.26455,0.5291 -4.31226,0.77259 -4.31226,0.77259 0,0 -5.1155,-1.80149 -5.55555,-2.38096 0.46447,-0.67997 3.99969,-0.68277 4.35437,-0.71973 z"
           id="path4820-9-5-2-7-2-4-5-2-4"
           inkscape:connector-curvature="0"
           sodipodi:nodetypes="csccc" />
        <path
           style="fill:#caba8d;fill-opacity:1;stroke:none"
           d="m 517.24616,554.72103 c 0.82023,0.17441 5.24889,1.79899 5.51344,2.3281 0.26455,0.5291 -4.31226,0.77259 -4.31226,0.77259 0,0 -5.1155,-1.80149 -5.55555,-2.38096 0.46447,-0.67997 3.99969,-0.68277 4.35437,-0.71973 z"
           id="path4820-9-1-0-8-3-0-8"
           inkscape:connector-curvature="0"
           sodipodi:nodetypes="csccc" />
        <path
           style="fill:#caba8d;fill-opacity:1;stroke:none"
           d="m 531.02358,560.90091 c 0.82023,0.17441 5.24889,1.79899 5.51344,2.3281 0.26455,0.5291 -4.31226,0.77259 -4.31226,0.77259 0,0 -5.1155,-1.80149 -5.55555,-2.38096 0.46447,-0.67997 3.99969,-0.68277 4.35437,-0.71973 z"
           id="path4820-9-5-29-9-7-8-1-5"
           inkscape:connector-curvature="0"
           sodipodi:nodetypes="csccc" />
        <path
           style="fill:#caba8d;fill-opacity:1;stroke:none"
           d="m 545.2787,566.52493 c 0.82023,0.17441 5.24889,1.79899 5.51344,2.3281 0.26455,0.5291 -4.31226,0.77259 -4.31226,0.77259 0,0 -5.1155,-1.80149 -5.55555,-2.38096 0.46447,-0.67997 3.99969,-0.68277 4.35437,-0.71973 z"
           id="path4820-9-5-2-7-2-4-5-2-6"
           inkscape:connector-curvature="0"
           sodipodi:nodetypes="csccc" />
        <path
           style="fill:#696969;fill-opacity:1;stroke:none"
           d="m 503.00454,548.41143 c 0.82023,0.17441 5.24889,1.79899 5.51344,2.3281 0.26455,0.5291 -4.31226,0.77259 -4.31226,0.77259 0,0 -5.1155,-1.80149 -5.55555,-2.38096 0.46447,-0.67997 3.99969,-0.68277 4.35437,-0.71973 z"
           id="path4820-9-5-59-3-3-1-5-6-2"
           inkscape:connector-curvature="0"
           sodipodi:nodetypes="csccc" />
        <path
           style="fill:#696969;fill-opacity:1;stroke:none"
           d="m 559.30844,573.45111 c 0.82023,0.17441 5.24889,1.79899 5.51344,2.3281 0.26455,0.5291 -4.31226,0.77259 -4.31226,0.77259 0,0 -5.1155,-1.80149 -5.55555,-2.38096 0.46447,-0.67997 3.99969,-0.68277 4.35437,-0.71973 z"
           id="path4820-9-5-2-7-2-4-5-2-4-5"
           inkscape:connector-curvature="0"
           sodipodi:nodetypes="csccc" />
        <path
           style="fill:#caba8d;fill-opacity:1;stroke:none"
           d="m 507.2334,556.45469 c 0.82023,0.17441 5.24889,1.79899 5.51344,2.3281 0.26455,0.5291 -4.31226,0.77259 -4.31226,0.77259 0,0 -5.1155,-1.80149 -5.55555,-2.38096 0.46447,-0.67997 3.99969,-0.68277 4.35437,-0.71973 z"
           id="path4820-9-1-0-8-3-0-8-2"
           inkscape:connector-curvature="0"
           sodipodi:nodetypes="csccc" />
        <path
           style="fill:#caba8d;fill-opacity:1;stroke:none"
           d="m 521.8454,563.06673 c 0.82023,0.17441 5.24889,1.79899 5.51344,2.3281 0.26455,0.5291 -4.31226,0.77259 -4.31226,0.77259 0,0 -5.1155,-1.80149 -5.55555,-2.38096 0.46447,-0.67997 3.99969,-0.68277 4.35437,-0.71973 z"
           id="path4820-9-5-29-9-7-8-1-5-6"
           inkscape:connector-curvature="0"
           sodipodi:nodetypes="csccc" />
        <path
           style="fill:#caba8d;fill-opacity:1;stroke:none"
           d="m 535.52663,569.12291 c 0.82023,0.17441 5.24889,1.79899 5.51344,2.3281 0.26455,0.5291 -4.31226,0.77259 -4.31226,0.77259 0,0 -5.1155,-1.80149 -5.55555,-2.38096 0.46447,-0.67997 3.99969,-0.68277 4.35437,-0.71973 z"
           id="path4820-9-5-2-7-2-4-5-2-6-9"
           inkscape:connector-curvature="0"
           sodipodi:nodetypes="csccc" />
        <path
           style="fill:#696969;fill-opacity:1;stroke:none"
           d="m 493.34143,549.93072 c 0.82023,0.17441 5.24889,1.79899 5.51344,2.3281 0.26455,0.5291 -4.31226,0.77259 -4.31226,0.77259 0,0 -5.1155,-1.80149 -5.55555,-2.38096 0.46447,-0.67997 3.99969,-0.68277 4.35437,-0.71973 z"
           id="path4820-9-5-59-3-3-1-5-6-2-1"
           inkscape:connector-curvature="0"
           sodipodi:nodetypes="csccc" />
        <path
           style="fill:#696969;fill-opacity:1;stroke:none"
           d="m 549.75758,575.94539 c 0.82023,0.17441 5.24889,1.79899 5.51344,2.3281 0.26455,0.5291 -4.31226,0.77259 -4.31226,0.77259 0,0 -5.1155,-1.80149 -5.55555,-2.38096 0.46447,-0.67997 3.99969,-0.68277 4.35437,-0.71973 z"
           id="path4820-9-5-2-7-2-4-5-2-4-5-3"
           inkscape:connector-curvature="0"
           sodipodi:nodetypes="csccc" />
        <path
           style="fill:#caba8d;fill-opacity:1;stroke:none"
           d="m 496.54199,559.08569 c 0.82023,0.17441 5.24889,1.79899 5.51344,2.3281 0.26455,0.5291 -4.31226,0.77259 -4.31226,0.77259 0,0 -5.1155,-1.80149 -5.55555,-2.38096 0.46447,-0.67997 3.99969,-0.68277 4.35437,-0.71973 z"
           id="path4820-9-1-0-8-3-0-8-2-3"
           inkscape:connector-curvature="0"
           sodipodi:nodetypes="csccc" />
        <path
           style="fill:#caba8d;fill-opacity:1;stroke:none"
           d="m 511.19873,565.62377 c 0.82023,0.17441 5.24889,1.79899 5.51344,2.3281 0.26455,0.5291 -4.31226,0.77259 -4.31226,0.77259 0,0 -5.1155,-1.80149 -5.55555,-2.38096 0.46447,-0.67997 3.99969,-0.68277 4.35437,-0.71973 z"
           id="path4820-9-5-29-9-7-8-1-5-6-1"
           inkscape:connector-curvature="0"
           sodipodi:nodetypes="csccc" />
        <path
           style="fill:#caba8d;fill-opacity:1;stroke:none"
           d="m 525.68244,571.5677 c 0.82023,0.17441 5.24889,1.79899 5.51344,2.3281 0.26455,0.5291 -4.31226,0.77259 -4.31226,0.77259 0,0 -5.1155,-1.80149 -5.55555,-2.38096 0.46447,-0.67997 3.99969,-0.68277 4.35437,-0.71973 z"
           id="path4820-9-5-2-7-2-4-5-2-6-9-5"
           inkscape:connector-curvature="0"
           sodipodi:nodetypes="csccc" />
        <path
           style="fill:#696969;fill-opacity:1;stroke:none"
           d="m 481.41486,552.25681 c 0.82023,0.17441 5.24889,1.79899 5.51344,2.3281 0.26455,0.5291 -4.31226,0.77259 -4.31226,0.77259 0,0 -5.1155,-1.80149 -5.55555,-2.38096 0.46447,-0.67997 3.99969,-0.68277 4.35437,-0.71973 z"
           id="path4820-9-5-59-3-3-1-5-6-2-1-2"
           inkscape:connector-curvature="0"
           sodipodi:nodetypes="csccc" />
        <path
           style="fill:#3771c8;fill-opacity:1;stroke:none"
           d="m 540.14434,578.31622 c 0.82023,0.17441 5.24889,1.79899 5.51344,2.3281 0.26455,0.5291 -4.31226,0.77259 -4.31226,0.77259 0,0 -5.1155,-1.80149 -5.55555,-2.38096 0.46447,-0.67997 3.99969,-0.68277 4.35437,-0.71973 z"
           id="path4820-9-5-2-7-2-4-5-2-4-5-3-6"
           inkscape:connector-curvature="0"
           sodipodi:nodetypes="csccc" />
        <path
           style="fill:#caba8d;fill-opacity:1;stroke:none"
           d="m 486.24754,560.96233 c 0.82023,0.17441 5.24889,1.79899 5.51344,2.3281 0.26455,0.5291 -4.31226,0.77259 -4.31226,0.77259 0,0 -5.1155,-1.80149 -5.55555,-2.38096 0.46447,-0.67997 3.99969,-0.68277 4.35437,-0.71973 z"
           id="path4820-9-1-0-8-3-0-8-2-9"
           inkscape:connector-curvature="0"
           sodipodi:nodetypes="csccc" />
        <path
           style="fill:#caba8d;fill-opacity:1;stroke:none"
           d="m 500.67333,567.38816 c 0.82023,0.17441 5.24889,1.79899 5.51344,2.3281 0.26455,0.5291 -4.31226,0.77259 -4.31226,0.77259 0,0 -5.1155,-1.80149 -5.55555,-2.38096 0.46447,-0.67997 3.99969,-0.68277 4.35437,-0.71973 z"
           id="path4820-9-5-29-9-7-8-1-5-6-4"
           inkscape:connector-curvature="0"
           sodipodi:nodetypes="csccc" />
        <path
           style="fill:#caba8d;fill-opacity:1;stroke:none"
           d="m 516.19954,573.67529 c 0.82023,0.17441 5.24889,1.79899 5.51344,2.3281 0.26455,0.5291 -4.31226,0.77259 -4.31226,0.77259 0,0 -5.1155,-1.80149 -5.55555,-2.38096 0.46447,-0.67997 3.99969,-0.68277 4.35437,-0.71973 z"
           id="path4820-9-5-2-7-2-4-5-2-6-9-4"
           inkscape:connector-curvature="0"
           sodipodi:nodetypes="csccc" />
        <path
           style="fill:#696969;fill-opacity:1;stroke:none"
           d="m 471.70101,554.13345 c 0.82023,0.17441 5.24889,1.79899 5.51344,2.3281 0.26455,0.5291 -4.31226,0.77259 -4.31226,0.77259 0,0 -5.1155,-1.80149 -5.55555,-2.38096 0.46447,-0.67997 3.99969,-0.68277 4.35437,-0.71973 z"
           id="path4820-9-5-59-3-3-1-5-6-2-1-6"
           inkscape:connector-curvature="0"
           sodipodi:nodetypes="csccc" />
        <path
           style="fill:#c2393c;fill-opacity:1;stroke:none"
           d="m 529.51576,580.84742 c 0.82023,0.17441 5.24889,1.79899 5.51344,2.3281 0.26455,0.5291 -4.31226,0.77259 -4.31226,0.77259 0,0 -5.1155,-1.80149 -5.55555,-2.38096 0.46447,-0.67997 3.99969,-0.68277 4.35437,-0.71973 z"
           id="path4820-9-5-2-7-2-4-5-2-4-5-3-0"
           inkscape:connector-curvature="0"
           sodipodi:nodetypes="csccc" />
      </g>
      <path
         id="path5569"
         d="m 342.28735,391.5826 c 0,0 -0.52928,0.62233 -0.52928,0.62233 0,0 -0.52325,0.82474 -0.52325,0.82474 0,0 -0.42067,0.8995 -0.42067,0.8995 0,0 -0.31834,0.95732 -0.31834,0.95732 0,0 -0.21969,0.99594 -0.21969,0.99594 0,0 -0.12321,1.01774 -0.12321,1.01774 0,0 -0.0294,1.02282 -0.0294,1.02282 0,0 0.0615,1.00861 0.0615,1.00861 0,0 0.15135,0.97872 0.15135,0.97872 0,0 0.23825,0.93082 0.23825,0.93082 0,0 0.32314,0.86357 0.32314,0.86357 0,0 0.40352,0.78253 0.40352,0.78253 0,0 0.5188,0.74962 0.5188,0.74962 0,0 0.52505,0.56621 0.52505,0.56621 0,0 0.5231,0.40371 0.5231,0.40371 0,0 0.51221,0.26348 0.51221,0.26348 0,0 0.49395,0.14404 0.49395,0.14404 0,0 0.46674,0.0467 0.46674,0.0467 0,0 0.43054,-0.0283 0.43054,-0.0283 0,0 0.38785,-0.083 0.38785,-0.083 0,0 0.33618,-0.11562 0.33618,-0.11562 0,0 0.27551,-0.12735 0.27551,-0.12735 0,0 0.20753,-0.11728 0.20753,-0.11728 0,0 0.13053,-0.0865 0.13053,-0.0865 0,0 0.0446,-0.0325 0.0446,-0.0325 0,0 -0.001,-0.1602 -0.001,-0.1602 0,0 -0.007,-0.41854 -0.007,-0.41854 0,0 -0.0111,-0.59298 -0.0111,-0.59298 0,0 -0.0124,-0.67819 -0.0124,-0.67819 0,0 -0.0124,-0.67954 -0.0124,-0.67954 0,0 -0.0111,-0.59299 -0.0111,-0.59299 0,0 -0.007,-0.4186 -0.007,-0.4186 0,0 -10e-4,-0.15899 -10e-4,-0.15899 0,0 -0.0706,0.0633 -0.0706,0.0633 0,0 -0.19575,0.15777 -0.19575,0.15777 0,0 -0.29474,0.19671 -0.29474,0.19671 0,0 -0.36652,0.18259 -0.36652,0.18259 0,0 -0.41288,0.11299 -0.41288,0.11299 0,0 -0.43371,-0.008 -0.43371,-0.008 0,0 -0.42733,-0.18466 -0.42733,-0.18466 0,0 -0.42974,-0.37268 -0.42974,-0.37268 0,0 -0.37523,-0.47295 -0.37523,-0.47295 0,0 -0.30599,-0.55977 -0.30599,-0.55977 0,0 -0.22127,-0.63447 -0.22127,-0.63447 0,0 -0.12446,-0.69523 -0.12446,-0.69523 0,0 -0.0124,-0.74378 -0.0124,-0.74378 0,0 0.11437,-0.77982 0.11437,-0.77982 0,0 0.25369,-0.80186 0.25369,-0.80186 0,0 0.40852,-0.81153 0.40852,-0.81153 0,0 0.48718,-0.64427 0.48718,-0.64427 0,0 0.49087,-0.37977 0.49087,-0.37977 0,0 0.47316,-0.17081 0.47316,-0.17081 0,0 0.43401,-0.0214 0.43401,-0.0214 0,0 0.37433,0.0749 0.37433,0.0749 0,0 0.29323,0.11326 0.29323,0.11326 0,0 0.19159,0.0963 0.19159,0.0963 0,0 0.0675,0.0229 0.0675,0.0229 0,0 -0.0628,-3.65686 -0.0628,-3.65686 0,0 0,0 0,0 0,0 -0.0728,-0.12348 -0.0728,-0.12348 0,0 -0.20254,-0.089 -0.20254,-0.089 0,0 -0.31246,-0.0443 -0.31246,-0.0443 0,0 -0.40174,0.014 -0.40174,0.014 0,0 -0.47207,0.084 -0.47207,0.084 0,0 -0.52174,0.16715 -0.52174,0.16715 0,0 -0.55419,0.26255 -0.55419,0.26255 0,0 -0.56512,0.36939 -0.56512,0.36939 0,0 -0.55627,0.48924 -0.55627,0.48924"
         style="font-style:normal;font-variant:normal;font-weight:bold;font-stretch:normal;font-size:49.0635376px;line-height:125%;font-family:MinimaExpandedSSK;-inkscape-font-specification:'MinimaExpandedSSK Bold';letter-spacing:0px;word-spacing:0px;fill:#0000bf;fill-opacity:1;stroke:none"
         inkscape:connector-curvature="0" />
      <path
         id="path5567"
         d="m 348.11776,396.81671 c 0,0 1.88983,-3.22061 1.88983,-3.22061 0,0 -0.0533,-0.0325 -0.0533,-0.0325 0,0 0,0 0,0 0,0 -3.93732,0.54851 -3.93732,0.54851 0,0 0.0514,2.99499 0.0514,2.99499 0,0 2.04937,-0.29026 2.04937,-0.29026"
         style="font-style:normal;font-variant:normal;font-weight:bold;font-stretch:normal;font-size:49.0635376px;line-height:125%;font-family:MinimaExpandedSSK;-inkscape-font-specification:'MinimaExpandedSSK Bold';letter-spacing:0px;word-spacing:0px;fill:#0000bf;fill-opacity:1;stroke:none"
         inkscape:connector-curvature="0" />
      <path
         id="path5565"
         d="m 348.14082,397.11734 c 0,0 1.994,2.67021 1.994,2.67021 0,0 -0.0511,0.0463 -0.0511,0.0463 0,0 0,0 0,0 0,0 -3.95857,0.57039 -3.95857,0.57039 0,0 -0.0514,-2.99344 -0.0514,-2.99344 0,0 2.06723,-0.29325 2.06723,-0.29325"
         style="font-style:normal;font-variant:normal;font-weight:bold;font-stretch:normal;font-size:49.0635376px;line-height:125%;font-family:MinimaExpandedSSK;-inkscape-font-specification:'MinimaExpandedSSK Bold';letter-spacing:0px;word-spacing:0px;fill:#bf0000;fill-opacity:1;stroke:none"
         inkscape:connector-curvature="0" />
      <path
         d="m 383.6799,393.40472 c 0,1.56115 0.33219,2.1399 1.43681,2.02119 0,0 0.36653,-0.0395 0.36653,-0.0395 1.16487,-0.12515 1.35538,-0.90928 1.35509,-1.69293 0,0 -3e-5,-0.10042 -3e-5,-0.10042 0,0 -0.77828,0.0826 -0.77828,0.0826 0,0.42224 -0.11036,0.50435 -0.53203,0.54932 0,0 -0.5222,0.0558 -0.5222,0.0558 -0.42173,0.045 -0.56243,-0.24204 -0.56263,-0.73528 0,0 -7e-5,-0.19124 -7e-5,-0.19124 0,0 2.39502,-0.25338 2.39502,-0.25338 0,0 0,-0.73341 0,-0.73341 0,-1.63765 -0.28199,-2.14102 -1.40167,-2.02511 0,0 -0.39665,0.041 -0.39665,0.041 -1.04439,0.10802 -1.36047,0.79553 -1.35989,2.33649 0,0 0,0.68488 0,0.68488 m 1.29477,-1.83741 c 0,0 0.52219,-0.0546 0.52219,-0.0546 0.51215,-0.0535 0.56251,0.39366 0.56267,0.73546 0,0 -1.60675,0.16871 -1.60675,0.16871 -1.1e-4,-0.2919 0.0349,-0.79883 0.52189,-0.84972 m -2.88392,0.32139 c 0.42176,-0.0439 0.53242,0.44841 0.53256,0.81129 0,0 0.83346,-0.0877 0.83346,-0.0877 0,-1.15843 -0.25179,-2.01891 -1.16562,-1.92431 0,0 -0.3364,0.0348 -0.3364,0.0348 -0.42678,0.0443 -0.60239,0.40547 -0.69765,0.81901 0,0 0,-0.74672 0,-0.74672 0,0 -0.84855,0.0877 -0.84855,0.0877 0,0 0.001,5.03869 0.001,5.03869 0,0 0.84857,-0.0912 0.84857,-0.0912 0,0 -0.001,-2.6539 -0.001,-2.6539 0,-0.68618 0.22047,-1.22388 0.61714,-1.2653 0,0 0.2159,-0.0224 0.2159,-0.0224 m -3.39135,-0.849 c 0,0 -0.42677,0.0443 -0.42677,0.0443 -1.03435,0.10705 -1.34037,0.82726 -1.33974,2.50802 0,0 0,0.42523 0,0.42523 0,1.69087 0.38744,2.2467 1.08537,2.1717 0,0 0.99919,-0.10733 0.99919,-0.10733 0.75815,-0.0815 1.07926,-0.7321 1.07866,-2.3986 0,0 0,-0.4242 0,-0.4242 0,-1.73721 -0.35234,-2.32701 -1.39671,-2.21892 m 0.65862,2.33711 c 0,0 10e-5,0.21222 10e-5,0.21222 0,0.82866 -0.17529,1.18088 -0.68743,1.2354 0,0 -0.3113,0.0331 -0.3113,0.0331 -0.51215,0.0546 -0.688,-0.26069 -0.68832,-1.09045 0,0 -7e-5,-0.21252 -7e-5,-0.21252 0,-0.75894 0.15014,-1.13895 0.71757,-1.19826 0,0 0.25105,-0.0263 0.25105,-0.0263 0.5674,-0.0593 0.71812,0.28878 0.7184,1.04672 m -6.24199,1.09456 c 0,1.41156 0.34226,2.19742 1.2611,2.0987 0,0 0.35145,-0.0377 0.35145,-0.0377 0.66279,-0.0713 0.83841,-0.39419 0.9387,-0.74954 0,0 0,0.64865 0,0.64865 0,0 0.83349,-0.0895 0.83349,-0.0895 0,0 -10e-4,-7.1 -10e-4,-7.1 0,0 -0.83349,0.0849 -0.83349,0.0849 0,0 0.001,2.79726 0.001,2.79726 -0.0754,-0.38746 -0.26137,-0.74323 -0.89903,-0.67722 0,0 -0.35148,0.0365 -0.35148,0.0365 -0.89374,0.0924 -1.30015,0.9064 -1.29961,2.39918 0,0 0,0.58899 0,0.58899 m 1.526,-1.72342 c 0,0 0.28118,-0.0294 0.28118,-0.0294 0.56235,-0.0588 0.7282,0.33944 0.72846,1.0489 0,0 7e-5,0.21284 7e-5,0.21284 0,0.73984 -0.1753,1.18426 -0.68744,1.23878 0,0 -0.32134,0.0342 -0.32134,0.0342 -0.47699,0.0507 -0.67794,-0.20183 -0.67826,-1.05431 0,0 -8e-5,-0.21312 -8e-5,-0.21312 0,-0.89305 0.20042,-1.18804 0.67741,-1.2379 m -3.34627,-0.94181 c 0,0 -0.42676,0.0443 -0.42676,0.0443 -1.03434,0.10705 -1.34037,0.83122 -1.33973,2.52166 0,0 0,0.42769 0,0.42769 0,1.70062 0.38746,2.2599 1.08536,2.18486 0,0 0.99919,-0.10732 0.99919,-0.10732 0.75815,-0.0814 1.07927,-0.73569 1.07865,-2.41181 0,0 0,-0.42666 0,-0.42666 0,-1.74724 -0.35233,-2.34067 -1.39671,-2.23256 m 0.65866,2.35097 c 0,0 8e-5,0.21346 8e-5,0.21346 0,0.83346 -0.17533,1.1876 -0.68746,1.24212 0,0 -0.3113,0.0331 -0.3113,0.0331 -0.51214,0.0546 -0.68801,-0.26263 -0.6883,-1.09716 0,0 -8e-5,-0.21374 -8e-5,-0.21374 0,-0.76331 0.1503,-1.14546 0.7176,-1.20474 0,0 0.25105,-0.0261 0.25105,-0.0261 0.56735,-0.0593 0.71813,0.29085 0.71841,1.05317 m -2.83268,-0.14961 c 0,-1.16127 -0.30198,-1.92462 -1.22081,-1.82951 0,0 -0.22596,0.0233 -0.22596,0.0233 -0.57739,0.0598 -0.75804,0.42541 -0.86332,0.83435 -0.10567,-0.36663 -0.30656,-0.71324 -1.10991,-0.63008 0,0 -0.18077,0.0188 -0.18077,0.0188 -0.58244,0.0604 -0.81325,0.47262 -0.88842,0.8791 0,0 0,-0.78709 0,-0.78709 0,0 -0.85356,0.0884 -0.85356,0.0884 0,0 10e-4,5.10408 10e-4,5.10408 0,0 0.85358,-0.0917 0.85358,-0.0917 0,0 -0.001,-2.79056 -0.001,-2.79056 0,-0.67467 0.14526,-1.12942 0.58705,-1.17558 0,0 0.15065,-0.0156 0.15065,-0.0156 0.52218,-0.0546 0.64788,0.39185 0.64814,1.07599 0,0 10e-4,2.75697 10e-4,2.75697 0,0 0.85357,-0.0917 0.85357,-0.0917 0,0 -10e-4,-2.72454 -10e-4,-2.72454 0,-0.71429 0.18534,-1.1929 0.64726,-1.24113 0,0 0.15066,-0.0156 0.15066,-0.0156 0.54728,-0.0572 0.59769,0.47783 0.59788,1.01807 0,0 10e-4,2.81335 10e-4,2.81335 0,0 0.85357,-0.0917 0.85357,-0.0917 0,0 -10e-4,-3.12726 -10e-4,-3.12726 m -5.83513,0.61294 c -4e-4,-1.16649 -0.30196,-1.93346 -1.22081,-1.83831 0,0 -0.22594,0.0233 -0.22594,0.0233 -0.57742,0.0598 -0.75805,0.427 -0.86335,0.83773 -0.10553,-0.36834 -0.30655,-0.71662 -1.10991,-0.63344 0,0 -0.18076,0.0188 -0.18076,0.0188 -0.58244,0.0602 -0.81326,0.47435 -0.88843,0.88263 0,0 -2.7e-4,-0.79061 -2.7e-4,-0.79061 0,0 -0.85357,0.0884 -0.85357,0.0884 0,0 0.001,5.12707 0.001,5.12707 0,0 0.85357,-0.0917 0.85357,-0.0917 0,0 -8.3e-4,-2.80312 -8.3e-4,-2.80312 -2.6e-4,-0.67768 0.14526,-1.13442 0.58705,-1.18059 0,0 0.15066,-0.0156 0.15066,-0.0156 0.52217,-0.0546 0.64786,0.39392 0.64812,1.08115 0,0 8.3e-4,2.76935 8.3e-4,2.76935 0,0 0.85355,-0.0917 0.85355,-0.0917 0,0 -8.1e-4,-2.73682 -8.1e-4,-2.73682 -2.8e-4,-0.71752 0.18536,-1.19817 0.64727,-1.24642 0,0 0.15065,-0.0156 0.15065,-0.0156 0.54729,-0.0572 0.5977,0.48028 0.59789,1.02295 0,0 8.4e-4,2.82603 8.4e-4,2.82603 0,0 0.85358,-0.0917 0.85358,-0.0917 0,0 -8.5e-4,-3.14137 -8.5e-4,-3.14137 m -7.14246,-1.24582 c 0,0 -0.42678,0.0441 -0.42678,0.0441 -1.03433,0.10705 -1.34037,0.83938 -1.33974,2.54962 0,0 1.5e-4,0.4327 1.5e-4,0.4327 6.5e-4,1.72057 0.38744,2.28689 1.08537,2.21187 0,0 0.99916,-0.10733 0.99916,-0.10733 0.75817,-0.0815 1.07929,-0.74297 1.07868,-2.43882 0,0 -1.3e-4,-0.43167 -1.3e-4,-0.43167 -6.7e-4,-1.76778 -0.35235,-2.36862 -1.39671,-2.2605 m 0.65862,2.3794 c 0,0 1e-4,0.21597 1e-4,0.21597 2.6e-4,0.84325 -0.17531,1.20131 -0.68746,1.25584 0,0 -0.31128,0.0331 -0.31128,0.0331 -0.51215,0.0546 -0.68803,-0.26659 -0.68832,-1.11092 0,0 -7e-5,-0.21625 -7e-5,-0.21625 -2.9e-4,-0.77224 0.1503,-1.1587 0.71759,-1.218 0,0 0.25105,-0.0263 0.25105,-0.0263 0.56735,-0.0593 0.71815,0.29517 0.71839,1.06646 m -4.02547,3.13729 c 1.13976,-0.12252 1.33535,-0.76181 1.33496,-1.85412 0,0 -6e-5,-0.15465 -6e-5,-0.15465 0,0 -0.79331,0.0841 -0.79331,0.0841 1.4e-4,0.43308 -0.0851,0.6587 -0.70271,0.72449 0,0 -0.20082,0.0214 -0.20082,0.0214 -0.5473,0.0584 -0.74323,-0.27187 -0.74354,-1.08744 0,0 -1.4e-4,-0.3407 -1.4e-4,-0.3407 -2.3e-4,-0.87757 0.17029,-1.23608 0.73767,-1.29536 0,0 0.1908,-0.0198 0.1908,-0.0198 0.61757,-0.0645 0.71805,0.13122 0.7182,0.52307 0,0 0.79332,-0.0833 0.79332,-0.0833 0,0 -3e-5,-0.10304 -3e-5,-0.10304 -4e-4,-1.20568 -0.27178,-1.69286 -1.40149,-1.57591 0,0 -0.37656,0.0391 -0.37656,0.0391 -1.06947,0.11065 -1.38055,0.80404 -1.37996,2.42582 0,0 2.6e-4,0.67142 2.6e-4,0.67142 5.6e-4,1.60111 0.28199,2.19068 1.44687,2.06549 0,0 0.37655,-0.0405 0.37655,-0.0405"
         style="font-style:normal;font-variant:normal;font-weight:bold;font-stretch:normal;font-size:49.0635376px;line-height:125%;font-family:MinimaExpandedSSK;-inkscape-font-specification:'MinimaExpandedSSK Bold';letter-spacing:0px;word-spacing:0px;fill:#b3b3b3;fill-opacity:1;stroke:none"
         id="path5146-1"
         inkscape:connector-curvature="0" />
    </g>
  </g>
</svg>
