<?xml version="1.0" encoding="UTF-8" standalone="no"?>
<!-- Created with Inkscape (http://www.inkscape.org/) -->

<svg
   xmlns:dc="http://purl.org/dc/elements/1.1/"
   xmlns:cc="http://creativecommons.org/ns#"
   xmlns:rdf="http://www.w3.org/1999/02/22-rdf-syntax-ns#"
   xmlns:svg="http://www.w3.org/2000/svg"
   xmlns="http://www.w3.org/2000/svg"
   xmlns:sodipodi="http://sodipodi.sourceforge.net/DTD/sodipodi-0.dtd"
   xmlns:inkscape="http://www.inkscape.org/namespaces/inkscape"
   id="svg2"
   version="1.1"
   inkscape:version="0.92.2 (5c3e80d, 2017-08-06)"
   xml:space="preserve"
   width="810.00006"
   height="727.51648"
   viewBox="0 0 810.00008 727.51648"
   sodipodi:docname="publicdomainq-wheelchair.svg"
   inkscape:export-filename="/media/juhele/data_2TB/_GRAFIKA/Publicdomainq/lidi/publicdomainq-wheelchair.png"
   inkscape:export-xdpi="96.023003"
   inkscape:export-ydpi="96.023003"><title
     id="title7699">Wheelchair</title><metadata
     id="metadata8"><rdf:RDF><cc:Work
         rdf:about=""><dc:format>image/svg+xml</dc:format><dc:type
           rdf:resource="http://purl.org/dc/dcmitype/StillImage" /><dc:title>Wheelchair</dc:title><cc:license
           rdf:resource="http://creativecommons.org/publicdomain/zero/1.0/" /><dc:subject><rdf:Bag><rdf:li>impaired</rdf:li><rdf:li>wheels</rdf:li><rdf:li>seat</rdf:li><rdf:li>wheelchair</rdf:li><rdf:li>health</rdf:li><rdf:li>problem</rdf:li><rdf:li>hospital</rdf:li><rdf:li>age</rdf:li><rdf:li>publicdomainq.net</rdf:li></rdf:Bag></dc:subject><dc:description>This image was adapted from a picture posted to publicdomainq.net. All of the images on these sites are in the public domain i.e. CC0. This site is only in Japanese but can be easily navigated with Google Translate.</dc:description></cc:Work><cc:License
         rdf:about="http://creativecommons.org/publicdomain/zero/1.0/"><cc:permits
           rdf:resource="http://creativecommons.org/ns#Reproduction" /><cc:permits
           rdf:resource="http://creativecommons.org/ns#Distribution" /><cc:permits
           rdf:resource="http://creativecommons.org/ns#DerivativeWorks" /></cc:License></rdf:RDF></metadata><defs
     id="defs6"><style
       id="style258"
       type="text/css"><![CDATA[
    .str6 {stroke:#373435;stroke-width:52.5118;stroke-linejoin:round}
    .str1 {stroke:#373435;stroke-width:56.626;stroke-linejoin:round}
    .str4 {stroke:#373435;stroke-width:59.1299;stroke-linejoin:round}
    .str3 {stroke:#373435;stroke-width:67.6024;stroke-linejoin:round}
    .str5 {stroke:#373435;stroke-width:74.9016;stroke-linejoin:round}
    .str2 {stroke:#373435;stroke-width:84.9409;stroke-linejoin:round}
    .str0 {stroke:#BEBFC1;stroke-width:86.0236;stroke-linecap:round;stroke-linejoin:round}
    .fil0 {fill:none}
    .fil5 {fill:#00ABA0}
    .fil4 {fill:#325361}
    .fil1 {fill:#737476}
    .fil6 {fill:#848688}
    .fil3 {fill:#A9ABAE}
    .fil2 {fill:#D2D3D5}
   ]]></style></defs><sodipodi:namedview
     pagecolor="#ffffff"
     bordercolor="#666666"
     borderopacity="1"
     objecttolerance="10"
     gridtolerance="10"
     guidetolerance="10"
     inkscape:pageopacity="0"
     inkscape:pageshadow="2"
     inkscape:window-width="1920"
     inkscape:window-height="1140"
     id="namedview4"
     showgrid="false"
     inkscape:zoom="0.43800618"
     inkscape:cx="203.35344"
     inkscape:cy="256.58173"
     inkscape:window-x="0"
     inkscape:window-y="0"
     inkscape:window-maximized="1"
     inkscape:current-layer="svg2"
     fit-margin-top="5"
     fit-margin-left="5"
     fit-margin-bottom="5"
     fit-margin-right="5" /><g
     style="clip-rule:evenodd;fill-rule:evenodd;image-rendering:optimizeQuality;shape-rendering:geometricPrecision;text-rendering:geometricPrecision"
     id="g431"
     transform="matrix(0.12654049,0,0,0.12654049,-356.08041,-159.06597)"><g
       id="ƒŒƒCƒ_x201e__x0081__x005b__x0020_1"><metadata
         id="CorelCorpID_0Corel-Layer" /><g
         id="_164111632"><g
           id="g311"><g
             id="g285"><line
               id="line263"
               y2="5182"
               x2="6672"
               y1="5182"
               x1="6076"
               class="fil0 str0"
               style="fill:none;stroke:#bebfc1;stroke-width:86.02359772;stroke-linecap:round;stroke-linejoin:round" /><line
               id="line265"
               y2="4596"
               x2="6423"
               y1="5007"
               x1="6002"
               class="fil0 str0"
               style="fill:none;stroke:#bebfc1;stroke-width:86.02359772;stroke-linecap:round;stroke-linejoin:round" /><line
               id="line267"
               y2="4353"
               x2="5822"
               y1="4934"
               x1="5822"
               class="fil0 str0"
               style="fill:none;stroke:#bebfc1;stroke-width:86.02359772;stroke-linecap:round;stroke-linejoin:round" /><line
               id="line269"
               y2="4596"
               x2="5222"
               y1="5007"
               x1="5643"
               class="fil0 str0"
               style="fill:none;stroke:#bebfc1;stroke-width:86.02359772;stroke-linecap:round;stroke-linejoin:round" /><line
               id="line271"
               y2="5182"
               x2="4973"
               y1="5182"
               x1="5569"
               class="fil0 str0"
               style="fill:none;stroke:#bebfc1;stroke-width:86.02359772;stroke-linecap:round;stroke-linejoin:round" /><line
               id="line273"
               y2="5767"
               x2="5222"
               y1="5356"
               x1="5643"
               class="fil0 str0"
               style="fill:none;stroke:#bebfc1;stroke-width:86.02359772;stroke-linecap:round;stroke-linejoin:round" /><line
               id="line275"
               y2="6010"
               x2="5822"
               y1="5429"
               x1="5822"
               class="fil0 str0"
               style="fill:none;stroke:#bebfc1;stroke-width:86.02359772;stroke-linecap:round;stroke-linejoin:round" /><line
               id="line277"
               y2="5767"
               x2="6423"
               y1="5356"
               x1="6002"
               class="fil0 str0"
               style="fill:none;stroke:#bebfc1;stroke-width:86.02359772;stroke-linecap:round;stroke-linejoin:round" /><path
               id="path279"
               d="m 5822,4077 c -610,0 -1104,494 -1104,1104 0,610 494,1104 1104,1104 610,0 1104,-494 1104,-1104 0,-610 -494,-1104 -1104,-1104 z m 0,1954 v 0 c -469,0 -849,-380 -849,-849 0,-469 380,-849 849,-849 469,0 849,380 849,849 0,469 -380,849 -849,849 z"
               class="fil1 str1"
               inkscape:connector-curvature="0"
               style="fill:#737476;stroke:#373435;stroke-width:56.62599945;stroke-linejoin:round" /><path
               id="path281"
               d="m 6091,5182 c 0,148 -120,268 -268,268 -148,0 -269,-120 -269,-268 0,-148 120,-269 269,-269 148,0 268,120 268,269 z"
               class="fil2 str2"
               inkscape:connector-curvature="0"
               style="fill:#d2d3d5;stroke:#373435;stroke-width:84.94090271;stroke-linejoin:round" /><path
               id="path283"
               d="m 5956,5182 c 0,74 -60,134 -134,134 -74,0 -134,-60 -134,-134 0,-74 60,-134 134,-134 74,0 134,60 134,134 z"
               class="fil1 str2"
               inkscape:connector-curvature="0"
               style="fill:#737476;stroke:#373435;stroke-width:84.94090271;stroke-linejoin:round" /></g><path
             id="path287"
             d="M 5986,1914 V 5429 H 5716 V 1914 c 0,-316 -214,-276 -214,-276 h -473 v -270 h 473 c 0,0 485,-56 485,546 z"
             class="fil2 str3"
             inkscape:connector-curvature="0"
             style="fill:#d2d3d5;stroke:#373435;stroke-width:67.60240173;stroke-linejoin:round" /><path
             id="path289"
             d="m 8729,6033 -605,-919 c -77,-117 -168,-26 -168,-26 -80,53 -16,147 -16,147 l 605,919 c 0,0 66,93 153,36 0,0 104,-46 31,-157 z"
             class="fil2 str4"
             inkscape:connector-curvature="0"
             style="fill:#d2d3d5;stroke:#373435;stroke-width:59.12990189;stroke-linejoin:round" /><path
             id="path291"
             d="m 7789,5907 332,-306 V 4104 c 0,-603 -484,-546 -484,-546 H 5987 v 270 h 1650 c 0,0 214,-39 214,276 v 1497 l -332,306 c 0,0 -45,79 79,90 0,0 68,11 192,-90 z"
             class="fil2 str3"
             inkscape:connector-curvature="0"
             style="fill:#d2d3d5;stroke:#373435;stroke-width:67.60240173;stroke-linejoin:round" /><polygon
             id="polygon293"
             points="7850,5103 7850,4235 5986,4235 5986,5103 "
             class="fil3 str3"
             style="fill:#a9abae;stroke:#373435;stroke-width:67.60240173;stroke-linejoin:round" /><polygon
             id="polygon295"
             points="7850,5103 6573,5718 4709,5718 5986,5103 "
             class="fil3 str3"
             style="fill:#a9abae;stroke:#373435;stroke-width:67.60240173;stroke-linejoin:round" /><polygon
             id="polygon297"
             points="7850,4910 6573,5526 4709,5526 5986,4910 "
             class="fil4 str3"
             style="fill:#325361;stroke:#373435;stroke-width:67.60240173;stroke-linejoin:round" /><polygon
             id="polygon299"
             points="7866,5087 6589,5702 6573,5526 7850,4910 "
             class="fil4 str3"
             style="fill:#325361;stroke:#373435;stroke-width:67.60240173;stroke-linejoin:round" /><path
             id="path301"
             d="m 7636,3515 -1406,-1 c -146,0 -119,194 -119,194 0,148 119,144 119,144 l 1406,1 c 0,0 -109,-7 -109,-165 0,0 25,-173 109,-173 z"
             class="fil5 str5"
             inkscape:connector-curvature="0"
             style="fill:#00aba0;stroke:#373435;stroke-width:74.9016037;stroke-linejoin:round" /><path
             id="path303"
             d="m 5197,1335 -895,-1 c -146,0 -119,194 -119,194 0,148 119,144 119,144 l 895,1 c 0,0 -67,-7 -67,-166 0,0 -25,-132 67,-173 z"
             class="fil5 str5"
             inkscape:connector-curvature="0"
             style="fill:#00aba0;stroke:#373435;stroke-width:74.9016037;stroke-linejoin:round" /><g
             id="g309"><path
               id="path305"
               d="m 7482,5564 c -199,0 -361,162 -361,361 0,199 161,361 361,361 199,0 361,-161 361,-361 0,-199 -162,-361 -361,-361 z"
               class="fil1 str3"
               inkscape:connector-curvature="0"
               style="fill:#737476;stroke:#373435;stroke-width:67.60240173;stroke-linejoin:round" /><path
               id="path307"
               d="m 7482,6141 c -119,0 -215,-96 -215,-215 0,-119 96,-215 215,-215 119,0 215,97 215,215 0,119 -96,215 -215,215 z"
               class="fil2 str6"
               inkscape:connector-curvature="0"
               style="fill:#d2d3d5;stroke:#373435;stroke-width:52.51179886;stroke-linejoin:round" /></g></g><polygon
           id="polygon313"
           points="5716,4803 5716,2217 4696,2656 4696,5242 "
           class="fil5 str5"
           style="fill:#00aba0;stroke:#373435;stroke-width:74.9016037;stroke-linejoin:round" /><g
           id="g319"><polygon
             id="polygon315"
             points="8025,6606 8041,6695 7387,6814 7371,6725 "
             class="fil3 str3"
             style="fill:#a9abae;stroke:#373435;stroke-width:67.60240173;stroke-linejoin:round" /><polygon
             id="polygon317"
             points="9130,6036 9146,6125 8041,6695 8025,6606 "
             class="fil2 str4"
             style="fill:#d2d3d5;stroke:#373435;stroke-width:59.12990189;stroke-linejoin:round" /></g><polygon
           id="polygon321"
           points="8476,6155 9130,6036 8025,6606 7371,6725 "
           class="fil6 str4"
           style="fill:#848688;stroke:#373435;stroke-width:59.12990189;stroke-linejoin:round" /><g
           id="g365"><path
             id="path323"
             d="M 4696,2560 V 6075 H 4426 V 2560 c 0,-315 -214,-276 -214,-276 h -473 v -270 h 473 c 0,0 485,-56 485,546 z"
             class="fil2 str3"
             inkscape:connector-curvature="0"
             style="fill:#d2d3d5;stroke:#373435;stroke-width:67.60240173;stroke-linejoin:round" /><path
             id="path325"
             d="m 7440,6679 -605,-919 c -77,-117 -168,-26 -168,-26 -80,53 -16,147 -16,147 l 605,919 c 0,0 66,93 152,36 0,0 104,-46 31,-157 z"
             class="fil2 str4"
             inkscape:connector-curvature="0"
             style="fill:#d2d3d5;stroke:#373435;stroke-width:59.12990189;stroke-linejoin:round" /><path
             id="path327"
             d="m 6499,6553 332,-306 V 4750 c 0,-603 -485,-546 -485,-546 H 4696 v 270 h 1650 c 0,0 214,-39 214,276 v 1497 l -332,306 c 0,0 -45,79 79,90 0,0 68,11 192,-90 z"
             class="fil2 str3"
             inkscape:connector-curvature="0"
             style="fill:#d2d3d5;stroke:#373435;stroke-width:67.60240173;stroke-linejoin:round" /><polygon
             id="polygon329"
             points="6560,5749 6560,4881 4696,4881 4696,5749 "
             class="fil3 str3"
             style="fill:#a9abae;stroke:#373435;stroke-width:67.60240173;stroke-linejoin:round" /><path
             id="path331"
             d="m 6346,4161 -1406,-1 c -146,0 -119,194 -119,194 0,148 119,144 119,144 l 1406,1 c 0,0 -109,-7 -109,-165 0,0 25,-173 110,-173 z"
             class="fil5 str5"
             inkscape:connector-curvature="0"
             style="fill:#00aba0;stroke:#373435;stroke-width:74.9016037;stroke-linejoin:round" /><path
             id="path333"
             d="m 3907,1981 -895,-1 c -146,0 -119,194 -119,194 0,148 119,145 119,145 l 895,1 c 0,0 -67,-7 -67,-166 0,0 -25,-131 67,-173 z"
             class="fil5 str5"
             inkscape:connector-curvature="0"
             style="fill:#00aba0;stroke:#373435;stroke-width:74.9016037;stroke-linejoin:round" /><g
             id="g357"><line
               id="line335"
               y2="5828"
               x2="5382"
               y1="5828"
               x1="4786"
               class="fil0 str0"
               style="fill:none;stroke:#bebfc1;stroke-width:86.02359772;stroke-linecap:round;stroke-linejoin:round" /><line
               id="line337"
               y2="5242"
               x2="5133"
               y1="5653"
               x1="4712"
               class="fil0 str0"
               style="fill:none;stroke:#bebfc1;stroke-width:86.02359772;stroke-linecap:round;stroke-linejoin:round" /><line
               id="line339"
               y2="5000"
               x2="4533"
               y1="5581"
               x1="4533"
               class="fil0 str0"
               style="fill:none;stroke:#bebfc1;stroke-width:86.02359772;stroke-linecap:round;stroke-linejoin:round" /><line
               id="line341"
               y2="5242"
               x2="3932"
               y1="5653"
               x1="4353"
               class="fil0 str0"
               style="fill:none;stroke:#bebfc1;stroke-width:86.02359772;stroke-linecap:round;stroke-linejoin:round" /><line
               id="line343"
               y2="5828"
               x2="3683"
               y1="5828"
               x1="4279"
               class="fil0 str0"
               style="fill:none;stroke:#bebfc1;stroke-width:86.02359772;stroke-linecap:round;stroke-linejoin:round" /><line
               id="line345"
               y2="6414"
               x2="3932"
               y1="6003"
               x1="4354"
               class="fil0 str0"
               style="fill:none;stroke:#bebfc1;stroke-width:86.02359772;stroke-linecap:round;stroke-linejoin:round" /><line
               id="line347"
               y2="6656"
               x2="4533"
               y1="6075"
               x1="4533"
               class="fil0 str0"
               style="fill:none;stroke:#bebfc1;stroke-width:86.02359772;stroke-linecap:round;stroke-linejoin:round" /><line
               id="line349"
               y2="6414"
               x2="5133"
               y1="6003"
               x1="4712"
               class="fil0 str0"
               style="fill:none;stroke:#bebfc1;stroke-width:86.02359772;stroke-linecap:round;stroke-linejoin:round" /><path
               id="path351"
               d="m 4533,4724 c -610,0 -1104,494 -1104,1104 0,610 494,1104 1104,1104 610,0 1104,-494 1104,-1104 0,-610 -494,-1104 -1104,-1104 z m 0,1954 v 0 c -469,0 -849,-380 -849,-849 0,-469 380,-849 849,-849 469,0 849,380 849,849 0,469 -380,849 -849,849 z"
               class="fil1 str1"
               inkscape:connector-curvature="0"
               style="fill:#737476;stroke:#373435;stroke-width:56.62599945;stroke-linejoin:round" /><path
               id="path353"
               d="m 4801,5828 c 0,148 -120,269 -269,269 -148,0 -268,-120 -268,-269 0,-148 120,-269 268,-269 148,0 269,120 269,269 z"
               class="fil2 str2"
               inkscape:connector-curvature="0"
               style="fill:#d2d3d5;stroke:#373435;stroke-width:84.94090271;stroke-linejoin:round" /><path
               id="path355"
               d="m 4667,5828 c 0,74 -60,134 -134,134 -74,0 -134,-60 -134,-134 0,-74 60,-134 134,-134 74,0 134,60 134,134 z"
               class="fil1 str2"
               inkscape:connector-curvature="0"
               style="fill:#737476;stroke:#373435;stroke-width:84.94090271;stroke-linejoin:round" /></g><g
             id="g363"><path
               id="path359"
               d="m 6192,6211 c -199,0 -361,161 -361,361 0,199 161,361 361,361 199,0 361,-161 361,-361 0,-199 -161,-361 -361,-361 z"
               class="fil1 str3"
               inkscape:connector-curvature="0"
               style="fill:#737476;stroke:#373435;stroke-width:67.60240173;stroke-linejoin:round" /><path
               id="path361"
               d="m 6192,6787 c -119,0 -216,-96 -216,-215 0,-119 96,-215 216,-215 119,0 215,96 215,215 0,119 -96,215 -215,215 z"
               class="fil2 str6"
               inkscape:connector-curvature="0"
               style="fill:#d2d3d5;stroke:#373435;stroke-width:52.51179886;stroke-linejoin:round" /></g></g></g></g></g></svg>