<?xml version="1.0" encoding="UTF-8" standalone="no"?>
<!-- Generator: Adobe Illustrator 13.0.2, SVG Export Plug-In . SVG Version: 6.00 Build 14948)  -->

<svg
     xmlns:dc="http://purl.org/dc/elements/1.1/"
     xmlns:cc="http://creativecommons.org/ns#"
     xmlns:rdf="http://www.w3.org/1999/02/22-rdf-syntax-ns#"
     xmlns:svg="http://www.w3.org/2000/svg"
     xmlns="http://www.w3.org/2000/svg"
     xmlns:sodipodi="http://sodipodi.sourceforge.net/DTD/sodipodi-0.dtd"
     xmlns:inkscape="http://www.inkscape.org/namespaces/inkscape"
     version="1.1"
     id="Layer_1"
     x="0px"
     y="0px"
     width="671.6875"
     height="215.625"
     viewBox="0.995 1.495 671.6875 215.625"
     enable-background="new 0.995 1.495 88 31"
     xml:space="preserve"
     inkscape:version="0.48.3.1 r9886"
     sodipodi:docname="public-domain-logo-slightly-nicer.svg"><metadata
     id="metadata47"><rdf:RDF><cc:Work
             rdf:about=""><dc:format>image/svg+xml</dc:format><dc:type
                 rdf:resource="http://purl.org/dc/dcmitype/StillImage" /><dc:title /></cc:Work></rdf:RDF></metadata><defs
     id="defs45" /><sodipodi:namedview
     pagecolor="#ffffff"
     bordercolor="#666666"
     borderopacity="1"
     objecttolerance="10"
     gridtolerance="10"
     guidetolerance="10"
     inkscape:pageopacity="0"
     inkscape:pageshadow="2"
     inkscape:window-width="1920"
     inkscape:window-height="1124"
     id="namedview43"
     showgrid="false"
     showborder="false"
     inkscape:zoom="0.3"
     inkscape:cx="450.19344"
     inkscape:cy="-104.995"
     inkscape:window-x="0"
     inkscape:window-y="24"
     inkscape:window-maximized="1"
     inkscape:current-layer="Layer_1"
     fit-margin-top="0"
     fit-margin-left="0"
     fit-margin-right="0"
     fit-margin-bottom="0" />

<g
     id="g4285"
     transform="translate(-224.16125,380.12)"><rect
         rx="16.99222"
         ry="13.211702"
         y="-376.14111"
         x="227.64133"
         height="210.64972"
         width="666.70734"
         id="rect3914-6"
         style="fill:#ffffff;fill-opacity:1;fill-rule:evenodd;stroke:#000000;stroke-width:4.98353004;stroke-linecap:round;stroke-linejoin:round;stroke-miterlimit:4;stroke-opacity:1;stroke-dasharray:none;stroke-dashoffset:0" /><path
         d="m 411.62028,-355.33809 c 25.34988,19.69432 41.86663,51.24169 41.8739,86.92244 -0.008,32.45916 -13.67903,61.50675 -35.23086,81.32264 H 875.58786 V -355.33809 H 411.62028 z"
         id="path11-9-3-7"
         inkscape:connector-curvature="0" /><g
         transform="matrix(8.4847489,0,0,8.4847489,226.81243,-409.82211)"
         id="g15-9-3-0"><path
             d="m 36.739,8.557 c 0.392,0 0.728,0.059 1.002,0.173 0.276,0.116 0.5,0.268 0.674,0.456 0.173,0.189 0.299,0.405 0.379,0.647 0.079,0.241 0.118,0.493 0.118,0.753 0,0.253 -0.039,0.503 -0.118,0.749 -0.08,0.244 -0.206,0.462 -0.379,0.65 -0.174,0.188 -0.397,0.341 -0.674,0.456 -0.274,0.115 -0.61,0.173 -1.002,0.173 h -1.452 v 2.267 H 33.905 V 8.557 h 2.834 z m -0.379,2.976 c 0.158,0 0.312,-0.012 0.457,-0.035 0.147,-0.023 0.276,-0.069 0.388,-0.137 0.111,-0.068 0.201,-0.164 0.269,-0.288 0.068,-0.124 0.101,-0.287 0.101,-0.487 0,-0.201 -0.033,-0.363 -0.101,-0.488 C 37.407,9.975 37.317,9.878 37.205,9.812 37.094,9.743 36.965,9.698 36.817,9.674 36.671,9.65 36.518,9.638 36.36,9.638 h -1.073 v 1.896 l 1.073,-0.001 0,0 z"
             id="path17-8-7-0"
             inkscape:connector-curvature="0"
             style="fill:#ffffff" /><path
             d="m 44.751,14.398 c -0.476,0.417 -1.133,0.625 -1.972,0.625 -0.851,0 -1.509,-0.207 -1.976,-0.62 C 40.337,13.99 40.104,13.351 40.104,12.49 V 8.557 h 1.381 v 3.934 c 0,0.171 0.016,0.339 0.045,0.506 0.029,0.165 0.091,0.311 0.185,0.438 0.094,0.125 0.225,0.229 0.392,0.309 0.167,0.08 0.392,0.119 0.673,0.119 0.493,0 0.833,-0.109 1.021,-0.332 0.188,-0.221 0.282,-0.568 0.282,-1.04 V 8.557 h 1.382 v 3.934 c -0.001,0.855 -0.239,1.491 -0.714,1.907 z"
             id="path19-2-5-5"
             inkscape:connector-curvature="0"
             style="fill:#ffffff" /><path
             d="m 50.069,8.557 c 0.301,0 0.572,0.027 0.817,0.081 0.246,0.053 0.459,0.14 0.636,0.26 0.176,0.121 0.312,0.282 0.407,0.483 0.099,0.201 0.146,0.45 0.146,0.745 0,0.318 -0.071,0.584 -0.217,0.796 -0.144,0.212 -0.355,0.388 -0.637,0.522 0.387,0.112 0.676,0.309 0.865,0.589 0.191,0.281 0.286,0.619 0.286,1.015 0,0.319 -0.062,0.595 -0.185,0.829 -0.123,0.232 -0.289,0.422 -0.498,0.57 -0.207,0.148 -0.445,0.257 -0.713,0.328 -0.269,0.07 -0.541,0.105 -0.822,0.105 H 47.11 V 8.557 h 2.959 z m -0.173,2.56 c 0.246,0 0.447,-0.059 0.606,-0.178 0.157,-0.118 0.237,-0.309 0.237,-0.576 0,-0.147 -0.026,-0.269 -0.08,-0.362 C 50.606,9.906 50.537,9.833 50.448,9.779 50.36,9.726 50.26,9.689 50.145,9.67 50.03,9.648 49.912,9.638 49.789,9.638 h -1.294 v 1.479 h 1.401 z m 0.078,2.685 c 0.135,0 0.264,-0.014 0.387,-0.04 0.125,-0.026 0.231,-0.072 0.326,-0.133 0.094,-0.062 0.168,-0.147 0.227,-0.254 0.056,-0.104 0.083,-0.241 0.083,-0.406 0,-0.325 -0.093,-0.557 -0.271,-0.696 -0.184,-0.138 -0.425,-0.208 -0.724,-0.208 h -1.505 v 1.737 h 1.477 z"
             id="path21-0-4-6"
             inkscape:connector-curvature="0"
             style="fill:#ffffff" /><path
             d="m 55.142,8.557 v 5.155 h 3.062 v 1.169 H 53.76 V 8.557 h 1.382 z"
             id="path23-9-1-0"
             inkscape:connector-curvature="0"
             style="fill:#ffffff" /><path
             d="m 60.748,8.557 v 6.324 H 59.366 V 8.557 h 1.382 z"
             id="path25-4-8-8"
             inkscape:connector-curvature="0"
             style="fill:#ffffff" /><path
             d="M 66.45,10.244 C 66.368,10.112 66.266,9.996 66.143,9.895 66.018,9.794 65.878,9.716 65.722,9.66 65.569,9.603 65.407,9.575 65.235,9.575 c -0.312,0 -0.574,0.062 -0.791,0.183 -0.217,0.12 -0.396,0.283 -0.527,0.486 -0.137,0.204 -0.232,0.436 -0.296,0.695 -0.062,0.26 -0.093,0.529 -0.093,0.806 0,0.267 0.031,0.525 0.093,0.776 0.062,0.251 0.159,0.477 0.296,0.677 0.134,0.201 0.311,0.361 0.527,0.483 0.217,0.12 0.479,0.181 0.791,0.181 0.424,0 0.754,-0.129 0.99,-0.389 0.236,-0.26 0.383,-0.602 0.437,-1.028 h 1.337 c -0.034,0.396 -0.126,0.753 -0.271,1.072 -0.146,0.318 -0.34,0.591 -0.58,0.815 -0.24,0.224 -0.521,0.395 -0.846,0.513 -0.322,0.119 -0.678,0.178 -1.064,0.178 -0.48,0 -0.914,-0.084 -1.299,-0.252 -0.383,-0.17 -0.709,-0.399 -0.972,-0.696 -0.265,-0.295 -0.468,-0.641 -0.606,-1.04 -0.143,-0.399 -0.213,-0.829 -0.213,-1.29 0,-0.472 0.07,-0.91 0.213,-1.314 0.141,-0.404 0.344,-0.757 0.606,-1.058 0.263,-0.302 0.589,-0.537 0.972,-0.709 0.385,-0.172 0.816,-0.258 1.299,-0.258 0.347,0 0.675,0.051 0.98,0.15 0.309,0.102 0.583,0.248 0.827,0.439 0.243,0.191 0.444,0.43 0.603,0.713 0.16,0.283 0.258,0.608 0.301,0.974 H 66.61 c -0.024,-0.159 -0.078,-0.305 -0.16,-0.438 z"
             id="path27-9-0-7"
             inkscape:connector-curvature="0"
             style="fill:#ffffff" /><path
             d="m 36.615,17.415 c 0.405,0 0.782,0.064 1.131,0.193 0.35,0.131 0.651,0.326 0.906,0.586 0.255,0.26 0.455,0.584 0.599,0.975 0.144,0.389 0.216,0.848 0.216,1.372 0,0.462 -0.059,0.888 -0.176,1.274 -0.118,0.391 -0.295,0.728 -0.532,1.012 -0.238,0.283 -0.534,0.506 -0.89,0.668 -0.354,0.162 -0.772,0.244 -1.254,0.244 h -2.71 v -6.324 h 2.71 z m -0.096,5.154 c 0.199,0 0.393,-0.031 0.581,-0.097 0.188,-0.066 0.354,-0.174 0.502,-0.323 0.146,-0.151 0.264,-0.349 0.352,-0.59 0.088,-0.242 0.132,-0.537 0.132,-0.887 0,-0.316 -0.031,-0.605 -0.093,-0.863 -0.062,-0.257 -0.162,-0.478 -0.304,-0.658 -0.141,-0.186 -0.326,-0.324 -0.559,-0.422 -0.231,-0.099 -0.517,-0.146 -0.858,-0.146 h -0.984 v 3.984 h 1.231 v 0.002 z"
             id="path29-7-0-4"
             inkscape:connector-curvature="0"
             style="fill:#ffffff" /><path
             d="m 40.8,19.289 c 0.141,-0.405 0.344,-0.759 0.606,-1.06 0.265,-0.304 0.589,-0.537 0.973,-0.709 0.385,-0.172 0.816,-0.258 1.298,-0.258 0.487,0 0.921,0.086 1.303,0.258 0.383,0.172 0.705,0.405 0.969,0.709 0.265,0.301 0.467,0.652 0.605,1.06 0.143,0.403 0.213,0.843 0.213,1.313 0,0.461 -0.07,0.892 -0.213,1.288 -0.141,0.397 -0.343,0.746 -0.605,1.041 -0.264,0.296 -0.586,0.526 -0.969,0.694 -0.382,0.168 -0.814,0.253 -1.303,0.253 -0.481,0 -0.913,-0.085 -1.298,-0.253 -0.384,-0.168 -0.708,-0.398 -0.973,-0.694 -0.263,-0.295 -0.466,-0.644 -0.606,-1.041 -0.141,-0.396 -0.211,-0.827 -0.211,-1.288 0,-0.47 0.07,-0.91 0.211,-1.313 z m 1.262,2.089 c 0.062,0.252 0.16,0.479 0.295,0.68 0.135,0.199 0.312,0.36 0.527,0.48 0.218,0.121 0.481,0.184 0.792,0.184 0.312,0 0.576,-0.062 0.792,-0.184 0.219,-0.12 0.395,-0.281 0.529,-0.48 0.134,-0.201 0.232,-0.428 0.295,-0.68 0.062,-0.25 0.092,-0.509 0.092,-0.773 0,-0.276 -0.029,-0.547 -0.092,-0.807 -0.062,-0.261 -0.161,-0.49 -0.295,-0.695 -0.137,-0.203 -0.312,-0.365 -0.529,-0.486 -0.216,-0.12 -0.48,-0.182 -0.792,-0.182 -0.311,0 -0.574,0.062 -0.792,0.182 -0.216,0.121 -0.393,0.283 -0.527,0.486 -0.135,0.205 -0.233,0.437 -0.295,0.695 -0.062,0.258 -0.093,0.527 -0.093,0.807 10e-4,0.264 0.032,0.523 0.093,0.773 z"
             id="path31-9-8-2"
             inkscape:connector-curvature="0"
             style="fill:#ffffff" /><path
             d="m 50.092,17.415 1.47,4.35 h 0.021 l 1.391,-4.35 h 1.944 v 6.324 h -1.294 v -4.482 h -0.019 l -1.541,4.482 h -1.062 l -1.54,-4.438 h -0.019 v 4.438 h -1.295 v -6.324 h 1.944 z"
             id="path33-4-9-1"
             inkscape:connector-curvature="0"
             style="fill:#ffffff" /><path
             d="m 59.765,17.415 2.35,6.324 h -1.436 l -0.475,-1.408 h -2.35 l -0.494,1.408 h -1.392 l 2.377,-6.324 h 1.42 z m 0.079,3.88 -0.793,-2.321 h -0.019 l -0.816,2.321 h 1.628 l 0,0 z"
             id="path35-8-7-3"
             inkscape:connector-curvature="0"
             style="fill:#ffffff" /><path
             d="m 64.547,17.415 v 6.324 h -1.382 v -6.324 h 1.382 z"
             id="path37-6-1-3"
             inkscape:connector-curvature="0"
             style="fill:#ffffff" /><path
             d="m 67.603,17.415 2.623,4.242 h 0.018 v -4.242 h 1.295 v 6.324 h -1.383 l -2.613,-4.234 h -0.018 v 4.234 H 66.23 v -6.324 h 1.373 z"
             id="path39-3-0-1"
             inkscape:connector-curvature="0"
             style="fill:#ffffff" /></g><path
         style="fill:none;stroke:#000000;stroke-width:10.2669363;stroke-miterlimit:4;stroke-opacity:1;stroke-dasharray:none"
         inkscape:connector-curvature="0"
         id="path3912-1-5"
         d="m 336.07998,-360.91026 c -51.67015,0 -93.56184,40.44388 -93.56184,90.33639 0,49.88487 41.89169,90.3364 93.5698,90.3364 51.67015,0 93.56184,-40.45153 93.56184,-90.3364 -0.008,-49.89251 -41.89967,-90.33639 -93.5698,-90.33639 z" /><path
         style="fill:#000000;fill-opacity:1"
         inkscape:connector-curvature="0"
         id="path27-9-4-1-6"
         d="m 359.70685,-299.69801 c -1.46951,-2.36554 -3.29741,-4.44435 -5.50159,-6.25429 -2.24007,-1.80995 -4.74892,-3.20774 -7.54448,-4.21131 -2.74184,-1.02148 -5.64499,-1.52321 -8.72733,-1.52321 -5.5912,0 -10.28634,1.11102 -14.17512,3.27944 -3.88873,2.15047 -7.09648,5.07152 -9.44404,8.70937 -2.45516,3.65576 -4.15757,7.81328 -5.30452,12.45474 -1.11109,4.6593 -1.66658,9.47989 -1.66658,14.44389 0,4.78475 0.55549,9.40823 1.66658,13.90627 1.11109,4.49805 2.84936,8.54807 5.30452,12.13223 2.40133,3.60197 5.57325,6.46926 9.44404,8.65558 3.88878,2.15047 8.58392,3.24358 14.17512,3.24358 7.5983,0 13.51211,-2.31174 17.74129,-6.97109 4.22926,-4.6593 6.86352,-10.78813 7.83128,-18.42225 h 23.95967 c -0.60926,7.09652 -2.25795,13.49418 -4.85644,19.21079 -2.61643,5.69869 -6.09296,10.59102 -10.39386,14.60516 -4.30092,4.01422 -9.33657,7.07863 -15.16075,9.19326 -5.77038,2.13252 -12.15012,3.18981 -19.06739,3.18981 -8.60187,0 -16.37938,-1.50529 -23.27879,-4.51593 -6.8635,-3.04647 -12.70559,-7.15029 -17.41868,-12.47266 -4.74895,-5.28656 -8.3868,-11.48705 -10.85983,-18.63733 -2.56262,-7.15029 -3.81704,-14.8561 -3.81704,-23.11742 0,-8.45847 1.25442,-16.30767 3.81704,-23.54749 2.52677,-7.23992 6.16468,-13.56586 10.85983,-18.9599 4.71309,-5.41198 10.55518,-9.62329 17.41868,-12.70567 6.89941,-3.08229 14.62314,-4.62348 23.27879,-4.62348 6.21837,0 12.09632,0.91395 17.56205,2.6881 5.53742,1.82791 10.44764,4.44426 14.8202,7.8671 4.35474,3.42278 7.95677,7.70581 10.80613,12.77728 2.86724,5.07152 4.62348,10.89566 5.39404,17.45461 h -23.99555 c -0.42988,-2.84934 -1.39779,-5.46578 -2.86727,-7.84918 z" /><path
         inkscape:connector-curvature="0"
         id="path4039-5-1"
         d="m 250.50679,-308.07167 174.91925,51.63135"
         style="fill:none;stroke:#000000;stroke-width:10.2669363;stroke-linecap:round;stroke-linejoin:round;stroke-miterlimit:4;stroke-opacity:1;stroke-dasharray:none" /></g></svg>