<?xml version="1.0" encoding="UTF-8" standalone="no"?>
<!-- Created with Inkscape (http://www.inkscape.org/) -->

<svg
   xmlns:dc="http://purl.org/dc/elements/1.1/"
   xmlns:cc="http://creativecommons.org/ns#"
   xmlns:rdf="http://www.w3.org/1999/02/22-rdf-syntax-ns#"
   xmlns:svg="http://www.w3.org/2000/svg"
   xmlns="http://www.w3.org/2000/svg"
   xmlns:xlink="http://www.w3.org/1999/xlink"
   xmlns:sodipodi="http://sodipodi.sourceforge.net/DTD/sodipodi-0.dtd"
   xmlns:inkscape="http://www.inkscape.org/namespaces/inkscape"
   id="svg2"
   version="1.1"
   inkscape:version="0.92.2 (5c3e80d, 2017-08-06)"
   xml:space="preserve"
   width="810"
   height="658.6145"
   viewBox="0 0 810 658.6145"
   sodipodi:docname="publicdomainq-octopus_animal.svg"
   inkscape:export-filename="/media/juhele/data_2TB/_GRAFIKA/Publicdomainq/publicdomainq-octopus_animal.png"
   inkscape:export-xdpi="96.05706"
   inkscape:export-ydpi="96.05706"><title
     id="title1778">Octopus</title><metadata
     id="metadata8"><rdf:RDF><cc:Work
         rdf:about=""><dc:format>image/svg+xml</dc:format><dc:type
           rdf:resource="http://purl.org/dc/dcmitype/StillImage" /><dc:title>Octopus</dc:title><cc:license
           rdf:resource="http://creativecommons.org/publicdomain/zero/1.0/" /><dc:subject><rdf:Bag><rdf:li>animal</rdf:li><rdf:li>octopus</rdf:li><rdf:li>sea</rdf:li><rdf:li>water</rdf:li><rdf:li>underwater</rdf:li><rdf:li>tentacle</rdf:li><rdf:li>publicdomainq.net</rdf:li></rdf:Bag></dc:subject><dc:description>This image was adapted from a picture posted to publicdomainq.net. All of the images on these sites are in the public domain i.e. CC0. This site is only in Japanese but can be easily navigated with Google Translate.</dc:description></cc:Work><cc:License
         rdf:about="http://creativecommons.org/publicdomain/zero/1.0/"><cc:permits
           rdf:resource="http://creativecommons.org/ns#Reproduction" /><cc:permits
           rdf:resource="http://creativecommons.org/ns#Distribution" /><cc:permits
           rdf:resource="http://creativecommons.org/ns#DerivativeWorks" /></cc:License></rdf:RDF></metadata><defs
     id="defs6"><style
       id="style7911"
       type="text/css"><![CDATA[
    .str8 {stroke:#40201D;stroke-width:3.21654}
    .str7 {stroke:#40201D;stroke-width:4.2874}
    .str3 {stroke:#332C2B;stroke-width:10.7165}
    .str0 {stroke:#40201D;stroke-width:10.7165}
    .str1 {stroke:#72332C;stroke-width:10.7165}
    .str6 {stroke:#B2B4A9;stroke-width:10.7165}
    .str2 {stroke:#C4A494;stroke-width:10.7165}
    .str5 {stroke:#EDEFDF;stroke-width:10.7165}
    .str4 {stroke:#863A32;stroke-width:21.4331}
    .fil0 {fill:none;fill-rule:nonzero}
    .fil12 {fill:#332C2B;fill-rule:nonzero}
    .fil11 {fill:#40201D;fill-rule:nonzero}
    .fil13 {fill:#6B3029;fill-rule:nonzero}
    .fil8 {fill:#72332C;fill-rule:nonzero}
    .fil9 {fill:#863A32;fill-rule:nonzero}
    .fil2 {fill:#9A4239;fill-rule:nonzero}
    .fil6 {fill:#C9CBBF;fill-rule:nonzero}
    .fil4 {fill:#CED0C3;fill-rule:nonzero}
    .fil7 {fill:#D5D7BA;fill-rule:nonzero}
    .fil5 {fill:#E1E3D5;fill-rule:nonzero}
    .fil3 {fill:#EDEFDF;fill-rule:nonzero}
    .fil10 {fill:#FBDFBD;fill-rule:nonzero}
    .fil1 {fill:#FEFEFE;fill-rule:nonzero}
   ]]></style><linearGradient
       id="id3"
       gradientUnits="userSpaceOnUse"
       xlink:href="#id0"
       x1="3132.8501"
       y1="5542.2202"
       x2="3699.52"
       y2="4977.52" /><linearGradient
       id="id0"
       gradientUnits="userSpaceOnUse"
       x1="3151.3701"
       y1="7184.2002"
       x2="5087.1602"
       y2="5248.4302"><stop
         offset="0"
         style="stop-color:#FEFEFE"
         id="stop4" /><stop
         offset="1"
         style="stop-color:#CF8975"
         id="stop6" /></linearGradient><linearGradient
       id="id4"
       gradientUnits="userSpaceOnUse"
       xlink:href="#id0"
       x1="3993.1599"
       y1="5149.8999"
       x2="4326.4399"
       y2="5149.8999" /><linearGradient
       id="id2"
       gradientUnits="userSpaceOnUse"
       xlink:href="#id0"
       x1="4552.2598"
       y1="5742.71"
       x2="4859.48"
       y2="5436.5601" /><linearGradient
       id="id1"
       gradientUnits="userSpaceOnUse"
       xlink:href="#id0"
       x1="4046.0801"
       y1="5772.8101"
       x2="5167.79"
       y2="4651.1201" /><style
       id="style724"
       type="text/css"><![CDATA[
    .str2 {stroke:black;stroke-width:27.7795;stroke-linejoin:round}
    .str0 {stroke:#373435;stroke-width:27.7795;stroke-linejoin:round}
    .str1 {stroke:#373435;stroke-width:27.7795;stroke-linecap:round;stroke-linejoin:round}
    .fil2 {fill:none;fill-rule:nonzero}
    .fil8 {fill:black;fill-rule:nonzero}
    .fil0 {fill:white;fill-rule:nonzero}
    .fil10 {fill:#DBA390;fill-rule:nonzero}
    .fil9 {fill:#E1B09F;fill-rule:nonzero}
    .fil5 {fill:#FEFEFE;fill-rule:nonzero}
    .fil6 {fill:url(#id0);fill-rule:nonzero}
    .fil7 {fill:url(#id1);fill-rule:nonzero}
    .fil4 {fill:url(#id2);fill-rule:nonzero}
    .fil1 {fill:url(#id3);fill-rule:nonzero}
    .fil3 {fill:url(#id4);fill-rule:nonzero}
   ]]></style><linearGradient
       inkscape:collect="always"
       xlink:href="#id0"
       id="linearGradient881"
       gradientUnits="userSpaceOnUse"
       x1="4127.0542"
       y1="5497.4785"
       x2="3999.8784"
       y2="7027.6187" /></defs><sodipodi:namedview
     pagecolor="#ffffff"
     bordercolor="#666666"
     borderopacity="1"
     objecttolerance="10"
     gridtolerance="10"
     guidetolerance="10"
     inkscape:pageopacity="0"
     inkscape:pageshadow="2"
     inkscape:window-width="1920"
     inkscape:window-height="1140"
     id="namedview4"
     showgrid="false"
     inkscape:zoom="0.85973989"
     inkscape:cx="235.67518"
     inkscape:cy="338.06381"
     inkscape:window-x="0"
     inkscape:window-y="0"
     inkscape:window-maximized="1"
     inkscape:current-layer="g1731"
     fit-margin-top="5"
     fit-margin-left="5"
     fit-margin-bottom="5"
     fit-margin-right="5" /><g
     transform="matrix(2.9750633,0,0,-2.9750633,-1519.5788,1429.8415)"
     id="g16"
     style="stroke:#000000;stroke-width:0.33612731;stroke-miterlimit:4;stroke-dasharray:none;stroke-opacity:1"><g
       style="clip-rule:evenodd;fill-rule:evenodd;stroke:#000000;stroke-width:1.74801898;stroke-miterlimit:4;stroke-dasharray:none;stroke-opacity:1;image-rendering:optimizeQuality;shape-rendering:geometricPrecision;text-rendering:geometricPrecision"
       id="g8067"
       transform="matrix(0.09614521,0,0,-0.09614521,-544.14025,896.46672)"><g
         style="clip-rule:evenodd;fill-rule:evenodd;image-rendering:optimizeQuality;shape-rendering:geometricPrecision;text-rendering:geometricPrecision"
         id="g879"
         transform="matrix(0.90179181,0,0,0.90179181,8663.3002,207.97945)"><g
           id="ãƒ_x00ac_ã_x201a__x00a4_ãƒ_x00a4_ãƒ_x00bc__x0020_1"><metadata
             id="CorelCorpID_0Corel-Layer" /><g
             id="_401192280"><g
               id="g1731"><g
                 id="g1776"><path
                   id="path738"
                   d="m 3210,5274 c -15,-3 -23,-25 -18,-49 4,-25 20,-42 35,-39 15,3 23,25 18,49 -4,24 -20,42 -35,39 z"
                   class="fil0 str0"
                   inkscape:connector-curvature="0"
                   style="fill:#ffffff;fill-rule:nonzero;stroke:#373435;stroke-width:27.77949905;stroke-linejoin:round" /><path
                   id="path740"
                   d="m 3249,5434 c -14,4 -31,-12 -38,-36 -7,-24 0,-47 14,-51 14,-4 31,12 38,36 7,24 0,46 -14,50 z"
                   class="fil0 str0"
                   inkscape:connector-curvature="0"
                   style="fill:#ffffff;fill-rule:nonzero;stroke:#373435;stroke-width:27.77949905;stroke-linejoin:round" /><path
                   id="path742"
                   d="m 3176,6864 c -8,21 -44,28 -80,14 -36,-14 -58,-43 -50,-64 8,-21 44,-28 80,-14 36,14 58,43 50,64 z"
                   class="fil0 str0"
                   inkscape:connector-curvature="0"
                   style="fill:#ffffff;fill-rule:nonzero;stroke:#373435;stroke-width:27.77949905;stroke-linejoin:round" /><path
                   id="path744"
                   d="m 2676,5807 c -13,6 -33,-7 -44,-29 -11,-22 -8,-46 5,-52 13,-6 33,7 44,29 11,22 8,46 -5,52 z"
                   class="fil0 str0"
                   inkscape:connector-curvature="0"
                   style="fill:#ffffff;fill-rule:nonzero;stroke:#373435;stroke-width:27.77949905;stroke-linejoin:round" /><path
                   id="path746"
                   d="m 2613,5618 c -15,-3 -23,-25 -18,-49 4,-24 20,-42 35,-39 15,3 23,25 18,49 -4,24 -20,42 -35,39 z"
                   class="fil0 str0"
                   inkscape:connector-curvature="0"
                   style="fill:#ffffff;fill-rule:nonzero;stroke:#373435;stroke-width:27.77949905;stroke-linejoin:round" /><path
                   id="path748"
                   d="m 2677,5421 c -10,-11 -4,-33 15,-50 18,-17 41,-22 51,-11 10,11 4,33 -15,50 -18,17 -41,22 -51,11 z"
                   class="fil0 str0"
                   inkscape:connector-curvature="0"
                   style="fill:#ffffff;fill-rule:nonzero;stroke:#373435;stroke-width:27.77949905;stroke-linejoin:round" /><path
                   id="path750"
                   d="m 3251,5136 c -11,-6 -12,-26 -2,-44 10,-18 27,-28 38,-23 11,6 12,26 2,44 -10,18 -27,28 -38,23 z"
                   class="fil0 str0"
                   inkscape:connector-curvature="0"
                   style="fill:#ffffff;fill-rule:nonzero;stroke:#373435;stroke-width:27.77949905;stroke-linejoin:round" /><path
                   id="path752"
                   d="m 2825,5310 c -2,-15 17,-29 42,-32 25,-3 46,7 48,21 2,15 -17,29 -42,32 -25,3 -46,-7 -48,-21 z"
                   class="fil0 str0"
                   inkscape:connector-curvature="0"
                   style="fill:#ffffff;fill-rule:nonzero;stroke:#373435;stroke-width:27.77949905;stroke-linejoin:round" /><path
                   id="path754"
                   d="m 3459,6851 c 1,23 -30,43 -68,44 -38,1 -70,-17 -71,-40 -1,-23 30,-42 68,-44 38,-1 70,17 71,40 z"
                   class="fil0 str0"
                   inkscape:connector-curvature="0"
                   style="fill:#ffffff;fill-rule:nonzero;stroke:#373435;stroke-width:27.77949905;stroke-linejoin:round" /><path
                   id="path756"
                   d="m 5261,6208 c -9,-16 -38,-16 -64,0 -26,15 -40,41 -31,56 9,16 38,16 64,0 26,-15 40,-41 31,-56 z"
                   class="fil0 str0"
                   inkscape:connector-curvature="0"
                   style="fill:#ffffff;fill-rule:nonzero;stroke:#373435;stroke-width:27.77949905;stroke-linejoin:round" /><path
                   id="path758"
                   d="m 5397,6081 c -9,-16 -38,-16 -64,0 -26,15 -40,41 -31,56 9,16 38,16 64,0 26,-15 40,-41 31,-56 z"
                   class="fil0 str0"
                   inkscape:connector-curvature="0"
                   style="fill:#ffffff;fill-rule:nonzero;stroke:#373435;stroke-width:27.77949905;stroke-linejoin:round" /><path
                   id="path760"
                   d="m 5567,6087 c 8,-17 -9,-40 -37,-53 -28,-13 -56,-9 -64,7 -7,17 9,40 37,53 28,13 56,9 64,-7 z"
                   class="fil0 str0"
                   inkscape:connector-curvature="0"
                   style="fill:#ffffff;fill-rule:nonzero;stroke:#373435;stroke-width:27.77949905;stroke-linejoin:round" /><path
                   id="path762"
                   d="m 3711,6725 c 11,19 -6,50 -39,69 -33,19 -68,18 -80,-2 -11,-19 6,-50 39,-69 33,-19 68,-18 80,2 z"
                   class="fil0 str0"
                   inkscape:connector-curvature="0"
                   style="fill:#ffffff;fill-rule:nonzero;stroke:#373435;stroke-width:27.77949905;stroke-linejoin:round" /><path
                   id="path764"
                   d="m 4502,6957 c -5,22 -39,32 -75,23 -37,-9 -62,-34 -57,-56 5,-22 39,-32 75,-23 37,9 62,34 57,56 z"
                   class="fil0 str0"
                   inkscape:connector-curvature="0"
                   style="fill:#ffffff;fill-rule:nonzero;stroke:#373435;stroke-width:27.77949905;stroke-linejoin:round" /><path
                   id="path766"
                   d="m 4812,6907 c 7,21 -17,48 -54,58 -36,11 -71,2 -77,-20 -7,-21 17,-48 53,-58 36,-11 71,-2 77,20 z"
                   class="fil0 str0"
                   inkscape:connector-curvature="0"
                   style="fill:#ffffff;fill-rule:nonzero;stroke:#373435;stroke-width:27.77949905;stroke-linejoin:round" /><path
                   id="path768"
                   d="m 3869,6482 c 20,11 21,46 3,79 -18,33 -49,51 -68,41 -20,-11 -21,-46 -3,-79 18,-33 49,-51 68,-41 z"
                   class="fil0 str0"
                   inkscape:connector-curvature="0"
                   style="fill:#ffffff;fill-rule:nonzero;stroke:#373435;stroke-width:27.77949905;stroke-linejoin:round" /><path
                   id="path770"
                   d="m 3733,5594 25,-117 c -142,8 -335,-23 -378,-177 -30,-109 59,-205 34,-310 -26,-110 -180,-164 -269,-100 -82,59 -47,179 96,183 -13,-26 -32,-7 -78,-84 -8,-89 118,-57 133,10 18,77 -56,144 -68,226 -27,196 82,287 149,330 116,74 257,139 345,137 44,-1 -36,-100 9,-98 z"
                   class="fil1"
                   inkscape:connector-curvature="0"
                   style="fill:url(#id3);fill-rule:nonzero" /><path
                   id="path772"
                   d="m 3759,5477 c -142,8 -335,-23 -378,-177 -30,-109 59,-205 34,-310 -26,-110 -180,-164 -269,-100 -82,59 -47,179 96,183 -13,-26 -32,-7 -78,-84 -8,-89 118,-57 133,10 18,77 -56,144 -68,226 -27,196 82,287 149,330 116,74 257,139 345,137 44,-1 -36,-100 9,-98"
                   class="fil2 str1"
                   inkscape:connector-curvature="0"
                   style="fill:none;fill-rule:nonzero;stroke:#373435;stroke-width:27.77949905;stroke-linecap:round;stroke-linejoin:round" /><path
                   id="path774"
                   d="m 3995,5553 -74,-95 c 132,-54 293,-166 264,-323 -20,-111 -142,-160 -165,-264 -25,-110 91,-226 199,-207 99,18 120,141 -8,207 1,-29 26,-20 34,-110 -31,-84 -131,-1 -116,67 17,77 113,105 159,175 109,165 50,294 8,362 -72,117 -172,236 -252,272 -40,18 -10,-105 -50,-84 z"
                   class="fil3"
                   inkscape:connector-curvature="0"
                   style="fill:url(#id4);fill-rule:nonzero" /><path
                   id="path776"
                   d="m 3922,5458 c 132,-54 293,-166 264,-323 -20,-111 -142,-160 -165,-264 -25,-110 91,-226 199,-207 99,18 120,141 -8,207 1,-29 26,-20 34,-110 -31,-84 -131,-1 -116,67 17,77 113,105 159,175 109,165 50,294 8,362 -72,117 -172,236 -252,272 -40,18 -10,-105 -50,-84"
                   class="fil2 str1"
                   inkscape:connector-curvature="0"
                   style="fill:none;fill-rule:nonzero;stroke:#373435;stroke-width:27.77949905;stroke-linecap:round;stroke-linejoin:round" /><path
                   id="path778"
                   d="m 4472,5627 84,117 c 90,2 281,25 334,-61 51,-84 21,-275 -106,-248 -6,55 -33,108 -83,139 -67,41 -178,7 -229,52 z"
                   class="fil4"
                   inkscape:connector-curvature="0"
                   style="fill:url(#id2);fill-rule:nonzero" /><path
                   id="path780"
                   d="m 4555,5745 c 90,2 281,25 334,-61 51,-84 21,-275 -106,-248 -6,55 -33,108 -83,139 -67,41 -178,7 -229,52"
                   class="fil2 str1"
                   inkscape:connector-curvature="0"
                   style="fill:none;fill-rule:nonzero;stroke:#373435;stroke-width:27.77949905;stroke-linecap:round;stroke-linejoin:round" /><path
                   id="path782"
                   d="m 5631,6013 c -88,-122 -254,-187 -379,-28 -81,102 -217,190 -261,8 l -27,-102 c 0,-177 -149,-73 -282,-88 -59,-7 -106,-22 -136,-80 -26,-49 -33,-139 39,-153 10,-50 -26,-78 -22,-125 98,-20 69,93 99,151 31,60 65,40 132,69 110,48 306,28 391,14 303,-49 432,-300 342,-580 -122,-379 -363,-498 -672,-499 -280,-1 -556,226 -781,377 -84,57 -88,35 -175,25 -254,-27 -169,417 -224,568 0,0 -50,275 -746,183 0,0 -189,-17 -130,-218 0,0 120,-227 231,0 0,0 73,140 172,125 -12,1 -90,-3 -122,-209 0,0 -64,-192 -274,-117 0,0 -251,130 -143,406 0,0 56,312 753,198 0,0 361,-25 352,168 0,0 -151,690 -614,547 0,0 -167,-37 -141,-261 0,0 59,-319 -243,-159 0,0 201,-50 168,92 0,0 -168,407 216,532 0,0 644,144 816,-667 0,0 50,-159 151,-121 31,12 51,33 57,121 0,0 -150,514 119,685 0,0 259,176 662,-39 v 0 c -11,60 -16,117 2,164 49,134 309,92 390,13 -108,52 -327,65 -291,-103 19,-88 98,-151 116,-236 4,-19 6,-40 6,-61 32,-33 104,-96 162,-39 0,0 131,141 -61,254 0,0 237,-82 112,-312 0,0 -93,-132 -252,-64 -15,-26 -34,-63 -58,-79 -102,-69 -237,-32 -325,-123 -87,-91 -122,-284 34,-278 96,3 87,117 133,187 55,83 118,122 212,104 79,-15 128,-67 193,-144 50,-59 134,-127 205,-57 48,47 31,174 -50,168 -85,-6 -67,-112 8,-111 -63,-66 -173,162 19,159 137,-2 199,-154 118,-267 z m -841,461 v 0 c 46,4 154,-16 183,28 12,18 18,38 22,60 -7,7 -13,14 -20,21 0,0 -327,276 -535,129 0,0 -190,-167 -14,-486 0,0 75,-152 104,-28 18,100 59,168 97,208 47,50 94,60 163,67 z"
                   class="fil5"
                   inkscape:connector-curvature="0"
                   style="fill:#fefefe;fill-rule:nonzero" /><path
                   id="path784"
                   d="m 3646,5611 c 0,0 -50,275 -746,183 0,0 -189,-17 -130,-218 0,0 120,-227 231,0 0,0 73,140 172,125 -12,1 -90,-3 -122,-209 0,0 -64,-192 -274,-117 0,0 -223,90 -115,365 0,0 56,312 753,198 0,0 361,-25 352,168 0,0 -179,731 -642,587 0,0 -167,-37 -141,-262 0,0 59,-319 -243,-159 0,0 239,-130 168,92 0,0 -117,375 267,500 0,0 593,176 765,-635 0,0 50,-159 151,-121 31,12 51,33 57,121 0,0 -112,486 156,657 0,0 232,173 635,-42 0,0 -10,32 -10,32 -11,60 12,76 30,124 49,134 295,100 375,21 -108,52 -340,97 -304,-70 19,-88 98,-151 116,-236 4,-19 6,-40 6,-60 32,-33 132,-137 190,-79 0,0 145,143 -47,256 0,0 196,-44 71,-273 0,0 -93,-132 -252,-64 -15,-26 -34,-63 -58,-79 -102,-69 -237,-32 -325,-123 -87,-91 -94,-324 62,-319 96,3 87,117 133,187 55,83 118,122 212,104 79,-15 100,-27 165,-103 50,-59 134,-127 205,-57 48,47 31,174 -50,168 -85,-6 -67,-112 8,-111 -63,-66 -145,122 47,119 137,-2 171,-114 90,-226 -88,-122 -254,-187 -379,-28 -81,102 -217,190 -261,8 l -27,-102 c 0,-177 -149,-73 -282,-88 -59,-7 -95,-79 -125,-137 -1,-3 -60,-20 -62,-22 l -821,-73 z m 1116,903 v 0 c 46,4 154,-16 183,28 12,18 18,38 22,60 -7,7 -13,14 -20,21 0,0 -327,276 -535,129 0,0 -190,-167 -14,-486 0,0 75,-152 104,-28 18,100 59,168 97,208 47,50 94,60 163,67 z"
                   class="fil6"
                   inkscape:connector-curvature="0"
                   style="fill:url(#linearGradient881);fill-rule:nonzero;stroke:none" /><path
                   id="path786"
                   d="m 4542,5714 c -22,-50 -26,-132 43,-145 10,-50 -26,-78 -22,-125 98,-20 69,93 99,151 31,60 65,40 132,69 110,48 306,28 391,14 303,-49 396,-238 306,-517 -122,-379 -396,-449 -706,-450 -280,-1 -497,189 -722,340 -84,57 -88,35 -175,25 -254,-27 -169,417 -224,568 l 879,70 z"
                   class="fil7"
                   inkscape:connector-curvature="0"
                   style="fill:url(#id1);fill-rule:nonzero;stroke:none" /><path
                   id="path788"
                   d="m 5631,6013 c -88,-122 -254,-187 -379,-28 -81,102 -217,190 -261,8"
                   class="fil2 str1"
                   inkscape:connector-curvature="0"
                   style="fill:none;fill-rule:nonzero;stroke:#373435;stroke-width:27.77949905;stroke-linecap:round;stroke-linejoin:round" /><line
                   id="line790"
                   y2="5890"
                   x2="4964"
                   y1="5992"
                   x1="4991"
                   class="fil2 str1"
                   style="fill:none;fill-rule:nonzero;stroke:#373435;stroke-width:27.77949905;stroke-linecap:round;stroke-linejoin:round" /><path
                   id="path792"
                   d="m 4964,5890 c 0,-177 -149,-73 -282,-88 -59,-7 -106,-22 -136,-80 -26,-49 -33,-139 39,-153 10,-50 -26,-78 -22,-125 98,-20 69,93 99,151 31,60 65,40 132,69 110,48 306,28 391,14 303,-49 432,-300 342,-580 -122,-379 -363,-498 -672,-499 -280,-1 -556,226 -781,377 -84,57 -88,35 -175,25 -254,-27 -169,417 -224,568 0,0 -50,275 -746,183 0,0 -189,-17 -130,-218 0,0 120,-227 231,0 0,0 73,140 172,125 -12,1 -90,-3 -122,-209 0,0 -64,-192 -274,-117 0,0 -251,130 -143,406 0,0 56,312 753,198 0,0 361,-25 352,168 0,0 -151,690 -614,547 0,0 -167,-37 -141,-261 0,0 59,-319 -243,-159 0,0 201,-50 168,92 0,0 -168,407 216,532 0,0 644,144 816,-667 0,0 50,-159 151,-121 31,12 51,33 57,121 0,0 -150,514 119,685 0,0 259,176 662,-39"
                   class="fil2 str1"
                   inkscape:connector-curvature="0"
                   style="fill:none;fill-rule:nonzero;stroke:#373435;stroke-width:27.77949905;stroke-linecap:round;stroke-linejoin:round" /><line
                   id="line794"
                   y2="6835"
                   x2="4958"
                   y1="6835"
                   x1="4958"
                   class="fil2 str1"
                   style="fill:none;fill-rule:nonzero;stroke:#373435;stroke-width:27.77949905;stroke-linecap:round;stroke-linejoin:round" /><path
                   id="path796"
                   d="m 4958,6835 c -11,60 -16,117 2,164 49,134 309,92 390,13 -108,52 -327,65 -291,-103 19,-88 98,-151 116,-236 4,-19 6,-40 6,-61 32,-33 104,-96 162,-39 0,0 131,141 -61,254 0,0 237,-82 112,-312 0,0 -93,-132 -252,-64 -15,-26 -34,-63 -58,-79 -102,-69 -237,-32 -325,-123 -87,-91 -122,-284 34,-278 96,3 87,117 133,187 55,83 118,122 212,104 79,-15 128,-67 193,-144 50,-59 134,-127 205,-57 48,47 31,174 -50,168 -85,-6 -67,-112 8,-111 -63,-66 -173,162 19,159 137,-2 199,-154 118,-267"
                   class="fil2 str1"
                   inkscape:connector-curvature="0"
                   style="fill:none;fill-rule:nonzero;stroke:#373435;stroke-width:27.77949905;stroke-linecap:round;stroke-linejoin:round" /><path
                   id="path798"
                   d="m 4790,6474 c 46,4 154,-16 183,28 12,18 18,38 22,60 -7,7 -13,14 -20,21 0,0 -327,276 -535,129 0,0 -190,-167 -14,-486 0,0 75,-152 104,-28 18,100 59,168 97,208 47,50 94,60 163,67"
                   class="fil2 str1"
                   inkscape:connector-curvature="0"
                   style="fill:none;fill-rule:nonzero;stroke:#373435;stroke-width:27.77949905;stroke-linecap:round;stroke-linejoin:round" /><path
                   id="path800"
                   d="m 4279,5273 c -24,46 -43,87 -40,163 0,109 41,197 92,197 51,0 92,-88 92,-197 0,-109 -41,-197 -92,-197 -19,0 -37,12 -51,34 z"
                   class="fil0 str2"
                   inkscape:connector-curvature="0"
                   style="fill:#ffffff;fill-rule:nonzero;stroke:#000000;stroke-width:27.77949905;stroke-linejoin:round" /><path
                   id="path802"
                   d="m 4344,5443 c 0,69 -26,126 -57,126 -32,0 -57,-56 -57,-126 0,-69 25,-126 57,-126 31,0 57,56 57,126 z"
                   class="fil8"
                   inkscape:connector-curvature="0"
                   style="fill:#000000;fill-rule:nonzero" /><polygon
                   id="polygon804"
                   points="4370,5409 4287,5438 4387,5459 "
                   class="fil0"
                   style="fill:#ffffff;fill-rule:nonzero;stroke:none" /><path
                   id="path806"
                   d="m 4131,5240 c 0,0 38,-169 186,-122"
                   class="fil2 str1"
                   inkscape:connector-curvature="0"
                   style="fill:none;fill-rule:nonzero;stroke:#373435;stroke-width:27.77949905;stroke-linecap:round;stroke-linejoin:round" /><path
                   id="path808"
                   d="m 5188,6606 -248,238 c 43,-29 141,-107 248,-238 z"
                   class="fil0"
                   inkscape:connector-curvature="0"
                   style="fill:#ffffff;fill-rule:nonzero" /><path
                   id="path810"
                   d="m 4940,6844 c 43,-29 141,-107 248,-238"
                   class="fil2 str1"
                   inkscape:connector-curvature="0"
                   style="fill:none;fill-rule:nonzero;stroke:#373435;stroke-width:27.77949905;stroke-linecap:round;stroke-linejoin:round" /><path
                   id="path812"
                   d="m 5155,6444 -193,153 c 7,-5 148,-119 193,-153 z"
                   class="fil0"
                   inkscape:connector-curvature="0"
                   style="fill:#ffffff;fill-rule:nonzero" /><path
                   id="path814"
                   d="m 4962,6596 c 7,-5 148,-119 193,-153"
                   class="fil2 str1"
                   inkscape:connector-curvature="0"
                   style="fill:none;fill-rule:nonzero;stroke:#373435;stroke-width:27.77949905;stroke-linecap:round;stroke-linejoin:round" /><path
                   id="path816"
                   d="m 3420,5924 c 0,0 237,-54 329,-186 0,0 112,-119 79,86 l -46,257 c 0,0 9,-163 -362,-157 z"
                   class="fil9"
                   inkscape:connector-curvature="0"
                   style="fill:#e1b09f;fill-rule:nonzero;stroke:none" /><path
                   id="path818"
                   d="m 4110,6044 c -56,-8 -72,13 -129,79 0,0 108,-344 163,-299 0,0 69,-63 45,358 0,0 4,-125 -80,-138 z"
                   class="fil9"
                   inkscape:connector-curvature="0"
                   style="fill:#e1b09f;fill-rule:nonzero;stroke:none" /><path
                   id="path820"
                   d="m 4413,6212 c 0,0 7,-254 94,-221 0,0 0,80 25,167 0,0 -36,-98 -120,54 z"
                   class="fil9"
                   inkscape:connector-curvature="0"
                   style="fill:#e1b09f;fill-rule:nonzero;stroke:none" /><path
                   id="path822"
                   d="m 4798,5959 c 0,0 -166,-107 -188,-45 0,0 -45,27 54,188 0,0 -18,-170 134,-143 z"
                   class="fil10"
                   inkscape:connector-curvature="0"
                   style="fill:#dba390;fill-rule:nonzero;stroke:none" /></g></g></g></g></g></g></g></svg>