<?xml version="1.0" encoding="UTF-8" standalone="no"?>
<!-- Created with Inkscape (http://www.inkscape.org/) -->

<svg
   xmlns:dc="http://purl.org/dc/elements/1.1/"
   xmlns:cc="http://creativecommons.org/ns#"
   xmlns:rdf="http://www.w3.org/1999/02/22-rdf-syntax-ns#"
   xmlns:svg="http://www.w3.org/2000/svg"
   xmlns="http://www.w3.org/2000/svg"
   xmlns:sodipodi="http://sodipodi.sourceforge.net/DTD/sodipodi-0.dtd"
   xmlns:inkscape="http://www.inkscape.org/namespaces/inkscape"
   id="svg7594"
   sodipodi:docname="ram.svg"
   viewBox="0 0 41.458502 31.133858"
   sodipodi:version="0.32"
   version="1.0"
   inkscape:output_extension="org.inkscape.output.svg.inkscape"
   inkscape:version="0.48.3.1 r9886"
   width="100%"
   height="100%"
   inkscape:export-filename="/home/fabio/Desktop/ram.png"
   inkscape:export-xdpi="201.51604"
   inkscape:export-ydpi="201.51604">
  <defs
     id="defs3080" />
  <sodipodi:namedview
     id="base"
     bordercolor="#666666"
     inkscape:pageshadow="2"
     inkscape:window-y="-4"
     pagecolor="#ffffff"
     inkscape:window-height="580"
     inkscape:zoom="11.313709"
     inkscape:window-x="-4"
     showgrid="true"
     borderopacity="1.0"
     inkscape:current-layer="layer1"
     inkscape:cx="22.968835"
     inkscape:cy="16.988381"
     showguides="true"
     inkscape:guide-bbox="true"
     inkscape:window-width="1024"
     inkscape:pageopacity="0.0"
     inkscape:document-units="px"
     inkscape:window-maximized="1"
     fit-margin-top="5"
     fit-margin-left="5"
     fit-margin-right="5"
     fit-margin-bottom="5">
    <inkscape:grid
       type="axonomgrid"
       id="grid3902"
       units="mm"
       empspacing="5"
       visible="true"
       enabled="true"
       snapvisiblegridlinesonly="true"
       spacingy="0.2mm"
       originx="0.82730762mm"
       originy="2.2933327mm" />
  </sodipodi:namedview>
  <g
     inkscape:groupmode="layer"
     id="layer2"
     inkscape:label="contour"
     style="display:inline"
     transform="translate(-5.0000009,-10.27362)" />
  <g
     inkscape:groupmode="layer"
     id="layer3"
     inkscape:label="board"
     style="display:inline"
     transform="translate(-5.0000009,-10.27362)" />
  <g
     id="layer1"
     inkscape:label="cpu"
     inkscape:groupmode="layer"
     transform="translate(2.9314051,3.007876)"
     style="display:inline">
    <g
       id="g3749">
      <path
         sodipodi:nodetypes="ccccccccccccccc"
         inkscape:connector-curvature="0"
         id="path4254"
         d="m 7.3646254,2.992124 25.1624706,14.527559 0,2.125984 -4.296032,2.480315 -1.841156,-1.062992 -1.841156,1.062992 -10.43322,-6.023622 0,-2.125984 1.227438,-0.708659 -3.068594,1.771653 -9.205782,-5.3149606 0,-2.1259842 -10e-8,-2.1259863 1.2274376,-0.7086604 z"
         style="fill:none;stroke:#000000;stroke-width:2;stroke-linecap:butt;stroke-linejoin:miter;stroke-miterlimit:4;stroke-opacity:1;stroke-dasharray:none;display:inline" />
      <path
         inkscape:connector-curvature="0"
         d="m 11,18.753935 0,2.125985 1.841156,1.062993 0,-2.125985 z"
         style="fill:#078d13;fill-opacity:1;fill-rule:evenodd;display:inline"
         sodipodi:nodetypes="ccccc"
         id="path4151-1-8"
         transform="translate(-7.931406,-13.281496)" />
      <path
         inkscape:connector-curvature="0"
         d="m 22.046938,25.131889 0,2.125984 1.841157,1.062992 0,-2.125984 z"
         style="fill:#078d13;fill-opacity:1;fill-rule:evenodd;display:inline"
         sodipodi:nodetypes="ccccc"
         id="path4151-1"
         transform="translate(-7.931406,-13.281496)" />
      <path
         inkscape:connector-curvature="0"
         d="M 11,20.879922 12.841156,19.816928 11,18.753936 c 2.045729,-1.181102 2.250302,-1.299212 4.296031,-2.480315 l 17.184127,9.92126 7.978344,4.606299 -4.296032,2.480315 -1.841156,-1.062992 -1.841156,1.062992 -10.43322,-6.023622 1.841157,-1.062992 -1.841157,-1.062992 -1.841156,1.062994 z"
         style="fill:#2ec02a;fill-opacity:1;fill-rule:evenodd;display:inline"
         sodipodi:nodetypes="cccccccccccccc"
         id="path4155"
         transform="translate(-7.931406,-13.281496)" />
      <path
         inkscape:connector-curvature="0"
         d="m 11,20.879922 0,2.125984 9.205782,5.314961 0,-2.125984 z"
         style="fill:#078d13;fill-opacity:1;fill-rule:evenodd;display:inline"
         sodipodi:nodetypes="ccccc"
         id="path4151"
         transform="translate(-7.931406,-13.281496)" />
      <path
         sodipodi:nodetypes="ccccc"
         inkscape:connector-curvature="0"
         d="m 20.205782,26.194883 1.841156,-1.062994 0,2.125984 -1.841156,1.062994 z"
         style="fill:#35ff46;fill-opacity:1;fill-rule:evenodd;display:inline"
         id="path4153-5"
         transform="translate(-7.931406,-13.281496)" />
      <path
         sodipodi:nodetypes="ccccc"
         inkscape:connector-curvature="0"
         d="m 32.480158,33.281495 1.841156,-1.062992 0,2.125984 -1.841156,1.062992 z"
         style="fill:#35ff46;fill-opacity:1;fill-rule:evenodd;display:inline"
         id="path4153"
         transform="translate(-7.931406,-13.281496)" />
      <path
         inkscape:connector-curvature="0"
         d="m 22.046938,27.257873 0,2.125984 10.43322,6.023623 0,-2.125984 z"
         style="fill:#078d13;fill-opacity:1;fill-rule:evenodd;display:inline"
         sodipodi:nodetypes="ccccc"
         id="path4151-0"
         transform="translate(-7.931406,-13.281496)" />
      <path
         sodipodi:nodetypes="ccccc"
         inkscape:connector-curvature="0"
         id="path3951-84"
         d="m 23.274375,27.966535 1.841157,-1.062993 0.613719,0.354331 -1.841157,1.062992 z"
         style="fill:#ffe900;fill-opacity:1;stroke:none;display:inline"
         transform="translate(-7.931406,-13.281496)" />
      <path
         sodipodi:nodetypes="ccccc"
         inkscape:connector-curvature="0"
         id="path3951-2-4"
         d="m 24.501813,28.675196 1.841156,-1.062992 0.613719,0.354331 -1.841156,1.062992 z"
         style="fill:#ffe900;fill-opacity:1;stroke:none;display:inline"
         transform="translate(-7.931406,-13.281496)" />
      <path
         sodipodi:nodetypes="ccccc"
         inkscape:connector-curvature="0"
         id="path3951-8-6"
         d="m 25.729251,29.383857 1.841156,-1.062992 0.613719,0.354331 -1.841157,1.062992 z"
         style="fill:#ffe900;fill-opacity:1;stroke:none;display:inline"
         transform="translate(-7.931406,-13.281496)" />
      <path
         sodipodi:nodetypes="ccccc"
         inkscape:connector-curvature="0"
         id="path3951-7-0"
         d="m 26.956688,30.092519 1.841157,-1.062992 0.613718,0.35433 -1.841156,1.062993 z"
         style="fill:#ffe900;fill-opacity:1;stroke:none;display:inline"
         transform="translate(-7.931406,-13.281496)" />
      <path
         sodipodi:nodetypes="ccccc"
         inkscape:connector-curvature="0"
         id="path3951-4-0"
         d="m 28.184126,30.80118 1.841156,-1.062992 0.613719,0.354331 -1.841156,1.062992 z"
         style="fill:#ffe900;fill-opacity:1;stroke:none;display:inline"
         transform="translate(-7.931406,-13.281496)" />
      <path
         sodipodi:nodetypes="ccccc"
         inkscape:connector-curvature="0"
         id="path3951-1-0"
         d="m 29.411563,31.509842 1.841157,-1.062992 0.613718,0.354331 -1.841156,1.062992 z"
         style="fill:#ffe900;fill-opacity:1;stroke:none;display:inline"
         transform="translate(-7.931406,-13.281496)" />
      <path
         inkscape:connector-curvature="0"
         id="path3999-66"
         d="m 23.274375,27.966534 0.613719,0.354331 0,2.125984 -0.613719,-0.35433 z"
         style="fill:#b6820e;fill-opacity:1;stroke:none;display:inline"
         transform="translate(-7.931406,-13.281496)" />
      <path
         inkscape:connector-curvature="0"
         id="path3999-6-7"
         d="m 24.501813,28.675196 0.613719,0.354331 0,2.125983 -0.613719,-0.35433 z"
         style="fill:#b6820e;fill-opacity:1;stroke:none;display:inline"
         transform="translate(-7.931406,-13.281496)" />
      <path
         inkscape:connector-curvature="0"
         id="path3999-0-6"
         d="m 25.729251,29.383857 0.613718,0.354331 0,2.125984 -0.613718,-0.35433 z"
         style="fill:#b6820e;fill-opacity:1;stroke:none;display:inline"
         transform="translate(-7.931406,-13.281496)" />
      <path
         inkscape:connector-curvature="0"
         id="path3999-1-72"
         d="m 26.956688,30.092519 0.613719,0.354331 0,2.125983 -0.613719,-0.35433 z"
         style="fill:#b6820e;fill-opacity:1;stroke:none;display:inline"
         transform="translate(-7.931406,-13.281496)" />
      <path
         inkscape:connector-curvature="0"
         id="path3999-1-7-4"
         d="m 28.184126,30.80118 0.613719,0.354331 0,2.125983 -0.613719,-0.35433 z"
         style="fill:#b6820e;fill-opacity:1;stroke:none;display:inline"
         transform="translate(-7.931406,-13.281496)" />
      <path
         inkscape:connector-curvature="0"
         id="path3999-1-1-1"
         d="m 29.411563,31.509841 0.613719,0.354331 0,2.125983 -0.613719,-0.35433 z"
         style="fill:#b6820e;fill-opacity:1;stroke:none;display:inline"
         transform="translate(-7.931406,-13.281496)" />
      <path
         sodipodi:nodetypes="ccccc"
         inkscape:connector-curvature="0"
         id="path3951-1-0-1"
         d="m 30.639001,32.218503 1.841157,-1.062992 0.613718,0.354331 -1.841156,1.062992 z"
         style="fill:#ffe900;fill-opacity:1;stroke:none;display:inline"
         transform="translate(-7.931406,-13.281496)" />
      <path
         inkscape:connector-curvature="0"
         id="path3999-1-7-4-1"
         d="m 30.639001,32.218503 0.613719,0.354331 0,2.125983 -0.613719,-0.35433 z"
         style="fill:#b6820e;fill-opacity:1;stroke:none;display:inline"
         transform="translate(-7.931406,-13.281496)" />
      <path
         sodipodi:nodetypes="ccccc"
         inkscape:connector-curvature="0"
         d="m 36.16247,33.281495 4.296032,-2.480315 0,2.125984 -4.296032,2.480315 z"
         style="fill:#35ff46;fill-opacity:1;fill-rule:evenodd;display:inline"
         id="path4153-6"
         transform="translate(-7.931406,-13.281496)" />
      <path
         inkscape:connector-curvature="0"
         d="m 34.321313,32.218503 0,2.125984 1.841157,1.062992 0,-2.125984 z"
         style="fill:#078d13;fill-opacity:1;fill-rule:evenodd;display:inline"
         sodipodi:nodetypes="ccccc"
         id="path4151-1-0"
         transform="translate(-7.931406,-13.281496)" />
      <g
         id="g3099">
        <path
           style="fill:#ffe900;fill-opacity:1;stroke:none"
           d="M 4.2960315,8.3070866 6.1371879,7.2440945 6.7509067,7.5984252 4.9097503,8.6614174 z"
           id="path3951"
           inkscape:connector-curvature="0"
           sodipodi:nodetypes="ccccc" />
        <path
           style="fill:#ffe900;fill-opacity:1;stroke:none"
           d="M 5.5234691,9.015748 7.3646255,7.9527559 7.9783443,8.3070866 6.1371879,9.3700788 z"
           id="path3951-2"
           inkscape:connector-curvature="0"
           sodipodi:nodetypes="ccccc" />
        <path
           style="fill:#ffe900;fill-opacity:1;stroke:none"
           d="M 6.7509067,9.7244094 8.5920631,8.6614173 9.2057819,9.015748 7.3646255,10.07874 z"
           id="path3951-8"
           inkscape:connector-curvature="0"
           sodipodi:nodetypes="ccccc" />
        <path
           style="fill:#ffe900;fill-opacity:1;stroke:none"
           d="M 7.9783442,10.433071 9.8195006,9.3700787 10.433219,9.7244094 8.592063,10.787402 z"
           id="path3951-7"
           inkscape:connector-curvature="0"
           sodipodi:nodetypes="ccccc" />
        <path
           style="fill:#ffe900;fill-opacity:1;stroke:none"
           d="m 9.2057822,11.141732 1.8411558,-1.062992 0.613719,0.354331 -1.841156,1.062992 z"
           id="path3951-4"
           inkscape:connector-curvature="0"
           sodipodi:nodetypes="ccccc" />
        <path
           style="fill:#ffe900;fill-opacity:1;stroke:none"
           d="m 10.433219,11.850394 1.841157,-1.062992 0.613718,0.354331 -1.841156,1.062992 z"
           id="path3951-1"
           inkscape:connector-curvature="0"
           sodipodi:nodetypes="ccccc" />
        <path
           style="fill:#b6820e;fill-opacity:1;stroke:none"
           d="m 4.2960315,8.3070863 0.6137188,0.354331 0,2.1259837 -0.6137188,-0.35433 z"
           id="path3999"
           inkscape:connector-curvature="0" />
        <path
           style="fill:#b6820e;fill-opacity:1;stroke:none"
           d="m 5.5234691,9.0157476 0.6137188,0.354331 0,2.1259834 -0.6137188,-0.35433 z"
           id="path3999-6"
           inkscape:connector-curvature="0" />
        <path
           style="fill:#b6820e;fill-opacity:1;stroke:none"
           d="m 6.7509067,9.724409 0.6137188,0.354331 0,2.125984 -0.6137188,-0.35433 z"
           id="path3999-0"
           inkscape:connector-curvature="0" />
        <path
           style="fill:#b6820e;fill-opacity:1;stroke:none"
           d="m 7.9783443,10.433071 0.6137188,0.354331 0,2.125983 -0.6137188,-0.35433 z"
           id="path3999-1"
           inkscape:connector-curvature="0" />
        <path
           style="fill:#b6820e;fill-opacity:1;stroke:none"
           d="m 9.2057818,11.141732 0.6137188,0.354331 0,2.125983 -0.6137188,-0.35433 z"
           id="path3999-1-7"
           inkscape:connector-curvature="0" />
        <path
           style="fill:#b6820e;fill-opacity:1;stroke:none"
           d="m 10.433219,11.850393 0.613719,0.354331 0,2.125983 -0.613719,-0.35433 z"
           id="path3999-1-1"
           inkscape:connector-curvature="0" />
      </g>
      <path
         sodipodi:nodetypes="ccccc"
         inkscape:connector-curvature="0"
         id="path4058-5-4"
         d="m 17.797845,9.724408 -3.068594,1.771654 -1.841156,-1.062993 3.068594,-1.771653 z"
         style="fill:#000000;fill-opacity:1;stroke:none" />
      <path
         sodipodi:nodetypes="ccccc"
         inkscape:connector-curvature="0"
         id="path4058-5-4-0"
         d="M 14.729251,7.9527549 11.660657,9.7244092 9.8195013,8.6614169 12.888095,6.8897629 z"
         style="fill:#000000;fill-opacity:1;stroke:none;display:inline" />
      <path
         sodipodi:nodetypes="ccccc"
         inkscape:connector-curvature="0"
         id="path4058-5-4-5"
         d="m 23.321314,12.913384 -3.068594,1.771654 -1.841156,-1.062992 3.068594,-1.771654 z"
         style="fill:#000000;fill-opacity:1;stroke:none;display:inline" />
      <path
         sodipodi:nodetypes="ccccc"
         inkscape:connector-curvature="0"
         id="path4058-5-4-2"
         d="M 26.389908,14.685038 23.321314,16.456692 21.480158,15.3937 24.548752,13.622046 z"
         style="fill:#000000;fill-opacity:1;stroke:none;display:inline" />
      <path
         sodipodi:nodetypes="ccccc"
         inkscape:connector-curvature="0"
         id="path4058-5-4-26"
         d="m 11.660656,6.1811012 -3.0685934,1.771654 -1.841156,-1.062992 3.068594,-1.771654 z"
         style="fill:#000000;fill-opacity:1;stroke:none;display:inline" />
      <path
         sodipodi:nodetypes="ccccc"
         inkscape:connector-curvature="0"
         id="path4058-5-4-2-0"
         d="m 29.458502,16.456691 -3.068594,1.771654 -1.841156,-1.062992 3.068594,-1.771654 z"
         style="fill:#000000;fill-opacity:1;stroke:none;display:inline" />
    </g>
  </g>
  <metadata
     id="metadata3078">
    <rdf:RDF>
      <cc:Work>
        <dc:format>image/svg+xml</dc:format>
        <dc:type
           rdf:resource="http://purl.org/dc/dcmitype/StillImage" />
        <cc:license
           rdf:resource="http://creativecommons.org/licenses/publicdomain/" />
        <dc:publisher>
          <cc:Agent
             rdf:about="http://openclipart.org/">
            <dc:title>Openclipart</dc:title>
          </cc:Agent>
        </dc:publisher>
        <dc:title></dc:title>
      </cc:Work>
      <cc:License
         rdf:about="http://creativecommons.org/licenses/publicdomain/">
        <cc:permits
           rdf:resource="http://creativecommons.org/ns#Reproduction" />
        <cc:permits
           rdf:resource="http://creativecommons.org/ns#Distribution" />
        <cc:permits
           rdf:resource="http://creativecommons.org/ns#DerivativeWorks" />
      </cc:License>
    </rdf:RDF>
  </metadata>
</svg>
