<?xml version="1.0" encoding="UTF-8" standalone="no"?>
<svg
   xmlns:dc="http://purl.org/dc/elements/1.1/"
   xmlns:cc="http://creativecommons.org/ns#"
   xmlns:rdf="http://www.w3.org/1999/02/22-rdf-syntax-ns#"
   xmlns:svg="http://www.w3.org/2000/svg"
   xmlns="http://www.w3.org/2000/svg"
   xmlns:sodipodi="http://sodipodi.sourceforge.net/DTD/sodipodi-0.dtd"
   xmlns:inkscape="http://www.inkscape.org/namespaces/inkscape"
   width="230pt"
   height="693pt"
   viewBox="0 0 230 693"
   version="1.1"
   id="svg2"
   inkscape:version="0.91 r13725"
   sodipodi:docname="RapeseedPodLores.svg">
  <metadata
     id="metadata70">
    <rdf:RDF>
      <cc:Work
         rdf:about="">
        <dc:format>image/svg+xml</dc:format>
        <dc:type
           rdf:resource="http://purl.org/dc/dcmitype/StillImage" />
        <dc:title></dc:title>
      </cc:Work>
    </rdf:RDF>
  </metadata>
  <defs
     id="defs68">
    <filter
       style="color-interpolation-filters:sRGB;"
       inkscape:label="Cross Blur"
       id="filter4231">
      <feColorMatrix
         in="SourceGraphic"
         values="1 0 0 0 0 0 1 0 0 0 0 0 1 0 0 -0.2125 -0.7154 -0.0721 1 0 "
         result="colormatrix"
         id="feColorMatrix4233" />
      <feComposite
         in="SourceGraphic"
         in2="colormatrix"
         operator="arithmetic"
         k2="1"
         k3="0"
         k4="0"
         result="composite"
         id="feComposite4235" />
      <feGaussianBlur
         stdDeviation="0.1 0.01"
         result="blur1"
         id="feGaussianBlur4237" />
      <feGaussianBlur
         in="composite"
         stdDeviation="0.01 0.1"
         result="blur2"
         id="feGaussianBlur4239" />
      <feBlend
         in="blur2"
         in2="blur1"
         mode="darken"
         result="blend"
         id="feBlend4241" />
    </filter>
  </defs>
  <sodipodi:namedview
     pagecolor="#ffffff"
     bordercolor="#666666"
     borderopacity="1"
     objecttolerance="10"
     gridtolerance="10"
     guidetolerance="10"
     inkscape:pageopacity="0"
     inkscape:pageshadow="2"
     inkscape:window-width="1600"
     inkscape:window-height="837"
     id="namedview66"
     showgrid="false"
     inkscape:zoom="0.77344877"
     inkscape:cx="143.75"
     inkscape:cy="433.125"
     inkscape:window-x="-8"
     inkscape:window-y="-8"
     inkscape:window-maximized="1"
     inkscape:current-layer="svg2" />
  <g
     id="g4198"
     style="filter:url(#filter4231)">
    <path
       id="path4"
       d=" M 216.60 0.00 L 221.11 0.00 C 225.59 4.51 221.61 10.08 216.88 12.04 C 209.09 40.15 208.89 69.96 207.53 98.99 C 209.37 133.86 222.07 166.92 230.00 200.70 L 230.00 261.40 C 228.09 287.38 215.50 312.88 223.12 338.94 C 227.78 390.88 218.51 442.90 221.01 494.88 C 220.89 508.69 215.64 522.21 218.01 536.06 C 219.19 545.37 221.32 556.72 217.17 564.79 C 211.17 559.25 209.83 548.92 206.60 541.18 C 209.61 539.19 210.22 548.42 211.93 550.83 C 212.68 552.95 213.54 555.04 214.55 557.06 C 215.60 548.43 211.77 540.19 211.05 531.64 C 211.09 526.25 211.12 520.87 210.85 515.51 C 212.15 505.71 208.63 497.23 210.06 490.58 C 211.15 474.94 213.80 514.53 214.55 495.29 C 203.70 430.88 208.18 365.47 215.08 300.99 C 218.20 302.03 214.35 312.95 218.85 306.79 C 220.59 286.11 229.35 264.08 223.06 243.80 C 215.99 252.87 221.84 268.64 217.16 277.81 C 216.39 258.33 212.47 233.66 219.11 213.56 C 219.96 182.18 197.14 151.79 208.17 119.89 C 198.29 133.31 201.01 153.44 207.82 168.22 C 207.77 175.10 205.10 163.65 203.02 161.94 C 203.35 169.25 204.21 176.55 204.10 183.89 C 204.07 184.33 204.01 185.20 203.98 185.64 C 202.67 195.63 200.39 205.46 195.05 214.10 C 194.29 212.51 192.97 210.43 194.30 208.79 C 201.63 194.22 204.56 175.89 200.17 160.85 C 195.24 178.23 192.80 198.14 181.76 212.87 C 189.10 194.67 197.40 173.59 197.90 155.18 C 192.41 174.30 187.73 196.07 179.04 215.21 C 179.01 218.24 189.28 215.73 192.55 220.89 C 193.88 225.26 194.11 230.74 191.02 234.47 C 186.82 236.62 181.39 238.32 177.82 234.10 C 175.07 229.75 172.03 240.21 176.52 237.35 C 181.02 236.11 170.16 243.09 174.57 241.79 C 177.04 240.95 182.48 235.07 180.01 240.77 C 174.92 243.20 169.18 245.59 170.68 252.79 C 169.12 257.21 168.55 261.92 168.26 266.58 C 173.14 269.61 179.92 265.71 182.27 261.16 C 183.01 260.50 183.76 259.84 184.50 259.19 C 182.33 265.99 181.06 273.04 178.73 279.80 C 177.62 282.02 176.44 284.22 175.17 286.36 C 168.47 290.84 160.82 284.34 157.29 285.04 C 163.88 264.68 171.80 244.34 176.10 223.01 C 169.10 230.29 169.41 249.24 164.60 253.58 C 167.70 244.15 161.11 253.89 160.38 258.41 C 143.68 307.28 117.41 351.97 93.49 397.48 C 70.74 429.45 54.38 465.93 28.89 495.89 C 21.36 505.00 11.16 510.38 0.00 513.50 L 0.00 509.80 C 14.61 497.07 11.42 476.00 21.94 460.94 C 36.45 436.48 45.26 408.34 66.02 388.03 C 91.74 356.46 90.80 309.83 120.16 281.14 L 119.91 281.83 C 103.17 302.21 96.26 327.52 87.68 351.88 C 80.53 366.24 75.47 382.21 63.62 393.63 C 49.59 405.79 45.82 424.50 34.86 438.91 C 30.84 454.88 17.09 466.56 15.27 483.30 C 13.96 492.79 9.45 501.40 4.48 509.45 C 21.66 501.16 30.06 482.83 39.18 467.15 C 54.98 430.53 80.24 399.08 98.88 364.11 C 106.52 351.03 111.88 336.69 120.57 324.23 C 127.64 310.68 136.27 297.90 141.01 283.24 C 155.28 251.63 169.51 219.96 182.97 187.96 C 193.27 168.11 195.60 145.27 191.64 123.38 C 191.81 120.12 193.07 121.73 195.02 122.87 C 200.44 89.21 202.68 52.09 207.44 20.35 C 197.76 47.34 197.16 78.61 192.56 107.49 C 191.66 109.90 192.82 114.70 188.99 114.86 C 193.82 82.92 194.78 50.25 204.05 19.11 C 206.66 11.90 209.22 3.78 216.60 0.00 M 217.27 347.81 C 209.60 372.85 211.46 401.85 211.84 426.86 C 218.99 421.25 211.07 435.66 216.76 435.64 C 218.56 418.50 219.19 401.53 220.64 385.42 C 217.50 373.21 224.39 357.98 217.27 347.81 Z"
       opacity="1.00"
       stroke-width="0.09375"
       stroke="#513f04"
       fill="#513f04" />
    <path
       id="path6"
       d=" M 207.44 20.35 C 202.68 52.09 200.44 89.21 195.02 122.87 C 193.07 121.73 191.81 120.12 191.64 123.38 C 191.02 121.73 190.74 118.29 188.25 119.04 C 177.77 127.78 179.37 143.10 171.66 153.65 C 165.78 161.82 164.32 171.89 162.57 181.52 C 159.57 199.08 147.90 213.52 143.65 230.68 C 140.68 249.38 132.32 267.62 119.91 281.83 L 120.16 281.14 C 127.22 266.46 138.07 253.07 140.48 236.46 C 143.25 215.09 159.24 198.21 161.70 176.72 C 162.21 164.58 169.30 154.69 174.03 143.99 C 177.56 133.60 180.64 122.60 188.99 114.86 C 192.82 114.70 191.66 109.90 192.56 107.49 C 197.16 78.61 197.76 47.34 207.44 20.35 Z"
       opacity="1.00"
       stroke-width="0.09375"
       stroke="#7c5e06"
       fill="#7c5e06" />
    <path
       id="path8"
       d=" M 188.25 119.04 C 190.74 118.29 191.02 121.73 191.64 123.38 C 195.60 145.27 193.27 168.11 182.97 187.96 C 169.51 219.96 155.28 251.63 141.01 283.24 C 144.41 260.51 158.11 239.48 167.16 218.12 C 167.76 211.83 180.06 200.72 171.28 197.35 C 166.17 211.63 155.34 222.33 149.77 235.89 C 148.06 244.37 147.45 255.47 140.59 260.52 C 143.26 265.65 129.84 271.43 136.78 269.95 C 136.10 276.43 125.03 276.14 127.20 283.50 C 122.05 293.10 126.52 306.33 115.66 315.06 C 112.90 309.65 115.39 303.78 117.87 298.77 C 112.86 298.62 105.96 309.33 111.55 312.86 C 105.95 315.32 103.05 326.92 108.61 328.97 C 98.13 328.69 110.30 336.74 103.35 337.23 C 92.30 329.17 98.15 356.11 87.68 351.88 C 96.26 327.52 103.17 302.21 119.91 281.83 C 132.32 267.62 140.68 249.38 143.65 230.68 C 147.90 213.52 159.57 199.08 162.57 181.52 C 164.32 171.89 165.78 161.82 171.66 153.65 C 179.37 143.10 177.77 127.78 188.25 119.04 Z"
       opacity="1.00"
       stroke-width="0.09375"
       stroke="#bc9807"
       fill="#bc9807" />
    <path
       id="path10"
       d=" M 207.82 168.22 C 201.01 153.44 198.29 133.31 208.17 119.89 C 197.14 151.79 219.96 182.18 219.11 213.56 C 212.47 233.66 216.39 258.33 217.16 277.81 C 221.84 268.64 215.99 252.87 223.06 243.80 C 229.35 264.08 220.59 286.11 218.85 306.79 C 214.35 312.95 218.20 302.03 215.08 300.99 C 208.18 365.47 203.70 430.88 214.55 495.29 C 213.80 514.53 211.15 474.94 210.06 490.58 C 203.97 494.89 213.27 474.22 204.71 475.56 C 210.09 468.88 202.13 457.04 204.75 449.88 C 202.26 419.37 201.02 388.45 204.99 358.04 C 207.11 337.09 209.06 316.13 210.38 295.11 C 213.58 270.91 210.25 246.46 211.61 222.15 C 211.57 205.68 213.43 188.52 206.88 172.89 C 202.90 174.46 205.65 180.74 204.10 183.89 C 204.21 176.55 203.35 169.25 203.02 161.94 C 205.10 163.65 207.77 175.10 207.82 168.22 Z"
       opacity="1.00"
       stroke-width="0.09375"
       stroke="#7f5c00"
       fill="#7f5c00" />
    <path
       id="path12"
       d=" M 179.04 215.21 C 187.73 196.07 192.41 174.30 197.90 155.18 C 197.40 173.59 189.10 194.67 181.76 212.87 C 192.80 198.14 195.24 178.23 200.17 160.85 C 204.56 175.89 201.63 194.22 194.30 208.79 C 192.97 210.43 194.29 212.51 195.05 214.10 C 194.20 216.27 195.17 219.88 192.55 220.89 C 189.28 215.73 179.01 218.24 179.04 215.21 Z"
       opacity="1.00"
       stroke-width="0.09375"
       stroke="#d3b94a"
       fill="#d3b94a" />
    <path
       id="path14"
       d=" M 204.10 183.89 C 205.65 180.74 202.90 174.46 206.88 172.89 C 213.43 188.52 211.57 205.68 211.61 222.15 C 210.25 246.46 213.58 270.91 210.38 295.11 C 198.55 288.11 214.10 297.93 206.51 303.30 C 206.04 307.87 202.28 307.43 205.09 312.66 C 202.24 312.21 207.37 323.02 201.18 319.38 C 203.90 326.87 201.11 336.70 200.98 343.11 C 200.45 343.26 199.40 343.56 198.87 343.71 C 200.47 304.69 207.18 265.60 201.16 226.60 C 205.98 234.85 205.90 226.03 202.68 221.64 C 206.17 212.69 203.20 203.49 204.81 192.80 C 208.32 191.11 204.79 188.12 203.98 185.64 C 204.01 185.20 204.07 184.33 204.10 183.89 Z"
       opacity="1.00"
       stroke-width="0.09375"
       stroke="#bca231"
       fill="#bca231" />
    <path
       id="path16"
       d=" M 203.98 185.64 C 204.79 188.12 208.32 191.11 204.81 192.80 C 203.20 203.49 206.17 212.69 202.68 221.64 C 205.90 226.03 205.98 234.85 201.16 226.60 C 207.18 265.60 200.47 304.69 198.87 343.71 C 195.88 376.82 192.72 410.04 197.44 443.13 C 200.87 470.38 206.22 498.59 207.31 527.44 C 213.47 529.87 206.48 513.87 210.85 515.51 C 211.12 520.87 211.09 526.25 211.05 531.64 C 204.09 536.52 213.22 544.28 211.93 550.83 C 210.22 548.42 209.61 539.19 206.60 541.18 C 201.35 478.69 185.16 415.92 195.97 352.92 C 197.61 309.52 205.69 266.04 198.64 222.68 C 188.29 276.61 165.38 327.39 151.42 380.41 C 146.84 381.21 147.81 399.63 143.60 402.48 C 137.77 396.71 142.70 421.65 136.11 413.77 C 138.34 408.26 132.64 409.97 128.88 410.83 C 138.77 407.47 125.89 400.78 126.02 393.80 C 126.48 391.76 127.19 389.78 127.85 387.80 C 136.35 377.33 147.72 399.85 146.24 380.27 C 153.59 374.97 152.15 362.94 143.56 359.64 C 157.04 358.35 158.23 340.22 159.66 330.86 C 166.37 329.37 170.04 318.04 165.71 314.23 C 171.56 309.80 170.71 294.70 175.17 286.36 C 176.44 284.22 177.62 282.02 178.73 279.80 C 180.05 281.94 180.99 279.40 181.23 278.05 C 184.14 263.04 191.71 249.35 193.87 234.16 C 191.52 235.92 189.47 240.15 191.02 234.47 C 194.11 230.74 193.88 225.26 192.55 220.89 C 195.17 219.88 194.20 216.27 195.05 214.10 C 200.39 205.46 202.67 195.63 203.98 185.64 Z"
       opacity="1.00"
       stroke-width="0.09375"
       stroke="#886f13"
       fill="#886f13" />
    <path
       id="path18"
       d=" M 171.28 197.35 C 180.06 200.72 167.76 211.83 167.16 218.12 C 158.11 239.48 144.41 260.51 141.01 283.24 C 136.27 297.90 127.64 310.68 120.57 324.23 C 109.44 330.81 106.20 349.13 98.27 360.47 C 96.74 361.69 98.27 362.91 98.88 364.11 C 80.24 399.08 54.98 430.53 39.18 467.15 C 30.06 482.83 21.66 501.16 4.48 509.45 C 9.45 501.40 13.96 492.79 15.27 483.30 C 17.09 466.56 30.84 454.88 34.86 438.91 C 45.82 424.50 49.59 405.79 63.62 393.63 C 75.47 382.21 80.53 366.24 87.68 351.88 C 98.15 356.11 92.30 329.17 103.35 337.23 C 110.30 336.74 98.13 328.69 108.61 328.97 C 103.05 326.92 105.95 315.32 111.55 312.86 C 105.96 309.33 112.86 298.62 117.87 298.77 C 115.39 303.78 112.90 309.65 115.66 315.06 C 126.52 306.33 122.05 293.10 127.20 283.50 C 125.03 276.14 136.10 276.43 136.78 269.95 C 129.84 271.43 143.26 265.65 140.59 260.52 C 147.45 255.47 148.06 244.37 149.77 235.89 C 155.34 222.33 166.17 211.63 171.28 197.35 Z"
       opacity="1.00"
       stroke-width="0.09375"
       stroke="#9c7602"
       fill="#9c7602" />
    <path
       id="path20"
       d=" M 164.60 253.58 C 169.41 249.24 169.10 230.29 176.10 223.01 C 171.80 244.34 163.88 264.68 157.29 285.04 C 157.20 289.56 155.55 293.75 153.91 297.90 C 157.09 295.87 157.62 291.68 160.34 289.27 C 167.41 288.21 173.60 296.85 168.79 302.64 C 165.22 304.53 156.26 304.41 155.69 308.23 C 154.00 311.59 147.67 314.47 149.37 307.18 C 151.50 293.29 144.13 320.77 140.95 322.91 C 147.38 299.28 155.57 276.30 164.60 253.58 Z"
       opacity="1.00"
       stroke-width="0.09375"
       stroke="#957c24"
       fill="#957c24" />
    <path
       id="path22"
       d=" M 176.52 237.35 C 172.03 240.21 175.07 229.75 177.82 234.10 C 181.39 238.32 186.82 236.62 191.02 234.47 C 189.47 240.15 191.52 235.92 193.87 234.16 C 191.71 249.35 184.14 263.04 181.23 278.05 C 180.99 279.40 180.05 281.94 178.73 279.80 C 181.06 273.04 182.33 265.99 184.50 259.19 C 186.03 253.00 187.91 243.23 180.01 240.77 C 182.48 235.07 177.04 240.95 174.57 241.79 C 170.16 243.09 181.02 236.11 176.52 237.35 Z"
       opacity="1.00"
       stroke-width="0.09375"
       stroke="#ecd67e"
       fill="#ecd67e" />
    <path
       id="path24"
       d=" M 170.68 252.79 C 169.18 245.59 174.92 243.20 180.01 240.77 C 187.91 243.23 186.03 253.00 184.50 259.19 C 183.76 259.84 183.01 260.50 182.27 261.16 C 179.11 257.18 169.84 259.77 170.68 252.79 Z"
       opacity="1.00"
       stroke-width="0.09375"
       stroke="#ae8d22"
       fill="#ae8d22" />
    <path
       id="path26"
       d=" M 168.26 266.58 C 168.55 261.92 169.12 257.21 170.68 252.79 C 169.84 259.77 179.11 257.18 182.27 261.16 C 179.92 265.71 173.14 269.61 168.26 266.58 Z"
       opacity="1.00"
       stroke-width="0.09375"
       stroke="#f5e18e"
       fill="#f5e18e" />
    <path
       id="path28"
       d=" M 157.29 285.04 C 160.82 284.34 168.47 290.84 175.17 286.36 C 170.71 294.70 171.56 309.80 165.71 314.23 C 163.62 310.44 159.19 310.19 155.69 308.23 C 156.26 304.41 165.22 304.53 168.79 302.64 C 173.60 296.85 167.41 288.21 160.34 289.27 C 157.62 291.68 157.09 295.87 153.91 297.90 C 155.55 293.75 157.20 289.56 157.29 285.04 Z"
       opacity="1.00"
       stroke-width="0.09375"
       stroke="#eedb8b"
       fill="#eedb8b" />
    <path
       id="path30"
       d=" M 206.51 303.30 C 214.10 297.93 198.55 288.11 210.38 295.11 C 209.06 316.13 207.11 337.09 204.99 358.04 C 198.18 361.65 204.15 347.31 200.98 343.11 C 201.11 336.70 203.90 326.87 201.18 319.38 C 207.37 323.02 202.24 312.21 205.09 312.66 C 202.28 307.43 206.04 307.87 206.51 303.30 Z"
       opacity="1.00"
       stroke-width="0.09375"
       stroke="#fbee88"
       fill="#fbee88" />
    <path
       id="path32"
       d=" M 140.95 322.91 C 144.13 320.77 151.50 293.29 149.37 307.18 C 146.35 314.13 144.82 321.51 142.82 328.79 C 141.61 331.46 140.60 334.24 140.19 337.17 C 136.85 346.57 136.49 358.01 130.82 365.92 C 129.48 361.89 136.06 352.85 134.37 346.92 C 135.71 338.72 137.96 330.65 140.95 322.91 Z"
       opacity="1.00"
       stroke-width="0.09375"
       stroke="#ceba5d"
       fill="#ceba5d" />
    <path
       id="path34"
       d=" M 149.37 307.18 C 147.67 314.47 154.00 311.59 155.69 308.23 C 159.19 310.19 163.62 310.44 165.71 314.23 C 170.04 318.04 166.37 329.37 159.66 330.86 C 154.43 334.46 148.05 328.44 143.39 331.84 C 143.19 330.82 143.00 329.80 142.82 328.79 C 144.82 321.51 146.35 314.13 149.37 307.18 Z"
       opacity="1.00"
       stroke-width="0.09375"
       stroke="#533c02"
       fill="#533c02" />
    <path
       id="path36"
       d=" M 98.27 360.47 C 106.20 349.13 109.44 330.81 120.57 324.23 C 111.88 336.69 106.52 351.03 98.88 364.11 C 98.27 362.91 96.74 361.69 98.27 360.47 Z"
       opacity="1.00"
       stroke-width="0.09375"
       stroke="#c9b732"
       fill="#c9b732" />
    <path
       id="path38"
       d=" M 140.19 337.17 C 140.60 334.24 141.61 331.46 142.82 328.79 C 143.00 329.80 143.19 330.82 143.39 331.84 C 141.64 339.09 155.45 329.96 155.63 338.71 C 158.31 351.60 146.48 352.92 139.82 345.80 C 139.66 342.98 145.43 336.55 140.19 337.17 Z"
       opacity="1.00"
       stroke-width="0.09375"
       stroke="#977917"
       fill="#977917" />
    <path
       id="path40"
       d=" M 143.39 331.84 C 148.05 328.44 154.43 334.46 159.66 330.86 C 158.23 340.22 157.04 358.35 143.56 359.64 C 131.82 365.19 138.43 352.33 139.82 345.80 C 146.48 352.92 158.31 351.60 155.63 338.71 C 155.45 329.96 141.64 339.09 143.39 331.84 Z"
       opacity="1.00"
       stroke-width="0.09375"
       stroke="#f2de80"
       fill="#f2de80" />
    <path
       id="path42"
       d=" M 140.19 337.17 C 145.43 336.55 139.66 342.98 139.82 345.80 C 138.43 352.33 131.82 365.19 143.56 359.64 C 152.15 362.94 153.59 374.97 146.24 380.27 C 140.96 383.46 134.76 382.15 130.76 377.76 C 129.24 380.93 128.90 384.47 127.85 387.80 C 127.19 389.78 126.48 391.76 126.02 393.80 C 125.12 401.59 115.28 419.27 128.88 410.83 C 132.64 409.97 138.34 408.26 136.11 413.77 C 142.70 421.65 137.77 396.71 143.60 402.48 C 147.81 399.63 146.84 381.21 151.42 380.41 C 147.99 397.15 143.10 413.55 139.51 430.24 C 133.24 469.34 137.32 511.53 116.23 546.89 C 125.42 547.72 119.84 557.07 119.96 563.21 C 122.02 606.46 122.22 652.13 106.52 693.00 L 104.64 693.00 C 104.72 691.74 104.79 690.48 104.87 689.23 C 111.62 655.91 115.34 622.04 113.80 587.94 C 113.31 576.81 113.12 565.08 107.65 555.07 C 104.29 560.32 107.84 567.09 108.38 572.90 C 111.71 611.61 108.63 650.59 102.29 688.87 C 98.02 695.29 99.00 688.45 100.52 684.57 C 106.56 640.73 115.25 592.86 98.91 550.39 C 112.29 547.93 100.26 534.33 103.54 525.66 C 100.98 464.56 115.11 404.48 134.37 346.92 C 136.06 352.85 129.48 361.89 130.82 365.92 C 136.49 358.01 136.85 346.57 140.19 337.17 M 129.36 369.45 C 122.98 390.14 116.19 410.95 113.16 432.40 C 112.28 434.67 115.47 433.99 115.04 432.11 C 119.15 410.72 125.21 389.78 130.81 368.75 C 130.45 368.92 129.73 369.27 129.36 369.45 M 118.25 428.91 C 111.29 464.39 104.48 505.94 111.71 542.26 C 135.58 509.85 127.99 467.17 135.92 429.74 C 130.21 433.09 122.44 432.74 118.25 428.91 M 112.41 439.06 C 109.71 449.49 106.32 464.42 108.02 475.07 C 109.77 465.60 113.25 449.49 112.41 439.06 M 105.41 504.79 C 105.81 518.85 104.38 533.84 108.08 547.68 C 101.04 551.58 118.93 553.57 112.31 549.69 C 104.59 540.45 108.09 518.37 105.41 504.79 Z"
       opacity="1.00"
       stroke-width="0.09375"
       stroke="#5b4809"
       fill="#5b4809" />
    <path
       id="path44"
       d=" M 198.87 343.71 C 199.40 343.56 200.45 343.26 200.98 343.11 C 204.15 347.31 198.18 361.65 204.99 358.04 C 201.02 388.45 202.26 419.37 204.75 449.88 C 202.13 457.04 210.09 468.88 204.71 475.56 C 213.27 474.22 203.97 494.89 210.06 490.58 C 208.63 497.23 212.15 505.71 210.85 515.51 C 206.48 513.87 213.47 529.87 207.31 527.44 C 206.22 498.59 200.87 470.38 197.44 443.13 C 192.72 410.04 195.88 376.82 198.87 343.71 Z"
       opacity="1.00"
       stroke-width="0.09375"
       stroke="#e3c74a"
       fill="#e3c74a" />
    <path
       id="path46"
       d=" M 217.27 347.81 C 224.39 357.98 217.50 373.21 220.64 385.42 C 219.19 401.53 218.56 418.50 216.76 435.64 C 211.07 435.66 218.99 421.25 211.84 426.86 C 211.46 401.85 209.60 372.85 217.27 347.81 Z"
       opacity="1.00"
       stroke-width="0.09375"
       stroke="#775d00"
       fill="#775d00" />
    <path
       id="path48"
       d=" M 129.36 369.45 C 129.73 369.27 130.45 368.92 130.81 368.75 C 125.21 389.78 119.15 410.72 115.04 432.11 C 115.47 433.99 112.28 434.67 113.16 432.40 C 116.19 410.95 122.98 390.14 129.36 369.45 Z"
       opacity="1.00"
       stroke-width="0.09375"
       stroke="#bdab42"
       fill="#bdab42" />
    <path
       id="path50"
       d=" M 127.85 387.80 C 128.90 384.47 129.24 380.93 130.76 377.76 C 134.76 382.15 140.96 383.46 146.24 380.27 C 147.72 399.85 136.35 377.33 127.85 387.80 Z"
       opacity="1.00"
       stroke-width="0.09375"
       stroke="#f9ec98"
       fill="#f9ec98" />
    <path
       id="path52"
       d=" M 126.02 393.80 C 125.89 400.78 138.77 407.47 128.88 410.83 C 115.28 419.27 125.12 401.59 126.02 393.80 Z"
       opacity="1.00"
       stroke-width="0.09375"
       stroke="#f5e691"
       fill="#f5e691" />
    <path
       id="path54"
       d=" M 118.25 428.91 C 122.44 432.74 130.21 433.09 135.92 429.74 C 127.99 467.17 135.58 509.85 111.71 542.26 C 104.48 505.94 111.29 464.39 118.25 428.91 M 125.04 434.44 C 113.06 435.32 119.99 456.94 126.52 450.58 C 130.66 454.42 134.34 435.10 125.04 434.44 Z"
       opacity="1.00"
       stroke-width="0.09375"
       stroke="#f7e994"
       fill="#f7e994" />
    <path
       id="path56"
       d=" M 125.04 434.44 C 134.34 435.10 130.66 454.42 126.52 450.58 C 119.99 456.94 113.06 435.32 125.04 434.44 Z"
       opacity="1.00"
       stroke-width="0.09375"
       stroke="#9c7d17"
       fill="#9c7d17" />
    <path
       id="path58"
       d=" M 112.41 439.06 C 113.25 449.49 109.77 465.60 108.02 475.07 C 106.32 464.42 109.71 449.49 112.41 439.06 Z"
       opacity="1.00"
       stroke-width="0.09375"
       stroke="#c6b956"
       fill="#c6b956" />
    <path
       id="path60"
       d=" M 105.41 504.79 C 108.09 518.37 104.59 540.45 112.31 549.69 C 118.93 553.57 101.04 551.58 108.08 547.68 C 104.38 533.84 105.81 518.85 105.41 504.79 Z"
       opacity="1.00"
       stroke-width="0.09375"
       stroke="#bcaf4b"
       fill="#bcaf4b" />
    <path
       id="path62"
       d=" M 211.93 550.83 C 213.22 544.28 204.09 536.52 211.05 531.64 C 211.77 540.19 215.60 548.43 214.55 557.06 C 213.54 555.04 212.68 552.95 211.93 550.83 Z"
       opacity="1.00"
       stroke-width="0.09375"
       stroke="#c8bd57"
       fill="#c8bd57" />
    <path
       id="path64"
       d=" M 108.38 572.90 C 107.84 567.09 104.29 560.32 107.65 555.07 C 113.12 565.08 113.31 576.81 113.80 587.94 C 115.34 622.04 111.62 655.91 104.87 689.23 C 104.22 689.14 102.94 688.96 102.29 688.87 C 108.63 650.59 111.71 611.61 108.38 572.90 Z"
       opacity="1.00"
       stroke-width="0.09375"
       stroke="#918608"
       fill="#918608" />
  </g>
</svg>
