<?xml version="1.0"?>
<svg xmlns:rdf="http://www.w3.org/1999/02/22-rdf-syntax-ns#" xmlns="http://www.w3.org/2000/svg" xmlns:cc="http://web.resource.org/cc/" xmlns:xlink="http://www.w3.org/1999/xlink" xmlns:dc="http://purl.org/dc/elements/1.1/" xmlns:svg="http://www.w3.org/2000/svg" style="shape-rendering:geometricPrecision;text-rendering:geometricPrecision;image-rendering:optimizeQuality" fill-rule="evenodd" xml:space="preserve" clip-rule="evenodd" viewBox="0 0 8.5 11">
 <defs>
  <style type="text/css">
    .str0 {stroke:#1F1A17;stroke-width:0.003}
    .str1 {stroke:#1F1A17;stroke-width:0.0138898}
    .fil2 {fill:none}
    .fil1 {fill:#DA251D}
    .fil5 {fill:#DD137B}
    .fil4 {fill:#EF9BA0}
    .fil0 {fill:#F8C300}
    .fil6 {fill:#FFF500}
    .fil3 {fill:white}
  </style>
 </defs>
 <g id="Layer_x0020_1">
  <g id="_147161640">
   <ellipse id="_67749128" class="fil0 str0" transform="matrix(4.8502 1.4572 -1.4572 4.8502 4.991 5.6618)" rx=".42363" ry=".41411"/>
   <polygon id="_67751520" points="3.1864 4.486 1.44 2.7593 3.5205 3.3228 3.4985 1.652 4.6189 3.0518 5.2104 1.5961 5.3354 3.5907" class="fil1 str0"/>
    <ellipse id="_67919856" class="fil1" transform="matrix(5.3007 -2.1588 2.1588 5.3007 6.0688 6.5232)" rx=".053504" ry=".054693"/>
    <ellipse id="_69186984" class="fil1" transform="matrix(5.7477 -2.3409 2.3409 5.7477 6.5148 6.3369)" rx=".045181" ry=".049937"/>
    <line id="_147164952" y2="6.2271" class="fil2 str1" y1="6.6552" x2="6.7649" x1="5.792"/>
    <ellipse id="_67715456" class="fil3 str1" transform="matrix(5.9437 1.7857 -1.7857 5.9437 5.8438 4.745)" rx=".11058" ry=".099874"/>
    <ellipse id="_147156840" class="fil4 str1" transform="matrix(5.9437 1.7857 -1.7857 5.9437 5.7058 5.0503)" rx=".043992" ry=".04637"/>
    <ellipse id="_147161936" class="fil3 str1" transform="matrix(5.9437 1.7857 -1.7857 5.9437 4.2788 5.385)" rx=".11058" ry=".099874"/>
    <ellipse id="_67552416" class="fil4 str1" transform="matrix(5.9437 1.7857 -1.7857 5.9437 4.1408 5.6903)" rx=".043992" ry=".04637"/>
   <ellipse id="_69034168" class="fil5 str0" transform="matrix(6.3894 1.9196 -1.7857 5.9437 1.4576 2.7261)" rx=".047559" ry=".053504"/>
   <ellipse id="_66870576" class="fil5 str0" transform="matrix(6.3894 1.9196 -1.7857 5.9437 3.471 1.6668)" rx=".047559" ry=".053504"/>
   <ellipse id="_66890952" class="fil5 str0" transform="matrix(6.3894 1.9196 -1.7857 5.9437 5.2026 1.4936)" rx=".047559" ry=".053504"/>
   <polygon id="_66890872" points="2.7466 4.0469 2.9561 4.2396 5.3378 3.3261 5.3104 3.0666" class="fil5 str0"/>
   <ellipse id="_67749664" class="fil6 str0" transform="matrix(5.9437 1.7857 -1.7857 5.9437 3.0547 4.0783)" rx=".019638" ry=".019098"/>
   <ellipse id="_68256336" class="fil6 str0" transform="matrix(5.9437 1.7857 -1.7857 5.9437 3.3793 3.9477)" rx=".019043" ry=".017902"/>
   <ellipse id="_147025792" class="fil6 str0" transform="matrix(5.9437 1.7857 -1.7857 5.9437 3.6879 3.8064)" rx=".019043" ry=".017602"/>
   <ellipse id="_66759528" class="fil6 str0" transform="matrix(5.9437 1.7857 -1.7857 5.9437 4.0546 3.6768)" rx=".019043" ry=".017602"/>
   <ellipse id="_147159608" class="fil6 str0" transform="matrix(5.9437 1.7857 -1.7857 5.9437 4.3849 3.5381)" rx=".019043" ry=".017602"/>
   <ellipse id="_68511040" class="fil6 str0" transform="matrix(5.9437 1.7857 -1.7857 5.9437 4.7079 3.4117)" rx=".019043" ry=".017602"/>
   <ellipse id="_147157624" class="fil6 str0" transform="matrix(5.9437 1.7857 -1.7857 5.9437 5.0267 3.2995)" rx=".019043" ry=".017602"/>
  </g>
 </g>
<metadata><rdf:RDF><cc:Work><dc:format>image/svg+xml</dc:format><dc:type rdf:resource="http://purl.org/dc/dcmitype/StillImage"/><cc:license rdf:resource="http://creativecommons.org/licenses/publicdomain/"/><dc:publisher><cc:Agent rdf:about="http://openclipart.org/"><dc:title>Openclipart</dc:title></cc:Agent></dc:publisher><dc:title>clipart queen</dc:title><dc:date>2012-12-27T00:52:24</dc:date><dc:description>ini adalah salahsatu ratu clipart</dc:description><dc:source>http://openclipart.org/detail/173922/clipart-queen-by-niken-sofi-salma-173922</dc:source><dc:creator><cc:Agent><dc:title>niken sofi salma</dc:title></cc:Agent></dc:creator><dc:subject><rdf:Bag><rdf:li>book</rdf:li><rdf:li>bundar</rdf:li><rdf:li>clip art</rdf:li><rdf:li>clipart</rdf:li><rdf:li>documen</rdf:li><rdf:li>dot</rdf:li><rdf:li>free</rdf:li><rdf:li>gambar</rdf:li><rdf:li>gembira</rdf:li><rdf:li>gratis</rdf:li><rdf:li>happy</rdf:li><rdf:li>kepala</rdf:li><rdf:li>ketawa</rdf:li><rdf:li>king</rdf:li><rdf:li>lingkaran</rdf:li><rdf:li>lucu</rdf:li><rdf:li>mata</rdf:li><rdf:li>people. family</rdf:li><rdf:li>picture</rdf:li><rdf:li>please</rdf:li><rdf:li>queen</rdf:li><rdf:li>sad</rdf:li><rdf:li>sedih</rdf:li><rdf:li>senang</rdf:li><rdf:li>uang</rdf:li><rdf:li>warna</rdf:li></rdf:Bag></dc:subject></cc:Work><cc:License rdf:about="http://creativecommons.org/licenses/publicdomain/"><cc:permits rdf:resource="http://creativecommons.org/ns#Reproduction"/><cc:permits rdf:resource="http://creativecommons.org/ns#Distribution"/><cc:permits rdf:resource="http://creativecommons.org/ns#DerivativeWorks"/></cc:License></rdf:RDF></metadata></svg>
