<?xml version="1.0" encoding="UTF-8" standalone="no"?>
<svg id="svg4265" xmlns:rdf="http://www.w3.org/1999/02/22-rdf-syntax-ns#" xmlns="http://www.w3.org/2000/svg" height="583" viewBox="0 0 358 583" width="358" version="1.1" xmlns:cc="http://creativecommons.org/ns#" xmlns:dc="http://purl.org/dc/elements/1.1/">
<path id="path4275" d="m71.788 582.25c-15.885-0.8-24.398-21.82-24.199-59.75 0.10521-20.013 2.3398-29.873 11.158-49.235 5.8389-12.821 7.088-19.647 4.7879-26.166-2.478-7.0234-3.7795-21.295-3.6332-39.84 0.13536-17.152 0.12114-17.271-2.7614-23-6.2694-12.461-6.8695-16.219-4.2145-26.395l2.3417-8.9754-2.5131-2.6943c-5.9159-6.3424-4.7651-24 2.0553-31.537 1.306-1.4432 1.6853-3.9526 1.7384-11.502 0.03734-5.3108 0.43886-11.782 0.89228-14.38 0.79545-4.5582 0.70647-4.8215-2.5347-7.5-10.429-8.618-13.174-13.074-14.323-23.245-0.64167-5.6786-1.2215-7.001-4.7462-10.825-4.105-4.4534-4.1826-4.8534-2.2219-11.454 1.1199-3.7699-12.34-14.696-18.142-14.726-11.226-0.05-15.486-9.87-9.6604-22.25 5.7434-12.21 7.1874-15.58 7.1874-16.76 0-0.7127 1.5575-4.9443 3.4611-9.4035s4.4945-11.033 5.7576-14.608c2.0558-5.8188 2.7792-6.762 6.9024-9 13.675-7.4227 14.549-10.274 6.6342-21.643-4.7945-6.8868-4.948-7.3208-4.2882-12.118 0.65345-4.7512 0.54049-5.0882-2.5041-7.4709-3.134-2.4528-3.1907-2.6467-3.3257-11.376l-0.137-8.879-7 0.3003c-19.392 0.832-23.314-18.092-8.402-40.538 1.871-2.817 4.527-7.016 5.902-9.333 4.444-7.486 21.285-22.94 24.999-22.94 0.59642 0 3.8781-1.3044 7.2927-2.8987 3.414-1.594 9.583-3.9065 13.708-5.1384 4.125-1.232 7.954-2.5922 8.508-3.0228 4.82-3.7438 23.011-5.2959 29.622-2.5271 7.6954 3.2238 8.8068 6.4437 6.3251 18.325-1.1806 5.652 0.0736 7.8903 6.302 11.247 7.1746 3.8667 9.4793 5.9161 15.745 14.001 8.5588 11.043 12.054 14.054 15.513 13.362 3.3698-0.67396 3.6623 0.14297 1.8478 5.1609-2.4029 6.645 0.79612 16.639 4.076 12.734 3.8191-4.5471 14.846-3.9603 25.436 1.3535 3.6477 1.8304 5.2061 2.1686 6.1982 1.3453 4.1332-3.4302 8.7223 4.2844 6.0514 10.173-1.1006 2.4266 4.6868 3.3076 8.8258 1.3435 2.7225-1.2919 8.6068-1.5219 37.143-1.4517 18.65 0.04586 35.033 0.0098 36.408-0.08024 6.6235-0.4335 79.69 0.95737 81 1.5419 9.5223 4.2495 8.9226 22.156-0.97167 29.013-4.2741 2.962-2.0674 2.9217-25.028 0.45712-33.352-3.5798-37.992-3.4845-38.015 0.78113-0.0282 5.1143-1.9639 6.3699-13.49 8.7507-4.3811 0.90494-9.7795 2.4477-11.996 3.4284-2.217 0.98067-8.446 2.3674-13.842 3.0816-11.537 1.527-10.299-0.19599-14.032 19.521-1.458 7.7-3.0706 15.575-3.5835 17.5s-2.1246 8.9-3.5815 15.5c-3.8446 17.416-5.4168 22.171-8.698 26.308-4.2192 5.3185-5.1209 5.5964-12.305 3.7918-5.9-1.48-23.47-2.28-23.47-1.07 0 3.2074 16.703 29.138 28.286 43.912 15.838 20.202 22.533 66.482 13.631 94.224-0.75749 2.3605-0.62088 4.6882 0.53752 9.1586 1.9585 7.5579-5.337 18.177-12.488 18.177-0.99225 0-3.078 0.65298-4.6351 1.4511-4.0909 2.0968-11.478 5.2604-14.02 6.0043-4.8929 1.4318-12.81 10.855-15.231 18.127-1.2664 3.8045-2.7026 7.3448-3.1915 7.8673-2.191 2.3416 0.29871 13.595 6.0952 27.55 2.9601 7.1264 4.6173 10.042 11.177 19.663 3.2388 4.7506 3.3478 5.422 1.4823 9.1362-3.2262 6.4235-0.45396 18.371 6.1511 26.509 3.2104 3.9555 6.5463 8.3168 7.4131 9.6918 0.86678 1.375 5.4264 6.6401 10.133 11.7 12.704 13.659 14.539 18.808 8.6594 24.3-3.3119 3.0938-3.6823 4-1.635 4 0.75077 0 4.0133 1.7989 7.25 3.9976 6.7945 4.6155 6.8314 4.6203 15.224 1.9895 15.315-4.8007 28.909 2.3397 29.146 15.309 0.0228 1.2454-10.188 5.6834-13.101 5.6942-1.4383 0.005-3.6883 0.83178-5 1.8364-9.2408 7.078-38.171 7.5582-43.84 0.72761-2.7387-3.3-17.17-8.2111-20.44-6.9561-1.9404 0.7446-5.6047 6.9288-5.6047 9.459 0 3.0844-18.01 2.9216-20.908-0.18899-2.9978-3.2177-6.7333-11.486-8.9766-19.868-1.1039-4.125-3.124-10.875-4.489-15-4.0622-12.275-4.7242-14.965-6.6467-27-2.3946-14.991-3.2929-18.83-5.3107-22.7-2.1768-4.1746-2.1048-6.5246 0.34696-11.33l2.0157-3.9511-4.1032-8.1608c-3.9135-7.7836-4.0488-8.3552-2.926-12.365 1.2629-4.5106 1.4619-3.9505-6.7241-18.927-1.222-2.2357-2.2345-4.7867-2.25-5.6689-0.0388-2.2082-4.3759-6.6975-7.6866-7.9563-2.8151-1.0703-6.6385 1.9072-10.808 8.4173-7.704 12.027-6.5222 51.055 2.1377 70.596 2.8804 6.4996 6.106 13.427 12.594 27.047 3.5371 7.425 6.7395 15.473 7.1164 17.885 0.37689 2.4116 1.5702 5.5098 2.6519 6.8849s1.9683 3.677 1.9704 5.1153c0.002 1.4383 0.83258 3.9743 1.8456 5.6354 7.982 13.089-5.9114 15.766-66.061 12.729zm33.144-5.3308c4.6302-2.4134 14.017-4.8246 19.068-4.8982 1.925-0.028 4.175-0.48715 5-1.0203 1.0445-0.67502-0.71131-0.97402-5.7823-0.98469-7.365-0.0155-19.878 3.7477-24.774 7.4507-3.1813 2.4061 1.5944 2.003 6.4878-0.54757zm142.13-2.8797c15.327-5.1264 15.045-6.6654-0.46421-2.5388-5.1677 1.375-10.724 2.5-12.346 2.5-3.7819 0-9.2489 1.8959-9.2489 3.2074 0 1.8527 12.351 0.0786 22.059-3.1687zm-173.98-2.5682c2.3842-0.8412 4.5783-1.9058 4.8757-2.3657 0.29745-0.45992 2.5658-1.8474 5.0408-3.0834s5.4-3.0441 6.5-4.018c6.5403-5.791 27.096-13.824 32.137-12.558 3.2111 0.80594 3.8125-1.0047 1.4402-4.3363-1.55-2.1768-3.166-3.045-6.6359-3.5654-4.2585-0.63861-13.218-3.6445-19.692-6.6063-8.7483-4.0027-2.3933-4.6582 9.0866-0.93721 13.393 4.341 12.972 4.8537 6.7518-8.2244-6.2413-13.123-10.355-24.416-11.119-30.526-1.5435-12.339-5.9354-4.6759-5.1551 8.9945 0.606 10.53 0.28 12.75-1.872 12.75-2.9101 0-3.9773-20.001-1.6808-31.5 0.65905-3.3 1.9094-10.725 2.7785-16.5 5.5824-37.092 14.451-52.587 36.379-63.565 8.3416-4.1758 15.465-5.7214 17.409-3.7772 1.0601 1.0601-1.3907 3.342-3.5894 3.342-2.4573 0-18.671 6.7499-20.666 8.6034-1.2332 1.1458-1.0607 2.0602 1.25 6.6273 1.4743 2.9139 2.6806 5.8751 2.6806 6.5803 0 0.70523 1.991 4.7488 4.4245 8.9856 2.4335 4.2369 5.2158 9.7284 6.183 12.203 0.96719 2.475 2.741 6.075 3.9419 8s3.8295 6.5177 5.8414 10.206 4.1342 7.0004 4.7164 7.3602c1.2501 0.7726 4.8929 8.9746 4.8929 11.017 0 3.0598-3.0266 1.1757-5.2395-3.2617-3.1455-6.3075-5.2183-6.99-4.2751-1.4077 0.529 3.1311 0.27972 4.796-1.0136 6.7698-1.6312 2.4894-1.6187 2.8672 0.25437 7.7171 3.9826 10.312 4.4487 12.404 3.2586 14.628-0.85603 1.5995-0.75037 3.5717 0.44718 8.3468 0.86243 3.4389 1.5681 7.2494 1.5681 8.4678 0 2.371 5.45 19.405 8.8487 27.657 1.1327 2.75 2.3098 6.2223 2.6159 7.7162l0.55654 2.7162 4.7394-2.5965c21.414-11.732 34.51-16.532 44.87-16.447 10.131 0.0825 9.5614-6.683-1.5433-18.341-4.22-4.42-11.7-13.44-16.63-20.04l-8.9573-12-0.75011-8.5c-0.90072-10.207-0.89341-9.649-0.18353-14 0.48069-2.9462-0.0988-4.5284-3.6627-10-4.684-7.1912-10.711-21.216-11.761-27.371-0.8165-4.7829-2.7613-5.7809-4.1496-2.1294-1.8365 4.8304-3.5061 2.3427-3.4211-5.0972 0.083-7.256 0.74153-9.1688 8.513-24.726 4.7089-9.4266 4.6821-9.0918 0.65806-8.233-15.837 3.3796-39.228 1.2238-47.75-4.4007-1.375-0.90749-7-2.9115-12.5-4.4533-13.858-3.89-31.357-14.94-46.43-29.34-8.893-8.49-16.133 0.85-9.989 12.89 1.061 2.08 1.929 4.41 1.929 5.18 0 0.76949 1.4109 4.043 3.1353 7.2746l3.1353 5.8755-0.59332 12.515c-0.6883 14.519 1.3097 33.992 4.4862 43.723 2.9752 9.1148 1.3685 17.153-6.5386 32.711-10.133 19.95-13.249 41.59-9.155 63.59 0.87004 4.675 2.2169 12.248 2.9931 16.829 2.4897 14.695 6.4875 18.216 16.621 14.641zm33.92-4.96c4.0775-2.0321 9.9828-2.7724 11.575-1.451 1.7563 1.4576 7.4251-0.55525 7.4251-2.6365 0-3.4427-11.05-4.2632-17.723-1.316-8.9394 3.9481-9.7626 4.4589-10.112 6.2745-0.39063 2.0284 3.8582 1.6095 8.8355-0.87094zm139.5-1.8016c2.75-1.1212 5.4275-2.415 5.95-2.8751 1.9333-1.7024-6.0903-0.72836-10.45 1.2686-6.319 2.8945-9.5287 2.62-18.357-1.5695-7.12-3.38-12.14-4.27-12.14-2.16 0 0.47711 2.2014 1.7322 4.8919 2.789 2.6905 1.0569 5.9682 2.7682 7.2836 3.8029 3.1003 2.4387 15.437 1.7643 22.825-1.2478zm-77.5-335.27c0-0.85682-2.706-5.6376-6.0132-10.624-6.12-9.23-12.99-22.57-12.99-25.23 0-2.9662-1.8152-2.4566-4.2029 1.1801-1.3478 2.0529-3.6964 5.6186-5.2192 7.9238-3.3471 5.0672-3.2806 5.196 4.7244 9.1368 4.212 2.0736 8.1541 5.0966 11.613 8.9056 8.39 9.23 9.47 10.26 10.81 10.26 0.7 0 1.27-0.7 1.27-1.56zm-153.73-14.44c4.759-2.1 5.734-3.45 5.734-7.88 0-3.6059 10.361-17.21 20.956-27.516l8.1205-7.8988 9.962 0.60691c11.857 0.72234 13.679-0.94807 3.9771-3.6455-13.496-3.7523-29.672 5.3645-41.906 23.618-1.694 2.5276-10.235 10.893-13.572 13.293-2.1117 1.5187-2.3388 6.0578-0.47725 9.5362 1.2599 2.3541 1.6477 2.3481 7.2061-0.11062zm170.48-39.76c6.44-0.49 12.25-4.66 12.25-8.8 0-0.81815 1.7958-3.4357 3.9906-5.8168s4.9652-6.5336 6.1563-9.2276c1.1911-2.6941 3.0093-6.0403 4.0404-7.4359s3.2435-7.4706 4.9164-13.5c3.2574-11.74 4.4864-14.966 6.7393-17.692 1.9224-2.3258 1.3195-2.4739-13.343-3.2771-7.8031-0.42746-12.525-1.127-13.5-2.0002-7.9364-7.1048-20.409-1.8441-22.539 9.5064-2.084 11.105-5.795 22.338-8.5274 25.812-2.1445 2.7263-4.205 9.1054-4.4214 13.688-0.0779 1.65-0.49881 4.2375-0.93533 5.75-0.68009 2.3565-0.50364 2.75 1.233 2.75 3.5417 0 5.1223 1.1069 7.4208 5.1966 2.4328 4.3287 6.3863 7.0875 8.7694 6.1194 0.825-0.33514 4.3119-0.82073 7.7486-1.0791zm39.12-0.57894c1.54-1.85 0.42-2.66-3.69-2.66-2.9283 0-4.2628-0.84136-8.3003-5.2331-5.725-6.2272-8.7806-5.7632-5.2995 0.80482 3.9137 7.3842 13.712 11.4 17.291 7.0862zm-71.101-1.6729c0.94-4.95-13.45-16.02-20.77-15.97-5.7095 0.0332-6.4625 3.3008-1 4.3397 5.7552 1.0946 9.9166 3.7626 13.516 8.6655 3.7804 5.1499 7.5768 6.5134 8.2522 2.9638zm-50.574-5.5964c9.1883 1.8377 18.74-2.7136 23.432-11.166 3.3057-5.9544 2.1522-7.2818-4.069-4.6824-4.5355 1.895-8.1902 1.8565-8.9388-0.0943-2.031-5.2926 16.459-12.423 19.957-7.6965 1.4072 1.9016 4.4255-3.2867 4.4255-7.6071 0-5.2498-10.991-10.046-12.655-5.5221-0.3803 1.0336-2.3864 3.3536-4.4581 5.1557s-4.9196 5.7136-6.3287 8.6922c-2.7855 5.8881-4.0666 7.2546-4.8609 5.1848-0.58035-1.5124 5.287-13.455 9.0055-18.33 1.8081-2.3706 2.3844-4.2335 2.1811-7.0504-0.49823-6.9004 1.6625-7.4809 7.8845-2.1184 7.3748 6.356 9.6764 5.2491 11.946-5.7451 2.6827-12.994 2.628-13.058-11.956-13.87-14.923-0.8307-15.407-0.95849-17.27-4.5609-3.54-6.848-1.24-8.413 12.67-8.618 19.1-0.281 22.11-2.534 17.84-13.364-1.1-2.7907-2-5.9574-2-7.037 0-2.7765-1.678-2.4388-5.1538 1.037-3.1909 3.1909-4.346 3.6182-5.3574 1.9818-0.97-1.56 3.44-7.982 5.47-7.982 4.839 0 4.4804-3.3642-0.58474-5.4852-1.7191-0.71985-3.9691-2.5061-5-3.9694-7.96-11.288-18.47-20.545-23.33-20.545-0.56037 0-2.3383 2.5875-3.951 5.75-4.327 8.478-21.843 24.17-27.1 24.275-0.825 0.01648-4.65 2.0469-8.5 4.5121s-9.025 5.4351-11.5 6.5998-5.1207 2.6228-5.8794 3.2402c-0.75864 0.61743-4.1336 1.8185-7.5 2.6691-10.745 2.7151-8.1361 7.9871 4.5718 9.2371 4.2198 0.4151 5.9954 0.19498 6.8633-0.85084 0.64397-0.77594 1.5992-1.1461 2.1227-0.82253 0.54454 0.33654 0.2821 1.3283-0.61331 2.3177-1.8 1.989-2.087 5.073-0.472 5.073 0.60149 0 1.3208-0.86887 1.5985-1.9308 0.6108-2.3357 2.3763-3.1255 5.2856-2.3647 2.7536 0.72007 2.038 4.5769-1.5491 8.3503-2.523 2.66-3.175 4.95-1.408 4.95 0.56179 0 1.5577-1.2375 2.2132-2.75 2.8282-6.5261 3.7208-7.3253 6.296-5.6379 1.4456 0.94719 2.1236 2.1254 1.7632 3.0643-0.32195 0.839 0.0068 1.8914 0.73054 2.3387 1.0262 0.63426 0.51987 2.4133-2.3004 8.0818-4.1446 8.3303-3.8196 10.95 0.69197 5.5763 4.4223-5.2673 6.7355-3.8865 3.0113 1.7974-1.9596 2.9907-1.5711 8.188 0.57266 7.66 3.6908-0.90893 4.5094-0.54861 4.8165 2.1198 0.17405 1.5127 1.1866 3.216 2.25 3.7852 1.425 0.76 1.933 2.1 1.933 5.11v4.0761l3.4721-0.65138c4.2355-0.79457 10 1.7552 9.1251 4.0359-0.31066 0.80956-0.03784 2.3158 0.60626 3.3472 0.96264 1.5414 0.73725 2.5122-1.2662 5.4536l-2.437 3.58-11.25 0.007c-10.522 0-11.25-0.13-11.25-1.97 0-3.35-6.558-9.03-10.426-9.03-7.4064 0-3.6868 6.5294 6.9263 12.159 2.2 1.1669 6.475 4.0462 9.5 6.3985 3.798 2.9534 7.9757 5.0238 13.5 6.6905l8 2.4136 2.7651-2.9525c2.3158-2.4726 3.2793-2.8497 5.9287-2.3198zm-10-80.59c-5.9716-5.9716 8.744-12.42 17.8-7.8 5.3547 2.7318 10.313 2.6313 12.334-0.25 1.3018-1.8562 1.7462-2.0006 2.5392-0.82483 0.68788 1.0198 0.21839 2.3992-1.6505 4.8495l-2.6118 3.4243-7.4039-0.37388c-5.55-0.28-7.71-0.805-8.66-2.099-1.7-2.32-2.22-2.212-6.193 1.274-3.809 3.345-4.423 3.524-6.147 1.8zm39.8-0.689c0-2.2747 3.5399-6.8976 4.528-5.9134 0.64 0.636-3.14 7.802-4.11 7.802-0.23 0-0.42-0.85-0.42-1.889zm94.09 79.281c1.71-2.06-1.08-4.39-5.25-4.39-1.6564 0-4.1508-1.2088-6.1909-3-5.4091-4.7492-7.4146-3.3077-4.1585 2.989 2.9513 5.7072 12.318 8.3516 15.596 4.4028zm-69.09-5.38c0-6.7508-24.507-18.067-26.707-12.333-1.1696 3.048 2.5342 6.3202 7.1538 6.3202 4.2022 0 9.9077 3.2273 15.409 8.7162 1.6504 1.6465 4.144 0.0195 4.144-2.7038zm69.35-7.26c0.8323-2.3375 2.415-7.0625 3.5171-10.5l2.0039-6.25h-3.3754c-1.8565 0-3.5973-0.35899-3.8684-0.79775-1.2886-2.085 1.7855-2.9782 12.375-3.5958 6.325-0.36891 13.361-0.8537 15.635-1.0773 5.2887-0.51994 12.935-4.0203 17.186-7.8679 2.1843-1.9768 3.2718-2.1295 2.9282-0.41122-0.1657 0.82852 1.3611 1.3532 4.5281 1.5559l4.7781 0.30593-0.65872-8.3059c-0.8394-10.584-2.4524-14.866-5.3177-14.117-1.699 0.44431-2.1958-0.0203-2.696-2.5213-0.33725-1.6863-1.408-3.7853-2.3796-4.6645-4.149-3.7547-6.7608 5.1985-3.408 11.682 1.1882 2.2978 1.3344 3.6267 0.57197 5.2003-0.56328 1.1626-1.3081 3.8344-1.6552 5.9372-0.49244 2.9836-0.91582 3.5871-1.9276 2.7474-0.99756-0.8279-1.0685-2.2292-0.30762-6.0774 1.24-6.27-3.93-20-7.52-20-2.3137 0-2.1908 1.7148 1.0321 14.396 1.5173 5.97 1.764 8.5918 1.0117 10.75-2.0487 5.8768-3.2127 3.1629-4.3517-10.146-1.3332-15.578-6.4299-14.7-5.6868 0.97945 0.57568 12.146 0.0831 14.966-2.2727 13.011-0.98-0.81-1.49-3.06-1.49-6.55 0-6.1824-0.74363-6.9726-4.6459-4.9374-1.5697 0.81869-3.5866 1.4913-4.482 1.4947-8.502 0.0322-11.19 4.2467-17.224 27.006-1.3852 5.225-2.8076 10.253-3.1608 11.173-0.91395 2.3802 2.8894 5.8273 6.4297 5.8273 2.5281 0 3.1192-0.56703 4.4306-4.25zm-66.246-11.04c3.8026-6.5557 7.0328-15.575 8.8495-24.71 2.3918-12.027 6.0659-20.917 10.649-25.769 4.45-4.709 5.68-8.231 2.87-8.231-2.99 0-8.02 2.81-11.42 6.381-1.89 1.99-4.03 3.619-4.75 3.619-2.5382 0-1.2495-2.7968 2.9244-6.3471 3.2122-2.7323 3.9489-3.8757 3.066-4.7587-0.88292-0.88292-1.8925-0.36261-4.2014 2.1653-3.5828 3.9226-5.396 3.1944-2.3396-0.9396 1.5182-2.0534 1.8063-3.1604 1.0258-3.9409-1.9461-1.9461-4.7484 0.67348-8.0796 7.5527-5.3222 10.991-7.5845 9.5147-3.2138-2.0972l2.4856-6.6036-2.4986-0.6271c-5.84-1.465-9.25 8.476-11.52 33.597-1.5698 17.323-2.61 25.323-3.738 28.749-1.0106 3.0691-0.92162 3.2802 1.6101 3.821 1.4739 0.31483 4.9298 1.3902 7.6798 2.3896 6.9354 2.5206 6.5966 2.6564 10.602-4.2492zm-81.183 1.4296c-1.399-0.46633-3.0156 1.895-2.2003 3.2141 0.32266 0.52208 1.2085 0.0988 1.9686-0.94071 0.98903-1.3526 1.0549-1.999 0.2317-2.2734zm-3.3185-6.8236c0.35178-1.8751 0.39818-3.6508 0.10312-3.9458-0.564-0.57-4.701 8.15-4.701 9.91 0 2.3666 4.0138-2.8385 4.6005-5.966zm-11.098-2.45c0-6.2126-0.18421-6.7366-3.2859-9.346-1.8073-1.5204-3.9696-4.0864-4.8052-5.7022-1.622-3.13-9.679-8.82-12.501-8.82-5.0083 0-9.3797 9.358-5.8595 12.544 1.1266 1.0195 3.6059 4.4178 5.5097 7.5517 3.6225 5.9632 4.8799 6.9003 9.2738 6.9112 1.4675 0.004 4.0182 0.90716 5.6682 2.0079 4.9329 3.2907 6 2.3762 6-5.1424zm-18.947-6.4782c-3.9363-4.1081-4.2955-4.8649-3.3227-7 1.4433-3.1676 1.5884-3.1039 6.5197 2.8628 7.3057 8.8397 4.6284 12.304-3.1971 4.1372zm302.49-12.14c5.5045-4.9325 5.6549-14.053 0.32659-19.802-5.9305-6.3991-15.712 5.9975-11.91 15.095 3.031 7.2543 6.9597 8.8507 11.584 4.7071zm-58.317-9-0.2201-3.75h19c20.494 0 23.193-0.55527 26.389-5.4297 1.5659-2.3878 1.5504-2.4144-0.89794-1.5389-6.06 2.167-41.49 1.15-41.49-1.191 0-3.9973-1.3796-3.5996-4.4896 1.2942-2.0344 3.2013-2.9043 5.62-2.5432 7.0714 1.9013 7.6426 4.6268 9.9138 4.2529 3.5441zm-94.72-7.25c0-0.56502-2.853-1-6.559-1-4.118 0-6.329 0.37216-5.941 1 0.33992 0.55 3.2915 1 6.559 1 3.29 0 5.94-0.446 5.94-1zm52.007-1.5042c3.06-1.893-2.03-2.496-21.07-2.496-19.28 0-20.94 0.139-20.94 1.751 0 1.7825 39.203 2.4774 42.007 0.74458zm-104.26-1.911c0.62382-0.62382 0.49264-0.63683-10.248-1.0159-7.6491-0.26997-13.5 0.28994-13.501 1.292-0.00063 0.79508 22.944 0.52835 23.749-0.27608zm-73.772-35.94c-0.01223-0.63002-0.85528-2.2291-1.8734-3.5535l-1.8512-2.408-1.7416 2.658c-0.958 1.462-2.365 2.658-3.127 2.658-1.6257 0-1.8516 3.1334-0.33512 4.6499 1.2567 1.2567 8.9629-2.1998 8.9279-4.0044zm10.426-8.829c2.176-1.927 3.596-4.098 3.596-5.5 0-2.7819-1.5667-3.0808-2.2597-0.43103-0.35556 1.3597-1.1544 1.7614-2.8666 1.4416-3.9082-0.73001-6.5511 1.8913-5.1056 5.0639 1.5266 3.3506 2.2753 3.2857 6.6355-0.57445zm18.585-14.303c2.0392-2.4571 0.49246-4.5298-3.0707-4.1149-3.1715 0.36927-5.2479 2.2606-4.2516 3.8726 0.29434 0.47626 1.1502 0.62989 1.902 0.34142 0.75175-0.28848 1.6328-0.09415 1.9579 0.43183 0.84453 1.3665 2.0398 1.1832 3.4624-0.53094z"/>
</svg>
