<?xml version="1.0" encoding="UTF-8" standalone="no"?>
<!-- Created with Inkscape (http://www.inkscape.org/) -->
<svg xmlns:svg="http://www.w3.org/2000/svg" xmlns="http://www.w3.org/2000/svg" xmlns:xlink="http://www.w3.org/1999/xlink" xmlns:inkscape="http://www.inkscape.org/namespaces/inkscape" version="1.0" width="269.05676" height="400.84433" id="svg11242">
  <defs id="defs3">
    <linearGradient id="linearGradient2361">
      <stop style="stop-color: rgb(255, 255, 255); stop-opacity: 1;" offset="0" id="stop2363"/>
      <stop style="stop-color: rgb(255, 255, 255); stop-opacity: 0;" offset="1" id="stop2365"/>
    </linearGradient>
    <linearGradient x1="394.93762" y1="25.35121" x2="422.18365" y2="60.379639" id="linearGradient11240" xlink:href="#linearGradient2361" gradientUnits="userSpaceOnUse"/>
    <linearGradient id="linearGradient14086">
      <stop style="stop-color: rgb(255, 193, 84); stop-opacity: 1;" offset="0" id="stop14088"/>
      <stop style="stop-color: rgb(228, 30, 24); stop-opacity: 1;" offset="0.7185185" id="stop14094"/>
      <stop style="stop-color: rgb(165, 0, 0); stop-opacity: 1;" offset="1" id="stop14090"/>
    </linearGradient>
    <radialGradient cx="82.129753" cy="294.44315" r="34.702995" fx="82.129753" fy="294.44315" id="radialGradient11238" xlink:href="#linearGradient14086" gradientUnits="userSpaceOnUse" gradientTransform="matrix(1.44943, 0, 0, 1.44991, 301.667, -377.636)"/>
    <filter id="filter11073">
      <feGaussianBlur id="feGaussianBlur11075" stdDeviation="1.3157986" inkscape:collect="always"/>
    </filter>
    <clipPath id="clipPath11111">
      <rect width="36.416" height="36.416" ry="0" x="247.13382" y="-157.33484" style="opacity: 1; fill: rgb(107, 107, 107); fill-opacity: 1; stroke: none; stroke-width: 15.117; stroke-miterlimit: 4; stroke-dasharray: none; stroke-opacity: 1;" id="rect11113"/>
    </clipPath>
    <filter id="filter11105">
      <feGaussianBlur id="feGaussianBlur11107" stdDeviation="1.4170139" inkscape:collect="always"/>
    </filter>
    <clipPath id="clipPath11115">
      <rect width="36.416" height="36.416" ry="0" x="247.13382" y="-157.33484" style="opacity: 1; fill: rgb(107, 107, 107); fill-opacity: 1; stroke: none; stroke-width: 15.117; stroke-miterlimit: 4; stroke-dasharray: none; stroke-opacity: 1;" id="rect11117"/>
    </clipPath>
    <clipPath id="clipPath11119">
      <rect width="36.416" height="36.416" ry="0" x="247.13382" y="-157.33484" style="opacity: 1; fill: rgb(107, 107, 107); fill-opacity: 1; stroke: none; stroke-width: 15.117; stroke-miterlimit: 4; stroke-dasharray: none; stroke-opacity: 1;" id="rect11121"/>
    </clipPath>
    <filter id="filter6541">
      <feGaussianBlur id="feGaussianBlur6543" stdDeviation="3.1069038" inkscape:collect="always"/>
    </filter>
    <clipPath id="clipPath4786">
      <path d="M 224.17563,-209.30998 C 221.72949,-213.53387 218.16338,-217.30787 213.9816,-219.55347 C 202.34534,-225.80209 180.53665,-224.10152 154.58923,-168.22542 C 154.42585,-167.89731 143.25958,-138.67763 141.98721,-135.44941 C 139.95143,-130.28424 120.16157,-101.91122 110.69746,-97.444545 C 110.69746,-97.444545 113.87518,-105.09026 109.55612,-112.57112 C 105.23703,-120.052 100.73212,-122.38448 93.316407,-116.10812 C 85.900717,-109.83176 92.584707,-88.964955 104.22097,-82.716335 C 115.85724,-76.467715 137.5717,-77.027805 163.51911,-132.90392 C 163.69067,-133.24843 174.95699,-163.62769 176.21537,-166.8204 C 178.2432,-171.96538 197.86458,-200.1136 207.37136,-204.74804 C 207.13663,-204.13504 204.6186,-194.83145 208.80271,-187.58437 C 213.12178,-180.10351 218.73324,-181.23108 226.14894,-187.50743 C 230.89962,-191.52822 228.53616,-201.78044 224.17563,-209.30998 z " style="fill: rgb(102, 102, 102); fill-opacity: 1; fill-rule: evenodd; stroke: none; stroke-width: 1.72443; stroke-linecap: butt; stroke-linejoin: miter; stroke-miterlimit: 4; stroke-dasharray: none; stroke-opacity: 1;" id="path4788"/>
    </clipPath>
    <filter id="filter3321">
      <feGaussianBlur inkscape:collect="always" stdDeviation="3.84278" id="feGaussianBlur3323"/>
    </filter>
    <linearGradient id="linearGradient5355">
      <stop style="stop-color: rgb(255, 255, 255); stop-opacity: 1;" offset="0" id="stop5357"/>
      <stop style="stop-color: rgb(255, 255, 255); stop-opacity: 0;" offset="1" id="stop5359"/>
    </linearGradient>
    <radialGradient cx="243.79347" cy="348.81863" r="1.042881" fx="243.79347" fy="348.81863" id="radialGradient11236" xlink:href="#linearGradient5355" gradientUnits="userSpaceOnUse" gradientTransform="matrix(-3.97264, 4.44925, -6.0491, -6.95442, 3359.37, 1040.84)"/>
    <linearGradient x1="181.65837" y1="346.63245" x2="181.87494" y2="356.53757" id="linearGradient11234" xlink:href="#linearGradient14971" gradientUnits="userSpaceOnUse" gradientTransform="matrix(1.17993, 1.09703, -1.09703, 1.17993, 507.311, -881.902)"/>
    <linearGradient x1="181.65837" y1="346.63245" x2="181.87494" y2="356.53757" id="linearGradient11232" xlink:href="#linearGradient14971" gradientUnits="userSpaceOnUse" gradientTransform="matrix(1.17993, 1.09703, -1.09703, 1.17993, 507.311, -881.902)"/>
    <linearGradient x1="181.65837" y1="346.63245" x2="181.87494" y2="356.53757" id="linearGradient11230" xlink:href="#linearGradient14971" gradientUnits="userSpaceOnUse" gradientTransform="matrix(1.17993, 1.09703, -1.09703, 1.17993, 507.311, -881.902)"/>
    <linearGradient x1="181.65837" y1="346.63245" x2="181.87494" y2="356.53757" id="linearGradient11228" xlink:href="#linearGradient14971" gradientUnits="userSpaceOnUse" gradientTransform="matrix(1.17993, 1.09703, -1.09703, 1.17993, 507.311, -881.902)"/>
    <linearGradient x1="181.65837" y1="346.63245" x2="181.87494" y2="356.53757" id="linearGradient11226" xlink:href="#linearGradient14971" gradientUnits="userSpaceOnUse" gradientTransform="matrix(1.17993, 1.09703, -1.09703, 1.17993, 507.311, -881.902)"/>
    <linearGradient x1="181.65837" y1="346.63245" x2="181.87494" y2="356.53757" id="linearGradient11224" xlink:href="#linearGradient14971" gradientUnits="userSpaceOnUse" gradientTransform="matrix(1.17993, 1.09703, -1.09703, 1.17993, 507.311, -881.902)"/>
    <linearGradient x1="181.65837" y1="346.63245" x2="181.87494" y2="356.53757" id="linearGradient11222" xlink:href="#linearGradient14971" gradientUnits="userSpaceOnUse" gradientTransform="matrix(1.17993, 1.09703, -1.09703, 1.17993, 507.311, -881.902)"/>
    <linearGradient x1="181.65837" y1="346.63245" x2="181.87494" y2="356.53757" id="linearGradient11220" xlink:href="#linearGradient14971" gradientUnits="userSpaceOnUse" gradientTransform="matrix(1.17993, 1.09703, -1.09703, 1.17993, 507.311, -881.902)"/>
    <linearGradient x1="181.65837" y1="346.63245" x2="181.87494" y2="356.53757" id="linearGradient11218" xlink:href="#linearGradient14971" gradientUnits="userSpaceOnUse" gradientTransform="matrix(1.17993, 1.09703, -1.09703, 1.17993, 507.311, -881.902)"/>
    <linearGradient x1="181.65837" y1="346.63245" x2="181.87494" y2="356.53757" id="linearGradient11216" xlink:href="#linearGradient14971" gradientUnits="userSpaceOnUse" gradientTransform="matrix(1.17993, 1.09703, -1.09703, 1.17993, 507.311, -881.902)"/>
    <linearGradient x1="181.65837" y1="346.63245" x2="181.87494" y2="356.53757" id="linearGradient11214" xlink:href="#linearGradient14971" gradientUnits="userSpaceOnUse" gradientTransform="matrix(1.17993, 1.09703, -1.09703, 1.17993, 507.311, -881.902)"/>
    <linearGradient x1="181.65837" y1="346.63245" x2="181.87494" y2="356.53757" id="linearGradient11212" xlink:href="#linearGradient14971" gradientUnits="userSpaceOnUse" gradientTransform="matrix(1.17993, 1.09703, -1.09703, 1.17993, 507.311, -881.902)"/>
    <linearGradient x1="181.65837" y1="346.63245" x2="181.87494" y2="356.53757" id="linearGradient11210" xlink:href="#linearGradient14971" gradientUnits="userSpaceOnUse" gradientTransform="matrix(1.17993, 1.09703, -1.09703, 1.17993, 507.311, -881.902)"/>
    <linearGradient x1="181.65837" y1="346.63245" x2="181.87494" y2="356.53757" id="linearGradient11208" xlink:href="#linearGradient14971" gradientUnits="userSpaceOnUse" gradientTransform="matrix(1.17993, 1.09703, -1.09703, 1.17993, 507.311, -881.902)"/>
    <linearGradient x1="181.65837" y1="346.63245" x2="181.87494" y2="356.53757" id="linearGradient11206" xlink:href="#linearGradient14971" gradientUnits="userSpaceOnUse" gradientTransform="matrix(1.17993, 1.09703, -1.09703, 1.17993, 507.311, -881.902)"/>
    <linearGradient x1="181.65837" y1="346.63245" x2="181.87494" y2="356.53757" id="linearGradient11204" xlink:href="#linearGradient14971" gradientUnits="userSpaceOnUse" gradientTransform="matrix(1.17993, 1.09703, -1.09703, 1.17993, 507.311, -881.902)"/>
    <linearGradient x1="181.65837" y1="346.63245" x2="181.87494" y2="356.53757" id="linearGradient11202" xlink:href="#linearGradient14971" gradientUnits="userSpaceOnUse" gradientTransform="matrix(1.17993, 1.09703, -1.09703, 1.17993, 507.311, -881.902)"/>
    <linearGradient x1="181.65837" y1="346.63245" x2="181.87494" y2="356.53757" id="linearGradient11200" xlink:href="#linearGradient14971" gradientUnits="userSpaceOnUse" gradientTransform="matrix(1.17993, 1.09703, -1.09703, 1.17993, 507.311, -881.902)"/>
    <linearGradient x1="181.65837" y1="346.63245" x2="181.87494" y2="356.53757" id="linearGradient11198" xlink:href="#linearGradient14971" gradientUnits="userSpaceOnUse" gradientTransform="matrix(1.17993, 1.09703, -1.09703, 1.17993, 507.311, -881.902)"/>
    <linearGradient x1="181.65837" y1="346.63245" x2="181.87494" y2="356.53757" id="linearGradient11196" xlink:href="#linearGradient14971" gradientUnits="userSpaceOnUse" gradientTransform="matrix(1.17993, 1.09703, -1.09703, 1.17993, 507.311, -881.902)"/>
    <linearGradient x1="181.65837" y1="346.63245" x2="181.87494" y2="356.53757" id="linearGradient11194" xlink:href="#linearGradient14971" gradientUnits="userSpaceOnUse" gradientTransform="matrix(1.17993, 1.09703, -1.09703, 1.17993, 507.311, -881.902)"/>
    <linearGradient x1="181.65837" y1="346.63245" x2="181.87494" y2="356.53757" id="linearGradient11192" xlink:href="#linearGradient14971" gradientUnits="userSpaceOnUse" gradientTransform="matrix(1.17993, 1.09703, -1.09703, 1.17993, 507.311, -881.902)"/>
    <linearGradient x1="181.65837" y1="346.63245" x2="181.87494" y2="356.53757" id="linearGradient11190" xlink:href="#linearGradient14971" gradientUnits="userSpaceOnUse" gradientTransform="matrix(1.17993, 1.09703, -1.09703, 1.17993, 507.311, -881.902)"/>
    <linearGradient id="linearGradient14971">
      <stop style="stop-color: rgb(80, 45, 22); stop-opacity: 1;" offset="0" id="stop14973"/>
      <stop style="stop-color: rgb(42, 23, 11); stop-opacity: 1;" offset="1" id="stop14975"/>
    </linearGradient>
    <linearGradient x1="181.65837" y1="346.63245" x2="181.87494" y2="356.53757" id="linearGradient11188" xlink:href="#linearGradient14971" gradientUnits="userSpaceOnUse" gradientTransform="matrix(1.17993, 1.09703, -1.09703, 1.17993, 507.311, -881.902)"/>
    <linearGradient id="linearGradient13025">
      <stop style="stop-color: rgb(255, 255, 255); stop-opacity: 1;" offset="0" id="stop13029"/>
      <stop style="stop-color: rgb(191, 191, 191); stop-opacity: 1;" offset="0.68888891" id="stop4382"/>
      <stop style="stop-color: rgb(82, 82, 82); stop-opacity: 1;" offset="1" id="stop13031"/>
    </linearGradient>
    <radialGradient cx="142.22385" cy="348.25116" r="7.7043791" fx="142.22385" fy="348.25116" id="radialGradient11186" xlink:href="#linearGradient13025" gradientUnits="userSpaceOnUse" gradientTransform="matrix(0.636854, 0.262629, -0.654994, 1.58831, 281.887, -244.822)"/>
    <filter id="filter6450" height="1.1216018" y="-0.06080088" width="1.2338396" x="-0.11691982">
      <feGaussianBlur id="feGaussianBlur6452" stdDeviation="10.629343" inkscape:collect="always"/>
    </filter>
    <clipPath id="clipPath6461">
      <path d="M 171.59375,-167.8125 L 153.4375,-131.09375 C 153.4375,-131.09375 240.05975,-44.592207 260.53125,61.53125 C 263.78902,59.713413 267.53809,58.6875 271.53125,58.6875 C 283.99674,58.687502 294.11733,68.78455 294.15625,81.25 L 294.15625,81.3125 C 294.15624,93.802829 284.02158,103.9375 271.53125,103.9375 C 269.20004,103.9375 266.9604,103.59314 264.84375,102.9375 C 265.00283,118.53432 263.43644,134.33614 259.71875,150.1875 C 279.93177,155.71176 336.35552,161.63753 367.0625,234.84375 C 388.95186,159.67792 354.15709,-29.134107 171.59375,-167.8125 z " style="overflow: visible; marker: none; opacity: 1; color: rgb(0, 0, 0); fill: rgb(195, 195, 195); fill-opacity: 1; fill-rule: nonzero; stroke: url(#linearGradient6465) rgb(0, 0, 0); stroke-width: 5.31668; stroke-linecap: butt; stroke-linejoin: miter; stroke-miterlimit: 4; stroke-dasharray: none; stroke-dashoffset: 0pt; stroke-opacity: 1; visibility: visible; display: inline;" id="path6463"/>
    </clipPath>
    <clipPath id="clipPath6467">
      <path d="M 171.59375,-167.8125 L 153.4375,-131.09375 C 153.4375,-131.09375 240.05975,-44.592207 260.53125,61.53125 C 263.78902,59.713413 267.53809,58.6875 271.53125,58.6875 C 283.99674,58.687502 294.11733,68.78455 294.15625,81.25 L 294.15625,81.3125 C 294.15624,93.802829 284.02158,103.9375 271.53125,103.9375 C 269.20004,103.9375 266.9604,103.59314 264.84375,102.9375 C 265.00283,118.53432 263.43644,134.33614 259.71875,150.1875 C 279.93177,155.71176 336.35552,161.63753 367.0625,234.84375 C 388.95186,159.67792 354.15709,-29.134107 171.59375,-167.8125 z " style="overflow: visible; marker: none; opacity: 1; color: rgb(0, 0, 0); fill: rgb(195, 195, 195); fill-opacity: 1; fill-rule: nonzero; stroke: url(#linearGradient6471) rgb(0, 0, 0); stroke-width: 5.31668; stroke-linecap: butt; stroke-linejoin: miter; stroke-miterlimit: 4; stroke-dasharray: none; stroke-dashoffset: 0pt; stroke-opacity: 1; visibility: visible; display: inline;" id="path6469"/>
    </clipPath>
    <linearGradient id="linearGradient6110">
      <stop style="stop-color: rgb(110, 110, 110); stop-opacity: 1;" offset="0" id="stop6112"/>
      <stop style="stop-color: rgb(255, 255, 255); stop-opacity: 1;" offset="0.5" id="stop6118"/>
      <stop style="stop-color: rgb(161, 161, 161); stop-opacity: 1;" offset="1" id="stop6114"/>
    </linearGradient>
    <linearGradient x1="365.06906" y1="318.85867" x2="375.43167" y2="352.76584" id="linearGradient11184" xlink:href="#linearGradient6110" gradientUnits="userSpaceOnUse" gradientTransform="matrix(0.906182, 1.33211, -1.33211, 0.906182, 401.826, -748.875)" spreadMethod="reflect"/>
  </defs>
  <g transform="translate(-14.043, -29.0829)" id="layer1">
    <g transform="matrix(0.766419, 0, 0, 0.766419, -4.70789, 247.901)" id="g11138">
      <path d="M 171.59375,-167.8125 L 153.4375,-131.09375 C 153.4375,-131.09375 240.05975,-44.592207 260.53125,61.53125 C 263.78902,59.713413 267.53809,58.6875 271.53125,58.6875 C 283.99674,58.687502 294.11733,68.78455 294.15625,81.25 L 294.15625,81.3125 C 294.15624,93.802829 284.02158,103.9375 271.53125,103.9375 C 269.20004,103.9375 266.9604,103.59314 264.84375,102.9375 C 265.00283,118.53432 263.43644,134.33614 259.71875,150.1875 C 279.93177,155.71176 336.35552,161.63753 367.0625,234.84375 C 388.95186,159.67792 354.15709,-29.134107 171.59375,-167.8125 z " style="overflow: visible; marker: none; color: rgb(0, 0, 0); fill: rgb(195, 195, 195); fill-opacity: 1; fill-rule: nonzero; stroke: url(#linearGradient11184) rgb(0, 0, 0); stroke-width: 5.31668; stroke-linecap: butt; stroke-linejoin: miter; stroke-miterlimit: 4; stroke-dasharray: none; stroke-dashoffset: 0pt; stroke-opacity: 1; visibility: visible; display: inline;" clip-path="url(#clipPath6467)" id="rect7099"/>
      <path d="M 334.53559,241.91482 C 356.42495,166.74899 321.63018,-22.063039 139.06684,-160.74143" style="overflow: visible; marker: none; color: rgb(0, 0, 0); fill: none; fill-opacity: 1; fill-rule: nonzero; stroke: rgb(255, 255, 255); stroke-width: 16.917; stroke-linecap: butt; stroke-linejoin: miter; stroke-miterlimit: 4; stroke-dasharray: none; stroke-dashoffset: 0pt; stroke-opacity: 1; visibility: visible; display: inline; filter: url(#filter6450);" clip-path="url(#clipPath6461)" id="path5425"/>
      <g transform="translate(-248.194, 50.2046)" id="g4743">
        <path d="M 155.1771,350.48547 A 7.7043791,14.085784 0 1 1 155.17706,350.44149" transform="matrix(1.17993, 1.09703, -1.09703, 1.17993, 503.193, -887.785)" style="overflow: visible; marker: none; color: rgb(0, 0, 0); fill: url(#radialGradient11186) rgb(0, 0, 0); fill-opacity: 1; fill-rule: nonzero; stroke: none; stroke-width: 3.3; stroke-linecap: butt; stroke-linejoin: miter; stroke-miterlimit: 4; stroke-dasharray: none; stroke-dashoffset: 0pt; stroke-opacity: 1; visibility: visible; display: inline;" id="path11077"/>
        <path d="M 314.44939,-319.11336 C 316.75285,-316.97173 313.8088,-310.08654 307.84837,-303.67569 L 302.69306,-298.13082 C 296.73263,-291.71998 290.07977,-288.28302 287.7763,-290.42465 C 285.47283,-292.56628 288.41688,-299.45147 294.37731,-305.86232 L 299.53261,-311.4072 C 305.49304,-317.81804 312.14592,-321.25498 314.44939,-319.11336 z " style="overflow: visible; marker: none; color: rgb(0, 0, 0); fill: url(#linearGradient11188) rgb(0, 0, 0); fill-opacity: 1; fill-rule: nonzero; stroke: rgb(95, 63, 49); stroke-width: 1.2325; stroke-linecap: butt; stroke-linejoin: miter; stroke-miterlimit: 4; stroke-dasharray: none; stroke-dashoffset: 0pt; stroke-opacity: 1; visibility: visible; display: inline;" id="path15994"/>
        <path d="M 319.16909,-314.72524 C 321.47255,-312.58362 318.5285,-305.69843 312.56806,-299.28759 L 307.41277,-293.74271 C 301.45234,-287.33187 294.79947,-283.89491 292.49601,-286.03654 C 290.19254,-288.17817 293.13659,-295.06337 299.09701,-301.47422 L 304.25232,-307.0191 C 310.21275,-313.42994 316.86563,-316.86688 319.16909,-314.72524 z " style="overflow: visible; marker: none; color: rgb(0, 0, 0); fill: url(#linearGradient11190) rgb(0, 0, 0); fill-opacity: 1; fill-rule: nonzero; stroke: rgb(95, 63, 49); stroke-width: 1.2325; stroke-linecap: butt; stroke-linejoin: miter; stroke-miterlimit: 4; stroke-dasharray: none; stroke-dashoffset: 0pt; stroke-opacity: 1; visibility: visible; display: inline;" id="path15992"/>
        <path d="M 323.8888,-310.33713 C 326.19226,-308.19551 323.2482,-301.31032 317.28777,-294.89948 L 312.13248,-289.3546 C 306.17204,-282.94375 299.51917,-279.50681 297.21571,-281.64844 C 294.91225,-283.79006 297.85628,-290.67526 303.81672,-297.08611 L 308.97202,-302.63098 C 314.93246,-309.04183 321.58533,-312.47876 323.8888,-310.33713 z " style="overflow: visible; marker: none; color: rgb(0, 0, 0); fill: url(#linearGradient11192) rgb(0, 0, 0); fill-opacity: 1; fill-rule: nonzero; stroke: rgb(95, 63, 49); stroke-width: 1.2325; stroke-linecap: butt; stroke-linejoin: miter; stroke-miterlimit: 4; stroke-dasharray: none; stroke-dashoffset: 0pt; stroke-opacity: 1; visibility: visible; display: inline;" id="path15990"/>
        <path d="M 328.6085,-305.94903 C 330.91197,-303.8074 327.96791,-296.92222 322.00748,-290.51137 L 316.85217,-284.9665 C 310.89174,-278.55565 304.23888,-275.1187 301.93541,-277.26033 C 299.63195,-279.40196 302.57599,-286.28715 308.53642,-292.69801 L 313.69173,-298.24287 C 319.65215,-304.65372 326.30504,-308.09065 328.6085,-305.94903 z " style="overflow: visible; marker: none; color: rgb(0, 0, 0); fill: url(#linearGradient11194) rgb(0, 0, 0); fill-opacity: 1; fill-rule: nonzero; stroke: rgb(95, 63, 49); stroke-width: 1.2325; stroke-linecap: butt; stroke-linejoin: miter; stroke-miterlimit: 4; stroke-dasharray: none; stroke-dashoffset: 0pt; stroke-opacity: 1; visibility: visible; display: inline;" id="path15988"/>
        <path d="M 333.32821,-301.56092 C 335.63167,-299.41929 332.68762,-292.53411 326.72719,-286.12327 L 321.57188,-280.57839 C 315.61145,-274.16754 308.95858,-270.7306 306.65512,-272.87222 C 304.35165,-275.01385 307.2957,-281.89905 313.25613,-288.3099 L 318.41143,-293.85477 C 324.37186,-300.26562 331.02474,-303.70255 333.32821,-301.56092 z " style="overflow: visible; marker: none; color: rgb(0, 0, 0); fill: url(#linearGradient11196) rgb(0, 0, 0); fill-opacity: 1; fill-rule: nonzero; stroke: rgb(95, 63, 49); stroke-width: 1.2325; stroke-linecap: butt; stroke-linejoin: miter; stroke-miterlimit: 4; stroke-dasharray: none; stroke-dashoffset: 0pt; stroke-opacity: 1; visibility: visible; display: inline;" id="path15986"/>
        <path d="M 338.04791,-297.17282 C 340.35137,-295.03119 337.40732,-288.146 331.44689,-281.73516 L 326.29159,-276.19028 C 320.33116,-269.77943 313.67829,-266.34249 311.37482,-268.48412 C 309.07136,-270.62574 312.01541,-277.51094 317.97583,-283.92179 L 323.13114,-289.46666 C 329.09157,-295.87751 335.74445,-299.31444 338.04791,-297.17282 z " style="overflow: visible; marker: none; color: rgb(0, 0, 0); fill: url(#linearGradient11198) rgb(0, 0, 0); fill-opacity: 1; fill-rule: nonzero; stroke: rgb(95, 63, 49); stroke-width: 1.2325; stroke-linecap: butt; stroke-linejoin: miter; stroke-miterlimit: 4; stroke-dasharray: none; stroke-dashoffset: 0pt; stroke-opacity: 1; visibility: visible; display: inline;" id="path15984"/>
        <path d="M 342.76761,-292.78471 C 345.07108,-290.64308 342.12703,-283.7579 336.16659,-277.34705 L 331.0113,-271.80218 C 325.05086,-265.39133 318.39799,-261.95438 316.09453,-264.09601 C 313.79107,-266.23764 316.7351,-273.12283 322.69554,-279.53368 L 327.85084,-285.07855 C 333.81128,-291.4894 340.46415,-294.92634 342.76761,-292.78471 z " style="overflow: visible; marker: none; color: rgb(0, 0, 0); fill: url(#linearGradient11200) rgb(0, 0, 0); fill-opacity: 1; fill-rule: nonzero; stroke: rgb(95, 63, 49); stroke-width: 1.2325; stroke-linecap: butt; stroke-linejoin: miter; stroke-miterlimit: 4; stroke-dasharray: none; stroke-dashoffset: 0pt; stroke-opacity: 1; visibility: visible; display: inline;" id="path15982"/>
        <path d="M 347.48732,-288.3966 C 349.79079,-286.25498 346.84673,-279.36979 340.8863,-272.95894 L 335.73099,-267.41407 C 329.77056,-261.00322 323.1177,-257.56628 320.81423,-259.7079 C 318.51077,-261.84953 321.45481,-268.73473 327.41524,-275.14557 L 332.57054,-280.69045 C 338.53097,-287.10129 345.18385,-290.53823 347.48732,-288.3966 z " style="overflow: visible; marker: none; color: rgb(0, 0, 0); fill: url(#linearGradient11202) rgb(0, 0, 0); fill-opacity: 1; fill-rule: nonzero; stroke: rgb(95, 63, 49); stroke-width: 1.2325; stroke-linecap: butt; stroke-linejoin: miter; stroke-miterlimit: 4; stroke-dasharray: none; stroke-dashoffset: 0pt; stroke-opacity: 1; visibility: visible; display: inline;" id="path15980"/>
        <path d="M 352.20703,-284.0085 C 354.51048,-281.86687 351.56644,-274.98168 345.60601,-268.57083 L 340.4507,-263.02597 C 334.49027,-256.61511 327.8374,-253.17817 325.53394,-255.3198 C 323.23047,-257.46142 326.17452,-264.34662 332.13495,-270.75746 L 337.29025,-276.30234 C 343.25068,-282.71318 349.90356,-286.15012 352.20703,-284.0085 z " style="overflow: visible; marker: none; color: rgb(0, 0, 0); fill: url(#linearGradient11204) rgb(0, 0, 0); fill-opacity: 1; fill-rule: nonzero; stroke: rgb(95, 63, 49); stroke-width: 1.2325; stroke-linecap: butt; stroke-linejoin: miter; stroke-miterlimit: 4; stroke-dasharray: none; stroke-dashoffset: 0pt; stroke-opacity: 1; visibility: visible; display: inline;" id="path15978"/>
        <path d="M 356.92672,-279.62039 C 359.23019,-277.47876 356.28614,-270.59358 350.32571,-264.18273 L 345.17041,-258.63786 C 339.20998,-252.22701 332.55711,-248.79006 330.25364,-250.93169 C 327.95018,-253.07332 330.89423,-259.95851 336.85465,-266.36936 L 342.00996,-271.91423 C 347.97039,-278.32508 354.62327,-281.76202 356.92672,-279.62039 z " style="overflow: visible; marker: none; color: rgb(0, 0, 0); fill: url(#linearGradient11206) rgb(0, 0, 0); fill-opacity: 1; fill-rule: nonzero; stroke: rgb(95, 63, 49); stroke-width: 1.2325; stroke-linecap: butt; stroke-linejoin: miter; stroke-miterlimit: 4; stroke-dasharray: none; stroke-dashoffset: 0pt; stroke-opacity: 1; visibility: visible; display: inline;" id="path15976"/>
        <path d="M 361.64643,-275.23228 C 363.9499,-273.09066 361.00585,-266.20547 355.04541,-259.79462 L 349.89012,-254.24975 C 343.92968,-247.8389 337.27681,-244.40196 334.97335,-246.54358 C 332.66989,-248.68521 335.61392,-255.57041 341.57436,-261.98125 L 346.72965,-267.52613 C 352.69009,-273.93697 359.34298,-277.37391 361.64643,-275.23228 z " style="overflow: visible; marker: none; color: rgb(0, 0, 0); fill: url(#linearGradient11208) rgb(0, 0, 0); fill-opacity: 1; fill-rule: nonzero; stroke: rgb(95, 63, 49); stroke-width: 1.2325; stroke-linecap: butt; stroke-linejoin: miter; stroke-miterlimit: 4; stroke-dasharray: none; stroke-dashoffset: 0pt; stroke-opacity: 1; visibility: visible; display: inline;" id="path15974"/>
        <path d="M 366.36614,-270.84418 C 368.66961,-268.70255 365.72555,-261.81736 359.76512,-255.40651 L 354.60981,-249.86164 C 348.64938,-243.45079 341.99652,-240.01385 339.69305,-242.15547 C 337.38959,-244.2971 340.33363,-251.1823 346.29406,-257.59314 L 351.44936,-263.13802 C 357.40979,-269.54886 364.06267,-272.9858 366.36614,-270.84418 z " style="overflow: visible; marker: none; color: rgb(0, 0, 0); fill: url(#linearGradient11210) rgb(0, 0, 0); fill-opacity: 1; fill-rule: nonzero; stroke: rgb(95, 63, 49); stroke-width: 1.2325; stroke-linecap: butt; stroke-linejoin: miter; stroke-miterlimit: 4; stroke-dasharray: none; stroke-dashoffset: 0pt; stroke-opacity: 1; visibility: visible; display: inline;" id="path15972"/>
        <path d="M 371.08585,-266.45607 C 373.38931,-264.31444 370.44525,-257.42925 364.48482,-251.01841 L 359.32952,-245.47353 C 353.36909,-239.06269 346.71622,-235.62574 344.41276,-237.76736 C 342.10929,-239.90899 345.05333,-246.7942 351.01376,-253.20504 L 356.16907,-258.74991 C 362.1295,-265.16076 368.78238,-268.5977 371.08585,-266.45607 z " style="overflow: visible; marker: none; color: rgb(0, 0, 0); fill: url(#linearGradient11212) rgb(0, 0, 0); fill-opacity: 1; fill-rule: nonzero; stroke: rgb(95, 63, 49); stroke-width: 1.2325; stroke-linecap: butt; stroke-linejoin: miter; stroke-miterlimit: 4; stroke-dasharray: none; stroke-dashoffset: 0pt; stroke-opacity: 1; visibility: visible; display: inline;" id="path15970"/>
        <path d="M 375.80555,-262.06796 C 378.10901,-259.92634 375.16496,-253.04114 369.20453,-246.6303 L 364.04923,-241.08542 C 358.0888,-234.67458 351.43593,-231.23764 349.13246,-233.37926 C 346.829,-235.52088 349.77304,-242.40609 355.73347,-248.81693 L 360.88878,-254.36181 C 366.84921,-260.77265 373.50209,-264.20959 375.80555,-262.06796 z " style="overflow: visible; marker: none; color: rgb(0, 0, 0); fill: url(#linearGradient11214) rgb(0, 0, 0); fill-opacity: 1; fill-rule: nonzero; stroke: rgb(95, 63, 49); stroke-width: 1.2325; stroke-linecap: butt; stroke-linejoin: miter; stroke-miterlimit: 4; stroke-dasharray: none; stroke-dashoffset: 0pt; stroke-opacity: 1; visibility: visible; display: inline;" id="path15968"/>
        <path d="M 380.52525,-257.67986 C 382.82872,-255.53823 379.88467,-248.65304 373.92423,-242.24219 L 368.76893,-236.69732 C 362.80849,-230.28648 356.15563,-226.84952 353.85217,-228.99115 C 351.5487,-231.13278 354.49275,-238.01798 360.45318,-244.42882 L 365.60847,-249.9737 C 371.56891,-256.38454 378.2218,-259.82148 380.52525,-257.67986 z " style="overflow: visible; marker: none; color: rgb(0, 0, 0); fill: url(#linearGradient11216) rgb(0, 0, 0); fill-opacity: 1; fill-rule: nonzero; stroke: rgb(95, 63, 49); stroke-width: 1.2325; stroke-linecap: butt; stroke-linejoin: miter; stroke-miterlimit: 4; stroke-dasharray: none; stroke-dashoffset: 0pt; stroke-opacity: 1; visibility: visible; display: inline;" id="path15966"/>
        <path d="M 385.24496,-253.29175 C 387.54843,-251.15012 384.60437,-244.26493 378.64394,-237.85409 L 373.48863,-232.30921 C 367.5282,-225.89837 360.87533,-222.46142 358.57187,-224.60304 C 356.26841,-226.74467 359.21245,-233.62987 365.17289,-240.04072 L 370.32818,-245.5856 C 376.28861,-251.99644 382.94149,-255.43338 385.24496,-253.29175 z " style="overflow: visible; marker: none; color: rgb(0, 0, 0); fill: url(#linearGradient11218) rgb(0, 0, 0); fill-opacity: 1; fill-rule: nonzero; stroke: rgb(95, 63, 49); stroke-width: 1.2325; stroke-linecap: butt; stroke-linejoin: miter; stroke-miterlimit: 4; stroke-dasharray: none; stroke-dashoffset: 0pt; stroke-opacity: 1; visibility: visible; display: inline;" id="path15964"/>
        <path d="M 389.96467,-248.90364 C 392.26813,-246.76202 389.32407,-239.87682 383.36364,-233.46598 L 378.20834,-227.9211 C 372.24791,-221.51026 365.59504,-218.07331 363.29157,-220.21494 C 360.98812,-222.35656 363.93215,-229.24176 369.89258,-235.65261 L 375.04789,-241.19749 C 381.00832,-247.60833 387.6612,-251.04527 389.96467,-248.90364 z " style="overflow: visible; marker: none; color: rgb(0, 0, 0); fill: url(#linearGradient11220) rgb(0, 0, 0); fill-opacity: 1; fill-rule: nonzero; stroke: rgb(95, 63, 49); stroke-width: 1.2325; stroke-linecap: butt; stroke-linejoin: miter; stroke-miterlimit: 4; stroke-dasharray: none; stroke-dashoffset: 0pt; stroke-opacity: 1; visibility: visible; display: inline;" id="path15962"/>
        <path d="M 394.68437,-244.51554 C 396.98783,-242.37391 394.04378,-235.48872 388.08335,-229.07788 L 382.92805,-223.533 C 376.96762,-217.12216 370.31475,-213.6852 368.01128,-215.82683 C 365.70781,-217.96846 368.65186,-224.85365 374.61229,-231.26451 L 379.7676,-236.80938 C 385.72803,-243.22022 392.38091,-246.65716 394.68437,-244.51554 z " style="overflow: visible; marker: none; color: rgb(0, 0, 0); fill: url(#linearGradient11222) rgb(0, 0, 0); fill-opacity: 1; fill-rule: nonzero; stroke: rgb(95, 63, 49); stroke-width: 1.2325; stroke-linecap: butt; stroke-linejoin: miter; stroke-miterlimit: 4; stroke-dasharray: none; stroke-dashoffset: 0pt; stroke-opacity: 1; visibility: visible; display: inline;" id="path15960"/>
        <path d="M 399.40407,-240.12742 C 401.70754,-237.9858 398.76349,-231.10061 392.80305,-224.68977 L 387.64775,-219.14489 C 381.68731,-212.73404 375.03445,-209.2971 372.73099,-211.43872 C 370.42752,-213.58035 373.37157,-220.46555 379.332,-226.8764 L 384.4873,-232.42128 C 390.44773,-238.83212 397.10061,-242.26906 399.40407,-240.12742 z " style="overflow: visible; marker: none; color: rgb(0, 0, 0); fill: url(#linearGradient11224) rgb(0, 0, 0); fill-opacity: 1; fill-rule: nonzero; stroke: rgb(95, 63, 49); stroke-width: 1.2325; stroke-linecap: butt; stroke-linejoin: miter; stroke-miterlimit: 4; stroke-dasharray: none; stroke-dashoffset: 0pt; stroke-opacity: 1; visibility: visible; display: inline;" id="path15958"/>
        <path d="M 404.12378,-235.73932 C 406.42724,-233.59769 403.48319,-226.7125 397.52276,-220.30166 L 392.36746,-214.75679 C 386.40702,-208.34593 379.75415,-204.90899 377.4507,-207.05062 C 375.14723,-209.19224 378.09127,-216.07744 384.05171,-222.48829 L 389.207,-228.03316 C 395.16744,-234.44401 401.82031,-237.88094 404.12378,-235.73932 z " style="overflow: visible; marker: none; color: rgb(0, 0, 0); fill: url(#linearGradient11226) rgb(0, 0, 0); fill-opacity: 1; fill-rule: nonzero; stroke: rgb(95, 63, 49); stroke-width: 1.2325; stroke-linecap: butt; stroke-linejoin: miter; stroke-miterlimit: 4; stroke-dasharray: none; stroke-dashoffset: 0pt; stroke-opacity: 1; visibility: visible; display: inline;" id="path15956"/>
        <path d="M 408.84348,-231.35121 C 411.14695,-229.20958 408.20289,-222.3244 402.24246,-215.91356 L 397.08716,-210.36868 C 391.12673,-203.95783 384.47386,-200.52088 382.17039,-202.66251 C 379.86694,-204.80414 382.81097,-211.68933 388.7714,-218.10019 L 393.92671,-223.64505 C 399.88714,-230.05591 406.54002,-233.49284 408.84348,-231.35121 z " style="overflow: visible; marker: none; color: rgb(0, 0, 0); fill: url(#linearGradient11228) rgb(0, 0, 0); fill-opacity: 1; fill-rule: nonzero; stroke: rgb(95, 63, 49); stroke-width: 1.2325; stroke-linecap: butt; stroke-linejoin: miter; stroke-miterlimit: 4; stroke-dasharray: none; stroke-dashoffset: 0pt; stroke-opacity: 1; visibility: visible; display: inline;" id="path15954"/>
        <path d="M 413.56319,-226.9631 C 415.86665,-224.82148 412.9226,-217.93629 406.96217,-211.52545 L 401.80687,-205.98057 C 395.84644,-199.56972 389.19357,-196.13278 386.8901,-198.2744 C 384.58663,-200.41603 387.53068,-207.30123 393.49111,-213.71208 L 398.64641,-219.25695 C 404.60684,-225.6678 411.25973,-229.10473 413.56319,-226.9631 z " style="overflow: visible; marker: none; color: rgb(0, 0, 0); fill: url(#linearGradient11230) rgb(0, 0, 0); fill-opacity: 1; fill-rule: nonzero; stroke: rgb(95, 63, 49); stroke-width: 1.2325; stroke-linecap: butt; stroke-linejoin: miter; stroke-miterlimit: 4; stroke-dasharray: none; stroke-dashoffset: 0pt; stroke-opacity: 1; visibility: visible; display: inline;" id="path15952"/>
        <path d="M 418.28289,-222.575 C 420.58636,-220.43337 417.64231,-213.54819 411.68187,-207.13733 L 406.52657,-201.59247 C 400.56614,-195.18161 393.91327,-191.74467 391.60981,-193.8863 C 389.30634,-196.02792 392.25039,-202.91312 398.21082,-209.32397 L 403.36612,-214.86884 C 409.32655,-221.27969 415.97943,-224.71662 418.28289,-222.575 z " style="overflow: visible; marker: none; color: rgb(0, 0, 0); fill: url(#linearGradient11232) rgb(0, 0, 0); fill-opacity: 1; fill-rule: nonzero; stroke: rgb(95, 63, 49); stroke-width: 1.2325; stroke-linecap: butt; stroke-linejoin: miter; stroke-miterlimit: 4; stroke-dasharray: none; stroke-dashoffset: 0pt; stroke-opacity: 1; visibility: visible; display: inline;" id="path15950"/>
        <path d="M 423.0026,-218.18689 C 425.30606,-216.04526 422.362,-209.16008 416.40157,-202.74923 L 411.24628,-197.20436 C 405.28584,-190.79351 398.63297,-187.35656 396.32952,-189.49819 C 394.02605,-191.63982 396.97008,-198.52502 402.93052,-204.93586 L 408.08582,-210.48073 C 414.04626,-216.89159 420.69913,-220.32852 423.0026,-218.18689 z " style="overflow: visible; marker: none; color: rgb(0, 0, 0); fill: url(#linearGradient11234) rgb(0, 0, 0); fill-opacity: 1; fill-rule: nonzero; stroke: rgb(95, 63, 49); stroke-width: 1.2325; stroke-linecap: butt; stroke-linejoin: miter; stroke-miterlimit: 4; stroke-dasharray: none; stroke-dashoffset: 0pt; stroke-opacity: 1; visibility: visible; display: inline;" id="rect10025"/>
        <path d="M 277.13608,-296.67423 C 273.11538,-301.74503 271.50547,-307.48054 273.54252,-309.47669 C 275.5795,-311.4728 280.49591,-308.97749 284.5166,-303.90669 C 288.40684,-299.00042 294.56823,-303.9138 287.72634,-296.72165 C 282.12028,-290.82858 280.68004,-291.05567 276.66101,-296.11011" style="overflow: visible; marker: none; color: rgb(0, 0, 0); fill: url(#radialGradient11236) rgb(0, 0, 0); fill-opacity: 1; fill-rule: nonzero; stroke: none; stroke-width: 0.765; stroke-linecap: butt; stroke-linejoin: miter; stroke-miterlimit: 4; stroke-dashoffset: 0pt; stroke-opacity: 1; visibility: visible; display: inline;" id="path8389"/>
        <path d="M 142.36876,165.39221 L 130.68164,163.08268 L 141.15363,231.4999 L 121.92367,164.90725 L 112.13114,171.69172 L 114.44068,160.0046 L 45.393496,171.10654 L 112.6161,151.24663 L 105.83164,141.4541 L 117.51875,143.76364 L 107.67672,77.866207 L 126.27672,141.93906 L 136.06925,135.1546 L 133.75972,146.84171 L 201.54699,140.14944 L 135.58429,155.59968 L 142.36876,165.39221 z " transform="matrix(0.0930717, 0.147869, -0.161476, 0.101636, 314.518, -359.548)" style="overflow: visible; marker: none; color: rgb(0, 0, 0); fill: rgb(255, 255, 255); fill-opacity: 1; fill-rule: nonzero; stroke: none; stroke-width: 8.3; stroke-linecap: butt; stroke-linejoin: miter; stroke-miterlimit: 4; stroke-dashoffset: 0pt; stroke-opacity: 1; visibility: visible; display: inline; filter: url(#filter3321);" id="path2309"/>
      </g>
      <path d="M 142.36876,165.39221 L 130.68164,163.08268 L 141.15363,231.4999 L 121.92367,164.90725 L 112.13114,171.69172 L 114.44068,160.0046 L 45.393496,171.10654 L 112.6161,151.24663 L 105.83164,141.4541 L 117.51875,143.76364 L 107.67672,77.866207 L 126.27672,141.93906 L 136.06925,135.1546 L 133.75972,146.84171 L 201.54699,140.14944 L 135.58429,155.59968 L 142.36876,165.39221 z " transform="matrix(-0.00288502, 0.278699, -0.23703, -0.00245362, 290.223, -88.9759)" style="overflow: visible; marker: none; color: rgb(0, 0, 0); fill: rgb(255, 255, 255); fill-opacity: 1; fill-rule: nonzero; stroke: none; stroke-width: 8.3; stroke-linecap: butt; stroke-linejoin: miter; stroke-miterlimit: 4; stroke-dashoffset: 0pt; stroke-opacity: 1; visibility: visible; display: inline; filter: url(#filter3321);" id="path3325"/>
      <path d="M 142.36876,165.39221 L 130.68164,163.08268 L 141.15363,231.4999 L 121.92367,164.90725 L 112.13114,171.69172 L 114.44068,160.0046 L 45.393496,171.10654 L 112.6161,151.24663 L 105.83164,141.4541 L 117.51875,143.76364 L 107.67672,77.866207 L 126.27672,141.93906 L 136.06925,135.1546 L 133.75972,146.84171 L 201.54699,140.14944 L 135.58429,155.59968 L 142.36876,165.39221 z " transform="matrix(0.0656059, 0.2238, -0.240149, 0.0703986, 363.151, 143.206)" style="overflow: visible; marker: none; color: rgb(0, 0, 0); fill: rgb(255, 255, 255); fill-opacity: 1; fill-rule: nonzero; stroke: none; stroke-width: 8.3; stroke-linecap: butt; stroke-linejoin: miter; stroke-miterlimit: 4; stroke-dashoffset: 0pt; stroke-opacity: 1; visibility: visible; display: inline; filter: url(#filter3321);" id="path3327"/>
      <path d="M 156.4375,-131.46875 C 197.18892,-87.703743 231.23776,-36.668482 251.6875,19.78125 C 256.4587,32.246745 259.53507,46.286377 262.9375,58.46875 C 276.84393,52.284397 294.65398,62.371408 296.4375,77.5625 C 299.43536,92.931099 284.72996,108.21273 269.25,105.78125 C 264.77658,104.92217 268.75163,114.00106 267.11252,116.77843 C 266.47246,127.54375 265.05148,138.23267 262.65625,148.75 C 287.29105,153.84372 311.55694,162.26122 330.78125,179.03125 C 325.00155,97.134804 301.39682,13.658657 252.60628,-51.595014 C 228.19138,-84.778685 199.35331,-118.61499 168.44667,-144.72792 C 168.01959,-143.88417 156.86458,-132.3125 156.4375,-131.46875 z " style="overflow: visible; marker: none; opacity: 0.372222; color: rgb(0, 0, 0); fill: rgb(195, 195, 195); fill-opacity: 1; fill-rule: nonzero; stroke: none; stroke-width: 5.31668; stroke-linecap: butt; stroke-linejoin: miter; stroke-miterlimit: 4; stroke-dasharray: none; stroke-dashoffset: 0pt; stroke-opacity: 1; visibility: visible; display: inline;" id="path8980"/>
      <g id="g6545">
        <path d="M 224.17563,-209.30998 C 221.72949,-213.53387 218.16338,-217.30787 213.9816,-219.55347 C 202.34534,-225.80209 180.53665,-224.10152 154.58923,-168.22542 C 154.42585,-167.89731 143.25958,-138.67763 141.98721,-135.44941 C 139.95143,-130.28424 120.16157,-101.91122 110.69746,-97.444545 C 110.69746,-97.444545 113.87518,-105.09026 109.55612,-112.57112 C 105.23703,-120.052 100.73212,-122.38448 93.316407,-116.10812 C 85.900717,-109.83176 92.584707,-88.964955 104.22097,-82.716335 C 115.85724,-76.467715 137.5717,-77.027805 163.51911,-132.90392 C 163.69067,-133.24843 174.95699,-163.62769 176.21537,-166.8204 C 178.2432,-171.96538 197.86458,-200.1136 207.37136,-204.74804 C 207.13663,-204.13504 204.6186,-194.83145 208.80271,-187.58437 C 213.12178,-180.10351 218.73324,-181.23108 226.14894,-187.50743 C 230.89962,-191.52822 228.53616,-201.78044 224.17563,-209.30998 z " transform="translate(2.12132)" style="fill: rgb(102, 102, 102); fill-opacity: 1; fill-rule: evenodd; stroke: none; stroke-width: 1.72443; stroke-linecap: butt; stroke-linejoin: miter; stroke-miterlimit: 4; stroke-dasharray: none; stroke-opacity: 1;" clip-path="url(#clipPath4786)" id="path3656"/>
        <path d="M 206,-214 C 188.94161,-210.90626 180.15384,-193.70383 171.75,-180.375 C 158.08041,-155.42154 152.87048,-125.48062 132.35045,-104.73516 C 126.87794,-98.277293 120.67555,-91.333286 112.21875,-89.03125 C 122.81813,-85.20545 131.30441,-95.056219 137.96875,-101.90625 C 156.59433,-123.41116 161.93414,-152.3271 175.15625,-176.875 C 182.33926,-189.28973 191.47071,-201.22014 202.84375,-209.8125 C 204.37396,-211.38855 209.87034,-212.83743 209.59375,-213.625 C 208.41799,-213.98871 207.26445,-214.09311 206,-214 z M 218,-207.25 C 218.66354,-201.90196 213.40374,-194.44109 219.15625,-190.78125 C 225.19421,-192.47885 222.68339,-200.26712 220.1875,-203.9375 C 219.52526,-204.87491 218.64357,-206.77189 218,-207.25 z M 101.96875,-110.9375 C 97.765072,-106.99094 102.1467,-98.610636 103.875,-96.40625 C 104.25163,-100.4586 107.57577,-104.14938 105.15625,-108.25 C 104.61856,-109.43724 103.53805,-111.03373 101.96875,-110.9375 z " style="fill: rgb(255, 255, 255); fill-opacity: 1; fill-rule: evenodd; stroke: none; stroke-width: 1.72443; stroke-linecap: butt; stroke-linejoin: miter; stroke-miterlimit: 4; stroke-opacity: 1; filter: url(#filter6541);" id="path6490"/>
      </g>
      <g transform="matrix(0.999974, 0.00724704, -0.00724704, 0.999974, -104.001, -14.9266)" id="g11125">
        <rect width="36.416" height="36.416" ry="0" x="247.13382" y="-157.33484" style="opacity: 1; fill: rgb(107, 107, 107); fill-opacity: 1; stroke: none; stroke-width: 15.117; stroke-miterlimit: 4; stroke-dasharray: none; stroke-opacity: 1;" clip-path="url(#clipPath11119)" id="rect10064"/>
        <path d="M 247.125,-157.34375 L 247.125,-120.90625 L 249.125,-120.90625 L 249.125,-155.34375 L 283.5625,-155.34375 L 283.5625,-157.34375 L 247.125,-157.34375 z " style="opacity: 0.888889; fill: rgb(249, 249, 249); fill-opacity: 1; stroke: none; stroke-width: 15.117; stroke-miterlimit: 4; stroke-dasharray: none; stroke-opacity: 1; filter: url(#filter11105);" clip-path="url(#clipPath11115)" id="rect10066"/>
        <path d="M 281.5625,-157.34375 L 281.5625,-122.90625 L 247.125,-122.90625 L 247.125,-120.90625 L 283.5625,-120.90625 L 283.5625,-157.34375 L 281.5625,-157.34375 z " style="opacity: 0.844444; fill: rgb(36, 28, 28); fill-opacity: 1; stroke: none; stroke-width: 15.117; stroke-miterlimit: 4; stroke-dasharray: none; stroke-opacity: 1; filter: url(#filter11073);" clip-path="url(#clipPath11111)" id="rect10071"/>
        <g transform="matrix(0.326561, -0.106124, 0.106124, 0.326561, 121.56, -111.839)" id="g3394">
          <path d="M 424.44426,13.892938 C 401.41984,13.494923 380.87696,34.820651 382.33159,57.895378 C 382.86756,77.250345 397.98487,95.354352 417.38048,98.316112 C 435.44379,101.55461 455.19,92.154618 462.97793,75.316798 C 470.85224,59.493461 468.00023,38.874435 455.07166,26.518589 C 447.03726,18.505274 435.89238,13.555088 424.44426,13.892938 z " style="fill: url(#radialGradient11238) rgb(0, 0, 0); fill-opacity: 1; stroke: none; stroke-width: 13.9016; stroke-miterlimit: 4; stroke-dasharray: none; stroke-opacity: 1;" id="path5634"/>
          <path d="M 449.23233,27.003698 C 429.30553,26.971468 418.23567,30.351237 402.88902,47.418534 C 390.40978,61.29691 387.83131,76.38369 387.06515,74.795378 C 385.14062,70.805655 374.67336,42.300737 401.76006,22.663613 C 426.46977,4.7497596 452.70204,23.715228 455.11697,28.309424" style="opacity: 0.431298; fill: url(#linearGradient11240) rgb(0, 0, 0); fill-opacity: 1; stroke: none; stroke-width: 5; stroke-miterlimit: 4; stroke-opacity: 1;" id="path5636"/>
        </g>
        <path d="M 142.36876,165.39221 L 130.68164,163.08268 L 141.15363,231.4999 L 121.92367,164.90725 L 112.13114,171.69172 L 114.44068,160.0046 L 45.393496,171.10654 L 112.6161,151.24663 L 105.83164,141.4541 L 117.51875,143.76364 L 107.67672,77.866207 L 126.27672,141.93906 L 136.06925,135.1546 L 133.75972,146.84171 L 201.54699,140.14944 L 135.58429,155.59968 L 142.36876,165.39221 z " transform="matrix(-0.00126521, 0.122222, -0.103949, -0.00107603, 279.686, -160.132)" style="overflow: visible; marker: none; opacity: 0.744444; color: rgb(0, 0, 0); fill: rgb(255, 255, 255); fill-opacity: 1; fill-rule: nonzero; stroke: none; stroke-width: 8.3; stroke-linecap: butt; stroke-linejoin: miter; stroke-miterlimit: 4; stroke-dashoffset: 0pt; stroke-opacity: 1; visibility: visible; display: inline; filter: url(#filter3321);" id="path11123"/>
      </g>
    </g>
  </g>
</svg>