<?xml version="1.0" encoding="utf-8"?>
<!-- Generator: Adobe Illustrator 16.0.0, SVG Export Plug-In . SVG Version: 6.00 Build 0)  -->
<!DOCTYPE svg PUBLIC "-//W3C//DTD SVG 1.1//EN" "http://www.w3.org/Graphics/SVG/1.1/DTD/svg11.dtd">
<svg version="1.1" id="Layer_1" xmlns="http://www.w3.org/2000/svg" xmlns:xlink="http://www.w3.org/1999/xlink" x="0px" y="0px"
	 width="919px" height="686px" viewBox="0 0 919 686" enable-background="new 0 0 919 686" xml:space="preserve">
<g>
	<polygon fill-rule="evenodd" clip-rule="evenodd" fill="#FFF2CC" points="70.377,76.336 278.594,82.277 360.277,68.613 
		504.932,76.336 693.545,67.129 799.287,74.852 802.258,180.594 796.318,280.396 802.258,422.377 802.258,588.414 731.564,603.563 
		577.408,599.107 456.811,615.742 295.229,608.316 169.881,609.801 91.467,609.801 73.348,491.881 81.068,398.02 79.287,234.949 
		65.92,127.723 70.377,76.336 70.377,76.336 	"/>
	<polygon fill-rule="evenodd" clip-rule="evenodd" fill="#B3D9B3" points="218.297,200.197 301.168,212.375 340.674,240.891 
		346.613,260.494 387.307,297.029 393.248,334.752 384.338,379.902 483.842,404.258 560.771,398.02 640.971,387.623 669.484,368.02 
		717.9,340.691 781.17,310.396 826.613,275.645 865.822,236.436 858.1,298.516 731.564,436.039 695.326,475.248 648.396,510 
		607.703,534.059 553.348,549.207 496.021,549.207 447.604,543.268 411.367,528.119 381.367,479.703 324.039,461.584 
		296.713,507.031 260.477,528.119 193.939,529.604 169.881,500.793 121.764,476.732 123.248,364.752 200.178,379.902 
		237.902,405.742 237.902,434.555 216.811,461.584 246.811,490.396 295.229,479.703 320.773,426.832 361.764,343.664 
		351.068,308.91 260.477,274.158 209.09,222.773 218.297,200.197 218.297,200.197 	"/>
	<polygon fill-rule="evenodd" clip-rule="evenodd" points="797.506,26.436 813.248,39.504 837.9,55.842 843.842,62.971 
		847.703,70.691 846.219,78.119 842.951,83.762 842.951,84.654 844.436,85.842 852.158,84.654 859.881,86.436 867.9,92.375 
		879.484,112.574 893.742,152.971 895.822,165.445 893.742,177.029 891.961,180.297 884.238,182.375 869.09,180.891 864.635,177.92 
		858.693,169.307 840.574,155.049 827.506,139.902 823.643,125.645 824.238,112.574 829.287,102.773 833.742,96.832 833.742,95.049 
		834.635,94.158 833.445,92.971 818.893,99.504 803.445,96.832 795.424,92.375 781.764,77.229 764.238,65.049 754.436,57.92 
		753.842,57.92 752.355,64.158 733.049,73.961 710.771,82.574 692.654,89.109 667.109,94.158 654.336,96.832 639.783,103.365 
		638.594,104.852 640.377,109.902 643.643,113.168 654.336,115.248 666.516,117.029 676.912,121.783 684.635,130.1 689.387,139.902 
		695.92,145.842 710.178,153.564 717.307,163.961 719.98,174.654 718.791,187.426 717.307,192.773 713.445,201.98 710.771,207.623 
		703.643,213.564 700.971,213.564 697.703,208.516 698.594,186.236 695.92,177.029 690.574,170.494 681.367,166.039 656.713,171.09 
		634.734,168.713 627.307,165.445 614.537,152.971 611.268,135.445 615.129,115.842 619.584,105.445 624.932,98.316 627.307,96.236 
		632.061,97.426 634.139,95.645 635.326,87.029 639.783,78.119 670.971,53.762 696.516,34.158 708.693,26.436 726.516,17.82 
		734.238,16.633 740.178,17.82 746.119,21.387 749.09,35.645 749.98,36.236 751.17,36.236 753.248,33.563 753.842,27.92 
		760.377,16.633 768.693,14.555 779.98,16.633 797.506,26.436 797.506,26.436 	"/>
	<polygon fill-rule="evenodd" clip-rule="evenodd" points="423.545,66.832 492.754,70.691 537.605,69.504 578,66.832 
		599.387,67.426 608.594,68.316 609.783,68.316 599.98,79.307 599.98,79.902 557.803,79.902 504.336,83.168 464.537,82.574 
		437.209,80.494 394.436,78.119 316.316,79.902 279.783,87.029 266.119,88.516 234.93,85.842 208.793,83.168 164.535,83.168 
		129.783,84.654 105.723,83.762 80.477,83.168 78.396,85.248 79.584,109.902 80.477,162.773 87.604,201.09 88.793,230.494 
		83.742,263.762 82.258,269.109 81.068,270.891 81.068,274.158 75.723,273.564 73.939,273.564 72.455,268.516 71.268,264.357 
		71.861,252.178 73.939,233.168 73.348,190.691 64.732,138.713 67.406,97.426 65.326,80.494 62.059,73.961 63.545,68.91 
		66.811,66.832 97.406,69.504 121.467,72.178 160.377,71.287 184.732,69.504 236.119,72.773 245.92,74.852 288.693,73.365 
		311.564,68.316 347.506,62.971 379.287,63.564 423.545,66.832 423.545,66.832 	"/>
	<polygon fill-rule="evenodd" clip-rule="evenodd" points="202.852,118.516 204.039,128.91 204.039,141.387 206.713,148.516 
		212.654,151.783 212.654,154.158 204.039,160.691 194.238,160.691 189.188,158.316 186.516,155.049 186.516,124.158 
		184.732,118.516 181.168,115.842 174.338,118.516 172.258,122.971 174.93,143.168 174.338,143.762 174.338,145.842 
		176.119,147.029 182.654,147.029 182.654,151.783 173.445,150.297 165.723,150.891 153.248,151.783 152.654,150.297 
		152.654,148.516 156.516,144.357 156.516,120.297 155.326,119.109 148.793,120.297 147.604,122.375 146.713,145.842 
		148.197,147.623 148.793,149.703 148.793,151.783 133.049,152.971 125.92,154.158 124.732,152.971 128,146.436 129.783,132.773 
		128,123.564 126.516,122.375 122.059,122.971 119.98,122.971 119.387,122.375 119.387,121.188 141.664,109.902 143.445,108.713 
		146.119,109.307 147.604,115.248 147.604,116.436 148.793,117.623 158.594,113.168 168.99,107.82 171.664,108.713 172.852,113.168 
		172.852,113.762 174.338,115.248 187.109,107.82 188.594,107.229 193.645,108.713 202.852,118.516 202.852,118.516 	"/>
	<polygon fill-rule="evenodd" clip-rule="evenodd" points="806.416,126.236 807.307,154.158 809.09,161.584 809.682,182.971 
		807.307,213.564 806.416,244.158 804.635,247.426 800.178,249.504 798.693,250.691 798.693,248.91 795.424,246.832 
		794.238,240.891 792.754,211.783 798.1,177.92 795.424,158.316 792.754,140.494 793.643,129.504 795.424,123.564 798.1,121.783 
		804.635,122.971 806.416,126.236 806.416,126.236 	"/>
	<polygon fill-rule="evenodd" clip-rule="evenodd" points="906.811,193.365 908.299,199.902 905.029,216.832 892.553,253.365 
		882.754,267.623 875.029,272.971 869.09,274.158 858.1,270.297 852.754,263.168 851.564,259.307 852.754,248.91 850.674,235.246 
		850.674,216.236 853.348,201.09 856.912,196.039 870.871,186.832 884.238,184.158 901.764,187.426 906.811,193.365 
		906.811,193.365 	"/>
	<polygon fill-rule="evenodd" clip-rule="evenodd" points="226.912,199.307 253.645,201.98 247.109,210.891 246.516,212.971 
		226.912,215.645 223.049,220.1 224.238,226.039 228.1,228.713 240.574,227.82 250.971,227.82 264.039,229.902 271.168,233.762 
		280.971,235.246 292.852,234.654 296.713,229.902 295.229,222.773 291.961,216.832 286.021,214.455 264.039,212.375 
		268.494,208.516 277.703,205.842 299.98,211.783 326.416,226.633 344.238,242.375 344.832,255.445 342.158,263.168 
		338.297,268.516 328.494,275.049 318.1,278.91 313.645,281.287 288.693,281.287 259.584,285.148 248.297,282.773 237.307,275.645 
		219.783,253.365 206.713,243.564 195.129,237.029 182.059,237.029 168.396,235.842 159.783,235.842 126.516,232.574 
		115.525,226.633 114.338,225.445 115.525,220.1 120.871,216.236 130.674,216.832 136.316,220.1 142.852,220.1 150.871,213.564 
		155.326,213.564 171.664,222.773 174.93,222.773 179.387,218.91 183.248,216.832 193.049,218.91 198.99,222.773 200.773,222.773 
		202.258,221.287 202.258,219.504 196.316,213.564 182.059,209.703 142.258,205.246 122.059,205.246 119.98,203.168 
		120.871,199.307 127.406,193.365 133.939,188.02 149.98,185.645 190.377,191.287 226.912,199.307 226.912,199.307 	"/>
	<polygon fill-rule="evenodd" clip-rule="evenodd" points="858.1,276.236 864.635,287.229 861.961,299.703 853.939,315.445 
		836.416,334.158 833.445,336.236 831.961,339.504 828.693,341.287 821.564,341.287 819.484,343.961 819.484,352.574 
		808.496,372.773 804.635,379.305 799.287,383.762 791.564,387.623 783.248,389.703 780.574,389.703 777.9,392.971 775.227,402.773 
		772.553,408.119 756.516,422.971 736.912,439.902 721.764,433.959 684.041,432.18 673.049,428.91 665.326,425.645 654.932,424.16 
		630.871,426.236 615.129,433.365 606.516,442.574 602.654,443.168 596.119,453.563 592.852,460.1 591.662,461.289 583.643,455.645 
		579.189,451.486 568.791,448.516 552.455,450.297 544.139,453.563 537.605,460.1 528.693,467.229 518.594,474.949 512.061,482.971 
		510.871,484.16 503.15,477.031 501.068,473.762 491.863,467.229 467.803,466.635 454.732,473.168 446.416,479.703 420.871,493.959 
		417.01,495.148 414.338,499.305 415.822,505.248 419.684,507.623 426.811,507.031 444.338,497.229 460.08,487.426 469.881,481.781 
		473.742,480.297 485.029,480.891 491.268,487.426 493.348,495.148 496.613,500.494 498.396,508.217 499.881,525.445 
		505.822,548.02 505.227,554.555 503.15,556.635 496.021,555.148 491.863,552.773 491.268,552.773 490.08,553.959 494.537,560.494 
		493.939,563.762 473.742,583.365 463.348,594.949 458,604.752 450.277,616.039 445.229,624.357 437.209,630.297 436.613,630.297 
		436.021,630.891 436.021,632.078 445.822,635.346 450.871,641.289 453.545,659.107 450.871,670.691 446.416,674.555 
		439.881,676.039 431.268,673.365 425.623,668.615 419.684,658.516 416.416,637.426 416.416,632.078 421.764,629.107 
		417.01,622.574 417.01,613.365 419.09,610.1 419.09,606.236 430.674,593.762 432.752,587.229 443.15,576.236 468.693,550.1 
		470.477,543.563 468.693,534.357 470.477,517.426 470.477,504.357 466.021,500.494 458.893,501.979 456.219,505.842 
		457.406,512.078 456.219,518.02 455.623,524.555 454.732,542.377 454.732,544.16 450.277,548.91 442.555,545.051 437.209,540.297 
		434.535,539.703 430.08,535.248 426.811,537.031 408.1,535.543 402.158,532.277 395.623,522.773 392.951,509.107 394.436,507.031 
		394.436,505.842 390.871,503.762 390.277,501.979 386.416,499.305 358.494,491.289 335.623,477.031 318.1,458.615 316.316,455.645 
		315.426,454.752 314.832,455.645 318.1,462.773 321.961,469.305 320.178,486.236 314.238,498.414 302.357,512.971 296.713,512.971 
		291.961,506.434 290.773,499.902 288.693,490.1 280.971,482.377 280.971,477.031 290.178,468.713 296.713,459.506 298.494,452.971 
		307.109,449.107 313.049,452.971 313.049,449.107 308.297,439.305 303.842,420.891 297.307,413.762 295.229,406.039 
		295.229,403.365 297.902,400.691 313.645,401.289 316.912,403.365 322.555,402.773 327.307,396.236 327.307,394.752 
		320.773,390.891 309.783,388.516 308.297,385.842 309.783,380.494 314.832,376.635 333.842,375.445 354.635,377.229 
		370.971,374.555 389.684,376.039 413.742,382.574 429.484,387.623 456.811,391.781 457.406,390.891 450.277,385.842 
		449.09,382.574 449.684,379.902 466.613,362.377 465.424,360.297 455.623,360.891 452.951,362.971 439.881,360.297 
		436.021,356.434 422.951,327.029 422.357,323.762 430.674,317.82 441.367,319.902 446.416,323.168 451.467,332.375 
		454.139,343.365 456.219,345.445 472.553,338.02 478.791,340.691 499.287,327.029 506.416,325.842 511.465,327.029 
		517.408,335.049 518.594,340.691 516.811,349.305 513.545,355.248 488,375.445 476.416,380.494 473.742,383.762 474.336,389.107 
		476.416,390.297 484.139,390.297 493.939,396.832 498.396,402.773 517.408,398.02 524.537,398.02 529.287,400.1 541.465,395.645 
		562.852,396.236 567.01,397.426 567.605,403.365 565.525,403.959 561.662,410.494 562.852,417.031 573.545,422.971 
		581.268,421.486 586.318,415.842 586.318,405.445 581.268,400.1 580.377,395.645 592.852,392.971 599.98,394.16 602.654,392.971 
		605.326,392.971 608.594,399.506 605.92,404.852 606.516,412.574 611.268,416.434 615.723,417.623 621.662,416.434 
		627.307,412.574 628.791,406.635 627.307,398.02 623.445,392.377 621.662,391.781 621.068,388.516 625.525,385.842 
		639.783,384.949 645.129,391.781 647.506,400.691 655.525,404.852 661.17,403.365 668.594,394.16 668.594,384.357 663.248,379.902 
		655.525,379.305 650.178,373.365 668.594,359.703 670.971,359.703 682.258,368.91 688.197,379.902 689.387,384.949 
		693.248,387.623 699.189,386.434 706.912,382.574 714.635,368.02 714.041,359.703 709.584,355.842 699.189,356.434 
		693.248,358.217 689.98,353.168 695.326,346.039 718.791,334.158 725.92,329.703 735.723,330.891 738.1,332.375 751.17,347.229 
		763.643,352.574 768.693,351.387 771.961,347.229 770.771,343.365 771.961,337.426 770.771,330.297 765.424,326.436 
		752.355,325.842 747.307,329.109 748.496,321.684 761.564,312.773 774.041,305.645 784.436,302.971 792.158,303.564 
		796.021,305.049 804.041,314.852 809.09,317.229 817.109,316.039 823.643,308.91 823.643,297.029 821.564,293.762 816.219,290.494 
		809.682,291.98 806.416,293.762 800.178,289.902 798.693,289.902 800.771,288.713 804.041,281.881 818.893,275.049 
		833.445,261.684 840.574,263.168 858.1,276.236 858.1,276.236 	"/>
	<polygon fill-rule="evenodd" clip-rule="evenodd" points="374.832,278.316 389.684,294.357 391.764,300.891 390.871,302.971 
		365.623,316.039 355.229,318.713 351.961,319.902 349.287,319.902 344.832,313.961 325.229,296.436 325.229,291.09 
		340.971,284.555 354.039,272.375 355.229,269.109 365.029,271.783 374.832,278.316 374.832,278.316 	"/>
	<polygon fill-rule="evenodd" clip-rule="evenodd" points="703.049,299.703 701.564,306.236 695.326,315.445 676.318,330.297 
		670.971,335.645 666.516,335.049 659.98,326.436 657.307,321.684 654.932,319.307 654.932,330.891 650.178,338.91 637.109,349.902 
		606.516,372.18 587.207,380.494 583.643,380.494 581.268,386.434 564.336,392.971 557.207,391.781 553.939,386.434 
		557.803,376.039 557.803,373.959 559.584,372.18 570.279,374.555 571.465,373.365 570.279,370.691 570.279,368.02 578.594,361.781 
		587.803,355.842 616.912,328.516 624.932,317.82 632.061,308.316 635.92,305.049 641.861,306.236 650.178,313.365 650.771,313.365 
		652.258,308.91 654.336,307.426 664.734,305.049 682.258,294.357 691.17,288.119 697.703,291.09 703.049,299.703 703.049,299.703 	
		"/>
	<polygon fill-rule="evenodd" clip-rule="evenodd" points="84.93,313.365 94.732,325.842 103.939,334.158 108.396,335.645 
		121.467,350.494 138.396,357.623 174.338,364.16 193.645,370.1 220.377,383.168 233.445,395.645 236.713,400.691 236.119,407.229 
		231.961,409.902 220.971,409.902 200.773,394.16 184.732,384.357 167.803,379.305 154.139,376.635 149.98,377.82 147.604,381.979 
		148.793,387.623 157.109,392.377 172.852,395.645 180.574,403.959 189.188,433.365 194.238,444.357 203.445,450.297 
		217.109,449.703 225.723,443.762 228.1,440.494 228.99,430.1 238.793,425.645 244.436,419.703 247.109,433.959 242.654,447.623 
		236.119,457.426 225.723,466.039 214.732,471.088 204.039,474.357 192.455,480.891 173.445,500.494 168.396,511.486 
		161.268,513.563 152.059,513.563 148.197,510.297 143.445,508.217 131.861,505.842 123.248,500.494 101.861,475.842 98,469.305 
		82.852,455.645 53.742,439.902 41.268,428.316 29.09,411.088 19.287,384.949 12.752,360.891 12.158,342.178 13.348,338.91 
		17.209,335.645 20.477,335.645 29.684,346.635 30.277,363.563 32.951,365.645 41.861,364.752 46.613,370.1 48.693,381.088 
		50.477,382.574 58.793,380.494 63.545,383.168 66.219,389.107 68.594,398.91 73.348,402.773 87.01,402.773 97.406,385.842 
		95.92,380.494 89.684,376.635 92.059,366.832 92.059,364.752 87.604,362.377 72.455,359.107 72.455,355.842 75.723,347.229 
		75.129,338.91 68.594,333.564 64.139,331.783 62.951,328.516 62.059,305.645 61.467,302.971 61.467,300.891 64.732,298.516 
		73.348,300.891 84.93,313.365 84.93,313.365 	"/>
	<polygon fill-rule="evenodd" clip-rule="evenodd" points="611.863,308.316 608.594,314.852 592.258,330.297 577.408,338.02 
		568.197,345.445 564.932,346.635 561.068,340.691 560.178,340.691 559.584,348.713 545.326,359.107 536.119,372.18 
		532.258,379.305 523.348,392.377 514.734,393.563 512.061,394.752 505.822,392.971 499.881,389.107 498.396,387.031 
		498.396,384.357 507.605,378.713 530.477,349.902 537.605,338.91 542.951,335.049 551.863,335.049 552.455,335.645 
		554.537,335.645 555.723,332.375 572.061,321.684 576.516,316.039 583.643,316.039 584.537,316.633 586.318,316.633 
		600.871,299.109 608,301.484 611.863,308.316 611.863,308.316 	"/>
	<polygon fill-rule="evenodd" clip-rule="evenodd" points="394.436,339.504 391.764,344.555 389.684,359.107 387.902,362.377 
		372.158,360.891 349.287,363.563 347.506,362.377 349.881,354.357 354.039,344.555 357.902,337.426 357.902,332.971 
		366.811,329.703 374.832,327.623 395.029,317.229 396.811,320.494 394.436,339.504 394.436,339.504 	"/>
	<polygon fill-rule="evenodd" clip-rule="evenodd" points="810.279,405.445 809.682,421.486 812.355,432.773 814.436,437.229 
		813.842,455.645 807.9,486.236 808.496,502.574 809.09,503.762 809.09,505.842 796.912,509.107 794.238,492.773 796.912,472.574 
		800.771,454.16 800.178,436.635 796.912,414.949 799.287,402.773 802.553,400.691 808.496,402.18 810.279,405.445 810.279,405.445 
			"/>
	<polygon fill-rule="evenodd" clip-rule="evenodd" points="675.723,444.357 689.387,446.434 711.367,447.031 718.791,448.516 
		721.17,450.891 721.764,453.563 728.299,458.615 729.783,466.039 741.961,496.635 766.912,535.248 768.1,536.434 804.635,526.635 
		826.613,526.039 829.881,531.088 828.693,537.031 825.424,543.563 813.842,551.289 799.287,555.148 789.783,556.039 
		763.643,553.365 760.377,548.02 751.764,549.506 745.227,546.236 734.832,534.357 714.635,502.574 707.506,484.16 706.318,482.971 
		697.703,482.971 690.574,480.297 680.771,479.107 667.109,477.031 655.525,471.684 639.783,469.305 635.326,470.494 
		626.713,486.236 627.307,493.365 628.791,495.148 633.248,487.426 638,481.781 644.537,480.297 650.178,481.781 658.791,489.506 
		673.049,493.959 654.932,510.297 645.723,512.078 635.92,519.506 628.197,525.445 616.912,530.494 615.129,532.277 609.783,522.18 
		600.871,493.365 599.98,485.051 599.98,482.971 602.061,481.781 603.248,479.703 604.734,469.305 621.662,447.623 627.307,443.168 
		637.109,439.305 640.377,438.414 660.574,439.305 675.723,444.357 675.723,444.357 	"/>
	<polygon fill-rule="evenodd" clip-rule="evenodd" points="579.189,469.902 584.537,476.434 586.318,482.377 587.803,499.305 
		592.852,518.02 600.871,536.434 600.871,548.02 599.98,548.91 587.803,548.91 586.318,550.1 592.852,556.635 593.742,559.902 
		568.791,579.506 553.939,594.949 551.268,600.297 550.08,604.752 538.791,621.979 540.871,624.949 545.92,628.217 554.537,644.555 
		553.939,653.762 551.268,658.516 545.92,662.377 535.525,660.297 529.881,655.842 522.455,643.961 521.268,636.832 518,623.168 
		518.594,621.979 523.939,619.902 521.268,612.773 521.863,602.377 527.803,590.494 544.734,569.107 568.197,548.91 569.387,548.02 
		570.871,546.832 561.662,531.088 561.662,518.91 563.742,505.248 562.852,502.574 556.318,494.555 555.129,491.289 
		553.348,489.506 548.594,495.148 548.594,499.305 534.336,520.691 531.662,523.959 517.408,532.277 516.811,533.168 
		512.951,516.832 513.545,501.088 523.939,492.773 532.258,482.377 556.318,463.959 564.336,461.881 570.279,463.365 
		579.189,469.902 579.189,469.902 	"/>
	<polygon fill-rule="evenodd" clip-rule="evenodd" points="269.387,481.781 277.109,482.377 287.506,500.494 290.773,513.563 
		287.506,523.959 280.971,529.305 262.852,535.248 239.98,539.107 226.316,540.891 206.119,538.217 196.316,533.168 
		189.188,523.959 186.516,506.434 204.635,490.1 219.188,484.16 225.723,481.781 241.764,484.16 269.387,481.781 269.387,481.781 	
		"/>
	<polygon fill-rule="evenodd" clip-rule="evenodd" points="85.525,496.635 84.93,522.773 85.525,548.02 90.277,567.623 
		92.654,598.217 92.654,602.377 155.326,602.377 224.238,600.891 224.238,601.486 223.645,602.377 227.506,604.16 235.525,604.752 
		238.793,608.91 237.307,614.555 234.039,616.635 202.852,617.229 195.129,619.305 158.594,620.494 131.861,619.305 106.316,617.82 
		78.99,619.305 75.723,617.82 73.939,614.555 75.129,608.91 78.396,606.832 77.803,569.107 71.268,540.891 72.455,516.236 
		73.939,501.979 72.455,486.236 84.93,496.635 85.525,496.635 85.525,496.635 	"/>
	<polygon fill-rule="evenodd" clip-rule="evenodd" points="380.178,512.078 380.773,512.971 389.09,544.16 387.902,551.289 
		385.822,552.773 381.367,551.881 364.436,537.623 351.367,533.762 349.287,524.555 349.881,503.762 364.436,507.623 
		380.178,512.078 380.178,512.078 	"/>
	<polygon fill-rule="evenodd" clip-rule="evenodd" points="553.348,550.1 533.742,550.1 524.537,545.051 540.279,536.434 
		546.811,529.305 551.268,547.426 553.348,550.1 553.348,550.1 	"/>
	<polygon fill-rule="evenodd" clip-rule="evenodd" points="371.564,563.168 372.158,565.248 372.158,566.434 372.752,567.031 
		357.307,576.236 349.287,578.91 305.029,591.088 299.98,589.305 297.902,591.088 299.09,594.949 296.119,600.891 294.635,611.881 
		297.307,616.635 296.713,622.574 287.506,629.107 279.188,630.891 270.574,627.623 267.307,623.762 267.307,617.229 
		274.436,611.881 275.623,610.691 275.623,604.752 279.188,594.357 279.783,586.635 283.049,576.832 283.645,575.645 
		285.426,574.16 292.852,572.971 300.574,569.703 310.971,569.107 334.436,561.088 349.881,548.02 357.307,550.1 371.564,563.168 
		371.564,563.168 	"/>
	<polygon fill-rule="evenodd" clip-rule="evenodd" points="809.682,576.832 811.764,580.1 811.17,591.684 811.17,599.107 
		807.307,602.377 788.893,600.891 755.029,606.832 736.912,610.1 714.041,609.506 686.713,604.752 677.506,602.971 641.268,600.891 
		592.852,606.236 589.584,604.16 588.396,600.891 589.584,595.842 592.852,593.762 649.584,588.414 710.771,591.088 
		783.842,589.305 796.912,587.82 795.424,578.91 796.912,574.752 800.178,572.971 805.822,574.16 809.682,576.832 809.682,576.832 	
		"/>
</g>
</svg>
