<?xml version="1.0" encoding="UTF-8" standalone="no"?>
<!-- Created with Inkscape (http://www.inkscape.org/) -->

<svg
   xmlns:dc="http://purl.org/dc/elements/1.1/"
   xmlns:cc="http://creativecommons.org/ns#"
   xmlns:rdf="http://www.w3.org/1999/02/22-rdf-syntax-ns#"
   xmlns:svg="http://www.w3.org/2000/svg"
   xmlns="http://www.w3.org/2000/svg"
   xmlns:sodipodi="http://sodipodi.sourceforge.net/DTD/sodipodi-0.dtd"
   xmlns:inkscape="http://www.inkscape.org/namespaces/inkscape"
   width="202.86133mm"
   height="202.86133mm"
   viewBox="0 0 718.79998 718.79998"
   id="svg2"
   version="1.1"
   inkscape:version="0.91 r13725"
   sodipodi:docname="ScorpioDrawing5.svg">
  <defs
     id="defs4">
    <filter
       inkscape:label="Modified combined Lighting"
       inkscape:menu="Bevels"
       inkscape:menu-tooltip="Basic specular bevel to use for building textures"
       style="color-interpolation-filters:sRGB"
       id="filter125483"
       height="1.04"
       width="1.04"
       y="-0.02"
       x="-0.02">
      <feGaussianBlur
         stdDeviation="6"
         in="SourceGraphic"
         result="result0"
         id="feGaussianBlur125485" />
      <feDiffuseLighting
         lighting-color="#ffffff"
         diffuseConstant="1"
         surfaceScale="4"
         result="result5"
         id="feDiffuseLighting125487">
        <feDistantLight
           elevation="45"
           azimuth="235"
           id="feDistantLight125489" />
      </feDiffuseLighting>
      <feComposite
         k1="1.4"
         in2="SourceGraphic"
         in="result5"
         result="fbSourceGraphic"
         operator="arithmetic"
         id="feComposite125491"
         k2="0"
         k3="0"
         k4="0" />
      <feGaussianBlur
         result="result0"
         in="fbSourceGraphic"
         stdDeviation="6"
         id="feGaussianBlur125493" />
      <feSpecularLighting
         specularExponent="25"
         specularConstant="1"
         surfaceScale="4"
         lighting-color="#ffffff"
         result="result1"
         in="result0"
         id="feSpecularLighting125495">
        <feDistantLight
           azimuth="235"
           elevation="45"
           id="feDistantLight125497" />
      </feSpecularLighting>
      <feComposite
         k3="1"
         k2="1"
         operator="arithmetic"
         in="fbSourceGraphic"
         in2="result1"
         result="result4"
         id="feComposite125499"
         k1="0"
         k4="0" />
      <feComposite
         operator="in"
         result="fbSourceGraphic"
         in2="SourceGraphic"
         in="result4"
         id="feComposite125501" />
      <feColorMatrix
         result="fbSourceGraphicAlpha"
         in="fbSourceGraphic"
         values="0 0 0 -1 0 0 0 0 -1 0 0 0 0 -1 0 0 0 0 1 0"
         id="feColorMatrix125639" />
      <feGaussianBlur
         id="feGaussianBlur125641"
         stdDeviation="1.1000000000000001 1.1299999999999999"
         result="blur"
         in="fbSourceGraphic" />
      <feColorMatrix
         id="feColorMatrix125643"
         values="1 0 0 0 0 0 1 0 0 0 0 0 1 0 0 0 0 0 50 0 "
         result="colormatrix" />
      <feComposite
         id="feComposite125645"
         in2="fbSourceGraphic"
         in="colormatrix"
         operator="in" />
    </filter>
    <filter
       inkscape:collect="always"
       style="color-interpolation-filters:sRGB"
       id="filter126653"
       x="-0.099000007"
       width="1.198"
       y="-0.099000007"
       height="1.198">
      <feGaussianBlur
         inkscape:collect="always"
         stdDeviation="2.4750002"
         id="feGaussianBlur126655" />
    </filter>
  </defs>
  <sodipodi:namedview
     id="base"
     pagecolor="#ffffff"
     bordercolor="#666666"
     borderopacity="1.0"
     inkscape:pageopacity="0.0"
     inkscape:pageshadow="2"
     inkscape:zoom="0.73734003"
     inkscape:cx="77.304903"
     inkscape:cy="358.04376"
     inkscape:document-units="px"
     inkscape:current-layer="layer1"
     showgrid="false"
     inkscape:window-width="1366"
     inkscape:window-height="705"
     inkscape:window-x="-8"
     inkscape:window-y="-8"
     inkscape:window-maximized="1"
     fit-margin-top="0"
     fit-margin-left="0"
     fit-margin-right="0"
     fit-margin-bottom="0" />
  <metadata
     id="metadata7">
    <rdf:RDF>
      <cc:Work
         rdf:about="">
        <dc:format>image/svg+xml</dc:format>
        <dc:type
           rdf:resource="http://purl.org/dc/dcmitype/StillImage" />
        <dc:title></dc:title>
      </cc:Work>
    </rdf:RDF>
  </metadata>
  <g
     inkscape:label="Layer 1"
     inkscape:groupmode="layer"
     id="layer1"
     transform="translate(-770.78894,-1269.0086)">
    <g
       id="g91385">
      <circle
         transform="matrix(10,0,0,10,-3421.7007,-4530.6759)"
         id="circle124412-0"
         r="30"
         cy="615.90845"
         cx="455.18896"
         style="fill:#000000;fill-opacity:1;stroke:none;stroke-opacity:1;filter:url(#filter126653)" />
      <circle
         transform="matrix(10,0,0,10,-3421.7007,-4530.6759)"
         id="circle124412"
         r="30"
         cy="613.90845"
         cx="453.18896"
         style="fill:#00e2ca;fill-opacity:1;stroke:none;stroke-opacity:1;filter:url(#filter125483)" />
      <path
         id="path4"
         d="m 1008.9142,1428.6027 c -5.65,3.7925 -6.1677,11.7276 -8.0852,17.7676 -2.0775,12.775 -4.1647,26.3274 -0.5047,39.0199 0.7525,3.1575 2.1698,6.2027 4.2098,8.7352 7.525,9.275 23.7376,8.1874 30.9101,-1.0301 0.88,-1.055 1.6624,-2.2025 2.2149,-3.4625 2.34,-3.675 3.4976,-7.9924 4.2726,-12.2449 0.5125,-2.1 0.7874,-4.2477 0.9649,-6.3977 1.62,-11.81 0.535,-24.0125 -2.9825,-35.38 -0.5575,-1.6825 -1.5825,-4.8176 -3.9675,-3.7551 -1.2875,1.27 -1.7425,3.1726 -2.5825,4.7426 -0.17,0.335 -0.3351,0.6726 -0.4976,1.0101 -1.3975,2.5525 -2.9647,5.0424 -3.9797,7.7824 -2.18,3.7425 -4.2253,7.58 -6.0078,11.525 l -0.2797,0.25 c -4.7225,-5.01 -7.3501,-11.655 -9.7301,-18.0425 l -0.057,-0.195 c -1.6525,-3.0475 -0.1976,-8.2925 -3.2476,-10.325 l -0.65,0 z m 189.5101,7.7227 c -2.5875,3.3875 -4.7651,7.0923 -6.5926,10.9398 -0.047,0.1275 -0.14,0.3849 -0.1875,0.5149 -3.025,6.165 -4.6552,13.0275 -5.2402,19.85 -1.49,12.4 1.6002,25.8127 9.6652,35.5277 7.6225,8.6025 22.5099,5.6323 28.1024,-3.7902 5.345,-7.725 8.0925,-17.0222 9.4675,-26.2422 0.675,-2.2475 0.4675,-4.625 0.9875,-6.9 l 0,-4.0402 c -0.37,-3.42 -0.2,-6.91 -1.0375,-10.27 -0.48,-3.6425 -1.2326,-7.39 -3.2101,-10.5425 -0.755,-1.255 -1.4074,-2.7349 -2.7274,-3.5024 -1.515,1.495 -3.0098,3.0624 -4.0898,4.9074 -2.095,2.775 -3.8227,5.8226 -5.2402,8.9926 -2.2825,2.6125 -2.0574,7.9148 -6.2149,8.3598 -3.295,-0.3425 -4.7626,-3.6448 -5.9601,-6.2973 -1.7875,-4.5575 -3.405,-9.1975 -5.725,-13.525 -0.1601,-0.8616 -0.4091,-1.4435 -0.7125,-1.8031 -0.271,-0.8639 -0.5689,-1.7092 -1.2848,-2.1793 z m -184.1598,67.9531 c -1.6036,0.013 -3.0104,0.4806 -3.1328,2.3692 0.5475,5.9275 3.6848,11.5849 6.7473,16.4324 1.055,2.255 2.5227,4.5502 4.2852,6.2652 1.24,2.6475 4.905,3.4999 7.5875,2.7774 1.205,-0.115 2.6726,0.073 3.6601,-0.7524 1.53,-0.1625 2.8997,-2.1701 1.7297,-3.5051 -2.2875,-4.13 -3.8273,-8.6775 -6.0723,-12.7875 -0.6525,-2.0925 -1.7227,-4.1825 -2.9402,-5.9875 -0.755,-3.8425 -5.2348,-3.8075 -8.2773,-4.475 -0.9735,-0.083 -2.3399,-0.3471 -3.5872,-0.3367 z m 181.0871,7.8317 c -0.7925,3.5675 -2.465,6.8425 -3.725,10.2425 -1.465,2.445 -2.8049,5.0674 -3.9324,7.6649 -1.255,2.4425 -4.1101,4.6428 -3.6176,7.5453 2.545,3.105 8.0625,2.4447 10.5375,-0.4578 3.62,-2.7225 6.7676,-6.4849 9.1926,-10.3399 2.8375,-2.855 4.3201,-7.0024 6.1926,-10.5824 0.9025,-1.85 -1.4852,-0.4875 -2.2402,-0.5 -3.7725,-0.425 -7.41,-1.4874 -10.945,-2.8574 -0.015,-0.5 -1.03,-0.4902 -1.4625,-0.7152 z m -74.7625,0.9976 c -1.4025,0.055 -0.8226,1.6598 -0.4351,2.4598 2.505,3.5775 4.1101,9.3828 0.2176,12.5453 -5.445,3.29 -14.4873,3.2098 -18.0473,-2.3902 -1.205,-3.81 0.2299,-7.5525 1.2199,-11.0325 -4.71,0.24 -7.9427,5.745 -8.1152,10.175 0.4775,4.605 2.9152,9.1524 6.7527,11.8149 l -0.073,0.1652 c -2.8575,2.8 -5.7673,5.7148 -7.9648,9.0598 -1.975,0.965 -2.2678,4.4253 -4.8153,4.2203 -8.2125,0.7575 -16.1474,-1.5477 -24.0324,-3.4402 -3.4775,-0.84 -5.1601,4.9374 -1.8301,6.1074 7.76,3.575 16.5127,3.9601 24.8602,5.0976 -1.3125,4.8275 -3.4424,9.8651 -2.9649,14.9426 8.21,10.4075 23.4173,13.2474 35.5223,8.8024 4.815,-1.715 10.5276,-3.1176 13.7676,-7.2801 0.098,-4.8675 -1.4301,-9.74 -1.5176,-14.6375 4.4075,-0.9225 8.9275,-1.1447 13.3625,-1.8922 2.8375,-0.53 6.6074,0.4175 8.8324,-1.575 1.735,-3.78 -3.3747,-6.055 -6.3922,-4.8625 -5.955,0.44 -11.9125,1.1247 -17.8925,0.9422 -0.7625,-0.4175 -0.9852,-1.8798 -1.6977,-1.9348 -2.6125,-4.59 -6.4876,-8.5377 -9.2051,-13.0152 3.0775,-2.1 6.3628,-4.9275 7.1528,-8.875 1.1625,-5.9175 -1.9651,-11.9823 -6.7051,-15.3973 z m -83.0851,19.6547 c -1.8413,0.015 -3.6588,0.8427 -4.7375,2.5152 -2.19,4.1375 1.7726,7.985 5.3601,9.32 2.9075,1.7925 6.3252,2.9575 9.6477,3.73 3.3275,1.48 9.7248,-0.4124 7.3098,-5.1324 -2.6375,-1.975 -5.56,-3.7127 -8.4,-5.3652 -1.18,-1.23 -2.8675,-1.8349 -4.3,-2.7024 -1.1738,-1.5812 -3.0389,-2.3799 -4.8801,-2.3652 z m 139.75,8.0926 c -5.1225,2.7425 -10.7224,4.5126 -15.8824,7.1351 -0.7875,4.8625 5.935,5.1426 9.025,3.6051 3.4625,-0.835 7.2202,-2.5302 9.8527,-4.5277 1.6025,-0.4625 2.9573,-1.4747 4.4148,-2.2422 -0.98,-0.715 -2.1225,-1.1751 -3.2875,-1.4801 -1.4475,-0.695 -2.8701,-1.4377 -4.1226,-2.4902 z m -180.3898,2.7551 c 4.455,11.7325 13.9224,20.7575 24.1699,27.5875 0.9375,0.8875 2.805,0.1751 1.85,-1.1774 0.15,-1.5975 0.3674,-3.1924 0.4574,-4.7949 -3.42,-1.6375 -6.5475,-3.7951 -9.675,-5.9176 -0.054,-0.056 -0.1079,-0.1091 -0.1625,-0.1586 -0.122,-0.1105 -0.2458,-0.2031 -0.3703,-0.282 -4e-4,-2e-4 -4e-4,0 -8e-4,0 -5.7332,-4.7393 -11.1719,-9.849 -16.2687,-15.2562 z m 214.755,8.2476 c -1.425,1.5775 -2.7575,3.2451 -4.0375,4.9426 -4.575,4.68 -9.0051,9.5424 -13.9101,13.8949 -0.022,0.765 0.6152,2.6101 1.6152,1.6051 5.195,-4.4525 9.8973,-9.5976 13.4148,-15.4926 1.1725,-1.3325 2.1851,-3.215 2.9176,-4.95 z m -130.2488,10.9992 c -0.2439,0.013 -0.4364,0.1289 -0.4539,0.4407 -6.67,4.1325 -14.1099,6.7525 -21.2824,9.78 -2.755,-0.1225 -1.115,3.55 -1.475,5.2375 7.0275,0.6775 14.4927,-0.4851 20.6777,-3.7476 4.585,-1.34 5.8674,-7.7373 3.4699,-11.4473 -0.2236,-0.1265 -0.6227,-0.28 -0.9363,-0.2633 z m 57.4539,3.5684 c -0.072,3.28 -0.2177,8.3474 3.8273,9.4074 6.605,2.28 13.08,5.8399 20.1625,5.9899 0.17,-2.01 0.1349,-4.065 -0.048,-6.0575 -8.3025,-2.1875 -16.3872,-5.2473 -23.9422,-9.3398 z m -109.5777,2.0137 c -1.291,0 -1.4617,5.4863 0.8351,5.4886 1.2475,0.765 2.63,1.3626 4.075,1.6301 5.62,3.26 12.63,2.9675 18.9625,2.75 0.047,-0.8375 -0.01,-1.6899 -0.018,-2.5199 0.035,-0.37 0.05,-0.7403 0.015,-1.1078 -0.01,-0.4025 -0.032,-1.2099 -0.045,-1.6149 -7.97,-0.79 -15.9398,-1.9575 -23.5523,-4.55 -0.096,-0.052 -0.1866,-0.076 -0.2727,-0.076 z m -41.65003,1.741 c 0.43,5.0175 2.91774,9.7526 6.30274,13.4051 1.01999,1.83 2.74489,3.3725 4.50239,4.475 0.2175,0.5275 0.6351,0.9974 1.2476,1.0074 0.062,0.068 0.1875,0.2002 0.25,0.2652 2.47,2.1825 5.4249,3.9499 8.4524,5.2899 0.4675,0.335 0.9748,0.6524 1.5648,0.6949 0.25,0.715 1.4127,0.6777 2.0277,0.9777 0.8975,0.76 2.1126,0.9276 3.1926,1.3051 1.3425,0.945 3.1572,1.6899 4.8672,1.4699 0.038,-1.955 1.8802,-5.2551 -0.5773,-6.3351 -4.8875,-1.255 -9.4824,-3.3675 -14.1024,-5.3325 -3.9525,-2.5325 -8.0001,-5.0475 -11.44257,-8.305 -2.255,-2.7525 -4.60016,-5.9876 -6.28516,-8.9176 z m 236.44253,0.5902 c -6.1875,8.7075 -14.6473,15.5723 -23.8648,20.8848 0.31,0.7375 -0.022,3.4276 1.3875,2.3801 9.085,-5.735 17.8023,-14.1849 22.4773,-23.2649 z m -34.7601,1.3949 c -7.2325,1.855 -14.4549,3.9276 -21.8949,4.7426 -0.08,1.8 -0.035,3.6099 0.032,5.4149 7.53,0.4325 15.3926,-1.4424 21.5976,-5.8149 1.7825,-0.6325 1.6974,-3.9526 0.2649,-4.3426 z m -112.2227,10.3129 c -0.2414,0 -0.5152,0.045 -0.8246,0.1446 -6.785,2.82 -13.3827,6.5374 -19.8277,9.9699 -3.4725,0.1475 -3.6522,7.21 0.1328,7.15 8.2725,0.315 17.4274,-3.8698 21.3574,-11.3973 0.8043,-1.5406 1.4957,-5.8614 -0.8379,-5.8672 z m 8.9489,0.096 c -0.8741,-0.017 -1.6811,0.2538 -2.0911,1.0563 -2.2925,2.345 -1.7951,6.855 -0.01,9.4625 2.6375,5.305 9.0052,7.2426 14.2227,9.0176 5.7,2.1875 12.5323,2.0275 18.6148,1.4625 2.8225,-0.1325 5.7726,-0.445 8.4176,-1.45 6.4075,-1.3275 14.7952,-5.815 12.1977,-13.825 0,-0.1575 -0.01,-0.475 -0.012,-0.6325 -0.085,-1.7 -0.6226,-3.3701 -1.6676,-4.7226 -1.785,-0.027 -3.7374,0.7901 -5.0574,1.9176 -5.22,2.44 -10.8299,4.2852 -16.6074,4.9027 -9.0075,0.5925 -17.5675,-2.6503 -25.5125,-6.5203 -0.6788,-0.3475 -1.6201,-0.6519 -2.4942,-0.6688 z m 58.564,3.8016 c -3.32,0.455 -1.7199,4.8774 -0.5574,6.8449 4.93,5.9575 13.4075,6.1674 20.0375,9.2524 2.005,0.6775 1.4398,-5.0574 0.3598,-5.5774 -6.6575,-3.4125 -13.4474,-6.6149 -19.8399,-10.5199 z m -118.2339,8.7555 c -0.558,0.04 -0.4579,0.8301 -0.5536,1.3195 -0.02,0.95 -0.018,1.9024 0.01,2.8574 1.5525,2.7525 5.7828,2.805 8.6078,3.225 3.2625,0.87 6.8647,0.2623 10.1797,-0.2152 3.9025,0.1725 7.1075,-2.7974 5.5375,-6.9149 -7.6525,-0.105 -15.3172,-0.055 -22.9722,-0.023 -0.3638,-0.1925 -0.623,-0.2625 -0.809,-0.2492 z m 202.4062,0.099 c -8.1125,8.1375 -16.8875,15.7028 -26.6,21.8953 -1.3175,0.5725 -0.9225,2.8248 -0.65,3.6148 11.7975,-4.6 21.6025,-15.0626 27.25,-25.5101 z m -35.375,0.9777 c -4.8475,0.39 -9.6399,1.6 -14.5199,1.8625 -1.885,0.1075 -3.765,0.2274 -5.645,0.3649 -3.2125,-1.225 -2.6473,3.2925 -2.0023,5.175 2.6525,-0.12 5.4398,0.3352 8.0223,-0.3098 0.695,0 1.4852,0.1997 2.1027,-0.2078 2.97,-0.3925 6.0574,-1.3673 8.5074,-3.0223 1.7975,-0.5425 4.4173,-1.445 3.5348,-3.8625 z m -110.8027,4.2477 c -0.6934,-0.018 -1.4197,0.4176 -1.6321,1.2121 -1.5075,4.3875 -1.6449,9.9526 0.9176,13.9676 1.7875,2.92 4.5425,5.3776 7.5875,6.9101 4.6475,3.5325 10.9325,5.0498 16.75,4.9598 8.5475,0.585 17.5623,-2.3024 24.9473,-6.4449 3.3375,-1.4175 7.2426,-3.9598 7.4476,-7.9973 0.465,-2.445 0.93,-5.6201 -0.4625,-7.7426 -0.1275,-1.4775 -1.8826,-0.9025 -2.8351,-0.575 -8.21,3.205 -16.8925,6.0348 -25.82,5.5723 -9.33,-0.16 -17.66,-4.6172 -25.6,-8.9547 -0.2417,-0.6059 -0.761,-0.8937 -1.3003,-0.9074 z m -10.0301,2.2941 c -2.3143,-0.035 -5.446,2.6866 -7.1297,3.6281 -1.91,0.76 -3.6473,1.9927 -5.3348,3.1727 -2.015,1.0575 -4.0551,2.2172 -5.6926,3.8047 -2.54,1.5625 -5.0176,4.7126 -3.8976,7.8551 0.2325,1.6575 2.2178,3.02 3.7953,2.1375 5.5075,-2.94 11.0375,-5.8451 16.525,-8.8176 3.4675,-2.0075 4.5173,-6.4999 3.9398,-10.2024 -0.5196,-1.1292 -1.2998,-1.5646 -2.2054,-1.5781 z m -83.22463,1.4133 c 2.035,2.74 4.515,5.195 7.12503,7.375 0.2575,0.77 0.9852,1.2822 1.7277,1.5422 1.2225,1.3025 2.8174,2.2876 4.4324,3.0476 0.2175,0.2075 0.475,0.3727 0.745,0.5102 1.7675,1.3775 3.7076,2.6972 5.8351,3.4172 1.3275,1.565 3.8172,2.0151 5.7297,2.5226 0.1025,0 0.3077,0 0.4102,-0.01 2.605,1.4375 2.7949,-4.7749 0.8449,-5.2949 -1.5975,-0.8875 -3.3025,-1.6601 -5.0875,-2.0976 -2.0225,-1.3975 -4.63,-2.5902 -7.05,-3.2227 -1.075,-0.3475 -2.0299,-0.9375 -2.9699,-1.55 -0.4425,-0.8425 -1.6699,-0.8823 -2.4524,-1.2898 -3.0275,-1.7175 -6.11273,-3.4824 -9.29023,-4.9524 z m 156.16363,1.9262 c -1.7398,0.085 -2.2605,2.8925 -1.4484,4.3437 1.7475,4.69 6.7798,6.7498 10.6473,9.3723 3.1125,2.2075 6.89,3.2901 10.6925,2.8726 2.9375,-4.41 -3.6448,-6.2725 -6.5023,-8.3125 -3.8975,-2.905 -8.1327,-5.4825 -12.2977,-8.0175 -0.405,-0.1969 -0.7692,-0.2744 -1.0914,-0.2586 z m -100.1785,12.3211 c -6.795,1.9275 -13.9451,0.8802 -20.8976,1.2527 0.1725,1.6175 -0.4924,3.6847 0.2676,5.1172 6.785,3.0325 15.6125,2.5226 21.7175,-1.8074 -0.485,-1.345 0.42,-4.27 -1.0875,-4.5625 z m 184.8551,0.7777 c -7.9325,6.0725 -16.0827,11.8898 -24.7227,16.9273 -2.095,0.55 -1.7751,2.9201 -1.4101,4.4676 10.4,-4.38 19.9153,-12.8849 26.1328,-21.3949 z m -33.775,0.7574 c -6.2475,0.37 -12.5377,0.4474 -18.7977,0.6699 -2.505,0.2975 -6.2425,-1.8425 -7.9375,0.8075 -1.1775,2.895 2.3175,4.8575 4.77,4.905 0.09,0 0.2701,-0.015 0.3601,-0.018 5.63,0.79 11.6449,-0.047 16.9949,-2.0097 2.2075,-0.3825 5.5677,-1.3276 4.6102,-4.3551 z m -124.5453,0.3848 c -1.2575,0.61 -2.7947,1.2703 -3.6422,2.3203 -5.6125,2.8675 -10.8525,6.6098 -16.0625,10.1898 -2.7475,1.5725 -3.235,5.4626 -2.5375,7.9676 4.0675,-1.0775 7.9023,-3.1002 11.5398,-5.2027 4.315,-2.2675 8.6149,-4.8024 12.2399,-8.0824 0.6925,-2.295 0.855,-5.7851 -1.5375,-7.1926 z m -85.20235,0.35 0,0.4578 c 5.4875,10.75 15.70235,18.9597 27.01485,22.9422 2.735,1.2375 1.3002,-3.4123 1.2777,-4.6598 -10.945,-3.54 -19.98,-11.0402 -28.29255,-18.7402 z m 94.07265,2.4953 c -4.7275,3.6125 -3.1952,13.6247 2.2348,16.3797 0.065,0.058 0.1951,0.1753 0.2601,0.2328 4.93,4.575 11.8149,7.4025 18.5074,8.3125 l 0.22,0.012 c 2.5025,0.7475 6.4052,0.9299 9.2777,0.4324 2.375,-0.015 4.8798,-0.1601 7.1148,-1.0301 9.3125,-1.405 17.7576,-8.2476 19.4926,-17.7476 0.5925,-1.7725 -1.1801,-3.7573 -2.9476,-2.9598 -5.115,2.1275 -10.5148,3.87 -15.7598,5.3125 -2.59,0.1225 -5.0978,1.0475 -7.6828,1.3125 -5.8575,0.345 -11.6124,-0.9401 -17.0899,-2.7926 -4.465,-2.225 -9.1948,-5.0573 -13.6273,-7.4648 z m 65.025,1.7348 c -0.285,0 -0.8602,0.01 -1.1477,0.01 -3.1175,2.1925 -1.7648,7.2925 0.3977,9.8375 4.595,4.93 10.8173,8.1074 17.0648,10.4574 3.13,0.9875 1.0227,-3.7825 1.5727,-5.425 -6.3775,-4.45 -11.71,-10.1751 -17.8875,-14.8801 z m -101.0227,11.7601 c -6.9725,3.005 -14.6898,3.6499 -22.2148,3.4824 -0.6225,-0.1275 -1.2501,-0.2473 -1.8851,-0.2648 0.053,3.2275 -0.6725,7.4274 3.5175,8.2199 5.265,2.4125 11.9224,1.6424 16.9649,-1.0476 3.695,-2.0175 4.175,-7.0699 3.6175,-10.3899 z m 151.095,3.5641 c -0.152,0 -0.3489,0.055 -0.6024,0.1984 -6.4925,2.8525 -13.5475,3.2749 -20.475,2.5149 -1.5375,-0.3325 -5.4026,-1.7251 -4.7851,1.2074 -0.565,4.6575 5.0225,4.7626 8.275,5.1301 6.44,0.75 14.105,-0.6801 17.98,-6.4051 -0.061,-0.7067 0.4278,-2.6182 -0.3925,-2.6457 z m -114.6274,8.0633 c -2.11,3.6475 -1.1627,8.795 0.7598,12.255 5.365,10.9875 19.8901,14.6626 31.1226,12.5051 7.8,-0.795 14.9827,-6.2025 17.6477,-13.625 0.955,-2.2675 1.6147,-5.3002 -0.2328,-7.2777 -3.1075,0.515 -6.5022,1.63 -9.2922,2.4625 l -0.2125,0.048 c -13.075,3.51 -26.8827,0.8674 -38.6227,-5.5351 -0.085,-0.5625 -0.7299,-0.6674 -1.1699,-0.8324 z m 44.4723,29.555 c -2.3175,1.755 -4.9849,2.9974 -7.8024,3.7274 -8.5675,1.635 -17.3951,0.515 -25.7601,-1.6625 0.56,2.465 1.2051,5.04 2.5301,7.2125 1.1825,3.025 2.98,6.1851 5.3425,8.3801 3.2075,3.8975 6.1725,8.5527 10.57,11.2027 5.65,1.4925 12.3751,1.1072 17.3976,-2.0703 0.94,-0.62 2.4374,-1.5048 2.3649,-2.6848 -4.5225,-7.1825 -4.1351,-15.9801 -4.6426,-24.1051 z m 8.5801,30.0926 c -2.3725,0 -4.1174,2.0973 -6.1149,3.1723 -2.7625,0.8875 -5.4976,1.9176 -8.4176,2.2426 3.8175,4.03 8.2751,7.5125 12.1301,11.55 3.01,2.485 5.8473,5.74 9.8098,6.6 4.0375,-0.6575 8.9603,-2.7476 9.9328,-7.1426 -2.76,-5.53 -8.175,-9.2824 -12.9125,-13.0399 -1.0625,-1.5225 -2.9527,-2.3399 -4.4277,-3.3824 z m -55.8551,13.8973 c -1.3775,0.375 -2.7775,0.7677 -4.0375,1.4402 -4.795,1.47 -9.2172,4.2299 -12.7672,7.7574 -5.37,5.54 -6.705,14.3676 -3.4375,21.3176 2.0275,4.4075 4.2323,8.91 7.4273,12.575 2.6775,3.035 6.6199,-1.6099 6.2649,-4.3824 -3.565,-2.2125 -8.4373,-5.5801 -7.3973,-10.3676 1.87,-0.9725 4.1875,-1.0076 6.125,-1.9051 1.1875,-0.5475 4.6924,0.425 3.6899,-1.9625 -1.6425,-1.2975 -3.3998,-2.4876 -5.0973,-3.7226 -1.75,-2.1475 -4.5977,-4.5372 -3.5402,-7.6797 1.26,-4.4075 5.3874,-7.045 8.5699,-10.0125 1.35,-1.035 3.2175,-1.6003 4.2,-3.0578 z m 78.5101,7.7801 c -1.6575,1.0575 -3.4399,2.0452 -4.9824,3.2527 -0.375,0.072 -0.7624,0.1775 -1.0449,0.45 -1.7375,0.445 -3.3452,1.2775 -4.9652,2.025 2.855,4.59 4.5002,9.7625 5.7152,14.975 2.6625,2.78 7.6673,2.7499 11.0398,1.3199 2.3675,-3.035 1.5199,-7.2077 0.7399,-10.6777 -0.1175,-1.0875 -0.2725,-2.2799 -0.975,-3.1574 -1.1375,-3.045 -2.6749,-6.44 -5.5274,-8.1875 z m -6.4058,26.5671 c -0.5708,-0.014 -1.1441,0.6097 -1.3391,1.1403 -2.935,2.3025 -5.5749,5.1826 -8.1699,7.8601 -2.2475,1.045 -3.8825,3.16 -6.0375,4.42 1.8525,2.3925 2.3873,5.3701 2.9648,8.2351 6.165,-1.715 12.0552,-4.9126 16.7227,-9.2601 0.1025,-0.085 0.3098,-0.2549 0.4148,-0.3399 3.0625,-2.0675 5.325,-5.2976 6.8575,-8.6551 -1.085,-0.295 -2.2101,-0.5126 -3.3301,-0.3976 l -0.2149,-0.03 c -2.1475,-1.0425 -5.1725,-1.1678 -7.3125,-2.7203 -0.1756,-0.1731 -0.3655,-0.2482 -0.5558,-0.2528 z m -72.793,7.5934 c -3.1415,-0.015 -5.5039,5.811 -1.7785,7.5621 3.2025,3.1975 7.9073,4.6875 12.1723,6.0375 3,0.99 8.835,3.8748 10.325,-0.3652 0.89,-1.2675 0.9474,-4.5122 -0.7926,-5.6922 -3.7325,-1.515 -7.6448,-2.5153 -11.4723,-3.7328 -1.855,-1.0675 -3.965,-1.7749 -5.9875,-2.4949 -0.814,-0.9273 -1.6656,-1.3106 -2.4664,-1.3145 z m 50.3688,7.4746 c -3.9875,0.1875 -7.9598,1.2224 -11.9848,1.3399 -0.3025,0 -0.6051,0.01 -0.9051,0.018 -3.925,0 -7.8527,0.027 -11.7652,-0.1875 0.22,2.605 -0.5847,5.0925 -0.9672,7.63 3.5475,0.85 7.1199,1.605 10.7449,2.045 l 0.7,0 c 5.685,-0.825 11.5298,-1.3077 17.0973,-2.4852 0.425,-2.87 -0.8124,-6.3598 -2.9199,-8.3598 z"
         inkscape:connector-curvature="0"
         style="opacity:0.7" />
    </g>
  </g>
</svg>
