<?xml version="1.0" encoding="UTF-8" standalone="no"?>
<svg
   xmlns:osb="http://www.openswatchbook.org/uri/2009/osb"
   xmlns:dc="http://purl.org/dc/elements/1.1/"
   xmlns:cc="http://creativecommons.org/ns#"
   xmlns:rdf="http://www.w3.org/1999/02/22-rdf-syntax-ns#"
   xmlns:svg="http://www.w3.org/2000/svg"
   xmlns="http://www.w3.org/2000/svg"
   version="1.1"
   id="svg6716"
   viewBox="0 0 198.12553 184.92013"
   height="655.22882"
   width="702.01959">
  <defs
     id="defs3">
    <linearGradient
       osb:paint="gradient"
       id="linearGradient8993">
      <stop
         id="stop8995"
         offset="0"
         style="stop-color:#ffdd55;stop-opacity:1;" />
      <stop
         id="stop8997"
         offset="1"
         style="stop-color:#ffdd55;stop-opacity:0;" />
    </linearGradient>
  </defs>
  <metadata
     id="metadata4">
    <rdf:RDF>
      <cc:Work
         rdf:about="">
        <dc:format>image/svg+xml</dc:format>
        <dc:type
           rdf:resource="http://purl.org/dc/dcmitype/StillImage" />
        <dc:title></dc:title>
      </cc:Work>
    </rdf:RDF>
  </metadata>
  <g
     transform="translate(72.631705,-49.548289)"
     id="layer1">
    <g
       transform="matrix(1.6629752,0,0,1.6878356,-139.93351,-262.26291)"
       id="g9707">
      <path
         id="path9367"
         d="m 62.877056,288.70028 c 4.264252,-7.34797 8.621016,-15.18832 8.100942,-23.81472 -0.811202,-4.61103 -0.29513,-9.30559 -1.208778,-13.89644 -1.496753,-6.68342 -0.03416,-13.58245 -1.406627,-20.25968 0.116173,-6.70474 0.110919,-13.40333 -0.827606,-20.05378 -0.491214,-8.36272 7.091863,-14.15605 13.630193,-18.54825 5.782295,-3.46007 12.779724,-4.32763 19.22404,-6.23291 5.01999,-1.18378 10.4611,-1.74826 15.20284,0.69853 5.88921,1.50261 11.75514,3.60076 16.24553,7.64566 3.33018,3.20482 7.78793,5.51299 10.0269,9.57955 3.36881,5.58924 5.96487,11.58611 7.65017,17.80256 1.57893,6.26297 1.29272,12.69477 1.29309,19.0732 -2.46754,6.85714 -3.04696,14.26388 -2.80907,21.44228 1.89007,6.24897 5.45141,11.90845 8.89164,17.49166 2.034,2.98005 4.92623,9.43858 -0.69966,10.60238 -5.59534,2.52619 -11.80456,2.71859 -17.88279,2.52791 -5.81453,-0.2682 -11.30495,-2.62896 -17.0549,-3.68793 -6.19037,-1.61107 -12.74072,-4.10995 -19.11385,-1.89907 -6.182399,1.14134 -11.369212,4.82699 -17.278368,6.60483 -5.875674,1.46214 -10.981046,-1.6223 -16.28653,-3.24677 -1.881477,-0.96446 -4.318691,-0.14576 -5.697166,-1.82901 z"
         style="font-style:normal;font-weight:normal;font-size:medium;line-height:125%;font-family:sans-serif;letter-spacing:0px;word-spacing:0px;writing-mode:tb-rl;fill:#348c43;fill-opacity:1;fill-rule:evenodd;stroke:#348c43;stroke-width:0.28222221px;stroke-linecap:butt;stroke-linejoin:miter;stroke-opacity:1" />
      <path
         style="fill:none;fill-rule:evenodd;stroke:#e2e24a;stroke-width:0.92448807;stroke-linecap:round;stroke-linejoin:round;stroke-miterlimit:4;stroke-dasharray:none;stroke-opacity:1"
         id="path9651"
         d="m 129.77272,229.79873 c -0.0768,1.00217 -1.46682,0.79047 -1.98094,0.33778 -1.11526,-0.98199 -0.70827,-2.74238 0.33016,-3.60299 1.57646,-1.30649 3.92933,-0.70174 5.06823,0.87375 1.52009,2.1028 0.71389,5.05497 -1.36683,6.44753 -2.59625,1.73758 -6.1346,0.73433 -7.76745,-1.82954 -1.95409,-3.06829 -0.75908,-7.17821 2.27102,-9.04226 3.52446,-2.16816 8.19254,-0.7863 10.2809,2.69642 1.54262,2.5726 1.48801,5.85914 -0.0316,8.42855"
         transform="matrix(0,-1.2999167,-1.147055,0,346.15969,444.45463)" />
      <ellipse
         ry="6.3216701"
         rx="6.8542652"
         cy="232.32314"
         cx="101.82603"
         id="path9415"
         style="font-style:normal;font-weight:normal;font-size:medium;line-height:125%;font-family:sans-serif;letter-spacing:0px;word-spacing:0px;writing-mode:tb-rl;opacity:1;fill:#e1c725;fill-opacity:1;stroke:#e1c725;stroke-width:0.84666669;stroke-linecap:round;stroke-linejoin:round;stroke-miterlimit:4;stroke-dasharray:none;stroke-opacity:1" />
      <ellipse
         ry="7.618423"
         rx="6.530077"
         cy="242.60454"
         cx="104.00272"
         id="path9417"
         style="font-style:normal;font-weight:normal;font-size:medium;line-height:125%;font-family:sans-serif;letter-spacing:0px;word-spacing:0px;writing-mode:tb-rl;opacity:1;fill:#e1c725;fill-opacity:1;stroke:#e1c725;stroke-width:0.84666669;stroke-linecap:round;stroke-linejoin:round;stroke-miterlimit:4;stroke-dasharray:none;stroke-opacity:1" />
      <ellipse
         ry="5.6269808"
         rx="7.1552973"
         cy="232.41577"
         cx="54.934517"
         id="path9419"
         style="font-style:normal;font-weight:normal;font-size:medium;line-height:125%;font-family:sans-serif;letter-spacing:0px;word-spacing:0px;writing-mode:tb-rl;opacity:1;fill:#e1c725;fill-opacity:1;stroke:#e1c725;stroke-width:0.84666669;stroke-linecap:round;stroke-linejoin:round;stroke-miterlimit:4;stroke-dasharray:none;stroke-opacity:1" />
      <ellipse
         ry="6.8542652"
         rx="7.8962984"
         cy="243.32239"
         cx="54.054577"
         id="path9423"
         style="font-style:normal;font-weight:normal;font-size:medium;line-height:125%;font-family:sans-serif;letter-spacing:0px;word-spacing:0px;writing-mode:tb-rl;opacity:1;fill:#e1c725;fill-opacity:1;stroke:#e1c725;stroke-width:0.84666669;stroke-linecap:round;stroke-linejoin:round;stroke-miterlimit:4;stroke-dasharray:none;stroke-opacity:1" />
      <path
         d="m 50.433217,242.81014 c 0.373135,0.37187 0.203384,0.98392 -0.161682,1.29127 -0.65284,0.54964 -1.624295,0.25456 -2.098868,-0.3791 -0.762044,-1.01751 -0.301007,-2.44765 0.684459,-3.12613 1.469321,-1.01162 3.461321,-0.34199 4.381305,1.08202 0.867444,1.34269 0.764007,3.10739 -0.09074,4.42888"
         id="path9701"
         style="fill:none;fill-rule:evenodd;stroke:#bfb026;stroke-width:1.41111112;stroke-linecap:round;stroke-linejoin:round;stroke-miterlimit:4;stroke-dasharray:none;stroke-opacity:1" />
      <path
         style="font-style:normal;font-weight:normal;font-size:medium;line-height:125%;font-family:sans-serif;letter-spacing:0px;word-spacing:0px;writing-mode:tb-rl;fill:#281111;fill-opacity:1;fill-rule:evenodd;stroke:#000000;stroke-width:0.28222221px;stroke-linecap:butt;stroke-linejoin:miter;stroke-opacity:1"
         d="m 115.75851,214.5505 c -6.50069,1.52137 -15.36272,-2.11533 -25.685718,-4.75467 -6.786196,-1.73506 -24.949422,0.81002 -24.949422,0.81002 -0.692414,4.37022 17.780353,-6.48241 17.871331,1.87778 0,0 9.356342,16.60254 22.320139,12.97563 4.09409,-1.14541 7.57239,-2.65631 10.63166,-7.04485 0.69293,-0.99402 0.29568,-3.9771 -0.18799,-3.86391 z"
         id="path9409" />
      <path
         style="fill:none;fill-rule:evenodd;stroke:#bfb026;stroke-width:1.23679876;stroke-linecap:round;stroke-linejoin:round;stroke-miterlimit:4;stroke-dasharray:none;stroke-opacity:1"
         id="path9679"
         d="m 53.573762,233.63007 c 0.373135,0.37188 0.203384,0.98392 -0.161682,1.29127 -0.65284,0.54964 -1.624295,0.25456 -2.098868,-0.3791 -0.762044,-1.01751 -0.301007,-2.44765 0.684459,-3.12613 1.46932,-1.01161 3.461321,-0.34199 4.381305,1.08202 0.867444,1.34269 0.764007,3.10739 -0.09074,4.42888"
         transform="matrix(1.1813863,0,0,1.1018753,-10.109787,-23.912338)" />
      <ellipse
         style="opacity:1;fill:#de1313;fill-opacity:1;stroke:#de1313;stroke-width:0.89350361;stroke-linecap:round;stroke-linejoin:round;stroke-miterlimit:4;stroke-dasharray:none;stroke-opacity:1"
         id="path9525"
         cx="77.378441"
         cy="241.31065"
         rx="21.750631"
         ry="27.462868" />
      <ellipse
         ry="8.6475954"
         rx="9.4557829"
         cy="249.01834"
         cx="59.886761"
         id="path9371"
         style="font-style:normal;font-weight:normal;font-size:medium;line-height:125%;font-family:sans-serif;letter-spacing:0px;word-spacing:0px;writing-mode:tb-rl;opacity:1;fill:#de1313;fill-opacity:1;stroke:#de1313;stroke-width:0.84666669;stroke-linecap:round;stroke-linejoin:round;stroke-miterlimit:4;stroke-dasharray:none;stroke-opacity:1" />
      <path
         style="fill:none;fill-rule:evenodd;stroke:#bfb026;stroke-width:1.41111112;stroke-linecap:round;stroke-linejoin:round;stroke-miterlimit:4;stroke-dasharray:none;stroke-opacity:1"
         id="path9703"
         d="m -107.00322,242.0854 c 0.37314,0.37187 0.20339,0.98391 -0.16168,1.29127 -0.65284,0.54963 -1.6243,0.25455 -2.09887,-0.37911 -0.76204,-1.01751 -0.30101,-2.44764 0.68446,-3.12613 1.46932,-1.01161 3.46132,-0.34198 4.38131,1.08203 0.86744,1.34268 0.764,3.10738 -0.0907,4.42887"
         transform="scale(-1,1)" />
      <ellipse
         ry="9.2941446"
         rx="8.7284155"
         cy="249.6649"
         cx="96.982529"
         id="path9373"
         style="font-style:normal;font-weight:normal;font-size:medium;line-height:125%;font-family:sans-serif;letter-spacing:0px;word-spacing:0px;writing-mode:tb-rl;opacity:1;fill:#de1313;fill-opacity:1;stroke:#de1313;stroke-width:0.84666669;stroke-linecap:round;stroke-linejoin:round;stroke-miterlimit:4;stroke-dasharray:none;stroke-opacity:1" />
      <ellipse
         ry="6.4708519"
         rx="6.5465102"
         cy="244.49248"
         cx="72.252022"
         id="path9383"
         style="font-style:normal;font-weight:normal;font-size:medium;line-height:125%;font-family:sans-serif;letter-spacing:0px;word-spacing:0px;writing-mode:tb-rl;opacity:1;fill:#de1313;fill-opacity:1;stroke:#de1313;stroke-width:1.00271511;stroke-linecap:round;stroke-linejoin:round;stroke-miterlimit:4;stroke-dasharray:none;stroke-opacity:1" />
      <ellipse
         style="font-style:normal;font-weight:normal;font-size:medium;line-height:125%;font-family:sans-serif;letter-spacing:0px;word-spacing:0px;writing-mode:tb-rl;opacity:1;fill:#e1c725;fill-opacity:1;stroke:#e1c725;stroke-width:0.84666669;stroke-linecap:round;stroke-linejoin:round;stroke-miterlimit:4;stroke-dasharray:none;stroke-opacity:1"
         id="ellipse9574"
         cx="65.759438"
         cy="237.09879"
         rx="7.677772"
         ry="6.9504046" />
      <ellipse
         ry="6.497138"
         rx="6.0087237"
         cy="244.00757"
         cx="85.91037"
         id="path9385"
         style="font-style:normal;font-weight:normal;font-size:medium;line-height:125%;font-family:sans-serif;letter-spacing:0px;word-spacing:0px;writing-mode:tb-rl;opacity:1;fill:#de1313;fill-opacity:1;stroke:#de1313;stroke-width:0.95225245;stroke-linecap:round;stroke-linejoin:round;stroke-miterlimit:4;stroke-dasharray:none;stroke-opacity:1" />
      <path
         d="m -104.74846,233.30798 c 0.37314,0.37187 0.20339,0.98391 -0.16168,1.29127 -0.65284,0.54963 -1.62429,0.25455 -2.09887,-0.37911 -0.76204,-1.01751 -0.301,-2.44764 0.68446,-3.12613 1.46932,-1.01161 3.46132,-0.34198 4.38131,1.08203 0.86744,1.34268 0.764,3.10738 -0.0907,4.42887"
         id="path9705"
         style="fill:none;fill-rule:evenodd;stroke:#bfb026;stroke-width:1.41111112;stroke-linecap:round;stroke-linejoin:round;stroke-miterlimit:4;stroke-dasharray:none;stroke-opacity:1"
         transform="scale(-1,1)" />
      <circle
         cy="236.97635"
         cx="93.749779"
         id="path9377"
         style="font-style:normal;font-weight:normal;font-size:medium;line-height:125%;font-family:sans-serif;letter-spacing:0px;word-spacing:0px;writing-mode:tb-rl;opacity:1;fill:#e1c725;fill-opacity:1;stroke:#e1c725;stroke-width:0.84666669;stroke-linecap:round;stroke-linejoin:round;stroke-miterlimit:4;stroke-dasharray:none;stroke-opacity:1"
         r="7.4353166" />
      <ellipse
         style="font-style:normal;font-weight:normal;font-size:medium;line-height:125%;font-family:sans-serif;letter-spacing:0px;word-spacing:0px;writing-mode:tb-rl;opacity:1;fill:#e1c725;fill-opacity:1;stroke:#e1c725;stroke-width:0.86843449;stroke-linecap:round;stroke-linejoin:round;stroke-miterlimit:4;stroke-dasharray:none;stroke-opacity:1"
         id="ellipse9578"
         cx="70.984299"
         cy="245.57675"
         rx="7.3046842"
         ry="6.9342189" />
      <ellipse
         ry="6.4615955"
         rx="7.2576447"
         cy="245.21631"
         cx="70.329025"
         id="path9379"
         style="font-style:normal;font-weight:normal;font-size:medium;line-height:125%;font-family:sans-serif;letter-spacing:0px;word-spacing:0px;writing-mode:tb-rl;opacity:1;fill:#de1313;fill-opacity:1;stroke:#de1313;stroke-width:0.83561319;stroke-linecap:round;stroke-linejoin:round;stroke-miterlimit:4;stroke-dasharray:none;stroke-opacity:1" />
      <ellipse
         ry="6.9504046"
         rx="7.677772"
         cy="236.97635"
         cx="64.412605"
         id="path9375"
         style="font-style:normal;font-weight:normal;font-size:medium;line-height:125%;font-family:sans-serif;letter-spacing:0px;word-spacing:0px;writing-mode:tb-rl;opacity:1;fill:#f1db0d;fill-opacity:1;stroke:#f1db0d;stroke-width:0.84666669;stroke-linecap:round;stroke-linejoin:round;stroke-miterlimit:4;stroke-dasharray:none;stroke-opacity:1" />
      <ellipse
         style="font-style:normal;font-weight:normal;font-size:medium;line-height:125%;font-family:sans-serif;letter-spacing:0px;word-spacing:0px;writing-mode:tb-rl;opacity:1;fill:#e1c725;fill-opacity:1;stroke:#e1c725;stroke-width:0.86843449;stroke-linecap:round;stroke-linejoin:round;stroke-miterlimit:4;stroke-dasharray:none;stroke-opacity:1"
         id="ellipse9580"
         cx="86.797737"
         cy="245.74799"
         rx="7.0638695"
         ry="6.7630038" />
      <ellipse
         ry="6.3020496"
         rx="7.0183811"
         cy="245.85899"
         cx="85.960098"
         id="path9381"
         style="font-style:normal;font-weight:normal;font-size:medium;line-height:125%;font-family:sans-serif;letter-spacing:0px;word-spacing:0px;writing-mode:tb-rl;opacity:1;fill:#de1313;fill-opacity:1;stroke:none;stroke-width:0.80630183;stroke-linecap:round;stroke-linejoin:round;stroke-miterlimit:4;stroke-dasharray:none;stroke-opacity:1" />
      <path
         id="path9387"
         d="m 41.174997,214.73575 c 6.500688,1.52137 15.362719,-2.11533 25.685715,-4.75467 6.786196,-1.73506 24.949422,0.81002 24.949422,0.81002 0.692414,4.37022 -28.723436,-1.20636 -28.814413,7.15383 0,0 1.586741,11.32649 -11.377057,7.69958 -4.094093,-1.14541 -7.572388,-2.65631 -10.631659,-7.04485 -0.692932,-0.99402 -0.295679,-3.9771 0.187992,-3.86391 z"
         style="font-style:normal;font-weight:normal;font-size:medium;line-height:125%;font-family:sans-serif;letter-spacing:0px;word-spacing:0px;writing-mode:tb-rl;fill:#281111;fill-opacity:1;fill-rule:evenodd;stroke:#000000;stroke-width:0.28222221px;stroke-linecap:butt;stroke-linejoin:miter;stroke-opacity:1" />
      <ellipse
         ry="2.7092872"
         rx="2.686131"
         cy="236.49712"
         cx="64.659126"
         id="path9411"
         style="font-style:normal;font-weight:normal;font-size:medium;line-height:125%;font-family:sans-serif;letter-spacing:0px;word-spacing:0px;writing-mode:tb-rl;opacity:1;fill:#281111;fill-opacity:1;stroke:#000000;stroke-width:0.84666669;stroke-linecap:round;stroke-linejoin:round;stroke-miterlimit:4;stroke-dasharray:none;stroke-opacity:1" />
      <circle
         r="7.4353166"
         style="font-style:normal;font-weight:normal;font-size:medium;line-height:125%;font-family:sans-serif;letter-spacing:0px;word-spacing:0px;writing-mode:tb-rl;opacity:1;fill:#f1db0d;fill-opacity:1;stroke:#f1db0d;stroke-width:0.84666669;stroke-linecap:round;stroke-linejoin:round;stroke-miterlimit:4;stroke-dasharray:none;stroke-opacity:1"
         id="circle9576"
         cx="95.096611"
         cy="237.09879" />
      <ellipse
         ry="2.7324433"
         rx="2.616662"
         cy="236.52028"
         cx="92.423531"
         id="path9413"
         style="font-style:normal;font-weight:normal;font-size:medium;line-height:125%;font-family:sans-serif;letter-spacing:0px;word-spacing:0px;writing-mode:tb-rl;opacity:1;fill:#281111;fill-opacity:1;stroke:#000000;stroke-width:0.84666669;stroke-linecap:round;stroke-linejoin:round;stroke-miterlimit:4;stroke-dasharray:none;stroke-opacity:1" />
      <path
         id="path9425"
         d="m 69.036706,208.35637 c -0.463128,0 -8.799396,2.54719 -8.799396,2.54719 l 2.547193,2.45457 -9.355144,3.51975 5.650137,3.75132 0.741,4.95545 5.696453,-3.28819 0.648373,5.46489 4.723888,-5.32595 2.593506,4.81651 5.001759,-5.32595 5.464887,5.55751 2.084067,-5.09439 5.187012,5.74277 1.111502,-5.32595 5.464887,2.54719 -2.558656,-6.23597 5.168396,1.86039 1.07904,-4.39016 -7.208537,-3.04397 1.852504,-2.77876 -6.530077,-2.73244 -4.492322,-3.75132 -6.298513,2.50088 -6.90058,-2.50088 z"
         style="font-style:normal;font-weight:normal;font-size:medium;line-height:125%;font-family:sans-serif;letter-spacing:0px;word-spacing:0px;writing-mode:tb-rl;fill:#f1db0d;fill-opacity:1;fill-rule:evenodd;stroke:none;stroke-width:0.28222221px;stroke-linecap:butt;stroke-linejoin:miter;stroke-opacity:1" />
      <path
         id="path9433"
         d="m 56.254428,226.88141 c 3.600313,1.86793 7.8467,1.8899 11.836889,2.17537 1.968749,-0.11672 4.017599,-0.37164 5.715769,-1.38801"
         style="font-style:normal;font-weight:normal;font-size:medium;line-height:125%;font-family:sans-serif;letter-spacing:0px;word-spacing:0px;writing-mode:tb-rl;fill:none;fill-opacity:1;fill-rule:evenodd;stroke:#463b3b;stroke-width:6.49111128;stroke-linecap:round;stroke-linejoin:round;stroke-miterlimit:4;stroke-dasharray:none;stroke-opacity:1" />
      <path
         style="font-style:normal;font-weight:normal;font-size:medium;line-height:125%;font-family:sans-serif;letter-spacing:0px;word-spacing:0px;writing-mode:tb-rl;fill:none;fill-opacity:1;fill-rule:evenodd;stroke:#463b3b;stroke-width:6.49111128;stroke-linecap:round;stroke-linejoin:round;stroke-miterlimit:4;stroke-dasharray:none;stroke-opacity:1"
         d="m 100.67624,227.29822 c -3.600314,1.86793 -7.846702,1.8899 -11.836891,2.17537 -1.968749,-0.11672 -4.017598,-0.37163 -5.715768,-1.388"
         id="path9443" />
      <ellipse
         ry="4.6784158"
         rx="5.2326984"
         cy="225.19769"
         cx="57.312691"
         id="path9445"
         style="font-style:normal;font-weight:normal;font-size:medium;line-height:125%;font-family:sans-serif;letter-spacing:0px;word-spacing:0px;writing-mode:tb-rl;opacity:1;fill:#463b3b;fill-opacity:1;stroke:#463b3b;stroke-width:0.89116794;stroke-linecap:round;stroke-linejoin:round;stroke-miterlimit:4;stroke-dasharray:none;stroke-opacity:1" />
      <ellipse
         style="font-style:normal;font-weight:normal;font-size:medium;line-height:125%;font-family:sans-serif;letter-spacing:0px;word-spacing:0px;writing-mode:tb-rl;opacity:1;fill:#463b3b;fill-opacity:1;stroke:#463b3b;stroke-width:0.89116794;stroke-linecap:round;stroke-linejoin:round;stroke-miterlimit:4;stroke-dasharray:none;stroke-opacity:1"
         id="ellipse9447"
         cx="99.210556"
         cy="225.21034"
         rx="5.2326984"
         ry="4.6784158" />
      <ellipse
         ry="2.3479171"
         rx="2.990705"
         cy="247.03401"
         cx="71.544235"
         id="path9449"
         style="font-style:normal;font-weight:normal;font-size:medium;line-height:125%;font-family:sans-serif;letter-spacing:0px;word-spacing:0px;writing-mode:tb-rl;opacity:1;fill:#281111;fill-opacity:1;stroke:#000000;stroke-width:0.8757512;stroke-linecap:round;stroke-linejoin:round;stroke-miterlimit:4;stroke-dasharray:none;stroke-opacity:1" />
      <ellipse
         ry="2.3479171"
         rx="2.8660922"
         cy="246.92352"
         cx="86.438896"
         id="path9451"
         style="font-style:normal;font-weight:normal;font-size:medium;line-height:125%;font-family:sans-serif;letter-spacing:0px;word-spacing:0px;writing-mode:tb-rl;opacity:1;fill:#281111;fill-opacity:1;stroke:#000000;stroke-width:0.8757512;stroke-linecap:round;stroke-linejoin:round;stroke-miterlimit:4;stroke-dasharray:none;stroke-opacity:1" />
      <rect
         ry="13.715419"
         rx="1.8392686"
         y="254.13388"
         x="54.371857"
         height="13.715419"
         width="47.838505"
         id="rect9453"
         style="font-style:normal;font-weight:normal;font-size:medium;line-height:125%;font-family:sans-serif;letter-spacing:0px;word-spacing:0px;writing-mode:tb-rl;opacity:1;fill:#de1313;fill-opacity:1;stroke:#de1313;stroke-width:0.84861946;stroke-linecap:round;stroke-linejoin:round;stroke-miterlimit:4;stroke-dasharray:none;stroke-opacity:1" />
      <rect
         rx="0.09488333"
         ry="2.0703595"
         y="254.44095"
         x="85.200592"
         height="4.3926091"
         width="4.1202416"
         id="rect9476"
         style="font-style:normal;font-weight:normal;font-size:medium;line-height:125%;font-family:sans-serif;letter-spacing:0px;word-spacing:0px;writing-mode:tb-rl;opacity:1;fill:#f1db0d;fill-opacity:1;stroke:#e1c725;stroke-width:0.56444442;stroke-linecap:round;stroke-linejoin:round;stroke-miterlimit:4;stroke-dasharray:none;stroke-opacity:1" />
      <rect
         ry="4.0128112"
         rx="0.18976666"
         y="260.72095"
         x="67.446144"
         height="4.0128112"
         width="4.0610728"
         id="rect9513"
         style="font-style:normal;font-weight:normal;font-size:medium;line-height:125%;font-family:sans-serif;letter-spacing:0px;word-spacing:0px;writing-mode:tb-rl;opacity:1;fill:#f1db0d;fill-opacity:1;stroke:#e1c725;stroke-width:0.56444442;stroke-linecap:round;stroke-linejoin:round;stroke-miterlimit:4;stroke-dasharray:none;stroke-opacity:1" />
      <rect
         style="font-style:normal;font-weight:normal;font-size:medium;line-height:125%;font-family:sans-serif;letter-spacing:0px;word-spacing:0px;writing-mode:tb-rl;opacity:1;fill:#f1db0d;fill-opacity:1;stroke:#e1c725;stroke-width:0.56444442;stroke-linecap:round;stroke-linejoin:round;stroke-miterlimit:4;stroke-dasharray:none;stroke-opacity:1"
         id="rect9519"
         width="4.1202416"
         height="4.3926091"
         x="85.246902"
         y="260.46161"
         ry="2.0703595"
         rx="0.18976666" />
      <rect
         style="font-style:normal;font-weight:normal;font-size:medium;line-height:125%;font-family:sans-serif;letter-spacing:0px;word-spacing:0px;writing-mode:tb-rl;opacity:1;fill:#f1db0d;fill-opacity:1;stroke:#e1c725;stroke-width:0.56444442;stroke-linecap:round;stroke-linejoin:round;stroke-miterlimit:4;stroke-dasharray:none;stroke-opacity:1"
         id="rect9521"
         width="3.8216405"
         height="4.4222422"
         x="90.888466"
         y="260.44678"
         ry="1.917809"
         rx="0.109462" />
      <rect
         style="opacity:1;fill:#de1313;fill-opacity:1;stroke:#de1313;stroke-width:0.55291796;stroke-linecap:round;stroke-linejoin:round;stroke-miterlimit:4;stroke-dasharray:none;stroke-opacity:1"
         id="rect9582"
         width="6.4535556"
         height="10.257421"
         x="75.688263"
         y="241.40988"
         rx="0"
         ry="10.257421" />
      <rect
         style="opacity:1;fill:#de1313;fill-opacity:1;stroke:#de1313;stroke-width:0.56444442;stroke-linecap:round;stroke-linejoin:round;stroke-miterlimit:4;stroke-dasharray:none;stroke-opacity:1"
         id="rect9584"
         width="8.7120771"
         height="2.5154588"
         x="74.528328"
         y="250.43448"
         ry="1.2577294" />
      <path
         style="fill:none;fill-rule:evenodd;stroke:#e2e24a;stroke-width:0.87534362;stroke-linecap:round;stroke-linejoin:round;stroke-miterlimit:4;stroke-dasharray:none;stroke-opacity:1"
         id="path9594"
         d="m 129.77272,229.79873 c -0.0768,1.00217 -1.46682,0.79047 -1.98094,0.33778 -1.11526,-0.98199 -0.70827,-2.74238 0.33016,-3.60299 1.57646,-1.30649 3.92933,-0.70174 5.06823,0.87375 1.52009,2.1028 0.71389,5.05497 -1.36683,6.44753 -2.59625,1.73758 -6.1346,0.73433 -7.76745,-1.82954 -1.95409,-3.06829 -0.75908,-7.17821 2.27102,-9.04226 3.52446,-2.16816 8.19254,-0.7863 10.2809,2.69642 1.54262,2.5726 1.48801,5.85914 -0.0316,8.42855"
         transform="matrix(1.1430576,0,0,1.4550474,-23.337094,-98.255122)" />
      <path
         transform="matrix(0.74841714,0,0,0.89821853,11.572213,-10.373279)"
         d="m 129.77272,229.79873 c -0.0768,1.00217 -1.46682,0.79047 -1.98094,0.33778 -1.11526,-0.98199 -0.70827,-2.74238 0.33016,-3.60299 1.57646,-1.30649 3.92933,-0.70174 5.06823,0.87375 1.52009,2.1028 0.71389,5.05497 -1.36683,6.44753 -2.59625,1.73758 -6.1346,0.73433 -7.76745,-1.82954 -1.95409,-3.06829 -0.75908,-7.17821 2.27102,-9.04226 3.52446,-2.16816 8.19254,-0.7863 10.2809,2.69642 1.54262,2.5726 1.48801,5.85914 -0.0316,8.42855"
         id="path9625"
         style="fill:none;fill-rule:evenodd;stroke:#e2e24a;stroke-width:1.37685537;stroke-linecap:round;stroke-linejoin:round;stroke-miterlimit:4;stroke-dasharray:none;stroke-opacity:1" />
      <path
         style="fill:none;fill-rule:evenodd;stroke:#e2e24a;stroke-width:1.06508732;stroke-linecap:round;stroke-linejoin:round;stroke-miterlimit:4;stroke-dasharray:none;stroke-opacity:1"
         id="path9627"
         d="m 129.77272,229.79873 c -0.0768,1.00217 -1.46682,0.79047 -1.98094,0.33778 -1.11526,-0.98199 -0.70827,-2.74238 0.33016,-3.60299 1.57646,-1.30649 3.92933,-0.70174 5.06823,0.87375 1.52009,2.1028 0.71389,5.05497 -1.36683,6.44753 -2.59625,1.73758 -6.1346,0.73433 -7.76745,-1.82954 -1.95409,-3.06829 -0.75908,-7.17821 2.27102,-9.04226 3.52446,-2.16816 8.19254,-0.7863 10.2809,2.69642 1.54262,2.5726 1.48801,5.85914 -0.0316,8.42855"
         transform="matrix(1.1369624,0,0,0.98806591,-26.269803,-23.445629)" />
      <path
         transform="matrix(1.1430576,0,0,-1.4550474,-15.522108,590.03495)"
         d="m 129.77272,229.79873 c -0.0768,1.00217 -1.46682,0.79047 -1.98094,0.33778 -1.11526,-0.98199 -0.70827,-2.74238 0.33016,-3.60299 1.57646,-1.30649 3.92933,-0.70174 5.06823,0.87375 1.52009,2.1028 0.71389,5.05497 -1.36683,6.44753 -2.59625,1.73758 -6.1346,0.73433 -7.76745,-1.82954 -1.95409,-3.06829 -0.75908,-7.17821 2.27102,-9.04226 3.52446,-2.16816 8.19254,-0.7863 10.2809,2.69642 1.54262,2.5726 1.48801,5.85914 -0.0316,8.42855"
         id="path9649"
         style="fill:none;fill-rule:evenodd;stroke:#e2e24a;stroke-width:0.87534362;stroke-linecap:round;stroke-linejoin:round;stroke-miterlimit:4;stroke-dasharray:none;stroke-opacity:1" />
      <path
         transform="matrix(-0.84965494,0,0,0.75208452,208.50536,105.42386)"
         d="m 129.77272,229.79873 c -0.0768,1.00217 -1.46682,0.79047 -1.98094,0.33778 -1.11526,-0.98199 -0.70827,-2.74238 0.33016,-3.60299 1.57646,-1.30649 3.92933,-0.70174 5.06823,0.87375 1.52009,2.1028 0.71389,5.05497 -1.36683,6.44753 -2.59625,1.73758 -6.1346,0.73433 -7.76745,-1.82954 -1.95409,-3.06829 -0.75908,-7.17821 2.27103,-9.04226 3.52445,-2.16816 8.19253,-0.78629 10.28089,2.69642 0.21214,0.35379 0.39661,0.72413 0.55152,1.10646"
         id="path9653"
         style="fill:none;fill-rule:evenodd;stroke:#e2e24a;stroke-width:1.41220117;stroke-linecap:round;stroke-linejoin:round;stroke-miterlimit:4;stroke-dasharray:none;stroke-opacity:1" />
      <path
         style="fill:none;fill-rule:evenodd;stroke:#e2e24a;stroke-width:0.95521402;stroke-linecap:round;stroke-linejoin:round;stroke-miterlimit:4;stroke-dasharray:none;stroke-opacity:1"
         id="path9675"
         d="m 129.77272,229.79873 c -0.0768,1.00217 -1.46682,0.79047 -1.98094,0.33778 -1.11526,-0.98199 -0.70827,-2.74238 0.33016,-3.60299 1.57646,-1.30649 3.92933,-0.70174 5.06823,0.87375 1.52009,2.1028 0.71389,5.05497 -1.36683,6.44753 -2.59625,1.73758 -6.1346,0.73433 -7.76745,-1.82954 -1.95409,-3.06829 -0.75908,-7.17821 2.27103,-9.04226 3.52445,-2.16816 8.19253,-0.78629 10.28089,2.69642 1.68778,2.81468 1.44695,6.44734 -0.46501,9.08961"
         transform="matrix(1.474236,0,0,0.9474014,-58.307383,60.826418)" />
      <rect
         style="opacity:1;fill:#e1c725;fill-opacity:1;stroke:#e1c725;stroke-width:1.29956698;stroke-linecap:round;stroke-linejoin:round;stroke-miterlimit:4;stroke-dasharray:none;stroke-opacity:1"
         id="rect9677"
         width="9.7728624"
         height="0.95609802"
         x="74.506355"
         y="250.64445"
         ry="0" />
      <rect
         style="font-style:normal;font-weight:normal;font-size:medium;line-height:125%;font-family:sans-serif;letter-spacing:0px;word-spacing:0px;writing-mode:tb-rl;opacity:1;fill:#f1db0d;fill-opacity:1;stroke:#e1c725;stroke-width:0.56444442;stroke-linecap:round;stroke-linejoin:round;stroke-miterlimit:4;stroke-dasharray:none;stroke-opacity:1"
         id="rect10315"
         width="4.1202416"
         height="4.3926091"
         x="79.453835"
         y="254.44095"
         ry="2.0703595"
         rx="0.09488333" />
      <rect
         rx="0.09488333"
         ry="2.0703595"
         y="254.55804"
         x="73.323959"
         height="4.3926091"
         width="4.1202416"
         id="rect10317"
         style="font-style:normal;font-weight:normal;font-size:medium;line-height:125%;font-family:sans-serif;letter-spacing:0px;word-spacing:0px;writing-mode:tb-rl;opacity:1;fill:#f1db0d;fill-opacity:1;stroke:#e1c725;stroke-width:0.56444442;stroke-linecap:round;stroke-linejoin:round;stroke-miterlimit:4;stroke-dasharray:none;stroke-opacity:1" />
      <rect
         style="font-style:normal;font-weight:normal;font-size:medium;line-height:125%;font-family:sans-serif;letter-spacing:0px;word-spacing:0px;writing-mode:tb-rl;opacity:1;fill:#f1db0d;fill-opacity:1;stroke:#e1c725;stroke-width:0.56444442;stroke-linecap:round;stroke-linejoin:round;stroke-miterlimit:4;stroke-dasharray:none;stroke-opacity:1"
         id="rect10319"
         width="4.1202416"
         height="4.3926091"
         x="67.467743"
         y="254.55804"
         ry="2.0703595"
         rx="0.09488333" />
      <rect
         rx="0.09488333"
         ry="2.0703595"
         y="254.61659"
         x="61.775715"
         height="4.3926091"
         width="4.1202416"
         id="rect10321"
         style="font-style:normal;font-weight:normal;font-size:medium;line-height:125%;font-family:sans-serif;letter-spacing:0px;word-spacing:0px;writing-mode:tb-rl;opacity:1;fill:#f1db0d;fill-opacity:1;stroke:#e1c725;stroke-width:0.56444442;stroke-linecap:round;stroke-linejoin:round;stroke-miterlimit:4;stroke-dasharray:none;stroke-opacity:1" />
      <rect
         style="font-style:normal;font-weight:normal;font-size:medium;line-height:125%;font-family:sans-serif;letter-spacing:0px;word-spacing:0px;writing-mode:tb-rl;opacity:1;fill:#f1db0d;fill-opacity:1;stroke:#e1c725;stroke-width:0.56444442;stroke-linecap:round;stroke-linejoin:round;stroke-miterlimit:4;stroke-dasharray:none;stroke-opacity:1"
         id="rect10323"
         width="4.1202416"
         height="4.3926091"
         x="56.357346"
         y="254.67514"
         ry="2.0703595"
         rx="0.09488333" />
      <rect
         style="font-style:normal;font-weight:normal;font-size:medium;line-height:125%;font-family:sans-serif;letter-spacing:0px;word-spacing:0px;writing-mode:tb-rl;opacity:1;fill:#f1db0d;fill-opacity:1;stroke:#e1c725;stroke-width:0.56444442;stroke-linecap:round;stroke-linejoin:round;stroke-miterlimit:4;stroke-dasharray:none;stroke-opacity:1"
         id="rect10325"
         width="4.1202416"
         height="4.3926091"
         x="90.618958"
         y="254.4995"
         ry="2.0703595"
         rx="0.09488333" />
      <rect
         rx="0.09488333"
         ry="2.0703595"
         y="254.55804"
         x="96.201523"
         height="4.3926091"
         width="4.1202416"
         id="rect10327"
         style="font-style:normal;font-weight:normal;font-size:medium;line-height:125%;font-family:sans-serif;letter-spacing:0px;word-spacing:0px;writing-mode:tb-rl;opacity:1;fill:#f1db0d;fill-opacity:1;stroke:#e1c725;stroke-width:0.56444442;stroke-linecap:round;stroke-linejoin:round;stroke-miterlimit:4;stroke-dasharray:none;stroke-opacity:1" />
      <rect
         rx="0.09488333"
         ry="2.0703595"
         y="260.35428"
         x="79.453835"
         height="4.3926091"
         width="4.1202416"
         id="rect10455"
         style="font-style:normal;font-weight:normal;font-size:medium;line-height:125%;font-family:sans-serif;letter-spacing:0px;word-spacing:0px;writing-mode:tb-rl;opacity:1;fill:#f1db0d;fill-opacity:1;stroke:#e1c725;stroke-width:0.56444442;stroke-linecap:round;stroke-linejoin:round;stroke-miterlimit:4;stroke-dasharray:none;stroke-opacity:1" />
      <rect
         style="font-style:normal;font-weight:normal;font-size:medium;line-height:125%;font-family:sans-serif;letter-spacing:0px;word-spacing:0px;writing-mode:tb-rl;opacity:1;fill:#f1db0d;fill-opacity:1;stroke:#e1c725;stroke-width:0.56444442;stroke-linecap:round;stroke-linejoin:round;stroke-miterlimit:4;stroke-dasharray:none;stroke-opacity:1"
         id="rect10457"
         width="4.1202416"
         height="4.3926091"
         x="61.775715"
         y="260.52994"
         ry="2.0703595"
         rx="0.09488333" />
      <rect
         rx="0.09488333"
         ry="2.0703595"
         y="260.58847"
         x="56.357346"
         height="4.3926091"
         width="4.1202416"
         id="rect10459"
         style="font-style:normal;font-weight:normal;font-size:medium;line-height:125%;font-family:sans-serif;letter-spacing:0px;word-spacing:0px;writing-mode:tb-rl;opacity:1;fill:#f1db0d;fill-opacity:1;stroke:#e1c725;stroke-width:0.56444442;stroke-linecap:round;stroke-linejoin:round;stroke-miterlimit:4;stroke-dasharray:none;stroke-opacity:1" />
      <rect
         style="font-style:normal;font-weight:normal;font-size:medium;line-height:125%;font-family:sans-serif;letter-spacing:0px;word-spacing:0px;writing-mode:tb-rl;opacity:1;fill:#f1db0d;fill-opacity:1;stroke:#e1c725;stroke-width:0.56444442;stroke-linecap:round;stroke-linejoin:round;stroke-miterlimit:4;stroke-dasharray:none;stroke-opacity:1"
         id="rect10461"
         width="4.1202416"
         height="4.3926091"
         x="96.201523"
         y="260.47137"
         ry="2.0703595"
         rx="0.09488333" />
      <rect
         style="font-style:normal;font-weight:normal;font-size:medium;line-height:125%;font-family:sans-serif;letter-spacing:0px;word-spacing:0px;writing-mode:tb-rl;opacity:1;fill:#f1db0d;fill-opacity:1;stroke:#e1c725;stroke-width:0.56444442;stroke-linecap:round;stroke-linejoin:round;stroke-miterlimit:4;stroke-dasharray:none;stroke-opacity:1"
         id="rect10463"
         width="4.1202416"
         height="4.3926091"
         x="73.323959"
         y="260.52994"
         ry="2.0703595"
         rx="0.09488333" />
    </g>
  </g>
</svg>
