<?xml version="1.0" encoding="UTF-8" standalone="no"?>
<!-- Created with Inkscape (http://www.inkscape.org/) -->

<svg
   xmlns:dc="http://purl.org/dc/elements/1.1/"
   xmlns:cc="http://creativecommons.org/ns#"
   xmlns:rdf="http://www.w3.org/1999/02/22-rdf-syntax-ns#"
   xmlns:svg="http://www.w3.org/2000/svg"
   xmlns="http://www.w3.org/2000/svg"
   xmlns:sodipodi="http://sodipodi.sourceforge.net/DTD/sodipodi-0.dtd"
   xmlns:inkscape="http://www.inkscape.org/namespaces/inkscape"
   id="svg4236"
   version="1.1"
   inkscape:version="0.91 r13725"
   width="513.75"
   height="563.4375"
   viewBox="0 0 513.75 563.4375"
   sodipodi:docname="Skull11.svg">
  <metadata
     id="metadata4242">
    <rdf:RDF>
      <cc:Work
         rdf:about="">
        <dc:format>image/svg+xml</dc:format>
        <dc:type
           rdf:resource="http://purl.org/dc/dcmitype/StillImage" />
        <dc:title></dc:title>
      </cc:Work>
    </rdf:RDF>
  </metadata>
  <defs
     id="defs4240" />
  <sodipodi:namedview
     pagecolor="#ffffff"
     bordercolor="#666666"
     borderopacity="1"
     objecttolerance="10"
     gridtolerance="10"
     guidetolerance="10"
     inkscape:pageopacity="0"
     inkscape:pageshadow="2"
     inkscape:window-width="1600"
     inkscape:window-height="837"
     id="namedview4238"
     showgrid="false"
     inkscape:zoom="1.1891292"
     inkscape:cx="256.875"
     inkscape:cy="281.71875"
     inkscape:window-x="-8"
     inkscape:window-y="-8"
     inkscape:window-maximized="1"
     inkscape:current-layer="svg4236" />
  <path
     style="fill:#000000"
     d="m 440.15625,562.78984 c -1.03125,-0.27871 -2.08594,-0.7977 -2.34375,-1.15332 -0.25781,-0.35561 -3.1604,-1.13517 -6.45018,-1.73235 -5.87778,-1.06696 -7.41762,-1.66138 -6.5504,-2.52859 0.24031,-0.24031 5.68953,0.40175 12.10938,1.4268 17.58594,2.80793 32.11079,2.63111 38.66754,-0.47072 4.75329,-2.24867 8.88266,-2.44502 7.59474,-0.36114 -1.97254,3.19164 10.8577,-1.8399 14.38012,-5.63933 8.13611,-8.77598 9.22134,-13.65908 5.85173,-26.33029 -2.13237,-8.01867 -2.40484,-12.59112 -0.71676,-12.02842 0.6249,0.20829 1.62244,2.88017 2.21677,5.93749 0.59432,3.05733 1.77794,8.09003 2.63026,11.18378 2.65405,9.63366 -2.62842,20.11432 -13.59524,26.97353 -2.77143,1.7334 -10.85071,2.84345 -11.62125,1.5967 -0.98849,-1.59942 -4.47551,-0.98601 -6.79544,1.19539 -2.22867,2.09559 -29.30057,3.57284 -35.37752,1.93047 z m -28.59375,-7.23792 c -4.89844,-1.68168 -13.75781,-4.7886 -19.6875,-6.90427 -13.12876,-4.68425 -28.22081,-8.7044 -44.81927,-11.93875 -6.86152,-1.33703 -15.50996,-3.46087 -19.21875,-4.71964 -3.70878,-1.25878 -7.88907,-2.29163 -9.28955,-2.29523 -5.10936,-0.0131 -9.00707,-2.88044 -13.44954,-9.89406 -2.34003,-3.69437 -6.73415,-9.11546 -9.76472,-12.04688 -5.36942,-5.19375 -10.38288,-17.2145 -7.58572,-18.18829 0.91167,-0.31739 -1.28939,-10.00491 -2.9187,-12.84605 -2.3448,-4.08878 -2.72153,-21.52981 -0.63392,-29.34818 0.80951,-3.03173 0.81048,-4.30276 0.004,-5.10937 -0.59053,-0.59053 -1.08107,-2.99323 -1.09007,-5.33933 -0.0419,-10.92053 -4.63967,-27.55325 -9.14986,-33.1002 -2.47272,-3.04128 -10.52115,-19.56857 -10.52115,-21.60523 0,-1.26598 -1.47656,-4.75385 -3.28125,-7.75083 -1.80469,-2.99698 -3.28771,-6.10669 -3.2956,-6.91046 -0.0237,-2.41478 -1.44249,-3.90677 -3.10748,-3.26785 -0.86112,0.33044 -1.56567,1.30566 -1.56567,2.16715 0,1.98515 -3.77577,5.32966 -4.57392,4.0515 -0.7423,-1.18872 -10.13819,-0.85634 -11.39772,0.40319 -0.63959,0.63959 0.81431,0.92613 4.46472,0.87992 9.72587,-0.1231 11.51701,4.40858 6.0862,15.39844 -4.37976,8.86296 -21.46622,13.65721 -31.57596,8.85982 -3.67132,-1.74216 -4.60387,-3.87635 -1.20645,-2.76103 10.9242,3.58629 29.76563,-0.13187 29.76563,-5.87393 0,-0.81591 0.70722,-2.26494 1.5716,-3.22007 1.23527,-1.36495 1.32723,-1.98096 0.42971,-2.87848 -0.89752,-0.89752 -1.33109,-0.84262 -2.02599,0.25653 -0.48626,0.76912 -0.89057,0.99763 -0.89847,0.50778 -0.008,-0.48984 -0.5206,-0.38437 -1.13935,0.23438 -1.74677,1.74677 -2.79852,1.32596 -1.72048,-0.68837 1.76861,-3.30468 1.00782,-3.31574 -1.80392,-0.0263 -2.8499,3.33416 -3.93274,2.86425 -1.47745,-0.64116 0.75524,-1.07824 1.16691,-2.16668 0.91485,-2.41875 -0.25207,-0.25207 0.26567,-1.04577 1.15055,-1.76378 0.88488,-0.718 1.31937,-0.82233 0.96554,-0.23182 -1.0843,1.80958 2.30895,2.36196 4.16899,0.67865 1.64758,-1.49104 1.74516,-1.45511 1.84817,0.68052 0.0821,1.70159 0.21722,1.83511 0.55092,0.54431 0.7297,-2.82252 -2.0338,-5.00285 -5.78573,-4.56483 -1.81302,0.21166 -3.07455,0.74378 -2.80341,1.18251 0.55447,0.89714 -1.52425,4.62394 -2.57912,4.62394 -0.37541,0 -0.43973,-0.63281 -0.14294,-1.40625 0.87063,-2.26881 -1.18497,-1.61283 -2.8344,0.90452 -1.77724,2.71241 -1.99904,4.1742 -0.38907,2.56423 3.25922,-3.25922 3.44288,0.0487 0.26258,4.72886 -1.59067,2.34088 -1.89693,3.298 -0.9375,2.92983 2.01011,-0.77134 1.78031,1.27265 -0.26622,2.36791 -2.35361,1.25962 -4.67655,-0.22084 -3.17858,-2.02578 0.6069,-0.73127 0.85493,-1.57811 0.55118,-1.88186 C 227.27559,386.9631 225,388.22382 225,389.63155 c 0,0.71827 -0.42188,1.30595 -0.9375,1.30595 -0.51563,0 -0.9375,-0.42188 -0.9375,-0.9375 0,-1.44393 3.71194,-4.82168 4.65692,-4.23765 0.46118,0.28503 1.1438,0.0243 1.5169,-0.57941 0.42368,-0.68552 0.27201,-0.84649 -0.40397,-0.42871 -2.06295,1.27497 0.93237,-5.79207 3.025,-7.13707 2.36942,-1.52289 -0.97149,-2.86929 -4.35166,-1.75373 -3.64053,1.20148 -6.2037,5.25718 -4.43253,7.01357 0.75625,0.74993 0.88406,0.62477 0.47097,-0.46118 -0.31183,-0.81973 0.085,-2.03154 0.88195,-2.69291 1.18704,-0.98515 1.45408,-0.96994 1.47743,0.0842 0.0193,0.87246 0.33612,0.75852 0.98408,-0.35397 0.52557,-0.90234 1.43542,-1.64062 2.02189,-1.64062 0.58647,0 -0.0673,1.18324 -1.45283,2.62942 -1.38553,1.44618 -2.51915,3.38976 -2.51915,4.31906 0,1.11672 -0.47681,1.50665 -1.40625,1.14999 -0.8566,-0.32871 -1.40625,-0.002 -1.40625,0.8372 0,0.75725 -0.42188,1.37683 -0.9375,1.37683 -1.17676,0 -1.1803,-0.60708 -0.0162,-2.78212 0.77369,-1.44564 0.62353,-1.64349 -0.9375,-1.23526 -1.5113,0.39521 -1.85873,0.0172 -1.85873,-2.02236 0,-1.37963 0.38961,-2.26763 0.86581,-1.97332 0.82095,0.50738 4.75919,-4.15052 4.75919,-5.62886 0,-1.1579 6.73469,-8.99839 7.26971,-8.46336 0.27361,0.2736 0.12096,1.05489 -0.33924,1.73618 -0.4602,0.6813 -0.0984,0.43382 0.8039,-0.54995 1.11985,-1.22089 1.63116,-1.38372 1.61081,-0.51293 -0.043,1.83889 -2.14048,4.31134 -3.31986,3.91333 -0.55327,-0.18671 -1.71195,0.44066 -2.57485,1.39417 -1.49589,1.65293 -1.42725,1.73242 1.47467,1.70772 1.67398,-0.0143 3.62368,0.16509 4.33267,0.39855 1.92481,0.6338 2.29397,-1.48358 0.56082,-3.21672 -0.83329,-0.83329 -1.37946,-1.54735 -1.21372,-1.5868 0.16574,-0.0395 1.14509,-0.30173 2.17634,-0.58285 1.03125,-0.28111 3.77343,-0.62257 6.09375,-0.75879 6.07992,-0.35694 6.23417,-0.40154 4.71377,-1.36306 -1.18215,-0.7476 -1.14855,-0.96151 0.23438,-1.49219 0.88789,-0.34071 1.61435,-1.0806 1.61435,-1.64418 0,-0.68554 -0.37236,-0.65234 -1.125,0.1003 -2.17773,2.17773 -2.73009,1.09326 -0.81384,-1.59785 2.09786,-2.94625 2.7333,-10.40216 0.8865,-10.40216 -0.72704,0 -0.69155,-0.43466 0.11479,-1.40625 0.80634,-0.97159 0.84183,-1.40625 0.11479,-1.40625 -0.57876,0 -1.05229,-0.63281 -1.05229,-1.40625 0,-0.77344 0.44677,-1.40625 0.99283,-1.40625 0.54606,0 0.75011,-0.39273 0.45346,-0.87272 -0.29666,-0.48 -0.12905,-1.12632 0.37247,-1.43628 0.50152,-0.30994 0.6742,-1.18285 0.38375,-1.93978 -0.29047,-0.75692 -0.0932,-1.37622 0.4383,-1.37622 1.17782,0 1.91521,14.76694 0.79313,15.88287 -0.43165,0.42927 -0.34461,1.05257 0.19343,1.38509 0.53804,0.33252 0.74059,1.22389 0.45014,1.98082 -0.29047,0.75692 -0.009,1.37622 0.62448,1.37622 0.78608,0 0.86103,0.37265 0.23571,1.17187 -1.28851,1.64686 -2.10551,5.39063 -1.17639,5.39063 0.42529,0 1.65142,-1.42089 2.72473,-3.15753 2.18733,-3.53919 2.67549,-7.67439 0.77958,-6.60401 -0.9375,0.52928 -0.9375,0.40911 0,-0.60093 1.66534,-1.79417 1.45013,-2.79319 -0.46875,-2.17592 -1.01675,0.32708 -1.23715,0.22676 -0.5796,-0.2638 0.89925,-0.67088 1.04164,-2.58135 0.46487,-6.23752 -0.0658,-0.41715 -0.54152,-0.49771 -1.05714,-0.17904 -0.51563,0.31867 -0.9375,0.15753 -0.9375,-0.3581 0,-0.51562 0.3732,-1.16814 0.82932,-1.45005 0.45613,-0.28189 1.12304,-2.47114 1.48202,-4.86499 0.35898,-2.39385 1.12195,-5.38238 1.6955,-6.64117 0.77194,-1.69421 0.76511,-2.46034 -0.0263,-2.94945 -0.66596,-0.41158 -0.75836,-1.16349 -0.24506,-1.99403 0.57062,-0.92329 0.12297,-1.98302 -1.45574,-3.44611 -1.25389,-1.16205 -2.27979,-2.58497 -2.27979,-3.16205 0,-0.59453 0.63784,-0.41139 1.47181,0.42258 2.78481,2.7848 16.19499,3.31796 17.0747,0.67884 0.42045,-1.26133 6.91405,-1.46278 8.21911,-0.25497 0.48985,0.45334 2.43805,1.31838 4.32935,1.92232 2.41955,0.77263 4.59982,2.63595 7.35632,6.28691 3.12841,4.14354 5.15114,5.74228 10.04094,7.93618 l 6.12333,2.74735 5.47394,-1.53591 c 3.92893,-1.1024 7.13645,-1.35972 11.36411,-0.91171 3.23957,0.34331 9.19039,0.86296 13.22404,1.15477 7.41922,0.53675 12.82235,4.45406 12.82235,9.29629 0,2.43821 6.11172,5.21703 9.0322,4.10666 2.34896,-0.89307 2.89551,-0.73909 4.55297,1.28262 1.52426,1.85925 3.09073,2.42194 8.2117,2.94976 5.10156,0.52583 9.2505,2.37801 5.3268,2.37801 -0.55075,0 -0.20542,1.16016 0.76738,2.57813 4.60117,6.70677 5.01925,15.22462 1.60165,32.6317 -2.22638,11.33975 -2.27727,12.19528 -0.77758,13.07142 0.8826,0.51563 3.00933,2.34481 4.72606,4.06486 1.71672,1.72005 3.12132,2.72045 3.12132,2.22311 0,-3.24557 12.42037,-3.12132 13.67061,0.13676 0.29022,0.7563 2.84297,1.24569 7.21734,1.38364 4.96251,0.1565 7.43462,0.6982 9.26573,2.03032 2.27566,1.65554 2.74182,1.69494 5.24985,0.44378 2.47298,-1.23369 3.29681,-1.19349 8.1147,0.39594 4.9118,1.62042 5.60517,1.64785 8.25368,0.3266 2.46933,-1.23185 3.04417,-1.25083 3.93785,-0.12996 2.33267,2.92565 4.96381,3.68236 7.75029,2.22896 3.36641,-1.75588 6.93707,-1.75929 9.25139,-0.008 1.01019,0.76406 3.8724,1.3897 6.43349,1.40625 2.86264,0.0185 5.2379,0.59472 6.25838,1.51824 0.90457,0.81863 2.41435,1.30579 3.35506,1.08258 1.59143,-0.37761 1.57998,-0.46006 -0.16462,-1.18566 -1.03125,-0.42891 -2.08594,-1.02154 -2.34375,-1.31696 -1.09393,-1.25352 -6.28032,-4.53998 -8.05192,-5.10226 -2.28222,-0.72434 -6.32376,-5.88844 -5.56688,-7.11309 0.29275,-0.47368 2.36109,-0.0466 4.62563,0.9551 2.50506,1.10811 5.13823,1.6101 6.77901,1.29235 1.84401,-0.35709 4.44175,0.32121 8.30791,2.16929 3.09375,1.47885 7.52344,3.2958 9.84375,4.03766 l 4.21875,1.34881 -3.28125,0.5347 -3.28125,0.5347 3.36307,0.7129 c 15.11312,3.20363 28.45076,-15.92596 18.41063,-26.40559 -2.02218,-2.1111 -2.55495,-3.56332 -2.55495,-6.96468 0,-4.19239 -0.0826,-4.31299 -3.37704,-4.93103 -4.47226,-0.839 -4.62058,-0.47019 -1.30452,3.24403 1.54361,1.72894 2.80656,3.75183 2.80656,4.49529 0,4.92459 -12.78334,-12.1868 -14.91943,-19.9707 -5.48574,-19.99 -4.72842,-31.61205 2.61075,-40.06547 1.46093,-1.68275 3.8189,-5.1689 5.23991,-7.74703 1.42102,-2.57812 2.844,-5.10937 3.1622,-5.625 0.31819,-0.51562 0.46801,-1.6112 0.33293,-2.4346 -0.13507,-0.82341 0.4028,-2.03522 1.19528,-2.69292 1.64704,-1.36693 2.05085,-10.79108 0.50336,-11.74748 -0.51562,-0.31867 -0.9375,-1.37652 -0.9375,-2.35078 0,-0.97425 -1.09873,-2.95326 -2.44162,-4.39779 -2.76174,-2.97076 -6.93338,-10.73704 -6.93338,-12.90777 0,-2.37715 1.57058,-1.62317 2.79963,1.344 0.63365,1.52979 1.7751,3.29847 2.53655,3.93041 1.70666,1.41641 7.26703,12.42649 8.21015,16.25693 l 0.69249,2.8125 2.70551,-5.32366 c 1.48803,-2.92801 3.13585,-5.58963 3.66184,-5.9147 1.88902,-1.16748 0.88271,-3.57947 -3.4968,-8.38134 -4.03983,-4.42944 -11.49889,-17.31659 -11.48857,-19.84901 0.002,-0.56717 -1.21976,-2.72085 -2.71572,-4.78596 -2.89466,-3.99596 -4.64926,-15.04371 -2.32085,-14.61308 4.107,0.75957 6.89864,-26.75017 3.77763,-37.226 -0.8449,-2.83594 -2.4306,-8.32031 -3.52378,-12.1875 -1.09318,-3.86719 -2.99459,-8.92633 -4.22534,-11.24254 -1.23076,-2.31621 -2.23774,-4.74406 -2.23774,-5.39523 0,-0.65116 -1.05469,-3.37019 -2.34375,-6.04229 -1.28906,-2.67209 -2.34375,-5.27352 -2.34375,-5.78095 0,-0.50743 -0.57912,-1.58863 -1.28693,-2.40267 -0.70782,-0.81404 -1.77066,-4.82167 -2.36188,-8.90585 -0.59121,-4.08418 -1.42413,-7.88105 -1.85094,-8.4375 C 472.61011,150.23844 468.1543,135.75408 467.33929,131.25 463.38,109.36971 426.83771,65.671938 397.1404,47.305218 c -2.46688,-1.525682 -6.51249,-4.51293 -8.99024,-6.638328 -4.83856,-4.150493 -28.01852,-16.266083 -35.38749,-18.496164 -2.46478,-0.745919 -6.37986,-2.182194 -8.70017,-3.191723 -4.00761,-1.743643 -30.09759,-8.386178 -36.08871,-9.1882199 -1.54965,-0.2074547 -4.18863,-0.7782993 -5.86442,-1.2685438 -2.8148,-0.8234636 -3.04687,-0.7265692 -3.04687,1.2721616 0,1.1899331 -0.5941,2.6565791 -1.32023,3.2592111 -1.11085,0.921924 -0.95855,1.457381 0.96032,3.376255 1.64586,1.645853 2.12461,2.901918 1.72022,4.513156 -0.48535,1.93379 -0.15531,2.3136 2.46595,2.837853 6.33393,1.266787 7.82558,5.707025 2.26749,6.749728 -3.76679,0.706654 -4.05687,1.346484 -1.37096,3.023867 2.21539,1.383536 0.33946,5.961462 -3.23436,7.892958 -1.64727,0.890282 -1.55213,1.070136 1.17188,2.215499 5.18249,2.179071 2.24541,6.962072 -4.27516,6.962072 -4.53577,0 -3.73426,1.350965 1.61485,2.721902 5.00479,1.282688 6.01965,3.061683 2.74605,4.81366 -1.33972,0.717 -2.77024,0.750114 -4.61554,0.10684 -2.10067,-0.732299 -2.78664,-0.638872 -3.19899,0.435691 -0.60138,1.567155 1.5781,2.69514 3.66223,1.895383 0.77344,-0.296797 1.40625,-0.159424 1.40625,0.305271 0,2.504283 -7.37662,2.023323 -7.64063,-0.498173 -0.0773,-0.73869 -0.18281,-1.870418 -0.23437,-2.514949 -0.0545,-0.680466 1.47876,-1.391248 3.65625,-1.69502 l 3.75,-0.523144 -3.28125,-0.937336 c -2.90033,-0.828522 -3.31503,-1.33917 -3.57222,-4.398731 -0.28614,-3.403897 1.60772,-4.94407 3.10347,-2.523894 0.86655,1.402104 4.76678,1.130151 6.05512,-0.422209 0.93547,-1.127169 0.5946,-1.498045 -1.99315,-2.168598 -3.95787,-1.025587 -4.4228,-3.225275 -1.04975,-4.9666 5.4768,-2.827386 6.47052,-6.058609 1.62122,-5.271676 -4.41505,0.716464 -6.03969,-0.02057 -6.03969,-2.739969 0,-2.603529 0.6978,-2.775773 3.44627,-0.850671 1.76475,1.236077 2.05029,1.231665 2.53797,-0.03921 0.30223,-0.787595 1.92707,-2.030644 3.61076,-2.762332 2.97247,-1.291762 2.98981,-1.331407 0.59791,-1.367038 C 302.27558,27.204013 300.6419,26.554687 300,25.78125 299.3581,25.007812 298.09248,24.375 297.1875,24.375 c -3.07036,0 -4.07677,-2.435029 -1.85998,-4.500277 l 1.98531,-1.849592 -2.87517,-1.27267 c -3.6376,-1.610158 -3.62365,-2.905786 0.0623,-5.790513 3.09657,-2.4234297 2.97511,-4.399448 -0.27043,-4.399448 -1.05036,0 -4.29499,-0.7382813 -7.21029,-1.640625 -7.4476,-2.3051841 -55.94435,-2.2791742 -66.70679,0.035776 -13.96426,3.0036462 -29.61623,6.1636297 -33.69786,6.8032717 -16.4584,2.579243 -34.26002,12.916719 -70.96092,41.20731 C 106.95823,59.671074 97.734375,66.74462 95.15625,68.687223 85.249624,76.151812 67.5,95.595862 67.5,98.983613 c 0,0.606665 -8.265663,12.584747 -9.327193,13.516387 -0.293758,0.25781 -1.737981,2.3247 -3.209384,4.59309 -1.471404,2.26839 -3.716032,5.22151 -4.988062,6.5625 -1.272031,1.34098 -3.228269,3.77857 -4.347197,5.41684 -1.118927,1.63827 -3.721914,5.09374 -5.784414,7.67883 -8.167418,10.23682 -9.417436,13.65686 -5.699033,15.59249 3.807483,1.982 2.263375,6.24117 -1.621021,4.47132 -2.087657,-0.9512 -2.234094,-1.39699 -1.59927,-4.86858 0.384346,-2.10182 0.566177,-3.82149 0.404072,-3.82149 -1.859231,0 -14.309342,22.20112 -18.13797,32.34375 -1.167825,3.09375 -2.483407,6.46875 -2.923515,7.5 -0.4401071,1.03125 -1.4704103,4.40625 -2.289562,7.5 -5.4603402,20.62247 -6.604735,41.03518 -3.2177041,57.39459 1.1507159,5.55797 2.2736476,12.21478 2.4954038,14.79291 0.2217561,2.57812 1.4620866,7.00781 2.7562903,9.84375 6.035943,13.22633 11.285461,23.41582 14.548279,28.23873 1.960904,2.89849 3.56528,5.60734 3.56528,6.01966 0,0.72799 4.67647,10.24069 6.893674,14.02286 0.604546,1.03125 2.733029,3.5625 4.729962,5.625 1.996934,2.0625 4.222353,5.14583 4.945375,6.85184 1.480651,3.49369 9.18181,11.29448 14.837239,15.02919 2.0625,1.36203 3.960937,2.6913 4.21875,2.95394 1.605087,1.63514 14.121045,6.79714 17.230613,7.1065 2.056495,0.20459 4.167776,0.80067 4.691735,1.32463 0.523959,0.52396 1.922965,0.95265 3.108902,0.95265 1.185938,0 2.15625,0.40864 2.15625,0.90808 0,0.49944 0.638185,0.66318 1.418189,0.36386 0.780004,-0.29931 1.940161,-0.12385 2.57812,0.38992 0.637969,0.51377 2.636503,1.24542 4.441191,1.62589 1.80469,0.38047 5.08919,1.69481 7.29889,2.92076 4.13555,2.29441 7.31826,2.9474 6.29486,1.29149 -0.31868,-0.51563 0.0534,-0.9375 0.82685,-0.9375 0.77343,0 1.66697,0.42187 1.98565,0.9375 0.31868,0.51562 0.0272,0.93907 -0.64779,0.94101 -0.67497,0.002 0.14545,0.84042 1.82313,1.86332 1.6777,1.02291 3.78707,1.78156 4.6875,1.6859 0.90044,-0.0957 3.62002,0.76377 6.04352,1.90986 4.25723,2.01325 13.55141,4.26936 16.92176,4.10765 0.90235,-0.0433 1.64063,0.52788 1.64063,1.26928 0,2.51792 -14.52866,0.71032 -18.78704,-2.33742 -1.30943,-0.93716 -3.84068,-2.01567 -5.625,-2.39668 -1.78432,-0.381 -5.01403,-1.48871 -7.17715,-2.46157 -2.16312,-0.97288 -4.74294,-1.76885 -5.73295,-1.76885 -0.99,0 -2.87266,-0.84375 -4.18368,-1.875 -1.31101,-1.03125 -3.39665,-1.875 -4.63474,-1.875 -1.238093,0 -3.069987,-0.6194 -4.070881,-1.37644 -1.000893,-0.75703 -2.663559,-1.39006 -3.694809,-1.40672 -1.03125,-0.0167 -3.984375,-0.83015 -6.5625,-1.80777 -2.578125,-0.97762 -6.796875,-1.92663 -9.375,-2.1089 -3.078945,-0.21769 -5.107881,-0.89442 -5.912535,-1.97205 -0.673769,-0.90234 -2.155669,-1.64062 -3.29311,-1.64062 -1.137442,0 -2.860113,-1.05469 -3.828159,-2.34375 -0.968045,-1.28906 -2.228333,-2.35049 -2.800639,-2.35872 -0.572307,-0.008 -2.51712,-1.32065 -4.321807,-2.91646 -1.804688,-1.59581 -4.393703,-3.84201 -5.753368,-4.99155 -1.359665,-1.14954 -4.099786,-4.37229 -6.089158,-7.16167 -1.989372,-2.78938 -4.311113,-5.70441 -5.159423,-6.47785 -4.577966,-4.17391 -10.125394,-12.64288 -12.909104,-19.70765 -1.72258,-4.37173 -4.07178,-9.00329 -5.220443,-10.29235 -1.148664,-1.28906 -3.366072,-4.66406 -4.927574,-7.5 -1.561502,-2.83594 -3.995722,-7.26563 -5.409376,-9.84375 -8.1050028,-14.78135 -13.5505618,-64.73974 -8.6860878,-79.6875 0.839003,-2.57813 1.8037326,-6.58594 2.1438434,-8.90625 1.1187526,-7.63238 3.7231847,-14.58239 11.4177964,-30.46875 4.155289,-8.57904 17.063902,-28.12579 23.72117,-35.91955 1.545073,-1.80884 2.809224,-3.60351 2.809224,-3.98815 0,-0.38463 3.058594,-4.51249 6.796875,-9.17301 3.738281,-4.66053 7.988993,-10.28957 9.446027,-12.50899 1.457033,-2.21942 4.513738,-6.77749 6.792679,-10.12905 2.278939,-3.351562 4.145415,-6.665243 4.147723,-7.363735 0.0055,-1.677759 17.727414,-19.284958 24.731921,-24.571893 3.029934,-2.286968 9.007755,-6.689372 13.284045,-9.783122 4.27629,-3.09375 12.55506,-9.262714 18.39727,-13.708808 28.0429,-21.341454 45.10317,-30.20697 63.02045,-32.7491221 7.56942,-1.0739686 7.73519,-1.1060866 19.32051,-3.7432287 4.89844,-1.1150215 11.01562,-2.8124112 13.59375,-3.771977 6.63745,-2.47042788 58.28936,-2.20443609 62.78758,0.3233371 1.53317,0.8615653 4.69723,1.80659 7.03125,2.100055 2.33402,0.293465 5.72023,0.9090029 7.52492,1.3678619 1.80469,0.4588589 6.44531,1.3283616 10.3125,1.9322282 26.24367,4.0979856 76.01656,23.6283376 81.07493,31.8129406 0.31572,0.51085 3.1913,2.456209 6.39017,4.32302 16.77944,9.792192 49.72625,41.910208 61.47255,59.926193 5.54827,8.5097 9.63211,18.40799 11.95799,28.98341 1.257,5.71538 3.31381,12.55188 4.57069,15.19224 1.25688,2.64034 2.56843,6.64816 2.91456,8.90625 0.63094,4.11627 6.14705,20.22713 10.23278,29.88685 2.76396,6.53469 6.07383,16.41421 6.07383,18.12954 0,0.72254 0.87914,4.00538 1.95366,7.29521 2.73785,8.3825 2.21154,26.15194 -0.98096,33.11897 -3.26946,7.135 -0.49855,21.02134 6.09984,30.56917 1.26635,1.8324 2.30246,3.85278 2.30246,4.48972 0,0.63694 1.68574,2.86074 3.74607,4.94177 7.54587,7.62166 8.02467,9.50086 3.78474,14.85422 -3.10182,3.91635 -7.82682,12.83072 -8.01169,15.11515 -0.066,0.81536 -1.2504,2.96456 -2.63204,4.77599 -1.38164,1.81142 -2.51208,3.68179 -2.51208,4.15638 0,1.73183 -4.01214,8.41929 -6.96924,11.61638 -7.15329,7.7338 -6.85831,27.37177 0.63142,42.03809 1.53391,3.00368 7.24841,5.73427 13.015,6.21903 2.63757,0.22172 4.95462,0.56218 5.14901,0.75657 0.29186,0.29186 0.59623,5.05291 1.45152,22.70506 0.20883,4.31 -1.55724,16.40899 -2.39688,16.4206 -0.57039,0.007 -0.4261,0.4009 0.32065,0.87332 0.88226,0.55816 1.49451,3.00701 1.74831,6.9928 0.54729,8.59515 -0.11357,10.57807 -3.79489,11.38662 -1.6689,0.36655 -3.47706,1.27189 -4.01815,2.01187 -1.26295,1.72719 -8.14645,2.666 -10.38052,1.41576 -1.30112,-0.72815 -2.56704,-0.4714 -5.24248,1.06329 -2.86506,1.64346 -3.85967,1.81679 -5.29863,0.92339 -2.2146,-1.37493 -9.71249,-0.51152 -10.74608,1.23748 -1.15114,1.94789 -7.52974,1.56277 -10.30766,-0.62235 -2.01028,-1.5813 -3.23514,-1.79328 -7.47921,-1.29448 -3.10255,0.36464 -5.83485,0.18997 -7.02953,-0.44942 -3.26838,-1.74917 -5.11283,-0.44252 -3.60575,2.5544 0.69849,1.38901 1.05623,4.04369 0.81039,6.01385 l -0.44011,3.52713 4.27979,-0.16189 c 2.35388,-0.0891 4.82641,0.26949 5.49453,0.79673 0.66812,0.52723 2.37492,1.23576 3.79288,1.57449 1.41797,0.33873 2.57815,0.92425 2.57817,1.30114 4e-5,0.84767 18.84523,0.86602 20.19745,0.0197 1.29434,-0.81011 6.99001,2.83599 6.99001,4.47468 0,2.37322 3.47269,3.44638 4.04689,1.25061 0.35568,-1.3601 1.12275,-1.83602 2.60818,-1.61823 2.37334,0.34798 3.6457,2.65229 1.46451,2.65229 -0.8069,0 -1.89211,1.50612 -2.5331,3.51562 -1.4489,4.54223 -5.74975,11.48054 -7.11776,11.4827 -2.21902,0.004 -2.98391,-8.54319 -1.12893,-12.61442 1.43132,-3.1414 0.72711,-3.66806 -2.59093,-1.9377 -3.58434,1.86925 -7.42262,1.80135 -10.79533,-0.19095 -2.24573,-1.32659 -3.07559,-1.41142 -4.58505,-0.46875 -3.84316,2.40009 -7.01597,1.42719 -11.53317,-3.5365 -4.546,-4.99535 -5.25455,-5.29842 -8.42291,-3.60278 -2.41846,1.29433 -0.47835,2.47829 4.25947,2.59938 3.32725,0.085 3.29787,1.4153 -0.062,2.807 -3.41292,1.41367 -7.3129,0.0111 -8.75207,-3.14754 -0.97333,-2.13623 -1.24962,-2.22242 -3.50411,-1.09324 -8.30006,4.15717 -21.12357,5.18285 -24.48884,1.95872 -1.48401,-1.42178 -3.57079,-2.63404 -4.63728,-2.69392 -3.14945,-0.17683 -2.6402,-1.90142 0.89742,-3.03914 3.43867,-1.1059 4.92411,-6.74338 3.8714,-14.69258 l -0.34734,-2.62284 -8.59232,0.27909 c -7.96055,0.25858 -12.64397,4.4565 -5.00987,4.49054 2.01082,0.009 2.07917,1.83046 0.23438,6.24566 -2.15503,5.15772 -1.83051,6.7231 1.57685,7.60604 4.18278,1.08387 4.70861,3.19396 0.60786,2.43925 -1.71722,-0.31603 -3.97215,-1.10069 -5.01097,-1.74367 -1.0388,-0.643 -3.35293,-1.49067 -5.14249,-1.88372 -1.78957,-0.39306 -4.10369,-1.25926 -5.1425,-1.9249 -1.03881,-0.66563 -3.87298,-1.499 -6.29814,-1.85193 l -4.4094,-0.6417 1.08926,2.88578 c 0.59909,1.58718 1.33404,2.48972 1.63321,2.00565 0.64945,-1.05082 5.85167,-0.80711 6.67127,0.31254 0.31622,0.43199 2.42559,0.91999 4.6875,1.08446 2.2619,0.16446 4.63989,0.33836 5.28442,0.38644 0.64453,0.0481 1.17188,0.51732 1.17188,1.04277 0,0.55092 -0.99221,0.70633 -2.34375,0.36711 -3.18906,-0.8004 -2.95211,0.18979 0.46875,1.95878 4.09816,2.11924 3.79613,4.9271 -0.50191,4.66616 -1.82292,-0.11068 -3.58074,-0.46756 -3.90625,-0.79307 -0.32551,-0.32552 -1.04887,-0.58538 -1.60747,-0.57749 -0.55859,0.007 -0.38281,0.42331 0.39063,0.92315 1.99625,1.29007 -0.31084,1.18283 -3.23714,-0.15049 -2.84379,-1.29572 -3.23012,-3.65407 -0.51289,-3.13078 3.11227,0.59937 2.12014,-1.87844 -1.23844,-3.09292 -3.79315,-1.37161 -5.32406,-1.42577 -5.32406,-0.18833 0,0.51562 0.31641,0.88754 0.70312,0.82648 1.77411,-0.28012 3.04688,0.19977 3.04688,1.14882 0,0.57079 -0.63296,0.79491 -1.4066,0.49804 -1.22518,-0.47015 -1.2142,-0.0902 0.0851,2.94657 0.82045,1.91749 1.73245,4.11915 2.02668,4.89259 0.29422,0.77344 2.89263,4.09724 5.77424,7.38623 2.88161,3.289 6.50492,7.48069 8.05179,9.31489 1.54688,1.83419 4.6632,5.36586 6.92516,7.84813 2.26611,2.48683 3.5289,4.51116 2.8125,4.50859 -1.92411,-0.007 -5.69462,-3.45613 -11.26791,-10.30784 -2.72621,-3.35156 -5.43296,-6.51563 -6.01501,-7.03125 -3.06965,-2.71937 -9.77955,-12.78476 -11.24939,-16.875 -0.92646,-2.57813 -1.98825,-5.10938 -2.35955,-5.625 -7.82336,-10.86441 -7.95893,-40.66234 -0.32231,-70.84275 4.13549,-16.34371 -1.44156,-31.1219 -11.05161,-29.28482 -1.78064,0.3404 -2.8666,-0.19236 -4.42151,-2.1691 -1.78419,-2.26824 -2.30797,-2.46618 -3.89801,-1.47319 -1.47767,0.92282 -2.36084,0.87619 -4.51638,-0.23848 -3.02145,-1.56246 -3.85472,-1.15149 -3.85472,1.90112 0,1.16134 -0.70392,3.5168 -1.56427,5.23437 -0.86034,1.71757 -1.84422,3.73772 -2.1864,4.48923 -9.56029,20.99702 -55.78058,2.77477 -55.78058,-21.99138 0,-3.60938 -0.41982,-6.86225 -0.93293,-7.2286 -0.55795,-0.39838 -0.18113,-1.23424 0.9375,-2.07957 1.59987,-1.20899 1.64306,-1.41776 0.29854,-1.44327 -0.86453,-0.0164 -1.76481,-0.76809 -2.00061,-1.67044 -0.30056,-1.15009 -0.48096,-0.93987 -0.60339,0.70313 -0.16258,2.18177 -0.23336,2.21416 -1.02414,0.46875 -0.60561,-1.3367 -0.6913,-0.86568 -0.29852,1.64062 0.35795,2.284 0.18598,3.51563 -0.49087,3.51563 -0.57301,0 -1.04183,0.65243 -1.04183,1.44985 0,0.79742 -1.25918,2.16852 -2.79818,3.04688 -1.539,0.87836 -3.20455,2.75718 -3.70123,4.17514 -0.57223,1.63366 -1.57919,2.57813 -2.7487,2.57813 -1.0151,0 -2.02312,0.52734 -2.24006,1.17187 -0.31189,0.92668 -0.70406,0.91636 -1.87428,-0.0494 -1.25458,-1.03533 -1.5735,-0.92621 -2.09496,0.71674 -0.84794,2.67162 -2.35509,1.45917 -2.35509,-1.89459 0,-2.96798 2.32199,-3.81018 4.5,-1.63217 0.875,0.875 1.125,0.875 1.125,0 0,-0.61875 0.81441,-1.125 1.8098,-1.125 1.15603,0 1.91801,-0.7535 2.10937,-2.08591 0.16477,-1.14724 1.28431,-2.57494 2.48787,-3.17267 3.85414,-1.91406 4.28158,-2.80699 2.95526,-6.17364 -1.9241,-4.88401 -7.24543,-9.30301 -10.21392,-8.48193 -3.07984,0.8519 -7.59984,0.79291 -9.59428,-0.1252 -5.21942,-2.40268 -7.42878,18.84962 -3.15533,30.35185 0.86207,2.32032 1.8053,5.27344 2.09606,6.5625 0.29078,1.28907 1.09995,2.68112 1.79817,3.09346 0.69823,0.41234 1.2695,1.5476 1.2695,2.5228 0,0.97519 0.42543,2.03601 0.94539,2.35737 0.79914,0.49389 7.49211,13.83794 7.49211,14.93733 0,0.2034 2.32031,4.46698 5.15625,9.47462 2.83594,5.00763 5.15625,9.47831 5.15625,9.93483 0,0.45652 0.41077,1.56259 0.91284,2.45794 3.00405,5.35724 3.94118,12.50082 4.39505,33.5029 0.31842,14.73434 0.88414,22.89845 1.78648,25.78125 0.72627,2.32032 1.4878,5.90625 1.69226,7.96875 0.20447,2.0625 0.59857,4.38282 0.87578,5.15625 0.62574,1.74591 1.79753,8.08705 2.09538,11.33914 0.24553,2.68079 3.94158,8.91644 6.66096,11.23779 2.85019,2.433 6.66521,7.07598 8.14893,9.91746 3.94002,7.54557 9.79553,10.23009 34.36982,15.75725 23.32666,5.24655 40.91425,9.77509 45.46875,11.70753 5.55724,2.35788 33.82939,12.22833 35.02591,12.22833 0.58731,0 1.06784,0.42188 1.06784,0.9375 0,1.49919 -2.68838,1.00054 -12.1875,-2.26058 z m 75.8716,-79.06755 c -0.25759,-2.7488 -1.68172,-4.28059 -1.7432,-1.875 -0.0363,1.41797 0.35598,2.57813 0.8716,2.57813 0.51562,0 0.90785,-0.31641 0.8716,-0.70313 z m -21.79617,-10.09943 c 0.17813,-0.5443 -1.28363,-0.9588 -3.38129,-0.9588 -2.95889,0 -3.48994,0.24715 -2.66547,1.24058 1.15881,1.39629 5.56479,1.19097 6.04676,-0.28178 z m 16.23707,-0.0419 c 0,-1.10216 -0.52721,-1.29792 -2.10938,-0.78325 -1.16015,0.3774 -3.72821,0.59751 -5.70677,0.48912 -2.30557,-0.12628 -3.37985,0.15499 -2.99156,0.78325 1.04076,1.68398 10.80771,1.24196 10.80771,-0.48912 z m -55.78125,-2.12392 c 2.0625,-0.37004 3.32447,-0.94051 2.80438,-1.26772 -0.52009,-0.3272 -2.73493,-0.26771 -4.92187,0.1322 -2.18695,0.39991 -3.97626,0.37512 -3.97626,-0.0551 0,-0.43021 -0.63039,-0.54029 -1.40087,-0.24463 -4.30481,1.65191 0.81844,2.63302 7.49462,1.43524 z m 13.79381,-5.49396 c 1.79878,-1.62787 2.35599,-7.78769 0.70446,-7.78769 -0.53377,0 -1.97126,0.65573 -3.19444,1.45719 -1.37591,0.90153 -2.44332,1.10225 -2.79923,0.52637 -0.31641,-0.51195 0.1248,-1.32261 0.98046,-1.80146 1.09766,-0.61429 -0.0697,-0.87464 -3.96466,-0.88422 l -5.5204,-0.0136 3.75,1.1607 c 2.97484,0.92078 3.40739,1.30751 2.09254,1.87086 -2.12205,0.90922 -6.28689,-0.82108 -10.03852,-4.17053 -4.76112,-4.25073 -6.06742,-3.07948 -6.40158,5.73979 -0.3302,8.71494 0.89405,9.23015 7.31908,3.08012 2.29291,-2.19477 3.6819,-2.89753 4.60247,-2.32859 0.72517,0.44818 1.95732,0.56972 2.73812,0.2701 1.03252,-0.39621 1.25546,-0.1169 0.81757,1.02423 -0.335,0.873 -0.15078,1.56901 0.41528,1.56901 0.57432,0 0.82603,1.00092 0.57801,2.29839 -0.49219,2.57472 4.15855,1.39413 7.92084,-2.0107 z m -12.85631,1.58731 c 0.31867,-0.51563 0.15753,-0.9375 -0.3581,-0.9375 -0.51562,0 -1.19823,0.42187 -1.5169,0.9375 -0.31867,0.51562 -0.15753,0.9375 0.3581,0.9375 0.51562,0 1.19823,-0.42188 1.5169,-0.9375 z m -31.66657,-3.98438 c 1.47831,-1.91053 2.14543,-4.45312 1.1684,-4.45312 -0.49944,0 -0.91454,0.52734 -0.92243,1.17187 -0.0308,2.51215 -1.76983,4.12272 -2.7838,2.57813 -1.34157,-2.04366 -1.15761,-2.83261 0.51118,-2.19224 0.97182,0.37293 0.50323,-0.95204 -1.39566,-3.94627 -4.47404,-7.05483 -2.36494,-6.91621 2.55564,0.16798 0.66923,0.96348 0.14188,-0.30526 -1.17187,-2.81942 -2.9711,-5.68589 -2.98418,-6.5526 -0.0446,-2.9553 1.99234,2.4381 2.20764,2.52219 1.72418,0.67343 -1.09349,-4.18171 -6.88069,-4.38789 -6.88069,-0.24515 0,0.55246 -0.70313,1.00447 -1.5625,1.00447 -0.85937,0 -1.27383,-0.28867 -0.92101,-0.64148 0.35282,-0.35282 -0.7082,-2.034 -2.3578,-3.73596 -1.6496,-1.70196 -2.6739,-3.4172 -2.2762,-3.81164 0.39769,-0.39445 1.74577,0.54845 2.99571,2.09533 1.89771,2.34852 2.42279,2.58051 3.18286,1.40625 1.35192,-2.08864 1.07282,-3.53586 -0.32677,-1.69442 -1.09722,1.44362 -1.35316,1.33785 -2.83568,-1.17187 C 383.12732,436.24142 381.64192,435 380.72272,435 c -1.26434,0 -1.63107,-0.67604 -1.50612,-2.7764 0.15039,-2.52786 -0.0729,-2.74866 -2.49447,-2.46672 -2.81797,0.32811 -3.13628,-0.0525 -1.80374,-2.15694 0.47809,-0.755 1.64445,-1.09259 2.76368,-0.79991 1.08139,0.28279 2.41637,-0.0718 3.02325,-0.80306 0.85437,-1.02945 0.7615,-1.30947 -0.43428,-1.30947 -2.54233,0 -1.69709,-1.72974 1.00032,-2.04711 2.4054,-0.283 2.44544,-0.3721 0.87053,-1.93727 -1.53661,-1.52712 -1.54009,-1.64062 -0.0504,-1.64062 1.01461,0 0.0955,-1.16225 -2.51116,-3.17528 -3.97635,-3.07084 -6.75338,-3.66182 -4.51107,-0.96 0.6038,0.72752 0.75459,1.32278 0.33509,1.32278 -0.4195,0 8.2e-4,0.55832 0.93404,1.24071 1.98571,1.45198 0.16146,5.73819 -2.07668,4.87934 -0.86845,-0.33326 -1.17529,0.52524 -1.08501,3.03577 0.0692,1.92523 -0.28644,4.80152 -0.79037,6.39176 -0.57718,1.82137 -0.58929,3.47553 -0.0327,4.47005 0.48592,0.8683 0.8097,2.3094 0.71948,3.20243 -0.0902,0.89303 -0.0863,1.83463 0.008,2.09244 0.0949,0.25781 0.33052,1.67476 0.52361,3.14876 0.19309,1.47401 1.02536,3.42511 1.84952,4.33579 0.82415,0.91068 1.37539,2.23592 1.22497,2.94499 -0.18601,0.87684 0.85343,1.38243 3.24967,1.58062 4.18314,0.34601 5.38243,-1.44942 3.12295,-4.67528 -1.79985,-2.56965 -1.95671,-4.20191 -0.2692,-2.80141 0.67136,0.55718 2.21101,0.75408 3.42144,0.43754 2.07986,-0.54389 4.7329,1.4997 4.7329,3.64567 0,1.51776 -1.61587,0.70581 -2.68872,-1.35106 -1.01972,-1.95496 -1.05905,-1.9035 -0.53738,0.70313 0.30959,1.54687 1.16211,3.14987 1.89449,3.56221 0.73239,0.41234 1.31819,1.46703 1.3018,2.34375 -0.0277,1.478 -0.12048,1.4746 -1.27524,-0.0466 -1.6992,-2.23843 -2.74392,-2.076 -1.50745,0.23437 1.14184,2.13353 5.78401,2.58439 7.23967,0.70313 z m -15.00332,-6.46103 c -0.91845,-1.61345 -1.48821,-3.11524 -1.26614,-3.3373 0.63357,-0.63358 4.34228,3.68235 4.34228,5.05324 0,2.09339 -1.33005,1.35147 -3.07614,-1.71594 z m -0.67386,-5.51314 c 0,-0.41811 0.52734,-0.95356 1.17187,-1.18989 0.9375,-0.34374 0.9375,-0.67812 0,-1.67187 -0.84635,-0.89713 -1.17187,-0.92969 -1.17187,-0.11719 0,0.61875 -0.42188,1.125 -0.9375,1.125 -1.45577,0 -1.10391,-1.61054 0.48508,-2.22029 1.50488,-0.57748 5.14038,1.96952 5.13925,3.60051 -3.5e-4,0.52995 -1.05504,1.02437 -2.34375,1.09873 -1.28869,0.0744 -2.34308,-0.20689 -2.34308,-0.625 z m 16.99133,3.52105 c -0.92589,-0.919 -1.03357,-0.81132 -0.52481,0.52481 0.35206,0.92458 0.87627,1.44489 1.16492,1.15625 0.28865,-0.28865 6e-4,-1.04512 -0.64011,-1.68106 z m 73.91901,-5.375 c 0.002,-4.65449 -0.9182,-7.5 -2.42593,-7.5 -1.7327,0 -1.65683,-1.53628 0.10934,-2.21403 3.23444,-1.24116 0.87704,-6.22347 -2.94467,-6.22347 -2.30454,0 -4.1439,2.01215 -2.37756,2.60092 1.29326,0.43109 1.48478,3.61527 0.26287,4.37045 -0.46265,0.28593 -0.0325,3.11595 0.95663,6.2941 2.75597,8.85493 6.41567,10.37828 6.41932,2.67203 z m -27.92663,2.21932 c 0.86402,-0.50885 1.04389,-5.16376 0.54643,-14.14017 -0.38147,-6.88321 -4.40565,-9.8102 -8.45245,-6.14791 -1.70004,1.53853 -1.96847,1.51529 -5.4158,-0.46875 -8.47835,-4.87951 -11.22943,-2.30767 -11.21004,10.47969 0.007,5.20523 0.3243,9.0084 0.70313,8.45147 0.37882,-0.55693 2.03873,-1.59979 3.68869,-2.31745 1.8774,-0.8166 2.59294,-1.55636 1.91227,-1.97703 -0.77717,-0.48032 -0.61252,-1.19719 0.57679,-2.51136 1.08508,-1.19902 1.31684,-2.05398 0.66584,-2.45632 -2.28234,-1.41056 -0.96979,-3.31899 2.28268,-3.31899 1.80469,0 3.28125,0.42187 3.28125,0.9375 0,0.51562 0.50228,0.83203 1.1162,0.70312 0.61391,-0.1289 1.27765,0.50391 1.47498,1.40625 0.19735,0.90235 -0.14999,1.64063 -0.77185,1.64063 -1.58779,0 -4.77733,3.87917 -4.18558,5.09057 0.26952,0.55175 0.73787,1.69333 1.04077,2.53686 1.07708,2.99947 8.99832,4.29944 12.74669,2.09189 z m 14.34194,-0.31502 c 1.66731,-2.69777 1.27833,-12.43052 -0.51555,-12.89963 -2.37717,-0.62164 -2.33121,-2.12967 0.0649,-2.12967 2.28112,0 2.35976,-0.72295 0.32345,-2.97306 -4.97545,-5.49781 -10.37311,-1.27912 -10.84013,8.47237 -0.44549,9.30216 7.07132,15.83385 10.96733,9.52999 z m 22.11098,-0.0623 c 1.86418,-0.99772 2.52649,-3.71705 0.90529,-3.71705 -0.49944,0 -0.69814,0.54707 -0.44156,1.21571 0.27162,0.70783 -0.62188,1.6453 -2.1388,2.24402 -1.43292,0.56557 -2.05024,1.07319 -1.3718,1.12804 0.67843,0.0548 2.04952,-0.33699 3.04687,-0.87075 z m 19.0846,-2.26595 c -0.30149,-1.20121 -0.11987,-2.44871 0.40358,-2.77223 0.52514,-0.32455 0.71431,-2.05125 0.42204,-3.85227 -0.3562,-2.19505 -0.16434,-3.26407 0.58581,-3.26407 0.61353,0 0.83699,-0.45064 0.49659,-1.00141 -0.3404,-0.55078 -1.10357,-0.81961 -1.69595,-0.5974 -4.266,1.60021 -5.2958,1.66443 -5.2958,0.33022 0,-0.78765 1.22441,-1.66386 2.8125,-2.01266 3.07167,-0.67465 3.89892,-3.28125 1.04136,-3.28125 -5.89844,0 -7.37771,18.0137 -1.55957,18.99147 2.7964,0.46996 3.40572,-0.0849 2.78944,-2.5404 z m -75.16186,1.67801 c -0.64453,-0.26007 -1.69921,-0.26007 -2.34375,0 -0.64453,0.26007 -0.11718,0.47287 1.17188,0.47287 1.28906,0 1.81641,-0.2128 1.17187,-0.47287 z m 66.14707,-1.74767 c -0.28865,-0.28864 -0.81286,0.23167 -1.16492,1.15625 -0.50876,1.33613 -0.40108,1.44381 0.52481,0.52481 0.64071,-0.63594 0.92876,-1.39241 0.64011,-1.68106 z m -85.83457,-1.06483 c -0.64453,-0.26007 -1.69921,-0.26007 -2.34375,0 -0.64453,0.26007 -0.11718,0.47287 1.17188,0.47287 1.28906,0 1.81641,-0.2128 1.17187,-0.47287 z m 103.69822,-0.21649 c 0.95386,-0.60434 1.18983,-2.71369 0.93394,-8.34857 -0.36864,-8.11735 -0.97464,-9.56946 -3.36446,-8.06199 -3.10107,1.9561 -3.51182,3.77381 -2.24203,9.92155 1.61114,7.80035 1.92182,8.23182 4.67255,6.48902 z m -92.53683,-5.53852 c -0.16282,-2.21768 0.18788,-4.61525 0.77934,-5.32791 0.84363,-1.0165 0.60726,-1.60196 -1.09674,-2.71659 -4.06179,-2.65693 -9.5843,-4.59303 -9.95227,-3.4891 -0.18967,0.56897 -1.68078,1.09771 -3.31359,1.17497 -2.83446,0.13411 -2.85212,0.15813 -0.39063,0.53101 3.10681,0.47065 3.1862,0.92496 0.55968,3.20293 -1.71038,1.48341 -1.77482,1.75059 -0.42216,1.75059 1.19322,0 1.38265,0.38173 0.75022,1.51182 -2.22004,3.967 3.08482,7.93527 10.11442,7.56607 3.24906,-0.17066 3.26607,-0.19472 2.97173,-4.20379 z m -18.1178,-1.35848 c 0.0214,-1.16015 0.17144,-4.234 0.33355,-6.83077 0.23036,-3.69015 -0.0124,-4.72981 -1.11151,-4.75987 -0.77344,-0.0212 -3.19922,-0.3594 -5.39063,-0.75164 -3.85516,-0.69002 -3.98437,-0.63349 -3.98437,1.74322 0,1.67112 -0.67432,2.7274 -2.10938,3.30423 -1.57013,0.63111 -1.69748,0.86305 -0.49816,0.90728 0.96515,0.0356 1.41399,0.57333 1.11938,1.34108 -0.85657,2.23219 4.98667,7.15585 8.49235,7.15585 2.58865,0 3.11647,-0.35359 3.14877,-2.10938 z m 92.76751,1.02704 c -0.19843,-0.59529 -1.36807,-1.45497 -2.5992,-1.91038 -2.20167,-0.81446 -2.21003,-0.79668 -0.50954,1.08233 1.88169,2.07925 3.68601,2.55985 3.10874,0.82805 z m -15.73297,-0.26858 c 0,-0.22738 -0.42188,-0.67416 -0.9375,-0.99283 -0.51563,-0.31867 -0.9375,-0.13264 -0.9375,0.41342 0,0.54606 0.42187,0.99283 0.9375,0.99283 0.51562,0 0.9375,-0.18604 0.9375,-0.41342 z m 2.76562,-4.3481 c 1.31485,-0.0407 1.84518,-0.29283 1.17853,-0.56027 -1.8017,-0.72282 -5.81915,0.50411 -5.81915,1.77715 0,0.84126 0.27017,0.83697 1.125,-0.0178 0.61875,-0.61875 2.20078,-1.15831 3.51562,-1.19902 z m 10.35938,-3.31657 c 0,-0.19767 -1.07959,-0.35941 -2.39908,-0.35941 -1.3195,0 -2.16282,0.38227 -1.87406,0.84949 0.48031,0.77717 4.27314,0.34217 4.27314,-0.49008 z m -3.0664,-2.80082 c -0.31153,-0.31152 -1.12013,-0.34482 -1.79688,-0.074 -0.74787,0.29927 -0.52573,0.52142 0.56641,0.5664 0.98827,0.0407 1.54199,-0.18087 1.23047,-0.49239 z m -70.0586,-1.27561 c 0,-1.80159 -3.76061,-2.84548 -10.25087,-2.84548 -3.64327,0 -6.62413,-0.38061 -6.62413,-0.84578 0,-1.13116 -5.31881,-2.93677 -7.05767,-2.39591 -4.52158,1.40641 -4.42926,1.68068 0.96392,2.8636 3.09375,0.67858 7.73437,1.28428 10.3125,1.346 2.57812,0.0618 6.16406,0.68086 7.96875,1.37584 4.08006,1.57122 4.6875,1.63625 4.6875,0.50173 z M 375.9375,420 c 0,-0.51563 -0.18604,-0.9375 -0.41342,-0.9375 -0.22738,0 -0.67416,0.42187 -0.99283,0.9375 -0.31867,0.51562 -0.13264,0.9375 0.41342,0.9375 0.54606,0 0.99283,-0.42188 0.99283,-0.9375 z m 132.14042,-25.90507 c -0.51599,-1.35718 -0.69933,-3.22011 -0.40741,-4.13985 0.72038,-2.26973 -1.11185,-3.23706 -2.18429,-1.15321 -0.98851,1.92076 -0.5306,3.78886 1.50017,6.12 1.95469,2.24384 2.19098,2.06483 1.09153,-0.82694 z m -177.29063,-20.0878 c 10.64421,-2.28277 18.08458,-14.98829 13.71988,-23.42869 -1.38729,-2.68272 -3.25717,-3.7324 -3.25717,-1.82844 0,0.51562 -0.47353,0.9375 -1.05229,0.9375 -0.73104,0 -0.69903,-0.42566 0.10488,-1.39432 2.56483,-3.09043 0.51414,-4.13656 -7.66815,-3.91183 -6.49943,0.17852 -7.82819,0.47795 -8.0871,1.82238 -0.1704,0.88482 -0.71561,1.60877 -1.21157,1.60877 -0.55363,0 -0.52709,-0.70004 0.0687,-1.81337 1.46769,-2.74239 1.31058,-2.87413 -3.42745,-2.87413 -3.66576,0 -4.15682,0.19509 -2.94966,1.17187 2.7773,2.24727 4.53509,5.83213 4.53509,9.24893 0,4.68196 2.10429,5.3105 5.07421,1.51562 1.71505,-2.19142 2.03377,-3.18969 1.20642,-3.77869 -0.86764,-0.6177 -0.8568,-0.90905 0.0475,-1.27597 0.64454,-0.26154 1.13857,-1.17864 1.09786,-2.03801 -0.0461,-0.97439 -0.25199,-1.12142 -0.54687,-0.39063 -0.54112,1.34105 -2.19161,1.5931 -2.19161,0.33468 0,-1.95078 2.91236,-1.86867 3.64162,0.10267 0.7498,2.02693 0.77337,2.02196 2.43475,-0.51362 0.92269,-1.4082 1.89913,-2.33885 2.16987,-2.06811 0.27075,0.27074 -0.2496,1.31202 -1.15633,2.31394 -0.90672,1.00192 -1.38281,2.25171 -1.05798,2.7773 0.95595,1.54676 3.29712,0.0949 4.93511,-3.06046 0.83749,-1.6133 1.69411,-2.42597 1.90362,-1.80593 0.20949,0.62004 -1.01867,3.02937 -2.72925,5.35407 -3.08099,4.18707 -5.23862,5.65912 -4.15474,2.83457 0.67681,-1.76373 -3.44968,0.94922 -6.3864,4.19875 -0.99833,1.10466 -2.05753,1.5913 -2.36849,1.08816 -0.35658,-0.57694 -1.06829,-0.58506 -1.94402,-0.0221 -1.21396,0.78031 -1.21095,0.9976 0.0247,1.79161 1.22321,0.78598 1.17961,1.12155 -0.33499,2.57812 -1.67897,1.61464 -1.71862,1.59909 -1.1087,-0.43485 0.3479,-1.16015 0.253,-2.10937 -0.21089,-2.10937 -0.46389,0 -0.65579,-2.26271 -0.42645,-5.02826 0.43626,-5.26095 -1.47345,-9.97177 -4.04244,-9.97177 -0.67117,0 -1.3812,-0.48271 -1.57786,-1.07269 -0.26558,-0.79673 -1.25537,-0.77638 -3.84756,0.0791 -1.96992,0.65013 -5.0318,0.89132 -7.02985,0.55375 -2.8587,-0.48298 -3.8751,-0.22761 -5.28212,1.32713 -1.06602,1.17794 -1.30051,1.92518 -0.60413,1.92518 0.62597,0 0.87999,0.41767 0.56449,0.92816 -0.36109,0.58425 -1.03988,0.49741 -1.83193,-0.23437 -0.69206,-0.6394 -1.06673,-1.47895 -0.83261,-1.86567 0.23412,-0.38671 -0.046,-0.70312 -0.62248,-0.70312 -0.57649,0 -0.76965,-0.45064 -0.42925,-1.00141 0.3404,-0.55078 1.1782,-0.7868 1.86179,-0.52447 0.68358,0.26231 1.71575,-0.0928 2.29372,-0.78927 1.40126,-1.68841 -3.76694,-2.91828 -6.38203,-1.51873 -5.27239,2.8217 4.59258,26.33388 11.04886,26.33388 0.39825,0 2.31667,1.26562 4.26316,2.8125 3.96137,3.1481 13.98249,3.91568 23.75604,1.81963 z m -12.97479,-3.46505 c 0,-0.51562 0.63281,-1.46268 1.40625,-2.10458 0.78444,-0.65103 1.40625,-0.75255 1.40625,-0.22958 0,0.51562 -0.63281,1.46268 -1.40625,2.10458 -0.78444,0.65103 -1.40625,0.75255 -1.40625,0.22958 z m 14.0625,-0.39002 c 0,-0.57151 0.73828,-1.6348 1.64062,-2.36288 1.50282,-1.21257 1.45393,-1.27199 -0.58198,-0.70736 -2.16752,0.60113 -2.14898,0.50941 0.74817,-3.70146 1.63392,-2.37483 3.37237,-4.31786 3.86323,-4.31786 1.35822,0 1.0662,1.50123 -0.55352,2.84547 -0.93997,0.7801 -1.12588,1.52017 -0.53128,2.11477 0.59461,0.59461 1.74641,-0.0312 3.29135,-1.7884 1.86489,-2.12102 2.38304,-2.35152 2.40629,-1.07041 0.0163,0.89798 -0.81413,2.15961 -1.84538,2.80364 -1.03125,0.64402 -1.875,1.50899 -1.875,1.92214 0,1.12063 -3.04821,4.03886 -4.92187,4.71202 -0.93023,0.3342 -1.64063,0.13949 -1.64063,-0.44967 z m -6.5625,-0.77706 c 0,-0.51563 0.42187,-0.9375 0.9375,-0.9375 0.51562,0 0.9375,0.42187 0.9375,0.9375 0,0.51562 -0.42188,0.9375 -0.9375,0.9375 -0.51563,0 -0.9375,-0.42188 -0.9375,-0.9375 z m -17.20796,-1.39044 c -0.32635,-0.85044 -1.14317,-1.15652 -2.10323,-0.78811 -1.09138,0.4188 -1.43404,0.19974 -1.12456,-0.71893 0.2448,-0.7267 1.35855,-1.32127 2.475,-1.32127 1.25458,0 2.69287,-1.08703 3.76563,-2.84598 1.57418,-2.58111 1.59076,-2.84599 0.17819,-2.84599 -0.95612,0 -1.53712,0.73273 -1.50468,1.89761 0.0624,2.24311 -3.76325,2.9146 -4.57365,0.80276 -0.27954,-0.72849 -0.13737,-1.09531 0.31595,-0.81514 0.45332,0.28016 1.5129,-0.54168 2.35463,-1.82631 0.84172,-1.28463 2.4699,-2.36901 3.61816,-2.40972 1.14827,-0.0407 1.56043,-0.2868 0.91589,-0.54687 -0.64453,-0.26007 -1.17187,-1.11143 -1.17187,-1.89191 0,-0.84522 -1.98548,0.49491 -4.90997,3.31404 -3.86436,3.72516 -5.07305,4.44171 -5.67575,3.36476 -0.85856,-1.53417 -0.1339,-3.2285 1.38084,-3.2285 0.62201,0 0.55133,0.53695 -0.18793,1.42771 -0.99073,1.19377 -0.93274,1.33095 0.35396,0.8372 0.84637,-0.32478 1.53885,-0.96725 1.53885,-1.42771 0,-1.94048 0.28203,-2.32589 2.92771,-4.00102 1.52674,-0.96666 2.62491,-1.90855 2.4404,-2.09307 -0.64762,-0.64763 -6.30593,1.92856 -6.33507,2.8843 -0.0532,1.74557 -4.65804,4.59772 -4.65804,2.8851 0,-0.7975 0.44677,-1.45001 0.99283,-1.45001 0.54606,0 0.71826,-0.44426 0.38267,-0.98725 -0.33559,-0.54299 0.33688,-1.80862 1.49437,-2.8125 2.11986,-1.83855 3.1242,-2.18788 5.40281,-1.87926 0.68278,0.0925 1.84294,-0.33107 2.57812,-0.94121 1.05813,-0.87818 1.3367,-0.81067 1.3367,0.32391 0,1.00888 0.60202,1.27584 2.03313,0.9016 1.59156,-0.41621 1.90735,-0.2039 1.45399,0.97752 -0.4063,1.05881 -0.17371,1.35363 0.77938,0.98789 1.52369,-0.58469 1.87887,1.12204 0.421,2.02305 -0.51563,0.31867 -0.9375,1.02804 -0.9375,1.57637 0,0.66896 0.42411,0.64499 1.28906,-0.0729 1.03809,-0.86153 1.28906,-0.59059 1.28906,1.39156 0,1.35375 -0.28484,2.00048 -0.63298,1.43717 -0.38095,-0.61638 -2.03267,0.65029 -4.14823,3.18117 -1.93338,2.31294 -3.07236,4.20535 -2.53107,4.20535 0.54128,0 0.98416,0.42187 0.98416,0.9375 0,1.44103 -1.60774,1.11122 -2.20796,-0.45295 z m 7.83296,0.64586 c 0,-0.49546 0.68147,-1.46641 1.51438,-2.15766 1.31019,-1.08737 1.4682,-1.01851 1.17188,0.51065 -0.3531,1.82214 -2.68626,3.25266 -2.68626,1.64701 z m 6.59726,0.27583 c -0.0142,-0.51563 1.41699,-2.50834 3.1804,-4.42826 1.7634,-1.91992 3.77774,-4.24023 4.4763,-5.15625 2.08562,-2.73487 7.3094,-7.24038 7.2974,-6.29401 -0.0154,1.21384 -14.92207,17.04201 -14.9541,15.87852 z m 5.59024,-2.2331 c 0,-0.51562 0.42187,-1.19823 0.9375,-1.5169 0.51562,-0.31867 0.9375,-0.15753 0.9375,0.3581 0,0.51562 -0.42188,1.19823 -0.9375,1.5169 -0.51563,0.31867 -0.9375,0.15753 -0.9375,-0.3581 z M 315,365.15625 c 0,-0.77344 0.42187,-1.40625 0.9375,-1.40625 0.51562,0 0.9375,0.63281 0.9375,1.40625 0,0.77344 -0.42188,1.40625 -0.9375,1.40625 -0.51563,0 -0.9375,-0.63281 -0.9375,-1.40625 z m 7.03125,-0.46875 c 0.31867,-0.51563 0.76545,-0.9375 0.99283,-0.9375 0.22738,0 0.41342,0.42187 0.41342,0.9375 0,0.51562 -0.44678,0.9375 -0.99283,0.9375 -0.54606,0 -0.73209,-0.42188 -0.41342,-0.9375 z m 8.94435,-1.42188 c 0.0645,-1.55947 5.5056,-7.40942 6.22372,-6.6913 0.37162,0.37162 -0.88526,2.23662 -2.79307,4.14443 -1.90781,1.90782 -3.4516,3.05391 -3.43065,2.54687 z m -3.7881,-3.80928 c 0,-1.59205 2.43192,-4.43057 3.45999,-4.03847 0.52401,0.19986 -0.0401,1.4092 -1.25362,2.68741 -1.2135,1.27822 -2.20637,1.8862 -2.20637,1.35106 z m 15,-2.26884 c 0,-0.51563 0.44677,-0.9375 0.99283,-0.9375 0.54606,0 0.73209,0.42187 0.41342,0.9375 -0.31867,0.51562 -0.76545,0.9375 -0.99283,0.9375 -0.22738,0 -0.41342,-0.42188 -0.41342,-0.9375 z m -47.45276,-2.05138 c -0.39697,-0.64231 0.0297,-1.53533 1.00776,-2.10938 0.9329,-0.54751 2.90529,-1.98221 4.38309,-3.1882 3.56182,-2.90671 3.42917,-1.06167 -0.22271,3.09758 -3.11458,3.54732 -4.08116,3.95878 -5.16814,2.2 z m 28.74004,-0.71824 c -1.17043,-0.74032 -1.11245,-1.14936 0.39973,-2.8203 1.34699,-1.48841 1.94938,-1.66971 2.52648,-0.76036 1.21243,1.91036 0.90703,2.84713 -0.72412,2.2212 -1.08094,-0.4148 -1.35598,-0.17666 -0.96693,0.8372 0.63261,1.64854 0.58037,1.67062 -1.23516,0.52226 z m 15.90022,-0.25541 c 0,-1.70901 1.66202,-3.12545 2.5847,-2.20278 0.32172,0.32172 -0.12823,1.29812 -0.99988,2.16978 -1.46151,1.4615 -1.58482,1.46407 -1.58482,0.033 z m -35.625,-4.24539 c 0,-0.51562 0.63281,-1.46268 1.40625,-2.10458 0.78444,-0.65103 1.40625,-0.75255 1.40625,-0.22958 0,0.51562 -0.63281,1.46268 -1.40625,2.10458 -0.78444,0.65103 -1.40625,0.75255 -1.40625,0.22958 z m -21.76224,-20.04101 c 0.17157,-0.89088 -0.51161,-1.71841 -1.66838,-2.02091 -1.63168,-0.42669 -1.85739,-0.19242 -1.35121,1.40244 0.44333,1.39679 0.28777,1.71698 -0.57508,1.1837 -0.78799,-0.487 -0.94881,-0.3524 -0.48178,0.40326 0.95562,1.54622 3.71857,0.8898 4.07645,-0.96849 z m -5.59487,-3.0055 c -1.01689,-1.90006 -2.21278,-1.82801 -10.61164,0.63932 l -4.6875,1.37704 8.11689,-0.13498 c 7.60747,-0.1265 8.05823,-0.24458 7.18225,-1.88138 z m 223.78,183.87089 c -0.37997,-1.18124 -0.8312,-10.54525 -1.00274,-20.80893 -0.21534,-12.88446 -0.64985,-18.87008 -1.40362,-19.33594 -1.52379,-0.94175 0.40122,-2.01118 2.30512,-1.28058 0.98936,0.37966 1.4862,1.72093 1.47703,3.98742 -0.0267,6.59933 0.8521,35.31009 1.13449,37.06442 0.41631,2.58624 -1.69736,2.90083 -2.51028,0.37361 z M 378.28125,457.5 c 0.31867,-0.51563 0.97639,-0.9375 1.46158,-0.9375 0.48519,0 0.88217,0.42187 0.88217,0.9375 0,0.51562 -0.65771,0.9375 -1.46158,0.9375 -0.80387,0 -1.20084,-0.42188 -0.88217,-0.9375 z m 63.98437,-52.18185 c -1.41796,-0.74688 -2.57812,-1.76485 -2.57812,-2.26217 0,-0.5108 1.12172,-0.63608 2.57812,-0.28797 3.48144,0.83213 3.98438,1.18003 3.98438,2.75607 0,1.61313 -0.58858,1.58271 -3.98438,-0.20593 z m -8.10979,-6.64628 c -1.66922,-2.44921 -3.95512,-5.78516 -5.07977,-7.4132 L 427.03125,388.29859 420,388.87457 c -12.46917,1.02142 -17.55321,0.71319 -19.65826,-1.19185 -2.18544,-1.9778 -1.77796,-3.27306 0.4484,-1.42534 1.5321,1.27153 5.53777,1.41942 17.53658,0.64744 8.42372,-0.54195 15.63947,-4.15058 15.70155,-7.8524 0.0309,-1.84334 3.29707,-5.29629 5.79849,-6.13009 0.54046,-0.18015 1.21321,-2.3731 1.49502,-4.87323 0.38048,-3.37563 0.96003,-4.66274 2.25154,-5.00048 2.20739,-0.57724 2.18381,-1.53816 -0.15639,-6.37236 -2.12732,-4.39446 -1.75338,-6.57212 1.26028,-7.33917 2.38255,-0.60641 15.36628,-8.69062 19.62792,-12.22116 1.61223,-1.33563 3.47309,-2.42843 4.13524,-2.42843 2.50448,0 4.3843,-4.45284 3.14396,-7.44729 -0.62621,-1.51181 -1.03271,-5.20072 -0.90333,-8.1976 0.12936,-2.99688 -0.19248,-6.49662 -0.71521,-7.77722 l -0.95044,-2.32834 -0.67605,2.13005 c -4.77518,15.04526 -24.29762,6.93313 -31.52037,-13.09759 l -2.96287,-8.21688 0.42003,-16.6732 c 0.23102,-9.17025 0.0666,-17.41146 -0.36553,-18.31381 -0.43206,-0.90234 -1.21708,-2.49408 -1.74449,-3.53721 -0.65357,-1.29265 -0.65357,-2.46716 0,-3.68837 1.24565,-2.32752 1.23259,-5.66504 -0.0222,-5.66504 -0.53961,0 -1.69976,1.33622 -2.57813,2.96936 -3.10709,5.77706 -7.69077,9.81228 -7.69077,6.77053 0,-1.15403 -0.44197,-0.98823 -1.87437,0.70313 -1.63608,1.93184 -2.02345,2.03444 -3.04687,0.80698 -2.79353,-3.35045 -14.76265,5.48583 -14.76567,10.90084 -9.2e-4,1.64288 -2.53513,3.43235 -3.24173,2.28906 -0.75316,-1.21864 0.87347,-4.33755 4.34813,-8.3371 l 2.70702,-3.11594 -2.61013,-3.13222 c -1.43557,-1.72272 -3.77028,-3.56813 -5.18825,-4.10091 -1.97985,-0.7439 -2.57813,-1.5865 -2.57813,-3.631 0,-4.47865 -4.93203,-9.59791 -7.23857,-7.51336 -3.88064,3.50719 -9.09599,1.50429 -10.59689,-4.06963 -0.85942,-3.19168 -1.24539,-3.61974 -2.39984,-2.66163 -1.79059,1.48606 -7.77441,-1.48653 -13.46691,-6.68999 -3.35117,-3.06327 -3.7049,-3.68812 -2.08785,-3.68812 1.07079,0 2.28426,0.58284 2.6966,1.29521 1.32439,2.28805 9.38015,7.14221 12.13965,7.31501 3.29311,0.2062 5.01631,1.42458 5.01631,3.54677 0,3.79874 6.05947,6.17712 8.4375,3.31176 2.421,-2.91713 8.91822,2.25557 9.53702,7.5928 0.21294,1.83657 0.95527,2.80023 2.42758,3.15137 1.16647,0.2782 2.95324,1.87692 3.9706,3.55271 2.49142,4.10383 3.18625,3.92045 9.44107,-2.49162 6.89857,-7.072 7.5277,-8.33336 7.41009,-14.85679 -0.0534,-2.96229 0.18116,-7.12956 0.52127,-9.26063 0.38932,-2.43935 0.2385,-4.10943 -0.40712,-4.50845 C 420.46147,217.67455 420,216.7442 420,215.95568 c 0,-2.27224 -5.44402,-13.43086 -9.33101,-19.12583 -5.32576,-7.80292 -6.83005,-11.12399 -6.19134,-13.66881 0.31225,-1.24411 0.13453,-3.07144 -0.39492,-4.06074 -0.52946,-0.98931 -1.55706,-4.63441 -2.28356,-8.10024 -0.81598,-3.89271 -1.92681,-6.64059 -2.90597,-7.18856 -0.87179,-0.48787 -2.57577,-3.1272 -3.78663,-5.86517 -1.30889,-2.95962 -2.9797,-5.22509 -4.12064,-5.58721 -1.05549,-0.335 -2.18375,-1.66367 -2.50726,-2.95261 -0.32975,-1.31386 -2.1843,-3.35112 -4.22093,-4.63679 -1.998,-1.26128 -3.63274,-2.65369 -3.63274,-3.09424 0,-0.44055 -2.90617,-2.75082 -6.45816,-5.13395 -6.07573,-4.07637 -8.39139,-6.69532 -7.07696,-8.00384 0.31434,-0.31292 1.27348,0.27924 2.13145,1.31592 0.85796,1.03667 3.97051,3.47492 6.9168,5.41833 2.94628,1.94342 5.8994,4.29605 6.5625,5.22808 0.66309,0.93203 2.47125,2.2946 4.01812,3.02794 1.71486,0.81298 2.9339,2.18735 3.12356,3.52156 0.17353,1.22075 1.51026,2.87483 3.02342,3.74122 1.4918,0.85416 3.45594,3.02957 4.36475,4.83426 0.90881,1.80469 2.61919,4.37187 3.80082,5.70486 1.22948,1.38696 2.64081,4.83745 3.29958,8.06704 0.63314,3.10389 1.72949,6.34029 2.43635,7.19199 0.91832,1.10651 1.10881,2.87801 0.66735,6.20596 -0.60003,4.52325 -0.5138,4.75139 2.99352,7.92004 2.34529,2.11883 4.84495,5.98903 7.13012,11.0395 1.93531,4.27728 3.98275,8.62061 4.54985,9.65186 4.42585,8.04815 1.45527,30.22926 -4.64138,34.65699 -3.98829,2.89651 -5.29284,4.93477 -2.46352,3.84906 0.86112,-0.33044 1.92383,-0.0592 2.36156,0.60282 0.61822,0.93492 1.0905,0.81838 2.11548,-0.52203 0.84138,-1.10028 1.96703,-1.52016 3.10615,-1.15861 1.96457,0.62353 4.30395,-1.46448 5.29544,-4.72647 2.28862,-7.5295 7.00902,-6.15312 6.88527,2.00763 -0.10815,7.13196 1.26478,9.03083 4.43719,6.13699 1.95591,-1.78417 11.77653,-6.85944 15.63123,-8.07819 1.20767,-0.38182 3.50121,-1.68821 5.09675,-2.90309 1.59555,-1.21487 3.20046,-2.20885 3.56647,-2.20885 0.36602,0 2.01369,-1.2646 3.66151,-2.81023 10.31482,-9.67514 18.09964,-5.82564 10.50852,5.19635 -3.1959,4.64029 -5.74174,6.72839 -6.85097,5.61915 -0.26201,-0.26201 1.48587,-2.57418 3.88417,-5.13816 8.24596,-8.81559 4.16373,-12.37209 -5.12907,-4.46853 -6.06554,5.15877 -8.72801,6.97883 -12.53725,8.57043 -2.02717,0.847 -4.334,2.10167 -5.12631,2.78816 -0.79231,0.6865 -2.55237,1.61962 -3.91125,2.07362 -2.57635,0.86077 -6.42938,3.4112 -9.39085,6.21608 -6.49026,6.14711 1.72411,55.07813 9.24633,55.07813 0.66493,0 1.20896,0.5993 1.20896,1.33176 0,4.82485 12.33094,2.54984 16.37361,-3.02087 5.49395,-7.57056 9.1397,-40.23828 4.14621,-37.15213 -0.45623,0.28196 -0.7633,-0.25013 -0.68238,-1.18243 0.3638,-4.19106 -0.17964,-7.31852 -1.03638,-5.96434 -0.52287,0.82644 -0.50886,2.00761 0.0359,3.02546 0.61413,1.14752 0.44708,2.73845 -0.53417,5.08688 -1.67918,4.01885 -1.73488,4.42613 -0.50101,3.66356 0.55413,-0.34247 0.67343,0.0874 0.2967,1.06914 -0.39077,1.01833 -0.77315,1.21264 -1.00683,0.5116 -0.20723,-0.62167 -0.82907,-0.85078 -1.38188,-0.50912 -0.64804,0.40051 -0.81729,-0.097 -0.47644,-1.40041 0.29075,-1.11188 0.2138,-2.0216 -0.17102,-2.0216 -0.59601,0 -1.15745,-1.47792 -3.38335,-8.90625 -0.1545,-0.51562 -0.31422,-0.0544 -0.35493,1.02511 -0.0407,1.07944 0.78623,4.45444 1.83763,7.5 1.05139,3.04556 1.68177,6.46429 1.40084,7.59715 -0.34043,1.37277 0.0383,2.36952 1.13523,2.98849 1.31841,0.74387 1.41279,1.16427 0.47416,2.11211 -0.64453,0.65086 -1.15498,1.8373 -1.13433,2.63652 0.0214,0.82694 0.65775,0.30874 1.4768,-1.20252 0.7916,-1.4606 1.20983,-3.25357 0.92938,-3.98437 -0.7646,-1.99255 0.34276,-4.09238 1.85262,-3.51299 1.84281,0.70715 1.71888,1.3545 -1.53712,8.02869 -1.9207,3.93708 -2.70375,6.71254 -2.37445,8.41609 0.44824,2.31895 -0.7789,4.40784 -1.91943,3.26732 -0.25983,-0.25983 -0.67291,-5.25911 -0.91797,-11.10951 -0.30081,-7.18107 -1.02391,-12.20239 -2.22561,-15.45484 -0.97901,-2.64976 -1.55402,-5.04374 -1.27779,-5.31997 1.46393,-1.46394 -0.83389,-4.37217 -3.02081,-3.82329 -1.3253,0.33263 -3.17086,0.01 -4.38937,-0.76841 -1.34391,-0.85802 -3.87844,-1.23106 -7.02442,-1.03388 -2.88459,0.18079 -4.92187,-0.0824 -4.92187,-0.63598 0,-0.51946 0.73828,-0.99893 1.64062,-1.06549 8.75828,-0.64609 10.20449,-0.55873 11.60133,0.70071 1.8961,1.7096 11.74616,-1.85533 12.61075,-4.56406 0.30662,-0.96067 1.45516,-1.64063 2.77124,-1.64063 1.2881,0 2.67597,-0.80043 3.25106,-1.875 0.74672,-1.39525 1.96296,-1.875 4.75347,-1.875 2.0625,0 4.68437,-0.58888 5.82639,-1.30863 1.14201,-0.71975 3.02561,-1.59193 4.18576,-1.93818 3.18873,-0.95167 2.60632,1.29612 -0.62796,2.42359 -4.27459,1.49013 -4.43727,5.8961 -0.38312,10.37589 1.11008,1.22663 1.28454,2.69245 0.76769,6.45038 -0.72622,5.28028 -2.29434,4.75852 -2.32038,-0.77207 -0.007,-1.67765 -0.8581,-4.62453 -1.88935,-6.54862 -1.03125,-1.92409 -1.875,-4.27639 -1.875,-5.22734 0,-2.2967 -5.50265,-1.2344 -7.36285,1.42141 -0.69806,0.99661 -1.85823,1.58598 -2.57817,1.30972 -1.74831,-0.67089 -1.65097,0.0622 0.47099,3.54695 4.10427,6.74019 5.60821,28.32094 2.69852,38.72208 -1.16415,4.16144 -1.17352,5.30486 -0.0651,7.94104 0.87655,2.08472 1.09625,4.66935 0.68004,8.00057 -0.45695,3.6573 -0.16893,6.16099 1.12161,9.74986 l 1.73645,4.82888 -4.61581,4.17897 c -2.53871,2.29843 -7.03925,5.4023 -10.00121,6.8975 -2.96197,1.4952 -5.67354,3.18478 -6.02572,3.75461 -0.35217,0.56984 -2.50125,1.83375 -4.77571,2.8087 -4.9405,2.11775 -5.65309,3.52879 -3.69463,7.31602 1.98695,3.84233 1.85484,6.32066 -0.42192,7.91536 -1.20278,0.84246 -1.6779,1.89637 -1.29949,2.8825 0.66382,1.7299 -1.25833,7.14581 -2.53612,7.14581 -1.57019,0 -5.51839,4.10253 -5.51839,5.73408 0,0.944 -1.59926,2.54478 -3.75,3.75357 -3.86938,2.17471 -4.80074,4.23049 -2.34375,5.17332 0.77343,0.29681 1.40625,1.12731 1.40625,1.84558 0,0.71827 0.62478,1.30595 1.38839,1.30595 0.76361,0 1.64875,1.03738 1.96698,2.30529 0.31822,1.26792 1.17001,2.79614 1.89286,3.39605 1.4169,1.17593 1.81521,4.61116 0.53465,4.61116 -0.42878,0 -2.14534,-2.00391 -3.81455,-4.45312 z M 467.25969,263.3015 c -0.61069,-0.98814 -3.86525,-1.05999 -4.45595,-0.0984 -0.23756,0.38672 0.7793,0.7474 2.25969,0.8015 1.48039,0.0541 2.46871,-0.2623 2.19626,-0.70312 z M 188.3563,399.38563 c -0.81809,-0.47841 -3.24387,-1.30934 -5.39062,-1.84649 -2.14675,-0.53715 -5.69615,-1.42212 -7.88756,-1.96659 -2.1914,-0.54447 -4.82812,-1.51766 -5.85937,-2.16263 -2.71278,-1.69664 -9.72463,-3.59419 -10.80773,-2.92481 -0.50897,0.31457 -1.54662,-0.0493 -2.30588,-0.80855 -0.75926,-0.75926 -3.07634,-1.66698 -5.14906,-2.01717 -6.06771,-1.02514 -4.61783,-2.67577 1.62204,-1.84666 2.96485,0.39396 6.1206,0.68035 7.0128,0.63643 0.89219,-0.044 1.8663,0.31518 2.1647,0.79799 0.2984,0.48282 0.95436,0.87785 1.45769,0.87785 1.25683,0 -0.24536,-2.57737 -3.6296,-6.22746 -3.33449,-3.59642 -10.19168,-13.7574 -10.99736,-16.29584 -0.32324,-1.01843 -1.00267,-1.8517 -1.50986,-1.8517 -0.5072,0 -1.53974,-1.37109 -2.29456,-3.04688 -1.68262,-3.7356 -2.95746,-5.81868 -6.18619,-10.10818 -1.3739,-1.82528 -2.8,-4.99101 -3.16911,-7.03494 -1.01845,-5.63959 -1.72411,-6.14412 -6.55846,-4.6892 -3.94973,1.1887 -4.27199,1.13518 -7.27919,-1.20876 -4.57191,-3.56354 -6.53565,-8.59954 -3.35333,-8.59954 0.51563,0 0.70031,0.3838 0.41038,0.8529 -2.26215,3.66024 5.83544,8.84239 10.98052,7.0271 4.61508,-1.6283 7.24845,0.022 7.24845,4.54246 0,1.51626 0.94922,4.07884 2.10938,5.69461 1.16015,1.61579 2.53125,3.67936 3.04687,4.58575 0.51563,0.90638 3.57763,5.55575 6.80447,10.33195 16.56222,24.51455 21.60655,29.39994 33.03928,31.99822 3.35156,0.7617 8.08178,1.87009 10.51161,2.46311 5.94779,1.45159 14.60854,-2.14226 17.8124,-7.39141 1.13665,-1.86227 2.67687,-3.84992 3.4227,-4.41699 1.01286,-0.7701 1.30851,-2.90561 1.16815,-8.4375 -0.34929,-13.7661 -0.81208,-16.63658 -3.47616,-21.56149 l -2.60578,-4.81713 1.89361,-5.04516 c 1.47513,-3.9302 1.71547,-5.86667 1.08755,-8.76241 -0.66965,-3.08819 -0.48047,-4.15763 1.1179,-6.31955 1.05818,-1.43126 2.19433,-3.97725 2.52477,-5.65776 2.09299,-10.64402 14.72135,-22.2836 19.25634,-17.74861 0.84088,0.84088 0.19152,1.09941 -2.76141,1.09941 -4.70409,0 -6.82668,0.73756 -6.82668,2.37212 0,0.67871 -1.10111,2.54262 -2.44692,4.14202 -1.47704,1.75536 -2.26229,3.61407 -1.98112,4.68929 0.32532,1.24402 0.0737,1.6308 -0.83432,1.28237 -0.7871,-0.30203 -1.30014,0.11589 -1.30014,1.05909 0,0.85688 -0.92416,3.53874 -2.05368,5.95967 -2.01567,4.3202 -3.08582,16.12047 -1.46195,16.12045 0.38672,-10e-6 -0.14062,0.84374 -1.17187,1.87499 -1.05933,1.05933 -1.875,3.125 -1.875,4.74841 0,5.85875 13.90222,16.1782 16.3844,12.16194 0.35207,-0.56966 1.3653,-0.53412 2.74924,0.0965 2.74407,1.25028 7.03929,-0.58387 5.34201,-2.28115 -1.53346,-1.53346 -1.30616,-2.88329 1.53195,-9.0979 3.60507,-7.89401 5.93632,-6.75918 2.58615,1.2589 -1.80923,4.3301 -1.77078,4.87523 0.23437,3.32243 1.21091,-0.93774 1.14951,-0.69657 -0.23437,0.92075 -1.74546,2.03987 -2.79473,7.07205 -1.27933,6.13548 0.37456,-0.23149 0.91868,-0.0364 1.20917,0.43366 1.83203,2.96431 -17.4463,3.03385 -20.59659,0.0743 -1.26203,-1.18562 -2.52052,-1.92975 -2.79665,-1.65363 -0.73408,0.7341 -1.1425,7.31786 -0.45395,7.31786 7.03177,0 -3.42209,25.82721 -11.98703,29.61503 -5.29941,2.34366 -13.34802,3.00565 -16.20807,1.3331 z m 48.42755,-14.14506 c 0.96907,-1.07082 1.90546,-1.51639 2.08087,-0.99016 0.1754,0.52622 0.92447,0.72438 1.6646,0.44037 0.74012,-0.28401 1.34568,-0.0945 1.34568,0.42111 0,0.51563 -0.63281,1.18034 -1.40625,1.47714 -0.77344,0.29679 -1.40625,0.0466 -1.40625,-0.55595 0,-0.81943 -0.28358,-0.812 -1.125,0.0294 -1.95621,1.95621 -2.99686,1.21478 -1.15365,-0.82194 z m 159.77865,-2.66876 c 0,-0.47613 -2.84766,-3.83072 -6.32813,-7.45464 -9.50067,-9.89227 -11.21576,-12.30467 -8.74798,-12.30467 1.38225,0 2.51272,1.21521 3.92455,4.21875 1.09068,2.32031 2.32404,4.21875 2.74081,4.21875 1.09365,0 7.77106,6.57922 9.75279,9.60937 1.50568,2.30226 1.52409,2.57813 0.17203,2.57813 -0.83274,0 -1.51407,-0.38956 -1.51407,-0.86569 z m -177.88314,-8.72053 c -0.10838,-1.43871 0.0844,-1.71526 0.60667,-0.87023 0.61597,0.99665 0.87173,0.96195 1.30903,-0.17765 0.29891,-0.77897 -0.10133,-1.95147 -0.88945,-2.60555 -1.69348,-1.40547 0.66377,-2.71615 6.09791,-3.39058 3.55708,-0.44147 3.33792,1.17138 -0.34969,2.5734 -1.19708,0.45513 -2.73813,1.97999 -3.42455,3.38857 -1.59916,3.2816 -3.14658,3.78143 -3.34992,1.08204 z m 4.44564,-1.56348 c 0,-0.46046 0.69248,-1.10293 1.53885,-1.42771 1.2867,-0.49375 1.34469,-0.35657 0.35396,0.8372 -1.35012,1.62679 -1.89281,1.7961 -1.89281,0.59051 z M 240,366.62197 c 0,-0.62077 -0.5151,-0.8112 -1.17188,-0.43324 -0.64453,0.37091 -0.89062,0.36064 -0.54687,-0.0228 0.34375,-0.38345 0.97656,-0.6979 1.40625,-0.69878 0.42969,-8.8e-4 1.30859,-0.43925 1.95312,-0.97416 0.75787,-0.62898 1.17188,-0.64138 1.17188,-0.0351 0,0.51563 -0.63281,1.46269 -1.40625,2.10459 -1.04794,0.86971 -1.40625,0.88486 -1.40625,0.0594 z m 0.9375,-5.47587 c 0,-0.4009 0.63273,-1.63224 1.40605,-2.73632 0.77334,-1.10409 1.14824,-2.67931 0.83312,-3.50049 -0.41929,-1.09265 -0.16781,-1.3376 0.9377,-0.91337 1.94421,0.74606 1.91473,2.12867 -0.0927,4.34687 -1.38316,1.52838 -1.41534,1.89059 -0.23438,2.63759 1.07421,0.67945 0.91478,0.869 -0.7404,0.88027 -1.16015,0.007 -2.10937,-0.31365 -2.10937,-0.71455 z m 21.09375,-6.7711 c 0.31867,-0.51563 1.00128,-0.9375 1.5169,-0.9375 0.51563,0 0.67677,0.42187 0.3581,0.9375 -0.31867,0.51562 -1.00128,0.9375 -1.5169,0.9375 -0.51563,0 -0.67677,-0.42188 -0.3581,-0.9375 z M 221.25,351.69467 c 0,-0.64918 -0.42188,-0.91959 -0.9375,-0.60092 -0.51563,0.31867 -0.9375,-0.008 -0.9375,-0.72592 0,-2.13128 1.06492,-2.56184 2.58259,-1.04417 1.06119,1.06119 1.15178,1.69197 0.35714,2.48661 -0.79464,0.79464 -1.06473,0.76532 -1.06473,-0.1156 z m 3.75,-1.01434 c 0,-1.00082 0.42187,-2.08041 0.9375,-2.39908 0.53171,-0.32861 0.9375,0.45902 0.9375,1.81967 0,1.31949 -0.42188,2.39908 -0.9375,2.39908 -0.51563,0 -0.9375,-0.81885 -0.9375,-1.81967 z m 1.42916,-5.64325 c -0.37473,-0.60632 -1.24998,-0.8842 -1.94499,-0.61749 -0.81309,0.31201 -1.0778,5.1e-4 -0.74237,-0.87359 0.72209,-1.88175 -0.61661,-1.70395 -2.12425,0.28212 -0.86225,1.13587 -1.25459,1.25348 -1.27524,0.38225 -0.0164,-0.69211 0.84421,-2.36952 1.91246,-3.72757 1.13651,-1.44484 1.5261,-2.60792 0.93912,-2.80359 -0.59547,-0.19849 -0.75011,-1.35065 -0.38052,-2.83492 0.56348,-2.26293 0.4722,-2.37658 -0.96058,-1.19607 -1.40033,1.1538 -1.51774,1.09965 -1.01647,-0.46875 0.54609,-1.7086 0.51306,-1.70739 -0.90635,0.0334 -2.1254,2.60651 -2.98574,1.05629 -1.05183,-1.89524 1.09275,-1.66775 1.29971,-2.69638 0.62623,-3.11261 -1.22513,-0.75718 2.0993,-6.64246 3.75215,-6.64246 0.71807,0 0.61021,0.56629 -0.31247,1.64062 -2.14776,2.50075 -3.09275,5.53422 -1.24676,4.00219 0.78524,-0.65169 1.42771,-0.89358 1.42771,-0.53752 0,0.35607 1.22528,-0.22509 2.72285,-1.29146 3.12665,-2.22637 4.45572,-2.42961 5.01532,-0.76696 0.30749,0.91361 0.73795,0.8883 1.95312,-0.11478 1.32114,-1.09056 1.56346,-1.09056 1.5899,0 0.034,1.40251 3.71881,-2.5346 3.71881,-3.97349 0,-0.4585 -1.7124,-0.83364 -3.80533,-0.83364 -2.30743,0 -3.57641,0.37039 -3.22379,0.94094 0.31984,0.51752 1.71583,0.67837 3.1022,0.35744 2.44157,-0.56519 2.46183,-0.53682 0.64567,0.90425 -2.16923,1.72119 -4.21875,1.9906 -4.21875,0.55454 0,-0.54606 -0.42188,-0.73209 -0.9375,-0.41342 -0.53171,0.32861 -0.9375,-0.45902 -0.9375,-1.81967 0,-1.31949 0.48083,-2.39908 1.06852,-2.39908 0.58769,0 1.59616,-0.72158 2.24105,-1.60353 2.03745,-2.78637 5.89949,-0.23309 6.63858,4.38891 0.33219,2.07741 0.97999,3.77712 1.43953,3.77712 0.45954,0 0.59108,0.97403 0.29229,2.16452 -0.96602,3.84891 -1.22258,5.73388 -1.3004,9.55423 -0.13207,6.48361 -9.94845,13.39608 -12.70041,8.94333 z M 231.5625,341.25 c 0,-0.51563 -0.63281,-0.9375 -1.40625,-0.9375 -0.77344,0 -1.40625,0.42187 -1.40625,0.9375 0,0.51562 0.63281,0.9375 1.40625,0.9375 0.77344,0 1.40625,-0.42188 1.40625,-0.9375 z m 4.42356,-1.17188 c -0.23111,-0.64453 -0.0405,-1.91015 0.42361,-2.8125 0.5676,-1.10361 0.48856,-1.64062 -0.24148,-1.64062 -0.74246,0 -0.67884,-0.49965 0.2014,-1.58178 1.12168,-1.37896 1.08407,-1.50592 -0.29339,-0.99017 -0.86904,0.32539 -1.71279,0.20301 -1.875,-0.27195 -0.16223,-0.47496 -1.01721,0.39876 -1.89997,1.94159 -1.57819,2.75829 -1.57294,2.788 0.31467,1.77778 2.41799,-1.29407 3.13316,-0.63043 1.86804,1.73347 -0.97903,1.82934 -0.56081,3.01606 1.06293,3.01606 0.47266,0 0.67029,-0.52734 0.43919,-1.17187 z M 223.125,328.95185 c 0,-0.51563 -0.42188,-0.67677 -0.9375,-0.3581 -0.51563,0.31867 -0.9375,1.00128 -0.9375,1.5169 0,0.51563 0.42187,0.67677 0.9375,0.3581 0.51562,-0.31867 0.9375,-1.00128 0.9375,-1.5169 z m 13.75,-2.21123 c 0,-0.8239 -0.74366,-0.75753 -2.75507,0.2459 -1.94013,0.96786 -2.40403,1.59138 -1.56826,2.10791 1.39722,0.86353 4.32333,-0.72956 4.32333,-2.35381 z m 4.71149,15.68126 c -0.21954,-0.38672 1.18257,-4.01257 3.11578,-8.05745 1.93321,-4.04487 3.67838,-6.998 3.87815,-6.5625 1.59223,3.4712 -5.22866,17.72945 -6.99393,14.61995 z m -22.02055,-2.06674 c 1.29354,-2.07129 2.20431,-1.81311 1.36055,0.38568 -0.30533,0.79567 -0.99384,1.44668 -1.53001,1.44668 -0.61703,0 -0.55481,-0.67261 0.16946,-1.83236 z m -99.00411,-12.79441 c -0.44251,-1.15315 -1.63326,-1.41746 -5.25508,-1.16649 -4.48498,0.31079 -5.8222,-0.26625 -3.68208,-1.58891 2.71085,-1.67541 11.18783,-0.21966 11.18783,1.92127 0,1.94081 -1.59864,2.5333 -2.25067,0.83413 z m -13.94123,-1.43446 c -1.6593,-0.9286 -2.22379,-2.68877 -0.86228,-2.68877 0.41707,0 1.53567,0.56842 2.48577,1.26315 2.0675,1.51179 0.69077,2.72074 -1.62349,1.42562 z M 247.5,323.96158 c 0,-1.31949 0.42187,-2.39908 0.9375,-2.39908 0.51562,0 0.9375,0.81885 0.9375,1.81967 0,1.00082 -0.42188,2.08041 -0.9375,2.39908 -0.53171,0.32861 -0.9375,-0.45902 -0.9375,-1.81967 z M 96.979537,321.50536 c -0.97619,-1.07868 -2.207653,-3.28289 -2.73659,-4.89826 -0.638631,-1.95039 -1.746215,-3.12085 -3.297037,-3.48423 -3.42798,-0.8032 -4.400617,-4.4549 -2.342041,-8.79303 1.245238,-2.62414 1.393461,-3.77001 0.591416,-4.57205 -0.588657,-0.58866 -1.070285,-2.3105 -1.070285,-3.82632 0,-1.5158 -0.643001,-3.22619 -1.428892,-3.80085 C 85.135888,290.98976 85.70967,285 87.379177,285 c 0.49266,0 0.635245,1.18176 0.317265,2.62951 -0.410252,1.86786 -0.05239,3.23501 1.235504,4.71996 0.997171,1.14975 1.608665,2.87198 1.358874,3.82719 -0.249791,0.9552 0.0045,2.02018 0.565007,2.36661 1.507802,0.93188 1.236227,4.797 -0.434475,6.18357 -2.471929,2.05152 -1.32189,5.83497 2.036245,6.69893 2.530737,0.6511 3.010644,1.28003 3.549884,4.65226 0.883566,5.52555 1.249041,5.78787 4.910769,3.52479 2.59967,-1.60667 3.68922,-1.81808 5.31639,-1.03153 1.94038,0.93796 1.90376,0.9926 -0.70547,1.05276 -1.51364,0.0349 -3.65718,0.91374 -4.76341,1.953 l -2.011329,1.88955 -1.774894,-1.96124 z m 150.196873,-1.51644 c -0.34984,-0.34986 -0.37224,-2.04251 -0.0498,-3.76144 0.51556,-2.74817 0.37547,-3.05816 -1.16078,-2.56863 -1.64978,0.5257 -1.65571,0.48141 -0.10648,-0.79505 0.90234,-0.74346 1.64062,-1.83259 1.64062,-2.42028 0,-0.58769 0.42188,-1.06852 0.9375,-1.06852 0.87754,0 1.34896,3.16315 1.00059,6.71382 -0.0841,0.85667 0.29613,1.83504 0.84484,2.17416 0.54871,0.33912 0.75494,1.0093 0.45828,1.4893 -0.62975,1.01897 -2.64847,1.15297 -3.5648,0.23664 z m 35.97684,-0.0648 c -4.50667,-0.18114 -8.56085,-0.82722 -9.375,-1.494 -0.78897,-0.64615 -3.75481,-2.05642 -6.59075,-3.13394 -2.83594,-1.07752 -7.6875,-2.91638 -10.78125,-4.08636 -3.09375,-1.16998 -6.02578,-2.48333 -6.51562,-2.91855 -0.48985,-0.43519 -1.93331,-0.79128 -3.2077,-0.79128 -1.27439,0 -4.88142,-1.01918 -8.01562,-2.26485 -5.32425,-2.11609 -7.17647,-2.29417 -28.19856,-2.71124 -21.04178,-0.41746 -35.15625,-1.89298 -35.15625,-3.67521 0,-1.04033 3.17731,-0.87138 11.71875,0.62316 4.75486,0.83197 14.67949,1.32696 27.11511,1.35233 18.4952,0.0378 19.94039,0.16937 25.3125,2.3056 3.13356,1.24606 7.38489,2.69925 9.44739,3.2293 2.0625,0.53006 9.44531,3.21369 16.40625,5.96364 l 12.65625,4.9999 15.9375,0.0106 c 12.37232,0.008 18.87353,-0.47953 29.0625,-2.18028 10.16226,-1.69629 18.25744,-2.30609 35.86178,-2.70141 l 22.7368,-0.51057 7.08739,-4.21783 c 9.82002,-5.84404 10.15393,-6.50132 9.34344,-18.39225 -0.66568,-9.76647 0.042,-20.26838 1.3657,-20.26838 0.39068,0 0.7428,4.95703 0.78251,11.01562 0.0396,6.0586 0.15123,12.71755 0.24786,14.79767 0.31267,6.73096 -2.79518,10.46996 -13.67548,16.45272 -4.44274,2.44292 -7.55648,2.81581 -26.62206,3.18803 -9.85587,0.19242 -20.34317,0.61717 -23.3051,0.94388 -11.75991,1.29713 -25.12022,3.52005 -25.96347,4.31985 -0.84593,0.80235 -10.09715,0.85046 -27.67487,0.14391 z m 63.24638,-17.52101 c -0.25417,-0.80612 -0.67336,-2.13373 -0.93152,-2.95025 -0.71654,-2.26629 1.58074,-1.07573 2.44798,1.26865 0.43065,1.16416 0.36599,2.26946 -0.15146,2.58927 -0.49658,0.3069 -1.11083,-0.10155 -1.365,-0.90767 z m -4.03301,-9.38218 c -2.59243,-5.69551 -3.45823,-8.95844 -2.37708,-8.95844 1.36758,0 5.1917,9.01335 4.82772,11.37881 -0.28849,1.87486 -0.66475,1.50325 -2.45064,-2.42032 z M 71.764165,283.17518 C 70.805918,282.11633 69.215799,281.25 68.230567,281.25 c -3.330669,0 -5.418067,-1.80937 -5.418067,-4.69641 0,-2.08631 -0.654051,-3.09366 -2.69334,-4.14822 -1.481337,-0.76603 -2.952139,-2.3589 -3.268448,-3.5397 -0.874893,-3.26603 -0.7109,-6.36567 0.336788,-6.36567 0.515625,0 0.9375,1.23549 0.9375,2.74553 0,2.7965 1.529912,4.93958 4.760603,6.66859 1.132228,0.60596 1.801897,1.96007 1.801897,3.64356 0,2.69491 1.367071,3.81732 4.649384,3.81732 0.925943,0 2.20872,0.63281 2.850616,1.40625 2.740883,3.30256 10.709752,1.54144 11.748277,-2.59638 0.719882,-2.86823 2.314223,-4.38904 2.314223,-2.20748 0,4.92418 -2.666694,7.45537 -8.949909,8.49517 -3.128778,0.51777 -4.099011,0.29039 -5.535926,-1.29738 z m 67.638165,-0.0733 c -2.0468,-1.61001 -3.22662,-1.82373 -7.17593,-1.29983 -2.98061,0.39539 -4.7264,0.27598 -4.7264,-0.32328 0,-1.8552 9.96517,-2.3746 12.58793,-0.6561 2.67061,1.74985 2.84498,1.54961 3.70971,-4.2602 0.26861,-1.80468 0.75821,-4.59098 1.08802,-6.19176 0.56342,-2.73475 0.36087,-3.00605 -3.35379,-4.49235 -5.25134,-2.10118 -4.10723,-2.95384 1.89824,-1.41468 5.53339,1.41816 9.23731,-1.39038 9.38982,-7.11996 0.0412,-1.54687 0.68281,-4.5 1.42586,-6.5625 1.78359,-4.95081 1.87251,-4.5869 -2.05216,-8.3985 -1.88726,-1.83288 -3.14514,-3.61874 -2.79529,-3.96858 0.34984,-0.34985 2.29637,0.98515 4.32562,2.96665 7.09534,6.92842 15.41262,-0.30494 8.52348,-7.41272 -3.10555,-3.20411 -3.53319,-4.28058 -1.70057,-4.28063 0.64454,-3e-5 2.49109,1.57124 4.10347,3.4917 2.55065,3.03803 3.12931,3.32768 4.45313,2.229 1.79065,-1.4861 2.0472,-7.25168 0.34965,-7.85794 -0.64453,-0.2302 -0.84375,-0.76926 -0.4427,-1.19792 0.40104,-0.42866 1.60645,0.0979 2.67869,1.17013 1.6153,1.6153 2.29553,1.7671 3.96786,0.88542 3.44824,-1.81794 10.90553,-7.43731 10.90553,-8.21772 0,-0.40813 0.78429,-1.49678 1.74287,-2.4192 0.95857,-0.92243 2.02399,-2.84804 2.36759,-4.27913 0.3436,-1.43108 1.4713,-3.44853 2.506,-4.48323 l 1.88128,-1.88128 -3.31137,-4.98879 c -3.20908,-4.83469 -4.06073,-7.15921 -2.60825,-7.11901 0.38672,0.0107 2.31139,2.54195 4.27705,5.625 2.40361,3.76996 4.18405,5.60554 5.43718,5.60554 2.58572,0 7.05183,-2.44058 7.73793,-4.22854 0.3135,-0.81695 1.84118,-1.92852 3.39485,-2.47013 3.22575,-1.1245 3.3271,-1.53455 1.47501,-5.96722 -1.81865,-4.35263 -0.25301,-5.02293 2.16397,-0.92646 2.10944,3.57525 5.74839,4.58327 5.74839,1.59235 0,-0.92812 -0.33757,-2.08828 -0.75015,-2.57812 -1.35217,-1.6054 -5.10617,-11.75306 -4.55265,-12.30658 0.29727,-0.29728 2.16487,2.78251 4.15021,6.84397 l 3.6097,7.38448 3.89831,-0.0788 c 10.51831,-0.21247 12.76108,-3.44531 9.11333,-13.13647 -2.49958,-6.64078 -2.75658,-7.87853 -1.63585,-7.87853 0.38934,0 1.66897,2.47853 2.84361,5.50786 2.68129,6.91484 4.29206,8.35558 9.57349,8.56291 8.23482,0.32327 9.52723,0.0809 10.04086,-1.88327 0.59456,-2.2736 1.12702,-2.34566 2.58625,-0.35005 0.89469,1.22355 1.50513,1.3162 3.0886,0.46875 1.08544,-0.58091 3.68876,-1.0562 5.78516,-1.0562 l 3.81163,0 0,-5.625 c 0,-3.125 0.41666,-5.625 0.9375,-5.625 0.51562,0 0.9375,1.42383 0.9375,3.16406 0,9.71534 8.17399,14.31308 9.82263,5.52507 0.73864,-3.93733 2.26598,-7.22551 3.01041,-6.48108 0.2715,0.27149 -0.0603,2.65494 -0.73731,5.29654 -1.87251,7.30614 2.7632,9.68767 5.46565,2.80791 0.81017,-2.0625 1.87605,-3.75 2.36863,-3.75 0.49257,0 0.63772,0.67201 0.32254,1.49334 -0.31518,0.82135 -0.77296,2.61432 -1.01729,3.98438 l -0.44425,2.49103 1.09797,-2.57813 c 1.3784,-3.23659 2.84877,-3.38308 2.05096,-0.20431 -1.35071,5.38163 -1.24056,5.51306 5.24756,6.26132 6.66678,0.76886 7.60142,0.2683 9.55913,-5.11951 0.51524,-1.41796 1.3174,-2.57812 1.78259,-2.57812 1.25074,0 1.04756,1.24882 -0.96835,5.95175 -1.4857,3.466 -1.59039,4.41789 -0.57824,5.2579 0.92226,0.76541 1.37517,0.66277 1.78471,-0.40448 0.30185,-0.78659 0.98959,-1.43017 1.52832,-1.43017 0.61379,0 0.48705,1.1786 -0.33947,3.15672 -1.22145,2.92336 -1.1647,3.3502 0.76768,5.77361 l 2.08663,2.61689 1.56349,-2.23221 c 0.85993,-1.22771 1.56351,-2.71949 1.56351,-3.31507 0,-0.59557 0.63281,-1.60804 1.40625,-2.24994 1.84945,-1.53491 1.81168,-1.32103 -0.98032,5.5501 -1.86121,4.58049 -2.14549,6.16382 -1.29145,7.19288 1.45233,1.74995 4.61552,1.69051 4.61552,-0.0867 0,-0.77344 0.42188,-1.40625 0.9375,-1.40625 0.51563,0 0.9375,0.84375 0.9375,1.875 0,1.42356 0.62074,1.87191 2.57813,1.8622 4.31338,-0.0214 6.79687,-1.0477 6.79687,-2.80874 0,-1.75834 1.7761,-2.80347 4.76418,-2.80347 0.98907,0 1.79832,-0.64326 1.79832,-1.42945 0,-0.7862 1.01371,-1.81487 2.25268,-2.28593 2.91624,-1.10875 3.98298,-2.88417 2.33207,-3.88136 -4.13288,-2.49637 -4.07448,-2.35219 -2.53763,-6.26465 0.95007,-2.41864 1.15744,-4.22134 0.60015,-5.21718 -0.52768,-0.94288 -0.4799,-2.21599 0.1256,-3.34738 1.65075,-3.08447 1.12287,-4.41594 -2.77287,-6.99402 -4.64552,-3.07426 -4.75199,-4.33003 -0.36712,-4.33003 3.14027,0 3.3407,-0.16808 2.79464,-2.34375 -0.77046,-3.06975 0.71311,-3.02063 2.12141,0.0702 1.45781,3.19956 0.55921,4.38986 -2.76318,3.66014 -3.75098,-0.82386 -3.40959,-0.0173 1.05476,2.49174 2.72842,1.53345 3.59844,2.52683 3.13161,3.57562 -0.35553,0.79873 -0.73768,4.25551 -0.84922,7.68171 -0.11154,3.42622 -0.47789,6.67458 -0.81411,7.21859 -0.33622,0.54402 0.25605,1.45332 1.31615,2.02066 1.4404,0.77087 1.87388,1.82721 1.71541,4.18018 -0.11662,1.73174 0.24934,3.71449 0.81326,4.40612 1.97209,2.4187 6.05521,10.32991 5.57782,10.8073 -1.20783,1.20783 -2.705,-0.84417 -7.30973,-10.01857 -0.64699,-1.28906 -1.24149,-2.45914 -1.32109,-2.60019 -0.54823,-0.97128 -3.22561,1.27024 -3.22561,2.70053 0,1.39659 -0.68562,1.7747 -3.21807,1.7747 -2.51722,0 -3.36145,0.45939 -3.87636,2.10937 -0.84301,2.7013 -2.075,3.48003 -5.56182,3.51563 -4.97286,0.0507 -5.26268,0.79673 -3.10636,7.99558 1.07672,3.59462 2.42706,7.16848 3.00076,7.94192 2.8505,3.8429 3.64891,6.61994 4.02467,13.99855 0.59119,11.60901 0.65619,11.78059 4.95093,13.06733 7.57533,2.26962 9.90798,21.61127 2.61437,21.67772 -1.25087,0.0113 -0.74882,-1.8827 1.19641,-4.51378 1.86507,-2.52264 1.86915,-2.6691 0.22527,-8.06875 -1.71558,-5.63511 -2.61044,-6.59781 -6.98419,-7.51366 -3.19495,-0.66902 -3.81557,-2.66338 -4.01078,-12.88877 -0.14055,-7.36223 -0.43922,-8.60396 -3.09858,-12.88197 -1.61867,-2.60389 -3.2306,-6.32029 -3.58207,-8.25864 -1.13959,-6.28493 -3.19356,-10.35085 -5.52441,-10.93586 -1.97696,-0.49619 -9.86227,-11.28665 -9.86227,-13.49578 0,-2.18817 -4.55737,-4.79139 -9.375,-5.35512 -4.93207,-0.5771 -10.25376,-2.10055 -11.25,-3.22055 -2.46105,-2.76674 -23.99077,-4.86051 -27.41686,-2.66629 -1.58631,1.01594 -4.30088,1.25643 -10.86895,0.96287 -7.73248,-0.34559 -8.99118,-0.17517 -10.78125,1.4598 -3.01508,2.75382 -7.68009,4.8829 -10.69888,4.8829 -1.46936,0 -3.07234,0.35362 -3.56218,0.7858 -0.48985,0.4322 -3.53685,1.72395 -6.77113,2.87056 -3.23427,1.14662 -8.38173,3.74614 -11.43881,5.7767 -3.05707,2.03057 -6.55997,3.69194 -7.78421,3.69194 -2.78832,0 -5.42755,2.78092 -8.8305,9.30457 -2.61109,5.00561 -7.03585,9.01418 -14.34723,12.99773 -1.80469,0.98328 -3.21739,2.16829 -3.13932,2.63336 0.27546,1.64122 -1.593,4.04617 -4.07978,5.25117 -1.58208,0.76663 -2.80762,2.35078 -3.30051,4.26629 -0.50501,1.96264 -1.36169,3.04688 -2.4074,3.04688 -3.43233,0 -6.58161,4.33571 -7.29467,10.04277 -0.59601,4.77033 -1.15114,5.8558 -4.68886,9.16846 -4.09233,3.83198 -6.01126,8.344 -6.02173,14.15909 -0.008,4.60901 -2.80683,6.5518 -5.9154,4.10659 z M 89.8125,282 c 0.61875,-0.61875 1.125,-1.81899 1.125,-2.6672 0,-0.84821 0.84375,-2.30578 1.875,-3.23905 1.03125,-0.93327 1.875,-2.47522 1.875,-3.42655 0,-0.95133 0.4503,-1.7297 1.000678,-1.7297 1.214456,0 0.240431,3.6174 -1.515065,5.62672 -0.676558,0.77438 -1.670904,2.56735 -2.209656,3.98437 -0.538752,1.41702 -1.496241,2.57641 -2.127753,2.57641 -0.893047,0 -0.898204,-0.25 -0.0232,-1.125 z m 249.33305,-1.21875 c -0.30044,-1.57163 -0.0276,-2.34375 0.8282,-2.34375 0.73633,0 1.27625,0.99153 1.27625,2.34375 0,1.28906 -0.37269,2.34375 -0.82821,2.34375 -0.45552,0 -1.02982,-1.05469 -1.27624,-2.34375 z M 120,278.4375 c -1.39119,-1.95376 -2.78722,-2.8125 -4.57215,-2.8125 -1.41322,0 -3.3884,-0.6194 -4.38929,-1.37644 -1.00089,-0.75703 -3.08543,-1.40327 -4.63231,-1.43606 -1.54687,-0.0328 -3.63142,-0.67903 -4.63231,-1.43606 C 100.77305,270.6194 99.191016,270 98.258316,270 c -0.9327,0 -1.695816,-0.42188 -1.695816,-0.9375 0,-1.29034 4.06651,-1.18349 5.39168,0.14167 0.59354,0.59355 2.89275,1.39555 5.10937,1.78224 8.9937,1.56893 23.76152,10.26359 17.43264,10.26359 -1.70053,0 -3.1304,-0.89442 -4.49619,-2.8125 z m 348.75,-0.88217 c 0,-0.48519 0.42187,-1.14291 0.9375,-1.46158 0.51562,-0.31867 0.9375,0.0783 0.9375,0.88217 0,0.80387 -0.42188,1.46158 -0.9375,1.46158 -0.51563,0 -0.9375,-0.39698 -0.9375,-0.88217 z M 90,265.78125 c 0.641896,-0.77344 1.524062,-1.40625 1.960369,-1.40625 0.436307,0 0.550452,0.63281 0.253655,1.40625 -0.296795,0.77344 -1.178961,1.40625 -1.960368,1.40625 -1.156584,0 -1.203746,-0.26146 -0.253656,-1.40625 z m -11.25,-0.9375 c -1.327833,-1.59994 -4.290669,-1.86929 -5.15625,-0.46875 -0.870467,1.40844 -4.21875,1.12752 -4.21875,-0.35396 0,-2.35944 -2.609863,-3.79379 -4.3202,-2.37434 -1.280583,1.06278 -1.702791,0.98447 -2.802813,-0.5199 -1.477569,-2.0207 -1.094928,-2.94588 0.732515,-1.77114 0.678836,0.43637 2.496096,0.79503 4.038354,0.797 1.542258,0.002 2.807883,0.49578 2.8125,1.09734 0.01577,2.05469 1.415921,2.50365 3.810819,1.22194 2.096584,-1.12206 2.796869,-1.06357 5.647647,0.47168 l 3.254299,1.75255 3.067446,-2.97309 c 1.687095,-1.63519 3.644902,-2.97308 4.35068,-2.97308 0.705778,0 -0.544657,1.6875 -2.778747,3.75 -4.326069,3.99381 -6.554374,4.61278 -8.4375,2.34375 z m 63.75,-2.13898 c -4.19511,-1.98208 -4.17551,-1.96676 -3.44706,-2.69521 0.76172,-0.76172 8.13456,2.47428 8.13456,3.57032 0,1.09123 -0.86917,0.92897 -4.6875,-0.87511 z m -89.430993,-1.95631 c -3.429397,-0.7488 -5.166389,-3.258 -3.778484,-5.45828 1.550143,-2.45749 3.65088,-2.86668 2.363014,-0.46028 -1.609068,3.00657 -1.265221,3.66703 2.252713,4.32699 1.804687,0.33856 3.28125,1.01834 3.28125,1.51059 0,0.96538 -0.06238,0.96661 -4.118493,0.081 z M 94.21875,260.625 c 0.318675,-0.51563 0.76545,-0.9375 0.992831,-0.9375 0.227382,0 0.413419,0.42187 0.413419,0.9375 0,0.51562 -0.446775,0.9375 -0.992831,0.9375 -0.546057,0 -0.732094,-0.42188 -0.413419,-0.9375 z m -40.442226,-9.84375 c 0.393593,-1.02568 -0.113827,-1.40625 -1.875,-1.40625 -1.81666,0 -2.273706,-0.36724 -1.845576,-1.48293 0.312979,-0.8156 0.569052,-1.65935 0.569052,-1.875 0,-0.21563 0.408635,-0.39207 0.908077,-0.39207 0.499442,0 0.665244,0.63281 0.368447,1.40625 -0.408313,1.06405 0.169182,1.40625 2.373174,1.40625 3.120448,0 4.091253,2.15968 1.429877,3.18095 -2.208369,0.84743 -2.522209,0.71116 -1.928051,-0.8372 z m 0.195981,-5.04905 c -0.282234,-0.45666 0.546687,-1.0329 1.842047,-1.28052 2.3423,-0.44776 3.742079,0.36669 2.597461,1.51131 -0.883086,0.88309 -3.846301,0.72904 -4.439508,-0.23079 z m -3.816255,-2.9197 c -0.318674,-0.51563 0.328167,-0.9375 1.437426,-0.9375 1.109257,0 3.089486,-0.84375 4.400507,-1.875 C 58.61033,237.94214 60,237.61691 60,239.0625 60,239.57812 59.432573,240 58.739051,240 c -0.693522,0 -2.024533,0.84375 -2.957801,1.875 -1.812131,2.00238 -4.672257,2.47907 -5.625,0.9375 z m -6.09375,-3.75 c 0,-0.51563 0.421875,-0.9375 0.9375,-0.9375 0.515625,0 0.9375,-0.57903 0.9375,-1.28673 0,-0.70771 1.961355,-2.13575 4.358567,-3.17344 4.110297,-1.77924 4.2438,-1.94813 2.34375,-2.965 -1.10815,-0.59306 -2.014817,-1.76166 -2.014817,-2.59686 0,-1.35804 0.173435,-1.36962 1.640625,-0.10952 0.902344,0.77498 2.378906,1.67088 3.28125,1.99088 2.727453,0.96725 1.868084,2.27373 -2.62407,3.9893 -2.345582,0.89578 -5.043017,2.61817 -5.9943,3.82753 -1.841207,2.34072 -2.866005,2.79173 -2.866005,1.26134 z m -6.989332,-4.55542 c -0.633586,-1.99626 0.224401,-4.81958 1.464634,-4.81958 0.460459,0 0.850027,0.94922 0.865706,2.10937 0.02661,1.96893 0.09622,1.99284 1.045467,0.35907 1.266872,-2.18044 6.751512,-7.14296 7.294441,-6.60002 0.220527,0.22053 -0.233394,0.92394 -1.008713,1.56314 -0.775318,0.63921 -2.783877,2.95516 -4.463464,5.14656 -3.375016,4.40349 -4.375008,4.83469 -5.198071,2.24146 z m 0.594046,-6.96185 c -0.643775,-0.7757 -1.05023,-1.93754 -0.903233,-2.58188 0.146998,-0.64432 -1.083055,-1.53917 -2.733453,-1.98852 -3.717163,-1.01209 -4.135848,-1.6622 -3.236411,-5.02532 1.04674,-3.91391 2.65521,-3.91154 2.198181,0.003 -0.331502,2.84 -0.113775,3.29768 1.568559,3.29768 1.23194,0 2.502837,1.06232 3.440758,2.87605 1.68847,3.26515 1.461742,5.5834 -0.334401,3.41918 z M 38.4375,215.07815 c -1.640442,-0.91026 -1.874443,-1.30466 -0.7798,-1.31433 2.224176,-0.0197 4.5298,0.97872 4.5298,1.96148 0,1.09363 -0.889418,0.94014 -3.75,-0.64715 z m -11.953125,-3.82404 c -3.503893,-1.41385 0.131722,-6.02344 4.625868,-5.86514 1.902863,0.067 1.794684,0.24105 -0.875868,1.40894 C 27.042886,208.19362 26.148579,210 28.649078,210 c 0.803868,0 1.200846,0.42187 0.882172,0.9375 -0.620249,1.00358 -1.196088,1.06342 -3.046875,0.31661 z M 36.5625,210 c 0,-0.51563 -0.928125,-0.9375 -2.0625,-0.9375 -1.529713,0 -1.78962,-0.27288 -1.00614,-1.05636 1.404601,-1.4046 5.88114,-0.23014 5.88114,1.54297 0,0.76361 -0.632813,1.38839 -1.40625,1.38839 -0.773438,0 -1.40625,-0.42188 -1.40625,-0.9375 z m -2.578125,-7.86755 c 2.148231,-1.63073 2.095432,-2.78257 -0.101219,-2.20813 -2.204256,0.57642 -4.820656,-0.84946 -4.820656,-2.62715 0,-0.74782 -0.646053,-1.35967 -1.435673,-1.35967 -2.390792,0 -2.715225,-2.76839 -0.559769,-4.77651 1.097493,-1.02246 1.995442,-2.68635 1.995442,-3.69752 0,-1.01115 0.632812,-1.83847 1.40625,-1.83847 0.773438,0 1.40625,-0.39535 1.40625,-0.87856 0,-0.48478 -1.57572,-0.64015 -3.515625,-0.34665 -4.623916,0.69958 -2.954503,-1.12658 1.801893,-1.97109 4.521489,-0.8028 5.410672,0.76429 2.284894,4.02691 C 31.100772,187.85989 30,189.37442 30,189.82123 c 0,0.44681 -0.698198,1.58388 -1.551551,2.52683 -1.464547,1.6183 -1.417601,1.71444 0.837198,1.71444 1.36498,0 2.645805,-0.66988 2.988535,-1.56302 0.441378,-1.15021 0.876076,-1.28673 1.645914,-0.51688 0.769839,0.76984 0.618138,1.69932 -0.574392,3.51936 -1.816226,2.7719 -1.327116,4.13651 0.838451,2.33926 2.000354,-1.66016 4.253345,-0.5026 4.253345,2.18531 0,2.26728 -1.567933,3.43762 -4.5298,3.38116 -1.423446,-0.0272 -1.416557,-0.14171 0.07668,-1.27524 z m 168.220455,-5.27747 c -1.97659,-2.79379 -2.28269,-3.72998 -1.2196,-3.72998 1.29785,0 6.20227,5.44458 6.20227,6.88537 0,1.8026 -2.67217,0.1104 -4.98267,-3.15539 z m -25.72173,-19.19873 0.0882,-15.9375 3.60896,-7.64523 C 183.75346,146.50403 194.02038,135 197.20266,135 c 0.65809,0 2.43563,-1.30328 3.95007,-2.8962 1.51444,-1.59291 4.01915,-3.5565 5.56602,-4.36354 1.54688,-0.80704 4.28906,-2.64678 6.09375,-4.08831 7.59634,-6.06775 55.24943,-6.62317 66.94858,-0.78033 3.98578,1.9906 4.69518,2.06943 8.90746,0.98986 4.58259,-1.17449 9.72983,-0.50574 13.17931,1.71229 2.50385,1.61 0.37839,1.97731 -3.08004,0.53229 -1.8673,-0.78021 -4.5688,-1.37549 -6.00332,-1.32285 -2.47094,0.0907 -2.43551,0.14525 0.67301,1.03685 1.80469,0.51762 3.83533,1.10438 4.51254,1.30391 0.67722,0.19954 0.96802,0.78878 0.64623,1.30944 -0.39204,0.63434 -1.18658,0.62473 -2.40834,-0.0292 -1.00282,-0.53669 -4.66862,-1.24104 -8.14624,-1.56523 -3.47762,-0.32418 -8.48682,-1.54586 -11.13156,-2.71483 -5.28759,-2.33711 -7.37162,-2.45827 -39.25388,-2.28223 -17.79083,0.0982 -17.81691,0.10146 -21.43545,2.64381 -1.99262,1.39999 -5.06054,3.42468 -6.8176,4.49929 -1.75707,1.0746 -4.34548,3.02697 -5.75205,4.33858 -1.40657,1.3116 -3.61209,2.92804 -4.90115,3.59209 -5.57353,2.87116 -13.25573,10.79814 -15.86014,16.36549 -4.06181,8.6828 -4.04134,8.5739 -4.23064,22.5 -0.0981,7.21875 -0.64774,14.17969 -1.22136,15.46875 -0.81288,1.82674 -1.0235,-1.17193 -0.95476,-13.59375 z m 21.3294,10.78125 c 0,-0.51563 0.42187,-0.9375 0.9375,-0.9375 0.51562,0 0.9375,0.42187 0.9375,0.9375 0,0.51562 -0.42188,0.9375 -0.9375,0.9375 -0.51563,0 -0.9375,-0.42188 -0.9375,-0.9375 z m 198.8057,-7.73788 c -1.77406,-1.15823 -4.56222,-2.94962 -6.19589,-3.98087 -1.63368,-1.03125 -4.34771,-2.78812 -6.03118,-3.90414 -3.14625,-2.08577 -11.75754,-5.00564 -20.36032,-6.90368 -2.68149,-0.59162 -5.36987,-1.67141 -5.97417,-2.39955 -0.6043,-0.72814 -1.53544,-1.32388 -2.06921,-1.32388 -0.53376,0 -3.11882,-1.65239 -5.74458,-3.67197 -2.62575,-2.01958 -6.52549,-4.36907 -8.66608,-5.22108 -2.1406,-0.85201 -4.09059,-2.30855 -4.33333,-3.23676 -0.36648,-1.40146 -1.279,-1.64253 -5.3808,-1.42157 -4.96427,0.26744 -7.48764,-0.18122 -7.48764,-1.33132 0,-1.95498 13.62042,-0.52526 14.51951,1.52409 0.52227,1.19044 2.36103,2.56303 4.21875,3.14919 1.81115,0.57147 4.84557,2.25483 6.74315,3.74079 5.78779,4.53232 12.08207,7.44648 21.02297,9.73332 9.09922,2.32734 15.13481,4.99366 19.42693,8.58218 1.45752,1.2186 3.22953,2.21563 3.93779,2.21563 0.70825,0 1.6251,0.57565 2.03744,1.27924 0.41234,0.70358 2.1208,1.98004 3.79659,2.83657 1.67578,0.85654 3.04687,1.75744 3.04687,2.00201 0,1.15072 -3.60457,0.22659 -6.5068,-1.6682 z M 24.375,180.05316 c 0,-0.48639 0.882416,-1.5024 1.960925,-2.25782 3.401153,-2.38227 5.074424,-5.35778 3.554322,-6.32052 -0.962658,-0.60968 -0.745771,-0.82481 0.842301,-0.83547 3.961194,-0.0266 3.666234,2.85274 -0.688078,6.71685 -4.036196,3.58182 -5.66947,4.35876 -5.66947,2.69696 z m 25.326856,-7.31879 c -0.0079,-1.16015 0.407519,-2.10937 0.923144,-2.10937 1.174614,0 1.174614,0.99491 0,2.8125 -0.734882,1.13715 -0.911536,1.0026 -0.923144,-0.70313 z m 235.512994,-0.41015 c 0.20409,-0.61231 0.87235,-1.28037 1.48501,-1.48459 0.68507,-0.22836 0.8946,0.20024 0.54422,1.11328 -0.65392,1.70411 -2.5917,2.05868 -2.02923,0.37131 z M 51.011367,167.8125 c 0.289042,-1.28906 0.531291,-2.66016 0.538331,-3.04688 0.007,-0.38671 0.434677,-0.70312 0.950302,-0.70312 1.408017,0 1.12858,2.21852 -0.538331,4.27394 -1.424411,1.75641 -1.457521,1.73814 -0.950302,-0.52394 z M 27.1875,166.83543 c 0,-1.00182 0.159154,-1.23311 4.165837,-6.05418 2.091973,-2.51718 2.340522,-2.60876 2.367037,-0.87219 0.01629,1.06717 -1.025062,2.85735 -2.314124,3.97817 -1.289063,1.12083 -2.34375,2.46254 -2.34375,2.98157 0,0.51903 -0.421875,0.9437 -0.9375,0.9437 -0.515625,0 -0.9375,-0.43968 -0.9375,-0.97707 z m 315,-1.64793 c 0,-0.66503 -1.36915,-1.125 -3.34868,-1.125 -3.80496,0 -11.65132,-4.16371 -11.65132,-6.18283 0,-0.72445 0.84375,-1.31717 1.875,-1.31717 1.03125,0 1.875,0.60889 1.875,1.35309 0,2.22092 3.89947,4.27191 8.12202,4.27191 4.14988,0 5.93452,1.31846 4.1713,3.08168 -0.76609,0.76609 -1.04332,0.74439 -1.04332,-0.0817 z m -286.875,-7.10808 c 0,-1.12295 8.586265,-11.08393 18.120759,-21.022 1.635146,-1.70436 5.715179,-4.38864 9.066741,-5.96506 3.351562,-1.57643 7.627753,-3.66242 9.502645,-4.63554 3.840427,-1.9933 4.559855,-2.13768 4.559855,-0.91514 0,0.46979 -4.113281,2.8446 -9.140625,5.27735 -9.451,4.57338 -24.164483,17.5961 -28.858337,25.54216 -1.872054,3.16913 -3.251038,3.89795 -3.251038,1.71823 z M 333.75,158.4375 c -1.11042,-0.71761 -0.90335,-0.91181 0.98437,-0.92315 1.31485,-0.008 2.88985,-0.51357 3.5,-1.12372 1.41038,-1.41038 2.30331,-0.5683 1.53115,1.44394 -0.65242,1.70016 -3.82554,2.01821 -6.01552,0.60293 z m -5.9375,-4.375 C 326.21736,152.46736 327.26123,150 329.53125,150 c 2.61356,0 3.29221,1.85055 0.70312,1.91728 -1.03795,0.0267 -0.60747,0.51536 1.17188,1.33012 l 2.8125,1.28781 -2.89062,0.0761 c -1.58985,0.0419 -3.17188,-0.20511 -3.51563,-0.54886 z m -6.91945,-10.03986 c 0.1901,-0.57964 1.93741,-1.18735 3.88291,-1.35047 3.25485,-0.2729 3.39877,-0.40151 1.80253,-1.61081 -2.37109,-1.79633 -2.74053,-1.72391 -5.3028,1.03939 -2.64365,2.85106 -9.35301,2.53996 -8.87024,-0.41129 0.19259,-1.17736 -0.37201,-1.46004 -2.43265,-1.21794 -1.75334,0.20599 -2.46529,-0.0377 -2.05405,-0.70312 0.98063,-1.58669 7.98043,-1.27164 8.61722,0.38785 0.76341,1.98939 2.90486,1.74391 4.08903,-0.46875 1.92838,-3.60321 10.00209,-0.66737 9.22739,3.35536 -0.27818,1.44448 -1.214,1.81549 -4.82505,1.91287 -2.94127,0.0793 -4.36122,-0.24116 -4.13429,-0.93309 z m -16.20555,-6.16766 c 0,-0.49226 1.531,-1.18224 3.40223,-1.53328 2.18796,-0.41047 3.56539,-1.26213 3.85935,-2.38623 0.50754,-1.94083 3.05922,-2.42493 3.03657,-0.5761 -0.0264,2.15369 -1.49628,3.54202 -4.73288,4.47026 -4.0361,1.15754 -5.56527,1.1645 -5.56527,0.0253 z m -2.67052,-3.48899 c -1.42153,-1.15109 -1.92301,-2.27 -1.50529,-3.35858 0.7573,-1.9735 2.30081,-2.16234 2.30081,-0.28149 0,1.96237 1.81774,2.78616 5.58762,2.53227 3.97084,-0.26742 2.91821,1.40002 -1.4332,2.2703 -1.98282,0.39657 -3.45013,0.0519 -4.94994,-1.1625 z m 4.1924,-9.80344 c -0.4614,-2.30702 -0.95971,-2.80808 -2.41431,-2.42769 -2.4468,0.63985 -4.95098,-1.26454 -3.88474,-2.95429 0.68647,-1.08792 1.2303,-1.07679 3.49813,0.0715 1.47691,0.74785 4.09057,2.06582 5.80814,2.92881 1.71757,0.86297 3.80585,1.56905 4.64063,1.56905 1.16099,0 1.25929,0.25848 0.4182,1.09957 -0.83381,0.83381 -1.6722,0.83867 -3.46875,0.0201 -1.92822,-0.87847 -2.36918,-0.83169 -2.36918,0.25143 0,2.68068 -1.66369,2.26369 -2.22812,-0.55847 z m 54.25937,-0.35708 c -2.0625,-1.21323 -5.3873,-3.18314 -7.38844,-4.37755 -2.00114,-1.19442 -4.74333,-2.7627 -6.09375,-3.48506 -1.35042,-0.72236 -2.76243,-1.82847 -3.1378,-2.45801 -0.37538,-0.62954 -3.11756,-2.31528 -6.09375,-3.74608 -6.79207,-3.26528 -14.31751,-8.0203 -14.31751,-9.04665 0,-1.492532 2.47382,-0.7616 6.88027,2.03288 2.43916,1.54688 4.67006,2.8125 4.95754,2.8125 0.28749,0 1.59536,0.84375 2.90637,1.875 1.31102,1.03125 3.16696,1.875 4.1243,1.875 0.95735,0 2.27155,0.87422 2.92045,1.94271 0.6489,1.06849 2.44544,2.54807 3.99232,3.28797 1.54687,0.73989 4.5,2.36889 6.5625,3.61999 2.0625,1.25111 5.33203,3.1551 7.26562,4.23109 3.44096,1.91479 4.67222,3.86783 2.34375,3.71767 -0.64453,-0.0415 -2.85937,-1.06823 -4.92187,-2.28146 z M 97.5,124.51646 c 0,-1.1306 4.07273,-2.58417 11.25,-4.01517 3.35156,-0.66823 7.19511,-1.6544 8.5412,-2.19149 1.3461,-0.53709 5.14297,-1.49094 8.4375,-2.11967 7.21156,-1.37625 16.57912,-5.55387 22.36875,-9.9757 5.33859,-4.07738 15.79582,-9.141574 22.52755,-10.909586 2.83594,-0.744825 6.21094,-1.792699 7.5,-2.328609 3.46445,-1.440296 15.11976,-4.851235 16.57686,-4.851235 0.6936,0 1.99364,-0.383244 2.88899,-0.851654 5.13079,-2.684227 28.29294,-5.594317 49.83162,-6.260839 8.38212,-0.259387 14.02066,-0.836906 14.84421,-1.520396 0.94709,-0.786016 1.77601,-0.819489 2.89003,-0.116701 1.14843,0.724505 2.13331,0.611151 3.71956,-0.428102 1.62448,-1.064311 2.42355,-1.147488 3.23437,-0.33667 0.59228,0.592274 2.04717,1.076862 3.23311,1.076862 1.18594,0 2.15625,0.421875 2.15625,0.9375 0,0.515625 0.86056,0.9375 1.91235,0.9375 1.05179,0 3.47757,0.789902 5.39062,1.755337 3.67916,1.856709 13.2516,0.406073 11.88729,-1.801433 -0.70146,-1.134989 0.35338,-4.641404 1.39628,-4.641404 4.17025,0 1.24524,7.064937 -3.27619,7.913162 -4.01528,0.753271 -4.276,2.399338 -0.38002,2.399338 1.67316,0 2.62646,0.390541 2.28842,0.9375 -0.97726,1.581246 -4.0944,1.058752 -10.62412,-1.780814 -7.23167,-3.144829 -38.95558,-4.926947 -50.3173,-2.826619 -2.99935,0.554462 -7.81143,1.116313 -10.69348,1.248559 -7.51669,0.344909 -19.33322,2.293232 -25.8651,4.264667 -3.09375,0.933746 -7.3125,2.140596 -9.375,2.68189 -2.0625,0.541293 -5.85937,1.677087 -8.4375,2.523983 -2.57812,0.8469 -6.58594,2.095884 -8.90625,2.775515 -11.0588,3.239189 -23.84751,9.546449 -25.81657,12.732479 -1.14217,1.84807 -13.92181,7.0942 -20.12093,8.25979 -3.35156,0.63018 -7.99219,1.73208 -10.3125,2.44868 -8.56386,2.64484 -18.75,4.85229 -18.75,4.06333 z m 217.69741,-3.14587 C 314.53255,120.61676 313.11632,120 312.05023,120 c -1.31789,0 -1.7695,-0.43996 -1.41089,-1.37449 0.41137,-1.07202 -0.0486,-1.25929 -2.08999,-0.851 -2.55714,0.51142 -5.73685,-1.4099 -5.73685,-3.46648 0,-1.17138 0.6928,-1.0932 5.625,0.6348 2.32031,0.81292 6.64453,1.48178 9.60937,1.48635 2.96485,0.005 5.39063,0.38801 5.39063,0.85207 0,0.46406 -2.21484,0.86064 -4.92188,0.88129 -4.89681,0.0373 -4.90875,0.0446 -2.34375,1.43618 2.66697,1.44685 3.46067,3.24064 1.40625,3.17812 -0.64453,-0.0196 -1.71585,-0.65243 -2.38071,-1.40625 z m -3.71304,-7.67378 c -4.59676,-0.57045 -4.02421,-3.07181 0.70313,-3.07181 2.0625,0 3.75,0.42188 3.75,0.9375 0,0.51563 0.73828,0.96715 1.64062,1.0034 1.40292,0.0563 1.36896,0.18263 -0.23437,0.8716 -1.03125,0.44315 -2.08594,0.76785 -2.34375,0.72158 -0.25781,-0.0463 -1.83984,-0.2543 -3.51563,-0.46227 z m 8.68133,-0.2746 c 0.32387,-0.52404 0.98158,-0.71008 1.46158,-0.41342 1.30035,0.80365 1.05789,1.36621 -0.58886,1.36621 -0.80387,0 -1.19659,-0.42876 -0.87272,-0.95279 z m -10.25498,-5.20793 c -1.86267,-1.86265 -1.84995,-1.95958 0.33164,-2.53007 1.26614,-0.33111 1.65594,-0.0839 1.30594,0.82815 -0.34675,0.90362 0.24647,1.30014 1.94515,1.30014 1.34423,0 2.44405,0.42187 2.44405,0.9375 0,1.48191 -4.40031,1.09076 -6.02678,-0.53572 z m 3.21428,-2.17648 c 0,-1.05378 2.43855,-2.03675 3.18959,-1.2857 1.12853,1.12852 0.51278,2.1229 -1.31459,2.1229 -1.03125,0 -1.875,-0.37674 -1.875,-0.8372 z m -11.6531,-1.86907 c -1.17914,-1.9079 2.26857,-3.23624 5.68119,-2.18888 1.83058,0.56182 3.92313,0.79324 4.65011,0.51427 0.72699,-0.27897 1.3218,-0.086 1.3218,0.42894 0,1.46045 -4.29783,2.17869 -6.96619,1.16418 -1.56407,-0.59467 -2.40881,-0.5952 -2.40881,-0.002 0,1.14233 -1.58765,1.20019 -2.2781,0.0831 z m 7.9031,-3.85623 c 0,-0.515625 0.44677,-0.9375 0.99283,-0.9375 0.54606,0 0.73209,0.421875 0.41342,0.9375 -0.31867,0.51563 -0.76545,0.9375 -0.99283,0.9375 -0.22738,0 -0.41342,-0.42187 -0.41342,-0.9375 z m 8.9232,-1.523231 c -0.88929,-0.889285 -2.38186,-1.673241 -3.31683,-1.742128 -0.93497,-0.06891 -2.31664,-0.637041 -3.07038,-1.262588 -0.9929,-0.824044 -2.06429,-0.873553 -3.88923,-0.179709 -4.81461,1.830515 -4.79684,-0.281072 0.0193,-2.293385 3.46956,-1.449675 9.77145,-0.06403 9.77145,2.148513 0,0.477487 1.30188,1.128525 2.89307,1.446769 1.74137,0.348272 2.73676,1.048031 2.50043,1.757812 -0.61299,1.841037 -3.12758,1.904937 -4.9078,0.124716 z m -19.2357,-4.033725 c 0,-0.4782 1.11158,-1.743826 2.47018,-2.8125 2.59009,-2.037366 5.96732,-2.606457 5.96732,-1.005544 0,0.515625 -0.82891,0.9375 -1.84202,0.9375 -1.01311,0 -2.29357,0.84375 -2.84548,1.875 -1.01046,1.88805 -3.75,2.622647 -3.75,1.005544 z M 298.75,90.3125 c -1.17935,-1.179354 -0.62491,-4.0625 0.78125,-4.0625 0.77344,0 1.40625,0.387371 1.40625,0.860825 0,0.473452 0.25607,1.52814 0.56905,2.34375 0.57186,1.490248 -1.48428,2.130187 -2.75655,0.857925 z M 287.98461,75.234375 c 0.26372,-2.291948 0.7129,-2.600909 4.04664,-2.783382 10.62436,-0.581526 15.35297,-3.179063 6.27525,-3.447143 -4.28587,-0.126569 -4.98104,-2.208064 -1.21251,-3.630526 C 298.6923,64.770032 300,63.929406 300,63.505265 c 0,-1.487099 3.61673,-4.635792 4.6157,-4.018392 1.54801,0.956723 1.20593,2.740568 -0.8657,4.514351 -2.39538,2.050986 -2.37388,3.149632 0.0742,3.78981 3.63351,0.950187 1.96768,4.754037 -2.41792,5.521169 -7.96955,1.39404 -11.39232,2.397453 -8.90625,2.610935 L 294.84375,76.1244 292.5,76.875 c -4.17399,1.336748 -4.83053,1.098202 -4.51539,-1.640625 z"
     id="path4246"
     inkscape:connector-curvature="0" />
</svg>
