<?xml version="1.0" standalone="no"?><!-- Generator: Gravit.io --><svg xmlns="http://www.w3.org/2000/svg" xmlns:xlink="http://www.w3.org/1999/xlink" style="isolation:isolate" viewBox="0 0 900 900" width="900" height="900"><defs><clipPath id="_clipPath_5GqMnEN1PqVD0Nm2Iz12eHB0xUgF31HU"><rect width="900" height="900"/></clipPath></defs><g clip-path="url(#_clipPath_5GqMnEN1PqVD0Nm2Iz12eHB0xUgF31HU)"><g id="Group"><path d=" M 123.5 354.09 C 123.5 173.89 269.8 27.59 450 27.59 C 630.2 27.59 776.5 173.89 776.5 354.09 C 776.5 534.291 630.2 680.59 450 680.59 C 269.8 680.59 123.5 534.291 123.5 354.09 Z " fill="rgb(235,235,235)"/><path d="M 272.554 420.517 L 272.554 420.517 C 309.948 420.517 340.306 450.876 340.306 488.269 L 340.306 799.133 C 340.306 836.527 309.948 866.885 272.554 866.885 L 272.554 866.885 C 235.161 866.885 204.802 836.527 204.802 799.133 L 204.802 488.269 C 204.802 450.876 235.161 420.517 272.554 420.517 Z" style="stroke:none;fill:#EBEBEB;stroke-miterlimit:10;"/><path d="M 627.446 396.21 L 627.446 396.21 C 664.839 396.21 695.198 426.569 695.198 463.962 L 695.198 804.658 C 695.198 842.051 664.839 872.41 627.446 872.41 L 627.446 872.41 C 590.052 872.41 559.694 842.051 559.694 804.658 L 559.694 463.962 C 559.694 426.569 590.052 396.21 627.446 396.21 Z" style="stroke:none;fill:#EBEBEB;stroke-miterlimit:10;"/><path d="M 450 420.517 L 450 420.517 C 487.393 420.517 517.752 450.876 517.752 488.269 L 517.752 799.133 C 517.752 836.527 487.393 866.885 450 866.885 L 450 866.885 C 412.607 866.885 382.248 836.527 382.248 799.133 L 382.248 488.269 C 382.248 450.876 412.607 420.517 450 420.517 Z" style="stroke:none;fill:#EBEBEB;stroke-miterlimit:10;"/><rect x="204.802" y="561.396" width="490.395" height="119.194" transform="matrix(1,0,0,1,0,0)" fill="rgb(235,235,235)"/><path d=" M 269.669 306.338 C 269.669 279.983 291.066 258.586 317.421 258.586 C 343.776 258.586 365.173 279.983 365.173 306.338 C 365.173 332.693 343.776 354.09 317.421 354.09 C 291.066 354.09 269.669 332.693 269.669 306.338 Z " fill="rgb(33,78,93)"/><path d=" M 534.827 306.338 C 534.827 279.983 556.224 258.586 582.579 258.586 C 608.934 258.586 630.331 279.983 630.331 306.338 C 630.331 332.693 608.934 354.09 582.579 354.09 C 556.224 354.09 534.827 332.693 534.827 306.338 Z " fill="rgb(33,78,93)"/><path d="M 451.936 375.562 L 451.936 375.562 C 475.796 375.562 495.168 394.934 495.168 418.794 L 495.168 502.678 C 495.168 526.538 475.796 545.91 451.936 545.91 L 451.936 545.91 C 428.075 545.91 408.704 526.538 408.704 502.678 L 408.704 418.794 C 408.704 394.934 428.075 375.562 451.936 375.562 Z" style="stroke:none;fill:#214E5D;stroke-miterlimit:10;"/></g></g></svg>