<?xml version="1.0" encoding="UTF-8" standalone="no"?>
<!-- Created with Inkscape (http://www.inkscape.org/) -->

<svg
   xmlns:dc="http://purl.org/dc/elements/1.1/"
   xmlns:cc="http://creativecommons.org/ns#"
   xmlns:rdf="http://www.w3.org/1999/02/22-rdf-syntax-ns#"
   xmlns:svg="http://www.w3.org/2000/svg"
   xmlns="http://www.w3.org/2000/svg"
   xmlns:sodipodi="http://sodipodi.sourceforge.net/DTD/sodipodi-0.dtd"
   xmlns:inkscape="http://www.inkscape.org/namespaces/inkscape"
   width="300"
   height="300"
   id="svg2"
   version="1.1"
   inkscape:version="0.48.4 r9939"
   sodipodi:docname="El niño encantador.svg"
   inkscape:export-filename="/home/otero/Dibuvector/elniñoencantador.png"
   inkscape:export-xdpi="72"
   inkscape:export-ydpi="72">
  <title
     id="title3022">smiling face of a child 2</title>
  <defs
     id="defs4" />
  <sodipodi:namedview
     id="base"
     pagecolor="#ffffff"
     bordercolor="#666666"
     borderopacity="1.0"
     inkscape:pageopacity="0.0"
     inkscape:pageshadow="2"
     inkscape:zoom="0.98994949"
     inkscape:cx="183.1966"
     inkscape:cy="157.8414"
     inkscape:document-units="px"
     inkscape:current-layer="layer2"
     showgrid="false"
     inkscape:window-width="1024"
     inkscape:window-height="552"
     inkscape:window-x="0"
     inkscape:window-y="0"
     inkscape:window-maximized="1"
     borderlayer="true"
     inkscape:showpageshadow="false" />
  <metadata
     id="metadata7">
    <rdf:RDF>
      <cc:Work
         rdf:about="">
        <dc:format>image/svg+xml</dc:format>
        <dc:type
           rdf:resource="http://purl.org/dc/dcmitype/StillImage" />
        <dc:title>smiling face of a child 2</dc:title>
        <dc:creator>
          <cc:Agent>
            <dc:title>www.cangrejovector.blogspot.com</dc:title>
          </cc:Agent>
        </dc:creator>
        <cc:license
           rdf:resource="" />
        <dc:date>08-11-2013</dc:date>
      </cc:Work>
    </rdf:RDF>
  </metadata>
  <g
     inkscape:groupmode="layer"
     id="layer2"
     inkscape:label="Capa"
     transform="translate(0,-200)">
    <g
       id="g3033"
       transform="translate(1.4285714,-17.142858)">
      <path
         id="path4138"
         d="m 206.56657,471.7069 c -0.74443,-3.49709 -1.58099,-7.03898 -2.54479,-10.50824 -1.0283,-3.70145 -2.17823,-7.32275 -3.44425,-10.74957 -1.26602,-3.42681 -2.63295,-6.64161 -4.12432,-9.54297 -0.74569,-1.45068 -1.52572,-2.8301 -2.32542,-4.10239 -0.79969,-1.27229 -1.62681,-2.44751 -2.47898,-3.51006 -1.53535,-1.9775 -3.07254,-3.66015 -4.54114,-5.08959 -1.4686,-1.42943 -2.86861,-2.60566 -4.10238,-3.532 -1.23378,-0.92634 -2.30818,-1.61307 -3.13712,-2.0841 -0.30141,-0.17126 -0.53183,-0.27911 -0.76783,-0.39488 -0.22882,0.47308 -0.58972,0.91715 -1.00914,1.31628 -0.41942,0.39912 -0.90555,0.75292 -1.40402,1.00914 -0.49848,0.25622 -1.00382,0.41635 -1.46984,0.46069 -0.46603,0.0444 -0.88454,-0.0267 -1.20659,-0.26325 1.37993,-1.11456 2.23952,-2.07288 2.74224,-2.85193 0.50272,-0.77904 0.64855,-1.3788 0.61426,-1.7989 -0.0343,-0.42011 -0.24875,-0.82428 -0.6362,-1.20658 -0.38745,-0.38231 -0.94788,-0.74274 -1.66728,-1.07496 -0.99849,-0.46111 -2.1686,-0.80765 -3.29068,-1.05302 -1.12208,-0.24537 -2.19614,-0.38957 -2.96161,-0.48263 0.061,0.74988 0.16771,1.46127 0.351,2.10603 0.18329,0.64477 0.44316,1.2229 0.76783,1.68922 0.52148,0.33546 0.94388,0.45877 1.36015,0.52651 0.41627,0.0677 0.82643,0.0799 1.36015,0.1755 -0.90215,0.73444 -1.81961,1.36949 -2.74224,1.93054 -0.92263,0.56104 -1.85391,1.04323 -2.78611,1.4479 -0.93219,0.40466 -1.85528,0.74384 -2.78611,1.00914 -0.93083,0.2653 -1.86757,0.47132 -2.78611,0.61426 -1.83708,0.28588 -3.63051,0.34281 -5.35284,0.24132 -1.72234,-0.1015 -3.37197,-0.37116 -4.89215,-0.72395 -1.52018,-0.3528 -2.9323,-0.8052 -4.19014,-1.2724 -1.25784,-0.4672 -2.35171,-0.95749 -3.26874,-1.40403 -1.83407,-0.89307 -2.91774,-1.60146 -2.91774,-1.60146 0.16216,-0.19891 0.79706,-0.17548 1.40402,-0.24132 0.30348,-0.0329 0.61231,-0.0785 0.83364,-0.19744 0.22134,-0.1189 0.36264,-0.30792 0.37295,-0.59232 0.19243,-1.15485 0.29737,-2.27264 0.30713,-3.33456 -0.70451,0.17294 -1.6658,0.4277 -2.65449,0.78976 -0.98868,0.36207 -2.00477,0.83145 -2.85192,1.40403 -0.62019,0.41917 -1.1033,0.8546 -1.42596,1.31627 -0.32267,0.46167 -0.48488,0.9496 -0.4607,1.49178 0.0242,0.54218 0.26598,1.24265 0.85558,2.0841 0.5896,0.84144 1.52701,1.82387 2.96161,2.93967 -0.56203,0.0892 -1.07987,0.10252 -1.55759,0.0219 -0.47771,-0.0806 -0.9165,-0.25086 -1.36015,-0.52651 -0.44364,-0.27566 -0.87837,-0.6667 -1.33821,-1.16271 -0.45983,-0.49601 -0.94355,-1.10114 -1.46983,-1.84278 -0.81178,0.27658 -1.80717,0.76951 -2.91774,1.46983 -1.11058,0.70033 -2.33634,1.60807 -3.59781,2.69836 -1.49171,1.28929 -3.06388,2.82225 -4.6289,4.56308 -1.56501,1.74084 -3.12287,3.68956 -4.60695,5.7916 -1.37932,1.99296 -2.68498,4.16278 -3.90495,6.47168 -1.21996,2.3089 -2.35308,4.75044 -3.37843,7.30531 -1.02534,2.55488 -1.94678,5.23257 -2.74223,7.96346 -0.74127,2.54486 -1.35268,5.14892 -1.86472,7.78794 32.65704,7.10409 63.37474,10.10277 99.66379,4.51921 z"
         style="fill:#ffe82e;stroke:none"
         inkscape:connector-curvature="0" />
      <path
         id="path4146"
         d="m 193.0309,286.41955 c 0.21885,1.04197 0.39726,2.05718 0.52651,3.04937 0.12924,0.99219 0.20934,1.96135 0.19744,2.87386 -0.0177,1.35604 -0.1866,2.63733 -0.54845,3.81719 -0.18092,0.58994 -0.41845,1.15852 -0.70201,1.68922 -0.28356,0.5307 -0.61187,1.03043 -1.00914,1.49178 l -0.81171,0.94333 -0.83363,-0.9214 c -0.59791,-0.65576 -1.58862,-1.48994 -2.85193,-2.32541 -1.26331,-0.83547 -2.7992,-1.67224 -4.47533,-2.36929 -1.58784,-0.66035 -3.30568,-1.18715 -5.06765,-1.49178 -0.88098,-0.15231 -1.76245,-0.26012 -2.65448,-0.28519 -0.89203,-0.0251 -1.795,0.0258 -2.67642,0.15356 0.0663,1.07438 0.0105,2.3302 -0.24132,3.79526 -0.25185,1.46506 -0.69977,3.13934 -1.38209,5.06765 l -0.54844,1.57953 -1.22852,-1.14077 c -1.64959,-1.51584 -3.06829,-2.86035 -4.38758,-3.9927 -1.31929,-1.13234 -2.53919,-2.05253 -3.79525,-2.69836 -0.55288,-0.28427 -1.12468,-0.51581 -1.71116,-0.70201 -0.58648,-0.1862 -1.18999,-0.33769 -1.84278,-0.41682 -0.65279,-0.0791 -1.35424,-0.10276 -2.10604,-0.0658 -0.7518,0.0369 -1.55159,0.1451 -2.4351,0.30713 0.22554,0.46888 0.45586,0.96041 0.65813,1.49178 0.3697,0.97119 0.69825,2.04916 0.92139,3.22487 0.22315,1.17571 0.34341,2.45998 0.32907,3.81719 -0.0143,1.35721 -0.16182,2.78412 -0.50457,4.29982 -0.34274,1.5157 -0.88326,3.10935 -1.64534,4.76052 l -0.57038,1.25043 -1.0969,-0.83364 c -1.25334,-0.9455 -2.50111,-1.86468 -3.86107,-2.7203 -1.35995,-0.85562 -2.84225,-1.65386 -4.5192,-2.34735 -1.67694,-0.6935 -3.56537,-1.27395 -5.76966,-1.7331 -2.20429,-0.45914 -4.71432,-0.79078 -7.65632,-0.94332 -1.54099,-0.0799 -3.08909,-0.24925 -4.60696,-0.50458 -1.51786,-0.25532 -3.01527,-0.58784 -4.47533,-0.9872 -1.46005,-0.39936 -2.86644,-0.8701 -4.23401,-1.38209 -1.36756,-0.51199 -2.68649,-1.07405 -3.92688,-1.66728 -1.28822,-0.6161 -2.50584,-1.26728 -3.61975,-1.93053 -1.11391,-0.66325 -2.12411,-1.33858 -3.02743,-2.04022 -0.18193,0.12186 -0.42577,0.30347 -0.70201,0.59232 -0.27624,0.28885 -0.58488,0.68493 -0.87751,1.20658 -0.21774,0.38814 -0.42559,0.84529 -0.59233,1.38209 -0.16673,0.5368 -0.29045,1.15617 -0.351,1.86472 -0.0606,0.70856 -0.0569,1.50976 0.0439,2.41317 0.10081,0.9034 0.2969,1.90608 0.61426,3.02742 l 0.68008,2.34736 c 0.88412,-0.97446 1.86317,-1.72464 2.8958,-2.2596 1.03263,-0.53497 2.11885,-0.8547 3.22487,-0.98721 1.28006,-0.2039 2.66402,-0.19599 4.05851,0.0219 1.39448,0.21793 2.80887,0.65343 4.10238,1.29434 0.64676,0.32045 1.26166,0.69242 1.84278,1.11883 0.58113,0.42642 1.1129,0.89344 1.60147,1.42596 0.48856,0.53253 0.92524,1.11625 1.29433,1.75503 0.36909,0.63879 0.67677,1.33892 0.89946,2.0841 -0.96529,-0.21326 -1.88715,-0.35922 -2.78612,-0.43875 -0.89896,-0.0795 -1.77656,-0.0822 -2.6106,-0.0439 -1.66808,0.0766 -3.21219,0.35937 -4.6289,0.8117 -1.41671,0.45234 -2.70652,1.05423 -3.883,1.75503 -1.17648,0.7008 -2.2336,1.50347 -3.18099,2.32542 -0.9474,0.82195 -1.77278,1.66879 -2.47899,2.47898 -0.7062,0.81019 -1.28712,1.59032 -1.75503,2.2596 -0.93581,1.33857 -1.40402,2.2596 -1.40402,2.2596 -0.44389,-0.74052 -0.77449,-1.50673 -1.009143,-2.28154 -0.234654,-0.7748 -0.380434,-1.56443 -0.438757,-2.34735 -0.05834,-0.78292 -0.01931,-1.56056 0.06578,-2.32542 0.0851,-0.76485 0.221211,-1.51705 0.41682,-2.23766 0.39122,-1.44124 0.96562,-2.75381 1.60146,-3.86107 0.63585,-1.10725 1.33525,-2.00283 1.95247,-2.56673 l -2.10603,-1.38209 c -1.559099,-1.01818 -2.890844,-2.12805 -4.014632,-3.31262 -1.123788,-1.18457 -2.039605,-2.44383 -2.786111,-3.75137 -0.146496,1.18496 -0.115755,1.36266 -0.394882,2.98355 -0.320139,1.85902 -0.726098,3.85805 -1.250459,5.72578 -0.262181,0.93388 -0.545407,1.8425 -0.877515,2.67643 -0.332108,0.83392 -0.70421,1.59369 -1.118832,2.2596 -0.657203,1.05551 -1.195745,2.37518 -1.601466,3.81719 -0.405721,1.44201 -0.678614,3.00636 -0.833639,4.5192 -0.155026,1.51285 -0.177357,2.98983 -0.10969,4.25595 0.06767,1.26612 0.225339,2.32137 0.438758,2.96162 -0.584973,0.0167 -1.119148,-0.0362 -1.623403,-0.19745 -0.504256,-0.16121 -0.978633,-0.43069 -1.404025,-0.87751 0.132098,1.13383 0.264132,2.36564 0.372944,3.66363 0.232212,2.77 0.391906,5.81316 0.307131,8.77515 -0.0424,1.48099 -0.146496,2.95087 -0.329069,4.3437 -0.182572,1.39283 -0.448326,2.71298 -0.811701,3.92688 -0.707867,6.10534 -0.987205,9.17003 -0.987205,9.17003 l -2.17185,0 c 0,0 -0.12036,-1.30407 -0.153565,-1.66727 -0.07187,0.38854 -0.192752,0.77664 -0.394882,1.14077 -0.233356,0.42038 -0.534119,0.80779 -0.921391,1.18464 -0.387272,0.37685 -0.861046,0.74316 -1.404025,1.09689 l -0.0219,0 0,0.0219 c -0.519089,0.32969 -1.067213,0.52413 -1.601466,0.59232 -0.534252,0.0682 -1.054647,0.0102 -1.513714,-0.19744 -0.459066,-0.20759 -0.825103,-0.53064 -1.096894,-0.92139 -0.271791,-0.39075 -0.449337,-0.84919 -0.526509,-1.31627 -0.07362,-0.4456 -0.04493,-0.90237 0.06578,-1.36015 0.110728,-0.45779 0.302076,-0.91549 0.592323,-1.33821 0.290246,-0.42273 0.675848,-0.82229 1.140769,-1.16271 0.464922,-0.34042 1.010582,-0.62276 1.645341,-0.83364 -0.504458,-0.43985 -0.984193,-0.86057 -1.469838,-1.22852 -0.485645,-0.36796 -0.96971,-0.68044 -1.513713,-0.92139 -0.544004,-0.24096 -1.141304,-0.40184 -1.820845,-0.4607 -0.67954,-0.0589 -1.455102,-0.0248 -2.347353,0.15357 0.154176,-0.3794 0.39828,-0.6921 0.702012,-0.96527 0.303733,-0.27317 0.677498,-0.50332 1.096894,-0.65814 0.419397,-0.15482 0.880934,-0.2389 1.382087,-0.26325 0.501152,-0.0244 1.030519,0.0134 1.579527,0.13163 0.549009,0.11824 1.126253,0.31937 1.689217,0.59232 0.562965,0.27295 1.124259,0.61323 1.667279,1.05302 0.543021,0.43978 1.068414,0.96078 1.55759,1.57952 0.489176,0.61874 0.936786,1.3401 1.338211,2.14992 -0.108005,-1.20044 -0.131087,-1.50911 -0.263255,-3.04937 -0.120409,-1.40323 -0.229944,-2.71881 -0.329068,-3.90494 -0.279935,-0.45781 -0.803334,-1.25599 -1.513714,-2.14991 -0.71038,-0.89393 -1.607755,-1.88359 -2.676422,-2.76418 -0.682959,-0.56276 -1.413227,-1.05793 -2.193788,-1.4479 -0.78056,-0.38997 -1.61142,-0.67474 -2.457042,-0.78976 -0.845623,-0.11503 -1.720667,-0.0796 -2.654484,0.1755 -0.933817,0.2551 -1.926413,0.72986 -2.983552,1.51372 -0.514575,0.38155 -0.983779,0.82026 -1.404024,1.29433 -0.420246,0.47407 -0.79557,0.98438 -1.118832,1.53565 -0.646519,1.10253 -1.09554,2.34425 -1.338211,3.66363 -0.242672,1.31938 -0.270155,2.71067 -0.08775,4.12432 0.182404,1.41365 0.577883,2.84867 1.206584,4.23401 0.605928,1.33515 1.425492,2.62779 2.457043,3.81719 0.515775,0.59471 1.084257,1.15294 1.711154,1.68922 0.626897,0.53628 1.29906,1.0505 2.040223,1.51371 0.741164,0.46321 1.554599,0.87498 2.413167,1.25046 0.858568,0.37549 1.763111,0.7141 2.742235,0.98721 0.979125,0.2731 2.034298,0.48013 3.137118,0.6362 1.102819,0.15606 2.258464,0.26081 3.488123,0.28519 -0.177609,-2.0517 -0.267327,-4.23308 -0.219379,-6.55943 l 2.193788,0.0439 c -0.06543,3.17425 0.09074,6.0547 0.438758,8.66546 0.348015,2.61076 0.878954,4.96062 1.579527,7.08594 0.700573,2.12531 1.574515,4.00789 2.566732,5.72578 0.992217,1.7179 2.111604,3.26232 3.334558,4.65083 1.222955,1.38851 2.560358,2.63881 3.970757,3.77332 1.410399,1.13452 2.889573,2.14762 4.431455,3.09324 1.54188,0.94563 3.14312,1.81069 4.76052,2.63255 1.6174,0.82185 3.25517,1.60611 4.89215,2.36929 1.5888,0.74072 3.50184,1.47936 5.70385,2.19379 2.20201,0.71442 4.69424,1.40707 7.415,2.04022 2.72076,0.63315 5.67397,1.21426 8.81903,1.71115 3.14506,0.4969 6.48489,0.90093 9.9598,1.20659 3.47491,0.30565 7.08313,0.51094 10.79344,0.57038 3.71031,0.0595 7.51256,-0.0215 11.36382,-0.26325 3.85125,-0.24175 7.75127,-0.65255 11.64901,-1.25046 3.89775,-0.59791 7.79923,-1.38216 11.64902,-2.39123 1.89661,-0.49712 3.66555,-1.09108 5.30897,-1.77697 1.64341,-0.68589 3.15428,-1.4575 4.56307,-2.30348 1.4088,-0.84598 2.7122,-1.76484 3.90495,-2.74223 1.19274,-0.97739 2.27347,-2.01311 3.26874,-3.09324 0.99527,-1.08013 1.90394,-2.20231 2.7203,-3.3565 0.81636,-1.15419 1.5597,-2.35436 2.21573,-3.55394 0.65602,-1.19957 1.21883,-2.40347 1.73309,-3.61975 0.51426,-1.21627 0.96908,-2.43738 1.36015,-3.64168 0.78212,-2.40862 1.33416,-4.74561 1.71115,-6.91044 0.377,-2.16483 0.56848,-4.15335 0.68008,-5.83547 0.22319,-3.36426 0.0658,-5.52835 0.0658,-5.52835 0.41192,0.26223 0.86132,1.03514 1.25046,2.01829 0.38914,0.98314 0.71801,2.17652 0.89946,3.2468 0.19657,0.18268 0.55853,0.49416 1.09689,0.83364 0.53836,0.33948 1.24941,0.69656 2.12798,0.98721 0.87856,0.29064 1.91991,0.51225 3.13711,0.54844 1.2172,0.0362 2.61394,-0.10262 4.1682,-0.52651 1.51266,-0.57993 2.8605,-1.32735 4.05851,-2.21572 1.19801,-0.88837 2.25585,-1.91449 3.13712,-3.02743 0.88126,-1.11293 1.5875,-2.32223 2.14991,-3.57587 0.56241,-1.25365 0.96513,-2.55059 1.20658,-3.86107 0.24145,-1.31048 0.32294,-2.64343 0.24132,-3.92688 -0.0816,-1.28346 -0.31716,-2.513 -0.72395,-3.68557 -0.4068,-1.17256 -0.97708,-2.269 -1.71116,-3.2468 -0.73407,-0.97781 -1.6349,-1.84562 -2.69836,-2.5448 -1.23266,-0.52048 -2.33509,-0.8302 -3.31262,-0.96526 -0.97753,-0.13507 -1.82036,-0.10124 -2.58867,0.0658 -0.7683,0.16706 -1.45718,0.46971 -2.06216,0.85558 -0.60498,0.38587 -1.13584,0.86069 -1.6234,1.38209 -0.49075,0.5248 -0.91994,1.11299 -1.29434,1.71115 -0.37439,0.59817 -0.69401,1.2063 -0.96526,1.77697 -0.53346,1.12227 -0.8413,2.03579 -1.11883,2.65449 -0.005,0.0105 -0.017,0.0335 -0.0219,0.0439 -0.014,0.0349 -0.26025,0.61008 -0.76782,1.4479 -0.50758,0.83782 -1.27649,1.93826 -2.36929,2.98355 l -1.36015,1.31628 -0.4607,-1.84279 c -0.15462,-0.61848 -0.3922,-2.01292 -0.68007,-4.19013 -0.28788,-2.17721 -0.59914,-5.04459 -0.83364,-8.20477 -0.2345,-3.16018 -0.39821,-6.62897 -0.35101,-10.04755 0.0236,-1.70929 0.10167,-3.40336 0.24132,-5.04571 0.13964,-1.64235 0.3501,-3.22893 0.6362,-4.71665 0.26795,-1.39339 0.42196,-2.66045 0.48263,-3.81719 0.0607,-1.15673 0.0291,-2.1987 -0.0658,-3.13711 -0.0948,-0.93842 -0.26211,-1.78443 -0.46069,-2.52286 -0.19859,-0.73843 -0.42952,-1.37373 -0.68008,-1.93053 -0.39765,-0.88366 -0.82614,-1.52697 -1.18464,-1.99635 -0.41435,0.76384 -1.04199,1.54884 -1.95248,2.2596 -0.45524,0.35538 -0.97563,0.70978 -1.57952,1.00914 -0.60389,0.29937 -1.29321,0.55298 -2.06216,0.76783 l -1.66728,0.46069 0.30713,-1.71115 c 0.24215,-1.38687 0.49292,-2.93202 0.48263,-4.67277 -0.005,-0.87037 -0.0695,-1.79337 -0.24132,-2.76417 -0.17185,-0.9708 -0.44794,-1.9921 -0.85557,-3.07131 -0.36426,-0.96433 -0.85791,-1.98743 -1.49178,-3.04936 -0.63387,-1.06194 -1.40022,-2.15776 -2.34735,-3.31262 -0.94714,-1.15486 -2.07438,-2.35471 -3.37844,-3.59781 -1.30405,-1.24311 -2.79264,-2.53442 -4.49726,-3.86107 z M 79.239107,356.31364 c -0.113165,0.006 -0.243086,0.0285 -0.394882,0.0658 -0.496421,0.1333 -0.879179,0.31059 -1.184646,0.50457 -0.305466,0.19398 -0.525674,0.39394 -0.680074,0.61427 -0.308794,0.44065 -0.363313,0.91038 -0.307131,1.25045 0.05616,0.34008 0.21907,0.52276 0.372944,0.59233 0.153875,0.0696 0.429372,0.1189 1.031081,-0.26326 0.862955,-0.56805 1.354532,-1.1084 1.579527,-1.51371 0.116506,-0.38595 0.211889,-0.7502 0.131628,-0.98721 -0.04015,-0.1185 -0.112034,-0.20456 -0.263255,-0.24131 -0.07561,-0.0184 -0.172028,-0.0282 -0.285192,-0.0219 z m 87.992843,52.78255 c -3.82185,0.33333 -7.6135,0.51446 -11.31995,0.54844 -3.70645,0.034 -7.32771,-0.0792 -10.83731,-0.30713 0.3057,1.10155 0.68216,2.76861 0.85558,4.78246 0.0867,1.00693 0.11266,2.0932 0.0658,3.24681 -0.0468,1.15361 -0.16942,2.37373 -0.41682,3.61975 0.82004,0.37796 1.76383,0.76934 2.80804,1.14077 1.04422,0.37143 2.18885,0.72288 3.42231,1.00914 1.18888,0.27591 2.44865,0.49632 3.75138,0.61426 1.30273,0.11795 2.65823,0.13447 4.03657,0.0219 1.37834,-0.11254 2.77445,-0.3523 4.19014,-0.76783 1.41569,-0.41553 2.84115,-1.00787 4.25595,-1.79891 -0.3877,-0.55101 -0.67699,-1.15723 -0.89946,-1.7989 -0.22246,-0.64168 -0.38843,-1.32827 -0.48263,-2.01829 -0.18839,-1.38003 -0.14688,-2.80493 -0.0439,-4.12432 0.12781,-1.63711 0.38445,-3.11445 0.61426,-4.1682 z"
         style="fill:#fccb8d;stroke:none"
         inkscape:connector-curvature="0" />
      <path
         id="path4166"
         d="m 176.77493,318.07592 c -0.60978,-0.002 -1.19224,0.0498 -1.75503,0.13162 -1.12968,0.16419 -2.17597,0.49534 -3.13712,0.96527 -0.96115,0.46993 -1.82847,1.08718 -2.61061,1.84278 -0.78213,0.75561 -1.49147,1.63326 -2.0841,2.65449 -0.59262,1.02122 -1.07721,2.17747 -1.46983,3.44424 -0.33668,1.12011 -0.57545,2.23264 -0.74589,3.33456 -0.17044,1.10192 -0.27148,2.18795 -0.30713,3.24681 -0.0713,2.11771 0.0937,4.12697 0.37294,5.92323 0.27922,1.79626 0.67484,3.37498 1.05302,4.65083 0.37818,1.27585 0.73967,2.25156 0.96527,2.80805 0.87817,-0.0618 1.93323,-0.093 3.13711,-0.0439 1.23769,0.0505 2.61831,0.18779 4.10239,0.4607 1.48407,0.2729 3.06248,0.67172 4.6947,1.27239 1.63223,0.60067 3.31971,1.40128 5.00184,2.43511 0.84107,0.51691 1.68774,1.08812 2.52286,1.73309 0.83512,0.64497 1.66208,1.36372 2.47898,2.14991 0.6894,-0.7576 1.76125,-2.00473 2.91774,-3.61975 0.57824,-0.80751 1.17641,-1.70271 1.75503,-2.67642 0.57861,-0.97371 1.14395,-2.02931 1.64534,-3.13712 0.67579,-1.49315 1.23356,-3.08938 1.60146,-4.73858 0.18396,-0.8246 0.31926,-1.65399 0.39489,-2.50092 0.0756,-0.84693 0.0975,-1.70859 0.0439,-2.56673 -0.0532,-0.85213 -0.17329,-1.70778 -0.37294,-2.56673 -0.19966,-0.85895 -0.48241,-1.72792 -0.85558,-2.58867 -0.37317,-0.86075 -0.83026,-1.7092 -1.40402,-2.56673 -0.57377,-0.85754 -1.26071,-1.71743 -2.06217,-2.56674 -0.0256,-0.0219 -0.0402,-0.0439 -0.0658,-0.0658 -1.53778,-1.31206 -3.0376,-2.43844 -4.47533,-3.37844 -1.43773,-0.94 -2.82033,-1.68361 -4.14626,-2.28154 -1.32593,-0.59792 -2.59286,-1.05237 -3.79526,-1.33821 -1.20239,-0.28584 -2.33326,-0.41308 -3.40037,-0.41682 z"
         style="fill:#ffffff;stroke:none"
         inkscape:connector-curvature="0" />
      <path
         id="path4174"
         d="m 121.5134,321.91505 c -0.94484,0.004 -1.93076,0.0969 -2.96161,0.28519 -1.03085,0.18829 -2.09805,0.47737 -3.20293,0.89945 -1.10488,0.42208 -2.25538,0.96171 -3.42231,1.66728 -1.16693,0.70557 -2.35887,1.57186 -3.57587,2.61061 -0.72606,0.61971 -1.34436,1.26152 -1.86472,1.90859 -0.52036,0.64708 -0.93264,1.30427 -1.2724,1.97441 -0.33976,0.67014 -0.60551,1.35131 -0.78977,2.04023 -0.18425,0.68891 -0.29715,1.3807 -0.351,2.0841 -0.1077,1.40679 0.0341,2.85629 0.351,4.27788 0.31696,1.42159 0.80912,2.81525 1.40403,4.14626 0.49104,1.09864 1.03978,2.13702 1.60146,3.09324 0.56168,0.95623 1.14452,1.83865 1.68922,2.61061 1.0894,1.54393 2.04899,2.66912 2.5448,3.22487 0.99265,-0.58374 2.09044,-1.15814 3.26874,-1.68922 1.1783,-0.53107 2.43688,-1.00864 3.79525,-1.42596 1.35838,-0.41732 2.81082,-0.76665 4.3437,-1.00914 1.53289,-0.24249 3.14644,-0.3883 4.84828,-0.39488 1.48915,-0.006 3.03696,0.0865 4.65083,0.30713 1.61386,0.22058 3.29377,0.56946 5.02377,1.05302 0.13378,-1.98466 0.16502,-3.82135 0.10969,-5.52835 -0.0553,-1.70701 -0.194,-3.29372 -0.39488,-4.73858 -0.20088,-1.44487 -0.46494,-2.75057 -0.76783,-3.94882 -0.30288,-1.19825 -0.64781,-2.27966 -1.00914,-3.24681 -0.75821,-2.02945 -1.58172,-3.56198 -2.30348,-4.67277 -0.72175,-1.11078 -1.34176,-1.79983 -1.66728,-2.17185 -0.10996,-0.12566 -1.02801,-0.89472 -2.34735,-1.55759 -0.65967,-0.33143 -1.43124,-0.65759 -2.30348,-0.94333 -0.87223,-0.28573 -1.84513,-0.53103 -2.8958,-0.68007 -0.788,-0.11176 -1.62875,-0.17972 -2.50092,-0.1755 z"
         style="fill:#ffffff;stroke:none"
         inkscape:connector-curvature="0" />
      <path
         id="path4180"
         transform="translate(0,200)"
         d="m 174.84375,128.09375 c -0.8809,0 -1.7133,0.20411 -2.46875,0.53125 -0.75545,0.32714 -1.43319,0.79285 -2,1.375 -0.56681,0.58215 -1.02876,1.26622 -1.34375,2.03125 -0.315,0.76502 -0.46875,1.59299 -0.46875,2.46875 0,0.87576 0.15375,1.70162 0.46875,2.46875 0.31499,0.76713 0.77694,1.47754 1.34375,2.0625 0.56681,0.58497 1.24455,1.04575 2,1.375 0.75545,0.32925 1.58785,0.53125 2.46875,0.53125 0.88091,0 1.71752,-0.202 2.46875,-0.53125 0.75123,-0.32925 1.43881,-0.79003 2,-1.375 0.56119,-0.58496 1.00173,-1.29537 1.3125,-2.0625 0.31078,-0.76713 0.46875,-1.59299 0.46875,-2.46875 0,-0.87576 -0.15797,-1.70373 -0.46875,-2.46875 -0.31077,-0.76503 -0.75131,-1.4491 -1.3125,-2.03125 -0.56119,-0.58215 -1.24877,-1.04786 -2,-1.375 -0.75123,-0.32714 -1.58784,-0.53125 -2.46875,-0.53125 z m -51.6875,3.21875 c -0.84168,0 -1.62251,0.15583 -2.34375,0.46875 -0.72124,0.31292 -1.36543,0.78731 -1.90625,1.34375 -0.54081,0.55644 -0.98084,1.20695 -1.28125,1.9375 -0.3004,0.73055 -0.46875,1.53975 -0.46875,2.375 0,0.83525 0.16835,1.64445 0.46875,2.375 0.30041,0.73055 0.74044,1.3498 1.28125,1.90625 0.54082,0.55643 1.18501,1.03082 1.90625,1.34375 0.72124,0.31292 1.50207,0.5 2.34375,0.5 0.84168,0 1.62462,-0.18708 2.34375,-0.5 0.71914,-0.31293 1.36823,-0.78732 1.90625,-1.34375 0.53801,-0.55645 0.98295,-1.1757 1.28125,-1.90625 0.2983,-0.73055 0.46875,-1.53975 0.46875,-2.375 0,-0.83525 -0.17045,-1.64445 -0.46875,-2.375 -0.2983,-0.73055 -0.74324,-1.38106 -1.28125,-1.9375 -0.53802,-0.55644 -1.18711,-1.03083 -1.90625,-1.34375 -0.71913,-0.31292 -1.50207,-0.46875 -2.34375,-0.46875 z"
         style="fill:#534528;stroke:none"
         inkscape:connector-curvature="0" />
      <path
         id="path4224"
         transform="translate(0,200)"
         d="m 178.8125,129.28125 c 0.31942,0.78628 0.5,1.6624 0.5,2.5625 0,0.9001 -0.18058,1.7428 -0.5,2.53125 -0.31941,0.78846 -0.79822,1.49254 -1.375,2.09375 -0.57679,0.60123 -1.25914,1.0991 -2.03125,1.4375 -0.77211,0.3384 -1.62587,0.53125 -2.53125,0.53125 -0.90539,0 -1.75481,-0.19285 -2.53125,-0.53125 -0.52942,-0.23074 -1.02401,-0.54637 -1.46875,-0.90625 0.32164,0.75837 0.74868,1.44937 1.3125,2.03125 0.58256,0.60122 1.28605,1.0991 2.0625,1.4375 0.77644,0.3384 1.62586,0.53125 2.53125,0.53125 0.90538,0 1.79039,-0.19285 2.5625,-0.53125 0.77211,-0.3384 1.45446,-0.83628 2.03125,-1.4375 0.57678,-0.60122 1.02434,-1.3053 1.34375,-2.09375 0.31941,-0.78846 0.5,-1.63115 0.5,-2.53125 0,-0.90009 -0.18059,-1.77621 -0.5,-2.5625 -0.31941,-0.78628 -0.76697,-1.49543 -1.34375,-2.09375 -0.16901,-0.17532 -0.37449,-0.31628 -0.5625,-0.46875 z m -59.40625,2.78125 c -0.19939,0.16163 -0.41459,0.31414 -0.59375,0.5 -0.57678,0.59833 -1.02433,1.33872 -1.34375,2.125 -0.3194,0.78628 -0.5,1.63115 -0.5,2.53125 0,0.9001 0.1806,1.7428 0.5,2.53125 0.31942,0.78845 0.76697,1.52377 1.34375,2.125 0.57679,0.60122 1.29039,1.0991 2.0625,1.4375 0.77211,0.3384 1.62587,0.53125 2.53125,0.53125 0.90539,0 1.75481,-0.19285 2.53125,-0.53125 0.77645,-0.3384 1.47994,-0.83628 2.0625,-1.4375 0.56381,-0.58188 0.99086,-1.27289 1.3125,-2.03125 -0.44474,0.35987 -0.90808,0.64426 -1.4375,0.875 -0.77644,0.33839 -1.65711,0.53125 -2.5625,0.53125 -0.90538,0 -1.75914,-0.19286 -2.53125,-0.53125 -0.77211,-0.3384 -1.45446,-0.80503 -2.03125,-1.40625 -0.57679,-0.60122 -1.05558,-1.33655 -1.375,-2.125 -0.31941,-0.78845 -0.46875,-1.63115 -0.46875,-2.53125 0,-0.9001 0.14934,-1.74497 0.46875,-2.53125 0.007,-0.016 0.0252,-0.0464 0.0313,-0.0625 z"
         style="fill:#766030;stroke:none"
         inkscape:connector-curvature="0" />
      <path
         sodipodi:nodetypes="ccccc"
         transform="translate(0,200)"
         inkscape:connector-curvature="0"
         id="path3024"
         d="m 143.31539,208.58119 25.63262,-0.3788 -0.88388,4.11721 c -5.65297,0.9155 -15.83054,0.32941 -23.61232,-2.1212 z"
         style="fill:#dd9e58;stroke:none" />
      <path
         style="fill:#dd9e58;stroke:none"
         d="m 146.15373,396.15955 c 3.83273,1.12848 7.95455,1.70278 11.79333,0.5587 -2.56854,4.32041 -9.08993,4.74032 -11.79333,-0.5587 z"
         id="path3026"
         inkscape:connector-curvature="0"
         sodipodi:nodetypes="ccc" />
      <path
         sodipodi:nodetypes="ccc"
         transform="translate(0,200)"
         inkscape:connector-curvature="0"
         id="path3028"
         d="m 141.54763,161.98791 c 3.61208,7.28453 9.31082,8.15355 15.27855,7.3236 -9.45186,7.01625 -16.35198,-1.19401 -15.27855,-7.3236 z"
         style="fill:#dd9e58;fill-opacity:1;stroke:none" />
      <path
         sodipodi:nodetypes="cccc"
         transform="translate(0,200)"
         inkscape:connector-curvature="0"
         id="path3030"
         d="m 64.649763,143.93143 c -6.526203,16.55817 9.558478,23.78842 18.056477,22.8547 l 0.378807,2.65165 C 63.953877,166.99583 58.531379,158.1565 64.649763,143.93143 z"
         style="fill:#dd9e58;fill-opacity:1;stroke:none" />
      <path
         style="fill:#dd9e58;fill-opacity:1;stroke:none"
         d="m 236.63355,344.0577 c 6.5262,16.55817 -11.19998,28.33411 -20.32932,21.33947 l 0.50507,2.77792 c 16.10071,5.63927 25.94263,-9.89232 19.82425,-24.11739 z"
         id="path3032"
         inkscape:connector-curvature="0"
         sodipodi:nodetypes="cccc" />
      <path
         sodipodi:nodetypes="ccccccccccccccccccccccccccccc"
         transform="translate(0,200)"
         inkscape:connector-curvature="0"
         id="path3034"
         d="m 85.535714,143.03571 c 0.476992,-3.86704 1.904037,-5.35895 1.428572,-11.60714 L 91.25,131.25 c -3.518925,-8.67162 3.965983,-20.56938 4.107143,-27.14286 l 10.357147,7.85715 C 103.84123,108.98461 102.19908,100.15392 105,98.392857 124.20977,111.75725 139.32063,102.51949 151.42857,115 c 0.0282,-3.62759 2.96189,-5.96176 3.12763,-19.40301 5.53321,-1.789804 10.17502,5.33431 15.08666,9.76015 1.40687,-2.06101 2.90109,-5.17023 4.64285,-11.249997 7.25633,-0.54867 11.59353,3.129113 16.1977,6.920957 1.39922,-0.79089 4.88439,-2.026328 5.26151,-10.017947 8.38042,6.619481 9.09209,14.119697 7.82651,21.846987 3.92151,0.73522 6.63055,-0.89745 7.85714,-2.67857 3.10431,3.19744 2.06736,14.08579 3.03572,21.25 -0.18047,-7.73392 2.33951,-14.34266 -1.42858,-23.57143 L 207.5,109.64286 c -1.67268,-6.81665 0.99712,-11.380511 -14.82143,-25.535717 l -2.5,13.75 c -5.77003,-4.57607 -12.53017,-5.851822 -19.28571,-7.142858 L 168.75,100.17857 c -4.72709,-3.078272 -8.35137,-7.504409 -15.89286,-7.142856 l -2.5,17.678576 c -12.2949,-6.87236 -30.40858,-10.39605 -45.71428,-15.535719 -2.24829,1.865665 -2.58729,6.595269 -2.85715,11.428569 L 93.392857,98.75 l -6.071428,28.39286 -3.392857,-3.03572 z"
         style="fill:#dd9e58;fill-opacity:1;stroke:none" />
      <path
         sodipodi:nodetypes="cccc"
         transform="translate(0,200)"
         inkscape:connector-curvature="0"
         id="path3036"
         d="m 71.696428,151.51786 c 4.296926,-1.13474 4.850337,1.56189 7.232144,2.76785 l -3.660714,3.75 c 0.640745,-3.0608 0.303046,-4.84308 -3.57143,-6.51785 z"
         style="fill:#dd9e58;fill-opacity:1;stroke:none" />
      <path
         style="fill:#dd9e58;fill-opacity:1;stroke:none"
         d="m 227.88083,349.67844 c -4.88168,-0.58307 -6.44945,3.75084 -6.85334,5.86144 1.31606,3.0648 3.00466,2.94105 4.98655,2.67672 -4.17629,-2.05065 -0.99753,-6.04264 1.86679,-8.53816 z"
         id="path3038"
         inkscape:connector-curvature="0"
         sodipodi:nodetypes="cccc" />
      <path
         id="path4158"
         transform="translate(0,200)"
         d="m 184.53125,102.46875 c -0.17464,3e-4 -0.35524,0.0132 -0.53125,0.0313 -0.46937,0.0479 -0.92569,0.1607 -1.40625,0.34375 -0.74857,0.28513 -1.54701,0.77826 -2.34375,1.5 -0.79673,0.72175 -1.60316,1.66886 -2.40625,2.90625 1.04466,-0.22479 2.26682,-0.4192 3.75,-0.375 0.84395,0.0251 1.76036,0.14105 2.71875,0.34375 0.95839,0.20269 1.95221,0.4887 3,0.90625 1.04779,0.41755 2.13787,0.9553 3.25,1.625 1.11212,0.6697 2.25485,1.47836 3.40625,2.4375 -0.22419,-0.79241 -0.5272,-1.62348 -0.90625,-2.4375 -0.37906,-0.81402 -0.80606,-1.58171 -1.3125,-2.34375 -0.50644,-0.76204 -1.08116,-1.51977 -1.6875,-2.15625 -0.60635,-0.63647 -1.25873,-1.15644 -1.9375,-1.59375 -0.5823,-0.37516 -1.18567,-0.67776 -1.78125,-0.875 -0.59558,-0.19723 -1.20127,-0.3135 -1.8125,-0.3125 z m -73.34375,5.75 c -0.39555,-0.008 -0.77445,0.0167 -1.15625,0.0625 -0.5415,0.0649 -1.05008,0.20346 -1.5625,0.375 -0.51241,0.17155 -1.01928,0.38644 -1.5,0.6875 -0.48073,0.30105 -0.9286,0.67161 -1.375,1.125 -0.4464,0.45338 -0.90303,0.99645 -1.3125,1.625 -0.60533,0.9292 -1.14058,2.05592 -1.625,3.4375 -0.48443,1.38157 -0.90985,3.02534 -1.21875,4.90625 0.95341,-1.21903 2.1117,-2.53083 3.625,-3.84375 0.84723,-0.73505 1.7764,-1.46884 2.8125,-2.125 1.0361,-0.65616 2.18574,-1.24926 3.40625,-1.75 1.22052,-0.50075 2.50577,-0.88745 3.90625,-1.15625 1.40049,-0.2688 2.89275,-0.41468 4.46875,-0.375 -1.31965,-0.803 -2.74651,-1.52947 -4.1875,-2.0625 -0.7205,-0.26652 -1.40752,-0.47033 -2.125,-0.625 -0.71747,-0.15467 -1.46404,-0.26801 -2.15625,-0.28125 z"
         style="fill:#766030;stroke:none"
         inkscape:connector-curvature="0" />
      <path
         sodipodi:nodetypes="ccc"
         transform="translate(0,200)"
         inkscape:connector-curvature="0"
         id="path3004"
         d="m 100.95212,121.45554 c 0,0 9.65958,-10.54347 20.64499,-9.40705 -4.48255,-3.15672 -17.86707,-0.94702 -20.64499,9.40705 z"
         style="fill:#534528;stroke:none" />
      <path
         id="path4142"
         d="m 127.96314,235.98436 c -0.61578,0.6398 -1.14498,1.23903 -2.19379,2.12798 -1.528,1.29512 -3.57017,2.86144 -6.27423,4.62889 -2.70406,1.76746 -6.07002,3.73605 -10.24499,5.87935 -2.04055,1.04756 -3.83232,2.09404 -5.39672,3.11518 -1.5644,1.02114 -2.90693,2.02186 -4.058508,2.98356 -1.151574,0.96169 -2.115676,1.87301 -2.917739,2.74223 -0.802063,0.86922 -1.43659,1.6914 -1.952471,2.43511 -1.031754,1.4874 -1.552655,2.69436 -1.820844,3.51006 -0.268204,0.81569 -0.285193,1.14077 -0.285193,1.14077 l -0.219379,4.0585 -1.842782,-3.59781 c 0,0 -1.046679,-2.23031 -1.86472,-4.05851 -0.664096,0.61579 -1.146498,1.17288 -1.469838,1.68922 -0.323339,0.51634 -0.487617,0.99194 -0.504571,1.46984 -0.02155,0.60692 0.123828,1.33796 0.329068,2.21572 0.205241,0.87777 0.470377,1.90224 0.680075,3.13712 l 0.438757,2.47898 -2.106036,-1.38208 c -0.72626,-0.47487 -1.464966,-0.83782 -2.193788,-1.0969 -0.728823,-0.25908 -1.437251,-0.40389 -2.127975,-0.50457 -1.381455,-0.20136 -2.656569,-0.15371 -3.641688,-0.0658 0.953564,1.14063 1.972977,2.396 3.224868,3.7075 l 1.776969,1.86472 -2.566732,0 c -1.270299,0 -2.569379,0.2613 -3.773316,0.61426 -1.203937,0.35297 -2.312723,0.79762 -3.202931,1.18465 0.965548,0.60619 1.796428,1.1678 4.321763,2.52286 l 1.908596,1.00914 -1.97441,0.94333 c -1.840395,0.87567 -3.451913,1.87435 -4.848272,2.91774 -1.396358,1.04338 -2.567525,2.12287 -3.575874,3.20293 -1.00835,1.08006 -1.846475,2.15144 -2.522857,3.13711 -0.676381,0.98568 -1.201023,1.89425 -1.601465,2.65449 1.452309,-0.52679 2.772155,-1.00195 5.923228,-2.23767 l 3.202931,-1.25046 -1.886658,2.87387 c -0.60312,0.91779 -1.14593,1.90808 -1.623403,2.96161 -0.477474,1.05353 -0.887561,2.17123 -1.25046,3.33456 -0.725796,2.32665 -1.245559,4.84879 -1.579527,7.45888 -0.333968,2.61009 -0.473802,5.29949 -0.504571,7.98539 -0.03075,2.6859 0.05749,5.36549 0.241316,7.91957 0.307671,4.2752 0.821832,8.12947 1.316273,11.18832 0.494441,3.05886 0.969156,5.3223 1.206584,6.38393 0.148974,-0.0175 0.291405,-0.0341 0.438757,-0.0439 0.589424,-0.0391 1.151167,-0.0103 1.711155,0.0658 1.119969,0.15234 2.154763,0.50715 3.115179,0.9872 0.960416,0.48005 1.846447,1.08535 2.632546,1.7331 1.33661,1.10136 2.419092,2.3477 3.246807,3.42231 l 1.513713,0 c 0,-0.18227 0.01264,0.21409 0.04388,0.61426 0.03124,0.40016 0.07771,0.95215 0.131627,1.60146 0.007,0.0852 0.01032,0.19863 0.0219,0.30713 0.0035,0.006 0.04388,0.0658 0.04388,0.0658 l -0.0219,0.0219 c 0.0098,0.0933 0.01565,0.18433 0.0219,0.26326 0.249902,-1.061 0.441271,-2.21657 0.570385,-3.44425 0.129114,-1.22768 0.189719,-2.52343 0.219379,-3.83913 0.05932,-2.63139 -0.05272,-5.36419 -0.263255,-7.8757 -0.443931,-5.29545 -1.175238,-9.44291 -1.228521,-9.74042 -0.423728,-0.84057 -0.784948,-1.56079 -1.053019,-2.21572 -0.26807,-0.65494 -0.442983,-1.24458 -0.504571,-1.79891 0.816433,0.8428 1.846159,1.66547 2.786111,2.61061 0.469976,0.47256 0.904859,0.98194 1.294335,1.53565 0.389477,0.5537 0.730535,1.14895 0.965267,1.82084 0.02148,-0.813 -0.02296,-1.56909 0.06578,-2.4351 0.166306,-1.62289 0.451337,-3.30132 0.899453,-4.89215 0.224061,-0.79541 0.481103,-1.56581 0.789763,-2.30348 0.308661,-0.73766 0.672261,-1.43734 1.074957,-2.0841 0.633355,-1.0172 1.212438,-2.58212 1.711154,-4.3437 0.498717,-1.76157 0.917081,-3.71979 1.228522,-5.52834 0.622881,-3.61711 0.899453,-6.66912 0.899453,-6.66912 0.894153,0.41685 1.558418,0.91797 2.106036,1.46984 0.547619,0.55187 0.97478,1.14572 1.425963,1.79891 0.451183,0.65318 0.930805,1.3633 1.535651,2.0841 0.604847,0.72079 1.338738,1.46103 2.347353,2.21572 -0.22059,-1.66538 -0.18752,-3.11026 0.0219,-4.3437 0.20946,-1.23343 0.59534,-2.25544 1.05302,-3.0713 0.56896,-1.01423 1.26125,-1.72892 1.82084,-2.19379 -0.85994,-0.83959 -1.56449,-1.68847 -2.04022,-2.5448 0.53052,-0.0173 1.19517,0.25066 1.97441,0.68008 0.77923,0.42942 1.6784,1.01628 2.65448,1.66728 0.97608,0.651 2.038,1.37084 3.15906,2.01828 1.12105,0.64745 2.29589,1.22657 3.51006,1.64534 1.18066,0.56467 2.42301,1.092 3.72944,1.57953 1.30642,0.48754 2.68709,0.93602 4.08044,1.31627 1.39336,0.38026 2.81451,0.70052 4.25595,0.94333 1.44144,0.24282 2.89301,0.40742 4.3437,0.48264 2.80988,0.14569 5.26509,0.45994 7.45888,0.89945 2.19379,0.43951 4.13602,1.00758 5.85742,1.66728 1.72139,0.65969 3.2362,1.40949 4.62889,2.21573 1.39269,0.80624 2.65339,1.66562 3.86107,2.54479 0.53466,-1.36538 0.90843,-2.66876 1.14077,-3.90494 0.23233,-1.23618 0.31538,-2.41133 0.30713,-3.51006 -0.008,-1.09874 -0.12003,-2.11826 -0.30713,-3.07131 -0.1871,-0.95304 -0.4417,-1.83343 -0.74589,-2.63254 -0.65672,-1.7252 -1.47497,-3.05836 -2.12798,-3.97076 -0.653,-0.9124 -1.14077,-1.40402 -1.14077,-1.40402 0.57374,0.008 1.14235,0.0741 1.7331,0.24131 0.59075,0.16719 1.20364,0.43514 1.84278,0.83364 1.06209,-0.21962 2.04588,-0.35519 2.98355,-0.41682 0.93767,-0.0616 1.82023,-0.043 2.65448,0.0439 0.83426,0.0868 1.63938,0.235 2.39123,0.46069 0.75186,0.22569 1.45945,0.5225 2.14992,0.87752 1.26569,0.65078 2.45798,1.50857 3.66362,2.50092 1.20564,0.99234 2.42465,2.11922 3.72944,3.33455 0.42974,-1.48264 0.72116,-2.71071 0.89945,-3.79525 0.17829,-1.08454 0.25194,-2.02561 0.21938,-2.91774 -0.0326,-0.89212 -0.17015,-1.74908 -0.37294,-2.65448 -0.20279,-0.9054 -0.47929,-1.85917 -0.8117,-2.98355 0,0 0.54098,0.20714 1.07495,0.65813 0.26699,0.2255 0.55555,0.51878 0.83364,0.89946 0.2781,0.38068 0.54573,0.84876 0.76783,1.40402 0.0867,0.21685 0.16967,0.45797 0.24132,0.70201 1.01815,-0.15194 2.04003,-0.19944 3.04936,-0.1755 1.00933,0.0239 2.00309,0.11751 2.98355,0.28519 1.96092,0.33537 3.84707,0.92789 5.57223,1.64534 1.49737,0.62272 2.81356,1.3224 3.97075,2.06217 1.15719,0.73976 2.15538,1.51962 2.98355,2.2596 0.36862,-0.62136 0.66566,-1.2991 0.87752,-2.06216 0.21186,-0.76306 0.33854,-1.61144 0.351,-2.56674 0.0156,-1.19243 -0.0994,-2.49952 -0.32906,-3.90494 -0.22968,-1.40541 -0.5741,-2.90917 -1.00915,-4.47533 l -0.83364,-2.98355 2.52286,1.79891 c 2.21189,1.57189 4.12514,3.10087 5.7916,4.58501 1.66646,1.48415 3.08578,2.92738 4.27789,4.32177 1.19211,1.39438 2.17278,2.73393 2.96161,4.03657 0.78883,1.30263 1.38616,2.56443 1.84278,3.77331 0.37399,0.99011 0.65026,1.93001 0.83364,2.82999 0.18338,0.89998 0.26506,1.75139 0.30713,2.56673 0.0842,1.63069 -0.0562,3.10629 -0.24131,4.43145 0.81183,-0.37774 1.4162,-0.80862 1.86472,-1.25045 0.44852,-0.44184 0.74121,-0.89462 0.94333,-1.31628 0.25878,-0.53986 0.37182,-1.00151 0.41682,-1.33821 0.045,-0.3367 0.0219,-0.54845 0.0219,-0.54845 1.08548,0.38198 1.81403,0.71455 2.47898,1.31628 0.66495,0.60173 1.26629,1.47262 2.0841,2.8958 0.29791,0.66204 0.58419,1.40743 0.8117,2.2596 0.22752,0.85217 0.39784,1.82075 0.50457,2.87386 0.10673,1.05312 0.13028,2.20129 0.0658,3.46619 -0.0644,1.26489 -0.21852,2.63683 -0.50457,4.12432 -0.26792,1.39316 -0.46077,2.89654 -0.59232,4.47533 -0.13156,1.57878 -0.19717,3.2244 -0.21938,4.89214 -0.0444,3.33548 0.0982,6.76078 0.32907,9.87205 0.23087,3.11128 0.52893,5.93458 0.8117,8.07314 0.11626,0.87933 0.16295,0.98988 0.26325,1.6234 0.72457,-1.04564 1.18482,-1.90852 1.18482,-1.90852 l 0.0219,-0.0439 0,-0.0219 c 0.16216,-0.35676 0.56184,-1.45621 1.1627,-2.7203 0.30044,-0.63204 0.6647,-1.32846 1.0969,-2.01828 0.43219,-0.68983 0.9323,-1.37307 1.53565,-2.01829 0.48308,-0.5166 1.02744,-0.98696 1.64534,-1.40402 0.6179,-0.41707 1.31244,-0.78561 2.06216,-1.05302 0.74972,-0.26741 1.55658,-0.43692 2.43511,-0.50457 0.87852,-0.0677 1.82566,-0.0286 2.82998,0.15356 0.33459,-0.77022 0.70423,-1.89051 1.07496,-3.26874 0.37073,-1.37823 0.74257,-3.01441 1.09689,-4.78246 0.8099,-4.04125 1.56373,-8.89404 2.21573,-13.57955 0.65199,-4.68551 1.20595,-9.20659 1.60146,-12.63622 0.19776,-1.71482 0.34473,-3.16391 0.4607,-4.21207 0.11597,-1.04816 0.1755,-1.60161 0.21938,-1.88666 0.0925,-0.60142 0.32771,-1.18527 0.65813,-2.06216 0.33043,-0.87689 0.75057,-1.90966 1.16271,-2.91774 0.5969,-1.45998 0.90762,-2.15656 1.18465,-2.80805 -0.21916,-0.0763 -0.16473,-0.11576 -0.52651,-0.1755 -0.47484,-0.0784 -1.06042,-0.11336 -1.73309,-0.0219 -0.67268,0.0914 -1.43244,0.30927 -2.28154,0.72395 l -1.99635,0.96527 0.43876,-2.17185 c 0.13976,-0.68134 0.1531,-1.79615 0.0877,-3.07131 -0.0654,-1.27515 -0.20938,-2.71064 -0.39488,-4.01463 -0.0609,-0.42821 -0.0684,-0.39214 -0.13163,-0.78976 -0.38761,0.94289 -0.83282,1.97013 -1.36015,2.98355 -0.52733,1.01342 -1.13679,2.01301 -1.82084,2.91774 l -1.20659,1.60146 -0.70201,-1.86472 c -0.85947,-2.28466 -1.82202,-4.43186 -2.87386,-6.44974 -1.05184,-2.01787 -2.193,-3.90542 -3.37844,-5.65997 -1.18543,-1.75455 -2.4253,-3.37552 -3.68556,-4.87021 -1.26026,-1.49469 -2.54089,-2.8641 -3.81719,-4.10238 -1.2763,-1.23829 -2.5586,-2.35007 -3.79525,-3.33456 -1.23665,-0.9845 -2.42249,-1.8324 -3.55394,-2.56673 -1.13146,-0.73434 -2.19835,-1.355 -3.15906,-1.84279 -0.9607,-0.48778 -1.82038,-0.85202 -2.54479,-1.09689 l -1.07492,-0.37301 0.39488,-1.05302 c 0.20266,-0.54044 0.34671,-1.11907 0.43876,-1.73309 0.0921,-0.61403 0.13686,-1.25404 0.13163,-1.9086 -0.0105,-1.30913 -0.20693,-2.67571 -0.52651,-3.94882 -0.23655,-0.94228 -0.54497,-1.78297 -0.87752,-2.52286 -0.33255,-0.73988 -0.68921,-1.37894 -1.03108,-1.90859 -0.3352,0.29557 -0.70054,0.58084 -1.11883,0.85558 -1.02172,0.67106 -2.29873,1.29509 -3.7075,1.90859 -2.81756,1.227 -6.15091,2.35232 -8.88485,3.15906 l -2.2596,0.65813 0.92139,-2.14991 c 0.50844,-1.17959 0.81524,-2.41822 0.96527,-3.64169 0.15003,-1.22346 0.14329,-2.43177 0,-3.532 -0.10767,-0.82678 -0.29043,-1.55383 -0.52651,-2.17185 -0.23608,-0.61801 -0.5255,-1.12699 -0.8117,-1.55759 -0.27694,0.22677 -0.55339,0.45872 -0.92139,0.72395 -1.02005,0.73519 -2.39186,1.60645 -3.97076,2.5448 -1.5789,0.93835 -3.36148,1.91893 -5.22121,2.85192 -1.85973,0.933 -3.79659,1.81841 -5.65998,2.52286 -0.23881,-0.56896 -0.32374,-1.10228 -0.30713,-1.6234 0.0166,-0.52112 0.14456,-1.02166 0.30713,-1.57953 0.32515,-1.11574 0.82293,-2.39793 1.07496,-4.1682 0.20379,-1.40609 0.16132,-1.89354 0.1755,-2.63254 -0.94843,0.33384 -2.82685,0.94082 -5.6161,1.42596 -1.39462,0.24257 -3.02714,0.46694 -4.87021,0.59232 -1.84306,0.12538 -3.9028,0.16097 -6.18648,0.0658 l -0.0219,0 -0.0439,0 c -2.56733,-0.28046 -5.10477,-0.29771 -7.54663,-0.13162 -2.44186,0.16608 -4.78826,0.50522 -6.97624,0.9872 -2.18799,0.48199 -4.22722,1.10974 -6.03292,1.77697 -1.8057,0.66723 -3.37775,1.38422 -4.67277,2.10604 -0.46543,-0.57141 -0.68813,-1.08227 -0.74589,-1.60147 -0.0578,-0.5192 0.0454,-1.0494 0.19744,-1.6234 0.15204,-0.574 0.36258,-1.19473 0.52651,-1.93054 0.16394,-0.73581 0.28531,-1.58403 0.26326,-2.58867 z"
         style="fill:#766030;stroke:none"
         inkscape:connector-curvature="0" />
      <path
         transform="translate(0,200)"
         inkscape:connector-curvature="0"
         id="path3006"
         d="m 176.46102,108.00788 c 0,0 9.59645,-3.15673 18.24588,5.80838 -0.12627,-4.16688 -13.38452,-11.49049 -18.24588,-5.80838 z"
         style="fill:#534528;stroke:none" />
      <path
         sodipodi:nodetypes="cccccccccccccccccccccccccccccccccscccccccccccccc"
         transform="translate(0,200)"
         inkscape:connector-curvature="0"
         id="path3008"
         d="m 67.5,124.28571 c 0,0 1.428572,-24.821424 12.678572,-36.78571 -4.285715,-0.357143 -8.75,1.25 -8.75,1.25 0,0 7.142857,-8.392857 14.107142,-7.5 C 81.964286,78.571428 78.75,77.5 78.75,77.5 c 0,0 3.75,-2.5 9.642857,0.357143 C 85,74.642857 83.75,72.321428 83.75,72.321428 c 0,0 4.285714,0 6.785714,3.035715 -0.178571,-3.928572 -1.071428,-7.321429 -1.071428,-7.321429 0,0 2.678571,2.857143 5,3.75 0.714286,-5.357143 0,-13.392857 15.535714,-20 12.32143,-6.428571 13.75,-9.464286 13.75,-9.464286 l -2.85714,9.285715 c 0,0 9.82143,-9.642858 27.67857,-8.571429 C 160.17857,43.75 165.35714,41.25 165.35714,41.25 c 0,0 0.89286,7.857143 -2.32143,11.071428 7.85715,-0.892857 15.53572,-4.821428 17.85715,-8.392857 -1.25,7.857143 1.11475,9.081762 -2.27811,11.938905 8.92857,-2.678572 18.88525,-5.153191 20.13525,-8.188905 1.61983,3.232233 1.19398,7.077864 -1.25,11.785714 6.07143,1.785715 23.39286,8.214286 30.71429,32.321429 3.75,-0.892857 5,-4.285714 5,-4.285714 0,0 0.53571,5.892857 -0.53572,7.857143 3.92857,-2.321429 5.89286,-2.321429 5.89286,-2.321429 0,0 -5.17857,13.392856 -5.35714,42.678576 3.03571,-13.75 5.35714,-31.42858 5.53571,-36.785719 1.25,-4.464286 3.03571,-9.107143 3.03571,-9.107143 L 236.25,90 233.92857,80.535714 230,87.678571 c 0,0 -6.25,-20.535714 -27.5,-30.714286 0.71429,-5.892857 -2.85714,-13.928571 -2.85714,-13.928571 l -13.57143,6.428571 c 1.69352,-2.661248 -1.25677,-14.5812 -1.42857,-12.857142 -0.0954,0.956896 -15,8.571428 -15,8.571428 l 1.07143,-10 c -11.06732,4.196331 -29.27113,1.695835 -41.96429,6.428572 l 0,-7.5 c -6.81853,5.682108 -35.600708,18.867295 -37.142857,30.357142 -2.5,-5.357142 -2.5,-5.357142 -2.5,-5.357142 -2.451394,2.814978 -3.381362,6.173323 -2.5,10.178571 L 75.535714,67.321428 80.178572,73.035714 71.607143,76.428571 77.5,79.821428 c -7.503548,3.875158 -10.585232,9.408514 -14.464286,14.642857 l 7.857143,-2.321428 c 0,0 -8.035714,17.678573 -3.392857,32.142853 z"
         style="fill:#534528;fill-opacity:1;stroke:none" />
      <path
         sodipodi:nodetypes="cccccc"
         transform="translate(0,200)"
         inkscape:connector-curvature="0"
         id="path3010"
         d="m 107.32143,261.42857 c 0,0 17.1376,-32.1899 29.46428,-36.42857 0.40574,-2.23323 -0.32278,-6.15809 7.6696,-5 0.92132,-2.75625 0.22716,-4.9477 0.22716,-4.9477 0,0 -9.32533,2.26913 -9.86104,6.91199 -3.92857,1.78571 -23.21429,15.17857 -27.5,39.46428 z"
         style="fill:#bfa60e;stroke:none" />
      <path
         style="fill:#bfa60e;stroke:none"
         d="m 205.70357,465.56637 c 0,0 -14.30656,-36.01198 -29.46716,-41.65613 -0.0942,-2.26784 -0.97837,-4.28711 -7.53886,-5.37774 -0.53276,-2.8569 0.45674,-4.17419 0.45674,-4.17419 0,0 9.55507,2.2697 9.44595,6.94209 4.6552,1.29984 24.68953,16.7172 27.10333,44.26597 z"
         id="path3012"
         inkscape:connector-curvature="0"
         sodipodi:nodetypes="cccccc" />
      <path
         sodipodi:nodetypes="cccc"
         transform="translate(0,200)"
         inkscape:connector-curvature="0"
         id="path3014"
         d="m 142.38905,264.86924 c 0,0 16.49959,-1.29966 19.84309,0.66647 -4.04323,0.26151 -2.01024,4.97571 -2.01024,4.97571 -8.47564,-3.54078 -12.45144,-3.74912 -17.83285,-5.64218 z"
         style="fill:#bfa60e;fill-opacity:1;stroke:none" />
      <path
         sodipodi:nodetypes="ccsssccccccccccccccccccscsscssccscssccscccscccscccsscccsccsssccscscssccccccccsssscsscccsccccscscccsscsccccsscsccccccccccccccccsscscccsscssccsccccscccccsscsssscssccccsssccscscccscsccsccsccscscccsccssscccsccccccccssccsccccccccsccccccccccccsssccccccccscsscccscsccccscccscscccccsssssccccsscccccssscccsssscsccccscccsccccscccssccccscccscccsscssccsccscscsssssccscccccscccssccsscsccssssssscsccccccccsscscsssssssssssssssssssssssssscsssccssccccscsccscccscccccsscccccccccccccccccsssccccsccsccccccccccsccccccsccc"
         inkscape:connector-curvature="0"
         id="path2997"
         d="m 129.54267,230.25858 -1.51371,2.45704 c 0,0 -0.75845,1.26706 -3.66363,3.72944 -2.90518,2.46238 -7.89816,5.99998 -16.12434,10.22305 -8.413943,4.31946 -12.813082,8.65929 -15.115204,11.97809 -0.750086,1.08134 -1.212326,2.00271 -1.579528,2.82998 -0.52773,-1.09673 -0.880471,-1.71904 -1.272397,-2.76417 l -0.526509,-1.38209 -1.162708,0.87752 c -2.693965,2.0437 -3.793309,3.90274 -3.861067,5.81354 -0.04303,1.21398 0.240867,2.37719 0.548447,3.59781 -4.610957,-1.8277 -9.455227,-0.74589 -9.455227,-0.74589 l -1.776968,0.39488 1.162707,1.38209 c 0,0 1.858599,2.14772 3.378434,3.883 -3.978472,0.63109 -7.744072,2.61061 -7.744072,2.61061 l -1.645341,0.85558 1.557589,1.03108 c 0,0 2.40621,1.42871 4.606956,2.69836 -9.957384,5.56571 -13.118854,14.54482 -13.118854,14.54482 l -0.72395,2.14991 2.127975,-0.74589 c 0,0 3.179862,-1.19965 5.769663,-2.17185 -3.952554,8.05699 -4.270811,18.9921 -3.597813,28.34374 0.631327,8.7726 2.117227,15.81382 2.58867,17.92325 -0.985744,0.35627 -1.988105,0.88529 -2.983552,1.62341 -5.097331,3.77965 -6.297955,11.19192 -3.422309,17.52836 2.79344,6.15531 9.536611,11.33081 20.204789,11.47351 1.088645,8.32938 4.051389,14.35022 8.029264,18.86658 5.257735,5.96948 12.185685,9.30937 18.756885,12.37297 6.92678,3.22937 19.20076,6.35163 33.74047,7.52469 0.2271,0.66704 0.77526,2.46961 1.00914,5.19928 -1.44066,0.31588 -4.35546,1.09842 -6.62524,2.63255 -1.36184,0.92045 -2.59889,2.22607 -2.82999,3.92688 -2.25547,0.60323 -4.85892,2.28285 -7.70019,4.73858 -3.14125,2.715 -6.49736,6.40467 -9.56492,10.74956 -6.13512,8.68977 -11.09979,20.0136 -10.24499,31.34923 2.12115,-11.34772 6.50469,-22.12694 12.02196,-30.09877 2.96816,-4.2041 6.25243,-7.77611 9.23585,-10.35468 2.52295,-2.1806 4.892,-3.61503 6.51555,-4.1682 2.10513,2.96657 3.47762,3.86697 5.72578,3.51006 -2.86921,-2.2316 -3.76881,-3.93942 -3.81719,-5.02377 -0.0484,-1.08436 0.6463,-1.9697 1.88666,-2.80805 1.69431,-1.14517 4.0974,-1.84791 5.50641,-2.19379 -0.01,1.06192 -0.1147,2.17971 -0.30713,3.33456 -0.0412,1.13759 -2.2863,0.63326 -2.61061,1.03108 0,0 4.29591,2.8667 10.37662,4.27789 6.0807,1.41118 14.12839,1.35631 21.34556,-4.51921 -1.06743,-0.1912 -1.67733,-0.0311 -2.7203,-0.70201 -0.64935,-0.93263 -0.99682,-2.29549 -1.11883,-3.79525 1.53094,0.18611 4.2553,0.61342 6.25229,1.53565 1.43878,0.66444 2.23489,1.44134 2.30348,2.28154 0.0686,0.8402 -0.59665,2.42172 -3.3565,4.65083 1.28818,0.94604 4.17427,-0.63058 5.08959,-2.52286 0.236,0.11577 0.46642,0.22362 0.76783,0.39488 0.82894,0.47103 1.90334,1.15776 3.13712,2.0841 2.46754,1.85268 5.57282,4.66658 8.64352,8.62159 6.81735,8.50034 11.98044,24.21419 15.09326,39.11524 -0.71724,-19.23114 -6.95865,-32.20839 -13.36017,-40.45345 -3.20075,-4.12252 -6.44756,-7.07669 -9.06034,-9.03841 -1.30639,-0.98086 -2.43959,-1.71665 -3.3565,-2.23766 -0.56861,-0.32311 -1.01514,-0.55547 -1.40402,-0.72395 -0.001,-0.0221 0.002,-0.0437 0,-0.0658 -0.1641,-2.0102 -1.82353,-3.2712 -3.57588,-4.08045 -2.51933,-1.16343 -5.63079,-1.62901 -7.19562,-1.7989 0.009,-0.19047 0.007,-0.38129 0.0219,-0.57039 0.15201,-1.94717 0.52393,-3.64041 0.74589,-4.56308 6.07345,-0.63568 12.22023,-1.68193 18.27426,-3.26874 15.94061,-4.17817 23.33472,-15.44721 26.61065,-25.53569 1.32175,-4.07045 1.99281,-7.96195 2.32541,-11.16639 2.02281,1.26245 5.9417,2.9147 11.31995,1.4479 l 0.0439,-0.0219 0.0439,0 c 13.72465,-5.1716 16.43434,-23.4348 6.09873,-30.09877 l -0.0658,-0.0439 -0.0877,-0.0439 c -0.35193,-0.15094 -0.69108,-0.27514 -1.03108,-0.39489 0.81762,-1.94191 1.48611,-4.78302 2.17185,-8.20476 0.82444,-4.11385 1.58218,-8.97866 2.23766,-13.68924 0.65549,-4.71059 1.20474,-9.26188 1.60147,-12.70203 0.19836,-1.72008 0.3666,-3.16329 0.48263,-4.21208 0.11603,-1.04878 0.19697,-1.79586 0.19744,-1.7989 -0.004,0.0253 0.23068,-0.75814 0.54845,-1.60147 0.31777,-0.84333 0.73297,-1.87641 1.14077,-2.87386 0.8156,-1.99492 1.60147,-3.86107 1.60147,-3.86107 l 0.37294,-0.85558 -0.78976,-0.50457 c 0,0 -0.88286,-0.54783 -2.21573,-0.76782 -0.9676,-0.1597 -2.28368,-0.009 -3.7075,0.39488 0.0854,-1.89619 -0.0568,-4.05258 -0.35101,-6.12067 -0.52215,-2.65632 -2.21212,-4.26436 -2.98355,-5.02378 0,0 -1.28609,4.14334 -3.22487,7.45888 -3.54267,-8.48391 -8.4812,-15.14339 -13.40404,-19.91959 -4.86939,-4.72434 -9.56813,-7.60577 -12.94335,-8.95066 0.67655,-2.55741 0.47631,-5.3665 -0.15357,-7.8757 -0.71263,-2.83882 -1.85035,-5.24218 -3.22487,-6.55942 l -1.22852,-1.18465 -0.54845,1.60147 c -0.0394,0.11381 -0.50928,0.69161 -1.36014,1.25045 -0.85086,0.55885 -2.0393,1.17186 -3.37844,1.75504 -2.0944,0.91207 -4.50002,1.67712 -6.75687,2.39122 0.55758,-2.12386 0.79809,-4.26959 0.54845,-6.18648 -0.33393,-2.56407 -1.17719,-4.72618 -2.65448,-5.9671 l -1.14077,-0.96534 -0.54845,1.2724 c -0.0445,0.0531 -0.13898,0.17553 -0.26325,0.28519 -0.24854,0.21933 -0.64687,0.51542 -1.11884,0.85558 -0.94393,0.68032 -2.26059,1.54498 -3.79525,2.45704 -2.17276,1.29129 -4.75655,2.61312 -7.34919,3.79525 0.42078,-1.18138 0.66514,-2.43518 0.83364,-3.59781 0.34719,-2.39565 0.30713,-4.45339 0.30713,-4.45339 l -0.0439,-1.57953 -1.46983,0.59233 c 0,0 -6.91132,2.83105 -17.28705,2.41316 -0.0221,-0.002 -0.0438,0.002 -0.0658,0 -9.26079,-0.9972 -17.78863,1.11466 -23.62714,3.70751 1.22942,-3.69847 0.54845,-7.41501 0.54845,-7.41501 z m -1.57953,5.72578 c 0.0882,4.01853 -2.10302,5.45845 -0.24132,7.74408 5.1801,-2.88726 14.95923,-5.86045 25.22857,-4.73859 l 0.0439,0 0.0219,0 c 9.13471,0.38062 14.77592,-1.4164 16.67279,-2.08409 -0.0142,0.739 0.0283,1.22645 -0.17551,2.63254 -0.50405,3.54054 -2.03023,5.09529 -1.07495,7.37113 3.72677,-1.4089 7.72338,-3.49808 10.88119,-5.37478 1.5789,-0.93835 2.9507,-1.80961 3.97075,-2.5448 0.36801,-0.26523 0.64445,-0.49718 0.92139,-0.72395 0.57242,0.8612 1.12287,2.07587 1.33822,3.72944 0.28657,2.20046 0.0516,4.8145 -0.96527,7.17369 l -0.92139,2.14991 2.2596,-0.65813 c 2.73394,-0.80674 6.06729,-1.93206 8.88484,-3.15906 1.40878,-0.6135 2.68579,-1.23753 3.7075,-1.90859 0.4183,-0.27474 0.78363,-0.56001 1.11884,-0.85558 0.68373,1.0593 1.43551,2.54689 1.90859,4.43145 0.63918,2.54621 0.76678,5.42876 -0.0439,7.59051 l -0.39489,1.05302 1.07496,0.37294 c 2.89762,0.97948 7.94782,3.88782 13.05304,8.84097 5.10521,4.95314 10.31718,11.94365 13.75505,21.0823 l 0.70201,1.86472 1.20659,-1.60146 c 1.36811,-1.80946 2.40578,-4.01551 3.18099,-5.90129 0.0633,0.39762 0.0707,0.36155 0.13163,0.78976 0.371,2.60797 0.58665,5.72326 0.30713,7.08593 l -0.43876,2.17186 1.99635,-0.96527 c 1.69821,-0.82936 3.06495,-0.85876 4.01463,-0.70201 0.36178,0.0597 0.30735,0.0992 0.52651,0.1755 -0.27703,0.65149 -0.58775,1.34807 -1.18465,2.80805 -0.41214,1.00807 -0.83228,2.04085 -1.16271,2.91774 -0.33042,0.87689 -0.56561,1.46074 -0.65813,2.06216 -0.0439,0.28505 -0.10341,0.83849 -0.21938,1.88665 -0.11597,1.04817 -0.26294,2.49726 -0.4607,4.21208 -0.39551,3.42963 -0.94947,7.95071 -1.60146,12.63622 -0.652,4.68551 -1.40583,9.53829 -2.21573,13.57955 -0.70866,3.5361 -1.50268,6.51075 -2.17185,8.0512 -4.0173,-0.72892 -7.04026,0.74162 -8.97259,2.80805 -1.20669,1.29042 -2.03168,2.77248 -2.63255,4.03657 -0.60086,1.26408 -1.00054,2.36353 -1.1627,2.7203 l 0,0.0219 -0.0219,0.0439 c 0,0 -0.46025,0.86288 -1.18464,1.90859 -0.10031,-0.63352 -0.14699,-0.74406 -0.26326,-1.6234 -0.28276,-2.13856 -0.58083,-4.96186 -0.8117,-8.07314 -0.46174,-6.22255 -0.58903,-13.66686 0.48263,-19.23952 1.14422,-5.94994 0.31415,-10.07583 -0.87751,-12.72397 -1.63562,-2.84636 -2.39213,-3.44812 -4.56308,-4.21208 0,0 0.0788,0.80693 -0.43876,1.88666 -0.40423,0.84332 -1.18439,1.81124 -2.80805,2.56673 0.37033,-2.65033 0.59651,-5.86771 -0.89945,-9.82817 -1.82649,-4.83551 -6.02634,-10.42907 -14.87388,-16.71666 l -2.52286,-1.79891 0.83364,2.98355 c 0.87009,3.13233 1.36932,5.99541 1.33821,8.38027 -0.0249,1.91061 -0.49128,3.38617 -1.22852,4.6289 -1.65634,-1.47996 -3.95955,-3.07633 -6.95431,-4.32177 -3.45031,-1.43489 -7.53252,-2.3628 -11.60514,-1.75503 -0.0717,-0.24404 -0.15458,-0.48516 -0.24132,-0.70201 -0.44421,-1.11053 -1.06749,-1.85248 -1.60146,-2.30348 -0.53397,-0.45099 -1.07496,-0.65813 -1.07496,-0.65813 1.32968,4.4975 1.78474,6.42044 0.0658,12.35103 -2.6096,-2.43067 -4.86167,-4.53392 -7.39306,-5.83548 -2.76186,-1.42007 -5.93084,-1.84376 -10.17918,-0.96527 -1.27827,-0.797 -2.42839,-1.05957 -3.57588,-1.07495 0,0 1.9553,1.92439 3.26875,5.37478 1.21677,3.19645 1.74379,7.65734 -0.39488,13.11885 -4.83069,-3.51665 -10.56677,-6.74446 -21.80626,-7.32725 -5.80278,-0.30089 -11.68688,-2.0631 -16.40953,-4.32177 -4.85666,-1.67511 -9.17591,-6.08004 -11.29801,-6.01097 0.47573,0.85632 1.18028,1.7052 2.04022,2.54479 -0.55959,0.46487 -1.25188,1.17956 -1.82084,2.19379 -0.91536,1.63173 -1.516147,4.08423 -1.07496,7.415 -4.034471,-3.01877 -3.838399,-5.90117 -7.415004,-7.56857 0,0 -0.276572,3.05201 -0.899453,6.66912 -0.622882,3.6171 -1.672958,7.83763 -2.939676,9.87205 -1.610788,2.58702 -2.431567,6.03395 -2.764173,9.27972 -0.08874,0.86601 -0.0443,1.6221 -0.06578,2.4351 -0.93892,-2.68755 -3.412846,-4.2815 -5.045713,-5.9671 0.123182,1.10866 0.710128,2.33349 1.55759,4.01463 0.05328,0.29752 0.78459,4.44498 1.228521,9.74042 0.421095,5.02302 0.473093,10.91508 -0.526509,15.15908 -0.0063,-0.0789 -0.01207,-0.16998 -0.0219,-0.26326 l 0.0219,-0.0219 c 0,0 -0.04058,-0.0598 -0.04388,-0.0658 -0.01158,-0.1085 -0.01488,-0.2219 -0.0219,-0.30713 -0.05392,-0.64931 -0.100381,-1.2013 -0.131628,-1.60146 -0.03124,-0.40017 -0.04387,-0.79653 -0.04387,-0.61426 l -1.513714,0 c -0.827715,-1.07461 -1.910197,-2.32095 -3.246807,-3.42231 -1.572191,-1.29549 -3.507779,-2.41561 -5.747725,-2.7203 -0.559988,-0.0762 -1.121731,-0.10486 -1.711155,-0.0658 -0.147352,0.01 -0.289783,0.0264 -0.438757,0.0439 -0.474848,-2.12325 -1.907522,-9.02186 -2.522857,-17.57225 -0.735224,-10.21631 -0.10832,-22.31769 4.716645,-29.66001 l 1.886658,-2.87387 -3.202931,1.25046 c -3.151073,1.23572 -4.470919,1.71088 -5.923228,2.23767 1.60176,-3.04094 5.186895,-8.40959 12.548468,-11.91227 l 1.97441,-0.94333 -1.908596,-1.00914 c -2.525334,-1.35506 -3.356215,-1.91667 -4.321763,-2.52286 1.780416,-0.77407 4.43565,-1.79891 6.976247,-1.79891 l 2.566732,0 -1.776969,-1.86472 c -1.251891,-1.3115 -2.271304,-2.56687 -3.224868,-3.7075 1.970232,-0.17578 5.058412,-0.23217 7.963451,1.66728 l 2.106036,1.38209 -0.438757,-2.47898 c -0.419396,-2.46977 -1.052183,-4.139 -1.009143,-5.35285 0.03391,-0.95579 0.646217,-1.92748 1.97441,-3.15905 0.81804,1.82819 1.86472,4.05851 1.86472,4.05851 l 1.842782,3.59781 0.219378,-4.05851 c 0,0 0.01699,-0.32507 0.285193,-1.14077 0.26819,-0.81569 0.78909,-2.02265 1.820844,-3.51006 2.063516,-2.97481 6.163241,-7.08585 14.325431,-11.27607 8.34995,-4.28661 13.46321,-7.91801 16.51923,-10.50825 1.0488,-0.88895 1.578,-1.48817 2.19379,-2.12797 z m -24.52666,73.6235 c -2.46889,2.25559 -6.139766,9.69559 -2.58867,15.61977 0,0 1.84846,-3.71039 5.63804,-6.99818 3.78958,-3.2878 9.36729,-6.11561 17.08961,-4.40952 -1.78147,-5.96146 -8.67867,-8.51579 -13.79893,-7.70019 -2.21204,0.26501 -4.35242,1.29789 -6.12067,3.2468 l -0.68007,-2.34735 c -1.26945,-4.48538 -0.58575,-7.13486 0.28519,-8.6874 0.58527,-1.04331 1.21567,-1.55519 1.57953,-1.79891 1.80663,1.4033 4.07074,2.73854 6.64718,3.97076 4.96153,2.37291 11.07922,4.22153 17.24317,4.54114 11.76799,0.6102 16.79291,3.96208 21.80626,7.74407 l 1.09689,0.83364 0.57039,-1.25046 c 3.04831,-6.60469 2.37824,-12.21763 0.89945,-16.1024 -0.20227,-0.53137 -0.4326,-1.0229 -0.65814,-1.49178 3.53406,-0.64811 5.88356,-0.25958 8.09508,0.87752 2.51212,1.29166 4.88365,3.65938 8.18283,6.69105 l 1.22852,1.14077 0.54845,-1.57953 c 1.36465,-3.85661 1.75601,-6.71414 1.6234,-8.8629 3.5257,-0.51086 7.22287,0.30271 10.39856,1.6234 3.35225,1.39411 6.13145,3.38318 7.32725,4.69471 l 0.83364,0.92139 0.8117,-0.94333 c 1.58908,-1.84538 2.22423,-4.28611 2.2596,-6.99818 0.0238,-1.82502 -0.28624,-3.83929 -0.72395,-5.92323 l 1.1e-4,3e-5 c 6.81852,5.30664 10.25782,9.96354 11.71483,13.82087 1.63056,4.31681 1.09856,7.7345 0.61426,10.50824 l -0.30713,1.71116 1.66728,-0.4607 c 3.0758,-0.85941 4.76547,-2.50889 5.59416,-4.03657 0.3585,0.46938 0.78699,1.11269 1.18464,1.99635 1.00224,2.22719 1.79579,5.83412 0.72395,11.4077 -1.1444,5.95086 -0.99551,13.48956 -0.52651,19.80991 0.2345,3.16017 0.54577,6.02755 0.83364,8.20476 0.28788,2.17722 0.52545,3.57165 0.68008,4.19014 l 0.46069,1.84278 1.36015,-1.31627 c 2.1856,-2.09059 3.10907,-4.36174 3.13712,-4.43145 0.005,-0.0103 0.0172,-0.0333 0.0219,-0.0439 0.27753,-0.6187 0.58537,-1.53222 1.11883,-2.65448 0.54252,-1.14134 1.27811,-2.43851 2.2596,-3.48813 1.95025,-2.08558 4.65621,-3.42014 9.58686,-1.33821 8.50765,5.5934 6.4413,21.44471 -5.65997,26.08414 -6.21705,1.69556 -9.74389,-1.11205 -10.53019,-1.84278 -0.36288,-2.14057 -1.32609,-4.74064 -2.14991,-5.26509 0,0 0.67145,8.6398 -2.45704,18.27426 -3.12849,9.63445 -9.90212,20.11085 -25.075,24.08779 -30.79834,8.07249 -64.64257,2.1086 -77.35297,-3.81719 -6.54788,-3.05273 -13.163054,-6.31436 -18.054879,-11.8684 -4.891824,-5.55403 -8.181369,-13.43101 -7.919575,-26.12801 l -2.193788,-0.0439 c -0.04795,2.32635 0.04177,4.50773 0.219379,6.55943 -9.83729,-0.19499 -15.565359,-4.83856 -17.989063,-10.17918 -2.514804,-5.54135 -1.374344,-11.79952 2.742235,-14.85194 2.114271,-1.56773 3.94679,-1.91927 5.638036,-1.68922 1.691245,0.23005 3.284911,1.11215 4.65083,2.23766 2.13734,1.76117 3.630267,3.99847 4.190136,4.91409 0.09912,1.18613 0.208659,2.50171 0.329068,3.90494 0.132168,1.54026 0.15525,1.84893 0.263255,3.04937 -3.211425,-6.47857 -9.773169,-6.64866 -11.006548,-3.61348 3.569009,-0.71328 5.127631,0.69129 7.14548,2.4507 -2.539044,0.8435 -3.738727,2.91232 -3.444247,4.69471 0.154337,0.93416 0.705263,1.82248 1.623403,2.23766 0.918141,0.41518 2.077002,0.2645 3.11518,-0.39488 l 0,-0.0219 0.0219,0 c 1.08595,-0.70746 1.858697,-1.44076 2.325416,-2.28153 0.20213,-0.36413 0.32301,-0.75223 0.394882,-1.14077 0.0332,0.3632 0.153565,1.66727 0.153565,1.66727 l 2.17185,0 c 0,0 0.279338,-3.06469 0.987205,-9.17003 1.453488,-4.85559 1.298069,-11.50572 0.833639,-17.04573 -0.108812,-1.29799 -0.240846,-2.5298 -0.372944,-3.66363 0.850783,0.89365 1.85744,1.10841 3.027393,1.07496 -0.426831,-1.2805 -0.639119,-4.19188 -0.329068,-7.21757 0.31005,-3.02568 1.120699,-6.22537 2.435104,-8.33639 1.658483,-2.66363 2.606537,-6.94375 3.246807,-10.66181 0.279127,-1.62089 0.248386,-1.79859 0.394882,-2.98355 1.493011,2.61509 3.682545,5.02762 6.800747,7.06399 l 2.10603,1.38209 m 81.06058,-9.32356 c -0.24376,-5.7e-4 -0.47836,0.0206 -0.72395,0.0439 -0.65488,0.0622 -1.29403,0.20989 -1.95247,0.4607 -2.63376,1.00323 -5.10954,3.48415 -7.28338,7.83182 l -1.51371,3.04937 3.00549,-1.57953 c 0,0 2.08346,-1.1111 5.50641,-1.00914 3.42295,0.10196 8.09301,1.43429 13.18467,6.64717 l 1.84278,1.86472 0.0439,-2.63254 c 0.0712,-4.55586 -2.92563,-10.34104 -7.30531,-13.16273 -1.43709,-0.92587 -3.09803,-1.50975 -4.8044,-1.51371 z m 0.0439,2.19378 c 1.22246,-0.003 2.41126,0.41239 3.57587,1.16271 2.71507,1.74924 4.96067,5.38614 5.85742,8.55577 -4.60559,-3.83658 -8.99719,-5.20841 -12.37297,-5.30896 -1.48318,-0.0442 -2.70672,0.14815 -3.75138,0.37294 1.60619,-2.47477 3.24145,-3.83924 4.73859,-4.40951 0.48056,-0.18305 0.95659,-0.3031 1.42596,-0.35101 0.17601,-0.018 0.35187,-0.0215 0.52651,-0.0219 z m -73.33834,5.74773 c 2.76883,0.0529 5.82872,1.35562 8.46802,2.96161 -6.30401,-0.1587 -11.2217,2.45653 -14.61063,5.39672 -1.5133,1.31293 -2.66634,2.6201 -3.61975,3.83913 0.61781,-3.7618 1.64128,-6.47799 2.85193,-8.33639 1.63788,-2.51423 3.58171,-3.53575 5.74772,-3.79526 0.3818,-0.0458 0.76716,-0.0734 1.16271,-0.0658 z m 65.59427,7.65632 c -0.71213,-10e-4 -1.40906,0.0555 -2.0841,0.15356 -5.40034,0.78489 -9.32712,4.79131 -11.07863,10.44244 l -0.0219,0 c -2.74746,9.1406 0.008,17.82009 1.18465,20.86292 -0.28203,0.0496 -0.43876,0.0878 -0.43876,0.0878 l 0.50457,2.12798 c 0,0 14.95224,-3.70317 25.8867,10.81537 0.63496,-1.06926 -1.60092,-2.94728 -0.21938,-3.7075 1.44124,-1.56745 4.5988,-5.29664 6.77881,-10.11336 1.45334,-3.21115 2.48165,-6.93048 2.23766,-10.83732 -0.24398,-3.90683 -1.79833,-7.97985 -5.37478,-11.73676 l -0.0439,-0.0439 -0.0439,-0.0439 c -6.43443,-5.51124 -12.30214,-7.99912 -17.28705,-8.00733 z m -0.0219,2.19379 c 4.26843,0.0149 9.66612,2.1668 15.81722,7.415 0.0256,0.0218 0.0402,0.0439 0.0658,0.0658 3.20583,3.39721 4.48185,6.88033 4.69471,10.28887 0.21437,3.43256 -0.68864,6.81993 -2.04022,9.80623 -2.00555,4.43123 -4.93932,7.91807 -6.31811,9.43329 -6.5352,-6.28955 -13.85005,-7.84902 -18.80077,-8.0512 -1.20388,-0.0491 -2.25894,-0.0179 -3.13711,0.0439 -0.90238,-2.22595 -4.03166,-11.00259 -1.33821,-19.96347 1.5705,-5.0671 4.78293,-8.25003 9.30166,-8.90678 0.56279,-0.0818 1.14525,-0.13376 1.75503,-0.13163 z m -55.26152,1.64534 c -0.3286,0.003 -0.67097,0.023 -1.00914,0.0439 -4.05813,0.24994 -8.76517,1.83593 -13.57955,5.94517 -3.30106,2.81757 -4.79101,6.19397 -5.04571,9.52104 -0.25471,3.32707 0.66643,6.57793 1.95247,9.45523 1.89929,4.24936 4.65592,7.69232 5.9671,9.21391 -2.47697,2.28137 -3.57488,3.82968 -3.77331,6.05485 0,0 12.53093,-14.49924 33.21395,-7.78794 0.33696,-0.32528 0.2127,-0.63651 0.46069,-1.20662 0.76475,-8.85839 -0.49475,-15.24096 -2.12797,-19.61247 -1.63323,-4.37151 -3.7004,-6.76442 -4.36564,-7.52469 -0.54817,-0.62649 -1.49837,-1.32688 -3.00549,-2.0841 -1.50712,-0.75722 -3.50692,-1.4843 -5.87935,-1.82085 -0.88966,-0.1262 -1.82226,-0.2054 -2.80805,-0.19744 z m 0,2.19379 c 0.87217,-0.004 1.71292,0.0637 2.50092,0.1755 2.10133,0.29809 3.87994,0.96053 5.19928,1.6234 1.31934,0.66287 2.23739,1.43193 2.34735,1.55759 0.65103,0.74404 2.45433,2.78572 3.97076,6.84462 1.44532,3.86858 2.59729,9.52393 2.06216,17.46256 -3.46002,-0.96711 -6.69632,-1.37168 -9.67461,-1.36015 -6.80733,0.0263 -12.28535,2.18422 -16.25597,4.5192 -0.99162,-1.11151 -3.87134,-4.53419 -5.83551,-8.92872 -1.18981,-2.66201 -1.97042,-5.61056 -1.75503,-8.42414 0.21539,-2.81359 1.37365,-5.52847 4.27789,-8.00733 4.86801,-4.15502 9.38333,-5.44578 13.16272,-5.46253 z m 53.33099,4.01463 c -4.47523,0 -8.20477,3.80545 -8.20477,8.57771 0,4.77227 3.72954,8.57771 8.20477,8.57771 4.47523,0 8.18283,-3.80544 8.18283,-8.57771 0,-4.77226 -3.7076,-8.57771 -8.18283,-8.57771 z m 0,2.32541 c 3.43763,0 6.09873,2.83477 6.09873,6.2523 0,3.41754 -2.6611,6.27423 -6.09873,6.27423 -3.43763,0 -6.14261,-2.85669 -6.14261,-6.27423 0,-3.41753 2.70498,-6.2523 6.14261,-6.2523 z m -51.68565,0.85558 c -4.33118,0 -7.94151,3.69128 -7.94151,8.31446 0,4.62318 3.61033,8.29252 7.94151,8.29252 4.33119,0 7.94151,-3.66934 7.94151,-8.29252 0,-4.62318 -3.61032,-8.31446 -7.94151,-8.31446 z m 0,2.32542 c 3.29359,0 5.85741,2.7206 5.85741,5.98904 0,3.26845 -2.56382,5.98904 -5.85741,5.98904 -3.29358,0 -5.87935,-2.72059 -5.87935,-5.98904 0,-3.26844 2.58577,-5.98904 5.87935,-5.98904 z m 97.09706,22.55214 c -0.53298,1.48052 -0.30593,3.2965 0.98721,4.84827 l 0.10969,0.13163 0.15356,0.10969 c 1.42416,0.8901 3.0057,0.86299 4.27789,0.41682 1.27219,-0.44617 2.28456,-1.26095 2.96161,-2.12798 0.33854,-0.43351 0.61296,-0.86784 0.74589,-1.38208 0.13294,-0.51425 0.0982,-1.28127 -0.46069,-1.77697 -1.48489,-1.33366 -4.52886,0.98727 -4.64493,2.08098 0.35253,-0.1814 2.08296,-0.45066 2.34145,0.0251 0.29601,0.54478 -1.01595,0.89041 -1.66728,1.11883 -0.73599,0.25813 -1.45258,0.25695 -2.21573,-0.15356 -0.76273,-0.98834 -0.8226,-1.72232 -0.5265,-2.5448 0.31318,-0.86996 1.14371,-1.83653 2.17185,-2.67642 2.05627,-1.67977 4.71664,-2.80805 4.71664,-2.80805 -4.01782,-1.06274 -7.65554,1.3106 -8.95066,4.73859 z m -140.599909,3.5759 c -0.224994,0.40532 -0.716571,0.94566 -1.579527,1.51372 -0.601709,0.38216 -0.877206,0.33284 -1.03108,0.26325 -0.153875,-0.0696 -0.316755,-0.25224 -0.372944,-0.59232 -0.112372,-0.68015 0.186152,-1.8361 2.17185,-2.36929 1.214334,-0.29867 1.044713,0.41274 0.811701,1.18464 z m 62.084209,2.96162 c 0,0 -1.00976,3.15965 0.74588,6.12067 0.87783,1.48051 2.45248,2.84437 4.95797,3.68556 3.88138,0.96435 9.09703,0.46067 10.4863,-1.4479 -4.5512,0.43345 -7.68591,0.0903 -9.78429,-0.61426 -3.63318,-1.16505 -5.84176,-4.67733 -6.40586,-7.74407 z m 26.34739,14.76419 c -1.1822,0.97798 -1.18711,2.10794 -0.96526,3.66363 -6.41692,3.68139 -12.74411,4.15748 -17.76969,3.72944 -2.60477,-0.22186 -4.84645,-0.7023 -6.55943,-1.0969 -0.60509,-0.13938 -1.06286,-0.24153 -1.53565,-0.351 0.48483,-1.09697 0.42177,-2.67167 -0.54844,-3.40037 -1.00897,2.60549 -3.37573,4.26512 -5.83548,4.5192 0.37654,1.085 2.26035,1.47613 3.79525,1.05302 0.0803,0.14855 0.13864,0.28263 0.24132,0.46069 0.38373,0.66546 0.90698,1.47397 1.60146,2.32542 1.38898,1.7029 3.42302,3.58813 6.12067,4.67277 2.69765,1.08464 6.06488,1.32597 9.87205,-0.19744 3.66335,-1.46586 7.72772,-4.54267 12.2194,-9.89399 0.94572,0.77782 2.18454,1.40299 3.77332,1.64534 -2.37726,-2.20026 -4.27566,-3.54338 -4.40952,-7.12981 z m -4.43145,7.72214 c -2.94875,2.87135 -5.62508,4.68041 -7.96345,5.61609 -3.33336,1.33382 -6.01808,1.09428 -8.24864,0.19745 -2.23057,-0.89684 -3.99577,-2.51223 -5.22122,-4.01464 -0.39551,-0.48489 -0.64358,-0.89068 -0.92139,-1.31627 0.34045,0.0802 0.59748,0.14649 1.00914,0.24132 1.75231,0.40365 4.1087,0.88394 6.86656,1.11883 4.13679,0.35234 9.19671,0.1338 14.479,-1.84278 z m -18.1865,12.83366 c 0,0 1.53606,1.51639 3.90494,2.34735 2.36888,0.83097 5.74304,0.9141 8.99453,-1.75503 -6.55572,1.10995 -7.60547,0.8227 -12.89947,-0.59232 z m 21.76234,13.25048 c -0.22981,1.05375 -0.48645,2.53108 -0.61426,4.1682 -0.20601,2.63877 -0.12482,5.73747 1.42596,7.94151 -5.65921,3.16414 -11.47855,3.03416 -16.23403,1.93053 -2.46693,-0.57251 -4.59026,-1.394 -6.23036,-2.14991 0.98961,-4.9841 0.10683,-9.44591 -0.50457,-11.64902 7.01921,0.4559 14.51356,0.42535 22.15726,-0.24131 z m -25.68926,56.07322 c 0,0 3.42913,-0.2664 7.63438,-0.32907 3.5402,0.26608 8.73629,2.64181 11.12251,6.16455 0.31926,-2.77754 -2.85395,-5.23583 -4.58502,-6.05486 1.23474,0.0768 2.41725,0.1935 3.48812,0.35101 2.23217,0.32832 3.96866,0.99124 4.45339,1.46984 -4.79943,-6.27916 -17.27137,-4.52527 -22.11338,-1.60147 z"
         style="font-size:medium;font-style:normal;font-variant:normal;font-weight:normal;font-stretch:normal;text-indent:0;text-align:start;text-decoration:none;line-height:normal;letter-spacing:normal;word-spacing:normal;text-transform:none;direction:ltr;block-progression:tb;writing-mode:lr-tb;text-anchor:start;baseline-shift:baseline;color:#000000;fill:#000000;fill-opacity:1;stroke:none;stroke-width:3.125;marker:none;visibility:visible;display:inline;overflow:visible;enable-background:accumulate;font-family:Sans;-inkscape-font-specification:Sans" />
      <path
         id="path4210"
         d="m 163.65607,383.01205 c -1.32056,0.49414 -2.62311,0.86976 -3.90494,1.1627 -1.28182,0.29295 -2.55213,0.50737 -3.77331,0.6362 -1.22119,0.12884 -2.39336,0.17368 -3.532,0.17551 -1.13865,0.002 -2.23455,-0.0435 -3.26875,-0.13163 -2.75786,-0.23489 -5.11424,-0.71518 -6.86655,-1.11883 -0.41166,-0.0948 -0.66869,-0.16112 -1.00915,-0.24132 0.27781,0.42559 0.52589,0.83138 0.92139,1.31627 0.61273,0.75121 1.36437,1.53391 2.23767,2.23767 0.8733,0.70375 1.86826,1.32855 2.98355,1.77697 0.55764,0.2242 1.13758,0.39877 1.75503,0.5265 0.61745,0.12774 1.26913,0.21675 1.95247,0.21938 0.68334,0.003 1.39461,-0.0683 2.14991,-0.21938 0.75531,-0.1511 1.5579,-0.39049 2.39123,-0.72395 1.16919,-0.46784 2.42141,-1.15595 3.75138,-2.08409 1.32998,-0.92815 2.7377,-2.09633 4.21207,-3.532 z"
         style="fill:#ffffff;stroke:none"
         inkscape:connector-curvature="0" />
      <path
         id="path4229"
         transform="translate(0,200)"
         d="m 173.90625,130.0625 c -0.95197,0 -1.71875,0.76678 -1.71875,1.71875 0,0.95197 0.76678,1.71875 1.71875,1.71875 0.95197,0 1.71875,-0.76678 1.71875,-1.71875 0,-0.95197 -0.76678,-1.71875 -1.71875,-1.71875 z m -49,3.0625 c -0.95197,0 -1.71875,0.76678 -1.71875,1.71875 0,0.95197 0.76678,1.71875 1.71875,1.71875 0.95197,0 1.71875,-0.76678 1.71875,-1.71875 0,-0.95197 -0.76678,-1.71875 -1.71875,-1.71875 z"
         style="fill:#ccbe8c;fill-opacity:1;stroke:none"
         inkscape:connector-curvature="0" />
      <path
         transform="matrix(0.77319843,-0.17732815,0.14854877,0.94074527,0.90201835,230.42752)"
         d="m 135.35714,159.64285 c 0,2.07107 -4.95685,3.75 -11.07143,3.75 -6.11458,0 -11.07143,-1.67893 -11.07143,-3.75 0,-2.07107 4.95685,-3.75 11.07143,-3.75 6.11458,0 11.07143,1.67893 11.07143,3.75 z"
         sodipodi:ry="3.75"
         sodipodi:rx="11.071428"
         sodipodi:cy="159.64285"
         sodipodi:cx="124.28571"
         id="path3016"
         style="fill:#fed9a2;fill-opacity:1;stroke:none"
         sodipodi:type="arc" />
      <path
         sodipodi:type="arc"
         style="fill:#fed9a2;fill-opacity:1;stroke:none"
         id="path3018"
         sodipodi:cx="124.28571"
         sodipodi:cy="159.64285"
         sodipodi:rx="11.071428"
         sodipodi:ry="3.75"
         d="m 135.35714,159.64285 c 0,2.07107 -4.95685,3.75 -11.07143,3.75 -6.11458,0 -11.07143,-1.67893 -11.07143,-3.75 0,-2.07107 4.95685,-3.75 11.07143,-3.75 6.11458,0 11.07143,1.67893 11.07143,3.75 z"
         transform="matrix(0.7211205,0.33055454,-0.45546998,0.83643021,159.87327,183.4224)" />
      <path
         transform="matrix(0.32327092,0.09886357,0.06676273,0.57132673,99.622468,261.35869)"
         d="m 135.35714,159.64285 c 0,2.07107 -4.95685,3.75 -11.07143,3.75 -6.11458,0 -11.07143,-1.67893 -11.07143,-3.75 0,-2.07107 4.95685,-3.75 11.07143,-3.75 6.11458,0 11.07143,1.67893 11.07143,3.75 z"
         sodipodi:ry="3.75"
         sodipodi:rx="11.071428"
         sodipodi:cy="159.64285"
         sodipodi:cx="124.28571"
         id="path3020"
         style="fill:#fed9a2;fill-opacity:1;stroke:none"
         sodipodi:type="arc" />
      <path
         sodipodi:type="arc"
         style="fill:#fed9a2;fill-opacity:1;stroke:none"
         id="path3022"
         sodipodi:cx="124.28571"
         sodipodi:cy="159.64285"
         sodipodi:rx="11.071428"
         sodipodi:ry="3.75"
         d="m 135.35714,159.64285 c 0,2.07107 -4.95685,3.75 -11.07143,3.75 -6.11458,0 -11.07143,-1.67893 -11.07143,-3.75 0,-2.07107 4.95685,-3.75 11.07143,-3.75 6.11458,0 11.07143,1.67893 11.07143,3.75 z"
         transform="matrix(0.23568207,-0.03912284,0.22236173,0.33821602,89.835122,345.08045)" />
      <path
         transform="matrix(0.23568207,-0.03912284,0.22236173,0.33821602,164.83512,295.43759)"
         d="m 135.35714,159.64285 c 0,2.07107 -4.95685,3.75 -11.07143,3.75 -6.11458,0 -11.07143,-1.67893 -11.07143,-3.75 0,-2.07107 4.95685,-3.75 11.07143,-3.75 6.11458,0 11.07143,1.67893 11.07143,3.75 z"
         sodipodi:ry="3.75"
         sodipodi:rx="11.071428"
         sodipodi:cy="159.64285"
         sodipodi:cx="124.28571"
         id="path3025"
         style="fill:#fed9a2;fill-opacity:1;stroke:none"
         sodipodi:type="arc" />
      <path
         sodipodi:type="arc"
         style="fill:#fed9a2;fill-opacity:1;stroke:none"
         id="path3027"
         sodipodi:cx="124.28571"
         sodipodi:cy="159.64285"
         sodipodi:rx="11.071428"
         sodipodi:ry="3.75"
         d="m 135.35714,159.64285 c 0,2.07107 -4.95685,3.75 -11.07143,3.75 -6.11458,0 -11.07143,-1.67893 -11.07143,-3.75 0,-2.07107 4.95685,-3.75 11.07143,-3.75 6.11458,0 11.07143,1.67893 11.07143,3.75 z"
         transform="matrix(0.20253868,-0.12670722,0.3352806,0.22676361,-9.3681868,324.3682)" />
    </g>
  </g>
</svg>
