<?xml version="1.0" encoding="UTF-8" standalone="no"?>
<!-- Created with Inkscape (http://www.inkscape.org/) -->
<svg xmlns:dc="http://purl.org/dc/elements/1.1/" xmlns:cc="http://creativecommons.org/ns#" xmlns:rdf="http://www.w3.org/1999/02/22-rdf-syntax-ns#" xmlns:svg="http://www.w3.org/2000/svg" xmlns="http://www.w3.org/2000/svg" xmlns:xlink="http://www.w3.org/1999/xlink" xmlns:sodipodi="http://sodipodi.sourceforge.net/DTD/sodipodi-0.dtd" xmlns:inkscape="http://www.inkscape.org/namespaces/inkscape" id="svg5316" version="1.1" inkscape:version="0.48.4 r9939" width="808" height="913" sodipodi:docname="flocon1.png">
  <defs id="defs5320">
    <radialGradient inkscape:collect="always" xlink:href="#linearGradient5035" id="radialGradient5041" cx="416.80444" cy="455.98654" fx="416.80444" fy="455.98654" r="252.98938" gradientTransform="matrix(1,0,0,1.1471676,0,-67.106424)" gradientUnits="userSpaceOnUse"/>
    <linearGradient id="linearGradient5035">
      <stop style="stop-color:#00eaff;stop-opacity:0.06015038;" offset="0" id="stop5037"/>
      <stop style="stop-color:#00dcff;stop-opacity:1;" offset="1" id="stop5039"/>
    </linearGradient>
    <radialGradient r="252.98938" fy="455.98654" fx="416.80444" cy="455.98654" cx="416.80444" gradientTransform="matrix(1,0,0,1.1471676,-163.81506,-232.87174)" gradientUnits="userSpaceOnUse" id="radialGradient5343" xlink:href="#linearGradient5035" inkscape:collect="always"/>
  </defs>
  <sodipodi:namedview pagecolor="#ffffff" bordercolor="#666666" borderopacity="1" objecttolerance="10" gridtolerance="10" guidetolerance="10" inkscape:pageopacity="0" inkscape:pageshadow="2" inkscape:window-width="640" inkscape:window-height="480" id="namedview5318" showgrid="false" inkscape:zoom="0.2584885" inkscape:cx="404" inkscape:cy="456.5" inkscape:window-x="0" inkscape:window-y="0" inkscape:window-maximized="0" inkscape:current-layer="svg5316"/>
  <path style="fill:url(#radialGradient5041);color:#000000;fill-opacity:1;fill-rule:nonzero;stroke:#000000;stroke-width:1;stroke-linecap:butt;stroke-linejoin:miter;stroke-miterlimit:4;stroke-opacity:1;stroke-dasharray:none;stroke-dashoffset:0;marker:none;visibility:visible;display:inline;overflow:visible;enable-background:accumulate" d="M 390.41228,727.2395 C 388.91225,726.21968 387.94887,722 389.21606,722 c 0.63403,0 0.57583,-0.54583 -0.15165,-1.42239 -0.95916,-1.15572 -0.97436,-8.14368 -0.023,-10.57761 0.10749,-0.275 0.10274,-0.95 -0.0105,-1.5 -0.11329,-0.55 -0.17036,-4.4875 -0.12683,-8.75 0.0959,-9.38769 -0.62091,-9.67032 -7.60845,-3 C 365.28464,712.03407 361,715.47207 361,713.03518 361,712.46583 360.16974,712 359.15499,712 357.20588,712 354,709.06954 354,707.28789 c 0,-0.58004 -0.85417,-1.278 -1.89815,-1.55101 -1.04399,-0.273 -2.65691,-1.65437 -3.58426,-3.0697 -1.58505,-2.41908 -1.58172,-2.74096 0.0555,-5.37025 0.95789,-1.53831 10.3333,-10.88591 20.83426,-20.77244 10.50096,-9.88653 19.47824,-18.59501 19.94952,-19.35218 0.47128,-0.75716 0.96805,-7.10733 1.10393,-14.11147 l 0.24706,-12.7348 -2.34613,1.08698 c -1.29037,0.59784 -2.34964,1.47584 -2.35393,1.95111 -0.0116,1.2883 -8.30281,8.54742 -9.81682,8.59486 -0.71996,0.0226 -1.06592,0.43434 -0.76882,0.91507 0.29711,0.48073 -0.63806,1.71823 -2.07817,2.75 -1.4401,1.03177 -3.71765,3.07037 -5.06121,4.53024 -2.41846,2.62782 -6.28278,4.39226 -6.28278,2.86871 0,-0.43436 -0.90186,-1.02559 -2.00413,-1.31384 -1.17725,-0.30786 -1.78789,-1.08759 -1.48003,-1.88986 0.32871,-0.8566 -0.60176,-1.79072 -2.49587,-2.50567 C 353.98892,646.547 353,645.49036 353,644.08686 353,642.66667 352.36108,642 351,642 c -1.40396,0 -2.00347,-0.67055 -2.01164,-2.25 -0.0117,-2.26556 15.75915,-18.18358 33.19182,-33.5015 4.27368,-3.75524 8.15158,-8.07913 8.74299,-9.7485 1.2294,-3.47025 2.14765,-29.76737 1.0987,-31.46462 -0.65459,-1.05915 -2.16978,-0.29798 -14.46729,7.26775 -2.14868,1.32192 -3.99292,2.65884 -5.83928,4.23299 C 369.25341,578.63505 360.87346,584 360.05686,584 c -0.46359,0 -1.1019,0.675 -1.41849,1.5 -0.31658,0.825 -1.24236,1.5 -2.0573,1.5 -0.81493,0 -1.84155,0.5625 -2.28138,1.25 -0.43983,0.6875 -1.51975,1.7 -2.39981,2.25 -3.28851,2.05516 -13.41844,9.01496 -13.89988,9.54995 -0.275,0.30559 -2.3,1.63312 -4.5,2.95005 -2.2,1.31693 -4.225,2.64318 -4.5,2.94721 -0.47459,0.5247 -10.24324,7.12767 -14.50608,9.80518 -1.09666,0.68881 -3.00642,1.69017 -4.24392,2.22525 -1.2375,0.53507 -2.25,1.434 -2.25,1.99761 0,0.56361 -0.6199,1.02475 -1.37756,1.02475 -0.75765,0 -1.95019,0.68999 -2.65008,1.5333 -3.17396,3.82439 -4.32696,-0.40391 -2.73595,-10.0333 1.50555,-9.11215 1.70243,-10.557 2.24835,-16.5 0.91094,-9.91678 1.66051,-15.44405 2.58726,-19.07808 0.50187,-1.96795 1.12041,-6.72221 1.37454,-10.56502 0.25413,-3.84281 0.96646,-9.20767 1.58296,-11.92191 0.6165,-2.71425 1.32582,-7.63499 1.57626,-10.93499 0.25044,-3.3 0.97989,-8.925 1.621,-12.5 0.64111,-3.575 1.23382,-6.95 1.31712,-7.5 0.0833,-0.55 0.25657,-1.225 0.38503,-1.5 0.12845,-0.275 0.32658,-1.78824 0.44027,-3.36275 0.20744,-2.87274 -1.95347,-4.85548 -3.22012,-2.95463 -0.81758,1.22691 -7.04216,4.31738 -8.69573,4.31738 -0.68165,0 -1.49839,0.675 -1.81498,1.5 -0.31658,0.825 -1.27367,1.5 -2.12686,1.5 -0.85319,0 -3.33337,1.125 -5.51151,2.5 -2.17814,1.375 -4.3067,2.50224 -4.73013,2.50497 -2.53721,0.0164 -6.25316,5.05157 -7.74528,10.49503 -2.1988,8.02159 -6.10675,20.76202 -10.18246,33.19617 C 268.50396,577.30406 267,582.54171 267,583.33539 c 0,0.79367 -0.80922,2.44239 -1.79827,3.66381 l -1.79826,2.22076 -6.95174,-2.24244 c -12.78711,-4.12477 -12.13427,-3.719 -11.70354,-7.27426 0.21345,-1.76179 0.79356,-4.10326 1.28914,-5.20326 C 246.80789,572.78962 254,548.40227 254,547.49979 c 0,-0.26711 -4.2758,1.86499 -16.56901,8.26203 -1.06204,0.55266 -3.20333,1.60203 -4.75842,2.33193 -3.64236,1.70959 -3.97724,2.40091 -8.79541,18.15717 -8.53595,27.91409 -12.41262,39.2436 -13.37716,39.09457 -0.55,-0.085 -1.29742,0.32673 -1.66093,0.91491 -0.63199,1.02258 -2.20541,0.67366 -15.83907,-3.51247 -1.925,-0.59106 -2.91872,-1.2699 -2.20826,-1.50854 0.94886,-0.31871 1.00233,-0.7826 0.20144,-1.74761 -0.76781,-0.92515 -0.77533,-1.50839 -0.0254,-1.97185 0.58568,-0.36197 0.79379,-1.09674 0.46247,-1.63283 -0.33132,-0.53609 -0.1562,-1.5175 0.38916,-2.1809 1.32874,-1.61637 7.65004,-25.57011 6.93623,-26.28393 -0.30899,-0.30898 -2.38748,0.3696 -4.61887,1.50797 C 191.90536,580.06861 189.38675,581 188.53984,581 187.69293,581 187,581.34767 187,581.7726 c 0,1.17338 -7.16366,4.77153 -8.78103,4.41052 -0.78082,-0.17429 -1.13111,0.15002 -0.77842,0.72068 0.35831,0.57976 -0.59018,1.3442 -2.14965,1.73253 -1.535,0.38223 -3.27686,1.35285 -3.87081,2.15694 -0.94018,1.27283 -1.55478,1.23665 -4.75,-0.27958 C 164.41796,589.44498 163,588.06623 163,586.94508 c 0,-1.00488 -0.40084,-2.07478 -0.89075,-2.37756 -0.48991,-0.30278 -2.0431,-2.75434 -3.45152,-5.4479 -2.39104,-4.57277 -2.44799,-4.99175 -0.85925,-6.32102 2.58724,-2.16469 6.60601,-4.53036 7.48799,-4.40785 0.43257,0.0601 1.10757,-0.34075 1.5,-0.89075 0.69221,-0.97012 4.47454,-3.12316 14.60502,-8.31367 6.18959,-3.17134 5.62459,-3.64085 -9.75045,-8.1024 -6.37286,-1.84928 -11.37355,-3.70772 -11.11265,-4.12987 0.2609,-0.42215 -0.42625,-0.53202 -1.52701,-0.24417 -1.10076,0.28786 -2.00138,0.035 -2.00138,-0.56187 0,-0.59689 -0.67858,-0.82485 -1.50796,-0.50659 -1.2162,0.4667 -1.4198,-0.10994 -1.05231,-2.98028 0.52684,-4.11487 2.47687,-11.70017 3.38348,-13.16115 0.3413,-0.55 0.71168,-1.60197 0.82306,-2.33771 0.11138,-0.73574 0.95381,-2.16789 1.87208,-3.18256 1.65399,-1.82765 3.6399,-1.71218 6.31508,0.36719 0.73338,0.57004 2.08338,1.10402 3,1.18661 4.65851,0.41976 10.22039,1.74454 10.72035,2.55348 0.31034,0.50215 1.85555,0.91299 3.43381,0.91299 1.57825,0 3.54326,0.67371 4.36668,1.49713 0.82342,0.82342 2.18836,1.23187 3.03319,0.90768 0.84484,-0.32419 2.95793,0.11988 4.69577,0.98682 1.73783,0.86695 3.57475,1.31975 4.08204,1.00623 0.50729,-0.31352 1.46513,-0.12157 2.12853,0.42656 0.66341,0.54814 2.8937,1.31196 4.9562,1.69738 2.0625,0.38543 3.75,1.04363 3.75,1.46267 0,1.86206 9.65098,0.87742 14,-1.42835 2.475,-1.3122 6.525,-3.47292 9,-4.8016 2.475,-1.32867 4.5,-3.05126 4.5,-3.82796 0,-0.95514 -4.53715,-2.73208 -14.01921,-5.49052 -7.71056,-2.24309 -14.74898,-4.49633 -15.64092,-5.00719 -1.46333,-0.83813 -1.33554,-1.89192 1.30839,-10.78947 3.07789,-10.3579 4.63709,-13.00811 6.84888,-11.64115 0.72682,0.4492 1.9248,0.58522 2.66218,0.30226 0.73737,-0.28296 1.34068,-0.0726 1.34068,0.46752 0,0.96502 3.60941,2.05385 9.46895,2.85643 1.63292,0.22367 3.35675,1.09962 3.83072,1.94656 0.64575,1.15389 1.19524,1.26315 2.19202,0.43589 0.91901,-0.7627 1.5306,-0.77984 1.9783,-0.0555 0.35642,0.57671 1.52149,1.04856 2.58903,1.04856 1.06754,0 1.94098,0.49814 1.94098,1.10699 0,0.61148 0.72816,0.82757 1.62675,0.48275 0.89471,-0.34334 2.225,-0.12774 2.95619,0.4791 0.7312,0.60684 1.76807,0.83226 2.30416,0.50094 0.53609,-0.33132 1.27632,-0.11439 1.64495,0.48208 0.36864,0.59647 1.28532,0.84846 2.03708,0.55999 0.75175,-0.28848 1.63279,-0.0942 1.95786,0.43182 0.32508,0.52598 1.57699,0.9591 2.78203,0.96249 1.20504,0.003 3.31598,0.57339 4.69098,1.26667 4.25917,2.14748 12.65489,2.1047 15.7728,-0.0804 1.49996,-1.05119 4.5272,-2.7383 6.7272,-3.74914 4.75303,-2.18388 14.50646,-8.46965 14.48469,-9.3349 -0.0398,-1.58219 -1.8806,-3.29079 -2.87995,-2.67315 -0.61538,0.38032 -1.36946,0.0385 -1.67573,-0.75967 -0.30628,-0.79815 -1.84498,-1.70879 -3.41933,-2.02366 -4.33645,-0.86729 -12.06832,-4.74805 -11.45073,-5.74732 0.29971,-0.48494 -0.0954,-0.636 -0.87797,-0.33569 -0.78259,0.3003 -1.68893,-0.14726 -2.01408,-0.9946 -0.34172,-0.89051 -1.24013,-1.29159 -2.12905,-0.95048 C 274.69203,480.94842 274,480.71583 274,480.10699 274,479.49814 273.28051,479 272.40113,479 c -1.44802,0 -5.01349,-1.36393 -11.117,-4.25267 -1.21873,-0.57682 -1.94988,-1.47915 -1.62477,-2.00518 0.35014,-0.56654 -0.27524,-0.68145 -1.53413,-0.2819 C 256.53587,472.9647 256,472.71259 256,471.4604 c 0,-1.07749 -0.53472,-1.46919 -1.5,-1.09877 -0.825,0.31658 -1.5,0.19597 -1.5,-0.26801 0,-0.46399 -1.34074,-1.11177 -2.97943,-1.43951 -4.87286,-0.97457 -16.15058,-6.63473 -15.45666,-7.75752 0.35024,-0.5667 0.0291,-0.92809 -0.71356,-0.8031 -0.74269,0.12499 -2.70035,-0.30721 -4.35035,-0.96044 -13.36854,-5.29255 -16.49391,-6.80629 -16.49674,-7.99004 -0.002,-0.75959 -0.62719,-1.11756 -1.4205,-0.81314 -0.77948,0.29911 -1.67631,-0.13126 -1.99294,-0.95639 -0.31663,-0.82514 -0.99778,-1.23938 -1.51366,-0.92055 -0.51588,0.31883 -1.22062,0.12235 -1.56608,-0.43662 C 206.16462,447.45734 205.00852,447 203.94098,447 202.87344,447 202,446.58064 202,446.06809 c 0,-1.37864 5.19148,-4.82706 8.5275,-5.66435 1.59802,-0.40108 3.76889,-1.5336 4.82414,-2.51671 1.05524,-0.98312 3.28988,-2.08866 4.96585,-2.45676 1.67597,-0.36811 4.59311,-1.53756 6.48253,-2.59878 1.88942,-1.06122 3.64596,-1.71884 3.90343,-1.46138 0.25746,0.25747 2.79202,-0.80725 5.63233,-2.36603 2.84032,-1.55879 5.61422,-2.9124 6.16422,-3.00801 0.55,-0.0956 2.88781,-1.03386 5.19514,-2.08496 2.30732,-1.05111 4.78232,-1.92542 5.5,-1.94291 0.71767,-0.0175 2.17837,-0.6925 3.24599,-1.5 1.06762,-0.80751 2.98012,-1.4682 4.25,-1.4682 1.26988,0 2.30887,-0.525 2.30887,-1.16667 0,-0.64166 0.30098,-0.86568 0.66885,-0.49781 0.36787,0.36786 1.38037,0.0565 2.25,-0.69192 0.86963,-0.74842 5.63115,-2.80208 10.58115,-4.56368 4.95,-1.7616 9.99667,-3.85024 11.21482,-4.64142 1.21815,-0.79117 2.94868,-1.4385 3.84563,-1.4385 0.89694,0 2.82528,-0.84096 4.28518,-1.8688 1.4599,-1.02785 3.62623,-2.17027 4.81406,-2.53873 1.18784,-0.36846 2.76284,-1.41175 3.5,-2.31843 1.16238,-1.42965 1.10799,-1.56143 -0.40969,-0.99266 -0.9625,0.36072 -1.75,0.22601 -1.75,-0.29934 0,-0.52536 -1.57069,-1.61148 -3.49043,-2.41359 -1.91973,-0.80212 -4.53257,-2.49566 -5.80631,-3.76342 -1.27373,-1.26777 -4.54054,-3.23102 -7.25957,-4.36277 -3.6371,-1.5139 -4.86071,-2.52818 -4.62972,-3.8377 0.24512,-1.3896 -0.13865,-1.63629 -1.75,-1.12486 C 277.80638,382.87884 277,382.69142 277,382 c 0,-0.6797 -0.80205,-0.88021 -2,-0.5 -1.27681,0.40524 -2,0.1797 -2,-0.62374 0,-0.81915 -0.43639,-0.69334 -1.25,0.36038 -0.6875,0.8904 -2.6,1.7469 -4.25,1.90334 -1.65,0.15644 -3.55677,0.68929 -4.23727,1.1841 -0.68049,0.49482 -1.99451,0.60909 -2.92005,0.25393 -0.92553,-0.35516 -1.96143,-0.19488 -2.30201,0.35618 -0.34057,0.55106 -2.17655,1.09595 -4.07995,1.21086 -1.90339,0.11491 -3.94063,0.56584 -4.52719,1.00207 -0.58656,0.43623 -2.61156,0.89754 -4.5,1.02513 -1.88844,0.12759 -3.65853,0.54591 -3.93353,0.92961 -0.275,0.38369 -2.075,0.83182 -4,0.99583 -1.925,0.16401 -3.95,0.5958 -4.5,0.95954 -0.55,0.36374 -2.575,0.9959 -4.5,1.4048 -10.52492,2.23565 -11,2.27828 -11,0.98703 0,-0.70532 -0.45959,-1.43559 -1.02132,-1.62283 -0.56173,-0.18725 -1.08464,-2.02475 -1.16203,-4.08334 C 214.73926,385.6843 214.29885,384 213.83797,384 213.37709,384 213,383.12117 213,382.04705 c 0,-1.07412 -0.52599,-3.10737 -1.16887,-4.51834 -0.99739,-2.18902 -0.87608,-2.83818 0.82687,-4.42472 1.98652,-1.85072 6.17296,-3.67629 7.58096,-3.30579 0.40643,0.10694 2.47731,-0.50111 4.60196,-1.35123 2.12465,-0.85011 4.26712,-1.45079 4.76104,-1.33483 0.49392,0.11595 2.16483,-0.31184 3.71314,-0.95066 1.5483,-0.63881 3.43963,-1.16148 4.20295,-1.16148 0.76331,0 2.4795,-0.49739 3.81374,-1.10531 3.69526,-1.68367 2.26326,-4.1741 -3.93983,-6.85185 -3.86011,-1.66633 -5.31723,-2.7952 -4.92553,-3.81595 0.37631,-0.98065 0.0759,-1.26524 -0.92864,-0.87976 -0.82853,0.31793 -1.90546,-0.18171 -2.43634,-1.13033 -0.52329,-0.93508 -1.28129,-1.37029 -1.68444,-0.96715 -0.40314,0.40315 -1.2244,0.33081 -1.825,-0.16075 -1.70691,-1.39701 -4.83761,-1.50622 -7.83333,-0.27326 -1.50772,0.62054 -3.42595,0.86553 -4.26273,0.54443 -0.83678,-0.3211 -2.12369,-0.084 -2.8598,0.52693 -0.73611,0.61092 -2.64287,1.19288 -4.23726,1.29325 -1.59439,0.10036 -3.41217,0.56512 -4.03952,1.03279 -0.62735,0.46767 -2.65235,0.94856 -4.5,1.06864 -1.84765,0.12007 -3.60671,0.549 -3.90902,0.95317 -0.30231,0.40416 -2.17096,0.85416 -4.15255,1 -1.98159,0.14583 -3.39519,0.60265 -3.14133,1.01515 0.25386,0.4125 -1.11344,0.75 -3.03844,0.75 -1.925,0 -3.80876,0.4996 -4.18614,1.11021 -0.40173,0.65001 -2.08426,0.88333 -4.05902,0.56287 C 173.51779,359.37204 172,359.49867 172,359.95446 c 0,1.44251 -4.95626,2.13932 -7.09086,0.99691 -1.54582,-0.82729 -1.9796,-1.91219 -1.7642,-4.41233 0.1571,-1.82342 -0.1992,-3.92814 -0.79177,-4.67717 -1.76618,-2.23251 -2.563,-6.86187 -1.18109,-6.86187 0.6656,0 0.39573,-0.59554 -0.5997,-1.32342 -1.58249,-1.15714 -1.6391,-1.59688 -0.45058,-3.5 0.74761,-1.19712 2.34949,-2.17658 3.55973,-2.17658 1.21024,0 2.43145,-0.3738 2.71381,-0.83066 0.72491,-1.17292 11.36343,-3.43646 12.58957,-2.67866 0.5583,0.34504 1.01509,0.20264 1.01509,-0.31645 0,-0.5191 2.5875,-1.55816 5.75,-2.30902 7.1971,-1.70879 7.44244,-3.5571 0.88763,-6.6869 -2.70754,-1.29281 -5.0877,-3.18338 -5.37084,-4.26609 -0.27965,-1.06942 -1.01659,-1.85437 -1.63763,-1.74433 C 177.36843,319.56843 171,316.08217 171,314.44404 c 0,-1.04973 -0.54062,-1.45056 -1.47355,-1.09256 -0.81046,0.311 -1.82296,-0.0249 -2.25,-0.74638 -0.42705,-0.72151 -1.34651,-1.49284 -2.04325,-1.71407 -1.34807,-0.42803 -1.01875,-1.1935 5.761,-13.39103 3.69562,-6.64883 4.9001,-7.83261 6.56427,-6.45147 0.61905,0.51376 1.4554,0.60427 1.85854,0.20112 0.40315,-0.40314 1.1716,0.0508 1.70768,1.00868 0.53608,0.95792 1.62733,1.74167 2.425,1.74167 0.79767,0 1.45031,0.3596 1.45031,0.79911 0,0.43951 1.575,1.36864 3.5,2.06473 1.925,0.69609 3.5,1.68649 3.5,2.20089 0,0.5144 0.675,0.93527 1.5,0.93527 0.825,0 1.5,0.44396 1.5,0.98658 0,0.54262 1.575,1.64466 3.5,2.44897 1.925,0.80432 3.5,1.89323 3.5,2.4198 0,0.52658 0.91038,0.71934 2.02306,0.42837 1.6124,-0.42165 1.98379,-1.26536 1.82958,-4.15638 -0.10643,-1.99504 -0.60555,-4.17013 -1.10916,-4.83354 -0.50361,-0.6634 -0.61318,-1.69561 -0.24348,-2.2938 0.3697,-0.59819 0.16036,-1.70432 -0.46521,-2.45807 -0.62556,-0.75376 -1.23753,-2.87155 -1.35994,-4.7062 -0.12241,-1.83465 -0.53417,-3.83073 -0.91501,-4.43572 -0.38085,-0.605 -0.88329,-3.14285 -1.11654,-5.63968 -0.36148,-3.86944 -0.10808,-4.70014 1.7163,-5.62645 3.15371,-1.60127 15.89138,-4.75299 17.70367,-4.38048 1.09344,0.22475 2.38485,3.69117 4.29696,11.53396 1.50353,6.16695 3.35189,13.67583 4.10746,16.68639 0.75558,3.01057 1.1771,5.79197 0.93673,6.1809 -0.24037,0.38894 0.0386,1.00112 0.61995,1.36041 0.58134,0.35929 0.78336,1.51538 0.44892,2.5691 -0.36353,1.14539 -0.13579,1.91584 0.56631,1.91584 0.67372,0 0.90825,0.69352 0.55014,1.62675 -0.34334,0.89471 -0.20878,2.13221 0.299,2.75 0.50779,0.61779 1.18223,2.47325 1.49876,4.12325 1.39702,7.28236 2.05832,9.03673 4.22192,11.20033 1.26482,1.26482 2.91413,2.29967 3.66513,2.29967 0.751,0 3.20549,1.575 5.45442,3.5 2.24893,1.925 4.83148,3.5 5.73901,3.5 1.00518,0 1.36747,0.45724 0.92699,1.16994 -0.47951,0.77587 -0.18719,0.9643 0.86787,0.55944 0.87501,-0.33577 2.12482,0.0328 2.77735,0.81905 0.65253,0.78625 1.60729,1.16944 2.12168,0.85153 0.57138,-0.35313 0.54645,-1.04649 -0.0641,-1.78212 -0.54962,-0.66225 -1.16059,-2.7762 -1.35771,-4.69767 -0.19712,-1.92146 -0.69584,-4.03955 -1.10826,-4.70687 -0.41243,-0.66731 -0.45957,-1.68301 -0.10476,-2.2571 0.35481,-0.5741 0.17108,-1.61498 -0.40828,-2.31307 -0.57936,-0.69809 -1.25406,-2.81588 -1.49933,-4.70619 -0.24527,-1.89032 -0.72145,-4.12886 -1.05818,-4.97454 -0.33674,-0.84567 -0.74138,-3.1773 -0.89921,-5.18139 -0.24216,-3.07499 0.11305,-3.82883 2.27549,-4.82908 1.40934,-0.6519 3.36824,-1.59802 4.35312,-2.10248 0.98487,-0.50446 2.22237,-0.6504 2.75,-0.32431 0.52762,0.32609 0.95932,0.13046 0.95932,-0.43474 0,-0.5652 0.65345,-0.77688 1.45211,-0.4704 0.79867,0.30647 2.02632,0.20235 2.72812,-0.23139 0.7018,-0.43373 2.38085,-0.78861 3.73122,-0.78861 1.84964,0 2.67619,0.72761 3.35111,2.95 0.49274,1.6225 1.15622,3.625 1.47439,4.45 0.31817,0.825 0.47296,2.12708 0.34397,2.89352 -0.12898,0.76644 0.23387,1.68299 0.80633,2.03679 0.57246,0.3538 1.24623,2.29929 1.49727,4.32331 0.25104,2.02402 0.73727,4.13442 1.08051,4.68979 0.34323,0.55537 0.82366,2.25779 1.06763,3.78317 0.24396,1.52538 0.92417,5.02342 1.51159,7.77342 0.58741,2.75 1.20826,5.9 1.37966,7 0.1714,1.1 0.64947,2.80103 1.06239,3.78008 0.41292,0.97904 0.84896,3.00404 0.96897,4.5 0.12002,1.49595 0.74168,3.98671 1.38147,5.53502 0.63979,1.5483 1.16326,3.6858 1.16326,4.75 0,1.06419 0.675,1.9349 1.5,1.9349 0.825,0 1.5,0.45 1.5,1 0,0.55 0.69382,1 1.54181,1 0.848,0 2.50785,0.9 3.68856,2 1.18072,1.1 2.68876,2 3.3512,2 0.66245,0 1.47442,0.70352 1.80438,1.56338 0.32996,0.85986 0.99724,1.31783 1.48286,1.0177 0.48561,-0.30013 2.85129,0.78816 5.25706,2.41842 2.40577,1.63026 4.93663,2.97229 5.62413,2.9823 0.6875,0.01 1.25,0.6932 1.25,1.5182 0,0.825 0.41307,1.5 0.91794,1.5 0.50487,0 1.06737,-3.15101 1.25,-7.00225 0.18263,-3.85124 -0.0281,-7.00124 -0.46841,-7 -0.44026,10e-4 -0.74855,-2.13525 -0.68509,-4.74775 0.0635,-2.6125 -0.16011,-8.35 -0.49682,-12.75 -1.6221,-21.19706 -2.52638,-32.13935 -3.09901,-37.5 -0.26439,-2.475 -0.67454,-8.45265 -0.91144,-13.28366 -0.23691,-4.83102 -0.70514,-9.22765 -1.04052,-9.7703 -0.33537,-0.54265 -0.49586,-3.44579 -0.35663,-6.45142 0.13923,-3.00564 -0.0536,-5.7715 -0.42844,-6.14637 -0.82641,-0.82641 -0.89332,-4.63289 -0.117,-6.65595 0.81871,-2.13353 4.43853,-0.92717 7.58103,2.52649 1.45508,1.59916 2.81453,2.40079 3.021,1.78139 0.20647,-0.61941 2.29739,0.70216 4.6465,2.93682 2.34911,2.23465 4.52489,4.063 4.83508,4.063 0.31018,0 1.44889,1.125 2.53047,2.5 1.08158,1.375 2.60884,2.5 3.39392,2.5 0.78508,0 1.42742,0.41968 1.42742,0.93261 0,0.51294 0.90653,1.22034 2.01452,1.572 1.10799,0.35166 1.71346,1.12651 1.34549,1.72189 -0.37199,0.6019 -0.20789,0.79752 0.36961,0.4406 0.91074,-0.56287 5.9547,3.21053 11.47288,8.5829 0.98863,0.9625 2.2475,1.75 2.7975,1.75 0.55,0 1,0.41968 1,0.93261 0,0.51294 0.7875,1.18844 1.75,1.50113 0.9625,0.31268 4.42178,3.02555 7.68728,6.02861 3.26551,3.00305 8.78304,7.38989 12.26119,9.74852 3.83909,2.60339 6.12552,4.80541 5.81901,5.60417 -0.35588,0.9274 0.0836,1.12898 1.48881,0.68296 1.41276,-0.44839 1.99371,-0.17605 1.99371,0.93461 0,0.86207 0.49754,1.56739 1.10564,1.56739 0.9568,0 3.25032,1.61043 8.71015,6.11596 2.04452,1.68716 2.55347,0.38625 2.89358,-7.39622 0.58824,-13.46013 0.79234,-26.55641 0.40788,-26.17113 -0.56721,0.56841 -4.66024,-4.87766 -4.35993,-5.8012 0.14153,-0.43524 -0.91452,-1.23688 -2.34677,-1.78142 -1.43225,-0.54454 -2.83254,-1.8637 -3.11177,-2.93146 -0.27923,-1.06777 -1.60002,-2.65712 -2.9351,-3.53189 -1.33508,-0.87478 -2.15462,-2.03188 -1.82122,-2.57135 0.33341,-0.53946 0.23525,-0.86523 -0.21813,-0.72393 -1.12443,0.35045 -5.3243,-3.38972 -5.3243,-4.74154 0,-0.59934 -1.35,-2.0878 -3,-3.3077 -1.65,-1.2199 -3,-2.87952 -3,-3.68806 0,-0.80853 -0.5625,-1.4708 -1.25,-1.4717 -1.78237,-0.002 -8.95065,-7.86469 -8.23142,-9.02842 C 364.84828,257.43647 364.48622,257 363.714,257 c -0.77221,0 -2.21851,-0.9 -3.214,-2 -1.02643,-1.13419 -1.30998,-2 -0.65499,-2 0.63525,0 1.15499,-0.71752 1.15499,-1.59449 0,-2.21452 10.88589,-13.33877 13.75848,-14.05974 2.60915,-0.65486 7.66267,3.16377 6.55619,4.9541 -0.34303,0.55503 -0.16401,0.72505 0.39782,0.37782 0.56183,-0.34723 2.99386,1.6934 5.40451,4.53473 9.89812,11.66649 13.69945,14.79988 13.99702,11.53758 0.0627,-0.6875 0.28729,-2.6 0.49907,-4.25 0.21178,-1.65 0.49797,-6.7775 0.63598,-11.39444 L 402.5,234.71112 398,230.1479 c -2.475,-2.50977 -4.39185,-5.03994 -4.25966,-5.62259 0.13218,-0.58266 -0.76782,-1.50171 -2,-2.04234 -1.23219,-0.54063 -2.68455,-1.99547 -3.22747,-3.23297 -0.54292,-1.2375 -1.44292,-2.25074 -2,-2.25164 -1.42665,-0.002 -9.05073,-8.27438 -8.7666,-9.51168 0.12892,-0.56141 -0.77375,-1.46308 -2.00593,-2.00371 -1.23219,-0.54063 -2.68455,-1.99547 -3.22747,-3.23297 -0.54292,-1.2375 -1.55542,-2.25 -2.25,-2.25 C 369.56829,200 369,199.65029 369,199.22286 c 0,-0.42743 -1.43668,-2.33993 -3.19263,-4.25 -1.75595,-1.91007 -3.28276,-4.37286 -3.39292,-5.47286 -0.27593,-2.75514 12.26518,-15.5 15.25219,-15.5 1.40651,0 2.86981,1.09956 3.99243,3 0.97468,1.65 2.35012,3 3.05654,3 0.70641,0 1.28439,0.37463 1.28439,0.83252 0,1.05404 15.92692,17.57628 16.43975,17.05424 0.20897,-0.21272 0.60517,-2.86176 0.88044,-5.88676 0.27528,-3.025 0.56272,-5.5 0.63877,-5.5 0.076,0 0.22889,-5.02514 0.33965,-11.16698 0.11076,-6.14184 0.50545,-11.4709 0.87708,-11.84236 1.37826,-1.37762 11.27291,-2.03965 17.82431,-1.1926 l 3.5,0.45253 0.10742,16.3747 c 0.1262,19.23652 0.16326,19.88042 1.14258,19.85605 0.4125,-0.0103 6.33612,-5.34888 13.1636,-11.8636 8.90245,-8.49463 12.93302,-11.7091 14.25,-11.36471 1.01002,0.26413 1.8364,1.0546 1.8364,1.75661 0,0.70201 0.675,1.5354 1.5,1.85199 0.825,0.31658 1.5,1.29128 1.5,2.166 0,0.87472 0.38218,1.3542 0.84929,1.06552 0.4671,-0.28869 1.44314,0.58475 2.16898,1.94098 0.72583,1.35623 1.86619,2.46587 2.53413,2.46587 0.66795,0 1.45704,1.2375 1.75355,2.75 0.46466,2.37028 -0.34772,3.61038 -5.88342,8.98102 -3.53239,3.42706 -6.42253,6.68956 -6.42253,7.25 0,0.56044 -0.36905,1.01898 -0.82012,1.01898 -0.45106,0 -7.20106,6.32979 -15,14.06619 L 425,235.13238 l 0,13.43381 c 0,8.48494 0.37662,13.43381 1.02234,13.43381 1.24054,0 7.82912,-6.00422 17.28289,-15.75 3.86802,-3.9875 7.85672,-7.25 8.86377,-7.25 1.61688,0 5.831,3.2281 5.831,4.46667 0,0.25666 1.52367,1.99033 3.38593,3.85259 7.2811,7.2811 8.27002,5.41641 -15.25188,28.75867 -11.57294,11.48456 -21.46768,21.67775 -21.98831,22.65154 -1.26837,2.37239 -1.91357,32.83603 -0.7207,34.0289 0.31239,0.31239 3.27015,-1.53045 6.57281,-4.0952 C 433.30051,326.09843 436.45208,324 437.00134,324 437.5506,324 438,323.55 438,323 c 0,-0.55 0.50535,-1 1.12301,-1 1.19332,0 13.68913,-8.48969 15.37699,-10.44717 0.55,-0.63785 3.25,-2.67666 6,-4.53068 4.98049,-3.35778 9.64783,-6.84785 12.5,-9.34704 3.67023,-3.21602 8.06997,-5.7499 8.99318,-5.17933 0.55375,0.34224 1.00682,-0.003 1.00682,-0.76778 0,-0.76452 1.2375,-2.02471 2.75,-2.80042 1.5125,-0.77571 3.89654,-2.45194 5.29787,-3.72496 3.75811,-3.41399 23.18834,-16.29974 23.74252,-15.74557 0.26172,0.26173 -0.12582,4.87846 -0.86121,10.25941 -0.73539,5.38095 -1.25087,10.10432 -1.14552,10.49638 0.10536,0.39206 -0.72899,6.69206 -1.8541,14 -1.12512,7.30794 -2.4906,17.78716 -3.03441,23.28716 -0.54381,5.5 -1.24473,10.675 -1.55761,11.5 -0.31287,0.825 -0.72378,3.075 -0.91313,5 -1.65056,16.77998 -2.71352,25.63785 -3.1655,26.37873 -1.21659,1.99426 -1.39537,11.4189 -0.23026,12.13897 0.65722,0.40619 1.48215,0.29367 1.83315,-0.25005 0.85583,-1.32569 6.68347,-4.26765 8.45368,-4.26765 0.77814,0 2.66471,-1.0125 4.19238,-2.25 1.52767,-1.2375 5.52586,-3.6 8.88486,-5.25 7.08253,-3.47906 6.16714,-1.49402 15.21786,-33 7.36284,-25.63037 8.25997,-28.23635 9.94287,-28.88214 2.9939,-1.14887 19.44655,3.70659 19.44655,5.73901 0,0.61589 -1.84515,7.99536 -4.10033,16.39882 -2.25518,8.40347 -3.84035,15.95651 -3.52261,16.78454 0.51245,1.33541 0.99981,1.32914 4.31373,-0.0555 2.05481,-0.85855 4.42748,-2.17759 5.27261,-2.93119 0.84513,-0.75359 4.09021,-2.57307 7.21129,-4.04327 6.40328,-3.0163 7.47868,-4.66659 10.75879,-16.51027 1.14242,-4.125 4.70492,-16.05 7.91667,-26.5 l 5.83955,-19 3.32202,0.1656 c 4.56535,0.22757 13.61135,3.1753 15.04479,4.90249 0.69153,0.83324 0.905,2.55959 0.51641,4.17616 -0.36434,1.51566 -1.04806,4.33075 -1.51937,6.25575 -0.47132,1.925 -1.32224,5.525 -1.89094,8 -0.98052,4.26721 -2.18964,8.74627 -3.70855,13.73785 -1.33557,4.38906 2.21756,3.54951 15.45849,-3.65263 C 638.07685,308.18835 644.74724,305 645.73564,305 648.25533,305 656,318.64751 656,323.08765 c 0,0.43407 -6.075,4.44462 -13.5,8.91235 -7.425,4.46773 -13.5,8.69493 -13.5,9.39379 0,0.69886 1.4625,1.75629 3.25,2.34985 13.79291,4.58008 24.45311,8.60801 25.5248,9.64448 1.03094,0.99706 0.82371,2.93217 -1.08331,10.11596 -1.30694,4.92326 -3.07273,9.33382 -3.96122,9.89426 -1.16055,0.73206 -4.31227,0.21972 -11.41669,-1.85589 -11.97735,-3.49926 -18.38533,-5.33472 -33.41191,-9.57025 l -11.59833,-3.26922 -7.40167,4.03296 c -11.76797,6.41203 -13.88862,7.71469 -13.89535,8.5355 -0.007,0.91163 1.69425,1.5892 12.99368,5.17366 4.675,1.48303 9.4,3.07957 10.5,3.54786 1.1,0.4683 3.2375,1.12003 4.75,1.4483 3.54648,0.76971 3.53457,3.33117 -0.0654,14.05874 -2.19279,6.53436 -3.09578,8.0584 -4.92886,8.31879 -1.23433,0.17534 -8.43433,-1.55824 -16,-3.8524 -31.82738,-9.65112 -41.62331,-12.06102 -42.51919,-10.46017 C 539.2768,390.3278 538.02298,391 536.95031,391 535.87764,391 535,391.45 535,392 c 0,0.55 -0.8449,1 -1.87756,1 -1.03265,0 -2.43775,0.675 -3.12244,1.5 -0.68469,0.825 -1.87891,1.5 -2.65383,1.5 -0.77492,0 -1.66796,0.675 -1.98454,1.5 -0.31659,0.825 -1.42746,1.5 -2.46862,1.5 -1.04115,0 -1.89301,0.41968 -1.89301,0.93261 0,0.51294 -1.0125,1.24859 -2.25,1.63478 -2.06186,0.64346 -3.69662,2.15588 -3.73469,3.45521 -0.008,0.28742 1.67219,1.34981 3.73469,2.36086 2.0625,1.01105 4.65,2.31819 5.75,2.90476 1.1,0.58657 3.00569,1.59349 4.23487,2.2376 1.22917,0.64412 1.90417,1.536 1.5,1.98198 -0.40418,0.44597 -0.002,0.5494 0.89285,0.22984 1.92104,-0.68573 25.87228,10.78634 25.87228,12.3922 0,0.59628 0.71585,0.80944 1.59078,0.4737 0.87493,-0.33575 2.8569,0.29111 4.40437,1.39301 1.54748,1.1019 3.53162,2.00345 4.40922,2.00345 0.8776,0 1.59563,0.45 1.59563,1 0,0.55 0.86786,1 1.92857,1 1.06072,0 2.60357,0.675 3.42857,1.5 0.825,0.825 2.11904,1.5 2.87565,1.5 0.75661,0 3.50438,1.35 6.10616,3 2.60178,1.65 5.05238,3.0057 5.44578,3.01267 0.3934,0.007 3.20488,1.2756 6.24775,2.81919 18.11656,9.19022 19.33467,10.66993 11.21752,13.62662 -2.6125,0.95161 -6.1,2.31592 -7.75,3.0318 -1.65,0.71588 -5.475,2.28698 -8.5,3.49134 -3.025,1.20435 -6.28139,2.60118 -7.23643,3.10406 -0.95504,0.50287 -2.60504,0.91432 -3.66667,0.91432 -1.06163,0 -2.08023,0.35186 -2.26357,0.78192 -0.18333,0.43006 -3.93333,2.3073 -8.33333,4.17165 -4.4,1.86435 -8.4275,3.76248 -8.95,4.21808 -0.5225,0.45559 -1.64907,0.82835 -2.50348,0.82835 -0.85441,0 -4.80011,1.575 -8.76822,3.5 -3.9681,1.925 -7.93618,3.5 -8.81794,3.5 -0.88177,0 -2.2591,0.65588 -3.06073,1.45751 -0.80163,0.80163 -2.07397,1.22095 -2.82742,0.93183 -0.75345,-0.28913 -1.65907,-0.0578 -2.01248,0.51401 C 530.7932,490.14363 522.32868,494 520.37288,494 519.6178,494 519,494.45 519,495 c 0,0.55 -0.96289,1 -2.13976,1 -2.76922,0 -5.09162,3.01627 -3.65511,4.74717 0.57187,0.68905 1.65966,1.25283 2.41731,1.25283 0.75766,0 1.37756,0.41968 1.37756,0.93261 0,0.51294 0.90653,1.22034 2.01452,1.572 1.10799,0.35166 1.71346,1.12651 1.34549,1.72189 -0.40724,0.65894 -0.20037,0.79287 0.5287,0.34228 0.68072,-0.42071 2.66106,0.37591 4.58778,1.84549 1.86454,1.42215 3.65403,2.58573 3.97666,2.58573 0.32263,0 2.43346,1.16587 4.69073,2.59083 5.01641,3.16672 8.34049,2.97696 26.85612,-1.53315 4.675,-1.13875 11.65,-2.737 15.5,-3.55168 3.85,-0.81467 9.80494,-2.10443 13.23319,-2.86614 4.65177,-1.03356 6.61957,-1.10013 7.75612,-0.26239 0.83761,0.61739 2.2112,4.43312 3.05243,8.4794 0.84123,4.04628 1.60263,7.64628 1.69201,8 0.0894,0.35372 -0.15467,1.56957 -0.54231,2.70189 -0.55665,1.62594 -2.64806,2.52724 -9.94813,4.28716 -5.08382,1.22562 -10.81831,2.6503 -12.74331,3.16595 -1.925,0.51565 -4.36271,1.06143 -5.41713,1.21284 -1.05443,0.15141 -2.08288,0.77316 -2.28546,1.38167 -0.38232,1.1484 10.15348,8.65844 17.2961,12.32886 3.97735,2.04387 4.2753,2.05694 10.5,0.46068 3.52357,-0.90359 7.53149,-1.63688 8.90649,-1.62954 1.375,0.007 2.98563,-0.3784 3.57919,-0.8572 2.10678,-1.69948 35.87081,-8.71936 37.11639,-7.71687 0.65757,0.52924 1.71773,3.51497 2.35591,6.63497 0.63819,3.12 1.55475,6.95462 2.0368,8.52139 1.52179,4.94609 0.0211,6.01366 -12.76459,9.08063 -13.53822,3.24748 -17.3237,4.4771 -17.3237,5.62717 0,0.93839 3.7912,3.6675 16.75,12.05753 5.0875,3.29385 9.25,6.54887 9.25,7.23339 0,1.76401 -8.75809,15.75437 -10.80051,17.25297 -1.36509,1.00161 -1.99464,0.98644 -3.19949,-0.0771 -0.825,-0.72824 -3.22773,-2.03774 -5.33939,-2.90999 -2.11166,-0.87225 -5.05702,-2.60456 -6.54523,-3.84958 -4.23254,-3.5409 -12.97499,-7.30407 -14.17671,-6.10235 -0.69567,0.69567 -0.23703,4.34354 1.4371,11.43021 3.10647,13.14986 3.84572,18.13413 2.88484,19.4504 -0.72158,0.98846 -3.26827,1.85349 -13.00467,4.41725 -4.45524,1.17314 -8.95078,-0.0259 -7.69786,-2.05317 0.33776,-0.5465 0.0819,-1.63492 -0.56862,-2.41872 -0.6505,-0.7838 -1.36736,-2.90159 -1.59304,-4.70619 -0.41963,-3.35555 -6.65968,-28.81295 -8.4203,-34.35211 C 581.43925,580.73995 581,578.35511 581,577.12934 c 0,-3.33298 -2.43478,-7.29574 -6.37722,-10.37934 -1.93376,-1.5125 -3.76987,-2.75 -4.08025,-2.75 -1.80748,0 -9.43367,-4.36712 -8.96119,-5.13161 0.31203,-0.50487 0.19637,-0.83535 -0.25701,-0.73441 -0.45338,0.10095 -1.63124,-0.1685 -2.61746,-0.59876 -0.98622,-0.43026 -2.00664,-0.56878 -2.2676,-0.30782 -0.48951,0.48951 1.13007,8.61043 4.3624,21.87395 2.45832,10.08748 0.9053,14.61616 -4.54336,13.24863 C 554.93128,592.01692 554,592.24027 554,592.89159 554,593.51807 552.26081,594 550,594 c -2.2,0 -4,0.47989 -4,1.06642 0,1.69568 -5.49645,0.63504 -5.52643,-1.06642 -0.0145,-0.825 -0.37269,-2.05295 -0.79591,-2.72878 -0.42321,-0.67583 -0.90561,-2.74595 -1.072,-4.60026 -0.16639,-1.8543 -0.64114,-3.91935 -1.05499,-4.58898 -0.41386,-0.66963 -0.79625,-2.76202 -0.84976,-4.64974 C 536.6474,575.54451 536.31468,574 535.96153,574 c -0.35316,0 -1.23107,-2.5875 -1.95092,-5.75 -0.71984,-3.1625 -1.97623,-8.225 -2.79197,-11.25 -0.81573,-3.025 -1.69617,-7.19032 -1.95653,-9.25627 -0.26036,-2.06595 -0.87584,-4.005 -1.36774,-4.30901 C 527.40247,543.1307 527,542.04067 527,541.01241 c 0,-1.02825 -0.69107,-2.56062 -1.53571,-3.40527 -0.84465,-0.84464 -1.51965,-1.88928 -1.5,-2.32143 0.0196,-0.43214 -0.30179,-0.80932 -0.71429,-0.83818 -2.39882,-0.16783 -11.48582,-5.01965 -12.31977,-6.57789 -0.54447,-1.01735 -1.32317,-1.74171 -1.73044,-1.60969 C 507.57992,526.78507 500,522.60078 500,521.18146 c 0,-2.40224 -1.10282,-0.65945 -1.94466,3.07316 -0.42337,1.87719 -0.41261,6.07534 0.0239,9.32922 0.43652,3.25389 1.05761,10.58837 1.3802,16.29884 0.32258,5.71048 0.82443,10.76765 1.11523,11.23817 0.29079,0.47051 0.75245,6.37331 1.02591,13.11731 0.27347,6.74401 0.7046,12.87261 0.95808,13.6191 0.45433,1.33799 0.67936,3.89291 2.0824,23.64274 0.90801,12.78141 0.85807,15.40085 -0.316,16.57492 -1.139,1.139 -6.68689,-1.38278 -8.56677,-3.89402 -0.69207,-0.92449 -2.45791,-2.29916 -3.92408,-3.0548 -1.46617,-0.75565 -2.88992,-2.23106 -3.16389,-3.27871 -0.27396,-1.04764 -0.87436,-1.78218 -1.33423,-1.6323 C 486.30924,616.54975 479,612.10496 479,611.14584 c 0,-0.38007 -1.575,-1.53923 -3.5,-2.57591 -1.925,-1.03668 -3.50458,-2.37651 -3.51017,-2.9774 -0.006,-0.60089 -1.84295,-1.86256 -4.08301,-2.80372 -2.66306,-1.11887 -3.81755,-2.12424 -3.33532,-2.9045 0.45071,-0.72926 0.31244,-0.93062 -0.35553,-0.51779 -0.60118,0.37155 -1.45821,0.10285 -1.90451,-0.59712 -0.4463,-0.69996 -2.04896,-1.91047 -3.56146,-2.69001 -1.56645,-0.80735 -2.75,-2.25143 -2.75,-3.35536 0,-1.31183 -0.48465,-1.75203 -1.5,-1.3624 -0.825,0.31658 -1.5,0.13972 -1.5,-0.39301 C 453,590.43588 452.35962,590 451.57692,590 c -0.78269,0 -2.77307,-1.35 -4.42307,-3 -1.65,-1.65 -3.45196,-3 -4.00435,-3 -0.55239,0 -1.8245,-1.0125 -2.82692,-2.25 -1.00242,-1.2375 -3.10371,-2.91189 -4.66953,-3.72087 -1.56583,-0.80898 -3.89928,-2.72148 -5.18544,-4.25 -1.28617,-1.52852 -2.93004,-2.79344 -3.65305,-2.81093 -2.08397,-0.0504 -4.53265,-2.34183 -4.04627,-3.78639 0.24411,-0.72501 -0.16639,-1.21654 -0.91223,-1.09228 -0.74583,0.12425 -2.16297,-0.12566 -3.14919,-0.55535 -0.98622,-0.42969 -2.04348,-0.5309 -2.34947,-0.22491 -0.30599,0.30599 -0.78897,7.50408 -1.07329,15.99576 l -0.51694,15.43941 4.61641,4.48674 c 2.53903,2.4677 4.61642,5.0002 4.61642,5.62778 0,0.62757 0.3375,1.02854 0.75,0.89104 1.16255,-0.38752 4.91969,3.74094 4.51348,4.95956 -0.19884,0.59651 0.38255,1.01838 1.29196,0.9375 0.93219,-0.0829 2.43693,1.29194 3.44945,3.15167 0.99579,1.82903 1.9828,2.7382 2.21532,2.04063 0.24336,-0.73008 1.16847,0.01 2.20426,1.76348 0.98169,1.66187 3.04112,3.86589 4.57651,4.89782 1.53539,1.03193 2.58784,2.40729 2.33876,3.05637 -0.24907,0.64907 0.51787,1.43398 1.70432,1.74424 1.19373,0.31217 1.86256,1.0408 1.49754,1.63142 -0.3628,0.58702 0.0419,1.06731 0.89938,1.06731 0.85746,0 1.55902,0.675 1.55902,1.5 0,0.825 0.45,1.5 1,1.5 0.55,0 1,0.675 1,1.5 0,0.825 0.45,1.5 1,1.5 0.55,0 1,0.80098 1,1.77995 C 455,642.67474 448.91034,649 447.08613,649 446.48876,649 446,649.49037 446,650.08971 c 0,1.52681 -4.16687,4.83699 -6.13922,4.87702 -1.74933,0.0355 -7.04832,-3.86718 -5.36078,-3.9482 0.55,-0.0264 -0.125,-0.61187 -1.5,-1.30102 -1.375,-0.68916 -2.94421,-2.25753 -3.48713,-3.48526 C 428.96995,645.00451 428.10003,644 427.57972,644 c -0.52031,0 -3.61304,-2.72556 -6.87273,-6.05681 -3.25969,-3.33124 -6.11288,-5.87063 -6.34042,-5.64309 -0.22754,0.22753 -0.68701,5.8538 -1.02106,12.50281 l -0.60735,12.0891 3.13092,3.13092 c 1.72201,1.722 3.13092,3.31616 3.13092,3.54256 0,1.0648 3.58835,4.43451 4.72224,4.43451 0.70277,0 1.27776,0.675 1.27776,1.5 0,0.825 0.45,1.5 1,1.5 0.55,0 1,0.675 1,1.5 0,0.825 0.60526,1.5 1.34501,1.5 1.35973,0 4.45237,2.86747 4.58373,4.25 0.0392,0.4125 0.40876,0.83193 0.82126,0.93208 0.4125,0.10014 1.875,1.50326 3.25,3.11805 1.375,1.61479 4.4125,4.91047 6.75,7.32373 2.3375,2.41326 4.25,4.81931 4.25,5.34676 0,0.52746 0.92538,1.45426 2.05641,2.05957 1.13102,0.6053 2.4251,2.08364 2.87573,3.28518 0.65556,1.74799 0.15451,2.83421 -2.50684,5.43463 -1.82939,1.7875 -3.53886,3.25 -3.79881,3.25 -0.25995,0 -1.80709,1.2375 -3.43808,2.75 -5.82514,5.40196 -6.756,5.84475 -6.30683,3 0.0651,-0.4125 -0.51658,-0.75 -1.29269,-0.75 -0.7761,0 -2.54705,-1.35 -3.93544,-3 -1.38838,-1.65 -3.00338,-3 -3.58889,-3 -0.9948,0 -1.48919,-1.41901 -1.1582,-3.32433 0.0788,-0.45338 -0.32113,-0.53736 -0.88865,-0.18662 -0.56751,0.35074 -1.29523,-0.0487 -1.61715,-0.8876 -0.32193,-0.83892 -1.4763,-1.8081 -2.56526,-2.15372 -1.08897,-0.34563 -1.7705,-1.1742 -1.51452,-1.84128 0.25598,-0.66708 -0.89528,-1.81517 -2.55834,-2.55131 -1.66307,-0.73615 -3.24245,-2.17471 -3.50973,-3.19679 -0.78471,-3.00072 -2.24518,-2.13283 -2.34186,1.39165 -0.049,1.7875 -0.22793,5.5 -0.39755,8.25 -0.16962,2.75 -0.4111,8.375 -0.53661,12.5 -0.28593,9.39673 -0.68942,11.04747 -2.52788,10.34198 -0.79685,-0.30578 -1.44881,0.005 -1.44881,0.69032 0,0.92752 -1.34281,1.06353 -5.25,0.53177 -6.71824,-0.91434 -6.96062,-0.9197 -8.75,-0.19368 -0.825,0.33473 -1.98947,0.27583 -2.58772,-0.13089 z M 351,703 c 0,-0.55 -0.47656,-1 -1.05902,-1 -0.58246,0 -0.7809,0.45 -0.44098,1 0.33992,0.55 0.81648,1 1.05902,1 C 350.80156,704 351,703.55 351,703 z M 478,573.5 c -0.3401,-3.08981 -0.23238,-5.85638 0.23938,-6.14794 0.47175,-0.29157 0.34959,-1.14239 -0.27147,-1.89073 -0.62106,-0.74833 -1.04523,-2.62077 -0.9426,-4.16097 0.10264,-1.5402 0.0736,-3.02536 -0.0645,-3.30036 -0.13813,-0.275 -0.32965,-3.22415 -0.4256,-6.55367 -0.096,-3.32952 -0.48772,-6.56054 -0.8706,-7.18005 -0.38288,-0.61951 -0.61983,-3.29536 -0.52657,-5.94633 0.0933,-2.65097 -0.14211,-5.52753 -0.52305,-6.39235 -0.38095,-0.86483 -0.53433,-3.67733 -0.34086,-6.25 0.19347,-2.57268 -0.0546,-4.6776 -0.55123,-4.6776 -0.49665,0 -0.79531,-1.9125 -0.66369,-4.25 0.33414,-5.93413 -0.96545,-10.73237 -2.93417,-10.83333 -2.29477,-0.11768 -4.94278,-0.48086 -10.125,-1.38865 -2.475,-0.43356 -4.54334,-0.61723 -4.59631,-0.40816 -0.053,0.20908 -0.8004,-0.20421 -1.66097,-0.91842 -1.20318,-0.99855 -1.73601,-1.02131 -2.30634,-0.0985 -0.53619,0.86759 -1.11494,0.68957 -2.08902,-0.64257 C 448.48318,501.27853 448,501.0947 448,501.94776 c 0,1.02156 -1.41253,1.20193 -6.09057,0.77774 l -6.09057,-0.55227 -4.77632,10.16339 C 420.4299,534.91892 419.66689,537 422,537 c 0.55,0 1,0.66088 1,1.46862 0,0.8909 0.58674,1.24346 1.49157,0.89624 0.85162,-0.32679 1.75562,0.11572 2.10699,1.03139 0.33848,0.88206 1.12977,1.60765 1.75843,1.61242 0.62865,0.005 2.80047,1.57977 4.82626,3.5 2.02578,1.92023 4.16328,3.49133 4.75,3.49133 0.58671,0 1.06675,0.72314 1.06675,1.60699 0,1.01759 0.55016,1.39587 1.5,1.03138 1.02711,-0.39413 1.5,0.0589 1.5,1.43685 0,1.10685 0.5625,1.88467 1.25,1.72849 1.5327,-0.34818 8.75,4.00517 8.75,5.27785 0,0.50514 0.48214,0.91844 1.07143,0.91844 1.40458,0 3.92857,2.55215 3.92857,3.97241 0,0.61339 0.7875,0.98304 1.75,0.82143 0.97786,-0.16419 1.63969,0.25769 1.5,0.95616 -0.1375,0.6875 0.34052,1.25 1.06226,1.25 1.50208,0 13.77455,8.79367 14.9992,10.74747 1.58185,2.52367 2.2987,0.29591 1.68854,-5.24747 z m -143.16667,0.36782 c 0.18334,-0.4773 0.79358,-0.86782 1.3561,-0.86782 0.56252,0 2.74546,-1.3644 4.85097,-3.032 6.01727,-4.76576 13.81201,-9.968 14.93549,-9.968 0.56326,0 1.02411,-0.45 1.02411,-1 0,-0.55 0.5625,-1.00028 1.25,-1.00063 0.6875,-3.4e-4 3.725,-1.93808 6.75,-4.30608 3.025,-2.36799 6.9625,-5.16473 8.75,-6.21497 1.7875,-1.05025 3.25,-2.26251 3.25,-2.69393 0,-0.43141 0.42744,-0.78439 0.94987,-0.78439 1.36077,0 9.23318,-5.4398 11.50445,-7.94952 1.70048,-1.87901 1.77756,-2.52031 0.67084,-5.58089 -0.68772,-1.90186 -0.99981,-3.8634 -0.69352,-4.35898 0.30628,-0.49557 -0.1666,-1.17866 -1.05084,-1.51798 -0.99537,-0.38196 -1.41615,-1.34946 -1.10476,-2.5402 0.2894,-1.10668 -0.087,-2.14965 -0.88655,-2.45646 C 385.62527,519.30271 385,518.43261 385,517.66242 c 0,-0.77019 -1.75191,-4.72181 -3.89313,-8.78138 -3.12077,-5.91672 -4.31111,-7.33378 -6,-7.14283 -1.15878,0.13102 -2.11376,-0.31898 -2.12218,-1 -0.0109,-0.88164 -0.26645,-0.84173 -0.88739,0.13859 -0.80816,1.2759 -2.55185,1.54955 -16.0973,2.52626 -2.475,0.17846 -5.30138,0.66426 -6.28086,1.07954 -0.97947,0.41528 -3.0129,0.50865 -4.51873,0.20748 -5.07013,-1.01402 -6.90056,1.66498 -8.06913,11.80992 -1.34997,11.71979 -1.91117,15.93737 -3.72576,28 -1.66601,11.07491 -3.36031,25.73724 -3.38775,29.31739 -0.0149,1.94637 0.34246,2.20538 2.23223,1.61781 1.2375,-0.38476 2.4,-1.09009 2.58333,-1.56738 z m 158.98405,-94.45246 c 1.24431,-0.87155 5.73194,-2.809 9.9725,-4.30544 4.24057,-1.49645 8.61012,-3.20613 9.71012,-3.7993 1.1,-0.59317 5.15,-2.29565 9,-3.78329 3.85,-1.48763 9.475,-3.66707 12.5,-4.84318 3.025,-1.17612 7.3866,-3.16119 9.69244,-4.41127 C 546.99829,457.0228 549.53069,456 550.32,456 c 0.78931,0 1.91836,-0.58228 2.50899,-1.29395 0.81975,-0.98773 0.13878,-1.87186 -2.87755,-3.73606 C 547.77815,449.62682 546,448.18409 546,447.76393 546,447.34377 545.31889,447 544.48643,447 c -0.83246,0 -2.29496,-0.39536 -3.25,-0.87857 -0.95504,-0.48321 -4.52996,-2.13188 -7.94427,-3.66371 -3.4143,-1.53183 -5.9893,-3.13874 -5.72221,-3.57091 0.2671,-0.43217 -1.10188,-1.08357 -3.04216,-1.44757 C 522.58751,437.07524 521,436.3775 521,435.88871 521,435.39992 520.26877,435 519.37505,435 516.5558,435 506,429.78709 506,428.39482 c 0,-0.7732 -0.62931,-1.09056 -1.5,-0.75645 -0.825,0.31659 -1.5,0.0775 -1.5,-0.53138 C 503,426.49814 502.28051,426 501.40113,426 c -0.87938,0 -3.01688,-0.62224 -4.75,-1.38276 -9.27175,-4.06856 -9.4842,-4.0894 -12.16767,-1.19389 -1.3659,1.47383 -2.48346,2.91153 -2.48346,3.19489 0,0.57826 -2.86481,4.49841 -10.87545,14.88176 -5.17786,6.71152 -5.59474,8.41959 -2.86491,11.73831 4.72745,5.74728 8.74036,11.50131 8.74036,12.53263 0,0.59137 1.2375,2.38338 2.75,3.98226 1.5125,1.59887 4.27596,4.78348 6.14102,7.07692 3.75193,4.61368 4.62419,4.89817 7.92636,2.58524 z M 334.86818,469.5 C 339.81804,463.85768 348,451.17557 348,449.14559 c 0,-1.11516 -0.47776,-2.32283 -1.06168,-2.68371 -0.58393,-0.36089 -1.48285,-1.62495 -1.99762,-2.80902 -1.42196,-3.27085 -3.22884,-5.86816 -5.4407,-7.82075 -1.4297,-1.26212 -1.59604,-1.77506 -0.58333,-1.79884 1.52526,-0.0358 1.22688,-0.76712 -0.41667,-1.0212 -1.38229,-0.21369 -4.5,-3.12878 -4.5,-4.20755 0,-0.91789 -3.5555,-6.23222 -5.75919,-8.60815 -0.69256,-0.74669 -1.0035,-1.77133 -0.69098,-2.27699 0.75553,-1.22247 0.74421,-1.22017 -5.31056,1.08112 -2.8934,1.09973 -6.1559,1.9995 -7.25,1.9995 -1.0941,0 -1.98927,0.44143 -1.98927,0.98095 0,0.53952 -1.2375,1.28917 -2.75,1.66588 -1.5125,0.37672 -4.6366,1.73529 -6.94244,3.01906 -2.30585,1.28376 -5.11835,2.33411 -6.25,2.33411 -1.13166,0 -2.05756,0.45 -2.05756,1 0,0.55 -1.125,1 -2.5,1 -1.375,0 -2.5,0.44143 -2.5,0.98095 0,0.53952 -1.16485,1.27331 -2.58856,1.63063 -1.42371,0.35733 -4.68621,1.71402 -7.25,3.01487 -2.56379,1.30085 -5.44894,2.36706 -6.41144,2.36936 -0.9625,0.002 -1.75,0.45419 -1.75,1.00419 0,0.55 -1.125,1 -2.5,1 -1.375,0 -2.5,0.40598 -2.5,0.90217 0,0.4962 -1.35,1.37279 -3,1.94799 -3.89484,1.35774 -3.85943,3.80217 0.0676,4.66468 1.68716,0.37056 3.2994,1.2779 3.58276,2.01631 0.28335,0.73841 1.14915,1.09929 1.924,0.80195 0.77485,-0.29733 1.69567,0.20694 2.04628,1.12062 0.35061,0.91367 1.15462,1.46277 1.78669,1.22023 1.58622,-0.60869 9.71057,3.85681 8.81584,4.84557 -0.39773,0.43953 0.006,0.53911 0.89629,0.2213 0.89069,-0.31781 3.14069,0.37203 5,1.53299 1.85931,1.16096 4.16807,1.996 5.13057,1.85565 0.9625,-0.14035 1.75,0.13912 1.75,0.62104 0,0.48191 1.5546,1.48618 3.45466,2.23171 1.90006,0.74553 3.17624,1.80599 2.83595,2.35658 -0.37439,0.60578 0.0743,0.73518 1.13613,0.3277 1.06433,-0.40843 2.86192,0.11492 4.56841,1.33006 1.54748,1.1019 3.53162,2.00345 4.40922,2.00345 0.8776,0 1.59563,0.49814 1.59563,1.10699 0,0.60884 0.62017,0.86901 1.37814,0.57814 0.75798,-0.29086 1.8653,-0.0417 2.46071,0.55372 0.59541,0.59541 3.23775,1.83273 5.87186,2.74959 l 4.78929,1.66703 2.36818,-2.57774 c 1.30251,-1.41775 3.55251,-3.92773 5,-5.57773 z M 368.25,395.66652 c 1.08357,0.79005 3.82195,0.9168 9.75172,0.45135 1.65931,-0.13024 3.07608,-2.7673 11.34562,-21.11787 l 5.63303,-12.5 -2.33531,-2 c -1.28443,-1.1 -2.6406,-2.85191 -3.01373,-3.89313 -0.37312,-1.04122 -0.95452,-1.61701 -1.29199,-1.27954 -0.90453,0.90453 -6.46156,-3.32055 -5.79208,-4.4038 C 382.86119,350.41559 382.41648,350 381.55902,350 380.70156,350 380,349.64866 380,349.21924 c 0,-0.42942 -1.3854,-1.3037 -3.07867,-1.94283 -1.69327,-0.63914 -3.29793,-1.9753 -3.56592,-2.96924 -0.26799,-0.99394 -1.92008,-2.48217 -3.67133,-3.30717 -1.75124,-0.825 -3.18408,-2.175 -3.18408,-3 0,-0.825 -0.45,-1.50263 -1,-1.50585 -1.96385,-0.0115 -8.5,-4.68346 -8.5,-6.07571 C 357,329.6383 356.30917,329 355.46482,329 c -2.241,0 -6.38964,-2.95711 -6.06837,-4.32547 0.15167,-0.64599 0.098,-0.87012 -0.11917,-0.49806 -0.56718,0.97152 -8.94628,-4.87151 -9.66252,-6.73802 -0.33318,-0.86823 -1.11373,-1.24811 -1.75288,-0.85308 -0.83641,0.51692 -0.94268,4.02922 -0.38772,12.81338 0.4205,6.65569 0.85957,14.12625 0.97572,16.60125 0.11615,2.475 0.53535,8.55 0.93156,13.5 0.39621,4.95 0.8705,11.25 1.05396,14 0.6295,9.43553 1.83582,17.00141 2.94969,18.5 0.68654,0.92367 3.036,1.57991 6.11491,1.70797 7.91543,0.32925 13.97004,1.3425 14.34725,2.40104 0.20947,0.58783 0.90381,0.51255 1.75,-0.18972 0.87639,-0.72734 1.8718,-0.82219 2.65275,-0.25277 z m 83.4309,0.0338 c 0.6495,-0.40313 1.47706,-0.25378 1.83903,0.3319 0.41613,0.67331 1.08502,0.72066 1.8191,0.12876 1.41044,-1.13726 16.3841,-3.20448 18.19045,-2.51132 1.76522,0.67737 3.30196,-3.86295 3.68916,-10.89969 0.11349,-2.0625 0.5466,-3.75 0.96247,-3.75 0.41587,0 0.50193,-0.6624 0.19126,-1.472 -0.31067,-0.8096 0.13187,-4.9721 0.98342,-9.25 0.85156,-4.2779 1.81139,-10.928 2.13296,-14.778 0.32157,-3.85 1.30564,-11.275 2.18683,-16.5 1.46277,-8.67348 1.824,-15.83376 0.84803,-16.80972 -0.36032,-0.36032 -6.42406,2.71017 -7.52361,3.80972 -1.42002,1.42002 -7.04239,5 -7.85252,5 -0.51343,0 -1.19252,0.675 -1.50911,1.5 -0.31658,0.825 -1.01195,1.5 -1.54527,1.5 -0.53331,0 -2.44772,1.35 -4.25424,3 -1.80652,1.65 -3.81115,3 -4.45473,3 -0.64358,0 -1.42917,0.675 -1.74576,1.5 -0.31658,0.825 -1.26472,1.5 -2.10699,1.5 -0.84226,0 -1.53138,0.46114 -1.53138,1.02475 0,0.56361 -1.125,1.45248 -2.5,1.97525 -1.375,0.52277 -2.5,1.41164 -2.5,1.97525 0,0.56361 -0.45,1.02475 -1,1.02475 -0.55,0 -1.91641,0.91641 -3.03647,2.03647 -1.12007,1.12007 -2.53959,1.72554 -3.15451,1.3455 -0.61492,-0.38004 -0.85093,-0.2588 -0.52446,0.26944 0.48457,0.78406 -7.32002,6.80999 -10.65094,8.22359 -1.97206,0.83692 -4.63151,4.23373 -4.59969,5.875 0.0187,0.9625 0.90339,3.55 1.96607,5.75 1.06268,2.2 1.94741,4.48014 1.96607,5.06698 0.0187,0.58684 1.27673,3.51184 2.7957,6.5 1.51897,2.98816 3.64426,7.59 4.72287,10.2263 l 1.9611,4.79328 6.52713,-0.32662 c 3.58992,-0.17964 7.05854,-0.65645 7.70803,-1.05959 z" id="path5326" inkscape:connector-curvature="0"/>
  <metadata>
    <rdf:RDF>
      <cc:Work>
        <dc:format>image/svg+xml</dc:format>
        <dc:type rdf:resource="http://purl.org/dc/dcmitype/StillImage"/>
        <cc:license rdf:resource="http://creativecommons.org/licenses/publicdomain/"/>
        <dc:publisher>
          <cc:Agent rdf:about="http://openclipart.org/">
            <dc:title>Openclipart</dc:title>
          </cc:Agent>
        </dc:publisher>
        <dc:title>snow flake 5</dc:title>
        <dc:date>2013-12-01T05:29:57</dc:date>
        <dc:description> Snow Flake </dc:description>
        <dc:source>http://openclipart.org/detail/189278/snow-flake-5-by-zecas-189278</dc:source>
        <dc:creator>
          <cc:Agent>
            <dc:title>zecas</dc:title>
          </cc:Agent>
        </dc:creator>
        <dc:subject>
          <rdf:Bag>
            <rdf:li>upload2openclipart</rdf:li>
            <rdf:li>snow</rdf:li>
            <rdf:li>flake</rdf:li>
            <rdf:li>christmas</rdf:li>
          </rdf:Bag>
        </dc:subject>
      </cc:Work>
      <cc:License rdf:about="http://creativecommons.org/licenses/publicdomain/">
        <cc:permits rdf:resource="http://creativecommons.org/ns#Reproduction"/>
        <cc:permits rdf:resource="http://creativecommons.org/ns#Distribution"/>
        <cc:permits rdf:resource="http://creativecommons.org/ns#DerivativeWorks"/>
      </cc:License>
    </rdf:RDF>
  </metadata>
</svg>
