<?xml version="1.0" encoding="UTF-8" standalone="no"?>
<!-- Created with Inkscape (http://www.inkscape.org/) -->

<svg
   xmlns:dc="http://purl.org/dc/elements/1.1/"
   xmlns:cc="http://creativecommons.org/ns#"
   xmlns:rdf="http://www.w3.org/1999/02/22-rdf-syntax-ns#"
   xmlns:svg="http://www.w3.org/2000/svg"
   xmlns="http://www.w3.org/2000/svg"
   xmlns:xlink="http://www.w3.org/1999/xlink"
   xmlns:sodipodi="http://sodipodi.sourceforge.net/DTD/sodipodi-0.dtd"
   xmlns:inkscape="http://www.inkscape.org/namespaces/inkscape"
   width="700"
   height="700"
   id="svg4373"
   version="1.1"
   inkscape:version="0.48.4 r9939"
   sodipodi:docname="New document 8">
  <defs
     id="defs4375">
    <linearGradient
       inkscape:collect="always"
       id="linearGradient5279">
      <stop
         style="stop-color:#aa0000;stop-opacity:1;"
         offset="0"
         id="stop5281" />
      <stop
         style="stop-color:#aa0000;stop-opacity:0;"
         offset="1"
         id="stop5283" />
    </linearGradient>
    <radialGradient
       r="328.37057"
       fy="-253.03596"
       fx="-363.65491"
       cy="-253.03596"
       cx="-363.65491"
       gradientTransform="matrix(1.7582066,0.0151072,-0.01691326,1.9684,271.44587,250.53382)"
       gradientUnits="userSpaceOnUse"
       id="radialGradient4066"
       xlink:href="#linearGradient3956"
       inkscape:collect="always" />
    <radialGradient
       r="125"
       fy="655.16797"
       fx="283.21896"
       cy="655.16797"
       cx="283.21896"
       gradientTransform="matrix(1.2105173,-0.06352481,0.06528572,1.2440729,-257.69566,151.08054)"
       gradientUnits="userSpaceOnUse"
       id="radialGradient4064"
       xlink:href="#linearGradient3797"
       inkscape:collect="always" />
    <radialGradient
       r="328.37057"
       fy="-253.03596"
       fx="-363.65491"
       cy="-253.03596"
       cx="-363.65491"
       gradientTransform="matrix(1.7582066,0.0151072,-0.01691326,1.9684,271.44587,250.53382)"
       gradientUnits="userSpaceOnUse"
       id="radialGradient3138"
       xlink:href="#linearGradient3956"
       inkscape:collect="always" />
    <radialGradient
       r="125"
       fy="655.16797"
       fx="283.21896"
       cy="655.16797"
       cx="283.21896"
       gradientTransform="matrix(1.2105173,-0.06352481,0.06528572,1.2440729,-257.69566,151.08054)"
       gradientUnits="userSpaceOnUse"
       id="radialGradient3136"
       xlink:href="#linearGradient3797"
       inkscape:collect="always" />
    <radialGradient
       r="328.37057"
       fy="-253.03596"
       fx="-363.65491"
       cy="-253.03596"
       cx="-363.65491"
       gradientTransform="matrix(1.7582066,0.0151072,-0.01691326,1.9684,271.44587,250.53382)"
       gradientUnits="userSpaceOnUse"
       id="radialGradient3974"
       xlink:href="#linearGradient3956"
       inkscape:collect="always" />
    <radialGradient
       r="125"
       fy="655.16797"
       fx="283.21896"
       cy="655.16797"
       cx="283.21896"
       gradientTransform="matrix(1.2105173,-0.06352481,0.06528572,1.2440729,-257.69566,151.08054)"
       gradientUnits="userSpaceOnUse"
       id="radialGradient3972"
       xlink:href="#linearGradient3797"
       inkscape:collect="always" />
    <radialGradient
       gradientUnits="userSpaceOnUse"
       gradientTransform="matrix(1.7582066,0.0151072,-0.01691326,1.9684,271.44587,250.53382)"
       r="328.37057"
       fy="-253.03596"
       fx="-363.65491"
       cy="-253.03596"
       cx="-363.65491"
       id="radialGradient3962"
       xlink:href="#linearGradient3956"
       inkscape:collect="always" />
    <radialGradient
       r="133.50044"
       fy="423.87711"
       fx="77.903694"
       cy="423.87711"
       cx="77.903694"
       gradientTransform="matrix(1.2453567,-0.01954439,0.01602021,1.020798,-25.904795,-68.553442)"
       gradientUnits="userSpaceOnUse"
       id="radialGradient3946"
       xlink:href="#linearGradient3835"
       inkscape:collect="always" />
    <filter
       color-interpolation-filters="sRGB"
       inkscape:label="Drop Shadow"
       id="filter3916">
      <feFlood
         result="flood"
         flood-color="rgb(0,0,0)"
         flood-opacity="0.5"
         id="feFlood3918" />
      <feComposite
         result="composite1"
         operator="in"
         in="flood"
         in2="SourceGraphic"
         id="feComposite3920" />
      <feGaussianBlur
         result="blur"
         stdDeviation="10"
         id="feGaussianBlur3922" />
      <feOffset
         result="offset"
         dy="4"
         dx="4"
         id="feOffset3924" />
      <feComposite
         result="composite2"
         operator="over"
         in="SourceGraphic"
         in2="offset"
         id="feComposite3926" />
    </filter>
    <radialGradient
       r="125"
       fy="655.16797"
       fx="283.21896"
       cy="655.16797"
       cx="283.21896"
       gradientTransform="matrix(1.2105173,-0.06352481,0.06528572,1.2440729,-257.69566,151.08054)"
       gradientUnits="userSpaceOnUse"
       id="radialGradient3912"
       xlink:href="#linearGradient3797"
       inkscape:collect="always" />
    <radialGradient
       r="133.50044"
       fy="423.87711"
       fx="77.903694"
       cy="423.87711"
       cx="77.903694"
       gradientTransform="matrix(1.2453567,-0.01954439,0.01602021,1.020798,-25.904795,-68.553442)"
       gradientUnits="userSpaceOnUse"
       id="radialGradient3908"
       xlink:href="#linearGradient3835"
       inkscape:collect="always" />
    <radialGradient
       r="125"
       fy="721.29102"
       fx="285.0137"
       cy="721.29102"
       cx="285.0137"
       gradientTransform="matrix(1.5658056,-0.01547828,0.01835031,1.8563447,-329.76091,-275.87112)"
       gradientUnits="userSpaceOnUse"
       id="radialGradient3906"
       xlink:href="#linearGradient3797"
       inkscape:collect="always" />
    <radialGradient
       r="125"
       fy="721.29102"
       fx="285.0137"
       cy="721.29102"
       cx="285.0137"
       gradientTransform="matrix(1.5658056,-0.01547828,0.01835031,1.8563447,-329.76091,-275.87112)"
       gradientUnits="userSpaceOnUse"
       id="radialGradient3868"
       xlink:href="#linearGradient3797"
       inkscape:collect="always" />
    <radialGradient
       r="133.50044"
       fy="423.87711"
       fx="77.903694"
       cy="423.87711"
       cx="77.903694"
       gradientTransform="matrix(1.2453567,-0.01954439,0.01602021,1.020798,-25.904795,-68.553442)"
       gradientUnits="userSpaceOnUse"
       id="radialGradient3856"
       xlink:href="#linearGradient3835"
       inkscape:collect="always" />
    <radialGradient
       r="125"
       fy="721.29102"
       fx="285.0137"
       cy="721.29102"
       cx="285.0137"
       gradientTransform="matrix(1.5658056,-0.01547828,0.01835031,1.8563447,-163.82268,-612.58212)"
       gradientUnits="userSpaceOnUse"
       id="radialGradient3803"
       xlink:href="#linearGradient3797"
       inkscape:collect="always" />
    <radialGradient
       r="133.50044"
       fy="423.87711"
       fx="77.903694"
       cy="423.87711"
       cx="77.903694"
       gradientTransform="matrix(1.2453567,-0.01954439,0.01602021,1.020798,-25.904795,-68.553442)"
       gradientUnits="userSpaceOnUse"
       id="radialGradient3021"
       xlink:href="#linearGradient3835"
       inkscape:collect="always" />
    <radialGradient
       gradientUnits="userSpaceOnUse"
       gradientTransform="matrix(1.2453567,-0.01954439,0.01602021,1.020798,-25.904795,-68.553442)"
       r="133.50044"
       fy="423.87711"
       fx="77.903694"
       cy="423.87711"
       cx="77.903694"
       id="radialGradient3841"
       xlink:href="#linearGradient3835"
       inkscape:collect="always" />
    <clipPath
       id="clipPath3005"
       clipPathUnits="userSpaceOnUse">
      <rect
         transform="matrix(0.99968164,-0.02523138,0.02523138,0.99968164,0,0)"
         y="98.009361"
         x="-70.405777"
         height="270.40106"
         width="270.40106"
         id="rect3007"
         style="fill:#ff7f2a;fill-opacity:1;fill-rule:nonzero;stroke:none" />
    </clipPath>
    <filter
       color-interpolation-filters="sRGB"
       inkscape:label="Drop Shadow"
       id="filter2987">
      <feFlood
         result="flood"
         flood-color="rgb(0,0,0)"
         flood-opacity="0.5"
         id="feFlood2989" />
      <feComposite
         result="composite1"
         operator="in"
         in="flood"
         in2="SourceGraphic"
         id="feComposite2991" />
      <feGaussianBlur
         result="blur"
         stdDeviation="10"
         id="feGaussianBlur2993" />
      <feOffset
         result="offset"
         dy="4"
         dx="4"
         id="feOffset2995" />
      <feComposite
         result="composite2"
         operator="over"
         in="SourceGraphic"
         in2="offset"
         id="feComposite2997" />
    </filter>
    <linearGradient
       id="linearGradient3779">
      <stop
         id="stop3781"
         offset="0"
         style="stop-color:#ff7f2a;stop-opacity:1;" />
      <stop
         id="stop3783"
         offset="1"
         style="stop-color:#c10000;stop-opacity:1" />
    </linearGradient>
    <linearGradient
       id="linearGradient3797"
       inkscape:collect="always">
      <stop
         id="stop3799"
         offset="0"
         style="stop-color:#ffe71b;stop-opacity:1;" />
      <stop
         id="stop3801"
         offset="1"
         style="stop-color:#ff1b1b;stop-opacity:1" />
    </linearGradient>
    <linearGradient
       id="linearGradient3835"
       inkscape:collect="always">
      <stop
         id="stop3837"
         offset="0"
         style="stop-color:#ffffff;stop-opacity:1;" />
      <stop
         id="stop3839"
         offset="1"
         style="stop-color:#fffc13;stop-opacity:1" />
    </linearGradient>
    <linearGradient
       id="linearGradient3821">
      <stop
         id="stop3823"
         offset="0"
         style="stop-color:#ffffff;stop-opacity:1;" />
      <stop
         id="stop3825"
         offset="1"
         style="stop-color:#06e5ff;stop-opacity:0;" />
    </linearGradient>
    <linearGradient
       id="linearGradient3842">
      <stop
         id="stop3844"
         offset="0"
         style="stop-color:#004be6;stop-opacity:1;" />
      <stop
         id="stop3846"
         offset="1"
         style="stop-color:#ffffff;stop-opacity:0;" />
    </linearGradient>
    <linearGradient
       id="linearGradient3936">
      <stop
         id="stop3938"
         offset="0"
         style="stop-color:#f9ff22;stop-opacity:1;" />
      <stop
         id="stop3940"
         offset="1"
         style="stop-color:#ffffff;stop-opacity:0;" />
    </linearGradient>
    <linearGradient
       id="linearGradient3948">
      <stop
         id="stop3950"
         offset="0"
         style="stop-color:#ffffff;stop-opacity:1;" />
      <stop
         id="stop3952"
         offset="1"
         style="stop-color:#ffffff;stop-opacity:0;" />
    </linearGradient>
    <linearGradient
       id="linearGradient3956">
      <stop
         id="stop3958"
         offset="0"
         style="stop-color:#ffffff;stop-opacity:1;" />
      <stop
         style="stop-color:#fffe96;stop-opacity:0.74901961;"
         offset="0.26604208"
         id="stop3966" />
      <stop
         style="stop-color:#fffd2d;stop-opacity:0.49803922;"
         offset="1"
         id="stop3964" />
    </linearGradient>
    <radialGradient
       inkscape:collect="always"
       xlink:href="#linearGradient3956"
       id="radialGradient4723"
       gradientUnits="userSpaceOnUse"
       gradientTransform="matrix(1.7582066,0.0151072,-0.01691326,1.9684,271.44587,250.53382)"
       cx="-363.65491"
       cy="-253.03596"
       fx="-363.65491"
       fy="-253.03596"
       r="328.37057" />
    <radialGradient
       inkscape:collect="always"
       xlink:href="#linearGradient5279"
       id="radialGradient5285"
       cx="375.38147"
       cy="450.05313"
       fx="375.38147"
       fy="450.05313"
       r="129.20154"
       gradientTransform="matrix(1,0,0,1.0285543,0,-12.850936)"
       gradientUnits="userSpaceOnUse" />
  </defs>
  <sodipodi:namedview
     id="base"
     pagecolor="#ffffff"
     bordercolor="#666666"
     borderopacity="1.0"
     inkscape:pageopacity="0.0"
     inkscape:pageshadow="2"
     inkscape:zoom="0.54211519"
     inkscape:cx="690.97782"
     inkscape:cy="344.05855"
     inkscape:document-units="px"
     inkscape:current-layer="layer1"
     showgrid="false"
     inkscape:window-width="1871"
     inkscape:window-height="1056"
     inkscape:window-x="49"
     inkscape:window-y="24"
     inkscape:window-maximized="1" />
  <metadata
     id="metadata4378">
    <rdf:RDF>
      <cc:Work
         rdf:about="">
        <dc:format>image/svg+xml</dc:format>
        <dc:type
           rdf:resource="http://purl.org/dc/dcmitype/StillImage" />
        <dc:title></dc:title>
      </cc:Work>
    </rdf:RDF>
  </metadata>
  <g
     inkscape:label="Layer 1"
     inkscape:groupmode="layer"
     id="layer1"
     transform="translate(0,-352.36218)">
    <g
       id="g5309">
      <rect
         y="353.72241"
         x="1.3602368"
         height="697.27954"
         width="697.27948"
         id="rect4381"
         style="fill:#ffffff;fill-opacity:1;stroke:#000000;stroke-width:2.72047353000000003;stroke-linecap:round;stroke-linejoin:round;stroke-miterlimit:4;stroke-opacity:0;stroke-dasharray:none;stroke-dashoffset:0" />
      <rect
         y="353.43411"
         x="1.0719299"
         height="197.85611"
         width="697.85614"
         id="rect4383"
         style="fill:#ffdd1b;fill-opacity:1;stroke:#000000;stroke-width:2.14388656999999982;stroke-linecap:round;stroke-linejoin:round;stroke-miterlimit:4;stroke-opacity:0;stroke-dasharray:none;stroke-dashoffset:0" />
      <path
         transform="matrix(1.1611034,0,0,1.128625,-85.856698,296.79438)"
         d="m 503.58301,450.05313 a 128.20154,131.89079 0 1 1 -256.40308,0 128.20154,131.89079 0 1 1 256.40308,0 z"
         sodipodi:ry="131.89079"
         sodipodi:rx="128.20154"
         sodipodi:cy="450.05313"
         sodipodi:cx="375.38147"
         id="path5277"
         style="fill:url(#radialGradient5285);fill-opacity:1;stroke:#000000;stroke-width:2;stroke-linecap:round;stroke-linejoin:round;stroke-miterlimit:4;stroke-opacity:0;stroke-dasharray:none;stroke-dashoffset:0"
         sodipodi:type="arc" />
      <path
         transform="matrix(0.75999672,0,0,0.75999672,626.37654,997.0421)"
         d="m -185.86805,-6.5587297 -70.73156,-76.4983283 38.43787,96.837383 -60.58604,-84.760131 25.99783,100.891334 -49.48504,-91.685216 13.1478,103.354168 -37.60363,-97.164371 0.0904,104.187046 -25.12919,-101.111186 -12.9684,103.376831 -12.25845,-103.463416 -25.82269,100.936302 0.80562,-104.183967 -38.26975,96.903947 13.85698,-103.261474 -50.11327,91.343359 26.68981,-100.710487 -61.16647,84.342232 39.10173,-96.571234 -71.25504,76.010977 50.89698,-90.908996 -80.21987,66.480984 61.88956,-83.813067 -87.91959,55.902545 71.90611,-75.395355 -94.23277,44.442487 80.78865,-65.788617 -99.05983,32.28155 88.39711,-55.14435 -102.32467,19.61151 94.61149,-43.63043 -103.97578,6.63219 99.33379,-31.42843 -103.98713,-6.45172 102.48954,-18.73078 -102.35855,-19.4339 104.02897,-5.73773 -99.11571,-32.10959 103.9278,7.3458 -94.30975,-44.27888 102.18762,20.31347 -88.01647,-55.74987 98.83589,32.96081 -80.33513,-66.34167 93.92546,45.08833 -71.38685,-75.8872 87.53376,56.50477 -61.31275,-84.23595 79.7616,67.0301 -50.27171,-91.25625 70.73156,76.49833 -38.43787,-96.83739 60.58604,84.76014 -25.99784,-100.89134 49.48504,91.68522 -13.1478,-103.35417 37.60363,97.16437 -0.0904,-104.18704 25.12918,101.11118 12.96841,-103.37683 12.25844,103.46342 25.8227,-100.93631 -0.80562,104.18397 38.26975,-96.90395 -13.85698,103.26148 50.11326,-91.34336 -26.68981,100.71049 61.16647,-84.34224 -39.10172,96.57124 71.25503,-76.01098 -50.89698,90.909 80.21987,-66.48099 -61.88956,83.81307 87.91959,-55.90254 -71.9061,75.39535 94.23276,-44.44249 -80.78865,65.78862 99.059834,-32.28155 -88.397104,55.14435 102.324664,-19.61151 -94.611484,43.63043 103.975775,-6.63219 -99.333795,31.42843 103.987138,6.45172 -102.489538,18.73078 102.358545,19.4339 -104.028965,5.73773 99.115703,32.10959 -103.927803,-7.3458 94.309756,44.27888 -102.187626,-20.31347 88.016478,55.74987 -98.835888,-32.96081 80.33512,66.341665 -93.92545,-45.088325 71.38685,75.887201 -87.53376,-56.504771 61.31275,84.235952 -79.76161,-67.030101 z"
         inkscape:randomized="0"
         inkscape:rounded="-2.4980018e-16"
         inkscape:flatsided="false"
         sodipodi:arg2="1.0087419"
         sodipodi:arg1="0.94591009"
         sodipodi:r2="200.88222"
         sodipodi:r1="303.90656"
         sodipodi:cy="-253.03596"
         sodipodi:cx="-363.65491"
         sodipodi:sides="50"
         id="path3914"
         style="fill:url(#radialGradient4723);fill-opacity:1;fill-rule:nonzero;stroke:none;filter:url(#filter3916)"
         sodipodi:type="star" />
      <g
         id="text5263"
         style="font-size:150.07922363px;font-style:normal;font-weight:normal;text-align:center;line-height:86.00000143%;letter-spacing:0px;word-spacing:0px;text-anchor:middle;fill:#000000;fill-opacity:1;stroke:none;font-family:Sans"
         transform="scale(1.2930003,0.77339503)">
        <path
           id="path5299"
           style="font-variant:normal;font-stretch:normal;line-height:86.00000143%;fill:#000000;font-family:NanumMyeongjo;-inkscape-font-specification:NanumMyeongjo"
           d="m 19.334877,551.54816 4.103728,0 c 0.683943,2.93126 1.465605,5.81364 2.344988,8.64714 0.879356,2.83354 2.100702,5.32509 3.664044,7.47465 1.661013,2.24729 3.76173,4.05488 6.302155,5.42278 2.540377,1.27021 5.862439,1.90531 9.966198,1.90531 7.523461,0 13.679048,-2.00301 18.46678,-6.00903 4.787626,-4.00601 7.181465,-9.03796 7.181525,-15.09586 -6e-5,-3.51746 -0.63516,-6.59525 -1.905303,-9.23339 -1.270258,-2.73579 -2.931289,-5.12963 -4.983099,-7.18153 -2.149623,-2.05182 -4.64117,-3.90827 -7.474649,-5.56934 -2.735862,-1.66099 -5.61824,-3.32202 -8.647143,-4.9831 -3.126684,-1.56328 -6.204477,-3.32202 -9.233389,-5.27623 -3.028967,-1.95409 -5.813638,-4.15252 -8.35402,-6.59527 -2.442712,-2.54034 -4.44572,-5.37387 -6.009031,-8.50059 -1.465629,-3.22428 -2.198437,-6.83947 -2.198426,-10.84556 -1.1e-5,-5.17843 0.830505,-9.67299 2.491549,-13.48369 1.661019,-3.8105 3.95715,-6.93715 6.888402,-9.37995 2.931212,-2.54029 6.350983,-4.39674 10.259322,-5.56934 3.908279,-1.27009 8.109711,-1.90519 12.60431,-1.90531 1.465573,1.2e-4 2.882335,0.0978 4.250291,0.29313 1.36786,0.0978 2.735769,0.19553 4.103728,0.29312 1.367857,0.19553 2.735765,0.4398 4.103729,0.73281 1.465561,0.19553 3.028884,0.39094 4.689976,0.58625 l 2.491549,20.22552 -3.810605,0 c -0.977136,-5.86238 -2.687021,-10.25922 -5.129661,-13.19056 -2.442747,-2.93113 -6.741887,-4.39674 -12.897433,-4.39685 -7.621244,1.1e-4 -13.337146,2.05197 -17.147724,6.15559 -3.712917,4.00612 -5.569364,8.7938 -5.569346,14.36305 -1.8e-5,3.51757 0.781644,6.69307 2.344988,9.52652 1.563303,2.73589 3.566311,5.22744 6.009031,7.47464 2.540375,2.24735 5.373899,4.25036 8.500581,6.00904 3.126613,1.7588 6.302114,3.41983 9.526513,4.9831 3.126603,1.66109 6.106689,3.41983 8.940267,5.27622 2.931178,1.75879 5.520433,3.7618 7.767772,6.00903 2.247217,2.34503 4.05481,5.032 5.422784,8.0609 1.367842,2.93127 2.051796,6.30218 2.051865,10.11276 -6.9e-5,5.27624 -1.074854,9.91736 -3.224358,13.92336 -2.051928,3.90833 -4.738891,7.23039 -8.060896,9.9662 -3.419828,2.63811 -7.279284,4.64112 -11.578378,6.00903 -4.201478,1.2702 -8.451764,1.9053 -12.750871,1.9053 -4.00605,0 -7.91436,-0.39083 -11.72494,-1.17249 -3.712915,-0.78166 -7.132685,-1.9053 -10.259322,-3.37092 l -3.517481,-23.59644" />
        <path
           id="path5301"
           style="font-variant:normal;font-stretch:normal;line-height:86.00000143%;fill:#000000;font-family:NanumMyeongjo;-inkscape-font-specification:NanumMyeongjo"
           d="m 205.0286,521.94269 c -1.1e-4,7.23043 -1.31917,14.31424 -3.95716,21.25145 -2.63823,6.93728 -6.35112,13.09287 -11.1387,18.46678 -4.69007,5.47165 -10.35712,9.8685 -17.00116,13.19056 -6.64421,3.22435 -13.92344,4.83653 -21.8377,4.83653 -7.32814,0 -14.26539,-1.51447 -20.81177,-4.54341 -6.44875,-3.02894 -12.06694,-7.13266 -16.8546,-12.31119 -4.88541,-5.17849 -8.74486,-11.18752 -11.57837,-18.02709 -2.735834,-6.83951 -4.103742,-14.06988 -4.103733,-21.69114 -9e-6,-7.23032 1.270191,-14.26527 3.810603,-21.10489 2.6381,-6.93717 6.30214,-13.14161 10.99213,-18.61334 4.78766,-5.37383 10.45471,-9.72183 17.00117,-13.044 6.64408,-3.32195 13.97216,-4.98298 21.98426,-4.9831 7.23031,1.2e-4 14.06985,1.56344 20.51864,4.68998 6.54633,3.02905 12.26224,7.13277 17.14772,12.31119 4.78758,5.1786 8.59818,11.18763 11.43182,18.02709 2.93112,6.83962 4.39674,14.02114 4.39685,21.54458 m -11.72494,4.39685 c -1e-4,-5.96012 -0.87947,-12.26227 -2.63811,-18.90647 -1.75884,-6.64405 -4.4458,-12.75078 -8.06089,-18.32021 -3.51758,-5.56925 -8.06099,-10.16152 -13.63025,-13.77681 -5.47171,-3.61508 -11.92042,-5.42267 -19.34615,-5.42278 -6.05794,1.1e-4 -11.57842,1.22145 -16.56147,3.66404 -4.88543,2.4428 -9.13572,5.81372 -12.75087,10.11276 -3.51751,4.29924 -6.25333,9.42889 -8.20746,15.38899 -1.95418,5.96025 -2.93126,12.45781 -2.93124,19.49271 -2e-5,6.05794 0.87935,12.40894 2.63811,19.05302 1.75872,6.64417 4.39683,12.7509 7.91434,18.32022 3.61515,5.56936 8.15856,10.16163 13.63024,13.7768 5.47159,3.51749 11.96915,5.27623 19.49271,5.27623 6.44865,0 12.16455,-1.17249 17.14773,-3.51748 5.08072,-2.44269 9.331,-5.81361 12.75087,-10.11276 3.41967,-4.29913 6.00893,-9.42878 7.76777,-15.38899 1.85634,-5.96014 2.78457,-12.50655 2.78467,-19.63927" />
        <path
           id="path5303"
           style="font-variant:normal;font-stretch:normal;line-height:86.00000143%;fill:#000000;font-family:NanumMyeongjo;-inkscape-font-specification:NanumMyeongjo"
           d="m 297.36251,577.19646 c -4.88547,-0.0977 -10.69908,-0.19541 -17.44085,-0.29312 -6.64419,-0.0977 -13.48373,-0.14656 -20.51864,-0.14656 -7.13271,0 -14.06996,0.0488 -20.81177,0.14656 -6.74186,0.0977 -12.55547,0.19542 -17.44085,0.29312 l 0,-3.51748 c 2.93123,10e-6 5.32507,-0.19541 7.18153,-0.58625 1.85643,-0.48853 3.27319,-1.31904 4.25029,-2.49154 1.07477,-1.17249 1.80757,-2.78467 2.19843,-4.83654 0.39081,-2.14956 0.58622,-4.93423 0.58624,-8.35402 l 0,-71.52213 c -2e-5,-3.12656 -0.24429,-5.6181 -0.73281,-7.47465 -0.39085,-1.95406 -1.12366,-3.41967 -2.19842,-4.39685 -1.07481,-0.97698 -2.54042,-1.61208 -4.39685,-1.90531 -1.85646,-0.29301 -4.1526,-0.48843 -6.88841,-0.58624 l 0,-3.81061 c 1.75874,0.19553 4.39684,0.34209 7.91434,0.43969 3.51746,1.1e-4 7.1815,1.1e-4 10.99213,0 3.81057,1.1e-4 7.47461,1.1e-4 10.99213,0 3.61515,-0.0976 6.44867,-0.24416 8.50058,-0.43969 l 0,3.81061 c -2.93128,0.0978 -5.32512,0.29323 -7.18153,0.58624 -1.85648,0.29323 -3.3221,0.97719 -4.39685,2.05187 -1.07482,0.97718 -1.80762,2.39394 -2.19842,4.25029 -0.39087,1.85655 -0.58628,4.34809 -0.58625,7.47465 l 0,71.52213 c -3e-5,3.32208 0.34195,6.00904 1.02593,8.06089 0.68392,1.95417 2.00298,3.46864 3.95717,4.54342 1.95412,1.07479 4.73879,1.8076 8.35402,2.19842 3.71285,0.29313 8.50053,0.4397 14.36305,0.43969 4.29908,10e-6 7.91427,-0.24426 10.84557,-0.73281 2.93116,-0.48853 5.42271,-1.46561 7.47465,-2.93123 1.95407,-1.46561 3.61511,-3.41977 4.9831,-5.86247 1.36782,-2.54039 2.63802,-5.8136 3.8106,-9.81964 l 3.22436,0 -5.86247,23.88956" />
        <path
           id="path5305"
           style="font-variant:normal;font-stretch:normal;line-height:86.00000143%;fill:#000000;font-family:NanumMyeongjo;-inkscape-font-specification:NanumMyeongjo"
           d="m 332.2442,557.99688 c -1.95418,5.37394 -2.39386,9.3311 -1.31905,11.8715 1.07476,2.4427 4.88536,3.66404 11.43181,3.66404 l 0,3.66404 c -4.88542,-0.0977 -10.25935,-0.14656 -16.12179,-0.14656 -5.86248,0 -11.1387,0.0489 -15.82867,0.14656 l 0,-3.95716 c 2.63811,0 4.78768,-0.24427 6.44872,-0.73281 1.66102,-0.48853 3.07778,-1.3679 4.25029,-2.63811 1.17248,-1.17249 2.19841,-2.73581 3.0778,-4.68998 0.87935,-2.05185 1.85643,-4.59225 2.93123,-7.62121 l 33.12295,-94.2392 2.93124,0 32.09702,94.53232 c 0.97699,3.02896 2.00292,5.52051 3.0778,7.47465 1.07469,1.95417 2.24718,3.46864 3.51748,4.54342 1.36781,1.1725 2.88228,2.05187 4.54341,2.63811 1.75864,0.48854 3.8105,0.83052 6.1556,1.02593 l 0,3.66404 c -2.4428,0 -5.22747,0 -8.35402,0 -3.02904,-0.0977 -6.15569,-0.14656 -9.37995,-0.14656 -3.32216,0 -6.54651,0.0489 -9.67308,0.14656 -3.02902,0 -5.71598,0 -8.0609,0 l 0,-3.66404 c 3.12658,0 5.56927,-0.19541 7.32809,-0.58625 1.75866,-0.39082 2.93116,-1.17248 3.51748,-2.34498 0.58617,-1.17249 0.63502,-2.78467 0.14656,-4.83654 -0.39091,-2.05185 -1.07486,-4.73881 -2.05186,-8.0609 l -7.47465,-21.69114 -38.6923,0 -7.62121,21.98427 m 44.70133,-26.96737 -17.29428,-51.73629 -17.88054,51.73629 35.17482,0" />
        <path
           id="path5307"
           style="font-variant:normal;font-stretch:normal;line-height:86.00000143%;fill:#000000;font-family:NanumMyeongjo;-inkscape-font-specification:NanumMyeongjo"
           d="m 446.26923,525.31361 0,32.39014 c -3e-5,3.22438 0.14653,5.86249 0.43969,7.91434 0.3908,1.95416 1.07475,3.51749 2.05186,4.68997 1.07475,1.1725 2.54037,2.00302 4.39685,2.49155 1.85641,0.48855 4.34796,0.73281 7.47465,0.73281 l 0,3.66404 c -1.9542,-0.0977 -4.69001,-0.14656 -8.20746,-0.14656 -3.51751,-0.0977 -7.18155,-0.14656 -10.99213,-0.14656 -3.81062,0 -7.52352,0.0489 -11.13869,0.14656 -3.51749,0 -6.20445,0.0489 -8.06089,0.14656 l 0,-3.51748 c 2.83351,10e-6 5.12965,-0.14656 6.8884,-0.43968 1.85643,-0.39083 3.32205,-1.12364 4.39685,-2.19843 1.07477,-1.17249 1.80758,-2.78466 2.19843,-4.83654 0.48852,-2.14955 0.73278,-4.98308 0.7328,-8.50058 l 0,-71.81525 c -2e-5,-3.02885 -0.24428,-5.47154 -0.7328,-7.32809 -0.39085,-1.85635 -1.12366,-3.32196 -2.19843,-4.39685 -1.0748,-0.97697 -2.54042,-1.61207 -4.39685,-1.9053 -1.85646,-0.39073 -4.15259,-0.635 -6.8884,-0.73281 l 0,-3.81061 c 2.44268,0.0978 5.52048,0.19553 9.23339,0.29313 3.71287,1.1e-4 7.57233,1.1e-4 11.57837,0 4.00599,1.1e-4 7.9143,1.1e-4 11.72494,0 3.81057,-0.0976 7.03492,-0.19531 9.67308,-0.29313 6.64407,1.1e-4 12.11571,0.97719 16.41491,2.93124 4.39679,1.85655 7.86541,4.15268 10.40589,6.8884 2.44261,2.83362 4.1525,5.86256 5.12966,9.08683 1.0747,3.12674 1.61209,6.00911 1.61218,8.64714 -9e-5,3.51756 -0.63519,6.79077 -1.90531,9.81964 -1.17257,2.9313 -2.78475,5.56941 -4.83653,7.91433 -2.05194,2.44276 -4.39693,4.49462 -7.03497,6.15559 -2.63817,1.66109 -5.37399,2.88244 -8.20745,3.66405 1.85638,3.22441 4.00595,6.74189 6.44871,10.55244 2.54034,3.71294 5.12959,7.37698 7.76777,10.99213 2.63804,3.71293 5.17844,7.23041 7.62121,10.55245 2.54032,3.22438 4.73875,5.91134 6.59528,8.06089 2.3449,2.93125 4.93416,5.4228 7.76778,7.47465 2.83342,2.05187 6.10663,3.0778 9.81963,3.0778 l 0,3.66404 c -3.51758,-0.19541 -7.03506,-0.29312 -10.55244,-0.29312 -3.41987,0 -6.69308,0.0977 -9.81964,0.29312 -2.83361,-3.61518 -5.8137,-7.67005 -8.94027,-12.16462 -3.12672,-4.49454 -6.25337,-9.03795 -9.37995,-13.63024 -3.22442,-4.68995 -6.35107,-9.28221 -9.37995,-13.77681 -2.93129,-4.49451 -5.61825,-8.59824 -8.06089,-12.31118 l -19.63928,0 m 0,-5.42279 c 1.17246,0.29318 2.98006,0.4886 5.42279,0.58625 2.44265,6e-5 4.39681,6e-5 5.86247,0 5.47159,6e-5 10.06385,-0.6839 13.7768,-2.05186 3.81055,-1.46556 6.88834,-3.37086 9.23339,-5.71591 2.34492,-2.24721 4.00595,-4.78762 4.9831,-7.62121 1.07471,-2.93116 1.61211,-5.86239 1.61218,-8.79371 -7e-5,-3.32198 -0.53747,-6.44863 -1.61218,-9.37995 -0.97715,-2.93114 -2.58933,-5.47154 -4.83654,-7.62121 -2.24734,-2.14947 -5.17857,-3.8105 -8.7937,-4.9831 -3.61525,-1.2701 -8.06095,-1.9052 -13.33712,-1.9053 -2.24732,1e-4 -4.54345,0.0978 -6.8884,0.29312 -2.24732,0.0978 -4.05491,0.24438 -5.42279,0.43969 l 0,46.75319" />
      </g>
      <g
         id="text5273"
         style="font-size:143.89744568px;font-style:normal;font-weight:normal;text-align:center;line-height:86.00000143%;letter-spacing:0px;word-spacing:0px;text-anchor:middle;fill:#000000;fill-opacity:1;stroke:none;font-family:Sans"
         transform="scale(1.2178821,0.82109755)">
        <path
           id="path5288"
           style="font-variant:normal;font-stretch:normal;line-height:86.00000143%;fill:#000000;font-family:NanumMyeongjo;-inkscape-font-specification:NanumMyeongjo"
           d="m 43.714054,641.98962 c -2.8e-5,3.37262 0.187339,6.04259 0.5621,8.00992 0.374704,1.96736 1.077327,3.51313 2.107872,4.63732 1.030484,1.03052 2.435732,1.73315 4.215746,2.10787 1.779945,0.37474 4.075182,0.56211 6.885717,0.5621 l 0,3.51312 c -2.623169,1e-5 -5.527346,1e-5 -8.71254,0 -3.18526,-0.0937 -6.46417,-0.14052 -9.83674,-0.14052 -3.278933,0 -6.557842,0 -9.836739,0 -3.18524,0 -6.042576,0.0468 -8.572016,0.14052 l 0,-3.51312 c 2.716807,10e-6 4.965202,-0.18736 6.745193,-0.5621 1.779968,-0.37472 3.185215,-1.07735 4.215745,-2.10787 1.030499,-1.12419 1.733123,-2.66996 2.107873,-4.63732 0.468398,-1.96733 0.702606,-4.6373 0.702624,-8.00992 l 0,-68.9977 c -1.8e-5,-2.90409 -0.187384,-5.19932 -0.562099,-6.88571 -0.37475,-1.77989 -1.030532,-3.18514 -1.967348,-4.21575 -0.936847,-0.93673 -2.295253,-1.54567 -4.075221,-1.82682 -1.686308,-0.37463 -3.934703,-0.562 -6.745192,-0.5621 l 0,-3.51312 c 2.061024,0.0938 4.63731,0.18747 7.728866,0.28105 3.091531,1e-4 6.276758,-0.0467 9.55569,-0.14053 3.278888,1.1e-4 6.464114,1.1e-4 9.55569,0 3.091512,-0.0936 5.667798,-0.18726 7.728866,-0.28105 10.398789,1.1e-4 18.830272,2.71692 25.294473,8.15044 6.464072,5.34004 9.69614,12.55364 9.696215,21.64083 -7.5e-5,4.59055 -0.843223,8.71261 -2.529447,12.36619 -1.592686,3.6537 -3.747398,6.74525 -6.464143,9.27464 -2.716877,2.62318 -5.855262,4.68421 -9.415165,6.18309 -3.560016,1.49898 -7.307341,2.29529 -11.241988,2.38892 -1.311609,0.0937 -2.716856,0.18741 -4.215746,0.28105 -1.405287,5e-5 -2.857376,5e-5 -4.35627,0 -1.59265,5e-5 -3.138421,5e-5 -4.63732,0 -1.405279,-0.0936 -2.716843,-0.14048 -3.934696,-0.14052 l 0,25.99709 m 0,-31.47756 c 2.435734,0.2811 5.01202,0.46847 7.728867,0.5621 2.716775,0.0937 5.199379,0.0937 7.447817,0 6.464094,-0.18732 11.663508,-2.43571 15.598258,-6.7452 3.934634,-4.30936 5.901979,-10.2114 5.902044,-17.70613 -6.5e-5,-4.40303 -0.796371,-8.24404 -2.388923,-11.52303 -1.498992,-3.27883 -3.513179,-5.99564 -6.042568,-8.15045 -2.529501,-2.2483 -5.48052,-3.88775 -8.853066,-4.91837 -3.278957,-1.12409 -6.65155,-1.68619 -10.117789,-1.68629 -1.124234,10e-5 -2.763689,0.14062 -4.91837,0.42157 -2.154744,0.18747 -3.606832,0.32799 -4.35627,0.42158 l 0,49.32422" />
        <path
           id="path5290"
           style="font-variant:normal;font-stretch:normal;line-height:86.00000143%;fill:#000000;font-family:NanumMyeongjo;-inkscape-font-specification:NanumMyeongjo"
           d="m 208.12813,607.84209 c -1.1e-4,6.9326 -1.26484,13.72463 -3.79417,20.3761 -2.52956,6.65154 -6.08951,12.55357 -10.67989,17.70613 -4.49689,5.24627 -9.93051,9.46201 -16.30088,12.64724 -6.37054,3.09154 -13.34993,4.63732 -20.93821,4.63732 -7.02629,0 -13.67779,-1.45209 -19.95452,-4.35627 -6.18313,-2.90418 -11.56991,-6.83887 -16.16036,-11.80409 -4.68418,-4.96519 -8.38467,-10.72671 -11.10147,-17.28456 -2.62314,-6.55779 -3.9347,-13.49034 -3.93469,-20.79768 -1e-5,-6.93249 1.21787,-13.67768 3.65365,-20.23557 2.52943,-6.65143 6.04254,-12.60031 10.53936,-17.84666 4.59045,-5.15248 10.02407,-9.32138 16.30088,-12.50671 6.37041,-3.18512 13.39665,-4.77774 21.07873,-4.77785 6.93249,1.1e-4 13.49031,1.49904 19.67348,4.4968 6.27669,2.90428 11.75715,6.83897 16.4414,11.80409 4.59038,4.96529 8.24402,10.72681 10.96094,17.28455 2.81039,6.5579 4.21564,13.44361 4.21575,20.65716 m -11.24199,4.21574 c -1e-4,-5.71462 -0.84325,-11.75718 -2.52945,-18.1277 -1.68639,-6.37039 -4.26268,-12.22559 -7.72886,-17.56561 -3.37269,-5.33985 -7.72895,-9.74296 -13.06881,-13.20934 -5.24634,-3.46617 -11.42942,-5.19931 -18.54928,-5.19942 -5.80842,1.1e-4 -11.10152,1.17115 -15.87931,3.51313 -4.6842,2.34217 -8.75942,5.57424 -12.22566,9.69621 -3.37263,4.12215 -5.99576,9.04051 -7.8694,14.75511 -1.87368,5.71475 -2.81051,11.94468 -2.81049,18.6898 -2e-5,5.80842 0.84313,11.89782 2.52944,18.26823 1.68628,6.3705 4.21572,12.22569 7.58835,17.56561 3.46624,5.33996 7.82251,9.74307 13.06881,13.20934 5.24621,3.3726 11.47614,5.05889 18.6898,5.05889 6.18303,0 11.66349,-1.12419 16.44141,-3.3726 4.87144,-2.34207 8.94666,-5.57414 12.22566,-9.69621 3.27882,-4.12204 5.76142,-9.04041 7.44782,-14.75511 1.77988,-5.71464 2.66987,-11.99141 2.66997,-18.83033" />
        <path
           id="path5292"
           style="font-variant:normal;font-stretch:normal;line-height:86.00000143%;fill:#000000;font-family:NanumMyeongjo;-inkscape-font-specification:NanumMyeongjo"
           d="m 274.03428,663.20888 -2.38892,0 -37.52013,-91.62221 c -0.93685,-2.06093 -1.78,-3.84091 -2.52945,-5.33994 -0.74948,-1.59252 -1.63947,-2.85724 -2.66997,-3.79417 -1.12421,-1.03042 -2.52946,-1.77988 -4.21575,-2.2484 -1.59262,-0.46831 -3.70049,-0.70252 -6.32362,-0.70262 l 0,-3.65365 c 1.59261,0.18747 3.93469,0.28116 7.02624,0.28105 3.09154,1.1e-4 6.32361,1.1e-4 9.69622,0 3.27889,1.1e-4 6.41728,1.1e-4 9.41516,0 2.99784,-0.0936 5.24623,-0.18726 6.7452,-0.28105 l 0,3.65365 c -4.40314,10e-5 -7.1668,0.74957 -8.29097,2.2484 -1.12422,1.49903 -0.70265,4.77794 1.26472,9.83673 l 31.056,77.9913 18.40875,-39.62801 -16.30088,-38.08224 c -1.96741,-4.4967 -3.88791,-7.68192 -5.76152,-9.55569 -1.87372,-1.87356 -5.19947,-2.81039 -9.97726,-2.81049 l 0,-3.65365 c 1.77993,0.18747 4.16885,0.328 7.16676,0.42158 2.99781,1e-4 6.08936,1e-4 9.27464,0 3.09149,1e-4 5.99566,1e-4 8.71254,0 2.71675,-0.0936 4.73093,-0.23411 6.04257,-0.42158 l 0,3.65365 c -4.02845,10e-5 -6.46421,0.74957 -7.30729,2.2484 -0.84322,1.49903 -0.14059,4.91846 2.10787,10.25831 l 11.10147,26.84025 12.22566,-26.13763 c 2.2483,-5.15248 2.95092,-8.61876 2.10787,-10.39884 -0.84324,-1.87356 -3.98163,-2.81039 -9.41516,-2.81049 l 0,-3.65365 c 1.40516,0.18747 3.27882,0.28116 5.62099,0.28105 2.43567,1.1e-4 4.96511,1.1e-4 7.58834,0 2.52935,1.1e-4 4.91827,1.1e-4 7.16677,0 2.24829,-0.0936 3.93458,-0.18726 5.05889,-0.28105 l 0,3.65365 c -1.96745,10e-5 -3.65375,0.42167 -5.05889,1.26472 -1.31167,0.74957 -2.43587,1.73324 -3.3726,2.95102 -1.03062,1.21798 -1.92061,2.62323 -2.66997,4.21575 -0.74957,1.49902 -1.45219,2.95111 -2.10787,4.35627 l -14.75511,32.18019 18.1277,43.98428 27.96445,-74.89975 c 2.15458,-5.99563 2.66984,-9.7898 1.54577,-11.38251 -1.12433,-1.6862 -4.12219,-2.57619 -8.99359,-2.66997 l 0,-3.65365 c 1.40513,0.18747 3.23195,0.28116 5.48047,0.28105 2.24827,1.1e-4 4.54351,1.1e-4 6.88572,0 2.43563,1.1e-4 4.63718,1.1e-4 6.60467,0 2.06088,-0.0936 3.60666,-0.18726 4.63732,-0.28105 l 0,3.65365 c -1.87381,10e-5 -3.3259,0.28115 -4.35627,0.84315 -1.03066,0.46851 -1.92065,1.26482 -2.66998,2.38892 -0.84328,1.03061 -1.59275,2.43586 -2.24839,4.21574 -0.56224,1.78008 -1.3117,3.93479 -2.2484,6.46415 l -33.16387,89.79538 -2.38892,0 -20.23558,-47.63793 -22.0624,47.63793" />
        <path
           id="path5294"
           style="font-variant:normal;font-stretch:normal;line-height:86.00000143%;fill:#000000;font-family:NanumMyeongjo;-inkscape-font-specification:NanumMyeongjo"
           d="m 393.33988,603.48582 21.21926,0 c 4.122,5e-5 6.97934,-0.88994 8.57201,-2.66998 1.68624,-1.77992 2.52939,-5.19935 2.52945,-10.25831 l 3.3726,0 0,33.30439 -3.3726,0 c -6e-5,-2.99782 -0.18743,-5.43359 -0.5621,-7.30729 -0.28111,-1.87362 -0.84321,-3.32571 -1.6863,-4.35627 -0.84321,-1.12415 -2.01425,-1.87362 -3.51312,-2.2484 -1.4053,-0.37468 -3.23212,-0.56205 -5.48047,-0.5621 l -21.07873,0 0,33.16386 c -3e-5,2.99788 0.18734,5.43365 0.5621,7.3073 0.46839,1.77999 1.40522,3.13839 2.8105,4.07522 1.31153,1.03052 3.13835,1.73314 5.48047,2.10787 2.43572,0.28105 5.57411,0.42158 9.41516,0.42157 l 9.69622,0 c 3.93463,1e-5 7.21354,-0.28104 9.83674,-0.84315 2.62306,-0.56209 4.82461,-1.54576 6.60467,-2.95102 1.7799,-1.40524 3.27883,-3.2789 4.49679,-5.62099 1.2178,-2.43575 2.43568,-5.48045 3.65365,-9.13412 l 3.65364,0 c -0.65586,1.87369 -1.31165,3.79419 -1.96734,5.76152 -0.56219,1.87368 -1.12429,3.74735 -1.6863,5.621 -0.56218,1.96735 -1.07744,3.9347 -1.54578,5.90204 -0.46849,1.87367 -0.89007,3.74733 -1.26472,5.62099 -12.27257,-0.18736 -24.68559,-0.28104 -37.23908,-0.28105 -12.55359,10e-6 -24.59187,0.0937 -36.11489,0.28105 l 0,-3.51312 c 5.90203,10e-6 9.74304,-0.98367 11.52304,-2.95102 1.77996,-1.96734 2.66995,-5.90203 2.66997,-11.80409 l 0,-69.5598 c -2e-5,-2.90409 -0.23423,-5.24616 -0.70263,-7.02624 -0.37475,-1.77988 -1.12421,-3.13829 -2.24839,-4.07522 -1.03053,-0.84305 -2.48262,-1.40515 -4.35627,-1.6863 -1.78,-0.37463 -4.07523,-0.562 -6.88572,-0.5621 l 0,-3.65364 c 11.24197,0.28115 22.81184,0.42168 34.70964,0.42157 11.89772,1.1e-4 23.13969,-0.14042 33.72596,-0.42157 l 0,22.48397 -2.95102,0 c -0.3748,-3.84092 -0.9369,-6.93247 -1.6863,-9.27464 -0.65585,-2.43567 -1.78005,-4.30933 -3.3726,-5.62099 -1.49899,-1.21778 -3.56002,-2.06093 -6.18309,-2.52945 -2.62319,-0.46831 -6.04262,-0.70252 -10.25831,-0.70262 l -20.37611,0 0,43.14113" />
        <path
           id="path5296"
           style="font-variant:normal;font-stretch:normal;line-height:86.00000143%;fill:#000000;font-family:NanumMyeongjo;-inkscape-font-specification:NanumMyeongjo"
           d="m 481.58949,611.07416 0,31.05599 c -3e-5,3.09156 0.14049,5.62101 0.42157,7.58834 0.3747,1.87368 1.03049,3.37261 1.96735,4.4968 1.03048,1.1242 2.43573,1.92051 4.21574,2.38892 1.77995,0.46842 4.16887,0.70263 7.16677,0.70262 l 0,3.51312 c -1.8737,-0.0937 -4.49683,-0.14052 -7.86939,-0.14052 -3.37263,-0.0937 -6.88575,-0.14052 -10.53936,-0.14053 -3.65367,10e-6 -7.21363,0.0468 -10.67989,0.14053 -3.37261,0 -5.94889,0.0468 -7.72887,0.14052 l 0,-3.37259 c 2.71681,0 4.91836,-0.14052 6.60467,-0.42158 1.77997,-0.37472 3.18521,-1.07735 4.21575,-2.10787 1.03049,-1.12419 1.73312,-2.66996 2.10787,-4.63732 0.46839,-2.06102 0.7026,-4.77783 0.70262,-8.15044 l 0,-68.85718 c -2e-5,-2.90409 -0.23423,-5.24616 -0.70262,-7.02624 -0.37475,-1.77988 -1.07738,-3.18513 -2.10787,-4.21575 -1.03054,-0.93673 -2.43578,-1.54567 -4.21575,-1.82682 -1.77999,-0.37463 -3.98155,-0.60884 -6.60467,-0.70262 l 0,-3.65365 c 2.34207,0.0938 5.29309,0.18747 8.85307,0.28105 3.55994,1.1e-4 7.26043,1.1e-4 11.10146,0 3.84098,1.1e-4 7.58831,1.1e-4 11.24199,0 3.6536,-0.0936 6.74515,-0.18726 9.27464,-0.28105 6.37041,1.1e-4 11.61666,0.93694 15.73878,2.8105 4.21568,1.78008 7.54143,3.98164 9.97727,6.60467 2.342,2.7169 3.98146,5.62108 4.91837,8.71254 1.03043,2.99795 1.54569,5.7616 1.54577,8.29096 -8e-5,3.37268 -0.60902,6.51106 -1.82682,9.41517 -1.12428,2.81056 -2.67005,5.34001 -4.63732,7.58834 -1.96742,2.34214 -4.21582,4.30949 -6.7452,5.90204 -2.52951,1.59267 -5.15264,2.76371 -7.86939,3.51312 1.77992,3.0916 3.84095,6.46419 6.18309,10.11779 2.4357,3.56001 4.91831,7.07312 7.44782,10.53937 2.52938,3.55999 4.96514,6.93258 7.30729,10.11779 2.43569,3.09156 4.54356,5.66785 6.32362,7.72886 2.24831,2.81051 4.73092,5.19943 7.44782,7.16677 2.71672,1.96735 5.8551,2.95103 9.41516,2.95102 l 0,3.51312 c -3.37269,-0.18736 -6.74528,-0.28104 -10.11779,-0.28105 -3.279,10e-6 -6.41738,0.0937 -9.41516,0.28105 -2.71689,-3.46627 -5.57423,-7.35412 -8.57202,-11.66356 -2.99793,-4.30941 -5.99579,-8.66568 -8.99359,-13.06881 -3.0916,-4.49676 -6.08946,-8.89987 -8.99359,-13.20934 -2.81055,-4.30938 -5.38683,-8.24407 -7.72886,-11.80408 l -18.83033,0 m 0,-5.19942 c 1.12417,0.2811 2.8573,0.46847 5.19942,0.5621 2.34204,5e-5 4.2157,5e-5 5.62099,0 5.24622,5e-5 9.64932,-0.65573 13.20934,-1.96735 3.65359,-1.40519 6.6046,-3.23201 8.85306,-5.48047 2.24834,-2.15465 3.84095,-4.59041 4.77785,-7.30729 1.03044,-2.81043 1.5457,-5.62092 1.54577,-8.43149 -7e-5,-3.18515 -0.51533,-6.18301 -1.54577,-8.99359 -0.9369,-2.81041 -2.48267,-5.24617 -4.63732,-7.3073 -2.15478,-2.06093 -4.96527,-3.65354 -8.43149,-4.77784 -3.46633,-1.21778 -7.72892,-1.82672 -12.78777,-1.82682 -2.15475,10e-5 -4.3563,0.0938 -6.60466,0.28105 -2.15475,0.0938 -3.88789,0.23431 -5.19942,0.42157 l 0,44.82743" />
      </g>
    </g>
  </g>
</svg>
