<?xml version="1.0" encoding="UTF-8" standalone="no"?>
<!-- Created with Inkscape (http://www.inkscape.org/) -->
<!-- ClipArt by Arvin61r58 (http://openclipart.org/user-detail/Arvin61r58) -->
<svg
   xmlns:dc="http://purl.org/dc/elements/1.1/"
   xmlns:cc="http://creativecommons.org/ns#"
   xmlns:rdf="http://www.w3.org/1999/02/22-rdf-syntax-ns#"
   xmlns:svg="http://www.w3.org/2000/svg"
   xmlns="http://www.w3.org/2000/svg"
   height="330"
   width="330"
   x="0px"
   y="0px"
   version="1.1"
   viewBox="0 0 330 330"
   xml:space="preserve"
   enable-background="new 0 0 360 360"
   id="Layer_1"><title
   id="title5975">Square Decoration 20</title><defs
   id="defs4302" />
<rect
   style="opacity:1;fill:#000000;fill-opacity:1;fill-rule:nonzero;stroke:none;stroke-width:6;stroke-miterlimit:4;stroke-dasharray:none;stroke-opacity:1"
   id="rect4884"
   width="300"
   height="300"
   x="15"
   y="15" /><rect
   y="44.499992"
   x="44.5"
   height="241.00002"
   width="241"
   id="rect4927"
   style="opacity:1;fill:none;fill-opacity:1;fill-rule:nonzero;stroke:#ffffff;stroke-width:4;stroke-miterlimit:4;stroke-dasharray:none;stroke-opacity:1" />
<metadata
   id="metadata4298"><rdf:RDF><cc:Work><dc:format>image/svg+xml</dc:format><dc:type
         rdf:resource="http://purl.org/dc/dcmitype/StillImage" /><cc:license
         rdf:resource="http://creativecommons.org/publicdomain/zero/1.0/" /><dc:publisher><cc:Agent
           rdf:about="http://openclipart.org/"><dc:title>Openclipart.org</dc:title></cc:Agent></dc:publisher><dc:title>Square Decoration 20</dc:title><dc:date /><dc:description>decorative square ornament</dc:description><dc:source>https://openclipart.org/user-detail/Arvin61r58</dc:source><dc:creator><cc:Agent><dc:title>Arvin61r58</dc:title></cc:Agent></dc:creator><dc:subject><rdf:Bag><rdf:li>decoration</rdf:li><rdf:li>decorative</rdf:li><rdf:li>design</rdf:li><rdf:li>emblem</rdf:li><rdf:li>ornament</rdf:li><rdf:li>pattern</rdf:li><rdf:li>square</rdf:li><rdf:li>monotone</rdf:li><rdf:li>monochrome</rdf:li><rdf:li>black &amp; white</rdf:li><rdf:li>black and white</rdf:li><rdf:li>grey scale</rdf:li><rdf:li>GreyScale</rdf:li><rdf:li>GrayScale</rdf:li></rdf:Bag></dc:subject><dc:identifier>https://openclipart.org/</dc:identifier><dc:contributor><cc:Agent><dc:title /></cc:Agent></dc:contributor></cc:Work><cc:License
       rdf:about="http://creativecommons.org/publicdomain/zero/1.0/"><cc:permits
         rdf:resource="http://creativecommons.org/ns#Reproduction" /><cc:permits
         rdf:resource="http://creativecommons.org/ns#Distribution" /><cc:permits
         rdf:resource="http://creativecommons.org/ns#DerivativeWorks" /></cc:License></rdf:RDF></metadata><path
   style="color:#000000;font-style:normal;font-variant:normal;font-weight:normal;font-stretch:normal;font-size:medium;line-height:normal;font-family:sans-serif;text-indent:0;text-align:start;text-decoration:none;text-decoration-line:none;text-decoration-style:solid;text-decoration-color:#000000;letter-spacing:normal;word-spacing:normal;text-transform:none;direction:ltr;block-progression:tb;writing-mode:lr-tb;baseline-shift:baseline;text-anchor:start;white-space:normal;clip-rule:nonzero;display:inline;overflow:visible;visibility:visible;opacity:1;isolation:auto;mix-blend-mode:normal;color-interpolation:sRGB;color-interpolation-filters:linearRGB;solid-color:#000000;solid-opacity:1;fill:#ffffff;fill-opacity:1;fill-rule:nonzero;stroke:none;stroke-width:8;stroke-linecap:butt;stroke-linejoin:miter;stroke-miterlimit:4;stroke-dasharray:none;stroke-dashoffset:0;stroke-opacity:1;color-rendering:auto;image-rendering:auto;shape-rendering:auto;text-rendering:auto;enable-background:accumulate"
   d="m 27.5,27.5 0,4 0,271 275,0 0,-275 -275,0 z m 8,8 259,0 0,259 -259,0 0,-259 z"
   id="path5828" /><path
   id="path4158"
   d="m 206.60849,60.552887 c -9.99455,-0.957077 -18.94332,0.706966 -26.84639,4.993271 -7.74662,4.157208 -14.02527,9.536229 -18.83582,16.135926 -3.34918,-5.652005 -7.80717,-10.257469 -13.37399,-13.816426 -5.55317,-3.701716 -11.54229,-5.86021 -17.96737,-6.475475 -11.99348,-1.148492 -22.91897,2.343504 -32.775435,10.477242 -9.842815,7.990966 -15.39258,18.554347 -16.650453,31.690065 -1.230529,12.85015 2.036651,24.61866 9.802796,35.30447 -8.37086,1.64791 -15.617179,5.85302 -21.740102,12.61521 -6.109247,6.61944 -9.608172,14.5689 -10.496886,23.84957 -1.189511,12.42181 2.34032,23.71058 10.589494,33.86628 8.249166,10.15571 19.08434,15.87674 32.505606,17.16196 6.85341,0.65628 14.06405,-0.16673 21.63292,-2.46779 l -0.0616,0.64307 c -1.05279,10.99401 2.10094,20.94997 9.46004,29.86774 7.35909,8.91776 16.96405,13.94348 28.81474,15.07829 12.85016,1.23053 24.43815,-2.41474 34.76398,-10.9358 10.46862,-8.50738 16.36541,-19.68536 17.69165,-33.53496 0.0684,-0.71391 0.0933,-1.72014 0.0736,-3.01883 l 0.26668,-2.78477 c 3.86108,1.81062 8.00414,2.92781 12.43032,3.35166 11.27956,1.08012 21.52786,-2.11707 30.74485,-9.59161 9.23068,-7.6173 14.43444,-17.56486 15.61028,-29.84389 1.17583,-12.27904 -1.75307,-23.07799 -8.78559,-32.39674 -6.87607,-9.44788 -15.69432,-15.91177 -26.45591,-19.3918 6.09557,-6.47663 9.56726,-14.14171 10.41496,-22.99404 1.10747,-11.565129 -2.27712,-22.119545 -10.15265,-31.663116 -7.73274,-9.529899 -17.95229,-14.902651 -30.65966,-16.119507 z m -1.50673,13.471526 c 8.85233,0.847698 16.06169,4.563932 21.62697,11.148584 5.57894,6.441885 7.97818,13.731984 7.19884,21.870413 -0.66995,6.99621 -3.5927,12.69658 -8.7693,17.09989 -5.02013,4.27419 -10.60048,6.11671 -16.74001,5.52879 -5.4256,-0.51955 -9.76541,-2.59157 -13.02043,-6.21732 -3.09856,-3.75485 -4.44276,-7.77397 -4.03259,-12.05735 0.32815,-3.42672 1.60105,-6.18659 3.81872,-8.27964 2.36046,-2.07939 4.96791,-2.98242 7.8235,-2.70896 1.99891,0.19141 3.44397,0.90614 4.33405,2.14409 1.04653,1.10885 1.51515,2.23379 1.40578,3.37604 -0.17774,1.85613 -1.05254,2.70951 -2.62311,2.55912 -1.71335,-0.16407 -2.66573,0.75335 -2.85715,2.75227 -0.10938,1.14223 0.35236,2.33916 1.38522,3.59076 1.04653,1.10884 2.5693,1.7584 4.5682,1.94983 2.71282,0.25976 5.17863,-0.65682 7.39631,-2.74987 2.36045,-2.07938 3.70418,-4.83249 4.03232,-8.2592 0.42386,-4.42617 -0.99117,-8.452059 -4.24618,-12.077805 -3.24135,-3.768512 -7.50345,-5.905717 -12.78629,-6.4116 -5.99673,-0.574247 -11.58398,1.340232 -16.76056,5.743535 -5.17659,4.403301 -8.09934,10.10368 -8.7693,17.09988 -0.77933,8.13843 1.5423,15.49257 6.96479,22.06354 5.57895,6.44189 12.86593,10.0941 21.86102,10.95546 2.57004,0.24612 5.45986,0.16204 8.66937,-0.25106 3.20952,-0.41311 6.38479,-0.46868 9.52594,-0.16788 10.13733,0.97074 18.51198,5.3023 25.12377,12.99579 6.62547,7.55072 9.47277,16.18052 8.54304,25.88953 -0.82036,8.56677 -4.36646,15.50425 -10.63822,20.8113 -6.27174,5.30705 -13.26261,7.59085 -20.97272,6.85254 -6.56786,-0.62892 -11.93116,-3.30386 -16.08992,-8.02476 -4.1451,-4.86369 -5.93736,-10.22251 -5.37679,-16.07646 0.46488,-4.85451 2.35424,-8.77954 5.66707,-11.77634 3.4693,-3.12592 7.20284,-4.49746 11.20068,-4.11462 2.99837,0.28711 5.40762,1.45383 7.22879,3.50137 1.96395,2.06122 2.83028,4.30553 2.59785,6.73277 -0.13672,1.42779 -0.68812,2.67179 -1.65418,3.73199 -0.80961,0.93109 -1.85697,1.3357 -3.14199,1.21264 -0.85667,-0.0821 -1.59463,-0.65758 -2.21281,-1.72541 -0.46174,-1.19693 -1.19176,-1.84319 -2.19123,-1.9389 -1.28501,-0.12304 -2.4111,0.34547 -3.37718,1.40566 -0.80959,0.93111 -1.28224,2.11118 -1.41896,3.53898 -0.23243,2.42725 0.63275,4.67143 2.59668,6.73265 1.96397,2.06122 4.44518,3.23482 7.44355,3.52194 3.99782,0.38283 7.65368,-0.92353 10.96651,-3.92033 3.46928,-3.12592 5.43636,-7.11612 5.90123,-11.97062 0.5469,-5.71118 -1.25903,-10.92723 -5.41781,-15.64813 -4.14509,-4.86369 -9.57346,-7.61746 -16.2841,-8.26007 -7.71009,-0.73831 -14.70107,1.54662 -20.97283,6.85367 -6.1153,5.17795 -9.58255,12.05038 -10.4029,20.61715 -0.54691,5.71117 0.70763,12.17121 3.76362,19.38012 3.06967,7.06612 4.29008,13.88254 3.66114,20.45039 -0.9434,9.85177 -5.10597,17.95442 -12.48656,24.30799 -7.23781,6.36727 -15.5685,9.10026 -24.99194,8.19787 -8.13843,-0.77932 -14.73208,-4.14841 -19.78091,-10.10726 -5.04885,-5.95885 -7.22398,-12.57966 -6.52668,-19.86142 0.61526,-6.42507 3.12683,-11.58732 7.53483,-15.48787 4.55077,-3.88688 9.53841,-5.5706 14.96403,-5.05104 4.56895,0.43752 8.21645,2.22768 10.94137,5.3704 2.88136,3.0136 4.13747,6.44794 3.7683,10.30299 -0.24611,2.57001 -1.31465,4.70049 -3.20574,6.39255 -1.74832,1.70574 -3.69337,2.45663 -5.83507,2.25155 -2.99835,-0.28713 -4.38874,-1.57297 -4.16999,-3.85745 0.0821,-0.85667 0.42918,-1.4724 1.04133,-1.84606 0.76858,-0.50275 1.18758,-1.11045 1.25593,-1.82434 0.0957,-0.99947 -0.32256,-1.90404 -1.25365,-2.71366 -0.78831,-0.79592 -1.82435,-1.25592 -3.10937,-1.37898 -2.14169,-0.20509 -4.09352,0.61661 -5.85552,2.46513 -1.74832,1.70574 -2.74614,3.84414 -2.99226,6.41417 -0.35548,3.71226 0.8298,7.1398 3.55472,10.28253 2.88137,3.01359 6.60658,4.73859 11.17552,5.17612 5.28285,0.50588 10.19966,-1.18463 14.75044,-5.07151 4.55078,-3.88689 7.12639,-8.97152 7.72798,-15.25382 0.69731,-7.28176 -1.47795,-13.90143 -6.52679,-19.86028 -5.04885,-5.95885 -11.64248,-9.32795 -19.78091,-10.10728 -9.42346,-0.90238 -17.9037,1.88778 -25.44073,8.37048 -0.19748,0.55743 -1.30631,1.60396 -3.32652,3.13957 -2.00652,1.39283 -4.16952,2.91476 -6.48894,4.56581 -2.30577,1.50827 -5.5265,2.78482 -9.66104,3.8298 -3.9781,0.91584 -8.18018,1.1613 -12.60635,0.73744 -9.566218,-0.91605 -17.39707,-4.90736 -23.492442,-11.97504 -5.952593,-7.05402 -8.498202,-15.07859 -7.636833,-24.07369 0.75199,-7.85286 3.950957,-14.17462 9.596901,-18.96525 5.645943,-4.79064 11.967638,-6.85149 18.963841,-6.18154 5.996733,0.57425 10.809363,2.98088 14.438043,7.21876 3.62867,4.23789 5.20373,8.85546 4.72519,13.85275 -0.3965,4.14059 -2.01644,7.51507 -4.85991,10.12455 -2.84348,2.6095 -5.97858,3.75016 -9.40528,3.42203 -2.28447,-0.21877 -4.21503,-1.12409 -5.79165,-2.71595 -1.43386,-1.5782 -2.062539,-3.29484 -1.884796,-5.15097 0.246113,-2.57003 1.440577,-3.75244 3.582266,-3.54736 0.28556,0.0274 0.70023,0.21113 1.244,0.55138 0.11543,0.29924 0.5301,0.48304 1.244,0.5514 1.99891,0.1914 3.11464,-0.92706 3.34707,-3.35433 0.1914,-1.99891 -0.50808,-3.72234 -2.09837,-5.17143 -1.43385,-1.57819 -3.29358,-2.4767 -5.578058,-2.69547 -3.426709,-0.32814 -6.561802,0.81252 -9.405288,3.42201 -2.829808,2.4667 -4.442961,5.77035 -4.839465,9.91097 -0.492211,5.14005 1.076067,9.82845 4.704735,14.06632 3.771448,4.25157 8.656062,6.66508 14.652786,7.23933 6.85341,0.65629 13.10315,-1.41146 18.7491,-6.20209 5.65961,-4.93341 8.85858,-11.25516 9.59689,-18.96525 0.69731,-7.28176 -0.83601,-13.83996 -4.59983,-19.67575 -3.76384,-5.83581 -8.54151,-10.11224 -14.33317,-12.82819 -5.59418,-3.27338 -10.46683,-8.06265 -14.617988,-14.3678 -4.13748,-6.44793 -5.796608,-13.95533 -4.976258,-22.52211 0.875041,-9.137889 4.69048,-16.624788 11.445256,-22.461943 6.89757,-5.82349 14.55781,-8.332517 22.9818,-7.525838 7.42454,0.710971 13.39668,3.80499 17.91544,9.280817 4.67518,5.346719 6.69832,11.303995 6.06938,17.871844 -0.53323,5.56841 -2.76974,10.10918 -6.70838,13.6224 -3.92497,3.37047 -8.24332,4.8301 -12.95504,4.3789 -3.85506,-0.36916 -6.95764,-1.81896 -9.30891,-4.34955 -2.35127,-2.53057 -3.37651,-5.36644 -3.07571,-8.50758 0.19141,-1.99892 0.9266,-3.65759 2.20556,-4.976 1.42175,-1.30475 2.9179,-1.88192 4.48846,-1.73153 2.14171,0.20509 3.12316,1.23509 2.94542,3.09122 -0.0137,0.14276 -0.10501,0.35073 -0.27517,0.62262 l -0.0614,0.64195 c -0.0684,0.71387 0.22643,1.39109 0.88565,2.03057 0.6592,0.63948 1.34576,0.9934 2.05965,1.06176 1.57059,0.1504 2.99592,-0.43355 4.27487,-1.75196 1.42176,-1.30475 2.22777,-2.95663 2.41918,-4.95554 0.3008,-3.141149 -0.72444,-5.977019 -3.07571,-8.507593 -2.33759,-2.673358 -5.36248,-4.188347 -9.07474,-4.543833 -4.71173,-0.451195 -9.03697,1.080394 -12.97561,4.59363 -3.92498,3.370447 -6.16035,7.911316 -6.70725,13.622516 -0.61527,6.42506 1.3359,12.37547 5.85466,17.85128 4.67519,5.34671 10.72505,8.37555 18.14959,9.08652 8.85233,0.8477 16.51372,-1.66121 22.98295,-7.52572 6.46922,-5.86449 10.24249,-12.92316 11.32106,-21.17703 1.90182,-9.327739 6.52254,-16.954235 13.86211,-22.879478 7.49602,-6.054363 16.09861,-8.617242 25.80761,-7.687509 z"
   style="font-style:normal;font-variant:normal;font-weight:normal;font-stretch:normal;font-size:medium;line-height:125%;font-family:FivefoldOrnamentsEtc;-inkscape-font-specification:FivefoldOrnamentsEtc;text-align:center;writing-mode:lr-tb;text-anchor:middle;fill:#ffffff;fill-opacity:1;fill-rule:nonzero;stroke:none;stroke-width:1;stroke-miterlimit:4;stroke-dasharray:none;stroke-opacity:1" /><path
   id="path5370"
   d="m 181.64998,166.26113 c -3.24907,9.82711 0.65606,10.76648 -3.07895,13.45084 -3.735,2.68442 -3.38045,-1.31646 -13.73062,-1.36975 -10.35017,-0.0534 -10.03682,3.95095 -13.74398,1.22825 -3.70716,-2.7227 -1.54146,-9.10012 -2.94026,-13.48186 -1.3988,-4.38173 -6.85915,-8.32466 -5.41528,-12.69176 1.44387,-4.36706 3.50863,-0.9219 11.91343,-6.96246 8.40505,-6.04018 5.79763,-9.09589 10.39715,-9.0722 4.59952,0.0238 1.96106,3.05202 10.30316,9.17882 8.34213,6.12679 10.44228,2.70308 11.84107,7.08482 1.3988,4.38172 -2.29664,2.80817 -5.54572,12.6353 z"
   style="fill:#ffffff;fill-rule:evenodd;stroke:none;stroke-width:1px;stroke-linecap:butt;stroke-linejoin:miter;stroke-opacity:1" /></svg>