<?xml version="1.0" encoding="UTF-8" standalone="no"?>
<!-- Created with Inkscape (http://www.inkscape.org/) -->

<svg
   xmlns:dc="http://purl.org/dc/elements/1.1/"
   xmlns:cc="http://creativecommons.org/ns#"
   xmlns:rdf="http://www.w3.org/1999/02/22-rdf-syntax-ns#"
   xmlns:svg="http://www.w3.org/2000/svg"
   xmlns="http://www.w3.org/2000/svg"
   xmlns:xlink="http://www.w3.org/1999/xlink"
   xmlns:sodipodi="http://sodipodi.sourceforge.net/DTD/sodipodi-0.dtd"
   xmlns:inkscape="http://www.inkscape.org/namespaces/inkscape"
   width="574.98138"
   height="125.81798"
   id="svg56206"
   version="1.1"
   inkscape:version="0.48.3.1 r9886"
   sodipodi:docname="timeline.svg">
  <defs
     id="defs56208">
    <linearGradient
       id="linearGradient8448">
      <stop
         style="stop-color:#aa6835;stop-opacity:1;"
         offset="0"
         id="stop8450" />
      <stop
         style="stop-color:#5d391d;stop-opacity:1;"
         offset="1"
         id="stop8452" />
    </linearGradient>
    <linearGradient
       id="linearGradient8456">
      <stop
         style="stop-color:#7b6351;stop-opacity:1;"
         offset="0"
         id="stop8458" />
      <stop
         style="stop-color:#29211b;stop-opacity:1;"
         offset="1"
         id="stop8460" />
    </linearGradient>
    <radialGradient
       inkscape:collect="always"
       xlink:href="#linearGradient8448"
       id="radialGradient56590"
       gradientUnits="userSpaceOnUse"
       gradientTransform="matrix(1,0,0,0.57058345,-2604.9592,1996.1266)"
       cx="710.70398"
       cy="471.30603"
       fx="710.70398"
       fy="471.30603"
       r="141.84784" />
    <radialGradient
       inkscape:collect="always"
       xlink:href="#linearGradient8456"
       id="radialGradient56592"
       gradientUnits="userSpaceOnUse"
       gradientTransform="matrix(-0.62250557,0.62250535,-0.64480819,-0.64480847,-1352.9838,1918.4901)"
       cx="712.25629"
       cy="149.40196"
       fx="712.25629"
       fy="149.40196"
       r="141.84528" />
  </defs>
  <sodipodi:namedview
     id="base"
     pagecolor="#ffffff"
     bordercolor="#666666"
     borderopacity="1.0"
     inkscape:pageopacity="0.0"
     inkscape:pageshadow="2"
     inkscape:zoom="0.49497475"
     inkscape:cx="282.66644"
     inkscape:cy="10.867078"
     inkscape:document-units="px"
     inkscape:current-layer="layer1"
     showgrid="false"
     fit-margin-top="0"
     fit-margin-left="0"
     fit-margin-right="0"
     fit-margin-bottom="0"
     inkscape:window-width="782"
     inkscape:window-height="415"
     inkscape:window-x="582"
     inkscape:window-y="24"
     inkscape:window-maximized="0" />
  <metadata
     id="metadata56211">
    <rdf:RDF>
      <cc:Work
         rdf:about="">
        <dc:format>image/svg+xml</dc:format>
        <dc:type
           rdf:resource="http://purl.org/dc/dcmitype/StillImage" />
        <dc:title></dc:title>
      </cc:Work>
    </rdf:RDF>
  </metadata>
  <g
     inkscape:label="Layer 1"
     inkscape:groupmode="layer"
     id="layer1"
     transform="translate(-106.69533,-417.41128)">
    <path
       style="fill:#e9c6af;fill-opacity:1;stroke:#000000;stroke-width:3.32025337;stroke-miterlimit:4;stroke-dasharray:none"
       inkscape:connector-curvature="0"
       id="path3151"
       d="m 649.27395,437.09867 c 5.8219,-7.14877 24.82255,-9.93475 30.39742,0 0,36.75952 0.75868,66.37996 0,98.27367 -8.86516,8.53208 -20.77358,7.83558 -29.383,0 -1.52607,-31.89371 -1.27025,-61.51415 -1.01442,-98.27367 z" />
    <path
       style="fill:none;stroke:#000000;stroke-width:3.32025337;stroke-linecap:round;stroke-linejoin:round;stroke-miterlimit:4;stroke-dasharray:none"
       inkscape:connector-curvature="0"
       id="path3153"
       d="m 678.76286,536.12689 c 1.95829,-1.2479 -8.4947,-7.98069 -20.74718,-4.66266 -6.5541,1.77026 -6.43947,5.8525 6.7128,5.59131 8.6447,-0.17412 3.65195,-3.72432 0.29991,-5.58164" />
    <path
       style="fill-rule:evenodd;stroke-width:4;stroke-miterlimit:4;stroke-dasharray:none"
       inkscape:connector-curvature="0"
       id="path3161-3"
       d="m 649.37978,461.78559 c 0,0 -2.46105,9.84768 0.52045,4.8658 3.00798,-5.02058 7.51556,-6.2975 15.95739,-9.24793 -6.263,0.21282 -9.6768,0.26119 -16.47784,4.38213 z" />
    <path
       style="fill-rule:evenodd;stroke-width:4;stroke-miterlimit:4;stroke-dasharray:none"
       inkscape:connector-curvature="0"
       id="path3167"
       d="m 648.13601,465.67435 c 0,0 -2.45225,9.84769 0.52045,4.86581 3.00799,-5.03025 7.52436,-6.29749 15.96619,-9.24793 -6.27179,0.21282 -9.68559,0.25152 -16.48664,4.38212 z" />
    <path
       style="fill-rule:evenodd;stroke-width:4;stroke-miterlimit:4;stroke-dasharray:none"
       inkscape:connector-curvature="0"
       id="path3169"
       d="m 649.07108,485.16657 c 0,0 -2.45226,9.84769 0.52045,4.86581 3.00798,-5.03025 7.52436,-6.29749 15.9661,-9.24793 -6.27179,0.21282 -9.68551,0.26119 -16.48655,4.38212 z" />
    <path
       d="m 671.60365,435.98901 -4.80748,88.37763 c 0.77619,-0.1451 1.51719,-0.12576 2.76096,-0.01 1.43783,-33.44149 2.69928,-84.692 3.50195,-84.74037 0.37934,-0.0193 0.60869,21.68812 -0.82915,85.2047 1.56135,0.35792 2.11708,0.73519 3.40492,1.28658 l -0.97026,-88.03905 c -0.37934,-1.14148 -2.14355,-2.07015 -3.06094,-2.07982 z"
       id="path3214"
       inkscape:connector-curvature="0"
       style="fill-rule:evenodd;stroke-width:4;stroke-miterlimit:4;stroke-dasharray:none" />
    <path
       style="fill:#e9c6af;fill-opacity:1;stroke:#000000;stroke-width:3.32025337;stroke-miterlimit:4;stroke-dasharray:none"
       inkscape:connector-curvature="0"
       id="path3196"
       d="m 141.97308,437.18147 c -6.36916,-7.14876 -27.15585,-9.93474 -33.25483,0 0,36.75952 -0.82989,66.37996 0,98.27368 9.69855,8.53208 22.72639,7.83558 32.14504,0 1.66951,-31.89372 1.38969,-61.51416 1.10979,-98.27368 z" />
    <path
       style="fill:none;stroke:#000000;stroke-width:3.32025337;stroke-linecap:round;stroke-linejoin:round;stroke-miterlimit:4;stroke-dasharray:none"
       inkscape:connector-curvature="0"
       id="path3198"
       d="m 109.71226,536.20968 c -2.1424,-1.24788 9.29322,-7.98068 22.69741,-4.66264 7.17017,1.77026 7.04467,5.8525 -7.34382,5.59131 -9.45732,-0.17412 -3.99526,-3.72432 -0.32812,-5.58164" />
    <path
       style="fill-rule:evenodd;stroke-width:4;stroke-miterlimit:4;stroke-dasharray:none"
       inkscape:connector-curvature="0"
       id="path3200"
       d="m 141.85729,461.86839 c 0,0 2.69239,9.84769 -0.56934,4.8658 -3.29079,-5.02058 -8.22203,-6.29749 -17.4574,-9.24792 6.85176,0.21282 10.58638,0.26118 18.02674,4.38212 z" />
    <path
       d="m 114.49583,438.8814 -1.37608,88.55176 c 0.74979,-0.19347 1.98468,-0.67715 3.21085,-1.11246 0.63508,-33.43182 -0.72332,-85.55296 0.71452,-85.94957 0.0531,-0.01 1.31432,22.28788 1.42904,85.80447 1.41135,-0.39662 2.12587,-0.44498 3.56371,-0.67715 l -2.60225,-88.55176 c -2.25819,-0.55139 -3.94305,1.00605 -4.93979,1.93471 z"
       id="path3220"
       inkscape:connector-curvature="0"
       style="fill-rule:evenodd;stroke-width:4;stroke-miterlimit:4;stroke-dasharray:none" />
    <path
       d="m 142.87005,439.65479 c 242.3375,-55.62296 239.33823,21.28183 505.06974,0.96735 -0.59981,11.60827 0,80.77422 1.19969,93.83352 -269.93038,21.76551 -266.9312,-67.71491 -505.06974,-1.93471 0.59989,-12.57563 0,-77.87215 -1.19969,-92.86616 z"
       id="path2160-02"
       inkscape:connector-curvature="0"
       style="fill:#e9c6af;fill-opacity:1;stroke:#000000;stroke-width:3.32025337;stroke-miterlimit:4;stroke-dasharray:none" />
    <path
       style="font-size:medium;font-style:normal;font-variant:normal;font-weight:normal;font-stretch:normal;text-indent:0;text-align:start;text-decoration:none;line-height:normal;letter-spacing:normal;word-spacing:normal;text-transform:none;direction:ltr;block-progression:tb;writing-mode:lr-tb;text-anchor:start;baseline-shift:baseline;color:#000000;fill:#000000;fill-opacity:1;stroke:none;stroke-width:6;marker:none;visibility:visible;display:inline;overflow:visible;enable-background:accumulate;font-family:Sans;-inkscape-font-specification:Sans"
       d="m 296.26734,471.94447 c -22.12891,-0.1142 -46.64151,0.8318 -75.25039,3.34619 -1.37625,0 -2.74029,0.0339 -2.74029,2.30178 0,1.57901 0.72689,2.81784 3.18122,2.65266 75.92498,-6.67294 122.47385,-2.33882 172.91266,3.86498 50.43871,6.20381 104.74104,14.30798 195.47992,15.0449 1.28668,-0.24336 3.30722,-0.22323 3.30722,-2.56019 0,-2.33695 -2.10803,-2.28602 -3.25576,-2.42019 -90.45931,-0.73465 -144.37973,-8.77806 -194.90917,-14.99302 -31.58092,-3.88434 -61.84404,-7.04678 -98.72574,-7.23711 z"
       id="path222724"
       inkscape:connector-curvature="0"
       sodipodi:nodetypes="ccscsczcscc" />
    <path
       style="font-size:medium;font-style:normal;font-variant:normal;font-weight:normal;font-stretch:normal;text-indent:0;text-align:start;text-decoration:none;line-height:normal;letter-spacing:normal;word-spacing:normal;text-transform:none;direction:ltr;block-progression:tb;writing-mode:lr-tb;text-anchor:start;baseline-shift:baseline;color:#000000;fill:#000000;fill-opacity:1;stroke:none;stroke-width:6;marker:none;visibility:visible;display:inline;overflow:visible;enable-background:accumulate;font-family:Sans;-inkscape-font-specification:Sans"
       d="m 223.27372,460.73861 -17.22381,15.79715 c -1.60061,1.71947 -1.50623,3.14625 0.25931,3.89092 l 18.72839,12.84004 c 0.82317,0.47528 2.12529,1.64178 3.41712,-0.59574 1.12822,-1.95424 -0.11513,-3.02811 -0.61566,-3.52864 l -16.13444,-11.07615 14.94114,-13.64417 c 2.28733,-2.7104 -0.81221,-5.7457 -3.37205,-3.68341 z"
       id="path222726"
       inkscape:connector-curvature="0"
       sodipodi:nodetypes="ccccscccc" />
    <path
       sodipodi:nodetypes="ccccsccczc"
       inkscape:connector-curvature="0"
       id="path222736"
       d="m 586.70967,479.86253 17.22381,15.79714 c 1.60061,1.71948 1.50623,3.14625 -0.25931,3.89092 l -18.72839,12.84004 c -1.5391,0.88859 -2.16896,0.65241 -3.41712,-0.59574 -1.20683,-1.2068 -1.12225,-2.52525 0.61566,-3.52863 l 16.13444,-11.07616 -14.94114,-13.64417 c -1.06605,-1.06606 -1.88607,-2.10065 -0.32082,-3.66586 1.56516,-1.56521 3.69287,-0.0175 3.69287,-0.0175 z"
       style="font-size:medium;font-style:normal;font-variant:normal;font-weight:normal;font-stretch:normal;text-indent:0;text-align:start;text-decoration:none;line-height:normal;letter-spacing:normal;word-spacing:normal;text-transform:none;direction:ltr;block-progression:tb;writing-mode:lr-tb;text-anchor:start;baseline-shift:baseline;color:#000000;fill:#000000;fill-opacity:1;stroke:none;stroke-width:6;marker:none;visibility:visible;display:inline;overflow:visible;enable-background:accumulate;font-family:Sans;-inkscape-font-specification:Sans" />
    <g
       id="g222324"
       transform="matrix(0.83006337,0,0,0.83006337,-1425.8479,166.5964)">
      <path
         inkscape:connector-curvature="0"
         id="path222295"
         d="m 2179.8917,363.64881 0,23.87068"
         style="fill:none;stroke:#000000;stroke-width:4;stroke-linecap:butt;stroke-linejoin:miter;stroke-miterlimit:4;stroke-opacity:1;stroke-dasharray:none" />
    </g>
    <g
       transform="matrix(1.2625692,0.00572158,-0.0035892,0.79201954,0,0)"
       style="font-size:41.50316620000000256px;font-style:normal;font-weight:normal;text-align:start;line-height:125%;letter-spacing:0px;word-spacing:0px;text-anchor:start;fill:#000000;fill-opacity:1;stroke:#000000;font-family:'Sue Ellen Francisco ';-inkscape-font-specification:'Sue Ellen Francisco '"
       id="text222291">
      <path
         d="m 275.08911,550.80555 c 0.9457,3e-5 1.41856,1.32402 1.41856,3.97199 l 0.1216,2.75606 -0.89167,19.65727 0,1.45909 0.28371,0.72955 0.12159,0 c -0.29723,1.13485 -0.72955,1.70228 -1.29697,1.70228 -1.02678,0 -1.54016,-0.72955 -1.54016,-2.18865 l 0,-2.14811 0.9322,-19.29249 -0.28371,-5.75532 c 0.32424,-0.59442 0.70252,-0.89164 1.13485,-0.89167"
         style="font-variant:normal;font-weight:bold;font-stretch:normal;font-family:'Sue Ellen Francisco ';-inkscape-font-specification:'Sue Ellen Francisco ';fill:#000000;stroke:#000000"
         id="path57029" />
      <path
         d="m 287.24824,552.50783 c 2.29671,3e-5 3.78283,0.59447 4.45835,1.78334 1.18888,1.75634 1.78332,4.2287 1.78334,7.41707 l 0,0.81061 c -2e-5,6.07958 -1.4456,11.56469 -4.33676,16.45536 -1.324,1.78333 -2.55343,2.675 -3.68827,2.675 l -0.28371,0 c -2.56693,0 -4.21517,-2.12109 -4.94472,-6.36327 l -0.28371,-3.7288 0,-0.89167 c 0,-5.56617 1.14836,-10.59194 3.44509,-15.07733 1.43207,-2.05351 2.71553,-3.08028 3.85039,-3.08031 m -4.82312,18.27923 0,0.89167 c 0.18914,5.02577 0.98623,7.53866 2.39129,7.53866 l 0.5269,0 c 1.70227,0 3.44508,-3.62072 5.22843,-10.86216 0.32423,-1.86439 0.48635,-3.64772 0.48636,-5.35002 l 0,-1.90493 c -0.21617,-3.99898 -0.97274,-5.99848 -2.2697,-5.9985 l -0.81061,0 -0.44584,0.12159 -0.52689,-0.12159 c -0.86466,2e-5 -2.02653,2.16164 -3.48562,6.48487 -0.72955,3.08033 -1.09433,6.14713 -1.09432,9.20041"
         style="font-variant:normal;font-weight:bold;font-stretch:normal;font-family:'Sue Ellen Francisco ';-inkscape-font-specification:'Sue Ellen Francisco ';fill:#000000;stroke:#000000"
         id="path57031" />
      <path
         d="m 303.62254,552.50783 c 2.29671,3e-5 3.78282,0.59447 4.45834,1.78334 1.18888,1.75634 1.78333,4.2287 1.78334,7.41707 l 0,0.81061 c -10e-6,6.07958 -1.4456,11.56469 -4.33675,16.45536 -1.32401,1.78333 -2.55343,2.675 -3.68827,2.675 l -0.28372,0 c -2.56693,0 -4.21516,-2.12109 -4.94471,-6.36327 l -0.28371,-3.7288 0,-0.89167 c 0,-5.56617 1.14836,-10.59194 3.44508,-15.07733 1.43207,-2.05351 2.71554,-3.08028 3.8504,-3.08031 m -4.82313,18.27923 0,0.89167 c 0.18914,5.02577 0.98624,7.53866 2.3913,7.53866 l 0.5269,0 c 1.70226,0 3.44507,-3.62072 5.22842,-10.86216 0.32423,-1.86439 0.48635,-3.64772 0.48637,-5.35002 l 0,-1.90493 c -0.21618,-3.99898 -0.97275,-5.99848 -2.26971,-5.9985 l -0.81061,0 -0.44583,0.12159 -0.5269,-0.12159 c -0.86465,2e-5 -2.02653,2.16164 -3.48561,6.48487 -0.72956,3.08033 -1.09433,6.14713 -1.09433,9.20041"
         style="font-variant:normal;font-weight:bold;font-stretch:normal;font-family:'Sue Ellen Francisco ';-inkscape-font-specification:'Sue Ellen Francisco ';fill:#000000;stroke:#000000"
         id="path57033" />
    </g>
    <g
       transform="matrix(1.2625692,0.00572158,-0.0035892,0.79201954,0,0)"
       style="font-size:28.22215462000000130px;font-style:normal;font-weight:normal;text-align:start;line-height:125%;letter-spacing:0px;word-spacing:0px;text-anchor:start;fill:#000000;fill-opacity:1;stroke:#000000;font-family:'Sue Ellen Francisco ';-inkscape-font-specification:'Sue Ellen Francisco '"
       id="text222759">
      <path
         d="m 320.191,559.72524 c 0.27559,3e-5 0.54201,0.26645 0.79926,0.79926 l -0.0827,0.41341 c 1.59851,10.56495 2.71931,18.61266 3.36241,24.14317 -0.18375,0.51447 -0.46855,0.7717 -0.85438,0.7717 -0.6431,0 -1.02895,-1.37803 -1.15755,-4.1341 l -0.30317,-2.1773 -1.51584,0.0827 c -0.95544,10e-6 -2.39779,-0.11942 -4.32703,-0.35828 -1.35966,4.64857 -2.28754,6.97285 -2.78363,6.97285 l -0.0551,0 c -0.58796,-0.16536 -0.88194,-0.45934 -0.88194,-0.88194 1.48827,-3.63801 3.10517,-9.86672 4.85068,-18.68615 0.75332,-2.7193 1.44234,-4.91497 2.06705,-6.58701 0.25723,-0.23883 0.55121,-0.35826 0.88195,-0.35829 m -3.63802,17.88689 c 1.01056,0.23887 2.07624,0.3583 3.19704,0.35829 l 1.48828,0 c 0.2021,10e-6 0.37665,-0.0827 0.52366,-0.24804 l -2.01194,-13.3945 -0.0551,0 c -0.36748,0.56961 -0.90032,2.57235 -1.59852,6.00823 l -1.5434,7.27602"
         style="font-variant:normal;font-weight:bold;font-stretch:normal;font-family:'Sue Ellen Francisco ';-inkscape-font-specification:'Sue Ellen Francisco ';fill:#000000;stroke:#000000"
         id="path57024" />
      <path
         d="m 326.88824,561.13084 c 0.38585,2e-5 0.73495,0.55123 1.04731,1.65364 l 0.16537,0 c 0.6247,-0.4777 1.49746,-0.76249 2.61826,-0.85438 3.25216,2e-5 5.42945,2.93982 6.53189,8.81942 l 0.41341,4.60264 c -2e-5,5.25491 -1.87414,8.67243 -5.62238,10.25258 l -1.43316,0.16536 -0.0551,0 c -0.40423,0 -1.01057,-0.1378 -1.81901,-0.41341 l 0,0.24805 0.0827,0.52365 c 0,0.25723 -0.25723,0.51446 -0.7717,0.7717 -0.6982,0 -1.0473,-0.75333 -1.0473,-2.25998 -0.47772,-6.44919 -0.71658,-10.40874 -0.71658,-11.87866 l 0.27561,-8.10284 c -1e-5,-0.8268 -0.20212,-1.73631 -0.60634,-2.72851 0,-0.42258 0.31235,-0.689 0.93706,-0.79926 m 1.04731,11.52037 0.41341,9.12259 c 0.45934,1.58015 1.12999,2.37022 2.01193,2.37022 l 0.71658,0 c 0.99218,0 2.08542,-0.75333 3.27972,-2.25998 1.0473,-1.67201 1.57095,-3.64719 1.57096,-5.92555 l 0,-1.46072 c -1e-5,-3.67474 -0.75333,-6.77072 -2.25997,-9.28795 -0.88195,-1.04729 -1.6904,-1.57094 -2.42535,-1.57096 l -1.0473,0 c -1.17593,2e-5 -1.84657,0.72579 -2.01193,2.17729 l -0.24805,6.83506"
         style="font-variant:normal;font-weight:bold;font-stretch:normal;font-family:'Sue Ellen Francisco ';-inkscape-font-specification:'Sue Ellen Francisco ';fill:#000000;stroke:#000000"
         id="path57026" />
    </g>
    <g
       transform="matrix(1.2625692,0.00572158,-0.0035892,0.79201954,0,0)"
       style="font-size:41.50316620000000256px;font-style:normal;font-weight:normal;text-align:start;line-height:125%;letter-spacing:0px;word-spacing:0px;text-anchor:start;fill:#000000;fill-opacity:1;stroke:#000000;font-family:'Sue Ellen Francisco ';-inkscape-font-specification:'Sue Ellen Francisco '"
       id="text222297">
      <path
         d="m 385.75551,564.53577 c 1.18889,2e-5 1.78333,1.51316 1.78334,4.53941 -1e-5,2.59396 -1.87792,8.29524 -5.63373,17.10384 -0.67551,1.70228 -1.01326,2.76958 -1.01326,3.2019 l 0.12159,0 c 3.56667,-0.43232 6.07956,-0.64848 7.53866,-0.64848 l 0.28372,0 c 0.45933,0 0.83761,0.25669 1.13485,0.77008 l 0,0.52689 c -1e-5,0.78359 -0.77009,1.17538 -2.31024,1.17538 -3.26946,0.16213 -5.9985,0.48637 -8.18714,0.97273 -0.83763,-0.2702 -1.25645,-0.64848 -1.25645,-1.13485 0,-1.8644 1.90493,-7.30898 5.71479,-16.33376 0.78359,-2.13459 1.17538,-4.05303 1.17539,-5.75533 l 0,-0.52689 c -1e-5,-0.91867 -0.17564,-1.37801 -0.5269,-1.37804 -1.24294,3e-5 -2.56693,1.26998 -3.97198,3.80987 l -0.72955,0.28371 c -0.45935,2e-5 -0.85114,-0.25667 -1.17538,-0.77008 l 0,-0.16212 c 0,-1.13483 0.94571,-2.58042 2.83713,-4.33676 1.29697,-0.89164 2.70202,-1.33748 4.21516,-1.3375"
         style="font-variant:normal;font-weight:bold;font-stretch:normal;font-family:'Sue Ellen Francisco ';-inkscape-font-specification:'Sue Ellen Francisco ';fill:#000000;stroke:#000000"
         id="path57017" />
      <path
         d="m 400.42753,563.96834 c 2.29672,3e-5 3.78283,0.59447 4.45835,1.78334 1.18888,1.75634 1.78332,4.2287 1.78334,7.41707 l 0,0.81061 c -2e-5,6.07958 -1.4456,11.56469 -4.33676,16.45536 -1.324,1.78333 -2.55342,2.675 -3.68827,2.675 l -0.28371,0 c -2.56693,0 -4.21517,-2.12109 -4.94471,-6.36327 l -0.28372,-3.7288 0,-0.89167 c 0,-5.56617 1.14836,-10.59194 3.44509,-15.07733 1.43207,-2.05351 2.71553,-3.08028 3.85039,-3.08031 m -4.82312,18.27923 0,0.89167 c 0.18914,5.02577 0.98624,7.53866 2.3913,7.53866 l 0.52689,0 c 1.70227,0 3.44508,-3.62072 5.22843,-10.86216 0.32423,-1.86438 0.48635,-3.64772 0.48636,-5.35002 l 0,-1.90493 c -0.21617,-3.99898 -0.97274,-5.99848 -2.2697,-5.9985 l -0.81061,0 -0.44583,0.12159 -0.5269,-0.12159 c -0.86466,2e-5 -2.02653,2.16165 -3.48562,6.48487 -0.72955,3.08033 -1.09432,6.14713 -1.09432,9.20041"
         style="font-variant:normal;font-weight:bold;font-stretch:normal;font-family:'Sue Ellen Francisco ';-inkscape-font-specification:'Sue Ellen Francisco ';fill:#000000;stroke:#000000"
         id="path57019" />
      <path
         d="m 416.80183,563.96834 c 2.29671,3e-5 3.78283,0.59447 4.45835,1.78334 1.18887,1.75634 1.78332,4.2287 1.78334,7.41707 l 0,0.81061 c -2e-5,6.07958 -1.4456,11.56469 -4.33676,16.45536 -1.32401,1.78333 -2.55343,2.675 -3.68827,2.675 l -0.28371,0 c -2.56694,0 -4.21517,-2.12109 -4.94472,-6.36327 l -0.28371,-3.7288 0,-0.89167 c 0,-5.56617 1.14836,-10.59194 3.44509,-15.07733 1.43207,-2.05351 2.71553,-3.08028 3.85039,-3.08031 m -4.82312,18.27923 0,0.89167 c 0.18913,5.02577 0.98623,7.53866 2.39129,7.53866 l 0.5269,0 c 1.70227,0 3.44507,-3.62072 5.22842,-10.86216 0.32423,-1.86438 0.48636,-3.64772 0.48637,-5.35002 l 0,-1.90493 c -0.21618,-3.99898 -0.97274,-5.99848 -2.26971,-5.9985 l -0.8106,0 -0.44584,0.12159 -0.52689,-0.12159 c -0.86466,2e-5 -2.02653,2.16165 -3.48562,6.48487 -0.72955,3.08033 -1.09433,6.14713 -1.09432,9.20041"
         style="font-variant:normal;font-weight:bold;font-stretch:normal;font-family:'Sue Ellen Francisco ';-inkscape-font-specification:'Sue Ellen Francisco ';fill:#000000;stroke:#000000"
         id="path57021" />
    </g>
    <path
       inkscape:connector-curvature="0"
       id="path222301"
       d="m 524.01907,484.6234 0,19.81417"
       style="fill:none;stroke:#000000;stroke-width:3.32025337;stroke-linecap:butt;stroke-linejoin:miter;stroke-miterlimit:4;stroke-opacity:1;stroke-dasharray:none" />
    <g
       transform="matrix(1.2625692,0.00572158,-0.0035892,0.79201954,0,0)"
       style="font-size:28.22215462000000130px;font-style:normal;font-weight:normal;text-align:start;line-height:125%;letter-spacing:0px;word-spacing:0px;text-anchor:start;fill:#000000;fill-opacity:1;stroke:#000000;font-family:'Sue Ellen Francisco ';-inkscape-font-specification:'Sue Ellen Francisco '"
       id="text222759-2">
      <path
         d="m 435.2672,570.00484 c 0.2756,3e-5 0.54202,0.26645 0.79926,0.79926 l -0.0827,0.41341 c 1.59851,10.56495 2.71931,18.61267 3.3624,24.14317 -0.18375,0.51447 -0.46854,0.7717 -0.85438,0.7717 -0.64309,0 -1.02894,-1.37803 -1.15755,-4.1341 l -0.30317,-2.1773 -1.51584,0.0827 c -0.95544,0 -2.39778,-0.11943 -4.32703,-0.35829 -1.35966,4.64857 -2.28754,6.97285 -2.78363,6.97285 l -0.0551,0 c -0.58796,-0.16536 -0.88194,-0.45934 -0.88194,-0.88194 1.48828,-3.63801 3.10517,-9.86672 4.85068,-18.68615 0.75332,-2.7193 1.44234,-4.91497 2.06706,-6.58701 0.25722,-0.23883 0.5512,-0.35826 0.88194,-0.35829 m -3.63801,17.8869 c 1.01055,0.23886 2.07623,0.35829 3.19704,0.35828 l 1.48827,0 c 0.20211,1e-5 0.37666,-0.0827 0.52366,-0.24804 l -2.01193,-13.3945 -0.0551,0 c -0.36749,0.56961 -0.90033,2.57235 -1.59853,6.00823 l -1.54339,7.27603"
         style="font-variant:normal;font-weight:bold;font-stretch:normal;font-family:'Sue Ellen Francisco ';-inkscape-font-specification:'Sue Ellen Francisco ';fill:#000000;stroke:#000000"
         id="path57012" />
      <path
         d="m 441.96445,571.41044 c 0.38584,2e-5 0.73495,0.55124 1.0473,1.65364 l 0.16537,0 c 0.6247,-0.4777 1.49746,-0.76249 2.61826,-0.85438 3.25216,2e-5 5.42945,2.93983 6.53189,8.81942 l 0.41341,4.60264 c -10e-6,5.25491 -1.87414,8.67243 -5.62238,10.25258 l -1.43316,0.16536 -0.0551,0 c -0.40423,0 -1.01056,-0.1378 -1.81901,-0.41341 l 0,0.24805 0.0827,0.52365 c -1e-5,0.25723 -0.25724,0.51447 -0.7717,0.7717 -0.69821,0 -1.04731,-0.75333 -1.04731,-2.25998 -0.47772,-6.44919 -0.71658,-10.40874 -0.71658,-11.87866 l 0.27561,-8.10284 c 0,-0.8268 -0.20211,-1.7363 -0.60634,-2.72851 0,-0.42258 0.31236,-0.689 0.93707,-0.79926 m 1.0473,11.52037 0.41341,9.12259 c 0.45935,1.58015 1.12999,2.37022 2.01194,2.37022 l 0.71657,0 c 0.99218,0 2.08542,-0.75332 3.27973,-2.25998 1.04729,-1.67201 1.57095,-3.64719 1.57096,-5.92555 l 0,-1.46071 c -1e-5,-3.67475 -0.75334,-6.77073 -2.25998,-9.28796 -0.88195,-1.04728 -1.6904,-1.57094 -2.42534,-1.57096 l -1.04731,0 c -1.17593,2e-5 -1.84657,0.72579 -2.01193,2.1773 l -0.24805,6.83505"
         style="font-variant:normal;font-weight:bold;font-stretch:normal;font-family:'Sue Ellen Francisco ';-inkscape-font-specification:'Sue Ellen Francisco ';fill:#000000;stroke:#000000"
         id="path57014" />
    </g>
    <path
       style="fill:none;stroke:#000000;stroke-width:3.32025337;stroke-linecap:butt;stroke-linejoin:miter;stroke-miterlimit:4;stroke-opacity:1;stroke-dasharray:none"
       d="m 246.77207,465.76435 0,19.81417"
       id="path222260"
       inkscape:connector-curvature="0" />
    <g
       transform="matrix(1.2625692,0.00572158,-0.0035892,0.79201954,0,0)"
       style="font-size:28.22215462000000130px;font-style:normal;font-weight:normal;text-align:start;line-height:125%;letter-spacing:0px;word-spacing:0px;text-anchor:start;fill:#000000;fill-opacity:1;stroke:#000000;font-family:'Sue Ellen Francisco ';-inkscape-font-specification:'Sue Ellen Francisco '"
       id="text116694-9-70-1-8">
      <path
         d="m 201.93068,555.07848 c 0.23885,0.0368 0.53283,0.27563 0.88194,0.71657 l 0.82682,-0.0827 c 2.22322,2e-5 3.82174,1.28619 4.79556,3.8585 0.23885,0.80847 0.35828,1.54342 0.35829,2.20485 l 0,0.24805 0.0551,0.0827 -0.0551,0.11025 0,0.33072 c -1e-5,1.63529 -0.55122,3.26137 -1.65364,4.87825 1.80062,1.13918 2.70094,2.78364 2.70095,4.93336 l 0,0.60634 c -1e-5,2.29673 -0.81765,4.46483 -2.45291,6.50432 -0.71658,0.69821 -1.46991,1.04731 -2.25997,1.04731 l -1.26779,-0.24805 -0.0827,0 -0.30316,0.16537 -0.33073,0 c -0.4961,0 -0.81764,-0.58796 -0.96463,-1.76389 -0.45934,-2.33347 -0.68902,-4.96092 -0.68901,-7.88236 l 0,-1.57096 -0.41342,-0.96462 0,-0.0551 0.41342,-0.7717 0,-2.37022 c -1e-5,-3.82173 -0.13781,-6.90853 -0.41342,-9.2604 0.12862,-0.47769 0.41341,-0.71655 0.85439,-0.71657 m 0.96462,2.34265 c 0.16536,2.55398 0.24804,5.32842 0.24805,8.32334 l 0,1.84656 0.71658,0 c 1.43315,10e-6 2.49883,-1.30452 3.19704,-3.91362 l 0.0827,-1.0473 0,-0.96463 c -10e-6,-2.07622 -0.81764,-3.46344 -2.4529,-4.16166 l -1.04731,-0.19293 -0.33073,0 -0.41341,0.11024 m 0.49609,11.79598 -0.24804,0 0,1.48828 c -1e-5,5.14467 0.3491,7.717 1.0473,7.717 0.22048,0.29398 0.47772,0.44097 0.7717,0.44097 l 0.35829,0 c 1.10242,0 2.0303,-1.58933 2.78363,-4.768 l 0.0827,-1.57096 c 0,-2.09461 -0.68902,-3.30728 -2.06705,-3.63802 l -0.74414,0 -1.98437,0.33073"
         style="font-variant:normal;font-weight:bold;font-stretch:normal;font-family:'Sue Ellen Francisco ';-inkscape-font-specification:'Sue Ellen Francisco ';fill:#000000;stroke:#000000"
         id="path57007" />
      <path
         d="m 217.75052,555.57457 c 0.36747,2e-5 0.63389,0.31238 0.79926,0.93706 -1e-5,3.25218 -0.26643,4.87826 -0.79926,4.87824 l -0.24805,0.0827 c -0.56959,2e-5 -0.85439,-0.57876 -0.85438,-1.73633 -0.23887,-1.34126 -0.58797,-2.01191 -1.04731,-2.01193 -1.59852,1.30456 -2.39778,3.91364 -2.39778,7.82724 0.38585,6.10011 0.89113,9.71974 1.51584,10.85892 0.75332,1.32291 1.58933,1.98437 2.50802,1.98437 l 0.35829,0 c 1.32291,0 2.39777,-1.30454 3.2246,-3.91362 0.23885,-0.22048 0.45934,-0.33073 0.66146,-0.33073 0.45934,0 0.72575,0.2848 0.79926,0.85438 -0.147,1.24942 -0.86358,2.58152 -2.14973,3.9963 -1.08407,0.69821 -1.99357,1.04731 -2.72851,1.04731 -2.4621,0 -4.07899,-1.91088 -4.85068,-5.73263 -0.62472,-3.76662 -0.93707,-6.62374 -0.93707,-8.57137 l 0,-0.35829 c 0,-3.47263 0.79926,-6.31138 2.39778,-8.51626 0.53284,-0.53282 1.14836,-0.79924 1.84657,-0.79926 l 0.96462,0.24805 c 0,-0.38583 0.31235,-0.63388 0.93707,-0.74414"
         style="font-variant:normal;font-weight:bold;font-stretch:normal;font-family:'Sue Ellen Francisco ';-inkscape-font-specification:'Sue Ellen Francisco ';fill:#000000;stroke:#000000"
         id="path57009" />
    </g>
    <g
       transform="matrix(1.2625692,0.00572158,-0.0035892,0.79201954,0,0)"
       style="font-size:41.50316620000000256px;font-style:normal;font-weight:normal;text-align:start;line-height:125%;letter-spacing:0px;word-spacing:0px;text-anchor:start;fill:#000000;fill-opacity:1;stroke:#000000;font-family:'Sue Ellen Francisco ';-inkscape-font-specification:'Sue Ellen Francisco '"
       id="text222291-3">
      <path
         d="m 190.90315,545.83583 c 2.29672,3e-5 3.78283,0.59448 4.45835,1.78334 1.18888,1.75635 1.78332,4.2287 1.78334,7.41707 l 0,0.81061 c -2e-5,6.07958 -1.4456,11.56469 -4.33676,16.45536 -1.324,1.78334 -2.55342,2.67501 -3.68827,2.67501 l -0.28371,0 c -2.56693,0 -4.21517,-2.1211 -4.94471,-6.36328 l -0.28372,-3.7288 0,-0.89167 c 0,-5.56617 1.14836,-10.59193 3.44509,-15.07732 1.43207,-2.05352 2.71553,-3.08029 3.85039,-3.08032 m -4.82312,18.27923 0,0.89167 c 0.18914,5.02578 0.98624,7.53866 2.3913,7.53866 l 0.52689,0 c 1.70227,0 3.44508,-3.62071 5.22843,-10.86216 0.32423,-1.86438 0.48635,-3.64772 0.48636,-5.35001 l 0,-1.90493 c -0.21617,-3.99898 -0.97274,-5.99848 -2.2697,-5.99851 l -0.81061,0 -0.44583,0.12159 -0.5269,-0.12159 c -0.86466,3e-5 -2.02653,2.16165 -3.48562,6.48487 -0.72955,3.08033 -1.09432,6.14713 -1.09432,9.20041"
         style="font-variant:normal;font-weight:bold;font-stretch:normal;font-family:'Sue Ellen Francisco ';-inkscape-font-specification:'Sue Ellen Francisco ';fill:#000000;stroke:#000000"
         id="path57004" />
    </g>
  </g>
</svg>
