<?xml version="1.0" encoding="UTF-8" standalone="no"?>
<!-- Created with Inkscape (http://www.inkscape.org/) -->

<svg
   xmlns:dc="http://purl.org/dc/elements/1.1/"
   xmlns:cc="http://creativecommons.org/ns#"
   xmlns:rdf="http://www.w3.org/1999/02/22-rdf-syntax-ns#"
   xmlns:svg="http://www.w3.org/2000/svg"
   xmlns="http://www.w3.org/2000/svg"
   xmlns:xlink="http://www.w3.org/1999/xlink"
   xmlns:sodipodi="http://sodipodi.sourceforge.net/DTD/sodipodi-0.dtd"
   xmlns:inkscape="http://www.inkscape.org/namespaces/inkscape"
   width="358.58926"
   height="332.45477"
   id="svg5101"
   version="1.1"
   inkscape:version="0.48.3.1 r9886"
   sodipodi:docname="Ubuntu LCD by Merlin2525.svg">
  <title
     id="title4699">Ubuntu LCD</title>
  <defs
     id="defs5103">
    <linearGradient
       id="linearGradient4511">
      <stop
         offset="0"
         stop-color="#00b5fb"
         id="stop4513"
         style="stop-color:#0197fd;stop-opacity:1" />
      <stop
         style="stop-color:#0169c9;stop-opacity:1"
         id="stop4517"
         stop-color="#00b5fb"
         offset="0.49999863" />
      <stop
         offset="1"
         stop-color="#000075"
         id="stop4515"
         style="stop-color:#003366;stop-opacity:1" />
    </linearGradient>
    <linearGradient
       inkscape:collect="always"
       id="linearGradient4503">
      <stop
         style="stop-color:#ffff00;stop-opacity:1"
         offset="0"
         id="stop4505" />
      <stop
         style="stop-color:#eeeeee;stop-opacity:0;"
         offset="1"
         id="stop4507" />
    </linearGradient>
    <linearGradient
       inkscape:collect="always"
       id="linearGradient4495">
      <stop
         style="stop-color:#eeeeee;stop-opacity:1;"
         offset="0"
         id="stop4497" />
      <stop
         style="stop-color:#eeeeee;stop-opacity:0;"
         offset="1"
         id="stop4499" />
    </linearGradient>
    <linearGradient
       inkscape:collect="always"
       id="linearGradient4487">
      <stop
         style="stop-color:#339900;stop-opacity:1"
         offset="0"
         id="stop4489" />
      <stop
         style="stop-color:#eeeeee;stop-opacity:0;"
         offset="1"
         id="stop4491" />
    </linearGradient>
    <linearGradient
       id="linearGradient4463">
      <stop
         style="stop-color:#ff00ff;stop-opacity:1"
         offset="0"
         id="stop4465" />
      <stop
         id="stop4471"
         offset="0.743779"
         style="stop-color:#6600cc;stop-opacity:1" />
      <stop
         style="stop-color:#000000;stop-opacity:1"
         offset="1"
         id="stop4467" />
    </linearGradient>
    <linearGradient
       inkscape:collect="always"
       id="linearGradient4438">
      <stop
         style="stop-color:#6600cc;stop-opacity:1;"
         offset="0"
         id="stop4440" />
      <stop
         style="stop-color:#6600cc;stop-opacity:0;"
         offset="1"
         id="stop4442" />
    </linearGradient>
    <linearGradient
       inkscape:collect="always"
       id="linearGradient4422">
      <stop
         style="stop-color:#fb8b00;stop-opacity:1;"
         offset="0"
         id="stop4424" />
      <stop
         style="stop-color:#fb8b00;stop-opacity:0;"
         offset="1"
         id="stop4426" />
    </linearGradient>
    <linearGradient
       inkscape:collect="always"
       id="linearGradient4130">
      <stop
         style="stop-color:#ffffff;stop-opacity:1;"
         offset="0"
         id="stop4132" />
      <stop
         style="stop-color:#ffffff;stop-opacity:0;"
         offset="1"
         id="stop4134" />
    </linearGradient>
    <linearGradient
       inkscape:collect="always"
       id="linearGradient4009">
      <stop
         style="stop-color:#800080;stop-opacity:1;"
         offset="0"
         id="stop4011" />
      <stop
         style="stop-color:#000000;stop-opacity:1"
         offset="1"
         id="stop4013" />
    </linearGradient>
    <linearGradient
       id="linearGradient6219-5"
       y2="364.09"
       gradientUnits="userSpaceOnUse"
       x2="1033.3"
       gradientTransform="translate(-362.76,85.405)"
       y1="356.34"
       x1="975.26001">
      <stop
         id="stop6207-6"
         stop-color="#ccc"
         offset="0" />
      <stop
         id="stop6209-3"
         stop-opacity=".20833"
         offset="1" />
    </linearGradient>
    <filter
       id="filter9727-6"
       color-interpolation-filters="sRGB">
      <feGaussianBlur
         id="feGaussianBlur9729-4"
         stdDeviation="2.8209698" />
    </filter>
    <linearGradient
       id="linearGradient5412-2">
      <stop
         id="stop5414-8"
         stop-opacity=".40625"
         offset="0" />
      <stop
         id="stop5422-4"
         stop-color="#808080"
         offset=".51999" />
      <stop
         id="stop5420-8"
         stop-color="#fff"
         offset=".7847" />
      <stop
         id="stop5416-2"
         stop-opacity=".5625"
         offset="1" />
    </linearGradient>
    <linearGradient
       id="linearGradient5811-2"
       y2="769.31"
       gradientUnits="userSpaceOnUse"
       x2="759.88"
       gradientTransform="translate(-362.76,85.405)"
       y1="714.35999"
       x1="770.84003">
      <stop
         id="stop5807-9"
         stop-color="#4d4d4d"
         stop-opacity=".93671"
         offset="0" />
      <stop
         id="stop5809-4"
         stop-color="#4d4d4d"
         stop-opacity="0"
         offset="1" />
    </linearGradient>
    <radialGradient
       inkscape:collect="always"
       xlink:href="#linearGradient4511"
       id="radialGradient4360"
       gradientUnits="userSpaceOnUse"
       gradientTransform="matrix(0.57990385,0.23524252,-0.18723173,0.46155092,576.63532,244.53085)"
       cx="394.82523"
       cy="585.50507"
       r="3.8389001"
       fx="394.82523"
       fy="585.50507" />
    <linearGradient
       inkscape:collect="always"
       xlink:href="#linearGradient5412-2"
       id="linearGradient4363"
       gradientUnits="userSpaceOnUse"
       gradientTransform="matrix(0.49808129,0,0,0.49808129,-38.06173,296.09077)"
       x1="937.64001"
       y1="640.03998"
       x2="937.64001"
       y2="593.96997" />
    <linearGradient
       inkscape:collect="always"
       xlink:href="#linearGradient4130"
       id="linearGradient4370"
       gradientUnits="userSpaceOnUse"
       gradientTransform="translate(-0.73422,-0.7342211)"
       x1="726.07941"
       y1="377.884"
       x2="540.21552"
       y2="547.65356" />
    <linearGradient
       inkscape:collect="always"
       xlink:href="#linearGradient5412-2"
       id="linearGradient4373"
       gradientUnits="userSpaceOnUse"
       gradientTransform="matrix(0.49808129,0,0,0.49808129,219.42727,305.74306)"
       x1="574.02002"
       y1="686.88"
       x2="890.35999"
       y2="686.88" />
    <linearGradient
       inkscape:collect="always"
       xlink:href="#linearGradient5811-2"
       id="linearGradient4376"
       gradientUnits="userSpaceOnUse"
       gradientTransform="matrix(0.49808129,0,0,0.49808129,219.42727,305.74306)"
       x1="770.84003"
       y1="714.35999"
       x2="759.88"
       y2="769.31" />
    <linearGradient
       inkscape:collect="always"
       xlink:href="#linearGradient5412-2"
       id="linearGradient4379"
       gradientUnits="userSpaceOnUse"
       gradientTransform="matrix(0.49808129,0,0,0.49808129,219.42727,305.74306)"
       x1="784.79999"
       y1="629.14001"
       x2="777.88"
       y2="718.22998" />
    <radialGradient
       inkscape:collect="always"
       xlink:href="#linearGradient4009"
       id="radialGradient4391"
       gradientUnits="userSpaceOnUse"
       gradientTransform="matrix(1.684947,-9.0210586,0.60409439,0.11283258,-532.34784,4147.3554)"
       cx="408.91992"
       cy="467.56909"
       fx="408.91992"
       fy="467.56909"
       r="26.938078" />
    <linearGradient
       inkscape:collect="always"
       xlink:href="#linearGradient6219-5"
       id="linearGradient4398"
       gradientUnits="userSpaceOnUse"
       gradientTransform="matrix(0.49808129,0,0,0.49808129,219.42727,305.74306)"
       x1="975.26001"
       y1="356.34"
       x2="1033.3"
       y2="364.09" />
    <linearGradient
       inkscape:collect="always"
       xlink:href="#linearGradient4422"
       id="linearGradient4428"
       x1="564.05182"
       y1="387.92319"
       x2="537.36163"
       y2="424.72311"
       gradientUnits="userSpaceOnUse" />
    <linearGradient
       inkscape:collect="always"
       xlink:href="#linearGradient4422"
       id="linearGradient4432"
       gradientUnits="userSpaceOnUse"
       x1="564.05182"
       y1="387.92319"
       x2="537.36163"
       y2="424.72311"
       gradientTransform="translate(0.23997508,16.180632)" />
    <linearGradient
       inkscape:collect="always"
       xlink:href="#linearGradient4422"
       id="linearGradient4436"
       gradientUnits="userSpaceOnUse"
       gradientTransform="translate(0.74024683,32.846683)"
       x1="564.05182"
       y1="387.92319"
       x2="537.36163"
       y2="424.72311" />
    <linearGradient
       inkscape:collect="always"
       xlink:href="#linearGradient4438"
       id="linearGradient4444"
       x1="476.12622"
       y1="377.88501"
       x2="453.62247"
       y2="400.25238"
       gradientUnits="userSpaceOnUse" />
    <radialGradient
       inkscape:collect="always"
       xlink:href="#linearGradient4463"
       id="radialGradient4469"
       cx="591.22388"
       cy="514.17035"
       fx="591.22388"
       fy="514.17035"
       r="158.95264"
       gradientTransform="matrix(0.98983178,0.11305579,-0.20534709,1.7982742,86.384525,-493.02036)"
       gradientUnits="userSpaceOnUse" />
    <linearGradient
       inkscape:collect="always"
       xlink:href="#linearGradient4487"
       id="linearGradient4493"
       x1="565.27307"
       y1="543.2464"
       x2="503.99164"
       y2="600.56775"
       gradientUnits="userSpaceOnUse"
       gradientTransform="translate(-1.9770626,0)" />
    <linearGradient
       inkscape:collect="always"
       xlink:href="#linearGradient4495"
       id="linearGradient4501"
       x1="566.97253"
       y1="551.32526"
       x2="540.32599"
       y2="585.56415"
       gradientUnits="userSpaceOnUse"
       gradientTransform="translate(-1.482797,0)" />
    <linearGradient
       inkscape:collect="always"
       xlink:href="#linearGradient4503"
       id="linearGradient4509"
       x1="567.04358"
       y1="571.33002"
       x2="535.80756"
       y2="610.57013"
       gradientUnits="userSpaceOnUse"
       gradientTransform="translate(-1.482797,0)" />
    <linearGradient
       inkscape:collect="always"
       xlink:href="#linearGradient4422"
       id="linearGradient4679"
       gradientUnits="userSpaceOnUse"
       gradientTransform="translate(0.84315792,49.783548)"
       x1="564.05182"
       y1="387.92319"
       x2="537.36163"
       y2="424.72311" />
    <linearGradient
       inkscape:collect="always"
       xlink:href="#linearGradient4422"
       id="linearGradient4683"
       gradientUnits="userSpaceOnUse"
       gradientTransform="translate(1.2995532,67.225991)"
       x1="564.05182"
       y1="387.92319"
       x2="537.36163"
       y2="424.72311" />
    <linearGradient
       inkscape:collect="always"
       xlink:href="#linearGradient4422"
       id="linearGradient4687"
       gradientUnits="userSpaceOnUse"
       gradientTransform="translate(1.7746941,85.932379)"
       x1="564.05182"
       y1="387.92319"
       x2="537.36163"
       y2="424.72311" />
    <linearGradient
       inkscape:collect="always"
       xlink:href="#linearGradient4422"
       id="linearGradient4691"
       gradientUnits="userSpaceOnUse"
       gradientTransform="translate(2.0903079,103.8804)"
       x1="564.05182"
       y1="387.92319"
       x2="537.36163"
       y2="424.72311" />
    <linearGradient
       inkscape:collect="always"
       xlink:href="#linearGradient4422"
       id="linearGradient4695"
       gradientUnits="userSpaceOnUse"
       gradientTransform="translate(2.7406603,121.07005)"
       x1="564.05182"
       y1="387.92319"
       x2="537.36163"
       y2="424.72311" />
  </defs>
  <sodipodi:namedview
     id="base"
     pagecolor="#ffffff"
     bordercolor="#666666"
     borderopacity="1.0"
     inkscape:pageopacity="0.0"
     inkscape:pageshadow="2"
     inkscape:zoom="2.0232035"
     inkscape:cx="-0.54392721"
     inkscape:cy="269.92023"
     inkscape:document-units="px"
     inkscape:current-layer="layer1"
     showgrid="false"
     inkscape:window-width="1680"
     inkscape:window-height="1026"
     inkscape:window-x="0"
     inkscape:window-y="654"
     inkscape:window-maximized="1"
     fit-margin-top="0"
     fit-margin-left="0"
     fit-margin-right="0"
     fit-margin-bottom="0"
     showborder="true"
     inkscape:showpageshadow="false" />
  <metadata
     id="metadata5106">
    <rdf:RDF>
      <cc:Work
         rdf:about="">
        <dc:format>image/svg+xml</dc:format>
        <dc:type
           rdf:resource="http://purl.org/dc/dcmitype/StillImage" />
        <dc:title>Ubuntu LCD</dc:title>
        <cc:license
           rdf:resource="http://creativecommons.org/licenses/publicdomain/" />
        <dc:date>2013-18-04</dc:date>
        <dc:creator>
          <cc:Agent>
            <dc:title>https://openclipart.org/user-detail/Merlin2525</dc:title>
          </cc:Agent>
        </dc:creator>
        <dc:rights>
          <cc:Agent>
            <dc:title>Released to the Public Domain</dc:title>
          </cc:Agent>
        </dc:rights>
      </cc:Work>
      <cc:License
         rdf:about="http://creativecommons.org/licenses/publicdomain/">
        <cc:permits
           rdf:resource="http://creativecommons.org/ns#Reproduction" />
        <cc:permits
           rdf:resource="http://creativecommons.org/ns#Distribution" />
        <cc:permits
           rdf:resource="http://creativecommons.org/ns#DerivativeWorks" />
      </cc:License>
    </rdf:RDF>
  </metadata>
  <g
     inkscape:label="Layer 1"
     inkscape:groupmode="layer"
     id="layer1"
     transform="translate(-404.39416,-342.21322)">
    <path
       style="opacity:0.75154999;fill:#cccccc"
       inkscape:connector-curvature="0"
       d="m 451.67263,368.72793 294.9588,-26.19908 -41.4254,272.66464 -300.1289,-10.84821 c -0.6258,-0.69731 -1.0171,-1.67355 -0.2902,-3.94978 l 42.7518,-227.01549 c 0.4159,-3.33715 2.1363,-4.25362 4.1341,-4.65208 z"
       id="path4178" />
    <path
       style="opacity:0.37267001;fill:#4d4d4d"
       inkscape:connector-curvature="0"
       d="m 405.06573,604.3403 299.9994,10.87311 c 0.09,5.87238 7.9992,7.33674 15.4754,9.04018 l -298.1117,-13.49302 c -8.3204,-0.66743 -16.609,-3.37201 -17.3646,-6.42027 z"
       id="path4180" />
    <path
       inkscape:connector-curvature="0"
       style="fill:url(#linearGradient4398)"
       d="m 746.69613,342.48402 c 1.5839,-0.35862 3.1429,-0.43831 4.6123,0.24406 l 9.4535,5.54863 c 1.564,1.38466 2.1617,2.99347 2.2215,4.72181 l -40.6783,268.30145 c -0.3337,1.50918 -0.8966,2.57508 -2.0322,2.94366 -4.6371,-1.42451 -15.2712,-2.17164 -15.0869,-9.03022 l 41.5101,-272.72939 z"
       id="path4182" />
    <path
       style="opacity:0.44099001;filter:url(#filter9727-6)"
       inkscape:connector-curvature="0"
       d="m 1142.611,-36.39538 c -0.05,-4.2 2.42,-5.87 6.93,-5.52 l 549.24,-45.87 c 4.01,-0.13 4.72,2 4.2,4.96 l -73.32,479.58 c 0.3,3.62 -0.97,5.68 -4.39,5.58 l -555.06,-18.59 c -5.213,-0.29 -5.626,-1.18 -5.227,-4.86 l 77.627,-415.28 z"
       id="path4184"
       transform="matrix(0.49808129,0,0,0.49808129,-114.97006,399.69632)" />
    <path
       sodipodi:nodetypes="ccccccccc"
       inkscape:connector-curvature="0"
       style="opacity:0.78261001;fill:url(#radialGradient4469);fill-opacity:1"
       d="m 455.13923,381.56846 c 0.2995,-2.23094 0.9274,-2.66889 3.4517,-2.74941 l 273.5662,-22.84699 c 1.9973,-0.0648 2.351,0.99617 2.092,2.47049 l -36.5193,238.86982 c -0.2391,1.72835 -0.6376,2.78926 -2.1866,2.7793 l -276.465,-9.25933 c -2.5965,-0.14445 -2.8023,-0.58774 -2.6035,-2.42068 z"
       id="path4186" />
    <path
       sodipodi:nodetypes="sssssssss"
       inkscape:connector-curvature="0"
       id="path4188"
       d="m 458.45843,379.67765 10.952,0 c 1.5695,0 2.6067,1.24308 2.3256,2.78719 l -37.1662,204.18207 c -0.2811,1.5441 -1.7709,2.78719 -3.3404,2.78719 l -10.952,0 c -1.5695,0 -2.6067,-1.24309 -2.3256,-2.78719 l 37.1662,-204.18207 c 0.2811,-1.54411 1.7709,-2.78719 3.3404,-2.78719 z"
       style="fill:url(#radialGradient4391);fill-opacity:1;fill-rule:nonzero;stroke:none" />
    <path
       id="path4190"
       d="m 458.95523,386.20859 6.6747,0 c 1.0003,0 1.6362,0.78726 1.4258,1.76517 l -2.1913,10.18405 c -0.2105,0.97791 -1.1851,1.76517 -2.1854,1.76517 l -6.6747,0 c -1.0003,0 -1.6362,-0.78726 -1.4257,-1.76517 l 2.1913,-10.18405 c 0.2104,-0.97791 1.1851,-1.76517 2.1853,-1.76517 z"
       style="fill:url(#linearGradient4444);fill-opacity:1;fill-rule:nonzero;stroke:none"
       inkscape:connector-curvature="0" />
    <rect
       style="fill:url(#linearGradient4428);fill-opacity:1;fill-rule:nonzero;stroke:none"
       id="rect4192"
       width="10.285798"
       height="14.028282"
       x="540.30872"
       y="410.82327"
       transform="matrix(1,0,-0.21035598,0.97762486,0,0)"
       ry="1.8055692" />
    <rect
       style="fill:url(#linearGradient4493);fill-opacity:1;fill-rule:nonzero;stroke:none"
       id="rect4194"
       width="10.285798"
       height="14.028282"
       x="543.58203"
       y="550.47699"
       transform="matrix(1,0,-0.21035598,0.97762486,0,0)"
       ry="1.8055692" />
    <rect
       ry="1.8055692"
       transform="matrix(1,0,-0.21035598,0.97762486,0,0)"
       y="567.53925"
       x="543.58801"
       height="14.028282"
       width="10.285798"
       id="rect4196"
       style="fill:url(#linearGradient4501);fill-opacity:1;fill-rule:nonzero;stroke:none" />
    <rect
       style="fill:url(#linearGradient4509);fill-opacity:1;fill-rule:nonzero;stroke:none"
       id="rect4198"
       width="10.285798"
       height="14.028282"
       x="544.00061"
       y="585.3598"
       transform="matrix(1,0,-0.21035598,0.97762486,0,0)"
       ry="1.8055692" />
    <path
       inkscape:connector-curvature="0"
       style="fill:url(#linearGradient4379)"
       d="m 580.04813,617.5544 74.0497,3.69078 7.4862,29.06304 c 0.2291,8.34784 -0.8467,15.39071 -8.308,16.04818 l -78.0294,-5.90226 c 3.6758,-1.91761 6.2559,-4.80649 7.9693,-9.94669 0.518,-2.13178 0.6276,-4.26357 0.8417,-6.39038 l -4.0095,-26.56267 z"
       id="path4200" />
    <path
       inkscape:connector-curvature="0"
       style="fill:url(#linearGradient4376)"
       d="m 507.03933,664.49856 68.4065,-4.17392 79.3244,5.83253 -39.3334,4.83139 c -9.3092,0.44329 -18.8723,0.82183 -31.9968,0.31379 l -76.5202,-5.10035 c -0.8966,-0.37356 -3.1728,-0.45824 0.1195,-1.70344 z"
       id="path4202" />
    <path
       inkscape:connector-curvature="0"
       style="fill:url(#linearGradient4373)"
       d="m 505.33093,666.06253 72.8394,4.89614 c 11.1122,0.68237 21.9804,0.88659 32.3853,0.15441 l 41.1714,-4.66204 c 17.8861,-0.93142 5.5287,-28.10673 2.3459,-45.39513 l 1.32,0.17931 c 2.5252,12.35241 7.6256,23.09105 7.5011,35.82698 -0.3885,5.10036 -2.7046,10.13098 -10.8881,11.92407 -64.4816,11.74974 -97.4645,1.79309 -146.675,0.79693 v -3.72067 z"
       id="path4204" />
    <path
       style="opacity:0.46090537;fill:url(#linearGradient4370);fill-opacity:1"
       inkscape:connector-curvature="0"
       d="m 576.92513,372.91181 151.4964,-10.72867 -37.3411,234.32732 -90.9796,-3.00343 -23.1757,-220.59522 z"
       id="path4206" />
    <path
       style="fill:#eeeeee;fill-opacity:0.10502283"
       inkscape:connector-curvature="0"
       d="m 450.74623,420.55328 58.3701,114.15526 -89.2711,50.6449 30.901,-164.80016 z"
       id="path4208" />
    <path
       style="opacity:0.44099001;fill:#333333"
       inkscape:connector-curvature="0"
       d="m 412.71683,594.00066 16.5114,0.46321 -0.3487,6.42027 -16.7006,-0.6226 0.5379,-6.26088 z"
       id="path4210" />
    <path
       inkscape:connector-curvature="0"
       style="opacity:0.44099001;fill:url(#linearGradient4363)"
       d="m 412.95093,594.22978 16.0083,0.3885 -0.4632,6.07161 -15.9685,-0.73716 0.4234,-5.72295 z"
       id="path4212" />
    <path
       inkscape:connector-curvature="0"
       style="fill:url(#radialGradient4360)"
       d="m 698.19763,608.08282 c 0,1.05594 -0.8567,1.91263 -1.9126,1.91263 -1.056,0 -1.9127,-0.85669 -1.9127,-1.91263 0,-1.05593 0.8567,-1.91263 1.9127,-1.91263 1.0559,0 1.9126,0.8567 1.9126,1.91263 z"
       id="path4214" />
    <path
       sodipodi:nodetypes="ccccccccc"
       id="path4248"
       d="m 455.61813,380.02124 c 0.1604,-0.95675 1.8617,-1.19117 3.2509,-1.20219 l 273.2881,-22.84699 c 1.9973,-0.0648 2.351,0.99617 2.092,2.47049 l -0.6348,1.87802 c -0.2391,1.72835 -0.6376,2.78926 -2.1866,2.7793 l -273.9445,21.16302 c -1.1601,0.0177 -2.9875,0.29261 -2.6961,-1.07698 z"
       style="fill:#000000"
       inkscape:connector-curvature="0" />
    <path
       style="fill:#eeeeee;fill-opacity:0.12328766"
       inkscape:connector-curvature="0"
       d="m 457.79643,378.92365 275.5236,-22.74737 c -70.7923,147.39221 -252.7016,98.386 -275.5236,22.74737 z"
       id="path4254" />
    <path
       id="path3903"
       d="m 577.65932,373.64603 151.4964,-10.72867 -37.3411,234.32732 -90.9796,-3.00343 -23.1757,-220.59522 z"
       inkscape:connector-curvature="0"
       style="opacity:0.46090537;fill:#eeeeee;fill-opacity:0.3105023" />
    <rect
       ry="1.8055692"
       transform="matrix(1,0,-0.21035598,0.97762486,0,0)"
       y="427.00391"
       x="540.54871"
       height="14.028282"
       width="10.285798"
       id="rect4430"
       style="fill:url(#linearGradient4432);fill-opacity:1;fill-rule:nonzero;stroke:none" />
    <rect
       style="fill:url(#linearGradient4436);fill-opacity:1;fill-rule:nonzero;stroke:none"
       id="rect4434"
       width="10.285798"
       height="14.028282"
       x="541.04895"
       y="443.66995"
       transform="matrix(1,0,-0.21035598,0.97762486,0,0)"
       ry="1.8055692" />
    <rect
       ry="1.8055692"
       transform="matrix(1,0,-0.21035598,0.97762486,0,0)"
       y="460.60681"
       x="541.15186"
       height="14.028282"
       width="10.285798"
       id="rect4677"
       style="fill:url(#linearGradient4679);fill-opacity:1;fill-rule:nonzero;stroke:none" />
    <rect
       style="fill:url(#linearGradient4683);fill-opacity:1;fill-rule:nonzero;stroke:none"
       id="rect4681"
       width="10.285798"
       height="14.028282"
       x="541.60828"
       y="478.04926"
       transform="matrix(1,0,-0.21035598,0.97762486,0,0)"
       ry="1.8055692" />
    <rect
       ry="1.8055692"
       transform="matrix(1,0,-0.21035598,0.97762486,0,0)"
       y="496.75565"
       x="542.08344"
       height="14.028282"
       width="10.285798"
       id="rect4685"
       style="fill:url(#linearGradient4687);fill-opacity:1;fill-rule:nonzero;stroke:none" />
    <rect
       style="fill:url(#linearGradient4691);fill-opacity:1;fill-rule:nonzero;stroke:none"
       id="rect4689"
       width="10.285798"
       height="14.028282"
       x="542.39905"
       y="514.70367"
       transform="matrix(1,0,-0.21035598,0.97762486,0,0)"
       ry="1.8055692" />
    <rect
       ry="1.8055692"
       transform="matrix(1,0,-0.21035598,0.97762486,0,0)"
       y="531.89331"
       x="543.04938"
       height="14.028282"
       width="10.285798"
       id="rect4693"
       style="fill:url(#linearGradient4695);fill-opacity:1;fill-rule:nonzero;stroke:none" />
  </g>
</svg>
