<?xml version="1.0" encoding="UTF-8" standalone="no"?>
<!-- Created with Inkscape (http://www.inkscape.org/) -->

<svg
   xmlns:dc="http://purl.org/dc/elements/1.1/"
   xmlns:cc="http://creativecommons.org/ns#"
   xmlns:rdf="http://www.w3.org/1999/02/22-rdf-syntax-ns#"
   xmlns:svg="http://www.w3.org/2000/svg"
   xmlns="http://www.w3.org/2000/svg"
   xmlns:sodipodi="http://sodipodi.sourceforge.net/DTD/sodipodi-0.dtd"
   xmlns:inkscape="http://www.inkscape.org/namespaces/inkscape"
   width="370"
   height="370"
   id="svg2"
   version="1.1"
   inkscape:version="0.48.3.1 r9886"
   sodipodi:docname="vintage.svg"
   inkscape:export-filename="/home/phoenix/SVG/Bo.png"
   inkscape:export-xdpi="156.30769"
   inkscape:export-ydpi="156.30769">
  <title
     id="title2996">Vintage</title>
  <defs
     id="defs4" />
  <sodipodi:namedview
     id="base"
     pagecolor="#ffffff"
     bordercolor="#666666"
     borderopacity="1.0"
     inkscape:pageopacity="0.0"
     inkscape:pageshadow="2"
     inkscape:zoom="1.327027"
     inkscape:cx="185"
     inkscape:cy="185"
     inkscape:document-units="px"
     inkscape:current-layer="capa1"
     showgrid="false"
     inkscape:window-width="1366"
     inkscape:window-height="712"
     inkscape:window-x="0"
     inkscape:window-y="27"
     inkscape:window-maximized="1"
     units="px" />
  <metadata
     id="metadata7">
    <rdf:RDF>
      <cc:Work
         rdf:about="">
        <dc:format>image/svg+xml</dc:format>
        <dc:type
           rdf:resource="http://purl.org/dc/dcmitype/StillImage" />
        <dc:title>Vintage</dc:title>
        <dc:date>12/17/2013</dc:date>
        <dc:creator>
          <cc:Agent>
            <dc:title>Dux Phoenix</dc:title>
          </cc:Agent>
        </dc:creator>
        <dc:publisher>
          <cc:Agent>
            <dc:title>OpenClipArt</dc:title>
          </cc:Agent>
        </dc:publisher>
        <dc:description>Old fashioned female face.</dc:description>
        <cc:license
           rdf:resource="http://creativecommons.org/licenses/publicdomain/" />
        <dc:subject>
          <rdf:Bag>
            <rdf:li>female</rdf:li>
            <rdf:li>face</rdf:li>
            <rdf:li>girl</rdf:li>
            <rdf:li>vintage</rdf:li>
          </rdf:Bag>
        </dc:subject>
      </cc:Work>
      <cc:License
         rdf:about="http://creativecommons.org/licenses/publicdomain/">
        <cc:permits
           rdf:resource="http://creativecommons.org/ns#Reproduction" />
        <cc:permits
           rdf:resource="http://creativecommons.org/ns#Distribution" />
        <cc:permits
           rdf:resource="http://creativecommons.org/ns#DerivativeWorks" />
      </cc:License>
    </rdf:RDF>
  </metadata>
  <g
     inkscape:label="Capa 1"
     inkscape:groupmode="layer"
     id="capa1"
     transform="translate(0,-682.3609)">
    <path
       style="fill:#000000;fill-opacity:1;stroke:none"
       d="m 185.00012,683.67343 c -71.03226,0 -132.187645,57.58718 -132.093745,137.96875 l 160.624995,0 c 0.2955,-0.51408 0.65864,-1.00478 1.0625,-1.53125 6.04422,-7.87916 22.27379,-14.23466 31.09375,-7.46875 2.79645,2.1452 4.49739,5.37274 5.34375,9 l 6.5,0 c -0.29247,-4.04419 0.49876,-7.92134 2.8125,-10.9375 6.76592,-8.81996 24.08959,-6.88797 31.96875,-0.84375 4.43203,3.39987 4.92611,7.37977 3.3125,11.78125 l 21.46875,0 c 0.0939,-80.38157 -61.06149,-137.96875 -132.09375,-137.96875 z m 80.09375,76.25 c 4.55872,0.002 9.70628,3.36505 15.21875,7.59375 8.81996,6.76592 15.23172,13.18334 9.1875,21.0625 -6.04423,7.87916 -22.2738,14.23467 -31.09375,7.46875 -8.81996,-6.76593 -6.88798,-24.05833 -0.84375,-31.9375 2.26658,-2.95468 4.79602,-4.18869 7.53125,-4.1875 z m -35.125,4.625 c 2.02665,-0.049 4.12774,0.64381 6.34375,2.34375 7.87916,6.04422 14.20342,22.2738 7.4375,31.09375 -6.76593,8.81996 -24.05834,6.88797 -31.9375,0.84375 -7.87916,-6.04422 -3.35967,-13.89879 3.40625,-22.71875 4.863,-6.33935 9.57077,-11.4372 14.75,-11.5625 z m 21.4375,32.3125 c 0.35942,-0.0281 0.73227,-0.0223 1.09375,0 0.48179,0.0283 0.96497,0.0966 1.4375,0.21875 0.7088,0.18319 1.41431,0.47506 2.0625,0.875 0.2161,0.13326 0.4192,0.24837 0.625,0.40625 0.19627,0.15057 0.35417,0.33454 0.53125,0.5 0.0134,0.0116 0.0497,0.0189 0.0625,0.0312 0.0264,0.025 0.0363,0.0373 0.0625,0.0625 0.33778,0.32941 0.64292,0.68633 0.90625,1.0625 0.0879,0.12441 0.1704,0.2775 0.25,0.40625 0.0876,0.14294 0.1726,0.2898 0.25,0.4375 0.14618,0.27897 0.26574,0.5508 0.375,0.84375 0.70731,1.89665 0.63448,4.05592 -0.28125,5.9375 -0.21691,0.4433 -0.46917,0.87442 -0.78125,1.28125 -0.31575,0.4116 -0.65426,0.7666 -1.03125,1.09375 -0.37695,0.32717 -0.79465,0.63412 -1.21875,0.875 -0.8482,0.48177 -1.76637,0.78073 -2.71875,0.90625 -0.47231,0.0631 -0.96013,0.0898 -1.4375,0.0625 -0.008,-10e-4 -0.0222,3e-4 -0.0312,0 -0.47332,-0.0286 -0.94163,-0.0995 -1.40625,-0.21875 -0.008,-0.002 -0.0242,0.002 -0.0312,0 -0.22862,-0.0602 -0.4323,-0.1674 -0.65625,-0.25 -0.43114,-0.15739 -0.8445,-0.35263 -1.25,-0.59375 -0.24876,-0.14785 -0.51439,-0.32013 -0.75,-0.5 -0.2058,-0.15787 -0.40883,-0.32588 -0.59375,-0.5 -1.29706,-1.22158 -2.06398,-2.7973 -2.28125,-4.46875 -0.0313,-0.23406 -0.0535,-0.48266 -0.0625,-0.71875 -0.0177,-0.47604 0.0206,-0.9635 0.0937,-1.4375 0.11242,-0.71837 0.32933,-1.42003 0.65625,-2.09375 0.21798,-0.44913 0.4655,-0.90089 0.78125,-1.3125 0.31208,-0.40682 0.69015,-0.7697 1.0625,-1.09375 0.37305,-0.32314 0.76802,-0.60512 1.1875,-0.84375 0.005,-0.003 0.0263,-0.0283 0.0312,-0.0312 0.95573,-0.54084 1.98425,-0.85322 3.0625,-0.9375 z m -190.843745,30.5 c -4.04144,0 -7.3125,3.23981 -7.3125,7.28125 l 0,14.5 c 0,4.04144 3.27106,7.3125 7.3125,7.3125 l 248.906245,0 c 4.04144,0 7.28125,-3.27106 7.28125,-7.3125 l 0,-14.5 c 0,-4.04144 -3.23981,-7.28125 -7.28125,-7.28125 l -16.84375,0 c -1.10377,1.7028 -2.37867,3.46236 -3.75,5.25 -4.65157,6.06372 -9.15213,10.97782 -14.0625,11.5 l 0,3.59375 c 0,4.04144 -3.23981,7.28125 -7.28125,7.28125 l -27.15625,0 c -4.04144,0 -7.28125,-3.23981 -7.28125,-7.28125 l 0,-0.5 c -2.93643,-1.38133 -6.04267,-3.54689 -9.28125,-6.03125 -5.96364,-4.5748 -10.83934,-8.99255 -11.5,-13.8125 l -151.749995,0 z m 191.124995,0 c 0.002,0.37512 -0.0196,0.74851 -0.0312,1.125 l 7.34375,0 c -0.12628,-0.37559 -0.26318,-0.74592 -0.375,-1.125 l -6.9375,0 z m -0.1875,3.3125 c -0.53499,5.32743 -2.35102,10.52506 -4.96875,13.9375 -2.61871,3.41371 -5.58286,4.48455 -8.8125,4.0625 1.16608,2.45591 3.64761,4.15625 6.5625,4.15625 l 19.34375,0 c 4.04144,0 7.3125,-3.23981 7.3125,-7.28125 l 0,-1.96875 c -1.02068,-0.38655 -2.05494,-0.96039 -3.125,-1.78125 -3.17538,-2.43589 -6.08301,-6.53333 -8,-11.125 l -8.3125,0 z m -114.4375,29.34375 c -28.47649,0.22402 -61.856375,4.67382 -74.593745,22.84375 -12.712253,18.13404 -8.256175,54.71579 10.21875,66.40625 30.066225,19.02514 77.038485,-7.52802 100.593745,-33.84375 2.65225,-2.96306 4.65398,-6.84341 5.40625,-8.5 0,0 4.13187,-1.65625 6.3125,-1.65625 2.18062,0 6.34375,1.65625 6.34375,1.65625 0.75228,1.65659 2.754,5.53694 5.40625,8.5 23.55527,26.31573 70.52751,52.86889 100.59375,33.84375 18.47492,-11.69046 22.89975,-48.27221 10.1875,-66.40625 -13.48664,-19.23875 -50.05021,-23.10446 -79.5,-22.84375 -16.58332,0.1468 -30.79831,1.57443 -37.4375,2.375 l 0,-0.0312 -0.53125,0.0937 c -0.078,0.01 -0.20566,0.022 -0.28125,0.0312 -2.09969,0.25893 -3.25,0.53125 -3.25,0.53125 l -1.53125,0.34375 -1.53125,-0.34375 c -8.1e-4,-0.01 -1.30775,-0.3113 -3.625,-0.59375 l -0.0625,0 -0.34375,-0.0625 0,0.0312 c -7.31862,-0.88065 -23.77294,-2.52135 -42.375,-2.375 z m -81.312495,2.875 c -0.6497,0 -1.267435,0.0195 -1.90625,0.0625 l -0.875,0 0,0.0625 -0.03125,0 c -14.344157,1.42499 -25.5625,13.53086 -25.5625,28.25 0,9.4451 4.623009,17.80837 11.71875,22.96875 l -0.125,0.40625 c -1.05174,0.32112 -2.07976,0.69249 -3.09375,1.09375 -0.0427,0.0169 -0.0823,0.0455 -0.125,0.0625 -0.51827,0.20715 -1.02366,0.42887 -1.53125,0.65625 -1.53553,0.68785 -3.04014,1.44875 -4.46875,2.3125 -0.36557,0.22103 -0.73575,0.45552 -1.09375,0.6875 -0.10617,0.0688 -0.207,0.14905 -0.3125,0.21875 -0.92567,0.61237 -1.81644,1.25426 -2.6875,1.9375 -0.43779,0.3434 -0.85803,0.70197 -1.28125,1.0625 -0.26865,0.22885 -0.5499,0.45192 -0.8125,0.6875 -0.14798,0.13256 -0.29147,0.27159 -0.4375,0.40625 -0.40671,0.37556 -0.79628,0.76471 -1.1875,1.15625 -0.39235,0.39267 -0.77999,0.77928 -1.15625,1.1875 -0.75139,0.81522 -1.47215,1.65709 -2.15625,2.53125 -0.16283,0.20807 -0.34113,0.41374 -0.5,0.625 -0.122453,0.16252 -0.225966,0.336 -0.34375,0.5 -0.04729,0.0659 -0.108421,0.1212 -0.15625,0.1875 -0.06694,0.0903 -0.122167,0.1891 -0.1875,0.28125 -0.08115,0.11617 -0.16939,0.22734 -0.25,0.34375 -0.17112,0.24671 -0.3342,0.4994 -0.5,0.75 -0.61103,0.92487 -1.18263,1.86853 -1.71875,2.84375 -0.27085,0.49269 -0.5303,0.99524 -0.78125,1.5 -0.0824,0.16573 -0.1698,0.333 -0.25,0.5 -0.151022,0.30987 -0.295919,0.62246 -0.4375,0.9375 -0.0096,0.0214 -0.02164,0.041 -0.03125,0.0625 -0.07073,0.15812 -0.14995,0.30958 -0.21875,0.46875 -0.1548,0.35757 -0.29268,0.73098 -0.4375,1.09375 -0.05808,0.14566 -0.1311,0.29102 -0.1875,0.4375 -0.08373,0.21716 -0.142018,0.44007 -0.21875,0.65625 -0.05599,0.15773 -0.130973,0.30809 -0.1875,0.46875 -0.0476,0.13527 -0.0788,0.27033 -0.125,0.40625 -0.13673,0.40185 -0.28176,0.81139 -0.40625,1.21875 -0.0347,0.11408 -0.05995,0.22925 -0.09375,0.34375 -0.15681,0.52979 -0.30176,1.05522 -0.4375,1.59375 -0.06749,0.26818 -0.1253,0.54225 -0.1875,0.8125 -0.0428,0.18579 -0.0847,0.37575 -0.125,0.5625 -0.0181,0.0839 -0.0449,0.1659 -0.0625,0.25 -0.0393,0.18781 -0.08705,0.37455 -0.125,0.5625 -0.01473,0.0721 -0.01769,0.14684 -0.03125,0.21875 -0.04292,0.21835 -0.0871,0.43572 -0.125,0.65625 -0.01241,0.0722 -0.01922,0.14642 -0.03125,0.21875 -0.0066,0.0321 -0.02599,0.0616 -0.03125,0.0937 -0.07634,0.46556 -0.127,0.93553 -0.1875,1.40625 -0.0068,0.0531 -0.02425,0.10305 -0.03125,0.15625 -0.03992,0.33193 -0.06039,0.66534 -0.09375,1 -0.01796,0.19883 -0.04557,0.3958 -0.0625,0.59375 -0.003,0.0311 0.003,0.0625 0,0.0937 -0.046,0.55285 -0.1011,1.09734 -0.125,1.65625 -8.9e-4,0.0207 8.6e-4,0.0418 0,0.0625 -0.02325,0.56989 -0.03125,1.14304 -0.03125,1.71875 0,10.44395 3.8948,19.96859 10.3125,27.21875 -7.751644,3.81306 -13.249713,11.50806 -13.90625,20.56252 -7.59e-4,0.01 7.47e-4,0.021 0,0.031 -0.04231,0.5936 -0.0625,1.2081 -0.0625,1.8125 0,0.5385 0.02917,1.0635 0.0625,1.5937 0.02147,0.3585 0.05732,0.7084 0.09375,1.0625 0.03399,0.3237 0.04759,0.6488 0.09375,0.9688 0.009,0.062 0.02172,0.1251 0.03125,0.1875 0.02588,0.1697 0.06454,0.3335 0.09375,0.5 0.03257,0.1881 0.05702,0.3759 0.09375,0.5625 0.01034,0.052 0.02057,0.104 0.03125,0.1562 0.03245,0.1586 0.08961,0.3113 0.125,0.4688 0.07181,0.3212 0.134727,0.6523 0.21875,0.9687 0.112375,0.422 0.241595,0.837 0.375,1.25 0.136354,0.4222 0.279675,0.838 0.4375,1.25 0.115579,0.3015 0.216923,0.6106 0.34375,0.9063 0.07171,0.1672 0.143492,0.3347 0.21875,0.5 0.0287,0.063 0.06454,0.1247 0.09375,0.1875 0.212782,0.4568 0.447956,0.9029 0.6875,1.3437 0.38361,0.7076 0.80214,1.3983 1.25,2.0625 0.44786,0.6642 0.92955,1.2897 1.4375,1.9063 0.50795,0.6166 1.06111,1.2164 1.625,1.7812 0.281942,0.2825 0.548604,0.5438 0.84375,0.8125 0.0057,0 0.02559,-0.01 0.03125,0 0.289746,0.2633 0.573055,0.5629 0.875,0.8125 0.0059,0 0.02536,-0.01 0.03125,0 0.301622,0.2489 0.592975,0.4841 0.90625,0.7188 0.73046,0.5475 1.4919,1.0338 2.28125,1.5 0.247431,0.1603 0.490849,0.3278 0.75,0.4687 0.0078,0 0.02341,-0 0.03125,0 0.345431,0.1874 0.707451,0.36 1.0625,0.5313 0.181628,0.088 0.378461,0.1667 0.5625,0.25 0.175714,0.084 0.34915,0.1729 0.53125,0.25 0.0086,0 0.0226,-0 0.03125,0 0.364402,0.1538 0.720732,0.332 1.09375,0.4687 0.009,0 0.0222,-0 0.03125,0 0.377697,0.138 0.771005,0.2552 1.15625,0.375 0.385245,0.1199 0.762427,0.2424 1.15625,0.3438 0.605798,0.1571 1.221045,0.2631 1.84375,0.375 0.197922,0.037 0.391414,0.094 0.59375,0.125 0.834662,0.1294 1.671516,0.2054 2.53125,0.25 0.435658,0.023 0.871225,0.031 1.3125,0.031 0.394518,-6e-4 0.797906,-0.013 1.1875,-0.031 0.37875,-0.018 0.75091,-0.028 1.125,-0.062 0.0104,-10e-4 0.02075,10e-4 0.03125,0 0.340942,-0.032 0.666196,-0.075 1,-0.125 0.03221,-0 0.06129,-0.027 0.09375,-0.031 0.0099,-10e-4 0.02125,10e-4 0.03125,0 0.74785,-0.1057 1.49384,-0.2353 2.21875,-0.4063 0.0098,-0 0.02125,0 0.03125,0 0.35736,-0.085 0.71127,-0.1812 1.0625,-0.2812 0.0094,-0 0.02225,0 0.03125,0 0.356005,-0.1019 0.713628,-0.2226 1.0625,-0.3438 0.348872,-0.1212 0.688995,-0.2429 1.03125,-0.375 0.0088,-0 0.02225,0 0.03125,0 0.349362,-0.1351 0.689641,-0.2874 1.03125,-0.4375 2.372005,-1.0447 4.547022,-2.4403 6.46875,-4.125 3.14262,16.3501 17.76683,28.7501 35.3125,28.7501 0.61997,0 1.23147,-10e-4 1.84375,-0.031 0.61228,-0.03 1.2399,-0.096 1.84375,-0.1563 0.57254,-0.057 1.12321,-0.1355 1.6875,-0.2187 0.63209,-0.093 1.25413,-0.1877 1.875,-0.3125 0.2032,-0.041 0.39181,-0.1121 0.59375,-0.1563 0.37686,-0.082 0.75271,-0.156 1.125,-0.25 0.43713,-0.1105 0.88196,-0.2176 1.3125,-0.3437 0.13732,-0.04 0.26962,-0.083 0.40625,-0.125 0.3909,-0.1195 0.77119,-0.2429 1.15625,-0.375 0.16703,-0.057 0.3341,-0.1279 0.5,-0.1875 0.55461,-0.1993 1.11482,-0.4001 1.65625,-0.625 0.46755,-0.1943 0.91781,-0.4121 1.375,-0.625 0.059,-0.027 0.12867,-0.035 0.1875,-0.062 0.27231,-0.129 0.54406,-0.2709 0.8125,-0.4063 0.25031,-0.126 0.50314,-0.2434 0.749995,-0.375 0.0864,-0.046 0.16402,-0.1094 0.25,-0.1562 0.427,-0.2321 0.83387,-0.4704 1.25,-0.7188 0.39194,-0.234 0.77433,-0.4706 1.15625,-0.7188 0.10129,-0.066 0.21193,-0.1207 0.3125,-0.1875 0.15047,-0.1 0.28866,-0.2104 0.4375,-0.3125 0.44653,-0.3061 0.88108,-0.6122 1.3125,-0.9375 0.31121,-0.2345 0.63445,-0.4746 0.9375,-0.7187 0.11434,-0.092 0.23059,-0.1877 0.34375,-0.2813 0.3602,-0.2975 0.68331,-0.5952 1.03125,-0.9062 0.0499,-0.044 0.10663,-0.08 0.15625,-0.125 0.36919,-0.3338 0.73908,-0.6828 1.09375,-1.0313 0.4072,-0.4001 0.80014,-0.7998 1.1875,-1.2187 0.36677,-0.3965 0.71415,-0.8062 1.0625,-1.2188 0.0189,-0.022 0.0437,-0.04 0.0625,-0.062 0.32349,-0.385 0.63056,-0.7889 0.9375,-1.1875 0.0406,-0.053 0.0847,-0.1033 0.125,-0.1562 0.28229,-0.3708 0.57615,-0.7432 0.84375,-1.125 0.0596,-0.085 0.12864,-0.1644 0.1875,-0.25 0.24556,-0.3571 0.45505,-0.7276 0.6875,-1.0938 0.0736,-0.1159 0.14647,-0.2269 0.21875,-0.3437 0.0198,-0.032 0.0428,-0.062 0.0625,-0.094 0.26791,-0.4361 0.53226,-0.8644 0.78125,-1.3125 0.0112,-0.02 0.0203,-0.042 0.0312,-0.062 0.17401,-0.3147 0.33553,-0.6484 0.5,-0.9688 0.22882,-0.4457 0.47759,-0.8874 0.6875,-1.3437 0.0137,-0.03 0.0178,-0.064 0.0312,-0.094 0.0136,-0.03 0.018,-0.064 0.0312,-0.094 0.21109,-0.4658 0.40285,-0.9302 0.59375,-1.4063 0.10556,-0.2631 0.21323,-0.515 0.3125,-0.7812 0.0877,-0.2353 0.16727,-0.4812 0.25,-0.7188 0.10725,-0.3084 0.21376,-0.6253 0.3125,-0.9375 0.0649,-0.2049 0.1263,-0.4184 0.1875,-0.625 0.009,-0.031 0.0223,-0.062 0.0312,-0.094 0.14513,-0.495 0.28284,-0.9962 0.40625,-1.5 0.12987,-0.5301 0.23853,-1.0546 0.34375,-1.5937 0.10472,-0.5366 0.20156,-1.0801 0.28125,-1.625 0.0682,-0.4682 0.1382,-0.9636 0.1875,-1.4375 0.008,-0.082 0.0233,-0.1677 0.0312,-0.25 0.0509,-0.5261 0.0978,-1.03 0.125,-1.5625 0.002,-0.031 -0.002,-0.063 0,-0.094 0.0273,-0.5647 0.0312,-1.1474 0.0312,-1.7188 0,-0.4959 -0.0111,-0.9774 -0.0312,-1.4687 -4.4e-4,-0.01 4.5e-4,-0.021 0,-0.031 -0.0169,-0.3954 -0.0312,-0.7939 -0.0625,-1.1875 -0.006,-0.073 -0.0252,-0.146 -0.0312,-0.2188 -0.003,-0.031 0.003,-0.063 0,-0.094 -0.0382,-0.4478 -0.10116,-0.9009 -0.15625,-1.3437 -0.005,-0.041 0.005,-0.084 0,-0.125 -0.0375,-0.2927 -0.0802,-0.5847 -0.125,-0.875 -0.0215,-0.146 -0.0385,-0.2939 -0.0625,-0.4375 -0.0783,-0.4677 -0.18376,-0.9172 -0.28125,-1.375 -0.0153,-0.072 -0.0156,-0.1464 -0.0312,-0.2188 -0.057,-0.2636 -0.12426,-0.5216 -0.1875,-0.7812 -0.0325,-0.1349 -0.0588,-0.2716 -0.0937,-0.4063 -0.0188,-0.074 -0.0432,-0.1445 -0.0625,-0.2187 -0.0194,-0.075 -0.0426,-0.1443 -0.0625,-0.2188 -0.10384,-0.3884 -0.19565,-0.7731 -0.3125,-1.1562 -0.0354,-0.1159 -0.0855,-0.2281 -0.125,-0.3438 -0.0795,-0.2519 -0.16479,-0.5003 -0.25,-0.75 -0.0321,-0.094 -0.0609,-0.1877 -0.0937,-0.2812 -0.0515,-0.1465 -0.10405,-0.2918 -0.15625,-0.4375 -0.0728,-0.1988 -0.14186,-0.3976 -0.21875,-0.5938 -0.0288,-0.074 -0.0642,-0.1453 -0.0937,-0.2187 -0.0121,-0.031 -0.0197,-0.063 -0.0312,-0.094 -0.0417,-0.1046 -0.0821,-0.2089 -0.125,-0.3125 -0.0912,-0.2226 -0.18901,-0.4373 -0.28125,-0.6563 -0.0508,-0.1171 -0.10416,-0.2273 -0.15625,-0.3437 -0.13403,-0.2997 -0.26407,-0.611 -0.40625,-0.9063 -0.0141,-0.029 -0.0179,-0.064 -0.0312,-0.094 -0.051,-0.105 -0.10125,-0.2099 -0.15625,-0.3125 -0.10682,-0.2148 -0.23294,-0.41505 -0.34375,-0.62497 -0.0369,-0.0699 -0.0565,-0.14834 -0.0937,-0.21875 -0.0714,-0.13426 -0.1456,-0.27301 -0.21875,-0.40625 -0.0769,-0.14008 -0.16646,-0.27121 -0.25,-0.40625 -0.004,-0.008 0.004,-0.0233 0,-0.0312 -0.0696,-0.12542 -0.14672,-0.2517 -0.21875,-0.375 -0.0806,-0.13785 -0.16824,-0.26848 -0.25,-0.40625 -0.12444,-0.20642 -0.24487,-0.42024 -0.375,-0.625 -0.0271,-0.044 -0.0667,-0.0811 -0.0937,-0.125 -0.0855,-0.13414 -0.16585,-0.2714 -0.25,-0.40625 -0.0125,-0.0193 -0.0188,-0.0432 -0.0312,-0.0625 -0.0957,-0.14521 -0.1831,-0.29495 -0.28125,-0.4375 -0.0584,-0.0858 -0.1275,-0.16491 -0.1875,-0.25 -0.10975,-0.15813 -0.23147,-0.31248 -0.34375,-0.46875 -0.0385,-0.0536 -0.0866,-0.1017 -0.125,-0.15625 -0.12125,-0.16223 -0.2215,-0.33943 -0.34375,-0.5 -0.0407,-0.0541 -0.0855,-0.10289 -0.125,-0.15625 -0.0861,-0.11302 -0.16237,-0.23221 -0.25,-0.34375 -0.14973,-0.19188 -0.31514,-0.37376 -0.46875,-0.5625 -0.0183,-0.0224 -0.0441,-0.0399 -0.0625,-0.0625 -0.12578,-0.15443 -0.24739,-0.31827 -0.375,-0.46875 -0.13794,-0.16299 -0.29572,-0.30899 -0.4375,-0.46875 -0.0148,-0.0165 -0.0164,-0.046 -0.0312,-0.0625 -0.15692,-0.17787 -0.30831,-0.35651 -0.46875,-0.53125 -0.15188,-0.16568 -0.31375,-0.30593 -0.46875,-0.46875 -0.16601,-0.17418 -0.33047,-0.36041 -0.5,-0.53125 -0.0768,-0.0774 -0.17155,-0.13989 -0.25,-0.21875 -0.0786,-0.0778 -0.14147,-0.17107 -0.21875,-0.25 -0.14354,-0.13946 -0.29202,-0.27052 -0.4375,-0.40625 -0.043,-0.0404 -0.0841,-0.0826 -0.125,-0.125 -0.0438,-0.0408 -0.0822,-0.0849 -0.125,-0.125 -0.10363,-0.0955 -0.20814,-0.1883 -0.3125,-0.28125 -0.0937,-0.0843 -0.18841,-0.16612 -0.28125,-0.25 -0.10632,-0.0937 -0.2075,-0.1894 -0.3125,-0.28125 -0.0616,-0.053 -0.12431,-0.10502 -0.1875,-0.15625 -0.0849,-0.072 -0.1644,-0.14745 -0.25,-0.21875 -0.0701,-0.0556 -0.1496,-0.0995 -0.21875,-0.15625 -0.0515,-0.0422 -0.10618,-0.0809 -0.15625,-0.125 -0.0972,-0.0785 -0.18268,-0.17216 -0.28125,-0.25 -0.13752,-0.10917 -0.29832,-0.2053 -0.4375,-0.3125 -0.11745,-0.0904 -0.22825,-0.18884 -0.34375,-0.28125 -0.12539,-0.0938 -0.24955,-0.18962 -0.375,-0.28125 -0.0423,-0.031 -0.0837,-0.0623 -0.125,-0.0937 -0.084,-0.0607 -0.16457,-0.12795 -0.25,-0.1875 -0.2128,-0.15111 -0.43791,-0.29138 -0.65625,-0.4375 -0.0433,-0.0294 -0.0828,-0.0636 -0.125,-0.0937 -0.0625,-0.0421 -0.12516,-0.0833 -0.1875,-0.125 -0.0624,-0.0413 -0.12364,-0.0854 -0.1875,-0.125 -0.0194,-0.0127 -0.043,-0.0186 -0.0625,-0.0312 -0.6513,-0.4244 -1.31993,-0.83591 -2,-1.21875 -0.0123,-0.007 -0.0188,-0.0242 -0.0312,-0.0312 -0.0936,-0.0525 -0.18601,-0.10711 -0.28125,-0.15625 -0.10189,-0.0559 -0.21,-0.10129 -0.3125,-0.15625 -0.631985,-0.3394 -1.283255,-0.66634 -1.937495,-0.96875 -0.0727,-0.0335 -0.14575,-0.0607 -0.21875,-0.0937 -0.0213,-0.01 -0.0411,-0.0222 -0.0625,-0.0312 -0.10341,-0.0467 -0.20985,-0.0809 -0.3125,-0.125 -0.23907,-0.10268 -0.47388,-0.21104 -0.71875,-0.3125 -0.0823,-0.0341 -0.16738,-0.0602 -0.25,-0.0937 -0.36484,-0.14797 -0.723,-0.30112 -1.09375,-0.4375 -0.0705,-0.0259 -0.14806,-0.037 -0.21875,-0.0625 -0.43722,-0.15781 -0.86752,-0.35863 -1.3125,-0.5 6.362685,-5.83118 10.374995,-14.18921 10.374995,-23.5 0,-0.26457 0.006,-0.51822 0,-0.78125 -12.039055,1.8869 -23.656655,0.44273 -33.499995,-5.96875 -18.768456,-12.22488 -23.289221,-50.47448 -10.375,-69.4375 6.7574,-9.92247 19.22403,-15.92288 33.71875,-19.4375 l -36.5625,0 c -0.63881,-0.043 -1.2878,-0.0625 -1.9375,-0.0625 z m 258.499995,0 c -0.6497,0 -1.29869,0.0195 -1.9375,0.0625 l -36.53125,0 c 14.4739,3.51681 26.93435,9.52127 33.6875,19.4375 12.91422,18.96302 8.4247,57.21262 -10.34375,69.4375 -9.84335,6.41148 -21.49219,7.85565 -33.53125,5.96875 -0.006,0.25983 0,0.51993 0,0.78125 0,9.31079 4.01231,17.66882 10.375,23.5 -0.44498,0.14137 -0.87528,0.34219 -1.3125,0.5 -0.0707,0.0255 -0.14825,0.0366 -0.21875,0.0625 -0.37075,0.13638 -0.72891,0.28953 -1.09375,0.4375 -0.0826,0.0335 -0.1677,0.0596 -0.25,0.0937 -0.24487,0.10146 -0.47968,0.20982 -0.71875,0.3125 -0.10265,0.0441 -0.20909,0.0783 -0.3125,0.125 -0.0944,0.0427 -0.18725,0.0815 -0.28125,0.125 -0.65424,0.30241 -1.30551,0.62935 -1.9375,0.96875 -0.1025,0.055 -0.21061,0.10035 -0.3125,0.15625 -0.0409,0.0225 -0.0855,0.0381 -0.125,0.0625 -0.0536,0.0283 -0.10332,0.0641 -0.15625,0.0937 -0.0124,0.007 -0.019,0.0245 -0.0312,0.0312 -0.68007,0.38284 -1.3487,0.79435 -2,1.21875 -0.0195,0.0126 -0.0431,0.0186 -0.0625,0.0312 -0.1262,0.0826 -0.24993,0.1659 -0.375,0.25 -0.25986,0.17454 -0.52634,0.35024 -0.78125,0.53125 -0.12825,0.0913 -0.24803,0.18835 -0.375,0.28125 -0.12647,0.0923 -0.2531,0.18372 -0.375,0.28125 -0.13712,0.10258 -0.27005,0.20777 -0.40625,0.3125 -0.12551,0.0913 -0.25513,0.1861 -0.375,0.28125 -0.0982,0.0779 -0.18706,0.16709 -0.28125,0.25 -0.0518,0.0419 -0.10491,0.083 -0.15625,0.125 -0.0691,0.0567 -0.14865,0.10062 -0.21875,0.15625 -0.0856,0.0713 -0.16507,0.14671 -0.25,0.21875 -0.0227,0.0192 -0.0401,0.0433 -0.0625,0.0625 -0.0401,0.0331 -0.0856,0.0598 -0.125,0.0937 -0.20245,0.17413 -0.39534,0.35276 -0.59375,0.53125 -0.0169,0.0152 -0.0459,0.0161 -0.0625,0.0312 -0.0875,0.0782 -0.16298,0.16985 -0.25,0.25 -0.0434,0.04 -0.0841,0.0826 -0.125,0.125 -0.18998,0.17674 -0.37647,0.35051 -0.5625,0.53125 -0.0782,0.076 -0.14029,0.17114 -0.21875,0.25 -0.0785,0.0789 -0.17325,0.14139 -0.25,0.21875 -0.16953,0.17084 -0.33399,0.35707 -0.5,0.53125 -0.155,0.16282 -0.31687,0.30307 -0.46875,0.46875 -0.16044,0.17474 -0.31183,0.35338 -0.46875,0.53125 -0.0149,0.0169 -0.0163,0.0457 -0.0312,0.0625 -0.14178,0.15976 -0.29956,0.30576 -0.4375,0.46875 -0.12761,0.15048 -0.24922,0.31432 -0.375,0.46875 -0.0184,0.0226 -0.0442,0.0401 -0.0625,0.0625 -0.15361,0.18874 -0.31902,0.37062 -0.46875,0.5625 -0.13021,0.16659 -0.24776,0.33108 -0.375,0.5 -0.12036,0.1599 -0.22724,0.33437 -0.34375,0.5 -0.21866,0.29256 -0.45168,0.57463 -0.65625,0.875 -0.0835,0.12277 -0.16856,0.25019 -0.25,0.375 -0.0128,0.0193 -0.0186,0.0432 -0.0312,0.0625 -0.0128,0.0194 -0.019,0.0428 -0.0312,0.0625 -0.2461,0.38156 -0.48683,0.76546 -0.71875,1.15625 -0.0818,0.13777 -0.16943,0.2684 -0.25,0.40625 -0.072,0.1233 -0.14912,0.24958 -0.21875,0.375 -0.005,0.008 0.005,0.0238 0,0.0312 -0.0835,0.13504 -0.17309,0.26617 -0.25,0.40625 -0.0731,0.13324 -0.14735,0.27199 -0.21875,0.40625 -0.0374,0.0704 -0.0569,0.14888 -0.0937,0.21875 -0.11081,0.20992 -0.23693,0.41022 -0.34375,0.62502 -0.0248,0.05 -0.0394,0.105 -0.0625,0.1562 -0.0278,0.054 -0.0673,0.1015 -0.0937,0.1563 -0.16003,0.3294 -0.29363,0.6674 -0.4375,1 -0.0521,0.1164 -0.10545,0.2266 -0.15625,0.3437 -0.0447,0.103 -0.081,0.2095 -0.125,0.3125 -0.0483,0.1166 -0.10801,0.2261 -0.15625,0.3438 -0.025,0.061 -0.0393,0.126 -0.0625,0.1875 -0.0175,0.043 -0.0452,0.082 -0.0625,0.125 -0.0417,0.1047 -0.0843,0.2073 -0.125,0.3125 -0.0595,0.1535 -0.10017,0.3141 -0.15625,0.4687 -0.0163,0.043 -0.0465,0.081 -0.0625,0.125 -0.0148,0.04 -0.0168,0.085 -0.0312,0.125 -0.0375,0.1057 -0.0877,0.2065 -0.125,0.3125 -0.0328,0.094 -0.0616,0.1874 -0.0937,0.2813 -0.0845,0.2469 -0.16452,0.4999 -0.25,0.75 -0.0395,0.1157 -0.0896,0.2279 -0.125,0.3437 -0.11685,0.3831 -0.20865,0.7678 -0.3125,1.1563 -0.0199,0.075 -0.0431,0.144 -0.0625,0.2187 -0.0193,0.074 -0.0437,0.1444 -0.0625,0.2188 -0.10016,0.3953 -0.19475,0.787 -0.28125,1.1875 -0.0157,0.072 -0.0159,0.1467 -0.0312,0.2187 -0.0975,0.4579 -0.20296,0.9073 -0.28125,1.375 -0.024,0.1437 -0.041,0.2915 -0.0625,0.4375 -0.0511,0.331 -0.0834,0.666 -0.125,1 -0.0551,0.4428 -0.1181,0.896 -0.15625,1.3438 -0.0317,0.3721 -0.0426,0.7497 -0.0625,1.125 -0.007,0.1255 -0.026,0.2499 -0.0312,0.375 -4.5e-4,0.01 4.4e-4,0.021 0,0.031 -0.0203,0.4895 -0.0312,0.9743 -0.0312,1.4687 0,0.8303 0.0365,1.6528 0.0937,2.4688 0.0267,0.38 0.055,0.7484 0.0937,1.125 0.0511,0.4982 0.11557,0.9769 0.1875,1.4687 0.0797,0.5449 0.17653,1.0885 0.28125,1.625 0.10522,0.5392 0.21388,1.0637 0.34375,1.5938 0.12341,0.5037 0.26112,1.0049 0.40625,1.5 0.0184,0.063 0.0438,0.1249 0.0625,0.1875 0.11546,0.3857 0.24661,0.7761 0.375,1.1562 0.0527,0.1563 0.1014,0.3135 0.15625,0.4688 0.16004,0.4526 0.32196,0.8997 0.5,1.3437 0.1909,0.4761 0.38266,0.9405 0.59375,1.4063 0.027,0.06 0.0352,0.1281 0.0625,0.1875 0.20991,0.4563 0.45868,0.898 0.6875,1.3437 0.17513,0.3411 0.34531,0.6966 0.53125,1.0313 0.24899,0.4481 0.51334,0.8764 0.78125,1.3125 1.2145,1.9775 2.61492,3.8314 4.1875,5.5312 0.38736,0.4189 0.7803,0.8187 1.1875,1.2188 0.83968,0.8251 1.7059,1.6032 2.625,2.3437 0.30662,0.2474 0.62253,0.4813 0.9375,0.7188 0.43142,0.3253 0.86597,0.6313 1.3125,0.9375 0.24867,0.1705 0.49679,0.3356 0.75,0.5 0.38192,0.2481 0.76431,0.4848 1.15625,0.7188 0.41613,0.2484 0.823,0.4867 1.25,0.7187 0.65105,0.3544 1.32502,0.685 2,1 0.40188,0.1872 0.80884,0.3897 1.21875,0.5625 0.0511,0.021 0.10501,0.042 0.15625,0.062 0.0511,0.021 0.10505,0.042 0.15625,0.062 0.65884,0.2705 1.32194,0.5176 2,0.75 0.41575,0.1427 0.82745,0.2783 1.25,0.4063 0.53066,0.1604 1.08417,0.3009 1.625,0.4375 0.37229,0.094 0.74814,0.1675 1.125,0.25 0.78302,0.1714 1.57369,0.3484 2.375,0.4687 l 0.0937,0 c 1.75459,0.2589 3.54725,0.4063 5.375,0.4063 0.5483,0 1.08267,-0.01 1.625,-0.031 0.54233,-0.024 1.08915,-0.078 1.625,-0.125 12.32444,-1.0904 22.86273,-8.3124 28.4375,-18.5313 0.48476,-0.8886 0.93615,-1.7869 1.34375,-2.7188 1.019,-2.3296 1.79022,-4.789 2.28125,-7.3437 1.64448,1.4416 3.48158,2.6767 5.46875,3.6562 0.33076,0.1638 0.66114,0.3195 1,0.4688 0.68081,0.2991 1.38299,0.5738 2.09375,0.8125 0.34887,0.1212 0.70649,0.2419 1.0625,0.3437 0.009,0 0.0218,-0 0.0312,0 0.35123,0.1001 0.70514,0.1965 1.0625,0.2813 0.77608,0.1843 1.57329,0.3278 2.375,0.4375 0.3338,0.05 0.65906,0.093 1,0.125 0.0105,10e-4 0.0208,-10e-4 0.0312,0 0.37409,0.035 0.74625,0.045 1.125,0.062 0.39984,0.019 0.81436,0.031 1.21875,0.031 0.43052,-4e-4 0.85596,-0.01 1.28125,-0.031 0.4151,-0.021 0.84054,-0.053 1.25,-0.094 0.0103,-10e-4 0.0211,10e-4 0.0312,0 0.62919,-0.065 1.22924,-0.1708 1.84375,-0.2813 0.19607,-0.037 0.39659,-0.054 0.59375,-0.094 0.01,-0 0.0213,0 0.0312,0 0.81119,-0.1667 1.59454,-0.3816 2.375,-0.625 0.38524,-0.1198 0.77855,-0.237 1.15625,-0.375 0.009,-0 0.0222,0 0.0312,0 0.37302,-0.1367 0.72935,-0.3149 1.09375,-0.4687 0.18639,-0.079 0.37846,-0.1667 0.5625,-0.25 0.17571,-0.084 0.3537,-0.1646 0.53125,-0.25 0.008,-0 0.0233,0 0.0312,0 0.35505,-0.1713 0.71707,-0.3439 1.0625,-0.5313 0.008,-0 0.0233,0 0.0312,0 0.25915,-0.1409 0.50257,-0.3084 0.75,-0.4687 0.0825,-0.053 0.16615,-0.1054 0.25,-0.1563 0.35058,-0.2126 0.69225,-0.4271 1.03125,-0.6562 0.32815,-0.2251 0.65181,-0.4506 0.96875,-0.6875 0.007,-0 0.0247,0 0.0312,0 0.31327,-0.2347 0.60463,-0.4699 0.90625,-0.7188 0.006,-0 0.0254,0 0.0312,0 0.30194,-0.2496 0.58525,-0.5492 0.875,-0.8125 0.29518,-0.2683 0.593,-0.5305 0.875,-0.8125 0.56389,-0.5648 1.11705,-1.1646 1.625,-1.7812 0.50795,-0.6166 0.98964,-1.2421 1.4375,-1.9063 0.44786,-0.6642 0.86639,-1.3549 1.25,-2.0625 0.28809,-0.5313 0.56297,-1.0709 0.8125,-1.625 0.16684,-0.3702 0.31981,-0.7453 0.46875,-1.125 0.0241,-0.061 0.0389,-0.1258 0.0625,-0.1875 0.15782,-0.412 0.30115,-0.8278 0.4375,-1.25 0.1334,-0.413 0.26263,-0.828 0.375,-1.25 0.0194,-0.073 0.0438,-0.1457 0.0625,-0.2187 0.11461,-0.4483 0.22243,-0.9174 0.3125,-1.375 0.0103,-0.052 0.0213,-0.1043 0.0312,-0.1563 0.0576,-0.3025 0.10967,-0.5999 0.15625,-0.9062 0.01,-0.062 0.0222,-0.125 0.0312,-0.1875 0.0462,-0.32 0.0598,-0.6451 0.0937,-0.9688 0.0364,-0.3541 0.0723,-0.704 0.0937,-1.0625 0.0333,-0.5302 0.0625,-1.0552 0.0625,-1.5937 0,-7.984 -3.75842,-15.08842 -9.59375,-19.65627 -0.007,-0.005 -0.0247,0.005 -0.0312,0 -1.34911,-1.05399 -2.79343,-1.98739 -4.34375,-2.75 0.40111,-0.45313 0.80644,-0.90443 1.1875,-1.375 0.38105,-0.47057 0.7334,-0.95015 1.09375,-1.4375 2.52242,-3.41145 4.53014,-7.23993 5.90625,-11.34375 0.19657,-0.58626 0.39199,-1.18351 0.5625,-1.78125 1.02307,-3.58646 1.5625,-7.36477 1.5625,-11.28125 0,-0.57834 -0.008,-1.14675 -0.0312,-1.71875 -8.5e-4,-0.0207 9e-4,-0.0418 0,-0.0625 -0.0239,-0.55891 -0.079,-1.1034 -0.125,-1.65625 -0.003,-0.0311 0.003,-0.0625 0,-0.0937 -0.0169,-0.19797 -0.0428,-0.3966 -0.0625,-0.59375 -0.0333,-0.33466 -0.0539,-0.66807 -0.0937,-1 -0.007,-0.0532 -0.0245,-0.10315 -0.0312,-0.15625 -0.0605,-0.47072 -0.11145,-0.94072 -0.1875,-1.40625 -0.005,-0.0322 -0.0247,-0.0618 -0.0312,-0.0937 -0.012,-0.0723 -0.0188,-0.14655 -0.0312,-0.21875 -0.0379,-0.22052 -0.0836,-0.43695 -0.125,-0.65625 -0.049,-0.25984 -0.0992,-0.52195 -0.15625,-0.78125 -0.0176,-0.0841 -0.0444,-0.16606 -0.0625,-0.25 -0.0403,-0.18674 -0.0834,-0.3742 -0.125,-0.5625 -0.0622,-0.27025 -0.12001,-0.54432 -0.1875,-0.8125 -0.13574,-0.53853 -0.28069,-1.06396 -0.4375,-1.59375 -0.0338,-0.1145 -0.0589,-0.22967 -0.0937,-0.34375 -0.12449,-0.40736 -0.26952,-0.8169 -0.40625,-1.21875 -0.0462,-0.13592 -0.0774,-0.27098 -0.125,-0.40625 -0.0566,-0.16075 -0.129,-0.30893 -0.1875,-0.46875 -0.0767,-0.21618 -0.13502,-0.43909 -0.21875,-0.65625 -0.0564,-0.14648 -0.12942,-0.29184 -0.1875,-0.4375 -0.14482,-0.36277 -0.2827,-0.73618 -0.4375,-1.09375 -0.0688,-0.15917 -0.14805,-0.31063 -0.21875,-0.46875 -0.01,-0.0215 -0.0213,-0.041 -0.0312,-0.0625 -0.14158,-0.31504 -0.28648,-0.62763 -0.4375,-0.9375 -0.0802,-0.167 -0.1676,-0.33427 -0.25,-0.5 -0.25095,-0.50476 -0.5104,-1.00731 -0.78125,-1.5 -0.53612,-0.97522 -1.10772,-1.91888 -1.71875,-2.84375 -0.1658,-0.2506 -0.32888,-0.50329 -0.5,-0.75 -0.0806,-0.11643 -0.1682,-0.2282 -0.25,-0.34375 -0.0653,-0.0922 -0.12056,-0.19097 -0.1875,-0.28125 -0.0478,-0.0663 -0.10896,-0.12165 -0.15625,-0.1875 -0.11778,-0.164 -0.2213,-0.33748 -0.34375,-0.5 -0.15887,-0.21126 -0.33717,-0.41693 -0.5,-0.625 -0.6841,-0.87416 -1.40486,-1.71603 -2.15625,-2.53125 -0.37626,-0.40822 -0.7639,-0.79483 -1.15625,-1.1875 -0.39122,-0.39154 -0.78079,-0.78069 -1.1875,-1.15625 -0.14603,-0.13466 -0.28952,-0.27369 -0.4375,-0.40625 -0.2626,-0.23558 -0.54386,-0.45865 -0.8125,-0.6875 -0.42322,-0.36053 -0.84346,-0.7191 -1.28125,-1.0625 -0.87106,-0.68324 -1.76183,-1.32513 -2.6875,-1.9375 -0.1055,-0.0697 -0.20633,-0.14995 -0.3125,-0.21875 -0.358,-0.23198 -0.72818,-0.46647 -1.09375,-0.6875 -1.42861,-0.86375 -2.93322,-1.62465 -4.46875,-2.3125 -0.50759,-0.22738 -1.01298,-0.4491 -1.53125,-0.65625 -0.0427,-0.017 -0.0823,-0.0456 -0.125,-0.0625 -1.01399,-0.40126 -2.04201,-0.77263 -3.09375,-1.09375 l -0.125,-0.40625 c 7.09574,-5.16038 11.71875,-13.52365 11.71875,-22.96875 0,-14.71914 -11.21835,-26.82501 -25.5625,-28.25 l -0.0312,0 0,-0.0625 -0.875,0 c -0.63882,-0.043 -1.25655,-0.0625 -1.90625,-0.0625 z m -174.5625,1.21875 c 23.75594,-0.18073 41.9375,2.6875 41.9375,2.6875 0,0 2.98358,34.31291 -9.65625,47.96875 -22.27051,24.06068 -64.72988,48.33234 -93.156245,30.9375 -17.46728,-10.68868 -21.67515,-44.1074 -9.65625,-60.6875 12.04266,-16.61291 43.607895,-20.70142 70.531245,-20.90625 z m 85.96875,0 c 27.84356,-0.23837 62.43644,3.3161 75.1875,20.90625 12.0189,16.5801 7.81102,49.99882 -9.65625,60.6875 -28.42638,17.39484 -70.85447,-6.87682 -93.125,-30.9375 -12.63982,-13.65584 -9.65625,-47.96875 -9.65625,-47.96875 0,0 15.59387,-2.50211 37.25,-2.6875 z m -102.4375,16.28125 -2.71875,21.5 -30.562495,-21.0625 12.999995,22.375 -22.562495,-14.25 9.90625,16.34375 -10.65625,-3.625 -0.59375,10.21875 c 0,0 23.608005,-4.28348 38.468745,-4.0625 -1.44218,1.43099 -2.40887,3.40556 -2.53125,5.59375 -0.26268,4.69625 2.92873,8.76857 7.625,9.03125 4.69629,0.26268 9.14359,-3.3975 9.40625,-8.09375 0.0855,-1.53016 -0.23698,-3.00123 -0.875,-4.28125 5.62013,1.60493 10.8125,3.53125 10.8125,3.53125 l 21.65625,-13.59375 -21.625,6.03125 5.03125,-19.125 -16.875,15.65625 -6.90625,-22.1875 z m 123.59375,0 -6.9375,22.1875 -16.875,-15.65625 5.03125,19.125 -21.59375,-6.03125 21.65625,13.59375 c 0,0 5.19237,-1.92632 10.8125,-3.53125 -0.63802,1.28002 -0.99175,2.75109 -0.90625,4.28125 0.26266,4.69625 4.74121,8.35643 9.4375,8.09375 4.69627,-0.26268 7.85643,-4.335 7.59375,-9.03125 -0.12238,-2.18819 -1.05782,-4.16276 -2.5,-5.59375 14.86074,-0.22098 38.46875,4.0625 38.46875,4.0625 l -0.59375,-10.21875 -10.6875,3.625 9.9375,-16.34375 -22.59375,14.25 13.03125,-22.375 -30.59375,21.0625 -2.6875,-21.5 z m -22.28125,97 c -2.33367,0 -4.21875,1.88508 -4.21875,4.21875 0,2.33367 1.88508,4.21875 4.21875,4.21875 2.33367,0 4.21875,-1.88508 4.21875,-4.21875 0,-2.33367 -1.88508,-4.21875 -4.21875,-4.21875 z m -51,6.875 c -0.2797,-0.0199 -0.55396,0.007 -0.8125,0.0312 -8.95471,0.85281 -14.41192,11.66907 -21.84375,15.81252 -17.46366,2.7374 -12.1774,13.5329 0,21.4687 9.6018,5.7412 21.96895,2.625 33.15625,2.625 11.18734,0 23.52321,3.1162 33.125,-2.625 6.23075,-3.7256 13.1875,-17.3437 13.1875,-17.3437 0,0 -8.8696,-1.7177 -13.1875,-4.125 -7.43182,-4.14345 -12.92028,-14.95971 -21.875,-15.81252 -4.13669,-0.39397 -11.25,5.25 -11.25,5.25 0,0 -6.30453,-4.98266 -10.5,-5.28125 z m -27.46875,20.03122 c 6.34313,-0.052 16.37425,2.1798 21.34375,1.9375 5.58698,-0.2723 11.02155,-1.6562 16.625,-1.6562 5.60345,0 11.00678,1.3839 16.59375,1.6562 7.22839,0.3524 25.14739,-4.467 26.875,0 0.46026,1.1901 -8.42467,1.3498 -10.28125,1.6875 -10.6783,1.9422 -22.07908,4.25 -33.1875,4.25 -11.10839,0 -22.57172,-2.3078 -33.25,-4.25 -6.70227,0.8633 -16.42733,-3.4492 -4.71875,-3.625 z"
       id="rect3335"
       inkscape:connector-curvature="0" />
  </g>
</svg>
