<?xml version="1.0" encoding="utf-8"?>
<!-- Generator: Adobe Illustrator 18.0.0, SVG Export Plug-In . SVG Version: 6.00 Build 0)  -->
<!DOCTYPE svg PUBLIC "-//W3C//DTD SVG 1.1//EN" "http://www.w3.org/Graphics/SVG/1.1/DTD/svg11.dtd">
<svg version="1.1" id="Layer_2" xmlns="http://www.w3.org/2000/svg" xmlns:xlink="http://www.w3.org/1999/xlink" x="0px" y="0px"
	 width="90px" height="87px" viewBox="0 0 90 87" style="enable-background:new 0 0 90 87;" xml:space="preserve">
<g>
	<g>
		<path d="M41.8,21.9c0.2,0,0.5,0,0.7-0.1v-5c-16.3,1.2-29.2,14.9-29.2,31.5c0,4.7,1.1,9.2,2.9,13.3C12.9,56.4,11,50.2,11,43.5
			c0-17.9,13.9-32.7,31.5-33.9v-5c-0.1,0-0.2,0-0.3,0C22.9,5.9,7.3,21.6,6,41c-1,16.2,7.8,30.4,21.1,37.3c2.7,1.4,6-0.5,6-3.6
			c0-1.4-0.8-2.8-2-3.5C22.8,66,17.4,56.5,18.4,45.9C19.5,33.5,29.4,23.3,41.8,21.9z"/>
		<path d="M47.5,4.6v5C65.1,10.9,79,25.6,79,43.5c0,7.4-2.4,14.2-6.4,19.8c2.4-4.5,3.8-9.6,3.8-15c0-16.6-12.8-30.1-29-31.5v5
			c13.4,1.3,24,12.7,24,26.5c0,9.6-5.1,18.1-12.8,22.7c-1.3,0.8-2.1,2.1-2.1,3.6v0c0,3.1,3.3,5.1,6.1,3.7C75.4,71.9,84,58.7,84,43.5
			C84,22.8,67.9,5.9,47.5,4.6z"/>
	</g>
	<polygon points="47.5,29.4 47.5,60.7 50.6,57.6 50.6,38.1 61.8,49.4 47.5,63.7 47.5,63.7 47.5,69.4 67.5,49.4 	"/>
	<polygon points="25.3,46.6 23.2,44.5 20.4,47.3 22.5,49.4 20.4,51.5 23.2,54.3 25.3,52.2 37.3,64.2 37.3,58.5 28.2,49.4 39.4,38.1 
		39.4,66.3 42.5,69.4 42.5,29.4 	"/>
	<path d="M54.9,71.3c-10.4,2.9-12.5,10.8,1.6,10c0.7,0,1.2-1.2,0.4-1.4c-3.6-0.7-4.5-5-1.2-7.5C56.3,72.1,55.6,71.1,54.9,71.3z"/>
	<path d="M35.1,71.3c10.4,2.9,12.5,10.8-1.6,10c-0.7,0-1.2-1.2-0.4-1.4c3.6-0.7,4.5-5,1.2-7.5C33.7,72.1,34.4,71.1,35.1,71.3z"/>
</g>
</svg>
