<?xml version="1.0" encoding="UTF-8" standalone="no"?>
<!-- Created with Inkscape (http://www.inkscape.org/) -->

<svg
   xmlns:dc="http://purl.org/dc/elements/1.1/"
   xmlns:cc="http://creativecommons.org/ns#"
   xmlns:rdf="http://www.w3.org/1999/02/22-rdf-syntax-ns#"
   xmlns:svg="http://www.w3.org/2000/svg"
   xmlns="http://www.w3.org/2000/svg"
   xmlns:xlink="http://www.w3.org/1999/xlink"
   xmlns:sodipodi="http://sodipodi.sourceforge.net/DTD/sodipodi-0.dtd"
   xmlns:inkscape="http://www.inkscape.org/namespaces/inkscape"
   width="756.96875"
   height="981.99994"
   id="svg3031"
   version="1.1"
   inkscape:version="0.48.4 r9939"
   sodipodi:docname="Wavey 02.svg">
  <title
     id="title3043">Wave Border</title>
  <sodipodi:namedview
     id="base"
     pagecolor="#ffffff"
     bordercolor="#666666"
     borderopacity="1.0"
     inkscape:pageopacity="0.0"
     inkscape:pageshadow="2"
     inkscape:zoom="1"
     inkscape:cx="385.35596"
     inkscape:cy="357.8528"
     inkscape:document-units="px"
     inkscape:current-layer="layer1"
     showgrid="false"
     inkscape:window-width="1024"
     inkscape:window-height="713"
     inkscape:window-x="-4"
     inkscape:window-y="-4"
     inkscape:window-maximized="1"
     fit-margin-top="0"
     fit-margin-left="0"
     fit-margin-right="0"
     fit-margin-bottom="0" />
  <defs
     id="defs3033">
    <linearGradient
       id="linearGradient3104">
      <stop
         id="stop3106"
         offset="0"
         stop-color="#444444" />
      <stop
         id="stop3108"
         offset="0.020408"
         stop-color="#6c6c6c" />
      <stop
         id="stop3110"
         offset="0.040816"
         stop-color="#cccccc" />
      <stop
         id="stop3112"
         offset="0.061224"
         stop-color="#c3c3c3" />
      <stop
         id="stop3114"
         offset="0.081633"
         stop-color="#5d5d5d" />
      <stop
         id="stop3116"
         offset="0.102041"
         stop-color="#242424" />
      <stop
         id="stop3118"
         offset="0.122449"
         stop-color="#6b6b6b" />
      <stop
         id="stop3120"
         offset="0.142857"
         stop-color="#cccccc" />
      <stop
         id="stop3122"
         offset="0.163265"
         stop-color="#c1c1c1" />
      <stop
         id="stop3124"
         offset="0.183673"
         stop-color="#5b5b5b" />
      <stop
         id="stop3126"
         offset="0.204082"
         stop-color="#252525" />
      <stop
         id="stop3128"
         offset="0.22449"
         stop-color="#6e6e6e" />
      <stop
         id="stop3130"
         offset="0.244898"
         stop-color="#d7d7d7" />
      <stop
         id="stop3132"
         offset="0.265306"
         stop-color="#aeaeae" />
      <stop
         id="stop3134"
         offset="0.285714"
         stop-color="#464646" />
      <stop
         id="stop3136"
         offset="0.306122"
         stop-color="#2c2c2c" />
      <stop
         id="stop3138"
         offset="0.326531"
         stop-color="#878787" />
      <stop
         id="stop3140"
         offset="0.346939"
         stop-color="#d7d7d7" />
      <stop
         id="stop3142"
         offset="0.367347"
         stop-color="#acacac" />
      <stop
         id="stop3144"
         offset="0.387755"
         stop-color="#434343" />
      <stop
         id="stop3146"
         offset="0.408163"
         stop-color="#2d2d2d" />
      <stop
         id="stop3148"
         offset="0.428571"
         stop-color="#898989" />
      <stop
         id="stop3150"
         offset="0.44898"
         stop-color="#d8d8d8" />
      <stop
         id="stop3152"
         offset="0.469388"
         stop-color="#979797" />
      <stop
         id="stop3154"
         offset="0.489796"
         stop-color="#343434" />
      <stop
         id="stop3156"
         offset="0.510204"
         stop-color="#343434" />
      <stop
         id="stop3158"
         offset="0.530612"
         stop-color="#979797" />
      <stop
         id="stop3160"
         offset="0.55102"
         stop-color="#dadada" />
      <stop
         id="stop3162"
         offset="0.571429"
         stop-color="#9e9e9e" />
      <stop
         id="stop3164"
         offset="0.591837"
         stop-color="#393939" />
      <stop
         id="stop3166"
         offset="0.612245"
         stop-color="#343434" />
      <stop
         id="stop3168"
         offset="0.632653"
         stop-color="#979797" />
      <stop
         id="stop3170"
         offset="0.653061"
         stop-color="#dadada" />
      <stop
         id="stop3172"
         offset="0.673469"
         stop-color="#9b9b9b" />
      <stop
         id="stop3174"
         offset="0.693878"
         stop-color="#2c2c2c" />
      <stop
         id="stop3176"
         offset="0.714286"
         stop-color="#464646" />
      <stop
         id="stop3178"
         offset="0.734694"
         stop-color="#aeaeae" />
      <stop
         id="stop3180"
         offset="0.755102"
         stop-color="#d6d6d6" />
      <stop
         id="stop3182"
         offset="0.77551"
         stop-color="#838383" />
      <stop
         id="stop3184"
         offset="0.795918"
         stop-color="#2b2b2b" />
      <stop
         id="stop3186"
         offset="0.816327"
         stop-color="#484848" />
      <stop
         id="stop3188"
         offset="0.836735"
         stop-color="#b1b1b1" />
      <stop
         id="stop3190"
         offset="0.857143"
         stop-color="#d6d6d6" />
      <stop
         id="stop3192"
         offset="0.877551"
         stop-color="#808080" />
      <stop
         id="stop3194"
         offset="0.897959"
         stop-color="#292929" />
      <stop
         id="stop3196"
         offset="0.918367"
         stop-color="#4a4a4a" />
      <stop
         id="stop3198"
         offset="0.938776"
         stop-color="#c4c4c4" />
      <stop
         id="stop3200"
         offset="0.959184"
         stop-color="#cccccc" />
      <stop
         id="stop3202"
         offset="0.979592"
         stop-color="#6c6c6c" />
      <stop
         id="stop3204"
         offset="1"
         stop-color="#3a3a3a" />
    </linearGradient>
    <linearGradient
       inkscape:collect="always"
       xlink:href="#linearGradient3104"
       id="linearGradient4035"
       x1="26.015625"
       y1="103.362"
       x2="746.98438"
       y2="1021.3621"
       gradientUnits="userSpaceOnUse" />
  </defs>
  <metadata
     id="metadata3036">
    <rdf:RDF>
      <cc:Work
         rdf:about="">
        <dc:format>image/svg+xml</dc:format>
        <dc:type
           rdf:resource="http://purl.org/dc/dcmitype/StillImage" />
        <dc:title>Wave Border</dc:title>
        <dc:creator>
          <cc:Agent>
            <dc:title>Arvin61r58</dc:title>
          </cc:Agent>
        </dc:creator>
        <dc:publisher>
          <cc:Agent>
            <dc:title>Openclipart.org</dc:title>
          </cc:Agent>
        </dc:publisher>
        <dc:source>http://openclipart.org/user-detail/Arvin61r58</dc:source>
        <dc:description>sinewave border</dc:description>
        <dc:subject>
          <rdf:Bag>
            <rdf:li>frame</rdf:li>
            <rdf:li>border</rdf:li>
            <rdf:li>wave</rdf:li>
            <rdf:li>sine wave</rdf:li>
            <rdf:li>sinewave</rdf:li>
            <rdf:li>gradient</rdf:li>
          </rdf:Bag>
        </dc:subject>
        <cc:license
           rdf:resource="http://creativecommons.org/licenses/publicdomain/" />
      </cc:Work>
      <cc:License
         rdf:about="http://creativecommons.org/licenses/publicdomain/">
        <cc:permits
           rdf:resource="http://creativecommons.org/ns#Reproduction" />
        <cc:permits
           rdf:resource="http://creativecommons.org/ns#Distribution" />
        <cc:permits
           rdf:resource="http://creativecommons.org/ns#DerivativeWorks" />
      </cc:License>
    </rdf:RDF>
  </metadata>
  <g
     transform="translate(-4.015625,-66.362035)"
     id="layer1"
     inkscape:groupmode="layer"
     inkscape:label="Layer 1">
    <path
       id="path8655"
       style="fill:url(#linearGradient4035);fill-opacity:1;stroke:none"
       d="m 70.015625,66.362285 c -3.6048,0.09751 -13.1879,5.552287 -17.2188,14.78125 -2.3843,5.459228 -3.9497,10.37225 -4.5624,10.71875 -0.6127,0.3465 -6.2667,-1.02328 -12.8126,-2.15625 -10.8857,-1.88408 -18.3137,3.07983 -20.3437,6.875 l -0.3437,-0.21875 c -1.8433,3.09902 -2.393,13.733455 3.0312,22.218745 3.2086,5.01931 6.4897,9.04808 6.4375,9.75 -0.052,0.70192 -4.208,4.62561 -9.125,9.09375 -8.177,7.43037 -10.9678,11.01939 -10.6563,15.3125 l -0.4062,0 c 0.097,3.60481 4.4411,9.4922 11.9375,16.21875 4.4343,3.97895 8.0625,7.82731 8.0625,8.53125 0,0.70393 -4.0205,4.93811 -8.9375,9.40625 -8.177,7.43037 -10.9678,10.98814 -10.6563,15.28125 l -0.4062,0 c 0.097,3.60481 4.4411,9.52345 11.9375,16.25 4.4343,3.97895 8.0625,7.82731 8.0625,8.53125 0,0.70393 -4.0205,4.90687 -8.9375,9.375 -8.177,7.43038 -10.9678,11.01939 -10.6563,15.3125 l -0.4062,0 c 0.097,3.60481 4.4411,9.52345 11.9375,16.25 4.4343,3.97895 8.0625,7.79606 8.0625,8.5 0,0.70393 -4.0205,4.93812 -8.9375,9.40625 -8.177,7.43038 -10.9678,11.01939 -10.6563,15.3125 l -0.4062,0 c 0.097,3.60481 4.4411,9.4922 11.9375,16.21875 4.4343,3.97895 8.0625,7.82731 8.0625,8.53125 0,0.70393 -4.0205,4.93812 -8.9375,9.40625 -8.177,7.43038 -10.9678,10.98814 -10.6563,15.28125 l -0.4062,0 c 0.097,3.60481 4.4411,9.52346 11.9375,16.25 4.4343,3.97896 8.0625,7.82731 8.0625,8.53125 0,0.70393 -4.0205,4.90687 -8.9375,9.375 -8.177,7.43038 -10.9678,11.01939 -10.6563,15.3125 l -0.4062,0 c 0.097,3.6048 4.4411,9.49221 11.9375,16.21875 4.4343,3.97896 8.0625,7.82731 8.0625,8.53125 0,0.70393 -4.0205,4.93812 -8.9375,9.40625 -8.177,7.43038 -10.9678,11.01939 -10.6563,15.3125 l -0.4062,0 c 0.097,3.6048 4.4411,9.49221 11.9375,16.21875 4.4343,3.97896 8.0625,7.82731 8.0625,8.53125 0,0.70393 -4.0205,4.90687 -8.9375,9.375 -8.177,7.43038 -10.9678,11.01939 -10.6563,15.3125 l -0.4062,0 c 0.097,3.6048 4.4411,9.52346 11.9375,16.25 4.4343,3.97896 8.0625,7.79606 8.0625,8.5 0,0.70392 -4.0205,4.93812 -8.9375,9.40625 -8.177,7.43037 -10.9678,11.0194 -10.6563,15.3125 l -0.4062,0 c 0.097,3.60481 4.4411,9.4922 11.9375,16.21875 4.4343,3.97895 8.0625,7.82732 8.0625,8.53125 0,0.70393 -4.0205,4.93811 -8.9375,9.40625 -8.177,7.43037 -10.9678,10.98814 -10.6563,15.28125 l -0.4062,0 c 0.097,3.60481 4.4411,9.52345 11.9375,16.25 4.4343,3.97895 8.0625,7.82731 8.0625,8.53125 0,0.70393 -4.0205,4.90686 -8.9375,9.375 -8.177,7.43037 -10.9678,11.01939 -10.6563,15.3125 l -0.4062,0 c 0.097,3.60481 4.4411,9.52345 11.9375,16.25 4.4343,3.97895 8.0625,7.79606 8.0625,8.5 0,0.70393 -4.0205,4.93811 -8.9375,9.40625 -8.177,7.43037 -10.9678,11.01939 -10.6563,15.3125 l -0.4062,0 c 0.097,3.60481 4.4411,9.4922 11.9375,16.21875 4.4343,3.97895 8.0625,7.82731 8.0625,8.53125 0,0.70393 -4.0205,4.93812 -8.9375,9.40625 -8.177,7.43038 -10.9678,10.98814 -10.6563,15.28125 l -0.4062,0 c 0.097,3.60481 4.4411,9.52345 11.9375,16.25 4.4343,3.97895 8.0625,7.82731 8.0625,8.53125 0,0.70393 -4.0205,4.90687 -8.9375,9.375 -8.177,7.43038 -10.9678,11.01939 -10.6563,15.3125 l -0.4062,0 c 0.097,3.60481 4.4411,9.4922 11.9375,16.21875 4.4343,3.97895 8.0625,7.82731 8.0625,8.53125 0,0.70393 -4.0205,4.93812 -8.9375,9.40625 -8.177,7.43038 -10.9678,11.01939 -10.6563,15.3125 l -0.4062,0 c 0.097,3.60481 4.4411,9.49221 11.9375,16.21875 4.4343,3.97896 8.0625,7.82731 8.0625,8.53125 0,0.70393 -4.0205,4.90687 -8.9375,9.375 -8.177,7.43038 -10.9678,11.01939 -10.6563,15.3125 l -0.4062,0 c 0.097,3.6048 4.4411,9.52346 11.9375,16.25 4.4343,3.97896 8.0625,7.79606 8.0625,8.5 0,0.70393 -4.0205,4.93812 -8.9375,9.40625 -8.177,7.43038 -10.9678,11.01939 -10.6563,15.3125 l -0.4062,0 c 0.097,3.6048 4.4411,9.49221 11.9375,16.21875 4.4344,3.97896 8.0625,7.82731 8.0625,8.53125 0,0.70392 -4.0204,4.93812 -8.9375,9.40625 -8.1769,7.43037 -10.2481,14.506 -9,18.625 l -0.4063,0.0937 c 0.888,3.49467 8.3204,11.94397 18.25,13.62497 5.8736,0.9943 11.0407,1.5293 11.5,2.0625 0.4594,0.5333 0.2159,6.3446 0.7188,12.9688 0.8365,11.0158 6.6018,16.8701 10.7188,18.125 l -0.1563,0.375 c 3.3978,1.2068 14.5904,-0.3922 21.5,-7.7188 4.0871,-4.334 7.9211,-8.0312 8.625,-8.0312 0.7039,0 4.9381,4.0205 9.4063,8.9375 7.4303,8.177 11.0194,10.9678 15.312405,10.6562 l 0,0.4063 c 3.6049,-0.098 9.4922,-4.4411 16.2188,-11.9375 3.97889,-4.4343 7.8273,-8.0625 8.5312,-8.0625 0.70389,0 4.90679,4.0205 9.37499,8.9375 7.4303,8.177 11.0195,10.9678 15.3126,10.6562 l 0,0.4063 c 3.6048,-0.098 9.5235,-4.4411 16.25,-11.9375 3.97901,-4.4343 7.7961,-8.0625 8.5,-8.0625 0.7038,0 4.9381,4.0205 9.4062,8.9375 7.4304,8.177 11.01941,10.9678 15.3125,10.6562 l 0,0.4063 c 3.6048,-0.098 9.49221,-4.4411 16.2187,-11.9375 3.97901,-4.4343 7.82731,-8.0625 8.5313,-8.0625 0.7039,0 4.938,4.0205 9.4063,8.9375 7.4303,8.177 10.98811,10.9678 15.2812,10.6562 l 0,0.4063 c 3.6048,-0.098 9.52351,-4.4411 16.25,-11.9375 3.97896,-4.4343 7.82731,-8.0625 8.53125,-8.0625 0.70394,0 4.90688,4.0205 9.375,8.9375 7.43039,8.177 11.0194,10.9678 15.3125,10.6562 l 0,0.4063 c 3.60482,-0.098 9.52346,-4.4411 16.25,-11.9375 3.97897,-4.4343 7.79606,-8.0625 8.5,-8.0625 0.70394,0 4.93813,4.0205 9.40625,8.9375 7.43039,8.177 11.0194,10.9678 15.3125,10.6562 l 0,0.4063 c 3.6048,-0.098 9.49221,-4.4411 16.21875,-11.9375 3.97896,-4.4343 7.82731,-8.0625 8.53125,-8.0625 0.70394,0 4.93813,4.0205 9.40625,8.9375 7.43039,8.177 10.98814,10.9678 15.28125,10.6562 l 0,0.4063 c 3.6048,-0.098 9.52346,-4.4411 16.25,-11.9375 3.97896,-4.4343 7.82731,-8.0625 8.53125,-8.0625 0.70392,0 4.90688,4.0205 9.375,8.9375 7.43037,8.177 11.01939,10.9678 15.3125,10.6562 l 0,0.4063 c 3.6048,-0.098 9.49221,-4.4411 16.21875,-11.9375 3.97895,-4.4343 7.82732,-8.0625 8.53125,-8.0625 0.70394,0 4.93813,4.0205 9.40625,8.9375 7.43037,8.177 11.01941,10.9678 15.3125,10.6562 l 0,0.4063 c 3.60481,-0.098 9.49221,-4.4411 16.21875,-11.9375 3.97895,-4.4343 7.82731,-8.0625 8.53125,-8.0625 0.70394,0 4.90687,4.0205 9.375,8.9375 7.43038,8.177 11.01939,10.9678 15.3125,10.6562 l 0,0.4063 c 3.60482,-0.098 9.52346,-4.4411 16.25,-11.9375 3.97895,-4.4343 7.79606,-8.0625 8.5,-8.0625 0.70394,0 4.93813,4.0205 9.40625,8.9375 7.43039,8.177 11.01939,10.9678 15.3125,10.6562 l 0,0.4063 c 3.60482,-0.098 9.49221,-4.4411 16.21875,-11.9375 3.97895,-4.4343 7.82731,-8.0625 8.53125,-8.0625 0.70394,0 4.93812,4.0205 9.40625,8.9375 7.43038,8.177 10.98814,10.9678 15.28125,10.6562 l 0,0.4063 c 3.60481,-0.098 9.52346,-4.4411 16.25,-11.9375 3.97897,-4.4343 7.82731,-8.0625 8.53125,-8.0625 0.70394,0 4.90688,4.0205 9.375,8.9375 7.43039,8.177 11.01939,10.9678 15.3125,10.6562 l 0,0.4063 0,0.031 c 3.60482,-0.098 13.18785,-5.5523 17.21875,-14.7813 2.38441,-5.4592 3.94983,-10.3722 4.5625,-10.7187 0.61266,-0.3465 6.26657,1.0232 12.8125,2.1562 10.88569,1.8841 18.31376,-3.0799 20.34375,-6.875 l 0.34375,0.2188 c 1.84326,-3.099 2.39294,-13.7335 -3.03125,-22.21877 -3.20858,-5.0193 -6.48972,-9.048 -6.4375,-9.75 0.0522,-0.70187 4.17669,-4.62562 9.09375,-9.09375 8.17693,-7.43038 10.96785,-11.01939 10.65625,-15.3125 l 0.40625,0 c -0.0975,-3.6048 -4.44111,-9.52346 -11.9375,-16.25 -4.43435,-3.97896 -8.0625,-7.79606 -8.0625,-8.5 0,-0.70393 4.02044,-4.93812 8.9375,-9.40625 8.17693,-7.43038 10.96785,-11.01939 10.65625,-15.3125 l 0.40625,0 c -0.0975,-3.6048 -4.44111,-9.49221 -11.9375,-16.21875 -4.43435,-3.97896 -8.0625,-7.82731 -8.0625,-8.53125 0,-0.70392 4.02044,-4.93812 8.9375,-9.40625 8.17693,-7.43037 10.96785,-10.98815 10.65625,-15.28125 l 0.40625,0 c -0.0975,-3.60481 -4.44111,-9.52346 -11.9375,-16.25 -4.43435,-3.97895 -8.0625,-7.82732 -8.0625,-8.53125 0,-0.70393 4.02044,-4.90686 8.9375,-9.375 8.17693,-7.43037 10.96785,-11.0194 10.65625,-15.3125 l 0.40625,0 c -0.0975,-3.60481 -4.44111,-9.4922 -11.9375,-16.21875 -4.43435,-3.97895 -8.0625,-7.82731 -8.0625,-8.53125 0,-0.70393 4.02044,-4.93811 8.9375,-9.40625 8.17693,-7.43037 10.96785,-10.98814 10.65625,-15.28125 l 0.40625,0 c -0.0975,-3.60481 -4.44111,-9.52345 -11.9375,-16.25 -4.43435,-3.97895 -8.0625,-7.82731 -8.0625,-8.53125 0,-0.70393 4.02044,-4.90686 8.9375,-9.375 8.17693,-7.43037 10.96785,-11.01939 10.65625,-15.3125 l 0.40625,0 c -0.0975,-3.60481 -4.44111,-9.52345 -11.9375,-16.25 -4.43435,-3.97895 -8.0625,-7.79606 -8.0625,-8.5 0,-0.70393 4.02044,-4.93812 8.9375,-9.40625 8.17693,-7.43038 10.96785,-11.01939 10.65625,-15.3125 l 0.40625,0 c -0.0975,-3.60481 -4.44111,-9.4922 -11.9375,-16.21875 -4.43435,-3.97895 -8.0625,-7.82731 -8.0625,-8.53125 0,-0.70393 4.02044,-4.93812 8.9375,-9.40625 8.17693,-7.43038 10.96785,-10.98814 10.65625,-15.28125 l 0.40625,0 c -0.0975,-3.60481 -4.44111,-9.52345 -11.9375,-16.25 -4.43435,-3.97895 -8.0625,-7.82731 -8.0625,-8.53125 0,-0.70393 4.02044,-4.90687 8.9375,-9.375 8.17693,-7.43038 10.96785,-11.01939 10.65625,-15.3125 l 0.40625,0 c -0.0975,-3.60481 -4.44111,-9.52346 -11.9375,-16.25 -4.43435,-3.97896 -8.0625,-7.79606 -8.0625,-8.5 0,-0.70393 4.02044,-4.93812 8.9375,-9.40625 8.17693,-7.43038 10.96785,-11.01939 10.65625,-15.3125 l 0.40625,0 c -0.0975,-3.6048 -4.44111,-9.49221 -11.9375,-16.21875 -4.43435,-3.97896 -8.0625,-7.82731 -8.0625,-8.53125 0,-0.70393 4.02044,-4.90687 8.9375,-9.375 8.17693,-7.43038 10.96785,-11.01939 10.65625,-15.3125 l 0.40625,0 c -0.0975,-3.6048 -4.44111,-9.52346 -11.9375,-16.25 -4.43435,-3.97896 -8.0625,-7.82731 -8.0625,-8.53125 0,-0.70392 4.02044,-4.90687 8.9375,-9.375 8.17693,-7.43037 10.96785,-11.01939 10.65625,-15.3125 l 0.40625,0 c -0.0975,-3.6048 -4.44111,-9.49221 -11.9375,-16.21875 -4.43435,-3.97895 -8.0625,-7.82731 -8.0625,-8.53125 0,-0.70392 4.02044,-4.93812 8.9375,-9.40625 8.17693,-7.43037 10.96785,-10.98815 10.65625,-15.28125 l 0.40625,0 c -0.0975,-3.60481 -4.44111,-9.52345 -11.9375,-16.25 -4.43435,-3.97895 -8.0625,-7.82732 -8.0625,-8.53125 0,-0.70393 4.02044,-4.90686 8.9375,-9.375 8.17693,-7.43037 10.96785,-11.01939 10.65625,-15.3125 l 0.40625,0 c -0.0975,-3.60481 -4.44111,-9.52345 -11.9375,-16.25 -4.43435,-3.97895 -8.0625,-7.79606 -8.0625,-8.5 0,-0.70393 4.02044,-4.93811 8.9375,-9.40625 8.17693,-7.43037 10.96785,-11.01939 10.65625,-15.3125 l 0.40625,0 c -0.0975,-3.60481 -4.44111,-9.4922 -11.9375,-16.21875 -4.43435,-3.97895 -8.0625,-7.82731 -8.0625,-8.53125 0,-0.70393 4.02044,-4.93811 8.9375,-9.40625 8.17693,-7.43037 10.96785,-10.98814 10.65625,-15.28125 l 0.40625,0 c -0.0975,-3.60481 -4.44111,-9.52345 -11.9375,-16.25 -4.43435,-3.97895 -8.0625,-7.82731 -8.0625,-8.53125 0,-0.70393 4.02044,-4.90687 8.9375,-9.375 8.17693,-7.43038 10.96785,-11.01939 10.65625,-15.3125 l 0.40625,0 c -0.0975,-3.60481 -4.44111,-9.52345 -11.9375,-16.25 -4.43435,-3.97895 -8.0625,-7.79606 -8.0625,-8.5 0,-0.70393 4.02044,-4.93812 8.9375,-9.40625 8.17693,-7.43038 10.27942,-14.50599 9.03125,-18.625 l 0.40625,-0.0937 c -0.88795,-3.49472 -8.32043,-11.94401 -18.25,-13.625 -5.87364,-0.99435 -11.04058,-1.56048 -11.5,-2.09375 -0.45939,-0.53326 -0.21577,-6.313305 -0.71875,-12.937495 -0.83644,-11.015827 -6.60177,-16.87012 -10.71875,-18.125 l 0.15625,-0.375 c -3.39782,-1.206798 -14.59049,0.392084 -21.5,7.71875 -4.08718,4.333958 -7.92106,8 -8.625,8 -0.70393,0 -4.93812,-4.02043 -9.40625,-8.9375 -7.43038,-8.17693 -11.01938,-10.96785 -15.3125,-10.65625 l 0,-0.40625 c -3.6048,0.09751 -9.49221,4.44112 -16.21875,11.9375 -3.97896,4.43435 -7.82731,8.0625 -8.53125,8.0625 -0.70393,0 -4.90687,-4.02043 -9.375,-8.9375 -7.43038,-8.17693 -11.01938,-10.96785 -15.3125,-10.65625 l 0,-0.40625 c -3.6048,0.09751 -9.52346,4.44112 -16.25,11.9375 -3.97895,4.43435 -7.79606,8.0625 -8.5,8.0625 -0.70393,0 -4.93812,-4.02043 -9.40625,-8.9375 -7.43038,-8.17693 -11.01938,-10.96785 -15.3125,-10.65625 l 0,-0.40625 c -3.60481,0.09751 -9.4922,4.44112 -16.21875,11.9375 -3.97894,4.43435 -7.82731,8.0625 -8.53125,8.0625 -0.70393,0 -4.93812,-4.02043 -9.40625,-8.9375 -7.43038,-8.17693 -10.98813,-10.96785 -15.28125,-10.65625 l 0,-0.40625 c -3.6048,0.09751 -9.52345,4.44112 -16.25,11.9375 -3.97895,4.43435 -7.82731,8.0625 -8.53125,8.0625 -0.70393,0 -4.90687,-4.02043 -9.375,-8.9375 -7.43038,-8.17693 -11.01938,-10.96785 -15.3125,-10.65625 l 0,-0.40625 c -3.6048,0.09751 -9.52346,4.44112 -16.25,11.9375 -3.97895,4.43435 -7.79606,8.0625 -8.5,8.0625 -0.70393,0 -4.93812,-4.02043 -9.40625,-8.9375 -7.43038,-8.17693 -11.01938,-10.96785 -15.3125,-10.65625 l 0,-0.40625 c -3.6048,0.09751 -9.49221,4.44112 -16.21875,11.9375 -3.97895,4.43435 -7.82731,8.0625 -8.53125,8.0625 -0.70393,0 -4.93812,-4.02043 -9.40625,-8.9375 -7.43038,-8.17693 -10.98813,-10.96785 -15.28125,-10.65625 l 0,-0.40625 c -3.6048,0.09751 -9.52346,4.44112 -16.25,11.9375 -3.97895,4.43435 -7.82731,8.0625 -8.53125,8.0625 -0.70392,0 -4.90687,-4.02043 -9.375,-8.9375 -7.43037,-8.17693 -11.01939,-10.96785 -15.3125,-10.65625 l 0,-0.40625 c -3.60479,0.09751 -9.49221,4.44112 -16.21875,11.9375 -3.97895,4.43435 -7.82731,8.0625 -8.53125,8.0625 -0.70393,0 -4.93812,-4.02043 -9.40625,-8.9375 -7.43037,-8.17693 -11.0194,-10.96785 -15.3125,-10.65625 l 0,-0.40625 c -3.60479,0.09751 -9.4921,4.44112 -16.2187,11.9375 -3.97889,4.43435 -7.8273,8.0625 -8.5313,8.0625 -0.70389,0 -4.90679,-4.02043 -9.375,-8.9375 -7.4303,-8.17693 -11.0194,-10.96785 -15.3125,-10.65625 l 0,-0.40625 c -3.60479,0.09751 -9.5235,4.44112 -16.25,11.9375 -3.979,4.43435 -7.7961,8.0625 -8.5,8.0625 -0.70389,0 -4.93809,-4.02043 -9.4062,-8.9375 -7.43039,-8.17693 -11.0195,-10.96785 -15.3126,-10.65625 l 0,-0.40625 c -3.60479,0.09751 -9.4922,4.44112 -16.2187,11.9375 -3.979,4.43435 -7.8273,8.0625 -8.5313,8.0625 -0.7038,0 -4.93809,-4.02043 -9.4062,-8.9375 -7.43039,-8.17693 -10.9881,-10.96785 -15.2812,-10.65625 l 0,-0.40625 c -3.6049,0.09751 -9.52359,4.44112 -16.25,11.9375 -3.979095,4.43435 -7.827395,8.0625 -8.531295,8.0625 -0.704,0 -4.9069,-4.02043 -9.375,-8.9375 -7.4304,-8.17693 -11.0194,-10.96785 -15.3125,-10.65625 l 0,-0.40625 z m 0,12 c 0.01,-4.5e-4 0.0242,0 0.0312,0 0.703,0 2.4903,1.42451 4,3.1875 8.1408,9.506539 12.0981,13.28627 15.6876,14.9375 2.1898,1.00734 4.5481,1.83165 5.25,1.84375 3.57,0.0614 8.503395,-3.53209 15.562405,-11.34375 4.297,-4.755009 8.30769,-8.625 8.9063,-8.625 0.01,0 0.0263,-5.3e-4 0.0313,0 0.01,-4.5e-4 0.0242,0 0.0312,0 0.70299,0 2.4903,1.42451 4,3.1875 8.1407,9.506539 12.09799,13.28627 15.68749,14.9375 2.1898,1.00734 4.5481,1.83165 5.25,1.84375 3.57011,0.0614 8.50341,-3.53209 15.5625,-11.34375 4.29691,-4.755009 8.2763,-8.625 8.875,-8.625 0,0 0.0263,-5.3e-4 0.0312,0 0.01,-4.5e-4 0.0243,0 0.0313,0 0.703,0 2.5214,1.42451 4.0313,3.1875 8.1406,9.506539 12.0667,13.28627 15.6562,14.9375 2.1898,1.00734 4.5794,1.83165 5.2812,1.84375 3.5702,0.0614 8.47231,-3.53209 15.5313,-11.34375 4.29691,-4.755009 8.3075,-8.625 8.9063,-8.625 0.01,0 0.0262,-5.3e-4 0.0312,0 0.01,-4.5e-4 0.0242,0 0.0312,0 0.7029,0 2.49031,1.42451 4,3.1875 8.14081,9.506539 12.098,13.28627 15.6876,14.9375 2.1898,1.00734 4.548,1.83165 5.25,1.84375 3.5701,0.0614 8.5033,-3.53209 15.5624,-11.34375 4.29701,-4.755009 8.27639,-8.625 8.87505,-8.625 0.005,0 0.0261,-5.3e-4 0.0312,0 0.008,-4.5e-4 0.0239,0 0.0312,0 0.70297,0 2.52152,1.42451 4.03125,3.1875 8.14075,9.506539 12.09799,13.28627 15.6875,14.9375 2.1898,1.00734 4.54809,1.83165 5.25,1.84375 3.57014,0.0614 8.47217,-3.53209 15.53125,-11.34375 4.2969,-4.755009 8.30758,-8.625 8.90625,-8.625 0.005,0 0.0261,-5.3e-4 0.0312,0 0.008,-4.5e-4 0.0239,0 0.0312,0 0.70297,0 2.49028,1.42451 4,3.1875 8.14075,9.506539 12.09799,13.28627 15.6875,14.9375 2.1898,1.00734 4.5481,1.83165 5.25,1.84375 3.57014,0.0614 8.50343,-3.53209 15.5625,-11.34375 4.2969,-4.755009 8.30758,-8.625 8.90625,-8.625 0.005,0 0.026,-5.3e-4 0.0312,0 0.008,-4.5e-4 0.0238,0 0.0312,0 0.70297,0 2.49028,1.42451 4,3.1875 8.14075,9.506539 12.09799,13.28627 15.6875,14.9375 2.18979,1.00734 4.5481,1.83165 5.25,1.84375 3.57014,0.0614 8.50344,-3.53209 15.5625,-11.34375 4.29691,-4.755009 8.27633,-8.625 8.875,-8.625 0.005,0 0.026,-5.3e-4 0.0312,0 0.008,-4.5e-4 0.0238,0 0.0312,0 0.70297,0 2.52154,1.42451 4.03125,3.1875 8.14076,9.506539 12.06674,13.28627 15.65625,14.9375 2.18979,1.00734 4.57935,1.83165 5.28125,1.84375 3.57014,0.0614 8.47219,-3.53209 15.53125,-11.34375 4.2969,-4.755009 8.30758,-8.625 8.90625,-8.625 0.005,0 0.026,-5.3e-4 0.0312,0 0.008,-4.5e-4 0.0238,0 0.0312,0 0.70297,0 2.49029,1.42451 4,3.1875 8.14076,9.506539 12.09799,13.28627 15.6875,14.9375 2.18979,1.00734 4.5481,1.83165 5.25,1.84375 3.57014,0.0614 8.50344,-3.53209 15.5625,-11.34375 4.2969,-4.755009 8.30758,-8.625 8.90625,-8.625 0.005,0 0.026,-5.3e-4 0.0312,0 0.008,-4.5e-4 0.0238,0 0.0312,0 0.70297,0 2.49029,1.42451 4,3.1875 8.14076,9.506539 12.09799,13.28627 15.6875,14.9375 2.18979,1.00734 4.5481,1.83165 5.25,1.84375 3.57013,0.0614 8.50344,-3.53209 15.5625,-11.34375 4.2969,-4.755009 8.27633,-8.625 8.875,-8.625 0.005,0 0.026,-5.3e-4 0.0312,0 0.008,-4.5e-4 0.0238,0 0.0312,0 0.70298,0 2.52154,1.42451 4.03125,3.1875 8.14075,9.506539 12.06674,13.28627 15.65625,14.9375 2.18979,1.00734 4.54811,1.83165 5.25,1.84375 3.57014,0.0614 8.50343,-3.53209 15.5625,-11.34375 4.2969,-4.755009 8.30758,-8.625 8.90625,-8.625 0.005,0 0.026,-5.3e-4 0.0312,0 0.008,-4.5e-4 0.0239,0 0.0312,0 0.70298,0 2.49029,1.42451 4,3.1875 8.14075,9.506539 12.09799,13.28627 15.6875,14.9375 2.18979,1.00734 4.5481,1.83165 5.25,1.84375 3.57014,0.0614 8.50343,-3.53209 15.5625,-11.34375 4.2969,-4.755009 8.27633,-8.625 8.875,-8.625 0.005,0 0.026,-5.3e-4 0.0312,0 0.008,-4.5e-4 0.0239,0 0.0312,0 0.70298,0 2.52154,1.42451 4.03125,3.1875 8.14075,9.506539 12.098,13.28627 15.6875,14.9375 2.1898,1.00734 4.5481,1.83165 5.25,1.84375 3.57014,0.0614 6.39159,-4.08113 14.6875,-10.5625 5.04977,-3.945249 10.25404,-6.153026 10.8125,-5.9375 0.004,0.0017 0.0265,-0.0024 0.0312,0 0.008,0.0024 0.0243,0.02855 0.0312,0.03125 0.65576,0.253076 1.89645,2.308035 2.5625,4.53125 3.59147,11.98818 1.38194,16.079705 2.84375,19.749995 0.89179,2.23908 0.83233,3.42913 1.28125,3.96875 2.28342,2.74464 6.06189,1.30463 16.0625,4.59375 6.08743,2.00212 10.71208,5.10355 10.84375,5.6875 10e-4,0.005 -0.001,0.026 0,0.0312 0.002,0.008 0.0293,0.0241 0.0312,0.0312 0.15462,0.68569 -0.81171,3.0034 -2.375,4.71875 -8.42968,9.2496 -12.78627,12.16049 -14.4375,15.75 -1.00734,2.18979 -1.83165,4.57936 -1.84375,5.28125 -0.0614,3.57013 3.53209,8.47219 11.34375,15.53125 4.75501,4.2969 8.625,8.30759 8.625,8.90625 0,0.005 5.3e-4,0.026 0,0.0312 4.5e-4,0.008 0,0.0239 0,0.0312 0,0.70298 -1.42451,2.49029 -3.1875,4 -9.50654,8.14076 -13.28627,12.09799 -14.9375,15.6875 -1.00734,2.18979 -1.83165,4.54811 -1.84375,5.25 -0.0614,3.57014 3.53209,8.50343 11.34375,15.5625 4.75501,4.2969 8.625,8.30758 8.625,8.90625 0,0.005 5.3e-4,0.026 0,0.0312 4.5e-4,0.008 0,0.0239 0,0.0312 0,0.70298 -1.42451,2.49029 -3.1875,4 -9.50654,8.14075 -13.28627,12.09799 -14.9375,15.6875 -1.00734,2.18979 -1.83165,4.5481 -1.84375,5.25 -0.0614,3.57014 3.53209,8.50343 11.34375,15.5625 4.75501,4.2969 8.625,8.27633 8.625,8.875 0,0.005 5.3e-4,0.026 0,0.0312 4.5e-4,0.008 0,0.0239 0,0.0312 0,0.70298 -1.42451,2.52154 -3.1875,4.03125 -9.50654,8.14075 -13.28627,12.06674 -14.9375,15.65625 -1.00734,2.18979 -1.83165,4.57935 -1.84375,5.28125 -0.0614,3.57014 3.53209,8.47218 11.34375,15.53125 4.75501,4.2969 8.625,8.30758 8.625,8.90625 0,0.005 5.3e-4,0.026 0,0.0312 4.5e-4,0.008 0,0.0239 0,0.0312 0,0.70297 -1.42451,2.49029 -3.1875,4 -9.50654,8.14075 -13.28627,12.098 -14.9375,15.6875 -1.00734,2.1898 -1.83165,4.5481 -1.84375,5.25 -0.0614,3.57014 3.53209,8.50343 11.34375,15.5625 4.75501,4.2969 8.625,8.30758 8.625,8.90625 0,0.005 5.3e-4,0.026 0,0.0312 4.5e-4,0.008 0,0.0238 0,0.0312 0,0.70297 -1.42451,2.49028 -3.1875,4 -9.50654,8.14075 -13.28627,12.09799 -14.9375,15.6875 -1.00734,2.1898 -1.83165,4.5481 -1.84375,5.25 -0.0614,3.57014 3.53209,8.50343 11.34375,15.5625 4.75501,4.2969 8.625,8.27633 8.625,8.875 0,0.005 5.3e-4,0.026 0,0.0312 4.5e-4,0.008 0,0.0238 0,0.0312 0,0.70297 -1.42451,2.52153 -3.1875,4.03125 -9.50654,8.14075 -13.28627,12.06674 -14.9375,15.65625 -1.00734,2.18979 -1.83165,4.5481 -1.84375,5.25 -0.0614,3.57014 3.53209,8.50344 11.34375,15.5625 4.75501,4.29691 8.625,8.30758 8.625,8.90625 0,0.005 5.3e-4,0.026 0,0.0312 4.5e-4,0.008 0,0.0238 0,0.0312 0,0.70297 -1.42451,2.49029 -3.1875,4 -9.50654,8.14076 -13.28627,12.09799 -14.9375,15.6875 -1.00734,2.18979 -1.83165,4.5481 -1.84375,5.25 -0.0614,3.57014 3.53209,8.50344 11.34375,15.5625 4.75501,4.29691 8.625,8.27633 8.625,8.875 0,0.005 5.3e-4,0.026 0,0.0312 4.5e-4,0.008 0,0.0238 0,0.0312 0,0.70297 -1.42451,2.52154 -3.1875,4.03125 -9.50654,8.14076 -13.28627,12.06674 -14.9375,15.65625 -1.00734,2.18979 -1.83165,4.57935 -1.84375,5.28125 -0.0614,3.57014 3.53209,8.47219 11.34375,15.53125 4.75501,4.2969 8.625,8.30758 8.625,8.90625 0,0.005 5.3e-4,0.026 0,0.0312 4.5e-4,0.008 0,0.0238 0,0.0312 0,0.70297 -1.42451,2.49029 -3.1875,4 -9.50654,8.14076 -13.28627,12.09799 -14.9375,15.6875 -1.00734,2.18979 -1.83165,4.5481 -1.84375,5.25 -0.0614,3.57013 3.53209,8.50344 11.34375,15.5625 4.75501,4.2969 8.625,8.30758 8.625,8.90625 0,0.005 5.3e-4,0.0261 0,0.0312 4.5e-4,0.008 0,0.0239 0,0.0312 0,0.70297 -1.42451,2.49029 -3.1875,4 -9.50654,8.14076 -13.28627,12.09799 -14.9375,15.6875 -1.00734,2.18979 -1.83165,4.54811 -1.84375,5.25 -0.0614,3.57014 3.53209,8.50343 11.34375,15.5625 4.75501,4.2969 8.625,8.27633 8.625,8.875 0,0.005 5.3e-4,0.0261 0,0.0312 4.5e-4,0.008 0,0.0239 0,0.0312 0,0.70298 -1.42451,2.52154 -3.1875,4.03125 -9.50654,8.14075 -13.28627,12.06674 -14.9375,15.65625 -1.00734,2.18979 -1.83165,4.57936 -1.84375,5.28125 -0.0614,3.57014 3.53209,8.47218 11.34375,15.53125 4.75501,4.2969 8.625,8.30758 8.625,8.90625 0,0.005 5.3e-4,0.0261 0,0.0312 4.5e-4,0.008 0,0.0239 0,0.0312 0,0.70298 -1.42451,2.49029 -3.1875,4 -9.50654,8.14075 -13.28627,12.09799 -14.9375,15.6875 -1.00734,2.18979 -1.83165,4.5481 -1.84375,5.25 -0.0614,3.57014 3.53209,8.50343 11.34375,15.5625 4.75501,4.2969 8.625,8.30758 8.625,8.90625 0,0.005 5.3e-4,0.0261 0,0.0312 4.5e-4,0.008 0,0.0239 0,0.0312 0,0.70298 -1.42451,2.49029 -3.1875,4 -9.50654,8.14075 -13.28627,12.098 -14.9375,15.6875 -1.00734,2.1898 -1.83165,4.5481 -1.84375,5.25 -0.0614,3.57014 3.53209,8.47218 11.34375,15.53125 4.75501,4.2969 8.625,8.30758 8.625,8.90625 0,0.005 5.3e-4,0.0261 0,0.0312 4.5e-4,0.008 0,0.0239 0,0.0312 0,0.70297 -1.42451,2.52153 -3.1875,4.03125 -9.50654,8.14075 -13.28627,12.06675 -14.9375,15.65625 -1.00734,2.1898 -1.83165,4.5481 -1.84375,5.25 -0.0614,3.57014 3.53209,8.50343 11.34375,15.5625 4.75501,4.2969 8.625,8.30758 8.625,8.90625 0,0.005 5.3e-4,0.0261 0,0.0312 4.5e-4,0.008 0,0.0239 0,0.0312 0,0.70297 -1.42451,2.49028 -3.1875,4 -9.50654,8.14075 -13.28627,12.09799 -14.9375,15.6875 -1.00734,2.1898 -1.83165,4.5481 -1.84375,5.25 -0.0614,3.57014 3.53209,8.50343 11.34375,15.5625 4.75501,4.2969 8.625,8.27633 8.625,8.875 0,0.005 5.3e-4,0.0261 0,0.0312 4.5e-4,0.008 0,0.0239 0,0.0312 0,0.70297 -1.42451,2.52153 -3.1875,4.03125 -9.50654,8.14075 -13.28627,12.06674 -14.9375,15.65625 -1.00734,2.18979 -1.83165,4.57935 -1.84375,5.28125 -0.0614,3.57014 3.53209,8.47219 11.34375,15.53125 4.75501,4.29691 8.625,8.30758 8.625,8.90625 0,0.005 5.3e-4,0.0261 0,0.0312 4.5e-4,0.008 0,0.0239 0,0.0312 0,0.70297 -1.42451,2.49029 -3.1875,4 -9.50654,8.14076 -13.28627,12.09799 -14.9375,15.6875 -1.00734,2.18979 -1.93586,3.36351 -2,4.0625 -0.32613,3.55537 3.62427,4.695 7.90625,14.31247 2.60647,5.8542 3.72606,11.3378 3.40625,11.8438 -0.003,0 -0.028,0.027 -0.0312,0.031 -0.004,0.01 0.004,0.025 0,0.031 -0.37553,0.5942 -2.77541,1.5174 -5.09375,1.625 -12.50114,0.5797 -16.27044,-2.1194 -20.15625,-1.4063 -2.37054,0.4351 -2.89877,-0.3002 -3.53125,0 -3.21695,1.5486 -2.6393,5.8734 -8.25,14.7813 -3.41527,5.4222 -7.37033,9.3289 -7.96875,9.3437 -0.005,2e-4 -0.11977,0 -0.125,0 -0.008,5e-4 -0.0239,0 -0.0312,0 -0.70298,0 -2.49029,-1.4245 -4,-3.1875 -8.14075,-9.5065 -12.09799,-13.2862 -15.6875,-14.9375 -2.18979,-1.0073 -4.54811,-1.8316 -5.25,-1.8437 -3.57014,-0.061 -8.50343,3.5321 -15.5625,11.3437 -4.2969,4.7551 -8.30758,8.625 -8.90625,8.625 -0.005,0 -0.026,6e-4 -0.0312,0 -0.008,5e-4 -0.0239,0 -0.0312,0 -0.70298,0 -2.49029,-1.4245 -4,-3.1875 -8.14075,-9.5065 -12.09799,-13.2862 -15.6875,-14.9375 -2.18979,-1.0073 -4.5481,-1.8316 -5.25,-1.8437 -3.57014,-0.061 -8.50343,3.5321 -15.5625,11.3437 -4.2969,4.7551 -8.27633,8.625 -8.875,8.625 -0.005,0 -0.026,6e-4 -0.0312,0 -0.008,5e-4 -0.0238,0 -0.0312,0 -0.70297,0 -2.52154,-1.4245 -4.03125,-3.1875 -8.14075,-9.5065 -12.06675,-13.2862 -15.65625,-14.9375 -2.1898,-1.0073 -4.57935,-1.8316 -5.28125,-1.8437 -3.57014,-0.061 -8.47218,3.5321 -15.53125,11.3437 -4.2969,4.7551 -8.30758,8.625 -8.90625,8.625 -0.005,0 -0.026,6e-4 -0.0312,0 -0.008,5e-4 -0.0238,0 -0.0312,0 -0.70298,0 -2.49029,-1.4245 -4,-3.1875 -8.14075,-9.5065 -12.098,-13.2862 -15.6875,-14.9375 -2.1898,-1.0073 -4.5481,-1.8316 -5.25,-1.8437 -3.57014,-0.061 -8.50343,3.5321 -15.5625,11.3437 -4.2969,4.7551 -8.27633,8.625 -8.875,8.625 -0.005,0 -0.026,6e-4 -0.0312,0 -0.008,5e-4 -0.0238,0 -0.0312,0 -0.70297,0 -2.52153,-1.4245 -4.03125,-3.1875 -8.14075,-9.5065 -12.098,-13.2862 -15.6875,-14.9375 -2.1898,-1.0073 -4.5481,-1.8316 -5.25,-1.8437 -3.57014,-0.061 -8.47218,3.5321 -15.53125,11.3437 -4.2969,4.7551 -8.30758,8.625 -8.90625,8.625 -0.005,0 -0.026,6e-4 -0.0312,0 -0.008,5e-4 -0.0238,0 -0.0312,0 -0.70297,0 -2.52153,-1.4245 -4.03125,-3.1875 -8.14075,-9.5065 -12.06674,-13.2862 -15.65625,-14.9375 -2.1898,-1.0073 -4.5481,-1.8316 -5.25,-1.8437 -3.57014,-0.061 -8.50343,3.5321 -15.5625,11.3437 -4.2969,4.7551 -8.30758,8.625 -8.90625,8.625 -0.005,0 -0.026,6e-4 -0.0312,0 -0.008,5e-4 -0.0238,0 -0.0312,0 -0.70297,0 -2.49028,-1.4245 -4,-3.1875 -8.14075,-9.5065 -12.09799,-13.2862 -15.6875,-14.9375 -2.18979,-1.0073 -4.5481,-1.8316 -5.25,-1.8437 -3.57014,-0.061 -8.50344,3.5321 -15.5625,11.3437 -4.29691,4.7551 -8.27633,8.625 -8.875,8.625 -0.005,0 -0.026,6e-4 -0.0312,0 -0.008,5e-4 -0.0238,0 -0.0312,0 -0.70297,0 -2.52154,-1.4245 -4.03125,-3.1875 -8.14076,-9.5065 -12.06674,-13.2862 -15.65625,-14.9375 -2.18979,-1.0073 -4.57935,-1.8316 -5.28125,-1.8437 -3.57014,-0.061 -8.47219,3.5321 -15.53125,11.3437 -4.29691,4.7551 -8.30758,8.625 -8.90625,8.625 -0.005,0 -0.0261,6e-4 -0.0312,0 -0.008,5e-4 -0.0239,0 -0.0312,0 -0.70298,0 -2.49029,-1.4245 -4,-3.1875 -8.14076,-9.5065 -12.09799,-13.2862 -15.6875,-14.9375 -2.18979,-1.0073 -4.5481,-1.8316 -5.25,-1.8437 -3.57015,-0.061 -8.50351,3.5321 -15.5625,11.3437 -4.29691,4.7551 -8.3075,8.625 -8.9063,8.625 0,0 -0.0262,6e-4 -0.0312,0 -0.01,5e-4 -0.0243,0 -0.0312,0 -0.7029,0 -2.49031,-1.4245 -4,-3.1875 -8.14081,-9.5065 -12.098,-13.2862 -15.6876,-14.9375 -2.1898,-1.0073 -4.548,-1.8316 -5.25,-1.8437 -3.57001,-0.061 -8.50341,3.5321 -15.5624,11.3437 -4.29701,4.7551 -8.2763,8.625 -8.875,8.625 0,0 -0.0263,6e-4 -0.0313,0 -0.01,5e-4 -0.0242,0 -0.0313,0 -0.7029,0 -2.5214,-1.4245 -4.0312,-3.1875 -8.14071,-9.5065 -12.0667,-13.2862 -15.6562,-14.9375 -2.1899,-1.0073 -4.5482,-1.8316 -5.25,-1.8437 -3.5702,-0.061 -8.5036,3.5321 -15.5626,11.3437 -4.29691,4.7551 -8.3075,8.625 -8.9062,8.625 -0.01,0 -0.0263,6e-4 -0.0312,0 -0.01,5e-4 -0.0243,0 -0.0313,0 -0.7029,0 -2.49031,-1.4245 -4,-3.1875 -8.1408,-9.5065 -12.098,-13.2862 -15.6875,-14.9375 -2.1898,-1.0073 -4.5481,-1.8316 -5.25,-1.8437 -3.5701,-0.061 -8.5034,3.5321 -15.5625,11.3437 -4.29691,4.7551 -8.2764,8.625 -8.875,8.625 -0.01,0 -0.0263,6e-4 -0.0313,0 -0.01,5e-4 -0.0242,0 -0.0312,0 -0.703,0 -2.521505,-1.4245 -4.031205,-3.1875 -8.1407,-9.5065 -12.098,-13.2862 -15.6876,-14.9375 -2.1898,-1.0073 -4.5481,-1.8316 -5.25,-1.8437 -3.5701,-0.061 -6.3915,4.1124 -14.6874,10.5937 -5.0499,3.9453 -10.254,6.153 -10.8126,5.9375 0,0 -0.0262,-0.03 -0.0312,-0.031 -0.01,0 -0.0242,10e-4 -0.0312,0 -0.6558,-0.2531 -1.8965,-2.308 -2.5626,-4.5312 -3.5914,-11.9882 -1.3819,-16.0797 -2.8437,-19.75 -0.8918,-2.2391 -0.8323,-3.4292 -1.2813,-3.9688 -2.2834,-2.7447 -6.0619,-1.3046 -16.0624,-4.5937 -6.0874,-2.00212 -10.7121,-5.13487 -10.8438,-5.71877 0,0 0,-0.0263 0,-0.0312 0,-0.01 -0.0312,-0.0242 -0.0312,-0.0312 -0.1547,-0.6857 0.8116,-3.00335 2.375,-4.71875 8.4296,-9.24955 12.7549,-12.16049 14.4062,-15.75 1.0073,-2.18979 1.8317,-4.5481 1.8438,-5.25 0.0609,-3.57014 -3.5322,-8.50343 -11.3438,-15.5625 -4.7551,-4.2969 -8.625,-8.27633 -8.625,-8.875 0,-0.005 -6e-4,-0.026 0,-0.0312 -5e-4,-0.008 0,-0.0238 0,-0.0312 0,-0.70297 1.4245,-2.52153 3.1875,-4.03125 9.5065,-8.14075 13.2862,-12.06674 14.9375,-15.65625 1.0073,-2.18979 1.8317,-4.57935 1.8438,-5.28125 0.0609,-3.57014 -3.5322,-8.47219 -11.3438,-15.53125 -4.7551,-4.29691 -8.625,-8.30758 -8.625,-8.90625 0,-0.005 -6e-4,-0.026 0,-0.0312 -5e-4,-0.008 0,-0.0238 0,-0.0312 0,-0.70297 1.4245,-2.49029 3.1875,-4 9.5065,-8.14076 13.2862,-12.09799 14.9375,-15.6875 1.0073,-2.18979 1.8317,-4.5481 1.8438,-5.25 0.0609,-3.57014 -3.5322,-8.50344 -11.3438,-15.5625 -4.7551,-4.2969 -8.625,-8.30758 -8.625,-8.90625 -5e-4,-0.008 0,-0.0238 0,-0.0312 0,-0.70297 1.4245,-2.52154 3.1875,-4.03125 9.5065,-8.14076 13.2862,-12.09799 14.9375,-15.6875 1.0073,-2.18979 1.8317,-4.5481 1.8438,-5.25 0.0609,-3.57013 -3.5322,-8.47219 -11.3438,-15.53125 -4.7551,-4.2969 -8.625,-8.30758 -8.625,-8.90625 0,-0.005 -6e-4,-0.026 0,-0.0312 -5e-4,-0.008 0,-0.0238 0,-0.0312 0,-0.70297 1.4245,-2.52154 3.1875,-4.03125 9.5065,-8.14076 13.2862,-12.06674 14.9375,-15.65625 1.0073,-2.18979 1.8317,-4.5481 1.8438,-5.25 0.0609,-3.57013 -3.5322,-8.50344 -11.3438,-15.5625 -4.7551,-4.2969 -8.625,-8.30758 -8.625,-8.90625 0,-0.005 -6e-4,-0.026 0,-0.0312 -5e-4,-0.008 0,-0.0238 0,-0.0312 0,-0.70298 1.4245,-2.49029 3.1875,-4 9.5065,-8.14075 13.2862,-12.09799 14.9375,-15.6875 1.0073,-2.18979 1.8317,-4.54811 1.8438,-5.25 0.0609,-3.57014 -3.5322,-8.50343 -11.3438,-15.5625 -4.7551,-4.2969 -8.625,-8.27633 -8.625,-8.875 0,-0.005 -6e-4,-0.026 0,-0.0312 -5e-4,-0.008 0,-0.0238 0,-0.0312 0,-0.70298 1.4245,-2.52154 3.1875,-4.03125 9.5065,-8.14075 13.2862,-12.06674 14.9375,-15.65625 1.0073,-2.18979 1.8317,-4.57935 1.8438,-5.28125 0.0609,-3.57014 -3.5322,-8.47218 -11.3438,-15.53125 -4.7551,-4.2969 -8.625,-8.30758 -8.625,-8.90625 0,-0.005 -6e-4,-0.026 0,-0.0312 -5e-4,-0.008 0,-0.0238 0,-0.0312 0,-0.70298 1.4245,-2.49029 3.1875,-4 9.5065,-8.14075 13.2862,-12.098 14.9375,-15.6875 1.0073,-2.1898 1.8317,-4.5481 1.8438,-5.25 0.0609,-3.57014 -3.5322,-8.50343 -11.3438,-15.5625 -4.7551,-4.2969 -8.625,-8.30758 -8.625,-8.90625 0,-0.005 -6e-4,-0.026 0,-0.0312 -5e-4,-0.008 0,-0.0238 0,-0.0312 0,-0.70297 1.4245,-2.49029 3.1875,-4 9.5065,-8.14075 13.2862,-12.098 14.9375,-15.6875 1.0073,-2.1898 1.8317,-4.5481 1.8438,-5.25 0.0609,-3.57014 -3.5322,-8.50343 -11.3438,-15.5625 -4.7551,-4.2969 -8.625,-8.27633 -8.625,-8.875 0,-0.005 -6e-4,-0.026 0,-0.0312 -5e-4,-0.008 0,-0.0239 0,-0.0312 0,-0.70297 1.4245,-2.52153 3.1875,-4.03125 9.5065,-8.14075 13.2862,-12.06674 14.9375,-15.65625 1.0073,-2.1898 1.8317,-4.57935 1.8438,-5.28125 0.0609,-3.57014 -3.5322,-8.47218 -11.3438,-15.53125 -4.7551,-4.2969 -8.625,-8.30758 -8.625,-8.90625 0,-0.005 -6e-4,-0.026 0,-0.0312 -5e-4,-0.008 0,-0.0239 0,-0.0312 0,-0.70297 1.4245,-2.49028 3.1875,-4 9.5065,-8.14075 13.2862,-12.09799 14.9375,-15.6875 1.0073,-2.18979 1.8317,-4.5481 1.8438,-5.25 0.0609,-3.57014 -3.5322,-8.50344 -11.3438,-15.5625 -4.7551,-4.29691 -8.625,-8.27633 -8.625,-8.875 0,-0.005 -6e-4,-0.026 0,-0.0312 -5e-4,-0.008 0,-0.0239 0,-0.0312 0,-0.70297 1.4245,-2.52154 3.1875,-4.03125 9.5065,-8.14076 13.2862,-12.09799 14.9375,-15.6875 1.0073,-2.18979 1.8317,-4.5481 1.8438,-5.25 0.0609,-3.57014 -3.5322,-8.47219 -11.3438,-15.53125 -4.7551,-4.2969 -8.625,-8.30758 -8.625,-8.90625 0,-0.005 -6e-4,-0.026 0,-0.0312 -5e-4,-0.008 0,-0.0239 0,-0.0312 0,-0.70297 1.4245,-2.52154 3.1875,-4.03125 9.5065,-8.14076 13.2862,-12.06674 14.9375,-15.65625 1.0073,-2.18979 1.8317,-4.5481 1.8438,-5.25 0.0609,-3.57014 -3.5322,-8.50344 -11.3438,-15.5625 -4.7551,-4.2969 -8.625,-8.30758 -8.625,-8.90625 0,-0.005 -6e-4,-0.026 0,-0.0312 -5e-4,-0.008 0,-0.0239 0,-0.0312 0,-0.70297 1.4245,-2.49029 3.1875,-4 9.5065,-8.14076 13.2862,-12.09799 14.9375,-15.6875 1.0073,-2.18979 1.8317,-4.5481 1.8438,-5.25 0.0609,-3.57013 -3.5322,-8.50344 -11.3438,-15.5625 -4.7551,-4.2969 -8.625,-8.27633 -8.625,-8.875 0,-0.005 -6e-4,-0.026 0,-0.0312 -5e-4,-0.008 0,-0.0238 0,-0.0312 0,-0.70297 1.4245,-2.52154 3.1875,-4.03125 9.5065,-8.14076 13.2862,-12.06674 14.9375,-15.65625 1.0073,-2.18979 1.8317,-4.57936 1.8438,-5.28125 0.0609,-3.57014 -3.5322,-8.47218 -11.3438,-15.53125 -4.7551,-4.2969 -8.625,-8.30758 -8.625,-8.90625 0,-0.005 -6e-4,-0.026 0,-0.0312 -5e-4,-0.008 0,-0.0238 0,-0.0312 0,-0.70298 1.4245,-2.49029 3.1875,-4 9.5065,-8.14075 13.2862,-12.09799 14.9375,-15.6875 1.0073,-2.18979 1.8317,-4.54811 1.8438,-5.25 0.0609,-3.57014 -3.5322,-8.50343 -11.3438,-15.5625 -4.7551,-4.2969 -8.625,-8.30758 -8.625,-8.90625 0,-0.005 -6e-4,-0.026 0,-0.0312 -5e-4,-0.008 0,-0.0238 0,-0.0312 0,-0.70298 1.4245,-2.49029 3.1875,-4 9.5065,-8.14075 13.2862,-12.09799 14.9375,-15.6875 1.0073,-2.18979 1.8317,-4.5481 1.8438,-5.25 0.0609,-3.57014 -3.5322,-8.50343 -11.3438,-15.5625 -4.7551,-4.2969 -8.625,-8.27633 -8.625,-8.875 0,-0.005 -6e-4,-0.026 0,-0.0312 -5e-4,-0.008 0,-0.0239 0,-0.0312 0,-0.70298 1.4245,-2.52154 3.1875,-4.03125 9.5065,-8.14075 13.2862,-12.06675 14.9375,-15.65625 1.0073,-2.1898 1.967,-3.3635 2.0312,-4.0625 0.3261,-3.55537 -3.6243,-4.72631 -7.9062,-14.34375 -2.6065,-5.8542 -3.726,-11.30648 -3.4062,-11.8125 0,-0.004 -0.004,-0.0271 0,-0.0312 l 0.0312,0 c 0,-0.007 -0.004,-0.025 0,-0.0312 0.3755,-0.59418 2.7755,-1.51748 5.0938,-1.625 12.501,-0.57977 16.2704,2.11937 20.1562,1.40625 2.3706,-0.43504 2.8988,0.30423 3.5312,0 3.2171,-1.54865 2.6394,-5.873375 8.25,-14.781245 3.4152,-5.422288 7.3703,-9.328919 7.9688,-9.34375 0,-1.18e-4 0.1197,-0.03175 0.125,-0.03125 z"
       inkscape:connector-curvature="0" />
  </g>
</svg>
