<?xml version="1.0" encoding="UTF-8"?>
<!DOCTYPE svg PUBLIC "-//W3C//DTD SVG 1.1//EN" "http://www.w3.org/Graphics/SVG/1.1/DTD/svg11.dtd">
<!-- Creator: Corel DESIGNER X5 -->
<svg xmlns="http://www.w3.org/2000/svg" xml:space="preserve" width="3.5057in" height="3.46954in" style="shape-rendering:geometricPrecision; text-rendering:geometricPrecision; image-rendering:optimizeQuality; fill-rule:evenodd; clip-rule:evenodd"
viewBox="0 0 2869 2839"
 xmlns:xlink="http://www.w3.org/1999/xlink">
 <defs>
  <style type="text/css">
   <![CDATA[
    .str0 {stroke:black;stroke-width:8.02608;stroke-linecap:round}
    .str3 {stroke:black;stroke-width:12.843;stroke-linecap:round}
    .str1 {stroke:black;stroke-width:19.3129;stroke-linecap:round}
    .str2 {stroke:black;stroke-width:8.02608;stroke-linecap:round;stroke-dasharray:27.277731 27.277731}
    .fil0 {fill:none;fill-rule:nonzero}
    .fil1 {fill:black;fill-rule:nonzero}
    .fil2 {fill:white;fill-rule:nonzero}
   ]]>
  </style>
 </defs>
 <g id="Layer_x0020_1">
  <metadata id="CorelCorpID_0Corel-Layer"/>
  <path class="fil0 str0" d="M1473 711l-939 -64m1070 73l524 -166m-511 162l-394 125"/>
  <path class="fil0 str1" d="M530 635l-475 111m-45 11l5 68m0 0l1719 146"/>
  <path class="fil0 str0" d="M10 757l1724 139m0 75l0 -75"/>
  <line class="fil0 str1" x1="1734" y1="971" x2="2165" y2= "952" />
  <path class="fil0 str0" d="M2165 952l0 -74m-432 18l432 -18"/>
  <path class="fil0 str1" d="M2165 952l690 -321m0 0l4 -55"/>
  <line class="fil0 str0" x1="2841" y1="584" x2="2165" y2= "879" />
  <line class="fil0 str1" x1="1734" y1="882" x2="2165" y2= "865" />
  <path class="fil0 str0" d="M2128 554l651 42m62 -12l-30 -2"/>
  <path class="fil0 str1" d="M2165 865l646 -282m-2756 164l-45 11m83 -7l984 80m91 7l565 46"/>
  <line class="fil0 str0" x1="1079" y1="915" x2="1079" y2= "844" />
  <path class="fil0 str1" d="M290 848l115 1497m0 0l168 39m115 27l939 219m197 46l320 75m0 0l20 -23"/>
  <line class="fil0 str0" x1="2144" y1="2752" x2="2162" y2= "1860" />
  <path class="fil0 str1" d="M2442 2084l-10 10m-87 83l-173 166m-349 334l-159 152m0 0l-36 -8m36 8l-8 -907"/>
  <line class="fil0 str0" x1="1664" y1="2830" x2="1656" y2= "1923" />
  <line class="fil0 str1" x1="1628" y1="2821" x2="1620" y2= "1919" />
  <line class="fil0 str0" x1="1656" y1="1923" x2="1620" y2= "1919" />
  <path class="fil0 str1" d="M1518 1743l-53 -8m699 994l18 -883"/>
  <line class="fil0 str0" x1="1824" y1="2677" x2="1822" y2= "1940" />
  <path class="fil0 str1" d="M2189 1790c0,-63 -159,-112 -354,-111 -195,1 -353,52 -352,115"/>
  <path class="fil0 str0" d="M1483 1793c0,63 159,112 354,111 195,-1 353,-52 352,-115"/>
  <path class="fil1" d="M1488 1793c0,31 37,59 100,79l-3 1c-65,-20 -107,-48 -108,-80l11 0z"/>
  <path class="fil1" d="M2084 1870c68,-22 99,-51 99,-80l11 0c0,29 -38,58 -107,81l-3 -1z"/>
  <path class="fil0 str1" d="M1483 1829c0,63 159,112 354,111 195,-1 353,-52 352,-115m-706 3l0 -36m706 33l0 -36m-763 -105l-77 -603"/>
  <path class="fil0 str0" d="M1406 1688c2,12 7,24 15,35 12,17 27,27 41,29m38 6l-38 -6"/>
  <path class="fil0 str1" d="M1426 1685c1,9 5,19 10,27l0 0c8,12 19,22 29,23m1 -787l2 88m-116 28c-7,0 -12,1 -16,5"/>
  <path class="fil0 str0" d="M1336 1069c-5,5 -7,12 -6,21"/>
  <path class="fil1" d="M1339 1073c-5,4 -9,10 -8,17l-4 -1c-1,-9 -2,-19 4,-24l7 8z"/>
  <line class="fil0 str0" x1="1406" y1="1688" x2="1330" y2= "1090" />
  <path class="fil0 str1" d="M1351 1064c-3,5 -4,11 -3,17"/>
  <path class="fil0 str0" d="M1440 1066c7,-5 10,-13 10,-23"/>
  <path class="fil0 str1" d="M1426 1069c5,0 10,-1 14,-3"/>
  <path class="fil1" d="M1437 1061c6,-4 11,-11 11,-20l3 2c0,11 -1,22 -8,27l-6 -9z"/>
  <line class="fil0 str1" x1="1352" y1="1064" x2="1426" y2= "1069" />
  <line class="fil0 str0" x1="1447" y1="947" x2="1449" y2= "1042" />
  <path class="fil0 str1" d="M1458 1060c7,-5 10,-13 10,-23m-14 26c2,-1 3,-1 5,-2m-23 8l19 -6m988 1022l45 -1256m-469 202l-11 185"/>
  <line class="fil0 str2" x1="2008" y1="1214" x2="1985" y2= "1616" />
  <path class="fil0 str0" d="M1987 1689c16,-18 25,-44 27,-69"/>
  <path class="fil0 str1" d="M1985 1616c-4,30 -16,52 -33,68m24 -724l-1 56"/>
  <path class="fil0 str0" d="M2047 1041c0,-7 -2,-13 -6,-15"/>
  <path class="fil0 str1" d="M2041 1026c-4,-3 -9,-2 -15,0"/>
  <path class="fil1" d="M2045 1042c0,-7 -4,-9 -7,-11l6 -9c4,3 5,11 5,18l-3 2z"/>
  <path class="fil0 str0" d="M2047 1041l-10 180m0 0l-23 398m-13 -604c0,7 2,12 6,14"/>
  <path class="fil0 str1" d="M2006 1030c4,2 9,2 13,0"/>
  <path class="fil1" d="M2002 1015c0,6 4,8 7,10l-6 9c-4,-2 -5,-10 -5,-18l3 -2z"/>
  <line class="fil0 str0" x1="2002" y1="959" x2="2000" y2= "1016" />
  <path class="fil0 str1" d="M2020 1029l6 -3m-35 3l19 1m-36 -14c1,5 5,13 17,13"/>
  <polygon class="fil2" points="753,701 753,783 659,783 659,701 "/>
  <polygon class="fil2" points="893,1694 893,1775 799,1775 799,1694 "/>
  <polygon class="fil2" points="2819,833 2819,914 2725,914 2725,833 "/>
  <path class="fil0 str0" d="M2373 750c0,-4 -22,-7 -48,-6 -26,1 -48,5 -48,10 0,4 22,7 48,6 26,-1 48,-5 48,-10z"/>
  <line class="fil0 str0" x1="2171" y1="947" x2="2171" y2= "873" />
  <path class="fil0 str1" d="M689 2411l-18 -223m18 223l-165 106"/>
  <path class="fil0 str0" d="M671 2188c-27,3 -39,30 -37,57 2,27 3,70 -16,117 -19,46 -49,78 -70,87 -21,8 -23,28 -23,40l0 28"/>
  <path class="fil0 str1" d="M641 2181l30 7m-30 -7c-27,3 -40,30 -38,57 2,27 3,70 -16,117 -19,46 -49,78 -70,87 -21,8 -23,28 -23,40l0 28m30 7l-30 -7m1052 -869l-127 -18m127 18l0 32m0 0l-96 57"/>
  <line class="fil0 str0" x1="1545" y1="1640" x2="1433" y2= "1706" />
  <path class="fil0 str1" d="M1761 1611l233 -137m352 704l224 40m-224 -40l0 -204"/>
  <path class="fil0 str0" d="M2345 1974l22 2m202 242l0 -21m0 0c1,-21 -30,-27 -49,-28 -18,-1 -53,-12 -77,-28 -22,-16 -48,-50 -52,-81 -5,-31 5,-82 -24,-84"/>
  <path class="fil0 str1" d="M2569 2218l15 -17m-239 -227l21 -11m0 0l22 2m197 237l0 -22m0 0c1,-21 -29,-26 -47,-27 -18,-1 -52,-11 -75,-28 -21,-15 -46,-48 -51,-79 -4,-30 4,-79 -23,-82"/>
  <line class="fil0 str0" x1="1761" y1="1611" x2="1981" y2= "1635" />
  <path class="fil0 str1" d="M1761 1611l0 35m0 0l203 25"/>
  <line class="fil0 str0" x1="1094" y1="918" x2="1101" y2= "1070" />
  <path class="fil0 str1" d="M1101 1070l-22 10m0 0l-30 -3m-484 -49l-26 -3"/>
  <line class="fil0 str0" x1="1079" y1="1080" x2="927" y2= "903" />
  <line class="fil0 str1" x1="1049" y1="1077" x2="898" y2= "901" />
  <line class="fil0 str0" x1="396" y1="857" x2="565" y2= "1028" />
  <path class="fil0 str1" d="M370 855l169 170m49 -8l-22 10m22 -10l0 -142"/>
  <line class="fil0 str0" x1="2068" y1="957" x2="2065" y2= "1044" />
  <path class="fil0 str1" d="M2094 1046l-30 -2m30 2l103 -109m176 -82l0 32m0 0l31 2m0 0l176 -131m-573 456l-23 401m-1303 -471l24 314m411 61l-23 -329m-412 -46l412 46m-388 268l411 61m-403 -348l20 269m351 52l-19 -281m-352 -40l352 40m-332 229l351 52"/>
  <path class="fil0 str0" d="M2464 715c0,-4 -22,-7 -48,-6 -26,1 -48,5 -48,10 0,4 22,7 48,6 26,-1 48,-5 48,-10zm91 -35c0,-4 -22,-7 -48,-6 -26,1 -48,5 -48,10 0,4 22,7 48,6 26,-1 48,-5 48,-10zm254 -98l-681 -45m0 0l0 17m710 85l2 -55m0 0l18 -8"/>
  <line class="fil0 str1" x1="2859" y1="576" x2="2124" y2= "528" />
  <path class="fil0 str0" d="M2129 537l32 -7m-994 305l961 -298m-5 -9l-1001 303m-43 13l43 -13m-588 -183l-438 103m0 0l-42 -3m479 -99l0 22m0 0l-364 87m1242 -28l-878 -60"/>
  <path class="fil0 str1" d="M530 635l1009 69m-461 125l396 -118m650 -184l-585 177"/>
  <path class="fil0 str3" d="M712 917c-5,-3 -10,-2 -16,0m-21 48c1,3 3,4 5,6 10,6 25,-2 33,-17 9,-15 8,-32 -2,-37m6 -11c-7,-4 -16,-3 -24,1m-30 61c2,7 5,12 10,14 14,8 35,-3 47,-24 12,-21 11,-45 -3,-53m-34 4l0 -27m9 22l0 -22m-9 27c1,5 2,12 8,9m1 -15c0,1 0,4 2,2m-19 60c0,-2 -3,-2 -6,-2 -3,0 -6,2 -6,3"/>
  <path class="fil0 str0" d="M664 968c0,2 3,2 6,2 3,0 6,-2 6,-3"/>
  <path class="fil1" d="M668 968c0,0 -1,1 0,1l-3 2c-2,-1 -4,-1 -4,-2l7 -1z"/>
  <path class="fil1" d="M673 968c1,0 0,-1 0,-1l7 -1c0,1 -2,2 -3,3l-3 -1z"/>
  <path class="fil0 str3" d="M692 919c0,0 2,-1 4,-2m550 50c-5,-3 -10,-2 -16,0m-21 48c1,3 3,4 5,6 10,6 25,-2 33,-17 9,-15 8,-32 -2,-37m6 -11c-7,-4 -16,-3 -24,1m-30 61c2,7 5,12 10,14 14,8 35,-3 47,-24 12,-21 11,-45 -3,-53m-34 4l0 -27m9 22l0 -22m-9 27c1,5 2,12 8,9m1 -15c0,1 0,4 2,2m-19 60c0,-2 -3,-2 -6,-2 -3,0 -6,2 -6,3"/>
  <path class="fil0 str0" d="M1199 1018c0,2 3,2 6,2 3,0 6,-2 6,-3"/>
  <path class="fil1" d="M1202 1017c0,0 -1,1 0,1l-3 2c-2,-1 -4,-1 -4,-2l7 -1z"/>
  <path class="fil1" d="M1207 1018c1,0 0,-1 0,-1l7 -1c0,1 -2,2 -3,3l-3 -1z"/>
  <path class="fil0 str3" d="M1227 969c0,0 2,-1 4,-2"/>
  <path class="fil0 str1" d="M497 2084l835 190m-815 -251l839 189"/>
  <path class="fil0 str0" d="M1397 2289c10,4 23,-7 29,-24 6,-17 4,-34 -6,-38 -10,-4 -23,7 -29,24 -6,17 -4,34 6,38zm90 -156l5 182m0 -4l5 184m-10 -362l-42 -6m-47 89c-8,8 -15,19 -19,30 -8,21 -7,41 0,53m74 184l44 11m-98 -278l87 -84m-107 167l118 194"/>
  <path class="fil0 str1" d="M1357 2211l87 -84m-87 84c-8,8 -15,19 -19,30 -8,21 -7,41 0,54m0 0l116 192m-959 -403c1,0 2,0 2,1"/>
  <path class="fil0 str0" d="M517 2023c-10,-4 -22,7 -28,23 -6,17 -3,33 6,36"/>
  <path class="fil1" d="M487 2069c1,7 5,8 9,9l-4 10c-5,-2 -7,-10 -8,-17l3 -2z"/>
  <path class="fil0 str0" d="M581 1933l3 107m2 65l5 177m-9 -349l-41 -6m-45 86c-8,8 -14,18 -19,29 -8,20 -7,40 0,52m71 178l42 10m-95 -269l84 -81m-103 162l114 188"/>
  <path class="fil0 str1" d="M456 2008l84 -81m-84 81c-8,8 -14,18 -19,29 -8,20 -7,40 0,52m0 0l112 185"/>
  <polygon class="fil2" points="153,1334 153,1416 59,1416 59,1334 "/>
  <path class="fil0 str3" d="M2765 704c-10,6 -11,22 -2,37 9,15 24,23 33,17 2,-1 4,-3 5,-6m-21 -48c-6,-3 -12,-3 -16,0m-6 -11c-14,8 -15,32 -3,53 12,21 33,32 47,24 5,-3 8,-8 10,-14m-30 -61c-9,-5 -18,-5 -24,-1m34 4l0 -35m-9 30l0 -27m9 32c-1,5 -2,12 -8,9m-1 -15c0,1 0,4 -2,2"/>
  <path class="fil0 str0" d="M2801 754c0,2 2,3 6,3 3,0 6,-1 6,-2"/>
  <path class="fil0 str3" d="M2813 755c0,-2 -2,-3 -6,-3 -3,0 -6,1 -6,2"/>
  <path class="fil1" d="M2809 756c1,0 0,-1 0,-1l7 1c0,1 -2,2 -4,2l-3 -2z"/>
  <path class="fil1" d="M2804 754c0,0 -1,1 0,1l-3 1c-2,-1 -3,-2 -3,-3l7 1z"/>
  <path class="fil0 str3" d="M2784 707c0,0 -2,-1 -4,-2"/>
  <polygon class="fil2" points="2465,2396 2465,2477 2371,2477 2371,2396 "/>
  <polygon class="fil2" points="1654,1281 1654,1362 1560,1362 1560,1281 "/>
  <polygon class="fil2" points="1926,1289 1926,1371 1832,1371 1832,1289 "/>
  <path class="fil0 str0" d="M2120 772c-1,-28 -137,-46 -304,-40 -167,6 -302,33 -301,61"/>
  <path class="fil0 str1" d="M1515 793c1,28 137,46 304,40 167,-6 302,-33 301,-61"/>
  <path class="fil1" d="M1604 754c-58,12 -84,25 -84,38l-11 0c0,-13 32,-27 91,-39l3 0z"/>
  <path class="fil1" d="M2115 773c0,-14 -32,-25 -86,-32l3 -1c56,7 93,19 94,33l-11 0z"/>
  <path class="fil0 str1" d="M1515 793c1,28 137,46 304,40 167,-6 302,-33 301,-61"/>
  <path class="fil1" d="M1604 754c-58,12 -84,25 -84,38l-11 0c0,-13 32,-27 91,-39l3 0z"/>
  <path class="fil1" d="M2115 773c0,-14 -32,-25 -86,-32l3 -1c56,7 93,19 94,33l-11 0z"/>
  <path class="fil0 str1" d="M2113 784c-32,-22 -157,-34 -297,-30 -143,5 -262,25 -294,49"/>
  <path class="fil0 str3" d="M2142 57c-1,-34 -148,-56 -327,-50 -180,6 -324,38 -323,72 1,34 148,56 327,50 180,-6 324,-38 323,-72zm-621 46c25,29 152,47 298,42 148,-5 271,-31 295,-61"/>
  <line class="fil0 str0" x1="1817" y1="783" x2="1817" y2= "143" />
 </g>
</svg>
