<?xml version="1.0" encoding="UTF-8" standalone="no"?>
<svg id="svg2" xmlns:rdf="http://www.w3.org/1999/02/22-rdf-syntax-ns#" xmlns="http://www.w3.org/2000/svg" height="159.24mm" width="451.56mm" version="1.1" xmlns:cc="http://creativecommons.org/ns#" xmlns:dc="http://purl.org/dc/elements/1.1/" viewBox="0 0 1600.0001 564.22219">
<g id="layer1" transform="translate(-1103.4 -363.57)">
<g id="g4215" fill="#800000" transform="matrix(.35011 0 0 .35011 717.08 602.96)">
<path id="rect4164" d="m-108.51 29.084c-37.821 0-68.268 30.449-68.268 68.27v1063.4c0 37.821 30.447 68.268 68.268 68.268h957.54c37.821 0 68.268-30.447 68.268-68.268v-1063.4c0-37.821-30.447-68.27-68.268-68.27h-138.43c23.466 15.67 30.914 38.754 29.812 75.615-0.5462 18.283-0.96092 38.039-0.91992 43.904 0.041 5.8655-1.4584 72.206-3.3301 147.42-1.8717 75.216-3.3796 139.96-3.3516 143.87 0.082 11.3-2.6457 39.69-5.7227 59.557-1.7625 11.38-14.393 48.054-33.48 97.213-28.594 73.643-33.022 87.377-40.635 126.03-8.4565 42.934-13.836 131.39-12.242 201.26 0.2794 12.768-0.36617 27.279 2.5527 44.678 1.8728 9.4444 3.492 22.392 3.5977 28.771 0.8186 49.406-88.285 71.612-126.91 31.629-11.57-11.977-15.173-31.364-10.756-57.855 4.4045-26.414 4.4655-55.973 0.30078-143.73-3.8013-80.099-21.958-169.13-42.031-206.1-12.847-23.663-35.014-80.435-42.494-108.83-5.4116-20.544-10.117-80.777-11.152-142.74-0.1967-11.781-0.9288-36.816-1.625-55.635-0.6963-18.818-1.5499-46.298-1.8984-61.068s-1.1629-39.841-1.8105-55.715c-0.6477-15.873-1.4856-41.753-1.8613-57.51-0.3757-15.756-1.0657-36.702-1.5332-46.545-0.5657-11.911 1.0733-22.586 5.0312-32.094 5.3032-12.74 14.769-23.389 28.668-32.125h-133.21c23.466 15.67 30.914 38.754 29.812 75.615-0.5462 18.283-0.96092 38.039-0.91992 43.904 0.041 5.8655-1.4584 72.206-3.3301 147.42-1.8717 75.216-3.3796 139.96-3.3516 143.87 0.082 11.3-2.6457 39.69-5.7227 59.557-1.7625 11.38-14.393 48.054-33.48 97.213-28.594 73.643-33.022 87.377-40.635 126.03-8.4565 42.934-13.836 131.39-12.242 201.26 0.2794 12.768-0.36617 27.279 2.5527 44.678 1.8728 9.4444 3.492 22.392 3.5977 28.771 0.8186 49.406-88.285 71.612-126.91 31.629-11.57-11.977-15.173-31.364-10.756-57.855 4.4045-26.414 4.4655-55.973 0.30078-143.73-3.81-80.16-21.963-169.19-42.036-206.16-12.847-23.67-35.013-80.44-42.494-108.84-5.411-20.54-10.117-80.77-11.152-142.73-0.1967-11.781-0.9288-36.816-1.625-55.635-0.6964-18.82-1.55-46.3-1.8985-61.07s-1.163-39.84-1.8106-55.71c-0.6477-15.88-1.4856-41.76-1.8613-57.51-0.3757-15.76-1.0657-36.7-1.5332-46.547-0.5657-11.911 1.0734-22.586 5.0312-32.094 5.3032-12.74 14.769-23.389 28.668-32.125h-142.32z" transform="translate(1280.2 -301.22)"/>
<path id="rect4179" d="m1166.5 29.084c-37.821 0-68.268 30.449-68.268 68.27v1063.4c0 37.821 30.447 68.268 68.268 68.268h551.52c37.821 0 68.268-30.447 68.268-68.268v-1063.4c0-37.821-30.447-68.27-68.268-68.27h-137.4c23.466 15.67 30.914 38.754 29.812 75.615-0.5462 18.283-0.9609 38.039-0.9199 43.904 0.041 5.8655-1.4584 72.206-3.3301 147.42-1.8717 75.216-3.3796 139.96-3.3516 143.87 0.082 11.3-2.6456 39.69-5.7226 59.557-1.7625 11.38-14.393 48.054-33.48 97.213-28.594 73.643-33.022 87.377-40.635 126.03-8.4565 42.934-13.836 131.39-12.242 201.26 0.2794 12.768-0.3662 27.279 2.5527 44.678 1.8728 9.4444 3.492 22.392 3.5977 28.771 0.8186 49.406-88.285 71.612-126.91 31.629-11.57-11.977-15.173-31.364-10.756-57.855 4.4045-26.414 4.4655-55.973 0.3008-143.73-3.8013-80.099-21.958-169.13-42.031-206.1-12.847-23.663-35.014-80.435-42.494-108.83-5.4116-20.544-10.117-80.777-11.152-142.74-0.1967-11.781-0.9288-36.816-1.625-55.635-0.6963-18.818-1.5499-46.298-1.8984-61.068s-1.163-39.841-1.8106-55.715c-0.6477-15.873-1.4856-41.753-1.8613-57.51-0.3757-15.756-1.0657-36.702-1.5332-46.545-0.5657-11.911 1.0733-22.586 5.0312-32.094 5.3032-12.74 14.769-23.389 28.668-32.125h-142.32z" transform="translate(1280.2 -301.22)"/>
<path id="rect4184" d="m2026.5 29.084c-37.821 0-68.268 30.449-68.268 68.27v1063.4c0 37.821 30.447 68.268 68.268 68.268h148.23c-17.15-9.3351-28.559-21.096-34.58-35.561-3.9579-9.508-5.5969-20.182-5.0312-32.094 0.4675-9.8433 1.1575-30.789 1.5332-46.545s1.2136-41.636 1.8613-57.51c0.6476-15.873 1.4621-40.945 1.8106-55.715s1.2021-42.25 1.8984-61.068c0.6962-18.818 1.4283-43.854 1.625-55.635 1.0349-61.961 5.7407-122.19 11.152-142.74 7.4805-28.397 29.647-85.169 42.494-108.83 20.073-36.972 38.23-126 42.031-206.1 4.1647-87.755 4.1037-117.31-0.3008-143.73-4.4173-26.491-0.8143-45.879 10.756-57.855 13.881-14.369 34.28-20.707 54.684-20.637 36.371 0.12593 72.751 20.615 72.227 52.266-0.1057 6.3791-1.7249 19.327-3.5977 28.771-2.9189 17.399-2.2733 31.91-2.5527 44.678-1.5939 69.871 3.7857 158.33 12.242 201.26 7.6132 38.653 12.041 52.386 40.635 126.03 19.087 49.159 31.718 85.833 33.48 97.213 3.077 19.866 5.8046 48.256 5.7226 59.557-0.028 3.9108 1.4799 68.651 3.3516 143.87 1.8717 75.216 3.3711 141.56 3.3301 147.42-0.041 5.8655 0.3737 25.621 0.9199 43.904 1.1846 39.652-7.5193 63.363-35.42 79.051h549.04c37.821 0 68.268-30.447 68.268-68.268v-1063.4c0-37.821-30.447-68.27-68.268-68.27h-138.43c23.467 15.67 30.914 38.754 29.812 75.615-0.5462 18.283-0.9609 38.039-0.9199 43.904 0.041 5.8655-1.4584 72.206-3.3301 147.42-1.8717 75.216-3.3796 139.96-3.3516 143.87 0.082 11.3-2.6456 39.69-5.7226 59.557-1.7625 11.38-14.393 48.054-33.48 97.213-28.594 73.643-33.022 87.377-40.635 126.03-8.4565 42.934-13.836 131.39-12.242 201.26 0.2794 12.768-0.3662 27.279 2.5527 44.678 1.8728 9.4444 3.492 22.392 3.5977 28.771 0.8186 49.406-88.285 71.612-126.91 31.629-11.57-11.977-15.173-31.364-10.756-57.855 4.4045-26.414 4.4655-55.973 0.3008-143.73-3.8013-80.099-21.958-169.13-42.031-206.1-12.847-23.663-35.014-80.435-42.494-108.83-5.4116-20.544-10.117-80.777-11.152-142.74-0.1967-11.781-0.9288-36.816-1.625-55.635-0.6963-18.818-1.5499-46.298-1.8984-61.068s-1.163-39.841-1.8106-55.715c-0.6477-15.873-1.4856-41.753-1.8613-57.51-0.3757-15.756-1.0657-36.702-1.5332-46.545-0.5657-11.911 1.0733-22.586 5.0312-32.094 5.3032-12.74 14.769-23.389 28.668-32.125h-547.32z" transform="translate(1280.2 -301.22)"/>
<path id="rect4197" d="m3261.5 29.084c-37.821 0-68.268 30.449-68.268 68.27v1063.4c0 37.821 30.447 68.268 68.268 68.268h1063.4c37.821 0 68.268-30.447 68.268-68.268v-161.58c-15.59 20.324-38.076 26.856-72.76 25.82-18.283-0.5462-38.039-0.9609-43.904-0.9199-5.8655 0.041-72.206-1.4584-147.42-3.3301-75.216-1.8717-139.96-3.3795-143.87-3.3515-11.3 0.082-39.69-2.6457-59.557-5.7227-11.38-1.7625-48.054-14.393-97.213-33.48-73.643-28.594-87.377-33.022-126.03-40.635-42.934-8.4565-131.39-13.836-201.26-12.242-12.768 0.2794-27.279-0.36617-44.678 2.5527-9.4444 1.8728-22.392 3.492-28.771 3.5977-49.406 0.8186-71.612-88.285-31.629-126.91 11.977-11.57 31.364-15.173 57.856-10.756 26.414 4.4045 55.973 4.4655 143.73 0.30078 80.099-3.8013 169.13-21.958 206.1-42.031 23.663-12.847 80.435-35.014 108.83-42.494 20.544-5.4116 80.777-10.117 142.74-11.152 11.781-0.1967 36.816-0.9288 55.635-1.625 18.818-0.6963 46.299-1.5499 61.068-1.8984 14.77-0.3485 39.841-1.1629 55.715-1.8106 15.873-0.64769 41.754-1.4856 57.51-1.8613s36.702-1.0657 46.545-1.5332c1.4889-0.0707 2.9598-0.10778 4.4102-0.10937 10.153-0.0111 19.364 1.6775 27.684 5.1406 11.387 4.74 21.096 12.824 29.27 24.408v-164.96c-15.59 20.324-38.076 26.856-72.76 25.82-18.283-0.5462-38.039-0.96092-43.904-0.91992-5.8655 0.041-72.206-1.4584-147.42-3.3301-75.216-1.8717-139.96-3.3796-143.87-3.3516-11.3 0.082-39.69-2.6457-59.557-5.7227-11.38-1.7625-48.054-14.393-97.213-33.48-73.643-28.594-87.377-33.022-126.03-40.635-42.934-8.4565-131.39-13.836-201.26-12.242-12.768 0.2794-27.279-0.36617-44.678 2.5527-9.4444 1.8728-22.392 3.492-28.771 3.5977-49.406 0.8186-71.612-88.285-31.629-126.91 11.977-11.57 31.364-15.173 57.856-10.756 26.414 4.4045 55.973 4.4655 143.73 0.30078 80.099-3.8013 169.13-21.958 206.1-42.031 23.663-12.847 80.435-35.014 108.83-42.494 20.544-5.4116 80.777-10.117 142.74-11.152 11.781-0.1967 36.816-0.9288 55.635-1.625 18.818-0.6963 46.299-1.5499 61.068-1.8984 14.77-0.3485 39.841-1.1629 55.715-1.8106 15.873-0.64769 41.754-1.4856 57.51-1.8613s36.702-1.0657 46.545-1.5332c1.4889-0.0707 2.9598-0.10778 4.4102-0.10937 10.153-0.0111 19.364 1.6775 27.684 5.1406 11.387 4.74 21.096 12.824 29.27 24.408v-176.77c0-37.821-30.447-68.27-68.268-68.27h-1063.4z" transform="translate(1280.2 -301.22)"/>
<circle id="path4213" cy="-458.02" cx="2722.4" r="225.72"/>
</g>
</g>
</svg>
