<?xml version="1.0" encoding="utf-8"?>
<!DOCTYPE svg PUBLIC "-//W3C//DTD SVG 1.1//EN" "http://www.w3.org/Graphics/SVG/1.1/DTD/svg11.dtd">
<svg version="1.1" id="Layer_1" xmlns="http://www.w3.org/2000/svg" xmlns:xlink="http://www.w3.org/1999/xlink" x="0px" y="0px"
	 viewBox="0 0 628.1492 2020.1785" enable-background="new 0 0 628.1492 2020.1785" xml:space="preserve">
<g>
	<path fill="#010101" d="M175.5746,1970.0892c-3.7273-1.9451-7.9091-2.1495-11.9112-2.9523
		c-2.915-0.5847-4.3646-1.8005-5.4368-4.7616c-4.983-13.7622-8.6146-27.9114-12.6234-41.9548
		c-0.3178-1.1133-0.7253-2.2372-1.3044-3.2319c-1.1053-1.899-3.2431-1.8268-4.881-1.6179c-1.8304,0.2333-0.9192,2.1965-0.879,3.3296
		c0.4316,12.1569,1.0493,24.3076,1.3793,36.4666c0.0409,1.5079,2.114,4.8131-1.2754,4.5421
		c-2.6535-0.2119-7.0009,0.3334-7.0282-4.9745c-0.0419-8.1598-0.9667-16.3236-0.8284-24.474
		c0.2207-13.0101-1.3406-25.5311-7.6055-37.1636c-0.547-1.0157-0.9878-2.1371-1.2239-3.2628
		c-0.7514-3.5817,1.1568-5.8832,4.8359-5.9196c3.104-0.0308,6.2085-0.0063,10.2734-0.0063
		c-9.853-14.7303-3.5974-25.2386,6.4407-36.3385c11.1491-12.3282,18.3674-26.8341,18.4898-44.5494
		c0.131-18.9623,3.1339-37.8237,3.8021-56.8293c1.2538-35.6564,0.2192-71.3291,1.2045-106.9781
		c0.7455-26.973,0.4081-54.004,3.5772-80.8701c2.9918-25.3633,8.9433-49.9457,22.7386-71.738
		c20.1845-31.8853,28.4371-67.6172,34.0789-104.0404c8.0513-51.979,9.3412-104.4889,10.323-156.9861
		c0.3926-20.9916,1.3511-41.9681,4.7596-62.7417c0.4444-2.7081,0.115-5.182-0.8929-7.7717
		c-14.3545-36.8857-27.6165-74.1625-39.9951-111.7588c-6.2649-19.0276-16.0496-36.5051-24.5831-54.528
		c-10.7543-22.7132-21.4445-45.4397-26.871-70.1938c-1.7916-8.1725-2.5229-16.4429-2.6496-24.7845
		c1.2135-16.8293,7.3953-31.072,22.0524-40.4462c17.6186-11.2682,36.3835-20.0406,56.8627-24.869
		c42.3623-9.9879,76.6227,5.5231,96.9093,44.0263c9.7328,18.4727,14.6175,38.487,18.2581,58.8488
		c1.9987,11.1791,3.6338,22.4232,5.5231,34.2004c0.8367-0.9377,1.2951-1.3723,1.6619-1.8739
		c11.5887-15.8524,23.1367-31.7346,34.7747-47.5508c2.5421-3.4548,4.4595-7.4036,7.8459-10.2129
		c5.5655,23.6472,11.6789,47.1921,13.5806,71.5326c1.1885,15.2118-0.4915,30.2947-2.3721,45.338
		c-2.726,21.8063-4.2195,43.7657-7.9881,65.4401c-3.1093,17.8828-7.6517,35.4423-12.5257,52.9072
		c-0.9769,3.5007-1.0558,6.7269-0.2965,10.2047c9.9039,45.3643,18.9906,90.8792,26.137,136.7781
		c10.4291,66.9827,9.4436,133.5587-3.6328,200.2384c-14.6032,74.4653-27.8977,149.198-38.4534,224.3718
		c-4.5379,32.3175-8.6204,64.6935-10.8811,97.2853c-2.5905,37.3461,1.8404,73.3655,17.7479,107.6733
		c4.3215,9.3202,7.6621,19.1633,9.3033,29.4218c0.3062,1.9133,1.5303,2.8284,2.8407,3.8489
		c3.5451,2.7616,7.302,5.2817,10.3142,8.6656c1.5139,1.701,3.6314,3.3678,2.71,5.9865c-0.888,2.5238-3.4613,2.8511-5.742,3.3539
		c-0.8911,0.1967-2.0563-0.3849-2.5443,0.921c-16,0-32,0-48,0c-3.3596-2.4016-7.4699-2.1121-11.224-3.0891
		c-1.9875-0.5171-3.6469-0.9252-4.3406-3.3439c-3.4772-12.1238-8.8208-23.6788-10.7407-36.2963
		c-0.4897-3.2184-2.2809-6.2223-3.2972-9.3817c-0.9205-2.8613-3.4713-2.6479-5.3282-2.3978
		c-1.9349,0.2609-0.8859,2.4775-0.8349,3.7642c0.4682,11.818,1.0793,23.6301,1.5985,35.4464
		c0.2715,6.1794,0.076,6.1746-5.7313,4.2783c-2.339-0.7638-2.5498-2.2078-2.6096-4.126c-0.1039-3.3298-0.2653-6.6583-0.4324-9.9858
		c-0.9113-18.1539,0.871-36.7568-8.8816-53.4427c-0.0819-0.1403-0.1081-0.3145-0.153-0.4749
		c-1.2758-4.5594,0.4212-6.8456,5.0353-6.9596c1.5698-0.0387,3.2363,0.5026,4.7427-0.4303
		c-9.4296-24.1554-8.2557-25.399,2.0542-48.8407c2.8909-6.5732,5.2604-13.2609,5.9503-20.5054
		c3.281-34.4517,2.4506-68.89-0.2451-103.3184c-3.7049-47.3188-10.0968-94.3827-13.3125-141.7552
		c-1.8126-26.702-0.5497-52.8335,9.3179-78.136c6.285-16.116,13.2905-31.9156,20.182-47.7592
		c9.2588-21.2854,12.269-43.0585,7.2291-65.8256c-1.8411-8.3165-3.6765-16.6268-7.2395-25.3698
		c-1.9536,7.7584-3.5194,14.5253-5.3648,21.2148c-9.9815,36.1819-24.046,71.2294-29.1252,108.7826
		c-2.4558,18.1572-9.8621,35.1941-14.2072,52.9396c-14.9123,60.9026-31.7978,121.267-49.183,181.4913
		c-9.9955,34.6256-18.1984,69.5209-20.3487,105.634c-0.8434,14.1633-0.3647,28.3119-0.0271,42.4664
		c0.5007,20.9945,0.7669,41.9843-2.2158,62.8466c-0.8489,5.9374,0.0975,10.8328,4.7024,15.3
		c5.2995,5.1411,11.5193,9.0272,17.015,13.8557c8.626,7.5792,8.3264,9.743-1.985,13.4182
		C206.9079,1970.0892,191.2413,1970.0892,175.5746,1970.0892z"/>
	<path fill="#010101" d="M232.5369,386.2527c6.7535-5.9197,13.6654-11.6701,20.2188-17.8036
		c7.598-7.1111,19.3001-27.7817,20.4723-35.772c-7.6893,6.9611-15.2268,13.5458-25.4812,15.4315
		c-4.0741,0.7492-8.046,2.4573-12.8156,1.7238c18.5119-7.541,26.6164-22.5788,24.3006-43.5723
		c-1.4586-13.2226-6.1796-25.1117-13.3926-36.1344c-3.3717-5.1525-6.6399-10.3809-10.2051-15.3971
		c-14.435-20.3097-20.5532-43.0767-19.8779-67.7482c0.8751-31.9707,9.7213-61.3834,29.6826-86.7782
		c22.7052-28.8855,53.358-43.6699,89.1161-49.012c1.0501-0.1569,2.4219,0.37,3.0196-1.1008c9,0,18,0,27,0
		c6.4337,1.319,12.9958,2.1967,19.2806,4.027c49.2455,14.3414,81.157,45.7918,92.0094,96.3838
		c4.9025,22.8544,2.2169,45.7121-6.7664,67.614c-3.715,9.0574-7.7766,18.0561-9.0683,27.9117
		c-0.8125,6.1994-0.9915,12.3256,4.0339,18.5002c-5.7372-1.7103-9.2016-4.6331-11.7912-8.8162
		c-2.5655-4.144-2.9615-8.7656-3.0132-13.4537c-0.0519-4.7009-0.0114-9.4027-0.1712-14.2903
		c-1.1303,7.5271-4.1082,14.2923-8.1531,20.7299c-2.8861,4.5933-6.1831,7.2703-11.7464,6.1857
		c-2.9008-0.5655-4.3853,0.3635-5.3774,3.3848c-3.6733,11.186-10.2574,20.8358-16.7505,30.5171
		c-8.0723,12.0357-16.237,24.0257-18.9457,38.7083c-1.4926,8.0905-2.1453,16.1706-0.4989,24.3109
		c2.1259,10.5108,7.4785,18.7388,16.9801,24.0533c1.0833,0.606,2.6568,0.6595,2.9459,2.3152
		c-6.6448,1.7912-21.7719-4.734-31.0669-13.2994c-8.7396-8.0535-14.1424-18.2287-18.6069-30.4312
		c-2.4478,16.9399-3.4007,32.4825-1.2307,48.1149c1.3329,9.6022,6.0254,17.1201,13.7678,22.86
		c4.7026,3.4865,9.7876,6.3017,15.0635,8.7759c10.8497,5.0882,21.4703,10.567,31.1667,17.6844
		c-0.0392,0.7449,0.2492,1.186,1.058,1.1469c0,0-0.0311-0.0771-0.0312-0.0768c-0.0298,1.9035,1.6215,2.7834,2.5762,4.0359
		c18.4268,24.1748,5.1014,57.4239-24.8789,62.2845c-36.3695,5.8965-71.8925,2.7927-106.8195-8.9173
		c-19.4512-6.5214-35.0101-17.4659-44.5505-36.0364c-5.8543-11.3955-11.5424-22.8784-17.5386-34.1985
		c-6.6216-12.5007-5.8526-20.1696,3.5481-30.8241C230.8717,388.3008,231.6922,387.2661,232.5369,386.2527z"/>
	<path fill="#010101" d="M15.5746,990.0892c2.5215-4.6427,1.7951-9.9033,2.7092-14.848c1.6345-8.8418,3.1691-17.684,5.949-26.2554
		c0.6855-2.1136,0.5971-4.2645,0.5884-6.4317c-0.1599-39.8526-3.5731-79.5606-5.7524-119.31
		c-3.4436-62.8096,6.8276-122.6561,34.4539-179.3755c22.9638-47.147,40.8967-96.3812,60.0789-145.1069
		c10.9104-27.7139,25.2118-53.604,46.2809-75.2083c5.0105-5.1377,10.5385-9.6749,15.9647-14.3364
		c0.7-0.0688,1.1702-0.3948,1.2689-1.1357c0,0-0.0594,0.0456-0.0592,0.0455c0.7905-0.1989,1.6132-0.3149,2.3663-0.6091
		c8.3739-3.2721,14.2792-1.6651,19.7253,5.5249c3.3504,4.4233,5.5766,9.4389,7.3496,14.6672
		c5.2766,15.559,6.322,31.9149,9.3155,47.9069c3.7617,20.0962-2.1377,36.3861-14.7258,51.5477
		c-6.4434,7.7606-12.5534,15.9128-17.5776,24.7567c-3.8101,4.8876-5.5827,10.886-8.8033,16.1028
		c-15.1161,24.4852-29.9675,49.137-45.3329,73.4644c-16.5985,26.2796-28.3705,54.1866-30.5257,85.5317
		c-1.4903,21.675-5.8858,42.8068-11.1486,63.8128c-5.534,22.0887-11.9416,43.9574-16.6382,66.2574
		c-3.0569,14.515-4.9887,29.1729-6.3228,43.9451c-0.96,10.6309,1.8635,20.4225,5.3127,30.1907
		c6.9143,19.5814,15.3607,38.6148,21.0015,58.6509c2.444,8.681,4.3781,17.4407,3.6616,26.561
		c-0.3493,4.4462-1.7324,8.4255-5.0296,11.6188c-1.6427,1.5911-2.8287,1.4022-3.8049-0.6213
		c-1.5478-3.2081-2.0147-6.6564-2.3373-10.1522c-0.5501-5.9623-1.127-11.9229-1.7783-17.8748
		c-0.1427-1.3038-0.5702-2.5935-0.9966-3.8454c-0.7822-2.2963-1.9595-4.4567-4.6989-4.5037
		c-2.6644-0.0456-3.5343,2.3235-4.2514,4.3071c-2.6255,7.2625-3.1943,14.9367-4.1927,22.5158
		c-1.2601,9.5654-2.2915,19.1679-4.9967,28.4781c-0.3708,1.2762-0.7236,2.5613-1.1719,3.8108
		c-6.1856,17.241-21.676,20.1735-34.0029,6.4005c-5.877-6.5664-8.1668-14.7111-9.9365-23.0836
		c-0.5259-2.4879-0.0639-5.2607-1.9424-7.3989C15.5746,1014.0892,15.5746,1002.0892,15.5746,990.0892z"/>
	<path fill="#010101" d="M440.3865,451.3608c2.4971,2.5512,3.9685,5.6734,5.2471,8.9648
		c13.9091,35.8061,22.6638,73.0084,29.8964,110.6098c10.3784,53.9566,17.4692,108.4291,25.2526,162.79
		c8.8997,62.1564,20.8223,123.6304,39.1431,183.8066c5.5899,18.3607,14.398,33.2318,31.8502,42.5103
		c21.6089,11.4882,34.0263,30.1641,39.7606,53.6084c0.1628,0.6655,0.2352,1.2852,1.0381,1.4385c0,8.3333,0,16.6667,0,25
		c-2.2206,3.176-0.6321,7.019-1.8481,10.4164c-1.0015,2.7981-1.1967,6.4214-5.064,6.4203c-3.7567-0.0011-5.9642-2.653-6.8029-6.2296
		c-1.1852-5.0544-1.4895-10.2155-1.4088-15.3865c0.1887-12.0815-3.8757-21.4944-14.1083-29.0688
		c-11.5546-8.5532-22.9408-16.5724-36.7997-21.3558c-13.1204-4.5285-23.2402-13.9706-31.74-25.0134
		c-4.6396-6.0278-5.9037-12.9654-5.9834-20.1855c-0.0694-6.2985-1.6619-11.988-4.2971-17.6958
		c-5.1114-11.0709-7.7306-22.9366-10.3443-34.8212c-4.6103-20.963-11.771-41.2133-18.1237-61.6801
		c-16.5034-53.1697-33.8891-106.0648-49.6439-159.468c-0.1851-0.6273-0.5547-1.2003-0.8384-1.7991
		c6.6348-10.5809,13.1437-21.2437,19.9717-31.6979c2.4636-3.7719,3.7055-7.6183,3.9554-12.0803
		c0.95-16.9656,2.1504-33.9182,2.3682-50.9169C452.3775,529.7177,453.3351,489.8631,440.3865,451.3608z"/>
	<path fill="#1CB2C5" d="M440.3865,451.3608c12.9486,38.5023,11.991,78.3569,11.481,118.166
		c-0.2178,16.9987-1.4182,33.9513-2.3682,50.9169c-0.2499,4.462-1.4918,8.3084-3.9554,12.0803
		c-6.8281,10.4543-13.3369,21.1171-19.9717,31.6979c-13.9457,22.5037-30.3498,43.2716-45.725,64.7657
		c-9.4644,13.2309-10.7858,27.1096-3.6832,41.8566c3.8937,8.0844,7.1377,16.4857,11.1292,24.5182
		c11.6071,23.3582,13.4229,48.0919,10.7886,73.4924c-1.3051,12.584-3.6223,24.9977-6.7046,37.2676
		c-3.3865,2.8088-5.3039,6.7576-7.846,10.2125c-11.6379,15.8162-23.186,31.6984-34.7747,47.5508
		c-0.3668,0.5016-0.8252,0.9362-1.6619,1.8739c-1.8893-11.7772-3.5244-23.0213-5.5231-34.2004
		c-3.6406-20.3618-8.5253-40.3761-18.2581-58.8488c-20.2865-38.5032-54.547-54.0142-96.9093-44.0263
		c-20.4792,4.8284-39.2441,13.6008-56.8627,24.869c-14.6571,9.3742-20.8389,23.6169-22.0524,40.4462
		c-2.0387-3.7271-0.1292-7.4788,0.159-11.1395c1.7892-22.7285,3.7119-45.4417,8.1963-67.8632
		c5.9579-29.789,20.1755-55.4464,38.5874-79.1525c11.1746-14.3879,23.5428-27.6379,37.0349-39.8306
		c3.4-3.0725,4.4167-6.1696,3.2937-10.5878c-1.9454-7.6545-4.9267-14.9121-8.7197-21.7177
		c-13.7879-24.7388-22.4046-51.5205-31.4599-78.1371c-3.803-11.1783-7.3866-22.4313-11.0702-33.6502
		c5.0239-8.8438,11.134-16.996,17.5774-24.7566c12.5881-15.1616,18.4875-31.4515,14.7258-51.5477
		c-2.9935-15.9919-4.0389-32.3479-9.3155-47.9069c-1.7731-5.2283-3.9992-10.2439-7.3496-14.6672
		c-5.4461-7.1901-11.3513-8.7971-19.7253-5.5249c-0.7531,0.2942-1.5758,0.4102-2.3663,0.6091
		c1.8434-3.2424,5.1851-4.5208,8.2498-6.0184c14.0303-6.8557,29.1371-10.7894,43.8174-15.879
		c1.0137-0.3514,2.2707-0.0014,3.4136,0.0228c-0.8455,1.0137-1.666,2.0484-2.5385,3.0373
		c-9.4007,10.6545-10.1697,18.3234-3.5481,30.8241c5.9962,11.32,11.6843,22.8029,17.5386,34.1985
		c9.5404,18.5706,25.0993,29.515,44.5505,36.0364c34.927,11.7099,70.45,14.8138,106.8195,8.9173
		c29.9803-4.8607,43.3057-38.1098,24.8789-62.2845c-0.9547-1.2525-2.6059-2.1324-2.5762-4.0359
		c8.4614,1.6498,15.3886,5.5588,19.7167,13.332C438.3366,447.997,439.3817,449.6677,440.3865,451.3608z"/>
	<path fill="#1CB2C5" d="M417.6937,433.0223c-0.8088,0.039-1.0972-0.402-1.058-1.1469
		C417.3103,431.9595,417.9185,432.1067,417.6937,433.0223z"/>
	<path fill="#1CB2C5" d="M177.1162,408.0814c-0.0987,0.741-0.5689,1.067-1.2689,1.1357
		C175.9991,408.5353,176.4008,408.1331,177.1162,408.0814z"/>
</g>
</svg>
