<?xml version="1.0" encoding="utf-8"?>
<!-- Generator: Adobe Illustrator 18.0.0, SVG Export Plug-In . SVG Version: 6.00 Build 0)  -->
<!DOCTYPE svg PUBLIC "-//W3C//DTD SVG 1.1//EN" "http://www.w3.org/Graphics/SVG/1.1/DTD/svg11.dtd">
<svg version="1.1" id="Layer_2" xmlns="http://www.w3.org/2000/svg" xmlns:xlink="http://www.w3.org/1999/xlink" x="0px" y="0px"
	 width="159px" height="125px" viewBox="0 0 159 125" style="enable-background:new 0 0 159 125;" xml:space="preserve">
<style type="text/css">
	.st0{fill:#50A8E0;stroke:#000000;stroke-width:0.25;stroke-miterlimit:10;}
	.st1{fill:#5EE12E;stroke:#000000;stroke-width:0.25;stroke-miterlimit:10;}
</style>
<g>
	<path class="st0" d="M69.9,100.3c-7.6-4.4-16.1-5.7-24.3-7.8c-5.7-1.5-11.1-3.4-14.3-9c-3-5.4-0.9-10,5.2-10.7
		c4.6-0.5,9,0.4,13.4,1.7c9.6,2.7,29.4,16,32.1,16.3c-1-2.4-7.5-14.8-9-19.6c-2.4-7.7-2.5-15.6-0.9-23.4c0.5-2.5,1.7-4.6,3.2-6.6
		c2.2-3,4.6-5.8,8.8-5.2c4,0.6,4.6,2.6,6.2,5.8c8.6,17.5-5,33.8-4.2,34.6c0.8,0.8,22.8-7.5,19.5-40.9c-1-10-7.8-18-10.7-27.5
		c-0.4-1.3-1.1-1.1-2-0.5c-7.3,5.3-15.5,9.4-22.3,15.6c-9.2,8.4-15.5,18.2-13.7,31.4c0.5,3.4,1.3,6.8,2.1,10.5
		c-3.7-2-7-4.1-10.6-5.9c-10.7-5.3-21.9-7.2-33.6-3.9C4.4,57.9-0.8,66.4,1.7,76.6c2.5,10.3,8.9,17.8,17.8,23
		c8.5,4.9,18,7.4,27.7,8.5c13.6,1.6,27,3.7,39.4,10c0.2,0.1,0.6-0.1,1.3-0.3C83.6,109.9,77.2,104.6,69.9,100.3z"/>
	<path class="st1" d="M157.7,79.7c1.4-8.4-3-8.6-6.7-10.3c-0.8-0.4-1-0.6-0.5-1.3c1.9-2.2,4.1-5.4,5.1-8c1.8-5-1.1-10.5-6.3-11.1
		c-4.1-0.5-8.3-0.4-12.4,0.6c-10.4,2.6-18,9.1-24.8,17c-7.4,8.6-14.8,17.1-24.4,23.5c8.9-0.5,16.7-3.7,23.6-9.2
		c4.7-3.6,8.5-8.3,13.9-11.1c2-1,4.1-1.7,5.8-0.4c1.5,1.1,0.8,3.2,0.3,4.7c-1,2.7,0.2,2.4,2.1,2c2.3-0.5,5.1-0.8,6.2,1.7
		c1.2,2.6-1.1,4.3-2.8,5.8c-5.6,4.9-12.6,6.8-19.6,8.8c-18.4,5.3-32.7-0.4-33.1,0.6c-0.4,1.2,19.8,10.1,28.3,10.7
		c14.9,1.1,27.8-3.2,38.6-13C154.4,87.9,157,84,157.7,79.7z"/>
</g>
</svg>
