<?xml version="1.0" standalone="no"?>
<!DOCTYPE svg PUBLIC "-//W3C//DTD SVG 20010904//EN"
 "http://www.w3.org/TR/2001/REC-SVG-20010904/DTD/svg10.dtd">
<svg version="1.0" xmlns="http://www.w3.org/2000/svg"
 width="730.000000pt" height="730.000000pt" viewBox="0 0 730.000000 730.000000"
 preserveAspectRatio="xMidYMid meet">
<metadata>
Created by potrace 1.10, written by Peter Selinger 2001-2011
</metadata>
<g transform="translate(0.000000,730.000000) scale(0.100000,-0.100000)"
fill="#000000" stroke="none">
<path d="M2803 6419 c-6 -6 -39 -10 -73 -10 -37 0 -75 -6 -92 -15 -36 -19
-100 -32 -208 -43 -124 -13 -256 -56 -303 -97 -20 -19 -46 -34 -57 -34 -11 0
-39 -17 -63 -38 -23 -21 -63 -46 -89 -56 -26 -10 -58 -30 -70 -46 -13 -15 -39
-36 -58 -45 -48 -24 -120 -83 -131 -109 -6 -12 -23 -31 -40 -41 -16 -11 -29
-24 -29 -29 0 -17 -63 -140 -82 -160 -36 -38 -105 -151 -118 -191 -7 -22 -20
-58 -28 -80 -31 -82 -39 -173 -43 -475 -2 -86 3 -150 15 -205 9 -44 14 -92 12
-108 -3 -15 -1 -38 3 -51 5 -13 12 -49 16 -81 3 -32 8 -62 11 -67 3 -4 7 -34
9 -66 6 -92 32 -197 69 -275 18 -40 37 -86 40 -104 4 -18 16 -43 27 -57 11
-14 30 -72 43 -131 23 -104 25 -108 73 -153 32 -30 56 -64 67 -95 10 -27 24
-54 32 -60 77 -64 103 -99 135 -175 33 -81 34 -82 66 -80 26 2 38 -4 56 -27
12 -16 31 -38 43 -49 12 -12 26 -31 33 -44 6 -12 16 -22 22 -22 11 0 86 -67
134 -118 16 -19 41 -40 55 -48 14 -7 56 -43 94 -79 38 -36 75 -65 81 -65 7 0
19 -7 26 -16 7 -9 38 -32 69 -51 30 -19 66 -45 80 -57 14 -13 41 -29 60 -37
19 -7 49 -28 66 -46 17 -18 39 -33 49 -33 23 0 155 -106 155 -125 0 -8 8 -20
18 -27 20 -14 35 -55 22 -63 -4 -3 -11 -22 -14 -42 -10 -55 -96 -326 -116
-364 -4 -8 -6 -27 -3 -41 5 -24 -33 -120 -62 -158 -7 -8 -22 -41 -34 -72 -13
-31 -40 -76 -62 -99 -45 -49 -99 -157 -125 -250 -18 -63 -65 -161 -91 -187 -7
-7 -13 -20 -13 -27 0 -7 -12 -28 -26 -45 -47 -55 -30 -139 27 -140 9 0 29 7
45 14 23 12 39 13 73 5 31 -7 53 -7 71 1 23 9 157 6 168 -4 2 -3 18 0 35 6 81
26 258 40 362 28 50 -5 120 -7 156 -5 43 4 88 0 125 -10 32 -8 76 -15 99 -15
52 0 120 -24 164 -59 75 -57 103 -69 164 -66 50 2 63 7 92 35 35 34 37 41 56
195 11 85 12 110 10 180 -4 108 -3 158 2 311 3 85 7 106 26 132 18 26 20 35
10 53 -7 15 -9 42 -5 78 4 31 9 73 10 94 2 21 11 46 20 55 15 15 18 15 44 0
15 -8 44 -21 65 -27 20 -7 37 -17 37 -22 0 -5 8 -9 18 -9 10 0 28 -7 40 -16
12 -8 22 -13 22 -10 0 3 17 -1 38 -8 55 -19 136 -30 127 -17 -3 6 -1 11 4 11
6 0 11 -4 11 -8 0 -14 80 -36 135 -38 98 -3 181 -20 240 -49 33 -16 62 -29 65
-30 3 0 19 -9 37 -18 18 -9 38 -17 46 -17 24 0 67 -26 84 -50 12 -16 22 -21
42 -17 14 3 37 -1 51 -8 14 -8 37 -14 51 -15 15 0 41 -6 59 -14 27 -11 37 -11
58 0 19 10 29 10 43 1 31 -19 70 12 97 80 13 32 28 65 33 73 5 8 12 22 16 30
13 31 87 111 114 126 16 8 29 21 29 29 0 7 6 20 14 27 7 8 20 27 29 43 8 17
36 53 61 80 26 28 56 69 67 93 14 29 29 44 47 49 33 8 42 19 42 59 0 32 22 80
70 154 16 25 38 61 49 81 11 19 27 41 35 48 9 8 16 18 16 23 0 5 14 26 31 48
38 47 35 71 -10 84 -19 5 -38 19 -44 33 -12 28 -47 31 -47 4 0 -32 -25 -44
-80 -36 -31 4 -55 3 -63 -4 -21 -17 -103 -26 -332 -36 -60 -2 -119 -7 -130 -9
-11 -3 -37 -1 -58 3 -30 7 -41 6 -54 -7 -12 -12 -18 -13 -21 -4 -2 7 -21 12
-43 12 -21 0 -58 4 -81 10 -24 5 -81 13 -127 17 -77 8 -86 7 -103 -11 -18 -20
-18 -20 -18 3 0 12 -4 20 -9 16 -5 -3 -12 -1 -15 4 -3 5 -34 12 -68 16 -35 3
-98 13 -140 20 -59 11 -91 12 -135 4 -47 -9 -68 -8 -118 6 -33 10 -65 19 -71
20 -25 7 -24 66 1 139 14 40 25 81 25 92 0 21 25 102 45 149 9 20 14 73 14
155 0 93 4 135 16 163 27 66 33 219 7 203 -5 -3 -8 12 -8 33 1 27 5 37 14 34
6 -3 12 -14 12 -25 0 -17 3 -18 15 -8 17 14 20 66 5 105 -6 15 -12 68 -15 118
-3 50 -7 93 -10 95 -2 2 2 11 10 19 10 10 15 36 15 80 0 50 5 71 20 90 14 18
17 30 10 38 -11 13 -40 122 -47 179 l-5 39 -14 -32 c-8 -18 -23 -35 -34 -38
-11 -3 -17 -9 -14 -14 3 -5 9 -7 14 -4 5 3 12 -20 16 -51 5 -42 3 -59 -8 -70
-11 -12 -12 -26 -3 -81 11 -65 2 -133 -17 -133 -5 0 -8 -16 -8 -36 0 -46 -17
-41 -45 14 -20 39 -21 40 -34 21 -7 -12 -10 -24 -7 -27 3 -3 6 0 6 8 0 10 3
10 15 0 9 -7 13 -15 10 -18 -2 -3 3 -11 12 -17 15 -11 16 -15 3 -30 -14 -16
-13 -17 7 -11 18 6 21 4 16 -16 -3 -13 -2 -20 2 -15 5 4 15 -12 23 -35 14 -40
13 -43 -7 -56 -13 -9 -21 -25 -21 -43 0 -24 4 -29 25 -29 24 0 25 -3 24 -50
l-2 -50 -32 6 c-20 3 -35 1 -40 -6 -5 -7 2 -9 21 -4 23 6 26 4 21 -9 -3 -9 -1
-30 5 -47 19 -56 -27 -175 -58 -149 -7 6 -10 17 -8 24 3 7 -6 21 -20 30 -14
10 -23 21 -20 26 3 5 0 9 -5 9 -6 0 -11 10 -11 23 0 24 -37 67 -58 67 -7 0
-12 -6 -12 -13 0 -8 10 -13 21 -13 12 1 24 -5 27 -13 3 -10 0 -12 -12 -8 -22
9 -20 -1 9 -39 14 -18 25 -37 25 -43 0 -6 3 -11 8 -11 11 0 42 -59 42 -81 0
-12 10 -23 25 -29 26 -10 34 -43 14 -56 -14 -8 -50 36 -44 54 2 6 -1 12 -8 12
-7 0 -23 16 -37 36 -27 39 -109 143 -168 214 -20 24 -65 73 -99 108 -35 35
-63 70 -63 78 0 8 -7 14 -15 14 -8 0 -15 5 -15 11 0 6 -7 9 -15 5 -9 -3 -15 0
-15 8 0 9 -7 12 -21 9 -17 -5 -20 -2 -15 13 8 26 -7 46 -30 42 -14 -2 -19 3
-18 19 0 12 -3 20 -8 17 -4 -3 -8 0 -8 6 0 7 -6 8 -19 0 -27 -14 -31 -13 -31
9 0 11 -6 22 -12 24 -10 4 -9 8 2 16 13 9 12 12 -5 17 -12 3 -25 15 -30 27 -7
15 -21 23 -41 25 -27 3 -34 -2 -48 -29 -24 -47 -21 -76 9 -83 13 -3 36 -17 51
-31 15 -13 31 -22 36 -19 4 3 7 0 6 -7 -2 -7 10 -16 27 -20 17 -4 26 -7 21 -8
-16 -2 37 -41 56 -41 10 0 17 -4 16 -8 -4 -12 46 -59 70 -66 12 -4 22 -11 22
-16 0 -5 25 -35 56 -67 96 -99 224 -251 249 -295 22 -38 70 -104 91 -123 17
-16 21 -33 23 -92 2 -78 -13 -104 -30 -54 -6 17 -15 28 -20 25 -5 -3 -9 1 -9
8 0 7 -9 19 -20 26 -12 7 -18 17 -15 22 7 11 -10 47 -34 72 -9 9 -27 33 -41
52 -17 25 -31 35 -44 32 -14 -4 -16 -2 -8 6 14 14 -35 69 -55 61 -7 -3 -13 0
-13 6 0 6 5 11 10 11 6 0 5 6 -2 14 -8 9 -15 10 -19 4 -4 -6 -12 0 -20 13 -7
13 -12 25 -11 27 8 10 -1 22 -17 22 -11 0 -23 5 -27 12 -4 7 -3 8 4 4 7 -4 12
-5 12 -1 0 8 -93 95 -102 95 -5 0 -8 7 -8 16 0 8 -5 12 -11 9 -5 -4 -18 2 -28
14 -10 11 -21 18 -25 14 -3 -3 -7 -1 -7 5 -1 7 -2 18 -3 25 0 6 -8 12 -16 12
-8 1 -14 6 -13 13 4 16 -43 46 -61 39 -8 -3 -16 2 -19 14 -3 10 0 19 5 19 6 0
2 8 -8 18 -11 9 -25 29 -33 45 -18 33 -44 35 -64 4 -19 -30 -13 -40 46 -70 27
-13 48 -27 48 -31 -1 -3 8 -15 19 -26 11 -11 20 -15 20 -10 0 20 21 9 31 -17
11 -30 40 -61 82 -88 15 -10 25 -20 22 -23 -6 -7 15 -32 27 -32 6 0 7 7 4 16
-5 14 -4 15 8 5 8 -7 12 -19 9 -26 -6 -16 43 -65 64 -65 8 0 12 -4 9 -9 -3 -5
17 -30 44 -55 28 -26 50 -51 50 -57 0 -6 16 -27 35 -47 19 -20 35 -40 35 -43
0 -12 48 -58 54 -51 4 3 4 -1 0 -11 -3 -10 -1 -17 5 -17 6 0 11 5 11 11 0 5 5
7 11 3 8 -5 8 -9 -1 -14 -15 -9 11 -65 35 -74 9 -3 13 -11 9 -17 -5 -8 -3 -9
6 -4 9 5 10 2 6 -13 -4 -12 -1 -26 7 -34 8 -8 18 -24 21 -36 8 -24 -31 -230
-46 -247 -5 -6 -17 1 -32 19 -17 22 -28 28 -46 23 -23 -6 -36 3 -56 38 -7 11
-20 19 -29 17 -13 -3 -16 1 -11 13 4 11 -4 25 -24 41 -16 14 -29 29 -27 33 1
4 -9 18 -23 32 -14 15 -41 46 -60 69 -19 24 -56 65 -81 91 -25 26 -53 58 -62
72 -9 14 -27 27 -39 29 -13 2 -22 9 -20 17 4 17 -46 71 -65 71 -7 0 -13 5 -13
11 0 14 -25 39 -39 39 -6 0 -11 4 -11 10 0 5 -16 27 -35 49 -60 66 -41 99 21
37 23 -23 41 -33 52 -30 12 4 13 3 4 -3 -10 -7 -8 -13 7 -27 11 -10 24 -15 29
-12 5 3 16 -2 23 -11 10 -11 10 -14 2 -9 -9 5 -11 2 -7 -8 7 -18 22 -20 43 -7
11 7 -1 24 -53 75 -37 37 -71 64 -77 61 -5 -4 -12 2 -16 12 -8 22 -38 53 -52
53 -5 0 -18 11 -29 25 -11 14 -24 25 -30 25 -5 0 -17 11 -26 25 -10 15 -26 25
-40 25 -14 0 -26 8 -30 18 -3 9 -9 23 -12 31 -5 10 -2 12 10 8 10 -4 15 -3 11
3 -3 6 -2 10 4 10 6 0 17 14 26 30 18 35 35 39 35 8 0 -34 70 -128 110 -149
19 -10 45 -30 57 -44 15 -17 28 -23 39 -18 13 5 16 3 12 -9 -8 -20 10 -38 39
-38 23 0 29 15 15 36 -15 22 -79 64 -87 56 -5 -4 -5 -2 -2 4 4 6 0 20 -8 30
-8 10 -15 29 -15 41 0 12 -15 33 -32 48 -18 15 -46 43 -61 63 -16 21 -34 37
-40 37 -7 0 -23 9 -37 19 -14 10 -17 16 -8 13 23 -8 30 34 19 103 -1 3 -8 -8
-16 -23 -12 -23 -12 -33 -3 -50 10 -19 9 -20 -3 -10 -13 10 -20 1 -46 -60 -20
-45 -27 -74 -21 -78 7 -4 6 -8 -2 -11 -7 -2 -25 -40 -41 -83 -28 -75 -28 -81
-12 -93 15 -11 19 -10 24 5 4 10 5 28 2 41 -7 31 0 30 86 -15 1 -1 -4 -12 -13
-25 -9 -12 -16 -31 -16 -40 0 -11 -11 -23 -26 -28 -23 -9 -26 -15 -21 -45 5
-30 2 -36 -29 -54 -40 -24 -37 -49 7 -58 16 -3 29 -10 29 -15 0 -11 41 -58 51
-58 4 0 53 -45 110 -101 57 -55 112 -105 122 -110 9 -5 17 -16 17 -23 0 -7 23
-36 50 -65 28 -29 50 -56 50 -60 0 -13 36 -42 43 -34 4 3 7 -1 7 -10 0 -10 20
-41 44 -71 24 -30 52 -68 62 -85 10 -17 24 -29 31 -27 7 3 10 -1 6 -10 -3 -9
5 -27 19 -42 14 -15 34 -43 46 -62 12 -20 30 -47 42 -59 11 -13 20 -27 20 -31
0 -4 9 -18 21 -31 17 -19 19 -32 14 -64 -3 -21 -11 -45 -17 -52 -24 -30 -61
-4 -77 53 -5 20 -25 54 -44 77 -19 23 -40 53 -47 67 -7 14 -26 43 -42 65 -16
22 -58 84 -93 137 -35 54 -80 114 -100 133 -19 20 -35 39 -35 43 0 4 -10 18
-22 32 -13 14 -35 41 -49 60 -15 19 -70 79 -122 133 -53 54 -99 107 -102 117
-4 11 -13 21 -21 21 -8 1 -22 2 -31 3 -27 2 -29 -40 -4 -56 12 -7 21 -19 21
-27 0 -29 24 -81 40 -86 9 -3 32 -26 52 -53 20 -26 55 -67 78 -92 23 -25 56
-64 73 -87 16 -24 36 -43 44 -43 7 0 13 -5 13 -11 0 -11 79 -111 93 -117 4 -2
7 -8 7 -14 0 -11 60 -91 73 -96 4 -2 42 -53 83 -113 42 -60 81 -115 88 -122 7
-6 21 -26 31 -44 10 -17 29 -37 42 -44 24 -13 29 -37 14 -67 -5 -9 -19 -45
-31 -79 -13 -35 -26 -63 -30 -63 -17 0 -40 13 -40 22 0 12 -26 38 -38 38 -5 0
-14 12 -21 26 -16 37 -167 209 -281 320 -219 216 -250 248 -256 267 -3 11 -23
38 -44 61 -20 23 -45 56 -56 74 -10 17 -22 32 -27 32 -4 0 -14 15 -22 34 -10
24 -22 35 -43 39 -26 5 -28 9 -24 37 10 66 45 53 131 -48 59 -69 141 -151 239
-238 60 -53 273 -265 292 -290 8 -10 22 -32 30 -48 8 -16 34 -46 58 -67 25
-22 47 -52 53 -72 11 -41 50 -67 74 -47 29 24 16 54 -58 126 -80 80 -117 120
-117 132 -1 4 -23 31 -50 61 -32 35 -53 51 -62 45 -7 -4 -10 -4 -6 1 9 9 -9
45 -23 45 -5 0 -27 17 -47 38 -122 121 -210 202 -220 202 -7 0 -12 5 -12 10 0
13 -50 63 -85 86 -14 9 -25 22 -25 30 0 7 -13 29 -30 47 -33 39 -37 58 -15 77
19 16 19 39 -1 65 -12 17 -17 18 -35 7 -34 -21 -43 -2 -13 29 24 25 26 31 15
56 -10 24 -8 35 11 73 12 25 21 49 20 54 -2 4 2 13 7 20 5 6 12 28 16 49 4 20
10 37 14 37 12 0 7 36 -6 49 -11 9 -15 7 -23 -14 -6 -15 -10 -32 -10 -38 0 -7
-9 -23 -20 -37 -11 -14 -20 -35 -20 -46 0 -12 -7 -27 -15 -34 -8 -7 -15 -18
-15 -25 0 -17 -33 -45 -53 -45 -22 0 -245 74 -304 102 -27 12 -77 39 -112 60
-34 21 -67 38 -71 38 -4 0 -10 6 -13 13 -2 7 -27 24 -55 37 -28 14 -56 35 -62
46 -7 12 -35 39 -63 60 -29 21 -68 55 -88 76 -20 21 -40 38 -44 38 -4 0 -23
11 -41 25 -28 21 -34 22 -44 10 -7 -8 -16 -12 -21 -9 -15 9 -10 24 9 25 10 0
12 3 5 6 -7 2 -13 10 -13 17 0 7 -12 19 -27 27 -16 8 -34 22 -41 32 -7 9 -22
17 -33 17 -10 0 -19 5 -19 10 0 10 -48 35 -62 32 -5 -1 -8 7 -8 18 0 11 -4 20
-8 20 -5 0 -28 18 -52 40 -25 23 -53 40 -67 40 -12 0 -23 5 -23 11 0 5 5 7 10
4 6 -3 10 -2 10 2 0 5 -29 35 -65 66 -35 32 -67 68 -70 79 -4 11 -13 17 -20
14 -9 -3 -12 0 -8 10 3 8 -6 31 -20 52 -14 20 -28 48 -32 62 -4 14 -17 33 -28
42 l-22 17 21 43 c15 30 19 50 13 65 -8 22 5 78 22 97 5 6 9 18 9 29 0 10 4
16 9 13 5 -3 11 12 14 33 2 21 16 56 31 79 24 38 24 42 8 51 -9 6 -12 11 -6
11 7 0 15 12 18 26 5 20 10 23 21 14 14 -12 15 -11 45 42 8 14 23 40 33 57 16
28 16 30 0 24 -11 -4 -14 -3 -9 5 4 7 16 12 27 12 10 0 20 3 20 8 1 4 3 18 4
32 1 13 8 26 14 28 6 2 9 7 7 11 -3 4 -1 13 4 21 7 12 11 12 26 -1 14 -11 16
-11 10 0 -6 9 -5 12 5 9 8 -3 26 3 40 13 15 10 38 23 51 28 22 8 25 15 22 50
-1 25 1 39 7 35 15 -9 62 -13 82 -8 12 4 17 16 17 43 0 42 23 71 58 71 12 0
26 8 31 18 6 11 35 27 66 36 30 10 57 22 61 27 3 5 24 9 48 9 23 0 51 6 62 14
11 8 30 12 45 9 18 -3 33 1 46 14 10 10 27 17 37 15 10 -2 22 0 28 6 15 15 88
-7 81 -24 -3 -9 2 -14 16 -14 22 0 28 14 11 25 -22 13 4 27 39 21 20 -3 50 -2
66 3 17 4 46 4 65 0 20 -5 39 -4 46 2 8 6 24 3 48 -12 25 -14 44 -19 62 -15
19 5 35 0 59 -19 22 -16 47 -25 72 -25 21 -1 56 -7 78 -15 22 -8 50 -15 62
-15 13 0 21 -5 18 -12 -4 -14 88 -91 123 -102 12 -4 27 -16 33 -27 6 -13 17
-18 26 -15 12 5 13 2 7 -11 -16 -38 -16 -89 0 -102 19 -16 78 -7 97 15 10 13
9 16 -9 21 -12 3 -22 11 -22 18 0 6 -9 20 -20 30 -16 14 -20 31 -20 82 0 57 2
63 21 63 19 0 20 1 3 17 -10 10 -27 23 -38 28 -13 7 -22 22 -24 40 -4 47 -22
105 -32 105 -6 0 -10 -4 -10 -10 0 -5 -7 -10 -16 -10 -14 0 -16 -9 -10 -62 4
-34 8 -67 9 -72 4 -19 -35 -18 -56 2 -12 10 -30 22 -40 25 -9 4 -20 20 -23 37
-8 36 -20 46 -39 30 -10 -8 -18 -8 -34 2 -15 9 -28 9 -48 2 -24 -8 -35 -6 -76
19 -34 21 -51 26 -60 19 -8 -7 -20 -6 -37 3 -31 18 -67 19 -72 3 -3 -8 -16 -5
-42 10 -39 23 -71 28 -81 13 -3 -6 -21 -1 -41 11 -31 18 -38 19 -60 8 -18 -10
-37 -11 -77 -4 -52 10 -54 9 -69 -17 -15 -25 -18 -26 -55 -16 -31 8 -46 7 -73
-6 -21 -10 -52 -15 -77 -13 -37 3 -43 1 -43 -15 0 -13 -8 -19 -22 -20 -29 -2
-29 -2 -60 6 -21 5 -27 3 -33 -15 -4 -12 -14 -20 -24 -18 -17 3 -20 1 -81 -52
-19 -16 -45 -30 -57 -30 -22 0 -58 -45 -76 -92 -3 -10 -15 -18 -26 -18 -13 0
-27 -12 -36 -30 -9 -16 -20 -30 -26 -30 -5 0 -13 -8 -16 -17 -9 -26 -60 -73
-78 -73 -11 0 -15 -11 -15 -36 0 -39 -10 -53 -53 -71 -15 -7 -31 -23 -36 -37
-5 -13 -17 -26 -25 -29 -20 -8 -20 -31 0 -62 9 -14 12 -25 6 -25 -6 0 -14 5
-17 11 -5 7 -16 3 -31 -12 -12 -12 -30 -19 -38 -16 -11 5 -13 -2 -10 -34 3
-24 -1 -53 -12 -77 -21 -44 -85 -135 -91 -128 -11 11 -10 66 2 126 14 69 12
88 -11 69 -15 -12 -18 -7 -14 25 1 11 -8 41 -21 68 -18 40 -20 52 -11 73 12
26 10 36 -28 105 -21 38 -26 90 -10 106 5 5 12 30 14 54 9 81 38 150 63 150
17 0 4 31 -19 48 -31 23 -20 45 40 80 30 17 32 16 32 -16 0 -32 29 -81 30 -50
0 9 -5 20 -11 23 -6 5 -4 12 7 20 20 14 13 45 -11 45 -22 0 -19 46 5 70 11 11
24 20 28 20 5 0 9 6 10 13 10 82 28 107 132 181 49 34 87 38 70 7 -5 -10 -6
-21 -3 -25 3 -3 1 -6 -5 -6 -7 0 -12 -11 -12 -26 0 -19 8 -28 36 -40 23 -10
34 -20 31 -29 -3 -7 1 -16 10 -19 12 -5 14 -2 8 16 -4 13 -13 63 -21 113 -14
83 -13 91 3 102 17 13 53 8 64 -10 9 -14 29 1 29 22 0 35 26 53 96 67 38 7 87
21 109 30 22 10 45 18 50 19 10 1 67 17 143 42 24 7 47 11 50 9 4 -2 23 -7 43
-10 32 -5 39 -2 54 20 13 20 22 24 44 19 15 -3 48 -1 72 6 51 13 73 13 194 5
64 -4 92 -10 98 -21 4 -8 13 -15 18 -15 6 0 7 5 4 10 -3 6 -2 10 4 10 5 0 12
-4 16 -10 3 -5 12 -6 21 -3 13 5 12 9 -7 29 -17 18 -20 30 -15 58 6 29 4 36
-9 36 -26 0 -15 54 11 58 12 2 25 11 28 20 3 9 9 23 12 30 4 7 -2 12 -15 12
-12 0 -21 5 -21 10 0 15 -32 12 -54 -5 -25 -19 -40 -19 -32 0 8 21 -11 19 -23
-2 -6 -10 -11 -12 -11 -5 0 23 -28 12 -34 -13 -8 -31 1 -48 20 -41 8 3 14 -1
14 -10 0 -8 5 -12 10 -9 13 8 12 -19 -4 -78 -11 -42 -14 -46 -25 -33 -8 9 -19
16 -26 16 -6 0 -17 11 -25 24 -13 25 -50 42 -50 23 0 -6 -3 -8 -6 -4 -3 3 -17
-5 -31 -17 -20 -19 -37 -23 -89 -24 -40 -1 -66 3 -71 11 -11 16 -49 37 -68 37
-36 0 -3 56 38 64 51 11 107 14 112 6 6 -10 73 20 79 37 3 7 1 13 -4 13 -6 0
-10 -4 -10 -10 0 -5 -5 -10 -11 -10 -6 0 -8 9 -4 20 5 15 2 20 -12 20 -11 0
-24 -5 -30 -11z m-333 -224 c0 -8 -4 -15 -10 -15 -5 0 -10 7 -10 15 0 8 5 15
10 15 6 0 10 -7 10 -15z m675 5 c3 -5 2 -10 -4 -10 -5 0 -13 5 -16 10 -3 6 -2
10 4 10 5 0 13 -4 16 -10z m-780 -24 l27 -14 -22 -12 c-15 -8 -20 -18 -17 -31
6 -22 -8 -26 -17 -4 -3 8 -17 15 -31 15 -29 0 -31 7 -9 38 18 26 32 27 69 8z
m-100 -26 c-3 -5 -11 -10 -16 -10 -6 0 -7 5 -4 10 3 6 11 10 16 10 6 0 7 -4 4
-10z m-244 -57 c-8 -14 -10 -15 -11 -3 0 8 -3 26 -6 40 l-6 25 16 -22 c13 -17
14 -27 7 -40z m74 27 c-21 -23 -55 -27 -55 -6 0 13 18 21 59 25 10 1 9 -4 -4
-19z m-305 -282 c-1 -7 -12 -26 -26 -43 -28 -33 -28 -34 -8 38 6 19 34 24 34
5z m-70 -98 c0 -12 -28 -25 -36 -17 -9 9 6 27 22 27 8 0 14 -5 14 -10z m-60
-145 c0 -43 -29 -98 -71 -137 -23 -20 -38 -42 -34 -47 3 -6 2 -11 -4 -11 -6 0
-7 -8 -4 -17 4 -11 8 -12 11 -5 2 7 8 12 14 12 14 0 3 -86 -24 -175 -31 -107
-36 -115 -58 -115 -19 0 -21 4 -15 43 9 61 10 128 1 155 -5 15 -3 29 6 39 7 9
12 24 10 34 -2 9 2 20 8 24 5 3 10 20 10 37 0 16 9 43 21 59 11 16 17 34 13
41 -4 7 -4 10 1 6 10 -9 45 29 45 49 0 7 7 13 15 13 8 0 15 5 15 10 0 6 9 10
20 10 15 0 20 -7 20 -25z m-230 -589 c0 -17 -5 -38 -10 -46 -9 -13 -11 -13
-20 0 -11 16 -14 73 -4 83 14 14 34 -7 34 -37z m31 -43 c-8 -15 -10 -15 -11
-2 0 17 10 32 18 25 2 -3 -1 -13 -7 -23z m92 -98 c18 -16 27 -34 27 -54 0 -25
-5 -30 -30 -36 -17 -4 -37 -14 -46 -22 -14 -14 -15 -10 -13 41 1 31 6 56 11
56 4 0 8 9 8 20 0 26 9 25 43 -5z m57 -139 c0 -3 -4 -8 -10 -11 -5 -3 -10 -1
-10 4 0 6 5 11 10 11 6 0 10 -2 10 -4z m48 -95 c27 -96 27 -102 3 -123 -11 -9
-23 -34 -26 -55 -4 -21 -11 -49 -16 -63 -5 -14 -8 -48 -8 -76 1 -28 -5 -61
-13 -73 -11 -20 -11 -24 7 -38 16 -13 17 -15 3 -10 -15 5 -18 0 -18 -29 0 -34
0 -34 20 -16 14 13 20 33 22 74 2 59 15 73 60 69 12 -2 19 8 23 32 6 33 38 63
55 52 13 -8 40 -65 40 -85 0 -9 -4 -20 -9 -26 -14 -14 -17 -384 -4 -384 5 0
14 4 22 9 11 7 10 11 -5 20 -14 8 -15 10 -4 11 13 0 15 18 13 115 -1 63 2 117
8 120 13 9 11 43 -3 48 -24 8 -1 18 26 11 28 -7 57 -50 49 -72 -8 -22 6 -62
22 -62 11 0 12 -5 5 -24 -5 -15 -5 -57 1 -108 11 -101 28 -268 29 -285 0 -7 7
-13 15 -13 17 0 20 -16 6 -25 -9 -5 -6 -84 4 -113 9 -24 25 -1 25 34 0 21 -4
33 -10 29 -5 -3 -10 1 -10 9 0 9 4 16 8 16 15 0 12 51 -3 56 -8 4 -15 10 -15
16 0 5 5 6 10 3 6 -3 10 1 10 9 0 9 -7 16 -15 16 -10 0 -14 10 -13 35 1 19 5
35 9 35 16 0 7 80 -10 90 -15 8 -15 10 1 22 14 10 15 20 9 48 -8 31 -16 26
-12 -7 1 -7 -2 -13 -7 -13 -17 0 -22 13 -9 28 9 12 9 16 0 19 -18 6 -16 30 2
37 8 3 12 12 9 21 -3 8 -10 12 -15 9 -5 -3 -9 -1 -9 4 0 12 47 62 58 62 11 0
82 -89 82 -103 0 -6 -7 -19 -17 -29 -9 -10 -15 -30 -15 -45 3 -61 11 -159 15
-183 3 -14 5 -42 6 -63 1 -26 9 -46 27 -64 14 -14 19 -23 10 -20 -11 4 -16 1
-16 -11 0 -18 19 -54 20 -37 0 6 7 1 15 -9 18 -24 18 -22 4 46 -6 29 -17 56
-23 60 -8 6 -7 8 2 8 17 0 15 27 -3 34 -8 3 -15 13 -15 21 0 9 4 13 10 10 6
-4 8 26 5 80 -5 96 4 130 38 146 20 9 28 5 62 -26 l40 -36 -30 3 c-27 3 -31 0
-39 -35 -8 -30 -7 -40 5 -48 8 -5 9 -9 3 -9 -14 0 -9 -108 7 -157 6 -18 8 -37
4 -43 -10 -16 5 -50 21 -50 8 0 14 -7 14 -15 0 -8 -4 -15 -8 -15 -5 0 -5 -21
-1 -47 4 -27 8 -53 8 -60 1 -6 8 -19 17 -27 8 -9 11 -16 5 -16 -16 0 -13 -32
3 -56 8 -12 15 -30 15 -40 -1 -55 49 -194 68 -194 10 0 13 6 9 16 -3 9 -6 22
-6 30 0 8 -8 14 -17 14 -13 0 -14 3 -6 8 10 6 9 20 -2 62 -8 30 -15 66 -15 80
0 15 -5 31 -11 37 -6 6 -13 37 -15 69 -3 32 -9 63 -14 69 -5 5 -10 35 -13 65
-2 30 -7 62 -10 70 -6 17 -15 72 -23 142 -6 46 11 108 28 108 5 0 8 7 8 15 0
25 28 17 67 -19 l37 -33 -22 -28 c-12 -15 -22 -41 -22 -57 0 -35 26 -48 45
-22 54 70 54 70 69 50 13 -16 13 -21 -1 -43 -14 -21 -15 -32 -5 -69 7 -24 12
-55 12 -68 0 -14 5 -37 11 -53 6 -15 12 -53 14 -84 1 -31 10 -68 19 -82 11
-15 13 -26 6 -29 -7 -2 -7 -14 0 -38 5 -19 10 -49 10 -65 0 -17 4 -35 9 -40 5
-6 11 -30 14 -55 3 -25 11 -73 18 -106 11 -52 16 -61 35 -61 21 0 21 1 9 48
-7 27 -20 56 -29 64 -9 9 -16 24 -16 33 0 15 2 15 10 2 15 -22 13 19 -6 120
-21 115 -29 165 -49 303 -16 107 -16 120 -2 134 25 25 43 9 56 -53 7 -33 17
-66 21 -75 5 -9 12 -33 15 -53 4 -20 11 -34 15 -31 5 3 6 -4 3 -15 -3 -11 -1
-20 3 -20 5 0 10 -10 11 -22 1 -27 6 -49 28 -141 17 -68 17 -69 -4 -83 -22
-16 -29 -68 -11 -79 6 -3 10 -13 10 -20 0 -8 16 -48 35 -89 19 -41 35 -79 35
-85 0 -5 7 -17 16 -26 10 -9 18 -28 20 -41 1 -13 12 -40 23 -60 12 -19 21 -41
21 -48 0 -7 7 -21 15 -32 13 -16 16 -17 25 -4 14 21 12 54 -4 92 -7 18 -22 60
-32 93 -9 33 -22 69 -28 80 -5 11 -11 34 -13 50 -2 17 -15 71 -29 120 -15 50
-27 97 -28 105 -1 9 -5 20 -8 25 -3 6 -12 39 -18 73 -7 35 -18 66 -25 68 -6 3
-10 17 -7 33 2 16 -1 32 -7 35 -12 8 -15 98 -5 109 12 11 60 -24 77 -57 9 -17
18 -49 21 -71 5 -46 32 -192 47 -250 5 -22 12 -51 14 -64 11 -62 77 -318 85
-333 6 -10 10 -27 10 -38 0 -11 4 -28 9 -38 26 -51 40 -132 23 -132 -5 0 -27
16 -49 35 -23 19 -48 35 -56 35 -24 0 -148 111 -173 155 -11 18 -15 18 -34 7
-24 -15 -36 -8 -42 22 -2 14 -17 23 -51 32 -60 15 -74 27 -87 74 -6 21 -17 40
-25 43 -7 3 -17 22 -21 41 -9 51 -28 46 -20 -4 l6 -40 -26 22 c-41 35 -74 72
-74 83 0 5 -14 18 -31 27 -25 15 -28 21 -19 37 14 26 13 57 -2 73 -7 7 -14 22
-15 33 -3 23 -10 68 -13 75 -1 3 -2 8 -1 12 0 5 -2 7 -7 7 -19 -3 -22 2 -8 16
14 14 13 19 -4 50 -11 19 -15 35 -10 35 17 0 11 21 -14 51 l-25 29 6 -62 c2
-35 8 -67 13 -73 4 -5 10 -28 13 -50 12 -77 26 -130 43 -163 12 -25 13 -37 5
-45 -8 -8 -22 -1 -51 28 -22 21 -40 46 -40 55 0 9 -5 21 -11 27 -5 5 -12 28
-15 49 -7 54 -19 62 -38 25 -9 -17 -18 -31 -20 -31 -8 0 -75 99 -97 142 -28
56 -66 101 -74 88 -9 -15 -19 -12 -30 9 -6 10 -24 45 -41 77 -17 33 -34 79
-37 103 -3 24 -11 48 -19 52 -10 7 -10 11 -1 17 7 4 11 32 11 67 0 39 -3 53
-8 40 -7 -19 -8 -18 -12 5 -3 14 -6 1 -7 -28 0 -33 3 -51 9 -47 12 7 12 3 4
-19 -3 -9 -11 -16 -18 -16 -18 0 -76 108 -76 140 0 16 -4 40 -10 54 -5 15 -6
36 0 53 14 46 19 103 9 103 -5 0 -8 -3 -8 -7 4 -25 -4 -34 -11 -13 -8 25 -8
25 -10 -5 -1 -16 -2 -33 -1 -37 1 -8 -20 -5 -38 6 -10 7 -12 22 -6 65 4 31 9
88 11 126 2 39 9 115 15 170 6 55 12 118 14 139 2 22 9 52 16 68 6 16 9 31 5
35 -3 3 -6 1 -6 -5 0 -7 -7 -12 -15 -12 -24 0 -17 20 10 30 14 5 25 14 25 20
0 5 6 10 13 10 9 0 22 -30 35 -79z m-215 40 c4 -21 13 -30 28 -33 38 -5 41
-44 24 -266 -7 -87 -22 -104 -37 -44 -5 18 -12 32 -17 32 -5 0 -8 30 -7 68 2
37 -1 80 -6 97 -4 16 -4 33 1 38 9 9 -5 85 -19 102 -6 7 -5 16 2 23 18 18 25
15 31 -17z m281 -220 c3 -5 -2 -15 -11 -22 -12 -11 -17 -11 -20 -2 -2 7 -11 9
-19 6 -8 -3 -14 1 -14 11 0 17 54 23 64 7z m11 -41 c3 -5 1 -10 -4 -10 -6 0
-11 5 -11 10 0 6 2 10 4 10 3 0 8 -4 11 -10z m300 -320 c3 -5 1 -10 -4 -10 -6
0 -11 5 -11 10 0 6 2 10 4 10 3 0 8 -4 11 -10z m50 -270 c3 -5 3 -15 -1 -21
-6 -11 -23 6 -24 24 0 10 18 9 25 -3z m5 -44 c0 -3 -4 -8 -10 -11 -5 -3 -10
-1 -10 4 0 6 5 11 10 11 6 0 10 -2 10 -4z m1750 -16 c0 -5 -2 -10 -4 -10 -3 0
-8 5 -11 10 -3 6 -1 10 4 10 6 0 11 -4 11 -10z m-330 -50 c0 -5 -5 -10 -11
-10 -5 0 -7 5 -4 10 3 6 8 10 11 10 2 0 4 -4 4 -10z m1060 -150 c0 -5 -2 -10
-4 -10 -3 0 -8 5 -11 10 -3 6 -1 10 4 10 6 0 11 -4 11 -10z m-2100 -40 c0 -5
-4 -10 -10 -10 -5 0 -10 5 -10 10 0 6 5 10 10 10 6 0 10 -4 10 -10z m1290
-182 c31 -32 61 -58 67 -58 6 0 17 -10 26 -22 8 -13 56 -66 106 -118 50 -52
101 -110 114 -128 12 -17 30 -35 39 -38 9 -3 20 -13 23 -23 3 -10 14 -28 23
-39 10 -11 27 -32 37 -46 11 -14 25 -26 31 -26 7 0 14 -7 18 -15 3 -8 13 -15
23 -15 11 0 14 -3 7 -8 -8 -5 1 -26 26 -65 32 -49 38 -64 33 -95 -3 -20 -9
-41 -13 -47 -4 -5 -13 -27 -19 -47 -7 -21 -17 -40 -22 -44 -11 -6 -44 33 -71
83 -22 41 -23 41 5 45 34 5 36 45 2 58 -36 14 -35 14 -35 -22 -1 -31 -1 -32
-15 -13 -8 11 -19 25 -25 32 -5 7 -10 16 -10 22 0 5 -12 22 -27 39 -42 45 -57
65 -72 95 -8 15 -17 27 -21 27 -4 0 -26 27 -48 59 -23 32 -64 82 -92 111 -27
28 -50 55 -50 58 0 7 -13 21 -110 120 -39 39 -76 72 -81 72 -5 0 -9 5 -9 11 0
14 -25 39 -39 39 -6 0 -11 5 -11 10 0 15 18 12 40 -7 11 -10 29 -26 40 -36 18
-16 23 -16 41 -3 20 13 18 16 -40 75 -34 34 -61 67 -61 72 0 6 -6 9 -13 6 -10
-4 -14 6 -15 36 l-2 41 72 -69 c39 -39 97 -96 128 -127z m-951 107 c30 -15 45
-40 35 -56 -3 -5 -1 -24 5 -42 5 -17 12 -50 16 -72 3 -22 9 -53 14 -70 5 -16
12 -48 16 -70 4 -22 13 -53 20 -70 8 -16 19 -55 24 -85 6 -30 18 -80 27 -110
8 -30 18 -68 21 -85 15 -89 44 -180 63 -200 32 -35 19 -65 -27 -65 -44 0 -73
24 -73 61 0 32 -9 60 -19 55 -3 -2 -7 15 -8 38 -2 24 -10 46 -19 53 -12 8 -17
29 -18 67 -1 37 -7 61 -19 74 -10 11 -14 22 -9 23 9 4 0 56 -40 239 -6 30 -18
64 -25 76 -7 11 -10 23 -7 26 10 10 -19 162 -34 180 -12 14 -12 21 -2 33 16
19 24 19 59 0z m-319 -45 c0 -5 -5 -10 -11 -10 -5 0 -7 5 -4 10 3 6 8 10 11
10 2 0 4 -4 4 -10z m897 -12 c-3 -8 -6 -5 -6 6 -1 11 2 17 5 13 3 -3 4 -12 1
-19z m-409 -34 c12 -8 22 -26 22 -38 0 -32 24 -88 34 -79 5 5 5 -2 2 -14 -4
-14 1 -39 14 -67 11 -25 20 -48 20 -51 0 -4 6 -21 14 -38 87 -202 84 -188 57
-297 -32 -129 -53 -163 -70 -117 -6 14 -19 32 -31 40 -18 12 -20 19 -11 35 6
11 8 21 6 24 -3 2 -13 49 -24 104 -11 55 -25 113 -32 129 -7 17 -11 36 -10 42
1 7 -5 25 -13 41 -8 16 -20 60 -27 98 -6 38 -18 73 -25 77 -10 6 -11 13 -4 27
7 14 6 23 -5 34 -16 16 -20 30 -6 22 5 -3 12 5 15 19 7 29 39 33 74 9z m692
-14 c0 -5 -2 -10 -4 -10 -3 0 -8 5 -11 10 -3 6 -1 10 4 10 6 0 11 -4 11 -10z
m-530 -40 c0 -5 11 -10 24 -10 12 0 35 -11 49 -24 15 -14 35 -27 47 -31 16 -5
19 -13 15 -43 -5 -43 -32 -122 -46 -137 -7 -7 -13 -4 -20 7 -5 9 -16 15 -23
12 -17 -6 -31 12 -16 21 15 9 12 51 -5 65 -9 7 -14 26 -12 48 2 32 -1 37 -21
40 -13 2 -25 -3 -28 -12 -3 -9 -15 -16 -26 -16 -14 0 -18 5 -14 16 3 9 6 29 6
45 0 27 3 29 35 29 19 0 35 -4 35 -10z m-26 -156 c3 -8 2 -12 -4 -9 -6 3 -10
10 -10 16 0 14 7 11 14 -7z m36 -42 c0 -25 -7 -31 -31 -25 -22 6 -26 23 -4 23
8 0 15 5 15 10 0 6 5 10 10 10 6 0 10 -8 10 -18z m35 -105 c8 -26 10 -49 6
-51 -10 -7 -53 93 -45 105 10 16 24 -3 39 -54z m675 43 c0 -5 -2 -10 -4 -10
-3 0 -8 5 -11 10 -3 6 -1 10 4 10 6 0 11 -4 11 -10z m-1030 -30 c0 -5 -2 -10
-4 -10 -3 0 -8 5 -11 10 -3 6 -1 10 4 10 6 0 11 -4 11 -10z m483 -94 c9 -7 17
-18 17 -23 0 -6 18 -33 40 -61 45 -57 48 -68 20 -77 -11 -3 -20 -11 -20 -16 0
-14 -27 -11 -44 6 -8 8 -19 15 -25 15 -6 0 -11 5 -11 11 0 6 -9 22 -20 36 -14
18 -20 41 -20 74 0 44 2 49 23 49 12 0 30 -7 40 -14z m23 -256 c166 -171 432
-430 442 -430 6 0 12 -5 12 -11 0 -6 40 -50 88 -98 48 -48 94 -102 101 -119
17 -42 63 -67 92 -52 22 13 18 46 -8 67 -9 7 -30 26 -49 42 -18 17 -36 31 -38
31 -3 0 -31 28 -63 62 -86 93 -155 159 -160 154 -7 -6 -36 25 -51 55 -7 14
-33 41 -57 60 -24 19 -50 46 -59 60 -8 14 -35 44 -60 67 -51 47 -46 67 5 22
19 -16 49 -37 67 -47 17 -10 32 -21 32 -25 0 -5 9 -8 20 -8 11 0 20 -6 20 -13
0 -7 22 -26 48 -44 26 -17 66 -46 88 -64 57 -49 191 -185 210 -214 9 -14 22
-25 29 -25 7 0 15 -16 18 -35 3 -19 15 -48 26 -64 23 -31 28 -93 12 -133 -6
-13 -12 -40 -16 -60 -4 -27 -11 -38 -23 -38 -26 0 -155 119 -287 266 -44 48
-98 104 -120 124 -22 19 -49 44 -60 55 -12 11 -41 36 -65 55 -91 71 -229 204
-258 247 -9 14 -24 47 -32 72 -11 34 -20 46 -35 46 -40 0 -32 -72 13 -123 16
-17 35 -43 42 -57 12 -22 12 -28 -4 -43 -16 -16 -18 -16 -36 8 -11 14 -22 38
-26 53 -3 16 -16 33 -30 39 -28 13 -30 35 -7 86 16 37 19 45 22 90 0 12 11 32
23 44 l21 21 44 -49 c25 -27 55 -60 69 -74z m153 46 c17 -18 19 -26 10 -32 -7
-4 -19 2 -31 16 -34 42 -17 56 21 16z m1141 -22 c129 0 124 2 149 -49 12 -25
26 -45 30 -45 4 0 24 -31 45 -70 20 -38 42 -70 47 -70 5 0 9 -7 9 -15 0 -8 9
-24 20 -35 11 -11 20 -24 20 -29 0 -5 18 -48 40 -95 69 -151 146 -392 157
-493 4 -38 3 -43 -16 -43 -12 0 -26 11 -35 28 -8 16 -22 34 -31 42 -19 15 -55
91 -55 115 0 24 -41 147 -57 172 -8 12 -12 27 -8 33 7 12 -17 95 -45 153 -10
20 -14 35 -10 32 5 -3 4 8 -1 25 -6 16 -17 30 -25 30 -20 0 -29 -29 -17 -49 6
-9 14 -32 18 -51 4 -19 10 -39 14 -45 4 -5 13 -30 21 -55 7 -25 17 -49 22 -54
4 -6 8 -24 8 -41 0 -16 18 -84 39 -150 21 -66 36 -124 31 -128 -22 -24 -180
102 -180 144 0 10 -7 19 -15 19 -8 0 -15 8 -15 18 0 10 -3 22 -7 26 -4 3 -8
17 -10 29 -2 12 -7 31 -12 42 -10 22 -47 120 -55 148 -3 10 -11 15 -17 11 -7
-4 -9 0 -5 14 4 11 2 23 -4 27 -5 3 -10 14 -10 23 0 9 -7 30 -15 46 -9 16 -13
31 -11 34 3 2 -13 39 -35 81 -25 48 -42 96 -46 131 -8 74 -32 89 -54 33 -13
-35 -25 -21 -26 32 -1 46 0 46 26 38 14 -4 69 -8 121 -9z m-196 -57 c9 -23 16
-51 16 -61 0 -9 7 -24 15 -33 8 -8 13 -19 10 -24 -4 -5 1 -19 9 -31 9 -12 16
-28 16 -35 0 -6 5 -24 12 -40 6 -15 12 -34 14 -41 1 -7 12 -28 23 -48 12 -19
21 -43 21 -53 0 -21 27 -78 41 -86 5 -4 9 -16 9 -28 0 -12 16 -53 35 -92 19
-38 35 -75 35 -80 0 -6 13 -26 29 -45 31 -37 52 -35 33 3 -21 42 -75 162 -77
172 -2 6 -21 49 -44 96 -22 48 -41 98 -41 112 0 14 -4 29 -10 32 -15 9 -41
108 -31 118 5 5 12 1 16 -12 3 -12 11 -21 16 -21 5 0 9 -9 9 -20 0 -11 4 -28
9 -38 11 -19 49 -117 91 -232 15 -42 32 -84 37 -95 65 -127 77 -171 43 -160
-12 4 -26 0 -36 -9 -28 -29 -104 5 -104 46 0 10 7 21 15 24 24 10 18 50 -10
68 -14 9 -25 25 -25 36 0 11 -11 41 -24 67 -14 27 -30 62 -37 78 -10 28 -12
28 -20 10 -5 -15 -8 -8 -8 25 -1 38 -31 133 -62 192 -5 10 -9 26 -9 36 0 10
-3 22 -7 26 -4 4 -7 19 -8 34 0 20 -5 27 -20 27 -17 0 -21 -9 -27 -73 -4 -40
-11 -87 -16 -104 l-8 -32 -22 36 c-25 41 -28 78 -8 116 7 15 20 41 30 59 9 17
16 40 16 50 0 22 22 73 31 73 4 0 14 -19 23 -43z m486 29 c14 -4 72 -11 130
-17 57 -5 107 -12 110 -15 3 -3 5 -29 6 -57 1 -34 10 -70 26 -103 14 -29 31
-73 39 -98 7 -25 17 -46 21 -46 4 0 8 -7 8 -15 0 -8 -5 -15 -10 -15 -6 0 -10
-6 -8 -14 2 -8 -1 -15 -7 -15 -5 -1 -10 7 -10 17 -1 24 -25 83 -42 104 -21 24
-73 137 -73 158 0 29 -27 45 -55 32 -31 -14 -32 -45 -4 -91 21 -36 19 -52 -5
-32 -8 7 -20 10 -25 7 -5 -4 -12 -2 -16 4 -3 5 -1 10 4 10 18 0 13 16 -16 51
-52 61 -76 79 -115 85 -45 8 -49 11 -37 43 9 24 9 24 79 7z m1069 -65 c19 -65
20 -236 2 -236 -7 0 -21 24 -31 57 -10 32 -27 73 -38 93 -25 41 -37 116 -20
126 6 4 25 7 43 6 28 -1 33 -5 44 -46z m111 21 c0 -15 5 -33 11 -39 8 -8 4
-21 -13 -47 -12 -20 -27 -36 -33 -36 -14 0 -6 133 8 142 21 13 27 9 27 -20z
m-373 -5 c7 -5 15 -29 19 -54 6 -38 4 -49 -12 -60 -31 -23 -43 -15 -46 30 -3
40 -4 42 -33 39 -44 -5 -52 -18 -28 -44 11 -13 31 -54 44 -93 13 -38 29 -74
37 -78 8 -6 11 -19 6 -42 -3 -19 1 -56 9 -87 24 -84 30 -153 17 -193 -6 -19
-16 -35 -21 -35 -6 0 -8 9 -4 19 3 11 -1 43 -10 73 -9 29 -20 69 -25 88 -5 19
-23 80 -40 135 -16 54 -30 109 -30 120 0 12 -5 26 -12 33 -7 7 -12 41 -12 79
0 67 0 68 29 74 42 9 98 7 112 -4z m118 -21 c-5 -26 0 -45 24 -88 41 -73 83
-197 76 -226 -3 -12 -15 -32 -26 -43 -27 -27 -33 -19 -55 80 -9 41 -23 93 -31
115 -8 23 -17 55 -20 71 -2 17 -9 34 -14 40 -13 13 -11 59 3 73 7 7 20 12 30
12 16 0 18 -5 13 -34z m-617 12 c28 -35 113 -227 145 -328 53 -165 109 -414
112 -495 3 -76 -12 -115 -44 -115 -25 0 -33 11 -20 27 13 15 8 62 -15 139 -8
27 -19 81 -26 119 -14 85 -29 160 -41 200 -4 17 -11 43 -14 59 -5 21 -9 26
-14 17 -5 -8 -8 4 -7 29 0 27 -5 46 -15 53 -9 7 -14 18 -11 26 7 20 -19 91
-31 84 -6 -4 -8 0 -4 11 4 9 -3 40 -14 68 -11 29 -18 60 -16 70 3 10 1 21 -4
24 -12 7 -12 24 0 24 5 0 13 -6 19 -12z m158 -15 c4 -16 9 -32 13 -38 21 -38
62 -174 133 -445 45 -173 46 -180 50 -250 2 -53 0 -65 -13 -68 -18 -3 -20 3
-70 233 -33 153 -69 279 -134 465 -35 98 -36 105 -19 117 26 19 33 16 40 -14z
m139 17 c3 -5 -5 -15 -19 -21 -14 -7 -28 -20 -31 -31 -4 -10 -10 -18 -15 -18
-14 0 -17 23 -7 53 7 21 15 27 37 27 16 0 32 -4 35 -10z m-52 -101 c-4 -16 -8
-17 -14 -7 -13 19 -11 28 5 28 9 0 12 -7 9 -21z m-2287 -84 c35 -36 64 -70 64
-75 0 -6 4 -10 9 -10 5 0 38 -28 74 -62 115 -111 259 -242 287 -263 15 -11 36
-31 45 -45 16 -24 40 -43 114 -92 14 -10 22 -18 17 -18 -15 0 66 -71 92 -81
39 -15 37 -3 -7 39 -22 21 -43 37 -45 35 -2 -2 -13 11 -25 29 -11 18 -55 65
-97 103 -42 39 -98 90 -124 115 -25 25 -78 74 -116 109 -187 173 -201 189
-174 206 6 3 10 -1 10 -9 0 -9 5 -16 11 -16 12 0 172 -125 201 -157 9 -10 32
-31 51 -48 19 -16 72 -64 118 -106 131 -119 156 -139 162 -133 3 3 8 -3 11
-14 7 -22 76 -79 89 -74 5 1 6 -2 3 -7 -4 -5 16 -28 43 -51 67 -57 80 -122 15
-79 -16 10 -37 19 -46 19 -10 0 -18 7 -18 15 0 17 -2 18 -24 9 -19 -7 -21 -24
-3 -24 7 0 19 -10 27 -21 16 -23 54 -60 85 -82 12 -10 15 -20 11 -35 -10 -30
-21 -28 -69 13 -22 19 -44 35 -49 35 -4 0 -8 5 -8 10 0 9 -74 82 -188 186 -24
21 -60 55 -80 75 -21 20 -57 52 -82 71 -91 70 -349 324 -407 400 -15 21 -36
37 -45 38 -10 0 -18 3 -18 8 0 16 13 52 18 52 3 0 34 -29 68 -65z m2304 45 c0
-6 11 -15 25 -20 17 -6 23 -14 19 -25 -4 -9 7 -46 24 -83 49 -107 84 -253 86
-357 0 -52 -3 -92 -9 -94 -11 -5 -18 17 -33 99 -6 30 -16 69 -23 85 -7 17 -11
34 -10 39 4 17 -37 183 -50 201 -4 6 -14 39 -23 74 -9 36 -21 70 -27 78 -9 10
-8 13 5 13 9 0 16 -5 16 -10z m-432 -95 c11 -14 86 -171 110 -230 43 -106 52
-132 70 -200 29 -108 42 -164 42 -182 0 -27 -15 -3 -29 45 -6 23 -16 42 -21
42 -14 0 -40 67 -40 101 0 16 -5 29 -12 29 -6 0 -9 3 -5 6 3 3 -11 43 -30 87
-20 45 -49 118 -65 162 -16 44 -37 99 -48 122 -11 24 -20 51 -20 60 1 18 1 18
48 -42z m-1908 -30 c5 3 12 0 16 -6 4 -7 3 -9 -4 -6 -18 12 -1 -75 23 -113 17
-27 20 -40 12 -57 -8 -19 -6 -27 16 -47 15 -14 27 -29 27 -33 0 -13 145 -153
159 -153 6 0 11 -6 11 -13 0 -7 23 -33 52 -58 29 -24 72 -63 97 -86 25 -24 51
-43 58 -43 7 0 13 -7 13 -16 0 -8 5 -12 10 -9 6 3 10 2 10 -4 0 -15 141 -161
153 -158 6 1 11 -6 12 -15 0 -9 46 -64 103 -122 73 -76 102 -113 102 -130 0
-14 -4 -27 -9 -30 -9 -6 -81 62 -81 76 0 4 -4 8 -10 8 -12 0 -23 10 -134 134
-95 105 -278 289 -368 371 -63 56 -197 205 -198 219 0 4 -11 17 -25 28 -14 11
-25 26 -25 34 0 8 -4 14 -9 14 -5 0 -14 15 -21 34 -9 29 -16 35 -46 38 -46 5
-61 -12 -44 -52 7 -17 22 -37 34 -46 17 -12 21 -25 22 -82 1 -73 9 -109 30
-130 8 -7 11 -18 8 -24 -10 -15 -81 60 -87 92 -7 35 -37 48 -54 24 -20 -27
-16 -39 27 -78 22 -20 40 -39 40 -42 0 -4 10 -17 23 -29 12 -13 36 -38 52 -57
36 -41 92 -81 98 -71 2 5 2 3 1 -4 -2 -9 376 -395 587 -600 24 -23 53 -52 64
-63 14 -16 28 -20 47 -16 35 7 29 -13 -12 -36 -45 -26 -92 -14 -130 33 -17 22
-59 62 -93 90 -34 28 -109 95 -167 148 -58 54 -139 128 -180 166 -102 93 -245
241 -283 293 -18 25 -36 41 -44 37 -8 -2 -13 1 -12 8 1 6 -1 19 -4 27 -62 157
-63 175 -26 317 10 40 19 83 19 96 0 20 23 87 61 177 l11 25 29 -33 c16 -18
34 -30 39 -27z m1177 4 c4 -16 11 -19 29 -15 17 5 24 2 24 -7 0 -8 29 -72 64
-143 35 -71 76 -158 91 -194 15 -36 31 -69 36 -74 18 -19 9 -36 -18 -36 -24 0
-84 17 -133 37 -8 3 -24 8 -35 10 -24 4 -99 53 -148 96 l-38 34 15 38 c9 20
16 50 16 66 0 16 4 29 8 29 9 0 32 -44 32 -60 0 -25 85 -147 115 -167 19 -13
37 -23 40 -23 12 0 3 49 -15 85 -11 22 -20 47 -20 57 0 9 -4 20 -10 23 -5 3
-10 1 -10 -6 0 -7 -2 -10 -5 -7 -3 3 0 29 6 58 10 46 9 55 -5 65 -9 7 -16 19
-16 27 0 9 -7 21 -15 28 -12 10 -20 7 -42 -19 -32 -36 -58 -42 -48 -10 17 53
56 129 66 129 6 0 13 -9 16 -21z m1493 -108 c0 -11 7 -32 16 -48 15 -26 15
-31 -2 -70 -27 -62 -54 -59 -55 5 -1 53 -2 65 -20 139 -6 28 -9 59 -5 69 6 15
12 10 37 -29 16 -26 29 -56 29 -66z m-2545 -62 c11 -17 -1 -21 -15 -4 -8 9 -8
15 -2 15 6 0 14 -5 17 -11z m55 -39 c0 -5 -7 -10 -16 -10 -8 0 -12 5 -9 10 3
6 10 10 16 10 5 0 9 -4 9 -10z m1976 -155 c3 -21 10 -46 15 -55 21 -40 49
-204 32 -186 -15 15 -35 86 -49 176 -9 52 -20 99 -25 105 -5 5 -9 18 -9 30 1
18 2 18 15 -5 7 -14 17 -43 21 -65z m-1914 37 c2 -4 28 -28 58 -52 30 -25 61
-51 68 -57 7 -7 17 -13 22 -13 10 0 254 -241 296 -291 108 -132 161 -189 176
-189 19 0 25 -34 9 -59 -12 -19 -47 1 -66 39 -9 17 -19 30 -24 30 -4 0 -14 11
-21 25 -7 14 -18 25 -24 25 -6 0 -21 15 -34 33 -30 44 -363 379 -435 437 -59
48 -78 80 -47 80 10 0 20 -3 22 -8z m-201 -51 c8 -11 49 -61 92 -113 106 -125
107 -127 107 -138 0 -6 5 -10 10 -10 6 0 10 -4 10 -10 0 -31 -212 152 -247
214 -32 54 -6 105 28 57z m-227 -164 c11 -23 22 -44 26 -47 18 -15 51 -72 45
-78 -4 -4 -10 -1 -12 6 -3 6 -8 12 -13 12 -15 0 -66 57 -62 69 2 6 -1 11 -7
11 -6 0 -11 16 -11 35 0 46 11 44 34 -8z m2260 -54 c6 -18 4 -22 -8 -17 -9 3
-17 9 -17 13 -1 3 -3 19 -5 35 -3 27 -2 28 10 10 7 -10 16 -29 20 -41z m-1989
38 c3 -5 1 -12 -5 -16 -5 -3 -10 1 -10 9 0 18 6 21 15 7z m33 -38 c10 -10 38
-34 63 -54 120 -99 206 -179 394 -366 133 -132 156 -149 184 -133 12 6 21 20
21 30 0 27 5 25 46 -14 l34 -33 -14 -67 c-14 -69 -26 -95 -26 -58 0 13 -13 29
-37 43 -64 39 -209 170 -393 353 -96 96 -184 183 -195 194 -37 34 -105 110
-105 116 0 10 9 7 28 -11z m325 -146 c212 -212 317 -324 317 -335 0 -6 -6 -12
-12 -15 -19 -6 -48 4 -48 17 0 6 -19 27 -41 46 -62 53 -179 175 -258 270 -39
47 -82 98 -96 114 -22 26 -33 56 -20 56 3 0 74 -69 158 -153z m-668 113 c12
-13 16 -28 12 -48 -7 -35 7 -52 44 -52 16 0 39 -10 53 -22 13 -13 57 -52 97
-88 203 -180 449 -418 449 -434 0 -17 -34 -1 -87 41 -32 26 -60 50 -63 53 -16
17 -111 89 -142 109 -21 12 -38 27 -38 32 0 4 -12 15 -27 23 -16 8 -39 25 -54
37 -14 13 -41 36 -60 51 -69 52 -160 143 -181 180 -25 45 -47 48 -70 11 -15
-25 -15 -28 19 -75 38 -52 206 -224 294 -300 93 -80 150 -128 153 -128 2 0 13
9 26 20 13 11 26 20 29 20 3 -1 23 -16 44 -34 28 -25 34 -36 25 -43 -17 -13
-184 -2 -181 12 3 21 -19 46 -55 60 -20 9 -55 34 -77 56 -54 53 -132 125 -191
174 -88 74 -134 118 -134 127 0 5 -7 17 -16 25 -9 9 -13 25 -10 38 8 31 47
111 79 163 12 18 42 15 62 -8z m1028 -131 c26 -26 47 -52 47 -58 0 -27 -24
-15 -89 45 -80 74 -115 119 -106 134 7 11 53 -27 148 -121z m1437 86 c0 -3
-11 -5 -25 -5 -26 0 -29 7 -19 33 5 13 8 13 25 -4 10 -10 19 -21 19 -24z
m-1950 1 c0 -3 -4 -8 -10 -11 -5 -3 -10 -1 -10 4 0 6 5 11 10 11 6 0 10 -2 10
-4z m-668 -201 c11 -14 25 -25 31 -25 7 0 23 -24 36 -54 13 -30 36 -67 51 -83
106 -110 180 -219 164 -244 -9 -15 -44 -10 -44 6 0 8 -17 26 -37 39 -58 37
-123 109 -138 152 -17 51 -51 59 -66 16 -7 -22 -15 -29 -28 -25 -11 3 -22 0
-26 -7 -15 -24 -8 -99 14 -145 12 -26 21 -48 19 -50 -8 -7 -103 -23 -111 -18
-5 3 -5 23 -2 45 6 35 5 40 -15 45 -20 5 -22 10 -16 49 3 24 17 66 31 94 14
27 25 55 25 61 0 19 74 169 84 169 4 0 17 -11 28 -25z m113 -368 c47 -50 46
-69 -2 -65 -31 3 -42 10 -70 50 -31 45 -57 123 -47 140 3 4 23 -13 45 -40 22
-26 55 -64 74 -85z m287 -4 c26 -23 22 -33 -12 -33 -22 0 -30 5 -30 18 0 34
15 40 42 15z"/>
<path d="M1520 5358 c0 -16 5 -28 10 -28 13 0 13 20 0 40 -8 12 -10 9 -10 -12z"/>
<path d="M1685 4270 c-7 -12 3 -68 13 -74 4 -2 8 16 10 40 3 41 -9 57 -23 34z"/>
<path d="M1675 4110 c2 -52 4 -101 4 -107 1 -16 31 -17 31 -2 0 5 -4 7 -10 4
-5 -3 -10 -2 -10 4 0 5 6 11 13 14 9 3 8 8 -3 22 -11 14 -12 19 -2 22 13 5 17
73 3 73 -4 0 -13 15 -19 33 -9 26 -10 15 -7 -63z"/>
<path d="M1701 4164 c0 -11 3 -14 6 -6 3 7 2 16 -1 19 -3 4 -6 -2 -5 -13z"/>
<path d="M1796 3855 c4 -8 11 -15 16 -15 6 0 5 6 -2 15 -7 8 -14 15 -16 15 -2
0 -1 -7 2 -15z"/>
<path d="M1800 3802 c0 -5 7 -9 15 -9 8 0 15 4 15 9 0 4 -7 8 -15 8 -8 0 -15
-4 -15 -8z"/>
<path d="M1810 3752 c0 -10 6 -24 13 -31 10 -11 10 -14 0 -18 -22 -8 -15 -50
8 -56 18 -5 20 -2 15 16 -3 12 -6 41 -6 65 0 31 -4 42 -15 42 -8 0 -15 -8 -15
-18z"/>
<path d="M2331 3647 c16 -13 14 -42 -2 -31 -6 3 -7 -5 -3 -23 4 -15 7 -36 6
-45 0 -10 5 -18 11 -18 8 0 12 -27 12 -88 0 -49 8 -115 17 -152 10 -36 27
-108 39 -160 12 -52 28 -102 34 -110 7 -8 18 -39 25 -68 13 -55 25 -71 43 -53
7 7 6 12 -6 17 -12 4 -17 18 -17 45 0 22 -5 47 -10 57 -6 9 -19 53 -29 97 -11
44 -20 74 -20 67 -1 -7 -5 -10 -11 -7 -13 8 -13 42 -1 47 12 4 -14 161 -28
166 -5 2 -7 21 -4 42 4 25 1 46 -8 56 -8 10 -9 18 -2 22 6 5 6 30 0 80 -10 68
-12 72 -36 72 -23 -1 -24 -2 -10 -13z"/>
<path d="M1823 3585 c5 -31 35 -71 45 -60 9 8 -12 55 -25 55 -9 0 -13 6 -10
15 4 8 1 17 -5 21 -8 5 -9 -4 -5 -31z"/>
<path d="M1990 3465 c0 -8 5 -15 11 -15 6 0 8 -7 5 -16 -7 -19 3 -64 15 -64 9
0 10 36 2 83 -5 28 -33 39 -33 12z"/>
<path d="M2020 3349 c0 -5 5 -7 10 -4 6 3 10 8 10 11 0 2 -4 4 -10 4 -5 0 -10
-5 -10 -11z"/>
<path d="M2560 2901 c0 -33 19 -73 33 -68 12 4 12 17 2 65 -6 27 -35 30 -35 3z"/>
<path d="M3693 3286 c0 -15 10 -26 105 -116 28 -28 52 -53 52 -56 0 -2 12 -18
28 -34 15 -15 40 -44 57 -63 16 -19 35 -33 42 -30 9 3 13 -4 13 -20 0 -15 10
-33 25 -45 14 -11 25 -25 25 -32 0 -7 10 -25 23 -40 12 -16 30 -40 40 -55 10
-14 22 -23 28 -20 5 4 10 0 11 -7 0 -7 2 -17 2 -23 4 -26 23 -45 39 -39 15 5
15 8 0 37 -27 53 -77 117 -89 113 -7 -3 -9 5 -6 20 2 13 0 24 -5 24 -5 0 -17
13 -26 30 -10 16 -30 42 -45 58 -50 53 -92 105 -92 114 0 5 -5 6 -11 3 -10 -7
-46 33 -42 47 2 4 -5 9 -15 12 -9 3 -22 16 -27 28 -6 13 -16 22 -23 21 -7 -2
-11 0 -10 5 2 4 -11 24 -27 44 -30 38 -72 52 -72 24z"/>
<path d="M4747 2603 c-13 -13 -7 -48 19 -103 44 -91 52 -105 68 -108 18 -4 21
19 7 46 -5 9 -17 34 -25 54 -9 20 -21 40 -27 43 -5 4 -7 15 -4 24 6 19 -27 56
-38 44z"/>
<path d="M4622 2588 c-16 -16 -15 -21 9 -73 18 -38 25 -45 43 -39 19 6 19 5 7
-10 -12 -14 -9 -29 26 -114 22 -53 46 -115 52 -137 12 -40 19 -58 39 -105 6
-14 27 -65 46 -114 41 -104 50 -115 74 -100 28 18 27 46 -2 69 -15 12 -33 39
-41 61 -8 21 -19 38 -25 36 -6 -1 -9 2 -6 6 9 15 -29 117 -42 114 -7 -1 -12 9
-12 22 0 40 -12 86 -21 80 -5 -3 -6 1 -3 9 6 17 -33 97 -48 97 -6 0 -8 10 -4
24 4 15 -3 41 -19 72 -14 27 -25 58 -24 69 2 37 -1 45 -19 45 -10 0 -23 -5
-30 -12z"/>
<path d="M2919 6417 c6 -8 8 -16 6 -19 -3 -3 3 -8 15 -11 13 -3 20 0 20 9 0 8
-7 14 -15 14 -8 0 -15 5 -15 10 0 6 -5 10 -11 10 -8 0 -9 -4 0 -13z"/>
<path d="M3240 6360 c-13 -8 -12 -10 3 -10 9 0 17 5 17 10 0 12 -1 12 -20 0z"/>
<path d="M3360 6345 c-6 -8 -9 -18 -6 -23 8 -14 45 -22 52 -11 3 5 0 9 -5 9
-6 0 -11 6 -11 14 0 22 -16 28 -30 11z"/>
<path d="M2717 6289 c7 -7 15 -10 18 -7 3 3 -2 9 -12 12 -14 6 -15 5 -6 -5z"/>
<path d="M3507 6269 c-10 -6 -15 -14 -12 -20 10 -14 45 -11 45 5 0 21 -12 26
-33 15z"/>
<path d="M3190 6186 c0 -19 21 -66 30 -66 3 0 12 -15 20 -34 11 -28 17 -33 41
-32 23 2 34 -5 52 -31 12 -18 25 -33 30 -33 4 0 7 -9 7 -20 0 -18 1 -18 29 -2
33 18 47 62 31 93 -8 15 -22 19 -58 19 -41 0 -49 3 -59 27 -7 15 -13 35 -13
45 0 10 -7 18 -16 18 -8 0 -13 4 -10 9 3 4 -5 6 -18 4 -13 -3 -33 0 -45 6 -17
10 -21 9 -21 -3z"/>
<path d="M3700 6161 c0 -17 51 -50 88 -57 20 -4 45 -15 56 -25 29 -28 46 -24
46 11 0 23 -4 30 -20 30 -11 0 -20 7 -20 15 0 8 -9 15 -19 15 -11 0 -23 5 -26
10 -8 13 -105 13 -105 1z"/>
<path d="M2622 6108 c-7 -7 -12 -23 -12 -36 0 -18 4 -23 16 -18 11 4 18 -1 21
-14 3 -11 9 -17 14 -14 5 3 6 16 3 28 -3 15 1 29 11 40 14 13 14 16 2 16 -9 0
-21 2 -29 5 -7 3 -19 0 -26 -7z"/>
<path d="M2879 6100 c-18 -14 -20 -19 -8 -20 18 0 53 -36 63 -64 14 -39 18 -5
5 39 -18 61 -30 70 -60 45z"/>
<path d="M2820 6080 c0 -5 5 -10 10 -10 6 0 10 5 10 10 0 6 -4 10 -10 10 -5 0
-10 -4 -10 -10z"/>
<path d="M2790 6070 c0 -5 5 -10 10 -10 6 0 10 5 10 10 0 6 -4 10 -10 10 -5 0
-10 -4 -10 -10z"/>
<path d="M2482 6053 c4 -19 38 -31 38 -14 0 6 -7 11 -16 11 -8 0 -12 5 -9 10
3 6 1 10 -5 10 -6 0 -10 -8 -8 -17z"/>
<path d="M2266 6022 c-3 -5 -7 -19 -10 -33 -2 -13 -11 -37 -19 -53 -16 -30
-12 -70 4 -44 8 11 10 11 18 0 6 -10 10 -8 14 8 3 12 15 24 26 27 38 10 24
103 -15 103 -7 0 -15 -4 -18 -8z"/>
<path d="M2360 6015 c-16 -19 -6 -43 22 -54 31 -12 40 -1 32 37 -7 35 -32 43
-54 17z"/>
<path d="M3890 6024 c0 -14 132 -134 141 -129 38 24 -53 135 -111 135 -16 0
-30 -3 -30 -6z"/>
<path d="M3456 5994 c-3 -7 1 -18 9 -24 8 -7 17 -21 21 -33 10 -31 31 -50 37
-34 3 7 6 5 6 -5 1 -9 -3 -20 -9 -23 -18 -11 -11 -41 15 -63 14 -13 30 -34 36
-49 7 -20 12 -24 22 -14 9 9 8 16 -2 33 -11 18 -11 22 3 30 18 10 22 53 6 63
-6 4 -8 10 -5 15 3 5 -6 12 -19 16 -17 4 -33 21 -47 49 -22 44 -63 66 -73 39z"/>
<path d="M3181 5983 c-1 -7 -8 -13 -16 -13 -8 0 -15 -6 -15 -12 1 -14 30 -57
30 -44 0 5 9 -2 19 -15 l19 -24 -1 38 c0 20 -4 37 -7 37 -4 0 -12 10 -18 23
-6 12 -11 16 -11 10z"/>
<path d="M2820 5971 c0 -6 5 -13 10 -16 6 -3 10 -15 10 -26 0 -26 29 -69 46
-69 8 0 14 9 14 20 0 11 -4 20 -8 20 -5 0 -18 18 -31 40 -21 37 -41 52 -41 31z"/>
<path d="M2430 5908 c0 -9 5 -20 10 -23 13 -8 13 5 0 25 -8 13 -10 13 -10 -2z"/>
<path d="M2580 5905 c0 -5 5 -17 10 -25 5 -8 10 -10 10 -5 0 6 -5 17 -10 25
-5 8 -10 11 -10 5z"/>
<path d="M2150 5880 c6 -11 13 -20 16 -20 2 0 0 9 -6 20 -6 11 -13 20 -16 20
-2 0 0 -9 6 -20z"/>
<path d="M2325 5879 c-10 -15 3 -25 16 -12 7 7 7 13 1 17 -6 3 -14 1 -17 -5z"/>
<path d="M4046 5871 c-3 -5 10 -26 29 -47 19 -21 35 -44 35 -51 0 -7 4 -13 10
-13 5 0 14 -18 20 -40 9 -33 15 -40 35 -40 27 0 33 24 16 58 -14 25 -24 56
-23 65 1 4 -6 7 -16 7 -23 0 -42 19 -42 42 0 11 -5 15 -15 12 -8 -4 -15 -1
-15 5 0 13 -26 15 -34 2z"/>
<path d="M2165 5840 c3 -5 8 -10 11 -10 2 0 4 5 4 10 0 6 -5 10 -11 10 -5 0
-7 -4 -4 -10z"/>
<path d="M2348 5823 c7 -3 16 -2 19 1 4 3 -2 6 -13 5 -11 0 -14 -3 -6 -6z"/>
<path d="M2350 5790 c0 -5 5 -10 10 -10 6 0 10 5 10 10 0 6 -4 10 -10 10 -5 0
-10 -4 -10 -10z"/>
<path d="M1911 5753 c0 -16 3 -22 6 -15 2 6 9 10 14 6 5 -3 9 4 9 15 0 12 -7
21 -15 21 -10 0 -15 -9 -14 -27z"/>
<path d="M3706 5754 c-9 -22 -8 -23 14 -17 23 6 26 19 6 26 -8 3 -17 -1 -20
-9z"/>
<path d="M2257 5753 c-11 -11 -8 -23 6 -20 6 1 11 -4 10 -10 -2 -7 6 -29 17
-48 11 -20 20 -43 20 -53 0 -9 5 -24 11 -32 8 -11 9 -2 5 34 -3 27 -11 55 -17
62 -6 8 -9 20 -6 27 3 8 -3 21 -14 31 -22 18 -23 19 -32 9z"/>
<path d="M2082 5738 c-16 -16 -15 -37 2 -44 8 -3 12 -13 10 -22 -5 -23 20 -54
39 -47 12 5 13 12 4 36 -6 16 -19 32 -29 35 -13 4 -16 12 -12 30 7 27 4 30
-14 12z"/>
<path d="M3611 5694 c0 -11 3 -14 6 -6 3 7 2 16 -1 19 -3 4 -6 -2 -5 -13z"/>
<path d="M1816 5682 c-3 -5 1 -9 9 -9 8 0 15 4 15 9 0 4 -4 8 -9 8 -6 0 -12
-4 -15 -8z"/>
<path d="M3640 5655 c0 -9 5 -15 11 -13 6 2 11 8 11 13 0 5 -5 11 -11 13 -6 2
-11 -4 -11 -13z"/>
<path d="M3775 5640 c-6 -10 7 -50 16 -50 5 0 9 7 9 15 0 8 5 15 10 15 6 0 10
6 10 14 0 14 -37 18 -45 6z"/>
<path d="M2146 5617 c-19 -14 -19 -15 2 -37 27 -29 36 -22 25 19 -7 29 -10 31
-27 18z"/>
<path d="M2351 5564 c0 -11 3 -14 6 -6 3 7 2 16 -1 19 -3 4 -6 -2 -5 -13z"/>
<path d="M3870 5559 c0 -5 -4 -7 -10 -4 -5 3 -9 -9 -8 -29 1 -32 3 -34 14 -18
11 14 15 15 23 3 10 -15 31 -7 31 13 0 13 -31 46 -43 46 -4 0 -7 -5 -7 -11z"/>
<path d="M4304 5541 c3 -5 -1 -11 -9 -15 -8 -3 -12 -12 -9 -19 7 -18 89 -107
99 -107 4 0 16 -11 27 -25 23 -30 38 -31 60 -6 15 18 14 21 -12 50 -16 17 -33
31 -39 31 -5 0 -11 3 -13 8 -1 4 -22 19 -45 35 -24 15 -43 34 -43 42 0 8 -5
15 -11 15 -5 0 -8 -4 -5 -9z"/>
<path d="M2187 5517 c3 -13 13 -29 24 -35 22 -14 24 -4 7 33 -14 32 -37 33
-31 2z"/>
<path d="M4335 5360 c-3 -5 -1 -10 4 -10 6 0 11 5 11 10 0 6 -2 10 -4 10 -3 0
-8 -4 -11 -10z"/>
<path d="M4476 5322 c-2 -4 -1 -14 5 -22 7 -12 9 -10 9 8 0 23 -5 28 -14 14z"/>
<path d="M4467 5263 c-8 -12 9 -36 21 -32 7 3 6 10 -3 22 -7 10 -15 14 -18 10z"/>
<path d="M4519 5143 c-1 -10 -2 -29 -2 -43 -1 -14 3 -29 9 -35 15 -13 44 -107
44 -142 1 -82 42 -52 48 35 3 51 1 61 -28 101 -17 24 -27 40 -21 37 6 -4 11
-3 11 3 0 5 -14 12 -30 16 -24 5 -29 10 -20 20 8 9 8 15 0 20 -5 3 -10 -2 -11
-12z"/>
<path d="M3843 5042 c-16 -26 -1 -43 38 -45 29 -2 33 1 31 18 -7 38 -51 55
-69 27z m47 -32 c0 -5 -5 -10 -11 -10 -5 0 -7 5 -4 10 3 6 8 10 11 10 2 0 4
-4 4 -10z"/>
<path d="M3850 4917 c0 -45 41 -63 60 -26 14 26 -3 49 -36 49 -18 0 -24 -5
-24 -23z"/>
<path d="M2018 4913 c6 -2 9 -10 6 -15 -4 -7 -2 -8 4 -4 18 11 14 26 -5 25
-11 0 -13 -3 -5 -6z"/>
<path d="M3771 4814 c0 -11 3 -14 6 -6 3 7 2 16 -1 19 -3 4 -6 -2 -5 -13z"/>
<path d="M3829 4788 c-10 -18 -8 -24 7 -35 15 -11 16 -17 6 -33 -18 -29 -15
-38 23 -74 32 -31 34 -31 29 -10 -6 21 -3 24 25 24 23 0 31 -5 32 -17 0 -15 2
-15 9 2 4 11 4 24 -1 30 -14 15 -10 28 6 21 14 -5 13 -2 0 24 -9 18 -23 30
-35 30 -14 0 -20 7 -20 24 0 40 -61 51 -81 14z"/>
<path d="M4540 4758 c0 -21 27 -35 40 -22 20 21 15 38 -12 39 -21 1 -28 -4
-28 -17z"/>
<path d="M4483 4684 c-3 -8 -1 -20 6 -27 6 -6 11 -9 12 -6 0 2 2 14 5 27 4 25
-13 30 -23 6z"/>
<path d="M4290 4656 c0 -2 7 -9 15 -16 13 -11 14 -10 9 4 -5 14 -24 23 -24 12z"/>
<path d="M4019 4633 c-1 -4 -1 -11 0 -15 0 -5 -3 -8 -9 -8 -5 0 -10 4 -10 9 0
5 -9 7 -20 4 -11 -3 -20 -11 -20 -18 0 -15 42 -14 80 2 l24 10 -22 12 c-12 6
-23 8 -23 4z"/>
<path d="M3716 4588 c-3 -13 -7 -48 -11 -78 -3 -30 -8 -70 -11 -87 -4 -23 -2
-33 6 -33 7 0 10 7 7 15 -4 8 -2 17 2 19 4 3 11 42 15 88 4 46 12 86 19 90 8
5 7 8 -5 8 -10 0 -20 -10 -22 -22z"/>
<path d="M4212 4586 c-1 -18 7 -31 29 -47 l31 -22 -13 22 c-8 11 -19 21 -25
21 -7 0 -9 10 -6 25 2 14 0 25 -5 25 -5 0 -10 -11 -11 -24z"/>
<path d="M4580 4599 c0 -5 5 -7 10 -4 6 3 10 8 10 11 0 2 -4 4 -10 4 -5 0 -10
-5 -10 -11z"/>
<path d="M4070 4580 c0 -6 4 -9 9 -6 5 4 12 1 14 -4 3 -6 4 -5 3 2 -3 15 -26
23 -26 8z"/>
<path d="M3841 4541 c-8 -14 -5 -23 10 -40 36 -39 74 -19 57 30 -12 34 -51 40
-67 10z"/>
<path d="M4115 4547 c-4 -10 -5 -21 -1 -24 10 -10 18 4 13 24 -4 17 -4 17 -12
0z"/>
<path d="M4398 4553 c7 -3 16 -2 19 1 4 3 -2 6 -13 5 -11 0 -14 -3 -6 -6z"/>
<path d="M4576 4524 c-8 -22 -8 -26 3 -20 5 4 12 0 15 -6 3 -7 3 -3 0 9 -3 15
0 23 13 26 15 4 14 5 -3 6 -12 0 -25 -6 -28 -15z"/>
<path d="M4016 4508 c41 -50 64 -60 61 -29 0 11 -5 17 -10 14 -5 -3 -17 4 -28
16 -27 28 -47 27 -23 -1z"/>
<path d="M4165 4480 c-3 -5 -1 -10 4 -10 6 0 11 5 11 10 0 6 -2 10 -4 10 -3 0
-8 -4 -11 -10z"/>
<path d="M4495 4459 c0 -24 6 -34 23 -40 17 -7 22 -5 22 8 0 9 7 25 17 35 13
14 13 18 2 19 -8 0 -25 3 -39 5 -23 4 -26 1 -25 -27z"/>
<path d="M3953 4453 c9 -9 20 -13 24 -9 4 4 1 11 -7 16 -25 16 -35 11 -17 -7z"/>
<path d="M4344 4444 c3 -9 6 -18 6 -20 0 -2 5 -4 11 -4 7 0 18 -8 25 -17 7
-10 13 -13 13 -8 0 12 -45 65 -55 65 -3 0 -3 -7 0 -16z"/>
<path d="M4123 4421 c-12 -19 -8 -31 9 -31 5 0 7 4 3 9 -3 5 -1 12 5 16 12 7
14 25 2 25 -4 0 -13 -9 -19 -19z"/>
<path d="M4220 4435 c0 -15 21 -43 36 -49 15 -6 15 -4 3 11 -23 29 -39 45 -39
38z"/>
<path d="M3968 4423 c14 -3 20 -9 16 -16 -4 -7 -4 -9 1 -5 4 4 14 3 22 -3 7
-6 13 -8 13 -4 0 14 -34 34 -55 33 -17 -1 -17 -1 3 -5z"/>
<path d="M4046 4367 c9 -26 18 -47 20 -47 9 0 -10 66 -22 80 -11 11 -11 4 2
-33z"/>
<path d="M3787 4381 c-7 -30 12 -54 38 -47 15 4 25 1 28 -9 4 -9 1 -12 -9 -8
-8 3 1 -11 20 -31 36 -36 56 -45 56 -25 0 6 -9 13 -20 16 -11 3 -20 10 -20 15
0 6 7 7 16 4 14 -5 15 -4 4 9 -11 13 -9 15 13 15 14 0 27 -6 30 -12 2 -7 8 0
12 15 4 17 3 39 -4 53 -9 20 -16 24 -34 18 -12 -4 -23 -11 -25 -15 -5 -13 -22
-11 -38 6 -22 21 -61 19 -67 -4z m97 -36 c-4 -8 -10 -12 -15 -9 -14 8 -10 24
6 24 9 0 12 -6 9 -15z"/>
<path d="M4278 4363 c7 -3 16 -2 19 1 4 3 -2 6 -13 5 -11 0 -14 -3 -6 -6z"/>
<path d="M3677 4343 c-15 -52 -31 -130 -31 -148 0 -15 5 -19 24 -17 13 2 29
11 35 19 8 11 22 14 43 11 24 -3 32 0 36 15 5 21 -16 71 -35 82 -5 4 -14 18
-19 31 -11 28 -46 32 -53 7z"/>
<path d="M4198 4353 c-10 -3 -18 -8 -18 -12 0 -13 35 -41 51 -41 11 0 11 2 1
8 -7 5 -10 16 -7 24 7 19 -3 26 -27 21z"/>
<path d="M4086 4324 c-5 -14 -4 -15 9 -4 17 14 19 20 6 20 -5 0 -12 -7 -15
-16z"/>
<path d="M4300 4328 c0 -4 4 -8 9 -8 5 0 17 -3 25 -6 12 -5 15 -2 10 9 -6 16
-44 20 -44 5z"/>
<path d="M3965 4290 c3 -5 8 -10 11 -10 2 0 4 5 4 10 0 6 -5 10 -11 10 -5 0
-7 -4 -4 -10z"/>
<path d="M4134 4276 c3 -21 22 -40 29 -29 2 4 -4 16 -14 26 -15 16 -17 16 -15
3z"/>
<path d="M4016 4271 c-4 -6 -3 -18 2 -27 8 -14 10 -14 15 -2 7 19 -8 44 -17
29z"/>
<path d="M4255 4270 c-3 -6 1 -17 9 -26 9 -8 16 -20 16 -25 0 -5 4 -9 9 -9 6
0 6 12 -1 30 -11 34 -24 45 -33 30z"/>
<path d="M3967 4205 c-2 -14 0 -28 4 -31 5 -3 9 -1 9 5 0 6 6 9 13 7 6 -1 9
-1 5 1 -5 3 -8 11 -8 18 0 25 -18 25 -23 0z"/>
<path d="M4047 4213 c4 -10 13 -24 20 -31 7 -7 13 -20 13 -29 0 -9 6 -13 15
-9 8 3 15 2 15 -3 0 -5 -9 -11 -20 -14 -11 -3 -18 -1 -14 4 3 5 1 9 -5 9 -5 0
-17 7 -26 16 -11 12 -19 14 -27 6 -7 -7 -4 -12 11 -17 12 -3 21 -15 21 -25 0
-13 6 -18 24 -16 17 2 23 -1 19 -10 -3 -8 -9 -14 -15 -14 -5 0 -6 -5 -3 -10 4
-6 11 -7 17 -4 6 4 8 2 4 -4 -3 -6 -2 -13 4 -17 5 -3 10 -1 10 4 0 6 5 11 10
11 6 0 10 -7 10 -15 0 -8 8 -15 18 -16 10 0 12 -3 5 -6 -7 -2 -13 -9 -13 -14
0 -6 5 -7 10 -4 6 3 10 -1 10 -9 0 -24 37 -56 57 -50 14 5 15 4 4 -4 -7 -5
-10 -15 -6 -21 5 -9 11 -9 22 1 14 11 15 10 9 -9 -5 -17 3 -32 43 -73 28 -29
53 -61 56 -71 4 -12 19 -22 36 -26 16 -3 29 -9 29 -14 0 -5 8 -9 18 -9 14 -1
14 -3 -4 -13 -17 -9 -20 -17 -13 -34 9 -26 46 -31 55 -9 3 9 12 12 22 8 15 -5
15 -4 3 11 -7 9 -18 14 -24 10 -6 -3 -7 -1 -3 5 4 6 -2 17 -14 24 -11 7 -20
18 -20 24 0 7 -7 14 -15 18 -8 3 -15 14 -15 24 0 10 -6 24 -12 31 -9 10 -9 12
-1 7 6 -3 14 -2 18 4 3 5 -5 15 -19 22 -14 6 -26 18 -26 25 0 8 -4 11 -10 8
-12 -7 -62 44 -54 56 3 5 -2 9 -11 9 -9 0 -23 7 -31 15 -9 8 -12 15 -7 15 5 0
14 -5 21 -12 8 -8 12 -8 12 -1 0 5 -11 19 -25 29 -14 10 -25 24 -25 31 0 7 -6
13 -14 13 -8 0 -16 7 -20 15 -3 8 -11 14 -18 13 -7 -2 -14 7 -16 20 -2 12 -10
22 -18 22 -8 0 -13 3 -12 8 3 15 -15 62 -22 57 -5 -3 -17 5 -27 18 -25 32 -45
43 -36 20z m138 -213 c3 -5 1 -10 -4 -10 -6 0 -11 5 -11 10 0 6 2 10 4 10 3 0
8 -4 11 -10z m265 -320 c0 -5 -5 -10 -11 -10 -5 0 -7 5 -4 10 3 6 8 10 11 10
2 0 4 -4 4 -10z"/>
<path d="M3797 4213 c-11 -11 -8 -20 7 -20 8 0 12 6 9 14 -6 15 -7 15 -16 6z"/>
<path d="M4200 4210 c-12 -8 -10 -10 8 -10 13 0 21 -4 18 -8 -6 -10 11 -38 19
-31 6 7 -15 59 -24 59 -3 0 -13 -5 -21 -10z"/>
<path d="M4305 4190 c3 -5 10 -10 16 -10 5 0 9 5 9 10 0 6 -7 10 -16 10 -8 0
-12 -4 -9 -10z"/>
<path d="M4337 4173 c-12 -12 -7 -21 16 -27 16 -4 18 -8 9 -14 -9 -6 -6 -14
12 -31 18 -17 25 -19 30 -9 3 7 4 1 1 -14 -6 -29 11 -49 17 -21 5 24 -24 82
-40 83 -8 0 -16 9 -19 20 -5 21 -15 25 -26 13z"/>
<path d="M3811 4161 c-9 -6 -10 -11 -2 -15 6 -4 21 0 33 8 21 15 21 16 3 16
-11 0 -26 -4 -34 -9z"/>
<path d="M4260 4150 c-13 -9 -13 -12 3 -24 9 -7 17 -18 17 -24 0 -6 9 -14 20
-17 11 -4 18 -11 15 -16 -4 -5 -1 -9 4 -9 6 0 11 -7 11 -15 0 -8 6 -12 13 -9
9 3 13 -3 13 -18 -1 -14 6 -24 17 -26 26 -5 21 14 -14 50 -19 21 -28 39 -25
51 4 15 0 18 -15 14 -10 -3 -17 -1 -14 4 7 10 -12 49 -23 49 -4 0 -14 -5 -22
-10z"/>
<path d="M3641 4129 c-11 -18 -10 -24 3 -37 13 -14 16 -14 21 -1 3 9 2 25 -2
37 l-8 22 -14 -21z"/>
<path d="M4465 4140 c-3 -5 -2 -10 4 -10 5 0 13 5 16 10 3 6 2 10 -4 10 -5 0
-13 -4 -16 -10z"/>
<path d="M3850 4124 c0 -10 3 -14 7 -11 9 10 34 -14 26 -26 -3 -6 -1 -7 5 -3
7 4 12 17 12 28 0 12 -3 18 -6 15 -4 -3 -15 -2 -25 4 -15 8 -19 6 -19 -7z"/>
<path d="M4475 4110 c3 -5 8 -10 11 -10 2 0 4 5 4 10 0 6 -5 10 -11 10 -5 0
-7 -4 -4 -10z"/>
<path d="M3920 4100 c0 -5 5 -10 11 -10 5 0 7 5 4 10 -3 6 -8 10 -11 10 -2 0
-4 -4 -4 -10z"/>
<path d="M3612 4051 c-11 -31 2 -47 27 -32 9 6 8 14 -3 35 l-14 27 -10 -30z"/>
<path d="M3956 4042 c-6 -11 22 -52 35 -52 19 0 21 31 3 45 -22 17 -31 18 -38
7z"/>
<path d="M3870 3979 c0 -5 5 -7 10 -4 6 3 10 8 10 11 0 2 -4 4 -10 4 -5 0 -10
-5 -10 -11z"/>
<path d="M4030 3980 c-10 -6 -11 -10 -2 -10 6 0 12 -6 12 -13 0 -13 53 -67 66
-67 11 0 34 -29 34 -44 0 -9 11 -23 25 -32 14 -9 25 -21 25 -26 0 -5 7 -16 15
-24 12 -13 15 -13 15 -2 0 8 -6 20 -12 27 -11 10 -10 11 5 6 10 -4 17 -2 17 4
0 16 -47 44 -61 36 -8 -5 -9 -1 -4 14 4 15 2 21 -9 21 -8 0 -16 10 -18 23 -2
13 -10 22 -20 21 -10 -1 -14 4 -11 12 4 10 0 12 -11 8 -12 -5 -15 -2 -10 11 6
14 3 16 -14 10 -13 -4 -22 -2 -22 4 0 6 5 11 11 11 5 0 7 5 4 10 -8 12 -16 12
-35 0z"/>
<path d="M4397 3966 c-9 -23 16 -56 27 -37 4 6 3 11 -3 11 -5 0 -11 10 -13 23
-3 21 -4 21 -11 3z"/>
<path d="M4457 3909 c-4 -14 -10 -18 -18 -13 -7 4 -4 -8 7 -27 11 -19 28 -34
40 -35 13 -1 14 0 3 3 -12 3 -17 16 -17 45 -1 47 -7 58 -15 27z"/>
<path d="M4425 3780 c-3 -5 -1 -10 4 -10 6 0 11 5 11 10 0 6 -2 10 -4 10 -3 0
-8 -4 -11 -10z"/>
<path d="M4230 3759 c0 -6 10 -19 23 -30 14 -12 17 -18 8 -19 -20 0 -5 -13 19
-17 25 -4 25 2 -1 43 -20 33 -49 46 -49 23z"/>
<path d="M4299 3669 c-12 -7 -11 -11 4 -26 15 -16 19 -16 27 -3 5 8 10 18 10
21 0 12 -27 17 -41 8z"/>
<path d="M4671 3648 c0 -14 -3 -32 -6 -40 -3 -7 -1 -20 5 -28 7 -12 12 -12 21
-3 10 10 10 18 1 35 -6 13 -13 32 -15 43 -4 15 -5 13 -6 -7z"/>
<path d="M4454 3616 c-9 -24 3 -47 21 -40 18 7 16 45 -2 52 -7 2 -16 -3 -19
-12z"/>
<path d="M3875 3540 c-4 -6 -12 -8 -18 -4 -7 3 -1 -4 13 -15 14 -12 43 -35 64
-53 22 -18 44 -32 48 -30 5 1 8 -4 6 -11 -4 -17 63 -88 75 -80 6 3 7 1 4 -4
-4 -6 0 -16 8 -23 13 -11 18 -10 29 6 13 17 11 22 -15 45 -16 14 -29 31 -29
36 0 13 -28 25 -40 18 -4 -3 -6 4 -3 15 3 11 1 20 -5 20 -6 0 -31 20 -56 45
-46 45 -69 54 -81 35z"/>
<path d="M3870 3381 c0 -18 92 -100 106 -94 9 3 14 -2 14 -13 0 -18 31 -55
100 -119 18 -16 39 -45 46 -62 8 -18 19 -33 24 -33 5 0 17 -14 25 -30 9 -17
20 -28 25 -25 5 3 11 1 15 -5 3 -5 1 -10 -6 -10 -8 0 -5 -9 7 -22 11 -13 29
-40 40 -62 20 -39 36 -52 53 -42 13 8 -20 86 -36 86 -7 0 -10 6 -7 14 3 7 -2
20 -10 29 -9 9 -16 20 -16 26 0 6 -4 11 -10 11 -5 0 -25 24 -45 53 -53 79 -89
126 -97 127 -8 0 -68 59 -68 67 0 3 -10 14 -22 25 -13 11 -40 35 -60 54 -35
32 -78 46 -78 25z"/>
<path d="M4119 3328 c-7 -18 -3 -58 5 -58 6 0 21 -18 34 -40 12 -22 28 -39 34
-37 7 1 14 -7 16 -18 2 -11 7 -22 11 -25 3 -3 11 -12 16 -21 6 -9 27 -42 48
-73 20 -31 37 -62 37 -70 0 -18 27 -39 40 -31 21 13 11 64 -20 93 -16 16 -30
34 -30 41 0 6 -7 11 -16 11 -8 0 -12 5 -9 10 3 6 -1 13 -9 16 -9 3 -13 10 -10
15 3 5 -2 12 -11 15 -9 4 -14 13 -11 20 3 7 0 16 -6 20 -7 4 -8 3 -4 -4 4 -7
2 -12 -5 -12 -6 0 -9 8 -6 20 4 14 -6 30 -36 56 -23 20 -36 32 -28 28 9 -5 8
2 -5 19 -16 23 -32 33 -35 25z"/>
</g>
</svg>
