<?xml version="1.0" encoding="UTF-8" standalone="no"?>
<!-- Created with Inkscape (http://www.inkscape.org/) -->

<svg
   xmlns:dc="http://purl.org/dc/elements/1.1/"
   xmlns:cc="http://creativecommons.org/ns#"
   xmlns:rdf="http://www.w3.org/1999/02/22-rdf-syntax-ns#"
   xmlns:svg="http://www.w3.org/2000/svg"
   xmlns="http://www.w3.org/2000/svg"
   xmlns:xlink="http://www.w3.org/1999/xlink"
   xmlns:sodipodi="http://sodipodi.sourceforge.net/DTD/sodipodi-0.dtd"
   xmlns:inkscape="http://www.inkscape.org/namespaces/inkscape"
   width="225.77777mm"
   height="225.77777mm"
   viewBox="0 0 799.99998 799.99997"
   id="svg5568"
   version="1.1"
   inkscape:version="0.91 r13725"
   sodipodi:docname="yeltsin.svg">
  <title
     id="title4384">Yeltsin by Rones</title>
  <defs
     id="defs5570">
    <linearGradient
       inkscape:collect="always"
       id="linearGradient4367">
      <stop
         style="stop-color:#ac4337;stop-opacity:1"
         offset="0"
         id="stop4369" />
      <stop
         style="stop-color:#75190f;stop-opacity:0;"
         offset="1"
         id="stop4371" />
    </linearGradient>
    <filter
       inkscape:collect="always"
       style="color-interpolation-filters:sRGB"
       id="filter4363"
       x="-0.076315336"
       width="1.1526307"
       y="-0.19188364"
       height="1.3837672">
      <feGaussianBlur
         inkscape:collect="always"
         stdDeviation="8.1752413"
         id="feGaussianBlur4365" />
    </filter>
    <linearGradient
       inkscape:collect="always"
       xlink:href="#linearGradient4367"
       id="linearGradient4373"
       x1="9.8873901"
       y1="658.31256"
       x2="8.1433868"
       y2="569.31256"
       gradientUnits="userSpaceOnUse"
       gradientTransform="matrix(1.0962896,0,0,1.0962896,32.681771,-90.165257)" />
  </defs>
  <sodipodi:namedview
     id="base"
     pagecolor="#ffffff"
     bordercolor="#666666"
     borderopacity="1.0"
     inkscape:pageopacity="0.0"
     inkscape:pageshadow="2"
     inkscape:zoom="0.5"
     inkscape:cx="810.08123"
     inkscape:cy="92.896459"
     inkscape:document-units="px"
     inkscape:current-layer="layer1"
     showgrid="false"
     inkscape:window-width="1920"
     inkscape:window-height="1019"
     inkscape:window-x="1272"
     inkscape:window-y="-8"
     inkscape:window-maximized="1"
     height="250mm"
     showguides="false"
     inkscape:snap-global="false"
     fit-margin-top="0"
     fit-margin-left="0"
     fit-margin-right="0"
     fit-margin-bottom="0" />
  <metadata
     id="metadata5573">
    <rdf:RDF>
      <cc:Work
         rdf:about="">
        <dc:format>image/svg+xml</dc:format>
        <dc:type
           rdf:resource="http://purl.org/dc/dcmitype/StillImage" />
        <dc:title>Yeltsin by Rones</dc:title>
        <dc:date>2017-01-10</dc:date>
        <dc:creator>
          <cc:Agent>
            <dc:title>Rones</dc:title>
          </cc:Agent>
        </dc:creator>
        <dc:rights>
          <cc:Agent>
            <dc:title>Rones</dc:title>
          </cc:Agent>
        </dc:rights>
        <dc:source>www.rones-art.ru</dc:source>
      </cc:Work>
    </rdf:RDF>
  </metadata>
  <g
     inkscape:label="Layer 1"
     inkscape:groupmode="layer"
     id="layer1"
     transform="translate(339.41125,-136.39667)"
     style="display:inline">
    <circle
       style="opacity:1;fill:#4a8dda;fill-opacity:1;fill-rule:nonzero;stroke:none;stroke-width:3;stroke-linecap:round;stroke-linejoin:round;stroke-miterlimit:4;stroke-dasharray:none;stroke-dashoffset:0;stroke-opacity:1"
       id="path4380"
       cx="60.588749"
       cy="536.39667"
       r="400" />
    <path
       style="opacity:1;fill:#ac7b40;fill-opacity:1;fill-rule:nonzero;stroke:none;stroke-width:3;stroke-linecap:round;stroke-linejoin:round;stroke-miterlimit:4;stroke-dasharray:none;stroke-dashoffset:0;stroke-opacity:1"
       d="m -139.41126,339.49747 -3.10077,165.89147 c -5.68475,-5.16796 -11.82654,-21.13373 -17.05426,-15.50388 -8.46896,9.12042 -4.31516,24.8226 -3.10078,37.20931 1.40647,14.34603 7.23515,27.90698 10.85272,41.86047 -2.58398,8.26873 -9.04972,16.24087 -7.75194,24.8062 1.52693,10.07778 10.33592,17.57105 15.50387,26.35658 -1.03359,6.71835 -5.91355,13.96693 -3.10077,20.15505 1.55686,3.42509 10.16455,-6.79964 10.85271,-3.10078 4.25472,22.86913 -2.92546,46.94055 1.55039,69.76744 5.97463,30.47057 13.37073,61.81326 29.45736,88.3721 14.79581,24.4277 36.738159,44.92519 60.696085,60.47017 33.336959,21.63052 68.85012,47.20528 108.53267,49.33304 34.388851,1.8439 67.332655,-19.17505 95.925335,-38.37014 25.02144,-16.79761 45.21265,-41.10759 60.84408,-66.87367 18.16163,-29.93676 28.10684,-64.2656 38.91828,-97.56977 5.15705,-15.88609 7.79524,-32.65933 8.77031,-49.33303 0.86639,-14.81515 -2.19258,-29.59982 -3.28887,-44.39973 0,0 0.92499,11.81134 5.48145,13.15548 3.40272,1.00378 6.75854,-3.10747 8.77032,-6.0296 6.60926,-9.60001 6.49771,-22.4581 8.22217,-33.98497 1.8145,-12.12873 2.18722,-24.46201 2.19258,-36.72571 0.007,-15.55761 -0.3871,-31.21375 -2.74072,-46.5923 -1.82353,-11.91492 -8.77032,-35.08127 -8.77032,-35.08127 0,0 10.40448,-11.45044 7.12588,-16.44434 -2.10581,-3.20754 -11.51104,0 -11.51104,0 L 247.55453,281.32586 -50.088093,233.08912 Z"
       id="path4257"
       inkscape:connector-curvature="0"
       sodipodi:nodetypes="ccsscscsssssssssscssssscscccc" />
    <path
       style="display:inline;opacity:1;fill:#5a2203;fill-opacity:1;fill-rule:nonzero;stroke:none;stroke-width:3;stroke-linecap:round;stroke-linejoin:round;stroke-miterlimit:4;stroke-dasharray:none;stroke-dashoffset:0;stroke-opacity:1"
       d="m -68.868617,551.51297 c 24.260244,5.97838 26.800537,8.68169 49.612404,0 -21.640007,13.53391 -27.258798,9.45731 -49.612404,0 z"
       id="path4297"
       inkscape:connector-curvature="0"
       sodipodi:nodetypes="ccc" />
    <path
       style="display:inline;opacity:1;fill:#5a2203;fill-opacity:1;fill-rule:nonzero;stroke:none;stroke-width:3;stroke-linecap:round;stroke-linejoin:round;stroke-miterlimit:4;stroke-dasharray:none;stroke-dashoffset:0;stroke-opacity:1"
       d="m -62.27947,562.36569 c 24.406653,7.3078 31.24249,4.78101 52.7131783,-6.97674 -17.5721353,16.19851 -32.2140603,16.57207 -52.7131783,6.97674 z"
       id="path4299"
       inkscape:connector-curvature="0"
       sodipodi:nodetypes="ccc" />
    <path
       style="display:inline;opacity:1;fill:#5a2203;fill-opacity:1;fill-rule:nonzero;stroke:none;stroke-width:3;stroke-linecap:round;stroke-linejoin:round;stroke-miterlimit:4;stroke-dasharray:none;stroke-dashoffset:0;stroke-opacity:1"
       d="m 111.75154,543.76103 c 17.90698,-0.29064 32.65074,-6.89209 48.44962,-14.34108 -22.00169,17.77593 -20.70608,14.34108 -48.44962,14.34108 z"
       id="path4301"
       inkscape:connector-curvature="0"
       sodipodi:nodetypes="ccc" />
    <path
       style="display:inline;opacity:1;fill:#5a2203;fill-opacity:1;fill-rule:nonzero;stroke:none;stroke-width:3;stroke-linecap:round;stroke-linejoin:round;stroke-miterlimit:4;stroke-dasharray:none;stroke-dashoffset:0;stroke-opacity:1"
       d="m 143.14689,548.0246 c -19.73975,8.74521 -20.62759,6.69233 -41.27907,3.10078 14.03764,0.99114 27.54354,-0.51292 41.27907,-3.10078 z"
       id="path4303"
       inkscape:connector-curvature="0"
       sodipodi:nodetypes="ccc" />
    <path
       style="display:inline;opacity:1;fill:#9d522b;fill-opacity:1;fill-rule:nonzero;stroke:none;stroke-width:3;stroke-linecap:round;stroke-linejoin:round;stroke-miterlimit:4;stroke-dasharray:none;stroke-dashoffset:0;stroke-opacity:1;filter:url(#filter4363)"
       d="m -80,625.36221 c -12.068939,4.06976 -22.89491,14.33123 -28,26 -5.07704,11.60466 -8.08559,28.24973 0,38 7.26258,8.75782 22.65372,3.84047 34,3 15.907732,-1.17835 31.071525,-8.14669 47,-9 40.275581,-2.15762 80.693632,1.47462 121,0 14.46252,-0.52912 31.14392,2.29926 43,-6 8.14668,-5.70268 7,-19.05571 7,-29 0,-12.22475 1.48563,-27.20009 -7,-36 -11.81844,-12.25616 -29.99477,-19.15677 -47,-20 -25.07342,-1.24331 -49.750621,7.50463 -74,14 -13.2756862,3.55599 -24.5178332,13.33165 -38,16 -18.990806,3.7586 -39.655713,-3.18586 -58,3 z"
       id="path4305"
       inkscape:connector-curvature="0"
       sodipodi:nodetypes="sssssssssssss"
       transform="matrix(1.0962896,0,0,1.0962896,32.681771,-90.165257)" />
    <path
       style="display:inline;opacity:1;fill:#5a2203;fill-opacity:1;fill-rule:nonzero;stroke:none;stroke-width:3;stroke-linecap:round;stroke-linejoin:round;stroke-miterlimit:4;stroke-dasharray:none;stroke-dashoffset:0;stroke-opacity:1"
       d="m -154.91513,514.69127 c -0.25839,5.16796 -0.5168,10.33592 -0.7752,15.50388 2.06719,5.68475 4.13438,11.36951 6.20156,17.05426 2.84237,6.71835 5.68476,13.43669 8.52713,20.15504 1.55038,-4.39277 3.10078,-8.78553 4.65116,-13.17829 1.03359,-5.42636 2.06719,-10.85272 3.10078,-16.27908 -7.23514,-7.75194 -14.47029,-15.50387 -21.70543,-23.25581 z"
       id="path4309"
       inkscape:connector-curvature="0"
       sodipodi:nodetypes="ccccccc" />
    <path
       style="display:inline;opacity:1;fill:#371502;fill-opacity:1;fill-rule:nonzero;stroke:none;stroke-width:3;stroke-linecap:round;stroke-linejoin:round;stroke-miterlimit:4;stroke-dasharray:none;stroke-dashoffset:0;stroke-opacity:1"
       d="m 80.918513,525.79844 19.185067,-6.57774 14.79991,-9.86661 23.02208,-4.38516 19.73321,2.74073 4.93331,-7.67403 -2.74073,10.9629 9.31847,8.22217 -12.05919,-3.83701 -16.99249,3.83701 -12.05918,3.83701 -23.57023,2.19258 z"
       id="path4263"
       inkscape:connector-curvature="0" />
    <path
       style="display:inline;opacity:1;fill:#371502;fill-opacity:1;fill-rule:nonzero;stroke:none;stroke-width:3;stroke-linecap:round;stroke-linejoin:round;stroke-miterlimit:4;stroke-dasharray:none;stroke-dashoffset:0;stroke-opacity:1"
       d="m -89.280446,540.32427 c 0,0 10.140679,-0.54814 11.511041,-1.9185 1.370362,-1.37037 3.288868,-4.11109 3.288868,-4.11109 l -10.140678,-3.28887 13.155475,1.37036 17.266561,-8.22217 22.199864,-3.56294 18.362851,4.11109 9.8666062,5.20737 7.3999547,0.27407 -6.8518099,2.19258 -7.399955,3.56295 -19.45914,0.27407 -29.051674,1.09629 -11.511041,0.54814 -8.770317,3.28887 z"
       id="path4265"
       inkscape:connector-curvature="0" />
    <path
       style="display:inline;opacity:1;fill:#73522b;fill-opacity:1;fill-rule:nonzero;stroke:none;stroke-width:3;stroke-linecap:round;stroke-linejoin:round;stroke-miterlimit:4;stroke-dasharray:none;stroke-dashoffset:0;stroke-opacity:1"
       d="m -85.922884,499.18739 c 11.111112,-7.75194 20.020707,-20.74121 33.333336,-23.25581 12.38176,-2.33878 25.252172,4.26872 36.43411,10.07752 9.2548972,4.80773 15.74347462,13.69612 23.2558133,20.93023 6.4503927,6.21149 12.4031017,12.91989 18.6046517,19.37984 -4.909561,-10.59431 -8.113544,-22.16092 -14.728683,-31.78294 -10.59077863,-15.40477 -20.7203421,-32.50901 -36.434109,-42.63566 -9.362381,-6.03354 -24.559634,-9.18706 -33.333333,-2.32558 -14.847607,11.61159 -18.087857,33.07494 -27.131786,49.6124 z"
       id="path4267"
       inkscape:connector-curvature="0"
       sodipodi:nodetypes="cssscsssc" />
    <path
       style="display:inline;opacity:1;fill:#73522b;fill-opacity:1;fill-rule:nonzero;stroke:none;stroke-width:3;stroke-linecap:round;stroke-linejoin:round;stroke-miterlimit:4;stroke-dasharray:none;stroke-dashoffset:0;stroke-opacity:1"
       d="m 76.092624,511.59049 c 4.909561,-16.53746 6.113123,-34.66704 14.728683,-49.6124 4.725814,-8.19783 14.376793,-13.00785 23.255813,-16.27907 11.28183,-4.15646 24.11985,-8.80364 35.65891,-5.42636 11.78168,3.4483 18.60466,16.02068 27.90698,24.03101 -11.3695,-0.51679 -22.94359,-3.75882 -34.10852,-1.55038 -12.94769,2.56107 -25.74406,7.76279 -36.43411,15.50387 -12.291072,8.90043 -20.671839,22.22223 -31.007756,33.33333 z"
       id="path4269"
       inkscape:connector-curvature="0"
       sodipodi:nodetypes="cssscssc" />
    <path
       style="display:inline;opacity:1;fill:#000000;fill-opacity:1;fill-rule:nonzero;stroke:none;stroke-width:3;stroke-linecap:round;stroke-linejoin:round;stroke-miterlimit:4;stroke-dasharray:none;stroke-dashoffset:0;stroke-opacity:1"
       d="m -24.682571,706.16414 c -0.516795,-3.87597 -1.033591,-7.75194 -1.550387,-11.62791 7.49354,-1.55039 14.850351,-4.07165 22.48062,-4.65116 12.8827939,-0.97844 25.859686,0.71666 38.75969,0 10.400316,-0.5778 20.706642,-2.3308 31.007753,-3.87597 10.376902,-1.55653 20.593822,-4.14068 31.007752,-5.42636 10.542603,-1.30156 21.195813,-1.45778 31.782943,-2.32558 5.17638,-0.4243 10.47491,-0.25258 15.50388,-1.55038 3.13501,-0.80903 5.68476,-3.10078 8.52713,-4.65116 -3.61757,4.65116 -6.54247,9.93578 -10.85271,13.95348 -11.64687,10.8564 -23.05618,22.41109 -36.79416,30.45961 -12.07475,7.07409 -25.653047,12.18211 -39.495931,14.23562 -11.771116,1.74619 -24.142032,0.23496 -35.564868,-3.10077 -9.125038,-2.66472 -15.726137,-10.99984 -24.5791527,-14.46267 -9.6317778,-3.76743 -20.1550393,-4.65116 -30.2325593,-6.97675 z"
       id="path4279"
       inkscape:connector-curvature="0"
       sodipodi:nodetypes="ccsssssscsssssc" />
    <path
       style="display:inline;opacity:1;fill:#800000;fill-opacity:1;fill-rule:nonzero;stroke:none;stroke-width:3;stroke-linecap:round;stroke-linejoin:round;stroke-miterlimit:4;stroke-dasharray:none;stroke-dashoffset:0;stroke-opacity:1"
       d="m 133.08648,694.37158 c -6.25822,1.67304 -12.48768,3.46119 -18.73113,5.1881 -7.69229,2.12766 -15.270415,4.67781 -23.022086,6.57774 -10.894798,2.6703 -21.686248,6.54929 -32.888687,7.12588 -13.911128,0.71601 -27.78289,-2.07003 -41.659005,-3.28887 -13.1668063,-1.15654 -26.3109502,-2.55801 -39.466425,-3.83701 l -0.147743,0.42395 c 9.508922,2.03354 19.335366,3.04237 28.3793408,6.57988 8.8530152,3.46283 15.4536892,11.79689 24.5787272,14.4616 11.422836,3.33574 23.79406,4.84662 35.565176,3.10045 13.842885,-2.05351 27.419514,-7.16054 39.494262,-14.23464 10.23848,-5.9983 19.18363,-13.94434 27.89757,-22.09708 z"
       id="path4281"
       inkscape:connector-curvature="0" />
    <path
       style="display:inline;opacity:1;fill:#b3b3b3;fill-opacity:1;fill-rule:nonzero;stroke:none;stroke-width:3;stroke-linecap:round;stroke-linejoin:round;stroke-miterlimit:4;stroke-dasharray:none;stroke-dashoffset:0;stroke-opacity:1"
       d="m 78.177789,690.29365 1.918507,9.79461 -3.014796,-9.18244 c -9.222159,-6.31243 -7.707414,-7.12692 -16.718417,0.61216 l -0.548144,11.01893 -1.918507,-10.10069 c -10.483305,-4.1321 -9.805863,-4.16963 -20.55543,1.53041 l -0.274073,8.87636 -1.918506,-8.57028 c -6.024789,-5.88738 -4.494651,-4.12655 -10.962896,1.8365 l 0,6.12162 -1.370362,-7.03988 c -5.027749,-2.47057 -6.717584,-4.65779 -10.688824,0.30609 l 0,7.34595 -0.918571,6.15989 c 1.85928,0.19223 3.717714,0.39144 5.577802,0.5739 13.876115,1.3612 27.747877,4.47261 41.659005,3.67298 11.202439,-0.64393 21.993889,-4.97595 32.888687,-7.95812 4.735644,-1.29625 9.406626,-2.86346 14.078326,-4.42862 l -0.64878,-10.87545 c -4.866922,-5.24121 -6.507157,-11.78108 -10.688822,-3.67298 l 0,7.03988 -1.096289,-7.03988 c -7.763238,-5.27649 -13.219687,-1.17125 -14.79991,3.97906 z"
       id="path4286"
       inkscape:connector-curvature="0"
       sodipodi:nodetypes="cccccccccccccccssscccccc" />
    <path
       style="display:inline;opacity:1;fill:#5a2203;fill-opacity:1;fill-rule:nonzero;stroke:none;stroke-width:3;stroke-linecap:round;stroke-linejoin:round;stroke-miterlimit:4;stroke-dasharray:none;stroke-dashoffset:0;stroke-opacity:1"
       d="m 25.555889,735.18975 c 31.473459,6.86564 51.40266,5.38361 78.932851,-4.38516 -13.184989,8.86439 -18.581344,17.23551 -12.059186,32.88869 -30.344316,-14.91122 -41.728764,-9.32307 -64.132941,2.74072 11.309472,-17.75385 9.52166,-15.7119 -2.740724,-31.24425 z"
       id="path4293"
       inkscape:connector-curvature="0"
       sodipodi:nodetypes="ccccc" />
    <path
       style="display:inline;opacity:1;fill:#5a2203;fill-opacity:1;fill-rule:nonzero;stroke:none;stroke-width:3;stroke-linecap:round;stroke-linejoin:round;stroke-miterlimit:4;stroke-dasharray:none;stroke-dashoffset:0;stroke-opacity:1"
       d="m -52.828817,785.61907 21.377647,7.67403 -4.933303,-13.15548 c 0,0 11.33585,21.18834 19.185068,30.14797 7.8621347,8.97436 17.14645783,16.93366 27.407239,23.02208 10.796646,6.40638 22.687859,11.70041 35.081267,13.70362 13.90752,2.24793 28.65521,1.65673 42.20715,-2.19258 12.428265,-3.53015 23.856419,-10.61596 33.984979,-18.63693 9.63545,-7.63047 17.28556,-17.57934 24.66651,-27.40723 3.74513,-4.98672 9.86661,-15.8962 9.86661,-15.8962 0,0 -7.32957,17.08958 -12.60733,24.66651 -5.39527,7.74564 -11.77467,14.98229 -19.18507,20.8295 -11.17352,8.81653 -23.57091,16.98137 -37.273844,20.82951 -13.906917,3.90542 -29.086457,4.20023 -43.303439,1.64443 C 30.987241,848.57286 19.023235,842.69763 8.0152553,836.04839 -3.979521,828.80309 -13.969759,818.63028 -24.325288,809.1893 c -4.391901,-4.00404 -8.041048,-8.80337 -12.60733,-12.60733 -4.94545,-4.11984 -15.896199,-10.9629 -15.896199,-10.9629 z"
       id="path4295"
       inkscape:connector-curvature="0"
       sodipodi:nodetypes="cccsssssscsssssssc" />
    <path
       style="display:inline;opacity:1;fill:#5a2203;fill-opacity:1;fill-rule:nonzero;stroke:none;stroke-width:3;stroke-linecap:round;stroke-linejoin:round;stroke-miterlimit:4;stroke-dasharray:none;stroke-dashoffset:0;stroke-opacity:1"
       d="m 8.5634001,633.78296 c -0.1827153,5.84688 -3.5275354,12.50649 -0.5481448,17.54063 3.2089017,5.42195 10.7730217,6.57428 16.4443437,9.31847 5.680854,2.7488 11.247814,6.64794 17.540634,7.12588 8.657391,0.65752 17.637636,-0.77689 25.762805,-3.83701 6.361192,-2.39578 11.587539,-7.30357 16.444344,-12.05919 4.021756,-3.93797 8.941256,-8.15152 9.866606,-13.70362 0.753353,-4.52012 -3.654298,-8.40489 -5.481448,-12.60733"
       id="path4275"
       inkscape:connector-curvature="0"
       sodipodi:nodetypes="cssssssc" />
    <path
       style="display:inline;opacity:1;fill:url(#linearGradient4373);fill-opacity:1;fill-rule:nonzero;stroke:none;stroke-width:3;stroke-linecap:round;stroke-linejoin:round;stroke-miterlimit:4;stroke-dasharray:none;stroke-dashoffset:0;stroke-opacity:1"
       d="m 0.88937293,638.71626 c 5.03571197,2.35 11.43992707,0.3248 16.44434407,2.74073 5.962316,2.87836 10.43854,8.16538 15.348054,12.60733 2.780016,2.51525 4.341264,6.50529 7.674027,8.22217 3.103201,1.59862 7.018914,1.90483 10.414751,1.09629 4.611136,-1.09789 9.408901,-3.07946 12.607331,-6.57774 3.045048,-3.33051 1.387484,-9.81593 4.933303,-12.60733 5.813981,-4.57696 13.84223,-5.23907 20.829502,-7.67402 5.074505,-1.7684 11.841525,-0.86121 15.348055,-4.93331 3.2389,-3.7613 2.31939,-9.88235 1.64443,-14.79991 -0.64598,-4.70646 -2.98095,-9.11622 -5.48144,-13.15547 -2.316153,-3.74147 -5.746396,-6.66988 -8.770321,-9.86661 -3.37385,-3.56663 -7.644241,-6.36159 -10.414751,-10.41475 -7.162092,-10.47788 -15.171574,-20.8482 -19.185068,-32.88869 -2.949021,-8.84707 -0.73086,-18.63692 -1.096289,-27.95538 -12.241901,0 -24.483801,0 -36.725702,0 -0.73086,8.77031 -1.490764,17.53826 -2.192579,26.31095 -0.759912,9.4989 -0.588841,19.1102 -2.192579,28.50353 -0.972409,5.69554 -2.033727,11.80775 -5.481448,16.44434 -2.292151,3.08255 -7.5640673,2.35849 -10.4147513,4.9333 -3.0470788,2.75221 -5.15826836,6.56191 -6.5777375,10.41476 -2.4666933,6.69531 -5.7212592,13.7379 -4.9333032,20.8295 0.4425271,3.98274 4.5908683,7.0757 8.22217193,8.77031 z"
       id="path4277"
       inkscape:connector-curvature="0"
       sodipodi:nodetypes="ssssssssssssssccsssssss" />
    <path
       style="display:inline;opacity:1;fill:#5a2203;fill-opacity:1;fill-rule:nonzero;stroke:none;stroke-width:3;stroke-linecap:round;stroke-linejoin:round;stroke-miterlimit:4;stroke-dasharray:none;stroke-dashoffset:0;stroke-opacity:1"
       d="m -46.25108,691.33816 c -0.73086,-5.66416 -3.853306,-11.52816 -2.192579,-16.99248 4.205777,-13.83837 12.282858,-26.20812 19.185068,-38.91828 8.090387,-14.89815 15.231638,-30.56611 25.7628056,-43.85159 2.0555923,-2.59321 6.5777375,-0.73086 9.8666063,-1.09629 1.8271497,2.55801 3.6967531,5.08623 5.4814481,7.67403 1.870078,2.71162 4.91706,4.97695 5.481448,8.22217 0.972522,5.592 -0.73086,11.32832 -1.09629,16.99249 -1.827149,-5.48145 -2.897468,-11.27638 -5.481448,-16.44434 -1.6845485,-3.3691 -4.7505876,-5.84688 -7.1258821,-8.77032 -1.6444344,3.10615 -3.65559956,6.04435 -4.9333032,9.31846 -1.6606156,4.25533 -4.3121641,10.0004 -4.9333031,14.52584 -0.6708306,4.88748 -3.2888688,8.77031 1.0962896,13.42955 -3.8370136,0.91357 -8.3633482,0.36389 -11.5110412,2.74072 -6.200099,4.6817 -10.766627,11.26607 -15.348054,17.54063 -3.862363,5.28976 -7.434085,10.91119 -9.866606,16.99249 -2.3702,5.9255 -2.923439,12.42461 -4.385159,18.63692 z"
       id="path4271"
       inkscape:connector-curvature="0"
       sodipodi:nodetypes="cssscsscscsscsssc" />
    <path
       style="display:inline;opacity:1;fill:#5a2203;fill-opacity:1;fill-rule:nonzero;stroke:none;stroke-width:3;stroke-linecap:round;stroke-linejoin:round;stroke-miterlimit:4;stroke-dasharray:none;stroke-dashoffset:0;stroke-opacity:1"
       d="m 78.725934,609.11645 4.933303,-19.73322 c 0.913574,-3.65429 6.905227,-5.75327 10.414751,-4.38516 8.615072,3.35842 15.387512,10.45421 21.925792,16.99249 11.26701,11.26701 20.83566,24.11306 31.24425,36.17756 l 24.11837,27.95538 c -10.68478,-1.73294 -10.36817,-1.69101 -17.54063,5.48145 5.89023,-24.82446 -12.58919,-32.20711 -29.59982,-50.97746 -10.77035,-11.65746 -21.9226,-18.43756 -35.081265,-26.8591 z"
       id="path4273"
       inkscape:connector-curvature="0"
       sodipodi:nodetypes="cssssccccc" />
    <path
       style="display:inline;opacity:1;fill:#f8f8eb;fill-opacity:1;fill-rule:nonzero;stroke:none;stroke-width:3;stroke-linecap:round;stroke-linejoin:round;stroke-miterlimit:4;stroke-dasharray:none;stroke-dashoffset:0;stroke-opacity:1"
       d="m -131.65932,532.52073 c 12.25898,-72.29506 -0.52611,-202.30937 80.620161,-228.68217 77.128533,45.74999 197.007629,-19.21338 257.682299,42.30197 -0.37696,65.35838 36.96161,113.38291 26.81383,177.85306 11.17277,-34.25897 20.8254,-62.71226 51.48389,-78.57671 C 274.30331,381.85984 273.80847,347.23045 266.7903,308.48972 263.58527,292.46457 262.09898,274.23233 251.28642,261.97809 233.59705,241.93014 209.18915,228.4347 185.39496,216.24165 117.74512,183.30098 -21.196255,143.08 -44.062415,210.04011 c -16.93256,-0.55441 -42.755469,0.48682 -59.689915,11.6279 -24.47057,16.09906 -45.97968,39.24328 -58.13954,65.89147 -30.97951,86.56595 -16.70585,174.15835 30.23255,244.96125 z"
       id="path4261"
       inkscape:connector-curvature="0"
       sodipodi:nodetypes="ccccccsccscc" />
    <path
       style="display:inline;opacity:1;fill:#5a2203;fill-opacity:1;fill-rule:nonzero;stroke:none;stroke-width:3;stroke-linecap:round;stroke-linejoin:round;stroke-miterlimit:4;stroke-dasharray:none;stroke-dashoffset:0;stroke-opacity:1"
       d="m 257.48798,565.07887 c -1.62874,-8.14373 3.39322,-16.57013 2.32558,-24.80621 -0.80275,-6.19265 -6.29964,-10.98102 -7.75194,-17.05425 -1.44357,-6.03673 -2.73801,-12.71625 -0.7752,-18.60466 2.65158,-7.95471 5.83448,-18.835 13.95349,-20.93023 5.76006,-1.48647 8.22901,9.0744 10.07752,14.72868 2.6691,8.16432 3.40198,16.99713 3.10078,25.58139 -0.22416,6.38848 -0.95157,13.3916 -4.65116,18.60465 -2.61173,3.68016 -9.75635,1.77131 -12.40311,5.42636 -3.41918,4.72174 -2.73266,22.77078 -3.87596,17.05427 z"
       id="path4307"
       inkscape:connector-curvature="0"
       sodipodi:nodetypes="ssssssssss" />
  </g>
</svg>
