<?xml version="1.0" encoding="UTF-8" standalone="no"?>
<!-- Created with Inkscape (http://www.inkscape.org/) -->

<svg
   xmlns:dc="http://purl.org/dc/elements/1.1/"
   xmlns:cc="http://creativecommons.org/ns#"
   xmlns:rdf="http://www.w3.org/1999/02/22-rdf-syntax-ns#"
   xmlns:svg="http://www.w3.org/2000/svg"
   xmlns="http://www.w3.org/2000/svg"
   xmlns:sodipodi="http://sodipodi.sourceforge.net/DTD/sodipodi-0.dtd"
   xmlns:inkscape="http://www.inkscape.org/namespaces/inkscape"
   width="322.64572"
   height="190.05963"
   id="svg5793"
   version="1.1"
   inkscape:version="0.48.4 r9939"
   sodipodi:docname="ypg.svg">
  <defs
     id="defs5795" />
  <sodipodi:namedview
     id="base"
     pagecolor="#ffffff"
     bordercolor="#666666"
     borderopacity="1.0"
     inkscape:pageopacity="0.0"
     inkscape:pageshadow="2"
     inkscape:zoom="0.78254438"
     inkscape:cx="18.211923"
     inkscape:cy="94.889666"
     inkscape:document-units="px"
     inkscape:current-layer="layer1"
     showgrid="false"
     inkscape:window-width="1280"
     inkscape:window-height="748"
     inkscape:window-x="0"
     inkscape:window-y="26"
     inkscape:window-maximized="1"
     fit-margin-top="0"
     fit-margin-left="0"
     fit-margin-right="0"
     fit-margin-bottom="0" />
  <metadata
     id="metadata5798">
    <rdf:RDF>
      <cc:Work
         rdf:about="">
        <dc:format>image/svg+xml</dc:format>
        <dc:type
           rdf:resource="http://purl.org/dc/dcmitype/StillImage" />
        <dc:title></dc:title>
      </cc:Work>
    </rdf:RDF>
  </metadata>
  <g
     inkscape:label="Layer 1"
     inkscape:groupmode="layer"
     id="layer1"
     transform="translate(-146.67311,-482.90654)">
    <g
       id="g6623">
      <path
         inkscape:connector-curvature="0"
         id="path5839"
         d="m 163.24953,661.96899 0,-168.04159 285.28733,84.34026 z"
         style="fill:#f9ed19;fill-opacity:1;stroke:#00aa00;stroke-width:3;stroke-linecap:butt;stroke-linejoin:miter;stroke-opacity:1" />
      <path
         transform="matrix(0.16696637,0,0,0.16696637,189.37823,528.35814)"
         inkscape:transform-center-y="-3.3709961"
         d="m 317.14286,69.505051 49.70983,143.008849 151.37069,3.08471 -120.64832,91.46902 43.84239,144.91531 -124.2746,-86.47789 -124.2746,86.47788 43.8424,-144.9153 -120.64832,-91.46903 151.37069,-3.0847 z"
         inkscape:randomized="0"
         inkscape:rounded="0"
         inkscape:flatsided="false"
         sodipodi:arg2="-0.9424778"
         sodipodi:arg1="-1.5707963"
         sodipodi:r2="84.571426"
         sodipodi:r1="211.42857"
         sodipodi:cy="280.93362"
         sodipodi:cx="317.14285"
         sodipodi:sides="5"
         id="path5820"
         style="fill:#ff0000;fill-opacity:1;stroke:#00aa00;stroke-width:10"
         sodipodi:type="star" />
      <path
         d="m 205.59539,594.33832 0,-7.21851 -6.56757,-9.82228 2.74327,0 3.35933,5.13781 c 0.61995,0.96093 1.19727,1.92185 1.73198,2.88275 0.51145,-0.89116 1.1314,-1.8947 1.85984,-3.01061 l 3.30122,-5.00995 2.62703,0 -6.80005,9.82228 0,7.21851 -2.25505,0"
         style="font-size:39.34286118px;font-style:normal;font-variant:normal;font-weight:normal;font-stretch:normal;line-height:125%;letter-spacing:0px;word-spacing:0px;fill:#00aa00;fill-opacity:1;stroke:none;font-family:Arial;-inkscape-font-specification:Arial"
         id="path5846"
         inkscape:connector-curvature="0" />
      <path
         d="m 237.14243,617.65968 0,-17.04079 6.42808,0 c 1.13139,2e-5 1.99544,0.0543 2.59215,0.16274 0.83692,0.1395 1.53823,0.40686 2.10395,0.80205 0.56568,0.38748 1.01902,0.93381 1.36,1.63899 0.34871,0.7052 0.52307,1.48014 0.52309,2.3248 -2e-5,1.44913 -0.46111,2.67741 -1.38326,3.68481 -0.92218,0.99967 -2.58829,1.4995 -4.99832,1.4995 l -4.37063,0 0,6.9279 -2.25506,0 m 2.25506,-8.93885 4.4055,0 c 1.45687,0 2.4914,-0.27122 3.10361,-0.81369 0.61218,-0.54244 0.91828,-1.30575 0.91829,-2.28992 -1e-5,-0.71293 -0.18212,-1.32125 -0.54632,-1.82497 -0.35648,-0.51145 -0.82919,-0.84854 -1.41813,-1.01129 -0.37973,-0.10073 -1.08104,-0.1511 -2.10395,-0.15111 l -4.359,0 0,6.09098"
         style="font-size:39.34286118px;font-style:normal;font-variant:normal;font-weight:normal;font-stretch:normal;line-height:125%;letter-spacing:0px;word-spacing:0px;fill:#00aa00;fill-opacity:1;stroke:none;font-family:Arial;-inkscape-font-specification:Arial"
         id="path5848"
         inkscape:connector-curvature="0" />
      <path
         d="m 276.35274,586.69611 0,-1.99932 7.21851,-0.0116 0,6.32346 c -1.10817,0.88342 -2.2512,1.54987 -3.42908,1.99933 -1.17791,0.44171 -2.38681,0.66257 -3.62669,0.66257 -1.67387,0 -3.19661,-0.35647 -4.56824,-1.06941 -1.36388,-0.72069 -2.39454,-1.7591 -3.09198,-3.11524 -0.69744,-1.35612 -1.04617,-2.87112 -1.04616,-4.54498 -10e-6,-1.65835 0.34484,-3.20434 1.03453,-4.63798 0.69744,-1.44136 1.69711,-2.51077 2.999,-3.20822 1.30188,-0.69743 2.80138,-1.04615 4.49849,-1.04617 1.23213,2e-5 2.34416,0.2015 3.33609,0.60445 0.99965,0.39523 1.78233,0.94931 2.34805,1.66224 0.56568,0.71295 0.99577,1.64287 1.29027,2.78976 l -2.03421,0.55795 c -0.25574,-0.86792 -0.57347,-1.54986 -0.95317,-2.04583 -0.37973,-0.49594 -0.92218,-0.89115 -1.62736,-1.18564 -0.7052,-0.30222 -1.48788,-0.45333 -2.34805,-0.45334 -1.03067,10e-6 -1.92184,0.15887 -2.67352,0.47658 -0.75169,0.30999 -1.36001,0.72071 -1.82497,1.23215 -0.45722,0.51147 -0.81368,1.07329 -1.06941,1.68548 -0.43396,1.05392 -0.65094,2.19694 -0.65094,3.42908 0,1.51888 0.2596,2.78977 0.77881,3.81267 0.52695,1.02292 1.29026,1.78235 2.28992,2.27831 0.99966,0.49596 2.06132,0.74394 3.18499,0.74393 0.9764,10e-6 1.92957,-0.18598 2.8595,-0.55795 0.92991,-0.37971 1.6351,-0.78268 2.11557,-1.20889 l 0,-3.17336 -5.00995,0"
         style="font-size:39.34286118px;font-style:normal;font-variant:normal;font-weight:normal;font-stretch:normal;line-height:125%;letter-spacing:0px;word-spacing:0px;fill:#00aa00;fill-opacity:1;stroke:none;font-family:Arial;-inkscape-font-specification:Arial"
         id="path5850"
         inkscape:connector-curvature="0" />
    </g>
  </g>
</svg>
