<?xml version="1.0" encoding="UTF-8" standalone="no"?>
<!-- Created with Inkscape (http://www.inkscape.org/) -->

<svg
   xmlns:dc="http://purl.org/dc/elements/1.1/"
   xmlns:cc="http://creativecommons.org/ns#"
   xmlns:rdf="http://www.w3.org/1999/02/22-rdf-syntax-ns#"
   xmlns:svg="http://www.w3.org/2000/svg"
   xmlns="http://www.w3.org/2000/svg"
   xmlns:sodipodi="http://sodipodi.sourceforge.net/DTD/sodipodi-0.dtd"
   xmlns:inkscape="http://www.inkscape.org/namespaces/inkscape"
   width="670.81927"
   height="455.68546"
   id="svg2"
   version="1.1"
   inkscape:version="0.48.4 r9939"
   sodipodi:docname="lapin.svg">
  <defs
     id="defs4">
    <inkscape:path-effect
       effect="spiro"
       id="path-effect3876"
       is_visible="true" />
    <inkscape:path-effect
       effect="spiro"
       id="path-effect3872"
       is_visible="true" />
  </defs>
  <sodipodi:namedview
     id="base"
     pagecolor="#ffffff"
     bordercolor="#666666"
     borderopacity="1.0"
     inkscape:pageopacity="0.0"
     inkscape:pageshadow="2"
     inkscape:zoom="0.80963726"
     inkscape:cx="409.69385"
     inkscape:cy="239.02613"
     inkscape:document-units="px"
     inkscape:current-layer="text4326"
     showgrid="false"
     inkscape:window-width="1301"
     inkscape:window-height="744"
     inkscape:window-x="65"
     inkscape:window-y="24"
     inkscape:window-maximized="1"
     fit-margin-top="0"
     fit-margin-left="0"
     fit-margin-right="0"
     fit-margin-bottom="0" />
  <metadata
     id="metadata7">
    <rdf:RDF>
      <cc:Work
         rdf:about="">
        <dc:format>image/svg+xml</dc:format>
        <dc:type
           rdf:resource="http://purl.org/dc/dcmitype/StillImage" />
        <dc:title></dc:title>
      </cc:Work>
    </rdf:RDF>
  </metadata>
  <g
     inkscape:label="Layer 1"
     inkscape:groupmode="layer"
     id="layer1"
     transform="translate(-55.231328,-157.78425)">
    <path
       sodipodi:nodetypes="sssss"
       inkscape:connector-curvature="0"
       id="path4299"
       d="M 721.39739,372.01283 C 675.37221,554.11389 609.46037,606.89002 330.18331,582.49317 79.960565,560.63442 82.005363,536.39331 71.930872,398.2137 58.315089,211.46246 210.77897,173.75956 405.1873,173.75956 c 194.40835,0 350.08088,64.24171 316.21009,198.25327 z"
       style="fill:#ffffc9;fill-opacity:1;stroke:none" />
    <path
       sodipodi:nodetypes="sssss"
       inkscape:connector-curvature="0"
       id="path4133"
       d="m 253.05313,248.90214 c 6.38956,42.55178 -5.68161,79.63721 -26.96173,82.83262 -21.28011,3.19542 -43.71081,-28.70922 -50.10037,-71.261 -6.38958,-42.5518 -1.71123,-98.71595 19.56888,-101.91135 21.28011,-3.19543 51.10366,47.78793 57.49322,90.33973 z"
       style="fill:#0197fd;fill-opacity:1;stroke:none" />
    <path
       style="fill:#33b5e5;fill-opacity:1;stroke:none"
       d="m 246.38316,250.35098 c 4.74476,42.76644 -8.7468,79.35906 -30.13427,81.73191 -21.38746,2.37286 -42.57182,-30.37261 -47.31658,-73.13904 -4.74477,-42.76645 2.09479,-98.70855 23.48225,-101.0814 21.38746,-2.37286 49.22383,49.72208 53.9686,92.48853 z"
       id="path3829"
       inkscape:connector-curvature="0"
       sodipodi:nodetypes="sssss" />
    <path
       style="fill:#b3defd;fill-opacity:1;stroke:none"
       d="m 231.68207,262.56229 c 3.32441,29.96416 -6.71895,57.31085 -17.65031,58.52364 -10.93138,1.2128 -22.48797,-22.09479 -25.81238,-52.05896 -3.3244,-29.96415 -1.84826,-71.85465 7.73534,-66.4583 17.05967,9.60599 32.40295,30.02946 35.72735,59.99362 z"
       id="path3850"
       inkscape:connector-curvature="0"
       sodipodi:nodetypes="sssss" />
    <path
       sodipodi:nodetypes="sssss"
       inkscape:connector-curvature="0"
       id="path4153"
       d="m 339.5921,217.14376 c -28.64144,15.60357 -58.93233,60.7627 -67.65655,100.8657 -8.72423,40.10301 7.42187,59.96371 36.06332,44.36013 28.64148,-15.6036 56.91582,-48.28508 65.64005,-88.38808 8.72421,-40.10302 -5.40535,-72.44134 -34.04682,-56.83775 z"
       style="fill:#0197fd;fill-opacity:1;stroke:none" />
    <path
       style="fill:#33b5e5;fill-opacity:1;stroke:none"
       d="m 335.79254,214.45656 c -28.64144,15.60358 -58.93232,60.76271 -67.65655,100.86571 -8.72423,40.10301 7.42187,59.96371 36.06332,44.36013 28.64148,-15.6036 56.91582,-48.28508 65.64005,-88.38808 8.72421,-40.10302 -5.40535,-72.44134 -34.04682,-56.83776 z"
       id="path3829-1"
       inkscape:connector-curvature="0"
       sodipodi:nodetypes="sssss" />
    <path
       style="fill:#b3defd;fill-opacity:1;stroke:none"
       d="m 337.93074,300.75257 c -20.7304,27.20801 -44.97305,64.54737 -54.8257,59.65953 -9.85265,-4.88783 -5.51666,-33.69059 9.68474,-64.33275 15.20137,-30.64216 57.91175,-63.75222 67.7644,-58.86439 9.85266,4.88785 -3.90953,38.97617 -22.62344,63.53761 z"
       id="path3850-6"
       inkscape:connector-curvature="0"
       sodipodi:nodetypes="sssss" />
    <path
       style="fill:#0197fd;fill-opacity:1;stroke:none"
       d="m 333.11802,413.5798 c 13.51679,76.53987 -21.53056,101.51879 -114.69732,94.76799 -77.69481,-5.62972 -126.580122,-42.60335 -110.60083,-96.03967 24.10632,-80.61386 55.77278,-99.16651 111.90936,-91.38134 71.76154,9.95208 103.29156,35.4766 113.38879,92.65302 z"
       id="path3763"
       inkscape:connector-curvature="0"
       sodipodi:nodetypes="sssss" />
    <path
       sodipodi:nodetypes="sssss"
       inkscape:connector-curvature="0"
       id="path4131"
       d="M 330.91213,406.40736 C 344.42892,482.94723 309.38156,507.92615 216.2148,501.17535 138.52,495.54563 89.634683,458.57201 105.61398,405.13568 c 24.10632,-80.61386 55.77278,-99.16651 111.90936,-91.38134 71.76153,9.95208 103.29155,35.4766 113.38879,92.65302 z"
       style="fill:#33b5e5;fill-opacity:1;stroke:none" />
    <path
       sodipodi:type="arc"
       style="fill:#ffffff;fill-opacity:1;stroke:none"
       id="path3766"
       sodipodi:cx="407.23578"
       sodipodi:cy="398.93781"
       sodipodi:rx="32.613495"
       sodipodi:ry="31.747652"
       d="m 439.84927,398.93781 c 0,17.53374 -14.60156,31.74765 -32.61349,31.74765 -18.01194,0 -32.6135,-14.21391 -32.6135,-31.74765 0,-17.53375 14.60156,-31.74766 32.6135,-31.74766 18.01193,0 32.61349,14.21391 32.61349,31.74766 z"
       transform="matrix(0.68403669,0.06616049,-0.06862771,0.70954536,-104.55835,100.61419)" />
    <path
       sodipodi:type="arc"
       style="fill:#000000;fill-opacity:1;stroke:none"
       id="path3766-2"
       sodipodi:cx="407.23578"
       sodipodi:cy="398.93781"
       sodipodi:rx="32.613495"
       sodipodi:ry="31.747652"
       d="m 439.84927,398.93781 c 0,17.53374 -14.60156,31.74765 -32.61349,31.74765 -18.01194,0 -32.6135,-14.21391 -32.6135,-31.74765 0,-17.53375 14.60156,-31.74766 32.6135,-31.74766 18.01193,0 32.61349,14.21391 32.61349,31.74766 z"
       transform="matrix(0.48452597,0.04686368,-0.04997229,0.51666603,-28.359502,188.34323)" />
    <path
       style="fill:#0169c9;fill-opacity:1;stroke:none"
       d="m 234.1014,430.61752 c -0.88242,9.12338 -12.31455,16.44609 -23.88856,15.32664 -11.574,-1.11944 -18.90705,-10.25713 -18.02463,-19.38052 0.88242,-9.12341 9.86001,-7.85449 21.39472,-6.32878 11.53472,1.52571 21.40089,1.25924 20.51847,10.38266 z"
       id="path3827"
       inkscape:connector-curvature="0"
       sodipodi:nodetypes="ssszs" />
    <path
       style="fill:none;stroke:#000000;stroke-width:3.4000001;stroke-linecap:round;stroke-linejoin:miter;stroke-miterlimit:1.29999995;stroke-opacity:1;stroke-dasharray:none"
       d="m 208.78249,465.72354 c 9.7958,7.46104 26.74334,19.03527 33.63864,-14.50671"
       id="path3902"
       inkscape:connector-curvature="0"
       sodipodi:nodetypes="cc" />
    <path
       style="fill:#b3defd;fill-opacity:1;stroke:none"
       d="m 169.44926,453.52464 c -0.73786,7.62876 -7.70223,13.19735 -15.55536,12.43779 -7.85315,-0.75956 -13.62122,-7.55964 -12.88336,-15.1884 0.73786,-7.62876 7.21738,-12.4241 15.07053,-11.66454 7.85313,0.75956 14.10605,6.78639 13.36819,14.41515 z"
       id="path4024"
       inkscape:connector-curvature="0"
       sodipodi:nodetypes="sssss" />
    <path
       style="fill:#b3defd;fill-opacity:1;stroke:none"
       d="m 282.35231,464.85478 c -0.73786,7.62876 -7.70224,13.19734 -15.55537,12.43778 -7.85314,-0.75956 -13.62121,-7.55964 -12.88335,-15.1884 0.73786,-7.62875 7.21738,-12.4241 15.07052,-11.66453 7.85313,0.75956 14.10605,6.78639 13.3682,14.41515 z"
       id="path4024-3"
       inkscape:connector-curvature="0"
       sodipodi:nodetypes="sssss" />
    <path
       sodipodi:type="arc"
       style="fill:#ffffff;fill-opacity:1;stroke:none"
       id="path3766-6"
       sodipodi:cx="407.23578"
       sodipodi:cy="398.93781"
       sodipodi:rx="32.613495"
       sodipodi:ry="31.747652"
       d="m 439.84927,398.93781 c 0,17.53374 -14.60156,31.74765 -32.61349,31.74765 -18.01194,0 -32.6135,-14.21391 -32.6135,-31.74765 0,-17.53375 14.60156,-31.74766 32.6135,-31.74766 18.01193,0 32.61349,14.21391 32.61349,31.74766 z"
       transform="matrix(0.68403669,0.06616049,-0.06862771,0.70954536,40.979936,112.73944)" />
    <path
       sodipodi:type="arc"
       style="fill:#000000;fill-opacity:1;stroke:none"
       id="path3766-2-2"
       sodipodi:cx="407.23578"
       sodipodi:cy="398.93781"
       sodipodi:rx="32.613495"
       sodipodi:ry="31.747652"
       d="m 439.84927,398.93781 c 0,17.53374 -14.60156,31.74765 -32.61349,31.74765 -18.01194,0 -32.6135,-14.21391 -32.6135,-31.74765 0,-17.53375 14.60156,-31.74766 32.6135,-31.74766 18.01193,0 32.61349,14.21391 32.61349,31.74766 z"
       transform="matrix(0.50321153,0.04867096,-0.05430428,0.56145472,108.7996,181.58779)" />
    <path
       style="fill:none;stroke:#000000;stroke-width:2.00397038;stroke-linecap:round;stroke-linejoin:miter;stroke-miterlimit:4;stroke-opacity:1;stroke-dasharray:none"
       d="M 114.93834,439.03075 C 93.825462,432.62952 76.847294,431.06328 59.957669,422.68447"
       id="path4161"
       inkscape:connector-curvature="0"
       sodipodi:nodetypes="cc" />
    <path
       style="fill:none;stroke:#000000;stroke-width:2.00397038;stroke-linecap:round;stroke-linejoin:miter;stroke-miterlimit:4;stroke-opacity:1;stroke-dasharray:none"
       d="m 113.65739,444.56868 c -22.024706,-1.2812 -38.897788,1.17041 -57.279503,-3.02201"
       id="path4161-8"
       inkscape:connector-curvature="0"
       sodipodi:nodetypes="cc" />
    <path
       style="fill:none;stroke:#000000;stroke-width:2.00397038;stroke-linecap:round;stroke-linejoin:miter;stroke-miterlimit:4;stroke-opacity:1;stroke-dasharray:none"
       d="m 117.5504,450.726 c -21.594549,4.51715 -37.241194,11.29164 -56.079809,12.04696"
       id="path4161-8-6"
       inkscape:connector-curvature="0"
       sodipodi:nodetypes="cc"
       inkscape:transform-center-x="14.513255"
       inkscape:transform-center-y="-7.2246641" />
    <path
       style="fill:none;stroke:#000000;stroke-width:2.49411869;stroke-linecap:round;stroke-linejoin:miter;stroke-miterlimit:4;stroke-opacity:1;stroke-dasharray:none"
       d="m 310.46279,455.19295 c 22.62052,2.83559 40.42559,-0.11032 58.87192,6.91236"
       id="path4161-9"
       inkscape:connector-curvature="0"
       sodipodi:nodetypes="cc" />
    <path
       style="fill:none;stroke:#000000;stroke-width:2.4532392;stroke-linecap:round;stroke-linejoin:miter;stroke-miterlimit:4;stroke-opacity:1;stroke-dasharray:none"
       d="m 308.31814,459.67327 c 24.46042,7.7557 44.7102,9.54363 63.75043,19.79516"
       id="path4161-8-8"
       inkscape:connector-curvature="0"
       sodipodi:nodetypes="cc" />
    <path
       style="fill:none;stroke:#000000;stroke-width:1.97464836;stroke-linecap:round;stroke-linejoin:miter;stroke-miterlimit:4;stroke-opacity:1;stroke-dasharray:none"
       d="m 300.96517,465.76597 c 23.59927,7.85352 40.02922,16.43217 61.22556,20.65594"
       id="path4161-8-6-6"
       inkscape:connector-curvature="0"
       sodipodi:nodetypes="cc"
       inkscape:transform-center-x="-16.709169"
       inkscape:transform-center-y="-6.0929072" />
    <g
       id="g4249"
       transform="matrix(0.99971031,-0.0240685,0.0240685,0.99971031,-16.716079,9.768726)">
      <path
         style="fill:#ff62ff;fill-opacity:1;stroke:none"
         d="m 567.06,272.17617 c 3.51383,42.88513 23.74841,76.22584 45.19523,74.46858 21.44682,-1.75727 35.98438,-37.94707 32.47055,-80.83219 -3.51383,-42.88514 -20.91599,-96.48983 -42.36281,-94.73256 -21.44682,1.75726 -38.81681,58.21103 -35.30297,101.09617 z"
         id="path4159"
         inkscape:connector-curvature="0"
         sodipodi:nodetypes="sssss" />
      <path
         sodipodi:nodetypes="sssss"
         inkscape:connector-curvature="0"
         id="path3829-4"
         d="m 562.98574,271.93083 c 3.51383,42.88513 23.74842,76.22585 45.19524,74.46858 21.44682,-1.75726 35.98437,-37.94706 32.47054,-80.83219 -3.51383,-42.88514 -20.91599,-96.48982 -42.3628,-94.73256 -21.44682,1.75726 -38.81681,58.21104 -35.30298,101.09617 z"
         style="fill:#ff9bff;fill-opacity:1;stroke:none" />
      <path
         sodipodi:nodetypes="sssss"
         inkscape:connector-curvature="0"
         id="path3850-5"
         d="m 573.93061,285.84692 c 2.46195,30.04733 17.54528,54.97127 28.507,54.07312 10.9617,-0.89816 17.85212,-25.98442 15.39016,-56.03175 -2.46195,-30.0473 -11.91472,-70.88404 -20.29071,-63.75601 -14.91003,12.68854 -26.06841,35.66733 -23.60645,65.71464 z"
         style="fill:#fdd99b;fill-opacity:1;stroke:none" />
      <path
         style="fill:#ff62ff;fill-opacity:1;stroke:none"
         d="m 542.2946,204.42055 c 9.71278,31.13624 0.0444,84.64705 -21.59498,119.51969 -21.63936,34.87264 -47.05529,37.90159 -56.76807,6.76533 -9.7128,-31.13629 -7.27852,-74.28245 14.36084,-109.1551 21.63939,-34.87263 54.28941,-48.26619 64.00221,-17.12992 z"
         id="path4157"
         inkscape:connector-curvature="0"
         sodipodi:nodetypes="sssss" />
      <path
         sodipodi:nodetypes="sssss"
         inkscape:connector-curvature="0"
         id="path3829-1-8"
         d="m 546.97621,201.57977 c 9.71278,31.13625 0.0444,84.64705 -21.59498,119.51969 -21.63936,34.87264 -47.05529,37.90159 -56.76806,6.76533 -9.7128,-31.13629 -7.27852,-74.28245 14.36083,-109.1551 21.63939,-34.87263 54.28941,-48.26618 64.00221,-17.12992 z"
         style="fill:#ff9bff;fill-opacity:1;stroke:none" />
      <path
         sodipodi:nodetypes="sssss"
         inkscape:connector-curvature="0"
         id="path3850-6-8"
         d="m 485.86039,267.55122 c -10.40428,32.58491 -10.95855,76.88428 -0.48124,80.22965 10.47733,3.34539 27.40519,-20.35792 37.80946,-52.94283 10.40426,-32.58486 10.34506,-61.71213 -0.13226,-65.0575 -10.47732,-3.34539 -26.7917,5.18581 -37.19596,37.77068 z"
         style="fill:#fdd99b;fill-opacity:1;stroke:none" />
      <path
         style="fill:#ff67ff;fill-opacity:1;stroke:none"
         d="m 428.6044,412.40288 c -14.86464,73.56658 19.7271,98.01355 112.97604,92.54682 77.76332,-4.55889 127.28284,-39.62566 112.25469,-91.26855 -22.67142,-77.90829 -53.99723,-96.12845 -110.24904,-89.2541 -71.90886,8.78773 -103.87758,33.02051 -114.98169,87.97583 z"
         id="path4155"
         inkscape:connector-curvature="0"
         sodipodi:nodetypes="sssss" />
      <path
         sodipodi:nodetypes="sssss"
         inkscape:connector-curvature="0"
         id="path3763-1"
         d="m 427.94447,404.34865 c -14.86464,73.56658 19.72709,98.01355 112.97603,92.54682 77.76333,-4.55889 127.28285,-39.62566 112.2547,-91.26855 -22.67142,-77.90829 -49.09927,-92.04682 -105.35108,-85.17247 -71.90886,8.78773 -108.77554,28.93888 -119.87965,83.8942 z"
         style="fill:#ff9bff;fill-opacity:1;stroke:none" />
      <path
         transform="matrix(-0.68493349,0.05612062,0.05821343,0.7104756,867.53418,101.08217)"
         d="m 439.84927,398.93781 c 0,17.53374 -14.60156,31.74765 -32.61349,31.74765 -18.01194,0 -32.6135,-14.21391 -32.6135,-31.74765 0,-17.53375 14.60156,-31.74766 32.6135,-31.74766 18.01193,0 32.61349,14.21391 32.61349,31.74766 z"
         sodipodi:ry="31.747652"
         sodipodi:rx="32.613495"
         sodipodi:cy="398.93781"
         sodipodi:cx="407.23578"
         id="path3766-21"
         style="fill:#ffffff;fill-opacity:1;stroke:none"
         sodipodi:type="arc" />
      <path
         transform="matrix(-0.48520759,0.04167902,0.04192326,0.5366874,790.75819,178.77745)"
         d="m 439.84927,398.93781 c 0,17.53374 -14.60156,31.74765 -32.61349,31.74765 -18.01194,0 -32.6135,-14.21391 -32.6135,-31.74765 0,-17.53375 14.60156,-31.74766 32.6135,-31.74766 18.01193,0 32.61349,14.21391 32.61349,31.74766 z"
         sodipodi:ry="31.747652"
         sodipodi:rx="32.613495"
         sodipodi:cy="398.93781"
         sodipodi:cx="407.23578"
         id="path3766-2-4"
         style="fill:#000000;fill-opacity:1;stroke:none"
         sodipodi:type="arc" />
      <path
         sodipodi:nodetypes="sssss"
         inkscape:connector-curvature="0"
         id="path3827-8"
         d="m 517.41582,429.28611 c 0.70518,8.60643 11.1528,15.68042 21.83103,14.80549 10.67826,-0.87493 17.5435,-9.36747 16.83833,-17.9739 -0.70518,-8.60643 -10.38309,-8.40111 -21.06134,-7.52618 -10.67825,0.87493 -18.31319,2.08816 -17.60802,10.69459 z"
         style="fill:#565248;fill-opacity:1;stroke:none" />
      <path
         sodipodi:nodetypes="cc"
         inkscape:connector-curvature="0"
         id="path3902-2"
         d="m 562.76297,450.021 c -5.39485,11.529 -15.52531,30.34274 -42.49834,5.52742"
         style="fill:none;stroke:#000000;stroke-width:3.67860222;stroke-linecap:round;stroke-linejoin:miter;stroke-miterlimit:1.29999995;stroke-opacity:1;stroke-dasharray:none" />
      <path
         sodipodi:nodetypes="sssss"
         inkscape:connector-curvature="0"
         id="path4024-2"
         d="m 584.53751,456.33865 c 0.62588,7.63876 7.50783,13.30889 15.37125,12.66459 7.86344,-0.64429 13.73063,-7.35904 13.10474,-14.9978 -0.62589,-7.63876 -7.03438,-12.52862 -14.89782,-11.88432 -7.86343,0.64429 -14.20406,6.57876 -13.57817,14.21753 z"
         style="fill:#fdd99b;fill-opacity:1;stroke:none" />
      <path
         sodipodi:nodetypes="sssss"
         inkscape:connector-curvature="0"
         id="path4024-3-9"
         d="m 480.75262,462.37851 c 0.61348,7.63847 7.38789,13.30602 15.13107,12.65882 7.74318,-0.64719 13.52295,-7.36404 12.90947,-15.0025 -0.61348,-7.63846 -6.92197,-12.52591 -14.66516,-11.87873 -7.74317,0.6472 -13.98886,6.58395 -13.37538,14.22241 z"
         style="fill:#fdd99b;fill-opacity:1;stroke:none" />
      <path
         transform="matrix(-0.68493349,0.05612062,0.05821343,0.7104756,721.8337,111.07151)"
         d="m 439.84927,398.93781 c 0,17.53374 -14.60156,31.74765 -32.61349,31.74765 -18.01194,0 -32.6135,-14.21391 -32.6135,-31.74765 0,-17.53375 14.60156,-31.74766 32.6135,-31.74766 18.01193,0 32.61349,14.21391 32.61349,31.74766 z"
         sodipodi:ry="31.747652"
         sodipodi:rx="32.613495"
         sodipodi:cy="398.93781"
         sodipodi:cx="407.23578"
         id="path3766-6-9"
         style="fill:#ffffff;fill-opacity:1;stroke:none"
         sodipodi:type="arc" />
      <path
         transform="matrix(-0.50387125,0.04128513,0.04606359,0.56219081,653.82513,178.85108)"
         d="m 439.84927,398.93781 c 0,17.53374 -14.60156,31.74765 -32.61349,31.74765 -18.01194,0 -32.6135,-14.21391 -32.6135,-31.74765 0,-17.53375 14.60156,-31.74766 32.6135,-31.74766 18.01193,0 32.61349,14.21391 32.61349,31.74766 z"
         sodipodi:ry="31.747652"
         sodipodi:rx="32.613495"
         sodipodi:cy="398.93781"
         sodipodi:cx="407.23578"
         id="path3766-2-2-8"
         style="fill:#000000;fill-opacity:1;stroke:none"
         sodipodi:type="arc" />
      <path
         sodipodi:nodetypes="cc"
         inkscape:connector-curvature="0"
         id="path4161-6"
         d="m 443.19567,453.36273 c -21.41695,-5.29561 -38.45356,-5.97758 -55.75572,-13.46752"
         style="fill:none;stroke:#000000;stroke-width:2.00397038;stroke-linecap:round;stroke-linejoin:miter;stroke-miterlimit:4;stroke-opacity:1;stroke-dasharray:none" />
      <path
         sodipodi:nodetypes="cc"
         inkscape:connector-curvature="0"
         id="path4161-8-2"
         d="m 444.25861,459.80652 c -22.04574,0.8451 -38.60443,4.90972 -57.30437,2.5064"
         style="fill:none;stroke:#000000;stroke-width:2.00397038;stroke-linecap:round;stroke-linejoin:miter;stroke-miterlimit:4;stroke-opacity:1;stroke-dasharray:none" />
      <path
         inkscape:transform-center-y="-7.2246641"
         inkscape:transform-center-x="14.513255"
         sodipodi:nodetypes="cc"
         inkscape:connector-curvature="0"
         id="path4161-8-6-3"
         d="m 447.23244,464.55584 c -21.05937,6.57511 -35.98115,14.82446 -54.65955,17.38989"
         style="fill:none;stroke:#000000;stroke-width:2.00397038;stroke-linecap:round;stroke-linejoin:miter;stroke-miterlimit:4;stroke-opacity:1;stroke-dasharray:none" />
      <path
         sodipodi:nodetypes="cc"
         inkscape:connector-curvature="0"
         id="path4161-82"
         d="m 641.31919,432.28119 c 23.74031,-5.84621 43.15701,-7.95227 61.85225,-14.98996"
         style="fill:none;stroke:#000000;stroke-width:1.83667159;stroke-linecap:round;stroke-linejoin:miter;stroke-miterlimit:4;stroke-opacity:1;stroke-dasharray:none" />
      <path
         sodipodi:nodetypes="cc"
         inkscape:connector-curvature="0"
         id="path4161-8-62"
         d="m 640.80249,436.04328 c 25.47604,0.6143 44.61125,3.56887 66.2209,1.8219"
         style="fill:none;stroke:#000000;stroke-width:1.83667159;stroke-linecap:round;stroke-linejoin:miter;stroke-miterlimit:4;stroke-opacity:1;stroke-dasharray:none" />
      <path
         inkscape:transform-center-y="-5.2515916"
         inkscape:transform-center-x="-16.771507"
         sodipodi:nodetypes="cc"
         inkscape:connector-curvature="0"
         id="path4161-8-6-7"
         d="m 635.36479,442.01307 c 24.33619,4.77943 41.57979,10.77587 63.16454,12.64067"
         style="fill:none;stroke:#000000;stroke-width:1.83667159;stroke-linecap:round;stroke-linejoin:miter;stroke-miterlimit:4;stroke-opacity:1;stroke-dasharray:none" />
      <g
         transform="matrix(0.99989739,0.01432509,-0.01432509,0.99989739,0,0)"
         style="font-size:40px;font-style:normal;font-variant:normal;font-weight:normal;font-stretch:normal;line-height:125%;letter-spacing:0px;word-spacing:0px;fill:#001f3e;fill-opacity:1;stroke:none;font-family:Claire Hand;-inkscape-font-specification:Claire Hand"
         id="text4326">
        <g
           id="g4450"
           transform="matrix(1.1455745,-0.03072001,0.03072001,1.1455745,-88.054479,-73.221913)">
          <text
             transform="matrix(0.99995252,0.00974509,-0.00974509,0.99995252,0,0)"
             sodipodi:linespacing="125%"
             id="text4425-5"
             y="585.52924"
             x="185.87743"
             style="font-size:63.76999283px;font-style:normal;font-variant:normal;font-weight:normal;font-stretch:normal;line-height:125%;letter-spacing:0px;word-spacing:0px;fill:#4e9a06;fill-opacity:1;stroke:none;font-family:Sans;-inkscape-font-specification:Claire Hand"
             xml:space="preserve"><tspan
               style="font-style:normal;font-variant:normal;font-weight:500;font-stretch:normal;fill:#4e9a06;font-family:GROBOLD;-inkscape-font-specification:GROBOLD Medium"
               y="585.52924"
               x="185.87743"
               id="tspan4427-6"
               sodipodi:role="line">Happy Easter!</tspan></text>
          <text
             transform="matrix(0.99995252,0.00974509,-0.00974509,0.99995252,0,0)"
             sodipodi:linespacing="125%"
             id="text4425"
             y="583.80341"
             x="187.06682"
             style="font-size:63.76999283px;font-style:normal;font-weight:normal;line-height:125%;letter-spacing:0px;word-spacing:0px;fill:#73d216;fill-opacity:1;stroke:none;font-family:Sans"
             xml:space="preserve"><tspan
               style="font-style:normal;font-variant:normal;font-weight:500;font-stretch:normal;fill:#73d216;font-family:GROBOLD;-inkscape-font-specification:GROBOLD Medium"
               y="583.80341"
               x="187.06682"
               id="tspan4427"
               sodipodi:role="line">Happy Easter!</tspan></text>
        </g>
      </g>
    </g>
  </g>
</svg>
