<?xml version="1.0" encoding="UTF-8" standalone="no"?>
<!-- Created with Inkscape (http://www.inkscape.org/) -->

<svg
   xmlns:dc="http://purl.org/dc/elements/1.1/"
   xmlns:cc="http://creativecommons.org/ns#"
   xmlns:rdf="http://www.w3.org/1999/02/22-rdf-syntax-ns#"
   xmlns:svg="http://www.w3.org/2000/svg"
   xmlns="http://www.w3.org/2000/svg"
   xmlns:sodipodi="http://sodipodi.sourceforge.net/DTD/sodipodi-0.dtd"
   xmlns:inkscape="http://www.inkscape.org/namespaces/inkscape"
   width="744.09448819"
   height="1052.3622047"
   id="svg3059"
   version="1.1"
   inkscape:version="0.48.4 r9939"
   sodipodi:docname="_M.svg">
  <defs
     id="defs3061" />
  <sodipodi:namedview
     id="base"
     pagecolor="#ffffff"
     bordercolor="#666666"
     borderopacity="1.0"
     inkscape:pageopacity="0.0"
     inkscape:pageshadow="2"
     inkscape:zoom="0.7"
     inkscape:cx="706.50255"
     inkscape:cy="457.99562"
     inkscape:document-units="px"
     inkscape:current-layer="layer1"
     showgrid="false"
     inkscape:window-width="1280"
     inkscape:window-height="974"
     inkscape:window-x="-8"
     inkscape:window-y="-8"
     inkscape:window-maximized="1" />
  <metadata
     id="metadata3064">
    <rdf:RDF>
      <cc:Work
         rdf:about="">
        <dc:format>image/svg+xml</dc:format>
        <dc:type
           rdf:resource="http://purl.org/dc/dcmitype/StillImage" />
        <dc:title></dc:title>
      </cc:Work>
    </rdf:RDF>
  </metadata>
  <g
     inkscape:label="Layer 1"
     inkscape:groupmode="layer"
     id="layer1">
    <g
       id="g3426"
       transform="translate(9.9999964,10)">
      <path
         style="fill:#f9fcf9"
         d="m 30.357115,479.37951 0,-507.445901 351.800715,0 351.80072,0 0,507.445901 0,507.4459 -351.80072,0 -351.800715,0 0,-507.4459 z"
         id="path3432"
         inkscape:connector-curvature="0" />
      <path
         style="fill:#269326"
         d="M 97.191273,869.68758 C 85.009788,857.5061 83.941477,815.45581 92.312898,677.66719 99.490822,559.52283 102.90037,462.32481 104.74623,323.22251 c 1.27522,-96.09989 3.9611,-167.29839 6.56998,-174.16026 5.64808,-14.85558 34.6157,-48.87811 41.77196,-49.06126 3.00528,-0.07693 6.52193,2.61669 7.81477,5.98579 1.96306,5.11566 4.77468,4.76412 17.05287,-2.13212 16.59493,-9.320817 20.4229,-10.219593 16.50135,-3.874383 -1.49,2.410863 1.75485,8.001203 7.21077,12.422993 7.72557,6.26124 11.24347,6.94233 15.90358,3.07906 6.49361,-5.38326 25.99816,-7.19637 25.99816,-2.41673 0,1.61705 -2.87837,4.04463 -6.39637,5.39462 -3.51801,1.34999 -6.39638,4.66862 -6.39638,7.37474 0,3.70541 1.45632,3.71158 5.89838,0.0252 7.14862,-5.933 11.15862,1.94435 11.15862,21.92011 0,7.20915 4.53338,19.05111 10.07417,26.31546 11.49977,15.07698 26.20796,45.88151 30.79744,64.50155 1.71419,6.95466 13.07287,35.67178 25.24151,63.81584 12.16864,28.14406 27.38552,65.56286 33.81529,83.1529 24.46249,66.92248 46.84801,122.33992 63.63605,157.53696 9.57168,20.06757 16.98254,37.92566 16.46857,39.68466 -0.51396,1.75901 0.70134,3.19819 2.70068,3.19819 1.99934,0 4.87001,-16.06501 6.37928,-35.70006 2.5914,-33.71321 17.05038,-116.69652 22.75667,-130.60574 1.44328,-3.51801 3.34343,-10.2342 4.22255,-14.92488 2.68042,-14.30151 19.19693,-71.8196 23.87767,-83.1529 2.42159,-5.86334 4.87187,-12.88316 5.44503,-15.59959 1.91349,-9.0684 32.4382,-88.80974 35.65263,-93.13715 1.7428,-2.34625 6.61185,-13.86048 10.82011,-25.58717 4.20822,-11.72669 9.81567,-23.24017 12.46096,-25.58551 2.64528,-2.34534 5.47167,-8.10208 6.28085,-12.79275 2.20202,-12.7645 9.76979,-20.03204 18.48604,-17.75269 8.76453,2.29197 10.95035,-7.96704 2.43003,-11.40507 -4.26425,-1.72066 -4.26425,-2.21816 0,-2.48748 2.93167,-0.18515 5.33031,-3.00972 5.33031,-6.2768 0,-6.81096 13.0023,-13.082694 16.71608,-8.06309 4.42608,5.98238 19.39318,3.52596 25.10216,-4.119826 8.61489,-11.537469 15.53006,-8.885109 7.7585,2.975816 -4.92747,7.52027 -5.47645,11.28064 -1.96373,13.45162 3.00395,1.85653 3.70768,1.12338 1.83308,-1.90976 -1.69078,-2.73575 -0.56254,-5.06807 2.53932,-5.24937 3.07009,-0.17944 8.94008,-0.96911 13.04442,-1.75481 9.62664,-1.84284 9.64971,4.69749 0.0341,10.07785 -4.08481,2.28597 -6.02036,5.56286 -4.30127,7.28198 1.71914,1.71912 0.952,5.7448 -1.70472,8.94595 -3.81757,4.59987 -3.3627,5.25708 2.16914,3.13431 3.85113,-1.47728 7.00092,-4.07976 7.00092,-5.78328 0,-1.70353 2.79582,-3.09732 6.21289,-3.09732 8.63558,0 12.09371,11.15949 4.37585,14.12111 -3.47848,1.33481 -6.32449,4.37551 -6.32449,6.75709 0,2.45312 2.83573,1.97672 6.54175,-1.099 5.30494,-4.40273 8.52974,-4.36522 17.057,0.19846 5.78339,3.09518 10.51526,7.18846 10.51526,9.09617 0,1.90771 -7.40572,15.56812 -16.45719,30.35646 -24.47621,39.98937 -42.64025,82.75059 -71.05948,167.28576 -13.6914,40.72623 -30.99885,101.24437 -34.14659,119.39903 -13.80782,79.6363 -15.16057,94.8265 -14.46485,162.42794 0.41235,40.08323 2.27638,83.25878 4.14195,95.94565 5.41415,36.81891 7.91053,91.45889 4.43546,97.08169 -1.75495,2.83957 -6.39548,3.93305 -10.31232,2.43003 -5.40289,-2.07328 -7.13729,-0.30746 -7.1868,7.31801 -0.0341,5.52796 -1.82301,12.82908 -3.97126,16.22479 -3.04518,4.81332 -4.57196,3.52052 -6.92783,-5.86607 -2.74984,-10.95632 -3.41511,-11.3201 -7.39101,-4.04183 -5.34596,9.78637 -12.07802,14.53713 -16.62107,11.72938 -1.87098,-1.15634 -3.40181,0.65422 -3.40181,4.02349 0,9.14217 -11.34836,17.57916 -14.18554,10.54634 -1.74907,-4.33559 -3.01713,-4.38748 -5.95605,-0.24391 -4.73809,6.6805 -22.50092,-4.59772 -22.50092,-14.28657 0,-3.52342 -1.78885,-5.30067 -3.97526,-3.94942 -2.18637,1.3513 -9.91603,-8.68922 -17.177,-22.31218 -7.26097,-13.62296 -21.30314,-34.65885 -31.20482,-46.74647 -9.90168,-12.08738 -21.84089,-29.20102 -26.53156,-38.03011 -4.69068,-8.82909 -21.74475,-38.1975 -37.89794,-65.26317 -28.80503,-48.26463 -51.93434,-94.24285 -70.87548,-140.89171 -5.2376,-12.89936 -12.82699,-31.12904 -16.86529,-40.51039 -4.03831,-9.38135 -12.85188,-33.11195 -19.58571,-52.73472 -11.07885,-32.28434 -12.54686,-34.54269 -15.43475,-23.7445 -1.75528,6.56324 -3.54372,41.80732 -3.9743,78.32018 -0.4306,36.51291 -2.27427,83.65728 -4.09706,104.76532 -2.81592,32.6086 -5.23762,80.23526 -10.40768,204.68406 -1.29424,31.15381 -1.51574,31.93553 -8.31029,29.3282 -6.13286,-2.3534 -8.09769,2.15682 -12.30223,28.23919 l -1.71851,10.66063 -3.3357,-10.22508 c -3.16671,-9.70705 -3.6262,-9.82782 -9.06985,-2.38316 -3.15378,4.31304 -5.76353,6.03596 -5.79945,3.8287 -0.0359,-2.20726 -1.92544,-1.13484 -4.19895,2.38316 -3.1978,4.94824 -4.14844,3.62325 -4.19895,-5.85242 -0.0563,-10.56204 -0.97288,-11.49562 -6.65574,-6.77927 -3.62474,3.00826 -5.60388,8.0405 -4.39808,11.18275 1.24262,3.23827 -0.6296,5.7132 -4.32186,5.7132 -3.58281,0 -5.50167,-1.63833 -4.26413,-3.64069 1.23754,-2.00241 -2.79283,-5.9384 -8.95638,-8.74671 -10.91256,-4.97211 -18.09504,-1.36754 -18.31057,9.18921 -0.10704,5.2414 -7.54266,3.64013 -14.251917,-3.06911 z M 526.63732,255.28484 c 1.4562,-3.79486 0.74134,-5.50652 -1.6759,-4.01259 -2.31847,1.4329 -4.21542,4.41093 -4.21542,6.61786 0,6.13383 3.05648,4.78219 5.89132,-2.60527 z"
         id="path3430"
         inkscape:connector-curvature="0" />
      <path
         style="fill:#057a05"
         d="m 445.97629,820.7153 c -10.87446,-18.4156 -23.04561,-37.02701 -27.04701,-41.35872 -8.79709,-9.52331 -34.63932,-46.8779 -34.63932,-50.07071 0,-1.25395 -10.81075,-20.09733 -24.02389,-41.87418 -43.47424,-71.65072 -75.14938,-139.89094 -115.36638,-248.54257 -20.09416,-54.2871 -20.57286,-55.08198 -23.11222,-38.37826 -2.31915,15.25523 -2.65698,15.64938 -3.19819,3.73122 -0.92794,-20.43494 -5.56007,-40.0538 -8.96071,-37.95209 -1.67913,1.03776 -3.37096,36.02678 -3.75962,77.75338 -0.65758,70.59796 -8.51017,227.50151 -11.55454,230.87266 -3.65519,4.0475 -10.44457,-4.92445 -7.06424,-9.33517 2.08678,-2.72286 2.37124,-9.74796 0.63213,-15.6113 -3.80383,-12.82448 -3.90086,-12.56065 -6.27344,17.057 -1.03332,12.89936 -0.46707,20.16556 1.25834,16.1471 1.72542,-4.01846 5.11741,-5.93737 7.53776,-4.26425 2.98749,2.06518 3.15045,23.24004 0.50748,65.93974 -3.56261,57.5572 -7.52843,74.96208 -12.63133,55.43527 -1.46752,-5.61564 -2.07255,-5.08798 -2.4448,2.13212 -0.29052,5.63555 -3.23783,9.59457 -7.1427,9.59457 -3.65642,0 -5.57161,1.74169 -4.25597,3.87044 1.31563,2.12872 0.59105,8.36519 -1.61017,13.85882 -3.47405,8.67016 -4.13376,7.45592 -4.99882,-9.20076 -2.37637,-45.7564 2.628,-172.93266 7.37698,-187.47124 1.12115,-3.43234 3.02962,-51.40517 4.24104,-106.60628 1.21142,-55.20116 2.97315,-102.76436 3.91495,-105.69604 0.9418,-2.93167 -0.1463,-5.33031 -2.41805,-5.33031 -4.12974,0 -5.71665,13.10234 -4.26089,35.18007 0.56977,8.64095 -1.27499,11.85684 -7.01059,12.22135 -7.22889,0.45938 -7.20768,0.64219 0.29756,2.56401 6.49328,1.66267 6.91227,2.80963 2.13213,5.83639 -3.2721,2.07192 -4.03035,3.79408 -1.68501,3.82704 4.85647,0.0682 3.37108,110.31004 -1.58055,117.30469 -1.6731,2.36342 -2.57078,13.89169 -1.99483,25.61838 1.27498,25.95953 -2.83037,62.3292 -6.76138,59.89969 -1.57476,-0.97328 -5.64994,-0.009 -9.05597,2.14803 -4.24965,2.68835 -4.52027,3.93808 -0.86246,3.98289 2.93167,0.0341 5.52159,4.38284 5.75537,9.65985 0.41022,9.25923 0.55512,9.22196 4.1462,-1.06606 2.6057,-7.46504 3.16348,-2.9912 1.86075,14.92488 -1.02321,14.07203 -1.92954,42.59979 -2.01407,63.39505 -0.14503,35.67455 -0.63526,37.68361 -8.68219,35.57929 -6.89812,-1.80391 -8.59286,-0.0648 -8.86515,9.09722 -0.27756,9.33965 -1.53945,7.96004 -7.19072,-7.86165 -6.40821,-17.94086 -7.05214,-18.49564 -9.89892,-8.52851 -2.19691,7.69182 -3.30384,3.53554 -3.97488,-14.92488 -0.51153,-14.07203 -0.52356,-27.50442 -0.0269,-29.84975 0.49681,-2.34534 1.91576,-13.85882 3.15322,-25.58551 3.18519,-30.18416 6.17546,-30.12664 5.04671,0.0972 -0.52356,14.01869 -2.34636,26.44796 -4.05069,27.62062 -1.70433,1.17267 -0.73603,4.32314 2.15177,7.00101 4.08938,3.79216 5.44388,0.963 6.12477,-12.79275 0.48083,-9.71388 1.60508,-25.33729 2.49834,-34.71864 2.91009,-30.56287 6.07419,-110.98311 4.19437,-106.60628 -1.0073,2.34533 -3.5538,14.81827 -5.65889,27.71763 l -3.82743,23.45338 -0.4985,-24.51944 c -0.57269,-28.16816 -8.78319,-33.69121 -9.50879,-6.39638 -0.26498,9.96769 -1.18456,24.83926 -2.04351,33.04795 -0.85894,8.20868 -2.77269,41.78966 -4.25276,74.62439 -1.48008,32.83474 -4.637825,61.61843 -7.017213,63.96377 -4.076134,4.01778 -2.155988,-78.56768 3.618813,-155.64517 4.32931,-57.78431 5.26083,-87.75245 7.82033,-251.59082 2.80568,-179.59682 5.43466,-238.79807 10.60442,-238.79807 1.77015,0 2.61338,63.32413 1.87385,140.72029 -0.76122,79.66622 0.29078,140.72029 2.4247,140.72029 2.07312,0 3.80445,-13.91212 3.84741,-30.91582 0.0429,-17.0037 0.14788,-65.93599 0.23321,-108.73841 0.0854,-42.80263 1.70689,-77.8228 3.60333,-77.8228 1.89645,0 2.69199,-7.92836 1.76788,-17.61858 -1.16675,-12.23456 -0.22388,-16.71852 3.0855,-14.67322 2.62114,1.61996 4.7657,0.91321 4.7657,-1.57054 0,-2.48376 -1.91891,-4.51592 -4.26425,-4.51592 -5.36559,0 -5.65486,-28.48699 -0.32271,-31.78243 2.16783,-1.3398 4.92274,0.9456 6.12202,5.07865 1.22524,4.22256 1.85436,2.62143 1.43604,-3.65478 -0.73887,-11.08561 8.68837,-33.60521 14.06794,-33.60521 1.54283,0 1.96023,5.75674 0.92757,12.79276 -2.04149,13.90956 -0.34937,15.07514 12.16349,8.37846 6.1571,-3.29518 8.29693,-3.02491 8.4405,1.06607 0.1058,3.01419 2.8283,-0.27641 6.05004,-7.31241 3.22174,-7.03601 6.30583,-10.87384 6.85355,-8.5285 0.54771,2.34534 1.44168,6.18316 1.98658,8.5285 0.54491,2.34534 1.21209,6.02315 1.48262,8.17291 0.27052,2.14976 7.25936,-3.60698 15.53073,-12.79276 l 15.03884,-16.70141 -8.62653,14.92488 c -9.43077,16.31633 -11.02739,23.2887 -4.39416,19.18914 2.34534,-1.4495 4.26426,0.29593 4.26426,3.87875 0,3.67657 2.47672,5.5638 5.68566,4.33241 3.12712,-1.19999 5.7105,0.29944 5.74086,3.33202 0.0303,3.0326 6.33143,14.7599 14.0024,26.06067 7.67097,11.30076 21.43204,42.00337 30.58014,68.22802 9.1481,26.22464 22.32769,58.45075 29.28798,71.61356 6.96029,13.16282 13.35451,27.55467 14.2094,31.98188 1.68065,8.70369 5.65494,20.14352 11.68505,33.63501 2.09653,4.69067 11.29039,29.63654 20.43079,55.43526 15.22622,42.9759 28.40162,74.18766 53.10188,125.79542 5.05132,10.55402 10.38153,20.14858 11.84493,21.32125 1.46339,1.17267 5.85611,8.36859 9.76159,15.99094 8.32053,16.23921 12.93195,17.99979 10.2383,3.90892 -1.22115,-6.38811 0.12738,-9.94995 3.76714,-9.94995 5.95289,0 6.99855,4.84572 5.81161,26.93164 -0.39691,7.38547 1.13754,14.57722 3.40989,15.98161 2.33653,1.44404 4.16844,-3.46368 4.21649,-11.29605 0.27031,-44.06408 4.93773,-99.46251 11.04678,-131.11638 3.84746,-19.93538 7.65919,-40.08397 8.47055,-44.77464 0.81136,-4.69068 1.83022,-8.52851 2.26419,-8.52851 0.43393,0 1.67495,-8.60325 2.75782,-19.11834 1.97482,-19.17625 14.59862,-40.30837 14.59862,-24.43795 0,4.02059 -1.51074,7.31016 -3.3572,7.31016 -1.84647,0 -3.77199,5.44323 -4.27892,12.09606 -0.50694,6.65287 -4.45013,29.2001 -8.76266,50.10495 -4.31252,20.9049 -8.20659,45.24516 -8.65344,54.08947 -0.44689,8.84427 -2.18888,20.35775 -3.87109,25.58551 -1.6822,5.22771 -1.98202,26.77515 -0.6662,47.88319 l 2.39237,38.37826 0.80582,-32.33722 c 0.44318,-17.78551 1.87789,-33.40935 3.18825,-34.71971 1.31032,-1.31032 3.16672,-14.5828 4.12532,-29.49437 0.95861,-14.91158 2.73249,-31.90927 3.942,-37.77261 1.20952,-5.86335 3.09636,-15.45791 4.19291,-21.32126 8.89446,-47.55766 12.03619,-59.52711 15.12368,-57.61895 1.95375,1.20751 2.54533,-1.65525 1.31459,-6.36166 -1.23075,-4.70637 -0.0593,-11.18202 2.60336,-14.39027 2.6626,-3.20825 3.52245,-9.26955 1.91073,-13.46957 -2.16931,-5.65314 -1.46358,-6.72987 2.71744,-4.14587 3.79953,2.34824 4.63101,1.84537 2.54081,-1.53664 -1.70882,-2.76494 -1.8231,-10.87246 -0.25415,-18.01672 2.06573,-9.40507 4.67281,-12.29124 9.44762,-10.45897 5.26306,2.01963 5.5874,1.31695 1.60625,-3.48005 -5.1081,-6.15491 1.7834,-29.97055 21.38595,-73.90534 4.39009,-9.83902 7.98182,-20.75952 7.98182,-24.26778 0,-3.50827 1.77129,-7.47338 3.93616,-8.81136 2.16492,-1.33798 5.19945,-8.18417 6.74341,-15.21376 1.54391,-7.02958 4.43733,-11.77356 6.42976,-10.54216 1.99243,1.23139 5.01118,-0.008 6.70827,-2.75378 1.9271,-3.11814 1.23723,-3.85029 -1.83747,-1.95003 -6.46132,3.99332 -6.21429,1.0914 1.47326,-17.30753 7.97159,-19.07867 8.0344,-23.15656 0.31129,-20.19286 -4.47879,1.71867 -5.45658,-0.0689 -3.70385,-6.77138 1.43761,-5.4973 4.70957,-8.21312 8.25568,-6.85236 3.23081,1.23978 8.11794,-1.33859 10.86024,-5.72972 5.0336,-8.06012 15.52541,-7.31986 21.46879,1.51475 1.95371,2.90414 5.54652,1.07082 9.83635,-5.01927 3.71711,-5.27701 8.80346,-9.59457 11.303,-9.59457 2.93785,0 2.72255,2.1954 -0.60894,6.20958 -5.77081,6.95344 -1.99545,16.75245 4.82935,12.53451 2.41724,-1.49395 1.96041,1.83284 -1.01523,7.39288 -2.97564,5.56004 -4.96214,10.10917 -4.41444,10.10917 1.98936,0 -4.65383,17.36322 -11.4206,29.84976 -7.38415,13.62574 -7.28462,14.58597 2.23327,21.54561 5.28917,3.86755 5.1867,5.27853 -0.74053,10.19771 -5.90428,4.9001 -6.49846,4.71724 -4.19308,-1.29041 1.4771,-3.84974 0.86871,-6.99953 -1.35215,-6.99953 -2.22086,0 -6.57113,7.67565 -9.66727,17.057 -4.84573,14.68272 -7.35008,17.05701 -17.99122,17.05701 -7.15537,0 -11.25186,1.79598 -9.72641,4.26425 1.4495,2.34534 0.82701,4.26425 -1.38337,4.26425 -2.21033,0 -4.90883,4.65594 -5.99664,10.34654 -1.51872,7.94454 -0.21791,10.21396 5.60382,9.77543 4.16997,-0.3141 6.66647,-2.05203 5.54783,-3.86203 -2.73424,-4.42411 6.13255,-20.52419 11.30325,-20.52419 2.26283,0 4.11424,1.90061 4.11424,4.22358 0,7.40081 -18.52054,46.94743 -21.98648,46.94743 -1.83227,0 -2.37199,2.50009 -1.19941,5.55575 2.70618,7.05225 -9.6436,37.08677 -15.2496,37.08677 -2.31387,0 -4.35853,-3.3581 -4.54369,-7.46244 -0.24818,-5.4974 -0.96393,-5.87604 -2.71888,-1.43791 -1.31024,3.31349 0.91186,8.43324 4.938,11.37721 6.20657,4.53838 6.51057,6.86542 1.99831,15.29672 -2.92706,5.46923 -4.99766,10.42378 -4.60134,11.01011 3.08033,4.55725 -0.47875,8.86666 -5.6758,6.8724 -8.69826,-3.33785 -20.38487,1.60182 -16.94763,7.16339 1.91056,3.09132 4.69908,2.91039 8.9018,-0.57755 8.70585,-7.22522 11.15425,-2.7435 7.91986,14.49721 -1.84885,9.85533 -5.67525,15.71795 -11.20206,17.16323 -7.39246,1.93316 -8.09205,0.58083 -5.86356,-11.33421 l 2.53045,-13.52927 -6.63666,14.60621 c -5.29919,11.66268 -5.54059,15.30179 -1.19792,18.05778 7.56444,4.80057 12.86133,4.42821 9.70297,-0.68211 -1.44951,-2.34534 -0.37952,-4.26425 2.37778,-4.26425 3.11798,0 4.04119,3.6273 2.44206,9.59456 -1.4142,5.27702 -2.59749,12.95267 -2.62951,17.05701 -0.0341,4.10434 -2.60422,7.46244 -5.71606,7.46244 -3.8609,0 -5.0615,-4.06302 -3.78026,-12.79275 1.21113,-8.25197 0.0299,-12.79276 -3.32688,-12.79276 -2.98084,0 -4.10511,2.8649 -2.63139,6.70528 1.41518,3.68794 0.57227,10.44379 -1.87311,15.01302 -5.42984,10.14576 -1.09404,19.67219 5.81089,12.76726 5.94735,-5.94736 12.83182,-6.04334 9.1759,-0.12793 -1.53231,2.47936 -3.50035,9.67529 -4.37341,15.99094 -3.31584,23.98667 -6.77786,59.27949 -8.09897,82.56388 -0.75438,13.29568 -2.65364,26.24834 -4.22058,28.78369 -1.5669,2.53532 -1.12815,4.60966 0.97502,4.60966 2.10317,0 4.11876,21.85552 4.47908,48.56786 0.36033,26.71234 2.6139,53.09739 5.00794,58.63346 3.38646,7.83099 3.88358,4.62223 2.23929,-14.45385 -1.26384,-14.66204 -0.42745,-24.51945 2.0804,-24.51945 2.30666,0 4.32122,2.39864 4.47682,5.33031 0.15565,2.93168 0.885,17.47725 1.62089,32.3235 0.73588,14.84625 3.37003,29.02522 5.85362,31.50881 3.17797,3.17797 4.02959,-2.2917 2.87496,-18.46468 -0.9024,-12.63916 -1.6463,-33.0546 -1.65313,-45.36763 -0.009,-16.83483 -1.5651,-22.38731 -6.27262,-22.38731 -3.44309,0 -7.38496,2.39864 -8.75971,5.33031 -3.38288,7.21405 0.76091,-154.18769 4.26971,-166.3058 5.10712,-17.63822 9.25901,-9.85255 5.49376,10.30192 -2.04441,10.94305 -2.88379,20.7298 -1.86531,21.74828 4.40983,4.40983 10.94769,-4.71106 10.94769,-15.27301 0,-6.32675 1.8932,-18.10435 4.20707,-26.17244 2.31391,-8.06809 5.18879,-22.44728 6.38862,-31.95374 1.19987,-9.50647 4.88973,-27.35876 8.19973,-39.67178 3.30999,-12.31303 4.99744,-22.38732 3.74985,-22.38732 -1.24755,0 0.0507,-2.79432 2.88524,-6.20961 2.8344,-3.41524 4.01688,-8.04863 2.62767,-10.29639 -1.38921,-2.24776 -1.07468,-4.73046 0.69895,-5.51711 1.77363,-0.78665 8.72355,-18.53638 15.44435,-39.44384 6.72076,-20.90746 16.79506,-46.61886 22.38732,-57.13645 5.59223,-10.51758 10.16773,-22.29111 10.16773,-26.16341 0,-3.8723 1.60173,-8.8635 3.55945,-11.09158 4.47768,-5.0961 19.87098,-45.70114 18.78791,-49.55937 -1.25429,-4.46798 23.11053,-29.11606 28.78143,-29.11606 2.78554,0 0.22942,5.74638 -5.68045,12.76974 -5.90974,7.02336 -11.96638,16.61793 -13.45917,21.32126 -1.49279,4.70333 -4.61699,8.55151 -6.94267,8.55151 -2.32572,0 -3.17738,1.7009 -1.89256,3.77977 1.28482,2.07888 -3.17994,15.991 -9.92168,30.91583 -27.12933,60.05881 -70.86814,198.66734 -75.78631,240.16725 -1.09997,9.28161 -2.75923,18.10422 -3.68726,19.60579 -3.91654,6.3371 -7.96242,69.68 -7.6113,119.16373 0.44382,62.55192 3.88025,115.77724 9.75682,151.11837 4.21376,25.34134 2.88331,36.31449 -2.56171,21.12809 -4.3109,-12.02336 -10.58528,-18.93622 -14.81473,-16.32228 -2.06215,1.27446 -0.0499,9.56864 4.47153,18.43146 6.64499,13.02533 7.04762,16.11427 2.1004,16.11427 -3.36628,0 -6.14986,-2.07883 -6.18576,-4.61964 -0.0341,-2.54077 -1.78587,-1.90138 -3.88874,1.42085 -2.23652,3.53336 -2.25323,10.17033 -0.0384,15.99094 5.10567,13.42886 1.90782,12.5224 -12.42867,-3.52291 -14.13723,-15.82229 -23.7153,-13.24408 -20.94404,5.63764 1.00704,6.86152 0.23197,13.46373 -1.72225,14.67158 -1.95431,1.20781 -3.55327,-0.46109 -3.55327,-3.7087 0,-3.24761 -4.9838,-10.55675 -11.07507,-16.24262 -10.33454,-9.64659 -11.01456,-9.76761 -10.1696,-1.80936 1.67031,15.73184 -0.0341,22.52505 -6.25434,24.91154 -4.28719,1.64515 -12.22829,-7.8759 -25.94944,-31.11223 z m 25.53889,15.79525 c -3.88585,-12.8617 -10.4687,-19.65048 -10.4687,-10.79619 0,10.24073 4.61541,20.39076 9.2721,20.39076 2.26313,0 2.79846,-4.29257 1.1966,-9.59457 z m 56.0714,-23.36456 c -1.41701,-1.41696 -2.42482,1.10163 -2.23967,5.59683 0.20469,4.96764 1.21506,5.97806 2.57629,2.57634 1.23182,-3.07828 1.08035,-6.7562 -0.33645,-8.17317 z M 145.4919,797.20004 c 0,-3.96209 -2.48093,-5.31049 -6.75392,-3.6708 -5.43787,2.08672 -5.6456,3.29427 -1.06606,6.19724 7.57382,4.80104 7.81998,4.72151 7.81998,-2.52644 z m -2.62562,-23.20623 c 4.06426,-5.13859 3.42127,-5.18319 -4.41134,-0.30617 -5.54846,3.4549 -8.18616,8.27081 -6.67986,12.19614 2.12048,5.52588 2.77395,5.5712 4.41134,0.30618 1.05716,-3.39942 4.0631,-8.88768 6.67986,-12.19619 z m 36.73963,8.14754 c 0,-4.69068 -0.73566,-8.5285 -1.63479,-8.5285 -0.89912,0 -2.63839,3.83782 -3.86503,8.5285 -1.22664,4.69067 -0.49099,8.5285 1.63478,8.5285 2.12577,0 3.86504,-3.83783 3.86504,-8.5285 z m 262.25434,-7.46244 c -0.85108,-6.44968 -1.67962,-13.77972 -1.84122,-16.28897 -0.16161,-2.50926 -6.33487,-11.14437 -13.71838,-19.18913 -7.38352,-8.04477 -12.24103,-11.26876 -10.79446,-7.16441 5.52527,15.67688 -6.17609,6.56805 -15.06437,-11.72669 -5.12753,-10.55403 -10.85934,-19.18914 -12.73733,-19.18914 -8.67171,0 1.33519,24.71271 19.85154,49.02474 30.04992,39.45558 36.92179,44.37021 34.30422,24.5336 z m -17.0599,-18.12307 c -6.74093,-7.03601 -10.10898,-12.79275 -7.48455,-12.79275 2.62442,0 8.87084,5.75674 13.88092,12.79275 5.01009,7.03602 8.37814,12.79275 7.48455,12.79275 -0.89358,0 -7.14,-5.75673 -13.88092,-12.79275 z m -255.41088,1.15489 c -1.41697,-1.41697 -2.42483,1.10162 -2.23967,5.59683 0.2046,4.96764 1.21506,5.97805 2.57632,2.57633 1.23182,-3.07828 1.08032,-6.75619 -0.33666,-8.17316 z m -26.61976,0.97724 c 1.34999,-3.51801 1.41822,-6.39638 0.15164,-6.39638 -1.26659,0 -5.18126,2.87837 -8.69926,6.39638 -5.54761,5.54762 -5.56773,6.39637 -0.15164,6.39637 3.4346,0 7.34927,-2.87837 8.69925,-6.39637 z m 39.78455,-39.44433 0.43814,-28.78369 -3.66924,23.45338 c -3.25619,20.81317 -2.70877,34.11401 1.40402,34.11401 0.76391,0 1.5861,-12.95266 1.82708,-28.7837 z m -37.06236,7.71412 c 0,-2.20692 -1.91892,-5.19855 -4.26426,-6.64805 -2.34533,-1.44951 -4.26425,0.35606 -4.26425,4.01257 0,3.65643 1.91892,6.64805 4.26425,6.64805 2.34534,0 4.26426,-1.80565 4.26426,-4.01257 z m 266.33359,-13.33909 c -1.34934,-2.18326 -4.73874,-3.81808 -7.532,-3.63293 -3.63502,0.24093 -3.55593,0.95054 0.27824,2.49634 2.94628,1.1878 4.08898,4.21116 2.53933,6.71858 -1.67936,2.71722 -0.80068,3.31238 2.17511,1.47325 2.74597,-1.69708 3.88867,-4.87194 2.53933,-7.05524 z m 17.35194,1.11821 c -1.3129,-1.31292 -4.75376,-0.003 -7.64634,2.91155 -4.18011,4.21146 -3.6903,4.70125 2.3871,2.38713 4.2055,-1.60136 6.57216,-3.98576 5.25924,-5.29868 z m -58.82437,-44.53213 c -8.09575,-14.65836 -18.79309,-33.84749 -23.77186,-42.64251 -4.97876,-8.79502 -7.16617,-15.99094 -4.8609,-15.99094 2.30527,0 4.1914,-2.87837 4.1914,-6.39638 0,-3.51801 -2.03216,-6.39638 -4.51591,-6.39638 -2.48376,0 -3.32997,1.91892 -1.88047,4.26426 1.4495,2.34533 0.8086,4.26425 -1.42423,4.26425 -6.382,0 -9.85027,-13.31138 -4.99313,-19.16385 3.10533,-3.74171 2.47422,-6.88041 -2.15617,-10.72327 -5.57269,-4.62492 -6.12151,-4.23333 -3.68923,2.63241 1.9801,5.58933 1.47087,6.75637 -1.65863,3.80132 -4.32624,-4.08511 -39.24615,-83.47804 -45.48264,-103.40809 -2.98624,-9.54318 -10.95611,-13.44203 -10.95611,-5.35974 0,9.70152 31.59623,83.62133 37.91224,88.69622 3.77432,3.0326 6.52659,6.87043 6.11615,8.5285 -1.61855,6.5385 4.16096,26.46799 7.67565,26.46799 2.05218,0 3.73122,2.57207 3.73122,5.71576 0,5.72689 39.99789,74.76738 46.1914,79.73114 3.23279,2.59087 4.97962,6.27378 4.97962,10.49876 0,1.17267 2.09501,2.13212 4.65558,2.13212 2.56057,0 -1.96823,-11.9932 -10.06398,-26.65157 z m 17.30605,3.93186 c -5.37104,-8.41367 -11.4254,-15.37877 -13.45415,-15.47804 -2.02873,-0.0994 -0.88815,4.13705 2.53464,9.41406 3.42278,5.27701 8.76228,14.38673 11.86555,20.24385 3.10326,5.85707 6.35717,8.50466 7.2309,5.88347 0.87373,-2.62119 -2.8059,-11.64968 -8.17694,-20.06334 z m 28.61273,18.45546 c -1.4495,-2.34534 -3.48165,-4.26425 -4.51591,-4.26425 -1.03426,0 -1.88046,1.91891 -1.88046,4.26425 0,2.34534 2.03216,4.26425 4.51591,4.26425 2.48375,0 3.32996,-1.91891 1.88046,-4.26425 z M 491.503,647.63266 c -0.79844,-21.44001 0.38084,-31.79711 3.62043,-31.79711 2.64256,0 3.70065,1.78634 2.35131,3.96959 -1.34938,2.1833 -0.95144,4.89783 0.88428,6.03238 1.83567,1.13451 5.53525,-2.59394 8.22122,-8.28548 4.2327,-8.969 3.65502,-11.00279 -4.33414,-15.25903 -8.32335,-4.43426 -8.64991,-4.22237 -3.36531,2.18377 5.06576,6.14082 4.85464,7.09452 -1.57039,7.09452 -6.70767,0 -7.14608,-3.59519 -4.55017,-37.3122 5.85793,-76.0858 35.0324,-207.57275 57.47903,-259.05326 2.04527,-4.69068 6.97205,-17.67836 10.94847,-28.86151 3.97641,-11.18316 9.61631,-22.71948 12.5331,-25.63628 2.91679,-2.91679 5.30328,-8.49928 5.30328,-12.40553 0,-3.90625 6.34205,-21.64797 14.09344,-39.42606 10.67798,-24.49031 15.37987,-31.25612 19.40183,-27.9182 3.83275,3.18088 6.10223,2.33699 8.16391,-3.03571 1.57052,-4.09272 1.53764,-6.12346 -0.0729,-4.51277 -1.6107,1.6107 -7.74013,-0.85626 -13.62096,-5.48212 -8.15879,-6.41773 -12.06523,-7.27133 -16.48598,-3.60244 -3.18646,2.64452 -5.76416,6.9719 -5.72825,9.6164 0.0384,2.7962 1.61598,2.36023 3.77109,-1.04189 7.36816,-11.63159 13.05296,-3.13965 6.7709,10.11432 -8.8751,18.72452 -40.45716,97.23808 -40.45716,100.57689 0,1.57065 -3.21764,10.286 -7.1503,19.36744 -3.93271,9.08144 -7.60985,18.43062 -8.1715,20.77596 -0.5616,2.34534 -7.01354,22.18624 -14.33761,44.09089 -24.18491,72.33174 -41.31027,175.28539 -40.19018,241.61394 1.17374,69.50721 1.59193,76.07544 4.64919,73.01823 1.66514,-1.66519 2.49471,-17.33632 1.84339,-34.82474 z m -70.66231,21.20143 c -3.68554,-3.6855 -6.70097,-9.44224 -6.70097,-12.79275 0,-3.35046 -1.91891,-6.09178 -4.26425,-6.09178 -2.34534,0 -4.26425,-3.83783 -4.26425,-8.5285 0,-4.69068 -1.87992,-8.52851 -4.17759,-8.52851 -2.29767,0 -8.18828,-7.86161 -13.09023,-17.47025 -4.90196,-9.60859 -9.99323,-16.38965 -11.31393,-15.06893 -1.32071,1.32069 5.52935,15.04987 15.22235,30.50927 9.69301,15.45936 17.62365,29.53229 17.62365,31.27308 0,4.35764 9.4134,13.39935 13.95019,13.39935 2.04379,0 0.70055,-3.01543 -2.98497,-6.70098 z m 87.9121,3.78802 c -3.07823,-1.23181 -6.75615,-1.08034 -8.17316,0.33645 -1.41697,1.41697 1.10163,2.42483 5.59683,2.23967 4.96764,-0.20468 5.97805,-1.21505 2.57633,-2.57629 z m 31.21833,-34.39924 c -0.0213,-15.83103 -1.34857,-30.79425 -2.95283,-33.25157 -1.60425,-2.45731 -1.1539,-7.2546 1.00078,-10.66062 6.11971,-9.6738 5.11676,-47.77007 -1.20218,-45.66374 -8.02075,2.6736 -10.56694,118.35962 -2.60503,118.35962 4.31538,0 5.78608,-7.35029 5.75926,-28.78369 z m -174.55618,4.16272 c -7.36757,-7.03695 -7.48195,-6.92259 -2.59887,2.59889 2.80933,5.47786 6.27736,8.79028 7.70674,7.36091 1.42938,-1.42938 -0.86916,-5.91128 -5.10787,-9.9598 z m -215.11487,0.34924 c 4.99558,-6.15856 4.96592,-6.6805 -0.20251,-3.5647 -4.5399,2.73684 -5.37409,1.87584 -3.33384,-3.44095 1.49663,-3.90013 1.06997,-11.41084 -0.94811,-16.6905 -2.89403,-7.57122 -3.69122,-5.3199 -3.77324,10.6559 -0.0572,11.14036 0.46059,20.25519 1.15064,20.25519 0.69005,0 3.88824,-3.24671 7.10708,-7.21494 z m 282.84667,-1.0189 c 1.34935,-2.1833 0.70421,-5.05062 -1.43363,-6.3719 -2.13784,-1.32124 -4.98728,0.46506 -6.3321,3.96959 -2.65109,6.90864 3.75578,8.89054 7.76573,2.40231 z M 192.15291,582.07688 c 0.13518,-12.70389 -1.02495,-21.8273 -2.57803,-20.27426 -1.55308,1.55309 -2.568,9.62753 -2.25538,17.94321 0.31261,8.31571 -0.96781,14.17002 -2.84539,13.00959 -1.87758,-1.16039 -2.94148,2.11873 -2.36422,7.28696 0.57725,5.16823 1.43014,16.11299 1.8953,24.32167 l 0.84574,14.92488 3.52811,-17.057 c 1.94047,-9.38136 3.63871,-27.45112 3.77387,-40.15505 z m 227.90095,41.5069 c -1.23155,-1.99269 -4.02551,-2.51911 -6.20879,-1.16973 -5.57927,3.44816 -4.95105,4.79285 2.23919,4.79285 3.41485,0 5.20116,-1.63039 3.9696,-3.62312 z M 122.76577,600.55311 c 2.08671,-5.43786 3.29429,-5.64557 6.19725,-1.06606 2.68974,4.24319 3.74085,3.52167 4.1383,-2.84063 0.29304,-4.69068 1.056,-14.73862 1.69549,-22.32877 0.63949,-7.59016 -0.53033,-12.75391 -2.5996,-11.47502 -2.06927,1.27889 -4.02364,8.44847 -4.34303,15.9324 -0.42811,10.03131 -1.06636,11.08577 -2.42871,4.01257 -3.29869,-17.12638 -14.04758,-11.41629 -14.04758,7.46244 0,17.08609 6.52102,22.98594 11.38788,10.30307 z m 279.36297,-11.227 c -3.05986,-3.05986 -5.04603,-3.31162 -5.04603,-0.63964 0,5.69184 5.04295,10.73478 7.88887,7.88886 1.21176,-1.21173 -0.0675,-4.47388 -2.84284,-7.24922 z m -28.05521,-6.44968 c -4.33468,-4.33466 -7.91125,2.19135 -4.35473,7.94592 2.68662,4.34706 3.69103,4.35043 5.13544,0.017 0.98758,-2.96276 0.63626,-6.54618 -0.78071,-7.96314 z m -19.63333,3.10936 c 0,-2.34534 -2.03216,-4.26425 -4.51591,-4.26425 -2.48375,0 -3.32996,1.91891 -1.88046,4.26425 1.4495,2.34534 3.48165,4.26425 4.51591,4.26425 1.03426,0 1.88046,-1.91891 1.88046,-4.26425 z m 39.16004,-13.71669 c -3.05986,-3.05985 -5.04603,-3.31162 -5.04603,-0.63964 0,5.69184 5.04295,10.73479 7.88887,7.88887 1.21176,-1.21173 -0.0675,-4.47388 -2.84284,-7.24923 z m -32.16836,-8.96968 c -7.42556,-17.77186 -19.38711,-40.01804 -19.6137,-36.47769 -0.29048,4.53858 20.90845,50.63556 23.2861,50.63556 1.23372,0 -0.41887,-6.37105 -3.6724,-14.15787 z m 150.78562,7.76149 c 0,-3.51801 -3.11333,-6.39638 -6.9185,-6.39638 -5.66633,0 -5.95771,1.15771 -1.61001,6.39638 2.91969,3.51801 6.03302,6.39638 6.91849,6.39638 0.88552,0 1.61002,-2.87837 1.61002,-6.39638 z M 122.41546,552.95942 c -4.65826,-4.65827 -7.85251,2.74985 -4.50807,10.45513 3.17122,7.30624 3.40111,7.29959 5.168,-0.14967 1.01703,-4.28792 0.72006,-8.92529 -0.65993,-10.30529 z m 203.95126,5.91908 c -1.4788,-3.85369 -4.46985,-7.00672 -6.64679,-7.00672 -2.17831,0 -1.81781,3.99906 0.80172,8.89374 5.42984,10.14572 9.90773,8.70009 5.84507,-1.88702 z m 16.90778,3.43242 c 1.45623,-3.79484 0.74134,-5.50651 -1.67589,-4.01257 -2.31848,1.43287 -4.21541,4.41094 -4.21541,6.61786 0,6.13383 3.05647,4.78219 5.8913,-2.60529 z m -192.28279,-6.17489 c -1.22664,-4.69067 -2.96591,-8.5285 -3.86503,-8.5285 -0.89913,0 -1.63478,3.83783 -1.63478,8.5285 0,4.69068 1.73926,8.5285 3.86503,8.5285 2.12577,0 2.86142,-3.83782 1.63478,-8.5285 z m 44.17978,-18.75733 c 0.89515,-8.12306 -0.322,-15.9741 -2.70477,-17.44672 -2.70014,-1.66881 -4.33231,4.91443 -4.33231,17.47397 0,22.62245 4.54304,22.60488 7.03708,-0.0256 z m 189.11847,10.22883 c 0,-2.34534 -1.91891,-4.26425 -4.26425,-4.26425 -2.34534,0 -4.26425,1.91891 -4.26425,4.26425 0,2.34534 1.91891,4.26425 4.26425,4.26425 2.34534,0 4.26425,-1.91891 4.26425,-4.26425 z m -66.09589,-4.26425 c -1.4495,-2.34534 -3.48166,-4.26425 -4.51592,-4.26425 -1.03425,0 -1.88046,1.91891 -1.88046,4.26425 0,2.34534 2.03216,4.26425 4.51592,4.26425 2.48375,0 3.32996,-1.91891 1.88046,-4.26425 z m 193.19987,-6.50921 c -1.31292,-1.31292 -3.69732,1.05374 -5.29867,5.25923 -2.31413,6.07741 -1.82433,6.5672 2.38712,2.38713 2.91428,-2.89262 4.22447,-6.33344 2.91155,-7.64636 z m -353.10929,1.99328 c 0,-2.48376 -2.24501,-3.12842 -4.98891,-1.43257 -3.482,2.15199 -4.04971,0.61797 -1.87949,-5.07869 2.37215,-6.22665 1.92431,-6.98616 -1.88876,-3.20317 -2.749,2.72728 -3.7089,7.04484 -2.1331,9.59456 3.66908,5.93669 10.89026,6.01618 10.89026,0.11987 z m -33.69138,-2.94651 c 0.23245,-1.75901 0.85816,-14.218 1.39045,-27.68668 1.24988,-31.62556 6.69529,-37.35795 6.78072,-7.13805 0.0401,14.23475 1.44771,20.91726 3.66792,17.4149 1.98144,-3.12574 3.02135,-23.75406 2.31092,-45.8407 -0.84841,-26.37606 0.26715,-40.15756 3.25059,-40.15756 3.11068,0 3.04541,-1.80366 -0.20707,-5.72267 -2.61217,-3.14745 -3.48676,-6.98527 -1.94355,-8.52851 1.54319,-1.54319 0.56708,-2.80583 -2.16915,-2.80583 -3.26447,0 -5.2311,10.62946 -5.71995,30.91582 -0.49105,20.37758 -1.3014,24.73825 -2.37731,12.79276 -1.66681,-18.50604 -9.78231,-25.93224 -9.32011,-8.52851 0.14016,5.27701 -1.04621,27.34451 -2.63632,49.03889 -2.03303,27.73695 -1.49,39.44433 1.82955,39.44433 2.59637,0 4.91087,-1.43919 5.14331,-3.19819 z m 12.37012,-5.58199 c 0,-2.48376 -1.91891,-3.32996 -4.26425,-1.88045 -2.34534,1.4495 -4.26425,3.48167 -4.26425,4.51593 0,1.03425 1.91891,1.88045 4.26425,1.88045 2.34534,0 4.26425,-2.03218 4.26425,-4.51593 z m 230.98788,-13.52847 c -3.16437,-3.16437 -3.71933,-1.49948 -1.86449,5.59346 1.50788,5.76612 3.44083,7.69911 4.5054,4.5054 1.02547,-3.0764 -0.16294,-7.6209 -2.64091,-10.09886 z m 142.29606,9.77797 c -1.36039,-2.2012 0.69336,-5.77443 4.56394,-7.9405 3.87062,-2.16607 6.28747,-6.18828 5.37082,-8.93817 -1.21642,-3.64926 -3.85624,-3.39874 -9.77272,0.92747 -7.25725,5.30665 -7.40858,19.95337 -0.20597,19.95337 1.38469,0 1.40456,-1.80096 0.0444,-4.00217 z M 341.64745,515.62564 c 0,-3.518 -1.85869,-6.39637 -4.13042,-6.39637 -2.27173,0 -3.02589,2.87837 -1.6759,6.39637 1.34999,3.51801 3.20868,6.39638 4.13042,6.39638 0.92174,0 1.6759,-2.87837 1.6759,-6.39638 z M 196.66291,500.44909 c 0,-4.55226 -1.91891,-8.27683 -4.26425,-8.27683 -2.34534,0 -4.26425,4.91054 -4.26425,10.91231 0,6.18896 1.84574,9.77153 4.26425,8.27682 2.34534,-1.4495 4.26425,-6.36004 4.26425,-10.9123 z m 106.54098,9.84624 c -0.0359,-1.759 -1.92544,-6.07656 -4.19895,-9.59456 -3.34264,-5.17237 -4.14616,-4.56037 -4.19896,3.19818 -0.0359,5.27701 1.85362,9.59457 4.19896,9.59457 2.34534,0 4.23486,-1.43919 4.19895,-3.19819 z m 31.74857,-9.11138 c 1.28526,-2.07959 -1.00013,-6.39715 -5.07865,-9.59457 -6.5506,-5.13544 -6.79812,-5.02171 -2.12217,0.97524 2.91132,3.73377 4.03069,8.05133 2.48747,9.59456 -1.54321,1.54319 -1.6398,2.80584 -0.21466,2.80584 1.42514,0 3.64275,-1.70148 4.92801,-3.78107 z m -182.61999,-16.3853 c -1.41698,-1.41697 -2.42483,1.10162 -2.23967,5.59683 0.2046,4.96764 1.21506,5.97805 2.57632,2.57633 1.23182,-3.07824 1.08032,-6.75615 -0.33667,-8.17316 z m 44.33044,-1.15489 c 0,-2.34534 -1.91891,-4.26425 -4.26425,-4.26425 -2.34534,0 -4.26425,1.91891 -4.26425,4.26425 0,2.34534 1.91891,4.26425 4.26425,4.26425 2.34534,0 4.26425,-1.91891 4.26425,-4.26425 z m 124.23384,-20.25519 c -8.1042,-23.78664 -8.4509,-24.45689 -11.21875,-21.68905 -2.9925,2.99248 10.73752,41.94424 14.78484,41.94424 1.83421,0 0.2295,-9.11484 -3.56609,-20.25519 z m 31.41133,11.72669 c -1.4495,-2.34534 -3.48166,-4.26425 -4.51592,-4.26425 -1.03425,0 -1.88046,1.91891 -1.88046,4.26425 0,2.34534 2.03216,4.26425 4.51591,4.26425 2.48376,0 3.32997,-1.91891 1.88047,-4.26425 z m -63.96377,-8.5285 c -1.4495,-2.34534 -3.48166,-4.26426 -4.51591,-4.26426 -1.03426,0 -1.88047,1.91892 -1.88047,4.26426 0,2.34533 2.03217,4.26425 4.51592,4.26425 2.48375,0 3.32996,-1.91892 1.88046,-4.26425 z m -93.36933,-11.63787 c -1.41698,-1.41697 -2.42483,1.10163 -2.23967,5.59683 0.2046,4.96764 1.21506,5.97805 2.57632,2.57633 1.23182,-3.07823 1.08032,-6.75615 -0.33666,-8.17316 z m 75.34207,-1.43671 c -1.50295,-5.74728 -3.75528,-7.35895 -6.47846,-4.6358 -4.41393,4.41393 -0.94173,13.44612 5.16903,13.44612 1.98736,0 2.5766,-3.96464 1.30943,-8.81032 z m 67.44591,-12.52411 c -8.18135,-23.23177 -13.94583,-32.38541 -10.32756,-16.39954 2.63222,11.62942 13.85778,37.73397 16.22646,37.73397 0.88786,0 -1.76665,-9.60049 -5.8989,-21.33443 z m -142.242,-47.95965 c -0.89777,-9.96769 -1.63231,-1.81231 -1.63231,18.12307 0,19.93537 0.73454,28.09075 1.63231,18.12307 0.89778,-9.96769 0.89778,-26.27845 0,-36.24614 z m 66.02964,38.66256 c -6.50028,-6.5003 -10.45976,-2.54081 -6.85446,6.85444 1.98333,5.16849 4.1246,5.96748 7.34961,2.74247 3.225,-3.22501 3.08075,-6.02104 -0.49515,-9.59691 z m -7.86661,-19.96659 c -2.04487,-1.48775 -3.90983,-5.10367 -4.14437,-8.03534 -0.23453,-2.93167 -0.71426,-8.20868 -1.06606,-11.72669 -0.3518,-3.51801 -3.7387,-6.39638 -7.52644,-6.39638 -6.31336,0 -6.30518,0.88768 0.0983,10.66063 3.84181,5.86334 5.9139,10.66063 4.60465,10.66063 -1.30926,0 -0.0725,4.31243 2.74831,9.58322 3.57205,6.67441 5.71683,7.81906 7.06616,3.77105 1.06556,-3.19666 0.2643,-7.02936 -1.78056,-8.51712 z m 44.3879,-12.29959 c -4.75292,-13.4857 -10.60762,-26.43836 -13.01042,-28.7837 -2.96697,-2.896 -3.35779,-1.52776 -1.218,4.26425 1.73291,4.69068 6.14466,17.64334 9.80388,28.7837 3.65922,11.14036 8.09608,20.25519 9.85967,20.25519 1.7636,0 -0.6822,-11.03375 -5.43513,-24.51944 z m -158.28436,-6.39638 c -1.18296,-2.93167 -2.15083,-0.53303 -2.15083,5.33032 0,5.86334 0.96787,8.26198 2.15083,5.33031 1.18295,-2.93167 1.18295,-7.72896 0,-10.66063 z m 33.53848,-50.20474 c 0.34518,-32.77985 -0.81909,-59.59973 -2.58727,-59.59973 -1.76818,0 -3.85452,1.88666 -4.6363,4.19257 -2.59419,7.65175 1.13414,120.46872 3.89013,117.71274 1.48821,-1.48823 2.98825,-29.52573 3.33344,-62.30558 z m 143.13583,37.17225 c -5.56886,-5.56886 -6.34347,0.60279 -1.59194,12.68373 2.96314,7.5339 3.12871,7.53023 4.66415,-0.10418 0.87557,-4.35346 -0.50692,-10.01425 -3.07221,-12.57954 z m 227.08916,8.09324 c 5.79631,-8.84629 5.88812,-10.96736 0.66219,-15.30448 -4.96503,-4.12061 -5.7552,-3.41726 -4.35115,3.87319 0.94355,4.89945 -0.0932,8.9081 -2.30389,8.9081 -2.21067,0 -4.0194,2.87837 -4.0194,6.39638 0,8.88653 2.21259,8.03061 10.01225,-3.87319 z M 252.32302,375.49675 c -5.9722,-15.70809 -9.31946,-14.14862 -3.77424,1.75841 2.4945,7.15573 5.32674,12.21914 6.29386,11.25202 0.96712,-0.96711 -0.16669,-6.82181 -2.51962,-13.01043 z m -11.50395,-11.25203 c 1.69073,-9.21387 1.29989,-12.68946 -1.0214,-9.08295 -3.04133,4.72521 -4.64568,4.31764 -8.39287,-2.13212 -4.06395,-6.99495 -4.64871,-7.08867 -4.76246,-0.76328 -0.0713,3.96593 1.92006,8.47758 4.42529,10.0259 2.50523,1.54831 3.5969,5.31179 2.42594,8.36327 -1.17097,3.05148 -0.98197,6.6952 0.41998,8.09717 3.41734,3.41732 3.74106,2.7372 6.90552,-14.50799 z m -43.09303,-2.2339 c 1.13156,-5.91932 0.3958,-11.78931 -1.635,-13.04441 -2.03081,-1.25511 -3.69238,3.58797 -3.69238,10.7624 0,15.83073 2.5302,16.91456 5.32738,2.28201 z m -56.4984,-2.28201 c 0,-4.82909 -1.8351,-7.64601 -4.07801,-6.25981 -2.24291,1.38619 -2.99706,5.33727 -1.6759,8.78016 3.38252,8.81469 5.75391,7.77596 5.75391,-2.52035 z m 170.57005,4.51591 c 0,-2.34533 -2.03216,-4.26425 -4.51591,-4.26425 -2.48375,0 -3.32997,1.91892 -1.88047,4.26425 1.4495,2.34534 3.48166,4.26426 4.51592,4.26426 1.03425,0 1.88046,-1.91892 1.88046,-4.26426 z m -43.82002,-36.16653 c -9.60306,-19.89159 -18.06797,-35.55867 -18.81091,-34.81574 -2.28814,2.28814 29.76201,70.98227 33.1177,70.98227 1.73433,0 -4.70373,-16.27494 -14.30679,-36.16653 z m 33.15939,14.84528 c -3.63846,-7.03602 -7.57484,-12.79276 -8.74751,-12.79276 -1.17267,0 0.8448,5.75674 4.48326,12.79276 3.63847,7.03601 7.57485,12.79275 8.74752,12.79275 1.17267,0 -0.8448,-5.75674 -4.48327,-12.79275 z m 257.9872,0.71071 c 0,-1.95445 -2.79398,-3.55355 -6.20879,-3.55355 -3.41486,0 -5.22051,1.5991 -4.01258,3.55355 1.20789,1.95445 4.00187,3.55354 6.20879,3.55354 2.20692,0 4.01258,-1.59909 4.01258,-3.55354 z M 139.78753,329.06465 c -1.18296,-2.93167 -2.15083,-0.53303 -2.15083,5.33032 0,5.86334 0.96787,8.26198 2.15083,5.33031 1.18295,-2.93167 1.18295,-7.72896 0,-10.66063 z m 95.25364,3.19819 c -2.91969,-3.51801 -5.97279,-6.39638 -6.78468,-6.39638 -0.81189,0 -0.37163,2.87837 0.97837,6.39638 1.34998,3.51801 4.40309,6.39638 6.78467,6.39638 2.49589,0 2.08145,-2.70954 -0.97836,-6.39638 z m 291.59615,-0.22148 c 1.4562,-3.79487 0.74134,-5.50653 -1.6759,-4.01259 -2.31847,1.4329 -4.21542,4.41093 -4.21542,6.61786 0,6.13383 3.05648,4.7822 5.89132,-2.60527 z m 41.5422,-12.71015 c 3.80777,-8.1323 5.61368,-14.786 4.01322,-14.786 -4.20349,0 -20.11396,12.49523 -16.11665,12.65714 1.84151,0.0746 1.29428,3.97344 -1.21608,8.66411 -3.46684,6.47783 -3.24655,8.49512 0.91604,8.38964 3.01419,-0.0764 8.59575,-6.79257 12.40347,-14.92488 z M 140.92793,305.61127 c -0.26165,-10.2374 -0.73544,-10.64357 -3.73065,-3.19819 -1.88703,4.69068 -2.59836,9.96769 -1.58075,11.72669 3.6121,6.24377 5.60708,3.04043 5.3114,-8.5285 z m 141.54915,-2.2032 c -4.21145,-4.1801 -4.70126,-3.69029 -2.38711,2.38711 1.60136,4.20549 3.98576,6.57215 5.29867,5.25924 1.31291,-1.31291 0.003,-4.75376 -2.91156,-7.64635 z m -38.37827,-25.58551 c -4.21144,-4.1801 -4.70125,-3.69029 -2.3871,2.38711 1.60136,4.2055 3.98576,6.57215 5.29867,5.25924 1.3129,-1.3129 0.003,-4.75376 -2.91157,-7.64635 z M 139.78753,265.10088 c -1.18296,-2.93167 -2.15083,-0.53303 -2.15083,5.33032 0,5.86334 0.96787,8.26198 2.15083,5.33031 1.18295,-2.93167 1.18295,-7.72895 0,-10.66063 z m 457.71499,-24.7711 c 0,-4.55227 1.91891,-8.27684 4.26425,-8.27684 2.34534,0 4.26425,-2.81815 4.26425,-6.26255 0,-3.80407 -2.50141,-5.30267 -6.3719,-3.81742 -3.50453,1.34482 -5.31019,4.16296 -4.01257,6.26254 1.29761,2.09959 0.21389,3.81743 -2.40828,3.81743 -2.62218,0 -3.66359,1.78632 -2.31425,3.9696 1.34937,2.18328 0.47183,5.19424 -1.95,6.69102 -2.42184,1.49679 -3.28002,4.53906 -1.90702,6.76059 3.76495,6.09182 10.43552,0.24656 10.43552,-9.14437 z M 249.53526,207.9944 c -7.84056,-17.6055 -8.86727,-20.47623 -9.69681,-27.11248 -0.29316,-2.34534 -2.45194,-4.26425 -4.79728,-4.26425 -6.76958,0 -4.96558,12.59511 3.57035,24.92723 4.30903,6.2254 9.15148,14.95165 10.761,19.39168 1.60953,4.44003 3.9531,7.04607 5.20796,5.79122 1.25485,-1.25486 -1.0155,-9.68489 -5.04522,-18.7334 z m 360.76001,0.14893 c 0,-0.92175 -2.87837,-1.6759 -6.39638,-1.6759 -3.518,0 -6.39637,1.85869 -6.39637,4.13042 0,2.27173 2.87837,3.02588 6.39637,1.67589 3.51801,-1.34998 6.39638,-3.20867 6.39638,-4.13041 z M 94.320882,829.04811 c 0,-11.72669 1.918913,-21.32125 4.264251,-21.32125 2.345337,0 4.264247,9.59456 4.264247,21.32125 0,11.72669 -1.91891,21.32126 -4.264247,21.32126 -2.345338,0 -4.264251,-9.59457 -4.264251,-21.32126 z m 34.450658,6.75172 c -0.18515,-4.4952 0.82269,-7.0138 2.23967,-5.59683 1.41697,1.41697 1.56847,5.09488 0.33666,8.17316 -1.36126,3.40172 -2.3717,2.39131 -2.57632,-2.57633 z m 42.64251,0 c -0.18515,-4.4952 0.8227,-7.0138 2.23967,-5.59683 1.41698,1.41697 1.56847,5.09488 0.33667,8.17316 -1.36126,3.40172 -2.37171,2.39131 -2.57632,-2.57633 z m 8.19186,-11.01597 c 0,-7.03601 1.91891,-12.79275 4.26425,-12.79275 2.34533,0 4.26425,5.75674 4.26425,12.79275 0,7.03602 -1.91892,12.79275 -4.26425,12.79275 -2.34534,0 -4.26425,-5.75673 -4.26425,-12.79275 z m -33.77736,-1.77678 c -0.18516,-4.49521 0.82269,-7.0138 2.23967,-5.59683 1.41697,1.41696 1.56846,5.09488 0.33666,8.17316 -1.36126,3.40172 -2.37171,2.39131 -2.57632,-2.57633 z m -34.11401,-4.26426 c -0.18516,-4.4952 0.82269,-7.01379 2.23967,-5.59683 1.41697,1.41697 1.56847,5.09489 0.33666,8.17317 -1.36126,3.40172 -2.3717,2.3913 -2.57632,-2.57634 z m 86.58983,-8.62483 c -1.29533,-3.37558 -0.39914,-9.61205 1.99157,-13.85881 3.61728,-6.42572 4.28385,-5.39577 3.97216,6.13736 -0.40519,14.99183 -2.25484,17.38668 -5.96373,7.72145 z m 2.62279,-40.51772 c 0,-2.48375 1.91891,-4.51593 4.26425,-4.51593 2.34534,0 4.26425,0.8462 4.26425,1.88045 0,1.03425 -1.91891,3.06643 -4.26425,4.51593 -2.34534,1.4495 -4.26425,0.60331 -4.26425,-1.88045 z m 0.55082,-31.27683 c 0.57356,-11.08023 2.40343,-20.14586 4.06638,-20.14586 3.94949,0 2.2557,32.9268 -1.90797,37.09046 -1.76068,1.76066 -2.73197,-5.86441 -2.15841,-16.9446 z m -85.83584,-45.73137 c 0,-4.69067 1.73926,-8.5285 3.86503,-8.5285 2.12577,0 2.86142,3.83783 1.63478,8.5285 -1.22664,4.69068 -2.9659,8.5285 -3.86503,8.5285 -0.89913,0 -1.63478,-3.83782 -1.63478,-8.5285 z m 89.61457,-13.85881 c -0.0358,-8.79502 0.67046,-15.99095 1.56971,-15.99095 3.6954,0 5.34235,21.1848 2.05051,26.37589 -2.26602,3.57344 -3.5786,-0.19189 -3.62022,-10.38494 z m -86.4965,-7.80427 c 1.50788,-5.76612 3.44084,-7.6991 4.5054,-4.50539 1.02547,3.0764 -0.16294,7.6209 -2.64091,10.09885 -3.16436,3.16438 -3.71932,1.49949 -1.86449,-5.59346 z m 88.56333,-20.97943 c -1.4495,-2.34534 -0.60329,-4.26425 1.88046,-4.26425 2.48375,0 4.51591,1.91891 4.51591,4.26425 0,2.34534 -0.8462,4.26425 -1.88046,4.26425 -1.03425,0 -3.06641,-1.91891 -4.51591,-4.26425 z m 2.13212,-61.32833 c 0,-3.51801 1.91892,-7.58231 4.26425,-9.03182 2.34534,-1.4495 4.26426,0.24307 4.26426,3.76095 0,3.518 -1.91892,7.5823 -4.26426,9.03181 -2.34533,1.4495 -4.26425,-0.24306 -4.26425,-3.76094 z m 203.1326,-21.84905 c -1.34482,-3.50453 -0.69969,-6.3719 1.43363,-6.3719 5.78042,0 9.3699,7.578 4.89847,10.34149 -2.13784,1.32124 -4.98729,-0.46505 -6.3321,-3.96959 z m -198.19504,-6.3719 c 0,-5.86334 0.96787,-8.26198 2.15083,-5.33031 1.18295,2.93167 1.18295,7.72895 0,10.66063 -1.18296,2.93167 -2.15083,0.53303 -2.15083,-5.33032 z m -0.67331,-21.32125 c 0,-4.69068 1.73927,-8.52851 3.86504,-8.52851 2.12577,0 2.86142,3.83783 1.63478,8.52851 -1.22664,4.69067 -2.96591,8.5285 -3.86503,8.5285 -0.89913,0 -1.63479,-3.83783 -1.63479,-8.5285 z m 186.82887,-1.06607 C 382.33551,505.4259 365.89926,462.3225 371.68637,462.3225 c 2.2413,0 4.31495,1.91892 4.60812,4.26426 1.05057,8.40462 2.0762,11.02479 15.02241,38.37826 14.701,31.06106 19.16672,42.64251 16.44264,42.64251 -1.01654,0 -4.26139,-4.31756 -7.21076,-9.59457 z m 44.114,-15.99094 c 0,-5.86334 0.96787,-8.26199 2.15083,-5.33031 1.18295,2.93167 1.18295,7.72895 0,10.66063 -1.18296,2.93167 -2.15083,0.53303 -2.15083,-5.33032 z M 214.78133,507.14533 c -0.15974,-10.56575 1.60363,-20.38108 3.91856,-21.81177 2.65332,-1.63987 3.39188,4.82917 1.99824,17.50266 -2.90047,26.37644 -5.55398,28.30895 -5.9168,4.30911 z m 229.27345,-3.24638 c 0.0358,-2.93167 1.92544,-8.20868 4.19895,-11.72669 3.22115,-4.98435 4.14807,-3.80772 4.19895,5.33032 0.0359,6.44968 -1.85361,11.72669 -4.19895,11.72669 -2.34534,0 -4.23487,-2.39864 -4.19895,-5.33032 z m 95.26783,-19.72216 c 1.50955,-7.91551 2.74464,-17.03035 2.74464,-20.25519 0,-3.22484 1.71496,-5.86335 3.81096,-5.86335 2.20159,0 2.10288,7.60218 -0.23368,18.00137 -4.86764,21.66419 -10.21484,28.5298 -6.32196,8.11717 z M 215.98517,473.86528 c -1.82537,-4.20549 -2.12234,-8.84287 -0.65993,-10.30525 4.33031,-4.33034 7.82101,1.75235 5.82793,10.1554 -1.76689,7.44944 -1.99678,7.45609 -5.168,0.14968 z m 232.26856,1.75329 c 0,-2.34534 1.91891,-5.45018 4.26425,-6.89969 2.34534,-1.4495 4.26425,-0.71652 4.26425,1.62882 0,2.34534 -1.91891,5.45018 -4.26425,6.89968 -2.34534,1.44951 -4.26425,0.71653 -4.26425,-1.62881 z M 217.45113,453.794 c -1.90334,-15.22674 -1.11997,-29.84976 1.5991,-29.84976 1.759,0 3.19819,7.67565 3.19819,17.05701 0,15.08278 -3.38328,24.10483 -4.79729,12.79275 z m 146.93899,-1.94454 c 0,-3.41485 1.59909,-5.22051 3.55355,-4.01257 1.95444,1.20789 3.55354,4.00187 3.55354,6.20879 0,2.20692 -1.5991,4.01257 -3.55354,4.01257 -1.95446,0 -3.55355,-2.79398 -3.55355,-6.20879 z m 88.12786,1.94454 c 0,-2.34534 1.91891,-4.26425 4.26425,-4.26425 2.34534,0 4.26425,1.91891 4.26425,4.26425 0,2.34534 -1.91891,4.26425 -4.26425,4.26425 -2.34534,0 -4.26425,-1.91891 -4.26425,-4.26425 z m 97.0341,-23.45338 c 1.12086,-5.86335 2.77364,-10.66063 3.67293,-10.66063 0.89924,0 1.635,4.79728 1.635,10.66063 0,5.86334 -1.65283,10.66063 -3.67293,10.66063 -2.0201,0 -2.75586,-4.79729 -1.635,-10.66063 z m -194.61722,-4.98154 c -0.27206,-2.73987 -1.73654,-8.49661 -3.25439,-12.79276 -2.14126,-6.06065 -1.57381,-6.71815 2.53203,-2.93384 2.91047,2.68255 4.37494,8.43929 3.25439,12.79275 -1.12055,4.35346 -2.25997,5.67367 -2.53203,2.93385 z m 201.80845,-24.86822 c 1.64144,-7.03601 4.90338,-14.71167 7.24872,-17.057 2.8428,-2.84284 3.26944,0 1.27979,8.5285 -1.6414,7.03601 -4.90334,14.71167 -7.24868,17.057 -2.8428,2.84285 -3.26944,0 -1.27983,-8.5285 z M 340.06892,388.10944 c -3.88406,-9.15512 -6.21877,-17.48883 -5.18825,-18.51935 3.06313,-3.06313 15.96865,24.64288 14.03172,30.12378 -0.97985,2.7727 -4.95941,-2.44931 -8.84347,-11.60443 z m 149.1087,-10.0059 c 4.81046,-20.83031 23.88113,-75.56895 27.78155,-79.7415 2.08275,-2.22807 3.78683,-8.22958 3.78683,-13.33668 0,-5.1071 2.69496,-11.52225 5.98875,-14.25588 5.03933,-4.18227 5.411,-2.74395 2.34419,9.07243 -5.09365,19.62581 -19.3162,58.42922 -22.63093,61.74395 -1.51744,1.51746 -2.75902,7.12324 -2.75902,12.45728 0,5.33404 -1.91891,10.88421 -4.26425,12.33371 -2.34534,1.4495 -4.26425,7.31949 -4.26425,13.04442 0,5.72493 -1.95546,10.40896 -4.34548,10.40896 -2.55425,0 -3.22919,-4.83391 -1.63739,-11.72669 z m -17.19636,1.94822 c 1.60135,-4.2055 3.98575,-6.57216 5.29867,-5.25924 1.31292,1.3129 0.003,4.75376 -2.91154,7.64635 -4.21146,4.1801 -4.70126,3.69029 -2.38713,-2.38711 z m 91.40725,-7.02687 c 0,-2.20692 1.91891,-5.19854 4.26425,-6.64804 2.34534,-1.4495 4.26425,0.35615 4.26425,4.01259 0,3.65642 -1.91891,6.64804 -4.26425,6.64804 -2.34534,0 -4.26425,-1.80566 -4.26425,-4.01259 z M 324.33174,344.45205 c -4.66628,-10.88596 -7.52162,-20.75518 -6.34521,-21.93159 1.1764,-1.1764 3.42684,1.49383 5.00098,5.93386 1.57414,4.44002 5.35922,14.30924 8.41128,21.93159 8.59983,21.4775 2.48031,16.33925 -7.06705,-5.93386 z m 249.58115,10.83492 c -1.5637,-4.92677 -0.85442,-10.94642 1.5762,-13.37701 3.04949,-3.0495 4.30135,-0.27304 4.03888,8.95776 -0.44591,15.68362 -1.7213,16.68741 -5.61508,4.41925 z m -91.54515,-12.11184 c 0,-2.20692 1.89695,-5.18496 4.21542,-6.61785 2.41724,-1.49394 3.1321,0.21773 1.6759,4.01259 -2.83484,7.38746 -5.89132,8.7391 -5.89132,2.60526 z m 98.07777,-17.30867 c 0,-2.34533 1.91892,-4.26425 4.26425,-4.26425 2.34534,0 4.26426,1.91892 4.26426,4.26425 0,2.34534 -1.91892,4.26425 -4.26426,4.26425 -2.34533,0 -4.26425,-1.91891 -4.26425,-4.26425 z M 300.78607,292.81852 c -9.3497,-20.3568 -27.36664,-70.55362 -27.36664,-76.24598 0,-0.86713 1.91891,-1.57661 4.26425,-1.57661 2.34534,0 4.26425,3.43049 4.26425,7.62331 0,4.19282 6.89018,23.86168 15.31151,43.70858 17.52268,41.29643 20.81568,51.01014 17.29271,51.01014 -1.37747,0 -7.57221,-11.03375 -13.76608,-24.51944 z m 286.14494,17.057 c 1.72353,-4.10434 6.87201,-17.057 11.44103,-28.78369 4.56906,-11.7267 10.21762,-23.24017 12.55238,-25.58551 2.33476,-2.34534 0.004,6.28977 -5.17684,19.18913 -5.18201,12.89936 -10.34026,27.77093 -11.4627,33.04795 -1.12247,5.27701 -3.94136,9.59456 -6.26422,9.59456 -2.37319,0 -2.85057,-3.26912 -1.08965,-7.46244 z m -50.71444,-62.8977 c 2.73322,-13.01018 8.49742,-22.25286 11.79006,-18.90485 0.99954,1.01631 -1.84902,8.56404 -6.33011,16.77272 -8.12071,14.87588 -8.13862,14.88288 -5.45995,2.13213 z m 87.20812,-25.23016 c -0.18507,-4.49523 0.82266,-7.0138 2.23967,-5.59683 1.41697,1.41698 1.56843,5.09489 0.33645,8.17315 -1.36124,3.40173 -2.37169,2.39129 -2.57629,-2.57632 z m -77.09319,-3.65723 c 0,-3.77049 1.91892,-8.04138 4.26426,-9.49088 2.34533,-1.4495 4.26425,-6.24678 4.26425,-10.66062 0,-4.41385 2.04658,-9.29004 4.54795,-10.83597 8.78111,-5.42704 8.57481,1.46164 -0.53299,17.79666 -11.45719,20.54873 -12.54347,21.69105 -12.54347,13.19081 z m 83.74295,-13.75513 c 1.35002,-3.518 3.20867,-6.39637 4.13044,-6.39637 0.92171,0 1.67589,2.87837 1.67589,6.39637 0,3.51801 -1.8587,6.39638 -4.13044,6.39638 -2.27169,0 -3.02587,-2.87837 -1.67589,-6.39638 z M 261.23586,193.0655 c -3.0054,-4.8124 -4.52741,-9.68677 -3.38226,-10.83192 1.14515,-1.14515 4.31195,2.08443 7.03733,7.17684 6.44443,12.04154 3.45148,15.03448 -3.65507,3.65508 z m 374.64492,-3.40341 c 0,-2.48375 1.91891,-4.51592 4.26425,-4.51592 2.34534,0 4.26425,0.84621 4.26425,1.88046 0,1.03426 -1.91891,3.06642 -4.26425,4.51592 -2.34534,1.4495 -4.26425,0.60329 -4.26425,-1.88046 z m 8.61404,-15.2796 c 2.96673,-3.57468 6.2722,-5.62126 7.34552,-4.54795 2.95721,2.95724 -3.05129,11.04738 -8.20485,11.04738 -2.82763,0 -2.5041,-2.44675 0.85933,-6.49943 z M 239.50088,164.19013 c -2.61953,-4.89464 -2.98003,-8.89372 -0.80172,-8.89372 4.38264,0 10.43304,12.9159 7.4485,15.90043 -1.03785,1.03786 -4.0289,-2.11516 -6.64678,-7.00671 z m 335.12824,-3.69103 c -1.44,-2.32999 0.23922,-6.60765 3.73122,-9.5059 6.93324,-5.7541 8.38113,-1.24148 2.55292,7.95667 -2.22684,3.51438 -4.69375,4.12255 -6.28414,1.54923 z M 119.90639,143.7312 c 0,-2.30277 3.83783,-8.6119 8.5285,-14.02029 4.69068,-5.4084 8.5285,-8.40332 8.5285,-6.65539 0,1.74794 -3.83782,8.05707 -8.5285,14.0203 -4.69067,5.96323 -8.5285,8.95815 -8.5285,6.65538 z m 49.47419,-17.21848 c 4.28994,-7.62235 9.30507,-13.85882 11.14473,-13.85882 5.19648,0 4.16621,2.02459 -7.79988,15.32769 l -11.14473,12.38994 7.79988,-13.85881 z m 419.59344,3.19819 c 0,-2.34534 0.84619,-4.26426 1.88045,-4.26426 1.03425,0 3.06642,1.91892 4.51592,4.26426 1.44951,2.34533 0.60331,4.26425 -1.88045,4.26425 -2.48375,0 -4.51592,-1.91892 -4.51592,-4.26425 z"
         id="path3428"
         inkscape:connector-curvature="0" />
    </g>
  </g>
</svg>
