<?xml version="1.0" encoding="UTF-8" standalone="no"?>
<!-- Generator: Adobe Illustrator 12.0.0, SVG Export Plug-In . SVG Version: 6.00 Build 51448)  -->
<svg
   xmlns:dc="http://purl.org/dc/elements/1.1/"
   xmlns:cc="http://creativecommons.org/ns#"
   xmlns:rdf="http://www.w3.org/1999/02/22-rdf-syntax-ns#"
   xmlns:svg="http://www.w3.org/2000/svg"
   xmlns="http://www.w3.org/2000/svg"
   xmlns:sodipodi="http://sodipodi.sourceforge.net/DTD/sodipodi-0.dtd"
   xmlns:inkscape="http://www.inkscape.org/namespaces/inkscape"
   version="1.1"
   id="Layer_1"
   width="227.521"
   height="85.789"
   viewBox="0 0 227.521 85.789"
   overflow="visible"
   enable-background="new 0 0 227.521 85.789"
   xml:space="preserve"
   sodipodi:version="0.32"
   inkscape:version="0.46"
   sodipodi:docname="10.svg"
   inkscape:output_extension="org.inkscape.output.svg.inkscape"><metadata
   id="metadata8624"><rdf:RDF><cc:Work
       rdf:about=""><dc:format>image/svg+xml</dc:format><dc:type
         rdf:resource="http://purl.org/dc/dcmitype/StillImage" /></cc:Work></rdf:RDF></metadata><defs
   id="defs8622"><inkscape:perspective
   sodipodi:type="inkscape:persp3d"
   inkscape:vp_x="0 : 42.894501 : 1"
   inkscape:vp_y="0 : 1000 : 0"
   inkscape:vp_z="227.521 : 42.894501 : 1"
   inkscape:persp3d-origin="113.7605 : 28.596334 : 1"
   id="perspective8626" />
	
	
	
	
	
</defs><sodipodi:namedview
   inkscape:window-height="480"
   inkscape:window-width="640"
   inkscape:pageshadow="2"
   inkscape:pageopacity="0.0"
   guidetolerance="10.0"
   gridtolerance="10.0"
   objecttolerance="10.0"
   borderopacity="1.0"
   bordercolor="#666666"
   pagecolor="#ffffff"
   id="base"
   showgrid="false" />
<path
   fill="#FFFF00"
   stroke="#000000"
   stroke-width="0.75"
   d="M227.146,76.808c0,4.753-3.854,8.606-8.606,8.606H8.981  c-4.753,0-8.606-3.854-8.606-8.606V8.981c0-4.753,3.853-8.606,8.606-8.606H218.54c4.753,0,8.606,3.853,8.606,8.606V76.808z"
   id="path8605" />
<path
   fill="none"
   stroke="#000000"
   stroke-width="0.75"
   d="M218.645,71.757c0,4.044-3.566,7.325-7.962,7.325H16.839  c-4.396,0-7.959-3.281-7.959-7.325V14.033c0-4.045,3.563-7.324,7.959-7.324h193.844c4.396,0,7.962,3.279,7.962,7.324V71.757z"
   id="path8607" />
<path
   style="fill:#ff0000"
   id="path8611"
   d="M 40.31,47.986 L 35.498,70.655 L 31.034,74.351 L 28.034,70.655 L 32.847,47.986 L 37.451,44.219 L 40.31,47.986 z M 42.472,38.013 L 37.939,41.709 L 35.009,38.013 L 39.821,15.065 L 44.425,11.438 L 47.284,15.134 L 42.472,38.013 z" /><path
   style="fill:#ff0000"
   id="path8613"
   d="M 65.263,47.847 L 61.496,65.564 L 56.963,69.26 L 54.103,65.564 L 57.87,47.847 L 62.334,44.151 L 65.263,47.847 z M 61.008,74.282 L 58.079,70.515 L 62.612,66.819 L 78.864,66.819 L 81.794,70.515 L 77.26,74.282 L 61.008,74.282 z M 67.356,37.873 L 62.822,41.64 L 59.963,37.873 L 63.73,20.156 L 68.194,16.529 L 71.124,20.225 L 67.356,37.873 z M 72.796,18.971 L 69.797,15.204 L 74.261,11.577 L 90.583,11.577 L 93.581,15.273 L 89.048,18.97 L 72.796,18.97 L 72.796,18.971 z M 91.63,47.847 L 87.862,65.564 L 83.328,69.26 L 80.398,65.564 L 84.165,47.847 L 88.7,44.15 L 91.63,47.847 z M 90.024,20.226 L 94.557,16.53 L 97.487,20.226 L 93.721,37.803 L 89.256,41.57 L 86.258,37.803 L 90.024,20.226 z" /><path
   style="fill:#ff0000"
   id="path8615"
   d="M 107.234,55.171 L 106.885,56.984 L 101.096,61.727 L 97.399,56.984 L 97.749,55.171 L 103.538,50.428 L 107.234,55.171 z M 112.605,30.061 L 112.186,31.874 L 106.468,36.686 L 102.701,31.874 L 103.119,30.061 L 108.839,25.318 L 112.605,30.061 z" /><path
   style="fill:#ff0000"
   id="path8617"
   d="M 125.779,47.847 L 122.012,65.564 L 117.479,69.26 L 114.619,65.564 L 118.386,47.847 L 122.85,44.151 L 125.779,47.847 z M 121.524,74.282 L 118.595,70.515 L 123.128,66.819 L 139.38,66.819 L 142.31,70.515 L 137.776,74.282 L 121.524,74.282 z M 127.872,37.873 L 123.338,41.64 L 120.479,37.873 L 124.246,20.156 L 128.71,16.529 L 131.64,20.225 L 127.872,37.873 z M 133.312,18.971 L 130.313,15.204 L 134.777,11.577 L 151.098,11.577 L 154.097,15.273 L 149.564,18.97 L 133.312,18.97 L 133.312,18.971 z M 152.146,47.847 L 148.379,65.564 L 143.845,69.26 L 140.915,65.564 L 144.682,47.847 L 149.216,44.151 L 152.146,47.847 z M 150.541,20.226 L 155.074,16.53 L 158.004,20.226 L 154.237,37.803 L 149.773,41.57 L 146.774,37.803 L 150.541,20.226 z" /><path
   style="fill:#ff0000"
   id="path8619"
   d="M 167.263,47.847 L 163.496,65.564 L 158.963,69.26 L 156.103,65.564 L 159.87,47.847 L 164.334,44.151 L 167.263,47.847 z M 163.008,74.282 L 160.079,70.515 L 164.612,66.819 L 180.864,66.819 L 183.794,70.515 L 179.26,74.282 L 163.008,74.282 z M 169.355,37.873 L 164.821,41.64 L 161.962,37.873 L 165.729,20.156 L 170.193,16.529 L 173.123,20.225 L 169.355,37.873 z M 174.796,18.971 L 171.797,15.204 L 176.261,11.577 L 192.582,11.577 L 195.581,15.273 L 191.048,18.97 L 174.796,18.97 L 174.796,18.971 z M 193.629,47.847 L 189.862,65.564 L 185.328,69.26 L 182.398,65.564 L 186.165,47.847 L 190.699,44.151 L 193.629,47.847 z M 192.024,20.226 L 196.557,16.53 L 199.487,20.226 L 195.72,37.803 L 191.256,41.57 L 188.257,37.803 L 192.024,20.226 z" />
</svg>