<?xml version="1.0" encoding="utf-8"?>
<!-- Generator: Adobe Illustrator 12.0.1, SVG Export Plug-In . SVG Version: 6.00 Build 51448)  -->
<!DOCTYPE svg PUBLIC "-//W3C//DTD SVG 1.1//EN" "http://www.w3.org/Graphics/SVG/1.1/DTD/svg11.dtd" [
	<!ENTITY ns_svg "http://www.w3.org/2000/svg">
	<!ENTITY ns_xlink "http://www.w3.org/1999/xlink">
]>
<svg  version="1.1" id="Layer_1" xmlns="&ns_svg;" xmlns:xlink="&ns_xlink;" width="354.276" height="317.441"
	 viewBox="0 0 354.276 317.441" overflow="visible" enable-background="new 0 0 354.276 317.441" xml:space="preserve">
<g>
	<path fill-rule="evenodd" clip-rule="evenodd" d="M157.385,1.601c-43.923,1.632-85.57-0.519-122.708,0
		C34.396,1.171,34.121,0.734,34.144,0C76.923,0.173,113.347,0.464,157.385,1.601z"/>
	<path fill-rule="evenodd" clip-rule="evenodd" d="M354.249,3.201c-2.653,1.814-6.599,1.211-9.603,1.067
		c-10.589-0.508-22.607-0.747-35.211-1.067c-16.589-0.421-34.352,0.611-52.285,0c-16.099-0.548-33.041-0.425-49.616-0.533
		c-17.532-0.115-33.76,0.015-49.617-0.534c0.237-0.476,0.47-0.955,1.069-1.067c46.407,0.234,87.748,0.534,146.181,0.534
		c15.971,0,29.725-0.948,44.814,0C351.291,1.683,354.359,0.308,354.249,3.201z"/>
	<path fill-rule="evenodd" clip-rule="evenodd" fill="#FFFFFF" d="M147.781,33.078c0.066,4.334-2.202,6.333-3.733,9.07
		c0.325,11.98,1.965,22.896,2.134,33.611c-13.753,0.03-29.122-0.198-37.88,0.534c-1.646-8.875,3.116-20.589,2.134-29.877
		c-0.662-6.262-5.101-9.745-8.002-12.804C114.773,33.298,132.684,33.221,147.781,33.078z M117.905,37.346
		c5.414,0.561,15.736,1.547,20.273-0.534C132.765,36.251,122.442,35.265,117.905,37.346z"/>
	<path fill-rule="evenodd" clip-rule="evenodd" fill="#FFFFFF" d="M153.65,33.078c5.156,0,10.314,0,15.472,0
		c-0.475,2.366-2.544,3.584-3.202,6.402c-0.828,3.557,0.342,8.142,0.534,12.271c0.398,8.535,0.112,17.381,1.067,23.474
		c-2.562,0.653-7.736,0.601-10.137,0c0.821-6.501,2.115-15.295,2.667-22.941c0.162-2.243,1.052-4.719,0.533-6.936
		C159.369,40.137,154.246,37.958,153.65,33.078z"/>
	<path fill-rule="evenodd" clip-rule="evenodd" d="M324.906,36.278c-18.425,1.479-40.907,1.231-64.021,0.534
		c-18.441-0.556-38.646,0.484-58.153,0c2.784-2.564,7.613-1.605,11.203-1.601c18.605,0.023,45.978,0.271,69.357,0
		c12.445-0.145,22.082,0.739,36.278-0.534C320.666,34.581,324.201,33.406,324.906,36.278z"/>
	<path fill-rule="evenodd" clip-rule="evenodd" d="M138.178,36.812c-4.537,2.081-14.859,1.094-20.273,0.534
		C122.442,35.265,132.765,36.251,138.178,36.812z"/>
	<path fill-rule="evenodd" clip-rule="evenodd" d="M84.828,38.413c-10.767,0.921-24.269,0.127-41.08,0.533
		c-4.319,0.104-9.152,1.511-12.805-0.533c2.787-1.934,6.958-1.066,10.67-1.066c10.719,0,26.727-0.392,36.278-0.534
		C80.038,36.78,83.862,36.546,84.828,38.413z"/>
	<path fill-rule="evenodd" clip-rule="evenodd" d="M35.745,76.292c0.149,2.503-4.212,2.596-5.868,1.601
		c0.067-0.957-0.654-1.125-0.535-2.134C30.811,74.331,34.823,74.305,35.745,76.292z"/>
	<path fill-rule="evenodd" clip-rule="evenodd" fill="#FFFFFF" d="M145.647,77.359c0.311,2.801-0.939,4.04-0.534,6.936
		c-12.093,0-24.186,0-36.278,0c-1.022-1.289-0.337-4.288-0.534-6.402C121.601,77.693,133.578,77.292,145.647,77.359z"/>
	<path fill-rule="evenodd" clip-rule="evenodd" fill="#FFFFFF" d="M156.852,77.359c3.556,0,7.113,0,10.67,0c0,2.312,0,4.624,0,6.936
		c-3.735,0-7.47,0-11.203,0C155.912,81.398,156.975,79.973,156.852,77.359z"/>
	<path fill-rule="evenodd" clip-rule="evenodd" d="M57.085,84.828c0.491,2.092-2.814,0.387-3.202,1.601
		c1.539,26.096,1.253,53.107,2.134,78.959c0.215,6.315,0.219,11.933-1.067,17.073c-0.66,1.727,1.726,0.407,1.067,2.134
		c-1.214,31.546,1.082,50.446-1.067,81.627c-4.16,0.9-7.343,1.57-9.604,0c1.658-2.505,5.603-0.252,7.469-0.533
		c0.331-26.149-1.03-52.831-1.067-77.893c-0.464-2.064,1.303-1.898,1.6-3.201c-0.991-1.791-2.404,3.568-3.201,0.534
		c-1.247-1.057,1.077-3.382,2.134-2.135c-0.831-29.257-1.808-61.866-1.6-89.629c0.018-2.416,0.361-5.115,1.067-7.469
		C51.482,83.823,56.061,83.84,57.085,84.828z"/>
	<path fill-rule="evenodd" clip-rule="evenodd" fill="#FFFFFF" d="M73.09,86.429c0.567-1.211,3.354-0.203,4.801-0.533
		C77.325,87.106,74.538,86.098,73.09,86.429z"/>
	<path fill-rule="evenodd" clip-rule="evenodd" fill="#FFFFFF" d="M78.958,86.429c0.568-1.211,3.354-0.203,4.802-0.533
		C83.193,87.106,80.407,86.098,78.958,86.429z"/>
	<path fill-rule="evenodd" clip-rule="evenodd" fill="#FFFFFF" d="M127.508,86.962c-4.243-0.37-11.707,0.211-18.672,0
		c1.633-1.856,6.069-1.067,9.603-1.067C121.769,85.896,126.106,85.037,127.508,86.962z"/>
	<path fill-rule="evenodd" clip-rule="evenodd" d="M184.061,86.962c26.961-0.064,56.13,0.099,80.026,0
		c-1.23,2.469-4.861,1.571-6.937,1.6c-22.694,0.31-54.451,0.105-72.022-0.533C184.22,88.225,184.121,87.613,184.061,86.962z"/>
	<path fill-rule="evenodd" clip-rule="evenodd" d="M234.21,101.9c-1.604,0.352-0.838,3.074-2.668,3.201
		c0.219-7.061-2.935-11.164-8.002-10.137c0.367-1.556,2.469-1.587,3.201-1.6C231.186,93.287,232.546,98.368,234.21,101.9z"/>
	<path fill-rule="evenodd" clip-rule="evenodd" d="M165.388,105.102c-1.819-1.644,0.29-7.383-4.803-8.003
		C163.632,94.023,167.347,101.437,165.388,105.102z"/>
	<path fill-rule="evenodd" clip-rule="evenodd" d="M236.878,103.5c2.913-0.068,1.09,4.6,1.601,6.936
		C236.321,109.75,237.056,106.168,236.878,103.5z"/>
	<path fill-rule="evenodd" clip-rule="evenodd" fill="#FFFFFF" d="M213.403,105.635c-0.233,0.656-0.684,1.096-1.601,1.067
		C212.035,106.046,212.485,105.606,213.403,105.635z"/>
	<path fill-rule="evenodd" clip-rule="evenodd" d="M144.048,109.37c-0.303,1.299-0.458,2.744-2.135,2.667
		c-0.012-1.256,0.919-1.57,0.533-3.201c-0.65-1.483-3.277-0.991-5.335-1.067C139.088,105.055,143.206,106.699,144.048,109.37z"/>
	<path fill-rule="evenodd" clip-rule="evenodd" d="M89.095,112.571c0.701,0.188,0.839,0.939,1.601,1.067
		c-5.776,2.485-8.884,7.699-4.802,13.338c1.922,2.654,7.208,3.975,4.269,7.469c-2.017,0.16-1.68-2.1-2.667-3.201
		c-2.747-3.064-6.25-4.415-5.869-9.07C81.978,117.882,85.2,115.295,89.095,112.571z"/>
	<path fill-rule="evenodd" clip-rule="evenodd" d="M141.38,116.838c-1.872,3.108-8.12,1.839-7.47,7.469
		c0.191,1.409,1.281,1.919,3.201,1.601c0.046,2.917-3.632,1.063-4.802,0.533C130.827,120.371,136.105,117.787,141.38,116.838z"/>
	<path fill-rule="evenodd" clip-rule="evenodd" d="M159.518,140.847c-5.676-3.722-3.277-17.603,3.202-18.673
		c-3.233,3.319-7.318,12.313-2.668,17.073C160.203,140.107,159.548,140.165,159.518,140.847z"/>
	<path fill-rule="evenodd" clip-rule="evenodd" d="M194.196,129.643c1.44,1.707-1.895,2.057-2.134,3.735
		c-2.535,12.857,8.858,20.347,11.203,30.943c0.404,1.826,1.754,6.305-1.066,8.003c2.028-18.234-18.365-24.426-9.604-42.681
		C193.13,129.643,193.664,129.643,194.196,129.643z"/>
	<path fill-rule="evenodd" clip-rule="evenodd" d="M149.382,137.646c1.215,2.472,4.662,14.886-0.534,17.605
		c0.832-4.378,1.821-7.937,1.067-11.737c-1.062-5.367-5.458-8.205-7.469-12.27c2.121-0.713,2.381,2.81,4.268,3.734
		c1.03,0.504,1.184-0.775,2.134,0c3.817,3.112,9.292,12.888,10.67,19.206c0.599,2.741,0.821,6.397-0.531,8.536
		c-2.18-1.496-0.813-4.535-1.069-6.402C156.892,148.812,152.816,142.705,149.382,137.646z"/>
	<path fill-rule="evenodd" clip-rule="evenodd" d="M159.518,136.579c1.397,0.954,2.727,2.819,4.269,4.801
		c2.542,3.268,7.961,7.415,4.802,11.737c-2.394,0.083-2.225-2.397-2.134-4.801C164.847,143.698,160.525,141.795,159.518,136.579z"/>
	<path fill-rule="evenodd" clip-rule="evenodd" d="M116.305,142.447c0.355,0,0.711,0,1.067,0c5.526,0.408,4.009,8.996,1.067,12.271
		c-3.712,4.131-16.129,6.489-18.673,11.737c-0.61,2.212,1.123,2.079,1.067,3.734c-6.933-3.443,1.183-8.291,4.268-10.136
		c4.226-2.528,10.189-4.396,12.271-7.469C119.676,149.181,118.921,145.475,116.305,142.447z"/>
	<path fill-rule="evenodd" clip-rule="evenodd" d="M146.182,142.98c0.301,1.11,1.523,1.725,0.532,2.667
		c-1.627-0.329-1.517-2.394-4.268-1.601C142.019,142.02,144.969,143.369,146.182,142.98z"/>
	<path fill-rule="evenodd" clip-rule="evenodd" d="M140.846,144.047c2.162,0.542-0.369,2.467,1.601,3.202
		c-0.137,1.249-2.344,0.307-2.667,0C139.356,145.403,140.371,144.996,140.846,144.047z"/>
	<path fill-rule="evenodd" clip-rule="evenodd" d="M147.248,147.782c0.62-0.087,0.949,0.118,1.067,0.534
		c0.866,6.323-2.079,13.125-6.402,16.005c-0.85,1.285-0.39,3.879-2.134,4.268c-1.325-3.471,2.22-5.772,3.734-8.003
		C145.74,157.306,147.6,154.203,147.248,147.782z"/>
	<path fill-rule="evenodd" clip-rule="evenodd" d="M190.996,147.782c0.355,0,0.711,0,1.066,0c0,0.356,0,0.711,0,1.067
		c-0.355,0-0.711,0-1.066,0C190.996,148.494,190.996,148.138,190.996,147.782z"/>
	<path fill-rule="evenodd" clip-rule="evenodd" fill="#FFFFFF" d="M256.616,148.316c0.067-1.179,2.265-0.227,3.202-0.534
		c0,0.889,0,1.778,0,2.667C258.253,150.237,258.013,148.699,256.616,148.316z"/>
	<path fill-rule="evenodd" clip-rule="evenodd" d="M147.248,158.986c1.718,0.515-0.302,5.939-2.668,5.869
		C144.982,162.411,146.689,161.273,147.248,158.986z"/>
	<path fill-rule="evenodd" clip-rule="evenodd" d="M176.058,159.519c2.034,0.1,1.394,2.875,2.668,3.734
		c7.05,2.542,17.487,3.98,15.471,13.872c-3.182,1.086-1.312,7.224-5.335,7.469c-0.047-2.136,3.385-5.056,2.135-10.136
		c0.034-1.814-2.74-0.817-2.668-2.668c3.098-0.43,4.162,1.173,4.268,3.735C195.295,164.451,174.754,169.203,176.058,159.519z"/>
	<path fill-rule="evenodd" clip-rule="evenodd" d="M99.765,160.586c-1.816,3.355-4.01,5.779-3.201,10.137
		c0.493,2.654,4.166,3.918,3.201,6.936C93.156,176.28,92.432,161.762,99.765,160.586z"/>
	<path fill-rule="evenodd" clip-rule="evenodd" d="M106.168,164.321c-3.123,2.673-2.097,8.132,0.533,10.67
		C101.665,174.488,100.43,165.229,106.168,164.321z"/>
	<path fill-rule="evenodd" clip-rule="evenodd" d="M157.917,168.589c0.534,0,1.069,0,1.601,0c0.399,5.377-3.259,6.698-3.733,11.205
		C151.11,176.543,159.145,173.576,157.917,168.589z"/>
	<path fill-rule="evenodd" clip-rule="evenodd" d="M234.744,198.465c-0.299,2.355,2.811,3.2,1.066,5.335
		c-8.021-5.126,2.768-11.203,3.202-17.605c-0.294-1.183,1.018-0.76,1.066-1.601c-0.263-6.496-5.115-8.399-10.138-10.136
		c1.242-1.862,6.411,0.385,8.003,1.6c5.917,4.515,4.944,18.479-1.6,19.206C235.632,196.154,236.538,198.66,234.744,198.465z"/>
	<path fill-rule="evenodd" clip-rule="evenodd" d="M188.328,176.591c2.861,2.999-0.462,8.204-3.2,9.07
		C185.848,182.291,188.974,181.329,188.328,176.591z"/>
	<path fill-rule="evenodd" clip-rule="evenodd" d="M165.92,179.259c0.89,0,1.779,0,2.668,0c3.167,3.148,0.958,10.536-3.2,11.204
		c-1.157-2.749,3.894-3.451,3.2-7.47C168.633,180.816,165.964,181.351,165.92,179.259z"/>
	<path fill-rule="evenodd" clip-rule="evenodd" d="M243.279,184.594c2.949,0.525,1.366,5.02-0.533,5.335
		C241.989,188.197,243.164,186.529,243.279,184.594z"/>
	<path fill-rule="evenodd" clip-rule="evenodd" d="M245.414,186.195c1.163-0.097,1.696,0.437,1.6,1.601c-0.533,0-1.067,0-1.6,0
		C245.414,187.262,245.414,186.728,245.414,186.195z"/>
	<path fill-rule="evenodd" clip-rule="evenodd" d="M162.186,192.063c1.109,0.299,1.132,0.832,0.534,1.601
		c-6.454,3.534-11.205,16.879-3.733,22.407c3.127-0.071,6.04-0.359,8.535-1.067c-4.944-2.417-11.723-10.476-5.869-17.072
		c0.786,2.232-1.523,4.694-1.067,7.47c0.597,3.616,3.803,5.25,6.937,4.802c2.122,1.104,1.713,3.01,2.135,4.801
		c2.387-0.813,6.512,0.111,7.468-2.133c-1.036-6.077-10.322-3.905-11.204-10.138c1.645,0.492,2.134,2.136,3.202,3.202
		c4.322,0.124,6.649,2.242,9.069,4.268c0.647,0.952,0.097,3.104,1.066,3.735c3.026-1.044-2.795-7.547,1.602-8.537
		c1.149,2.407-0.182,7.294,2.667,8.003c0.957,0.068,1.125-0.652,2.135-0.533c1.616-0.161-1.88-2.244,0-2.668
		c2.292-0.515,0.936,2.621,2.667,2.668c3.807-0.745,7.257-0.741,10.671-1.067c1.975-0.188,5.424-1.868,5.867,1.067
		c-1.311,1.573-2.123-0.042-3.2,0c-6.88,1.657-15.646,1.427-22.94,2.666c0.23,2.543-0.083,4.543-1.602,5.336
		c-2.261-0.68,0.498-1.74,0-3.734c-4.768-2.306-10.898,0.504-16.005,0.533c0.281,3.944-0.977,8.84-4.801,6.937
		c1.262-1.566,4.699-2.777,2.668-6.937c-2.971-0.194-13.723,3.536-16.007-1.065c5.576,1.014,8.537-0.086,13.872,0
		c0.067-1.848-2.778-0.78-3.201-2.135c-0.024-2.109-1.174-3.095-1.601-4.802c-2.871,2.033-8.752,1.852-13.338,1.066
		c1.777-2.134,7.076-0.747,9.069-2.667c1.245,0,2.49,0,3.734,0C152.562,200.223,157.645,196.413,162.186,192.063z"/>
	<path fill-rule="evenodd" clip-rule="evenodd" d="M206.468,193.131c-1.855,2.591-5.385,3.506-5.336,8.001
		c0.571,2.045,1.212,0.709,2.134,2.135C195.91,204.466,201.708,190.847,206.468,193.131z"/>
	<path fill-rule="evenodd" clip-rule="evenodd" d="M102.433,196.332c-2.595,3.097-5.646,5.733-4.801,12.271
		C93.263,205.542,98.233,196.482,102.433,196.332z"/>
	<path fill-rule="evenodd" clip-rule="evenodd" d="M243.812,211.27c-1.704-2.975,2.097-4.515,2.668-6.937
		c-0.817-2.205-1.757-4.289-4.269-4.801C247.576,195,250.402,211.166,243.812,211.27z"/>
	<path fill-rule="evenodd" clip-rule="evenodd" d="M206.468,200.065c1.395-0.149,2.296,0.196,2.134,1.603
		C207.604,202.714,206.031,201.975,206.468,200.065z"/>
	<path fill-rule="evenodd" clip-rule="evenodd" fill="#FFFFFF" d="M109.369,200.599c1.678-0.61,1.297,0.837,2.134,1.068
		C111.168,202.965,108.807,201.95,109.369,200.599z"/>
	<path fill-rule="evenodd" clip-rule="evenodd" d="M100.3,202.733c1.666-0.244,1.705,1.141,1.6,2.668
		C99.875,205.866,99.396,203.628,100.3,202.733z"/>
	<path fill-rule="evenodd" clip-rule="evenodd" d="M211.269,207.001c-5.609,0.088-11.808,5.774-19.206,2.668
		c4.195-3.275,11.748-3.19,16.539-5.869C210.028,204.33,211.622,204.693,211.269,207.001z M203.8,208.069
		c0.146-1.099,1.987-0.503,2.134-1.602C204.809,206.976,199.266,208.163,203.8,208.069z"/>
	<path fill-rule="evenodd" clip-rule="evenodd" d="M231.542,204.333c5.249,0.533,10.014,3.689,12.804,8.004
		c0.887,1.368,1.971,3.574,1.068,4.801c-2.524-1.211-3.163-4.308-4.802-6.402c-3.781-2.533-9.531,0.201-12.27-3.201
		c4.458-0.027,6.432,0.223,8.535,0.534C236.985,204.938,231.279,207.623,231.542,204.333z"/>
	<path fill-rule="evenodd" clip-rule="evenodd" d="M77.358,206.467c-1.06,0.89-0.679-0.047-2.134,0
		C74.804,204.414,77.779,204.414,77.358,206.467z"/>
	<path fill-rule="evenodd" clip-rule="evenodd" fill="#FFFFFF" d="M221.406,205.401c-0.091-1.157,1.892-0.241,2.668-0.534
		C224.163,206.024,222.182,205.109,221.406,205.401z"/>
	<path fill-rule="evenodd" clip-rule="evenodd" d="M213.403,206.467c0.861-0.149,0.918,0.505,1.602,0.534
		c-0.103,0.432-0.536,0.532-0.535,1.067c-0.354,0-0.71,0-1.066,0C213.403,207.535,213.403,207.001,213.403,206.467z"/>
	<path fill-rule="evenodd" clip-rule="evenodd" d="M95.498,211.803c-0.233,0.656-0.683,1.097-1.601,1.067
		C93.648,211.731,94.659,211.854,95.498,211.803z"/>
	<path fill-rule="evenodd" clip-rule="evenodd" d="M244.88,217.671c0.863-0.149,0.918,0.504,1.601,0.533
		c-1.627,4.597-3.477,8.974-5.868,12.805c-2.7,0.837-8.109,0.955-10.137-0.534c2.397-2.759,7.673-2.641,8.003-7.468
		c0.912-0.023,1.382,0.396,1.601,1.066C241.453,221.714,243.634,220.161,244.88,217.671z"/>
	<path fill-rule="evenodd" clip-rule="evenodd" fill="#FFFFFF" d="M217.67,226.208c1.245,0.603-0.422,2.729-1.066,3.201
		C215.105,228.553,217.761,227.416,217.67,226.208z"/>
	<path fill-rule="evenodd" clip-rule="evenodd" fill="#FFFFFF" d="M216.604,231.542c2.252,0.796-0.143,2.309,0.534,5.335
		c-8.768-1.05-23.176-0.971-32.544-1.6c3.452-1.676,13.799-0.774,18.139-2.668c4.724,2.268,7.029-0.168,11.737,1.067
		C215.098,232.882,215.809,232.171,216.604,231.542z"/>
	<path fill-rule="evenodd" clip-rule="evenodd" fill="#FFFFFF" d="M125.374,234.21c3.604,0.486,2.583,5.598,5.336,6.936
		c-3.535,0.586-9.87,0.48-16.54,0.534C118.006,239.292,121.424,236.485,125.374,234.21z"/>
	<path fill-rule="evenodd" clip-rule="evenodd" d="M75.757,236.877c-0.533,0-1.067,0-1.6,0c0-0.532,0-1.066,0-1.6
		c0.533,0,1.067,0,1.6,0C75.757,235.811,75.757,236.345,75.757,236.877z"/>
	<path fill-rule="evenodd" clip-rule="evenodd" fill="#FFFFFF" d="M211.803,237.946c-15.751,1.519-24.115-0.738-37.88,0.533
		c5.226-2.929,14.447-1.92,21.875-1.602C201.476,237.122,207.028,237.994,211.803,237.946z"/>
	<path fill-rule="evenodd" clip-rule="evenodd" fill="#FFFFFF" d="M154.718,237.412c-2.387,1.704-6.848,1.333-10.67,1.601
		c1.26-1.617,3.663-1.502,4.8-1.601C150.93,237.23,152.463,238.32,154.718,237.412z"/>
	<path fill-rule="evenodd" clip-rule="evenodd" fill="#FFFFFF" d="M172.322,240.08c-3.181-0.448-10.541,1.623-14.938,0
		c2.375-0.965,5.43-0.983,9.069-1.067C168.229,238.97,171.531,237.073,172.322,240.08z"/>
	<path fill-rule="evenodd" clip-rule="evenodd" d="M193.13,264.087c-1.171,2.578-5.345,0.885-9.069,1.066
		c-4.335,0.211-9.008,0.792-14.404,0.534c-0.813-0.038-3.719,0.845-3.736-1.066c1.418-2.013,4.823-1.03,6.936-1.068
		c2.761-0.05,5.407,0.059,8.004,0C185.583,263.448,189.772,262.021,193.13,264.087z"/>
	<path fill-rule="evenodd" clip-rule="evenodd" d="M256.084,263.553c0.95,0.392,0.077,0.971,0,1.601
		C255.134,264.763,256.007,264.184,256.084,263.553z"/>
	<path fill-rule="evenodd" clip-rule="evenodd" d="M237.411,265.154c-0.437,2.867-2.966,0.325-3.734,2.668
		c-7.495-1.474-16.464,1.33-21.34-2.134c0.967-2.439,4.193-1.34,6.935-1.066c3.859,0.381,9.126-0.473,12.805,0
		C234.294,264.905,235.16,265.059,237.411,265.154z"/>
	<path fill-rule="evenodd" clip-rule="evenodd" fill="#FFFFFF" d="M48.015,284.36c-0.046,4.4-2.742,6.149-4.268,9.07
		c-6.49-0.802-10.095-4.487-17.073-4.803c2.917-3.308,10.931-1.518,13.871-4.8C43.007,285.024,45.573,282.368,48.015,284.36z"/>
	<path fill-rule="evenodd" clip-rule="evenodd" d="M64.021,189.396c2.636-5.288,8.31,1.474,9.603,4.268
		c0.079,4.169,0.334,8.516-3.201,9.069c-0.137,2.094,1.929,1.983,1.6,4.269c-1.253,0.171-2.002,0.844-3.734,0.533
		c1.019-2.009,1.019-2.259,0-4.268C75.37,200.416,71.144,187.161,64.021,189.396z"/>
	<path fill-rule="evenodd" clip-rule="evenodd" fill="#FFFFFF" d="M205.934,206.467c-0.146,1.099-1.987,0.503-2.134,1.602
		C199.266,208.163,204.809,206.976,205.934,206.467z"/>
	<path fill-rule="evenodd" clip-rule="evenodd" d="M129.642,86.429c3.3,0.633,10.138-0.799,14.938,0.534
		c-9.939,2.331-24.071,0.469-35.745,1.067c1.067,8.329-0.664,14.809,0.533,22.94c1.357,9.216,9.276,16.715,9.07,26.676
		c-6.083,3.761-13.51-2.092-18.139-4.802c1.929-8.851-8.502-11.254-8.003-17.606c0.219-2.793,2.284-3.82,4.268-5.868
		c0.407-8.231-0.67-14.979-0.533-22.941c-3.386-0.602-7.387,0.115-11.737-0.533c-0.17,1.414,2.989-0.5,2.133,1.6
		c-5.192,0.538-14.079,0.924-21.874,0.534c-2.05-0.103-5.558,1.056-5.869-1.601c6.712,0.342,8.668-0.216,13.871,0.534
		c-1.68-2.458-8.959-0.655-11.737-1.067c-1.26-1.778,1.671-1.521,2.668-1.601c9.845-0.788,19.762,1.004,32.01,0
		c0.963-1.989-1.243-3.147-0.533-6.402c-17.894-0.491-38.793,0.926-52.817-0.534c0.721-3.767,4.635-1.645,6.936-1.601
		c13.313,0.256,29.057,0.805,45.882,0.534c-1.181-11.954-1.068-24.309-3.735-35.745c1.029-2.172,2.799-3.603,3.201-6.402
		c-16.45-1.269-33.701-0.557-49.616,0c-3.353,0.118-7.01-0.739-10.137-0.534c-1.893,0.125-3.613,1.002-5.335,1.067
		c-3.993,0.151-8.716-0.113-13.871,0c-2.373,0.052-5.893,0.244-8.536,0c-2.001-0.185-6.215,0.971-5.868-2.668
		c0.315-1.721,2.551-0.547,3.201-0.533c25.736,0.563,51.993,0.726,77.359,0.533c4.894-0.036,10.954,0.946,13.338,0
		c3.514-1.394,3.598-6.635,5.868-8.536c4.258,1.672-1.418,4.657-1.6,6.936c2.203,3.042,4.676,1.208,8.002,1.067
		c9.667-0.41,27.347,0.114,35.212,0c5.519-0.08,8.226-0.391,10.138-5.335c3.163,0.771,0.509,3.24,0,4.802
		c6.443,0.601,10.456,0.054,18.139,0c2.87-2.477,4.134-6.246,4.268-10.137c2.978,1.824,2.028,7.574,4.268,10.137
		c27.835-0.208,51.641-0.204,75.225-0.534c29.629-0.415,56.164-1.047,84.294-1.601c3.059-0.06,7.012-1.327,9.604,1.067
		c-1.436,3.29-6.108,2.113-8.535,2.134c-26.207,0.226-51.045-0.274-76.293,0.534c-22.241,0.712-43.94-1.402-67.755,0
		c-3.823,0.226-9.33,1.314-14.405,0c-1.327,3.716,3.496,5.989,3.735,10.137c0.122,2.132-1.813,3.555-2.134,5.868
		c-1.076,7.744,2.321,17.918,0,26.675c6.233,1.314,12.25-0.465,18.138-0.533c3.992-0.046,7.954,2.046,11.738,0
		c17.401,1.935,38.471-0.312,57.084,0c9.37,0.157,22.591-0.54,33.612,0.533c-1.637,4.216-7.371,2.157-11.737,2.134
		c-12.604-0.065-26.555,0.264-39.48,0c-5.372-0.11-10.738-1.405-15.471,0.534c-11.718-1.615-25.729-0.066-38.413-0.534
		c-5.075-0.188-10.057-0.13-14.938-0.534c-1.115,2.647-0.837,3.402-1.066,6.936c24.973,1.332,51.576-0.044,70.423,1.067
		c-1.598,2.655-5.016,0.443-6.937,0.534c-1.01,0.047-1.599,0.914-2.667,1.067c-2.155,0.31-5.201-0.071-7.469,0
		c-16.132,0.504-32.035-1.085-53.351-0.533c-0.968,4.508-1.773,10.288-2.134,16.005c-0.415,6.571-1.476,13.782-0.534,19.74
		c1.002,6.342,4.388,11.41,5.869,16.538c-1.29,3.156-1.903,6.99-4.802,8.536c-10.542-1.017-7.223-15.896-13.338-21.34
		c-4.854,1.572-0.978,9.941-2.134,11.737c-4.68-2.956-1.44-11.094,1.601-13.871c-1.905-1.839-3.826-4.405-3.734-7.469
		c0.085-2.89,3.128-5.396,3.734-8.536c1.492-7.732-0.27-14.994,0.533-21.34c-4.715-0.145-7.373,0.348-11.203,0
		c-1.128,6.93-0.438,13.931,1.066,20.273c1.1,4.63,4.653,9.681-0.533,12.271c-3.225-1.044-5.164-3.373-7.47-5.335
		c-1.728-4.852-1.778-11.381-6.402-13.337c-2.938-5.993,2.537-8.919,1.601-13.871C139.775,86.248,133.559,85.188,129.642,86.429z
		 M102.433,33.611c2.902,3.059,7.34,6.542,8.002,12.804c0.982,9.288-3.78,21.001-2.134,29.877c8.758-0.732,24.127-0.503,37.88-0.534
		c-0.169-10.715-1.809-21.631-2.134-33.611c1.531-2.736,3.8-4.736,3.733-9.07C132.684,33.221,114.773,33.298,102.433,33.611z
		 M160.585,45.348c0.519,2.217-0.371,4.692-0.533,6.936c-0.552,7.646-1.846,16.439-2.667,22.941c2.4,0.601,7.574,0.653,10.137,0
		c-0.955-6.093-0.669-14.939-1.067-23.474c-0.192-4.129-1.362-8.714-0.534-12.271c0.658-2.818,2.728-4.036,3.202-6.402
		c-5.157,0-10.315,0-15.472,0C154.246,37.958,159.369,40.137,160.585,45.348z M108.302,77.893c0.197,2.114-0.489,5.113,0.534,6.402
		c12.092,0,24.185,0,36.278,0c-0.405-2.896,0.845-4.135,0.534-6.936C133.578,77.292,121.601,77.693,108.302,77.893z M156.318,84.294
		c3.733,0,7.468,0,11.203,0c0-2.312,0-4.623,0-6.936c-3.557,0-7.114,0-10.67,0C156.975,79.973,155.912,81.398,156.318,84.294z
		 M77.892,85.896c-1.448,0.33-4.234-0.678-4.801,0.533C74.538,86.098,77.325,87.106,77.892,85.896z M83.761,85.896
		c-1.448,0.33-4.234-0.678-4.802,0.533C80.407,86.098,83.193,87.106,83.761,85.896z M118.438,85.896
		c-3.534,0-7.97-0.789-9.603,1.067c6.965,0.211,14.43-0.37,18.672,0C126.106,85.037,121.769,85.896,118.438,85.896z"/>
	<path fill-rule="evenodd" clip-rule="evenodd" d="M84.828,212.871c0.25-1.206-2.895,1.228-3.201-0.533
		c-2.792,2.898-4.924,6.456-6.936,10.136c0.173,2.674,2.382,3.309,3.201,5.336c0.176,3.376,0.048,6.449-2.667,6.935
		c0.246-5.043-3.645-7.75-3.201-11.736c0.461-4.137,7.602-9.14,9.07-13.338c0.892,1.063,2.137,1.774,3.734,2.134
		c0.028-4.889-1.107-5.916-3.734-7.47c0.07-1.707,1.209-2.347,3.201-2.135c-10.544-1.955-9.646-19.702,0-21.872
		c-1.956-6.184,8.439-6.746,8.003,0c2.392,2.021,6.623,3.976,7.468,8.002c1.3,6.185-2.15,11.405-7.468,12.804
		c0.08,0.988,1.806,0.328,2.133,1.066c-0.875,4.231-3.821,7.588-2.667,13.338c3.59-1.568,8.767-6.168,12.804-9.069
		c-1.634-3.64,3.434-4.1,3.734-7.468c-1.22-0.56-1.89-1.668-3.734-1.601c-0.479-1.562-0.479-1.64,0-3.201
		c-0.34-1.938-2.494,1.238-2.668-0.534c0.018-6.765,2.382-17.503,8.536-21.34c-0.059-1.363-0.978-1.868-1.6-2.667
		c0.887-2.469,1.433,0.805,3.201,0.533c4.051-2.649,8.809-5.57,14.938-4.801c3.385,0.425,6.204,3.094,9.604,2.667
		c1.288,4.582,4.94,6.796,5.868,11.738c0.156,1.622,2.821,0.734,3.201,2.133c1.437,1.429-0.68,2.029-1.067,3.202
		c2.678,3.717-0.627,7.048,0.533,11.736c-3.538,1.975-6.695,4.33-11.203,5.334c-2.011,2.08-3.896,4.285-5.869,6.404
		c2.132,2.564,5.25,3.789,7.47,6.4c4.82,5.67,4.037,15.102,8.002,21.874c6.307-1.148,18.396-1.231,25.608-2.134
		c12.06-1.506,23.582-0.614,31.476-5.869c8.025,1.89,13.98,0.244,15.473-6.401c2.252-0.828-0.116,2.963,2.134,2.135
		c1.974-7.292,2.679-18.247-2.667-20.808c0.064-1.357,0.776-2.069,2.133-2.133c-8.855-1.655-9.144-18.261,0.534-19.207
		c-1.57-3.028,1.765-4.236,3.734-5.335c1.286,0.67,1.889,2.024,3.736,2.134c0.44,1.508-0.753,1.382-0.534,2.667
		c7.342,1.749,10.469,15.558,2.133,18.673c0.166,1.258,1.854,0.994,1.601,2.668c-2.083,0.589-1.187,2.564-1.601,4.802
		c-0.39,2.107-1.504,3.931-1.599,5.869c-0.338,6.803,2.516,15.177,3.199,21.34c3.993,0.63,11.246-1.998,10.671,3.201
		c-3.292,1.37-8.086,0.01-10.671-1.067c-0.572,3.507,2.979,2.066,5.336,2.134c3.655,0.105,7.646-0.319,9.069,1.068
		c-0.313,3.091-5.387,2.653-7.469,2.666c-2.51,0.017-5.419-0.964-7.468-1.066c-1.253,2.277,2.063,2.328,1.065,5.868
		c1.954,0.395,2.964-1.312,4.269,0c2.276,0.213,2.135,2.845,4.268,3.202c5.192,0.103,9.101-0.275,10.67,2.666
		c2.509,4.706-2.745,7.777-4.269,11.738c0.718,3.018,5.823,1.646,6.937,4.269c3.012-0.658,5.55,1.256,7.469,0
		c0.987-1.146-0.705-2.844-0.533-4.803c2.164-1.893,5.379-1.877,7.469,0c2.384-4.395-3.737-7.935-4.268-12.804
		c-1.834,0.233-2.99-0.212-4.269-0.534c-5.922-12.192-8.345-28.184-7.469-47.482c0.301-6.626,3.02-15.521,1.601-19.205
		c-1.127-2.926-5.114-3.632-6.937-5.335c-2.844-2.662-3.321-4.796-4.801-8.003c-4.374-0.96-7.931-2.74-11.202-4.801
		c-2.339,1.728-3.578,4.1-5.87,6.935c-1.237,0.17-2.05-0.085-2.667-0.533c-5.579,5.98-10.831,12.289-18.14,16.539
		c0,0.89,0,1.778,0,2.668c-3.191-2.958-4.551,3.085-5.868,5.334c0.199,3.227,5.273,5.284,2.667,8.004
		c-4.542,0.799-5.281-8.522-2.667-12.271c-4.836,2.634-6.881,8.058-8.004,14.405c-2.402-0.442-0.863-4.826-2.133-6.401
		c-2.186,0.198-6.954,5.044-10.138,4.268c0.286-3.272,2.534-4.579,3.734-6.936c-1.389-1.008-3.981,1.331-6.402,1.065
		c0.874-3.216,4.93-3.249,7.471-4.801c-0.718-2.307-4.679-1.369-3.736-5.335c2.823,0.001,7.486,1,11.204-0.533
		c3-2.797,5.529-5.402,5.87-9.603c0.724,0.164,0.442,1.335,0.532,2.133c5.342-2.145,6.791-12.365,3.735-18.139
		c3.784,0.736,3.675,7.961,2.666,11.738c4.165-0.109,6.482-6.676,8.537-10.67c-1.098-1.569-3.869-1.465-3.734-4.269
		c4.593-4.121,10.554-6.875,13.338-12.804c2.217-0.985,3.371-0.813,4.802-3.201c-0.441-1.337-1.869-1.688-2.668-2.667
		c-3.112-0.211-5.103,2.381-8.002,2.133c-4.854-0.413-9.801-6.095-8.004-11.737c-0.593-1.186-2.11-1.445-2.667-2.668
		c0.933-2.268,0.397-6.004,0.533-9.069c-1.712-0.09-4.222-1.082-4.801-3.735c0.942-0.479,1.558-1.288,2.666-1.601
		c1.897-0.829,0.323,1.812,1.602,1.601c2.511-1.935,3.82-5.072,4.269-9.07c3.128-1.496,5.37-3.876,8.537-5.335
		c0.228,0.838,1.678,0.457,1.065,2.134c2.609-1.264,6.369-1.253,9.604-0.533c0.412,0.474,0.572,1.204,0.533,2.134
		c3.194,0.823,7.444,4.036,10.137,6.936c3.791,4.083,3.004,7.764-0.534,13.338c0.712,1.066,3.487,0.07,2.668,2.668
		c-1.273,1.792-3.867-1.058-4.269,0c-1.74,1.731,2.333,0.375,1.601,2.667c-0.864,0.737-1.312,1.887-3.201,1.601
		c3.277,4.612,9.228-0.211,14.404,0c2.816,0.115,5.277,1.651,8.002,2.134c4.82,0.854,9.962,0.317,13.338,3.201
		c-0.157-19.929,0.105-35.313-0.532-51.75c-3.209-1.771-9.128-0.832-13.871-1.067c3.767-2.52,7.584-0.846,14.938-1.601
		c3.257,9.153,1.496,19.347,1.6,28.81c0.089,8.183,2.092,19.333-1.065,26.142c5.854,3.884,1.436,13.393-1.069,18.139
		c8.698,10.001,17.036,30.355,14.939,51.218c-0.418,4.15-2.382,8.994-2.134,12.804c0.399,6.154,6.913,10.907,6.401,17.072
		c-0.416,5.018-7.012,10.965-11.204,6.401c-2.21,2.98,0.343,8.84-0.532,13.871c1.062,0.779,3.456-1.751,4.801,0.534
		c0.346,1.947-0.359,2.842-1.066,3.734c1.335,2.711,6.05,6.439,2.134,9.604c19.143,0.714,36.716,0.955,56.019,3.2
		c1.239,0.146,2.644,1.003,3.733,1.067c4.008,0.234,9.597-0.513,10.67,5.335c-3.115,1.529-6.964,4.157-12.269,4.802
		c-6.009,0.729-12.531-1.695-13.873,3.734c8.659,3.822,18.117,1.381,26.142,3.735c0.463,2.027,2.413,2.568,2.135,5.334
		c-1.895,1.839-4.093,3.377-5.868,5.336c-13.99-2.669-34.286,0.653-44.814-6.937c-0.885-2.493-2.438-4.318-2.668-7.469
		c2.295-4.284,9.62-3.539,12.804-6.935c-2.797-3.519-7.925-3.203-13.338-3.735c-4.034-0.397-8.851-0.986-12.27-1.601
		c-0.208-0.037-0.965-1.053-1.068-1.066c-4.81-0.66-10.868-0.558-14.938,0c-1.335-0.443-2.095-1.461-3.735-1.602
		c-4.163,0.809-9.108,3.104-13.871,1.602c-0.656-1.508-0.656-3.293,0-4.802c-5.58-0.751-10.052,0.402-14.938-0.534
		c-0.035-3.045,1.227-3.793-0.532-7.468c1.304-1.897,3.307-3.095,3.733-5.87c-3.33-3.926-15.092-3.302-20.273-0.533
		c-5.035-2.486-12.98-3.726-15.472,2.135c0.128,2.538,1.658,3.677,2.134,5.868c-0.469,1.486-2.646,1.267-2.667,3.201
		c1.517,2.725,5.98,1.283,9.603,1.602c1.956,0.171,6.595-0.043,8.536,2.133c-0.456,4.689-7.403,2.719-10.137,1.066
		c-5.922-0.688-13.095,0.063-18.672-2.134c2.194-5.13,7.33-1.585,8.002-6.401c0.503-3.607-4.927-5.65-4.801-8.537
		c0.274-6.305,10.354-2.365,12.27-8.002c1.562-0.704,2.754,0.341,5.335,0c1.132-0.477-1.055-3.732,0.534-4.802
		c-23.906,0.635-39.673-2.113-60.286-0.534c-3.262,0.251-6.077,1.635-9.604,1.067c3.566,5.005,5.955,10.888,8.536,16.539
		c2.637,5.775,6.416,10.668,8.536,16.538c0.287,2.066-1.36,2.197-1.601,3.736c1.283,3.161,3.223,5.668,5.335,8.002
		c0.889,0,1.778,0,2.668,0c1.383,1.995,3.49,3.267,5.335,4.802c1.404,0.808,4.328-0.615,4.802,2.134
		c-1.439,1.05-4.662,0.316-6.937,0.533c6.394,7.938,20.068,5.601,26.144,13.338c-5.298,2.575-11.909-1.184-16.54-3.734
		c-9.103-1.746-13.927-7.77-22.941-9.604c-1.895-0.061-1.938-1.974-4.267-1.601c-3.157,0.704-8.378,3.388-10.137-0.533
		c-0.076-2.387,3.09-1.534,4.268-2.667c2.157-1.222,3.612-3.146,5.335-4.803c-0.821-2.914-2.646-4.823-4.269-6.936
		c-1.877,0.152-4.758,1.049-7.468,0c-0.818-1.512-1.467-3.511-0.534-5.334c-4.174-10.232-7.682-21.129-11.738-31.479
		c-3.741,3.017-12.579,0.938-18.139,2.135c-1.741,0.141-1.13-2.07-2.667-2.135c-1.441,0.16-0.957,2.245-2.134,2.668
		c3.01,6.782-0.911,13.373-2.667,18.673c11.141,4.51,24.312,6.986,28.81,18.14c1.273,7.276-2.817,7.907-5.868,11.737
		c-16.197-0.333-28.296-1.652-39.48,4.801c-2.5-2.301-4.959-4.645-8.536-5.868c-2.6-6.612-10.412-4.831-16.54-6.402
		c-4.179,1.512-5.117,6.264-9.603,7.47c-0.173,1.961-1.316,2.952-1.601,4.801c-2.457,2.776-8.401,6.282-14.405,10.138
		c-4.239,2.723-8.307,7.328-12.271,7.469c-2.479,0.088-6.955-2.075-6.936-4.803c0.032-4.398,9.772-5.985,12.804-8.002
		c-6.061-7.987-20.22-7.878-27.209-14.938c-2.665-0.003-4.871-0.464-5.334-2.668c2.741-4.158,11.283-0.684,16.538-1.601
		c1.138-1.294-1.27-2.278-0.533-4.802c3.303-3.704,7.948-3.387,11.737-5.868c3.879-2.54,6.874-8.113,13.337-7.47
		c3.477,2.037,3.109,7.916,9.604,6.936c0.838-1.828,1.593-3.74,2.134-5.867c6.3-2.377,9.818,2.137,13.337,4.268
		c2.779-0.15,6.021-1.181,8.003-0.534c-0.839-3.5-3.875-3.912-4.802-6.401c-1.331-3.575-0.544-8.889,0-11.738
		c1.045-5.469,3.538-11.936,6.402-17.072c1.764-3.162,5.197-6.039,6.402-9.068C84.101,222.934,83.264,217.638,84.828,212.871z
		 M211.803,106.702c0.917,0.028,1.367-0.411,1.601-1.067C212.485,105.606,212.035,106.046,211.803,106.702z M259.818,150.45
		c0-0.89,0-1.778,0-2.667c-0.938,0.307-3.135-0.645-3.202,0.534C258.013,148.699,258.253,150.237,259.818,150.45z M111.503,201.667
		c-0.837-0.231-0.456-1.679-2.134-1.068C108.807,201.95,111.168,202.965,111.503,201.667z M224.074,204.867
		c-0.776,0.293-2.759-0.623-2.668,0.534C222.182,205.109,224.163,206.024,224.074,204.867z M216.604,229.409
		c0.645-0.473,2.312-2.599,1.066-3.201C217.761,227.416,215.105,228.553,216.604,229.409z M214.47,233.677
		c-4.708-1.235-7.014,1.2-11.737-1.067c-4.34,1.894-14.687,0.992-18.139,2.668c9.368,0.629,23.776,0.55,32.544,1.6
		c-0.677-3.026,1.718-4.539-0.534-5.335C215.809,232.171,215.098,232.882,214.47,233.677z M114.17,241.68
		c6.67-0.054,13.005,0.052,16.54-0.534c-2.752-1.338-1.732-6.449-5.336-6.936C121.424,236.485,118.006,239.292,114.17,241.68z
		 M195.798,236.877c-7.428-0.318-16.649-1.327-21.875,1.602c13.765-1.271,22.129,0.985,37.88-0.533
		C207.028,237.994,201.476,237.122,195.798,236.877z M148.848,237.412c-1.137,0.099-3.54-0.017-4.8,1.601
		c3.822-0.268,8.283,0.104,10.67-1.601C152.463,238.32,150.93,237.23,148.848,237.412z M166.454,239.012
		c-3.64,0.084-6.694,0.103-9.069,1.067c4.396,1.623,11.757-0.448,14.938,0C171.531,237.073,168.229,238.97,166.454,239.012z
		 M40.546,283.828c-2.94,3.282-10.955,1.492-13.871,4.8c6.978,0.315,10.583,4.001,17.073,4.803c1.525-2.921,4.221-4.67,4.268-9.07
		C45.573,282.368,43.007,285.024,40.546,283.828z"/>
</g>
</svg>
