<?xml version="1.0" encoding="UTF-8" standalone="no"?>
<!-- Created with Inkscape (http://www.inkscape.org/) -->
<svg
   xmlns:dc="http://purl.org/dc/elements/1.1/"
   xmlns:cc="http://web.resource.org/cc/"
   xmlns:rdf="http://www.w3.org/1999/02/22-rdf-syntax-ns#"
   xmlns:svg="http://www.w3.org/2000/svg"
   xmlns="http://www.w3.org/2000/svg"
   xmlns:sodipodi="http://inkscape.sourceforge.net/DTD/sodipodi-0.dtd"
   xmlns:inkscape="http://www.inkscape.org/namespaces/inkscape"
   width="410pt"
   height="380pt"
   id="svg2"
   sodipodi:version="0.32"
   inkscape:version="0.43"
   version="1.0"
   sodipodi:docbase="C:\foo\wikipedia\transfer"
   sodipodi:docname="christmas_flower.svg">
  <defs
     id="defs4" />
  <sodipodi:namedview
     id="base"
     pagecolor="#ffffff"
     bordercolor="#666666"
     borderopacity="1.0"
     inkscape:pageopacity="0.0"
     inkscape:pageshadow="2"
     inkscape:zoom="0.99397181"
     inkscape:cx="260.07626"
     inkscape:cy="229.94548"
     inkscape:document-units="px"
     inkscape:current-layer="layer1"
     inkscape:window-width="1024"
     inkscape:window-height="721"
     inkscape:window-x="-4"
     inkscape:window-y="-4" />
  <metadata
     id="metadata7">
    <rdf:RDF>
      <cc:Work
         rdf:about="">
        <dc:format>image/svg+xml</dc:format>
        <dc:type
           rdf:resource="http://purl.org/dc/dcmitype/StillImage" />
        <cc:license
           rdf:resource="http://web.resource.org/cc/PublicDomain" />
      </cc:Work>
      <cc:License
         rdf:about="http://web.resource.org/cc/PublicDomain">
        <cc:permits
           rdf:resource="http://web.resource.org/cc/Reproduction" />
        <cc:permits
           rdf:resource="http://web.resource.org/cc/Distribution" />
        <cc:permits
           rdf:resource="http://web.resource.org/cc/DerivativeWorks" />
      </cc:License>
    </rdf:RDF>
  </metadata>
  <g
     inkscape:label="Layer 1"
     inkscape:groupmode="layer"
     id="layer1">
    <path
       id="text1307"
       style="font-size:1370.74780273px;font-style:normal;font-weight:normal;line-height:125%;fill:#000000;fill-opacity:1;stroke:none;stroke-width:1px;stroke-linecap:butt;stroke-linejoin:miter;stroke-opacity:1;font-family:Bitstream Vera Sans"
       d="M 509.67071,254.99988 C 509.6702,314.13536 488.43809,364.93515 445.97431,407.3994 C 403.50964,449.8636 352.55257,471.09571 293.10295,471.0958 C 251.26754,471.09571 213.04974,459.77192 178.44944,437.12439 C 144.79243,415.4204 118.21298,385.53816 98.710986,347.47761 C 97.138137,343.38849 94.464463,337.25477 90.689955,329.07643 C 89.117117,326.24553 85.342519,322.47093 79.366151,317.75262 C 73.704177,313.03444 69.457755,308.15892 66.626872,303.12604 C 62.223109,293.68962 55.303014,279.84943 45.866564,261.60543 L 45.866564,259.2463 C 50.584767,262.07737 55.460289,265.06559 60.493144,268.21098 C 65.525882,271.04204 70.715954,272.45751 76.063375,272.45741 C 77.321499,272.45751 77.950599,271.98569 77.950676,271.04193 C 77.950599,269.78384 77.950599,267.73927 77.950676,264.9082 L 77.950676,263.0209 C 77.950599,256.10092 74.647826,251.53995 68.042347,249.33797 C 57.347587,246.19261 50.742042,243.51893 48.22569,241.31695 C 44.765596,238.80069 41.462823,235.18336 38.317362,230.46497 C 33.913628,224.80322 32.340879,220.71407 33.59911,218.19751 C 31.08268,215.05218 29.352656,209.70483 28.409033,202.15546 C 26.207158,200.89743 24.477134,196.96556 23.218956,190.35983 C 19.129787,187.21452 12.681517,182.65355 3.8741252,176.6769 C 4.8177722,175.73345 10.479668,175.26163 20.859831,175.26142 C 23.690759,175.26163 26.049883,175.10435 27.937208,174.7896 C 27.937182,173.84615 27.622632,172.43068 26.993558,170.54317 C 26.364433,168.65608 26.049883,167.24061 26.049907,166.29674 C 26.049883,160.32051 28.723556,153.55769 34.070935,146.00826 C 34.385452,146.0085 39.260974,140.3466 48.697515,129.02256 C 53.415715,120.21541 61.751285,107.63342 73.704249,91.276545 C 70.558679,88.131335 65.997707,86.558586 60.021319,86.558293 C 57.504862,86.558586 53.415715,90.018634 47.753865,96.938447 C 41.148273,104.80247 36.587301,109.36344 34.070935,110.62137 L 31.711809,110.62137 C 31.08268,110.30709 30.76813,109.52072 30.768159,108.26225 C 30.76813,110.77892 32.655429,106.5325 36.430061,95.522971 C 36.744576,92.692307 38.317325,88.60316 41.148313,83.255517 C 42.091922,82.312164 48.382918,77.751192 60.021319,69.572587 C 67.570456,64.540101 71.345053,58.09183 71.345123,50.227756 C 71.345053,42.36434 76.0633,36.702444 85.499878,33.24205 C 93.048989,30.725998 100.59819,28.052324 108.14749,25.221022 C 108.46193,24.906826 111.29288,22.233153 116.64034,17.199994 C 119.47118,14.369408 123.24577,12.953934 127.96415,12.953568 C 135.51322,12.953934 141.01784,15.942157 144.47803,21.918246 C 144.79243,21.604054 144.94971,20.974954 144.94985,20.030945 C 144.94971,12.796659 139.91691,10.280261 129.85145,12.481742 C 129.22222,12.16756 128.90767,11.381185 128.9078,10.122616 C 128.90767,5.7192887 133.15409,3.5174402 141.64708,3.5170641 C 146.05063,3.5174402 150.29706,4.9329142 154.38636,7.7634906 C 158.47535,10.280261 161.9354,11.53846 164.76651,11.538092 C 165.71,11.53846 167.12547,11.381185 169.01294,11.066267 C 170.90007,10.437536 172.31554,10.122986 173.25936,10.122616 C 180.80839,10.122986 186.15573,13.111209 189.30142,19.087295 C 195.90678,14.998508 202.6696,12.953934 209.5899,12.953568 C 210.21879,12.953934 216.82434,14.526683 229.40656,17.671819 C 241.98832,20.503129 248.43659,21.918603 248.75139,21.918246 L 248.75139,24.749197 C 247.49294,24.435002 246.23474,24.277727 244.97679,24.277372 C 238.371,24.277727 232.86638,27.423225 228.46291,33.713875 L 244.97679,33.713875 C 249.69479,29.625073 255.98579,27.5805 263.84979,27.580148 C 267.93868,27.5805 272.1851,28.681424 276.58907,30.882924 C 280.9925,32.770571 283.03707,33.714221 282.7228,33.713875 C 282.72252,33.714221 284.60982,32.770571 288.3847,30.882924 C 292.47356,28.681424 296.24816,27.5805 299.70851,27.580148 C 303.79736,27.5805 310.08835,29.467798 318.58151,33.24205 C 320.15395,34.500595 322.67034,36.545169 326.13072,39.375777 C 331.47774,40.319766 337.92601,41.577966 345.47555,43.150378 C 359.94449,46.610762 373.15559,51.329009 385.10886,57.305133 C 423.7981,76.492993 454.15216,103.54427 476.17112,138.45906 C 498.50368,173.05978 509.6702,211.90668 509.67071,254.99988 M 323.29977,42.678553 C 320.78305,37.646093 316.6939,35.129695 311.03231,35.12935 C 308.5156,35.129695 305.52738,35.916069 302.06763,37.488476 C 307.72923,41.263416 313.70567,42.99344 319.99699,42.678553 L 323.29977,42.678553 M 334.62357,66.741636 C 333.05049,62.023702 331.32046,57.46273 329.43349,53.058707 C 326.91677,47.397137 323.45672,44.566189 319.05334,44.565854 C 317.79482,44.566189 316.53662,44.880738 315.27874,45.509504 C 318.42392,47.082587 324.87219,54.159957 334.62357,66.741636 M 336.03904,69.572587 L 336.03904,67.685287 L 334.62357,67.685287 L 334.62357,69.572587 L 336.03904,69.572587 M 307.25771,32.770225 C 306.31375,31.197822 303.95463,30.411448 300.18033,30.411099 L 296.40573,30.411099 C 294.83269,30.411448 292.31629,31.512372 288.85653,33.713875 C 295.46179,35.601519 298.92183,36.545169 299.23668,36.544826 C 299.86548,36.545169 302.53916,35.28697 307.25771,32.770225 M 336.03904,80.896391 C 333.52231,66.11285 325.97312,54.631782 313.39144,46.453154 L 313.39144,50.699581 C 313.39112,56.676356 315.90752,62.180977 320.94064,67.213462 C 326.28767,71.932021 331.32046,76.492993 336.03904,80.896391 M 316.69421,67.685287 C 315.12115,62.023702 313.39112,56.204531 311.50414,50.227756 C 309.61653,43.937089 305.52738,40.319766 299.23668,39.375777 L 298.76486,43.150378 C 301.28096,58.878204 307.2574,67.056499 316.69421,67.685287 M 303.48311,62.49521 C 298.45001,52.429934 296.24816,44.566189 296.87756,38.903952 C 294.04631,37.331543 292.31629,36.545169 291.68748,36.544826 L 286.02558,36.544826 L 286.02558,44.565854 C 286.02529,47.082587 287.59804,50.69991 290.74383,55.417832 C 294.20359,60.136404 297.19181,62.495527 299.70851,62.49521 L 303.48311,62.49521 M 280.36368,37.488476 C 275.64515,34.34332 270.9269,32.770571 266.20892,32.770225 L 262.90614,32.770225 C 261.33313,32.770571 258.65946,33.714221 254.88512,35.601176 C 257.71581,38.117918 260.07493,39.376117 261.96249,39.375777 C 264.16408,39.376117 267.30958,39.061567 271.399,38.432127 C 275.48787,37.803368 278.4761,37.488818 280.36368,37.488476 M 276.58907,59.192434 C 264.00681,44.094364 251.73936,36.545169 239.78671,36.544826 C 227.51903,36.545169 221.38531,39.376117 221.38553,45.037679 L 221.38553,47.396805 C 224.21626,45.824388 228.30541,45.038013 233.65298,45.037679 C 247.80749,45.038013 262.11951,49.75626 276.58907,59.192434 M 280.8355,65.797986 C 263.84953,52.901758 249.22297,46.453487 236.95576,46.453154 C 228.46268,46.453487 222.64351,47.711687 219.49823,50.227756 C 213.52156,54.946332 209.90424,57.620005 208.64625,58.248783 C 204.87145,59.507304 201.09685,60.765503 197.32245,62.023385 C 192.28945,63.911001 189.93033,66.899224 190.24507,70.988063 L 190.24507,71.459888 C 194.01948,67.056499 199.83865,64.85465 207.7026,64.854336 C 212.10609,64.85465 216.98161,66.270125 222.32918,69.100762 C 227.67631,71.617471 231.13635,72.87567 232.70933,72.875364 C 241.20195,72.87567 248.43659,72.246571 254.41329,70.988063 C 258.18764,69.730172 261.80496,68.471973 265.26527,67.213462 C 270.2978,65.326475 275.48787,64.85465 280.8355,65.797986 M 296.87756,108.26225 C 286.81167,84.671288 270.76963,72.87567 248.75139,72.875364 C 245.29109,72.87567 240.73012,73.347495 235.06846,74.290839 C 228.14813,75.863893 223.58716,76.650268 221.38553,76.649965 C 234.5964,80.424865 247.80749,84.042188 261.01884,87.501944 C 275.80242,91.591383 287.75532,98.511479 296.87756,108.26225 M 236.48393,22.861896 C 233.3382,22.233153 231.29363,21.918603 230.35021,21.918246 C 221.22803,21.918603 210.84789,26.63685 199.20975,36.073001 C 187.88576,45.509838 182.06659,54.789057 181.75222,63.910685 C 186.15573,60.765503 191.3458,59.035479 197.32245,58.720609 C 203.2987,58.09183 208.17422,56.676356 211.94903,54.474182 C 215.72341,51.958109 219.02619,46.768037 221.85735,38.903952 C 225.00263,31.040547 229.87815,25.693201 236.48393,22.861896 M 226.57561,20.50277 C 219.02619,17.986731 213.52156,16.728532 210.06173,16.728169 C 188.35758,16.728532 177.50561,31.512372 177.50579,61.079734 C 177.50561,62.338252 178.13471,63.124627 179.39309,63.43886 C 180.33656,54.002683 186.15573,44.880738 196.85062,36.073001 C 206.60147,27.895049 216.50979,22.704978 226.57561,20.50277 M 305.84223,124.3043 C 298.92183,110.46437 287.91259,100.39878 272.81447,94.107496 C 258.34491,90.018634 243.71835,86.086762 228.93473,82.311867 C 227.99086,81.997614 223.58716,80.26759 215.72363,77.12179 C 209.74697,74.605694 205.50055,73.347495 202.98435,73.347189 C 200.1532,73.347495 197.0077,74.291144 193.54784,76.17814 C 195.43495,76.178443 197.95135,76.492993 201.09705,77.12179 C 204.24235,77.751192 210.69062,82.626714 220.44188,91.74837 C 221.07076,91.748658 221.54258,91.591383 221.85735,91.276545 C 222.48623,90.962283 223.11533,90.805009 223.74466,90.80472 C 235.69733,90.805009 245.44837,94.894156 252.99782,103.07217 C 257.08671,108.10525 261.17586,112.98077 265.26527,117.69875 C 266.83776,118.32811 272.02783,118.64266 280.8355,118.6424 C 287.44077,118.64266 295.77634,120.52996 305.84223,124.3043 M 224.21648,72.403538 C 218.55436,68.629248 213.04974,66.741949 207.7026,66.741636 C 205.50055,66.741949 201.09685,68.471973 194.4915,71.931713 C 197.6368,70.988371 200.93957,70.516547 204.39982,70.516238 C 205.97237,70.516547 208.33149,70.988371 211.4772,71.931713 C 214.62249,72.87567 216.98161,73.347495 218.55458,73.347189 C 219.18346,73.347495 220.12711,73.19022 221.38553,72.875364 C 222.64351,72.56112 223.58716,72.403846 224.21648,72.403538 M 185.52682,23.333721 C 185.52663,17.043082 181.75204,13.897584 174.20301,13.897218 C 172.94464,13.897584 170.74279,14.054858 167.59746,14.369043 C 164.76635,14.683958 162.5645,14.841233 160.99191,14.840868 C 168.22639,23.648627 171.84372,37.803368 171.84389,57.305133 C 171.84372,58.563655 172.15827,59.821854 172.78754,61.079734 C 174.04557,61.080053 175.14649,60.765503 176.09031,60.136084 C 176.09014,55.732706 177.66289,48.655336 180.80857,38.903952 C 183.95388,28.838699 185.52663,23.648627 185.52682,23.333721 M 194.4915,61.079734 L 191.18872,61.079734 C 188.98668,62.023702 187.88576,63.124627 187.88594,64.382511 L 188.82959,66.269811 C 190.08761,65.641025 191.9749,63.911001 194.4915,61.079734 M 213.83633,89.861069 C 213.52156,88.91771 211.79154,87.187686 208.64625,84.670993 C 205.50055,82.154889 203.45597,80.89669 202.51252,80.896391 L 200.1534,80.896391 L 200.62522,81.840042 C 200.62502,83.098539 199.99592,84.514013 198.73792,86.086468 C 197.47953,87.659511 196.85043,88.760435 196.85062,89.389244 C 200.31047,89.704084 204.39962,90.018634 209.11808,90.332895 L 210.53355,90.332895 L 213.83633,89.861069 M 269.98352,139.87453 C 264.00681,117.54174 256.14306,103.85882 246.39226,98.825748 C 241.98832,96.93873 226.41811,94.894156 199.68157,92.69202 C 232.39455,107.47615 255.82851,123.20364 269.98352,139.87453 M 171.37206,47.86863 C 171.37189,39.061567 168.38367,29.939623 162.40738,20.50277 C 156.43078,10.752085 149.51068,5.8765636 141.64708,5.8761899 C 141.33239,5.8765636 139.44509,6.3483883 135.98517,7.2916654 C 142.27604,8.2356871 146.05063,11.695735 147.30898,17.671819 C 147.30883,17.672181 147.30883,23.019528 147.30898,33.713875 C 147.30883,40.634316 149.66796,46.610762 154.38636,51.643231 C 162.87905,60.136404 167.44002,64.697376 168.06929,65.326161 C 168.06912,64.068276 168.69822,61.080053 169.95659,56.361483 C 170.90007,52.587208 171.37189,49.75626 171.37206,47.86863 M 188.82959,73.347189 C 188.82941,72.089296 188.20031,70.516547 186.94229,68.628937 C 185.68391,66.427399 184.58298,65.326475 183.63952,65.326161 C 180.17929,65.326475 178.44926,67.842873 178.44944,72.875364 C 178.44926,74.448419 179.07836,75.549343 180.33674,76.17814 C 180.33656,76.492993 180.33656,77.908467 180.33674,80.424566 L 180.80857,81.368217 C 181.12294,79.166666 182.53841,77.908467 185.05499,77.593615 C 187.57121,76.964818 188.82941,75.549343 188.82959,73.347189 M 197.32245,82.311867 C 197.32225,81.053965 196.85043,80.110316 195.90697,79.480916 C 195.27768,78.852116 194.33403,78.537567 193.07602,78.537266 C 188.98668,78.537567 186.94211,79.953041 186.94229,82.783692 C 186.94211,85.300387 188.35758,86.558586 191.18872,86.558293 C 195.27768,86.558586 197.32225,85.143112 197.32245,82.311867 M 280.8355,167.24039 C 273.60058,147.42397 261.33313,131.53921 244.03314,119.58605 C 226.10356,109.83527 208.33149,100.08423 190.71689,90.332895 C 186.31301,87.816785 184.74026,84.199463 185.99864,79.480916 C 183.79661,80.110316 182.69568,81.21124 182.69587,82.783692 C 182.69568,83.413088 182.85296,84.671288 183.16769,86.558293 C 183.79661,88.131335 184.11116,89.389534 184.11134,90.332895 C 194.17675,93.164132 202.98415,103.70155 210.53355,121.94518 C 216.19524,125.40548 223.27261,132.48285 231.76568,143.17731 C 255.35669,147.89579 271.71328,155.91681 280.8355,167.24039 M 178.44944,66.741636 C 178.44926,64.540101 177.03379,63.439176 174.20301,63.43886 C 173.25919,63.439176 172.31554,64.068276 171.37206,65.326161 C 170.42824,66.270125 169.64187,66.899224 169.01294,67.213462 L 169.01294,72.875364 C 171.52917,71.932021 173.88829,71.617471 176.09031,71.931713 C 176.09014,71.302921 176.40469,70.516547 177.03396,69.572587 C 177.97744,68.314698 178.44926,67.371049 178.44944,66.741636 M 160.04826,61.079734 C 158.47535,59.192754 155.95895,56.833631 152.49906,54.002357 C 153.128,59.035479 153.91438,62.810077 154.85818,65.326161 C 155.80168,64.068276 157.5317,62.652802 160.04826,61.079734 M 177.50579,79.480916 C 177.50561,76.021168 176.09014,74.291144 173.25936,74.290839 C 168.85549,74.291144 166.65365,75.863893 166.65381,79.009091 C 166.65365,80.26759 166.9682,81.053965 167.59746,81.368217 L 168.06929,81.368217 C 170.58552,81.368515 172.47282,82.626714 173.73119,85.142818 C 176.24741,81.053965 177.50561,79.166666 177.50579,79.480916 M 166.65381,71.459888 C 166.65365,67.056499 164.92362,64.85465 161.46373,64.854336 C 157.68898,64.85465 155.80168,67.213774 155.80183,71.931713 C 155.80168,72.87567 156.11623,74.133869 156.74548,75.706315 C 157.37443,75.706618 158.31808,75.863893 159.57643,76.17814 C 160.83447,76.492993 161.77812,76.650268 162.40738,76.649965 C 165.23817,76.650268 166.65365,74.920244 166.65381,71.459888 M 182.69587,88.917419 C 182.69568,87.659511 182.38114,86.715861 181.75222,86.086468 L 179.86492,87.973769 C 179.86474,86.715861 180.33656,85.614937 181.28039,84.670993 L 179.86492,83.727342 C 175.46104,85.300387 173.25919,86.873136 173.25936,88.445594 L 173.25936,92.220195 C 175.46104,93.478682 177.03379,94.107781 177.97761,94.107496 C 181.12294,94.107781 182.69568,92.377758 182.69587,88.917419 M 206.75895,118.17058 C 206.44419,115.02534 203.77052,110.30709 198.73792,104.01582 C 193.70493,97.725104 189.61578,94.579606 186.47047,94.579321 L 183.63952,94.579321 C 184.26843,99.297853 187.09938,104.17337 192.13237,109.2059 C 197.16498,114.23897 202.0405,117.22719 206.75895,118.17058 M 153.44271,75.706315 L 153.44271,72.875364 C 153.44255,71.932021 152.18435,65.641025 149.6681,54.002357 C 147.46611,42.04979 146.20791,34.186045 145.8935,30.411099 C 141.80421,21.289504 135.51322,16.728532 127.0205,16.728169 C 122.61667,16.728532 117.26933,20.503129 110.97844,28.051973 C 121.04393,28.681424 129.69404,34.815145 136.92883,46.453154 C 142.59059,56.204531 148.09521,65.955575 153.44271,75.706315 M 171.37206,88.917419 C 171.37189,87.030411 170.42824,84.985837 168.54111,82.783692 C 164.4518,84.671288 162.40722,87.344961 162.40738,90.80472 C 162.40722,93.950507 163.97997,95.523255 167.12564,95.522971 C 169.95642,95.523255 171.37189,93.321407 171.37206,88.917419 M 163.35103,82.783692 C 163.35087,79.638491 161.77812,78.065742 158.63278,78.06544 C 154.85803,78.065742 152.97073,80.26759 152.97088,84.670993 C 152.97073,87.502236 154.85803,88.91771 158.63278,88.917419 C 161.77812,88.91771 163.35087,86.873136 163.35103,82.783692 M 233.65298,167.24039 C 233.65275,153.40042 231.13635,143.33482 226.10378,137.04358 C 222.64351,132.32558 214.15066,126.34913 200.62522,119.11423 C 196.85043,117.22719 192.604,113.45259 187.88594,107.79042 C 183.16751,101.81425 179.55019,97.882379 177.03396,95.994797 C 180.17929,102.28607 190.55943,117.06991 208.17443,140.34636 C 221.38531,157.01774 228.30541,171.80158 228.93473,184.69793 C 232.08,175.26163 233.65275,169.44246 233.65298,167.24039 M 178.92126,116.28328 C 178.92109,108.4198 176.71924,101.4997 172.31571,95.522971 C 171.05734,96.152355 169.48459,97.410554 167.59746,99.297573 C 169.48459,102.1288 171.21462,107.7907 172.78754,116.28328 C 174.36012,124.77638 176.09014,130.12373 177.97761,132.32533 C 178.60654,121.63089 178.92109,116.28354 178.92126,116.28328 M 152.97088,78.06544 C 149.19613,74.920244 145.26426,68.943798 141.17525,60.136084 C 137.08596,50.07081 133.46864,43.307989 130.32327,39.847602 C 124.9758,33.556946 117.4266,30.411448 107.67566,30.411099 C 100.12636,30.411448 93.048989,32.141472 86.443528,35.601176 C 78.265149,39.690667 74.176002,45.038013 74.176074,51.643231 C 74.176002,52.901758 74.647826,53.845408 75.59155,54.474182 C 76.849675,51.329009 78.265149,48.183511 79.837976,45.037679 C 82.354296,40.005217 86.128894,37.488818 91.16178,37.488476 C 104.37279,37.488818 115.69658,43.307989 125.1332,54.946007 C 136.14232,68.157423 145.42153,75.863893 152.97088,78.06544 M 115.22487,49.75593 C 107.04646,43.779814 100.75546,40.791591 96.351857,40.791252 C 89.117117,40.791591 84.39887,43.465264 82.197102,48.81228 C 89.746216,46.925312 94.621738,45.981663 96.823682,45.981329 C 101.54184,45.981663 107.67556,47.239862 115.22487,49.75593 M 227.04743,189.41618 C 227.04721,175.57618 221.54258,160.94961 210.53355,145.53644 C 200.7823,132.95468 190.87398,120.37269 180.80857,107.79042 L 180.80857,113.45233 C 180.49384,135.15653 183.16751,149.94037 188.82959,157.80389 C 189.14396,158.11866 196.06405,165.35331 209.5899,179.50785 C 217.76799,188.00089 222.48623,196.65101 223.74466,205.45823 C 225.94628,198.22376 227.04721,192.87642 227.04743,189.41618 M 137.40065,87.030118 L 137.40065,85.614643 L 123.2459,81.840042 L 123.2459,83.255517 L 137.40065,87.030118 M 162.87921,105.4313 L 162.87921,96.938447 C 155.6444,100.08423 152.18435,110.46437 152.49906,128.07891 C 159.419,115.18262 162.87905,107.63342 162.87921,105.4313 M 151.55541,87.501944 C 149.03886,86.558586 145.57881,84.828562 141.17525,82.311867 C 134.25502,74.762969 127.33492,67.371049 120.41494,60.136084 C 112.55108,52.587208 103.42914,48.812611 93.049081,48.81228 C 88.959842,48.812611 84.39887,50.857185 79.366151,54.946007 C 74.647826,58.720929 71.502328,62.495527 69.929648,66.269811 C 74.962376,64.697376 80.152448,63.911001 85.499878,63.910685 C 96.509037,63.911001 109.72013,68.000148 125.1332,76.17814 C 140.54601,84.042188 148.25248,87.97406 148.25263,87.973769 C 148.25248,87.97406 149.35341,87.816785 151.55541,87.501944 M 500.70603,253.11257 C 500.70553,227.94872 494.72908,200.42561 482.77667,170.54317 C 471.13785,141.6048 450.53484,115.18262 420.96757,91.276545 C 391.39947,67.056499 361.51724,53.216308 331.32079,49.75593 C 337.61146,63.281901 340.75696,76.807543 340.7573,90.332895 C 340.75696,92.535032 340.12786,93.950507 338.87,94.579321 C 338.55511,92.377758 337.61146,89.23226 336.03904,85.142818 C 332.89321,80.424865 327.54587,76.178443 319.99699,72.403538 C 312.76203,68.314698 306.6283,66.270125 301.59581,66.269811 C 298.13546,66.270125 294.36086,63.911001 290.272,59.192434 C 286.49712,54.474507 284.60982,50.38536 284.6101,46.924979 C 281.14977,46.610762 276.27425,46.925312 269.98352,47.86863 C 273.4433,52.587208 279.57702,58.878204 288.3847,66.741636 C 290.90081,67.685599 294.51814,69.415622 299.23668,71.931713 L 298.29303,72.875364 C 286.65439,69.415622 279.41975,67.685599 276.58907,67.685287 C 277.2179,67.685599 272.65693,68.471973 262.90614,70.044413 C 275.48787,73.19022 286.18257,82.469439 294.99026,97.882097 C 301.91006,111.09347 308.98743,124.14728 316.22239,137.04358 L 314.80691,137.51541 C 307.8865,126.50641 293.88904,121.00179 272.81447,121.00153 C 272.1851,121.00179 271.24145,121.00179 269.98352,121.00153 C 268.72505,121.31634 267.7814,121.63089 267.15257,121.94518 C 268.09595,125.09093 269.35415,129.96646 270.92717,136.57176 C 271.556,138.14475 274.54423,145.22212 279.89185,157.80389 C 284.60982,168.81336 286.96894,175.26163 286.96923,177.14872 C 286.96894,178.09257 286.49712,178.72167 285.55375,179.03602 C 281.46432,170.85793 274.38695,163.62328 264.32162,157.33207 C 254.88486,151.98494 245.29109,148.52489 235.54028,146.95191 C 235.8546,150.09764 236.01188,153.55769 236.01211,157.33207 C 236.01188,164.88148 234.75368,174.1607 232.23751,185.16975 C 227.83358,202.47018 225.47446,211.59213 225.16013,212.53561 C 228.9345,211.90668 234.12458,210.33393 240.73036,207.81736 C 241.35922,207.50298 242.61742,206.08751 244.50496,203.57093 C 246.70657,201.05471 248.12204,199.79651 248.75139,199.79633 C 249.06569,199.79651 249.38024,199.79651 249.69504,199.79633 L 249.69504,202.15546 C 249.69479,204.98658 248.12204,210.01938 244.97679,217.25386 C 242.1456,224.17412 239.6292,228.89237 237.42759,231.40862 C 241.20195,232.98151 244.66199,236.59884 247.80774,242.2606 C 252.21119,250.12448 255.04214,254.68545 256.30059,255.94353 L 255.35694,256.88718 C 250.32389,254.68545 246.54929,253.7418 244.03314,254.05622 C 244.66199,256.2582 246.54929,259.24642 249.69504,263.0209 L 248.75139,264.43638 C 246.86384,263.49284 243.87562,262.23465 239.78671,260.66178 C 242.61742,269.15474 244.0329,274.03026 244.03314,275.28836 C 244.0329,275.60301 243.87562,275.91756 243.56131,276.23201 C 242.93197,276.23211 239.6292,274.18754 233.65298,270.09828 L 230.82203,270.09828 L 230.82203,274.81653 C 230.8218,276.70394 231.60818,278.43396 233.18116,280.00661 L 230.82203,280.47843 C 228.9345,277.01849 225.78901,273.87299 221.38553,271.04193 C 220.75621,274.50209 219.34074,279.69216 217.1391,286.61216 C 216.19524,282.83766 213.36429,277.64758 208.64625,271.04193 C 206.75874,274.81664 204.08507,278.59123 200.62522,282.36573 C 200.62502,278.27668 199.5241,272.45751 197.32245,264.9082 L 194.96332,264.9082 C 186.78483,264.90832 178.29199,267.42472 169.48476,272.45741 L 169.01294,271.04193 C 171.21462,265.38014 174.98921,258.1455 180.33674,249.33797 C 182.22386,247.4508 185.05481,246.03533 188.82959,245.09155 C 192.604,243.83348 194.96313,242.88983 195.90697,242.2606 C 197.79408,240.37343 198.73772,238.17159 198.73792,235.65504 C 198.73772,229.67874 195.90678,223.7023 190.24507,217.72569 C 184.89753,211.7494 179.39291,208.28936 173.73119,207.34553 C 170.90007,210.80575 168.06912,215.524 165.23834,221.50029 C 161.77812,229.36419 159.57627,234.08244 158.63278,235.65504 C 158.00353,227.47689 156.2735,216.93947 153.44271,204.04276 L 150.13993,203.57093 C 135.67049,202.94201 121.98757,209.8621 109.09114,224.33124 C 96.509037,238.80069 90.218041,253.58453 90.21813,268.6828 C 90.218041,270.57021 90.375316,272.30024 90.689955,273.87288 C 91.948065,274.18754 96.666312,274.34481 104.84471,274.34471 C 120.88665,274.34481 132.05317,280.63581 138.3443,293.21771 C 138.65871,294.79055 139.44509,297.14967 140.70343,300.29509 C 145.42153,307.21527 147.78066,313.66354 147.7808,319.63992 C 147.78066,322.15638 147.46611,326.08825 146.83715,331.43555 C 146.52246,336.78295 146.36518,340.71482 146.36533,343.23118 C 146.36518,362.7333 150.76888,381.76357 159.57643,400.32203 C 169.32732,421.08229 188.98668,437.12433 218.55458,448.44819 C 242.7747,457.57007 268.56778,462.13104 295.93391,462.13112 C 352.23802,462.13104 400.36414,441.37075 440.31241,399.8502 C 480.57434,358.32961 500.70553,309.41711 500.70603,253.11257 M 244.03314,209.70466 C 239.0001,212.85033 233.81003,214.42308 228.46291,214.42291 C 227.51903,214.42308 225.31718,216.7822 221.85735,221.50029 C 218.08254,227.16234 216.03796,230.15057 215.72363,230.46497 L 218.08275,230.46497 C 222.80078,230.46512 227.83358,228.10599 233.18116,223.38759 C 238.84282,218.6695 242.46015,214.10853 244.03314,209.70466 M 241.67401,218.66934 C 235.38278,225.58959 229.40633,229.83602 223.74466,231.40862 L 229.40656,231.40862 C 235.06823,231.40877 239.15737,227.16234 241.67401,218.66934 M 221.38553,210.17648 C 221.38531,201.36926 217.29616,192.24732 209.11808,182.81062 C 201.88322,175.26163 194.64858,167.71243 187.41412,160.16302 C 187.72848,162.05054 187.88576,163.93783 187.88594,165.82492 C 187.88576,178.72167 184.26843,190.98912 177.03396,202.62728 C 181.12294,204.51476 186.78483,207.81753 194.01967,212.53561 C 204.08507,221.34317 210.06152,225.74687 211.94903,225.74671 C 218.23981,225.74687 221.38531,220.5568 221.38553,210.17648 M 185.05499,169.1277 C 185.05481,153.71497 181.28021,141.44752 173.73119,132.32533 C 173.73102,134.21288 173.73102,137.35838 173.73119,141.76184 C 174.04557,145.85122 174.20284,148.99672 174.20301,151.19834 C 174.20284,160.00596 171.21462,180.92352 165.23834,213.95109 C 169.95642,209.233 174.36012,202.31291 178.44944,193.19078 C 182.85296,183.75447 185.05481,175.73345 185.05499,169.1277 M 129.85145,80.424566 C 112.86563,70.359272 96.823587,65.326475 81.725277,65.326161 C 77.321499,65.326475 70.244129,68.000148 60.493144,73.347189 C 50.742042,78.694841 44.765596,83.255813 42.563788,87.030118 C 40.990998,89.546809 39.418249,95.208706 37.845537,104.01582 C 40.990998,99.612403 44.136496,95.208706 47.28204,90.80472 C 50.742042,86.086762 55.145739,83.727638 60.493144,83.727342 C 62.694934,83.727638 65.840432,84.356738 69.929648,85.614643 C 74.333276,86.873136 77.478774,87.502236 79.366151,87.501944 C 82.197021,87.502236 86.600718,86.558586 92.577256,84.670993 C 98.868156,82.469439 103.74369,81.368515 107.20384,81.368217 C 107.83283,81.368515 108.77648,81.52579 110.03479,81.840042 C 111.60743,82.154889 112.86563,82.312164 113.80939,82.311867 C 115.38203,82.312164 117.89843,81.997614 121.35859,81.368217 C 124.81852,80.739415 127.64947,80.424865 129.85145,80.424566 M 173.25936,150.25469 C 173.25919,144.59302 172.47282,136.41473 170.90024,125.71978 C 169.32732,113.76714 167.59729,106.06067 165.71016,102.60035 C 165.0809,110.46437 160.99175,119.90086 153.44271,130.90986 C 146.20791,141.91935 142.59059,151.35584 142.59073,159.21937 C 142.59059,165.51058 145.42153,175.73345 151.08358,189.888 C 156.74533,204.04293 159.89082,214.8949 160.52008,222.44394 C 169.01277,192.87642 173.25919,168.81336 173.25936,150.25469 M 249.69504,251.6971 C 244.0329,242.26073 240.41557,237.07066 238.84306,236.12687 C 237.27007,234.86881 231.4509,233.92516 221.38553,233.29592 C 226.41811,246.50716 234.91095,252.64088 246.86409,251.6971 L 249.69504,251.6971 M 243.08949,259.2463 C 242.46015,257.04457 241.04467,254.84272 238.84306,252.64075 L 236.01211,252.64075 L 236.01211,253.11257 C 236.01188,254.68545 236.79825,255.94365 238.37124,256.88718 C 239.94375,257.5164 241.5165,258.30277 243.08949,259.2463 M 220.9137,236.12687 L 214.30815,232.82409 L 213.83633,233.76774 L 220.44188,237.07052 L 220.9137,236.12687 M 127.96415,87.973769 C 119.47118,84.514013 112.55108,82.783989 107.20384,82.783692 C 93.992639,82.783989 82.511571,88.28861 72.760599,99.297573 C 68.67138,103.70155 61.436735,114.71079 51.056641,132.32533 C 57.033038,129.49463 65.525882,124.77638 76.5352,118.17058 C 88.173467,109.04889 96.194487,103.07245 100.59829,100.24122 C 110.66378,93.635957 119.78573,89.546809 127.96415,87.973769 M 158.16096,91.276545 L 156.27366,89.389244 C 154.07165,90.647734 151.08343,93.006857 147.30898,96.466622 C 144.16334,100.8706 138.81599,106.5325 131.26692,113.45233 C 105.78826,126.97823 93.048989,144.59302 93.049081,166.29674 C 93.048989,170.07155 93.835364,175.57618 95.408207,182.81062 C 96.980862,191.30367 98.553606,196.33646 100.12646,197.90903 C 106.73191,155.44499 126.07672,119.90086 158.16096,91.276545 M 160.99191,93.163846 C 145.89336,101.97152 132.36772,118.79994 120.41494,143.64914 C 109.09103,165.98241 102.64276,186.74269 101.07011,205.93006 C 104.53006,200.89743 111.60743,194.29189 122.30225,186.1134 C 132.05317,178.5644 138.50144,171.48703 141.64708,164.88127 L 141.64708,162.05032 C 141.64694,157.33229 144.00606,148.05307 148.72445,134.21263 C 149.35341,132.64013 150.13978,125.72003 151.08358,113.45233 C 151.71253,105.2743 155.0153,98.511479 160.99191,93.163846 M 213.3645,229.04949 L 212.89268,229.04949 C 210.37607,229.04964 205.81509,226.69052 199.20975,221.97211 C 199.20955,223.23047 199.68137,225.58959 200.62522,229.04949 C 201.88322,232.19514 202.35505,234.86881 202.0407,237.07052 C 202.98415,235.49791 204.71417,233.13879 207.23077,229.99314 L 208.64625,231.40862 C 209.27514,230.77967 210.84789,229.99329 213.3645,229.04949 M 238.84306,269.62646 C 236.01188,251.69723 226.57538,240.21616 210.53355,235.18322 C 213.99339,249.65265 215.88069,257.20185 216.19545,257.83083 C 216.82434,258.46005 224.37353,262.39192 238.84306,269.62646 M 144.0062,89.861069 L 131.73875,89.861069 C 119.78573,89.861359 101.22729,100.08423 76.063375,120.5297 C 67.885006,125.56276 59.706711,130.43828 51.528466,135.15628 C 41.777373,141.13297 35.643652,148.05307 33.127285,155.91659 C 40.990998,146.16577 53.101165,140.9757 69.457823,140.34636 C 86.128894,139.7175 96.823587,137.51565 101.54194,133.74081 C 103.74369,130.91011 107.20373,126.97823 111.92209,121.94518 C 116.32568,119.42904 121.2012,116.59809 126.54867,113.45233 C 128.1213,109.36344 131.42407,103.54427 136.457,95.994797 C 138.02961,94.736881 140.54601,92.692307 144.0062,89.861069 M 228.46291,272.92923 L 228.46291,268.6828 C 228.46268,265.53742 226.10356,263.80739 221.38553,263.49273 L 221.38553,267.73915 C 223.27261,269.62657 225.63173,271.35659 228.46291,272.92923 M 219.97005,262.07725 C 214.93704,259.56097 211.94882,255.78637 211.00538,250.75345 C 210.06152,245.40623 209.27514,240.21616 208.64625,235.18322 L 208.64625,237.07052 C 208.33149,238.64341 208.33149,240.84526 208.64625,243.67607 C 209.27514,246.50716 209.58969,248.55173 209.5899,249.8098 C 209.58969,251.38268 208.64604,253.26998 206.75895,255.4717 C 205.186,257.35912 204.39962,258.46005 204.39982,258.77448 C 204.39962,257.20185 208.48877,263.65012 216.66728,278.11931 C 218.86891,270.57021 219.96984,265.22287 219.97005,262.07725 M 206.75895,248.39432 C 206.75874,246.82171 206.12964,243.20438 204.87165,237.54234 C 202.6696,240.37343 197.79408,244.61986 190.24507,250.28162 C 183.95388,255.31455 179.39291,260.34735 176.56214,265.38003 C 182.85296,264.12194 189.14396,262.86374 195.43515,261.60543 C 202.98415,259.08915 206.75874,254.68545 206.75895,248.39432 M 206.75895,267.26733 C 206.75874,266.32379 205.50055,263.80739 202.98435,259.71813 L 199.68157,263.49273 C 201.25412,265.38014 202.51232,268.52564 203.45617,272.92923 C 205.65782,268.52564 206.75874,266.63834 206.75895,267.26733 M 190.24507,247.45067 L 187.41412,247.45067 C 185.21208,247.4508 182.85296,249.18083 180.33674,252.64075 C 178.13471,256.10092 177.03379,258.93187 177.03396,261.1336 C 181.12294,255.15727 185.52663,250.5963 190.24507,247.45067 M 151.55541,198.38086 C 149.35341,192.71914 146.05063,184.06902 141.64708,172.43047 C 133.78319,179.35077 125.91945,186.11359 118.05582,192.71895 C 107.99011,201.52653 102.01366,209.39028 100.12646,216.31021 C 99.811806,218.19767 99.182706,219.61315 98.239156,220.55664 L 96.823682,219.14116 C 97.138137,216.93947 97.295412,214.58035 97.295507,212.06379 C 97.295412,207.66026 96.666312,203.25656 95.408207,198.85268 C 92.891714,202.94201 91.633515,206.87388 91.633605,210.64831 C 91.633515,209.39028 93.206264,215.36673 96.351857,228.57767 C 102.95731,219.77042 110.97833,212.53578 120.41494,206.87371 C 131.10952,200.89743 141.48966,198.06649 151.55541,198.38086 M 94.464556,142.70549 C 91.318965,142.07662 89.746216,141.76207 89.746305,141.76184 C 87.544368,141.76207 77.164225,142.863 58.605844,145.06461 C 53.88754,145.69395 48.068369,148.52489 41.148313,153.55746 C 34.228178,158.59049 30.76813,163.30873 30.768159,167.71222 C 30.76813,168.34153 30.76813,169.12791 30.768159,170.07135 C 31.08268,171.32975 31.239954,172.11613 31.239984,172.43047 C 58.605787,179.66532 76.0633,188.94454 83.612578,200.26816 C 86.443444,193.97734 88.173467,184.38357 88.802654,171.48682 C 89.746216,158.27594 91.633515,148.68217 94.464556,142.70549 M 82.197102,223.38759 L 82.197102,215.36656 C 82.197021,202.15563 77.00695,193.82006 66.626872,190.35983 C 73.232352,204.82931 78.422424,215.83855 82.197102,223.38759 M 69.457823,204.04276 C 69.772304,200.58289 67.727731,196.02191 63.324095,190.35983 C 59.234886,184.69812 55.460289,181.86717 52.000291,181.86697 L 49.641166,181.86697 C 53.101165,185.95632 59.706711,193.34824 69.457823,204.04276 M 92.577256,233.29592 C 92.577165,221.34317 89.746216,213.47943 84.084403,209.70466 L 84.084403,213.47926 C 84.08432,227.31962 86.286169,237.22794 90.689955,243.20425 C 91.948065,238.80069 92.577165,235.49791 92.577256,233.29592 M 51.056641,187.05705 C 43.821946,179.8226 36.115476,176.20528 27.937208,176.20507 C 26.993532,176.20528 25.735333,176.51983 24.162607,177.14872 C 28.566281,178.09257 37.53095,181.39535 51.056641,187.05705 M 75.59155,215.83839 C 74.647826,210.4912 67.727731,204.67203 54.831242,198.38086 C 43.192847,192.71914 33.913628,189.88819 26.993558,189.888 L 26.993558,192.24713 C 26.993532,196.33646 30.610855,199.32469 37.845537,201.21181 C 43.192847,202.47018 48.697468,203.72838 54.359417,204.98641 C 59.077611,207.18843 66.154982,210.80575 75.59155,215.83839 M 84.556228,232.35227 C 82.354296,224.17412 74.962376,216.93947 62.380445,210.64831 C 51.371141,205.30113 40.990998,202.62746 31.239984,202.62728 C 32.183604,209.8621 35.014552,214.2658 39.732837,215.83839 C 44.765596,217.09675 49.798392,218.35495 54.831242,219.61299 C 63.953133,221.50045 73.861452,225.74687 84.556228,232.35227 M 87.859004,245.09155 L 87.859004,242.73242 C 87.858918,236.44156 81.096097,230.77967 67.570522,225.74671 C 56.561213,221.34317 47.281994,219.14132 39.732837,219.14116 C 38.4746,219.14132 37.8455,219.2986 37.845537,219.61299 C 37.8455,225.90414 44.293771,230.62239 57.190368,233.76774 C 73.546902,237.85704 83.76977,241.63163 87.859004,245.09155 M 139.28795,302.65422 C 139.28781,299.5088 137.08596,295.41965 132.6824,290.38676 C 128.59312,285.35405 124.9758,282.52311 121.83042,281.89391 C 123.7176,284.72496 126.07672,291.17323 128.9078,301.23874 C 131.10952,309.41711 134.25502,315.07901 138.3443,318.22445 C 138.97326,316.96631 139.28781,311.77624 139.28795,302.65422 M 144.94985,323.41452 C 144.94971,319.63998 143.84879,313.50626 141.64708,305.01334 C 140.07419,318.53906 139.28781,323.8864 139.28795,321.0554 C 139.28781,321.05546 140.86056,324.20095 144.0062,330.4919 C 144.00606,329.5483 144.16334,328.2901 144.47803,326.7173 C 144.79243,325.1446 144.94971,324.04368 144.94985,323.41452 M 88.802654,254.05622 L 88.802654,248.39432 C 75.591476,238.32886 61.751285,233.45334 47.28204,233.76774 C 50.742042,238.48614 57.190313,242.57528 66.626872,246.0352 C 73.861452,248.55173 81.253372,251.2254 88.802654,254.05622 M 127.96415,306.42882 L 127.96415,302.18239 C 127.96402,299.35152 126.39127,295.1051 123.2459,289.44311 C 120.41483,283.46676 117.74115,280.00671 115.22487,279.06296 C 112.70836,278.11941 108.77648,277.64758 103.42924,277.64748 C 105.94553,279.84943 109.72013,284.72496 114.75304,292.27406 C 118.84208,298.56515 123.24577,303.28339 127.96415,306.42882 M 112.86574,295.57684 C 107.51828,282.99493 100.59819,276.70394 92.10543,276.70383 L 83.612578,276.70383 C 87.387093,283.30948 91.79079,287.5559 96.823682,289.44311 C 102.17094,291.3305 107.51828,293.37507 112.86574,295.57684 M 135.98517,319.1681 C 134.09774,316.65176 132.05317,314.13536 129.85145,311.61889 C 127.96402,308.78801 125.13307,307.37254 121.35859,307.37247 C 114.75293,307.37254 102.64276,310.98986 85.028053,318.22445 C 93.206264,324.5155 99.339986,327.661 103.42924,327.66095 C 105.00189,327.661 109.40558,326.24553 116.64034,323.41452 C 123.87487,320.26908 130.32314,318.85361 135.98517,319.1681 M 144.0062,340.87206 C 144.00606,335.52475 141.64694,328.9192 136.92883,321.0554 L 134.5697,321.0554 C 125.76217,320.42636 117.11205,322.78548 108.61932,328.13278 C 110.19196,329.39103 116.32568,331.90742 127.0205,335.68198 C 134.56957,338.19842 139.91691,341.97302 143.06255,347.00578 C 143.06241,346.37672 143.21969,345.43307 143.53438,344.17483 C 143.84879,342.60212 144.00606,341.50119 144.0062,340.87206 M 123.2459,305.01334 C 117.26933,299.66607 110.82106,296.9924 103.90106,296.99231 C 96.666312,296.9924 86.128894,299.82335 72.288774,305.48517 C 76.37785,312.40534 80.152448,315.86539 83.612578,315.86532 C 84.870695,315.86539 90.375316,314.13536 100.12646,310.67524 C 110.19196,307.21527 117.89843,305.32797 123.2459,305.01334 M 106.26019,295.10501 C 93.048989,290.7014 85.342519,288.49955 83.140752,288.49946 C 76.535125,288.49955 70.715954,289.75775 65.683221,292.27406 L 65.683221,296.04866 C 70.086854,300.45245 72.288703,302.65429 72.288774,302.65422 C 73.546902,302.65429 78.107874,301.39609 85.971703,298.87962 C 94.149914,296.3633 100.91274,295.1051 106.26019,295.10501 M 82.197102,286.61216 C 75.906025,283.15221 66.784081,277.64758 54.831242,270.09828 C 57.033038,274.50209 60.178536,281.10763 64.267746,289.91494 C 68.35683,288.65683 74.333276,287.5559 82.197102,286.61216 M 156.27366,408.34305 C 153.44255,402.36658 150.29706,391.20006 146.83715,374.84347 C 143.37696,359.43053 140.38874,349.83676 137.87248,346.06213 C 136.61414,343.86032 131.58134,340.71482 122.77407,336.62563 C 114.2811,332.53652 108.61921,330.49195 105.78836,330.4919 C 104.53006,330.49195 103.27186,330.8065 102.01376,331.43555 C 106.41736,344.33214 113.96655,358.48688 124.66137,373.89982 C 135.35594,389.31276 145.89336,400.79383 156.27366,408.34305 M 183.63952,68.628937 L 182.69587,70.516238 L 181.75222,70.044413 L 182.69587,68.157112 L 183.63952,68.628937 M 174.20301,65.797986 L 173.25936,67.685287 L 172.31571,67.213462 L 173.25936,65.326161 L 174.20301,65.797986 M 162.87921,67.213462 L 162.40738,69.572587 L 160.99191,69.572587 L 161.46373,67.213462 L 162.87921,67.213462" />
  </g>
</svg>
