<?xml version="1.0" encoding="UTF-8" standalone="no"?>
<!-- Created with Inkscape (http://www.inkscape.org/) -->

<svg
   xmlns:dc="http://purl.org/dc/elements/1.1/"
   xmlns:cc="http://creativecommons.org/ns#"
   xmlns:rdf="http://www.w3.org/1999/02/22-rdf-syntax-ns#"
   xmlns:svg="http://www.w3.org/2000/svg"
   xmlns="http://www.w3.org/2000/svg"
   xmlns:sodipodi="http://sodipodi.sourceforge.net/DTD/sodipodi-0.dtd"
   xmlns:inkscape="http://www.inkscape.org/namespaces/inkscape"
   width="546.09833"
   height="530.34839"
   id="svg12757"
   version="1.1"
   inkscape:version="0.48.5 r10040"
   sodipodi:docname="Kyi_Shchek_and_Khoryv_Silhouette.svg">
  <defs
     id="defs12759" />
  <sodipodi:namedview
     id="base"
     pagecolor="#ffffff"
     bordercolor="#666666"
     borderopacity="1.0"
     inkscape:pageopacity="0.0"
     inkscape:pageshadow="2"
     inkscape:zoom="0.87747276"
     inkscape:cx="175.42392"
     inkscape:cy="232.75971"
     inkscape:document-units="px"
     inkscape:current-layer="layer1"
     showgrid="false"
     inkscape:window-width="1280"
     inkscape:window-height="740"
     inkscape:window-x="-4"
     inkscape:window-y="-4"
     inkscape:window-maximized="1"
     fit-margin-top="0"
     fit-margin-left="0"
     fit-margin-right="0"
     fit-margin-bottom="0">
    <inkscape:grid
       type="xygrid"
       id="grid12809"
       empspacing="5"
       visible="true"
       enabled="true"
       snapvisiblegridlinesonly="true"
       originx="-0.5px"
       originy="-0.49998262px" />
  </sodipodi:namedview>
  <metadata
     id="metadata12762">
    <rdf:RDF>
      <cc:Work
         rdf:about="">
        <dc:format>image/svg+xml</dc:format>
        <dc:type
           rdf:resource="http://purl.org/dc/dcmitype/StillImage" />
        <dc:title></dc:title>
      </cc:Work>
    </rdf:RDF>
  </metadata>
  <g
     inkscape:label="Layer 1"
     inkscape:groupmode="layer"
     id="layer1"
     transform="translate(-0.5,-521.51379)">
    <path
       style="fill:black;stroke:none"
       d="m 72.84021,576.33006 c -5.67497,42.54465 -40.01965,25.13419 -55.30836,51.80782 -22.22037,38.36112 -12.2618,95.24975 -12.2618,95.24975 1.78844,39.00472 25.11049,45.61844 25.11049,45.61844 l -0.34809,-6.26563 C 9.49512,750.90536 11.23557,699.03989 11.23557,699.03989 c 1.74045,-35.85331 5.22135,-51.16929 5.22135,-51.16929 14.32687,-52.06558 60.6988,-23.228 61.61201,-71.35853 z"
       id="path12807"
       inkscape:connector-curvature="0"
       sodipodi:nodetypes="ccccccccc" />
    <rect
       style="fill:black;fill-opacity:1;stroke:none"
       id="rect12811"
       width="4.1770854"
       height="325.81262"
       x="209.64709"
       y="552.84192" />
    <rect
       style="fill:black;fill-opacity:1;stroke:none"
       id="rect12811-2"
       width="4.1770854"
       height="325.81262"
       x="275.08813"
       y="539.96259" />
    <path
       style="fill:black;stroke:none"
       d="m 82.52798,879.38504 0.87021,-10.41131 4.85892,-0.29289 0,-6.31851 C 78.42831,852.53353 63.33409,852.1825 63.33409,852.1825 l 0,-7.02057 C 37.70901,837.43931 34.54976,831.12079 34.54976,831.12079 l 8.42468,-18.6045 c 0,-5.61646 0.35103,-22.81685 0.35103,-22.81685 0.35103,-3.86132 -12.63702,-21.76377 -12.63702,-21.76377 L 30.33742,749.68219 C 43.6765,738.80031 44.02753,735.29003 44.02753,735.29003 l 12.63702,-26.32714 c -11.58394,0 -35.10284,-9.82879 -35.10284,-9.82879 l -8.77572,0 C 7.16954,695.97484 0.5,697.02792 0.5,697.02792 l 0,-13.33908 10.17982,0 c 2.79563,-0.74909 4.21234,2.80823 4.21234,2.80823 l 13.69011,0.35103 c 12.286,-7.02057 21.06171,0.35103 21.06171,0.35103 11.05369,3.51074 26.32714,-7.02057 26.32714,-7.02057 l 14.21687,-0.17529 0.52632,2.28146 5.09029,-0.70281 -0.17544,-5.26482 -6.41761,-0.88245 c -2.63158,-1.22807 0.52632,-2.80701 0.52632,-2.80701 1.05263,-1.40351 -0.87719,-6.49123 -0.87719,-6.49123 -4.0351,-1.75438 1.92982,-3.68421 1.92982,-3.68421 1.57894,-2.10527 -2.10526,-5.26316 -2.10526,-5.26316 -0.52632,-10.00001 14.21052,-11.22807 14.21052,-11.22807 l -0.17544,-6.49123 5.08772,0 -0.35087,6.66667 c 8.24561,8.07017 6.66666,15.43859 6.66666,15.43859 8.54424,4.50892 3.82024,13.46692 -4.38596,13.68422 l 0,5.61403 10,5.78947 6.49123,0.35088 0,2.63158 c 4.03508,3.33333 10,4.03509 10,4.03509 l 0,-5.96491 4.73684,-0.70176 c 8.94737,-4.5614 10,-6.49123 10,-6.49123 4.91228,-4.38597 5.78947,4.73685 5.78947,4.73685 l 3.33334,-0.17544 -0.35088,-6.84211 -2.45614,-0.17544 c -3.1579,-2.45614 -2.98246,-4.91228 -2.98246,-4.91228 -0.52631,-3.15789 2.10526,-3.50877 2.10526,-3.50877 0.17544,-12.98246 0.70176,-14.5614 0.70176,-14.5614 12.80701,-14.03509 20.52631,2.45614 20.52631,2.45614 0.70176,6.14035 1.05264,10.87719 1.05264,10.87719 11.92982,5.43859 -4.73685,10.87719 -4.73685,10.87719 l 0.35088,6.66667 c 21.05263,6.31579 24.38597,11.92982 24.38597,11.92982 l 2.45614,0 -0.17544,-4.38596 4.5614,-3.1579 -0.17544,-9.82456 c 12.10527,-4.21053 14.03509,6.66667 14.03509,6.66667 4.5614,-0.17544 4.91228,-4.21053 4.91228,-4.21053 l 0,-3.68421 -6.14035,-0.17544 c -3.68421,-4.21052 1.57895,-8.42105 1.57895,-8.42105 0,-14.73684 1.75438,-17.36842 1.75438,-17.36842 9.12281,-8.07017 17.89474,-2.2807 17.89474,-2.2807 5.96491,4.91228 4.73684,17.54386 4.73684,17.54386 l 1.05263,0.35088 0,5.78947 c 2.98246,2.80702 1.40351,5.26316 1.40351,5.26316 l -6.66666,1.22807 0,7.7193 13.33333,0.87719 c 12.89367,6.8696 17.19298,18.07017 17.19298,18.07017 20,-1.75439 24.38597,16.31579 24.38597,16.31579 l 0.35087,59.82456 -1.4035,0.35088 0,6.66667 -2.10527,0 0.70176,22.80702 c -13.68421,6.8421 -17.01755,7.19298 -17.01755,7.19298 -10.73048,2.87522 -13.33333,13.50877 -13.33333,13.50877 l 0.17544,21.92983 -4.91228,0 0.42985,13.3936 c 10.90442,0 9.84915,6.68336 9.84915,6.68336 -13.01495,3.86931 -63.316,4.22106 -63.316,4.22106 l 0,-10.90442 c -4.57282,-5.27633 -4.57282,-9.4974 -4.57282,-9.4974 l 0,-125.57673 c -5.27634,3.86931 -8.09038,6.3316 -8.09038,6.3316 7.03511,66.13005 1.75878,100.95384 1.75878,100.95384 l -10.51055,0.0272 0,21.24158 1.01941,5.93228 c 3.37375,0.74973 4.12347,4.49833 4.12347,4.49833 l 10.49608,0 0,6.74748 c -31.11339,1.49944 -115.94074,-1.15403 -115.94074,-1.15403 z"
       id="path12787"
       inkscape:connector-curvature="0"
       sodipodi:nodetypes="ccccccccccccccccccccccccccccccccccccccccccccccccccccccccccccccccccccccccccccccccccccccccccccccccccccc" />
    <path
       style="fill:black;stroke:none"
       d="m 512.43204,717.34728 c 18.6291,-3.23986 18.6291,2.42989 18.6291,2.42989 -53.4997,55.45607 139.8926,197.35873 -142.5536,220.31005 28.3488,44.54799 24.2989,111.77498 24.2989,111.77498 l -211.4005,-0.81 0.81,-59.12732 c -36.4484,4.04982 -25.9188,-38.87824 -25.9188,-38.87824 -31.5886,2.42989 -50.5415,-7.61339 -50.5415,-7.61339 -51.8376,4.04981 -70.1431,-39.36449 -70.1431,-39.36449 l -21.869,-0.80997 -3.2398,-25.10886 44.655,-2.49014 c 140.39767,9.24077 197.22796,-1.21078 197.22796,-1.21078 195.81054,-5.88357 199.88584,-54.71918 199.88584,-54.71918 -11.982,0.12838 -21.23566,-3.09029 -21.23566,-3.09029 l -0.40233,-10.86304 c 26.17669,-2.03033 40.47259,-18.41038 8.04669,-24.14009 l -0.4023,-6.43736 3.621,-3.21867 -10.05839,-8.44903 c -9.37004,2.44794 -9.2537,-5.63269 -9.2537,-5.63269 l -6.83969,0 -15.28872,-18.5074 c -2.07469,-3.00055 21.411,-30.93615 21.411,-30.93615 l 2.47217,0 c 4.50523,-16.81374 15.32753,-22.00238 15.32753,-22.00238 7.908,-41.89532 29.6661,-62.05166 29.6661,-62.05166 l 0,-3.95548 c -9.3943,-9.39427 -10.1359,-19.03577 -10.1359,-19.03577 -13.6443,7.87754 -24.4746,5.93323 -24.4746,5.93323 -5.56294,12.14647 -19.7774,13.10254 -19.7774,13.10254 l -18.78855,0 c -3.21383,-4.2027 -0.98887,-11.37202 -0.98887,-11.37202 1.48331,-3.46105 -2.22496,-3.46105 -2.22496,-3.46105 l -5.93323,-0.98887 c -1.02523,-4.88136 3.46105,-5.93323 3.46105,-5.93323 2.7194,-1.73052 -2.22496,-3.70826 -2.22496,-3.70826 -16.68974,1.61928 -17.41119,-9.0291 -3.21383,-5.93323 l -0.49443,-5.68601 c -4.69714,-4.69713 -6.9221,-7.16931 -6.9221,-7.16931 0.49443,-6.67488 10.38314,-5.43879 10.38314,-5.43879 l 47.46584,0.74165 c 10.1359,1.48331 12.6081,3.70827 12.6081,3.70827 3.7082,0.98887 6.4276,-7.16932 6.4276,-7.16932 l 4.6972,0 0,-2.96661 c -3.7083,-3.46105 1.2361,-5.93323 1.2361,-5.93323 l 0.4944,-3.21383 c -3.461,0.24722 -3.2138,-2.96661 -3.2138,-2.96661 9.3942,-19.28299 23.9801,-7.16931 23.9801,-7.16931 l 0.7416,8.65262 c 5.686,4.94435 -0.2472,4.44992 -0.2472,4.44992 l 0,7.91096 -3.9555,0.49444 0,7.16931 c 2.7194,0 2.4722,5.68601 2.4722,5.68601 15.3275,12.36089 17.3053,13.34976 17.3053,13.34976 2.2249,3.95549 -1.2361,4.94436 -1.2361,4.94436 l -0.7417,26.4523 c 5.4388,6.18044 3.9555,21.75516 3.9555,21.75516 l -1.9777,0 c 1.9778,37.82431 -0.2473,42.02702 -0.2473,42.02702 -2.4721,19.77742 -6.922,23.7329 -6.922,23.7329 z"
       id="path12787-3"
       inkscape:connector-curvature="0"
       sodipodi:nodetypes="cccccccccccccccccccccccccccccccccccccccccccccccccccccccccccccccc" />
    <path
       style="fill:black;stroke:none"
       d="m 211.03946,533.69695 -4.87326,19.49306 10.44271,-0.34809 z"
       id="path12831"
       inkscape:connector-curvature="0" />
    <path
       style="fill:black;stroke:none"
       d="m 277.27142,521.51379 -4.87326,19.49306 10.44271,-0.34809 z"
       id="path12831-2"
       inkscape:connector-curvature="0" />
  </g>
</svg>
