<?xml version="1.0" encoding="UTF-8" standalone="no"?>
<!-- Created with Inkscape (http://www.inkscape.org/) -->
<svg
   xmlns:dc="http://purl.org/dc/elements/1.1/"
   xmlns:cc="http://web.resource.org/cc/"
   xmlns:rdf="http://www.w3.org/1999/02/22-rdf-syntax-ns#"
   xmlns:svg="http://www.w3.org/2000/svg"
   xmlns="http://www.w3.org/2000/svg"
   xmlns:sodipodi="http://inkscape.sourceforge.net/DTD/sodipodi-0.dtd"
   xmlns:inkscape="http://www.inkscape.org/namespaces/inkscape"
   width="128.00000px"
   height="128.00000px"
   id="svg2"
   sodipodi:version="0.32"
   inkscape:version="0.43"
   sodipodi:docbase="/home/nicu/Desktop/svg/silhouettes"
   sodipodi:docname="silh53.svg">
  <defs
     id="defs4" />
  <sodipodi:namedview
     id="base"
     pagecolor="#ffffff"
     bordercolor="#666666"
     borderopacity="1.0"
     inkscape:pageopacity="0.0"
     inkscape:pageshadow="2"
     inkscape:zoom="1"
     inkscape:cx="64"
     inkscape:cy="67.161133"
     inkscape:document-units="px"
     inkscape:current-layer="layer1"
     inkscape:window-width="750"
     inkscape:window-height="542"
     inkscape:window-x="15"
     inkscape:window-y="74" />
  <g
     inkscape:label="Layer 1"
     inkscape:groupmode="layer"
     id="layer1">
    <path
       style="fill:#000000"
       d="M 45.586817,122.5329 C 44.586714,122.62671 42.092821,121.83687 43.808117,120.8516 C 45.447547,120.46208 46.508651,119.00235 46.786321,117.40141 C 47.836713,113.67797 47.757728,109.71817 46.962551,105.95454 C 46.788491,103.41929 46.565755,100.88133 46.166464,98.37445 C 45.473878,95.48053 45.783526,92.458055 45.862775,89.505322 C 46.08143,87.871945 45.727836,85.950623 46.68639,84.563279 C 48.392561,82.783895 51.011464,83.146555 53.235294,82.859615 C 55.712554,82.675196 58.16686,83.049634 60.62414,83.263754 C 61.655517,82.682363 63.104978,80.867692 62.230059,79.604434 C 61.548836,77.660234 60.630891,75.758716 60.590798,73.655194 C 60.199409,70.61522 60.786145,67.561246 60.926532,64.527652 C 60.324691,62.657347 60.781626,60.59917 61.493549,58.829384 C 62.225475,57.389171 63.55515,56.371711 64.282789,54.949547 C 64.806366,53.88953 64.727871,52.639455 64.617796,51.503767 C 64.333743,50.493323 63.868351,49.508792 63.695832,48.482408 C 63.772144,46.3641 63.829585,44.144886 64.866168,42.258636 C 65.837042,40.73705 66.841788,38.751309 68.969148,39.089977 C 70.594329,39.37183 72.604043,39.044837 73.467971,40.814795 C 74.601863,41.970651 75.456829,43.358365 76.206257,44.781049 C 76.962651,46.432881 77.491071,48.185239 78.331328,49.786035 C 78.967557,51.858553 80.412636,53.478098 81.90261,54.9833 C 82.761667,55.989279 83.695749,57.263286 84.152549,58.368122 C 84.77407,59.596918 85.325989,61.218699 84.807412,62.636818 C 82.847078,62.938069 83.973012,65.404044 83.157193,66.833227 C 82.481795,69.5421 81.493529,72.156601 80.859425,74.872978 C 80.646896,76.359178 79.047977,77.919708 79.80982,79.379766 C 80.344113,80.138036 80.551854,82.1288 81.771232,81.881454 C 83.576225,81.354967 85.756716,81.287029 87.261556,82.569438 C 88.890911,84.181389 88.859497,86.644317 89.38824,88.732758 C 90.012819,91.315227 90.775428,93.895933 90.731204,96.58293 C 90.806564,101.88858 90.465234,107.20068 90.666931,112.50278 C 91.011239,114.78827 91.609316,117.01966 92.212102,119.24468 C 92.081095,120.10322 93.204763,122.12518 92.021664,122.26963 C 90.179419,122.44562 87.926304,122.81097 86.497366,121.35284 C 86.673407,119.67239 85.897248,118.54802 85.71736,116.93323 C 85.389705,114.81856 85.09328,112.63746 85.410238,110.5017 C 85.619953,108.74702 85.723718,106.8934 85.292063,105.16502 C 84.279002,103.2574 84.379059,101.02339 84.024214,98.94033 C 83.765107,96.92032 83.672564,94.85709 83.161182,92.883091 C 81.826748,93.531259 80.095189,93.860302 78.514894,93.7848 C 77.649321,93.86695 76.180463,93.823696 74.989647,93.508534 C 73.718328,93.338554 73.43208,92.042889 71.936281,92.415654 C 70.26772,92.668378 68.509275,93.501462 66.742949,93.757395 C 62.965186,94.725597 58.93066,94.367974 55.231194,93.25523 C 54.239125,92.899343 52.119597,91.476544 52.910545,93.632228 C 53.434958,96.52386 53.597549,99.47331 53.206345,102.39294 C 52.946844,104.27736 52.481401,106.17137 52.87588,108.08167 C 52.826274,109.79403 53.404338,111.32519 54.298669,112.75445 C 54.822451,114.91723 54.636196,117.18048 54.799378,119.39104 C 53.653242,120.24104 51.502414,118.12997 51.376301,119.98736 C 51.102498,120.67797 51.460316,121.70865 50.564729,121.98793 C 49.123781,122.95836 47.218077,122.52565 45.586817,122.5329 z "
       id="path2100"
       sodipodi:nodetypes="ccccccccccccccccccccccccccccccccccccccccccccccccccccc" />
  </g>
  <metadata
     id="metadata7">
    <rdf:RDF>
      <cc:Work
         rdf:about="">
        <dc:title>woman silhouette</dc:title>
        <dc:description />
        <dc:subject>
          <rdf:Bag>
            <rdf:li>people</rdf:li>
            <rdf:li> woman</rdf:li>
            <rdf:li> silhouette</rdf:li>
          </rdf:Bag>
        </dc:subject>
        <dc:publisher>
          <cc:Agent>
            <dc:title />
          </cc:Agent>
        </dc:publisher>
        <dc:creator>
          <cc:Agent>
            <dc:title>Nicu Buculei</dc:title>
          </cc:Agent>
        </dc:creator>
        <dc:rights>
          <cc:Agent>
            <dc:title>Nicu Buculei</dc:title>
          </cc:Agent>
        </dc:rights>
        <dc:date />
        <dc:format>image/svg+xml</dc:format>
        <dc:type
           rdf:resource="http://purl.org/dc/dcmitype/StillImage" />
        <cc:license
           rdf:resource="http://web.resource.org/cc/PublicDomain" />
        <dc:language>en</dc:language>
      </cc:Work>
      <cc:License
         rdf:about="http://web.resource.org/cc/PublicDomain">
        <cc:permits
           rdf:resource="http://web.resource.org/cc/Reproduction" />
        <cc:permits
           rdf:resource="http://web.resource.org/cc/Distribution" />
        <cc:permits
           rdf:resource="http://web.resource.org/cc/DerivativeWorks" />
      </cc:License>
    </rdf:RDF>
  </metadata>
</svg>
