<?xml version="1.0" encoding="UTF-8" standalone="no"?>
<!-- Created with Inkscape (http://www.inkscape.org/) -->
<svg xmlns:inkscape="http://www.inkscape.org/namespaces/inkscape" xmlns:rdf="http://www.w3.org/1999/02/22-rdf-syntax-ns#" xmlns="http://www.w3.org/2000/svg" xmlns:xlink="http://www.w3.org/1999/xlink" xmlns:ns1="http://sozi.baierouge.fr" xmlns:cc="http://creativecommons.org/ns#" xmlns:dc="http://purl.org/dc/elements/1.1/" xmlns:sodipodi="http://sodipodi.sourceforge.net/DTD/sodipodi-0.dtd" id="svg2" sodipodi:docname="silhouetteFSO_M20-223_Warszawa.svg" viewBox="0 0 743.52 475.57" version="1.1" inkscape:version="0.48.5 r10040">
  <sodipodi:namedview id="base" fit-margin-left="0" inkscape:zoom="1.3310296" borderopacity="1.0" inkscape:current-layer="layer1" inkscape:cx="371.75961" inkscape:cy="237.78584" inkscape:window-maximized="0" showgrid="false" fit-margin-right="0" units="mm" showguides="true" bordercolor="#666666" inkscape:window-x="0" inkscape:guide-bbox="true" inkscape:window-y="0" fit-margin-bottom="0" inkscape:window-width="1392" inkscape:pageopacity="0.0" inkscape:pageshadow="2" pagecolor="#ffffff" inkscape:document-units="mm" inkscape:window-height="825" fit-margin-top="0">
    <sodipodi:guide id="guide3069" position="13.455155,139.86245" orientation="1,0"/>
    <sodipodi:guide id="guide3071" position="731.65494,-114.49998" orientation="1,0"/>
  </sodipodi:namedview>
  <g id="layer1" inkscape:label="Layer 1" inkscape:groupmode="layer" transform="translate(.15516 -11.753)">
    <path id="path2996" style="fill-rule:evenodd;fill:#000000" inkscape:connector-curvature="0" d="m406.41 11.759c-3.5512-0.01368-7.0609-0.002-10.56 0.03072-27.993 0.26153-54.264 1.8993-78.032 4.0864-4.2241 0.4274-7.9246 1.7309-11.183 3.1339-3.8866 1.6311-7.5135 3.5264-10.934 5.469-4.1658 2.6679-8.2114 5.2479-12.149 7.7733-18.116 25.341-32.702 46.071-42.583 60.558-3.209 4.7048-5.8553 8.6791-8.0368 12.013-41.801 1.1427-77.737 2.1997-104.14 3.1953-15.864 0.59835-28.423 1.176-37.069 1.7206-4.3918 0.27663-7.7741 0.56813-10.062 0.82956-1.1516 0.13161-2.0294 0.24116-2.6166 0.3687-0.29456 0.064-0.5055 0.12142-0.65416 0.18435-0.07445 0.0315-0.11839 0.0609-0.15575 0.0921-0.0187 0.0156-0.05294 0.0459-0.0623 0.0615-0.0095 0.0157-0.000175 0.0457 0 0.0614 0.00018 0.0157-0.0099 0.0151 0 0.0307 0.0097 0.0154 0.04327 0.0462 0.0623 0.0615 0.03805 0.0305 0.08061 0.0623 0.15575 0.0921 0.15005 0.0597 0.38933 0.0962 0.68531 0.15363 0.59009 0.11444 1.4621 0.23275 2.6166 0.33796 2.2934 0.20896 5.6635 0.38344 10.062 0.55303 8.6583 0.33387 21.253 0.61028 37.131 0.76812 25.289 0.25141 59.294 0.22557 98.809-0.0921-0.91707 1.6239-1.3717 2.6002-1.1837 2.7345 0.22469 0.16048 1.2564-0.77391 3.0216-2.7345 7.3976-0.061 14.612-0.13046 22.397-0.21506 44.427-0.48279 94.924-1.345 148.43-2.8266 1.1858-0.0328 2.3684-0.0589 3.5512-0.0921 24.624-0.69278 48.603-1.4531 71.615-2.3658 23.011-0.91265 45.061-1.9817 65.852-3.1953 23.276-1.3671 45.134 0.0614 64.793 2.4887 21.504 2.6502 40.414 6.5671 56.227 10.385 24.759 7.5703 42.147 12.608 50.246 14.533 1.8411 2.3832 3.5349 4.7107 5.0775 6.913 2.6984 3.8506 4.9539 7.3781 6.8219 10.508 1.8681 3.1297 3.3415 5.8426 4.5168 8.0805 1.1227 2.1378 1.9101 3.7343 2.5232 4.9159-8.7686-10.964-19.459-20.946-32.272-28.482-12.503-7.2991-26.571-12.047-41.056-14.84-16.652-3.2206-33.85-4.2694-51.087-4.6394-21.102-0.4663-42.526 0.0603-64.232 0.49159-45.823 0.90753-93.243 1.8582-141.8 2.8881-142.06 3.0133-274.42 6.1184-385.42 8.9715-2.4286 0.0711-4.6867 1.1152-6.3858 2.9495-1.5745 1.9414-2.3548 3.9044-2.6478 5.6226-0.94953 4.5948-0.6688 8.9775-0.15575 12.874 0.48313 4.0768 1.2518 8.0356 2.1494 11.89 0.30235 1.3023 0.62316 2.5784 0.96566 3.8713 0.096956 0.36603 0.20835 0.73489 0.3115 1.1061 0.15427 0.31305 0.31203 0.63772 0.46726 0.95245 0.04025 0.0816 0.08426 0.16411 0.1246 0.2458 0.01413 0.0286 0.01698 0.0636 0.03115 0.0921 1.2512 1.1297 2.4955 2.2567 3.7381 3.3797 2.4239 14.465 4.6899 28.382 6.8531 41.939 0.10042-0.2058 0.2109-0.40925 0.3115-0.61449 0.28891-0.58945 0.58145-1.1652 0.87221-1.7513-0.45884-13.797-0.89841-27.96-1.2772-42.707-1.1436-1.2205-2.2751-2.4572-3.4265-3.6869 0.0108 0.0409 0.02032 0.0823 0.03114 0.1229-0.10316-0.12558-0.2084-0.27182-0.3115-0.39942 0.08999 0.0961 0.19041 0.18046 0.28035 0.27652-0.07809-0.29493-0.14155-0.58958-0.21805-0.89101-0.30745-1.2114-0.59913-2.4534-0.87221-3.6869-0.80925-3.667-1.4724-7.3604-1.869-11.061-0.34726-3.7094-0.66245-7.1861 0.09345-10.17 0.3266-1.0353 0.52308-1.805 0.84106-1.9971-0.03945-0.0367 0.17783-0.10958 0.28035-0.0921 111.02-1.8563 243.39-4.3913 385.46-7.4046 48.554-1.0299 95.976-2.0668 141.8-3.1032 21.74-0.49026 43.018-1.0525 63.827-0.67594 17.01 0.31875 33.65 1.2043 49.498 4.2092 13.701 2.6065 26.803 6.8969 38.222 13.519 12.19 7.0115 22.503 16.684 31.026 27.375 0.88987 1.0614 1.5108 2.5297 2.0559 4.1478 0.60659 1.8696 0.96827 3.9196 1.1837 6.0527 0.47208 4.7476 0.1781 9.6415-0.37381 14.563-0.49195 4.2954-1.2409 8.5483-2.1494 12.751-0.28731 1.327-0.57873 2.6332-0.90336 3.9327-0.0103 0.0411-0.0207 0.082-0.0311 0.1229 0.41333-0.0587 0.80095-0.0949 1.2149-0.15362 0.0525-0.0398 0.10324-0.083 0.15576-0.1229-0.006 0.0247-0.0252 0.0368-0.0311 0.0615-0.002 0.009 0.002 0.0219 0 0.0308-0.0432 0.006-0.0814 0.0246-0.12461 0.0307-0.4856 0.36866-0.97859 0.74082-1.4641 1.1061 0.0818-0.30983 0.16945-0.63473 0.2492-0.95246-26.398 3.746-51.605 7.396-75.353 10.876-2.2818 0.34222-4.589 0.15248-6.417-0.73739-1.9206-0.822-3.6318-2.4678-5.171-4.3629-1.8439-2.3232-3.2925-5.081-4.6414-7.9576-1.5591-3.3566-2.8544-6.834-4.143-10.354-2.7918-7.6651-5.3684-15.453-8.9713-22.736-1.7169-3.4785-3.7271-6.8836-6.2301-9.9547-2.3532-2.9018-5.2681-5.4323-8.6598-7.251-5.1917-2.7372-10.559-4.8053-15.949-6.2371-5.3904-1.4318-10.802-2.2302-16.074-2.5194-5.8336-0.34196-11.588 0.0148-17.008 1.1061-5.4203 1.0913-10.505 2.8925-15.046 5.4075-3.5806 2.0178-6.3942 4.8375-8.5352 7.8654-2.4644 3.4798-4.1639 7.1539-5.4825 10.723-1.6862 4.5537-2.8512 8.9903-3.8315 13.181-0.98034 4.1905-1.7667 8.1381-2.5543 11.829-0.93509 4.361-1.8263 8.36-2.8658 11.952-1.1166 3.8409-2.3688 7.2068-3.8627 9.9854-0.83598 1.5448-1.7283 2.9021-2.679 4.0556-0.95067 1.1535-1.9579 2.0886-2.9593 2.8266-1.18 0.88212-2.3637 1.4857-3.4266 1.9049-1.0628 0.41922-2.0065 0.65287-2.7724 0.82955-1.5317 0.3534-2.3682 0.44619-2.3674 0.58377 0.0004 0.0688 0.21067 0.16297 0.62301 0.21508 0.41232 0.0521 1.0457 0.0794 1.869 0.0307 0.82336-0.0488 1.8294-0.19882 3.0216-0.52231 1.1922-0.32351 2.5743-0.81974 3.9872-1.6898 1.1759-0.73328 2.3501-1.6979 3.4888-2.8881s2.2241-2.6263 3.2085-4.24c1.7663-2.878 3.2884-6.3352 4.6103-10.231 1.2424-3.6486 2.3501-7.7009 3.4577-12.044 0.94377-3.6869 1.8624-7.627 2.9593-11.706s2.3769-8.3138 4.1119-12.566c1.358-3.3207 2.967-6.6389 5.2021-9.586 1.9211-2.5274 4.3081-4.7886 7.1646-6.2678 4.0932-2.1753 8.7154-3.7131 13.675-4.5779 4.9596-0.86485 10.27-1.0654 15.669-0.67594 4.8935 0.37268 9.872 1.2278 14.828 2.6423 4.9556 1.4145 9.8772 3.4015 14.578 5.9913 2.4829 1.3445 4.6749 3.4008 6.6039 5.8069 2.0634 2.5889 3.778 5.5939 5.3267 8.8179 3.2449 6.7719 5.5661 14.353 8.3172 22.214 1.2507 3.5927 2.5941 7.2832 4.2364 10.969 1.3905 3.1492 3.0674 6.3696 5.3579 9.4017 1.9096 2.5722 4.4569 4.9775 7.7565 6.6058 3.4266 1.5766 7.1922 1.9727 10.747 1.4133 25.156-4.0776 51.955-8.4799 80.181-13.181 0.003-0.009-0.003-0.0219 0-0.0308 0.008-0.0256 0.0231-0.0359 0.0311-0.0615 0.59167-0.60349 1.1852-1.213 1.7756-1.8127 0.10713-0.39153 0.21156-0.78252 0.31151-1.1675 0.36119-1.3912 0.71224-2.7816 1.028-4.1785 0.99996-4.4186 1.7976-8.9166 2.3674-13.519 0.66015-5.2343 1.0085-10.707 0.52956-16.315-0.21333-2.5358-0.62694-5.1616-1.4329-7.804-0.62396-2.105-1.6129-4.2648-3.0527-6.2985 0.002-0.007-0.00099-0.0233 0-0.0308 0.0189-0.0968 0.0367-0.23152 0.0311-0.39942-0.012-0.35952-0.0807-0.86261-0.21805-1.5362-0.27191-1.334-0.8031-3.2841-1.6821-5.7455-0.86632-2.4258-2.0684-5.3555-3.6757-8.7257-1.6073-3.3703-3.644-7.1832-6.1366-11.307-5.0346-8.3246-11.987-17.996-21.338-28.082-4.71-5.03-9.96-10.171-15.83-15.292-5.86-5.121-12.35-10.226-19.37-15.178-7.99-5.635-16.69-11.089-26.07-16.253-9.39-5.164-19.48-10.053-30.16-14.533-21.35-8.96-45.16-16.32-70.37-21.845-17.44-3.83-35.58-6.862-54.2-9.064-26.7-3.156-52.8-4.421-77.66-4.516zm-384.05 197.56c0.07974 2.3979 0.16699 4.8829 0.2492 7.251 0.0097 0.002 0.02144-0.002 0.03115 0-0.0088 0.0218-0.02245 0.0395-0.03115 0.0615-0.000695-0.0201 0.000697-0.0414 0-0.0615-0.22877-0.0571-0.4566-0.12726-0.68531-0.18435 0.10868 0.6854 0.23468 1.4063 0.34265 2.0893h0.03115c0.01163-0.0226 0.01949-0.0697 0.03115-0.0921 1.2083 0.10963 2.4061 0.22998 3.6135 0.33797 0.14706-0.3241 0.28643-0.65765 0.4361-0.98318 0.55182-1.2002 1.1184-2.3744 1.6821-3.564 1.8912-3.9906 3.8204-7.9106 5.794-11.737 2.4963-4.8377 5.0408-9.5292 7.7253-14.01 2.5214-4.1915 5.0634-8.1678 7.9745-11.614 3.655-4.3294 7.1864-8.4602 11.058-11.921 3.9666-3.5153 8.231-6.4178 12.803-7.8347 9.6333-3.0782 19.578-3.6728 28.876-2.9495 10.51 0.82941 20.236 3.3841 28.783 6.913 4.746 1.9461 8.8974 4.7352 12.398 7.9269 3.5005 3.1917 6.3633 6.788 8.5975 10.446 1.4832 2.4177 2.6242 4.9512 3.5823 7.466 0.95807 2.5148 1.719 5.0202 2.4297 7.4353 1.9574 6.6927 3.1968 12.699 4.1742 17.851 2.0691 13.913 3.3784 21.311 3.8004 21.261 0.42191-0.0494-0.0776-7.5187-1.3706-21.569-0.69346-5.2502-1.6341-11.445-3.3642-18.404-0.6132-2.4865-1.3208-5.0838-2.2428-7.7733-0.92198-2.6894-2.0746-5.4614-3.6134-8.2034-2.2727-4.0368-5.2357-8.0163-8.9713-11.614-3.7357-3.5975-8.256-6.816-13.519-9.1559-5.0025-2.2159-10.405-4.1252-16.167-5.5611 21.961 0.33012 46.655 0.52231 72.861 0.52231 90.229 0 163.45-2.2023 163.45-4.9159s-73.217-4.9159-163.45-4.9159c-90.229 0-163.45 2.2023-163.45 4.9159 0 1.3795 18.972 2.6095 49.436 3.5026-1.353 0.31692-2.6963 0.67386-4.0496 1.0754-5.702 1.7428-10.836 4.9939-15.264 8.8794-4.3299 3.7703-8.1631 8.0696-11.899 12.382-3.3316 3.8527-6.1233 8.086-8.7533 12.351-2.8498 4.6042-5.5524 9.395-8.1614 14.287-1.7642 3.3068-3.4715 6.6826-5.171 10.108zm-0.43611 7.0666c-0.24434-1.541-0.49974-3.1475-0.74761-4.7008-0.4882 1.0004-0.98174 1.9969-1.4641 3.011-0.15772 0.3316-0.30973 0.67811-0.46726 1.0139 0.88964 0.22106 1.7885 0.45371 2.6789 0.67593zm373.96-195.2c27.679 0.0066 56.983 1.2791 87.003 4.8237 18.32 2.1632 36.127 5.0849 53.267 8.7565 24.745 5.3104 48.094 12.252 69.029 20.647 20.936 8.3952 39.46 18.268 55.261 28.82 6.9404 4.6348 13.364 9.3892 19.22 14.164 5.8559 4.7748 11.147 9.5573 15.887 14.256 5.7573 5.7075 10.685 11.264 14.89 16.499-8.633-3.5037-24.547-9.3605-46.414-17.114-15.825-4.5665-34.885-9.1869-56.787-12.474-19.945-2.9901-42.301-4.8815-66.319-3.8406-2.5276 0.10982-5.1297 0.20006-7.6942 0.30724 1.633-1.4814 3.0766-3.328 4.1742-5.4382 1.2622-2.4269 2.0472-5.219 2.1182-8.2649-0.2298-7.4804-2.953-14.319-6.7596-20.002-4.2084-6.3725-9.5103-11.677-15.139-16.161-5.771-4.6263-11.993-8.5259-18.472-11.675-5.4693-2.6923-11.365-4.9834-17.631-6.0834-17.836-3.0274-35.049-4.4144-51.305-4.9159-16.256-0.50154-31.539-0.09804-45.573 0.67594-15.379 0.84443-29.328 2.1522-41.555 3.564-12.226 1.4119-22.76 2.9219-31.369 4.3014-8.6082 1.3795-15.261 2.6168-19.781 3.5948-0.0585 0.01265-0.098 0.01816-0.15574 0.03073 2.6112-1.5027 5.2202-2.9968 7.9122-4.5472 3.2552-1.7301 6.5753-3.3616 10.03-4.7008 3.0615-1.154 5.9939-2.1634 8.7844-2.3043 23.651-1.6549 49.699-2.9257 77.378-2.9188zm5.171 10.262c9.2098-0.02454 18.824 0.14917 28.783 0.64521 15.934 0.79366 32.718 2.4156 49.996 5.5611 4.9728 0.8757 9.9648 2.9167 14.983 5.3768 5.8224 2.8943 11.412 6.4436 16.572 10.631 5.0125 4.0956 9.6102 8.6963 13.021 13.98 2.9636 4.675 5.1388 9.8118 5.1398 14.871 0.14615 1.0328-0.24821 2.208-0.96567 3.4104-0.62385 1.0455-1.4825 2.1095-2.3986 3.1339-2.2576 1.9687-4.7128 3.6089-6.7285 3.3797-147-0.88466-263.64 0.42859-263.66 3.0417-0.0129 1.7768 53.976 3.6966 134.69 5.131-49.797 1.3639-97.061 2.5724-138.71 3.687-5.2263 0.13983-9.9919 0.26191-15.046 0.3994 2.1771-2.6784 4.6425-5.7911 7.445-9.3402 10.685-13.532 25.771-33.207 44.016-57.393 1.0898-0.02066 2.3622-0.0541 4.0184-0.15362 4.6118-0.27714 11.371-0.85654 20.03-1.5977 8.6583-0.74113 19.233-1.6355 31.431-2.4887 12.197-0.85321 26.017-1.6744 41.243-2.0585 5.2129-0.13028 10.61-0.20034 16.136-0.21507zm-176.12 56.226c-16.655-0.02586-48.954 1.8627-85.944 5.2232-16.691 1.5163-32.398 3.1731-46.103 4.793-4.2275 0.47851-8.3701 1.189-12.242 2.1507-3.8721 0.96174-7.4625 2.1801-10.685 3.5948-3.2221 1.4147-6.074 3.0149-8.5041 4.7316-2.43 1.7167-4.4454 3.5323-6.0743 5.3153-3.6822 7.1671-5.3519 11.377-4.6103 11.829 0.74163 0.45229 3.7933-2.8759 8.3483-8.8486 1.6609-1.319 3.5884-2.6008 5.8563-3.7791 2.2679-1.1784 4.8657-2.2565 7.7876-3.1339 2.9219-0.87739 6.1672-1.5615 9.6878-2.0893 3.5206-0.52777 7.3157-0.87427 11.245-1.1368 13.774-0.8763 29.505-2.1092 46.196-3.6255 53.804-4.8879 97.286-11.032 97.034-13.734-0.0789-0.84443-4.4227-1.2787-11.993-1.2904z"/>
    <path id="path3021" style="fill-rule:evenodd;fill:#000000" d="m388.63 28.666c2.7526 0.20141 2.4388 35.186-0.70054 78.09s-7.9212 77.562-10.674 77.36c-2.7526-0.20141-2.4388-35.186 0.70054-78.09s7.9212-77.562 10.674-77.36z" inkscape:path-effect="#path-effect3023" inkscape:connector-curvature="0" inkscape:original-d="M 388.62559,28.665501 377.25118,184.11574"/>
    <path id="path3036" style="fill-rule:evenodd;fill:#000000" inkscape:connector-curvature="0" d="m373.29 277.65c-9.7963 0.0126-19.443 0.24453-28.838 0.7186-11.374 0.57115-22.475 1.5053-33.111 3.1243-8.8059 1.3234-17.486 3.1652-25.537 6.1237-3.2368 1.186-6.4389 2.6076-9.4157 4.4365-2.5114 1.5224-4.8836 3.4638-6.8098 5.8425-35.049 44.513-57.091 74.057-55.591 75.046 0.57788 0.38108 4.648-3.5945 11.466-10.998 0.68808 0.28884 1.8694 0.59596 3.6134 0.96853 2.8697 0.61306 7.1164 1.3506 12.612 2.062 5.4957 0.71148 12.232 1.3948 20.047 2.0308 7.8157 0.63598 16.711 1.1958 26.51 1.6559 10.452 0.49148 21.96 0.88593 34.292 1.1248 12.332 0.23883 25.483 0.34567 39.296 0.34368 4.9023-0.00057 9.9188-0.0355 14.975-0.0625 0.0651 3.0736 0.15084 6.174 0.2432 9.3417 0.0147 0.50485 0.0194 0.99704 0.0347 1.4997-28.54-0.20193-56.805-0.40279-84.393-0.46865-33.897-0.081-67.018-0.006-99.16 0.31243-29.135 0.28867-57.493 0.76176-84.915 1.7184-22.146 0.77085-43.735 1.7952-64.624 3.7492-7.7118 0.72013-15.375 1.5847-22.931 2.8119-5.2629 0.83985-10.716 1.843-16.017 3.6242-2.5923 1.179-4.0541 2.7809-4.4472 4.3428-0.64945 1.8527-0.79352 3.4832-0.72963 4.8114 0.070189 3.7687 0.82891 7.2714 1.6677 10.466 1.5549 4.6699 3.1011 9.2756 4.621 13.841 2.72 3.1534 5.3905 6.2768 8.0606 9.373 2.9275 12.855 5.7145 25.282 8.3386 37.273 0.07743 0.0265 0.16585 0.0672 0.24321 0.0937 0.21398 0.0733 0.41193 0.14522 0.62539 0.2187 0.82678 0.28452 1.6473 0.55685 2.4668 0.84357 0.24292-0.1436 0.47789-0.26827 0.69488-0.40617 0.8191-0.52058 1.592-1.0479 2.3279-1.5934 2.6591-1.9707 5.0582-4.147 7.192-6.4361 7.4931-8.052 11.989-17.621 13.898-27.15 0.7515-3.9436 3.1123-7.6676 6.1497-10.685 3.1128-2.8611 6.8432-5.1479 10.423-5.0302 21.597-0.19423 41.206-0.4093 58.579-0.62486 3.0515-0.0792 6.0841 0.93666 8.7208 2.4057 3.254 1.819 5.9409 4.3672 8.3038 7.0297 3.2954 3.7298 5.8719 7.6629 8.0606 11.497 2.1888 3.8346 4.0034 7.5802 5.5938 11.091 2.1394 4.7406 3.8288 9.0867 5.2464 12.935 1.4175 3.848 2.5463 7.1845 3.4744 9.9978 1.0809 3.2774 1.8821 5.8151 2.4668 7.5609 0.31051 0.9271 0.56933 1.6519 0.76438 2.1245 0.10013 0.24277 0.17105 0.41106 0.2432 0.53112 0.0366 0.0607 0.0745 0.096 0.10419 0.12498 0.0377 0.0107 0.0584 0.0242 0.0695 0.0312 0.00083-0.002 0.0314 0.005 0.0347 0 0.006-0.01 0.004-0.009 0.0347-0.0312 0.0157-0.0369 0.0258-0.11848 0.0347-0.18746 0.0166-0.13608 0.0117-0.33391 0-0.59362-0.023-0.50561-0.10152-1.2226-0.24321-2.187-0.26687-1.8161-0.74978-4.4398-1.5287-7.8108-0.66824-2.8929-1.5315-6.3475-2.71-10.31-1.1786-3.9627-2.65-8.4258-4.5862-13.341-1.4238-3.63-3.0968-7.5607-5.2116-11.622-2.1148-4.0618-4.6779-8.2688-8.0606-12.404-2.4272-2.9787-5.4051-5.946-9.2767-8.3107-3.2298-1.9753-7.1715-3.3576-11.535-3.4368-17.373-0.21555-36.981-0.39939-58.579-0.59362-6.2056 0.11774-11.742 2.9547-15.6 6.7798-3.9318 3.6673-7.0136 8.4006-8.2344 13.809-1.8883 8.4748-6.0083 16.913-12.647 23.776-1.7928 1.8573-3.762 3.6061-5.8718 5.1551 0.07434 1.0516 0.13365 2.1417 0.20846 3.1868-0.06775-0.0318-0.1407-0.0618-0.20846-0.0937-0.1873-0.0882-0.36899-0.16154-0.5559-0.24994-0.72395-0.34241-1.4364-0.685-2.1541-1.031 0.14952-0.0851 0.28532-0.17918 0.45167-0.28119 0.6274-0.38469 1.2502-0.80139 1.8762-1.2497 0.12842-0.092 0.25498-0.18778 0.38218-0.28119-0.76396-10.807-1.5106-21.901-2.2236-33.368-2.663-3.2981-5.3785-6.6324-8.0954-9.9978-1.211-4.0879-2.4159-8.2109-3.6481-12.372-0.69442-2.9895-1.3016-5.813-1.2508-8.4669 0.039869-0.69636 0.064141-1.2594 0.13898-1.6559-0.28928 0.09-0.5833 0.15491-0.8686 0.24994 0.49367-0.34269 0.79278-0.50696 0.93809-0.59361 0.012563-0.0276 0.020235-0.0696 0.034744-0.0937 0.092303 0.002 0.07487 0.0284-0.034744 0.0937-0.041704 0.0922-0.04494 0.21361-0.069489 0.34367 4.1719-1.2972 8.7263-2.0928 13.515-2.8431 7.2261-1.1105 14.672-1.8808 22.271-2.5307 20.579-1.7568 41.99-2.5883 64.068-3.2181 27.3-0.77634 55.55-1.1201 84.637-1.281 32.081-0.17716 65.151-0.12646 99.021 0.0312 27.716 0.12908 56.119 0.34192 84.81 0.56237 0.14924 3.8305 0.30713 7.579 0.48642 11.216-1.3927 0.013-2.738 0.018-4.1346 0.0312-193.41 1.8378-350.36 5.5827-350.32 8.3419 0.03242 2.7592 157.02 3.4936 350.43 1.6559 1.5358-0.0146 3.0203-0.0164 4.5515-0.0312 1.6899 28.314 4.2297 48.074 6.4972 48.021 2.2642-0.0534 3.6413-19.857 3.6829-48.146 186.53-1.8835 335.62-5.4662 335.59-8.1545-0.0316-2.6879-149.13-3.4725-335.63-1.8121-0.0318-3.5744-0.10216-7.2687-0.17372-11.029 6.5321 0.0512 12.951 0.10355 19.526 0.15622 34.349 0.27521 68.139 0.55011 101.21 0.74984 35.286 0.21328 69.769 0.35042 103.22 0.31243 33.456-0.0379 65.891-0.28063 97.11-0.81233 4.1421-0.19421 8.5482 1.6638 12.438 4.1554 3.9971 2.7036 7.2859 6.1938 9.2419 10.092 1.016 1.9423 1.611 4.2229 2.0152 6.6236 0.44589 2.7596 0.55458 5.6199 0.48642 8.5294-0.1417 6.3194-1.1882 12.612-2.5363 18.871-1.5921 7.2611-3.1822 14.452-4.76 21.527-28.448 3.7572-55.45 7.3344-80.815 10.716-5.1045-8.2644-10.101-16.311-14.975-24.088-5.5756-6.9497-11.625-13.401-18.38-18.902-3.3552-2.7265-6.9187-5.2132-10.771-7.2797-3.6359-1.9597-7.6158-3.5156-11.778-4.374-10.455-2.1268-20.754-3.016-30.436-2.7494-9.6822 0.26662-18.727 1.6925-26.927 3.9991-5.107 1.4568-9.6214 3.6533-13.515 6.2486-3.8941 2.5954-7.1895 5.5764-9.9021 8.6544-3.2534 3.705-5.7746 7.5044-7.8174 11.154-2.0428 3.6494-3.6096 7.1695-4.8642 10.435-4.1629 17.812-6.1076 27.409-5.5591 27.525 0.5485 0.11668 3.5794-9.2538 8.686-26.682 1.3987-3.0966 3.043-6.3988 5.1421-9.7791 2.0992-3.3804 4.6549-6.8573 7.8174-10.154 2.6249-2.7468 5.7148-5.3724 9.3114-7.6233 3.5966-2.251 7.6789-4.1189 12.195-5.2489 7.7899-1.9915 16.37-3.1161 25.537-3.1556 9.1671-0.0395 18.943 1.0061 28.838 3.1868 3.3014 0.72142 6.5476 2.0991 9.6936 3.8429 3.3316 1.8564 6.5011 4.156 9.5546 6.7173 6.1172 5.1201 11.602 11.243 16.816 17.934 5.9009 8.3156 12.07 16.918 18.449 25.807 27.528-3.4127 57.22-7.1052 88.806-11.06 2.8929-8.0967 5.8415-16.329 8.8598-24.713 1.5187-6.6041 2.6802-13.486 2.9532-20.589 0.12176-3.2373 0.0474-6.5723-0.45167-9.9666-0.41699-2.947-1.2362-6.0077-2.71-9.0293-2.7134-5.4116-7.0054-10.092-12.23-13.622-5.0032-3.52-11.444-6.0225-18.588-6.0612-31.154 0.32786-63.523 0.41403-96.936 0.31243-33.413-0.10163-67.875-0.37321-103.16-0.65611-33.057-0.26525-66.82-0.56832-101.17-0.84356-6.689-0.0536-13.228-0.10664-19.874-0.15623-0.0168-0.6092-0.0169-1.1997-0.0347-1.8121-0.0907-3.1134-0.20097-6.164-0.3127-9.1855 9.739-0.0826 19.692-0.16614 29.845-0.31243 17.873-0.25753 35.187-0.57456 51.595-0.84358 16.408-0.269 31.913-0.50326 46.244-0.6561 3.1623-0.11387 5.8363-1.1769 7.7479-2.7806 2.0837-1.7289 3.4879-3.6948 4.4125-5.5925 2.0948-3.9628 2.9491-8.427 2.2584-12.778-0.62224-3.474-1.9972-6.5218-3.6481-9.1542-1.9884-3.2083-4.3097-5.994-6.6709-8.4357-3.0293-3.1294-6.1428-5.8234-9.1724-8.217s-5.985-4.4651-8.7555-6.3111c-3.9621-2.2747-7.5009-4.2629-10.597-5.9674 6.6344 0.63666 12.956 1.2548 18.658 1.8121 12.297 1.2019 22.262 2.1272 29.185 2.5619 6.9234 0.43479 10.818 0.38736 10.944-0.28118 0.12626-0.66854-3.5293-1.8981-10.25-3.4992-6.7202-1.6011-16.521-3.585-28.733-5.6863-12.212-2.1012-26.818-4.3162-43.187-6.2174s-34.488-3.4892-53.645-4.2178c-1.3261-0.0503-2.6601-0.0834-3.9956-0.12497-19.636-0.61077-38.396-0.18559-55.382 0.99978s-32.206 3.1141-44.855 5.2488c-12.648 2.1347-22.723 4.455-29.602 6.3736-3.8537 1.0748-6.6803 2.0122-8.4081 2.7494 1.6972-2.0035 3.2847-3.8598 5.0379-5.9362 1.1256-1.3636 2.7872-2.5544 4.6905-3.6867 2.2905-1.3386 4.9041-2.4231 7.7479-3.4055 7.1376-2.4579 15.138-3.9376 23.626-5.0926 10.181-1.3644 20.931-2.0929 32.069-2.5307 12.247-0.47823 24.914-0.55208 37.941-0.34367 8.39 0.13441 16.911 0.37232 25.537 0.71859 20.313 0.81543 40.047 2.1441 58.857 3.6867 28.857 2.0677 55.536 4.7988 79.008 7.8108 5.5024 6.9406 11.318 12.928 16.747 18.465 8.306 8.217 15.95 15.376 22.618 21.433 8.1081 7.3645 14.794 13.131 19.665 17.121 2.6847 2.1992 4.8225 3.8569 6.3582 4.9364 0.79753 0.56066 1.4112 0.94393 1.8762 1.1872 0.23647 0.12373 0.44314 0.21036 0.59065 0.24994 0.0744 0.0204 0.12235 0.0333 0.17372 0.0312 0.0534-0.0249 0.0874-0.0272 0.10419-0.0312 0.0162-0.004 0.0345-0.00023 0.0347 0-0.001-0.00029-0.004-0.0163 0-0.0312 0.004-0.015 0.005-0.0465 0.0347-0.0937 0.003-0.0461-0.0151-0.0888-0.0347-0.15623-0.0388-0.13384-0.11453-0.31431-0.24321-0.53112-0.25306-0.42638-0.66114-1.011-1.2508-1.7496-1.1354-1.4222-2.875-3.4175-5.1769-5.9362-4.1768-4.5703-10.207-10.879-17.685-18.715-6.1519-6.4457-13.289-13.906-21.09-22.37-5.8965-6.1919-12.281-12.801-18.345-20.183-24.142-4.0949-52.022-7.9538-82.344-11.06-18.932-1.7572-38.859-3.206-59.412-4.0304-8.7279-0.35008-17.346-0.58807-25.85-0.68735-3.302-0.0386-6.5671-0.0667-9.8326-0.0624zm8.8945 25.245c8.9046-0.0369 18.097 0.0843 27.517 0.37492 1.3113 0.0404 2.6238 0.0784 3.9261 0.12496 18.831 0.67074 36.694 1.911 52.95 3.2805 5.7557 0.48489 11.222 1.0054 16.538 1.4997 3.6611 2.7962 8.6764 6.418 15.044 10.873 2.4762 2.006 5.1045 4.1956 7.7479 6.6236s5.3086 5.1165 7.8174 8.092c1.974 2.3372 3.8357 4.8064 5.2811 7.4984 1.1709 2.2161 2.1356 4.519 2.3626 6.7798 0.33487 2.5737-0.46998 5.4649-1.9457 8.1857-0.71946 1.1798-1.4718 2.2152-2.3278 2.7806-0.6311 0.38067-1.2549 0.66096-1.5287 0.53113-14.389-0.28629-29.967-0.40812-46.418-0.37492-16.451 0.0333-33.757 0.24242-51.63 0.49989-10.47 0.15083-20.078 0.30279-30.088 0.46865-1.2297-26.837-3.2109-48.385-5.2464-57.238zm-3.5786 0.0312c-1.5212 8.8996-2.2801 30.516-1.9457 57.394-4.8628 0.0805-10.189 0.14436-14.905 0.21871-13.778 0.21687-26.916 0.40772-39.191 0.53113-12.275 0.12339-23.716 0.19046-34.119 0.18746-9.7597-0.003-18.586-0.0433-26.371-0.12497-7.7846-0.0815-14.503-0.2002-20.013-0.28119-5.5099-0.081-9.8159-0.13766-12.751-0.0625-1.2708 0.0326-2.2416 0.10536-2.988 0.18746 9.8467-10.744 25.159-28.341 44.125-50.708 1.3331 0.27002 4.9798 0.029 10.666-0.56238 7.0901-0.73741 17.282-1.9736 29.88-3.1868s27.628-2.4015 44.333-3.0618c7.4425-0.29419 15.236-0.46088 23.279-0.53113zm-204.95 40.27c-2.0528 0.0113-4.119 0.0315-6.254 0.0625-12.73 0.18382-26.915 0.72138-41.797 1.9058-3.3434 0.2661-6.6452 0.55476-9.9021 0.87481-8.6199 0.84683-16.919 1.9025-24.738 3.1868-7.6842 1.2598-14.948 2.7483-21.541 4.5615-3.4323 0.92689-6.6606 2.1362-9.5546 3.5617-2.894 1.4256-5.454 3.0786-7.6784 4.8427-4.225 3.3731-7.0124 7.1296-8.7208 10.466-1.8053 3.53-2.4565 6.5817-2.6058 8.7168-0.08014 1.1438-0.007 2.038 0.13898 2.6557 0.07566 0.31998 0.16726 0.54927 0.27795 0.71859 0.05639 0.0856 0.1112 0.17251 0.17372 0.2187 0.03153 0.0233 0.07148 0.0181 0.10423 0.0312 0.03461 0.0139 0.06852 0.0283 0.10423 0.0312 0.03571 0.003 0.06777 0.007 0.10423 0 0.03451-0.007 0.06887-0.0141 0.10423-0.0312 0.07011-0.0338 0.1339-0.0865 0.20846-0.15622 0.14644-0.13605 0.31385-0.32688 0.48642-0.59361 0.33307-0.51474 0.74427-1.2714 1.2508-2.2183 0.94508-1.7648 2.2821-4.2319 4.4472-6.936 2.0342-2.5393 4.8528-5.2821 8.6165-7.6234 1.9747-1.2396 4.2014-2.3562 6.7056-3.3118 2.5042-0.95561 5.2561-1.7379 8.1996-2.3432 6.3333-1.2933 13.334-2.3845 20.846-3.343 7.6282-0.97051 15.744-1.7794 24.217-2.5307 3.2021-0.28385 6.474-0.58179 9.7631-0.84357 14.64-1.1653 28.605-1.9976 41.207-2.7494 16.899-1.0073 31.303-1.8242 41.658-2.6557 5.3958-0.43326 9.6884-0.85646 12.647-1.3122 1.5012-0.23127 2.6534-0.47475 3.4397-0.71859 0.39564-0.12271 0.69988-0.24826 0.90334-0.37492 0.10194-0.0635 0.19084-0.12288 0.2432-0.18746 0.0271-0.0977 0.0212-0.16237 0.0347-0.18746-0.003-0.003 0.006-0.0186 0-0.0312-0.0128-0.0254-0.01-0.0891-0.0347-0.18746-0.0507-0.0657-0.14236-0.12197-0.2432-0.18746-0.20097-0.13058-0.47413-0.24617-0.86861-0.37492-0.78396-0.25586-1.9699-0.5087-3.4744-0.74984-2.9651-0.4752-7.2538-0.92314-12.682-1.281-9.1143-0.60093-21.417-0.9851-35.786-0.90605zm442.92 8.5919c-5.3861-0.003-8.5909 0.25791-8.7903 1.156-0.19937 0.89808 2.6585 2.3306 7.9216 3.8117 2.6316 0.74053 5.8716 1.4781 9.5894 2.187 3.7178 0.70888 7.9139 1.3904 12.473 2.0308 4.4826 0.63343 9.3016 1.2497 14.349 1.9058 5.0477 0.65609 10.312 1.3598 15.67 2.2495 0.32724 0.0546 0.67956 0.10024 1.0076 0.15622 5.1029 0.8709 9.983 1.8599 14.558 2.9994 4.5748 1.1394 8.8302 2.4437 12.716 3.8429 8.618 3.0826 15.445 6.7381 20.291 9.373 2.4227 1.3174 4.3644 2.3582 5.8023 2.9994 1.4379 0.64118 2.3677 0.86471 2.7448 0.53113 0.37711-0.33358 0.17728-1.1979-0.62539-2.4995-0.80266-1.3015-2.2127-3.0248-4.2388-5.0302-2.0261-2.0053-4.673-4.2802-7.9911-6.5923-3.3182-2.3121-7.3136-4.65-11.917-6.7798-4.1393-1.9065-8.7223-3.6353-13.654-5.0926-4.9322-1.4573-10.194-2.6468-15.635-3.5617-0.34974-0.0588-0.69384-0.13127-1.0423-0.18746-5.6889-0.92159-11.226-1.5304-16.434-1.9683-5.2077-0.43794-10.108-0.70272-14.627-0.90606-4.5982-0.21078-8.7834-0.33632-12.508-0.43741-3.7245-0.10109-6.9658-0.18545-9.6589-0.18745z"/>
  </g>
  <metadata>
    <rdf:RDF>
      <cc:Work>
        <dc:format>image/svg+xml</dc:format>
        <dc:type rdf:resource="http://purl.org/dc/dcmitype/StillImage"/>
        <cc:license rdf:resource="http://creativecommons.org/licenses/publicdomain/"/>
        <dc:publisher>
          <cc:Agent rdf:about="http://openclipart.org/">
            <dc:title>Openclipart</dc:title>
          </cc:Agent>
        </dc:publisher>
      </cc:Work>
      <cc:License rdf:about="http://creativecommons.org/licenses/publicdomain/">
        <cc:permits rdf:resource="http://creativecommons.org/ns#Reproduction"/>
        <cc:permits rdf:resource="http://creativecommons.org/ns#Distribution"/>
        <cc:permits rdf:resource="http://creativecommons.org/ns#DerivativeWorks"/>
      </cc:License>
    </rdf:RDF>
  </metadata>
</svg>
