<?xml version="1.0" encoding="UTF-8" standalone="no"?>
<!-- Created with Inkscape (http://www.inkscape.org/) -->

<svg
   xmlns:dc="http://purl.org/dc/elements/1.1/"
   xmlns:cc="http://creativecommons.org/ns#"
   xmlns:rdf="http://www.w3.org/1999/02/22-rdf-syntax-ns#"
   xmlns:svg="http://www.w3.org/2000/svg"
   xmlns="http://www.w3.org/2000/svg"
   xmlns:sodipodi="http://sodipodi.sourceforge.net/DTD/sodipodi-0.dtd"
   xmlns:inkscape="http://www.inkscape.org/namespaces/inkscape"
   width="218.50688"
   height="279.78876"
   id="svg8260"
   version="1.1"
   inkscape:version="0.48.0 r9654"
   sodipodi:docname="robot1.svg">
  <defs
     id="defs8262">
    <clipPath
       clipPathUnits="userSpaceOnUse"
       id="clipPath2999">
      <path
         inkscape:connector-curvature="0"
         d="m 0,841.89 595.28,0 L 595.28,0 0,0 0,841.89 z"
         id="path3001" />
    </clipPath>
    <clipPath
       clipPathUnits="userSpaceOnUse"
       id="clipPath3035">
      <path
         inkscape:connector-curvature="0"
         d="m 41.9951,67.6934 112.4579,0 0,-22.6592 -112.4579,0 0,22.6592 z"
         id="path3037" />
    </clipPath>
    <clipPath
       clipPathUnits="userSpaceOnUse"
       id="clipPath3051">
      <path
         inkscape:connector-curvature="0"
         d="m 26.2041,123.665 26.0903,0 0,-26.0898 -26.0903,0 0,26.0898 z"
         id="path3053" />
    </clipPath>
    <clipPath
       clipPathUnits="userSpaceOnUse"
       id="clipPath3067">
      <path
         inkscape:connector-curvature="0"
         d="m 130.539,204.587 20.12,0 0,-20.12 -20.12,0 0,20.12 z"
         id="path3069" />
    </clipPath>
    <clipPath
       clipPathUnits="userSpaceOnUse"
       id="clipPath3083">
      <path
         inkscape:connector-curvature="0"
         d="m 170.051,117.658 20.12,0 0,-20.1199 -20.12,0 0,20.1199 z"
         id="path3085" />
    </clipPath>
    <clipPath
       clipPathUnits="userSpaceOnUse"
       id="clipPath3099">
      <path
         inkscape:connector-curvature="0"
         d="m 168.851,259.599 10.399,0 0,-10.396 -10.399,0 0,10.396 z"
         id="path3101" />
    </clipPath>
    <clipPath
       clipPathUnits="userSpaceOnUse"
       id="clipPath3603">
      <path
         inkscape:connector-curvature="0"
         d="m 111.902,138.279 36.331,0 0,-22.982 -36.331,0 0,22.982 z"
         id="path3605" />
    </clipPath>
    <clipPath
       clipPathUnits="userSpaceOnUse"
       id="clipPath3587">
      <path
         inkscape:connector-curvature="0"
         d="m 92.3931,150.787 19.9529,0 0,-38.078 -19.9529,0 0,38.078 z"
         id="path3589" />
    </clipPath>
    <clipPath
       clipPathUnits="userSpaceOnUse"
       id="clipPath3571">
      <path
         inkscape:connector-curvature="0"
         d="m 77.3335,124.343 2.4443,0 0,-15.716 -2.4443,0 0,15.716 z"
         id="path3573" />
    </clipPath>
    <clipPath
       clipPathUnits="userSpaceOnUse"
       id="clipPath3555">
      <path
         inkscape:connector-curvature="0"
         d="m 72.2563,181.724 9.4278,0 0,-13.182 -9.4278,0 0,13.182 z"
         id="path3557" />
    </clipPath>
    <clipPath
       clipPathUnits="userSpaceOnUse"
       id="clipPath3539">
      <path
         inkscape:connector-curvature="0"
         d="m 95.4023,82.1387 8.0627,0 0,-18.8653 -8.0627,0 0,18.8653 z"
         id="path3541" />
    </clipPath>
    <clipPath
       clipPathUnits="userSpaceOnUse"
       id="clipPath3523">
      <path
         inkscape:connector-curvature="0"
         d="m 84.1904,93.9453 7.5254,0 0,-19.1357 -7.5254,0 0,19.1357 z"
         id="path3525" />
    </clipPath>
    <clipPath
       clipPathUnits="userSpaceOnUse"
       id="clipPath3507">
      <path
         inkscape:connector-curvature="0"
         d="m 68.4634,84.0537 7.5254,0 0,-16.3457 -7.5254,0 0,16.3457 z"
         id="path3509" />
    </clipPath>
    <clipPath
       clipPathUnits="userSpaceOnUse"
       id="clipPath3463">
      <path
         inkscape:connector-curvature="0"
         d="m 78.4902,208.245 6.8296,0 0,-13.099 -6.8296,0 0,13.099 z"
         id="path3465" />
    </clipPath>
    <clipPath
       clipPathUnits="userSpaceOnUse"
       id="clipPath3447">
      <path
         inkscape:connector-curvature="0"
         d="m 84.5913,217.084 15.0156,0 0,-7.98 -15.0156,0 0,7.98 z"
         id="path3449" />
    </clipPath>
    <clipPath
       clipPathUnits="userSpaceOnUse"
       id="clipPath3431">
      <path
         inkscape:connector-curvature="0"
         d="m 89.3447,195.42 2.523,0 0,-2.524 -2.523,0 0,2.524 z"
         id="path3433" />
    </clipPath>
    <clipPath
       clipPathUnits="userSpaceOnUse"
       id="clipPath3415">
      <path
         inkscape:connector-curvature="0"
         d="m 88.6685,206.906 10.997,0 0,-10.716 -10.997,0 0,10.716 z"
         id="path3417" />
    </clipPath>
    <clipPath
       clipPathUnits="userSpaceOnUse"
       id="clipPath3367">
      <path
         inkscape:connector-curvature="0"
         d="m 54.5312,251.156 7.1314,0 0,-21.127 -7.1314,0 0,21.127 z"
         id="path3369" />
    </clipPath>
    <clipPath
       clipPathUnits="userSpaceOnUse"
       id="clipPath3319">
      <path
         inkscape:connector-curvature="0"
         d="m 43.9619,159.644 2.9746,0 0,-2.975 -2.9746,0 0,2.975 z"
         id="path3321" />
    </clipPath>
    <clipPath
       clipPathUnits="userSpaceOnUse"
       id="clipPath3303">
      <path
         inkscape:connector-curvature="0"
         d="m 37.2637,175.682 6.6181,0 0,-16.842 -6.6181,0 0,16.842 z"
         id="path3305" />
    </clipPath>
  </defs>
  <sodipodi:namedview
     id="base"
     pagecolor="#ffffff"
     bordercolor="#666666"
     borderopacity="1.0"
     inkscape:pageopacity="0.0"
     inkscape:pageshadow="2"
     inkscape:zoom="0.98994949"
     inkscape:cx="-1.1494927"
     inkscape:cy="183.54702"
     inkscape:document-units="px"
     inkscape:current-layer="layer1"
     showgrid="false"
     fit-margin-top="0"
     fit-margin-left="0"
     fit-margin-right="0"
     fit-margin-bottom="0"
     inkscape:window-width="1366"
     inkscape:window-height="706"
     inkscape:window-x="-8"
     inkscape:window-y="-8"
     inkscape:window-maximized="1" />
  <metadata
     id="metadata8265">
    <rdf:RDF>
      <cc:Work
         rdf:about="">
        <dc:format>image/svg+xml</dc:format>
        <dc:type
           rdf:resource="http://purl.org/dc/dcmitype/StillImage" />
        <dc:title></dc:title>
      </cc:Work>
    </rdf:RDF>
  </metadata>
  <g
     inkscape:label="Layer 1"
     inkscape:groupmode="layer"
     id="layer1"
     transform="translate(-994.83773,-627.33979)">
    <g
       transform="matrix(1.25,0,0,-1.25,966.14673,951.83767)"
       id="g2995">
      <g
         id="g2997"
         clip-path="url(#clipPath2999)">
        <g
           id="g3003"
           transform="translate(59.5649,179.6807)">
          <path
             inkscape:connector-curvature="0"
             d="m 0,0 c 0,-6.472 -5.246,-11.717 -11.716,-11.717 -6.47,0 -11.716,5.245 -11.716,11.717 0,6.472 5.246,11.715 11.716,11.715 C -5.246,11.715 0,6.472 0,0"
             style="fill:#fcdf60;fill-opacity:1;fill-rule:nonzero;stroke:none"
             id="path3005" />
        </g>
        <g
           id="g3007"
           transform="translate(59.5649,154.7832)">
          <path
             inkscape:connector-curvature="0"
             d="m 0,0 c 0,-6.469 -5.246,-11.715 -11.716,-11.715 -6.47,0 -11.716,5.246 -11.716,11.715 0,6.472 5.246,11.718 11.716,11.718 C -5.246,11.718 0,6.472 0,0"
             style="fill:#fcdf60;fill-opacity:1;fill-rule:nonzero;stroke:none"
             id="path3009" />
        </g>
        <g
           id="g3011"
           transform="translate(46.3848,172.3574)">
          <path
             inkscape:connector-curvature="0"
             d="m 0,0 c 0,-6.47 -5.247,-11.715 -11.716,-11.715 -6.471,0 -11.716,5.245 -11.716,11.715 0,6.472 5.245,11.717 11.716,11.717 C -5.247,11.717 0,6.472 0,0"
             style="fill:#fcdf60;fill-opacity:1;fill-rule:nonzero;stroke:none"
             id="path3013" />
        </g>
        <g
           id="g3015"
           transform="translate(47.8486,160.6426)">
          <path
             inkscape:connector-curvature="0"
             d="m 0,0 c 0,-6.472 -5.245,-11.716 -11.716,-11.716 -6.47,0 -11.716,5.244 -11.716,11.716 0,6.47 5.246,11.715 11.716,11.715 C -5.245,11.715 0,6.47 0,0"
             style="fill:#fcdf60;fill-opacity:1;fill-rule:nonzero;stroke:none"
             id="path3017" />
        </g>
        <g
           id="g3019"
           transform="translate(47.8486,172.3574)">
          <path
             inkscape:connector-curvature="0"
             d="m 0,0 c 0,-6.47 5.247,-11.715 11.716,-11.715 6.47,0 11.716,5.245 11.716,11.715 0,6.472 -5.246,11.717 -11.716,11.717 C 5.247,11.717 0,6.472 0,0"
             style="fill:#fcdf60;fill-opacity:1;fill-rule:nonzero;stroke:none"
             id="path3021" />
        </g>
        <g
           id="g3023"
           transform="translate(46.3848,160.6426)">
          <path
             inkscape:connector-curvature="0"
             d="m 0,0 c 0,-6.472 5.246,-11.716 11.716,-11.716 6.47,0 11.715,5.244 11.715,11.716 0,6.47 -5.245,11.715 -11.715,11.715 C 5.246,11.715 0,6.47 0,0"
             style="fill:#fcdf60;fill-opacity:1;fill-rule:nonzero;stroke:none"
             id="path3025" />
        </g>
        <g
           id="g3027"
           transform="translate(197.7583,58.5273)">
          <path
             inkscape:connector-curvature="0"
             d="m 0,0 c 0,-12.569 -39.061,-22.76 -87.245,-22.76 -48.185,0 -87.246,10.191 -87.246,22.76 0,12.569 39.061,22.76 87.246,22.76 C -39.061,22.76 0,12.569 0,0"
             style="fill:#79c14f;fill-opacity:1;fill-rule:nonzero;stroke:none"
             id="path3029" />
        </g>
        <g
           id="g3031">
          <g
             id="g3033" />
          <g
             id="g3039">
            <g
               style="opacity:0.5"
               clip-path="url(#clipPath3035)"
               id="g3041">
              <g
                 transform="translate(45.7114,67.6934)"
                 id="g3043">
                <path
                   inkscape:connector-curvature="0"
                   d="m 0,0 c 0,0 14.541,-26.551 108.741,-15.805 0,0 -61.958,-14.541 -101.787,-1.264 0,0 -18.316,8.25 -6.954,17.069"
                   style="fill:#ffffff;fill-opacity:1;fill-rule:nonzero;stroke:none"
                   id="path3045" />
              </g>
            </g>
          </g>
        </g>
        <g
           id="g3047">
          <g
             id="g3049" />
          <g
             id="g3055">
            <g
               style="opacity:0.19000202"
               clip-path="url(#clipPath3051)"
               id="g3057">
              <g
                 transform="translate(52.2944,110.626)"
                 id="g3059">
                <path
                   inkscape:connector-curvature="0"
                   d="m 0,0 c 0,-7.209 -5.836,-13.051 -13.045,-13.051 -7.209,0 -13.045,5.842 -13.045,13.051 0,7.205 5.836,13.039 13.045,13.039 C -5.836,13.039 0,7.205 0,0"
                   style="fill:#79c14f;fill-opacity:1;fill-rule:nonzero;stroke:none"
                   id="path3061" />
              </g>
            </g>
          </g>
        </g>
        <g
           id="g3063">
          <g
             id="g3065" />
          <g
             id="g3071">
            <g
               style="opacity:0.32000703"
               clip-path="url(#clipPath3067)"
               id="g3073">
              <g
                 transform="translate(150.6587,194.5313)"
                 id="g3075">
                <path
                   inkscape:connector-curvature="0"
                   d="m 0,0 c 0,-5.56 -4.5,-10.064 -10.059,-10.064 -5.56,0 -10.061,4.504 -10.061,10.064 0,5.555 4.501,10.056 10.061,10.056 C -4.5,10.056 0,5.555 0,0"
                   style="fill:#79c14f;fill-opacity:1;fill-rule:nonzero;stroke:none"
                   id="path3077" />
              </g>
            </g>
          </g>
        </g>
        <g
           id="g3079">
          <g
             id="g3081" />
          <g
             id="g3087">
            <g
               style="opacity:0.32000703"
               clip-path="url(#clipPath3083)"
               id="g3089">
              <g
                 transform="translate(190.1714,107.6025)"
                 id="g3091">
                <path
                   inkscape:connector-curvature="0"
                   d="m 0,0 c 0,-5.56 -4.5,-10.064 -10.061,-10.064 -5.558,0 -10.059,4.504 -10.059,10.064 0,5.555 4.501,10.056 10.059,10.056 C -4.5,10.056 0,5.555 0,0"
                   style="fill:#79c14f;fill-opacity:1;fill-rule:nonzero;stroke:none"
                   id="path3093" />
              </g>
            </g>
          </g>
        </g>
        <g
           id="g3095">
          <g
             id="g3097" />
          <g
             id="g3103">
            <g
               style="opacity:0.32000703"
               clip-path="url(#clipPath3099)"
               id="g3105">
              <g
                 transform="translate(179.2495,254.4053)"
                 id="g3107">
                <path
                   inkscape:connector-curvature="0"
                   d="m 0,0 c 0,-2.874 -2.328,-5.202 -5.199,-5.202 -2.871,0 -5.199,2.328 -5.199,5.202 0,2.871 2.328,5.193 5.199,5.193 C -2.328,5.193 0,2.871 0,0"
                   style="fill:#79c14f;fill-opacity:1;fill-rule:nonzero;stroke:none"
                   id="path3109" />
              </g>
            </g>
          </g>
        </g>
      </g>
    </g>
    <g
       id="g3291"
       transform="matrix(1.25,0,0,-1.25,1040.6029,743.14254)">
      <path
         d="m 0,0 c 0,-6.472 -5.246,-11.715 -11.716,-11.715 -6.47,0 -11.716,5.243 -11.716,11.715 0,6.472 5.246,11.717 11.716,11.717 C -5.246,11.717 0,6.472 0,0"
         style="fill:#f89c33;fill-opacity:1;fill-rule:nonzero;stroke:none"
         id="path3293"
         inkscape:connector-curvature="0" />
    </g>
    <g
       id="g3295"
       transform="matrix(1.25,0,0,-1.25,1036.8895,665.90629)">
      <path
         d="m 0,0 c 0,0 -12.311,12.01 6.282,25.177 0,0 15.914,-14.112 0.701,-24.884 C 6.983,0.293 4.085,-2.182 0,0"
         style="fill:#295d52;fill-opacity:1;fill-rule:nonzero;stroke:none"
         id="path3297"
         inkscape:connector-curvature="0" />
    </g>
    <g
       transform="matrix(1.25,0,0,-1.25,966.14673,951.83767)"
       id="g3299">
      <g
         id="g3301" />
      <g
         id="g3307">
        <g
           clip-path="url(#clipPath3303)"
           id="g3309"
           style="opacity:0.5">
          <g
             transform="translate(42.4175,174.2168)"
             id="g3311">
            <path
               d="M 0,0 C 0,0 -8.115,-6.071 -0.275,-13.912"
               style="fill:none;stroke:#ffffff;stroke-width:2.9289999;stroke-linecap:round;stroke-linejoin:miter;stroke-miterlimit:4;stroke-opacity:1;stroke-dasharray:none"
               id="path3313"
               inkscape:connector-curvature="0" />
          </g>
        </g>
      </g>
    </g>
    <g
       transform="matrix(1.25,0,0,-1.25,966.14673,951.83767)"
       id="g3315">
      <g
         id="g3317" />
      <g
         id="g3323">
        <g
           clip-path="url(#clipPath3319)"
           id="g3325"
           style="opacity:0.5">
          <g
             transform="translate(46.9365,158.1582)"
             id="g3327">
            <path
               d="m 0,0 c 0,-0.822 -0.665,-1.489 -1.487,-1.489 -0.822,0 -1.488,0.667 -1.488,1.489 0,0.82 0.666,1.485 1.488,1.485 C -0.665,1.485 0,0.82 0,0"
               style="fill:#ffffff;fill-opacity:1;fill-rule:nonzero;stroke:none"
               id="path3329"
               inkscape:connector-curvature="0" />
          </g>
        </g>
      </g>
    </g>
    <g
       transform="matrix(1.25,0,0,-1.25,966.14673,951.83767)"
       id="g3363">
      <g
         id="g3365" />
      <g
         id="g3371">
        <g
           clip-path="url(#clipPath3367)"
           id="g3373"
           style="opacity:0.5">
          <g
             transform="translate(57.5698,231.5518)"
             id="g3375">
            <path
               d="m 0,0 c -0.809,0.646 -8.442,10.729 4.093,19.604 0,0 -8.961,-10.416 -0.992,-19.207 0,0 1.45,-4.041 -3.101,-0.397"
               style="fill:#ffffff;fill-opacity:1;fill-rule:nonzero;stroke:none"
               id="path3377"
               inkscape:connector-curvature="0" />
          </g>
        </g>
      </g>
    </g>
    <g
       id="g3379"
       transform="matrix(1.25,0,0,-1.25,1041.212,771.21017)">
      <path
         d="m 0,0 c 0,0 -0.49,-30.755 41.004,-60.046 l 3.904,3.906 c 0,0 -28.377,10.08 -44.908,56.14"
         style="fill:#79c14f;fill-opacity:1;fill-rule:nonzero;stroke:none"
         id="path3381"
         inkscape:connector-curvature="0" />
    </g>
    <g
       id="g3383"
       transform="matrix(1.25,0,0,-1.25,1106.129,703.58454)">
      <path
         d="m 0,0 c -3.883,-3.882 -10.175,-3.882 -14.057,0 -3.881,3.883 -3.881,10.174 0,14.055 3.882,3.882 10.176,3.882 14.057,0 C 3.882,10.174 3.882,3.883 0,0"
         style="fill:#e53464;fill-opacity:1;fill-rule:nonzero;stroke:none"
         id="path3385"
         inkscape:connector-curvature="0" />
    </g>
    <g
       id="g3387"
       transform="matrix(1.25,0,0,-1.25,1087.4609,722.25392)">
      <path
         d="m 0,0 c -3.882,-3.881 -10.176,-3.881 -14.057,0 -3.88,3.882 -3.88,10.176 0,14.058 3.881,3.88 10.175,3.88 14.057,0 C 3.882,10.176 3.882,3.882 0,0"
         style="fill:#e53464;fill-opacity:1;fill-rule:nonzero;stroke:none"
         id="path3389"
         inkscape:connector-curvature="0" />
    </g>
    <g
       id="g3391"
       transform="matrix(1.25,0,0,-1.25,1090.7555,699.19242)">
      <path
         d="m 0,0 c -3.882,-3.882 -10.176,-3.88 -14.057,0 -3.881,3.881 -3.881,10.174 0,14.057 3.883,3.881 10.176,3.881 14.057,0 C 3.88,10.174 3.88,3.881 0,0"
         style="fill:#e53464;fill-opacity:1;fill-rule:nonzero;stroke:none"
         id="path3393"
         inkscape:connector-curvature="0" />
    </g>
    <g
       id="g3395"
       transform="matrix(1.25,0,0,-1.25,1083.0662,709.07642)">
      <path
         d="m 0,0 c -3.88,-3.882 -10.172,-3.882 -14.055,0 -3.881,3.883 -3.883,10.177 0,14.057 3.883,3.88 10.175,3.88 14.055,0 C 3.882,10.177 3.882,3.883 0,0"
         style="fill:#e53464;fill-opacity:1;fill-rule:nonzero;stroke:none"
         id="path3397"
         inkscape:connector-curvature="0" />
    </g>
    <g
       id="g3399"
       transform="matrix(1.25,0,0,-1.25,1091.8554,700.29229)">
      <path
         d="m 0,0 c -3.883,-3.88 -3.883,-10.172 0,-14.054 3.88,-3.883 10.174,-3.883 14.054,0 3.883,3.882 3.883,10.174 0,14.054 C 10.174,3.883 3.88,3.883 0,0"
         style="fill:#e53464;fill-opacity:1;fill-rule:nonzero;stroke:none"
         id="path3401"
         inkscape:connector-curvature="0" />
    </g>
    <g
       id="g3403"
       transform="matrix(1.25,0,0,-1.25,1081.9689,707.97904)">
      <path
         d="m 0,0 c -3.88,-3.88 -3.88,-10.174 0,-14.054 3.883,-3.883 10.176,-3.883 14.057,0 3.881,3.88 3.881,10.174 0,14.054 C 10.176,3.883 3.883,3.883 0,0"
         style="fill:#e53464;fill-opacity:1;fill-rule:nonzero;stroke:none"
         id="path3405"
         inkscape:connector-curvature="0" />
    </g>
    <g
       id="g3407"
       transform="matrix(1.25,0,0,-1.25,1096.588,713.12554)">
      <path
         d="m 0,0 c -3.883,-3.882 -10.177,-3.882 -14.057,0 -3.881,3.881 -3.881,10.174 0,14.057 3.882,3.881 10.174,3.88 14.057,0 C 3.88,10.174 3.882,3.881 0,0"
         style="fill:#f89c33;fill-opacity:1;fill-rule:nonzero;stroke:none"
         id="path3409"
         inkscape:connector-curvature="0" />
    </g>
    <g
       transform="matrix(1.25,0,0,-1.25,966.14673,951.83767)"
       id="g3411">
      <g
         id="g3413" />
      <g
         id="g3419">
        <g
           clip-path="url(#clipPath3415)"
           id="g3421"
           style="opacity:0.5">
          <g
             transform="translate(98.4233,205.6113)"
             id="g3423">
            <path
               d="M 0,0 C 0,0 -8.513,1.227 -8.513,-8.179"
               style="fill:none;stroke:#ffffff;stroke-width:2.4849999;stroke-linecap:round;stroke-linejoin:miter;stroke-miterlimit:4;stroke-opacity:1;stroke-dasharray:none"
               id="path3425"
               inkscape:connector-curvature="0" />
          </g>
        </g>
      </g>
    </g>
    <g
       transform="matrix(1.25,0,0,-1.25,966.14673,951.83767)"
       id="g3427">
      <g
         id="g3429" />
      <g
         id="g3435">
        <g
           clip-path="url(#clipPath3431)"
           id="g3437"
           style="opacity:0.5">
          <g
             transform="translate(91.4985,193.2666)"
             id="g3439">
            <path
               d="m 0,0 c -0.493,-0.493 -1.291,-0.494 -1.786,0 -0.49,0.492 -0.49,1.291 0,1.783 0.495,0.493 1.293,0.493 1.786,0 C 0.492,1.291 0.492,0.492 0,0"
               style="fill:#ffffff;fill-opacity:1;fill-rule:nonzero;stroke:none"
               id="path3441"
               inkscape:connector-curvature="0" />
          </g>
        </g>
      </g>
    </g>
    <g
       transform="matrix(1.25,0,0,-1.25,966.14673,951.83767)"
       id="g3443">
      <g
         id="g3445" />
      <g
         id="g3451">
        <g
           clip-path="url(#clipPath3447)"
           id="g3453"
           style="opacity:0.5">
          <g
             transform="translate(84.7153,210.9082)"
             id="g3455">
            <path
               d="M 0,0 C 0.293,1.001 1.022,2.284 1.38,2.738 1.964,3.482 2.793,4.046 3.553,4.594 5.511,5.998 7.641,6.561 10.019,5.901 11.788,5.412 13.507,4.279 14.892,3.1 12.925,4.771 9.891,4.753 7.535,4.104 6.287,3.761 4.982,3.153 4.057,2.227 3.071,1.245 2.771,-0.459 1.774,-1.344 1.034,-2 0.297,-2.009 -0.077,-1.021 -0.166,-0.785 -0.122,-0.416 0,0"
               style="fill:#ffffff;fill-opacity:1;fill-rule:nonzero;stroke:none"
               id="path3457"
               inkscape:connector-curvature="0" />
          </g>
        </g>
      </g>
    </g>
    <g
       transform="matrix(1.25,0,0,-1.25,966.14673,951.83767)"
       id="g3459">
      <g
         id="g3461" />
      <g
         id="g3467">
        <g
           clip-path="url(#clipPath3463)"
           id="g3469"
           style="opacity:0.5">
          <g
             transform="translate(79.7515,195.8691)"
             id="g3471">
            <path
               d="m 0,0 c -0.515,0.777 -0.994,2.029 -1.114,2.547 -0.199,0.839 -0.149,1.752 -0.119,2.605 0.063,2.194 0.78,4.033 2.437,5.352 1.234,0.979 2.867,1.556 4.364,1.872 C 3.445,11.928 1.904,9.757 1.128,7.709 0.719,6.623 0.456,5.347 0.597,4.16 0.747,2.896 1.727,1.709 1.807,0.496 1.867,-0.406 1.493,-0.938 0.642,-0.641 0.438,-0.567 0.215,-0.326 0,0"
               style="fill:#ffffff;fill-opacity:1;fill-rule:nonzero;stroke:none"
               id="path3473"
               inkscape:connector-curvature="0" />
          </g>
        </g>
      </g>
    </g>
    <g
       id="g3475"
       transform="matrix(1.25,0,0,-1.25,1079.5726,728.07054)">
      <path
         d="m 0,0 c 0,0 -22.093,-21.399 -13.464,-71.453 l 5.524,0.002 c 0,0 -12.939,27.193 7.94,71.451"
         style="fill:#79c14f;fill-opacity:1;fill-rule:nonzero;stroke:none"
         id="path3477"
         inkscape:connector-curvature="0" />
    </g>
    <g
       id="g3479"
       transform="matrix(1.25,0,0,-1.25,1040.277,669.19604)">
      <path
         d="m 0,0 c 0,0 -1.174,-29.934 21.521,-59.155 l 2.331,3.738 C 23.852,-55.417 8.041,-45.121 0,0"
         style="fill:#79c14f;fill-opacity:1;fill-rule:nonzero;stroke:none"
         id="path3481"
         inkscape:connector-curvature="0" />
    </g>
    <g
       id="g3483"
       transform="matrix(1.25,0,0,-1.25,1080.8739,821.85842)">
      <path
         d="M 0,0 C 0,0 -10.25,33.195 50.281,72.737 50.281,72.737 15.133,45.399 0,0"
         style="fill:#79c14f;fill-opacity:1;fill-rule:nonzero;stroke:none"
         id="path3485"
         inkscape:connector-curvature="0" />
    </g>
    <g
       id="g3487"
       transform="matrix(1.25,0,0,-1.25,1088.6437,821.96467)">
      <path
         d="M 0,0 C 0,0 46.02,53.145 96.353,51.504 96.353,51.504 48.354,42.033 0,0"
         style="fill:#79c14f;fill-opacity:1;fill-rule:nonzero;stroke:none"
         id="path3489"
         inkscape:connector-curvature="0" />
    </g>
    <g
       id="g3491"
       transform="matrix(1.25,0,0,-1.25,1103.6351,846.77054)">
      <path
         d="m 0,0 c 0,-7.92 -6.42,-14.339 -14.34,-14.339 -7.92,0 -14.34,6.419 -14.34,14.339 0,7.921 6.42,14.342 14.34,14.342 C -6.42,14.342 0,7.921 0,0"
         style="fill:#ac7d66;fill-opacity:1;fill-rule:nonzero;stroke:none"
         id="path3493"
         inkscape:connector-curvature="0" />
    </g>
    <g
       id="g3495"
       transform="matrix(1.25,0,0,-1.25,1082.3436,856.45679)">
      <path
         d="m 0,0 c 0,-6.013 -6.419,-10.888 -14.339,-10.888 -7.921,0 -14.342,4.875 -14.342,10.888 0,6.012 6.421,10.887 14.342,10.887 C -6.419,10.887 0,6.012 0,0"
         style="fill:#ac7d66;fill-opacity:1;fill-rule:nonzero;stroke:none"
         id="path3497"
         inkscape:connector-curvature="0" />
    </g>
    <g
       id="g3499"
       transform="matrix(1.25,0,0,-1.25,1127.4315,860.77442)">
      <path
         d="m 0,0 c 0,-7.92 -8.439,-14.34 -18.849,-14.34 -10.411,0 -18.849,6.42 -18.849,14.34 0,7.92 8.438,14.341 18.849,14.341 C -8.439,14.341 0,7.92 0,0"
         style="fill:#ac7d66;fill-opacity:1;fill-rule:nonzero;stroke:none"
         id="path3501"
         inkscape:connector-curvature="0" />
    </g>
    <g
       transform="matrix(1.25,0,0,-1.25,966.14673,951.83767)"
       id="g3503">
      <g
         id="g3505" />
      <g
         id="g3511">
        <g
           clip-path="url(#clipPath3507)"
           id="g3513"
           style="opacity:0.5">
          <g
             transform="translate(74.8188,84.0537)"
             id="g3515">
            <path
               d="M 0,0 C 0,0 -12.082,-4.845 -2.929,-13.996 6.224,-23.15 -3.295,-2.796 0,0"
               style="fill:#ffffff;fill-opacity:1;fill-rule:nonzero;stroke:none"
               id="path3517"
               inkscape:connector-curvature="0" />
          </g>
        </g>
      </g>
    </g>
    <g
       transform="matrix(1.25,0,0,-1.25,966.14673,951.83767)"
       id="g3519">
      <g
         id="g3521" />
      <g
         id="g3527">
        <g
           clip-path="url(#clipPath3523)"
           id="g3529"
           style="opacity:0.5">
          <g
             transform="translate(90.5464,93.9453)"
             id="g3531">
            <path
               d="M 0,0 C 0,0 -12.082,-5.674 -2.931,-16.387 6.224,-27.1 -3.295,-3.275 0,0"
               style="fill:#ffffff;fill-opacity:1;fill-rule:nonzero;stroke:none"
               id="path3533"
               inkscape:connector-curvature="0" />
          </g>
        </g>
      </g>
    </g>
    <g
       transform="matrix(1.25,0,0,-1.25,966.14673,951.83767)"
       id="g3535">
      <g
         id="g3537" />
      <g
         id="g3543">
        <g
           clip-path="url(#clipPath3539)"
           id="g3545"
           style="opacity:0.5">
          <g
             transform="translate(103.4653,82.1387)"
             id="g3547">
            <path
               d="M 0,0 C 0,0 -12.948,-3.239 -6.027,-15.516 0.895,-27.788 -3.863,-2.578 0,0"
               style="fill:#ffffff;fill-opacity:1;fill-rule:nonzero;stroke:none"
               id="path3549"
               inkscape:connector-curvature="0" />
          </g>
        </g>
      </g>
    </g>
    <g
       transform="matrix(1.25,0,0,-1.25,966.14673,951.83767)"
       id="g3551">
      <g
         id="g3553" />
      <g
         id="g3559">
        <g
           clip-path="url(#clipPath3555)"
           id="g3561"
           style="opacity:0.5">
          <g
             transform="translate(80.8599,168.542)"
             id="g3563">
            <path
               d="m 0,0 c 0,0 -6.773,8.513 -8.604,13.182 0,0 7.377,-10.597 9.428,-11.808 L 0,0 z"
               style="fill:#ffffff;fill-opacity:1;fill-rule:nonzero;stroke:none"
               id="path3565"
               inkscape:connector-curvature="0" />
          </g>
        </g>
      </g>
    </g>
    <g
       transform="matrix(1.25,0,0,-1.25,966.14673,951.83767)"
       id="g3567">
      <g
         id="g3569" />
      <g
         id="g3575">
        <g
           clip-path="url(#clipPath3571)"
           id="g3577"
           style="opacity:0.5">
          <g
             transform="translate(78.3755,108.627)"
             id="g3579">
            <path
               d="m 0,0 c 0,0 -1.595,10.76 -0.839,15.716 0,0 1.072,-12.865 2.241,-14.942 L 0,0 z"
               style="fill:#ffffff;fill-opacity:1;fill-rule:nonzero;stroke:none"
               id="path3581"
               inkscape:connector-curvature="0" />
          </g>
        </g>
      </g>
    </g>
    <g
       transform="matrix(1.25,0,0,-1.25,966.14673,951.83767)"
       id="g3583">
      <g
         id="g3585" />
      <g
         id="g3591">
        <g
           clip-path="url(#clipPath3587)"
           id="g3593"
           style="opacity:0.5">
          <g
             transform="translate(92.3931,112.709)"
             id="g3595">
            <path
               d="M 0,0 C 0,0 0.365,16.659 19.953,38.078 19.953,38.078 0.609,11.898 0,0"
               style="fill:#ffffff;fill-opacity:1;fill-rule:nonzero;stroke:none"
               id="path3597"
               inkscape:connector-curvature="0" />
          </g>
        </g>
      </g>
    </g>
    <g
       transform="matrix(1.25,0,0,-1.25,966.14673,951.83767)"
       id="g3599">
      <g
         id="g3601" />
      <g
         id="g3607">
        <g
           clip-path="url(#clipPath3603)"
           id="g3609"
           style="opacity:0.5">
          <g
             transform="translate(111.9019,115.2969)"
             id="g3611">
            <path
               d="M 0,0 C 0,0 8.653,14.239 36.331,22.982 36.331,22.982 6.484,9.996 0,0"
               style="fill:#ffffff;fill-opacity:1;fill-rule:nonzero;stroke:none"
               id="path3613"
               inkscape:connector-curvature="0" />
          </g>
        </g>
      </g>
    </g>
  </g>
</svg>
