<?xml version="1.0" encoding="UTF-8" standalone="no"?>
<!-- Created with Inkscape (http://www.inkscape.org/) -->
<svg
   xmlns:dc="http://purl.org/dc/elements/1.1/"
   xmlns:cc="http://creativecommons.org/ns#"
   xmlns:rdf="http://www.w3.org/1999/02/22-rdf-syntax-ns#"
   xmlns:svg="http://www.w3.org/2000/svg"
   xmlns="http://www.w3.org/2000/svg"
   xmlns:sodipodi="http://sodipodi.sourceforge.net/DTD/sodipodi-0.dtd"
   xmlns:inkscape="http://www.inkscape.org/namespaces/inkscape"
   width="1140.47"
   height="958.77002"
   id="svg2383"
   sodipodi:version="0.32"
   inkscape:version="0.46"
   sodipodi:docname="flower.svg"
   inkscape:output_extension="org.inkscape.output.svg.inkscape"
   version="1.0"
   style="enable-background:new">
  <defs
     id="defs2385">
    <inkscape:perspective
       sodipodi:type="inkscape:persp3d"
       inkscape:vp_x="0 : 372.04724 : 1"
       inkscape:vp_y="0 : 1000 : 0"
       inkscape:vp_z="1052.3622 : 372.04724 : 1"
       inkscape:persp3d-origin="526.18109 : 248.03149 : 1"
       id="perspective2392" />
    <inkscape:perspective
       id="perspective2555"
       inkscape:persp3d-origin="264.90015 : 122.39999 : 1"
       inkscape:vp_z="529.80029 : 183.59999 : 1"
       inkscape:vp_y="0 : 1000 : 0"
       inkscape:vp_x="0 : 183.59999 : 1"
       sodipodi:type="inkscape:persp3d" />
    <filter
       inkscape:collect="always"
       id="filter3525">
      <feGaussianBlur
         inkscape:collect="always"
         stdDeviation="5.1812153"
         id="feGaussianBlur3527" />
    </filter>
    <filter
       inkscape:collect="always"
       id="filter3725">
      <feGaussianBlur
         inkscape:collect="always"
         stdDeviation="6.842772"
         id="feGaussianBlur3727" />
    </filter>
    <filter
       inkscape:collect="always"
       id="filter3809">
      <feGaussianBlur
         inkscape:collect="always"
         stdDeviation="3.2133648"
         id="feGaussianBlur3811" />
    </filter>
    <filter
       inkscape:collect="always"
       id="filter3837">
      <feGaussianBlur
         inkscape:collect="always"
         stdDeviation="13.6568"
         id="feGaussianBlur3839" />
    </filter>
    <filter
       inkscape:collect="always"
       id="filter3885">
      <feGaussianBlur
         inkscape:collect="always"
         stdDeviation="3.9101554"
         id="feGaussianBlur3887" />
    </filter>
    <filter
       inkscape:collect="always"
       id="filter3901">
      <feGaussianBlur
         inkscape:collect="always"
         stdDeviation="5.1812153"
         id="feGaussianBlur3903" />
    </filter>
    <filter
       inkscape:collect="always"
       id="filter3216"
       x="-0.33737227"
       width="1.6747445"
       y="-0.40179783"
       height="1.8035957">
      <feGaussianBlur
         inkscape:collect="always"
         stdDeviation="37.884922"
         id="feGaussianBlur3218" />
    </filter>
    <filter
       inkscape:collect="always"
       id="filter3264"
       x="-0.10634561"
       width="1.2126912"
       y="-0.12665367"
       height="1.2533073">
      <feGaussianBlur
         inkscape:collect="always"
         stdDeviation="11.941986"
         id="feGaussianBlur3266" />
    </filter>
    <filter
       inkscape:collect="always"
       id="filter3272">
      <feBlend
         inkscape:collect="always"
         mode="lighten"
         in2="BackgroundImage"
         id="feBlend3274" />
    </filter>
    <filter
       inkscape:collect="always"
       id="filter3407"
       x="-0.40059841"
       width="1.8011968"
       y="-0.57045591"
       height="2.1409118">
      <feGaussianBlur
         inkscape:collect="always"
         stdDeviation="41.38564"
         id="feGaussianBlur3409" />
    </filter>
  </defs>
  <sodipodi:namedview
     inkscape:document-units="mm"
     pagecolor="#ffffff"
     bordercolor="#666666"
     borderopacity="1.0"
     inkscape:pageopacity="0.0"
     inkscape:pageshadow="2"
     inkscape:zoom="0.40408043"
     inkscape:cx="896.59247"
     inkscape:cy="450.84677"
     inkscape:current-layer="layer1"
     id="namedview2387"
     showgrid="false"
     inkscape:window-width="1272"
     inkscape:window-height="758"
     inkscape:window-x="0"
     inkscape:window-y="14" />
  <metadata
     id="metadata2389">
    <rdf:RDF>
      <cc:Work
         rdf:about="">
        <dc:format>image/svg+xml</dc:format>
        <dc:type
           rdf:resource="http://purl.org/dc/dcmitype/StillImage" />
      </cc:Work>
    </rdf:RDF>
  </metadata>
  <g
     inkscape:label="Layer 1"
     inkscape:groupmode="layer"
     id="layer1"
     style="filter:url(#filter3272)"
     transform="translate(27.617375,86.416049)">
    <path
       d="M 1003.6008,215.35042 C 1003.6008,215.35042 982.54409,183.9997 910.64933,204.81167 C 838.75461,225.62355 731.99855,315.94091 731.99855,315.94091 C 731.99855,315.94091 996.41896,291.78666 1001.9663,219.79287 M 1003.07,331.0531 C 1003.07,331.0531 989.8318,222.81914 781.69015,304.12466 C 640.07289,365.093 964.05528,371.62097 996.70202,335.52328 M 1041.4617,372.20265 C 1041.4617,372.20265 1004.9802,428.5665 733.59046,364.2506 C 731.02207,342.98752 731.53858,343.7233 731.53858,343.7233 C 731.53858,343.7233 999.17146,282.1659 1042.615,372.49145 M 1035.2069,433.70926 C 1035.2069,433.70926 956.5054,509.82491 734.48902,384.48906 C 735.26028,365.27515 733.71073,363.06774 733.71073,363.06774 C 733.71073,363.06774 975.30551,330.77217 1034.0182,427.9534 M 721.77419,416.48055 C 921.00723,579.77733 995.81008,553.62888 1019.7679,539.00785 C 1019.7679,539.00785 1034.6974,473.60866 725.41815,386.46305 M 973.7342,602.07694 C 973.0974,602.52397 995.27232,529.84194 719.26236,423.7357 C 705.16783,440.21997 844.20915,613.91674 961.96048,601.55476 C 961.32369,602.00178 974.25071,602.81276 974.25071,602.81276 M 907.42903,695.85185 C 907.42903,695.85185 971.62559,651.88592 706.20085,441.69158 C 630.46415,442.13448 766.31428,676.28557 905.12241,695.27428 M 791.12813,734.6552 C 791.12813,734.6552 819.08361,744.68746 823.54122,741.55834 C 827.99882,738.42922 884.39812,695.54324 688.61102,451.84243 C 663.3442,461.8904 660.52106,460.57702 660.52106,460.57702 C 660.52106,460.57702 738.81158,696.69013 789.21772,735.99624 M 779.88502,766.71196 C 779.88502,766.71196 827.79372,696.83472 651.30514,469.79233 C 636.52784,469.73097 658.24941,663.17542 772.80239,769.48701"
       id="blume"
       style="opacity:0.75420873;fill:#ff6600;stroke:none;stroke-width:0.41816556;stroke-opacity:1;filter:url(#filter3837)" />
    <path
       d="M 40.922516,340.36399 C 40.922516,340.36399 57.563891,372.85964 164.36512,377.02929 C 271.16631,381.199 452.98158,337.76908 452.98158,337.76908 C 452.98158,337.76908 80.659881,278.67859 44.902253,337.14371 M 86.882875,243.89018 C 86.882875,243.89018 62.738268,338.2537 380.16766,332.74208 C 598.35143,324.27409 156.28418,221.70377 97.369584,242.06565 M 50.282237,198.01425 C 50.282237,198.01425 122.38249,161.876 469.68272,296.94447 C 464.89504,315.47293 464.47384,314.70358 464.47384,314.70358 C 464.47384,314.70358 73.121497,285.8886 48.812394,197.42734 M 82.911097,148.51997 C 82.911097,148.51997 220.67361,108.54133 476.36143,279.77228 C 467.79165,295.58823 469.05523,297.89632 469.05523,297.89632 C 469.05523,297.89632 124.8758,252.4476 82.29225,153.68349 M 506.3172,256.86498 C 296.73637,60.759314 183.85805,60.174877 145.26351,65.204417 C 145.26351,65.204417 99.208234,115.34939 489.58159,280.84276 M 233.09384,26.329387 C 234.1425,26.146941 175.29687,80.202508 512.60059,251.55857 C 538.38752,242.0162 415.4769,55.267959 249.04744,30.294851 C 250.09606,30.112405 232.67264,25.560026 232.67264,25.560026 M 360.74772,-32.113946 C 360.74772,-32.113946 255.45949,-14.638141 537.54516,240.47748 C 641.65604,262.81071 546.75831,26.528639 363.68744,-30.940116 M 535.52344,-29.659006 C 535.52344,-29.659006 501.08048,-46.417845 493.7398,-45.140689 C 486.39911,-43.863523 392.23367,-24.952333 565.65294,237.27247 C 604.2561,236.45465 607.61703,238.39783 607.61703,238.39783 C 607.61703,238.39783 592.47864,17.731399 538.66947,-30.206358 M 563.48498,-53.061984 C 563.48498,-53.061984 470.41997,-9.063004 623.86707,233.46396 C 644.12283,237.94491 689.93665,69.871981 574.28973,-53.25656"
       id="path3417"
       style="fill:#ff6600;fill-opacity:0.71153846;stroke:none;stroke-width:0.47001445;stroke-opacity:1;filter:url(#filter3901)" />
    <path
       d="M 661.8267,855.89055 C 661.8267,855.89055 707.1986,841.22082 706.911,746.71737 C 706.6235,652.21392 634.0737,491.24596 634.0737,491.24596 C 634.0737,491.24596 571.5353,820.61861 657.0018,852.36315 M 521.55899,815.0511 C 521.55899,815.0511 657.5437,836.58161 631.1547,555.67183 C 606.3426,362.58149 485.86709,753.59774 518.34485,805.76801 M 458.27001,847.35988 C 458.27001,847.35988 402.52332,783.49385 574.8773,476.39564 C 601.5809,480.66464 600.5083,481.03602 600.5083,481.03602 C 600.5083,481.03602 582.2578,827.30203 457.51879,848.65957 M 385.77976,818.39967 C 385.77976,818.39967 320.72336,696.42098 549.99756,470.45558 C 573.0535,478.06672 576.2714,476.95257 576.2714,476.95257 C 576.2714,476.95257 531.54536,781.44525 393.17977,818.95631 M 515.58003,443.90715 C 248.13974,629.02813 253.89508,728.9156 263.32069,763.07749 C 263.32069,763.07749 337.52265,803.92017 550.75253,458.75864 M 202.75281,685.28682 C 202.4314,684.35851 282.95697,736.52644 507.64557,438.3376 C 492.53164,415.50155 233.37731,523.94249 207.47688,671.17605 C 207.15547,670.24775 201.68017,685.6582 201.68017,685.6582 M 111.95329,572.22128 C 111.95329,572.22128 143.02196,665.42357 490.38638,416.24431 C 516.15961,324.15324 184.72804,407.7186 113.45573,569.62191 M 105.25253,417.56271 C 105.25253,417.56271 83.362579,448.01283 85.612479,454.511 C 87.862369,461.00916 120.32884,544.37114 484.1749,391.36552 C 480.75528,357.20333 483.33035,354.23256 483.33035,354.23256 C 483.33035,354.23256 169.51324,367.24438 104.28829,414.77778 M 70.244489,392.77815 C 70.244489,392.77815 138.42542,475.21007 475.34544,339.84392 C 480.55354,321.92699 238.18417,281.09249 69.336329,383.21645"
       id="path3419"
       style="fill:#ff6600;fill-opacity:0.77692309;stroke:none;stroke-width:0.52799147;stroke-opacity:1;filter:url(#filter3885)" />
    <path
       d="M 53.297165,312.43638 C 53.297165,312.43638 69.938545,344.93203 176.73977,349.10168 C 283.54097,353.27139 465.35624,309.84147 465.35624,309.84147 C 465.35624,309.84147 93.034535,250.75098 57.276905,309.2161 M 99.257525,215.96257 C 99.257525,215.96257 75.112915,310.32609 392.54232,304.81447 C 610.72609,296.34648 168.65884,193.77616 109.74424,214.13804 M 62.656885,170.08664 C 62.656885,170.08664 134.75715,133.94839 482.05738,269.01686 C 477.2697,287.54532 476.8485,286.77597 476.8485,286.77597 C 476.8485,286.77597 85.496145,257.96099 61.187045,169.49973 M 95.285745,120.59236 C 95.285745,120.59236 233.04827,80.613723 488.73609,251.84467 C 480.16631,267.66062 481.42989,269.96871 481.42989,269.96871 C 481.42989,269.96871 137.25046,224.51999 94.666905,125.75588 M 518.69186,228.93737 C 309.11103,32.831708 196.23271,32.247271 157.63817,37.276811 C 157.63817,37.276811 111.58289,87.421783 501.95625,252.91515 M 245.4685,-1.5982195 C 246.51716,-1.7806655 187.67153,52.274902 524.97525,223.63096 C 550.76218,214.08859 427.85156,27.340353 261.4221,2.3672435 C 262.47072,2.1847985 245.0473,-2.3675815 245.0473,-2.3675815 M 373.12238,-60.041552 C 373.12238,-60.041552 267.83415,-42.565747 549.91982,212.54987 C 654.0307,234.8831 559.13297,-1.3989675 376.0621,-58.867722 M 547.8981,-57.586612 C 547.8981,-57.586612 513.45514,-74.345451 506.11446,-73.068295 C 498.77377,-71.791129 404.60833,-52.879939 578.0276,209.34486 C 616.63076,208.52704 619.99169,210.47022 619.99169,210.47022 C 619.99169,210.47022 604.8533,-10.196208 551.04413,-58.133964 M 575.85964,-80.98959 C 575.85964,-80.98959 482.79463,-36.99061 636.24173,205.53635 C 656.49749,210.0173 702.31131,41.944375 586.66439,-81.184166"
       id="path3423"
       style="opacity:0.7811448;fill:#ff6600;fill-opacity:0.71153846;stroke:none;stroke-width:0.47001445;stroke-opacity:1;filter:url(#filter3525)" />
    <path
       d="M 708.56001,835.33013 C 708.56001,835.33013 753.93191,820.6604 753.64431,726.15695 C 753.35681,631.6535 680.80701,470.68554 680.80701,470.68554 C 680.80701,470.68554 618.26861,800.05819 703.73511,831.80273 M 568.2923,794.49068 C 568.2923,794.49068 704.27701,816.02119 677.88801,535.11141 C 653.07591,342.02107 532.6004,733.03732 565.07816,785.20759 M 505.00332,826.79946 C 505.00332,826.79946 449.25663,762.93343 621.61061,455.83522 C 648.31421,460.10422 647.24161,460.4756 647.24161,460.4756 C 647.24161,460.4756 628.99111,806.74161 504.2521,828.09915 M 432.51307,797.83925 C 432.51307,797.83925 367.45667,675.86056 596.73087,449.89516 C 619.78681,457.5063 623.00471,456.39215 623.00471,456.39215 C 623.00471,456.39215 578.27867,760.88483 439.91308,798.39589 M 562.31334,423.34673 C 294.87305,608.46771 300.62839,708.35518 310.054,742.51707 C 310.054,742.51707 384.25596,783.35975 597.48584,438.19822 M 249.48612,664.7264 C 249.16471,663.79809 329.69028,715.96602 554.37888,417.77718 C 539.26495,394.94113 280.11062,503.38207 254.21019,650.61563 C 253.88878,649.68733 248.41348,665.09778 248.41348,665.09778 M 158.6866,551.66086 C 158.6866,551.66086 189.75527,644.86315 537.11969,395.68389 C 562.89292,303.59282 231.46135,387.15818 160.18904,549.06149 M 151.98584,397.00229 C 151.98584,397.00229 130.09589,427.45241 132.34579,433.95058 C 134.59568,440.44874 167.06215,523.81072 530.90821,370.8051 C 527.48859,336.64291 530.06366,333.67214 530.06366,333.67214 C 530.06366,333.67214 216.24655,346.68396 151.0216,394.21736 M 116.97779,372.21773 C 116.97779,372.21773 185.15873,454.64965 522.07875,319.2835 C 527.28685,301.36657 284.91748,260.53206 116.06964,362.65603"
       id="path3425"
       style="opacity:0.62626259;fill:#ff6600;fill-opacity:0.77692309;stroke:none;stroke-width:0.52799147;stroke-opacity:1;filter:url(#filter3725)" />
    <path
       d="M 1060.7866,255.97345 C 1060.7866,255.97345 1039.7298,224.62273 967.83509,245.4347 C 895.94037,266.24658 789.18431,356.56394 789.18431,356.56394 C 789.18431,356.56394 1053.6047,332.40969 1059.1521,260.4159 M 1060.2557,371.67613 C 1060.2557,371.67613 1047.0176,263.44217 838.87591,344.74769 C 697.25865,405.71603 1021.241,412.244 1053.8878,376.14631 M 1098.6475,412.82568 C 1098.6475,412.82568 1062.1659,469.18953 790.77622,404.87363 C 788.20783,383.61055 788.72434,384.34633 788.72434,384.34633 C 788.72434,384.34633 1056.3572,322.78893 1099.8008,413.11448 M 1092.3926,474.33229 C 1092.3926,474.33229 1013.6912,550.44794 791.67478,425.11209 C 792.44604,405.89818 790.89649,403.69077 790.89649,403.69077 C 790.89649,403.69077 1032.4913,371.3952 1091.204,468.57643 M 778.95995,457.10358 C 978.19299,620.40036 1052.9958,594.25191 1076.9536,579.63088 C 1076.9536,579.63088 1091.8831,514.23169 782.60391,427.08608 M 1030.92,642.69997 C 1030.2832,643.147 1052.4581,570.46497 776.44812,464.35873 C 762.35359,480.843 901.39491,654.53977 1019.1462,642.17779 C 1018.5094,642.62481 1031.4365,643.43579 1031.4365,643.43579 M 964.61479,736.47488 C 964.61479,736.47488 1028.8113,692.50895 763.38661,482.31461 C 687.64991,482.75751 823.50004,716.9086 962.30817,735.89731 M 848.31389,775.27823 C 848.31389,775.27823 876.26937,785.31049 880.72698,782.18137 C 885.18458,779.05225 941.58388,736.16627 745.79678,492.46546 C 720.52996,502.51343 717.70682,501.20005 717.70682,501.20005 C 717.70682,501.20005 795.99734,737.31316 846.40348,776.61927 M 837.07078,807.33499 C 837.07078,807.33499 884.97948,737.45775 708.4909,510.41536 C 693.7136,510.354 715.43517,703.79845 829.98815,810.11004"
       id="path3429"
       style="opacity:0.55892256;fill:#ff6600;stroke:none;stroke-width:0.41816556;stroke-opacity:1;filter:url(#filter3809)" />
    <path
       d="M 392.51214,290.50165 C 392.51214,290.50165 409.15352,322.9973 515.95475,327.16695 C 622.75595,331.33666 804.57122,287.90674 804.57122,287.90674 C 804.57122,287.90674 432.24951,228.81625 396.49188,287.28137 M 438.4725,194.02784 C 438.4725,194.02784 414.32789,288.39136 731.7573,282.87974 C 949.94107,274.41175 507.87381,171.84143 448.95921,192.20331 M 401.87186,148.15191 C 401.87186,148.15191 473.97212,112.01366 821.27236,247.08213 C 816.48468,265.61059 816.06348,264.84124 816.06348,264.84124 C 816.06348,264.84124 424.71112,236.02626 400.40202,147.565 M 434.50072,98.657628 C 434.50072,98.657628 572.26325,58.678992 827.95107,229.90994 C 819.38129,245.72589 820.64487,248.03398 820.64487,248.03398 C 820.64487,248.03398 476.46543,202.58526 433.88188,103.82115 M 857.90684,207.00264 C 648.32601,10.896972 535.44769,10.312535 496.85314,15.342075 C 496.85314,15.342075 450.79786,65.487052 841.17123,230.98042 M 584.68348,-23.532955 C 585.73214,-23.715401 526.88651,30.340166 864.19023,201.69623 C 889.97716,192.15386 767.06654,5.4056167 600.63708,-19.567492 C 601.6857,-19.749937 584.26228,-24.302317 584.26228,-24.302317 M 712.33736,-81.976288 C 712.33736,-81.976288 607.04913,-64.500483 889.1348,190.61514 C 993.24568,212.94837 898.34795,-23.333703 715.27708,-80.802458 M 887.11308,-79.521348 C 887.11308,-79.521348 852.67012,-96.280187 845.32944,-95.003031 C 837.98875,-93.725865 743.82331,-74.814675 917.24258,187.41013 C 955.84574,186.59231 959.20667,188.53549 959.20667,188.53549 C 959.20667,188.53549 944.06828,-32.130944 890.25911,-80.0687 M 915.07462,-102.92433 C 915.07462,-102.92433 822.00961,-58.925346 975.45671,183.60162 C 995.71247,188.08257 1041.5263,20.009639 925.87937,-103.1189"
       id="path3973"
       style="opacity:0.7811448;fill:#ff6600;fill-opacity:0.71153846;stroke:none;stroke-width:0.47001445;stroke-opacity:1;filter:url(#filter3525)"
       transform="matrix(0.1035862,0.6900573,-0.883681,8.0889361e-2,812.60177,-332.4223)" />
    <path
       d="M 392.51214,290.50165 C 392.51214,290.50165 409.15352,322.9973 515.95475,327.16695 C 622.75595,331.33666 804.57122,287.90674 804.57122,287.90674 C 804.57122,287.90674 432.24951,228.81625 396.49188,287.28137 M 438.4725,194.02784 C 438.4725,194.02784 414.32789,288.39136 731.7573,282.87974 C 949.94107,274.41175 507.87381,171.84143 448.95921,192.20331 M 401.87186,148.15191 C 401.87186,148.15191 473.97212,112.01366 821.27236,247.08213 C 816.48468,265.61059 816.06348,264.84124 816.06348,264.84124 C 816.06348,264.84124 424.71112,236.02626 400.40202,147.565 M 434.50072,98.657628 C 434.50072,98.657628 572.26325,58.678992 827.95107,229.90994 C 819.38129,245.72589 820.64487,248.03398 820.64487,248.03398 C 820.64487,248.03398 476.46543,202.58526 433.88188,103.82115 M 857.90684,207.00264 C 648.32601,10.896972 535.44769,10.312535 496.85314,15.342075 C 496.85314,15.342075 450.79786,65.487052 841.17123,230.98042 M 584.68348,-23.532955 C 585.73214,-23.715401 526.88651,30.340166 864.19023,201.69623 C 889.97716,192.15386 767.06654,5.4056167 600.63708,-19.567492 C 601.6857,-19.749937 584.26228,-24.302317 584.26228,-24.302317 M 712.33736,-81.976288 C 712.33736,-81.976288 607.04913,-64.500483 889.1348,190.61514 C 993.24568,212.94837 898.34795,-23.333703 715.27708,-80.802458 M 887.11308,-79.521348 C 887.11308,-79.521348 852.67012,-96.280187 845.32944,-95.003031 C 837.98875,-93.725865 743.82331,-74.814675 917.24258,187.41013 C 955.84574,186.59231 959.20667,188.53549 959.20667,188.53549 C 959.20667,188.53549 944.06828,-32.130944 890.25911,-80.0687 M 915.07462,-102.92433 C 915.07462,-102.92433 822.00961,-58.925346 975.45671,183.60162 C 995.71247,188.08257 1041.5263,20.009639 925.87937,-103.1189"
       id="path3975"
       style="opacity:0.7811448;fill:#ff6600;fill-opacity:0.71153846;stroke:none;stroke-width:0.47001445;stroke-opacity:1;filter:url(#filter3525)"
       transform="matrix(0.1319538,0.6237449,-1.1256817,7.3116142e-2,832.93717,-315.188)" />
    <path
       sodipodi:type="arc"
       style="opacity:0.92929293;fill:#ffff00;fill-opacity:1;fill-rule:nonzero;stroke:none;stroke-width:35;stroke-miterlimit:4;stroke-dasharray:none;stroke-opacity:1;filter:url(#filter3216)"
       id="path2404"
       sodipodi:cx="611.83563"
       sodipodi:cy="344.97507"
       sodipodi:rx="134.75294"
       sodipodi:ry="113.14622"
       d="M 746.58858,344.97507 A 134.75294,113.14622 0 1 1 477.08269,344.97507 A 134.75294,113.14622 0 1 1 746.58858,344.97507 z"
       transform="translate(-17.162843,6.763803)" />
    <path
       sodipodi:type="arc"
       style="opacity:0.7676768;fill:#ff6600;fill-opacity:0.33884301;fill-rule:nonzero;stroke:none;stroke-width:35;stroke-miterlimit:4;stroke-dasharray:none;stroke-opacity:1;filter:url(#filter3264)"
       id="path3220"
       sodipodi:cx="611.83563"
       sodipodi:cy="344.97507"
       sodipodi:rx="134.75294"
       sodipodi:ry="113.14622"
       d="M 746.58858,344.97507 A 134.75294,113.14622 0 1 1 477.08269,344.97507 A 134.75294,113.14622 0 1 1 746.58858,344.97507 z"
       transform="translate(16.033781,7.584516)" />
  </g>
  <g
     inkscape:groupmode="layer"
     id="layer2"
     inkscape:label="schatten"
     transform="translate(27.617375,86.416049)">
    <path
       style="fill:#803300;fill-rule:evenodd;stroke:none;stroke-width:1px;stroke-linecap:butt;stroke-linejoin:miter;stroke-opacity:1;filter:url(#filter3407)"
       d="M 503.35174,242.96533 C 503.35174,242.96533 420.55341,447.27335 563.4581,440.86005 C 690.06202,435.1783 721.41159,368.4284 721.41159,368.4284 C 456.77354,444.64548 488.3111,287.90328 503.35174,242.96533 z"
       id="path3277"
       sodipodi:nodetypes="cscc"
       transform="matrix(0.9393939,-0.3428399,0.3428399,0.9393939,-69.909499,258.35199)" />
  </g>
</svg>
