<?xml version="1.0" encoding="UTF-8" standalone="no"?>
<!-- Created with Inkscape (http://www.inkscape.org/) -->
<svg
   xmlns:dc="http://purl.org/dc/elements/1.1/"
   xmlns:cc="http://web.resource.org/cc/"
   xmlns:rdf="http://www.w3.org/1999/02/22-rdf-syntax-ns#"
   xmlns:svg="http://www.w3.org/2000/svg"
   xmlns="http://www.w3.org/2000/svg"
   xmlns:sodipodi="http://sodipodi.sourceforge.net/DTD/sodipodi-0.dtd"
   xmlns:inkscape="http://www.inkscape.org/namespaces/inkscape"
   width="744.09448819"
   height="1052.3622047"
   id="svg2"
   sodipodi:version="0.32"
   inkscape:version="0.45.1"
   sodipodi:docbase="C:\Users\Jenni0206\Desktop"
   sodipodi:docname="chlamydia flower.svg"
   inkscape:output_extension="org.inkscape.output.svg.inkscape">
  <defs
     id="defs4" />
  <sodipodi:namedview
     id="base"
     pagecolor="#ffffff"
     bordercolor="#666666"
     borderopacity="1.0"
     gridtolerance="10000"
     guidetolerance="10"
     objecttolerance="10"
     inkscape:pageopacity="0.0"
     inkscape:pageshadow="2"
     inkscape:zoom="0.49497475"
     inkscape:cx="-102.94601"
     inkscape:cy="437.52172"
     inkscape:document-units="px"
     inkscape:current-layer="layer1"
     inkscape:window-width="1280"
     inkscape:window-height="974"
     inkscape:window-x="-8"
     inkscape:window-y="-8" />
  <metadata
     id="metadata7">
    <rdf:RDF>
      <cc:Work
         rdf:about="">
        <dc:format>image/svg+xml</dc:format>
        <dc:type
           rdf:resource="http://purl.org/dc/dcmitype/StillImage" />
      </cc:Work>
    </rdf:RDF>
  </metadata>
  <g
     inkscape:label="Layer 1"
     inkscape:groupmode="layer"
     id="layer1">
    <path
       style="fill:#00aa00;fill-opacity:0.77922076;fill-rule:nonzero;stroke:#005500;stroke-width:1.4498142;stroke-miterlimit:4;stroke-opacity:0.99350652"
       d="M 381.60808,372.32613 C 384.20466,377.94732 384.24785,382.57456 385.68073,388.64494 C 386.56609,398.62351 388.39196,408.41694 390.43072,418.16516 C 392.21519,426.23938 392.88318,434.48608 393.41166,442.75139 C 393.91092,450.35983 392.79655,457.88221 391.78533,465.37338 C 390.49215,475.0455 389.18674,484.71768 387.67057,494.34951 C 386.17674,504.94849 384.72728,515.56281 382.80282,526.07635 C 380.64867,537.01495 379.12055,548.09515 377.72016,559.18197 C 376.38878,569.03149 375.04469,578.87974 373.03654,588.5882 C 371.44062,596.48567 369.08614,604.12033 366.62175,611.71546 C 362.80623,622.4168 358.7212,632.99285 354.86067,643.67355 C 350.16083,657.65813 344.48659,671.18116 338.92737,684.75049 C 333.41927,698.92741 327.54184,712.91545 322.08289,727.11621 C 317.04575,739.4169 313.68969,752.35172 311.02337,765.50819 C 309.0121,775.54078 307.8581,785.73574 306.83315,795.94191 C 305.57302,808.80554 305.60922,821.74294 305.99814,834.65587 C 306.09816,847.54596 307.67703,860.33195 309.41893,873.0494 C 311.0405,883.02341 312.03919,893.09419 312.86553,903.18144 C 313.24663,909.55282 313.22468,915.93726 313.20608,922.31846 C 313.18371,929.36508 313.17657,936.41158 313.13817,943.45812 C 313.1362,952.00749 313.07089,960.55663 313.05799,969.10596 C 313.08341,976.33126 313.14085,983.5561 313.21201,990.78097 C 313.22554,995.58993 313.23812,1000.399 313.26498,1005.208 C 313.29346,1008.5056 313.30312,1011.8036 313.31443,1015.1013 C 313.27616,1018.9271 313.27512,1022.7531 313.26373,1026.5791 C 313.26835,1030.1976 313.28956,1033.8162 313.30598,1037.4347 C 313.31234,1038.91 313.56529,1049.8834 313.56866,1051.3587 L 296.75002,1051.3211 C 296.75339,1049.8422 296.75379,1048.3632 296.76013,1046.8842 C 296.77653,1043.2495 296.79774,1039.6149 296.8024,1035.9802 C 296.79102,1032.1736 296.79009,1028.3669 296.7517,1024.5603 C 296.76302,1021.2438 296.77275,1017.927 296.80114,1014.6104 C 296.82789,1009.7814 296.84052,1004.9522 296.85389,1000.1232 C 296.92462,992.83962 296.98185,985.55612 297.00775,978.27217 C 296.99558,969.75019 296.92995,961.22836 296.94053,952.70634 C 296.9169,945.67419 296.9311,938.64232 296.93472,931.61012 C 296.90494,925.26141 296.93806,918.90913 296.6968,912.56481 C 296.15969,902.4268 295.38241,892.31047 293.82803,882.29181 C 292.07384,869.51991 290.22109,856.68536 290.21196,843.72966 C 289.99731,830.76468 289.74593,817.79938 290.79801,804.86272 C 291.70496,794.55598 292.87137,784.27221 294.94979,774.16799 C 297.8436,760.91301 301.02192,747.7647 306.14754,735.3192 C 311.62591,721.0864 317.5466,707.07741 323.0725,692.86729 C 328.53196,679.35739 334.24141,665.95835 338.77148,652.00512 C 342.58159,641.43694 346.51309,630.92146 350.18242,620.29117 C 352.65424,612.74616 355.06779,605.17469 356.75975,597.35039 C 358.88881,587.68366 360.34684,577.87068 361.66265,568.02646 C 363.14697,556.94281 364.63213,545.85552 366.58788,534.86112 C 368.65528,524.37807 370.24203,513.77659 371.59292,503.14952 C 373.01572,493.55566 374.37321,483.95061 375.50858,474.30757 C 376.51967,466.96011 377.59065,459.58283 377.21405,452.11576 C 376.82419,443.91693 376.28995,435.72222 374.62346,427.69554 C 372.72236,417.94817 372.65628,407.23613 371.67454,397.30041 C 370.30752,391.39028 372.21265,379.01181 369.27049,373.77024 C 369.84926,366.42601 377.14502,365.44522 381.60808,372.32613 z "
       id="path2174"
       sodipodi:nodetypes="cccccccccccccccccccccccccsccscccccccccccccccccccccccccc" />
    <path
       sodipodi:type="star"
       style="fill:#ff2a7f;fill-opacity:0.77922076;fill-rule:nonzero;stroke:#000000;stroke-width:1.55700004;stroke-miterlimit:4;stroke-dasharray:none;stroke-opacity:0.99350652"
       id="path2172"
       sodipodi:sides="18"
       sodipodi:cx="181.42857"
       sodipodi:cy="635.21936"
       sodipodi:r1="404.67169"
       sodipodi:r2="105.21464"
       sodipodi:arg1="0.73045352"
       sodipodi:arg2="0.90498645"
       inkscape:flatsided="false"
       inkscape:rounded="0.1"
       inkscape:randomized="0.018"
       d="M 479.17742,907.34162 C 459.1729,930.12137 270.95364,701.64789 247.0529,720.24348 C 223.15216,738.83907 392.31691,971.6213 366.00327,986.04373 C 339.68962,1000.4662 236.37414,728.9228 207.85911,738.58785 C 179.34407,748.2529 273.50947,1027.3056 243.79759,1032.0242 C 214.08571,1036.7429 208.29846,739.26621 178.35239,738.52649 C 148.40632,737.78677 122.73058,1038.3843 93.187878,1033.0489 C 63.645172,1027.7134 165.02548,741.72693 137.16642,730.77489 C 109.30736,719.82285 -8.5861749,989.74451 -34.219202,973.99813 C -59.852229,958.25176 137.3352,740.52825 115.33912,719.74939 C 93.343028,698.97053 -116.49504,913.96208 -135.33445,890.44412 C -154.17386,866.92615 104.77093,714.61552 90.969089,687.97988 C 77.167243,661.34424 -189.32529,789.79734 -198.40648,760.75483 C -207.48767,731.71232 77.043128,676.58239 72.631101,646.95242 C 68.219074,617.32244 -227.32008,650.60483 -225.63709,620.26901 C -223.95411,589.93319 77.591159,647.34181 84.239419,617.69781 C 90.887679,588.05382 -210.10948,519.47653 -199.41323,491.33378 C -188.71698,463.19104 79.428343,598.04101 95.679746,572.46222 C 111.93115,546.88343 -141.07334,393.86172 -121.27388,370.98971 C -101.47441,348.1177 90.122389,571.95382 113.8098,552.85241 C 137.49722,533.75099 -41.464031,291.26045 -14.898381,277.23902 C 11.667268,263.21759 123.94035,541.73407 153.00337,532.89498 C 182.06638,524.05589 90.000158,239.3524 120.02428,235.83622 C 150.0484,232.32004 152.01937,528.03295 182.27042,529.00127 C 212.52147,529.96959 238.29032,232.7848 267.67459,238.43396 C 297.05887,244.08312 198.65743,525.29584 226.65545,537.08556 C 254.65347,548.87527 367.10323,279.31279 393.27129,294.64953 C 419.43935,309.98628 225.93092,540.72291 248.48252,561.06618 C 271.03411,581.40945 474.37109,356.85738 492.99786,380.70602 C 511.62464,404.55465 255.09454,558.82478 269.89362,585.11601 C 284.69269,611.40723 554.08068,487.25419 563.53408,515.94009 C 572.98748,544.626 286.29653,589.56452 291.19053,619.29497 C 296.08453,649.02542 591.40943,611.61444 590.7647,641.85774 C 590.11996,672.10103 285.13727,623.08508 278.55719,652.43855 C 271.9771,681.79202 563.71572,761.0317 552.69192,789.12575 C 541.66811,817.2198 290.84291,670.73412 274.46052,696.08442 C 258.07812,721.43472 499.18194,884.56187 479.17742,907.34162 z "
       transform="matrix(0.8097195,0,0,0.7209509,231.16632,-164.38248)" />
    <path
       style="fill:#00aa00;fill-opacity:0.77922076;fill-rule:nonzero;stroke:#008000;stroke-width:1.53044462;stroke-miterlimit:4;stroke-opacity:0.99350652"
       inkscape:transform-center-x="-30"
       inkscape:transform-center-y="-61.324054"
       d="M 536.80016,645.08453 C 547.90735,665.9804 468.21886,763.5903 419.40742,790.21701 C 371.56654,816.31428 291.18939,815.60928 310.34264,799.63982 C 328.51827,784.48548 330.0674,740.6046 379.16397,714.50733 C 428.26052,688.41007 525.69297,624.18866 536.80016,645.08453 z "
       id="path2190"
       sodipodi:nodetypes="csssc" />
    <path
       style="fill:#00aa00;fill-opacity:0.77922076;fill-rule:nonzero;stroke:#008000;stroke-width:1.13154387;stroke-miterlimit:4;stroke-opacity:0.99350652"
       d="M 292.31537,767.89395 C 313.12712,803.50295 226.43276,703.74933 170.28446,725.75792 C 114.13617,747.76651 48.549174,772.73332 27.737429,737.12431 C 6.9256754,701.51531 66.074928,685.05994 122.22323,663.05134 C 178.37151,641.04274 271.50362,732.28494 292.31537,767.89395 z "
       id="path2193"
       sodipodi:nodetypes="cssss" />
    <path
       style="fill:none;fill-rule:evenodd;stroke:#008000;stroke-width:1px;stroke-linecap:butt;stroke-linejoin:miter;stroke-opacity:1"
       d="M 37.142857,745.21933 C 41.635629,738.14563 58.724028,732.20958 65.714286,725.21933 C 71.478576,719.45503 82.508074,715.39386 88.571429,712.36218 C 98.130718,707.58254 109.68818,706.80381 118.57143,702.36218 C 120.47619,701.4098 122.38095,700.45742 124.28571,699.50504 C 129.86875,696.71352 140.4877,698.07647 147.14286,698.07647 C 154.28571,698.07647 161.42857,698.07647 168.57143,698.07647 C 175.73885,698.07647 181.40287,702.36218 190,702.36218 C 197.64755,702.36218 204.27526,706.64528 210,708.07647 C 217.90773,710.0534 222.87689,718.08634 228.57143,720.93361 C 234.2733,723.78455 238.77901,726.80358 244.28571,730.93361 C 251.09032,736.03706 259.06207,744.28139 264.28571,749.50504 C 268.68901,753.90834 273.21485,755.48761 278.57143,759.50504 C 284.15404,763.692 287.44489,765.52136 291.42857,769.50504 C 293.23474,771.31121 295.74776,772.74443 297.14286,773.79075"
       id="path2196"
       sodipodi:nodetypes="csssssssssssssc" />
    <path
       style="fill:none;fill-rule:evenodd;stroke:#008000;stroke-width:1px;stroke-linecap:butt;stroke-linejoin:miter;stroke-opacity:1"
       d="M 310,802.36218 C 317.56679,809.92897 327.20718,789.1936 337.14286,785.21933 C 347.8589,780.93291 357.77542,776.55408 367.14286,770.93361 C 376.45981,765.34344 387.40203,761.51831 397.14286,756.6479 C 411.81567,749.31149 426.75454,743.98491 441.42857,736.6479 C 443.33333,735.69552 445.2381,734.74313 447.14286,733.79075 C 456.30467,729.20985 464.76897,719.02178 471.42857,712.36218 C 476.45715,707.3336 479.59399,702.42734 482.85714,698.07647 C 486.64096,693.03138 492.24462,687.4646 497.14286,680.93361 C 501.06629,675.70236 503.21224,670.46014 507.14286,665.21933 C 511.05275,660.00613 518.03013,655.76062 522.85714,650.93361 C 527.59512,646.19564 521.51027,651.60705 525.71429,649.50504"
       id="path2198" />
    <path
       style="fill:none;fill-rule:evenodd;stroke:#008000;stroke-width:1px;stroke-linecap:butt;stroke-linejoin:miter;stroke-opacity:1"
       d="M 409.82668,749.76502 C 418.6361,746.24125 401.25525,732.11019 401.25525,722.62216 C 401.25525,717.68487 410.07499,710.94528 412.68383,708.33644 C 415.88091,705.13936 416.21693,705.55595 418.39811,701.19359"
       id="path2208" />
    <path
       style="fill:none;fill-rule:evenodd;stroke:#008000;stroke-width:1px;stroke-linecap:butt;stroke-linejoin:miter;stroke-opacity:1"
       d="M 467.14286,716.6479 C 468.39723,715.39353 468.4933,689.8957 470,682.36218 C 471.0483,677.12068 470.23473,671.42325 471.42857,666.6479"
       id="path2210" />
    <path
       style="fill:none;fill-rule:evenodd;stroke:#008000;stroke-width:1px;stroke-linecap:butt;stroke-linejoin:miter;stroke-opacity:1"
       d="M 467.14286,693.79075 C 468.35691,687.72049 454.76191,693.79075 448.57143,693.79075"
       id="path2212" />
    <path
       style="fill:none;fill-rule:evenodd;stroke:#008000;stroke-width:1px;stroke-linecap:butt;stroke-linejoin:miter;stroke-opacity:1"
       d="M 483.52067,698.24979 C 483.54351,698.13559 498.21413,690.29143 500.66353,685.39264 C 503.16926,680.38117 512.86468,675.17035 516.37781,672.5355 C 518.6834,670.80631 519.24901,669.6643 520.66353,668.24979"
       id="path2214" />
    <path
       sodipodi:type="arc"
       style="fill:#ffcc00;fill-opacity:1;fill-rule:nonzero;stroke:#ffcc00;stroke-width:1.55700004;stroke-miterlimit:4;stroke-dasharray:none;stroke-opacity:1"
       id="path2234"
       sodipodi:cx="377.85715"
       sodipodi:cy="303.07648"
       sodipodi:rx="29.285715"
       sodipodi:ry="26.428572"
       d="M 407.14286 303.07648 A 29.285715 26.428572 0 1 1  348.57143,303.07648 A 29.285715 26.428572 0 1 1  407.14286 303.07648 z"
       transform="matrix(1.4951073,0,0,1.6646565,-191.53886,-205.34496)" />
    <path
       style="fill:none;fill-rule:evenodd;stroke:#008000;stroke-width:1px;stroke-linecap:butt;stroke-linejoin:miter;stroke-opacity:1"
       d="M 124.24876,699.81894 C 124.20863,699.85908 107.22087,700.54038 104.04571,701.33417 C 90.779636,704.65069 80.978875,709.17901 67.680221,703.85955 C 64.341845,702.5242 62.910179,697.49028 61.619306,694.2631"
       id="path7100" />
    <path
       style="fill:none;fill-rule:evenodd;stroke:#008000;stroke-width:1px;stroke-linecap:butt;stroke-linejoin:miter;stroke-opacity:1"
       d="M 202.03051,705.37478 C 200.20336,700.80692 192.69023,695.28053 189.90868,689.71741 C 187.35268,684.60542 186.81223,676.6952 180.31223,675.0702 C 175.98486,673.98836 172.97092,673.0499 168.1904,673.0499 C 167.01189,673.0499 165.83338,673.0499 164.65486,673.0499"
       id="path7102" />
    <path
       style="fill:none;fill-rule:evenodd;stroke:#008000;stroke-width:1px;stroke-linecap:butt;stroke-linejoin:miter;stroke-opacity:1"
       d="M 358.60415,776.59054 C 354.66086,776.59054 370.70387,781.63024 379.81736,786.18699 C 390.7997,791.67816 382.77952,791.38109 395.47472,788.20729 C 400.19913,787.02619 403.92995,780.47691 407.09148,778.10577 C 409.80822,776.06821 410.77227,776.08546 415.1727,776.08546 C 417.36136,776.08546 419.55002,776.08546 421.73869,776.08546"
       id="path7104" />
    <path
       style="fill:none;fill-rule:evenodd;stroke:#008000;stroke-width:1px;stroke-linecap:butt;stroke-linejoin:miter;stroke-opacity:1"
       d="M 159.6041,699.31387 C 155.6648,699.22336 148.14425,698.65189 143.94674,702.8494 C 140.82262,705.97352 137.8405,709.59667 136.87567,713.456 C 136.03609,716.81432 132.18099,723.70652 130.30968,725.57783 C 128.01067,727.87685 125.47059,729.49899 121.72338,730.12352 C 121.39125,730.17888 121.04995,730.12352 120.71323,730.12352 C 119.91021,730.25736 112.34483,739.50207 111.11678,740.73012 C 108.44769,743.39921 106.81677,743.2555 103.03556,743.2555"
       id="path7108" />
  </g>
</svg>
