<?xml version="1.0" encoding="UTF-8" standalone="no"?>
<!-- Created with Inkscape (http://www.inkscape.org/) -->
<svg
   xmlns:dc="http://purl.org/dc/elements/1.1/"
   xmlns:cc="http://web.resource.org/cc/"
   xmlns:rdf="http://www.w3.org/1999/02/22-rdf-syntax-ns#"
   xmlns:svg="http://www.w3.org/2000/svg"
   xmlns="http://www.w3.org/2000/svg"
   xmlns:sodipodi="http://sodipodi.sourceforge.net/DTD/sodipodi-0.dtd"
   xmlns:inkscape="http://www.inkscape.org/namespaces/inkscape"
   width="558"
   height="563"
   id="svg2"
   sodipodi:version="0.32"
   inkscape:version="0.45.1"
   version="1.0"
   inkscape:export-filename="F:\Drawings\open clipart\from site\Andre_saetherskar_colour_flowers.png"
   inkscape:export-xdpi="72"
   inkscape:export-ydpi="72"
   sodipodi:docbase="F:\Drawings\open clipart\from site"
   sodipodi:docname="flower_2.svg"
   inkscape:output_extension="org.inkscape.output.svg.inkscape">
  <defs
     id="defs4" />
  <sodipodi:namedview
     id="base"
     pagecolor="#ffffff"
     bordercolor="#666666"
     borderopacity="1.0"
     gridtolerance="10000"
     guidetolerance="10"
     objecttolerance="10"
     inkscape:pageopacity="0.0"
     inkscape:pageshadow="2"
     inkscape:zoom="0.75887574"
     inkscape:cx="395"
     inkscape:cy="235.05402"
     inkscape:document-units="px"
     inkscape:current-layer="layer1"
     inkscape:window-width="1024"
     inkscape:window-height="712"
     inkscape:window-x="-4"
     inkscape:window-y="-4" />
  <metadata
     id="metadata7">
    <rdf:RDF>
      <cc:Work
         rdf:about="">
        <dc:format>image/svg+xml</dc:format>
        <dc:type
           rdf:resource="http://purl.org/dc/dcmitype/StillImage" />
      </cc:Work>
    </rdf:RDF>
  </metadata>
  <g
     inkscape:label="Layer 1"
     inkscape:groupmode="layer"
     id="layer1"
     transform="translate(716.19883,0.1911)">
    <g
       id="g2621"
       transform="translate(-461.20858,-108.05458)">
      <path
         style="fill:#fefefd"
         d="M -254.99025,389.36348 L -254.99025,107.86348 L 24.00975,107.86348 L 303.00975,107.86348 L 303.00975,389.36348 L 303.00975,670.86348 L 24.00975,670.86348 L -254.99025,670.86348 L -254.99025,389.36348 z "
         id="path2637" />
      <path
         style="fill:#cea6a6"
         d="M 22.50975,669.25995 C 9.15514,667.21774 -2.13979,662.87836 -25.49025,650.81888 C -37.04025,644.85382 -55.31101,635.97466 -66.09194,631.0874 C -97.35954,616.91305 -105.16463,611.78136 -106.53067,604.49971 C -109.63995,587.92584 -77.45809,581.82085 -29.69837,589.9244 C 3.92294,595.62904 28.59168,604.35351 44.75975,616.25763 C 49.13076,619.47589 51.00975,620.38949 51.00975,619.29648 C 51.00975,618.43691 48.64897,613.37534 45.76356,608.04855 C 42.87816,602.72176 39.33817,595.43848 37.89692,591.86348 C 35.40896,585.69216 31.36449,578.43697 11.69631,544.86348 C 7.02435,536.88848 1.62072,527.18588 -0.31176,523.30214 C -2.24425,519.41841 -6.79436,511.34473 -10.42312,505.36064 C -21.49985,487.09433 -29.59547,469.56484 -37.66973,446.36348 C -39.58377,440.86348 -42.70279,433.80677 -44.60088,430.68189 C -46.49896,427.55702 -49.00751,421.25702 -50.17542,416.68189 C -52.2348,408.61456 -52.24896,408.11803 -50.64457,400.23169 C -48.07621,387.60696 -48.46977,375.64842 -51.92141,361.43426 C -53.53355,354.79533 -55.25442,347.56348 -55.74556,345.36348 C -56.48211,342.06422 -56.76805,343.90367 -57.3778,355.86348 C -60.33148,413.79845 -72.82513,461.86348 -84.93061,461.86348 C -87.90924,461.86348 -91.73592,457.07018 -93.15207,451.5653 C -95.16771,443.73004 -94.86224,406.87928 -92.6406,389.86348 C -90.04086,369.95175 -85.36939,347.71058 -81.40364,336.36348 C -76.70552,322.9209 -76.46781,321.86348 -78.14409,321.86348 C -78.99105,321.86348 -80.41256,324.68636 -81.79496,329.11348 C -89.61552,354.15868 -129.43614,414.55906 -148.70357,430.60124 C -157.62914,438.03273 -162.4102,439.44353 -166.11479,435.73894 C -170.00128,431.85245 -167.58968,422.0058 -158.06308,402.86348 C -148.91048,384.47266 -129.22092,354.05534 -115.99025,337.86749 C -108.43225,328.6202 -108.25035,328.36352 -110.01553,329.43641 C -110.85444,329.9463 -114.90444,332.87034 -119.01553,335.93427 C -151.41051,360.07776 -203.14071,386.86348 -217.37308,386.86348 C -225.78698,386.86348 -227.46579,380.17486 -221.07968,372.09583 C -210.1425,358.25926 -164.03163,327.49426 -131.31767,312.20694 C -126.18759,309.80964 -121.99025,307.68674 -121.99025,307.48938 C -121.99025,307.29202 -127.05275,308.19226 -133.24025,309.48991 C -161.12621,315.33817 -208.72736,319.39285 -231.66603,317.87386 C -245.31267,316.97018 -250.68149,315.63092 -253.21801,312.49769 C -261.34738,302.45593 -240.60059,293.92465 -193.49025,287.93704 C -161.97367,283.93136 -132.84043,282.76503 -117.81261,284.90732 C -106.30129,286.54832 -106.5193,286.55929 -106.19859,284.32262 C -105.92092,282.38609 -106.4321,282.27729 -116.19811,282.19428 C -129.12193,282.08442 -141.00602,280.56441 -161.99025,276.33731 C -192.20406,270.25099 -222.18179,261.23722 -237.49025,253.6358 C -248.62911,248.1048 -252.81015,241.72543 -248.09375,237.45714 C -240.71626,230.78061 -199.79269,235.63328 -151.99025,248.85299 C -142.36525,251.51478 -132.06718,254.64836 -129.10564,255.8165 C -120.50799,259.20776 -121.25383,257.77304 -131.07176,252.03439 C -164.30174,232.61124 -208.57403,196.0069 -215.11191,182.54996 C -219.15042,174.2375 -214.78878,169.41777 -205.37337,171.78859 C -187.7714,176.22082 -141.01258,206.68996 -114.01735,231.3183 C -110.42745,234.59345 -106.38808,238.19345 -105.04098,239.3183 L -102.59171,241.36348 L -104.14947,238.86348 C -128.39397,199.95431 -148.95522,150.74746 -148.98324,131.56803 C -148.98874,127.80414 -148.46224,126.24456 -146.5357,124.31802 C -145.1857,122.96803 -143.22822,121.86348 -142.18574,121.86348 C -137.11881,121.86348 -128.10407,131.81067 -117.16715,149.4699 C -106.33576,166.95874 -89.0235,204.34204 -83.39373,222.39865 C -81.92941,227.09524 -80.52797,230.73454 -80.27942,230.48599 C -80.03087,230.23744 -80.34008,226.65265 -80.96656,222.5198 C -82.83581,210.18828 -83.76061,181.03686 -82.88762,161.96463 C -81.61886,134.24589 -78.00852,115.70518 -72.80019,110.16117 C -70.10525,107.29253 -65.15215,107.13235 -62.26673,109.82052 C -57.11124,114.62359 -53.71499,131.24067 -51.82306,160.91898 C -49.98016,189.82811 -53.27203,231.19021 -58.37871,243.29033 C -59.69587,246.41129 -59.77476,247.38278 -58.76312,248.02407 C -56.34352,249.5579 -55.48729,248.17357 -54.74418,241.52638 C -51.57392,213.1682 -10.71368,134.50815 6.31309,123.98502 C 10.65901,121.2991 13.44534,121.29907 16.1312,123.98493 C 18.0203,125.87403 18.20171,126.94193 17.78745,133.73494 C 16.73327,151.02145 -2.75666,196.51883 -22.14926,226.96337 C -24.81181,231.14331 -26.99025,234.93186 -26.99025,235.38237 C -26.99025,235.83288 -23.72775,233.06604 -19.74025,229.23383 C 2.94526,207.43179 43.25427,178.34287 62.00975,170.23908 C 73.10472,165.44521 76.31079,165.07361 79.45431,168.21713 C 80.8598,169.62263 82.00553,171.58052 82.00037,172.56802 C 81.94243,183.65365 40.91012,221.45788 0.06246,248.05973 C -5.68355,251.80179 -10.13228,254.86348 -9.82362,254.86348 C -9.51495,254.86348 -5.03867,253.28379 0.12367,251.35307 C 21.10788,243.50492 57.3831,233.9892 80.50975,230.26617 C 95.65347,227.82826 112.6756,227.76661 116.29895,230.13653 C 120.4084,232.8244 120.07294,237.7228 115.50474,241.73373 C 105.38734,250.61693 67.91539,263.79598 28.50975,272.33025 C 2.32827,278.0005 3.3868,277.64038 12.50975,277.77356 C 23.00192,277.92673 52.504,280.39881 67.00095,282.33956 C 99.16795,286.64587 120.64197,293.07073 124.03058,299.4024 C 126.22351,303.49994 123.79268,306.90228 116.98613,309.26225 C 105.63499,313.19793 63.65887,312.5032 28.21669,307.79306 C 19.76404,306.66974 12.42209,305.8927 11.90126,306.06631 C 11.38042,306.23992 16.25426,308.58617 22.73202,311.2802 C 54.7324,324.58881 93.10988,346.49003 101.87095,356.44313 C 107.89138,363.2827 107.16033,368.49434 99.94085,370.20277 C 90.68283,372.3936 56.32387,360.53294 21.65349,343.17809 C 14.58254,339.63861 8.61783,336.92207 8.39857,337.14133 C 8.17931,337.36059 14.90562,343.88899 23.34593,351.64889 C 50.71011,376.8071 68.96521,399.72276 68.99998,408.95849 C 69.02048,414.40331 62.92666,416.39802 55.61073,413.34122 C 41.02017,407.2449 18.00793,388.90544 -10.74025,360.46325 C -19.67775,351.62088 -26.99025,344.6708 -26.99025,345.01864 C -26.99025,345.36647 -25.23777,350.08635 -23.09585,355.50727 C -9.58013,389.7138 0.08667,429.03218 -1.28815,444.20713 C -1.66761,448.39545 -2.45795,450.73242 -4.07823,452.45713 C -6.93444,455.49743 -8.79577,455.48468 -13.3507,452.39362 C -18.29263,449.03994 -18.16025,450.07827 -11.46078,467.21748 C -4.30165,485.53264 2.94562,500.65633 10.8657,513.80862 C 14.36147,519.61379 19.03288,527.96348 21.2466,532.36348 C 23.46032,536.76348 28.52406,545.76547 32.49936,552.3679 C 36.47465,558.97033 40.97999,566.84533 42.51122,569.8679 C 44.04245,572.89047 48.13667,580.09596 51.60949,585.88011 C 55.0823,591.66426 59.03748,599.31426 60.39877,602.88011 C 61.76006,606.44596 65.56381,614.53848 68.85155,620.86348 C 72.13928,627.18848 75.39109,634.27598 76.07779,636.61348 C 76.76448,638.95098 77.7051,640.86348 78.16804,640.86348 C 78.63098,640.86348 79.01023,640.52598 79.01082,640.11348 C 79.01554,636.79718 85.35721,603.8916 87.05701,598.36348 C 90.88117,585.92655 96.66133,576.17324 105.48669,567.2657 C 116.30188,556.34979 123.77196,552.26283 153.00975,541.26529 C 187.90021,528.14156 199.12436,523.35599 239.28026,504.48267 C 272.60936,488.81796 281.38847,485.61268 291.34624,485.47323 C 298.44393,485.37383 299.36313,485.58605 301.09624,487.72426 C 307.24887,495.31504 297.62901,514.01674 270.16157,547.86348 C 249.35297,573.50488 217.97585,605.82865 204.77119,615.22672 C 199.81294,618.75562 189.77339,623.45988 166.77119,633.03248 C 110.92697,656.27263 97.6251,661.09142 83.50975,663.19508 C 78.55975,663.9328 72.93475,665.36404 71.00975,666.37562 C 62.8295,670.67431 40.45861,672.00473 22.50975,669.25995 z M -92.99025,314.30446 C -92.99025,314.06192 -93.44025,313.86348 -93.99025,313.86348 C -94.54025,313.86348 -94.99025,314.34004 -94.99025,314.9225 C -94.99025,315.50496 -94.54025,315.7034 -93.99025,315.36348 C -93.44025,315.02356 -92.99025,314.547 -92.99025,314.30446 z M -103.90846,301.86348 C -103.40345,301.86348 -102.99025,301.41348 -102.99025,300.86348 C -102.99025,299.41554 -104.3262,299.63387 -106.54912,301.44512 C -108.3254,302.89243 -108.33468,302.97735 -106.65846,302.44512 C -105.65098,302.12522 -104.41348,301.86348 -103.90846,301.86348 z M -19.65846,279.7638 C -19.01595,279.70898 -19.61525,279.32986 -20.99025,278.92133 C -23.84341,278.0736 -25.30998,278.53713 -24.40541,280.00075 C -24.06581,280.55024 -23.12166,280.74415 -22.30731,280.43165 C -21.49296,280.11916 -20.30098,279.81862 -19.65846,279.7638 z M -100.99025,266.86348 C -100.99025,266.31348 -101.10572,265.86348 -101.24685,265.86348 C -101.38798,265.86348 -103.07548,265.42347 -104.99685,264.88568 L -108.49025,263.90788 L -105.99025,265.86344 C -103.26996,267.99132 -100.99025,268.44728 -100.99025,266.86348 z M -25.99025,263.86348 C -24.61525,262.78794 -24.02346,261.89795 -24.67515,261.88572 C -26.82253,261.84542 -30.99025,263.79429 -30.99025,264.83873 C -30.99025,266.44529 -28.72641,266.00373 -25.99025,263.86348 z M -91.4958,253.85735 C -93.53598,251.60298 -94.35172,251.75793 -93.4068,254.22035 C -93.06001,255.12407 -92.07967,255.86348 -91.22827,255.86348 C -89.91984,255.86348 -89.96125,255.55301 -91.4958,253.85735 z M -39.47642,251.04398 C -40.32454,250.19586 -42.98059,253.07009 -42.3266,254.12828 C -41.93352,254.76428 -41.16702,254.45813 -40.34794,253.33797 C -39.61258,252.3323 -39.22039,251.30001 -39.47642,251.04398 z M -75.01647,247.61348 C -75.0309,246.92598 -75.93832,244.56348 -77.03296,242.36348 C -78.12761,240.16348 -78.7908,239.18778 -78.50674,240.19527 C -78.22267,241.20275 -77.99025,243.56525 -77.99025,245.44527 C -77.99025,247.81701 -77.53103,248.86348 -76.49025,248.86348 C -75.66525,248.86348 -75.00205,248.30098 -75.01647,247.61348 z "
         id="path2635" />
      <path
         style="fill:#b28b49"
         d="M 33.50975,670.23432 C 26.84254,669.52871 10.93636,665.76292 3.50975,663.13182 C -0.34025,661.76784 -12.61025,655.93883 -23.75691,650.17847 C -34.90357,644.4181 -53.6808,635.29811 -65.48408,629.91181 C -98.0333,615.05833 -104.99767,610.30714 -105.21084,602.80968 C -105.39351,596.38508 -99.32785,591.89349 -86.88275,589.23781 C -81.07733,587.99898 -75.73322,587.77489 -61.99025,588.194 C -38.71323,588.90386 -12.42907,593.43058 9.50975,600.5079 C 20.59432,604.08371 38.33369,612.86056 45.49008,618.30978 C 50.67393,622.25701 54.00975,623.87667 54.00975,622.44639 C 54.00975,621.26089 49.65938,612.16447 45.77491,605.22773 C 43.35279,600.90239 40.55,595.11348 39.54649,592.36348 C 37.71739,587.35105 29.63309,572.78102 14.3037,546.86942 C 9.79038,539.24044 4.10079,529.03066 1.66017,524.18102 C -0.78045,519.33137 -5.79014,510.41348 -9.47248,504.36348 C -20.22896,486.69084 -28.67992,468.37752 -36.4682,445.86348 C -38.27568,440.63848 -41.35302,433.66348 -43.30672,430.36348 C -49.9147,419.20193 -51.1113,409.53841 -48.01212,392.36348 C -46.44551,383.68172 -47.12653,375.17156 -50.37283,362.86348 C -51.75095,357.63848 -53.61997,349.23046 -54.52622,344.179 C -55.43247,339.12753 -56.78453,334.17753 -57.5308,333.179 C -58.69038,331.62743 -58.88933,333.98042 -58.89922,349.36348 C -58.92077,382.89344 -65.3916,424.62367 -73.9651,446.523 C -78.4765,458.04649 -82.32003,461.86679 -87.05358,459.53235 C -99.00378,453.63887 -94.1919,375.09554 -79.36126,333.97202 C -74.40558,320.23055 -74.55248,320.88246 -76.37362,320.71348 C -77.26277,320.63098 -78.49955,320.51848 -79.12203,320.46348 C -79.74452,320.40848 -81.34746,323.73181 -82.68414,327.84866 C -86.29675,338.97517 -91.59797,349.68603 -102.01869,366.91319 C -127.27208,408.66117 -154.11275,439.18109 -163.07338,436.33709 C -171.34727,433.71107 -164.17339,412.99692 -143.16869,378.86348 C -127.42719,353.28293 -106.68494,326.82355 -95.60763,318.1933 C -92.83286,316.0315 -91.32516,314.15429 -91.66092,313.27932 C -92.6022,310.82639 -94.35789,311.71077 -98.80989,316.88041 C -117.20097,338.23605 -189.97744,381.1973 -214.77315,385.33559 C -222.45835,386.61822 -226.30902,381.78461 -222.34095,375.83599 C -210.51196,358.10288 -144.14248,315.83806 -112.49025,305.88183 C -101.78468,302.51438 -100.96248,302.09941 -101.61695,300.3939 C -102.39388,298.36926 -104.28377,298.4635 -108.78009,300.75112 C -125.13874,309.07402 -178.50292,316.87557 -218.94014,316.85593 C -246.39939,316.84259 -257.95072,313.26368 -254.05131,305.97757 C -249.84616,298.12018 -209.83994,289.60955 -160.77191,286.13398 C -140.57475,284.70338 -135.15604,284.63943 -124.27191,285.70317 C -117.242,286.39022 -110.02775,287.20844 -108.24025,287.52142 C -105.0682,288.07683 -104.99025,288.00381 -104.99025,284.47698 L -104.99025,280.86348 L -115.43903,280.86348 C -145.68103,280.86348 -208.87106,266.18529 -236.37512,252.77165 C -248.06832,247.06892 -251.45279,242.39612 -246.87967,238.26847 C -245.00121,236.57299 -243.15905,236.36853 -230.12967,236.4094 C -214.55387,236.45825 -209.96403,237.0564 -183.9855,242.4229 C -151.90318,249.05028 -124.48316,257.67202 -109.02962,265.99144 C -102.10854,269.7174 -101.47698,269.88202 -100.29657,268.26772 C -98.5995,265.94683 -100.07872,264.25707 -104.5402,263.42009 C -110.7554,262.25411 -129.71912,251.96918 -146.95024,240.41909 C -187.05621,213.53592 -218.14241,184.21968 -215.47024,175.80042 C -214.5459,172.88808 -211.02986,171.84886 -205.87506,172.96441 C -183.23819,177.86324 -110.98949,229.84145 -96.78365,251.44854 C -92.58068,257.84125 -90.45458,259.23708 -89.34089,256.33485 C -88.96672,255.35977 -90.60503,252.84934 -93.86502,249.40238 C -113.23824,228.91805 -144.84369,161.27144 -147.59703,134.39727 C -148.20572,128.45613 -148.07687,127.85919 -145.66519,125.44751 C -142.51487,122.2972 -142.14818,122.28247 -137.91362,125.13614 C -130.06649,130.42432 -118.80105,147.30447 -105.61302,173.53543 C -90.95949,202.68124 -82.2435,226.11054 -79.7291,243.11348 C -78.565,250.98536 -77.8152,251.9184 -74.5639,249.54099 C -72.91041,248.33193 -72.88315,247.96743 -74.24603,245.29099 C -76.22423,241.40616 -78.6052,231.43174 -80.19639,220.36348 C -82.19094,206.4895 -81.88836,149.2894 -79.75205,136.36348 C -76.69492,117.86614 -72.44362,107.84521 -67.66767,107.87879 C -64.98011,107.89769 -63.89908,108.647 -61.80711,111.941 C -55.20958,122.32944 -51.30637,160.43984 -53.03242,197.61596 C -53.93851,217.13162 -55.82247,230.87198 -59.00494,241.17561 C -60.14796,244.87629 -60.8107,248.34498 -60.47769,248.8838 C -60.14468,249.42263 -58.54877,249.86348 -56.93123,249.86348 C -54.20068,249.86348 -53.98975,249.59517 -53.98324,246.11348 C -53.94171,223.88351 -19.02306,151.19148 1.92347,129.72947 C 8.67657,122.81018 12.45462,121.46369 15.29825,124.96273 C 16.9423,126.98569 17.16382,128.39137 16.706,133.89545 C 14.70472,157.95519 -18.44461,225.93021 -38.2192,246.5234 C -42.14329,250.60992 -44.02848,253.32147 -43.64333,254.32515 C -42.56634,257.13174 -40.21464,255.92215 -37.39919,251.11348 C -30.87323,239.96744 -1.43672,213.18914 25.2684,194.10494 C 47.96815,177.8831 64.42882,168.91398 73.0144,168.08901 C 77.04368,167.70185 77.96393,167.95998 79.2866,169.84836 C 82.45497,174.37184 77.76082,181.81488 61.8232,197.53833 C 35.93659,223.07705 -6.89826,253.71055 -26.74025,260.8748 C -30.17775,262.11597 -32.97594,263.40867 -32.95845,263.74747 C -32.89717,264.93443 -30.25989,267.86348 -29.25245,267.86348 C -28.69293,267.86348 -27.66133,267.17208 -26.96,266.32703 C -21.21637,259.40638 17.91625,245.15286 53.50975,237.01703 C 87.91753,229.15222 109.05184,227.27743 115.75975,231.49493 C 128.09416,239.25001 91.07774,256.64662 34.18416,269.83302 C 11.57496,275.07322 -2.44172,277.18586 -15.24016,277.28239 C -25.8516,277.36244 -25.99006,277.39392 -25.99016,279.72698 C -25.99024,281.84357 -25.65073,282.03103 -22.74025,281.52142 C -20.95275,281.20844 -13.75519,280.39174 -6.74567,279.70653 C 25.19163,276.58453 100.02181,286.19288 117.33601,295.63888 C 126.15946,300.45262 125.18849,305.75817 114.9777,308.52508 C 99.73264,312.65617 44.13507,310.22247 10.50975,303.95215 C -0.2539,301.94499 -1.43381,301.81995 -0.459,302.78978 C 0.07381,303.31987 4.55975,305.32401 9.50975,307.24343 C 47.55204,321.99475 88.85192,344.50377 100.26701,356.70743 C 105.31544,362.10461 106.04753,364.68284 103.30918,367.4212 C 100.6637,370.06667 88.94055,368.78398 75.00975,364.32481 C 60.6058,359.7142 31.98172,347.52054 17.50975,339.83023 C 5.39398,333.39199 1.00975,331.50081 1.00975,332.71277 C 1.00975,333.15265 6.42764,338.16725 13.04951,343.85633 C 27.53328,356.29982 47.20885,376.41555 56.36303,388.13879 C 70.54932,406.3064 71.34328,416.45383 58.30373,412.94264 C 45.57542,409.51526 8.2134,379.66435 -17.62744,352.27638 C -24.59873,344.8877 -30.46558,339.00548 -30.66488,339.20478 C -30.86418,339.40407 -29.63271,342.84423 -27.92829,346.84956 C -15.26923,376.59793 -4.32454,415.28501 -2.46309,436.86348 C -1.40743,449.10106 -4.94508,455.56524 -11.0357,452.52777 C -13.61714,451.24037 -20.49721,443.00516 -23.27147,437.88196 C -24.25115,436.07281 -25.34319,434.88309 -25.69825,435.23814 C -26.0533,435.59319 -24.6845,439.14164 -22.65647,443.12358 C -20.62844,447.10553 -17.37605,454.63848 -15.42892,459.86348 C -13.48179,465.08848 -10.62459,472.73848 -9.07957,476.86348 C -5.70321,485.87793 3.4253,504.25126 9.16821,513.59153 C 11.45828,517.3161 16.39568,526.08168 20.1402,533.07059 C 23.88472,540.05951 29.99972,550.95433 33.72909,557.28132 C 48.27677,581.96192 57.09426,597.85309 58.55072,602.01566 C 59.38742,604.40696 63.16552,612.43848 66.9465,619.86348 C 70.72747,627.28848 74.5704,635.95098 75.48633,639.11348 C 76.40227,642.27598 77.55239,644.86348 78.04216,644.86348 C 79.25024,644.86348 80.48789,639.76286 83.01639,624.36348 C 87.79613,595.25343 93.24748,581.82106 105.46724,569.0436 C 116.04858,557.97933 124.16314,553.49657 153.56272,542.47399 C 187.48229,529.75677 199.61432,524.584 240.28026,505.49994 C 273.78565,489.77625 279.55318,487.64365 290.00975,487.11201 C 297.64667,486.72373 298.73821,486.89621 300.75975,488.81062 C 303.84813,491.73535 303.61264,493.87358 299.16896,503.25493 C 289.18715,524.32815 258.2731,562.73841 225.37806,594.93903 C 203.90163,615.9621 203.45428,616.24138 166.59244,631.64028 C 110.22628,655.18702 93.18137,661.29205 81.1433,662.24583 C 77.87073,662.50512 73.72863,663.47461 71.93863,664.40026 C 62.64169,669.20789 46.69143,671.62937 33.50975,670.23432 z M -28.99025,311.06348 C -28.99025,309.81726 -31.2493,307.86348 -32.69025,307.86348 C -34.35232,307.86348 -34.39233,310.53457 -32.74025,311.2012 C -30.7609,311.99989 -28.99025,311.93486 -28.99025,311.06348 z M -17.49961,297.84833 C -18.39037,296.40705 -25.02635,293.76775 -26.09648,294.42914 C -28.13582,295.68952 -26.82274,297.75755 -23.74025,298.14008 C -17.6294,298.89843 -16.87248,298.86305 -17.49961,297.84833 z "
         id="path2633" />
      <path
         style="fill:#a75e5d"
         d="M 32.00975,669.94592 C 13.88839,667.45185 0.38505,662.8665 -18.97739,652.63211 C -37.06105,643.07364 -45.16277,639.12126 -66.63659,629.38181 C -88.55682,619.4399 -96.94317,614.8439 -101.52566,610.2614 C -108.81405,602.97301 -104.7415,594.17443 -92.34986,590.43743 C -79.85978,586.67074 -51.51061,587.29825 -26.49025,591.89523 C 6.54376,597.96456 30.21081,606.73621 46.00975,618.76571 C 49.58475,621.48775 52.87803,623.35753 53.32815,622.92078 C 54.37726,621.90282 52.26187,616.88271 46.20922,606.02661 C 43.55272,601.26189 40.55634,595.11348 39.55058,592.36348 C 37.71669,587.34914 29.61759,572.75482 14.3037,546.86942 C 9.79038,539.24044 4.10079,529.03066 1.66017,524.18102 C -0.78045,519.33137 -5.79014,510.41348 -9.47248,504.36348 C -20.25615,486.64616 -28.73261,468.26576 -36.47878,445.80286 C -38.29208,440.54451 -41.2523,433.84243 -43.05705,430.90935 C -48.88089,421.4444 -51.6762,406.07884 -48.99614,398.2627 C -48.44938,396.66813 -47.6083,391.76348 -47.12706,387.36348 C -46.32111,379.99457 -46.51376,378.33796 -49.56927,366.36348 C -51.39373,359.21348 -53.75088,348.34869 -54.80739,342.21951 C -55.88219,335.98422 -57.49132,330.03776 -58.46053,328.71951 L -60.19275,326.36348 L -59.55096,330.08804 C -58.36469,336.97244 -58.90077,367.23794 -60.45918,381.36348 C -64.24656,415.69261 -72.32468,448.7645 -78.80384,456.46666 C -83.90033,462.52517 -88.52179,461.1915 -91.34657,452.84707 C -97.92081,433.42666 -91.20454,366.81195 -79.36126,333.97202 C -74.40558,320.23055 -74.55248,320.88246 -76.37362,320.71348 C -77.26277,320.63098 -78.49955,320.51848 -79.12203,320.46348 C -79.74452,320.40848 -81.34746,323.73181 -82.68414,327.84866 C -86.29675,338.97517 -91.59797,349.68603 -102.01869,366.91319 C -127.27208,408.66117 -154.11275,439.18109 -163.07338,436.33709 C -171.34727,433.71107 -164.17339,412.99692 -143.16869,378.86348 C -127.42719,353.28293 -106.68494,326.82355 -95.60763,318.1933 C -92.83286,316.0315 -91.32516,314.15429 -91.66092,313.27932 C -92.6022,310.82639 -94.35789,311.71077 -98.80989,316.88041 C -117.20097,338.23605 -189.97744,381.1973 -214.77315,385.33559 C -222.45835,386.61822 -226.30902,381.78461 -222.34095,375.83599 C -210.51196,358.10288 -144.14248,315.83806 -112.49025,305.88183 C -101.78468,302.51438 -100.96248,302.09941 -101.61695,300.3939 C -102.39388,298.36926 -104.28377,298.4635 -108.78009,300.75112 C -125.13874,309.07402 -178.50292,316.87557 -218.94014,316.85593 C -246.39939,316.84259 -257.95072,313.26368 -254.05131,305.97757 C -249.84616,298.12018 -209.83994,289.60955 -160.77191,286.13398 C -140.57475,284.70338 -135.15604,284.63943 -124.27191,285.70317 C -117.242,286.39022 -110.02775,287.20844 -108.24025,287.52142 C -105.0682,288.07683 -104.99025,288.00381 -104.99025,284.47698 L -104.99025,280.86348 L -115.43903,280.86348 C -145.68103,280.86348 -208.87106,266.18529 -236.37512,252.77165 C -248.06832,247.06892 -251.45279,242.39612 -246.87967,238.26847 C -245.00121,236.57299 -243.15905,236.36853 -230.12967,236.4094 C -214.55387,236.45825 -209.96403,237.0564 -183.9855,242.4229 C -151.90318,249.05028 -124.48316,257.67202 -109.02962,265.99144 C -102.10854,269.7174 -101.47698,269.88202 -100.29657,268.26772 C -98.5995,265.94683 -100.07872,264.25707 -104.5402,263.42009 C -110.7554,262.25411 -129.71912,251.96918 -146.95024,240.41909 C -187.05621,213.53592 -218.14241,184.21968 -215.47024,175.80042 C -214.5459,172.88808 -211.02986,171.84886 -205.87506,172.96441 C -183.23819,177.86324 -110.98949,229.84145 -96.78365,251.44854 C -92.58068,257.84125 -90.45458,259.23708 -89.34089,256.33485 C -88.96672,255.35977 -90.60503,252.84934 -93.86502,249.40238 C -113.23824,228.91805 -144.84369,161.27144 -147.59703,134.39727 C -148.20572,128.45613 -148.07687,127.85919 -145.66519,125.44751 C -142.51487,122.2972 -142.14818,122.28247 -137.91362,125.13614 C -130.06649,130.42432 -118.80105,147.30447 -105.61302,173.53543 C -90.95949,202.68124 -82.2435,226.11054 -79.7291,243.11348 C -78.565,250.98536 -77.8152,251.9184 -74.5639,249.54099 C -72.91041,248.33193 -72.88315,247.96743 -74.24603,245.29099 C -76.22423,241.40616 -78.6052,231.43174 -80.19639,220.36348 C -82.19094,206.4895 -81.88836,149.2894 -79.75205,136.36348 C -76.69492,117.86614 -72.44362,107.84521 -67.66767,107.87879 C -64.98011,107.89769 -63.89908,108.647 -61.80711,111.941 C -55.20958,122.32944 -51.30637,160.43984 -53.03242,197.61596 C -53.93851,217.13162 -55.82247,230.87198 -59.00494,241.17561 C -60.14796,244.87629 -60.8107,248.34498 -60.47769,248.8838 C -60.14468,249.42263 -58.54877,249.86348 -56.93123,249.86348 C -54.20068,249.86348 -53.98975,249.59517 -53.98324,246.11348 C -53.94171,223.88351 -19.02306,151.19148 1.92347,129.72947 C 8.67657,122.81018 12.45462,121.46369 15.29825,124.96273 C 16.9423,126.98569 17.16382,128.39137 16.706,133.89545 C 14.70472,157.95519 -18.44461,225.93021 -38.2192,246.5234 C -42.14329,250.60992 -44.02848,253.32147 -43.64333,254.32515 C -42.56634,257.13174 -40.21464,255.92215 -37.39919,251.11348 C -30.87323,239.96744 -1.43672,213.18914 25.2684,194.10494 C 47.96815,177.8831 64.42882,168.91398 73.0144,168.08901 C 77.04368,167.70185 77.96393,167.95998 79.2866,169.84836 C 82.45497,174.37184 77.76082,181.81488 61.8232,197.53833 C 35.93659,223.07705 -6.89826,253.71055 -26.74025,260.8748 C -30.17775,262.11597 -32.97594,263.40867 -32.95845,263.74747 C -32.89717,264.93443 -30.25989,267.86348 -29.25245,267.86348 C -28.69293,267.86348 -27.66133,267.17208 -26.96,266.32703 C -21.21637,259.40638 17.91625,245.15286 53.50975,237.01703 C 87.91753,229.15222 109.05184,227.27743 115.75975,231.49493 C 128.09416,239.25001 91.07774,256.64662 34.18416,269.83302 C 11.57496,275.07322 -2.44172,277.18586 -15.24016,277.28239 C -25.8516,277.36244 -25.99006,277.39392 -25.99016,279.72698 C -25.99024,281.84357 -25.65073,282.03103 -22.74025,281.52142 C -20.95275,281.20844 -13.75519,280.39174 -6.74567,279.70653 C 25.19163,276.58453 100.02181,286.19288 117.33601,295.63888 C 126.15946,300.45262 125.18849,305.75817 114.9777,308.52508 C 99.73264,312.65617 44.13507,310.22247 10.50975,303.95215 C -0.2539,301.94499 -1.43381,301.81995 -0.459,302.78978 C 0.07381,303.31987 4.55975,305.32401 9.50975,307.24343 C 47.55204,321.99475 88.85192,344.50377 100.26701,356.70743 C 105.31544,362.10461 106.04753,364.68284 103.30918,367.4212 C 100.6637,370.06667 88.94055,368.78398 75.00975,364.32481 C 60.6058,359.7142 31.98172,347.52054 17.50975,339.83023 C 5.39398,333.39199 1.00975,331.50081 1.00975,332.71277 C 1.00975,333.15265 6.42764,338.16725 13.04951,343.85633 C 27.53328,356.29982 47.20885,376.41555 56.36303,388.13879 C 70.54932,406.3064 71.34328,416.45383 58.30373,412.94264 C 45.57542,409.51526 8.2134,379.66435 -17.62744,352.27638 C -24.59873,344.8877 -30.46558,339.00548 -30.66488,339.20478 C -30.86418,339.40407 -29.63271,342.84423 -27.92829,346.84956 C -15.46852,376.12958 -4.57196,414.42314 -2.45579,436.36698 C -1.32516,448.09127 -4.30837,454.63908 -10.09161,453.12672 C -12.89947,452.39245 -17.62355,446.79902 -22.98257,437.86348 C -28.92897,427.94856 -28.83596,431.27113 -22.8426,442.86348 C -20.70994,446.98848 -17.37285,454.63848 -15.42686,459.86348 C -13.48087,465.08848 -10.62477,472.73848 -9.07997,476.86348 C -5.45575,486.54108 2.58839,502.59224 10.46511,515.86348 C 13.89268,521.63848 19.31038,531.31348 22.50445,537.36348 C 25.69853,543.41348 30.44126,551.76209 33.04386,555.91594 C 35.64646,560.06979 39.00583,565.91979 40.50912,568.91594 C 42.01242,571.91209 46.18307,579.26621 49.77722,585.25843 C 53.37138,591.25065 57.16909,598.45065 58.21658,601.25843 C 59.26407,604.06621 63.20358,612.43848 66.97105,619.86348 C 70.73853,627.28848 74.5704,635.95098 75.48633,639.11348 C 76.40227,642.27598 77.55239,644.86348 78.04216,644.86348 C 79.26737,644.86348 80.55197,639.61129 83.05611,624.36348 C 86.22688,605.05651 88.6177,596.40965 93.70119,585.86348 C 101.72288,569.22172 116.73938,556.46555 137.73269,548.45973 C 142.56007,546.6188 153.48172,542.52234 162.00302,539.3565 C 182.84686,531.61255 206.16304,521.56512 238.00975,506.60359 C 273.479,489.9402 279.37761,487.73203 290.00975,487.13714 C 297.69044,486.70739 298.72663,486.86781 300.75975,488.80147 C 303.84776,491.7384 303.61279,493.87326 299.16896,503.25493 C 289.16111,524.38313 257.81595,563.2687 224.89225,595.39969 C 216.98187,603.1196 207.57925,611.52025 203.99753,614.06779 C 199.33904,617.38119 188.80678,622.31105 166.99753,631.38645 C 127.69842,647.73984 113.47525,653.43507 103.05286,656.99111 C 94.25104,659.99422 78.22473,663.41179 77.29653,662.48359 C 77.0026,662.18966 74.93397,662.88182 72.69957,664.02172 C 62.08593,669.4364 45.67162,671.82622 32.00975,669.94592 z M -49.57304,311.97885 C -26.24609,300.49503 -26.07947,271.10975 -49.27368,259.18025 C -56.71051,255.35525 -69.9903,254.73169 -78.19188,257.82238 C -99.10159,265.702 -105.15546,290.69827 -89.85883,305.9949 C -82.76846,313.08527 -74.7086,315.95864 -63.2704,315.47377 C -57.57681,315.23242 -54.68123,314.4936 -49.57304,311.97885 z M -28.99025,311.06348 C -28.99025,309.81726 -31.2493,307.86348 -32.69025,307.86348 C -34.35232,307.86348 -34.39233,310.53457 -32.74025,311.2012 C -30.7609,311.99989 -28.99025,311.93486 -28.99025,311.06348 z M -17.49961,297.84833 C -18.39037,296.40705 -25.02635,293.76775 -26.09648,294.42914 C -28.13582,295.68952 -26.82274,297.75755 -23.74025,298.14008 C -17.6294,298.89843 -16.87248,298.86305 -17.49961,297.84833 z "
         id="path2631" />
      <path
         style="fill:#47ca41"
         d="M 32.00975,669.94592 C 13.88839,667.45185 0.38505,662.8665 -18.97739,652.63211 C -37.06105,643.07364 -45.16277,639.12126 -66.63659,629.38181 C -88.55682,619.4399 -96.94317,614.8439 -101.52566,610.2614 C -108.81405,602.97301 -104.7415,594.17443 -92.34986,590.43743 C -79.85978,586.67074 -51.51061,587.29825 -26.49025,591.89523 C 6.54376,597.96456 30.21081,606.73621 46.00975,618.76571 C 49.58475,621.48775 52.87803,623.35753 53.32815,622.92078 C 54.37726,621.90282 52.26187,616.88271 46.20922,606.02661 C 43.55272,601.26189 40.55634,595.11348 39.55058,592.36348 C 37.71669,587.34914 29.61759,572.75482 14.3037,546.86942 C 9.79038,539.24044 4.10079,529.03066 1.66017,524.18102 C -0.78045,519.33137 -5.79014,510.41348 -9.47248,504.36348 C -20.25615,486.64616 -28.73261,468.26576 -36.47878,445.80286 C -38.29208,440.54451 -41.2523,433.84243 -43.05705,430.90935 C -48.79672,421.58118 -51.75016,405.62259 -49.0508,398.52273 C -48.5341,397.16371 -47.62204,391.60509 -47.024,386.17023 C -46.01016,376.95657 -46.10171,375.6491 -48.37851,366.82608 C -49.72152,361.62165 -52.04759,351.17598 -53.54755,343.61348 C -55.04751,336.05098 -56.68246,329.86348 -57.18077,329.86348 C -57.67909,329.86348 -58.67422,328.4664 -59.39219,326.75887 C -60.50691,324.10773 -60.62605,326.50324 -60.20785,343.15926 C -59.6575,365.07826 -60.79497,380.79263 -64.60185,403.86348 C -67.7927,423.20101 -72.01455,439.75553 -75.99291,448.52963 C -79.6213,456.53187 -81.53854,458.86348 -84.49025,458.86348 C -89.70864,458.86348 -91.84733,452.45196 -92.6627,434.36348 C -93.98404,405.05004 -86.19225,352.48191 -77.42026,331.52888 C -73.56237,322.31381 -73.46327,321.72198 -75.52564,320.21394 C -77.84241,318.51988 -80.92987,318.46745 -81.44172,320.11348 C -81.6555,320.80098 -82.80586,324.50477 -83.99806,328.34413 C -93.46404,358.82822 -140.79311,426.60865 -158.0457,434.38848 L -162.2361,436.27809 L -164.04582,434.04318 C -165.37551,432.40109 -165.70395,430.82087 -165.28402,428.08587 C -162.82745,412.08618 -139.55577,371.41371 -115.09166,340.36348 C -109.01562,332.65169 -95.90175,319.09795 -92.00222,316.49958 C -89.97822,315.15093 -89.71846,314.51738 -90.60941,313.10261 C -92.36987,310.3071 -94.89958,310.47118 -97.23045,313.53206 C -110.3439,330.75259 -168.0165,367.68347 -201.58572,380.35639 C -220.65569,387.55561 -228.2357,384.59332 -219.24025,373.45695 C -203.72403,354.24787 -135.51561,312.70518 -107.52027,305.41331 C -104.26267,304.56482 -101.16887,303.4421 -100.64515,302.91838 C -99.6212,301.89443 -102.57622,296.45322 -103.80398,297.10187 C -122.81371,307.14512 -163.1506,314.18 -209.52449,315.53986 C -231.47542,316.18354 -244.66473,315.11742 -250.207,312.25139 C -251.73779,311.45979 -253.00393,311.16118 -253.02066,311.5878 C -253.03738,312.01442 -253.4881,311.61465 -254.02225,310.69942 C -255.38235,308.369 -254.49228,306.7181 -250.46558,304.10251 C -234.96999,294.03715 -160.12811,283.71945 -124.36415,286.71818 C -117.14479,287.3235 -110.16979,288.21422 -108.86415,288.69754 C -105.08896,290.09505 -103.99025,289.09925 -103.99025,284.28015 L -103.99025,279.86348 L -115.24025,279.84516 C -151.5183,279.78608 -231.85569,258.94718 -245.23997,246.12424 C -251.08096,240.52821 -248.13057,237.62957 -236.00351,237.04977 C -205.10681,235.57258 -127.1918,254.85031 -104.7461,269.52547 C -102.072,271.27382 -101.94719,271.26486 -99.85715,269.17483 C -98.67752,267.99519 -97.95907,266.38711 -98.26061,265.60132 C -98.56215,264.81553 -101.99808,263.14713 -105.89601,261.89378 C -126.53393,255.25781 -174.8338,221.97321 -199.53629,197.36402 C -212.31684,184.63174 -216.46034,178.33976 -214.00932,175.38646 C -208.28496,168.48903 -175.25379,185.88625 -134.49025,217.26842 C -119.77484,228.59721 -97.02117,250.72146 -95.0543,255.61348 C -93.57518,259.29235 -91.16004,259.81356 -88.61637,257.00284 C -87.01539,255.23378 -87.19341,254.87697 -92.23362,249.75284 C -113.56013,228.07127 -149.9247,147.31895 -146.52429,129.19325 C -143.87095,115.04974 -126.70923,133.71944 -107.76019,171.36348 C -91.66731,203.33349 -82.19565,229.04396 -80.4067,245.61348 C -79.80763,251.16219 -79.48734,251.86348 -77.55221,251.86348 C -76.35338,251.86348 -74.58211,251.28552 -73.61606,250.57913 C -71.95504,249.36456 -71.99519,248.88914 -74.35499,241.82913 C -78.48333,229.47804 -80.11997,215.65685 -80.70695,188.18746 C -81.48321,151.86 -78.70573,126.41035 -72.54314,113.38371 C -70.42168,108.8993 -69.47121,107.86348 -67.4778,107.86348 C -62.44048,107.86348 -57.57078,122.90036 -55.01787,146.33783 C -53.62605,159.11575 -53.61227,200.42307 -54.9955,213.38913 C -56.35242,226.10849 -58.71934,238.0909 -61.03832,243.98049 C -63.21531,249.50948 -62.37965,250.86348 -56.79025,250.86348 L -52.99025,250.86348 L -52.99025,246.47296 C -52.99025,235.39615 -44.53778,211.69559 -30.48314,183.36348 C -11.94296,145.98918 5.67924,122.03687 12.94053,124.34151 C 14.07605,124.70191 15.2889,126.12753 15.63577,127.50957 C 19.85394,144.31608 -17.53857,224.50408 -40.17409,247.19348 C -43.37298,250.39998 -45.99025,253.42165 -45.99025,253.9083 C -45.99025,255.00516 -42.63303,256.86348 -40.65145,256.86348 C -39.84279,256.86348 -37.84435,254.50098 -36.21046,251.61348 C -31.83592,243.88256 -18.22322,230.00369 -1.36333,216.085 C 33.02804,187.69318 64.62273,168.20422 74.87197,169.0598 C 78.02169,169.32274 78.55274,169.73805 78.83022,172.15538 C 79.57698,178.66124 66.3929,193.80651 43.00975,213.3043 C 14.16996,237.35205 -13.17583,255.28564 -28.79495,260.39439 C -34.3445,262.20956 -34.88613,263.13941 -32.43355,266.64097 C -30.46246,269.4551 -29.59674,269.42786 -25.66364,266.42793 C -12.16151,256.12936 40.20671,239.28727 78.50975,232.92485 C 96.3166,229.967 113.37246,229.82619 116.1603,232.61403 C 118.33882,234.79255 116.08128,238.79556 110.63471,242.41188 C 88.22042,257.29413 2.93402,279.10513 -21.57932,276.22407 L -26.99025,275.58812 L -26.99025,278.5258 C -26.99025,282.6646 -25.46813,283.86475 -21.63907,282.74505 C -19.90722,282.23862 -12.67508,281.35055 -5.56764,280.77157 C 22.91607,278.45122 81.76653,284.80272 107.63294,292.98886 C 118.08414,296.29643 122.00975,298.88993 122.00975,302.48709 C 122.00975,305.73671 117.97825,307.42892 106.93847,308.81319 C 78.22148,312.41399 7.59166,305.18579 -15.67342,296.26517 C -24.93632,292.71346 -27.40654,292.64444 -27.78865,295.92667 C -28.07542,298.39002 -27.79475,298.5353 -20.58222,299.6566 C 8.65945,304.20271 81.00118,338.75968 99.04102,356.79951 C 106.22137,363.97986 105.52439,367.86951 97.05975,367.85647 C 82.90086,367.83467 50.71033,355.70174 12.27413,335.89992 C -9.88322,324.48475 -10.34201,324.96592 7.75975,340.63452 C 24.46113,355.09096 50.12437,381.23504 57.7506,391.56202 C 71.10275,409.64269 69.41101,417.14122 53.69131,409.55455 C 37.40259,401.69326 16.93064,385.0319 -11.23064,356.71701 C -22.63786,345.24757 -32.20036,335.86348 -32.48064,335.86348 C -33.59037,335.86348 -32.8385,338.38417 -29.39703,346.20148 C -15.81728,377.04789 -3.96996,419.94735 -3.64277,439.4583 C -3.47498,449.46358 -4.45557,451.86348 -8.71148,451.86348 C -12.0723,451.86348 -15.99974,447.43533 -22.62839,436.17229 C -25.64158,431.05244 -28.26494,426.86348 -28.45807,426.86348 C -29.49655,426.86348 -25.80946,437.3022 -22.63007,443.36348 C -20.61058,447.21348 -17.36762,454.63848 -15.42348,459.86348 C -13.47935,465.08848 -10.62477,472.73848 -9.07997,476.86348 C -5.45575,486.54108 2.58839,502.59224 10.46511,515.86348 C 13.89268,521.63848 19.31038,531.31348 22.50445,537.36348 C 25.69853,543.41348 30.44126,551.76209 33.04386,555.91594 C 35.64646,560.06979 39.00583,565.91979 40.50912,568.91594 C 42.01242,571.91209 46.18307,579.26621 49.77722,585.25843 C 53.37138,591.25065 57.16909,598.45065 58.21658,601.25843 C 59.26407,604.06621 63.20358,612.43848 66.97105,619.86348 C 70.73853,627.28848 74.5704,635.95098 75.48633,639.11348 C 76.40227,642.27598 77.55239,644.86348 78.04216,644.86348 C 79.26737,644.86348 80.55197,639.61129 83.05611,624.36348 C 86.22688,605.05651 88.6177,596.40965 93.70119,585.86348 C 101.72288,569.22172 116.73938,556.46555 137.73269,548.45973 C 142.56007,546.6188 153.48172,542.52234 162.00302,539.3565 C 182.84686,531.61255 206.16304,521.56512 238.00975,506.60359 C 273.479,489.9402 279.37761,487.73203 290.00975,487.13714 C 297.69044,486.70739 298.72663,486.86781 300.75975,488.80147 C 303.84776,491.7384 303.61279,493.87326 299.16896,503.25493 C 289.16111,524.38313 257.81595,563.2687 224.89225,595.39969 C 216.98187,603.1196 207.57925,611.52025 203.99753,614.06779 C 199.33904,617.38119 188.80678,622.31105 166.99753,631.38645 C 127.69842,647.73984 113.47525,653.43507 103.05286,656.99111 C 94.25104,659.99422 78.22473,663.41179 77.29653,662.48359 C 77.0026,662.18966 74.93397,662.88182 72.69957,664.02172 C 62.08593,669.4364 45.67162,671.82622 32.00975,669.94592 z M -42.74025,318.44681 C -42.60275,317.94265 -43.05275,317.34265 -43.74025,317.11348 C -44.42775,316.88431 -44.99025,317.44681 -44.99025,318.36348 C -44.99025,320.05683 -43.19746,320.12323 -42.74025,318.44681 z M -50.40019,313.45088 C -43.56862,310.32328 -37.43601,304.64024 -34.18776,298.42694 C -30.6767,291.71091 -30.4425,280.74242 -33.6601,273.71431 C -36.50827,267.49315 -42.94888,261.24331 -49.84229,258.01144 C -54.77129,255.70055 -56.76321,255.36348 -65.49025,255.36348 C -74.39305,255.36348 -76.10924,255.66746 -81.13176,258.13395 C -99.53553,267.17179 -104.75141,288.37715 -92.51631,304.41821 C -84.04966,315.51855 -64.21053,319.77346 -50.40019,313.45088 z M -25.00513,314.11348 C -25.01331,313.70098 -26.47581,311.64568 -28.25513,309.54615 C -31.47393,305.74808 -34.16351,305.26665 -35.32041,308.28148 C -35.99709,310.04488 -35.03443,311.10529 -30.99025,313.05136 C -27.16335,314.89288 -24.98199,315.27998 -25.00513,314.11348 z "
         id="path2629" />
      <path
         style="fill:#47b336"
         d="M 34.23069,670.09653 C 30.59006,669.9052 28.19874,669.36671 28.53971,668.81501 C 28.86315,668.29167 28.00415,667.86348 26.63082,667.86348 C 22.92424,667.86348 11.98458,665.16877 3.75708,662.22911 C -0.22895,660.80491 -13.39025,654.54962 -25.49025,648.32845 C -37.59025,642.10729 -54.24025,634.00555 -62.49025,630.32458 C -91.71534,617.28502 -100.76887,611.95711 -103.50717,606.18658 C -105.08371,602.86427 -105.09488,602.3061 -103.64567,599.26707 C -100.16419,591.96634 -89.5997,588.90595 -67.79147,588.88058 C -25.81773,588.83175 23.19948,602.13515 46.00975,619.76651 C 52.72322,624.95574 55.00975,625.89065 55.00975,623.44639 C 55.00975,621.38197 51.9064,614.49105 46.86605,605.36348 C 44.43632,600.96348 41.61539,595.11348 40.59731,592.36348 C 39.57923,589.61348 35.73372,582.18848 32.05174,575.86348 C 28.36975,569.53848 23.41569,560.78175 21.04271,556.40409 C 18.66973,552.02642 14.77481,545.3972 12.38733,541.67249 C 9.99985,537.94778 5.8363,530.50451 3.135,525.13188 C 0.4337,519.75926 -4.78948,510.41348 -8.47205,504.36348 C -19.19249,486.75118 -27.57083,468.61243 -35.52665,445.79142 C -37.36199,440.52679 -40.43933,433.55179 -42.36518,430.29142 C -47.20488,422.09805 -50.13346,409.9756 -48.87052,403.36348 C -48.34526,400.61348 -47.50375,393.26776 -47.0005,387.03967 C -46.16087,376.64869 -46.28052,374.95993 -48.45292,366.53967 C -49.75501,361.49276 -52.04759,351.17598 -53.54755,343.61348 C -55.04751,336.05098 -56.68246,329.86348 -57.18077,329.86348 C -57.67909,329.86348 -58.67422,328.4664 -59.39219,326.75887 C -60.50691,324.10773 -60.62605,326.50324 -60.20785,343.15926 C -59.6575,365.07826 -60.79497,380.79263 -64.60185,403.86348 C -67.7927,423.20101 -72.01455,439.75553 -75.99291,448.52963 C -79.6213,456.53187 -81.53854,458.86348 -84.49025,458.86348 C -89.70864,458.86348 -91.84733,452.45196 -92.6627,434.36348 C -93.98404,405.05004 -86.19225,352.48191 -77.42026,331.52888 C -73.56237,322.31381 -73.46327,321.72198 -75.52564,320.21394 C -77.84241,318.51988 -80.92987,318.46745 -81.44172,320.11348 C -81.6555,320.80098 -82.80586,324.50477 -83.99806,328.34413 C -93.46404,358.82822 -140.79311,426.60865 -158.0457,434.38848 L -162.2361,436.27809 L -164.04582,434.04318 C -165.37551,432.40109 -165.70395,430.82087 -165.28402,428.08587 C -162.82745,412.08618 -139.55577,371.41371 -115.09166,340.36348 C -109.01562,332.65169 -95.90175,319.09795 -92.00222,316.49958 C -89.97822,315.15093 -89.71846,314.51738 -90.60941,313.10261 C -92.36987,310.3071 -94.89958,310.47118 -97.23045,313.53206 C -110.3439,330.75259 -168.0165,367.68347 -201.58572,380.35639 C -220.65569,387.55561 -228.2357,384.59332 -219.24025,373.45695 C -203.72403,354.24787 -135.51561,312.70518 -107.52027,305.41331 C -104.26267,304.56482 -101.16887,303.4421 -100.64515,302.91838 C -99.6212,301.89443 -102.57622,296.45322 -103.80398,297.10187 C -122.81371,307.14512 -163.1506,314.18 -209.52449,315.53986 C -231.47542,316.18354 -244.66473,315.11742 -250.207,312.25139 C -251.73779,311.45979 -253.00393,311.16118 -253.02066,311.5878 C -253.03738,312.01442 -253.4881,311.61465 -254.02225,310.69942 C -255.38235,308.369 -254.49228,306.7181 -250.46558,304.10251 C -234.96999,294.03715 -160.12811,283.71945 -124.36415,286.71818 C -117.14479,287.3235 -110.16979,288.21422 -108.86415,288.69754 C -105.08896,290.09505 -103.99025,289.09925 -103.99025,284.28015 L -103.99025,279.86348 L -115.24025,279.84516 C -151.5183,279.78608 -231.85569,258.94718 -245.23997,246.12424 C -251.08096,240.52821 -248.13057,237.62957 -236.00351,237.04977 C -205.10681,235.57258 -127.1918,254.85031 -104.7461,269.52547 C -102.072,271.27382 -101.94719,271.26486 -99.85715,269.17483 C -98.67752,267.99519 -97.95907,266.38711 -98.26061,265.60132 C -98.56215,264.81553 -101.99808,263.14713 -105.89601,261.89378 C -126.53393,255.25781 -174.8338,221.97321 -199.53629,197.36402 C -212.31684,184.63174 -216.46034,178.33976 -214.00932,175.38646 C -208.28496,168.48903 -175.25379,185.88625 -134.49025,217.26842 C -119.77484,228.59721 -97.02117,250.72146 -95.0543,255.61348 C -93.57518,259.29235 -91.16004,259.81356 -88.61637,257.00284 C -87.01539,255.23378 -87.19341,254.87697 -92.23362,249.75284 C -113.56013,228.07127 -149.9247,147.31895 -146.52429,129.19325 C -143.87095,115.04974 -126.70923,133.71944 -107.76019,171.36348 C -91.66731,203.33349 -82.19565,229.04396 -80.4067,245.61348 C -79.80763,251.16219 -79.48734,251.86348 -77.55221,251.86348 C -76.35338,251.86348 -74.58211,251.28552 -73.61606,250.57913 C -71.95504,249.36456 -71.99519,248.88914 -74.35499,241.82913 C -78.48333,229.47804 -80.11997,215.65685 -80.70695,188.18746 C -81.48321,151.86 -78.70573,126.41035 -72.54314,113.38371 C -70.42168,108.8993 -69.47121,107.86348 -67.4778,107.86348 C -62.44048,107.86348 -57.57078,122.90036 -55.01787,146.33783 C -53.62605,159.11575 -53.61227,200.42307 -54.9955,213.38913 C -56.35242,226.10849 -58.71934,238.0909 -61.03832,243.98049 C -63.21531,249.50948 -62.37965,250.86348 -56.79025,250.86348 L -52.99025,250.86348 L -52.99025,246.47296 C -52.99025,235.39615 -44.53778,211.69559 -30.48314,183.36348 C -11.94296,145.98918 5.67924,122.03687 12.94053,124.34151 C 14.07605,124.70191 15.2889,126.12753 15.63577,127.50957 C 19.85394,144.31608 -17.53857,224.50408 -40.17409,247.19348 C -43.37298,250.39998 -45.99025,253.42165 -45.99025,253.9083 C -45.99025,255.00516 -42.63303,256.86348 -40.65145,256.86348 C -39.84279,256.86348 -37.84435,254.50098 -36.21046,251.61348 C -31.83592,243.88256 -18.22322,230.00369 -1.36333,216.085 C 33.02804,187.69318 64.62273,168.20422 74.87197,169.0598 C 78.02169,169.32274 78.55274,169.73805 78.83022,172.15538 C 79.57698,178.66124 66.3929,193.80651 43.00975,213.3043 C 14.16996,237.35205 -13.17583,255.28564 -28.79495,260.39439 C -34.3445,262.20956 -34.88613,263.13941 -32.43355,266.64097 C -30.46246,269.4551 -29.59674,269.42786 -25.66364,266.42793 C -12.16151,256.12936 40.20671,239.28727 78.50975,232.92485 C 96.3166,229.967 113.37246,229.82619 116.1603,232.61403 C 118.33882,234.79255 116.08128,238.79556 110.63471,242.41188 C 88.22042,257.29413 2.93402,279.10513 -21.57932,276.22407 L -26.99025,275.58812 L -26.99025,278.5258 C -26.99025,282.6646 -25.46813,283.86475 -21.63907,282.74505 C -19.90722,282.23862 -12.67508,281.35055 -5.56764,280.77157 C 22.91607,278.45122 81.76653,284.80272 107.63294,292.98886 C 118.08414,296.29643 122.00975,298.88993 122.00975,302.48709 C 122.00975,305.73671 117.97825,307.42892 106.93847,308.81319 C 78.22148,312.41399 7.59166,305.18579 -15.67342,296.26517 C -24.93632,292.71346 -27.40654,292.64444 -27.78865,295.92667 C -28.07542,298.39002 -27.79475,298.5353 -20.58222,299.6566 C 8.65945,304.20271 81.00118,338.75968 99.04102,356.79951 C 106.22137,363.97986 105.52439,367.86951 97.05975,367.85647 C 82.90086,367.83467 50.71033,355.70174 12.27413,335.89992 C -9.88322,324.48475 -10.34201,324.96592 7.75975,340.63452 C 24.46113,355.09096 50.12437,381.23504 57.7506,391.56202 C 71.10275,409.64269 69.41101,417.14122 53.69131,409.55455 C 37.40259,401.69326 16.93064,385.0319 -11.23064,356.71701 C -22.63786,345.24757 -32.20036,335.86348 -32.48064,335.86348 C -33.59037,335.86348 -32.8385,338.38417 -29.39703,346.20148 C -15.81728,377.04789 -3.96996,419.94735 -3.64277,439.4583 C -3.47498,449.46358 -4.45557,451.86348 -8.71148,451.86348 C -12.0723,451.86348 -15.99974,447.43533 -22.62839,436.17229 C -25.64158,431.05244 -28.33223,426.86348 -28.6076,426.86348 C -28.88298,426.86348 -28.88427,427.22594 -28.61047,427.66896 C -28.33668,428.11197 -27.88301,430.37968 -27.60233,432.70831 C -27.32165,435.03694 -25.7517,439.28697 -24.11354,442.15283 C -22.47539,445.01869 -19.56078,451.63848 -17.63662,456.86348 C -7.37086,484.73989 -1.77269,496.92678 9.46564,515.86348 C 12.89291,521.63848 18.31038,531.31348 21.50445,537.36348 C 24.69853,543.41348 29.44781,551.77255 32.05842,555.93918 C 34.66904,560.10582 38.2639,566.40582 40.047,569.93918 C 41.83011,573.47255 45.995,580.81833 49.30232,586.26314 C 52.60964,591.70795 56.17186,598.45795 57.21837,601.26314 C 58.26488,604.06833 62.20358,612.43848 65.97105,619.86348 C 69.73853,627.28848 73.58829,636.06348 74.52609,639.36348 C 78.04745,651.75473 79.2991,649.86728 83.55249,625.75195 C 85.43331,615.08829 87.92249,603.21348 89.08399,599.36348 C 94.18976,582.43956 104.7795,567.93572 118.67585,558.83409 C 126.10625,553.96743 134.35833,550.38908 159.00975,541.34407 C 184.17597,532.11017 202.07345,524.33701 250.50975,501.60415 C 272.07504,491.4828 282.81712,487.76115 291.10507,487.5397 C 295.45352,487.42352 298.2641,487.83104 299.35507,488.73592 C 300.26514,489.49077 301.04138,489.71577 301.08004,489.23592 C 301.11869,488.75608 301.52594,489.26348 301.98503,490.36348 C 302.81011,492.34042 302.26975,496.89529 301.09528,497.86348 C 300.76168,498.13848 299.36847,500.82827 297.99925,503.8408 C 285.72324,530.85014 219.09112,606.21801 197.33079,617.70733 C 194.99837,618.93883 141.12551,641.40847 124.50975,648.07999 C 106.50873,655.30772 92.44071,659.72386 82.89427,661.14365 C 77.73278,661.91129 71.68882,663.47472 69.46324,664.61793 C 67.23765,665.76115 63.63765,667.02398 61.46324,667.42424 C 59.28882,667.82449 57.28475,668.46873 57.00975,668.85589 C 56.36682,669.76105 42.36137,670.52384 34.23069,670.09653 z M 57.09183,664.44111 C 65.57843,662.92715 70.15944,660.91556 72.39763,657.7201 C 74.67318,654.47129 73.12104,652.30379 56.35778,635.32107 C 40.26836,619.02102 35.02554,615.36383 17.51168,608.2235 C 1.06903,601.5199 -28.62704,595.12441 -53.99025,592.82451 C -79.72052,590.49132 -100.99025,594.97756 -100.99025,602.73781 C -100.99025,607.31396 -89.84833,614.14988 -62.49025,626.35876 C -54.24025,630.04042 -36.01525,638.86715 -21.99025,645.97372 C -2.29604,655.95291 5.67269,659.45611 13.00975,661.36038 C 29.98802,665.76693 44.12257,666.75474 57.09183,664.44111 z M 98.50975,654.13639 C 107.76374,651.24394 128.95443,642.84242 168.50975,626.38335 C 201.25465,612.75811 203.50346,611.29234 225.3064,589.36348 C 258.68565,555.79145 289.96785,516.28236 296.05801,500.00494 C 299.12541,491.8066 298.79974,491.34792 289.98414,491.45019 C 280.64309,491.55856 275.13261,493.6311 239.00975,510.62217 C 206.30992,526.00314 183.55886,535.74917 160.34501,544.32033 C 129.52929,555.6983 123.05393,558.82124 113.15607,567.07861 C 99.2592,578.67219 92.00352,594.46813 87.53197,622.86348 C 86.62255,628.63848 84.7222,638.16797 83.30898,644.04013 C 81.89575,649.91229 81.02628,655.46417 81.37682,656.37766 C 82.16303,658.4265 86.67077,657.83682 98.50975,654.13639 z M 72.61715,640.11348 C 72.28197,638.60098 68.887,631.06348 65.07278,623.36348 C 61.25855,615.66348 57.1723,606.88848 55.99223,603.86348 C 53.93502,598.58999 45.22076,582.8669 30.72909,558.28132 C 26.99972,551.95433 20.88472,541.05951 17.1402,534.07059 C 13.39568,527.08168 8.46017,518.31919 6.17241,514.59839 C -2.70533,500.15971 -9.77807,484.6181 -19.61048,457.94321 C -21.52026,452.76207 -24.58032,445.78707 -26.41061,442.44321 C -28.2409,439.09936 -30.47961,433.21348 -31.38552,429.36348 C -33.36589,420.9472 -43.01404,393.86348 -44.03185,393.86348 C -45.10938,393.86348 -46.99025,402.15933 -46.99025,406.91196 C -46.99025,413.53549 -44.17105,422.8298 -40.02847,429.86348 C -37.92293,433.43848 -35.65826,438.3776 -34.99588,440.83929 C -31.30302,454.5636 -17.81863,484.37639 -7.64595,501.30759 C -3.33158,508.48833 2.2007,518.33137 4.64801,523.18102 C 7.09532,528.03066 12.79038,538.23314 17.3037,545.85319 C 32.60007,571.67874 39.50071,584.20635 42.61053,591.79595 C 44.31596,595.95809 47.40355,602.22466 49.47184,605.72166 C 51.54013,609.21866 54.96461,616.33717 57.0818,621.54056 C 62.20757,634.13811 74.56757,648.91481 72.61715,640.11348 z M -42.74025,318.44681 C -42.60275,317.94265 -43.05275,317.34265 -43.74025,317.11348 C -44.42775,316.88431 -44.99025,317.44681 -44.99025,318.36348 C -44.99025,320.05683 -43.19746,320.12323 -42.74025,318.44681 z M -50.40019,313.45088 C -43.56862,310.32328 -37.43601,304.64024 -34.18776,298.42694 C -30.6767,291.71091 -30.4425,280.74242 -33.6601,273.71431 C -36.50827,267.49315 -42.94888,261.24331 -49.84229,258.01144 C -54.77129,255.70055 -56.76321,255.36348 -65.49025,255.36348 C -74.39305,255.36348 -76.10924,255.66746 -81.13176,258.13395 C -99.53553,267.17179 -104.75141,288.37715 -92.51631,304.41821 C -84.04966,315.51855 -64.21053,319.77346 -50.40019,313.45088 z M -25.00513,314.11348 C -25.01331,313.70098 -26.47581,311.64568 -28.25513,309.54615 C -31.47393,305.74808 -34.16351,305.26665 -35.32041,308.28148 C -35.99709,310.04488 -35.03443,311.10529 -30.99025,313.05136 C -27.16335,314.89288 -24.98199,315.27998 -25.00513,314.11348 z "
         id="path2627" />
      <path
         style="fill:#8f2726"
         d="M -88.23587,457.11348 C -90.84109,454.18269 -92.04917,447.97421 -92.6627,434.36348 C -93.98404,405.05004 -86.19225,352.48191 -77.42026,331.52888 C -73.56237,322.31381 -73.46327,321.72198 -75.52564,320.21394 C -77.84241,318.51988 -80.92987,318.46745 -81.44172,320.11348 C -81.6555,320.80098 -82.80586,324.50477 -83.99806,328.34413 C -93.46404,358.82822 -140.79311,426.60865 -158.0457,434.38848 L -162.2361,436.27809 L -164.04582,434.04318 C -165.37551,432.40109 -165.70395,430.82087 -165.28402,428.08587 C -162.82745,412.08618 -139.55577,371.41371 -115.09166,340.36348 C -109.01562,332.65169 -95.90175,319.09795 -92.00222,316.49958 C -89.97822,315.15093 -89.71846,314.51738 -90.60941,313.10261 C -92.36987,310.3071 -94.89958,310.47118 -97.23045,313.53206 C -110.3439,330.75259 -168.0165,367.68347 -201.58572,380.35639 C -220.65569,387.55561 -228.2357,384.59332 -219.24025,373.45695 C -203.72403,354.24787 -135.51561,312.70518 -107.52027,305.41331 C -104.26267,304.56482 -101.16887,303.4421 -100.64515,302.91838 C -99.6212,301.89443 -102.57622,296.45322 -103.80398,297.10187 C -122.81371,307.14512 -163.1506,314.18 -209.52449,315.53986 C -231.47542,316.18354 -244.66473,315.11742 -250.207,312.25139 C -251.73779,311.45979 -253.00393,311.16118 -253.02066,311.5878 C -253.03738,312.01442 -253.4881,311.61465 -254.02225,310.69942 C -255.38235,308.369 -254.49228,306.7181 -250.46558,304.10251 C -234.96999,294.03715 -160.12811,283.71945 -124.36415,286.71818 C -117.14479,287.3235 -110.16979,288.21422 -108.86415,288.69754 C -105.08896,290.09505 -103.99025,289.09925 -103.99025,284.28015 L -103.99025,279.86348 L -115.24025,279.84516 C -151.5183,279.78608 -231.85569,258.94718 -245.23997,246.12424 C -251.08096,240.52821 -248.13057,237.62957 -236.00351,237.04977 C -205.10681,235.57258 -127.1918,254.85031 -104.7461,269.52547 C -102.072,271.27382 -101.94719,271.26486 -99.85715,269.17483 C -98.67752,267.99519 -97.95907,266.38711 -98.26061,265.60132 C -98.56215,264.81553 -101.99808,263.14713 -105.89601,261.89378 C -126.53393,255.25781 -174.8338,221.97321 -199.53629,197.36402 C -212.31684,184.63174 -216.46034,178.33976 -214.00932,175.38646 C -208.28496,168.48903 -175.25379,185.88625 -134.49025,217.26842 C -119.77484,228.59721 -97.02117,250.72146 -95.0543,255.61348 C -93.57518,259.29235 -91.16004,259.81356 -88.61637,257.00284 C -87.01539,255.23378 -87.19341,254.87697 -92.23362,249.75284 C -113.56013,228.07127 -149.9247,147.31895 -146.52429,129.19325 C -143.87095,115.04974 -126.70923,133.71944 -107.76019,171.36348 C -91.66731,203.33349 -82.19565,229.04396 -80.4067,245.61348 C -79.80763,251.16219 -79.48734,251.86348 -77.55221,251.86348 C -76.35338,251.86348 -74.58211,251.28552 -73.61606,250.57913 C -71.95504,249.36456 -71.99519,248.88914 -74.35499,241.82913 C -78.48333,229.47804 -80.11997,215.65685 -80.70695,188.18746 C -81.48321,151.86 -78.70573,126.41035 -72.54314,113.38371 C -70.42168,108.8993 -69.47121,107.86348 -67.4778,107.86348 C -62.44048,107.86348 -57.57078,122.90036 -55.01787,146.33783 C -53.62605,159.11575 -53.61227,200.42307 -54.9955,213.38913 C -56.35242,226.10849 -58.71934,238.0909 -61.03832,243.98049 C -63.21531,249.50948 -62.37965,250.86348 -56.79025,250.86348 L -52.99025,250.86348 L -52.99025,246.47296 C -52.99025,235.39615 -44.53778,211.69559 -30.48314,183.36348 C -11.94296,145.98918 5.67924,122.03687 12.94053,124.34151 C 14.07605,124.70191 15.2889,126.12753 15.63577,127.50957 C 19.85394,144.31608 -17.53857,224.50408 -40.17409,247.19348 C -43.37298,250.39998 -45.99025,253.42165 -45.99025,253.9083 C -45.99025,255.00516 -42.63303,256.86348 -40.65145,256.86348 C -39.84279,256.86348 -37.84435,254.50098 -36.21046,251.61348 C -31.83592,243.88256 -18.22322,230.00369 -1.36333,216.085 C 33.02804,187.69318 64.62273,168.20422 74.87197,169.0598 C 78.02169,169.32274 78.55274,169.73805 78.83022,172.15538 C 79.57698,178.66124 66.3929,193.80651 43.00975,213.3043 C 14.16996,237.35205 -13.17583,255.28564 -28.79495,260.39439 C -34.3445,262.20956 -34.88613,263.13941 -32.43355,266.64097 C -30.46246,269.4551 -29.59674,269.42786 -25.66364,266.42793 C -12.16151,256.12936 40.20671,239.28727 78.50975,232.92485 C 96.3166,229.967 113.37246,229.82619 116.1603,232.61403 C 118.33882,234.79255 116.08128,238.79556 110.63471,242.41188 C 88.22042,257.29413 2.93402,279.10513 -21.57932,276.22407 L -26.99025,275.58812 L -26.99025,278.5258 C -26.99025,282.6646 -25.46813,283.86475 -21.63907,282.74505 C -19.90722,282.23862 -12.67508,281.35055 -5.56764,280.77157 C 22.91607,278.45122 81.76653,284.80272 107.63294,292.98886 C 118.08414,296.29643 122.00975,298.88993 122.00975,302.48709 C 122.00975,305.73671 117.97825,307.42892 106.93847,308.81319 C 78.22148,312.41399 7.59166,305.18579 -15.67342,296.26517 C -24.93632,292.71346 -27.40654,292.64444 -27.78865,295.92667 C -28.07542,298.39002 -27.79475,298.5353 -20.58222,299.6566 C 8.65945,304.20271 81.00118,338.75968 99.04102,356.79951 C 106.22137,363.97986 105.52439,367.86951 97.05975,367.85647 C 82.90086,367.83467 50.71033,355.70174 12.27413,335.89992 C -9.88322,324.48475 -10.34201,324.96592 7.75975,340.63452 C 24.46113,355.09096 50.12437,381.23504 57.7506,391.56202 C 71.10275,409.64269 69.41101,417.14122 53.69131,409.55455 C 37.40259,401.69326 16.93064,385.0319 -11.23064,356.71701 C -22.63786,345.24757 -32.20036,335.86348 -32.48064,335.86348 C -33.59037,335.86348 -32.8385,338.38417 -29.39703,346.20148 C -15.81728,377.04789 -3.96996,419.94735 -3.64277,439.4583 C -3.47498,449.46358 -4.45557,451.86348 -8.71148,451.86348 C -12.20281,451.86348 -15.89825,447.52118 -23.92819,433.98322 C -30.60071,422.73377 -42.47198,393.71693 -44.94242,382.61833 C -45.46331,380.27816 -47.03748,373.41348 -48.44055,367.36348 C -53.07339,347.38691 -55.99025,331.65956 -55.99025,326.65641 C -55.99025,322.1137 -56.16786,321.7496 -58.24025,322.04393 L -60.49025,322.36348 L -60.16512,344.36348 C -59.80622,368.64838 -61.26024,386.28651 -65.55175,409.70678 C -69.82982,433.05373 -75.76579,451.64301 -80.67517,457.06782 C -82.74088,459.3504 -86.22872,459.37146 -88.23587,457.11348 z M -42.74025,318.44681 C -42.60275,317.94265 -43.05275,317.34265 -43.74025,317.11348 C -44.42775,316.88431 -44.99025,317.44681 -44.99025,318.36348 C -44.99025,320.05683 -43.19746,320.12323 -42.74025,318.44681 z M -50.40019,313.45088 C -43.56862,310.32328 -37.43601,304.64024 -34.18776,298.42694 C -30.6767,291.71091 -30.4425,280.74242 -33.6601,273.71431 C -36.50827,267.49315 -42.94888,261.24331 -49.84229,258.01144 C -54.77129,255.70055 -56.76321,255.36348 -65.49025,255.36348 C -74.39305,255.36348 -76.10924,255.66746 -81.13176,258.13395 C -99.53553,267.17179 -104.75141,288.37715 -92.51631,304.41821 C -84.04966,315.51855 -64.21053,319.77346 -50.40019,313.45088 z M -25.00513,314.11348 C -25.01331,313.70098 -26.47581,311.64568 -28.25513,309.54615 C -31.47393,305.74808 -34.16351,305.26665 -35.32041,308.28148 C -35.99709,310.04488 -35.03443,311.10529 -30.99025,313.05136 C -27.16335,314.89288 -24.98199,315.27998 -25.00513,314.11348 z "
         id="path2625" />
      <path
         style="fill:#851e1e"
         d="M -88.46889,454.90479 C -96.57376,439.2317 -88.88242,360.99216 -76.32416,331.36348 C -72.39273,322.08806 -72.25223,320.09457 -75.44441,318.88091 C -79.06954,317.50264 -81.98296,317.60025 -82.3857,319.11348 C -86.46845,334.45391 -92.6263,347.74369 -104.97413,367.86348 C -124.93593,400.38962 -147.94089,428.5207 -158.83515,433.72616 C -161.96465,435.22149 -162.26558,435.20744 -163.50831,433.50789 C -169.18699,425.74183 -144.24415,379.14441 -113.91726,340.86348 C -106.55972,331.57623 -91.9214,316.86348 -90.03866,316.86348 C -89.34139,316.86348 -88.98705,315.7443 -89.17383,314.13189 C -89.39679,312.20707 -90.29256,311.11981 -92.2067,310.45064 C -94.72483,309.57033 -95.36128,309.97915 -100.92454,316.05046 C -124.56025,341.84467 -210.45765,389.77419 -220.8756,382.98143 C -226.55219,379.28015 -210.68473,363.93019 -180.99025,344.3969 C -152.74303,325.81563 -124.92141,311.42065 -107.63427,306.44232 C -98.64517,303.85366 -97.30683,302.16399 -100.81445,297.83226 L -102.73339,295.46247 L -109.11182,298.57722 C -125.51919,306.58935 -167.84315,313.3176 -209.52449,314.53986 C -235.57005,315.30361 -251.9509,313.34209 -252.00556,309.45296 C -252.01398,308.85375 -252.45709,309.03848 -252.99025,309.86348 C -253.734,311.01435 -253.95962,310.66522 -253.95962,308.36348 C -253.95962,306.06174 -253.734,305.71261 -252.99025,306.86348 C -252.36529,307.83054 -252.01544,307.92658 -252.00556,307.1338 C -251.9863,305.58682 -246.35632,302.68806 -238.11901,299.98388 C -213.98646,292.06158 -150.96138,285.30006 -123.799,287.7193 C -116.82357,288.34057 -109.99171,289.36132 -108.6171,289.98764 C -104.34398,291.9346 -102.99025,290.58906 -102.99025,284.39486 C -102.99025,280.66851 -103.39816,278.84384 -104.24025,278.80331 C -104.92775,278.77022 -109.99025,278.78858 -115.49025,278.84411 C -154.57276,279.23874 -246.99025,253.28194 -246.99025,241.91041 C -246.99025,235.82123 -221.38062,236.6753 -186.17312,243.93863 C -152.05467,250.97729 -118.26775,261.84619 -107.26558,269.32236 C -102.58138,272.50535 -100.47106,272.52692 -98.43051,269.41265 C -95.82874,265.44184 -96.90374,263.65756 -102.99262,261.84055 C -118.77893,257.12966 -147.93917,239.00763 -177.2582,215.68717 C -199.25677,198.18943 -215.33167,180.80154 -213.62389,176.35114 C -210.56019,168.36727 -170.43067,190.16431 -131.99025,220.69186 C -114.90084,234.26345 -99.14187,249.74162 -96.42497,255.62342 C -95.09456,258.50361 -93.85696,259.81994 -92.46276,259.83768 C -90.02999,259.86864 -85.99025,257.21486 -85.99025,255.58577 C -85.99025,254.94541 -88.43235,251.93343 -91.41714,248.89248 C -111.12876,228.80996 -144.78185,156.83211 -145.33029,133.58204 C -145.51434,125.77929 -144.29478,124.13752 -139.97423,126.37176 C -123.62002,134.82886 -83.47694,216.75864 -81.52821,245.65681 C -81.31656,248.79548 -81.10893,251.76023 -81.06682,252.24515 C -80.96723,253.39187 -73.05939,252.33262 -71.7199,250.99313 C -71.01567,250.2889 -71.49914,247.50723 -73.25441,242.16422 C -78.34317,226.67417 -79.47574,215.43732 -79.48333,180.36348 C -79.48893,154.48367 -79.1486,146.2095 -77.70392,137.10119 C -75.63282,124.0435 -72.64726,113.65364 -70.43974,111.82156 C -69.30804,110.88234 -69.21063,110.34531 -70.07504,109.81107 C -72.00066,108.62098 -67.27255,107.60066 -65.26043,108.77209 C -64.28683,109.3389 -64.03919,109.81635 -64.71011,109.83307 C -65.4569,109.85169 -65.00037,111.23334 -63.53293,113.39572 C -58.12085,121.37088 -54.95223,145.65623 -54.92582,179.36348 C -54.9007,211.43501 -57.29243,232.56581 -62.26962,244.24536 C -64.29568,248.99977 -64.30115,249.16297 -62.479,250.49536 C -61.44994,251.24783 -58.73395,251.86348 -56.44346,251.86348 L -52.27893,251.86348 L -51.71463,244.40215 C -49.85864,219.86172 -16.38001,151.34408 3.63971,131.11348 C 10.04951,124.63617 11.88377,123.80183 14.02967,126.38748 C 22.27782,136.32589 -18.65825,225.19512 -41.37643,246.67009 C -44.46403,249.58873 -46.99025,252.75421 -46.99025,253.70449 C -46.99025,255.33877 -42.33834,258.86348 -40.18142,258.86348 C -39.63128,258.86348 -37.72923,256.27598 -35.95463,253.11348 C -22.80309,229.67612 56.33051,169.86348 74.18717,169.86348 C 77.69657,169.86348 78.00975,170.09025 78.00975,172.63135 C 78.00975,176.63457 74.09614,181.99703 62.63375,193.69966 C 35.45341,221.44965 -14.29321,256.56827 -31.74025,260.32297 C -35.43469,261.11804 -35.9887,263.41002 -33.43026,267.3147 C -31.04949,270.9482 -29.46579,271.02406 -25.30635,267.7038 C -17.22911,261.25618 -0.55291,254.31449 25.50975,246.55093 C 71.73599,232.78102 116.00975,227.23366 116.00975,235.21157 C 116.00975,237.68229 110.41432,241.80065 101.00975,246.25191 C 68.44883,261.66324 0.81125,277.58892 -21.96872,275.20794 L -27.99025,274.57857 L -27.99025,278.59858 C -27.99025,284.35906 -26.5061,285.19524 -19.37204,283.45415 C 2.96478,278.00277 73.05815,283.61883 106.00975,293.50006 C 132.18044,301.3479 122.99039,308.86348 87.22338,308.86348 C 53.94342,308.86348 4.58928,302.36678 -15.04304,295.4017 C -27.89007,290.84388 -28.93914,290.95745 -28.97494,296.90987 C -28.98951,299.33239 -28.59879,299.51331 -20.943,300.62916 C 8.59749,304.93473 82.50781,340.57681 99.00174,358.47062 C 104.23749,364.15073 104.00452,366.25514 98.09308,366.6787 C 83.4539,367.7276 48.76779,354.13055 -0.93922,327.85776 C -17.61843,319.04191 -16.79441,320.85296 4.00975,338.73461 C 22.57524,354.69208 37.54228,369.29826 48.91836,382.56048 C 60.0589,395.5481 65.1443,403.44047 65.35803,408.07425 C 65.58308,412.95325 62.36308,412.92039 52.5805,407.94388 C 34.03601,398.51008 -0.02036,369.11798 -25.43465,340.61348 C -32.55953,332.62225 -35.99025,330.12506 -35.99025,332.93013 C -35.99025,333.5168 -33.76659,339.0293 -31.04878,345.18013 C -14.52431,382.5777 -1.41938,433.60228 -4.96088,446.75441 C -5.85956,450.09186 -6.51011,450.86348 -8.4252,450.86348 C -11.16344,450.86348 -15.56277,446.23868 -19.56455,439.15322 C -21.05241,436.51886 -23.98557,431.43848 -26.08269,427.86348 C -30.77604,419.86263 -43.33957,385.6998 -45.89722,373.98369 C -53.11811,340.90608 -54.99025,331.08879 -54.99025,326.30093 L -54.99025,320.86348 L -59.08409,320.86348 L -63.17793,320.86348 L -62.33409,326.11348 C -60.82911,335.4768 -61.47543,376.16744 -63.34667,389.86348 C -68.63017,428.53457 -77.75666,457.86348 -84.50672,457.86348 C -86.19017,457.86348 -87.40989,456.95268 -88.46889,454.90479 z M -81.12594,449.11348 C -76.00916,439.04084 -70.56864,415.79552 -66.90752,388.36348 C -64.5814,370.93431 -63.81116,334.01875 -65.65563,328.36348 C -67.40019,323.01454 -69.48517,324.09579 -72.78793,332.06224 C -81.15415,352.24205 -87.95754,394.78757 -87.97954,427.06426 C -87.99556,450.55637 -85.66603,458.05087 -81.12594,449.11348 z M -7.99025,439.48068 C -7.99025,430.20742 -10.61461,416.47765 -16.07055,397.20734 C -24.23916,368.35586 -34.63895,342.29499 -43.14913,329.35101 C -49.00601,320.44269 -50.55822,320.88805 -50.27712,331.39619 C -49.72706,351.95927 -35.47385,400.06043 -21.54402,428.36348 C -16.02544,439.57629 -10.5638,447.33599 -8.90979,446.31375 C -8.40404,446.00118 -7.99025,442.9263 -7.99025,439.48068 z M -150.28493,422.61348 C -127.37356,400.44265 -89.58502,341.17226 -87.24683,323.73979 C -86.61549,319.03276 -87.72844,318.79927 -92.70462,322.59478 C -108.41291,334.57608 -145.84755,388.84215 -156.90942,415.66748 C -163.60328,431.90025 -161.81721,433.77301 -150.28493,422.61348 z M 61.42155,407.00619 C 62.24822,405.66862 55.74089,395.5271 48.62044,387.05598 C 41.08393,378.08988 18.3867,355.57892 5.66721,344.45526 C -9.96632,330.78318 -31.61679,315.86348 -35.8233,315.86348 C -41.98639,315.86348 -24.48438,338.65279 -0.87965,361.36348 C 18.7686,380.26754 36.71059,394.87045 50.39186,403.09313 C 58.33626,407.86786 60.42994,408.61065 61.42155,407.00619 z M -206.13512,377.41275 C -186.3944,370.6985 -147.3191,348.71174 -122.10707,330.13212 C -113.03719,323.44822 -100.99025,312.0768 -100.99025,310.19942 C -100.99025,303.65823 -142.79416,323.30581 -177.99025,346.38895 C -195.71427,358.01314 -203.0936,363.59772 -211.24025,371.55216 C -220.14173,380.2436 -218.84269,381.73488 -206.13512,377.41275 z M 98.00975,362.48394 C 98.00975,357.27208 60.25084,334.92133 26.28085,320.02523 C 1.3784,309.10532 -25.99025,301.03259 -25.99025,304.60721 C -25.99025,308.00454 -8.18313,320.15978 14.12237,331.98832 C 50.76503,351.41981 98.00975,368.5947 98.00975,362.48394 z M -41.00556,319.61348 C -41.02741,316.40354 -42.43275,314.60947 -44.59859,315.02657 C -47.12835,315.51376 -47.62822,318.92382 -45.40786,320.54738 C -42.72271,322.51081 -40.98835,322.14289 -41.00556,319.61348 z M -51.6127,315.78691 C -37.73944,310.5869 -29.63434,299.38438 -29.57534,285.32783 C -29.55149,279.64748 -30.07414,277.21231 -32.2885,272.68632 C -41.7945,253.25675 -68.07972,246.88904 -86.68589,259.50831 C -100.01697,268.54986 -104.72008,284.50366 -98.14021,298.36348 C -90.17523,315.14088 -70.02287,322.68746 -51.6127,315.78691 z M -25.14083,311.06522 C -28.08301,307.92926 -31.08623,305.21154 -31.81465,305.02583 C -33.58336,304.5749 -36.99025,307.74965 -36.99025,309.84877 C -36.99025,311.76432 -20.72786,319.38397 -20.14083,317.74346 C -19.94865,317.20639 -22.19865,314.20118 -25.14083,311.06522 z M -194.54681,310.83044 C -157.11307,308.07938 -117.91387,300.91542 -110.45617,295.46222 C -108.72195,294.19412 -108.75241,294.05705 -111.06003,292.74512 C -115.32621,290.31969 -166.3559,290.96604 -187.49025,293.71319 C -208.68547,296.46825 -227.23914,300.02702 -237.79913,303.36292 C -249.68692,307.11827 -250.01572,309.3401 -238.89678,310.78014 C -229.54821,311.9909 -210.62919,312.01236 -194.54681,310.83044 z M 111.33897,303.93532 C 116.2961,302.77417 116.94844,302.02304 114.53342,300.25713 C 109.52505,296.59492 88.88358,291.9853 60.50975,288.19265 C 42.99933,285.85208 36.96209,285.50961 12.00975,285.44139 C -9.24189,285.3833 -17.2337,285.69184 -19.41344,286.65458 C -21.92588,287.76425 -22.13665,288.1393 -20.91344,289.32364 C -15.69741,294.37392 21.12987,301.32446 59.00975,304.40784 C 76.05934,305.79565 104.49306,305.5389 111.33897,303.93532 z M -108.29304,275.07177 C -106.42233,273.88255 -107.99902,272.36745 -114.49025,269.11665 C -129.11031,261.79495 -158.69249,252.89866 -188.48052,246.86545 C -219.65672,240.55109 -244.48069,239.02485 -241.65548,243.59613 C -240.69925,245.14334 -229.05284,250.5652 -218.41055,254.41755 C -198.1533,261.75038 -159.31521,271.04197 -135.12483,274.34275 C -124.22936,275.82945 -110.08923,276.21363 -108.29304,275.07177 z M 9.18028,269.42206 C 48.1477,262.78288 99.46656,246.72673 109.23617,238.11754 C 112.03287,235.65303 110.35697,234.86348 102.32907,234.86348 C 81.04007,234.86348 30.80845,246.57443 -1.02113,258.95845 C -14.29147,264.12158 -23.49789,269.23308 -22.48341,270.87455 C -21.38752,272.64774 -5.46538,271.91735 9.18028,269.42206 z M -99.54729,257.95578 C -97.92684,255.33383 -116.73207,236.68483 -136.61713,221.19391 C -167.6943,196.98407 -204.64864,175.12187 -208.30821,178.78144 C -210.91124,181.38447 -195.00505,197.65856 -172.80775,215.10303 C -149.23158,233.63112 -123.13578,250.32177 -108.01922,256.54121 C -101.91909,259.051 -100.38272,259.30753 -99.54729,257.95578 z M -19.49025,251.67611 C 7.39038,238.14736 56.14715,199.5589 70.39463,180.53688 C 72.38295,177.88226 74.00975,175.29476 74.00975,174.78688 C 74.00975,172.94462 69.30415,173.93497 62.44986,177.2198 C 37.55413,189.15076 -11.03366,226.74863 -27.3858,246.73581 C -36.69117,258.10975 -34.7218,259.34199 -19.49025,251.67611 z M -84.99025,245.28009 C -84.99025,225.18927 -118.53467,152.51739 -136.30336,134.11348 C -138.56018,131.77598 -140.76297,129.86348 -141.19846,129.86348 C -142.87793,129.86348 -141.86678,139.03423 -139.14431,148.49392 C -130.35063,179.04895 -104.94658,229.7058 -90.69028,245.11348 C -86.35192,249.80222 -84.99025,249.84202 -84.99025,245.28009 z M -39.85157,240.61348 C -32.87521,232.24708 -25.69481,220.99194 -16.64648,204.23996 C 1.37227,170.88021 15.50904,131.99196 10.28791,130.14728 C 7.04453,129.00135 -7.38684,148.99223 -19.63874,171.6028 C -33.12864,196.49807 -43.26465,220.49657 -47.10729,236.63863 C -50.07896,249.12201 -47.9287,250.29997 -39.85157,240.61348 z M -63.12412,234.84643 C -59.80934,221.81528 -58.54578,206.64075 -58.54578,179.86348 C -58.54578,153.141 -59.80961,137.91101 -63.10086,124.97148 C -66.42359,111.9082 -68.71777,112.09351 -71.86859,125.67968 C -75.15274,139.84078 -76.30475,153.91153 -76.30475,179.86348 C -76.30475,205.76802 -75.14758,219.98964 -71.91705,233.78851 C -68.67785,247.62438 -66.44289,247.89328 -63.12412,234.84643 z "
         id="path2623" />
    </g>
  </g>
</svg>
